<svg viewBox="0 0 24 24" xmlns="http://www.w3.org/2000/svg"><g fill-rule="evenodd"><path d="M1 6.5c0-1.66 1.34-3 3-3h11.5c1.65 0 3 1.34 3 3v.46l3.09-1.38c.3-.14.66-.11.95.07 .28.18.45.49.45.83v11.5c0 .33-.18.65-.46.83 -.29.18-.65.21-.96.07l-3.1-1.375v.46c0 1.65-1.35 3-3 3H3.97c-1.66 0-3-1.35-3-3v-11.5Zm3-1c-.56 0-1 .44-1 1V18c0 .55.44 1 1 1h11.5c.55 0 1-.45 1-1v-1.24c0-1.09 1.11-1.82 2.1-1.38l2.39 1.06V8.01l-2.4 1.06c-1 .44-2.11-.29-2.11-1.38V6.45c0-.56-.45-1-1-1H3.98Z"/><path d="M6.01 7.32c.08-.48.5-.83.98-.83h4.99c.31 0 .6.14.79.39 .18.25.24.57.16.87l-.64 2.22h1.67c.38 0 .74.22.9.57 .16.35.11.76-.14 1.06l-5 6c-.27.32-.72.44-1.11.3 -.4-.15-.66-.52-.66-.95v-3h-2c-.3 0-.58-.14-.77-.36 -.19-.23-.27-.53-.22-.82l1-5.5Zm1.81 1.17l-.64 3.5h1.8c.55 0 .99.44.99 1v1.23l1.86-2.24h-.87c-.32 0-.61-.15-.8-.4 -.19-.26-.25-.58-.17-.88l.63-2.23H7.78Z"/></g></svg>