<svg viewBox="0 0 24 24" xmlns="http://www.w3.org/2000/svg"><g fill-rule="evenodd"><path d="M5.29 4.58c-.29.24-.3.39-.3.41 0 .02.01.16.29.41 .28.24.74.51 1.4.76 1.3.49 3.18.81 5.3.81 2.12 0 3.99-.33 5.3-.82 .65-.25 1.12-.52 1.4-.77 .28-.25.29-.4.29-.42 0-.03-.02-.17-.3-.42 -.29-.25-.75-.52-1.41-.77 -1.31-.5-3.19-.82-5.31-.82 -2.13 0-4 .32-5.31.81 -.66.24-1.13.51-1.41.76Zm.69-2.64c1.58-.6 3.71-.95 6-.95s4.42.34 6 .94c.78.29 1.49.67 2.02 1.14 .52.46.96 1.11.96 1.91 0 .8-.44 1.44-.97 1.91 -.53.46-1.24.84-2.03 1.14 -1.59.59-3.72.94-6.01.94 -2.3 0-4.43-.35-6.01-.95 -.79-.3-1.5-.68-2.03-1.15 -.53-.47-.97-1.12-.97-1.92 0-.81.43-1.45.96-1.92 .52-.47 1.23-.85 2.02-1.15Z"/><path d="M5 5v14c0 .02.01.16.29.41 .28.24.74.51 1.4.76 1.3.49 3.18.81 5.3.81 2.12 0 3.99-.33 5.3-.82 .65-.25 1.12-.52 1.4-.77 .28-.25.29-.4.29-.42v-14h2v14c0 .8-.44 1.44-.97 1.91 -.53.46-1.24.84-2.03 1.14 -1.59.59-3.72.94-6.01.94 -2.3 0-4.43-.35-6.01-.95 -.79-.3-1.5-.68-2.03-1.15 -.53-.47-.97-1.12-.97-1.92v-14h2Z"/><path d="M13.01 12.5c-.21 0-.39.12-.47.31l-.15.36c-.41 1.01-1.22 1.82-2.23 2.22l-.37.14c-.19.07-.32.25-.32.46v.18c0 .31.28.54.58.49l1.68-.31c.81-.15 1.46-.8 1.61-1.61l.3-1.69c.05-.31-.18-.59-.5-.59h-.19Zm-2.33-.43c.37-.95 1.29-1.58 2.32-1.58h.18c1.55 0 2.73 1.41 2.45 2.94l-.31 1.68c-.3 1.63-1.59 2.92-3.22 3.21l-1.69.3c-1.54.27-2.95-.9-2.95-2.46v-.19c0-1.03.62-1.95 1.57-2.33l.36-.15c.5-.21.91-.61 1.11-1.12l.14-.37Z"/></g></svg>