<svg viewBox="0 0 24 24" xmlns="http://www.w3.org/2000/svg"><g fill-rule="evenodd"><path d="M3.09 9.26c.34-1.62 1.77-2.77 3.42-2.77h10.95c1.65 0 3.07 1.15 3.42 2.76l1.92 8.99c.46 2.17-1.2 4.23-3.43 4.23H4.55c-2.23 0-3.89-2.06-3.43-4.24l1.92-9Zm3.42-.77c-.71 0-1.32.49-1.47 1.18l-1.93 8.99c-.21.93.51 1.81 1.46 1.81h14.81c.95 0 1.66-.89 1.46-1.82l-1.93-9c-.15-.7-.76-1.19-1.47-1.19H6.48Z"/><path d="M3.09 9.26c.34-1.62 1.77-2.77 3.42-2.77h10.95c1.65 0 3.07 1.15 3.42 2.76 .46 2.17-1.2 4.23-3.43 4.23h-3.48v-2h3.47c.95 0 1.66-.89 1.46-1.82 -.15-.7-.76-1.19-1.47-1.19H6.47c-.71 0-1.32.49-1.47 1.18 -.21.93.51 1.81 1.46 1.81h3.47v2H6.45c-2.23 0-3.89-2.06-3.43-4.24Z"/><path d="M9 7.5c0-.56.44-1 1-1h4c.55 0 1 .44 1 1V14c0 1.65-1.35 3-3 3 -1.66 0-3-1.35-3-3V7.5Zm2 1V14c0 .55.44 1 1 1 .55 0 1-.45 1-1V8.5h-2Z"/><path d="M11.5 3C9.56 3 8 4.56 8 6.5v1H6v-1C6 3.46 8.46 1 11.5 1h1C15.53 1 18 3.46 18 6.5v1h-2v-1C16 4.56 14.43 3 12.5 3h-1Z"/></g></svg>