<svg viewBox="0 0 24 24" xmlns="http://www.w3.org/2000/svg"><g fill-rule="evenodd"><path d="M12 8c-2.21 0-4 1.79-4 4 0 .9.29 1.73.79 2.4 .06.08.11.18.14.28l.87 2.63c.13.4.51.68.94.68h2.45c.43 0 .81-.28.94-.69l.87-2.64c.03-.11.08-.2.14-.29 .5-.67.79-1.5.79-2.41 0-2.21-1.8-4-4-4Zm-6 4c0-3.32 2.68-6 6-6 3.31 0 6 2.68 6 6 0 1.28-.41 2.48-1.11 3.46l-.83 2.48c-.41 1.22-1.56 2.05-2.846 2.05h-2.46c-1.3 0-2.44-.83-2.85-2.06l-.83-2.49c-.7-.98-1.11-2.18-1.11-3.47Z"/><path d="M17.293 5.29l2-2 1.41 1.41 -2 2 -1.42-1.42Z"/><path d="M20 11h2v2h-2v-2Z"/><path d="M2 11h2v2H2v-2Z"/><path d="M4.7 3.29l2 2L5.28 6.7l-2-2 1.41-1.42Z"/><path d="M13 2v2h-2V2h2Z"/><path d="M9 20c0 1.65 1.34 3 3 3 1.65 0 3-1.35 3-3v-1c0-.56-.45-1-1-1h-4c-.56 0-1 .44-1 1v1Zm3 1c-.56 0-1-.45-1-1h2c0 .55-.45 1-1 1Z"/></g></svg>