<svg viewBox="0 0 24 24" xmlns="http://www.w3.org/2000/svg"><g fill-rule="evenodd"><path d="M12 12c0-.56.44-1 1-1h8c.55 0 1 .44 1 1v10c0 .55-.45 1-1 1h-8c-.56 0-1-.45-1-1V12Zm2 1v8h6v-8h-6Z"/><path d="M1 11c0-2.77 2.23-5 5-5 2.76 0 5 2.23 5 5v6c0 .55-.45 1-1 1H2c-.56 0-1-.45-1-1v-6Zm5-3c-1.66 0-3 1.34-3 3v5h6v-5c0-1.66-1.35-3-3-3Z"/><path d="M19.99 1.12c.31.17.5.5.5.87v10c0 .55-.45 1-1 1h-5c-.56 0-1-.45-1-1v-7c0-.36.18-.68.48-.86l5-3c.3-.19.69-.2 1-.02Zm-4.5 4.43v5.43h3V3.74l-3 1.8Z"/></g></svg>