<svg viewBox="0 0 24 24" xmlns="http://www.w3.org/2000/svg"><g fill-rule="evenodd"><path d="M16.2 17.12l-2.83-2.83 1.41-1.42 2.82 2.82 -1.42 1.41Z"/><path d="M17.62 14.29l-2.83 2.82 -1.42-1.42 2.82-2.83 1.41 1.41Z"/><path d="M9.45 15.54l-1.76-1.76 -1.42 1.41 3 3c.25.25.62.35.97.25 .34-.1.61-.38.7-.73l1.81-7.25h4.21v-2h-5c-.46 0-.86.31-.98.75L9.4 15.49Z"/><path d="M3 5c0-.56.44-1 1-1h16c.55 0 1 .44 1 1v17c0 .55-.45 1-1 1H4c-.56 0-1-.45-1-1V5Zm2 1v15h14V6H5Z"/><path d="M3 4c0-1.66 1.34-3 3-3h14v2H6c-.56 0-1 .44-1 1v1H3V4Z"/></g></svg>