<svg viewBox="0 0 24 24" xmlns="http://www.w3.org/2000/svg"><g fill-rule="evenodd"><path d="M1 6c0-.56.44-1 1-1h20c.55 0 1 .44 1 1v16c0 .55-.45 1-1 1H2c-.56 0-1-.45-1-1V6Zm2 1v14h18V7H3Z"/><path d="M2.56 1.64c.14-.4.51-.65.93-.65h17c.41 0 .79.25.93.64l1.5 4c.11.3.07.65-.12.92 -.19.26-.5.43-.83.43h-20c-.33 0-.64-.17-.83-.44 -.19-.27-.23-.62-.12-.93l1.5-4Zm1.62 1.35l-.75 2h17.11l-.75-2H4.17Z"/><path d="M9.5 12.66c0-1.2.96-2.17 2.16-2.17h2.83v2h-2.84c-.09 0-.17.07-.17.16 0 .06.04.13.11.15l1.41.47c.88.29 1.47 1.12 1.47 2.05 0 1.19-.97 2.16-2.17 2.16H9.46v-2h2.83c.08 0 .16-.08.16-.17 0-.07-.05-.14-.12-.16l-1.42-.48c-.89-.3-1.48-1.13-1.48-2.06Z"/><path d="M11 18.5v-2h2v2h-2Z"/><path d="M11 11.5v-2h2v2h-2Z"/><path d="M12 9c-2.77 0-5 2.23-5 5 0 2.76 2.23 5 5 5 2.76 0 5-2.24 5-5 0-2.77-2.24-5-5-5Zm-7 5c0-3.87 3.13-7 7-7 3.86 0 7 3.13 7 7 0 3.86-3.14 7-7 7 -3.87 0-7-3.14-7-7Z"/></g></svg>