<svg viewBox="0 0 24 24" xmlns="http://www.w3.org/2000/svg"><g fill-rule="evenodd"><path d="M7.73 5.52c-1.05.96-1.74 2.42-1.74 4.39 0 1.28.76 2.96 1.91 4.69 1.12 1.69 2.49 3.27 3.49 4.34 .33.35.859.35 1.18 0 .99-1.07 2.37-2.65 3.49-4.35 1.15-1.74 1.91-3.42 1.91-4.7 0-1.98-.69-3.44-1.74-4.4 -1.06-.98-2.55-1.53-4.27-1.53 -1.73 0-3.22.55-4.27 1.52ZM6.36 4.05c1.48-1.38 3.48-2.07 5.63-2.07 2.14 0 4.15.68 5.63 2.06 1.49 1.38 2.36 3.39 2.36 5.86 0 1.92-1.07 4.02-2.25 5.8 -1.21 1.82-2.67 3.49-3.71 4.602 -1.13 1.19-2.99 1.19-4.12 0 -1.04-1.11-2.5-2.78-3.71-4.602C5 13.91 3.94 11.81 3.94 9.89c0-2.48.87-4.49 2.36-5.87Z"/><path d="M11.44 5.16c.33-.23.77-.23 1.1 0l3 2c.27.18.44.49.44.83v3.5c0 .33-.17.64-.45.83l-3 2c-.34.22-.78.22-1.11 0l-3-2c-.28-.19-.45-.5-.45-.84v-3.5c0-.34.16-.65.44-.84l3-2ZM9.99 8.52v2.42l2 1.33 2-1.34V8.5l-2-1.34 -2 1.33Z"/><path d="M12 8.79l2.44-1.64 1.1 1.66 -2.56 1.7v2.96h-2V10.5L8.42 8.79l1.1-1.67 2.44 1.63Z"/></g></svg>