<svg viewBox="0 0 24 24" xmlns="http://www.w3.org/2000/svg"><g fill-rule="evenodd"><path d="M3 2c0-.56.44-1 1-1h15c.55 0 1 .44 1 1v15c0 .55-.45 1-1 1H4c-.56 0-1-.45-1-1V2Zm2 1v13h13V3H5Z"/><path d="M3 17c0-.56.44-1 1-1h15c.55 0 1 .44 1 1v5c0 .55-.45 1-1 1H4c-.56 0-1-.45-1-1v-5Zm2 1v3h13v-3H5Z"/><path d="M12.5 20.5h-3v-2h3v2Z"/><path d="M16.5 20.5H15v-2h1.5v2Z"/><path d="M10.977 8.5l1.45-3.63 -1.86-.75 -2 5c-.13.3-.09.65.1.93 .18.27.49.43.82.43h3.23l-2.1 3.48 1.71 1.029 3-5c.18-.31.19-.7.01-1.01 -.18-.32-.51-.51-.88-.51h-3.53Z"/></g></svg>