<svg viewBox="0 0 24 24" xmlns="http://www.w3.org/2000/svg"><g fill-rule="evenodd"><path d="M4 15.5c0-.56.44-1 1-1h3.5c.55 0 1 .44 1 1v6c0 .55-.45 1-1 1H5c-.56 0-1-.45-1-1v-6Zm2 1v4h1.5v-4H6Z"/><path d="M14.58 12.18c-.15-.11-.36-.07-.45.09l-1.27 2.21c-.06.09-.14.18-.22.26l-1.75 1.5c-.19.15-.42.24-.66.24h-.75v4h6.41c.21 0 .4-.14.47-.35l.78-2.35c.21-.65-.27-1.32-.95-1.32h-1.73c-.34 0-.65-.17-.84-.45 -.19-.29-.22-.64-.09-.95l1.09-2.56c.05-.13.01-.28-.1-.37Zm-2.19-.91c.68-1.21 2.27-1.54 3.38-.7 .84.63 1.15 1.77.73 2.74l-.5 1.16h.2c2.04 0 3.49 2 2.84 3.94l-.79 2.34c-.35 1.02-1.3 1.7-2.38 1.7H8.45c-.56 0-1-.45-1-1v-6c0-.56.44-1 1-1h1.38l1.33-1.15 1.18-2.07Z"/><path d="M19 3c.32 0 .62.15.81.42l.88 1.24 1.45.45c.3.09.55.33.65.64 .1.3.04.64-.15.9l-.92 1.22 .01 1.52c0 .32-.15.63-.42.82 -.27.19-.61.24-.91.13l-1.45-.49 -1.45.48c-.31.1-.65.05-.91-.14 -.27-.2-.42-.5-.42-.83l.01-1.53 -.92-1.23c-.2-.27-.25-.6-.15-.91 .1-.31.34-.55.65-.65l1.45-.46 .88-1.25c.18-.27.49-.43.81-.43Zm0 2.73l-.26.36c-.13.17-.31.31-.52.37l-.43.13 .26.36c.13.17.2.39.19.61l-.01.44 .42-.15c.2-.08.43-.08.64 0l.42.14 -.01-.45c-.01-.22.06-.44.19-.62l.26-.37 -.43-.14c-.21-.07-.4-.2-.52-.38l-.26-.37Z"/><path d="M12 1c.32 0 .62.15.81.42l.88 1.24 1.45.45c.3.09.55.33.65.64 .1.3.04.64-.15.9l-.92 1.22 .01 1.52c0 .32-.15.63-.42.82 -.27.19-.61.24-.91.13l-1.45-.49 -1.45.48c-.31.1-.65.05-.91-.14 -.27-.2-.42-.5-.42-.83l.01-1.53 -.92-1.23c-.2-.27-.25-.6-.15-.91 .1-.31.34-.55.65-.65l1.45-.46 .88-1.25c.18-.27.49-.43.81-.43Zm0 2.73l-.26.36c-.13.17-.31.31-.52.37l-.43.13 .26.36c.13.17.2.39.19.61l-.01.44 .42-.15c.2-.08.43-.08.64 0l.42.14 -.01-.45c-.01-.22.06-.44.19-.62l.26-.37 -.43-.14c-.21-.07-.4-.2-.52-.38l-.26-.37Z"/><path d="M5 3c.32 0 .62.15.81.42l.88 1.24 1.45.45c.3.09.55.33.65.64 .1.3.04.64-.15.9l-.92 1.22 .01 1.52c0 .32-.15.63-.42.82 -.27.19-.61.24-.91.13l-1.45-.49 -1.45.48c-.31.1-.65.05-.91-.14 -.27-.2-.42-.5-.42-.83l.01-1.53 -.92-1.23c-.2-.27-.25-.6-.15-.91 .1-.31.34-.55.65-.65l1.45-.46 .88-1.25c.18-.27.49-.43.81-.43Zm0 2.73l-.26.36c-.13.17-.31.31-.52.37l-.43.13 .26.36c.13.17.2.39.19.61L4.23 8l.42-.15c.2-.08.43-.08.64 0l.42.14 -.01-.45c-.01-.22.06-.44.19-.62l.26-.37 -.43-.14c-.21-.07-.4-.2-.52-.38l-.26-.37Z"/></g></svg>