<svg viewBox="0 0 24 24" xmlns="http://www.w3.org/2000/svg"><g fill-rule="evenodd"><path d="M14.63 11.24c-.59-.59-1.54-.59-2.13 0 -.4.39-1.03.39-1.42 0 -.59-.59-1.54-.59-2.13 0 -.59.58-.59 1.53 0 2.12l2.82 2.82 2.82-2.83c.58-.59.58-1.54 0-2.13ZM11.8 9.27c1.34-.79 3.09-.61 4.24.54 1.36 1.36 1.36 3.58 0 4.94l-3.54 3.53c-.4.39-1.03.39-1.42 0l-3.54-3.54c-1.37-1.37-1.37-3.59 0-4.95 1.15-1.16 2.9-1.34 4.24-.55Z"/><path d="M3 5c0-.56.44-1 1-1h16c.55 0 1 .44 1 1v17c0 .55-.45 1-1 1H4c-.56 0-1-.45-1-1V5Zm2 1v15h14V6H5Z"/><path d="M3 4c0-1.66 1.34-3 3-3h14v2H6c-.56 0-1 .44-1 1v1H3V4Z"/></g></svg>