<svg viewBox="0 0 24 24" xmlns="http://www.w3.org/2000/svg"><g fill-rule="evenodd"><path d="M8 4.92c.03-.53.47-.93.99-.93h6c.52 0 .96.4.99.92l.5 7c.01.27-.08.54-.27.75 -.19.2-.46.31-.74.31h-7c-.28 0-.55-.12-.74-.32 -.19-.21-.29-.48-.27-.76l.5-7.01Zm1.92 1.07l-.36 5h4.85l-.36-5H9.91Z"/><path d="M9 4c0-1.66 1.34-3 3-3 1.65 0 3 1.34 3 3v1c0 .55-.45 1-1 1h-4c-.56 0-1-.45-1-1V4Zm3-1c-.56 0-1 .44-1 1h2c0-.56-.45-1-1-1Z"/><path d="M10.75 14.933c-.04-.06-.11-.07-.17-.04l-4.6 2.67v2.92h9.63l4.49-3.75c.2-.18.22-.49.03-.69 -.16-.16-.41-.19-.6-.06l-4 2.79c-.17.11-.37.18-.58.18h-5c-.37 0-.71-.21-.89-.53 -.18-.33-.16-.72.04-1.03l1.58-2.38c.02-.05.02-.1 0-.14Zm-1.17-1.77c.96-.57 2.21-.28 2.83.65 .47.71.47 1.64 0 2.35l-.55.82h2.81l3.73-2.62c.97-.69 2.3-.57 3.15.27 1.02 1.02.94 2.7-.17 3.63l-4.77 3.97c-.18.14-.41.23-.65.23h-11c-.56 0-1-.45-1-1v-4.5c0-.36.18-.69.49-.87l5.08-2.97Z"/><path d="M1 15.5c0-.56.44-1 1-1h3c.55 0 1 .44 1 1V22c0 .55-.45 1-1 1H2c-.56 0-1-.45-1-1v-6.5Zm2 1V21h1v-4.5H3Z"/></g></svg>