<svg viewBox="0 0 24 24" xmlns="http://www.w3.org/2000/svg"><g fill-rule="evenodd"><path d="M4.01 4.82c.08-.48.49-.83.98-.83h14c.48 0 .9.34.98.82l3 17c.05.29-.03.59-.22.81 -.19.22-.48.35-.77.35h-20c-.3 0-.58-.14-.77-.36 -.19-.23-.28-.53-.22-.82l3-17Zm1.82 1.17l-2.65 15h17.61l-2.65-15H5.81Z"/><path d="M4 2c0-.56.44-1 1-1h14c.55 0 1 .44 1 1v3c0 .55-.45 1-1 1H5c-.56 0-1-.45-1-1V2Zm2 1v1h12V3H6Z"/><path d="M8.98 7.66l-2.5 14.5 -1.98-.34L7 7.32l1.97.33Z"/><path d="M15 7.63l2 14.5 1.98-.28 -2-14.5 -1.99.27Z"/><path d="M13 7.5V22h-2V7.5h2Z"/></g></svg>