<svg viewBox="0 0 24 24" xmlns="http://www.w3.org/2000/svg"><g fill-rule="evenodd"><path d="M4.51 4.3c.09-.47.5-.81.98-.81h13c.47 0 .88.33.98.8l.73 3.67c.53 2.65.53 5.38 0 8.04l-.74 3.67c-.1.46-.51.8-.99.8h-13c-.48 0-.89-.34-.99-.81l-.74-3.68c-.54-2.654-.54-5.39 0-8.05l.73-3.68Zm1.8 1.19l-.58 2.87c-.48 2.39-.48 4.86 0 7.25l.57 2.87h11.36l.57-2.88c.47-2.4.47-4.87 0-7.26l-.58-2.88H6.28Z"/><path d="M4.22 1.36c.18-.24.47-.37.77-.37h14c.29 0 .58.13.77.36 .18.23.26.53.2.83l-.5 2.5c-.1.46-.51.8-.99.8h-13c-.48 0-.89-.34-.99-.81l-.5-2.5c-.06-.3.01-.6.2-.84Zm1.99 1.63l.1.5h11.36l.1-.5H6.2Z"/><path d="M4.51 19.3c.09-.47.5-.81.98-.81h13c.47 0 .88.33.98.8l.5 2.5c.05.29-.02.59-.21.83 -.19.23-.48.36-.78.36h-14c-.3 0-.59-.14-.78-.37 -.19-.24-.266-.54-.21-.84l.5-2.5Zm1.8 1.19l-.1.5h11.56l-.1-.5H6.3Z"/><path d="M9.77 8.67c-.54.4-.78.87-.78 1.32 0 .44.23.92.77 1.32 .53.4 1.31.67 2.22.67 .9 0 1.69-.28 2.22-.68 .53-.41.77-.88.77-1.33 0-.45-.24-.93-.78-1.33 -.54-.41-1.32-.68-2.23-.68 -.91 0-1.7.27-2.23.67Zm-1.2-1.6c.91-.69 2.12-1.08 3.42-1.08 1.3 0 2.51.39 3.42 1.07 .91.68 1.57 1.7 1.57 2.92 0 1.21-.66 2.23-1.58 2.92 -.92.68-2.13 1.07-3.43 1.07 -1.3 0-2.52-.4-3.43-1.08 -.92-.69-1.58-1.71-1.58-2.93 0-1.22.65-2.24 1.57-2.93Z"/></g></svg>