<svg viewBox="0 0 24 24" xmlns="http://www.w3.org/2000/svg"><g fill-rule="evenodd"><path d="M1 2c0-.56.44-1 1-1h13c.55 0 1 .44 1 1v5.5h-2V3H3v16h6v2H2c-.56 0-1-.45-1-1V2Z"/><path d="M16 11c-2.77 0-5 2.23-5 5 0 2.76 2.23 5 5 5 2.76 0 5-2.24 5-5 0-2.77-2.24-5-5-5Zm-7 5c0-3.87 3.13-7 7-7 3.86 0 7 3.13 7 7 0 3.86-3.14 7-7 7 -3.87 0-7-3.14-7-7Z"/><path d="M16 15c-.56 0-1 .44-1 1 0 .55.44 1 1 1 .55 0 1-.45 1-1 0-.56-.45-1-1-1Zm-3 1c0-1.66 1.34-3 3-3 1.65 0 3 1.34 3 3 0 1.65-1.35 3-3 3 -1.66 0-3-1.35-3-3Z"/><path d="M18.96 10.77l-1 3.5 -1.93-.55 1-3.5 1.92.54Z"/><path d="M13.53 21.22l1-3.5 1.92.54 -1 3.5 -1.923-.55Z"/><path d="M12.5 6h-8V4h8v2Z"/><path d="M11.5 9h-6V7h6v2Z"/></g></svg>