<svg viewBox="0 0 24 24" xmlns="http://www.w3.org/2000/svg"><g fill-rule="evenodd"><path d="M3 9c0-3.87 3.13-7 7-7 3.86 0 7 3.13 7 7v4c0 .55-.45 1-1 1H4c-.56 0-1-.45-1-1V9Zm7-5C7.23 4 5 6.23 5 9v3h10V9c0-2.77-2.24-5-5-5Z"/><path d="M3 13c0-.56.44-1 1-1h12c.55 0 1 .44 1 1v.35c0 .79-.47 1.5-1.19 1.82l-3.4 1.5 -.43 3.43c-.07.5-.49.87-1 .87h-2c-.51 0-.93-.38-1-.88l-.43-3.44 -3.4-1.51c-.73-.33-1.19-1.04-1.19-1.83v-.36Zm3.46 1l2.44 1.08c.32.14.54.44.58.78l.39 3.12h.23l.39-3.13c.04-.35.26-.65.58-.79l2.44-1.09H6.43Z"/><path d="M17 18c-.56 0-1 .44-1 1 0 .55.44 1 1 1 .55 0 1-.45 1-1 0-.56-.45-1-1-1Zm-3 1c0-1.66 1.34-3 3-3 1.65 0 3 1.34 3 3 0 1.65-1.35 3-3 3 -1.66 0-3-1.35-3-3Z"/></g></svg>