<svg viewBox="0 0 24 24" xmlns="http://www.w3.org/2000/svg"><g fill-rule="evenodd"><path d="M2 6.5c0-.56.44-1 1-1h18c.55 0 1 .44 1 1V22c0 .55-.45 1-1 1H3c-.56 0-1-.45-1-1V6.5Zm2 1V21h16V7.5H4Z"/><path d="M4.5 16.5c0-.56.44-1 1-1h6c.55 0 1 .44 1 1v3c0 .55-.45 1-1 1h-6c-.56 0-1-.45-1-1v-3Zm2 1v1h4v-1h-4Z"/><path d="M8 6.5c0-.56.44-1 1-1h6c.55 0 1 .44 1 1V11c0 .36-.21.7-.53.88 -.33.17-.72.15-1.03-.05l-.95-.64 -.95.63c-.34.22-.78.22-1.11 0l-.95-.64 -.95.63c-.31.2-.71.22-1.03.04 -.33-.18-.53-.52-.53-.89v-4.5Zm2 2.63c.32-.19.73-.18 1.05.03l.94.63 .94-.64c.31-.22.72-.23 1.05-.04V7.47h-4V9.1Z"/><path d="M2.97 1.78l1 4.5 -1.96.43 -1-4.5 1.95-.44Z"/><path d="M21.02 1.78l-1 4.5 1.95.43 1-4.5 -1.96-.44Z"/></g></svg>