<svg viewBox="0 0 24 24" xmlns="http://www.w3.org/2000/svg"><g fill-rule="evenodd"><path d="M4.5 5.5c-.56 0-1 .44-1 1v9c0 .55.44 1 1 1H16c.19 0 .39.05.55.16l2.94 1.96v-8.14h2v10c0 .36-.21.7-.53.88 -.33.17-.72.15-1.03-.05l-4.25-2.84H4.48c-1.66 0-3-1.35-3-3v-9c0-1.66 1.34-3 3-3h9v2h-9Z"/><path d="M4.5 11c0-1.11.89-2 2-2 1.1 0 2 .89 2 2 0 1.1-.9 2-2 2 -1.11 0-2-.9-2-2Z"/><path d="M9.5 11c0-1.11.89-2 2-2 1.1 0 2 .89 2 2 0 1.1-.9 2-2 2 -1.11 0-2-.9-2-2Z"/><path d="M14.5 11c0-1.11.89-2 2-2 1.1 0 2 .89 2 2 0 1.1-.9 2-2 2 -1.11 0-2-.9-2-2Z"/><path d="M19 3c-1.11 0-2 .89-2 2 0 1.1.89 2 2 2 1.1 0 2-.9 2-2 0-1.11-.9-2-2-2Zm-4 2c0-2.21 1.79-4 4-4 2.2 0 4 1.79 4 4 0 2.2-1.8 4-4 4 -2.21 0-4-1.8-4-4Z"/></g></svg>