<svg viewBox="0 0 24 24" xmlns="http://www.w3.org/2000/svg"><g fill-rule="evenodd"><path d="M12 3c-4.98 0-9 4.02-9 9 0 4.97 4.02 9 9 9 4.97 0 9-4.03 9-9 0-4.98-4.03-9-9-9ZM1 12C1 5.92 5.92 1 12 1c6.07 0 11 4.92 11 11 0 6.07-4.93 11-11 11C5.92 23 1 18.07 1 12Z"/><path d="M18.14 12c0-3.4-2.76-6.15-6.15-6.15v-2c4.49 0 8.14 3.64 8.14 8.14h-2ZM5.85 12c-.001 3.39 2.75 6.14 6.14 6.14v2c-4.5 0-8.15-3.65-8.15-8.15h2Z"/><path d="M12 9.19c-1.56 0-2.81 1.25-2.81 2.8 0 1.55 1.25 2.8 2.8 2.8 1.55 0 2.8-1.26 2.8-2.81 0-1.56-1.26-2.81-2.81-2.81Zm-4.81 2.8c0-2.66 2.15-4.81 4.8-4.81s4.8 2.15 4.8 4.8 -2.16 4.8-4.81 4.8c-2.66 0-4.81-2.16-4.81-4.81Z"/></g></svg>