<svg viewBox="0 0 24 24" xmlns="http://www.w3.org/2000/svg"><g fill-rule="evenodd"><path d="M1.5 4c0-.56.44-1 1-1H8c.32 0 .62.15.81.41l4.79 6.71 6.01 1.76c1.7.5 2.87 2.06 2.87 3.83v.75c0 .55-.45 1-1 1h-9.45c-.29 0-.57-.13-.76-.35l-5.95-6.86 -3.36-1.94c-.32-.18-.51-.51-.51-.87v-3.5Zm2 1v1.92l2.99 1.72c.09.05.18.12.25.21l5.75 6.64h7.97c-.1-.79-.65-1.45-1.43-1.68l-6.35-1.87c-.22-.07-.41-.2-.54-.38L7.43 4.97H3.44Z"/><path d="M3.5 19V7.5h-2V20c0 .55.44 1 1 1h19c.55 0 1-.45 1-1v-3.5h-2V19h-17Z"/><path d="M13 5H8V3h5v2Z"/></g></svg>