<svg viewBox="0 0 24 24" xmlns="http://www.w3.org/2000/svg"><g fill-rule="evenodd"><path d="M1 15c0-.56.44-1 1-1h20c.35 0 .68.18.86.49 .17.3.18.68 0 .99l-1.87 3.26v1.23c0 1.65-1.35 3-3 3h-16c-.56 0-1-.45-1-1v-7Zm2 1v5h15c.55 0 1-.45 1-1v-1.5c0-.18.04-.35.13-.5l1.14-2.01H2.99Z"/><path d="M13 11c0-.56.44-1 1-1h7c.55 0 1 .44 1 1v4c0 .55-.45 1-1 1h-7c-.56 0-1-.45-1-1v-4Zm2 1v2h5v-2h-5Z"/><path d="M13 7c0-.56.44-1 1-1h4c.55 0 1 .44 1 1v4c0 .55-.45 1-1 1h-4c-.56 0-1-.45-1-1V7Zm2 1v2h2V8h-2Z"/><path d="M9 11c0-.56.44-1 1-1h4c.55 0 1 .44 1 1v4c0 .55-.45 1-1 1h-4c-.56 0-1-.45-1-1v-4Zm2 1v2h2v-2h-2Z"/><path d="M9 7c0-.56.44-1 1-1h4c.55 0 1 .44 1 1v4c0 .55-.45 1-1 1h-4c-.56 0-1-.45-1-1V7Zm2 1v2h2V8h-2Z"/><path d="M1 4c0-.56.44-1 1-1h2c.19 0 .39.05.55.16l3 2c.27.18.44.49.44.83v9c0 .55-.45 1-1 1h-5c-.56 0-1-.45-1-1v-11Zm2 1v9h3V6.53L3.69 4.99h-.7Z"/><path d="M4 2v2H2V2h2Z"/><path d="M5 7h2v2H5V7Z"/><path d="M5 10h2v2H5v-2Z"/></g></svg>