<svg viewBox="0 0 24 24" xmlns="http://www.w3.org/2000/svg"><g fill-rule="evenodd"><path d="M4.44 15.16c.33-.23.77-.23 1.1 0l3 2c.27.18.44.49.44.83v4c0 .55-.45 1-1 1h-6c-.56 0-1-.45-1-1v-4c0-.34.16-.65.44-.84l3-2Zm-1.45 3.36v2.46h4v-2.47l-2-1.34 -2 1.33Z"/><path d="M18.44 15.16c.33-.23.77-.23 1.1 0l3 2c.27.18.44.49.44.83v4c0 .55-.45 1-1 1h-6c-.56 0-1-.45-1-1v-4c0-.34.16-.65.44-.84l3-2Zm-1.45 3.36v2.46h4v-2.47l-2-1.34 -2 1.33Z"/><path d="M8.5 2c0-.56.44-1 1-1h5c.55 0 1 .44 1 1v5c0 .55-.45 1-1 1h-5c-.56 0-1-.45-1-1V2Zm2 1v3h3V3h-3Z"/><path d="M11 4V2h2v2h-2Z"/><path d="M4 11.5c0-.56.44-1 1-1h14c.55 0 1 .44 1 1v2h-2v-1H6v1H4v-2Z"/><path d="M13 9.5v2h-2v-2h2Z"/></g></svg>