<svg viewBox="0 0 24 24" xmlns="http://www.w3.org/2000/svg"><g fill-rule="evenodd"><path d="M3 17c0-.56.44-1 1-1h5c.55 0 1 .44 1 1v5c0 .55-.45 1-1 1H4c-.56 0-1-.45-1-1v-5Zm2 1v3h3v-3H5Z"/><path d="M13 8.5C13 6.56 14.56 5 16.5 5 18.43 5 20 6.56 20 8.5V12c0 .55-.45 1-1 1h-5c-.56 0-1-.45-1-1V8.5ZM16.5 7c-.83 0-1.5.67-1.5 1.5V11h3V8.5c0-.83-.68-1.5-1.5-1.5Z"/><path d="M8 7c-.56 0-1 .44-1 1v3h7.381v2H6c-.56 0-1-.45-1-1V8c0-1.66 1.34-3 3-3h8.5v2H8Z"/><path d="M5.5 19v-2h2v2h-2Z"/><path d="M22 23H2v-2h20v2Z"/><path d="M15 10v12h-2V10h2Z"/><path d="M14 1h2c.55 0 1 .44 1 1v4h-2V3h-1V1Z"/></g></svg>