<svg viewBox="0 0 24 24" xmlns="http://www.w3.org/2000/svg"><g fill-rule="evenodd"><path d="M11.43 4.8c-4.42-.05-8.04 3.5-8.08 7.92 -.05 4.41 3.5 8.03 7.92 8.07 4.41.04 8.03-3.51 8.07-7.93l1.99.01c-.06 5.52-4.58 9.95-10.1 9.9 -5.53-.06-9.96-4.58-9.91-10.1 .05-5.53 4.57-9.96 10.09-9.91 .69 0 1.37.08 2.02.22L13 4.93c-.53-.12-1.07-.18-1.63-.19Z"/><path d="M12.16 3.81l-1.49-1.89L12.24.68l1.97 2.51c.28.36.28.88-.02 1.24l-2.03 2.48 -1.55-1.27 1.51-1.87Z"/><path d="M8 10c0-.56.44-1 1-1h5c.55 0 1 .44 1 1v1c0 .26-.11.51-.3.7l-2.5 2.5c-.4.39-1.03.39-1.42 0l-2.51-2.5c-.19-.19-.3-.45-.3-.71v-1Zm2.41 1l1.08 1.08 1.08-1.09h-2.18Z"/><path d="M8 17c0 .55.44 1 1 1h5c.55 0 1-.45 1-1v-1c0-.27-.11-.52-.3-.71l-2.5-2.5c-.4-.4-1.03-.4-1.42 0l-2.51 2.5c-.19.18-.3.44-.3.7v1Zm2.41-1l1.08-1.09 1.08 1.08h-2.18Z"/></g></svg>