<svg viewBox="0 0 24 24" xmlns="http://www.w3.org/2000/svg"><g fill-rule="evenodd"><path d="M4.8 15c-1 0-1.8.8-1.8 1.8 0 .87.53 1.95 1.21 2.92 .19.28.39.54.58.76 .18-.23.38-.49.58-.77 .68-.98 1.21-2.06 1.21-2.93 0-1-.81-1.8-1.8-1.8Zm0 7c-.71.7-.71.7-.71.7l-.01-.01 -.01-.01 -.01-.01 -.03-.03c-.03-.03-.06-.06-.1-.11 -.09-.09-.21-.22-.35-.38 -.28-.32-.66-.78-1.03-1.31 -.72-1.03-1.59-2.55-1.59-4.08 0-2.1 1.7-3.8 3.8-3.8 2.09 0 3.8 1.7 3.8 3.8 0 1.52-.87 3.04-1.59 4.07 -.38.53-.75.99-1.03 1.31 -.15.16-.26.28-.35.37 -.05.04-.08.07-.1.1l-.03.02 -.01 0 -.01 0 -.01 0c-.01 0-.01 0-.71-.71Zm0 0l.7.7c-.4.39-1.03.39-1.42-.01l.7-.71Z"/><path d="M20.1 3c-.61 0-1.1.49-1.1 1.1 0 .57.36 1.32.86 2.05 .07.11.15.21.23.31 .07-.1.15-.21.23-.32 .5-.73.86-1.49.86-2.06 0-.61-.5-1.1-1.1-1.1Zm0 5c-.71.7-.71.7-.71.7l-.01-.01 -.01-.01 -.01-.01 -.03-.03c-.02-.02-.05-.05-.08-.09 -.07-.07-.16-.17-.27-.29 -.22-.25-.51-.6-.79-1.01 -.55-.78-1.24-1.97-1.24-3.2 0-1.72 1.38-3.1 3.1-3.1 1.71 0 3.1 1.38 3.1 3.1 0 1.22-.69 2.42-1.24 3.19 -.29.41-.58.75-.79 1 -.11.12-.2.22-.27.28 -.04.03-.06.06-.08.08l-.03.02 -.01 0 -.01 0 -.01 0c-.01 0-.01 0-.71-.71Zm0 0l.7.7c-.19.18-.45.29-.71.29 -.27 0-.52-.11-.71-.3l.7-.71Z"/><path d="M10 9c-.56 0-1 .44-1 1v.5c0 .55.44 1 1 1h6c2.76 0 5 2.23 5 5V18c0 2.76-2.24 5-5 5H9v-2h7c1.65 0 3-1.35 3-3v-1.5c0-1.66-1.35-3-3-3h-6c-1.66 0-3-1.35-3-3V10c0-1.66 1.34-3 3-3h7v2h-7Z"/></g></svg>