<svg viewBox="0 0 24 24" xmlns="http://www.w3.org/2000/svg"><g fill-rule="evenodd"><path d="M1 3c0-1.11.89-2 2-2h18c1.1 0 2 .89 2 2v18c0 1.1-.9 2-2 2H3c-1.11 0-2-.9-2-2V3Zm20 0H3v18h18V3Z"/><path d="M7.5 4c.31 0 .61.14.8.4l2.99 4c.22.3.26.7.09 1.04 -.17.33-.52.55-.9.55h-.5v5c0 .55-.45 1-1 1h-3c-.56 0-1-.45-1-1v-5h-.5c-.38 0-.73-.22-.9-.56 -.17-.34-.14-.75.09-1.05l3-4c.18-.26.48-.4.8-.4ZM6.42 8.09c.33.16.57.5.57.9v5h1v-5c0-.4.23-.75.57-.91L7.48 6.65 6.4 8.07Z"/><path d="M16 4c.31 0 .61.14.8.4l3 4c.22.3.26.7.09 1.04 -.17.33-.52.55-.9.55h-.5v5c0 .55-.45 1-1 1h-3c-.56 0-1-.45-1-1v-5h-.5c-.38 0-.73-.22-.9-.56 -.17-.34-.14-.75.09-1.05l3-4c.18-.26.48-.4.8-.4Zm-1.08 4.09c.33.16.57.5.57.9v5h1v-5c0-.4.23-.75.57-.91l-1.08-1.43 -1.08 1.42Z"/><path d="M19 20H5v-2h14v2Z"/></g></svg>