<svg viewBox="0 0 24 24" xmlns="http://www.w3.org/2000/svg"><g fill-rule="evenodd"><path d="M8.5 9.5c0-.56.44-1 1-1h5c.55 0 1 .44 1 1v5c0 .55-.45 1-1 1h-5c-.56 0-1-.45-1-1v-5Zm2 1v3h3v-3h-3Z"/><path d="M11 11.5v-2h2v2h-2Z"/><path d="M12 4c-4.42 0-8 3.58-8 8 0 4.41 3.58 8 8 8 4.41 0 8-3.59 8-8 0-4.42-3.59-8-8-8ZM2 12C2 6.47 6.47 2 12 2c5.52 0 10 4.47 10 10 0 5.52-4.48 10-10 10C6.47 22 2 17.52 2 12Z"/><path d="M11 4.5v-3h2v3h-2Z"/><path d="M11 22.5v-3h2v3h-2Z"/><path d="M4.5 13h-3v-2h3v2Z"/><path d="M22.5 13h-3v-2h3v2Z"/></g></svg>