<svg viewBox="0 0 24 24" xmlns="http://www.w3.org/2000/svg"><g fill-rule="evenodd"><path d="M4.5 3H3V1h2.5c.55 0 1 .44 1 1v16H20v2H5.5c-.56 0-1-.45-1-1V3Z"/><path d="M8 7c0-.56.44-1 1-1h8c.55 0 1 .44 1 1v8c0 .55-.45 1-1 1H9c-.56 0-1-.45-1-1V7Zm2 1v6h6V8h-6Z"/><path d="M10.5 7c0-.56.44-1 1-1h3c.55 0 1 .44 1 1v3.5c0 .32-.16.62-.42.81 -.27.18-.6.23-.91.13l-1.19-.4 -1.19.39c-.31.1-.65.05-.91-.14 -.27-.19-.42-.49-.42-.82v-3.5Zm2 1v1.11l.18-.07c.2-.07.42-.07.63 0l.18.06V7.98h-1Z"/><path d="M8.5 20c-.28 0-.5.22-.5.5 0 .27.22.5.5.5 .27 0 .5-.23.5-.5 0-.28-.23-.5-.5-.5Zm-2.5.5C6 19.11 7.11 18 8.5 18c1.38 0 2.5 1.11 2.5 2.5 0 1.38-1.12 2.5-2.5 2.5C7.11 23 6 21.88 6 20.5Z"/><path d="M16.5 20c-.28 0-.5.22-.5.5 0 .27.22.5.5.5 .27 0 .5-.23.5-.5 0-.28-.23-.5-.5-.5Zm-2.5.5c0-1.39 1.11-2.5 2.5-2.5 1.38 0 2.5 1.11 2.5 2.5 0 1.38-1.12 2.5-2.5 2.5 -1.39 0-2.5-1.12-2.5-2.5Z"/></g></svg>