<svg viewBox="0 0 24 24" xmlns="http://www.w3.org/2000/svg"><g fill-rule="evenodd"><path d="M3 12c0-4.98 4.02-9 9-9 4.97 0 9 4.02 9 9 0 4.97-4.03 9-9 9 -4.98 0-9-4.03-9-9Zm10-5v2.38l.75-.85 1.48 1.33 -2.5 2.78c-.28.3-.72.41-1.11.266 -.39-.15-.65-.52-.65-.94v-5h2Z"/><path d="M21.091 4.92l-2.27-2.27 -1.42 1.41 2.26 2.26 1.41-1.42Z"/><path d="M21.091 19.42l-2.27-2.27 -1.42 1.41 2.26 2.26 1.41-1.42Z"/><path d="M2.9 4.92l2.26-2.27 1.41 1.41L4.3 6.32 2.88 4.9Z"/><path d="M2.9 19.42l2.26-2.27 1.41 1.41 -2.27 2.26 -1.42-1.42Z"/></g></svg>