<svg viewBox="0 0 24 24" xmlns="http://www.w3.org/2000/svg"><defs><mask id="a"><path fill="#FFF" d="M0 0h24v24H0Z"/></mask></defs><g mask="url(#a)"><g fill-rule="evenodd"><path d="M5.37 14.64c1.64.82 3.98 1.35 6.62 1.35 2.63 0 4.98-.54 6.62-1.36 1.7-.86 2.37-1.85 2.37-2.65 0-.8-.68-1.79-2.38-2.65 -1.65-.83-3.99-1.36-6.63-1.36 -2.64 0-4.99.53-6.63 1.35 -1.71.85-2.38 1.84-2.38 2.64 0 .79.67 1.78 2.37 2.64Zm-.9 1.78C2.55 15.46.98 13.95.98 11.99c0-1.97 1.56-3.48 3.48-4.43 1.97-.99 4.63-1.58 7.51-1.58s5.54.58 7.51 1.57c1.91.95 3.48 2.46 3.48 4.42s-1.57 3.47-3.49 4.43c-1.98.98-4.64 1.57-7.52 1.57 -2.89 0-5.55-.59-7.52-1.57Z"/><path d="M6.03 8.08c.26 1.81 1.17 4.04 2.68 6.2 1.51 2.16 3.29 3.77 4.91 4.64 1.67.9 2.87.88 3.52.43 .65-.46 1.07-1.58.8-3.47 -.27-1.82-1.18-4.05-2.69-6.21 -1.52-2.17-3.3-3.78-4.92-4.65 -1.68-.91-2.88-.89-3.53-.44 -.66.45-1.08 1.57-.81 3.46Zm-1.98.29c-.32-2.12.02-4.27 1.63-5.4 1.6-1.13 3.74-.71 5.62.31 1.94 1.05 3.94 2.89 5.59 5.25s2.7 4.87 3.02 7.05c.31 2.11-.03 4.26-1.64 5.39 -1.61 1.12-3.75.7-5.63-.32 -1.95-1.06-3.95-2.9-5.6-5.26 -1.66-2.37-2.71-4.88-3.03-7.06Z"/><path d="M17.96 8.08c-.27 1.81-1.18 4.04-2.69 6.2 -1.52 2.16-3.3 3.77-4.92 4.64 -1.68.9-2.88.88-3.53.43 -.66-.46-1.08-1.58-.81-3.47 .26-1.82 1.17-4.05 2.68-6.21 1.51-2.17 3.29-3.78 4.91-4.65 1.67-.91 2.87-.89 3.52-.44 .65.45 1.08 1.57.8 3.46Zm1.97.29c.31-2.12-.03-4.27-1.64-5.4 -1.61-1.13-3.75-.71-5.63.31 -1.95 1.05-3.95 2.89-5.6 5.25 -1.66 2.36-2.71 4.87-3.03 7.05 -.32 2.11.02 4.26 1.63 5.39 1.6 1.12 3.74.7 5.62-.32 1.94-1.06 3.94-2.9 5.59-5.26 1.65-2.37 2.7-4.88 3.02-7.06Z"/><path d="M12 8.5c-1.94 0-3.5 1.56-3.5 3.49 0 1.93 1.56 3.5 3.5 3.5 1.93 0 3.5-1.57 3.5-3.5 0-1.94-1.57-3.5-3.5-3.5Z"/></g></g></svg>