<svg viewBox="0 0 24 24" xmlns="http://www.w3.org/2000/svg"><g fill-rule="evenodd"><path d="M8.31 18.42c-.56 0-1 .44-1 1v.57h9.37v-.58c0-.56-.45-1-1-1h-.41v-2h.4c1.65 0 3 1.34 3 3v1.57c0 .55-.45 1-1 1H6.29c-.56 0-1-.45-1-1V19.4c0-1.66 1.34-3 3-3h.4v2h-.41Z"/><path d="M19.16 8.44c-.76-1.53-1.99-2.78-3.51-3.56l.91-1.78c1.88.97 3.42 2.53 4.37 4.44l-1.8.89Z"/><path d="M4.89 8.44c.75-1.53 1.98-2.78 3.5-3.56L7.47 3.1c-1.89.97-3.43 2.53-4.38 4.44l1.79.89Z"/><path d="M4.97 12.15c0-3.94 3.12-7.16 7.02-7.16 3.89 0 7.02 3.22 7.02 7.15s-3.13 7.15-7.03 7.15c-3.9 0-7.03-3.23-7.03-7.16Zm6.51 0c0-.32.24-.54.5-.54 .25 0 .5.22.5.53 0 .31-.25.53-.51.53s-.51-.23-.51-.54Zm.5-2.54c-1.41 0-2.51 1.15-2.51 2.53s1.1 2.53 2.5 2.53 2.5-1.16 2.5-2.54c0-1.39-1.11-2.54-2.51-2.54Z"/></g></svg>