<svg viewBox="0 0 24 24" xmlns="http://www.w3.org/2000/svg"><g fill-rule="evenodd"><path d="M5.5 18c-.56 0-1 .44-1 1v1h11v-1c0-.56-.45-1-1-1h-.75v-2h.75c1.65 0 3 1.34 3 3v2c0 .55-.45 1-1 1h-13c-.56 0-1-.45-1-1v-2c0-1.66 1.34-3 3-3h.75v2H5.5Z"/><path d="M1 10c0-4.98 4.02-9 9-9 4.97 0 9 4.02 9 9 0 4.97-4.03 9-9 9 -4.98 0-9-4.03-9-9Zm8 0c0-.56.44-1 1-1 .55 0 1 .44 1 1 0 .55-.45 1-1 1 -.56 0-1-.45-1-1Zm1-3c-1.66 0-3 1.34-3 3 0 1.65 1.34 3 3 3 1.65 0 3-1.35 3-3 0-1.66-1.35-3-3-3Z"/><path d="M22 13v5c0 1.65-1.35 3-3 3h-2.5v-2H19c.55 0 1-.45 1-1v-5h2Z"/></g></svg>