<svg viewBox="0 0 24 24" xmlns="http://www.w3.org/2000/svg"><g fill-rule="evenodd"><path d="M11 2.38l-.45-.23C9.02 1.38 7.33.98 5.63.98H3.99c-.56 0-1 .44-1 1v14c0 .55.44 1 1 1h1.63c1.39 0 2.77.32 4.02.95l1.33.66V2.35Z"/><path d="M13 18.61l1.33-.67c1.24-.63 2.62-.96 4.02-.96h1.63c.55 0 1-.45 1-1v-14c0-.56-.45-1-1-1h-1.64c-1.71 0-3.4.39-4.92 1.16l-.45.22V18.59Z"/><path d="M5.63 20H3.99v-2h1.63c1.7 0 3.39.39 4.91 1.16l1.44.72 1.44-.73c1.52-.77 3.21-1.17 4.91-1.17h1.63v2h-1.64c-1.4 0-2.78.32-4.03.95l-1.89.94c-.29.14-.62.14-.9 0l-1.89-.95c-1.25-.63-2.63-.96-4.03-.96Z"/></g></svg>