<svg viewBox="0 0 24 24" xmlns="http://www.w3.org/2000/svg"><g fill-rule="evenodd"><path d="M6 4c0-1.66 1.34-3 3-3h6c1.65 0 3 1.34 3 3v1c0 .55-.45 1-1 1H7c-.56 0-1-.45-1-1V4Zm3-1c-.56 0-1 .44-1 1h8c0-.56-.45-1-1-1H9Z"/><path d="M6 13v.5h2V13h8v.5h2V13h.93c1.83 0 3.43-1.25 3.88-3.03l.18-.73v8.75c0 1.65-1.35 3-3 3h-16c-1.66 0-3-1.35-3-3V9.23l.18.72c.44 1.78 2.04 3.02 3.88 3.02h.93Z"/><path d="M4.56 4C2.6 4 1.17 5.83 1.64 7.72l.5 2c.33 1.33 1.53 2.27 2.91 2.27h.93v-3.5h2v3.5h8v-3.5h2v3.5h.93c1.37 0 2.57-.94 2.91-2.28l.5-2c.47-1.9-.96-3.73-2.92-3.73H4.52Z"/></g></svg>