<svg viewBox="0 0 24 24" xmlns="http://www.w3.org/2000/svg"><path fill-rule="evenodd" d="M11 9.17V4.99H2c-.56 0-1 .44-1 1v1h1c2.76 0 5 2.23 5 5 0 2.76-2.24 5-5 5H1v1c0 .55.44 1 1 1h9v-4.18c-1.17-.42-2-1.53-2-2.83 0-1.31.83-2.42 2-2.83ZM1 14.99h1c1.65 0 3-1.35 3-3 0-1.66-1.35-3-3-3H1v6Zm12-5.83c1.16.41 2 1.52 2 2.82 0 1.3-.84 2.41-2 2.82v4.17h9c.55 0 1-.45 1-1v-1h-1c-2.77 0-5-2.24-5-5 0-2.77 2.23-5 5-5h1v-1c0-.56-.45-1-1-1h-9v4.17Zm9-.18h1v6h-1c-1.66 0-3-1.35-3-3 0-1.66 1.34-3 3-3Zm-11 3c0-.56.44-1 1-1 .55 0 1 .44 1 1 0 .55-.45 1-1 1 -.56 0-1-.45-1-1Z"/></svg>