<svg viewBox="0 0 24 24" xmlns="http://www.w3.org/2000/svg"><g fill-rule="evenodd"><path d="M8.39 18.67c.05-.32-.06-.64-.28-.87l-1.48-1.48c-.24-.24-.56-.34-.89-.28 -.33.05-.6.26-.74.56l-1.35 2.89c-.18.38-.1.84.2 1.13 .3.29.76.36 1.14.17l2.82-1.42c.28-.15.48-.42.53-.74Z"/><path d="M21.7 8.55c.68-.8.63-1.98-.11-2.72l-2.94-2.94c-.74-.74-1.93-.79-2.72-.11l-9.2 7.88c-.22.18-.34.44-.35.72 -.02.27.09.54.29.74l5.65 5.65c.19.19.46.3.74.29 .27-.02.53-.14.72-.35l7.88-9.2Zm-4.4.06l-4.25 4.24 -1.42-1.42 4.24-4.25 1.41 1.41Z"/></g><path d="M11.64 18.51l-.71.7c-.4.39-1.03.39-1.42 0l-.71.7c-.4.39-1.03.39-1.42 0l-2.83-2.83c-.4-.4-.4-1.03 0-1.42l.7-.71c-.4-.4-.4-1.03 0-1.42l.7-.71 5.65 5.65Z"/></svg>