<svg viewBox="0 0 24 24" xmlns="http://www.w3.org/2000/svg"><g fill="#9545ED" fill-rule="evenodd"><path d="M9 19v3H7v-3h2Z"/><path d="M11.5 19v3h-2v-3h2Z"/><path d="M8 14v3H6v-3h2Z"/><path d="M8 9v3H6V9h2Z"/><path d="M14 19v3h-2v-3h2Z"/><path d="M16 14v3h-2v-3h2Z"/><path d="M11 9v3H9V9h2Z"/><path d="M15 4v3h-2V4h2Z"/><path d="M18 9v3h-2V9h2Z"/><path d="M18 4v3h-2V4h2Z"/><g fill="#3747D6"><path d="M3 4c0-1.66 1.34-3 3-3h12c1.65 0 3 1.34 3 3v16c0 1.65-1.35 3-3 3H6c-1.66 0-3-1.35-3-3V4Zm3-1c-.56 0-1 .44-1 1v16c0 .55.44 1 1 1h12c.55 0 1-.45 1-1V4c0-.56-.45-1-1-1H6Z"/><path d="M20 18H4v-2h16v2Z"/><path d="M20 13H4v-2h16v2Z"/><path d="M20 8H4V6h16v2Z"/></g></g></svg>