<svg viewBox="0 0 24 24" xmlns="http://www.w3.org/2000/svg"><g fill="#9545ED" fill-rule="evenodd"><path d="M8 2c0-.56.44-1 1-1h9c.55 0 1 .44 1 1v14c0 .55-.45 1-1 1h-3v-2h2V3h-7v4H8V2Z"/><path d="M8.57 1.09c.35-.17.76-.12 1.06.13l6 5c.32.26.44.71.3 1.1 -.15.39-.52.65-.95.65h-6c-.56 0-1-.45-1-1v-5c0-.39.22-.75.57-.91Zm1.42 3.04v1.86h2.23L9.98 4.12Z"/><g fill="#3747D6"><path d="M4 7c0-.56.44-1 1-1h10c.55 0 1 .44 1 1v15c0 .55-.45 1-1 1H5c-.56 0-1-.45-1-1V7Zm2 1v13h8V8H6Z"/><path d="M8 13c0-1.11.89-2 2-2h1.5v2H10v3h1.5v2H10c-1.11 0-2-.9-2-2v-3Z"/></g></g></svg>