<svg viewBox="0 0 24 24" xmlns="http://www.w3.org/2000/svg"><g fill="#9545ED" fill-rule="evenodd"><path d="M5 16V9.5H3V17c0 .55.44 1 1 1h3.5v-2H5Z"/><path d="M9.83 10.5H1.99v-2h7.83v2Z"/><g fill="#3747D6"><path d="M6.213 4.28C6.043 2.51 7.423.99 9.193.99h5.1c1.76 0 3.15 1.52 2.98 3.28l-.62 6.49c-.15 1.53-1.44 2.71-2.99 2.71h-3.87c-1.55 0-2.84-1.18-2.99-2.72l-.62-6.5Zm2.98-1.29c-.59 0-1.06.5-1 1.09l.61 6.49c.04.51.47.9.99.9h3.86c.51 0 .94-.4.99-.91l.61-6.5c.05-.59-.41-1.1-1-1.1H9.14Z"/><path d="M6.5 16.5c0-1.11.89-2 2-2h7c1.1 0 2 .89 2 2v1c0 1.1-.9 2-2 2h-7c-1.11 0-2-.9-2-2v-1Zm9 0h-7v1h7v-1Z"/><path d="M13.5 15.5v-3h2v3h-2Z"/><path d="M14 22v-3.5h2V22h-2Z"/><path d="M8 15.5v-3h2v3H8Z"/><path d="M8 22v-3.5h2V22H8Z"/></g></g></svg>