<svg viewBox="0 0 24 24" xmlns="http://www.w3.org/2000/svg"><g fill="#3747D6" fill-rule="evenodd"><path d="M17 10c0-1.11.89-2 2-2h3c.55 0 1 .44 1 1v6c0 .55-.45 1-1 1h-3c-1.11 0-2-.9-2-2v-4Zm4 0h-2v4h2v-4Z"/><path d="M1 9c0-.56.44-1 1-1h3c1.1 0 2 .89 2 2v4c0 1.1-.9 2-2 2H2c-.56 0-1-.45-1-1V9Zm2 1v4h2v-4H3Z"/><path d="M11 10V6h2v4h-2Zm0 8v-4h2v4h-2Z"/><path d="M12 11c-.56 0-1 .44-1 1 0 .55.44 1 1 1 .55 0 1-.45 1-1 0-.56-.45-1-1-1Zm-3 1c0-1.66 1.34-3 3-3 1.65 0 3 1.34 3 3 0 1.65-1.35 3-3 3 -1.66 0-3-1.35-3-3Z"/><path fill="#9545ED" d="M1 7c0-1.11.89-2 2-2h18c1.1 0 2 .89 2 2v10c0 1.1-.9 2-2 2H3c-1.11 0-2-.9-2-2V7Zm20 0H3v10h18V7Z"/></g></svg>