<svg viewBox="0 0 24 24" xmlns="http://www.w3.org/2000/svg" xmlns:xlink="http://www.w3.org/1999/xlink"><defs><path d="M11.393 5.58c.35.27.85.27 1.21 0l3-2.3c.43-.34.52-.97.18-1.41 -.34-.44-.97-.53-1.41-.19l-2.4 1.82 -2.4-1.83c-.44-.34-1.07-.26-1.41.18 -.34.43-.26 1.06.18 1.4l3 2.29Z" id="a"/></defs><g fill="#3747D6" fill-rule="evenodd"><use xlink:href="#a"/><path d="M12 4c.55 0 1 .44 1 1v4c0 .55-.45 1-1 1 -.56 0-1-.45-1-1V5c0-.56.44-1 1-1Z"/><path d="M11.39 8.2c.35-.28.85-.28 1.21 0l2.52 1.93 3.27-1.47c.5-.23 1.09-.01 1.32.5 .22.5 0 1.09-.51 1.32L15.79 12l-.82 2.62 2.61 2.07c.43.34.5.97.16 1.4 -.35.43-.98.5-1.41.16l-2.88-2.29h-3.02l-2.88 2.28c-.44.34-1.07.27-1.41-.17 -.35-.44-.28-1.07.16-1.41l2.61-2.08 -.82-2.66 -3.13-1.6c-.5-.26-.69-.86-.44-1.35 .25-.5.85-.69 1.34-.44l2.93 1.5 2.49-1.91Zm-1.24 3.45l.72 2.33h2.23l.72-2.34 -1.84-1.41 -1.84 1.4Z"/><use xlink:href="#a"/><path d="M7.97 17.31c-.08-.45-.44-.79-.89-.84l-3.49-.37c-.55-.06-1.05.34-1.1.89 -.06.54.34 1.04.89 1.09l2.72.28 .44 2.69c.08.54.6.91 1.14.82 .54-.09.91-.61.82-1.15l-.57-3.45Z"/><path d="M15.93 17.31c.07-.45.43-.79.88-.84l3.38-.36c.54-.06 1.04.34 1.09.89 .05.54-.35 1.04-.9 1.09l-2.63.27 -.42 2.55c-.09.54-.61.91-1.15.82 -.55-.09-.92-.61-.83-1.15l.54-3.32Z"/><path d="M5.92 10.43c.37-.25.54-.72.41-1.15L5.2 5.67c-.17-.53-.73-.83-1.26-.66 -.53.16-.83.72-.66 1.25l.89 2.87 -2.54 1.62c-.47.29-.61.91-.31 1.38 .29.46.91.6 1.38.3l3.17-2.04Z"/><path d="M18.19 10.43c-.38-.25-.55-.72-.42-1.15l1.12-3.61c.16-.53.72-.83 1.25-.66 .52.16.82.72.65 1.25l-.9 2.87 2.53 1.62c.46.29.6.91.3 1.38 -.3.46-.92.6-1.39.3l-3.18-2.04Z"/><path fill="#9545ED" d="M12 3c-4.98 0-9 4.02-9 9 0 4.97 4.02 9 9 9 4.97 0 9-4.03 9-9 0-4.98-4.03-9-9-9ZM1 12C1 5.92 5.92 1 12 1c6.07 0 11 4.92 11 11 0 6.07-4.93 11-11 11C5.92 23 1 18.07 1 12Z"/></g></svg>