<svg viewBox="0 0 24 24" xmlns="http://www.w3.org/2000/svg"><g fill-rule="evenodd"><path d="M12 1.5c.14 0 .28.06.38.17l2.14 2.53 3.22-.79c.14-.04.29-.01.41.08 .11.08.19.22.2.36l.24 3.31 3.07 1.25c.13.05.24.16.28.3 .04.13.02.29-.06.41l-1.75 2.82 1.74 2.82c.07.125.09.27.05.41 -.05.13-.15.25-.29.3l-3.08 1.25 -.25 3.31c-.02.14-.09.28-.21.36 -.12.08-.27.11-.42.08l-3.23-.79 -2.15 2.53c-.1.11-.24.17-.39.17 -.15 0-.29-.07-.39-.18l-2.15-2.54 -3.23.78c-.15.03-.3 0-.42-.09s-.2-.23-.21-.37l-.25-3.32 -3.08-1.26c-.14-.06-.25-.17-.29-.31 -.05-.14-.03-.3.05-.42l1.74-2.83 -1.75-2.83c-.08-.125-.1-.28-.06-.42 .04-.14.15-.26.28-.31l3.07-1.26 .24-3.32c.01-.15.08-.29.2-.37 .11-.09.26-.12.41-.09l3.22.78 2.14-2.54c.09-.12.23-.18.38-.18Zm0 1.27l-1.97 2.32c-.13.14-.32.2-.51.16l-2.96-.73 -.23 3.03c-.02.18-.14.35-.31.42L3.2 9.12l1.6 2.58c.09.16.09.36 0 .52L3.19 14.8 6 15.95c.17.07.29.23.3.42l.22 3.03 2.95-.73c.18-.05.37.01.5.16l1.96 2.32 1.96-2.33c.12-.15.31-.21.5-.17l2.95.72 .22-3.04c.01-.19.13-.36.3-.43l2.81-1.16 -1.61-2.59c-.1-.17-.1-.37 0-.53l1.6-2.59 -2.82-1.16c-.18-.08-.3-.24-.31-.43L17.3 4.4l-2.96.72c-.19.04-.38-.02-.51-.17l-1.97-2.33Z"/><path d="M15.78 7.59c.13.09.21.24.21.4v7c0 .16-.08.31-.22.4 -.14.09-.31.11-.46.06l-5.5-2c-.2-.08-.33-.26-.33-.47v-3c0-.22.13-.4.32-.47l5.49-2c.15-.06.32-.04.45.06Zm-5.29 2.75v2.29l4.5 1.63V8.68l-4.5 1.63Z"/><path d="M9.01 16.63l-1-3.5 .96-.28 1 3.5 -.97.27Z"/><path d="M6.5 10c0-.28.22-.5.5-.5h3c.27 0 .5.22.5.5v3c0 .27-.23.5-.5.5H7c-.28 0-.5-.23-.5-.5v-3Zm1 .5v2h2v-2h-2Z"/></g></svg>