<svg viewBox="0 0 24 24" xmlns="http://www.w3.org/2000/svg"><g fill-rule="evenodd"><path d="M7 11c0-1.11.89-2 2-2 1.1 0 2 .89 2 2v3h-1v-1.5H8V14H7v-3Zm1 .5h2V11c0-.56-.45-1-1-1 -.56 0-1 .44-1 1v.5Z"/><path d="M13 9.5c0-.28.22-.5.5-.5h1c1.38 0 2.5 1.11 2.5 2.5v.5c0 1.38-1.12 2.5-2.5 2.5h-1c-.28 0-.5-.23-.5-.5V9.5Zm1 .5v3.5h.5c.82 0 1.5-.68 1.5-1.5v-.5c0-.83-.68-1.5-1.5-1.5H14Z"/><path d="M12 5.5c-3.59 0-6.5 2.91-6.5 6.5 0 3.58 2.91 6.5 6.5 6.5 3.58 0 6.5-2.92 6.5-6.5 0-3.59-2.92-6.5-6.5-6.5ZM4.5 12c0-4.15 3.35-7.5 7.5-7.5 4.14 0 7.5 3.35 7.5 7.5 0 4.14-3.36 7.5-7.5 7.5 -4.15 0-7.5-3.36-7.5-7.5Z"/><path d="M21.5 2.5H19v-1h3c.27 0 .5.22.5.5v3h-1V2.5Z"/><path d="M21.5 21.5H19v1h3c.27 0 .5-.23.5-.5v-3h-1v2.5Z"/><path d="M2.5 2.5H5v-1H2c-.28 0-.5.22-.5.5v3h1V2.5Z"/><path d="M2.5 21.5H5v1H2c-.28 0-.5-.23-.5-.5v-3h1v2.5Z"/><path d="M16.64 6.64l5-5 .7.7 -5 5 -.71-.71Z"/><path d="M16.64 17.35l5 5 .7-.71 -5-5 -.71.7Z"/><path d="M7.35 6.64l-5-5 -.71.7 5 5 .7-.71Z"/><path d="M7.35 17.35l-5 5 -.71-.71 5-5 .7.7Z"/></g></svg>