<svg viewBox="0 0 24 24" xmlns="http://www.w3.org/2000/svg"><g fill-rule="evenodd"><path d="M1.5 5c0-.28.22-.5.5-.5h20c.27 0 .5.22.5.5v12c0 .27-.23.5-.5.5H2c-.28 0-.5-.23-.5-.5V5Zm1 .5v11h19v-11h-19Z"/><path d="M3.5 17c0-.28.22-.5.5-.5h3c.27 0 .5.22.5.5v5c0 .27-.23.5-.5.5H4c-.28 0-.5-.23-.5-.5v-5Zm1 .5v4h2v-4h-2Z"/><path d="M16.5 17c0-.28.22-.5.5-.5h3c.27 0 .5.22.5.5v5c0 .27-.23.5-.5.5h-3c-.28 0-.5-.23-.5-.5v-5Zm1 .5v4h2v-4h-2Z"/><path d="M3.5 2v3h-1V2h1Z"/><path d="M12.5 2v3h-1V2h1Z"/><path d="M21.5 2v3h-1V2h1Z"/><path d="M7 9.5c0-1.11.89-2 2-2 1.1 0 2 .89 2 2V14h-1v-2.5H8V14H7V9.5Zm1 1h2v-1c0-.56-.45-1-1-1 -.56 0-1 .44-1 1v1Z"/><path d="M13 8c0-.28.22-.5.5-.5h1c1.38 0 2.5 1.11 2.5 2.5v2c0 1.38-1.12 2.5-2.5 2.5h-1c-.28 0-.5-.23-.5-.5V8Zm1 .5v5h.5c.82 0 1.5-.68 1.5-1.5v-2c0-.83-.68-1.5-1.5-1.5H14Z"/></g></svg>