<svg viewBox="0 0 24 24" xmlns="http://www.w3.org/2000/svg"><g fill-rule="evenodd"><path d="M3.5 7c0-.28.22-.5.5-.5h16c.27 0 .5.22.5.5v15c0 .27-.23.5-.5.5H4c-.28 0-.5-.23-.5-.5V7Zm1 .5v14h15v-14h-15Z"/><path d="M22.46 2.18l-2 5 -.93-.38 2-5 .92.37Z"/><path d="M2.46 1.81l2 5 -.93.37 -2-5 .92-.38Z"/><path d="M16.78 10.09c.13.09.21.24.21.4v7c0 .16-.08.31-.22.4 -.14.09-.31.11-.46.06l-5.5-2c-.2-.08-.33-.26-.33-.47v-3c0-.22.13-.4.32-.47l5.5-2c.15-.06.32-.04.45.06Zm-5.29 2.75v2.29l4.5 1.63v-5.58l-4.5 1.63Z"/><path d="M10.01 19.13L9 15.63l.96-.28 1 3.5 -.97.27Z"/><path d="M7.5 12.5c0-.28.22-.5.5-.5h3c.27 0 .5.22.5.5v3c0 .27-.23.5-.5.5H8c-.28 0-.5-.23-.5-.5v-3Zm1 .5v2h2v-2h-2Z"/></g></svg>