<svg viewBox="0 0 24 24" xmlns="http://www.w3.org/2000/svg"><g fill-rule="evenodd"><path d="M1.5 8c0-.28.22-.5.5-.5h14c.27 0 .5.22.5.5v14c0 .27-.23.5-.5.5H2c-.28 0-.5-.23-.5-.5V8Zm1 .5v13h13v-13h-13Z"/><path d="M7.5 2c0-.28.22-.5.5-.5h14c.27 0 .5.22.5.5v14c0 .27-.23.5-.5.5h-6v-1h5.5v-13h-13V8h-1V2Z"/><path d="M7.77 1.55c.16-.09.37-.07.52.04l8 6 -.3.4v.5h-8c-.28 0-.5-.23-.5-.5v-6c0-.19.1-.37.27-.45Zm6.72 5.94l-6-4.5v4.5h6Z"/><path d="M4 13.5c0-1.11.89-2 2-2 1.1 0 2 .89 2 2V18H7v-2.5H5V18H4v-4.5Zm1 1h2v-1c0-.56-.45-1-1-1 -.56 0-1 .44-1 1v1Z"/><path d="M10 12c0-.28.22-.5.5-.5h1c1.38 0 2.5 1.11 2.5 2.5v2c0 1.38-1.12 2.5-2.5 2.5h-1c-.28 0-.5-.23-.5-.5v-6Zm1 .5v5h.5c.82 0 1.5-.68 1.5-1.5v-2c0-.83-.68-1.5-1.5-1.5H11Z"/></g></svg>