<svg viewBox="0 0 24 24" xmlns="http://www.w3.org/2000/svg"><g fill-rule="evenodd"><path d="M6 5.9c.04-.24.25-.41.49-.41h15.5c.27 0 .5.22.5.5v9.5c0 .27-.23.5-.5.5h-2v-1h1.5v-8.5H6.89l-.92 4.59c-.05.23-.26.4-.5.4h-2c-.56 0-1 .44-1 1v2.5h3.5v1h-4c-.28 0-.5-.23-.5-.5v-3c0-1.11.89-2 2-2h1.59l.91-4.6Zm2.99 9.09h8v1h-8v-1Z"/><path d="M3.02 5.84c.06-.21.25-.35.47-.35h4v1H3.85l-.39 1.15 -.95-.32 .5-1.5Z"/><path d="M7.5 14.5c-.56 0-1 .44-1 1 0 .55.44 1 1 1 .55 0 1-.45 1-1 0-.56-.45-1-1-1Zm-2 1c0-1.11.89-2 2-2 1.1 0 2 .89 2 2 0 1.1-.9 2-2 2 -1.11 0-2-.9-2-2Z"/><path d="M18.5 14.5c-.56 0-1 .44-1 1 0 .55.44 1 1 1 .55 0 1-.45 1-1 0-.56-.45-1-1-1Zm-2 1c0-1.11.89-2 2-2 1.1 0 2 .89 2 2 0 1.1-.9 2-2 2 -1.11 0-2-.9-2-2Z"/><path d="M9.5 8.5c0-.28.22-.5.5-.5h6c.27 0 .5.22.5.5V13c0 .27-.23.5-.5.5h-6c-.28 0-.5-.23-.5-.5V8.5Zm1 .5v3.5h5V9h-5Z"/><path d="M9.7 12.6l5.99-4.5 .6.8 -6 4.49 -.6-.8Z"/></g></svg>