<svg viewBox="0 0 24 24" xmlns="http://www.w3.org/2000/svg"><g fill-rule="evenodd"><path d="M14.14 14.14c.14-.15.36-.19.55-.11l7 3c.17.07.28.23.3.42 .01.18-.09.36-.25.46l-1.96 1.17 1.54 1.54 -.71.7 -1.55-1.55 -1.18 1.95c-.1.16-.28.25-.47.24 -.19-.02-.36-.13-.43-.31l-3-7c-.09-.19-.04-.41.1-.56Zm1.3 1.3l2.12 4.95 .99-1.67c.04-.08.1-.13.17-.18l1.66-1 -4.96-2.13Z"/><path d="M10.5 3C6.35 3 3 6.35 3 10.5c0 4.14 3.35 7.5 7.5 7.5 1.77 0 3.4-.62 4.68-1.65l.62.78c-1.46 1.16-3.31 1.86-5.32 1.86 -4.7 0-8.5-3.81-8.5-8.5 0-4.7 3.8-8.5 8.5-8.5 4.69 0 8.5 3.8 8.5 8.5 0 2-.7 3.85-1.87 5.31l-.79-.63c1.02-1.29 1.64-2.92 1.64-4.69 0-4.15-3.36-7.5-7.5-7.5Z"/><path d="M8.5 6c-.56 0-1 .44-1 1 0 .55.44 1 1 1 .55 0 1-.45 1-1 0-.56-.45-1-1-1Zm-2 1c0-1.11.89-2 2-2 1.1 0 2 .89 2 2 0 1.1-.9 2-2 2 -1.11 0-2-.9-2-2Z"/><path d="M12 13.5c-.56 0-1 .44-1 1 0 .55.44 1 1 1 .55 0 1-.45 1-1 0-.56-.45-1-1-1Zm-2 1c0-1.11.89-2 2-2 1.1 0 2 .89 2 2 0 1.1-.9 2-2 2 -1.11 0-2-.9-2-2Z"/><path d="M6.14 14.14l8-8 .7.7 -8.01 7.99 -.71-.71Z"/></g></svg>