<svg viewBox="0 0 24 24" xmlns="http://www.w3.org/2000/svg"><g fill-rule="evenodd"><path d="M7.64 1.64c.09-.1.22-.15.35-.15h10c.27 0 .5.22.5.5v17c0 .27-.23.5-.5.5h-14c-.28 0-.5-.23-.5-.5v-13c0-.14.05-.26.14-.36l4-4Zm.56.85l-3.71 3.7v12.29h13v-16h-9.3Z"/><path d="M8.19 1.53c.18.07.3.25.3.46v4c0 .27-.23.5-.5.5h-4c-.21 0-.39-.13-.47-.31 -.08-.19-.04-.41.1-.55l4-4c.14-.15.35-.19.54-.11ZM5.2 5.49h2.29v-2.3l-2.3 2.29Z"/><path d="M20.5 5.5H18v-1h3c.27 0 .5.22.5.5v17c0 .27-.23.5-.5.5H7c-.28 0-.5-.23-.5-.5v-3h1v2.5h13v-16Z"/><path d="M6 10.5c0-1.11.89-2 2-2 1.1 0 2 .89 2 2V15H9v-2.5H7V15H6v-4.5Zm1 1h2v-1c0-.56-.45-1-1-1 -.56 0-1 .44-1 1v1Z"/><path d="M12 9c0-.28.22-.5.5-.5h1c1.38 0 2.5 1.11 2.5 2.5v2c0 1.38-1.12 2.5-2.5 2.5h-1c-.28 0-.5-.23-.5-.5V9Zm1 .5v5h.5c.82 0 1.5-.68 1.5-1.5v-2c0-.83-.68-1.5-1.5-1.5H13Z"/></g></svg>