<svg viewBox="0 0 24 24" xmlns="http://www.w3.org/2000/svg"><g fill-rule="evenodd"><path d="M4.5 10c0-1.39 1.11-2.5 2.5-2.5h10c1.38 0 2.5 1.11 2.5 2.5v8c0 1.38-1.12 2.5-2.5 2.5H7c-1.39 0-2.5-1.12-2.5-2.5v-8ZM7 8.5c-.83 0-1.5.67-1.5 1.5v8c0 .82.67 1.5 1.5 1.5h10c.82 0 1.5-.68 1.5-1.5v-8c0-.83-.68-1.5-1.5-1.5H7Z"/><path d="M7 12.5c0-1.11.89-2 2-2 1.1 0 2 .89 2 2V17h-1v-2.5H8V17H7v-4.5Zm1 1h2v-1c0-.56-.45-1-1-1 -.56 0-1 .44-1 1v1Z"/><path d="M13 11c0-.28.22-.5.5-.5h1c1.38 0 2.5 1.11 2.5 2.5v2c0 1.38-1.12 2.5-2.5 2.5h-1c-.28 0-.5-.23-.5-.5v-6Zm1 .5v5h.5c.82 0 1.5-.68 1.5-1.5v-2c0-.83-.68-1.5-1.5-1.5H14Z"/><path d="M22 4.5H2v-1h20v1Z"/><path d="M9.5 4v4h-1V4h1Z"/><path d="M15.5 4v4h-1V4h1Z"/></g></svg>