<svg viewBox="0 0 24 24" xmlns="http://www.w3.org/2000/svg"><g fill-rule="evenodd"><path d="M1.76 9.55c.16-.09.36-.08.51.03l9.71 6.79 9.71-6.8c.15-.11.35-.12.51-.04 .16.08.26.25.26.44v12c0 .27-.23.5-.5.5h-20c-.28 0-.5-.23-.5-.5v-12c0-.19.1-.36.26-.45Zm.73 1.4v10.53h19V10.94l-9.22 6.44c-.18.12-.41.12-.58 0l-9.22-6.45Z"/><path d="M2.83 9.97L5.3 7.98l-.63-.79 -3 2.4c-.13.09-.2.24-.19.4 0 .15.08.3.21.39l10 7c.17.12.4.12.57 0l10-7c.12-.1.2-.24.21-.4 0-.16-.07-.31-.19-.41l-3-2.4 -.63.78 2.47 1.98 -9.17 6.41 -9.17-6.42Z"/><path d="M5.5 2.5V12h-1V2c0-.28.22-.5.5-.5h14c.27 0 .5.22.5.5v10h-1V2.5h-13Z"/><path d="M16.28 3.59c.13.09.21.24.21.4v7c0 .16-.08.31-.22.4 -.14.09-.31.11-.46.06l-5.5-2c-.2-.08-.33-.26-.33-.47v-3c0-.22.13-.4.32-.47l5.5-2c.15-.06.32-.04.45.06Zm-5.29 2.75v2.29l4.5 1.63V4.68l-4.5 1.63Z"/><path d="M9.51 12.63l-1-3.5 .96-.28 1 3.49 -.97.27Z"/><path d="M7 6c0-.28.22-.5.5-.5h3c.27 0 .5.22.5.5v3c0 .27-.23.5-.5.5h-3c-.28 0-.5-.23-.5-.5V6Zm1 .5v2h2v-2H8Z"/></g></svg>