<svg viewBox="0 0 24 24" xmlns="http://www.w3.org/2000/svg"><g fill-rule="evenodd"><path d="M4.5 4c0-1.39 1.11-2.5 2.5-2.5h10c1.38 0 2.5 1.11 2.5 2.5v16c0 1.38-1.12 2.5-2.5 2.5H7c-1.39 0-2.5-1.12-2.5-2.5V4ZM7 2.5c-.83 0-1.5.67-1.5 1.5v16c0 .82.67 1.5 1.5 1.5h10c.82 0 1.5-.68 1.5-1.5V4c0-.83-.68-1.5-1.5-1.5H7Z"/><path d="M14 20h-4v-1h4v1Z"/><path d="M7 10.5c0-1.11.89-2 2-2 1.1 0 2 .89 2 2v3h-1V12H8v1.5H7v-3Zm1 .5h2v-.5c0-.56-.45-1-1-1 -.56 0-1 .44-1 1v.5Z"/><path d="M13 9c0-.28.22-.5.5-.5h1c1.38 0 2.5 1.11 2.5 2.5v.5c0 1.38-1.12 2.5-2.5 2.5h-1c-.28 0-.5-.23-.5-.5V9Zm1 .5V13h.5c.82 0 1.5-.68 1.5-1.5V11c0-.83-.68-1.5-1.5-1.5H14Z"/></g></svg>