<svg viewBox="0 0 24 24" xmlns="http://www.w3.org/2000/svg"><g fill-rule="evenodd"><path d="M1.5 2c0-.28.22-.5.5-.5h17c.27 0 .5.22.5.5v20c0 .27-.23.5-.5.5H5c-1.94 0-3.5-1.57-3.5-3.5V2Zm1 .5V19c0 1.38 1.11 2.5 2.5 2.5h13.5v-19h-16Z"/><path d="M18.5 6c0-.28.22-.5.5-.5h3c.27 0 .5.22.5.5v13c0 1.93-1.57 3.5-3.5 3.5V22h-.5V6Zm1 15.45c1.14-.24 2-1.25 2-2.45V6.5h-2v14.95Z"/><path d="M5.5 6.5c0-1.11.89-2 2-2 1.1 0 2 .89 2 2v3h-1V8h-2v1.5h-1v-3Zm1 .5h2v-.5c0-.56-.45-1-1-1 -.56 0-1 .44-1 1V7Z"/><path d="M11.5 5c0-.28.22-.5.5-.5h1c1.38 0 2.5 1.11 2.5 2.5v.5c0 1.38-1.12 2.5-2.5 2.5h-1c-.28 0-.5-.23-.5-.5V5Zm1 .5V9h.5c.82 0 1.5-.68 1.5-1.5V7c0-.83-.68-1.5-1.5-1.5h-.5Z"/><path d="M4.5 13c0-.28.22-.5.5-.5h5c.27 0 .5.22.5.5v5c0 .27-.23.5-.5.5H5c-.28 0-.5-.23-.5-.5v-5Zm1 .5v4h4v-4h-4Z"/><path d="M16 13.5h-3v-1h3v1Z"/><path d="M16 16.5h-3v-1h3v1Z"/></g></svg>