<svg viewBox="0 0 24 24" xmlns="http://www.w3.org/2000/svg"><g fill-rule="evenodd"><path d="M12 2.5c-5.25 0-9.5 4.25-9.5 9.5 0 5.24 4.25 9.5 9.5 9.5 5.24 0 9.5-4.26 9.5-9.5 0-5.25-4.26-9.5-9.5-9.5ZM1.5 12C1.5 6.2 6.2 1.5 12 1.5c5.79 0 10.5 4.7 10.5 10.5 0 5.79-4.71 10.5-10.5 10.5 -5.8 0-10.5-4.71-10.5-10.5Z"/><path d="M7.45 5.21c-1.21 1.71-1.96 4.11-1.96 6.78s.75 5.06 1.95 6.78c1.2 1.71 2.81 2.71 4.54 2.71 1.72 0 3.33-1 4.54-2.72 1.2-1.72 1.95-4.12 1.95-6.79 0-2.68-.76-5.07-1.96-6.79 -1.21-1.72-2.82-2.72-4.55-2.72s-3.34.99-4.55 2.71Zm-.82-.58c1.33-1.91 3.21-3.15 5.35-3.15 2.14 0 4.02 1.24 5.35 3.14 1.33 1.9 2.14 4.5 2.14 7.35 0 2.85-.81 5.45-2.15 7.35 -1.34 1.9-3.22 3.14-5.36 3.14 -2.15 0-4.03-1.25-5.36-3.15 -1.34-1.91-2.15-4.51-2.15-7.36 0-2.86.8-5.46 2.14-7.36Z"/><path d="M11.5 7V2h1v5h-1Zm1 10v5h-1v-5h1Z"/><path d="M19 11.5h3v1h-3v-1Z"/><path d="M5 12.5H2v-1h3v1Z"/><path d="M16.28 7.59c.13.09.21.24.21.4v7c0 .16-.08.31-.22.4 -.14.09-.31.11-.46.06l-5.5-2c-.2-.08-.33-.26-.33-.47v-3c0-.22.13-.4.32-.47l5.5-2c.15-.06.32-.04.45.06Zm-5.29 2.75v2.29l4.5 1.63V8.68l-4.5 1.63Z"/><path d="M9.51 16.63l-1-3.5 .96-.28 1 3.5 -.97.27Z"/><path d="M7 10c0-.28.22-.5.5-.5h3c.27 0 .5.22.5.5v3c0 .27-.23.5-.5.5h-3c-.28 0-.5-.23-.5-.5v-3Zm1 .5v2h2v-2H8Z"/></g></svg>