<svg viewBox="0 0 24 24" xmlns="http://www.w3.org/2000/svg"><g fill-rule="evenodd"><path d="M10 6c0-.28.22-.5.5-.5h3c.27 0 .5.22.5.5v16c0 .27-.23.5-.5.5h-3c-.28 0-.5-.23-.5-.5V6Zm1 .5v15h2v-15h-2Z"/><path d="M9 4c0-1.39 1.11-2.5 2.5-2.5h1C13.88 1.5 15 2.61 15 4v2c0 .27-.23.5-.5.5h-5c-.28 0-.5-.23-.5-.5V4Zm2.5-1.5c-.83 0-1.5.67-1.5 1.5v1.5h4V4c0-.83-.68-1.5-1.5-1.5h-1Z"/><path d="M1.5 8.5c0-.28.22-.5.5-.5h6c.27 0 .5.22.5.5v11c0 .19-.12.37-.29.45 -.18.08-.39.05-.54-.07l-2.68-2.24 -2.68 2.23c-.15.12-.36.15-.54.06 -.18-.09-.29-.26-.29-.46v-11Zm1 .5v9.43l2.17-1.82c.18-.16.45-.16.64 0l2.17 1.81V8.98h-5Z"/><path d="M22.5 8.5c0-.28-.23-.5-.5-.5h-6c-.28 0-.5.22-.5.5v11c0 .19.11.37.28.45 .17.08.38.05.53-.07l2.67-2.24 2.67 2.23c.14.12.35.15.53.06 .17-.09.28-.26.28-.46v-11Zm-1 .5v9.43l-2.18-1.82c-.19-.16-.46-.16-.65 0l-2.18 1.81V8.98h5Z"/><path d="M10.5 9H7V8h3.5v1Z"/><path d="M13.5 9H17V8h-3.5v1Z"/></g></svg>