<svg viewBox="0 0 24 24" xmlns="http://www.w3.org/2000/svg"><g fill-rule="evenodd"><path d="M11.81 1.53c.11-.05.25-.05.37 0l10 4c.18.07.31.25.31.46 0 .2-.13.38-.32.46l-10 3.99c-.12.04-.26.04-.38 0l-10-4c-.19-.08-.32-.26-.32-.47 0-.21.12-.39.31-.47l10-4ZM3.34 5.99l8.65 3.46 8.65-3.47 -8.66-3.47 -8.66 3.46Z"/><path d="M1.5 18V6h1v11.66l9.5 3.8 9.5-3.8V5.99h1v12c0 .2-.13.38-.32.46l-10 4c-.12.04-.26.04-.38 0l-10-4c-.19-.08-.32-.26-.32-.47Z"/><path d="M4.5 16v-6h1v6h-1Z"/><path d="M4.7 9.59c.13-.1.29-.12.45-.07l2.02.67c.78.26 1.31.99 1.31 1.82 0 1.31-1.29 2.23-2.54 1.82l-1.13-.38c-.21-.07-.35-.26-.35-.48v-3c0-.17.07-.32.2-.41Zm.79 1.09v1.94l.78.26c.59.19 1.21-.25 1.21-.88 0-.4-.26-.76-.64-.88l-1.37-.46Z"/></g></svg>