<svg viewBox="0 0 24 24" xmlns="http://www.w3.org/2000/svg"><g fill-rule="evenodd"><path d="M1.5 2c0-.28.22-.5.5-.5h20c.27 0 .5.22.5.5v7c0 .14-.07.28-.18.37l-6.83 5.85v3.77c0 .18-.11.36-.28.44l-6 3c-.16.07-.34.06-.49-.03 -.15-.1-.24-.26-.24-.43V15.2L1.65 9.34c-.12-.1-.18-.24-.18-.38v-7Zm1 .5v6.27l6.82 5.85c.11.09.17.23.17.37v6.19l5-2.5v-3.7c0-.15.06-.29.17-.38l6.82-5.86V2.46h-19Z"/><path d="M9.5 8.25c0-.97.78-1.75 1.75-1.75H14v1h-2.75c-.42 0-.75.33-.75.75 0 .41.33.75.75.75h1.5c.96 0 1.75.78 1.75 1.75 0 .96-.79 1.75-1.75 1.75H10v-1h2.75c.41 0 .75-.34.75-.75 0-.42-.34-.75-.75-.75h-1.5c-.97 0-1.75-.79-1.75-1.75Z"/><path d="M11.5 14v-2h1v2h-1Z"/><path d="M11.5 7V5h1v2h-1Z"/></g></svg>