<svg viewBox="0 0 24 24" xmlns="http://www.w3.org/2000/svg"><g fill-rule="evenodd"><path d="M5 7.46c.01-.27.23-.47.49-.47h13c.26 0 .48.2.49.46l1 14c0 .13-.04.27-.14.37 -.1.1-.23.15-.37.15h-15c-.14 0-.28-.06-.37-.16 -.1-.11-.15-.24-.14-.38l1-14Zm.96.53l-.93 13h13.926l-.93-13H5.95Z"/><path d="M7.5 6.5C7.5 4.01 9.51 2 12 2c2.48 0 4.5 2.01 4.5 4.5v1c0 .27-.23.5-.5.5H8c-.28 0-.5-.23-.5-.5v-1ZM12 3c-1.94 0-3.5 1.56-3.5 3.5V7h7v-.5C15.5 4.56 13.93 3 12 3Z"/><path d="M7 13.5c0-1.11.89-2 2-2 1.1 0 2 .89 2 2V18h-1v-2.5H8V18H7v-4.5Zm1 1h2v-1c0-.56-.45-1-1-1 -.56 0-1 .44-1 1v1Z"/><path d="M13 12c0-.28.22-.5.5-.5h1c1.38 0 2.5 1.11 2.5 2.5v2c0 1.38-1.12 2.5-2.5 2.5h-1c-.28 0-.5-.23-.5-.5v-6Zm1 .5v5h.5c.82 0 1.5-.68 1.5-1.5v-2c0-.83-.68-1.5-1.5-1.5H14Z"/></g></svg>