<svg viewBox="0 0 24 24" xmlns="http://www.w3.org/2000/svg"><path fill-rule="evenodd" d="M9.33 2c0-.56.44-1 .99-1h3.33c.55 0 1 .44 1 1v1.63c.47.15.92.34 1.36.56l1.15-1.16c.18-.19.44-.3.7-.3 .26 0 .51.1.7.29l2.35 2.35c.39.39.39 1.02 0 1.41l-1.16 1.15c.22.43.41.88.56 1.36h1.63c.55 0 1 .44 1 .99v3.33c0 .55-.45 1-1 1H20.3c-.16.47-.35.92-.57 1.36l1.15 1.15c.39.39.39 1.02 0 1.41l-2.36 2.35c-.19.18-.45.29-.71.29 -.27 0-.52-.11-.71-.3l-1.16-1.16c-.44.22-.89.41-1.37.56v1.63c0 .55-.45 1-1 1h-3.34c-.56 0-1-.45-1-1v-1.64c-.48-.16-.93-.35-1.37-.57L6.7 20.84c-.19.18-.45.29-.71.29 -.27 0-.52-.11-.71-.3l-2.36-2.36c-.19-.19-.3-.45-.3-.71 0-.27.1-.52.29-.71l1.15-1.16c-.23-.44-.42-.89-.57-1.362H1.85c-.56 0-1-.45-1-1v-3.34c0-.56.44-1 1-1h1.63c.15-.48.34-.93.56-1.37L2.88 6.65c-.4-.4-.4-1.03 0-1.42l2.35-2.36c.39-.4 1.02-.4 1.41 0l1.15 1.15c.43-.23.88-.42 1.36-.57V1.81Zm1.66 7.21c-.6.31-1 .93-1 1.65 0 .62.31 1.2.83 1.55l.86.57h-1.2v2h.5v1h2v-1.22c.59-.32 1-.94 1-1.66 0-.63-.32-1.21-.84-1.56l-.87-.58h1.19v-2h-.5v-1h-2v1.21Z"/></svg>