<svg viewBox="0 0 24 24" xmlns="http://www.w3.org/2000/svg"><g fill-rule="evenodd"><path d="M3.5 16C2.11 16 1 17.11 1 18.5 1 19.88 2.11 21 3.5 21h17c1.38 0 2.5-1.12 2.5-2.5 0-1.39-1.12-2.5-2.5-2.5h-17Z"/><path d="M7 7V3H3c-.56 0-1 .44-1 1v7c0 3.86 3.13 7 7 7h3c3.86 0 7-3.14 7-7V4c0-.56-.45-1-1-1H9v4c1.1 0 2 .89 2 2v2c0 1.1-.9 2-2 2H7c-1.11 0-2-.9-2-2V9c0-1.11.89-2 2-2Z"/><path d="M17 4c0-.56.44-1 1-1h2c1.65 0 3 1.34 3 3v3c0 1.65-1.35 3-3 3h-2c-.56 0-1-.45-1-1V4Zm2 1v5h1c.55 0 1-.45 1-1V6c0-.56-.45-1-1-1h-1Z"/></g></svg>