<svg viewBox="0 0 24 24" xmlns="http://www.w3.org/2000/svg"><g fill-rule="evenodd"><path d="M1.25 3.8c0-.42.33-.75.75-.75h6.19c.25 0 .48.12.62.33l1.68 2.52h11.5c.41 0 .75.33.75.75v13.33c0 .41-.34.75-.75.75h-5c-.42 0-.75-.34-.75-.75 0-.42.33-.75.75-.75h4.25V7.39H10.08c-.26-.001-.49-.13-.63-.34L7.76 4.52H2.72v14.69h9.25c.41 0 .75.33.75.75 0 .41-.34.75-.75.75h-10c-.42 0-.75-.34-.75-.75V3.76Z"/><path d="M16.97 13.35c.11.27.06.59-.15.81l-3.75 3.96c-.15.14-.34.23-.55.23 -.21 0-.41-.09-.55-.24l-3.75-3.97c-.21-.22-.27-.54-.15-.82 .11-.28.38-.46.68-.46h1.89c-.14-.91-.69-1.71-1.5-2.17L7.3 9.65c-.3-.17-.45-.52-.36-.85 .08-.33.38-.56.72-.56h2.15c2.63 0 4.79 2.02 5 4.6h1.41c.29 0 .57.17.68.45Zm-2.43 1.04h-.08c-.6 0-1.08-.49-1.08-1.08 0-1.72-1.23-3.14-2.84-3.46 1.04.84 1.66 2.12 1.66 3.49 0 .57-.47 1.03-1.04 1.03h-.65l2 2.12 2-2.13Z"/></g></svg>