<svg viewBox="0 0 24 24" xmlns="http://www.w3.org/2000/svg"><g fill-rule="evenodd"><path d="M1.25 2c0-.42.33-.75.75-.75h5.26c.24 0 .47.12.61.32L9.4 3.8h10.14c.41 0 .75.33.75.75v3.29c0 .41-.34.75-.75.75 -.42 0-.75-.34-.75-.75V5.29H9c-.25 0-.48-.13-.62-.33L6.84 2.72H2.71v8.03c0 .41-.34.75-.75.75 -.42 0-.75-.34-.75-.75V1.96ZM2 14.42c.41 0 .75.33.75.75v3.64h8.03c.41 0 .75.33.75.75 0 .41-.34.75-.75.75H1.99c-.42 0-.75-.34-.75-.75v-4.4c0-.42.33-.75.75-.75Z"/><path d="M12.46 10.78c0-.42.33-.75.75-.75h8.78c.41 0 .75.33.75.75v10.73c0 .25-.13.49-.35.62 -.22.13-.49.15-.72.05l-4.09-1.82 -4.09 1.81c-.24.1-.51.08-.72-.06 -.22-.14-.35-.375-.35-.63V10.74Zm1.5.75v8.82l3.33-1.49c.19-.09.41-.09.6 0l3.33 1.48v-8.83h-7.29Z"/></g></svg>