<svg viewBox="0 0 24 24" xmlns="http://www.w3.org/2000/svg"><g fill-rule="evenodd"><path d="M15.8 10.36c-3.01 0-5.45 2.43-5.45 5.44 0 3 2.43 5.44 5.44 5.44 3 0 5.44-2.44 5.44-5.45 0-3.01-2.44-5.45-5.45-5.45ZM8.85 15.8c0-3.84 3.1-6.95 6.94-6.95 3.83 0 6.94 3.1 6.94 6.94 0 3.83-3.11 6.94-6.95 6.94 -3.84 0-6.95-3.11-6.95-6.95Z"/><path d="M1.25 2.95c0-.42.33-.75.75-.75h5.14c.24 0 .47.12.61.32l1.49 2.17h9.89c.41 0 .75.33.75.75V7.7c0 .41-.34.75-.75.75 -.42 0-.75-.34-.75-.75V6.18H8.84c-.25 0-.48-.13-.62-.33l-1.5-2.18h-4v7.82c0 .41-.34.75-.75.75 -.42 0-.75-.34-.75-.75V2.91ZM2 15.05c.41 0 .75.33.75.75v3.53h5.44c.41 0 .75.33.75.75 0 .41-.34.75-.75.75h-6.2c-.42 0-.75-.34-.75-.75v-4.29c0-.42.33-.75.75-.75Z"/><path d="M19.67 13.37c.29.29.29.76 0 1.06l-4.29 4.28c-.3.29-.77.29-1.07 0l-2.39-2.39c-.3-.3-.3-.77 0-1.07 .29-.3.76-.3 1.06 0l1.85 1.85 3.75-3.76c.29-.3.76-.3 1.06 0Z"/></g></svg>