<svg viewBox="0 0 24 24" xmlns="http://www.w3.org/2000/svg"><g fill-rule="evenodd"><path d="M1.25 3.8c0-.42.33-.75.75-.75h6.19c.25 0 .48.12.62.33l1.68 2.52h11.5c.41 0 .75.33.75.75v13.33c0 .41-.34.75-.75.75h-5c-.42 0-.75-.34-.75-.75 0-.42.33-.75.75-.75h4.25V7.39H10.08c-.26-.001-.49-.13-.63-.34L7.76 4.52H2.72v14.69h9.25c.41 0 .75.33.75.75 0 .41-.34.75-.75.75h-10c-.42 0-.75-.34-.75-.75V3.76Z"/><path d="M11.55 11.22c-1.18 0-2.08.9-2.08 1.96 0 .03 0 .06 0 .1 .01.2-.07.4-.21.55 -.15.14-.34.23-.55.23H8.7c-.44 0-.74.33-.74.67s.3.67.73.67h5.95c.11 0 .22-.03.32-.07 .01-.01.03-.02.05-.03 .57-.21.95-.73.95-1.31 0-.75-.64-1.4-1.49-1.4 -.11 0-.22.01-.32.03 -.33.06-.66-.09-.81-.39 -.34-.64-1.04-1.08-1.86-1.08ZM8 12.69c.24-1.71 1.76-2.98 3.54-2.98 1.18 0 2.24.55 2.89 1.42 .02-.01.05-.01.08-.01 1.61 0 2.98 1.26 2.98 2.89 0 1.25-.82 2.29-1.93 2.7 -.28.12-.59.18-.92.18H8.68c-1.21 0-2.24-.95-2.24-2.18 0-.98.65-1.78 1.52-2.07Z"/></g></svg>