<svg viewBox="0 0 24 24" xmlns="http://www.w3.org/2000/svg"><g fill-rule="evenodd"><path d="M1.25 2.9c0-.42.33-.75.75-.75h5.14c.24 0 .47.12.61.32l1.49 2.17h9.89c.41 0 .75.33.75.75V8.6c0 .41-.34.75-.75.75 -.42 0-.75-.34-.75-.75V6.13H8.84c-.25 0-.48-.13-.62-.33l-1.5-2.18h-4v7.82c0 .41-.34.75-.75.75 -.42 0-.75-.34-.75-.75V2.86ZM2 15c.41 0 .75.33.75.75v3.53h5.44c.41 0 .75.33.75.75 0 .41-.34.75-.75.75h-6.2c-.42 0-.75-.34-.75-.75v-4.29c0-.42.33-.75.75-.75Z"/><path d="M9.82 11.47c0-.42.33-.75.75-.75h11.42c.41 0 .75.33.75.75v9.52c0 .41-.34.75-.75.75H10.56c-.42 0-.76-.34-.76-.75v-9.53Zm1.5.75v8.02h9.92v-8.03h-9.93Z"/><path d="M13.63 18.61c0-.42.33-.75.75-.75h3.8c.41 0 .75.33.75.75 0 .41-.34.75-.75.75h-3.81c-.42 0-.75-.34-.75-.75Z"/><path d="M13.63 16.23c0-.42.33-.75.75-.75h3.8c.41 0 .75.33.75.75 0 .41-.34.75-.75.75h-3.81c-.42 0-.75-.34-.75-.75Z"/><path d="M16.28 21.75c-.42 0-.75-.34-.75-.75v-6.2c0-.42.33-.75.75-.75 .41 0 .75.33.75.75v6.19c0 .41-.34.75-.75.75Z"/></g></svg>