<svg viewBox="0 0 24 24" xmlns="http://www.w3.org/2000/svg"><g fill-rule="evenodd"><path d="M1.25 3.8c0-.42.33-.75.75-.75h6.19c.25 0 .48.12.62.33l1.68 2.52h11.5c.41 0 .75.33.75.75v13.33c0 .41-.34.75-.75.75h-5c-.42 0-.75-.34-.75-.75 0-.42.33-.75.75-.75h4.25V7.39H10.08c-.26-.001-.49-.13-.63-.34L7.76 4.52H2.72v14.69h9.25c.41 0 .75.33.75.75 0 .41-.34.75-.75.75h-10c-.42 0-.75-.34-.75-.75V3.76Z"/><path d="M9.07 10.72c-.13.13-.14.2-.14.22 0 .01 0 .09.13.22 .12.13.34.29.67.43 .65.29 1.62.49 2.72.49s2.06-.21 2.72-.5c.33-.15.55-.31.67-.44 .12-.14.13-.21.13-.23 0-.02-.01-.1-.14-.23 -.13-.14-.35-.3-.68-.44 -.66-.3-1.63-.5-2.73-.5 -1.11 0-2.07.2-2.73.49 -.34.14-.56.3-.68.43Zm.07-1.81c.89-.4 2.07-.63 3.33-.63 1.26 0 2.44.22 3.33.62 .44.19.85.45 1.15.77 .3.32.54.75.54 1.25s-.24.93-.55 1.25c-.31.32-.72.57-1.16.77 -.9.39-2.08.62-3.34.62 -1.27 0-2.45-.23-3.34-.63 -.45-.2-.86-.46-1.16-.78 -.31-.33-.55-.76-.55-1.26 0-.51.23-.94.54-1.26 .3-.33.71-.58 1.15-.78Z"/><path d="M8.19 13.05c.41 0 .75.33.75.75 0 .01 0 .09.13.22 .12.13.34.29.67.43 .65.29 1.62.49 2.72.49s2.06-.21 2.72-.5c.33-.15.55-.31.67-.44 .12-.14.13-.21.13-.23 0-.42.33-.75.75-.75 .41 0 .75.33.75.75 0 .5-.24.93-.55 1.25 -.31.32-.72.57-1.16.77 -.9.39-2.08.62-3.34.62 -1.27 0-2.45-.23-3.34-.63 -.45-.2-.86-.46-1.16-.78 -.31-.33-.55-.76-.55-1.26 0-.42.33-.75.75-.75Z"/><path d="M8.19 10.2c.41 0 .75.33.75.75v5.23c0 .01 0 .09.13.22 .12.13.34.29.67.43 .65.29 1.62.49 2.72.49s2.06-.21 2.72-.5c.33-.15.55-.31.67-.44 .12-.14.13-.21.13-.23v-5.24c0-.42.33-.75.75-.75 .41 0 .75.33.75.75v5.23c0 .5-.24.93-.55 1.25 -.31.32-.72.57-1.16.77 -.9.39-2.08.62-3.34.62 -1.27 0-2.45-.23-3.34-.63 -.45-.2-.86-.46-1.16-.78 -.31-.33-.55-.76-.55-1.26v-5.24c0-.42.33-.75.75-.75Z"/></g></svg>