<svg viewBox="0 0 24 24" xmlns="http://www.w3.org/2000/svg"><g fill-rule="evenodd"><path d="M1.25 7.71c0-.42.33-.75.75-.75h6.19c.25 0 .48.12.62.33l1.68 2.52h11.5c.41 0 .75.33.75.74v11.42c0 .41-.34.75-.75.75h-5c-.42 0-.75-.34-.75-.75 0-.42.33-.75.75-.75h4.25v-9.93H10.08c-.26 0-.49-.13-.63-.34L7.76 8.42H2.72V21.2h9.25c.41 0 .75.33.75.75 0 .41-.34.75-.75.75h-10c-.42 0-.75-.34-.75-.75V7.66Z"/><path d="M4.58 2c0-.42.33-.75.75-.75h8.57c.19 0 .38.07.53.21l4.76 4.76c.14.14.21.33.21.53v3.33c0 .41-.34.75-.75.75 -.42 0-.75-.34-.75-.75V7.05l-4.33-4.33H6.05V7.2c0 .41-.34.75-.75.75 -.42 0-.75-.34-.75-.75V1.96Z"/><path d="M13.9 1.25c.41 0 .75.33.75.75v4.01h3.53c.41 0 .75.33.75.75 0 .41-.34.75-.75.75h-4.29c-.42 0-.75-.34-.75-.75V1.99c0-.42.33-.75.75-.75Z"/></g></svg>