<svg viewBox="0 0 24 24" xmlns="http://www.w3.org/2000/svg"><g fill-rule="evenodd"><path d="M1.25 2.47c0-.42.33-.75.75-.75h5.14c.24 0 .47.12.61.32l1.49 2.17h9.89c.41 0 .75.33.75.75v2.26c0 .41-.34.75-.75.75 -.42 0-.75-.34-.75-.75V5.7H8.84c-.25 0-.48-.13-.62-.33l-1.5-2.18h-4v7.82c0 .41-.34.75-.75.75 -.42 0-.75-.34-.75-.75V2.43ZM2 14.57c.41 0 .75.33.75.75v3.53h6.39c.41 0 .75.33.75.75 0 .41-.34.75-.75.75H1.99c-.42 0-.75-.34-.75-.75v-4.29c0-.42.33-.75.75-.75Z"/><path d="M11.25 9.61c0-.42.33-.75.75-.75h5.71c.19 0 .38.07.53.21l4.28 4.28c.14.14.21.33.21.53v7.619c0 .41-.34.75-.75.75h-10c-.42 0-.75-.34-.75-.75V9.58Zm1.5.74v10.4h8.5v-6.56l-3.85-3.85h-4.66Z"/><path d="M17.71 9.34c.41 0 .75.33.75.74v3.05h3.05c.41 0 .75.33.75.75 0 .41-.34.75-.75.75H17.7c-.42 0-.75-.34-.75-.75v-3.81c0-.42.33-.75.75-.75Z"/></g></svg>