<svg viewBox="0 0 24 24" xmlns="http://www.w3.org/2000/svg"><g fill-rule="evenodd"><path d="M17.5 11.78c-.2-.01-.4.07-.54.2l-3.74 3.59c-.63.59-.77 1.47-.6 2.31l.14.72c.06.29.28.52.58.58l.73.15c.82.17 1.68.03 2.28-.57l3.62-3.63c.28-.29.29-.76.01-1.05l-2-2.11c-.14-.15-.33-.23-.53-.24Zm.93 2.83l-3.11 3.1c-.14.13-.43.25-.92.15l-.26-.06 -.05-.24c-.11-.5.02-.79.16-.93l3.19-3.07 .97 1.02Z"/><path d="M15.82 10.4c-3 0-5.43 2.42-5.43 5.42 0 2.99 2.42 5.42 5.42 5.42 2.99 0 5.42-2.43 5.42-5.43 0-3-2.43-5.43-5.43-5.43Zm-6.93 5.42c0-3.83 3.1-6.93 6.92-6.93s6.92 3.1 6.92 6.92 -3.11 6.92-6.93 6.92c-3.83 0-6.93-3.11-6.93-6.93Z"/><path d="M1.29 3c0-.42.33-.75.75-.75h5.13c.24 0 .47.12.61.32l1.48 2.16h9.86c.41 0 .75.33.75.75v2.25c0 .41-.34.75-.75.75 -.42 0-.75-.34-.75-.75V6.22H8.86c-.25 0-.48-.13-.62-.33L6.75 3.72H2.76v7.8c0 .41-.34.75-.75.75 -.42 0-.75-.34-.75-.75V2.97Zm.75 12.07c.41 0 .75.33.75.75v3.52h5.42c.41 0 .75.33.75.75 0 .41-.34.75-.75.75H2.03c-.42 0-.75-.34-.75-.75v-4.275c0-.42.33-.75.75-.75Z"/></g></svg>