<svg viewBox="0 0 24 24" xmlns="http://www.w3.org/2000/svg"><g fill-rule="evenodd"><path d="M1.25 6.66c0-.42.33-.75.75-.75h5.71c.25 0 .48.12.62.33l1.68 2.52h9.12c.41 0 .75.33.75.75v10.47c0 .41-.34.75-.75.75h-4.29c-.42 0-.75-.34-.75-.75 0-.42.33-.75.75-.75h3.53v-8.98H9.59c-.26 0-.49-.13-.63-.34L7.27 7.38H2.7v11.83h7.82c.41 0 .75.33.75.75 0 .41-.34.75-.75.75H1.94c-.42 0-.75-.34-.75-.75V6.62Z"/><path d="M1.72 3.8c0-.42.33-.75.75-.75h7.14c.26 0 .51.14.65.37l1.68 2.95h10.04c.41 0 .75.33.75.75v11.9c0 .41-.34.75-.75.75 -.42 0-.75-.34-.75-.75V7.86H11.5c-.27 0-.52-.15-.66-.38L9.15 4.52H2.44c-.42 0-.75-.34-.75-.75Z"/></g></svg>