<svg viewBox="0 0 24 24" xmlns="http://www.w3.org/2000/svg"><g fill-rule="evenodd"><path d="M1.25 3.8c0-.42.33-.75.75-.75h6.19c.25 0 .48.12.62.33l1.68 2.52h11.5c.41 0 .75.33.75.75v13.33c0 .41-.34.75-.75.75h-5c-.42 0-.75-.34-.75-.75 0-.42.33-.75.75-.75h4.25V7.39H10.08c-.26-.001-.49-.13-.63-.34L7.76 4.52H2.72v14.69h9.25c.41 0 .75.33.75.75 0 .41-.34.75-.75.75h-10c-.42 0-.75-.34-.75-.75V3.76Z"/><path d="M1.25 9.99c0-.42.33-.75.75-.75h20c.41 0 .75.33.75.75v10c0 .41-.34.75-.75.75h-5c-.42 0-.75-.34-.75-.75 0-.42.33-.75.75-.75h4.25v-8.5H2.75v8.5H12c.41 0 .75.33.75.75 0 .41-.34.75-.75.75H2c-.42 0-.75-.34-.75-.75v-10Z"/></g></svg>