<svg viewBox="0 0 24 24" xmlns="http://www.w3.org/2000/svg"><g fill-rule="evenodd"><path d="M2.75 9.61c0-.42.33-.75.75-.75h5.71c.25 0 .48.12.62.33l1.68 2.52h9.12c.41 0 .75.33.75.75v9.52c0 .41-.34.75-.75.75h-4.29c-.42 0-.75-.34-.75-.75 0-.42.33-.75.75-.75h3.53V13.2h-8.78c-.26 0-.49-.13-.63-.34l-1.69-2.53H4.2v10.881h7.82c.41 0 .75.33.75.75 0 .41-.34.75-.75.75H3.44c-.42 0-.75-.34-.75-.75V9.58Z"/><path d="M2.75 5.8c0-.42.33-.75.75-.75h5.71c.25 0 .48.12.62.33l1.68 2.52h9.12c.41 0 .75.33.75.75v9.52c0 .41-.34.75-.75.75 -.42 0-.75-.34-.75-.75V9.39H11.1c-.26 0-.49-.13-.63-.34L8.78 6.52H4.21V18.15c0 .41-.34.75-.75.75 -.42 0-.75-.34-.75-.75V5.77Z"/><path d="M2.75 2c0-.42.33-.75.75-.75h5.71c.25 0 .48.12.62.33l1.68 2.52h9.12c.41 0 .75.33.75.75v9.52c0 .41-.34.75-.75.75 -.42 0-.75-.34-.75-.75V5.59H11.1c-.26-.001-.49-.13-.63-.34L8.78 2.72H4.21v11.631c0 .41-.34.75-.75.75 -.42 0-.75-.34-.75-.75V1.97Z"/></g></svg>