<svg viewBox="0 0 24 24" xmlns="http://www.w3.org/2000/svg"><g fill-rule="evenodd"><path d="M1.25 2.5c0-.42.33-.75.75-.75h5.14c.24 0 .47.12.61.32l1.49 2.17h9.89c.41 0 .75.33.75.75v5.119c0 .41-.34.75-.75.75 -.42 0-.75-.34-.75-.75V5.74H8.84c-.25 0-.48-.13-.62-.33l-1.5-2.18h-4v7.82c0 .41-.34.75-.75.75 -.42 0-.75-.34-.75-.75V2.47ZM2 14.6c.41 0 .75.33.75.75v3.53h3.53c.41 0 .75.33.75.75 0 .41-.34.75-.75.75H1.99c-.42 0-.75-.34-.75-.75v-4.29c0-.42.33-.75.75-.75Z"/><path d="M12.95 14.6c.41 0 .75.33.75.75v3.8c0 .41-.34.75-.75.75 -.42 0-.75-.34-.75-.75v-3.81c0-.42.33-.75.75-.75Z"/><path d="M10.29 17.26c0-.42.33-.75.75-.75h3.8c.41 0 .75.33.75.75 0 .41-.34.75-.75.75h-3.81c-.42 0-.75-.34-.75-.75Z"/><path d="M17.44 15.83c0-.42.33-.75.75-.75h1.42c.41 0 .75.33.75.75 0 .41-.34.75-.75.75h-1.43c-.42 0-.75-.34-.75-.75Z"/><path d="M16.48 18.69c0-.42.33-.75.75-.75h1.42c.41 0 .75.33.75.75 0 .41-.34.75-.75.75h-1.43c-.42 0-.75-.34-.75-.75Z"/><path d="M7.91 16.47c0-2.35 1.9-4.25 4.25-4.25h6.33c2.34 0 4.25 1.9 4.25 4.25v1.57c0 2.34-1.91 4.25-4.25 4.25h-6.34c-2.35 0-4.25-1.91-4.25-4.25v-1.58Zm4.25-2.75c-1.52 0-2.75 1.23-2.75 2.75v1.57c0 1.51 1.23 2.75 2.75 2.75h6.33c1.51 0 2.75-1.24 2.75-2.75v-1.58c0-1.52-1.24-2.75-2.75-2.75h-6.34Z"/></g></svg>