<svg viewBox="0 0 24 24" xmlns="http://www.w3.org/2000/svg"><g fill-rule="evenodd"><path d="M1.25 2.95c0-.42.33-.75.75-.75h5.14c.24 0 .47.12.61.32l1.49 2.17h9.89c.41 0 .75.33.75.75V7.7c0 .41-.34.75-.75.75 -.42 0-.75-.34-.75-.75V6.18H8.84c-.25 0-.48-.13-.62-.33l-1.5-2.18h-4v7.82c0 .41-.34.75-.75.75 -.42 0-.75-.34-.75-.75V2.91ZM2 15.05c.41 0 .75.33.75.75v3.53h4.48c.41 0 .75.33.75.75 0 .41-.34.75-.75.75H1.99c-.42 0-.75-.34-.75-.75v-4.29c0-.42.33-.75.75-.75Z"/><path d="M8.86 10.09c0-.42.33-.75.75-.75h12.381c.41 0 .75.33.75.74v10.95c0 .41-.34.75-.75.75H9.61c-.42 0-.75-.34-.75-.75V10.07Zm1.49.75v9.45h10.88v-9.46H10.349Z"/><path d="M18.19 13.22c-.38 0-.68.3-.68.67 0 .37.3.67.67.67 .37 0 .67-.31.67-.68 0-.38-.31-.68-.68-.68Zm-2.18.67c0-1.21.97-2.18 2.17-2.18s2.17.97 2.17 2.17 -.98 2.17-2.18 2.17c-1.21 0-2.18-.98-2.18-2.18Z"/><path d="M12.85 14.58c.23-.03.46.04.62.21l2.55 2.55 1.49-.38c.29-.08.61.04.79.29l2.38 3.33c.16.22.18.52.05.77 -.13.24-.39.4-.67.4H9.58c-.27 0-.52-.15-.66-.38 -.14-.24-.14-.52 0-.76l3.33-5.72c.11-.21.32-.34.55-.37Zm.25 1.96l-2.19 3.74h7.71l-1.24-1.74 -1.41.35c-.26.06-.53-.02-.72-.2l-2.17-2.17Z"/></g></svg>