<svg viewBox="0 0 24 24" xmlns="http://www.w3.org/2000/svg"><g fill-rule="evenodd"><path d="M1.25 3.8c0-.42.33-.75.75-.75h6.19c.25 0 .48.12.62.33l1.68 2.52h11.5c.41 0 .75.33.75.75v13.33c0 .41-.34.75-.75.75h-5c-.42 0-.75-.34-.75-.75 0-.42.33-.75.75-.75h4.25V7.39H10.08c-.26-.001-.49-.13-.63-.34L7.76 4.52H2.72v14.69h9.25c.41 0 .75.33.75.75 0 .41-.34.75-.75.75h-10c-.42 0-.75-.34-.75-.75V3.76Z"/><path d="M16.55 13.33c0-.42-.34-.75-.75-.75H8.65c-.42 0-.75.33-.75.75 0 .41.33.75.75.75h7.14c.41 0 .75-.34.75-.75Z"/><path d="M12.42 9.94c-.3.29-.3.76 0 1.06l2.32 2.32 -2.33 2.32c-.3.29-.3.76 0 1.06 .29.29.76.29 1.06 0l2.85-2.86c.29-.3.29-.77 0-1.07l-2.86-2.86c-.3-.3-.77-.3-1.07 0Z"/></g></svg>