<svg viewBox="0 0 24 24" xmlns="http://www.w3.org/2000/svg"><g fill-rule="evenodd"><path d="M1.25 3.8c0-.42.33-.75.75-.75h6.19c.25 0 .48.12.62.33l1.68 2.52h11.5c.41 0 .75.33.75.75v13.33c0 .41-.34.75-.75.75h-5c-.42 0-.75-.34-.75-.75 0-.42.33-.75.75-.75h4.25V7.39H10.08c-.26-.001-.49-.13-.63-.34L7.76 4.52H2.72v14.69h9.25c.41 0 .75.33.75.75 0 .41-.34.75-.75.75h-10c-.42 0-.75-.34-.75-.75V3.76Z"/><path d="M11.157 10.48c.25.32.2.79-.12 1.05l-1.65 1.31 1.64 1.31c.32.25.37.73.11 1.05 -.26.32-.74.37-1.06.11L7.68 13.4c-.18-.15-.29-.36-.29-.59 0-.23.1-.45.28-.59l2.38-1.91c.32-.26.79-.21 1.05.11Z"/><path d="M14.38 9.79c-.38 0-.68.3-.68.67v.47c0 .41-.34.75-.75.75 -.42 0-.75-.34-.75-.75v-.48c0-1.21.97-2.18 2.17-2.18s2.17.97 2.17 2.17v.62c0 .75-.38 1.45-1.01 1.87l-.1.06c-.21.13-.34.37-.34.62v.62c0 .41-.34.75-.75.75 -.42 0-.75-.34-.75-.75v-.63c0-.76.37-1.46 1-1.88l.09-.07c.2-.14.33-.38.33-.63v-.63c0-.38-.31-.68-.68-.68Z"/><path d="M14.38 15.44c.41 0 .75.33.75.75v.95c0 .41-.34.75-.75.75 -.42 0-.75-.34-.75-.75v-.96c0-.42.33-.75.75-.75Z"/></g></svg>