<svg viewBox="0 0 24 24" xmlns="http://www.w3.org/2000/svg"><g fill-rule="evenodd"><path d="M1.25 3.8c0-.42.33-.75.75-.75h6.19c.25 0 .48.12.62.33l1.68 2.52h11.5c.41 0 .75.33.75.75v13.33c0 .41-.34.75-.75.75h-5c-.42 0-.75-.34-.75-.75 0-.42.33-.75.75-.75h4.25V7.39H10.08c-.26-.001-.49-.13-.63-.34L7.76 4.52H2.72v14.69h9.25c.41 0 .75.33.75.75 0 .41-.34.75-.75.75h-10c-.42 0-.75-.34-.75-.75V3.76Z"/><path d="M10.57 9.79c-1.43 0-2.59 1.15-2.59 2.58 0 1.42 1.15 2.58 2.58 2.58 1.42 0 2.58-1.16 2.58-2.59s-1.16-2.59-2.59-2.59Zm-4.09 2.58c0-2.26 1.82-4.09 4.08-4.09 2.25 0 4.08 1.82 4.08 4.08 0 2.25-1.83 4.08-4.09 4.08s-4.09-1.83-4.09-4.09Z"/><path d="M12.42 14.23c.29-.3.76-.3 1.06 0l2.85 2.85c.29.29.29.76 0 1.06 -.3.29-.77.29-1.07 0l-2.86-2.86c-.3-.3-.3-.77 0-1.07Z"/></g></svg>