<svg viewBox="0 0 24 24" xmlns="http://www.w3.org/2000/svg"><g fill-rule="evenodd"><path d="M1.25 3.8c0-.42.33-.75.75-.75h6.19c.25 0 .48.12.62.33l1.68 2.52h11.5c.41 0 .75.33.75.75v13.33c0 .41-.34.75-.75.75h-5c-.42 0-.75-.34-.75-.75 0-.42.33-.75.75-.75h4.25V7.39H10.08c-.26-.001-.49-.13-.63-.34L7.76 4.52H2.72v14.69h9.25c.41 0 .75.33.75.75 0 .41-.34.75-.75.75h-10c-.42 0-.75-.34-.75-.75V3.76Z"/><path d="M8.66 12.65c-.38 0-.68.3-.68.67 0 .37.3.67.67.67 .37 0 .67-.31.67-.68 0-.38-.31-.68-.68-.68Zm-2.18.67c0-1.21.97-2.18 2.17-2.18s2.17.97 2.17 2.17 -.98 2.17-2.18 2.17c-1.21 0-2.18-.98-2.18-2.18Z"/><path d="M15.33 9.79c-.38 0-.68.3-.68.67 0 .37.3.67.67.67 .37 0 .67-.31.67-.68 0-.38-.31-.68-.68-.68Zm-2.18.67c0-1.21.97-2.18 2.17-2.18s2.17.97 2.17 2.17 -.98 2.17-2.18 2.17c-1.21 0-2.18-.98-2.18-2.18Z"/><path d="M15.33 15.51c-.38 0-.68.3-.68.67 0 .37.3.67.67.67 .37 0 .67-.31.67-.68 0-.38-.31-.68-.68-.68Zm-2.18.67c0-1.21.97-2.18 2.17-2.18s2.17.97 2.17 2.17 -.98 2.17-2.18 2.17c-1.21 0-2.18-.98-2.18-2.18Z"/><path d="M14.6 10.689c.14.38-.06.82-.44.96l-3.81 1.42c-.39.14-.83-.06-.97-.44 -.15-.39.05-.83.43-.97l3.8-1.43c.38-.15.82.05.96.43Z"/><path d="M9.39 14.02c.14-.39.57-.59.96-.44l3.8 1.42c.38.14.58.57.43.96 -.15.38-.58.58-.97.43L9.8 14.96c-.39-.15-.59-.58-.44-.97Z"/></g></svg>