<svg viewBox="0 0 24 24" xmlns="http://www.w3.org/2000/svg"><g fill-rule="evenodd"><path d="M15.8 9.89c-3.01 0-5.45 2.43-5.45 5.44 0 3 2.43 5.44 5.44 5.44 3 0 5.44-2.44 5.44-5.45 0-3.01-2.44-5.45-5.45-5.45Zm-6.95 5.44c0-3.84 3.1-6.95 6.94-6.95 3.83 0 6.94 3.1 6.94 6.94 0 3.83-3.11 6.94-6.95 6.94 -3.84 0-6.95-3.11-6.95-6.95Z"/><path d="M1.25 2.47c0-.42.33-.75.75-.75h5.14c.24 0 .47.12.61.32l1.49 2.17h9.89c.41 0 .75.33.75.75v2.26c0 .41-.34.75-.75.75 -.42 0-.75-.34-.75-.75V5.7H8.84c-.25 0-.48-.13-.62-.33l-1.5-2.18h-4v7.82c0 .41-.34.75-.75.75 -.42 0-.75-.34-.75-.75V2.43ZM2 14.57c.41 0 .75.33.75.75v3.53h5.44c.41 0 .75.33.75.75 0 .41-.34.75-.75.75h-6.2c-.42 0-.75-.34-.75-.75v-4.29c0-.42.33-.75.75-.75Z"/><path d="M15.92 15.6c-.97 0-1.75.78-1.75 1.75v.35c0 .41-.34.75-.75.75 -.42 0-.75-.34-.75-.75v-.36c0-1.8 1.45-3.25 3.25-3.25h2.26c.41 0 .75.33.75.75 0 .41-.34.75-.75.75h-2.27Z"/><path d="M15.23 11.996c.26-.32.73-.37 1.05-.1l2.85 2.38c.17.14.26.35.26.57 0 .22-.1.43-.27.57l-2.86 2.38c-.32.26-.8.22-1.06-.1 -.27-.32-.23-.8.09-1.06l2.16-1.81 -2.17-1.81c-.32-.27-.37-.74-.1-1.06Z"/></g></svg>