<svg viewBox="0 0 24 24" xmlns="http://www.w3.org/2000/svg"><g fill-rule="evenodd"><path d="M1.25 3.8c0-.42.33-.75.75-.75h6.19c.25 0 .48.12.62.33l1.68 2.52h11.5c.41 0 .75.33.75.75v13.33c0 .41-.34.75-.75.75h-5c-.42 0-.75-.34-.75-.75 0-.42.33-.75.75-.75h4.25V7.39H10.08c-.26-.001-.49-.13-.63-.34L7.76 4.52H2.72v14.69h9.25c.41 0 .75.33.75.75 0 .41-.34.75-.75.75h-10c-.42 0-.75-.34-.75-.75V3.76Z"/><path d="M10.81 9.32c.37-1.16 2-1.16 2.37 0l.63 1.96h2.06c1.21 0 1.71 1.54.73 2.26l-1.673 1.21 .63 1.96c.37 1.15-.95 2.1-1.93 1.39l-1.673-1.22 -1.673 1.21c-.98.71-2.3-.25-1.93-1.4l.63-1.97L7.3 13.5c-.98-.72-.48-2.27.73-2.27h2.06l.63-1.97Zm1.18 1.19l-.46 1.4c-.17.51-.65.86-1.19.86H8.85l1.19.87c.43.31.62.88.45 1.39l-.46 1.4 1.19-.87c.43-.32 1.03-.32 1.46 0l1.19.87 -.46-1.41c-.17-.52.01-1.08.45-1.4l1.19-.87h-1.49c-.55 0-1.03-.35-1.19-.87l-.46-1.41Z"/></g></svg>