<svg viewBox="0 0 24 24" xmlns="http://www.w3.org/2000/svg"><g fill-rule="evenodd"><path d="M1.25 3.8c0-.42.33-.75.75-.75h6.19c.25 0 .48.12.62.33l1.68 2.52h11.5c.41 0 .75.33.75.75v13.33c0 .41-.34.75-.75.75h-5c-.42 0-.75-.34-.75-.75 0-.42.33-.75.75-.75h4.25V7.39H10.08c-.26-.001-.49-.13-.63-.34L7.76 4.52H2.72v14.69h9.25c.41 0 .75.33.75.75 0 .41-.34.75-.75.75h-10c-.42 0-.75-.34-.75-.75V3.76Z"/><path d="M12 9.79c-1.96 0-3.54 1.58-3.54 3.53 0 1.95 1.58 3.53 3.53 3.53 1.95 0 3.53-1.59 3.53-3.54 0-1.96-1.59-3.54-3.54-3.54Zm-5.04 3.53c0-2.79 2.25-5.04 5.03-5.04 2.78 0 5.03 2.25 5.03 5.03 0 2.78-2.26 5.03-5.04 5.03 -2.79 0-5.04-2.26-5.04-5.04Z"/><path d="M11.52 10.67c.41 0 .75.33.75.75v1.63h1.63c.41 0 .75.33.75.75 0 .41-.34.75-.75.75h-2.39c-.42 0-.75-.34-.75-.75v-2.39c0-.42.33-.75.75-.75Z"/></g></svg>