<svg viewBox="0 0 24 24" xmlns="http://www.w3.org/2000/svg"><g fill-rule="evenodd"><path d="M1.25 3.8c0-.42.33-.75.75-.75h6.19c.25 0 .48.12.62.33l1.68 2.52h11.5c.41 0 .75.33.75.75v13.33c0 .41-.34.75-.75.75h-5c-.42 0-.75-.34-.75-.75 0-.42.33-.75.75-.75h4.25V7.39H10.08c-.26-.001-.49-.13-.63-.34L7.76 4.52H2.72v14.69h9.25c.41 0 .75.33.75.75 0 .41-.34.75-.75.75h-10c-.42 0-.75-.34-.75-.75V3.76Z"/><path d="M8.86 16.66c0-.42.33-.75.75-.75h4.76c.41 0 .75.33.75.75 0 .41-.34.75-.75.75H9.6c-.42 0-.75-.34-.75-.75Z"/><path d="M12 15.03c.41 0 .75-.34.75-.75V9.51c0-.42-.34-.75-.75-.75 -.42 0-.75.33-.75.75v4.76c0 .41.33.75.75.75Z"/><path d="M8.98 12.42c.28.29.76.3 1.06.01l1.94-1.87 1.86 1.86c.29.29.76.29 1.06 0 .29-.3.29-.77 0-1.07l-2.39-2.39c-.29-.29-.76-.3-1.06-.01l-2.48 2.38c-.3.28-.31.76-.02 1.06Z"/></g></svg>