<svg viewBox="0 0 24 24" xmlns="http://www.w3.org/2000/svg"><g fill-rule="evenodd"><path d="M1.25 3.8c0-.42.33-.75.75-.75h6.19c.25 0 .48.12.62.33l1.68 2.52h11.5c.41 0 .75.33.75.75v13.33c0 .41-.34.75-.75.75h-5c-.42 0-.75-.34-.75-.75 0-.42.33-.75.75-.75h4.25V7.39H10.08c-.26-.001-.49-.13-.63-.34L7.76 4.52H2.72v14.69h9.25c.41 0 .75.33.75.75 0 .41-.34.75-.75.75h-10c-.42 0-.75-.34-.75-.75V3.76Z"/><path d="M12 9.79c-.64 0-1.16.51-1.16 1.15 0 .63.51 1.15 1.15 1.15 .63 0 1.15-.52 1.15-1.16 0-.64-.52-1.16-1.16-1.16Zm-2.66 1.15c0-1.47 1.18-2.66 2.65-2.66 1.46 0 2.65 1.18 2.65 2.65 0 1.46-1.19 2.65-2.66 2.65 -1.47 0-2.66-1.19-2.66-2.66Z"/><path d="M10.03 16.869h3.93c-.31-.8-1.08-1.36-1.97-1.36 -.9 0-1.67.56-1.97 1.35Zm-1.64.75c0-2 1.61-3.61 3.6-3.61s3.6 1.61 3.6 3.6c0 .41-.34.75-.75.75H9.12c-.42 0-.75-.34-.75-.75Z"/></g></svg>