<svg viewBox="0 0 24 24" xmlns="http://www.w3.org/2000/svg"><g fill-rule="evenodd"><path d="M11.57 1.09c.35-.17.76-.12 1.06.13l6 5c.22.18.35.47.35.76 0 .29-.14.57-.36.76l-6 4.99c-.3.24-.72.3-1.07.13 -.36-.17-.58-.52-.58-.91v-10c0-.39.22-.75.57-.91Zm1.42 3.04v5.72l3.43-2.87 -3.44-2.87Z"/><path d="M11.57 11.09c.35-.17.76-.12 1.06.13l6 5c.22.19.35.47.35.76 0 .29-.14.57-.36.76l-6 5c-.3.24-.72.3-1.07.13 -.36-.17-.58-.52-.58-.91v-10c0-.39.22-.75.57-.91Zm1.42 3.04v5.72l3.43-2.87 -3.44-2.87Z"/><path d="M5.35 16.23l5.99-5 1.28 1.53 -6.01 5 -1.29-1.54Z"/><path d="M5.35 7.76l5.99 4.99 1.28-1.54L6.61 6.2 5.32 7.73Z"/></g></svg>