<svg viewBox="0 0 24 24" xmlns="http://www.w3.org/2000/svg"><g fill-rule="evenodd"><path d="M6 10.5c-1.66 0-3 1.34-3 3v1.45c0 .33.05.67.17.99l.17.51c.11.32.38.56.71.64 .33.07.68-.03.92-.27l4.2-4.13c.23-.24.34-.58.28-.91 -.07-.33-.29-.61-.6-.74l-.84-.35c-.37-.16-.76-.23-1.15-.23h-.9Z"/><path d="M17.5 10.5c-1.66 0-3 1.34-3 3V18c0 1.65 1.34 3 3 3h.5c1.65 0 3-1.35 3-3v-4.5c0-1.66-1.35-3-3-3h-.5Z"/><path d="M14.79 5h-3.8c-3.32 0-6 2.68-6 6v2.56h-2v-2.57c0-4.42 3.58-8 8-8h3.79c.718 0 1.4.28 1.91.79l-1.42 1.41c-.14-.14-.32-.21-.5-.21Zm4.26.16c1.21.81 1.94 2.17 1.94 3.63v6.69h-2v-6.7c0-.8-.4-1.54-1.06-1.98l1.1-1.67Z"/><path d="M2.29 20.29l18-18L21.7 3.7l-18 18 -1.42-1.42Z"/><path d="M10 15.5c0-.4-.23-.75-.59-.92 -.36-.17-.78-.11-1.08.15l-4 3.5 .65.75h-1c0 1.1.89 2 2 2h.99c1.65 0 3-1.35 3-3v-2.5Z"/></g></svg>