<svg viewBox="0 0 24 24" xmlns="http://www.w3.org/2000/svg"><g fill-rule="evenodd"><path d="M.5 4.5c0-1.66 1.34-3 3-3h17c1.65 0 3 1.34 3 3v11c0 1.65-1.35 3-3 3h-17c-1.66 0-3-1.35-3-3v-11Zm3-1c-.56 0-1 .44-1 1v11c0 .55.44 1 1 1h17c.55 0 1-.45 1-1v-11c0-.56-.45-1-1-1h-17Z"/><path d="M3.5 1.5c-1.66 0-3 1.34-3 3V14c0 .55.44 1 1 1h21c.55 0 1-.45 1-1V4.5c0-1.66-1.35-3-3-3h-17Z"/><path d="M18 22.5H6v-2h12v2Z"/><path d="M22.5 15h-21v-2h21v2Z"/><path d="M8 17.5c0-.56.44-1 1-1h6c.55 0 1 .44 1 1v4c0 .55-.45 1-1 1H9c-.56 0-1-.45-1-1v-4Zm2 1v2h4v-2h-4Z"/></g></svg>