<svg viewBox="0 0 24 24" xmlns="http://www.w3.org/2000/svg"><path fill-rule="evenodd" d="M12 6V1H6C4.34 1 3 2.34 3 4v16c0 1.65 1.34 3 3 3h12c1.65 0 3-1.35 3-3V9h-6c-1.66 0-3-1.35-3-3Zm2 0V1.55c.07.05.14.1.21.16l5.73 4.91c.12.11.24.22.35.35h-5.31c-.56 0-1-.45-1-1Zm1.84 5.07c-1.52-1.44-3.95-1.44-5.46 0L6.3 14.95l1.37 1.44 4.07-3.89c.73-.71 1.95-.71 2.69 0 .71.67.71 1.75 0 2.43l-3.06 2.91c-.18.16-.49.16-.66 0 -.15-.15-.15-.36 0-.5l3.05-2.92 -1.38-1.45 -3.06 2.91c-.98.93-.98 2.45 0 3.38 .94.9 2.46.9 3.41 0l3.05-2.92c1.54-1.47 1.54-3.87 0-5.34Z"/></svg>