<svg viewBox="0 0 24 24" xmlns="http://www.w3.org/2000/svg"><path fill-rule="evenodd" d="M4.29 18.29l14-14L19.7 5.7l-14 14 -1.42-1.42Z"/><g><path d="M2.42 11.458c.26-.32 1.46-1.74 3.07-3.17 .89-.79 1.93-1.6 3.01-2.22 1.07-.61 2.28-1.09 3.48-1.09l.1-.01c.91-.01 1.87-.01 2.77.38 .3.13.52.4.58.73 -.17.23-.35.35-.59.58l-8.48 8.28c-.38.36-.66.69-1.06.35 -1.29-1.11-1.99-1.72-2.38-2.05 -.2-.17-.31-.26-.37-.31l-.04-.03c-.05-.04-.1-.08-.14-.12 0 0 0 0-.04-.04l.03.03 -.01-.01 -.01-.01 -.01-.01 -.01-.01c-.01-.01-.02-.02-.02-.03 -.01-.01-.06-.07-.11-.15 -.02-.03-.05-.08-.08-.15 -.02-.05-.08-.21-.08-.42 0-.2.08-.46.27-.66Z"/><path d="M15.88 6.83c.33-.34.86-.39 1.25-.13 1.42.94 2.59 2.13 3.4 3.06 .4.46.72.88.94 1.18 .1.14.19.26.25.35 .02.04.05.07.06.09l.01.02 0 0 0 0 0 0 -.84.54 .75.65 -.01 0 -.02.01 -.05.05c-.05.04-.11.11-.18.2 -.16.17-.38.41-.66.7 -.56.57-1.35 1.35-2.27 2.13 -.92.77-1.98 1.57-3.08 2.17 -1.1.59-2.32 1.06-3.52 1.06 -1.72 0-3.31-.99-4.71-2.01 -.24-.18-.39-.45-.41-.74 -.03-.3.08-.58.29-.79l2.25-2.237c-.12.16-.18.36-.18.56 0 .27.11.52.3.71 .62.6 1.48.98 2.43.98 1.93 0 3.5-1.57 3.5-3.5 0-.85-.19-1.73-.91-2.45 -.39-.39-1.01-.39-1.4-.01l-2.32 2.24 5-4.97Z"/><path d="M21.75 12.65s0-.01-.76-.66c.83-.55.83-.55.83-.55 .24.37.21.86-.08 1.19Z"/></g></svg>