<svg viewBox="0 0 24 24" xmlns="http://www.w3.org/2000/svg"><g fill-rule="evenodd"><path d="M12 2c-1.66 0-3 1.34-3 3v5.5c0 .4.24.76.61.92 .37.15.8.06 1.08-.22l4-4c.18-.19.29-.45.29-.71v-1.5c0-1.66-1.35-3-3-3Z"/><path d="M8 10.5v2.79c0 .18.07.36.2.5L6.78 15.2c-.51-.51-.8-1.2-.8-1.92v-2.8h2Zm8 2v-2h2v2c0 3.31-2.69 6-6 6h-.5c-1.26 0-2.45-.6-3.2-1.6l-.6-.8 1.6-1.2 .6.8c.37.5.97.8 1.6.8h.5c2.2 0 4-1.8 4-4Z"/><path d="M11 22v-4.5h2V22h-2Z"/><path d="M3.29 19.29l16-16L20.7 4.7l-16 16 -1.42-1.42Z"/><path d="M15 10c0-.41-.25-.77-.62-.93 -.38-.16-.81-.07-1.09.21l-3.51 3.5 .7.7h-1c0 1.1.89 2 2 2h.75c1.51 0 2.75-1.24 2.75-2.75V9.98Z"/></g></svg>