<svg viewBox="0 0 24 24" xmlns="http://www.w3.org/2000/svg"><g fill-rule="evenodd"><path d="M1.5 12.5c-.56 0-1 .44-1 1v6c0 .55.44 1 1 1h3c.55 0 1-.45 1-1v-6c0-.56-.45-1-1-1h-3Z"/><path d="M7.5 9.5c-.56 0-1 .44-1 1v9c0 .55.44 1 1 1h3c.55 0 1-.45 1-1v-9c0-.56-.45-1-1-1h-3Z"/><path d="M13.5 6.5c-.56 0-1 .44-1 1v12c0 .55.44 1 1 1h3c.55 0 1-.45 1-1v-12c0-.56-.45-1-1-1h-3Z"/><path d="M19.5 3.5c-.56 0-1 .44-1 1v15c0 .55.44 1 1 1h3c.55 0 1-.45 1-1v-15c0-.56-.45-1-1-1h-3Z"/><path d="M2.29 6.29l4-4L7.7 3.7l-4 4L2.28 6.28Z"/><path d="M7.7 6.29l-4-4L2.28 3.7l4 4 1.41-1.42Z"/></g></svg>