<svg viewBox="0 0 24 24" xmlns="http://www.w3.org/2000/svg"><g><path d="M9.95 15.37c-1.08 1.07-1.08 2.81 0 3.88 1.07 1.07 2.81 1.07 3.88 0 1.07-1.08 1.07-2.82 0-3.89 -1.08-1.08-2.82-1.08-3.89 0Z"/><g fill-rule="evenodd"><path d="M16.14 15.55c-1.28-1.28-2.99-1.86-4.67-1.75l-.14-2c2.22-.16 4.51.61 6.21 2.32l-1.42 1.41Z"/><path d="M11.53 10.3c-2.32.08-4.6 1.01-6.36 2.77l-1.42-1.42c2.13-2.14 4.89-3.26 7.69-3.37l.07 1.99Zm7.07 2.77c-1.26-1.26-2.77-2.09-4.37-2.49l.49-1.94c1.93.49 3.77 1.49 5.28 3.01l-1.42 1.41Z"/><path d="M14.26 7.01c-4.07-.75-8.42.44-11.57 3.59L1.27 9.18C4.89 5.55 9.92 4.17 14.6 5.03l-.37 1.96Zm6.82 3.59c-1.28-1.28-2.75-2.23-4.32-2.87l.74-1.86c1.81.73 3.51 1.83 4.98 3.3l-1.42 1.41Z"/><path d="M2.29 20.29l18-18L21.7 3.7l-18 18 -1.42-1.42Z"/></g></g></svg>