<svg viewBox="0 0 24 24" xmlns="http://www.w3.org/2000/svg"><path fill-rule="evenodd" d="M9.5 3c0-.56.44-1 1-1h3c.55 0 1 .44 1 1v1.39c.38.12.75.27 1.1.45l.98-.99c.39-.4 1.02-.4 1.41 0l2.12 2.12c.18.18.29.44.29.7 0 .26-.11.51-.3.7l-.99.98c.17.35.33.72.45 1.1h1.39c.55 0 1 .44 1 1v3c0 .55-.45 1-1 1h-1.4c-.13.38-.28.75-.46 1.1l.98.98c.39.39.39 1.02 0 1.41l-2.13 2.12c-.4.39-1.03.39-1.42 0l-.99-.99c-.36.17-.73.33-1.11.45v1.39c0 .55-.45 1-1 1h-3c-.56 0-1-.45-1-1v-1.4c-.39-.13-.76-.28-1.11-.46l-.99.98c-.19.18-.45.29-.71.29 -.27 0-.52-.11-.71-.3l-2.13-2.13c-.4-.4-.4-1.03 0-1.42l.98-.99c-.18-.36-.34-.73-.46-1.11h-1.4c-.56 0-1-.45-1-1v-3c0-.56.44-1 1-1h1.39c.12-.39.27-.76.45-1.11l-.99-.99c-.4-.4-.4-1.03 0-1.42l2.12-2.13c.39-.4 1.02-.4 1.41 0l.98.98c.35-.18.72-.34 1.1-.46v-1.4Zm.5 9c0-1.11.89-2 2-2 1.1 0 2 .89 2 2 0 1.1-.9 2-2 2 -1.11 0-2-.9-2-2Zm2-4c-2.21 0-4 1.79-4 4 0 2.2 1.79 4 4 4 2.2 0 4-1.8 4-4 0-2.21-1.8-4-4-4Z"/></svg>