<svg viewBox="0 0 24 24" xmlns="http://www.w3.org/2000/svg"><g fill-rule="evenodd"><path d="M2 8c0-1.66 1.34-3 3-3h9.04c.4 0 .77.24.92.62 .15.37.06.81-.24 1.09L3.67 17.36c-.29.27-.72.35-1.09.2 -.37-.16-.61-.52-.61-.93V7.97Zm14.88-1.43c.37.15.61.51.61.92v.96l3.09-1.38c.3-.14.66-.11.95.07 .28.18.45.49.45.83v8c0 .33-.18.65-.46.83 -.29.18-.65.21-.96.07l-3.1-1.375v.46c0 1.65-1.35 3-3 3h-8.5c-.41 0-.77-.25-.93-.62 -.16-.38-.07-.81.21-1.09l10.5-10.5c.28-.29.71-.38 1.08-.22ZM9.99 7.99h-4v2h4v-2Z"/><path d="M2.29 20.29l18-18L21.7 3.7l-18 18 -1.42-1.42Z"/></g></svg>