<svg viewBox="0 0 24 24" xmlns="http://www.w3.org/2000/svg"><g fill-rule="evenodd"><path d="M19.87 5.07c-2.07-2.01-5.37-2.1-7.55-.29 -.1.08-.22.11-.34.11 -.12 0-.24-.04-.34-.12 -2.19-1.82-5.49-1.73-7.55.28 -2.06 1.99-2.16 5.17-.3 7.27 .02.02.03.04.05.07l8.11 7.87 8.11-7.88c.01-.03.03-.06.05-.08 1.86-2.11 1.76-5.29-.3-7.28Zm1.12 7.83c2.12-2.51 1.98-6.22-.44-8.56 -2.35-2.28-6.02-2.47-8.58-.58 -2.57-1.89-6.24-1.7-8.58.57 -2.42 2.33-2.56 6.05-.44 8.55 .02.05.05.1.1.14l8.55 8.3c.19.18.5.18.69 0l8.55-8.31c.04-.05.07-.09.1-.15Z"/><path d="M9.54 11.79l2-4.5 .91.4 -1.69 3.79h3.23c.16 0 .32.08.41.22 .09.14.1.32.03.47l-2 4.5 -.92-.41 1.68-3.8H9.95c-.17 0-.33-.09-.42-.23 -.1-.15-.11-.33-.04-.48Z"/></g></svg>