<svg viewBox="0 0 24 24" xmlns="http://www.w3.org/2000/svg"><g fill-rule="evenodd"><path d="M5.9 4.18c-.3.29-.41.57-.41.81 0 .24.11.52.4.81 .29.29.74.58 1.34.84 1.19.51 2.87.83 4.75.83s3.56-.33 4.75-.84c.59-.26 1.04-.55 1.34-.85 .29-.3.4-.58.4-.82 0-.25-.12-.53-.41-.82 -.3-.3-.75-.59-1.35-.85 -1.2-.52-2.88-.84-4.76-.84 -1.89 0-3.57.32-4.76.83 -.6.25-1.05.54-1.35.84Zm.94-1.77c1.34-.58 3.16-.92 5.14-.92 1.98 0 3.8.34 5.14.91 .67.28 1.24.64 1.65 1.06 .41.42.69.93.69 1.51s-.28 1.09-.7 1.51c-.42.41-.99.77-1.66 1.06 -1.35.57-3.17.91-5.15.91 -1.99 0-3.81-.35-5.15-.92 -.68-.29-1.25-.65-1.66-1.07 -.42-.43-.7-.94-.7-1.52 0-.59.27-1.1.69-1.52 .41-.42.98-.78 1.65-1.07Z"/><path d="M5.5 5v14c0 .24.11.52.4.81 .29.29.74.58 1.34.84 1.19.51 2.87.83 4.75.83s3.56-.33 4.75-.84c.59-.26 1.04-.55 1.34-.85 .29-.3.4-.58.4-.82v-14h1v14c0 .58-.28 1.09-.7 1.51 -.42.41-.99.77-1.66 1.06 -1.35.57-3.17.91-5.15.91 -1.99 0-3.81-.35-5.15-.92 -.68-.29-1.25-.65-1.66-1.07 -.42-.43-.7-.94-.7-1.52v-14h1Z"/><path d="M11.5 17v-5h1v5h-1Z"/><path d="M14.5 15h-5v-1h5v1Z"/></g></svg>