<svg viewBox="0 0 24 24" xmlns="http://www.w3.org/2000/svg"><g fill-rule="evenodd"><path d="M1.5 4.5c0-1.66 1.34-3 3-3h7c1.65 0 3 1.34 3 3v8c0 1.65-1.35 3-3 3h-7c-1.66 0-3-1.35-3-3v-8Zm3-2c-1.11 0-2 .89-2 2v8c0 1.1.89 2 2 2h7c1.1 0 2-.9 2-2v-8c0-1.11-.9-2-2-2h-7Z"/><path d="M17 5.5c0-.28.22-.5.5-.5h3c.27 0 .5.22.5.5v5c0 .27-.23.5-.5.5h-3c-.28 0-.5-.23-.5-.5v-5Zm1 .5v4h2V6h-2Z"/><path d="M19.5 2v3.5h-1V2h1Z"/><path d="M8.39 4.68l-.4.31 -.4-.32c.09-.12.23-.19.39-.19 .15 0 .29.06.39.18Zm-.4 1.13c-.23.3-.54.72-.84 1.18 -.31.46-.61.96-.83 1.42 -.23.47-.35.84-.35 1.06 0 1.1.89 2 2 2 1.1 0 2-.9 2-2 0-.23-.12-.6-.35-1.07 -.23-.46-.53-.96-.83-1.43 -.31-.46-.61-.88-.84-1.19Zm0-.83c-.4-.32-.4-.32-.4-.32l-.01 0 -.01 0 -.03.02c-.02.02-.05.05-.09.1 -.08.09-.17.22-.29.37 -.24.31-.56.76-.88 1.24 -.32.48-.65 1.02-.9 1.53 -.24.49-.45 1.03-.45 1.5 0 1.65 1.34 3 3 3 1.65 0 3-1.35 3-3 0-.47-.21-1.01-.45-1.51 -.25-.52-.58-1.06-.9-1.54 -.32-.49-.64-.93-.88-1.25 -.12-.16-.22-.29-.29-.38 -.04-.05-.07-.09-.09-.11l-.03-.03 -.01-.01 -.01-.01c-.01-.01 0 0-.4.31Z"/><path d="M19.5 10.5v8c0 2.2-1.8 4-4 4h-4c-2.21 0-4-1.8-4-4V15h1v3.5c0 1.65 1.34 3 3 3h4c1.65 0 3-1.35 3-3v-8h1Z"/></g></svg>