<svg viewBox="0 0 24 24" xmlns="http://www.w3.org/2000/svg"><path fill-rule="evenodd" d="M6 5c0-1.97 1.58-3.53 3.5-3.53 .97 0 1.86.4 2.5 1.05 .63-.66 1.52-1.06 2.5-1.06 1.91 0 3.5 1.55 3.5 3.52 0 1.79-1.32 3.24-3 3.48v7.02c1.68.24 3 1.69 3 3.48 0 1.96-1.59 3.52-3.5 3.52 -.98 0-1.87-.41-2.5-1.06 -.64.65-1.53 1.05-2.5 1.05 -1.92 0-3.5-1.56-3.5-3.53 0-1.8 1.31-3.25 3-3.49V8.42c-1.69-.25-3-1.7-3-3.49Zm3.5-2.48C8.09 2.52 7 3.65 7 4.99c0 1.34 1.09 2.47 2.5 2.47 .27 0 .5.23.5.52v8c0 .28-.23.52-.5.52 -1.41 0-2.5 1.13-2.5 2.47 0 1.34 1.09 2.47 2.5 2.47 .87 0 1.64-.45 2.08-1.12 .09-.15.24-.23.41-.23 .16 0 .31.08.41.22 .44.66 1.21 1.11 2.08 1.11 1.4 0 2.5-1.14 2.5-2.48 0-1.35-1.1-2.48-2.5-2.48 -.28 0-.5-.24-.5-.53v-8c0-.29.22-.53.5-.53 1.4 0 2.5-1.14 2.5-2.48 0-1.35-1.1-2.48-2.5-2.48 -.88 0-1.65.44-2.09 1.11 -.1.14-.25.22-.42.22 -.17 0-.32-.09-.42-.23 -.45-.67-1.22-1.12-2.09-1.12Z"/></svg>