<svg viewBox="0 0 24 24" xmlns="http://www.w3.org/2000/svg"><g fill-rule="evenodd"><path d="M9.35 15.35l-7 7 -.71-.71 7-7 .7.7Z"/><path d="M16.64 3.64c.19-.2.51-.2.7 0l3 3c.19.19.19.51 0 .7l-8 8c-.1.09-.23.14-.36.14h-3c-.28 0-.5-.23-.5-.5v-3c0-.14.05-.26.14-.36l7.99-8Zm.35 1.06l-7.5 7.49v2.29h2.29l7.5-7.5 -2.3-2.3Z"/><path d="M21.64 9.35l-7-7 .7-.71 7 7 -.71.7Z"/><path d="M18.64 11.35l-6-6.01 .7-.71 6 6 -.71.7Z"/><path d="M8.14 5.14c.19-.2.51-.2.7 0l3.5 3.5 -.71.7 -3.15-3.15 -1.3 1.29 3.14 3.14 -.71.7 -3.5-3.51c-.2-.2-.2-.52 0-.71l2-2Zm7.2 6.49l3.5 3.5c.19.19.19.51 0 .7l-2 2c-.2.19-.52.19-.71 0l-3.5-3.5 .7-.71 3.14 3.14 1.29-1.3 -3.15-3.15 .7-.71Z"/></g></svg>