<svg viewBox="0 0 24 24" xmlns="http://www.w3.org/2000/svg"><g fill-rule="evenodd"><path d="M4.5 4.5C4.5 3.11 5.61 2 7 2h10c1.38 0 2.5 1.11 2.5 2.5v15c0 1.38-1.12 2.5-2.5 2.5H7c-1.39 0-2.5-1.12-2.5-2.5v-15ZM7 3c-.83 0-1.5.67-1.5 1.5v15c0 .82.67 1.5 1.5 1.5h10c.82 0 1.5-.68 1.5-1.5v-15c0-.83-.68-1.5-1.5-1.5H7Z"/><path d="M7.5 6.5c0-1.11.89-2 2-2H12c.27 0 .5.22.5.5v3c0 .27-.23.5-.5.5H9.5c-1.11 0-2-.9-2-2Zm2-1c-.56 0-1 .44-1 1 0 .55.44 1 1 1h2v-2h-2Z"/><path d="M7.5 12c0-1.11.89-2 2-2H12c.27 0 .5.22.5.5v3c0 .27-.23.5-.5.5H9.5c-1.11 0-2-.9-2-2Zm2-1c-.56 0-1 .44-1 1 0 .55.44 1 1 1h2v-2h-2Z"/><path d="M7.5 17.5c0-1.11.89-2 2-2H12c.27 0 .5.22.5.5v3c0 .27-.23.5-.5.5H9.5c-1.11 0-2-.9-2-2Zm2-1c-.56 0-1 .44-1 1 0 .55.44 1 1 1h2v-2h-2Z"/><path d="M16.5 6.5c0-1.11-.9-2-2-2H12c-.28 0-.5.22-.5.5v3c0 .27.22.5.5.5h2.5c1.1 0 2-.9 2-2Zm-2-1c.55 0 1 .44 1 1 0 .55-.45 1-1 1h-2v-2h2Z"/><path d="M16.5 12c0-1.11-.9-2-2-2H12c-.28 0-.5.22-.5.5v3c0 .27.22.5.5.5h2.5c1.1 0 2-.9 2-2Zm-2-1c.55 0 1 .44 1 1 0 .55-.45 1-1 1h-2v-2h2Z"/><path d="M16.5 17.5c0-1.11-.9-2-2-2H12c-.28 0-.5.22-.5.5v3c0 .27.22.5.5.5h2.5c1.1 0 2-.9 2-2Zm-2-1c.55 0 1 .44 1 1 0 .55-.45 1-1 1h-2v-2h2Z"/></g></svg>