<svg viewBox="0 0 24 24" xmlns="http://www.w3.org/2000/svg"><g fill-rule="evenodd"><path d="M11.735 6.57c.16-.11.36-.11.53 0l3.91 2.44 2.9.48c.24.04.41.24.41.49v4.88c0 1.17-.83 2.19-1.98 2.44l-5.42 1.16c-.07.01-.15.01-.21 0l-5.42-1.17c-1.16-.25-1.98-1.27-1.98-2.45V9.95c0-.25.17-.46.41-.5l2.9-.49 3.91-2.45Zm.26 1.01L8.25 9.91c-.06.03-.12.05-.19.06l-2.59.43v4.45c0 .7.49 1.31 1.18 1.46l5.31 1.13 5.31-1.14c.69-.15 1.18-.76 1.18-1.47v-4.46l-2.59-.44c-.07-.02-.13-.04-.19-.07l-3.74-2.34Z"/><path d="M12.5 7v11.5h-1V7h1Z"/><path d="M1.5 12c0-1.39 1.11-2.5 2.5-2.5h1c.27 0 .5.22.5.5v5.5c0 .27-.23.5-.5.5H4c-1.39 0-2.5-1.12-2.5-2.5V12ZM4 10.5c-.83 0-1.5.67-1.5 1.5v1.5c0 .82.67 1.5 1.5 1.5h.5v-4.5H4Z"/><path d="M22.5 12c0-1.39-1.12-2.5-2.5-2.5h-1c-.28 0-.5.22-.5.5v5.5c0 .27.22.5.5.5h1c1.38 0 2.5-1.12 2.5-2.5V12ZM20 10.5c.82 0 1.5.67 1.5 1.5v1.5c0 .82-.68 1.5-1.5 1.5h-.5v-4.5h.5Z"/></g></svg>