<svg viewBox="0 0 24 24" xmlns="http://www.w3.org/2000/svg"><g fill-rule="evenodd"><path d="M17.64 1.64c.19-.2.51-.2.7 0l4 4c.19.19.19.51 0 .7l-2 2c-.2.19-.52.19-.71 0l-4-4c-.2-.2-.2-.52 0-.71l2-2Zm-.94 2.35l3.29 3.29 1.29-1.3 -3.3-3.3 -1.3 1.29Z"/><path d="M7.64 12.64l8.49-8.5 .7.7 -8.36 8.35v2.29h2.29l8.35-8.36 .7.7 -8.5 8.5c-.1.09-.23.14-.36.14h-3c-.28 0-.5-.23-.5-.5v-3c0-.14.05-.26.14-.36Z"/><path d="M4.64 18.64l3-3 .7.7 -3 3 -.71-.71Z"/><path d="M3.64 17.64c.19-.2.51-.2.7 0l2 2c.19.19.19.51 0 .7l-2 2c-.2.19-.52.19-.71 0l-2-2c-.2-.2-.2-.52-.001-.71l2-2Zm-.94 2.35l1.29 1.29 1.29-1.3 -1.3-1.3 -1.3 1.29Z"/><path d="M14.35 6.64l3 3 -.71.7 -3-3.01 .7-.71Z"/></g></svg>