<svg viewBox="0 0 24 24" xmlns="http://www.w3.org/2000/svg"><g fill-rule="evenodd"><path d="M4.99 9.5c0-4.46 3.6-8.03 8-8.03 4.398-.001 8 3.57 8 8.02 0 2.29-.97 4.36-2.51 5.82 -.01 0-.01.01-.01.01 -.01 0-.01 0-.01 0l.45 4.12c.05.52-.28 1.02-.78 1.13l-7.51 1.76c-.59.13-1.16-.3-1.22-.92l-.18-1.94H6.94c-.83 0-1.5-.71-1.5-1.57v-2.42l-1.53-.39c-.62-.16-.94-.86-.68-1.46l1.7-3.84c-.01-.13-.01-.25-.01-.37Zm8-6.98c-3.89 0-7.01 3.14-7.01 6.97 0 .15 0 .3.01.45 0 .13-.04.25-.11.35l-1.71 3.83 1.52.38c.44.11.76.53.76 1.01v2.42c0 .28.22.52.5.52h2.27c.51 0 .94.4.99.94l.17 1.93 7.5-1.77 -.46-4.13c-.04-.36.09-.69.33-.91 1.34-1.28 2.17-3.08 2.17-5.06 0-3.84-3.12-6.98-7-6.98Z"/><path d="M13 5.97V1.99h1v4.5c0 .28-.23.52-.5.52h-1.68c-.12 0-.24-.05-.33-.13 -.27-.24-.62-.38-1-.38 -.85 0-1.5.68-1.5 1.47 0 .79.65 1.47 1.5 1.47 .38 0 .73-.15 1-.38 .09-.08.2-.13.32-.13h1.67c.27 0 .5.23.5.52v2.97h1.69c-.13-.31-.2-.64-.2-.98 0-1.42 1.13-2.53 2.5-2.53h2.5v1.04h-2.5c-.85 0-1.5.68-1.5 1.47 0 .43.18.82.5 1.1 .16.14.21.37.14.57 -.08.2-.26.34-.47.34h-3.18c-.28 0-.5-.24-.5-.53V9.92h-1.01c-.42.31-.94.5-1.5.5 -1.37 0-2.5-1.11-2.5-2.53 0-1.42 1.13-2.53 2.5-2.53 .55 0 1.07.18 1.49.5h1Z"/></g></svg>