<svg viewBox="0 0 24 24" xmlns="http://www.w3.org/2000/svg"><g fill-rule="evenodd"><path d="M9.63 22.36c.09.1.22.16.36.16h4c.13 0 .26-.06.36-.17 .09-.11.14-.25.13-.39l-.5-11.91 1.47-4.92c.04-.16.01-.34-.08-.47 -.1-.14-.25-.22-.41-.22h-2c-.19 0-.36.1-.45.28l-2.5 5c-.04.06-.06.14-.06.21l-.51 12c-.01.14.04.28.13.38Zm.88-.89l.47-11.34 2.3-4.62h1.01l-1.3 4.32c-.02.05-.03.11-.03.17l.47 11.45h-2.96Z"/><path d="M11 3.04c0-.87.67-1.57 1.5-1.57h3c.27 0 .5.23.5.52v3c0 .28-.23.52-.5.52h-3c-.83 0-1.5-.71-1.5-1.57v-.92Zm1.5-.53c-.28 0-.5.23-.5.52v.91c0 .28.22.52.5.52H15V2.5h-2.5Z"/><path d="M8.5 2.97h3v1.04h-3V2.96Z"/></g></svg>