<svg viewBox="0 0 24 24" xmlns="http://www.w3.org/2000/svg"><g fill-rule="evenodd"><path d="M4.5 3.56c0-1.16.89-2.09 2-2.09 1.1 0 2 .93 2 2.08v10.43c0 .28-.23.52-.5.52H5c-.28 0-.5-.24-.5-.53V3.53Zm2-1.05c-.56 0-1 .46-1 1.04v9.91h2V3.54c0-.58-.45-1.05-1-1.05Z"/><path d="M14.5 20.43c0 1.15.89 2.08 2 2.08 1.1 0 2-.94 2-2.09V9.98c0-.29-.23-.53-.5-.53h-3c-.28 0-.5.23-.5.52V20.4Zm2 1.04c-.56 0-1-.47-1-1.05V10.5h2v9.913c0 .57-.45 1.04-1 1.04Z"/><path d="M16.21 1.52l1.96.98c.8.4 1.31 1.25 1.31 2.18 0 1-.6 1.9-1.49 2.25l-1.02.4v2.64h-1v-3c0-.22.12-.41.32-.49l1.33-.54c.51-.21.84-.72.84-1.29 0-.53-.3-1.02-.75-1.25l-1.97-.99 .43-.95Z"/><path d="M9 17.52c-1.13 0-2 .9-2 1.97 0 1.07.87 1.97 2 1.97 1.12 0 2-.91 2-1.98 0-1.08-.88-1.98-2-1.98Zm-3 1.97c0-1.69 1.36-3.03 3-3.03 1.63 0 3 1.33 3 3.02 0 1.68-1.37 3.02-3 3.02 -1.64 0-3-1.34-3-3.03Z"/><path d="M6 19.5V14h1v5.5H6Z"/></g></svg>