<svg viewBox="0 0 24 24" xmlns="http://www.w3.org/2000/svg"><g fill-rule="evenodd"><path d="M6 2.52c-.83 0-1.5.7-1.5 1.56V19.9c0 .86.67 1.56 1.5 1.56h12c.82 0 1.5-.71 1.5-1.57V8.96c0-.47-.21-.92-.55-1.21l-5.72-4.9c-.27-.24-.61-.36-.96-.36H5.98ZM3.5 4.08c0-1.45 1.11-2.61 2.5-2.61h6.28c.57 0 1.13.2 1.58.59l5.71 4.89c.57.49.91 1.23.91 2.01v10.92c0 1.44-1.12 2.6-2.5 2.6h-12c-1.39 0-2.5-1.17-2.5-2.61V4.04Z"/><path d="M12.5 5.91V2.49h1V5.9c0 .86.67 1.56 1.5 1.56h4.5V8.5H15c-1.39 0-2.5-1.17-2.5-2.61Z"/><path d="M8 9V5h1v4H8Z"/><path d="M10.5 7.52h-4V6.47h4v1.04Z"/><path d="M17.5 13.02h-11v-1.05h11v1.04Z"/><path d="M17.5 16.02h-11v-1.05h11v1.04Z"/><path d="M17.5 19.02h-11v-1.05h11v1.04Z"/></g></svg>