<svg viewBox="0 0 24 24" xmlns="http://www.w3.org/2000/svg"><g fill-rule="evenodd"><path d="M8.5 7.21c0-3.17 2.46-5.74 5.5-5.74h2c3.03 0 5.5 2.56 5.5 5.73v2.71c0 1.45-.54 2.86-1.5 3.92l-2.22 2.46c-.52.56-.8 1.31-.8 2.09 0 2.26-1.77 4.1-3.94 4.1h-.57c-2.21 0-4-1.87-4-4.18V7.16Zm5.5-4.7c-2.49 0-4.5 2.1-4.5 4.69v11.13c0 1.72 1.34 3.13 3 3.13h.56c1.61 0 2.93-1.38 2.93-3.07 0-1.05.38-2.05 1.06-2.81l2.21-2.47c.78-.88 1.21-2.03 1.21-3.22V7.17c0-2.6-2.02-4.7-4.5-4.7h-2Z"/><path d="M11 7.66c0-1.76 1.36-3.19 3.05-3.19h.69c2.07 0 3.75 1.75 3.75 3.91v.33c0 1.28-.56 2.49-1.51 3.29l-1.02.85c-.51.43-.87 1.02-1.03 1.68l-.49 2.05c-.2.82-.9 1.39-1.72 1.39 -.98 0-1.77-.83-1.77-1.84v-2.65c0-.51.23-.98.62-1.28l.95-.72c.26-.2.41-.52.41-.85v-.72c0-.41-.23-.77-.57-.95l-.86-.43c-.36-.18-.58-.55-.58-.96Zm3.05-2.15c-1.14 0-2.06.95-2.06 2.14 0 0 0 0 0 .01l.85.42c.69.34 1.13 1.07 1.13 1.88v.71c0 .67-.31 1.3-.84 1.69l-.96.71c-.14.09-.21.25-.21.42v2.64c0 .43.34.79.76.79 .35 0 .65-.25.73-.61l.48-2.06c.2-.89.68-1.68 1.36-2.25l1.01-.86c.71-.61 1.13-1.53 1.13-2.49v-.34c0-1.59-1.24-2.87-2.75-2.87h-.7Z"/><path d="M4.6 6.67c.15-.22.44-.27.66-.12l1.5 1 -.54.87 -1.12-.75 -1.22 1.62c-.16.21-.45.26-.67.11l-1.5-1 .53-.88 1.11.74 1.21-1.63Z"/><path d="M4.6 10.67c.15-.22.44-.27.66-.12l1.5 1 -.54.87 -1.12-.75 -1.22 1.62c-.16.21-.45.26-.67.11l-1.5-1 .53-.88 1.11.74 1.21-1.63Z"/><path d="M4.6 14.67c.15-.22.44-.27.66-.12l1.5 1 -.54.87 -1.12-.75 -1.22 1.62c-.16.21-.45.26-.67.11l-1.5-1 .53-.88 1.11.74 1.21-1.63Z"/></g></svg>