<svg viewBox="0 0 24 24" xmlns="http://www.w3.org/2000/svg"><g fill-rule="evenodd"><path d="M1.5 2c0-.28.22-.5.5-.5h12c.27 0 .5.22.5.5v9.5c0 .27-.23.5-.5.5H2c-.28 0-.5-.23-.5-.5V2Zm1 .5V11h11V2.5h-11Z"/><path d="M13.5 2c0-.28.22-.5.5-.5h8c.27 0 .5.22.5.5v9.5c0 .27-.23.5-.5.5h-8c-.28 0-.5-.23-.5-.5V2Zm1 .5V11h7V2.5h-7Z"/><path d="M4.5 22.5c-.28 0-.5-.23-.5-.5v-4c0-.28.22-.5.5-.5H11c.15 0 .3.07.4.2l1.5 2c.13.17.13.42 0 .6l-1.5 2c-.1.12-.25.2-.4.2H4.5Zm.5-1h5.75l1.125-1.5 -1.125-1.5H5v3Z"/><path d="M4.5 11c-.28 0-.5.22-.5.5v.5c0 1.93 1.56 3.5 3.5 3.5h10c1.1 0 2 .89 2 2 0 1.1-.9 2-2 2h-5c-.28 0-.5.22-.5.5 0 .27.22.5.5.5h5c1.65 0 3-1.35 3-3 0-1.66-1.35-3-3-3h-10C6.11 14.5 5 13.38 5 12v-.5c0-.28-.23-.5-.5-.5Z"/><path d="M18 5.5c-.83 0-1.5.67-1.5 1.5 0 .82.67 1.5 1.5 1.5 .82 0 1.5-.68 1.5-1.5 0-.83-.68-1.5-1.5-1.5ZM15.5 7c0-1.39 1.11-2.5 2.5-2.5 1.38 0 2.5 1.11 2.5 2.5 0 1.38-1.12 2.5-2.5 2.5 -1.39 0-2.5-1.12-2.5-2.5Z"/></g></svg>