<svg viewBox="0 0 24 24" xmlns="http://www.w3.org/2000/svg"><g fill-rule="evenodd"><path d="M11.89 6.51c.06-.02.14-.02.2 0l7 1.5c.23.04.39.25.39.48v8c0 .23-.17.43-.4.48l-7 1.5c-.07.01-.15.01-.21 0l-7-1.5c-.24-.05-.4-.26-.4-.49v-8c0-.24.16-.44.39-.49l6.99-1.5ZM5.49 8.9v7.19l6.5 1.39 6.5-1.4v-7.2l-6.5-1.4 -6.5 1.39Z"/><path d="M16.5 11.5h-9v-1h9v1Z"/><path d="M16.5 14.5h-9v-1h9v1Z"/><path d="M1.5 12c0-1.39 1.11-2.5 2.5-2.5h1c.27 0 .5.22.5.5v5.5c0 .27-.23.5-.5.5H4c-1.39 0-2.5-1.12-2.5-2.5V12ZM4 10.5c-.83 0-1.5.67-1.5 1.5v1.5c0 .82.67 1.5 1.5 1.5h.5v-4.5H4Z"/><path d="M22.5 12c0-1.39-1.12-2.5-2.5-2.5h-1c-.28 0-.5.22-.5.5v5.5c0 .27.22.5.5.5h1c1.38 0 2.5-1.12 2.5-2.5V12ZM20 10.5c.82 0 1.5.67 1.5 1.5v1.5c0 .82-.68 1.5-1.5 1.5h-.5v-4.5h.5Z"/></g></svg>