<svg viewBox="0 0 24 24" xmlns="http://www.w3.org/2000/svg"><g fill-rule="evenodd"><path d="M7 3.5c0-1.12.86-2.03 1.93-2.03h6.125c1.07 0 1.93.9 1.93 2.02 0 1.11-.87 2.02-1.94 2.02H8.92c-1.08 0-1.94-.91-1.94-2.03Zm1.93-.98c-.52 0-.94.43-.94.97s.41.97.93.97h6.125c.51 0 .93-.44.93-.98 0-.55-.42-.98-.94-.98H8.91Z"/><path d="M8.5 5c0-.29.22-.53.5-.53h6c.27 0 .5.23.5.52v3.34c2.37 1.25 4 3.75 4 6.65 0 4.17-3.38 7.52-7.5 7.52 -4.13 0-7.5-3.35-7.5-7.53 0-2.9 1.62-5.4 4-6.66V4.96Zm1 .52v3.15c0 .2-.12.39-.3.47 -2.21 1.04-3.71 3.28-3.71 5.85 0 3.55 2.88 6.47 6.5 6.47 3.61 0 6.5-2.93 6.5-6.48 0-2.58-1.51-4.81-3.71-5.86 -.18-.09-.3-.28-.3-.48V5.48h-5Z"/></g></svg>