<svg viewBox="0 0 24 24" xmlns="http://www.w3.org/2000/svg"><g fill-rule="evenodd"><path d="M7 3.5c0-1.12.86-2.03 1.93-2.03h6.125c1.07 0 1.93.9 1.93 2.02 0 1.11-.87 2.02-1.94 2.02H8.92c-1.08 0-1.94-.91-1.94-2.03Zm1.93-.98c-.52 0-.94.43-.94.97s.41.97.93.97h6.125c.51 0 .93-.44.93-.98 0-.55-.42-.98-.94-.98H8.91Z"/><path d="M8.5 5c0-.29.22-.53.5-.53h5.99c.27 0 .5.23.5.52v4.87l4.03 8.07c1.04 2.08-.41 4.57-2.66 4.57H7.1c-2.26 0-3.71-2.5-2.66-4.58l4.03-8.08V4.96Zm1 .52v4.47c0 .08-.02.16-.06.24l-4.1 8.18c-.7 1.38.27 3.05 1.77 3.05h9.75c1.5 0 2.46-1.67 1.77-3.06l-4.1-8.19c-.04-.08-.06-.16-.06-.25V5.48h-5Z"/></g></svg>