<svg viewBox="0 0 24 24" xmlns="http://www.w3.org/2000/svg"><g fill-rule="evenodd"><path d="M13.29 20.16c-.75.66-1.85.66-2.6 0L9.39 19c-.9-.8-1.41-1.96-1.41-3.18V8.15c0-1.23.51-2.39 1.4-3.18l1.29-1.16c.74-.67 1.84-.67 2.59 0l1.29 1.15c.89.79 1.4 1.95 1.4 3.17v7.66c0 1.22-.52 2.38-1.41 3.17l-1.3 1.15Zm-3.25.79c1.12.99 2.76.99 3.89 0l1.29-1.16c1.11-1 1.75-2.45 1.75-3.98V8.14c0-1.53-.65-2.99-1.76-3.98L13.91 3c-1.13-1-2.77-1-3.9-.01l-1.3 1.15c-1.12.99-1.76 2.44-1.76 3.97v7.66c0 1.52.64 2.98 1.75 3.97l1.29 1.15Z"/><path d="M13.5 9v5.99h1v-6c0-1.43-.56-2.79-1.55-3.77l-.12-.12 -.7.75 .11.11c.78.78 1.23 1.87 1.23 3.01Z"/></g></svg>