<svg viewBox="0 0 24 24" xmlns="http://www.w3.org/2000/svg"><g fill-rule="evenodd"><path d="M4 2.52c-.83 0-1.5.7-1.5 1.56V19.9c0 .86.67 1.56 1.5 1.56h7.5v1.04H4c-1.39 0-2.5-1.17-2.5-2.61V4.06c0-1.45 1.11-2.61 2.5-2.61h4.74c.6-.001 1.19.23 1.64.64l4.75 4.35c.54.49.85 1.2.85 1.95v1.05h-1V8.38c0-.46-.19-.88-.51-1.18L9.71 2.84c-.28-.26-.63-.39-.99-.39H3.97Z"/><path d="M9 5.41V2.49h1V5.4c0 .86.67 1.56 1.5 1.56H15V8h-3.5C10.11 8 9 6.83 9 5.39Z"/><path d="M14.5 12c0-.29.22-.53.5-.53h4c.27 0 .5.23.5.52v2.47H22c.27 0 .5.23.5.52v4c0 .28-.23.52-.5.52h-2.5v2.47c0 .28-.23.52-.5.52h-4c-.28 0-.5-.24-.5-.53v-2.48H12c-.28 0-.5-.24-.5-.53v-4c0-.29.22-.53.5-.53h2.5v-2.48Zm1 .52v2.47c0 .28-.23.52-.5.52h-2.5v2.95H15c.27 0 .5.23.5.52v2.47h3v-2.48c0-.29.22-.53.5-.53h2.5v-2.96H19c-.28 0-.5-.24-.5-.53v-2.48h-3Z"/></g></svg>