<svg viewBox="0 0 24 24" xmlns="http://www.w3.org/2000/svg"><g fill-rule="evenodd"><path d="M11.16 14.65c-.19-.28-.55-.36-.83-.2l-4.85 2.82v3.71h10.31l4.63-3.86c.43-.37.46-1.02.06-1.42 -.34-.34-.85-.38-1.24-.11l-4 2.79c-.09.05-.19.09-.29.09h-5c-.19 0-.36-.11-.45-.27 -.09-.17-.08-.36.02-.52l1.58-2.38c.13-.21.13-.49 0-.69Zm-1.34-1.06c.74-.44 1.68-.22 2.16.5 .36.54.36 1.25 0 1.79l-1.07 1.6h3.9l3.86-2.71c.78-.55 1.83-.46 2.51.22 .81.81.75 2.15-.14 2.89l-4.77 3.97c-.09.07-.21.11-.33.11h-11c-.28 0-.5-.23-.5-.5v-4.5c0-.18.09-.35.24-.44l5.08-2.97Z"/><path d="M1.5 15.5c0-.28.22-.5.5-.5h3c.27 0 .5.22.5.5V22c0 .27-.23.5-.5.5H2c-.28 0-.5-.23-.5-.5v-6.5Zm1 .5v5.5h2V16h-2Z"/><path d="M12 2.71c1.37-1.05 3.34-.95 4.59.3 1.36 1.36 1.36 3.58 0 4.94l-4.25 4.24c-.1.09-.23.14-.36.14 -.14 0-.26-.06-.36-.15L7.37 7.93C6 6.56 6 4.34 7.37 2.98c1.25-1.26 3.22-1.36 4.59-.31Zm3.88 1.01c-.98-.98-2.56-.98-3.54 0 -.2.19-.52.19-.71 0 -.98-.98-2.56-.98-3.54 0 -.98.97-.98 2.55 0 3.53l3.88 3.88 3.88-3.89c.97-.98.97-2.56 0-3.54Z"/></g></svg>