<svg viewBox="0 0 24 24" xmlns="http://www.w3.org/2000/svg"><g fill-rule="evenodd"><path d="M6.5 12c0-1.94 1.56-3.5 3.5-3.5h4.49c2.86 0 5.32 2.01 5.88 4.82L21 16.5c.3 1.54-.88 2.99-2.46 2.99h-6.07c-3.32 0-6-2.69-6-6v-1.5ZM10 9.5c-1.39 0-2.5 1.11-2.5 2.5v1.5c0 2.76 2.23 5 5 5h6.06c.94 0 1.65-.87 1.47-1.8l-.64-3.19c-.47-2.34-2.52-4.02-4.91-4.02h-4.5Z"/><path d="M14 3.5c-1.94 0-3.5 1.56-3.5 3.5v2h-1V7c0-2.49 2.01-4.5 4.5-4.5h3c.27 0 .5.22.5.5v3c0 .27-.23.5-.5.5h-2.5c-.56 0-1 .44-1 1V9h-1V7.5c0-1.11.89-2 2-2h2v-2H14Z"/><path d="M6 5.5c1.93 0 3.5 1.56 3.5 3.5h1c0-2.49-2.02-4.5-4.5-4.5H3c-.28 0-.5.22-.5.5v3c0 .27.22.5.5.5h2.5c.55 0 1 .44 1 1v4h1v-4c0-1.11-.9-2-2-2h-2v-2H6Z"/><path d="M10.5 21c0 .27-.23.5-.5.5H7c-.28 0-.5-.23-.5-.5v-8.5h1v8h2v-2h1V21Z"/></g></svg>