<svg viewBox="0 0 24 24" xmlns="http://www.w3.org/2000/svg"><g fill-rule="evenodd"><path d="M19.87 5.07c-2.07-2.01-5.37-2.1-7.55-.29 -.1.08-.22.11-.34.11 -.12 0-.24-.04-.34-.12 -2.19-1.82-5.49-1.73-7.55.28 -2.06 1.99-2.16 5.17-.3 7.27 .02.02.03.04.05.07l8.11 7.87 8.11-7.88c.01-.03.03-.06.05-.08 1.86-2.11 1.76-5.29-.3-7.28Zm1.12 7.83c2.12-2.51 1.98-6.22-.44-8.56 -2.35-2.28-6.02-2.47-8.58-.58 -2.57-1.89-6.24-1.7-8.58.57 -2.42 2.33-2.56 6.05-.44 8.55 .02.05.05.1.1.14l8.55 8.3c.19.18.5.18.69 0l8.55-8.31c.04-.05.07-.09.1-.15Z"/><path d="M8 5.5c.2 0 .38.12.46.31l3.52 8.8 2.54-6.8c.06-.18.22-.3.41-.33 .18-.03.36.06.47.21l1.85 2.77h4.23v1h-4.5c-.17 0-.33-.09-.42-.23L15.1 9.04l-2.66 7.08c-.08.19-.26.32-.47.32 -.21 0-.4-.13-.47-.32L7.96 7.28l-1.54 3.83c-.08.18-.26.31-.47.31h-3.5v-1h3.16l1.87-4.69c.07-.19.25-.32.46-.32Z"/></g></svg>