<svg viewBox="0 0 24 24" xmlns="http://www.w3.org/2000/svg"><g fill-rule="evenodd"><path d="M6.31 20.52c-2.66 0-4.82-2.25-4.82-5.03 0-2.78 2.15-5.03 4.81-5.03h5.68c.27 0 .5.23.5.52v9c0 .28-.23.52-.5.52H6.29Zm-3.82-5.03c0 2.19 1.7 3.97 3.81 3.97h5.18V11.5H6.29c-2.11 0-3.82 1.78-3.82 3.97Z"/><path d="M17.68 20.52c2.65 0 4.81-2.25 4.81-5.03 0-2.78-2.16-5.03-4.82-5.03h-5.69c-.28 0-.5.23-.5.52v9c0 .28.22.52.5.52h5.68Zm3.81-5.03c0 2.19-1.71 3.97-3.82 3.97h-5.19V11.5h5.18c2.1 0 3.81 1.78 3.81 3.97Z"/><path d="M6.5 14.02c-.85 0-1.5.68-1.5 1.47H4c0-1.42 1.13-2.53 2.5-2.53V14Z"/><path d="M7 4c0-.29.22-.53.5-.53h3c1.93 0 3.5 1.63 3.5 3.65v.86c0 .28-.23.52-.5.52h-3C8.56 8.5 7 6.86 7 4.84v-.87Zm1 .52v.34c0 1.44 1.11 2.6 2.5 2.6H13v-.35c0-1.45-1.12-2.61-2.5-2.61H8Z"/><path d="M15.5 6.02c-.83 0-1.5.7-1.5 1.56v.41h-1v-.42c0-1.45 1.11-2.61 2.5-2.61h1V6h-1Z"/></g></svg>