<svg viewBox="0 0 24 24" xmlns="http://www.w3.org/2000/svg"><g fill-rule="evenodd"><path d="M2.5 10c0-.28.22-.5.5-.5h18c.27 0 .5.22.5.5 0 4.74-4.32 8.5-9.5 8.5 -5.19 0-9.5-3.76-9.5-8.5Zm1.01.5c.29 3.86 3.92 7 8.48 7 4.55 0 8.19-3.14 8.48-7H3.5Z"/><path d="M8.5 17.5v2c0 .27.22.5.5.5h6c.27 0 .5-.23.5-.5v-2h1v2c0 .82-.68 1.5-1.5 1.5H9c-.83 0-1.5-.68-1.5-1.5v-2h1Z"/><path d="M20 4c-.83 0-1.5.67-1.5 1.5 0 .08 0 .15.01.23 .02.17-.04.34-.18.46l-3.97 3.3h2.41l2.4-2.41c.12-.13.29-.18.46-.14 .1.02.22.03.33.03 .82 0 1.5-.68 1.5-1.5 0-.83-.68-1.5-1.5-1.5Zm-2.5 1.5C17.5 4.11 18.61 3 20 3c1.38 0 2.5 1.11 2.5 2.5C22.5 6.88 21.38 8 20 8c-.1 0-.19-.01-.28-.02l-2.37 2.36c-.1.09-.23.14-.36.14h-4c-.22 0-.4-.14-.48-.33 -.08-.2-.02-.42.15-.56l4.82-4.02c-.01-.04-.01-.07-.01-.1Z"/></g></svg>