<svg viewBox="0 0 24 24" xmlns="http://www.w3.org/2000/svg"><g fill-rule="evenodd"><path d="M2.5 10c0-.29.22-.53.5-.53h18c.27 0 .5.23.5.52 0 4.78-4.34 8.52-9.5 8.52 -5.17 0-9.5-3.74-9.5-8.53Zm1.02.52c.3 3.82 3.91 6.95 8.47 6.95 4.56 0 8.17-3.14 8.47-6.96H3.5Z"/><path d="M8.5 17.5v1.95c0 .28.22.52.5.52h6c.27 0 .5-.24.5-.53v-1.96h1v1.95c0 .86-.68 1.56-1.5 1.56H9c-.83 0-1.5-.71-1.5-1.57v-1.96h1Z"/><path d="M20 4.02c-.85 0-1.5.68-1.5 1.47 0 .07 0 .15.01.22 .02.18-.05.37-.19.49l-3.91 3.25h2.37l2.4-2.41c.12-.13.29-.18.45-.14 .1.02.22.03.34.03 .84 0 1.5-.69 1.5-1.48 0-.8-.66-1.48-1.5-1.48Zm-2.5 1.47c0-1.42 1.13-2.53 2.5-2.53 1.36 0 2.5 1.1 2.5 2.52C22.5 6.89 21.36 8 20 8c-.1 0-.19-.01-.29-.02l-2.38 2.37c-.1.09-.22.14-.35.14h-4c-.22 0-.41-.14-.48-.35 -.08-.21-.01-.45.15-.59l4.81-4.02c-.01-.03-.01-.06-.01-.09Z"/><path d="M11.5 16v-4h1v4h-1Z"/><path d="M14 14.52h-4v-1.05h4v1.04Z"/><path d="M3.5 3.5c0-.29.22-.53.5-.53h3c1.93 0 3.5 1.63 3.5 3.65v.86c0 .28-.23.52-.5.52H7C5.06 8 3.5 6.36 3.5 4.34v-.87Zm1 .52v.34c0 1.44 1.11 2.6 2.5 2.6h2.5v-.35C9.5 5.16 8.38 4 7 4H4.5Z"/><path d="M12 5.52c-.83 0-1.5.7-1.5 1.56v.41h-1v-.42c0-1.45 1.11-2.61 2.5-2.61h1V5.5h-1Z"/></g></svg>