<svg viewBox="0 0 24 24" xmlns="http://www.w3.org/2000/svg"><g fill-rule="evenodd"><path d="M1.5 2c0-.29.22-.53.5-.53h20c.27 0 .5.23.5.52v20c0 .28-.23.52-.5.52H2c-.28 0-.5-.24-.5-.53v-20Zm1 .52v18.95h19V2.51h-19Z"/><path d="M5.5 5c0-.29.22-.53.5-.53h4c.27 0 .5.23.5.52v4.47h3V4.98c0-.29.22-.53.5-.53h4c.27 0 .5.23.5.52v14c0 .28-.23.52-.5.52h-4c-.28 0-.5-.24-.5-.53v-4.48h-3v4.47c0 .28-.23.52-.5.52H6c-.28 0-.5-.24-.5-.53v-14Zm1 .52v12.95h3v-4.48c0-.29.22-.53.5-.53h4c.27 0 .5.23.5.52v4.47h3V5.49h-3v4.47c0 .28-.23.52-.5.52h-4c-.28 0-.5-.24-.5-.53V5.47h-3Z"/></g></svg>