<svg viewBox="0 0 24 24" xmlns="http://www.w3.org/2000/svg"><g fill-rule="evenodd"><path d="M11.15 2.42c.39-.66 1.3-.66 1.69 0l1.69 2.82c.63 1.05.83 2.33.56 3.55l-.54 2.4 .5.25c.86.43 1.41 1.34 1.41 2.35v8.18c0 .28-.23.52-.5.52h-8c-.28 0-.5-.24-.5-.53v-8.19c0-1.01.55-1.92 1.41-2.36l.5-.26 -.54-2.41c-.28-1.22-.07-2.5.56-3.56l1.69-2.83Zm2.54 3.37l-1.7-2.83 -1.7 2.82c-.5.82-.66 1.81-.45 2.76l.62 2.81c.05.23-.06.48-.28.58l-.87.43c-.53.26-.86.8-.86 1.41v7.66h7v-7.67c0-.61-.34-1.16-.86-1.42l-.87-.44c-.22-.11-.33-.36-.28-.59l.62-2.82c.21-.95.05-1.95-.45-2.77Z"/><path d="M12.5 15.5v4h-1v-4h1Z"/><path d="M10 16.97h4v1.04h-4v-1.05Z"/></g></svg>