<svg viewBox="0 0 24 24" xmlns="http://www.w3.org/2000/svg"><g fill-rule="evenodd"><path d="M9.86 9.03c-1.1-.82-2.58-.78-3.63.09l-2.97 2.46 8.72.87 8.72-.88 -2.97-2.47c-1.06-.88-2.54-.92-3.63-.1l-.39.29c-1.05.78-2.46.78-3.51 0l-.39-.3Zm-4.25-.72c1.4-1.17 3.37-1.22 4.83-.13l.38.29c.69.52 1.63.52 2.33 0l.38-.3c1.45-1.1 3.42-1.04 4.83.12l3.92 3.27c.15.13.22.35.16.55 -.06.2-.23.35-.44.37l-10 1c-.04 0-.07 0-.1 0l-10-1c-.21-.03-.38-.17-.44-.38s0-.43.16-.56l3.92-3.28Z"/><path d="M1.55 11.75c.09-.19.28-.3.48-.28l9.95.99 9.95-1c.2-.03.39.08.49.27 .09.18.07.41-.06.57L20 15.23c-1.14 1.42-2.83 2.24-4.61 2.24H8.53c-1.78 0-3.47-.83-4.61-2.25l-2.36-2.94c-.13-.17-.16-.4-.06-.58Zm1.6.88l1.57 1.96c.94 1.18 2.35 1.87 3.83 1.87h6.85c1.48 0 2.88-.69 3.83-1.88l1.57-1.97 -8.79.87c-.04 0-.07 0-.1 0l-8.79-.88Z"/></g></svg>