<svg viewBox="0 0 24 24" xmlns="http://www.w3.org/2000/svg"><g fill-rule="evenodd"><path d="M3.58 5.2c.09-.15.24-.23.41-.23h8c.16 0 .31.08.41.22l2 3c.05.08.08.19.08.29v13.5c0 .28-.23.52-.5.52h-12c-.28 0-.5-.24-.5-.53V8.47c0-.11.03-.22.08-.3l2-3Zm.67.81L2.48 8.65v12.81h11V8.64l-1.77-2.65H4.23Z"/><path d="M7.5 17v-5h1v5h-1Z"/><path d="M10.5 15.02h-5v-1.05h5v1.04Z"/><path d="M3.5 2c0-.29.22-.53.5-.53h8c.27 0 .5.23.5.52v3.5c0 .28-.23.52-.5.52H4c-.28 0-.5-.24-.5-.53v-3.5Zm1 .52v2.45h7V2.51h-7Z"/><path d="M19 3.52c-1.33 0-2.5 1.27-2.5 2.97 0 1.7 1.17 2.97 2.5 2.97 1.32 0 2.5-1.28 2.5-2.98 0-1.71-1.18-2.98-2.5-2.98Zm-3.5 2.97c0-2.17 1.51-4.03 3.5-4.03 1.98-.001 3.5 1.85 3.5 4.02 0 2.16-1.52 4.02-3.5 4.02 -1.99 0-3.5-1.86-3.5-4.03Z"/><path d="M18.5 22V10h1v12h-1Z"/></g></svg>