<svg viewBox="0 0 24 24" xmlns="http://www.w3.org/2000/svg"><g fill-rule="evenodd"><path d="M4.5 5.5c0-.28.22-.5.5-.5h3.5v1h-3v15.5h13V6h-3V5H19c.27 0 .5.22.5.5V22c0 .27-.23.5-.5.5H5c-.28 0-.5-.23-.5-.5V5.5Z"/><path d="M12 2.5c-.56 0-1 .44-1 1V4c0 .27-.23.5-.5.5H9v2h6v-2h-1.5c-.28 0-.5-.23-.5-.5v-.5c0-.56-.45-1-1-1Zm-2 1c0-1.11.89-2 2-2 1.1 0 2 .89 2 2h1.5c.27 0 .5.22.5.5v3c0 .27-.23.5-.5.5h-7c-.28 0-.5-.23-.5-.5V4c0-.28.22-.5.5-.5H10Z"/><path d="M10.02 9.5c.21 0 .4.15.46.36l1.64 5.76 1.92-3.86c.08-.17.25-.28.44-.28 .18 0 .36.1.44.27l.86 1.72h1.19v1h-1.5c-.19 0-.37-.11-.45-.28l-.56-1.11 -2.06 4.1c-.1.18-.29.29-.5.27 -.21-.02-.38-.17-.44-.37l-1.59-5.55 -.97 2.58c-.08.19-.26.32-.47.32h-1.5v-1h1.15l1.37-3.68c.07-.21.27-.34.48-.33Z"/></g></svg>