<svg viewBox="0 0 24 24" xmlns="http://www.w3.org/2000/svg"><g fill-rule="evenodd"><path d="M4.5 5.5c0-.28.22-.5.5-.5h3.5v1h-3v15.5h13V6h-3V5H19c.27 0 .5.22.5.5V22c0 .27-.23.5-.5.5H5c-.28 0-.5-.23-.5-.5V5.5Z"/><path d="M12 2.5c-.56 0-1 .44-1 1V4c0 .27-.23.5-.5.5H9v2h6v-2h-1.5c-.28 0-.5-.23-.5-.5v-.5c0-.56-.45-1-1-1Zm-2 1c0-1.11.89-2 2-2 1.1 0 2 .89 2 2h1.5c.27 0 .5.22.5.5v3c0 .27-.23.5-.5.5h-7c-.28 0-.5-.23-.5-.5V4c0-.28.22-.5.5-.5H10Z"/><path d="M10 10c0-.28.22-.5.5-.5h3c.27 0 .5.22.5.5v2.5h2.5c.27 0 .5.22.5.5v3c0 .27-.23.5-.5.5H14V19c0 .27-.23.5-.5.5h-3c-.28 0-.5-.23-.5-.5v-2.5H7.5c-.28 0-.5-.23-.5-.5v-3c0-.28.22-.5.5-.5H10V10Zm1 .5V13c0 .27-.23.5-.5.5H8v2h2.5c.27 0 .5.22.5.5v2.5h2V16c0-.28.22-.5.5-.5H16v-2h-2.5c-.28 0-.5-.23-.5-.5v-2.5h-2Z"/></g></svg>