<svg viewBox="0 0 24 24" xmlns="http://www.w3.org/2000/svg"><g fill-rule="evenodd"><path d="M20.85 1.64c.09.09.14.22.14.35v6c0 .16-.09.32-.23.41l-3 1.99c-.16.1-.36.11-.52.02 -.17-.09-.27-.26-.27-.45v-8c0-.28.22-.5.5-.5h3c.13 0 .25.05.35.14Zm-.86.85h-2v6.56l2-1.34V2.47Z"/><path d="M17.5 1.5c.27 0 .5.22.5.5v20c0 .27-.23.5-.5.5h-14c-.28 0-.5-.23-.5-.5V2c0-.14.05-.26.14-.36 .09-.1.22-.15.35-.15h14Zm-.5 1H4v19h13v-19Z"/><path d="M15 7c.27 0 .5.22.5.5v3c0 .27-.23.5-.5.5h-2.5v2.5c0 .27-.23.5-.5.5H9c-.28 0-.5-.23-.5-.5V11H6c-.28 0-.5-.23-.5-.5v-3c0-.28.22-.5.5-.5h2.5V4.5c0-.28.22-.5.5-.5h3c.27 0 .5.22.5.5V7H15Zm-.5 1H12c-.28 0-.5-.23-.5-.5V5h-2v2.5c0 .27-.23.5-.5.5H6.5v2H9c.27 0 .5.22.5.5V13h2v-2.5c0-.28.22-.5.5-.5h2.5V8Z"/><path d="M15 17H6v-1h9v1Z"/><path d="M15 20H6v-1h9v1Z"/></g></svg>