<svg viewBox="0 0 24 24" xmlns="http://www.w3.org/2000/svg"><g fill-rule="evenodd"><path d="M17.27 3c.96-.97 2.49-.97 3.45 0l.1.1c1.02 1.02 1.02 2.73 0 3.76l-9.5 9.49c-.2.19-.5.19-.7 0l-3-3c-.1-.1-.16-.24-.16-.38 0-.15.05-.28.15-.38l9.61-9.62Zm2.76.75c-.59-.59-1.5-.59-2.08 0l-9.24 9.23 2.27 2.27 9.14-9.15c.61-.62.61-1.65 0-2.27l-.11-.11Z"/><path d="M5 16.52c-1.41 0-2.5 1.13-2.5 2.47 0 1.34 1.09 2.47 2.5 2.47 1.4 0 2.5-1.14 2.5-2.48 0-1.35-1.1-2.48-2.5-2.48Zm-3.5 2.47c0-1.97 1.58-3.53 3.5-3.53 1.91 0 3.5 1.55 3.5 3.52 0 1.96-1.59 3.52-3.5 3.52 -1.92 0-3.5-1.56-3.5-3.53Z"/><path d="M6.65 16.62l2.5-2.5 .69.75 -2.5 2.5 -.7-.76Z"/></g></svg>