<svg viewBox="0 0 24 24" xmlns="http://www.w3.org/2000/svg"><g fill-rule="evenodd"><path d="M5 16.5c-1.39 0-2.5 1.11-2.5 2.5 0 1.38 1.11 2.5 2.5 2.5 1.38 0 2.5-1.12 2.5-2.5 0-1.39-1.12-2.5-2.5-2.5ZM1.5 19c0-1.94 1.56-3.5 3.5-3.5 1.93 0 3.5 1.56 3.5 3.5 0 1.93-1.57 3.5-3.5 3.5 -1.94 0-3.5-1.57-3.5-3.5Z"/><path d="M19 16.5c-1.39 0-2.5 1.11-2.5 2.5 0 1.38 1.11 2.5 2.5 2.5 1.38 0 2.5-1.12 2.5-2.5 0-1.39-1.12-2.5-2.5-2.5ZM15.5 19c0-1.94 1.56-3.5 3.5-3.5 1.93 0 3.5 1.56 3.5 3.5 0 1.93-1.57 3.5-3.5 3.5 -1.94 0-3.5-1.57-3.5-3.5Z"/><path d="M8.64 1.64l-1.81 1.8c-1.11 1.1-.94 2.93.34 3.82l4.41 3.05 3.94 8.87 .91-.41 -4-9c-.04-.09-.1-.16-.18-.21L7.72 6.42c-.77-.54-.87-1.64-.21-2.3l1.8-1.81 -.71-.71Z"/><path d="M15.35 1.64l1.8 1.8c1.1 1.1.93 2.93-.35 3.82l-4.42 3.05 -3.95 8.87 -.92-.41 4-9c.03-.09.09-.16.17-.21l4.52-3.14c.76-.54.86-1.64.2-2.3l-1.81-1.81 .7-.71Z"/></g></svg>