<svg viewBox="0 0 24 24" xmlns="http://www.w3.org/2000/svg"><g fill-rule="evenodd"><path d="M16.38 2.74c2.45-.69 4.76 1.5 4.35 4.12l-1.99 12.6c-.19 1.18-1.17 2.05-2.32 2.05 -1.07 0-2.01-.76-2.28-1.84l-1.39-5.55c-.1-.37-.41-.62-.77-.62 -.37 0-.68.25-.77.61l-1.39 5.54c-.27 1.07-1.21 1.83-2.28 1.83 -1.16 0-2.14-.87-2.32-2.06L3.23 6.81C2.81 4.19 5.12 2 7.58 2.68l3.74 1.03c.42.11.86.11 1.28 0l3.74-1.04Zm3.36 3.95c.29-1.87-1.36-3.44-3.11-2.95l-3.75 1.03c-.59.16-1.22.16-1.81 0L7.32 3.73C5.56 3.24 3.91 4.8 4.21 6.67l1.98 12.6c.1.68.67 1.18 1.33 1.18 .61 0 1.15-.44 1.3-1.06l1.38-5.55c.2-.83.91-1.4 1.73-1.4 .81 0 1.53.57 1.73 1.39l1.38 5.54c.15.62.69 1.05 1.3 1.05 .66 0 1.22-.5 1.33-1.18l1.98-12.61Z"/><path d="M11.17 5.1l-.15-.44 .94-.35 .14.43c.5 1.51-.76 3.03-2.27 2.73l-.67-.14c-.62-.13-1.19.36-1.19 1.02v1.27c0 1.28-1.11 2.26-2.32 2.06l-1.27-.22 .15-1.04 1.26.21c.6.1 1.15-.39 1.15-1.04V8.31c0-1.32 1.14-2.3 2.37-2.05l.66.13c.75.15 1.38-.61 1.13-1.37Z"/></g></svg>