<svg viewBox="0 0 24 24" xmlns="http://www.w3.org/2000/svg"><g fill-rule="evenodd"><path d="M9.5 7c0-.28.22-.5.5-.5h4c.27 0 .5.22.5.5v2.5H17c.27 0 .5.22.5.5v4c0 .27-.23.5-.5.5h-2.5V17c0 .27-.23.5-.5.5h-4c-.28 0-.5-.23-.5-.5v-2.5H7c-.28 0-.5-.23-.5-.5v-4c0-.28.22-.5.5-.5h2.5V7Zm1 .5V10c0 .27-.23.5-.5.5H7.5v3H10c.27 0 .5.22.5.5v2.5h3V14c0-.28.22-.5.5-.5h2.5v-3H14c-.28 0-.5-.23-.5-.5V7.5h-3Z"/><path d="M11.85 1.52c.09-.03.19-.03.28 0l8.5 2.5c.21.06.35.25.35.47v9.64c0 1.94-1.04 3.75-2.72 4.74l-6.04 3.55c-.16.09-.36.09-.51 0l-6.04-3.56c-1.68-.99-2.72-2.8-2.72-4.75V4.46c0-.23.14-.42.35-.48l8.49-2.5ZM3.99 4.87v9.26c0 1.59.84 3.07 2.21 3.87l5.78 3.4 5.78-3.41c1.37-.81 2.21-2.29 2.21-3.88V4.84l-8-2.36 -8 2.35Z"/></g></svg>