<svg viewBox="0 0 24 24" xmlns="http://www.w3.org/2000/svg"><g fill-rule="evenodd"><path d="M6 14.52c-1.96 0-3.5 1.57-3.5 3.47 0 1.9 1.54 3.47 3.5 3.47 1.95 0 3.5-1.58 3.5-3.48 0-1.91-1.55-3.48-3.5-3.48Zm-4.5 3.47c0-2.52 2.03-4.53 4.5-4.53 2.46 0 4.5 2 4.5 4.52 0 2.51-2.04 4.52-4.5 4.52 -2.47 0-4.5-2.01-4.5-4.53Z"/><path d="M18 14.52c-1.96 0-3.5 1.57-3.5 3.47 0 1.9 1.54 3.47 3.5 3.47 1.95 0 3.5-1.58 3.5-3.48 0-1.91-1.55-3.48-3.5-3.48Zm-4.5 3.47c0-2.52 2.035-4.53 4.5-4.53s4.5 2 4.5 4.52c0 2.51-2.035 4.52-4.5 4.52s-4.5-2.01-4.5-4.53Z"/><path d="M18.376 2.34l-10.5 12.5 -.76-.69 10.5-12.5 .75.68Z"/><path d="M5.62 2.34l10.5 12.5 .75-.69 -10.5-12.5 -.76.68Z"/></g></svg>