<svg viewBox="0 0 24 24" xmlns="http://www.w3.org/2000/svg"><g fill-rule="evenodd"><path d="M10 9c0-1.94 1.56-3.5 3.5-3.5h3C18.43 5.5 20 7.06 20 9v5c0 3.58-2.92 6.5-6.5 6.5H9.23c-.84 0-1.58.51-1.88 1.29l-.15.37c-.08.19-.26.32-.47.32H4.48c-.28 0-.5-.23-.5-.5v-3.77c0-1.11.6-2.12 1.57-2.64l3.38-1.84c.64-.35 1.04-1.03 1.04-1.76V8.95Zm3.5-2.5C12.11 6.5 11 7.61 11 9v3.01c0 1.1-.61 2.11-1.58 2.63l-3.39 1.83c-.65.34-1.05 1.02-1.05 1.75v3.26h1.4l.02-.06c.43-1.18 1.55-1.95 2.8-1.95h4.26c3.03 0 5.5-2.47 5.5-5.5v-5c0-1.39-1.12-2.5-2.5-2.5h-3Z"/><path d="M5 2c0-.28.22-.5.5-.5h3c.27 0 .5.22.5.5v2c0 .82.67 1.5 1.5 1.5h2.83v1h-2.84c-1.39 0-2.5-1.12-2.5-2.5V2.5h-2V5c0 2.2 1.79 4 4 4h.33v1h-.34c-2.77 0-5-2.24-5-5V2Z"/></g></svg>