<svg viewBox="0 0 24 24" xmlns="http://www.w3.org/2000/svg"><g fill-rule="evenodd"><path d="M4.99 9.5c0-4.46 3.6-8.03 8-8.03 4.398-.001 8 3.57 8 8.02 0 2.29-.97 4.36-2.51 5.82 -.01 0-.01.01-.01.01 -.01 0-.01 0-.01 0l.45 4.12c.05.52-.28 1.02-.78 1.13l-7.51 1.76c-.59.13-1.16-.3-1.22-.92l-.18-1.94H6.94c-.83 0-1.5-.71-1.5-1.57v-2.42l-1.53-.39c-.62-.16-.94-.86-.68-1.46l1.7-3.84c-.01-.13-.01-.25-.01-.37Zm8-6.98c-3.89 0-7.01 3.14-7.01 6.97 0 .15 0 .3.01.45 0 .13-.04.25-.11.35l-1.71 3.83 1.52.38c.44.11.76.53.76 1.01v2.42c0 .28.22.52.5.52h2.27c.51 0 .94.4.99.94l.17 1.93 7.5-1.77 -.46-4.13c-.04-.36.09-.69.33-.91 1.34-1.28 2.17-3.08 2.17-5.06 0-3.84-3.12-6.98-7-6.98Z"/><path d="M8.07 7.72l1.5-2.5 .84.55 -1.03 1.7h2.09c.18 0 .34.1.43.26 .08.16.08.36-.02.52l-1.5 2.5 -.85-.56 1.02-1.71h-2.1c-.19 0-.35-.11-.44-.27 -.09-.17-.09-.37.01-.53Z"/><path d="M14.07 7.72l1.5-2.5 .84.55 -1.03 1.7h2.09c.18 0 .34.1.43.26 .08.16.08.36-.02.52l-1.5 2.5 -.85-.56 1.02-1.71h-2.1c-.19 0-.35-.11-.44-.27 -.09-.17-.09-.37.01-.53Z"/><path d="M11.07 12.72l1.5-2.5 .84.55 -1.03 1.7h2.09c.18 0 .34.1.43.26 .08.16.08.36-.02.52l-1.5 2.5 -.85-.56 1.02-1.71h-2.1c-.19 0-.35-.11-.44-.27 -.09-.17-.09-.37.01-.53Z"/></g></svg>