<svg viewBox="0 0 24 24" xmlns="http://www.w3.org/2000/svg"><g fill-rule="evenodd"><path d="M12 2.5c-1.94 0-3.5 1.56-3.5 3.5 0 1.93 1.56 3.5 3.5 3.5 1.93 0 3.5-1.57 3.5-3.5 0-1.94-1.57-3.5-3.5-3.5ZM7.5 6c0-2.49 2.01-4.5 4.5-4.5 2.48 0 4.5 2.01 4.5 4.5 0 2.48-2.02 4.5-4.5 4.5 -2.49 0-4.5-2.02-4.5-4.5Z"/><path d="M11.5 22V10h1v12h-1Z"/><path d="M11.77 20.55l2-1 .44.89 -2 1 -.45-.9Z"/><path d="M9.77 19.05l4-2 .44.89 -4 2 -.45-.9Z"/><path d="M9.77 16.55l4-2 .44.89 -4 2 -.45-.9Z"/><path d="M9.77 14.05l4-2 .44.89 -4 2 -.45-.9Z"/></g></svg>