<svg viewBox="0 0 24 24" xmlns="http://www.w3.org/2000/svg"><g fill-rule="evenodd"><path d="M6.34 18.37l-4 4 -.7-.76 4-4 .69.75Z"/><path d="M12.654 5.62c.19-.2.49-.2.69 0l5 4.99c.09.09.15.23.15.37 0 .14-.06.27-.16.37l-1.5 1.5c-.14.13-.33.17-.5.12l-1.22-.41 -5.79 5.78c-.1.09-.22.14-.35.14h-3c-.28 0-.5-.24-.5-.53v-3c0-.15.05-.28.15-.38l5.76-5.77 -.4-1.19c-.07-.2-.02-.41.12-.55l1.5-1.5Zm-.58 2.02l.39 1.18c.06.19.01.4-.13.54L6.48 15.2v2.25h2.29l5.85-5.855c.13-.14.32-.18.49-.13l1.21.4 .9-.91 -4.28-4.28 -.93.92Z"/><path d="M20.34 4.37l-4.5 4.5 -.7-.76 4.5-4.5 .69.75Z"/><path d="M21.65 6.37l-4-4 .69-.76 4 4 -.7.75Z"/><path d="M8.15 15.87l-1.5-1.5 .69-.76 1.5 1.5 -.7.75Z"/><path d="M10.15 13.87l-1.5-1.5 .69-.76 1.5 1.5 -.7.75Z"/></g></svg>