<svg viewBox="0 0 24 24" xmlns="http://www.w3.org/2000/svg"><g fill-rule="evenodd"><path d="M5.35 19.35l-3 3 -.71-.71 3-3 .7.7Z"/><path d="M12.14 5.14c.19-.2.51-.2.7 0l6 5.99c.19.19.19.51 0 .7l-2 2c-.1.09-.23.14-.36.14h-1.8l-3.86 3.85c-.04.03-.08.06-.12.08l-3.27 1.81c-.93.51-2.09.35-2.84-.4s-.92-1.91-.4-2.84L6 13.2c.02-.05.05-.08.08-.12l3.85-3.86v-1.8c0-.14.05-.26.14-.36l2-2ZM10.99 7.7v1.79c0 .13-.06.25-.15.35l-3.96 3.95 -1.78 3.2c-.3.53-.21 1.2.22 1.63 .43.43 1.1.52 1.63.22l3.2-1.78 3.95-3.96c.09-.1.22-.15.35-.15h1.79l1.5-1.5 -5.3-5.3 -1.5 1.5Z"/><path d="M9.64 13.64l2-2 .7.7 -2 2 -.71-.71Z"/><path d="M21.5 8c0-3.04-2.47-5.5-5.5-5.5v-1c3.58 0 6.5 2.91 6.5 6.5h-1Z"/><path d="M19 8.5C19 6.56 17.43 5 15.5 5V4C17.98 4 20 6.01 20 8.5h-1Z"/></g></svg>