<svg viewBox="0 0 24 24" xmlns="http://www.w3.org/2000/svg"><path fill="#FFC44D" d="M6 14.25c-.42 0-.75.33-.75.75v7c0 .41.33.75.75.75h12c.41 0 .75-.34.75-.75v-7c0-.42-.34-.75-.75-.75H6Z"/><path fill="#FF884D" d="M6 9.25c-.31 0-.59.18-.7.47l-2 5c-.1.23-.07.49.07.69 .13.2.37.32.62.32h16c.24 0 .48-.13.62-.33 .13-.21.16-.47.07-.7l-2-5.01c-.12-.29-.39-.48-.7-.48h-12Z"/><g fill="#8B98A6" fill-rule="evenodd"><path d="M12 7.75c.41 0 .75-.34.75-.75V2c0-.42-.34-.75-.75-.75 -.42 0-.75.33-.75.75v5c0 .41.33.75.75.75Z"/><path d="M11.46 8.03c.29.29.76.29 1.06 0l2-2c.29-.3.29-.77 0-1.07 -.3-.3-.77-.3-1.07 0l-1.47 1.46 -1.47-1.47c-.3-.3-.77-.3-1.07 0 -.3.29-.3.76 0 1.06l2 2Z"/><path fill="#ECEFF1" d="M12.25 19c0-.42.33-.75.75-.75h2.5c.41 0 .75.33.75.75 0 .41-.34.75-.75.75H13c-.42 0-.75-.34-.75-.75Z"/></g></svg>