<svg viewBox="0 0 24 24" xmlns="http://www.w3.org/2000/svg"><path fill="#FFD071" d="M12.206 4.77c-.14-.04-.28-.04-.42 0l-7.01 2c-.33.09-.55.38-.55.72v12c0 .33.22.62.54.72l7 2c.13.03.27.03.41 0l7-2c.32-.1.54-.39.54-.73v-12c0-.34-.23-.63-.55-.73l-7-2Z"/><path fill="#FFA071" fill-rule="evenodd" d="M12 8.75c.41 0 .75.33.75.75v12c0 .41-.34.75-.75.75 -.42 0-.75-.34-.75-.75v-12c0-.42.33-.75.75-.75Z"/><g fill="#FFA071"><path d="M19.53 6.96c-.2-.2-.48-.27-.74-.2l-7 2c-.26.07-.46.27-.52.53 -.07.25 0 .53.19.71l3 3c.19.19.47.26.73.19l7-2c.25-.08.45-.28.51-.54s-.01-.54-.2-.72l-3-3Z"/><path d="M19.53 8.03c-.2.19-.48.26-.74.19l-7-2c-.26-.08-.46-.28-.52-.54 -.07-.26 0-.54.19-.72l3-3c.19-.2.47-.27.73-.2l7 2c.25.07.45.27.51.53 .06.25-.01.53-.2.71l-3 3Z"/><path d="M4.46 6.96c.19-.2.47-.27.73-.2l7 2c.25.07.45.27.51.53 .06.25-.01.53-.2.71l-3 3c-.2.19-.48.26-.74.19l-7-2c-.26-.08-.46-.28-.52-.54 -.07-.26 0-.54.19-.72l3-3Z"/><path d="M4.46 8.03c.19.19.47.26.73.19l7-2c.25-.08.45-.28.51-.54s-.01-.54-.2-.72l-3-3c-.2-.2-.48-.27-.74-.2l-7 2c-.26.07-.46.27-.52.53 -.07.25 0 .53.19.71l3 3Z"/></g></svg>