<svg viewBox="0 0 24 24" xmlns="http://www.w3.org/2000/svg"><path fill="#5E94FF" d="M8.01 2.99c-.5-.72-1.45-.95-2.22-.57L2.75 3.94C1.25 4.69.76 6.6 1.73 7.97l8.81 12.59c.96 1.37 2.91 1.57 4.14.42l2.46-2.33c.63-.6.73-1.57.23-2.28l-1.35-1.93c-.37-.53-1-.81-1.63-.74l-2.78.31c-.1.01-.19-.03-.24-.11L8.22 9.41c-.06-.08-.06-.18-.02-.26l1.24-2.51c.28-.58.23-1.258-.14-1.79L7.95 2.92Z"/><path fill="#FFC44D" d="M15.7 3.74c-.42 0-.75.33-.75.75v5.99c0 .41.33.75.75.75h6c.41 0 .75-.34.75-.75v-6c0-.42-.34-.75-.75-.75h-6Z"/><path fill="#EE4D4D" fill-rule="evenodd" d="M19.45 3.74v3.25c0 .41-.34.75-.75.75 -.42 0-.75-.34-.75-.75V3.74h1.5Z"/></svg>