<svg viewBox="0 0 24 24" xmlns="http://www.w3.org/2000/svg"><path fill="#FFD071" d="M4 1.25C2.48 1.25 1.25 2.48 1.25 4v16c0 1.51 1.23 2.75 2.75 2.75h16c1.51 0 2.75-1.24 2.75-2.75V4c0-1.52-1.24-2.75-2.75-2.75H4Z"/><path fill="#F17171" d="M9 1.25c-.42 0-.75.33-.75.75v7c0 .24.11.46.31.6 .19.14.44.17.67.1l2.76-.93 2.76.92c.22.07.48.03.67-.11 .19-.15.31-.37.31-.61v-7c0-.42-.34-.75-.75-.75h-6Z"/><path fill="#FF884D" d="M17.5 12.25c-2.9 0-5.25 2.35-5.25 5.25 0 2.89 2.35 5.25 5.25 5.25 2.89 0 5.25-2.36 5.25-5.25 0-2.9-2.36-5.25-5.25-5.25Z"/><path fill="#ECEFF1" fill-rule="evenodd" d="M17.5 15.75c.41 0 .75.33.75.75v2c0 .41-.34.75-.75.75 -.42 0-.75-.34-.75-.75v-2c0-.42.33-.75.75-.75Z"/></svg>