<svg viewBox="0 0 24 24" xmlns="http://www.w3.org/2000/svg"><path fill="#FFD071" d="M4 1.25C2.48 1.25 1.25 2.48 1.25 4v16c0 1.51 1.23 2.75 2.75 2.75h16c1.51 0 2.75-1.24 2.75-2.75V4c0-1.52-1.24-2.75-2.75-2.75H4Z"/><path fill="#F17171" d="M9 1.25c-.42 0-.75.33-.75.75v7c0 .24.11.46.31.6 .19.14.44.17.67.1l2.76-.93 2.76.92c.22.07.48.03.67-.11 .19-.15.31-.37.31-.61v-7c0-.42-.34-.75-.75-.75h-6Z"/><path fill="#8BC94D" d="M12 15.25c-.42 0-.75.33-.75.75v6c0 .41.33.75.75.75h10c.41 0 .75-.34.75-.75v-6c0-.42-.34-.75-.75-.75H12Z"/><path fill="#ECEFF1" fill-rule="evenodd" d="M14.75 19c0-.42.33-.75.75-.75h3c.41 0 .75.33.75.75 0 .41-.34.75-.75.75h-3c-.42 0-.75-.34-.75-.75Z"/></svg>