<svg viewBox="0 0 24 24" xmlns="http://www.w3.org/2000/svg"><g fill="#CFD8DC" fill-rule="evenodd"><path d="M11.6 5.36c.24-.16.55-.16.79 0l8 5c.35.21.45.68.23 1.03s-.69.45-1.04.23l-7.61-4.76 -7.61 4.75c-.36.21-.82.11-1.04-.24 -.22-.36-.12-.82.23-1.04l8-5Z"/><path d="M12 2.25c.41 0 .75.33.75.75v3c0 .41-.34.75-.75.75 -.42 0-.75-.34-.75-.75V3c0-.42.33-.75.75-.75Z"/></g><path fill="#EE4D4D" d="M2 10.25c-.42 0-.75.33-.75.75v10c0 .41.33.75.75.75h20c.41 0 .75-.34.75-.75V11c0-.42-.34-.75-.75-.75H2Z"/><g fill="#ECEFF1" fill-rule="evenodd"><path d="M6 13.25c.41 0 .75.33.75.75v4c0 .41-.34.75-.75.75 -.42 0-.75-.34-.75-.75v-4c0-.42.33-.75.75-.75Z"/><path d="M10 13.25c.41 0 .75.33.75.75v4c0 .41-.34.75-.75.75 -.42 0-.75-.34-.75-.75v-4c0-.42.33-.75.75-.75Z"/><path d="M14 13.25c.41 0 .75.33.75.75v4c0 .41-.34.75-.75.75 -.42 0-.75-.34-.75-.75v-4c0-.42.33-.75.75-.75Z"/><path d="M18 13.25c.41 0 .75.33.75.75v4c0 .41-.34.75-.75.75 -.42 0-.75-.34-.75-.75v-4c0-.42.33-.75.75-.75Z"/></g></svg>