<svg viewBox="0 0 24 24" xmlns="http://www.w3.org/2000/svg"><g fill="#CFD8DC" fill-rule="evenodd"><path d="M15.75 6c0-.42.33-.75.75-.75h4c.41 0 .75.33.75.75 0 .41-.34.75-.75.75h-4c-.42 0-.75-.34-.75-.75Z"/><path d="M8.25 6c0-.42-.34-.75-.75-.75h-4c-.42 0-.75.33-.75.75 0 .41.33.75.75.75h4c.41 0 .75-.34.75-.75Z"/><g fill="#5E94FF"><path d="M20.5 2.25c.41 0 .75.33.75.75v4.5c0 .41-.34.75-.75.75 -.42 0-.75-.34-.75-.75V3c0-.42.33-.75.75-.75Z"/><path d="M3.5 2.25c-.42 0-.75.33-.75.75v4.5c0 .41.33.75.75.75 .41 0 .75-.34.75-.75V3c0-.42-.34-.75-.75-.75Z"/></g></g><path fill="#FFC44D" d="M9.5 16.25c-.42 0-.75.33-.75.75v5c0 .41.33.75.75.75h5c.41 0 .75-.34.75-.75v-5c0-.42-.34-.75-.75-.75h-5Z"/><g fill="#EE4D4D" fill-rule="evenodd"><path d="M12.75 16.25V19c0 .41-.34.75-.75.75 -.42 0-.75-.34-.75-.75v-2.75h1.5Z"/><g fill="#CFD8DC"><path d="M14.41 8.53c.25-.33.73-.38 1.05-.12l5 3.99c.24.19.34.52.24.82l-2 6c-.14.39-.56.6-.95.47 -.4-.14-.61-.56-.48-.95l1.83-5.51 -4.6-3.68c-.33-.26-.38-.74-.12-1.06Z"/><path d="M9.58 8.53c-.26-.33-.74-.38-1.06-.12l-5 3.99c-.25.19-.35.52-.25.82l2 6c.13.39.55.6.94.47 .39-.14.6-.56.47-.95l-1.84-5.51 4.59-3.68c.32-.26.37-.74.11-1.06Z"/></g></g><path fill="#5E94FF" d="M8.5 2.25c-.97 0-1.75.78-1.75 1.75v2c0 .11.02.23.07.33l1.5 3c.12.25.38.41.67.41h6c.28 0 .54-.17.67-.42l1.5-3c.05-.11.07-.22.07-.34v-2c0-.97-.79-1.75-1.75-1.75h-7Z"/><g fill="#CFD8DC" fill-rule="evenodd"><path d="M18.25 3c0-.42.33-.75.75-.75h3c.41 0 .75.33.75.75 0 .41-.34.75-.75.75h-3c-.42 0-.75-.34-.75-.75Z"/><path d="M5.75 3c0-.42-.34-.75-.75-.75H2c-.42 0-.75.33-.75.75 0 .41.33.75.75.75h3c.41 0 .75-.34.75-.75Z"/></g></svg>