<svg viewBox="0 0 24 24" xmlns="http://www.w3.org/2000/svg"><path fill="#FFC44D" d="M12 1.25C6.06 1.25 1.25 6.06 1.25 12c0 5.93 4.81 10.75 10.75 10.75 5.93 0 10.75-4.82 10.75-10.75 0-5.94-4.82-10.75-10.75-10.75Z"/><g fill="#ECEFF1"><path d="M12 15.75c-1.25 0-2.25 1-2.25 2.25 0 1.24 1 2.25 2.25 2.25 1.24 0 2.25-1.01 2.25-2.25 0-1.25-1.01-2.25-2.25-2.25Z"/><path d="M12 3.75c-1.52 0-2.7 1.31-2.54 2.81l.69 6.61c.09.89.84 1.56 1.74 1.56h.19c.89 0 1.64-.68 1.74-1.57l.69-6.62c.15-1.51-1.03-2.82-2.54-2.82Z"/></g></svg>