<svg viewBox="0 0 24 24" xmlns="http://www.w3.org/2000/svg"><path fill="#FFD071" d="M4 1.25C2.48 1.25 1.25 2.48 1.25 4v16c0 1.51 1.23 2.75 2.75 2.75h16c1.51 0 2.75-1.24 2.75-2.75V4c0-1.52-1.24-2.75-2.75-2.75H4Z"/><path fill="#F17171" d="M9 1.25c-.42 0-.75.33-.75.75v7c0 .24.11.46.31.6 .19.14.44.17.67.1l2.76-.93 2.76.92c.22.07.48.03.67-.11 .19-.15.31-.37.31-.61v-7c0-.42-.34-.75-.75-.75h-6Z"/><path fill="#FF71B7" d="M13.24 14.213c1.15-1.13 2.93-1.27 4.25-.42 1.31-.85 3.09-.71 4.25.41 1.33 1.29 1.33 3.4 0 4.7l-3.73 3.62c-.3.28-.76.28-1.05 0l-3.73-3.63c-1.34-1.3-1.34-3.41 0-4.71Z"/></svg>