<svg viewBox="0 0 24 24" xmlns="http://www.w3.org/2000/svg"><path fill="#4DC4FF" fill-rule="evenodd" d="M12 11.25c.41 0 .75.33.75.75v7c0 .41-.34.75-.75.75 -.42 0-.75-.34-.75-.75v-7c0-.42.33-.75.75-.75Z"/><g fill="#4DC4FF"><path d="M7 1.25c-.42 0-.75.33-.75.75v6c0 2.62 2.12 4.75 4.75 4.75h2c2.62 0 4.75-2.13 4.75-4.75V2c0-.42-.34-.75-.75-.75h-2.5c-.38 0-.7.28-.75.66l-.34 2.79 -1.45 1.83c-.07.07-.11.16-.14.25l-.17.58 -.45-.57 .35-1.66c.03-.16.01-.33-.05-.47l-1.36-3c-.13-.27-.39-.45-.69-.45h-2.5Z"/><path d="M12.45 18.4c-.27-.2-.64-.2-.9 0l-4 3c-.26.19-.37.53-.27.83 .1.3.38.51.71.51h7.99c.32 0 .6-.21.71-.52 .1-.31-.01-.65-.27-.84l-4-3Z"/></g></svg>