<svg viewBox="0 0 24 24" xmlns="http://www.w3.org/2000/svg"><path fill="#FFC44D" d="M2 16.25c-.42 0-.75.33-.75.75v5c0 .41.33.75.75.75h5c.41 0 .75-.34.75-.75v-5c0-.42-.34-.75-.75-.75H2Z"/><path fill="#EE4D4D" fill-rule="evenodd" d="M5.25 16.25V19c0 .41-.34.75-.75.75 -.42 0-.75-.34-.75-.75v-2.75h1.5Z"/><path fill="#FFC44D" d="M17 16.25c-.42 0-.75.33-.75.75v5c0 .41.33.75.75.75h5c.41 0 .75-.34.75-.75v-5c0-.42-.34-.75-.75-.75h-5Z"/><g fill="#EE4D4D" fill-rule="evenodd"><path d="M20.25 16.25V19c0 .41-.34.75-.75.75 -.42 0-.75-.34-.75-.75v-2.75h1.5Z"/><path fill="#CFD8DC" d="M12 8.75c.41 0 .75.33.75.75V12c0 .41-.34.75-.75.75 -.42 0-.75-.34-.75-.75V9.5c0-.42.33-.75.75-.75Z"/></g><path fill="#5E94FF" d="M12.33 1.82c-.22-.11-.46-.11-.68 0l-3.01 1.5c-.26.12-.42.38-.42.67v5.5c0 .41.33.75.75.75h6c.41 0 .75-.34.75-.75v-5.5c0-.29-.17-.55-.42-.68l-3-1.5Z"/><g fill="#4DC4FF" fill-rule="evenodd"><path d="M11.61 1.35c.23-.15.53-.15.77 0l5 3c.35.21.47.67.25 1.02 -.22.35-.68.47-1.029.25l-4.62-2.77 -4.62 2.76c-.36.21-.82.09-1.029-.26 -.22-.36-.1-.82.25-1.03l4.99-3Z"/><path fill="#CFD8DC" d="M3.25 12c0-.42.33-.75.75-.75h16c.41 0 .75.33.75.75v2c0 .41-.34.75-.75.75 -.42 0-.75-.34-.75-.75v-1.25H4.75V14c0 .41-.34.75-.75.75 -.42 0-.75-.34-.75-.75v-2Z"/></g></svg>