<svg viewBox="0 0 24 24" xmlns="http://www.w3.org/2000/svg"><g fill="#5E94FF"><path d="M5.41 15.37c-.26-.17-.59-.17-.84 0l-3 2c-.21.13-.34.37-.34.62v4c0 .41.33.75.75.75h6c.41 0 .75-.34.75-.75v-4c0-.26-.13-.49-.34-.63l-3-2Z"/><path d="M19.416 15.37c-.26-.17-.59-.17-.84 0l-3 2c-.21.13-.34.37-.34.62v4c0 .41.33.75.75.75h6c.41 0 .75-.34.75-.75v-4c0-.26-.13-.49-.34-.63l-3-2Z"/></g><path fill="#FFC44D" d="M9.5 1.25c-.42 0-.75.33-.75.75v5c0 .41.33.75.75.75h5c.41 0 .75-.34.75-.75V2c0-.42-.34-.75-.75-.75h-5Z"/><g fill="#EE4D4D" fill-rule="evenodd"><path d="M12.75 1.25V4c0 .41-.34.75-.75.75 -.42 0-.75-.34-.75-.75V1.25h1.5Z"/><g fill="#8B98A6"><path d="M4.25 11.5c0-.42.33-.75.75-.75h14c.41 0 .75.33.75.75v2c0 .41-.34.75-.75.75 -.42 0-.75-.34-.75-.75v-1.25H5.75v1.25c0 .41-.34.75-.75.75 -.42 0-.75-.34-.75-.75v-2Z"/><path d="M12 8.75c.41 0 .75.33.75.75v2c0 .41-.34.75-.75.75 -.42 0-.75-.34-.75-.75v-2c0-.42.33-.75.75-.75Z"/></g></g></svg>