<svg viewBox="0 0 24 24" xmlns="http://www.w3.org/2000/svg"><g fill="#EE4D4D"><path d="M11.46 22.53s0 0 .53-.53l.53.53c-.3.29-.77.29-1.07-.01Z"/><path d="M11.46 22.53l.53-.53c.53.53.53.52.53.52l0-.01 0-.01 .01-.02c.01-.02.03-.04.06-.07 .05-.06.13-.14.23-.25 .19-.21.47-.52.81-.9 .66-.77 1.56-1.85 2.45-3.13 1.76-2.52 3.63-5.94 3.63-9.19 0-4.29-3.47-7.75-7.75-7.75 -4.29 0-7.75 3.46-7.75 7.75 0 3.24 1.87 6.66 3.63 9.18 .89 1.27 1.78 2.36 2.45 3.12 .33.38.61.68.81.89 .09.1.17.18.23.24 .02.02.04.04.06.06l.01.01 0 0 0 0Z"/></g><path fill="#ECEFF1" d="M12 4.75c-2.08 0-3.75 1.67-3.75 3.75 0 2.07 1.67 3.75 3.75 3.75 2.07 0 3.75-1.68 3.75-3.75 0-2.08-1.68-3.75-3.75-3.75Z"/></svg>