<svg viewBox="0 0 24 24" xmlns="http://www.w3.org/2000/svg"><g fill="#EE4D4D"><path d="M11.46 22.53s0 0 .53-.53l.53.53c-.3.29-.77.29-1.07-.01Z"/><path d="M11.46 22.53l.53-.53c.53.53.53.52.53.52l0-.01 0-.01 .01-.02c.01-.02.03-.04.06-.07 .05-.06.13-.14.23-.25 .19-.21.47-.52.81-.9 .66-.77 1.56-1.85 2.45-3.13 1.76-2.52 3.63-5.94 3.63-9.19 0-4.29-3.47-7.75-7.75-7.75 -4.29 0-7.75 3.46-7.75 7.75 0 3.24 1.87 6.66 3.63 9.18 .89 1.27 1.78 2.36 2.45 3.12 .33.38.61.68.81.89 .09.1.17.18.23.24 .02.02.04.04.06.06l.01.01 0 0 0 0Z"/></g><path fill="#ECEFF1" d="M9.5 5.25c-.42 0-.75.33-.75.75v5c0 .41.33.75.75.75h5c.41 0 .75-.34.75-.75V6c0-.42-.34-.75-.75-.75h-5Z"/><path fill="#CFD8DC" fill-rule="evenodd" d="M12.75 5.25V8c0 .41-.34.75-.75.75 -.42 0-.75-.34-.75-.75V5.25h1.5Z"/></svg>