<svg viewBox="0 0 24 24" xmlns="http://www.w3.org/2000/svg"><path fill="#CFD8DC" fill-rule="evenodd" d="M3.8 9.74l5.72 5.72c.29.29.29.76 0 1.06 -.3.29-.77.29-1.07 0l-6-6c-.15-.15-.22-.34-.22-.54 0-.89.53-1.59 1.21-2.04 .68-.46 1.58-.72 2.53-.72 .95 0 1.85.25 2.53.71 .16.1.32.23.46.37 .14-.14.29-.27.46-.38 .68-.46 1.58-.72 2.53-.72 .95 0 1.85.25 2.53.71 .16.1.32.23.46.37 .14-.14.29-.27.46-.38 .68-.46 1.58-.72 2.53-.72 .95 0 1.85.25 2.53.71 .67.45 1.21 1.15 1.21 2.03 0 .19-.08.38-.22.53l-6 6c-.3.29-.77.29-1.07 0 -.3-.3-.3-.77 0-1.07l5.72-5.73c-.08-.18-.23-.36-.49-.54 -.41-.27-1.01-.46-1.71-.46 -.71 0-1.31.19-1.71.45 -.41.27-.55.56-.55.79 0 .08-.02.16-.04.23l-2 6c-.14.39-.56.6-.95.47 -.4-.14-.61-.56-.48-.95l1.95-5.86c-.04-.21-.19-.46-.54-.7 -.41-.27-1.01-.46-1.71-.46 -.71 0-1.31.19-1.71.45 -.36.23-.51.48-.54.69l1.95 5.85c.13.39-.09.81-.48.94 -.4.13-.82-.09-.95-.48l-2.01-6c-.03-.08-.04-.16-.04-.24 0-.23-.14-.52-.55-.8 -.41-.27-1.01-.46-1.71-.46 -.71 0-1.31.19-1.71.45 -.27.17-.42.36-.49.53Z"/><path fill="#EE4D4D" d="M12 1.25c-5.3 0-9.75 3.83-9.75 8.75 0 .41.33.75.75.75 .41 0 .75-.34.75-.75 0-.23.13-.52.54-.8 .4-.27 1-.46 1.7-.46s1.3.19 1.7.45c.4.27.54.56.54.79 0 .41.33.75.75.75 .41 0 .75-.34.75-.75 0-.23.13-.52.54-.8 .4-.27 1-.46 1.7-.46s1.3.19 1.7.45c.4.27.54.56.54.79 0 .41.33.75.75.75 .41 0 .75-.34.75-.75 0-.23.13-.52.54-.8 .4-.27 1-.46 1.7-.46s1.3.19 1.7.45c.4.27.54.56.54.79 0 .41.33.75.75.75 .41 0 .75-.34.75-.75 0-4.92-4.46-8.75-9.75-8.75Z"/><path fill="#FFC44D" d="M9 15.25c-.42 0-.75.33-.75.75v6c0 .41.33.75.75.75h6c.41 0 .75-.34.75-.75v-6c0-.42-.34-.75-.75-.75H9Z"/><path fill="#EE4D4D" fill-rule="evenodd" d="M12.75 15.25V18c0 .41-.34.75-.75.75 -.42 0-.75-.34-.75-.75v-2.75h1.5Z"/></svg>