<svg viewBox="0 0 24 24" xmlns="http://www.w3.org/2000/svg"><path fill="#FFC44D" d="M8 6.25c-.97 0-1.75.78-1.75 1.75v8c0 .96.78 1.75 1.75 1.75h8c.96 0 1.75-.79 1.75-1.75V8c0-.97-.79-1.75-1.75-1.75H8Z"/><path fill="#EE4D4D" d="M10.5 6.25c-.42 0-.75.33-.75.75v3.5c0 .24.11.46.31.6 .19.14.44.17.67.1l1.26-.43 1.26.42c.22.07.48.03.67-.11 .19-.15.31-.37.31-.61v-3.5c0-.42-.34-.75-.75-.75h-3Z"/><g fill="#CFD8DC" fill-rule="evenodd"><path d="M19.46 9.46c.29-.3.76-.3 1.06 0l2 2c.29.29.29.76 0 1.06l-2 2c-.3.29-.77.29-1.07 0 -.3-.3-.3-.77 0-1.07l1.46-1.47 -1.47-1.47c-.3-.3-.3-.77 0-1.07Z"/><path d="M4.53 9.46c-.3-.3-.77-.3-1.07 0l-2 2c-.3.29-.3.76 0 1.06l2 2c.29.29.76.29 1.06 0 .29-.3.29-.77 0-1.07l-1.47-1.47 1.46-1.47c.29-.3.29-.77 0-1.07Z"/><path d="M9.46 4.53c-.3-.3-.3-.77 0-1.07l2-2c.29-.3.76-.3 1.06 0l2 2c.29.29.29.76 0 1.06 -.3.29-.77.29-1.07 0l-1.47-1.47 -1.47 1.46c-.3.29-.77.29-1.07 0Z"/><path d="M9.46 19.46c-.3.29-.3.76 0 1.06l2 2c.29.29.76.29 1.06 0l2-2c.29-.3.29-.77 0-1.07 -.3-.3-.77-.3-1.07 0l-1.47 1.46 -1.47-1.47c-.3-.3-.77-.3-1.07 0Z"/></g></svg>