<svg viewBox="0 0 24 24" xmlns="http://www.w3.org/2000/svg"><g fill="#8B98A6" fill-rule="evenodd"><path d="M11.43 4.55C6.87 4.5 3.14 8.16 3.1 12.72c-.05 4.55 3.61 8.28 8.17 8.32 4.55.04 8.28-3.62 8.32-8.18 0-.42.34-.75.75-.75s.74.34.74.75c-.06 5.38-4.46 9.7-9.85 9.65 -5.39-.06-9.71-4.46-9.66-9.85C1.62 7.27 6.02 2.95 11.41 3c.67 0 1.33.08 1.97.21 .4.08.66.48.57.89 -.09.4-.49.66-.9.57 -.54-.12-1.1-.19-1.68-.19Z"/><path d="M11 .71c.32-.26.79-.2 1.05.12l1.97 2.51c.21.27.21.66-.01.93l-2.03 2.48c-.27.32-.74.36-1.06.1 -.33-.27-.37-.74-.11-1.06l1.64-2.02 -1.61-2.05c-.26-.33-.2-.8.12-1.06Z"/></g><path fill="#FFC44D" d="M8 9.25c-.42 0-.75.33-.75.75v7c0 .41.33.75.75.75h7c.41 0 .75-.34.75-.75v-7c0-.42-.34-.75-.75-.75H8Z"/><path fill="#EE4D4D" fill-rule="evenodd" d="M12.25 9.25v3.25c0 .41-.34.75-.75.75 -.42 0-.75-.34-.75-.75V9.25h1.5Z"/></svg>