<svg viewBox="0 0 24 24" xmlns="http://www.w3.org/2000/svg"><g fill="#EE4D4D"><path d="M4.26 22.53s0 0 .53-.54c.53.53.53.52.53.52 -.3.29-.77.29-1.07 0Z"/><path d="M4.26 22.53l.53-.54 .53.52 0-.01 0-.01 0-.01 .02-.03c.02-.03.05-.06.09-.11 .08-.09.19-.22.33-.38 .27-.32.64-.77 1.01-1.29 .71-1.02 1.53-2.49 1.53-3.94 0-1.97-1.59-3.55-3.55-3.55 -1.97 0-3.55 1.58-3.55 3.55 0 1.44.82 2.91 1.53 3.93 .36.52.73.97 1.01 1.28 .13.15.25.28.33.37 .04.04.07.07.09.1l.02.02 0 0 0 0 0 0Z"/><path d="M19.56 8.53s0 0 .53-.54c.53.53.53.52.53.52 -.15.14-.34.22-.54.22s-.39-.08-.54-.22Z"/><path d="M19.56 8.53l.53-.54 .53.52 0-.01 0-.01 0-.01 .02-.03c.01-.02.04-.05.07-.08 .06-.07.15-.17.25-.29 .2-.24.49-.58.77-.99 .53-.77 1.18-1.91 1.18-3.06 0-1.58-1.28-2.85-2.85-2.85 -1.58 0-2.85 1.27-2.85 2.85 0 1.14.64 2.28 1.18 3.05 .28.4.56.74.77.98 .1.12.19.21.25.28 .03.03.05.05.07.07l.02.02 0 0 0 0 0 0Z"/></g><path fill="#8B98A6" fill-rule="evenodd" d="M10 8.75c-.7 0-1.25.55-1.25 1.25v.5c0 .69.55 1.25 1.25 1.25h6c2.62 0 4.75 2.12 4.75 4.75V18c0 2.62-2.13 4.75-4.75 4.75H9c-.42 0-.75-.34-.75-.75 0-.42.33-.75.75-.75h7c1.79 0 3.25-1.46 3.25-3.25v-1.5c0-1.8-1.46-3.25-3.25-3.25h-6c-1.52 0-2.75-1.24-2.75-2.75V10c0-1.52 1.23-2.75 2.75-2.75h7c.41 0 .75.33.75.75 0 .41-.34.75-.75.75h-7Z"/></svg>