<svg viewBox="0 0 24 24" xmlns="http://www.w3.org/2000/svg"><path fill="#FFD071" d="M4 1.25C2.48 1.25 1.25 2.48 1.25 4v16c0 1.51 1.23 2.75 2.75 2.75h16c1.51 0 2.75-1.24 2.75-2.75V4c0-1.52-1.24-2.75-2.75-2.75H4Z"/><path fill="#F17171" d="M9 1.25c-.42 0-.75.33-.75.75v7c0 .24.11.46.31.6 .19.14.44.17.67.1l2.76-.93 2.76.92c.22.07.48.03.67-.11 .19-.15.31-.37.31-.61v-7c0-.42-.34-.75-.75-.75h-6Z"/><path fill="#ECEFF1" d="M17 11.25c-3.18 0-5.75 2.57-5.75 5.75 0 3.17 2.57 5.75 5.75 5.75 3.17 0 5.75-2.58 5.75-5.75 0-3.18-2.58-5.75-5.75-5.75Z"/><path fill="#8B98A6" fill-rule="evenodd" d="M20.33 17.21c.21-.28.21-.67 0-.94l-2-2.5c-.26-.33-.74-.38-1.06-.12 -.33.25-.38.73-.12 1.05l1.02 1.28h-3.94c-.42 0-.75.33-.75.75 0 .41.33.75.75.75h3.93l-1.03 1.28c-.26.32-.21.79.11 1.05 .32.25.79.2 1.05-.12l2-2.5Z"/></svg>