<svg viewBox="0 0 24 24" xmlns="http://www.w3.org/2000/svg"><g fill="#8B98A6" fill-rule="evenodd"><path d="M4 1.25c.41 0 .75.33.75.75v20c0 .41-.34.75-.75.75 -.42 0-.75-.34-.75-.75V2c0-.42.33-.75.75-.75Z"/><path d="M20 1.25c.41 0 .75.33.75.75v20c0 .41-.34.75-.75.75 -.42 0-.75-.34-.75-.75V2c0-.42.33-.75.75-.75Z"/></g><path fill="#FFC44D" d="M7 11.25c-.42 0-.75.33-.75.75v5c0 .41.33.75.75.75h5c.41 0 .75-.34.75-.75v-5c0-.42-.34-.75-.75-.75H7Z"/><path fill="#EE4D4D" fill-rule="evenodd" d="M10.25 11.25V14c0 .41-.34.75-.75.75 -.42 0-.75-.34-.75-.75v-2.75h1.5Z"/><path fill="#FFC44D" d="M12 1.25c-.42 0-.75.33-.75.75v5c0 .41.33.75.75.75h5c.41 0 .75-.34.75-.75V2c0-.42-.34-.75-.75-.75h-5Z"/><g fill="#EE4D4D" fill-rule="evenodd"><path d="M15.25 1.25V4c0 .41-.34.75-.75.75 -.42 0-.75-.34-.75-.75V1.25h1.5Z"/><g fill="#8B98A6"><path d="M1.25 22c0-.42.33-.75.75-.75h4c.41 0 .75.33.75.75 0 .41-.34.75-.75.75H2c-.42 0-.75-.34-.75-.75Z"/><path d="M17.25 22c0-.42.33-.75.75-.75h4c.41 0 .75.33.75.75 0 .41-.34.75-.75.75h-4c-.42 0-.75-.34-.75-.75Z"/><path d="M3.25 17c0-.42.33-.75.75-.75h16c.41 0 .75.33.75.75 0 .41-.34.75-.75.75H4c-.42 0-.75-.34-.75-.75Z"/><path d="M3.25 7c0-.42.33-.75.75-.75h16c.41 0 .75.33.75.75 0 .41-.34.75-.75.75H4c-.42 0-.75-.34-.75-.75Z"/></g></g></svg>