<svg viewBox="0 0 24 24" xmlns="http://www.w3.org/2000/svg"><path fill="#FFD071" d="M4 1.25C2.48 1.25 1.25 2.48 1.25 4v16c0 1.51 1.23 2.75 2.75 2.75h16c1.51 0 2.75-1.24 2.75-2.75V4c0-1.52-1.24-2.75-2.75-2.75H4Z"/><path fill="#F17171" d="M9 1.25c-.42 0-.75.33-.75.75v7c0 .24.11.46.31.6 .19.14.44.17.67.1l2.76-.93 2.76.92c.22.07.48.03.67-.11 .19-.15.31-.37.31-.61v-7c0-.42-.34-.75-.75-.75h-6Z"/><path fill="#ECEFF1" d="M17 11.25c-3.18 0-5.75 2.57-5.75 5.75 0 3.17 2.57 5.75 5.75 5.75 3.17 0 5.75-2.58 5.75-5.75 0-3.18-2.58-5.75-5.75-5.75Z"/><path fill="#8BC94D" fill-rule="evenodd" d="M19.48 14.92c.31.26.36.73.09 1.05l-2.5 3c-.14.16-.34.25-.55.26 -.22 0-.42-.07-.57-.22l-1.5-1.5c-.3-.3-.3-.77 0-1.07 .29-.3.76-.3 1.06 0l.91.91 1.97-2.37c.26-.32.73-.37 1.05-.1Z"/></svg>