<svg viewBox="0 0 24 24" xmlns="http://www.w3.org/2000/svg"><path fill="#FF884D" d="M14 6.75c-.42 0-.75.33-.75.75v7.75H9c-.42 0-.75.33-.75.75 0 .41.33.75.75.75h12c.96 0 1.75-.79 1.75-1.75v-3.5c0-2.63-2.13-4.75-4.75-4.75h-4Z"/><path fill="#FFC44D" d="M3 4.25c-.97 0-1.75.78-1.75 1.75v9c0 .96.78 1.75 1.75 1.75h11c.41 0 .75-.34.75-.75V6c0-.97-.79-1.75-1.75-1.75H3Z"/><g fill="#CFD8DC"><path d="M7 14.25c-1.52 0-2.75 1.23-2.75 2.75 0 1.51 1.23 2.75 2.75 2.75 1.51 0 2.75-1.24 2.75-2.75 0-1.52-1.24-2.75-2.75-2.75Z"/><path d="M17.5 13.75c-1.52 0-2.75 1.23-2.75 2.75 0 1.51 1.23 2.75 2.75 2.75 1.51 0 2.75-1.24 2.75-2.75 0-1.52-1.24-2.75-2.75-2.75Z"/></g><path fill="#ECEFF1" fill-rule="evenodd" d="M11.06 8.01c.26.31.23.78-.09 1.05l-3.5 3c-.27.22-.66.24-.94.03l-2-1.5c-.34-.25-.4-.72-.15-1.05 .24-.34.71-.4 1.05-.15l1.51 1.13 3.04-2.61c.31-.27.78-.24 1.05.08Z"/></svg>