<svg viewBox="0 0 24 24" xmlns="http://www.w3.org/2000/svg"><path fill="#8B98A6" fill-rule="evenodd" d="M2.25 2c0-.42.33-.75.75-.75h2.5c.41 0 .75.33.75.75v16.25H20c.41 0 .75.33.75.75 0 .41-.34.75-.75.75H5.5c-.42 0-.75-.34-.75-.75V2.75H3c-.42 0-.75-.34-.75-.75Z"/><path fill="#FFC44D" d="M9 6.25c-.42 0-.75.33-.75.75v8c0 .41.33.75.75.75h8c.41 0 .75-.34.75-.75V7c0-.42-.34-.75-.75-.75H9Z"/><path fill="#EE4D4D" d="M11.5 6.25c-.42 0-.75.33-.75.75v3.5c0 .24.11.46.31.6 .19.14.44.17.67.1l1.26-.43 1.26.42c.22.07.48.03.67-.11 .19-.15.31-.37.31-.61v-3.5c0-.42-.34-.75-.75-.75h-3Z"/><g fill="#CFD8DC"><path d="M8.5 18.25c-1.25 0-2.25 1-2.25 2.25 0 1.24 1 2.25 2.25 2.25 1.24 0 2.25-1.01 2.25-2.25 0-1.25-1.01-2.25-2.25-2.25Z"/><path d="M16.5 18.25c-1.25 0-2.25 1-2.25 2.25 0 1.24 1 2.25 2.25 2.25 1.24 0 2.25-1.01 2.25-2.25 0-1.25-1.01-2.25-2.25-2.25Z"/></g></svg>