<svg viewBox="0 0 24 24" xmlns="http://www.w3.org/2000/svg"><path fill="#FFD071" fill-rule="evenodd" d="M9.11 4.4c-.42.05-.7.43-.64.84l.82 5.94c.05.41.43.69.84.63l5.94-.83c.41-.06.69-.44.63-.85l-.83-5.95c-.06-.42-.44-.7-.85-.64l-5.95.82Z"/><path fill="#FFC44D" d="M8.95 10.49c-.42.05-.7.43-.64.84l1.1 7.92c.05.41.43.69.84.63l7.92-1.11c.41-.06.69-.44.63-.85l-1.11-7.93c-.06-.42-.44-.7-.85-.64l-7.93 1.1Z"/><g fill="#EE4D4D"><path d="M11.42 10.14c-.42.05-.7.43-.64.84l.48 3.46c.03.23.17.44.39.55 .21.11.46.11.68 0l1.19-.6 1.3.24c.23.04.48-.03.65-.2 .17-.17.25-.41.22-.65l-.49-3.47c-.06-.42-.44-.7-.85-.64l-2.98.41Z"/><path fill="#EE4D4D" fill-rule="evenodd" d="M12.82 3.89l.37 2.72c.05.41-.23.78-.64.84 -.42.05-.79-.23-.85-.64l-.38-2.73 1.48-.21Z"/></g><path fill="#8B98A6" fill-rule="evenodd" d="M2.25 4.1c-.06-.42.22-.79.63-.85l1.98-.28c.41-.06.78.22.84.63l2.1 15.1 12.628-1.76c.41-.06.78.22.84.63 .05.41-.23.78-.64.84L7.24 20.27c-.42.05-.79-.23-.85-.64L4.28 4.52l-1.24.17c-.42.05-.79-.23-.85-.64Z"/><g fill="#ECEFF1"><path d="M9.56 18.48c-1.24.17-2.09 1.3-1.92 2.53 .17 1.23 1.3 2.08 2.53 1.91 1.23-.18 2.08-1.31 1.91-2.54 -.18-1.24-1.31-2.09-2.54-1.92Z"/><path d="M17.48 17.37c-1.24.17-2.09 1.3-1.92 2.53 .17 1.23 1.3 2.08 2.53 1.91 1.23-.18 2.08-1.31 1.91-2.54 -.18-1.24-1.31-2.09-2.54-1.92Z"/></g></svg>