<svg viewBox="0 0 24 24" xmlns="http://www.w3.org/2000/svg"><path fill="#ECEFF1" d="M12.33 2.82c-.22-.11-.46-.11-.68 0l-8.01 4c-.26.12-.42.38-.42.67v13c0 .41.33.75.75.75h16c.41 0 .75-.34.75-.75v-13c0-.29-.17-.55-.42-.68l-8-4Z"/><path fill="#A2ADB8" fill-rule="evenodd" d="M11.66 2.82c.21-.11.45-.11.67 0l10 5c.37.18.52.63.33 1s-.64.52-1.01.33l-9.67-4.84 -9.67 4.83c-.38.18-.83.03-1.01-.34 -.19-.38-.04-.83.33-1.01l10-5Z"/><path fill="#FFC44D" d="M7 9.75c-.42 0-.75.33-.75.75v5c0 .41.33.75.75.75h5c.41 0 .75-.34.75-.75v-5c0-.42-.34-.75-.75-.75H7Z"/><g fill="#FFD071"><path d="M7 14.75c-.42 0-.75.33-.75.75v5c0 .41.33.75.75.75h5c.41 0 .75-.34.75-.75v-5c0-.42-.34-.75-.75-.75H7Z"/><path d="M12 9.75c-.42 0-.75.33-.75.75v5c0 .41.33.75.75.75h5c.41 0 .75-.34.75-.75v-5c0-.42-.34-.75-.75-.75h-5Z"/></g><path fill="#FFC44D" d="M12 14.75c-.42 0-.75.33-.75.75v5c0 .41.33.75.75.75h5c.41 0 .75-.34.75-.75v-5c0-.42-.34-.75-.75-.75h-5Z"/><g fill="#EE4D4D" fill-rule="evenodd"><path d="M10.25 14.75v2.75c0 .41-.34.75-.75.75 -.42 0-.75-.34-.75-.75v-2.75h1.5Z"/><path d="M10.25 9.75v2.75c0 .41-.34.75-.75.75 -.42 0-.75-.34-.75-.75V9.75h1.5Z"/><path d="M15.25 14.75v2.75c0 .41-.34.75-.75.75 -.42 0-.75-.34-.75-.75v-2.75h1.5Z"/><path d="M15.25 9.75v2.75c0 .41-.34.75-.75.75 -.42 0-.75-.34-.75-.75V9.75h1.5Z"/></g></svg>