<svg viewBox="0 0 24 24" xmlns="http://www.w3.org/2000/svg"><path fill="#8B98A6" fill-rule="evenodd" d="M12 2.75c-1.25 0-2.25 1-2.25 2.25 0 1.24 1 2.25 2.25 2.25 1.24 0 2.25-1.01 2.25-2.25 0-1.25-1.01-2.25-2.25-2.25ZM8.25 5c0-2.08 1.67-3.75 3.75-3.75 2.07 0 3.75 1.67 3.75 3.75 0 2.07-1.68 3.75-3.75 3.75 -2.08 0-3.75-1.68-3.75-3.75Z"/><path fill="#CFD8DC" d="M7.06 7.25c-1.27 0-2.37.85-2.67 2.08l-2.5 9.99c-.44 1.73.87 3.41 2.66 3.41h14.87c1.78 0 3.1-1.69 2.66-3.42l-2.5-10c-.31-1.23-1.41-2.09-2.67-2.09H7.03Z"/></svg>