<svg viewBox="0 0 24 24" xmlns="http://www.w3.org/2000/svg"><path fill="#CFD8DC" d="M10 7.25c-.42 0-.75.33-.75.75v1.83c-2.36 1.05-4 3.41-4 6.16 0 3.72 3.02 6.75 6.75 6.75 1.88 0 3.35-.78 4.337-2.05 .96-1.26 1.41-2.93 1.41-4.71 0-.42-.34-.75-.75-.75h-1c-.41 0-.74.32-.75.73 -.01.01-.05.09-.2.21 -.21.17-.54.35-.93.52 -.81.33-1.71.52-2.13.52 -.7 0-1.25-.56-1.25-1.25 0-.7.55-1.25 1.25-1.25 1.51 0 2.75-1.24 2.75-2.75v-4c0-.42-.34-.75-.75-.75h-4Z"/><path fill="#5E94FF" d="M6.16 1.25c-.29 0-.54.15-.67.4L4.32 3.9c-.13.23-.12.51.02.74l2.33 3.75c.13.22.37.35.63.35h9.33c.25 0 .49-.14.63-.36l2.33-3.75c.13-.23.15-.51.02-.75l-1.17-2.25c-.13-.25-.39-.41-.67-.41H6.1Z"/></svg>