<svg viewBox="0 0 24 24" xmlns="http://www.w3.org/2000/svg"><path fill="#FFD071" d="M3 4.25c-.42 0-.75.33-.75.75v14c0 .41.33.75.75.75h18c.41 0 .75-.34.75-.75V5c0-.42-.34-.75-.75-.75H3Z"/><g fill="#FFC44D" fill-rule="evenodd"><path d="M2.25 5c0-.42.33-.75.75-.75h4.5c.41 0 .75.33.75.75 0 .41-.34.75-.75.75H3.75v12.5h3V11.5c0-.42.33-.75.75-.75 .41 0 .75.33.75.75V19c0 .41-.34.75-.75.75H3c-.42 0-.75-.34-.75-.75V5Z"/><path d="M6.75 5c0-.42.33-.75.75-.75H12c.41 0 .75.33.75.75v4c0 .41-.34.75-.75.75 -.42 0-.75-.34-.75-.75V5.75H7.5c-.42 0-.75-.34-.75-.75Zm.75 5.75c.41 0 .75.33.75.75v6.75h3V15c0-.42.33-.75.75-.75 .41 0 .75.33.75.75v4c0 .41-.34.75-.75.75H7.5c-.42 0-.75-.34-.75-.75v-7.5c0-.42.33-.75.75-.75Z"/><path d="M11.25 5c0-.42.33-.75.75-.75h4.5c.41 0 .75.33.75.75v7.5c0 .41-.34.75-.75.75 -.42 0-.75-.34-.75-.75V5.75h-3V8.5c0 .41-.34.75-.75.75 -.42 0-.75-.34-.75-.75V5Zm.75 9.25c.41 0 .75.33.75.75v3.25h3.75c.41 0 .75.33.75.75 0 .41-.34.75-.75.75H12c-.42 0-.75-.34-.75-.75v-4c0-.42.33-.75.75-.75Z"/><path d="M15.75 5c0-.42.33-.75.75-.75H21c.41 0 .75.33.75.75v14c0 .41-.34.75-.75.75h-4.5c-.42 0-.75-.34-.75-.75 0-.42.33-.75.75-.75h3.75V5.75h-3v6.75c0 .41-.34.75-.75.75 -.42 0-.75-.34-.75-.75V5Z"/></g><path fill="#FF884D" d="M3 4.25c-.42 0-.75.33-.75.75v3.07c0 .23.1.45.29.59l14.32 10.92c.13.09.29.15.45.15h3.67c.19 0 .38-.08.53-.22 .14-.15.21-.34.21-.54V16.1c0-.24-.11-.46-.3-.6L6.8 4.36c-.14-.1-.3-.16-.46-.16H2.95Z"/><g fill="#FFA071"><path d="M2 18.25c-.42 0-.75.33-.75.75v3c0 .41.33.75.75.75h20c.41 0 .75-.34.75-.75v-3c0-.42-.34-.75-.75-.75H2Z"/><path d="M2 1.25c-.42 0-.75.33-.75.75v3c0 .41.33.75.75.75h20c.41 0 .75-.34.75-.75V2c0-.42-.34-.75-.75-.75H2Z"/></g></svg>