<svg viewBox="0 0 24 24" xmlns="http://www.w3.org/2000/svg"><g fill-rule="evenodd"><path d="M20.76 2.35c-.98-.98-2.56-.98-3.54 0l-1.38 1.37c-.98.97-.98 2.55 0 3.53l.87.87c.97.97 2.55.97 3.53 0l1.37-1.38c.97-.98.97-2.56 0-3.54l-.88-.88Z"/><path d="M12.7 8.29c-.4-.4-1.03-.4-1.42 0l-1.5 1.5c-.31.3-.38.76-.19 1.15l2 4c.14.28.41.48.73.53 .31.05.64-.06.86-.28l2.5-2.5c.39-.4.39-1.03 0-1.42l-3-3.01Z"/><path d="M19.793 2.79l1.5-1.5 1.41 1.41 -1.5 1.5 -1.42-1.42Zm-15 15l6-6 1.41 1.41 -6.01 6 -1.42-1.42Z"/><path d="M12 6.5V5h2v1.5c0 .27.22.5.5.5C15.88 7 17 8.11 17 9.5c0 .27.22.5.5.5H19v2h-1.5c-1.39 0-2.5-1.12-2.5-2.5 0-.28-.23-.5-.5-.5C13.11 9 12 7.88 12 6.5Z"/><path d="M4 19c-.56 0-1 .44-1 1 0 .55.44 1 1 1 .55 0 1-.45 1-1 0-.56-.45-1-1-1Zm-3 1c0-1.66 1.34-3 3-3 1.65 0 3 1.34 3 3 0 1.65-1.35 3-3 3 -1.66 0-3-1.35-3-3Z"/></g></svg>