<svg viewBox="0 0 24 24" xmlns="http://www.w3.org/2000/svg"><path fill-rule="evenodd" d="M1 5c0-2.21 1.79-4 4-4h2 10 2c2.2 0 4 1.79 4 4v.96c0 1.63-.99 3.09-2.5 3.7v12.323c0 .55-.45 1-1 1h-15c-.56 0-1-.45-1-1V9.66C1.98 9.04 1 7.58 1 5.95v-.97Zm7 3c0-.56.44-1 1-1h3c.55 0 1 .44 1 1v.5c0 1.38 1.11 2.5 2.5 2.5 .27 0 .5.22.5.5v1c0 .31-.15.61-.4.8l-.4.3c-.76.56-1.2 1.45-1.2 2.4v1c0 .55-.45 1-1 1h-2c-.56 0-1-.45-1-1v-1.97c0-.53-.14-1.04-.4-1.49l-1.48-2.58c-.09-.16-.14-.33-.14-.5V7.99Zm1-3C7.34 5 6 6.34 6 8v2.46c0 .52.13 1.03.39 1.48l1.47 2.57c.08.15.13.32.13.49v1.96c0 1.65 1.34 3 3 3h2c1.65 0 3-1.35 3-3v-1c0-.32.14-.62.4-.8l.4-.3c.75-.57 1.2-1.46 1.2-2.4v-1c0-1.39-1.12-2.5-2.5-2.5 -.28 0-.5-.23-.5-.5v-.5c0-1.66-1.35-3-3-3h-3Z"/></svg>