<svg viewBox="0 0 24 24" xmlns="http://www.w3.org/2000/svg"><path fill-rule="evenodd" d="M12 1C5.92 1 1 5.92 1 12c0 6.07 4.92 11 11 11 6.07 0 11-4.93 11-11 0-6.08-4.93-11-11-11Zm2 11c-2.21 0-4 1.79-4 4 0 2.2 1.79 4 4 4 2.2 0 4-1.8 4-4 0-2.21-1.8-4-4-4Zm-10 .5C4 11.11 5.11 10 6.5 10 7.88 10 9 11.11 9 12.5 9 13.88 7.88 15 6.5 15 5.11 15 4 13.88 4 12.5ZM10.5 4C9.11 4 8 5.11 8 6.5 8 7.88 9.11 9 10.5 9 11.88 9 13 7.88 13 6.5 13 5.11 11.88 4 10.5 4ZM14 9c0-1.66 1.34-3 3-3 1.65 0 3 1.34 3 3 0 1.65-1.35 3-3 3 -1.66 0-3-1.35-3-3Z"/></svg>