<svg viewBox="0 0 24 24" xmlns="http://www.w3.org/2000/svg"><path fill-rule="evenodd" d="M1 12C1 5.92 5.92 1 12 1c6.07 0 11 4.92 11 11 0 6.07-4.93 11-11 11C5.92 23 1 18.07 1 12Zm13.35-7.64c-1.21-1.53-3.51-1.53-4.71 0l-.19.23c-.22.27-.56.41-.91.37l-.3-.04c-1.93-.23-3.56 1.4-3.33 3.32l.03.29c.04.34-.11.68-.38.9l-.24.18c-1.53 1.2-1.53 3.5 0 4.7l.23.18c.27.21.41.55.37.9l-.04.29C4.65 17.6 6.28 19.23 8.2 19l.29-.04c.34-.05.68.1.9.37l.18.23c1.2 1.52 3.5 1.52 4.7 0l.18-.24c.21-.28.55-.42.9-.38l.29.03c1.92.22 3.55-1.41 3.32-3.33l-.04-.3c-.05-.35.1-.69.37-.91l.23-.19c1.52-1.21 1.52-3.51 0-4.71l-.24-.19c-.28-.22-.42-.56-.38-.91l.03-.3c.22-1.93-1.41-3.56-3.33-3.33l-.3.03c-.35.04-.69-.11-.91-.38l-.19-.24Zm-2.36 3.13c-2.49 0-4.5 2.01-4.5 4.5 0 2.48 2.01 4.5 4.5 4.5 2.48 0 4.5-2.02 4.5-4.5 0-2.49-2.02-4.5-4.5-4.5Z"/></svg>