<svg viewBox="0 0 24 24" xmlns="http://www.w3.org/2000/svg"><path fill-rule="evenodd" d="M1.04 11c.5-5.61 5.21-10 10.95-10 5.03 0 9.28 3.38 10.58 8h-1.09c-1.66 0-3 1.34-3 3v1.75c0 .13-.12.25-.25.25 -.14 0-.25-.12-.25-.25v-.25c0-1.06-.66-1.96-1.58-2.33 -.39-2.1-2.23-3.68-4.43-3.68 -2.49 0-4.51 2.01-4.51 4.5 0 1.07.37 2.05 1 2.82v1.42c0 .41-.34.75-.75.75 -.42 0-.75-.34-.75-.75v-2.25c0-1.66-1.35-3-3-3H1Zm0 2c.5 5.6 5.21 10 10.95 10 6.07 0 11-4.93 11-11 0-.34-.02-.68-.05-1h-1.46c-.56 0-1 .44-1 1v1.75c0 1.24-1.01 2.25-2.25 2.25 -1.15 0-2.1-.86-2.24-1.98 -.75 1.46-2.27 2.47-4.02 2.47 -.53 0-1.04-.1-1.5-.26v0c0 1.51-1.24 2.75-2.76 2.75 -1.52 0-2.75-1.24-2.75-2.75v-2.25c0-.56-.45-1-1-1H1Z"/></svg>