<svg viewBox="0 0 24 24" xmlns="http://www.w3.org/2000/svg"><g fill-rule="evenodd"><path d="M21.12 2.7c-1.18-1.18-3.08-1.18-4.25 0L2.69 16.87c-1.18 1.17-1.18 3.07 0 4.24l.17.17c1.17 1.17 3.07 1.17 4.24 0L21.27 7.1c1.17-1.18 1.17-3.08 0-4.25l-.18-.18Z"/><path d="M18.29 7.29c.39-.4 1.02-.4 1.41 0l.87.87c1.56 1.56 1.56 4.09 0 5.65l-6.76 6.75c-1.57 1.56-4.1 1.56-5.66 0l-.88-.88c-.4-.4-.4-1.03 0-1.42l11-11Zm-8.88 11.7l.17.17c.78.78 2.04.78 2.82 0l6.75-6.76c.78-.79.78-2.05 0-2.83l-.18-.18 -9.59 9.58Z"/><path d="M5.7 16.7c-.4.39-1.03.39-1.42 0l-.88-.88c-1.57-1.57-1.57-4.1 0-5.66l6.75-6.76c1.56-1.57 4.09-1.57 5.65-.001l.87.87c.39.39.39 1.02 0 1.41l-11 11Zm8.87-11.71l-.18-.18c-.79-.79-2.05-.79-2.83 0L4.8 11.56c-.79.78-.79 2.04 0 2.82l.17.17 9.58-9.59Z"/></g></svg>