<svg viewBox="0 0 24 24" xmlns="http://www.w3.org/2000/svg"><g fill-rule="evenodd"><path d="M11 5c0-2.21 1.79-4 4-4h5c.55 0 1 .44 1 1v1c0 2.2-1.8 4-4 4h-5c-.56 0-1-.45-1-1V5Zm4-2c-1.11 0-2 .89-2 2h4c1.1 0 2-.9 2-2h-4Z"/><path d="M11.08 5C7.5 5 4.72 8.1 5.11 11.66l.13 1.25c.12 1.11-.23 2.23-.97 3.07L2.75 17.7c-.51.57-.79 1.32-.79 2.09 0 1.75 1.42 3.18 3.18 3.18h4.85c2.5 0 4.73-1.56 5.618-3.9l2.25-6c1.47-3.93-1.43-8.11-5.62-8.11h-1.2Z"/><path d="M8 1h2c1.65 0 3 1.34 3 3v2h-2V4c0-.56-.45-1-1-1H8V1Z"/></g></svg>