<svg viewBox="0 0 24 24" xmlns="http://www.w3.org/2000/svg"><path fill-rule="evenodd" d="M1 12C1 5.92 5.92 1 12 1c6.07 0 11 4.92 11 11 0 6.07-4.93 11-11 11C5.92 23 1 18.07 1 12Zm7.52-4.9c.72-.52 1.56-.88 2.47-1.03v3.5L8.51 7.09ZM7.1 8.51c-.52.72-.88 1.56-1.03 2.47h3.5L7.09 8.5Zm5.89 5.89v3.5c.91-.16 1.75-.52 2.47-1.03l-2.48-2.48Zm3.89 1.06c.51-.73.87-1.57 1.02-2.48h-3.51l2.47 2.47ZM6.07 12.98c.15.91.51 1.75 1.02 2.47l2.47-2.48H6.05Zm4.91 4.91c-.92-.16-1.76-.52-2.48-1.03l2.47-2.48v3.5Zm6.91-6.917h-3.51l2.47-2.48c.51.72.87 1.56 1.02 2.47Zm-4.917-4.92c.91.15 1.75.51 2.47 1.02l-2.48 2.47V6.03Zm-1-2.09c-4.42 0-8 3.58-8 8 0 4.41 3.58 8 8 8 4.41 0 8-3.59 8-8 0-4.42-3.59-8-8-8Z"/></svg>