<svg viewBox="0 0 24 24" xmlns="http://www.w3.org/2000/svg"><g fill-rule="evenodd"><path d="M7.5 9.18c0-2.32 1.87-4.19 4.18-4.19h.62c2.31 0 4.18 1.87 4.18 4.18v.54c0 .86.34 1.69.95 2.31 .98.98 1.54 2.32 1.54 3.72v.83c0 3.53-2.87 6.39-6.4 6.39h-1.22c-3.54 0-6.4-2.87-6.4-6.4v-.84c0-1.4.55-2.737 1.54-3.73 .61-.62.95-1.45.95-2.32v-.55Zm7 6.31c0 1.65-1.35 3-3 3v2c2.76 0 5-2.24 5-5h-2Z"/><path d="M11 5c0-2.21 1.79-4 4-4h5c.55 0 1 .44 1 1v1c0 2.2-1.8 4-4 4h-5c-.56 0-1-.45-1-1V5Zm4-2c-1.11 0-2 .89-2 2h4c1.1 0 2-.9 2-2h-4Z"/><path d="M8 1h2c1.65 0 3 1.34 3 3v2h-2V4c0-.56-.45-1-1-1H8V1Z"/></g></svg>