<svg viewBox="0 0 24 24" xmlns="http://www.w3.org/2000/svg"><g fill-rule="evenodd"><path d="M11 5c0-2.21 1.79-4 4-4h5c.55 0 1 .44 1 1v1c0 2.2-1.8 4-4 4h-5c-.56 0-1-.45-1-1V5Zm4-2c-1.11 0-2 .89-2 2h4c1.1 0 2-.9 2-2h-4Z"/><path d="M8 1h2c1.65 0 3 1.34 3 3v2h-2V4c0-.56-.45-1-1-1H8V1Z"/><path d="M11.68 5C9.36 5 7.49 6.87 7.49 9.18v.54c0 .86-.35 1.69-.96 2.31 -.99.98-1.55 2.32-1.55 3.72v.83c0 3.53 2.86 6.39 6.39 6.39h1.21c3.53 0 6.39-2.87 6.39-6.4v-.84c0-1.4-.56-2.737-1.55-3.73 -.62-.62-.96-1.45-.96-2.32v-.55c0-2.32-1.88-4.19-4.19-4.19h-.63Zm3.31 10.5v2h-2v-2h2Zm-4 2v-2h-2v2h2Z"/></g></svg>