<svg viewBox="0 0 24 24" xmlns="http://www.w3.org/2000/svg"><g fill-rule="evenodd"><path d="M5 11.5C5 9.01 7.01 7 9.5 7h5c2.48 0 4.5 2.01 4.5 4.5v7c0 2.48-2.02 4.5-4.5 4.5h-5C7.01 23 5 20.98 5 18.5v-7ZM9.5 9C8.11 9 7 10.11 7 11.5v7C7 19.88 8.11 21 9.5 21h5c1.38 0 2.5-1.12 2.5-2.5v-7c0-1.39-1.12-2.5-2.5-2.5h-5Z"/><path d="M12.83 1.44c-.19-.28-.5-.45-.84-.45 -.34 0-.65.16-.84.44L9.7 3.59 7.53 2.14c-.34-.23-.78-.23-1.12 0 -.34.22-.51.63-.43 1.02l1 5c.09.46.5.8.98.8h7.99c.47 0 .88-.34.98-.81l1-5c.07-.4-.09-.81-.43-1.03 -.34-.23-.78-.23-1.12-.01l-2.17 1.44 -1.45-2.17Z"/><path d="M9.5 7C7.01 7 5 9.01 5 11.5v7C5 20.98 7.01 23 9.5 23h5c2.48 0 4.5-2.02 4.5-4.5v-7C19 9.01 16.98 7 14.5 7h-5Zm2.5 6.43L13.18 12l-2.94-3.36 1.5-1.32 2.72 3.11 1.75-2.11 1.53 1.28 -1.96 2.34 2.93 3.35 -1.51 1.31 -2.73-3.12 -1.22 1.46 4.46 5.35 -1.54 1.28 -4.24-5.08 -1.19 1.42 2.93 3.35 -1.51 1.31 -2.73-3.12 -1.76 2.1 -1.54-1.29 1.95-2.35 -2.94-3.36 1.5-1.32 2.72 3.11 1.21-1.47L6.1 9.51l1.53-1.29 4.23 5.07Z"/></g></svg>