<svg viewBox="0 0 24 24" xmlns="http://www.w3.org/2000/svg"><g fill-rule="evenodd"><path d="M10.5 16c-.56 0-1 .44-1 1v3.5c0 1.38 1.11 2.5 2.5 2.5 1.38 0 2.5-1.12 2.5-2.5V17c0-.56-.45-1-1-1h-3Z"/><path d="M6.5 17c0 .55.44 1 1 1h9c.55 0 1-.45 1-1V5.5C17.5 3.01 15.48 1 13 1h-2C8.51 1 6.5 3.01 6.5 5.5V17Zm2-1V5.5C8.5 4.11 9.61 3 11 3h2c1.38 0 2.5 1.11 2.5 2.5V16h-7Z"/><path d="M11 1C8.81 1 7 2.55 6.58 4.61c-.18.86.22 1.61.67 2.08l.23-.23v.53h.48 1.01c.55 0 .99.44.99 1v4.75c0 1.24 1 2.25 2.25 2.25 1.24 0 2.25-1.01 2.25-2.25v-1.75c0-.56.44-1 1-1h.7 .29v-.98l.7.05 .29-3.5c0-.03 0-.06 0-.09 0-2.49-2.02-4.5-4.5-4.5h-2Z"/></g></svg>