<svg viewBox="0 0 24 24" xmlns="http://www.w3.org/2000/svg"><g fill-rule="evenodd"><path d="M12 5C9.58 5 7.57 6.7 7.1 8.98l-2.44 4.51c-1.02.82-1.68 2.08-1.68 3.5 0 2.48 2.01 4.5 4.5 4.5 .35 0 .7-.05 1.04-.13 .82.98 2.06 1.62 3.45 1.62 1.39 0 2.63-.64 3.45-1.63 .33.07.68.12 1.04.12 2.48 0 4.5-2.02 4.5-4.5 0-1.42-.66-2.68-1.68-3.51l-2.44-4.52c-.47-2.28-2.49-3.99-4.9-3.99Z"/><path d="M11 5c0-2.21 1.79-4 4-4h5c.55 0 1 .44 1 1v1c0 2.2-1.8 4-4 4h-5c-.56 0-1-.45-1-1V5Zm4-2c-1.11 0-2 .89-2 2h4c1.1 0 2-.9 2-2h-4Z"/><path d="M8 1h2c1.65 0 3 1.34 3 3v2h-2V4c0-.56-.45-1-1-1H8V1Z"/></g></svg>