<svg viewBox="0 0 24 24" xmlns="http://www.w3.org/2000/svg"><path fill-rule="evenodd" d="M12 1C5.92 1 1 5.92 1 12c0 6.07 4.92 11 11 11 6.07 0 11-4.93 11-11 0-6.08-4.93-11-11-11ZM8.09 11.76l3.7-.75c.06-.02.13-.02.19-.02h3.87c-.45-1.73-2.02-3-3.88-3 -1.55 0-2.49.63-3.09 1.52 -.43.62-.7 1.41-.83 2.237Zm8.8 1.23h.1c.55 0 1-.45 1-1 0-3.32-2.69-6-6-6 -2.23 0-3.78.98-4.74 2.4 -.93 1.37-1.27 3.08-1.27 4.59 0 .29.13.58.36.77 .2.17.47.24.74.22 .21.93.74 1.66 1.51 2.17 .95.62 2.17.83 3.37.83 2.41 0 4.43-1.72 4.9-4Zm-2.08 0H12.1l-3.01.75c.12.33.33.56.6.74 .49.32 1.26.5 2.28.5 1.3 0 2.41-.84 2.82-2Z"/></svg>