<svg viewBox="0 0 24 24" xmlns="http://www.w3.org/2000/svg"><g fill-rule="evenodd"><path d="M1.5 10c0-.28.22-.5.5-.5h20c.27 0 .5.22.5.5v3c0 .27-.23.5-.5.5H2c-.28 0-.5-.23-.5-.5v-3Zm1 .5v2h19v-2h-19Z"/><path d="M4.5 7c0-3.04 2.46-5.5 5.5-5.5h4c3.03 0 5.5 2.46 5.5 5.5v3c0 .27-.23.5-.5.5H5c-.28 0-.5-.23-.5-.5V7ZM10 2.5C7.51 2.5 5.5 4.51 5.5 7v2.5h13V7c0-2.49-2.02-4.5-4.5-4.5h-4Z"/><path d="M3 13c0-.28.22-.5.5-.5h17c.27 0 .5.22.5.5 0 5.21-4.01 9.5-9 9.5 -5 0-9-4.29-9-9.5Zm1.01.5c.24 4.48 3.75 8 7.98 8s7.74-3.52 7.98-8H3.99Z"/></g></svg>