<svg viewBox="0 0 24 24" xmlns="http://www.w3.org/2000/svg"><g fill-rule="evenodd"><path d="M7.5 7c0-.83.67-1.5 1.5-1.5h6c.82 0 1.5.67 1.5 1.5v2c0 .82-.68 1.5-1.5 1.5H9c-.83 0-1.5-.68-1.5-1.5V7ZM9 6.5c-.28 0-.5.22-.5.5v2c0 .27.22.5.5.5h6c.27 0 .5-.23.5-.5V7c0-.28-.23-.5-.5-.5H9Z"/><path d="M12 2.5c-1.39 0-2.5 1.11-2.5 2.5 0 .17.01.33.04.5h4.9c.03-.17.04-.33.04-.5 0-1.39-1.12-2.5-2.5-2.5ZM8.5 5c0-1.94 1.56-3.5 3.5-3.5 1.93 0 3.5 1.56 3.5 3.5 0 .4-.08.8-.2 1.16 -.08.19-.26.33-.48.33H9.16c-.22 0-.41-.14-.48-.34 -.13-.37-.2-.76-.2-1.17Z"/><path d="M9.54 20.26c.73.8 1.58 1.23 2.45 1.23 .87 0 1.72-.43 2.45-1.24 .73-.82 1.33-1.99 1.69-3.39l.96.24c-.39 1.52-1.06 2.85-1.93 3.81 -.88.95-1.98 1.564-3.2 1.564 -1.23 0-2.33-.61-3.2-1.564 -.88-.96-1.54-2.29-1.93-3.82l.96-.25c.35 1.4.95 2.57 1.69 3.38Z"/><path d="M2.34 12.832l5.27-6.16 .75.65 -5.28 6.15c-.39.45-.61 1.03-.61 1.62v2.5c0 1.04.84 1.88 1.88 1.88 .77 0 1.46-.47 1.75-1.19l3.4-8.51 .92.37 -3.41 8.5c-.44 1.09-1.5 1.81-2.68 1.81 -1.6 0-2.89-1.3-2.89-2.89v-2.51c0-.84.29-1.65.84-2.28Z"/><path d="M21.65 12.832l-5.28-6.16 -.76.65 5.27 6.15c.38.45.6 1.03.6 1.62v2.5c0 1.04-.85 1.88-1.89 1.88 -.78 0-1.47-.47-1.76-1.19l-3.41-8.51 -.93.37 3.4 8.5c.43 1.09 1.49 1.81 2.67 1.81 1.59 0 2.88-1.3 2.88-2.89v-2.51c0-.84-.3-1.65-.85-2.28Z"/><path d="M7.18 1.53l2.5 1 -.38.92 -2.5-1 .37-.93Z"/><path d="M17.18 2.46l-2.5 1 -.38-.93 2.5-1 .37.92Z"/></g></svg>