<svg viewBox="0 0 24 24" xmlns="http://www.w3.org/2000/svg"><g fill-rule="evenodd"><path d="M11.64 1.64c.19-.2.51-.2.7 0l6 6c.09.09.14.22.14.35v8c0 .27-.23.5-.5.5h-12c-.28 0-.5-.23-.5-.5v-8c0-.14.05-.26.14-.36l5.99-6ZM6.49 8.2v7.29h11v-7.3l-5.5-5.5 -5.5 5.5Z"/><path d="M11.64 1.64c.19-.2.51-.2.7 0l10 9.99 -.71.7 -9.65-9.65 -9.65 9.64 -.71-.71 10-10Z"/><path d="M12 9.5c-.83 0-1.5.67-1.5 1.5 0 .82.67 1.5 1.5 1.5 .82 0 1.5-.68 1.5-1.5 0-.83-.68-1.5-1.5-1.5ZM9.5 11c0-1.39 1.11-2.5 2.5-2.5 1.38 0 2.5 1.11 2.5 2.5 0 1.38-1.12 2.5-2.5 2.5 -1.39 0-2.5-1.12-2.5-2.5Z"/><path d="M11.5 22v-6h1v6h-1Z"/></g></svg>