<svg viewBox="0 0 24 24" xmlns="http://www.w3.org/2000/svg"><g fill-rule="evenodd"><path d="M3.59 1.7c.09-.14.24-.21.4-.21h16c.16 0 .31.07.4.2 .09.13.11.29.06.45l-.98 2.92v13.62l.97 3.15c.04.15.01.31-.08.44 -.1.12-.25.2-.41.2h-16c-.17 0-.32-.08-.41-.21 -.1-.14-.12-.3-.07-.46l.97-2.93V5.03L3.46 2.1c-.06-.16-.03-.33.06-.46Zm1.09.79l.78 2.34c.01.05.02.1.02.15v14c0 .05-.01.1-.03.15l-.79 2.34h14.62l-.8-2.58c-.02-.05-.03-.1-.03-.15V4.96c0-.06 0-.11.02-.16l.78-2.35H4.63Z"/><path d="M7.84 9.91C7 9.4 6.86 8.25 7.55 7.56l1.01-1.02c.69-.7 1.84-.55 2.34.28l1.46 2.43c.11.19.08.44-.08.61l-1.42 1.41c-.17.16-.42.19-.62.07L7.8 9.87Zm.41-1.64c-.24.23-.19.61.09.78l2.1 1.26 .86-.87 -1.27-2.11c-.17-.28-.56-.33-.79-.1L8.22 8.24Z"/><path d="M15.81 15.91c.83-.51.97-1.66.28-2.35l-1.02-1.02c-.69-.69-1.85-.55-2.35.28l-1.47 2.43c-.12.19-.09.44.07.61l1.41 1.41c.16.16.41.19.61.07l2.43-1.47Zm-.42-1.64c.23.23.18.61-.1.78l-2.11 1.26 -.87-.87 1.26-2.11c.16-.28.55-.33.78-.1l1.01 1.01Z"/></g></svg>