<svg viewBox="0 0 24 24" xmlns="http://www.w3.org/2000/svg"><g fill-rule="evenodd"><path d="M4 4c0-.28.22-.5.5-.5h3c.27 0 .5.22.5.5v16c0 .27-.23.5-.5.5h-3c-.28 0-.5-.23-.5-.5V4Zm1 .5v15h2v-15H5Z"/><path d="M16 4c0-.28.22-.5.5-.5h3c.27 0 .5.22.5.5v16c0 .27-.23.5-.5.5h-3c-.28 0-.5-.23-.5-.5V4Zm1 .5v15h2v-15h-2Z"/><path d="M1.5 6c0-.28.22-.5.5-.5h2.5v1h-2v2h2v1H2c-.28 0-.5-.23-.5-.5V6Zm6 .5v-1h9v1h-9Zm14 0h-2.25v-1H22c.27 0 .5.22.5.5v3c0 .27-.23.5-.5.5h-2.5v-1h2v-2Zm-14 2h9v1h-9v-1Z"/><path d="M1.5 13c0-.28.22-.5.5-.5h2.5v1h-2v2h2v1H2c-.28 0-.5-.23-.5-.5v-3Zm6 .5v-1h9v1h-9Zm14 0h-2.25v-1H22c.27 0 .5.22.5.5v3c0 .27-.23.5-.5.5h-2.5v-1h2v-2Zm-14 2h9v1h-9v-1Z"/></g></svg>