<svg viewBox="0 0 24 24" xmlns="http://www.w3.org/2000/svg"><g fill-rule="evenodd"><path d="M3.59 1.7c.09-.14.24-.21.4-.21h16c.16 0 .31.07.4.2 .09.13.11.29.06.45l-.98 2.92v13.62l.97 3.15c.04.15.01.31-.08.44 -.1.12-.25.2-.41.2h-16c-.17 0-.32-.08-.41-.21 -.1-.14-.12-.3-.07-.46l.97-2.93V5.03L3.46 2.1c-.06-.16-.03-.33.06-.46Zm1.09.79l.78 2.34c.01.05.02.1.02.15v14c0 .05-.01.1-.03.15l-.79 2.34h14.62l-.8-2.58c-.02-.05-.03-.1-.03-.15V4.96c0-.06 0-.11.02-.16l.78-2.35H4.63Z"/><path d="M12.5 11c0-1.39-1.12-2.5-2.5-2.5H8c-.28 0-.5.22-.5.5v1c0 1.38 1.11 2.5 2.5 2.5h2c.27 0 .5-.23.5-.5v-1ZM10 9.5c.82 0 1.5.67 1.5 1.5v.5H10c-.83 0-1.5-.68-1.5-1.5v-.5H10Z"/><path d="M12.5 11v4h-1v-4h1Z"/><path d="M11.5 11c0-1.39 1.11-2.5 2.5-2.5h2c.27 0 .5.22.5.5v1c0 1.38-1.12 2.5-2.5 2.5h-2c-.28 0-.5-.23-.5-.5v-1ZM14 9.5c-.83 0-1.5.67-1.5 1.5v.5H14c.82 0 1.5-.68 1.5-1.5v-.5H14Z"/></g></svg>