<svg viewBox="0 0 24 24" xmlns="http://www.w3.org/2000/svg"><path fill-rule="evenodd" d="M1.83 5.52c.22-.08.46 0 .58.2l4.37 7 .71-2.86c.04-.2.2-.35.4-.38 .19-.04.39.05.5.22l1.9 3.04 1.69-5.92c.05-.21.24-.36.46-.37 .21-.01.41.12.48.33l2.16 6.06 1.44-2.18c.1-.16.29-.25.48-.22 .18.02.34.15.4.33l.7 2.12 3.42-4.29c.14-.18.38-.24.59-.15 .2.09.32.31.28.54l-.92 5.04c-.05.22-.03.45.03.68l.87 3.05c.04.15.01.31-.09.43 -.1.12-.25.19-.4.19h-20c-.16 0-.31-.08-.4-.2 -.1-.13-.13-.29-.09-.44l.88-3.12c.05-.2.07-.4.04-.59l-.96-8.11c-.03-.24.11-.46.33-.54Zm.92 2.62l.69 5.88c.03.32.01.66-.08.97l-.71 2.47h18.67l-.69-2.42c-.11-.37-.13-.76-.06-1.14l.56-3.1 -2.77 3.45c-.12.14-.3.21-.48.17 -.19-.04-.33-.17-.39-.34l-.68-2.04 -1.44 2.14c-.11.15-.29.24-.48.21s-.35-.15-.41-.33L12.5 8.52l-1.58 5.5c-.06.18-.22.33-.42.35 -.2.02-.39-.07-.5-.24l-1.88-3.01 -.72 2.85c-.05.19-.21.34-.41.37 -.2.03-.4-.06-.51-.23L2.66 7.99Z"/></svg>