<svg viewBox="0 0 24 24" xmlns="http://www.w3.org/2000/svg"><g fill-rule="evenodd"><path d="M10 6.5c-1.94 0-3.5 1.56-3.5 3.5v9.3l2.34-.79c.17-.06.37-.02.51.12l2.64 2.64 2.64-2.65c.13-.14.33-.19.51-.13l2.34.78V9.96c0-1.94-1.57-3.5-3.5-3.5v-1c2.48 0 4.5 2.01 4.5 4.5v10c0 .16-.08.31-.21.4 -.14.09-.3.11-.46.06l-2.71-.91 -2.79 2.78c-.2.19-.52.19-.71 0L8.81 19.5l-2.71.9c-.16.05-.33.02-.46-.07 -.14-.1-.21-.25-.21-.41v-10c0-2.49 2.01-4.5 4.5-4.5v1Z"/><path d="M11.64 10.64c.19-.2.51-.2.7 0l2 2c.16.16.19.43.06.63l-2 2.99c-.1.13-.25.22-.42.22 -.17 0-.33-.09-.42-.23l-2.01-3c-.14-.2-.11-.47.06-.64l2-2Zm-1.01 2.41l1.35 2.03 1.35-2.04 -1.36-1.36 -1.36 1.35Z"/><path d="M11.23 2.5c-.41 0-.74.32-.74.73v2.55l1.5 1.5 2.66-2.67c.24-.25.17-.65-.13-.81l-.12-.06c-.2-.1-.43-.06-.58.09l-.5.49c-.12.11-.28.16-.44.13 -.16-.03-.3-.13-.37-.27l-.66-1.32c-.13-.25-.38-.41-.66-.41Zm-1.74.73c0-.96.77-1.74 1.73-1.74 .65 0 1.25.37 1.55.95l.34.69c.45-.46 1.15-.57 1.73-.29l.11.05c.91.45 1.11 1.67.38 2.4L12.31 8.3c-.2.19-.52.19-.71 0l-2-2c-.1-.1-.15-.23-.15-.36V3.17Z"/></g></svg>