<svg viewBox="0 0 24 24" xmlns="http://www.w3.org/2000/svg"><path fill-rule="evenodd" d="M1.5 2c0-.28.22-.5.5-.5h6c.82 0 1.5.67 1.5 1.5v3c0 .02-.01.04-.01.07l-1 6.96c.01 1.91 1.57 3.46 3.49 3.46 1.92 0 3.48-1.55 3.49-3.47l-1-6.97c-.01-.03-.01-.05-.01-.08v-3c0-.83.67-1.5 1.5-1.5h6c.27 0 .5.22.5.5v4c0 .27-.23.5-.5.5h-2.45l.93 8.44c0 .01 0 .03 0 .05 0 4.18-3.41 7.5-8.5 7.5 -5.1 0-8.5-3.32-8.5-7.5 0-.02 0-.04 0-.06l.93-8.45H1.92c-.28 0-.5-.23-.5-.5v-4Zm1 .5v3H5c.14 0 .27.06.37.16 .09.1.14.24.12.38l-1 8.97c.01 3.53 2.87 6.47 7.49 6.47s7.48-2.94 7.49-6.48l-1-8.98c-.02-.15.02-.29.12-.39 .09-.11.23-.17.37-.17h2.5v-3h-5.5c-.28 0-.5.22-.5.5v2.96l.99 6.96c0 .02 0 .04 0 .07 0 2.48-2.02 4.5-4.5 4.5 -2.49 0-4.5-2.02-4.5-4.5 0-.03 0-.05 0-.08l.99-6.97V2.93c0-.28-.23-.5-.5-.5h-5.5Z"/></svg>