<svg viewBox="0 0 24 24" xmlns="http://www.w3.org/2000/svg"><g fill-rule="evenodd"><path d="M11 2.5c-4.15 0-7.5 3.35-7.5 7.5 0 4.14 3.35 7.5 7.5 7.5 3.66 0 6.71-2.63 7.36-6.1l.98.18c-.75 3.93-4.21 6.9-8.36 6.9 -4.7 0-8.5-3.81-8.5-8.5 0-4.7 3.8-8.5 8.5-8.5 4.15 0 7.6 2.97 8.35 6.9l-.99.18c-.66-3.47-3.71-6.1-7.37-6.1Z"/><path d="M11 6.5c-1.94 0-3.5 1.56-3.5 3.5 0 1.93 1.56 3.5 3.5 3.5 1.46 0 2.72-.91 3.24-2.19l.92.37c-.67 1.64-2.29 2.81-4.18 2.81 -2.49 0-4.5-2.02-4.5-4.5 0-2.49 2.01-4.5 4.5-4.5 1.88 0 3.5 1.16 4.17 2.81l-.93.37c-.52-1.29-1.78-2.19-3.25-2.19Z"/><path d="M18.5 17.5v-6h1V18c0 .27-.23.5-.5.5h-3c-.28 0-.5-.23-.5-.5v-1.5h1v1h2Z"/><path d="M15.62 17.66c.09-.11.23-.17.37-.17h3c.14 0 .27.06.37.16 .09.1.13.25.12.39l-.5 4c-.04.25-.25.43-.5.43h-2c-.26 0-.47-.19-.5-.44l-.5-4c-.02-.15.02-.29.12-.4Zm.94.83l.375 3h1.11l.375-3h-1.87Z"/><path d="M10.5 8.5c0-.28.22-.5.5-.5h10c.27 0 .5.22.5.5v3c0 .27-.23.5-.5.5H11c-.28 0-.5-.23-.5-.5v-3Zm1 .5v2h9V9h-9Z"/></g></svg>