<svg viewBox="0 0 24 24" xmlns="http://www.w3.org/2000/svg"><g fill-rule="evenodd"><path d="M6.5 11c0-1.39 1.11-2.5 2.5-2.5h6c1.38 0 2.5 1.11 2.5 2.5v4c0 3.03-2.47 5.5-5.5 5.5 -3.04 0-5.5-2.47-5.5-5.5v-4ZM9 9.5c-.83 0-1.5.67-1.5 1.5v4c0 2.48 2.01 4.5 4.5 4.5 2.48 0 4.5-2.02 4.5-4.5v-4c0-.83-.68-1.5-1.5-1.5H9Z"/><path d="M19.5 19.29l-3.25-1.86 .49-.87 3.5 2c.15.08.25.25.25.43v3h-1v-2.71Z"/><path d="M4.49 19.29l3.24-1.86 -.5-.87 -3.5 2c-.16.08-.26.25-.26.43v3h1v-2.71Z"/><path d="M8.5 9c0 .27.22.5.5.5h6c.27 0 .5-.23.5-.5V7c0-1.94-1.57-3.5-3.5-3.5 -1.94 0-3.5 1.56-3.5 3.5v2Zm1-.5V7c0-1.39 1.11-2.5 2.5-2.5 1.38 0 2.5 1.11 2.5 2.5v1.5h-5Z"/><path d="M20.5 2v5c0 .16-.08.31-.21.4l-3.5 2.5 -.59-.82 3.29-2.36V1.97h1Z"/><path d="M3.49 2v5c0 .16.07.31.2.4l3.5 2.5 .58-.82 -3.3-2.36V1.97h-1Z"/><path d="M21.5 14.33l-4.69-1.88 .37-.93 5 2c.18.07.31.25.31.46v3.5h-1v-3.17Z"/><path d="M2.49 14.33l4.68-1.88 -.38-.93 -5 2c-.19.07-.32.25-.32.46v3.5h1v-3.17Z"/></g></svg>