<svg viewBox="0 0 24 24" xmlns="http://www.w3.org/2000/svg"><g fill-rule="evenodd"><path d="M13.18 6.47c-1.76-1.76-4.61-1.76-6.37 0l-.35.34c-1.76 1.75-1.76 4.6 0 6.36l7.58 7.58c.46.46 1.1.73 1.76.73h3.09l1.97.65c.78.26 1.52-.49 1.26-1.27l-.66-1.98v-3.1c0-.67-.27-1.3-.74-1.77l-7.59-7.59Zm-5.66.7c1.36-1.37 3.58-1.37 4.94 0l7.58 7.58c.28.28.43.66.43 1.06v3.17c0 .05 0 .1.02.15l.68 2.05 -2.06-.69c-.06-.02-.11-.03-.16-.03h-3.18c-.4 0-.78-.16-1.07-.44l-7.59-7.59c-1.37-1.37-1.37-3.59 0-4.95l.34-.35Z"/><path d="M7.5 2.5c.55 0 1 .44 1 1V6h1V3.5c0-1.11-.9-2-2-2 -.94 0-1.73.64-1.94 1.5l-.93-.74c-.68-.54-1.637-.49-2.25.12 -.61.6-.67 1.57-.13 2.24l.73.92c-.87.21-1.51 1-1.51 1.93 0 1.1.89 2 2 2h2.5v-1h-2.5c-.56 0-1-.45-1-1 0-.56.44-1 1-1h.5c.19 0 .36-.12.45-.29 .08-.18.05-.38-.07-.53L3.01 3.97c-.22-.28-.2-.67.05-.92 .24-.25.63-.27.91-.06l1.67 1.33c.15.12.35.14.52.06 .17-.09.28-.26.28-.46v-.5c0-.56.44-1 1-1Z"/></g></svg>