<svg viewBox="0 0 24 24" xmlns="http://www.w3.org/2000/svg"><g fill-rule="evenodd"><path d="M3 18.5c0-1.66 1.34-3 3-3h2c1.65 0 3 1.34 3 3V21c0 .27-.23.5-.5.5h-7c-.28 0-.5-.23-.5-.5v-2.5Zm3-2c-1.11 0-2 .89-2 2v2h6v-2c0-1.11-.9-2-2-2H6Z"/><path d="M13 18.5c0-1.66 1.34-3 3-3h2c1.65 0 3 1.34 3 3V21c0 .27-.23.5-.5.5h-7c-.28 0-.5-.23-.5-.5v-2.5Zm3-2c-1.11 0-2 .89-2 2v2h6v-2c0-1.11-.9-2-2-2h-2Z"/><path d="M5 4.5c0-1.11.89-2 2-2 1.1 0 2 .89 2 2v.37c.73-.43 1.71-.26 2.25.46 .51.69.45 1.65-.17 2.27L9.45 9.22l-.98 6.83c-.04.24-.25.42-.5.42h-2c-.25 0-.46-.19-.5-.43L4.49 9.2 2.86 7.57c-.62-.62-.69-1.58-.17-2.28 .54-.73 1.51-.9 2.25-.47v-.38Zm2-1c-.56 0-1 .44-1 1V6c0 .2-.13.38-.31.46 -.19.07-.41.03-.55-.11l-.5-.5c-.32-.32-.85-.29-1.12.07 -.23.29-.2.7.06.96l1.74 1.74c.07.07.12.17.14.28l.93 6.57h1.13l.93-6.58c.01-.11.06-.21.14-.29l1.74-1.75c.25-.26.28-.68.06-.97 -.27-.36-.8-.4-1.12-.08l-.5.49c-.15.14-.36.18-.55.1 -.19-.08-.31-.26-.31-.47v-1.5c0-.56-.45-1-1-1Z"/><path d="M15 4.5c0-1.11.89-2 2-2 1.1 0 2 .89 2 2v.37c.73-.43 1.71-.26 2.25.46 .51.69.45 1.65-.17 2.27l-1.63 1.62 -.98 6.83c-.04.24-.25.42-.5.42h-2c-.25 0-.46-.19-.5-.43l-.98-6.84 -1.63-1.63c-.62-.62-.69-1.58-.17-2.28 .54-.73 1.51-.9 2.25-.47v-.38Zm2-1c-.56 0-1 .44-1 1V6c0 .2-.13.38-.31.46 -.19.07-.41.03-.55-.11l-.5-.5c-.32-.32-.85-.29-1.12.07 -.23.29-.2.7.06.96l1.74 1.74c.07.07.12.17.14.28l.93 6.57h1.13l.93-6.58c.01-.11.06-.21.14-.29l1.74-1.75c.25-.26.28-.68.06-.97 -.27-.36-.8-.4-1.12-.08l-.5.49c-.15.14-.36.18-.55.1 -.19-.08-.31-.26-.31-.47v-1.5c0-.56-.45-1-1-1Z"/><path d="M22 21.5H2v-1h20v1Z"/></g></svg>