<svg viewBox="0 0 24 24" xmlns="http://www.w3.org/2000/svg"><g fill-rule="evenodd"><path d="M18.47 9.76c-1.37-1.37-3.59-1.37-4.95 0l-3.76 3.75c-1.37 1.36-1.37 3.58 0 4.94l3.12 3.12c.59.59 1.43.84 2.25.68l3.82-.77 1.92.64c.78.26 1.52-.49 1.26-1.27l-.65-1.93 .76-3.83c.16-.82-.1-1.67-.69-2.26L18.42 9.7Zm-4.25.7c.97-.98 2.55-.98 3.53 0l3.12 3.12c.35.35.5.86.41 1.35l-.8 3.95c-.02.08-.02.17.01.25l.68 2.05 -2.06-.69c-.09-.03-.18-.04-.26-.02l-3.96.79c-.5.09-1.01-.06-1.36-.42l-3.13-3.13c-.98-.98-.98-2.56 0-3.54l3.75-3.76Z"/><path d="M7.5 2.5c.55 0 1 .44 1 1v3c0 .12.04.24.12.33l3.99 4.5 .74-.67L9.47 6.3V3.49c0-1.11-.9-2-2-2 -.94 0-1.73.64-1.94 1.5l-.93-.74c-.68-.54-1.64-.49-2.25.12 -.61.6-.67 1.57-.13 2.24l.73.92c-.87.21-1.51 1-1.51 1.93 0 1.1.89 2 2 2h2.8l4.35 3.87 .66-.75 -4.5-4c-.1-.09-.21-.13-.34-.13h-3c-.56 0-1-.45-1-1 0-.56.44-1 1-1h.5c.19 0 .36-.12.45-.29 .08-.18.05-.38-.07-.53L2.95 3.95c-.22-.28-.2-.67.05-.92 .24-.25.63-.27.91-.06L5.58 4.3c.15.12.35.14.52.06 .17-.09.28-.26.28-.46v-.5c0-.56.44-1 1-1Z"/></g></svg>