<svg viewBox="0 0 24 24" xmlns="http://www.w3.org/2000/svg"><g fill-rule="evenodd"><path d="M5.94 10.03c-.27-2.42 1.62-4.54 4.05-4.54v1c-1.84 0-3.27 1.59-3.07 3.42l.55 5.02c0 .04 0 .09-.01.13l-.82 4.86 2.03-1.36c.19-.14.46-.11.63.06l2.64 2.64 2.64-2.65c.16-.17.43-.2.63-.07l2.03 1.35 -.82-4.87c-.01-.05-.01-.1-.01-.14l.55-5.03c.2-1.83-1.23-3.43-3.07-3.43v-1c2.43 0 4.32 2.11 4.05 4.53l-.56 4.95 .98 5.93c.03.19-.06.39-.23.5 -.17.1-.39.1-.55-.01l-2.66-1.78 -2.72 2.71c-.2.19-.52.19-.71 0l-2.72-2.72 -2.66 1.77c-.17.11-.39.11-.55 0 -.17-.11-.26-.31-.23-.51l.98-5.94 -.56-4.96Z"/><path d="M11.64 9.64c.19-.2.51-.2.7 0l2 1.99c.16.16.19.43.06.63l-2 2.99c-.1.13-.25.22-.42.22 -.17 0-.33-.09-.42-.23l-2.01-3c-.14-.2-.11-.47.06-.64l2-2Zm-1.01 2.41l1.35 2.03 1.35-2.04 -1.36-1.36 -1.36 1.35Z"/><path d="M11.23 2.5c-.41 0-.74.32-.74.73v2.55l1.5 1.5 2.66-2.67c.24-.25.17-.65-.13-.81l-.12-.06c-.2-.1-.43-.06-.58.09l-.5.49c-.12.11-.28.16-.44.13 -.16-.03-.3-.13-.37-.27l-.66-1.32c-.13-.25-.38-.41-.66-.41Zm-1.74.73c0-.96.77-1.74 1.73-1.74 .65 0 1.25.37 1.55.95l.34.69c.45-.46 1.15-.57 1.73-.29l.11.05c.91.45 1.11 1.67.38 2.4L12.31 8.3c-.2.19-.52.19-.71 0l-2-2c-.1-.1-.15-.23-.15-.36V3.17Z"/><path d="M8.73 15l.78-3.14 .97.24 -.79 3.13c-.1.36.01.75.28 1.02l.79.79c.07.07.19.06.25-.03 .46-.7 1.47-.7 1.93 0 .05.08.17.09.25.02l.79-.8c.26-.27.37-.66.28-1.03l-.79-3.14 .97-.25 .78 3.13c.17.71-.04 1.46-.55 1.97l-.8.79c-.52.51-1.39.43-1.79-.18 -.07-.1-.21-.1-.28 0 -.41.61-1.28.69-1.79.17l-.8-.8c-.52-.52-.73-1.27-.55-1.98Z"/></g></svg>