<svg viewBox="0 0 24 24" xmlns="http://www.w3.org/2000/svg"><g fill-rule="evenodd"><path d="M1.5 11.5c0-.28.22-.5.5-.5h8c.27 0 .5.22.5.5v6c0 .27-.23.5-.5.5H8v-1h1.5v-5h-7v5H4v1H2c-.28 0-.5-.23-.5-.5v-6Z"/><path d="M12.02 4.34c.06-.21.25-.35.47-.35h5.5c.27 0 .5.22.5.5v6c0 .27-.23.5-.5.5h-3.15l-2.39 6.66c-.08.19-.26.33-.48.33h-2c-.28 0-.5-.23-.5-.5v-5.5c0-.06 0-.11.02-.16l2.5-7.51Zm.83.65l-2.37 7.08v4.91h1.14L14 10.31c.07-.2.25-.34.47-.34h3v-5h-4.64Z"/><path d="M6 16c-.83 0-1.5.67-1.5 1.5 0 .82.67 1.5 1.5 1.5 .82 0 1.5-.68 1.5-1.5 0-.83-.68-1.5-1.5-1.5Zm-2.5 1.5C3.5 16.11 4.61 15 6 15c1.38 0 2.5 1.11 2.5 2.5C8.5 18.88 7.38 20 6 20c-1.39 0-2.5-1.12-2.5-2.5Z"/><path d="M18.5 13c-1.66 0-3 1.34-3 3 0 1.65 1.34 3 3 3 1.65 0 3-1.35 3-3 0-1.66-1.35-3-3-3Zm-4 3c0-2.21 1.79-4 4-4 2.2 0 4 1.79 4 4 0 2.2-1.8 4-4 4 -2.21 0-4-1.8-4-4Z"/><path d="M14.02 10.33c.07-.2.25-.34.47-.34h7.5v1h-7.15l-2.39 6.66c-.08.19-.26.33-.48.33h-2v-1h1.64l2.38-6.67Z"/></g></svg>