<svg viewBox="0 0 24 24" xmlns="http://www.w3.org/2000/svg"><g fill-rule="evenodd"><path d="M6.5 5c0-1.39 1.11-2.5 2.5-2.5h6c1.38 0 2.5 1.11 2.5 2.5v2c0 .27-.23.5-.5.5H7c-.28 0-.5-.23-.5-.5V5ZM9 3.5c-.83 0-1.5.67-1.5 1.5v1.5h9V5c0-.83-.68-1.5-1.5-1.5H9Z"/><path d="M7.5 7c0-.28.22-.5.5-.5h8c.27 0 .5.22.5.5v5c0 .27-.23.5-.5.5H8c-.28 0-.5-.23-.5-.5V7Zm1 .5v4h7v-4h-7Z"/><path d="M18 12.5H6v-1h12v1Z"/><path d="M5.5 21.9l2-10 .98.19 -2 10 -.99-.2Z"/><path d="M18.49 21.9l-2-10 -.99.19 2 10 .98-.2Z"/><path d="M7 16.5h10v1H7v-1Z"/></g></svg>