<svg viewBox="0 0 24 24" xmlns="http://www.w3.org/2000/svg"><g fill-rule="evenodd"><path d="M4.5 14c0-.28.22-.5.5-.5h14c.27 0 .5.22.5.5v8c0 .27-.23.5-.5.5H5c-.28 0-.5-.23-.5-.5v-8Zm1 .5v7h13v-7h-13Z"/><path d="M6.5 2c0-.28.22-.5.5-.5h10c.27 0 .5.22.5.5v12h-1V2.5h-9V14h-1V2Z"/><path d="M19.5 6.5H17v-1h3c.27 0 .5.22.5.5v2.5H22v1h-2c-.28 0-.5-.23-.5-.5V6.5Z"/><path d="M9.62 7.17c.09-.11.23-.18.37-.18h4c.14 0 .28.06.37.17 .09.1.13.25.11.39l-.5 3.49c-.04.24-.25.42-.5.42h-3c-.25 0-.46-.19-.5-.43l-.5-3.5c-.03-.15.02-.29.11-.4Zm.95.82l.35 2.5h2.13l.35-2.5h-2.85Z"/><path d="M12.5 2v5.5h-1V2h1Z"/></g></svg>