<svg viewBox="0 0 24 24" xmlns="http://www.w3.org/2000/svg"><g fill-rule="evenodd"><path d="M12.52 11.5h8.945c-.25-2.25-2.16-4-4.48-4 -2.32 0-4.23 1.75-4.48 4Zm-1.03.5c0-3.04 2.46-5.5 5.5-5.5 3.03 0 5.5 2.46 5.5 5.5 0 .27-.23.5-.5.5h-10c-.28 0-.5-.23-.5-.5Z"/><path d="M2.52 12.5h8.94c-.25 2.25-2.16 4-4.48 4 -2.32 0-4.23-1.75-4.48-4ZM1.49 12c0 3.03 2.46 5.5 5.5 5.5 3.03 0 5.5-2.47 5.5-5.5 0-.28-.23-.5-.5-.5h-10c-.28 0-.5.22-.5.5Z"/><path d="M11.5 2.52c-2.25.24-4 2.15-4 4.47 0 2.31 1.75 4.22 4 4.47V2.51Zm-5 4.47c0-3.04 2.46-5.5 5.5-5.5 .27 0 .5.22.5.5v10c0 .27-.23.5-.5.5 -3.04 0-5.5-2.47-5.5-5.5Z"/><path d="M12.5 12.52c2.25.24 4 2.15 4 4.47 0 2.31-1.75 4.22-4 4.47V12.51Zm5 4.47c0-3.04-2.47-5.5-5.5-5.5 -.28 0-.5.22-.5.5v10c0 .27.22.5.5.5 3.03 0 5.5-2.47 5.5-5.5Z"/></g></svg>