<svg viewBox="0 0 24 24" xmlns="http://www.w3.org/2000/svg"><path fill="#8B98A6" d="M10.5 15.75c-.33 0-.61.2-.72.51l-1 3c-.08.22-.04.48.1.67 .14.19.36.31.6.31h4.99c.24 0 .46-.12.6-.32 .14-.2.17-.45.1-.68l-1-3c-.11-.31-.39-.52-.72-.52h-3Z"/><path fill="#5E94FF" fill-rule="evenodd" d="M2.25 19.5c0-.42.33-.75.75-.75h18c.41 0 .75.33.75.75 0 .41-.34.75-.75.75H3c-.42 0-.75-.34-.75-.75Z"/><path fill="#ECEFF1" d="M2 3.75c-.42 0-.75.33-.75.75v12c0 .41.33.75.75.75h20c.41 0 .75-.34.75-.75v-12c0-.42-.34-.75-.75-.75H2Z"/><g fill="#5E94FF" fill-rule="evenodd"><path d="M1.25 4.5c0-.42.33-.75.75-.75h20c.41 0 .75.33.75.75v12c0 .41-.34.75-.75.75H2c-.42 0-.75-.34-.75-.75v-12Zm1.5.75v10.5h18.5V5.25H2.75Z"/><g fill="#FFC44D"><path d="M16.27 7.3c.38.15.57.59.41.97l-.89 2.22 .88 2.22c.15.38-.04.82-.42.97 -.39.15-.83-.04-.98-.42l-.82-2.03h-.25v1.75c0 .41-.34.75-.75.75 -.42 0-.75-.34-.75-.75V7.97c0-.42.33-.75.75-.75 .41 0 .75.33.75.75v1.75h.24l.81-2.03c.15-.39.59-.58.97-.42Z"/><path d="M7.25 8c0-.42.33-.75.75-.75h3c.41 0 .75.33.75.75v2.5c0 .41-.34.75-.75.75H8.75v1H11c.41 0 .75.33.75.75 0 .41-.34.75-.75.75H8c-.42 0-.75-.34-.75-.75v-2.5c0-.42.33-.75.75-.75h2.25v-1H8c-.42 0-.75-.34-.75-.75Z"/></g></g></svg>