<svg viewBox="0 0 24 24" xmlns="http://www.w3.org/2000/svg"><path fill="#CFD8DC" d="M2 1.25c-.42 0-.75.33-.75.75v20c0 .41.33.75.75.75h20c.41 0 .75-.34.75-.75V2c0-.42-.34-.75-.75-.75H2Z"/><g fill="#5E94FF" fill-rule="evenodd"><path d="M6.5 9.18c.41 0 .75.33.75.75v9.72c0 .41-.34.75-.75.75 -.42 0-.75-.34-.75-.75V9.92c0-.42.33-.75.75-.75Z"/><path d="M12 9.18c.41 0 .75.33.75.75v9.72c0 .41-.34.75-.75.75 -.42 0-.75-.34-.75-.75V9.92c0-.42.33-.75.75-.75Z"/><path d="M17.5 9.18c.41 0 .75.33.75.75v9.72c0 .41-.34.75-.75.75 -.42 0-.75-.34-.75-.75V9.92c0-.42.33-.75.75-.75Z"/><g fill="#4DC4FF"><path d="M3.75 18c0-.42.33-.75.75-.75h4c.41 0 .75.33.75.75 0 .41-.34.75-.75.75h-4c-.42 0-.75-.34-.75-.75Z"/><path d="M9.25 12.5c0-.42.33-.75.75-.75h4c.41 0 .75.33.75.75 0 .41-.34.75-.75.75h-4c-.42 0-.75-.34-.75-.75Z"/><path d="M14.75 15.5c0-.42.33-.75.75-.75h4c.41 0 .75.33.75.75 0 .41-.34.75-.75.75h-4c-.42 0-.75-.34-.75-.75Z"/></g></g><path fill="#4DC4FF" d="M6 3.75c-1.25 0-2.25 1-2.25 2.25 0 1.24 1 2.25 2.25 2.25 1.24 0 2.25-1.01 2.25-2.25 0-1.25-1.01-2.25-2.25-2.25Z"/><path fill="#5E94FF" d="M11 3.75c-.42 0-.75.33-.75.75v3c0 .41.33.75.75.75h8c.41 0 .75-.34.75-.75v-3c0-.42-.34-.75-.75-.75h-8Z"/></svg>