<svg viewBox="0 0 24 24" xmlns="http://www.w3.org/2000/svg"><path fill="#ECEFF1" d="M6 1.25C4.48 1.25 3.25 2.48 3.25 4v16c0 1.51 1.23 2.75 2.75 2.75h12c1.51 0 2.75-1.24 2.75-2.75V8.91c0-.81-.36-1.57-.97-2.09L14.04 1.9c-.5-.43-1.14-.67-1.79-.67H5.98Z"/><path fill="#8B98A6" d="M14.31 2.13c-.82-.7-2.07-.12-2.07.94v2.91c0 1.51 1.23 2.75 2.75 2.75h3.64c1.16 0 1.69-1.45.81-2.2l-5.15-4.42Z"/><path fill="#5E94FF" d="M7 9.75c-.42 0-.75.33-.75.75v9c0 .41.33.75.75.75h10c.41 0 .75-.34.75-.75v-9c0-.42-.34-.75-.75-.75H7Z"/><path fill="#ECEFF1" d="M10.89 11.864c-.24-.15-.53-.16-.77-.02 -.24.13-.39.38-.39.65v5c0 .27.14.52.38.65 .23.13.52.12.76-.02l4-2.5c.21-.14.35-.38.35-.64s-.14-.5-.36-.64l-4-2.5Z"/></svg>