<svg viewBox="0 0 24 24" xmlns="http://www.w3.org/2000/svg"><path fill="#FFC44D" d="M5.5 5.25c-.22 0-.42.09-.57.25 -.15.16-.21.37-.19.58l2 16c.04.37.36.657.74.657h9c.37 0 .69-.29.74-.657l2-16c.02-.22-.04-.43-.19-.59 -.15-.17-.35-.26-.57-.26h-13Z"/><g fill="#8B98A6" fill-rule="evenodd"><path d="M6.25 2c0-.42.33-.75.75-.75h4c.34 0 .64.23.72.56l1 4c.1.4-.15.8-.55.9 -.41.1-.81-.15-.91-.55l-.86-3.44H6.98c-.42 0-.75-.34-.75-.75Z"/><path fill="#ECEFF1" d="M3.25 6c0-.42.33-.75.75-.75h16c.41 0 .75.33.75.75 0 .41-.34.75-.75.75H4c-.42 0-.75-.34-.75-.75Z"/></g></svg>