<svg viewBox="0 0 24 24" xmlns="http://www.w3.org/2000/svg"><g fill="#5E94FF"><path d="M8 14.25c-.42 0-.75.33-.75.75v7c0 .41.33.75.75.75h5c.41 0 .75-.34.75-.75v-7c0-.42-.34-.75-.75-.75H8Z"/><path d="M18.75 10c0-.24-.12-.46-.3-.6 -.19-.15-.44-.19-.66-.13l-3.5 1c-.33.09-.55.38-.55.72v2c0 .33.22.62.54.72l3.5 1c.22.06.46.01.65-.13 .18-.15.29-.37.29-.6v-4Z"/><path d="M13.5 1.25c-1.8 0-3.25 1.45-3.25 3.25 0 1.79 1.45 3.25 3.25 3.25 1.79 0 3.25-1.46 3.25-3.25 0-1.8-1.46-3.25-3.25-3.25Z"/><path d="M7.5 3.25c-1.25 0-2.25 1-2.25 2.25 0 1.24 1 2.25 2.25 2.25 1.24 0 2.25-1.01 2.25-2.25 0-1.25-1.01-2.25-2.25-2.25Z"/><path fill="#5E94FF" fill-rule="evenodd" d="M5.75 22c0-.42.33-.75.75-.75h8c.41 0 .75.33.75.75 0 .41-.34.75-.75.75h-8c-.42 0-.75-.34-.75-.75Z"/></g><path fill="#CFD8DC" d="M6.5 8.25c-.42 0-.75.33-.75.75v6c0 .41.33.75.75.75h8c.41 0 .75-.34.75-.75V9c0-.42-.34-.75-.75-.75h-8Z"/></svg>