<svg viewBox="0 0 24 24" xmlns="http://www.w3.org/2000/svg"><path fill="#ECEFF1" d="M2.99 15.25c-.42 0-.75.33-.75.75v6c0 .41.33.75.75.75h19c.41 0 .75-.34.75-.75v-6c0-.42-.34-.75-.75-.75h-19Z"/><path fill="#8B98A6" d="M2.99 11.25c-.42 0-.75.33-.75.75v4c0 .41.33.75.75.75h19c.41 0 .75-.34.75-.75v-4c0-.42-.34-.75-.75-.75h-19Z"/><path fill="#ECEFF1" fill-rule="evenodd" d="M5.28 16.75l.54-1.09 .66.33 -.67-.34 2-4v0l.2-.42h1.67l-.55 1.08v0l-2 4 -.21.41H5.24Zm5.17 0H8.77l.54-1.09 .67.33 -.68-.34 2-4 .65.32 -.66-.33 .2-.42h1.67l-.55 1.08 -2 4 -.21.41Zm3.5 0h-1.68l.54-1.09 .67.33 -.68-.34 2-4 .2-.42h1.67l-.55 1.08 -2 4 -.21.41Zm3.5 0h-1.68l.54-1.09 2-4 .2-.42h1.67l-.55 1.08 -2 4 -.21.41Z"/><path fill="#8B98A6" d="M21.85 1.98c-.03-.2-.14-.38-.3-.5 -.17-.12-.37-.17-.56-.14L2.19 4.2c-.41.06-.69.44-.63.84l.57 3.95c.02.19.13.37.29.49 .16.11.36.16.55.13l18.79-2.87c.4-.07.68-.45.62-.85l-.58-3.96Z"/><path fill="#ECEFF1" fill-rule="evenodd" d="M15.09 2.24l1.67-.26 -.4 1.12 -1.41 4.23 -.16.49 -1.66.25 .38-1.22 0-.01v0l1.4-4.25 0-.02 0 0 .13-.39Zm-3.48.52l1.66-.26 -.37 1.09 -.01 0 -1.41 4.24 -.01 0 -.18.52 -1.67.25 .41-1.26 0-.01 1.4-4.25 0-.01 .12-.37Zm-3.48.52l1.65-.26 -.34 1.05 -.01 0 -.01-.01L8.01 8.3 8 8.31l-.01-.01 -.19.54 -1.68.25 .45-1.29 1.4-4.24 .1-.34Zm8.51 4.26l.35-1.18 0-.02 1.4-4.25c0-.01 0-.02 0-.03l.14-.41 1.69-.26 -.43 1.16 -1.41 4.22 -.15.47 -1.65.25Z"/><path fill="#CFD8DC" d="M3.99 8.25c-1.25 0-2.25 1-2.25 2.25 0 1.24 1 2.25 2.25 2.25 1.24 0 2.25-1.01 2.25-2.25 0-1.25-1.01-2.25-2.25-2.25Z"/></svg>