<svg viewBox="0 0 24 24" xmlns="http://www.w3.org/2000/svg"><path fill="#FFC44D" d="M12 1.25C6.06 1.25 1.25 6.06 1.25 12c0 5.93 4.81 10.75 10.75 10.75 5.93 0 10.75-4.82 10.75-10.75 0-5.94-4.82-10.75-10.75-10.75Z"/><g fill="#ECEFF1"><path d="M7.23 13.63c-.42 0-.75.33-.75.75 0 1.68.6 3.08 1.62 4.05 1.01.96 2.4 1.45 3.88 1.45s2.86-.5 3.88-1.46c1.02-.97 1.62-2.37 1.62-4.06 0-.42-.34-.75-.75-.75H7.2Z"/><g fill="#ECEFF1" fill-rule="evenodd"><path d="M13.42 11.79c.41 0 .75-.34.75-.75 0-.72.24-1.23.6-1.56 .36-.35.88-.55 1.5-.55s1.14.2 1.5.54c.35.33.6.84.6 1.55 0 .41.33.75.75.75 .41 0 .75-.34.75-.75 0-1.09-.4-2.01-1.08-2.65 -.68-.64-1.59-.96-2.54-.96 -.96 0-1.87.32-2.54.95 -.69.64-1.08 1.56-1.08 2.64 0 .41.33.75.75.75Z"/><path d="M4.85 11.79c.41 0 .75-.34.75-.75 0-.72.24-1.23.6-1.56 .36-.35.88-.55 1.5-.55s1.14.2 1.5.54c.35.33.6.84.6 1.55 0 .41.33.75.75.75 .41 0 .75-.34.75-.75 0-1.09-.4-2.01-1.08-2.65 -.68-.64-1.59-.96-2.54-.96 -.96 0-1.87.32-2.54.95C4.45 9 4.06 9.92 4.06 11c0 .41.33.75.75.75Z"/></g></g></svg>