<svg viewBox="0 0 24 24" xmlns="http://www.w3.org/2000/svg"><path fill="#CFD8DC" fill-rule="evenodd" d="M2.79 13.77c.39-.12.81.11.92.51l1 3.5c.11.39-.12.81-.52.92 -.4.11-.82-.12-.93-.52l-1-3.5c-.12-.4.11-.82.51-.93Z"/><path fill="#CFD8DC" d="M15.25 5.5c0-.24-.12-.47-.31-.61 -.2-.15-.45-.19-.67-.12l-9.51 3c-.32.09-.53.38-.53.71v5.99c0 .32.21.61.52.71l9.5 3c.22.07.47.03.66-.12 .19-.15.3-.37.3-.61v-12Z"/><path fill="#EE4D4D" d="M5 7.75c.41 0 .75.33.75.75v6c0 .41-.34.75-.75.75H2c-.42 0-.75-.34-.75-.75v-6c0-.42.33-.75.75-.75h3Z"/><g fill="#8B98A6" fill-rule="evenodd"><path d="M15.75 9c0-.42.33-.75.75-.75 1.79 0 3.25 1.45 3.25 3.25 0 1.79-1.46 3.25-3.25 3.25 -.42 0-.75-.34-.75-.75 0-.42.33-.75.75-.75 .96 0 1.75-.79 1.75-1.75 0-.97-.79-1.75-1.75-1.75 -.42 0-.75-.34-.75-.75Z"/><path d="M16.25 6.5c0-.42.33-.75.75-.75 3.17 0 5.75 2.57 5.75 5.75 0 3.17-2.58 5.75-5.75 5.75 -.42 0-.75-.34-.75-.75 0-.42.33-.75.75-.75 2.34 0 4.25-1.91 4.25-4.25 0-2.35-1.91-4.25-4.25-4.25 -.42 0-.75-.34-.75-.75Z"/></g></svg>