<svg viewBox="0 0 24 24" xmlns="http://www.w3.org/2000/svg"><path fill="#8B98A6" fill-rule="evenodd" d="M5.5 14.75c.41 0 .75.33.75.75v2.75h4V17c0-.42.33-.75.75-.75 .41 0 .75.33.75.75v2c0 .41-.34.75-.75.75H5.5c-.42 0-.75-.34-.75-.75v-3.5c0-.42.33-.75.75-.75Z"/><path fill="#CFD8DC" d="M21.25 5c0-.24-.12-.46-.31-.61 -.19-.15-.44-.19-.67-.12l-17 5c-.32.09-.54.38-.54.71v5c0 .34.23.65.57.73l17 4c.22.05.45 0 .63-.15 .17-.15.28-.36.28-.59v-14Z"/><path fill="#EE4D4D" fill-rule="evenodd" d="M16.75 18.88V5.31l1.5-.45v14.36l-1.5-.36Z"/></svg>