<svg viewBox="0 0 24 24" xmlns="http://www.w3.org/2000/svg"><path fill="#FF884D" d="M20.712 1.49c-.26-.29-.68-.34-.99-.12 -1.06.72-2.34 1.14-3.74 1.14 -1.4 0-2.68-.43-3.74-1.15 -.32-.22-.74-.17-.99.11C9.98 2.88 9.212 4.84 9.212 7c0 .02 0 .05 0 .08l.5 4.47c0 .07.02.15.06.22l1.34 3c.13.29.44.47.77.43l5.15-.6c.01-.01.03-.01.05-.01 3.25-.64 5.6-3.88 5.6-7.62 0-2.16-.78-4.12-2.04-5.54Z"/><path fill="#FFC44D" d="M11.839 8.69c-.31-.23-.73-.2-.99.07 -.89.91-2.07 1.58-3.44 1.85s-2.71.11-3.89-.39c-.35-.15-.75-.02-.94.3 -.97 1.63-1.34 3.71-.91 5.82 .81 4.07 4.38 6.99 8.13 6.23 3.75-.76 5.91-4.83 5.09-8.9 -.43-2.12-1.57-3.89-3.09-5.03Z"/><g fill="#ECEFF1" fill-rule="evenodd"><path d="M6.68 17.12c.4-.09.8.18.88.58 .13.67.79 1.11 1.47.97 .67-.14 1.11-.8.97-1.48 -.09-.41.18-.81.58-.89 .4-.09.8.18.88.58 .29 1.48-.67 2.93-2.16 3.23 -1.49.29-2.94-.67-3.24-2.16 -.09-.41.18-.81.58-.89Z"/><path d="M12.21 13.02c.17.37.01.82-.36.99l-1.87.88c-.38.17-.83.01-1-.36 -.18-.38-.02-.83.35-1l1.86-.89c.37-.18.82-.02.99.35Z"/><path d="M3.92 14.69c.01-.42.37-.74.78-.72l2.05.09c.41.01.73.37.71.78 -.02.41-.38.73-.79.71l-2.06-.1c-.42-.02-.74-.38-.72-.79Z"/><path d="M17.99 11.75c.41 0 .75-.34.75-.75 0-1.52-1.24-2.76-2.75-2.76 -.59 0-1.14.18-1.59.5 -.34.23-.42.7-.18 1.04 .23.33.7.41 1.04.17 .2-.15.45-.23.72-.23 .69 0 1.25.55 1.25 1.25 0 .41.33.75.75.75Z"/><path d="M20.22 6.68c.1-.41-.15-.81-.55-.91l-2-.5c-.41-.11-.81.14-.91.54 -.11.4.14.8.54.9l2 .5c.4.1.8-.15.9-.55Z"/><path d="M11.77 6.68c.1.4.5.64.9.54l2-.5c.4-.11.64-.51.54-.91 -.11-.41-.51-.65-.91-.55l-2 .5c-.41.1-.65.5-.55.9Z"/></g></svg>