<svg viewBox="0 0 24 24" xmlns="http://www.w3.org/2000/svg"><path fill="#CFD8DC" d="M9.5 9.75c-.42 0-.75.33-.75.75v5c0 .41.33.75.75.75H20c.41 0 .75-.34.75-.75v-1.42l1.43-.36c.33-.09.56-.39.56-.73v-2.5c0-.42-.34-.75-.75-.75H9.49Z"/><path fill="#5E94FF" d="M3.5 7.25c-.42 0-.75.33-.75.75v10c0 .41.33.75.75.75h6c.41 0 .75-.34.75-.75V8c0-.42-.34-.75-.75-.75h-6Z"/><path fill="#8B98A6" d="M5 4.75c-.42 0-.75.33-.75.75V8c0 .41.33.75.75.75h3c.41 0 .75-.34.75-.75V5.5c0-.42-.34-.75-.75-.75H5Z"/><g fill="#CFD8DC" fill-rule="evenodd"><path d="M1.25 8c0-.42.33-.75.75-.75h9c.41 0 .75.33.75.75 0 .41-.34.75-.75.75H2c-.42 0-.75-.34-.75-.75Z"/><path d="M1.25 18c0-.42.33-.75.75-.75h9c.41 0 .75.33.75.75 0 .41-.34.75-.75.75H2c-.42 0-.75-.34-.75-.75Z"/><path fill="#8B98A6" d="M12.25 16.25v-6.5h1.5v6.5h-1.5Zm5.5 0h-1.5v-6.5h1.5v6.5Z"/></g></svg>