<svg viewBox="0 0 24 24" xmlns="http://www.w3.org/2000/svg"><path fill="#ECEFF1" d="M5.5 2.25c-.42 0-.75.33-.75.75v18c0 .41.33.75.75.75h13c.41 0 .75-.34.75-.75V3c0-.42-.34-.75-.75-.75h-13Z"/><g fill="#5E94FF" fill-rule="evenodd"><path d="M4.75 3c0-.42.33-.75.75-.75h13c.41 0 .75.33.75.75v18c0 .41-.34.75-.75.75h-13c-.42 0-.75-.34-.75-.75V3Zm1.5.75v16.5h11.5V3.75H6.25Z"/><path d="M1.25 3c0-.42.33-.75.75-.75h3.5c.41 0 .75.33.75.75v18c0 .41-.34.75-.75.75H2c-.42 0-.75-.34-.75-.75V3Zm1.5.75v16.5h2V3.75h-2Z"/><path d="M17.75 3c0-.42.33-.75.75-.75H22c.41 0 .75.33.75.75v18c0 .41-.34.75-.75.75h-3.5c-.42 0-.75-.34-.75-.75V3Zm1.5.75v16.5h2V3.75h-2Z"/><path d="M1.25 6c0-.42.33-.75.75-.75h3.5c.41 0 .75.33.75.75 0 .41-.34.75-.75.75H2c-.42 0-.75-.34-.75-.75Z"/><path d="M1.25 9c0-.42.33-.75.75-.75h3.5c.41 0 .75.33.75.75 0 .41-.34.75-.75.75H2c-.42 0-.75-.34-.75-.75Z"/><path d="M1.25 12c0-.42.33-.75.75-.75h3.5c.41 0 .75.33.75.75 0 .41-.34.75-.75.75H2c-.42 0-.75-.34-.75-.75Z"/><path d="M1.25 15c0-.42.33-.75.75-.75h3.5c.41 0 .75.33.75.75 0 .41-.34.75-.75.75H2c-.42 0-.75-.34-.75-.75Z"/><path d="M1.25 18c0-.42.33-.75.75-.75h3.5c.41 0 .75.33.75.75 0 .41-.34.75-.75.75H2c-.42 0-.75-.34-.75-.75Z"/><path d="M17.75 6c0-.42.33-.75.75-.75H22c.41 0 .75.33.75.75 0 .41-.34.75-.75.75h-3.5c-.42 0-.75-.34-.75-.75Z"/><path d="M17.75 9c0-.42.33-.75.75-.75H22c.41 0 .75.33.75.75 0 .41-.34.75-.75.75h-3.5c-.42 0-.75-.34-.75-.75Z"/><path d="M17.75 12c0-.42.33-.75.75-.75H22c.41 0 .75.33.75.75 0 .41-.34.75-.75.75h-3.5c-.42 0-.75-.34-.75-.75Z"/><path d="M17.75 15c0-.42.33-.75.75-.75H22c.41 0 .75.33.75.75 0 .41-.34.75-.75.75h-3.5c-.42 0-.75-.34-.75-.75Z"/><path d="M17.75 18c0-.42.33-.75.75-.75H22c.41 0 .75.33.75.75 0 .41-.34.75-.75.75h-3.5c-.42 0-.75-.34-.75-.75Z"/><g fill="#8B98A6"><path d="M9 14.75c-.7 0-1.25.55-1.25 1.25 0 .69.55 1.25 1.25 1.25 .69 0 1.25-.56 1.25-1.25 0-.7-.56-1.25-1.25-1.25ZM6.25 16c0-1.52 1.23-2.75 2.75-2.75 1.51 0 2.75 1.23 2.75 2.75 0 1.51-1.24 2.75-2.75 2.75 -1.52 0-2.75-1.24-2.75-2.75Z"/><path d="M15 14.75c-.7 0-1.25.55-1.25 1.25 0 .69.55 1.25 1.25 1.25 .69 0 1.25-.56 1.25-1.25 0-.7-.56-1.25-1.25-1.25ZM12.25 16c0-1.52 1.23-2.75 2.75-2.75 1.51 0 2.75 1.23 2.75 2.75 0 1.51-1.24 2.75-2.75 2.75 -1.52 0-2.75-1.24-2.75-2.75Z"/><path d="M14.85 4.83c.36.19.5.64.31 1.01l-4.5 8.49c-.2.36-.65.5-1.02.31 -.37-.2-.51-.65-.32-1.02l4.5-8.51c.19-.37.64-.51 1.01-.32Z"/><path d="M9.14 4.83c-.37.19-.51.64-.32 1.01l4.49 8.49c.19.36.64.5 1.01.31 .36-.2.5-.65.31-1.02l-4.5-8.51c-.2-.37-.65-.51-1.02-.32Z"/></g></g></svg>