<svg viewBox="0 0 24 24" xmlns="http://www.w3.org/2000/svg"><g fill="#CFD8DC"><path d="M22.75 4c0-.25-.13-.48-.33-.62 -.21-.15-.46-.18-.69-.09l-13.5 5c-.3.1-.49.38-.49.7v5c0 .33.21.62.53.71l13.5 4c.22.06.47.02.66-.12 .18-.15.3-.37.3-.61v-14Z"/><path d="M7.99 13.25c.34 0 .64.23.72.56L9.75 18c.34 1.39-.71 2.74-2.14 2.74 -1.02 0-1.9-.69-2.14-1.68l-1.23-4.9c-.06-.23-.01-.47.13-.65 .14-.19.36-.29.59-.29h3Z"/><path d="M4.5 9.25c.41 0 .75.33.75.75v3c0 .41-.34.75-.75.75H2c-.42 0-.75-.34-.75-.75v-3c0-.42.33-.75.75-.75h2.5Z"/></g><path fill="#EE4D4D" d="M8.5 8.25c.41 0 .75.33.75.75v5c0 .41-.34.75-.75.75h-4c-.42 0-.75-.34-.75-.75V9c0-.42.33-.75.75-.75h4Z"/></svg>