<svg viewBox="0 0 24 24" xmlns="http://www.w3.org/2000/svg"><path fill="#CFD8DC" d="M2 3.25c-.42 0-.75.33-.75.75v16c0 .41.33.75.75.75h20c.41 0 .75-.34.75-.75V4c0-.42-.34-.75-.75-.75H2Z"/><g fill="#EE4D4D" fill-rule="evenodd"><path d="M3.75 16.5c0-.42.33-.75.75-.75h15c.41 0 .75.33.75.75 0 .41-.34.75-.75.75h-15c-.42 0-.75-.34-.75-.75Z"/><path fill="#8B98A6" d="M17.5 14.25c.41 0 .75.33.75.75v3c0 .41-.34.75-.75.75 -.42 0-.75-.34-.75-.75v-3c0-.42.33-.75.75-.75Z"/></g><path fill="#EE4D4D" d="M10.39 7.36c-.24-.15-.53-.16-.77-.02 -.24.13-.39.38-.39.65v5c0 .27.14.52.38.65 .23.13.52.12.76-.02l4-2.5c.21-.14.35-.38.35-.64s-.14-.5-.36-.64l-4-2.5Z"/></svg>