<svg viewBox="0 0 24 24" xmlns="http://www.w3.org/2000/svg"><path fill="#8B98A6" d="M10.5 15.75c-.33 0-.61.2-.72.51l-1 3c-.08.22-.04.48.1.67 .14.19.36.31.6.31h4.99c.24 0 .46-.12.6-.32 .14-.2.17-.45.1-.68l-1-3c-.11-.31-.39-.52-.72-.52h-3Z"/><path fill="#5E94FF" fill-rule="evenodd" d="M2.25 19.5c0-.42.33-.75.75-.75h18c.41 0 .75.33.75.75 0 .41-.34.75-.75.75H3c-.42 0-.75-.34-.75-.75Z"/><path fill="#ECEFF1" d="M2 3.75c-.42 0-.75.33-.75.75v12c0 .41.33.75.75.75h20c.41 0 .75-.34.75-.75v-12c0-.42-.34-.75-.75-.75H2Z"/><path fill="#5E94FF" fill-rule="evenodd" d="M1.25 4.5c0-.42.33-.75.75-.75h20c.41 0 .75.33.75.75v12c0 .41-.34.75-.75.75H2c-.42 0-.75-.34-.75-.75v-12Zm1.5.75v10.5h18.5V5.25H2.75Z"/><path fill="#EE4D4D" d="M9.83 7.32c-.24-.12-.51-.11-.73.03 -.23.13-.36.37-.36.63v5c0 .25.13.5.35.63 .22.13.49.14.72.03l4.99-2.5c.25-.13.41-.39.41-.68 0-.29-.17-.55-.42-.68l-5-2.5Z"/></svg>