<svg viewBox="0 0 24 24" xmlns="http://www.w3.org/2000/svg"><path fill="#ECEFF1" d="M10 1.25c-1.09 0-2.03.63-2.48 1.55 -.18-.04-.35-.06-.53-.06 -1.36 0-2.49.98-2.72 2.28 -.92.44-1.54 1.38-1.54 2.46 0 .41.33.75.75.75h12c.41 0 .75-.34.75-.75 0-1.07-.61-2-1.51-2.46 0-.02 0-.04 0-.05 0-1.48-1.17-2.69-2.63-2.75 -.51-.62-1.27-1.01-2.13-1.01Z"/><path fill="#8B98A6" fill-rule="evenodd" d="M18.78 7.26c.1-.31.38-.52.71-.52h2.15c.41 0 .75.33.75.75 0 .41-.34.75-.75.75h-1.62l-.83 2.48c-.14.39-.56.6-.95.47 -.4-.14-.61-.56-.48-.95l1-3Z"/><path fill="#EE4D4D" d="M3 6.75c-.22 0-.43.09-.57.25 -.15.16-.21.38-.18.59l2 14.5c.05.37.36.64.74.64h10c.39 0 .72-.31.74-.7l.8-11.5 0-.01 .2-3.01c.01-.21-.06-.42-.21-.57 -.15-.16-.35-.24-.55-.24h-13Z"/><path fill="#FFC44D" d="M12.75 10c-.22 0-.42.08-.56.24 -.15.15-.22.36-.2.57l1 11.5c.03.38.35.68.74.68h6c.38 0 .71-.3.74-.69l1-11.5c.01-.21-.06-.42-.2-.58 -.15-.16-.35-.25-.56-.25h-8Z"/><g fill="#ECEFF1" fill-rule="evenodd"><path d="M10.25 10.5c0-.42.33-.75.75-.75h11c.41 0 .75.33.75.75 0 .41-.34.75-.75.75H11c-.42 0-.75-.34-.75-.75Z"/><path fill="#FFC44D" d="M7.36 22.75l-.11-.63 -.01-.03 -2-14.5 -.01-.01 -.13-.86h1.51l.09.64 0 0h-.01l1.99 14.48 .14.86H7.29Z"/></g></svg>