<svg viewBox="0 0 24 24" xmlns="http://www.w3.org/2000/svg"><path fill="#5E94FF" d="M12 1.25c5.93 0 10.75 4.81 10.75 10.75 0 5.93-4.82 10.75-10.75 10.75 -5.94 0-10.75-4.82-10.75-10.75C1.25 6.06 6.06 1.25 12 1.25Z"/><g fill="#ECEFF1"><path d="M17.27 6.62c.22-.17.52-.19.77-.06 .24.12.4.38.4.66v9.52c0 .28-.16.53-.41.66 -.25.12-.56.1-.78-.06l-6.67-4.77c-.2-.15-.32-.37-.32-.62s.11-.47.31-.62l6.66-4.77Z"/><path d="M9.14 6.48c.41 0 .75.33.75.75v9.52c0 .41-.34.75-.75.75H6.28c-.42 0-.75-.34-.75-.75V7.22c0-.42.33-.75.75-.75h2.85Z"/></g></svg>