<svg viewBox="0 0 24 24" xmlns="http://www.w3.org/2000/svg"><g fill="#8B98A6" fill-rule="evenodd"><path d="M21 15.75c-.42 0-.75.33-.75.75v2c0 .41.33.75.75.75 .41 0 .75-.34.75-.75v-2c0-.42-.34-.75-.75-.75Z"/><path d="M3 15.75c-.42 0-.75.33-.75.75v2c0 .41.33.75.75.75 .41 0 .75-.34.75-.75v-2c0-.42-.34-.75-.75-.75Z"/></g><path fill="#CFD8DC" d="M22 7.75c.41 0 .75.33.75.75v8c0 .41-.34.75-.75.75H2c-.42 0-.75-.34-.75-.75v-8c0-.42.33-.75.75-.75h20Z"/><path fill="#5E94FF" d="M8.5 5.25c2.62 0 4.75 2.12 4.75 4.75 0 2.62-2.13 4.75-4.75 4.75 -2.63 0-4.75-2.13-4.75-4.75 0-2.63 2.12-4.75 4.75-4.75Z"/><g fill="#8B98A6" fill-rule="evenodd"><path d="M16 10.25c-.42 0-.75.33-.75.75v3c0 .41.33.75.75.75 .41 0 .75-.34.75-.75v-3c0-.42-.34-.75-.75-.75Z"/><path d="M19 10.25c-.42 0-.75.33-.75.75v3c0 .41.33.75.75.75 .41 0 .75-.34.75-.75v-3c0-.42-.34-.75-.75-.75Z"/></g></svg>