<svg viewBox="0 0 24 24" xmlns="http://www.w3.org/2000/svg"><g fill="#4DC4FF"><path d="M7 13.25c-.42 0-.75.33-.75.75 0 2.97 2.65 5.25 5.75 5.25 3.09 0 5.75-2.28 5.75-5.25 0-.42-.34-.75-.75-.75H7Z"/><path d="M17 10.75c.41 0 .75-.34.75-.75 0-2.98-2.66-5.25-5.75-5.25 -3.1 0-5.75 2.27-5.75 5.25 0 .41.33.75.75.75h10Z"/></g><path fill="#5E94FF" d="M12 9.25c-2.8 0-5.35.22-7.22.6 -.93.18-1.74.41-2.32.69 -.3.13-.58.3-.79.51 -.22.21-.43.52-.43.93 0 .41.21.72.42.93 .21.21.49.37.78.51 .58.27 1.38.5 2.31.69 1.87.37 4.42.6 7.21.6s5.34-.23 7.21-.61c.92-.19 1.73-.42 2.31-.7 .29-.14.57-.31.78-.52 .21-.22.42-.53.42-.94 0-.42-.22-.73-.43-.94 -.22-.22-.5-.38-.79-.52 -.59-.28-1.39-.51-2.32-.7 -1.88-.38-4.43-.61-7.22-.61Z"/></svg>