<svg viewBox="0 0 24 24" xmlns="http://www.w3.org/2000/svg"><path fill="#5E94FF" fill-rule="evenodd" d="M3.25 3c0-.42.33-.75.75-.75h6c.25 0 .48.12.62.33l2 3c.22.34.13.81-.21 1.04 -.35.22-.82.13-1.04-.21L9.59 3.74h-5.6c-.42 0-.75-.34-.75-.75Z"/><path fill="#CFD8DC" d="M5 5.25C3.48 5.25 2.25 6.48 2.25 8v8c0 1.51 1.23 2.75 2.75 2.75h9.5c1.51 0 2.75-1.24 2.75-2.75v-.85l3.44 1.53c.23.1.5.08.71-.06 .21-.14.34-.375.34-.63v-8c0-.26-.13-.5-.35-.63 -.22-.14-.49-.16-.72-.06l-3.45 1.53v-.85c0-1.52-1.24-2.75-2.75-2.75h-9.5Z"/><g fill="#5E94FF"><path d="M6 8.25c-.42 0-.75.33-.75.75v4c0 .41.33.75.75.75h6c.41 0 .75-.34.75-.75V9c0-.42-.34-.75-.75-.75H6Z"/><path fill="#5E94FF" fill-rule="evenodd" d="M5.25 15.5c0-.42.33-.75.75-.75h6c.41 0 .75.33.75.75 0 .41-.34.75-.75.75H6c-.42 0-.75-.34-.75-.75Z"/></g></svg>