<svg viewBox="0 0 24 24" xmlns="http://www.w3.org/2000/svg"><path fill="#CFD8DC" d="M5 9.25c-1.52 0-2.75 1.23-2.75 2.75v8c0 1.51 1.23 2.75 2.75 2.75h9.5c1.51 0 2.75-1.24 2.75-2.75v-.85l3.44 1.53c.23.1.5.08.71-.06 .21-.14.34-.375.34-.63v-8c0-.26-.13-.5-.35-.63 -.22-.14-.49-.16-.72-.06l-3.45 1.53v-.85c0-1.52-1.24-2.75-2.75-2.75h-9.5Z"/><g fill="#5E94FF"><path d="M13 1.25c-2.08 0-3.75 1.67-3.75 3.75 0 2.07 1.67 3.75 3.75 3.75 2.07 0 3.75-1.68 3.75-3.75 0-2.08-1.68-3.75-3.75-3.75Z"/><path d="M5.5 2.25c-1.8 0-3.25 1.45-3.25 3.25 0 1.79 1.45 3.25 3.25 3.25 1.79 0 3.25-1.46 3.25-3.25 0-1.8-1.46-3.25-3.25-3.25Z"/><path d="M7.83 12.82c-.24-.12-.51-.11-.73.03 -.23.13-.36.37-.36.63v5c0 .25.13.5.35.63 .22.13.49.14.72.03l4.99-2.5c.25-.13.41-.39.41-.68 0-.29-.17-.55-.42-.68l-5-2.5Z"/></g></svg>