<svg viewBox="0 0 24 24" xmlns="http://www.w3.org/2000/svg"><path fill="#FFC44D" d="M2 1.25c-.42 0-.75.33-.75.75v18c0 .41.33.75.75.75h17.5c.41 0 .75-.34.75-.75V4.62c0-.42-.34-.75-.75-.75H9.09l-1.58-2.3c-.14-.21-.38-.33-.62-.33h-4.9Z"/><path fill="#ECEFF1" d="M10 9.25c-.42 0-.75.33-.75.75v11c0 .41.33.75.75.75h12c.41 0 .75-.34.75-.75V10c0-.42-.34-.75-.75-.75H10Z"/><path fill="#5E94FF" d="M14.416 11.87c-.24-.16-.53-.17-.77-.04 -.25.13-.4.38-.4.66v5.81c0 .27.14.52.38.65 .23.13.52.12.76-.02l4.5-2.82c.21-.14.34-.38.35-.625 0-.26-.13-.5-.34-.64l-4.5-3Z"/></svg>