<svg viewBox="0 0 24 24" xmlns="http://www.w3.org/2000/svg"><path fill="#5E94FF" d="M12 1.25C6.06 1.25 1.25 6.06 1.25 12c0 5.93 4.81 10.75 10.75 10.75 5.93 0 10.75-4.82 10.75-10.75 0-5.94-4.82-10.75-10.75-10.75Z"/><g fill="#ECEFF1"><path d="M11.584 6.37c.23-.16.52-.17.76-.04s.39.38.39.66v10c0 .27-.16.53-.4.66 -.25.13-.54.11-.77-.04l-4.32-2.88h-2.78c-.42 0-.75-.34-.75-.75v-4c0-.42.33-.75.75-.75h2.77l4.31-2.88Z"/><path fill="#ECEFF1" fill-rule="evenodd" d="M13.75 12c0-.42.33-.75.75-.75h5c.41 0 .75.33.75.75 0 .41-.34.75-.75.75h-5c-.42 0-.75-.34-.75-.75Z"/></g></svg>