<svg viewBox="0 0 24 24" xmlns="http://www.w3.org/2000/svg"><path fill="#FFC44D" d="M5.53 13.25c-.08 0-.15 0-.21.02 -1.13.32-2.11.74-2.82 1.25 -.7.49-1.27 1.18-1.27 2.064 0 .79.47 1.43 1.06 1.9 .59.48 1.42.88 2.37 1.2 1.9.64 4.49 1.03 7.31 1.03 2.82 0 5.4-.39 7.31-1.04 .94-.33 1.77-.73 2.37-1.21 .59-.48 1.06-1.12 1.06-1.91 0-.88-.58-1.57-1.27-2.064 -.72-.52-1.69-.93-2.82-1.26 -.07-.02-.14-.03-.21-.03H5.48Z"/><path fill="#FF884D" d="M8.84 3.77c-1.3-.39-2.65.44-2.87 1.78l-1.63 9.73c-.13.76.46 1.45 1.23 1.45h12.81c.77 0 1.36-.7 1.23-1.46l-1.63-9.74c-.23-1.34-1.57-2.18-2.87-1.79l-3.16.94 -3.16-.95Z"/><path fill="#FFC44D" d="M12.62 7.09c-.14-.22-.38-.35-.63-.35 -.26 0-.5.12-.63.34l-.71 1.09 -1.3.06c-.26.01-.49.15-.62.37s-.14.49-.02.71l.59 1.15 -.6 1.15c-.12.22-.11.49.01.71 .12.22.35.36.61.37l1.29.06 .7 1.09c.13.21.37.34.62.34s.49-.13.62-.35l.7-1.1 1.29-.07c.25-.02.48-.16.61-.38 .12-.23.13-.5.01-.72l-.6-1.16 .59-1.16c.11-.23.1-.5-.02-.72 -.13-.23-.36-.37-.62-.38l-1.3-.07 -.71-1.1Z"/></svg>