<svg viewBox="0 0 24 24" xmlns="http://www.w3.org/2000/svg"><g fill-rule="evenodd"><path d="M1 2c0-.56.44-1 1-1h20c.55 0 1 .44 1 1v5c0 .55-.45 1-1 1H2c-.56 0-1-.45-1-1V2Zm2 1v3h18V3H3Z"/><path d="M6.5 5.5h-2v-2h2v2Z"/><path d="M10.5 5.5h-2v-2h2v2Z"/><path d="M14.5 5.5h-2v-2h2v2Z"/><path d="M2 6c-.56 0-1 .44-1 1v15c0 .55.44 1 1 1h20c.55 0 1-.45 1-1V7c0-.56-.45-1-1-1H2Zm3.5 6.5c0-1.66 1.34-3 3-3 1.65 0 3 1.34 3 3v2 4h-2v-3h-2v3h-2v-4 -2Zm4 1v-1c0-.56-.45-1-1-1 -.56 0-1 .44-1 1v1h2Zm4-4c-.56 0-1 .44-1 1v4 4c0 .55.44 1 1 1h2c1.65 0 3-1.35 3-3v-2 -2c0-1.66-1.35-3-3-3h-2Zm1 5v-3h1c.55 0 1 .44 1 1v2 2c0 .55-.45 1-1 1h-1v-3Z"/></g></svg>