<svg viewBox="0 0 24 24" xmlns="http://www.w3.org/2000/svg"><g fill-rule="evenodd"><path d="M3.41 14l3.29-3.3 -1.42-1.42 -4 4c-.4.39-.4 1.02 0 1.41l4 4 1.41-1.42 -3.3-3.3Z"/><path d="M20.58 14l-3.3-3.3 1.41-1.42 4 4c.39.39.39 1.02 0 1.41l-4 4 -1.42-1.42 3.29-3.3Z"/><path d="M9 9c-.38 0-.73.21-.9.55l-1 2c-.17.32-.14.7.06 1l4 6c.18.27.49.44.83.44 .33 0 .64-.17.83-.45l4-6c.19-.3.22-.69.06-1.01l-1-2.01c-.17-.34-.52-.56-.9-.56h-6Z"/><path d="M6.5 8.5v-4h2v4h-2Z"/><path d="M11.5 6V2h2v4h-2Z"/><path d="M14 22v-4h2v4h-2Z"/><path d="M9.5 7.5h-4v-2h4v2Z"/><path d="M14.5 5h-4V3h4v2Z"/><path d="M17 21h-4v-2h4v2Z"/></g></svg>