<svg viewBox="0 0 24 24" xmlns="http://www.w3.org/2000/svg"><g fill-rule="evenodd"><path d="M1 2c0-.56.44-1 1-1h20c.55 0 1 .44 1 1v5c0 .55-.45 1-1 1H2c-.56 0-1-.45-1-1V2Zm2 1v3h18V3H3Z"/><path d="M6.5 5.5h-2v-2h2v2Z"/><path d="M10.5 5.5h-2v-2h2v2Z"/><path d="M14.5 5.5h-2v-2h2v2Z"/><path d="M1 7c0-.56.44-1 1-1h20c.55 0 1 .44 1 1v15c0 .55-.45 1-1 1H2c-.56 0-1-.45-1-1V7Zm7.12 6.5c.21-.85.7-1.58 1.35-2.11 -.22.62-.37 1.34-.44 2.1h-.92Zm0 2c.21.84.7 1.57 1.35 2.1 -.22-.63-.37-1.35-.44-2.11h-.92Zm2.92 0c.08.7.24 1.31.44 1.77 .14.33.29.53.41.64 .04.03.07.05.08.07 .01-.02.04-.04.08-.08 .11-.11.26-.32.41-.65 .2-.46.36-1.07.44-1.78h-1.89Zm3.89 0c-.07.76-.22 1.48-.44 2.1 .65-.54 1.14-1.27 1.35-2.11h-.92Zm.91-2h-.92c-.07-.77-.22-1.49-.44-2.11 .65.53 1.14 1.26 1.35 2.1Zm-2.93 0h-1.89c.08-.71.24-1.32.44-1.78 .14-.34.29-.54.41-.65 .04-.04.07-.06.08-.08 .01.01.04.03.08.07 .11.1.26.31.41.64 .2.45.36 1.06.44 1.77Zm-.95-5c-3.32 0-6 2.68-6 6 0 3.31 2.68 6 6 6 3.31 0 6-2.69 6-6 0-3.32-2.69-6-6-6Zm.02 2.497s-.01 0-.01 0l0-.01c0-.01 0-.01 0-.01s0 0 0 0Zm-.05 0c-.01-.01-.01-.01-.01-.01 0-.01 0 0 0 0Zm-.01 7c0-.01 0-.01 0-.01 -.01 0-.01 0-.01 0Zm.04-.01s0 0 0 0 -.01-.01-.01-.01Z"/></g></svg>