<svg viewBox="0 0 24 24" xmlns="http://www.w3.org/2000/svg"><g fill-rule="evenodd"><path d="M1 2c0-.56.44-1 1-1h20c.55 0 1 .44 1 1v5c0 .55-.45 1-1 1H2c-.56 0-1-.45-1-1V2Zm2 1v3h18V3H3Z"/><path d="M6.5 5.5h-2v-2h2v2Z"/><path d="M10.5 5.5h-2v-2h2v2Z"/><path d="M14.5 5.5h-2v-2h2v2Z"/><path d="M1 7c0-.56.44-1 1-1h20c.55 0 1 .44 1 1v15c0 .55-.45 1-1 1H2c-.56 0-1-.45-1-1V7Zm18 3.5h-3v2h.58l-3.59 3.58 -3.3-3.3c-.4-.4-1.03-.4-1.42 0l-4 4 1.41 1.41 3.29-3.3 3.29 3.29c.39.39 1.02.39 1.41 0l4.29-4.3v.58h2v-3c0-.56-.45-1-1-1Z"/></g></svg>