<svg viewBox="0 0 24 24" xmlns="http://www.w3.org/2000/svg"><path fill-rule="evenodd" d="M11.64 1.06c.22-.09.47-.09.7 0l8 3c.39.14.64.51.64.93v9.13c0 1.81-.9 3.5-2.39 4.53l-6.05 4.15c-.35.23-.8.23-1.14 0l-6.05-4.16c-1.5-1.03-2.39-2.73-2.39-4.54V4.96c0-.42.25-.79.64-.94l8-3Zm-3.53 9.43c.21-.85.7-1.58 1.35-2.11 -.22.62-.37 1.34-.44 2.1H8.1Zm0 2c.21.84.7 1.57 1.35 2.1 -.22-.63-.37-1.35-.44-2.11H8.1Zm2.92 0c.08.7.24 1.31.44 1.77 .14.33.29.53.41.64 .04.03.07.05.08.07 .01-.02.04-.04.08-.08 .11-.11.26-.32.41-.65 .2-.46.36-1.07.44-1.78H11Zm3.89 0c-.07.76-.22 1.48-.44 2.1 .65-.54 1.14-1.27 1.35-2.11h-.92Zm.91-2h-.92c-.07-.77-.22-1.49-.44-2.11 .65.53 1.14 1.26 1.35 2.1Zm-2.93 0h-1.89c.08-.71.24-1.32.44-1.78 .14-.34.29-.54.41-.65 .04-.04.07-.06.08-.08 .01.01.04.03.08.07 .11.1.26.31.41.64 .2.45.36 1.06.44 1.77Zm-.95-5c-3.32 0-6 2.68-6 6 0 3.31 2.68 6 6 6 3.31 0 6-2.69 6-6 0-3.32-2.69-6-6-6Zm.02 2.49s-.01 0-.01 0c0-.01 0-.01 0-.01Zm-.05 0c-.01-.01-.01-.01-.01-.01 0-.01 0 0 0 0Zm-.01 7c0-.01 0-.01 0-.01 -.01 0-.01 0-.01 0Zm.04-.01l0 0s0 0 0 0 -.01-.01-.01-.01Z"/></svg>