<svg viewBox="0 0 24 24" xmlns="http://www.w3.org/2000/svg"><g fill-rule="evenodd"><path d="M1 2c0-.56.44-1 1-1h20c.55 0 1 .44 1 1v5c0 .55-.45 1-1 1H2c-.56 0-1-.45-1-1V2Zm2 1v3h18V3H3Z"/><path d="M6.5 5.5h-2v-2h2v2Z"/><path d="M10.5 5.5h-2v-2h2v2Z"/><path d="M14.5 5.5h-2v-2h2v2Z"/><path d="M1 7c0-.56.44-1 1-1h20c.55 0 1 .44 1 1v15c0 .55-.45 1-1 1H2c-.56 0-1-.45-1-1V7Zm10 7.5c0-.56.44-1 1-1 .55 0 1 .44 1 1 0 .55-.45 1-1 1 -.56 0-1-.45-1-1Zm0-4v1.17c-.11.03-.2.07-.3.12l-.83-.83 -1.42 1.41 .82.82c-.05.09-.09.19-.13.29H7.96v2h1.17c.03.1.07.19.12.29l-.83.82L9.83 18l.82-.83c.09.04.19.08.29.12v1.17h2v-1.18c.1-.04.19-.08.29-.13l.82.82 1.41-1.42 -.83-.83c.04-.1.08-.2.12-.3h1.17v-2h-1.18c-.04-.11-.08-.2-.13-.3l.82-.83 -1.42-1.42 -.83.82c-.1-.05-.2-.09-.3-.13v-1.18h-2Z"/></g></svg>