<svg viewBox="0 0 24 24" xmlns="http://www.w3.org/2000/svg"><g fill-rule="evenodd"><path d="M1 2c0-.56.44-1 1-1h20c.55 0 1 .44 1 1v5c0 .55-.45 1-1 1H2c-.56 0-1-.45-1-1V2Zm2 1v3h18V3H3Z"/><path d="M6.5 5.5h-2v-2h2v2Z"/><path d="M10.5 5.5h-2v-2h2v2Z"/><path d="M14.5 5.5h-2v-2h2v2Z"/><path d="M2 6c-.56 0-1 .44-1 1v15c0 .55.44 1 1 1h20c.55 0 1-.45 1-1V7c0-.56-.45-1-1-1H2Zm1.5 13.5v-10h2v5.77l2.83-2.53c.36-.33.92-.34 1.3-.03l2.35 1.95 6.35-5.45 1.3 1.51 -7 6c-.38.31-.92.32-1.3 0l-2.34-1.95 -3.53 3.12v.55h14v2h-15c-.56 0-1-.45-1-1Z"/></g></svg>