<svg viewBox="0 0 24 24" xmlns="http://www.w3.org/2000/svg"><g fill-rule="evenodd"><path d="M1 2c0-.56.44-1 1-1h20c.55 0 1 .44 1 1v5c0 .55-.45 1-1 1H2c-.56 0-1-.45-1-1V2Zm2 1v3h18V3H3Z"/><path d="M6.5 5.5h-2v-2h2v2Z"/><path d="M10.5 5.5h-2v-2h2v2Z"/><path d="M14.5 5.5h-2v-2h2v2Z"/><path d="M1 7c0-.56.44-1 1-1h20c.55 0 1 .44 1 1v15c0 .55-.45 1-1 1H2c-.56 0-1-.45-1-1V7Zm10.58 2.08c.26-.12.56-.12.82 0l5.5 2.49c.35.16.58.51.58.91v3.5h-2v-1.95l-.07.02 -.45 3.54c-.07.5-.49.87-1 .87h-6c-.51 0-.93-.38-1-.88l-.45-3.55 -1.48-.68c-.36-.17-.59-.52-.59-.92s.22-.75.58-.92l5.5-2.5Zm.82 6.82l1.88-.86 -.19 1.44H9.85l-.19-1.45 1.88.85c.26.11.56.11.82 0Z"/></g></svg>