<svg viewBox="0 0 24 24" xmlns="http://www.w3.org/2000/svg"><g fill-rule="evenodd"><path d="M8.2 4c0-.56.44-1 1-1h3.6c.55 0 1 .44 1 1v1.29c2.27.82 4.08 2.63 4.9 4.9h1.29c.55 0 1 .44 1 1v3.6c0 .55-.45 1-1 1h-1.3c-.09.22-.18.45-.28.67l.91.91c.39.39.39 1.02 0 1.41l-2.55 2.54c-.4.39-1.03.39-1.42 0l-.92-.92c-.22.1-.45.19-.68.27v1.29c0 .55-.45 1-1 1h-3.6c-.56 0-1-.45-1-1v-1.3c-.23-.09-.46-.18-.68-.28l-.92.91c-.4.39-1.03.39-1.42 0l-2.55-2.55c-.4-.4-.4-1.03 0-1.42l.91-.92c-.11-.22-.2-.45-.28-.68h-1.3c-.56 0-1-.45-1-1v-3.6c0-.56.44-1 1-1H3.2c.08-.23.17-.46.27-.68l-.92-.92c-.4-.4-.4-1.03 0-1.42l2.54-2.55c.39-.4 1.02-.4 1.41 0l.91.91c.21-.11.44-.2.67-.28v-1.3Zm-.7 9c0-1.94 1.56-3.5 3.5-3.5 1.93 0 3.5 1.56 3.5 3.5 0 1.93-1.57 3.5-3.5 3.5 -1.94 0-3.5-1.57-3.5-3.5ZM11 7.5c-3.04 0-5.5 2.46-5.5 5.5 0 3.03 2.46 5.5 5.5 5.5 3.03 0 5.5-2.47 5.5-5.5 0-3.04-2.47-5.5-5.5-5.5Z"/><path d="M18 4.58V1.99h2v2h2v2h-2.59l-7.71 7.7 -1.42-1.42 7.7-7.71Z"/></g></svg>