<svg viewBox="0 0 24 24" xmlns="http://www.w3.org/2000/svg"><g fill-rule="evenodd"><path d="M1 2c0-.56.44-1 1-1h20c.55 0 1 .44 1 1v5c0 .55-.45 1-1 1H2c-.56 0-1-.45-1-1V2Zm2 1v3h18V3H3Z"/><path d="M6.5 5.5h-2v-2h2v2Z"/><path d="M10.5 5.5h-2v-2h2v2Z"/><path d="M14.5 5.5h-2v-2h2v2Z"/><path d="M2 6c-.56 0-1 .44-1 1v15c0 .55.44 1 1 1h20c.55 0 1-.45 1-1V7c0-.56-.45-1-1-1H2Zm9.7 4.2l-4 4c-.4.39-1.03.39-1.42 0l-2-2 1.41-1.42 1.29 1.29 3.29-3.3 1.41 1.41Zm-4 9.5l3.99-4 -1.42-1.42 -3.3 3.29 -1.3-1.3 -1.42 1.41 2 2c.39.39 1.02.39 1.41 0Zm11.29-7.21h-6v-2h6v2Zm-6 6h6v-2h-6v2Z"/></g></svg>