<svg viewBox="0 0 24 24" xmlns="http://www.w3.org/2000/svg"><g fill-rule="evenodd"><path d="M1 2c0-.56.44-1 1-1h20c.55 0 1 .44 1 1v5c0 .55-.45 1-1 1H2c-.56 0-1-.45-1-1V2Zm2 1v3h18V3H3Z"/><path d="M6.5 5.5h-2v-2h2v2Z"/><path d="M10.5 5.5h-2v-2h2v2Z"/><path d="M14.5 5.5h-2v-2h2v2Z"/><path d="M1 7c0-.56.44-1 1-1h20c.55 0 1 .44 1 1v15c0 .55-.45 1-1 1H2c-.56 0-1-.45-1-1V7Zm9.32 2.75c.78-1.22 2.57-1.22 3.359 0l.1.15 .18 0c1.44.07 2.34 1.61 1.67 2.9l-.09.16 .08.16c.56 1.1-.01 2.39-1.1 2.79l1.75 2.45 -1.63 1.16 -1.86-2.61c-.53.23-1.14.23-1.66 0l-1.86 2.6 -1.63-1.17 1.75-2.46c-1.09-.4-1.66-1.69-1.1-2.8l.08-.17 -.09-.17c-.67-1.3.23-2.84 1.67-2.91l.18-.01 .1-.16Z"/></g></svg>