<svg viewBox="0 0 24 24" xmlns="http://www.w3.org/2000/svg"><g fill-rule="evenodd"><path d="M8 10c0-.56.44-1 1-1h12c.55 0 1 .44 1 1v5.85c0 1.67-.84 3.23-2.23 4.16l-4.22 2.81c-.34.22-.78.22-1.11 0L10.22 20c-1.391-.93-2.23-2.49-2.23-4.17V9.97Zm2 1v4.85c0 1 .5 1.93 1.33 2.49l3.66 2.44 3.66-2.45c.83-.56 1.33-1.5 1.33-2.5v-4.86h-10Z"/><path d="M2 10c0-.56.44-1 1-1h6v2H4v4.09c0 1.04.54 2.01 1.43 2.55l3.56 2.17 1.97-1.21L12 20.3l-2.51 1.52c-.33.19-.73.19-1.05 0l-4.09-2.5c-1.49-.91-2.4-2.53-2.4-4.27V9.96Z"/><path d="M7 8c0-2.77 2.23-5 5-5h6c2.76 0 5 2.23 5 5v2c0 .55-.45 1-1 1H8c-.56 0-1-.45-1-1V8Zm5-3c-1.66 0-3 1.34-3 3v1h12V8c0-1.66-1.35-3-3-3h-6Z"/><path d="M6 6C4.34 6 3 7.34 3 9h6v2H2c-.56 0-1-.45-1-1V9c0-2.77 2.23-5 5-5h3v2H6Z"/><path d="M16 2v2h-2V2h2Z"/><path d="M10 3v2H8V3h2Z"/></g></svg>