<svg viewBox="0 0 24 24" xmlns="http://www.w3.org/2000/svg"><g fill-rule="evenodd"><path d="M12 6c-3.32 0-6 2.68-6 6 0 3.31 2.68 6 6 6 3.31 0 6-2.69 6-6 0-3.32-2.69-6-6-6Zm-8 6c0-4.42 3.58-8 8-8 4.41 0 8 3.58 8 8 0 4.41-3.59 8-8 8 -4.42 0-8-3.59-8-8Z"/><path d="M10.084 14.18c.53.38 1.19.61 1.91.61 .71 0 1.37-.23 1.91-.62l1.16 1.62c-.87.62-1.94.99-3.09.99s-2.22-.37-3.09-1l1.16-1.63Z"/><path d="M14 11v-1h2v1h-2Z"/><path d="M8 11v-1h2v1H8Z"/><path d="M13 1.5v1h-2v-1h2Z"/><path d="M13 21.5v1h-2v-1h2Z"/><path d="M7.61 2.4l.5.86 -1.74 1 -.5-.87 1.73-1Z"/><path d="M17.61 19.72l.5.86 -1.74 1 -.5-.87 1.73-1Z"/><path d="M3.4 5.88l.86.5 -1 1.73 -.87-.5 1-1.74Z"/><path d="M20.72 15.884l.86.5 -1 1.73 -.87-.5 1-1.74Z"/><path d="M1.5 11h1v2h-1v-2Z"/><path d="M21.5 11h1v2h-1v-2Z"/><path d="M2.4 16.384l.86-.5 1 1.73 -.87.5 -1-1.74Z"/><path d="M19.72 6.38l.86-.5 1 1.73 -.87.5 -1-1.74Z"/><path d="M5.88 20.59l.5-.87 1.73 1 -.5.86 -1.74-1Z"/><path d="M15.88 3.27l.5-.87 1.73 1 -.5.86 -1.74-1Z"/></g></svg>