<svg viewBox="0 0 24 24" xmlns="http://www.w3.org/2000/svg"><defs><mask id="a"><path fill="#FFF" d="M0 0h24v24H0Z"/></mask></defs><g mask="url(#a)"><g fill-rule="evenodd"><path d="M18 23H6v-2h12v2Z"/><path d="M13 2v20h-2V2h2Z"/><path d="M15.55 16.832l-3 2 -1.11-1.67 3-2 1.1 1.66Z"/><path d="M6.06 8.67l6.5 4.5 -1.14 1.64 -6.51-4.5 1.13-1.65Z"/><path d="M16.912 4.69l-5.5 4 1.17 1.61 5.5-4 -1.18-1.62Z"/><path d="M1 5.66c.09-.32.34-.56.65-.66 1.27-.4 2.72.03 3.73 1.05 1.01 1.01 1.44 2.46 1.05 3.73 -.1.31-.35.55-.66.65 -1.28.39-2.73-.04-3.74-1.06C1.01 8.35.58 6.9.97 5.63Zm1.87 1.21c.05.35.24.75.58 1.1 .34.34.74.53 1.1.58 -.06-.36-.25-.76-.59-1.11 -.35-.35-.75-.54-1.11-.59Z"/><path d="M21.99 1.66c-.1-.32-.35-.56-.66-.66 -1.28-.4-2.73.03-3.74 1.05 -1.02 1.01-1.45 2.46-1.06 3.73 .09.31.34.55.65.65 1.27.39 2.72-.04 3.73-1.06 1.01-1.02 1.44-2.47 1.05-3.74Zm-1.88 1.21c-.06.35-.25.75-.59 1.1 -.35.34-.75.53-1.11.58 .05-.36.24-.76.58-1.11 .34-.35.74-.54 1.1-.59Z"/><path d="M8.52 11.32c.27.17.45.47.47.79 .06 1.33-.72 2.63-1.95 3.35 -1.24.72-2.75.79-3.89.09 -.28-.18-.46-.48-.48-.8 -.07-1.34.71-2.63 1.94-3.36s2.74-.8 3.88-.1Zm-1.65 1.51c-.37-.04-.8.04-1.22.29 -.43.25-.7.58-.85.92 .36.03.79-.05 1.21-.3 .42-.26.69-.59.84-.93Z"/><path d="M14.47 7.32c-.28.17-.46.47-.48.79 -.07 1.33.71 2.63 1.94 3.35 1.23.72 2.74.79 3.88.09 .27-.18.45-.48.47-.8 .06-1.34-.72-2.64-1.95-3.36 -1.24-.73-2.75-.8-3.89-.1Zm1.64 1.51c.36-.04.79.04 1.21.29 .42.25.69.58.84.92 -.37.03-.8-.05-1.22-.3 -.43-.26-.7-.59-.85-.93Z"/></g></g></svg>