<svg viewBox="0 0 24 24" xmlns="http://www.w3.org/2000/svg"><g fill-rule="evenodd"><path d="M1.5 20V2h1v18c0 .82.67 1.5 1.5 1.5h18v1H4c-1.39 0-2.5-1.12-2.5-2.5Z"/><path d="M10.5 3c0-.28-.23-.5-.5-.5H5c-.28 0-.5.22-.5.5v16c0 .27.22.5.5.5h5c.27 0 .5-.23.5-.5V3Zm-1 .5v15h-4v-15h4Z"/><path d="M15.5 7c0-.28-.23-.5-.5-.5h-5c-.28 0-.5.22-.5.5v12c0 .27.22.5.5.5h5c.27 0 .5-.23.5-.5V7Zm-1 .5v11h-4v-11h4Z"/><path d="M20.5 12c0-.28-.23-.5-.5-.5h-5c-.28 0-.5.22-.5.5v7c0 .27.22.5.5.5h5c.27 0 .5-.23.5-.5v-7Zm-1 .5v6h-4v-6h4Z"/></g></svg>