<svg viewBox="0 0 24 24" xmlns="http://www.w3.org/2000/svg"><g fill-rule="evenodd"><path d="M7.5 5c0-1.39 1.11-2.5 2.5-2.5h4c1.38 0 2.5 1.11 2.5 2.5v1c0 .27-.23.5-.5.5H8c-.28 0-.5-.23-.5-.5V5ZM10 3.5c-.83 0-1.5.67-1.5 1.5v.5h7V5c0-.83-.68-1.5-1.5-1.5h-4Z"/><path d="M1.5 8c0-1.39 1.11-2.5 2.5-2.5h16c1.38 0 2.5 1.11 2.5 2.5v11c0 1.38-1.12 2.5-2.5 2.5H4c-1.39 0-2.5-1.12-2.5-2.5V8ZM4 6.5c-.83 0-1.5.67-1.5 1.5v11c0 .82.67 1.5 1.5 1.5h16c.82 0 1.5-.68 1.5-1.5V8c0-.83-.68-1.5-1.5-1.5H4Z"/><path d="M1.5 8c0-1.39 1.11-2.5 2.5-2.5h16c1.38 0 2.5 1.11 2.5 2.5v5c0 .27-.23.5-.5.5h-7c-.28 0-.5-.23-.5-.5 0-.28.22-.5.5-.5h6.5V8c0-.83-.68-1.5-1.5-1.5H4c-.83 0-1.5.67-1.5 1.5v4.5H9c.27 0 .5.22.5.5 0 .27-.23.5-.5.5H2c-.28 0-.5-.23-.5-.5V8Z"/><path d="M8.98 13.49c-.31-1.55.87-3 2.45-3h1.12c1.57 0 2.76 1.44 2.45 2.99l-.53 2.6c-.05.23-.26.4-.5.4h-4c-.24 0-.45-.17-.5-.41l-.53-2.61Zm2.45-2c-.95 0-1.66.86-1.48 1.79l.44 2.2h3.18l.44-2.21c.18-.93-.53-1.8-1.48-1.8H11.4Z"/></g></svg>