<svg viewBox="0 0 24 24" xmlns="http://www.w3.org/2000/svg"><g fill-rule="evenodd"><path d="M5 2.5C3.61 2.5 2.5 3.61 2.5 5v14c0 1.38 1.11 2.5 2.5 2.5h5v1H5c-1.94 0-3.5-1.57-3.5-3.5V5c0-1.94 1.56-3.5 3.5-3.5h7c.13 0 .25.05.35.14l6 6c.09.09.14.22.14.35v2h-1v-1.8l-5.71-5.71h-6.8Z"/><path d="M11.8 1.53c.18-.08.4-.04.54.1l6 6c.14.14.18.35.1.54 -.08.18-.26.3-.47.3h-3c-1.94 0-3.5-1.57-3.5-3.5v-3c0-.21.12-.39.3-.47Zm.69 1.66v1.79c0 1.38 1.11 2.5 2.5 2.5h1.79l-4.3-4.3Z"/><path d="M13.5 13.5c0-.56.44-1 1-1h6c.55 0 1 .44 1 1v8c0 .55-.45 1-1 1h-6c-.56 0-1-.45-1-1v-8Zm7 0h-6v8h6v-8Z"/><path d="M13.5 13.5c0-.56.44-1 1-1h6c.55 0 1 .44 1 1v2c0 .55-.45 1-1 1h-6c-.56 0-1-.45-1-1v-2Zm7 0h-6v2h6v-2Z"/><path d="M8 11.86c0-.76.61-1.37 1.36-1.37h1.63v1H9.35c-.21 0-.37.16-.37.36 0 .12.06.23.16.3l1.22.81c.38.25.6.68.6 1.13 0 .75-.62 1.36-1.37 1.36H7.95v-1h1.63c.2 0 .36-.17.36-.37 0-.13-.07-.24-.17-.31l-1.23-.82c-.39-.26-.61-.69-.61-1.14Z"/><path d="M9 17v-2h1v2H9Z"/><path d="M9 11V9h1v2H9Z"/></g></svg>