<svg viewBox="0 0 24 24" xmlns="http://www.w3.org/2000/svg"><g fill-rule="evenodd"><path d="M7.5 3c0-.83.67-1.5 1.5-1.5h6c.82 0 1.5.67 1.5 1.5v1c0 .82-.68 1.5-1.5 1.5H9c-.83 0-1.5-.68-1.5-1.5V3ZM9 2.5c-.28 0-.5.22-.5.5v1c0 .27.22.5.5.5h6c.27 0 .5-.23.5-.5V3c0-.28-.23-.5-.5-.5H9Z"/><path d="M6 3.5c-.83 0-1.5.67-1.5 1.5v15c0 .82.67 1.5 1.5 1.5h12c.82 0 1.5-.68 1.5-1.5V5c0-.83-.68-1.5-1.5-1.5h-2v-1h2c1.38 0 2.5 1.11 2.5 2.5v15c0 1.38-1.12 2.5-2.5 2.5H6c-1.39 0-2.5-1.12-2.5-2.5V5c0-1.39 1.11-2.5 2.5-2.5h2v1H6Z"/><path d="M16 13.5H8v-1h8v1Z"/><path d="M16 17.5H8v-1h8v1Z"/><path d="M16 9.5H8v-1h8v1Z"/></g></svg>