<svg viewBox="0 0 24 24" xmlns="http://www.w3.org/2000/svg"><g fill-rule="evenodd"><path d="M1.5 6c0-1.39 1.11-2.5 2.5-2.5h16c1.38 0 2.5 1.11 2.5 2.5v2c0 .27-.23.5-.5.5H2c-.28 0-.5-.23-.5-.5V6ZM4 4.5c-.83 0-1.5.67-1.5 1.5v1.5h19V6c0-.83-.68-1.5-1.5-1.5H4Z"/><path d="M1.5 8c0-.28.22-.5.5-.5h20c.27 0 .5.22.5.5v2h-1V8.5h-19V20c0 .82.67 1.5 1.5 1.5h6v1H4c-1.39 0-2.5-1.12-2.5-2.5V8Z"/><path d="M11.5 5V2h1v3h-1Z"/><path d="M16.5 5V2h1v3h-1Z"/><path d="M6.5 5V2h1v3h-1Z"/><path d="M14.5 14c0-.28.22-.5.5-.5h5c.27 0 .5.22.5.5v1.11c0 .31-.07.63-.18.92l-.86 2.14c-.08.18-.26.31-.47.31h-3c-.21 0-.39-.13-.47-.32l-.86-2.15c-.12-.3-.18-.62-.18-.93v-1.12Zm1 .5v.61c0 .19.03.37.1.55l.73 1.82h2.32l.73-1.83c.07-.18.1-.37.1-.56v-.62h-4Z"/><path d="M14.5 22c0 .27.22.5.5.5h5c.27 0 .5-.23.5-.5v-1.12c0-.32-.07-.64-.18-.93l-.86-2.15c-.08-.19-.26-.32-.47-.32h-3c-.21 0-.39.12-.47.31l-.86 2.14c-.12.29-.18.61-.18.92v1.11Zm1-.5v-.62c0-.2.03-.38.1-.56l.73-1.83h2.32l.73 1.82c.07.17.1.36.1.55v.61h-4Z"/><path d="M22 14.5h-9v-1h9v1Z"/><path d="M22 22.5h-9v-1h9v1Z"/></g></svg>