<svg viewBox="0 0 24 24" xmlns="http://www.w3.org/2000/svg"><g fill-rule="evenodd"><path d="M7 2.5C5.61 2.5 4.5 3.61 4.5 5v14c0 1.38 1.11 2.5 2.5 2.5h10c1.38 0 2.5-1.12 2.5-2.5V8.2l-5.71-5.71h-6.8ZM3.5 5c0-1.94 1.56-3.5 3.5-3.5h7c.13 0 .25.05.35.14l6 6c.09.09.14.22.14.35v11c0 1.93-1.57 3.5-3.5 3.5h-10c-1.94 0-3.5-1.57-3.5-3.5v-14Z"/><path d="M13.8 1.53c.18-.08.4-.04.54.1l6 6c.14.14.18.35.1.54 -.08.18-.26.3-.47.3h-3c-1.94 0-3.5-1.57-3.5-3.5v-3c0-.21.12-.39.3-.47Zm.69 1.66v1.79c0 1.38 1.11 2.5 2.5 2.5h1.79l-4.3-4.3Z"/><path d="M11 7.5H8v-1h3v1Z"/><path d="M16 12.5H8v-1h8v1Z"/><path d="M16 17.5H8v-1h8v1Z"/></g></svg>