<svg viewBox="0 0 24 24" xmlns="http://www.w3.org/2000/svg"><g fill-rule="evenodd"><path d="M10.5 1.61c.11.09.18.23.18.38v6.74c0 .17-.1.34-.25.43 -.94.54-1.58 1.57-1.58 2.74 0 1.75 1.4 3.16 3.13 3.16 .28 0 .55-.04.81-.11 .17-.05.35 0 .48.13l4.72 4.76c.1.1.15.25.14.39 -.02.14-.1.28-.22.36 -1.7 1.17-3.75 1.86-5.96 1.86 -5.81 0-10.5-4.75-10.5-10.59 0-5.19 3.7-9.51 8.59-10.41 .14-.03.29.01.41.1Zm-.82 1c-4.13 1.04-7.19 4.8-7.19 9.29 0 5.29 4.25 9.58 9.5 9.58 1.78 0 3.45-.5 4.88-1.36l-4.1-4.14c-.26.04-.52.07-.79.07 -2.29 0-4.14-1.87-4.14-4.17 0-1.44.72-2.71 1.81-3.46V2.57Z"/><path d="M13.49 1.61c.11-.1.26-.14.41-.11 4.89.9 8.59 5.22 8.59 10.4 0 2.22-.69 4.29-1.85 5.99 -.09.12-.22.2-.37.21 -.15.01-.3-.04-.41-.15l-4.73-4.77c-.13-.13-.18-.31-.13-.49 .06-.27.1-.54.1-.83 0-1.18-.64-2.2-1.58-2.75 -.16-.09-.25-.26-.25-.44V1.92c0-.15.06-.29.18-.39Zm.81 1v5.84c1.09.74 1.81 2.01 1.81 3.45 0 .27-.03.53-.08.79l4.09 4.12c.85-1.44 1.34-3.12 1.34-4.92 0-4.49-3.06-8.26-7.19-9.3Z"/></g></svg>