<svg viewBox="0 0 24 24" xmlns="http://www.w3.org/2000/svg"><g fill-rule="evenodd"><path d="M1.5 6c0-1.39 1.11-2.5 2.5-2.5h4c.78 0 1.52.37 2 1l1.8 2.4c.28.37.72.6 1.2.6h7c1.38 0 2.5 1.11 2.5 2.49v8c0 1.38-1.12 2.5-2.5 2.5H4c-1.39 0-2.5-1.12-2.5-2.5v-12ZM4 4.5c-.83 0-1.5.67-1.5 1.5v12c0 .82.67 1.5 1.5 1.5h16c.82 0 1.5-.68 1.5-1.5v-8c0-.83-.68-1.5-1.5-1.5h-7c-.79 0-1.53-.38-2-1L9.2 5.09c-.29-.38-.73-.6-1.2-.6H4Z"/><path d="M9.55 4.77c.08-.17.25-.28.44-.28h9.25c1.38 0 2.5 1.11 2.5 2.5v1c0 .27-.23.5-.5.5h-8c-.79 0-1.53-.38-2-1l-1.65-2.2c-.12-.16-.14-.36-.05-.53Zm1.44.72l1.05 1.4c.28.37.72.6 1.2.6h7.5v-.5c0-.83-.68-1.5-1.5-1.5h-8.25Z"/></g></svg>