<svg viewBox="0 0 24 24" xmlns="http://www.w3.org/2000/svg"><g fill-rule="evenodd"><path d="M1.5 20V2h1v18c0 .82.67 1.5 1.5 1.5h18v1H4c-1.39 0-2.5-1.12-2.5-2.5Z"/><path d="M7 5.16c0-.92.74-1.67 1.66-1.67h2.33v1H8.65c-.37 0-.67.29-.67.66 0 .28.18.53.45.62l1.41.47c.67.22 1.13.86 1.13 1.57 0 .91-.75 1.66-1.67 1.66H6.96v-1h2.33c.36 0 .66-.3.66-.67 0-.29-.19-.54-.46-.63l-1.42-.48c-.68-.23-1.14-.87-1.14-1.58Z"/><path d="M8.5 11V9h1v2h-1Z"/><path d="M8.5 4V2h1v2h-1Z"/><path d="M16.81 2.01c.7-.69 1.83-.69 2.54 0l2.6 2.52c.71.68.71 1.81 0 2.5 -.57.54-1.41.65-2.08.32v.94c0 5.63-4.72 10.18-10.5 10.18 -.01 0-.01 0-.01 0l-7.39.02c-.14 0-.27-.06-.36-.15 -.1-.1-.15-.23-.15-.36v-2.53c0-.28.22-.5.49-.5l7.39-.03h0c3.82 0 6.89-3 6.89-6.66v-.95c-.673.32-1.52.21-2.08-.33 -.72-.69-.72-1.82 0-2.51l2.6-2.53Zm1.84.71c-.32-.31-.84-.31-1.15 0l-2.61 2.52c-.31.29-.31.77 0 1.06 .31.3.83.3 1.14 0l.38-.37c.14-.14.35-.18.54-.11 .18.07.3.25.3.46v2c0 4.24-3.55 7.65-7.9 7.65 -.01 0-.01 0-.01 0l-6.9.02v1.52l6.88-.03h0c5.26 0 9.5-4.13 9.5-9.19V6.24c0-.21.12-.39.3-.47 .18-.08.39-.04.54.1l.38.36c.31.3.83.3 1.14 0 .3-.3.3-.78 0-1.07l-2.61-2.53Z"/></g></svg>