<svg viewBox="0 0 24 24" xmlns="http://www.w3.org/2000/svg"><g fill-rule="evenodd"><path d="M12 8.5c-1.94 0-3.5 1.56-3.5 3.5 0 1.93 1.56 3.5 3.5 3.5 1.93 0 3.5-1.57 3.5-3.5 0-1.94-1.57-3.5-3.5-3.5ZM7.5 12c0-2.49 2.01-4.5 4.5-4.5 2.48 0 4.5 2.01 4.5 4.5 0 2.48-2.02 4.5-4.5 4.5 -2.49 0-4.5-2.02-4.5-4.5Z"/><path d="M14 22.5h-4v-1h4v1Z"/><path d="M9.5 16c0-.28.22-.5.5-.5h4c.27 0 .5.22.5.5v1c0 1.38-1.12 2.5-2.5 2.5 -1.39 0-2.5-1.12-2.5-2.5v-1Zm1 .5v.5c0 .82.67 1.5 1.5 1.5 .82 0 1.5-.68 1.5-1.5v-.5h-3Z"/><path d="M11.5 5V2h1v3h-1Z"/><path d="M7.64 6.35l-2-2 .7-.71 2 2 -.71.7Z"/><path d="M15.64 5.64l2-2 .7.7 -2 2 -.71-.71Z"/></g></svg>