<svg viewBox="0 0 24 24" xmlns="http://www.w3.org/2000/svg"><g fill-rule="evenodd"><path d="M9.5 2c0-.28.22-.5.5-.5h12c.27 0 .5.22.5.5v20c0 .27-.23.5-.5.5H10c-.28 0-.5-.23-.5-.5V2Zm1 .5v19h11v-19h-11Z"/><path d="M1.5 11c0-.28.22-.5.5-.5h8c.27 0 .5.22.5.5v11c0 .27-.23.5-.5.5H2c-.28 0-.5-.23-.5-.5V11Zm1 .5v10h7v-10h-7Z"/><path d="M12.5 8c0 .27.22.5.5.5h3c.27 0 .5-.23.5-.5V5c0-.28-.23-.5-.5-.5h-3c-.28 0-.5.22-.5.5v3Zm1-.5v-2h2v2h-2Z"/><path d="M15.5 8c0 .27.22.5.5.5h3c.27 0 .5-.23.5-.5V5c0-.28-.23-.5-.5-.5h-3c-.28 0-.5.22-.5.5v3Zm1-.5v-2h2v2h-2Z"/><path d="M12.5 14c0 .27.22.5.5.5h3c.27 0 .5-.23.5-.5v-3c0-.28-.23-.5-.5-.5h-3c-.28 0-.5.22-.5.5v3Zm1-.5v-2h2v2h-2Z"/><path d="M15.5 14c0 .27.22.5.5.5h3c.27 0 .5-.23.5-.5v-3c0-.28-.23-.5-.5-.5h-3c-.28 0-.5.22-.5.5v3Zm1-.5v-2h2v2h-2Z"/><path d="M13.5 22c0 .27.22.5.5.5h4c.27 0 .5-.23.5-.5v-5c0-.28-.23-.5-.5-.5h-4c-.28 0-.5.22-.5.5v5Zm1-.5v-4h3v4h-3Z"/><path d="M5.5 15v-1h1v1h-1Z"/><path d="M5.5 19v-1h1v1h-1Z"/></g></svg>