<svg viewBox="0 0 24 24" xmlns="http://www.w3.org/2000/svg"><g fill-rule="evenodd"><path d="M6.5 5c0-.28.22-.5.5-.5h10c.27 0 .5.22.5.5v17c0 .27-.23.5-.5.5H7c-.28 0-.5-.23-.5-.5V5Zm1 .5v16h9v-16h-9Z"/><path d="M7.5 11c0-.28-.23-.5-.5-.5H2c-.28 0-.5.22-.5.5v11c0 .27.22.5.5.5h5c.27 0 .5-.23.5-.5V11Zm-1 .5v10h-4v-10h4Z"/><path d="M22.5 14c0-.28-.23-.5-.5-.5h-5c-.28 0-.5.22-.5.5v8c0 .27.22.5.5.5h5c.27 0 .5-.23.5-.5v-8Zm-1 .5v7h-4v-7h4Z"/><path d="M7.5 5c0 .27.22.5.5.5h8c.27 0 .5-.23.5-.5V3c0-.83-.68-1.5-1.5-1.5H9c-.83 0-1.5.67-1.5 1.5v2Zm1-.5V3c0-.28.22-.5.5-.5h6c.27 0 .5.22.5.5v1.5h-7Z"/><path d="M10 11c0 .27.22.5.5.5h3c.27 0 .5-.23.5-.5V8c0-.28-.23-.5-.5-.5h-3c-.28 0-.5.22-.5.5v3Zm1-.5v-2h2v2h-2Z"/><path d="M9.5 22c0 .27.22.5.5.5h4c.27 0 .5-.23.5-.5v-6c0-.28-.23-.5-.5-.5h-4c-.28 0-.5.22-.5.5v6Zm1-.5v-5h3v5h-3Z"/></g></svg>