<svg viewBox="0 0 24 24" xmlns="http://www.w3.org/2000/svg"><g fill-rule="evenodd"><path d="M5.5 4c0-1.39 1.11-2.5 2.5-2.5h8c1.38 0 2.5 1.11 2.5 2.5v16c0 1.38-1.12 2.5-2.5 2.5H8c-1.39 0-2.5-1.12-2.5-2.5V4ZM8 2.5c-.83 0-1.5.67-1.5 1.5v16c0 .82.67 1.5 1.5 1.5h8c.82 0 1.5-.68 1.5-1.5V4c0-.83-.68-1.5-1.5-1.5H8Z"/><path d="M8.5 2c0-.28.22-.5.5-.5h6c.27 0 .5.22.5.5v2c0 .82-.68 1.5-1.5 1.5h-4c-.83 0-1.5-.68-1.5-1.5V2Zm1 .5V4c0 .27.22.5.5.5h4c.27 0 .5-.23.5-.5V2.5h-5Z"/><path d="M9.5 10.85c0-1.31 1.05-2.36 2.35-2.36h.14c1.38 0 2.5 1.11 2.5 2.5h-1c0-.83-.68-1.5-1.5-1.5h-.15c-.75 0-1.36.6-1.36 1.35 0 .51.28.98.74 1.21l1.95.97c.79.39 1.3 1.21 1.3 2.1 0 1.3-1.06 2.35-2.36 2.35h-.15c-1.39 0-2.5-1.12-2.5-2.5h1c0 .82.67 1.5 1.5 1.5h.14c.74 0 1.35-.61 1.35-1.36 0-.52-.29-.99-.75-1.22l-1.96-.98c-.8-.4-1.31-1.22-1.31-2.11Z"/><path d="M12.5 7v2h-1V7h1Z"/><path d="M12.5 17v2h-1v-2h1Z"/></g></svg>