<svg viewBox="0 0 24 24" xmlns="http://www.w3.org/2000/svg"><g fill-rule="evenodd"><path d="M5 5.5c-.83 0-1.5.67-1.5 1.5v13c0 .82.67 1.5 1.5 1.5h10c.82 0 1.5-.68 1.5-1.5V7c0-.83-.68-1.5-1.5-1.5h-1v-1h1c1.38 0 2.5 1.11 2.5 2.5v13c0 1.38-1.12 2.5-2.5 2.5H5c-1.39 0-2.5-1.12-2.5-2.5V7c0-1.39 1.11-2.5 2.5-2.5h1v1H5Z"/><path d="M5.5 2c0-.28.22-.5.5-.5h8c.27 0 .5.22.5.5v4c0 .27-.23.5-.5.5H6c-.28 0-.5-.23-.5-.5V2Zm1 .5v3h7v-3h-7Z"/><path d="M16.5 9c0-.28.22-.5.5-.5h2c1.38 0 2.5 1.11 2.5 2.5v5c0 1.38-1.12 2.5-2.5 2.5h-2c-.28 0-.5-.23-.5-.5V9Zm1 .5v8H19c.82 0 1.5-.68 1.5-1.5v-5c0-.83-.68-1.5-1.5-1.5h-1.5Z"/><path d="M5.5 9c0-.28.22-.5.5-.5h8c.27 0 .5.22.5.5v3c0 .27-.23.5-.5.5H6c-.28 0-.5-.23-.5-.5V9Zm1 .5v2h7v-2h-7Z"/><path d="M6.5 15v1h1v-1h-1Z"/><path d="M6.5 19v-1h1v1h-1Z"/><path d="M9.5 15v1h1v-1h-1Z"/><path d="M9.5 19v-1h1v1h-1Z"/><path d="M12.5 15v1h1v-1h-1Z"/><path d="M12.5 19v-1h1v1h-1Z"/></g></svg>