<svg viewBox="0 0 24 24" xmlns="http://www.w3.org/2000/svg"><g fill-rule="evenodd"><path d="M4.5 5c0-.28.22-.5.5-.5h14c.27 0 .5.22.5.5v15.48c0 1.07-1.1 1.8-2.09 1.38l-2.16-.92c-.15-.07-.31-.06-.45.02l-2.08 1.17c-.46.26-1.03.26-1.48 0l-2.08-1.18c-.14-.08-.3-.09-.45-.03l-2.16.91c-.99.42-2.09-.31-2.09-1.39V4.95Zm1 .5v14.98c0 .35.36.6.69.46l2.15-.92c.42-.19.91-.16 1.32.07l2.07 1.17c.15.08.34.08.49 0l2.07-1.18c.4-.24.89-.26 1.32-.08l2.15.91c.32.14.69-.11.69-.47V5.45h-13Z"/><path d="M2.5 2c0-.28.22-.5.5-.5h18c.27 0 .5.22.5.5v3c0 .27-.23.5-.5.5H3c-.28 0-.5-.23-.5-.5V2Zm1 .5v2h17v-2h-17Z"/><path d="M15 9.5H9v-1h6v1Z"/><path d="M15 13.5H9v-1h6v1Z"/><path d="M15 17.5H9v-1h6v1Z"/></g></svg>