<svg viewBox="0 0 24 24" xmlns="http://www.w3.org/2000/svg"><g fill-rule="evenodd"><path d="M1.5 6c0-1.39 1.11-2.5 2.5-2.5h16c1.38 0 2.5 1.11 2.5 2.5v2c0 .27-.23.5-.5.5H2c-.28 0-.5-.23-.5-.5V6ZM4 4.5c-.83 0-1.5.67-1.5 1.5v1.5h19V6c0-.83-.68-1.5-1.5-1.5H4Z"/><path d="M1.5 8c0-.28.22-.5.5-.5h20c.27 0 .5.22.5.5v12c0 1.38-1.12 2.5-2.5 2.5H4c-1.39 0-2.5-1.12-2.5-2.5V8Zm1 .5V20c0 .82.67 1.5 1.5 1.5h16c.82 0 1.5-.68 1.5-1.5V8.5h-19Z"/><path d="M11.5 5V2h1v3h-1Z"/><path d="M16.5 5V2h1v3h-1Z"/><path d="M6.5 5V2h1v3h-1Z"/><path d="M10.35 11.35l-3.01 3c-.2.19-.52.19-.71 0l-2-2 .7-.71 1.64 1.64 2.64-2.65 .7.7Z"/><path d="M19.35 11.35l-3 3c-.2.19-.52.19-.71 0l-2-2 .7-.71 1.64 1.64 2.64-2.65 .7.7Z"/><path d="M19.35 16.35l-3 3c-.2.19-.52.19-.71 0l-2-2 .7-.71 1.64 1.64 2.64-2.65 .7.7Z"/><path d="M10 18.5H5v-1h5v1Z"/></g></svg>