<svg viewBox="0 0 24 24" xmlns="http://www.w3.org/2000/svg"><g fill-rule="evenodd"><path d="M2.5 21.5V2h-1v20c0 .27.22.5.5.5h20v-1H2.5Z"/><path d="M22.35 9.35l-6 6c-.2.19-.52.19-.71 0l-1.65-1.65 -4.65 4.64c-.2.19-.52.19-.71 0l-2.65-2.65 -3.65 3.64 -.71-.71 4-4c.19-.2.51-.2.7 0l2.64 2.64 4.64-4.65c.19-.2.51-.2.7 0l1.64 1.64 5.64-5.65 .7.7Z"/><path d="M10 5.16c0-.92.74-1.67 1.66-1.67h2.33v1h-2.34c-.37 0-.67.29-.67.66 0 .28.18.53.45.62l1.41.47c.67.22 1.13.86 1.13 1.57 0 .91-.75 1.66-1.67 1.66H9.96v-1h2.33c.36 0 .66-.3.66-.67 0-.29-.19-.54-.46-.63l-1.42-.48c-.68-.23-1.14-.87-1.14-1.58Z"/><path d="M11.5 11V9h1v2h-1Z"/><path d="M11.5 4V2h1v2h-1Z"/></g></svg>