<svg viewBox="0 0 24 24" xmlns="http://www.w3.org/2000/svg"><path fill-rule="evenodd" d="M11.99 1.5c.16 0 .31.08.41.21l3.42 4.99 5.81 1.71c.15.04.28.16.33.32 .05.15.02.32-.08.45l-3.7 4.8 .16 6.05c0 .16-.08.32-.21.41 -.14.09-.31.12-.47.06l-5.72-2.04 -5.72 2.03c-.16.05-.33.03-.47-.07 -.14-.1-.22-.26-.21-.42l.16-6.06L2 9.13c-.11-.14-.14-.31-.08-.46 .05-.16.17-.28.33-.33l5.81-1.72 3.42-5c.09-.14.24-.22.41-.22Zm0 1.38L8.87 7.42c-.07.09-.17.16-.28.19L3.3 9.16l3.35 4.36c.07.09.1.2.1.31l-.16 5.5 5.19-1.85c.1-.04.22-.04.33 0l5.19 1.84 -.16-5.51c-.01-.12.03-.23.1-.32l3.35-4.37 -5.29-1.56c-.12-.04-.21-.11-.28-.2L11.9 2.81Z"/></svg>