<svg viewBox="0 0 24 24" xmlns="http://www.w3.org/2000/svg"><g fill-rule="evenodd"><path d="M2.5 9.5C2.5 8.11 3.61 7 5 7h14c1.38 0 2.5 1.11 2.5 2.5v8c0 1.38-1.12 2.5-2.5 2.5H5c-1.39 0-2.5-1.12-2.5-2.5v-8ZM5 8c-.83 0-1.5.67-1.5 1.5v8c0 .82.67 1.5 1.5 1.5h14c.82 0 1.5-.68 1.5-1.5v-8c0-.83-.68-1.5-1.5-1.5H5Z"/><path d="M11.5 5c-.83 0-1.5.67-1.5 1.5v1H9v-1C9 5.11 10.11 4 11.5 4h1C13.88 4 15 5.11 15 6.5v1h-1v-1c0-.83-.68-1.5-1.5-1.5h-1Z"/><path d="M9 10.5H6.5v-1H9c1.1 0 2 .89 2 2v4c0 1.1-.9 2-2 2H6.5v-1H9c.55 0 1-.45 1-1V14H7.5v-1H10v-1.5c0-.56-.45-1-1-1Z"/><path d="M13 11.5c0-1.11.89-2 2-2h1c1.1 0 2 .89 2 2v4c0 1.1-.9 2-2 2h-1c-1.11 0-2-.9-2-2v-4Zm2-1c-.56 0-1 .44-1 1v4c0 .55.44 1 1 1h1c.55 0 1-.45 1-1v-4c0-.56-.45-1-1-1h-1Z"/></g></svg>