<svg viewBox="0 0 24 24" xmlns="http://www.w3.org/2000/svg"><g fill-rule="evenodd"><path d="M2.5 7.5c0-1.11.89-2 2-2 1.1 0 2 .89 2 2v4H21c.27 0 .5.22.5.5v5c0 .27-.23.5-.5.5h-3c-.28 0-.5-.23-.5-.5v-1.5h-11V17c0 .27-.23.5-.5.5H3c-.28 0-.5-.23-.5-.5V7.5Zm2-1c-.56 0-1 .44-1 1v9h2V15c0-.28.22-.5.5-.5h12c.27 0 .5.22.5.5v1.5h2v-4H6c-.28 0-.5-.23-.5-.5V7.5c0-.56-.45-1-1-1Z"/><path d="M9.5 8.5c0-.28.22-.5.5-.5h8.5c1.65 0 3 1.34 3 3v1c0 .27-.23.5-.5.5H10c-.28 0-.5-.23-.5-.5V8.5Zm1 .5v2.5h10V11c0-1.11-.9-2-2-2h-8Z"/></g></svg>