<svg viewBox="0 0 24 24" xmlns="http://www.w3.org/2000/svg"><g fill-rule="evenodd"><path d="M4.5 10c0-.28.22-.5.5-.5h14c.27 0 .5.22.5.5 0 1.38 1.11 2.5 2.5 2.5 .27 0 .5.22.5.5v5c0 .27-.23.5-.5.5 -1.39 0-2.5 1.11-2.5 2.5 0 .27-.23.5-.5.5H5c-.28 0-.5-.23-.5-.5 0-1.39-1.12-2.5-2.5-2.5 -.28 0-.5-.23-.5-.5v-5c0-.28.22-.5.5-.5 1.38 0 2.5-1.12 2.5-2.5Zm.96.5c-.22 1.53-1.44 2.74-2.97 2.96v4.07c1.53.21 2.74 1.43 2.96 2.96h13.07c.21-1.54 1.43-2.75 2.96-2.97v-4.08c-1.54-.22-2.75-1.44-2.97-2.97H5.43Z"/><path d="M9 12.5c0-.28.22-.5.5-.5h5c.27 0 .5.22.5.5V17c0 .27-.23.5-.5.5h-5c-.28 0-.5-.23-.5-.5v-4.5Zm1 .5v3.5h4V13h-4Z"/><path d="M10 19v-2h1v2h-1Z"/><path d="M13 19v-2h1v2h-1Z"/><path d="M9.14 7.64l5-5 .7.7 -5.01 5 -.71-.71Z"/><path d="M14.85 7.64l-5-5 -.71.7 4.99 5 .7-.71Z"/></g></svg>