<svg viewBox="0 0 24 24" xmlns="http://www.w3.org/2000/svg"><g fill-rule="evenodd"><path d="M2.5 10c0-.28.22-.5.5-.5h18c.27 0 .5.22.5.5v11c0 .27-.23.5-.5.5H3c-.28 0-.5-.23-.5-.5V10Zm1 .5v10h17v-10h-17Z"/><path d="M2.5 5.5c0-.28.22-.5.5-.5h18c.27 0 .5.22.5.5V10c0 .27-.23.5-.5.5H3c-.28 0-.5-.23-.5-.5V5.5Zm1 .5v3.5h17V6h-17Z"/><path d="M7.5 3.5v4h-1v-4h1Z"/><path d="M17.5 3.5v4h-1v-4h1Z"/><path d="M9.14 17.64l5-5 .7.7 -5.01 5 -.71-.71Z"/><path d="M14.85 17.64l-5-5 -.71.7 4.99 5 .7-.71Z"/></g></svg>