<svg viewBox="0 0 24 24" xmlns="http://www.w3.org/2000/svg"><g fill-rule="evenodd"><path d="M1.5 13c0-1.39 1.11-2.5 2.5-2.5h16c1.38 0 2.5 1.11 2.5 2.5v3c0 .27-.23.5-.5.5H2c-.28 0-.5-.23-.5-.5v-3ZM4 11.5c-.83 0-1.5.67-1.5 1.5v2.5h19V13c0-.83-.68-1.5-1.5-1.5H4Z"/><path d="M3.5 7c0-1.39 1.11-2.5 2.5-2.5h12c1.38 0 2.5 1.11 2.5 2.5v4c0 .27-.23.5-.5.5H4c-.28 0-.5-.23-.5-.5V7ZM6 5.5c-.83 0-1.5.67-1.5 1.5v3.5h15V7c0-.83-.68-1.5-1.5-1.5H6Z"/><path d="M6 9c0-.83.67-1.5 1.5-1.5h2c.82 0 1.5.67 1.5 1.5v2c0 .27-.23.5-.5.5h-4c-.28 0-.5-.23-.5-.5V9Zm1.5-.5c-.28 0-.5.22-.5.5v1.5h3V9c0-.28-.23-.5-.5-.5h-2Z"/><path d="M13 9c0-.83.67-1.5 1.5-1.5h2c.82 0 1.5.67 1.5 1.5v2c0 .27-.23.5-.5.5h-4c-.28 0-.5-.23-.5-.5V9Zm1.5-.5c-.28 0-.5.22-.5.5v1.5h3V9c0-.28-.23-.5-.5-.5h-2Z"/><path d="M1.5 19v-3h1v3h-1Z"/><path d="M21.5 19v-3h1v3h-1Z"/></g></svg>