<svg viewBox="0 0 24 24" xmlns="http://www.w3.org/2000/svg"><g fill-rule="evenodd"><path d="M6.81 2.53c.11-.05.25-.05.37 0l4.81 1.92 4.81-1.93c.11-.05.25-.05.37 0l5 2c.18.07.31.25.31.46v16c0 .16-.09.32-.22.41 -.14.09-.32.11-.47.05l-4.82-1.93 -4.82 1.92c-.12.04-.26.04-.38 0L6.95 19.5l-4.82 1.92c-.16.06-.33.04-.47-.06 -.14-.1-.22-.25-.22-.42v-16c0-.21.12-.39.31-.47l5-2Zm-4.32 2.8v14.92l4.31-1.73c.11-.05.25-.05.37 0l4.81 1.92 4.81-1.93c.11-.05.25-.05.37 0l4.31 1.72V5.3l-4.5-1.8 -4.82 1.92c-.12.04-.26.04-.38 0L6.95 3.49l-4.5 1.8Z"/><path d="M12 8.5c-1.39 0-2.5 1.11-2.5 2.5 0 .3.14.79.42 1.43 .27.61.63 1.29 1 1.93 .36.63.73 1.22 1.01 1.65 .01.02.03.05.04.07 .01-.03.03-.05.04-.08 .27-.43.64-1.02 1.01-1.66 .37-.64.73-1.32 1-1.94 .27-.64.42-1.14.42-1.44 0-1.39-1.12-2.5-2.5-2.5Zm0 8.5c-.42.28-.42.28-.42.28l-.01-.02 -.03-.04c-.03-.04-.06-.09-.1-.15 -.09-.13-.21-.31-.35-.53 -.29-.44-.67-1.04-1.05-1.7 -.38-.66-.77-1.38-1.06-2.04 -.29-.65-.52-1.31-.52-1.84 0-1.94 1.56-3.5 3.5-3.5 1.93 0 3.5 1.56 3.5 3.5 0 .52-.23 1.19-.52 1.83 -.3.66-.68 1.38-1.06 2.03 -.39.65-.77 1.25-1.05 1.69 -.15.21-.27.39-.35.52 -.05.06-.08.11-.1.14l-.03.03 -.01.01c-.01 0-.01 0-.42-.29Zm0 0l.41.28c-.1.13-.25.21-.42.21 -.17 0-.32-.09-.42-.22l.41-.29Z"/></g></svg>