<svg viewBox="0 0 24 24" xmlns="http://www.w3.org/2000/svg"><g fill-rule="evenodd"><path d="M6.5 5.5c0-2.21 1.79-4 4-4h3c2.2 0 4 1.79 4 4v9c0 2.2-1.8 4-4 4h-3c-2.21 0-4-1.8-4-4v-9Zm4-3c-1.66 0-3 1.34-3 3v9c0 1.65 1.34 3 3 3h3c1.65 0 3-1.35 3-3v-9c0-1.66-1.35-3-3-3h-3Z"/><path d="M4.5 20c0-1.39 1.11-2.5 2.5-2.5h10c1.38 0 2.5 1.11 2.5 2.5v2c0 .27-.23.5-.5.5H5c-.28 0-.5-.23-.5-.5v-2ZM7 18.5c-.83 0-1.5.67-1.5 1.5v1.5h13V20c0-.83-.68-1.5-1.5-1.5H7Z"/><path d="M15 8.5H9v-1h6v1Z"/><path d="M12 7.5c.22 0 .41.14.47.35l1.5 4.99c.04.15.01.31-.08.44 -.1.12-.25.2-.41.2h-3c-.16 0-.31-.08-.41-.21 -.1-.13-.13-.3-.08-.45l1.5-5c.06-.22.25-.36.47-.36Zm-.83 5h1.65l-.83-2.76 -.83 2.75Z"/></g></svg>