<svg viewBox="0 0 24 24" xmlns="http://www.w3.org/2000/svg"><g fill-rule="evenodd"><path d="M3.5 9V5h1v4c0 .82.67 1.5 1.5 1.5h2c.82 0 1.5-.68 1.5-1.5V5h1v4c0 1.38-1.12 2.5-2.5 2.5H6c-1.39 0-2.5-1.12-2.5-2.5Z"/><path d="M16 5.5c-1.15 0-2.09.88-2.16 2.02l-.16 2.51c-.09 1.33.97 2.46 2.31 2.46 1.33 0 2.39-1.13 2.31-2.47l-.16-2.52c-.08-1.14-1.02-2.03-2.16-2.03Zm-3.16 1.96c.1-1.67 1.48-2.97 3.15-2.97 1.66 0 3.05 1.29 3.15 2.96l.15 2.51c.11 1.91-1.4 3.52-3.32 3.52s-3.44-1.62-3.32-3.53l.15-2.52Z"/><path d="M6.5 20V5h1v15h-1Z"/><path d="M15.5 20v-7h1v7h-1Z"/><path d="M2.64 20.64l18-18 .7.7 -18 18 -.71-.71Z"/></g></svg>