<svg viewBox="0 0 24 24" xmlns="http://www.w3.org/2000/svg"><g fill-rule="evenodd"><path d="M6.97 15.81c.04-.27.29-.46.56-.42l7.91 1.13c.26.03.44.27.42.53l-.4 4.97c-.03.26-.24.46-.5.46h-8.5c-.15 0-.29-.07-.39-.18 -.1-.12-.14-.26-.12-.41l.97-6.11Zm.91.64l-.81 5.04h7.45l.32-4.05 -6.97-1Z"/><path d="M9.03 5c.03-.28.29-.47.56-.43l6.92.99c.27.03.46.29.42.56L15.37 17c-.04.27-.3.46-.57.42l-6.93-1c-.28-.04-.47-.3-.43-.57L8.99 4.96Zm.91.63l-1.42 9.89 5.93.84 1.41-9.9 -5.94-.85Z"/><path d="M10.44 2.17c.03-.28.29-.47.56-.43l4.94.7c.27.03.46.29.42.56l-.43 2.96c-.04.27-.3.46-.57.42l-4.95-.71c-.28-.04-.47-.3-.43-.57l.42-2.97Zm.91.63l-.29 1.97 3.95.56 .28-1.98 -3.96-.57Z"/><path d="M5 21.5h14v1H5v-1Z"/></g></svg>