<svg viewBox="0 0 24 24" xmlns="http://www.w3.org/2000/svg"><g fill-rule="evenodd"><path d="M7.15 14.13c.12-.13.31-.17.48-.12l3.5 1c.12.03.23.11.29.23l1.85 3.24h3.2c1.1 0 2 .89 2 2 0 1.1-.9 2-2 2h-12c-.2 0-.38-.12-.46-.3l-2.5-5.5c-.08-.16-.06-.34.03-.48 .09-.15.25-.23.42-.23h3c.17 0 .33.09.42.24l1.35 2.25h1.09l-.87-3.9c-.04-.18.01-.36.14-.48Zm1.01 1.07l.81 3.68c.03.14-.01.3-.1.42 -.1.11-.24.18-.4.18h-2c-.18 0-.34-.1-.43-.25l-1.36-2.26H2.73l2.04 4.5h11.67c.55 0 1-.45 1-1 0-.56-.45-1-1-1h-3.5c-.18 0-.35-.1-.44-.26l-1.9-3.33 -2.5-.72Z"/><path d="M16.84 1.63c-.13-.13-.32-.17-.49-.12l-3.5 1c-.13.03-.24.11-.3.23l-1.86 3.24H7.48c-1.11 0-2 .89-2 2 0 1.1.89 1.99 2 1.99h12c.19 0 .37-.12.45-.3l2.5-5.5c.07-.16.05-.34-.04-.48 -.1-.15-.26-.23-.43-.23h-3c-.18 0-.34.09-.43.24l-1.36 2.25h-1.1l.86-3.9c.03-.18-.02-.36-.15-.48ZM15.82 2.7L15 6.38c-.04.14 0 .3.09.42 .09.11.23.18.39.18h2c.17 0 .33-.1.42-.25l1.35-2.26h1.94l-2.05 4.5H7.46c-.56 0-1-.45-1-1 0-.56.44-1 1-1h3.5c.17 0 .34-.1.43-.26l1.89-3.33 2.49-.72Z"/><path d="M6.53 8.63c.2.18.2.5.01.7 -1.28 1.34-2.06 3.15-2.06 5.15 0 .64.08 1.27.23 1.87 .06.26-.1.54-.36.6 -.27.06-.55-.1-.61-.36 -.18-.68-.27-1.4-.27-2.13 0-2.27.88-4.321 2.32-5.85 .18-.21.5-.21.7-.02Zm11.39.47c.21-.18.53-.14.7.07 1.16 1.45 1.86 3.3 1.86 5.31 0 2.15-.81 4.12-2.13 5.62 -.19.2-.5.22-.71.04 -.21-.19-.23-.5-.05-.71 1.16-1.33 1.87-3.06 1.87-4.97 0-1.78-.62-3.41-1.65-4.69 -.18-.22-.14-.54.07-.71Z"/></g></svg>