<svg viewBox="0 0 24 24" xmlns="http://www.w3.org/2000/svg"><g fill-rule="evenodd"><path d="M1.5 12c0-.28.22-.5.5-.5h20c.27 0 .5.22.5.5v10c0 .27-.23.5-.5.5H2c-.28 0-.5-.23-.5-.5V12Zm1 .5v9h19v-9h-19Z"/><path d="M12 15c-1.11 0-2 .89-2 2 0 1.1.89 2 2 2 1.1 0 2-.9 2-2 0-1.11-.9-2-2-2Zm-3 2c0-1.66 1.34-3 3-3 1.65 0 3 1.34 3 3 0 1.65-1.35 3-3 3 -1.66 0-3-1.35-3-3Z"/><path d="M8.64 4.14l2.49-2.5 .7.7 -2.15 2.14 2.14 2.14 -.71.7 -2.5-2.5c-.2-.2-.2-.52 0-.71Z"/><path d="M13.75 5H9V4h4.75c1.51 0 2.75 1.23 2.75 2.75 0 1.51-1.24 2.75-2.75 2.75H9v-1h4.75c.96 0 1.75-.79 1.75-1.75 0-.97-.79-1.75-1.75-1.75Z"/><path d="M1.5 12c0-.28.22-.5.5-.5h3c.27 0 .5.22.5.5v1c0 1.38-1.12 2.5-2.5 2.5H2c-.28 0-.5-.23-.5-.5v-3Zm1 .5v2H3c.82 0 1.5-.68 1.5-1.5v-.5h-2Z"/><path d="M22.5 12c0-.28-.23-.5-.5-.5h-3c-.28 0-.5.22-.5.5v1c0 1.38 1.11 2.5 2.5 2.5h1c.27 0 .5-.23.5-.5v-3Zm-1 .5v2H21c-.83 0-1.5-.68-1.5-1.5v-.5h2Z"/><path d="M1.5 22c0 .27.22.5.5.5h3c.27 0 .5-.23.5-.5v-1c0-1.39-1.12-2.5-2.5-2.5H2c-.28 0-.5.22-.5.5v3Zm1-.5v-2H3c.82 0 1.5.67 1.5 1.5v.5h-2Z"/><path d="M22.5 22c0 .27-.23.5-.5.5h-3c-.28 0-.5-.23-.5-.5v-1c0-1.39 1.11-2.5 2.5-2.5h1c.27 0 .5.22.5.5v3Zm-1-.5v-2H21c-.83 0-1.5.67-1.5 1.5v.5h2Z"/></g></svg>