<svg viewBox="0 0 24 24" xmlns="http://www.w3.org/2000/svg"><g fill-rule="evenodd"><path d="M2.5 9.5c0-.28.22-.5.5-.5h18c.27 0 .5.22.5.5V21c0 .27-.23.5-.5.5H3c-.28 0-.5-.23-.5-.5V9.5Zm1 .5v10.5h17V10h-17Z"/><path d="M2.5 5c0-.28.22-.5.5-.5h18c.27 0 .5.22.5.5v4.5c0 .27-.23.5-.5.5H3c-.28 0-.5-.23-.5-.5V5Zm1 .5V9h17V5.5h-17Z"/><path d="M7.5 3v4h-1V3h1Z"/><path d="M17.5 3v4h-1V3h1Z"/><path d="M8.14 13.64l2.49-2.5 .7.7 -2.15 2.14 2.14 2.14 -.71.7 -2.5-2.5c-.2-.2-.2-.52 0-.71Z"/><path d="M13.25 14.5H8.5v-1h4.75c1.51 0 2.75 1.23 2.75 2.75 0 1.51-1.24 2.75-2.75 2.75H8.5v-1h4.75c.96 0 1.75-.79 1.75-1.75 0-.97-.79-1.75-1.75-1.75Z"/></g></svg>