<svg viewBox="0 0 24 24" xmlns="http://www.w3.org/2000/svg"><g fill-rule="evenodd"><path d="M1.5 4c0-.28.22-.5.5-.5h4c.27 0 .5.22.5.5v16c0 .27-.23.5-.5.5H2c-.28 0-.5-.23-.5-.5V4Zm1 .5v15h3v-15h-3Z"/><path d="M6 19.5h16v1H6v-1Z"/><path d="M22.5 8c0-.28-.23-.5-.5-.5h-7.29c-.58 0-1.14.19-1.59.56l-4.04 3.29c-.7.56-1.11 1.42-1.11 2.32v.81c0 1.65 1.34 3 3 3h11c.27 0 .5-.23.5-.5v-9Zm-1 .5v8H11c-1.11 0-2-.9-2-2v-.82c0-.6.26-1.17.73-1.55l4.03-3.3c.26-.22.6-.34.94-.34h6.78Z"/><path d="M16.73 10.5l1.85-2.78 .83.55 -2 3c-.1.13-.25.22-.42.22h-6.5v-1h6.23Z"/></g></svg>