<svg viewBox="0 0 24 24" xmlns="http://www.w3.org/2000/svg"><g fill-rule="evenodd"><path d="M1.5 13c0-1.39 1.11-2.5 2.5-2.5h16c1.38 0 2.5 1.11 2.5 2.5v4c0 .27-.23.5-.5.5H2c-.28 0-.5-.23-.5-.5v-4ZM4 11.5c-.83 0-1.5.67-1.5 1.5v3.5h19V13c0-.83-.68-1.5-1.5-1.5H4Z"/><path d="M4.5 5c0-1.39 1.11-2.5 2.5-2.5h10.16c1.38 0 2.5 1.11 2.5 2.5v6c0 .27-.23.5-.5.5H4.99c-.28 0-.5-.23-.5-.5V5ZM7 3.5c-.83 0-1.5.67-1.5 1.5v5.5h13.16V5c0-.83-.68-1.5-1.5-1.5H6.99Z"/><path d="M8.5 8c0-.83.67-1.5 1.5-1.5h4c.82 0 1.5.67 1.5 1.5v3c0 .27-.23.5-.5.5H9c-.28 0-.5-.23-.5-.5V8Zm1.5-.5c-.28 0-.5.22-.5.5v2.5h5V8c0-.28-.23-.5-.5-.5h-4Z"/><path d="M1.5 21v-4h1v4h-1Z"/><path d="M21.5 21v-4h1v4h-1Z"/></g></svg>