<svg viewBox="0 0 24 24" xmlns="http://www.w3.org/2000/svg"><g fill-rule="evenodd"><path d="M11.98 5.37c.12-.01.25.03.35.11l2.83 2.37 3.15-1.15c1.03-.38 2.18.15 2.56 1.19 .37 1.03-.16 2.18-1.2 2.56l-11.28 4.1c-.19.06-.4.02-.53-.12l-4.24-4.32c-.12-.13-.17-.3-.14-.47 .03-.17.15-.31.31-.36L6.6 8.25c.17-.07.37-.03.51.1l1.8 1.7 1.1-.41 -2.13-3.32c-.1-.15-.11-.34-.03-.5 .07-.16.23-.27.41-.28l3.63-.26ZM9.25 6.56l2 3.13c.08.12.1.28.05.42 -.05.14-.16.25-.31.3L9 11.13c-.18.06-.38.02-.52-.11L6.67 9.31l-1.8.65 3.46 3.52 10.97-4c.51-.19.78-.77.59-1.29 -.19-.52-.77-.79-1.29-.6l-3.43 1.24c-.17.06-.36.02-.5-.09l-2.91-2.43 -2.59.18Z"/><path d="M22 19H2v-1h20v1Z"/></g></svg>