<svg viewBox="0 0 24 24" xmlns="http://www.w3.org/2000/svg"><g fill-rule="evenodd"><path d="M1.5 15c0-.28.22-.5.5-.5h14.29c.56 0 1.11.19 1.56.54l3.88 3.11c.47.37.75.95.75 1.56v.77c0 1.1-.9 2-2 2H1.98c-.28 0-.5-.23-.5-.5v-7Zm1 .5v6h18c.55 0 1-.45 1-1v-.78c0-.31-.14-.6-.38-.79l-3.89-3.12c-.27-.22-.6-.33-.94-.33H2.49Z"/><path d="M22.5 2c0-.28-.23-.5-.5-.5H7.7c-.57 0-1.12.19-1.57.54L2.24 5.15c-.48.37-.76.95-.76 1.56v.77c0 1.1.89 2 2 2h18.5c.27 0 .5-.23.5-.5v-7Zm-1 .5v6h-18c-.56 0-1-.45-1-1v-.78c0-.31.13-.6.37-.79l3.88-3.12c.26-.22.59-.33.93-.33h13.79Z"/><path d="M13.73 17.5l-2.36-2.83 -.77.64 2.5 3c.09.11.23.17.38.17h7v-1h-6.77Z"/><path d="M10.26 4.49l2.35-2.83 .76.64 -2.5 3c-.1.11-.24.17-.39.17H3.47v-1h6.76Z"/><path d="M9.06 17.5l-1.49-2.23 .83-.56 1.99 3c.1.15.11.35.02.51 -.09.16-.26.26-.45.26h-8v-1h7.06Z"/><path d="M14.93 4.5l1.48-2.23 -.84-.56 -2 3c-.11.15-.12.35-.03.51 .08.16.25.26.44.26h8v-1h-7.07Z"/><path d="M15.18 10.6c.18-.15.44-.15.62 0l2.5 2 -.63.78 -2.19-1.76 -2.19 1.75 -.63-.79 2.5-2Z"/><path d="M8.18 13.39c.18.14.44.14.62 0l2.5-2 -.63-.79 -2.19 1.75 -2.19-1.76 -.63.78 2.5 2Z"/></g></svg>