<svg viewBox="0 0 24 24" xmlns="http://www.w3.org/2000/svg"><g fill-rule="evenodd"><path d="M4.5 6.5c0-.28.22-.5.5-.5h14c.27 0 .5.22.5.5C19.5 7.88 20.61 9 22 9c.27 0 .5.22.5.5v5c0 .27-.23.5-.5.5 -1.39 0-2.5 1.11-2.5 2.5 0 .27-.23.5-.5.5H5c-.28 0-.5-.23-.5-.5C4.5 16.11 3.38 15 2 15c-.28 0-.5-.23-.5-.5v-5c0-.28.22-.5.5-.5 1.38 0 2.5-1.12 2.5-2.5Zm.96.5c-.22 1.53-1.44 2.74-2.97 2.96v4.07c1.53.21 2.74 1.43 2.96 2.96h13.07c.21-1.54 1.43-2.75 2.96-2.97V9.94c-1.54-.22-2.75-1.44-2.97-2.97H5.43Z"/><path d="M7.5 10c0-.28.22-.5.5-.5h5.17c.66 0 1.29.26 1.76.73l1.41 1.41c.09.09.14.22.14.35v2c0 .27-.23.5-.5.5h-8c-.28 0-.5-.23-.5-.5v-4Zm1 .5v3h7v-1.3l-1.27-1.27c-.29-.29-.67-.44-1.07-.44H8.48Z"/></g></svg>