<svg viewBox="0 0 24 24" xmlns="http://www.w3.org/2000/svg"><g fill-rule="evenodd"><path d="M4.5 6c0-.28.22-.5.5-.5h14c.27 0 .5.22.5.5v16c0 .27-.23.5-.5.5H5c-.28 0-.5-.23-.5-.5V6Zm1 .5v15h13v-15h-13Z"/><path d="M17.29 1.59c.13.09.2.24.2.4v4h-1V2.68L5.14 6.46l-.32-.95 12-4c.15-.06.32-.03.45.06Z"/><path d="M12 10c-1.39 0-2.5 1.11-2.5 2.5 0 .3.14.79.42 1.43 .27.61.63 1.29 1 1.93 .36.63.73 1.22 1.01 1.65 .01.02.03.05.04.07 .01-.03.03-.05.04-.08 .27-.43.64-1.02 1.01-1.66 .37-.64.73-1.32 1-1.94 .27-.64.42-1.14.42-1.44 0-1.39-1.12-2.5-2.5-2.5Zm0 8.5c-.42.28-.42.28-.42.28l-.01-.02 -.03-.04c-.03-.04-.06-.09-.1-.15 -.09-.13-.21-.31-.35-.53 -.29-.44-.67-1.04-1.05-1.7 -.38-.66-.77-1.38-1.06-2.04 -.29-.65-.52-1.31-.52-1.84 0-1.94 1.56-3.5 3.5-3.5 1.93 0 3.5 1.56 3.5 3.5 0 .52-.23 1.19-.52 1.83 -.3.66-.68 1.38-1.06 2.03 -.39.65-.77 1.25-1.05 1.69 -.15.21-.27.39-.35.52 -.05.06-.08.11-.1.14l-.03.03 -.01.01c-.01 0-.01 0-.42-.29Zm0 0l.41.28c-.1.13-.25.21-.42.21 -.17 0-.32-.09-.42-.22l.41-.29Z"/></g></svg>