<svg viewBox="0 0 24 24" xmlns="http://www.w3.org/2000/svg"><g fill-rule="evenodd"><path d="M3 8c0-.28.22-.5.5-.5h11c.27 0 .5.22.5.5v14c0 .27-.23.5-.5.5h-11c-.28 0-.5-.23-.5-.5V8Zm1 .5v13h10v-13H4Z"/><path d="M9 2c0-.28.22-.5.5-.5h11c.27 0 .5.22.5.5v14c0 .27-.23.5-.5.5h-6v-1H20v-13H10V8H9V2Z"/><path d="M9.32 1.52c.19-.08.41-.02.55.15l4.99 6c.12.14.15.35.06.53 -.09.17-.26.28-.46.28h-5c-.28 0-.5-.23-.5-.5v-6c0-.22.13-.4.32-.48Zm.67 1.85v4.11h3.43L9.98 3.36Z"/><path d="M9.5 10.5v8h-1v-8h1Z"/><path d="M9 13.57l-3.26 1.85 -.5-.87 3.5-2c.15-.09.34-.09.49 0l3.5 2 -.5.86 -3.26-1.86Z"/><path d="M8.99 18.059l-1.78.88 -.45-.9 2-1c.14-.08.3-.08.44 0l2 1 -.45.89 -1.78-.89Z"/></g></svg>