<svg viewBox="0 0 24 24" xmlns="http://www.w3.org/2000/svg"><g fill-rule="evenodd"><path d="M1.5 10c0-.28.22-.5.5-.5h20c.27 0 .5.22.5.5v3c0 .27-.23.5-.5.5 -1.11 0-2 .89-2 2 0 1.1.89 2 2 2 .27 0 .5.22.5.5v3c0 .27-.23.5-.5.5H2c-.28 0-.5-.23-.5-.5v-3c0-.28.22-.5.5-.5 1.1 0 2-.9 2-2 0-1.11-.9-2-2-2 -.28 0-.5-.23-.5-.5v-3Zm1 .5v2.04c1.41.23 2.5 1.47 2.5 2.95 0 1.48-1.09 2.72-2.5 2.95v2.04h19v-2.05c-1.42-.24-2.5-1.48-2.5-2.96 0-1.49 1.08-2.73 2.5-2.96v-2.05h-19Z"/><path d="M9 12.5c0-.28.22-.5.5-.5h5c.27 0 .5.22.5.5V17c0 .27-.23.5-.5.5h-5c-.28 0-.5-.23-.5-.5v-4.5Zm1 .5v3.5h4V13h-4Z"/><path d="M10 19v-2h1v2h-1Z"/><path d="M13 19v-2h1v2h-1Z"/><path d="M11.49 6.79l4.14-4.15 .7.7 -4.5 4.5c-.1.09-.23.14-.36.14 -.14 0-.26-.06-.36-.15l-2-2 .7-.71 1.64 1.64Z"/></g></svg>