<svg viewBox="0 0 24 24" xmlns="http://www.w3.org/2000/svg"><g fill-rule="evenodd"><path d="M4 8c0-.28.22-.5.5-.5h10c.27 0 .5.22.5.5v14c0 .27-.23.5-.5.5h-10c-.28 0-.5-.23-.5-.5V8Zm1 .5v13h9v-13H5Z"/><path d="M9 2c0-.28.22-.5.5-.5h10c.27 0 .5.22.5.5v14c0 .27-.23.5-.5.5h-5v-1H19v-13h-9V8H9V2Z"/><path d="M9.32 1.52c.19-.08.41-.02.55.15l4.99 6c.12.14.15.35.06.53 -.09.17-.26.28-.46.28h-5c-.28 0-.5-.23-.5-.5v-6c0-.22.13-.4.32-.48Zm.67 1.85v4.11h3.43L9.98 3.36Z"/><path d="M9 18v-6h1v6H9Z"/><path d="M11.84 16.933l-5.2-3 .5-.87 5.19 3 -.5.86Z"/><path d="M7.15 16.933l5.19-3 -.5-.87 -5.2 3 .5.86Z"/></g></svg>