<svg viewBox="0 0 24 24" xmlns="http://www.w3.org/2000/svg"><g fill-rule="evenodd"><path d="M1.71 2.09c.13-.1.3-.12.45-.07L9 4.46l6.34-1.96c.1-.04.22-.03.32.01l6.5 2.5c.19.07.32.25.32.46v16c0 .16-.09.31-.22.41 -.14.09-.31.11-.47.05l-6.34-2.44 -6.34 1.94c-.11.03-.22.02-.32-.01l-7-2.5c-.2-.08-.34-.26-.34-.48v-16c0-.17.07-.32.21-.41Zm.78 1.11v14.93L9 20.45l6.34-1.96c.1-.04.22-.03.32.01l5.82 2.23V5.8l-6.02-2.32 -6.34 1.94c-.11.03-.22.02-.32-.01L2.46 3.14Z"/><path d="M12 8c-2.21 0-4 1.79-4 4 0 2.2 1.79 4 4 4 2.2 0 4-1.8 4-4 0-2.21-1.8-4-4-4Zm-5 4c0-2.77 2.23-5 5-5 2.76 0 5 2.23 5 5 0 2.76-2.24 5-5 5 -2.77 0-5-2.24-5-5Z"/><path d="M11.4 9.34c-.25.65-.41 1.59-.41 2.65 0 1.06.16 1.99.4 2.65 .12.32.25.56.38.7 .12.14.19.14.2.14 .01 0 .08-.01.2-.15 .12-.15.25-.38.38-.71 .24-.66.4-1.6.4-2.66 0-1.07-.17-2-.41-2.66 -.13-.33-.26-.57-.39-.71 -.13-.15-.2-.15-.21-.15 -.02 0-.09 0-.21.14 -.13.14-.26.37-.39.7Zm-.37-1.37c.23-.27.55-.49.95-.49 .4 0 .72.21.95.48 .23.26.42.61.57 1.01 .29.79.47 1.85.47 3 0 1.14-.18 2.21-.48 3 -.15.39-.34.74-.58 1.01 -.24.26-.56.48-.96.48 -.41 0-.73-.22-.96-.49 -.24-.27-.43-.62-.58-1.02 -.3-.8-.48-1.86-.48-3.01 0-1.15.17-2.22.47-3.01 .14-.4.33-.75.57-1.02Z"/><path d="M7 12c0-.28.22-.5.5-.5h9c.27 0 .5.22.5.5 0 .27-.23.5-.5.5h-9c-.28 0-.5-.23-.5-.5Z"/></g></svg>