<svg viewBox="0 0 24 24" xmlns="http://www.w3.org/2000/svg"><g fill-rule="evenodd"><path d="M12 2.5c-5.25 0-9.5 4.25-9.5 9.5 0 5.24 4.25 9.5 9.5 9.5 5.24 0 9.5-4.26 9.5-9.5 0-5.25-4.26-9.5-9.5-9.5ZM1.5 12C1.5 6.2 6.2 1.5 12 1.5c5.79 0 10.5 4.7 10.5 10.5 0 5.79-4.71 10.5-10.5 10.5 -5.8 0-10.5-4.71-10.5-10.5Z"/><path d="M11.98 1.5c.27-.01.5.21.51.48l.13 5c0 .12-.04.24-.12.33l-2.14 2.5c-.08.08-.18.14-.29.16l-1.95.38 1.02 3.08c.42 1.28-.94 2.43-2.13 1.79l-5.29-2.83c-.25-.13-.34-.44-.21-.68 .12-.25.43-.34.67-.21l5.28 2.82c.39.21.85-.18.7-.6l-1.21-3.63c-.05-.14-.04-.29.04-.41 .07-.13.19-.22.33-.24l2.33-.47 1.89-2.23 -.13-4.81c-.01-.28.21-.51.48-.52Z"/><path d="M9.64 18.64c.09-.1.22-.15.35-.15h4c.13 0 .25.05.35.14l2 2c.19.19.19.51 0 .7 -.2.19-.52.19-.71 0l-1.86-1.86h-3.59l-1.86 1.85c-.2.19-.52.19-.71 0 -.2-.2-.2-.52 0-.71l2-2Z"/><path d="M21.4 7.7c.16.22.12.53-.1.7l-3.875 2.9 -.86 2.55 3.78 3.78c.19.19.19.51 0 .7 -.2.19-.52.19-.71 0l-4-4c-.14-.14-.19-.34-.13-.52l1-3c.03-.1.09-.19.17-.25l4-3c.22-.17.53-.13.7.1Z"/></g></svg>