<svg viewBox="0 0 24 24" xmlns="http://www.w3.org/2000/svg"><g fill="#3747D6" fill-rule="evenodd"><path d="M6.5 5c0-.56.44-1 1-1H17c.55 0 1 .44 1 1v6.5c0 .55-.45 1-1 1H7.5c-.56 0-1-.45-1-1V5Zm2 1v4.5H16V6H8.5Z"/><g fill="#9545ED"><path d="M16 13.5c0-.56.44-1 1-1h4c.55 0 1 .44 1 1v4c0 .55-.45 1-1 1h-4c-.56 0-1-.45-1-1v-4Zm2 1v2h2v-2h-2Z"/><path d="M16 9.5c0-.56.44-1 1-1h4c.55 0 1 .44 1 1v4c0 .55-.45 1-1 1h-4c-.56 0-1-.45-1-1v-4Zm2 1v2h2v-2h-2Z"/><path d="M16 5.5c0-.56.44-1 1-1h4c.55 0 1 .44 1 1v4c0 .55-.45 1-1 1h-4c-.56 0-1-.45-1-1v-4Zm2 1v2h2v-2h-2Z"/></g><path d="M6.5 11.5c0-.56.44-1 1-1H17c.55 0 1 .44 1 1v7c0 .55-.45 1-1 1H7.5c-.56 0-1-.45-1-1v-7Zm2 1v5H16v-5H8.5Z"/><path d="M16 22V2h2v20h-2Z"/><path d="M20 22V2h2v20h-2Z"/><g fill="#9545ED"><path d="M8.5 13.5c0-.56-.45-1-1-1h-4c-.56 0-1 .44-1 1v4c0 .55.44 1 1 1h4c.55 0 1-.45 1-1v-4Zm-2 1v2h-2v-2h2Z"/><path d="M8.5 9.5c0-.56-.45-1-1-1h-4c-.56 0-1 .44-1 1v4c0 .55.44 1 1 1h4c.55 0 1-.45 1-1v-4Zm-2 1v2h-2v-2h2Z"/><path d="M8.5 5.5c0-.56-.45-1-1-1h-4c-.56 0-1 .44-1 1v4c0 .55.44 1 1 1h4c.55 0 1-.45 1-1v-4Zm-2 1v2h-2v-2h2Z"/></g><path d="M4.5 22V2h-2v20h2Z"/><path d="M6.5 22V2h2v20h-2Z"/></g></svg>