<svg viewBox="0 0 24 24" xmlns="http://www.w3.org/2000/svg"><g fill="#9545ED" fill-rule="evenodd"><path d="M10.5 8.5c0-1.11.89-2 2-2 1.1 0 2 .89 2 2 0 1.1-.9 2-2 2 -1.11 0-2-.9-2-2Z"/><path d="M15.5 6c0-1.11.89-2 2-2 1.1 0 2 .89 2 2 0 1.1-.9 2-2 2 -1.11 0-2-.9-2-2Z"/><path d="M15.5 11c0-1.11.89-2 2-2 1.1 0 2 .89 2 2 0 1.1-.9 2-2 2 -1.11 0-2-.9-2-2Z"/><path d="M15.169 8.58l1.88-1.26 -1.11-1.67 -3 2c-.27.17-.43.46-.45.77 -.02.31.11.61.35.82l3 2.49 1.28-1.54 -1.98-1.65Z"/><g fill="#3747D6"><path d="M4 3c-.56 0-1 .44-1 1v16c0 .55.44 1 1 1h16c.55 0 1-.45 1-1v-4.5h2V20c0 1.65-1.35 3-3 3H4c-1.66 0-3-1.35-3-3V4c0-1.66 1.34-3 3-3h4.5v2H4Z"/><path d="M7.69 16.43c-.39-.48-1.11-.5-1.52-.05l-3.44 3.77 -1.48-1.35 3.43-3.78c1.23-1.36 3.39-1.3 4.54.12l5.03 6.19 -1.56 1.26 -5.04-6.2Z"/><path d="M17.11 19.03c-.38-.38-.97-.4-1.37-.05l-2.6 2.26 -1.32-1.51 2.59-2.27c1.18-1.05 2.98-.99 4.09.13l3.17 3.17 -1.42 1.41 -3.18-3.18Z"/></g><path d="M15.5 3C12.46 3 10 5.46 10 8.5c0 3.03 2.46 5.5 5.5 5.5 3.03 0 5.5-2.47 5.5-5.5C21 5.46 18.53 3 15.5 3ZM8 8.5C8 4.35 11.35 1 15.5 1 19.64 1 23 4.35 23 8.5c0 4.14-3.36 7.5-7.5 7.5C11.35 16 8 12.64 8 8.5Z"/></g></svg>