<svg viewBox="0 0 24 24" xmlns="http://www.w3.org/2000/svg"><g fill="#3747D6" fill-rule="evenodd"><path d="M8.03 1.73c.11-.44.51-.74.96-.74h7.99c.33 0 .64.16.83.44 .18.28.21.63.08.94l-2.41 5.6h2.48c.36 0 .7.2.87.52 .17.32.15.71-.05 1.02l-1.31 1.99 -1.68-1.1 .29-.46h-2.16c-.34 0-.65-.17-.84-.45 -.19-.29-.22-.64-.09-.95l2.4-5.61H9.67l-.35 1.26 -1.93-.53 .54-2ZM7.3 11.99l1.18-4.35 -1.93-.53 -1.54 5.61c-.09.3-.02.62.17.87 .18.24.48.39.79.39h3.81l-1.31 7.83c-.08.46.18.92.62 1.096 .44.17.94.01 1.2-.39l5-7.65 -1.68-1.1 -2.4 3.66 .71-4.31c.04-.29-.04-.59-.23-.82 -.19-.23-.47-.36-.77-.36h-3.7Z"/><path fill="#9545ED" d="M20.293 21.7l-18-18L3.7 2.28l18 18 -1.42 1.41Z"/></g></svg>