<svg viewBox="0 0 24 24" xmlns="http://www.w3.org/2000/svg"><g fill="#3747D6" fill-rule="evenodd"><path d="M15 5c0-1.66-1.35-3-3-3 -1.66 0-3 1.34-3 3v1.5h2V5c0-.56.44-1 1-1 .55 0 1 .44 1 1v5.5h2V5Z"/><path d="M16 10.5v2.79c0 .18-.08.36-.21.5l1.41 1.41c.5-.51.79-1.2.79-1.92v-2.8h-2Zm-8 2v-2H6v2c0 3.31 2.68 6 6 6h.5c1.25 0 2.44-.6 3.2-1.6l.6-.8 -1.6-1.2 -.6.8c-.38.5-.98.8-1.6.8H12c-2.21 0-4-1.8-4-4Z"/><path d="M13 22v-4.5h-2V22h2Z"/><path d="M11 12.75V10H9v2.75c0 1.51 1.23 2.75 2.75 2.75h.75c1.1 0 2-.9 2-2h-2.75c-.42 0-.75-.34-.75-.75Z"/><path fill="#9545ED" d="M20.707 19.29l-16-16L3.28 4.7l16 16 1.41-1.42Z"/></g></svg>