<svg viewBox="0 0 24 24" xmlns="http://www.w3.org/2000/svg"><g fill-rule="evenodd"><path d="M1.25 4c0-1.52 1.23-2.75 2.75-2.75h18c.41 0 .75.33.75.75v17c0 .41-.34.75-.75.75H8c-.42 0-.75-.34-.75-.75 0-.42.33-.75.75-.75h13.25V2.75H4c-.7 0-1.25.55-1.25 1.25v14.25H4c.41 0 .75.33.75.75 0 .41-.34.75-.75.75H2c-.42 0-.75-.34-.75-.75V4Z"/><path d="M2 18.25c.41 0 .75.33.75.75v1c0 .69.55 1.25 1.25 1.25h18c.41 0 .75.33.75.75 0 .41-.34.75-.75.75H4c-1.52 0-2.75-1.24-2.75-2.75v-1c0-.42.33-.75.75-.75Z"/><path d="M20 18.25c.41 0 .75.33.75.75v3c0 .41-.34.75-.75.75 -.42 0-.75-.34-.75-.75v-3c0-.42.33-.75.75-.75Z"/><path d="M9.42 10.52c.14-.18.35-.28.58-.28h4c.22 0 .43.1.58.27 .14.17.19.4.15.62l-.81 4.01c-.19.92-1 1.58-1.94 1.58s-1.75-.67-1.94-1.59l-.81-4.02c-.05-.23.01-.45.15-.63Zm1.49 1.22l.62 3.12c.04.21.23.37.46.37 .22 0 .41-.16.46-.38l.62-3.13h-2.18Z"/><path d="M16 3.75c.41 0 .75.33.75.75v1.75h1.02l1.311-.88c.34-.23.81-.14 1.04.2 .22.34.13.81-.21 1.04l-1.5 1c-.13.08-.27.12-.42.12h-1.54l-.68 1.35 3.12-.35c.41-.05.78.25.82.66 .04.41-.26.78-.67.82l-4.1.45 -.32.63c-.19.37-.64.52-1.01.33 -.38-.19-.53-.64-.34-1.01l.75-1.52 -1.62-1.62 1.06-1.07 1.26 1.26 .45-.92V4.41c0-.42.33-.75.75-.75Z"/><path d="M8 3.75c-.42 0-.75.33-.75.75v1.75H6.22L4.9 5.37c-.35-.23-.82-.14-1.05.2 -.23.34-.14.81.2 1.04l1.5 1c.12.08.26.12.41.12h1.53l.67 1.35 -3.13-.35c-.42-.05-.79.25-.83.66 -.05.41.25.78.66.82l4.09.45 .31.63c.18.37.63.52 1 .33s.52-.64.33-1.01l-.76-1.52 1.61-1.62c.29-.3.29-.77 0-1.07 -.3-.3-.77-.3-1.07 0L9.1 7.66l-.46-.92V4.41c0-.42-.34-.75-.75-.75Z"/></g></svg>