<svg viewBox="0 0 24 24" xmlns="http://www.w3.org/2000/svg"><g fill-rule="evenodd"><path d="M1.25 4c0-1.52 1.23-2.75 2.75-2.75h18c.41 0 .75.33.75.75v6.5c0 .41-.34.75-.75.75 -.42 0-.75-.34-.75-.75V2.75H4c-.7 0-1.25.55-1.25 1.25v14.25h18.5V12.5c0-.42.33-.75.75-.75 .41 0 .75.33.75.75V19c0 .41-.34.75-.75.75H2c-.42 0-.75-.34-.75-.75V4Z"/><path d="M2 18.25c.41 0 .75.33.75.75v1c0 .69.55 1.25 1.25 1.25h18c.41 0 .75.33.75.75 0 .41-.34.75-.75.75H4c-1.52 0-2.75-1.24-2.75-2.75v-1c0-.42.33-.75.75-.75Z"/><path d="M20 18.25c.41 0 .75.33.75.75v3c0 .41-.34.75-.75.75 -.42 0-.75-.34-.75-.75v-3c0-.42.33-.75.75-.75Z"/><path d="M12 7.75c-1.8 0-3.25 1.45-3.25 3.25 0 1.79 1.45 3.25 3.25 3.25 1.79 0 3.25-1.46 3.25-3.25 0-1.8-1.46-3.25-3.25-3.25ZM7.25 11c0-2.63 2.12-4.75 4.75-4.75 2.62 0 4.75 2.12 4.75 4.75 0 2.62-2.13 4.75-4.75 4.75 -2.63 0-4.75-2.13-4.75-4.75Z"/><path d="M8.61 11.79c.33.23.42.7.18 1.04 -.56.79-.93 1.48-1.1 2 -.09.25-.11.43-.11.54 0 0 0 0 0 0 .04 0 .12-.01.24-.03 .31-.06.74-.23 1.28-.54 1.07-.6 2.41-1.63 3.74-2.97 1.33-1.34 2.36-2.68 2.96-3.75 .3-.55.47-.98.53-1.29 .02-.13.02-.2.02-.25 -.01-.01-.01-.01-.01-.01 -.11-.01-.29.02-.55.1 -.52.17-1.21.53-2.01 1.09 -.34.23-.81.15-1.05-.19 -.24-.34-.16-.81.18-1.05 .85-.6 1.68-1.06 2.391-1.29 .35-.12.71-.2 1.06-.19 .35.01.73.11 1.03.41 .46.46.46 1.11.36 1.61 -.11.52-.36 1.12-.7 1.73 -.69 1.22-1.81 2.67-3.22 4.08 -1.41 1.4-2.86 2.52-4.09 3.21 -.61.33-1.21.58-1.74.69 -.5.09-1.15.09-1.62-.37 -.31-.31-.41-.69-.42-1.04 -.02-.35.06-.72.18-1.07 .23-.72.68-1.54 1.28-2.391 .23-.34.7-.43 1.04-.19Zm7.84-5.19s-.01-.01-.01-.01 0 0 0 0Zm-.08-.07c-.01-.01-.01-.01-.01-.01l0 0Zm-8.85 8.84s0 0 0 0l-.01-.01Zm.06.06s0 0 0 0c-.01 0-.01-.01-.01-.01Z"/></g></svg>