<svg viewBox="0 0 24 24" xmlns="http://www.w3.org/2000/svg"><g fill-rule="evenodd"><path d="M1.25 4c0-1.52 1.23-2.75 2.75-2.75h18c.41 0 .75.33.75.75v17c0 .41-.34.75-.75.75H8c-.42 0-.75-.34-.75-.75 0-.42.33-.75.75-.75h13.25V2.75H4c-.7 0-1.25.55-1.25 1.25v14.25H4c.41 0 .75.33.75.75 0 .41-.34.75-.75.75H2c-.42 0-.75-.34-.75-.75V4Z"/><path d="M2 18.25c.41 0 .75.33.75.75v1c0 .69.55 1.25 1.25 1.25h18c.41 0 .75.33.75.75 0 .41-.34.75-.75.75H4c-1.52 0-2.75-1.24-2.75-2.75v-1c0-.42.33-.75.75-.75Z"/><path d="M20 18.25c.41 0 .75.33.75.75v3c0 .41-.34.75-.75.75 -.42 0-.75-.34-.75-.75v-3c0-.42.33-.75.75-.75Z"/><path d="M19.58 5.03c.25.32.19.79-.13 1.05l-14 11c-.33.25-.8.19-1.06-.13 -.26-.33-.2-.8.12-1.06l14-11c.32-.26.79-.2 1.05.12Z"/><path d="M14.53 3.91c.18-.15.42-.2.64-.14l4 1c.33.08.56.38.56.72v4c0 .24-.12.46-.32.61l-6.35 4.53c-.56.39-1.22.6-1.89.6H8.02c-.75 0-1.33-.65-1.25-1.388l.32-2.91c.09-.87.53-1.66 1.22-2.2l6.17-4.86Zm.63 1.4L9.27 9.93c-.37.28-.61.71-.66 1.18l-.3 2.62h2.86c.36 0 .72-.12 1.01-.33l6.03-4.31V6.06l-3.08-.77Z"/></g></svg>