<svg viewBox="0 0 24 24" xmlns="http://www.w3.org/2000/svg"><g fill-rule="evenodd"><path d="M1.25 4c0-1.52 1.23-2.75 2.75-2.75h18c.41 0 .75.33.75.75v5c0 .41-.34.75-.75.75 -.42 0-.75-.34-.75-.75V2.75H4c-.7 0-1.25.55-1.25 1.25v14.25h18.5V11c0-.42.33-.75.75-.75 .41 0 .75.33.75.75v8c0 .41-.34.75-.75.75H2c-.42 0-.75-.34-.75-.75V4Z"/><path d="M2 18.25c.41 0 .75.33.75.75v1c0 .69.55 1.25 1.25 1.25h18c.41 0 .75.33.75.75 0 .41-.34.75-.75.75H4c-1.52 0-2.75-1.24-2.75-2.75v-1c0-.42.33-.75.75-.75Z"/><path d="M20 18.25c.41 0 .75.33.75.75v3c0 .41-.34.75-.75.75 -.42 0-.75-.34-.75-.75v-3c0-.42.33-.75.75-.75Z"/><path d="M5.25 5c0-.42.33-.75.75-.75h12c.41 0 .75.33.75.75 0 .41-.34.75-.75.75H6c-.42 0-.75-.34-.75-.75Z"/><path d="M12 6.25c.26 0 .51.14.64.37l.91 1.59 1.77-.48c.25-.07.53 0 .72.19 .18.18.26.46.19.72l-.48 1.77 1.59.91c.23.13.37.38.37.64s-.15.51-.38.64l-1.6.91 .47 1.77c.06.25-.01.53-.2.72 -.19.18-.47.26-.73.19l-1.78-.48 -.92 1.59c-.14.23-.39.37-.65.37 -.27 0-.52-.15-.65-.38l-.92-1.6 -1.78.47c-.26.06-.54-.01-.73-.2 -.19-.19-.27-.47-.2-.73l.47-1.78 -1.6-.92c-.24-.14-.38-.39-.38-.65 0-.27.14-.52.37-.65l1.59-.92 -.48-1.78c-.07-.26 0-.54.19-.73 .18-.19.46-.27.72-.2l1.77.47 .91-1.6c.13-.24.38-.38.64-.38Zm0 2.25l-.56.96c-.17.29-.516.43-.85.34l-1.08-.29 .28 1.07c.08.32-.06.67-.35.84l-.97.55 .96.55c.29.16.43.516.34.84l-.29 1.07 1.07-.29c.32-.09.67.05.84.34l.55.96 .55-.97c.16-.3.516-.44.84-.35l1.07.28 -.29-1.08c-.09-.33.05-.68.34-.85l.96-.56 -.97-.56c-.3-.17-.44-.516-.35-.85l.28-1.08 -1.08.28c-.33.08-.68-.06-.85-.35l-.56-.97Z"/></g></svg>