<svg viewBox="0 0 24 24" xmlns="http://www.w3.org/2000/svg"><g fill-rule="evenodd"><path d="M1.25 4c0-1.52 1.23-2.75 2.75-2.75h18c.41 0 .75.33.75.75v17c0 .41-.34.75-.75.75H2c-.42 0-.75-.34-.75-.75V4ZM4 2.75c-.7 0-1.25.55-1.25 1.25v14.25h18.5V2.75H4Z"/><path d="M2 18.25c.41 0 .75.33.75.75v1c0 .69.55 1.25 1.25 1.25h2c.41 0 .75.33.75.75 0 .41-.34.75-.75.75H4c-1.52 0-2.75-1.24-2.75-2.75v-1c0-.42.33-.75.75-.75ZM9.25 22c0-.42.33-.75.75-.75h12c.41 0 .75.33.75.75 0 .41-.34.75-.75.75H10c-.42 0-.75-.34-.75-.75Z"/><path d="M20 18.25c.41 0 .75.33.75.75v3c0 .41-.34.75-.75.75 -.42 0-.75-.34-.75-.75v-3c0-.42.33-.75.75-.75Z"/><path d="M8.5 5.75c-1.25 0-2.25 1-2.25 2.25 0 1.11.81 2.04 1.87 2.21 .36.06.62.37.62.73v4.29h6.5v-4.25c0-.42.33-.75.75-.75 1.24 0 2.25-1.01 2.25-2.25 0-1.25-1.01-2.25-2.25-2.25 -.58 0-1.11.21-1.5.57 -.29.25-.72.25-1.01 0 -.4-.36-.93-.58-1.5-.58 -.5 0-.95.15-1.32.42 -.27.18-.62.18-.88 0 -.37-.27-.83-.43-1.32-.43ZM4.75 8c0-2.08 1.67-3.75 3.75-3.75 .63 0 1.22.15 1.75.43 .52-.28 1.11-.44 1.75-.44 .73 0 1.42.21 2 .57 .57-.37 1.26-.58 2-.58 2.07 0 3.75 1.67 3.75 3.75 0 1.81-1.29 3.32-3 3.67v4.32c0 .41-.34.75-.75.75H8c-.42 0-.75-.34-.75-.75V11.5c-1.46-.52-2.5-1.91-2.5-3.54Z"/></g></svg>