<svg viewBox="0 0 24 24" xmlns="http://www.w3.org/2000/svg"><g fill-rule="evenodd"><path d="M4 2.75c-.7 0-1.25.55-1.25 1.25v14.25h18.5V2.75H14c-.42 0-.75-.34-.75-.75 0-.42.33-.75.75-.75h8c.41 0 .75.33.75.75v17c0 .41-.34.75-.75.75H2c-.42 0-.75-.34-.75-.75V4c0-1.52 1.23-2.75 2.75-2.75h6c.41 0 .75.33.75.75 0 .41-.34.75-.75.75H4Z"/><path d="M2 18.25c.41 0 .75.33.75.75v1c0 .69.55 1.25 1.25 1.25h18c.41 0 .75.33.75.75 0 .41-.34.75-.75.75H4c-1.52 0-2.75-1.24-2.75-2.75v-1c0-.42.33-.75.75-.75Z"/><path d="M20 18.25c.41 0 .75.33.75.75v3c0 .41-.34.75-.75.75 -.42 0-.75-.34-.75-.75v-3c0-.42.33-.75.75-.75Z"/><path d="M9.25 13.5c0-.42.33-.75.75-.75h4c.41 0 .75.33.75.75v1c0 1.51-1.24 2.75-2.75 2.75 -1.52 0-2.75-1.24-2.75-2.75v-1Zm1.5.75v.25c0 .69.55 1.25 1.25 1.25 .69 0 1.25-.56 1.25-1.25v-.25h-2.5Z"/><path d="M14.71 11.22c-.1.31-.39.52-.72.52h-4c-.42 0-.75-.34-.75-.75V7.12c0-1.32.92-2.44 2.21-2.7l1-.2c1.7-.35 3.28.96 3.28 2.69v.81c0 .07-.02.14-.04.22l-1 3.25Zm-1.28-.98l.8-2.62v-.7c0-.79-.73-1.39-1.5-1.23l-1 .2c-.59.11-1.01.62-1.01 1.22v3.11h2.69Z"/></g></svg>