<svg viewBox="0 0 24 24" xmlns="http://www.w3.org/2000/svg"><g fill-rule="evenodd"><path d="M1.25 4c0-1.52 1.23-2.75 2.75-2.75h18c.41 0 .75.33.75.75v2c0 .41-.34.75-.75.75 -.42 0-.75-.34-.75-.75V2.75H4c-.7 0-1.25.55-1.25 1.25v14.25h18.5V8c0-.42.33-.75.75-.75 .41 0 .75.33.75.75v11c0 .41-.34.75-.75.75H2c-.42 0-.75-.34-.75-.75V4Z"/><path d="M2 18.25c.41 0 .75.33.75.75v1c0 .69.55 1.25 1.25 1.25h18c.41 0 .75.33.75.75 0 .41-.34.75-.75.75H4c-1.52 0-2.75-1.24-2.75-2.75v-1c0-.42.33-.75.75-.75Z"/><path d="M20 18.25c.41 0 .75.33.75.75v3c0 .41-.34.75-.75.75 -.42 0-.75-.34-.75-.75v-3c0-.42.33-.75.75-.75Z"/><path d="M13.213 6.3c.28-.12.6-.06.81.16l3 3c.29.29.29.76 0 1.06 -.3.29-.77.29-1.07 0L14.23 8.8v4.68c0 .41-.34.75-.75.75 -.42 0-.75-.34-.75-.75v-6.5c0-.31.18-.58.46-.7Z"/><path d="M10.78 14.19c-.29.11-.61.05-.82-.17l-3-3c-.3-.3-.3-.77 0-1.07 .29-.3.76-.3 1.06 0l1.71 1.71V6.97c0-.42.33-.75.75-.75 .41 0 .75.33.75.75v6.5c0 .3-.19.57-.47.69Z"/></g></svg>