<svg viewBox="0 0 24 24" xmlns="http://www.w3.org/2000/svg"><g fill-rule="evenodd"><path d="M7.5 9.25c-1.52 0-2.75 1.23-2.75 2.75 0 1.51 1.23 2.75 2.75 2.75 1.51 0 2.75-1.24 2.75-2.75 0-1.52-1.24-2.75-2.75-2.75ZM3.25 12c0-2.35 1.9-4.25 4.25-4.25 2.34 0 4.25 1.9 4.25 4.25 0 2.34-1.91 4.25-4.25 4.25 -2.35 0-4.25-1.91-4.25-4.25Z"/><path d="M16.5 9.25c-1.52 0-2.75 1.23-2.75 2.75 0 1.51 1.23 2.75 2.75 2.75 .41 0 .75.33.75.75 0 .41-.34.75-.75.75 -2.35 0-4.25-1.91-4.25-4.25 0-2.35 1.9-4.25 4.25-4.25 2.34 0 4.25 1.9 4.25 4.25 0 .8-.23 1.55-.61 2.19 -.22.35-.68.46-1.03.25 -.36-.22-.47-.68-.26-1.03 .24-.42.39-.9.39-1.42 0-1.52-1.24-2.75-2.75-2.75Z"/><path d="M1.25 11.5c0-.42.33-.75.75-.75h2c.41 0 .75.33.75.75 0 .41-.34.75-.75.75H2c-.42 0-.75-.34-.75-.75Z"/><path d="M19.25 11.5c0-.42.33-.75.75-.75h2c.41 0 .75.33.75.75 0 .41-.34.75-.75.75h-2c-.42 0-.75-.34-.75-.75Z"/><path d="M11.66 7.82c.21-.11.45-.11.67 0l2 1c.37.18.52.63.33 1s-.64.52-1.01.33l-1.67-.84 -1.67.83c-.38.18-.83.03-1.01-.34 -.19-.38-.04-.83.33-1.01l1.99-1Z"/></g></svg>