<svg viewBox="0 0 24 24" xmlns="http://www.w3.org/2000/svg"><g fill-rule="evenodd"><path d="M1.25 4c0-1.52 1.23-2.75 2.75-2.75h18c.41 0 .75.33.75.75v17c0 .41-.34.75-.75.75H2c-.42 0-.75-.34-.75-.75V4ZM4 2.75c-.7 0-1.25.55-1.25 1.25v14.25h18.5V2.75H4Z"/><path d="M2 18.25c.41 0 .75.33.75.75v1c0 .69.55 1.25 1.25 1.25h18c.41 0 .75.33.75.75 0 .41-.34.75-.75.75H4c-1.52 0-2.75-1.24-2.75-2.75v-1c0-.42.33-.75.75-.75Z"/><path d="M20 18.25c.41 0 .75.33.75.75v3c0 .41-.34.75-.75.75 -.42 0-.75-.34-.75-.75v-3c0-.42.33-.75.75-.75Z"/><path d="M4.82 12.68c.12-.27.38-.44.67-.44h13c.41 0 .75.33.75.75v1c0 1.51-1.24 2.75-2.75 2.75h-8.5c-.23 0-.44-.1-.58-.27l-2.5-3c-.19-.23-.23-.54-.11-.8Zm2.28 1.06l1.25 1.5h8.14c.69 0 1.25-.56 1.25-1.25v-.25H7.09Z"/><path d="M8.3 4.72c.11-.29.38-.48.69-.48h1.74c.41 0 .75.33.75.75 0 .41-.34.75-.75.75H9.48l-.45 1.1c-.17.41-.17.88 0 1.29l.44 1.1h5.38l-.22-.55c-.31-.78-.31-1.64 0-2.42l.21-.55h-.4c-.42 0-.75-.34-.75-.75 0-.42.33-.75.75-.75h1.5c.24 0 .48.12.62.32 .13.2.16.46.07.69L16 6.79c-.17.41-.17.88 0 1.29l.62 1.57c.09.23.06.49-.08.69 -.14.2-.38.32-.63.32h-7c-.31 0-.59-.19-.7-.48L7.58 8.6c-.31-.78-.31-1.64 0-2.42L8.2 4.6Z"/><path d="M12 9.25c.41 0 .75.33.75.75v3c0 .41-.34.75-.75.75 -.42 0-.75-.34-.75-.75v-3c0-.42.33-.75.75-.75Z"/></g></svg>