<svg viewBox="0 0 24 24" xmlns="http://www.w3.org/2000/svg"><g fill-rule="evenodd"><path d="M1.25 4c0-1.52 1.23-2.75 2.75-2.75h18c.41 0 .75.33.75.75v17c0 .41-.34.75-.75.75H2c-.42 0-.75-.34-.75-.75V4ZM4 2.75c-.7 0-1.25.55-1.25 1.25v14.25h18.5V2.75H4Z"/><path d="M2 18.25c.41 0 .75.33.75.75v1c0 .69.55 1.25 1.25 1.25h.5c.41 0 .75.33.75.75 0 .41-.34.75-.75.75H4c-1.52 0-2.75-1.24-2.75-2.75v-1c0-.42.33-.75.75-.75ZM7.75 22c0-.42.33-.75.75-.75H22c.41 0 .75.33.75.75 0 .41-.34.75-.75.75H8.5c-.42 0-.75-.34-.75-.75Z"/><path d="M20 18.25c.41 0 .75.33.75.75v3c0 .41-.34.75-.75.75 -.42 0-.75-.34-.75-.75v-3c0-.42.33-.75.75-.75Z"/><path d="M8.23 5.29c.16-.07.35-.07.52 0l3.99 1.5c.29.1.48.38.48.7v4.75c0 1.02-.49 1.98-1.3 2.6l-3 2.25c-.27.2-.64.2-.9 0l-3-2.25c-.82-.62-1.3-1.577-1.3-2.6V7.49c0-.32.19-.6.48-.71l4-1.5ZM5.24 8.01v4.23c0 .55.25 1.06.7 1.4l2.55 1.91 2.55-1.92c.44-.34.7-.85.7-1.4V7.99L8.49 6.77 5.24 7.98Z"/><path d="M17.5 3.25c.41 0 .75.33.75.75v3c0 .41-.34.75-.75.75 -.42 0-.75-.34-.75-.75V4c0-.42.33-.75.75-.75Z"/><path d="M14.25 7c0-.42.33-.75.75-.75h5c.41 0 .75.33.75.75 0 .41-.34.75-.75.75h-5c-.42 0-.75-.34-.75-.75Z"/><path d="M15.75 6.95c.02-.4.35-.71.74-.71h2c.39 0 .72.3.74.7l.5 8.5c.01.21-.07.42-.22.57l-1.5 1.5c-.3.29-.77.29-1.07 0l-1.5-1.5c-.16-.16-.24-.37-.22-.58l.5-8.51Zm1.45.79l-.44 7.45 .73.73 .73-.74 -.44-7.46h-.59Z"/></g></svg>