<svg viewBox="0 0 24 24" xmlns="http://www.w3.org/2000/svg"><g fill-rule="evenodd"><path d="M5.25 2c0-.42.33-.75.75-.75h12c.41 0 .75.33.75.75v8c0 .41-.34.75-.75.75H6c-.42 0-.75-.34-.75-.75V8c0-.42.33-.75.75-.75 .41 0 .75.33.75.75v1.25h10.5v-6.5H6.75V4c0 .41-.34.75-.75.75 -.42 0-.75-.34-.75-.75V2Z"/><path d="M7.25 22c0-.42.33-.75.75-.75h8c.41 0 .75.33.75.75 0 .41-.34.75-.75.75H8c-.42 0-.75-.34-.75-.75Z"/><path d="M12 12.25c.41 0 .75.33.75.75v9c0 .41-.34.75-.75.75 -.42 0-.75-.34-.75-.75v-9c0-.42.33-.75.75-.75Z"/><path d="M12 7.75c-1.25 0-2.25 1-2.25 2.25 0 1.24 1 2.25 2.25 2.25 1.24 0 2.25-1.01 2.25-2.25 0-1.25-1.01-2.25-2.25-2.25ZM8.25 10c0-2.08 1.67-3.75 3.75-3.75 2.07 0 3.75 1.67 3.75 3.75 0 2.07-1.68 3.75-3.75 3.75 -2.08 0-3.75-1.68-3.75-3.75Z"/></g></svg>