<svg viewBox="0 0 24 24" xmlns="http://www.w3.org/2000/svg"><g fill-rule="evenodd"><path d="M1.25 4c0-1.52 1.23-2.75 2.75-2.75h18c.41 0 .75.33.75.75v11c0 .41-.34.75-.75.75 -.42 0-.75-.34-.75-.75V2.75H4c-.7 0-1.25.55-1.25 1.25v14.25h18.5V17c0-.42.33-.75.75-.75 .41 0 .75.33.75.75v2c0 .41-.34.75-.75.75H2c-.42 0-.75-.34-.75-.75V4Z"/><path d="M2 18.25c.41 0 .75.33.75.75v1c0 .69.55 1.25 1.25 1.25h18c.41 0 .75.33.75.75 0 .41-.34.75-.75.75H4c-1.52 0-2.75-1.24-2.75-2.75v-1c0-.42.33-.75.75-.75Z"/><path d="M20 18.25c.41 0 .75.33.75.75v3c0 .41-.34.75-.75.75 -.42 0-.75-.34-.75-.75v-3c0-.42.33-.75.75-.75Z"/><path d="M3.75 10c0-.42.33-.75.75-.75h5c.41 0 .75.33.75.75v1c0 1.51-1.24 2.75-2.75 2.75h-1c-1.52 0-2.75-1.24-2.75-2.75v-1Zm1.5.75V11c0 .69.55 1.25 1.25 1.25h1c.69 0 1.25-.56 1.25-1.25v-.25h-3.5Z"/><path d="M12 5.25c.41 0 .75.33.75.75v10c0 .41-.34.75-.75.75 -.42 0-.75-.34-.75-.75V6c0-.42.33-.75.75-.75Z"/><path d="M7.25 16c0-.42.33-.75.75-.75h8c.41 0 .75.33.75.75 0 .41-.34.75-.75.75H8c-.42 0-.75-.34-.75-.75Z"/><path d="M6.99 5.25c.25 0 .49.13.63.35l2.5 4c.21.35.11.81-.24 1.03 -.36.21-.82.11-1.04-.24L6.97 7.4 5.1 10.38c-.22.35-.69.45-1.04.23 -.36-.22-.46-.69-.24-1.04l2.5-4c.13-.22.37-.36.63-.36Z"/><path d="M17 5.25c.25 0 .49.13.63.35l2.5 4c.21.35.11.81-.24 1.03 -.36.21-.82.11-1.04-.24L16.98 7.4l-1.87 2.98c-.22.35-.69.45-1.04.23 -.36-.22-.46-.69-.24-1.04l2.5-4c.13-.22.37-.36.63-.36Z"/><path d="M4.25 6c0-.42.33-.75.75-.75h14c.41 0 .75.33.75.75 0 .41-.34.75-.75.75H5c-.42 0-.75-.34-.75-.75Z"/><path d="M13.75 10c0-.42.33-.75.75-.75h5c.41 0 .75.33.75.75v1c0 1.51-1.24 2.75-2.75 2.75h-1c-1.52 0-2.75-1.24-2.75-2.75v-1Zm1.5.75V11c0 .69.55 1.25 1.25 1.25h1c.69 0 1.25-.56 1.25-1.25v-.25h-3.5Z"/></g></svg>