<svg viewBox="0 0 24 24" xmlns="http://www.w3.org/2000/svg"><g fill-rule="evenodd"><path d="M4 2.75c-.7 0-1.25.55-1.25 1.25v14.25h18.5V2.75H20c-.42 0-.75-.34-.75-.75 0-.42.33-.75.75-.75h2c.41 0 .75.33.75.75v17c0 .41-.34.75-.75.75H2c-.42 0-.75-.34-.75-.75V4c0-1.52 1.23-2.75 2.75-2.75h12c.41 0 .75.33.75.75 0 .41-.34.75-.75.75H4Z"/><path d="M2 18.25c.41 0 .75.33.75.75v1c0 .69.55 1.25 1.25 1.25h18c.41 0 .75.33.75.75 0 .41-.34.75-.75.75H4c-1.52 0-2.75-1.24-2.75-2.75v-1c0-.42.33-.75.75-.75Z"/><path d="M20 18.25c.41 0 .75.33.75.75v3c0 .41-.34.75-.75.75 -.42 0-.75-.34-.75-.75v-3c0-.42.33-.75.75-.75Z"/><path d="M4.25 5c0-.42.33-.75.75-.75h1c1.51 0 2.75 1.23 2.75 2.75v3c0 .41-.34.75-.75.75H6.25c-1.11 0-2-.9-2-2 0-1.11.89-2 2-2h.97c-.12-.58-.63-1-1.23-1h-1c-.42 0-.75-.34-.75-.75Zm3 3.25h-1c-.28 0-.5.22-.5.5 0 .27.22.5.5.5h1v-1Z"/><path d="M11 7.25c-.42 0-.75.33-.75.75v5c0 .41.33.75.75.75h1.75c1.1 0 2-.9 2-2 0-1.11-.9-2-2-2h-1V8c0-.42-.34-.75-.75-.75Zm.75 4h1c.27 0 .5.22.5.5 0 .27-.23.5-.5.5h-1v-1Z"/><path d="M20.75 12c0-.42-.34-.75-.75-.75h-1.5c-1.25 0-2.25 1-2.25 2.25v1c0 1.24 1 2.25 2.25 2.25H20c.41 0 .75-.34.75-.75 0-.42-.34-.75-.75-.75h-1.5c-.42 0-.75-.34-.75-.75v-1c0-.42.33-.75.75-.75H20c.41 0 .75-.34.75-.75Z"/></g></svg>