<svg viewBox="0 0 24 24" xmlns="http://www.w3.org/2000/svg"><g fill-rule="evenodd"><path d="M1.25 4c0-1.52 1.23-2.75 2.75-2.75h18c.41 0 .75.33.75.75v17c0 .41-.34.75-.75.75H2c-.42 0-.75-.34-.75-.75v-8c0-.42.33-.75.75-.75 .41 0 .75.33.75.75v7.25h18.5V2.75H4c-.7 0-1.25.55-1.25 1.25v3c0 .41-.34.75-.75.75 -.42 0-.75-.34-.75-.75V4Z"/><path d="M2 18.25c.41 0 .75.33.75.75v1c0 .69.55 1.25 1.25 1.25h18c.41 0 .75.33.75.75 0 .41-.34.75-.75.75H4c-1.52 0-2.75-1.24-2.75-2.75v-1c0-.42.33-.75.75-.75Z"/><path d="M20 18.25c.41 0 .75.33.75.75v3c0 .41-.34.75-.75.75 -.42 0-.75-.34-.75-.75v-3c0-.42.33-.75.75-.75Z"/><path d="M4.25 5c0-.42.33-.75.75-.75h2c.41 0 .75.33.75.75v5c0 .41-.34.75-.75.75 -.42 0-.75-.34-.75-.75V5.75H5c-.42 0-.75-.34-.75-.75Z"/><path d="M9.75 8c0-.42.33-.75.75-.75h1.75c1.1 0 2 .89 2 2 0 1.1-.9 2-2 2H12c-.42 0-.75.33-.75.75v.25h2.25c.41 0 .75.33.75.75 0 .41-.34.75-.75.75h-3c-.42 0-.75-.34-.75-.75v-1c0-1.25 1-2.25 2.25-2.25h.25c.27 0 .5-.23.5-.5 0-.28-.23-.5-.5-.5H10.5c-.42 0-.75-.34-.75-.75Z"/><path d="M15.25 11c0-.42.33-.75.75-.75h2c.96 0 1.75.78 1.75 1.75v3c0 .96-.79 1.75-1.75 1.75h-2c-.42 0-.75-.34-.75-.75 0-.42.33-.75.75-.75h2c.13 0 .25-.12.25-.25v-.75H17c-.42 0-.75-.34-.75-.75 0-.42.33-.75.75-.75h1.25V12c0-.14-.12-.25-.25-.25h-2c-.42 0-.75-.34-.75-.75Z"/></g></svg>