<svg viewBox="0 0 24 24" xmlns="http://www.w3.org/2000/svg"><g fill-rule="evenodd"><path d="M1.25 4c0-1.52 1.23-2.75 2.75-2.75h18c.41 0 .75.33.75.75v17c0 .41-.34.75-.75.75H2c-.42 0-.75-.34-.75-.75V9c0-.42.33-.75.75-.75 .41 0 .75.33.75.75v9.25h18.5V2.75H4c-.7 0-1.25.55-1.25 1.25v1c0 .41-.34.75-.75.75 -.42 0-.75-.34-.75-.75V4Z"/><path d="M2 18.25c.41 0 .75.33.75.75v1c0 .69.55 1.25 1.25 1.25h18c.41 0 .75.33.75.75 0 .41-.34.75-.75.75H4c-1.52 0-2.75-1.24-2.75-2.75v-1c0-.42.33-.75.75-.75Z"/><path d="M20 18.25c.41 0 .75.33.75.75v3c0 .41-.34.75-.75.75 -.42 0-.75-.34-.75-.75v-3c0-.42.33-.75.75-.75Z"/><path d="M13.25 2c0-.42.33-.75.75-.75h5c.41 0 .75.33.75.75v7c0 .28-.17.55-.43.67s-.57.08-.8-.1l-2.04-1.63 -2.04 1.62c-.23.18-.54.21-.8.09 -.26-.13-.43-.39-.43-.68v-7Zm1.5.75v4.68l1.28-1.03c.27-.22.66-.22.93 0l1.28 1.02V2.73h-3.5Z"/></g></svg>