<svg viewBox="0 0 24 24" xmlns="http://www.w3.org/2000/svg"><g fill-rule="evenodd"><path d="M12 2.75c-5.11 0-9.25 4.14-9.25 9.25 0 .41-.34.75-.75.75 -.42 0-.75-.34-.75-.75C1.25 6.06 6.06 1.25 12 1.25c5.93 0 10.75 4.81 10.75 10.75 0 5.93-4.82 10.75-10.75 10.75 -4.41 0-8.2-2.66-9.86-6.45 -.17-.38 0-.83.38-.99 .37-.17.82 0 .98.38 1.42 3.26 4.68 5.55 8.48 5.55 5.1 0 9.25-4.15 9.25-9.25 0-5.11-4.15-9.25-9.25-9.25Z"/><path d="M16.36 6.34c-.24-.14-.53-.13-.76 0l-4.83 2.89h-2.8c-.42 0-.75.33-.75.75v4c0 .41.33.75.75.75h2.79l4.82 2.89c.23.13.52.14.75 0 .23-.14.38-.39.38-.66v-10c0-.28-.15-.52-.39-.66Zm-1.12 1.97v7.35l-3.87-2.32c-.12-.07-.25-.11-.39-.11H8.73v-2.5h2.25c.13 0 .26-.04.38-.11l3.86-2.32Z"/><path d="M4.46 4.46c.29-.3.76-.3 1.06 0l14 14c.29.29.29.76 0 1.06 -.3.29-.77.29-1.07 0l-14-14c-.3-.3-.3-.77-.001-1.07Z"/></g></svg>