<svg viewBox="0 0 24 24" xmlns="http://www.w3.org/2000/svg"><g fill-rule="evenodd"><path d="M12 2.75c-5.11 0-9.25 4.14-9.25 9.25 0 3.79 2.28 7.05 5.55 8.48 .37.16.55.6.38.98 -.17.37-.61.55-.99.38 -3.8-1.66-6.45-5.45-6.45-9.86 0-5.94 4.81-10.75 10.75-10.75 5.93 0 10.75 4.81 10.75 10.75 0 5.93-4.82 10.75-10.75 10.75 -.42 0-.75-.34-.75-.75 0-.42.33-.75.75-.75 5.1 0 9.25-4.15 9.25-9.25 0-5.11-4.15-9.25-9.25-9.25Z"/><path d="M4.46 4.46c.29-.3.76-.3 1.06 0l14 14c.29.29.29.76 0 1.06 -.3.29-.77.29-1.07 0l-14-14c-.3-.3-.3-.77-.001-1.07Z"/><path d="M8 7.75c-.7 0-1.25.55-1.25 1.25v4c0 .69.55 1.25 1.25 1.25 .19 0 .38.07.53.21 .14.14.21.33.21.53v.67l2.19-1.32c.11-.07.24-.11.38-.11h4.66c.69 0 1.25-.56 1.25-1.25v-4c0-.7-.56-1.25-1.25-1.25h-8ZM5.25 9c0-1.52 1.23-2.75 2.75-2.75h8c1.51 0 2.75 1.23 2.75 2.75v4c0 1.51-1.24 2.75-2.75 2.75h-4.46l-3.16 1.89c-.24.13-.53.14-.76 0 -.24-.14-.39-.39-.39-.66v-1.36c-1.16-.33-2-1.39-2-2.65v-4Z"/></g></svg>