<svg viewBox="0 0 24 24" xmlns="http://www.w3.org/2000/svg"><g fill-rule="evenodd"><path d="M1.25 16c0-1.52 1.23-2.75 2.75-2.75h6c1.51 0 2.75 1.23 2.75 2.75v2c0 .21-.09.41-.25.55 -.16.14-.37.21-.58.19l-10-1c-.39-.04-.68-.37-.68-.75v-1ZM4 14.75c-.7 0-1.25.55-1.25 1.25v.32l8.5.85v-1.18c0-.7-.56-1.25-1.25-1.25H4Z"/><path d="M11.25 16c0-1.52 1.23-2.75 2.75-2.75h6c1.51 0 2.75 1.23 2.75 2.75v1c0 .38-.3.7-.68.74l-3 .3c-.42.04-.78-.26-.83-.68 -.05-.42.25-.78.67-.83l2.32-.24v-.33c0-.7-.56-1.25-1.25-1.25h-6c-.7 0-1.25.55-1.25 1.25v1.17l2.17-.22c.41-.05.77.25.82.67 .04.41-.26.77-.68.82l-3 .3c-.22.02-.43-.05-.58-.2 -.16-.15-.25-.35-.25-.56v-2Z"/><path d="M7 6.25c-.7 0-1.25.55-1.25 1.25 0 .69.55 1.25 1.25 1.25 .69 0 1.25-.56 1.25-1.25 0-.7-.56-1.25-1.25-1.25ZM4.25 7.5c0-1.52 1.23-2.75 2.75-2.75 1.51 0 2.75 1.23 2.75 2.75 0 1.51-1.24 2.75-2.75 2.75 -1.52 0-2.75-1.24-2.75-2.75Z"/><path d="M7 10.25c-.7 0-1.25.55-1.25 1.25v1.75h2.5V11.5c0-.7-.56-1.25-1.25-1.25ZM4.25 11.5c0-1.52 1.23-2.75 2.75-2.75 1.51 0 2.75 1.23 2.75 2.75V14c0 .41-.34.75-.75.75H5c-.42 0-.75-.34-.75-.75v-2.5Z"/><path d="M17 8.25c-.7 0-1.25.55-1.25 1.25v3.75h2.5V9.5c0-.7-.56-1.25-1.25-1.25ZM14.25 9.5c0-1.52 1.23-2.75 2.75-2.75 1.51 0 2.75 1.23 2.75 2.75V14c0 .41-.34.75-.75.75h-4c-.42 0-.75-.34-.75-.75V9.5Z"/></g></svg>