<svg viewBox="0 0 24 24" xmlns="http://www.w3.org/2000/svg"><g fill-rule="evenodd"><path d="M1.25 4c0-1.52 1.23-2.75 2.75-2.75h18c.41 0 .75.33.75.75v17c0 .41-.34.75-.75.75H8c-.42 0-.75-.34-.75-.75 0-.42.33-.75.75-.75h13.25V2.75H4c-.7 0-1.25.55-1.25 1.25v14.25H4c.41 0 .75.33.75.75 0 .41-.34.75-.75.75H2c-.42 0-.75-.34-.75-.75V4Z"/><path d="M2 18.25c.41 0 .75.33.75.75v1c0 .69.55 1.25 1.25 1.25h18c.41 0 .75.33.75.75 0 .41-.34.75-.75.75H4c-1.52 0-2.75-1.24-2.75-2.75v-1c0-.42.33-.75.75-.75Z"/><path d="M20 18.25c.41 0 .75.33.75.75v3c0 .41-.34.75-.75.75 -.42 0-.75-.34-.75-.75v-3c0-.42.33-.75.75-.75Z"/><path d="M7.25 4.5c0-.42.33-.75.75-.75h3.5c.11 0 .23.02.33.07l1.84.92h2.32c.41 0 .75.33.75.75v3c0 .41-.34.75-.75.75h-8c-.42 0-.75-.34-.75-.75v-4Zm1.5.75v2.5h6.5v-1.5H13.5c-.12 0-.24-.03-.34-.08l-1.85-.93H8.73Z"/><path d="M12 7.75c.41 0 .75.33.75.75v8c0 .41-.34.75-.75.75 -.42 0-.75-.34-.75-.75v-8c0-.42.33-.75.75-.75Z"/></g></svg>