<svg viewBox="0 0 24 24" xmlns="http://www.w3.org/2000/svg"><g fill-rule="evenodd"><path d="M1.25 4c0-1.52 1.23-2.75 2.75-2.75h18c.41 0 .75.33.75.75v17c0 .41-.34.75-.75.75H2c-.42 0-.75-.34-.75-.75v-9c0-.42.33-.75.75-.75 .41 0 .75.33.75.75v8.25h18.5V2.75H4c-.7 0-1.25.55-1.25 1.25v2c0 .41-.34.75-.75.75 -.42 0-.75-.34-.75-.75V4Z"/><path d="M2 18.25c.41 0 .75.33.75.75v1c0 .69.55 1.25 1.25 1.25h18c.41 0 .75.33.75.75 0 .41-.34.75-.75.75H4c-1.52 0-2.75-1.24-2.75-2.75v-1c0-.42.33-.75.75-.75Z"/><path d="M20 18.25c.41 0 .75.33.75.75v3c0 .41-.34.75-.75.75 -.42 0-.75-.34-.75-.75v-3c0-.42.33-.75.75-.75Z"/><path d="M12 6.29c-1.32-.85-3.1-.71-4.26.41 -1.34 1.29-1.34 3.4 0 4.7l3.72 3.62c.29.28.75.28 1.04 0l3.72-3.63c1.33-1.3 1.33-3.41 0-4.71 -1.16-1.13-2.94-1.27-4.26-.42Zm-.53 1.49c-.74-.72-1.95-.72-2.69 0 -.73.7-.73 1.84 0 2.54l3.2 3.11 3.2-3.12c.72-.71.72-1.85 0-2.55 -.74-.72-1.95-.72-2.69 0 -.3.28-.76.28-1.05 0Z"/></g></svg>