<svg viewBox="0 0 24 24" xmlns="http://www.w3.org/2000/svg"><g fill-rule="evenodd"><path d="M11.75 5c0-1.52 1.23-2.75 2.75-2.75h3c1.51 0 2.75 1.23 2.75 2.75v2c0 .41-.34.75-.75.75H17c-.42 0-.75-.34-.75-.75 0-.42.33-.75.75-.75h1.75V5c0-.7-.56-1.25-1.25-1.25h-3c-.7 0-1.25.55-1.25 1.25v1.29c.29.1.5.38.5.7 0 .41-.34.75-.75.75h-.5c-.42 0-.75-.34-.75-.75v-2Z"/><path d="M4.75 18c0-.42.33-.75.75-.75h7c.41 0 .75.33.75.75v3c0 .41-.34.75-.75.75h-7c-.42 0-.75-.34-.75-.75v-3Zm1.5.75v1.5h5.5v-1.5h-5.5Z"/><path d="M6 7.75c-.42 0-.75.33-.75.75 0 .41.33.75.75.75 .41 0 .75-.34.75-.75 0-.42-.34-.75-.75-.75Zm-2.25.75c0-1.25 1-2.25 2.25-2.25 1.24 0 2.25 1 2.25 2.25 0 1.24-1.01 2.25-2.25 2.25 -1.25 0-2.25-1.01-2.25-2.25Z"/><path d="M5.73 9.29c.38-.15.82.05.96.43l3 7.99c.14.38-.06.82-.44.96 -.39.14-.83-.06-.97-.44l-3-8c-.15-.39.05-.83.43-.97Z"/><path d="M13.21 4.77c.12.39-.11.81-.5.93l-6.5 2c-.4.12-.82-.11-.94-.5 -.13-.4.1-.82.49-.94l6.5-2c.39-.13.81.1.93.49Z"/></g></svg>