<svg viewBox="0 0 24 24" xmlns="http://www.w3.org/2000/svg"><g fill-rule="evenodd"><path d="M1.25 4c0-1.52 1.23-2.75 2.75-2.75h18c.41 0 .75.33.75.75v17c0 .41-.34.75-.75.75H2c-.42 0-.75-.34-.75-.75V4ZM4 2.75c-.7 0-1.25.55-1.25 1.25v14.25h18.5V2.75H4Z"/><path d="M2 18.25c.41 0 .75.33.75.75v1c0 .69.55 1.25 1.25 1.25h1c.41 0 .75.33.75.75 0 .41-.34.75-.75.75H4c-1.52 0-2.75-1.24-2.75-2.75v-1c0-.42.33-.75.75-.75ZM8.25 22c0-.42.33-.75.75-.75h13c.41 0 .75.33.75.75 0 .41-.34.75-.75.75H9c-.42 0-.75-.34-.75-.75Z"/><path d="M20 18.25c.41 0 .75.33.75.75v3c0 .41-.34.75-.75.75 -.42 0-.75-.34-.75-.75v-3c0-.42.33-.75.75-.75Z"/><path d="M10.91 6.87c.21.13.33.37.33.62v3.5c0 .41-.34.75-.75.75h-3.5c-.42 0-.75-.34-.75-.75v-2c0-.31.17-.58.45-.69l3.5-1.5c.23-.1.49-.08.7.06ZM7.74 9.49v.75h2V8.62l-2 .85Z"/><path d="M13.08 6.87c-.22.13-.34.37-.34.62v3.5c0 .41.33.75.75.75h3.5c.41 0 .75-.34.75-.75v-2c0-.31-.18-.58-.46-.69l-3.5-1.5c-.24-.1-.5-.08-.71.06Zm3.16 2.62v.75h-2V8.62l2 .85Z"/><path d="M9.75 6c0-1.25 1-2.25 2.25-2.25 1.24 0 2.25 1 2.25 2.25v5.5c0 .08-.02.16-.04.23l-1.5 4.5c-.11.3-.39.51-.72.51 -.33 0-.61-.21-.72-.52l-1.51-4.5c-.03-.08-.04-.16-.04-.24v-5.5ZM12 5.25c-.42 0-.75.33-.75.75v5.37l.75 2.25 .75-2.25V5.99c0-.42-.34-.75-.75-.75Z"/><path d="M11.85 15.26c.1-.03.2-.02.3 0l2.34.5c.4.08.66.48.577.89 -.09.4-.49.66-.89.57l-2.2-.47 -2.35.46c-.41.08-.81-.19-.89-.59 -.09-.41.18-.81.58-.89l2.49-.5Z"/></g></svg>