<svg viewBox="0 0 24 24" xmlns="http://www.w3.org/2000/svg"><g fill-rule="evenodd"><path d="M1.5 4.5c0-.28.22-.5.5-.5h20c.27 0 .5.22.5.5v12c0 .27-.23.5-.5.5H2c-.28 0-.5-.23-.5-.5v-12Zm1 .5v11h19V5h-19Z"/><path d="M10.02 16.34c.06-.21.25-.35.47-.35h3c.21 0 .4.13.47.34l1 3c.05.15.02.32-.07.45 -.1.13-.25.2-.41.2h-5c-.17 0-.32-.08-.41-.21 -.1-.14-.12-.3-.07-.46l1-3Zm.83.65l-.67 2h3.61l-.67-2h-2.28Z"/><path d="M3 19h18v1H3v-1Z"/><path d="M8.5 8.5H8v-1h.5C9.88 7.5 11 8.61 11 10v1c0 1.38-1.12 2.5-2.5 2.5H8v-1h.5c.82 0 1.5-.68 1.5-1.5H8.5v-1H10c0-.83-.68-1.5-1.5-1.5Z"/><path d="M12.5 8c0-.28.22-.5.5-.5h1c1.38 0 2.5 1.11 2.5 2.5v1c0 1.38-1.12 2.5-2.5 2.5h-1c-.28 0-.5-.23-.5-.5V8Zm1 .5v4h.5c.82 0 1.5-.68 1.5-1.5v-1c0-.83-.68-1.5-1.5-1.5h-.5Z"/></g></svg>