<svg viewBox="0 0 24 24" xmlns="http://www.w3.org/2000/svg"><g fill-rule="evenodd"><path d="M1.5 10c0-.28.22-.5.5-.5h20c.27 0 .5.22.5.5v4c0 .27-.23.5-.5.5H2c-.28 0-.5-.23-.5-.5v-4Zm1 .5v3h19v-3h-19Z"/><path d="M1.5 14c0-.28.22-.5.5-.5h20c.27 0 .5.22.5.5v8c0 .27-.23.5-.5.5H2c-.28 0-.5-.23-.5-.5v-8Zm1 .5v7h19v-7h-19Z"/><path d="M17.55 13.77l2-4 .89.44 -2 4 -.9-.45Z"/><path d="M14.05 13.77l2-4 .89.44 -2 4 -.9-.45Z"/><path d="M10.55 13.77l2-4 .89.44 -2 4 -.9-.45Z"/><path d="M7.05 13.77l2-4 .89.44 -2 4 -.9-.45Z"/><path d="M3.55 13.77l2-4 .89.44 -2 4 -.9-.45Z"/><path d="M1.5 3c0-.28.22-.5.5-.5h20c.27 0 .5.22.5.5v4c0 .27-.23.5-.5.5H2c-.28 0-.5-.23-.5-.5V3Zm1 .5v3h19v-3h-19Z"/><path d="M17.55 6.77l2-4 .89.44 -2 4 -.9-.45Z"/><path d="M14.05 6.77l2-4 .89.44 -2 4 -.9-.45Z"/><path d="M10.55 6.77l2-4 .89.44 -2 4 -.9-.45Z"/><path d="M7.05 6.77l2-4 .89.44 -2 4 -.9-.45Z"/><path d="M3.55 6.77l2-4 .89.44 -2 4 -.9-.45Z"/><path d="M3.5 7.5c-.56 0-1 .44-1 1 0 .55.44 1 1 1 .55 0 1-.45 1-1 0-.56-.45-1-1-1Zm-2 1c0-1.11.89-2 2-2 1.1 0 2 .89 2 2 0 1.1-.9 2-2 2 -1.11 0-2-.9-2-2Z"/><path d="M16 17H8v-1h8v1Z"/><path d="M18 20H6v-1h12v1Z"/></g></svg>