<svg viewBox="0 0 24 24" xmlns="http://www.w3.org/2000/svg"><g fill-rule="evenodd"><path d="M6.5 4.5c-2.21 0-4 1.79-4 4 0 2.2 1.79 4 4 4 2.2 0 4-1.8 4-4 0-2.21-1.8-4-4-4Zm-5 4c0-2.77 2.23-5 5-5 2.76 0 5 2.23 5 5 0 2.76-2.24 5-5 5 -2.77 0-5-2.24-5-5Z"/><path d="M17.5 4.5c-2.21 0-4 1.79-4 4 0 2.2 1.79 4 4 4 2.2 0 4-1.8 4-4 0-2.21-1.8-4-4-4Zm-5 4c0-2.77 2.23-5 5-5 2.76 0 5 2.23 5 5 0 2.76-2.24 5-5 5 -2.77 0-5-2.24-5-5Z"/><path d="M4.5 15.5v-3h-1V16c0 .27.22.5.5.5h5c.27 0 .5-.23.5-.5v-3.5h-1v3h-4Z"/><path d="M15.5 15.5v-3h-1V16c0 .27.22.5.5.5h5c.27 0 .5-.23.5-.5v-3.5h-1v3h-4Z"/><path d="M6 16.5V16h1v.5c0 1.65 1.34 3 3 3h4c1.65 0 3-1.35 3-3V16h1v.5c0 2.2-1.8 4-4 4h-4c-2.21 0-4-1.8-4-4Z"/></g></svg>