<svg viewBox="0 0 24 24" xmlns="http://www.w3.org/2000/svg"><g fill-rule="evenodd"><path d="M22.29 4.59c.12.09.2.24.2.4v14c0 .15-.08.29-.2.39 -.13.09-.28.12-.43.09l-16.5-4c-.23-.06-.39-.26-.39-.49v-5c0-.23.14-.42.35-.48l16.5-5c.15-.05.31-.02.44.07Zm-16.3 5.77v4.23l15.5 3.75V5.64l-15.5 4.69Z"/><path d="M1.69 8.6c-.13.09-.2.24-.2.39v7c0 .15.07.3.19.39 .12.09.28.12.43.08l3.5-1c.21-.07.36-.26.36-.49v-5c0-.23-.15-.42-.37-.49l-3.5-1c-.16-.05-.32-.02-.44.08Zm3.3 1.77v4.24l-2.5.71V9.64l2.5.71Z"/><path d="M7 19v-3.5h1v3h4.5V17h1v2c0 .27-.23.5-.5.5H7.5c-.28 0-.5-.23-.5-.5Z"/></g></svg>