<svg viewBox="0 0 24 24" xmlns="http://www.w3.org/2000/svg"><g fill-rule="evenodd"><path d="M5.5 4c0-.28.22-.5.5-.5h12c.27 0 .5.22.5.5v5c0 .27-.23.5-.5.5H6c-.28 0-.5-.23-.5-.5V4Zm1 .5v4h11v-4h-11Z"/><path d="M5.52 12.84c.06-.21.25-.35.47-.35h12c.21 0 .4.13.47.34l1 3c.05.15.02.32-.07.45 -.1.13-.25.2-.41.2h-14c-.17 0-.32-.08-.41-.21 -.1-.14-.12-.3-.07-.46l1-3Zm.83.65l-.67 2h12.61l-.67-2H6.34Z"/><path d="M5.5 13V2h1v11h-1Z"/><path d="M17.5 13V2h1v11h-1Z"/><path d="M5.79 21.546l13-6 .41.9 -13 6 -.42-.91Z"/><path d="M18.2 21.546l-13-6 -.42.9 13 6 .41-.91Z"/><path d="M3.5 10.5H6v1H3.5v-1Z"/><path d="M18 10.5h2.5v1H18v-1Z"/></g></svg>