<svg viewBox="0 0 24 24" xmlns="http://www.w3.org/2000/svg"><g fill-rule="evenodd"><path d="M11.032 8.95c.17-.18.45-.21.65-.06 1.46 1.09 2.57 2.81 2.99 4.86 .79 3.97-1.32 7.88-4.91 8.6 -3.59.72-7.05-2.07-7.85-6.05 -.42-2.06-.06-4.07.87-5.65 .12-.22.39-.31.62-.21 1.21.51 2.61.68 4.02.4 1.41-.29 2.63-.98 3.56-1.93Zm.38 1.01c-1.02.92-2.3 1.6-3.76 1.89 -1.46.29-2.9.16-4.2-.3 -.66 1.29-.9 2.91-.56 4.57 .71 3.57 3.75 5.84 6.66 5.25 2.91-.59 4.83-3.86 4.11-7.43 -.34-1.66-1.18-3.06-2.28-4.01Z"/><path d="M7.32 17.76c.16.81.95 1.33 1.76 1.17 .81-.17 1.33-.96 1.17-1.77l.98-.2c.27 1.35-.61 2.67-1.96 2.94 -1.36.27-2.68-.61-2.95-1.96l.98-.2Z"/><path d="M11.75 13.8l-1.87.88 -.43-.91 1.86-.89 .42.9Z"/><path d="M6.71 15.32l-2.06-.1 .04-1 2.05.09 -.05.99Z"/><path d="M19.87 1.58c.2-.15.48-.11.65.07 1.22 1.36 1.97 3.26 1.97 5.36 0 3.64-2.29 6.75-5.41 7.36l-.2-.99c2.55-.5 4.59-3.12 4.59-6.39 0-1.7-.56-3.23-1.45-4.38 -1.18.7-2.57 1.11-4.06 1.11 -1.49 0-2.88-.41-4.06-1.12 -.9 1.14-1.45 2.67-1.45 4.37h-1c0-2.1.75-4 1.97-5.37 .16-.19.44-.23.65-.08 1.09.74 2.42 1.18 3.87 1.18 1.44 0 2.77-.45 3.87-1.19Z"/><path d="M15.99 9.5c.82 0 1.5.67 1.5 1.5h1c0-1.39-1.12-2.5-2.5-2.5 -.54 0-1.04.16-1.45.45l.57.81c.24-.18.54-.28.86-.28Z"/><path d="M19.62 6.01l-2-.5 -.25.97 2 .5 .24-.98Z"/><path d="M14.37 5.51l-2 .5 .24.97 2-.5 -.25-.98Z"/></g></svg>