<svg viewBox="0 0 24 24" xmlns="http://www.w3.org/2000/svg"><g fill-rule="evenodd"><path d="M1.5 4.5c0-.28.22-.5.5-.5h20c.27 0 .5.22.5.5v12c0 .27-.23.5-.5.5H2c-.28 0-.5-.23-.5-.5v-12Zm1 .5v11h19V5h-19Z"/><path d="M10.02 16.34c.06-.21.25-.35.47-.35h3c.21 0 .4.13.47.34l1 3c.05.15.02.32-.07.45 -.1.13-.25.2-.41.2h-5c-.17 0-.32-.08-.41-.21 -.1-.14-.12-.3-.07-.46l1-3Zm.83.65l-.67 2h3.61l-.67-2h-2.28Z"/><path d="M3 19h18v1H3v-1Z"/><path d="M10 8h1v2h1.5V8h1v5h-1v-2H11v2h-1V8Z"/><path d="M5 8c0-.28.22-.5.5-.5h3v1H6V10h2v1H6v2H5V8Z"/><path d="M15 8.5c0-.28.22-.5.5-.5h1c1.38 0 2.5 1.11 2.5 2.5 0 1.38-1.12 2.5-2.5 2.5h-1c-.28 0-.5-.23-.5-.5v-4Zm1 .5v3h.5c.82 0 1.5-.68 1.5-1.5 0-.83-.68-1.5-1.5-1.5H16Z"/></g></svg>