<svg viewBox="0 0 24 24" xmlns="http://www.w3.org/2000/svg"><g fill-rule="evenodd"><path d="M5 3c0-.28.22-.5.5-.5h13c.27 0 .5.22.5.5v18c0 .27-.23.5-.5.5h-13c-.28 0-.5-.23-.5-.5V3Zm1 .5v17h12v-17H6Z"/><path d="M1.5 3c0-.28.22-.5.5-.5h3.5c.27 0 .5.22.5.5v18c0 .27-.23.5-.5.5H2c-.28 0-.5-.23-.5-.5V3Zm1 .5v17H5v-17H2.5Z"/><path d="M18 3c0-.28.22-.5.5-.5H22c.27 0 .5.22.5.5v18c0 .27-.23.5-.5.5h-3.5c-.28 0-.5-.23-.5-.5V3Zm1 .5v17h2.5v-17H19Z"/><path d="M2 5.5h3.5v1H2v-1Z"/><path d="M2 8.5h3.5v1H2v-1Z"/><path d="M2 11.5h3.5v1H2v-1Z"/><path d="M2 14.5h3.5v1H2v-1Z"/><path d="M2 17.5h3.5v1H2v-1Z"/><path d="M18.5 5.5H22v1h-3.5v-1Z"/><path d="M18.5 8.5H22v1h-3.5v-1Z"/><path d="M18.5 11.5H22v1h-3.5v-1Z"/><path d="M18.5 14.5H22v1h-3.5v-1Z"/><path d="M18.5 17.5H22v1h-3.5v-1Z"/></g></svg>