<svg viewBox="0 0 24 24" xmlns="http://www.w3.org/2000/svg"><g fill-rule="evenodd"><path d="M5.5 7c0-3.04 2.46-5.5 5.5-5.5h2c3.03 0 5.5 2.46 5.5 5.5v15c0 .19-.12.37-.29.45 -.18.08-.39.05-.54-.07l-2.68-2.24 -2.68 2.23c-.19.15-.46.15-.65 0l-2.68-2.24 -2.68 2.23c-.15.12-.36.15-.54.06 -.18-.09-.29-.26-.29-.46v-15ZM11 2.5C8.51 2.5 6.5 4.51 6.5 7v13.93l2.17-1.82c.18-.16.45-.16.64 0l2.67 2.23 2.67-2.24c.18-.16.45-.16.64 0l2.17 1.81V6.97c0-2.49-2.02-4.5-4.5-4.5h-2Z"/><path d="M10.063 11.5h3.87c-.23-.87-1.01-1.5-1.94-1.5 -.94 0-1.72.63-1.94 1.5Zm-1.07.5c0-1.66 1.34-3 3-3 1.65 0 3 1.34 3 3 0 .27-.23.5-.5.5h-5c-.28 0-.5-.23-.5-.5Z"/><path d="M13.27 6.55l2-1 .44.89 -2 1 -.45-.9Z"/><path d="M10.72 6.55l-2-1 -.45.89 1.99 1 .44-.9Z"/></g></svg>