<svg viewBox="0 0 24 24" xmlns="http://www.w3.org/2000/svg"><g fill-rule="evenodd"><path d="M9.5 2.5c-3.87 0-7 3.13-7 7 0 3.86 3.13 7 7 7 3.86 0 7-3.14 7-7 0-3.87-3.14-7-7-7Zm-8 7c0-4.42 3.58-8 8-8 4.41 0 8 3.58 8 8 0 4.41-3.59 8-8 8 -4.42 0-8-3.59-8-8Z"/><path d="M15.35 14.64l6 6 -.71.7 -6-6 .7-.71Z"/><path d="M9.5 5.5C8.67 5.5 8 6.17 8 7v.5H7V7c0-1.39 1.11-2.5 2.5-2.5C10.88 4.5 12 5.61 12 7v.07c0 .75-.43 1.45-1.11 1.78l-.9.44v1.69h-1v-2c0-.19.1-.37.27-.45l1.17-.59c.33-.17.55-.52.55-.9v-.08c0-.83-.68-1.5-1.5-1.5Z"/><path d="M9 14.59v-1.1h1v1.09H9Z"/></g></svg>