<svg viewBox="0 0 24 24" xmlns="http://www.w3.org/2000/svg"><g fill-rule="evenodd"><path d="M4.62 8.67c.09-.12.23-.18.37-.18h14c.14 0 .28.06.37.17 .09.11.13.25.11.4l-2 13c-.04.24-.25.42-.5.42h-10c-.25 0-.46-.19-.5-.43l-2-13c-.03-.15.01-.3.11-.41Zm.96.82l1.84 12h9.14l1.84-12H5.56Z"/><path d="M10.5 2.5c-1.11 0-2 .89-2 2 0 .14.01.29.04.43 .02.13 0 .27-.08.38 -.08.11-.2.19-.33.21 -.94.16-1.646.98-1.646 1.96 0 .36.09.7.26 1h10.73c0-1.03-.78-1.88-1.78-1.99 -.16-.02-.3-.12-.38-.25 -.08-.14-.09-.31-.03-.46 .11-.25.17-.53.17-.82 0-1.11-.9-2-2-2 -.35 0-.66.08-.94.23 -.2.1-.45.06-.61-.1 -.37-.4-.89-.64-1.47-.64Zm-3 2c0-1.66 1.34-3 3-3 .73 0 1.404.26 1.92.69 .33-.13.69-.2 1.07-.2 1.65 0 3 1.34 3 3 0 .22-.03.43-.08.64 1.2.39 2.07 1.52 2.07 2.85 0 .2-.03.4-.06.59 -.05.23-.26.4-.49.4H6.47c-.16 0-.31-.08-.4-.2 -.38-.51-.61-1.13-.61-1.81 0-1.31.83-2.43 2-2.84 -.01-.06-.01-.12-.01-.17Z"/><path d="M9 22.05l-1.5-13 .99-.12 1.5 13 -1 .11Z"/><path d="M14.99 22.05l1.5-13 -1-.12 -1.5 13 .99.11Z"/><path d="M11.5 22V9h1v13h-1Z"/></g></svg>