<svg viewBox="0 0 24 24" xmlns="http://www.w3.org/2000/svg"><g fill-rule="evenodd"><path d="M2.49 12.02c-.01 0 0-.01 0-.01 -.01 0-.01 0-.01 0Zm.01-.03c0-.02.02-.03.04-.05 .07-.08.21-.18.44-.29 .45-.22 1.13-.42 2.02-.6 1.76-.36 4.23-.58 6.97-.58 2.73 0 5.2.22 6.97.57 .88.17 1.57.38 2.02.59 .22.1.36.2.44.28 .01.01.03.03.04.04 -.01.01-.03.02-.05.04 -.08.07-.22.17-.45.28 -.46.21-1.14.41-2.03.59 -1.77.35-4.24.57-6.98.57s-5.21-.23-6.98-.58c-.89-.18-1.58-.39-2.03-.6 -.23-.11-.37-.21-.45-.29 -.02-.02-.04-.04-.05-.05Zm18.99.02s-.01-.01-.01-.01 0 0 0 0Zm-.01-.05c0-.01 0-.01 0-.01s-.01 0-.01 0Zm-19.01 0c-.01-.01-.01-.01-.01-.01s0 0 0 0Zm2.33-1.89c1.85-.38 4.38-.6 7.16-.6 2.78 0 5.31.22 7.16.59 .92.18 1.69.4 2.25.67 .27.13.52.28.71.46 .18.18.35.44.35.76 0 .31-.17.57-.36.76 -.19.18-.44.33-.72.46 -.56.26-1.34.48-2.26.67 -1.86.37-4.385.59-7.17.59 -2.79 0-5.32-.23-7.17-.6 -.93-.19-1.7-.41-2.26-.68 -.28-.14-.53-.29-.72-.47 -.19-.19-.36-.45-.36-.77s.16-.58.35-.77c.18-.19.43-.34.71-.47 .55-.27 1.33-.49 2.25-.68Z"/><path d="M7.5 14c0 2.16 1.96 4 4.5 4 2.53 0 4.5-1.84 4.5-4h1c0 2.8-2.52 5-5.5 5 -2.99 0-5.5-2.2-5.5-5h1Z"/><path d="M16.5 10c0-2.17-1.97-4-4.5-4 -2.54 0-4.5 1.83-4.5 4h-1c0-2.81 2.51-5 5.5-5 2.98 0 5.5 2.19 5.5 5h-1Z"/></g></svg>