<svg viewBox="0 0 24 24" xmlns="http://www.w3.org/2000/svg"><g fill-rule="evenodd"><path d="M12 2.5c-5.25 0-9.5 4.25-9.5 9.5 0 5.24 4.25 9.5 9.5 9.5 5.24 0 9.5-4.26 9.5-9.5 0-5.25-4.26-9.5-9.5-9.5ZM1.5 12C1.5 6.2 6.2 1.5 12 1.5c5.79 0 10.5 4.7 10.5 10.5 0 5.79-4.71 10.5-10.5 10.5 -5.8 0-10.5-4.71-10.5-10.5Z"/><path d="M7.69 12c0-2.66-1.1-5.07-2.86-6.79l.69-.72c1.94 1.9 3.15 4.56 3.15 7.49 0 2.93-1.21 5.59-3.16 7.5l-.7-.72c1.76-1.73 2.85-4.13 2.85-6.79Z"/><path d="M16.3 12c0 2.65 1.09 5.06 2.85 6.78l-.7.71c-1.95-1.91-3.16-4.57-3.16-7.5 0-2.94 1.2-5.6 3.15-7.5l.69.71c-1.77 1.72-2.86 4.12-2.86 6.78Z"/><path d="M11.5 22V2h1v20h-1Z"/><path d="M22 12.5H2v-1h20v1Z"/></g></svg>