<svg viewBox="0 0 24 24" xmlns="http://www.w3.org/2000/svg"><g fill-rule="evenodd"><path d="M7.5 9.5c0-4.42 3.58-8 8-8h.5c.27 0 .5.22.5.5v15c0 .27-.23.5-.5.5H8c-.28 0-.5-.23-.5-.5V9.5Zm8-7c-3.87 0-7 3.13-7 7v7h7v-14Z"/><path d="M12 17c0-.28.22-.5.5-.5H16c.27 0 .5.22.5.5v5c0 .27-.23.5-.5.5h-3.5c-.28 0-.5-.23-.5-.5v-5Zm1 .5v4h2.5v-4H13Z"/><path d="M10.95 5.9l1.06-3.56 .95.28 -1.07 3.55c-.22.71-.02 1.49.5 2.02 .99.99 1.06 2.57.16 3.65l-.17.19c-.51.6-.61 1.45-.26 2.16l1.27 2.54 -.9.44 -1.28-2.55c-.54-1.07-.39-2.35.37-3.26l.16-.2c.56-.69.52-1.69-.11-2.32 -.79-.79-1.09-1.95-.77-3.02Z"/></g></svg>