<svg viewBox="0 0 24 24" xmlns="http://www.w3.org/2000/svg"><g fill-rule="evenodd"><path d="M4.5 6.5c0-.28.22-.5.5-.5h14c.27 0 .5.22.5.5C19.5 7.88 20.61 9 22 9c.27 0 .5.22.5.5v5c0 .27-.23.5-.5.5 -1.39 0-2.5 1.11-2.5 2.5 0 .27-.23.5-.5.5H5c-.28 0-.5-.23-.5-.5C4.5 16.11 3.38 15 2 15c-.28 0-.5-.23-.5-.5v-5c0-.28.22-.5.5-.5 1.38 0 2.5-1.12 2.5-2.5Zm.96.5c-.22 1.53-1.44 2.74-2.97 2.96v4.07c1.53.21 2.74 1.43 2.96 2.96h13.07c.21-1.54 1.43-2.75 2.96-2.97V9.94c-1.54-.22-2.75-1.44-2.97-2.97H5.43Z"/><path d="M8.14 8.64c.09-.1.22-.15.35-.15h7c.13 0 .25.05.35.14l1.5 1.49c.09.09.14.22.14.35v3c0 .13-.06.25-.15.35l-1.5 1.5c-.1.09-.23.14-.36.14h-7c-.14 0-.26-.06-.36-.15l-1.5-1.5c-.1-.1-.15-.23-.15-.36v-3c0-.14.05-.26.14-.36l1.5-1.5Zm.56.85l-1.21 1.2v2.58l1.2 1.2h6.58l1.2-1.21v-2.59l-1.21-1.21H8.67Z"/></g></svg>