<svg viewBox="0 0 24 24" xmlns="http://www.w3.org/2000/svg"><g fill-rule="evenodd"><path d="M2.5 12c0-1.39 1.11-2.5 2.5-2.5h9.5c1.38 0 2.5 1.11 2.5 2.5v1.23l3.79-1.69c.15-.07.33-.06.47.03 .14.09.22.24.22.41v8c0 .16-.09.32-.23.41 -.15.09-.33.1-.48.03l-3.8-1.69v1.23c0 1.38-1.12 2.5-2.5 2.5h-9.5c-1.39 0-2.5-1.12-2.5-2.5v-8ZM5 10.5c-.83 0-1.5.67-1.5 1.5v8c0 .82.67 1.5 1.5 1.5h9.5c.82 0 1.5-.68 1.5-1.5v-1.24c0-.73.74-1.21 1.4-.92l3.09 1.375v-6.47l-3.1 1.375c-.67.29-1.41-.2-1.41-.92v-1.24c0-.83-.68-1.5-1.5-1.5h-9.5Z"/><path d="M13 2.5c-1.39 0-2.5 1.11-2.5 2.5 0 1.38 1.11 2.5 2.5 2.5 1.38 0 2.5-1.12 2.5-2.5 0-1.39-1.12-2.5-2.5-2.5ZM9.5 5c0-1.94 1.56-3.5 3.5-3.5 1.93 0 3.5 1.56 3.5 3.5 0 1.93-1.57 3.5-3.5 3.5 -1.94 0-3.5-1.57-3.5-3.5Z"/><path d="M5.5 3.5c-1.11 0-2 .89-2 2 0 1.1.89 2 2 2 1.1 0 2-.9 2-2 0-1.11-.9-2-2-2Zm-3 2c0-1.66 1.34-3 3-3 1.65 0 3 1.34 3 3 0 1.65-1.35 3-3 3 -1.66 0-3-1.35-3-3Z"/><path d="M7.23 13.07c.14-.1.33-.1.48-.03l4.99 2.5c.16.08.27.25.27.44 0 .18-.11.36-.28.44l-5 2.5c-.16.07-.34.06-.49-.03 -.15-.1-.24-.26-.24-.43v-5c0-.18.08-.34.23-.43Zm.76 1.23v3.38l3.38-1.7 -3.39-1.7Z"/></g></svg>