<svg viewBox="0 0 24 24" xmlns="http://www.w3.org/2000/svg"><g fill-rule="evenodd"><path d="M1.5 2c0-.28.22-.5.5-.5h4.9c.16 0 .31.08.41.21l1.65 2.4h10.53c.27 0 .5.22.5.5V6.98h-1V5.11H8.69c-.17 0-.32-.09-.42-.22L6.61 2.48H2.47v17h5.5v1h-6c-.28 0-.5-.23-.5-.5v-18Z"/><path d="M9.5 10c0-.28.22-.5.5-.5h12c.27 0 .5.22.5.5v11c0 .27-.23.5-.5.5H10c-.28 0-.5-.23-.5-.5V10Zm1 .5v10h11v-10h-11Z"/><path d="M13.76 12.05c.16-.09.35-.08.51.02l4.49 3c.14.09.22.25.22.42 -.01.16-.1.32-.24.41l-4.5 2.81c-.16.09-.35.1-.51.01 -.16-.09-.26-.26-.26-.44v-5.82c0-.19.1-.36.26-.45Zm.73 1.37v3.97l3.07-1.93 -3.08-2.06Z"/></g></svg>