<svg viewBox="0 0 24 24" xmlns="http://www.w3.org/2000/svg"><g fill-rule="evenodd"><path d="M12 3.5c4.69 0 8.5 3.8 8.5 8.5v8.5H12c-4.7 0-8.5-3.81-8.5-8.5 0-4.7 3.8-8.5 8.5-8.5Zm9.5 8.5c0-5.25-4.26-9.5-9.5-9.5 -5.25 0-9.5 4.25-9.5 9.5 0 5.24 4.25 9.5 9.5 9.5h9c.27 0 .5-.23.5-.5v-9Z"/><path d="M12.28 9.53c-.83 0-1.5.67-1.5 1.5 0 .82.67 1.5 1.5 1.5 .82 0 1.5-.68 1.5-1.5 0-.83-.68-1.5-1.5-1.5Zm-2.5 1.5c0-1.39 1.11-2.5 2.49-2.5 1.38 0 2.5 1.11 2.5 2.5 0 1.38-1.12 2.5-2.5 2.5 -1.39 0-2.5-1.12-2.5-2.5Z"/><path d="M12.28 13.53c-1.39 0-2.5 1.11-2.5 2.5h-1c0-1.94 1.56-3.5 3.49-3.5 1.93 0 3.5 1.56 3.5 3.5h-1c0-1.39-1.12-2.5-2.5-2.5Z"/></g></svg>