<svg viewBox="0 0 24 24" xmlns="http://www.w3.org/2000/svg"><g fill-rule="evenodd"><path d="M6.75 10.41h.5V9.4h-.5c-2.49 0-4.5 2.01-4.5 4.5v7.16c0 .19.11.37.28.45 .17.08.38.05.53-.07l2.86-2.39h4.81c2.48 0 4.5-2.02 4.5-4.5v-.34h-1v.33c0 1.93-1.57 3.5-3.5 3.5h-5c-.12 0-.24.04-.33.11l-2.18 1.81v-6.1c0-1.94 1.56-3.5 3.5-3.5Z"/><path d="M8.75 6.91c0-2.49 2.01-4.5 4.5-4.5h4c2.48 0 4.5 2.01 4.5 4.5v7.16c0 .19-.12.37-.29.45 -.18.08-.39.05-.54-.07l-2.87-2.39h-4.82c-2.49 0-4.5-2.02-4.5-4.51v-.67Zm4.5-3.5c-1.94 0-3.5 1.56-3.5 3.5v.66c0 1.93 1.56 3.5 3.5 3.5h5c.11 0 .23.04.32.11l2.17 1.81v-6.1c0-1.94-1.57-3.5-3.5-3.5h-4Z"/></g></svg>