<svg viewBox="0 0 24 24" xmlns="http://www.w3.org/2000/svg"><g fill-rule="evenodd"><path d="M2.5 6c0-1.39 1.11-2.5 2.5-2.5h14c1.38 0 2.5 1.11 2.5 2.5v14c0 .18-.11.35-.27.44 -.17.08-.36.07-.52-.03l-4.38-2.92H4.98c-1.39 0-2.5-1.12-2.5-2.5v-9ZM5 4.5c-.83 0-1.5.67-1.5 1.5v9c0 .82.67 1.5 1.5 1.5h11.5c.09 0 .19.02.27.08l3.72 2.48V5.99c0-.83-.68-1.5-1.5-1.5h-14Z"/><path d="M12 7c-1.94 0-3.5 1.56-3.5 3.5 0 1.93 1.56 3.5 3.5 3.5 1.93 0 3.5-1.57 3.5-3.5C15.5 8.56 13.93 7 12 7Zm-4.5 3.5C7.5 8.01 9.51 6 12 6c2.48 0 4.5 2.01 4.5 4.5 0 2.48-2.02 4.5-4.5 4.5 -2.49 0-4.5-2.02-4.5-4.5Z"/><path d="M8.81 7.31c.19-.2.51-.2.7 0l5.65 5.65c.19.19.19.51 0 .7 -.2.19-.52.19-.71 0L8.79 8c-.2-.2-.2-.52 0-.71Z"/></g></svg>