<svg viewBox="0 0 24 24" xmlns="http://www.w3.org/2000/svg"><g fill-rule="evenodd"><path d="M12 3.5c4.69 0 8.5 3.8 8.5 8.5 0 1.34-.32 2.61-.87 3.74 -.1.19-.14.42-.09.65l.81 3.97 -4.11-.77c-.22-.05-.44-.01-.63.08 -1.11.52-2.34.81-3.64.81 -4.7 0-8.5-3.81-8.5-8.5 0-4.7 3.8-8.5 8.5-8.5Zm9.5 8.5c0-5.25-4.26-9.5-9.5-9.5 -5.25 0-9.5 4.25-9.5 9.5 0 5.24 4.25 9.5 9.5 9.5 1.45 0 2.83-.33 4.06-.92 0-.01 0-.01 0-.01s0 0 0 0l4.1.76c.69.13 1.3-.49 1.16-1.19l-.82-3.98s0 0 0-.01 -.01-.01 0-.01c.62-1.27.97-2.69.97-4.2Z"/><path d="M8.5 11.5c0-.28.22-.5.5-.5h6c.27 0 .5.22.5.5V16c0 .27-.23.5-.5.5H9c-.28 0-.5-.23-.5-.5v-4.5Zm1 .5v3.5h5V12h-5Z"/><path d="M9.5 10c0-1.39 1.11-2.5 2.5-2.5 1.38 0 2.5 1.11 2.5 2.5v1.5c0 .27-.23.5-.5.5h-4c-.28 0-.5-.23-.5-.5V10ZM12 8.5c-.83 0-1.5.67-1.5 1.5v1h3v-1c0-.83-.68-1.5-1.5-1.5Z"/></g></svg>