<svg viewBox="0 0 24 24" xmlns="http://www.w3.org/2000/svg"><g fill-rule="evenodd"><path d="M21.5 4c0-.28-.23-.5-.5-.5H3c-.28 0-.5.22-.5.5v16c0 .18.1.35.26.44 .16.08.35.07.51-.03l4.37-2.92h13.34c.27 0 .5-.23.5-.5v-13Zm-1 .5v12h-13c-.1 0-.2.02-.28.08l-3.73 2.48V4.49h17Z"/><path d="M8.5 10c0-.28.22-.5.5-.5h6c.27 0 .5.22.5.5v4.5c0 .27-.23.5-.5.5H9c-.28 0-.5-.23-.5-.5V10Zm1 .5V14h5v-3.5h-5Z"/><path d="M9.5 8.5C9.5 7.11 10.61 6 12 6c1.38 0 2.5 1.11 2.5 2.5V10c0 .27-.23.5-.5.5h-4c-.28 0-.5-.23-.5-.5V8.5ZM12 7c-.83 0-1.5.67-1.5 1.5v1h3v-1c0-.83-.68-1.5-1.5-1.5Z"/></g></svg>