<svg viewBox="0 0 24 24" xmlns="http://www.w3.org/2000/svg"><g fill-rule="evenodd"><path d="M4.5 7.5v-4h-2v5c0 .55.44 1 1 1h5c.55 0 1-.45 1-1v-5h-2v4h-3Z"/><path d="M16.5 21v-4h-2v5c0 .55.44 1 1 1h5c.55 0 1-.45 1-1v-5h-2v4h-3Z"/><path d="M5.44 1.16c.32-.22.75-.23 1.09-.02l4.7 3 -1.08 1.68 -4.16-2.65L2.03 5.8 .92 4.13l4.5-3Z"/><path d="M17.44 14.66c.32-.22.75-.23 1.09-.02l4.7 3 -1.08 1.68 -4.16-2.65 -3.96 2.63 -1.11-1.67 4.5-3Z"/><path d="M2 7.5h8v2H2v-2Z"/><path d="M14 21h8v2h-8v-2Z"/><path d="M5 17v-4H3v5c0 .55.44 1 1 1h5.5v-2H5Z"/><path d="M8.58 18l-1.3-1.3 1.41-1.42 2 2c.39.39.39 1.02 0 1.41l-2.01 2 -1.42-1.42 1.29-1.3Z"/><path d="M18 5h-4V3h5c.55 0 1 .44 1 1v5.5h-2V5Z"/><path d="M19 8.58l-1.3-1.3 -1.42 1.41 2 1.99c.39.39 1.02.39 1.41 0l2-2 -1.42-1.42 -1.3 1.29Z"/></g></svg>