<svg viewBox="0 0 24 24" xmlns="http://www.w3.org/2000/svg"><g fill-rule="evenodd"><path d="M10.97 11.21c.72-.59 1.76-.59 2.49 0l1.72 1.37c.47.37.75.95.75 1.56v2.35c0 1.1-.9 2-2 2h-3.45c-1.11 0-2-.9-2-2v-2.36c0-.61.27-1.19.75-1.57l1.72-1.38Zm1.24 1.56l-1.73 1.37v2.35h3.44v-2.36l-1.73-1.38Z"/><path d="M1 2c0-.56.44-1 1-1h20c.55 0 1 .44 1 1v20c0 .55-.45 1-1 1H2c-.56 0-1-.45-1-1V2Zm2 1v18h18V3H3Z"/><path d="M1 2c0-.56.44-1 1-1h20c.55 0 1 .44 1 1v5c0 .55-.45 1-1 1H2c-.56 0-1-.45-1-1V2Zm2 1v3h18V3H3Z"/><path d="M6.5 5.5h-2v-2h2v2Z"/><path d="M10.5 5.5h-2v-2h2v2Z"/><path d="M14.5 5.5h-2v-2h2v2Z"/></g></svg>