<svg viewBox="0 0 24 24" xmlns="http://www.w3.org/2000/svg"><g fill-rule="evenodd"><path d="M2 4c0-1.11.89-2 2-2h16c1.1 0 2 .89 2 2v12c0 .55-.45 1-1 1h-3v-2h2V4H4v11h2v2H3c-.56 0-1-.45-1-1V4Z"/><path d="M1 16c0-.56.44-1 1-1h5c.55 0 1 .44 1 1v.5h8V16c0-.56.44-1 1-1h5c.55 0 1 .44 1 1v2c0 1.65-1.35 3-3 3H4c-1.66 0-3-1.35-3-3v-2Zm17 1v.5c0 .55-.45 1-1 1H7c-.56 0-1-.45-1-1V17H3v1c0 .55.44 1 1 1h16c.55 0 1-.45 1-1v-1h-3Z"/><path d="M10.75 6.21c.72-.59 1.76-.59 2.49 0l1.72 1.37c.47.37.75.95.75 1.56v2.35c0 1.1-.9 2-2 2h-3.45c-1.11 0-2-.9-2-2V9.13c0-.61.27-1.19.75-1.57l1.72-1.38Zm1.24 1.56l-1.73 1.37v2.35h3.44V9.13l-1.73-1.38Z"/></g></svg>