<svg viewBox="0 0 24 24" xmlns="http://www.w3.org/2000/svg"><g fill="#3747D6" fill-rule="evenodd"><path d="M21 3h-2V1h3c.55 0 1 .44 1 1v3h-2V3Z"/><path d="M21 21h-2v2h3c.55 0 1-.45 1-1v-3h-2v2Z"/><path d="M3 3h2V1H2c-.56 0-1 .44-1 1v3h2V3Z"/><path d="M3 21h2v2H2c-.56 0-1-.45-1-1v-3h2v2Z"/><path d="M17.293 5.29l3.5-3.5 1.41 1.41 -3.5 3.5 -1.42-1.42Z"/><path d="M17.293 18.7l3.5 3.5 1.41-1.42 -3.5-3.5 -1.42 1.41Z"/><path d="M6.7 5.29l-3.5-3.5L1.78 3.2l3.5 3.5 1.41-1.42Z"/><path d="M6.7 18.7l-3.5 3.5 -1.42-1.42 3.5-3.5 1.41 1.41Z"/><g fill="#9545ED"><path d="M12 7c-2.77 0-5 2.23-5 5 0 2.76 2.23 5 5 5 2.76 0 5-2.24 5-5 0-2.77-2.24-5-5-5Zm-7 5c0-3.87 3.13-7 7-7 3.86 0 7 3.13 7 7 0 3.86-3.14 7-7 7 -3.87 0-7-3.14-7-7Z"/><path d="M11.53 8.07c-.32.95-.54 2.34-.54 3.92 0 1.57.21 2.96.53 3.92 .15.47.32.79.46.97 .13-.18.3-.5.46-.98 .31-.96.53-2.35.53-3.93s-.22-2.97-.54-3.93c-.16-.48-.33-.8-.47-.98 -.14.18-.31.49-.47.97Zm.58-1.1s-.01 0-.01 0c0-.01 0-.01 0-.01Zm-.24 0c-.01-.01-.01-.01-.01-.01 0-.01 0 0 0 0Zm-.01 10.04c0-.01 0-.01 0-.01 -.01 0-.01 0-.01 0Zm.23-.01s0 0 0 0 -.01-.01-.01-.01ZM10.41 5.83c.32-.42.85-.86 1.56-.86 .71 0 1.23.43 1.56.85 .33.42.59.98.79 1.58 .4 1.21.63 2.82.63 4.55s-.24 3.34-.64 4.55c-.21.6-.47 1.15-.8 1.58 -.33.41-.85.85-1.57.85 -.72 0-1.24-.44-1.57-.86 -.34-.43-.6-.99-.8-1.59 -.41-1.22-.64-2.83-.64-4.56 0-1.74.23-3.35.63-4.56 .2-.61.46-1.16.79-1.59Z"/><path d="M6 11h12v2H6v-2Z"/></g></g></svg>