<svg viewBox="0 0 24 24" xmlns="http://www.w3.org/2000/svg"><g fill="#8B98A6" fill-rule="evenodd"><path d="M1.75 3.5c0-.42.33-.75.75-.75H5c.34 0 .64.23.72.56l.5 2c.1.4-.15.8-.55.9 -.41.1-.81-.15-.91-.55L4.4 4.22H2.48c-.42 0-.75-.34-.75-.75Z"/><path fill="#8BC94D" d="M5.5 4.75c-.24 0-.45.1-.6.28 -.15.18-.2.41-.14.64l2.5 10c.08.33.38.56.72.56h11c.34 0 .64-.24.72-.57l2.5-10c.05-.23 0-.47-.14-.65 -.15-.19-.37-.29-.6-.29h-16Z"/><path d="M9 17.25c-1.25 0-2.25 1-2.25 2.25 0 1.24 1 2.25 2.25 2.25 1.24 0 2.25-1.01 2.25-2.25 0-1.25-1.01-2.25-2.25-2.25Z"/><path d="M18 17.25c-1.25 0-2.25 1-2.25 2.25 0 1.24 1 2.25 2.25 2.25 1.24 0 2.25-1.01 2.25-2.25 0-1.25-1.01-2.25-2.25-2.25Z"/><g fill="#F9F9F9"><path d="M13.5 7.25c.41 0 .75.33.75.75v5c0 .41-.34.75-.75.75 -.42 0-.75-.34-.75-.75V8c0-.42.33-.75.75-.75Z"/><path d="M10.25 10.5c0-.42.33-.75.75-.75h5c.41 0 .75.33.75.75 0 .41-.34.75-.75.75h-5c-.42 0-.75-.34-.75-.75Z"/></g></g></svg>