<svg viewBox="0 0 24 24" xmlns="http://www.w3.org/2000/svg"><g fill="#8B98A6" fill-rule="evenodd"><path d="M7.25 6.5c0-2.63 2.12-4.75 4.75-4.75 2.62 0 4.75 2.12 4.75 4.75v1c0 .41-.34.75-.75.75H8c-.42 0-.75-.34-.75-.75v-1ZM12 3.25c-1.8 0-3.25 1.45-3.25 3.25v.25h6.5V6.5c0-1.8-1.46-3.25-3.25-3.25Z"/><path fill="#8BC94D" d="M7.73 22.25c-1.37 0-2.53-1.01-2.73-2.37L3.24 7.59c-.04-.22.03-.44.17-.6 .14-.17.34-.26.56-.26h16c.21 0 .42.09.56.25 .14.16.2.38.17.59l-1.76 12.28c-.2 1.35-1.36 2.36-2.73 2.36H7.67Z"/><g fill="#F9F9F9"><path d="M12 11.25c.41 0 .75.33.75.75v5c0 .41-.34.75-.75.75 -.42 0-.75-.34-.75-.75v-5c0-.42.33-.75.75-.75Z"/><path d="M8.75 14.5c0-.42.33-.75.75-.75h5c.41 0 .75.33.75.75 0 .41-.34.75-.75.75h-5c-.42 0-.75-.34-.75-.75Z"/></g></g></svg>