<svg viewBox="0 0 24 24" xmlns="http://www.w3.org/2000/svg"><g fill="#A2ADB8" fill-rule="evenodd"><path d="M21.27 1.8c.38.15.57.59.41.97l-6 15c-.16.38-.6.57-.98.41 -.39-.16-.58-.6-.42-.98l6-15c.15-.39.59-.58.97-.42Z"/><path d="M2.72 1.8c-.39.15-.58.59-.42.97l6 15c.15.38.59.57.97.41 .38-.16.57-.6.41-.98l-6-15c-.16-.39-.6-.58-.98-.42Z"/><path d="M17.17 1.76c.4.09.65.49.55.9l-3.5 15c-.1.4-.5.65-.91.56 -.41-.1-.66-.5-.56-.91l3.5-15c.09-.41.49-.66.9-.56Z"/><path d="M6.82 1.76c-.41.09-.66.49-.56.9l3.5 15c.09.4.49.65.9.56 .4-.1.65-.5.56-.91l-3.5-15c-.1-.41-.5-.66-.91-.56Z"/><path d="M12 1.75c.41 0 .75.33.75.75v15c0 .41-.34.75-.75.75 -.42 0-.75-.34-.75-.75v-15c0-.42.33-.75.75-.75Z"/><g fill="#5D6874"><path d="M9 16.75c-.42 0-.75.33-.75.75v2c0 1.51 1.23 2.75 2.75 2.75h2c1.51 0 2.75-1.24 2.75-2.75v-2c0-.42-.34-.75-.75-.75H9Z"/><path d="M5.75 11c0-.42.33-.75.75-.75h11c.41 0 .75.33.75.75 0 .41-.34.75-.75.75h-11c-.42 0-.75-.34-.75-.75Z"/></g></g></svg>