<svg viewBox="0 0 24 24" xmlns="http://www.w3.org/2000/svg"><g fill="#5D6874" fill-rule="evenodd"><path d="M3.75 14c0-1.52 1.23-2.75 2.75-2.75 1.51 0 2.75 1.23 2.75 2.75v1c0 .41-.34.75-.75.75h-4c-.42 0-.75-.34-.75-.75v-1Zm2.75-1.25c-.7 0-1.25.55-1.25 1.25v.25h2.5V14c0-.7-.56-1.25-1.25-1.25Z"/><g fill="#FFC44D"><path d="M15.75 5.87c0-.9.72-1.63 1.62-1.63h3.12c.41 0 .75.33.75.75 0 .41-.34.75-.75.75h-3.13c-.07 0-.13.05-.13.12 0 .05.03.09.08.11l1.8.6c.66.22 1.1.84 1.1 1.53 0 .89-.73 1.62-1.63 1.62h-3.13c-.42 0-.75-.34-.75-.75 0-.42.33-.75.75-.75h3.12c.06 0 .12-.06.12-.13 0-.06-.04-.1-.09-.12l-1.81-.61c-.67-.23-1.11-.85-1.11-1.54Z"/><path d="M18 8.25c.41 0 .75.33.75.75v2c0 .41-.34.75-.75.75 -.42 0-.75-.34-.75-.75V9c0-.42.33-.75.75-.75Z"/><path d="M18 2.25c.41 0 .75.33.75.75v2c0 .41-.34.75-.75.75 -.42 0-.75-.34-.75-.75V3c0-.42.33-.75.75-.75Z"/></g><g fill="#CFD8DC"><path d="M10 5.25c-3.46 0-6.25 2.79-6.25 6.25 0 .41-.34.75-.75.75 -.42 0-.75-.34-.75-.75 0-4.29 3.46-7.75 7.75-7.75 .41 0 .75.33.75.75 0 .41-.34.75-.75.75Z"/><path d="M8.11 1.35c.35-.22.81-.1 1.02.25l1.49 2.5c.14.23.14.53 0 .77l-1.5 2.5c-.22.35-.68.47-1.03.25 -.36-.22-.48-.68-.26-1.03l1.26-2.12 -1.27-2.12c-.22-.36-.1-.82.25-1.03Z"/><path d="M13 18.75c3.45 0 6.25-2.8 6.25-6.25 0-.42.33-.75.75-.75 .41 0 .75.33.75.75 0 4.28-3.47 7.75-7.75 7.75 -.42 0-.75-.34-.75-.75 0-.42.33-.75.75-.75Z"/><path d="M14.88 22.64c-.36.21-.82.09-1.029-.26l-1.5-2.5c-.15-.24-.15-.54 0-.78l1.5-2.5c.21-.36.67-.48 1.029-.26 .35.21.47.67.25 1.029l-1.27 2.11 1.26 2.11c.21.35.09.81-.26 1.029Z"/></g></g><path fill="#FFC44D" d="M3.5 14.25c-.4 0-.73.3-.75.69l-.5 7c-.02.2.05.41.19.56 .14.15.34.23.54.23h7c.2 0 .4-.09.54-.24 .14-.16.21-.36.19-.57l-.5-7c-.03-.4-.36-.7-.75-.7h-6Z"/></svg>