<svg viewBox="0 0 24 24" xmlns="http://www.w3.org/2000/svg"><g fill="#5D6874" fill-rule="evenodd"><path d="M12 1.25C6.06 1.25 1.25 6.06 1.25 12c0 5.93 4.81 10.75 10.75 10.75 5.93 0 10.75-4.82 10.75-10.75 0-5.94-4.82-10.75-10.75-10.75Z"/><path fill="#ECEFF1" d="M12 5.25c-3.73 0-6.75 3.02-6.75 6.75 0 3.72 3.02 6.75 6.75 6.75 3.72 0 6.75-3.03 6.75-6.75 0-3.73-3.03-6.75-6.75-6.75Z"/><path d="M9.25 10c0-.97.78-1.75 1.75-1.75h2c.96 0 1.75.78 1.75 1.75v4.34c0 .96-.79 1.75-1.75 1.75h-2c-.97 0-1.75-.79-1.75-1.75V9.99ZM11 9.75c-.14 0-.25.11-.25.25v1.25h2.5V10c0-.14-.12-.25-.25-.25h-2Zm2.25 3h-2.5v1.59c0 .13.11.25.25.25h2c.13 0 .25-.12.25-.25v-1.6Z"/></g></svg>