<svg viewBox="0 0 24 24" xmlns="http://www.w3.org/2000/svg"><g fill="#DFDFDF" fill-rule="evenodd"><path d="M3 1.25c-.42 0-.75.33-.75.75v17.5c0 .17.05.33.16.46l2 2.5c.14.17.35.28.58.28h15c.41 0 .75-.34.75-.75v-18c0-.26-.13-.49-.34-.63l-3-2c-.13-.09-.27-.13-.42-.13h-14Z"/><path fill="#5E94FF" d="M3 1.25c-.42 0-.75.33-.75.75v17.5c0 .41.33.75.75.75h14c.41 0 .75-.34.75-.75V2c0-.42-.34-.75-.75-.75H3Z"/><path fill="#ECEFF1" d="M6 4.25c-.42 0-.75.33-.75.75v3c0 .41.33.75.75.75h8c.41 0 .75-.34.75-.75V5c0-.42-.34-.75-.75-.75H6Z"/></g></svg>