<svg viewBox="0 0 24 24" xmlns="http://www.w3.org/2000/svg"><g fill="#8B98A6"><path d="M4.5 18.75c-.42 0-.75.33-.75.75V22c0 .41.33.75.75.75H8c.41 0 .75-.34.75-.75v-2.5c0-.42-.34-.75-.75-.75H4.5Z"/><path d="M9 18.75c-.29 0-.56.16-.68.42 -.13.25-.09.56.09.79l2 2.5c.14.17.35.28.58.28h8.5c.41 0 .75-.34.75-.75v-2.5c0-.42-.34-.75-.75-.75H8.99Z"/></g><path fill="#FFC44D" d="M4.5 1.25c-.42 0-.75.33-.75.75v17.5c0 .41.33.75.75.75h15c.41 0 .75-.34.75-.75v-1.84c0-1.89-1.53-3.42-3.42-3.42 -2.54 0-4.59-2.06-4.59-4.59V1.98c0-.42-.34-.75-.75-.75h-7Z"/></svg>