<svg viewBox="0 0 24 24" xmlns="http://www.w3.org/2000/svg"><path fill="#FFD071" d="M12.2 13.96c-.55-.83-1.65-1.08-2.5-.58l-5.09 2.96c-.24.13-.38.38-.38.64v4.5c0 .41.33.75.75.75h11c.17 0 .34-.07.48-.18l4.76-3.98c.99-.84 1.06-2.35.14-3.27 -.76-.76-1.96-.87-2.84-.25l-3.81 2.66h-3.37l.8-1.22c.41-.63.41-1.45 0-2.08Z"/><path fill="#5E94FF" d="M2 14.75c-.42 0-.75.33-.75.75V22c0 .41.33.75.75.75h3c.41 0 .75-.34.75-.75v-6.5c0-.42-.34-.75-.75-.75H2Z"/><g fill="#FFC44D" fill-rule="evenodd"><path d="M9.75 5.37c0-.9.72-1.63 1.62-1.63h3.12c.41 0 .75.33.75.75 0 .41-.34.75-.75.75h-3.13c-.07 0-.13.05-.13.12 0 .05.03.09.08.11l1.8.6c.66.22 1.1.84 1.1 1.53 0 .89-.73 1.62-1.63 1.62H9.45c-.42 0-.75-.34-.75-.75 0-.42.33-.75.75-.75h3.12c.06 0 .12-.06.12-.13 0-.06-.04-.1-.09-.12l-1.81-.61c-.67-.23-1.11-.85-1.11-1.54Z"/><path d="M12 7.75c.41 0 .75.33.75.75v2c0 .41-.34.75-.75.75 -.42 0-.75-.34-.75-.75v-2c0-.42.33-.75.75-.75Z"/><path d="M12 1.75c.41 0 .75.33.75.75v2c0 .41-.34.75-.75.75 -.42 0-.75-.34-.75-.75v-2c0-.42.33-.75.75-.75Z"/></g></svg>