<svg viewBox="0 0 24 24" xmlns="http://www.w3.org/2000/svg"><g fill="#5D6874" fill-rule="evenodd"><path d="M6.75 6.5c0-1.52 1.23-2.75 2.75-2.75h5c1.51 0 2.75 1.23 2.75 2.75V8c0 .41-.34.75-.75.75h-9c-.42 0-.75-.34-.75-.75V6.5ZM9.5 5.25c-.7 0-1.25.55-1.25 1.25v.75h7.5V6.5c0-.7-.56-1.25-1.25-1.25h-5Z"/><path d="M4 10.25c-1.52 0-2.75 1.23-2.75 2.75v1c0 1.51 1.23 2.75 2.75 2.75h.5c.41 0 .75-.34.75-.75v-5c0-.42-.34-.75-.75-.75H4Z"/><path d="M19.5 10.25c-.42 0-.75.33-.75.75v5c0 .41.33.75.75.75h.5c1.51 0 2.75-1.24 2.75-2.75v-1c0-1.52-1.24-2.75-2.75-2.75h-.5Z"/><path fill="#FFC44D" d="M5.5 7.25c-.97 0-1.75.78-1.75 1.75v10c0 .96.78 1.75 1.75 1.75h13c.96 0 1.75-.79 1.75-1.75V9c0-.97-.79-1.75-1.75-1.75h-13Z"/><path fill="#FF884D" d="M5.41 7.25c-.99 0-1.59 1.08-1.06 1.92l1.93 3.04c.8 1.26 2.2 2.03 3.7 2.03h4c1.5 0 2.9-.77 3.7-2.04l1.93-3.05c.52-.84-.07-1.93-1.06-1.93H5.37Z"/><path fill="#FFD071" d="M10 10.25c-.42 0-.75.33-.75.75v5c0 .41.33.75.75.75h4c.41 0 .75-.34.75-.75v-5c0-.42-.34-.75-.75-.75h-4Z"/></g></svg>