<svg viewBox="0 0 24 24" xmlns="http://www.w3.org/2000/svg"><g fill="#5D6874" fill-rule="evenodd"><path d="M4 3.75c-1.52 0-2.75 1.23-2.75 2.75V18c0 1.51 1.23 2.75 2.75 2.75h11.5c1.51 0 2.75-1.24 2.75-2.75v-.85l3.44 1.53c.23.1.5.08.71-.06 .21-.14.34-.375.34-.63V6.49c0-.26-.13-.5-.35-.63 -.22-.14-.49-.16-.72-.06l-3.45 1.53v-.85c0-1.52-1.24-2.75-2.75-2.75H3.97Z"/><path fill="#FFC44D" d="M7 6.75c-.37 0-.68.25-.74.61l-1 5.49c-.04.21.01.44.16.61 .14.17.35.26.57.26h2.25v3.25c0 .31.19.59.49.7 .29.1.62.01.83-.23l5-6c.18-.23.22-.54.1-.8 -.13-.27-.39-.44-.68-.44h-2.01l.72-2.55c.06-.23.01-.47-.13-.66 -.15-.19-.37-.3-.6-.3h-5Z"/></g></svg>