<svg viewBox="0 0 24 24" xmlns="http://www.w3.org/2000/svg"><g fill="#5E94FF" fill-rule="evenodd"><path d="M10.23 3.25c-1.05 0-2 .58-2.46 1.52l-.4.78c-.22.42-.65.69-1.12.69H4.98c-1.52 0-2.75 1.23-2.75 2.75v9c0 1.51 1.23 2.75 2.75 2.75h14c1.51 0 2.75-1.24 2.75-2.75v-9c0-1.52-1.24-2.75-2.75-2.75h-1.27c-.48 0-.91-.27-1.12-.7l-.4-.79c-.47-.94-1.42-1.53-2.46-1.53H10.2Z"/><g fill="#ECEFF1"><path d="M12 6.25c-1.52 0-2.75 1.23-2.75 2.75v3c0 1.51 1.23 2.75 2.75 2.75 1.51 0 2.75-1.24 2.75-2.75V9c0-1.52-1.24-2.75-2.75-2.75Z"/><path d="M7 10.75c.41 0 .75.33.75.75v.5c0 2.34 1.9 4.25 4.25 4.25 2.34 0 4.25-1.91 4.25-4.25v-.5c0-.42.33-.75.75-.75 .41 0 .75.33.75.75v.5c0 3.17-2.58 5.75-5.75 5.75 -3.18 0-5.75-2.58-5.75-5.75v-.5c0-.42.33-.75.75-.75Z"/><path d="M12.75 16.25v4.5h-1.5v-4.5h1.5Z"/></g></g></svg>