<svg viewBox="0 0 24 24" xmlns="http://www.w3.org/2000/svg"><g fill="#FF884D" fill-rule="evenodd"><path d="M4 4.25c-.42 0-.75.33-.75.75v14c0 .7.38 1.28.88 1.72 .49.44 1.17.8 1.94 1.09 1.55.58 3.64.92 5.92.92 2.27 0 4.36-.35 5.92-.93 .77-.29 1.45-.66 1.94-1.1 .49-.45.88-1.03.88-1.73v-14c0-.42-.34-.75-.75-.75h-16Z"/><path fill="#5D6874" d="M12 1.25c-2.28 0-4.37.34-5.93.92 -.78.28-1.46.65-1.95 1.09 -.5.44-.89 1.02-.89 1.72s.38 1.28.88 1.72c.49.44 1.17.8 1.94 1.09 1.55.58 3.64.92 5.92.92 2.27 0 4.36-.35 5.92-.93 .77-.29 1.45-.66 1.94-1.1 .49-.45.88-1.03.88-1.73 0-.71-.39-1.29-.89-1.73 -.5-.45-1.18-.81-1.95-1.1 -1.56-.59-3.65-.93-5.93-.93Z"/><path fill="#F9F9F9" d="M13.01 10.75c-.92 0-1.75.56-2.09 1.41l-.15.36c-.23.57-.69 1.02-1.26 1.25l-.37.14c-.86.34-1.42 1.16-1.42 2.08v.18c0 1.4 1.27 2.46 2.65 2.21l1.68-.31c1.53-.28 2.73-1.49 3.01-3.02l.3-1.69c.25-1.39-.81-2.66-2.22-2.66h-.19Z"/></g></svg>