<svg viewBox="0 0 24 24" xmlns="http://www.w3.org/2000/svg"><g fill="#8B98A6" fill-rule="evenodd"><path d="M12 1.25c.41 0 .75.33.75.75v2c0 .41-.34.75-.75.75 -.42 0-.75-.34-.75-.75V2c0-.42.33-.75.75-.75Zm0 14c.41 0 .75.33.75.75v6c0 .41-.34.75-.75.75 -.42 0-.75-.34-.75-.75v-6c0-.42.33-.75.75-.75Z"/><path d="M9.41 15.37c.34.22.43.69.2 1.04l-4 6c-.23.34-.7.43-1.05.2 -.35-.23-.44-.7-.21-1.04l4-6c.22-.35.69-.44 1.04-.21Z"/><path d="M15.084 15.37c-.35.22-.44.69-.21 1.04l4 6c.22.34.69.43 1.04.2 .34-.23.43-.7.2-1.04l-4-6c-.23-.35-.7-.44-1.04-.21Z"/><path fill="#ECEFF1" d="M3 3.25c-.42 0-.75.33-.75.75v12c0 .41.33.75.75.75h18c.41 0 .75-.34.75-.75V4c0-.42-.34-.75-.75-.75H3Z"/><path fill="#5D6874" d="M2.25 4c0-.42.33-.75.75-.75h18c.41 0 .75.33.75.75v12c0 .41-.34.75-.75.75H3c-.42 0-.75-.34-.75-.75V4Zm1.5.75v10.5h16.5V4.75H3.75Z"/><path fill="#5E94FF" d="M17.39 6.36c.35.21.45.68.23 1.03l-.875 1.39c-1.13 1.8-3.43 2.49-5.37 1.61l-.15-.07c-1.18-.54-2.57-.18-3.34.85l-1.32 1.74c-.25.33-.72.39-1.05.15 -.34-.25-.4-.72-.15-1.05l1.31-1.75c1.19-1.6 3.34-2.15 5.15-1.32l.14.06c1.25.57 2.73.12 3.46-1.05l.875-1.4c.21-.36.68-.46 1.03-.24Z"/></g></svg>