<svg viewBox="0 0 24 24" xmlns="http://www.w3.org/2000/svg"><g fill="#5D6874" fill-rule="evenodd"><path d="M3.25 4c0-1.52 1.23-2.75 2.75-2.75h14c.41 0 .75.33.75.75 0 .41-.34.75-.75.75H6c-.7 0-1.25.55-1.25 1.25v1c0 .41-.34.75-.75.75 -.42 0-.75-.34-.75-.75V4Z"/><path fill="#FF884D" d="M4 4.25c-.42 0-.75.33-.75.75v17c0 .41.33.75.75.75h16c.41 0 .75-.34.75-.75V5c0-.42-.34-.75-.75-.75H4Z"/><path fill="#F9F9F9" d="M12.64 20.38c-.14.22-.39.36-.65.36 -.27 0-.52-.15-.65-.37l-1-1.69 -2.06.56c-.27.07-.56-.01-.75-.21 -.2-.21-.26-.5-.17-.76l.58-1.75 -1.81-.88c-.26-.13-.43-.39-.43-.68 0-.29.16-.55.42-.68l1.8-.88 -.59-1.75c-.09-.27-.03-.56.16-.76 .19-.21.47-.29.74-.21l2.05.56 .99-1.69c.13-.23.38-.37.64-.37s.51.14.64.36l.99 1.68 2.05-.57c.26-.08.55 0 .74.2 .19.2.25.49.16.75l-.59 1.74 1.8.87c.25.12.42.38.42.67 0 .28-.17.54-.43.67l-1.81.87 .58 1.74c.08.26.02.55-.17.75 -.2.2-.48.28-.75.2l-2.06-.57 -1 1.68Z"/><path fill="#ECEFF1" d="M5.75 7.5c0 .41.33.75.75.75h11c.41 0 .75-.34.75-.75 0-.42-.34-.75-.75-.75h-11c-.42 0-.75.33-.75.75Z"/></g></svg>