<svg viewBox="0 0 24 24" xmlns="http://www.w3.org/2000/svg"><g fill="#8B98A6" fill-rule="evenodd"><path d="M12 2.75c.41 0 .75.33.75.75v3c0 .41-.34.75-.75.75 -.42 0-.75-.34-.75-.75v-3c0-.42.33-.75.75-.75Z"/><path fill="#5E94FF" d="M6 5.75c-2.63 0-4.75 2.12-4.75 4.75v7c0 2.07 1.67 3.75 3.75 3.75h.33c1.29 0 2.49-.67 3.17-1.77l1.03-1.65c.22-.37.62-.59 1.06-.59h2.39c.39 0 .76.18 1 .5l1.5 2c.7.94 1.81 1.5 3 1.5h.5c2.07 0 3.75-1.68 3.75-3.75v-7c0-2.63-2.13-4.75-4.75-4.75h-12Z"/><g fill="#F9F9F9"><path d="M3.75 12.5c0-.42.33-.75.75-.75h5c.41 0 .75.33.75.75 0 .41-.34.75-.75.75h-5c-.42 0-.75-.34-.75-.75Z"/><path d="M7 15.75c-.42 0-.75-.34-.75-.75v-5c0-.42.33-.75.75-.75 .41 0 .75.33.75.75v5c0 .41-.34.75-.75.75Z"/><path d="M14.75 14c0-.42.33-.75.75-.75h2c.41 0 .75.33.75.75 0 .41-.34.75-.75.75h-2c-.42 0-.75-.34-.75-.75Z"/><path d="M16.75 11c0-.42.33-.75.75-.75h2c.41 0 .75.33.75.75 0 .41-.34.75-.75.75h-2c-.42 0-.75-.34-.75-.75Z"/></g></g></svg>