<svg viewBox="0 0 24 24" xmlns="http://www.w3.org/2000/svg"><path fill="#5E94FF" d="M5 4.25C3.48 4.25 2.25 5.48 2.25 7v9c0 1.51 1.23 2.75 2.75 2.75h14c1.51 0 2.75-1.24 2.75-2.75V7c0-1.52-1.24-2.75-2.75-2.75H5Z"/><g fill="#ECEFF1" fill-rule="evenodd"><path d="M4.75 14.5c0-.42.33-.75.75-.75H8c.41 0 .75.33.75.75 0 .41-.34.75-.75.75H5.5c-.42 0-.75-.34-.75-.75Z"/><path d="M10.25 14.5c0-.42.33-.75.75-.75h2c.41 0 .75.33.75.75 0 .41-.34.75-.75.75h-2c-.42 0-.75-.34-.75-.75Z"/><path d="M15.25 14.5c0-.42.33-.75.75-.75h2.5c.41 0 .75.33.75.75 0 .41-.34.75-.75.75H16c-.42 0-.75-.34-.75-.75Z"/></g><path fill="#ECEFF1" d="M5.5 7.25c-.42 0-.75.33-.75.75v3c0 .41.33.75.75.75h4c.41 0 .75-.34.75-.75V8c0-.42-.34-.75-.75-.75h-4Z"/></svg>