<svg viewBox="0 0 24 24" xmlns="http://www.w3.org/2000/svg"><g fill="#EE4D4D" fill-rule="evenodd"><path d="M5 4.25c-.42 0-.75.33-.75.75 0 1.24-1.01 2.25-2.25 2.25 -.42 0-.75.33-.75.75v8c0 .41.33.75.75.75 1.24 0 2.25 1 2.25 2.25 0 .41.33.75.75.75h14c.41 0 .75-.34.75-.75 0-1.25 1-2.25 2.25-2.25 .41 0 .75-.34.75-.75V8c0-.42-.34-.75-.75-.75 -1.25 0-2.25-1.01-2.25-2.25 0-.42-.34-.75-.75-.75H5Z"/><g fill="#F9F9F9"><path d="M10 8.25c-.42 0-.75.33-.75.75 0 .41.33.75.75.75 .41 0 .75-.34.75-.75 0-.42-.34-.75-.75-.75ZM7.75 9c0-1.25 1-2.25 2.25-2.25 1.24 0 2.25 1 2.25 2.25 0 1.24-1.01 2.25-2.25 2.25 -1.25 0-2.25-1.01-2.25-2.25Z"/><path d="M14.5 13.75c-.42 0-.75.33-.75.75 0 .41.33.75.75.75 .41 0 .75-.34.75-.75 0-.42-.34-.75-.75-.75Zm-2.25.75c0-1.25 1-2.25 2.25-2.25 1.24 0 2.25 1 2.25 2.25 0 1.24-1.01 2.25-2.25 2.25 -1.25 0-2.25-1.01-2.25-2.25Z"/><path d="M16.03 7.96c.29.29.29.76 0 1.06l-7 6.99c-.3.29-.77.29-1.07 0 -.3-.3-.3-.77 0-1.07l7-7.01c.29-.3.76-.3 1.06 0Z"/></g></g></svg>