<svg viewBox="0 0 24 24" xmlns="http://www.w3.org/2000/svg"><g fill="#FFC44D" fill-rule="evenodd"><path d="M12 1.25C6.06 1.25 1.25 6.06 1.25 12c0 5.93 4.81 10.75 10.75 10.75 5.93 0 10.75-4.82 10.75-10.75 0-5.94-4.82-10.75-10.75-10.75Z"/><g fill="#F9F9F9"><path d="M9.02 9.55c0-1.52 1.23-2.75 2.75-2.75h.44c1.51 0 2.75 1.23 2.75 2.75v.22c0 .41-.34.75-.75.75 -.42 0-.75-.34-.75-.76v-.23c0-.7-.56-1.25-1.25-1.25h-.45c-.7 0-1.25.55-1.25 1.25v.09c0 .47.26.9.69 1.11l2.23 1.11c.93.46 1.52 1.41 1.52 2.45v.09c0 1.51-1.24 2.75-2.75 2.75h-.45c-1.52 0-2.76-1.24-2.76-2.75v-.23c0-.42.33-.75.75-.75 .41 0 .75.33.75.75v.22c0 .69.55 1.25 1.25 1.25h.44c.69 0 1.25-.56 1.25-1.25v-.1c0-.48-.27-.91-.7-1.12l-2.24-1.12c-.94-.47-1.53-1.42-1.53-2.46v-.1Z"/><path d="M12 4.58c.41 0 .75.33.75.75v2.22c0 .41-.34.75-.75.75 -.42 0-.75-.34-.75-.75V5.32c0-.42.33-.75.75-.75Z"/><path d="M12 15.69c.41 0 .75.33.75.75v2.22c0 .41-.34.75-.75.75 -.42 0-.75-.34-.75-.75v-2.23c0-.42.33-.75.75-.75Z"/></g></g></svg>