<svg viewBox="0 0 24 24" xmlns="http://www.w3.org/2000/svg"><g fill="#ECEFF1" fill-rule="evenodd"><path d="M6 1.25C4.48 1.25 3.25 2.48 3.25 4v18c0 .25.12.48.33.62 .21.13.47.16.71.05l3.69-1.62 3.69 1.61c.19.08.4.08.6 0l3.69-1.62 3.69 1.61c.23.1.49.07.71-.06 .21-.14.33-.38.33-.63v-18c0-1.52-1.24-2.75-2.75-2.75h-12Z"/><g fill="#8B98A6"><path d="M5.75 11c0-.42.33-.75.75-.75H13c.41 0 .75.33.75.75 0 .41-.34.75-.75.75H6.5c-.42 0-.75-.34-.75-.75Z"/><path d="M5.75 15c0-.42.33-.75.75-.75H13c.41 0 .75.33.75.75 0 .41-.34.75-.75.75H6.5c-.42 0-.75-.34-.75-.75Z"/><path d="M14.75 11c0-.42.33-.75.75-.75h2c.41 0 .75.33.75.75 0 .41-.34.75-.75.75h-2c-.42 0-.75-.34-.75-.75Z"/><path d="M14.75 15c0-.42.33-.75.75-.75h2c.41 0 .75.33.75.75 0 .41-.34.75-.75.75h-2c-.42 0-.75-.34-.75-.75Z"/><path d="M5.75 7c0-.42.33-.75.75-.75H13c.41 0 .75.33.75.75 0 .41-.34.75-.75.75H6.5c-.42 0-.75-.34-.75-.75Z"/><path d="M14.75 7c0-.42.33-.75.75-.75h2c.41 0 .75.33.75.75 0 .41-.34.75-.75.75h-2c-.42 0-.75-.34-.75-.75Z"/></g></g></svg>