<svg viewBox="0 0 24 24" xmlns="http://www.w3.org/2000/svg"><g fill="#FFC44D" fill-rule="evenodd"><path d="M12 1.25C6.06 1.25 1.25 6.06 1.25 12c0 5.93 4.81 10.75 10.75 10.75 5.93 0 10.75-4.82 10.75-10.75 0-5.94-4.82-10.75-10.75-10.75Z"/><g fill="#5D6874"><path d="M11.22 6.63c-.7 0-1.25.55-1.25 1.25v1.33c0 .41-.34.75-.75.75 -.42 0-.75-.34-.75-.75V7.87c0-1.52 1.23-2.75 2.74-2.75h1.55c1.51 0 2.75 1.23 2.75 2.75v1.61c0 .72-.29 1.42-.81 1.94l-1.61 1.6c-.24.23-.37.55-.37.88v1.94c0 .41-.34.75-.75.75 -.42 0-.75-.34-.75-.75v-1.95c0-.73.28-1.43.8-1.95l1.6-1.61c.23-.24.36-.56.36-.89V7.82c0-.7-.56-1.25-1.25-1.25h-1.56Z"/><path d="M12 17.25c.41 0 .75.33.75.75v1.22c0 .41-.34.75-.75.75 -.42 0-.75-.34-.75-.75v-1.23c0-.42.33-.75.75-.75Z"/></g></g></svg>