<svg viewBox="0 0 24 24" xmlns="http://www.w3.org/2000/svg"><g fill="#5D6874" fill-rule="evenodd"><path d="M4 4.25c-.42 0-.75.33-.75.75v17c0 .41.33.75.75.75h16c.41 0 .75-.34.75-.75V5c0-.42-.34-.75-.75-.75H4Z"/><path d="M3.25 4c0-1.52 1.23-2.75 2.75-2.75h14c.41 0 .75.33.75.75 0 .41-.34.75-.75.75H6c-.7 0-1.25.55-1.25 1.25v1c0 .41-.34.75-.75.75 -.42 0-.75-.34-.75-.75V4Z"/><path fill="#FFC44D" d="M7.61 9.56c-.19-.27-.53-.38-.84-.28 -.32.09-.53.38-.53.71v7c0 .41.33.75.75.75h10c.41 0 .75-.34.75-.75v-7c0-.33-.22-.62-.53-.72 -.32-.1-.65.01-.84.27l-1.89 2.64 -1.89-2.65c-.15-.2-.37-.32-.62-.32s-.47.11-.62.31l-1.89 2.64 -1.89-2.65Z"/></g></svg>