<svg viewBox="0 0 24 24" xmlns="http://www.w3.org/2000/svg"><g fill="#A2ADB8" fill-rule="evenodd"><path d="M9 15.43c-.04 0-.07 0-.1 0 -1.51.19-2.84.52-3.82.96 -.49.22-.93.48-1.25.81 -.33.32-.6.75-.6 1.28 0 .69.44 1.21.93 1.57 .49.36 1.17.66 1.93.9 1.53.48 3.61.76 5.88.76 2.26 0 4.34-.29 5.88-.77 .76-.24 1.43-.54 1.93-.91 .48-.36.93-.89.93-1.58 0-.53-.27-.97-.6-1.29 -.33-.33-.77-.59-1.25-.82 -.98-.45-2.31-.78-3.82-.97 -.04-.01-.07-.01-.1-.01h-.5 -5 -.5Z"/><path fill="#EE4D4D" d="M12 2.25c-1.83 0-3.52.6-4.77 1.8 -1.26 1.2-1.99 2.94-1.99 5.1 0 1.59.82 3.35 1.77 4.88 .97 1.56 2.16 3.01 3.06 4.02 1.02 1.15 2.78 1.15 3.8 0 .89-1.02 2.09-2.47 3.06-4.03 .95-1.54 1.77-3.3 1.77-4.89 0-2.16-.74-3.9-1.99-5.11 -1.25-1.2-2.95-1.81-4.77-1.81Z"/><path fill="#ECEFF1" d="M12 5.25c-1.52 0-2.75 1.23-2.75 2.75 0 1.51 1.23 2.75 2.75 2.75 1.51 0 2.75-1.24 2.75-2.75 0-1.52-1.24-2.75-2.75-2.75Z"/></g></svg>