<svg viewBox="0 0 24 24" xmlns="http://www.w3.org/2000/svg"><g fill="#8BC94D" fill-rule="evenodd"><path d="M1.75 12c0-.42.33-.75.75-.75h12c.41 0 .75.33.75.75 0 .41-.34.75-.75.75h-12c-.42 0-.75-.34-.75-.75Z"/><path d="M10.46 7.96c.29-.3.76-.3 1.06 0l3.5 3.5c.29.29.29.76 0 1.06l-3.5 3.5c-.3.29-.77.29-1.07 0 -.3-.3-.3-.77 0-1.07l2.96-2.97 -2.97-2.97c-.3-.3-.3-.77 0-1.07Z"/><path fill="#8B98A6" d="M13.5 4.75c-2.82 0-5.26 1.6-6.46 3.95 -.19.36-.65.51-1.01.32 -.37-.19-.52-.65-.33-1.01 1.44-2.83 4.39-4.77 7.79-4.77 4.83 0 8.75 3.91 8.75 8.75 0 4.83-3.92 8.75-8.75 8.75 -3.4 0-6.35-1.94-7.8-4.77 -.19-.37-.05-.83.32-1.01 .36-.19.82-.05 1 .32 1.2 2.34 3.64 3.95 6.45 3.95 4 0 7.25-3.25 7.25-7.25 0-4.01-3.25-7.25-7.25-7.25Z"/></g></svg>