<svg viewBox="0 0 24 24" xmlns="http://www.w3.org/2000/svg"><g fill="#8B98A6" fill-rule="evenodd"><path d="M11.5 1.25c-.36 0-.66.24-.74.59l-1.51 7c-.05.22 0 .45.15.62 .14.17.35.27.58.27h4c.22 0 .44-.11.58-.28 .14-.18.19-.41.15-.63l-1.5-7c-.08-.35-.38-.6-.74-.6h-1Z"/><path fill="#5D6874" d="M9 8.25c-.42 0-.75.33-.75.75v3c0 .41.33.75.75.75h6c.41 0 .75-.34.75-.75V9c0-.42-.34-.75-.75-.75H9Z"/><path fill="#FFC44D" d="M9 11.25c-1.52 0-2.75 1.23-2.75 2.75v6c0 1.51 1.23 2.75 2.75 2.75h6c1.51 0 2.75-1.24 2.75-2.75v-6c0-1.52-1.24-2.75-2.75-2.75H9Z"/><path fill="#F9F9F9" d="M12 15l.63-.4c-.14-.23-.38-.36-.64-.36s-.51.13-.64.35l.63.39Zm0 0c.63-.4.63-.4.63-.4l0 0 0 0 0 0 0 0 .01.02c.01.01.02.04.05.08 .04.07.1.17.17.29 .14.24.33.58.53.96 .19.37.39.78.54 1.17 .14.36.28.8.28 1.18 0 1.25-.94 2.41-2.25 2.41 -1.32 0-2.25-1.16-2.25-2.42 0-.39.14-.83.28-1.19 .15-.39.35-.81.54-1.18 .19-.38.38-.72.53-.97 .07-.13.13-.23.17-.3 .02-.04.03-.07.05-.09l.01-.03 0-.01 0-.01 0-.01 0-.01c0-.01 0-.01.63.39Z"/></g></svg>