<svg viewBox="0 0 24 24" xmlns="http://www.w3.org/2000/svg"><g fill="#EE4D4D" fill-rule="evenodd"><path d="M12 2.25c-2.1 0-4.04.67-5.47 1.99 -1.44 1.33-2.29 3.27-2.29 5.68 0 1.84 1.02 3.89 2.2 5.66 1.19 1.8 2.64 3.47 3.67 4.56 1.02 1.09 2.72 1.09 3.74 0 1.02-1.1 2.47-2.77 3.676-4.57 1.17-1.78 2.2-3.824 2.2-5.67 0-2.42-.86-4.35-2.29-5.69 -1.43-1.33-3.37-2-5.46-2Z"/><path fill="#ECEFF1" d="M12 5.25C9.92 5.25 8.25 6.92 8.25 9c0 2.07 1.67 3.75 3.75 3.75 2.07 0 3.75-1.68 3.75-3.75 0-2.08-1.68-3.75-3.75-3.75Z"/></g></svg>