<svg viewBox="0 0 24 24" xmlns="http://www.w3.org/2000/svg"><g fill="#8B98A6" fill-rule="evenodd"><path d="M13 3.75c-1.52 0-2.75 1.23-2.75 2.75V7c0 .41-.34.75-.75.75 -.42 0-.75-.34-.75-.75v-.5c0-2.35 1.9-4.25 4.25-4.25h3c2.34 0 4.25 1.9 4.25 4.25V21c0 .41-.34.75-.75.75 -.42 0-.75-.34-.75-.75V6.5c0-1.52-1.24-2.75-2.75-2.75h-3Z"/><path fill="#5E94FF" d="M9.5 6.25c-3.18 0-5.75 2.57-5.75 5.75v4c0 3.17 2.57 5.75 5.75 5.75 3.17 0 5.75-2.58 5.75-5.75v-4c0-3.18-2.58-5.75-5.75-5.75Z"/><path fill="#ECEFF1" d="M9.5 8.75c.41 0 .75.33.75.75v2.84c0 .41-.34.75-.75.75 -.42 0-.75-.34-.75-.75V9.49c0-.42.33-.75.75-.75Z"/></g></svg>