<svg viewBox="0 0 24 24" xmlns="http://www.w3.org/2000/svg"><path fill="#EE4D4D" d="M12 2.25c-2.1 0-4.04.67-5.47 1.99 -1.44 1.33-2.29 3.27-2.29 5.68 0 1.84 1.02 3.89 2.2 5.66 1.19 1.8 2.64 3.47 3.67 4.56 1.02 1.09 2.72 1.09 3.74 0 1.02-1.1 2.47-2.77 3.676-4.57 1.17-1.78 2.2-3.824 2.2-5.67 0-2.42-.86-4.35-2.29-5.69 -1.43-1.33-3.37-2-5.46-2Z"/><g fill="#ECEFF1" fill-rule="evenodd"><path d="M11.584 5.37c.25-.17.58-.17.83 0l3 2c.2.13.33.37.33.62v3.5c0 .25-.13.48-.34.62l-3 2c-.26.16-.59.16-.84 0l-3.01-2c-.21-.14-.34-.38-.34-.63v-3.5c0-.26.12-.49.33-.63l3-2Zm-1.84 3.02v2.69l2.25 1.5 2.25-1.5v-2.7l-2.25-1.5 -2.25 1.5Z"/><path d="M8.37 7.58c.22-.35.69-.44 1.04-.21l2.58 1.72 2.58-1.73c.34-.23.81-.14 1.04.2 .22.34.13.81-.21 1.04l-2.67 1.77v3.09c0 .41-.34.75-.75.75 -.42 0-.75-.34-.75-.75v-3.1L8.56 8.58c-.35-.23-.44-.7-.21-1.05Z"/></g></svg>