<svg viewBox="0 0 24 24" xmlns="http://www.w3.org/2000/svg"><path fill="#FFC44D" d="M2 5.25c-.42 0-.75.33-.75.75v16c0 .41.33.75.75.75h20c.41 0 .75-.34.75-.75V6c0-.42-.34-.75-.75-.75H2Z"/><path fill="#FF884D" d="M3.5 1.25c-.32 0-.6.19-.71.48l-1.5 4c-.09.23-.06.48.08.69 .14.2.37.32.61.32h20c.24 0 .47-.13.61-.33 .14-.21.17-.47.08-.7l-1.5-4c-.11-.3-.39-.49-.71-.49h-17Z"/><path fill="#ECEFF1" d="M12 7.25c-3.73 0-6.75 3.02-6.75 6.75 0 3.72 3.02 6.75 6.75 6.75 3.72 0 6.75-3.03 6.75-6.75 0-3.73-3.03-6.75-6.75-6.75Z"/><g fill="#FFC44D" fill-rule="evenodd"><path d="M9.75 12.66c0-1.06.85-1.92 1.91-1.92h2.83c.41 0 .75.33.75.75 0 .41-.34.75-.75.75h-2.84c-.23 0-.42.18-.42.41 0 .17.11.33.28.39l1.41.47c.78.26 1.3.99 1.3 1.81 0 1.05-.86 1.91-1.92 1.91H9.46c-.42 0-.75-.34-.75-.75 0-.42.33-.75.75-.75h2.83c.22 0 .41-.19.41-.42 0-.18-.12-.34-.29-.4l-1.42-.48c-.79-.27-1.31-1-1.31-1.82Z"/><path d="M12 15.75c.41 0 .75.33.75.75v2c0 .41-.34.75-.75.75 -.42 0-.75-.34-.75-.75v-2c0-.42.33-.75.75-.75Z"/><path d="M12 8.75c.41 0 .75.33.75.75v2c0 .41-.34.75-.75.75 -.42 0-.75-.34-.75-.75v-2c0-.42.33-.75.75-.75Z"/></g></svg>