<svg viewBox="0 0 24 24" xmlns="http://www.w3.org/2000/svg"><g fill="#FFC44D" fill-rule="evenodd"><path d="M2 5.25c-.42 0-.75.33-.75.75v16c0 .41.33.75.75.75h20c.41 0 .75-.34.75-.75V6c0-.42-.34-.75-.75-.75H2Z"/><path fill="#FFD071" d="M3.5 1.25c-.32 0-.6.19-.71.48l-1.5 4c-.09.23-.06.48.08.69 .14.2.37.32.61.32h20c.24 0 .47-.13.61-.33 .14-.21.17-.47.08-.7l-1.5-4c-.11-.3-.39-.49-.71-.49h-17Z"/><path fill="#F9F9F9" d="M12 7.75c-3.46 0-6.25 2.79-6.25 6.25 0 3.45 2.79 6.25 6.25 6.25 3.45 0 6.25-2.8 6.25-6.25 0-3.46-2.8-6.25-6.25-6.25Z"/><path fill="#8B98A6" d="M11.5 10.75c.41 0 .75.33.75.75v2.75h2.25c.41 0 .75.33.75.75 0 .41-.34.75-.75.75h-3c-.42 0-.75-.34-.75-.75v-3.5c0-.42.33-.75.75-.75Z"/></g></svg>