<svg viewBox="0 0 24 24" xmlns="http://www.w3.org/2000/svg"><path fill="#5D6874" fill-rule="evenodd" d="M2.75 4c0-1.52 1.23-2.75 2.75-2.75 1.51 0 2.75 1.23 2.75 2.75v1c0 .41-.34.75-.75.75h-4c-.42 0-.75-.34-.75-.75V4ZM5.5 2.75c-.7 0-1.25.55-1.25 1.25v.25h2.5V4c0-.7-.56-1.25-1.25-1.25Z"/><g fill="#FFC44D"><path d="M2.5 4.25c-.4 0-.73.3-.75.69l-.5 7c-.02.2.05.41.19.56 .14.15.34.23.54.23h7c.2 0 .4-.09.54-.24 .14-.16.21-.36.19-.57l-.5-7.01c-.03-.4-.36-.7-.75-.7h-6Z"/><path d="M13 12.25c-.42 0-.75.33-.75.75v9c0 .41.33.75.75.75h9c.41 0 .75-.34.75-.75v-9c0-.42-.34-.75-.75-.75h-9Z"/></g><path fill="#ECEFF1" d="M15.5 12.25c-.42 0-.75.33-.75.75v4c0 .25.13.5.35.63 .22.13.49.14.72.03l1.66-.84 1.66.83c.23.11.5.1.72-.04 .22-.14.35-.38.35-.64v-4c0-.42-.34-.75-.75-.75h-4Z"/><g fill="#CFD8DC" fill-rule="evenodd"><path d="M17.25 10c0-3.46-2.8-6.25-6.25-6.25 -.42 0-.75-.34-.75-.75 0-.42.33-.75.75-.75 4.28 0 7.75 3.46 7.75 7.75 0 .41-.34.75-.75.75 -.42 0-.75-.34-.75-.75Z"/><path d="M21.14 8.11c.21.35.09.81-.26 1.02l-2.5 1.49c-.24.14-.54.14-.78 0l-2.5-1.5c-.36-.22-.48-.68-.26-1.03 .21-.36.67-.48 1.029-.26l2.11 1.26 2.11-1.27c.35-.22.81-.1 1.029.25Z"/></g></svg>