<svg viewBox="0 0 24 24" xmlns="http://www.w3.org/2000/svg"><path fill="#FFC44D" d="M2 5.25c-.42 0-.75.33-.75.75v16c0 .41.33.75.75.75h20c.41 0 .75-.34.75-.75V6c0-.42-.34-.75-.75-.75H2Z"/><path fill="#ECEFF1" d="M9 5.25c-.42 0-.75.33-.75.75v4.5c0 .27.15.53.39.66 .24.13.53.11.76-.04l1.08-.73 1.08.72c.25.16.58.16.83 0l1.08-.73 1.08.72c.23.15.52.16.76.03 .24-.14.39-.39.39-.67v-4.5c0-.42-.34-.75-.75-.75h-6Z"/><path fill="#FF884D" d="M3.5 1.25c-.32 0-.6.19-.71.48l-1.5 4c-.09.23-.06.48.08.69 .14.2.37.32.61.32h20c.24 0 .47-.13.61-.33 .14-.21.17-.47.08-.7l-1.5-4c-.11-.3-.39-.49-.71-.49h-17Z"/><g fill="#ECEFF1" fill-rule="evenodd"><path d="M16.53 11.41c.27-.22.66-.22.93 0l2.5 2c.32.25.37.73.11 1.05 -.26.32-.74.37-1.06.11l-2.04-1.63 -2.04 1.62c-.33.25-.8.2-1.06-.12 -.26-.33-.21-.8.11-1.06l2.5-2Z"/><path d="M17 11.25c.41 0 .75.33.75.75v5c0 .41-.34.75-.75.75 -.42 0-.75-.34-.75-.75v-5c0-.42.33-.75.75-.75Z"/><path d="M14.25 19.5c0-.42.33-.75.75-.75h4c.41 0 .75.33.75.75 0 .41-.34.75-.75.75h-4c-.42 0-.75-.34-.75-.75Z"/></g></svg>