<svg viewBox="0 0 24 24" xmlns="http://www.w3.org/2000/svg"><g fill="#ECEFF1" fill-rule="evenodd"><path d="M10 3.25c-4.84 0-8.75 3.91-8.75 8.75v2.89c0 2.95 2.39 5.35 5.35 5.35 2.34 0 4.42-1.54 5.11-3.78l.39-1.3c.26-.85 1.04-1.43 1.92-1.43 .45 0 .89.15 1.24.43l2.2 1.73c2.13 1.67 5.25.15 5.25-2.56v-1.36c0-4.84-3.92-8.75-8.75-8.75h-4Z"/><path fill="#FFC44D" d="M6.5 12.75c-1.25 0-2.25 1-2.25 2.25 0 1.24 1 2.25 2.25 2.25 1.24 0 2.25-1.01 2.25-2.25 0-1.25-1.01-2.25-2.25-2.25Z"/><path fill="#EE4D4D" d="M7.5 7.25c-1.25 0-2.25 1-2.25 2.25 0 1.24 1 2.25 2.25 2.25 1.24 0 2.25-1.01 2.25-2.25 0-1.25-1.01-2.25-2.25-2.25Z"/><path fill="#8BC94D" d="M13.5 5.75c-1.25 0-2.25 1-2.25 2.25 0 1.24 1 2.25 2.25 2.25 1.24 0 2.25-1.01 2.25-2.25 0-1.25-1.01-2.25-2.25-2.25Z"/></g></svg>