<svg viewBox="0 0 24 24" xmlns="http://www.w3.org/2000/svg"><g fill="#ECEFF1" fill-rule="evenodd"><path d="M9.5 14.36c-.03 0-.05 0-.07 0 -2.21.19-4.18.65-5.61 1.29 -.72.31-1.34.7-1.8 1.15 -.46.45-.79 1.02-.79 1.69 0 .79.46 1.44 1.05 1.94 .59.49 1.42.9 2.37 1.24 1.9.66 4.49 1.06 7.31 1.06 2.82 0 5.41-.4 7.31-1.07 .95-.34 1.77-.75 2.37-1.25 .59-.5 1.05-1.15 1.05-1.95 0-.68-.34-1.25-.79-1.7 -.46-.46-1.08-.84-1.8-1.16 -1.44-.64-3.4-1.1-5.61-1.3 -.03-.01-.05-.01-.07-.01h-5Z"/><path fill="#EE4D4D" d="M12 1.25C8.27 1.25 5.25 4.27 5.25 8c0 .8.27 1.69.66 2.56 .39.87.92 1.8 1.49 2.683 1.14 1.76 2.48 3.43 3.29 4.39 .68.81 1.91.81 2.6 0 .8-.97 2.14-2.63 3.29-4.4 .57-.89 1.1-1.81 1.49-2.683 .38-.87.66-1.76.66-2.57 0-3.73-3.03-6.75-6.75-6.75Z"/><path d="M10.25 6c0-.42.33-.75.75-.75h1.5c1.24 0 2.25 1 2.25 2.25 0 1.24-1.01 2.25-2.25 2.25h-.75V11c0 .41-.34.75-.75.75 -.42 0-.75-.34-.75-.75V6Zm1.5 2.25h.75c.41 0 .75-.34.75-.75 0-.42-.34-.75-.75-.75h-.75v1.5Z"/></g></svg>