<svg viewBox="0 0 24 24" xmlns="http://www.w3.org/2000/svg"><g fill="#A2ADB8" fill-rule="evenodd"><path d="M3.25 7c0-.42.33-.75.75-.75h2.5c.41 0 .75.33.75.75 0 .41-.34.75-.75.75H4c-.42 0-.75-.34-.75-.75Zm5.5 0c0-.42.33-.75.75-.75h7c1.51 0 2.75 1.23 2.75 2.75v2.5c0 .41-.34.75-.75.75 -.42 0-.75-.34-.75-.75V9c0-.7-.56-1.25-1.25-1.25h-7c-.42 0-.75-.34-.75-.75Z"/><path fill="#5D6874" d="M6.5 3.75c-.42 0-.75.33-.75.75v5c0 .41.33.75.75.75h3c.41 0 .75-.34.75-.75v-5c0-.42-.34-.75-.75-.75h-3Z"/><path fill="#5E94FF" d="M8 8.75c-3.18 0-5.75 2.57-5.75 5.75 0 3.17 2.57 5.75 5.75 5.75 3.17 0 5.75-2.58 5.75-5.75 0-3.18-2.58-5.75-5.75-5.75Z"/><path fill="#8B98A6" d="M18.5 10.75c-1.92 0-3.25 1.81-3.25 3.75 0 1.93 1.33 3.75 3.25 3.75 1.91 0 3.25-1.82 3.25-3.75 0-1.94-1.34-3.75-3.25-3.75Z"/></g></svg>