<svg viewBox="0 0 24 24" xmlns="http://www.w3.org/2000/svg"><g fill="#5D6874" fill-rule="evenodd"><path d="M4 4.25c-.42 0-.75.33-.75.75v17c0 .41.33.75.75.75h16c.41 0 .75-.34.75-.75V5c0-.42-.34-.75-.75-.75H4Z"/><path d="M3.25 4c0-1.52 1.23-2.75 2.75-2.75h14c.41 0 .75.33.75.75 0 .41-.34.75-.75.75H6c-.7 0-1.25.55-1.25 1.25v1c0 .41-.34.75-.75.75 -.42 0-.75-.34-.75-.75V4Z"/><path fill="#ECEFF1" d="M6.5 7.75c-.42 0-.75.33-.75.75v9c0 .41.33.75.75.75h11c.41 0 .75-.34.75-.75v-9c0-.42-.34-.75-.75-.75h-11Z"/><path fill="#8BC94D" d="M10.11 10.56c-.13-.17-.31-.29-.52-.31 -.21-.03-.42.03-.58.16l-3 2.5c-.18.14-.27.35-.27.57v4c0 .41.33.75.75.75h11c.41 0 .75-.34.75-.75v-2.5c0-.23-.1-.44-.27-.58l-3-2.5c-.28-.23-.68-.24-.95-.01l-1.89 1.5 -2.04-2.86Z"/></g></svg>