<svg viewBox="0 0 24 24" xmlns="http://www.w3.org/2000/svg"><g fill="#5D6874" fill-rule="evenodd"><path d="M4 4.25c-.42 0-.75.33-.75.75v17c0 .41.33.75.75.75h16c.41 0 .75-.34.75-.75V5c0-.42-.34-.75-.75-.75H4Z"/><path d="M3.25 4c0-1.52 1.23-2.75 2.75-2.75h14c.41 0 .75.33.75.75 0 .41-.34.75-.75.75H6c-.7 0-1.25.55-1.25 1.25v1c0 .41-.34.75-.75.75 -.42 0-.75-.34-.75-.75V4Z"/><path fill="#8BC94D" d="M12.58 7.03c-.15-.18-.36-.29-.59-.29 -.23 0-.45.1-.59.28l-3.35 4.17c-.54.66-.83 1.49-.83 2.34v.44c0 2.07 1.67 3.75 3.75 3.75h2c2.07 0 3.75-1.68 3.75-3.75v-.45c0-.86-.29-1.68-.83-2.35l-3.35-4.18Z"/><path fill="#A2D471" d="M12 6.75c.41 0 .75.33.75.75V20c0 .41-.34.75-.75.75 -.42 0-.75-.34-.75-.75V7.5c0-.42.33-.75.75-.75Z"/></g></svg>