<svg viewBox="0 0 24 24" xmlns="http://www.w3.org/2000/svg"><g fill="#8B98A6" fill-rule="evenodd"><path d="M5 13.25c-.22 0-.42.09-.57.25 -.15.16-.21.37-.19.58l1 8c.04.37.36.657.74.657h12c.37 0 .69-.29.74-.657l1-8c.02-.22-.04-.43-.19-.59 -.15-.17-.35-.26-.57-.26h-14Z"/><g fill="#A2D471"><path d="M7.25 5c0-.42.33-.75.75-.75h2c1.51 0 2.75 1.23 2.75 2.75v2c0 .41-.34.75-.75.75 -.42 0-.75-.34-.75-.75V7c0-.7-.56-1.25-1.25-1.25H8c-.42 0-.75-.34-.75-.75Z"/><path d="M16.75 2c0-.42-.34-.75-.75-.75h-2c-1.52 0-2.75 1.23-2.75 2.75v5c0 .41.33.75.75.75 .41 0 .75-.34.75-.75V4c0-.7.55-1.25 1.25-1.25h2c.41 0 .75-.34.75-.75Z"/></g><path fill="#5D6874" d="M3 8.25c-.42 0-.75.33-.75.75v5c0 .41.33.75.75.75h18c.41 0 .75-.34.75-.75V9c0-.42-.34-.75-.75-.75H3Z"/></g></svg>