<svg viewBox="0 0 24 24" xmlns="http://www.w3.org/2000/svg"><g fill="#5D6874" fill-rule="evenodd"><path d="M4 4.25c-.42 0-.75.33-.75.75v17c0 .41.33.75.75.75h16c.41 0 .75-.34.75-.75V5c0-.42-.34-.75-.75-.75H4Z"/><path d="M3.25 4c0-1.52 1.23-2.75 2.75-2.75h14c.41 0 .75.33.75.75 0 .41-.34.75-.75.75H6c-.7 0-1.25.55-1.25 1.25v1c0 .41-.34.75-.75.75 -.42 0-.75-.34-.75-.75V4Z"/><path fill="#FFC44D" d="M10.5 7.25c-.42 0-.76.33-.76.75v2.05c0 .68-.32 1.33-.85 1.75l-.45.35c-.79.63-1.17 1.64-.99 2.63l.56 3.09c.19 1.06 1.12 1.84 2.21 1.84h3.49c1.08 0 2.01-.78 2.21-1.85l.56-3.1c.18-1-.2-2.01-.99-2.64l-.45-.36c-.54-.43-.85-1.08-.85-1.76V7.94c0-.42-.34-.75-.75-.75h-3Z"/><path fill="#FF884D" d="M7.75 8c0-.42.33-.75.75-.75h7c.41 0 .75.33.75.75 0 .41-.34.75-.75.75h-7c-.42 0-.75-.34-.75-.75Z"/></g></svg>