<svg viewBox="0 0 24 24" xmlns="http://www.w3.org/2000/svg"><path fill="#EE4D4D" d="M9.14 2.25c-.1 0-.19.01-.28.05L4.09 4.19c-.19.07-.34.22-.42.4l-2.39 5.68c-.09.2-.08.43.02.63 .1.19.28.33.5.38l3.69.81v8.87c0 .41.33.75.75.75h11.42c.41 0 .75-.34.75-.75v-8.88l3.69-.82c.21-.05.4-.19.5-.39 .1-.2.11-.43.02-.64l-2.39-5.69c-.08-.19-.23-.34-.42-.41l-4.77-1.9c-.09-.04-.19-.06-.28-.06H9.04Z"/><g fill="#F17171"><path d="M15.18 2.7c-.12-.27-.38-.45-.67-.46 -.3-.01-.57.15-.7.41l-2.5 5c-.14.27-.1.6.11.83 .2.22.532.3.82.2l4-1.5c.19-.08.34-.22.42-.41 .08-.19.08-.41-.01-.59l-1.5-3.5Z"/><path d="M8.81 2.7c.11-.27.37-.45.66-.46 .29-.01.56.15.69.41l2.5 5c.13.27.09.6-.12.83 -.21.22-.532.3-.83.2L7.7 7.18c-.2-.08-.35-.22-.43-.41 -.09-.19-.09-.41 0-.59l1.5-3.5Z"/></g></svg>