<svg viewBox="0 0 24 24" xmlns="http://www.w3.org/2000/svg"><path fill="#FFC44D" d="M13.66 3.02c-.83-1.14-2.52-1.14-3.34 0 -.17.22-.48.29-.73.16 -1.24-.67-2.76.06-3.01 1.44 -.05.27-.3.47-.58.46 -1.41-.07-2.46 1.25-2.09 2.6 .07.27-.07.55-.33.66 -1.3.54-1.67 2.19-.75 3.25 .18.21.18.52 0 .73 -.93 1.05-.55 2.705.74 3.25 .25.11.39.39.32.66 -.38 1.35.68 2.67 2.08 2.6 .28-.02.52.18.57.46 .24 1.38 1.77 2.11 3 1.44 .24-.14.55-.07.72.16 .82 1.13 2.51 1.13 3.33 0 .16-.23.47-.3.72-.17 1.23.66 2.75-.07 3-1.45 .04-.28.29-.48.57-.47 1.4.06 2.45-1.26 2.08-2.61 -.08-.28.06-.56.32-.67 1.29-.55 1.66-2.2.74-3.26 -.19-.22-.19-.53 0-.74 .92-1.06.54-2.71-.75-3.26 -.26-.12-.4-.4-.33-.67 .375-1.36-.69-2.68-2.09-2.61 -.29.01-.53-.19-.58-.47 -.25-1.39-1.78-2.12-3.01-1.45 -.25.13-.56.06-.73-.17Z"/><path fill="#ECEFF1" d="M11.99 5.34c-3.68 0-6.66 2.98-6.66 6.65 0 3.67 2.98 6.65 6.65 6.65 3.67 0 6.65-2.99 6.65-6.66 0-3.68-2.99-6.66-6.66-6.66Z"/><path fill="#FFC44D" fill-rule="evenodd" d="M16.16 9.65c.29.29.29.76 0 1.06l-4.55 4.54c-.15.14-.34.21-.54.21s-.39-.08-.54-.22L7.8 12.51c-.3-.3-.3-.77 0-1.07 .29-.3.76-.3 1.06 0l2.19 2.19 4.01-4.02c.29-.3.76-.3 1.06 0Z"/></svg>