<svg viewBox="0 0 24 24" xmlns="http://www.w3.org/2000/svg"><g fill="#8B98A6" fill-rule="evenodd"><path d="M7 1.25c-.42 0-.75.33-.75.75v20c0 .41.33.75.75.75h9c.41 0 .75-.34.75-.75V2c0-.42-.34-.75-.75-.75H7Z"/><path fill="#5D6874" d="M8.75 15c0-.42.33-.75.75-.75h4c.41 0 .75.33.75.75 0 .41-.34.75-.75.75h-4c-.42 0-.75-.34-.75-.75Z"/><g fill="#F9F9F9"><path d="M8.75 19.5c0-.42.33-.75.75-.75h4c.41 0 .75.33.75.75 0 .41-.34.75-.75.75h-4c-.42 0-.75-.34-.75-.75Z"/><path d="M8.75 10c0-.42.33-.75.75-.75h4c.41 0 .75.33.75.75 0 .41-.34.75-.75.75h-4c-.42 0-.75-.34-.75-.75Z"/><path d="M8.75 7c0-.42.33-.75.75-.75h4c.41 0 .75.33.75.75 0 .41-.34.75-.75.75h-4c-.42 0-.75-.34-.75-.75Z"/></g><g fill="#5D6874"><path d="M11.25 4.5c0-.42.33-.75.75-.75h1.5c.41 0 .75.33.75.75 0 .41-.34.75-.75.75H12c-.42 0-.75-.34-.75-.75Z"/><path d="M11.5 17.75c-.42 0-.75-.34-.75-.75v-4c0-.42.33-.75.75-.75 .41 0 .75.33.75.75v4c0 .41-.34.75-.75.75Z"/></g></g></svg>