<svg viewBox="0 0 24 24" xmlns="http://www.w3.org/2000/svg"><path fill="#FFC44D" fill-rule="evenodd" d="M12 9.75c-3.18 0-5.75 2.57-5.75 5.75 0 3.17 2.57 5.75 5.75 5.75 3.17 0 5.75-2.58 5.75-5.75 0-3.18-2.58-5.75-5.75-5.75ZM4.75 15.5c0-4.01 3.24-7.25 7.25-7.25 4 0 7.25 3.24 7.25 7.25 0 4-3.25 7.25-7.25 7.25 -4.01 0-7.25-3.25-7.25-7.25Z"/><path fill="#4DC4FF" d="M8.5 1.25c-.29 0-.55.16-.68.41l-1 2c-.16.3-.09.67.17.89l4.5 4c.28.25.71.25.99 0l4.5-4c.25-.23.32-.6.17-.9l-1-2c-.13-.26-.39-.42-.68-.42h-7Z"/></svg>