<svg viewBox="0 0 24 24" xmlns="http://www.w3.org/2000/svg"><g fill="#8B98A6" fill-rule="evenodd"><path d="M6 18.75c.41 0 .75.33.75.75V22c0 .41-.34.75-.75.75 -.42 0-.75-.34-.75-.75v-2.5c0-.42.33-.75.75-.75Z"/><path d="M18 18.75c.41 0 .75.33.75.75V22c0 .41-.34.75-.75.75 -.42 0-.75-.34-.75-.75v-2.5c0-.42.33-.75.75-.75Z"/><path fill="#5D6874" d="M4 1.25c-.42 0-.75.33-.75.75v17.5c0 .41.33.75.75.75h16c.41 0 .75-.34.75-.75V2c0-.42-.34-.75-.75-.75H4Z"/><path d="M6.5 3.75c-.42 0-.75.33-.75.75V17c0 .41.33.75.75.75h11c.41 0 .75-.34.75-.75V4.5c0-.42-.34-.75-.75-.75h-11Z"/><path fill="#ECEFF1" d="M12 7.25c-1.8 0-3.25 1.45-3.25 3.25 0 1.79 1.45 3.25 3.25 3.25 1.79 0 3.25-1.46 3.25-3.25 0-1.8-1.46-3.25-3.25-3.25Z"/><path fill="#5D6874" d="M12 7.25c.41 0 .75.33.75.75v2c0 .41-.34.75-.75.75 -.42 0-.75-.34-.75-.75V8c0-.42.33-.75.75-.75Z"/></g></svg>