<svg viewBox="0 0 24 24" xmlns="http://www.w3.org/2000/svg"><g fill="#5D6874" fill-rule="evenodd"><path d="M7.25 6.5c0-2.63 2.12-4.75 4.75-4.75 2.62 0 4.75 2.12 4.75 4.75v1c0 .41-.34.75-.75.75H8c-.42 0-.75-.34-.75-.75v-1ZM12 3.25c-1.8 0-3.25 1.45-3.25 3.25v.25h6.5V6.5c0-1.8-1.46-3.25-3.25-3.25Z"/><path fill="#FFC44D" d="M6 6.75c-.4 0-.73.3-.75.69l-1 14c-.02.2.05.41.19.56 .14.15.34.23.54.23h14c.2 0 .4-.09.54-.24 .14-.16.21-.36.19-.57l-1-14c-.03-.4-.36-.7-.75-.7h-12Z"/><path d="M7.75 11.5c0 2.34 1.9 4.25 4.25 4.25 2.34 0 4.25-1.91 4.25-4.25V11c0-.42-.34-.75-.75-.75 -.42 0-.75.33-.75.75v.5c0 1.51-1.24 2.75-2.75 2.75 -1.52 0-2.75-1.24-2.75-2.75V11c0-.42-.34-.75-.75-.75 -.42 0-.75.33-.75.75v.5Z"/></g></svg>