<svg viewBox="0 0 24 24" xmlns="http://www.w3.org/2000/svg"><path fill="#8BC94D" d="M5 4.25c-.37 0-.68.26-.74.61l-3 17c-.04.21.02.44.16.61 .14.16.35.26.57.26h20c.22 0 .43-.1.57-.27 .14-.17.2-.4.16-.62l-3-17c-.07-.36-.38-.62-.74-.62h-14Z"/><g fill="#ECEFF1"><path d="M5 1.25c-.42 0-.75.33-.75.75v3c0 .41.33.75.75.75h14c.41 0 .75-.34.75-.75V2c0-.42-.34-.75-.75-.75H5Z"/><g fill="#ECEFF1" fill-rule="evenodd"><path d="M6.11 22.75l.12-.61 0-.02 2.5-14.5c.07-.41-.21-.8-.62-.87 -.41-.08-.8.2-.87.61l-2.5 14.49 -.18.88h1.52Z"/><path d="M18.84 22.75l-.11-.843 -.01-.01v0l-2-14.5c-.06-.42-.44-.7-.85-.65 -.42.05-.7.43-.65.84l1.99 14.49 .08.65h1.51Z"/><path d="M12.75 22.75V7.5c0-.42-.34-.75-.75-.75 -.42 0-.75.33-.75.75v15.25h1.5Z"/></g></g></svg>