<svg viewBox="0 0 24 24" xmlns="http://www.w3.org/2000/svg"><g fill="#F17171" fill-rule="evenodd"><path d="M7 9.25c-3.18 0-5.75 2.57-5.75 5.75v2c0 3.17 2.57 5.75 5.75 5.75h10c3.17 0 5.75-2.58 5.75-5.75v-2c0-3.18-2.58-5.75-5.75-5.75H7Z"/><path fill="#F9F9F9" d="M19.5 13.75c.41 0 .75.33.75.75v2c0 2.07-1.68 3.75-3.75 3.75h-2c-.42 0-.75-.34-.75-.75 0-.42.33-.75.75-.75h2c1.24 0 2.25-1.01 2.25-2.25v-2c0-.42.33-.75.75-.75Z"/><g fill="#4DC4FF"><path d="M7.5 3.75c-1.25 0-2.25 1-2.25 2.25 0 1.24 1 2.25 2.25 2.25 1.24 0 2.25-1.01 2.25-2.25 0-1.25-1.01-2.25-2.25-2.25Z"/><path d="M14 1.25c-1.52 0-2.75 1.23-2.75 2.75 0 1.51 1.23 2.75 2.75 2.75 1.51 0 2.75-1.24 2.75-2.75 0-1.52-1.24-2.75-2.75-2.75Z"/></g></g></svg>