<svg viewBox="0 0 24 24" xmlns="http://www.w3.org/2000/svg"><g fill="#5D6874" fill-rule="evenodd"><path d="M3.25 4c0-1.52 1.23-2.75 2.75-2.75h14c.41 0 .75.33.75.75 0 .41-.34.75-.75.75H6c-.7 0-1.25.55-1.25 1.25v1c0 .41-.34.75-.75.75 -.42 0-.75-.34-.75-.75V4Z"/><path d="M4 4.25c-.42 0-.75.33-.75.75v17c0 .41.33.75.75.75h16c.41 0 .75-.34.75-.75V5c0-.42-.34-.75-.75-.75H4Z"/><path fill="#FFC44D" d="M10.96 7.08c-.16-.23-.42-.36-.69-.34 -.28.02-.52.19-.63.44L8.6 9.48c-.25.55-.38 1.15-.38 1.76 0 1.92 1.56 3.48 3.48 3.48h.26c2.07 0 3.75-1.68 3.75-3.75V9.18c0-.24-.11-.46-.3-.6 -.19-.15-.43-.2-.65-.14l-2.49.64 -1.37-2.06Z"/><g fill="#ECEFF1"><path d="M16.15 15.62c.2.35.08.81-.28 1.02l-7 4c-.36.2-.82.08-1.03-.28 -.21-.36-.09-.82.27-1.03l7-4c.35-.21.81-.09 1.02.27Z"/><path d="M7.84 15.62c-.21.35-.09.81.27 1.02l7 4c.35.2.81.08 1.02-.28 .2-.36.08-.82-.28-1.03l-7-4c-.36-.21-.82-.09-1.03.27Z"/></g></g></svg>