<svg viewBox="0 0 24 24" xmlns="http://www.w3.org/2000/svg"><g fill="#5E94FF" fill-rule="evenodd"><path d="M4 4.25c-.42 0-.75.33-.75.75v17c0 .41.33.75.75.75h16c.41 0 .75-.34.75-.75V5c0-.42-.34-.75-.75-.75H4Z"/><path d="M3.25 4c0-1.52 1.23-2.75 2.75-2.75h14c.41 0 .75.33.75.75 0 .41-.34.75-.75.75H6c-.7 0-1.25.55-1.25 1.25v1c0 .41-.34.75-.75.75 -.42 0-.75-.34-.75-.75V4Z"/><g fill="#ECEFF1"><path d="M11.25 10c0-.26-.13-.49-.34-.63 -.22-.14-.48-.17-.71-.07l-3.51 1.49c-.28.11-.46.38-.46.68v2c0 .41.33.75.75.75h3.5c.41 0 .75-.34.75-.75v-3.5Z"/><path d="M12.75 10c0-.26.12-.49.33-.63 .21-.14.47-.17.7-.07l3.5 1.49c.27.11.45.38.45.68v2c0 .41-.34.75-.75.75h-3.5c-.42 0-.75-.34-.75-.75v-3.5Z"/><path d="M12 6.25c-1.25 0-2.25 1-2.25 2.25V14c0 .08.01.16.03.23l1.5 4.5c.1.3.38.51.71.51 .32 0 .6-.21.71-.52l1.5-4.5c.02-.08.03-.16.03-.24v-5.5c0-1.25-1.01-2.25-2.25-2.25Z"/><path d="M11.61 17.85c.24-.15.55-.15.79.01l2.34 1.5c.34.22.45.68.22 1.03 -.23.34-.69.45-1.04.22l-1.96-1.25 -2.11 1.26c-.36.21-.82.09-1.03-.26 -.22-.36-.1-.82.25-1.029l2.49-1.5Z"/></g></g></svg>