<svg viewBox="0 0 24 24" xmlns="http://www.w3.org/2000/svg"><g fill="#FF884D" fill-rule="evenodd"><path d="M1.83 1.26c.4-.09.8.16.89.56l1 4.5c.08.4-.17.8-.57.89 -.41.08-.81-.17-.9-.57l-1-4.5c-.09-.41.16-.81.56-.9Z"/><path d="M22.16 1.26c-.41-.09-.81.16-.9.56l-1 4.5c-.09.4.16.8.56.89 .4.08.8-.17.89-.57l1-4.5c.08-.41-.17-.81-.57-.9Z"/></g><path fill="#FFC44D" d="M3 5.75c-.42 0-.75.33-.75.75V22c0 .41.33.75.75.75h18c.41 0 .75-.34.75-.75V6.5c0-.42-.34-.75-.75-.75H3Z"/><g fill="#ECEFF1"><path d="M5.5 15.75c-.42 0-.75.33-.75.75v3c0 .41.33.75.75.75h6c.41 0 .75-.34.75-.75v-3c0-.42-.34-.75-.75-.75h-6Z"/><path d="M9 5.75c-.42 0-.75.33-.75.75V11c0 .27.15.53.39.66 .24.13.53.11.76-.04l1.08-.73 1.08.72c.25.16.58.16.83 0l1.08-.73 1.08.72c.23.15.52.16.76.03 .24-.14.39-.39.39-.67v-4.5c0-.42-.34-.75-.75-.75h-6Z"/></g></svg>