<svg viewBox="0 0 24 24" xmlns="http://www.w3.org/2000/svg"><g fill="#ECEFF1" fill-rule="evenodd"><path d="M2 4.25c-.42 0-.75.33-.75.75v12c0 .41.33.75.75.75h13 7c.41 0 .75-.34.75-.75V5c0-.42-.34-.75-.75-.75H2Z"/><path fill="#727982" d="M1.25 5c0-.42.33-.75.75-.75h20c.41 0 .75.33.75.75v12c0 .41-.34.75-.75.75H2c-.42 0-.75-.34-.75-.75V5Zm1.5.75v10.5h18.5V5.75H2.75Z"/><path fill="#5E94FF" d="M17.39 6.86c.35.21.45.68.23 1.03l-.875 1.39c-1.13 1.8-3.43 2.49-5.37 1.61l-.15-.07c-1.18-.54-2.57-.18-3.34.85l-1.32 1.74c-.25.33-.72.39-1.05.15 -.34-.25-.4-.72-.15-1.05l1.31-1.75c1.19-1.6 3.34-2.15 5.15-1.32l.14.06c1.25.57 2.73.12 3.46-1.05l.875-1.4c.21-.36.68-.46 1.03-.24Z"/><path fill="#8B98A6" d="M9 14.75c-.42 0-.75.33-.75.75v3c0 .41.33.75.75.75h6c.41 0 .75-.34.75-.75v-3c0-.42-.34-.75-.75-.75H9Z"/></g></svg>