<svg viewBox="0 0 24 24" xmlns="http://www.w3.org/2000/svg"><g fill-rule="evenodd"><path d="M8.25 12.41c0-.56.44-1 1-1h5.5c.55 0 1 .44 1 1v3.82c0 .55-.45 1-1 1h-5.5c-.56 0-1-.45-1-1V12.4Zm2 1v1.82h3.5V13.4h-3.5Z"/><path d="M8.85 10.91c0-1.74 1.4-3.15 3.14-3.15 1.73 0 3.14 1.4 3.14 3.14v1.5c0 .55-.45 1-1 1h-4.3c-.56 0-1-.45-1-1v-1.51Zm3.14-1.15c-.64 0-1.15.51-1.15 1.14v.5h2.29v-.51c0-.64-.52-1.15-1.15-1.15Z"/><path d="M11.47 2.15c.32-.21.73-.21 1.06 0l8 5c.29.18.47.5.47.84v12c0 .55-.45 1-1 1H4c-.56 0-1-.45-1-1v-12c0-.35.17-.67.47-.85l8-5ZM5 8.55v10.44h14V8.54L12 4.16 5 8.54Z"/></g></svg>