<svg viewBox="0 0 24 24" xmlns="http://www.w3.org/2000/svg"><g fill-rule="evenodd"><path d="M12 3c-4.98 0-9 4.02-9 9 0 4.97 4.02 9 9 9 4.97 0 9-4.03 9-9 0-4.98-4.03-9-9-9ZM1 12C1 5.92 5.92 1 12 1c6.07 0 11 4.92 11 11 0 6.07-4.93 11-11 11C5.92 23 1 18.07 1 12Z"/><path d="M11 17v-5h2v5h-2Z"/><path d="M12 8c-.83 0-1.5.67-1.5 1.5 0 .82.67 1.5 1.5 1.5 .82 0 1.5-.68 1.5-1.5 0-.83-.68-1.5-1.5-1.5ZM8.5 9.5C8.5 7.56 10.06 6 12 6c1.93 0 3.5 1.56 3.5 3.5 0 1.93-1.57 3.5-3.5 3.5 -1.94 0-3.5-1.57-3.5-3.5Z"/></g></svg>