<svg viewBox="0 0 24 24" xmlns="http://www.w3.org/2000/svg"><g fill-rule="evenodd"><path d="M2 3c0-.56.44-1 1-1h4.5v2H4v3.5H2V3Zm18 1h-3.5V2H21c.55 0 1 .44 1 1v4.5h-2V4ZM4 20v-3.5H2V21c0 .55.44 1 1 1h4.5v-2H4Zm16 0v-3.5h2V21c0 .55-.45 1-1 1h-4.5v-2H20Z"/><path d="M12 8c-.83 0-1.5.67-1.5 1.5 0 .59.34 1.11.85 1.35 .43.2.66.69.53 1.16l-1.09 3.97h2.38L12.08 12c-.13-.47.09-.96.53-1.17 .5-.25.85-.76.85-1.36 0-.83-.68-1.5-1.5-1.5ZM8.5 9.5c0-1.94 1.56-3.5 3.49-3.5 1.93 0 3.5 1.56 3.5 3.5 0 1.08-.5 2.05-1.28 2.69l1.23 4.53c.08.3.01.62-.18.87 -.19.24-.49.39-.8.39h-5c-.32 0-.61-.15-.8-.4 -.19-.25-.26-.57-.18-.88l1.23-4.54c-.78-.65-1.28-1.62-1.28-2.7Z"/></g></svg>