<svg viewBox="0 0 24 24" xmlns="http://www.w3.org/2000/svg"><g fill-rule="evenodd"><path d="M12 3c-4.98 0-9 4.02-9 9 0 4.02 2.64 7.44 6.29 8.58l-.6 1.9C4.22 21.07.98 16.91.98 11.98c0-6.08 4.92-11 11-11 4.92 0 9.09 3.23 10.49 7.7l-1.91.59c-1.15-3.66-4.56-6.3-8.59-6.3Z"/><path d="M16.5 12c-2.49 0-4.5 2.01-4.5 4.5 0 2.48 2.01 4.5 4.5 4.5 2.48 0 4.5-2.02 4.5-4.5 0-2.49-2.02-4.5-4.5-4.5ZM10 16.5c0-3.59 2.91-6.5 6.5-6.5 3.58 0 6.5 2.91 6.5 6.5 0 3.58-2.92 6.5-6.5 6.5 -3.59 0-6.5-2.92-6.5-6.5Z"/><path d="M13.5 16.43c0-.56.44-1 1-1h4c.55 0 1 .44 1 1v2.78c0 .55-.45 1-1 1h-4c-.56 0-1-.45-1-1v-2.79Zm2 1v.78h2v-.79h-2Z"/><path d="M13.93 15.34c0-1.42 1.14-2.57 2.56-2.57 1.41 0 2.56 1.14 2.56 2.56v1.09c0 .55-.45 1-1 1H14.92c-.56 0-1-.45-1-1v-1.1Zm2.56-.57c-.32 0-.57.25-.57.56v.09h1.125v-.1c0-.32-.26-.57-.57-.57Z"/><path d="M8.99 1.5c.55 0 1 .44 1 1v2.82c0 .17.04.34.13.49l.39.7c.72 1.28.41 2.9-.74 3.82l-.51.4c-.64.5-1.46.73-2.26.63 -.36-.05-.72.1-.93.38l-2.89 3.82c-.34.44-.96.52-1.41.19 -.45-.34-.53-.96-.2-1.41l2.88-3.83c.64-.87 1.71-1.31 2.77-1.18 .27.03.54-.05.75-.22l.5-.41c.38-.31.48-.85.24-1.28l-.4-.71c-.26-.46-.4-.97-.4-1.49V2.39c0-.56.44-1 1-1Z"/></g></svg>