<svg viewBox="0 0 24 24" xmlns="http://www.w3.org/2000/svg"><g fill-rule="evenodd"><path d="M2 12c-.56 0-1 .44-1 1v9c0 .55.44 1 1 1h5c.55 0 1-.45 1-1v-9c0-.56-.45-1-1-1H2Zm14 1c0-.56.44-1 1-1h5c.55 0 1 .44 1 1v9c0 .55-.45 1-1 1h-5c-.56 0-1-.45-1-1v-9Z"/><path d="M6 9.5c0-.56.44-1 1-1h10c.55 0 1 .44 1 1V22c0 .55-.45 1-1 1h-2v-7c0-.56-.45-1-1-1h-4c-.56 0-1 .44-1 1v7H7c-.56 0-1-.45-1-1V9.5Z"/><path d="M12 2l.45-.9c-.29-.15-.63-.15-.91 0l.45.89Zm0 0c-.46-.9-.46-.9-.46-.9l-.01 0 -.01 0 -.01 0 -.02 0 -.05.02c-.04.01-.09.04-.16.08 -.14.07-.32.17-.55.3 -.45.26-1.04.63-1.65 1.09 -.6.44-1.24.99-1.73 1.61 -.49.59-.93 1.37-.93 2.26 0 1.58.88 2.92 2.02 3.79 .17.13.38.2.6.2h5.73c.21 0 .43-.08.6-.21 1.14-.88 2.02-2.22 2.02-3.8 0-.89-.45-1.67-.93-2.27 -.5-.62-1.13-1.17-1.73-1.62 -.61-.46-1.2-.84-1.65-1.1 -.23-.14-.41-.24-.55-.31 -.07-.04-.12-.07-.16-.09l-.05-.03 -.02-.01 -.01-.01 -.01-.01 -.01-.01c-.01-.01-.01-.01-.46.89Z"/><path d="M4.49 8l.52-.85c-.33-.21-.74-.21-1.06 0l.52.84Zm0 0c-.53-.85-.53-.85-.53-.85l-.01 0 -.01 0 -.01 0 -.01 0 -.03.01c-.03.01-.06.03-.1.05 -.08.05-.19.12-.32.21 -.26.18-.6.44-.94.76 -.35.31-.72.7-1.01 1.14 -.29.43-.55.99-.55 1.64 0 .13-.01.26-.02.41l-.01.1c-.02.18-.03.42-.01.67 .04.55.25 1.15.89 1.61 .17.12.37.18.58.18h4.03c.2 0 .41-.07.58-.19 .63-.46.84-1.07.89-1.62 .01-.25 0-.49-.01-.68l-.01-.11c-.01-.16-.02-.29-.02-.42 0-.65-.27-1.21-.55-1.65 -.3-.45-.67-.84-1.01-1.15 -.35-.32-.69-.58-.94-.77 -.13-.1-.24-.17-.32-.22 -.04-.03-.07-.05-.1-.06l-.03-.02 -.01-.01 -.01-.01 -.01-.01L4.87 7c-.01-.01-.01-.01-.53.84Zm15.52-.85l-.53.84 -.53-.85c.32-.21.73-.21 1.05 0Zm-1.06 0c0-.01 0-.01.52.84 .52-.85.52-.85.52-.85l0 0 0 0 0 0 0 0 .02.01c.02.01.05.03.09.05 .07.05.18.12.31.21 .25.18.59.44.93.76 .34.31.71.7 1 1.14 .28.43.54.99.54 1.64 0 .13 0 .26.01.41v0 0l0 .1c.01.18.02.42 0 .67 -.05.55-.26 1.15-.9 1.61 -.18.12-.38.18-.59.18h-4.04c-.21 0-.42-.07-.59-.19 -.64-.46-.85-1.07-.9-1.62 -.02-.25-.01-.49 0-.68l0-.11c0-.16.01-.29.01-.42 0-.65.26-1.21.54-1.65 .29-.45.66-.84 1-1.15 .34-.32.68-.58.93-.77 .12-.1.23-.17.31-.22 .03-.03.06-.05.09-.06l.02-.02 0-.01 0-.01 0-.01 0-.01Z"/></g></svg>