<svg viewBox="0 0 24 24" xmlns="http://www.w3.org/2000/svg"><g fill-rule="evenodd"><path d="M4 1c-.56 0-1 .44-1 1v6c0 .55.44 1 1 1h16c.32 0 .62-.16.81-.42 .18-.27.23-.6.13-.91l-1.5-4.5c-.14-.41-.52-.69-.95-.69h-2.5c-.16 0-.31.03-.45.1l-1.28.63 -1.5-1.87c-.19-.24-.48-.38-.79-.38h-8Z"/><path d="M3 15c0-.56.44-1 1-1h16c.55 0 1 .44 1 1v7c0 .55-.45 1-1 1h-3.5c.55 0 1-.45 1-1v-3c0-1.39-1.12-2.5-2.5-2.5 -1.39 0-2.5 1.11-2.5 2.5v3c0 .55.44 1 1 1h-3c.55 0 1-.45 1-1v-3c0-1.39-1.12-2.5-2.5-2.5 -1.39 0-2.5 1.11-2.5 2.5v3c0 .55.44 1 1 1H4c-.56 0-1-.45-1-1v-7Z"/><path d="M3 8c0-.56.44-1 1-1h16c.55 0 1 .44 1 1v7c0 .55-.45 1-1 1h-3.5c.55 0 1-.45 1-1v-3c0-1.39-1.12-2.5-2.5-2.5 -1.39 0-2.5 1.11-2.5 2.5v3c0 .55.44 1 1 1h-3c.55 0 1-.45 1-1v-3c0-1.39-1.12-2.5-2.5-2.5 -1.39 0-2.5 1.11-2.5 2.5v3c0 .55.44 1 1 1H4c-.56 0-1-.45-1-1V8Z"/><path d="M2 21h20v2H2v-2Z"/><path d="M2 14h20v2H2v-2Z"/><path d="M2 7h20v2H2V7Z"/></g></svg>