<svg viewBox="0 0 24 24" xmlns="http://www.w3.org/2000/svg"><g fill-rule="evenodd"><path d="M20.5 8.5c0 .4-.25.76-.62.92 -.38.15-.81.06-1.09-.22l-2.5-2.5c-.19-.19-.3-.45-.3-.71v-3.5c0-.56.44-1 1-1h2.5c.55 0 1 .44 1 1v6Z"/><path d="M12.81 1.22c-.37-.3-.89-.31-1.25-.02l-10.19 8 1.23 1.57 .88-.7v11.9c0 .55.44 1 1 1h4c-.01-.04-.01-.08-.01-.12v-7.78c0-.56.44-1 1-1h5.5c.55 0 1 .44 1 1v7.77c0 .03-.01.07-.01.11h3.5c.55 0 1-.45 1-1V10.01l.86.7 1.26-1.56 -2.5-2.04 -7.32-5.97ZM8.49 8.99c0-1.94 1.56-3.5 3.5-3.5 1.93 0 3.5 1.56 3.5 3.5 0 1.93-1.57 3.5-3.5 3.5 -1.94 0-3.5-1.57-3.5-3.5Z"/></g></svg>