<svg viewBox="0 0 24 24" xmlns="http://www.w3.org/2000/svg"><g fill-rule="evenodd"><path d="M2.5 5c0-.56.44-1 1-1H11c.55 0 1 .44 1 1v17c0 .55-.45 1-1 1H8.5c.55 0 1-.45 1-1v-5c0-.56-.45-1-1-1H6c-.56 0-1 .44-1 1v5c0 .55.44 1 1 1H3.5c-.56 0-1-.45-1-1V5Zm6 4.5H6v-2h2.5v2Zm-2.5 3h2.5v-2H6v2Z"/><path d="M2 21h20v2H2v-2Z"/><path d="M11 13c-.56 0-1 .44-1 1v8c0 .55.44 1 1 1h9c.55 0 1-.45 1-1v-8c0-.56-.45-1-1-1h-9Zm6.5 4.5h-4v-2h4v2Zm-4 2.5h4v-2h-4v2Z"/><path d="M7.8 1.16c-.34-.23-.78-.23-1.11 0l-4.5 3c-.37.24-.54.7-.41 1.12 .12.42.51.71.95.71h9c.44 0 .82-.29.95-.72 .12-.43-.04-.88-.41-1.13l-4.51-3Z"/></g></svg>