<svg viewBox="0 0 24 24" xmlns="http://www.w3.org/2000/svg"><g fill-rule="evenodd"><path d="M2 20h20v2H2v-2Z"/><path d="M9.55 2.1c.22-.12.49-.14.73-.07l9.97 2.99 1.97.49 -.49 1.94 -.76-.19v13.71c0 .55-.45 1-1 1h-16c-.56 0-1-.45-1-1V7.58l-.56.27 -.9-1.79 2-1 6-3Zm1.44 3.89c0-.33.15-.63.41-.82 .26-.19.59-.24.9-.14l4.5 1.5c.4.13.68.51.68.94v4.49c0 .55-.45 1-1 1h-4.5c-.56 0-1-.45-1-1v-6Zm-.98-.86c.29.18.47.5.47.85v5.99c0 .55-.45 1-1 1h-3c-.56 0-1-.45-1-1v-4.5c0-.38.21-.73.55-.9l3-1.5c.3-.16.67-.14.97.04Zm-3.53 8.35c-.56 0-1 .44-1 1v4c0 .55.44 1 1 1h3c.55 0 1-.45 1-1v-4c0-.56-.45-1-1-1h-3Zm10 0c.55 0 1 .44 1 1v4c0 .55-.45 1-1 1h-4.5c-.56 0-1-.45-1-1v-4c0-.56.44-1 1-1h4.5Z"/></g></svg>