<svg viewBox="0 0 24 24" xmlns="http://www.w3.org/2000/svg"><g fill-rule="evenodd"><path d="M2.05 2.18c.13-.41.51-.69.94-.69h.5c.43 0 .81.27.94.68l1 3c.1.3.05.64-.14.9s-.49.41-.82.41h-2.5c-.33 0-.63-.16-.82-.42 -.19-.27-.24-.6-.14-.91l1-3Z"/><path d="M19.55 2.18c.13-.41.51-.69.94-.69h.5c.43 0 .81.27.94.68l1 3c.1.3.05.64-.14.9s-.49.41-.82.41h-2.5c-.33 0-.63-.16-.82-.42 -.19-.27-.24-.6-.14-.91l1-3Z"/><path d="M2 4.5c-.56 0-1 .44-1 1v16c0 .55.44 1 1 1h2.5c.55 0 1-.45 1-1v-16c0-.56-.45-1-1-1H2Zm16.5 1c0-.56.44-1 1-1H22c.55 0 1 .44 1 1v16c0 .55-.45 1-1 1h-2.5c-.56 0-1-.45-1-1v-16Z"/><path d="M3.5 9.5c0-.56.44-1 1-1h15c.55 0 1 .44 1 1v12c0 .55-.45 1-1 1H15v-7c0-.56-.45-1-1-1h-4c-.56 0-1 .44-1 1v7H4.5c-.56 0-1-.45-1-1v-12Zm6.5 4H7.5v-2H10v2Zm4 0h2.5v-2H14v2Z"/><path d="M11.5 3c-.56 0-1 .44-1 1v2.5c0 .55.44 1 1 1H15c.55 0 1-.45 1-1V4c0-.56-.45-1-1-1h-3.5Z"/><path d="M10.5 9.3V4.49h2v4.8h-2Z"/></g></svg>