<svg viewBox="0 0 24 24" xmlns="http://www.w3.org/2000/svg"><g fill-rule="evenodd"><path d="M6 2v3H4V2h2Z"/><path d="M20 2v3h-2V2h2Z"/><path d="M2 10c-.56 0-1 .44-1 1v11c0 .55.44 1 1 1h6c.55 0 1-.45 1-1V11c0-.56-.45-1-1-1H2Zm13 1c0-.56.44-1 1-1h6c.55 0 1 .44 1 1v11c0 .55-.45 1-1 1h-6c-.56 0-1-.45-1-1V11Z"/><path d="M3 7c-.56 0-1 .44-1 1v3c0 .55.44 1 1 1h4c.55 0 1-.45 1-1V8c0-.56-.45-1-1-1H3Zm13 1c0-.56.44-1 1-1h4c.55 0 1 .44 1 1v3c0 .55-.45 1-1 1h-4c-.56 0-1-.45-1-1V8Z"/><path d="M8 10c-.56 0-1 .44-1 1v3c0 .55.44 1 1 1h8c.55 0 1-.45 1-1v-3c0-.56-.45-1-1-1H8Z"/><path d="M3.5 4c-.56 0-1 .44-1 1v3c0 .55.44 1 1 1h3c.55 0 1-.45 1-1V5c0-.56-.45-1-1-1h-3Zm13 1c0-.56.44-1 1-1h3c.55 0 1 .44 1 1v3c0 .55-.45 1-1 1h-3c-.56 0-1-.45-1-1V5Z"/><path d="M15.293 18.7l-4-4 1.41-1.42 4 4 -1.42 1.41Z"/><path d="M8.7 18.7l3.99-4 -1.42-1.42 -4 4 1.41 1.41Z"/></g></svg>