<svg viewBox="0 0 24 24" xmlns="http://www.w3.org/2000/svg"><g fill-rule="evenodd"><path d="M11.33 1c-.26 0-.5.09-.69.27l-5.34 5c-.3.28-.4.71-.25 1.09 .15.38.51.63.92.63h12c.41 0 .77-.26.93-.64 .15-.39.05-.82-.25-1.1l-5.34-5c-.19-.18-.43-.28-.69-.28h-1.34Z"/><path d="M21 23H3v-2h18v2Z"/><path d="M20 16.5H4v-2h16v2Z"/><path d="M20 11.5H4v-2h16v2Z"/><path d="M5 7c0-.56.44-1 1-1h12c.55 0 1 .44 1 1v15c0 .55-.45 1-1 1h-4c.55 0 1-.45 1-1v-4c0-.56-.45-1-1-1h-4c-.56 0-1 .44-1 1v4c0 .55.44 1 1 1H6c-.56 0-1-.45-1-1V7Zm3.5 7h2v-2h-2v2Zm7 0h-2v-2h2v2Z"/></g></svg>