<svg viewBox="0 0 24 24" xmlns="http://www.w3.org/2000/svg"><g fill-rule="evenodd"><path d="M4 8c0-.56.44-1 1-1h14c.55 0 1 .44 1 1v3h-2V9H6v2H4V8Zm1 13h14v2H5v-2Z"/><path d="M10 16c-.56 0-1 .44-1 1v5c0 .55.44 1 1 1h4c.55 0 1-.45 1-1v-5c0-.56-.45-1-1-1h-4Z"/><path d="M2 10.9c.04-.52.47-.91.99-.91h4.5c.55 0 1 .44 1 1v11c0 .55-.45 1-1 1h-5.5c-.29 0-.55-.12-.74-.33 -.19-.21-.29-.49-.26-.77l1-11Zm14.49-.91c-.56 0-1 .44-1 1v11c0 .55.44 1 1 1h5.5c.28 0 .54-.12.73-.33 .18-.21.28-.49.25-.77l-1-11c-.05-.52-.48-.91-1-.91h-4.5Z"/><path d="M12.44 1.1c-.29-.15-.62-.15-.9 0L5.75 3.99H2.98c-.56 0-1 .44-1 1 0 2.2 1.79 4 4 4h12c2.2 0 4-1.8 4-4 0-.56-.45-1-1-1h-2.77l-5.79-2.9Z"/></g></svg>