<svg viewBox="0 0 24 24" xmlns="http://www.w3.org/2000/svg"><path fill-rule="evenodd" d="M3 7c0-.56.44-1 1-1h16c.55 0 1 .44 1 1v3c0 .55-.45 1-1 1H4c-.56 0-1-.45-1-1V7Zm2 1v1h14V8H5Z"/><g><path d="M4 7h16v3H4V7Z"/><g fill-rule="evenodd"><path d="M2 21h20v2H2v-2Z"/><path d="M2.5 10c0-.56.44-1 1-1h17c.55 0 1 .44 1 1v12c0 .55-.45 1-1 1h-2.25c.55 0 1-.45 1-1v-7.25c0-1.25-1.01-2.25-2.25-2.25 -1.25 0-2.25 1-2.25 2.25V22c0 .55.44 1 1 1h-2.5c.55 0 1-.45 1-1v-7.25c0-1.25-1.01-2.25-2.25-2.25 -1.25 0-2.25 1-2.25 2.25V22c0 .55.44 1 1 1h-2.5c.55 0 1-.45 1-1v-7.25c0-1.25-1.01-2.25-2.25-2.25 -1.25 0-2.25 1-2.25 2.25V22c0 .55.44 1 1 1H3.5c-.56 0-1-.45-1-1V10Z"/><path d="M12 1C8.68 1 6 3.68 6 7c0 .55.44 1 1 1h10c.55 0 1-.45 1-1 0-3.32-2.69-6-6-6Z"/></g></g></svg>