<svg viewBox="0 0 24 24" xmlns="http://www.w3.org/2000/svg"><g fill-rule="evenodd"><path d="M16.98 10.82l2 11 -1.97.35 -2-11 1.96-.36Z"/><path d="M8.97 11.22l-2.5 11 -1.96-.45 2.5-11 1.95.44Z"/><path d="M6 10h12v2H6v-2Z"/><path d="M8 4c-.56 0-1 .44-1 1v6c0 .55.44 1 1 1h8c.55 0 1-.45 1-1V5c0-.56-.45-1-1-1H8Z"/><path d="M12.51 1.14c-.32-.2-.72-.2-1.029 0l-5 3c-.39.23-.57.69-.45 1.12 .11.43.51.73.96.73h9.99c.44 0 .84-.3.96-.74s-.07-.9-.45-1.13l-5-3Z"/><path d="M7.31 13h9.18v2H7.3v-2Z"/><path d="M6.81 16h10.18v2H6.8v-2Z"/></g></svg>