<svg viewBox="0 0 24 24" xmlns="http://www.w3.org/2000/svg"><g fill-rule="evenodd"><path d="M12.36 11.84c.23.13.38.38.38.65v6.5c0 .28-.17.54-.42.67l-5 2.5c-.24.11-.51.1-.73-.04 -.23-.14-.36-.38-.36-.64v-6c0-.27.13-.51.36-.65l4.99-3c.23-.14.52-.15.75-.01Zm-4.62 4.07v4.36l3.5-1.75V13.8l-3.5 2.1Z"/><path d="M22.39 11.86c.22.13.35.37.35.63v6.5c0 .28-.17.54-.42.67l-5 2.5c-.24.11-.51.1-.73-.04 -.23-.14-.36-.38-.36-.64v-6.5c0-.29.16-.55.41-.68l5-2.5c.23-.12.5-.11.72.03Zm-4.65 3.6v4.82l3.5-1.75v-4.823l-3.5 1.75Z"/><path d="M17.42 3.37c.2.13.32.37.32.62v6c0 .28-.17.54-.42.67l-5 2.5c-.24.11-.51.1-.73-.04 -.23-.14-.36-.38-.36-.64v-6.5c0-.31.18-.59.47-.7l4.99-2c.23-.1.49-.07.69.07Zm-4.68 3.12v4.77l3.5-1.76V5.07l-3.5 1.4Z"/><path d="M6.61 9.35c.21-.14.49-.15.72-.03l4.99 2.5c.24.12.4.36.41.64 .01.27-.13.53-.37.67l-5.01 3c-.22.13-.5.14-.73.02l-5-2.5c-.25-.13-.41-.37-.42-.65 -.02-.28.12-.54.36-.68l5-3.01Zm.41 1.49l-3.48 2.08 3.4 1.7 3.47-2.09L7 10.82Z"/><path d="M16.66 9.32c.21-.11.45-.11.67 0l5 2.5c.25.12.41.38.41.67 0 .28-.17.54-.42.67l-5 2.5c-.22.1-.46.1-.68 0l-5-2.5c-.26-.13-.42-.39-.42-.68 0-.29.16-.55.41-.68l5-2.51Zm-2.99 3.17l3.32 1.66 3.32-1.67 -3.33-1.67 -3.33 1.66Z"/><path d="M11.72 1.3c.17-.08.37-.08.55 0l5 2c.28.11.47.38.47.69 0 .3-.19.58-.48.69l-5 2c-.18.07-.38.07-.56 0l-5.01-2c-.29-.12-.48-.39-.48-.7 0-.31.18-.59.47-.7l5-2ZM9.01 3.99l2.98 1.19 2.98-1.2 -2.99-1.2 -2.99 1.19Z"/><path d="M1.6 12.36c-.23.13-.36.37-.36.63v6c0 .28.16.54.41.67l4.99 2.5c.23.11.5.1.72-.04 .22-.14.35-.38.35-.64v-6c0-.29-.17-.55-.42-.68l-5-2.5c-.24-.12-.51-.11-.73.03Zm4.64 3.6v4.32l-3.5-1.75v-4.323l3.49 1.75Z"/><path d="M11.6 11.86c-.23.13-.36.37-.36.63v6.5c0 .28.16.54.41.67l5 2.5c.23.11.5.1.72-.04 .22-.14.35-.38.35-.64v-6.5c0-.29-.17-.55-.42-.68l-5-2.5c-.24-.12-.51-.11-.73.03Zm4.64 3.6v4.82l-3.5-1.75v-4.823l3.5 1.75Z"/><path d="M6.3 3.72c-.16.38.03.82.41.97l4.52 1.81v4.77l-3.5-1.76V6.97c0-.42-.34-.75-.75-.75 -.42 0-.75.33-.75.75v3c0 .28.16.54.41.67l5 2.5c.23.11.5.1.72-.04 .22-.14.35-.38.35-.64v-6.5c0-.31-.19-.59-.48-.7l-5-2c-.39-.16-.83.03-.98.41Z"/></g></svg>