<svg viewBox="0 0 24 24" xmlns="http://www.w3.org/2000/svg"><g fill-rule="evenodd"><path d="M11.25 12c0-.42.33-.75.75-.75h10c.41 0 .75.33.75.75v10c0 .41-.34.75-.75.75H12c-.42 0-.75-.34-.75-.75V12Zm1.5.75v8.5h8.5v-8.5h-8.5Z"/><path d="M3.75 4.5c0-.42.33-.75.75-.75h5c.41 0 .75.33.75.75v1.25c0 .41-.34.75-.75.75 -.42 0-.75-.34-.75-.75v-.5h-3.5v3.5h3.5v-.5c0-.42.33-.75.75-.75 .41 0 .75.33.75.75V9.5c0 .41-.34.75-.75.75h-5c-.42 0-.75-.34-.75-.75v-5Z"/><path d="M13.75 15.5c0-.97.78-1.75 1.75-1.75h3c.96 0 1.75.78 1.75 1.75v3c0 .96-.79 1.75-1.75 1.75h-3c-.97 0-1.75-.79-1.75-1.75v-3Zm1.75-.25c-.14 0-.25.11-.25.25v3c0 .13.11.25.25.25h3c.13 0 .25-.12.25-.25v-3c0-.14-.12-.25-.25-.25h-3Z"/><path d="M11.25 2c0-.42.33-.75.75-.75h10c.41 0 .75.33.75.75v10c0 .41-.34.75-.75.75H12c-.42 0-.75-.34-.75-.75V2Zm1.5.75v8.5h8.5v-8.5h-8.5Z"/><path d="M1.25 2c0-.42.33-.75.75-.75h10c.41 0 .75.33.75.75v10c0 .41-.34.75-.75.75H2c-.42 0-.75-.34-.75-.75V2Zm1.5.75v8.5h8.5v-8.5h-8.5Z"/><path d="M1.25 12c0-.42.33-.75.75-.75h10c.41 0 .75.33.75.75v10c0 .41-.34.75-.75.75H2c-.42 0-.75-.34-.75-.75V12Zm1.5.75v8.5h8.5v-8.5h-8.5Z"/><path d="M17 5.25c-.97 0-1.75.78-1.75 1.75 0 .96.78 1.75 1.75 1.75 .57 0 1.07-.28 1.4-.71 .21-.3.34-.66.34-1.05 0-.97-.79-1.75-1.75-1.75ZM13.75 7c0-1.8 1.45-3.25 3.25-3.25 1.79 0 3.25 1.45 3.25 3.25 0 .73-.25 1.4-.66 1.95 -.6.78-1.54 1.29-2.6 1.29 -1.8 0-3.25-1.46-3.25-3.25Z"/><path d="M7 13.75c.28 0 .54.16.67.41l2.49 5c.11.23.1.5-.04.72 -.14.22-.38.35-.64.35h-5c-.26 0-.51-.14-.64-.36 -.14-.23-.15-.5-.04-.73l.62-1.25c.18-.38.63-.53 1-.34 .37.18.52.63.33 1l-.09.16h2.57l-1.3-2.58c-.21.3-.62.42-.96.25 -.38-.19-.53-.64-.34-1.01l.625-1.25c.12-.26.38-.42.67-.42Z"/></g></svg>