<svg viewBox="0 0 24 24" xmlns="http://www.w3.org/2000/svg"><path fill-rule="evenodd" d="M19.74 4.8c-2-2.08-5.22-2.08-7.21 0 -.15.14-.34.22-.55.22 -.21 0-.4-.09-.55-.23 -2-2.08-5.22-2.08-7.21 0 -2.01 2.08-2.01 5.48 0 7.56l7.74 8.04 2.95-3.08c.28-.3.76-.31 1.06-.03 .29.28.3.76.02 1.06l-3.5 3.63c-.15.14-.34.22-.55.22 -.21 0-.4-.09-.55-.23L3.1 13.35C.53 10.68.53 6.36 3.09 3.7c2.4-2.51 6.22-2.68 8.82-.51 2.59-2.17 6.41-2.01 8.82.5 2.56 2.66 2.56 6.98 0 9.64l-2.29 2.37c-.29.29-.77.3-1.07.02 -.3-.29-.31-.77-.03-1.07l2.28-2.38c2-2.09 2-5.49 0-7.57Z"/></svg>