<svg viewBox="0 0 24 24" xmlns="http://www.w3.org/2000/svg"><g fill-rule="evenodd"><path d="M11.25 5.25c0-.42.33-.75.75-.75 2.85 0 5.47.57 7.4 1.54 1.88.94 3.34 2.38 3.34 4.2 0 1.3-.76 2.42-1.86 3.27 -1.1.86-2.62 1.52-4.36 1.94 -.41.09-.81-.15-.91-.56 -.1-.41.14-.81.55-.91 1.59-.39 2.89-.99 3.78-1.68 .88-.7 1.27-1.43 1.27-2.1 0-.95-.79-2-2.52-2.87 -1.69-.85-4.07-1.39-6.74-1.39 -.42 0-.75-.34-.75-.75Zm-3.53.46c.11.39-.12.81-.52.92 -1.43.41-2.58.99-3.35 1.64 -.78.65-1.12 1.33-1.12 1.96 0 .67.39 1.4 1.27 2.09s2.18 1.28 3.78 1.67c.4.09.64.5.55.9 -.1.4-.51.64-.91.55 -1.74-.43-3.26-1.09-4.36-1.95 -1.1-.86-1.86-1.98-1.86-3.28 0-1.22.66-2.28 1.64-3.11 .98-.84 2.33-1.5 3.89-1.95 .39-.12.81.11.92.51Z"/><path d="M2 9.5c.41 0 .75.33.75.75v4c0 .66.38 1.38 1.24 2.06 .86.68 2.12 1.27 3.68 1.66 .4.1.64.5.54.91 -.11.4-.51.64-.92.54 -1.71-.43-3.19-1.1-4.26-1.96 -1.071-.86-1.81-1.96-1.81-3.25v-4c0-.42.33-.75.75-.75Zm20 0c.41 0 .75.33.75.75v4c0 1.28-.74 2.39-1.81 3.24 -1.08.85-2.56 1.52-4.26 1.95 -.41.1-.81-.15-.92-.55 -.11-.41.14-.81.54-.92 1.56-.4 2.82-.99 3.69-1.67 .86-.69 1.24-1.41 1.24-2.07v-4c0-.42.33-.75.75-.75Z"/><path d="M11.46 9.71c.29-.3.76-.3 1.06 0l4.5 4.5c.14.14.21.33.21.53v4c0 .41-.34.75-.75.75 -.42 0-.75-.34-.75-.75v-3.69l-3.75-3.75 -3.75 3.75v3.68c0 .41-.34.75-.75.75 -.42 0-.75-.34-.75-.75v-4c0-.2.07-.39.21-.54l4.5-4.51Z"/><path d="M11.46 13.71c.29-.3.76-.3 1.06 0l4.5 4.5c.29.29.29.76 0 1.06 -.3.29-.77.29-1.07 0l-3.97-3.97 -3.97 3.96c-.3.29-.77.29-1.07 0 -.3-.3-.3-.77 0-1.07l4.5-4.5Z"/></g></svg>