<svg viewBox="0 0 24 24" xmlns="http://www.w3.org/2000/svg"><path fill-rule="evenodd" d="M8.25 2c0-.42.33-.75.75-.75h6c.41 0 .75.33.75.75v6.25H22c.41 0 .75.33.75.75v6c0 .41-.34.75-.75.75h-6.25V22c0 .41-.34.75-.75.75H9c-.42 0-.75-.34-.75-.75v-6.25H2c-.42 0-.75-.34-.75-.75V9c0-.42.33-.75.75-.75h6.25v-1c0-.42.33-.75.75-.75 .41 0 .75.33.75.75V9c0 .41-.34.75-.75.75H2.75v4.5H9c.41 0 .75.33.75.75v6.25h4.5V15c0-.42.33-.75.75-.75h6.25v-4.5H15c-.42 0-.75-.34-.75-.75V2.75h-4.5v1c0 .41-.34.75-.75.75 -.42 0-.75-.34-.75-.75V2Z"/></svg>