<svg viewBox="0 0 24 24" xmlns="http://www.w3.org/2000/svg"><g fill-rule="evenodd"><path d="M12.25 2c0-.42.33-.75.75-.75h9c.41 0 .75.33.75.75v9c0 .41-.34.75-.75.75h-9c-.42 0-.75-.34-.75-.75V7c0-.42.33-.75.75-.75 .41 0 .75.33.75.75v3.25h7.5v-7.5h-7.5V4c0 .41-.34.75-.75.75 -.42 0-.75-.34-.75-.75V2Z"/><path d="M6.1 10.36c.24-.15.54-.15.78 0l4.5 2.75c.22.13.35.37.35.64v5.5c0 .26-.14.5-.36.64l-4.51 2.75c-.25.14-.55.14-.79 0l-4.5-2.75c-.23-.14-.36-.38-.36-.64v-5.5c0-.27.13-.51.35-.64l4.5-2.75Zm-3.36 3.81v4.65l3.75 2.29 3.75-2.3v-4.66l-3.75-2.3 -3.75 2.29Z"/></g></svg>