<svg viewBox="0 0 24 24" xmlns="http://www.w3.org/2000/svg"><path fill-rule="evenodd" d="M7.57 1.3c.18-.08.39-.08.57 0l3.85 1.59 3.85-1.6c.18-.08.39-.08.57 0 .18.07.32.22.4.4l.42 1.03c.15.38-.03.82-.41.97 -.39.15-.83-.03-.98-.41l-.15-.35 -3.45 1.42c-.19.07-.4.07-.58 0L8.21 2.92 6.78 6.36c-.08.18-.23.32-.41.4L2.92 8.18l1.42 3.44c.07.18.07.39 0 .57l-1.43 3.44 3.44 1.42c.18.07.32.22.4.4l1.42 3.44 3.44-1.43c.18-.08.39-.08.57 0l3.44 1.42 1.42-3.45c.07-.19.22-.33.4-.41l3.44-1.43 -1.43-3.45c-.08-.19-.08-.4 0-.58l1.42-3.45 -3.45-1.43c-.39-.16-.57-.6-.41-.98 .15-.39.59-.57.97-.41L22.12 7c.18.07.32.22.4.4 .07.18.07.39 0 .57l-1.6 3.85 1.59 3.85c.07.18.07.39 0 .57 -.08.18-.23.32-.41.4l-3.86 1.59 -1.6 3.85c-.16.38-.6.56-.98.4l-3.86-1.6 -3.86 1.59c-.39.15-.83-.03-.98-.41l-1.6-3.86 -3.86-1.6c-.19-.08-.33-.23-.41-.41 -.08-.19-.08-.4 0-.58l1.59-3.86 -1.6-3.86c-.08-.19-.08-.4 0-.58 .07-.19.22-.33.4-.41l3.85-1.6 1.59-3.86c.07-.19.22-.33.4-.41Z"/></svg>