<svg viewBox="0 0 24 24" xmlns="http://www.w3.org/2000/svg"><g fill-rule="evenodd"><path d="M16.5 1.25c.26 0 .5.13.64.35l5.5 8.99c.14.23.14.52.01.75 -.14.23-.39.38-.66.38h-11c-.28 0-.53-.15-.66-.39 -.14-.24-.13-.53.01-.76l2.75-4.5c.21-.36.67-.47 1.03-.25 .35.21.46.67.24 1.03L12.3 10.2h8.32l-4.17-6.82 -.74 1.2c-.22.35-.68.46-1.04.24 -.36-.22-.47-.68-.25-1.04l1.375-2.25c.13-.23.37-.36.64-.36Z"/><path d="M8.34 12.25c.19-.01.38.07.53.21l2.64 2.62c.14.14.22.33.22.52l.01 3.72c0 .19-.08.38-.22.53l-2.63 2.64c-.15.14-.34.22-.53.22l-3.73.01c-.2 0-.39-.08-.54-.22l-2.65-2.63c-.15-.15-.23-.34-.23-.53l-.02-3.73c-.01-.2.07-.39.21-.54l2.62-2.65c.14-.15.33-.23.52-.23l3.72-.02Zm-3.41 1.51l-2.19 2.2 .01 3.1 2.2 2.18 3.1-.02 2.18-2.21 -.02-3.11L8 13.71l-3.11.01Z"/></g></svg>