<svg viewBox="0 0 24 24" xmlns="http://www.w3.org/2000/svg"><g fill="#9545ED" fill-rule="evenodd"><path d="M1 15c0-1.11.89-2 2-2h2c.55 0 1 .44 1 1v6c0 .55-.45 1-1 1H3c-1.11 0-2-.9-2-2v-4Zm3 0H3v4h1v-4Z"/><path d="M18 14c0-.56.44-1 1-1h2c1.1 0 2 .89 2 2v4c0 1.1-.9 2-2 2h-2c-.56 0-1-.45-1-1v-6Zm2 1v4h1v-4h-1Z"/><path d="M4 4c0-1.11.89-2 2-2h12c1.1 0 2 .89 2 2v16h-2V4H6v16H4V4Z"/><g fill="#3747D6"><path d="M13.09 6.29c-.59.58-1.54.58-2.13 0L9.54 7.7c1.36 1.36 3.58 1.36 4.94 0l-1.42-1.42Z"/><path d="M14.864 9.06c-1.57 1.56-4.1 1.56-5.66 0l-1.42 1.41c2.34 2.34 6.14 2.34 8.48 0l-1.42-1.42Z"/></g></g></svg>