<svg viewBox="0 0 24 24" xmlns="http://www.w3.org/2000/svg"><g fill="#9545ED" fill-rule="evenodd"><path d="M5 19c0-2.77 2.23-5 5-5h4c2.76 0 5 2.23 5 5v3c0 .55-.45 1-1 1H6c-.56 0-1-.45-1-1v-3Zm5-3c-1.66 0-3 1.34-3 3v2h10v-2c0-1.66-1.35-3-3-3h-4Z"/><g fill="#3747D6"><path d="M7.5 8c0-2.21 1.79-4 4-4h1c2.2 0 4 1.79 4 4v2c0 2.2-1.8 4-4 4h-1c-2.21 0-4-1.8-4-4V8Zm4-2c-1.11 0-2 .89-2 2v2c0 1.1.89 2 2 2h1c1.1 0 2-.9 2-2V8c0-1.11-.9-2-2-2h-1Z"/><path d="M14.5 8c0-.56.44-1 1-1H18c.55 0 1 .44 1 1v3c0 .55-.45 1-1 1h-2.5c-.56 0-1-.45-1-1V8Zm2 1v1h.5V9h-.5Z"/><path d="M5 8c0-.56.44-1 1-1h2.5c.55 0 1 .44 1 1v3c0 .55-.45 1-1 1H6c-.56 0-1-.45-1-1V8Zm2 1v1h.5V9H7Z"/><path d="M5 7c0-3.32 2.68-6 6-6h2c3.31 0 6 2.68 6 6v3h-2V7c0-2.21-1.8-4-4-4h-2C8.79 3 7 4.79 7 7v3H5V7Z"/></g><path d="M11 22v-7h2v7h-2Z"/></g></svg>