<svg viewBox="0 0 24 24" xmlns="http://www.w3.org/2000/svg"><g fill="#9545ED" fill-rule="evenodd"><path d="M12 6c-3.32 0-6 2.68-6 6 0 3.31 2.68 6 6 6 3.31 0 6-2.69 6-6 0-3.32-2.69-6-6-6Zm-8 6c0-4.42 3.58-8 8-8 4.41 0 8 3.58 8 8 0 4.41-3.59 8-8 8 -4.42 0-8-3.59-8-8Z"/><path d="M12 3c-4.98 0-9 4.02-9 9 0 4.97 4.02 9 9 9 4.97 0 9-4.03 9-9 0-4.98-4.03-9-9-9ZM1 12C1 5.92 5.92 1 12 1c6.07 0 11 4.92 11 11 0 6.07-4.93 11-11 11C5.92 23 1 18.07 1 12Z"/><g fill="#3747D6"><path d="M10 10.86c0-1.04.83-1.87 1.86-1.87h1.63v2h-1.2l.86.57c.51.34.83.92.83 1.55 0 1.03-.84 1.86-1.87 1.86h-1.64v-2h1.19l-.87-.58c-.52-.35-.84-.93-.84-1.56Z"/><path d="M11 16v-2h2v2h-2Z"/><path d="M11 10V8h2v2h-2Z"/></g></g></svg>