<svg viewBox="0 0 24 24" xmlns="http://www.w3.org/2000/svg"><g fill="#3747D6" fill-rule="evenodd"><path d="M7.5 5.5c0-.56.44-1 1-1h7c.55 0 1 .44 1 1V8c0 2.2-1.8 4-4 4h-1c-2.21 0-4-1.8-4-4V5.5Zm2 1V8c0 1.1.89 2 2 2h1c1.1 0 2-.9 2-2V6.5h-5Z"/><path d="M7.26 3.01C7.97 1.76 9.29.99 10.73.99h2.51c1.43 0 2.76.76 3.47 2.01l.28.49c.76 1.33-.21 2.99-1.74 2.99H8.69c-1.54 0-2.5-1.66-1.74-3l.28-.5Zm3.47-.02c-.72 0-1.39.38-1.74 1l-.29.49h6.55l-.29-.5c-.36-.63-1.02-1.01-1.74-1.01H10.7Z"/><g fill="#9545ED"><path d="M9.94 12.68l2.99 9 -1.9.63 -3.01-9 1.89-.64Z"/><path d="M15.94 13.31l-3 9 -1.9-.64 3-9 1.89.63Z"/><path d="M5 17c0-2.77 2.23-5 5-5h4c2.76 0 5 2.23 5 5v5c0 .55-.45 1-1 1H6c-.56 0-1-.45-1-1v-5Zm5-3c-1.66 0-3 1.34-3 3v4h10v-4c0-1.66-1.35-3-3-3h-4Z"/></g></g></svg>