<svg viewBox="0 0 24 24" xmlns="http://www.w3.org/2000/svg"><g fill="#9545ED" fill-rule="evenodd"><path d="M12 3c-1.39 0-2.5 1.11-2.5 2.5C9.5 6.88 10.61 8 12 8c1.38 0 2.5-1.12 2.5-2.5C14.5 4.11 13.38 3 12 3ZM7.5 5.5C7.5 3.01 9.51 1 12 1c2.48 0 4.5 2.01 4.5 4.5 0 2.48-2.02 4.5-4.5 4.5 -2.49 0-4.5-2.02-4.5-4.5Z"/><path d="M15 8.5v4c0 1.65 1.34 3 3 3h.5v2H18c-2.77 0-5-2.24-5-5v-4h2Z"/><path d="M9 8.5v4c0 1.65-1.35 3-3 3h-.5v2H6c2.76 0 5-2.24 5-5v-4H9Z"/><g fill="#3747D6"><path d="M4 16.5c0-.56.44-1 1-1h14c.55 0 1 .44 1 1v3c0 .55-.45 1-1 1H5c-.56 0-1-.45-1-1v-3Zm2 1v1h12v-1H6Z"/><path d="M5 19.5c0-.56.44-1 1-1h12c.55 0 1 .44 1 1v.5c0 1.65-1.35 3-3 3H8c-1.66 0-3-1.35-3-3v-.5Zm2.13 1c.17.29.49.5.86.5h8c.37 0 .69-.21.86-.5H7.11Z"/></g></g></svg>