<svg viewBox="0 0 24 24" xmlns="http://www.w3.org/2000/svg"><g fill="#3747D6" fill-rule="evenodd"><path d="M7 15c0-1.11.89-2 2-2h6c1.1 0 2 .89 2 2v4c0 1.1-.9 2-2 2H9c-1.11 0-2-.9-2-2v-4Zm8 0H9v4h6v-4Z"/><path d="M7 16.376c.06-.55.56-.94 1.11-.87l3.87.48 3.87-.49c.54-.07 1.04.32 1.11.86 .06.54-.33 1.04-.87 1.11l-4 .5c-.09.01-.17.01-.25 0l-4.01-.5c-.55-.07-.94-.57-.87-1.12Z"/><path d="M9 12.5c0-1.11.89-2 2-2h2c1.1 0 2 .89 2 2v1c0 .55-.45 1-1 1 -.56 0-1-.45-1-1v-1h-2v1c0 .55-.45 1-1 1 -.56 0-1-.45-1-1v-1Z"/><g fill="#9545ED"><path d="M1 6c0-1.66 1.34-3 3-3h16c1.65 0 3 1.34 3 3v14.5c0 1.65-1.35 3-3 3H4c-1.66 0-3-1.35-3-3V6Zm3-1c-.56 0-1 .44-1 1v14.5c0 .55.44 1 1 1h16c.55 0 1-.45 1-1V6c0-.56-.45-1-1-1H4Z"/><path d="M1 6c0-1.66 1.34-3 3-3h16c1.65 0 3 1.34 3 3v3c0 .55-.45 1-1 1H2c-.56 0-1-.45-1-1V6Zm3-1c-.56 0-1 .44-1 1v2h18V6c0-.56-.45-1-1-1H4Z"/><path d="M6 2v3.5H4V2h2Z"/><path d="M13 2v3.5h-2V2h2Z"/><path d="M20 2v3.5h-2V2h2Z"/></g></g></svg>