<svg viewBox="0 0 24 24" xmlns="http://www.w3.org/2000/svg"><g fill="#3747D6" fill-rule="evenodd"><path d="M11 8V5h2v3h-2Z"/><path d="M6 7h12v2H6V7Z"/><path d="M14.49 8.92v-.93h2v.92c0 4.66-2.95 8.82-7.34 10.37l-1.83.64 -.67-1.89 1.82-.65c3.59-1.27 6-4.68 6-8.49Z"/><path d="M9.49 8.67v-.68h-2v.67c0 4.79 3.11 9.04 7.68 10.48l2.51.79 .6-1.91 -2.52-.8c-3.75-1.19-6.29-4.66-6.29-8.59Z"/><path fill="#9545ED" d="M1 3c0-1.11.89-2 2-2h18c1.1 0 2 .89 2 2v18c0 1.1-.9 2-2 2H3c-1.11 0-2-.9-2-2V3Zm20 0H3v18h18V3Z"/></g></svg>