<svg viewBox="0 0 24 24" xmlns="http://www.w3.org/2000/svg"><g fill="#9545ED" fill-rule="evenodd"><path d="M5.5 9.5V2h2v7.5h-2Z"/><path d="M8.5 12V2h2v10h-2Z"/><path d="M13.5 7V2h2v5h-2Z"/><path d="M16.5 9.5V2h2v7.5h-2Z"/><g fill="#3747D6"><path d="M5.52 11.11c.38-.21.86-.14 1.17.17l4 4c.26.26.36.66.24 1.02l-2.01 6c-.15.43-.56.71-1.02.68 -.46-.03-.83-.36-.92-.81l-2-10c-.09-.44.12-.87.5-1.08Zm2.1 3.92l.61 3.06 .61-1.85 -1.23-1.23Z"/><path d="M16.44 11.1c-.5-.25-1.1-.05-1.35.44l-2 4c-.15.28-.15.61 0 .89l2 4c.18.36.57.58.98.54 .41-.04.75-.33.86-.73l2-7c.13-.47-.09-.96-.52-1.17l-2-1Zm.36 2.41l-1.07 3.73 -.63-1.26 1.32-2.66 .36.18Z"/></g></g></svg>