<svg viewBox="0 0 24 24" xmlns="http://www.w3.org/2000/svg"><g fill="#9545ED" fill-rule="evenodd"><path d="M13.4 12c.4.01.76.26.9.64l1.33 3.56c.86 2.31-.85 4.78-3.32 4.78 -2.34 0-4.04-2.23-3.42-4.48l.43-1.6c.1-.37.4-.65.77-.72 .37-.08.75.07.98.38l.29.38 1.05-2.39c.16-.38.53-.61.94-.6Zm-2.62 5.48c.01.81.67 1.51 1.54 1.51 1.07 0 1.82-1.08 1.44-2.09l-.48-1.28 -.76 1.7c-.15.32-.45.54-.81.58 -.36.03-.7-.11-.92-.4l-.04-.06Z"/><g fill="#3747D6"><path d="M2 5c0-.56.44-1 1-1h18c.55 0 1 .44 1 1v17c0 .55-.45 1-1 1H3c-.56 0-1-.45-1-1V5Zm2 1v15h16V6H4Z"/><path d="M5 13c0-2.77 2.23-5 5-5h4c2.76 0 5 2.23 5 5v9c0 .55-.45 1-1 1H6c-.56 0-1-.45-1-1v-9Zm5-3c-1.66 0-3 1.34-3 3v8h10v-8c0-1.66-1.35-3-3-3h-4Z"/></g><path d="M1 2c0-.56.44-1 1-1h20c.55 0 1 .44 1 1v3c0 .55-.45 1-1 1H2c-.56 0-1-.45-1-1V2Zm2 1v1h18V3H3Z"/></g></svg>