<svg viewBox="0 0 24 24" xmlns="http://www.w3.org/2000/svg"><g fill="#9545ED" fill-rule="evenodd"><path d="M10.99 18h-8.5v-2h8.49v2Z"/><path d="M13.5 18.5H17v2h-3.5v-2Z"/><path d="M7 10H2.5V8H7v2Z"/><path d="M9.5 5.5H17v2H9.5v-2Z"/><g fill="#3747D6"><path d="M18.58 15.7c-.34.54-.59 1.35-.59 2.29s.24 1.75.58 2.29c.34.55.69.7.91.7 .22 0 .57-.15.91-.71 .33-.55.58-1.36.58-2.3 0-.95-.25-1.76-.59-2.3 -.35-.56-.7-.71-.92-.71 -.23 0-.58.14-.92.7Zm-1.7-1.06c.55-.9 1.45-1.65 2.61-1.65 1.15 0 2.05.74 2.61 1.64 .56.9.88 2.09.88 3.35 0 1.26-.32 2.45-.89 3.35 -.56.89-1.46 1.64-2.62 1.64 -1.16 0-2.06-.75-2.62-1.65 -.57-.91-.89-2.1-.89-3.36 0-1.27.31-2.452.88-3.36Z"/><path d="M18.58 5.7c-.34.54-.59 1.35-.59 2.29s.24 1.75.58 2.29c.34.55.69.7.91.7 .22 0 .57-.15.91-.71 .33-.55.58-1.36.58-2.3 0-.95-.25-1.76-.59-2.3 -.35-.56-.7-.71-.92-.71 -.23 0-.58.14-.92.7Zm-1.7-1.06c.55-.9 1.45-1.65 2.61-1.65 1.15 0 2.05.74 2.61 1.64 .56.9.88 2.09.88 3.35 0 1.26-.32 2.452-.89 3.35 -.56.89-1.46 1.64-2.62 1.64 -1.16 0-2.06-.75-2.62-1.65 -.57-.91-.89-2.1-.89-3.36 0-1.27.31-2.452.88-3.36Z"/><path d="M3.58 15.7c-.34.54-.59 1.35-.59 2.29s.24 1.75.58 2.29c.34.55.69.7.91.7h15v2h-15c-1.16 0-2.06-.75-2.62-1.65 -.57-.91-.89-2.1-.89-3.36 0-1.27.31-2.452.88-3.36 .55-.9 1.45-1.65 2.61-1.65h15v2h-15c-.23 0-.58.14-.92.7Z"/><path d="M10.1 1.55c.16-.34.51-.56.89-.56h3c.34 0 .66.17.85.47 .18.29.19.66.04.97l-.28.55h4.88v2h-6.5c-.35 0-.67-.18-.86-.48 -.19-.3-.2-.67-.05-.98l.27-.56h-.77l-.73 1.44c-.17.33-.52.55-.9.55h-5.5c-.23 0-.58.14-.92.7 -.34.54-.59 1.35-.59 2.29s.24 1.75.58 2.29c.34.55.69.7.91.7h15v2h-15c-1.16 0-2.06-.75-2.62-1.65 -.57-.91-.89-2.1-.89-3.36 0-1.27.31-2.452.88-3.36 .55-.9 1.45-1.65 2.61-1.65h4.88L10 1.46Z"/></g></g></svg>