<svg viewBox="0 0 24 24" xmlns="http://www.w3.org/2000/svg"><g fill="#9545ED" fill-rule="evenodd"><path d="M13.53 15.5v-7h2v7h-2Z"/><path d="M17.06 14.616l-6.07-3.5 1-1.74 6.06 3.5 -1 1.73Z"/><path d="M12 14.616l6.06-3.5 -1-1.74 -6.07 3.5 1 1.73Z"/><path fill="#3747D6" d="M13.5 3c-2.21 0-4 1.79-4 4v3.57c0 .37-.21.71-.55.88 -.34.17-.734.14-1.04-.08l-1.14-.82c-.96-.69-2.28 0-2.28 1.17 0 .46.22.9.6 1.17l3.97 2.84c.26.18.41.49.41.81v1.42h10v-11c0-2.21-1.8-4-4-4h-2Zm-6 4c0-3.32 2.68-6 6-6h2c3.31 0 6 2.68 6 6v12c0 .55-.45 1-1 1h-12c-.56 0-1-.45-1-1v-1.92l-3.56-2.55c-.91-.65-1.45-1.69-1.45-2.81 0-2.63 2.77-4.22 5-3.08V6.96Z"/><path d="M7.5 19c0-.56.44-1 1-1h12c.55 0 1 .44 1 1v3c0 .55-.45 1-1 1h-12c-.56 0-1-.45-1-1v-3Zm2 1v1h10v-1h-10Z"/></g></svg>