<svg viewBox="0 0 24 24" xmlns="http://www.w3.org/2000/svg"><path fill="#3747D6" fill-rule="evenodd" d="M10.394 1.83c.36-.53.96-.84 1.6-.84 .63 0 1.23.31 1.6.83l3.21 4.59c.21.3.24.7.06 1.03 -.18.33-.52.53-.89.53h-.08l2.39 3.42c.21.3.24.7.06 1.03 -.18.33-.52.53-.89.53h-.92l2.7 3.37c.24.3.28.71.12 1.05 -.17.34-.52.56-.91.56h-4v4c0 .55-.45 1-1 1h-3c-.56 0-1-.45-1-1v-4h-4c-.39 0-.74-.23-.91-.57 -.17-.35-.12-.76.12-1.06l2.7-3.38h-.92c-.38 0-.72-.21-.89-.54 -.18-.34-.15-.73.06-1.04l2.39-3.43h-.08c-.38 0-.72-.21-.89-.54 -.18-.34-.15-.73.06-1.04l3.21-4.6Zm-.48 4.16h.07c.37 0 .71.2.88.53 .17.33.14.72-.07 1.03l-2.4 3.42h1.07c.38 0 .73.22.9.56 .16.34.11.75-.13 1.05l-2.71 3.37h2.91c.55 0 1 .44 1 1v4h1v-4c0-.56.44-1 1-1h2.91l-2.71-3.38c-.25-.31-.29-.72-.13-1.06 .16-.35.51-.57.9-.57h1.07l-2.4-3.43c-.22-.31-.24-.71-.07-1.04 .17-.34.51-.54.88-.54h.07l-2.08-2.98 -2.08 2.97Z"/></svg>