<svg viewBox="0 0 24 24" xmlns="http://www.w3.org/2000/svg"><g fill="#9545ED" fill-rule="evenodd"><path d="M9 17c0-.56.44-1 1-1h4c.55 0 1 .44 1 1v5c0 .55-.45 1-1 1h-4c-.56 0-1-.45-1-1v-5Zm2 1v3h2v-3h-2Z"/><path fill="#3747D6" d="M6 21v-7H4v8c0 .55.44 1 1 1h14c.55 0 1-.45 1-1v-8h-2v7H6Z"/><path d="M11.29 1.29c.39-.4 1.02-.4 1.41 0l10 10c.18.18.29.44.29.7v5c0 .4-.25.76-.62.92 -.38.15-.81.06-1.09-.22l-9.3-9.3v5.08c0 1.38-1.12 2.5-2.5 2.5 -1.39 0-2.5-1.12-2.5-2.5v-.09l-4.3 4.29c-.29.28-.72.37-1.09.21 -.38-.16-.62-.52-.62-.93v-5c0-.27.1-.52.29-.71l10-10Zm-8.3 11.12v2.17l4.29-4.3c.28-.29.71-.38 1.08-.22 .37.15.61.51.61.92v2.5c0 .27.22.5.5.5 .27 0 .5-.23.5-.5v-5.5c0-.27.1-.52.29-.71l1-1c.39-.4 1.02-.4 1.41 0l8.29 8.29v-2.18l-9-9 -9 8.99Z"/></g></svg>