<svg viewBox="0 0 24 24" xmlns="http://www.w3.org/2000/svg"><g fill="#9545ED" fill-rule="evenodd"><path d="M6 5h6v2H6V5Z"/><path d="M20.43 8.38l-.48-1.67 -1.93.54 .87 3.07 -1.71 2.21 1.58 1.22 4-5.18 -1.59-1.23 -.78.99Z"/><path d="M3.56 8.38l.47-1.67 1.92.54 -.88 3.07 1.7 2.21 -1.59 1.22 -4-5.18 1.58-1.23 .77.99Z"/><path d="M11 14v-2h2v2h-2Z"/><path d="M11 18v-2h2v2h-2Z"/><g fill="#3747D6"><path d="M12 3c-1.39 0-2.5 1.11-2.5 2.5C9.5 6.88 10.61 8 12 8c1.38 0 2.5-1.12 2.5-2.5C14.5 4.11 13.38 3 12 3ZM7.5 5.5C7.5 3.01 9.51 1 12 1c2.48 0 4.5 2.01 4.5 4.5 0 2.48-2.02 4.5-4.5 4.5 -2.49 0-4.5-2.02-4.5-4.5Z"/><path d="M12 10c-3.04 0-5.5 2.46-5.5 5.5 0 3.03 2.46 5.5 5.5 5.5 3.03 0 5.5-2.47 5.5-5.5 0-3.04-2.47-5.5-5.5-5.5Zm-7.5 5.5C4.5 11.35 7.85 8 12 8c4.14 0 7.5 3.35 7.5 7.5 0 4.14-3.36 7.5-7.5 7.5 -4.15 0-7.5-3.36-7.5-7.5Z"/></g></g></svg>