<svg viewBox="0 0 24 24" xmlns="http://www.w3.org/2000/svg"><g fill="#9545ED" fill-rule="evenodd"><path d="M12 4.58l-3.3-3.3 -1.42 1.41 4 4c.39.39 1.02.39 1.41 0l4-4 -1.42-1.42 -3.3 3.29Z"/><path d="M12 19.41L8.7 22.7l-1.42-1.42 4-4c.39-.4 1.02-.4 1.41 0l4 4 -1.42 1.41 -3.3-3.3Z"/><path d="M5.57 8.29l-4.5 1.2 .51 1.93 5.46-1.47c.53-.15.85-.7.7-1.23L6.27 3.25l-1.94.51 1.2 4.49Z"/><path d="M18.42 15.7l1.2 4.49 -1.94.51 -1.47-5.47c-.15-.54.17-1.09.7-1.23l5.46-1.47 .51 1.93 -4.5 1.2Z"/><path d="M18.42 8.29l4.49 1.2 -.52 1.93 -5.47-1.47c-.54-.15-.85-.7-.71-1.23l1.46-5.47 1.93.51 -1.21 4.49Z"/><path d="M5.57 15.7l-1.21 4.49 1.93.51 1.46-5.47c.14-.54-.18-1.09-.71-1.23l-5.47-1.47 -.52 1.93 4.49 1.2Z"/><g fill="#3747D6"><path d="M11 22V2h2v20h-2Z"/><path d="M20.16 17.866l-17.33-10 1-1.74 17.32 10 -1 1.73Z"/><path d="M3.83 17.866l17.32-10 -1-1.74 -17.33 10 1 1.73Z"/></g></g></svg>