<svg viewBox="0 0 24 24" xmlns="http://www.w3.org/2000/svg"><g fill="#9545ED" fill-rule="evenodd"><path d="M9 2c0-.56.44-1 1-1h4c.55 0 1 .44 1 1v1c0 1.65-1.35 3-3 3 -1.66 0-3-1.35-3-3V2Zm2 1c0 .55.44 1 1 1 .55 0 1-.45 1-1h-2Z"/><path fill="#3747D6" d="M8.71 1.17c.16-.12.35-.18.55-.18h5.45c.19 0 .39.05.55.17l3.78 2.55c.17.12.31.29.38.49l3.48 9.91c.08.25.07.52-.05.76 -.12.23-.33.42-.58.51l-2.37.82c-.44.15-.92-.02-1.17-.4l-1.3-1.99v3.14c0 .55-.45 1-1 1h-9c-.56 0-1-.45-1-1V13.8l-1.3 1.98c-.26.38-.74.54-1.17.39l-2.37-.83c-.26-.09-.46-.28-.58-.52 -.12-.24-.14-.52-.05-.77l3.48-9.92c.07-.21.2-.38.38-.5L8.6 1.07Zm.86 1.82L6.31 5.18l-3.05 8.65 .67.23 2.7-4.15c.24-.38.69-.54 1.12-.42 .42.12.71.516.71.95v5.5h7v-5.5c0-.45.29-.84.71-.96 .42-.13.88.04 1.12.41l2.7 4.14 .67-.24 -3.05-8.66 -3.26-2.2H9.5Z"/><path d="M6.5 17c0-.56.44-1 1-1h9c.55 0 1 .44 1 1v3.5c0 .55-.45 1-1 1h-9c-.56 0-1-.45-1-1V17Zm2 1v1.5h7V18h-7Z"/></g></svg>