<svg viewBox="0 0 24 24" xmlns="http://www.w3.org/2000/svg"><g fill="#9545ED" fill-rule="evenodd"><path d="M2 3c0-.56.44-1 1-1h6c.55 0 1 .44 1 1v3c0 .55-.45 1-1 1H3c-.56 0-1-.45-1-1V3Zm2 1v1h4V4H4Z"/><path d="M18 19c0 .55.44 1 1 1h1c1.65 0 3-1.35 3-3 0-1.66-1.35-3-3-3h-1c-.56 0-1 .44-1 1v4Zm2-1v-2c.55 0 1 .44 1 1 0 .55-.45 1-1 1Z"/><g fill="#3747D6"><path d="M1 6c0-.56.44-1 1-1h8c.55 0 1 .44 1 1v14c0 .55-.45 1-1 1H2c-.56 0-1-.45-1-1V6Zm2 1v12h6V7H3Z"/><path d="M12 18c0 1.65 1.34 3 3 3h2c1.65 0 3-1.35 3-3v-3c0-.56-.45-1-1-1h-6c-.56 0-1 .44-1 1v3Zm3 1c-.56 0-1-.45-1-1v-2h4v2c0 .55-.45 1-1 1h-2Z"/></g></g></svg>