<svg viewBox="0 0 24 24" xmlns="http://www.w3.org/2000/svg"><g fill="#9545ED" fill-rule="evenodd"><path d="M8.11 13.76c-.4-.4-.4-1.03 0-1.42l4.24-4.25c.39-.4 1.02-.4 1.41 0l2.12 2.12c.39.39.39 1.02 0 1.41l-4.25 4.24c-.4.39-1.03.39-1.42 0l-2.13-2.13Zm2.12-.71l.7.7 2.82-2.83 -.71-.71 -2.83 2.82Z"/><path fill="#3747D6" d="M4.22 19.77c-1.96-1.96-1.96-5.12 0-7.08L12.7 4.2c1.95-1.96 5.11-1.96 7.07 0 1.95 1.95 1.95 5.11 0 7.07l-8.49 8.48c-1.96 1.95-5.12 1.95-7.08 0Zm1.41-5.66c-1.18 1.17-1.18 3.07 0 4.24 1.17 1.17 3.07 1.17 4.24 0l8.48-8.49c1.17-1.18 1.17-3.08 0-4.25 -1.18-1.18-3.08-1.18-4.25 0l-8.49 8.48Z"/></g></svg>