<svg viewBox="0 0 24 24" xmlns="http://www.w3.org/2000/svg"><g fill="#9545ED" fill-rule="evenodd"><path d="M8.2 18.7l-3 3 -1.42-1.42 3-3 1.41 1.41Z"/><path d="M15.79 18.7l3 3 1.41-1.42 -3-3 -1.42 1.41Z"/><path d="M8.2 15.2l-3 3 -1.42-1.42 3-3 1.41 1.41Z"/><path d="M15.79 15.2l3 3 1.41-1.42 -3-3 -1.42 1.41Z"/><path d="M8.2 11.7l-3 3 -1.42-1.42 3-3 1.41 1.41Z"/><path d="M15.79 11.7l3 3 1.41-1.42 -3-3 -1.42 1.41Z"/><path d="M12.52 8.14c.29.18.47.5.47.85v5h1v2h-4v-2h.99V10.6l-.56.27 -.9-1.79 1.99-1c.31-.16.67-.14.97.04Z"/><path fill="#3747D6" d="M5.5 2.5c0-.56.44-1 1-1H9c.55 0 1 .44 1 1 0 1.1.89 2 2 2 1.1 0 2-.9 2-2 0-.56.44-1 1-1h2.5c.55 0 1 .44 1 1v4.04c0 1.36.46 2.68 1.31 3.74l.46.58c.14.17.21.39.21.62v10c0 .55-.45 1-1 1h-15c-.56 0-1-.45-1-1v-10c0-.23.07-.45.21-.63l.46-.59C5 9.19 5.46 7.87 5.46 6.51V2.46Zm2 1v3.04c0 1.81-.62 3.57-1.76 4.99l-.25.3v8.64h13v-8.65l-.25-.31c-1.14-1.42-1.76-3.19-1.76-5V3.46h-.63c-.45 1.72-2.02 3-3.88 3 -1.87 0-3.43-1.28-3.88-3h-.63Z"/></g></svg>