<svg viewBox="0 0 24 24" xmlns="http://www.w3.org/2000/svg"><g fill="#3747D6" fill-rule="evenodd"><path d="M11.99 16.5c-2.1 0-3.77.79-4.53 1.75L5.89 17c1.24-1.58 3.58-2.52 6.09-2.52s4.84.94 6.09 2.51l-1.57 1.24c-.77-.97-2.44-1.76-4.53-1.76Z"/><g fill="#9545ED"><path d="M11.48 1.14c.3-.19.67-.19.98-.03l6.5 3.5c.32.17.52.51.52.88 0 .36-.21.7-.53.88l-6.5 3.5c-.31.16-.69.15-.99-.03 -.31-.19-.49-.51-.49-.86v-7c0-.36.18-.68.48-.86Zm1.51 2.53v3.65l3.39-1.83 -3.4-1.83Z"/><path d="M11 21.5V2h2v19.5h-2Z"/></g><path d="M11.99 20.71L2.61 13.2l-1.25 1.56 9.99 8c.36.29.88.29 1.24 0l10-8 -1.25-1.57 -9.38 7.5Z"/></g></svg>