<svg viewBox="0 0 24 24" xmlns="http://www.w3.org/2000/svg"><g fill="#9545ED" fill-rule="evenodd"><path d="M6.83 15.18c-1.31.73-1.84 1.58-1.84 2.31 0 .72.53 1.57 1.83 2.31 1.27.71 3.09 1.18 5.16 1.18 2.06 0 3.89-.48 5.16-1.19 1.3-.74 1.83-1.59 1.83-2.32 0-.73-.53-1.58-1.84-2.32 -1.28-.72-3.1-1.19-5.17-1.19s-3.9.47-5.17 1.18Zm-.99-1.75c1.62-.92 3.79-1.45 6.14-1.45 2.34 0 4.52.53 6.14 1.44 1.59.89 2.85 2.28 2.85 4.05 0 1.76-1.27 3.15-2.86 4.05 -1.63.91-3.8 1.44-6.15 1.44 -2.35 0-4.53-.54-6.15-1.45 -1.6-.9-2.86-2.29-2.86-4.06 0-1.77 1.26-3.16 2.85-4.06Z"/><g fill="#3747D6"><path d="M11.48 1.14c.3-.19.67-.19.98-.03l6.5 3.5c.32.17.52.51.52.88 0 .36-.21.7-.53.88l-6.5 3.5c-.31.16-.69.15-.99-.03 -.31-.19-.49-.51-.49-.86v-7c0-.36.18-.68.48-.86Zm1.51 2.53v3.65l3.39-1.83 -3.4-1.83Z"/><path d="M11 18V2h2v16h-2Z"/></g></g></svg>