<svg viewBox="0 0 24 24" xmlns="http://www.w3.org/2000/svg"><g fill="#9545ED" fill-rule="evenodd"><path d="M4.65 1.46c.18-.29.5-.47.84-.47h4.5c.39 0 .75.23.91.59l3.5 8 -1.84.8 -3.24-7.41H7.04l3.32 7.07 -1.81.85 -4-8.5c-.15-.31-.13-.68.06-.97Z"/><path d="M18.83 1.45c-.19-.29-.5-.46-.84-.46h-4.5c-.4 0-.76.23-.92.59l-1.75 4 1.83.8 1.48-3.41h2.317l-2.89 6.59 1.83.8 3.5-8c.13-.31.1-.67-.08-.95Z"/><path fill="#3747D6" d="M12 11c-2.77 0-5 2.23-5 5 0 2.76 2.23 5 5 5 2.76 0 5-2.24 5-5 0-2.77-2.24-5-5-5Zm-7 5c0-3.87 3.13-7 7-7 3.86 0 7 3.13 7 7 0 3.86-3.14 7-7 7 -3.87 0-7-3.14-7-7Z"/></g></svg>