<svg viewBox="0 0 24 24" xmlns="http://www.w3.org/2000/svg"><g fill="#9545ED" fill-rule="evenodd"><path d="M7 9.07c-3.4.48-6 3.4-6 6.92 0 3.86 3.13 7 7 7 3.86 0 7-3.14 7-7 0-3.53-2.61-6.45-6-6.93V1.98H7v7.07Zm1 1.92c-2.77 0-5 2.23-5 5 0 2.76 2.23 5 5 5 2.76 0 5-2.24 5-5 0-2.77-2.24-5-5-5Z"/><path fill="#3747D6" d="M15 9.07c-3.4.48-6 3.4-6 6.92 0 3.86 3.13 7 7 7 3.86 0 7-3.14 7-7 0-3.53-2.61-6.45-6-6.93V1.98h-2v7.07Zm1 1.92c-2.77 0-5 2.23-5 5 0 2.76 2.23 5 5 5 2.76 0 5-2.24 5-5 0-2.77-2.24-5-5-5Z"/></g></svg>