<svg viewBox="0 0 24 24" xmlns="http://www.w3.org/2000/svg"><g fill="#9545ED" fill-rule="evenodd"><path d="M2.75 16.03l7.5 2 -.52 1.93 -7.5-2 .51-1.94Z"/><path d="M13.74 18.03l7.5-2 .51 1.93 -7.5 2 -.52-1.94Z"/><path d="M9.5 13V7h2v6h-2Z"/><path d="M12.5 11.5V7h2v4.5h-2Z"/><path d="M3 4.5c0-.56.44-1 1-1h16c.55 0 1 .44 1 1V7c0 .55-.45 1-1 1H4c-.56 0-1-.45-1-1V4.5Zm2 1V6h14v-.5H5Z"/><path fill="#3747D6" d="M3.01 6.84c.07-.49.49-.85.98-.85h16c.49 0 .91.36.98.84l2 12.99c.07.49-.23.97-.72 1.11l-7 2c-.5.14-1.02-.12-1.21-.6l-2.08-5.18 -2.08 5.17c-.2.47-.72.73-1.21.59l-7-2c-.49-.14-.8-.62-.72-1.12l2-13Zm1.84 1.15L3.11 19.27l5.28 1.5 2.66-6.67c.15-.38.51-.63.92-.63 .4 0 .77.24.92.62l2.66 6.66 5.28-1.51 -1.74-11.29H4.8Z"/></g></svg>