<svg viewBox="0 0 24 24" xmlns="http://www.w3.org/2000/svg"><g fill="#9545ED" fill-rule="evenodd"><path d="M2.79 10.7l-1.5-1.5L2.7 7.78l1.2 1.2h16.17l1.2-1.21 1.41 1.41 -1.5 1.49c-.19.18-.45.29-.71.29H3.46c-.27 0-.52-.11-.71-.3Z"/><g fill="#3747D6"><path d="M17.5 13.5c-.28 0-.5.22-.5.5 0 .27.22.5.5.5 .27 0 .5-.23.5-.5 0-.28-.23-.5-.5-.5ZM15 14c0-1.39 1.11-2.5 2.5-2.5 1.38 0 2.5 1.11 2.5 2.5 0 1.38-1.12 2.5-2.5 2.5 -1.39 0-2.5-1.12-2.5-2.5Z"/><path d="M6.5 13.5c-.28 0-.5.22-.5.5 0 .27.22.5.5.5 .27 0 .5-.23.5-.5 0-.28-.23-.5-.5-.5ZM4 14c0-1.39 1.11-2.5 2.5-2.5C7.88 11.5 9 12.61 9 14c0 1.38-1.12 2.5-2.5 2.5C5.11 16.5 4 15.38 4 14Z"/></g></g></svg>