<svg viewBox="0 0 24 24" xmlns="http://www.w3.org/2000/svg"><g fill="#9545ED" fill-rule="evenodd"><path d="M1 15c0-.56.44-1 1-1h6.5c.55 0 1 .44 1 1v7c0 .55-.45 1-1 1H2c-.56 0-1-.45-1-1v-7Zm2 1v5h4.5v-5H3Z"/><path d="M14 18c0-.56.44-1 1-1h6.5c.55 0 1 .44 1 1v4c0 .55-.45 1-1 1H15c-.56 0-1-.45-1-1v-4Zm2 1v2h4.5v-2H16Z"/><g fill="#3747D6"><path d="M7.5 12c0-.56.44-1 1-1H15c.55 0 1 .44 1 1v10c0 .55-.45 1-1 1H8.5c-.56 0-1-.45-1-1V12Zm2 1v8H14v-8H9.5Z"/><path d="M12.52 2.14c.29.18.47.5.47.85v5h1v2h-4v-2h.99V4.6l-.56.27 -.9-1.79 1.99-1c.31-.16.67-.14.97.04Z"/></g></g></svg>