<svg viewBox="0 0 24 24" xmlns="http://www.w3.org/2000/svg"><g fill="#9545ED" fill-rule="evenodd"><path d="M13 13.23v8.76h-2v-8.77h2Z"/><path fill="#3747D6" d="M12.76 1.35l-.77.64 -.77-.65c.19-.23.46-.36.76-.36 .29 0 .57.12.76.35Zm2.23 20.84l.99.09c-.06.51-.49.9-1 .9h-6c-.52 0-.95-.39-1-.91l.99-.1c-1 .09-1 .09-1 .09l-.05-.44c-.03-.28-.07-.68-.12-1.17 -.1-.98-.22-2.3-.35-3.68 -.25-2.75-.51-5.86-.51-7.03 0-1.02.3-2.07.7-3.04 .4-.98.93-1.93 1.45-2.75 .51-.83 1.03-1.54 1.42-2.05 .19-.26.35-.46.47-.6 .05-.08.1-.13.13-.17l.03-.05 .01-.02 0-.01 0-.01c0-.01 0 0 .76.64 .76-.65.76-.65.76-.65l0 0 0 0 .01.01 .03.04c.03.03.07.09.13.16 .11.14.27.34.47.59 .38.5.9 1.22 1.42 2.04 .51.82 1.04 1.77 1.45 2.74 .39.96.7 2.01.7 3.03 0 1.16-.26 4.27-.51 7.02 -.13 1.38-.26 2.7-.35 3.67 -.05.48-.09.88-.12 1.16l-.05.43s0 0-1-.1Zm-5.1-1h4.18c.01-.21.04-.44.06-.69 .09-.97.21-2.29.34-3.67 .25-2.795.49-5.79.49-6.85 0-.65-.2-1.42-.55-2.27 -.35-.84-.82-1.69-1.3-2.45 -.41-.65-.82-1.23-1.16-1.68 -.34.45-.75 1.02-1.16 1.67 -.49.76-.96 1.6-1.3 2.44 -.36.84-.55 1.62-.55 2.26 0 1.05.24 4.04.49 6.84 .12 1.38.24 2.69.34 3.66 .02.25.04.48.06.68Z"/></g></svg>