<svg viewBox="0 0 24 24" xmlns="http://www.w3.org/2000/svg"><g fill="#9545ED" fill-rule="evenodd"><path d="M4.32 4.3c.37-.41 1-.43 1.41-.05 4.44 4.14 4.68 11.1.54 15.54 -.38.4-1.01.42-1.42.04 -.41-.38-.43-1.01-.05-1.42 3.38-3.64 3.19-9.34-.45-12.73 -.41-.38-.43-1.01-.05-1.42Z"/><path d="M19.42 3.8c.4.37.42 1 .04 1.41 -3.39 3.63-3.2 9.33.44 12.72 .4.37.42 1 .04 1.41 -.38.4-1.01.42-1.42.04 -4.45-4.15-4.69-11.11-.55-15.55 .37-.41 1-.43 1.41-.05Z"/><path fill="#3747D6" d="M12 3c-4.98 0-9 4.02-9 9 0 4.97 4.02 9 9 9 4.97 0 9-4.03 9-9 0-4.98-4.03-9-9-9ZM1 12C1 5.92 5.92 1 12 1c6.07 0 11 4.92 11 11 0 6.07-4.93 11-11 11C5.92 23 1 18.07 1 12Z"/></g></svg>