<svg viewBox="0 0 24 24" xmlns="http://www.w3.org/2000/svg"><g fill-rule="evenodd"><path d="M18 2.5H4.5v-1H18c1.93 0 3.5 1.56 3.5 3.5v17c0 .27-.23.5-.5.5H7c-.28 0-.5-.23-.5-.5V7h1v14.5h13V5c0-1.39-1.12-2.5-2.5-2.5Z"/><path d="M1.5 4.5c0-1.66 1.34-3 3-3 1.65 0 3 1.34 3 3V9c0 .27-.23.5-.5.5H2c-.28 0-.5-.23-.5-.5V4.5Zm3-2c-1.11 0-2 .89-2 2v4h4v-4c0-1.11-.9-2-2-2Z"/><path d="M11.5 10c0-.28.22-.5.5-.5h5c.27 0 .5.22.5.5v5c0 .27-.23.5-.5.5h-5c-.28 0-.5-.23-.5-.5v-5Zm1 .5v4h4v-4h-4Z"/><path d="M14 12v-2h1v2h-1Z"/></g></svg>