<svg viewBox="0 0 24 24" xmlns="http://www.w3.org/2000/svg"><g fill-rule="evenodd"><path d="M5.5 15c0-.28.22-.5.5-.5h12c.27 0 .5.22.5.5v7c0 .27-.23.5-.5.5H6c-.28 0-.5-.23-.5-.5v-7Zm1 .5v6h11v-6h-11Z"/><path d="M5.53 9.81c.07-.19.25-.32.46-.32h12c.2 0 .38.12.46.31l2 5c.06.15.04.32-.06.46 -.1.13-.25.21-.42.21h-16c-.17 0-.33-.09-.42-.22 -.1-.14-.12-.32-.06-.47l2-5Zm.8.68l-1.6 4h14.523l-1.6-4H6.33Z"/><path d="M12.5 7V2h-1v5h1Z"/><path d="M11.64 7.85c.19.19.51.19.7 0l2-2 -.71-.71 -1.65 1.64 -1.65-1.65 -.71.7 2 2Z"/><path d="M15.5 19.5H13v-1h2.5v1Z"/></g></svg>