<svg viewBox="0 0 24 24" xmlns="http://www.w3.org/2000/svg"><g fill-rule="evenodd"><path d="M1.5 4c0-1.39 1.11-2.5 2.5-2.5h16c1.38 0 2.5 1.11 2.5 2.5v16c0 1.38-1.12 2.5-2.5 2.5H2v-1h18c.82 0 1.5-.68 1.5-1.5V4c0-.83-.68-1.5-1.5-1.5H4c-.83 0-1.5.67-1.5 1.5v6h-1V4Z"/><path d="M8.5 2c0-.28.22-.5.5-.5h6c.27 0 .5.22.5.5v7c0 .16-.08.31-.21.4 -.14.09-.3.11-.46.06l-2.85-.95 -2.85.94c-.16.05-.33.02-.46-.07 -.14-.1-.21-.25-.21-.41v-7Zm1 .5v5.8l2.34-.79c.1-.04.21-.04.31 0l2.34.78V2.48h-5Z"/><path d="M9 18.5H2v-1h7v1Z"/><path d="M9 14.5H4v-1h5v1Z"/></g></svg>