<svg viewBox="0 0 24 24" xmlns="http://www.w3.org/2000/svg"><g fill-rule="evenodd"><path d="M1.5 12c0-.28.22-.5.5-.5h10c.27 0 .5.22.5.5v10c0 .27-.23.5-.5.5H2c-.28 0-.5-.23-.5-.5V12Zm1 .5v9h9v-9h-9Z"/><path d="M11.5 12c0-.28.22-.5.5-.5h10c.27 0 .5.22.5.5v10c0 .27-.23.5-.5.5H12c-.28 0-.5-.23-.5-.5V12Zm1 .5v9h9v-9h-9Z"/><path d="M6.5 2c0-.28.22-.5.5-.5h10c.27 0 .5.22.5.5v10c0 .27-.23.5-.5.5H7c-.28 0-.5-.23-.5-.5V2Zm1 .5v9h9v-9h-9Z"/><path d="M9.5 2c0-.28.22-.5.5-.5h4c.27 0 .5.22.5.5v5c0 .17-.09.33-.24.42 -.15.09-.34.09-.49.02l-1.78-.89 -1.78.88c-.16.07-.34.06-.49-.03 -.15-.1-.24-.26-.24-.43v-5Zm1 .5v3.69l1.27-.64c.14-.08.3-.08.44 0l1.27.63v-3.7h-3Z"/><path d="M4.5 12c0-.28.22-.5.5-.5h4c.27 0 .5.22.5.5v5c0 .17-.09.33-.24.42 -.15.09-.34.09-.49.02l-1.78-.89 -1.78.88c-.16.07-.34.06-.49-.03 -.15-.1-.24-.26-.24-.43v-5Zm1 .5v3.69l1.27-.64c.14-.08.3-.08.44 0l1.27.63v-3.7h-3Z"/><path d="M14.5 12c0-.28.22-.5.5-.5h4c.27 0 .5.22.5.5v5c0 .17-.09.33-.24.42 -.15.09-.34.09-.49.02l-1.78-.89 -1.78.88c-.16.07-.34.06-.49-.03 -.15-.1-.24-.26-.24-.43v-5Zm1 .5v3.69l1.27-.64c.14-.08.3-.08.44 0l1.27.63v-3.7h-3Z"/></g></svg>