<svg viewBox="0 0 24 24" xmlns="http://www.w3.org/2000/svg" xmlns:xlink="http://www.w3.org/1999/xlink"><defs><path d="M1.5 2c0-.28.22-.5.5-.5h20c.27 0 .5.22.5.5v20c0 .27-.23.5-.5.5H2c-.28 0-.5-.23-.5-.5V2Zm1 .5v19h19v-19h-19Z" id="a"/><path d="M9 7.5H5v-1h4v1Z" id="c"/><path d="M6.5 9V5h1v4h-1Z" id="b"/></defs><g fill-rule="evenodd"><use xlink:href="#a"/><use xlink:href="#a"/><path d="M1.5 2c0-.28.22-.5.5-.5h10c.27 0 .5.22.5.5v10c0 .27-.23.5-.5.5H2c-.28 0-.5-.23-.5-.5V2Zm1 .5v9h9v-9h-9Z"/><path d="M1.5 12c0-.28.22-.5.5-.5h10c.27 0 .5.22.5.5v10c0 .27-.23.5-.5.5H2c-.28 0-.5-.23-.5-.5V12Zm1 .5v9h9v-9h-9Z"/><path d="M11.5 2c0-.28.22-.5.5-.5h10c.27 0 .5.22.5.5v10c0 .27-.23.5-.5.5H12c-.28 0-.5-.23-.5-.5V2Zm1 .5v9h9v-9h-9Z"/><path d="M11.5 12c0-.28.22-.5.5-.5h10c.27 0 .5.22.5.5v10c0 .27-.23.5-.5.5H12c-.28 0-.5-.23-.5-.5V12Zm1 .5v9h9v-9h-9Z"/><use xlink:href="#b"/><use xlink:href="#b"/><use xlink:href="#c"/><use xlink:href="#c"/><path d="M8.06 18.76l-2.83-2.83 .7-.71 2.82 2.82 -.71.7Z"/><path d="M8.76 15.93l-2.83 2.82 -.71-.71 2.82-2.83 .7.7Z"/><path d="M19 7.5h-4v-1h4v1Z"/><path d="M19 16h-4v-1h4v1Z"/><path d="M19 19h-4v-1h4v1Z"/></g></svg>