<svg viewBox="0 0 24 24" xmlns="http://www.w3.org/2000/svg"><g fill-rule="evenodd"><path d="M1.5 21c0-3.59 2.91-6.5 6.5-6.5h8c3.58 0 6.5 2.91 6.5 6.5 0 .82-.68 1.5-1.5 1.5H3c-.83 0-1.5-.68-1.5-1.5ZM8 15.5c-3.04 0-5.5 2.46-5.5 5.5 0 .27.22.5.5.5h18c.27 0 .5-.23.5-.5 0-3.04-2.47-5.5-5.5-5.5H8Z"/><path d="M7 9c0 1.93 1.56 3.5 3.5 3.5h3c1.93 0 3.5-1.57 3.5-3.5V3c0-.83-.68-1.5-1.5-1.5h-7C7.67 1.5 7 2.17 7 3v6Zm3.5 2.5C9.11 11.5 8 10.38 8 9V3c0-.28.22-.5.5-.5h7c.27 0 .5.22.5.5v6c0 1.38-1.12 2.5-2.5 2.5h-3Z"/><path d="M13.1 5.39c-.72-.24-1.5-.24-2.22 0L7.64 6.46l-.32-.95 3.23-1.08c.92-.31 1.92-.31 2.846 0l3.23 1.07 -.32.94 -3.24-1.08Z"/><path d="M13 10h-2V9h2v1Z"/><path d="M9 17.5c0-.28.22-.5.5-.5h5c.27 0 .5.22.5.5V22c0 .27-.23.5-.5.5h-5c-.28 0-.5-.23-.5-.5v-4.5Zm1 .5v3.5h4V18h-4Z"/><path d="M11.5 19v-1.5h1V19h-1Z"/></g></svg>