<svg viewBox="0 0 24 24" xmlns="http://www.w3.org/2000/svg"><g fill-rule="evenodd"><path d="M1.5 4c0-1.39 1.11-2.5 2.5-2.5h16c1.38 0 2.5 1.11 2.5 2.5v7h-1V4c0-.83-.68-1.5-1.5-1.5H4c-.83 0-1.5.67-1.5 1.5v16c0 .82.67 1.5 1.5 1.5h9v1H4c-1.39 0-2.5-1.12-2.5-2.5V4Z"/><path d="M8.5 2c0-.28.22-.5.5-.5h6c.27 0 .5.22.5.5v7c0 .16-.08.31-.21.4 -.14.09-.3.11-.46.06l-2.85-.95 -2.85.94c-.16.05-.33.02-.46-.07 -.14-.1-.21-.25-.21-.41v-7Zm1 .5v5.8l2.34-.79c.1-.04.21-.04.31 0l2.34.78V2.48h-5Z"/><path d="M20.87 15.1c-.84-.82-2.2-.82-3.04 0 -.2.18-.51.18-.7 0 -.84-.82-2.2-.82-3.04 0 -.83.8-.83 2.1 0 2.9l3.37 3.28 3.37-3.29c.82-.81.82-2.11 0-2.91Zm-3.38-1.01c1.22-.89 2.96-.79 4.07.29 1.23 1.19 1.23 3.14 0 4.34l-3.73 3.62c-.2.18-.51.18-.7 0l-3.73-3.63c-1.24-1.2-1.24-3.15 0-4.35 1.11-1.09 2.85-1.18 4.07-.3Z"/></g></svg>