<svg viewBox="0 0 24 24" xmlns="http://www.w3.org/2000/svg"><g fill-rule="evenodd"><path d="M6.5 2c0-.28.22-.5.5-.5h10c.27 0 .5.22.5.5v6c0 2.48-2.02 4.5-4.5 4.5h-2c-2.49 0-4.5-2.02-4.5-4.5V2Zm1 .5V8c0 1.93 1.56 3.5 3.5 3.5h2c1.93 0 3.5-1.57 3.5-3.5V2.5h-9Z"/><path d="M11.5 19v-7h1v7h-1Z"/><path d="M11.7 18.6c.17-.14.42-.14.6 0l4 3c.17.12.24.35.17.55 -.07.2-.26.34-.48.34h-8c-.22 0-.41-.14-.48-.35 -.07-.21 0-.43.17-.56l3.99-3Zm-2.2 2.9h4.99l-2.5-1.875 -2.5 1.875Z"/><path d="M10.51 5.36l1-3.5 .96.27 -.89 3.1 1.62.81c.24.12.34.42.22.67l-1 2 -.9-.45 .77-1.56 -1.56-.78c-.22-.11-.33-.36-.26-.59Z"/></g></svg>