<svg viewBox="0 0 24 24" xmlns="http://www.w3.org/2000/svg"><g fill-rule="evenodd"><path d="M6.5 2c0-.28.22-.5.5-.5h2.5c.19 0 .37.11.45.29l1.35 3c.04.09.05.2.03.31l-.38 1.77 .82 1.04 .3-1.06c.01-.07.04-.13.08-.18l1.48-1.89 .34-2.87c.02-.26.24-.45.49-.45h2.5c.27 0 .5.22.5.5v6c0 2.48-2.02 4.5-4.5 4.5h-2c-2.49 0-4.5-2.02-4.5-4.5v-6Zm1 .5V8c0 1.93 1.56 3.5 3.5 3.5h2c1.93 0 3.5-1.57 3.5-3.5V2.5h-1.56l-.31 2.55c-.02.09-.05.17-.11.24L13 7.21l-.55 1.9c-.06.18-.21.31-.39.35 -.19.03-.38-.04-.49-.19l-1.58-2c-.1-.12-.13-.27-.1-.42l.39-1.84 -1.16-2.56H7.44Z"/><path d="M11.5 19v-7h1v7h-1Z"/><path d="M11.7 18.6c.17-.14.42-.14.6 0l4 3c.17.12.24.35.17.55 -.07.2-.26.34-.48.34h-8c-.22 0-.41-.14-.48-.35 -.07-.21 0-.43.17-.56l3.99-3Zm-2.2 2.9h4.99l-2.5-1.875 -2.5 1.875Z"/></g></svg>