<svg viewBox="0 0 24 24" xmlns="http://www.w3.org/2000/svg"><g fill-rule="evenodd"><path d="M6.5 8c0-.83.67-1.5 1.5-1.5h8c.82 0 1.5.67 1.5 1.5v8c0 .82-.68 1.5-1.5 1.5H8c-.83 0-1.5-.68-1.5-1.5V8ZM8 7.5c-.28 0-.5.22-.5.5v8c0 .27.22.5.5.5h8c.27 0 .5-.23.5-.5V8c0-.28-.23-.5-.5-.5H8Z"/><path d="M10 7c0-.28.22-.5.5-.5h3c.27 0 .5.22.5.5v3.5c0 .16-.08.31-.21.4 -.14.09-.3.11-.46.06l-1.35-.45 -1.35.44c-.16.05-.33.02-.46-.07 -.14-.1-.21-.25-.21-.41v-3.5Zm1 .5v2.3l.84-.29c.1-.04.21-.04.31 0l.84.28V7.48h-2Z"/><path d="M21.29 12l-1.65-1.65 .7-.71 2 2c.19.19.19.51 0 .7l-2 2 -.71-.71 1.64-1.65Z"/><path d="M2.7 12l1.64-1.65 -.71-.71 -2 2c-.2.19-.2.51 0 .7l2 2 .7-.71 -1.65-1.65Z"/><path d="M12 2.7l-1.65 1.64 -.71-.71 2-2c.19-.2.51-.2.7-.001l2 2 -.71.7 -1.65-1.65Z"/><path d="M12 21.29l-1.65-1.65 -.71.7 2 2c.19.19.51.19.7 0l2-2 -.71-.71 -1.65 1.64Z"/></g></svg>