<svg viewBox="0 0 24 24" xmlns="http://www.w3.org/2000/svg"><g fill-rule="evenodd"><path d="M1.5 11.25c0-.83.67-1.5 1.5-1.5h2c.27 0 .5.22.5.5v8c0 .27-.23.5-.5.5H3c-.83 0-1.5-.68-1.5-1.5v-6Zm1.5-.5c-.28 0-.5.22-.5.5v6c0 .27.22.5.5.5h1.5v-7H3Z"/><path d="M9.3 13.85l3.46 2.6c.25.19.57.3.9.3h6.83c1.1 0 2 .89 2 2 0 1.1-.9 2-2 2h-8.34c-.24 0-.48-.04-.7-.1l-6.61-1.93 .27-.97 6.6 1.92c.13.03.27.05.41.05h8.33c.55 0 1-.45 1-1 0-.56-.45-1-1-1h-6.84c-.55 0-1.07-.18-1.5-.5l-3.47-2.6 .6-.8Z"/><path d="M9.17 10.75H4.99v-1h4.17c.66 0 1.29.26 1.76.73l3.39 3.39c.42.42.66 1 .66 1.6v.64c0 .89-.73 1.625-1.625 1.625 -.36 0-.7-.12-.98-.33l-3.7-2.78 .6-.8 3.7 2.77c.1.08.23.125.375.125 .34 0 .625-.28.625-.625v-.65c0-.34-.14-.66-.38-.9l-3.4-3.4c-.29-.29-.67-.44-1.07-.44Z"/><path d="M13.5 3c0-.28.22-.5.5-.5h7c.27 0 .5.22.5.5v7c0 .27-.23.5-.5.5h-7c-.28 0-.5-.23-.5-.5V3Zm1 .5v6h6v-6h-6Z"/><path d="M17 5.5V3h1v2.5h-1Z"/></g></svg>