<svg viewBox="0 0 24 24" xmlns="http://www.w3.org/2000/svg"><g fill-rule="evenodd"><path d="M9 9.5c0-.28.22-.5.5-.5h5c.27 0 .5.22.5.5v5c0 .27-.23.5-.5.5h-5c-.28 0-.5-.23-.5-.5v-5Zm1 .5v4h4v-4h-4Z"/><path d="M11.5 11.5v-2h1v2h-1Z"/><path d="M12 6c-3.32 0-6 2.68-6 6 0 3.31 2.68 6 6 6 3.31 0 6-2.69 6-6 0-3.32-2.69-6-6-6Zm-7 6c0-3.87 3.13-7 7-7 3.86 0 7 3.13 7 7 0 3.86-3.14 7-7 7 -3.87 0-7-3.14-7-7Z"/><path d="M3.5 2.5c-.56 0-1 .44-1 1 0 .55.44 1 1 1 .55 0 1-.45 1-1 0-.56-.45-1-1-1Zm-2 1c0-1.11.89-2 2-2 1.1 0 2 .89 2 2 0 1.1-.9 2-2 2 -1.11 0-2-.9-2-2Z"/><path d="M3.5 19.5c-.56 0-1 .44-1 1 0 .55.44 1 1 1 .55 0 1-.45 1-1 0-.56-.45-1-1-1Zm-2 1c0-1.11.89-2 2-2 1.1 0 2 .89 2 2 0 1.1-.9 2-2 2 -1.11 0-2-.9-2-2Z"/><path d="M20.5 2.5c-.56 0-1 .44-1 1 0 .55.44 1 1 1 .55 0 1-.45 1-1 0-.56-.45-1-1-1Zm-2 1c0-1.11.89-2 2-2 1.1 0 2 .89 2 2 0 1.1-.9 2-2 2 -1.11 0-2-.9-2-2Z"/><path d="M20.5 19.5c-.56 0-1 .44-1 1 0 .55.44 1 1 1 .55 0 1-.45 1-1 0-.56-.45-1-1-1Zm-2 1c0-1.11.89-2 2-2 1.1 0 2 .89 2 2 0 1.1-.9 2-2 2 -1.11 0-2-.9-2-2Z"/><path d="M16.14 7.14l3-3 .7.7 -3 3 -.71-.71Z"/><path d="M16.14 17.35l2.5 2.5 .7-.71 -2.5-2.5 -.71.7Z"/><path d="M7.35 7.14l-2.5-2.5 -.71.7 2.5 2.5 .7-.71Z"/><path d="M7.85 16.85l-3 3 -.71-.71 3-3 .7.7Z"/></g></svg>