<svg viewBox="0 0 24 24" xmlns="http://www.w3.org/2000/svg"><g fill-rule="evenodd"><path d="M3.5 22V2h1v20h-1Z"/><path d="M19.5 22V2h1v20h-1Z"/><path d="M6 22.5H2v-1h4v1Z"/><path d="M22 22.5h-4v-1h4v1Z"/><path d="M20 17.5H4v-1h16v1Z"/><path d="M20 7.5H4v-1h16v1Z"/><path d="M6.5 12c0-.28.22-.5.5-.5h5c.27 0 .5.22.5.5v5c0 .27-.23.5-.5.5H7c-.28 0-.5-.23-.5-.5v-5Zm1 .5v4h4v-4h-4Z"/><path d="M11.5 2c0-.28.22-.5.5-.5h5c.27 0 .5.22.5.5v5c0 .27-.23.5-.5.5h-5c-.28 0-.5-.23-.5-.5V2Zm1 .5v4h4v-4h-4Z"/><path d="M9 14v-2h1v2H9Z"/><path d="M14 4V2h1v2h-1Z"/></g></svg>