<svg viewBox="0 0 24 24" xmlns="http://www.w3.org/2000/svg"><g fill-rule="evenodd"><path d="M1.5 3c0-.83.67-1.5 1.5-1.5h18c.82 0 1.5.67 1.5 1.5v18c0 .82-.68 1.5-1.5 1.5H3c-.83 0-1.5-.68-1.5-1.5V3ZM3 2.5c-.28 0-.5.22-.5.5v18c0 .27.22.5.5.5h18c.27 0 .5-.23.5-.5V3c0-.28-.23-.5-.5-.5H3Z"/><path d="M7.5 4.5c.15 0 .3.07.4.2l3 4c.11.15.13.35.04.52 -.09.16-.26.27-.45.27h-1v5.5c0 .27-.23.5-.5.5h-3c-.28 0-.5-.23-.5-.5v-5.5h-1c-.19 0-.37-.11-.45-.28 -.09-.17-.07-.38.04-.53l3-4c.09-.13.24-.2.4-.2Zm0 1.33l-2 2.66H6c.27 0 .5.22.5.5v5.5h2v-5.5c0-.28.22-.5.5-.5h.5l-2-2.67Z"/><path d="M16 4.5c.15 0 .3.07.4.2l3 4c.11.15.13.35.04.52 -.09.16-.26.27-.45.27h-1v5.5c0 .27-.23.5-.5.5h-3c-.28 0-.5-.23-.5-.5v-5.5h-1c-.19 0-.37-.11-.45-.28 -.09-.17-.07-.38.04-.53l3-4c.09-.13.24-.2.4-.2Zm0 1.33l-2 2.66h.5c.27 0 .5.22.5.5v5.5h2v-5.5c0-.28.22-.5.5-.5h.5l-2-2.67Z"/><path d="M19 19.5H5v-1h14v1Z"/></g></svg>