<svg viewBox="0 0 24 24" xmlns="http://www.w3.org/2000/svg"><g fill-rule="evenodd"><path d="M5 3c0-.83.67-1.5 1.5-1.5h11c.82 0 1.5.67 1.5 1.5v18c0 .82-.68 1.5-1.5 1.5h-11c-.83 0-1.5-.68-1.5-1.5V3Zm1.5-.5c-.28 0-.5.22-.5.5v18c0 .27.22.5.5.5h11c.27 0 .5-.23.5-.5V3c0-.28-.23-.5-.5-.5h-11Z"/><path d="M8.5 9c0-.28.22-.5.5-.5h6c.27 0 .5.22.5.5v6c0 .27-.23.5-.5.5H9c-.28 0-.5-.23-.5-.5V9Zm1 .5v5h5v-5h-5Z"/><path d="M11.5 11.5V9h1v2.5h-1Z"/><path d="M13 5.5h-2v-1h2v1Z"/><path d="M13 19.5h-2v-1h2v1Z"/></g></svg>