<svg viewBox="0 0 24 24" xmlns="http://www.w3.org/2000/svg"><g fill-rule="evenodd"><path d="M1.5 4c0-1.39 1.11-2.5 2.5-2.5h16c1.38 0 2.5 1.11 2.5 2.5v7h-1V4c0-.83-.68-1.5-1.5-1.5H4c-.83 0-1.5.67-1.5 1.5v16c0 .82.67 1.5 1.5 1.5h7v1H4c-1.39 0-2.5-1.12-2.5-2.5V4Z"/><path d="M8.5 2c0-.28.22-.5.5-.5h6c.27 0 .5.22.5.5v7c0 .16-.08.31-.21.4 -.14.09-.3.11-.46.06l-2.85-.95 -2.85.94c-.16.05-.33.02-.46-.07 -.14-.1-.21-.25-.21-.41v-7Zm1 .5v5.8l2.34-.79c.1-.04.21-.04.31 0l2.34.78V2.48h-5Z"/><path d="M17.49 12.5c.21 0 .4.13.47.34l1.01 3.1h3.26c.21 0 .4.13.47.34 .06.2-.01.43-.19.55l-2.65 1.92 1.01 3.1c.06.2-.01.43-.19.55 -.18.12-.42.12-.59 0l-2.65-1.93 -2.65 1.92c-.18.12-.42.12-.59 0 -.18-.13-.25-.36-.19-.56l1.01-3.11 -2.65-1.93c-.18-.13-.25-.36-.19-.56 .06-.21.25-.35.47-.35h3.26l1.01-3.11c.06-.21.25-.35.47-.35Zm0 2.11l-.65 1.99c-.07.2-.26.34-.48.34h-2.1l1.69 1.23c.17.12.24.35.18.55l-.65 1.99 1.69-1.24c.17-.13.41-.13.58 0l1.69 1.23 -.65-2c-.07-.21 0-.44.18-.56l1.69-1.24h-2.1c-.22 0-.41-.14-.48-.35l-.65-2Z"/></g></svg>