<svg viewBox="0 0 24 24" xmlns="http://www.w3.org/2000/svg"><g fill-rule="evenodd"><path d="M1.5 15c0-.28.22-.5.5-.5h4c.27 0 .5.22.5.5v7c0 .27-.23.5-.5.5H2c-.28 0-.5-.23-.5-.5v-7Zm1 .5v6h3v-6h-3Z"/><path d="M9.5 12c0-.28.22-.5.5-.5h4c.27 0 .5.22.5.5v10c0 .27-.23.5-.5.5h-4c-.28 0-.5-.23-.5-.5V12Zm1 .5v9h3v-9h-3Z"/><path d="M17.5 9c0-.28.22-.5.5-.5h4c.27 0 .5.22.5.5v13c0 .27-.23.5-.5.5h-4c-.28 0-.5-.23-.5-.5V9Zm1 .5v12h3v-12h-3Z"/><path d="M2.16 9.97c-.01 0-.01 0-.17-.48 -.17-.48-.17-.48-.17-.48l.5-.18c.32-.12.79-.28 1.37-.49 1.16-.41 2.77-.97 4.55-1.6 3.56-1.26 7.81-2.75 10.55-3.75l.34.93c-2.76 1-7.01 2.5-10.57 3.75 -1.79.62-3.4 1.18-4.56 1.59 -.59.2-1.06.36-1.38.48l-.51.17Z"/><path d="M16.75 1.57l2.5 1.5c.2.12.29.36.21.58l-1 3 -.95-.32 .87-2.62 -2.16-1.3 .51-.86Z"/></g></svg>