<svg viewBox="0 0 24 24" xmlns="http://www.w3.org/2000/svg"><g fill-rule="evenodd"><path d="M7 15.5c-.83 0-1.5.67-1.5 1.5 0 .82.67 1.5 1.5 1.5 .82 0 1.5-.68 1.5-1.5 0-.83-.68-1.5-1.5-1.5ZM4.5 17c0-1.39 1.11-2.5 2.5-2.5 1.38 0 2.5 1.11 2.5 2.5 0 1.38-1.12 2.5-2.5 2.5 -1.39 0-2.5-1.12-2.5-2.5Z"/><path d="M17.5 15c-.83 0-1.5.67-1.5 1.5 0 .82.67 1.5 1.5 1.5 .82 0 1.5-.68 1.5-1.5 0-.83-.68-1.5-1.5-1.5ZM15 16.5c0-1.39 1.11-2.5 2.5-2.5 1.38 0 2.5 1.11 2.5 2.5 0 1.38-1.12 2.5-2.5 2.5 -1.39 0-2.5-1.12-2.5-2.5Z"/><path d="M13.5 7.5c0-.28.22-.5.5-.5h4c2.48 0 4.5 2.01 4.5 4.5V15c0 .82-.68 1.5-1.5 1.5h-1.5v-1H21c.27 0 .5-.23.5-.5v-3.5C21.5 9.56 19.93 8 18 8h-3.5v4h-1V7.5Zm-4.5 8h6.5v1H9v-1Z"/><path d="M1.5 6c0-.83.67-1.5 1.5-1.5h10c.82 0 1.5.67 1.5 1.5v10c0 .27-.23.5-.5.5H9v-1h4.5V6c0-.28-.23-.5-.5-.5H3c-.28 0-.5.22-.5.5v9c0 .27.22.5.5.5h2v1H3c-.83 0-1.5-.68-1.5-1.5V6Z"/><path d="M10.82 8.87l-3.5 2.99c-.18.15-.44.16-.63.02l-2-1.5 .6-.8 1.67 1.25 3.19-2.74 .65.75Z"/></g></svg>