<svg viewBox="0 0 24 24" xmlns="http://www.w3.org/2000/svg"><g fill-rule="evenodd"><path d="M4.55 4.28l-1.49.2 -.14-1L4.9 3.2c.27-.04.52.15.56.42l2.13 15.35 12.87-1.8 .13.99 -13.38 1.86c-.28.03-.53-.16-.57-.43L4.5 4.23Z"/><path d="M8.56 11.3c-.04-.28.15-.53.42-.57l7.92-1.11c.27-.04.52.15.56.42l1.1 7.92c.03.27-.16.52-.43.56l-7.93 1.1c-.28.03-.53-.16-.57-.43l-1.11-7.93Zm1.05.35l.96 6.93 6.93-.97 -.97-6.933 -6.94.96Z"/><path d="M8.72 5.22c-.04-.28.15-.53.42-.57l5.94-.83c.27-.04.52.15.56.42l.82 5.94c.03.27-.16.52-.43.56l-5.95.82c-.28.03-.53-.16-.57-.43l-.83-5.95Zm1.05.35l.69 4.95 4.95-.7 -.7-4.96 -4.96.69Z"/><path d="M11.03 10.95c-.04-.28.15-.53.42-.57l2.97-.42c.27-.04.52.15.56.42l.48 3.46c.02.15-.04.31-.15.43 -.12.11-.28.15-.44.13l-1.4-.26 -1.27.62c-.15.07-.32.06-.46-.01 -.15-.08-.24-.22-.27-.38l-.49-3.47Zm1.05.35l.31 2.28 .79-.4c.09-.05.2-.07.31-.05l.87.16 -.32-2.29 -1.99.27Z"/><path d="M9.73 19.721c-.55.07-.93.58-.86 1.12 .07.54.58.92 1.12.85 .54-.08.92-.59.85-1.13 -.08-.55-.59-.93-1.13-.86Zm-1.85 1.26c-.16-1.1.61-2.11 1.7-2.26 1.09-.16 2.1.61 2.25 1.7 .15 1.09-.62 2.1-1.71 2.25 -1.1.15-2.11-.62-2.26-1.71Z"/><path d="M17.65 18.61c-.55.07-.93.58-.86 1.12 .07.54.58.92 1.12.85 .54-.08.92-.59.85-1.13 -.08-.55-.59-.93-1.13-.86Zm-1.85 1.26c-.16-1.1.61-2.11 1.7-2.26 1.09-.16 2.1.61 2.25 1.7 .15 1.09-.62 2.1-1.71 2.25 -1.1.15-2.11-.62-2.26-1.71Z"/><path d="M11.97 6.78l-.28-1.99 .99-.14 .27 1.98 -1 .13Z"/></g></svg>