<svg viewBox="0 0 24 24" xmlns="http://www.w3.org/2000/svg"><g fill-rule="evenodd"><path d="M1.5 2c0-.28.22-.5.5-.5h20c.27 0 .5.22.5.5v3c0 .27-.23.5-.5.5H2c-.28 0-.5-.23-.5-.5V2Zm1 .5v2h19v-2h-19Z"/><path d="M2.5 5c0-.28.22-.5.5-.5h4.5c.27 0 .5.22.5.5 0 .27-.23.5-.5.5h-4v13H7v-7c0-.28.22-.5.5-.5 .27 0 .5.22.5.5V19c0 .27-.23.5-.5.5H3c-.28 0-.5-.23-.5-.5V5Z"/><path d="M7 5c0-.28.22-.5.5-.5H12c.27 0 .5.22.5.5v4c0 .27-.23.5-.5.5 -.28 0-.5-.23-.5-.5V5.5h-4c-.28 0-.5-.23-.5-.5Zm.5 6c.27 0 .5.22.5.5v7h3.5V15c0-.28.22-.5.5-.5 .27 0 .5.22.5.5v4c0 .27-.23.5-.5.5H7.5c-.28 0-.5-.23-.5-.5v-7.5c0-.28.22-.5.5-.5Z"/><path d="M11.5 5c0-.28.22-.5.5-.5h4.5c.27 0 .5.22.5.5v7.5c0 .27-.23.5-.5.5 -.28 0-.5-.23-.5-.5v-7h-3.5v3c0 .27-.23.5-.5.5 -.28 0-.5-.23-.5-.5V5Zm.5 9.5c.27 0 .5.22.5.5v3.5h4c.27 0 .5.22.5.5 0 .27-.23.5-.5.5H12c-.28 0-.5-.23-.5-.5v-4c0-.28.22-.5.5-.5Z"/><path d="M16 5c0-.28.22-.5.5-.5H21c.27 0 .5.22.5.5v14c0 .27-.23.5-.5.5h-4.5c-.28 0-.5-.23-.5-.5 0-.28.22-.5.5-.5h4v-13H17v7c0 .27-.23.5-.5.5 -.28 0-.5-.23-.5-.5V5Z"/><path d="M2.6 7.77c.16-.22.48-.27.7-.1l14.32 10.92c.21.16.26.48.09.7 -.17.21-.49.26-.71.09L2.67 8.45c-.22-.17-.27-.49-.1-.71Zm3.38-3.08c.16-.22.48-.27.7-.1l14.61 11.13c.21.16.26.48.09.7 -.17.21-.49.26-.71.09L6.05 5.37c-.22-.17-.27-.49-.1-.71Z"/><path d="M1.5 19c0-.28.22-.5.5-.5h20c.27 0 .5.22.5.5v3c0 .27-.23.5-.5.5H2c-.28 0-.5-.23-.5-.5v-3Zm1 .5v2h19v-2h-19Z"/></g></svg>