<svg viewBox="0 0 24 24" xmlns="http://www.w3.org/2000/svg"><g fill-rule="evenodd"><path d="M1 19c0-.56.44-1 1-1h20c.55 0 1 .44 1 1v3c0 .55-.45 1-1 1H2c-.56 0-1-.45-1-1v-3Zm2 1v1h18v-1H3Z"/><path d="M7 12c0-.56.44-1 1-1h8c.55 0 1 .44 1 1v7c0 .55-.45 1-1 1H8c-.56 0-1-.45-1-1v-7Zm2 1v5h6v-5H9Z"/><path d="M6 8c0-.56.44-1 1-1h10c.55 0 1 .44 1 1v4c0 .55-.45 1-1 1H7c-.56 0-1-.45-1-1V8Zm2 1v2h8V9H8Z"/><path d="M14.793 3.7l-1-1 1.41-1.42 1 1c.94.94.94 2.47 0 3.41 -.17.16-.17.42 0 .58l1 1 -1.42 1.41 -1-1c-.95-.95-.95-2.48 0-3.42 .16-.17.16-.43 0-.59Z"/><path d="M11.293 3.7l-1-1 1.41-1.42 1 1c.94.94.94 2.47 0 3.41 -.17.16-.17.42 0 .58l1 1 -1.42 1.41 -1-1c-.95-.95-.95-2.48 0-3.42 .16-.17.16-.43 0-.59Z"/><path d="M7.79 3.7l-1-1L8.2 1.28l1 1c.94.94.94 2.47 0 3.41 -.17.16-.17.42 0 .58l1 1L8.78 8.68l-1-1c-.95-.95-.95-2.48 0-3.42 .16-.17.16-.43 0-.59Z"/></g></svg>