<svg viewBox="0 0 24 24" xmlns="http://www.w3.org/2000/svg"><g fill-rule="evenodd"><path d="M1.5 6c0-.56.44-1 1-1h9c.55 0 1 .44 1 1v2.88l4.23 2.11h3.26c1.65 0 3 1.34 3 3v4c0 .55-.45 1-1 1H2.49c-.56 0-1-.45-1-1v-12Zm2 1v10H21v-3c0-.56-.45-1-1-1h-3.5c-.16 0-.31-.04-.45-.11l-5-2.5c-.34-.17-.56-.52-.56-.9v-2.5h-7Z"/><path d="M1 2c0-.56.44-1 1-1h10c.55 0 1 .44 1 1v4c0 .55-.45 1-1 1H2c-.56 0-1-.45-1-1V2Zm2 1v2h8V3H3Z"/><path d="M18 17h2c1.65 0 3 1.34 3 3 0 1.65-1.35 3-3 3H2v-2h18c.55 0 1-.45 1-1 0-.56-.45-1-1-1h-2v-2Z"/><path d="M5 22v-4h2v4H5Z"/><path d="M12 22v-4h2v4h-2Z"/><path d="M8 7.5h3.5v2H8v-2Z"/><path d="M9.55 11.1l2.99-1.51 .89 1.78 -3 1.5 -.9-1.79Z"/><path d="M12.293 13.29l2.5-2.5 1.41 1.41 -2.5 2.5 -1.42-1.42Z"/></g></svg>