<svg viewBox="0 0 24 24" xmlns="http://www.w3.org/2000/svg"><path fill-rule="evenodd" d="M1 5.5c0-1.66 1.34-3 3-3h16c1.65 0 3 1.34 3 3 0 1.25-.78 2.33-1.88 2.78l-1.18 3.53c-.14.4-.52.68-.95.68 -.44 0-.82-.28-.95-.69L17 8.69l-1.53 9.93c-.08.48-.5.84-.99.84 -.5 0-.92-.37-.99-.85L11.92 8.45h-.13l-1.35 5.72c-.11.45-.51.77-.98.77s-.87-.32-.98-.78L7.4 9.59 5.93 20.55c-.07.49-.5.86-1 .86 -.51 0-.93-.38-1-.87L2.24 7.89C1.44 7.35.91 6.43.91 5.4Zm3-1c-.56 0-1 .44-1 1 0 .41.25.77.62.92 .33.13.56.43.61.79l.76 5.71 .74-5.57c.06-.5.49-.87.99-.87h1.23c.46 0 .86.31.97.77l.55 2.36 .55-2.37c.1-.46.5-.78.97-.78h1.77c.49 0 .91.36.98.84l.7 4.57 .7-4.58c.07-.49.49-.85.98-.85h1.47c.43 0 .81.27.94.68l.38 1.15 .39-1.19c.11-.35.41-.61.77-.67 .46-.09.82-.5.82-.99 0-.56-.45-1-1-1h-16Z"/></svg>