<svg viewBox="0 0 24 24" xmlns="http://www.w3.org/2000/svg"><g fill-rule="evenodd"><path d="M14 7c-3.87 0-7 3.13-7 7v3h14v-3c0-3.87-3.14-7-7-7Zm-9 7c0-4.98 4.02-9 9-9 4.97 0 9 4.02 9 9v4c0 .55-.45 1-1 1H6c-.56 0-1-.45-1-1v-4Z"/><path d="M12.44 8.74c-.57 1.29-.95 3.15-.95 5.25v3h5v-3c0-2.11-.38-3.97-.95-5.26 -.29-.65-.6-1.12-.9-1.4 -.3-.29-.52-.35-.67-.35 -.16 0-.38.06-.67.34 -.3.28-.61.74-.9 1.39Zm-.5-2.84c.54-.53 1.24-.91 2.05-.91 .81 0 1.51.38 2.05.9 .54.52.98 1.23 1.33 2.03 .7 1.6 1.1 3.74 1.1 6.05v4c0 .55-.45 1-1 1h-7c-.56 0-1-.45-1-1v-4c0-2.32.4-4.46 1.109-6.06 .34-.8.79-1.51 1.33-2.04Z"/><path d="M22 15H6v-2h16v2Z"/><path d="M7.5 8.5h13v2h-13v-2Z"/><path d="M1 13c0-.56.44-1 1-1h4c.55 0 1 .44 1 1v5c0 .55-.45 1-1 1H2c-.56 0-1-.45-1-1v-5Zm2 1v3h2v-3H3Z"/></g></svg>