<svg viewBox="0 0 24 24" xmlns="http://www.w3.org/2000/svg"><g fill-rule="evenodd"><path d="M12 3c-4.98 0-9 4.02-9 9 0 4.97 4.02 9 9 9 4.97 0 9-4.03 9-9 0-4.98-4.03-9-9-9ZM1 12C1 5.92 5.92 1 12 1c6.07 0 11 4.92 11 11 0 6.07-4.93 11-11 11C5.92 23 1 18.07 1 12Z"/><path d="M16.88 10l-.78-1.56 1.78-.9 1 2c.14.28.14.61 0 .89l-.73 1.44 1.12 1.5c.32.43.24 1.04-.18 1.38l-2.5 2 -1.25-1.57 1.74-1.4 -.92-1.23c-.23-.31-.27-.71-.1-1.05l.77-1.56Z"/><path d="M6.28 13.65l.6-1.22 -1.79-.9 -1 2c-.23.45-.08.99.33 1.27l2.26 1.51 -.61 1.21c-.15.29-.14.65.02.94l2 3.5 1.73-1 -1.74-3.04 .76-1.53c.22-.46.07-1-.34-1.28l-2.27-1.52Z"/></g></svg>