<svg viewBox="0 0 24 24" xmlns="http://www.w3.org/2000/svg"><g fill-rule="evenodd"><path d="M13 6c0-.56.44-1 1-1h6c.55 0 1 .44 1 1v9.21c0 1.17-.69 2.24-1.76 2.73l-8.51 3.86c-1.06.47-2.23.61-3.36.38l-1.9-.38c-1.45-.29-2.49-1.56-2.49-3.03 0-1.17.66-2.24 1.7-2.77l2.74-1.38 5.55-4.63V5.95Zm2 1v3.5c0 .29-.14.57-.36.76l-6.01 5c-.06.04-.13.09-.2.12L5.58 17.8c-.37.18-.61.56-.61.97 0 .51.36.96.87 1.06l1.89.37c.71.14 1.46.05 2.13-.25l8.5-3.87c.35-.17.58-.52.58-.92V6.94h-4Z"/><path d="M15 15c0-1.94 1.56-3.5 3.5-3.5H20c.55 0 1 .44 1 1 0 .55-.45 1-1 1h-1.5c-.83 0-1.5.67-1.5 1.5v3c0 .55-.45 1-1 1 -.56 0-1-.45-1-1v-3Z"/><path d="M7.85 15.48l3 5 -1.72 1.029 -3-5 1.71-1.029Z"/><path d="M12 2c0-.56.44-1 1-1h8c.55 0 1 .44 1 1v4c0 .55-.45 1-1 1h-8c-.56 0-1-.45-1-1V2Zm2 1v2h6V3h-6Z"/></g></svg>