<svg viewBox="0 0 24 24" xmlns="http://www.w3.org/2000/svg"><g fill-rule="evenodd"><path d="M1 19c0-1.66 1.34-3 3-3h16c1.65 0 3 1.34 3 3v1c0 1.65-1.35 3-3 3H4c-1.66 0-3-1.35-3-3v-1Zm3-1c-.56 0-1 .44-1 1v1c0 .55.44 1 1 1h16c.55 0 1-.45 1-1v-1c0-.56-.45-1-1-1H4Z"/><path d="M3 15.5C3 11.35 6.35 8 10.5 8h3c4.14 0 7.5 3.35 7.5 7.5V17c0 .55-.45 1-1 1H4c-.56 0-1-.45-1-1v-1.5Zm7.5-5.5C7.46 10 5 12.46 5 15.5v.5h14v-.5c0-3.04-2.47-5.5-5.5-5.5h-3Z"/><path d="M12 3c-1.39 0-2.5 1.11-2.5 2.5C9.5 6.88 10.61 8 12 8c1.38 0 2.5-1.12 2.5-2.5C14.5 4.11 13.38 3 12 3ZM7.5 5.5C7.5 3.01 9.51 1 12 1c2.48 0 4.5 2.01 4.5 4.5 0 2.48-2.02 4.5-4.5 4.5 -2.49 0-4.5-2.02-4.5-4.5Z"/></g></svg>