<svg viewBox="0 0 24 24" xmlns="http://www.w3.org/2000/svg"><g fill="#F17171" fill-rule="evenodd"><path d="M11.49 7.55l.5-.56c-.51.55-.51.55-.51.55l0 0 0 0 .01.01c.01.01.03.03.05.05 .05.04.12.1.21.18 .17.14.42.34.7.54 .27.19.59.4.91.57 .29.15.68.31 1.08.31 .39 0 .78-.17 1.08-.32 .31-.17.63-.38.91-.58 .27-.21.52-.4.7-.55 .08-.08.16-.14.21-.19 .02-.03.04-.04.05-.06l.01-.02 0-.01 0-.01s0 0-.51-.56c.5-.56.5-.56.5-.56l-.01-.01 -.01-.01 -.02-.02c-.02-.02-.04-.04-.06-.06 -.06-.05-.13-.11-.22-.19 -.18-.15-.43-.35-.71-.55 -.28-.2-.6-.41-.92-.58 -.3-.16-.69-.32-1.09-.32 -.4 0-.79.16-1.09.31 -.32.16-.64.37-.92.57 -.28.2-.53.39-.71.54 -.09.07-.17.13-.22.18 -.03.02-.05.03-.06.05l-.02.01 -.01 0 -.01 0s0 0 .5.55l-.51-.56c-.16.14-.25.34-.25.55 0 .21.09.41.24.55Zm6-1.12l-.51.55 .5.55c.15-.15.24-.35.24-.56 0-.22-.1-.42-.25-.56Z"/><path d="M6.49 7.55l.5-.56c-.51.55-.51.55-.51.55l0 0 0 0 .01.01c.01.01.03.03.05.05 .05.04.12.1.21.18 .17.14.42.34.7.54 .27.19.59.4.91.57 .29.15.68.31 1.08.31 .39 0 .78-.17 1.08-.32 .31-.17.63-.38.91-.58 .27-.21.52-.4.7-.55 .08-.08.16-.14.21-.19 .02-.03.04-.04.05-.06l.01-.02 0-.01 0-.01s0 0-.51-.56c.5-.56.5-.56.5-.56l-.01-.01 -.01-.01 -.02-.02c-.02-.02-.04-.04-.06-.06 -.06-.05-.13-.11-.22-.19 -.18-.15-.43-.35-.71-.55 -.28-.2-.6-.41-.92-.58 -.3-.16-.69-.32-1.09-.32 -.4 0-.79.16-1.09.31 -.32.16-.64.37-.92.57 -.28.2-.53.39-.71.54 -.09.07-.17.13-.22.18 -.03.02-.05.03-.06.05l-.02.01 -.01 0 -.01 0s0 0 .5.55l-.51-.56c-.16.14-.25.34-.25.55 0 .21.09.41.24.55Zm6-1.12l-.51.55 .5.55c.15-.15.24-.35.24-.56 0-.22-.1-.42-.25-.56Z"/></g><g fill="#EE4D4D"><path d="M12 2l.55-.51 0 0 0 0 .01.01c.01.01.03.03.05.05 .04.05.1.12.18.21 .14.17.34.42.54.7 .19.27.4.59.57.91 .15.29.31.68.31 1.08 0 .39-.17.78-.32 1.08 -.17.31-.38.63-.58.91 -.21.27-.4.52-.55.7 -.08.08-.14.16-.19.21 -.03.02-.04.04-.06.05l-.02.01 -.01 0 -.01 0s-.01 0-.56-.51l-.56.5 -.01-.01 -.01-.01 -.02-.02c-.02-.02-.03-.04-.06-.06 -.05-.06-.11-.13-.19-.22 -.15-.18-.35-.43-.55-.71 -.2-.28-.41-.6-.58-.92 -.16-.3-.32-.69-.32-1.09 0-.4.16-.79.31-1.09 .16-.32.37-.64.57-.92 .2-.28.39-.53.54-.71 .07-.09.13-.17.18-.22 .02-.03.03-.05.05-.06l.01-.02 0-.01 0-.01s0-.01.55.5Z"/><path d="M12 2c.55-.51.55-.51.55-.51 -.15-.16-.35-.25-.56-.25 -.22 0-.42.09-.56.24l.55.5Z"/><path d="M11.44 7.5s0 0 .55-.51l.55.5c-.15.15-.35.24-.56.24 -.22 0-.42-.1-.56-.25Z"/></g><g fill="#A2D471"><path d="M16.69 12.28c.12-.31.04-.65-.21-.87 -.25-.22-.61-.24-.89-.07l-4.01 2.49c-.22.13-.36.37-.36.63v3.49c0 .41.33.75.75.75h1.5c.3 0 .57-.19.69-.47l2.5-6Z"/><path d="M7.3 12.28c-.13-.31-.05-.65.2-.87 .24-.22.6-.24.88-.07l4 2.49c.21.13.35.37.35.63v3.49c0 .41-.34.75-.75.75h-1.51c-.31 0-.58-.19-.7-.47l-2.5-6Z"/></g><path fill="#8BC94D" fill-rule="evenodd" d="M12 10.75c.41 0 .75.33.75.75V18c0 .41-.34.75-.75.75 -.42 0-.75-.34-.75-.75v-6.5c0-.42.33-.75.75-.75Z"/><path fill="#FF884D" d="M9 17.25c-.24 0-.45.1-.6.28 -.15.18-.2.41-.14.64l1 4c.08.33.38.56.72.56h4c.34 0 .64-.24.72-.57l1-4c.05-.23 0-.47-.14-.65 -.15-.19-.37-.29-.6-.29h-6Z"/><g fill="#EE4D4D"><path d="M12 7l.55-.51 0 0 0 0 .01.01c.01.01.03.03.05.05 .04.05.1.12.18.21 .14.17.34.42.54.7 .19.27.4.59.57.91 .15.29.31.68.31 1.08 0 .39-.17.78-.32 1.08 -.17.31-.38.63-.58.91 -.21.27-.4.52-.55.7 -.08.08-.14.16-.19.21 -.03.02-.04.04-.06.05l-.02.01 -.01 0 -.01 0s-.01 0-.56-.51l-.56.5 -.01-.01 -.01-.01 -.02-.02c-.02-.02-.03-.04-.06-.06 -.05-.06-.11-.13-.19-.22 -.15-.18-.35-.43-.55-.71 -.2-.28-.41-.6-.58-.92 -.16-.3-.32-.69-.32-1.09 0-.4.16-.79.31-1.09 .16-.32.37-.64.57-.92 .2-.28.39-.53.54-.71 .07-.09.13-.17.18-.22 .02-.03.03-.05.05-.06l.01-.02 0-.01 0-.01s0-.01.55.5Z"/><path d="M12 7c.55-.51.55-.51.55-.51 -.15-.16-.35-.25-.56-.25 -.22 0-.42.09-.56.24l.55.5Z"/><path d="M11.44 12.5s0 0 .55-.51l.55.5c-.15.15-.35.24-.56.24 -.22 0-.42-.1-.56-.25Z"/></g></svg>