<svg viewBox="0 0 24 24" xmlns="http://www.w3.org/2000/svg"><path fill="#A2D471" d="M20.71 8.73c.1-.31 0-.64-.25-.83 -.25-.2-.6-.22-.87-.05l-4.01 2.49c-.22.13-.36.37-.36.63v4.99c0 .41.33.75.75.75h1.5c.32 0 .6-.21.71-.52l2.5-7.5Z"/><g fill="#8BC94D" fill-rule="evenodd"><path d="M15.25 6.1c0-.91-.94-1.52-1.77-1.14L10.8 6.17c-.38.17-.83 0-1-.38 -.18-.38-.01-.83.37-1l2.67-1.22c1.82-.83 3.88.5 3.88 2.5v9.89c0 .41-.34.75-.75.75 -.42 0-.75-.34-.75-.75v-9.9Z"/><g fill="#F17171"><path d="M8.49 7.55l.5-.56c-.51.55-.51.55-.51.55l0 0 0 0 .01.01c.01.01.03.03.05.05 .05.04.12.1.21.18 .17.14.42.34.7.54 .27.19.59.4.91.57 .29.15.68.31 1.08.31 .39 0 .78-.17 1.08-.32 .31-.17.63-.38.91-.58 .27-.21.52-.4.7-.55 .08-.08.16-.14.21-.19 .02-.03.04-.04.05-.06l.01-.02 0-.01 0-.01s0 0-.51-.56c.5-.56.5-.56.5-.56l-.01-.01 -.01-.01 -.02-.02c-.02-.02-.04-.04-.06-.06 -.06-.05-.13-.11-.22-.19 -.18-.15-.43-.35-.71-.55 -.28-.2-.6-.41-.92-.58 -.3-.16-.69-.32-1.09-.32 -.4 0-.79.16-1.09.31 -.32.16-.64.37-.92.57 -.28.2-.53.39-.71.54 -.09.07-.17.13-.22.18 -.03.02-.05.03-.06.05l-.02.01 -.01 0 -.01 0s0 0 .5.55l-.51-.56c-.16.14-.25.34-.25.55 0 .21.09.41.24.55Zm6-1.12l-.51.55 .5.55c.15-.15.24-.35.24-.56 0-.22-.1-.42-.25-.56Z"/><path d="M3.49 7.55l.5-.56c-.51.55-.51.55-.51.55l0 0 0 0 .01.01c.01.01.03.03.05.05 .05.04.12.1.21.18 .17.14.42.34.7.54 .27.19.59.4.91.57 .29.15.68.31 1.08.31 .39 0 .78-.17 1.08-.32 .31-.17.63-.38.91-.58 .27-.21.52-.4.7-.55 .08-.08.16-.14.21-.19 .02-.03.04-.04.05-.06l.01-.02 0-.01 0-.01s0 0-.51-.56c.5-.56.5-.56.5-.56l-.01-.01 -.01-.01 -.02-.02c-.02-.02-.04-.04-.06-.06 -.06-.05-.13-.11-.22-.19 -.18-.15-.43-.35-.71-.55 -.28-.2-.6-.41-.92-.58 -.3-.16-.69-.32-1.09-.32 -.4 0-.79.16-1.09.31 -.32.16-.64.37-.92.57 -.28.2-.53.39-.71.54 -.09.07-.17.13-.22.18 -.03.02-.05.03-.06.05l-.02.01 -.01 0 -.01 0s0 0 .5.55l-.51-.56c-.16.14-.25.34-.25.55 0 .21.09.41.24.55Zm6-1.12l-.51.55 .5.55c.15-.15.24-.35.24-.56 0-.22-.1-.42-.25-.56Z"/></g></g><g fill="#EE4D4D"><path d="M9 2l.55-.51 0 0 0 0 .01.01c.01.01.03.03.05.05 .04.05.1.12.18.21 .14.17.34.42.54.7 .19.27.4.59.57.91 .15.29.31.68.31 1.08 0 .39-.17.78-.32 1.08 -.17.31-.38.63-.58.91 -.21.27-.4.52-.55.7 -.08.08-.14.16-.19.21 -.03.02-.04.04-.06.05l-.02.01 -.01 0 -.01 0s-.01 0-.56-.51l-.56.5 -.01-.01 -.01-.01 -.02-.02c-.02-.02-.04-.04-.06-.06 -.05-.06-.11-.13-.19-.22 -.15-.18-.35-.43-.55-.71 -.2-.28-.41-.6-.58-.92 -.16-.3-.32-.69-.32-1.09 0-.4.16-.79.31-1.09 .16-.32.37-.64.57-.92 .2-.28.39-.53.54-.71 .07-.09.13-.17.18-.22 .02-.03.03-.05.05-.06l.01-.02 0-.01 0-.01s0-.01.55.5Z"/><path d="M9 2c.55-.51.55-.51.55-.51 -.15-.16-.35-.25-.56-.25 -.22 0-.42.09-.56.24l.55.5Z"/><path d="M8.44 7.5s0 0 .55-.51l.55.5c-.15.15-.35.24-.56.24 -.22 0-.42-.1-.56-.25Z"/><path d="M9 7l.55-.51 0 0 0 0 .01.01c.01.01.03.03.05.05 .04.05.1.12.18.21 .14.17.34.42.54.7 .19.27.4.59.57.91 .15.29.31.68.31 1.08 0 .39-.17.78-.32 1.08 -.17.31-.38.63-.58.91 -.21.27-.4.52-.55.7 -.08.08-.14.16-.19.21 -.03.02-.04.04-.06.05l-.02.01 -.01 0 -.01 0s-.01 0-.56-.51l-.56.5 -.01-.01 -.01-.01 -.02-.02c-.02-.02-.04-.04-.06-.06 -.05-.06-.11-.13-.19-.22 -.15-.18-.35-.43-.55-.71 -.2-.28-.41-.6-.58-.92 -.16-.3-.32-.69-.32-1.09 0-.4.16-.79.31-1.09 .16-.32.37-.64.57-.92 .2-.28.39-.53.54-.71 .07-.09.13-.17.18-.22 .02-.03.03-.05.05-.06l.01-.02 0-.01 0-.01s0-.01.55.5Z"/><path d="M9 7c.55-.51.55-.51.55-.51 -.15-.16-.35-.25-.56-.25 -.22 0-.42.09-.56.24l.55.5Z"/><path d="M8.44 12.5s0 0 .55-.51l.55.5c-.15.15-.35.24-.56.24 -.22 0-.42-.1-.56-.25Z"/></g><path fill="#FF884D" d="M13 15.25c-.23 0-.43.09-.58.26 -.15.16-.21.39-.17.6l1 6c.06.36.37.62.73.62h4c.36 0 .67-.27.73-.63l1-6c.03-.22-.03-.44-.17-.61 -.15-.17-.36-.27-.58-.27h-6Z"/></svg>