<svg viewBox="0 0 24 24" xmlns="http://www.w3.org/2000/svg"><path fill="#FF884D" d="M7 16.25c-.25 0-.49.12-.63.32s-.17.46-.08.69l2 5c.11.28.38.47.69.47h6c.3 0 .58-.19.69-.48l2-5c.09-.24.06-.5-.08-.7 -.14-.21-.38-.33-.63-.33h-10Z"/><path fill="#FFC44D" d="M12.69 1.56c-.42-.28-.97-.28-1.39 0l-.9.59 -.3-.12c-1.21-.49-2.26.96-1.43 1.96L9.9 5.47c.14.17.35.26.57.26h3c.22 0 .43-.1.57-.27l1.23-1.49c.83-1-.22-2.45-1.43-1.97l-.3.11 -.9-.6Z"/><g fill="#A2D471" fill-rule="evenodd"><path d="M13.75 11.5c0-.42.33-.75.75-.75h2c.41 0 .75.33.75.75 0 .41-.34.75-.75.75h-2c-.42 0-.75-.34-.75-.75Z"/><path d="M6.75 11.5c0-.42.33-.75.75-.75h2c.41 0 .75.33.75.75 0 .41-.34.75-.75.75h-2c-.42 0-.75-.34-.75-.75Z"/><path d="M13.75 8.5c0-.42.33-.75.75-.75h2c.41 0 .75.33.75.75 0 .41-.34.75-.75.75h-2c-.42 0-.75-.34-.75-.75Z"/><path d="M6.75 8.5c0-.42.33-.75.75-.75h2c.41 0 .75.33.75.75 0 .41-.34.75-.75.75h-2c-.42 0-.75-.34-.75-.75Z"/></g><path fill="#8BC94D" d="M12 4.25c-1.8 0-3.25 1.45-3.25 3.25V14c0 .41.33.75.75.75h5c.41 0 .75-.34.75-.75V7.5c0-1.8-1.46-3.25-3.25-3.25Z"/><path fill="#FFA071" d="M6 13.25c-.42 0-.75.33-.75.75v3c0 .41.33.75.75.75h12c.41 0 .75-.34.75-.75v-3c0-.42-.34-.75-.75-.75H6Z"/></svg>