<svg viewBox="0 0 24 24" xmlns="http://www.w3.org/2000/svg"><path fill="#FF884D" d="M6 16.25c-.26 0-.5.13-.64.35 -.14.21-.16.49-.05.72l2.4 5c.12.26.38.42.67.42h7.2c.28 0 .55-.17.67-.43l2.4-5c.11-.24.09-.51-.05-.73 -.14-.22-.38-.36-.64-.36h-12Z"/><path fill="#8BC94D" d="M12 3.25c-3.71 0-6.75 2.92-6.75 6.58 0 1.84.78 3.51 2.03 4.7 .13.13.32.2.51.2h8.39c.19 0 .37-.08.51-.21 1.25-1.2 2.03-2.87 2.03-4.71 0-3.66-3.05-6.59-6.75-6.59Z"/><g fill="#A2D471"><path d="M5.5 1.25c-1.8 0-3.25 1.45-3.25 3.25 0 1.79 1.45 3.25 3.25 3.25 1.79 0 3.25-1.46 3.25-3.25 0-1.8-1.46-3.25-3.25-3.25Z"/><path d="M19 3.25c-1.52 0-2.75 1.23-2.75 2.75 0 1.51 1.23 2.75 2.75 2.75 1.51 0 2.75-1.24 2.75-2.75 0-1.52-1.24-2.75-2.75-2.75Z"/><g fill="#A2D471" fill-rule="evenodd"><path d="M12 5.75c.41 0 .75.33.75.75v2c0 .41-.34.75-.75.75 -.42 0-.75-.34-.75-.75v-2c0-.42.33-.75.75-.75Z"/><path d="M7.75 10c0-.42.33-.75.75-.75h2c.41 0 .75.33.75.75 0 .41-.34.75-.75.75h-2c-.42 0-.75-.34-.75-.75Z"/><path d="M12.75 10c0-.42.33-.75.75-.75h2c.41 0 .75.33.75.75 0 .41-.34.75-.75.75h-2c-.42 0-.75-.34-.75-.75Z"/></g></g><path fill="#FFA071" d="M5 13.25c-.42 0-.75.33-.75.75v3c0 .41.33.75.75.75h14c.41 0 .75-.34.75-.75v-3c0-.42-.34-.75-.75-.75H5Z"/></svg>