<svg viewBox="0 0 24 24" xmlns="http://www.w3.org/2000/svg"><path fill="#EE4D4D" d="M12 1.25c-.5 0-.89.27-1.15.56 -.27.29-.47.68-.62 1.09 -.32.82-.49 1.92-.49 3.09 0 .2 0 .4.01.6 -.14-.15-.28-.3-.42-.45 -.83-.83-1.73-1.48-2.54-1.85 -.4-.19-.82-.32-1.21-.34 -.4-.03-.86.05-1.22.4 -.36.35-.44.81-.41 1.21 .02.39.15.8.33 1.2 .36.8 1.01 1.7 1.84 2.53 .14.14.29.28.44.41 -.2-.02-.41-.02-.61-.02 -1.18 0-2.27.17-3.1.48 -.42.15-.8.35-1.1.61 -.3.26-.57.64-.57 1.14 0 .49.27.88.56 1.14 .29.26.68.46 1.09.61 .82.31 1.92.48 3.09.48 .2 0 .4-.01.6-.02 -.15.13-.3.27-.45.41 -.83.82-1.48 1.72-1.85 2.53 -.19.39-.32.81-.34 1.2 -.03.39.05.85.4 1.21 .35.35.81.43 1.21.4 .39-.03.8-.16 1.2-.34 .8-.37 1.7-1.02 2.53-1.85 .14-.15.28-.3.41-.45 -.02.19-.02.4-.02.6 0 1.17.17 2.26.48 3.09 .15.41.35.79.61 1.09 .26.29.64.56 1.14.56 .49 0 .88-.28 1.14-.57 .26-.3.46-.69.61-1.1 .31-.83.48-1.93.48-3.1 0-.21-.01-.41-.02-.61 .13.14.27.29.41.44 .82.82 1.72 1.47 2.53 1.84 .39.18.81.31 1.2.33 .39.02.85-.06 1.21-.41 .35-.36.43-.82.4-1.22 -.03-.4-.16-.81-.34-1.21 -.37-.81-1.02-1.71-1.85-2.54 -.15-.15-.3-.29-.45-.42 .19.01.4.01.6.01 1.17 0 2.26-.18 3.09-.49 .41-.16.79-.36 1.09-.62 .29-.27.56-.65.56-1.15 0-.5-.28-.89-.57-1.15 -.3-.27-.69-.47-1.1-.62 -.83-.32-1.93-.49-3.1-.49 -.21 0-.41 0-.61.01 .14-.14.29-.28.44-.42 .82-.83 1.47-1.73 1.84-2.54 .18-.4.31-.82.33-1.21 .02-.4-.06-.86-.41-1.22 -.36-.36-.82-.44-1.22-.41 -.4.02-.81.15-1.21.33 -.81.36-1.71 1.01-2.54 1.84 -.15.14-.29.29-.42.44 .01-.2.01-.41.01-.61 0-1.18-.18-2.27-.49-3.1 -.16-.42-.36-.8-.62-1.1 -.27-.3-.65-.57-1.15-.57Z"/><path fill="#FFC44D" d="M12 7.25c-2.63 0-4.75 2.12-4.75 4.75 0 2.62 2.12 4.75 4.75 4.75 2.62 0 4.75-2.13 4.75-4.75 0-2.63-2.13-4.75-4.75-4.75Z"/></svg>