<svg viewBox="0 0 24 24" xmlns="http://www.w3.org/2000/svg"><path fill="#ABD780" d="M3.25 11.09c0-1.29 1.35-2.13 2.5-1.56l3.57 1.78c.25.12.41.38.41.67v2.99c0 .41-.34.75-.75.75H7.47c-.2 0-.39-.08-.54-.22l-3.22-3.22c-.33-.33-.51-.77-.51-1.23Z"/><path fill="#8BC94D" fill-rule="evenodd" d="M9.74 7.1c0-.91.93-1.52 1.76-1.14l2.67 1.21c.37.17.82 0 .99-.38 .17-.38 0-.83-.38-1L12.1 4.57c-1.83-.83-3.89.5-3.89 2.5v7.89c0 .41.33.75.75.75 .41 0 .75-.34.75-.75v-7.9Z"/><g fill="#A071FF"><path d="M11.49 9.05l.5-.56c-.51-.56-.51-.56-.51-.56l0-.01 0-.01 .01-.02c.01-.02.03-.04.05-.06 .05-.05.12-.11.21-.19 .17-.15.42-.35.7-.55 .27-.2.59-.41.91-.58 .29-.16.68-.32 1.08-.32 1.24 0 2.25 1 2.25 2.25 0 1.24-1.01 2.25-2.25 2.25 -.4 0-.79-.17-1.09-.32 -.32-.17-.64-.38-.92-.58 -.28-.21-.53-.4-.71-.55 -.09-.08-.17-.14-.22-.19 -.03-.03-.05-.04-.06-.06l-.02-.02 -.01-.01 -.01-.01s-.01-.01.5-.56l-.51-.56c-.16.14-.25.34-.25.55 0 .21.09.41.24.55Z"/><path d="M20.5 9.05l-.51-.56c.5.55.5.55.5.55l-.01 0 -.01 0 -.02.01c-.02.01-.04.03-.06.05 -.06.04-.13.1-.22.18 -.18.14-.43.34-.71.54 -.28.19-.6.4-.92.57 -.3.15-.69.31-1.09.31 -1.25 0-2.25-1.01-2.25-2.25 0-1.25 1-2.25 2.25-2.25 .39 0 .78.16 1.08.31 .31.16.63.37.91.57 .27.2.52.39.7.54 .08.07.16.13.21.18 .02.02.04.03.05.05l.01.01 0 0 0 0s0 0-.51.55l.5-.56c.15.14.24.34.24.55 0 .21-.1.41-.25.55Z"/><path fill="#A071FF" fill-rule="evenodd" d="M16.55 2.49l-.56.5 -.56-.51c.14-.16.34-.25.55-.25 .21 0 .41.09.55.24Zm-.56.5c-.56-.51-.56-.51-.56-.51l-.01 0 -.01 0 -.02.01c-.02.01-.03.03-.06.05 -.05.05-.11.12-.19.21 -.15.17-.35.42-.55.7 -.2.27-.41.59-.58.91 -.16.29-.32.68-.32 1.08 0 1.24 1 2.25 2.25 2.25 1.24 0 2.25-1.01 2.25-2.25 0-.4-.17-.79-.32-1.09 -.17-.32-.38-.64-.58-.92 -.21-.28-.4-.53-.55-.71 -.08-.09-.14-.17-.19-.22 -.03-.03-.04-.05-.06-.06l-.02-.02 -.01-.01 -.01-.01s-.01-.01-.56.5Z"/></g><path fill="#FFC44D" fill-rule="evenodd" d="M16 7.25c.41 0 .75.33.75.75v4c0 .41-.34.75-.75.75 -.42 0-.75-.34-.75-.75V8c0-.42.33-.75.75-.75Z"/><path fill="#FFC44D" d="M12 14.25c.22 0 .42.09.57.26 .14.16.2.39.16.6l-1 6c-.07.36-.38.62-.74.62h-4c-.37 0-.68-.27-.74-.63l-1-6c-.04-.22.02-.44.16-.61 .14-.17.35-.27.57-.27h5.99Z"/></svg>