<svg viewBox="0 0 24 24" xmlns="http://www.w3.org/2000/svg"><path fill="#FF884D" d="M9 17.25c-.24 0-.45.1-.6.28 -.15.18-.2.41-.14.64l1 4c.08.33.38.56.72.56h4c.34 0 .64-.24.72-.57l1-4c.05-.23 0-.47-.14-.65 -.15-.19-.37-.29-.6-.29h-6Z"/><g fill="#A2D471" fill-rule="evenodd"><path d="M12 6.25c.41 0 .75.33.75.75v8c0 .41-.34.75-.75.75 -.42 0-.75-.34-.75-.75V7c0-.42.33-.75.75-.75Z"/><path d="M7.32 4.66c.18-.38.63-.53 1-.34l3.66 1.83 3.66-1.84c.37-.19.82-.04 1 .33 .18.37.03.82-.34 1l-4 2c-.22.1-.46.1-.68 0l-4.01-2c-.38-.19-.53-.64-.34-1.01Z"/><path d="M5.79 10.74c.14-.39.57-.6.96-.45l5.24 1.9 5.24-1.91c.38-.15.81.05.96.44 .14.38-.06.81-.45.96l-5.5 2c-.17.06-.35.06-.52 0l-5.51-2c-.39-.15-.6-.58-.45-.97Z"/></g><g fill="#8BC94D"><path d="M5 1.25C2.92 1.25 1.25 2.92 1.25 5c0 2.07 1.67 3.75 3.75 3.75 2.07 0 3.75-1.68 3.75-3.75 0-2.08-1.68-3.75-3.75-3.75Z"/><path d="M19 1.25c-2.08 0-3.75 1.67-3.75 3.75 0 2.07 1.67 3.75 3.75 3.75 2.07 0 3.75-1.68 3.75-3.75 0-2.08-1.68-3.75-3.75-3.75Z"/><path d="M19.5 9.25c-1.8 0-3.25 1.45-3.25 3.25 0 1.79 1.45 3.25 3.25 3.25 1.79 0 3.25-1.46 3.25-3.25 0-1.8-1.46-3.25-3.25-3.25Z"/><path d="M4.5 9.25c-1.8 0-3.25 1.45-3.25 3.25 0 1.79 1.45 3.25 3.25 3.25 1.79 0 3.25-1.46 3.25-3.25 0-1.8-1.46-3.25-3.25-3.25Z"/></g><path fill="#FFA071" d="M8 14.25c-.42 0-.75.33-.75.75v3c0 .41.33.75.75.75h8c.41 0 .75-.34.75-.75v-3c0-.42-.34-.75-.75-.75H8Z"/></svg>