<svg viewBox="0 0 24 24" xmlns="http://www.w3.org/2000/svg"><g fill-rule="evenodd"><path d="M1.5 4c0-.28.22-.5.5-.5h20c.27 0 .5.22.5.5v11c0 .27-.23.5-.5.5H2c-.28 0-.5-.23-.5-.5V4Zm1 .5v10h19v-10h-19Z"/><path d="M9.5 18c0-.28.22-.5.5-.5h4c.27 0 .5.22.5.5v4c0 .27-.23.5-.5.5h-4c-.28 0-.5-.23-.5-.5v-4Zm1 .5v3h3v-3h-3Z"/><path d="M8 15c0-.28.22-.5.5-.5h7c.27 0 .5.22.5.5v3c0 .27-.23.5-.5.5h-7c-.28 0-.5-.23-.5-.5v-3Zm1 .5v2h6v-2H9Z"/><path d="M4 2v2H3V2h1Z"/><path d="M12.5 2v2h-1V2h1Z"/><path d="M21 2v2h-1V2h1Z"/><path d="M12.53 7.38c-.19-.15-.45-.15-.63 0l-1.73 1.37c-.12.09-.19.23-.19.39v2.35c0 .27.22.5.5.5h3.44c.27 0 .5-.23.5-.5V9.13c0-.16-.07-.3-.19-.4L12.5 7.35Zm-1.25-.79c.54-.44 1.32-.44 1.86 0l1.72 1.37c.35.28.56.71.56 1.17v2.35c0 .82-.68 1.5-1.5 1.5h-3.45c-.83 0-1.5-.68-1.5-1.5V9.12c0-.46.2-.89.56-1.18l1.72-1.38Z"/></g></svg>