<svg viewBox="0 0 24 24" xmlns="http://www.w3.org/2000/svg"><g fill-rule="evenodd"><path d="M4.5 7c0-.28.22-.5.5-.5h10c.27 0 .5.22.5.5v15c0 .27-.23.5-.5.5H5c-.28 0-.5-.23-.5-.5V7Zm1 .5v14h9v-14h-9Z"/><path d="M8.5 2c0-.28.22-.5.5-.5h9c.27 0 .5.22.5.5v14c0 .27-.23.5-.5.5h-3v-1h2.5v-13h-8V7h-1V2Z"/><path d="M8.78 1.54c.17-.09.38-.06.53.06l6 5c.16.13.22.35.15.55 -.08.19-.26.32-.48.32h-6c-.28 0-.5-.23-.5-.5v-5c0-.2.11-.38.28-.46Zm.71 1.52v3.43H13.6L9.49 3.05Z"/><path d="M10.34 12.78c-.2-.19-.51-.19-.7 0l-1.23 1.19c-.1.09-.16.22-.16.35v1.91c0 .27.22.5.5.5h2.44c.27 0 .5-.23.5-.5v-1.92c0-.14-.06-.27-.16-.36l-1.23-1.2Zm-1.4-.72c.58-.57 1.51-.57 2.09 0l1.22 1.19c.28.28.45.66.45 1.07v1.91c0 .82-.68 1.5-1.5 1.5H8.75c-.83 0-1.5-.68-1.5-1.5v-1.92c0-.41.16-.8.45-1.08l1.22-1.2Z"/></g></svg>