<svg viewBox="0 0 24 24" xmlns="http://www.w3.org/2000/svg"><g fill-rule="evenodd"><path d="M22 22.5H2v-1h20v1Z"/><path d="M4.5 2c0-.28.22-.5.5-.5h3c.27 0 .5.22.5.5v20c0 .27-.23.5-.5.5H5c-.28 0-.5-.23-.5-.5V2Zm1 .5v19h2v-19h-2Z"/><path d="M2 8.5c-.28 0-.5-.23-.5-.5V5c0-.28.22-.5.5-.5h20c.27 0 .5.22.5.5v3c0 .27-.23.5-.5.5H2Zm.5-1h19v-2h-19v2Z"/><path d="M16 15c-.28 0-.5-.23-.5-.5V12c0-.28.22-.5.5-.5h6c.27 0 .5.22.5.5v2.5c0 .27-.23.5-.5.5h-6Zm.5-1h5v-1.5h-5V14Z"/><path d="M18.5 12V8h1v4h-1Z"/></g></svg>