<svg viewBox="0 0 24 24" xmlns="http://www.w3.org/2000/svg"><g fill-rule="evenodd"><path d="M7.5 6c0-.28.22-.5.5-.5h8c.27 0 .5.22.5.5v4c0 1.93-1.57 3.5-3.5 3.5h-2c-1.94 0-3.5-1.57-3.5-3.5V6Zm1 .5V10c0 1.38 1.11 2.5 2.5 2.5h2c1.38 0 2.5-1.12 2.5-2.5V6.5h-7Z"/><path d="M7.5 4c0-1.39 1.11-2.5 2.5-2.5h4c1.38 0 2.5 1.11 2.5 2.5v2c0 .27-.23.5-.5.5H8c-.28 0-.5-.23-.5-.5V4ZM10 2.5c-.83 0-1.5.67-1.5 1.5v1.5h7V4c0-.83-.68-1.5-1.5-1.5h-4Z"/><path d="M3.41 17.26c.8-1.41 2.29-2.27 3.9-2.27h9.35c1.61 0 3.1.86 3.9 2.26l.58 1.02c.21.37.32.8.32 1.24v2.46c0 .27-.23.5-.5.5h-18c-.28 0-.5-.23-.5-.5V19.5c0-.44.11-.87.32-1.25l.58-1.03Zm3.9-1.27c-1.26 0-2.42.673-3.04 1.76l-.59 1.02c-.13.22-.2.48-.2.74v1.96h17V19.5c0-.27-.07-.52-.2-.75l-.59-1.03c-.63-1.1-1.79-1.77-3.04-1.77H7.29Z"/><path d="M6.5 5.5h11v1h-11v-1Z"/><path d="M8.5 18v-2.5h1V18c0 .27.22.5.5.5h4c.27 0 .5-.23.5-.5v-2.5h1V18c0 .82-.68 1.5-1.5 1.5h-4c-.83 0-1.5-.68-1.5-1.5Z"/><path d="M11.5 22v-3h1v3h-1Z"/><path d="M11.5 3.5V2h1v1.5h-1Z"/></g></svg>