<svg viewBox="0 0 24 24" xmlns="http://www.w3.org/2000/svg"><g fill-rule="evenodd"><path d="M5 19V8H4v11.5c0 .27.22.5.5.5h15c.27 0 .5-.23.5-.5V8h-1v11H5Z"/><path d="M11.87 1.6c.18-.15.44-.15.62 0l9.81 8 -.64.77 -9.51-7.75 -9.88 7.75 -.62-.79 10.18-8Z"/><path d="M1.5 19.5c0-.28.22-.5.5-.5h20c.27 0 .5.22.5.5V22c0 .27-.23.5-.5.5H2c-.28 0-.5-.23-.5-.5v-2.5Zm1 .5v1.5h19V20h-19Z"/><path d="M11.99 6.5c.21 0 .4.13.47.34l1.01 3.1h3.26c.21 0 .4.13.47.34 .06.2-.01.43-.19.55l-2.65 1.92 1.01 3.1c.06.2-.01.43-.19.55 -.18.12-.42.12-.59 0l-2.65-1.93 -2.65 1.92c-.18.12-.42.12-.59 0 -.18-.13-.25-.36-.19-.56l1.01-3.11 -2.65-1.93c-.18-.13-.25-.36-.19-.56 .06-.21.25-.35.47-.35h3.26l1.01-3.11c.06-.21.25-.35.47-.35Zm0 2.11l-.65 1.99c-.07.2-.26.34-.48.34h-2.1l1.69 1.23c.17.12.24.35.18.55l-.65 1.99 1.69-1.24c.17-.13.41-.13.58 0l1.69 1.23 -.65-2c-.07-.21 0-.44.18-.56l1.69-1.24h-2.1c-.22 0-.41-.14-.48-.35l-.65-2Z"/></g></svg>