<svg viewBox="0 0 24 24" xmlns="http://www.w3.org/2000/svg"><g fill-rule="evenodd"><path d="M4.49 12c0 2.39 1.18 4.52 3.01 5.86 .31.23.65.43 1 .61l-.46.88c-.4-.21-.78-.44-1.14-.71 -2.08-1.52-3.43-3.94-3.43-6.68 0-4.61 3.81-8.32 8.5-8.32v1c-4.16 0-7.51 3.28-7.51 7.31Zm7.5 7.31c4.15 0 7.5-3.29 7.5-7.32 0-2.81-1.62-5.25-4-6.48l.45-.89c2.69 1.39 4.54 4.16 4.54 7.36 0 4.6-3.82 8.31-8.51 8.31v-1Z"/><path d="M11.79 4.02l-2.83-1.6 .49-.88 3.26 1.84c.11.06.2.17.23.3 .03.12.01.26-.06.38l-1.89 3.19 -.87-.51 1.62-2.76Z"/><path d="M11.02 20.287c-.04-.13-.02-.27.05-.39l1.88-3.2 .86.5 -1.63 2.753L15 21.54l-.5.87 -3.27-1.85c-.12-.07-.21-.18-.24-.31Z"/><path d="M12.03 9.88c-.19-.15-.45-.15-.63 0l-1.73 1.37c-.12.09-.19.23-.19.39v2.35c0 .27.22.5.5.5h3.44c.27 0 .5-.23.5-.5v-2.36c0-.16-.07-.3-.19-.4L12 9.85Zm-1.25-.79c.54-.44 1.32-.44 1.86 0l1.72 1.37c.35.28.56.71.56 1.17v2.35c0 .82-.68 1.5-1.5 1.5H9.97c-.83 0-1.5-.68-1.5-1.5v-2.36c0-.46.2-.89.56-1.18l1.72-1.38Z"/></g></svg>