<svg viewBox="0 0 24 24" xmlns="http://www.w3.org/2000/svg"><g fill-rule="evenodd"><path d="M22 16.5H2v-1h20v1Z"/><path d="M18.53 21.18l-2-5 .92-.38 2 5 -.93.37Z"/><path d="M5.46 21.18l2-5 -.93-.38 -2 5 .92.37Z"/><path d="M3.5 4c0-.28.22-.5.5-.5h16c.27 0 .5.22.5.5v12c0 .27-.23.5-.5.5H4c-.28 0-.5-.23-.5-.5V4Zm1 .5v11h15v-11h-15Z"/><path d="M12.34 8.28c-.2-.19-.51-.19-.7 0l-1.23 1.19c-.1.09-.16.22-.16.35v1.91c0 .27.22.5.5.5h2.44c.27 0 .5-.23.5-.5V9.81c0-.14-.06-.27-.16-.36l-1.23-1.2Zm-1.4-.72c.58-.57 1.51-.57 2.09 0l1.22 1.19c.28.28.45.66.45 1.07v1.91c0 .82-.68 1.5-1.5 1.5h-2.45c-.83 0-1.5-.68-1.5-1.5V9.81c0-.41.16-.8.45-1.08l1.22-1.2Z"/></g></svg>