<svg viewBox="0 0 24 24" xmlns="http://www.w3.org/2000/svg"><g fill-rule="evenodd"><path d="M18.5 8c0-1.11.89-2 2-2 1.1 0 2 .89 2 2v7.08c0 .39-.16.77-.44 1.06l-4.57 4.56v1.79c0 .27-.23.5-.5.5h-5c-.28 0-.5-.23-.5-.5v-6c0-.28.22-.5.5-.5 .27 0 .5.22.5.5v5.5h4v-1.5c0-.14.05-.26.14-.36l4.7-4.71c.09-.1.14-.23.14-.36V7.97c0-.56-.45-1-1-1 -.56 0-1 .44-1 1v5.5c0 .13-.06.25-.15.35l-2 2c-.2.19-.52.19-.71 0 -.2-.2-.2-.52 0-.71l1.85-1.86v-5.3Z"/><path d="M5.5 8c0-1.11-.9-2-2-2 -1.11 0-2 .89-2 2v7.08c0 .39.15.77.43 1.06l4.56 4.56v1.79c0 .27.22.5.5.5h5c.27 0 .5-.23.5-.5v-6c0-.28-.23-.5-.5-.5 -.28 0-.5.22-.5.5v5.5h-4v-1.5c0-.14-.06-.26-.15-.36l-4.71-4.71c-.1-.1-.15-.23-.15-.36V7.97c0-.56.44-1 1-1 .55 0 1 .44 1 1v5.5c0 .13.05.25.14.35l2 2c.19.19.51.19.7 0 .19-.2.19-.52 0-.71l-1.86-1.86v-5.3Z"/><path d="M18.5 12.91c0-.82-.99-1.23-1.57-.65l-4.59 4.58c-.2.19-.52.19-.71 0 -.2-.2-.2-.52 0-.71l4.58-4.59c1.2-1.21 3.26-.36 3.26 1.35 0 .5-.21.99-.57 1.35l-1.59 1.58c-.2.19-.52.19-.71 0 -.2-.2-.2-.52 0-.71l1.58-1.59c.17-.18.26-.41.26-.65Z"/><path d="M5.5 12.91c0-.82.98-1.23 1.56-.65l4.58 4.58c.19.19.51.19.7 0 .19-.2.19-.52 0-.71l-4.59-4.59c-1.21-1.21-3.27-.36-3.27 1.35 0 .5.2.99.56 1.35l1.58 1.58c.19.19.51.19.7 0 .19-.2.19-.52 0-.71l-1.59-1.59c-.18-.18-.27-.41-.27-.65Z"/><path d="M12.53 2.88c-.19-.15-.45-.15-.63 0l-1.73 1.37c-.12.09-.19.23-.19.39v2.35c0 .27.22.5.5.5h3.44c.27 0 .5-.23.5-.5V4.63c0-.16-.07-.3-.19-.4L12.5 2.85Zm-1.25-.79c.54-.44 1.32-.44 1.86 0l1.72 1.37c.35.28.56.71.56 1.17v2.35c0 .82-.68 1.5-1.5 1.5h-3.45c-.83 0-1.5-.68-1.5-1.5V4.62c0-.46.2-.89.56-1.18l1.72-1.38Z"/></g></svg>