<svg viewBox="0 0 24 24" xmlns="http://www.w3.org/2000/svg"><g fill-rule="evenodd"><path d="M6 2.5c-.83 0-1.5.67-1.5 1.5v16c0 .82.67 1.5 1.5 1.5h12c.82 0 1.5-.68 1.5-1.5V8.2l-5.71-5.71h-7.8ZM3.5 4c0-1.39 1.11-2.5 2.5-2.5h8c.13 0 .25.05.35.14l6 6c.09.09.14.22.14.35v12c0 1.38-1.12 2.5-2.5 2.5h-12c-1.39 0-2.5-1.12-2.5-2.5v-16Z"/><path d="M13.8 1.53c.18-.08.4-.04.54.1l6 6c.14.14.18.35.1.54 -.08.18-.26.3-.47.3h-3c-1.94 0-3.5-1.57-3.5-3.5v-3c0-.21.12-.39.3-.47Zm.69 1.66v1.79c0 1.38 1.11 2.5 2.5 2.5h1.79l-4.3-4.3Z"/><path d="M11 6.5H7v-1h4v1Z"/><path d="M12 9.5H7v-1h5v1Z"/><path d="M12.57 13.53c-.2-.19-.51-.19-.7 0l-1.23 1.19c-.1.09-.16.22-.16.35v1.91c0 .27.22.5.5.5h2.44c.27 0 .5-.23.5-.5v-1.92c0-.14-.06-.27-.16-.36l-1.23-1.2Zm-1.4-.72c.58-.57 1.51-.57 2.09 0L14.48 14c.28.28.45.66.45 1.07v1.91c0 .82-.68 1.5-1.5 1.5h-2.45c-.83 0-1.5-.68-1.5-1.5v-1.92c0-.41.16-.8.45-1.08l1.22-1.2Z"/></g></svg>