<svg viewBox="0 0 24 24" xmlns="http://www.w3.org/2000/svg"><g fill-rule="evenodd"><path d="M1.5 21c0-2.49 2.01-4.5 4.5-4.5h12c2.48 0 4.5 2.01 4.5 4.5v1c0 .27-.23.5-.5.5H2c-.28 0-.5-.23-.5-.5v-1ZM6 17.5c-1.94 0-3.5 1.56-3.5 3.5v.5h19V21c0-1.94-1.57-3.5-3.5-3.5H6Z"/><path d="M3.54 9.29l2.29-.77c.1-.04.21-.04.31 0l2.84.94 2.84-.95c.1-.04.21-.04.31 0l2.29.76c-.35-2.71-2.66-4.8-5.46-4.8s-5.11 2.08-5.46 4.79Zm-1.05.7c0-3.59 2.91-6.5 6.5-6.5 3.58 0 6.5 2.91 6.5 6.5 0 .16-.08.31-.21.4 -.14.09-.3.11-.46.06l-2.85-.95 -2.85.94c-.11.03-.22.03-.32 0l-2.85-.95 -2.85.94c-.16.05-.33.02-.46-.07 -.14-.1-.21-.25-.21-.41Z"/><path d="M8.5 17v-7h1v7h-1Z"/><path d="M19.5 2.5c-1.11 0-2 .89-2 2 0 1.1.89 2 2 2 1.1 0 2-.9 2-2 0-1.11-.9-2-2-2Zm-3 2c0-1.66 1.34-3 3-3 1.65 0 3 1.34 3 3 0 1.65-1.35 3-3 3 -1.66 0-3-1.35-3-3Z"/></g></svg>