<svg viewBox="0 0 24 24" xmlns="http://www.w3.org/2000/svg"><g fill-rule="evenodd"><path d="M1.5 21c0-2.49 2.01-4.5 4.5-4.5h12c2.48 0 4.5 2.01 4.5 4.5v1c0 .27-.23.5-.5.5H2c-.28 0-.5-.23-.5-.5v-1ZM6 17.5c-1.94 0-3.5 1.56-3.5 3.5v.5h19V21c0-1.94-1.57-3.5-3.5-3.5H6Z"/><path d="M19.5 2.5c-1.11 0-2 .89-2 2 0 1.1.89 2 2 2 1.1 0 2-.9 2-2 0-1.11-.9-2-2-2Zm-3 2c0-1.66 1.34-3 3-3 1.65 0 3 1.34 3 3 0 1.65-1.35 3-3 3 -1.66 0-3-1.35-3-3Z"/><path d="M8.5 1.5c.14 0 .28.06.37.17l2.31 2.64c.84.96 1.23 2.25 1.07 3.53l-1.18 9.21c-.04.24-.25.43-.5.43H6.36c-.26 0-.47-.19-.5-.44L4.68 7.82c-.17-1.28.22-2.57 1.07-3.54l2.31-2.65c.09-.11.23-.18.37-.18Zm0 1.25L6.56 4.96c-.66.75-.97 1.75-.84 2.74l1.11 8.77h3.31l1.11-8.78c.12-1-.18-2-.84-2.75L8.47 2.72Z"/></g></svg>