<svg viewBox="0 0 24 24" xmlns="http://www.w3.org/2000/svg"><g fill-rule="evenodd"><path d="M4.64 21.35c-.36-.36-.94-.36-1.3 0l-1 1 -.71-.71 1-1c.74-.75 1.95-.75 2.7 0 .35.35.93.35 1.29 0 .74-.75 1.95-.75 2.7 0 .35.35.93.35 1.29 0 .74-.75 1.95-.75 2.7 0 .35.35.93.35 1.29 0 .74-.75 1.95-.75 2.7 0 .35.35.93.35 1.29 0 .74-.75 1.95-.75 2.7 0l1 1 -.71.7 -1-1c-.36-.36-.94-.36-1.3 0 -.75.74-1.96.74-2.71 0 -.36-.36-.94-.36-1.3 0 -.75.74-1.96.74-2.71 0 -.36-.36-.94-.36-1.3 0 -.75.74-1.96.74-2.71 0 -.36-.36-.94-.36-1.3 0 -.75.74-1.96.74-2.71 0Z"/><path d="M4.64 17.85c-.36-.36-.94-.36-1.3 0l-1 1 -.71-.71 1-1c.74-.75 1.95-.75 2.7 0 .35.35.93.35 1.29 0 .74-.75 1.95-.75 2.7 0 .35.35.93.35 1.29 0 .74-.75 1.95-.75 2.7 0 .35.35.93.35 1.29 0 .74-.75 1.95-.75 2.7 0 .35.35.93.35 1.29 0 .74-.75 1.95-.75 2.7 0l1 1 -.71.7 -1-1c-.36-.36-.94-.36-1.3 0 -.75.74-1.96.74-2.71 0 -.36-.36-.94-.36-1.3 0 -.75.74-1.96.74-2.71 0 -.36-.36-.94-.36-1.3 0 -.75.74-1.96.74-2.71 0 -.36-.36-.94-.36-1.3 0 -.75.74-1.96.74-2.71 0Z"/><path d="M7.23 13.5c-.57 0-1.09.32-1.35.82l-1.45 2.89 -.9-.45 1.44-2.9c.42-.85 1.28-1.39 2.23-1.39h9.52c.94 0 1.81.53 2.23 1.38l1.44 2.89 -.9.44 -1.45-2.9c-.26-.51-.78-.83-1.35-.83H7.16Z"/><path d="M4.54 8.33l2.44-.66c.11-.03.22-.03.33.02l1.67.74 1.67-.75c.1-.05.22-.06.33-.03l2.44.65c-.33-2.18-2.2-3.84-4.46-3.84s-4.14 1.66-4.46 3.83Zm-1.05.66c0-3.04 2.46-5.5 5.5-5.5 3.03 0 5.5 2.46 5.5 5.5 0 .15-.08.3-.2.39 -.13.09-.29.12-.44.08l-2.96-.79 -1.72.76c-.13.05-.28.05-.41 0l-1.72-.77 -2.96.78c-.16.04-.32 0-.44-.09 -.13-.1-.2-.25-.2-.4Z"/><path d="M8.5 13V9h1v4h-1Z"/><path d="M19.5 2.5c-1.11 0-2 .89-2 2 0 1.1.89 2 2 2 1.1 0 2-.9 2-2 0-1.11-.9-2-2-2Zm-3 2c0-1.66 1.34-3 3-3 1.65 0 3 1.34 3 3 0 1.65-1.35 3-3 3 -1.66 0-3-1.35-3-3Z"/></g></svg>