<svg viewBox="0 0 24 24" xmlns="http://www.w3.org/2000/svg"><g fill-rule="evenodd"><path d="M13.68 4.2c-.96-.87-2.41-.87-3.37 0L7.48 6.77c-.32.28-.5.68-.5 1.1v12.61c0 .55.44 1 1 1 .55 0 1-.45 1-1V9.98c0-1.39 1.11-2.5 2.5-2.5h1c1.38 0 2.5 1.11 2.5 2.5v10.5c0 .55.44 1 1 1 .55 0 1-.45 1-1V7.86c0-.43-.18-.83-.5-1.11l-2.83-2.58Zm-4.04-.74c1.33-1.22 3.37-1.22 4.7 0l2.82 2.57c.52.47.81 1.14.81 1.84v12.61c0 1.1-.9 2-2 2 -1.11 0-2-.9-2-2V9.98c0-.83-.68-1.5-1.5-1.5h-1c-.83 0-1.5.67-1.5 1.5v10.5c0 1.1-.9 2-2 2 -1.11 0-2-.9-2-2V7.86c0-.71.29-1.38.81-1.85L9.6 3.43Z"/><path d="M9 10c0-1.39 1.11-2.5 2.5-2.5h1c1.38 0 2.5 1.11 2.5 2.5v10c0 .27-.23.5-.5.5h-5c-.28 0-.5-.23-.5-.5V10Zm2.5-1.5c-.83 0-1.5.67-1.5 1.5v9.5h4V10c0-.83-.68-1.5-1.5-1.5h-1Z"/><path d="M20.22 6.41c.16.11.38.11.55 0l1.5-1c.13-.1.22-.25.22-.42v-3c0-.28-.23-.5-.5-.5h-3c-.28 0-.5.22-.5.5v3c0 .16.08.32.22.41l1.5 1Zm-.73-1.69V2.48h2v2.23l-1 .66 -1-.67Z"/><path d="M3.22 6.41c.16.11.38.11.55 0l1.5-1c.13-.1.22-.25.22-.42v-3c0-.28-.23-.5-.5-.5h-3c-.28 0-.5.22-.5.5v3c0 .16.08.32.22.41l1.5 1Zm-.73-1.69V2.48h2v2.23l-1 .66 -1-.67Z"/><path d="M21 17V6h-1v11h1Z"/><path d="M4 17V6H3v11h1Z"/></g></svg>