<svg viewBox="0 0 24 24" xmlns="http://www.w3.org/2000/svg"><g fill-rule="evenodd"><path d="M18.14 11.64c.09-.1.22-.15.35-.15h3.5c.19 0 .37.11.45.28 .08.17.05.38-.07.53l-5 6c-.1.11-.24.17-.39.17H7.11l-4.89 2.92c-.16.09-.35.09-.51 0 -.16-.09-.26-.26-.26-.44v-3c0-.18.09-.34.24-.43l5-3c.07-.05.16-.08.25-.08h8.29l2.85-2.86Zm.56.85l-2.86 2.85c-.1.09-.23.14-.36.14H7.11l-4.64 2.78v1.83l4.24-2.55c.07-.05.16-.08.25-.08h9.76l4.16-5h-2.23Z"/><path d="M5.55 21.77l2-4 .89.44 -2 4 -.9-.45Z"/><path d="M19.44 21.77l-2-4 -.9.44 2 4 .89-.45Z"/><path d="M2.53 9.35l3.34-.84c.06-.02.13-.02.2-.01l5.91.98 5.91-.99c.06-.02.13-.01.2 0l3.34.83c-.42-3.76-4.4-6.86-9.47-6.86s-9.05 3.09-9.47 6.85Zm-1.04.64c0-4.8 4.81-8.5 10.5-8.5 5.68 0 10.5 3.7 10.5 8.5 0 .15-.08.29-.2.39 -.13.09-.28.12-.43.09l-3.9-.98 -5.9.98c-.06 0-.11 0-.17 0l-5.9-.99 -3.9.97c-.15.03-.31 0-.43-.1 -.13-.1-.2-.25-.2-.4Z"/><path d="M11.5 22V10h1v12h-1Z"/></g></svg>