<svg viewBox="0 0 24 24" xmlns="http://www.w3.org/2000/svg"><g fill-rule="evenodd"><path d="M22.19 1.53c.18.07.3.25.3.46v4c0 .13-.06.25-.15.35l-16 16c-.1.09-.23.14-.36.14h-4c-.21 0-.39-.13-.47-.31 -.08-.19-.04-.41.1-.55l20-20c.14-.15.35-.19.54-.11ZM3.2 21.49h2.58l15.7-15.71V3.19L3.18 21.48Z"/><path d="M13.64 13.64c.19-.2.51-.2.7 0l8 8c.14.14.18.35.1.54 -.08.18-.26.3-.47.3h-4c-.14 0-.26-.06-.36-.15l-6-6c-.2-.2-.2-.52 0-.71l2-2Zm-.94 2.35l5.5 5.5h2.58l-6.8-6.8 -1.3 1.29Z"/><path d="M17.81 14.49l3.724-8.69 .91.39 -3.724 8.68c-.34.78-.82 1.47-1.39 2.04l-.71-.71c.48-.49.88-1.07 1.16-1.73Zm-14.64.04l4.5 1.73 -.36.93 -4.5-1.74 .35-.94Zm7.22 2.77l.38.14c1.02.39 2.1.46 3.1.24l.2.97c-1.19.25-2.47.17-3.68-.3L10 18.2l.359-.94Z"/></g></svg>