<svg viewBox="0 0 24 24" xmlns="http://www.w3.org/2000/svg"><g fill-rule="evenodd"><path d="M21 2v16c0 .82-.68 1.5-1.5 1.5h-7v1h7c1.38 0 2.5-1.12 2.5-2.5V2h-1Z"/><path d="M11 17.55c1.14.23 2 1.24 2 2.45 0 1.38-1.12 2.5-2.5 2.5 -1.21 0-2.22-.86-2.45-2H5.99v-1h2.05c.19-.98.97-1.76 1.94-1.95V13.5h1v4.05Zm-.5.95c.82 0 1.5.67 1.5 1.5 0 .82-.68 1.5-1.5 1.5 -.83 0-1.5-.68-1.5-1.5 0-.83.67-1.5 1.5-1.5Z"/><path d="M2 11c0-2.49 2.01-4.5 4.5-4.5h8c2.48 0 4.5 2.01 4.5 4.5v1.54c0 1.66-1.18 3.1-2.82 3.43l-1.28.25c-.99.19-2.01-.12-2.71-.83l-1.35-1.35c-.2-.2-.52-.2-.71 0l-1.35 1.34c-.71.7-1.73 1.01-2.71.82l-1.28-.26c-1.64-.33-2.82-1.77-2.82-3.44v-1.55Zm4.5-3.5C4.56 7.5 3 9.06 3 11v1.54c0 1.19.84 2.21 2 2.45l1.27.25c.65.13 1.33-.08 1.8-.55l1.34-1.35c.58-.59 1.53-.59 2.12 0l1.34 1.34c.47.47 1.15.67 1.8.54l1.27-.26c1.16-.24 2-1.26 2-2.46v-1.55c0-1.94-1.57-3.5-3.5-3.5h-8Z"/></g></svg>