<svg viewBox="0 0 24 24" xmlns="http://www.w3.org/2000/svg"><g fill-rule="evenodd"><path d="M12 9c-.56 0-1 .44-1 1 0 .55.44 1 1 1 .55 0 1-.45 1-1 0-.56-.45-1-1-1Zm-2 1c0-1.11.89-2 2-2 1.1 0 2 .89 2 2 0 1.1-.9 2-2 2 -1.11 0-2-.9-2-2Z"/><path d="M12.5 4.5v4h-1v-4h1Z"/><path d="M11.5 15.5v-4h1v4h-1Z"/><path d="M6.5 9.5h4v1h-4v-1Z"/><path d="M17.5 10.5h-4v-1h4v1Z"/><path d="M12 2.5c-4.15 0-7.5 3.35-7.5 7.5 0 4.14 3.35 7.5 7.5 7.5 4.14 0 7.5-3.36 7.5-7.5 0-4.15-3.36-7.5-7.5-7.5ZM3.5 10c0-4.7 3.8-8.5 8.5-8.5 4.69 0 8.5 3.8 8.5 8.5 0 4.69-3.81 8.5-8.5 8.5 -4.7 0-8.5-3.81-8.5-8.5Z"/><path d="M5.88 21.5l2.54-4.25 -.86-.52 -3 5c-.1.15-.1.34-.01.5 .08.15.25.25.43.25h14c.18 0 .34-.1.43-.26 .08-.16.08-.35-.01-.51l-3-5 -.86.51 2.54 4.24H5.84Z"/></g></svg>