<svg viewBox="0 0 24 24" xmlns="http://www.w3.org/2000/svg"><g fill-rule="evenodd"><path d="M5.74 1.57c.16-.1.37-.1.53.01l1.61 1.07c.67.44 1.54.44 2.21 0l1.61-1.08c.16-.12.38-.12.55 0l1.61 1.07c.67.44 1.54.44 2.21 0l1.61-1.08c.16-.11.36-.12.53-.02 .16.09.25.28.23.47l-1.78 17.74c-.16 1.53-1.45 2.7-2.99 2.7h-3.48c-1.55 0-2.84-1.17-2.99-2.71L5.42 1.99c-.02-.2.07-.38.23-.48ZM6.6 3l1.66 16.69c.1 1.02.96 1.8 1.99 1.8h3.47c1.02 0 1.88-.78 1.99-1.81l1.66-16.7 -.74.48c-1.01.67-2.33.67-3.33 0l-1.34-.9 -1.34.89c-1.01.67-2.33.67-3.33 0l-.74-.49Z"/><path d="M12 12.5c-1.03 0-2 1.03-2 2.5 0 1.46.97 2.5 2 2.5 1.02 0 2-1.04 2-2.5 0-1.47-.98-2.5-2-2.5ZM9 15c0-1.85 1.26-3.5 3-3.5 1.73 0 3 1.65 3 3.5 0 1.84-1.27 3.5-3 3.5 -1.74 0-3-1.66-3-3.5Z"/></g></svg>