<svg viewBox="0 0 24 24" xmlns="http://www.w3.org/2000/svg"><g fill-rule="evenodd"><path d="M7 10c0-1.39 1.11-2.5 2.5-2.5h5c1.38 0 2.5 1.11 2.5 2.5v10c0 1.38-1.12 2.5-2.5 2.5h-2.7c-1.53 0-2.7-1.35-2.48-2.86l.53-3.73c.06-.47-.1-.94-.43-1.28l-1.71-1.71c-.47-.47-.74-1.11-.74-1.77V9.97Zm2.5-1.5C8.67 8.5 8 9.17 8 10v1.17c0 .39.15.77.43 1.06l1.7 1.7c.55.55.81 1.34.7 2.12l-.54 3.72c-.13.9.57 1.71 1.48 1.71h2.69c.82 0 1.5-.68 1.5-1.5v-10c0-.83-.68-1.5-1.5-1.5h-5Z"/><path d="M6.83 2.88c-.21.26-.34.65-.34 1.11 0 .45.13.84.33 1.11 .2.26.43.38.66.38 .22 0 .46-.12.66-.39s.33-.66.33-1.12c0-.46-.14-.85-.34-1.12 -.21-.27-.44-.39-.67-.39 -.23 0-.47.11-.67.38Zm-.8-.6c.34-.46.85-.79 1.46-.79 .6 0 1.11.32 1.46.78 .34.45.53 1.06.53 1.71 0 .65-.2 1.25-.54 1.71 -.35.45-.86.78-1.47.78s-1.12-.33-1.47-.79c-.35-.46-.54-1.07-.54-1.72 0-.66.19-1.26.53-1.72Z"/><path d="M11 3.83c0-1.27 1.17-2.195 2.4-1.92l3.57.82c.89.2 1.52.99 1.52 1.91 0 1.26-1.18 2.19-2.41 1.91l-3.58-.83c-.89-.21-1.53-1-1.53-1.92Zm2.17-.94c-.61-.14-1.18.31-1.18.93 0 .44.3.83.74.93l3.57.82c.6.13 1.17-.32 1.17-.94 0-.45-.31-.84-.75-.94l-3.58-.83Z"/></g></svg>