<svg viewBox="0 0 24 24" xmlns="http://www.w3.org/2000/svg"><g fill-rule="evenodd"><path d="M4 7.44c.02-.26.24-.45.49-.45h3c.27 0 .5.22.5.5v2.5h2v-2.5c0-.28.22-.5.5-.5h3c.27 0 .5.22.5.5v2.5h2v-2.5c0-.28.22-.5.5-.5h3c.25 0 .47.19.49.44l1.5 14.5c.01.14-.04.28-.13.38 -.1.1-.23.16-.38.16h-18c-.15 0-.28-.06-.38-.17 -.1-.11-.15-.25-.13-.39l1.5-14.5Zm.94.55l-1.4 13.5h16.89l-1.4-13.5h-2.05v2.5c0 .27-.23.5-.5.5h-3c-.28 0-.5-.23-.5-.5v-2.5h-2v2.5c0 .27-.23.5-.5.5h-3c-.28 0-.5-.23-.5-.5v-2.5H4.93Z"/><path d="M9.5 17c0-1.39 1.11-2.5 2.5-2.5h1c1.38 0 2.5 1.11 2.5 2.5v5c0 .27-.23.5-.5.5h-5c-.28 0-.5-.23-.5-.5v-5Zm2.5-1.5c-.83 0-1.5.67-1.5 1.5v4.5h4V17c0-.83-.68-1.5-1.5-1.5h-1Z"/><path d="M12.5 2v5.5h-1V2h1Z"/><path d="M11.5 2c0-.28.22-.5.5-.5h4c.27 0 .5.22.5.5v3c0 .27-.23.5-.5.5h-4c-.28 0-.5-.23-.5-.5V2Zm1 .5v2h3v-2h-3Z"/></g></svg>