<svg viewBox="0 0 24 24" xmlns="http://www.w3.org/2000/svg"><g fill-rule="evenodd"><path d="M2.61 5.67c.09-.12.23-.18.38-.18h18c.14 0 .28.06.38.17 .09.11.13.25.11.4l-2.58 16c-.04.24-.25.42-.5.42H5.54c-.25 0-.46-.18-.5-.43l-2.58-16c-.03-.15.01-.3.11-.41Zm.96.82l2.41 15h12l2.41-15H3.56Z"/><path d="M21.76 16.44l-8.5-4.5 .46-.89 8.5 4.5 -.47.88Z"/><path d="M12 9.5c-.56 0-1 .44-1 1 0 .55.44 1 1 1 .55 0 1-.45 1-1 0-.56-.45-1-1-1Zm-2 1c0-1.11.89-2 2-2 1.1 0 2 .89 2 2 0 1.1-.9 2-2 2 -1.11 0-2-.9-2-2Z"/><path d="M6 2.5c-.83 0-1.5.67-1.5 1.5v1.5h15v-.17c0-.92-.82-1.63-1.73-1.49l-3.62.55c-.48.07-.96 0-1.4-.19L9.17 2.61c-.2-.09-.4-.13-.61-.13H5.98ZM3.5 4c0-1.39 1.11-2.5 2.5-2.5h2.57c.34 0 .69.07 1.01.21l3.57 1.58c.26.11.55.15.83.11l3.61-.56c1.51-.24 2.88.93 2.88 2.47v.66c0 .27-.23.5-.5.5h-16c-.28 0-.5-.23-.5-.5v-2Z"/></g></svg>