<svg viewBox="0 0 24 24" xmlns="http://www.w3.org/2000/svg"><g fill-rule="evenodd"><path d="M8.49 1.65c-.2-.2-.51-.21-.71-.01l-6.15 6c-.1.09-.15.22-.16.35 -.01.13.05.26.14.35l5.58 5.58c.97.97 2.55.97 3.53-.01l3.18-3.19c.96-.97.97-2.54.01-3.52L8.43 1.61ZM8.12 2.7l5.12 5.22c.57.58.57 1.52-.02 2.11l-3.19 3.18c-.59.58-1.54.58-2.13 0L2.67 7.98l5.42-5.3Z"/><path d="M13.35 10.64c-.2-.2-.52-.2-.71 0l-2 2c-.1.09-.15.22-.15.35 0 .13.05.25.14.35l5.5 5.49c.19.19.51.19.7 0l2-2c.09-.1.14-.23.14-.36 0-.14-.06-.26-.15-.36l-5.5-5.5Zm4.43 5.85l-1.3 1.29 -4.8-4.8 1.29-1.3 4.79 4.79Z"/><path d="M18.43 17.26c.58-.59 1.53-.59 2.12 0l.73.73 -3.3 3.29 -.74-.74c-.59-.59-.59-1.54 0-2.13l1.17-1.18Zm2.82-.71c-.98-.98-2.56-.98-3.54 0l-1.18 1.17c-.98.97-.98 2.55 0 3.53l1.08 1.08c.19.19.51.19.7 0l4-4c.09-.1.14-.23.14-.36 0-.14-.06-.26-.15-.36l-1.09-1.09Z"/></g></svg>