<svg viewBox="0 0 24 24" xmlns="http://www.w3.org/2000/svg"><g fill-rule="evenodd"><path d="M6.5 19.5c-.56 0-1 .44-1 1 0 .55.44 1 1 1h11c.55 0 1-.45 1-1 0-.56-.45-1-1-1H14v-1h3.5c1.1 0 2 .89 2 2 0 1.1-.9 2-2 2h-11c-1.11 0-2-.9-2-2 0-1.11.89-2 2-2H10v1H6.5Z"/><path d="M10.5 2.5c-.56 0-1 .44-1 1 0 1.1-.9 2-2 2H7c-.83 0-1.5.67-1.5 1.5v.5c0 1.1-.9 2-2 2 -.56 0-1 .44-1 1v2.08c0 .7.36 1.35.97 1.71l8.52 5.11 8.52-5.12c.6-.37.97-1.02.97-1.72v-2.09c0-.56-.45-1-1-1 -1.11 0-2-.9-2-2v-.5c0-.83-.68-1.5-1.5-1.5h-.5c-1.11 0-2-.9-2-2 0-.56-.45-1-1-1h-3Zm-2 1c0-1.11.89-2 2-2h3c1.1 0 2 .89 2 2 0 .55.44 1 1 1h.5c1.38 0 2.5 1.11 2.5 2.5v.5c0 .55.44 1 1 1 1.1 0 2 .89 2 2v2.08c0 1.05-.56 2.03-1.46 2.57l-8.79 5.27c-.16.09-.36.09-.52 0l-8.79-5.28c-.91-.55-1.46-1.52-1.46-2.58v-2.09c0-1.11.89-2 2-2 .55 0 1-.45 1-1v-.5c0-1.39 1.11-2.5 2.5-2.5h.5c.55 0 1-.45 1-1Z"/></g></svg>