<svg viewBox="0 0 24 24" xmlns="http://www.w3.org/2000/svg"><path fill-rule="evenodd" d="M6 2.5c0-.28.22-.5.5-.5H9c.27 0 .5.22.5.5C9.5 3.88 10.61 5 12 5c1.38 0 2.5-1.12 2.5-2.5 0-.28.22-.5.5-.5h2.5c.27 0 .5.22.5.5v4.04c0 1.47.5 2.9 1.42 4.06l.46.58c.07.08.1.19.1.31v10c0 .27-.23.5-.5.5h-15c-.28 0-.5-.23-.5-.5v-10c0-.12.03-.23.1-.32l.46-.59c.92-1.16 1.42-2.59 1.42-4.07V2.46ZM7 3v3.54c0 1.7-.58 3.35-1.65 4.68l-.36.44v9.32h14v-9.33l-.36-.45c-1.07-1.33-1.65-2.99-1.65-4.69V2.96h-1.54c-.25 1.69-1.71 3-3.47 3 -1.77 0-3.23-1.31-3.47-3H6.96Z"/></svg>