<svg viewBox="0 0 24 24" xmlns="http://www.w3.org/2000/svg"><g fill-rule="evenodd"><path d="M22.5 16c0 2.76-2.24 5-5 5 -2.77 0-5-2.24-5-5V8c0-2.77 2.23-5 5-5 2.76 0 5 2.23 5 5v8Zm-5 4c2.2 0 4-1.8 4-4V8c0-2.21-1.8-4-4-4 -2.21 0-4 1.79-4 4v8c0 2.2 1.79 4 4 4Z"/><path d="M1.5 8c0-2.77 2.23-5 5-5 2.76 0 5 2.23 5 5v8c0 2.76-2.24 5-5 5 -2.77 0-5-2.24-5-5V8Zm5-4c-2.21 0-4 1.79-4 4v8c0 2.2 1.79 4 4 4 2.2 0 4-1.8 4-4V8c0-2.21-1.8-4-4-4Z"/><path d="M18 16.181v1.31h-1v-1.32l-2.39-2.87 .76-.65 2.11 2.53 2.11-2.54 .76.64 -2.39 2.86Z"/><path d="M5.99 7.81V6.49h1V7.8l2.38 2.86 -.77.64 -2.12-2.54 -2.12 2.53 -.77-.65 2.38-2.87Z"/></g></svg>