<svg viewBox="0 0 24 24" xmlns="http://www.w3.org/2000/svg"><g fill-rule="evenodd"><path d="M4.64 19.85c-.36-.36-.94-.36-1.3 0l-1 1 -.71-.71 1-1c.74-.75 1.95-.75 2.7 0 .35.35.93.35 1.29 0 .74-.75 1.95-.75 2.7 0 .35.35.93.35 1.29 0 .74-.75 1.95-.75 2.7 0 .35.35.93.35 1.29 0 .74-.75 1.95-.75 2.7 0 .35.35.93.35 1.29 0 .74-.75 1.95-.75 2.7 0l1 1 -.71.7 -1-1c-.36-.36-.94-.36-1.3 0 -.75.74-1.96.74-2.71 0 -.36-.36-.94-.36-1.3 0 -.75.74-1.96.74-2.71 0 -.36-.36-.94-.36-1.3 0 -.75.74-1.96.74-2.71 0 -.36-.36-.94-.36-1.3 0 -.75.74-1.96.74-2.71 0Z"/><path d="M4.64 15.85c-.36-.36-.94-.36-1.3 0l-1 1 -.71-.71 1-1c.74-.75 1.95-.75 2.7 0 .35.35.93.35 1.29 0 .74-.75 1.95-.75 2.7 0 .35.35.93.35 1.29 0 .74-.75 1.95-.75 2.7 0 .35.35.93.35 1.29 0 .74-.75 1.95-.75 2.7 0 .35.35.93.35 1.29 0 .74-.75 1.95-.75 2.7 0l1 1 -.71.7 -1-1c-.36-.36-.94-.36-1.3 0 -.75.74-1.96.74-2.71 0 -.36-.36-.94-.36-1.3 0 -.75.74-1.96.74-2.71 0 -.36-.36-.94-.36-1.3 0 -.75.74-1.96.74-2.71 0 -.36-.36-.94-.36-1.3 0 -.75.74-1.96.74-2.71 0Z"/><path d="M3.5 5.5C3.5 4.11 4.61 3 6 3c1.38 0 2.5 1.11 2.5 2.5V15h-1V5.5C7.5 4.67 6.82 4 6 4c-.83 0-1.5.67-1.5 1.5v1h-1v-1Z"/><path d="M11.5 5.5C11.5 4.11 12.61 3 14 3c1.38 0 2.5 1.11 2.5 2.5V15h-1V5.5c0-.83-.68-1.5-1.5-1.5 -.83 0-1.5.67-1.5 1.5v1h-1v-1Z"/><path d="M8 8.5h8v1H8v-1Z"/><path d="M8 12h8v1H8v-1Z"/></g></svg>