<svg viewBox="0 0 24 24" xmlns="http://www.w3.org/2000/svg"><g fill-rule="evenodd"><path d="M9.5 2.5C8.11 2.5 7 3.61 7 5v9.14c0 .14-.07.27-.17.37 -.82.73-1.34 1.79-1.34 2.98 0 2.2 1.79 4 4 4 2.2 0 4-1.8 4-4 0-1.19-.52-2.25-1.34-2.99 -.11-.1-.17-.24-.17-.38V4.97c0-1.39-1.12-2.5-2.5-2.5ZM6 5c0-1.94 1.56-3.5 3.5-3.5C11.43 1.5 13 3.06 13 5v8.92c.92.9 1.5 2.17 1.5 3.57 0 2.76-2.24 5-5 5 -2.77 0-5-2.24-5-5 0-1.4.57-2.67 1.5-3.58V4.98Z"/><path d="M9.5 16c-.83 0-1.5.67-1.5 1.5 0 .82.67 1.5 1.5 1.5 .82 0 1.5-.68 1.5-1.5 0-.83-.68-1.5-1.5-1.5ZM7 17.5C7 16.11 8.11 15 9.5 15c1.38 0 2.5 1.11 2.5 2.5 0 1.38-1.12 2.5-2.5 2.5C8.11 20 7 18.88 7 17.5Z"/><path d="M10 5v10.5H9V5h1Z"/><path d="M14.5 5.5h4v1h-4v-1Z"/><path d="M16 8V4h1v4h-1Z"/></g></svg>