<svg viewBox="0 0 24 24" xmlns="http://www.w3.org/2000/svg"><g fill-rule="evenodd"><path d="M2.5 10c0-.28.22-.5.5-.5h16c.17 0 .33.08.42.23 .09.14.09.33.02.48l-2 4c-.09.16-.26.27-.45.27h-14c-.28 0-.5-.23-.5-.5v-4Zm1 .5v3h13.19l1.5-3H3.49Z"/><path d="M4.51 13.86c.06-.22.25-.37.48-.37h5c.15 0 .3.07.39.19 .09.12.12.28.08.43l-2.01 7c-.07.21-.26.36-.49.36h-5c-.16 0-.31-.08-.4-.2 -.1-.13-.13-.29-.09-.44l2-7Zm.85.63l-1.72 6h3.95l1.71-6H5.34Z"/><path d="M1.5 7c0-1.94 1.56-3.5 3.5-3.5h9c1.93 0 3.5 1.56 3.5 3.5 0 1.93-1.57 3.5-3.5 3.5H5c-1.94 0-3.5-1.57-3.5-3.5ZM5 4.5C3.61 4.5 2.5 5.61 2.5 7c0 1.38 1.11 2.5 2.5 2.5h9c1.38 0 2.5-1.12 2.5-2.5 0-1.39-1.12-2.5-2.5-2.5H5Z"/><path d="M21.5 10.5H19v-1h3c.27 0 .5.22.5.5v3c0 .27-.23.5-.5.5h-4.5v-1h4v-2Z"/><path d="M5.5 10V2.5h1V10h-1Z"/><path d="M12.5 10V2.5h1V10h-1Z"/></g></svg>