<svg viewBox="0 0 24 24" xmlns="http://www.w3.org/2000/svg"><g fill="#FFC44D" fill-rule="evenodd"><path d="M2 3.25c-.42 0-.75.33-.75.75v16c0 .41.33.75.75.75h7.5 10c.41 0 .75-.34.75-.75V8 6.625c0-.42-.34-.75-.75-.75H9.09l-1.58-2.3c-.14-.21-.38-.33-.62-.33h-4.9Z"/><path fill="#ECEFF1" d="M16.5 9.25c-3.46 0-6.25 2.79-6.25 6.25 0 3.45 2.79 6.25 6.25 6.25 3.45 0 6.25-2.8 6.25-6.25 0-3.46-2.8-6.25-6.25-6.25Z"/><g fill="#5E94FF"><path d="M16.5 12.25c.41 0 .75.33.75.75v5c0 .41-.34.75-.75.75 -.42 0-.75-.34-.75-.75v-5c0-.42.33-.75.75-.75Z"/><path d="M13.25 15.5c0-.42.33-.75.75-.75h5c.41 0 .75.33.75.75 0 .41-.34.75-.75.75h-5c-.42 0-.75-.34-.75-.75Z"/></g></g></svg>