<svg viewBox="0 0 24 24" xmlns="http://www.w3.org/2000/svg"><g fill="#8B98A6" fill-rule="evenodd"><path d="M19.5 9.25c-.42 0-.75.33-.75.75v4c0 .41.33.75.75.75H22c.41 0 .75-.34.75-.75v-4c0-.42-.34-.75-.75-.75h-2.5Z"/><path fill="#ECEFF1" d="M2 7.25c-.42 0-.75.33-.75.75v8c0 .41.33.75.75.75h8.5 3 6c.41 0 .75-.34.75-.75V8c0-.42-.34-.75-.75-.75H9.87 6.49h-4.5Z"/><path fill="#8BC94D" d="M12.27 1.3c.38.15.57.59.41.97l-3.59 8.97h4.89c.22 0 .43.1.58.27 .14.17.19.4.15.62l-2 10c-.09.4-.48.66-.89.58 -.41-.09-.67-.48-.59-.89l1.82-9.11H7.96c-.25 0-.49-.13-.63-.33 -.14-.21-.17-.47-.08-.7l3.99-10c.15-.39.59-.58.97-.42Z"/></g></svg>