<svg viewBox="0 0 24 24" xmlns="http://www.w3.org/2000/svg"><g fill="#8B98A6" fill-rule="evenodd"><path d="M19.5 9.25c-.42 0-.75.33-.75.75v4c0 .41.33.75.75.75H22c.41 0 .75-.34.75-.75v-4c0-.42-.34-.75-.75-.75h-2.5Z"/><path fill="#ECEFF1" d="M2 6.25c-.42 0-.75.33-.75.75v10c0 .41.33.75.75.75h17.5c.41 0 .75-.34.75-.75V7c0-.42-.34-.75-.75-.75H2Z"/><g fill="#5E94FF"><path d="M3.75 12c0-.42.33-.75.75-.75h3c.41 0 .75.33.75.75 0 .41-.34.75-.75.75h-3c-.42 0-.75-.34-.75-.75Z"/><path d="M15 9.25c.41 0 .75.33.75.75v4c0 .41-.34.75-.75.75 -.42 0-.75-.34-.75-.75v-4c0-.42.33-.75.75-.75Z"/><path d="M12.25 12c0-.42.33-.75.75-.75h4c.41 0 .75.33.75.75 0 .41-.34.75-.75.75h-4c-.42 0-.75-.34-.75-.75Z"/></g></g></svg>