<svg viewBox="0 0 24 24" xmlns="http://www.w3.org/2000/svg"><g fill="#5E94FF" fill-rule="evenodd"><path d="M18.75 7c0-.97-.79-1.75-1.75-1.75 -.97 0-1.75.78-1.75 1.75 0 .96.78 1.75 1.75 1.75 .96 0 1.75-.79 1.75-1.75Z"/><path d="M18.75 12c0-.97-.79-1.75-1.75-1.75 -.97 0-1.75.78-1.75 1.75 0 .96.78 1.75 1.75 1.75 .96 0 1.75-.79 1.75-1.75Z"/><path d="M18.75 17c0-.97-.79-1.75-1.75-1.75 -.97 0-1.75.78-1.75 1.75 0 .96.78 1.75 1.75 1.75 .96 0 1.75-.79 1.75-1.75Z"/><path d="M13.75 7c0-.97-.79-1.75-1.75-1.75 -.97 0-1.75.78-1.75 1.75 0 .96.78 1.75 1.75 1.75 .96 0 1.75-.79 1.75-1.75Z"/><path d="M13.75 12c0-.97-.79-1.75-1.75-1.75 -.97 0-1.75.78-1.75 1.75 0 .96.78 1.75 1.75 1.75 .96 0 1.75-.79 1.75-1.75Z"/><path d="M13.75 17c0-.97-.79-1.75-1.75-1.75 -.97 0-1.75.78-1.75 1.75 0 .96.78 1.75 1.75 1.75 .96 0 1.75-.79 1.75-1.75Z"/><path d="M8.75 7c0-.97-.79-1.75-1.75-1.75 -.97 0-1.75.78-1.75 1.75 0 .96.78 1.75 1.75 1.75 .96 0 1.75-.79 1.75-1.75Z"/><path d="M8.75 12c0-.97-.79-1.75-1.75-1.75 -.97 0-1.75.78-1.75 1.75 0 .96.78 1.75 1.75 1.75 .96 0 1.75-.79 1.75-1.75Z"/><path d="M8.75 17c0-.97-.79-1.75-1.75-1.75 -.97 0-1.75.78-1.75 1.75 0 .96.78 1.75 1.75 1.75 .96 0 1.75-.79 1.75-1.75Z"/></g></svg>