<svg viewBox="0 0 24 24" xmlns="http://www.w3.org/2000/svg"><g fill="#5E94FF" fill-rule="evenodd"><path d="M5 3.25C3.48 3.25 2.25 4.48 2.25 6v9c0 1.51 1.23 2.75 2.75 2.75h11.27l4.31 2.87c.23.15.52.16.76.03 .24-.14.39-.39.39-.67v-3 -11c0-1.52-1.24-2.75-2.75-2.75h-14Z"/><g fill="#F9F9F9"><path d="M7 8.75c-.97 0-1.75.78-1.75 1.75 0 .96.78 1.75 1.75 1.75 .96 0 1.75-.79 1.75-1.75 0-.97-.79-1.75-1.75-1.75Z"/><path d="M12 8.75c-.97 0-1.75.78-1.75 1.75 0 .96.78 1.75 1.75 1.75 .96 0 1.75-.79 1.75-1.75 0-.97-.79-1.75-1.75-1.75Z"/><path d="M17 8.75c-.97 0-1.75.78-1.75 1.75 0 .96.78 1.75 1.75 1.75 .96 0 1.75-.79 1.75-1.75 0-.97-.79-1.75-1.75-1.75Z"/></g></g></svg>