<svg viewBox="0 0 24 24" xmlns="http://www.w3.org/2000/svg"><g fill="#8B98A6" fill-rule="evenodd"><path d="M12 3.75c.41 0 .75.33.75.75V7c0 .41-.34.75-.75.75 -.42 0-.75-.34-.75-.75V4.5c0-.42.33-.75.75-.75Z"/><path fill="#ECEFF1" d="M4 6.25C2.48 6.25 1.25 7.48 1.25 9v8.5c0 1.51 1.23 2.75 2.75 2.75h16c1.51 0 2.75-1.24 2.75-2.75V9c0-1.52-1.24-2.75-2.75-2.75H4Z"/><path d="M3.75 13c0-.42.33-.75.75-.75h5c.41 0 .75.33.75.75 0 .41-.34.75-.75.75h-5c-.42 0-.75-.34-.75-.75Z"/><path d="M7 16.25c-.42 0-.75-.34-.75-.75v-5c0-.42.33-.75.75-.75 .41 0 .75.33.75.75v5c0 .41-.34.75-.75.75Z"/><g fill="#EE4D4D"><path d="M14.75 14.5c0-.42.33-.75.75-.75h2c.41 0 .75.33.75.75 0 .41-.34.75-.75.75h-2c-.42 0-.75-.34-.75-.75Z"/><path d="M16.75 11.5c0-.42.33-.75.75-.75h2c.41 0 .75.33.75.75 0 .41-.34.75-.75.75h-2c-.42 0-.75-.34-.75-.75Z"/></g></g></svg>