<svg viewBox="0 0 24 24" xmlns="http://www.w3.org/2000/svg"><g fill="#ECEFF1" fill-rule="evenodd"><path d="M2 2.75c-.42 0-.75.33-.75.75v16c0 .41.33.75.75.75h6 12c.41 0 .75-.34.75-.75v-11 -5c0-.42-.34-.75-.75-.75H2Z"/><path fill="#EE4D4D" d="M2 2.75c-.42 0-.75.33-.75.75v4c0 .41.33.75.75.75h18c.41 0 .75-.34.75-.75v-4c0-.42-.34-.75-.75-.75H2Z"/><g fill="#FFC44D"><path d="M6 1.25c.41 0 .75.33.75.75v3c0 .41-.34.75-.75.75 -.42 0-.75-.34-.75-.75V2c0-.42.33-.75.75-.75Z"/><path d="M16 1.25c.41 0 .75.33.75.75v3c0 .41-.34.75-.75.75 -.42 0-.75-.34-.75-.75V2c0-.42.33-.75.75-.75Z"/></g><path fill="#EE4D4D" d="M16 9.25c-3.73 0-6.75 3.02-6.75 6.75 0 3.72 3.02 6.75 6.75 6.75 3.72 0 6.75-3.03 6.75-6.75 0-3.73-3.03-6.75-6.75-6.75Z"/><g fill="#F9F9F9"><path d="M14 13.75c-.21 0-.41.08-.55.23 -.15.15-.22.35-.21.56l.33 5c.02.39.35.7.74.7h3.33c.39 0 .72-.31.74-.71l.33-5c.01-.21-.06-.42-.21-.57 -.15-.16-.35-.24-.55-.24h-4Z"/><path d="M11.75 14.5c0-.42.33-.75.75-.75h7c.41 0 .75.33.75.75 0 .41-.34.75-.75.75h-7c-.42 0-.75-.34-.75-.75Z"/><path d="M16 12.25c.41 0 .75.33.75.75v1.5c0 .41-.34.75-.75.75 -.42 0-.75-.34-.75-.75V13c0-.42.33-.75.75-.75Z"/></g></g></svg>