<svg viewBox="0 0 24 24" xmlns="http://www.w3.org/2000/svg"><g fill="#ECEFF1" fill-rule="evenodd"><path d="M2 3.25c-.42 0-.75.33-.75.75v18c0 .41.33.75.75.75h20c.41 0 .75-.34.75-.75V4c0-.42-.34-.75-.75-.75H2Z"/><path fill="#EE4D4D" d="M2 3.25c-.42 0-.75.33-.75.75v4c0 .41.33.75.75.75h20c.41 0 .75-.34.75-.75V4c0-.42-.34-.75-.75-.75H2Z"/><g fill="#8B98A6"><path d="M9 11.25c-.21 0-.41.08-.55.23 -.15.15-.22.35-.2.56l.5 7c.02.39.35.69.74.69h5c.39 0 .72-.31.74-.7l.5-7c.01-.21-.06-.42-.2-.57 -.15-.16-.35-.24-.55-.24h-6Z"/><path d="M6.75 12c0-.42.33-.75.75-.75h9c.41 0 .75.33.75.75 0 .41-.34.75-.75.75h-9c-.42 0-.75-.34-.75-.75Z"/><path d="M12 9.75c.41 0 .75.33.75.75V12c0 .41-.34.75-.75.75 -.42 0-.75-.34-.75-.75v-1.5c0-.42.33-.75.75-.75Z"/></g><g fill="#FFC44D"><path d="M6 1.25c.41 0 .75.33.75.75v3.5c0 .41-.34.75-.75.75 -.42 0-.75-.34-.75-.75V2c0-.42.33-.75.75-.75Z"/><path d="M18 1.25c.41 0 .75.33.75.75v3.5c0 .41-.34.75-.75.75 -.42 0-.75-.34-.75-.75V2c0-.42.33-.75.75-.75Z"/></g></g></svg>