<svg viewBox="0 0 24 24" xmlns="http://www.w3.org/2000/svg"><g fill="#FFC44D" fill-rule="evenodd"><path d="M12 3.75c-3.73 0-6.75 3.02-6.75 6.75 0 3.72 3.02 6.75 6.75 6.75 3.72 0 6.75-3.03 6.75-6.75 0-3.73-3.03-6.75-6.75-6.75Z"/><g fill="#F9F9F9"><path d="M9.75 9.16c0-1.06.85-1.92 1.91-1.92h2.83c.41 0 .75.33.75.75 0 .41-.34.75-.75.75h-2.84c-.23 0-.42.18-.42.41 0 .17.11.33.28.39l1.41.47c.78.26 1.3.99 1.3 1.81 0 1.05-.86 1.91-1.92 1.91H9.46c-.42 0-.75-.34-.75-.75 0-.42.33-.75.75-.75h2.83c.22 0 .41-.19.41-.42 0-.18-.12-.34-.29-.4l-1.42-.48c-.79-.27-1.31-1-1.31-1.82Z"/><path d="M12 12.25c.41 0 .75.33.75.75v2c0 .41-.34.75-.75.75 -.42 0-.75-.34-.75-.75v-2c0-.42.33-.75.75-.75Z"/><path d="M12 5.25c.41 0 .75.33.75.75v2c0 .41-.34.75-.75.75 -.42 0-.75-.34-.75-.75V6c0-.42.33-.75.75-.75Z"/></g><path fill="#8B98A6" d="M3.25 19c0-.42.33-.75.75-.75h16c.41 0 .75.33.75.75 0 .41-.34.75-.75.75H4c-.42 0-.75-.34-.75-.75Z"/></g></svg>