<svg viewBox="0 0 24 24" xmlns="http://www.w3.org/2000/svg"><g fill="#EE4D4D" fill-rule="evenodd"><path d="M12 1.25C6.06 1.25 1.25 6.06 1.25 12c0 5.93 4.81 10.75 10.75 10.75 5.93 0 10.75-4.82 10.75-10.75 0-5.94-4.82-10.75-10.75-10.75Z"/><g fill="#F9F9F9"><path d="M7.22 7.22c.29-.3.76-.3 1.06 0l8.48 8.48c.29.29.29.76 0 1.06 -.3.29-.77.29-1.07 0L7.2 8.27c-.3-.3-.3-.77 0-1.07Z"/><path d="M7.22 16.773c-.3-.3-.3-.77 0-1.07l8.48-8.49c.29-.3.76-.3 1.06-.001 .29.29.29.76 0 1.06l-8.49 8.48c-.3.29-.77.29-1.07 0Z"/></g></g></svg>