<svg viewBox="0 0 24 24" xmlns="http://www.w3.org/2000/svg"><g fill="#5E94FF" fill-rule="evenodd"><path d="M1.25 4c0-1.52 1.23-2.75 2.75-2.75h6.5c.41 0 .75.33.75.75 0 .41-.34.75-.75.75H4c-.7 0-1.25.55-1.25 1.25v6.5c0 .41-.34.75-.75.75 -.42 0-.75-.34-.75-.75V4Z"/><path d="M22.75 20c0 1.51-1.24 2.75-2.75 2.75h-6.5c-.42 0-.75-.34-.75-.75 0-.42.33-.75.75-.75H20c.69 0 1.25-.56 1.25-1.25v-6.5c0-.42.33-.75.75-.75 .41 0 .75.33.75.75V20Z"/><path d="M22.75 4c0-1.52-1.24-2.75-2.75-2.75h-6.5c-.42 0-.75.33-.75.75 0 .41.33.75.75.75H20c.69 0 1.25.55 1.25 1.25v6.5c0 .41.33.75.75.75 .41 0 .75-.34.75-.75V4Z"/><path d="M1.25 20c0 1.51 1.23 2.75 2.75 2.75h6.5c.41 0 .75-.34.75-.75 0-.42-.34-.75-.75-.75H4c-.7 0-1.25-.56-1.25-1.25v-6.5c0-.42-.34-.75-.75-.75 -.42 0-.75.33-.75.75V20Z"/></g></svg>