<svg viewBox="0 0 24 24" xmlns="http://www.w3.org/2000/svg"><g fill="#5E94FF" fill-rule="evenodd"><path d="M15.58 6.29l-.63-.4c-.42-.38-.96-.52-1.42-.59 -.5-.08-1.04-.08-1.52-.08v0h-.03c-1.15 0-2.33.44-3.4 1.03 -1.09.59-2.14 1.37-3.04 2.14 -.91.77-1.69 1.53-2.25 2.11 -.28.28-.5.52-.66.69 -.08.08-.14.15-.18.19l-.05.05 -.02.01 -.01 0 -.01 0 -.01 0c-.01 0-.01 0 .56.48l-.57-.49c-.27.31-.24.78.07 1.05v0h0v0l0 0v0h0 0 0 0 0 0 0 0l0 0h0 0 0l0 0h0 0l0 0h0l0 0h0l0 0h0l0 0h0l0 0 0 0h0l0 0 0 0 0 0 0 0 0 0 0 0 0 0 0 0 0 0 0 0 0 0 0 0 0 0 0 0 0 0 0 0 0 0 0 0 0 0 0 0 0 0 0 0 0 0 0 0 0 0 0 0 0 0 0 0 0 0 0 0 0 0 0 0 0 0 0 0 0 0 0 0 0 0 0 0 0 0 0 0 0 0 0 0 0 0 0 0 0 0 0 0 0 0 0 0 0 0 0 0 0 0 0 0 0 0 0 0 0 0 0 0 0 0 0 0 0 0 0 0 0 0 0 0 0 0 0 0 0 0 0 0 0 0 0 0 0 0 0 0 0 0 0 0 0 0 0 0 0 0 0 0 0 0 0 0 0 0 0 0 0 0 0 0 0 0 0 0 0 0 0 0 0 0 0 0 0 0 0 0 0 0 0 0 0 0 0 0 0 0 0 0 0 0 0 0 0 0 0 0 0 0 0 0 0 0 0 0 0 0 0 0 0 0 0 0 0 0 0 0 0 0 0 0 0 0 0 0 0 0 0 0 0 0 0 0 0 0 0 0 0 0 0 0 0 0 0 0 0 0 0 0 0 0 0 0 0 0 0 0 0 0 0 0 0 0 0 0 0 0 0 0 0 0 0 0 0 0 0 0 0 0 0 0 0 0 0 0 0 0 0 0 0 0 0 0 0 0 0 0 0 0 0 0 0 0 0 0 0 0 0 0 0 0 0 0 0 0 0 0 0 0 0 0 0 0 0 0 0 0 0 0 0 0 0 0 0 0 0 0 0 0 0 0 0 0 0 0 0 0 0 0 0 0 0 0 0 0 0 0 0 0 0 0 0 0 0 0 0 0 0 0 0 0 0 0 0 0 0 0 0 0 0 0 0 0 0 0 0 0 0 0 0 0 0 0 0 0 0 0 0 0 0 0 0 0 0 0 0 0 0 0 0 0 0 0 0 0 0 0 0 0 0 0 0 0 0 0 0 0 0 0 0 0 0 0 0 0 0 0 0 0 0 0 0 0 0 0 0 0 0 0 0 0 0 0 0 0 0 0 0 0 0 0 0 0 0 0 0 0 0 0 0 0 0 0 0 0 0 0 0 0 0 0 0 0 0 0 0 0 0 0 0 0 0 0 0 0 0 0 0 0 0 0 0 0 0 0 0 0 0 0 0 0 0 0 0 0 0 0 0 0 0 0 0 0 0 0 0 0 0 0 0 0 0 0 0 0 0 0 0 0 0 0 0 0 0 0 0 0 0 0 0 0 0 0 0 0 0 0 0 0 0 0 0 0 0 0 0 0 0 0 0 0 0 0 0 0 0 0 0 0 0 0 0 0 0 0 0 0 0 0 0 0 0 0 0 0 0 0 0 0 0 0 0 0 0 0 0 0 0 0 0 0 0 0 0 0 0 0 0 0 0 0 0 0 0 0 0 0 0 0 0 0 0 0 0 0 0 0 0 0 0 0 0 0 0 0 0 0 0 0 0 0 0 0 0 0 0 0 0 0 0 0 0 0 0 0 0 0 0 0 0 0 0 0 0 0 0 0 0 0 0 0 0 0 0 0 0 0 0 0 0 0 0 0 0 0 0 0 .01 0 .01 0 .01 0 .01 0 .01 0 .01 0 .01 0 .01 0 .01 0 .01 0 .01 0 .01 0 .01 0 .01 0 .01 0 .01 0 .01 0 .01 0 .01 0 .01 0 .01 0 .01 0 .01 0 .01 0 .01 0 .01 0 .01 0 .01 0 .01 0 .01.01 .01.01 .01.01 .01.01 .01.01 .01.01 .01.01 .01.01 .01.01 .01.01 .01.01 .01.01 .01.01 .01.01 .01.01 .01.01 .01.01 .01.01 .01.01 .01.01 .01.01 .01.01 .01.01 .01.01 .01.01 .01.01 .01.01 .01.01 .01.01 .01.01 .01.01 .01.01 .01.01 .01.01 .01.01 .01.01 .01.01 .01.01 .01.01 .01.01 .01.01 .01.01 .01.01 .01.01 .01.01 .01.01 .01.01 .01.01 .01.01 .01.01 .01.01 .01.01 .01.01 .01.01 .01.01 .01.01 .01.01 .01.01 .01.01 .01.01 .01.01 .01.01 .01.01 .01.01 .01.01 .01.01 .01.01 .01.01 .01.01 .01.01 .01.01 .01.01 .01.01 .01.01 .01.01 .01.01 .01.01 .01.01 .01.01 .01.01 .01.01 .01.01 .01.01 .01.01 .01.01 .01.01 .01.01 .01.01 .01.01 .01.01 .01.01 .01.01 .01.01 .01.01 .01.01 .01.01 .01.01 .01.01 .64.53 9.4-9.41ZM8.6 17.511c.3.19.61.37.92.53 .77.39 1.61.69 2.46.69 1.14 0 2.32-.45 3.39-1.03 1.08-.6 2.13-1.38 3.03-2.15 .9-.78 1.68-1.54 2.24-2.12 .27-.29.49-.53.65-.7 .07-.09.13-.16.17-.2l.04-.06 .01-.02 0-.01 0-.01 0-.01c0-.01 0-.01-.57-.49l.56.48c.23-.28.24-.69 0-.97l-.58.47c.57-.48.57-.48.57-.48l-.01-.01 -.01-.01 -.01-.01 -.01-.01 -.03-.03c-.02-.03-.05-.06-.09-.1 -.08-.09-.18-.2-.31-.35 -.27-.3-.64-.7-1.1-1.17 -.56-.56-1.24-1.21-2-1.84l-9.47 9.46Z"/><path fill="#EE4D4D" d="M19.53 4.46c.29.29.29.76 0 1.06l-14 14c-.3.29-.77.29-1.07 0 -.3-.3-.3-.77 0-1.07l14-14c.29-.3.76-.3 1.06-.001Z"/><path fill="#F9F9F9" d="M11.02 15.09c.3.09.63.15.97.15 1.79 0 3.25-1.46 3.25-3.25 0-.35-.06-.67-.16-.98L11 15.08Z"/></g></svg>