<svg viewBox="0 0 24 24" xmlns="http://www.w3.org/2000/svg"><g fill="#5E94FF" fill-rule="evenodd"><path d="M17.5 11.25c.41 0 .75.33.75.75 0 .41-.34.75-.75.75H12c-.42 0-.75-.34-.75-.75V6.65c0-.42.33-.75.75-.75 .41 0 .75.33.75.75v3.53l7.71-7.72c.29-.3.76-.3 1.06 0 .29.29.29.76 0 1.06l-7.72 7.71h3.68Z"/><path fill="#8B98A6" d="M2.25 4c0-.42.33-.75.75-.75h10c.41 0 .75.33.75.75 0 .41-.34.75-.75.75H3.75v15.5h15.5V11c0-.42.33-.75.75-.75 .41 0 .75.33.75.75v10c0 .41-.34.75-.75.75H3c-.42 0-.75-.34-.75-.75V4Z"/></g></svg>