<svg viewBox="0 0 24 24" xmlns="http://www.w3.org/2000/svg"><g fill="#ECEFF1" fill-rule="evenodd"><path d="M16 1.25c1.51 0 2.75 1.23 2.75 2.75v4 12c0 1.51-1.24 2.75-2.75 2.75h-5H4c-1.52 0-2.75-1.24-2.75-2.75v-9.43c0-.92.45-1.78 1.22-2.29l1.21-.82c.34-.24.55-.63.55-1.05V3.98c0-1.52 1.23-2.75 2.75-2.75h9Z"/><g fill="#FFC44D"><path d="M8.5 3.25c.41 0 .75.33.75.75v4c0 .41-.34.75-.75.75 -.42 0-.75-.34-.75-.75V4c0-.42.33-.75.75-.75Z"/><path d="M11.5 3.25c.41 0 .75.33.75.75v4c0 .41-.34.75-.75.75 -.42 0-.75-.34-.75-.75V4c0-.42.33-.75.75-.75Z"/><path d="M14.5 3.25c.41 0 .75.33.75.75v4c0 .41-.34.75-.75.75 -.42 0-.75-.34-.75-.75V4c0-.42.33-.75.75-.75Z"/><path d="M4.25 18.5c0-.42.33-.75.75-.75h4c.41 0 .75.33.75.75 0 .41-.34.75-.75.75H5c-.42 0-.75-.34-.75-.75Z"/></g><path fill="#EE4D4D" d="M16.5 10.25c-3.46 0-6.25 2.79-6.25 6.25 0 3.45 2.79 6.25 6.25 6.25 3.45 0 6.25-2.8 6.25-6.25 0-3.46-2.8-6.25-6.25-6.25Z"/><g fill="#F9F9F9"><path d="M14.2 14.2c.29-.3.76-.3 1.06 0l3.53 3.53c.29.29.29.76 0 1.06 -.3.29-.77.29-1.07 0l-3.54-3.54c-.3-.3-.3-.77 0-1.07Z"/><path d="M14.2 18.79c-.3-.3-.3-.77 0-1.07l3.53-3.54c.29-.3.76-.3 1.06 0 .29.29.29.76 0 1.06l-3.54 3.53c-.3.29-.77.29-1.07 0Z"/></g></g></svg>