<svg viewBox="0 0 24 24" xmlns="http://www.w3.org/2000/svg"><g fill="#8B98A6" fill-rule="evenodd"><path d="M2 12.75c-.42 0-.75.33-.75.75v6c0 .41.33.75.75.75h3c.41 0 .75-.34.75-.75v-6c0-.42-.34-.75-.75-.75H2Z"/><path d="M7.5 9.75c-.42 0-.75.33-.75.75v9c0 .41.33.75.75.75h3c.41 0 .75-.34.75-.75v-9c0-.42-.34-.75-.75-.75h-3Z"/><path d="M13.5 6.75c-.42 0-.75.33-.75.75v12c0 .41.33.75.75.75h3c.41 0 .75-.34.75-.75v-12c0-.42-.34-.75-.75-.75h-3Z"/><path d="M19 3.75c-.42 0-.75.33-.75.75v15c0 .41.33.75.75.75h3c.41 0 .75-.34.75-.75v-15c0-.42-.34-.75-.75-.75h-3Z"/><g fill="#EE4D4D"><path d="M7.53 2.46c.29.29.29.76 0 1.06l-4 4c-.3.29-.77.29-1.07 0 -.3-.3-.3-.77 0-1.07l4-4c.29-.3.76-.3 1.06 0Z"/><path d="M2.46 2.46c-.3.29-.3.76 0 1.06l4 4c.29.29.76.29 1.06 0 .29-.3.29-.77 0-1.07l-4-4c-.3-.3-.77-.3-1.07 0Z"/></g></g></svg>