<svg viewBox="0 0 24 24" xmlns="http://www.w3.org/2000/svg"><g fill="#8B98A6" fill-rule="evenodd"><path d="M16.75 9c0-.42.33-.75.75-.75h2c.41 0 .75.33.75.75 0 .41-.34.75-.75.75h-2c-.42 0-.75-.34-.75-.75Z"/><path fill="#ECEFF1" d="M8.5 4.75c-1.52 0-2.75 1.23-2.75 2.75v9c0 1.51 1.23 2.75 2.75 2.75h7c1.51 0 2.75-1.24 2.75-2.75v-9c0-1.52-1.24-2.75-2.75-2.75h-7Z"/><g fill="#5E94FF"><path d="M8.5 1.25c-.38 0-.69.27-.75.64l-.5 3.5c-.04.21.03.43.17.59 .14.16.34.25.56.25h8c.21 0 .42-.1.56-.26 .14-.17.2-.39.17-.6l-.5-3.5c-.06-.37-.37-.65-.75-.65h-7Z"/><path d="M8.5 22.75c-.38 0-.69-.28-.75-.65l-.5-3.5c-.04-.22.03-.44.17-.6 .14-.17.34-.26.56-.26h8c.21 0 .42.09.56.25 .14.16.2.38.17.59l-.5 3.5c-.06.36-.37.64-.75.64h-7Z"/></g><path fill="#7EA9FF" d="M5.75 7.5c0-1.52 1.23-2.75 2.75-2.75h7c1.51 0 2.75 1.23 2.75 2.75v9c0 1.51-1.24 2.75-2.75 2.75h-7c-1.52 0-2.75-1.24-2.75-2.75v-9ZM8.5 6.25c-.7 0-1.25.55-1.25 1.25v9c0 .69.55 1.25 1.25 1.25h7c.69 0 1.25-.56 1.25-1.25v-9c0-.7-.56-1.25-1.25-1.25h-7Z"/></g></svg>