<svg viewBox="0 0 24 24" xmlns="http://www.w3.org/2000/svg"><g fill="#5E94FF" fill-rule="evenodd"><path d="M7 3.75c.41 0 .75.33.75.75v15c0 .41-.34.75-.75.75 -.42 0-.75-.34-.75-.75v-15c0-.42.33-.75.75-.75Z"/><path d="M3.46 15.96c.29-.3.76-.3 1.06 0l2.46 2.46 2.46-2.47c.29-.3.76-.3 1.06 0 .29.29.29.76 0 1.06l-3 3c-.3.29-.77.29-1.07 0l-3-3c-.3-.3-.3-.77 0-1.07Z"/><g fill="#8B98A6"><path d="M9.25 5.5c0-.42.33-.75.75-.75h4c.41 0 .75.33.75.75 0 .41-.34.75-.75.75h-4c-.42 0-.75-.34-.75-.75Z"/><path d="M9.25 9.5c0-.42.33-.75.75-.75h7c.41 0 .75.33.75.75 0 .41-.34.75-.75.75h-7c-.42 0-.75-.34-.75-.75Z"/><path d="M9.25 13.5c0-.42.33-.75.75-.75h10c.41 0 .75.33.75.75 0 .41-.34.75-.75.75H10c-.42 0-.75-.34-.75-.75Z"/></g></g></svg>