<svg viewBox="0 0 24 24" xmlns="http://www.w3.org/2000/svg"><g fill="#ECEFF1" fill-rule="evenodd"><path d="M12 1.25C6.06 1.25 1.25 6.06 1.25 12c0 5.93 4.81 10.75 10.75 10.75 5.93 0 10.75-4.82 10.75-10.75 0-5.94-4.82-10.75-10.75-10.75Z"/><path fill="#FFC44D" d="M12 2.75c-5.11 0-9.25 4.14-9.25 9.25 0 5.1 4.14 9.25 9.25 9.25 5.1 0 9.25-4.15 9.25-9.25 0-5.11-4.15-9.25-9.25-9.25ZM1.25 12C1.25 6.06 6.06 1.25 12 1.25c5.93 0 10.75 4.81 10.75 10.75 0 5.93-4.82 10.75-10.75 10.75 -5.94 0-10.75-4.82-10.75-10.75Z"/><path fill="#8B98A6" d="M11.46 12.53c-.15-.15-.22-.34-.22-.54v-7c0-.42.33-.75.75-.75 .41 0 .75.33.75.75v6.25h6.25c.41 0 .75.33.75.75 0 .41-.34.75-.75.75h-7c-.2 0-.39-.08-.54-.22Z"/></g></svg>