<svg viewBox="0 0 24 24" xmlns="http://www.w3.org/2000/svg"><g fill="#5E94FF" fill-rule="evenodd"><path d="M3 13.25c.41 0 .75.33.75.75v3c0 .69.55 1.25 1.25 1.25h14c.69 0 1.25-.56 1.25-1.25v-3c0-.42.33-.75.75-.75 .41 0 .75.33.75.75v3c0 1.51-1.24 2.75-2.75 2.75H5c-1.52 0-2.75-1.24-2.75-2.75v-3c0-.42.33-.75.75-.75Z"/><path d="M12 5.25c.41 0 .75.33.75.75v11c0 .41-.34.75-.75.75 -.42 0-.75-.34-.75-.75V6c0-.42.33-.75.75-.75Z"/><path d="M12 5.25c.22 0 .44.1.58.28l4 5c.25.32.2.79-.12 1.05 -.33.25-.8.2-1.06-.12l-3.42-4.27 -3.42 4.26c-.26.32-.74.37-1.06.11 -.33-.26-.38-.74-.12-1.06l4-5.01c.14-.18.35-.29.58-.29Z"/></g></svg>