<svg viewBox="0 0 24 24" xmlns="http://www.w3.org/2000/svg"><g fill="#5E94FF" fill-rule="evenodd"><path d="M16.24 5.62c-.36-.24-.79-.38-1.25-.38h-1 -9c-1.52 0-2.75 1.23-2.75 2.75v8c0 .98.51 1.84 1.29 2.33l12.7-12.71ZM7.36 18.74h7.12c1.51 0 2.75-1.24 2.75-2.75v-.85l3.44 1.53c.23.1.5.08.71-.06 .21-.14.34-.375.34-.63v-8c0-.26-.13-.5-.35-.63 -.22-.14-.49-.16-.72-.06l-3.4 1.51 -9.93 9.92Z"/><path fill="#F9F9F9" d="M5.25 9c0-.42.33-.75.75-.75h4c.41 0 .75.33.75.75 0 .41-.34.75-.75.75H6c-.42 0-.75-.34-.75-.75Z"/><path fill="#EE4D4D" d="M21.53 2.46c.29.29.29.76 0 1.06l-18 18c-.3.29-.77.29-1.07 0 -.3-.3-.3-.77 0-1.07l18-18c.29-.3.76-.3 1.06-.001Z"/></g></svg>