<svg viewBox="0 0 24 24" xmlns="http://www.w3.org/2000/svg"><g fill="#8B98A6" fill-rule="evenodd"><path d="M12.75 3c0-.3-.18-.57-.45-.69 -.27-.13-.59-.08-.81.12L6.07 7.24H1.98c-.42 0-.75.33-.75.75v7.99c0 .41.33.75.75.75h4.08l5.41 4.81c.22.19.53.24.8.12 .26-.13.44-.39.44-.69v-18Z"/><g fill="#8BC94D"><path d="M14.16 8.32c.37-.19.82-.04 1 .33l.38.76c.8 1.61.8 3.52 0 5.14l-.39.76c-.19.37-.64.52-1.01.33 -.38-.19-.53-.64-.34-1.01l.38-.77c.59-1.2.59-2.61 0-3.81l-.39-.77c-.19-.38-.04-.83.33-1.01Z"/><path d="M16.69 6.81c.37-.17.82 0 .98.38l.73 1.65c.89 2 .89 4.29 0 6.29l-.74 1.657c-.17.37-.62.54-.99.38 -.38-.17-.55-.62-.39-.99l.73-1.657c.71-1.62.71-3.47 0-5.08l-.74-1.66c-.17-.38 0-.83.38-.99Z"/><path d="M19.21 5.3c.38-.16.82.02.98.4l1.05 2.53c1 2.39 1 5.09 0 7.49l-1.06 2.53c-.16.38-.6.56-.99.4 -.39-.16-.57-.6-.41-.99l1.05-2.54c.84-2.04.84-4.32 0-6.35l-1.06-2.54c-.16-.39.02-.83.4-.99Z"/></g></g></svg>