<svg viewBox="0 0 24 24" xmlns="http://www.w3.org/2000/svg"><g fill-rule="evenodd"><path d="M9.25 2c0-.42.33-.75.75-.75h4c.41 0 .75.33.75.75v1.69c.4.13.8.29 1.18.48l1.19-1.2c.29-.3.76-.3 1.06 0L21 5.79c.14.14.21.33.21.53 0 .19-.08.38-.22.53l-1.2 1.19c.19.37.35.77.48 1.18h1.69c.41 0 .75.33.75.75v4c0 .41-.34.75-.75.75h-1.7c-.14.4-.3.8-.49 1.18l1.19 1.19c.14.14.21.33.21.53 0 .19-.08.38-.22.53l-2.83 2.82c-.3.29-.77.29-1.07 0 -.3-.3-.3-.77 0-1.07l2.29-2.3 -1.07-1.07c-.25-.25-.29-.62-.12-.92 .34-.58.6-1.21.77-1.87 .08-.34.38-.57.72-.57h1.5v-2.5h-1.51c-.35 0-.65-.24-.73-.57 -.18-.67-.44-1.3-.78-1.87 -.18-.3-.13-.67.11-.92l1.06-1.07 -1.77-1.77 -1.07 1.06c-.25.24-.62.28-.92.11 -.58-.35-1.21-.61-1.87-.78 -.34-.09-.57-.39-.57-.73V2.62h-2.5v1.5c0 .34-.24.64-.57.72 -.67.17-1.3.43-1.87.77 -.3.17-.67.12-.92-.12L6.16 4.42 4.39 6.18l1.06 1.06c.24.24.28.61.11.91 -.35.57-.61 1.2-.78 1.86 -.09.33-.39.56-.73.56H2.54v2.5h1.5c.34 0 .64.23.72.56 .17.66.43 1.29.77 1.86 .17.29.12.66-.12.91l-1.07 1.06 1.76 1.76 1.06-1.07c.24-.25.61-.29.91-.12 .57.34 1.2.6 1.86.77 .33.08.56.38.56.72v1.5h2.5v-1.51c0-.35.23-.65.56-.73 .31-.08.61-.18.9-.3 .38-.16.82.02.97.41 .15.38-.03.82-.42.97 -.18.07-.36.13-.54.19v1.69c0 .41-.34.75-.75.75h-4c-.42 0-.75-.34-.75-.75v-1.7c-.41-.14-.81-.3-1.19-.49l-1.2 1.19c-.3.29-.77.29-1.07 0l-2.83-2.83c-.3-.3-.3-.77 0-1.07l1.19-1.2c-.2-.38-.36-.78-.49-1.19h-1.7c-.42 0-.75-.34-.75-.75v-4c0-.42.33-.75.75-.75h1.69c.13-.41.29-.81.48-1.19l-1.2-1.2c-.3-.3-.3-.77 0-1.07l2.82-2.83c.29-.3.76-.3 1.06 0l1.19 1.19c.37-.2.77-.36 1.18-.49v-1.7Z"/><path d="M15.44 7.25l.05.74 .74.05c.01-.22-.07-.44-.22-.59 -.16-.16-.37-.24-.59-.22Zm-.79 1.59c-.05.37-.12.84-.21 1.33 -.12.59-.26 1.2-.44 1.72 -.19.54-.39.89-.55 1.06 -.46.45-.98.65-1.47.65 -.5 0-1.02-.21-1.47-.66 -.46-.46-.66-.98-.66-1.47 0-.5.2-1.02.65-1.47 .16-.17.52-.37 1.06-.55 .52-.18 1.13-.33 1.72-.44 .48-.1.95-.16 1.33-.21Zm.843-.85c.74.05.74.05.74.05l-.01 0 -.01.01 -.01.03c-.01.03-.01.08-.02.14 -.02.12-.03.3-.06.52 -.06.43-.14 1.03-.25 1.66 -.12.63-.28 1.32-.49 1.94 -.21.59-.49 1.22-.91 1.64 -.72.71-1.61 1.09-2.54 1.09 -.93 0-1.82-.39-2.54-1.1 -.72-.72-1.1-1.61-1.1-2.54 0-.93.38-1.82 1.09-2.54 .41-.42 1.04-.71 1.64-.91 .61-.22 1.3-.38 1.94-.49 .63-.12 1.23-.2 1.66-.25 .21-.03.39-.05.52-.06 .06-.01.11-.02.14-.02l.03-.01 .01-.01 0-.01c0-.01 0 0 .05.74Z"/><path d="M10.53 12.96c-.3-.3-.77-.3-1.07 0l-2 2c-.3.29-.3.76 0 1.06 .29.29.76.29 1.06 0l1.99-2c.29-.3.29-.77 0-1.07Z"/></g></svg>