<svg viewBox="0 0 24 24" xmlns="http://www.w3.org/2000/svg"><g fill-rule="evenodd"><path d="M16.24 3.05l-.75-.06 -.06-.75c.21-.02.43.06.58.21 .15.15.23.36.21.58Zm-1.6.78c-.38.04-.85.11-1.34.2 -.6.11-1.21.25-1.73.43 -.55.18-.9.38-1.07.54 -.46.45-.66.97-.66 1.46s.2 1.01.65 1.46c.45.45.97.65 1.46.65s1.01-.21 1.46-.66c.16-.17.36-.53.54-1.07 .17-.53.32-1.14.43-1.73 .09-.49.15-.96.2-1.34Zm.84-.85c-.06-.75-.06-.75-.06-.75l-.01 0 -.02 0 -.04 0c-.04 0-.09 0-.15.01 -.13.01-.31.02-.53.05 -.44.05-1.04.13-1.67.24 -.64.11-1.33.27-1.95.48 -.6.2-1.23.48-1.65.9 -.72.71-1.1 1.6-1.1 2.53 0 .92.38 1.81 1.09 2.53 .71.71 1.6 1.09 2.53 1.09 .92 0 1.81-.39 2.53-1.1 .41-.42.7-1.05.9-1.65 .21-.62.37-1.31.48-1.95 .11-.64.19-1.24.24-1.67 .02-.22.04-.4.05-.53 0-.07.01-.12.01-.15l0-.04 0-.02 0-.01c0-.01 0 0-.75-.06Z"/><path d="M10.53 7.96c-.3-.3-.77-.3-1.07 0l-2 2c-.3.29-.3.76 0 1.06 .29.29.76.29 1.06 0l1.99-2c.29-.3.29-.77 0-1.07Z"/><path d="M2.25 13c0-.42.33-.75.75-.75h15c.41 0 .75.33.75.75v8c0 .41-.34.75-.75.75h-6.5c-.42 0-.75-.34-.75-.75 0-.42.33-.75.75-.75h5.75v-6.5H3.75v6.5H7.5c.41 0 .75.33.75.75 0 .41-.34.75-.75.75H3c-.42 0-.75-.34-.75-.75v-8Z"/><path d="M17.25 15c0-.42.33-.75.75-.75h3c.41 0 .75.33.75.75v4c0 .41-.34.75-.75.75h-3c-.42 0-.75-.34-.75-.75v-4Zm1.5.75v2.5h1.5v-2.5h-1.5Z"/></g></svg>