<svg viewBox="0 0 24 24" xmlns="http://www.w3.org/2000/svg"><g fill-rule="evenodd"><path d="M12 2.75c-3.18 0-5.75 2.57-5.75 5.75 0 .41-.34.75-.75.75 -.42 0-.75-.34-.75-.75 0-4.01 3.24-7.25 7.25-7.25 4 0 7.25 3.24 7.25 7.25 0 3.26-1.73 6.79-3.37 9.42 -.83 1.33-1.66 2.47-2.28 3.27 -.32.4-.57.72-.76.94 -.1.11-.17.19-.22.25 -.02.01-.03.02-.04.03 -.01.01-.02.02-.03.02l-.02.01 -.01 0 -.01 0c-.01 0-.01 0-.57-.5 -.57.49-.57.49-.57.49l-.01-.01 -.01-.01 -.01-.02 -.04-.05c-.04-.04-.08-.1-.14-.17 -.12-.14-.29-.35-.5-.61 -.42-.52-.98-1.26-1.6-2.16 -1.24-1.79-2.72-4.23-3.61-6.78 -.14-.4.06-.82.46-.96 .39-.14.81.06.95.46 .82 2.36 2.21 4.67 3.42 6.41 .59.86 1.14 1.57 1.53 2.07 .02.02.04.05.06.08 .12-.16.26-.34.42-.54 .59-.78 1.39-1.88 2.19-3.16 1.61-2.6 3.13-5.82 3.13-8.64 0-3.18-2.58-5.75-5.75-5.75ZM12 22l-.57.49c.14.16.34.25.56.25 .21 0 .42-.1.56-.26l-.57-.5Z"/><path d="M15.74 5.55l-.75-.06 -.06-.75c.21-.02.43.06.58.21 .15.15.23.36.21.58Zm-1.6.79c-.25.03-.54.07-.83.13 -.47.08-.94.19-1.34.33 -.43.14-.68.28-.78.39 -.34.33-.47.69-.47 1.03 0 .33.13.7.46 1.03 .33.33.69.46 1.03.46 .33 0 .7-.14 1.03-.47 .1-.11.24-.36.39-.78 .13-.4.24-.88.33-1.34 .05-.3.09-.58.13-.83Zm.84-.85c-.06-.75-.06-.75-.06-.75l-.01 0 -.01 0 -.04 0c-.03 0-.07 0-.12.01 -.1 0-.25.02-.42.04 -.35.03-.82.1-1.32.19 -.51.09-1.05.21-1.55.38 -.48.16-1 .39-1.35.75 -.59.58-.91 1.32-.91 2.09 0 .76.32 1.51.9 2.09 .58.58 1.32.9 2.09.9 .76 0 1.51-.33 2.09-.91 .35-.36.58-.88.75-1.35 .16-.5.29-1.05.38-1.55 .09-.51.15-.98.19-1.32 .01-.18.03-.32.04-.42 0-.05 0-.09.01-.12l0-.04 0-.01 0-.01c0-.01 0 0-.75-.06Z"/><path d="M11.03 9.46c-.3-.3-.77-.3-1.07 0l-2 2c-.3.29-.3.76 0 1.06 .29.29.76.29 1.06 0l1.99-2c.29-.3.29-.77 0-1.07Z"/></g></svg>