<svg viewBox="0 0 24 24" xmlns="http://www.w3.org/2000/svg"><g fill-rule="evenodd"><path d="M11.25 2c0-.42.33-.75.75-.75 4.28 0 7.75 3.46 7.75 7.75 0 2.71-1.4 5.09-3.5 6.48v3.51c0 .41-.34.75-.75.75h-7c-.42 0-.75-.34-.75-.75v-3.52c-2.11-1.39-3.5-3.77-3.5-6.49 0-2.73 1.41-5.13 3.54-6.51 .34-.23.81-.13 1.03.22 .22.34.12.81-.23 1.03 -1.73 1.11-2.86 3.04-2.86 5.24 0 2.31 1.25 4.33 3.12 5.41 .23.13.37.38.37.64v3.18h5.5V15c0-.27.14-.52.37-.65 1.87-1.09 3.12-3.11 3.12-5.42 0-3.46-2.8-6.25-6.25-6.25 -.42 0-.75-.34-.75-.75Z"/><path d="M7.25 22c0-.42.33-.75.75-.75h8c.41 0 .75.33.75.75 0 .41-.34.75-.75.75H8c-.42 0-.75-.34-.75-.75Z"/><path d="M15.74 5.55l-.75-.06 -.06-.75c.21-.02.43.06.58.21 .15.15.23.36.21.58Zm-1.6.79c-.25.03-.54.07-.83.13 -.47.08-.94.19-1.34.33 -.43.14-.68.28-.78.39 -.34.33-.47.69-.47 1.03 0 .33.13.7.46 1.03 .33.33.69.46 1.03.46 .33 0 .7-.14 1.03-.47 .1-.11.24-.36.39-.78 .13-.4.24-.88.33-1.34 .05-.3.09-.58.13-.83Zm.84-.85c-.06-.75-.06-.75-.06-.75l-.01 0 -.01 0 -.04 0c-.03 0-.07 0-.12.01 -.1 0-.25.02-.42.04 -.35.03-.82.1-1.32.19 -.51.09-1.05.21-1.55.38 -.48.16-1 .39-1.35.75 -.59.58-.91 1.32-.91 2.09 0 .76.32 1.51.9 2.09 .58.58 1.32.9 2.09.9 .76 0 1.51-.33 2.09-.91 .35-.36.58-.88.75-1.35 .16-.5.29-1.05.38-1.55 .09-.51.15-.98.19-1.32 .01-.18.03-.32.04-.42 0-.05 0-.09.01-.12l0-.04 0-.01 0-.01c0-.01 0 0-.75-.06Z"/><path d="M11.03 9.46c-.3-.3-.77-.3-1.07 0l-2 2c-.3.29-.3.76 0 1.06 .29.29.76.29 1.06 0l1.99-2c.29-.3.29-.77 0-1.07Z"/></g></svg>