<svg viewBox="0 0 24 24" xmlns="http://www.w3.org/2000/svg"><g fill-rule="evenodd"><path d="M3.25 2c0-.42.33-.75.75-.75h11c.41 0 .75.33.75.75v17c0 .41-.34.75-.75.75H4c-.42 0-.75-.34-.75-.75V7.5c0-.42.33-.75.75-.75 .41 0 .75.33.75.75v10.75h9.5V2.75h-9.5v.75c0 .41-.34.75-.75.75 -.42 0-.75-.34-.75-.75V2Z"/><path d="M2.28 18.76c.1-.31.38-.52.71-.52h13c.32 0 .6.2.71.51l1 3c.07.22.03.48-.11.67 -.15.19-.37.31-.61.31h-15c-.25 0-.47-.12-.61-.32 -.15-.2-.18-.45-.11-.68l1-3Zm1.25.98l-.51 1.5h12.91l-.5-1.5H3.51Z"/><path d="M18.57 5.37c.2-.14.46-.17.69-.08l2.5 1c.28.11.47.38.47.69v2c0 .41-.34.75-.75.75h-2.5c-.42 0-.75-.34-.75-.75v-3c0-.25.12-.49.32-.63Zm1.17 1.72v1.14h1v-.75l-1-.4Z"/><path d="M16.82 4.66c.18-.38.63-.53 1-.34l4 2c.25.12.41.38.41.67v7.5c0 1.51-1.24 2.75-2.75 2.75h-4.5c-.42 0-.75-.34-.75-.75 0-.42.33-.75.75-.75h4.5c.69 0 1.25-.56 1.25-1.25V7.45l-3.59-1.8c-.38-.19-.53-.64-.34-1.01Z"/><path d="M9.83 3.82c.37.18.52.63.33 1L8.7 7.73h2.78c.25 0 .5.13.63.35 .13.22.14.49.03.72l-2 3.99c-.19.37-.64.52-1.01.33 -.38-.19-.53-.64-.34-1.01l1.45-2.92H7.45c-.26 0-.51-.14-.64-.36 -.14-.23-.15-.5-.04-.73l2-4c.18-.38.63-.53 1-.34Z"/></g></svg>