<svg viewBox="0 0 24 24" xmlns="http://www.w3.org/2000/svg"><g fill-rule="evenodd"><path d="M9.42 9.51c.14-.18.35-.27.57-.27h7c.22 0 .43.09.57.26l2.27 2.73h.64c1.24 0 2.25 1 2.25 2.25v3.5c0 .41-.34.75-.75.75h-2c-.42 0-.75-.34-.75-.75 0-.42.33-.75.75-.75h1.25v-2.75c0-.42-.34-.75-.75-.75h-1c-.23 0-.44-.1-.58-.27l-2.28-2.74h-6.3l-2.28 2.73c-.12.13-.27.22-.45.25l-4.27.77c-.36.06-.62.37-.62.73v1.99h1.25c.41 0 .75.33.75.75 0 .41-.34.75-.75.75h-2c-.42 0-.75-.34-.75-.75v-2.75c0-1.09.77-2.02 1.84-2.22l4-.73 2.32-2.8Zm-2.18 8.48c0-.42.33-.75.75-.75h2c.41 0 .75.33.75.75 0 .41-.34.75-.75.75h-2c-.42 0-.75-.34-.75-.75Zm6 0c0-.42.33-.75.75-.75h2c.41 0 .75.33.75.75 0 .41-.34.75-.75.75h-2c-.42 0-.75-.34-.75-.75Z"/><path d="M6 16.75c-.7 0-1.25.55-1.25 1.25 0 .69.55 1.25 1.25 1.25 .69 0 1.25-.56 1.25-1.25 0-.7-.56-1.25-1.25-1.25ZM3.25 18c0-1.52 1.23-2.75 2.75-2.75 1.51 0 2.75 1.23 2.75 2.75 0 1.51-1.24 2.75-2.75 2.75 -1.52 0-2.75-1.24-2.75-2.75Z"/><path d="M18 16.75c-.7 0-1.25.55-1.25 1.25 0 .69.55 1.25 1.25 1.25 .69 0 1.25-.56 1.25-1.25 0-.7-.56-1.25-1.25-1.25ZM15.25 18c0-1.52 1.23-2.75 2.75-2.75 1.51 0 2.75 1.23 2.75 2.75 0 1.51-1.24 2.75-2.75 2.75 -1.52 0-2.75-1.24-2.75-2.75Z"/><path d="M5.83 3.32c.37.18.52.63.33 1L5.2 6.23h1.78c.25 0 .5.13.63.35 .13.22.14.49.03.72l-1.5 2.99c-.19.37-.64.52-1.01.33 -.38-.19-.53-.64-.34-1.01l.95-1.92H3.95c-.26 0-.51-.14-.64-.36 -.14-.23-.15-.5-.04-.73l1.5-3c.18-.38.63-.53 1-.34Z"/></g></svg>