<svg viewBox="0 0 24 24" xmlns="http://www.w3.org/2000/svg"><g fill-rule="evenodd"><path d="M12 6.75c-2.35 0-4.25 1.9-4.25 4.25 0 2.34 1.9 4.25 4.25 4.25 2.34 0 4.25-1.91 4.25-4.25 0-2.35-1.91-4.25-4.25-4.25ZM6.25 11c0-3.18 2.57-5.75 5.75-5.75 3.17 0 5.75 2.57 5.75 5.75 0 3.17-2.58 5.75-5.75 5.75 -3.18 0-5.75-2.58-5.75-5.75Z"/><path d="M6.25 12c0-.42.33-.75.75-.75h2.67c.86 0 1.57.7 1.57 1.57 0 .03.02.06.05.07l.58.11c1.07.21 1.85 1.16 1.85 2.26v.72c0 .41-.34.75-.75.75 -.42 0-.75-.34-.75-.75v-.73c0-.39-.28-.72-.65-.79l-.59-.12c-.74-.15-1.27-.8-1.27-1.55 0-.05-.04-.08-.08-.08H6.95c-.42 0-.75-.34-.75-.75Z"/><path d="M12 5.25c.41 0 .75.33.75.75v2c0 .13.11.25.25.25 .96 0 1.75.78 1.75 1.74 0 .13.11.25.25.25h2c.41 0 .75.33.75.75 0 .41-.34.75-.75.75h-2c-.97 0-1.75-.79-1.75-1.76 0-.14-.12-.25-.25-.25 -.97 0-1.75-.79-1.75-1.75v-2c0-.42.33-.75.75-.75Z"/><path d="M19.7 5.25c-1.98-1.92-5.13-2.01-7.22-.27 -.15.11-.32.17-.5.17s-.35-.06-.5-.18c-2.09-1.74-5.24-1.65-7.22.26 -1.97 1.9-2.06 4.92-.28 6.93 .02.02.04.05.06.08l7.91 7.68 7.91-7.69c.01-.03.04-.06.06-.09 1.02-1.16 1.42-2.66 1.2-4.08 -.07-.41.21-.8.62-.86 .4-.07.79.21.85.62 .27 1.79-.22 3.68-1.46 5.17 -.04.06-.09.12-.14.18l-8.56 8.3c-.3.28-.76.28-1.05 0l-8.56-8.31c-.06-.06-.11-.12-.14-.19 -2.2-2.61-2.04-6.46.46-8.88 2.38-2.32 6.09-2.55 8.75-.71 2.65-1.85 6.36-1.62 8.75.7 .29.28.3.76.01 1.06 -.29.29-.77.3-1.07.01Z"/></g></svg>