<svg viewBox="0 0 24 24" xmlns="http://www.w3.org/2000/svg"><g fill-rule="evenodd"><path d="M9.71 6.58c1.08-1.64 3.48-1.64 4.57-.01l8.33 12.5c.15.23.16.52.03.76 -.14.24-.39.39-.67.39h-20c-.28 0-.54-.16-.67-.4 -.14-.25-.12-.54.03-.77l1-1.5c.22-.35.69-.44 1.04-.21 .34.22.43.69.2 1.04l-.23.33h17.19L12.97 7.37c-.5-.75-1.59-.75-2.09 0l-5.34 8c-.23.34-.7.43-1.05.2 -.35-.23-.44-.7-.21-1.04l5.33-8.01Z"/><path d="M7.53 9.91c.32-.26.79-.21 1.05.11l1.06 1.33c.21.27.62.29.87.04 .81-.82 2.13-.82 2.94 0 .24.24.65.22.87-.05L15.38 10c.25-.33.73-.38 1.05-.12 .32.25.37.73.11 1.05l-1.07 1.33c-.78.97-2.23 1.05-3.11.17 -.23-.23-.6-.23-.83 0 -.88.87-2.33.79-3.11-.18l-1.07-1.34c-.26-.33-.21-.8.11-1.06Z"/></g></svg>