<svg viewBox="0 0 24 24" xmlns="http://www.w3.org/2000/svg"><g fill-rule="evenodd"><path d="M19.53 17.53c.14-.15.21-.34.21-.54v-10c0-.42-.34-.75-.75-.75h-17c-.42 0-.75.33-.75.75v10c0 .19.07.38.21.53 .14.14.33.21.53.21h1.5c.41 0 .75-.34.75-.75 0-.42-.34-.75-.75-.75h-.75v-8.5h15.5v8.5H7.48c-.42 0-.75.33-.75.75 0 .41.33.75.75.75h11.5c.19 0 .38-.08.53-.22Z"/><path d="M22 14.75c.41 0 .75-.34.75-.75v-4c0-.42-.34-.75-.75-.75h-3c-.42 0-.75.33-.75.75v4c0 .41.33.75.75.75h3Zm-.75-1.5h-1.5v-2.5h1.5v2.5Z"/><path d="M1.46 1.46c.29-.3.76-.3 1.06 0l20 20c.29.29.29.76 0 1.06 -.3.29-.77.29-1.07 0l-20-20c-.3-.3-.3-.77-.001-1.07Z"/></g></svg>