<svg viewBox="0 0 24 24" xmlns="http://www.w3.org/2000/svg"><g fill-rule="evenodd"><path d="M12 21.25C7.99 21.25 4.75 18 4.75 14c0-.42-.34-.75-.75-.75 -.42 0-.75.33-.75.75 0 4.83 3.91 8.75 8.75 8.75 4.83 0 8.75-3.92 8.75-8.75 0-1.31-.58-2.75-1.35-4.11 -.78-1.39-1.81-2.79-2.83-4.03 -1.02-1.25-2.04-2.35-2.8-3.14 -.39-.4-.7-.72-.92-.94 -.12-.11-.2-.2-.26-.26l-.07-.07 -.02-.02 -.01-.01 -.01-.01c-.01-.01-.01-.01-.52.54 -.52-.55-.516-.55-.52-.55l-.01 0 -.01 0 -.04.03c-.03.02-.07.06-.13.11 -.11.1-.27.25-.46.44 -.39.38-.92.93-1.53 1.59 -1.22 1.32-2.75 3.11-3.97 4.96 -.23.34-.14.81.21 1.03 .34.22.81.13 1.03-.22 1.15-1.76 2.62-3.48 3.81-4.78 .59-.65 1.11-1.19 1.48-1.56 .02-.03.04-.05.07-.08 .19.19.43.43.7.72 .74.77 1.72 1.84 2.7 3.04 .98 1.2 1.95 2.53 2.67 3.81 .73 1.3 1.15 2.46 1.15 3.37 0 4-3.25 7.25-7.25 7.25ZM12 2l-.52-.55c.28-.28.74-.28 1.03 0l-.52.54Z"/><path d="M9.75 10c0-.42.33-.75.75-.75h3c.41 0 .75.33.75.75v1.64H16c.41 0 .75.33.75.75v2.875c0 .41-.34.75-.75.75h-1.75v1.64c0 .41-.34.75-.75.75h-3c-.42 0-.75-.34-.75-.75V16H8c-.42 0-.75-.34-.75-.75V12.38c0-.42.33-.75.75-.75h1.75V9.98Zm1.5.75v1.64c0 .41-.34.75-.75.75H8.75v1.375h1.75c.41 0 .75.33.75.75v1.64h1.5v-1.65c0-.42.33-.75.75-.75h1.75V13.13H13.5c-.42 0-.75-.34-.75-.75v-1.65h-1.5Z"/></g></svg>