<svg viewBox="0 0 24 24" xmlns="http://www.w3.org/2000/svg"><g fill-rule="evenodd"><path d="M10.59 12.61c.7-.94 2.1-.94 2.8 0l.7.93c.24.33.18.8-.15 1.05 -.34.24-.81.18-1.05-.15l-.7-.94c-.1-.14-.3-.14-.4 0l-.7.93c-.25.33-.72.39-1.05.15 -.34-.25-.4-.72-.16-1.05l.7-.94Zm-.66 2.78c.33.24.39.71.15 1.05l-.31.4c-.13.16-.01.4.2.4h1c.41 0 .75.33.75.75 0 .41-.34.75-.75.75H9.96c-1.45 0-2.27-1.65-1.4-2.8l.3-.4c.24-.34.71-.4 1.05-.15Zm4.1 0c.33-.25.8-.19 1.05.15l.3.4c.86 1.15.04 2.8-1.4 2.8h-1c-.42 0-.75-.34-.75-.75 0-.42.33-.75.75-.75h1c.2 0 .32-.24.2-.4l-.3-.4c-.25-.34-.19-.81.15-1.05Z"/><path d="M5.25 8c0-.42.33-.75.75-.75h12c.41 0 .75.33.75.75v8.5c0 .41-.34.75-.75.75 -.42 0-.75-.34-.75-.75V8.75H6.75v12.5h10.5v-.75c0-.42.33-.75.75-.75 .41 0 .75.33.75.75V22c0 .41-.34.75-.75.75H6c-.42 0-.75-.34-.75-.75V8Z"/><path d="M8.75 5c0-.42.33-.75.75-.75h5c.41 0 .75.33.75.75v3c0 .41-.34.75-.75.75h-5c-.42 0-.75-.34-.75-.75V5Zm1.5.75v1.5h3.5v-1.5h-3.5Z"/><path d="M7.28 1.76c.1-.31.38-.52.71-.52h7.99c.32 0 .6.2.71.51l2 6c.07.22.03.48-.11.67 -.15.19-.37.31-.61.31h-12c-.25 0-.47-.12-.61-.32 -.15-.2-.18-.45-.11-.68l2-6Zm1.25.98l-1.51 4.5h9.91l-1.5-4.5H8.51Z"/></g></svg>