<svg viewBox="0 0 24 24" xmlns="http://www.w3.org/2000/svg"><g fill-rule="evenodd"><path d="M6.46 8.46c.14-.15.33-.22.53-.22h10c.19 0 .38.07.53.21l2 2c.14.14.21.33.21.53v1c0 .41-.34.75-.75.75 -.42 0-.75-.34-.75-.75v-.69l-1.57-1.57H7.28l-1.57 1.56v8.18c0 .96.78 1.75 1.75 1.75 .69 0 1.29-.41 1.57-.99 .12-.26.38-.43.67-.43 .28 0 .54.16.67.42 .28.58.88.98 1.57.98 .69 0 1.29-.41 1.57-.99 .12-.26.38-.43.67-.43 .28 0 .54.16.67.42 .28.58.88.98 1.57.98 .96 0 1.75-.79 1.75-1.75v-3.75c0-.42.33-.75.75-.75 .41 0 .75.33.75.75v3.75c0 1.79-1.46 3.25-3.25 3.25 -.88 0-1.67-.35-2.25-.91 -.59.56-1.38.9-2.25.9 -.88 0-1.67-.35-2.25-.91 -.59.56-1.38.9-2.25.9 -1.8 0-3.25-1.46-3.25-3.25v-8.5c0-.2.07-.39.21-.54l2-2.01Z"/><path d="M11.25 5c0-2.08-1.68-3.75-3.75-3.75h-3c-.42 0-.75.33-.75.75v1c0 2.07 1.67 3.75 3.75 3.75h3c.41 0 .75-.34.75-.75V5ZM7.5 2.75c1.24 0 2.25 1 2.25 2.25v.25H7.5C6.25 5.25 5.25 4.24 5.25 3v-.25H7.5Z"/><path d="M9.32 5.66c.18-.38.63-.53 1-.34l1.66.83 1.66-.84c.37-.19.82-.04 1 .33 .18.37.03.82-.34 1l-1.59.79v1.53c0 .41-.34.75-.75.75 -.42 0-.75-.34-.75-.75V7.42l-1.59-.8c-.38-.19-.53-.64-.34-1.01Z"/><path d="M12.75 5c0-2.08 1.67-3.75 3.75-3.75h3c.41 0 .75.33.75.75v1c0 2.07-1.68 3.75-3.75 3.75h-3c-.42 0-.75-.34-.75-.75V5Zm3.75-2.25c-1.25 0-2.25 1-2.25 2.25v.25h2.25c1.24 0 2.25-1.01 2.25-2.25v-.25H16.5Z"/><path d="M6.25 13c0-.42.33-.75.75-.75h10c.41 0 .75.33.75.75 0 .41-.34.75-.75.75H7c-.42 0-.75-.34-.75-.75Z"/><path d="M6.25 16c0-.42.33-.75.75-.75h10c.41 0 .75.33.75.75 0 .41-.34.75-.75.75H7c-.42 0-.75-.34-.75-.75Z"/></g></svg>