<svg viewBox="0 0 24 24" xmlns="http://www.w3.org/2000/svg"><g fill-rule="evenodd"><path d="M11.73 1.29c.16-.07.35-.07.52 0l8 3c.29.1.48.38.48.7v4c0 .41-.34.75-.75.75 -.42 0-.75-.34-.75-.75V5.5l-7.25-2.72 -7.25 2.71v8.61c0 1.23.6 2.39 1.62 3.09l5.62 3.86 5.62-3.87c1.01-.7 1.62-1.86 1.62-3.1v-1.39c0-.42.33-.75.75-.75 .41 0 .75.33.75.75v1.38c0 1.72-.86 3.34-2.28 4.32l-6.05 4.15c-.26.17-.6.17-.85 0l-6.05-4.16c-1.43-.98-2.28-2.6-2.28-4.33V4.91c0-.32.19-.6.48-.71l8-3Z"/><path d="M12 7.75c-2.35 0-4.25 1.9-4.25 4.25 0 2.34 1.9 4.25 4.25 4.25 2.34 0 4.25-1.91 4.25-4.25 0-2.35-1.91-4.25-4.25-4.25ZM6.25 12c0-3.18 2.57-5.75 5.75-5.75 3.17 0 5.75 2.57 5.75 5.75 0 3.17-2.58 5.75-5.75 5.75 -3.18 0-5.75-2.58-5.75-5.75Z"/><path d="M6.25 13c0-.42.33-.75.75-.75h2.67c.86 0 1.57.7 1.57 1.57 0 .03.02.06.05.07l.58.11c1.07.21 1.85 1.16 1.85 2.26v.72c0 .41-.34.75-.75.75 -.42 0-.75-.34-.75-.75v-.73c0-.39-.28-.72-.65-.79l-.59-.12c-.74-.15-1.27-.8-1.27-1.55 0-.05-.04-.08-.08-.08H6.95c-.42 0-.75-.34-.75-.75Z"/><path d="M12 6.25c.41 0 .75.33.75.75v2c0 .13.11.25.25.25 .96 0 1.75.78 1.75 1.75 0 .13.11.25.25.25h2c.41 0 .75.33.75.75 0 .41-.34.75-.75.75h-2c-.97 0-1.75-.79-1.75-1.75 0-.14-.12-.25-.25-.25 -.97 0-1.75-.79-1.75-1.75V7c0-.42.33-.75.75-.75Z"/></g></svg>