<svg viewBox="0 0 24 24" xmlns="http://www.w3.org/2000/svg"><g fill-rule="evenodd"><path d="M11.69 6.27c.32.08.55.38.55.72v2.84l2.85.4c.24.03.46.19.56.41 .1.22.09.48-.03.7l-3.5 6c-.18.29-.52.43-.85.34 -.33-.09-.56-.39-.56-.73V14.1l-2.86-.41c-.25-.04-.47-.2-.57-.42 -.11-.23-.1-.49.02-.71l3.5-6c.17-.3.51-.44.84-.35ZM9.2 12.4l2.39.34c.36.05.64.36.64.74v.72l1.54-2.641 -2.4-.35c-.37-.06-.65-.37-.65-.75v-.73l-1.55 2.64Z"/><path d="M11.99 1.25c.21 0 .42.09.56.26l1.44 1.681 2.02-.89c.2-.09.42-.09.62.01 .19.09.34.27.39.48l.56 2.13 2.21.07c.21 0 .42.11.55.28 .13.17.19.39.15.6l-.53 2.72c-.08.4-.48.67-.88.59 -.41-.08-.68-.48-.6-.88l.35-1.87 -1.9-.07c-.33-.02-.62-.24-.7-.56l-.49-1.84 -1.74.76c-.31.13-.66.05-.88-.2l-1.24-1.44 -1.24 1.43c-.22.25-.57.33-.88.19l-1.74-.77 -.49 1.83c-.09.31-.37.54-.7.55l-1.9.06 .35 1.86c.06.32-.1.65-.39.8l-1.68.88 1.12 1.52c.19.26.19.62 0 .89l-1.13 1.52 1.67.88c.29.15.44.48.38.8l-.36 1.86 1.89.06c.32.01.61.23.69.55l.48 1.83 1.73-.77c.3-.14.65-.06.87.19l1.23 1.43 1.23-1.44c.21-.26.56-.34.87-.2l1.73.76 .48-1.84c.08-.32.36-.55.69-.56l1.89-.07 -.36-1.87c-.07-.33.09-.66.38-.81l1.67-.89 -1.13-1.53c-.2-.27-.2-.63 0-.9l1.64-2.23c.24-.34.71-.41 1.04-.16 .33.24.4.71.15 1.04l-1.32 1.77 1.31 1.77c.13.17.17.4.12.61 -.05.21-.19.39-.39.49l-1.96 1.03 .41 2.17c.04.21-.02.43-.16.6 -.14.17-.35.27-.56.28l-2.22.07 -.57 2.13c-.06.21-.21.38-.4.48 -.2.09-.43.09-.63.01l-2.03-.89 -1.45 1.68c-.15.16-.36.26-.57.26 -.22 0-.43-.1-.57-.27l-1.45-1.69 -2.03.88c-.21.08-.43.08-.63-.02s-.35-.28-.4-.49l-.57-2.14 -2.22-.08c-.22-.01-.43-.12-.56-.29 -.14-.18-.2-.4-.16-.61l.41-2.18L1.5 14.5c-.2-.11-.34-.29-.39-.5 -.05-.22-.01-.44.12-.62l1.31-1.78 -1.32-1.78c-.14-.18-.18-.41-.13-.62 .04-.22.18-.4.38-.5l1.95-1.04L3 5.48c-.05-.22.01-.44.15-.61 .13-.18.34-.28.55-.29l2.21-.08 .56-2.14c.05-.22.2-.39.39-.49 .19-.1.42-.1.62-.02l2.02.88 1.44-1.681c.14-.17.35-.27.56-.27Z"/></g></svg>