<svg viewBox="0 0 24 24" xmlns="http://www.w3.org/2000/svg"><g fill-rule="evenodd"><path d="M9.71 15.52c-1.46-.49-2.97.59-2.97 2.13v.17c0 .96.61 1.82 1.53 2.13l2.36.78c.87.29 1.81.29 2.68 0l2.36-.79c.91-.31 1.53-1.17 1.53-2.14v-.18c0-1.54-1.51-2.63-2.97-2.14l-.48.15c-1.19.39-2.46.39-3.64 0l-.48-.16Zm-4.47 2.13c0-2.56 2.5-4.37 4.93-3.56l.47.15c.87.29 1.81.29 2.68 0l.47-.16c2.42-.81 4.93.99 4.93 3.55v.17c0 1.61-1.04 3.04-2.57 3.55l-2.37.78c-1.19.39-2.46.39-3.64 0l-2.37-.79c-1.54-.52-2.57-1.95-2.57-3.56v-.18Z"/><path d="M8.32 16.66c.18-.38.63-.53 1-.34l.76.38c1.19.59 2.6.59 3.8 0l.76-.39c.37-.19.82-.04 1 .33 .18.37.03.82-.34 1l-.77.38c-1.62.8-3.53.8-5.15 0l-.77-.39c-.38-.19-.53-.64-.34-1.01Z"/><path d="M10.75 5c0-2.08-1.68-3.75-3.75-3.75H3c-.42 0-.75.33-.75.75v2c0 2.07 1.67 3.75 3.75 3.75h4c.41 0 .75-.34.75-.75V5ZM7 2.75c1.24 0 2.25 1 2.25 2.25v1.25H6C4.75 6.25 3.75 5.24 3.75 4V2.75H7Z"/><path d="M9.46 6.46c.29-.3.76-.3 1.06 0l1.46 1.46 1.46-1.47c.29-.3.76-.3 1.06 0 .29.29.29.76 0 1.06l-1.79 1.78v.68c0 .41-.34.75-.75.75 -.42 0-.75-.34-.75-.75v-.69L9.42 7.49c-.3-.3-.3-.77 0-1.07Zm3.28 7.53v1c0 .41-.34.75-.75.75 -.42 0-.75-.34-.75-.75v-1c0-.42.33-.75.75-.75 .41 0 .75.33.75.75Z"/><path d="M13.25 5c0-2.08 1.67-3.75 3.75-3.75h4c.41 0 .75.33.75.75v2c0 2.07-1.68 3.75-3.75 3.75h-4c-.42 0-.75-.34-.75-.75V5ZM17 2.75c-1.25 0-2.25 1-2.25 2.25v1.25H18c1.24 0 2.25-1.01 2.25-2.25V2.75H17Z"/></g></svg>