<svg viewBox="0 0 24 24" xmlns="http://www.w3.org/2000/svg"><g fill-rule="evenodd"><path d="M5.25 22c0-.42.33-.75.75-.75h12c.41 0 .75.33.75.75 0 .41-.34.75-.75.75H6c-.42 0-.75-.34-.75-.75Z"/><path d="M9.75 13c0-.42.33-.75.75-.75h3c.41 0 .75.33.75.75v4.5c0 .41-.34.75-.75.75 -.42 0-.75-.34-.75-.75v-3.75h-1.5v7.5h1.5V21c0-.42.33-.75.75-.75 .41 0 .75.33.75.75v1c0 .41-.34.75-.75.75h-3c-.42 0-.75-.34-.75-.75v-9Z"/><path d="M10.33 2.13c.37-.56.99-.89 1.66-.89 .66 0 1.29.33 1.66.88l2.96 4.44c.15.23.16.52.03.76 -.14.24-.39.39-.67.39h-.12l2.72 3.81c.16.22.18.52.05.77 -.13.24-.39.4-.67.4h-1.18l2.77 3.8c.16.22.19.53.06.78s-.39.41-.67.41h-5.5c-.42 0-.75-.34-.75-.75 0-.42.33-.75.75-.75h4.02l-2.78-3.81c-.17-.23-.2-.54-.07-.79 .12-.26.38-.42.66-.42h1.18l-2.73-3.82c-.17-.23-.19-.53-.06-.78 .12-.25.38-.41.66-.41h.17l-2.19-3.28c-.1-.14-.25-.23-.42-.23 -.17 0-.33.08-.42.22L9.26 6.13h.17c.28 0 .53.15.66.4 .12.24.1.55-.06.77L7.3 11.11h1.18c.28 0 .54.15.66.41 .12.25.1.55-.07.78l-2.78 3.8h4.02c.41 0 .75.33.75.75 0 .41-.34.75-.75.75h-5.5c-.29 0-.55-.16-.67-.42 -.13-.26-.11-.56.06-.79l2.77-3.81H5.79c-.29 0-.54-.16-.67-.41 -.13-.25-.11-.56.05-.78l2.72-3.82h-.12c-.28 0-.54-.16-.67-.4 -.14-.25-.12-.54.03-.77l2.96-4.45Z"/></g></svg>