<svg viewBox="0 0 24 24" xmlns="http://www.w3.org/2000/svg"><g fill-rule="evenodd"><path d="M11.99 1.25c.21 0 .42.09.56.26l1.44 1.681 2.02-.89c.2-.09.42-.09.62.01 .19.09.34.27.39.48l.56 2.13 2.21.07c.21 0 .42.11.55.28 .13.17.19.39.15.6l-.42 2.17 1.95 1.03c.19.1.33.28.38.49 .04.21 0 .43-.13.61l-1.32 1.77 1.31 1.77c.13.17.17.4.12.61 -.05.21-.19.39-.39.49l-1.96 1.03 .41 2.17c.04.21-.02.43-.16.6 -.14.17-.35.27-.56.28l-2.22.07 -.57 2.13c-.06.21-.21.38-.4.48 -.2.09-.43.09-.63.01l-2.03-.89 -1.45 1.68c-.15.16-.36.26-.57.26 -.22 0-.43-.1-.57-.27l-1.45-1.69 -2.03.88c-.21.08-.43.08-.63-.02s-.35-.28-.4-.49l-.57-2.14 -2.22-.08c-.22-.01-.43-.12-.56-.29 -.14-.18-.2-.4-.16-.61l.41-2.18 -1.96-1.04c-.2-.11-.34-.29-.39-.5 -.05-.22-.01-.44.12-.62l1.31-1.78 -1.32-1.78c-.14-.18-.18-.41-.13-.62 .04-.22.18-.4.38-.5l1.95-1.04 -.42-2.18c-.05-.22.01-.44.15-.61 .13-.18.34-.28.55-.29l2.21-.08 .56-2.14c.05-.22.2-.39.39-.49 .19-.1.42-.1.62-.02l2.02.88 1.44-1.681c.14-.17.35-.27.56-.27Zm0 1.9l-1.24 1.43c-.22.25-.57.33-.88.19L8.13 4l-.49 1.83c-.09.31-.37.54-.7.55l-1.9.06 .35 1.86c.06.32-.1.65-.39.8l-1.68.88 1.12 1.52c.19.26.19.62 0 .89l-1.13 1.52 1.67.88c.29.15.44.48.38.8L5 17.45l1.89.06c.32.01.61.23.69.55l.48 1.83 1.73-.77c.3-.14.65-.06.87.19l1.23 1.43 1.23-1.44c.21-.26.56-.34.87-.2l1.73.76 .48-1.84c.08-.32.36-.55.69-.56l1.89-.07 -.36-1.87c-.07-.33.09-.66.38-.81l1.67-.89 -1.13-1.53c-.2-.27-.2-.63 0-.9l1.12-1.53 -1.68-.89c-.3-.16-.45-.49-.39-.81l.35-1.87 -1.9-.07c-.33-.02-.62-.24-.7-.56l-.49-1.84 -1.74.76c-.31.13-.66.05-.88-.2l-1.24-1.44Z"/><path d="M12 8.75c-1.8 0-3.25 1.45-3.25 3.25 0 1.79 1.45 3.25 3.25 3.25 .59 0 1.14-.16 1.62-.44 .35-.21.81-.09 1.02.27 .2.35.08.81-.28 1.02 -.7.4-1.52.63-2.38.63 -2.63 0-4.75-2.13-4.75-4.75 0-2.63 2.12-4.75 4.75-4.75 2.62 0 4.75 2.12 4.75 4.75 0 .41-.34.75-.75.75 -.42 0-.75-.34-.75-.75 0-1.8-1.46-3.25-3.25-3.25Z"/></g></svg>