<svg viewBox="0 0 24 24" xmlns="http://www.w3.org/2000/svg"><g fill-rule="evenodd"><path d="M9.07 13.74c-.49-.81-1.66-.81-2.15 0l-3.61 6h.67c.41 0 .75.33.75.75 0 .41-.34.75-.75.75h-2c-.28 0-.52-.15-.66-.39 -.14-.24-.13-.53 0-.76l4.28-7.15c1.06-1.79 3.64-1.79 4.71 0l4.285 7.14c.13.23.14.52 0 .75 -.14.23-.39.38-.66.38h-6c-.42 0-.75-.34-.75-.75 0-.42.33-.75.75-.75h4.67L8.99 13.7Z"/><path d="M13.64 12.97c1.06-1.79 3.64-1.79 4.71 0l4.285 7.14c.13.23.14.52 0 .75 -.14.23-.39.38-.66.38h-12c-.42 0-.75-.34-.75-.75 0-.42.33-.75.75-.75h10.67l-3.61-6.01c-.49-.81-1.66-.81-2.15 0l-2.19 3.64c-.22.35-.68.47-1.029.25 -.36-.22-.48-.68-.26-1.029l2.18-3.65Z"/><path d="M12 9.25c-1.8 0-3.25 1.45-3.25 3.25 0 .41-.34.75-.75.75 -.42 0-.75-.34-.75-.75 0-2.63 2.12-4.75 4.75-4.75 2.62 0 4.75 2.12 4.75 4.75 0 .41-.34.75-.75.75 -.42 0-.75-.34-.75-.75 0-1.8-1.46-3.25-3.25-3.25Z"/><path d="M12 2.75c.41 0 .75.33.75.75v3c0 .41-.34.75-.75.75 -.42 0-.75-.34-.75-.75v-3c0-.42.33-.75.75-.75Z"/><path d="M19.16 5.48c.28.3.27.77-.04 1.06l-2.12 2c-.31.28-.78.27-1.07-.04 -.29-.31-.28-.78.03-1.07l2.11-2c.3-.29.77-.28 1.06.03Z"/><path d="M4.96 5.46c.29-.3.76-.3 1.06 0l2 2c.29.29.29.76 0 1.06 -.3.29-.77.29-1.07 0l-2-2c-.3-.3-.3-.77 0-1.07Z"/><path d="M17.25 10.5c0-.42.33-.75.75-.75h3c.41 0 .75.33.75.75 0 .41-.34.75-.75.75h-3c-.42 0-.75-.34-.75-.75Z"/><path d="M2.25 10.5c0-.42.33-.75.75-.75h3c.41 0 .75.33.75.75 0 .41-.34.75-.75.75H3c-.42 0-.75-.34-.75-.75Z"/></g></svg>