<svg viewBox="0 0 24 24" xmlns="http://www.w3.org/2000/svg"><g fill-rule="evenodd"><path d="M8.83 7.64c.13-.25.38-.4.66-.4h5c.27 0 .53.15.66.39l7.5 14c.12.23.11.51-.02.73 -.14.22-.38.36-.65.36h-2.5c-.42 0-.75-.34-.75-.75 0-.42.33-.75.75-.75h1.24l-6.7-12.5H9.91l-6.7 12.5H15.7c.41 0 .75.33.75.75 0 .41-.34.75-.75.75H1.95c-.27 0-.51-.14-.65-.37 -.14-.23-.15-.51-.02-.74l7.5-14Z"/><path d="M6.42 12.51c.26-.32.73-.37 1.05-.1l2.47 2.06 1.51-1.52c.29-.3.76-.3 1.06 0l1.51 1.51 2.47-2.07c.31-.27.79-.23 1.05.09 .26.31.22.79-.1 1.05l-3 2.5c-.3.24-.74.22-1.02-.05l-1.47-1.47 -1.47 1.46c-.28.27-.72.29-1.02.04l-3-2.5c-.32-.27-.37-.74-.1-1.06Z"/><path d="M10 1.25c.41 0 .75.33.75.75v4c0 .41-.34.75-.75.75 -.42 0-.75-.34-.75-.75V2c0-.42.33-.75.75-.75Z"/><path d="M14 1.25c.41 0 .75.33.75.75v3c0 .41-.34.75-.75.75 -.42 0-.75-.34-.75-.75V2c0-.42.33-.75.75-.75Z"/></g></svg>