<svg viewBox="0 0 24 24" xmlns="http://www.w3.org/2000/svg"><g fill-rule="evenodd"><path d="M12 21.25C7.99 21.25 4.75 18 4.75 14c0-.42-.34-.75-.75-.75 -.42 0-.75.33-.75.75 0 4.83 3.91 8.75 8.75 8.75 4.83 0 8.75-3.92 8.75-8.75 0-1.31-.58-2.75-1.35-4.11 -.78-1.39-1.81-2.79-2.83-4.03 -1.02-1.25-2.04-2.35-2.8-3.14 -.39-.4-.7-.72-.92-.94 -.12-.11-.2-.2-.26-.26l-.07-.07 -.02-.02 -.01-.01 -.01-.01c-.01-.01-.01-.01-.52.54 -.52-.55-.516-.55-.52-.55l-.01 0 -.01 0 -.04.03c-.04.03-.08.07-.14.13 -.12.11-.29.28-.5.49 -.43.42-1.01 1.03-1.67 1.75 -1.32 1.44-2.95 3.39-4.16 5.35 -.22.35-.11.81.24 1.03 .35.21.81.1 1.03-.25 1.13-1.85 2.69-3.72 3.98-5.14 .64-.71 1.21-1.3 1.62-1.71 .04-.05.09-.1.13-.14 .19.19.43.43.7.72 .74.77 1.72 1.84 2.7 3.04 .98 1.2 1.95 2.53 2.67 3.81 .73 1.3 1.15 2.46 1.15 3.37 0 4-3.25 7.25-7.25 7.25ZM12 2l-.52-.55c.28-.28.74-.28 1.03 0l-.52.54Z"/><path d="M11.25 19c0 .41.33.75.75.75 3.14 0 5.75-2.46 5.75-5.55 0-.42-.34-.75-.75-.75 -.42 0-.75.33-.75.75 0 2.2-1.88 4.05-4.25 4.05 -.42 0-.75.33-.75.75Z"/></g></svg>