<svg viewBox="0 0 24 24" xmlns="http://www.w3.org/2000/svg"><g fill-rule="evenodd"><path d="M11 5c0-2.21 1.79-4 4-4h5c.55 0 1 .44 1 1v1c0 2.2-1.8 4-4 4h-5c-.56 0-1-.45-1-1V5Zm4-2c-1.11 0-2 .89-2 2h4c1.1 0 2-.9 2-2h-4Z"/><path d="M8 1h2c1.65 0 3 1.34 3 3v2.5h-2V4c0-.56-.45-1-1-1H8V1Z"/><path d="M9 7c-3.2 0-6 3-6 7 0 3.99 2.8 7 6 7 .89 0 1.75-.24 2.52-.65 .29-.17.65-.17.95 0 .77.41 1.62.64 2.52.64 3.19 0 6-3.01 6-7 0-4-2.81-7-6-7 -.9 0-1.76.23-2.53.64 -.3.16-.66.16-.96 0 -.78-.42-1.63-.65-2.53-.65Zm-8 7c0-4.85 3.46-9 8-9 1.06 0 2.07.23 3 .65 .92-.43 1.93-.66 3-.66 4.53 0 8 4.15 8 9 0 4.84-3.47 9-8 9 -1.07 0-2.08-.24-3-.66 -.93.42-1.94.65-3 .65 -4.54 0-8-4.16-8-9Z"/><path d="M10.34 11.03c-.51.71-.85 1.76-.85 2.96s.34 2.24.84 2.96c.5.72 1.1 1.03 1.65 1.03 .55 0 1.15-.32 1.65-1.04s.84-1.77.84-2.97c0-1.21-.35-2.25-.85-2.97 -.51-.73-1.11-1.04-1.66-1.04 -.56 0-1.16.31-1.66 1.03ZM8.7 9.88c.76-1.09 1.91-1.891 3.29-1.891 1.38 0 2.53.8 3.29 1.891 .76 1.09 1.2 2.54 1.2 4.109 0 1.56-.45 3.01-1.21 4.109 -.77 1.08-1.92 1.89-3.3 1.89 -1.39 0-2.54-.81-3.3-1.9 -.77-1.1-1.21-2.55-1.21-4.109 0-1.57.44-3.02 1.2-4.109Z"/></g></svg>