<svg viewBox="0 0 24 24" xmlns="http://www.w3.org/2000/svg"><g fill-rule="evenodd"><path d="M7 6c0-2.77 2.23-5 5-5 2.76 0 5 2.23 5 5v.66c0 1.29.42 2.56 1.2 3.6l.2.26c1.03 1.38 1.6 3.06 1.6 4.8v.66c0 3.86-3.14 7-7 7h-2c-3.87 0-7-3.14-7-7v-.67c0-1.74.56-3.42 1.6-4.8l.2-.27C6.57 9.2 7 7.93 7 6.63v-.67Zm5-3c-1.66 0-3 1.34-3 3v.66c0 1.73-.57 3.41-1.6 4.8l-.2.26c-.78 1.03-1.2 2.3-1.2 3.6v.66c0 2.76 2.23 5 5 5h2c2.76 0 5-2.24 5-5v-.67c0-1.3-.43-2.57-1.2-3.6l-.2-.27C15.56 10.05 15 8.37 15 6.63v-.67c0-1.66-1.35-3-3-3Z"/><path d="M12 18.5c1.65 0 3-1.35 3-3h2c0 2.76-2.24 5-5 5v-2Z"/></g></svg>