<svg viewBox="0 0 24 24" xmlns="http://www.w3.org/2000/svg"><g fill-rule="evenodd"><path d="M19.12 5.53c-1.18-1.18-3.08-1.18-4.25 0l-9.35 9.34c-1.18 1.17-1.18 3.07 0 4.24l.75.75c.39.39 1.02.39 1.41 0L19.85 7.68c.39-.4.39-1.03 0-1.42l-.76-.76Zm-5.66-1.42c1.95-1.96 5.11-1.96 7.07 0l.75.75c1.17 1.17 1.17 3.07 0 4.24L9.1 21.27c-1.18 1.17-3.08 1.17-4.25 0l-.76-.76c-1.96-1.96-1.96-5.12 0-7.08l9.34-9.35Z"/><path d="M9.5 13.5v-5h2v5h-2Z"/><path d="M6 17v-5h2v5H6Z"/><path d="M13 10V5h2v5h-2Z"/></g></svg>