<svg viewBox="0 0 24 24" xmlns="http://www.w3.org/2000/svg"><g fill-rule="evenodd"><path d="M14.31 21c3.25 0 5.63-3.06 4.85-6.22L17.4 7.75c-.12-.45-.52-.76-.98-.76h-1.34c-.12 0-.24.02-.35.06l-1.74.63c-.67.24-1.39.24-2.06 0l-1.74-.64c-.11-.04-.23-.07-.35-.07H7.5c-.46 0-.86.31-.98.75l-1.76 7.02c-.79 3.15 1.59 6.21 4.85 6.21h4.63Zm6.79-6.7c1.1 4.41-2.24 8.69-6.791 8.69h-4.64c-4.56 0-7.9-4.28-6.8-8.7l1.75-7.03c.33-1.34 1.53-2.28 2.91-2.28h1.33c.34 0 .69.06 1.02.18l1.73.63c.22.08.46.08.68 0l1.73-.64c.32-.12.67-.19 1.02-.19h1.33c1.37 0 2.57.93 2.91 2.27l1.75 7.02Z"/><path d="M14.5 10.74c1.08.52 2 1.88 2 3.75s-.92 3.23-2 3.75v-7.52Zm4 3.75c0-3.1-2.05-6-5-6 -.56 0-1 .44-1 1v10c0 .55.44 1 1 1 2.95 0 5-2.91 5-6Z"/><path d="M9.5 10.74c-1.09.52-2 1.88-2 3.75s.91 3.23 2 3.75v-7.52Zm-4 3.75c0-3.1 2.04-6 5-6 .55 0 1 .44 1 1v10c0 .55-.45 1-1 1 -2.96 0-5-2.91-5-6Z"/><path d="M8 1h2c1.65 0 3 1.34 3 3v2.5h-2V4c0-.56-.45-1-1-1H8V1Z"/></g></svg>