<svg viewBox="0 0 24 24" xmlns="http://www.w3.org/2000/svg"><g fill-rule="evenodd"><path d="M4.5 6c0-.56.44-1 1-1h13c.55 0 1 .44 1 1v16c0 .55-.45 1-1 1h-13c-.56 0-1-.45-1-1V6Zm2 1v14h11V7h-11Z"/><path d="M12 14c-1.11 0-2 .89-2 2 0 1.1.89 2 2 2 1.1 0 2-.9 2-2 0-1.11-.9-2-2-2Zm-4 2c0-2.21 1.79-4 4-4 2.2 0 4 1.79 4 4 0 2.2-1.8 4-4 4 -2.21 0-4-1.8-4-4Z"/><path d="M11 12c0-1.66 1.34-3 3-3h2c.55 0 1 .44 1 1v1c0 1.65-1.35 3-3 3h-2c-.56 0-1-.45-1-1v-1Zm3-1c-.56 0-1 .44-1 1h1c.55 0 1-.45 1-1h-1Z"/><path d="M6 1h3c.45 0 .85.31.97.75l.99 4 -1.95.48 -.82-3.25H5.97v-2Z"/></g></svg>