<svg viewBox="0 0 24 24" xmlns="http://www.w3.org/2000/svg"><g fill-rule="evenodd"><path d="M3.88 10.89c-.59 1.12-.89 2.13-.89 2.9 0 2.12.93 3.62 2.47 4.62 1.59 1.03 3.87 1.57 6.52 1.57 2.64 0 4.93-.54 6.52-1.58 1.54-1.01 2.47-2.5 2.47-4.63 0-.77-.3-1.78-.89-2.91 -.58-1.12-1.4-2.27-2.35-3.32 -.95-1.05-2.01-1.97-3.04-2.61 -1.05-.66-1.99-.98-2.74-.98 -.75 0-1.69.32-2.74.97 -1.04.64-2.09 1.55-3.04 2.6 -.95 1.04-1.77 2.2-2.35 3.31ZM8.2 3.27c1.2-.76 2.51-1.29 3.78-1.29 1.26 0 2.58.52 3.78 1.28 1.21.76 2.41 1.8 3.46 2.95 1.04 1.15 1.97 2.452 2.64 3.73 .65 1.26 1.1 2.6 1.1 3.82 0 2.84-1.31 4.94-3.39 6.3 -2.03 1.32-4.75 1.89-7.62 1.89 -2.88 0-5.59-.58-7.62-1.9C2.25 18.69.94 16.58.94 13.74c0-1.22.45-2.56 1.1-3.83 .66-1.29 1.59-2.59 2.64-3.74 1.04-1.16 2.24-2.2 3.46-2.96Z"/><path d="M7 11c0-.56.44-1 1-1h8c.55 0 1 .44 1 1v9.5h-2V12H9v8.5H7V11Z"/></g></svg>