<svg viewBox="0 0 24 24" xmlns="http://www.w3.org/2000/svg"><g fill-rule="evenodd"><path d="M15.87 3.7c1.17-1.18 3.07-1.18 4.24 0l.17.17c1.17 1.17 1.17 3.07 0 4.24L8.1 20.28c-1.18 1.17-3.08 1.17-4.25 0l-.18-.18c-1.18-1.18-1.18-3.08-.01-4.25L15.83 3.67Zm2.82 1.41c-.4-.4-1.03-.4-1.42 0L5.09 17.28c-.4.39-.4 1.02 0 1.41l.17.17c.39.39 1.02.39 1.41 0L18.84 6.68c.39-.4.39-1.03 0-1.42l-.18-.18Z"/><path d="M20.5 3.5V2h-2v2.5c0 .55.44 1 1 1H22v-2h-1.5Z"/><path d="M2 18.5h2.5c.55 0 1 .44 1 1V22h-2v-1.5H2v-2Z"/></g></svg>