<svg viewBox="0 0 24 24" xmlns="http://www.w3.org/2000/svg"><g fill-rule="evenodd"><path d="M1.5 15c0 .27.22.5.5.5h8c.27 0 .5-.23.5-.5v-3h-1v2.5h-7v-12h7V7h1V2c0-.28-.23-.5-.5-.5H2c-.28 0-.5.22-.5.5v13Z"/><path d="M13.5 15c0 .27.22.5.5.5h8c.27 0 .5-.23.5-.5V2c0-.28-.23-.5-.5-.5h-8c-.28 0-.5.22-.5.5v5h1V2.5h7v12h-7V12h-1v3Z"/><path d="M13.5 22c0 .27.22.5.5.5h5c.27 0 .5-.23.5-.5v-7c0-.28-.23-.5-.5-.5h-5c-.28 0-.5.22-.5.5v7Zm1-.5v-6h4v6h-4Z"/><path d="M7 12c0 .27.22.5.5.5h9c.27 0 .5-.23.5-.5V7c0-.28-.23-.5-.5-.5h-9c-.28 0-.5.22-.5.5v5Zm1-.5v-4h8v4H8Z"/><path d="M4.5 22c0 .27.22.5.5.5h5c.27 0 .5-.23.5-.5v-7c0-.28-.23-.5-.5-.5H5c-.28 0-.5.22-.5.5v7Zm1-.5v-6h4v6h-4Z"/></g></svg>