<svg viewBox="0 0 24 24" xmlns="http://www.w3.org/2000/svg"><g fill-rule="evenodd"><path d="M14 12c.16 0 .31.08.41.21l1.31 1.91 2.22.65c.15.04.28.16.33.32 .05.15.02.32-.08.45l-1.42 1.83 .06 2.31c0 .16-.08.32-.21.41 -.14.09-.31.12-.47.06l-2.19-.78 -2.19.77c-.16.05-.33.03-.47-.07 -.14-.1-.22-.26-.21-.42l.06-2.32 -1.42-1.84c-.11-.14-.14-.31-.08-.46 .05-.16.17-.28.33-.33l2.22-.66 1.31-1.92c.09-.14.24-.22.41-.22Zm0 1.38l-1 1.45c-.07.09-.17.16-.28.19l-1.7.49 1.07 1.39c.07.09.1.2.1.31l-.05 1.76 1.66-.6c.1-.04.22-.04.33 0l1.66.59 -.05-1.77c-.01-.12.03-.23.1-.32l1.07-1.4 -1.7-.5c-.12-.04-.21-.11-.28-.2l-1-1.46Z"/><path d="M1.61 16.32c-.16-.19-.16-.46 0-.65l5-6c.09-.12.23-.18.38-.18h15c.27 0 .5.22.5.5v12c0 .27-.23.5-.5.5h-15c-.15 0-.29-.07-.39-.18l-5-6Zm5.61 5.17h14.26v-11H7.21l-4.59 5.5 4.58 5.5Z"/><path d="M11.64 1.64c.19-.2.51-.2.7 0l2 2 -.71.7 -1.65-1.65 -1.65 1.64 -.71-.71 2-2Z"/><path d="M11.5 10V2h1v8h-1Z"/><path d="M17.64 3.64c.19-.2.51-.2.7 0l2 2 -.71.7 -1.65-1.65 -1.65 1.64 -.71-.71 2-2Z"/><path d="M17.5 10V4h1v6h-1Z"/><path d="M5.64 3.64c.19-.2.51-.2.7 0l2 2 -.71.7 -1.65-1.65 -1.65 1.64 -.71-.71 2-2Z"/><path d="M5.5 11V4h1v7h-1Z"/></g></svg>