<svg viewBox="0 0 24 24" xmlns="http://www.w3.org/2000/svg"><g fill-rule="evenodd"><path d="M6.64 1.64c.09-.1.22-.15.35-.15h9c.27 0 .5.22.5.5v20c0 .27-.23.5-.5.5h-14c-.28 0-.5-.23-.5-.5v-15c0-.14.05-.26.14-.36l5-5Zm.56.85l-4.71 4.7v14.29h13v-19h-8.3Z"/><path d="M7.19 1.53c.18.07.3.25.3.46v5c0 .27-.23.5-.5.5h-5c-.21 0-.39-.13-.47-.31 -.08-.19-.04-.41.1-.55l5-5c.14-.15.35-.19.54-.11ZM3.2 6.49h3.29v-3.3l-3.3 3.29Z"/><path d="M18.5 7c0-.28.22-.5.5-.5h3c.27 0 .5.22.5.5v8c0 .1-.04.21-.1.3l-1.5 2c-.1.12-.25.2-.4.2 -.16 0-.31-.08-.4-.2l-1.5-2c-.07-.09-.1-.2-.1-.3V7Zm1 .5v7.33l1 1.33 1-1.34V7.48h-2Z"/><path d="M9 11.5c.16 0 .31.08.41.21l1.31 1.91 2.22.65c.15.04.28.16.33.32 .05.15.02.32-.08.45l-1.42 1.83 .06 2.31c0 .16-.08.32-.21.41 -.14.09-.31.12-.47.06l-2.19-.78 -2.19.77c-.16.05-.33.03-.47-.07 -.14-.1-.22-.26-.21-.42l.06-2.32 -1.42-1.84c-.11-.14-.14-.31-.08-.46 .05-.16.17-.28.33-.33l2.223-.66 1.31-1.92c.09-.14.24-.22.41-.22Zm0 1.38l-1 1.45c-.07.09-.17.16-.28.19l-1.7.49 1.07 1.39c.07.09.1.2.1.31l-.05 1.76 1.66-.6c.1-.04.22-.04.33 0l1.66.59 -.05-1.77c-.01-.12.03-.23.1-.32l1.07-1.4 -1.7-.5c-.12-.04-.21-.11-.28-.2l-1-1.46Z"/><path d="M13 10H5V9h8v1Z"/></g></svg>