<svg viewBox="0 0 24 24" xmlns="http://www.w3.org/2000/svg"><g fill-rule="evenodd"><path d="M2.54 7.87c-.62-1.64.59-3.38 2.34-3.38H19.1c1.74 0 2.95 1.74 2.34 3.37l-1.99 5.29c-.08.19-.26.32-.47.32h-5v-1h4.65l1.86-4.98c.36-.99-.36-2.03-1.41-2.03H4.85c-1.05 0-1.78 1.04-1.41 2.02l1.86 4.97h4.65v1H4.94c-.21 0-.4-.13-.47-.33l-1.99-5.3Z"/><path d="M1.5 7c0-1.39 1.11-2.5 2.5-2.5h16c1.38 0 2.5 1.11 2.5 2.5v13c0 1.38-1.12 2.5-2.5 2.5H4c-1.39 0-2.5-1.12-2.5-2.5V7ZM4 5.5c-.83 0-1.5.67-1.5 1.5v13c0 .82.67 1.5 1.5 1.5h16c.82 0 1.5-.68 1.5-1.5V7c0-.83-.68-1.5-1.5-1.5H4Z"/><path d="M8.5 4c0-1.39 1.11-2.5 2.5-2.5h2c1.38 0 2.5 1.11 2.5 2.5v1c0 .27-.23.5-.5.5H9c-.28 0-.5-.23-.5-.5V4ZM11 2.5c-.83 0-1.5.67-1.5 1.5v.5h5V4c0-.83-.68-1.5-1.5-1.5h-2Z"/><path d="M9.5 10c0-.28.22-.5.5-.5h4c.27 0 .5.22.5.5v6c0 .27-.23.5-.5.5h-4c-.28 0-.5-.23-.5-.5v-6Zm1 .5v5h3v-5h-3Z"/></g></svg>