<svg viewBox="0 0 24 24" xmlns="http://www.w3.org/2000/svg"><g fill-rule="evenodd"><path d="M15.5 7c-3.32 0-6 2.68-6 6 0 3.31 2.68 6 6 6 3.31 0 6-2.69 6-6 0-3.32-2.69-6-6-6Zm-7 6c0-3.87 3.13-7 7-7 3.86 0 7 3.13 7 7 0 3.86-3.14 7-7 7 -3.87 0-7-3.14-7-7Z"/><path d="M13 11.75c0-.97.78-1.75 1.75-1.75h2.75v1h-2.75c-.42 0-.75.33-.75.75 0 .41.33.75.75.75h1.5c.96 0 1.75.78 1.75 1.75 0 .96-.79 1.75-1.75 1.75H13.5v-1h2.75c.41 0 .75-.34.75-.75 0-.42-.34-.75-.75-.75h-1.5c-.97 0-1.75-.79-1.75-1.75Z"/><path d="M15 17.5v-2h1v2h-1Z"/><path d="M15 10.5v-2h1v2h-1Z"/><path d="M2 19h13.5v1H2v-1Z"/><path d="M2 16h8v1H2v-1Z"/><path d="M2 13h7v1H2v-1Z"/><path d="M2 10h7.5v1H2v-1Z"/><path d="M2 7h10v1H2V7Z"/><path d="M2 4h13.5v1H2V4Z"/></g></svg>