<svg viewBox="0 0 24 24" xmlns="http://www.w3.org/2000/svg"><g fill-rule="evenodd"><path d="M1.5 2c0-.28.22-.5.5-.5h20c.27 0 .5.22.5.5v16c0 .27-.23.5-.5.5h-9.5V22c0 .19-.12.37-.29.45 -.18.08-.39.05-.54-.07L7 18.49H1.98c-.28 0-.5-.23-.5-.5v-16Zm1 .5v15h4.7c.11 0 .23.04.32.11l3.97 3.31v-2.94c0-.28.22-.5.5-.5h9.5v-15h-19Z"/><path d="M1.5 2c0-.28.22-.5.5-.5h20c.27 0 .5.22.5.5v5c0 .23-.17.44-.41.49l-10 2c-.07.01-.14.01-.2 0l-10-2c-.24-.05-.41-.26-.41-.5v-5Zm1 .5v4.09l9.5 1.9 9.5-1.9v-4.1h-19Z"/></g></svg>