<svg viewBox="0 0 24 24" xmlns="http://www.w3.org/2000/svg"><g fill-rule="evenodd"><path d="M1.75 10.56c.15-.09.34-.09.5 0l9.74 5.84 9.74-5.85c.15-.1.34-.1.5-.01 .15.08.25.25.25.43v11c0 .27-.23.5-.5.5h-20c-.28 0-.5-.23-.5-.5v-11c0-.19.09-.35.25-.44Zm.74 1.31v9.61h19v-9.62l-9.25 5.54c-.16.09-.36.09-.52 0l-9.25-5.55Z"/><path d="M6.5 12c0-.28.22-.5.5-.5h10c.27 0 .5.22.5.5v2h-1v-1.5h-9V14h-1v-2Z"/><path d="M7.5 9c0-.28.22-.5.5-.5h8c.27 0 .5.22.5.5v3h-1V9.5h-7V12h-1V9Z"/><path d="M11.66 1.62c.19-.18.47-.18.66 0l10 9 -.67.74 -9.67-8.7 -9.67 8.69 -.67-.75 9.99-9.01Z"/></g></svg>