<svg viewBox="0 0 24 24" xmlns="http://www.w3.org/2000/svg"><g fill-rule="evenodd"><path d="M17 2.5c-1.94 0-3.5 1.56-3.5 3.5 0 1.93 1.56 3.5 3.5 3.5 1.93 0 3.5-1.57 3.5-3.5 0-1.94-1.57-3.5-3.5-3.5ZM12.5 6c0-2.49 2.01-4.5 4.5-4.5 2.48 0 4.5 2.01 4.5 4.5 0 2.48-2.02 4.5-4.5 4.5 -2.49 0-4.5-2.02-4.5-4.5Z"/><path d="M7 6.5c-1.94 0-3.5 1.56-3.5 3.5 0 1.93 1.56 3.5 3.5 3.5 1.93 0 3.5-1.57 3.5-3.5 0-1.94-1.57-3.5-3.5-3.5ZM2.5 10c0-2.49 2.01-4.5 4.5-4.5 2.48 0 4.5 2.01 4.5 4.5 0 2.48-2.02 4.5-4.5 4.5 -2.49 0-4.5-2.02-4.5-4.5Z"/><path d="M16.5 8V4h1v4h-1Z"/><path d="M6.5 12V8h1v4h-1Z"/><path d="M1.5 22v-4h1v3.5h19V18h1v4c0 .27-.23.5-.5.5H2c-.28 0-.5-.23-.5-.5Z"/><path d="M16.5 19v-9h1v9h-1Z"/><path d="M6.5 19v-5h1v5h-1Z"/><path d="M17 18.29l-2.65-2.65 -.71.7 3 3c.19.19.51.19.7 0l3-3 -.71-.71 -2.65 2.64Z"/><path d="M7 18.29l-2.65-2.65 -.71.7 3 3c.19.19.51.19.7 0l3-3 -.71-.71 -2.65 2.64Z"/></g></svg>