<svg viewBox="0 0 24 24" xmlns="http://www.w3.org/2000/svg"><g fill-rule="evenodd"><path d="M10 2.5c-4.15 0-7.5 3.35-7.5 7.5 0 4.14 3.35 7.5 7.5 7.5 4.14 0 7.5-3.36 7.5-7.5 0-4.15-3.36-7.5-7.5-7.5ZM1.5 10c0-4.7 3.8-8.5 8.5-8.5 4.69 0 8.5 3.8 8.5 8.5 0 4.69-3.81 8.5-8.5 8.5 -4.7 0-8.5-3.81-8.5-8.5Z"/><path d="M15.85 15.14l6.5 6.5 -.71.7 -6.5-6.5 .7-.71Z"/><path d="M10 5.5C8.61 5.5 7.5 6.61 7.5 8c0 .92.5 1.73 1.25 2.16 .15.08.24.25.24.43v1.4h2v-1.41c0-.18.09-.35.24-.44 .74-.44 1.25-1.25 1.25-2.17 0-1.39-1.12-2.5-2.5-2.5ZM6.5 8c0-1.94 1.56-3.5 3.5-3.5 1.93 0 3.5 1.56 3.5 3.5 0 1.18-.6 2.24-1.5 2.87v1.62c0 .27-.23.5-.5.5h-3c-.28 0-.5-.23-.5-.5v-1.63c-.91-.64-1.5-1.69-1.5-2.88Z"/><path d="M8 12c0-.28.22-.5.5-.5h3c.27 0 .5.22.5.5v1.5c0 1.1-.9 2-2 2 -1.11 0-2-.9-2-2V12Zm1 .5v1c0 .55.44 1 1 1 .55 0 1-.45 1-1v-1H9Z"/></g></svg>