<svg viewBox="0 0 24 24" xmlns="http://www.w3.org/2000/svg"><g fill-rule="evenodd"><path d="M11.5 5.5V2h1v3.5h-1Z"/><path d="M18.5 11.5H22v1h-3.5v-1Z"/><path d="M2 11.5h3.5v1H2v-1Z"/><path d="M11.5 22v-3.5h1V22h-1Z"/><path d="M12 4.5c-4.15 0-7.5 3.35-7.5 7.5 0 4.14 3.35 7.5 7.5 7.5 4.14 0 7.5-3.36 7.5-7.5 0-4.15-3.36-7.5-7.5-7.5ZM3.5 12c0-4.7 3.8-8.5 8.5-8.5 4.69 0 8.5 3.8 8.5 8.5 0 4.69-3.81 8.5-8.5 8.5 -4.7 0-8.5-3.81-8.5-8.5Z"/><path d="M9.5 10.75c0-.97.78-1.75 1.75-1.75H14v1h-2.75c-.42 0-.75.33-.75.75 0 .41.33.75.75.75h1.5c.96 0 1.75.78 1.75 1.75 0 .96-.79 1.75-1.75 1.75H10v-1h2.75c.41 0 .75-.34.75-.75 0-.42-.34-.75-.75-.75h-1.5c-.97 0-1.75-.79-1.75-1.75Z"/><path d="M11.5 16.5v-2h1v2h-1Z"/><path d="M11.5 9.5v-2h1v2h-1Z"/></g></svg>