<svg viewBox="0 0 24 24" xmlns="http://www.w3.org/2000/svg"><g fill-rule="evenodd"><path d="M6.64 5.64c.09-.1.22-.15.35-.15h5v1h-4.8L5.33 8.34c-.1.09-.23.14-.36.14h-2.5v6h3.5c.13 0 .25.05.35.14l2.85 2.85h6.58l1.5-1.5 -5.65-5.65 .7-.71 6 5.99c.19.19.19.51 0 .7l-2 2c-.1.09-.23.14-.36.14h-7c-.14 0-.26-.06-.36-.15l-2.86-2.86h-3.8c-.28 0-.5-.23-.5-.5v-7c0-.28.22-.5.5-.5h2.79l1.85-1.86Z"/><path d="M11.64 5.64c.09-.1.22-.15.35-.15h3c.13 0 .25.05.35.14l1.85 1.85h4.79c.27 0 .5.22.5.5v7c0 .27-.23.5-.5.5h-5v-1h4.5v-6h-4.5c-.14 0-.26-.06-.36-.15l-1.86-1.86h-2.59L9.81 8.82c-.36.35-.36.93 0 1.29 .35.35.93.35 1.29 0l2-2 .7.7 -2 2c-.75.74-1.96.74-2.71 0 -.75-.75-.75-1.96 0-2.71l2.5-2.5Z"/></g></svg>