<svg viewBox="0 0 24 24" xmlns="http://www.w3.org/2000/svg"><g fill-rule="evenodd"><path d="M8 19c0 .27.22.5.5.5h7c.27 0 .5-.23.5-.5v-3.66c2.1-1.33 3.5-3.68 3.5-6.35 0-4.15-3.36-7.5-7.5-7.5 -4.15 0-7.5 3.35-7.5 7.5 0 2.67 1.39 5.01 3.5 6.34v3.65Zm1-.5v-3.44c0-.18-.1-.35-.25-.44 -1.95-1.13-3.26-3.23-3.26-5.64 0-3.59 2.91-6.5 6.5-6.5 3.58 0 6.5 2.91 6.5 6.5 0 2.4-1.31 4.5-3.26 5.63 -.16.08-.25.25-.25.43v3.43h-6Z"/><path d="M16 22.5H8v-1h8v1Z"/><path d="M12 12.29L9.35 9.64l-.71.7 2.85 2.85v5.79h1v-5.8l2.85-2.86 -.71-.71 -2.65 2.64Z"/></g></svg>