<svg viewBox="0 0 24 24" xmlns="http://www.w3.org/2000/svg"><g fill-rule="evenodd"><path d="M12 2.5c-3.32 0-6 2.68-6 6 0 3.31 2.68 6 6 6 3.31 0 6-2.69 6-6 0-3.32-2.69-6-6-6Zm-7 6c0-3.87 3.13-7 7-7 3.86 0 7 3.13 7 7 0 3.86-3.14 7-7 7 -3.87 0-7-3.14-7-7Z"/><path d="M9.5 7.25c0-.97.78-1.75 1.75-1.75H14v1h-2.75c-.42 0-.75.33-.75.75 0 .41.33.75.75.75h1.5c.96 0 1.75.78 1.75 1.75 0 .96-.79 1.75-1.75 1.75H10v-1h2.75c.41 0 .75-.34.75-.75 0-.42-.34-.75-.75-.75h-1.5c-.97 0-1.75-.79-1.75-1.75Z"/><path d="M11.5 13v-2h1v2h-1Z"/><path d="M11.5 6V4h1v2h-1Z"/><path d="M11.5 21c0-1.94 1.56-3.5 3.5-3.5h4c.27 0 .5.22.5.5v1c0 1.93-1.57 3.5-3.5 3.5h-4c-.28 0-.5-.23-.5-.5v-1Zm3.5-2.5c-1.39 0-2.5 1.11-2.5 2.5v.5H16c1.38 0 2.5-1.12 2.5-2.5v-.5H15Z"/><path d="M12.5 21c0-1.94-1.57-3.5-3.5-3.5H5c-.28 0-.5.22-.5.5v1c0 1.93 1.56 3.5 3.5 3.5h4c.27 0 .5-.23.5-.5v-1ZM9 18.5c1.38 0 2.5 1.11 2.5 2.5v.5H8c-1.39 0-2.5-1.12-2.5-2.5v-.5H9Z"/><path d="M12.5 15v7h-1v-7h1Z"/></g></svg>