<svg viewBox="0 0 24 24" xmlns="http://www.w3.org/2000/svg"><g fill-rule="evenodd"><path d="M3.02 1.84c.06-.21.25-.35.47-.35h15c.21 0 .4.13.47.34l1.5 4.5c.01.05.02.1.02.15 0 1.93-1.57 3.5-3.5 3.5 -1.28 0-2.39-.68-3-1.7 -.62 1.01-1.73 1.69-3 1.69 -1.28 0-2.39-.68-3-1.7 -.62 1.01-1.73 1.69-3 1.69 -1.94 0-3.5-1.57-3.5-3.5 0-.06 0-.11.02-.16L3 1.8Zm5.47 4.65c0 1.38 1.11 2.5 2.5 2.5 1.38 0 2.5-1.12 2.5-2.5 0-.28.22-.5.5-.5 .27 0 .5.22.5.5 0 1.38 1.11 2.5 2.5 2.5 1.35 0 2.45-1.08 2.49-2.43l-1.36-4.08H3.84L2.48 6.55c.04 1.34 1.14 2.42 2.49 2.42 1.38 0 2.5-1.12 2.5-2.5 0-.28.22-.5.5-.5 .27 0 .5.22.5.5Z"/><path d="M3.5 18.5V9h-1v10c0 .27.22.5.5.5h9.5v-1h-9Zm15-6V9h1v3.5h-1Z"/><path d="M19.35 18.64l3 3 -.71.7 -3-3 .7-.71Z"/><path d="M16 12c-2.21 0-4 1.79-4 4 0 2.2 1.79 4 4 4 2.2 0 4-1.8 4-4 0-2.21-1.8-4-4-4Zm-5 4c0-2.77 2.23-5 5-5 2.76 0 5 2.23 5 5 0 2.76-2.24 5-5 5 -2.77 0-5-2.24-5-5Z"/></g></svg>