<svg viewBox="0 0 24 24" xmlns="http://www.w3.org/2000/svg"><g fill-rule="evenodd"><path d="M8 19c0 .27.22.5.5.5h7c.27 0 .5-.23.5-.5v-3.66c2.1-1.33 3.5-3.68 3.5-6.35 0-4.15-3.36-7.5-7.5-7.5 -4.15 0-7.5 3.35-7.5 7.5 0 2.67 1.39 5.01 3.5 6.34v3.65Zm1-.5v-3.44c0-.18-.1-.35-.25-.44 -1.95-1.13-3.26-3.23-3.26-5.64 0-3.59 2.91-6.5 6.5-6.5 3.58 0 6.5 2.91 6.5 6.5 0 2.4-1.31 4.5-3.26 5.63 -.16.08-.25.25-.25.43v3.43h-6Z"/><path d="M16 22.5H8v-1h8v1Z"/><path d="M12 7.5c-.83 0-1.5.67-1.5 1.5 0 .82.67 1.5 1.5 1.5 .82 0 1.5-.68 1.5-1.5 0-.83-.68-1.5-1.5-1.5ZM9.5 9c0-1.39 1.11-2.5 2.5-2.5 1.38 0 2.5 1.11 2.5 2.5 0 1.38-1.12 2.5-2.5 2.5 -1.39 0-2.5-1.12-2.5-2.5Z"/><path d="M12.5 5v2h-1V5h1Z"/><path d="M12.5 11v2h-1v-2h1Z"/><path d="M9.52 5.81l1.41 1.41 -.71.7L8.8 6.5l.7-.71Z"/><path d="M14.47 5.81l-1.42 1.41 .7.7 1.41-1.42 -.71-.71Z"/><path d="M13.76 10.06l1.41 1.41 -.71.7 -1.42-1.42 .7-.71Z"/><path d="M10.23 10.06l-1.42 1.41 .7.7 1.41-1.42 -.71-.71Z"/><path d="M8 8.5h2v1H8v-1Z"/><path d="M14 8.5h2v1h-2v-1Z"/></g></svg>