<svg viewBox="0 0 24 24" xmlns="http://www.w3.org/2000/svg"><g fill-rule="evenodd"><path d="M22 22.5H2v-1h20v1Z"/><path d="M4.5 2c0-.28.22-.5.5-.5h14c.27 0 .5.22.5.5v20c0 .27-.23.5-.5.5H5c-.28 0-.5-.23-.5-.5V2Zm1 .5v19h13v-19h-13Z"/><path d="M7 5c0-.28.22-.5.5-.5h3c.27 0 .5.22.5.5v3c0 .27-.23.5-.5.5h-3c-.28 0-.5-.23-.5-.5V5Zm1 .5v2h2v-2H8Z"/><path d="M7 11c0-.28.22-.5.5-.5h3c.27 0 .5.22.5.5v3c0 .27-.23.5-.5.5h-3c-.28 0-.5-.23-.5-.5v-3Zm1 .5v2h2v-2H8Z"/><path d="M13 5c0-.28.22-.5.5-.5h3c.27 0 .5.22.5.5v3c0 .27-.23.5-.5.5h-3c-.28 0-.5-.23-.5-.5V5Zm1 .5v2h2v-2h-2Z"/><path d="M13 11c0-.28.22-.5.5-.5h3c.27 0 .5.22.5.5v3c0 .27-.23.5-.5.5h-3c-.28 0-.5-.23-.5-.5v-3Zm1 .5v2h2v-2h-2Z"/><path d="M10 18c0-.28.22-.5.5-.5h3c.27 0 .5.22.5.5v4c0 .27-.23.5-.5.5h-3c-.28 0-.5-.23-.5-.5v-4Zm1 .5v3h2v-3h-2Z"/></g></svg>