<svg viewBox="0 0 24 24" xmlns="http://www.w3.org/2000/svg"><g fill-rule="evenodd"><path d="M21.5 12v-2h1v2c0 .82-.68 1.5-1.5 1.5h-1v-1h1c.27 0 .5-.23.5-.5Z"/><path d="M5.76 4.55c.16-.09.35-.08.51.02l3 2c.13.09.22.24.22.41v.5h5.5c3.03 0 5.5 2.46 5.5 5.5 0 2.13-1.22 3.99-3 4.9v1.09c0 .27-.23.5-.5.5h-3c-.28 0-.5-.23-.5-.5v-.5h-3v.5c0 .27-.23.5-.5.5h-3c-.28 0-.5-.23-.5-.5v-1.1c-1.04-.53-1.88-1.37-2.41-2.41h-2.1c-.28 0-.5-.23-.5-.5v-4c0-.28.22-.5.5-.5h2.09c.34-.68.82-1.27 1.4-1.75V4.95c0-.19.1-.36.26-.45Zm3.73 13.94v-.5c0-.28.22-.5.5-.5h4c.27 0 .5.22.5.5v.5h2v-.92c0-.2.11-.38.29-.46 1.59-.7 2.7-2.29 2.7-4.13 0-2.49-2.02-4.5-4.5-4.5h-6c-.28 0-.5-.23-.5-.5v-.74l-2-1.34v3.06c0 .15-.08.3-.2.39 -.62.46-1.12 1.08-1.43 1.8 -.08.18-.26.29-.46.29H2.47v3h1.91c.19 0 .37.11.45.29 .45 1.03 1.28 1.87 2.32 2.32 .18.07.29.25.29.45v.91h2Z"/><path d="M15 11.5h-5v-1h5v1Z"/></g></svg>