<svg viewBox="0 0 24 24" xmlns="http://www.w3.org/2000/svg"><g fill-rule="evenodd"><path d="M11.16 14.65c-.19-.28-.55-.36-.83-.2l-4.85 2.82v3.71h10.31l4.63-3.86c.43-.37.46-1.02.06-1.42 -.34-.34-.85-.38-1.24-.11l-4 2.79c-.09.05-.19.09-.29.09h-5c-.19 0-.36-.11-.45-.27 -.09-.17-.08-.36.02-.52l1.58-2.38c.13-.21.13-.49 0-.69Zm-1.34-1.06c.74-.44 1.68-.22 2.16.5 .36.54.36 1.25 0 1.79l-1.07 1.6h3.9l3.86-2.71c.78-.55 1.83-.46 2.51.22 .81.81.75 2.15-.14 2.89l-4.77 3.97c-.09.07-.21.11-.33.11h-11c-.28 0-.5-.23-.5-.5v-4.5c0-.18.09-.35.24-.44l5.08-2.97Z"/><path d="M1.5 15.5c0-.28.22-.5.5-.5h3c.27 0 .5.22.5.5V22c0 .27-.23.5-.5.5H2c-.28 0-.5-.23-.5-.5v-6.5Zm1 .5v5.5h2V16h-2Z"/><path d="M9 3.5c0-1.11.89-2 2-2 1.1 0 2 .89 2 2h1.5c.27 0 .5.22.5.5v1.5c1.1 0 2 .89 2 2 0 1.1-.9 2-2 2V11c0 .27-.23.5-.5.5h-7c-.28 0-.5-.23-.5-.5V4c0-.28.22-.5.5-.5H9Zm2-1c-.56 0-1 .44-1 1 0 .11.02.22.05.33 .05.15.03.32-.07.45s-.25.21-.41.21H7.98v6h6V8.9c0-.17.07-.32.21-.41 .13-.1.3-.12.45-.07 .1.03.21.05.33.05 .55 0 1-.45 1-1 0-.56-.45-1-1-1 -.12 0-.23.02-.34.05 -.16.05-.33.03-.46-.07 -.14-.1-.22-.25-.22-.41V4.45h-1.59c-.17 0-.32-.08-.41-.22 -.1-.14-.12-.31-.07-.46 .03-.11.05-.22.05-.34 0-.56-.45-1-1-1Z"/></g></svg>