<svg viewBox="0 0 24 24" xmlns="http://www.w3.org/2000/svg"><g fill-rule="evenodd"><path d="M18.5 5c-.83 0-1.5.67-1.5 1.5 0 .82.67 1.5 1.5 1.5 .82 0 1.5-.68 1.5-1.5 0-.83-.68-1.5-1.5-1.5ZM16 6.5C16 5.11 17.11 4 18.5 4 19.88 4 21 5.11 21 6.5 21 7.88 19.88 9 18.5 9 17.11 9 16 7.88 16 6.5Z"/><path d="M5.5 5C4.67 5 4 5.67 4 6.5 4 7.32 4.67 8 5.5 8 6.32 8 7 7.32 7 6.5 7 5.67 6.32 5 5.5 5ZM3 6.5C3 5.11 4.11 4 5.5 4 6.88 4 8 5.11 8 6.5 8 7.88 6.88 9 5.5 9 4.11 9 3 7.88 3 6.5Z"/><path d="M12 5c-.83 0-1.5.67-1.5 1.5 0 .82.67 1.5 1.5 1.5 .82 0 1.5-.68 1.5-1.5 0-.83-.68-1.5-1.5-1.5ZM9.5 6.5C9.5 5.11 10.61 4 12 4c1.38 0 2.5 1.11 2.5 2.5C14.5 7.88 13.38 9 12 9c-1.39 0-2.5-1.12-2.5-2.5Z"/><path d="M12 11c-1.62 0-3 1.45-3 3.35v4.64h6v-4.65c0-1.91-1.39-3.36-3-3.36Zm-4 3.35c0-2.36 1.74-4.36 4-4.36 2.25 0 4 1.99 4 4.35v5.14c0 .27-.23.5-.5.5h-7c-.28 0-.5-.23-.5-.5v-5.15Z"/><path d="M5.5 11c-1.62 0-3 1.45-3 3.35v4.64H9v1H2c-.28 0-.5-.23-.5-.5v-5.15c0-2.36 1.74-4.36 4-4.36 1.74 0 3.19 1.2 3.75 2.83l-.95.32c-.44-1.29-1.55-2.17-2.81-2.17Z"/><path d="M18.5 11c1.61 0 3 1.45 3 3.35v4.64H15v1h7c.27 0 .5-.23.5-.5v-5.15c0-2.36-1.75-4.36-4-4.36 -1.75 0-3.2 1.2-3.76 2.83l.94.32c.43-1.29 1.54-2.17 2.8-2.17Z"/></g></svg>