<svg viewBox="0 0 24 24" xmlns="http://www.w3.org/2000/svg"><g fill-rule="evenodd"><path d="M11.99 5.5c.16 0 .31.08.41.21l.95 1.39 1.62.47c.15.04.28.16.33.32 .05.15.02.32-.08.45l-1.04 1.34 .04 1.69c0 .16-.08.32-.21.41 -.14.09-.31.12-.47.06l-1.6-.57 -1.6.56c-.16.05-.33.03-.47-.07 -.14-.1-.22-.26-.21-.42l.04-1.7 -1.04-1.35c-.11-.14-.14-.31-.08-.46 .05-.16.17-.28.33-.33l1.62-.48 .95-1.4c.09-.14.24-.22.41-.22Zm0 1.38l-.65.94c-.07.09-.17.16-.28.19l-1.1.32 .69.9c.07.09.1.2.1.31l-.04 1.14 1.07-.39c.1-.04.22-.04.33 0l1.07.38 -.04-1.15c-.01-.12.03-.23.1-.32l.69-.91 -1.1-.33c-.12-.04-.21-.11-.28-.2l-.65-.95Z"/><path d="M4.5 2c0-.28.22-.5.5-.5h14c.27 0 .5.22.5.5v10c0 2.48-2.02 4.5-4.5 4.5H9c-2.49 0-4.5-2.02-4.5-4.5V2Zm1 .5V12c0 1.93 1.56 3.5 3.5 3.5h6c1.93 0 3.5-1.57 3.5-3.5V2.5h-13Z"/><path d="M11.5 19v-3h1v3h-1Z"/><path d="M1.5 5c0-1.39 1.11-2.5 2.5-2.5h1c.27 0 .5.22.5.5v6c0 .27-.23.5-.5.5H4C2.61 9.5 1.5 8.38 1.5 7V5ZM4 3.5c-.83 0-1.5.67-1.5 1.5v2c0 .82.67 1.5 1.5 1.5h.5v-5H4Z"/><path d="M22.5 5c0-1.39-1.12-2.5-2.5-2.5h-1c-.28 0-.5.22-.5.5v6c0 .27.22.5.5.5h1c1.38 0 2.5-1.12 2.5-2.5V5ZM20 3.5c.82 0 1.5.67 1.5 1.5v2c0 .82-.68 1.5-1.5 1.5h-.5v-5h.5Z"/><path d="M6.5 19c0-.28.22-.5.5-.5h10c.27 0 .5.22.5.5v3c0 .27-.23.5-.5.5H7c-.28 0-.5-.23-.5-.5v-3Zm1 .5v2h9v-2h-9Z"/></g></svg>