<svg viewBox="0 0 24 24" xmlns="http://www.w3.org/2000/svg"><g fill-rule="evenodd"><path d="M1 11c0-.56.44-1 1-1h20c.55 0 1 .44 1 1v4c0 2.76-2.24 5-5 5H6c-2.77 0-5-2.24-5-5v-4Zm2 1v3c0 1.65 1.34 3 3 3h12c1.65 0 3-1.35 3-3v-3H3Z"/><path d="M4 19c0-.56.44-1 1-1h4c.55 0 1 .44 1 1v1.5c0 1.1-.9 2-2 2H6c-1.11 0-2-.9-2-2V19Zm2 1v.5h2V20H6Z"/><path d="M14.5 19c0-.56.44-1 1-1h4c.55 0 1 .44 1 1v1.5c0 1.1-.9 2-2 2h-2c-1.11 0-2-.9-2-2V19Zm2 1v.5h2V20h-2Z"/><path d="M1 9c0-3.87 3.13-7 7-7h2c.55 0 1 .44 1 1v8c0 .55-.45 1-1 1H2c-.56 0-1-.45-1-1V9Zm7-5C5.23 4 3 6.23 3 9v1h6V4H8Z"/><path d="M4 11c0 1.1.89 2 2 2 1.1 0 2-.9 2-2h2c0 2.2-1.8 4-4 4 -2.21 0-4-1.8-4-4h2Z"/><path d="M10 11c0 1.1.89 2 2 2 1.1 0 2-.9 2-2h2c0 2.2-1.8 4-4 4 -2.21 0-4-1.8-4-4h2Z"/><path d="M16 11c0 1.1.89 2 2 2 1.1 0 2-.9 2-2h2c0 2.2-1.8 4-4 4 -2.21 0-4-1.8-4-4h2Z"/></g></svg>