<svg viewBox="0 0 24 24" xmlns="http://www.w3.org/2000/svg"><g fill-rule="evenodd"><path d="M6.99 3.71C7.84 2.04 9.56.99 11.43.99h1.112c1.87 0 3.59 1.04 4.44 2.71l1.13 2.21c.12.24.28.46.46.66l3.06 3.32c.85.92 1.32 2.13 1.32 3.39v3.33c0 .69-.15 1.39-.44 2.03l-.6 1.34c-.81 1.8-2.6 2.96-4.57 2.96H6.54c-1.98 0-3.77-1.17-4.57-2.97l-.6-1.35c-.29-.64-.44-1.34-.44-2.04v-3.34c0-1.26.47-2.47 1.32-3.4l3.06-3.33c.18-.2.34-.43.46-.67L6.9 3.62Zm4.44-.72c-1.13 0-2.16.62-2.67 1.63L7.62 6.83c-.21.4-.47.77-.78 1.1l-3.07 3.32c-.52.55-.8 1.28-.8 2.03v3.33c0 .41.08.83.25 1.21l.59 1.34c.48 1.08 1.55 1.78 2.74 1.78h10.8c1.18 0 2.25-.7 2.74-1.79l.59-1.35c.17-.39.25-.8.25-1.22v-3.34c0-.76-.29-1.49-.8-2.04l-3.07-3.33c-.31-.34-.57-.71-.78-1.11l-1.14-2.22c-.52-1.01-1.55-1.64-2.67-1.64h-1.112Z"/><path d="M16.99 19.03c-3.03-2.02-6.97-2.02-9.99 0l-.46.3 -1.11-1.67 .45-.31c3.69-2.47 8.5-2.47 12.2 0l.45.3 -1.11 1.66 -.46-.31Z"/><path d="M17.5 12c-1.66 0-3 1.34-3 3v1.23h-2v-1.24c0-2.77 2.23-5 5-5h.5v2h-.5Z"/><path d="M6.5 12c1.65 0 3 1.34 3 3v1.23h2v-1.24c0-2.77-2.24-5-5-5H6v2h.5Z"/></g></svg>