<svg viewBox="0 0 24 24" xmlns="http://www.w3.org/2000/svg"><g fill-rule="evenodd"><path d="M6.06 9.56l11.87-.01c.66 0 1.29.26 1.76.73l3 3c.39.39.39 1.02 0 1.41l-2.13 2.12c-.19.18-.45.29-.71.29 -.27 0-.52-.11-.71-.3l-2.27-2.27H7.06l-2.27 2.26c-.4.39-1.03.39-1.42 0l-2.13-2.13c-.4-.4-.4-1.03-.001-1.42l3-3c.46-.47 1.1-.74 1.76-.74Zm11.87 2H6.05c-.14 0-.26.05-.36.14l-2.3 2.29 .7.7 1.85-1.86c.18-.19.44-.3.7-.3h10.636c.26 0 .51.1.7.29l1.85 1.85 .7-.71 -2.3-2.3c-.1-.1-.23-.15-.36-.15Z"/><path d="M4 19v-3.5h2V18h1v-1c0-.56.44-1 1-1h8c.55 0 1 .44 1 1v1h1v-2.5h2V19c0 .55-.45 1-1 1h-3c-.56 0-1-.45-1-1v-1H9v1c0 .55-.45 1-1 1H5c-.56 0-1-.45-1-1Z"/><path d="M4.5 5c0-.56.44-1 1-1h13c.55 0 1 .44 1 1v5.5h-2V6h-11v4.5h-2V5Z"/></g></svg>