<svg viewBox="0 0 24 24" xmlns="http://www.w3.org/2000/svg"><g fill-rule="evenodd"><path d="M1 7c0-.56.44-1 1-1h14c.55 0 1 .44 1 1v14c0 .55-.45 1-1 1H2c-.56 0-1-.45-1-1V7Zm2 1v12h12V8H3Z"/><path d="M7.44 2.16c.16-.11.35-.17.55-.17h14c.44 0 .82.28.95.71 .12.42-.04.87-.41 1.12l-6 4c-.17.1-.36.16-.56.16h-14c-.45 0-.83-.29-.96-.72s.03-.88.4-1.13l6-4Zm.85 1.83l-3 2h10.39l3-2H8.28Z"/><path d="M22.47 2.11c.32.17.52.51.52.88v14c0 .33-.17.64-.45.83l-6 4c-.31.2-.71.22-1.03.04 -.33-.18-.53-.52-.53-.89v-14c0-.34.16-.65.44-.84l6-4c.3-.21.7-.23 1.02-.05Zm-5.48 5.41v11.59l4-2.67V4.84l-4 2.66Z"/></g></svg>