<svg viewBox="0 0 24 24" xmlns="http://www.w3.org/2000/svg"><g fill-rule="evenodd"><path d="M5.37 7.6c-1.71.85-2.38 1.84-2.38 2.64 0 .57.32 1.23 1.18 1.9 .84.66 2.11 1.24 3.68 1.62l-.48 1.94c-1.77-.43-3.32-1.11-4.45-2C1.78 12.81.96 11.63.96 10.22c0-1.97 1.56-3.48 3.48-4.43 1.97-.99 4.63-1.58 7.51-1.58s5.54.58 7.51 1.57c1.91.95 3.48 2.46 3.48 4.42 0 1.4-.83 2.59-1.96 3.47 -1.14.88-2.69 1.56-4.45 1.99l-.48-1.95c1.57-.39 2.84-.97 3.68-1.63 .85-.67 1.18-1.34 1.18-1.91 0-.8-.68-1.79-2.38-2.65 -1.65-.83-3.99-1.36-6.63-1.36 -2.64 0-4.99.53-6.63 1.35Z"/><path d="M2 9.25c.55 0 1 .44 1 1v4c0 .56.32 1.21 1.14 1.87 .82.65 2.05 1.23 3.59 1.62 .53.13.86.67.72 1.21 -.14.53-.68.86-1.22.72 -1.73-.44-3.25-1.12-4.36-2C1.76 16.79.96 15.62.96 14.23v-4c0-.56.44-1 1-1Zm20 0c.55 0 1 .44 1 1v4c0 1.38-.8 2.55-1.91 3.43 -1.11.88-2.63 1.56-4.36 1.99 -.54.13-1.08-.19-1.22-.73 -.14-.54.18-1.08.72-1.22 1.53-.39 2.77-.97 3.59-1.63 .82-.66 1.14-1.32 1.14-1.88v-4c0-.56.44-1 1-1Z"/><path d="M11.29 9.54c.39-.4 1.02-.4 1.41 0l4.5 4.5c.18.18.29.44.29.7v4c0 .55-.45 1-1 1 -.56 0-1-.45-1-1v-3.59l-3.5-3.5 -3.5 3.5v3.58c0 .55-.45 1-1 1 -.56 0-1-.45-1-1v-4c0-.27.1-.52.29-.71l4.5-4.51Z"/><path d="M11.29 13.54c.39-.4 1.02-.4 1.41 0l4.5 4.5c.39.39.39 1.02 0 1.41 -.4.39-1.03.39-1.42 0l-3.8-3.8 -3.8 3.79c-.4.39-1.03.39-1.42 0 -.4-.4-.4-1.03 0-1.42l4.5-4.5Z"/></g></svg>