<svg viewBox="0 0 24 24" xmlns="http://www.w3.org/2000/svg"><g fill-rule="evenodd"><path d="M16.5 1c.34 0 .67.18.85.47l5.5 8.99c.18.3.19.69.01 1.01 -.18.31-.52.51-.88.51h-11c-.37 0-.7-.2-.88-.52 -.18-.32-.17-.702.01-1.02l5.5-9c.18-.3.5-.48.85-.48Zm0 2.91l-3.72 6.08h7.43L16.49 3.9Z"/><path d="M8.33 12c.26-.01.51.1.7.29l2.64 2.62c.18.18.29.44.29.7l.01 3.72c0 .26-.11.51-.3.7l-2.63 2.64c-.19.18-.45.29-.71.29l-3.73.01c-.27 0-.52-.11-.71-.3l-2.65-2.63c-.19-.19-.3-.45-.3-.71L.92 15.6c-.01-.27.1-.52.29-.71l2.62-2.65c.18-.19.44-.3.7-.3l3.72-.02Zm-3.3 2.013l-2.04 2.05 .01 2.89 2.05 2.03 2.89-.02 2.03-2.06 -.02-2.9 -2.06-2.04 -2.9.01Z"/></g></svg>