<svg viewBox="0 0 24 24" xmlns="http://www.w3.org/2000/svg"><g fill="#ECEFF1"><path d="M3 1.25c-.97 0-1.75.78-1.75 1.75v18c0 .96.78 1.75 1.75 1.75h6c2.07 0 3.75-1.68 3.75-3.75V5c0-2.08-1.68-3.75-3.75-3.75H3Z"/><path d="M15 1.25c-2.08 0-3.75 1.67-3.75 3.75v14c0 2.07 1.67 3.75 3.75 3.75h6c.96 0 1.75-.79 1.75-1.75V3c0-.97-.79-1.75-1.75-1.75h-6Z"/></g><g fill="#FFC44D" fill-rule="evenodd"><path d="M4.91 10.33c0-1.16.93-2.09 2.08-2.09h2c.41 0 .75.33.75.75 0 .41-.34.75-.75.75h-2c-.33 0-.59.26-.59.58 0 .18.08.35.23.46l1.6 1.2c.52.39.83 1.01.83 1.66 0 1.15-.94 2.08-2.09 2.08h-2c-.42 0-.75-.34-.75-.75 0-.42.33-.75.75-.75h2c.32 0 .58-.27.58-.59 0-.19-.09-.36-.24-.47l-1.6-1.2c-.53-.4-.84-1.02-.84-1.67Z"/><path d="M7 14.25c.41 0 .75.33.75.75v2c0 .41-.34.75-.75.75 -.42 0-.75-.34-.75-.75v-2c0-.42.33-.75.75-.75Z"/><path d="M7 6.25c.41 0 .75.33.75.75v2c0 .41-.34.75-.75.75 -.42 0-.75-.34-.75-.75V7c0-.42.33-.75.75-.75Z"/><g fill="#8B98A6"><path d="M14.25 8c0-.42.33-.75.75-.75h4c.41 0 .75.33.75.75 0 .41-.34.75-.75.75h-4c-.42 0-.75-.34-.75-.75Z"/><path d="M14.25 12c0-.42.33-.75.75-.75h4c.41 0 .75.33.75.75 0 .41-.34.75-.75.75h-4c-.42 0-.75-.34-.75-.75Z"/><path d="M14.25 16c0-.42.33-.75.75-.75h4c.41 0 .75.33.75.75 0 .41-.34.75-.75.75h-4c-.42 0-.75-.34-.75-.75Z"/></g></g></svg>