<svg viewBox="0 0 24 24" xmlns="http://www.w3.org/2000/svg"><path fill="#FF884D" d="M10 14.25c-.42 0-.75.33-.75.75v4c0 .41.33.75.75.75h4c.41 0 .75-.34.75-.75v-4c0-.42-.34-.75-.75-.75h-4Z"/><path fill="#FFC44D" d="M10.44 18.25c-1.19 0-2.24.75-2.61 1.88l-.55 1.63c-.08.22-.04.48.1.67 .14.19.36.31.6.31h7.99c.24 0 .47-.13.61-.33 .14-.21.17-.47.08-.7L16.02 20c-.41-1.08-1.43-1.79-2.58-1.79h-3.05Z"/><g fill="#FF884D" fill-rule="evenodd"><path d="M1.25 5c0-.42.33-.75.75-.75h4c.41 0 .75.33.75.75v7c0 .23-.11.44-.29.59 -.19.14-.42.19-.65.13l-2.49-.63c-1.23-.31-2.09-1.41-2.09-2.67V4.98Zm1.5.75v3.68c0 .57.39 1.07.94 1.21l1.55.38V5.73h-2.5Z"/><path d="M22.75 5c0-.42-.34-.75-.75-.75h-4c-.42 0-.75.33-.75.75v7c0 .23.1.44.28.59 .18.14.41.19.64.13l2.48-.63c1.22-.31 2.08-1.41 2.08-2.67V4.98Zm-1.5.75v3.68c0 .57-.4 1.07-.95 1.21l-1.56.38V5.73h2.5Z"/></g><path fill="#FFC44D" d="M6 1.25c-.42 0-.75.33-.75.75v9c0 2.62 2.12 4.75 4.75 4.75h4c2.62 0 4.75-2.13 4.75-4.75V2c0-.42-.34-.75-.75-.75H6Z"/><path fill="#ECEFF1" d="M12 5.25c-1.52 0-2.75 1.23-2.75 2.75 0 1.51 1.23 2.75 2.75 2.75 1.51 0 2.75-1.24 2.75-2.75 0-1.52-1.24-2.75-2.75-2.75Z"/></svg>