<svg viewBox="0 0 24 24" xmlns="http://www.w3.org/2000/svg"><path fill="#4DC4FF" d="M8 15.25c-.42 0-.75.33-.75.75v6c0 .25.13.5.35.63 .22.13.49.14.72.03l3.66-1.84 3.66 1.83c.23.11.5.1.72-.04 .22-.14.35-.38.35-.64v-6c0-.42-.34-.75-.75-.75h-8Z"/><path fill="#5E94FF" d="M12 2.25c-4.29 0-7.75 3.46-7.75 7.75 0 4.28 3.46 7.75 7.75 7.75 4.28 0 7.75-3.47 7.75-7.75 0-4.29-3.47-7.75-7.75-7.75Z"/><path fill="#ECEFF1" d="M12.71 5.76c-.11-.31-.39-.52-.72-.52 -.33 0-.62.2-.72.51l-.73 2.24H8.17c-.33 0-.62.2-.72.51 -.11.3 0 .64.27.83l1.91 1.38 -.73 2.24c-.11.3 0 .64.27.83 .26.19.61.19.88 0l1.91-1.39 1.91 1.38c.26.19.61.19.88 0 .26-.2.37-.53.27-.84l-.73-2.25 1.91-1.39c.26-.2.37-.53.27-.84 -.11-.31-.39-.52-.72-.52h-2.37l-.73-2.25Z"/></svg>