<svg viewBox="0 0 24 24" xmlns="http://www.w3.org/2000/svg"><path fill="#ECEFF1" d="M6.75 4C5.23 4 4 5.23 4 6.75v13c0 1.51 1.23 2.75 2.75 2.75h10c1.51 0 2.75-1.24 2.75-2.75v-13C19.5 5.23 18.26 4 16.75 4h-10Z"/><path fill="#5E94FF" d="M12 12.25c-1.43 0-2.66.79-3.3 1.95 -.37.66-.22 1.36.19 1.83 .38.44.97.7 1.59.7h3c.61 0 1.21-.27 1.59-.71 .4-.48.56-1.17.19-1.84 -.64-1.17-1.88-1.96-3.3-1.96Z"/><g fill="#8B98A6" fill-rule="evenodd"><path d="M8.25 19c0-.42.33-.75.75-.75h6c.41 0 .75.33.75.75 0 .41-.34.75-.75.75H9c-.42 0-.75-.34-.75-.75Z"/><path d="M12 1.25c.41 0 .75.33.75.75v5c0 .41-.34.75-.75.75 -.42 0-.75-.34-.75-.75V2c0-.42.33-.75.75-.75Z"/></g><path fill="#4DC4FF" d="M12 9.25c-1.25 0-2.25 1-2.25 2.25 0 1.24 1 2.25 2.25 2.25 1.24 0 2.25-1.01 2.25-2.25 0-1.25-1.01-2.25-2.25-2.25Z"/></svg>