<svg viewBox="0 0 24 24" xmlns="http://www.w3.org/2000/svg"><path fill="#CFD8DC" d="M18.24 1.49c-.86-.52-1.94-.2-2.41.65l-1 1.79c-.2.35-.08.8.27 1l2.59 1.55c.17.1.38.13.57.08 .19-.06.36-.19.46-.36l.99-1.8c.46-.84.2-1.93-.64-2.43l-.87-.52Z"/><path fill="#ECEFF1" d="M2 8.25c-.42 0-.75.33-.75.75v13c0 .41.33.75.75.75h20c.41 0 .75-.34.75-.75V9c0-.42-.34-.75-.75-.75H2Z"/><g fill="#FFC44D" fill-rule="evenodd"><path d="M4.75 14.446c0-.9.72-1.62 1.61-1.62h1.63c.41 0 .75.33.75.75 0 .41-.34.75-.75.75H6.35c-.07 0-.12.05-.12.11 0 .03.01.07.05.09l1.22.81c.45.3.72.8.72 1.34 0 .89-.73 1.61-1.62 1.61H4.96c-.42 0-.75-.34-.75-.75 0-.42.33-.75.75-.75h1.63c.06 0 .11-.06.11-.12 0-.04-.02-.08-.06-.1l-1.23-.82c-.46-.31-.73-.81-.73-1.35Z"/><path d="M6.5 16.82c.41 0 .75.33.75.75v2c0 .41-.34.75-.75.75 -.42 0-.75-.34-.75-.75v-2c0-.42.33-.75.75-.75Z"/><path d="M6.5 10.82c.41 0 .75.33.75.75v2c0 .41-.34.75-.75.75 -.42 0-.75-.34-.75-.75v-2c0-.42.33-.75.75-.75Z"/></g><g fill="#8B98A6"><path d="M15.88 3.67c-.18-.11-.39-.14-.58-.09 -.2.05-.37.18-.47.35l-2.5 4.48c-.08.13-.11.29-.09.45l.29 2.57c.02.23.16.44.37.56 .2.11.45.13.67.03L15.86 11c.14-.07.27-.18.35-.33l2.49-4.49c.19-.36.07-.81-.28-1.01l-2.6-1.56Z"/><g fill="#8B98A6" fill-rule="evenodd"><path d="M10.25 15c0-.42.33-.75.75-.75h8c.41 0 .75.33.75.75 0 .41-.34.75-.75.75h-8c-.42 0-.75-.34-.75-.75Z"/><path d="M10.25 18c0-.42.33-.75.75-.75h4c.41 0 .75.33.75.75 0 .41-.34.75-.75.75h-4c-.42 0-.75-.34-.75-.75Z"/></g></g></svg>