<svg viewBox="0 0 24 24" xmlns="http://www.w3.org/2000/svg"><path fill="#ECEFF1" d="M6 1.25C4.48 1.25 3.25 2.48 3.25 4v16c0 1.51 1.23 2.75 2.75 2.75h12c1.51 0 2.75-1.24 2.75-2.75V4c0-1.52-1.24-2.75-2.75-2.75H6Z"/><path fill="#8B98A6" d="M8 1.25c-.42 0-.75.33-.75.75v2c0 .96.78 1.75 1.75 1.75h6c.96 0 1.75-.79 1.75-1.75V2c0-.42-.34-.75-.75-.75H8Z"/><path fill="#8BC94D" fill-rule="evenodd" d="M16.53 9.46c.29.29.29.76 0 1.06l-5 5c-.3.29-.77.29-1.07 0l-3.01-3c-.3-.3-.3-.77 0-1.07 .29-.3.76-.3 1.06 0l2.46 2.46 4.46-4.47c.29-.3.76-.3 1.06 0Z"/></svg>