<svg viewBox="0 0 24 24" xmlns="http://www.w3.org/2000/svg"><g fill="#5E94FF"><path d="M6 17.25c-2.08 0-3.75 1.67-3.75 3.75 0 .96.78 1.75 1.75 1.75h4c.96 0 1.75-.79 1.75-1.75 0-2.08-1.68-3.75-3.75-3.75Z"/><path d="M18 17.25c-2.08 0-3.75 1.67-3.75 3.75 0 .96.78 1.75 1.75 1.75h4c.96 0 1.75-.79 1.75-1.75 0-2.08-1.68-3.75-3.75-3.75Z"/></g><path fill="#ECEFF1" d="M4 1.25C2.48 1.25 1.25 2.48 1.25 4v4c0 1.51 1.23 2.75 2.75 2.75h.68l.78.78c.14.14.33.21.53.21 .19 0 .38-.08.53-.22l.78-.79h9.37l.78.78c.14.14.33.21.53.21 .19 0 .38-.08.53-.22l.78-.79h.68c1.51 0 2.75-1.24 2.75-2.75v-4c0-1.52-1.24-2.75-2.75-2.75h-16Z"/><g fill="#8B98A6" fill-rule="evenodd"><path d="M4.25 6c0-.42.33-.75.75-.75h2c.41 0 .75.33.75.75 0 .41-.34.75-.75.75H5c-.42 0-.75-.34-.75-.75Z"/><path d="M9.25 6c0-.42.33-.75.75-.75h9c.41 0 .75.33.75.75 0 .41-.34.75-.75.75h-9c-.42 0-.75-.34-.75-.75Z"/></g><g fill="#4DC4FF"><path d="M6 13.25c-1.52 0-2.75 1.23-2.75 2.75 0 1.51 1.23 2.75 2.75 2.75 1.51 0 2.75-1.24 2.75-2.75 0-1.52-1.24-2.75-2.75-2.75Z"/><path d="M18 13.25c-1.52 0-2.75 1.23-2.75 2.75 0 1.51 1.23 2.75 2.75 2.75 1.51 0 2.75-1.24 2.75-2.75 0-1.52-1.24-2.75-2.75-2.75Z"/></g></svg>