<svg viewBox="0 0 24 24" xmlns="http://www.w3.org/2000/svg"><path fill="#ECEFF1" d="M6 1.25C3.92 1.25 2.25 2.92 2.25 5v14c0 2.07 1.67 3.75 3.75 3.75h10c2.07 0 3.75-1.68 3.75-3.75V5c0-2.08-1.68-3.75-3.75-3.75H6Z"/><path fill="#CFD8DC" d="M20.49 13.77c-.7-.7-1.83-.7-2.53 0l-1.47 1.46c-.3.29-.3.76 0 1.06l2.19 2.19c.14.14.33.21.53.21 .19 0 .38-.08.53-.22L21.2 17c.69-.7.69-1.83 0-2.53l-.74-.74Z"/><g fill="#8B98A6" fill-rule="evenodd"><path d="M6.25 7c0-.42.33-.75.75-.75h8c.41 0 .75.33.75.75 0 .41-.34.75-.75.75H7c-.42 0-.75-.34-.75-.75Z"/><path d="M6.25 12c0-.42.33-.75.75-.75h8c.41 0 .75.33.75.75 0 .41-.34.75-.75.75H7c-.42 0-.75-.34-.75-.75Z"/><path d="M6.25 17c0-.42.33-.75.75-.75h4c.41 0 .75.33.75.75 0 .41-.34.75-.75.75H7c-.42 0-.75-.34-.75-.75Z"/></g><path fill="#8B98A6" d="M17.56 15.23c-.3-.3-.77-.3-1.07 0l-3.67 3.66c-.12.11-.19.26-.22.42l-.37 2.56c-.04.23.04.46.21.63 .16.16.4.24.63.21l2.56-.37c.16-.03.3-.1.42-.22l3.66-3.67c.14-.15.21-.34.21-.54s-.08-.39-.22-.54l-2.2-2.2Z"/></svg>