<svg viewBox="0 0 24 24" xmlns="http://www.w3.org/2000/svg"><path fill="#CFD8DC" d="M2 14.25c-.42 0-.75.33-.75.75v7c0 .41.33.75.75.75h6c.41 0 .75-.34.75-.75v-7c0-.42-.34-.75-.75-.75H2Z"/><g fill="#8B98A6"><path d="M8 11.25c-.42 0-.75.33-.75.75v10c0 .41.33.75.75.75h6c.41 0 .75-.34.75-.75V12c0-.42-.34-.75-.75-.75H8Z"/><path fill="#8B98A6" fill-rule="evenodd" d="M17 5.25c.41 0 .75.33.75.75v3c0 .41-.34.75-.75.75 -.42 0-.75-.34-.75-.75V6c0-.42.33-.75.75-.75Z"/></g><path fill="#CFD8DC" d="M14 8.25c-.42 0-.75.33-.75.75v13c0 .41.33.75.75.75h6c.41 0 .75-.34.75-.75V9c0-.42-.34-.75-.75-.75h-6Z"/><path fill="#EE4D4D" d="M17 1.25c-.42 0-.75.33-.75.75v4c0 .41.33.75.75.75h5c.3 0 .57-.19.69-.47 .11-.29.05-.61-.17-.82l-1.47-1.47 1.46-1.47c.21-.22.27-.54.16-.82 -.12-.29-.39-.47-.7-.47h-5Z"/></svg>