<svg viewBox="0 0 24 24" xmlns="http://www.w3.org/2000/svg"><path fill="#FFC44D" d="M12.97 1.74c-.59-.4-1.36-.4-1.95 0l-1.97 1.3c-.08.04-.18.05-.26.01L6.75 2.03c-1.17-.59-2.54.26-2.54 1.56v16.764c0 1.3 1.36 2.14 2.53 1.56l2.03-1.02c.08-.05.17-.04.25.01l1.96 1.3c.58.39 1.35.39 1.94 0l1.96-1.31c.07-.05.17-.06.25-.02l2.03 1.01c1.16.58 2.53-.27 2.53-1.57V3.55c0-1.31-1.37-2.15-2.54-1.57l-2.04 1.01c-.09.04-.18.03-.26-.02l-1.97-1.31Z"/><g fill="#ECEFF1" fill-rule="evenodd"><path d="M9.25 9.85c0-1.44 1.16-2.61 2.6-2.61h.14c1.51 0 2.75 1.23 2.75 2.75v.5c0 .41-.34.75-.75.75 -.42 0-.75-.34-.75-.75v-.5c0-.7-.56-1.25-1.25-1.25h-.15c-.61 0-1.11.49-1.11 1.1 0 .41.23.8.61.98l1.95.97c.88.44 1.43 1.34 1.43 2.32 0 1.43-1.17 2.6-2.61 2.6h-.15c-1.52 0-2.75-1.24-2.75-2.75v-.5c0-.42.33-.75.75-.75 .41 0 .75.33.75.75v.5c0 .69.55 1.25 1.25 1.25h.14c.6 0 1.1-.5 1.1-1.11 0-.42-.24-.81-.62-.99l-1.96-.98c-.89-.45-1.44-1.35-1.44-2.33Z"/><path d="M12 5.25c.41 0 .75.33.75.75v2c0 .41-.34.75-.75.75 -.42 0-.75-.34-.75-.75V6c0-.42.33-.75.75-.75Z"/><path d="M12 15.25c.41 0 .75.33.75.75v2c0 .41-.34.75-.75.75 -.42 0-.75-.34-.75-.75v-2c0-.42.33-.75.75-.75Z"/></g></svg>