<svg viewBox="0 0 24 24" xmlns="http://www.w3.org/2000/svg"><g fill="#FFC44D" fill-rule="evenodd"><path d="M19.36 8.34c.36.2.49.65.29 1.01l-2.5 4.49c-.21.36-.66.49-1.02.29 -.37-.21-.5-.66-.3-1.02l2.5-4.51c.2-.37.65-.5 1.01-.3Z"/><path d="M6.33 13.32c.37.18.52.63.33 1l-4 8c-.19.37-.64.52-1.01.33 -.38-.19-.53-.64-.34-1.01l4-8c.18-.38.63-.53 1-.34Z"/><path d="M8.36 12.1c.21-.36.68-.46 1.03-.24l4 2.5c.35.21.45.68.23 1.03s-.69.45-1.04.23l-4-2.5c-.36-.22-.46-.69-.24-1.04Z"/></g><g fill="#EE4D4D"><path d="M15 12.25c-1.52 0-2.75 1.23-2.75 2.75 0 1.51 1.23 2.75 2.75 2.75 1.51 0 2.75-1.24 2.75-2.75 0-1.52-1.24-2.75-2.75-2.75Z"/><path d="M20 4.25c-1.52 0-2.75 1.23-2.75 2.75 0 1.51 1.23 2.75 2.75 2.75 1.51 0 2.75-1.24 2.75-2.75 0-1.52-1.24-2.75-2.75-2.75Z"/><path d="M7 9.25c-1.52 0-2.75 1.23-2.75 2.75 0 1.51 1.23 2.75 2.75 2.75 1.51 0 2.75-1.24 2.75-2.75 0-1.52-1.24-2.75-2.75-2.75Z"/></g><path fill="#CFD8DC" fill-rule="evenodd" d="M2 1.25c.41 0 .75.33.75.75v19.25H22c.41 0 .75.33.75.75 0 .41-.34.75-.75.75H2c-.42 0-.75-.34-.75-.75V2c0-.42.33-.75.75-.75Z"/></svg>