<svg viewBox="0 0 24 24" xmlns="http://www.w3.org/2000/svg"><path fill="#FFC44D" d="M9 7.25c-4.29 0-7.75 3.46-7.75 7.75 0 4.28 3.46 7.75 7.75 7.75 4.28 0 7.75-3.47 7.75-7.75 0-4.29-3.47-7.75-7.75-7.75Z"/><g fill="#EE4D4D" fill-rule="evenodd"><path d="M18.46 10.53c.29.29.76.29 1.06 0l3-3c.29-.3.29-.77 0-1.07 -.3-.3-.77-.3-1.07 0l-1.72 1.71V1.98c0-.42-.34-.75-.75-.75 -.42 0-.75.33-.75.75v6.18l-1.72-1.72c-.3-.3-.77-.3-1.07 0 -.3.29-.3.76 0 1.06l3 2.99Z"/><g fill="#ECEFF1"><path d="M7.25 13.86c0-.9.72-1.62 1.61-1.62h1.63c.41 0 .75.33.75.75 0 .41-.34.75-.75.75H8.85c-.07 0-.12.05-.12.11 0 .03.01.07.05.09l1.22.81c.45.3.72.8.72 1.34 0 .89-.73 1.61-1.62 1.61H7.46c-.42 0-.75-.34-.75-.75 0-.42.33-.75.75-.75h1.63c.06 0 .11-.06.11-.12 0-.04-.02-.08-.06-.1l-1.23-.82c-.46-.31-.73-.81-.73-1.35Z"/><path d="M9 16.25c.41 0 .75.33.75.75v2c0 .41-.34.75-.75.75 -.42 0-.75-.34-.75-.75v-2c0-.42.33-.75.75-.75Z"/><path d="M9 10.25c.41 0 .75.33.75.75v2c0 .41-.34.75-.75.75 -.42 0-.75-.34-.75-.75v-2c0-.42.33-.75.75-.75Z"/></g></g></svg>