<svg viewBox="0 0 24 24" xmlns="http://www.w3.org/2000/svg"><path fill="#8B98A6" fill-rule="evenodd" d="M7.25 16c0-.42.33-.75.75-.75h2c.41 0 .75.33.75.75 0 .41-.34.75-.75.75H8c-.42 0-.75-.34-.75-.75Z"/><path fill="#ECEFF1" d="M5 12.25c-.42 0-.75.33-.75.75v5.5c0 1.24 1 2.25 2.25 2.25 1.24 0 2.25-1.01 2.25-2.25V13c0-.42-.34-.75-.75-.75H5Z"/><path fill="#8B98A6" d="M3.5 8.25c-1.25 0-2.25 1-2.25 2.25 0 1.24 1 2.25 2.25 2.25H4c.41 0 .75-.34.75-.75V9c0-.42-.34-.75-.75-.75h-.5Z"/><path fill="#ECEFF1" d="M17.75 6.6c0-2.16-2.38-3.48-4.21-2.34L8.6 7.34c-.22.13-.36.37-.36.63v5c0 .25.13.49.35.63l4.94 3.08c1.83 1.14 4.2-.18 4.2-2.34V6.55Z"/><g fill="#8B98A6" fill-rule="evenodd"><path d="M19.25 10.5c0-.42.33-.75.75-.75h2c.41 0 .75.33.75.75 0 .41-.34.75-.75.75h-2c-.42 0-.75-.34-.75-.75Z"/><path d="M22.53 4.46c.29.29.29.76 0 1.06l-2 2c-.3.29-.77.29-1.07 0 -.3-.3-.3-.77 0-1.07l2-2c.29-.3.76-.3 1.06 0Z"/><path d="M22.53 16.53c.29-.3.29-.77 0-1.07l-2-2c-.3-.3-.77-.3-1.07 0 -.3.29-.3.76 0 1.06l2 2c.29.29.76.29 1.06 0Z"/></g><path fill="#EE4D4D" d="M5 7.25c-.97 0-1.75.78-1.75 1.75v3c0 .96.78 1.75 1.75 1.75h3c.96 0 1.75-.79 1.75-1.75V9c0-.97-.79-1.75-1.75-1.75H5Z"/></svg>