<svg viewBox="0 0 24 24" xmlns="http://www.w3.org/2000/svg"><g fill="#CFD8DC"><path d="M5 1.25c-.97 0-1.75.78-1.75 1.75v2c0 .41.33.75.75.75h16c.41 0 .75-.34.75-.75V3c0-.97-.79-1.75-1.75-1.75H5Z"/><path d="M3 11.25c-.42 0-.75.33-.75.75v8c0 1.51 1.23 2.75 2.75 2.75h14c1.51 0 2.75-1.24 2.75-2.75v-8c0-.42-.34-.75-.75-.75H3Z"/></g><path fill="#ECEFF1" d="M10 15.25c-.42 0-.75.33-.75.75v6c0 .41.33.75.75.75h4c.41 0 .75-.34.75-.75v-6c0-.42-.34-.75-.75-.75h-4Z"/><g fill="#5E94FF" fill-rule="evenodd"><path d="M1.33 8.65c-.06.1-.09.22-.09.34v2c0 .96.78 1.75 1.75 1.75h18c.96 0 1.75-.79 1.75-1.75v-2c0-.12-.03-.23-.08-.34l-.01-.02 -2-3.99c-.13-.26-.39-.42-.68-.42h-16c-.29 0-.55.16-.68.41l-2 3.98Zm21.41.34c0-.13-.04-.25-.09-.35l0 .01c.05.1.07.22.07.33Z"/><path fill="#ECEFF1" d="M6.25 12.75V9c0-.07 0-.13.02-.19l1-4 .14-.57h1.54l-.24.93 -.98 3.91v3.65h-1.5Zm6.5 0h-1.5v-8.5h1.5v8.5Zm5 0h-1.5V9.09l-.98-3.92 -.24-.94h1.54l.14.56 1 4c.01.05.02.12.02.18v3.75Z"/></g></svg>