<svg viewBox="0 0 24 24" xmlns="http://www.w3.org/2000/svg"><path fill="#ECEFF1" d="M8 1.25C6.48 1.25 5.25 2.48 5.25 4v16c0 1.51 1.23 2.75 2.75 2.75h8c1.51 0 2.75-1.24 2.75-2.75V4c0-1.52-1.24-2.75-2.75-2.75H8Z"/><path fill="#5E94FF" d="M9 1.25c-.42 0-.75.33-.75.75v2c0 .96.78 1.75 1.75 1.75h4c.96 0 1.75-.79 1.75-1.75V2c0-.42-.34-.75-.75-.75H9Z"/><g fill="#FFC44D" fill-rule="evenodd"><path d="M9.25 10.85c0-1.44 1.16-2.61 2.6-2.61h.14c1.51 0 2.75 1.23 2.75 2.75v.5c0 .41-.34.75-.75.75 -.42 0-.75-.34-.75-.75v-.5c0-.7-.56-1.25-1.25-1.25h-.15c-.61 0-1.11.49-1.11 1.1 0 .41.23.8.61.98l1.95.97c.88.44 1.43 1.34 1.43 2.32 0 1.43-1.17 2.6-2.61 2.6h-.15c-1.52 0-2.75-1.24-2.75-2.75v-.5c0-.42.33-.75.75-.75 .41 0 .75.33.75.75v.5c0 .69.55 1.25 1.25 1.25h.14c.6 0 1.1-.5 1.1-1.11 0-.42-.24-.81-.62-.99l-1.96-.98c-.89-.45-1.44-1.35-1.44-2.33Z"/><path d="M12 6.25c.41 0 .75.33.75.75v2c0 .41-.34.75-.75.75 -.42 0-.75-.34-.75-.75V7c0-.42.33-.75.75-.75Z"/><path d="M12 16.25c.41 0 .75.33.75.75v2c0 .41-.34.75-.75.75 -.42 0-.75-.34-.75-.75v-2c0-.42.33-.75.75-.75Z"/><path fill="#5E94FF" d="M5.25 4c0-1.52 1.23-2.75 2.75-2.75h8c1.51 0 2.75 1.23 2.75 2.75v16c0 1.51-1.24 2.75-2.75 2.75H8c-1.52 0-2.75-1.24-2.75-2.75V4ZM8 2.75c-.7 0-1.25.55-1.25 1.25v16c0 .69.55 1.25 1.25 1.25h8c.69 0 1.25-.56 1.25-1.25V4c0-.7-.56-1.25-1.25-1.25H8Z"/></g></svg>