<svg viewBox="0 0 24 24" xmlns="http://www.w3.org/2000/svg"><g fill="#8BC94D" fill-rule="evenodd"><path d="M7.03 5.46c.29.29.29.76 0 1.06l-3 3c-.15.14-.36.22-.57.21 -.22-.01-.41-.11-.55-.27l-1.5-1.8c-.27-.32-.23-.8.09-1.06 .31-.27.79-.23 1.05.09l.97 1.16 2.41-2.42c.29-.3.76-.3 1.06 0Z"/><path d="M7.03 15.46c.29.29.29.76 0 1.06l-3 3c-.15.14-.36.22-.57.21 -.22-.01-.41-.11-.55-.27l-1.5-1.8c-.27-.32-.23-.8.09-1.06 .31-.27.79-.23 1.05.09l.97 1.16 2.41-2.42c.29-.3.76-.3 1.06 0Z"/></g><g fill="#8B98A6"><path d="M9 3.25c-.42 0-.75.33-.75.75v6c0 .41.33.75.75.75h13c.41 0 .75-.34.75-.75V4c0-.42-.34-.75-.75-.75H9Z"/><path d="M9 13.25c-.42 0-.75.33-.75.75v6c0 .41.33.75.75.75h13c.41 0 .75-.34.75-.75v-6c0-.42-.34-.75-.75-.75H9Z"/></g><g fill="#ECEFF1" fill-rule="evenodd"><path d="M11.25 7c0-.42.33-.75.75-.75h7c.41 0 .75.33.75.75 0 .41-.34.75-.75.75h-7c-.42 0-.75-.34-.75-.75Z"/><path d="M11.25 17c0-.42.33-.75.75-.75h7c.41 0 .75.33.75.75 0 .41-.34.75-.75.75h-7c-.42 0-.75-.34-.75-.75Z"/></g></svg>