<svg viewBox="0 0 24 24" xmlns="http://www.w3.org/2000/svg"><path fill="#CFD8DC" d="M17 8.25c-.42 0-.75.33-.75.75v9c0 .41.33.75.75.75h2c1.51 0 2.75-1.24 2.75-2.75v-5c0-1.52-1.24-2.75-2.75-2.75h-2Z"/><path fill="#ECEFF1" d="M5 4.25C3.48 4.25 2.25 5.48 2.25 7v13c0 1.51 1.23 2.75 2.75 2.75h10c1.51 0 2.75-1.24 2.75-2.75V7c0-1.52-1.24-2.75-2.75-2.75H5Z"/><g fill="#8B98A6"><path d="M6 8.25c-.42 0-.75.33-.75.75v3c0 .41.33.75.75.75h8c.41 0 .75-.34.75-.75V9c0-.42-.34-.75-.75-.75H6Z"/><g fill="#8B98A6" fill-rule="evenodd"><path d="M7 16.75c.41 0 .75-.34.75-.75v-1c0-.42-.34-.75-.75-.75 -.42 0-.75.33-.75.75v1c0 .41.33.75.75.75Z"/><path d="M7 17.25c.41 0 .75.33.75.75v1c0 .41-.34.75-.75.75 -.42 0-.75-.34-.75-.75v-1c0-.42.33-.75.75-.75Z"/><path d="M10 16.75c.41 0 .75-.34.75-.75v-1c0-.42-.34-.75-.75-.75 -.42 0-.75.33-.75.75v1c0 .41.33.75.75.75Z"/><path d="M10 17.25c.41 0 .75.33.75.75v1c0 .41-.34.75-.75.75 -.42 0-.75-.34-.75-.75v-1c0-.42.33-.75.75-.75Z"/><path d="M13 16.75c.41 0 .75-.34.75-.75v-1c0-.42-.34-.75-.75-.75 -.42 0-.75.33-.75.75v1c0 .41.33.75.75.75Z"/><path d="M13 17.25c.41 0 .75.33.75.75v1c0 .41-.34.75-.75.75 -.42 0-.75-.34-.75-.75v-1c0-.42.33-.75.75-.75Z"/></g></g><path fill="#CFD8DC" d="M6 1.25c-.42 0-.75.33-.75.75v4c0 .41.33.75.75.75h8c.41 0 .75-.34.75-.75V2c0-.42-.34-.75-.75-.75H6Z"/></svg>