<svg viewBox="0 0 24 24" xmlns="http://www.w3.org/2000/svg"><path fill="#FFC44D" d="M7 6.25c.41 0 .75.33.75.75v15c0 .41-.34.75-.75.75H3c-.42 0-.75-.34-.75-.75V7c0-.42.33-.75.75-.75h4Z"/><path fill="#FF884D" d="M14 11.25c.41 0 .75.33.75.75v10c0 .41-.34.75-.75.75h-4c-.42 0-.75-.34-.75-.75V12c0-.42.33-.75.75-.75h4Z"/><g fill="#EE4D4D"><path d="M21 16.25c.41 0 .75.33.75.75v5c0 .41-.34.75-.75.75h-4c-.42 0-.75-.34-.75-.75v-5c0-.42.33-.75.75-.75h4Z"/><path fill="#EE4D4D" fill-rule="evenodd" d="M17.25 13.5c0 .41.33.75.75.75h3c.41 0 .75-.34.75-.75v-3c0-.42-.34-.75-.75-.75 -.42 0-.75.33-.75.75v1.18L10.03 1.46c-.3-.3-.77-.3-1.07-.001 -.3.29-.3.76 0 1.06l10.21 10.21h-1.19c-.42 0-.75.33-.75.75Z"/></g><path fill="#8B98A6" fill-rule="evenodd" d="M22.75 22c0-.42-.34-.75-.75-.75H2c-.42 0-.75.33-.75.75 0 .41.33.75.75.75h20c.41 0 .75-.34.75-.75Z"/></svg>