<svg viewBox="0 0 24 24" xmlns="http://www.w3.org/2000/svg"><path fill="#ECEFF1" d="M2 7.25c-.42 0-.75.33-.75.75v12c0 1.51 1.23 2.75 2.75 2.75h16c1.51 0 2.75-1.24 2.75-2.75V8c0-.42-.34-.75-.75-.75H2Z"/><path fill="#EE4D4D" d="M4 3.25C2.48 3.25 1.25 4.48 1.25 6v2c0 .41.33.75.75.75h20c.41 0 .75-.34.75-.75V6c0-1.52-1.24-2.75-2.75-2.75H4Z"/><g fill="#ECEFF1" fill-rule="evenodd"><path d="M18 1.25c.41 0 .75.33.75.75v3c0 .41-.34.75-.75.75 -.42 0-.75-.34-.75-.75V2c0-.42.33-.75.75-.75Z"/><path d="M6 1.25c.41 0 .75.33.75.75v3c0 .41-.34.75-.75.75 -.42 0-.75-.34-.75-.75V2c0-.42.33-.75.75-.75Z"/><path fill="#8BC94D" d="M16.53 11.46c.29.29.29.76 0 1.06l-5 5c-.3.29-.77.29-1.07 0l-3.01-3c-.3-.3-.3-.77 0-1.07 .29-.3.76-.3 1.06 0l2.46 2.46 4.46-4.47c.29-.3.76-.3 1.06 0Z"/></g></svg>