<svg viewBox="0 0 24 24" xmlns="http://www.w3.org/2000/svg"><g fill="#8B98A6" fill-rule="evenodd"><path d="M12 17.25c.41 0 .75.33.75.75v4c0 .41-.34.75-.75.75 -.42 0-.75-.34-.75-.75v-4c0-.42.33-.75.75-.75Z"/><path d="M12.65 17.62c.2.35.08.81-.28 1.02l-7 4c-.36.2-.82.08-1.03-.28 -.21-.36-.09-.82.27-1.03l6.99-4c.35-.21.81-.09 1.02.27Z"/><path d="M11.34 17.62c-.21.35-.09.81.27 1.02l7 4c.35.2.81.08 1.02-.28 .2-.36.08-.82-.28-1.03l-7-4c-.36-.21-.82-.09-1.03.27Z"/></g><path fill="#ECEFF1" d="M3 1.25c-.97 0-1.75.78-1.75 1.75v14c0 .96.78 1.75 1.75 1.75h18c.96 0 1.75-.79 1.75-1.75V3c0-.97-.79-1.75-1.75-1.75H3Z"/><g fill="#8BC94D" fill-rule="evenodd"><path d="M7 5.75c-.7 0-1.25.55-1.25 1.25 0 .69.55 1.25 1.25 1.25 .69 0 1.25-.56 1.25-1.25 0-.7-.56-1.25-1.25-1.25ZM4.25 7c0-1.52 1.23-2.75 2.75-2.75 1.51 0 2.75 1.23 2.75 2.75 0 1.51-1.24 2.75-2.75 2.75 -1.52 0-2.75-1.24-2.75-2.75Z"/><g fill="#EE4D4D"><path d="M19.53 10.46c.29.29.29.76 0 1.06l-4 4c-.3.29-.77.29-1.07 0 -.3-.3-.3-.77 0-1.07l4-4c.29-.3.76-.3 1.06 0Z"/><path d="M14.46 10.46c-.3.29-.3.76 0 1.06l4 4c.29.29.76.29 1.06 0 .29-.3.29-.77 0-1.07l-4-4c-.3-.3-.77-.3-1.07 0Z"/></g><path fill="#8B98A6" d="M13 5.75c-.42 0-.75-.34-.75-.75 0-.42.33-.75.75-.75h4c.41 0 .75.33.75.75v4c0 .41-.34.75-.75.75 -.42 0-.75-.34-.75-.75V6.81l-8.72 8.71c-.3.29-.77.29-1.07 0 -.3-.3-.3-.77 0-1.07l8.71-8.72h-2.19Z"/></g></svg>