<svg viewBox="0 0 24 24" xmlns="http://www.w3.org/2000/svg"><g fill="#5E94FF"><path d="M5 17.25c-2.08 0-3.75 1.67-3.75 3.75 0 .96.78 1.75 1.75 1.75h6c.96 0 1.75-.79 1.75-1.75 0-2.08-1.68-3.75-3.75-3.75H5Z"/><path d="M11 6.25c-2.08 0-3.75 1.67-3.75 3.75 0 .96.78 1.75 1.75 1.75h6c.96 0 1.75-.79 1.75-1.75 0-2.08-1.68-3.75-3.75-3.75h-2Z"/><path d="M17 17.25c-2.08 0-3.75 1.67-3.75 3.75 0 .96.78 1.75 1.75 1.75h6c.96 0 1.75-.79 1.75-1.75 0-2.08-1.68-3.75-3.75-3.75h-2Z"/></g><g fill="#4DC4FF"><path d="M12 1.25c-1.8 0-3.25 1.45-3.25 3.25 0 1.79 1.45 3.25 3.25 3.25 1.79 0 3.25-1.46 3.25-3.25 0-1.8-1.46-3.25-3.25-3.25Z"/><path d="M6 12.25c-1.8 0-3.25 1.45-3.25 3.25 0 1.79 1.45 3.25 3.25 3.25 1.79 0 3.25-1.46 3.25-3.25 0-1.8-1.46-3.25-3.25-3.25Z"/><path d="M18 12.25c-1.8 0-3.25 1.45-3.25 3.25 0 1.79 1.45 3.25 3.25 3.25 1.79 0 3.25-1.46 3.25-3.25 0-1.8-1.46-3.25-3.25-3.25Z"/></g></svg>