<svg viewBox="0 0 24 24" xmlns="http://www.w3.org/2000/svg"><g fill="#5E94FF"><path d="M11 10.5c-1.94 0-3.5 1.56-3.5 3.5v3c0 .82.67 1.5 1.5 1.5h6c.82 0 1.5-.68 1.5-1.5v-3c0-1.94-1.57-3.5-3.5-3.5h-2Z"/><path d="M19 12.5c-1.94 0-3.5 1.56-3.5 3.5v1c0 .82.67 1.5 1.5 1.5h4c.82 0 1.5-.68 1.5-1.5v-1c0-1.94-1.57-3.5-3.5-3.5Z"/><path d="M5 12.5c-1.94 0-3.5 1.56-3.5 3.5v1c0 .82.67 1.5 1.5 1.5h4c.82 0 1.5-.68 1.5-1.5v-1c0-1.94-1.57-3.5-3.5-3.5Z"/></g><g fill="#4DC4FF"><path d="M12 5.5c-1.66 0-3 1.34-3 3 0 1.65 1.34 3 3 3 1.65 0 3-1.35 3-3 0-1.66-1.35-3-3-3Z"/><path d="M19 8.5c-1.39 0-2.5 1.11-2.5 2.5 0 1.38 1.11 2.5 2.5 2.5 1.38 0 2.5-1.12 2.5-2.5 0-1.39-1.12-2.5-2.5-2.5Z"/><path d="M5 8.5c-1.39 0-2.5 1.11-2.5 2.5 0 1.38 1.11 2.5 2.5 2.5 1.38 0 2.5-1.12 2.5-2.5 0-1.39-1.12-2.5-2.5-2.5Z"/></g></svg>