<svg viewBox="0 0 24 24" xmlns="http://www.w3.org/2000/svg"><path fill="#4DC4FF" d="M2 7.75c-.42 0-.75-.34-.75-.75V5c0-1.52 1.23-2.75 2.75-2.75h14c1.51 0 2.75 1.23 2.75 2.75v2c0 .41-.34.75-.75.75H2Z"/><path fill="#5E94FF" fill-rule="evenodd" d="M2 6.25c-.42 0-.75.33-.75.75v12c0 1.51 1.23 2.75 2.75 2.75h16c1.51 0 2.75-1.24 2.75-2.75V9c0-1.52-1.24-2.75-2.75-2.75H2Z"/><path fill="#ECEFF1" d="M17 10.25c-2.08 0-3.75 1.67-3.75 3.75 0 2.07 1.67 3.75 3.75 3.75h5c.41 0 .75-.34.75-.75v-6c0-.42-.34-.75-.75-.75h-5Z"/><path fill="#5E94FF" fill-rule="evenodd" d="M16.25 14c0-.42.33-.75.75-.75h1c.41 0 .75.33.75.75 0 .41-.34.75-.75.75h-1c-.42 0-.75-.34-.75-.75Z"/></svg>