<svg viewBox="0 0 24 24" xmlns="http://www.w3.org/2000/svg"><g fill-rule="evenodd"><path d="M5.5 3C4.67 3 4 3.67 4 4.5 4 5.32 4.67 6 5.5 6 6.32 6 7 5.32 7 4.5 7 3.67 6.32 3 5.5 3ZM2 4.5C2 2.56 3.56 1 5.5 1 7.43 1 9 2.56 9 4.5 9 6.43 7.43 8 5.5 8 3.56 8 2 6.43 2 4.5Z"/><path d="M5.5 18c-.83 0-1.5.67-1.5 1.5 0 .82.67 1.5 1.5 1.5 .82 0 1.5-.68 1.5-1.5 0-.83-.68-1.5-1.5-1.5ZM2 19.5C2 17.56 3.56 16 5.5 16 7.43 16 9 17.56 9 19.5 9 21.43 7.43 23 5.5 23 3.56 23 2 21.43 2 19.5Z"/><path d="M20 3.5H7v-2h14c.55 0 1 .44 1 1v4c0 .55-.45 1-1 1H7v-2h13v-2Z"/><path d="M20 18.5H7v-2h14c.55 0 1 .44 1 1v4c0 .55-.45 1-1 1H7v-2h13v-2Z"/><path d="M18.5 10.5c.82 0 1.5.67 1.5 1.5 0 .82-.68 1.5-1.5 1.5 -.83 0-1.5-.68-1.5-1.5 0-.83.67-1.5 1.5-1.5ZM22 12c0-1.94-1.57-3.5-3.5-3.5 -1.94 0-3.5 1.56-3.5 3.5 0 1.93 1.56 3.5 3.5 3.5 1.93 0 3.5-1.57 3.5-3.5Z"/><path d="M4 11h13V9H3c-.56 0-1 .44-1 1v4c0 .55.44 1 1 1h14v-2H4v-2Z"/></g></svg>