<svg viewBox="0 0 24 24" xmlns="http://www.w3.org/2000/svg"><path fill-rule="evenodd" d="M6.38 1.07c.37.15.61.51.61.92v1.5h2c2.87 0 5.23 2.2 5.47 5.02 .17-.02.34-.03.52-.03h2v-1.5c0-.41.24-.77.61-.93 .37-.16.8-.07 1.08.21l4 4c.39.39.39 1.02 0 1.41l-4 4c-.29.28-.72.37-1.09.21 -.38-.16-.62-.52-.62-.93v-1.5h-2c-.28 0-.5.22-.5.5v8c0 .55-.45 1-1 1h-3c-.56 0-1-.45-1-1v-13c0-.28-.23-.5-.5-.5h-2v1.5c0 .4-.25.76-.62.92 -.38.15-.81.06-1.09-.22l-4-4c-.4-.4-.4-1.03 0-1.42l4-4c.28-.29.71-.38 1.08-.22ZM3.41 5.99l1.58 1.58v-.09c0-.56.44-1 1-1h3c1.38 0 2.5 1.11 2.5 2.5v12h1v-7c0-1.39 1.11-2.5 2.5-2.5h3c.55 0 1 .44 1 1v.08l1.58-1.59 -1.59-1.59v.08c0 .55-.45 1-1 1h-3c-.42 0-.81.07-1.17.19 -.31.1-.65.06-.92-.13s-.43-.5-.43-.82v-.76c0-1.94-1.57-3.5-3.5-3.5h-3c-.56 0-1-.45-1-1v-.09L3.37 5.93Z"/></svg>