<svg viewBox="0 0 24 24" xmlns="http://www.w3.org/2000/svg"><g fill-rule="evenodd"><path d="M12 9c-1.11 0-2 .89-2 2 0 1.1.89 2 2 2 1.1 0 2-.9 2-2 0-1.11-.9-2-2-2Zm-4 2c0-2.21 1.79-4 4-4 2.2 0 4 1.79 4 4 0 2.2-1.8 4-4 4 -2.21 0-4-1.8-4-4Z"/><path d="M20.5 3c-.28 0-.5.22-.5.5 0 .27.22.5.5.5 .27 0 .5-.23.5-.5 0-.28-.23-.5-.5-.5Zm-2.5.5C18 2.11 19.11 1 20.5 1 21.88 1 23 2.11 23 3.5 23 4.88 21.88 6 20.5 6 19.11 6 18 4.88 18 3.5Z"/><path d="M3.5 3c-.28 0-.5.22-.5.5 0 .27.22.5.5.5 .27 0 .5-.23.5-.5 0-.28-.23-.5-.5-.5ZM1 3.5C1 2.11 2.11 1 3.5 1 4.88 1 6 2.11 6 3.5 6 4.88 4.88 6 3.5 6 2.11 6 1 4.88 1 3.5Z"/><path d="M12 20c-.28 0-.5.22-.5.5 0 .27.22.5.5.5 .27 0 .5-.23.5-.5 0-.28-.23-.5-.5-.5Zm-2.5.5c0-1.39 1.11-2.5 2.5-2.5 1.38 0 2.5 1.11 2.5 2.5 0 1.38-1.12 2.5-2.5 2.5 -1.39 0-2.5-1.12-2.5-2.5Z"/><path d="M13 14v5h-2v-5h2Z"/><path d="M8.79 10.2l-5-5L5.2 3.78l5 5 -1.42 1.41Z"/><path d="M15.2 10.2l5-5 -1.42-1.42 -5 5 1.41 1.41Z"/></g></svg>