<svg viewBox="0 0 24 24" xmlns="http://www.w3.org/2000/svg"><g fill-rule="evenodd"><path d="M4.17 11c.41-1.17 1.52-2 2.82-2 1.3 0 2.41.83 2.82 2h2.17c.55 0 1 .44 1 1v3c0 .55-.45 1-1 1 -.56 0-1 .44-1 1 0 .55.44 1 1 1 .55 0 1 .44 1 1v3c0 .55-.45 1-1 1h-10c-.56 0-1-.45-1-1V12c0-.56.44-1 1-1h2.17Zm2.82 0c-.56 0-1 .44-1 1 0 .55-.45 1-1 1h-2v8h8v-1.18c-1.17-.42-2-1.53-2-2.83 0-1.31.83-2.42 2-2.83v-1.18h-2c-.56 0-1-.45-1-1 0-.56-.45-1-1-1Z"/><path d="M11 19.82c-1.17-.42-2-1.53-2-2.83 0-1.31.83-2.42 2-2.83v-2.18c0-.56.44-1 1-1h3c.55 0 1 .44 1 1 0 .55.44 1 1 1 .55 0 1-.45 1-1 0-.56.44-1 1-1h3c.55 0 1 .44 1 1v10c0 .55-.45 1-1 1H12c-.56 0-1-.45-1-1V19.8Zm0-2.83c0 .55.44 1 1 1 .55 0 1 .44 1 1v2h8v-8h-1.18c-.42 1.16-1.53 2-2.83 2 -1.31 0-2.42-.84-2.83-2h-1.18v2c0 .55-.45 1-1 1 -.56 0-1 .44-1 1Z"/><path d="M13 4.17c1.16.41 2 1.52 2 2.82 0 1.3-.84 2.41-2 2.82v2.17c0 .55-.45 1-1 1H9c-.56 0-1-.45-1-1 0-.56-.45-1-1-1 -.56 0-1 .44-1 1 0 .55-.45 1-1 1H2c-.56 0-1-.45-1-1v-10c0-.56.44-1 1-1h10c.55 0 1 .44 1 1v2.17Zm0 2.82c0-.56-.45-1-1-1 -.56 0-1-.45-1-1v-2H3v8h1.17c.41-1.17 1.52-2 2.82-2 1.3 0 2.41.83 2.82 2h1.17v-2c0-.56.44-1 1-1 .55 0 1-.45 1-1Z"/></g></svg>