<svg viewBox="0 0 24 24" xmlns="http://www.w3.org/2000/svg"><g fill-rule="evenodd"><path d="M12 9c-1.66 0-3 1.34-3 3 0 1.65 1.34 3 3 3 1.65 0 3-1.35 3-3 0-1.66-1.35-3-3-3Zm-5 3c0-2.77 2.23-5 5-5 2.76 0 5 2.23 5 5 0 2.76-2.24 5-5 5 -2.77 0-5-2.24-5-5Z"/><path d="M22 13h-3v-2h3v2Z"/><path d="M5 13H2v-2h3v2Z"/><path d="M13 2v3h-2V2h2Z"/><path d="M13 19v3h-2v-3h2Z"/><path d="M19.77 5.63l-2.13 2.12 -1.42-1.42 2.12-2.13 1.41 1.41Z"/><path d="M7.75 17.65l-2.13 2.12 -1.42-1.42 2.12-2.13 1.41 1.41Z"/><path d="M4.22 5.63l2.12 2.12 1.41-1.42L5.62 4.2 4.2 5.61Z"/><path d="M16.24 17.65l2.12 2.12 1.41-1.42 -2.13-2.13 -1.42 1.41Z"/></g></svg>