<svg viewBox="0 0 24 24" xmlns="http://www.w3.org/2000/svg"><g fill-rule="evenodd"><path d="M1.5 9c0-.28.22-.5.5-.5h15c.27 0 .5.22.5.5v7c0 3.58-2.92 6.5-6.5 6.5H8c-3.59 0-6.5-2.92-6.5-6.5V9Zm1 .5V16c0 3.03 2.46 5.5 5.5 5.5h3c3.03 0 5.5-2.47 5.5-5.5V9.5h-14Z"/><path d="M16.5 9c0-.28.22-.5.5-.5h2c1.38 0 2.5 1.11 2.5 2.5v3c0 1.38-1.12 2.5-2.5 2.5h-2c-.28 0-.5-.23-.5-.5V9Zm1 .5v6H19c.82 0 1.5-.68 1.5-1.5v-3c0-.83-.68-1.5-1.5-1.5h-1.5Z"/><path d="M3.89 2.39l.75-.76 .7.7 -.76.75c-.22.21-.22.57 0 .79 .6.6.6 1.59-.01 2.2l-.76.75 -.71-.71 .75-.76c.21-.22.21-.58 0-.8 -.61-.61-.61-1.6 0-2.21Z"/><path d="M8.89 2.39l.75-.76 .7.7 -.76.75c-.22.21-.22.57 0 .79 .6.6.6 1.59-.01 2.2l-.76.75 -.71-.71 .75-.76c.21-.22.21-.58 0-.8 -.61-.61-.61-1.6 0-2.21Z"/><path d="M13.89 2.39l.75-.76 .7.7 -.75.75c-.22.21-.22.57 0 .79 .6.6.6 1.59-.01 2.2l-.76.75 -.71-.71 .75-.76c.21-.22.21-.58 0-.8 -.61-.61-.61-1.6 0-2.21Z"/></g></svg>