<svg viewBox="0 0 24 24" xmlns="http://www.w3.org/2000/svg"><g fill-rule="evenodd"><path d="M1.5 4c0-.83.67-1.5 1.5-1.5h18c.82 0 1.5.67 1.5 1.5v12c0 .82-.68 1.5-1.5 1.5H3c-.83 0-1.5-.68-1.5-1.5V4ZM3 3.5c-.28 0-.5.22-.5.5v12c0 .27.22.5.5.5h18c.27 0 .5-.23.5-.5V4c0-.28-.23-.5-.5-.5H3Z"/><path d="M4.5 6c0-.28.22-.5.5-.5h14c.27 0 .5.22.5.5v8c0 .27-.23.5-.5.5H5c-.28 0-.5-.23-.5-.5V6Zm1 .5v7h13v-7h-13Z"/><path d="M10.02 16.84c.06-.21.25-.35.47-.35h3c.21 0 .4.13.47.34l1 3c.05.15.02.32-.07.45 -.1.13-.25.2-.41.2h-5c-.17 0-.32-.08-.41-.21 -.1-.14-.12-.3-.07-.46l1-3Zm.83.65l-.67 2h3.61l-.67-2h-2.28Z"/><path d="M6 19.5h12v1H6v-1Z"/><path d="M8 14V6h1v8H8Z"/><path d="M11.5 14V6h1v8h-1Z"/><path d="M15 14V6h1v8h-1Z"/><path d="M5 9.5h14v1H5v-1Z"/></g></svg>