<svg viewBox="0 0 24 24" xmlns="http://www.w3.org/2000/svg"><g fill-rule="evenodd"><path d="M1.5 16c0-.83.67-1.5 1.5-1.5h9.5v1H3c-.28 0-.5.22-.5.5v2c0 .27.22.5.5.5h10v1H3c-.83 0-1.5-.68-1.5-1.5v-2Z"/><path d="M1.5 12c0-.83.67-1.5 1.5-1.5h13.5v1H3c-.28 0-.5.22-.5.5v2c0 .27.22.5.5.5h9v1H3c-.83 0-1.5-.68-1.5-1.5v-2Z"/><path d="M11.64 2.64c.19-.2.51-.2.7 0l2 2 -.71.7 -1.15-1.15v3.79h-1v-3.8l-1.15 1.14 -.71-.71 2-2Z"/><path d="M17 11.5c-2.49 0-4.5 2.01-4.5 4.5 0 2.48 2.01 4.5 4.5 4.5 2.48 0 4.5-2.02 4.5-4.5 0-2.49-2.02-4.5-4.5-4.5ZM11.5 16c0-3.04 2.46-5.5 5.5-5.5 3.03 0 5.5 2.46 5.5 5.5 0 3.03-2.47 5.5-5.5 5.5 -3.04 0-5.5-2.47-5.5-5.5Z"/><path d="M15.2 14.87c0-.9.72-1.625 1.625-1.625h1.42v1h-1.43c-.35 0-.625.27-.625.625 0 .34.27.625.625.625h.35c.89 0 1.625.72 1.625 1.62 0 .89-.73 1.625-1.625 1.625h-1.43v-1h1.42c.34 0 .625-.28.625-.625 0-.35-.28-.625-.625-.625h-.35c-.9 0-1.625-.73-1.625-1.625Z"/></g></svg>