<svg viewBox="0 0 24 24" xmlns="http://www.w3.org/2000/svg"><g fill-rule="evenodd"><path d="M9 6.5V8H8V6.5h1Z"/><path d="M9 12v1.5H8V12h1Z"/><path d="M5 9.5h1.5v1H5v-1Z"/><path d="M10.5 9.5H12v1h-1.5v-1Z"/><path d="M5.67 12.12l1.06-1.07 .7.7 -1.07 1.06 -.71-.71Z"/><path d="M9.56 8.23l1.06-1.07 .7.7 -1.07 1.06 -.71-.71Z"/><path d="M11.32 12.12l-1.07-1.07 -.71.7 1.06 1.06 .7-.71Z"/><path d="M7.44 8.23L6.37 7.16l-.71.7 1.06 1.06 .7-.71Z"/><path d="M3.5 18c0-.28.22-.5.5-.5h4c.27 0 .5.22.5.5v2.5c0 .27-.23.5-.5.5H4c-.28 0-.5-.23-.5-.5V18Zm1 .5V20h3v-1.5h-3Z"/><path d="M15.5 18c0-.28.22-.5.5-.5h4c.27 0 .5.22.5.5v2.5c0 .27-.23.5-.5.5h-4c-.28 0-.5-.23-.5-.5V18Zm1 .5V20h3v-1.5h-3Z"/><path d="M1.5 4c0-.83.67-1.5 1.5-1.5h18c.82 0 1.5.67 1.5 1.5v13c0 .82-.68 1.5-1.5 1.5H3c-.83 0-1.5-.68-1.5-1.5V4ZM3 3.5c-.28 0-.5.22-.5.5v13c0 .27.22.5.5.5h18c.27 0 .5-.23.5-.5V4c0-.28-.23-.5-.5-.5H3Z"/><path d="M8.5 8.5C7.67 8.5 7 9.17 7 10c0 .82.67 1.5 1.5 1.5 .82 0 1.5-.68 1.5-1.5 0-.83-.68-1.5-1.5-1.5ZM6 10c0-1.39 1.11-2.5 2.5-2.5C9.88 7.5 11 8.61 11 10c0 1.38-1.12 2.5-2.5 2.5C7.11 12.5 6 11.38 6 10Z"/><path d="M18 8.5h-2v-1h2v1Z"/><path d="M18 12.5h-2v-1h2v1Z"/></g></svg>