<svg viewBox="0 0 24 24" xmlns="http://www.w3.org/2000/svg"><g fill-rule="evenodd"><path d="M4.5 11c0-.83.67-1.5 1.5-1.5h10c.82 0 1.5.67 1.5 1.5v8c0 1.93-1.57 3.5-3.5 3.5H8c-1.94 0-3.5-1.57-3.5-3.5v-8Zm1.5-.5c-.28 0-.5.22-.5.5v8c0 1.38 1.11 2.5 2.5 2.5h6c1.38 0 2.5-1.12 2.5-2.5v-8c0-.28-.23-.5-.5-.5H6Z"/><path d="M6 2c0-.28.22-.5.5-.5H11c.27 0 .5.22.5.5v8c0 .27-.23.5-.5.5H6.5c-.28 0-.5-.23-.5-.5V2Zm1 .5v7h3.5v-7H7Z"/><path d="M17.642 1.18c-.15-.07-.31-.07-.45.01l-2.21 1.17c-.1.05-.18.13-.22.22l-3.36 7.18 .9.42 3.28-7.04 1.46-.79 .34 1.63 -2.69 5.76 .9.42 2.76-5.92c.04-.1.05-.21.03-.32l-.52-2.45c-.04-.16-.14-.29-.28-.36Z"/></g></svg>