<svg viewBox="0 0 24 24" xmlns="http://www.w3.org/2000/svg"><g fill-rule="evenodd"><path d="M2.5 8.5C2.5 7.67 3.17 7 4 7h16c.82 0 1.5.67 1.5 1.5v10c0 .82-.68 1.5-1.5 1.5H4c-.83 0-1.5-.68-1.5-1.5v-10ZM4 8c-.28 0-.5.22-.5.5v10c0 .27.22.5.5.5h16c.27 0 .5-.23.5-.5v-10c0-.28-.23-.5-.5-.5H4Z"/><path d="M5.5 19.5v-12h1v12h-1Z"/><path d="M17.5 19.5v-12h1v12h-1Z"/><path d="M9 5c-.83 0-1.5.67-1.5 1.5v1c0 .27-.23.5-.5.5 -.28 0-.5-.23-.5-.5v-1C6.5 5.11 7.61 4 9 4h6c1.38 0 2.5 1.11 2.5 2.5v1c0 .27-.23.5-.5.5 -.28 0-.5-.23-.5-.5v-1c0-.83-.68-1.5-1.5-1.5H9Z"/></g></svg>