<svg viewBox="0 0 24 24" xmlns="http://www.w3.org/2000/svg"><g fill-rule="evenodd"><path d="M1.5 3c0-.83.67-1.5 1.5-1.5h12c.82 0 1.5.67 1.5 1.5v6h-1V3c0-.28-.23-.5-.5-.5H3c-.28 0-.5.22-.5.5v18c0 .27.22.5.5.5h8v1H3c-.83 0-1.5-.68-1.5-1.5V3Z"/><path d="M11 6.5H7v-1h4v1Z"/><path d="M10 13.5H5v-1h5v1Z"/><path d="M9 17.5H5v-1h4v1Z"/><path d="M9.5 6v4h-1V6h1Z"/><path d="M17 12.5c-2.49 0-4.5 2.01-4.5 4.5 0 2.48 2.01 4.5 4.5 4.5 2.48 0 4.5-2.02 4.5-4.5 0-2.49-2.02-4.5-4.5-4.5ZM11.5 17c0-3.04 2.46-5.5 5.5-5.5 3.03 0 5.5 2.46 5.5 5.5 0 3.03-2.47 5.5-5.5 5.5 -3.04 0-5.5-2.47-5.5-5.5Z"/><path d="M16.64 18.04l2.2-3.09 .81.58 -2.5 3.5c-.08.1-.2.18-.34.2 -.14.02-.27-.02-.38-.1l-2-1.5 .6-.8 1.59 1.19Z"/></g></svg>