<svg viewBox="0 0 24 24" xmlns="http://www.w3.org/2000/svg"><g fill-rule="evenodd"><path d="M2 10c0-.83.67-1.5 1.5-1.5h9c.82 0 1.5.67 1.5 1.5v8c0 2.48-2.02 4.5-4.5 4.5h-3C4.01 22.5 2 20.48 2 18v-8Zm1.5-.5c-.28 0-.5.22-.5.5v8c0 1.93 1.56 3.5 3.5 3.5h3c1.93 0 3.5-1.57 3.5-3.5v-8c0-.28-.23-.5-.5-.5h-9Z"/><path d="M3.5 3c0-.83.67-1.5 1.5-1.5h6c.82 0 1.5.67 1.5 1.5v6c0 .27-.23.5-.5.5H4c-.28 0-.5-.23-.5-.5V3ZM5 2.5c-.28 0-.5.22-.5.5v5.5h7V3c0-.28-.23-.5-.5-.5H5Z"/><path d="M10 4.5v2H9v-2h1Z"/><path d="M7 4.5v2H6v-2h1Z"/><path d="M18 12c0-.83-.68-1.5-1.5-1.5v-1c1.38 0 2.5 1.11 2.5 2.5 0 1.38-1.12 2.5-2.5 2.5v-1c.82 0 1.5-.68 1.5-1.5Z"/><path d="M21 12c0-2.51-1.73-4.5-4.5-4.5v-1c3.36 0 5.5 2.48 5.5 5.5 0 3.01-2.14 5.5-5.5 5.5v-1c2.77 0 4.5-2 4.5-4.5Z"/></g></svg>