<svg viewBox="0 0 24 24" xmlns="http://www.w3.org/2000/svg"><path fill="#CFD8DC" d="M5.29 5.75c-.22 0-.42.09-.56.24 -1.55 1.72-2.49 4-2.49 6.5 0 5.38 4.36 9.75 9.75 9.75 5.38 0 9.75-4.37 9.75-9.75 0-2.5-.94-4.78-2.49-6.51 -.15-.16-.35-.25-.56-.25H5.27Z"/><g fill="#5E94FF" fill-rule="evenodd"><path d="M15.75 21.5v-7.01c0-1.52-1.24-2.75-2.75-2.75h-2c-1.52 0-2.75 1.23-2.75 2.75v7c1.15.48 2.42.74 3.75.74 1.32 0 2.59-.27 3.75-.75Z"/><path fill="#CFD8DC" d="M12 13.75c.41 0 .75.33.75.75V16c0 .41-.34.75-.75.75 -.42 0-.75-.34-.75-.75v-1.5c0-.42.33-.75.75-.75Z"/></g><path fill="#5E94FF" d="M3 1.75c-.42 0-.75.33-.75.75v2c0 1.51 1.23 2.75 2.75 2.75h14c1.51 0 2.75-1.24 2.75-2.75v-2c0-.42-.34-.75-.75-.75H3Z"/></svg>