<svg viewBox="0 0 24 24" xmlns="http://www.w3.org/2000/svg"><path fill="#8B98A6" d="M10 15.25c-.35 0-.65.23-.73.56l-1.5 6c-.06.22-.01.46.13.64s.36.28.59.28h6.99c.23 0 .44-.11.59-.29 .14-.19.19-.42.13-.65l-1.5-6c-.09-.34-.39-.57-.73-.57h-4Z"/><path fill="#ECEFF1" d="M4 1.25C2.48 1.25 1.25 2.48 1.25 4v10c0 1.51 1.23 2.75 2.75 2.75h16c1.51 0 2.75-1.24 2.75-2.75V4c0-1.52-1.24-2.75-2.75-2.75H4Z"/><g fill="#5E94FF" fill-rule="evenodd"><path d="M1.25 4c0-1.52 1.23-2.75 2.75-2.75h16c1.51 0 2.75 1.23 2.75 2.75v10c0 1.51-1.24 2.75-2.75 2.75H4c-1.52 0-2.75-1.24-2.75-2.75V4ZM4 2.75c-.7 0-1.25.55-1.25 1.25v10c0 .69.55 1.25 1.25 1.25h16c.69 0 1.25-.56 1.25-1.25V4c0-.7-.56-1.25-1.25-1.25H4Z"/><path d="M5.25 22c0-.42.33-.75.75-.75h12c.41 0 .75.33.75.75 0 .41-.34.75-.75.75H6c-.42 0-.75-.34-.75-.75Z"/></g><path fill="#5E94FF" d="M12.14 4.51c-.1-.02-.2-.02-.3 0l-2.5.5c-.36.07-.61.37-.61.73v4.03c0 .83.37 1.62 1.03 2.14l1.74 1.39c.27.21.66.21.93 0l1.74-1.4c.65-.53 1.03-1.32 1.03-2.15V5.71c0-.36-.26-.67-.61-.74l-2.5-.5Z"/></svg>