<svg viewBox="0 0 24 24" xmlns="http://www.w3.org/2000/svg"><path fill="#5E94FF" d="M12.39 2.364c-.25-.16-.56-.16-.8 0l-8 5c-.22.13-.36.37-.36.63v12c0 .41.33.75.75.75h16c.41 0 .75-.34.75-.75v-12c0-.26-.14-.5-.36-.64l-8-5Z"/><g fill="#ECEFF1"><path d="M9.25 11.66c-.42 0-.75.33-.75.75v3.82c0 .41.33.75.75.75h5.5c.41 0 .75-.34.75-.75V12.4c0-.42-.34-.75-.75-.75h-5.5Z"/><path fill="#ECEFF1" fill-rule="evenodd" d="M9.1 10.91c0-1.61 1.29-2.9 2.89-2.9s2.89 1.29 2.89 2.89v1.5c0 .41-.34.75-.75.75h-4.3c-.42 0-.75-.34-.75-.75v-1.51Zm2.89-1.4c-.78 0-1.4.62-1.4 1.39v.75h2.79v-.76c0-.78-.63-1.4-1.4-1.4Z"/></g></svg>