<svg viewBox="0 0 24 24" xmlns="http://www.w3.org/2000/svg"><g fill="#FFC44D" fill-rule="evenodd"><path d="M3.25 12.2c0-.42.33-.75.75-.75h11c.41 0 .75.33.75.75 0 .41-.34.75-.75.75H4c-.42 0-.75-.34-.75-.75Z"/><path d="M5 11.45c.41 0 .75.33.75.75v2.79c0 .41-.34.75-.75.75 -.42 0-.75-.34-.75-.75v-2.8c0-.42.33-.75.75-.75Z"/><path d="M8 11.45c.41 0 .75.33.75.75v2.79c0 .41-.34.75-.75.75 -.42 0-.75-.34-.75-.75v-2.8c0-.42.33-.75.75-.75Z"/><path d="M17.5 10.34c-.97 0-1.75.78-1.75 1.75 0 .96.78 1.75 1.75 1.75 .96 0 1.75-.79 1.75-1.75 0-.97-.79-1.75-1.75-1.75Zm-3.25 1.75c0-1.8 1.45-3.26 3.25-3.26 1.79 0 3.25 1.45 3.25 3.25 0 1.79-1.46 3.25-3.25 3.25 -1.8 0-3.25-1.46-3.25-3.25Z"/></g></svg>