<svg viewBox="0 0 24 24" xmlns="http://www.w3.org/2000/svg"><path fill="#CFD8DC" fill-rule="evenodd" d="M12 11.75c.41 0 .75.33.75.75V17c0 .41-.34.75-.75.75 -.42 0-.75-.34-.75-.75v-4.5c0-.42.33-.75.75-.75Z"/><path fill="#CFD8DC" d="M12 6.25c-1.8 0-3.25 1.45-3.25 3.25 0 1.79 1.45 3.25 3.25 3.25 1.79 0 3.25-1.46 3.25-3.25 0-1.8-1.46-3.25-3.25-3.25Z"/><path fill="#5E94FF" fill-rule="evenodd" d="M2.25 3c0-.42.33-.75.75-.75h4.5c.41 0 .75.33.75.75 0 .41-.34.75-.75.75H3.75V7.5c0 .41-.34.75-.75.75 -.42 0-.75-.34-.75-.75V3Zm13.5 0c0-.42.33-.75.75-.75H21c.41 0 .75.33.75.75v4.5c0 .41-.34.75-.75.75 -.42 0-.75-.34-.75-.75V3.75H16.5c-.42 0-.75-.34-.75-.75ZM3 15.75c.41 0 .75.33.75.75v3.75H7.5c.41 0 .75.33.75.75 0 .41-.34.75-.75.75H3c-.42 0-.75-.34-.75-.75v-4.5c0-.42.33-.75.75-.75Zm18 0c.41 0 .75.33.75.75V21c0 .41-.34.75-.75.75h-4.5c-.42 0-.75-.34-.75-.75 0-.42.33-.75.75-.75h3.75V16.5c0-.42.33-.75.75-.75Z"/></svg>