<svg viewBox="0 0 24 24" xmlns="http://www.w3.org/2000/svg"><path fill="#5E94FF" d="M12.4 1.36c-.25-.16-.56-.16-.81 0L9.74 2.52c-.39.24-.8.43-1.23.56L4.25 4.42c-.35.1-.57.44-.52.8l1.28 10.85c.15 1.34.88 2.55 1.98 3.32l4.53 3.18c.25.18.6.18.86 0l4.53-3.19c1.1-.78 1.82-1.99 1.98-3.33l1.28-10.86c.04-.36-.18-.7-.52-.81l-4.26-1.35c-.44-.14-.85-.33-1.23-.57l-1.85-1.17Z"/><path fill="#ECEFF1" d="M12 6.25c-1.8 0-3.25 1.45-3.25 3.25 0 1.06.51 2.01 1.3 2.6l-1.29 4.69c-.07.22-.02.46.12.65 .14.18.36.29.59.29h4.99c.23 0 .45-.11.59-.3 .14-.19.18-.43.12-.66l-1.29-4.7c.79-.6 1.3-1.54 1.3-2.61 0-1.8-1.46-3.25-3.25-3.25Z"/></svg>