<svg viewBox="0 0 24 24" xmlns="http://www.w3.org/2000/svg"><path fill="#FFC44D" d="M3 2.75c-.97 0-1.75.78-1.75 1.75v11c0 .96.78 1.75 1.75 1.75h18c.96 0 1.75-.79 1.75-1.75v-11c0-.97-.79-1.75-1.75-1.75H3Z"/><path fill="#ECEFF1" d="M16.5 9.25c-3.46 0-6.25 2.79-6.25 6.25 0 3.45 2.79 6.25 6.25 6.25 3.45 0 6.25-2.8 6.25-6.25 0-3.46-2.8-6.25-6.25-6.25Z"/><g fill="#8B98A6" fill-rule="evenodd"><path d="M14.18 14.34c0-1.28 1.03-2.32 2.31-2.32 1.27 0 2.31 1.03 2.31 2.31v1.09c0 .41-.34.75-.75.75H14.92c-.42 0-.75-.34-.75-.75v-1.1Zm2.31-.82c-.45 0-.82.36-.82.81v.34h1.625v-.35c0-.45-.37-.82-.82-.82Z"/><path fill="#FEDC84" d="M22.72 4.22c-.14-.84-.86-1.48-1.73-1.48h-18c-.88 0-1.6.63-1.73 1.47l.893.44 .01 0 9.5 4.5c.2.09.43.09.64 0l9.5-4.5 .01-.01 .89-.45Z"/></g><path fill="#FFC44D" d="M14.5 14.68c-.42 0-.75.33-.75.75v2.78c0 .41.33.75.75.75h4c.41 0 .75-.34.75-.75v-2.79c0-.42-.34-.75-.75-.75h-4Z"/></svg>