<svg viewBox="0 0 24 24" xmlns="http://www.w3.org/2000/svg"><path fill="#5E94FF" d="M6 7.25c-2.63 0-4.75 2.12-4.75 4.75 0 2.62 2.12 4.75 4.75 4.75h12c2.62 0 4.75-2.13 4.75-4.75 0-2.63-2.13-4.75-4.75-4.75H6Z"/><g fill="#ECEFF1" fill-rule="evenodd"><path d="M4.46 9.96c-.3.29-.3.76 0 1.06l3 3c.29.29.76.29 1.06 0 .29-.3.29-.77 0-1.07l-3-3.01c-.3-.3-.77-.3-1.07 0Z"/><path d="M9.96 9.96c-.3.29-.3.76 0 1.06l3 3c.29.29.76.29 1.06 0 .29-.3.29-.77 0-1.07l-3-3.01c-.3-.3-.77-.3-1.07 0Z"/><path d="M8.53 9.96c.29.29.29.76 0 1.06l-3 3c-.3.29-.77.29-1.07 0 -.3-.3-.3-.77 0-1.07l3-3.01c.29-.3.76-.3 1.06 0Z"/><path d="M14.03 9.96c.29.29.29.76 0 1.06l-3 3c-.3.29-.77.29-1.07 0 -.3-.3-.3-.77 0-1.07l3-3.01c.29-.3.76-.3 1.06 0Z"/></g></svg>