<svg viewBox="0 0 24 24" xmlns="http://www.w3.org/2000/svg"><g fill-rule="evenodd"><path d="M9.56 3.45c1.05-1.41 3.11-1.41 4.16 0 1.05 1.41 2.49 3.44 3.66 5.53 .58 1.04 1.11 2.11 1.5 3.14 .38 1.01.63 2.02.63 2.94 0 2.41-.88 4.35-2.34 5.68 -1.46 1.32-3.43 1.99-5.56 1.99 -2.13 0-4.11-.67-5.56-2 -1.47-1.34-2.34-3.28-2.34-5.69 0-.42.33-.75.75-.75 .41 0 .75.33.75.75 0 2.03.72 3.55 1.84 4.57 1.13 1.03 2.72 1.6 4.54 1.6 1.81 0 3.41-.58 4.54-1.61 1.12-1.03 1.84-2.55 1.84-4.58 0-.66-.19-1.48-.55-2.42 -.35-.93-.85-1.93-1.41-2.94 -1.14-2.01-2.53-3.99-3.57-5.38 -.46-.61-1.32-.61-1.77 0 -1.15 1.53-2.73 3.78-3.91 6 -.18.32-.34.65-.5.97 -.18.37-.63.53-1 .35 -.38-.18-.54-.63-.36-1 .16-.35.33-.69.52-1.03 1.23-2.32 2.86-4.64 4.02-6.2Z"/><path d="M11.64 11.72c.41 0 .75.33.75.75v6.66c0 .41-.34.75-.75.75 -.42 0-.75-.34-.75-.75v-6.67c0-.42.33-.75.75-.75Z"/><path d="M8.1 13.76c.2-.36.66-.49 1.02-.28l5.77 3.33c.35.2.48.66.27 1.02 -.21.35-.67.48-1.03.27l-5.78-3.34c-.36-.21-.49-.67-.28-1.03Z"/><path d="M8.1 17.85c.2.35.66.48 1.02.27l5.77-3.34c.35-.21.48-.67.27-1.03 -.21-.36-.67-.49-1.03-.28L8.35 16.8c-.36.2-.49.66-.28 1.02Z"/></g></svg>