<svg viewBox="0 0 24 24" xmlns="http://www.w3.org/2000/svg"><g fill-rule="evenodd"><path d="M12 2.75c-.46 0-.91.03-1.35.09 -.41.05-.8-.23-.86-.64 -.06-.41.22-.8.63-.86 .5-.08 1.02-.12 1.55-.12 5.93 0 10.75 4.81 10.75 10.75 0 5.93-4.82 10.75-10.75 10.75 -5.94 0-10.75-4.82-10.75-10.75 0-3.79 1.95-7.11 4.9-9.03 .34-.23.81-.13 1.03.22 .22.34.12.81-.23 1.03C4.37 5.84 2.7 8.7 2.7 11.95c0 5.1 4.14 9.25 9.25 9.25 5.1 0 9.25-4.15 9.25-9.25 0-5.11-4.15-9.25-9.25-9.25Z"/><path d="M16 5.75c-2.21 0-4.17 1.05-5.41 2.69 -.77 1.01-1.25 2.25-1.34 3.59 -.01.14-.02.29-.02.45 0 3.72 3.02 6.75 6.75 6.75 .75 0 1.48-.13 2.16-.36 1.89-1.7 3.08-4.16 3.08-6.9 0-1.92-.58-3.69-1.58-5.17 -1.06-.69-2.32-1.09-3.68-1.09ZM9.4 7.54c1.5-2.01 3.9-3.3 6.59-3.3 1.71 0 3.31.52 4.63 1.42 .07.05.14.11.19.19 1.21 1.73 1.92 3.85 1.92 6.13 0 3.24-1.44 6.15-3.71 8.12 -.07.06-.15.1-.24.13 -.88.31-1.83.49-2.81.49 -4.56 0-8.25-3.7-8.25-8.25 0-.19 0-.37.01-.55 .1-1.65.69-3.17 1.63-4.41Z"/></g></svg>