<svg viewBox="0 0 24 24" xmlns="http://www.w3.org/2000/svg"><g fill-rule="evenodd"><path d="M12 21.25c-5.11 0-9.25-4.15-9.25-9.25 0-2.81 1.24-5.33 3.22-7.02 .29-.26.61-.5.94-.72 .3-.2.61-.39.94-.55 .37-.19.52-.64.33-1.01 -.19-.38-.64-.53-1.01-.34 -.38.18-.75.4-1.1.63 -.39.25-.76.53-1.11.82 -2.3 1.97-3.75 4.89-3.75 8.15 0 5.93 4.81 10.75 10.75 10.75 5.93 0 10.75-4.82 10.75-10.75 0-5.94-4.82-10.75-10.75-10.75 -.42 0-.75.33-.75.75 0 .41.33.75.75.75 5.1 0 9.25 4.14 9.25 9.25 0 5.1-4.15 9.25-9.25 9.25Z"/><path d="M11.25 5c0-.42.33-.75.75-.75 4.28 0 7.75 3.46 7.75 7.75 0 .41-.34.75-.75.75 -.42 0-.75-.34-.75-.75 0-3.46-2.8-6.25-6.25-6.25 -.42 0-.75-.34-.75-.75Z"/></g></svg>