<svg viewBox="0 0 24 24" xmlns="http://www.w3.org/2000/svg"><path fill-rule="evenodd" d="M12 3.75c-4.56 0-8.25 3.69-8.25 8.25 0 3.07 1.68 5.75 4.17 7.17 .36.2.48.66.28 1.02 -.21.36-.67.48-1.03.28 -2.95-1.68-4.94-4.85-4.94-8.49 0-5.39 4.36-9.75 9.75-9.75 1.72 0 3.34.44 4.746 1.23 .32.17.46.56.33.91 -.13.34-.49.54-.86.47 -.4-.08-.82-.13-1.24-.13 -3.46 0-6.25 2.79-6.25 6.25 0 3.45 2.79 6.25 6.25 6.25 1.85 0 3.52-.81 4.666-2.1 .24-.28.65-.34.96-.14 .31.2.42.59.27.93 -1.52 3.4-4.94 5.78-8.92 5.78 -.42 0-.75-.34-.75-.75 0-.42.33-.75.75-.75 1.94 0 3.73-.68 5.14-1.81 -.69.19-1.41.3-2.15.3 -4.29 0-7.75-3.47-7.75-7.75 0-3.32 2.07-6.14 4.996-7.25 -.09-.01-.17-.01-.25-.01Z"/></svg>