<svg viewBox="0 0 24 24" xmlns="http://www.w3.org/2000/svg"><g fill-rule="evenodd"><path d="M14.34 13.25c-1.95 0-3.41 1.42-3.41 3.05 0 .05 0 .1 0 .15 .01.2-.07.4-.21.55 -.15.14-.34.23-.55.23h-.01c-.86 0-1.44.62-1.44 1.25 0 .62.57 1.25 1.43 1.25 .41 0 .75.33.75.75 0 .41-.34.75-.75.75 -1.56 0-2.94-1.17-2.94-2.75 0-1.33.97-2.37 2.21-2.67 .25-2.35 2.39-4.09 4.88-4.09 1.67 0 3.18.78 4.07 2.01 .1-.01.2-.02.3-.02 2.16 0 4.03 1.61 4.03 3.75 0 1.64-1.13 2.99-2.62 3.51 -.37.15-.78.23-1.2.23h-4.93c-.42 0-.75-.34-.75-.75 0-.42.33-.75.75-.75h4.92c.22 0 .44-.05.63-.13 .01-.01.03-.02.05-.03 .98-.34 1.62-1.18 1.62-2.11 0-1.19-1.07-2.25-2.54-2.25 -.19 0-.37.01-.54.05 -.32.06-.64-.09-.8-.37 -.56-.98-1.7-1.69-3.05-1.69Z"/><path d="M9.65 9.25c1.94 0 3.4 1.42 3.4 3.05 0 .05-.01.1-.01.15 -.03.41.29.76.7.79 .41.02.76-.3.79-.71 0-.09 0-.17 0-.25 0-2.58-2.27-4.55-4.91-4.55 -1.68 0-3.19.78-4.08 2.01 -.11-.01-.21-.02-.31-.02 -2.17 0-4.04 1.61-4.04 3.75 0 1.64 1.12 2.99 2.61 3.51 .36.15.77.23 1.19.23h4.93c.41 0 .75-.34.75-.75 0-.42-.34-.75-.75-.75H4.98c-.23 0-.45-.05-.64-.13 -.02-.01-.04-.02-.06-.03 -.99-.34-1.63-1.18-1.63-2.11 0-1.19 1.06-2.25 2.53-2.25 .18 0 .36.01.53.05 .31.06.63-.09.79-.37 .55-.98 1.69-1.69 3.04-1.69Z"/><path d="M18.5 2.75c.24 0 .47.11.61.31l.92 1.31 1.53.47c.23.07.41.25.49.48 .07.23.03.48-.12.68l-.97 1.28 .01 1.6c0 .24-.12.47-.31.61 -.2.14-.46.18-.69.1l-1.53-.52 -1.53.51c-.24.07-.49.03-.69-.11 -.2-.15-.32-.38-.31-.62l.01-1.61 -.97-1.29c-.15-.2-.19-.45-.12-.69 .07-.24.25-.42.49-.49l1.53-.48 .92-1.32c.14-.2.36-.32.61-.32Zm0 2.04l-.47.65c-.1.13-.24.23-.39.28l-.77.23 .47.64c.09.13.15.29.14.45l-.01.8 .75-.26c.15-.06.32-.06.48 0l.75.25 -.01-.81c-.01-.17.05-.33.14-.46l.47-.65 -.77-.24c-.16-.05-.3-.15-.39-.29l-.47-.66Z"/></g></svg>