<svg viewBox="0 0 24 24" xmlns="http://www.w3.org/2000/svg"><g fill-rule="evenodd"><path d="M14.18 6.47c-1.79 0-3.12 1.3-3.12 2.78 0 .04 0 .09 0 .14 .01.2-.07.4-.21.55 -.15.14-.34.23-.55.23h-.01c-.78 0-1.29.55-1.29 1.11 0 .55.51 1.11 1.28 1.11 .41 0 .75.33.75.75 0 .41-.34.75-.75.75 -1.48 0-2.79-1.11-2.79-2.62 0-1.26.9-2.23 2.06-2.53 .25-2.2 2.26-3.82 4.58-3.82 1.56 0 2.97.72 3.81 1.86 .08-.01.17-.01.25-.01 2.03 0 3.8 1.52 3.8 3.54 0 1.55-1.07 2.82-2.47 3.31 -.35.14-.74.22-1.14.22H13.9c-.42 0-.75-.34-.75-.75 0-.42.33-.75.75-.75h4.47c.2 0 .39-.05.56-.12 .01-.01.03-.02.05-.03 .9-.31 1.47-1.08 1.47-1.91 0-1.07-.97-2.05-2.31-2.05 -.17 0-.34.01-.49.04 -.32.06-.64-.09-.8-.37 -.51-.9-1.55-1.54-2.79-1.54Z"/><path d="M9.81 2.75c1.78 0 3.11 1.3 3.11 2.78 0 .04-.01.09-.01.14 -.03.41.29.76.7.79 .41.02.76-.3.79-.71 0-.08 0-.16 0-.23 0-2.43-2.14-4.29-4.62-4.29 -1.57 0-2.98.72-3.82 1.86 -.09-.01-.18-.01-.26-.01 -2.04 0-3.81 1.52-3.81 3.54 0 1.55 1.06 2.82 2.46 3.31 .34.14.73.22 1.13.22h4.593c.41 0 .75-.34.75-.76s-.34-.75-.75-.75H5.48c-.21 0-.4-.05-.57-.12 -.02-.01-.04-.02-.06-.03 -.91-.31-1.48-1.08-1.48-1.91 0-1.07.96-2.05 2.3-2.05 .16 0 .33.01.48.04 .31.06.63-.09.79-.37 .5-.9 1.54-1.54 2.78-1.54Z"/><path d="M20.05 15.05c.24.33.16.8-.18 1.04l-1.88 1.34c-1.1.78-2.6.65-3.55-.3l-.18-.18c-.49-.49-1.28-.49-1.77 0l-.07.06c-1.02 1.01-2.65 1.07-3.74.14l-.57-.49c-.47-.4-1.15-.41-1.62-.02l-1.5 1.24c-.32.26-.8.22-1.06-.1 -.27-.32-.23-.8.09-1.06l1.49-1.25c1.03-.86 2.53-.85 3.55.02l.56.48c.49.42 1.23.39 1.69-.07l.06-.07c1.07-1.08 2.81-1.08 3.88 0l.17.17c.43.43 1.11.48 1.61.13l1.87-1.35c.33-.25.8-.17 1.04.17Z"/><path d="M20.05 19.23c.24.33.16.8-.18 1.04l-1.88 1.34c-1.1.78-2.6.65-3.55-.3l-.18-.18c-.49-.49-1.28-.49-1.77 0l-.07.06c-1.02 1.01-2.65 1.07-3.74.14l-.57-.49c-.47-.4-1.15-.41-1.62-.02l-1.5 1.24c-.32.26-.8.22-1.06-.1 -.27-.32-.23-.8.09-1.06l1.49-1.25c1.03-.86 2.53-.85 3.55.02l.56.48c.49.42 1.23.39 1.69-.07l.06-.07c1.07-1.08 2.81-1.08 3.88 0l.17.17c.43.43 1.11.48 1.61.13l1.87-1.35c.33-.25.8-.17 1.04.17Z"/></g></svg>