<svg viewBox="0 0 24 24" xmlns="http://www.w3.org/2000/svg"><g fill-rule="evenodd"><path d="M14.12 6.64c-1.79 0-3.12 1.3-3.12 2.78 0 .04 0 .09 0 .14 .01.2-.07.4-.21.55 -.15.14-.34.23-.55.23h-.01c-.78 0-1.29.55-1.29 1.11 0 .55.51 1.11 1.28 1.11 .41 0 .75.33.75.75 0 .41-.34.75-.75.75 -1.48 0-2.79-1.11-2.79-2.62 0-1.26.9-2.23 2.06-2.53 .25-2.2 2.26-3.82 4.58-3.82 1.56 0 2.97.72 3.81 1.86 .08-.01.17-.01.25-.01 2.03 0 3.8 1.52 3.8 3.54 0 1.55-1.07 2.82-2.47 3.31 -.35.14-.74.22-1.14.22h-4.48c-.42 0-.75-.34-.75-.75 0-.42.33-.75.75-.75h4.47c.2 0 .39-.05.56-.12 .01-.01.03-.02.05-.03 .9-.31 1.47-1.08 1.47-1.91 0-1.07-.97-2.05-2.31-2.05 -.17 0-.34.01-.49.04 -.32.06-.64-.09-.8-.37 -.51-.9-1.55-1.54-2.79-1.54Z"/><path d="M9.76 2.75c1.83 0 3.2 1.34 3.2 2.86 0 .04-.01.09-.01.14 -.03.41.29.76.7.79 .41.02.76-.3.79-.71 0-.08 0-.16 0-.24 0-2.48-2.18-4.37-4.71-4.37 -1.61 0-3.04.74-3.9 1.91 -.09-.01-.19-.01-.28-.01 -2.08 0-3.88 1.55-3.88 3.6 0 1.58 1.08 2.87 2.51 3.37 .35.14.74.22 1.15.22h4.7c.41 0 .75-.34.75-.75 0-.42-.34-.75-.75-.75H5.32c-.22 0-.42-.05-.59-.12 -.02-.01-.04-.02-.06-.03 -.93-.32-1.53-1.11-1.53-1.97 0-1.11.99-2.11 2.37-2.11 .17 0 .34.01.5.04 .31.06.63-.09.79-.37 .51-.92 1.59-1.59 2.86-1.59Z"/><path d="M2.67 16.28c0-.42.33-.75.75-.75h17.14c.41 0 .75.33.75.75 0 .41-.34.75-.75.75H3.41c-.42 0-.75-.34-.75-.75Z"/><path d="M6.96 19.14c0-.42.33-.75.75-.75h12.85c.41 0 .75.33.75.75 0 .41-.34.75-.75.75H7.7c-.42 0-.75-.34-.75-.75Z"/><path d="M2.67 22c0-.42.33-.75.75-.75h10.95c.41 0 .75.33.75.75 0 .41-.34.75-.75.75H3.41c-.42 0-.75-.34-.75-.75Z"/></g></svg>