<svg viewBox="0 0 24 24" xmlns="http://www.w3.org/2000/svg"><g fill-rule="evenodd"><path d="M16.03 11.29c-1.43 0-2.49 1.06-2.49 2.27 0 .03 0 .07 0 .11 .01.2-.07.4-.21.55 -.15.14-.34.23-.55.23h-.01c-.58 0-.96.42-.96.84 0 .41.37.84.95.84h3.69c.41 0 .75.33.75.75 0 .41-.34.75-.75.75h-3.7c-1.31 0-2.46-1.01-2.46-2.35 0-1.09.75-1.96 1.73-2.24 .25-1.89 1.97-3.29 3.95-3.29 1.33 0 2.52.61 3.25 1.59 .05-.01.1-.01.15-.01 1.77 0 3.3 1.35 3.3 3.13 0 1.38-.93 2.51-2.17 2.94 -.4.13-.82-.08-.96-.47 -.14-.4.07-.82.46-.96 .7-.25 1.16-.86 1.16-1.53 0-.86-.76-1.64-1.81-1.64 -.14 0-.27.01-.39.03 -.32.06-.65-.09-.81-.38 -.41-.73-1.24-1.26-2.23-1.26Z"/><path d="M11.09 2.06c.41 0 .75.33.75.75v2.27c0 .41-.34.75-.75.75 -.42 0-.75-.34-.75-.75V2.8c0-.42.33-.75.75-.75Z"/><path d="M1.25 11.9c0-.42.33-.75.75-.75h2.27c.41 0 .75.33.75.75 0 .41-.34.75-.75.75H1.99c-.42 0-.75-.34-.75-.75Z"/><path d="M11.09 17.97c.41 0 .75.33.75.75v2.27c0 .41-.34.75-.75.75 -.42 0-.75-.34-.75-.75v-2.28c0-.42.33-.75.75-.75Z"/><path d="M4.13 4.95c.29-.3.76-.3 1.06 0l1.6 1.6c.29.29.29.76 0 1.06 -.3.29-.77.29-1.07 0L4.11 6c-.3-.3-.3-.77 0-1.07Z"/><path d="M18.04 4.95c-.3-.3-.77-.3-1.07 0l-1.61 1.6c-.3.29-.3.76 0 1.06 .29.29.76.29 1.06 0L18.02 6c.29-.3.29-.77 0-1.07Z"/><path d="M6.79 16.2c-.3-.3-.77-.3-1.07 0l-1.61 1.6c-.3.29-.3.76 0 1.06 .29.29.76.29 1.06 0l1.6-1.61c.29-.3.29-.77 0-1.07Z"/><path d="M11.09 8.11c-2.1 0-3.8 1.69-3.8 3.79 0 2.09 1.69 3.79 3.79 3.79h.45c.41 0 .75.33.75.75 0 .41-.34.75-.75.75h-.46c-2.93 0-5.3-2.38-5.3-5.3 0-2.93 2.37-5.3 5.29-5.3 2.37 0 4.37 1.55 5.05 3.7 .12.39-.1.81-.5.94 -.4.12-.82-.1-.95-.5 -.49-1.55-1.93-2.66-3.63-2.66Z"/></g></svg>