<svg viewBox="0 0 24 24" xmlns="http://www.w3.org/2000/svg"><g fill-rule="evenodd"><path d="M11.06 4.75c-2.9 0-5.19 2.24-5.19 4.95 0 .08 0 .17 0 .25 .01.2-.07.4-.21.55 -.15.14-.34.23-.55.23H5.1c-1.35 0-2.38 1.03-2.38 2.25 0 1.21 1.03 2.25 2.37 2.25h12.5c.36 0 .71-.08 1.01-.22 .01-.01.03-.02.05-.03 1.5-.54 2.55-1.93 2.55-3.52 0-.63-.17-1.22-.45-1.74 -.07-.12-.14-.23-.21-.34 -.18-.26-.39-.49-.62-.69 -.32-.28-.35-.75-.07-1.06 .27-.32.74-.35 1.05-.07 .32.28.61.6.85.95 .1.15.2.3.29.47 .4.73.63 1.56.63 2.45 0 2.26-1.48 4.17-3.53 4.91 -.5.21-1.04.33-1.61.33H5.03c-2.12 0-3.88-1.66-3.88-3.75 0-1.85 1.36-3.35 3.13-3.69 .2-3.41 3.14-6.07 6.67-6.07 2.57 0 4.82 1.4 5.94 3.49 .19.36.05.81-.31 1.01 -.37.19-.82.05-1.02-.31 -.86-1.6-2.6-2.71-4.622-2.71Z"/><path d="M7.33 15.32c.37.18.52.63.33 1l-2 4c-.19.37-.64.52-1.01.33 -.38-.19-.53-.64-.34-1.01l2-4c.18-.38.63-.53 1-.34Z"/><path d="M10.83 15.32c.37.18.52.63.33 1l-2.01 4c-.19.37-.64.52-1.01.33 -.38-.19-.53-.64-.34-1.01l2-4c.18-.38.63-.53 1-.34Z"/><path d="M14.33 15.32c.37.18.52.63.33 1l-2 4c-.19.37-.64.52-1.01.33 -.38-.19-.53-.64-.34-1.01l2-4c.18-.38.63-.53 1-.34Z"/><path d="M17.83 15.32c.37.18.52.63.33 1l-2 4c-.19.37-.64.52-1.01.33 -.38-.19-.53-.64-.34-1.01l2-4c.18-.38.63-.53 1-.34Z"/></g></svg>