<svg viewBox="0 0 24 24" xmlns="http://www.w3.org/2000/svg"><g fill-rule="evenodd"><path d="M12 16.7c-2.6 0-4.71-2.11-4.71-4.71s2.1-4.71 4.7-4.71c.41 0 .75-.34.75-.75 0-.42-.34-.75-.75-.75 -3.43 0-6.21 2.77-6.21 6.2 0 3.42 2.77 6.2 6.2 6.2 3.42 0 6.2-2.78 6.2-6.21 0-1.72-.7-3.27-1.82-4.39 -.3-.3-.77-.3-1.07 0 -.3.29-.3.76 0 1.06 .85.85 1.37 2.02 1.37 3.32 0 2.59-2.11 4.7-4.71 4.7Z"/><path d="M12 1.25c.41 0 .75.33.75.75v4.54c0 .41-.34.75-.75.75 -.42 0-.75-.34-.75-.75V1.99c0-.42.33-.75.75-.75Z"/><path d="M12 16.7c.41 0 .75.33.75.75v4.54c0 .41-.34.75-.75.75 -.42 0-.75-.34-.75-.75v-4.55c0-.42.33-.75.75-.75Z"/><path d="M4.39 4.39c.29-.3.76-.3 1.06 0L8.66 7.6c.29.29.29.76 0 1.06 -.3.29-.77.29-1.07 0L4.37 5.44c-.3-.3-.3-.77 0-1.07Z"/><path d="M15.32 15.32c.29-.3.76-.3 1.06 0l3.21 3.21c.29.29.29.76 0 1.06 -.3.29-.77.29-1.07 0l-3.22-3.22c-.3-.3-.3-.77 0-1.07Z"/><path d="M19.6 4.39c-.3-.3-.77-.3-1.07 0L15.31 7.6c-.3.29-.3.76 0 1.06 .29.29.76.29 1.06 0l3.21-3.22c.29-.3.29-.77 0-1.07Z"/><path d="M8.67 15.32c-.3-.3-.77-.3-1.07 0l-3.22 3.21c-.3.29-.3.76 0 1.06 .29.29.76.29 1.06 0l3.21-3.22c.29-.3.29-.77 0-1.07Z"/><path d="M1.25 12c0-.42.33-.75.75-.75h4.54c.41 0 .75.33.75.75 0 .41-.34.75-.75.75H1.99c-.42 0-.75-.34-.75-.75Z"/><path d="M16.7 12c0-.42.33-.75.75-.75h4.54c.41 0 .75.33.75.75 0 .41-.34.75-.75.75h-4.55c-.42 0-.75-.34-.75-.75Z"/></g></svg>