<svg viewBox="0 0 24 24" xmlns="http://www.w3.org/2000/svg"><g fill-rule="evenodd"><path d="M12 16.7c-2.6 0-4.71-2.11-4.71-4.71s2.1-4.71 4.7-4.71c.44 0 .87.06 1.27.17 .39.11.81-.12.92-.52 .11-.4-.12-.82-.52-.93 -.54-.16-1.11-.24-1.69-.24 -3.43 0-6.21 2.77-6.21 6.2 0 3.42 2.77 6.2 6.2 6.2 3.42 0 6.2-2.78 6.2-6.21 0-.81-.16-1.57-.44-2.28 -.16-.39-.59-.58-.98-.43 -.39.15-.58.58-.43.97 .21.53.32 1.11.32 1.72 0 2.59-2.11 4.7-4.71 4.7Z"/><path d="M12 1.25c.41 0 .75.33.75.75v2.27c0 .41-.34.75-.75.75 -.42 0-.75-.34-.75-.75V1.99c0-.42.33-.75.75-.75Z"/><path d="M12 18.97c.41 0 .75.33.75.75v2.27c0 .41-.34.75-.75.75 -.42 0-.75-.34-.75-.75v-2.28c0-.42.33-.75.75-.75Z"/><path d="M1.25 12c0-.42.33-.75.75-.75h2.27c.41 0 .75.33.75.75 0 .41-.34.75-.75.75H1.99c-.42 0-.75-.34-.75-.75Z"/><path d="M18.97 12c0-.42.33-.75.75-.75h2.27c.41 0 .75.33.75.75 0 .41-.34.75-.75.75h-2.28c-.42 0-.75-.34-.75-.75Z"/><path d="M4.39 4.39c.29-.3.76-.3 1.06 0l1.6 1.6c.29.29.29.76 0 1.06 -.3.29-.77.29-1.07 0L4.37 5.44c-.3-.3-.3-.77 0-1.07Z"/><path d="M16.93 16.93c.29-.3.76-.3 1.06 0l1.6 1.6c.29.29.29.76 0 1.06 -.3.29-.77.29-1.07 0l-1.61-1.61c-.3-.3-.3-.77 0-1.07Z"/><path d="M19.6 4.39c-.3-.3-.77-.3-1.07 0l-1.61 1.6c-.3.29-.3.76 0 1.06 .29.29.76.29 1.06 0l1.6-1.61c.29-.3.29-.77 0-1.07Z"/><path d="M7.06 16.93c-.3-.3-.77-.3-1.07 0l-1.61 1.6c-.3.29-.3.76 0 1.06 .29.29.76.29 1.06 0l1.6-1.61c.29-.3.29-.77 0-1.07Z"/></g></svg>