<svg viewBox="0 0 24 24" xmlns="http://www.w3.org/2000/svg"><g fill-rule="evenodd"><path d="M14.9 9.73c-1.77 0-3.11 1.32-3.11 2.84 0 .04 0 .09 0 .14 .01.2-.07.4-.21.55 -.15.14-.34.23-.55.23h-.01c-.76 0-1.28.55-1.28 1.14 0 .58.52 1.14 1.27 1.14h4.32c.41 0 .75.33.75.75 0 .41-.34.75-.75.75H11c-1.49 0-2.78-1.14-2.78-2.65 0-1.26.89-2.26 2.05-2.56 .24-2.22 2.24-3.88 4.57-3.88 1.56 0 2.96.74 3.8 1.89 .08-.01.16-.01.24-.01 2.04 0 3.79 1.55 3.79 3.58 0 1.56-1.05 2.85-2.46 3.35 -.35.14-.74.22-1.14.22 -.42 0-.75-.34-.75-.75 0-.42.33-.75.75-.75 .2 0 .39-.05.55-.12 .01-.01.03-.02.05-.03 .88-.31 1.47-1.09 1.47-1.96 0-1.11-.98-2.09-2.3-2.09 -.17 0-.33.01-.49.04 -.32.06-.65-.09-.81-.38 -.51-.92-1.55-1.57-2.77-1.57Z"/><path d="M9.56 6.49c-1.98 0-3.58 1.6-3.58 3.57 0 1.82 1.36 3.32 3.12 3.54 .41.05.7.42.65.83 -.06.41-.43.7-.84.65 -2.51-.32-4.45-2.45-4.45-5.04 0-2.81 2.27-5.08 5.07-5.08 2.36 0 4.35 1.61 4.91 3.8 .1.4-.14.81-.54.91 -.41.1-.81-.14-.92-.54 -.4-1.55-1.8-2.69-3.47-2.69Z"/><path d="M9.56 1.75c.41 0 .75.33.75.75v3.24c0 .41-.34.75-.76.75s-.75-.34-.75-.75V2.49c0-.42.33-.75.75-.75Z"/><path d="M3.63 3.59c.29-.3.76-.3 1.06 0l2.27 2.27 .18.15c.31.27.34.74.07 1.05 -.28.31-.75.34-1.06.07l-.21-.18c-.02-.02-.03-.03-.04-.04l-2.3-2.3c-.3-.3-.3-.77 0-1.07Z"/><path d="M15.63 3.59c-.3-.3-.77-.3-1.07 0l-2.29 2.29 -.29.27c-.3.28-.31.76-.02 1.06 .28.29.76.3 1.06.01l.29-.29 2.29-2.3c.29-.3.29-.77 0-1.07Z"/><path d="M7.11 12.78c-.3-.3-.77-.3-1.07 0l-2.3 2.29c-.3.29-.3.76 0 1.06 .29.29.76.29 1.06 0l2.29-2.3c.29-.3.29-.77 0-1.07Z"/><path d="M1.25 10.06c0-.42.33-.76.75-.76h3.24c.41 0 .75.33.75.75 0 .41-.34.75-.75.75H1.99c-.42 0-.75-.34-.75-.75Z"/><path d="M21.52 18.821c.24.33.16.8-.18 1.04l-2.41 1.71c-1.1.78-2.6.65-3.55-.3l-.64-.64c-.49-.49-1.28-.49-1.77 0l-.52.51c-1.02 1.01-2.65 1.07-3.74.14l-1.1-.94c-.47-.4-1.15-.41-1.62-.02l-1.95 1.62c-.32.26-.8.22-1.06-.1 -.27-.32-.23-.8.09-1.06l1.94-1.63c1.03-.86 2.53-.85 3.55.02l1.09.93c.49.42 1.23.39 1.69-.07l.51-.52c1.07-1.08 2.81-1.08 3.88 0l.63.63c.43.43 1.11.48 1.61.13l2.4-1.72c.33-.25.8-.17 1.04.17Z"/></g></svg>