<svg viewBox="0 0 24 24" xmlns="http://www.w3.org/2000/svg"><g fill-rule="evenodd"><path d="M14.18 8.5c-1.61 0-2.82 1.2-2.82 2.57 0 .04 0 .08 0 .13 .01.2-.07.4-.21.55 -.15.14-.34.23-.55.23h-.01c-.68 0-1.125.49-1.125 1 0 .5.45 1 1.125 1h7.5c.17 0 .34-.04.49-.11 .01-.01.03-.02.05-.03 .8-.28 1.32-.99 1.32-1.76 0-.42.33-.75.75-.75 .41 0 .75.33.75.75 0 1.47-.99 2.68-2.31 3.15 -.33.13-.7.21-1.07.21h-7.5c-1.41 0-2.625-1.08-2.625-2.5 0-1.18.82-2.11 1.9-2.41 .25-2.07 2.11-3.6 4.28-3.6 1.64 0 3.09.87 3.82 2.19 .2.36.06.81-.3 1.01 -.37.2-.82.06-1.02-.3 -.46-.83-1.4-1.42-2.513-1.42Z"/><path d="M9.32 5.67c-1.75 0-3.16 1.41-3.16 3.15 0 1.6 1.2 2.93 2.75 3.128 .41.05.7.42.65.83 -.06.41-.43.7-.84.65 -2.3-.29-4.08-2.25-4.08-4.62 0-2.57 2.08-4.66 4.65-4.66 2.16 0 3.98 1.48 4.5 3.48 .1.4-.14.81-.54.91 -.41.1-.81-.14-.92-.54 -.35-1.36-1.59-2.37-3.06-2.37Z"/><path d="M9.32 1.25c.41 0 .75.33.75.75v2.92c0 .41-.34.75-.75.75 -.42 0-.75-.34-.75-.75V1.99c0-.42.33-.75.75-.75Z"/><path d="M3.92 2.93c.29-.3.76-.3 1.06 0l2.06 2.06c.29.29.29.76 0 1.06 -.3.29-.77.29-1.07 0L3.9 3.98c-.3-.3-.3-.77 0-1.07Z"/><path d="M14.85 2.93c-.3-.3-.77-.3-1.07 0l-2.04 2.03 -.21.16c-.33.25-.39.72-.13 1.05 .25.32.72.38 1.05.12l.24-.2c.02-.02.04-.04.06-.06l2.06-2.07c.29-.3.29-.77 0-1.07Z"/><path d="M7.16 11.22c-.3-.3-.77-.3-1.07 0l-2.07 2.06c-.3.29-.3.76 0 1.06 .29.29.76.29 1.06 0l2.06-2.07c.29-.3.29-.77 0-1.07Z"/><path d="M1.75 8.82c0-.42.33-.75.75-.75h2.92c.41 0 .75.33.75.75 0 .41-.34.75-.75.75H2.49c-.42 0-.75-.34-.75-.75Z"/><path d="M17.29 16.37c.41 0 .75.33.75.75v4.878c0 .41-.34.75-.75.75 -.42 0-.75-.34-.75-.75V17.12c0-.42.33-.75.75-.75Z"/><path d="M14.53 17.96c.2-.36.66-.49 1.02-.28l4.22 2.439c.35.2.48.66.27 1.02 -.21.35-.67.48-1.03.27l-4.23-2.439c-.36-.21-.49-.67-.28-1.03Z"/><path d="M20.05 17.96c-.21-.36-.67-.49-1.03-.28l-4.23 2.439c-.36.2-.49.66-.28 1.02 .2.35.66.48 1.02.27l4.22-2.439c.35-.21.48-.67.27-1.03Z"/><path d="M5.66 16.89c.39.13.6.55.47.94l-.98 2.92c-.14.39-.56.6-.95.47 -.4-.14-.61-.56-.48-.95l.97-2.93c.13-.4.55-.61.94-.48Z"/><path d="M9.07 16.89c.39.13.6.55.47.94l-.98 2.92c-.14.39-.56.6-.95.47 -.4-.14-.61-.56-.48-.95l.97-2.93c.13-.4.55-.61.94-.48Z"/><path d="M12.49 16.89c.39.13.6.55.47.94l-.98 2.92c-.14.39-.56.6-.95.47 -.4-.14-.61-.56-.48-.95l.97-2.93c.13-.4.55-.61.94-.48Z"/></g></svg>