<svg viewBox="0 0 24 24" xmlns="http://www.w3.org/2000/svg"><g fill-rule="evenodd"><path d="M14.93 8.75c-1.61 0-2.82 1.2-2.82 2.57 0 .04 0 .08 0 .13 .01.2-.07.4-.21.55 -.15.14-.34.23-.55.23h-.01c-.68 0-1.125.49-1.125 1 0 .5.45 1 1.125 1h7.5c.17 0 .34-.04.49-.11 .01-.01.03-.02.05-.03 .8-.28 1.32-.99 1.32-1.76 0-.42.33-.75.75-.75 .41 0 .75.33.75.75 0 1.47-.99 2.68-2.31 3.15 -.33.13-.7.21-1.07.21h-7.5c-1.41 0-2.625-1.08-2.625-2.5 0-1.18.82-2.11 1.904-2.41 .25-2.07 2.11-3.6 4.28-3.6 1.64 0 3.09.87 3.82 2.19 .2.36.06.81-.3 1.01 -.37.2-.82.06-1.02-.3 -.46-.83-1.4-1.42-2.513-1.42Z"/><path d="M9.75 5.875c-1.8 0-3.25 1.45-3.25 3.25 0 1.65 1.24 3.02 2.84 3.22 .41.05.7.42.65.83 -.06.41-.43.7-.84.65 -2.35-.3-4.16-2.3-4.16-4.72 0-2.63 2.12-4.75 4.75-4.75 2.21 0 4.07 1.51 4.6 3.56 .1.4-.14.81-.54.91 -.41.1-.81-.14-.92-.54 -.37-1.41-1.64-2.44-3.15-2.44Z"/><path d="M9.75 1.375c.41 0 .75.33.75.75v3c0 .41-.34.75-.75.75 -.42 0-.75-.34-.75-.75v-3c0-.42.33-.75.75-.75Z"/><path d="M4.21 3.09c.29-.3.76-.3 1.06 0l2.12 2.12c.29.29.29.76 0 1.06 -.3.29-.77.29-1.07 0L4.19 4.14c-.3-.3-.3-.77 0-1.07Z"/><path d="M15.4 3.09c-.3-.3-.77-.3-1.07 0L12.2 5.21l-.38.39c-.29.29-.29.77.01 1.06 .29.28.77.28 1.06-.02l.37-.39 2.11-2.12c.29-.3.29-.77 0-1.07Z"/><path d="M7.52 11.59c-.3-.3-.77-.3-1.07 0l-2.13 2.12c-.3.29-.3.76 0 1.06 .29.29.76.29 1.06 0l2.12-2.13c.29-.3.29-.77 0-1.07Z"/><path d="M2 9.125c0-.42.33-.75.75-.75h3c.41 0 .75.33.75.75 0 .41-.34.75-.75.75h-3c-.42 0-.75-.34-.75-.75Z"/><path d="M15.62 14.47c.35.2.48.66.27 1.02l-1.36 2.37h2.7c.27 0 .52.14.65.38 .13.23.12.52-.02.75l-2 3.25c-.22.35-.68.46-1.04.24 -.36-.22-.47-.68-.25-1.04l1.29-2.11H13.2c-.27 0-.52-.15-.65-.38 -.14-.24-.14-.52-.01-.75l2-3.5c.2-.36.66-.49 1.02-.28Z"/></g></svg>