<svg viewBox="0 0 24 24" xmlns="http://www.w3.org/2000/svg"><g fill-rule="evenodd"><path d="M2.5 3.5c0-.28.22-.5.5-.5h18c.27 0 .5.22.5.5v5c0 .27-.23.5-.5.5H3c-.28 0-.5-.23-.5-.5v-5Zm1 .5v4h17V4h-17Z"/><path d="M3.02 11.84c.06-.21.25-.35.47-.35h17c.21 0 .4.13.47.34l1.5 4.5c.05.15.02.32-.07.45 -.1.13-.25.2-.41.2h-20c-.17 0-.32-.08-.41-.21 -.1-.14-.12-.3-.07-.46l1.5-4.5Zm.83.65l-1.17 3.5h18.61l-1.17-3.5H3.84Z"/><path d="M19.5 8.5v3h-1v-3h1Z"/><path d="M21.5 17v4.5h-1V17h1Z"/><path d="M5.5 8.5v3h-1v-3h1Z"/><path d="M3.5 17v4.5h-1V17h1Z"/></g></svg>