<svg viewBox="0 0 24 24" xmlns="http://www.w3.org/2000/svg"><g fill-rule="evenodd"><path d="M7 10.5c-2.49 0-4.5 2.01-4.5 4.5 0 2.48 2.01 4.5 4.5 4.5 2.48 0 4.5-2.02 4.5-4.5 0-2.49-2.02-4.5-4.5-4.5ZM1.5 15c0-3.04 2.46-5.5 5.5-5.5 3.03 0 5.5 2.46 5.5 5.5 0 3.03-2.47 5.5-5.5 5.5 -3.04 0-5.5-2.47-5.5-5.5Z"/><path d="M16 14.5c-1.94 0-3.5 1.56-3.5 3.5 0 1.93 1.56 3.5 3.5 3.5 1.93 0 3.5-1.57 3.5-3.5 0-1.94-1.57-3.5-3.5-3.5ZM11.5 18c0-2.49 2.01-4.5 4.5-4.5 2.48 0 4.5 2.01 4.5 4.5 0 2.48-2.02 4.5-4.5 4.5 -2.49 0-4.5-2.02-4.5-4.5Z"/><path d="M19 9c-1.39 0-2.5 1.11-2.5 2.5 0 1.38 1.11 2.5 2.5 2.5 1.38 0 2.5-1.12 2.5-2.5 0-1.39-1.12-2.5-2.5-2.5Zm-3.5 2.5C15.5 9.56 17.06 8 19 8c1.93 0 3.5 1.56 3.5 3.5 0 1.93-1.57 3.5-3.5 3.5 -1.94 0-3.5-1.57-3.5-3.5Z"/><path d="M9.57 4.74c.13-.24.44-.32.67-.18l7 4 -.5.86 -5.72-3.27 3.42 8.13 -.93.38 -3.62-8.6 -2.5 4.15 -.86-.52 3-5Z"/><path d="M4.5 2c0-.28.22-.5.5-.5h3c1.38 0 2.5 1.11 2.5 2.5v1c0 .27-.23.5-.5.5H7C5.61 5.5 4.5 4.38 4.5 3V2Zm1 .5V3c0 .82.67 1.5 1.5 1.5h2.5V4c0-.83-.68-1.5-1.5-1.5H5.5Z"/><path d="M14.3 2.39l-4 3 -.6-.8 4-3 .6.8Z"/></g></svg>