<svg viewBox="0 0 24 24" xmlns="http://www.w3.org/2000/svg"><g fill-rule="evenodd"><path d="M13.64 19.35c.19.19.51.19.7 0l5-5c.19-.2.19-.52 0-.71l-1.59-1.59c-.98-.98-2.56-.98-3.54 0l-2.18 2.17c-.98.97-.98 2.55 0 3.53l1.58 1.58Zm.35-1.07l-1.24-1.24c-.59-.59-.59-1.54 0-2.13l2.17-2.18c.58-.59 1.53-.59 2.12 0l1.23 1.23 -4.3 4.29Z"/><path d="M18.64 13.64c.19-.2.51-.2.7 0l3 3c.19.19.19.51 0 .7l-2.5 2.5c-.13.12-.31.17-.48.13l-1.2-.3 .29 1.19c.04.17-.01.35-.14.47l-1 1c-.2.19-.52.19-.71 0l-3-3c-.2-.2-.2-.52 0-.71l5-5Zm-3.94 5.35l2.29 2.29 .44-.45 -.44-1.73c-.05-.18 0-.36.13-.48 .12-.13.3-.18.47-.14l1.72.43 1.94-1.95 -2.3-2.3 -4.3 4.29Z"/><path d="M12.14 14.85c.19.19.51.19.7 0l2-2c.19-.2.19-.52 0-.71L4.34 1.64c-.2-.2-.52-.2-.71 0l-2 2c-.2.19-.2.51-.001.7l10.5 10.5ZM2.7 3.99l1.29-1.3 9.79 9.79 -1.3 1.29 -9.8-9.8Z"/></g></svg>