<svg viewBox="0 0 24 24" xmlns="http://www.w3.org/2000/svg"><g fill-rule="evenodd"><path d="M1.64 17.14c-.2.19-.2.51 0 .7l.85.85v.79c0 .14.06.29.18.38 .11.09.26.13.41.1l1.84-.37 -.42 1.21c-.06.15-.03.32.06.45s.24.2.4.2h.79l.85.85c.19.19.51.19.7 0l.74-.75 .67.33c.15.07.33.06.48-.03 .14-.1.23-.26.23-.43v-8c0-.18-.09-.34-.24-.43 -.15-.1-.34-.1-.49-.03l-.68.33 -.75-.75c-.2-.2-.52-.2-.71 0l-.86.85h-.8c-.17 0-.32.07-.41.2 -.1.13-.12.29-.07.45l.41 1.21 -1.85-.37c-.15-.03-.3 0-.42.1 -.12.09-.19.23-.19.38v.79L1.5 17Zm1.06.35l.64-.65c.09-.1.14-.23.14-.36v-.4l1.9.38 .01 0 .19.03c.17.02.34-.04.46-.17 .11-.14.14-.32.09-.49l-.47-1.38h.3c.13 0 .25-.06.35-.15l.64-.65 .64.64c.15.15.38.18.57.09l.27-.14v6.382l-.28-.14c-.2-.1-.43-.06-.58.09l-.65.64 -.65-.65c-.1-.1-.23-.15-.36-.15H5.6l.46-1.38c.05-.17.02-.36-.1-.49 -.12-.14-.29-.2-.47-.17l-.2.03 -.02 0 -1.91.38v-.4c0-.14-.06-.26-.15-.36l-.65-.65Z"/><path d="M21.85 14.64c.19.19.19.51 0 .7l-.86.85v.79c0 .14-.07.29-.19.38 -.12.09-.27.13-.42.1l-1.85-.37 .41 1.21c.05.15.02.32-.07.45 -.1.13-.25.2-.41.2h-.8l-.86.85c-.2.19-.52.19-.71 0l-.75-.75 -.68.33c-.16.07-.34.06-.49-.03 -.15-.1-.24-.26-.24-.43v-8c0-.18.08-.34.23-.43 .14-.1.33-.1.48-.03l.67.33 .74-.75c.19-.2.51-.2.7 0l.85.85h.79c.16 0 .31.07.4.2 .09.13.11.29.06.45l-.42 1.21 1.84-.37c.14-.03.29 0 .41.1 .11.09.18.23.18.38v.79l.85.85Zm-1.07.35l-.65-.65c-.1-.1-.15-.23-.15-.36v-.4l-1.91.38 -.02 0 -.2.03c-.18.02-.35-.04-.47-.17 -.12-.14-.15-.32-.1-.49l.46-1.38h-.31c-.14 0-.26-.06-.36-.15l-.65-.65 -.65.64c-.16.15-.39.18-.58.09l-.28-.14v6.38l.27-.14c.19-.1.42-.06.57.09l.64.64 .64-.65c.09-.1.22-.15.35-.15h.3l-.47-1.38c-.06-.17-.03-.36.09-.49 .11-.14.28-.2.46-.17l.19.03 .01 0 1.9.38v-.4c0-.14.05-.26.14-.36l.64-.65Z"/><path d="M7.5 18h3v-1h-3v1Z"/><path d="M16 15.5h-3v-1h3v1Z"/><path d="M3.5 11V2h1v9h-1Z"/><path d="M14.5 8V2h1v6h-1Z"/><path d="M7.5 8.5V2h1v6.5h-1Z"/><path d="M18.5 5V2h1v3h-1Z"/></g></svg>