<svg viewBox="0 0 24 24" xmlns="http://www.w3.org/2000/svg"><g fill-rule="evenodd"><path d="M10.46 19.49l.03-.5 .49-.04c.01.14-.05.28-.15.39 -.11.1-.25.15-.4.14Zm-.52-1.06c-.01-.03-.01-.06-.01-.08 -.05-.42-.13-.99-.24-1.59 -.12-.61-.26-1.23-.45-1.77 -.19-.56-.41-.96-.61-1.17 -.51-.51-1.09-.74-1.65-.74 -.57 0-1.15.23-1.65.73 -.51.5-.74 1.08-.74 1.64 0 .56.23 1.14.73 1.64 .2.2.6.41 1.16.6 .53.18 1.16.33 1.76.44 .59.11 1.16.18 1.58.23 .02 0 .05 0 .07 0Zm.55.55c.49-.04.49-.04.49-.04l-.01-.01 -.01-.02 -.01-.04c-.01-.04-.01-.09-.02-.15 -.02-.13-.03-.31-.06-.52 -.05-.44-.13-1.03-.25-1.65 -.12-.63-.28-1.31-.48-1.91 -.21-.59-.48-1.17-.85-1.55 -.68-.68-1.51-1.03-2.36-1.03 -.86 0-1.69.35-2.36 1.02 -.68.67-1.03 1.5-1.03 2.35 0 .85.35 1.68 1.02 2.35 .37.37.95.64 1.54.84 .6.2 1.27.36 1.9.47 .62.11 1.21.19 1.64.24 .21.02.39.04.51.05 .06 0 .11.01.14.01l.03 0 .01 0 0 0s0 0 .03-.5Z"/><path d="M13.53 10.99l-.04-.5 -.5-.04c-.02.14.04.28.14.39 .1.1.24.15.39.14Zm.51-1.06c0-.03 0-.06 0-.08 .04-.42.12-.99.23-1.59 .11-.61.25-1.23.44-1.77 .18-.56.4-.96.6-1.17 .5-.51 1.08-.74 1.64-.74 .56 0 1.14.23 1.64.73s.73 1.08.73 1.64c0 .56-.24 1.14-.74 1.64 -.21.2-.61.41-1.17.6 -.54.18-1.17.33-1.77.44 -.6.11-1.17.18-1.59.23 -.03 0-.06 0-.08 0Zm-.56.55c-.5-.04-.5-.04-.5-.04l0-.01 0-.02 0-.04c0-.04 0-.09.01-.15 .01-.13.02-.31.05-.52 .05-.44.12-1.03.24-1.65 .11-.63.27-1.31.47-1.91 .2-.59.47-1.17.84-1.55 .67-.68 1.5-1.03 2.35-1.03 .85 0 1.68.35 2.35 1.02 .67.67 1.02 1.5 1.02 2.35 0 .85-.36 1.68-1.03 2.35 -.38.37-.96.64-1.55.84 -.61.2-1.28.36-1.91.47 -.63.11-1.22.19-1.65.24 -.22.02-.4.04-.52.05 -.07 0-.12.01-.15.01l-.04 0 -.02 0 -.01 0c-.01 0 0 0-.04-.5Z"/><path d="M3.35 11.14l2 2 -.71.7 -2-2 .7-.71Z"/><path d="M20.64 2.64l-2 2 .7.7 2-2 -.71-.71Z"/><path d="M15.5 18c0-1.39 1.11-2.5 2.5-2.5h2c.27 0 .5.22.5.5v2c0 1.38-1.12 2.5-2.5 2.5h-2c-.28 0-.5-.23-.5-.5v-2Zm2.5-1.5c-.83 0-1.5.67-1.5 1.5v1.5H18c.82 0 1.5-.68 1.5-1.5v-1.5H18Z"/><path d="M8.5 6c0-1.39-1.12-2.5-2.5-2.5H4c-.28 0-.5.22-.5.5v2c0 1.38 1.11 2.5 2.5 2.5h2c.27 0 .5-.23.5-.5V6ZM6 4.5c.82 0 1.5.67 1.5 1.5v1.5H6c-.83 0-1.5-.68-1.5-1.5V4.5H6Z"/></g></svg>