<svg viewBox="0 0 24 24" xmlns="http://www.w3.org/2000/svg"><g fill-rule="evenodd"><path d="M1.5 8c0-.28.22-.5.5-.5h15c.27 0 .5.22.5.5v14c0 .27-.23.5-.5.5H2c-.28 0-.5-.23-.5-.5V8Zm1 .5v13h14v-13h-14Z"/><path d="M16.5 9c0-.28.22-.5.5-.5h3c1.38 0 2.5 1.11 2.5 2.5v7c0 1.38-1.12 2.5-2.5 2.5h-3c-.28 0-.5-.23-.5-.5V9Zm1 .5v10H20c.82 0 1.5-.68 1.5-1.5v-7c0-.83-.68-1.5-1.5-1.5h-2.5Z"/><path d="M4.14 2.64l1-1 .7.7 -1 1c-.36.35-.36.93 0 1.29 .74.74.74 1.95 0 2.7l-1 1 -.71-.71 1-1c.35-.36.35-.94 0-1.3 -.75-.75-.75-1.96 0-2.71Z"/><path d="M9.14 2.64l1-1 .7.7 -1.01 1c-.36.35-.36.93 0 1.29 .74.74.74 1.95 0 2.7l-1 1 -.71-.71 1-1c.35-.36.35-.94 0-1.3 -.75-.75-.75-1.96 0-2.71Z"/><path d="M14.14 2.64l1-1 .7.7 -1 1c-.36.35-.36.93 0 1.29 .74.74.74 1.95 0 2.7l-1 1 -.71-.71 1-1c.35-.36.35-.94 0-1.3 -.75-.75-.75-1.96 0-2.71Z"/></g></svg>