<svg viewBox="0 0 24 24" xmlns="http://www.w3.org/2000/svg"><g fill-rule="evenodd"><path d="M8 5c0-.28.22-.5.5-.5h4c.27 0 .5.22.5.5v2.73l3.38 2.25c.69.46 1.11 1.24 1.11 2.08v9.92c0 .27-.23.5-.5.5h-13c-.28 0-.5-.23-.5-.5v-9.93c0-.84.41-1.62 1.11-2.09L7.98 7.7V4.96Zm1 .5V8c0 .16-.09.32-.23.41l-3.61 2.4c-.42.27-.67.74-.67 1.24v9.42h12v-9.43c0-.51-.26-.97-.67-1.25l-3.61-2.41c-.14-.1-.23-.25-.23-.42v-2.5h-3Z"/><path d="M7 2c0-.28.22-.5.5-.5h6c.27 0 .5.22.5.5v3c0 .27-.23.5-.5.5h-6c-.28 0-.5-.23-.5-.5V2Zm1 .5v2h5v-2H8Z"/><path d="M10.14 10.14c.19-.2.51-.2.7 0l.85.85h.79c.14 0 .29.06.38.18 .09.11.13.26.1.41l-.37 1.84L13.8 13c.15-.06.32-.03.45.06s.2.24.2.4v.79l.85.85c.19.19.19.51 0 .7l-.75.74 .33.67c.07.15.06.33-.03.48 -.1.14-.26.23-.43.23h-8c-.18 0-.34-.09-.43-.24 -.1-.15-.1-.34-.03-.49l.33-.68 -.75-.75c-.2-.2-.2-.52 0-.71l.85-.86v-.8c0-.17.07-.32.2-.41 .13-.1.29-.12.45-.07l1.21.41 -.37-1.85c-.03-.15 0-.3.1-.42 .09-.12.23-.19.38-.19h.79L10 10Zm.35 1.06l-.65.64c-.1.09-.23.14-.36.14h-.4l.38 1.9 0 .01 .03.19c.02.17-.04.34-.17.46 -.14.11-.32.14-.49.09l-1.38-.47v.3c0 .13-.06.25-.15.35l-.65.64 .64.64c.15.15.18.38.09.57l-.14.27h6.38l-.14-.28c-.1-.2-.06-.43.09-.58l.64-.65 -.65-.65c-.1-.1-.15-.23-.15-.36v-.31l-1.38.46c-.17.05-.36.02-.49-.1 -.14-.12-.2-.29-.17-.47l.03-.2 0-.02 .38-1.91h-.4c-.14 0-.26-.06-.36-.15l-.65-.65Z"/><path d="M11 16v3h-1v-3h1Z"/><path d="M18 7.5h-5.5v-1H18c1.38 0 2.5 1.11 2.5 2.5v1c0 1.38-1.12 2.5-2.5 2.5h-1v-1h1c.82 0 1.5-.68 1.5-1.5V9c0-.83-.68-1.5-1.5-1.5Z"/></g></svg>