<svg viewBox="0 0 24 24" xmlns="http://www.w3.org/2000/svg"><g fill-rule="evenodd"><path d="M12 1.5c.15 0 .3.07.4.2l1.24 1.66 1.62-.82c.16-.09.36-.07.516.04 .15.1.22.29.2.47l-.72 5.02 2.4-1.99c.14-.13.35-.15.53-.07 .17.08.28.25.28.45v2h2.5c.16 0 .31.07.4.2 .09.13.11.29.06.45l-.89 2.65 1.71 1.28c.14.11.22.29.19.48 -.03.18-.16.33-.34.39l-6.43 2.14 .72 1.68c.07.17.04.37-.08.52 -.13.14-.32.2-.51.16l-3.88-.97 -3.88.96c-.19.04-.38-.02-.51-.17 -.13-.15-.16-.35-.08-.53l.72-1.69 -6.43-2.15c-.18-.06-.31-.22-.34-.4 -.03-.19.04-.37.19-.49l1.71-1.29 -.89-2.66c-.06-.16-.03-.33.06-.46 .09-.14.24-.21.4-.21h2.5v-2c0-.2.11-.37.28-.46 .17-.09.38-.06.53.06l2.4 1.98 -.72-5.03c-.03-.19.05-.37.2-.48 .15-.11.34-.13.51-.05l1.62.81 1.24-1.67c.09-.13.24-.2.4-.2Zm0 1.33l-1.1 1.46c-.15.19-.41.25-.63.14l-1.15-.58 .76 5.35c.02.2-.08.4-.26.5 -.18.1-.41.08-.57-.05L6.46 7.52v1.44c0 .27-.23.5-.5.5H3.65l.78 2.34c.06.2-.01.42-.18.55l-1.24.92 6.03 2.01c.13.04.24.14.29.26 .05.12.05.27 0 .4l-.55 1.26 3.02-.76c.07-.02.16-.02.24 0l3.02.75 -.55-1.27c-.06-.13-.06-.28 0-.41 .05-.13.16-.23.29-.27l6.03-2.02 -1.24-.93c-.18-.13-.25-.36-.18-.56l.78-2.35h-2.31c-.28 0-.5-.23-.5-.5V7.43l-2.59 2.12c-.16.13-.39.15-.57.04 -.18-.11-.28-.31-.26-.51l.76-5.36 -1.15.57c-.22.1-.48.04-.63-.15l-1.1-1.47Z"/><path d="M11.5 22V9h1v13h-1Z"/><path d="M11.7 15.4l-4-3 .6-.8 3.7 2.77 3.7-2.78 .6.8 -4 3c-.18.13-.43.13-.6 0Z"/></g></svg>