<svg viewBox="0 0 24 24" xmlns="http://www.w3.org/2000/svg"><g fill-rule="evenodd"><path d="M7.5 6c0-1.94 1.56-3.5 3.5-3.5h2c1.93 0 3.5 1.56 3.5 3.5v16c0 .27-.23.5-.5.5H8c-.28 0-.5-.23-.5-.5V6ZM11 3.5C9.61 3.5 8.5 4.61 8.5 6v15.5h7V6c0-1.39-1.12-2.5-2.5-2.5h-2Z"/><path d="M10 19.5c0-1.11.89-2 2-2 1.1 0 2 .89 2 2V22c0 .27-.23.5-.5.5h-3c-.28 0-.5-.23-.5-.5v-2.5Zm2-1c-.56 0-1 .44-1 1v2h2v-2c0-.56-.45-1-1-1Z"/><path d="M12 8c-.56 0-1 .44-1 1 0 .55.44 1 1 1 .55 0 1-.45 1-1 0-.56-.45-1-1-1Zm-2 1c0-1.11.89-2 2-2 1.1 0 2 .89 2 2 0 1.1-.9 2-2 2 -1.11 0-2-.9-2-2Z"/><path d="M19.35 2.35l-6 6 -.71-.71 6-6 .7.7Z"/><path d="M4.64 2.35l5.99 6 .7-.71 -6-6 -.71.7Z"/><path d="M19.35 15.64l-6-6 -.71.7 6 6 .7-.71Z"/><path d="M4.64 15.64l5.99-6 .7.7 -6 6 -.71-.71Z"/><path d="M20 22.5H4v-1h16v1Z"/></g></svg>