<svg viewBox="0 0 24 24" xmlns="http://www.w3.org/2000/svg"><g fill-rule="evenodd"><path d="M11.06 2.5c-3.03 0-5.44 2.34-5.44 5.2 0 .09 0 .18 0 .27 0 .13-.05.27-.14.37 -.1.09-.23.15-.37.15H5.1c-1.47 0-2.625 1.13-2.625 2.5 0 1.36 1.15 2.5 2.625 2.5h12.5c.4 0 .78-.09 1.11-.24 .01-.01.02-.02.03-.02 1.59-.58 2.71-2.05 2.71-3.75 0-2.2-1.86-4-4.19-4 -.3 0-.59.02-.87.08 -.22.04-.44-.06-.54-.26 -.9-1.68-2.73-2.84-4.85-2.84ZM4.62 7.53c.09-3.37 2.95-6.04 6.43-6.04 2.35 0 4.42 1.21 5.54 3.04 .23-.04.46-.05.7-.05 2.84 0 5.18 2.21 5.18 5 0 2.15-1.41 3.97-3.37 4.68 -.47.2-.98.31-1.52.31H5.08c-1.99 0-3.625-1.548-3.625-3.5 0-1.79 1.37-3.24 3.12-3.47Z"/><path d="M6.87 16.16l-.38.33 -.38-.34c.09-.11.23-.17.37-.17 .14 0 .27.06.37.16Zm-.38 1.11c-.11.13-.23.28-.35.45 -.19.25-.36.51-.48.75 -.14.25-.18.42-.18.51 0 .55.44 1 1 1 .55 0 1-.45 1-1 0-.09-.05-.26-.18-.52 -.13-.25-.3-.51-.48-.76 -.12-.17-.24-.32-.35-.46Zm0-.78c-.38-.34-.38-.34-.38-.34l-.01 0 -.01 0 -.02.01c-.02.01-.03.03-.06.05 -.05.04-.11.12-.18.2 -.15.17-.35.41-.54.69 -.2.27-.4.57-.56.88 -.15.28-.29.63-.29.96 0 1.1.89 2 2 2 1.1 0 2-.9 2-2 0-.34-.15-.69-.29-.97 -.16-.31-.36-.62-.56-.89 -.2-.28-.4-.52-.54-.7 -.08-.09-.14-.16-.18-.21 -.03-.03-.04-.05-.06-.06l-.02-.02 -.01-.01 -.01-.01c-.01-.01 0 0-.38.33Z"/><path d="M12.37 17.66l-.38.33 -.38-.34c.09-.11.23-.17.37-.17 .14 0 .27.06.37.16Zm-.38 1.11c-.11.13-.23.28-.35.45 -.19.25-.36.51-.48.75 -.14.25-.18.42-.18.51 0 .55.44 1 1 1 .55 0 1-.45 1-1 0-.09-.05-.26-.18-.52 -.13-.25-.3-.51-.48-.76 -.12-.17-.24-.32-.35-.46Zm0-.78c-.38-.34-.38-.34-.38-.34l-.01 0 -.01 0 -.02.01c-.02.01-.03.03-.06.05 -.05.04-.11.12-.18.2 -.15.17-.35.41-.54.69 -.2.27-.4.57-.56.88 -.15.28-.29.63-.29.96 0 1.1.89 2 2 2 1.1 0 2-.9 2-2 0-.34-.15-.69-.29-.97 -.16-.31-.36-.62-.56-.89 -.2-.28-.4-.52-.54-.7 -.08-.09-.14-.16-.18-.21 -.03-.03-.04-.05-.06-.06l-.02-.02 -.01-.01 -.01-.01c0-.01 0 0-.38.33Z"/><path d="M17.87 16.16l-.38.33 -.38-.34c.09-.11.23-.17.37-.17 .14 0 .27.06.37.16Zm-.38 1.11c-.11.13-.23.28-.35.45 -.19.25-.36.51-.48.75 -.14.25-.18.42-.18.51 0 .55.44 1 1 1 .55 0 1-.45 1-1 0-.09-.05-.26-.18-.52 -.13-.25-.3-.51-.48-.76 -.12-.17-.24-.32-.35-.46Zm0-.78c-.38-.34-.38-.34-.38-.34l-.01 0 -.01 0 -.02.01c-.02.01-.03.03-.06.05 -.05.04-.11.12-.18.2 -.15.17-.35.41-.54.69 -.2.27-.4.57-.56.88 -.15.28-.29.63-.29.96 0 1.1.89 2 2 2 1.1 0 2-.9 2-2 0-.34-.15-.69-.29-.97 -.16-.31-.36-.62-.56-.89 -.2-.28-.4-.52-.54-.7 -.08-.09-.14-.16-.18-.21 -.03-.03-.04-.05-.06-.06l-.02-.02 -.01-.01 -.01-.01c0-.01 0 0-.38.33Z"/></g></svg>