<svg viewBox="0 0 24 24" xmlns="http://www.w3.org/2000/svg"><g fill-rule="evenodd"><path d="M7 10.5c-2.49 0-4.5 2.01-4.5 4.5 0 .55.25 1.24.71 2 .44.74 1.04 1.51 1.66 2.2 .61.68 1.22 1.29 1.68 1.72 .16.15.31.29.43.4 .12-.11.26-.25.43-.41 .46-.44 1.07-1.04 1.68-1.73 .61-.7 1.21-1.46 1.66-2.21 .45-.76.71-1.45.71-2.01 0-2.49-2.02-4.5-4.5-4.5ZM7 22c-.33.38-.33.38-.33.38l-.01-.01 -.02-.01 -.05-.04c-.04-.04-.1-.09-.17-.15 -.14-.13-.34-.31-.58-.53 -.48-.45-1.12-1.08-1.75-1.8 -.64-.72-1.29-1.53-1.78-2.36 -.49-.82-.86-1.689-.86-2.52 0-3.04 2.46-5.5 5.5-5.5 3.03 0 5.5 2.46 5.5 5.5 0 .82-.37 1.7-.86 2.51 -.5.82-1.14 1.63-1.78 2.35 -.64.71-1.28 1.34-1.75 1.79 -.24.22-.44.4-.58.52 -.07.06-.13.11-.17.14l-.05.03 -.02.01 -.01 0c-.01 0-.01 0-.33-.39Zm0 0l.32.38c-.19.15-.47.15-.65 0l.32-.39Z"/><path d="M14 2.5c-3.59 0-6.5 2.91-6.5 6.5v1h-1V9c0-4.15 3.35-7.5 7.5-7.5h1c4.14 0 7.5 3.35 7.5 7.5v1c0 2.48-2.02 4.5-4.5 4.5 -2.49 0-4.5-2.02-4.5-4.5V7.5h1V10c0 1.93 1.56 3.5 3.5 3.5 1.93 0 3.5-1.57 3.5-3.5V9c0-3.59-2.92-6.5-6.5-6.5h-1Z"/><path d="M17.5 19v-5h1v5c0 1.93-1.57 3.5-3.5 3.5H7v-1h8c1.38 0 2.5-1.12 2.5-2.5Z"/><path d="M2 9.17c0-1.29 1.5-1.98 2.47-1.14l1.84 1.58 -.66.75L3.8 8.77c-.33-.28-.83-.05-.83.37v3.82h-1V9.13Z"/><path d="M12 9.17c0-1.29-1.51-1.98-2.48-1.14L7.67 9.61l.65.75 1.84-1.59c.32-.28.82-.05.82.37v3.82h1V9.13Z"/></g></svg>