<svg viewBox="0 0 24 24" xmlns="http://www.w3.org/2000/svg"><g fill-rule="evenodd"><path d="M16.64 6.64c.19-.2.51-.2.7 0l3.53 3.53c1.03 1.03 1.61 2.43 1.61 3.88v5.42c0 1.65-1.35 3-3 3h-5.43c-1.46 0-2.86-.58-3.89-1.62l-3.54-3.54c-.2-.2-.2-.52 0-.71l9.99-10Zm.35 1.06l-9.3 9.29 3.18 3.18c.84.84 1.98 1.31 3.18 1.31h5.42c1.1 0 2-.9 2-2v-5.43c0-1.2-.48-2.34-1.32-3.19l-3.19-3.19Z"/><path d="M5.81 4.47c1.75-1.76 4.6-1.76 6.364 0l3.67 3.67c.19.19.19.51 0 .7l-7 7c-.2.19-.52.19-.71 0l-3.68-3.68c-1.76-1.76-1.76-4.61 0-6.37l1.34-1.35Zm5.65.7c-1.37-1.37-3.59-1.37-4.95 0L5.16 6.51c-1.37 1.36-1.37 3.58 0 4.94l3.31 3.31 6.29-6.3 -3.32-3.32Z"/><path d="M12.35 16.35l-3.01 3 -.71-.71 3-3 .7.7Z"/><path d="M14.64 17.64l4-4 .7.7 -4 4 -.71-.71Z"/></g></svg>