<svg viewBox="0 0 24 24" xmlns="http://www.w3.org/2000/svg"><g fill-rule="evenodd"><path d="M11.5 10.5C11.5 9.11 12.61 8 14 8h2c.27 0 .5.22.5.5v2c0 1.38-1.12 2.5-2.5 2.5h-2c-.28 0-.5-.23-.5-.5v-2ZM14 9c-.83 0-1.5.67-1.5 1.5V12H14c.82 0 1.5-.68 1.5-1.5V9H14Z"/><path d="M12.5 10.5C12.5 9.11 11.38 8 10 8H8c-.28 0-.5.22-.5.5v2c0 1.38 1.11 2.5 2.5 2.5h2c.27 0 .5-.23.5-.5v-2ZM10 9c.82 0 1.5.67 1.5 1.5V12H10c-.83 0-1.5-.68-1.5-1.5V9H10Z"/><path d="M11.5 16c0-1.39 1.11-2.5 2.5-2.5h2c.27 0 .5.22.5.5v2c0 1.38-1.12 2.5-2.5 2.5h-2c-.28 0-.5-.23-.5-.5v-2Zm2.5-1.5c-.83 0-1.5.67-1.5 1.5v1.5H14c.82 0 1.5-.68 1.5-1.5v-1.5H14Z"/><path d="M12.5 16c0-1.39-1.12-2.5-2.5-2.5H8c-.28 0-.5.22-.5.5v2c0 1.38 1.11 2.5 2.5 2.5h2c.27 0 .5-.23.5-.5v-2ZM10 14.5c.82 0 1.5.67 1.5 1.5v1.5H10c-.83 0-1.5-.68-1.5-1.5v-1.5H10Z"/><path d="M11.5 22V7h1v15h-1Z"/><path d="M12.36 1.65l-.37.34 -.37-.35c.09-.1.22-.16.36-.16 .13 0 .26.05.36.15Zm-.37 1.09c-.18.19-.39.45-.61.73 -.25.31-.48.65-.65.96 -.19.32-.26.55-.26.68 0 .72.64 1.375 1.5 1.375 .85 0 1.5-.65 1.5-1.375 0-.13-.08-.36-.26-.69 -.18-.32-.41-.65-.65-.97 -.22-.28-.43-.54-.61-.74Zm0-.75c-.37-.35-.37-.35-.37-.35l-.01 0 -.01 0 -.02.01c-.02.01-.04.04-.07.07 -.06.06-.14.14-.24.25 -.2.21-.46.52-.71.85 -.26.33-.53.71-.73 1.08 -.2.35-.38.77-.38 1.16 0 1.34 1.15 2.375 2.5 2.375 1.34 0 2.5-1.04 2.5-2.375 0-.4-.18-.82-.38-1.17 -.21-.38-.48-.76-.73-1.09 -.26-.34-.52-.65-.71-.86 -.1-.11-.18-.2-.24-.26 -.03-.04-.06-.06-.07-.08l-.02-.02 -.01-.01 -.01-.01c-.01-.01-.01-.01-.37.34Z"/></g></svg>