<svg viewBox="0 0 24 24" xmlns="http://www.w3.org/2000/svg"><g fill-rule="evenodd"><path d="M7 6c-.56 0-1 .44-1 1 0 .55.44 1 1 1 .55 0 1-.45 1-1 0-.56-.45-1-1-1ZM5 7c0-1.11.89-2 2-2 1.1 0 2 .89 2 2 0 1.1-.9 2-2 2 -1.11 0-2-.9-2-2Z"/><path d="M17 11c-.56 0-1 .44-1 1 0 .55.44 1 1 1 .55 0 1-.45 1-1 0-.56-.45-1-1-1Zm-2 1c0-1.11.89-2 2-2 1.1 0 2 .89 2 2 0 1.1-.9 2-2 2 -1.11 0-2-.9-2-2Z"/><path d="M12.35 2.35l-4.01 4 -.71-.71 4-4 .7.7Z"/><path d="M22.35 7.35l-4 3.99 -.71-.71 4-4 .7.7Z"/><path d="M1.64 2.35l4 4 .7-.71 -4-4 -.71.7Z"/><path d="M11.64 7.35l4 3.99 .7-.71 -4-4 -.71.7Z"/><path d="M12.35 11.64l-4.01-4 -.71.7 4 3.99 .7-.71Z"/><path d="M22.35 16.64l-4-4 -.71.7 4 4 .7-.71Z"/><path d="M1.64 11.64l4-4 .7.7 -4 3.99 -.71-.71Z"/><path d="M11.64 16.64l4-4 .7.7 -4 4 -.71-.71Z"/><path d="M22 22.5H2v-1h20v1Z"/><path d="M7 8c.23 0 .43.16.48.39l3 13.5c.03.14-.01.3-.1.42 -.1.11-.24.18-.39.18h-6c-.16 0-.3-.07-.4-.19 -.1-.12-.14-.28-.1-.43l3-13.5c.05-.23.25-.4.48-.4ZM4.62 21.5h4.75L6.99 10.8 4.61 21.49Z"/><path d="M17 13c.23 0 .43.15.48.38l2 8.5c.03.14 0 .3-.1.42 -.1.11-.24.18-.4.18h-4c-.16 0-.3-.07-.4-.19 -.1-.12-.13-.28-.1-.43l2-8.5c.05-.23.25-.39.48-.39Zm-1.37 8.5h2.73l-1.37-5.817 -1.37 5.817Z"/></g></svg>