<svg viewBox="0 0 24 24" xmlns="http://www.w3.org/2000/svg"><g fill-rule="evenodd"><path d="M4.52 21.34l1-3 .94.31 -1 3 -.95-.32Z"/><path d="M1.5 12c0-1.66 1.34-3 3-3 1.65 0 3 1.34 3 3v2.5h9V12c0-1.66 1.34-3 3-3 1.65 0 3 1.34 3 3 0 1.3-.84 2.41-2 2.82v1.67c0 1.38-1.12 2.5-2.5 2.5H6c-1.39 0-2.5-1.12-2.5-2.5v-1.68c-1.17-.42-2-1.53-2-2.83Zm3-2c-1.11 0-2 .89-2 2 0 .96.68 1.77 1.59 1.96 .23.04.4.25.4.49v2.05c0 .82.67 1.5 1.5 1.5h12c.82 0 1.5-.68 1.5-1.5v-2.05c0-.24.16-.45.4-.49 .91-.19 1.59-1 1.59-1.96 0-1.11-.9-2-2-2 -1.11 0-2 .89-2 2v3c0 .27-.23.5-.5.5h-10c-.28 0-.5-.23-.5-.5v-3c0-1.11-.9-2-2-2Z"/><path d="M8.5 3C6.56 3 5 4.56 5 6.5v3H4v-3C4 4.01 6.01 2 8.5 2h7C17.98 2 20 4.01 20 6.5v3h-1v-3C19 4.56 17.43 3 15.5 3h-7Z"/><path d="M19.47 21.34l-1-3 -.95.31 1 3 .94-.32Z"/></g></svg>