<svg viewBox="0 0 24 24" xmlns="http://www.w3.org/2000/svg"><g fill-rule="evenodd"><path d="M1.5 11c0-.28.22-.5.5-.5h20c.27 0 .5.22.5.5v4c0 2.48-2.02 4.5-4.5 4.5H6c-2.49 0-4.5-2.02-4.5-4.5v-4Zm1 .5V15c0 1.93 1.56 3.5 3.5 3.5h12c1.93 0 3.5-1.57 3.5-3.5v-3.5h-19Z"/><path d="M4.5 19c0-.28.22-.5.5-.5h4c.27 0 .5.22.5.5v1.5c0 .82-.68 1.5-1.5 1.5H6c-.83 0-1.5-.68-1.5-1.5V19Zm1 .5v1c0 .27.22.5.5.5h2c.27 0 .5-.23.5-.5v-1h-3Z"/><path d="M15 19c0-.28.22-.5.5-.5h4c.27 0 .5.22.5.5v1.5c0 .82-.68 1.5-1.5 1.5h-2c-.83 0-1.5-.68-1.5-1.5V19Zm1 .5v1c0 .27.22.5.5.5h2c.27 0 .5-.23.5-.5v-1h-3Z"/><path d="M1.5 9c0-3.59 2.91-6.5 6.5-6.5h2c.27 0 .5.22.5.5v8c0 .27-.23.5-.5.5H2c-.28 0-.5-.23-.5-.5V9ZM8 3.5C4.96 3.5 2.5 5.96 2.5 9v1.5h7v-7H8Z"/><path d="M3.5 11c0 1.38 1.11 2.5 2.5 2.5 1.38 0 2.5-1.12 2.5-2.5h1c0 1.93-1.57 3.5-3.5 3.5 -1.94 0-3.5-1.57-3.5-3.5h1Z"/><path d="M9.5 11c0 1.38 1.11 2.5 2.5 2.5 1.38 0 2.5-1.12 2.5-2.5h1c0 1.93-1.57 3.5-3.5 3.5 -1.94 0-3.5-1.57-3.5-3.5h1Z"/><path d="M15.5 11c0 1.38 1.11 2.5 2.5 2.5 1.38 0 2.5-1.12 2.5-2.5h1c0 1.93-1.57 3.5-3.5 3.5 -1.94 0-3.5-1.57-3.5-3.5h1Z"/></g></svg>