<svg viewBox="0 0 24 24" xmlns="http://www.w3.org/2000/svg"><g fill-rule="evenodd"><path d="M4.82 13.91c-.4-.4-1.03-.4-1.42 0 -.4.39-.4 1.02 0 1.41l2.93 2.93c.18.18.44.29.7.29h9.49c.1 0 .21.03.3.1l2.4 1.8c.44.33 1.06.24 1.4-.2 .33-.45.24-1.07-.2-1.4l-2.8-2.1c-.18-.13-.39-.2-.6-.2H7.64c-.14 0-.26-.06-.36-.15l-2.5-2.5Zm-2.13-.71c.78-.79 2.04-.79 2.82 0l2.35 2.35h9.17c.43 0 .85.14 1.2.4l2.8 2.1c.88.66 1.06 1.91.4 2.8 -.67.88-1.92 1.06-2.8.4l-2.27-1.7H7.02c-.54 0-1.04-.22-1.42-.59l-2.94-2.94c-.79-.79-.79-2.05 0-2.83Z"/><path d="M6.46 21.68l1-2.5 -.93-.38 -1 2.5 .92.37Z"/><path d="M14.53 21.68l-1-2.5 .92-.38 1 2.5 -.93.37Z"/><path d="M13.5 7.5V16h-1V7.5h1Z"/><path d="M7.52 7.5h10.95c-.26-2.81-2.61-5-5.48-5 -2.87 0-5.23 2.19-5.48 5ZM6.49 8c0-3.59 2.91-6.5 6.5-6.5 3.58 0 6.5 2.91 6.5 6.5 0 .27-.23.5-.5.5h-12c-.28 0-.5-.23-.5-.5Z"/></g></svg>