<svg viewBox="0 0 24 24" xmlns="http://www.w3.org/2000/svg"><g fill-rule="evenodd"><path d="M4.43 3.93c.77-1.5 2.31-2.44 3.99-2.44h7.12c1.68 0 3.22.93 3.99 2.43l2.43 4.72c.32.63.5 1.34.5 2.06v6.33c0 .32-.04.65-.11.97l-.21.93c-.46 2.05-2.29 3.52-4.4 3.52H6.15c-2.11 0-3.94-1.47-4.4-3.53l-.21-.94c-.08-.33-.11-.65-.11-.98v-6.34c0-.72.17-1.43.5-2.07l2.43-4.73Zm3.99-1.44c-1.31 0-2.51.73-3.12 1.89L2.86 9.1c-.26.49-.39 1.04-.39 1.6v6.33c0 .25.02.51.08.75l.2.93c.35 1.6 1.77 2.74 3.41 2.74h11.58c1.64 0 3.06-1.14 3.41-2.75l.2-.94c.05-.25.08-.51.08-.76v-6.34c0-.56-.14-1.11-.39-1.61L18.6 4.32c-.61-1.17-1.81-1.9-3.12-1.9H8.35Z"/><path d="M16.71 16.26c-2.93-1.67-6.506-1.67-9.43 0l-2.04 1.16 -.5-.87 2.03-1.17c3.22-1.85 7.19-1.85 10.41 0l2.03 1.16 -.5.86 -2.04-1.17Z"/><path d="M17.5 9.5c-1.94 0-3.5 1.56-3.5 3.5v1.23h-1v-1.24c0-2.49 2.01-4.5 4.5-4.5h.5v1h-.5Z"/><path d="M6.5 9.5c1.93 0 3.5 1.56 3.5 3.5v1.23h1v-1.24c0-2.49-2.02-4.5-4.5-4.5H6v1h.5Z"/></g></svg>