<svg viewBox="0 0 24 24" xmlns="http://www.w3.org/2000/svg"><g fill-rule="evenodd"><path d="M7.75 5.59c-.24-.8-1.08-1.25-1.87-1.01l-.48.14 2.85 9.52c.12.42.51.71.95.71h7.5v-.5c0-.83-.68-1.5-1.5-1.5H10.31c-.23 0-.42-.15-.48-.36L7.72 5.57ZM5.59 3.62c1.32-.4 2.71.35 3.11 1.67l1.99 6.65h4.51c1.38 0 2.5 1.11 2.5 2.5v1c0 .27-.23.5-.5.5H9.19c-.89 0-1.67-.58-1.92-1.43l-3-10c-.04-.13-.03-.27.03-.39s.16-.21.29-.25l.95-.29Z"/><path d="M16.71 15.96h-2.5v-1h2.5c1.65 0 3 1.34 3 3 0 1.65-1.35 3-3 3h-6.36c-1.51 0-2.91-.76-3.75-2.01l-.82-1.22 .83-.56 .81 1.21c.64.97 1.74 1.55 2.91 1.55h6.35c1.1 0 2-.9 2-2 0-1.11-.9-2-2-2Z"/><path d="M15 9.5H9.5v-1H15v1Z"/><path d="M12.5 12.5V9h1v3.5h-1Z"/></g></svg>