<svg viewBox="0 0 24 24" xmlns="http://www.w3.org/2000/svg"><g fill-rule="evenodd"><path d="M1.5 12.5c0-.28.22-.5.5-.5h20c.27 0 .5.22.5.5v3c0 .27-.23.5-.5.5H2c-.28 0-.5-.23-.5-.5v-3Zm1 .5v2h19v-2h-19Z"/><path d="M21.46 15.3c-.08-.19-.26-.31-.47-.31h-3c-.28 0-.5.22-.5.5v3c0 .2.12.38.3.46 .18.07.4.03.54-.11l3-3c.14-.15.18-.36.1-.55Zm-1.67.69l-1.3 1.29v-1.3h1.29Z"/><path d="M6.5 5.5c0-.28-.23-.5-.5-.5H3c-.28 0-.5.22-.5.5v7c0 .27.22.5.5.5h3c.27 0 .5-.23.5-.5v-7Zm-1 .5v6h-2V6h2Z"/><path d="M9.16 12.51c.11.25.41.35.66.24l2.71-1.27c.25-.12.35-.42.24-.67L9.81 4.46c-.12-.26-.42-.36-.67-.25L6.42 5.47c-.26.11-.36.41-.25.66l2.95 6.34Zm.69-.88L7.31 6.19l1.81-.85 2.53 5.43 -1.82.84Z"/><path d="M21 13c.27 0 .5-.23.5-.5v-3c0-.28-.23-.5-.5-.5h-7c-.28 0-.5.22-.5.5v3c0 .27.22.5.5.5h7Zm-.5-1h-6v-2h6v2Z"/><path d="M5.5 16v1.29l-1.3-1.3h1.29Zm1-.5c0-.28-.23-.5-.5-.5H3c-.21 0-.39.12-.47.3 -.08.18-.04.4.1.54l3 3c.14.14.35.18.54.1 .18-.08.3-.26.3-.47v-3Z"/></g></svg>