<svg viewBox="0 0 24 24" xmlns="http://www.w3.org/2000/svg"><g fill-rule="evenodd"><path d="M1.5 12.5c0-.28.22-.5.5-.5h20c.27 0 .5.22.5.5v3c0 .27-.23.5-.5.5H2c-.28 0-.5-.23-.5-.5v-3Zm1 .5v2h19v-2h-19Z"/><path d="M16.5 15.5c0-.28.22-.5.5-.5h3c.27 0 .5.22.5.5v3c0 .27-.23.5-.5.5h-3c-.28 0-.5-.23-.5-.5v-3Zm1 .5v2h2v-2h-2Z"/><path d="M16.5 5.5c0-.28.22-.5.5-.5h3c.27 0 .5.22.5.5v7c0 .27-.23.5-.5.5h-3c-.28 0-.5-.23-.5-.5v-7Zm1 .5v6h2V6h-2Z"/><path d="M12.5 5.5c0-.28.22-.5.5-.5h3c.27 0 .5.22.5.5v7c0 .27-.23.5-.5.5h-3c-.28 0-.5-.23-.5-.5v-7Zm1 .5v6h2V6h-2Z"/><path d="M6 13c-.28 0-.5-.23-.5-.5v-3c0-.28.22-.5.5-.5h7c.27 0 .5.22.5.5v3c0 .27-.23.5-.5.5H6Zm.5-1h6v-2h-6v2Z"/><path d="M3.5 15.5c0-.28.22-.5.5-.5h3c.27 0 .5.22.5.5v3c0 .27-.23.5-.5.5H4c-.28 0-.5-.23-.5-.5v-3Zm1 .5v2h2v-2h-2Z"/></g></svg>