<svg viewBox="0 0 24 24" xmlns="http://www.w3.org/2000/svg"><g fill-rule="evenodd"><path d="M3.5 2c0-.28.22-.5.5-.5h16c.27 0 .5.22.5.5v18c0 .27-.23.5-.5.5H4c-.28 0-.5-.23-.5-.5V2Zm1 .5v17h15v-17h-15Z"/><path d="M20 15.5H4v-1h16v1Z"/><path d="M20 9H4V8h16v1Z"/><path d="M10.5 17h3v1h-3v-1Z"/><path d="M6 20v2H5v-2h1Z"/><path d="M19.5 20v2h-1v-2h1Z"/><path d="M9.5 12v3h-1v-3h1Z"/><path d="M7.5 5v3h-1V5h1Z"/><path d="M12 12v3h-1v-3h1Z"/><path d="M14.5 5v3h-1V5h1Z"/><path d="M17.5 12v3h-1v-3h1Z"/><path d="M17.5 5v3h-1V5h1Z"/></g></svg>