<svg viewBox="0 0 24 24" xmlns="http://www.w3.org/2000/svg"><g fill-rule="evenodd"><path d="M1.5 9c0-.28.22-.5.5-.5h20c.27 0 .5.22.5.5v3.67c0 .99-.96 1.71-1.92 1.44l-1.51-.44c-.27-.08-.56-.08-.83 0L16 14.3c-.45.12-.93.12-1.38 0l-2.24-.64c-.27-.08-.56-.08-.83 0l-2.24.63c-.45.12-.93.12-1.38 0l-2.24-.64c-.27-.08-.56-.08-.83 0l-1.51.43c-.96.27-1.92-.45-1.92-1.45V8.95Zm1 .5v3.17c0 .33.31.57.63.48l1.5-.44c.44-.13.92-.13 1.37 0l2.23.63c.26.07.55.07.82 0l2.23-.64c.44-.13.92-.13 1.37 0l2.23.63c.26.07.55.07.82 0l2.23-.64c.44-.13.92-.13 1.37 0l1.5.43c.31.09.63-.15.63-.49V9.45h-19Z"/><path d="M20.5 18v4h-1v-4h1Z"/><path d="M4.5 18v4h-1v-4h1Z"/><path d="M14 6c0-.28.22-.5.5-.5h6c.27 0 .5.22.5.5v3c0 .27-.23.5-.5.5h-6c-.28 0-.5-.23-.5-.5V6Zm1 .5v2h5v-2h-5Z"/><path d="M14 4c0-.83.67-1.5 1.5-1.5h4c.82 0 1.5.67 1.5 1.5v2c0 .27-.23.5-.5.5h-6c-.28 0-.5-.23-.5-.5V4Zm1.5-.5c-.28 0-.5.22-.5.5v1.5h5V4c0-.28-.23-.5-.5-.5h-4Z"/><path d="M13 5.5h9v1h-9v-1Z"/><path d="M3 6c0-.28.22-.5.5-.5h6c.27 0 .5.22.5.5v3c0 .27-.23.5-.5.5h-6c-.28 0-.5-.23-.5-.5V6Zm1 .5v2h5v-2H4Z"/><path d="M3 4c0-.83.67-1.5 1.5-1.5h4c.82 0 1.5.67 1.5 1.5v2c0 .27-.23.5-.5.5h-6c-.28 0-.5-.23-.5-.5V4Zm1.5-.5c-.28 0-.5.22-.5.5v1.5h5V4c0-.28-.23-.5-.5-.5h-4Z"/><path d="M2 5.5h9v1H2v-1Z"/><path d="M2.5 18v-4.5h1v4h17v-4h1V18c0 .27-.23.5-.5.5H3c-.28 0-.5-.23-.5-.5Z"/></g></svg>