<svg viewBox="0 0 24 24" xmlns="http://www.w3.org/2000/svg"><g fill-rule="evenodd"><path d="M3.11 2.18c.09-.12.23-.19.38-.19h16c.27 0 .5.22.5.5v5c0 .24-.19.46-.44.49L7.8 9.59c-1.82.25-3.52-.95-3.91-2.74l-.92-4.28c-.04-.15 0-.31.1-.42Zm1 .81l.78 3.67c.27 1.27 1.48 2.13 2.78 1.95l11.3-1.56V2.98H4.08Z"/><path d="M19.92 18.23L17.51 8.11l.97-.24 2.5 10.5c.05.22-.06.45-.27.56l-3.83 1.91c-1.33.66-2.9-.31-2.9-1.79v-6.46l-1.95-3.9 .89-.45 2 4c.03.06.05.14.05.22v6.57c0 .74.78 1.22 1.44.89l3.47-1.74Z"/></g></svg>