<svg viewBox="0 0 24 24" xmlns="http://www.w3.org/2000/svg"><g fill-rule="evenodd"><path d="M1.5 10.5C1.5 8.01 3.51 6 6 6h12c2.48 0 4.5 2.01 4.5 4.5v7c0 1.93-1.57 3.5-3.5 3.5h-.5c-1.11 0-2.14-.52-2.8-1.4l-1.5-2c-.29-.38-.73-.6-1.2-.6h-2.4c-.52 0-1 .26-1.28.7l-1.04 1.65c-.64 1.02-1.77 1.64-2.97 1.64h-.34c-1.94 0-3.5-1.57-3.5-3.5v-7ZM6 7c-1.94 0-3.5 1.56-3.5 3.5v7C2.5 18.88 3.61 20 5 20h.33c.86 0 1.66-.45 2.11-1.18l1.03-1.65c.45-.74 1.25-1.18 2.12-1.18h2.39c.78 0 1.52.37 2 1l1.5 2c.47.62 1.21 1 2 1h.5c1.38 0 2.5-1.12 2.5-2.5v-7c0-1.94-1.57-3.5-3.5-3.5h-12Z"/><path d="M9.5 13h-5v-1h5v1Z"/><path d="M7.5 10v5h-1v-5h1Z"/><path d="M12.5 3.5v3h-1v-3h1Z"/><path d="M17.5 14.5h-2v-1h2v1Z"/><path d="M19.5 11.5h-2v-1h2v1Z"/></g></svg>