<svg viewBox="0 0 24 24" xmlns="http://www.w3.org/2000/svg"><g fill-rule="evenodd"><path d="M1.5 2c0-.28.22-.5.5-.5h20c.27 0 .5.22.5.5v14c0 .27-.23.5-.5.5H2c-.28 0-.5-.23-.5-.5V2Zm1 .5v13h19v-13h-19Z"/><path d="M8.5 4.5c0-.28.22-.5.5-.5h3v1H9.5v2h-1V4.5ZM19 5h-2.5V4h3c.27 0 .5.22.5.5V7h-1V5Zm-9.5 8v-2h-1v2.5c0 .27.22.5.5.5h3v-1H9.5Zm9.5 0v-2h1v2.5c0 .27-.23.5-.5.5h-3v-1H19Z"/><path d="M7.7 18.6c.08-.07.19-.1.3-.1h8.5c1.1 0 2 .89 2 2 0 1.1-.9 2-2 2H8c-.11 0-.22-.04-.3-.1l-2-1.5c-.13-.1-.2-.25-.2-.4 0-.16.07-.31.2-.4l2-1.5Zm.46.9l-1.34 1 1.33 1h8.33c.55 0 1-.45 1-1 0-.56-.45-1-1-1H8.14Z"/><path d="M5.5 8c-.56 0-1 .44-1 1 0 .55.44 1 1 1 .55 0 1-.45 1-1 0-.56-.45-1-1-1Zm-2 1c0-1.11.89-2 2-2 1.1 0 2 .89 2 2 0 1.1-.9 2-2 2 -1.11 0-2-.9-2-2Z"/><path d="M6.5 5.5h-2v-1h2v1Z"/><path d="M6.5 13.5h-2v-1h2v1Z"/></g></svg>