<svg viewBox="0 0 24 24" xmlns="http://www.w3.org/2000/svg"><g fill-rule="evenodd"><path d="M1.5 2c0-.28.22-.5.5-.5h20c.27 0 .5.22.5.5v14c0 .27-.23.5-.5.5H2c-.28 0-.5-.23-.5-.5V2Zm1 .5v13h19v-13h-19Z"/><path d="M8 4.5c0-.28.22-.5.5-.5h3v1H9v2H8V4.5ZM19 5h-2.5V4h3c.27 0 .5.22.5.5V7h-1V5ZM9 13v-2H8v2.5c0 .27.22.5.5.5h3v-1H9Zm10 0v-2h1v2.5c0 .27-.23.5-.5.5h-3v-1H19Z"/><path d="M6 5.5H4v-1h2v1Z"/><path d="M6 9.5H4v-1h2v1Z"/><path d="M6 13.5H4v-1h2v1Z"/><path d="M7.7 18.6c.08-.07.19-.1.3-.1h8.5c1.1 0 2 .89 2 2 0 1.1-.9 2-2 2H8c-.11 0-.22-.04-.3-.1l-2-1.5c-.13-.1-.2-.25-.2-.4 0-.16.07-.31.2-.4l2-1.5Zm.46.9l-1.34 1 1.33 1h8.33c.55 0 1-.45 1-1 0-.56-.45-1-1-1H8.14Z"/></g></svg>