<svg viewBox="0 0 24 24" xmlns="http://www.w3.org/2000/svg"><g fill-rule="evenodd"><path d="M3.5 5c0-1.94 1.56-3.5 3.5-3.5h10c1.93 0 3.5 1.56 3.5 3.5v14c0 1.93-1.57 3.5-3.5 3.5H7c-1.94 0-3.5-1.57-3.5-3.5V5ZM7 2.5C5.61 2.5 4.5 3.61 4.5 5v14c0 1.38 1.11 2.5 2.5 2.5h10c1.38 0 2.5-1.12 2.5-2.5V5c0-1.39-1.12-2.5-2.5-2.5H7Z"/><path d="M13.5 4.5c0-.28.22-.5.5-.5h1.5C16.88 4 18 5.11 18 6.5v4c0 .18-.11.35-.28.44 -.17.08-.37.07-.52-.04l-3.5-2.51c-.14-.1-.21-.25-.21-.41v-3.5Zm1 .5v2.74L17 9.52V6.49c0-.83-.68-1.5-1.5-1.5h-1Z"/><path d="M6.5 14.5c0-.28.22-.5.5-.5h8c1.38 0 2.5 1.11 2.5 2.5v2c0 .27-.23.5-.5.5H9c-1.39 0-2.5-1.12-2.5-2.5v-2Zm1 .5v1.5c0 .82.67 1.5 1.5 1.5h7.5v-1.5c0-.83-.68-1.5-1.5-1.5H7.5Z"/></g></svg>