<svg viewBox="0 0 24 24" xmlns="http://www.w3.org/2000/svg"><g fill-rule="evenodd"><path d="M3.5 2c0-.28.22-.5.5-.5h16c.27 0 .5.22.5.5v20c0 .27-.23.5-.5.5H4c-.28 0-.5-.23-.5-.5V2Zm1 .5v19h15v-19h-15Z"/><path d="M10.5 5.5C8.56 5.5 7 7.06 7 9v5H6V9c0-2.49 2.01-4.5 4.5-4.5h3C15.98 4.5 18 6.51 18 9v8.5c0 1.1-.9 2-2 2 -1.11 0-2-.9-2-2v-7c0-1.11-.9-2-2-2 -1.11 0-2 .89-2 2v4.25c0 .41.33.75.75.75 .41 0 .75-.34.75-.75V12h1v2.75c0 .96-.79 1.75-1.75 1.75 -.97 0-1.75-.79-1.75-1.75V10.5c0-1.66 1.34-3 3-3 1.65 0 3 1.34 3 3v7c0 .55.44 1 1 1 .55 0 1-.45 1-1V9c0-1.94-1.57-3.5-3.5-3.5h-3Z"/></g></svg>