<svg viewBox="0 0 24 24" xmlns="http://www.w3.org/2000/svg"><g fill-rule="evenodd"><path d="M4 7c0-.28.22-.5.5-.5H22c.27 0 .5.22.5.5v10c0 .27-.23.5-.5.5H4.5c-.28 0-.5-.23-.5-.5V7Zm1 .5v9h16.5v-9H5Z"/><path d="M6.5 17c0-.28.22-.5.5-.5h4c.27 0 .5.22.5.5v3c0 .27-.23.5-.5.5H7c-.28 0-.5-.23-.5-.5v-3Zm1 .5v2h3v-2h-3Z"/><path d="M13 17c0-.28.22-.5.5-.5H21c.27 0 .5.22.5.5v3c0 .27-.23.5-.5.5h-7.5c-.28 0-.5-.23-.5-.5v-3Zm1 .5v2h6.5v-2H14Z"/><path d="M2 3.5h2.5c.27 0 .5.22.5.5v16H4V4.5H2v-1Z"/><path d="M9.5 10c-1.11 0-2 .89-2 2 0 1.1.89 2 2 2 1.1 0 2-.9 2-2 0-1.11-.9-2-2-2Zm-3 2c0-1.66 1.34-3 3-3 1.65 0 3 1.34 3 3 0 1.65-1.35 3-3 3 -1.66 0-3-1.35-3-3Z"/><path d="M17 10c-1.11 0-2 .89-2 2 0 1.1.89 2 2 2 1.1 0 2-.9 2-2 0-1.11-.9-2-2-2Zm-3 2c0-1.66 1.34-3 3-3 1.65 0 3 1.34 3 3 0 1.65-1.35 3-3 3 -1.66 0-3-1.35-3-3Z"/></g></svg>