<svg viewBox="0 0 24 24" xmlns="http://www.w3.org/2000/svg"><g fill-rule="evenodd"><path d="M18.5 2.5c.82 0 1.5.67 1.5 1.5v16c0 .82-.68 1.5-1.5 1.5h-13c-.83 0-1.5-.68-1.5-1.5V7.63c0-.31.09-.61.27-.87l2.54-3.64c.28-.41.73-.64 1.22-.64h10.45ZM21 4c0-1.39-1.12-2.5-2.5-2.5H8.04c-.82 0-1.59.39-2.05 1.06L3.44 6.19c-.3.42-.46.92-.46 1.43v12.36c0 1.38 1.11 2.5 2.5 2.5h13c1.38 0 2.5-1.12 2.5-2.5v-16Z"/><path d="M11 8.5v-4h1v4h-1Z"/><path d="M8 8.5v-4h1v4H8Z"/><path d="M14 8.5v-4h1v4h-1Z"/><path d="M17 8.5v-4h1v4h-1Z"/><path d="M6.5 15c0-.28.22-.5.5-.5h10c.27 0 .5.22.5.5v4c0 .27-.23.5-.5.5H7c-.28 0-.5-.23-.5-.5v-4Zm1 .5v3h9v-3h-9Z"/></g></svg>