<svg viewBox="0 0 24 24" xmlns="http://www.w3.org/2000/svg"><g fill-rule="evenodd"><path d="M1.5 4c0-1.39 1.11-2.5 2.5-2.5h13.5C18.88 1.5 20 2.61 20 4v.5h-1V4c0-.83-.68-1.5-1.5-1.5H4c-.83 0-1.5.67-1.5 1.5v16c0 .82.67 1.5 1.5 1.5h8v1H4c-1.39 0-2.5-1.12-2.5-2.5V4Z"/><path d="M13.5 8.5c0-1.11.89-2 2-2h5c1.1 0 2 .89 2 2v12c0 1.1-.9 2-2 2h-5c-1.11 0-2-.9-2-2v-12Zm2-1c-.56 0-1 .44-1 1v12c0 .55.44 1 1 1h5c.55 0 1-.45 1-1v-12c0-.56-.45-1-1-1h-5Z"/><path d="M11.5 20H9v-1h2.5v1Z"/><path d="M19 20h-2v-1h2v1Z"/></g></svg>