<svg viewBox="0 0 24 24" xmlns="http://www.w3.org/2000/svg"><g fill-rule="evenodd"><path d="M9.5 4c0-1.39 1.11-2.5 2.5-2.5h8c1.38 0 2.5 1.11 2.5 2.5v3.5h-1V4c0-.83-.68-1.5-1.5-1.5h-8c-.83 0-1.5.67-1.5 1.5v3.5h-1V4Z"/><path d="M4 22.5c-1.39 0-2.5-1.12-2.5-2.5v-8c0-1.39 1.11-2.5 2.5-2.5h16c1.38 0 2.5 1.11 2.5 2.5v8c0 1.38-1.12 2.5-2.5 2.5H4ZM2.5 20c0 .82.67 1.5 1.5 1.5h16c.82 0 1.5-.68 1.5-1.5v-8c0-.83-.68-1.5-1.5-1.5H4c-.83 0-1.5.67-1.5 1.5v8Z"/><path d="M20 14.5v3h-1v-3h1Z"/><path d="M8 2.5C4.96 2.5 2.5 4.96 2.5 8h-1c0-3.59 2.91-6.5 6.5-6.5v1Z"/></g></svg>