<svg viewBox="0 0 24 24" xmlns="http://www.w3.org/2000/svg"><g fill-rule="evenodd"><path d="M3.5 2c0-.28.22-.5.5-.5h15c.27 0 .5.22.5.5v15c0 .27-.23.5-.5.5H4c-.28 0-.5-.23-.5-.5V2Zm1 .5v14h14v-14h-14Z"/><path d="M3.5 17c0-.28.22-.5.5-.5h15c.27 0 .5.22.5.5v5c0 .27-.23.5-.5.5H4c-.28 0-.5-.23-.5-.5v-5Zm1 .5v4h14v-4h-14Z"/><path d="M10 20H7v-1h3v1Z"/><path d="M16 20h-3v-1h3v1Z"/><path d="M11.12 3.51c.21.05.37.25.37.48v3.5h4c.18 0 .35.09.43.26 .08.16.08.35-.02.5l-4.5 7c-.12.18-.35.27-.57.2 -.22-.07-.36-.26-.36-.48v-3.5h-3.5c-.18 0-.35-.1-.44-.25 -.09-.16-.1-.35-.01-.5l4-7c.11-.2.34-.3.56-.24Zm-3.27 6.98h3.13c.27 0 .5.22.5.5v2.29l3.08-4.8h-3.59c-.28 0-.5-.23-.5-.5V5.86l-2.64 4.61Z"/></g></svg>