<svg viewBox="0 0 24 24" xmlns="http://www.w3.org/2000/svg"><g fill-rule="evenodd"><path d="M3.5 2c0-.28.22-.5.5-.5h15c.27 0 .5.22.5.5v15c0 .27-.23.5-.5.5H4c-.28 0-.5-.23-.5-.5V2Zm1 .5v14h14v-14h-14Z"/><path d="M3.5 17c0-.28.22-.5.5-.5h15c.27 0 .5.22.5.5v5c0 .27-.23.5-.5.5H4c-.28 0-.5-.23-.5-.5v-5Zm1 .5v4h14v-4h-14Z"/><path d="M12.5 20h-3v-1h3v1Z"/><path d="M16.5 20H15v-1h1.5v1Z"/><path d="M10.23 9l1.72-4.32 -.93-.38 -2.01 5c-.07.15-.05.32.05.46 .09.13.24.21.41.21h4.11l-2.55 4.24 .85.51 3-5c.09-.16.09-.35 0-.51 -.09-.16-.26-.26-.44-.26h-4.27Z"/></g></svg>