<svg viewBox="0 0 24 24" xmlns="http://www.w3.org/2000/svg"><g fill-rule="evenodd"><path d="M1.5 5.5c0-.28.22-.5.5-.5h20c.27 0 .5.22.5.5v13c0 .27-.23.5-.5.5H2c-.28 0-.5-.23-.5-.5v-13Zm1 .5v12h19V6h-19Z"/><path d="M6 9c0-.28.22-.5.5-.5h11c.27 0 .5.22.5.5v6c0 .27-.23.5-.5.5h-11c-.28 0-.5-.23-.5-.5V9Zm1 .5v5h10v-5H7Z"/><path d="M3.5 2.5v3h-1v-3h1Z"/><path d="M6.5 2.5v3h-1v-3h1Z"/><path d="M9.5 2.5v3h-1v-3h1Z"/><path d="M12.5 2.5v3h-1v-3h1Z"/><path d="M15.5 2.5v3h-1v-3h1Z"/><path d="M18.5 2.5v3h-1v-3h1Z"/><path d="M21.5 2.5v3h-1v-3h1Z"/><path d="M3.5 18.5v3h-1v-3h1Z"/><path d="M6.5 18.5v3h-1v-3h1Z"/><path d="M9.5 18.5v3h-1v-3h1Z"/><path d="M12.5 18.5v3h-1v-3h1Z"/><path d="M15.5 18.5v3h-1v-3h1Z"/><path d="M18.5 18.5v3h-1v-3h1Z"/><path d="M21.5 18.5v3h-1v-3h1Z"/></g></svg>