<svg viewBox="0 0 24 24" xmlns="http://www.w3.org/2000/svg"><g fill-rule="evenodd"><path d="M1.5 5.5c0-.28.22-.5.5-.5h20c.27 0 .5.22.5.5v13c0 .27-.23.5-.5.5H2c-.28 0-.5-.23-.5-.5v-13Zm20 12.5V6h-19v12h19Z"/><path d="M4 8c0-.28.22-.5.5-.5h3c.27 0 .5.22.5.5v4c0 .27-.23.5-.5.5h-3c-.28 0-.5-.23-.5-.5V8Zm1 .5v3h2v-3H5Z"/><path d="M10 8c0-.28.22-.5.5-.5h3c.27 0 .5.22.5.5v4c0 .27-.23.5-.5.5h-3c-.28 0-.5-.23-.5-.5V8Zm1 .5v3h2v-3h-2Z"/><path d="M4 16c0-.28.22-.5.5-.5h15c.27 0 .5.22.5.5v2.5c0 .27-.23.5-.5.5h-15c-.28 0-.5-.23-.5-.5V16Zm1 .5V18h14v-1.5H5Z"/><path d="M16 8c0-.28.22-.5.5-.5h3c.27 0 .5.22.5.5v4c0 .27-.23.5-.5.5h-3c-.28 0-.5-.23-.5-.5V8Zm1 .5v3h2v-3h-2Z"/></g></svg>