<svg viewBox="0 0 24 24" xmlns="http://www.w3.org/2000/svg"><g fill-rule="evenodd"><path d="M1.5 3c0-.28.22-.5.5-.5h20c.27 0 .5.22.5.5v2.5h-1v-2h-19v11H13v1H2c-.28 0-.5-.23-.5-.5V3Z"/><path d="M10.97 15.15l-1.01 3 -.95-.32 1-3 .94.31Z"/><path d="M3 17.5h10v1H3v-1Z"/><path d="M15 11.5c0-1.11.89-2 2-2h3.5c1.1 0 2 .89 2 2v5c0 1.1-.9 2-2 2H17c-1.11 0-2-.9-2-2v-5Zm2-1c-.56 0-1 .44-1 1v5c0 .55.44 1 1 1h3.5c.55 0 1-.45 1-1v-5c0-.56-.45-1-1-1H17Z"/><path d="M16.5 6.91c.04-.25.24-.42.49-.42h3.5c.24 0 .45.17.49.41l.5 3c.02.14-.02.29-.12.4 -.1.11-.24.17-.39.17h-4.5c-.15 0-.29-.07-.39-.18 -.1-.12-.14-.27-.12-.41l.5-3Zm.91.58l-.34 2h3.31l-.34-2h-2.66Z"/><path d="M16.5 21.08c.04.24.24.41.49.41h3.5c.24 0 .45-.18.49-.42l.5-3c.02-.15-.02-.3-.12-.41 -.1-.12-.24-.18-.39-.18h-4.5c-.15 0-.29.06-.39.17 -.1.11-.14.26-.12.4l.5 3Zm.91-.59l-.34-2h3.31l-.34 2h-2.66Z"/></g></svg>