<svg viewBox="0 0 24 24" xmlns="http://www.w3.org/2000/svg"><g fill-rule="evenodd"><path d="M3 2.5c0-.28.22-.5.5-.5H21c.27 0 .5.22.5.5v3h-1V3H4v9h8v1H3.5c-.28 0-.5-.23-.5-.5v-10Z"/><path d="M3.02 12.35c.06-.22.25-.36.47-.36h8.5v1H3.86l-1.2 4h9.32v1h-10c-.16 0-.31-.08-.41-.21 -.1-.13-.13-.3-.08-.45l1.5-5Z"/><path d="M12 15.5H9.5v-1H12v1Z"/><path d="M14 12c0-1.11.89-2 2-2h3.5c1.1 0 2 .89 2 2v5c0 1.1-.9 2-2 2H16c-1.11 0-2-.9-2-2v-5Zm2-1c-.56 0-1 .44-1 1v5c0 .55.44 1 1 1h3.5c.55 0 1-.45 1-1v-5c0-.56-.45-1-1-1H16Z"/><path d="M15.5 7.41c.04-.25.24-.42.49-.42h3.5c.24 0 .45.17.49.41l.5 3c.02.14-.02.29-.12.4 -.1.11-.24.17-.39.17h-4.5c-.15 0-.29-.07-.39-.18 -.1-.12-.14-.27-.12-.41l.5-3Zm.91.58l-.34 2h3.31l-.34-2h-2.66Z"/><path d="M15.5 21.58c.04.24.24.41.49.41h3.5c.24 0 .45-.18.49-.42l.5-3c.02-.15-.02-.3-.12-.41 -.1-.12-.24-.18-.39-.18h-4.5c-.15 0-.29.06-.39.17 -.1.11-.14.26-.12.4l.5 3Zm.91-.59l-.34-2h3.31l-.34 2h-2.66Z"/></g></svg>