<svg viewBox="0 0 24 24" xmlns="http://www.w3.org/2000/svg"><g fill-rule="evenodd"><path d="M19.31 3.76c-.59-.59-1.54-.59-2.13 0L3.69 17.24l-1.02 4.05 4.05-1.02L20.2 6.78c.58-.59.58-1.54 0-2.13l-.93-.93Zm-2.83-.71c.97-.98 2.55-.98 3.53 0l.92.92c.97.97.97 2.55 0 3.53L7.34 21.08c-.07.06-.15.1-.24.13l-5 1.25c-.18.04-.36-.01-.48-.14 -.13-.13-.18-.31-.14-.48l1.25-5c.02-.09.06-.17.13-.24L16.44 3.01Z"/><path d="M8.14 8.14c.19-.2.51-.2.7 0l1.5 1.5c.19.19.19.51 0 .7 -.2.19-.52.19-.71 0L8.48 9.19l-4.3 4.29 1.14 1.14c.19.19.19.51 0 .7 -.2.19-.52.19-.71 0l-1.5-1.5c-.2-.2-.2-.52 0-.71l5-5Z"/><path d="M13.14 7.14c.19-.2.51-.2.7 0l3 2.99c.19.19.19.51 0 .7 -.2.19-.52.19-.71 0l-3-3.01c-.2-.2-.2-.52 0-.71Z"/></g></svg>