<svg viewBox="0 0 24 24" xmlns="http://www.w3.org/2000/svg"><g fill-rule="evenodd"><path d="M4 12c0-3.04 2.46-5.5 5.5-5.5 3.03 0 5.5 2.46 5.5 5.5v4c0 3.03-2.47 5.5-5.5 5.5C6.46 21.5 4 19.03 4 16v-4Zm5.5-4.5C7.01 7.5 5 9.51 5 12v4c0 2.48 2.01 4.5 4.5 4.5 2.48 0 4.5-2.02 4.5-4.5v-4c0-2.49-2.02-4.5-4.5-4.5Z"/><path d="M13 3.5c-1.66 0-3 1.34-3 3V7H9v-.5c0-2.21 1.79-4 4-4h3c2.2 0 4 1.79 4 4V21h-1V6.5c0-1.66-1.35-3-3-3h-3Z"/><path d="M9.5 10c-.83 0-1.5.67-1.5 1.5 0 .82.67 1.5 1.5 1.5 .82 0 1.5-.68 1.5-1.5 0-.83-.68-1.5-1.5-1.5ZM7 11.5C7 10.11 8.11 9 9.5 9c1.38 0 2.5 1.11 2.5 2.5 0 1.38-1.12 2.5-2.5 2.5C8.11 14 7 12.88 7 11.5Z"/></g></svg>