<svg viewBox="0 0 24 24" xmlns="http://www.w3.org/2000/svg"><g fill-rule="evenodd"><path d="M10 18.5v-3H9V19c0 .27.22.5.5.5h5c.27 0 .5-.23.5-.5v-3.5h-1v3h-4Z"/><path d="M6 19c0-.28.22-.5.5-.5h11c.27 0 .5.22.5.5v3c0 .27-.23.5-.5.5h-11c-.28 0-.5-.23-.5-.5v-3Zm1 .5v2h10v-2H7Z"/><path d="M12 6.5c-1.39 0-2.5 1.11-2.5 2.5 0 1.38 1.11 2.5 2.5 2.5 1.38 0 2.5-1.12 2.5-2.5 0-1.39-1.12-2.5-2.5-2.5ZM8.5 9c0-1.94 1.56-3.5 3.5-3.5 1.93 0 3.5 1.56 3.5 3.5 0 1.93-1.57 3.5-3.5 3.5 -1.94 0-3.5-1.57-3.5-3.5Z"/><path d="M12 2.5C8.41 2.5 5.5 5.41 5.5 9c0 3.58 2.91 6.5 6.5 6.5 3.58 0 6.5-2.92 6.5-6.5 0-3.59-2.92-6.5-6.5-6.5ZM4.5 9c0-4.15 3.35-7.5 7.5-7.5 4.14 0 7.5 3.35 7.5 7.5 0 4.14-3.36 7.5-7.5 7.5 -4.15 0-7.5-3.36-7.5-7.5Z"/></g></svg>