<svg viewBox="0 0 24 24" xmlns="http://www.w3.org/2000/svg"><g fill="#3747D6" fill-rule="evenodd"><path d="M1 4c0-.56.44-1 1-1h6.19c.33 0 .64.16.83.44l1.6 2.41h11.36c.55 0 1 .44 1 1v13.33c0 .55-.45 1-1 1h-20c-.56 0-1-.45-1-1V3.98Zm2 1v14.19h18V7.85H10.09c-.34 0-.65-.17-.84-.45L7.64 4.98H2.98Z"/><path fill="#9545ED" d="M7.19 9.71c0-.56.44-1 1-1h7.61c.55 0 1 .44 1 1v7.619c0 .34-.18.66-.48.85 -.3.18-.67.19-.98.04l-3.37-1.69 -3.37 1.68c-.31.15-.68.13-.98-.05 -.3-.19-.48-.51-.48-.86V9.68Zm2 1v5l2.36-1.19c.28-.15.61-.15.89 0l2.36 1.18v-5.01H9.18Z"/></g></svg>