<svg viewBox="0 0 24 24" xmlns="http://www.w3.org/2000/svg"><g fill="#3747D6" fill-rule="evenodd"><path d="M1 3.8c0-.56.44-1 1-1h6.19c.33 0 .64.16.83.44l1.6 2.41h11.36c.55 0 1 .44 1 1v13.33c0 .55-.45 1-1 1h-20c-.56 0-1-.45-1-1V3.78Zm2 1v14.19h18V7.65H10.09c-.34-.001-.65-.17-.84-.45L7.64 4.78H2.98Z"/><path fill="#9545ED" d="M11.55 11.47c-1.05 0-1.83.8-1.83 1.71 0 .02 0 .05 0 .08 .01.27-.09.54-.28.74 -.19.19-.46.31-.73.31H8.7c-.31 0-.49.23-.49.42 0 .19.17.42.48.42h5.95c.08 0 .15-.02.22-.05 .02-.02.04-.03.07-.03 .48-.18.78-.61.78-1.07 0-.6-.52-1.15-1.24-1.15 -.1 0-.18 0-.27.02 -.44.08-.88-.12-1.08-.51 -.3-.55-.91-.95-1.64-.95ZM7.78 12.5c.33-1.76 1.92-3.04 3.76-3.04 1.21 0 2.31.55 3.01 1.42 1.72.02 3.19 1.38 3.19 3.14 0 1.36-.89 2.49-2.08 2.93 -.31.13-.65.2-1.01.2H8.69c-1.34 0-2.49-1.05-2.49-2.43 0-1.05.65-1.9 1.55-2.25Z"/></g></svg>