<svg viewBox="0 0 24 24" xmlns="http://www.w3.org/2000/svg"><g fill="#3747D6" fill-rule="evenodd"><path d="M1 3.8c0-.56.44-1 1-1h6.19c.33 0 .64.16.83.44l1.6 2.41h11.36c.55 0 1 .44 1 1v13.33c0 .55-.45 1-1 1h-20c-.56 0-1-.45-1-1V3.78Zm2 1v14.19h18V7.65H10.09c-.34-.001-.65-.17-.84-.45L7.64 4.78H2.98Z"/><g fill="#9545ED"><path d="M12 10.04c-1.82 0-3.29 1.47-3.29 3.28 0 1.81 1.47 3.28 3.28 3.28 1.81 0 3.28-1.471 3.28-3.29 0-1.82-1.48-3.29-3.29-3.29Zm-5.29 3.28c0-2.92 2.36-5.29 5.28-5.29 2.91 0 5.28 2.36 5.28 5.28 0 2.91-2.37 5.28-5.29 5.28s-5.29-2.37-5.29-5.29Z"/><path d="M11.99 12.9c-.24 0-.43.19-.43.42 0 .23.19.42.42.42 .23 0 .42-.2.42-.43 0-.24-.2-.43-.43-.43Zm-2.43.42c0-1.35 1.08-2.43 2.42-2.43 1.34 0 2.42 1.08 2.42 2.42 0 1.34-1.09 2.42-2.43 2.42 -1.35 0-2.43-1.09-2.43-2.43Z"/></g></g></svg>