<svg viewBox="0 0 24 24" xmlns="http://www.w3.org/2000/svg"><g fill="#3747D6" fill-rule="evenodd"><path d="M1 2.47c0-.56.44-1 1-1h5.14c.32 0 .63.16.82.43l1.41 2.06h9.75c.55 0 1 .44 1 1v4.16h-2V5.95H8.83c-.33 0-.64-.17-.83-.44L6.58 3.44H2.96v15.14h9.95v2H1.95c-.56 0-1-.45-1-1V2.43Z"/><path fill="#9545ED" d="M12.42 12c0-.56.44-1 1-1h8.57c.55 0 1 .44 1 1v3.33c0 .29-.14.57-.36.76l-2.5 2.08v2.38c0 .43-.28.81-.69.94l-2.86.95c-.31.1-.65.05-.91-.14 -.27-.19-.42-.49-.42-.82v-3.35l-2.5-2.09c-.23-.19-.36-.48-.36-.77v-3.34Zm2 1v1.86l2.49 2.08c.22.19.35.47.35.76v2.42l.85-.29v-2.14c0-.3.13-.58.35-.77l2.49-2.09v-1.87h-6.58Z"/></g></svg>