<svg viewBox="0 0 24 24" xmlns="http://www.w3.org/2000/svg"><g fill="#9545ED" fill-rule="evenodd"><path d="M2.5 5.8c0-.56.44-1 1-1h5.71c.33 0 .64.16.83.44l1.6 2.41h8.98c.55 0 1 .44 1 1v9.52h-2V9.64h-8.53c-.34 0-.65-.17-.84-.45L8.64 6.77H4.46v11.38h-2V5.76Z"/><path d="M2.5 2c0-.56.44-1 1-1h5.71c.33 0 .64.16.83.44l1.6 2.41h8.98c.55 0 1 .44 1 1v9.52h-2V5.84h-8.53c-.34-.001-.65-.17-.84-.45L8.64 2.97H4.46V14.35h-2V1.97Z"/><path fill="#3747D6" d="M2.5 9.61c0-.56.44-1 1-1h5.71c.33 0 .64.16.83.44l1.6 2.41h8.98c.55 0 1 .44 1 1v9.52c0 .55-.45 1-1 1H3.47c-.56 0-1-.45-1-1V9.59Zm2 .99v10.381h15.14v-7.53h-8.53c-.34 0-.65-.17-.84-.45l-1.61-2.42H4.48Z"/></g></svg>