<svg viewBox="0 0 24 24" xmlns="http://www.w3.org/2000/svg"><g fill="#3747D6" fill-rule="evenodd"><path d="M1 3.8c0-.56.44-1 1-1h6.19c.33 0 .64.16.83.44l1.6 2.41h11.36c.55 0 1 .44 1 1v13.33c0 .55-.45 1-1 1h-20c-.56 0-1-.45-1-1V3.78Zm2 1v14.19h18V7.65H10.09c-.34-.001-.65-.17-.84-.45L7.64 4.78H2.98Z"/><g fill="#9545ED"><path d="M20.14 13.33c0 1.86-1.52 3.38-3.39 3.38h-1.43c-1.87 0-3.39-1.52-3.39-3.39s1.51-3.39 3.38-3.39h1.42c1.86 0 3.38 1.51 3.38 3.38Zm-3.39 1.38c.76 0 1.38-.62 1.38-1.39 0-.77-.62-1.39-1.39-1.39h-1.43c-.77 0-1.39.61-1.39 1.38 0 .76.61 1.38 1.38 1.38h1.42Z"/><path d="M12.04 13.33c0 1.86-1.52 3.38-3.39 3.38H7.22c-1.87 0-3.39-1.52-3.39-3.39s1.51-3.39 3.38-3.39h1.42c1.86 0 3.38 1.51 3.38 3.38Zm-3.39 1.38c.76 0 1.38-.62 1.38-1.39 0-.77-.62-1.39-1.39-1.39H7.21c-.77 0-1.39.61-1.39 1.38 0 .76.61 1.38 1.38 1.38h1.42Z"/><path d="M8.66 12.33h6.66v2H8.65v-2Z"/></g></g></svg>