<svg viewBox="0 0 24 24" xmlns="http://www.w3.org/2000/svg"><g fill="#9545ED" fill-rule="evenodd"><path d="M15.8 10.119c-2.87 0-5.2 2.32-5.2 5.19 0 2.86 2.32 5.19 5.19 5.19 2.86 0 5.19-2.33 5.19-5.2s-2.33-5.2-5.2-5.2ZM8.6 15.3c0-3.98 3.21-7.2 7.19-7.2 3.97 0 7.19 3.21 7.19 7.19 0 3.97-3.22 7.19-7.2 7.19s-7.2-3.22-7.2-7.2Z"/><path fill="#3747D6" d="M1 2.45c0-.56.44-1 1-1h5.14c.32 0 .63.16.82.43l1.41 2.06h9.75c.55 0 1 .44 1 1V7.2h-2V5.93H8.83c-.33 0-.64-.17-.83-.44L6.58 3.42H2.96v15.14h5.19v2h-6.2c-.56 0-1-.45-1-1V2.41Z"/><path d="M11.95 14.35c0-.56.44-1 1-1h5.71c.55 0 1 .44 1 1v3.8c0 .55-.45 1-1 1h-5.72c-.56 0-1-.45-1-1v-3.81Zm2 1v1.8h3.71v-1.81h-3.72Z"/><path d="M12.9 13.4c0-1.61 1.3-2.91 2.9-2.91 1.6 0 2.9 1.3 2.9 2.9v.95c0 .55-.45 1-1 1h-3.81c-.56 0-1-.45-1-1v-.96Zm2-.05h1.8c-.03-.48-.42-.86-.91-.86 -.49 0-.88.37-.91.85Z"/></g></svg>