<svg viewBox="0 0 24 24" xmlns="http://www.w3.org/2000/svg"><g fill="#3747D6" fill-rule="evenodd"><path d="M1 3.8c0-.56.44-1 1-1h6.19c.33 0 .64.16.83.44l1.6 2.41h11.36c.55 0 1 .44 1 1v13.33c0 .55-.45 1-1 1h-20c-.56 0-1-.45-1-1V3.78Zm2 1v14.19h18V7.65H10.09c-.34-.001-.65-.17-.84-.45L7.64 4.78H2.98Z"/><g fill="#9545ED"><path d="M12 11.95c-.77 0-1.39.61-1.39 1.38 0 .76.61 1.38 1.38 1.38 .76 0 1.38-.62 1.38-1.39 0-.77-.62-1.39-1.39-1.39Zm-3.39 1.38c0-1.87 1.51-3.39 3.38-3.39 1.86 0 3.38 1.51 3.38 3.38 0 1.86-1.52 3.38-3.39 3.38s-3.39-1.52-3.39-3.39Z"/><path d="M13 9.04v1.9h-2V9.03h2Z"/><path d="M7.71 12.33h1.9v2H7.7v-2Z"/><path d="M14.38 12.33h1.9v2h-1.91v-2Z"/><path d="M13 15.71v1.9h-2V15.7h2Z"/><path d="M9.67 9.59l1.34 1.34 -1.42 1.41 -1.35-1.35 1.41-1.42Z"/><path d="M8.26 15.65L9.6 14.3l1.41 1.41 -1.35 1.34 -1.42-1.42Z"/><path d="M12.97 10.94l1.34-1.35L15.72 11l-1.35 1.34 -1.42-1.42Z"/><path d="M14.39 14.3l1.34 1.34 -1.42 1.41 -1.35-1.35 1.41-1.42Z"/></g></g></svg>