<svg viewBox="0 0 24 24" xmlns="http://www.w3.org/2000/svg"><g fill="#3747D6" fill-rule="evenodd"><path d="M1 3.8c0-.56.44-1 1-1h6.19c.33 0 .64.16.83.44l1.6 2.41h11.36c.55 0 1 .44 1 1v13.33c0 .55-.45 1-1 1h-20c-.56 0-1-.45-1-1V3.78Zm2 1v14.19h18V7.65H10.09c-.34-.001-.65-.17-.84-.45L7.64 4.78H2.98Z"/><path fill="#9545ED" d="M10.57 9.24c.44-1.39 2.4-1.39 2.85 0l.58 1.79h1.88c1.45 0 2.05 1.85.88 2.71l-1.53 1.1 .58 1.79c.44 1.38-1.14 2.53-2.31 1.67l-1.53-1.11 -1.53 1.1c-1.18.85-2.76-.3-2.31-1.68l.58-1.8 -1.53-1.11c-1.18-.86-.58-2.72.88-2.72h1.88l.58-1.8Zm1.42 2.08l-.22.67c-.21.61-.78 1.03-1.43 1.03h-.72l.57.41c.52.38.74 1.05.54 1.67l-.22.67 .57-.42c.52-.39 1.23-.39 1.76 0l.57.41 -.22-.68c-.21-.62.01-1.3.54-1.68l.57-.42h-.72c-.65 0-1.23-.42-1.43-1.04l-.22-.68Z"/></g></svg>