<svg viewBox="0 0 24 24" xmlns="http://www.w3.org/2000/svg"><g fill="#3747D6" fill-rule="evenodd"><path d="M1 2.5c0-.56.44-1 1-1h5.16c.32 0 .63.16.82.43L9.4 4h9.8c.55 0 1 .44 1 1v2.27h-2V5.99H8.87c-.33 0-.64-.17-.83-.44L6.61 3.47H2.97v15.21h5.21v2H1.96c-.56 0-1-.45-1-1V2.46Z"/><path fill="#9545ED" d="M13.92 8.54c.46-1.42 2.46-1.42 2.92-.01l1.08 3.35h3.52c1.48 0 2.1 1.9.9 2.782l-2.86 2.07 1.08 3.35c.46 1.41-1.17 2.59-2.37 1.71l-2.86-2.08 -2.86 2.07c-1.21.87-2.83-.31-2.37-1.72l1.08-3.36 -2.86-2.08c-1.21-.88-.59-2.782.9-2.782h3.52l1.08-3.36Zm1.46 1.97l-.76 2.31c-.21.63-.8 1.06-1.47 1.06h-2.44l1.97 1.43c.53.39.76 1.08.55 1.71l-.76 2.31 1.97-1.44c.53-.4 1.26-.4 1.8 0l1.97 1.43 -.76-2.32c-.21-.64.01-1.33.55-1.72l1.97-1.44h-2.44c-.67 0-1.26-.43-1.47-1.07l-.76-2.32Z"/></g></svg>