<svg viewBox="0 0 24 24" xmlns="http://www.w3.org/2000/svg"><g fill="#3747D6" fill-rule="evenodd"><path d="M1 3.8c0-.56.44-1 1-1h6.19c.33 0 .64.16.83.44l1.6 2.41h11.36c.55 0 1 .44 1 1v13.33c0 .55-.45 1-1 1h-20c-.56 0-1-.45-1-1V3.78Zm2 1v14.19h18V7.65H10.09c-.34-.001-.65-.17-.84-.45L7.64 4.78H2.98Z"/><g fill="#9545ED"><path d="M8.19 9.95h7.61v2H8.18V9.94Z"/><path d="M15.8 14.71H8.18v2h7.61v-2Z"/><path d="M7.48 10.24l2.38-2.39 1.41 1.41 -1.68 1.67 1.67 1.67 -1.42 1.41 -2.39-2.39c-.4-.4-.4-1.03 0-1.42Z"/><path d="M16.51 15l-2.39-2.39 -1.42 1.41 1.67 1.67 -1.68 1.67 1.41 1.41 2.38-2.39c.39-.4.39-1.03 0-1.42Z"/></g></g></svg>