<svg viewBox="0 0 24 24" xmlns="http://www.w3.org/2000/svg"><g fill="#3747D6" fill-rule="evenodd"><path d="M1 3.8c0-.56.44-1 1-1h6.19c.33 0 .64.16.83.44l1.6 2.41h11.36c.55 0 1 .44 1 1v13.33c0 .55-.45 1-1 1h-20c-.56 0-1-.45-1-1V3.78Zm2 1v14.19h18V7.65H10.09c-.34-.001-.65-.17-.84-.45L7.64 4.78H2.98Z"/><g fill="#9545ED"><path d="M8.43 8.81c.39-.4 1.02-.4 1.41 0l2.38 2.38 -1.42 1.41 -1.68-1.68 -1.68 1.67 -1.42-1.42L8.4 8.78Z"/><path d="M10.14 9.52v5.71H8.13V9.51h2Z"/><path d="M14.15 17.37c.39.39 1.02.39 1.41 0l2.38-2.39 -1.42-1.42 -1.68 1.67 -1.68-1.68 -1.42 1.41 2.38 2.38Z"/><path d="M15.85 16.66v-5.72h-2v5.71h2Z"/></g></g></svg>