<svg viewBox="0 0 24 24" xmlns="http://www.w3.org/2000/svg"><g fill="#3747D6" fill-rule="evenodd"><path d="M1 3.8c0-.56.44-1 1-1h6.19c.33 0 .64.16.83.44l1.6 2.41h11.36c.55 0 1 .44 1 1v13.33c0 .55-.45 1-1 1h-20c-.56 0-1-.45-1-1V3.78Zm2 1v14.19h18V7.65H10.09c-.34-.001-.65-.17-.84-.45L7.64 4.78H2.98Z"/><g fill="#9545ED"><path d="M8.14 12.85c0-.56.44-1 1-1h5.71c.55 0 1 .44 1 1v3.8c0 .55-.45 1-1 1H9.13c-.56 0-1-.45-1-1v-3.81Zm2 1v1.8h3.71v-1.81h-3.72Z"/><path d="M9.09 12c0-1.66 1.34-3 2.99-3h.85v2h-.86c-.51 0-.93.37-.99.85h1.84v2h-2.86c-.56 0-1-.45-1-1v-.86Z"/></g></g></svg>