<svg viewBox="0 0 24 24" xmlns="http://www.w3.org/2000/svg"><g fill-rule="evenodd"><path d="M10.11 2.07c.37-.16.8-.07 1.08.21l1.29 1.29V2.48h2v3.5c0 .4-.25.76-.62.92 -.38.15-.81.06-1.09-.22l-1.3-1.3v1.08h-2v-3.5c0-.41.24-.77.61-.93Z"/><path d="M4.5 15.5C4.5 11.35 7.85 8 12 8c4.14 0 7.5 3.35 7.5 7.5 0 4.14-3.36 7.5-7.5 7.5 -4.15 0-7.5-3.36-7.5-7.5Zm7.49-5.34c.4 0 .77.24.92.62l1.73 4.33c.09.23.09.5 0 .74l-1.74 4.33c-.16.37-.52.62-.93.62 -.41 0-.78-.25-.93-.63L9.3 15.83c-.1-.24-.1-.51 0-.75l1.73-4.34c.15-.38.51-.63.92-.63Z"/></g></svg>