<svg viewBox="0 0 24 24" xmlns="http://www.w3.org/2000/svg"><path fill-rule="evenodd" d="M12 21c-.54.84-.54.84-.54.84l-.01-.01 -.01-.01 -.01-.01 -.02-.02c-.02-.02-.04-.03-.07-.05 -.06-.04-.14-.1-.25-.17 -.21-.15-.5-.35-.84-.62 -.69-.54-1.61-1.32-2.53-2.31 -1.82-1.96-3.77-4.87-3.77-8.39 0-4.55 3.54-8.32 8-8.32 4.459 0 8 3.76 8 8.31 0 3.51-1.95 6.42-3.77 8.38 -.93.99-1.84 1.77-2.53 2.3 -.35.26-.64.47-.84.61 -.11.07-.19.12-.25.16 -.03.01-.06.03-.07.04l-.02.01 -.01 0 -.01 0 -.01 0c-.01 0-.01 0-.54-.85Zm0 0l.53.84c-.33.2-.74.2-1.07 0l.53-.85Zm0-10c-1.11 0-2 .89-2 2 0 1.1.89 2 2 2 1.1 0 2-.9 2-2 0-1.11-.9-2-2-2Zm-.01-3.5c-1.1 0-2.13.41-2.98 1.13L7.71 7.1c1.17-1.01 2.65-1.62 4.27-1.62 1.61 0 3.1.61 4.27 1.61l-1.3 1.52c-.85-.73-1.88-1.14-2.98-1.14Zm-1.84 3.24c.53-.49 1.17-.75 1.83-.75 .66 0 1.29.26 1.83.74l1.33-1.49c-.86-.78-1.96-1.26-3.17-1.26 -1.22 0-2.31.48-3.17 1.25l1.33 1.48Z"/></svg>