<svg viewBox="0 0 24 24" xmlns="http://www.w3.org/2000/svg"><path fill-rule="evenodd" d="M11.46 21.84s0 0 .53-.85l-.54.84c.32.2.73.2 1.06 0l-.54-.85c.53.84.53.84.53.84l0-.01 0-.01 0-.01 .01-.02c.01-.02.03-.03.06-.05 .05-.04.13-.1.24-.17 .2-.15.49-.35.83-.62 .68-.54 1.6-1.32 2.52-2.31 1.81-1.96 3.76-4.87 3.76-8.39 0-4.55-3.55-8.32-8-8.32 -4.46 0-8 3.76-8 8.31 0 3.51 1.94 6.42 3.76 8.38 .92.99 1.83 1.77 2.52 2.3 .34.26.63.47.83.61 .1.07.18.12.24.16 .02.01.05.03.06.04l.01.01 0 0 0 0 0 0Zm.53-14.85c-.28 0-.5.22-.5.5v.5h-2v-.5c0-1.39 1.11-2.5 2.5-2.5 1.38 0 2.5 1.11 2.5 2.5v.69c0 .83-.42 1.61-1.12 2.08l-.17.1c-.14.09-.23.24-.23.41v.69h-2v-.7c0-.84.41-1.62 1.11-2.09l.16-.11c.13-.1.22-.25.22-.42v-.7c0-.28-.23-.5-.5-.5Zm-1 6.5v1h2v-1h-2Z"/></svg>