<svg viewBox="0 0 24 24" xmlns="http://www.w3.org/2000/svg"><g fill-rule="evenodd"><path d="M1 6c0-1.66 1.34-3 3-3h16c1.65 0 3 1.34 3 3v.5h-2V6c0-.56-.45-1-1-1H4c-.56 0-1 .44-1 1v12c0 .55.44 1 1 1h10.5v2H4c-1.66 0-3-1.35-3-3V6Z"/><path d="M18 20c-.75.66-.75.66-.75.66l-.01-.01 -.01-.01 -.01-.01 -.02-.02 -.04-.05c-.04-.04-.08-.1-.14-.16 -.12-.14-.28-.34-.48-.59 -.4-.5-.92-1.2-1.44-2.02 -1.02-1.6-2.16-3.83-2.16-5.96 0-2.73 2.26-4.9 5-4.9 2.73 0 5 2.17 5 4.9 0 2.13-1.15 4.36-2.16 5.95 -.53.81-1.05 1.51-1.44 2.01 -.2.24-.36.44-.48.58 -.06.06-.11.12-.14.15l-.04.04 -.02.01 -.01 0 -.01 0 -.01 0c-.01 0-.01 0-.75-.67Zm0 0l.74.66c-.19.21-.46.33-.75.33s-.56-.13-.75-.34l.74-.67Zm-2.5-8c0-1.39 1.11-2.5 2.5-2.5 1.38 0 2.5 1.11 2.5 2.5 0 1.38-1.12 2.5-2.5 2.5 -1.39 0-2.5-1.12-2.5-2.5Z"/></g></svg>