<svg viewBox="0 0 24 24" xmlns="http://www.w3.org/2000/svg"><g fill-rule="evenodd"><path d="M1.5 12c0-1.39 1.11-2.5 2.5-2.5h16c1.38 0 2.5 1.11 2.5 2.5v3c0 .27-.23.5-.5.5H2c-.28 0-.5-.23-.5-.5v-3ZM4 10.5c-.83 0-1.5.67-1.5 1.5v2.5h19V12c0-.83-.68-1.5-1.5-1.5H4Z"/><path d="M1.5 15c0-.28.22-.5.5-.5h20c.27 0 .5.22.5.5v4.5c0 .27-.23.5-.5.5h-2.5c-.16 0-.31-.08-.4-.2L17.75 18H6.25L4.9 19.8c-.1.12-.25.2-.4.2H2c-.28 0-.5-.23-.5-.5V15Zm1 .5V19h1.75l1.35-1.8c.09-.13.24-.2.4-.2h12c.15 0 .3.07.4.2l1.35 1.8h1.75v-3.5h-19Z"/><path d="M2.5 6c0-1.39 1.11-2.5 2.5-2.5h14c1.38 0 2.5 1.11 2.5 2.5v4c0 .27-.23.5-.5.5H3c-.28 0-.5-.23-.5-.5V6ZM5 4.5c-.83 0-1.5.67-1.5 1.5v3.5h17V6c0-.83-.68-1.5-1.5-1.5H5Z"/><path d="M6 8c0-.83.67-1.5 1.5-1.5h2c.82 0 1.5.67 1.5 1.5v2c0 .27-.23.5-.5.5h-4c-.28 0-.5-.23-.5-.5V8Zm1.5-.5c-.28 0-.5.22-.5.5v1.5h3V8c0-.28-.23-.5-.5-.5h-2Z"/><path d="M13 8c0-.83.67-1.5 1.5-1.5h2c.82 0 1.5.67 1.5 1.5v2c0 .27-.23.5-.5.5h-4c-.28 0-.5-.23-.5-.5V8Zm1.5-.5c-.28 0-.5.22-.5.5v1.5h3V8c0-.28-.23-.5-.5-.5h-2Z"/></g></svg>