<svg viewBox="0 0 24 24" xmlns="http://www.w3.org/2000/svg"><g fill-rule="evenodd"><path d="M4.5 3c0-.83.67-1.5 1.5-1.5h12c.82 0 1.5.67 1.5 1.5v6.5h-1V3c0-.28-.23-.5-.5-.5H6c-.28 0-.5.22-.5.5v18c0 .27.22.5.5.5h5.5v1H6c-.83 0-1.5-.68-1.5-1.5V3Z"/><path d="M17 12.5c-2.49 0-4.5 2.01-4.5 4.5 0 2.48 2.01 4.5 4.5 4.5 2.48 0 4.5-2.02 4.5-4.5 0-2.49-2.02-4.5-4.5-4.5ZM11.5 17c0-3.04 2.46-5.5 5.5-5.5 3.03 0 5.5 2.46 5.5 5.5 0 3.03-2.47 5.5-5.5 5.5 -3.04 0-5.5-2.47-5.5-5.5Z"/><path d="M15.2 15.87c0-.9.72-1.625 1.625-1.625h1.42v1h-1.43c-.35 0-.625.27-.625.625 0 .34.27.62.625.62h.35c.89 0 1.625.72 1.625 1.625 0 .89-.73 1.625-1.625 1.625h-1.43v-1h1.42c.34 0 .625-.28.625-.625 0-.35-.28-.625-.625-.625h-.35c-.9 0-1.625-.73-1.625-1.625Z"/><path d="M12 5.5H8v-1h4v1Z"/><path d="M14 8.5H8v-1h6v1Z"/></g></svg>