<svg viewBox="0 0 24 24" xmlns="http://www.w3.org/2000/svg"><g fill-rule="evenodd"><path d="M8.5 22v-7h1v7h-1Z"/><path d="M5.5 21.5h7v1h-7v-1Z"/><path d="M2.5 8c0-.28.22-.5.5-.5h12c.27 0 .5.22.5.5v2c0 3.03-2.47 5.5-5.5 5.5H8c-3.04 0-5.5-2.47-5.5-5.5V8Zm1 .5V10c0 2.48 2.01 4.5 4.5 4.5h2c2.48 0 4.5-2.02 4.5-4.5V8.5h-11Z"/><path d="M19 1.87c-.88-.58-2.07-.49-2.84.28 -.89.88-.89 2.31 0 3.19l2.48 2.48c.09.09.22.14.35.14 .13 0 .25-.06.35-.15l2.48-2.49c.88-.89.88-2.32 0-3.2 -.78-.78-1.97-.87-2.84-.29Zm-.36.99c-.5-.5-1.29-.5-1.78 0 -.5.49-.5 1.28 0 1.77l2.13 2.13 2.13-2.14c.49-.5.49-1.29 0-1.78 -.5-.5-1.29-.5-1.78 0 -.2.19-.52.19-.71 0Z"/></g></svg>