<svg viewBox="0 0 24 24" xmlns="http://www.w3.org/2000/svg"><g fill-rule="evenodd"><path d="M12 8.19c2.03-1.7 5.06-1.59 6.98.32 2.02 2.02 2.02 5.3 0 7.33l-6.63 6.62c-.2.19-.52.19-.71 0l-6.63-6.63c-2.03-2.03-2.03-5.31 0-7.34 1.91-1.92 4.94-2.02 6.98-.33Zm6.27 1.02c-1.64-1.64-4.29-1.64-5.93 0 -.2.19-.52.19-.71 0 -1.64-1.64-4.29-1.64-5.93 0 -1.64 1.63-1.64 4.28 0 5.92l6.27 6.27 6.27-6.28c1.63-1.64 1.63-4.29 0-5.93Z"/><path d="M10.5 2.5C8.56 2.5 7 4.06 7 6v2H6V6c0-2.49 2.01-4.5 4.5-4.5h3C15.98 1.5 18 3.51 18 6v2h-1V6c0-1.94-1.57-3.5-3.5-3.5h-3Z"/></g></svg>