<svg viewBox="0 0 24 24" xmlns="http://www.w3.org/2000/svg"><g fill-rule="evenodd"><path d="M6.5 9.75c0-.28.22-.5.5-.5h10c.27 0 .5.22.5.5v12c0 .27-.23.5-.5.5H7c-.28 0-.5-.23-.5-.5v-12Zm1 .5v11h9v-11h-9Z"/><path d="M16.5 18.75c0-.28.22-.5.5-.5h5c.27 0 .5.22.5.5v3c0 .27-.23.5-.5.5h-5c-.28 0-.5-.23-.5-.5v-3Zm1 .5v2h4v-2h-4Z"/><path d="M1.5 18.75c0-.28.22-.5.5-.5h5c.27 0 .5.22.5.5v3c0 .27-.23.5-.5.5H2c-.28 0-.5-.23-.5-.5v-3Zm1 .5v2h4v-2h-4Z"/><path d="M1.5 6.75c0-.28.22-.5.5-.5h2.5c.27 0 .5.22.5.5v12c0 .27-.23.5-.5.5H2c-.28 0-.5-.23-.5-.5v-12Zm1 .5v11H4v-11H2.5Z"/><path d="M2.52 3.59c.06-.21.25-.35.47-.35h.5c.21 0 .4.13.47.34l1 3c.05.15.02.32-.07.45 -.1.13-.25.2-.41.2h-2.5c-.17 0-.32-.08-.41-.21 -.1-.14-.12-.3-.07-.46l1-3Zm.72.98l-.56 1.66h1.11l-.56-1.67Z"/><path d="M20.02 3.59c.06-.21.25-.35.47-.35h.5c.21 0 .4.13.47.34l1 3c.05.15.02.32-.07.45 -.1.13-.25.2-.41.2h-2.5c-.17 0-.32-.08-.41-.21 -.1-.14-.12-.3-.07-.46l1-3Zm.72.98l-.56 1.66h1.11l-.56-1.67Z"/><path d="M19 6.75c0-.28.22-.5.5-.5H22c.27 0 .5.22.5.5v12c0 .27-.23.5-.5.5h-2.5c-.28 0-.5-.23-.5-.5v-12Zm1 .5v11h1.5v-11H20Z"/><path d="M9.5 15.75c0-.28.22-.5.5-.5h4c.27 0 .5.22.5.5v6c0 .27-.23.5-.5.5h-4c-.28 0-.5-.23-.5-.5v-6Zm1 .5v5h3v-5h-3Z"/><path d="M12.22 1.8l-.23.44 -.23-.45c.14-.08.31-.08.45 0Zm-.23 1.01c-.12.06-.27.14-.45.25 -.42.24-.96.58-1.5.99 -.55.41-1.08.87-1.46 1.35 -.4.48-.593.93-.593 1.32 0 .95.5 1.84 1.3 2.5h5.38c.8-.66 1.3-1.55 1.3-2.5 0-.39-.21-.84-.593-1.33 -.39-.49-.92-.95-1.46-1.36 -.55-.41-1.09-.76-1.5-1 -.19-.11-.34-.2-.45-.26Zm-.23-1.02c0-.01 0 0 .22.44 .22-.45.22-.45.22-.45l0 0 0 0 .01 0 .04.02c.03.01.08.04.14.07 .12.06.3.17.52.29 .43.25 1.01.62 1.59 1.06 .57.43 1.17.95 1.63 1.52 .45.56.81 1.22.81 1.94 0 1.38-.78 2.59-1.84 3.39 -.09.06-.2.1-.31.1H9.05c-.11 0-.22-.04-.31-.11 -1.06-.81-1.84-2.01-1.84-3.4 0-.72.36-1.39.81-1.95 .45-.58 1.05-1.1 1.63-1.53 .58-.44 1.16-.81 1.59-1.07 .21-.13.39-.23.52-.3 .06-.04.11-.07.14-.08l.04-.03 .01-.01 0-.01 0-.01Z"/></g></svg>