<svg viewBox="0 0 24 24" xmlns="http://www.w3.org/2000/svg"><g fill-rule="evenodd"><path d="M12 6.5c-4.15 0-7.5 3.35-7.5 7.5 0 4.14 3.35 7.5 7.5 7.5 4.14 0 7.5-3.36 7.5-7.5 0-4.15-3.36-7.5-7.5-7.5ZM3.5 14c0-4.7 3.8-8.5 8.5-8.5 4.69 0 8.5 3.8 8.5 8.5 0 4.69-3.81 8.5-8.5 8.5 -4.7 0-8.5-3.81-8.5-8.5Z"/><path d="M10.14 1.64c.09-.1.22-.15.35-.15h3c.13 0 .25.05.35.14l1 1c.18.18.19.47.03.67l-2.5 3c-.1.11-.24.17-.39.17 -.15 0-.29-.07-.39-.18l-2.51-3c-.17-.2-.16-.5.03-.68l.99-1Zm.56.85l-.54.53 1.82 2.18 1.82-2.19 -.54-.54h-2.59Z"/></g></svg>