<svg viewBox="0 0 24 24" xmlns="http://www.w3.org/2000/svg"><g fill-rule="evenodd"><path d="M8.77 1.55c.06-.04.14-.06.22-.06h6c.1 0 .21.03.3.1l3.2 2.4c.62.47 1 1.21 1 2v8c0 .27-.23.5-.5.5h-3c-.28 0-.5-.23-.5-.5v-6h1v5.5h2v-7.5c0-.48-.23-.92-.6-1.2l-3.07-2.3H9.1L6.31 3.88c-.51.25-.83.77-.83 1.34v8.26h2v-5.5h1v6c0 .27-.23.5-.5.5h-3c-.28 0-.5-.23-.5-.5V5.21c0-.95.53-1.82 1.38-2.24l2.89-1.45Z"/><path d="M8.97 21.5l-.48-8.03 -1 .05 .5 8.5c.01.26.23.47.49.47h6.99c.26 0 .48-.21.49-.48l.5-8.5 -1-.06 -.48 8.02H8.92Z"/><path d="M11.57 7.25l-3.01-5 .85-.52 2.57 4.28 2.57-4.29 .85.51 -3 5c-.1.15-.26.24-.43.24 -.18 0-.34-.1-.43-.25Z"/><path d="M11.5 22V7h1v15h-1Z"/><path d="M11.73 10.076c.16-.11.36-.11.53 0l4 2.5 -.53.84 -3.74-2.34 -3.74 2.33 -.53-.85 3.99-2.5Z"/></g></svg>