<svg viewBox="0 0 24 24" xmlns="http://www.w3.org/2000/svg"><g fill-rule="evenodd"><path d="M7.41 14.5c.02-.01.05-.01.08-.01h13c1.1 0 2 .89 2 2v3.5c0 .27-.23.5-.5.5h-2v-1h1.5v-3c0-.56-.45-1-1-1H7.53l-4.23.76c-.48.08-.83.5-.83.98v2.24h1.5v1h-2c-.28 0-.5-.23-.5-.5v-2.75c0-.97.69-1.8 1.64-1.97l4.26-.78Zm.58 4.99h8v1h-8v-1Z"/><path d="M6 18.5c-.83 0-1.5.67-1.5 1.5 0 .82.67 1.5 1.5 1.5 .82 0 1.5-.68 1.5-1.5 0-.83-.68-1.5-1.5-1.5ZM3.5 20c0-1.39 1.11-2.5 2.5-2.5 1.38 0 2.5 1.11 2.5 2.5 0 1.38-1.12 2.5-2.5 2.5 -1.39 0-2.5-1.12-2.5-2.5Z"/><path d="M18 18.5c-.83 0-1.5.67-1.5 1.5 0 .82.67 1.5 1.5 1.5 .82 0 1.5-.68 1.5-1.5 0-.83-.68-1.5-1.5-1.5ZM15.5 20c0-1.39 1.11-2.5 2.5-2.5 1.38 0 2.5 1.11 2.5 2.5 0 1.38-1.12 2.5-2.5 2.5 -1.39 0-2.5-1.12-2.5-2.5Z"/><path d="M11.35 12.35l-3.01 3 -.71-.71 3-3 .7.7Z"/><path d="M13.5 11c0-.28.22-.5.5-.5h1.14c1.32 0 2.53.74 3.13 1.93l1.17 2.34c.07.15.06.33-.03.48 -.1.14-.26.23-.43.23h-5c-.28 0-.5-.23-.5-.5v-4Zm1 .5v3h3.69l-.81-1.62c-.43-.85-1.29-1.39-2.24-1.39h-.65Z"/><path d="M6 2.87c-.88-.58-2.07-.49-2.84.28 -.89.88-.89 2.31 0 3.19l2.48 2.48c.09.09.22.14.35.14 .13 0 .25-.06.35-.15l2.48-2.49c.88-.89.88-2.32 0-3.2 -.78-.78-1.97-.87-2.84-.29Zm-.36.99c-.5-.5-1.29-.5-1.78 0 -.5.49-.5 1.28 0 1.77l2.13 2.13 2.13-2.14c.49-.5.49-1.29 0-1.78 -.5-.5-1.29-.5-1.78 0 -.2.19-.52.19-.71 0Z"/></g></svg>