<svg viewBox="0 0 24 24" xmlns="http://www.w3.org/2000/svg"><g fill-rule="evenodd"><path d="M19 2.5c-1.39 0-2.5 1.11-2.5 2.5 0 1.38 1.11 2.5 2.5 2.5 1.38 0 2.5-1.12 2.5-2.5 0-1.39-1.12-2.5-2.5-2.5ZM15.5 5c0-1.94 1.56-3.5 3.5-3.5 1.93 0 3.5 1.56 3.5 3.5 0 1.93-1.57 3.5-3.5 3.5 -1.94 0-3.5-1.57-3.5-3.5Z"/><path d="M18.82 11.5c-.4 0-.78.15-1.07.43l-.83.82c-.47.46-1.11.73-1.77.73h-1.18v-1h1.17c.39 0 .77-.16 1.06-.44l.82-.83c.46-.47 1.1-.74 1.76-.74h.17c1.38 0 2.5 1.11 2.5 2.5v7.25c0 1.23-1.01 2.24-2.25 2.24 -.97 0-1.83-.62-2.13-1.54l-1.61-4.81 .94-.32 1.6 4.8c.16.5.64.85 1.17.85 .68 0 1.24-.56 1.24-1.25v-7.26c0-.83-.68-1.5-1.5-1.5h-.18Z"/><path d="M9 2.5C7.61 2.5 6.5 3.61 6.5 5c0 1.38 1.11 2.5 2.5 2.5 1.38 0 2.5-1.12 2.5-2.5 0-1.39-1.12-2.5-2.5-2.5ZM5.5 5c0-1.94 1.56-3.5 3.5-3.5 1.93 0 3.5 1.56 3.5 3.5 0 1.93-1.57 3.5-3.5 3.5 -1.94 0-3.5-1.57-3.5-3.5Z"/><path d="M1.78 18.56l4.78-7.83 .85.52 -4.79 7.82c-.09.14-.14.31-.14.48 0 .51.41.92.92.92h6.26c.91 0 1.61-.81 1.48-1.72l-.68-4.72 .99-.15 .67 4.71c.21 1.5-.96 2.85-2.48 2.85H3.37c-1.07 0-1.93-.87-1.93-1.93 0-.36.09-.71.28-1.01Z"/><path d="M7.99 18.5h-5v-1h4.99v1Z"/></g></svg>