<svg viewBox="0 0 24 24" xmlns="http://www.w3.org/2000/svg"><g fill-rule="evenodd"><path d="M6.53 9.46c.29.29.29.76 0 1.06l-3.47 3.46 3.46 3.46c.29.29.29.76 0 1.06 -.3.29-.77.29-1.07 0l-4-4c-.3-.3-.3-.77 0-1.07l4-4.01c.29-.3.76-.3 1.06 0Z"/><path d="M17.46 9.46c-.3.29-.3.76 0 1.06l3.46 3.46 -3.47 3.46c-.3.29-.3.76 0 1.06 .29.29.76.29 1.06 0l4-4c.29-.3.29-.77 0-1.07l-4-4.01c-.3-.3-.77-.3-1.07 0Z"/><path d="M8.32 9.66c.12-.26.38-.42.67-.42h6c.28 0 .54.16.67.41l1 2c.12.24.1.52-.05.75l-.67 1c-.23.34-.7.43-1.05.2 -.35-.23-.44-.7-.21-1.04l.42-.64 -.6-1.2H9.42l-.6 1.19 3.13 4.7 .04-.07c.22-.35.69-.44 1.04-.21 .34.22.43.69.2 1.04l-.67 1c-.14.2-.38.33-.63.33 -.26 0-.49-.13-.63-.34l-4.01-6c-.15-.23-.17-.52-.05-.76l1-2.01Z"/><path d="M7.5 3.75c.41 0 .75.33.75.75v4c0 .41-.34.75-.75.75 -.42 0-.75-.34-.75-.75v-4c0-.42.33-.75.75-.75Z"/><path d="M12.5 1.25c.41 0 .75.33.75.75v4c0 .41-.34.75-.75.75 -.42 0-.75-.34-.75-.75V2c0-.42.33-.75.75-.75Z"/><path d="M15 17.25c.41 0 .75.33.75.75v4c0 .41-.34.75-.75.75 -.42 0-.75-.34-.75-.75v-4c0-.42.33-.75.75-.75Z"/><path d="M4.75 6.5c0-.42.33-.75.75-.75h4c.41 0 .75.33.75.75 0 .41-.34.75-.75.75h-4c-.42 0-.75-.34-.75-.75Z"/><path d="M9.75 4c0-.42.33-.75.75-.75h4c.41 0 .75.33.75.75 0 .41-.34.75-.75.75h-4c-.42 0-.75-.34-.75-.75Z"/><path d="M12.25 20c0-.42.33-.75.75-.75h4c.41 0 .75.33.75.75 0 .41-.34.75-.75.75h-4c-.42 0-.75-.34-.75-.75Z"/></g></svg>