<svg viewBox="0 0 24 24" xmlns="http://www.w3.org/2000/svg"><g fill-rule="evenodd"><path d="M13 2.75c-2.71 0-4.94 2.05-5.22 4.68 -.03.24-.17.45-.39.57 -.22.11-.48.12-.7.01 -.37-.18-.78-.28-1.21-.28 -1.52 0-2.75 1.23-2.75 2.75 0 1.51 1.23 2.75 2.75 2.75 .41 0 .75.33.75.75 0 .41-.34.75-.75.75 -2.35 0-4.25-1.91-4.25-4.25 0-2.35 1.9-4.25 4.25-4.25 .32 0 .64.03.95.1 .73-2.94 3.38-5.11 6.54-5.11 3.12 0 5.74 2.12 6.52 5 2.33.01 4.22 1.9 4.22 4.24 0 2.34-1.91 4.25-4.25 4.25h-10c-.42 0-.75-.34-.75-.75 0-.42.33-.75.75-.75h10c1.51 0 2.75-1.24 2.75-2.75 0-1.52-1.24-2.75-2.75-2.75 -.16 0-.31.01-.46.03 -.2.03-.4-.02-.57-.14 -.17-.12-.28-.3-.31-.5 -.4-2.51-2.57-4.42-5.19-4.42Z"/><path d="M10.78 15.3c.28.11.46.38.46.69v6c0 .41-.34.75-.75.75 -.42 0-.75-.34-.75-.75V17.8l-1.22 1.21c-.3.29-.77.29-1.07 0 -.3-.3-.3-.77-.01-1.07l2.49-2.5c.21-.22.53-.28.81-.17Z"/><path d="M13.213 22.69c-.29-.12-.47-.39-.47-.7v-6c0-.42.33-.75.75-.75 .41 0 .75.33.75.75v4.18l1.21-1.22c.29-.3.76-.3 1.06 0 .29.29.29.76 0 1.06l-2.5 2.5c-.22.21-.54.27-.82.16Z"/></g></svg>