<svg viewBox="0 0 24 24" xmlns="http://www.w3.org/2000/svg"><g fill-rule="evenodd"><path d="M12 17.75c-.42 0-.75.33-.75.75 0 .41.33.75.75.75 .41 0 .75-.34.75-.75 0-.42-.34-.75-.75-.75Zm-2.25.75c0-1.25 1-2.25 2.25-2.25 1.24 0 2.25 1 2.25 2.25 0 1.24-1.01 2.25-2.25 2.25 -1.25 0-2.25-1.01-2.25-2.25Z"/><path d="M2.77 21.25h2.22c.41 0 .75.33.75.75 0 .41-.34.75-.75.75h-3c-.42 0-.75-.34-.75-.75 0-5.94 4.81-10.75 10.75-10.75 5.93 0 10.75 4.81 10.75 10.75 0 .41-.34.75-.75.75h-13c-.42 0-.75-.34-.75-.75 0-.42.33-.75.75-.75h12.22c-.39-4.76-4.37-8.5-9.22-8.5 -4.86 0-8.84 3.74-9.23 8.5Z"/><path d="M12 9.25c.41 0 .75.33.75.75v7c0 .41-.34.75-.75.75 -.42 0-.75-.34-.75-.75v-7c0-.42.33-.75.75-.75Z"/><path d="M15.25 8c0 .41.33.75.75.75h3c.41 0 .75-.34.75-.75V5c0-.42-.34-.75-.75-.75 -.42 0-.75.33-.75.75v2.25H16c-.42 0-.75.33-.75.75Z"/><path d="M19.53 8.53c.29-.3.29-.77 0-1.07l-6-6c-.3-.3-.77-.3-1.07 0L8.99 4.92 5.52 1.45c-.3-.3-.77-.3-1.07 0 -.3.29-.3.76 0 1.06l4 4c.29.29.76.29 1.06 0l3.46-3.47 5.46 5.46c.29.29.76.29 1.06 0Z"/></g></svg>