<svg viewBox="0 0 24 24" xmlns="http://www.w3.org/2000/svg"><g fill-rule="evenodd"><path d="M1.25 2c0-.42.33-.75.75-.75h20c.41 0 .75.33.75.75v9c0 .41-.34.75-.75.75 -.42 0-.75-.34-.75-.75V2.75H2.75v18.5h18.5V15c0-.42.33-.75.75-.75 .41 0 .75.33.75.75v7c0 .41-.34.75-.75.75H2c-.42 0-.75-.34-.75-.75V2Z"/><path d="M1.25 2c0-.42.33-.75.75-.75h20c.41 0 .75.33.75.75v5c0 .41-.34.75-.75.75H2c-.42 0-.75-.34-.75-.75V2Zm1.5.75v3.5h18.5v-3.5H2.75Z"/><path d="M3.75 4.5c0-.42.33-.75.75-.75h2c.41 0 .75.33.75.75 0 .41-.34.75-.75.75h-2c-.42 0-.75-.34-.75-.75Z"/><path d="M7.75 4.5c0-.42.33-.75.75-.75h2c.41 0 .75.33.75.75 0 .41-.34.75-.75.75h-2c-.42 0-.75-.34-.75-.75Z"/><path d="M11.75 4.5c0-.42.33-.75.75-.75h2c.41 0 .75.33.75.75 0 .41-.34.75-.75.75h-2c-.42 0-.75-.34-.75-.75Z"/><path d="M8.75 12.93c.03-.39.35-.69.74-.69h5c.39 0 .71.29.74.68l.5 6c.01.2-.06.41-.2.57 -.15.15-.35.24-.56.24h-6c-.21 0-.41-.09-.56-.25 -.15-.16-.22-.37-.2-.58l.5-6Zm1.43.81l-.375 4.5h4.36l-.375-4.5h-3.62Z"/><path d="M12 10.75c-.42 0-.75.33-.75.75V13c0 .41-.34.75-.75.75 -.42 0-.75-.34-.75-.75v-1.5c0-1.25 1-2.25 2.25-2.25 1.24 0 2.25 1 2.25 2.25V13c0 .41-.34.75-.75.75 -.42 0-.75-.34-.75-.75v-1.5c0-.42-.34-.75-.75-.75Z"/></g></svg>