<svg viewBox="0 0 24 24" xmlns="http://www.w3.org/2000/svg"><g fill-rule="evenodd"><path d="M1.25 2c0-.42.33-.75.75-.75h20c.41 0 .75.33.75.75v20c0 .41-.34.75-.75.75h-6c-.42 0-.75-.34-.75-.75 0-.42.33-.75.75-.75h5.25V2.75H2.75v18.5H12c.41 0 .75.33.75.75 0 .41-.34.75-.75.75H2c-.42 0-.75-.34-.75-.75V2Z"/><path d="M1.25 2c0-.42.33-.75.75-.75h20c.41 0 .75.33.75.75v5c0 .41-.34.75-.75.75H2c-.42 0-.75-.34-.75-.75V2Zm1.5.75v3.5h18.5v-3.5H2.75Z"/><path d="M3.75 4.5c0-.42.33-.75.75-.75h2c.41 0 .75.33.75.75 0 .41-.34.75-.75.75h-2c-.42 0-.75-.34-.75-.75Z"/><path d="M7.75 4.5c0-.42.33-.75.75-.75h2c.41 0 .75.33.75.75 0 .41-.34.75-.75.75h-2c-.42 0-.75-.34-.75-.75Z"/><path d="M11.75 4.5c0-.42.33-.75.75-.75h2c.41 0 .75.33.75.75 0 .41-.34.75-.75.75h-2c-.42 0-.75-.34-.75-.75Z"/><path d="M5.75 14c0-1.25 1-2.25 2.25-2.25h8c1.24 0 2.25 1 2.25 2.25v4c0 1.24-1.01 2.25-2.25 2.25H8c-1.25 0-2.25-1.01-2.25-2.25v-4ZM8 13.25c-.42 0-.75.33-.75.75v4c0 .41.33.75.75.75h8c.41 0 .75-.34.75-.75v-4c0-.42-.34-.75-.75-.75H8Z"/><path d="M9.25 11.5c0-1.52 1.23-2.75 2.75-2.75 1.51 0 2.75 1.23 2.75 2.75v1c0 .41-.34.75-.75.75h-4c-.42 0-.75-.34-.75-.75v-1ZM12 10.25c-.7 0-1.25.55-1.25 1.25v.25h2.5v-.25c0-.7-.56-1.25-1.25-1.25Z"/></g></svg>