<svg viewBox="0 0 24 24" xmlns="http://www.w3.org/2000/svg"><g fill-rule="evenodd"><path d="M12 2.75c-4.01 0-7.25 3.24-7.25 7.25 0 .9.42 2.07 1.15 3.37 .72 1.28 1.69 2.6 2.67 3.81 .98 1.2 1.96 2.27 2.7 3.04 .27.28.51.53.7.72 .05-.06.11-.12.17-.18 .43-.44 1.03-1.07 1.7-1.81 1.35-1.5 2.96-3.46 4.06-5.35 .2-.36.66-.48 1.02-.27 .35.2.47.66.26 1.02 -1.19 2.02-2.88 4.06-4.26 5.59 -.7.76-1.31 1.4-1.76 1.85 -.23.22-.41.4-.53.52 -.07.06-.12.1-.15.14l-.04.03 -.02 0 -.01 0c-.01 0-.01 0-.52-.55 -.52.54-.516.54-.52.54l-.01-.01 -.02-.02 -.07-.07c-.07-.06-.15-.15-.26-.26 -.23-.22-.54-.54-.92-.94 -.76-.79-1.78-1.9-2.8-3.14 -1.02-1.25-2.05-2.65-2.83-4.03 -.77-1.37-1.35-2.81-1.35-4.11 0-4.84 3.91-8.75 8.75-8.75 4.83 0 8.75 3.91 8.75 8.75 0 .41-.34.75-.75.75 -.42 0-.75-.34-.75-.75 0-4.01-3.25-7.25-7.25-7.25ZM12 22l-.52.54c.28.27.74.27 1.03-.01l-.52-.55Z"/><path d="M12 7.75c-.7 0-1.25.55-1.25 1.25 0 .69.55 1.25 1.25 1.25 .69 0 1.25-.56 1.25-1.25 0-.7-.56-1.25-1.25-1.25ZM9.25 9c0-1.52 1.23-2.75 2.75-2.75 1.51 0 2.75 1.23 2.75 2.75 0 1.51-1.24 2.75-2.75 2.75 -1.52 0-2.75-1.24-2.75-2.75Z"/><path d="M12 4.25c.41 0 .75.33.75.75v2c0 .41-.34.75-.75.75 -.42 0-.75-.34-.75-.75V5c0-.42.33-.75.75-.75Z"/><path d="M12 10.25c.41 0 .75.33.75.75v2c0 .41-.34.75-.75.75 -.42 0-.75-.34-.75-.75v-2c0-.42.33-.75.75-.75Z"/><path d="M7.25 9c0-.42.33-.75.75-.75h2c.41 0 .75.33.75.75 0 .41-.34.75-.75.75H8c-.42 0-.75-.34-.75-.75Z"/><path d="M13.25 9c0-.42.33-.75.75-.75h2c.41 0 .75.33.75.75 0 .41-.34.75-.75.75h-2c-.42 0-.75-.34-.75-.75Z"/><path d="M8.64 5.64c.29-.3.76-.3 1.06 0l1.41 1.41c.29.29.29.76 0 1.06 -.3.29-.77.29-1.07 0L8.62 6.69c-.3-.3-.3-.77 0-1.07Z"/><path d="M12.88 9.88c.29-.3.76-.3 1.06 0l1.41 1.41c.29.29.29.76 0 1.06 -.3.29-.77.29-1.07 0l-1.42-1.42c-.3-.3-.3-.77 0-1.07Z"/><path d="M8.64 12.35c-.3-.3-.3-.77 0-1.07l1.41-1.42c.29-.3.76-.3 1.06 0 .29.29.29.76 0 1.06l-1.42 1.41c-.3.29-.77.29-1.07 0Z"/><path d="M12.88 8.11c-.3-.3-.3-.77 0-1.07l1.41-1.42c.29-.3.76-.3 1.06 0 .29.29.29.76 0 1.06l-1.42 1.41c-.3.29-.77.29-1.07 0Z"/></g></svg>