<svg viewBox="0 0 24 24" xmlns="http://www.w3.org/2000/svg"><g fill-rule="evenodd"><path d="M13.96 13.96c.21-.22.53-.28.8-.17l7.07 2.82c.27.1.45.37.47.66 .01.29-.15.56-.42.7l-1.9.94 1.38 1.38c.29.29.29.76 0 1.06 -.3.29-.77.29-1.07 0l-1.39-1.39 -.95 1.89c-.14.26-.41.42-.71.41 -.3-.02-.56-.2-.67-.48l-2.83-7.08c-.12-.28-.05-.6.16-.81Zm1.87 1.87l1.55 3.89 .66-1.34c.07-.15.19-.27.33-.34l1.33-.67 -3.9-1.56Z"/><path d="M7.25 9c0-1.25 1-2.25 2.25-2.25H13c.41 0 .75.33.75.75 0 .41-.34.75-.75.75H9.5c-.42 0-.75.33-.75.75 0 .41.33.75.75.75h2c1.24 0 2.25 1 2.25 2.25 0 1.24-1.01 2.25-2.25 2.25H8c-.42 0-.75-.34-.75-.75 0-.42.33-.75.75-.75h3.5c.41 0 .75-.34.75-.75 0-.42-.34-.75-.75-.75h-2c-1.25 0-2.25-1.01-2.25-2.25Z"/><path d="M10.5 12.75c.41 0 .75.33.75.75V16c0 .41-.34.75-.75.75 -.42 0-.75-.34-.75-.75v-2.5c0-.42.33-.75.75-.75Z"/><path d="M10.5 4.25c.41 0 .75.33.75.75v2.5c0 .41-.34.75-.75.75 -.42 0-.75-.34-.75-.75V5c0-.42.33-.75.75-.75Z"/><path d="M10.5 3.25c-2.69 0-5.03 1.45-6.29 3.62 -.21.35-.67.48-1.03.27 -.36-.21-.49-.67-.28-1.03 1.51-2.62 4.33-4.38 7.57-4.38 4.83 0 8.75 3.91 8.75 8.75 0 2.06-.72 3.97-1.92 5.46 -.26.32-.74.37-1.06.11 -.33-.26-.38-.74-.12-1.06 .99-1.25 1.58-2.82 1.58-4.54 0-4.01-3.25-7.25-7.25-7.25Zm-8 6.5c.41 0 .75.33.75.75 0 4 3.24 7.25 7.25 7.25 1.71 0 3.28-.6 4.53-1.59 .32-.26.79-.21 1.05.11 .25.32.2.79-.12 1.05 -1.5 1.2-3.41 1.91-5.47 1.91 -4.84 0-8.75-3.92-8.75-8.75 0-.42.33-.75.75-.75Z"/></g></svg>