<svg viewBox="0 0 24 24" xmlns="http://www.w3.org/2000/svg"><g fill-rule="evenodd"><path d="M8.03 9.96c.29.29.29.76 0 1.06l-4 4c-.3.29-.77.29-1.07 0 -.3-.3-.3-.77 0-1.07l4-4.01c.29-.3.76-.3 1.06 0Z"/><path d="M2.96 9.96c-.3.29-.3.76 0 1.06l4 4c.29.29.76.29 1.06 0 .29-.3.29-.77 0-1.07l-4-4.01c-.3-.3-.77-.3-1.07 0Z"/><path d="M19.53 16.46c.29.29.29.76 0 1.06l-4 4c-.3.29-.77.29-1.07 0 -.3-.3-.3-.77 0-1.07l4-4c.29-.3.76-.3 1.06 0Z"/><path d="M14.46 16.46c-.3.29-.3.76 0 1.06l4 4c.29.29.76.29 1.06 0 .29-.3.29-.77 0-1.07l-4-4c-.3-.3-.77-.3-1.07 0Z"/><path d="M16 8.75c-1.8 0-3.25 1.45-3.25 3.25v2c0 2.62-2.13 4.75-4.75 4.75h-.5c-.42 0-.75-.34-.75-.75 0-.42.33-.75.75-.75H8c1.79 0 3.25-1.46 3.25-3.25v-2c0-2.63 2.12-4.75 4.75-4.75h6c.41 0 .75.33.75.75 0 .41-.34.75-.75.75h-6ZM1.25 18c0-.42.33-.75.75-.75h1.5c.41 0 .75.33.75.75 0 .41-.34.75-.75.75H2c-.42 0-.75-.34-.75-.75Z"/><path d="M18.46 4.46c.29-.3.76-.3 1.06 0l3 3c.29.29.29.76 0 1.06l-3 2.99c-.3.29-.77.29-1.07 0 -.3-.3-.3-.77 0-1.07l2.46-2.47 -2.47-2.47c-.3-.3-.3-.77 0-1.07Z"/><path d="M11 3.75c-.7 0-1.25.55-1.25 1.25 0 .69.55 1.25 1.25 1.25 .69 0 1.25-.56 1.25-1.25 0-.7-.56-1.25-1.25-1.25ZM8.25 5c0-1.52 1.23-2.75 2.75-2.75 1.51 0 2.75 1.23 2.75 2.75 0 1.51-1.24 2.75-2.75 2.75 -1.52 0-2.75-1.24-2.75-2.75Z"/></g></svg>