<svg viewBox="0 0 24 24" xmlns="http://www.w3.org/2000/svg"><g fill-rule="evenodd"><path d="M1.25 2c0-.42.33-.75.75-.75h20c.41 0 .75.33.75.75v20c0 .41-.34.75-.75.75H2c-.42 0-.75-.34-.75-.75V2Zm1.5.75v18.5h18.5V2.75H2.75Z"/><path d="M1.25 2c0-.42.33-.75.75-.75h20c.41 0 .75.33.75.75v5c0 .41-.34.75-.75.75h-3.5c-.42 0-.75-.34-.75-.75 0-.42.33-.75.75-.75h2.75v-3.5H2.75v3.5H14.5c.41 0 .75.33.75.75 0 .41-.34.75-.75.75H2c-.42 0-.75-.34-.75-.75V2Z"/><path d="M3.75 4.5c0-.42.33-.75.75-.75h2c.41 0 .75.33.75.75 0 .41-.34.75-.75.75h-2c-.42 0-.75-.34-.75-.75Z"/><path d="M7.75 4.5c0-.42.33-.75.75-.75h2c.41 0 .75.33.75.75 0 .41-.34.75-.75.75h-2c-.42 0-.75-.34-.75-.75Z"/><path d="M11.75 4.5c0-.42.33-.75.75-.75h2c.41 0 .75.33.75.75 0 .41-.34.75-.75.75h-2c-.42 0-.75-.34-.75-.75Z"/><path d="M4.25 11c0-.42.33-.75.75-.75h3c.41 0 .75.33.75.75 0 .41-.34.75-.75.75H5.75v2H8c.41 0 .75.33.75.75V18c0 .41-.34.75-.75.75H5c-.42 0-.75-.34-.75-.75 0-.42.33-.75.75-.75h2.25v-2H5c-.42 0-.75-.34-.75-.75V11Z"/><path d="M15.25 11c0-.42.33-.75.75-.75h3c.41 0 .75.33.75.75v7c0 .41-.34.75-.75.75h-3c-.42 0-.75-.34-.75-.75v-7Zm1.5.75v5.5h1.5v-5.5h-1.5Z"/><path d="M9.75 11c0-.42.33-.75.75-.75h3c.41 0 .75.33.75.75 0 .41-.34.75-.75.75h-2.25v2h2.25c.41 0 .75.33.75.75 0 .41-.34.75-.75.75h-2.25v2h2.25c.41 0 .75.33.75.75 0 .41-.34.75-.75.75h-3c-.42 0-.75-.34-.75-.75v-7Z"/></g></svg>