<svg viewBox="0 0 24 24" xmlns="http://www.w3.org/2000/svg"><g fill-rule="evenodd"><path d="M1.25 2c0-.42.33-.75.75-.75h20c.41 0 .75.33.75.75v14.5c0 .41-.34.75-.75.75 -.42 0-.75-.34-.75-.75V2.75H2.75v18.5h18.5v-.75c0-.42.33-.75.75-.75 .41 0 .75.33.75.75V22c0 .41-.34.75-.75.75H2c-.42 0-.75-.34-.75-.75V2Z"/><path d="M1.25 2c0-.42.33-.75.75-.75h20c.41 0 .75.33.75.75v5c0 .41-.34.75-.75.75H2c-.42 0-.75-.34-.75-.75V2Zm1.5.75v3.5h18.5v-3.5H2.75Z"/><path d="M3.75 4.5c0-.42.33-.75.75-.75h2c.41 0 .75.33.75.75 0 .41-.34.75-.75.75h-2c-.42 0-.75-.34-.75-.75Z"/><path d="M7.75 4.5c0-.42.33-.75.75-.75h2c.41 0 .75.33.75.75 0 .41-.34.75-.75.75h-2c-.42 0-.75-.34-.75-.75Z"/><path d="M11.75 4.5c0-.42.33-.75.75-.75h2c.41 0 .75.33.75.75 0 .41-.34.75-.75.75h-2c-.42 0-.75-.34-.75-.75Z"/><path d="M11.73 8.79c.16-.07.35-.07.52 0l4 1.5c.29.1.48.38.48.7v3.86c0 .93-.41 1.82-1.11 2.44l-3.15 2.75c-.29.24-.71.24-.99 0l-3.15-2.76c-.71-.62-1.11-1.51-1.11-2.45v-3.87c0-.32.19-.6.48-.71l4-1.51Zm-2.99 2.72v3.34c0 .5.21.98.59 1.31l2.65 2.32 2.65-2.33c.37-.34.59-.82.59-1.32v-3.35l-3.25-1.22 -3.25 1.21Z"/></g></svg>