<svg viewBox="0 0 24 24" xmlns="http://www.w3.org/2000/svg"><g fill-rule="evenodd"><path d="M1.25 2c0-.42.33-.75.75-.75h20c.41 0 .75.33.75.75v9c0 .41-.34.75-.75.75 -.42 0-.75-.34-.75-.75V2.75H2.75v18.5h18.5V15c0-.42.33-.75.75-.75 .41 0 .75.33.75.75v7c0 .41-.34.75-.75.75H2c-.42 0-.75-.34-.75-.75V2Z"/><path d="M1.25 2c0-.42.33-.75.75-.75h20c.41 0 .75.33.75.75v5c0 .41-.34.75-.75.75H2c-.42 0-.75-.34-.75-.75V2Zm1.5.75v3.5h18.5v-3.5H2.75Z"/><path d="M3.75 4.5c0-.42.33-.75.75-.75h2c.41 0 .75.33.75.75 0 .41-.34.75-.75.75h-2c-.42 0-.75-.34-.75-.75Z"/><path d="M7.75 4.5c0-.42.33-.75.75-.75h2c.41 0 .75.33.75.75 0 .41-.34.75-.75.75h-2c-.42 0-.75-.34-.75-.75Z"/><path d="M11.75 4.5c0-.42.33-.75.75-.75h2c.41 0 .75.33.75.75 0 .41-.34.75-.75.75h-2c-.42 0-.75-.34-.75-.75Z"/><path d="M11.68 9.31c.19-.09.42-.09.62 0l5.5 2.49c.26.12.43.38.43.68 0 .29-.18.56-.44.68l-5.5 2.5c-.2.08-.43.08-.63 0l-5.5-2.5c-.27-.13-.44-.39-.44-.69 0-.3.17-.57.43-.69l5.49-2.5ZM8.3 12.49l3.68 1.67 3.68-1.68 -3.69-1.68 -3.69 1.67Z"/><path d="M8.4 12.75c.41-.06.78.24.83.65l.41 3.343h4.67l.41-3.343c.05-.42.42-.71.83-.66 .41.05.7.42.65.83l-.5 4c-.05.37-.37.657-.75.657H8.94c-.38 0-.7-.29-.75-.657l-.5-4c-.06-.42.24-.79.65-.84Z"/><path d="M17.5 11.75c.41 0 .75.33.75.75V16c0 .41-.34.75-.75.75 -.42 0-.75-.34-.75-.75v-3.5c0-.42.33-.75.75-.75Z"/></g></svg>