<svg viewBox="0 0 24 24" xmlns="http://www.w3.org/2000/svg"><g fill-rule="evenodd"><path d="M6 2.5c-.83 0-1.5.67-1.5 1.5v16c0 .82.67 1.5 1.5 1.5h12c.82 0 1.5-.68 1.5-1.5V8.91c0-.44-.2-.86-.53-1.14l-5.74-4.92c-.28-.24-.62-.37-.98-.37H5.98ZM3.5 4c0-1.39 1.11-2.5 2.5-2.5h6.26c.59 0 1.17.21 1.62.6l5.73 4.91c.55.47.87 1.16.87 1.89v11.08c0 1.38-1.12 2.5-2.5 2.5h-12c-1.39 0-2.5-1.12-2.5-2.5v-16Z"/><path d="M12.5 6V2.5h1V6c0 .82.67 1.5 1.5 1.5h4.5v1H15c-1.39 0-2.5-1.12-2.5-2.5Z"/><path d="M11.75 10.56c.15-.09.34-.09.49 0l3.5 2c.15.08.25.25.25.43v4c0 .17-.1.34-.26.43l-3.5 2c-.16.08-.35.08-.5 0l-3.5-2c-.16-.09-.26-.26-.26-.44v-4c0-.18.09-.35.25-.44l3.49-2Zm-2.76 2.72v3.41l3 1.71 3-1.72v-3.42l-3-1.72 -3 1.71Z"/><path d="M12 14.42l3.25-1.86 .49.86 -3.25 1.85v3.2h-1v-3.21L8.24 13.4l.49-.87 3.25 1.85Z"/></g></svg>