<svg viewBox="0 0 24 24" xmlns="http://www.w3.org/2000/svg"><g fill-rule="evenodd"><path d="M4 2.5c-.83 0-1.5.67-1.5 1.5v16c0 .82.67 1.5 1.5 1.5h8v1H4c-1.39 0-2.5-1.12-2.5-2.5V4c0-1.39 1.11-2.5 2.5-2.5h4.72c.62 0 1.22.23 1.68.65l4.77 4.37c.51.47.81 1.14.81 1.84v1.62h-1V8.35c0-.43-.18-.83-.49-1.11L9.71 2.86c-.28-.26-.64-.4-1.02-.4H3.96Z"/><path d="M9 5.5V2h1v3.5c0 .82.67 1.5 1.5 1.5H15v1h-3.5C10.11 8 9 6.88 9 5.5Z"/><path d="M16.759 10.56c.15-.09.33-.09.48 0l5 2.75c.15.08.25.25.25.43v5.5c0 .18-.1.35-.26.43l-5 2.75c-.16.08-.34.08-.49 0l-5-2.75c-.16-.09-.26-.26-.26-.44v-5.5c0-.19.09-.36.25-.44l5-2.75ZM12.5 14.04v4.9l4.5 2.47 4.5-2.48v-4.91L17 11.54l-4.5 2.47Z"/><path d="M17 15.94l4.77-2.39 .44.89 -4.73 2.36v5.19h-1v-5.2l-4.73-2.37 .44-.9 4.77 2.38Z"/></g></svg>