<svg viewBox="0 0 24 24" xmlns="http://www.w3.org/2000/svg"><g fill-rule="evenodd"><path d="M4 2.5c-.83 0-1.5.67-1.5 1.5v16c0 .82.67 1.5 1.5 1.5h1v1H4c-1.39 0-2.5-1.12-2.5-2.5V4c0-1.39 1.11-2.5 2.5-2.5h4.72c.62 0 1.22.23 1.68.65l4.77 4.37c.51.47.81 1.14.81 1.84v1.62h-1V8.35c0-.43-.18-.83-.49-1.11L9.71 2.86c-.28-.26-.64-.4-1.02-.4H3.96Z"/><path d="M9 5.5V2h1v3.5c0 .82.67 1.5 1.5 1.5H15v1h-3.5C10.11 8 9 6.88 9 5.5Z"/><path d="M13.79 13.5c-2.21 0-3.96 1.7-3.96 3.77 0 .06 0 .13 0 .19 0 .13-.05.27-.14.37 -.1.09-.23.15-.37.15h-.01c-1.04 0-1.85.8-1.85 1.75 0 .94.8 1.75 1.84 1.75h9.37c.28 0 .55-.07.78-.17 .01-.01.02-.02.03-.02 1.15-.42 1.95-1.48 1.95-2.7 0-1.57-1.34-2.875-3.02-2.875 -.22 0-.43.02-.63.06 -.22.04-.44-.06-.54-.26 -.66-1.22-1.98-2.06-3.53-2.06Zm-4.95 3.54c.12-2.55 2.31-4.55 4.94-4.55 1.77 0 3.34.9 4.22 2.27 .15-.02.3-.03.46-.03 2.19 0 4.01 1.71 4.01 3.875 0 1.67-1.1 3.07-2.61 3.62 -.37.15-.77.24-1.19.24H9.29c-1.56 0-2.85-1.22-2.85-2.75 0-1.38 1.02-2.49 2.34-2.71Z"/></g></svg>