<svg viewBox="0 0 24 24" xmlns="http://www.w3.org/2000/svg"><g fill-rule="evenodd"><path d="M6 21.5c-.83 0-1.5-.68-1.5-1.5V4c0-.83.67-1.5 1.5-1.5h12c.82 0 1.5.67 1.5 1.5v11.79l-5.71 5.7h-7.8ZM3.5 20c0 1.38 1.11 2.5 2.5 2.5h8c.13 0 .25-.06.35-.15l6-6c.09-.1.14-.23.14-.36v-12c0-1.39-1.12-2.5-2.5-2.5h-12c-1.39 0-2.5 1.11-2.5 2.5v16Z"/><path d="M13.8 22.46c.18.07.4.03.54-.11l6-6c.14-.15.18-.36.1-.55 -.08-.19-.26-.31-.47-.31h-4c-1.39 0-2.5 1.11-2.5 2.5v4c0 .2.12.38.3.46Zm.69-1.67v-2.8c0-.83.67-1.5 1.5-1.5h2.79l-4.3 4.29Z"/><path d="M9 19.5H7v-1h2v1Z"/><path d="M12 16.5H7v-1h5v1Z"/><path d="M10 13.5H7v-1h3v1Z"/><path d="M17 10.5H7v-1h10v1Z"/><path d="M7.5 5c0-.28.22-.5.5-.5h4c.27 0 .5.22.5.5v5c0 .27-.23.5-.5.5H8c-.28 0-.5-.23-.5-.5V5Zm1 .5v4h3v-4h-3Z"/><path d="M11.5 7c0-.28.22-.5.5-.5h4c.27 0 .5.22.5.5v3c0 .27-.23.5-.5.5h-4c-.28 0-.5-.23-.5-.5V7Zm1 .5v2h3v-2h-3Z"/></g></svg>