<svg viewBox="0 0 24 24" xmlns="http://www.w3.org/2000/svg"><g fill-rule="evenodd"><path d="M6 2.5c-.83 0-1.5.67-1.5 1.5v16c0 .82.67 1.5 1.5 1.5h12c.82 0 1.5-.68 1.5-1.5V8.91c0-.44-.2-.86-.53-1.14l-5.74-4.92c-.28-.24-.62-.37-.98-.37H5.98ZM3.5 4c0-1.39 1.11-2.5 2.5-2.5h6.26c.59 0 1.17.21 1.62.6l5.73 4.91c.55.47.87 1.16.87 1.89v11.08c0 1.38-1.12 2.5-2.5 2.5h-12c-1.39 0-2.5-1.12-2.5-2.5v-16Z"/><path d="M12.5 6V2.5h1V6c0 .82.67 1.5 1.5 1.5h4.5v1H15c-1.39 0-2.5-1.12-2.5-2.5Z"/><path d="M12 13c-1.11 0-2 .89-2 2 0 1.1.89 2 2 2 1.1 0 2-.9 2-2 0-1.11-.9-2-2-2Zm-3 2c0-1.66 1.34-3 3-3 1.65 0 3 1.34 3 3 0 1.65-1.35 3-3 3 -1.66 0-3-1.35-3-3Z"/><path d="M12.5 10.5v2h-1v-2h1Z"/><path d="M7.5 14.5h2v1h-2v-1Z"/><path d="M14.5 14.5h2v1h-2v-1Z"/><path d="M12.5 17.5v2h-1v-2h1Z"/><path d="M9.17 11.46l1.41 1.41 -.71.7 -1.42-1.42 .7-.71Z"/><path d="M8.46 17.82l1.41-1.42 .7.7 -1.42 1.41 -.71-.71Z"/><path d="M13.41 12.87l1.41-1.42 .7.7 -1.42 1.41 -.71-.71Z"/><path d="M14.12 16.41l1.41 1.41 -.71.7 -1.42-1.42 .7-.71Z"/></g></svg>