<svg viewBox="0 0 24 24" xmlns="http://www.w3.org/2000/svg"><g fill-rule="evenodd"><path d="M4 2.5c-.83 0-1.5.67-1.5 1.5v16c0 .82.67 1.5 1.5 1.5h4v1H4c-1.39 0-2.5-1.12-2.5-2.5V4c0-1.39 1.11-2.5 2.5-2.5h4.72c.62 0 1.22.23 1.68.65l4.77 4.37c.51.47.81 1.14.81 1.84v1.62h-1V8.35c0-.43-.18-.83-.49-1.11L9.71 2.86c-.28-.26-.64-.4-1.02-.4H3.96Z"/><path d="M9 5.5V2h1v3.5c0 .82.67 1.5 1.5 1.5H15v1h-3.5C10.11 8 9 6.88 9 5.5Z"/><path d="M7.57 17c.27.47.98 1.59 2.13 2.59 1.16 1.02 2.76 1.9 4.79 1.9 2.02 0 3.62-.89 4.79-1.91 1.14-1.01 1.86-2.13 2.13-2.6 -.28-.48-.99-1.6-2.14-2.6 -1.17-1.03-2.77-1.91-4.8-1.91s-3.63.88-4.8 1.9c-1.15 1-1.87 2.12-2.14 2.59Zm1.47-3.35c1.29-1.13 3.11-2.16 5.45-2.16 2.34 0 4.15 1.02 5.45 2.15 1.28 1.12 2.07 2.37 2.36 2.88 .16.29.16.64 0 .93 -.3.5-1.08 1.75-2.37 2.88 -1.3 1.12-3.12 2.15-5.46 2.15 -2.35 0-4.16-1.03-5.46-2.16 -1.29-1.13-2.08-2.38-2.37-2.89 -.17-.3-.17-.65 0-.94 .29-.51 1.07-1.76 2.36-2.89Z"/><path d="M14.5 15.5c-.83 0-1.5.67-1.5 1.5 0 .82.67 1.5 1.5 1.5 .82 0 1.5-.68 1.5-1.5 0-.83-.68-1.5-1.5-1.5ZM12 17c0-1.39 1.11-2.5 2.5-2.5 1.38 0 2.5 1.11 2.5 2.5 0 1.38-1.12 2.5-2.5 2.5 -1.39 0-2.5-1.12-2.5-2.5Z"/></g></svg>