<svg viewBox="0 0 24 24" xmlns="http://www.w3.org/2000/svg"><g fill-rule="evenodd"><path d="M9 2.5c-.83 0-1.5.67-1.5 1.5v13c0 .82.67 1.5 1.5 1.5h9.49c.82 0 1.5-.68 1.5-1.5V8.01c0-.44-.2-.86-.53-1.14l-4.69-4.02c-.28-.24-.62-.37-.98-.37H8.97ZM6.5 4c0-1.39 1.11-2.5 2.5-2.5h4.81c.59 0 1.17.21 1.62.6l4.68 4.01c.55.47.87 1.16.87 1.89v8.98c0 1.38-1.12 2.5-2.5 2.5h-9.5c-1.39 0-2.5-1.12-2.5-2.5v-13Z"/><path d="M4.5 5v15c0 .82.67 1.5 1.5 1.5h11.49v1H5.99c-1.39 0-2.5-1.12-2.5-2.5V5h1Z"/><path d="M14.04 5.09V2.415h1V5.09c0 .82.67 1.5 1.5 1.5h3.52v1h-3.53c-1.39 0-2.5-1.12-2.5-2.5Z"/></g></svg>