<svg viewBox="0 0 24 24" xmlns="http://www.w3.org/2000/svg"><g fill-rule="evenodd"><path d="M6 2.5c-.83 0-1.5.67-1.5 1.5v16c0 .82.67 1.5 1.5 1.5h12c.82 0 1.5-.68 1.5-1.5V8.91c0-.44-.2-.86-.53-1.14l-5.74-4.92c-.28-.24-.62-.37-.98-.37H5.98ZM3.5 4c0-1.39 1.11-2.5 2.5-2.5h6.26c.59 0 1.17.21 1.62.6l5.73 4.91c.55.47.87 1.16.87 1.89v11.08c0 1.38-1.12 2.5-2.5 2.5h-12c-1.39 0-2.5-1.12-2.5-2.5v-16Z"/><path d="M12.5 6V2.5h1V6c0 .82.67 1.5 1.5 1.5h4.5v1H15c-1.39 0-2.5-1.12-2.5-2.5Z"/><path d="M18 15.5c0 1.38-1.12 2.5-2.5 2.5H15c-1.39 0-2.5-1.12-2.5-2.5v-1c0-1.39 1.11-2.5 2.5-2.5h.5c1.38 0 2.5 1.11 2.5 2.5v1ZM15.5 17c.82 0 1.5-.68 1.5-1.5v-1c0-.83-.68-1.5-1.5-1.5H15c-.83 0-1.5.67-1.5 1.5v1c0 .82.67 1.5 1.5 1.5h.5Z"/><path d="M11.5 15.5c0 1.38-1.12 2.5-2.5 2.5h-.5C7.11 18 6 16.88 6 15.5v-1C6 13.11 7.11 12 8.5 12H9c1.38 0 2.5 1.11 2.5 2.5v1ZM9 17c.82 0 1.5-.68 1.5-1.5v-1c0-.83-.68-1.5-1.5-1.5h-.5c-.83 0-1.5.67-1.5 1.5v1c0 .82.67 1.5 1.5 1.5H9Z"/><path d="M9 14.5h6v1H9v-1Z"/></g></svg>