<svg viewBox="0 0 24 24" xmlns="http://www.w3.org/2000/svg"><g fill-rule="evenodd"><path d="M4 2.5c-.83 0-1.5.67-1.5 1.5v16c0 .82.67 1.5 1.5 1.5h6.5v1H4c-1.39 0-2.5-1.12-2.5-2.5V4c0-1.39 1.11-2.5 2.5-2.5h4.72c.62 0 1.22.23 1.68.65l4.77 4.37c.51.47.81 1.14.81 1.84v.12h-1v-.13c0-.43-.18-.83-.49-1.11L9.71 2.86c-.28-.26-.64-.4-1.02-.4H3.96Z"/><path d="M9 5.5V2h1v3.5c0 .82.67 1.5 1.5 1.5H15v1h-3.5C10.11 8 9 6.88 9 5.5Z"/><path d="M16.5 11.5c-2.77 0-5 2.23-5 5 0 2.76 2.23 5 5 5 2.76 0 5-2.24 5-5 0-2.77-2.24-5-5-5Zm-6 5c0-3.32 2.68-6 6-6 3.31 0 6 2.68 6 6 0 3.31-2.69 6-6 6 -3.32 0-6-2.69-6-6Z"/><path d="M13.5 16.5c0-.83.67-1.5 1.5-1.5h3c.82 0 1.5.67 1.5 1.5v2c0 .82-.68 1.5-1.5 1.5h-3c-.83 0-1.5-.68-1.5-1.5v-2ZM15 16c-.28 0-.5.22-.5.5v2c0 .27.22.5.5.5h3c.27 0 .5-.23.5-.5v-2c0-.28-.23-.5-.5-.5h-3Z"/><path d="M14.5 14.5c0-1.11.89-2 2-2 1.1 0 2 .89 2 2v1c0 .27-.23.5-.5.5h-3c-.28 0-.5-.23-.5-.5v-1Zm2-1c-.56 0-1 .44-1 1v.5h2v-.5c0-.56-.45-1-1-1Z"/></g></svg>