<svg viewBox="0 0 24 24" xmlns="http://www.w3.org/2000/svg"><g fill-rule="evenodd"><path d="M4 2.5c-.83 0-1.5.67-1.5 1.5v16c0 .82.67 1.5 1.5 1.5h6.5v1H4c-1.39 0-2.5-1.12-2.5-2.5V4c0-1.39 1.11-2.5 2.5-2.5h4.72c.62 0 1.22.23 1.68.65l4.77 4.37c.51.47.81 1.14.81 1.84v.12h-1v-.13c0-.43-.18-.83-.49-1.11L9.71 2.86c-.28-.26-.64-.4-1.02-.4H3.96Z"/><path d="M9 5.5V2h1v3.5c0 .82.67 1.5 1.5 1.5H15v1h-3.5C10.11 8 9 6.88 9 5.5Z"/><path d="M10.52 15.5h4.97v-4.98c-2.64.23-4.74 2.33-4.98 4.97Zm-1.03.5c0-3.59 2.91-6.5 6.5-6.5 .27 0 .5.22.5.5v6c0 .27-.23.5-.5.5h-6c-.28 0-.5-.23-.5-.5Z"/><path d="M15.5 10c0-.28.22-.5.5-.5 3.58 0 6.5 2.91 6.5 6.5 0 3.58-2.92 6.5-6.5 6.5 -3.59 0-6.5-2.92-6.5-6.5 0-.28.22-.5.5-.5h5.5V10Zm1 .52v5.47c0 .27-.23.5-.5.5h-5.48c.25 2.8 2.6 5 5.47 5 3.03 0 5.5-2.47 5.5-5.5 0-2.87-2.2-5.225-5-5.48Z"/></g></svg>