<svg viewBox="0 0 24 24" xmlns="http://www.w3.org/2000/svg"><g fill-rule="evenodd"><path d="M6 2.5c-.83 0-1.5.67-1.5 1.5v16c0 .82.67 1.5 1.5 1.5h12c.82 0 1.5-.68 1.5-1.5V8.91c0-.44-.2-.86-.53-1.14l-5.74-4.92c-.28-.24-.62-.37-.98-.37H5.98ZM3.5 4c0-1.39 1.11-2.5 2.5-2.5h6.26c.59 0 1.17.21 1.62.6l5.73 4.91c.55.47.87 1.16.87 1.89v11.08c0 1.38-1.12 2.5-2.5 2.5h-12c-1.39 0-2.5-1.12-2.5-2.5v-16Z"/><path d="M12.5 6V2.5h1V6c0 .82.67 1.5 1.5 1.5h4.5v1H15c-1.39 0-2.5-1.12-2.5-2.5Z"/><path d="M12 9c.17 0 .32.08.42.22l1.59 2.48 2.86.75c.16.04.29.16.34.32 .05.16.01.33-.09.47l-1.88 2.29 .16 2.95c0 .16-.07.33-.21.43 -.14.1-.32.12-.48.06l-2.76-1.08 -2.76 1.07c-.16.06-.34.03-.48-.07 -.14-.1-.22-.27-.21-.44l.16-2.96 -1.88-2.3c-.11-.14-.15-.31-.09-.48 .05-.17.18-.29.34-.33l2.86-.76 1.59-2.49c.09-.15.25-.23.42-.23Zm0 1.42l-1.29 1.99c-.07.1-.18.18-.3.21l-2.3.6 1.5 1.83c.07.09.11.22.11.34l-.14 2.37 2.21-.87c.11-.05.24-.05.36 0l2.21.86 -.14-2.38c-.01-.13.03-.25.11-.35l1.5-1.84 -2.3-.61c-.13-.04-.23-.11-.3-.22l-1.29-2Z"/></g></svg>