<svg viewBox="0 0 24 24" xmlns="http://www.w3.org/2000/svg"><g fill-rule="evenodd"><path d="M6 2.5c-.83 0-1.5.67-1.5 1.5v16c0 .82.67 1.5 1.5 1.5h12c.82 0 1.5-.68 1.5-1.5V8.91c0-.44-.2-.86-.53-1.14l-5.74-4.92c-.28-.24-.62-.37-.98-.37H5.98ZM3.5 4c0-1.39 1.11-2.5 2.5-2.5h6.26c.59 0 1.17.21 1.62.6l5.73 4.91c.55.47.87 1.16.87 1.89v11.08c0 1.38-1.12 2.5-2.5 2.5h-12c-1.39 0-2.5-1.12-2.5-2.5v-16Z"/><path d="M12.5 5.5V2h1v3.5c0 .82.67 1.5 1.5 1.5h4.5v1H15c-1.39 0-2.5-1.12-2.5-2.5Z"/><path d="M15.19 15.22c.48.81.8 1.97.8 3.27h1c0-1.46-.36-2.8-.95-3.8 -.6-.99-1.48-1.71-2.56-1.71v1c.58 0 1.19.39 1.69 1.22Z"/><path d="M8.8 11.77c-.49-.82-.81-1.98-.81-3.28h-1c0 1.45.35 2.79.94 3.79 .59.98 1.47 1.7 2.55 1.7v-1c-.59 0-1.2-.4-1.7-1.23Z"/><path d="M10 12c0-.28.22-.5.5-.5h3c.27 0 .5.22.5.5v3c0 .27-.23.5-.5.5h-3c-.28 0-.5-.23-.5-.5v-3Zm1 .5v2h2v-2h-2Z"/><path d="M15.85 10.35l-2 2 -.71-.71 2-2.01 .7.7Z"/><path d="M10.85 15.35l-2.01 2 -.71-.71 2-2 .7.7Z"/></g></svg>