<svg viewBox="0 0 24 24" xmlns="http://www.w3.org/2000/svg"><g fill-rule="evenodd"><path d="M6 2.5c-.83 0-1.5.67-1.5 1.5v16c0 .82.67 1.5 1.5 1.5h12c.82 0 1.5-.68 1.5-1.5V8.91c0-.44-.2-.86-.53-1.14l-5.74-4.92c-.28-.24-.62-.37-.98-.37H5.98ZM3.5 4c0-1.39 1.11-2.5 2.5-2.5h6.26c.59 0 1.17.21 1.62.6l5.73 4.91c.55.47.87 1.16.87 1.89v11.08c0 1.38-1.12 2.5-2.5 2.5h-12c-1.39 0-2.5-1.12-2.5-2.5v-16Z"/><path d="M12.5 6V2.5h1V6c0 .82.67 1.5 1.5 1.5h4.5v1H15c-1.39 0-2.5-1.12-2.5-2.5Z"/><path d="M9.98 11.5c.2-.01.4.11.47.31l1.58 3.96 1.5-3.01c.08-.17.25-.28.44-.28 .18 0 .36.1.44.27l.86 1.72h1.19v1h-1.5c-.19 0-.37-.11-.45-.28l-.56-1.11 -1.56 3.1c-.09.17-.28.28-.47.27 -.2-.01-.38-.14-.45-.32l-1.5-3.74 -.57 1.7c-.07.2-.26.34-.48.34h-1.5v-1h1.13l.88-2.66c.06-.2.24-.34.45-.35Z"/></g></svg>