<svg viewBox="0 0 24 24" xmlns="http://www.w3.org/2000/svg"><path fill-rule="evenodd" d="M12 2c-.71-.72-.71-.72-.71-.72l-.01 0 -.01 0 -.01 0 -.02.01c-.02.01-.04.03-.07.06 -.06.05-.15.14-.25.25 -.22.21-.52.53-.87.92 -.72.78-1.68 1.88-2.64 3.13C6.45 6.9 5.47 8.34 4.73 9.8c-.74 1.44-1.29 2.99-1.29 4.45 0 2.7.92 4.9 2.5 6.42 1.56 1.51 3.7 2.27 5.99 2.27s4.42-.77 5.99-2.28c1.57-1.52 2.5-3.72 2.5-6.43 0-1.47-.55-3.02-1.29-4.46 -.75-1.46-1.72-2.9-2.68-4.16 -.97-1.26-1.92-2.36-2.64-3.14 -.36-.4-.66-.71-.87-.93 -.11-.11-.19-.2-.25-.26 -.03-.03-.06-.06-.07-.07l-.02-.02 -.01-.01 -.01-.01 -.01-.01c-.01-.01-.01-.01-.71.71Zm0 0l.7-.72c-.39-.39-1.02-.39-1.41 0l.7.71Zm4.5 8.5h-4v2h4v-2Zm-10 1c0-.56.44-1 1-1h2c1.38 0 2.5 1.11 2.5 2.5 0 .56-.19 1.08-.5 1.5 .31.41.49.93.49 1.5 0 1.38-1.12 2.5-2.5 2.5h-2c-.56 0-1-.45-1-1v-3 -3Zm3 2h-1v-1h1c.27 0 .5.22.5.5 0 .27-.23.5-.5.5Zm0 2c.27 0 .5.22.5.5 0 .27-.23.5-.5.5h-1v-1h1Z"/></svg>