<svg viewBox="0 0 24 24" xmlns="http://www.w3.org/2000/svg"><g fill-rule="evenodd"><path d="M9 3c0-.56.44-1 1-1h12c.55 0 1 .44 1 1v12c0 .55-.45 1-1 1H10c-.56 0-1-.45-1-1V3Zm2 1v10h10V4H11Z"/><path d="M4.5 5C2.4 5 1 6.96 1 9c0 2.03 1.4 4 3.5 4C6.59 13 8 11.03 8 9c0-2.04-1.41-4-3.5-4Z"/><path d="M3.5 17.5V12h2v5.5C5.5 18.88 6.61 20 8 20c1.38 0 2.5-1.12 2.5-2.5V15h2v2.5c0 2.48-2.02 4.5-4.5 4.5 -2.49 0-4.5-2.02-4.5-4.5Z"/><path d="M11.5 9c0-2.49 2.01-4.5 4.5-4.5 2.48 0 4.5 2.01 4.5 4.5 0 2.05-1.38 3.79-3.27 4.32l-.27-1.08c-.01-.02-.01-.03-.01-.04l-1-3.51 -1.923.54 .99 3.48 .16.67c-2.11-.38-3.71-2.22-3.71-4.43Z"/></g></svg>