<svg viewBox="0 0 24 24" xmlns="http://www.w3.org/2000/svg"><path fill-rule="evenodd" d="M11.19 1.78l-.48-.48c.72-.21 1.48-.31 2.27-.31 2.7 0 5.1 1.25 6.663 3.22l-.79.09c-.01 0-.02 0-.03 0l-4.24.64 -3.42-3.2ZM16.47 6.7l1.97 1.84 2.24.46 0 0 .79.15c-.05-1.1-.29-2.14-.71-3.09l-1.66.2 -2.67.4ZM9.81 3.22l4.86 4.54 -8.49-1.76v-.01l-.01-.01 -.88-.18c.73-1.55 1.93-2.84 3.4-3.7l1.05 1.05s.01.01.02.02ZM4.67 7.74c-.12.56-.18 1.14-.18 1.74 0 .09 0 .18 0 .27l-1.68 3.77c-.38.85.1 1.83 1 2.06l1.16.29v2.09c0 1.1.89 2 2 2h1.81l.13 1.51c.08.9.94 1.53 1.83 1.32l7.5-1.77c.73-.18 1.23-.88 1.14-1.63l-.44-3.94c1.16-1.16 1.98-2.66 2.32-4.33l-1.03-.21 -.01-.01v0l-14.5-3 -.01-.01 -1.13-.23Z"/></svg>