<svg viewBox="0 0 24 24" xmlns="http://www.w3.org/2000/svg"><g fill-rule="evenodd"><path d="M7 16c-1.66 0-3 1.34-3 3 0 1.65 1.34 3 3 3h.5c.55 0 1-.45 1-1v-4c0-.56-.45-1-1-1H7Zm13 3c0-1.66-1.35-3-3-3h-.5c-.56 0-1 .44-1 1v4c0 .55.44 1 1 1h.5c1.65 0 3-1.35 3-3Z"/><path d="M7.5 15c-.56 0-1 .44-1 1v6c0 .55.44 1 1 1h3c.55 0 1-.45 1-1v-6c0-.56-.45-1-1-1h-3Zm10 1c0-.56-.45-1-1-1h-3c-.56 0-1 .44-1 1v6c0 .55.44 1 1 1h3c.55 0 1-.45 1-1v-6Z"/><path d="M1 2c0-.56.44-1 1-1h20c.55 0 1 .44 1 1v11c0 .55-.45 1-1 1H2c-.56 0-1-.45-1-1V2Zm2.5 2.5c0-.56.44-1 1-1H17c.55 0 1 .44 1 1v6c0 .55-.45 1-1 1H4.5c-.56 0-1-.45-1-1v-6Zm15 1.5V4.5h2V6h-2Zm0 3v1.5h2V9h-2Z"/><path d="M22.5 13v6c0 .55-.45 1-1 1H19v-2h1.5v-5h2Z"/><path d="M1.5 13v6c0 .55.44 1 1 1H5v-2H3.5v-5h-2Z"/></g></svg>