<svg viewBox="0 0 24 24" xmlns="http://www.w3.org/2000/svg"><path fill-rule="evenodd" d="M12.5 1.01v4.48h-.35c-.48-.32-1.05-.5-1.66-.5 -1.66 0-3 1.34-3 3 0 1.65 1.34 3 3 3 .61 0 1.18-.19 1.65-.5h.34v2.5c0 .55.44 1 1 1h3.17c.41 0 .78-.26.93-.65 .14-.39.03-.83-.28-1.11 -.21-.19-.34-.46-.34-.76 0-.56.44-1 1-1h3.44c-.23 1.94-1.12 3.69-2.44 5.01l.43 3.93c.08.75-.41 1.45-1.15 1.62l-7.51 1.76c-.89.2-1.76-.42-1.84-1.33l-.14-1.52H6.93c-1.11 0-2-.9-2-2v-2.1l-1.17-.3c-.91-.23-1.39-1.22-1.01-2.07l1.67-3.78c-.01-.1-.01-.19-.01-.28 0-4.53 3.53-8.23 7.99-8.49Zm2 .11v5.36c0 .55-.45 1-1 1h-1.68c-.25 0-.48-.09-.67-.26 -.18-.16-.41-.25-.67-.25 -.56 0-1 .44-1 1 0 .55.44 1 1 1 .25 0 .48-.1.66-.25 .18-.17.41-.26.66-.26h1.67c.55 0 1 .44 1 1v2.5h.54c-.03-.17-.05-.33-.05-.5 0-1.66 1.34-3 3-3h3.44c-.44-3.73-3.29-6.72-6.95-7.37Z"/></svg>