<svg viewBox="0 0 24 24" xmlns="http://www.w3.org/2000/svg"><path fill-rule="evenodd" d="M13 1C8.3 1 4.5 4.8 4.5 9.5c-.001.09 0 .18 0 .27l-1.68 3.77c-.38.85.1 1.83 1 2.06l1.16.29v2.09c0 1.1.89 2 2 2h1.81l.13 1.51c.08.9.94 1.53 1.83 1.32l7.5-1.77c.73-.18 1.23-.88 1.14-1.63l-.44-3.94c1.53-1.54 2.49-3.67 2.49-6.02 0-4.7-3.81-8.5-8.5-8.5Zm.49 2.5c-1.21 0-2.41.54-3.04 1.5 -.74 0-1.44.23-1.98.63 -.56.41-.99 1.06-.99 1.86 0 .79.43 1.44.98 1.86 .55.41 1.26.63 2.01.63h5c.74 0 1.46-.23 2.01-.64 .55-.42.98-1.07.98-1.87 0-1.18-.88-1.98-1.85-2.31 -.6-1.08-1.87-1.7-3.16-1.7Zm-4.45 7.18l-1 3 1.89.63 1-3 -1.9-.64Zm1.99 3l1-3 1.89.63 -1 3 -1.9-.64Zm4-3l-1 3 1.89.63 1-3 -1.9-.64Z"/></svg>