<svg viewBox="0 0 24 24" xmlns="http://www.w3.org/2000/svg"><g fill-rule="evenodd"><path d="M8.73 16.35c.18-.23.47-.36.76-.36h4.99c.29 0 .57.13.76.35l2.5 3c.24.29.3.71.13 1.06 -.17.35-.52.57-.91.57h-10c-.39 0-.75-.23-.91-.58 -.17-.36-.12-.77.13-1.07l2.5-3Zm1.23 1.64l-.84 1h5.72l-.84-1H9.93Z"/><path d="M1 4c0-.56.44-1 1-1h20c.55 0 1 .44 1 1v13c0 .55-.45 1-1 1H2c-.56 0-1-.45-1-1V4Zm9.95 2.2c-.12-.39-.46-.66-.86-.7 -.4-.05-.79.15-.98.5L6.89 9.98H4.97v2h2.5c.36 0 .69-.2.87-.52L9.7 8.99l1.8 5.77c.12.4.49.68.92.7 .42.01.81-.25.96-.65l1.68-4.384 .48.97c.16.33.51.55.89.55h2.5v-2h-1.89l-1.23-2.45c-.18-.36-.55-.58-.95-.56 -.4.01-.75.27-.89.63l-1.47 3.81 -1.65-5.26Z"/></g></svg>