<svg viewBox="0 0 24 24" xmlns="http://www.w3.org/2000/svg"><g fill-rule="evenodd"><path d="M1 16c0-.56.44-1 1-1h20c.55 0 1 .44 1 1v5c0 .55-.45 1-1 1H2c-.56 0-1-.45-1-1v-5Zm2 1v3h18v-3H3Z"/><path d="M1 3c0-.56.44-1 1-1h20c.55 0 1 .44 1 1v13c0 .55-.45 1-1 1H2c-.56 0-1-.45-1-1V3Zm9.95 2.2c-.12-.39-.46-.66-.86-.7 -.4-.05-.79.15-.98.5L6.89 8.98H4.97v2h2.5c.36 0 .69-.2.87-.52L9.7 7.99l1.8 5.77c.12.4.49.68.92.7 .42.01.81-.25.96-.65l1.68-4.39 .48.97c.16.33.51.55.89.55h2.5v-2h-1.89l-1.23-2.45c-.18-.36-.55-.58-.95-.56 -.4.01-.75.27-.89.63l-1.47 3.81 -1.65-5.26Z"/><path d="M6.5 19.5h-2v-2h2v2Z"/><path d="M11 19.5H9v-2h2v2Z"/></g></svg>