<svg viewBox="0 0 24 24" xmlns="http://www.w3.org/2000/svg"><g fill-rule="evenodd"><path d="M21 14.5c.73-.69.73-.69.73-.69l-.01-.01 -.01-.01 -.01-.01 -.02-.02 -.05-.06c-.05-.05-.11-.11-.18-.19 -.16-.16-.38-.38-.66-.65 -.56-.54-1.35-1.25-2.27-1.96 -.92-.72-1.98-1.44-3.08-2 -1.1-.55-2.3-.97-3.49-.97 -1.19 0-2.4.41-3.49.96 -1.11.55-2.17 1.28-3.08 1.99 -.92.71-1.71 1.42-2.27 1.95 -.28.26-.51.48-.66.64 -.08.07-.14.14-.18.18l-.05.05 -.02.01 -.01 0 -.01 0 -.01 0c-.01 0-.01 0 .73.68l-.74-.69c-.36.38-.36.98 0 1.36l.73-.69c-.74.68-.74.68-.74.68l0 0 0 0 0 0 .01.01 .04.05c.04.04.1.1.17.18 .15.15.37.37.65.64 .55.53 1.34 1.24 2.26 1.95 .91.71 1.97 1.43 3.07 1.99 1.09.54 2.29.96 3.48.96 1.18 0 2.39-.42 3.48-.97 1.1-.56 2.16-1.29 3.07-2 .91-.72 1.7-1.43 2.26-1.96 .27-.27.5-.49.65-.65 .07-.08.13-.15.17-.19l.04-.06 .01-.02 0-.01 0-.01 0-.01c0-.01 0-.01-.74-.69Zm0 0l.73.68c.35-.39.35-.99 0-1.37l-.74.68Zm-12.5 0c0-1.94 1.56-3.5 3.5-3.5 1.93 0 3.5 1.56 3.5 3.5 0 1.93-1.57 3.5-3.5 3.5 -1.94 0-3.5-1.57-3.5-3.5Z"/><path d="M19 4l.68-.73c-.39-.37-.99-.37-1.38 0l.68.72Zm0 0c-.69-.73-.69-.73-.69-.73l-.01 0 -.01 0 -.01 0 -.01 0 -.03.01c-.02.01-.05.03-.08.06 -.06.05-.15.14-.25.24 -.2.2-.47.49-.75.83 -.27.32-.56.71-.79 1.12 -.22.37-.45.88-.45 1.42 0 1.65 1.34 3 3 3 1.65 0 3-1.35 3-3 0-.54-.23-1.05-.45-1.43 -.23-.41-.52-.8-.79-1.13 -.28-.34-.55-.63-.75-.84 -.11-.11-.19-.19-.25-.25 -.04-.03-.06-.06-.08-.07l-.03-.02 -.01-.01 -.01-.01 -.01-.01 -.01-.01c-.01-.01-.01-.01-.69.72Z"/></g></svg>