<svg viewBox="0 0 24 24" xmlns="http://www.w3.org/2000/svg"><g fill-rule="evenodd"><path d="M9 1c-.56 0-1 .44-1 1v5c0 .55.44 1 1 1h6c.55 0 1-.45 1-1V2c0-.56-.45-1-1-1H9ZM8 17c0-.56.44-1 1-1h6c.55 0 1 .44 1 1v5c0 .55-.45 1-1 1H9c-.56 0-1-.45-1-1v-5Z"/><path d="M6.5 8c0-1.11.89-2 2-2h7c1.1 0 2 .89 2 2v8c0 1.1-.9 2-2 2h-7c-1.11 0-2-.9-2-2V8Zm5.43 1.14c-.14-.38-.49-.63-.89-.65 -.4-.03-.77.19-.95.55l-1.23 2.44H7.47v2h2c.37 0 .72-.22.89-.56l.47-.95 1.19 3.19c.13.35.45.6.83.64 .37.03.74-.14.94-.46l1.205-1.89h1.45v-2h-2c-.35 0-.66.17-.85.46l-.43.65 -1.3-3.48Z"/></g></svg>