<svg viewBox="0 0 24 24" xmlns="http://www.w3.org/2000/svg"><path fill-rule="evenodd" d="M22.9 10c.36-2.12-.3-4.37-1.99-6 -2.44-2.36-6.19-2.64-8.924-.83 -2.74-1.81-6.5-1.54-8.93.82C1.36 5.62.7 7.87 1.06 9.98h4.22L7.02 5.6c.15-.38.51-.63.92-.63 .4 0 .77.24.92.62l3.04 7.6 2.09-5.59c.13-.36.44-.6.82-.65 .37-.05.73.12.94.43l1.7 2.55h5.36Zm-.68 2h-5.23c-.34 0-.65-.17-.84-.45l-.92-1.38 -2.32 6.17c-.15.38-.52.64-.93.64 -.42 0-.79-.25-.94-.63L7.96 8.67l-1.08 2.67c-.16.37-.52.62-.93.62H1.72c.22.41.48.82.8 1.19 .04.07.1.15.16.21l8.55 8.3c.38.37 1 .37 1.39 0l8.557-8.31c.06-.07.12-.14.16-.22 .31-.38.58-.78.8-1.2Z"/></svg>