<svg viewBox="0 0 24 24" xmlns="http://www.w3.org/2000/svg"><g fill-rule="evenodd"><path d="M17.5 3.94l-1.33 2.2c-.4.65-.53 1.44-.36 2.19l.65 2.94c.09.44-.12.9-.53 1.11l-.9.44c-.34.16-.56.51-.56.89v7.26h6V13.7c0-.38-.22-.73-.56-.9l-.9-.45c-.42-.21-.63-.67-.53-1.12l.65-2.95c.16-.76.03-1.54-.36-2.2l-1.33-2.21Zm-1.29-1.75c.58-.98 1.98-.98 2.57 0l1.75 2.91c.65 1.09.87 2.4.59 3.65l-.49 2.18 .19.09c1.01.5 1.65 1.54 1.65 2.68v8.26c0 .55-.45 1-1 1h-8c-.56 0-1-.45-1-1v-8.27c0-1.14.64-2.18 1.65-2.69l.19-.1 -.49-2.19c-.28-1.26-.07-2.56.59-3.66l1.75-2.92Z"/><path d="M6.5 3.94l-1.33 2.2c-.4.65-.53 1.44-.36 2.19l.65 2.94c.09.44-.12.9-.53 1.11l-.9.44c-.34.16-.56.51-.56.89v7.26h6V13.7c0-.38-.22-.73-.56-.9l-.9-.45c-.42-.21-.63-.67-.53-1.12l.65-2.95c.16-.76.03-1.54-.36-2.2L6.44 3.87ZM5.21 2.19c.58-.98 1.98-.98 2.57 0L9.53 5.1c.65 1.09.87 2.4.59 3.65l-.49 2.18 .19.09c1.01.5 1.65 1.54 1.65 2.68v8.26c0 .55-.45 1-1 1h-8c-.56 0-1-.45-1-1v-8.27c0-1.14.64-2.18 1.65-2.69l.19-.1 -.49-2.19c-.28-1.26-.07-2.56.59-3.66l1.75-2.92Z"/><path d="M1.5 14.5c0-.56.44-1 1-1h5c.55 0 1 .44 1 1v5c0 .55-.45 1-1 1h-5c-.56 0-1-.45-1-1v-5Zm12-1c-.56 0-1 .44-1 1v5c0 .55.44 1 1 1h5c.55 0 1-.45 1-1v-5c0-.56-.45-1-1-1h-5Z"/></g></svg>