<svg viewBox="0 0 24 24" xmlns="http://www.w3.org/2000/svg"><g fill-rule="evenodd"><path d="M1 4.5C1 2.56 2.56 1 4.5 1h7C13.43 1 15 2.56 15 4.5v8c0 1.93-1.57 3.5-3.5 3.5h-7C2.56 16 1 14.43 1 12.5v-8Zm3.75 2.25c1.12-.57 2.46-.48 3.5.21l.58.39c.44.29 1.02.33 1.5.09l.7-.36c.31-.16.67-.14.97.04 .29.18.47.5.47.85v4.49c0 .55-.45 1-1 1h-7c-.56 0-1-.45-1-1v-4.5c0-.38.21-.73.55-.9l.7-.36Z"/><path d="M17.5 4.5c-.56 0-1 .44-1 1v5c0 .55.44 1 1 1h3c.55 0 1-.45 1-1v-5c0-.56-.45-1-1-1h-3Z"/><path d="M20 2v3.5h-2V2h2Z"/><path d="M20 10.5v8c0 2.48-2.02 4.5-4.5 4.5h-4C9.01 23 7 20.98 7 18.5V15h2v3.5c0 1.38 1.11 2.5 2.5 2.5h4c1.38 0 2.5-1.12 2.5-2.5v-8h2Z"/></g></svg>