<svg viewBox="0 0 24 24" xmlns="http://www.w3.org/2000/svg" xmlns:xlink="http://www.w3.org/1999/xlink"><defs><path d="M19.5 3c-.83 0-1.5.67-1.5 1.5 0 .82.67 1.5 1.5 1.5 .82 0 1.5-.68 1.5-1.5 0-.83-.68-1.5-1.5-1.5ZM16 4.5C16 2.56 17.56 1 19.5 1 21.43 1 23 2.56 23 4.5 23 6.43 21.43 8 19.5 8 17.56 8 16 6.43 16 4.5Z" id="a"/></defs><g fill-rule="evenodd"><path d="M6.7 18.7l-4 4 -1.42-1.42 4-4 1.41 1.41Z"/><path d="M18.2 7.2l-2 2 -1.42-1.42 2-2 1.41 1.41Z"/><path d="M14.7 6.29c-.4-.4-1.03-.4-1.42 0l-2 2 -6.01 6c-.19.18-.3.44-.3.7v3c0 .55.44 1 1 1h3c.26 0 .51-.11.7-.3l5.99-6 2-2c.39-.4.39-1.03 0-1.42l-3-3ZM7.78 16.2l-1.5-1.5 1.41-1.42 1.5 1.5 -1.42 1.41Zm.5-3.5l1.5 1.5 1.41-1.42 -1.5-1.5 -1.42 1.41Z"/><use xlink:href="#a"/><use xlink:href="#a"/><path d="M18.5 10.5c-.83 0-1.5.67-1.5 1.5 0 .82.67 1.5 1.5 1.5 .82 0 1.5-.68 1.5-1.5 0-.83-.68-1.5-1.5-1.5ZM15 12c0-1.94 1.56-3.5 3.5-3.5 1.93 0 3.5 1.56 3.5 3.5 0 1.93-1.57 3.5-3.5 3.5 -1.94 0-3.5-1.57-3.5-3.5Z"/><path d="M11.5 4c-.83 0-1.5.67-1.5 1.5 0 .82.67 1.5 1.5 1.5 .82 0 1.5-.68 1.5-1.5 0-.83-.68-1.5-1.5-1.5ZM8 5.5C8 3.56 9.56 2 11.5 2 13.43 2 15 3.56 15 5.5 15 7.43 13.43 9 11.5 9 9.56 9 8 7.43 8 5.5Z"/></g></svg>