<svg viewBox="0 0 24 24" xmlns="http://www.w3.org/2000/svg"><path fill-rule="evenodd" d="M9.25 2.69l-1.5-.42c-2.81-.78-5.48 1.6-5.03 4.47l.47 3 1.45.24 1.25.2c.3.05.58-.19.58-.5v-1.4c0-1.58 1.44-2.77 2.99-2.46l.67.13c.37.07.69-.29.57-.65l-.14-.4c-.02-.04-.03-.07-.05-.1L9.2 2.62Zm2.74.68l.27.45c.09.15.17.32.22.49l.13.39c.6 1.82-.98 3.61-2.87 3.24l-.68-.14c-.31-.07-.6.17-.6.49v1.39c0 1.54-1.39 2.72-2.92 2.46l-1.26-.21 -.8-.14 1.22 7.75c.21 1.37 1.4 2.39 2.79 2.39 1.3 0 2.43-.89 2.74-2.15l1.41-5.65c.03-.125.14-.22.27-.22 .12 0 .24.08.27.21l1.41 5.64c.31 1.26 1.44 2.14 2.74 2.14 1.39 0 2.58-1.02 2.79-2.4l2.02-12.85c.45-2.88-2.22-5.26-5.03-4.48L12.4 3.19c-.18.04-.36.07-.54.07Z"/></svg>