<svg viewBox="0 0 24 24" xmlns="http://www.w3.org/2000/svg"><g fill-rule="evenodd"><path d="M1 5.5c0-.56.44-1 1-1h6.5v2H3V21h18V6.5h-5.5v-2H22c.55 0 1 .44 1 1V22c0 .55-.45 1-1 1H2c-.56 0-1-.45-1-1V5.5Z"/><path d="M5 7.13c-.31-.19-.7-.19-1.01-.01 -.32.17-.51.5-.51.86v8.5c0 2.2 1.79 4 4 4 2.2 0 4-1.8 4-4V13.2c0-1.43-.76-2.74-1.99-3.46L4.97 7.1Zm14.99-.01c-.32-.18-.7-.18-1.01 0l-4.52 2.63c-1.23.71-1.99 2.03-1.99 3.45v3.27c0 2.2 1.79 4 4 4 2.2 0 4-1.8 4-4v-8.5c0-.36-.2-.69-.51-.87Z"/><path d="M7.5 5.5C7.5 3.01 9.51 1 12 1c2.48 0 4.5 2.01 4.5 4.5 0 2.05-1.38 3.79-3.27 4.32l-.27-1.08c-.01-.02-.01-.03-.01-.04l-1-3.5 -1.923.54 .99 3.48 .16.67c-2.11-.38-3.71-2.22-3.71-4.43Z"/></g></svg>