<svg viewBox="0 0 24 24" xmlns="http://www.w3.org/2000/svg"><g fill-rule="evenodd"><path d="M1 12c0-1.66 1.34-3 3-3h1c.55 0 1 .44 1 1v5.5c0 .55-.45 1-1 1H4c-1.66 0-3-1.35-3-3V12Zm3-1c-.56 0-1 .44-1 1v1.5c0 .55.44 1 1 1V11Z"/><path d="M23 12c0-1.66-1.35-3-3-3h-1c-.56 0-1 .44-1 1v5.5c0 .55.44 1 1 1h1c1.65 0 3-1.35 3-3V12Zm-3-1c.55 0 1 .44 1 1v1.5c0 .55-.45 1-1 1V11Z"/><path d="M11.47 6.15c.32-.21.73-.21 1.06 0l3.83 2.39 2.8.46c.48.08.83.49.83.98v4.88c0 1.41-.99 2.63-2.38 2.93l-5.42 1.16c-.14.02-.29.02-.42 0l-5.42-1.17c-1.39-.3-2.38-1.52-2.38-2.94V9.95c0-.49.35-.91.83-.99l2.8-.47 3.83-2.4Zm.53 7.34c0-1.39 1.11-2.5 2.5-2.5 1.38 0 2.5 1.11 2.5 2.5 0 1.38-1.12 2.5-2.5 2.5 -1.39 0-2.5-1.12-2.5-2.5Z"/></g></svg>