<svg viewBox="0 0 24 24" xmlns="http://www.w3.org/2000/svg"><g fill-rule="evenodd"><path d="M12 7c-.56 0-1 .44-1 1 0 .55.44 1 1 1 .55 0 1-.45 1-1 0-.56-.45-1-1-1ZM9 8c0-1.66 1.34-3 3-3 1.65 0 3 1.34 3 3 0 1.65-1.35 3-3 3 -1.66 0-3-1.35-3-3Z"/><path d="M12 12c-1.11 0-2 .89-2 2H8c0-2.21 1.79-4 4-4 2.2 0 4 1.79 4 4h-2c0-1.11-.9-2-2-2Z"/><path d="M12 3c-3.87 0-7 3.13-7 7 0 2.6 1.77 5.36 3.74 7.58 .96 1.08 1.93 1.99 2.66 2.63 .22.19.42.36.59.5 .16-.15.36-.31.59-.51 .72-.64 1.69-1.55 2.66-2.64 1.97-2.224 3.74-4.99 3.74-7.59 0-3.87-3.14-7-7-7Zm0 19c-.6.8-.61.79-.61.79l-.01-.01 -.01-.01 -.01-.01 -.03-.02c-.02-.02-.05-.04-.08-.06 -.07-.05-.16-.12-.27-.22 -.23-.19-.56-.46-.94-.79 -.78-.68-1.81-1.65-2.84-2.81 -2.03-2.276-4.26-5.52-4.26-8.92 0-4.98 4.02-9 9-9 4.97 0 9 4.02 9 9 0 3.39-2.23 6.63-4.26 8.91 -1.04 1.16-2.07 2.13-2.84 2.8 -.39.33-.72.6-.94.78 -.12.09-.21.16-.27.21 -.04.02-.06.04-.08.05l-.03.01 -.01 0 -.01 0 -.01 0c-.01 0-.01 0-.61-.8Zm0 0l.6.8c-.36.26-.85.26-1.2 0l.6-.8Z"/></g></svg>