<svg viewBox="0 0 24 24" xmlns="http://www.w3.org/2000/svg"><g fill-rule="evenodd"><path d="M1 7c0-.56.44-1 1-1h18c1.65 0 3 1.34 3 3v10c0 1.65-1.35 3-3 3H4c-1.66 0-3-1.35-3-3V7Zm2 1v11c0 .55.44 1 1 1h16c.55 0 1-.45 1-1V9c0-.56-.45-1-1-1H3Z"/><path d="M1 7c0 .55.44 1 1 1h18c.55 0 1-.45 1-1V5c0-1.66-1.35-3-3-3H4C2.34 2 1 3.34 1 5v2Zm2-1V5c0-.56.44-1 1-1h14c.55 0 1 .44 1 1v1H3Z"/><path d="M13 13c0-1.66 1.34-3 3-3h6c.55 0 1 .44 1 1v6c0 .55-.45 1-1 1h-6c-1.66 0-3-1.35-3-3v-2Zm3-1c-.56 0-1 .44-1 1v2c0 .55.44 1 1 1h5v-4h-5Z"/></g></svg>