<svg viewBox="0 0 24 24" xmlns="http://www.w3.org/2000/svg"><g fill-rule="evenodd"><path d="M13.1 6.99c-1.59-2.18-4.74-2.43-6.64-.53 -1.91 1.9-1.66 5.05.52 6.63l3.56 2.59c.33.24.8.16 1.04-.17 .24-.34.16-.81-.17-1.05l-3.57-2.6c-1.43-1.04-1.6-3.11-.35-4.36 1.24-1.25 3.31-1.09 4.35.34l8.88 12.21c.14.19.12.46-.05.63 -.18.17-.45.19-.64.04l-5.33-3.88c-.34-.25-.81-.17-1.05.16 -.25.33-.17.8.16 1.04l5.32 3.87c.79.57 1.88.49 2.57-.21s.77-1.79.2-2.58L13.01 6.9Z"/><path d="M7.5 2.75c.41 0 .75.33.75.75V6c0 .41.33.75.75.75 .41 0 .75-.34.75-.75V3.5c0-1.25-1.01-2.25-2.25-2.25 -.92 0-1.72.55-2.06 1.34l-.65-.52c-.77-.62-1.88-.56-2.58.14 -.7.69-.76 1.8-.15 2.57l.51.64c-.8.34-1.35 1.13-1.35 2.05 0 1.24 1 2.25 2.25 2.25h2.5c.41 0 .75-.34.75-.75 0-.42-.34-.75-.75-.75h-2.5c-.42 0-.75-.34-.75-.75 0-.42.33-.75.75-.75h.5c.28 0 .55-.17.67-.43s.08-.57-.1-.8L3.2 3.81c-.14-.18-.13-.43.03-.58 .15-.16.4-.18.57-.04l1.67 1.33c.22.18.53.21.79.09 .25-.13.42-.39.42-.68v-.5c0-.42.33-.75.75-.75Z"/></g></svg>