<svg viewBox="0 0 24 24" xmlns="http://www.w3.org/2000/svg"><g fill-rule="evenodd"><path d="M7.25 6c0-.42.33-.75.75-.75h8c.41 0 .75.33.75.75 0 2.62-2.13 4.75-4.75 4.75 -2.63 0-4.75-2.13-4.75-4.75Zm1.58.75c.33 1.43 1.62 2.5 3.16 2.5 1.53 0 2.82-1.07 3.16-2.5H8.82Z"/><path d="M7.25 6c0 .41.33.75.75.75h8c.41 0 .75-.34.75-.75 0-2.63-2.13-4.75-4.75-4.75 -2.63 0-4.75 2.12-4.75 4.75Zm1.58-.75c.33-1.44 1.62-2.5 3.16-2.5 1.53 0 2.82 1.06 3.16 2.5H8.82Z"/><path d="M4.75 6c0-.42.33-.75.75-.75h13c.41 0 .75.33.75.75 0 .41-.34.75-.75.75h-13c-.42 0-.75-.34-.75-.75Z"/><path d="M2.77 21.25h8.22c.41 0 .75.33.75.75 0 .41-.34.75-.75.75h-9c-.42 0-.75-.34-.75-.75 0-5.94 4.81-10.75 10.75-10.75 5.93 0 10.75 4.81 10.75 10.75 0 .41-.34.75-.75.75h-7c-.42 0-.75-.34-.75-.75 0-.42.33-.75.75-.75h6.22c-.39-4.76-4.37-8.5-9.22-8.5 -4.86 0-8.84 3.74-9.23 8.5Z"/><path d="M6.25 16.5c0-.42.33-.75.75-.75h10c.41 0 .75.33.75.75V22c0 .41-.34.75-.75.75 -.42 0-.75-.34-.75-.75v-4.75h-8.5V22c0 .41-.34.75-.75.75 -.42 0-.75-.34-.75-.75v-5.5Z"/><path d="M7 12.75c.41 0 .75.33.75.75V17c0 .41-.34.75-.75.75 -.42 0-.75-.34-.75-.75v-3.5c0-.42.33-.75.75-.75Z"/><path d="M17 12.75c.41 0 .75.33.75.75V17c0 .41-.34.75-.75.75 -.42 0-.75-.34-.75-.75v-3.5c0-.42.33-.75.75-.75Z"/></g></svg>