<svg viewBox="0 0 24 24" xmlns="http://www.w3.org/2000/svg"><g fill-rule="evenodd"><path d="M12 10.25c-1.75 0-3.25 1.04-3.9 2.55 -.12.27-.39.44-.69.44H3.99c-.7 0-1.25.55-1.25 1.25v5.25h2.5v-3.25c0-.42.33-.75.75-.75H7.4c.29 0 .56.17.68.44 .65 1.5 2.15 2.55 3.89 2.55 .41 0 .75.33.75.75 0 .41-.34.75-.75.75 -2.19 0-4.08-1.22-5.06-3h-.2v3.25c0 .41-.34.75-.75.75h-4c-.42 0-.75-.34-.75-.75v-6c0-1.52 1.23-2.75 2.75-2.75H6.9c.97-1.79 2.87-3 5.05-3 2.18 0 4.07 1.21 5.05 3h1.94c.41 0 .75.33.75.75v4c0 .41-.34.75-.75.75h-1.95c-.14.24-.29.47-.46.7 -.25.33-.72.39-1.06.14 -.34-.25-.4-.72-.15-1.06 .19-.27.36-.55.49-.86 .11-.28.38-.45.68-.45h1.66v-2.5h-1.67c-.3 0-.57-.18-.69-.45 -.66-1.51-2.16-2.56-3.9-2.56Z"/><path d="M22.75 9.5c0-.42-.34-.75-.75-.75h-3c-.42 0-.75.33-.75.75v10c0 .41.33.75.75.75h3c.41 0 .75-.34.75-.75v-10Zm-1.5.75v8.5h-1.5v-8.5h1.5Z"/><path d="M14.25 5c0-1.25-1.01-2.25-2.25-2.25 -1.25 0-2.25 1-2.25 2.25v4.5c0 .41.33.75.75.75h3c.41 0 .75-.34.75-.75V5ZM12 4.25c.41 0 .75.33.75.75v3.75h-1.5V5c0-.42.33-.75.75-.75Z"/><path d="M20.25 5.5c0-1.25-1.07-2.23-2.31-2.13l-4.51.37c-.39.03-.69.35-.69.74v2c0 .39.29.71.68.74l4.5.37c1.24.1 2.3-.88 2.3-2.13Zm-2.19-.63c.36-.04.68.25.68.62 0 .36-.32.65-.69.62l-3.82-.32v-.62l3.81-.32Z"/><path d="M3.75 5.5c0-1.25 1.06-2.23 2.3-2.13l4.5.37c.38.03.68.35.68.74v2c0 .39-.3.71-.69.74l-4.51.37c-1.25.1-2.31-.88-2.31-2.13Zm2.18-.63c-.37-.04-.69.25-.69.62 0 .36.31.65.68.62l3.81-.32v-.62l-3.82-.32Z"/></g></svg>