<svg viewBox="0 0 24 24" xmlns="http://www.w3.org/2000/svg"><g fill-rule="evenodd"><path d="M3.75 4c0-.42.33-.75.75-.75h3c.41 0 .75.33.75.75v16c0 .41-.34.75-.75.75h-3c-.42 0-.75-.34-.75-.75V4Zm1.5.75v14.5h1.5V4.75h-1.5Z"/><path d="M15.75 4c0-.42.33-.75.75-.75h3c.41 0 .75.33.75.75v16c0 .41-.34.75-.75.75h-3c-.42 0-.75-.34-.75-.75V4Zm1.5.75v14.5h1.5V4.75h-1.5Z"/><path d="M1.25 6c0-.42.33-.75.75-.75h2.5c.41 0 .75.33.75.75 0 .41-.34.75-.75.75H2.75v1.5H4.5c.41 0 .75.33.75.75 0 .41-.34.75-.75.75H2c-.42 0-.75-.34-.75-.75V6Zm5.5 0c0-.42.33-.75.75-.75h9c.41 0 .75.33.75.75 0 .41-.34.75-.75.75h-9c-.42 0-.75-.34-.75-.75Zm12 0c0-.42.33-.75.75-.75H22c.41 0 .75.33.75.75v3c0 .41-.34.75-.75.75h-2.5c-.42 0-.75-.34-.75-.75 0-.42.33-.75.75-.75h1.75v-1.5H19.5c-.42 0-.75-.34-.75-.75Zm-12 3c0-.42.33-.75.75-.75h9c.41 0 .75.33.75.75 0 .41-.34.75-.75.75h-9c-.42 0-.75-.34-.75-.75Z"/><path d="M1.25 13c0-.42.33-.75.75-.75h2.5c.41 0 .75.33.75.75 0 .41-.34.75-.75.75H2.75v1.5H4.5c.41 0 .75.33.75.75 0 .41-.34.75-.75.75H2c-.42 0-.75-.34-.75-.75v-3Zm5.5 0c0-.42.33-.75.75-.75H9c.41 0 .75.33.75.75 0 .41-.34.75-.75.75H7.5c-.42 0-.75-.34-.75-.75Zm5.5 0c0-.42.33-.75.75-.75h3.5c.41 0 .75.33.75.75 0 .41-.34.75-.75.75H13c-.42 0-.75-.34-.75-.75Zm6.5 0c0-.42.33-.75.75-.75H22c.41 0 .75.33.75.75v3c0 .41-.34.75-.75.75h-2.5c-.42 0-.75-.34-.75-.75 0-.42.33-.75.75-.75h1.75v-1.5H19.5c-.42 0-.75-.34-.75-.75Zm-12 3c0-.42.33-.75.75-.75h9c.41 0 .75.33.75.75 0 .41-.34.75-.75.75h-9c-.42 0-.75-.34-.75-.75Z"/></g></svg>