<svg viewBox="0 0 24 24" xmlns="http://www.w3.org/2000/svg"><g fill-rule="evenodd"><path d="M10 6.75C8.2 6.75 6.75 8.2 6.75 10v8.95l2.01-.68c.26-.09.56-.02.76.18l2.46 2.46 2.46-2.47c.2-.21.49-.28.76-.19l2.01.67v-.96c0-.42.33-.75.75-.75 .41 0 .75.33.75.75v2c0 .24-.12.46-.32.6 -.2.14-.45.17-.68.1l-2.57-.86 -2.68 2.67c-.3.29-.77.29-1.07 0l-2.68-2.68 -2.57.85c-.23.07-.49.03-.68-.11 -.2-.15-.32-.37-.32-.61v-10c0-2.63 2.12-4.75 4.75-4.75v1.5ZM17.25 10c0-1.8-1.46-3.25-3.25-3.25v-1.5c2.62 0 4.75 2.12 4.75 4.75v4c0 .41-.34.75-.75.75 -.42 0-.75-.34-.75-.75v-4Z"/><path d="M11.46 10.46c.29-.3.76-.3 1.06 0l2 2c.25.25.29.64.09.94l-2 3c-.14.2-.38.33-.63.33 -.26 0-.49-.13-.63-.34l-2.01-3c-.2-.3-.16-.7.09-.95l2-2Zm-.51 2.62l1.03 1.55 1.03-1.56 -1.04-1.04 -1.04 1.03Z"/><path d="M11.23 2.75c-.27 0-.49.21-.49.48v2.45l1.25 1.25 2.48-2.49c.12-.13.08-.33-.07-.41l-.12-.06c-.1-.05-.22-.03-.29.04l-.5.49c-.18.17-.42.24-.66.2 -.24-.04-.45-.19-.56-.41l-.66-1.32c-.09-.17-.26-.27-.44-.27Zm-1.99.48c0-1.1.88-1.99 1.98-1.99 .75 0 1.43.42 1.77 1.09l.2.41c.51-.35 1.18-.4 1.75-.12l.11.05c1.06.53 1.29 1.95.45 2.8L12.48 8.48c-.3.29-.77.29-1.07 0l-2.01-2c-.15-.15-.22-.34-.22-.54V3.17Z"/></g></svg>