<svg viewBox="0 0 24 24" xmlns="http://www.w3.org/2000/svg"><g fill-rule="evenodd"><path d="M12.03 5.46c-.3-.3-.77-.3-1.07 0l-2 2c-.15.14-.22.33-.22.53 0 .19.07.38.21.53l9.49 9.49c.84.84 2.21.84 3.06 0 .84-.85.84-2.22 0-3.07l-1.5-1.5c-.3-.3-.77-.3-1.07 0 -.3.29-.3.76 0 1.06l1.5 1.5c.25.25.25.68 0 .93 -.26.25-.68.25-.94 0l-8.97-8.97 .93-.94 4.96 4.96c.29.29.76.29 1.06 0 .29-.3.29-.77 0-1.07l-5.5-5.51Z"/><path d="M5.4 8.15c.87-.88 2.3-.88 3.18 0l.25.25c.87.87.87 2.3 0 3.18l-2.35 2.34 -3.44-3.44 2.34-2.35Zm4.24-1.07c-1.47-1.47-3.84-1.47-5.31 0L1.45 9.95c-.15.14-.22.33-.22.53 0 .19.07.38.21.53l4.5 4.5c.29.29.76.29 1.06 0l2.87-2.88c1.46-1.47 1.46-3.84 0-5.31l-.26-.26Z"/></g></svg>