<svg viewBox="0 0 24 24" xmlns="http://www.w3.org/2000/svg"><path fill-rule="evenodd" d="M1.25 2c0-.42.33-.75.75-.75h6c.96 0 1.75.78 1.75 1.75v3c0 .03-.01.07-.01.1l-1 6.94c.02 1.77 1.47 3.19 3.24 3.19 .59 0 1.14-.16 1.62-.44 .35-.21.81-.09 1.02.27 .2.35.08.81-.28 1.02 -.7.4-1.52.63-2.38.63 -2.63 0-4.75-2.13-4.75-4.75 0-.04 0-.08 0-.11L8.2 5.9V2.95c0-.14-.12-.25-.25-.25H2.7v2.5h2.25c.21 0 .41.09.55.24 .14.15.21.37.18.58l-1 8.95c.02 3.36 2.74 6.2 7.24 6.2s7.22-2.85 7.24-6.21l-1-8.96c-.03-.22.04-.43.18-.59 .14-.16.34-.25.55-.25h2.25v-2.5h-5.25c-.14 0-.25.11-.25.25v2.94l.99 6.94c.05.41-.23.79-.64.84 -.42.05-.79-.23-.85-.64l-1-7.01c-.01-.04-.01-.08-.01-.11v-3c0-.97.78-1.75 1.75-1.75h6c.41 0 .75.33.75.75v4c0 .41-.34.75-.75.75h-2.17l.9 8.16c0 .02 0 .05 0 .08 0 4.34-3.54 7.75-8.75 7.75 -5.22 0-8.75-3.41-8.75-7.75 0-.03 0-.06 0-.09l.9-8.17H1.84c-.42 0-.75-.34-.75-.75v-4Z"/></svg>