<svg viewBox="0 0 24 24" xmlns="http://www.w3.org/2000/svg"><g fill-rule="evenodd"><path d="M4.5 14.75c.96 0 1.75.78 1.75 1.75 0 .96-.79 1.75-1.75 1.75 -.97 0-1.75-.79-1.75-1.75 0-.97.78-1.75 1.75-1.75Zm3.25 1.75c0-1.8-1.46-3.25-3.25-3.25 -1.8 0-3.25 1.45-3.25 3.25 0 1.79 1.45 3.25 3.25 3.25 1.79 0 3.25-1.46 3.25-3.25Z"/><path d="M17.5 14.75c.96 0 1.75.78 1.75 1.75 0 .96-.79 1.75-1.75 1.75 -.97 0-1.75-.79-1.75-1.75 0-.97.78-1.75 1.75-1.75Zm3.25 1.75c0-1.8-1.46-3.25-3.25-3.25 -1.8 0-3.25 1.45-3.25 3.25 0 1.79 1.45 3.25 3.25 3.25 1.79 0 3.25-1.46 3.25-3.25Z"/><path d="M16.75 14.5c0-.42-.34-.75-.75-.75H6c-.42 0-.75.33-.75.75 0 .41.33.75.75.75h10c.41 0 .75-.34.75-.75Zm0 4c0-.42-.34-.75-.75-.75h-4c-.42 0-.75.33-.75.75 0 .41.33.75.75.75h4c.41 0 .75-.34.75-.75Zm-8 0c0-.42-.34-.75-.75-.75H6c-.42 0-.75.33-.75.75 0 .41.33.75.75.75h2c.41 0 .75-.34.75-.75Z"/><path d="M13.75 11.5c0-.42-.34-.75-.75-.75H9c-.42 0-.75.33-.75.75v3c0 .41.33.75.75.75h4c.41 0 .75-.34.75-.75v-3Zm-1.5.75v1.5h-2.5v-1.5h2.5Z"/><path d="M15.75 8.5c0-.42-.34-.75-.75-.75H8.5c-1.52 0-2.75 1.23-2.75 2.75v1c0 .41.33.75.75.75H15c.41 0 .75-.34.75-.75v-3Zm-1.5.75v1.5h-7v-.25c0-.7.55-1.25 1.25-1.25h5.75Z"/><path d="M22.75 5c0-.42-.34-.75-.75-.75h-2c-.34 0-.64.22-.73.54l-2.5 9c-.12.39.12.81.52.92 .39.11.81-.13.92-.53l2.34-8.46h1.42c.41 0 .75-.34.75-.75Z"/></g></svg>