<svg viewBox="0 0 24 24" xmlns="http://www.w3.org/2000/svg"><g fill-rule="evenodd"><path d="M1.25 20c0-.42.33-.75.75-.75h20c.41 0 .75.33.75.75 0 .41-.34.75-.75.75H2c-.42 0-.75-.34-.75-.75Z"/><path d="M9 10.75c-1.65 0-3.25 1.73-3.25 4.25 0 2.51 1.6 4.25 3.25 4.25 1.64 0 3.25-1.74 3.25-4.25 0-2.52-1.61-4.25-3.25-4.25ZM4.25 15c0-3.02 1.97-5.75 4.75-5.75 2.77 0 4.75 2.73 4.75 5.75 0 3.01-1.98 5.75-4.75 5.75 -2.78 0-4.75-2.74-4.75-5.75Z"/><path d="M3.69 11.91c-.58.76-.95 1.85-.95 3.08s.37 2.32.94 3.08c.57.76 1.3 1.16 2.05 1.16 .32 0 .63-.08.93-.22 .37-.18.82-.02.99.35 .17.37.01.82-.36.99 -.49.22-1.02.35-1.57.35 -1.33 0-2.47-.72-3.26-1.77 -.79-1.05-1.25-2.46-1.25-3.99 0-1.53.46-2.94 1.24-3.99C3.23 9.9 4.37 9.18 5.7 9.18c.55 0 1.08.12 1.56.35 .26.12.43.38.43.67v.21c0 .41-.34.75-.75.75 -.3 0-.56-.18-.68-.42 -.19-.06-.39-.09-.58-.09 -.75 0-1.48.4-2.06 1.16Z"/><path d="M14.3 11.91c.57.76.94 1.85.94 3.08s-.38 2.32-.95 3.08c-.58.76-1.31 1.16-2.06 1.16 -.33 0-.64-.08-.94-.22 -.38-.18-.83-.02-1 .35 -.18.37-.02.82.35.99 .48.22 1.01.35 1.56.35 1.32 0 2.46-.72 3.25-1.77 .78-1.05 1.24-2.46 1.24-3.99 0-1.53-.47-2.94-1.25-3.99 -.79-1.05-1.93-1.77-3.26-1.77 -.56 0-1.09.12-1.57.35 -.27.12-.44.38-.44.67v.21c0 .41.33.75.75.75 .29 0 .55-.18.67-.42 .18-.06.38-.09.57-.09 .74 0 1.47.4 2.05 1.16Z"/><path d="M11 7.75c-.7 0-1.25.55-1.25 1.25v1c0 .41-.34.75-.75.75 -.42 0-.75-.34-.75-.75V9c0-1.52 1.23-2.75 2.75-2.75h2c.41 0 .75.33.75.75 0 .41-.34.75-.75.75h-2ZM16.25 7c0-.42.33-.75.75-.75h3c1.51 0 2.75 1.23 2.75 2.75v.5c0 1.24-1.01 2.25-2.25 2.25 -.42 0-.75.33-.75.75 0 .41.33.75.75.75 1.24 0 2.25 1 2.25 2.25v.67c0 .72-.29 1.42-.81 1.94l-2.42 2.41c-.3.29-.77.29-1.07 0 -.3-.3-.3-.77 0-1.07l2.41-2.42c.23-.24.36-.56.36-.89v-.68c0-.42-.34-.75-.75-.75 -1.25 0-2.25-1.01-2.25-2.25 0-1.25 1-2.25 2.25-2.25 .41 0 .75-.34.75-.75v-.5c0-.7-.56-1.25-1.25-1.25h-3c-.42 0-.75-.34-.75-.75Z"/><path d="M4.25 4c0-.42.33-.75.75-.75h3c1.51 0 2.75 1.23 2.75 2.75v1c0 .41-.34.75-.75.75H7C5.48 7.75 4.25 6.51 4.25 5V4Zm1.5.75V5c0 .69.55 1.25 1.25 1.25h2.25V6c0-.7-.56-1.25-1.25-1.25H5.75Z"/></g></svg>