<svg viewBox="0 0 24 24" xmlns="http://www.w3.org/2000/svg"><g fill-rule="evenodd"><path d="M3.13 3.15c.06-.11.2-.15.31-.09l7.18 3.59c2.46 1.23 4.46 3.23 5.702 5.7l3.35 6.71c.23.46.14 1.03-.23 1.39 -.37.36-.94.46-1.4.22l-.74-.37c-.38-.19-.83-.04-1.01.33 -.19.37-.04.82.33 1l.73.36c1.04.52 2.3.31 3.13-.51 .82-.83 1.03-2.09.5-3.14l-3.36-6.72c-1.38-2.76-3.615-5-6.38-6.38l-7.19-3.6c-.79-.4-1.75-.14-2.24.59l-.22.32c-.32.47-.39 1.08-.17 1.62l.71 1.78 -.45 1.76c-.05.18-.03.38.07.54l2.47 4.39c1.39 2.48 3.5 4.48 6.04 5.75l3.29 1.64c.37.18.82.03 1-.34 .18-.38.03-.83-.34-1.01l-3.3-1.65c-2.28-1.14-4.17-2.94-5.42-5.16L3.16 7.73l.42-1.72c.03-.16.02-.32-.04-.47l-.81-2.02c-.04-.08-.03-.17.02-.24l.21-.33Z"/><path d="M4.84 5.63c-.21.36-.08.81.28 1.02l6.13 3.44c1.08.61 1.96 1.53 2.52 2.64l2.79 5.58c.18.37.63.52 1 .33s.52-.64.33-1.01l-2.8-5.59c-.7-1.39-1.79-2.53-3.13-3.29L5.82 5.3c-.37-.21-.82-.08-1.03.28Z"/></g></svg>