<svg viewBox="0 0 24 24" xmlns="http://www.w3.org/2000/svg"><g fill-rule="evenodd"><path d="M5.69 10.05c-.29-2.57 1.72-4.81 4.3-4.81 .41 0 .75.33.75.75 0 .41-.34.75-.75.75 -1.69 0-3 1.46-2.82 3.14l.55 5.02c0 .06 0 .13-.01.2l-.72 4.29 1.55-1.04c.29-.2.69-.16.94.09l2.46 2.46 2.46-2.47c.25-.26.64-.3.94-.1l1.55 1.03 -.72-4.3c-.02-.07-.02-.14-.01-.21l.11-1c.04-.42.41-.71.82-.67 .41.04.7.41.66.82l-.1.89 .98 5.89c.04.29-.09.59-.34.75 -.26.16-.58.16-.83-.01l-2.49-1.66 -2.57 2.56c-.3.29-.77.29-1.07 0l-2.57-2.57 -2.49 1.65c-.25.16-.58.16-.83 0 -.26-.17-.39-.46-.34-.76l.98-5.9 -.55-4.93Zm7.55-4.06c0-.42.33-.75.75-.75 2.58 0 4.58 2.24 4.3 4.8 -.05.41-.42.7-.83.66 -.42-.05-.71-.42-.67-.83 .18-1.68-1.13-3.15-2.82-3.15 -.42 0-.75-.34-.75-.75Z"/><path d="M11.46 9.46c.29-.3.76-.3 1.06 0l2 2c.25.25.29.64.09.94l-2 3c-.14.2-.38.33-.63.33 -.26 0-.49-.13-.63-.34l-2.01-3c-.2-.3-.16-.7.09-.95l2-2.01Zm-.51 2.62l1.03 1.55 1.03-1.56 -1.04-1.04 -1.04 1.03Z"/><path d="M11.23 2.75c-.27 0-.49.21-.49.48v2.45l1.25 1.25 2.48-2.49c.12-.13.08-.33-.07-.41l-.12-.06c-.1-.05-.22-.03-.29.04l-.5.49c-.18.17-.42.24-.66.2 -.24-.04-.45-.19-.56-.41l-.66-1.32c-.09-.17-.26-.27-.44-.27Zm-1.99.48c0-1.1.88-1.99 1.98-1.99 .75 0 1.43.42 1.77 1.09l.2.41c.51-.35 1.18-.4 1.75-.12l.11.05c1.06.53 1.29 1.95.45 2.8L12.48 8.48c-.3.29-.77.29-1.07 0l-2.01-2c-.15-.15-.22-.34-.22-.54V3.17Z"/><path d="M10.18 11.27c.4.1.64.5.54.9l-.79 3.13c-.08.28.01.58.21.79l.72.72c.56-.73 1.66-.73 2.22 0l.72-.73c.2-.21.29-.51.21-.8l-.79-3.14c-.11-.41.14-.81.54-.91 .4-.11.8.14.9.54l.78 3.13c.19.79-.04 1.63-.62 2.21l-.8.79c-.61.6-1.59.53-2.11-.12 -.52.65-1.51.71-2.11.11l-.8-.8c-.58-.58-.82-1.43-.62-2.22l.78-3.14c.1-.41.5-.65.9-.55Z"/></g></svg>