<svg viewBox="0 0 24 24" xmlns="http://www.w3.org/2000/svg"><g fill-rule="evenodd"><path d="M4.46 2.46c.84-.85 2.21-.85 3.06 0l.78.78h.69c.41 0 .75.33.75.75 0 .41-.34.75-.75.75H7.98c-.2 0-.39-.08-.54-.22l-1-1c-.26-.26-.68-.26-.94 0 -.26.25-.26.67 0 .93l.77.77c.16.16.24.39.21.62l-.75 5.97c-.02.1-.02.2 0 .31l.74 5.96c.02.22-.06.45-.22.62l-.79.78c-.26.25-.26.68 0 .93 .25.25.67.25.93 0 0 0-.01 0 0 0l.99-1.01c.14-.15.33-.22.53-.22l8 0c.19 0 .38.07.53.21l1 1c.25.25.68.25.93 0 .25-.26.25-.68 0-.94l-.78-.78c-.17-.17-.25-.4-.22-.63l.74-5.98c.01-.11.01-.21 0-.32l-.75-5.98c-.03-.23.05-.46.21-.63l.77-.78c.25-.26.25-.68 0-.94 -.26-.26-.68-.26-.94 0l-1 .99c-.15.14-.34.21-.54.21l-3.01-.01c-.42-.01-.75-.34-.75-.76s.33-.75.75-.75l2.68 0 .78-.79c.84-.85 2.21-.85 3.06 0 .84.84.84 2.21 0 3.06l-.52.51 .7 5.6c.02.22.02.45 0 .68l-.71 5.61 .51.51c.84.84.84 2.21 0 3.06 -.85.84-2.22.84-3.07 0l-.79-.79 -7.38-.01 -.79.78c-.85.84-2.22.84-3.07 0 -.85-.85-.85-2.22 0-3.07l.52-.53 -.71-5.61c-.03-.23-.03-.46 0-.69l.7-5.61 -.52-.52c-.85-.85-.85-2.22 0-3.07Z"/><path d="M10.29 11.2c-.41.27-.55.56-.55.79 0 .22.13.51.54.79 .4.26 1 .45 1.7.45s1.3-.2 1.7-.46c.4-.28.54-.57.54-.8 0-.23-.14-.52-.55-.8 -.41-.27-1.01-.46-1.71-.46 -.71 0-1.31.19-1.71.45Zm-.84-1.25c.68-.46 1.58-.72 2.53-.72 .95 0 1.85.25 2.53.71 .67.45 1.21 1.15 1.21 2.03 0 .88-.54 1.58-1.22 2.03 -.69.45-1.59.71-2.54.71 -.96 0-1.86-.26-2.54-.72 -.68-.46-1.22-1.16-1.22-2.04 0-.89.53-1.59 1.21-2.04Z"/></g></svg>