<svg viewBox="0 0 24 24" xmlns="http://www.w3.org/2000/svg"><g fill-rule="evenodd"><path d="M3.39 1.56c.14-.2.36-.32.6-.32h16c.24 0 .46.11.6.31 .14.19.17.44.1.67l-.97 2.88v13.54l.96 3.11c.07.22.02.47-.12.66 -.15.19-.37.3-.61.3h-16c-.25 0-.47-.12-.61-.32 -.15-.2-.18-.45-.11-.68l.96-2.89v-.88c0-.42.33-.75.75-.75 .41 0 .75.33.75.75v1c0 .08-.02.16-.04.23l-.68 2.01h13.94l-.7-2.26c-.03-.08-.04-.15-.04-.23V4.91c0-.09.01-.17.03-.24l.67-2.02H4.95l.67 2.01c.02.07.03.15.03.23v9c0 .41-.34.75-.75.75 -.42 0-.75-.34-.75-.75V5.01l-.97-2.89c-.08-.23-.04-.49.1-.68Z"/><path d="M9.23 8.23c-.68-.34-.68-.34-.68-.34l-.01 0 -.01 0 -.01 0 -.01 0 -.02.02c-.01.01-.02.04-.04.06 -.03.05-.06.13-.09.23 -.07.18-.14.45-.17.77 -.06.63.05 1.5.79 2.23 .73.73 1.59.84 2.23.79 .31-.03.58-.1.77-.17 .09-.04.17-.07.23-.09 .02-.02.05-.03.06-.04l.02-.02 0-.01 0-.01 0-.01 0-.01c0-.01 0-.01-.34-.68l.33.67c.14-.08.26-.2.33-.34l-.68-.34c.67.33.67.33.67.33l0-.01 0-.01 0-.01 0-.01 .01-.03c0-.02.01-.05.03-.07 .02-.06.05-.14.08-.24 .06-.19.13-.46.16-.78 .05-.64-.06-1.51-.8-2.24 -.74-.74-1.6-.85-2.24-.8 -.32.02-.59.09-.78.16 -.1.03-.18.06-.24.08 -.03.01-.06.02-.07.03l-.03.01 -.01 0 -.01 0 -.01 0 -.01 0c-.01 0-.01 0 .33.67Zm.58.58c-.03.09-.05.2-.06.32 -.04.33.02.7.35 1.03 .32.32.7.38 1.03.35 .12-.02.23-.04.32-.06 .02-.1.04-.21.05-.33 .03-.34-.03-.71-.36-1.04 -.33-.33-.71-.39-1.04-.36 -.12.01-.24.03-.33.05Zm1.57 1.91l0-.01c-.01 0-.01 0-.01 0Zm-2.16-2.5l-.34-.68c-.15.07-.27.19-.34.33l.67.33Z"/><path d="M15.06 13.23c.67-.34.67-.34.67-.34l0 0 0 0 0 0 0 0 .01.02c0 .01.01.04.03.06 .02.05.05.13.08.23 .06.18.13.45.16.77 .05.63-.06 1.5-.8 2.23s-1.6.84-2.24.79c-.32-.03-.59-.1-.78-.17 -.1-.04-.18-.07-.24-.09 -.03-.02-.06-.03-.07-.04l-.03-.02 -.01-.01 -.01-.01 -.01-.01 -.01-.01c-.01-.01-.01-.01.33-.68l-.34.67c-.15-.08-.27-.2-.34-.34l.67-.34c-.68.33-.68.33-.68.33l-.01-.01 -.01-.01 -.01-.01 -.01-.01 -.02-.03c-.01-.02-.02-.05-.04-.07 -.03-.06-.06-.14-.09-.24 -.07-.19-.14-.46-.17-.78 -.06-.64.05-1.51.79-2.24 .73-.74 1.59-.85 2.23-.8 .31.02.58.09.77.16 .09.03.17.06.23.08 .02.01.05.02.06.03l.02.01 0 0 0 0 0 0 0 0s0 0-.34.67Zm-.59.58c.02.09.04.2.05.32 .03.33-.03.7-.36 1.03 -.33.32-.71.38-1.04.35 -.12-.02-.24-.04-.33-.06 -.03-.1-.05-.21-.06-.33 -.04-.34.02-.71.35-1.04 .32-.33.7-.39 1.03-.36 .11.01.23.03.32.05Zm-1.58 1.91l-.01-.01s0 0 0 0Zm2.15-2.5l.33-.68c.14.07.26.19.33.33l-.68.33Z"/></g></svg>