<svg viewBox="0 0 24 24" xmlns="http://www.w3.org/2000/svg"><g fill-rule="evenodd"><path d="M6.75 18c0-1.52-1.24-2.75-2.75-2.75H2c-.42 0-.75.33-.75.75v1c0 1.51 1.23 2.75 2.75 2.75h2c.41 0 .75-.34.75-.75v-1ZM4 16.75c.69 0 1.25.55 1.25 1.25v.25H4c-.7 0-1.25-.56-1.25-1.25v-.25H4Z"/><path d="M6 17.25c.41 0 .75.33.75.75v4c0 .41-.34.75-.75.75 -.42 0-.75-.34-.75-.75v-4c0-.42.33-.75.75-.75Z"/><path d="M5.25 18c0-1.52 1.23-2.75 2.75-2.75h2c.41 0 .75.33.75.75v1c0 1.51-1.24 2.75-2.75 2.75H6c-.42 0-.75-.34-.75-.75v-1ZM8 16.75c-.7 0-1.25.55-1.25 1.25v.25H8c.69 0 1.25-.56 1.25-1.25v-.25H8Z"/><path d="M18.75 18c0-1.52-1.24-2.75-2.75-2.75h-2c-.42 0-.75.33-.75.75v1c0 1.51 1.23 2.75 2.75 2.75h2c.41 0 .75-.34.75-.75v-1ZM16 16.75c.69 0 1.25.55 1.25 1.25v.25H16c-.7 0-1.25-.56-1.25-1.25v-.25H16Z"/><path d="M18 17.25c.41 0 .75.33.75.75v4c0 .41-.34.75-.75.75 -.42 0-.75-.34-.75-.75v-4c0-.42.33-.75.75-.75Z"/><path d="M17.25 18c0-1.52 1.23-2.75 2.75-2.75h2c.41 0 .75.33.75.75v1c0 1.51-1.24 2.75-2.75 2.75h-2c-.42 0-.75-.34-.75-.75v-1ZM20 16.75c-.7 0-1.25.55-1.25 1.25v.25H20c.69 0 1.25-.56 1.25-1.25v-.25H20Z"/><path d="M12.55 9l-.01 0 -.02.01c-.01.01-.03.02-.05.04 -.04.04-.1.1-.16.18 -.14.16-.31.38-.49.62s-.35.49-.46.72c-.06.11-.1.2-.13.28 -.03.07-.03.1-.03.11 0 0 0 0 0 0 0 .41.33.75.75.75 .41 0 .75-.34.75-.75 0-.42.33-.75.75-.75 .41 0 .75.33.75.75 0 1.24-1.01 2.25-2.25 2.25 -1.25 0-2.25-1.01-2.25-2.25 0-.4.16-.79.31-1.09 .16-.32.37-.64.57-.92 .2-.28.39-.53.54-.71 .07-.09.13-.17.18-.22 .02-.03.03-.05.05-.06l.01-.02 0-.01 0-.01c0-.01 0-.01.55.5l-.56-.51c.27-.31.75-.34 1.05-.06 .3.27.33.75.05 1.05Z"/><path d="M16.62 7.33l-.05.74 -.75.04c-.02-.22.06-.43.21-.58 .15-.16.35-.24.57-.22Zm.79 1.58c.01.07.02.15.03.23 .04.29.11.59.18.83 .03.12.07.21.11.28 .03.06.05.09.05.09s0 0 0 0c.29.29.76.29 1.06 0 .29-.3.29-.77 0-1.07 0 0 0 0 0 0 -.01-.01-.04-.03-.1-.06 -.08-.04-.17-.08-.29-.12 -.25-.08-.54-.15-.84-.19 -.08-.02-.16-.03-.24-.04Zm-.84-.84c-.75.04-.75.04-.75.04l0 0 0 0 0 .02c0 .01 0 .04 0 .07 0 .06.01.16.02.27 .02.23.05.54.11.88 .05.33.13.71.24 1.05 .1.31.26.71.54.99 .87.87 2.3.87 3.18 0 .87-.88.87-2.31 0-3.19 -.28-.28-.68-.45-1-.55 -.35-.11-.72-.19-1.06-.25 -.34-.06-.66-.1-.89-.12 -.12-.02-.22-.02-.28-.03 -.04-.01-.07-.01-.08-.01l-.03-.01 -.01-.01 -.01-.01c-.01-.01-.01-.01-.05.74Z"/><path d="M7.39 7.48l.04.74 .74.04c.01-.22-.07-.43-.22-.58 -.16-.16-.36-.24-.58-.22Zm-.8 1.58c-.02.07-.03.15-.04.23 -.05.29-.12.59-.19.83 -.04.12-.08.21-.12.28 -.04.06-.06.09-.06.09 -.01 0-.01 0 0 0 -.3.29-.77.29-1.07 0 -.3-.3-.3-.77 0-1.07 -.01 0-.01 0 0 0 0-.01.03-.03.09-.06 .07-.04.16-.08.28-.12 .24-.08.53-.15.83-.19 .07-.02.15-.03.23-.04Zm.83-.84c.74.04.74.04.74.04l-.01 0 -.01 0 -.01.02c-.01.01-.01.04-.01.07 -.01.06-.02.16-.03.27 -.03.23-.06.54-.12.88 -.06.33-.14.71-.25 1.05 -.11.31-.27.71-.55.99 -.88.87-2.31.87-3.19 0 -.88-.88-.88-2.31 0-3.19 .27-.28.67-.45.99-.55 .34-.11.71-.19 1.05-.25 .33-.06.65-.1.88-.12 .11-.02.21-.02.27-.03 .03-.01.06-.01.07-.01l.02-.01 0-.01 0-.01s0-.01.04.74Z"/><path d="M9.25 2c0-.42.33-.75.75-.75h4c.41 0 .75.33.75.75v4c0 .41-.34.75-.75.75h-4c-.42 0-.75-.34-.75-.75V2Zm1.5.75v2.5h2.5v-2.5h-2.5Z"/><path d="M1.25 2c0-.42.33-.75.75-.75h13c.41 0 .75.33.75.75 0 .41-.34.75-.75.75H2c-.42 0-.75-.34-.75-.75Zm17 0c0-.42.33-.75.75-.75h3c.41 0 .75.33.75.75 0 .41-.34.75-.75.75h-3c-.42 0-.75-.34-.75-.75Z"/></g></svg>