<svg viewBox="0 0 24 24" xmlns="http://www.w3.org/2000/svg"><g fill-rule="evenodd"><path d="M9.25 14c0-.42.33-.75.75-.75h4c.41 0 .75.33.75.75v2c0 .41-.34.75-.75.75 -.42 0-.75-.34-.75-.75v-1.25h-2.5v6.5h2.5V18c0-.42.33-.75.75-.75 .41 0 .75.33.75.75v4c0 .41-.34.75-.75.75h-4c-.42 0-.76-.34-.76-.75v-8Z"/><path d="M7.25 12c0-1.52 1.23-2.75 2.75-2.75h4c1.51 0 2.75 1.23 2.75 2.75v2c0 .41-.34.75-.75.75H7.99c-.42 0-.75-.34-.75-.75v-2ZM10 10.75c-.7 0-1.26.55-1.26 1.25v1.25h6.5V12c0-.7-.56-1.25-1.25-1.25h-4Z"/><path d="M12.55 7.5l-.56-.51 -.56.5c.14.15.34.24.55.24 .21 0 .41-.1.55-.25Zm-.56-1.69c-.05-.07-.1-.13-.15-.2 -.18-.25-.35-.5-.46-.73 -.06-.12-.1-.21-.13-.29 -.03-.08-.03-.11-.03-.12 0-.01 0-.01 0 0 0-.42.33-.76.75-.76 .41 0 .75.33.75.75 0-.01 0-.01 0 0 -.01 0-.01.03-.03.11 -.03.07-.07.17-.13.28 -.12.22-.29.48-.46.72 -.05.06-.1.12-.15.19Zm0 1.18c-.56.5-.56.5-.56.5l-.01-.01 -.01-.01 -.02-.02c-.02-.02-.03-.04-.06-.06 -.05-.06-.11-.13-.19-.22 -.15-.18-.35-.43-.55-.71 -.2-.28-.41-.6-.58-.92 -.16-.3-.32-.69-.32-1.09 0-1.25 1-2.25 2.25-2.25 1.24 0 2.25 1 2.25 2.25 0 .39-.17.78-.32 1.08 -.17.31-.38.63-.58.91 -.21.27-.4.52-.55.7 -.08.08-.14.16-.19.21 -.03.02-.04.04-.06.05l-.02.01 -.01 0 -.01 0s-.01 0-.56-.51Z"/><path d="M7.66 8.37l-.75.04 -.05.74c.21.01.42-.07.57-.22 .15-.16.23-.36.21-.58Zm-1.59-.8c-.08-.02-.16-.03-.24-.04 -.3-.05-.6-.12-.84-.19 -.13-.04-.22-.08-.29-.12 -.07-.04-.1-.06-.1-.06 -.01-.01-.01-.01 0 0 -.3-.3-.3-.77-.01-1.07 .29-.3.76-.3 1.06 0 -.01-.01-.01-.01 0 0 0 0 .02.03.05.09 .03.07.07.16.11.28 .07.24.14.53.18.83 .01.07.02.15.03.23Zm.83.83c-.05.74-.05.74-.05.74l-.01-.01 -.01-.01 -.03-.01c-.02-.01-.05-.01-.08-.01 -.07-.01-.17-.02-.28-.03 -.24-.03-.55-.06-.89-.12 -.34-.06-.72-.14-1.06-.25 -.32-.11-.72-.27-1-.55 -.88-.88-.88-2.31 0-3.19 .87-.88 2.3-.88 3.18 0 .27.27.44.67.54.99 .1.34.18.71.24 1.05 .05.33.09.65.11.88 .01.11.01.21.02.27 0 .03 0 .06 0 .07l0 .02 0 0 0 0s0 0-.75.04Z"/><path d="M16.89 9.13c-.42-.03-.74-.38-.71-.79l.74.04c-.75-.05-.75-.05-.75-.05l0-.01 0-.01 0-.03c0-.02 0-.05 0-.08 0-.07.01-.17.02-.28 .02-.24.05-.55.11-.89 .05-.34.13-.72.24-1.06 .1-.32.26-.72.54-1 .87-.88 2.3-.88 3.18 0 .87.87.87 2.3 0 3.18 -.3.29-.77.29-1.07 0 -.3-.3-.3-.77 0-1.07 .29-.3.29-.77 0-1.07 -.3-.3-.77-.3-1.07 0 0-.01 0-.01 0 0 -.01 0-.03.03-.06.09 -.04.07-.08.16-.12.28 -.08.24-.15.53-.19.83 -.05.29-.08.57-.1.78 -.01.1-.02.18-.03.24 -.01.02-.01.05-.01.06l-.01.01 -.01 0s0-.01 0 0m-.79.7c.41.02.76-.3.78-.71l-.79.7Z"/></g></svg>