<svg viewBox="0 0 24 24" xmlns="http://www.w3.org/2000/svg"><g fill-rule="evenodd"><path d="M4.25 14c0-.42.33-.75.75-.75h14c.41 0 .75.33.75.75v8c0 .41-.34.75-.75.75h-9c-.42 0-.75-.34-.75-.75 0-.42.33-.75.75-.75h8.25v-6.5H5.75v6.5H6c.41 0 .75.33.75.75 0 .41-.34.75-.75.75H5c-.42 0-.75-.34-.75-.75v-8Z"/><path d="M6.25 2c0-.42.33-.75.75-.75h10c.41 0 .75.33.75.75v12c0 .41-.34.75-.75.75 -.42 0-.75-.34-.75-.75V2.75h-8.5V14c0 .41-.34.75-.75.75 -.42 0-.75-.34-.75-.75V2Z"/><path d="M16.25 6c0-.42.33-.75.75-.75h3c.41 0 .75.33.75.75v2.25H22c.41 0 .75.33.75.75 0 .41-.34.75-.75.75h-2c-.42 0-.75-.34-.75-.75V6.75H17c-.42 0-.75-.34-.75-.75Z"/><path d="M9.43 7c.14-.17.34-.26.56-.26h4c.21 0 .42.09.56.25 .14.16.2.38.17.59l-.5 3.5c-.06.36-.37.64-.75.64h-3c-.38 0-.69-.28-.75-.65l-.5-3.51c-.04-.22.03-.44.17-.6Zm1.43 1.24l.28 2h1.69l.28-2h-2.28Z"/><path d="M12 1.25c.41 0 .75.33.75.75v5.5c0 .41-.34.75-.75.75 -.42 0-.75-.34-.75-.75V2c0-.42.33-.75.75-.75Z"/></g></svg>