<svg viewBox="0 0 24 24" xmlns="http://www.w3.org/2000/svg"><g fill-rule="evenodd"><path d="M5.25 10.5c0-1.52 1.23-2.75 2.75-2.75h2c.41 0 .75.33.75.75v2c0 1.51-1.24 2.75-2.75 2.75H6c-.42 0-.75-.34-.75-.75v-2ZM8 9.25c-.7 0-1.25.55-1.25 1.25v1.25H8c.69 0 1.25-.56 1.25-1.25V9.25H8Z"/><path d="M6.75 10.5c0-1.52-1.24-2.75-2.75-2.75H2c-.42 0-.75.33-.75.75v2c0 1.51 1.23 2.75 2.75 2.75h2c.41 0 .75-.34.75-.75v-2ZM4 9.25c.69 0 1.25.55 1.25 1.25v1.25H4c-.7 0-1.25-.56-1.25-1.25V9.25H4Z"/><path d="M5.25 16c0-1.52 1.23-2.75 2.75-2.75h2c.41 0 .75.33.75.75v2c0 1.51-1.24 2.75-2.75 2.75H6c-.42 0-.75-.34-.75-.75v-2ZM8 14.75c-.7 0-1.25.55-1.25 1.25v1.25H8c.69 0 1.25-.56 1.25-1.25v-1.25H8Z"/><path d="M6.75 16c0-1.52-1.24-2.75-2.75-2.75H2c-.42 0-.75.33-.75.75v2c0 1.51 1.23 2.75 2.75 2.75h2c.41 0 .75-.34.75-.75v-2ZM4 14.75c.69 0 1.25.55 1.25 1.25v1.25H4c-.7 0-1.25-.56-1.25-1.25v-1.25H4Z"/><path d="M6 6.25c.41 0 .75.33.75.75v15c0 .41-.34.75-.75.75 -.42 0-.75-.34-.75-.75V7c0-.42.33-.75.75-.75Z"/><path d="M5.48 1.45c.29-.29.77-.28 1.06.02l-.55.51c.54-.52.54-.52.54-.52l0 0 0 0 .01.01c.01.01.03.04.06.07 .05.06.13.15.23.26 .19.22.45.52.72.87 .26.34.53.73.74 1.12 .19.36.4.82.4 1.28 0 1.49-1.28 2.625-2.75 2.625 -1.48 0-2.75-1.14-2.75-2.625 0-.42.33-.75.75-.75 .41 0 .75.33.75.75 0 .57.51 1.125 1.25 1.125 .73 0 1.25-.55 1.25-1.125 0-.06-.05-.25-.22-.57 -.17-.3-.39-.62-.63-.94 -.24-.31-.48-.59-.66-.8 -.09-.11-.17-.19-.22-.24 -.03-.03-.05-.05-.06-.07l-.02-.02 -.01-.01c-.29-.3-.28-.78.02-1.07Z"/><path d="M17.25 10.5c0-1.52 1.23-2.75 2.75-2.75h2c.41 0 .75.33.75.75v2c0 1.51-1.24 2.75-2.75 2.75h-2c-.42 0-.75-.34-.75-.75v-2ZM20 9.25c-.7 0-1.25.55-1.25 1.25v1.25H20c.69 0 1.25-.56 1.25-1.25V9.25H20Z"/><path d="M18.75 10.5c0-1.52-1.24-2.75-2.75-2.75h-2c-.42 0-.75.33-.75.75v2c0 1.51 1.23 2.75 2.75 2.75h2c.41 0 .75-.34.75-.75v-2ZM16 9.25c.69 0 1.25.55 1.25 1.25v1.25H16c-.7 0-1.25-.56-1.25-1.25V9.25H16Z"/><path d="M17.25 16c0-1.52 1.23-2.75 2.75-2.75h2c.41 0 .75.33.75.75v2c0 1.51-1.24 2.75-2.75 2.75h-2c-.42 0-.75-.34-.75-.75v-2ZM20 14.75c-.7 0-1.25.55-1.25 1.25v1.25H20c.69 0 1.25-.56 1.25-1.25v-1.25H20Z"/><path d="M18.75 16c0-1.52-1.24-2.75-2.75-2.75h-2c-.42 0-.75.33-.75.75v2c0 1.51 1.23 2.75 2.75 2.75h2c.41 0 .75-.34.75-.75v-2ZM16 14.75c.69 0 1.25.55 1.25 1.25v1.25H16c-.7 0-1.25-.56-1.25-1.25v-1.25H16Z"/><path d="M18 6.25c.41 0 .75.33.75.75v15c0 .41-.34.75-.75.75 -.42 0-.75-.34-.75-.75V7c0-.42.33-.75.75-.75Z"/><path d="M18.54 1.48l-.55.51 -.55-.52c.14-.15.33-.24.54-.24 .2 0 .4.08.54.23Zm-.55 1.64c-.13.15-.27.32-.41.5 -.24.31-.47.63-.63.93 -.18.32-.22.5-.22.56 0 .57.51 1.125 1.25 1.125 .73 0 1.25-.55 1.25-1.125 0-.06-.05-.25-.22-.57 -.17-.3-.39-.62-.63-.94 -.14-.19-.28-.36-.41-.51Zm0-1.13c-.55-.52-.55-.52-.55-.52l-.01 0 -.01 0 -.02.01c-.02.01-.04.04-.07.07 -.06.06-.14.15-.24.26 -.2.22-.46.52-.73.87 -.27.34-.54.73-.75 1.12 -.2.36-.41.82-.41 1.28 0 1.49 1.27 2.625 2.75 2.625 1.47 0 2.75-1.14 2.75-2.625 0-.46-.21-.93-.41-1.29 -.22-.39-.49-.79-.75-1.13 -.27-.35-.53-.66-.73-.88 -.1-.12-.18-.21-.24-.27 -.03-.04-.06-.06-.07-.08l-.02-.02 -.01-.01 -.01-.01c-.01-.01 0 0-.55.51Z"/><path d="M1.25 22c0-.42.33-.75.75-.75h20c.41 0 .75.33.75.75 0 .41-.34.75-.75.75H2c-.42 0-.75-.34-.75-.75Z"/></g></svg>