<svg viewBox="0 0 24 24" xmlns="http://www.w3.org/2000/svg"><path fill="#8B98A6" fill-rule="evenodd" d="M11.5 5.25c-.7 0-1.25.55-1.25 1.25v1c0 .41-.34.75-.75.75 -.42 0-.75-.34-.75-.75v-1c0-1.52 1.23-2.75 2.75-2.75h1c1.51 0 2.75 1.23 2.75 2.75v1c0 .41-.34.75-.75.75 -.42 0-.75-.34-.75-.75v-1c0-.7-.56-1.25-1.25-1.25h-1Z"/><path fill="#FFC44D" d="M5 6.75c-1.52 0-2.75 1.23-2.75 2.75v8c0 1.51 1.23 2.75 2.75 2.75h14c1.51 0 2.75-1.24 2.75-2.75v-8c0-1.52-1.24-2.75-2.75-2.75H5Z"/><g fill="#ECEFF1" fill-rule="evenodd"><path d="M5.75 10c0-.42.33-.75.75-.75H9c1.24 0 2.25 1 2.25 2.25v.5c0 1.24-1.01 2.25-2.25 2.25H8c-.42 0-.75.33-.75.75v.5c0 .41.33.75.75.75h2.5c.41 0 .75.33.75.75 0 .41-.34.75-.75.75H8c-1.25 0-2.25-1.01-2.25-2.25V15c0-1.25 1-2.25 2.25-2.25h1c.41 0 .75-.34.75-.75v-.5c0-.42-.34-.75-.75-.75H6.5c-.42 0-.75-.34-.75-.75Z"/><path d="M12.75 11.5c0-1.25 1-2.25 2.25-2.25h1c1.24 0 2.25 1 2.25 2.25v4c0 1.24-1.01 2.25-2.25 2.25h-1c-1.25 0-2.25-1.01-2.25-2.25v-4Zm2.25-.75c-.42 0-.75.33-.75.75v4c0 .41.33.75.75.75h1c.41 0 .75-.34.75-.75v-4c0-.42-.34-.75-.75-.75h-1Z"/></g></svg>