<svg viewBox="0 0 24 24" xmlns="http://www.w3.org/2000/svg"><path fill="#CFD8DC" fill-rule="evenodd" d="M3.25 19c0-.42.33-.75.75-.75h6.5c.41 0 .75.33.75.75 0 .41-.34.75-.75.75H4c-.42 0-.75-.34-.75-.75Z"/><path fill="#8B98A6" d="M10.5 15.25c-.42 0-.75.33-.75.75v6c0 .41.33.75.75.75h3c.41 0 .75-.34.75-.75v-6c0-.42-.34-.75-.75-.75h-3Z"/><path fill="#CFD8DC" d="M3 2.25c-.42 0-.75.33-.75.75v13c0 .41.33.75.75.75h17c.41 0 .75-.34.75-.75v-6c0-.22-.1-.43-.26-.57l-8-7c-.14-.12-.32-.19-.5-.19h-9Z"/><g fill="#8B98A6"><path d="M12 1.25c-.42 0-.75.33-.75.75v8c0 .41.33.75.75.75h9c.41 0 .75-.34.75-.75V2c0-.42-.34-.75-.75-.75h-9Z"/><path d="M5.5 5.25c-.42 0-.75.33-.75.75v4c0 .41.33.75.75.75h4c.41 0 .75-.34.75-.75V6c0-.42-.34-.75-.75-.75h-4Z"/></g><path fill="#ECEFF1" d="M16.5 3.25c-1.52 0-2.75 1.23-2.75 2.75 0 1.51 1.23 2.75 2.75 2.75 1.51 0 2.75-1.24 2.75-2.75 0-1.52-1.24-2.75-2.75-2.75Z"/><path fill="#8B98A6" fill-rule="evenodd" d="M4.75 13c0-.42.33-.75.75-.75h4c.41 0 .75.33.75.75 0 .41-.34.75-.75.75h-4c-.42 0-.75-.34-.75-.75Z"/></svg>