<svg viewBox="0 0 24 24" xmlns="http://www.w3.org/2000/svg"><path fill="#EE4D4D" d="M11.43 22.49s0 0 .56-.5l-.57.49c.14.16.34.25.56.25 .21 0 .42-.1.56-.26l-.57-.5c.56.49.56.49.56.49l0-.01 0-.01 .01-.02 .02-.03 .03-.04c.04-.06.12-.15.21-.26 .18-.23.44-.55.75-.95 .62-.81 1.44-1.95 2.27-3.28 1.63-2.64 3.36-6.17 3.36-9.43 0-4.01-3.25-7.25-7.25-7.25 -4.01 0-7.25 3.24-7.25 7.25 0 3.26 1.72 6.79 3.36 9.42 .82 1.33 1.65 2.47 2.27 3.27 .31.4.56.72.75.94 .09.11.16.19.21.25 .02.02.04.05.05.06l.01.01 0 0 0 0Z"/><g fill="#ECEFF1" fill-rule="evenodd"><path d="M12 13.25c-.42 0-.75-.34-.75-.75v-8c0-.42.33-.75.75-.75 .41 0 .75.33.75.75v8c0 .41-.34.75-.75.75Z"/><path d="M7.84 9.37c-.21-.36-.09-.82.27-1.03l3.49-2c.23-.14.51-.14.74 0l3.5 2c.35.2.48.66.27 1.02 -.21.35-.67.48-1.03.27l-3.13-1.79 -3.13 1.78c-.36.2-.82.08-1.03-.28Z"/><path d="M9.32 12.83c-.19-.38-.04-.83.33-1.01l2-1c.21-.11.45-.11.67 0l2 1c.37.18.52.63.33 1s-.64.52-1.01.33l-1.67-.84 -1.67.83c-.38.18-.83.03-1.01-.34Z"/></g></svg>