<svg viewBox="0 0 24 24" xmlns="http://www.w3.org/2000/svg"><path fill="#CFD8DC" d="M4 14.75c-.26 0-.51.13-.64.35 -.14.22-.15.49-.04.72l2 4c.12.25.38.41.67.41h12c.28 0 .54-.17.67-.42l2-4c.11-.24.1-.51-.04-.73 -.14-.23-.38-.36-.64-.36h-16Z"/><g fill="#EE4D4D"><path d="M10.25 4.49c0-.36-.25-.66-.59-.74 -.35-.08-.7.09-.85.41l-4 8.49c-.11.23-.1.5.04.72 .13.21.37.34.63.34h4c.41 0 .75-.34.75-.75V4.45Z"/><path d="M11.25 4.49c0-.33.2-.61.5-.72 .3-.11.641-.01.83.25l6.5 8.5c.17.22.2.532.07.78 -.13.25-.39.41-.68.41h-6.5c-.42 0-.75-.34-.75-.75V4.45Z"/></g></svg>