<svg viewBox="0 0 24 24" xmlns="http://www.w3.org/2000/svg"><path fill="#ECEFF1" d="M3 9.25c-.42 0-.75.33-.75.75v11c0 .41.33.75.75.75h18c.41 0 .75-.34.75-.75V10c0-.42-.34-.75-.75-.75H3Z"/><path fill="#EE4D4D" d="M3 4.75c-.42 0-.75.33-.75.75V10c0 .41.33.75.75.75h18c.41 0 .75-.34.75-.75V5.5c0-.42-.34-.75-.75-.75H3Z"/><g fill="#ECEFF1" fill-rule="evenodd"><path d="M7 2.75c.41 0 .75.33.75.75v4c0 .41-.34.75-.75.75 -.42 0-.75-.34-.75-.75v-4c0-.42.33-.75.75-.75Z"/><path d="M17 2.75c.41 0 .75.33.75.75v4c0 .41-.34.75-.75.75 -.42 0-.75-.34-.75-.75v-4c0-.42.33-.75.75-.75Z"/></g></svg>