<svg viewBox="0 0 24 24" xmlns="http://www.w3.org/2000/svg"><path fill="#A2D471" d="M12.62 3.58c-.14-.21-.38-.34-.63-.34 -.26 0-.49.12-.63.33l-8.01 12c-.09.12-.13.26-.13.41v4c0 .41.33.75.75.75h16c.41 0 .75-.34.75-.75v-4c0-.15-.05-.3-.13-.42l-8-12Z"/><path fill="#8BC94D" d="M12.62 3.58c-.14-.21-.38-.34-.63-.34 -.26 0-.49.12-.63.33l-8.01 12c-.09.12-.13.26-.13.41v4c0 .41.33.75.75.75h3c.41 0 .75-.34.75-.75v-2.15l2.18-1.82c.46-.39.81-.9 1-1.47l1.06-3.2 1.06 3.19c.19.57.53 1.08 1 1.46l2.18 1.81v2.14c0 .41.33.75.75.75h3c.41 0 .75-.34.75-.75v-4c0-.15-.05-.3-.13-.42l-8-12Z"/></svg>