<svg viewBox="0 0 24 24" xmlns="http://www.w3.org/2000/svg"><g fill="#A2ADB8" fill-rule="evenodd"><path d="M12 15.75c.41 0 .75.33.75.75v.5c0 .69.55 1.25 1.25 1.25h6.5c1.24 0 2.25 1 2.25 2.25 0 1.24-1.01 2.25-2.25 2.25H2c-.42 0-.75-.34-.75-.75 0-.42.33-.75.75-.75h18.5c.41 0 .75-.34.75-.75 0-.42-.34-.75-.75-.75H14c-1.52 0-2.75-1.24-2.75-2.75v-.5c0-.42.33-.75.75-.75Z"/><g fill="#FFC44D"><path d="M9 1.25c.41 0 .75.33.75.75v3.5c0 .41-.34.75-.75.75 -.42 0-.75-.34-.75-.75V2c0-.42.33-.75.75-.75Z"/><path d="M15 1.25c.41 0 .75.33.75.75v3.5c0 .41-.34.75-.75.75 -.42 0-.75-.34-.75-.75V2c0-.42.33-.75.75-.75Z"/></g></g><path fill="#CFD8DC" d="M7 4.75c-.42 0-.75.33-.75.75v8c0 2.07 1.67 3.75 3.75 3.75h4c2.07 0 3.75-1.68 3.75-3.75v-8c0-.42-.34-.75-.75-.75H7Z"/><path fill="#5E94FF" fill-rule="evenodd" d="M12.416 7.37c.34.22.43.69.2 1.04l-1.23 1.83h2.59c.27 0 .53.15.66.39 .13.24.11.53-.04.76l-2 3c-.23.34-.7.43-1.04.2 -.35-.23-.44-.7-.21-1.04l1.22-1.84h-2.6c-.28 0-.54-.16-.67-.4 -.14-.25-.12-.54.03-.77l2-3.01c.22-.35.69-.44 1.04-.21Z"/></svg>