<svg viewBox="0 0 24 24" xmlns="http://www.w3.org/2000/svg"><path fill="#ECEFF1" d="M12 1.25C6.06 1.25 1.25 6.06 1.25 12c0 5.93 4.81 10.75 10.75 10.75 5.93 0 10.75-4.82 10.75-10.75 0-5.94-4.82-10.75-10.75-10.75Z"/><path fill="#EE4D4D" d="M12.68 4.7c-.12-.28-.39-.46-.69-.46 -.3 0-.58.17-.69.45l-3 7c-.09.18-.09.4 0 .59l2.99 7c.11.27.38.45.68.45 .3 0 .57-.18.68-.46l3-7c.08-.19.08-.41 0-.6l-3-7.01Z"/><path fill="#8B98A6" fill-rule="evenodd" d="M12 2.75c-5.11 0-9.25 4.14-9.25 9.25 0 5.1 4.14 9.25 9.25 9.25 5.1 0 9.25-4.15 9.25-9.25 0-5.11-4.15-9.25-9.25-9.25ZM1.25 12C1.25 6.06 6.06 1.25 12 1.25c5.93 0 10.75 4.81 10.75 10.75 0 5.93-4.82 10.75-10.75 10.75 -5.94 0-10.75-4.82-10.75-10.75Z"/></svg>