<svg viewBox="0 0 24 24" xmlns="http://www.w3.org/2000/svg"><path fill="#5E94FF" d="M5 3.25c-.42 0-.75.33-.75.75 0 1.24-1.01 2.25-2.25 2.25 -.42 0-.75.33-.75.75v5c0 .41.33.75.75.75 1.24 0 2.25 1 2.25 2.25 0 .41.33.75.75.75h14c.41 0 .75-.34.75-.75 0-1.25 1-2.25 2.25-2.25 .41 0 .75-.34.75-.75V7c0-.42-.34-.75-.75-.75 -1.25 0-2.25-1.01-2.25-2.25 0-.42-.34-.75-.75-.75H5Z"/><path fill="#ECEFF1" d="M12 8.75c-3.18 0-5.75 2.57-5.75 5.75 0 3.17 2.57 5.75 5.75 5.75 3.17 0 5.75-2.58 5.75-5.75 0-3.18-2.58-5.75-5.75-5.75Z"/><path fill="#8B98A6" fill-rule="evenodd" d="M12 10.75c.41 0 .75.33.75.75v3.03l1.58.79c.37.18.52.63.33 1s-.64.52-1.01.33l-2-1c-.26-.13-.42-.39-.42-.68v-3.5c0-.42.33-.75.75-.75Z"/></svg>