<svg viewBox="0 0 24 24" xmlns="http://www.w3.org/2000/svg"><path fill="#5E94FF" d="M6 7.25c-.42 0-.75.33-.75.75v9c0 .41.33.75.75.75h13.5c1.79 0 3.25-1.46 3.25-3.25v-.82c0-.98-.44-1.9-1.2-2.52l-4.04-3.3c-.5-.41-1.11-.63-1.75-.63H5.97Z"/><g fill="#8B98A6" fill-rule="evenodd"><path d="M5.25 20c0-.42.33-.75.75-.75h16c.41 0 .75.33.75.75 0 .41-.34.75-.75.75H6c-.42 0-.75-.34-.75-.75Z"/><path fill="#ECEFF1" d="M22.11 11.75c-.16-.22-.35-.41-.56-.59l-4.04-3.3c-.5-.41-1.11-.63-1.75-.63h-5.69l2.77 4.166c.13.2.37.33.62.33h8.61Z"/></g><path fill="#ECEFF1" d="M6 7.25c-.42 0-.75.33-.75.75v3c0 .41.33.75.75.75h4.5c.27 0 .53-.16.66-.4 .13-.25.11-.54-.04-.77l-2-3.01c-.14-.21-.38-.34-.63-.34h-2.5Z"/><path fill="#CFD8DC" d="M2 3.25c-.42 0-.75.33-.75.75v16c0 .41.33.75.75.75h4c.41 0 .75-.34.75-.75V4c0-.42-.34-.75-.75-.75H2Z"/></svg>