<svg viewBox="0 0 24 24" xmlns="http://www.w3.org/2000/svg"><g fill="#EE4D4D"><path d="M5 4.75c-.2 0-.39.07-.54.21l-2 2c-.3.29-.3.76 0 1.06l2 1.99c.14.14.33.21.53.21h7c.41 0 .75-.34.75-.75v-4c0-.42-.34-.75-.75-.75h-7Z"/><path d="M19 16.25c.19 0 .38-.08.53-.22l2-2c.29-.3.29-.77 0-1.07l-2-2c-.15-.15-.34-.22-.54-.22h-7c-.42 0-.75.33-.75.75v4c0 .41.33.75.75.75h7Z"/></g><g fill="#8B98A6" fill-rule="evenodd"><path d="M12 1.75c.41 0 .75.33.75.75v19c0 .41-.34.75-.75.75 -.42 0-.75-.34-.75-.75v-19c0-.42.33-.75.75-.75Z"/><path d="M8.25 21.5c0-.42.33-.75.75-.75h6c.41 0 .75.33.75.75 0 .41-.34.75-.75.75H9c-.42 0-.75-.34-.75-.75Z"/></g></svg>