<svg viewBox="0 0 24 24" xmlns="http://www.w3.org/2000/svg"><path fill="#ECEFF1" d="M6 1.25c-.42 0-.75.33-.75.75v20c0 .41.33.75.75.75h12c.41 0 .75-.34.75-.75V2c0-.42-.34-.75-.75-.75H6Z"/><g fill="#5E94FF" fill-rule="evenodd"><path d="M5.25 2c0-.42.33-.75.75-.75h12c.41 0 .75.33.75.75v19.25H21c.41 0 .75.33.75.75 0 .41-.34.75-.75.75h-3c-.42 0-.75-.34-.75-.75V2.75H6.75V22c0 .41-.34.75-.75.75H3c-.42 0-.75-.34-.75-.75 0-.42.33-.75.75-.75h2.25V2Z"/><path fill="#8B98A6" d="M15 9.25c.41 0 .75.33.75.75v3c0 .41-.34.75-.75.75 -.42 0-.75-.34-.75-.75v-3c0-.42.33-.75.75-.75Z"/></g></svg>