<svg viewBox="0 0 24 24" xmlns="http://www.w3.org/2000/svg"><path fill="#5E94FF" d="M5 5.75c-.42 0-.75.33-.75.75 0 1.24-1.01 2.25-2.25 2.25 -.42 0-.75.33-.75.75v5c0 .41.33.75.75.75 1.24 0 2.25 1 2.25 2.25 0 .41.33.75.75.75h14c.41 0 .75-.34.75-.75 0-1.25 1-2.25 2.25-2.25 .41 0 .75-.34.75-.75v-5c0-.42-.34-.75-.75-.75 -1.25 0-2.25-1.01-2.25-2.25 0-.42-.34-.75-.75-.75H5Z"/><g fill="#ECEFF1" fill-rule="evenodd"><path d="M7.75 12c0-.42.33-.75.75-.75h8c.41 0 .75.33.75.75 0 .41-.34.75-.75.75h-8c-.42 0-.75-.34-.75-.75Z"/><path d="M11.62 7.84c.35-.21.81-.09 1.02.27l2 3.5c.13.23.13.51 0 .74l-2 3.5c-.21.35-.67.48-1.03.27 -.36-.21-.49-.67-.28-1.03l1.78-3.13 -1.79-3.13c-.21-.36-.09-.82.27-1.03Z"/><path d="M8.16 9.32c.37-.19.82-.04 1 .33l1 2c.1.21.1.45 0 .67l-1.01 2c-.19.37-.64.52-1.01.33 -.38-.19-.53-.64-.34-1.01l.83-1.67 -.84-1.67c-.19-.38-.04-.83.33-1.01Z"/></g></svg>