<svg viewBox="0 0 24 24" xmlns="http://www.w3.org/2000/svg"><g fill="#CFD8DC" fill-rule="evenodd"><path d="M3.5 1.25c.41 0 .75.33.75.75v5c0 .69.55 1.25 1.25 1.25h3c.69 0 1.25-.56 1.25-1.25V2c0-.42.33-.75.75-.75 .41 0 .75.33.75.75v5c0 1.51-1.24 2.75-2.75 2.75h-3C3.98 9.75 2.75 8.51 2.75 7V2c0-.42.33-.75.75-.75Z"/><path d="M7 1.25c.41 0 .75.33.75.75v20c0 .41-.34.75-.75.75 -.42 0-.75-.34-.75-.75V2c0-.42.33-.75.75-.75Z"/><path d="M17 10.25c.41 0 .75.33.75.75v11c0 .41-.34.75-.75.75 -.42 0-.75-.34-.75-.75V11c0-.42.33-.75.75-.75Z"/></g><path fill="#A2ADB8" d="M17 1.25c-1.81 0-3.33 1.35-3.53 3.15l-.36 3.18c-.25 2.22 1.49 4.16 3.72 4.16h.29c2.23 0 3.97-1.95 3.72-4.17l-.36-3.19c-.2-1.8-1.72-3.16-3.53-3.16Z"/></svg>