<svg viewBox="0 0 24 24" xmlns="http://www.w3.org/2000/svg"><path fill="#CFD8DC" fill-rule="evenodd" d="M7.03 3.25c.21 0 .4.1.54.26l1.54 1.85c1.49 1.79 4.26 1.79 5.76 0l1.54-1.86c.13-.17.33-.26.54-.27 .21-.01.41.06.56.21l5 5c.29.29.29.76 0 1.06 -.3.29-.77.29-1.07 0l-4.42-4.42L16 6.3c-2.099 2.51-5.97 2.51-8.07 0L6.91 5.07 2.49 9.48c-.3.29-.77.29-1.07 0 -.3-.3-.3-.77 0-1.07l5-5c.14-.15.35-.23.56-.22Z"/><path fill="#F17171" d="M2 11.25c-.42 0-.75.33-.75.75v3c0 .41.33.75.75.75h20c.41 0 .75-.34.75-.75v-3c0-.42-.34-.75-.75-.75H2Z"/><g fill="#EE4D4D" fill-rule="evenodd"><path d="M7 3.25c.41 0 .75.33.75.75v16c0 .41-.34.75-.75.75 -.42 0-.75-.34-.75-.75V4c0-.42.33-.75.75-.75Z"/><path d="M17 3.25c.41 0 .75.33.75.75v16c0 .41-.34.75-.75.75 -.42 0-.75-.34-.75-.75V4c0-.42.33-.75.75-.75Z"/></g></svg>