<svg viewBox="0 0 24 24" xmlns="http://www.w3.org/2000/svg"><path fill="#ECEFF1" d="M7.27 2.3c-.18-.08-.38-.08-.56 0l-5 2c-.29.11-.48.38-.48.69v16c0 .24.12.48.32.62 .2.13.46.16.69.07l4.72-1.89 4.72 1.88c.17.07.37.07.55 0l4.72-1.89 4.72 1.88c.23.09.49.06.69-.08 .2-.14.32-.38.32-.63v-16c0-.31-.19-.59-.48-.7l-5-2c-.18-.08-.38-.08-.56 0l-4.73 1.88 -4.73-1.89Z"/><g fill="#EE4D4D"><path d="M11.38 17.42s0 0 .61-.43c.61.42.61.42.61.42 -.14.2-.38.32-.62.32 -.25 0-.48-.13-.62-.33Z"/><path d="M11.38 17.42l.61-.43 .61.42 0-.01 0-.02 .02-.04c.02-.04.05-.09.09-.15 .08-.13.2-.31.34-.53 .28-.44.66-1.05 1.05-1.71 .38-.66.77-1.39 1.06-2.06 .28-.65.53-1.36.53-1.94 0-2.08-1.68-3.75-3.75-3.75 -2.08 0-3.75 1.67-3.75 3.75 0 .58.24 1.29.53 1.93 .29.67.68 1.4 1.06 2.05 .38.66.76 1.26 1.05 1.7 .14.22.26.39.34.52 .04.06.07.11.09.14l.02.03 0 .01 0 0Z"/></g></svg>