<svg viewBox="0 0 24 24" xmlns="http://www.w3.org/2000/svg"><path fill="#A2ADB8" d="M7 17.25c-1.52 0-2.75 1.23-2.75 2.75v2c0 .41.33.75.75.75h14c.41 0 .75-.34.75-.75v-2c0-1.52-1.24-2.75-2.75-2.75H7Z"/><path fill="#CFD8DC" d="M10.5 1.25c-2.35 0-4.25 1.9-4.25 4.25v9c0 2.34 1.9 4.25 4.25 4.25h3c2.34 0 4.25-1.91 4.25-4.25v-9c0-2.35-1.91-4.25-4.25-4.25h-3Z"/><path fill="#8B98A6" fill-rule="evenodd" d="M8.25 8c0-.42.33-.75.75-.75h6c.41 0 .75.33.75.75 0 .41-.34.75-.75.75H9c-.42 0-.75-.34-.75-.75Z"/><path fill="#A2ADB8" d="M12.71 7.78c-.1-.32-.39-.54-.72-.54 -.34 0-.63.21-.72.53l-1.5 5c-.07.22-.03.47.11.66 .14.19.36.3.6.3h3c.23 0 .46-.12.6-.31 .14-.2.18-.44.11-.67l-1.5-5.01Z"/></svg>