<svg viewBox="0 0 24 24" xmlns="http://www.w3.org/2000/svg"><path fill="#8B98A6" fill-rule="evenodd" d="M12 16.25c.41 0 .75.33.75.75v5c0 .41-.34.75-.75.75 -.42 0-.75-.34-.75-.75v-5c0-.42.33-.75.75-.75Z"/><path fill="#5E94FF" d="M5.5 1.25c-.42 0-.75.33-.75.75v15c0 .41.33.75.75.75h13c.41 0 .75-.34.75-.75V2c0-.42-.34-.75-.75-.75h-13Z"/><g fill="#ECEFF1" fill-rule="evenodd"><path d="M9.5 4.25c.41 0 .75.33.75.75v9c0 .41-.34.75-.75.75 -.42 0-.75-.34-.75-.75V5c0-.42.33-.75.75-.75Z"/><path d="M8.75 5c0-.42.33-.75.75-.75h3c1.51 0 2.75 1.23 2.75 2.75v1c0 1.51-1.24 2.75-2.75 2.75h-3c-.42 0-.75-.34-.75-.75V5Zm1.5.75v3.5h2.25c.69 0 1.25-.56 1.25-1.25V7c0-.7-.56-1.25-1.25-1.25h-2.25Z"/></g></svg>