<svg viewBox="0 0 24 24" xmlns="http://www.w3.org/2000/svg"><g fill="#5E94FF" fill-rule="evenodd"><path d="M2 1.25c-.42 0-.75.33-.75.75v20c0 .41.33.75.75.75h20c.41 0 .75-.34.75-.75V2c0-.42-.34-.75-.75-.75H2Z"/><path fill="#ECEFF1" d="M8.818 10.25c-.73 0-1.39.45-1.64 1.13l-.89 2.35c-.09.23-.06.48.08.69 .14.2.37.32.61.32h9c.24 0 .47-.13.61-.33 .14-.21.17-.47.08-.7l-.64-1.71c-.41-1.08-1.43-1.79-2.58-1.79H8.76Z"/><path fill="#CFD8DC" d="M6 13.25c-.97 0-1.75.78-1.75 1.75v3c0 .41.33.75.75.75h5 7 2c.41 0 .75-.34.75-.75v-2c0-1.52-1.24-2.75-2.75-2.75H6Z"/><g fill="#ECEFF1"><path d="M15.5 16.25c-1.25 0-2.25 1-2.25 2.25 0 1.24 1 2.25 2.25 2.25 1.24 0 2.25-1.01 2.25-2.25 0-1.25-1.01-2.25-2.25-2.25Z"/><path d="M8.5 16.25c-1.25 0-2.25 1-2.25 2.25 0 1.24 1 2.25 2.25 2.25 1.24 0 2.25-1.01 2.25-2.25 0-1.25-1.01-2.25-2.25-2.25Z"/><path d="M9.25 4c0-.42.33-.75.75-.75h2.5c1.24 0 2.25 1 2.25 2.25 0 1.24-1.01 2.25-2.25 2.25h-1.75V9c0 .41-.34.75-.75.75 -.42 0-.75-.34-.75-.75V4Zm1.5 2.25h1.75c.41 0 .75-.34.75-.75 0-.42-.34-.75-.75-.75h-1.75v1.5Z"/></g></g></svg>