<svg viewBox="0 0 24 24" xmlns="http://www.w3.org/2000/svg"><path fill="#5E94FF" d="M12 1.25C6.06 1.25 1.25 6.06 1.25 12c0 5.93 4.81 10.75 10.75 10.75 5.93 0 10.75-4.82 10.75-10.75 0-5.94-4.82-10.75-10.75-10.75Z"/><g fill="#8BC94D" fill-rule="evenodd"><path d="M12.74 1.27c-.25-.02-.5-.03-.75-.03 -5.94 0-10.75 4.81-10.75 10.75 0 .14 0 .28 0 .42l.35.21c.01 0 .02.01.03.01l5.28 2.82c1.39.74 2.98-.6 2.48-2.1l-.94-2.82 1.66-.34c.16-.04.31-.13.42-.25l2.13-2.5c.12-.15.18-.33.17-.51l-.14-5v-.72Z"/><path d="M17.37 21.31l-2.85-2.843c-.15-.15-.34-.22-.54-.22h-4c-.2 0-.39.07-.54.21l-2.85 2.84c1.58.91 3.41 1.43 5.37 1.43 1.95 0 3.79-.53 5.37-1.44Z"/><path d="M21.37 6.73l-.84.66 -4 2.99c-.13.09-.22.21-.27.36l-1 3c-.09.26-.02.56.18.76l4.58 4.587c1.67-1.9 2.69-4.39 2.69-7.12 0-1.92-.5-3.71-1.38-5.27Z"/></g><g fill="#ECEFF1"><path d="M15.88 8.42s0 0 .61-.43l.61.42c-.14.2-.38.32-.62.32 -.25 0-.48-.13-.62-.33Z"/><path d="M15.88 8.42l.61-.43c.61.42.61.42.61.42l0-.01 0-.01 .01-.03c.01-.03.03-.06.06-.1 .05-.09.13-.21.23-.36 .19-.3.44-.71.7-1.15 .25-.45.52-.94.72-1.4 .18-.44.37-.95.37-1.4 0-1.52-1.24-2.75-2.75-2.75 -1.52 0-2.75 1.23-2.75 2.75 0 .44.18.96.37 1.39 .2.46.46.95.72 1.39 .25.44.51.85.7 1.14 .09.14.17.26.23.35 .02.04.05.07.06.09l.01.02 0 0 0 0Z"/></g></svg>