<svg viewBox="0 0 24 24" xmlns="http://www.w3.org/2000/svg"><g fill="#CFD8DC"><path d="M9.74 6.94c-.02-.25-.17-.48-.38-.6 -.22-.13-.49-.13-.71-.02l-7 3.5c-.26.12-.42.38-.42.67v3c0 .41.33.75.75.75h7.5c.2 0 .4-.09.55-.25 .14-.16.21-.36.19-.57l-.51-6.51Z"/><path d="M14.25 6.94c.01-.25.16-.48.37-.6 .21-.13.48-.13.7-.02l7 3.5c.25.12.41.38.41.67v3c0 .41-.34.75-.75.75h-7.5c-.21 0-.41-.09-.56-.25 -.15-.16-.22-.36-.2-.57l.5-6.51Z"/><path d="M11.17 18.66c-.16-.31-.5-.48-.84-.4l-4.5 1c-.35.07-.59.38-.59.73v2c0 .41.33.75.75.75h6c.25 0 .5-.14.63-.36 .13-.23.14-.5.03-.73l-1.5-3Z"/><path d="M12.82 18.66c.15-.31.49-.48.83-.4l4.5 1c.34.07.58.38.58.73v2c0 .41-.34.75-.75.75h-6c-.26 0-.51-.14-.64-.36 -.14-.23-.15-.5-.04-.73l1.5-3Z"/></g><path fill="#5E94FF" d="M12 1.25c-.9 0-1.72.5-2.12 1.3l-1.56 3.1c-.07.13-.1.28-.08.42l1.87 15c.11.94.91 1.64 1.86 1.64 .94 0 1.75-.71 1.86-1.65L15.7 6.05c.01-.15-.01-.3-.08-.43l-1.56-3.11c-.41-.81-1.23-1.31-2.12-1.31Z"/></svg>