<svg viewBox="0 0 24 24" xmlns="http://www.w3.org/2000/svg"><path fill="#ECEFF1" d="M2.25 1.79c-.23-.09-.49-.05-.69.09 -.2.14-.32.36-.32.61v16c0 .31.19.59.49.7l7 2.5c.15.05.31.05.47.01l6.25-1.93 6.25 2.4c.23.08.49.05.69-.09 .2-.14.32-.38.32-.62v-16c0-.32-.2-.59-.49-.7l-6.5-2.5c-.16-.07-.33-.07-.49-.02L8.96 4.16 2.19 1.74Z"/><path fill="#8B98A6" fill-rule="evenodd" d="M17.67 11.67c.17.37.01.82-.36.99l-10.5 5c-.38.17-.83.01-1-.36 -.18-.38-.02-.83.35-1l10.5-5c.37-.18.82-.02.99.35Z"/><g fill="#EE4D4D"><path d="M16.38 12.42s0 0 .61-.43l.61.42c-.14.2-.38.32-.62.32 -.25 0-.48-.13-.62-.33Z"/><path d="M16.38 12.42l.61-.43c.61.42.61.42.61.42l0-.01 0-.01 .01-.03c.01-.03.03-.06.06-.1 .05-.09.13-.21.23-.36 .19-.3.44-.71.7-1.15 .25-.45.52-.94.72-1.4 .18-.44.37-.95.37-1.4 0-1.52-1.24-2.75-2.75-2.75 -1.52 0-2.75 1.23-2.75 2.75 0 .44.18.96.37 1.39 .2.46.46.95.72 1.39 .25.44.51.85.7 1.14 .09.14.17.26.23.35 .02.04.05.07.06.09l.01.02 0 0 0 0Z"/><path d="M5.88 17.42s0 0 .61-.43l.61.42c-.15.2-.38.32-.62.32 -.25 0-.48-.13-.62-.33Z"/><path d="M5.88 17.42l.61-.43c.61.42.61.42.61.42l0-.01 0-.01 .01-.03c.01-.03.03-.06.06-.1 .05-.09.13-.21.23-.36 .19-.3.44-.71.7-1.15 .25-.45.52-.94.72-1.4 .18-.44.37-.95.37-1.4 0-1.52-1.24-2.75-2.75-2.75 -1.52 0-2.75 1.23-2.75 2.75 0 .44.18.96.37 1.39 .2.46.46.95.72 1.39 .25.44.51.85.7 1.14 .09.14.17.26.23.35 .02.04.05.07.06.09l.01.02 0 0 0 0Z"/></g></svg>