<svg viewBox="0 0 24 24" xmlns="http://www.w3.org/2000/svg"><path fill="#CFD8DC" fill-rule="evenodd" d="M11.5 5.25c-.7 0-1.25.55-1.25 1.25v1c0 .41-.34.75-.75.75 -.42 0-.75-.34-.75-.75v-1c0-1.52 1.23-2.75 2.75-2.75h1c1.51 0 2.75 1.23 2.75 2.75v1c0 .41-.34.75-.75.75 -.42 0-.75-.34-.75-.75v-1c0-.7-.56-1.25-1.25-1.25h-1Z"/><path fill="#FF884D" d="M3 6.75c-.42 0-.75.33-.75.75v12c0 .41.33.75.75.75h18c.41 0 .75-.34.75-.75v-12c0-.42-.34-.75-.75-.75H3Z"/><g fill="#ECEFF1"><path d="M3 6.75c-.42 0-.75.33-.75.75v3c0 .41.33.75.75.75h1c1.51 0 2.75-1.24 2.75-2.75v-1c0-.42-.34-.75-.75-.75H3Z"/><path d="M21 6.75c.41 0 .75.33.75.75v3c0 .41-.34.75-.75.75h-1c-1.52 0-2.75-1.24-2.75-2.75v-1c0-.42.33-.75.75-.75h3Z"/><path d="M3 20.25c-.42 0-.75-.34-.75-.75v-3c0-.42.33-.75.75-.75h1c1.51 0 2.75 1.23 2.75 2.75v1c0 .41-.34.75-.75.75H3Z"/><path d="M21 20.25c.41 0 .75-.34.75-.75v-3c0-.42-.34-.75-.75-.75h-1c-1.52 0-2.75 1.23-2.75 2.75v1c0 .41.33.75.75.75h3Z"/><path d="M11.5 12.75c-.42 0-.75.33-.75.75v3c0 .41.33.75.75.75h4c.41 0 .75-.34.75-.75v-3c0-.42-.34-.75-.75-.75h-4Z"/></g><path fill="#CFD8DC" d="M8.5 9.75c-.42 0-.75.33-.75.75v3c0 .41.33.75.75.75h4c.41 0 .75-.34.75-.75v-3c0-.42-.34-.75-.75-.75h-4Z"/></svg>