<svg viewBox="0 0 24 24" xmlns="http://www.w3.org/2000/svg"><g fill="#5E94FF" fill-rule="evenodd"><path d="M11.25 2c0-.42.33-.75.75-.75 3.17 0 5.75 2.57 5.75 5.75 0 3.17-2.58 5.75-5.75 5.75 -3.18 0-5.75-2.58-5.75-5.75 0-.42.33-.75.75-.75 .41 0 .75.33.75.75 0 2.34 1.9 4.25 4.25 4.25 2.34 0 4.25-1.91 4.25-4.25 0-2.35-1.91-4.25-4.25-4.25 -.42 0-.75-.34-.75-.75Z"/><path fill="#8B98A6" d="M12 3.25c.41 0 .75.33.75.75v2.25H15c.41 0 .75.33.75.75 0 .41-.34.75-.75.75h-3c-.42 0-.75-.34-.75-.75V4c0-.42.33-.75.75-.75Z"/><path d="M6.46 6.46c.21-.22.53-.28.8-.17l2.5 1c.38.15.57.59.41.97 -.16.38-.6.57-.98.41l-2.05-.82L5.48 9.5c-.3.29-.77.29-1.07 0 -.3-.3-.3-.77 0-1.07l2-2Z"/></g><path fill="#5E94FF" d="M2 14.25c-.42 0-.75.33-.75.75v7c0 .41.33.75.75.75h18.5c1.24 0 2.25-1.01 2.25-2.25v-.78c0-.69-.32-1.33-.85-1.76l-3.89-3.12c-.49-.4-1.1-.61-1.72-.61H1.99Z"/><g fill="#ECEFF1" fill-rule="evenodd"><path d="M22.52 18.75c-.15-.31-.36-.58-.63-.79L18 14.84c-.49-.4-1.1-.61-1.72-.61H9.42l.97 1.21 0 .01 2.5 3c.14.17.35.26.57.26h9.02Z"/><path d="M8.4 14.25H1.99c-.42 0-.75.33-.75.75v3.75h8.75c.27 0 .53-.16.66-.4 .13-.25.11-.54-.04-.77l-2.23-3.34Z"/></g></svg>