<svg viewBox="0 0 24 24" xmlns="http://www.w3.org/2000/svg"><g fill="#CFD8DC"><path d="M4.5 6.75c-.97 0-1.75.78-1.75 1.75V11c0 .41.33.75.75.75h5c.41 0 .75-.34.75-.75V8.5c0-.97-.79-1.75-1.75-1.75h-3Z"/><path d="M16 6.75c-.97 0-1.75.78-1.75 1.75V11c0 .41.33.75.75.75h5.5c.41 0 .75-.34.75-.75V8.5c0-.97-.79-1.75-1.75-1.75H16Z"/><g fill="#CFD8DC" fill-rule="evenodd"><path d="M2 13.25c.41 0 .75.33.75.75v2.5c0 .41-.34.75-.75.75 -.42 0-.75-.34-.75-.75V14c0-.42.33-.75.75-.75Z"/><path d="M13.5 13.25c.41 0 .75.33.75.75v2.5c0 .41-.34.75-.75.75 -.42 0-.75-.34-.75-.75V14c0-.42.33-.75.75-.75Z"/><path d="M10 13.25c.41 0 .75.33.75.75v2.5c0 .41-.34.75-.75.75 -.42 0-.75-.34-.75-.75V14c0-.42.33-.75.75-.75Z"/><path d="M22 13.25c.41 0 .75.33.75.75v2.5c0 .41-.34.75-.75.75 -.42 0-.75-.34-.75-.75V14c0-.42.33-.75.75-.75Z"/></g></g><g fill="#5E94FF"><path d="M3 10.25c-.97 0-1.75.78-1.75 1.75v2c0 .41.33.75.75.75h8c.41 0 .75-.34.75-.75v-2c0-.97-.79-1.75-1.75-1.75H3Z"/><path d="M14.5 10.25c-.97 0-1.75.78-1.75 1.75v2c0 .41.33.75.75.75H22c.41 0 .75-.34.75-.75v-2c0-.97-.79-1.75-1.75-1.75h-6.5Z"/></g></svg>