<svg viewBox="0 0 24 24" xmlns="http://www.w3.org/2000/svg"><path fill="#8B98A6" fill-rule="evenodd" d="M12 18.25c.41 0 .75.33.75.75v3c0 .41-.34.75-.75.75 -.42 0-.75-.34-.75-.75v-3c0-.42.33-.75.75-.75Z"/><path fill="#8B98A6" d="M12 1.25C9.92 1.25 8.25 2.92 8.25 5v1.5c0 .41.33.75.75.75h6c.41 0 .75-.34.75-.75V5c0-2.08-1.68-3.75-3.75-3.75Z"/><path fill="#FFC44D" d="M12 4.25C9.37 4.25 7.25 6.37 7.25 9v6c0 2.62 2.12 4.75 4.75 4.75 2.62 0 4.75-2.13 4.75-4.75V9c0-2.63-2.13-4.75-4.75-4.75Z"/><path fill="#8B98A6" fill-rule="evenodd" d="M16.41 7.25H7.57c-.19.46-.3.97-.33 1.5h9.48c-.03-.53-.15-1.04-.33-1.5Zm.33 4h-9.5v1.5h9.5v-1.5Zm-.01 4H7.24c.02.52.14 1.03.32 1.5h8.83c.18-.47.29-.98.32-1.5Z"/><g fill="#CFD8DC"><path d="M16 7.25c-.42 0-.75.33-.75.75v4c0 2.07 1.67 3.75 3.75 3.75 2.07 0 3.75-1.68 3.75-3.75v-.5c0-2.35-1.91-4.25-4.25-4.25H16Z"/><path d="M8 7.25c.41 0 .75.33.75.75v4c0 2.07-1.68 3.75-3.75 3.75 -2.08 0-3.75-1.68-3.75-3.75v-.5c0-2.35 1.9-4.25 4.25-4.25H8Z"/></g></svg>