<svg viewBox="0 0 24 24" xmlns="http://www.w3.org/2000/svg"><path fill="#A2ADB8" fill-rule="evenodd" d="M9.32 1.66c.18-.38.63-.53 1-.34l1.66.83 1.66-.84c.37-.19.82-.04 1 .33 .18.37.03.82-.34 1l-1.59.79v2.53c0 .41-.34.75-.75.75 -.42 0-.75-.34-.75-.75V3.42l-1.59-.8c-.38-.19-.53-.64-.34-1.01Z"/><g fill="#5E94FF"><path d="M21.75 5.07c0-2-2.05-3.33-3.87-2.52L11.69 5.3c-.28.12-.45.38-.45.68v7c0 .41.33.75.75.75h5c2.62 0 4.75-2.13 4.75-4.76V5.04Z"/><path d="M2.25 5.07c0-2 2.04-3.33 3.86-2.52l6.18 2.75c.27.12.44.38.44.68v7c0 .41-.34.75-.75.75h-5c-2.63 0-4.75-2.13-4.75-4.76V5.04Z"/></g><g fill="#7EA9FF"><path d="M15.916 22.62c-.28.18-.65.16-.91-.06l-2.11-1.81c-1.06-.91-1.66-2.22-1.66-3.61v-4.17c0-.42.33-.75.75-.75h4.45c1.83 0 3.39 1.32 3.69 3.13l.36 2.21c.17 1.06-.29 2.14-1.19 2.74l-3.43 2.28Z"/><path d="M8.08 22.62c.27.18.64.16.9-.06l2.1-1.81c1.05-.91 1.65-2.22 1.65-3.61v-4.17c0-.42-.34-.75-.75-.75H7.52c-1.84 0-3.4 1.32-3.7 3.13l-.37 2.21c-.18 1.06.28 2.14 1.18 2.74l3.42 2.28Z"/></g><g fill="#ECEFF1"><path d="M7.5 6.25c-1.25 0-2.25 1-2.25 2.25 0 1.24 1 2.25 2.25 2.25 1.24 0 2.25-1.01 2.25-2.25 0-1.25-1.01-2.25-2.25-2.25Z"/><path d="M16.5 6.25c-1.25 0-2.25 1-2.25 2.25 0 1.24 1 2.25 2.25 2.25 1.24 0 2.25-1.01 2.25-2.25 0-1.25-1.01-2.25-2.25-2.25Z"/></g></svg>