<svg viewBox="0 0 24 24" xmlns="http://www.w3.org/2000/svg"><path fill="#FFC44D" d="M12 1.25C7.01 1.25 3.25 6.22 3.25 12c0 2.84.58 5.52 1.99 7.5 1.43 2.02 3.67 3.24 6.75 3.24s5.31-1.23 6.75-3.25c1.4-1.99 1.99-4.66 1.99-7.51 0-5.78-3.77-10.75-8.75-10.75Z"/><g fill="#ECEFF1" fill-rule="evenodd"><path d="M20.75 11.96l-.29-.23c-.02-.02-.03-.03-.05-.04l-.9-.6c-.93-.62-2.13-.62-3.06 0l-.79.52c-.42.28-.97.28-1.39 0l-.79-.53c-.93-.62-2.13-.62-3.06 0l-.79.52c-.42.28-.97.28-1.39 0l-.79-.53c-.93-.62-2.13-.62-3.06 0l-.9.59c-.02.01-.04.02-.05.03l-.29.22c-.01.01-.01.02-.01.03 0 .61.02 1.21.08 1.8l1.1-.86 .86-.58c.41-.28.96-.28 1.38 0l.78.52c.92.61 2.12.61 3.05 0l.78-.53c.41-.28.96-.28 1.38 0l.78.52c.92.61 2.12.61 3.05 0l.78-.53c.41-.28.96-.28 1.38 0l.86.57 1.1.85c.05-.59.08-1.2.08-1.81 0-.02 0-.03 0-.04Z"/><g fill="#5E94FF"><path d="M19.63 6.75H4.35c-.22.47-.41.98-.57 1.5h16.39c-.16-.52-.35-1.03-.57-1.5Z"/><path d="M20.359 15.75H3.63c.11.51.26 1.01.43 1.5H19.9c.17-.49.32-.99.43-1.5Z"/></g></g></svg>