<svg viewBox="0 0 24 24" xmlns="http://www.w3.org/2000/svg"><path fill="#8BC94D" fill-rule="evenodd" d="M12.03 11.25c.41 0 .75.33.75.75v3.96c0 .41-.34.75-.75.75 -.42 0-.75-.34-.75-.75v-3.97c0-.42.33-.75.75-.75Z"/><path fill="#FF884D" d="M8.5 15.25c-.23 0-.43.09-.58.26 -.15.16-.21.39-.17.6l1 6c.06.36.37.62.73.62h4.99c.36 0 .67-.27.73-.63l1-6c.03-.22-.03-.44-.17-.61 -.15-.17-.36-.27-.58-.27h-7Z"/><g fill="#CFD8DC" fill-rule="evenodd"><path d="M6.25 22c0-.42.33-.75.75-.75h10c.41 0 .75.33.75.75 0 .41-.34.75-.75.75H7c-.42 0-.75-.34-.75-.75Z"/><path fill="#FF884D" d="M6.25 16c0-.42.33-.75.75-.75h10c.41 0 .75.33.75.75 0 .41-.34.75-.75.75H7c-.42 0-.75-.34-.75-.75Z"/></g><g fill="#EE4D4D"><path d="M12 2l.38-.65 0 0 0 0 0 0 .02.01c.02.01.04.03.08.05 .07.04.17.11.29.19 .19.13.44.31.72.53 .35-.03.66-.03.9-.03 .14 0 .26 0 .35 0 .04 0 .07 0 .09 0l.02 0 0 0 0 0 0 0 -.06.74c.68-.31.68-.31.68-.31l0 0 0 0 0 .01c0 .01.01.02.02.05 .01.04.04.1.07.18 .06.15.14.38.23.66 .17.53.37 1.26.5 2.08 .31.67.51 1.42.51 2.22 0 2.71-2.21 4.91-4.92 4.91 -2.72 0-4.92-2.21-4.92-4.92 0-.81.2-1.56.51-2.23 .12-.83.32-1.56.5-2.09 .09-.28.17-.51.23-.67 .03-.08.05-.15.07-.19 0-.03.01-.04.02-.06l0-.02 0-.01 0-.01 .68.3 -.06-.75 0-.01 0-.01 0-.01 .02-.01c.02-.01.05-.01.09-.01 .08-.01.2-.01.35-.01 .23-.01.54 0 .9.02 .28-.23.53-.41.72-.54 .12-.09.22-.16.29-.2 .03-.03.06-.05.08-.06l.02-.02 0-.01 0-.01 0-.01 .38.64Z"/><path d="M9.08 2.15s-.01 0 .05.74c-.69-.31-.69-.31-.69-.31 .11-.26.35-.43.63-.45Z"/><path d="M14.868 2.9c.05-.75.05-.75.05-.75 .27.01.51.18.63.44l-.69.3Z"/><path d="M11.61 1.35s0 0 .38.64c.38-.65.38-.65.38-.65 -.24-.15-.54-.15-.78 0Z"/></g></svg>