<svg viewBox="0 0 24 24" xmlns="http://www.w3.org/2000/svg"><path fill="#FFC44D" d="M18 1.25c-2.63 0-4.75 2.12-4.75 4.75v.31l4.43 4.43h.31c2.62 0 4.75-2.13 4.75-4.75 0-2.63-2.13-4.75-4.75-4.75Z"/><path fill="#ECEFF1" d="M6 5.25c-.21 0-.41.08-.55.23 -.15.15-.22.35-.21.56l1 16c.02.39.35.7.74.7h10c.39 0 .72-.31.74-.71l1-16c.01-.21-.07-.41-.21-.57 -.15-.16-.34-.24-.55-.24h-12Z"/><g fill="#FF884D" fill-rule="evenodd"><path d="M18.53 9.42c-.49 0-.98.14-1.44.43l-1.22.69c-1.08.61-2.42.47-3.34-.35 -1.74-1.54-4.37-1.47-6 .17l-.68.67c-.1.09-.2.2-.29.3L6.22 22c.02.39.35.7.74.7h9.99c.39 0 .72-.31.74-.71l.78-12.63Z"/><path fill="#ECEFF1" d="M5.45 5.48c.14-.16.33-.24.54-.24h12c.2 0 .4.08.54.23 .14.15.21.35.2.56l-1 16c-.03.39-.36.7-.75.7h-10c-.4 0-.73-.31-.75-.71l-1-16c-.02-.21.06-.41.2-.57Zm1.34 1.26l.9 14.5h8.59l.9-14.5H6.77Z"/></g></svg>