<svg viewBox="0 0 24 24" xmlns="http://www.w3.org/2000/svg"><path fill="#FF884D" fill-rule="evenodd" d="M5.25 2c0-.42.33-.75.75-.75h3c.34 0 .64.23.72.56l.99 4c.1.4-.15.8-.55.9 -.41.1-.81-.15-.91-.55l-.86-3.44H5.97c-.42 0-.75-.34-.75-.75Z"/><path fill="#CFD8DC" d="M5.5 5.25c-.42 0-.75.33-.75.75v16c0 .41.33.75.75.75h13c.41 0 .75-.34.75-.75V6c0-.42-.34-.75-.75-.75h-13Z"/><path fill="#FF884D" d="M12 12.25c-2.08 0-3.75 1.67-3.75 3.75 0 2.07 1.67 3.75 3.75 3.75 2.07 0 3.75-1.68 3.75-3.75 0-2.08-1.68-3.75-3.75-3.75Z"/><path fill="#8BC94D" d="M14 9.25c-1.52 0-2.75 1.23-2.75 2.75v1c0 .41.33.75.75.75h2c1.51 0 2.75-1.24 2.75-2.75v-1c0-.42-.34-.75-.75-.75h-2Z"/></svg>