<svg viewBox="0 0 24 24" xmlns="http://www.w3.org/2000/svg"><path fill="#FFC44D" d="M7 3.25C4.37 3.25 2.25 5.37 2.25 8c0 2.62 2.12 4.75 4.75 4.75 .19 0 .38-.08.53-.22l3.99-4c.14-.15.21-.34.21-.54 0-2.63-2.13-4.75-4.75-4.75Z"/><path fill="#ECEFF1" d="M7 7.25c-.21 0-.41.08-.56.24 -.15.15-.22.35-.2.56l1 13c.03.39.35.69.74.69h10c.39 0 .71-.31.74-.7l1-13c.01-.21-.06-.42-.2-.57 -.15-.16-.35-.25-.56-.25h-12Z"/><path fill="#8B98A6" fill-rule="evenodd" d="M15.28 2.77c.09-.32.38-.53.71-.53h4c.41 0 .75.33.75.75 0 .41-.34.75-.75.75h-3.45L12.7 16.21c-.13.39-.55.61-.94.49 -.4-.13-.62-.55-.5-.94l4-13Z"/></svg>