<svg viewBox="0 0 24 24" xmlns="http://www.w3.org/2000/svg"><path fill="#8B98A6" fill-rule="evenodd" d="M11.51 2.42c.27-.24.68-.24.96 0l6 5c.31.26.36.73.09 1.05 -.27.31-.74.36-1.06.09l-5.52-4.6 -5.52 4.59c-.32.26-.8.22-1.06-.1 -.27-.32-.23-.8.09-1.06l6-5Z"/><path fill="#ECEFF1" d="M3 7.25c-.97 0-1.75.78-1.75 1.75v11c0 .96.78 1.75 1.75 1.75h18c.96 0 1.75-.79 1.75-1.75V9c0-.97-.79-1.75-1.75-1.75H3Z"/><g fill="#CFD8DC" fill-rule="evenodd"><path d="M9.25 16.25v5.5h-1.5v-5.5h1.5Z"/><path d="M16.25 14.25v7.5h-1.5v-7.5h1.5Z"/></g><g fill="#EE4D4D"><path d="M8.5 12.25c-1.52 0-2.75 1.23-2.75 2.75 0 1.51 1.23 2.75 2.75 2.75 1.51 0 2.75-1.24 2.75-2.75 0-1.52-1.24-2.75-2.75-2.75Z"/><path d="M15.5 10.25c-1.52 0-2.75 1.23-2.75 2.75 0 1.51 1.23 2.75 2.75 2.75 1.51 0 2.75-1.24 2.75-2.75 0-1.52-1.24-2.75-2.75-2.75Z"/></g></svg>