<svg viewBox="0 0 24 24" xmlns="http://www.w3.org/2000/svg"><path fill="#8BC94D" d="M5.64 15.19c1.72 1.88 4.44 2.05 6.35.52 1.9 1.53 4.62 1.36 6.35-.53 1.86-2.04 1.86-5.32 0-7.36l-5.8-6.35c-.15-.16-.35-.25-.56-.25 -.22 0-.42.08-.56.24L5.62 7.8c-1.87 2.03-1.87 5.31 0 7.35Z"/><g fill="#A2D471" fill-rule="evenodd"><path d="M12 14.25c.41 0 .75.33.75.75v7c0 .41-.34.75-.75.75 -.42 0-.75-.34-.75-.75v-7c0-.42.33-.75.75-.75Z"/><path d="M12 7.25c.41 0 .75.33.75.75v8c0 .41-.34.75-.75.75 -.42 0-.75-.34-.75-.75V8c0-.42.33-.75.75-.75Z"/><path d="M15.62 10.584c.22.34.13.81-.21 1.04l-3 2c-.35.22-.82.13-1.05-.21 -.23-.35-.14-.82.2-1.04l3-2c.34-.23.81-.14 1.04.2Z"/><path d="M8.37 8.58c-.23.34-.14.81.2 1.04l2.99 2c.34.22.81.13 1.04-.21 .22-.35.13-.82-.21-1.04L9.38 8.36c-.35-.23-.82-.14-1.05.2Z"/></g></svg>