<svg viewBox="0 0 24 24" xmlns="http://www.w3.org/2000/svg"><g fill="#CFD8DC" fill-rule="evenodd"><path d="M7.5 13.25c.41 0 .75.33.75.75v3c0 .41-.34.75-.75.75 -.97 0-1.75.78-1.75 1.75 0 .96.78 1.75 1.75 1.75 .96 0 1.75-.79 1.75-1.75 0-.42.33-.75.75-.75 .41 0 .75.33.75.75 0 1.79-1.46 3.25-3.25 3.25 -1.8 0-3.25-1.46-3.25-3.25 0-1.54 1.06-2.83 2.5-3.17v-2.34c0-.42.33-.75.75-.75Z"/><path d="M17 13.25c.41 0 .75.33.75.75v3c0 .41-.34.75-.75.75 -.97 0-1.75.78-1.75 1.75 0 .96.78 1.75 1.75 1.75 .96 0 1.75-.79 1.75-1.75 0-.42.33-.75.75-.75 .41 0 .75.33.75.75 0 1.79-1.46 3.25-3.25 3.25 -1.8 0-3.25-1.46-3.25-3.25 0-1.54 1.06-2.83 2.5-3.17v-2.34c0-.42.33-.75.75-.75Z"/><path d="M7.5 7.25c.41 0 .75.33.75.75v3c0 .41-.34.75-.75.75 -.42 0-.75-.34-.75-.75V8c0-.42.33-.75.75-.75Z"/><path d="M17 7.25c.41 0 .75.33.75.75v3c0 .41-.34.75-.75.75 -.42 0-.75-.34-.75-.75V8c0-.42.33-.75.75-.75Z"/><path d="M7.5 1.25c.41 0 .75.33.75.75v3c0 .41-.34.75-.75.75 -.42 0-.75-.34-.75-.75V2c0-.42.33-.75.75-.75Z"/><path d="M17 1.25c.41 0 .75.33.75.75v3c0 .41-.34.75-.75.75 -.42 0-.75-.34-.75-.75V2c0-.42.33-.75.75-.75Z"/></g><g fill="#EE4D4D"><path d="M6.5 10.25c-.97 0-1.75.78-1.75 1.75v1c0 .96.78 1.75 1.75 1.75h2c.96 0 1.75-.79 1.75-1.75v-1c0-.97-.79-1.75-1.75-1.75h-2Z"/><path d="M16 10.25c-.97 0-1.75.78-1.75 1.75v1c0 .96.78 1.75 1.75 1.75h2c.96 0 1.75-.79 1.75-1.75v-1c0-.97-.79-1.75-1.75-1.75h-2Z"/><path d="M6.5 4.25c-.97 0-1.75.78-1.75 1.75v1c0 .96.78 1.75 1.75 1.75h2c.96 0 1.75-.79 1.75-1.75V6c0-.97-.79-1.75-1.75-1.75h-2Z"/><path d="M16 4.25c-.97 0-1.75.78-1.75 1.75v1c0 .96.78 1.75 1.75 1.75h2c.96 0 1.75-.79 1.75-1.75V6c0-.97-.79-1.75-1.75-1.75h-2Z"/></g></svg>