<svg viewBox="0 0 24 24" xmlns="http://www.w3.org/2000/svg"><g fill="#A2ADB8"><path d="M5 9.25c-.97 0-1.75.78-1.75 1.75v3c0 .96.78 1.75 1.75 1.75h4c1.51 0 2.75-1.24 2.75-2.75v-2c0-.97-.79-1.75-1.75-1.75H5Z"/><path d="M19 9.25c.96 0 1.75.78 1.75 1.75v3c0 .96-.79 1.75-1.75 1.75h-4c-1.52 0-2.75-1.24-2.75-2.75v-2c0-.97.78-1.75 1.75-1.75h5Z"/></g><g fill="#8B98A6" fill-rule="evenodd"><path d="M3.25 11c0-.97.78-1.75 1.75-1.75h5c.96 0 1.75.78 1.75 1.75v2c0 1.51-1.24 2.75-2.75 2.75H5c-.97 0-1.75-.79-1.75-1.75v-3ZM5 10.75c-.14 0-.25.11-.25.25v3c0 .13.11.25.25.25h4c.69 0 1.25-.56 1.25-1.25v-2c0-.14-.12-.25-.25-.25H5Z"/><path d="M20.75 11c0-.97-.79-1.75-1.75-1.75h-5c-.97 0-1.75.78-1.75 1.75v2c0 1.51 1.23 2.75 2.75 2.75h4c.96 0 1.75-.79 1.75-1.75v-3ZM19 10.75c.13 0 .25.11.25.25v3c0 .13-.12.25-.25.25h-4c-.7 0-1.25-.56-1.25-1.25v-2c0-.14.11-.25.25-.25h5Z"/><path d="M19.25 11c0-.42.33-.75.75-.75h2c.41 0 .75.33.75.75 0 .41-.34.75-.75.75h-2c-.42 0-.75-.34-.75-.75Z"/><path d="M10.25 11c0-.42.33-.75.75-.75h2c.41 0 .75.33.75.75 0 .41-.34.75-.75.75h-2c-.42 0-.75-.34-.75-.75Z"/><path d="M1.25 11c0-.42.33-.75.75-.75h2c.41 0 .75.33.75.75 0 .41-.34.75-.75.75H2c-.42 0-.75-.34-.75-.75Z"/></g></svg>