<svg viewBox="0 0 24 24" xmlns="http://www.w3.org/2000/svg"><defs><mask id="a"><path fill="#FFF" d="M0 0h24v24H0Z"/></mask></defs><g mask="url(#a)"><g fill="#A2D471"><path d="M10.33 16.03c-.14.23-.14.51 0 .75 .64 1.11 1.85 1.87 3.24 1.87 1.38 0 2.6-.76 3.24-1.88 .13-.24.13-.52 0-.76 -.65-1.12-1.86-1.88-3.25-1.88s-2.61.75-3.25 1.87Z"/><path d="M16.03 10.33c.23-.14.51-.14.75 0 1.11.64 1.87 1.85 1.87 3.24 0 1.38-.76 2.6-1.88 3.24 -.24.13-.52.13-.76 0 -1.12-.65-1.88-1.86-1.88-3.25s.75-2.61 1.87-3.25Z"/></g><g fill="#8BC94D" fill-rule="evenodd"><path d="M11 11c.29-.3.76-.3 1.06 0l7.07 7.071c.29.29.29.76 0 1.06 -.3.29-.77.29-1.07 0l-7.08-7.08c-.3-.3-.3-.77 0-1.07Z"/><path fill="#EE4D4D" d="M4.28 3.73c-.27.06-.48.27-.55.54l-.01 0 -.01 0 -.01 0 -.01.02c-.01.02-.02.05-.03.09 -.02.08-.05.19-.07.34 -.05.23-.1.53-.14.89 -.27.23-.5.45-.66.62 -.11.1-.19.19-.25.25 -.03.03-.06.05-.07.07l-.02.02 -.01 0 -.01 0 -.01 0c-.19.2-.24.5-.14.76 -.01-.01 0 0 .7-.27l-.71.26 0 0 0 0 0 0 0 .01c0 .01.01.02.02.05 .01.04.04.1.07.18 .06.15.16.37.3.63 .25.49.62 1.15 1.11 1.82 .25.69.64 1.37 1.21 1.94 1.92 1.92 5.03 1.92 6.95 0 1.92-1.93 1.92-5.04 0-6.96 -.58-.58-1.25-.96-1.95-1.22 -.67-.5-1.34-.87-1.83-1.12 -.27-.14-.49-.24-.64-.31 -.08-.04-.15-.06-.19-.08 -.03-.01-.04-.02-.06-.03l-.02-.01 -.01-.01 -.01-.01c-.01-.01-.01-.01-.27.69l.26-.71c-.26-.1-.56-.05-.77.13 0-.01 0 0 .49.56l-.5-.57 -.01 0 -.01 0 -.01 0 -.03.01c-.02.01-.05.03-.08.06 -.07.05-.15.13-.26.24 -.17.16-.39.38-.63.65 -.36.04-.67.08-.9.13 -.15.02-.27.05-.35.06 -.05 0-.08.01-.1.02l-.03 0 -.01 0 -.01 0 -.01 0ZM2.5 6.63c-.01 0-.01 0 .56.49l-.57-.5Z"/></g></g></svg>