<svg viewBox="0 0 24 24" xmlns="http://www.w3.org/2000/svg"><g fill-rule="evenodd"><path d="M1.5 2.47c0-.28.22-.5.5-.5h5.14c.16 0 .31.08.41.21l1.56 2.28h10.02c.27 0 .5.22.5.5v6.54h-1V5.45H8.84c-.17 0-.32-.09-.42-.22L6.85 2.94H2.47v16.14h1.88v1H1.96c-.28 0-.5-.23-.5-.5V2.43Z"/><path d="M13.66 12.5c-2.23 0-4.03 1.8-4.03 4.02 0 .07 0 .14 0 .21 0 .13-.05.27-.14.37 -.1.09-.23.15-.37.15h-.01c-1.04 0-1.89.84-1.89 1.88 0 1.03.84 1.88 1.88 1.88h9.52c.28 0 .55-.07.79-.18 .01-.01.02-.02.03-.02 1.16-.44 1.99-1.57 1.99-2.88 0-1.7-1.38-3.08-3.08-3.08 -.22 0-.43.02-.64.06 -.23.04-.45-.07-.55-.27 -.67-1.3-2.03-2.19-3.59-2.19Zm-5.02 3.8c.11-2.68 2.31-4.81 5.01-4.81 1.81 0 3.4.96 4.28 2.4 .15-.02.31-.03.47-.03 2.24 0 4.07 1.82 4.07 4.07 0 1.74-1.1 3.22-2.64 3.8 -.37.16-.78.26-1.21.26H9.09c-1.6 0-2.89-1.29-2.89-2.89 0-1.43 1.03-2.61 2.38-2.84Z"/></g></svg>