<svg viewBox="0 0 24 24" xmlns="http://www.w3.org/2000/svg"><g fill-rule="evenodd"><path d="M1.5 3.8c0-.28.22-.5.5-.5h6.19c.16 0 .32.08.41.22l1.75 2.63h11.63c.27 0 .5.22.5.5v13.33c0 .27-.23.5-.5.5h-20c-.28 0-.5-.23-.5-.5V3.78Zm1 .5v15.19h19V7.15H10.09c-.17-.001-.33-.09-.42-.23L7.91 4.28H2.48Z"/><path d="M6.85 13.33c.23.39.77 1.21 1.62 1.93 .87.74 2.04 1.37 3.51 1.37 1.47 0 2.64-.63 3.51-1.38 .84-.73 1.39-1.55 1.62-1.94 -.24-.4-.78-1.22-1.63-1.94 -.88-.75-2.05-1.38-3.52-1.38 -1.48 0-2.65.62-3.52 1.37 -.85.72-1.4 1.54-1.63 1.93Zm.97-2.7c.99-.85 2.38-1.62 4.16-1.62 1.78 0 3.17.76 4.16 1.61 .99.84 1.6 1.79 1.85 2.22 .17.29.17.64 0 .93 -.26.42-.87 1.37-1.86 2.22 -1 .84-2.39 1.61-4.17 1.61 -1.79 0-3.18-.77-4.17-1.62 -1-.85-1.61-1.8-1.86-2.23 -.18-.3-.18-.65 0-.94 .25-.43.86-1.38 1.85-2.23Z"/><path d="M11.99 12.4c-.52 0-.93.41-.93.92s.41.92.92.92 .92-.42.92-.93c0-.52-.42-.93-.93-.93Zm-1.93.92c0-1.07.86-1.93 1.92-1.93s1.92.86 1.92 1.92 -.87 1.92-1.93 1.92c-1.07 0-1.93-.87-1.93-1.93Z"/></g></svg>