<svg viewBox="0 0 24 24" xmlns="http://www.w3.org/2000/svg"><g fill-rule="evenodd"><path d="M1.5 3.9c0-.28.22-.5.5-.5h6.19c.16 0 .32.08.41.22l1.75 2.63h11.63c.27 0 .5.22.5.5v13.33c0 .27-.23.5-.5.5h-20c-.28 0-.5-.23-.5-.5V3.88Zm1 .5v15.19h19V7.25H10.09c-.17-.001-.33-.09-.42-.23L7.91 4.38H2.48Z"/><path d="M6.44 13.03l2.38-1.91 .62.78 -1.9 1.51 1.89 1.51 -.63.78 -2.39-1.91c-.12-.1-.19-.24-.19-.4 0-.16.06-.3.18-.4Z"/><path d="M17.55 13.819l-2.39 1.9 -.63-.79 1.89-1.52 -1.9-1.52 .62-.79 2.38 1.9c.11.09.18.23.18.39 0 .15-.07.29-.19.39Z"/><path d="M10.56 17.11l1.9-7.62 .97.24 -1.91 7.61 -.98-.25Z"/></g></svg>