<svg viewBox="0 0 24 24" xmlns="http://www.w3.org/2000/svg"><g fill-rule="evenodd"><path d="M1.5 3.8c0-.28.22-.5.5-.5h6.19c.16 0 .32.08.41.22l1.75 2.63h11.63c.27 0 .5.22.5.5v13.33c0 .27-.23.5-.5.5h-20c-.28 0-.5-.23-.5-.5V3.78Zm1 .5v15.19h19V7.15H10.09c-.17-.001-.33-.09-.42-.23L7.91 4.28H2.48Z"/><path d="M8.19 11.45c-1.04 0-1.89.84-1.89 1.88 0 1.03.84 1.88 1.88 1.88 1.03 0 1.88-.85 1.88-1.89s-.85-1.89-1.89-1.89ZM5.3 13.33c0-1.6 1.28-2.89 2.88-2.89 1.59 0 2.88 1.28 2.88 2.88 0 1.59-1.29 2.88-2.89 2.88s-2.89-1.29-2.89-2.89Z"/><path d="M17.69 13.83h-7.12v-1h7.61c.27 0 .5.22.5.5v3.33h-1v-2.84Z"/><path d="M14.833 15.71v-2.39h1v2.38h-1Z"/></g></svg>