<svg viewBox="0 0 24 24" xmlns="http://www.w3.org/2000/svg"><g fill-rule="evenodd"><path d="M1.5 3.8c0-.28.22-.5.5-.5h6.19c.16 0 .32.08.41.22l1.75 2.63h11.63c.27 0 .5.22.5.5v13.33c0 .27-.23.5-.5.5h-20c-.28 0-.5-.23-.5-.5V3.78Zm1 .5v15.19h19V7.15H10.09c-.17-.001-.33-.09-.42-.23L7.91 4.28H2.48Z"/><path d="M8.64 12.85c0-.28.22-.5.5-.5h5.71c.27 0 .5.22.5.5v3.8c0 .27-.23.5-.5.5H9.13c-.28 0-.5-.23-.5-.5v-3.81Zm1 .5v2.8h4.71v-2.81H9.63Z"/><path d="M9.59 11.9c0-1.33 1.07-2.41 2.4-2.41 1.32 0 2.4 1.07 2.4 2.4v.95c0 .27-.23.5-.5.5h-3.81c-.28 0-.5-.23-.5-.5v-.96Zm2.4-1.41c-.78 0-1.41.62-1.41 1.4v.45h2.8v-.46c0-.78-.63-1.41-1.41-1.41Z"/></g></svg>