<svg viewBox="0 0 24 24" xmlns="http://www.w3.org/2000/svg"><g fill-rule="evenodd"><path d="M1.5 2.45c0-.28.22-.5.5-.5h5.14c.16 0 .31.08.41.21l1.56 2.28h10.02c.27 0 .5.22.5.5V7.2h-1V5.43H8.84c-.17 0-.32-.09-.42-.22L6.85 2.92H2.47v16.14h5.69v1h-6.2c-.28 0-.5-.23-.5-.5V2.41Z"/><path d="M13.88 10.07c0-.28.22-.5.5-.5h3.8c.27 0 .5.22.5.49v3.3h3.3c.27 0 .5.22.5.49v3.8c0 .27-.23.5-.5.5h-3.31v3.3c0 .27-.23.5-.5.5h-3.81c-.28 0-.5-.23-.5-.5v-3.31h-3.31c-.28 0-.5-.23-.5-.5v-3.81c0-.28.22-.5.5-.5h3.3v-3.31Zm1 .5v3.3c0 .27-.23.5-.5.5h-3.31v2.8h3.3c.27 0 .5.22.5.5v3.3h2.8v-3.31c0-.28.22-.5.5-.5h3.3v-2.81h-3.31c-.28 0-.5-.23-.5-.5v-3.31h-2.81Z"/></g></svg>