<svg viewBox="0 0 24 24" xmlns="http://www.w3.org/2000/svg"><g fill-rule="evenodd"><path d="M1.5 3.8c0-.28.22-.5.5-.5h6.19c.16 0 .32.08.41.22l1.75 2.63h11.63c.27 0 .5.22.5.5v13.33c0 .27-.23.5-.5.5h-20c-.28 0-.5-.23-.5-.5V3.78Zm1 .5v15.19h19V7.15H10.09c-.17-.001-.33-.09-.42-.23L7.91 4.28H2.48Z"/><path d="M7.69 12.54c0-2.21 1.79-4 3.99-4h.14c2.2 0 4 1.79 4 3.99v2.69c0 1.59-1.29 2.88-2.89 2.88s-2.89-1.29-2.89-2.89v-2.53c0-.99.79-1.78 1.77-1.78s1.77.79 1.77 1.77v2.05h-1v-2.06c0-.44-.35-.78-.78-.78 -.44 0-.78.34-.78.77v2.52c0 1.03.84 1.88 1.88 1.88 1.03 0 1.88-.85 1.88-1.89v-2.7c0-1.66-1.35-3-3-3h-.15c-1.66 0-3 1.34-3 2.99v2.69h-1v-2.7Z"/></g></svg>