<svg viewBox="0 0 24 24" xmlns="http://www.w3.org/2000/svg"><g fill-rule="evenodd"><path d="M1.5 3.8c0-.28.22-.5.5-.5h6.19c.16 0 .32.08.41.22l1.75 2.63h11.63c.27 0 .5.22.5.5v13.33c0 .27-.23.5-.5.5h-20c-.28 0-.5-.23-.5-.5V3.78Zm1 .5v15.19h19V7.15H10.09c-.17-.001-.33-.09-.42-.23L7.91 4.28H2.48Z"/><path d="M7.87 12.46l2.38-1.91 .62.78 -1.9 1.51 1.89 1.51 -.63.78 -2.39-1.91c-.12-.1-.19-.24-.19-.4 0-.16.06-.3.18-.4Z"/><path d="M14.38 9.54c-.52 0-.93.41-.93.92v.47h-1v-.48c0-1.07.86-1.93 1.92-1.93s1.92.86 1.92 1.92v.62c0 .66-.34 1.29-.9 1.66l-.1.06c-.28.18-.45.49-.45.83v.62h-1v-.63c0-.67.33-1.3.89-1.67l.09-.07c.27-.19.44-.5.44-.84v-.63c0-.52-.42-.93-.93-.93Z"/><path d="M13.88 17.14v-.96h1v.95h-1Z"/></g></svg>