<svg viewBox="0 0 24 24" xmlns="http://www.w3.org/2000/svg"><g fill-rule="evenodd"><path d="M1.5 3.8c0-.28.22-.5.5-.5h6.19c.16 0 .32.08.41.22l1.75 2.63h11.63c.27 0 .5.22.5.5v13.33c0 .27-.23.5-.5.5h-20c-.28 0-.5-.23-.5-.5V3.78Zm1 .5v15.19h19V7.15H10.09c-.17-.001-.33-.09-.42-.23L7.91 4.28H2.48Z"/><path d="M10.57 9.54c-1.57 0-2.84 1.26-2.84 2.83 0 1.56 1.26 2.83 2.83 2.83 1.56 0 2.83-1.27 2.83-2.84 0-1.57-1.27-2.84-2.84-2.84Zm-3.84 2.83c0-2.12 1.71-3.84 3.83-3.84 2.11 0 3.83 1.71 3.83 3.83 0 2.11-1.72 3.83-3.84 3.83s-3.84-1.72-3.84-3.84Z"/><path d="M13.3 14.4l2.85 2.85 -.71.7 -2.86-2.86 .7-.71Z"/></g></svg>