<svg viewBox="0 0 24 24" xmlns="http://www.w3.org/2000/svg"><g fill-rule="evenodd"><path d="M1.5 3.8c0-.28.22-.5.5-.5h6.19c.16 0 .32.08.41.22l1.75 2.63h11.63c.27 0 .5.22.5.5v13.33c0 .27-.23.5-.5.5h-20c-.28 0-.5-.23-.5-.5V3.78Zm1 .5v15.19h19V7.15H10.09c-.17-.001-.33-.09-.42-.23L7.91 4.28H2.48Z"/><path d="M12 11.45c-1.04 0-1.89.84-1.89 1.88 0 1.03.84 1.88 1.88 1.88 1.03 0 1.88-.85 1.88-1.89s-.85-1.89-1.89-1.89Zm-2.89 1.88c0-1.6 1.28-2.89 2.88-2.89 1.59 0 2.88 1.28 2.88 2.88 0 1.59-1.29 2.88-2.89 2.88s-2.89-1.29-2.89-2.89Z"/><path d="M12.5 9.04v1.9h-1V9.03h1Z"/><path d="M7.71 12.83h1.9v1H7.7v-1Z"/><path d="M14.38 12.83h1.9v1h-1.91v-1Z"/><path d="M12.5 15.71v1.9h-1V15.7h1Z"/><path d="M9.32 9.94l1.34 1.34 -.71.7 -1.35-1.35 .7-.71Z"/><path d="M8.61 16.01l1.34-1.35 .7.7L9.3 16.7l-.71-.71Z"/><path d="M13.33 11.29l1.34-1.35 .7.7 -1.35 1.34 -.71-.71Z"/><path d="M14.03 14.66L15.37 16l-.71.7 -1.35-1.35 .7-.71Z"/></g></svg>