<svg viewBox="0 0 24 24" xmlns="http://www.w3.org/2000/svg"><g fill-rule="evenodd"><path d="M1.5 2.47c0-.28.22-.5.5-.5h5.14c.16 0 .31.08.41.21l1.56 2.28h10.02c.27 0 .5.22.5.5v2.73h-1V5.45H8.84c-.17 0-.32-.09-.42-.22L6.85 2.94H2.47v16.14h8.07v1H1.96c-.28 0-.5-.23-.5-.5V2.43Z"/><path d="M17.1 9.61c.08-.03.17-.03.25 0l4.76 1.26c.21.05.37.25.37.48v4.84c0 1.5-.76 2.9-2.01 3.74l-2.99 1.98c-.17.11-.39.11-.56 0l-2.99-1.99c-1.26-.84-2.01-2.24-2.01-3.75v-4.85c0-.23.15-.43.37-.49l4.76-1.27Zm-4.14 2.13v4.45c0 1.17.58 2.26 1.55 2.91l2.7 1.8 2.7-1.81c.97-.65 1.55-1.75 1.55-2.92v-4.46l-4.27-1.14 -4.27 1.13Z"/></g></svg>