<svg viewBox="0 0 24 24" xmlns="http://www.w3.org/2000/svg"><g fill-rule="evenodd"><path d="M1.5 3.8c0-.28.22-.5.5-.5h6.19c.16 0 .32.08.41.22l1.75 2.63h11.63c.27 0 .5.22.5.5v13.33c0 .27-.23.5-.5.5h-20c-.28 0-.5-.23-.5-.5V3.78Zm1 .5v15.19h19V7.15H10.09c-.17-.001-.33-.09-.42-.23L7.91 4.28H2.48Z"/><path d="M11.86 8.56c.08-.03.18-.03.27 0l3.33.95c.21.06.36.25.36.48v3.17c0 1.45-.71 2.81-1.89 3.66L12.27 18c-.18.12-.41.12-.59 0l-1.66-1.19c-1.19-.85-1.89-2.21-1.89-3.67V9.96c0-.23.14-.42.36-.49l3.33-.96Zm-2.7 1.81v2.8c0 1.13.54 2.19 1.46 2.84l1.36.97 1.36-.98c.91-.66 1.46-1.72 1.46-2.85v-2.81l-2.84-.81 -2.84.8Z"/></g></svg>