<svg viewBox="0 0 24 24" xmlns="http://www.w3.org/2000/svg"><g fill-rule="evenodd"><path d="M5 19.5v-11h1V19h9.5v1h-10c-.28 0-.5-.23-.5-.5Z"/><path d="M15.5 11.5h-10v-1h10v1Z"/><path d="M14.5 16c0-.28.22-.5.5-.5h2.7c.15 0 .3.07.4.2l.85 1.15h3.04c.27 0 .5.22.5.5v4.63c0 .27-.23.5-.5.5h-7c-.28 0-.5-.23-.5-.5v-6Zm1 .5v5h6v-3.64h-2.8c-.16 0-.31-.08-.41-.21l-.86-1.16h-1.95Z"/><path d="M14.5 7.5c0-.28.22-.5.5-.5h2.7c.15 0 .3.07.4.2l.85 1.15h3.04c.27 0 .5.22.5.5v4.63c0 .27-.23.5-.5.5h-7c-.28 0-.5-.23-.5-.5v-6Zm1 .5v5h6V9.36h-2.8c-.16 0-.31-.08-.41-.21l-.86-1.16h-1.95Z"/><path d="M1.5 2c0-.28.22-.5.5-.5h2.7c.15 0 .3.07.4.2l.85 1.15h3.04c.27 0 .5.22.5.5v4.63c0 .27-.23.5-.5.5h-7c-.28 0-.5-.23-.5-.5v-6Zm1 .5v5h6V3.86H5.7c-.16 0-.31-.08-.41-.21l-.86-1.16H2.48Z"/></g></svg>