<svg viewBox="0 0 24 24" xmlns="http://www.w3.org/2000/svg"><g fill-rule="evenodd"><path d="M1.5 2.9c0-.28.22-.5.5-.5h5.14c.16 0 .31.08.41.21l1.56 2.28h10.02c.27 0 .5.22.5.5v2.26h-1V5.88H8.84c-.17 0-.32-.09-.42-.22L6.85 3.37H2.47v16.14h5.19v1h-5.7c-.28 0-.5-.23-.5-.5V2.86Z"/><path d="M10.07 10.52c0-.28.22-.5.5-.5h11.42c.27 0 .5.22.5.5v10.47c0 .27-.23.5-.5.5H10.56c-.28 0-.5-.23-.5-.5V10.51Zm1 .5v9.47h10.42v-9.48H11.06Z"/><path d="M14.14 12.46c.16-.09.35-.08.51.02l4.28 2.85c.14.09.22.25.22.42 -.01.16-.1.32-.24.41l-4.29 2.67c-.16.09-.35.1-.51.01 -.16-.09-.26-.26-.26-.44v-5.54c0-.19.1-.36.26-.45Zm.73 1.37v3.69l2.86-1.79 -2.87-1.91Z"/></g></svg>