<svg viewBox="0 0 24 24" xmlns="http://www.w3.org/2000/svg"><g fill-rule="evenodd"><path d="M22.5 10c0-.28-.23-.5-.5-.5h-9c-.28 0-.5.22-.5.5v12c0 .27.22.5.5.5h9c.27 0 .5-.23.5-.5V10Zm-1 .5v11h-8v-11h8Z"/><path d="M13.5 2c0-.28-.23-.5-.5-.5H2c-.28 0-.5.22-.5.5v20c0 .27.22.5.5.5h11c.27 0 .5-.23.5-.5V2Zm-1 .5v19h-10v-19h10Z"/><path d="M10 7.5V6H9v1.5h1Z"/><path d="M10 12v-1.5H9V12h1Z"/><path d="M10 16.5V15H9v1.5h1Z"/><path d="M6 7.5V6H5v1.5h1Z"/><path d="M6 12v-1.5H5V12h1Z"/><path d="M6 16.5V15H5v1.5h1Z"/><path d="M19.5 15v-1.5h-1V15h1Z"/><path d="M19.5 19v-1.5h-1V19h1Z"/><path d="M16.5 15v-1.5h-1V15h1Z"/><path d="M16.5 19v-1.5h-1V19h1Z"/></g></svg>