<svg viewBox="0 0 24 24" xmlns="http://www.w3.org/2000/svg"><g fill-rule="evenodd"><path d="M1.64 21.64l19.99-20 .7.7 -20.01 20 -.71-.71Z"/><path d="M10.23 4.5c-.57 0-1.09.32-1.35.82l-.4.78c-.43.84-1.29 1.38-2.24 1.38H4.97c-.83 0-1.5.67-1.5 1.5v10c0 .27.22.5.5.5v1c-.83 0-1.5-.68-1.5-1.5v-10c0-1.39 1.11-2.5 2.5-2.5h1.26c.56 0 1.08-.33 1.34-.83l.39-.79c.42-.85 1.28-1.39 2.23-1.39h3.52c.94 0 1.81.53 2.23 1.38l.94 1.89 -.9.44 -.95-1.9c-.26-.51-.78-.83-1.35-.83h-3.53Zm9.82 4.26l-.92-.92 .7-.71 .91.91c.46.46.73 1.1.73 1.76v8.17c0 1.38-1.12 2.5-2.5 2.5h-12v-1h12c.82 0 1.5-.68 1.5-1.5V9.79c0-.4-.16-.78-.44-1.07Z"/><path d="M12 9.5c-1.94 0-3.5 1.56-3.5 3.5 0 .75.23 1.45.64 2.02l-.82.57c-.53-.74-.83-1.64-.83-2.6 0-2.49 2.01-4.5 4.5-4.5 1.06 0 2.04.36 2.81.98l-.63.78c-.6-.49-1.36-.77-2.19-.77Zm3.5 3.5c0-.52-.11-1-.31-1.44l.91-.42c.25.56.39 1.18.39 1.84 0 2.48-2.02 4.5-4.5 4.5 -.37 0-.62-.05-.86-.15 -.12-.05-.22-.11-.31-.16 -.02-.01-.03-.02-.05-.03 -.09-.05-.17-.1-.28-.15l.44-.9c.12.06.22.11.31.16 .01 0 .02.01.03.02 .09.05.15.08.21.1 .09.03.2.06.48.06 1.93 0 3.5-1.57 3.5-3.5Z"/></g></svg>