<svg viewBox="0 0 24 24" xmlns="http://www.w3.org/2000/svg"><g fill-rule="evenodd"><path d="M2.5 6c0-1.39 1.11-2.5 2.5-2.5h14c1.38 0 2.5 1.11 2.5 2.5v14c0 .18-.11.35-.27.44 -.17.08-.36.07-.52-.03l-4.38-2.92H4.98c-1.39 0-2.5-1.12-2.5-2.5v-9ZM5 4.5c-.83 0-1.5.67-1.5 1.5v9c0 .82.67 1.5 1.5 1.5h11.5c.09 0 .19.02.27.08l3.72 2.48V5.99c0-.83-.68-1.5-1.5-1.5h-14Z"/><path d="M7 10c-.28 0-.5.22-.5.5 0 .27.22.5.5.5 .27 0 .5-.23.5-.5 0-.28-.23-.5-.5-.5Zm-1.5.5C5.5 9.67 6.17 9 7 9c.82 0 1.5.67 1.5 1.5 0 .82-.68 1.5-1.5 1.5 -.83 0-1.5-.68-1.5-1.5Z"/><path d="M12 10c-.28 0-.5.22-.5.5 0 .27.22.5.5.5 .27 0 .5-.23.5-.5 0-.28-.23-.5-.5-.5Zm-1.5.5c0-.83.67-1.5 1.5-1.5 .82 0 1.5.67 1.5 1.5 0 .82-.68 1.5-1.5 1.5 -.83 0-1.5-.68-1.5-1.5Z"/><path d="M17 10c-.28 0-.5.22-.5.5 0 .27.22.5.5.5 .27 0 .5-.23.5-.5 0-.28-.23-.5-.5-.5Zm-1.5.5c0-.83.67-1.5 1.5-1.5 .82 0 1.5.67 1.5 1.5 0 .82-.68 1.5-1.5 1.5 -.83 0-1.5-.68-1.5-1.5Z"/></g></svg>