<svg viewBox="0 0 24 24" xmlns="http://www.w3.org/2000/svg"><path fill-rule="evenodd" d="M12.5 2.5C7.25 2.5 3 6.75 3 12c0 5.24 4.25 9.5 9.5 9.5 2.76 0 5.24-1.18 6.98-3.06 -4.5-.51-7.99-4.32-7.99-8.943 0-2.71 1.19-5.13 3.07-6.78 -.67-.15-1.37-.23-2.08-.23ZM2 12C2 6.2 6.7 1.5 12.5 1.5c1.15 0 2.27.18 3.32.53 .17.05.31.21.33.4 .02.18-.06.37-.22.48 -2.09 1.44-3.45 3.85-3.45 6.57 0 4.41 3.58 8 8 8 .18 0 .36.1.44.27 .08.16.06.37-.05.52 -1.92 2.54-4.965 4.19-8.41 4.19 -5.8 0-10.5-4.71-10.5-10.5Z"/></svg>