<svg viewBox="0 0 24 24" xmlns="http://www.w3.org/2000/svg"><g fill-rule="evenodd"><path d="M1.5 3.5c0-.28.22-.5.5-.5h6c.16 0 .32.08.41.22l1.85 2.77h11.73c.27 0 .5.22.5.5v14c0 .27-.23.5-.5.5h-20c-.28 0-.5-.23-.5-.5v-17Zm1 .5v16h19V7H10c-.17 0-.33-.09-.42-.23L7.72 3.99H2.48Z"/><path d="M8.63 10.15c.09-.11.22-.16.36-.16h6c.13 0 .27.05.36.15 .09.1.14.23.13.37l-.5 7c-.02.26-.24.46-.5.46h-5c-.27 0-.49-.21-.5-.47l-.5-7c-.01-.14.03-.28.13-.38Zm.9.84l.42 6h4.06l.42-6H9.5Z"/><path d="M16.5 11h-9v-1h9v1Z"/><path d="M12.5 9v1.5h-1V9h1Z"/></g></svg>