<svg viewBox="0 0 24 24" xmlns="http://www.w3.org/2000/svg"><g fill-rule="evenodd"><path d="M1.5 3.5c0-.28.22-.5.5-.5h18c.27 0 .5.22.5.5v5h-1V4h-17v15H8v1H2c-.28 0-.5-.23-.5-.5v-16Z"/><path d="M2 7h18v1H2V7Z"/><path d="M5.5 5V2h1v3h-1Z"/><path d="M15.5 5V2h1v3h-1Z"/><path d="M13.63 14.15c.09-.11.22-.16.36-.16h4c.13 0 .27.05.36.15 .09.1.14.23.13.37l-.34 5c-.02.26-.24.46-.5.46H14.3c-.27 0-.49-.21-.5-.47l-.34-5c-.01-.14.03-.28.13-.38Zm.89.84l.26 4h2.39l.26-4h-2.94Z"/><path d="M19.5 15h-7v-1h7v1Z"/><path d="M16.5 13v1.5h-1V13h1Z"/><path d="M16 10.5c-3.04 0-5.5 2.46-5.5 5.5 0 3.03 2.46 5.5 5.5 5.5 3.03 0 5.5-2.47 5.5-5.5 0-3.04-2.47-5.5-5.5-5.5ZM9.5 16c0-3.59 2.91-6.5 6.5-6.5 3.58 0 6.5 2.91 6.5 6.5 0 3.58-2.92 6.5-6.5 6.5 -3.59 0-6.5-2.92-6.5-6.5Z"/></g></svg>