<svg viewBox="0 0 24 24" xmlns="http://www.w3.org/2000/svg"><g fill-rule="evenodd"><path d="M1 4.5C1 3.11 2.11 2 3.5 2h17C21.88 2 23 3.11 23 4.5v11c0 1.38-1.12 2.5-2.5 2.5h-17C2.11 18 1 16.88 1 15.5v-11ZM3.5 3C2.67 3 2 3.67 2 4.5v11c0 .82.67 1.5 1.5 1.5h17c.82 0 1.5-.68 1.5-1.5v-11c0-.83-.68-1.5-1.5-1.5h-17Z"/><path d="M18 22H6v-1h12v1Z"/><path d="M22.5 14.5h-21v-1h21v1Z"/><path d="M8.5 17.5c0-.28.22-.5.5-.5h6c.27 0 .5.22.5.5v4c0 .27-.23.5-.5.5H9c-.28 0-.5-.23-.5-.5v-4Zm1 .5v3h5v-3h-5Z"/></g></svg>