<svg viewBox="0 0 24 24" xmlns="http://www.w3.org/2000/svg"><g fill-rule="evenodd"><path d="M17.14 12.14c.18-.19.49-.2.69-.02l1.5 1.38c.09.09.15.21.16.35 0 .13-.05.26-.15.36l-3.92 4.01c-.48.48-1.12.75-1.8.75h-.66c-.28 0-.5-.23-.5-.5v-.68c0-.67.26-1.3.73-1.77l3.91-3.92Zm.36 1.04l-3.58 3.57c-.29.28-.44.66-.44 1.06v.17h.15c.4 0 .79-.17 1.07-.46l3.55-3.65 -.77-.71Z"/><path d="M15.5 9.5c-3.32 0-6 2.68-6 6 0 3.31 2.68 6 6 6 3.31 0 6-2.69 6-6 0-3.32-2.69-6-6-6Zm-7 6c0-3.87 3.13-7 7-7 3.86 0 7 3.13 7 7 0 3.86-3.14 7-7 7 -3.87 0-7-3.14-7-7Z"/><path d="M1.5 2c0-.28.22-.5.5-.5h4.9c.16 0 .31.08.41.21l1.65 2.4h10.53c.27 0 .5.22.5.5V6.98h-1V5.11H8.69c-.17 0-.32-.09-.42-.22L6.61 2.48H2.47v17h4.5v1h-5c-.28 0-.5-.23-.5-.5v-18Z"/></g></svg>