<svg viewBox="0 0 24 24" xmlns="http://www.w3.org/2000/svg"><path fill-rule="evenodd" d="M20.13 4.85c-1.83-1.81-4.79-1.81-6.62 0L3.35 14.91c-1.15 1.13-1.15 2.98 0 4.11 1.15 1.14 3.02 1.14 4.17 0l8.53-8.46c.47-.48.47-1.24 0-1.71 -.48-.48-1.26-.48-1.74 0l-7.73 7.64 -.71-.72 7.72-7.65c.86-.86 2.27-.86 3.14 0 .87.86.87 2.26 0 3.12l-8.54 8.451c-1.55 1.52-4.04 1.52-5.59 0 -1.55-1.53-1.55-4.02 0-5.54L12.75 4.08c2.21-2.2 5.8-2.2 8.01-.001 2.21 2.19 2.21 5.75 0 7.95l-9.35 9.256 -.71-.72 9.34-9.26c1.82-1.81 1.82-4.73 0-6.54Z"/></svg>