<svg viewBox="0 0 24 24" xmlns="http://www.w3.org/2000/svg"><g fill-rule="evenodd"><path d="M2.67 3.61c.11-.1.26-.14.4-.12l6 1c.24.04.41.24.41.49v15c0 .14-.07.28-.18.38 -.12.09-.27.13-.41.11l-6-1c-.25-.05-.42-.25-.42-.5v-15c0-.15.06-.29.17-.39Zm.82.97v13.98l5 .83V5.4l-5-.84Z"/><path d="M15.32 3.61c-.12-.1-.27-.14-.41-.12l-6 1c-.25.04-.42.24-.42.49v15c0 .14.06.28.17.38 .11.09.26.13.4.11l6-1c.24-.05.41-.25.41-.5v-15c0-.15-.07-.29-.18-.39Zm-.83.97v13.98l-5 .83V5.4l5-.84Z"/><path d="M14.67 3.61c.11-.1.26-.14.4-.12l6 1c.24.04.41.24.41.49v15c0 .14-.07.28-.18.38 -.12.09-.27.13-.41.11l-6-1c-.25-.05-.42-.25-.42-.5v-15c0-.15.06-.29.17-.39Zm.82.97v13.98l5 .83V5.4l-5-.84Z"/></g></svg>