<svg viewBox="0 0 24 24" xmlns="http://www.w3.org/2000/svg"><g fill-rule="evenodd"><path d="M8 14.5c-1.39 0-2.5 1.11-2.5 2.5 0 1.38 1.11 2.5 2.5 2.5 1.38 0 2.5-1.12 2.5-2.5 0-1.39-1.12-2.5-2.5-2.5ZM4.5 17c0-1.94 1.56-3.5 3.5-3.5 1.93 0 3.5 1.56 3.5 3.5 0 1.93-1.57 3.5-3.5 3.5 -1.94 0-3.5-1.57-3.5-3.5Z"/><path d="M11.5 3.5v13.75h-1V3.5h1Z"/><path d="M10.5 3.64c0-.66.61-1.13 1.24-.98l7 1.75c.44.11.75.51.75.97v2.96c0 .65-.62 1.12-1.25.97l-7-1.75c-.45-.12-.76-.52-.76-.98V3.61Zm8 1.75l-7-1.75V6.6l7 1.75V5.38Z"/></g></svg>