<svg viewBox="0 0 24 24" xmlns="http://www.w3.org/2000/svg"><g fill-rule="evenodd"><path d="M6 14.5c-1.39 0-2.5 1.11-2.5 2.5 0 .92.5 1.73 1.25 2.16l-.51.86c-1.05-.61-1.75-1.74-1.75-3.04 0-1.94 1.56-3.5 3.5-3.5 1.29 0 2.42.7 3.03 1.74l-.87.5c-.44-.75-1.25-1.26-2.17-1.26Z"/><path d="M9.5 3.5v11.25h-1V3.5h1Z"/><path d="M17.5 14.5c-1.39 0-2.5 1.11-2.5 2.5 0 1.38 1.11 2.5 2.5 2.5 1.38 0 2.5-1.12 2.5-2.5 0-1.39-1.12-2.5-2.5-2.5ZM14 17c0-1.94 1.56-3.5 3.5-3.5 1.93 0 3.5 1.56 3.5 3.5 0 1.93-1.57 3.5-3.5 3.5 -1.94 0-3.5-1.57-3.5-3.5Z"/><path d="M21 6.5v10.75h-1V6.5h1Z"/><path d="M8.5 3.59c0-.63.55-1.1 1.17-.99l9.63 1.67 -.18.98L9.48 3.57v2.98l6.58 1.14 -.18.98 -6.59-1.15c-.48-.09-.83-.5-.83-.99V3.54Zm9.56 4.56l2.5.34 -.14.99 -2.5-.35 .13-1Z"/><path d="M2.64 20.64l17.99-18 .7.7 -18.01 18 -.71-.71Z"/></g></svg>