<svg viewBox="0 0 24 24" xmlns="http://www.w3.org/2000/svg"><g fill-rule="evenodd"><path d="M18.5 4c0-1.39-1.12-2.5-2.5-2.5H7C5.61 1.5 4.5 2.61 4.5 4v2.42c0 .5-.26.96-.67 1.24l-1.22.81c-.7.46-1.12 1.24-1.12 2.08v9.42c0 1.38 1.11 2.5 2.5 2.5h7v-1h-7c-.83 0-1.5-.68-1.5-1.5v-9.43c0-.51.25-.97.66-1.25l1.21-.82C5.05 8 5.47 7.22 5.47 6.38V3.95c0-.83.67-1.5 1.5-1.5h9c.82 0 1.5.67 1.5 1.5v4h1v-4Z"/><path d="M8 8V4h1v4H8Z"/><path d="M11 8V4h1v4h-1Z"/><path d="M14 8V4h1v4h-1Z"/><path d="M9 19H5v-1h4v1Z"/><path d="M16.5 11.5c-2.77 0-5 2.23-5 5 0 2.76 2.23 5 5 5 2.76 0 5-2.24 5-5 0-2.77-2.24-5-5-5Zm-6 5c0-3.32 2.68-6 6-6 3.31 0 6 2.68 6 6 0 3.31-2.69 6-6 6 -3.32 0-6-2.69-6-6Z"/><path d="M17.91 18.62l-3.54-3.54 .7-.71 3.53 3.53 -.71.7Z"/><path d="M18.62 15.08l-3.54 3.53 -.71-.71 3.53-3.54 .7.7Z"/></g></svg>