<svg viewBox="0 0 24 24" xmlns="http://www.w3.org/2000/svg"><g fill-rule="evenodd"><path d="M10 3c0-.28.22-.5.5-.5h3c.27 0 .5.22.5.5v1.76c.59.16 1.16.4 1.69.7l1.25-1.26c.19-.2.51-.2.7 0l2.12 2.12c.09.09.14.22.14.35 0 .13-.06.25-.15.35l-1.26 1.25c.3.52.53 1.09.7 1.69h1.76c.27 0 .5.22.5.5v3c0 .27-.23.5-.5.5h-1.77c-.17.59-.41 1.16-.71 1.69l1.25 1.25c.19.19.19.51 0 .7l-2.13 2.12c-.2.19-.52.19-.71 0l-1.26-1.26c-.53.3-1.1.53-1.7.7v1.76c0 .27-.23.5-.5.5h-3c-.28 0-.5-.23-.5-.5v-1.77c-.6-.17-1.17-.41-1.7-.71l-1.26 1.25c-.1.09-.23.14-.36.14 -.14 0-.26-.06-.36-.15l-2.13-2.13c-.2-.2-.2-.52 0-.71l1.25-1.26c-.31-.53-.54-1.1-.71-1.7H2.88c-.28 0-.5-.23-.5-.5v-3c0-.28.22-.5.5-.5h1.76c.16-.6.4-1.17.7-1.7L4.08 6.92c-.2-.2-.2-.52 0-.71L6.2 4.08c.19-.2.51-.2.7 0l1.25 1.25c.52-.31 1.09-.54 1.69-.71V2.85Zm1 .5v1.66c0 .23-.17.43-.4.48 -.77.16-1.48.46-2.12.87 -.2.12-.46.09-.63-.07L6.67 5.26 5.25 6.67l1.17 1.17c.16.16.19.42.06.62 -.41.63-.71 1.34-.88 2.11 -.06.22-.26.39-.49.39H3.44v2H5.1c.23 0 .43.16.48.39 .16.76.46 1.47.87 2.11 .12.19.09.45-.07.62L5.2 17.25l1.41 1.41 1.17-1.18c.16-.17.42-.2.62-.07 .63.4 1.34.7 2.11.87 .22.05.39.25.39.48v1.66h2v-1.67c0-.24.16-.44.39-.49 .76-.17 1.47-.47 2.11-.88 .19-.13.45-.1.62.06l1.17 1.17 1.41-1.42 -1.18-1.18c-.17-.17-.2-.43-.07-.63 .4-.64.7-1.35.87-2.12 .05-.23.25-.4.48-.4h1.66v-2h-1.67c-.24 0-.44-.17-.49-.4 -.17-.77-.47-1.48-.88-2.12 -.13-.2-.1-.46.06-.63l1.17-1.18 -1.42-1.42 -1.18 1.17c-.17.16-.43.19-.63.06 -.64-.41-1.35-.71-2.12-.88 -.23-.06-.4-.26-.4-.49V3.3h-2Z"/><path d="M12 9.5c-1.39 0-2.5 1.11-2.5 2.5 0 1.38 1.11 2.5 2.5 2.5 1.38 0 2.5-1.12 2.5-2.5 0-1.39-1.12-2.5-2.5-2.5ZM8.5 12c0-1.94 1.56-3.5 3.5-3.5 1.93 0 3.5 1.56 3.5 3.5 0 1.93-1.57 3.5-3.5 3.5 -1.94 0-3.5-1.57-3.5-3.5Z"/></g></svg>