<svg viewBox="0 0 24 24" xmlns="http://www.w3.org/2000/svg"><g fill-rule="evenodd"><path d="M13.464 7.62c-.81-.82-2.12-.82-2.93 0 -.81.81-.81 2.13 0 2.94 .8.81 2.11.81 2.92 0 .8-.82.8-2.14 0-2.95Zm-3.64-.71c1.19-1.21 3.14-1.21 4.34 0 1.19 1.2 1.19 3.15 0 4.35 -1.2 1.2-3.15 1.2-4.35 0 -1.2-1.21-1.2-3.16 0-4.36Z"/><path d="M7.85 4.93c-2.3 2.29-2.3 6.02 0 8.32l-.71.7c-2.68-2.69-2.68-7.05 0-9.74l.7.7Zm8.29 8.32c2.29-2.3 2.29-6.03 0-8.33l.7-.71c2.67 2.68 2.67 7.04 0 9.73l-.71-.71Z"/><path d="M5.28 2.35c-3.72 3.72-3.72 9.76 0 13.48l-.71.7c-4.1-4.12-4.1-10.79 0-14.9l.7.7Zm13.43 13.48c3.71-3.73 3.71-9.77 0-13.49l.7-.71c4.09 4.11 4.09 10.78 0 14.89l-.71-.71Z"/><path d="M11.5 22V11.67h1v10.32h-1Z"/></g></svg>