<svg viewBox="0 0 24 24" xmlns="http://www.w3.org/2000/svg"><g fill-rule="evenodd"><path d="M13.41 12.55c-.79-.78-2.05-.78-2.83 0 -.79.77-.79 2.03 0 2.81 .78.77 2.04.77 2.82 0 .78-.78.78-2.04 0-2.82Zm-3.54-.71c1.17-1.17 3.06-1.17 4.24 0 1.17 1.16 1.17 3.06 0 4.22 -1.18 1.16-3.07 1.16-4.25 0 -1.18-1.17-1.18-3.07 0-4.23Z"/><path d="M16.06 9.91c-2.25-2.24-5.89-2.24-8.14 0 -2.25 2.23-2.25 5.85 0 8.09l-.71.7c-2.64-2.63-2.64-6.89 0-9.52 2.63-2.63 6.9-2.63 9.54 0 2.63 2.62 2.63 6.88 0 9.51l-.71-.71c2.24-2.24 2.24-5.86 0-8.1Z"/><path d="M18.71 7.27c-3.72-3.7-9.73-3.7-13.44 0 -3.709 3.69-3.709 9.68 0 13.37l-.71.7c-4.11-4.09-4.11-10.71 0-14.8 4.1-4.09 10.74-4.09 14.84 0 4.1 4.08 4.1 10.7 0 14.79l-.71-.71c3.7-3.7 3.7-9.69 0-13.38Z"/></g></svg>