<svg viewBox="0 0 24 24" xmlns="http://www.w3.org/2000/svg"><g fill-rule="evenodd"><path d="M1.5 4c0-.28.22-.5.5-.5h18c.27 0 .5.22.5.5v5.5h-1v-5h-17v15H9v1H2c-.28 0-.5-.23-.5-.5V4Z"/><path d="M17 12.5c-2.49 0-4.5 2.01-4.5 4.5 0 2.48 2.01 4.5 4.5 4.5 2.48 0 4.5-2.02 4.5-4.5 0-2.49-2.02-4.5-4.5-4.5ZM11.5 17c0-3.04 2.46-5.5 5.5-5.5 3.03 0 5.5 2.46 5.5 5.5 0 3.03-2.47 5.5-5.5 5.5 -3.04 0-5.5-2.47-5.5-5.5Z"/><path d="M16 17.5v-3h1V17h2.5v1h-3c-.28 0-.5-.23-.5-.5Z"/><path d="M2 7.5h18v1H2v-1Z"/><path d="M5.5 5.5V2h1v3.5h-1Z"/><path d="M15.5 5.5V2h1v3.5h-1Z"/></g></svg>