<svg viewBox="0 0 24 24" xmlns="http://www.w3.org/2000/svg"><g fill-rule="evenodd"><path d="M4.63 7.15c.09-.11.22-.16.36-.16h14c.13 0 .27.05.36.15 .09.1.14.23.13.37l-1 14.5c-.02.26-.24.46-.5.46h-12c-.27 0-.49-.21-.5-.47l-1-14.5c-.01-.14.03-.28.13-.38Zm.9.84l.93 13.5h11.06l.93-13.5H5.52Z"/><path d="M11.5 19v-9h1v9h-1Z"/><path d="M8.5 19.02l-.5-9 .99-.06 .5 9 -1 .05Z"/><path d="M15.49 19.02l.5-9 -1-.06 -.5 9 .99.05Z"/><path d="M4.5 6.5C4.5 5.11 5.61 4 7 4h10c1.38 0 2.5 1.11 2.5 2.5v1c0 .27-.23.5-.5.5H5c-.28 0-.5-.23-.5-.5v-1ZM7 5c-.83 0-1.5.67-1.5 1.5V7h13v-.5c0-.83-.68-1.5-1.5-1.5H7Z"/><path d="M12 2.5c-.83 0-1.5.67-1.5 1.5v.5h-1V4c0-1.39 1.11-2.5 2.5-2.5 1.38 0 2.5 1.11 2.5 2.5v.5h-1V4c0-.83-.68-1.5-1.5-1.5Z"/><path d="M22 8H2V7h20v1Z"/></g></svg>