<svg viewBox="0 0 24 24" xmlns="http://www.w3.org/2000/svg"><g fill-rule="evenodd"><path d="M12 12c-.56 0-1 .44-1 1 0 .55.44 1 1 1 .55 0 1-.45 1-1 0-.56-.45-1-1-1Zm-2 1c0-1.11.89-2 2-2 1.1 0 2 .89 2 2 0 1.1-.9 2-2 2 -1.11 0-2-.9-2-2Z"/><path d="M11.5 18v-3.5h1V18h-1Z"/><path d="M9 2.5c-.83 0-1.5.67-1.5 1.5v3.57h-1V3.99c0-1.39 1.11-2.5 2.5-2.5h6c1.38 0 2.5 1.11 2.5 2.5v.87h-1v-.88c0-.83-.68-1.5-1.5-1.5H9Z"/><path d="M12 6.5c-4.15 0-7.5 3.35-7.5 7.5 0 4.14 3.35 7.5 7.5 7.5 4.14 0 7.5-3.36 7.5-7.5 0-4.15-3.36-7.5-7.5-7.5ZM3.5 14c0-4.7 3.8-8.5 8.5-8.5 4.69 0 8.5 3.8 8.5 8.5 0 4.69-3.81 8.5-8.5 8.5 -4.7 0-8.5-3.81-8.5-8.5Z"/></g></svg>