<svg viewBox="0 0 24 24" xmlns="http://www.w3.org/2000/svg"><g fill-rule="evenodd"><path d="M12.5 12v8h-1v-8h1Z"/><path d="M11.64 11.64c.19-.2.51-.2.7 0l3 3 -.71.7 -2.65-2.65 -2.65 2.64 -.71-.71 3-3Z"/><path d="M11.06 3.5c-2.99 0-5.44 2.52-5.44 5.67 0 .1 0 .2 0 .3 0 .13-.05.27-.14.36 -.1.09-.23.15-.37.15H5.1c-1.44 0-2.625 1.21-2.625 2.75 0 1.53 1.19 2.75 2.625 2.75H6.97v1H5.1c-2.03 0-3.625-1.7-3.625-3.75 0-1.89 1.34-3.47 3.12-3.715 .07-3.61 2.9-6.535 6.43-6.535 2.37 0 4.43 1.33 5.55 3.29 .22-.04.46-.05.69-.05 2.88 0 5.18 2.42 5.18 5.375 0 2.28-1.39 4.25-3.36 5.02 -.47.22-.99.34-1.53.34h-.625v-1h.625c.39 0 .76-.1 1.1-.26 .01-.01.02-.02.03-.02 1.58-.62 2.73-2.22 2.73-4.11 0-2.44-1.9-4.375-4.19-4.375 -.3 0-.59.03-.87.09 -.23.04-.46-.07-.56-.27 -.91-1.84-2.74-3.08-4.84-3.08Z"/></g></svg>