<svg viewBox="0 0 24 24" xmlns="http://www.w3.org/2000/svg"><g fill-rule="evenodd"><path d="M5 6.5c-.83 0-1.5.67-1.5 1.5v8.29c0 .32.12.62.35.85l-.71.7c-.42-.42-.65-.98-.65-1.57v-8.3c0-1.39 1.11-2.5 2.5-2.5h9c.13 0 .25.05.35.14l.5.5 -.71.7 -.36-.36h-8.8Zm16.27 1.08c.14.09.22.25.22.41v8c0 .16-.09.32-.23.41 -.15.09-.33.1-.48.03l-3.8-1.69v1.23c0 1.38-1.12 2.5-2.5 2.5h-8.5v-1h8.5c.82 0 1.5-.68 1.5-1.5v-1.24c0-.73.74-1.21 1.4-.92l3.09 1.375v-6.47l-3.1 1.37c-.67.29-1.41-.2-1.41-.92V7.42h1v1.73l3.79-1.69c.15-.07.33-.06.47.03Z"/><path d="M6 8.5h4v1H6v-1Z"/><path d="M2.64 20.64l17.99-18 .7.7 -18.01 18 -.71-.71Z"/></g></svg>