<svg viewBox="0 0 24 24" xmlns="http://www.w3.org/2000/svg"><g fill-rule="evenodd"><path d="M12.25 2.5c-1.24 0-2.25 1-2.25 2.24 0 1.23 1 2.24 2.24 2.24 1.23 0 2.24-1.01 2.24-2.25s-1.01-2.25-2.25-2.25ZM9 4.74c0-1.79 1.45-3.25 3.24-3.25 1.78 0 3.24 1.45 3.24 3.24 0 1.78-1.46 3.24-3.25 3.24s-3.25-1.46-3.25-3.25Z"/><path d="M9.21 9c-.75.63-1.22 1.56-1.22 2.72 0 .27-.23.5-.5.5 -.28 0-.5-.23-.5-.5 0-1.46.59-2.66 1.56-3.49 .96-.83 2.27-1.27 3.68-1.27 1.41 0 2.72.43 3.68 1.26 .97.82 1.56 2.03 1.56 3.48 0 .27-.23.5-.5.5 -.28 0-.5-.23-.5-.5 0-1.17-.47-2.09-1.22-2.73 -.76-.65-1.83-1.03-3.04-1.03 -1.22 0-2.28.37-3.04 1.02Z"/><path d="M11.5 16c0-2.49 2.01-4.5 4.5-4.5h4c.27 0 .5.22.5.5v8.66c0 .24-.18.45-.42.49l-8 1.33c-.15.02-.3-.02-.41-.12 -.12-.1-.18-.24-.18-.39v-6Zm4.5-3.5c-1.94 0-3.5 1.56-3.5 3.5v5.4l7-1.17v-7.75H16Z"/><path d="M12.5 16c0-2.49-2.02-4.5-4.5-4.5H4c-.28 0-.5.22-.5.5v8.66c0 .24.17.45.41.49l8 1.33c.14.02.29-.02.4-.12 .11-.1.17-.24.17-.39v-6ZM8 12.5c1.93 0 3.5 1.56 3.5 3.5v5.4l-7-1.17v-7.75H8Z"/></g></svg>