<svg viewBox="0 0 24 24" xmlns="http://www.w3.org/2000/svg"><g fill-rule="evenodd"><path d="M12 2.5c-4.15 0-7.5 3.35-7.5 7.5 0 3.01 1.89 5.89 3.86 8.07 .98 1.07 1.96 1.95 2.69 2.57 .36.3.67.54.88.7 .01.01.02.02.04.03 .01-.02.02-.03.04-.04 .21-.17.51-.4.88-.71 .73-.62 1.71-1.5 2.69-2.58 1.97-2.18 3.86-5.06 3.86-8.08 0-4.15-3.36-7.5-7.5-7.5ZM12 22c-.29.41-.29.41-.29.4l-.01-.01 -.01-.01 -.02-.02c-.02-.02-.04-.03-.08-.06 -.07-.05-.15-.11-.27-.2 -.23-.17-.55-.42-.93-.74 -.77-.64-1.79-1.55-2.81-2.67 -2.03-2.23-4.14-5.34-4.14-8.75 0-4.7 3.8-8.5 8.5-8.5 4.69 0 8.5 3.8 8.5 8.5 0 3.4-2.11 6.52-4.14 8.74 -1.02 1.12-2.04 2.03-2.81 2.66 -.39.31-.71.56-.93.73 -.12.08-.21.14-.27.19 -.04.02-.06.03-.08.05l-.02.01 -.01 0 -.01 0c-.01 0-.01 0-.29-.41Zm0 0l.28.4c-.18.11-.41.12-.58 0l.28-.41Z"/><path d="M12 5.5c-.97 0-1.75.78-1.75 1.75 0 .96.78 1.75 1.75 1.75 .96 0 1.75-.79 1.75-1.75 0-.97-.79-1.75-1.75-1.75ZM9.25 7.25c0-1.52 1.23-2.75 2.75-2.75 1.51 0 2.75 1.23 2.75 2.75C14.75 8.76 13.51 10 12 10c-1.52 0-2.75-1.24-2.75-2.75Z"/><path d="M8 13.5c0-1.11.89-2 2-2h4c1.1 0 2 .89 2 2 0 1.1-.9 2-2 2h-4c-1.11 0-2-.9-2-2Zm2-1c-.56 0-1 .44-1 1 0 .55.44 1 1 1h4c.55 0 1-.45 1-1 0-.56-.45-1-1-1h-4Z"/></g></svg>