<svg viewBox="0 0 24 24" xmlns="http://www.w3.org/2000/svg"><g fill-rule="evenodd"><path d="M1.5 4c0-1.39 1.11-2.5 2.5-2.5h3v1H4c-.83 0-1.5.67-1.5 1.5v3h-1V4ZM20 2.5h-3v-1h3c1.38 0 2.5 1.11 2.5 2.5v3h-1V4c0-.83-.68-1.5-1.5-1.5ZM2.5 17v3c0 .82.67 1.5 1.5 1.5h3v1H4c-1.39 0-2.5-1.12-2.5-2.5v-3h1Zm19 3v-3h1v3c0 1.38-1.12 2.5-2.5 2.5h-3v-1h3c.82 0 1.5-.68 1.5-1.5Z"/><path d="M12 5.5c-3.59 0-6.5 2.91-6.5 6.5 0 3.58 2.91 6.5 6.5 6.5 3.58 0 6.5-2.92 6.5-6.5 0-3.59-2.92-6.5-6.5-6.5ZM4.5 12c0-4.15 3.35-7.5 7.5-7.5 4.14 0 7.5 3.35 7.5 7.5 0 4.14-3.36 7.5-7.5 7.5 -4.15 0-7.5-3.36-7.5-7.5Z"/><path d="M12 8c-.83 0-1.5.67-1.5 1.5 0 .82.67 1.5 1.5 1.5 .82 0 1.5-.68 1.5-1.5 0-.83-.68-1.5-1.5-1.5ZM9.5 9.5C9.5 8.11 10.61 7 12 7c1.38 0 2.5 1.11 2.5 2.5 0 1.38-1.12 2.5-2.5 2.5 -1.39 0-2.5-1.12-2.5-2.5Z"/><path d="M12 15c-1.66 0-3 1.34-3 3 0 .27-.23.5-.5.5 -.28 0-.5-.23-.5-.5 0-2.21 1.79-4 4-4 2.2 0 4 1.79 4 4 0 .27-.23.5-.5.5 -.28 0-.5-.23-.5-.5 0-1.66-1.35-3-3-3Z"/></g></svg>