<svg viewBox="0 0 24 24" xmlns="http://www.w3.org/2000/svg"><g fill-rule="evenodd"><path d="M3 4c-.28 0-.5.22-.5.5v15c0 .27.22.5.5.5h18c.27 0 .5-.23.5-.5v-13c0-.28-.23-.5-.5-.5H10.41c-.4 0-.78-.16-1.07-.44L7.92 4.14c-.1-.1-.23-.15-.36-.15H2.97Zm-1.5.5C1.5 3.67 2.17 3 3 3h4.58c.39 0 .77.15 1.06.43l1.41 1.41c.09.09.22.14.35.14h10.58c.82 0 1.5.67 1.5 1.5v13c0 .82-.68 1.5-1.5 1.5h-18c-.83 0-1.5-.68-1.5-1.5v-15Z"/><path d="M11.99 8.75c-1.05 0-1.9.85-1.9 1.9 0 1.04.85 1.9 1.9 1.9 1.04 0 1.9-.86 1.9-1.9 0-1.05-.86-1.9-1.9-1.9Zm-2.9 1.9c0-1.61 1.29-2.9 2.89-2.9s2.9 1.29 2.9 2.9c0 1.6-1.3 2.9-2.9 2.9 -1.61 0-2.9-1.3-2.9-2.9Z"/><path d="M7.76 16.45c0-1 .8-1.8 1.8-1.8h4.86c.99 0 1.8.8 1.8 1.8 0 .99-.81 1.8-1.8 1.8H9.55c-1 0-1.8-.81-1.8-1.8Zm1.8-.8c-.45 0-.8.35-.8.8 0 .44.35.8.8.8h4.86c.44 0 .8-.36.8-.8 0-.45-.36-.8-.8-.8H9.55Z"/></g></svg>