<svg viewBox="0 0 24 24" xmlns="http://www.w3.org/2000/svg"><g fill-rule="evenodd"><path d="M2.5 5c0-1.39 1.11-2.5 2.5-2.5h14c1.38 0 2.5 1.11 2.5 2.5v14c0 1.38-1.12 2.5-2.5 2.5H5c-1.39 0-2.5-1.12-2.5-2.5V5ZM5 3.5c-.83 0-1.5.67-1.5 1.5v14c0 .82.67 1.5 1.5 1.5h14c.82 0 1.5-.68 1.5-1.5V5c0-.83-.68-1.5-1.5-1.5H5Z"/><path d="M12 6.75c-1.11 0-2 .89-2 2 0 1.1.89 2 2 2 1.1 0 2-.9 2-2 0-1.11-.9-2-2-2Zm-3 2c0-1.66 1.34-3 3-3 1.65 0 3 1.34 3 3 0 1.65-1.35 3-3 3 -1.66 0-3-1.35-3-3Z"/><path d="M12 13.31c-2.49 0-4.5 2.01-4.5 4.5h-1c0-3.04 2.46-5.5 5.5-5.5 3.03 0 5.5 2.46 5.5 5.5h-1c0-2.49-2.02-4.5-4.5-4.5Z"/></g></svg>