<svg viewBox="0 0 24 24" xmlns="http://www.w3.org/2000/svg"><g fill-rule="evenodd"><path d="M2.5 5c0-1.39 1.11-2.5 2.5-2.5h14c1.38 0 2.5 1.11 2.5 2.5v14c0 1.38-1.12 2.5-2.5 2.5H5c-1.39 0-2.5-1.12-2.5-2.5V5ZM5 3.5c-.83 0-1.5.67-1.5 1.5v14c0 .82.67 1.5 1.5 1.5h14c.82 0 1.5-.68 1.5-1.5V5c0-.83-.68-1.5-1.5-1.5H5Z"/><path d="M12 8.11c-1.26 0-2.28 1.01-2.28 2.27 0 1.25 1.01 2.27 2.27 2.27 1.25 0 2.27-1.02 2.27-2.28 0-1.26-1.02-2.28-2.28-2.28Zm-3.28 2.27c0-1.82 1.46-3.28 3.27-3.28s3.27 1.46 3.27 3.27 -1.47 3.27-3.28 3.27c-1.82 0-3.28-1.47-3.28-3.28Z"/><path d="M12 15.33c-1.85 0-3.5.55-4.71 1.44l-.6-.81c1.39-1.03 3.25-1.65 5.29-1.65 2.03 0 3.9.61 5.29 1.64l-.6.8c-1.205-.89-2.87-1.45-4.71-1.45Z"/></g></svg>