<svg viewBox="0 0 24 24" xmlns="http://www.w3.org/2000/svg"><g fill-rule="evenodd"><path d="M15.16 5.06c1.77 0 3.2 1.43 3.2 3.2 0 1.77-1.44 3.2-3.21 3.2v1c2.32 0 4.2-1.89 4.2-4.21 0-2.33-1.89-4.21-4.21-4.21v1Z"/><path d="M15.16 12.47c3.36 0 6.08 2.72 6.08 6.08h1c0-3.92-3.18-7.09-7.09-7.09v1Z"/><path d="M9.25 5.06c1.89 0 3.43 1.53 3.43 3.43 0 1.89-1.54 3.43-3.44 3.43s-3.44-1.54-3.44-3.44 1.53-3.44 3.43-3.44Zm4.43 3.43c0-2.46-1.99-4.44-4.44-4.44 -2.46 0-4.44 1.98-4.44 4.43 0 2.45 1.98 4.43 4.43 4.43 2.45 0 4.43-1.99 4.43-4.44Z"/><path d="M9.25 12.93c3.58 0 6.5 2.91 6.5 6.5h1c0-4.15-3.36-7.5-7.5-7.5 -4.15 0-7.5 3.35-7.5 7.5h1c0-3.59 2.91-6.5 6.5-6.5Z"/></g></svg>