<svg viewBox="0 0 24 24" xmlns="http://www.w3.org/2000/svg"><g fill-rule="evenodd"><path d="M12 2.5C9.51 2.5 7.5 4.51 7.5 7c0 2.48 2.01 4.5 4.5 4.5 2.48 0 4.5-2.02 4.5-4.5 0-2.49-2.02-4.5-4.5-4.5ZM6.5 7c0-3.04 2.46-5.5 5.5-5.5 3.03 0 5.5 2.46 5.5 5.5 0 3.03-2.47 5.5-5.5 5.5 -3.04 0-5.5-2.47-5.5-5.5Z"/><path d="M12 14.5c-4.52 0-8.21 2.47-9.22 5.68 -.11.34-.02.65.2.89 .22.25.59.42 1.01.42h16c.41 0 .78-.18 1.01-.43 .22-.25.3-.56.2-.9 -1.02-3.21-4.71-5.69-9.22-5.69ZM1.82 19.88c1.17-3.73 5.33-6.39 10.17-6.39 4.83 0 8.99 2.65 10.17 6.38 .22.71.01 1.38-.42 1.86 -.43.46-1.08.75-1.76.75h-16c-.69 0-1.34-.29-1.76-.76 -.44-.48-.65-1.16-.42-1.87Z"/><path d="M12 17c-1.91 0-3.25-1.22-3.25-2.5h-1c0 2.03 2.01 3.5 4.25 3.5 2.23 0 4.25-1.47 4.25-3.5h-1c0 1.28-1.35 2.5-3.25 2.5Z"/></g></svg>