<svg viewBox="0 0 24 24" xmlns="http://www.w3.org/2000/svg"><g fill="#9545ED" fill-rule="evenodd"><path d="M9.49 11.11c-.68 0-1.22.54-1.22 1.21 0 .67.54 1.21 1.21 1.21 .67 0 1.21-.55 1.21-1.22 0-.68-.55-1.22-1.22-1.22Zm-3.22 1.21c0-1.78 1.44-3.22 3.21-3.22s3.21 1.44 3.21 3.21 -1.45 3.21-3.22 3.21c-1.78 0-3.22-1.45-3.22-3.22Z"/><path d="M9.49 16.88c-1.36 0-2.55.41-3.4 1.03L4.9 16.3c1.22-.91 2.83-1.44 4.58-1.44 1.74 0 3.36.52 4.58 1.43l-1.19 1.6c-.86-.63-2.05-1.04-3.4-1.04Z"/><g fill="#3747D6"><path d="M15.95 6.27c0-.56-.46-1.01-1.02-1l-11.7.12V6.4h12.7v-.14Zm2 .13v-.14c0-1.67-1.37-3.02-3.04-3l-11.7.12c-1.1.01-1.98.9-1.98 1.99v13.35c0 1.1.89 2 2 2h16c1.1 0 2-.9 2-2v-3.1h-2v3.1h-16V8.37h16v3.09h2v-3.1c0-1.11-.9-2-2-2h-1.3Z"/><path d="M22.75 11.75c0-.56-.45-1-1-1h-3.5c-1.66 0-3 1.34-3 3 0 1.65 1.34 3 3 3h3.5c.55 0 1-.45 1-1v-4Zm-2 1v2h-2.5c-.56 0-1-.45-1-1 0-.56.44-1 1-1h2.5Z"/></g></g></svg>