<svg viewBox="0 0 24 24" xmlns="http://www.w3.org/2000/svg"><g fill="#9545ED" fill-rule="evenodd"><path d="M17 13c-2.21 0-4 1.79-4 4 0 2.2 1.79 4 4 4 2.2 0 4-1.8 4-4 0-2.21-1.8-4-4-4Zm-6 4c0-3.32 2.68-6 6-6 3.31 0 6 2.68 6 6 0 3.31-2.69 6-6 6 -3.32 0-6-2.69-6-6Z"/><path d="M19.5 18h-5v-2h5v2Z"/><g fill="#3747D6"><path d="M10 3C8.06 3 6.5 4.56 6.5 6.5 6.5 8.43 8.06 10 10 10c1.93 0 3.5-1.57 3.5-3.5C13.5 4.56 11.93 3 10 3ZM4.5 6.5C4.5 3.46 6.96 1 10 1c3.03 0 5.5 2.46 5.5 5.5 0 3.03-2.47 5.5-5.5 5.5 -3.04 0-5.5-2.47-5.5-5.5Z"/><path d="M10 12c-3.87 0-7 3.13-7 7H1c0-4.98 4.02-9 9-9v2Z"/></g></g></svg>