<svg viewBox="0 0 24 24" xmlns="http://www.w3.org/2000/svg"><g fill-rule="evenodd"><path d="M4 13.99v0 0s-.01 0 0 .01c0 .01.01.03.03.06 .04.06.12.17.29.3 .33.26.86.53 1.62.79 1.5.5 3.64.82 6.04.82s4.54-.33 6.04-.83c.75-.26 1.29-.54 1.62-.8 .16-.13.24-.24.29-.31 .02-.04.02-.06.03-.07 0-.02 0-.02 0-.02v-.01c0-.01 0-.01-.01-.02 -.01-.02-.02-.04-.04-.07 -.05-.07-.13-.18-.3-.31 -.34-.27-.87-.54-1.63-.8 -1.51-.51-3.64-.83-6.05-.83 -2.41 0-4.55.32-6.05.82 -.76.25-1.3.53-1.63.79 -.17.12-.25.23-.3.3 -.03.03-.03.05-.04.06 -.01.01-.01.01-.01.01Zm1.31-3.07c1.75-.59 4.11-.93 6.68-.93 2.56 0 4.92.34 6.68.93 .87.29 1.65.65 2.23 1.11 .56.44 1.08 1.1 1.08 1.95 0 .85-.52 1.5-1.09 1.95 -.59.45-1.36.82-2.24 1.11 -1.76.58-4.12.93-6.69.93 -2.57 0-4.93-.35-6.69-.93 -.88-.3-1.66-.66-2.24-1.12 -.57-.45-1.09-1.11-1.09-1.96 0-.86.51-1.51 1.08-1.96 .58-.46 1.35-.83 2.23-1.12Z"/><path d="M2 19v-5h1 1v0s0 0 0 .01 .01.03.03.06c.04.06.12.17.29.3 .33.26.86.53 1.62.79 1.5.5 3.64.82 6.04.82s4.54-.33 6.04-.83c.75-.26 1.29-.54 1.62-.8 .16-.13.24-.24.29-.31 .02-.04.02-.06.03-.07 0-.01 0-.02 0-.02v-.01 -.01h1 1v5c0 .85-.52 1.5-1.09 1.95 -.59.45-1.36.82-2.24 1.11 -1.76.58-4.12.93-6.69.93 -2.57 0-4.93-.35-6.69-.93 -.88-.3-1.66-.66-2.24-1.12 -.57-.45-1.09-1.11-1.09-1.96Z"/><path d="M19.59 5.93c-.59-.59-1.54-.59-2.13 0l-1.42-1.42c1.36-1.37 3.58-1.37 4.94 0l-1.42 1.41Z"/><path d="M21.364 4.17c-1.57-1.57-4.1-1.57-5.66 0l-1.42-1.42c2.34-2.35 6.14-2.35 8.48 0l-1.42 1.41Z"/><path d="M17.53 8V7h2v1h-2Z"/><path d="M14 15h-4v-2h4v2Z"/></g></svg>