<svg viewBox="0 0 24 24" xmlns="http://www.w3.org/2000/svg"><path fill-rule="evenodd" d="M22.77 11.79c-.52.73-1.39 1.08-2.22.96v5.16c0 2.24-1.83 4.07-4.08 4.07h-1.32 -.02 -.02 -.02 -.02 -.02 -.02 -.02 -.02 -.02 -.02 -.02 -.02 -.02 -.02 -.02 -.02 -.02 -.02 -.02 -.02 -.02 -.02 -.02 -.02 -.02 -.02 -.02 -.02 -.02 -.02 -.02 -.02 -.02 -.02 -.02 -.02 -.02 -.02 -.02 -.02 -.02 -.02 -.02 -.02 -.02 -.02 -.02 -.02 -.02 -.02 -.02 -.02 -.02 -.02 -.02 -.02 -.02 -.02 -.02 -.02 -.02 -.02 -.02 -.02 -.02 -.02 -.02 -.02 -.02 -.02 -.02 -.02 -.02 -.02 -.02 -.02 -.02 -.02 -.02 -.02 -.02 -.02 -.02 -.02 -.02 -.02 -.02 -.02 -.02 -.02 -.02 -.02 -.02 -.02 -.02 -.02 -.02 -.02 -.02 -.02 -.02 -.02 -.02 -.02 -.02 -.02 -.02 -.02 -.02 -.02 -.02 -.02 -.02 -.02 -.02 -.02 -.02 -.02 -.02 -.02 -.02 -.02 -.02 -.02 -.02 -.02 -.02 -.02 -.02 -.02 -.02 -.02 -.02 -.02 -.02 -.02 -.02 -.02 -.02 -.02 -.02 -.02 -.02 -.02 -.02 -.02 -.02 -.02 -.02 -.02 -.02 -.02 -.02 -.02 -.02 -.02 -.02 -.02 -.02 -.02 -.02 -.02 -.02 -.02 -.02 -.02 -.02 -.02 -.02 -.02 -.02 -.02 -.02 -.02 -.02 -.02 -.02 -.02 -.02 -.02 -.02 -.02 -.02 -.02 -.02 -.02 -.02 -.02 -.02 -.02 -.02 -.02 -.02 -.02 -.02 -.02 -.02 -.02 -.02 -.02 -.02 -.02 -.02 -.02 -.02 -.02 -.02 -.02 -.02 -.02 -.02 -.02 -.02 -.02 -.02 -.02 -.02 -.02 -.02 -.02 -.02 -.02 -.02 -.02 -.02 -.02 -.02 -.02 -.02 -.02 -.02 -.02 -.02 -.02 -.02 -.02 -.02 -.02 -.02 -.02 -.02 -.02 -.02 -.02 -.02 -.02 -.02 -.02 -.02 -.02 -.02 -.02 -.02 -.02 -.02 -.02 -.02 -.02 -.02 -.02 -.02 -.02 -.02 -.02 -.02 -.02 -.02 -.02 -.02 -.02 -.02 -.02 -.02 -.02 -.02 -.02 -.02 -.02 -.02 -.02 -.02 -.02 -.02 -.02 -.02 -.02 -.02 -.02 -.02 -.02 -.02 -.02 -.02 -.02 -.02 -.02 -.02 -.02 -.02 -.02 -.02 -.02 -.02 -.02 -.02 -.02 -.02 -.02 -.02 -.02 -.02 -.02 -.02 -.02 -.02 -.02 -.02 -.02 -.02 -.02 -.02 -.02 -.02 -.02 -.02 -.02 -.02 -.02 -.02 -.02 -.02 -.02 -.02 -.02 -.02 -.02 -.02 -.02 -.02 -.02 -.02 -.02 -.02 -.02 -.02 -.02 -.02 -.02 -.02 -.02 -.02 -.02 -.02 -.02 -.02 -.02 -.02 -.02 -.02 -.02 -.02 -.02 -.02 -.02 -.02 -.02 -.02 -.02 -.02 -.02 -.02 -.02 -.02 -.02 -.02 -.02 -.02 -.02 -.02 -.02 -.02 -.02 -.02 -.02 -.02 -.02 -.02 -.02 -.02 -.02 -.02 -.02 -.02 -.02 -.02 -.02 -.02 -.02 -.02 -.02 -.02 -.02 -.02 -.02 -.02 -.02 -.02 -.02 -.02 -.02 -.02 -.02 -.02 -.02 -.02 -.02 -.02 -.02 -.02 -.02 -.02 -.02 -.02 -.02 -.02 -.02 -.02 -.02 -.02 -.02 -.02 -.02 -.02 -.02 -.02 -.02 -.02 -.02 -.02 -.02 -.02 -.02 -.02 -.02 -.02 -.02 -.02 -.02 -.02 -.02 -.02 -.02 -.02 -.02 -.02 -.02 -.02 -.02 -.02 -.02 -.02 -.02 -.02 -.02 -.02 -.02 -.02 -.02 -.02 -.02 -.02 -.02 -.02 -.02 -.02 -.02 -.02 -.02 -.02 -.02 -.02 -.02 -.02 -.02 -.02 -.02 -.02 -.02 -.02 -.02 -.02 -.02 -.02 -.02 -.02 -.02 -.02 -.02 -.02 -.02 -.02 -.02 -.02 -.02 -.02 -.02 -.02 -.02 -.02 -.02 -.02 -.02 -1.32c-2.25 0-4.08-1.83-4.08-4.08v-5.17c-.84.11-1.7-.24-2.22-.97 -.74-1.05-.48-2.5.56-3.23l8.78-6.15c.79-.56 1.85-.56 2.65 0l8.78 6.14c1.04.73 1.3 2.17.56 3.22Z"/></svg>