<svg viewBox="0 0 24 24" xmlns="http://www.w3.org/2000/svg"><path fill-rule="evenodd" d="M12.54 1.35l-.77.64 -.77-.65c.19-.23.47-.36.76-.36 .29 0 .57.13.76.35Zm-.77.64C11 1.34 11 1.34 11 1.34l-.01 0 -.01 0 -.01 0 -.02.02 -.07.07c-.06.06-.14.16-.24.28 -.21.25-.5.61-.84 1.05 -.7.89-1.62 2.12-2.54 3.48 -.93 1.35-1.86 2.86-2.57 4.3 -.7 1.4-1.24 2.87-1.24 4.12 0 4.56 3.7 8.27 8.27 8.27 4.56 0 8.27-3.71 8.27-8.28 0-1.25-.55-2.73-1.24-4.13 -.72-1.439-1.65-2.95-2.57-4.31 -.93-1.37-1.85-2.6-2.54-3.49 -.35-.45-.64-.81-.84-1.06 -.11-.13-.19-.23-.24-.29l-.07-.08 -.02-.03 -.01-.01 -.01-.01 -.01-.01c-.01-.01-.01-.01-.77.64Zm-.798 13.93c.58-.59 1.53-.59 2.12 0l1.41-1.42c-1.37-1.37-3.59-1.37-4.95 0l1.41 1.41Zm3.88-1.77c-1.57-1.57-4.1-1.57-5.66 0l-1.42-1.42c2.34-2.35 6.14-2.35 8.48 0l-1.42 1.41Zm-3.83 2.82v1h2v-1h-2Z"/></svg>