<svg viewBox="0 0 24 24" xmlns="http://www.w3.org/2000/svg"><g fill-rule="evenodd"><path d="M19.59 5.93c-.59-.59-1.54-.59-2.13 0l-1.42-1.42c1.36-1.37 3.58-1.37 4.94 0l-1.42 1.41Z"/><path d="M21.364 4.17c-1.57-1.57-4.1-1.57-5.66 0l-1.42-1.42c2.34-2.35 6.14-2.35 8.48 0l-1.42 1.41Z"/><path d="M17.53 8V7h2v1h-2Z"/><path d="M9 2c.55 0 1 .44 1 1v8c0 .55-.45 1-1 1 -.56 0-1-.45-1-1V3c0-.56.44-1 1-1Z"/><path d="M6 10c-.56 0-1 .44-1 1v3c0 .55.44 1 1 1h6c.55 0 1-.45 1-1v-3c0-.56-.45-1-1-1H6Z"/><path d="M6 13c-2.77 0-5 2.23-5 5v1c0 .55.44 1 1 1h14c.55 0 1-.45 1-1v-1c0-2.77-2.24-5-5-5H6Z"/><path d="M7 19c0 1.1.89 2 2 2 1.1 0 2-.9 2-2h2c0 2.2-1.8 4-4 4 -2.21 0-4-1.8-4-4h2Z"/></g></svg>