<svg viewBox="0 0 24 24" xmlns="http://www.w3.org/2000/svg"><g fill-rule="evenodd"><path d="M19.59 5.93c-.59-.59-1.54-.59-2.13 0l-1.42-1.42c1.36-1.37 3.58-1.37 4.94 0l-1.42 1.41Z"/><path d="M21.364 4.17c-1.57-1.57-4.1-1.57-5.66 0l-1.42-1.42c2.34-2.35 6.14-2.35 8.48 0l-1.42 1.41Z"/><path d="M17.53 8V7h2v1h-2Z"/><path d="M11 7c-4.42 0-8 3.58-8 8 0 4.41 3.58 8 8 8 4.41 0 8-3.59 8-8 0-4.42-3.59-8-8-8Zm-1.51 6.67c-.32.35-.5.81-.5 1.32 0 1.1.89 2 2 2 1.1 0 2-.9 2-2 0-.51-.19-.97-.5-1.33l1.49-1.33c.62.7 1 1.63 1 2.64 0 2.2-1.8 4-4 4 -2.21 0-4-1.8-4-4 0-1.02.37-1.95 1-2.65l1.49 1.32Zm.5-2.18v1.875h2V11.49h-2Z"/></g></svg>