<svg viewBox="0 0 24 24" xmlns="http://www.w3.org/2000/svg"><g fill-rule="evenodd"><path d="M19.59 5.93c-.59-.59-1.54-.59-2.13 0l-1.42-1.42c1.36-1.37 3.58-1.37 4.94 0l-1.42 1.41Z"/><path d="M21.364 4.17c-1.57-1.57-4.1-1.57-5.66 0l-1.42-1.42c2.34-2.35 6.14-2.35 8.48 0l-1.42 1.41Z"/><path d="M17.53 8V7h2v1h-2Z"/><path d="M9.5 17.5V22h-2v-4.5h2Z"/><path d="M1 11c0-4.15 3.35-7.5 7.5-7.5 4.14 0 7.5 3.35 7.5 7.5 0 4.14-3.36 7.5-7.5 7.5C4.35 18.5 1 15.14 1 11Zm8.5-2.83V6.99h-2v1.17c-.86.3-1.53.97-1.83 1.82H4.49v2h1.17c.3.85.97 1.52 1.82 1.82v1.17h2v-1.18c.85-.31 1.52-.98 1.82-1.83h1.17v-2h-1.18c-.31-.86-.98-1.53-1.83-1.83Z"/><path d="M6.5 21h4v2h-4v-2Z"/></g></svg>