<svg viewBox="0 0 24 24" xmlns="http://www.w3.org/2000/svg"><g fill-rule="evenodd"><path d="M11.83 18.51c.1-.02.22-.02.32 0l9 1.5 -.33 1.97 -8.84-1.48 -8.84 1.47 -.33-1.98 8.99-1.5Z"/><path d="M9.03 16.22c.12-.43.51-.73.96-.73h4c.44 0 .83.29.96.72l1 3.5c.09.32.01.68-.22.94 -.23.25-.58.37-.92.32l-2.84-.48 -2.84.47c-.34.05-.69-.07-.92-.33 -.23-.26-.31-.62-.22-.95l1-3.5Zm1.71 1.27l-.36 1.25 1.43-.24c.1-.02.22-.02.32 0l1.43.23 -.36-1.26h-2.5Z"/><path d="M1 4.5c0-.56.44-1 1-1h20c.55 0 1 .44 1 1v12c0 .55-.45 1-1 1H2c-.56 0-1-.45-1-1v-12Zm9.97 6.93c.58-.59 1.53-.59 2.12 0l1.41-1.42c-1.37-1.37-3.59-1.37-4.95 0l1.41 1.41Zm3.88-1.77c-1.57-1.57-4.1-1.57-5.66 0L7.77 8.24c2.34-2.35 6.14-2.35 8.48 0l-1.42 1.41Zm-3.83 2.82v1h2v-1h-2Z"/></g></svg>