<svg viewBox="0 0 24 24" xmlns="http://www.w3.org/2000/svg"><g fill-rule="evenodd"><path d="M1 8c0-.56.44-1 1-1h13.26c.55 0 1 .44 1 1v1.94c0 1.1-.9 2-2 2H2.99c-1.11 0-2-.9-2-2.01V7.98Zm2 1v.94h11.26v-.95H2.99Z"/><path d="M2.94 10.28c.18-.22.46-.34.74-.34h9.88c.28 0 .55.12.74.33 1.2 1.34 1.94 3.13 1.94 5.08 0 3.06-1.82 5.71-4.43 6.92v-4.93c0-1.66-1.35-3-3.01-3h-.43c-1.66 0-3 1.34-3 3v4.92C2.75 21.04.94 18.4.94 15.33c0-1.96.73-3.74 1.94-5.09ZM7.41 22.9c.39.06.79.09 1.21.09 .41 0 .81-.04 1.21-.1v-5.54c0-.56-.45-1-1-1H8.4c-.56 0-1 .44-1 1v5.53Z"/><path d="M19.59 5.93c-.59-.59-1.54-.59-2.13 0l-1.42-1.42c1.36-1.37 3.58-1.37 4.94 0l-1.42 1.41Z"/><path d="M21.364 4.17c-1.57-1.57-4.1-1.57-5.66 0l-1.42-1.42c2.34-2.35 6.14-2.35 8.48 0l-1.42 1.41Z"/><path d="M17.53 8V7h2v1h-2Z"/></g></svg>