<svg viewBox="0 0 24 24" xmlns="http://www.w3.org/2000/svg"><g fill-rule="evenodd"><path d="M6 7v10c0 .55.44 1 1 1h2.5v2H7c-1.66 0-3-1.35-3-3V7h2Zm12 3.5V7h2v3.5h-2Z"/><path d="M11.42 1.18c.34-.25.8-.25 1.14 0l10 7 -1.15 1.63 -9.43-6.6L2.55 9.8 1.4 8.16l10-7Z"/><path d="M11 18.29c0 .55.44 1 1 1h2.55c.55 0 1-.45 1-1v-5.3c0-.56-.45-1-1-1h-2.56c-.56 0-1 .44-1 1v5.29Zm2-1v-3.3h.55v3.29h-.56Z"/><path d="M19.5 22.38c-1.1.81-2.67.32-3.1-.98l-.38-1.14 -.89-.99h-.59c-.56 0-1-.45-1-1v-5.3c0-.56.44-1 1-1h4.3c1.3 0 2.46.84 2.86 2.09l.82 2.596c.4 1.28-.56 2.6-1.91 2.6h-.22l.17.79c.17.76-.13 1.56-.76 2.03l-.35.25Z"/></g></svg>