<svg viewBox="0 0 24 24" xmlns="http://www.w3.org/2000/svg"><path fill="#3747D6" fill-rule="evenodd" d="M1 2c0-.56.44-1 1-1h14.75C20.2 1 23 3.79 23 7.25c0 3.45-2.8 6.25-6.25 6.25h-9.5c-.7 0-1.25.55-1.25 1.25 0 .69.55 1.25 1.25 1.25H17v-1c0-.4.22-.75.58-.92 .35-.17.77-.11 1.07.15l4 3.5c.21.18.34.46.34.75 0 .28-.13.56-.35.75l-4 3.5c-.3.25-.72.32-1.08.15 -.36-.17-.59-.52-.59-.92v-1H7.22c-3.46 0-6.25-2.8-6.25-6.25 0-3.46 2.79-6.25 6.25-6.25h9.5c.69 0 1.25-.56 1.25-1.25 0-.7-.56-1.25-1.25-1.25H1.97c-.56 0-1-.45-1-1v-3Zm17.98 17.81l1.49-1.32 -1.5-1.32c-.09.46-.5.81-.99.81H7.23c-1.8 0-3.25-1.46-3.25-3.25 0-1.8 1.45-3.25 3.25-3.25h9.5c2.34 0 4.25-1.91 4.25-4.25 0-2.35-1.91-4.25-4.25-4.25H2.98v1h13.75c1.79 0 3.25 1.45 3.25 3.25 0 1.79-1.46 3.25-3.25 3.25h-9.5c-2.35 0-4.25 1.9-4.25 4.25 0 2.34 1.9 4.25 4.25 4.25h10.75c.48 0 .89.34.98.81Z"/></svg>