<svg viewBox="0 0 24 24" xmlns="http://www.w3.org/2000/svg"><g fill="#9545ED" fill-rule="evenodd"><path d="M9 3c0-.56.44-1 1-1h11c.55 0 1 .44 1 1v6c0 .55-.45 1-1 1H10c-.56 0-1-.45-1-1V3Zm2 1v4h9V4h-9Z"/><path d="M9 15c0-.56.44-1 1-1h11c.55 0 1 .44 1 1v6c0 .55-.45 1-1 1H10c-.56 0-1-.45-1-1v-6Zm2 1v4h9v-4h-9Z"/><g fill="#3747D6"><path d="M1 2c0-.56.44-1 1-1h8c.55 0 1 .44 1 1v8c0 .55-.45 1-1 1H2c-.56 0-1-.45-1-1V2Zm2 1v6h6V3H3Z"/><path d="M1 14c0-.56.44-1 1-1h8c.55 0 1 .44 1 1v8c0 .55-.45 1-1 1H2c-.56 0-1-.45-1-1v-8Zm2 1v6h6v-6H3Z"/></g></g></svg>