<svg viewBox="0 0 24 24" xmlns="http://www.w3.org/2000/svg"><g fill="#3747D6" fill-rule="evenodd"><path d="M11.51 16.87l-4.5-2.5 .97-1.75 4.5 2.5 -.98 1.74Z"/><path d="M20.79 10.1l-5 6.5 -1.59-1.22 5-6.51 1.58 1.21Z"/><path d="M1 22V2h2v19h19v2H2c-.56 0-1-.45-1-1Z"/><g fill="#9545ED"><path d="M6.5 12c-.28 0-.5.22-.5.5 0 .27.22.5.5.5 .27 0 .5-.23.5-.5 0-.28-.23-.5-.5-.5Zm-2.5.5C4 11.11 5.11 10 6.5 10 7.88 10 9 11.11 9 12.5 9 13.88 7.88 15 6.5 15 5.11 15 4 13.88 4 12.5Z"/><path d="M13.5 16c-.28 0-.5.22-.5.5 0 .27.22.5.5.5 .27 0 .5-.23.5-.5 0-.28-.23-.5-.5-.5Zm-2.5.5c0-1.39 1.11-2.5 2.5-2.5 1.38 0 2.5 1.11 2.5 2.5 0 1.38-1.12 2.5-2.5 2.5 -1.39 0-2.5-1.12-2.5-2.5Z"/><path d="M20.5 8c-.28 0-.5.22-.5.5 0 .27.22.5.5.5 .27 0 .5-.23.5-.5 0-.28-.23-.5-.5-.5Zm-2.5.5C18 7.11 19.11 6 20.5 6 21.88 6 23 7.11 23 8.5c0 1.38-1.12 2.5-2.5 2.5 -1.39 0-2.5-1.12-2.5-2.5Z"/></g></g></svg>