<svg viewBox="0 0 24 24" xmlns="http://www.w3.org/2000/svg"><path fill-rule="evenodd" d="M12 2l.79-.61c-.19-.25-.49-.4-.8-.4 -.32 0-.61.14-.8.39l.79.6Zm0 0c.79-.61.79-.61.79-.61l0 0 0 0 0 0 .01.02 .06.07c.05.06.12.17.22.3 .19.26.47.63.8 1.1 .66.92 1.55 2.2 2.43 3.61 .88 1.4 1.78 2.94 2.46 4.39 .66 1.41 1.18 2.88 1.18 4.08 0 4.41-3.59 8-8 8 -4.42 0-8-3.59-8-8 0-1.21.52-2.68 1.18-4.09 .68-1.46 1.58-3 2.46-4.4 .88-1.41 1.77-2.69 2.43-3.62 .33-.47.6-.85.8-1.11 .09-.14.17-.24.22-.31l.06-.08 .01-.03 0-.01 0-.01 0-.01c0-.01 0-.01.79.6Z"/></svg>