<svg viewBox="0 0 24 24" xmlns="http://www.w3.org/2000/svg"><g fill-rule="evenodd"><path d="M11.82 7c.26 0 .51.1.7.29l4.17 4.17c.39.39.39 1.02 0 1.41l-7.92 7.91c-.79.78-1.9 1.06-2.91.81l-.66.65c-.97.96-2.54.96-3.51 0 -.97-.97-.97-2.54-.01-3.51l.65-.66c-.25-1.01.02-2.12.81-2.91l7.91-7.92c.18-.19.44-.3.7-.3Zm0 2.41l-7.21 7.2c-.35.34-.42.86-.2 1.27 .2.38.13.86-.18 1.17l-1.11 1.1c-.19.18-.19.48 0 .67 .18.18.48.18.67 0l1.1-1.11c.31-.32.78-.39 1.17-.18 .41.21.93.15 1.27-.2l7.2-7.21 -2.77-2.77Z"/><path d="M21.12 2.7c-1.18-1.18-3.08-1.18-4.25 0l-2.59 2.58c-.4.39-.4 1.02 0 1.41l3 3c.39.39 1.02.39 1.41 0l2.58-2.59c1.17-1.18 1.17-3.08 0-4.25l-.18-.18Z"/><path d="M14.2 3.79c-.4-.4-1.03-.4-1.42 0l-2.5 2.5c-.4.39-.4 1.02 0 1.41l6 6c.39.39 1.02.39 1.41 0l2.5-2.5c.39-.4.39-1.03 0-1.42l-6-6Z"/></g></svg>