<svg viewBox="0 0 24 24" xmlns="http://www.w3.org/2000/svg"><g fill-rule="evenodd"><path d="M3.63 1.06c.38-.16.81-.06 1.09.25l13 14c.27.29.34.71.18 1.08 -.16.36-.52.6-.92.6H9.44l-4.71 5.64c-.27.32-.72.44-1.11.3 -.4-.15-.66-.52-.66-.95v-20c0-.42.25-.79.63-.94Zm1.36 3.47v14.69l3.23-3.88c.18-.23.47-.36.76-.36h5.7L4.97 4.52Z"/><path d="M4.73 1.31C4.45 1 4.01.9 3.63 1.05c-.39.15-.64.51-.64.93v20c0 .42.26.79.65.94 .39.14.83.02 1.1-.3l4.7-5.65h7.53c.39 0 .75-.24.91-.61 .15-.37.08-.79-.19-1.09l-13-14ZM3.44 6.65l3-2 1.1 1.66 -3 2L3.43 6.64Zm5.46.52l-5.5 4 1.17 1.61 5.5-4.01 -1.18-1.62Zm-5.52 8.5l8-6 1.2 1.59 -8 6 -1.2-1.6Zm11.2-1.9l-1.2-1.6 -4 3 1.2 1.6 4-3Z"/><path d="M15 10V2h2v8h-2Z"/><path d="M20 7h-8V5h8v2Z"/></g></svg>