<svg viewBox="0 0 24 24" xmlns="http://www.w3.org/2000/svg"><g fill-rule="evenodd"><path d="M5.5 4.86C3.87 5.99 2.99 7.47 2.99 8.99c0 2.02 1.59 4 4.37 5.13l-.76 1.85c-3.2-1.3-5.63-3.84-5.63-7 0-2.35 1.36-4.38 3.35-5.77C6.31 1.8 9.02.96 11.96.96c2.94 0 5.64.83 7.64 2.23 1.99 1.39 3.35 3.42 3.35 5.76s-1.37 4.37-3.36 5.769c-2 1.39-4.71 2.231-7.65 2.231 -.37 0-.72-.02-1.07-.04l.13-2c.3.02.61.03.93.03 2.58 0 4.87-.734 6.49-1.87 1.62-1.14 2.5-2.62 2.5-4.14 0-1.52-.88-3-2.51-4.14 -1.63-1.14-3.92-1.87-6.5-1.87 -2.59 0-4.88.73-6.5 1.86Z"/><path d="M9 12.5c-1.66 0-3 1.34-3 3 0 1.65 1.34 3 3 3 1.65 0 3-1.35 3-3 0-1.66-1.35-3-3-3Z"/><path d="M6.08 21.59l2-4.5 1.82.81 -2 4.5 -1.83-.82Z"/></g></svg>