<svg viewBox="0 0 24 24" xmlns="http://www.w3.org/2000/svg"><g fill-rule="evenodd"><path d="M9 12.5c-1.66 0-3 1.34-3 3 0 1.65 1.34 3 3 3 1.65 0 3-1.35 3-3 0-1.66-1.35-3-3-3Z"/><path d="M6.08 21.59l2-4.5 1.82.81 -2 4.5 -1.83-.82Z"/><path d="M1.29 1.29c.27-.28.68-.37 1.05-.24l10.62 3.86 8.63-3.84c.33-.16.73-.11 1.02.12 .29.22.43.6.36.96l-2 11c-.07.37-.35.68-.72.78l-9 2.5 -.54-1.93 8.39-2.34 1.54-8.53 -7.28 3.23c-.24.1-.51.11-.75.02L3.63 3.61l4.24 11.47 -1.88.69 -5-13.5c-.14-.37-.05-.78.22-1.06Z"/></g></svg>