<svg viewBox="0 0 24 24" xmlns="http://www.w3.org/2000/svg"><g fill-rule="evenodd"><path d="M8.32 1.43c-.19-.28-.5-.44-.83-.44 -.33 0-.64.16-.83.43L4.92 3.95l-2.96.86c-.32.09-.57.33-.67.65 -.11.31-.05.65.15.91L3.31 8.8l-.09 3.07c-.01.32.14.64.41.83 .26.19.61.24.92.13l2.89-1.04 2.89 1.03c.31.11.65.06.92-.14 .26-.2.42-.51.41-.84l-.09-3.08 1.87-2.44c.2-.27.26-.61.15-.92 -.11-.32-.36-.56-.67-.66l-2.95-.87 -1.74-2.54Z"/><path d="M17.32 10.43c-.19-.28-.5-.44-.83-.44 -.33 0-.64.16-.83.43l-1.74 2.53 -2.95.86c-.32.09-.57.33-.67.65 -.11.31-.05.65.15.91l1.87 2.43 -.09 3.07c-.01.32.14.64.41.83 .26.19.61.24.92.13l2.89-1.04 2.89 1.03c.31.11.65.06.92-.14 .26-.2.42-.51.41-.84l-.09-3.08 1.87-2.44c.2-.27.26-.61.15-.92 -.11-.32-.36-.56-.67-.66l-2.95-.87 -1.74-2.54Z"/></g></svg>