<svg viewBox="0 0 24 24" xmlns="http://www.w3.org/2000/svg"><g><path d="M4 11c-1.66 0-3 1.34-3 3v5c0 1.65 1.34 3 3 3h8c1.65 0 3-1.35 3-3v-5c0-1.66-1.35-3-3-3H4Z"/><g fill-rule="evenodd"><path d="M7 8c0-1.66 1.34-3 3-3h10c1.65 0 3 1.34 3 3v6c0 1.65-1.35 3-3 3h-6v-2h6c.55 0 1-.45 1-1V8c0-.56-.45-1-1-1H10c-.56 0-1 .44-1 1v1.5H7V8Z"/><path d="M12 4.5c0-1.11.89-2 2-2h2c1.1 0 2 .89 2 2V6c0 .55-.45 1-1 1 -.56 0-1-.45-1-1V4.5h-2V6c0 .55-.45 1-1 1 -.56 0-1-.45-1-1V4.5Z"/><path d="M5 10.5c0-1.11.89-2 2-2h2c1.1 0 2 .89 2 2V12c0 .55-.45 1-1 1 -.56 0-1-.45-1-1v-1.5H7V12c0 .55-.45 1-1 1 -.56 0-1-.45-1-1v-1.5Z"/></g></g></svg>