<svg viewBox="0 0 24 24" xmlns="http://www.w3.org/2000/svg"><g fill-rule="evenodd"><path d="M2 10.5c-.31 0-.6.14-.79.38 -.19.24-.26.55-.19.85l.74 2.97c.55 2.22 2.55 3.78 4.85 3.78h10.75c2.29 0 4.29-1.57 4.85-3.79l.74-2.98c.07-.3 0-.62-.19-.86 -.19-.25-.49-.39-.79-.39h-20Z"/><path d="M5.1 19.05l1-2 1.78.89 -1 2 -1.79-.9Z"/><path d="M18.89 19.05l-1-2 -1.79.89 1 2 1.78-.9Z"/><path d="M16 6c0-1.39 1.11-2.5 2.5-2.5C19.88 3.5 21 4.61 21 6v5.5h-2V6c0-.28-.23-.5-.5-.5 -.28 0-.5.22-.5.5v1.5h-2V6Z"/></g></svg>