<svg viewBox="0 0 24 24" xmlns="http://www.w3.org/2000/svg"><g fill-rule="evenodd"><path d="M9 6c0-.56.44-1 1-1h4c.55 0 1 .44 1 1v3c0 .55-.45 1-1 1h-4c-.56 0-1-.45-1-1V6Zm2 1v1h2V7h-2Z"/><path d="M9 15c0-.56.44-1 1-1h4c.55 0 1 .44 1 1v7c0 .55-.45 1-1 1h-4c-.56 0-1-.45-1-1v-7Zm2 1v5h2v-5h-2Z"/></g><g><path d="M12.89 1.55c-.17-.34-.52-.56-.9-.56s-.73.21-.9.55l-2.01 4c-.16.3-.14.67.04.97 .18.29.5.47.85.47h4c.34 0 .66-.18.85-.48 .18-.3.19-.67.04-.98l-2-4Z"/><path fill-rule="evenodd" d="M8 9c0-.56.44-1 1-1h6c.55 0 1 .44 1 1v6c0 .55-.45 1-1 1H9c-.56 0-1-.45-1-1V9Zm3 2v2h2v-2h-2Z"/></g></svg>