<svg viewBox="0 0 24 24" xmlns="http://www.w3.org/2000/svg"><g fill-rule="evenodd"><path d="M14 4.5c0-.56.44-1 1-1h5c.55 0 1 .44 1 1v3c0 .55-.45 1-1 1h-5c-.56 0-1-.45-1-1v-3Zm2 1v1h3v-1h-3Z"/><path d="M2 6.5c-.56 0-1 .44-1 1v12c0 .55.44 1 1 1h20c.55 0 1-.45 1-1v-12c0-.56-.45-1-1-1H2ZM15.5 11c-1.39 0-2.5 1.11-2.5 2.5 0 1.38 1.11 2.5 2.5 2.5 1.38 0 2.5-1.12 2.5-2.5 0-1.39-1.12-2.5-2.5-2.5ZM11 13.5c0-2.49 2.01-4.5 4.5-4.5 2.48 0 4.5 2.01 4.5 4.5 0 2.48-2.02 4.5-4.5 4.5 -2.49 0-4.5-2.02-4.5-4.5Zm-6-2h4v-2H5v2Z"/></g></svg>