<svg viewBox="0 0 24 24" xmlns="http://www.w3.org/2000/svg"><g fill-rule="evenodd"><path d="M6 7c0-3.32 2.68-6 6-6 3.31 0 6 2.68 6 6 0 3.31-2.69 6-6 6 -3.32 0-6-2.69-6-6Zm5-3v3c0 .55.44 1 1 1h3V6h-2V4h-2Z"/><path d="M8.53 14l.29.44 1.99 2.99c.2.3.22.7.04 1.02 -.18.32-.52.52-.89.52h-9v3c0 .55.44 1 1 1h18.5c1.38 0 2.5-1.12 2.5-2.5v-.78c0-.25-.04-.49-.11-.73h-9.4c-.3 0-.58-.14-.77-.36l-2.5-3 -.01-.01v-.01l-1.34-1.64h-.36Zm-2.4 0l1.01 1.54h-.01l0 0 .96 1.44H.95v-2c0-.56.44-1 1-1h4.14Zm5.62.36l-.3-.37h4.82c.68 0 1.34.23 1.87.65l2.92 2.34h-7.14l-2.2-2.64Z"/></g></svg>