<svg viewBox="0 0 24 24" xmlns="http://www.w3.org/2000/svg"><g fill-rule="evenodd"><path d="M1 4c0-.56.44-1 1-1h20c.55 0 1 .44 1 1v3c0 .55-.45 1-1 1 -.83 0-1.5.67-1.5 1.5 0 .82.67 1.5 1.5 1.5 .55 0 1 .44 1 1v3c0 .55-.45 1-1 1h-5v-2h4v-1.15c-1.45-.44-2.5-1.77-2.5-3.36 0-1.59 1.05-2.93 2.5-3.36V4.98H3v1.14c1.44.43 2.5 1.76 2.5 3.35 0 1.58-1.06 2.92-2.5 3.35v1.14h4v2H2c-.56 0-1-.45-1-1v-3c0-.56.44-1 1-1 .82 0 1.5-.68 1.5-1.5 0-.83-.68-1.5-1.5-1.5 -.56 0-1-.45-1-1v-3Z"/><path d="M6 15c0-3.32 2.68-6 6-6 3.31 0 6 2.68 6 6 0 3.31-2.69 6-6 6 -3.32 0-6-2.69-6-6Zm5-3v3.5c0 .37.21.72.55.89l2 1 .89-1.79 -1.45-.73v-2.89h-2Z"/></g></svg>