<svg viewBox="0 0 24 24" xmlns="http://www.w3.org/2000/svg"><g fill-rule="evenodd"><path d="M2 3c-.56 0-1 .44-1 1v16c0 .55.44 1 1 1h4c.55 0 1-.45 1-1V4c0-.56-.45-1-1-1H2Z"/><path d="M6 19h16v2H6v-2Z"/><path d="M12.34 7.45l-.29-.46h3.72c.69 0 1.36.23 1.89.67l2.83 2.32H14l-1.7-2.55Zm-1.7 1.06l-.95-1.53H8.48c.33 0 .64.16.83.44l2 3c.2.3.22.7.04 1.02 -.18.32-.52.52-.89.52h-4.5c-.56 0-1-.45-1-1v6c0 .55.44 1 1 1h13.5c1.93 0 3.5-1.57 3.5-3.5v-.82c0-.6-.16-1.18-.44-1.69h-9.07c-.34 0-.65-.17-.84-.45l-2-3c-.01-.01-.02-.02-.02-.03ZM6.99 9.98v-1h.96l.66 1H6.97Z"/></g></svg>