<svg viewBox="0 0 24 24" xmlns="http://www.w3.org/2000/svg"><g><path d="M18.32 13.06l-.83-.57 -.83.56 -.02-.02 -.03-.04c-.03-.04-.06-.09-.1-.15 -.09-.13-.21-.31-.35-.53 -.29-.45-.68-1.06-1.06-1.72 -.39-.67-.78-1.4-1.09-2.09 -.29-.65-.56-1.4-.56-2.04 0-2.21 1.79-4 4-4 2.2 0 4 1.79 4 4 0 .64-.27 1.39-.56 2.03 -.31.68-.7 1.42-1.09 2.08 -.39.66-.78 1.27-1.06 1.71 -.15.22-.27.4-.35.52 -.05.06-.08.11-.1.14l-.03.03 -.02.01Z"/><path d="M18.32 13.06c-.19.27-.5.43-.83.43 -.33 0-.64-.17-.83-.44 0 0 0 0 .82-.57 .82.56.82.56.82.56Z"/><path fill-rule="evenodd" d="M13.5 13.5c-.56 0-1 .44-1 1 0 .55.44 1 1 1h5c1.65 0 3 1.34 3 3 0 1.65-1.35 3-3 3h-13v-2h13c.55 0 1-.45 1-1 0-.56-.45-1-1-1h-5c-1.66 0-3-1.35-3-3 0-1.66 1.34-3 3-3h4v2h-4Z"/><path d="M4.67 21.06s0 0 .82-.57c.82.56.82.56.82.56 -.19.27-.5.43-.83.43 -.33 0-.64-.17-.83-.44Z"/><path d="M4.67 21.06l.82-.57 .82.56 0-.01 0-.01 .01-.03c.01-.03.03-.06.06-.1 .05-.09.13-.21.23-.36 .19-.3.45-.71.71-1.16 .25-.45.52-.95.73-1.43 .19-.44.39-.99.39-1.5 0-1.66-1.35-3-3-3 -1.66 0-3 1.34-3 3 0 .5.2 1.05.39 1.49 .2.47.47.97.73 1.42 .26.44.52.86.71 1.15 .09.14.17.27.23.35 .02.04.05.07.06.09l.01.02 0 0 0 0Z"/></g></svg>