<svg viewBox="0 0 24 24" xmlns="http://www.w3.org/2000/svg"><g fill-rule="evenodd"><path d="M4.79 19.79l14.5-14.5L20.7 6.7 6.2 21.2l-1.42-1.42Z"/><path d="M14.2 6.37l2.58-2.59 1.41 1.41 -2.59 2.58c-.4.39-.4 1.02 0 1.41l1.17 1.17c.39.39 1.02.39 1.41 0l2.58-2.59 1.41 1.41 -2.59 2.58c-1.18 1.17-3.08 1.17-4.25 0l-1.18-1.18c-1.18-1.18-1.18-3.08 0-4.25Z"/><path d="M19.707 19.29l-9-9 -1.42 1.41 8.99 9 1.41-1.42Z"/><path d="M3.49 4.09c1.1-1.11 2.86-1.18 4.05-.17l3.43 2.9c1.33 1.13 1.42 3.17.18 4.41l-.93.92c-1.25 1.24-3.28 1.15-4.42-.19L2.89 8.52c-1.01-1.2-.94-2.96.16-4.06l.39-.4Z"/></g></svg>