<svg viewBox="0 0 24 24" xmlns="http://www.w3.org/2000/svg"><g fill-rule="evenodd"><path d="M6 2c0-.56.44-1 1-1h10c.55 0 1 .44 1 1v3c0 .55-.45 1-1 1H7c-.56 0-1-.45-1-1V2Zm2 1v1h8V3H8Z"/><path d="M10 5v3H8V5h2Z"/><path d="M16 5v3h-2V5h2Z"/><path d="M5 8c0-.56.44-1 1-1h12c.55 0 1 .44 1 1v14c0 .55-.45 1-1 1h-4.5c.55 0 1-.45 1-1v-4c0-.56-.45-1-1-1h-3c-.56 0-1 .44-1 1v4c0 .55.44 1 1 1H6c-.56 0-1-.45-1-1V8Zm6.5 13v-2h1v2h-1Zm-1-8.5h-2v-2h2v2Zm-2 3.5h2v-2h-2v2Zm7-3.5h-2v-2h2v2Zm-2 3.5h2v-2h-2v2Z"/></g></svg>