<svg viewBox="0 0 24 24" xmlns="http://www.w3.org/2000/svg"><g fill-rule="evenodd"><path d="M15 5c0-.56.44-1 1-1 .55 0 .99.44 1 .99 0 0 0 0 0 0 -.01 0-.01.01-.01.05 -.01.03-.02.08-.04.15 -.04.13-.11.29-.19.48 -.17.37-.4.8-.64 1.22 -.05.07-.1.15-.14.22 -.05-.08-.09-.16-.14-.23 -.25-.42-.48-.85-.64-1.23 -.09-.19-.15-.36-.19-.49 -.02-.07-.04-.12-.04-.16 -.01-.04-.01-.05-.01-.06 0-.01 0-.01 0-.01v0Zm2-.01s0 0 0 0v-.01s0 0 0 0Zm-3.83-1c-.12.31-.18.64-.18 1 0 .5.2 1.05.39 1.49 .2.47.47.97.73 1.42 .26.44.52.86.71 1.15 .09.14.17.27.23.35 .02.04.05.07.06.09l.01.02 0 0 0 0 0 0 0 0s0 0 .82-.57l-.83.56c.18.27.49.43.82.43 .32 0 .63-.17.82-.44l-.83-.57c.82.56.82.56.82.56l0-.01 0-.01 0-.01 0-.01 .01-.03c.01-.03.03-.06.06-.1 .05-.09.13-.21.23-.36 .19-.3.45-.71.71-1.16 .25-.45.52-.95.73-1.43 .19-.44.39-.99.39-1.5 0-.36-.07-.69-.18-1h3.17c.55 0 1 .44 1 1V5l-1.79 2.22 -5.4 6.74L2.44 4.04l-.27-.2H13ZM.99 16.63V5.48l.4.3 5.17 3.88 -5.36 6.69 -.22.27Zm0 3.2v.14c0 .55.44 1 1 1h19.66l-.27-.2 -13.23-9.92 -5.4 6.74 -1.79 2.22ZM22.77 8.6l.21-.28v11.14l-.4-.3 -5.18-3.89 5.35-6.7Z"/><path d="M1 5.5v11.14l.21-.28 5.35-6.7 -5.18-3.89 -.4-.3ZM1 20v-.15l1.78-2.23 5.39-6.75 13.22 9.91 .26.2H1.98c-.56 0-1-.45-1-1ZM23 5.14v-.15c0-.56-.45-1-1-1H2.33l.26.2 13.22 9.91 5.39-6.75 1.78-2.23Zm0 3.2l-.22.27 -5.36 6.69 5.17 3.88 .4.3V8.33Zm-7-4.36c-.56 0-1 .44-1 1 0-.01 0-.01 0-.01s0 .01 0 .05c0 .03.01.08.03.15 .03.13.1.29.18.48 .16.37.39.8.63 1.22 .04.07.09.15.13.22 .04-.08.08-.16.13-.23 .24-.42.47-.85.63-1.23 .08-.19.14-.36.18-.49 .01-.07.03-.12.03-.16 0-.04 0-.06 0-.06s0 0 0 0c0-.56-.45-1-1-1Zm0 5c-.83.56-.83.56-.83.56l-.01-.01 -.01-.01 -.01-.01 -.01-.01 -.02-.03c-.02-.03-.04-.06-.07-.1 -.06-.09-.14-.21-.24-.36 -.2-.3-.46-.71-.72-1.16 -.26-.45-.53-.95-.74-1.43 -.2-.44-.4-.99-.4-1.5 0-1.66 1.34-3 3-3 1.65 0 3 1.34 3 3 0 .5-.21 1.05-.4 1.49 -.21.47-.48.97-.74 1.42 -.27.44-.53.86-.72 1.15 -.1.14-.18.27-.24.35 -.03.04-.06.07-.07.09l-.02.02 -.01 0 -.01 0 -.01 0 -.01 0s-.01 0-.83-.57Zm0 0l.82.56c-.19.27-.5.43-.83.43 -.33 0-.64-.17-.83-.44l.82-.57Z"/></g></svg>