<svg viewBox="0 0 24 24" xmlns="http://www.w3.org/2000/svg"><g fill-rule="evenodd"><path d="M4 20c0-1.66 1.34-3 3-3h10c1.65 0 3 1.34 3 3v2c0 .55-.45 1-1 1H5c-.56 0-1-.45-1-1v-2Zm3-1c-.56 0-1 .44-1 1v1h12v-1c0-.56-.45-1-1-1H7Z"/><path d="M10.5 1C8.01 1 6 3.01 6 5.5v9c0 2.48 2.01 4.5 4.5 4.5h3c2.48 0 4.5-2.02 4.5-4.5v-9C18 3.01 15.98 1 13.5 1h-3Zm.15 8H8.99V7h3 3v2h-1.66l1.11 3.71c.09.3.03.63-.16.88s-.49.4-.81.4h-3c-.32 0-.62-.15-.81-.41 -.19-.26-.25-.59-.16-.89l1.11-3.72Zm1.34 2.48l.15.51h-.32l.15-.52Z"/></g></svg>