<svg viewBox="0 0 24 24" xmlns="http://www.w3.org/2000/svg"><g fill-rule="evenodd"><path d="M15.5 4c0-.56.44-1 1-1 .55 0 1 .44 1 1v-.01s-.01.01-.01.05c-.01.03-.02.08-.04.15 -.04.13-.11.29-.19.48 -.17.37-.4.8-.64 1.22 -.05.07-.1.15-.14.22 -.05-.08-.09-.16-.14-.23 -.25-.42-.48-.85-.64-1.23 -.09-.19-.15-.36-.19-.49 -.02-.07-.04-.12-.04-.16 -.01-.04-.01-.05-.01-.06 0-.01 0-.01 0-.01v0Zm.17 4.56s0 0 .82-.57l-.83.56c.18.27.49.43.82.43 .32 0 .63-.17.82-.44l-.83-.57c.82.56.82.56.82.56l0-.01 0-.01 0-.01 0-.01 .01-.03c.01-.03.03-.06.06-.1 .05-.09.13-.21.23-.36 .19-.3.45-.71.71-1.16 .25-.45.52-.95.73-1.43 .19-.44.39-.99.39-1.5 0-.02-.01-.04-.01-.05 .77.72 1.44 1.55 1.98 2.47l-1.07.76 -.02.01 -4 3c-.17.12-.29.29-.35.48l-1 3c-.12.35-.03.75.24 1.02l4 4 .77.77c-.71.76-1.53 1.42-2.43 1.96l-.86-1.08c-.03-.03-.05-.06-.08-.09l-2-2c-.19-.19-.45-.3-.71-.3h-4c-.27 0-.52.1-.71.29l-2 2L6.1 21.21c-2.98-1.85-5.02-5.07-5.21-8.78l.48.27s.01 0 .02.01l5.28 2.82c1.59.85 3.41-.69 2.83-2.4l-.85-2.55 1.38-.28c.22-.05.41-.17.56-.34l2.13-2.51c.16-.19.24-.43.23-.68l-.14-4.99V.83c.68.06 1.34.18 1.98.36 -.89.52-1.49 1.48-1.49 2.59 0 .5.2 1.05.39 1.49 .2.47.47.97.73 1.42 .26.44.52.86.71 1.15 .09.14.17.27.23.35 .02.04.05.07.06.09l.01.02 0 0 0 0 0 0 0 0ZM1.11 10.33c.74-4.97 4.81-8.85 9.87-9.31v.95s0 .01 0 .02l.12 4.61 -1.66 1.94 -2.17.43c-.29.05-.53.23-.67.47 -.15.24-.18.54-.09.81l1.2 3.62 -5.28-2.82 -1.37-.78Zm20.46-1.55l.75-.55c.42 1.16.65 2.42.65 3.73 0 2.16-.63 4.18-1.71 5.88l-.59-.59 -3.57-3.57 .7-2.12 3.74-2.81ZM8.09 22.26c1.2.45 2.51.7 3.88.7 1.32 0 2.6-.24 3.78-.67l-.54-.67 -1.67-1.67h-3.18l-1.71 1.7 -.59.58Z"/><path d="M10.99 1.04c-5.06.45-9.13 4.33-9.88 9.3l1.36.77 5.27 2.81 -1.21-3.63c-.1-.28-.07-.58.08-.82 .14-.25.38-.43.66-.48l2.16-.44 1.65-1.95 -.13-4.62c-.01-.01-.01-.02-.01-.03V.99ZM1 12.58c.19 3.7 2.22 6.93 5.2 8.77l1.06-1.07 2-2c.18-.19.44-.3.7-.3h4c.26 0 .51.1.7.29l2 2c.02.02.05.05.07.08l.85 1.07c.9-.54 1.71-1.21 2.42-1.97l-.78-.78 -4-4c-.27-.27-.37-.67-.25-1.03l1-3c.06-.2.18-.37.34-.49l4-3.01 .01-.02 1.06-.77c-1.76-2.98-4.87-5.06-8.49-5.39v.94l.13 4.98c0 .24-.08.48-.24.67l-2.14 2.5c-.15.17-.35.28-.57.33l-1.39.27 .84 2.54c.57 1.71-1.25 3.24-2.84 2.39l-5.29-2.83c-.01-.01-.02-.01-.03-.02l-.49-.28Zm21.33-4.33l-.76.54 -3.75 2.8 -.71 2.11 3.56 3.56 .58.58c1.07-1.71 1.7-3.72 1.7-5.89 0-1.32-.23-2.57-.66-3.74ZM11.98 22.98c-1.37 0-2.68-.25-3.89-.71l.58-.59 1.7-1.71h3.17l1.66 1.66 .53.66c-1.19.43-2.46.66-3.79.66Zm4.49-20c-.56 0-1 .44-1 1 0-.01 0-.01 0-.01s0 .01 0 .05c0 .03.01.08.03.15 .03.13.1.29.18.48 .16.37.39.8.63 1.22 .04.07.09.15.13.22 .04-.08.08-.16.13-.23 .24-.42.47-.85.63-1.23 .08-.19.14-.36.18-.49 .01-.07.03-.12.03-.16 0-.04 0-.06 0-.06s0 0 0 0c0-.56-.45-1-1-1Zm0 5c-.83.56-.83.56-.83.56l-.01-.01 -.01-.01 -.01-.01 -.01-.01 -.02-.03c-.02-.03-.04-.06-.07-.1 -.06-.09-.14-.21-.24-.36 -.2-.3-.46-.71-.72-1.16 -.26-.45-.53-.95-.74-1.43 -.2-.44-.4-.99-.4-1.5 0-1.66 1.34-3 3-3 1.65 0 3 1.34 3 3 0 .5-.21 1.05-.4 1.49 -.21.47-.48.97-.74 1.42 -.27.44-.53.86-.72 1.15 -.1.14-.18.27-.24.35 -.03.04-.06.07-.07.09l-.02.02 -.01 0 -.01 0 -.01 0 -.01 0s-.01 0-.83-.57Zm0 0l.82.56c-.19.27-.5.43-.83.43 -.33 0-.64-.17-.83-.44l.82-.57Z"/></g></svg>