<svg viewBox="0 0 24 24" xmlns="http://www.w3.org/2000/svg"><path fill-rule="evenodd" d="M12 3c-.24 0-.45.13-.56.34l-1.42 2.83 1.83 14.7c0 .06.06.11.13.11 .06 0 .12-.05.13-.12l1.83-14.71 -1.42-2.84c-.11-.21-.32-.35-.56-.35Zm-2.35-.56C10.09 1.55 11 .99 11.99.99c.99 0 1.89.56 2.34 1.44l1.55 3.1c.08.17.12.37.09.57l-1.88 15c-.14 1.06-1.05 1.86-2.12 1.86 -1.08 0-1.99-.81-2.12-1.87L7.97 6.08c-.03-.2 0-.4.09-.58l1.55-3.11Z"/><g><path d="M9.99 6.92c-.03-.34-.22-.63-.51-.8 -.29-.17-.65-.18-.94-.03l-7 3.5c-.34.16-.56.51-.56.89v3c0 .55.44 1 1 1h7.5c.27 0 .54-.12.73-.33 .18-.21.28-.48.26-.76l-.51-6.5Z"/><path d="M14 6.92c.02-.34.21-.63.5-.8 .28-.17.64-.18.93-.03l7 3.5c.33.16.55.51.55.89v3c0 .55-.45 1-1 1h-7.5c-.28 0-.55-.12-.74-.33 -.19-.21-.29-.48-.27-.76l.5-6.5Z"/><path d="M11.48 18.83c-.05-.28-.2-.52-.43-.67 -.23-.16-.51-.21-.78-.15l-4.51 1c-.46.1-.79.5-.79.97v2c0 .55.44 1 1 1h6.18l-.7-4.17Z"/><path d="M12.51 18.83c.04-.28.19-.52.42-.67 .22-.16.5-.21.77-.15l4.5 1c.45.1.78.5.78.97v2c0 .55-.45 1-1 1h-6.19l.69-4.17Z"/></g></svg>