<svg viewBox="0 0 24 24" xmlns="http://www.w3.org/2000/svg"><g fill-rule="evenodd"><path d="M4.29 18.7c-.17-.17-.43-.17-.59 0l-1 1 -1.42-1.42 1-1c.94-.95 2.47-.95 3.41 0 .16.16.42.16.58 0 .94-.95 2.47-.95 3.41 0 .16.16.42.16.58 0 .94-.95 2.47-.95 3.41 0 .16.16.42.16.58 0 .94-.95 2.47-.95 3.41 0 .16.16.42.16.58 0 .94-.95 2.47-.95 3.41 0l1 1 -1.42 1.41 -1-1c-.17-.17-.43-.17-.59 0 -.95.94-2.48.94-3.42 0 -.17-.17-.43-.17-.59 0 -.95.94-2.48.94-3.42 0 -.17-.17-.43-.17-.59 0 -.95.94-2.48.94-3.42 0 -.17-.17-.43-.17-.59 0 -.95.94-2.48.94-3.42 0Z"/><path d="M4.29 14.7c-.17-.17-.43-.17-.59 0l-1 1 -1.42-1.42 1-1c.94-.95 2.47-.95 3.41 0 .16.16.42.16.58 0 .94-.95 2.47-.95 3.41 0 .16.16.42.16.58 0 .94-.95 2.47-.95 3.41 0 .16.16.42.16.58 0 .94-.95 2.47-.95 3.41 0 .16.16.42.16.58 0 .94-.95 2.47-.95 3.41 0l1 1 -1.42 1.41 -1-1c-.17-.17-.43-.17-.59 0 -.95.94-2.48.94-3.42 0 -.17-.17-.43-.17-.59 0 -.95.94-2.48.94-3.42 0 -.17-.17-.43-.17-.59 0 -.95.94-2.48.94-3.42 0 -.17-.17-.43-.17-.59 0 -.95.94-2.48.94-3.42 0Z"/><path d="M15.5 4c-1.66 0-3 1.34-3 3 0 1.65 1.34 3 3 3 1.65 0 3-1.35 3-3 0-1.66-1.35-3-3-3Z"/><path d="M3 6c0-.56.44-1 1-1h4.07c1.53 0 2.97.78 3.79 2.08l2.46 3.87 -1.69 1.07 -2.47-3.88C9.7 7.41 8.9 6.98 8.05 6.98H4.97v.5h3c.35 0 .69.19.86.5 .17.31.17.69-.01 1l-2 3.37 -1.73-1.02 1.1-1.87H3.94c-.56 0-1-.45-1-1v-2.5Z"/></g></svg>