<svg viewBox="0 0 24 24" xmlns="http://www.w3.org/2000/svg"><g fill-rule="evenodd"><path d="M17.58 1.18c.26.18.41.48.41.81v4h-2V3.37L5.3 6.93l-.64-1.9 12-4c.3-.11.64-.06.9.13Z"/><path d="M4 6c0-.56.44-1 1-1h14c.55 0 1 .44 1 1v16c0 .55-.45 1-1 1H5c-.56 0-1-.45-1-1V6Zm6 6.5c0-1.11.89-2 2-2 1.1 0 2 .89 2 2 0 .18-.11.6-.39 1.23 -.27.59-.62 1.25-.99 1.88 -.22.37-.44.73-.64 1.05 -.2-.32-.42-.68-.64-1.06 -.37-.64-.73-1.3-.99-1.89 -.28-.64-.39-1.05-.39-1.24Zm2.82 6.56l-.83-.57c.82.56.82.56.82.56l0-.01 0-.01 0-.01 0-.02 .02-.04c.02-.04.05-.09.09-.15 .08-.13.2-.31.34-.53 .28-.45.67-1.06 1.05-1.72 .38-.67.77-1.4 1.08-2.09 .28-.65.55-1.4.55-2.04 0-2.21-1.8-4-4-4 -2.21 0-4 1.79-4 4 0 .64.26 1.39.55 2.03 .3.68.69 1.42 1.08 2.08 .38.66.77 1.27 1.05 1.71 .14.22.26.4.34.52 .04.06.07.11.09.14l.02.03 0 .01 0 0 0 0 0 0s0 0 .82-.57l-.83.56c.18.27.49.43.82.43 .32 0 .63-.17.82-.44Z"/></g></svg>