<svg viewBox="0 0 24 24" xmlns="http://www.w3.org/2000/svg"><g fill-rule="evenodd"><path d="M8.5 2c0-.56.44-1 1-1h11c.55 0 1 .44 1 1v14c0 .55-.45 1-1 1h-6v-2h5V3h-9v5h-2V2Z"/><path d="M9.15 1.05c.39-.15.83-.03 1.1.3l5 6c.24.29.3.71.13 1.06 -.17.35-.52.57-.91.57h-5c-.56 0-1-.45-1-1v-6c0-.43.26-.8.65-.95Zm1.34 3.7v2.23h1.86l-1.87-2.24Z"/><path d="M2.5 8c0-.56.44-1 1-1h11c.55 0 1 .44 1 1v14c0 .55-.45 1-1 1h-11c-.56 0-1-.45-1-1V8Zm7.5 8.88v-2.16l2 1.14 .99-1.74 -3-1.72v-1.92h-2v1.91l-3 1.71 .99 1.73 2-1.15v2.15l-1.45.72 .89 1.78 1.55-.78 1.55.77 .89-1.79 -1.45-.73Z"/></g></svg>