<svg viewBox="0 0 24 24" xmlns="http://www.w3.org/2000/svg"><g fill-rule="evenodd"><path d="M4 10c0-.56.44-1 1-1h14c.55 0 1 .44 1 1 0 1.1.89 2 2 2 .55 0 1 .44 1 1v5c0 .55-.45 1-1 1 -1.11 0-2 .89-2 2 0 .55-.45 1-1 1H5c-.56 0-1-.45-1-1 0-1.11-.9-2-2-2 -.56 0-1-.45-1-1v-5c0-.56.44-1 1-1 1.1 0 2-.9 2-2Zm5.5 1.5c-.56 0-1 .44-1 1V17c0 .55.44 1 1 1v1h2v-1h1v1h2v-1c.55 0 1-.45 1-1v-4.5c0-.56-.45-1-1-1h-5Zm1 4.5v-2.5h3V16h-3Z"/><path d="M11.49 6.08l3.79-3.8 1.41 1.41 -4.5 4.5c-.19.18-.45.29-.71.29 -.27-.01-.52-.11-.71-.3l-2-2 1.41-1.42 1.29 1.29Z"/></g></svg>