<svg viewBox="0 0 24 24" xmlns="http://www.w3.org/2000/svg"><path fill-rule="evenodd" d="M6.62 2.07c.23-.1.5-.1.74 0l4.62 1.85 4.62-1.86c.23-.1.5-.1.74 0l5 2c.37.15.62.51.62.92v16c0 .33-.17.64-.44.82 -.28.18-.63.22-.94.1l-4.63-1.86 -4.63 1.85c-.24.09-.51.09-.75 0l-4.63-1.86 -4.63 1.85c-.31.12-.66.08-.94-.11 -.28-.19-.44-.5-.44-.83v-16c0-.41.24-.78.62-.93l5-2Zm2.01 8.92c.21-.72.64-1.34 1.22-1.78 -.16.52-.27 1.13-.33 1.77h-.9Zm-2.15 1c0-3.04 2.46-5.5 5.5-5.5 3.03 0 5.5 2.46 5.5 5.5 0 3.03-2.47 5.5-5.5 5.5 -3.04 0-5.5-2.47-5.5-5.5Zm8.85-1c-.22-.72-.65-1.34-1.23-1.78 .15.52.26 1.13.32 1.77h.89Zm-.9 2h.89c-.22.71-.65 1.33-1.23 1.77 .15-.53.26-1.14.32-1.78Zm-2.01-2c-.07-.59-.18-1.1-.33-1.48 -.05-.12-.09-.21-.13-.29 -.04.07-.09.17-.13.28 -.15.38-.26.88-.33 1.47h.89Zm-.9 2h.89c-.07.58-.18 1.09-.33 1.47 -.05.11-.09.2-.13.28 -.04-.08-.09-.18-.13-.29 -.15-.39-.26-.89-.33-1.48Zm-2.01 0c.05.64.16 1.24.32 1.77 -.58-.45-1.02-1.07-1.23-1.78h.89Zm2.26 2.05l0-.01c-.01 0-.01 0-.01 0Zm.38-.01l0 0s-.01 0-.01-.01l-.01-.01Zm0-6.11c0-.01 0-.01 0-.01l-.01 0Zm-.39 0l-.01-.01c0-.01 0 0 0 0Z"/></svg>