<svg viewBox="0 0 24 24" xmlns="http://www.w3.org/2000/svg"><path fill-rule="evenodd" d="M10.99 1.04c-5.06.45-9.13 4.33-9.88 9.3l1.36.77 5.27 2.81 -1.21-3.63c-.1-.28-.07-.58.08-.82 .14-.25.38-.43.66-.48l2.16-.44 1.65-1.95 -.13-4.62c-.01-.01-.01-.02-.01-.03V.99ZM1 12.58c.19 3.7 2.22 6.93 5.2 8.77l1.06-1.07 2-2c.18-.19.44-.3.7-.3h4c.26 0 .51.1.7.29l2 2c.02.02.05.05.07.08l.85 1.07c.9-.54 1.71-1.21 2.42-1.97l-.78-.78 -4-4c-.27-.27-.37-.67-.25-1.03l1-3c.06-.2.18-.37.34-.49l4-3 .01-.02 1.06-.77C19.62 3.38 16.51 1.3 12.89.97v.94l.13 4.98c0 .24-.08.48-.24.67l-2.14 2.5c-.15.17-.35.28-.57.33l-1.39.27 .84 2.54c.57 1.71-1.25 3.24-2.84 2.39l-5.29-2.83c-.01-.01-.02-.01-.03-.02l-.49-.28Zm21.33-4.33l-.76.54 -3.75 2.8 -.71 2.11 3.56 3.56 .58.58c1.07-1.71 1.7-3.72 1.7-5.89 0-1.32-.23-2.57-.66-3.74ZM11.98 22.98c-1.37 0-2.68-.25-3.89-.71l.58-.59 1.7-1.71h3.17l1.66 1.66 .53.66c-1.19.43-2.46.66-3.79.66Z"/></svg>