<svg viewBox="0 0 24 24" xmlns="http://www.w3.org/2000/svg"><g fill-rule="evenodd"><path d="M8.61 15.33c0-3.98 3.21-7.2 7.19-7.2 3.97 0 7.19 3.21 7.19 7.19 0 3.97-3.22 7.19-7.2 7.19s-7.2-3.22-7.2-7.2Zm4.28 0c0-1.61 1.3-2.91 2.9-2.91 1.6 0 2.9 1.3 2.9 2.9 0 1.6-1.31 2.9-2.91 2.9 -1.61 0-2.91-1.31-2.91-2.91Z"/><path d="M1 2.47c0-.56.44-1 1-1h5.14c.32 0 .63.16.82.43l1.41 2.06h9.75c.55 0 1 .44 1 1v2.26h-2V5.95H8.83c-.33 0-.64-.17-.83-.44L6.58 3.44H2.96v15.14h5.19v2h-6.2c-.56 0-1-.45-1-1V2.43Z"/></g></svg>