<svg viewBox="0 0 24 24" xmlns="http://www.w3.org/2000/svg"><path fill-rule="evenodd" d="M2 2.8c-.56 0-1 .44-1 1v16.19c0 .55.44 1 1 1h20c.55 0 1-.45 1-1V6.65c0-.56-.45-1-1-1H10.63L9.02 3.23c-.19-.28-.5-.45-.84-.45h-6.2Zm5.44 10.52c.26.4.72 1.01 1.36 1.55 .8.69 1.86 1.25 3.19 1.25 1.32 0 2.38-.57 3.19-1.26 .63-.55 1.09-1.15 1.36-1.56 -.27-.41-.73-1.02-1.36-1.56 -.81-.7-1.87-1.26-3.2-1.26s-2.39.56-3.2 1.25c-.64.54-1.1 1.15-1.37 1.55Zm.06-3.08c1.05-.91 2.55-1.74 4.49-1.74 1.93 0 3.43.83 4.49 1.73 1.04.89 1.69 1.89 1.96 2.35 .26.44.26.99 0 1.44 -.27.45-.92 1.45-1.97 2.35 -1.06.9-2.558 1.73-4.5 1.73 -1.94 0-3.44-.84-4.5-1.74 -1.05-.9-1.7-1.9-1.97-2.36 -.27-.45-.27-1 0-1.45 .26-.46.91-1.46 1.96-2.36Zm2.06 3.07c0-1.35 1.08-2.43 2.42-2.43 1.34 0 2.42 1.08 2.42 2.42 0 1.34-1.09 2.42-2.43 2.42 -1.35 0-2.43-1.09-2.43-2.43Z"/></svg>