<svg viewBox="0 0 24 24" xmlns="http://www.w3.org/2000/svg"><g fill-rule="evenodd"><path d="M3.5 8.61c-.56 0-1 .44-1 1v12.38c0 .55.44 1 1 1h17.14c.55 0 1-.45 1-1v-9.53c0-.56-.45-1-1-1h-8.99l-1.61-2.42c-.19-.28-.5-.45-.84-.45H3.48Z"/><path d="M2.5 5.8c0-.56.44-1 1-1h5.71c.33 0 .64.16.83.44l1.6 2.41h8.98c.55 0 1 .44 1 1v9.52h-2V9.64h-8.53c-.34 0-.65-.17-.84-.45L8.64 6.77H4.46v11.38h-2V5.76Z"/><path d="M2.5 2c0-.56.44-1 1-1h5.71c.33 0 .64.16.83.44l1.6 2.41h8.98c.55 0 1 .44 1 1v9.52h-2V5.84h-8.53c-.34-.001-.65-.17-.84-.45L8.64 2.97H4.46V14.35h-2V1.97Z"/></g></svg>