<svg viewBox="0 0 24 24" xmlns="http://www.w3.org/2000/svg"><g fill-rule="evenodd"><path d="M1 2.45c0-.56.44-1 1-1h5.14c.32 0 .63.16.82.43l1.41 2.06h9.75c.55 0 1 .44 1 1V7.2h-2V5.93H8.83c-.33 0-.64-.17-.83-.44L6.58 3.42H2.96v15.14h5.19v2h-6.2c-.56 0-1-.45-1-1V2.41Z"/><path d="M15.8 8.11c-3.98 0-7.2 3.21-7.2 7.19 0 3.97 3.21 7.19 7.19 7.19 3.97 0 7.19-3.22 7.19-7.2s-3.22-7.2-7.2-7.2Zm-1 6.27v4.72h2v-4.73l1.14 1.14 1.41-1.42 -2.86-2.86c-.4-.4-1.03-.4-1.42 0l-2.86 2.85 1.41 1.41 1.15-1.16Z"/></g></svg>