<svg viewBox="0 0 24 24" xmlns="http://www.w3.org/2000/svg"><path fill-rule="evenodd" d="M1 3.8c0-.56.44-1 1-1h6.19c.33 0 .64.16.83.44l1.6 2.41h11.36c.55 0 1 .44 1 1v13.33c0 .55-.45 1-1 1h-20c-.56 0-1-.45-1-1V3.78Zm16.2 9.6c.15-.37.08-.8-.2-1.09l-3.75-3.97c-.19-.2-.46-.32-.73-.32 -.28 0-.54.11-.73.31l-3.76 3.96c-.28.29-.35.71-.2 1.08 .15.36.51.6.91.6h1.58c-.19.7-.66 1.32-1.32 1.69l-1.84 1.03c-.4.22-.6.68-.48 1.125 .11.43.51.74.96.74h2.15c2.68 0 4.9-2.01 5.23-4.61h1.18c.39 0 .76-.24.91-.61Z"/></svg>