<svg viewBox="0 0 24 24" xmlns="http://www.w3.org/2000/svg"><path fill-rule="evenodd" d="M2 2.8c-.56 0-1 .44-1 1v16.19c0 .55.44 1 1 1h20c.55 0 1-.45 1-1V6.65c0-.56-.45-1-1-1H10.63L9.02 3.23c-.19-.28-.5-.45-.84-.45h-6.2Zm6.42 8.86c.84.84 2.03 1.61 3.57 1.61s2.73-.77 3.57-1.62c.41-.42.73-.85.94-1.16 .1-.16.18-.29.23-.38 .02-.05.04-.08.05-.1l.01-.02 0-.01c-.01 0-.01 0 .89.44 .89.44.89.44.89.44l-.01 0 -.01 0 -.01 0 -.01.01c-.01.01-.02.02-.03.04 -.02.03-.05.08-.09.14 -.07.12-.18.29-.31.49 -.23.33-.55.77-.97 1.22l1.2 1.2 -1.42 1.41 -1.32-1.32c-.75.49-1.65.89-2.7 1.05v1.45h-2v-1.46c-1.06-.17-1.95-.57-2.7-1.06l-1.32 1.31 -1.42-1.42 1.2-1.21c-.43-.46-.75-.89-.97-1.23 -.14-.2-.24-.37-.31-.5 -.04-.07-.07-.12-.09-.15 -.01-.02-.02-.04-.03-.05l-.01-.02 -.01-.01 -.01-.01 -.01-.01c-.01-.01-.01-.01.89-.45 .89-.45.89-.45.89-.45l-.01-.01 -.01-.01 -.01-.01c-.01-.01 0 0 0 0l.01.01c.01.01.02.05.05.09 .04.08.12.21.23.37 .21.31.52.73.94 1.15Z"/></svg>