<svg viewBox="0 0 24 24" xmlns="http://www.w3.org/2000/svg"><path fill-rule="evenodd" d="M2 2.8c-.56 0-1 .44-1 1v16.19c0 .55.44 1 1 1h20c.55 0 1-.45 1-1V6.65c0-.56-.45-1-1-1H10.63L9.02 3.23c-.19-.28-.5-.45-.84-.45h-6.2Zm13.33 5.23c-1.35 0-2.43 1.08-2.43 2.42 0 1.34 1.08 2.42 2.42 2.42 1.34 0 2.42-1.09 2.42-2.43 0-1.35-1.09-2.43-2.43-2.43Zm-5.37 2.86c.3-.04.61.06.83.28l2.45 2.45 1.35-.34c.39-.1.81.05 1.05.38l2.38 3.33c.21.3.24.7.07 1.03 -.18.33-.52.54-.89.54H6.72c-.36 0-.69-.2-.87-.51 -.18-.32-.18-.7 0-1.01l3.33-5.72c.15-.27.42-.45.73-.49Z"/></svg>