<svg viewBox="0 0 24 24" xmlns="http://www.w3.org/2000/svg"><path fill-rule="evenodd" d="M1 3.8c0-.56.44-1 1-1h6.19c.33 0 .64.16.83.44l1.6 2.41h11.36c.55 0 1 .44 1 1v13.33c0 .55-.45 1-1 1h-20c-.56 0-1-.45-1-1V3.78Zm9.61 9.52c0-.77.61-1.39 1.38-1.39 .76 0 1.38.61 1.38 1.38 0 .76-.62 1.38-1.39 1.38 -.77 0-1.39-.62-1.39-1.39Zm.38-4.29v1.05c-.21.06-.4.14-.577.23l-.75-.75 -1.42 1.41 .74.74c-.1.18-.18.37-.24.57h-1.06v2h1.05c.06.2.14.39.23.57l-.75.74L9.62 17l.74-.75c.18.09.37.17.577.23v1.05h2v-1.06c.2-.07.39-.15.57-.24l.74.74 1.41-1.42 -.75-.75c.09-.19.17-.38.23-.58h1.05v-2h-1.06c-.07-.21-.15-.4-.24-.58l.74-.75 -1.42-1.42 -.75.74c-.19-.1-.38-.18-.58-.24V8.91h-2Z"/></svg>