<svg viewBox="0 0 24 24" xmlns="http://www.w3.org/2000/svg"><g fill-rule="evenodd"><path d="M8.31 17.92c-.83 0-1.5.67-1.5 1.5v1.07h10.37v-1.08c0-.83-.68-1.5-1.5-1.5h-.41v-1h.4c1.38 0 2.5 1.11 2.5 2.5v1.57c0 .27-.23.5-.5.5H6.29c-.28 0-.5-.23-.5-.5V19.4c0-1.39 1.11-2.5 2.5-2.5h.4v1h-.41Z"/><path d="M12 6.5c-3.04 0-5.53 2.52-5.53 5.65 0 3.13 2.48 5.65 5.52 5.65 3.03 0 5.522-2.53 5.522-5.66 0-3.14-2.49-5.66-5.53-5.66Zm-6.53 5.65c0-3.67 2.9-6.66 6.52-6.66 3.61 0 6.522 2.99 6.522 6.65s-2.91 6.65-6.53 6.65 -6.53-3-6.53-6.66Z"/><path d="M19.61 8.22c-.81-1.63-2.12-2.95-3.72-3.78l.45-.89c1.79.92 3.25 2.41 4.15 4.22l-.9.44Z"/><path d="M4.44 8.22c.8-1.63 2.11-2.95 3.71-3.78l-.46-.89c-1.8.92-3.26 2.41-4.16 4.22l.89.44Z"/><path d="M12 11.11c-.55 0-1.01.45-1.01 1.03 0 .58.46 1.03 1 1.03s1-.46 1-1.04c0-.59-.47-1.04-1.01-1.04Zm-2.01 1.03c0-1.12.88-2.04 2-2.04 1.11 0 2 .92 2 2.03 0 1.11-.89 2.03-2.01 2.03 -1.12 0-2.01-.93-2.01-2.04Z"/></g></svg>