<svg viewBox="0 0 24 24" xmlns="http://www.w3.org/2000/svg"><g fill-rule="evenodd"><path d="M18.12 5c-1.03 0-2.04.16-3.01.48l-2.62.87v12.94l2.3-.77c1.07-.36 2.19-.54 3.32-.54h2.37v-13H18.1Zm-3.33-.47c1.07-.36 2.19-.54 3.32-.54h2.87c.27 0 .5.22.5.5v14c0 .27-.23.5-.5.5H18.1c-1.03 0-2.04.16-3.01.48l-2.97.98c-.16.05-.33.02-.46-.07 -.14-.1-.21-.25-.21-.41v-14c0-.22.13-.41.34-.48l2.96-.99Z"/><path d="M5.87 5c1.02 0 2.03.16 3 .48l2.61.87v12.94l-2.31-.77c-1.08-.36-2.2-.54-3.33-.54H3.46v-13h2.37Zm3.32-.47c-1.08-.36-2.2-.54-3.33-.54H2.98c-.28 0-.5.22-.5.5v14c0 .27.22.5.5.5h2.87c1.02 0 2.03.16 3 .48l2.96.98c.15.05.32.02.45-.07 .13-.1.2-.25.2-.41v-14c0-.22-.14-.41-.35-.48L9.14 4.5Z"/></g></svg>