<svg viewBox="0 0 24 24" xmlns="http://www.w3.org/2000/svg"><g fill-rule="evenodd"><path d="M1.5 7c0-1.39 1.11-2.5 2.5-2.5h16c1.38 0 2.5 1.11 2.5 2.5v11c0 1.38-1.12 2.5-2.5 2.5H4c-1.39 0-2.5-1.12-2.5-2.5V7ZM4 5.5c-.83 0-1.5.67-1.5 1.5v11c0 .82.67 1.5 1.5 1.5h16c.82 0 1.5-.68 1.5-1.5V7c0-.83-.68-1.5-1.5-1.5H4Z"/><path d="M2.13 7.6c-.4-1.58.79-3.11 2.42-3.11h14.87c1.62 0 2.81 1.52 2.42 3.1l-.5 2c-.28 1.11-1.28 1.89-2.43 1.89H5.03c-1.15 0-2.15-.79-2.43-1.9l-.5-2Zm2.42-2.11c-.98 0-1.7.91-1.46 1.86l.5 2c.16.66.76 1.13 1.45 1.13h13.87c.68 0 1.28-.47 1.45-1.14l.5-2c.23-.95-.48-1.87-1.46-1.87H4.52Z"/><path d="M6.5 4c0-1.39 1.11-2.5 2.5-2.5h6c1.38 0 2.5 1.11 2.5 2.5v1c0 .27-.23.5-.5.5H7c-.28 0-.5-.23-.5-.5V4ZM9 2.5c-.83 0-1.5.67-1.5 1.5v.5h9V4c0-.83-.68-1.5-1.5-1.5H9Z"/><path d="M16.5 13.5v-5h1v5h-1Z"/><path d="M6.5 13.5v-5h1v5h-1Z"/></g></svg>