<svg viewBox="0 0 24 24" xmlns="http://www.w3.org/2000/svg"><g fill-rule="evenodd"><path d="M7 2.06c.15-.09.34-.09.49 0l2.38 1.35 2.35 1.38c.15.08.24.25.24.42l.02 2.73 -.03 2.72c-.01.17-.1.33-.25.42l-2.37 1.38 -2.38 1.34c-.16.08-.35.08-.5 0l-2.39-1.36 -2.36-1.39c-.16-.09-.25-.26-.25-.43l-.03-2.74 .02-2.73c0-.18.09-.34.24-.43l2.36-1.39L6.91 1.98ZM5.12 4.27L3.01 5.5l-.02 2.44L3 10.38l2.1 1.23 2.12 1.2 2.12-1.21 2.1-1.24 .01-2.45 -.02-2.45 -2.11-1.24 -2.13-1.21 -2.13 1.2Z"/><path d="M16.5 2.06c.15-.09.34-.09.49 0l2.38 1.35 2.35 1.38c.15.08.24.25.24.42l.02 2.73 -.03 2.72c-.01.17-.1.33-.25.42l-2.37 1.38 -2.375 1.34c-.16.08-.35.08-.5 0l-2.39-1.36 -2.36-1.39c-.16-.09-.25-.26-.25-.43l-.03-2.74 .02-2.73c0-.18.09-.34.24-.43l2.36-1.39 2.375-1.35Zm-1.88 2.21L12.51 5.5l-.02 2.44 .01 2.44 2.1 1.23 2.125 1.2 2.12-1.21 2.1-1.24 .01-2.45 -.02-2.45 -2.11-1.24L16.7 3.01l-2.125 1.2Z"/><path d="M11.75 10.26c.15-.09.34-.09.49 0l2.38 1.35 2.35 1.38c.15.08.24.25.24.42l.02 2.73 -.03 2.72c-.01.17-.1.33-.25.42l-2.37 1.38L12.2 22c-.16.08-.35.08-.5 0l-2.39-1.35 -2.36-1.39c-.16-.09-.25-.26-.25-.43l-.03-2.74 .02-2.73c0-.18.09-.34.24-.43l2.36-1.39 2.37-1.346Zm-1.88 2.21L7.76 13.7l-.02 2.44 .01 2.44 2.1 1.23 2.12 1.2 2.12-1.21 2.1-1.24 .01-2.45 -.02-2.45 -2.11-1.24 -2.125-1.21 -2.13 1.2Z"/></g></svg>