<svg viewBox="0 0 24 24" xmlns="http://www.w3.org/2000/svg"><g fill-rule="evenodd"><path d="M20.5 10c0-.28-.23-.5-.5-.5h-7c-.28 0-.5.22-.5.5v10c0 .27.22.5.5.5h7c.27 0 .5-.23.5-.5V10Zm-1 .5v9h-6v-9h6Z"/><path d="M20.5 10c0-.28-.23-.5-.5-.5h-7c-.28 0-.5.22-.5.5v5c0 .27.22.5.5.5h7c.27 0 .5-.23.5-.5v-5Zm-1 .5v4h-6v-4h6Z"/><path d="M9 7c0-.28-.23-.5-.5-.5H5c-.28 0-.5.22-.5.5v3c0 .27.22.5.5.5h3.5c.27 0 .5-.23.5-.5V7Zm-1 .5v2H5.5v-2H8Z"/><path d="M2 10.5h20v-1H2v1Z"/><path d="M4.5 20.2V9.99h-1v10.2h1Z"/><path d="M8.46 4.68l-1 2.5 -.93-.38 1-2.5 .92.37Z"/><path d="M4.58 4.27l2 3 .83-.56 -2-3 -.84.55Z"/></g></svg>