<svg viewBox="0 0 24 24" xmlns="http://www.w3.org/2000/svg"><g fill-rule="evenodd"><path d="M3.5 10c0-.28.22-.5.5-.5h6c.27 0 .5.22.5.5v10c0 .27-.23.5-.5.5H4c-.28 0-.5-.23-.5-.5V10Zm1 .5v9h5v-9h-5Z"/><path d="M11.5 6c0-.28.22-.5.5-.5h5c.27 0 .5.22.5.5v4c0 .27-.23.5-.5.5h-5c-.28 0-.5-.23-.5-.5V6Zm1 .5v3h4v-3h-4Z"/><path d="M9.5 10c0-.28.22-.5.5-.5h10c.27 0 .5.22.5.5v5c0 .27-.23.5-.5.5H10c-.28 0-.5-.23-.5-.5v-5Zm1 .5v4h9v-4h-9Z"/><path d="M22 10.5H2v-1h20v1Z"/><path d="M19.5 20.2V9.99h1v10.2h-1Z"/></g></svg>