<svg viewBox="0 0 24 24" xmlns="http://www.w3.org/2000/svg"><g fill-rule="evenodd"><path d="M12 5.5c-.83 0-1.5.67-1.5 1.5 0 .82.67 1.5 1.5 1.5 .82 0 1.5-.68 1.5-1.5 0-.83-.68-1.5-1.5-1.5ZM9.5 7c0-1.39 1.11-2.5 2.5-2.5 1.38 0 2.5 1.11 2.5 2.5 0 1.38-1.12 2.5-2.5 2.5 -1.39 0-2.5-1.12-2.5-2.5Z"/><path d="M5.5 13.74c1.29 2.24 3.72 3.75 6.49 3.75s5.19-1.51 6.497-3.76l.86.5c-1.47 2.53-4.22 4.24-7.37 4.24 -3.15 0-5.9-1.72-7.37-4.25l.86-.51Z"/><path d="M12.5 2v3h-1V2h1Z"/><path d="M6.53 21.82l5-13 .93.35 -5 13 -.94-.36Z"/><path d="M17.46 21.82l-5-13 -.94.35 5 13 .93-.36Z"/></g></svg>