<svg viewBox="0 0 24 24" xmlns="http://www.w3.org/2000/svg"><g fill-rule="evenodd"><path d="M4.5 4c0-.28.22-.5.5-.5h14c.27 0 .5.22.5.5v11c0 .27-.23.5-.5.5H5c-.28 0-.5-.23-.5-.5V4Zm1 .5v10h13v-10h-13Z"/><path d="M3.5 15c0-.28.22-.5.5-.5h16c.27 0 .5.22.5.5v2.5c0 .27-.23.5-.5.5H4c-.28 0-.5-.23-.5-.5V15Zm1 .5V17h15v-1.5h-15Z"/><path d="M12.5 2v2h-1V2h1Z"/><path d="M11.5 21v-3.5h1V21h-1Z"/><path d="M18.52 22.15l-1.5-4.5 .94-.32 1.5 4.5 -.95.31Z"/><path d="M5.47 22.15l1.5-4.5 -.95-.32 -1.5 4.5 .94.31Z"/></g></svg>