<svg viewBox="0 0 24 24" xmlns="http://www.w3.org/2000/svg"><g fill-rule="evenodd"><path d="M9.49 4.5c0-.28.22-.5.5-.5h4c.27 0 .5.22.5.5v7.36l5.02 8.36c.59.99-.13 2.27-1.29 2.27H5.75c-1.17 0-1.89-1.28-1.29-2.28l5.02-8.37V4.47Zm1 .5v7c0 .09-.03.17-.08.25l-5.1 8.48c-.2.33.04.75.42.75h12.46c.38 0 .62-.43.42-.76l-5.1-8.49c-.05-.08-.08-.17-.08-.26v-7h-3Z"/><path d="M8 3.25c0-.97.78-1.75 1.75-1.75h4.5c.96 0 1.75.78 1.75 1.75C16 4.21 15.21 5 14.25 5h-4.5C8.78 5 8 4.21 8 3.25Zm1.75-.75c-.42 0-.75.33-.75.75 0 .41.33.75.75.75h4.5c.41 0 .75-.34.75-.75 0-.42-.34-.75-.75-.75h-4.5Z"/></g></svg>