<svg viewBox="0 0 24 24" xmlns="http://www.w3.org/2000/svg"><g fill-rule="evenodd"><path d="M15.67 5.25c-.2-.2-.52-.2-.71 0l-9.2 9.19c-.2.19-.2.51 0 .7l2.82 2.82c.19.19.51.19.7 0l9.19-9.2c.19-.2.19-.52 0-.71l-2.83-2.83Zm-.36 1.06l2.12 2.12 -8.49 8.48 -2.13-2.13 8.48-8.49Z"/><path d="M16.65 2.28c-.16.02-.3.12-.37.26l-1.42 2.82c-.1.19-.06.42.09.57l2.82 2.82c.15.15.38.18.57.09l2.82-1.42c.14-.08.24-.21.27-.37 .02-.16-.03-.32-.14-.44l-4.25-4.25c-.12-.12-.28-.17-.44-.14Zm.21 1.33l3.26 3.26 -1.89.94 -2.32-2.32 .94-1.89Z"/><path d="M15.31 2.07l6.36 6.36 .7-.71L16 1.35l-.71.7Z"/><path d="M5.06 16.56c.58-.59 1.53-.59 2.12 0 .58.58.58 1.53 0 2.12 -.27.26-.62.41-.97.43 -.13 0-.24.05-.33.14l-1.19 1.18 -1.42-1.42 1.18-1.19c.08-.09.13-.21.14-.33 .02-.36.16-.7.43-.97Zm2.82-.71c-.98-.98-2.56-.98-3.54 0 -.4.39-.64.89-.71 1.41l-1.42 1.41c-.2.19-.2.51 0 .7l2.12 2.12c.19.19.51.19.7 0l1.41-1.42c.51-.08 1.01-.31 1.41-.71 .97-.98.97-2.56 0-3.54Z"/><path d="M10.36 18.33l-4.95-4.95 -.71.7 4.94 4.94 .7-.71Z"/></g></svg>