<svg viewBox="0 0 24 24" xmlns="http://www.w3.org/2000/svg"><defs><mask id="a"><path fill="#FFF" d="M0 0h24v24H0Z"/></mask></defs><g mask="url(#a)"><g fill-rule="evenodd"><path d="M2.5 9.57c0-.19.09-.35.25-.44l9.07-5.08c.15-.09.33-.09.48 0l9.07 5.07c.15.08.25.25.25.43s-.1.34-.26.43l-9.08 5.07c-.16.08-.34.08-.49 0L2.71 9.97c-.16-.09-.26-.26-.26-.44Zm1.52 0l8.04 4.49 8.04-4.5 -8.05-4.5L4 9.55Z"/><path d="M5.5 17v-5.5h1V17c0 .27.22.5.5.5h10c.27 0 .5-.23.5-.5v-5.5h1V17c0 .82-.68 1.5-1.5 1.5H7c-.83 0-1.5-.68-1.5-1.5Z"/><path d="M20.5 15V9.5h1V15h-1Z"/></g></g></svg>