<svg viewBox="0 0 24 24" xmlns="http://www.w3.org/2000/svg"><g fill-rule="evenodd"><path d="M4 6.75c-.83 0-1.5.67-1.5 1.5v11c0 .82.67 1.5 1.5 1.5h16c.82 0 1.5-.68 1.5-1.5v-11c0-.83-.68-1.5-1.5-1.5h-5.5v-1H20c1.38 0 2.5 1.11 2.5 2.5v11c0 1.38-1.12 2.5-2.5 2.5H4c-1.39 0-2.5-1.12-2.5-2.5v-11c0-1.39 1.11-2.5 2.5-2.5h5.5v1H4Z"/><path d="M9.5 2.75c0-.28.22-.5.5-.5h4c.27 0 .5.22.5.5v4c0 1.38-1.12 2.5-2.5 2.5 -1.39 0-2.5-1.12-2.5-2.5v-4Zm1 .5v3.5c0 .82.67 1.5 1.5 1.5 .82 0 1.5-.68 1.5-1.5v-3.5h-3Z"/><path d="M16.5 12.25h-3v-1h3v1Z"/><path d="M19.5 15.75h-6v-1h6v1Z"/><path d="M8 11.25c-.83 0-1.5.67-1.5 1.5 0 .82.67 1.5 1.5 1.5 .82 0 1.5-.68 1.5-1.5 0-.83-.68-1.5-1.5-1.5Zm-2.5 1.5c0-1.39 1.11-2.5 2.5-2.5 1.38 0 2.5 1.11 2.5 2.5 0 1.38-1.12 2.5-2.5 2.5 -1.39 0-2.5-1.12-2.5-2.5Z"/><path d="M8 16.25c-1.39 0-2.5 1.11-2.5 2.5h-1c0-1.94 1.56-3.5 3.5-3.5 1.93 0 3.5 1.56 3.5 3.5h-1c0-1.39-1.12-2.5-2.5-2.5Z"/></g></svg>