<svg viewBox="0 0 24 24" xmlns="http://www.w3.org/2000/svg"><g fill-rule="evenodd"><path d="M21.5 6.5H18v-1h4c.27 0 .5.22.5.5v16c0 .27-.23.5-.5.5H6c-.28 0-.5-.23-.5-.5v-4h1v3.5h15v-15Z"/><path d="M1.5 2c0-.28.22-.5.5-.5h16c.27 0 .5.22.5.5v10.28c0 .13-.06.25-.15.35l-5.72 5.71c-.1.09-.23.14-.36.14H1.98c-.28 0-.5-.23-.5-.5v-16Zm1 .5v15h9.57l5.42-5.43V2.49h-15Z"/><path d="M12.78 12.78v4l4-4.01h-4.01Zm-1-.5c0-.28.22-.5.5-.5h5.71c.2 0 .38.12.46.3 .07.18.03.4-.11.54l-5.72 5.71c-.15.14-.36.18-.55.1 -.19-.08-.31-.26-.31-.47v-5.72Z"/><path d="M14.28 5.64H5.7v-1h8.57v1Z"/><path d="M14.28 9.78H5.7v-1h8.57v1Z"/></g></svg>