<svg viewBox="0 0 24 24" xmlns="http://www.w3.org/2000/svg"><g fill-rule="evenodd"><path d="M20.81 4.11c.13.11.2.28.18.45l-2 14.5c-.03.15-.12.29-.27.37 -.15.07-.32.07-.46 0l-6.58-3.29 -2.27 4.08c-.1.17-.3.27-.5.25 -.21-.03-.37-.17-.43-.36l-1.94-6.78 -4.29-1.91c-.19-.09-.31-.28-.3-.48 0-.21.13-.39.32-.46l18-6.5c.16-.06.34-.03.48.08ZM3.83 11.04l3.36 1.49c.13.06.23.17.27.31l1.66 5.83 1.91-3.45c.13-.24.42-.33.66-.21l6.37 3.18L19.85 5.2 3.79 10.99Z"/><path d="M20.92 4.23c.14.23.07.54-.16.68L7.26 13.4c-.24.14-.55.07-.69-.16 -.15-.24-.08-.55.15-.69l13.5-8.51c.23-.15.54-.08.68.15Z"/><path d="M20.81 4.11c.21.17.24.48.07.7l-9 11c-.18.21-.49.24-.71.07 -.22-.18-.25-.49-.08-.71l9-11c.17-.22.48-.25.7-.08Z"/></g></svg>