<svg viewBox="0 0 24 24" xmlns="http://www.w3.org/2000/svg"><g fill-rule="evenodd"><path d="M15.35 4.73c.97-.98 2.55-.98 3.53 0 .97.97.97 2.55 0 3.53L8.41 18.72c-.41.4-.93.65-1.5.71 -1.6.17-2.94-1.17-2.77-2.77 .06-.57.31-1.1.71-1.5L15.31 4.696Zm2.82.7c-.59-.59-1.54-.59-2.13 0L5.57 15.89c-.25.24-.4.55-.44.89 -.11.95.7 1.76 1.65 1.65 .33-.04.65-.19.89-.44L18.13 7.52c.58-.59.58-1.54 0-2.13Z"/><path d="M17.12 9.33L14.29 6.5l.7-.71 2.82 2.82 -.71.7Z"/><path d="M2.98 19.937l1.76-1.77 .7.7 -1.77 1.76 -.71-.71Z"/><path d="M17.83 8.62l.7.7c.97.97.97 2.55 0 3.53l-3.54 3.53 -.71-.71 3.53-3.54c.58-.59.58-1.54 0-2.13l-.71-.71 .7-.71Z"/></g></svg>