<svg viewBox="0 0 24 24" xmlns="http://www.w3.org/2000/svg"><g fill-rule="evenodd"><path d="M3.5 2c0-.28.22-.5.5-.5h16c.27 0 .5.22.5.5v14.5c0 .27-.23.5-.5.5H4c-.28 0-.5-.23-.5-.5V2Zm1 .5V16h15V2.5h-15Z"/><path d="M22 2.5H2v-1h20v1Z"/><path d="M22 17H2v-1h20v1Z"/><path d="M12.5 16.5v5h-1v-5h1Z"/><path d="M12.38 16.18l4.5 5.5 -.78.63 -4.5-5.5 .77-.64Z"/><path d="M11.61 16.18l-4.5 5.5 .77.63 4.49-5.5 -.78-.64Z"/><path d="M16.87 7.32l-3 3.5c-.17.19-.45.23-.657.09L10.6 9.17l-2.72 3.62 -.8-.6 3-4c.15-.22.45-.27.67-.12l2.63 1.75 2.71-3.17 .75.65Z"/></g></svg>