<svg viewBox="0 0 24 24" xmlns="http://www.w3.org/2000/svg"><g fill-rule="evenodd"><path d="M5.11 7.27c.18.98.61 2 1.22 2.6 .88.88 1.66 1.53 2.4 1.77 .35.11.69.13 1.03.03 .34-.1.73-.33 1.15-.75 .42-.43.64-.82.74-1.16 .09-.35.07-.68-.04-1.04 -.24-.75-.89-1.53-1.78-2.41 -.61-.61-1.63-1.05-2.61-1.23 -.49-.09-.95-.12-1.31-.07 -.39.04-.6.14-.68.23 -.09.08-.19.29-.24.67 -.05.36-.03.82.06 1.3ZM4.04 5.84c.05-.47.19-.96.52-1.28 .32-.33.8-.47 1.27-.53 .48-.06 1.04-.03 1.6.07 1.1.2 2.33.7 3.13 1.5 .87.87 1.69 1.8 2.01 2.8 .16.51.2 1.05.04 1.61 -.16.55-.49 1.07-1.01 1.59 -.52.51-1.05.84-1.6 1 -.56.15-1.1.11-1.62-.05 -1-.33-1.94-1.15-2.81-2.02 -.8-.8-1.3-2.03-1.51-3.14 -.11-.57-.14-1.12-.08-1.61Z"/><path d="M12.53 12.47l-1.47-.74 .44-.9 1.46.73c.99.49 1.71 1.43 1.93 2.52l.09.45c.15.76.74 1.35 1.51 1.51 1.36.27 2.35 1.47 2.35 2.86l-.01.84h-1l0-.85c0-.92-.65-1.71-1.55-1.89 -1.16-.24-2.07-1.14-2.3-2.295l-.1-.46c-.16-.8-.68-1.47-1.4-1.83Z"/></g></svg>