<svg viewBox="0 0 24 24" xmlns="http://www.w3.org/2000/svg"><g fill-rule="evenodd"><path d="M5.37 9.81c-.1-.26.03-.55.29-.65l12.21-4.45c.25-.1.54.03.64.29l1.02 2.81c.09.25-.04.54-.3.64L7.01 12.89c-.26.09-.55-.04-.65-.3L5.33 9.77Zm1.11.12l.68 1.87 11.27-4.11 -.69-1.88 -11.28 4.1Z"/><path d="M17.253 4.42c-.1-.26.03-.55.29-.65l1.87-.69c.77-.29 1.63.11 1.92.89l1.02 2.81c.28.77-.12 1.63-.9 1.92l-1.88.68c-.26.09-.55-.04-.65-.3l-1.72-4.7Zm1.11.12l1.36 3.75 1.4-.52c.25-.1.39-.39.29-.65L20.38 4.3c-.1-.26-.39-.4-.65-.3l-1.41.51Z"/><path d="M2.43 11.95l3.75-1.37 .34.93 -3.76 1.36 -.35-.94Z"/><path d="M14.5 9.5h1v4c0 .82-.68 1.5-1.5 1.5h-3c-.83 0-1.5-.68-1.5-1.5v-2h1v2c0 .27.22.5.5.5h3c.27 0 .5-.23.5-.5v-4Z"/><path d="M12 20v-5.5h1V20h-1Z"/><path d="M17.61 21.323l-5.5-6.5 .76-.65 5.5 6.5 -.77.64Z"/><path d="M7.38 21.323l5.49-6.5 -.77-.65 -5.5 6.5 .76.64Z"/></g></svg>