<svg viewBox="0 0 24 24" xmlns="http://www.w3.org/2000/svg"><g fill-rule="evenodd"><path d="M18.5 11c0-2.37-1.27-4.44-3.16-5.58l.51-.86c2.17 1.31 3.63 3.69 3.63 6.42 0 4.14-3.36 7.5-7.5 7.5 -2.4 0-4.53-1.12-5.9-2.86l.78-.62c1.19 1.51 3.03 2.47 5.1 2.47 3.58 0 6.5-2.92 6.5-6.5Z"/><path d="M16.81 3.89c.17-.22.14-.53-.08-.71L14.79 1.6c-.22-.18-.53-.15-.71.07L9.62 7.13c-.18.21-.15.52.07.7l1.93 1.57c.21.17.52.14.7-.08l4.45-5.47Zm-1.1-.25l-3.83 4.68 -1.17-.95 3.82-4.69 1.16.94Z"/><path d="M10.5 16h-7v-1h7v1Z"/><path d="M8.8 21.5l1.63-3.28 -.9-.45 -2 4c-.08.15-.07.33.02.48 .09.14.25.23.42.23h8.5c.17 0 .33-.09.42-.24 .09-.15.09-.34.02-.49l-2-4 -.9.44 1.63 3.27H8.75Z"/></g></svg>