<svg viewBox="0 0 24 24" xmlns="http://www.w3.org/2000/svg"><path fill="#8BC94D" d="M12 1.25C9.37 1.25 7.25 3.37 7.25 6v.66c0 1.35-.44 2.66-1.25 3.75l-.2.26c-1.01 1.34-1.55 2.97-1.55 4.65v.66c0 3.72 3.02 6.75 6.75 6.75h2c3.72 0 6.75-3.03 6.75-6.75v-.67c0-1.68-.55-3.31-1.55-4.65l-.2-.27c-.82-1.09-1.25-2.4-1.25-3.76v-.67c0-2.63-2.13-4.75-4.75-4.75Z"/><path fill="#A2D471" fill-rule="evenodd" d="M16 14.75c.41 0 .75.33.75.75 0 2.62-2.13 4.75-4.75 4.75 -.42 0-.75-.34-.75-.75 0-.42.33-.75.75-.75 1.79 0 3.25-1.46 3.25-3.25 0-.42.33-.75.75-.75Z"/></svg>