<svg viewBox="0 0 24 24" xmlns="http://www.w3.org/2000/svg"><g fill="#FFD071"><path d="M4.19 10.2c-.13-.29-.41-.47-.73-.46 -.32.01-.59.21-.69.51l-1.4 4.19c-.1.28-.15.57-.15.86v1.84c0 1.65 2.07 2.38 3.11 1.09l1.84-2.3c.17-.22.21-.51.1-.77l-2.13-5Z"/><path d="M19.8 10.2c.12-.29.4-.47.72-.46 .31.01.58.21.68.51l1.39 4.19c.09.28.14.57.14.86v1.84c0 1.65-2.08 2.38-3.12 1.09l-1.85-2.3c-.18-.22-.22-.51-.11-.77l2.12-5Z"/></g><g fill="#EBB852"><path d="M8.74 7.95c-.02-.25-.15-.47-.36-.6s-.47-.15-.7-.05l-4.5 2c-.38.16-.55.59-.39.97l2.5 6c.11.27.38.46.69.46h2.5c.2 0 .4-.09.54-.24 .14-.16.21-.36.2-.57l-.5-8Z"/><path d="M15.25 7.95c.01-.25.14-.47.35-.6 .21-.13.46-.15.69-.05l4.5 2c.37.16.54.59.38.97l-2.5 6c-.12.27-.39.46-.7.46h-2.5c-.21 0-.41-.09-.55-.24 -.15-.16-.22-.36-.21-.57l.5-8Z"/></g><path fill="#FFD071" d="M9.65 6.25c-1.34 0-2.38 1.14-2.24 2.47l.7 7c.11 1.15 1.08 2.02 2.23 2.02h3.28c1.15 0 2.12-.88 2.23-2.03l.7-7.01c.13-1.33-.91-2.48-2.24-2.48H9.62Z"/></svg>