<svg viewBox="0 0 24 24" xmlns="http://www.w3.org/2000/svg"><path fill="#CFD8DC" d="M12 2.25c-3.04 0-5.73 1.59-7.64 3.79 -1.91 2.19-3.12 5.06-3.12 7.75 0 2.75 1.25 4.78 3.26 6.09 1.97 1.28 4.63 1.85 7.48 1.85 2.846 0 5.5-.58 7.48-1.86 2.01-1.31 3.26-3.35 3.26-6.1 0-2.7-1.21-5.57-3.12-7.76 -1.92-2.2-4.61-3.8-7.64-3.8Z"/><path fill="#EE4D4D" d="M12 5.25c-1.21 0-2.31.67-2.85 1.75l-2.41 4.8c-.34.66-.51 1.4-.51 2.14 0 2.64 2.14 4.79 4.79 4.79h1.9c2.64 0 4.79-2.15 4.79-4.8 0-.75-.18-1.48-.51-2.15l-2.41-4.81c-.54-1.08-1.64-1.76-2.85-1.76Z"/><path fill="#F17171" fill-rule="evenodd" d="M12 10.25c.41 0 .75.33.75.75v7.75h-1.5V11c0-.42.33-.75.75-.75Z"/></svg>