<svg viewBox="0 0 24 24" xmlns="http://www.w3.org/2000/svg"><path fill="#FFD071" d="M12 1.25C6.06 1.25 1.25 6.06 1.25 12c0 5.93 4.81 10.75 10.75 10.75 5.93 0 10.75-4.82 10.75-10.75 0-5.94-4.82-10.75-10.75-10.75Z"/><path fill="#FF71B7" d="M14.15 4.52c-1.11-1.4-3.22-1.4-4.32 0l-.19.23c-.27.34-.7.51-1.13.46l-.3-.04c-1.77-.21-3.26 1.28-3.06 3.05l.03.29c.05.43-.13.85-.47 1.12l-.24.18c-1.4 1.1-1.4 3.21 0 4.31l.23.18c.34.26.51.69.46 1.12l-.04.29c-.21 1.76 1.28 3.25 3.05 3.05l.29-.04c.43-.06.85.12 1.12.46l.18.23c1.1 1.39 3.21 1.39 4.31 0l.18-.24c.26-.35.69-.52 1.12-.47l.29.03c1.76.2 3.25-1.29 3.05-3.06l-.04-.3c-.06-.44.12-.86.46-1.13l.23-.19c1.39-1.11 1.39-3.22 0-4.32l-.24-.19c-.35-.27-.52-.7-.47-1.13l.03-.3c.2-1.77-1.29-3.26-3.06-3.06l-.3.03c-.44.05-.86-.13-1.13-.47L14 4.37Z"/><path fill="#ECEFF1" d="M12 7.75c-2.35 0-4.25 1.9-4.25 4.25 0 2.34 1.9 4.25 4.25 4.25 2.34 0 4.25-1.91 4.25-4.25 0-2.35-1.91-4.25-4.25-4.25Z"/></svg>