<svg viewBox="0 0 24 24" xmlns="http://www.w3.org/2000/svg"><path fill="#FFD071" d="M12 1.25C6.06 1.25 1.25 6.06 1.25 12c0 5.93 4.81 10.75 10.75 10.75 5.93 0 10.75-4.82 10.75-10.75 0-5.94-4.82-10.75-10.75-10.75Z"/><path fill="#FF71B7" fill-rule="evenodd" d="M22.67 10.75c-.62-5.35-5.17-9.5-10.68-9.5C6.05 1.25 1.24 6.06 1.24 12c0 .25 0 .5.02.75h2.72c.69 0 1.25.55 1.25 1.25v2.25c0 1.38 1.11 2.5 2.5 2.5 1.38 0 2.5-1.12 2.5-2.5v-3.5h5.25c.41 0 .75.33.75.75v.25c0 1.1.89 2 2 2 1.1 0 2-.9 2-2V12c0-.7.55-1.25 1.25-1.25h1.17Z"/><path fill="#ECEFF1" d="M12 7.75c-2.35 0-4.25 1.9-4.25 4.25 0 2.34 1.9 4.25 4.25 4.25 2.34 0 4.25-1.91 4.25-4.25 0-2.35-1.91-4.25-4.25-4.25Z"/></svg>