<svg viewBox="0 0 24 24" xmlns="http://www.w3.org/2000/svg"><path fill="#A2D471" fill-rule="evenodd" d="M7.25 2c0-.42.33-.75.75-.75h2c1.51 0 2.75 1.23 2.75 2.75v2.5c0 .41-.34.75-.75.75 -.42 0-.75-.34-.75-.75V4c0-.7-.56-1.25-1.25-1.25H8c-.42 0-.75-.34-.75-.75Z"/><path fill="#F17171" d="M14.31 22.75c4.39 0 7.61-4.13 6.54-8.39l-1.76-7.03c-.31-1.23-1.41-2.09-2.67-2.09h-1.34c-.33 0-.64.05-.94.16l-1.74.63c-.28.1-.58.1-.86 0L9.8 5.39c-.31-.11-.62-.17-.94-.17H7.52c-1.27 0-2.37.85-2.67 2.08l-1.76 7.02c-1.07 4.26 2.15 8.38 6.54 8.38h4.63Z"/><path fill="#8BC94D" fill-rule="evenodd" d="M14.31 21.25c3.41 0 5.92-3.21 5.09-6.53l-1.76-7.03c-.14-.56-.64-.95-1.22-.95h-1.34c-.15 0-.3.02-.43.07l-1.74.63c-.61.22-1.28.22-1.88 0L9.29 6.8c-.14-.05-.29-.08-.43-.08H7.52c-.58 0-1.08.39-1.22.94l-1.76 7.02c-.83 3.31 1.67 6.52 5.09 6.52h4.63Zm6.54-6.89c1.06 4.26-2.16 8.38-6.55 8.38H9.66c-4.4 0-7.62-4.13-6.55-8.39l1.75-7.03c.3-1.23 1.4-2.09 2.66-2.09h1.33c.32 0 .63.05.93.16l1.73.63c.27.1.57.1.85 0l1.73-.64c.3-.11.61-.17.93-.17h1.33c1.26 0 2.36.85 2.66 2.08l1.75 7.02Z"/><g fill="#EE4D4D"><path d="M13.5 8.75c2.77 0 4.75 2.73 4.75 5.75 0 3.01-1.98 5.75-4.75 5.75 -.42 0-.75-.34-.75-.75v-10c0-.42.33-.75.75-.75Z"/><path d="M10.5 8.75c-2.78 0-4.75 2.73-4.75 5.75 0 3.01 1.97 5.75 4.75 5.75 .41 0 .75-.34.75-.75v-10c0-.42-.34-.75-.75-.75Z"/></g></svg>