<svg viewBox="0 0 24 24" xmlns="http://www.w3.org/2000/svg"><path fill="#ECEFF1" d="M5 7.25c-.42 0-.75.33-.75.75v12c0 1.51 1.23 2.75 2.75 2.75h10c1.51 0 2.75-1.24 2.75-2.75V8c0-.42-.34-.75-.75-.75H5Z"/><g fill="#FFC44D"><path d="M4.49 4.25c-.34 0-.63.22-.73.54l-.74 2.58c-.28.96.64 1.84 1.59 1.52l1.91-.64 5.21.94c.16.02.33.02.49-.01l4.22-.94 2.98.74c.93.23 1.76-.64 1.5-1.56l-.77-2.67c-.1-.33-.39-.55-.73-.55h-15Z"/><path d="M12.44 10.4c-.27-.2-.64-.2-.9 0l-2 1.5c-.19.14-.3.36-.3.6v1.625l-1.7 1.27c-.19.14-.3.36-.3.6v2c0 .23.11.45.3.6l2 1.5c.26.2.63.2.89 0l1.55-1.17 1.55 1.16c.26.2.63.2.9 0l2-1.5c.18-.15.3-.37.3-.6v-2c0-.24-.12-.46-.3-.6l-1.7-1.28V12.48c0-.24-.12-.46-.3-.6l-2-1.5Z"/></g><g fill="#FF884D" fill-rule="evenodd"><path d="M11.55 10.4c.26-.2.63-.2.9 0l2 1.5c.18.14.3.36.3.6v2c0 .23-.12.45-.3.6l-2 1.5c-.27.2-.64.2-.9 0l-2-1.5c-.19-.15-.3-.37-.3-.6v-2c0-.24.11-.46.3-.6l2-1.5Zm-.8 2.47v1.25l1.25.93 1.25-.94v-1.25L12 11.92l-1.25.93Z"/><path d="M13.55 13.9c.26-.2.63-.2.9 0l2 1.5c.18.14.3.36.3.6v2c0 .23-.12.45-.3.6l-2 1.5c-.27.2-.64.2-.9 0l-2-1.5c-.19-.15-.3-.37-.3-.6v-2c0-.24.11-.46.3-.6l2-1.5Zm-.8 2.47v1.25l1.25.93 1.25-.94v-1.25L14 15.42l-1.25.93Z"/><path d="M9.55 13.9c.26-.2.63-.2.9 0l2 1.5c.18.14.3.36.3.6v2c0 .23-.12.45-.3.6l-2 1.5c-.27.2-.64.2-.9 0l-2-1.5c-.19-.15-.3-.37-.3-.6v-2c0-.24.11-.46.3-.6l2-1.5Zm-.8 2.47v1.25l1.25.93 1.25-.94v-1.25L10 15.42l-1.25.93Z"/></g><path fill="#FFD071" d="M5.5 1.25c-1.25 0-2.25 1-2.25 2.25 0 1.24 1 2.25 2.25 2.25h13c1.24 0 2.25-1.01 2.25-2.25 0-1.25-1.01-2.25-2.25-2.25h-13Z"/></svg>