<svg viewBox="0 0 24 24" xmlns="http://www.w3.org/2000/svg"><path fill="#8BC94D" d="M13.23 2.17c-.69-.69-1.8-.69-2.48 0l-.42.41c-.06.05-.15.08-.23.06l-.81-.17c-1.08-.22-2.07.6-2.07 1.69 0 .1-.08.2-.19.22l-.52.1c-1.09.21-1.7 1.36-1.28 2.38l.31.75c.27.65.9 1.07 1.61 1.07h9.58c.7 0 1.34-.43 1.61-1.08l.31-.76c.42-1.02-.19-2.18-1.28-2.39l-.52-.11c-.11-.03-.19-.12-.19-.23 0-1.1-1-1.92-2.07-1.7l-.81.16c-.09.01-.17-.01-.23-.07l-.42-.42Z"/><path fill="#82523E" fill-rule="evenodd" d="M12 4.25c-1.25 0-2.25 1-2.25 2.25V8c0 .41.33.75.75.75h3c.41 0 .75-.34.75-.75V6.5c0-1.25-1.01-2.25-2.25-2.25Z"/><path fill="#EBB852" d="M17.5 7.25c.41 0 .75.33.75.75v14c0 .41-.34.75-.75.75h-11c-.42 0-.75-.34-.75-.75V8c0-.42.33-.75.75-.75h11Z"/><path fill="#FFD071" d="M6.5 7.25c-.42 0-.75.33-.75.75v14c0 .41.33.75.75.75h3c2.07 0 3.75-1.68 3.75-3.75v-8c0-2.08-1.68-3.75-3.75-3.75h-3Z"/></svg>