<svg viewBox="0 0 24 24" xmlns="http://www.w3.org/2000/svg"><path fill="#82523E" d="M9 1.25C6.37 1.25 4.25 3.37 4.25 6v12c0 2.62 2.12 4.75 4.75 4.75h1c2.62 0 4.75-2.13 4.75-4.75v-.74c0-1.15.59-2.2 1.57-2.79l1.11-.67c1.43-.86 2.3-2.41 2.3-4.08V5.98c0-2.63-2.13-4.75-4.75-4.75H8.97Z"/><g fill="#724431" fill-rule="evenodd"><path d="M10.96 4.15c.28-.3.76-.31 1.06-.02l5 4.81c.29.28.3.76.01 1.06 -.29.29-.77.3-1.07.01l-5-4.82c-.3-.29-.31-.77-.02-1.07Z"/><path d="M6.95 9.98c.28-.3.76-.31 1.06-.03l4.5 4.31c.29.28.3.76.02 1.06 -.29.29-.77.3-1.07.02l-4.5-4.32c-.3-.29-.31-.77-.03-1.07Z"/><path d="M6.95 14.3c.28-.3.76-.32 1.06-.03l4 3.81c.29.28.31.76.02 1.06 -.29.29-.77.31-1.07.02l-4-3.82c-.3-.29-.32-.77-.03-1.07Z"/><path d="M6.96 4.96c.29-.3.76-.3 1.06 0l6.49 6.5c.29.29.29.76 0 1.06 -.3.29-.77.29-1.07 0l-6.51-6.5c-.3-.3-.3-.77 0-1.07Z"/></g></svg>