<svg viewBox="0 0 24 24" xmlns="http://www.w3.org/2000/svg"><path fill="#ECEFF1" d="M12 1.25C6.06 1.25 1.25 6.06 1.25 12c0 5.93 4.81 10.75 10.75 10.75 5.93 0 10.75-4.82 10.75-10.75 0-5.94-4.82-10.75-10.75-10.75Z"/><path fill="#FF884D" fill-rule="evenodd" d="M12 2.75c-5.11 0-9.25 4.14-9.25 9.25 0 5.1 4.14 9.25 9.25 9.25 5.1 0 9.25-4.15 9.25-9.25 0-5.11-4.15-9.25-9.25-9.25ZM1.25 12C1.25 6.06 6.06 1.25 12 1.25c5.93 0 10.75 4.81 10.75 10.75 0 5.93-4.82 10.75-10.75 10.75 -5.94 0-10.75-4.82-10.75-10.75Z"/><path fill="#FF884D" d="M12 4.25c-4.29 0-7.75 3.46-7.75 7.75 0 4.28 3.46 7.75 7.75 7.75 4.28 0 7.75-3.47 7.75-7.75 0-4.29-3.47-7.75-7.75-7.75Z"/><path fill="#ECEFF1" fill-rule="evenodd" d="M12 2.75c.41 0 .75.33.75.75v6.68l4.71-4.72c.29-.3.76-.3 1.06 0 .29.29.29.76 0 1.06l-4.72 4.71h6.18c.41 0 .75.33.75.75 0 .41-.34.75-.75.75h-6.19l4.71 4.71c.29.29.29.76 0 1.06 -.3.29-.77.29-1.07 0l-4.72-4.72v6.68c0 .41-.34.75-.75.75 -.42 0-.75-.34-.75-.75v-6.69l-4.72 4.71c-.3.29-.77.29-1.07 0 -.3-.3-.3-.77 0-1.07l4.71-4.72H3.94c-.42 0-.75-.34-.75-.75 0-.42.33-.75.75-.75h6.18L5.4 6.47c-.3-.3-.3-.77 0-1.07 .29-.3.76-.3 1.06 0l4.71 4.71V3.42c0-.42.33-.75.75-.75Z"/></svg>