<svg viewBox="0 0 24 24" xmlns="http://www.w3.org/2000/svg"><g fill="#8BC94D"><path d="M15 1.25c-2.08 0-3.75 1.67-3.75 3.75v1c0 .41.33.75.75.75h5c2.07 0 3.75-1.68 3.75-3.75V2c0-.42-.34-.75-.75-.75h-5Z"/><path fill="#8BC94D" fill-rule="evenodd" d="M7.25 2c0-.42.33-.75.75-.75h2c1.51 0 2.75 1.23 2.75 2.75v2c0 .41-.34.75-.75.75 -.42 0-.75-.34-.75-.75V4c0-.7-.56-1.25-1.25-1.25H8c-.42 0-.75-.34-.75-.75Z"/></g><path fill="#F17171" d="M8.5 5.25c-4.01 0-7.25 3.24-7.25 7.25v.63c0 2.35 1.22 4.53 3.23 5.75l5.4 3.3c.58.35 1.26.55 1.95.55h.31c.69 0 1.36-.2 1.95-.56l5.4-3.31c2-1.23 3.23-3.41 3.23-5.76v-.64c0-4.01-3.25-7.25-7.25-7.25 -1.27 0-2.47.32-3.5.89 -1.04-.58-2.24-.9-3.5-.9Z"/><path fill="#EE4D4D" fill-rule="evenodd" d="M12.08 6.1l.38.3c.02.01.04.03.06.05l1.39 1.39c1.17 1.17 1.65 2.89 1.24 4.51l-.46 1.8c-.11.4-.51.64-.91.54 -.41-.11-.65-.51-.55-.91l.45-1.81c.27-1.11-.05-2.28-.86-3.09l-1.37-1.37 -2.47-1.98c-.12-.09-.2-.21-.24-.33 1.15.04 2.24.36 3.2.89 .02-.02.05-.03.08-.05Z"/></svg>