<svg viewBox="0 0 24 24" xmlns="http://www.w3.org/2000/svg"><path fill="#FFD071" d="M10.5 16.25c-.42 0-.75.33-.75.75v3.5c0 1.24 1 2.25 2.25 2.25 1.24 0 2.25-1.01 2.25-2.25V17c0-.42-.34-.75-.75-.75h-3Z"/><path fill="#EE4D4D" d="M7.5 17.75c-.42 0-.75-.34-.75-.75V5.5c0-2.35 1.9-4.25 4.25-4.25h2c2.34 0 4.25 1.9 4.25 4.25V17c0 .41-.34.75-.75.75h-9Z"/><g fill="#F17171" fill-rule="evenodd"><path d="M13.5 4.25c.41 0 .75.33.75.75v9c0 .41-.34.75-.75.75 -.42 0-.75-.34-.75-.75V5c0-.42.33-.75.75-.75Z"/><path d="M10.5 4.25c.41 0 .75.33.75.75v9c0 .41-.34.75-.75.75 -.42 0-.75-.34-.75-.75V5c0-.42.33-.75.75-.75Z"/></g></svg>