<svg viewBox="0 0 24 24" xmlns="http://www.w3.org/2000/svg"><path fill="#CFD8DC" d="M18 12.75c.41 0 .75-.34.75-.75 0-2.88-.7-5.52-1.87-7.46 -1.16-1.93-2.862-3.3-4.89-3.3 -2.03 0-3.73 1.36-4.89 3.29 -1.17 1.94-1.87 4.58-1.87 7.45 0 .41.33.75.75.75h12Z"/><path fill="#EE4D4D" d="M5 11.25c-.42 0-.75.33-.75.75 0 4.73 3.37 8.75 7.75 8.75 4.37 0 7.75-4.02 7.75-8.75 0-.42-.34-.75-.75-.75H5Z"/><g fill="#F17171" fill-rule="evenodd"><path d="M11.81 17.27c.4-.11.8.14.9.54l.5 2c.02.11.02.24 0 .36l-.5 2c-.11.4-.51.64-.91.54 -.41-.11-.65-.51-.55-.91l.45-1.82 -.46-1.82c-.11-.41.14-.81.54-.91Z"/><path d="M19.35 11.26c.09-.02.19-.02.29 0l2.5.5c.4.08.66.47.58.88 -.09.4-.48.66-.89.58l-2.36-.48 -2.36.47c-.41.08-.81-.19-.89-.59 -.09-.41.18-.81.58-.89l2.5-.5Z"/><path d="M1.27 11.81c.1-.41.5-.65.9-.55l1.84.46 2.84-.48c.4-.07.79.2.86.61 .06.4-.21.79-.62.86l-3 .5c-.11.01-.21.01-.31-.02l-2-.5c-.41-.11-.65-.51-.55-.91Z"/><path d="M19.886 20.14c.35-.22.47-.68.25-1.029l-1.5-2.5c-.07-.11-.16-.2-.26-.26l-2.5-1.5c-.36-.22-.82-.1-1.029.25 -.22.35-.1.81.25 1.02l2.33 1.4 1.4 2.33c.21.35.67.47 1.029.25Z"/><path d="M3.85 19.88c-.22-.36-.1-.82.25-1.029l2.33-1.41 1.4-2.34c.21-.36.67-.48 1.02-.26 .35.21.47.67.25 1.029l-1.5 2.5c-.07.1-.16.19-.26.25l-2.5 1.5c-.36.21-.82.09-1.029-.26Z"/></g></svg>