<svg viewBox="0 0 24 24" xmlns="http://www.w3.org/2000/svg"><g fill="#8BC94D"><path d="M15 1.25c-2.08 0-3.75 1.67-3.75 3.75v1c0 .41.33.75.75.75h5c2.07 0 3.75-1.68 3.75-3.75V2c0-.42-.34-.75-.75-.75h-5Z"/><path fill="#8BC94D" fill-rule="evenodd" d="M7.25 2c0-.42.33-.75.75-.75h2c1.51 0 2.75 1.23 2.75 2.75v2c0 .41-.34.75-.75.75 -.42 0-.75-.34-.75-.75V4c0-.7-.56-1.25-1.25-1.25H8c-.42 0-.75-.34-.75-.75Z"/></g><path fill="#EE4D4D" d="M12 5.25c-2.31 0-4.23 1.64-4.66 3.82l-2.48 4.59c-.99.77-1.62 1.98-1.62 3.33 0 2.34 1.9 4.25 4.25 4.25 .39 0 .77-.06 1.13-.16 .77 1 1.99 1.65 3.36 1.65 1.37 0 2.58-.65 3.36-1.66 .36.1.74.15 1.13.15 2.34 0 4.25-1.91 4.25-4.25 0-1.36-.64-2.57-1.62-3.34l-2.48-4.6c-.44-2.18-2.36-3.83-4.66-3.83Z"/></svg>