<svg viewBox="0 0 24 24" xmlns="http://www.w3.org/2000/svg"><path fill="#CFD8DC" fill-rule="evenodd" d="M22.53 1.46c.29.29.29.76 0 1.06l-1.5 1.5c-.3.29-.77.29-1.07 0 -.3-.3-.3-.77 0-1.07l1.5-1.5c.29-.3.76-.3 1.06 0Zm-12 12c.29.29.29.76 0 1.06l-8 8c-.3.29-.77.29-1.07 0 -.3-.3-.3-.77 0-1.07l8-8c.29-.3.76-.3 1.06 0Z"/><path fill="#FFD071" d="M20.59 2.53c-.88-.88-2.31-.88-3.19 0L16.02 3.9c-.88.87-.88 2.3 0 3.18l.87.87c.87.87 2.3.87 3.18 0l1.37-1.38c.87-.88.87-2.31 0-3.19l-.88-.88Z"/><path fill="#EBB852" d="M17.09 6.03c-.88-.88-2.31-.88-3.19 0L12.52 7.4c-.88.87-.88 2.3 0 3.18l.87.87c.87.87 2.3.87 3.18 0l1.37-1.38c.87-.88.87-2.31 0-3.19L17.06 6Z"/><path fill="#FFD071" d="M13.59 9.53c-.88-.88-2.31-.88-3.19 0L9.02 10.9c-.88.87-.88 2.3 0 3.18l.87.87c.87.87 2.3.87 3.18 0l1.37-1.38c.87-.88.87-2.31 0-3.19l-.88-.88Z"/></svg>