<svg viewBox="0 0 24 24" xmlns="http://www.w3.org/2000/svg"><path fill="#FFD071" d="M20.53 3.46c-1.4-1.4-3.67-1.4-5.07 0l-12 12c-1.4 1.39-1.4 3.66-.001 5.06 1.39 1.39 3.66 1.39 5.06 0l12-12c1.39-1.4 1.39-3.67 0-5.07Z"/><path fill="#EBB852" fill-rule="evenodd" d="M11.75 7.18l1.5-1.5v5.81c0 .41-.34.75-.75.75 -.42 0-.75-.34-.75-.75V7.17Zm-3 3l1.5-1.51v5.81c0 .41-.34.75-.75.75 -.42 0-.75-.34-.75-.75v-4.32Zm-3 3l1.5-1.5v5.81c0 .41-.34.75-.75.75 -.42 0-.75-.34-.75-.75v-4.32Zm10.5-10.32v5.62c0 .41-.34.75-.75.75 -.42 0-.75-.34-.75-.75V4.16l.71-.72c.23-.24.5-.44.78-.6Z"/></svg>