<svg viewBox="0 0 24 24" xmlns="http://www.w3.org/2000/svg"><g fill="#8BC94D"><path d="M15 1.25c-2.08 0-3.75 1.67-3.75 3.75v1c0 .41.33.75.75.75h5c2.07 0 3.75-1.68 3.75-3.75V2c0-.42-.34-.75-.75-.75h-5Z"/><path fill="#8BC94D" fill-rule="evenodd" d="M7.25 2c0-.42.33-.75.75-.75h2c1.51 0 2.75 1.23 2.75 2.75v2c0 .41-.34.75-.75.75 -.42 0-.75-.34-.75-.75V4c0-.7-.56-1.25-1.25-1.25H8c-.42 0-.75-.34-.75-.75Z"/></g><path fill="#EE4D4D" d="M11.71 22.75c-1.4 0-2.68-.78-3.33-2.01L4.89 14.1c-.44-.83-.66-1.75-.66-2.68v-.44c0-3.18 2.57-5.75 5.75-5.75h4c3.17 0 5.75 2.57 5.75 5.75v.43c0 .93-.23 1.84-.66 2.67l-3.49 6.63c-.65 1.23-1.93 2-3.33 2h-.58Z"/><g fill="#FFC44D" fill-rule="evenodd"><path d="M8.5 8.25c.41 0 .75.33.75.75v2c0 .41-.34.75-.75.75 -.42 0-.75-.34-.75-.75V9c0-.42.33-.75.75-.75Z"/><path d="M9.5 12.75c.41 0 .75.33.75.75v2c0 .41-.34.75-.75.75 -.42 0-.75-.34-.75-.75v-2c0-.42.33-.75.75-.75Z"/><path d="M15.5 8.25c.41 0 .75.33.75.75v2c0 .41-.34.75-.75.75 -.42 0-.75-.34-.75-.75V9c0-.42.33-.75.75-.75Z"/><path d="M14.5 12.75c.41 0 .75.33.75.75v2c0 .41-.34.75-.75.75 -.42 0-.75-.34-.75-.75v-2c0-.42.33-.75.75-.75Z"/><path d="M12 8.25c.41 0 .75.33.75.75v2c0 .41-.34.75-.75.75 -.42 0-.75-.34-.75-.75V9c0-.42.33-.75.75-.75Z"/><path d="M12 16.25c.41 0 .75.33.75.75v2c0 .41-.34.75-.75.75 -.42 0-.75-.34-.75-.75v-2c0-.42.33-.75.75-.75Z"/></g></svg>