<svg viewBox="0 0 24 24" xmlns="http://www.w3.org/2000/svg"><path fill="#ECEFF1" d="M12 1.25C6.06 1.25 1.25 6.06 1.25 12c0 5.93 4.81 10.75 10.75 10.75 5.93 0 10.75-4.82 10.75-10.75 0-5.94-4.82-10.75-10.75-10.75Z"/><path fill="#FFC44D" d="M12 11.25c-.07 0-.13 0-.19.02l-4 1c-.34.08-.57.38-.57.72 0 1.34.56 2.33 1.51 2.95 .89.58 2.06.79 3.23.79 2.62 0 4.75-2.13 4.75-4.75 0-.42-.34-.75-.75-.75h-4Z"/><path fill="#8BC94D" fill-rule="evenodd" d="M12 2.75c-5.11 0-9.25 4.14-9.25 9.25 0 5.1 4.14 9.25 9.25 9.25 5.1 0 9.25-4.15 9.25-9.25 0-5.11-4.15-9.25-9.25-9.25ZM1.25 12C1.25 6.06 6.06 1.25 12 1.25c5.93 0 10.75 4.81 10.75 10.75 0 5.93-4.82 10.75-10.75 10.75 -5.94 0-10.75-4.82-10.75-10.75Z"/><path fill="#F17171" d="M12 6.25c-2.14 0-3.62.93-4.54 2.29 -.9 1.31-1.22 2.98-1.22 4.45 0 .22.1.43.27.58 .17.14.4.19.62.15l4.92-.99h4.92c.41 0 .75-.34.75-.75 0-3.18-2.58-5.75-5.75-5.75Z"/></svg>