<svg viewBox="0 0 24 24" xmlns="http://www.w3.org/2000/svg"><path fill="#EE4D4D" d="M22.71 2.21c.07-.27 0-.56-.19-.75 -.2-.2-.49-.27-.75-.19l-20 6c-.32.09-.54.38-.54.71 0 8.14 6.6 14.75 14.75 14.75 .33 0 .62-.22.71-.54l6-20Z"/><g fill="#8BC94D" fill-rule="evenodd"><path d="M2 7.25c.41 0 .75.33.75.75 0 7.31 5.93 13.25 13.25 13.25 .41 0 .75.33.75.75 0 .41-.34.75-.75.75C7.85 22.75 1.25 16.14 1.25 8c0-.42.33-.75.75-.75Z"/><g fill="#ECEFF1"><path d="M17.53 9.46c.29.29.29.76 0 1.06l-2 2c-.3.29-.77.29-1.07 0 -.3-.3-.3-.77 0-1.07l2-2.01c.29-.3.76-.3 1.06 0Z"/><path d="M14.53 6.46c.29.29.29.76 0 1.06l-2 2c-.3.29-.77.29-1.07 0 -.3-.3-.3-.77 0-1.07l2-2c.29-.3.76-.3 1.06 0Z"/><path d="M8.53 8.46c.29.29.29.76 0 1.06l-2 1.99c-.3.29-.77.29-1.07 0 -.3-.3-.3-.77 0-1.07l2-2.01c.29-.3.76-.3 1.06 0Z"/><path d="M11.53 12.46c.29.29.29.76 0 1.06l-2 2c-.3.29-.77.29-1.07 0 -.3-.3-.3-.77 0-1.07l2-2c.29-.3.76-.3 1.06 0Z"/><path d="M15.53 15.46c.29.29.29.76 0 1.06l-2 2c-.3.29-.77.29-1.07 0 -.3-.3-.3-.77 0-1.07l2-2c.29-.3.76-.3 1.06 0Z"/></g></g></svg>