<svg viewBox="0 0 24 24" xmlns="http://www.w3.org/2000/svg"><g fill="#A2D471" fill-rule="evenodd"><path d="M4.74 12c0 2.31 1.13 4.36 2.91 5.66 .3.22.62.42.97.59 .36.18.51.64.32 1s-.65.51-1.01.32c-.42-.22-.81-.46-1.17-.73 -2.14-1.56-3.53-4.06-3.53-6.88 0-4.75 3.93-8.57 8.75-8.57 .41 0 .75.33.75.75 0 .41-.34.75-.75.75 -4.03 0-7.26 3.18-7.26 7.06Zm6.5 7.81c0-.42.33-.75.75-.75 4.02 0 7.25-3.19 7.25-7.07 0-2.71-1.56-5.07-3.87-6.26 -.37-.2-.52-.65-.33-1.02s.64-.52 1.01-.33c2.77 1.43 4.67 4.28 4.67 7.58 0 4.74-3.94 8.56-8.76 8.56 -.42 0-.75-.34-.75-.75Z"/><path d="M8.56 1.63c.2-.37.66-.49 1.02-.29l3.26 1.84c.17.09.3.26.35.45 .05.19.02.4-.08.57l-1.89 3.19c-.22.35-.68.47-1.03.26 -.36-.22-.48-.68-.27-1.03l1.49-2.54L8.8 2.61c-.37-.21-.49-.67-.29-1.03Z"/><path d="M10.78 20.35c-.06-.2-.03-.41.07-.58l1.88-3.2c.21-.36.67-.48 1.02-.27 .35.21.47.67.26 1.02l-1.5 2.53 2.6 1.46c.36.2.48.66.28 1.02 -.21.36-.67.48-1.03.28l-3.27-1.85c-.18-.1-.31-.27-.36-.46Z"/></g><g fill="#8BC94D"><path d="M15.5 9l.74.05 -.01 0 -.01 0 -.01.03c-.01.02-.01.06-.02.11 -.01.09-.03.24-.05.41 -.04.34-.11.81-.2 1.31 -.1.5-.22 1.04-.39 1.54 -.17.47-.4.99-.76 1.34 -.59.58-1.33.9-2.1.9s-1.52-.33-2.1-.91c-.59-.59-.91-1.33-.91-2.1s.32-1.52.9-2.1c.35-.36.87-.59 1.34-.76 .49-.17 1.04-.3 1.54-.39 .5-.1.97-.16 1.31-.2 .17-.02.31-.04.41-.05 .04-.01.08-.01.11-.02l.03-.01 0-.01 0-.01 .05.74Z"/><path d="M15.5 9c.74.05.74.05.74.05 .01-.22-.07-.44-.22-.59 -.16-.16-.37-.24-.59-.22 0 0 0 0 .05.74Z"/><path fill="#8BC94D" fill-rule="evenodd" d="M11.53 12.96c-.3-.3-.77-.3-1.07 0l-2.01 2c-.3.29-.3.76 0 1.06 .29.29.76.29 1.06 0l1.99-2c.29-.3.29-.77 0-1.07Z"/></g></svg>