<svg viewBox="0 0 24 24" xmlns="http://www.w3.org/2000/svg"><path fill="#ECEFF1" d="M17.5 1.25c-1.8 0-3.25 1.45-3.25 3.25v10.03c-.93.86-1.5 2.09-1.5 3.46 0 2.62 2.12 4.75 4.75 4.75 2.62 0 4.75-2.13 4.75-4.75 0-1.37-.58-2.6-1.5-3.47V4.48c0-1.8-1.46-3.25-3.25-3.25Z"/><path fill="#5E94FF" d="M7.5 6.25c-3.18 0-5.75 2.57-5.75 5.75 0 3.17 2.57 5.75 5.75 5.75 3.17 0 5.75-2.58 5.75-5.75 0-3.18-2.58-5.75-5.75-5.75Z"/><g fill="#A2D471" fill-rule="evenodd"><path d="M9.25 17.47v-1.21c0-1.1-.78-2.05-1.86-2.27l-.59-.12c-.04-.01-.06-.04-.06-.08 0-.87-.71-1.58-1.58-1.58H1.73c.13 3.05 2.65 5.5 5.74 5.5 .61 0 1.19-.1 1.75-.28Z"/><path d="M13.2 12.75c.03-.25.04-.5.04-.75 0-3.18-2.58-5.75-5.75-5.75 -.26 0-.51.01-.75.04v2.7c0 .96.78 1.75 1.75 1.75 .13 0 .25.11.25.25 0 .96.78 1.75 1.75 1.75h2.7Z"/></g><path fill="#EE4D4D" d="M17.5 15.75c-1.25 0-2.25 1-2.25 2.25 0 1.24 1 2.25 2.25 2.25 1.24 0 2.25-1.01 2.25-2.25 0-1.25-1.01-2.25-2.25-2.25Z"/></svg>