<svg viewBox="0 0 24 24" xmlns="http://www.w3.org/2000/svg"><path fill="#FFC44D" d="M8.5 19.75c-.42 0-.75-.34-.75-.75v-3.52c-2.11-1.39-3.5-3.77-3.5-6.49 0-4.29 3.46-7.75 7.75-7.75 4.28 0 7.75 3.46 7.75 7.75 0 2.71-1.4 5.09-3.5 6.48v3.51c0 .41-.34.75-.75.75h-7Z"/><path fill="#A2ADB8" fill-rule="evenodd" d="M7.25 22c0-.42.33-.75.75-.75h8c.41 0 .75.33.75.75 0 .41-.34.75-.75.75H8c-.42 0-.75-.34-.75-.75Z"/><g fill="#ECEFF1"><path d="M15 5.5l.74.05 -.01 0 -.01 0 -.01.03c-.01.02-.01.06-.02.11 -.01.09-.03.24-.05.41 -.04.34-.11.81-.2 1.31 -.1.5-.22 1.04-.39 1.54 -.17.47-.4.99-.76 1.34 -.59.58-1.33.9-2.1.9s-1.52-.33-2.1-.91c-.59-.59-.91-1.33-.91-2.1s.32-1.52.9-2.1c.35-.36.87-.59 1.34-.76 .49-.17 1.04-.3 1.54-.39 .5-.1.97-.16 1.31-.2 .17-.02.31-.04.41-.05 .04-.01.08-.01.11-.02l.03-.01 0-.01 0-.01 .05.74Z"/><path d="M15 5.5c-.06-.75-.06-.75-.06-.75 .21-.02.43.06.58.21 .15.15.23.36.21.58"/><path fill="#ECEFF1" fill-rule="evenodd" d="M11.03 9.46c-.3-.3-.77-.3-1.07 0l-2 2c-.3.29-.3.76 0 1.06 .29.29.76.29 1.06 0l1.99-2c.29-.3.29-.77 0-1.07Z"/></g></svg>