<svg viewBox="0 0 24 24" xmlns="http://www.w3.org/2000/svg"><path fill="#FFD071" d="M20.5 5.75c-1.25 0-2.25 1-2.25 2.25v2.85c-.72-.24-1.57-.11-2.2.52l-4.59 4.58c-.15.14-.22.33-.22.53v6c0 .41.33.75.75.75h5c.41 0 .75-.34.75-.75v-1.69l4.48-4.49c.32-.33.51-.78.51-1.24V7.97c0-1.25-1.01-2.25-2.25-2.25Z"/><path fill="#EBB852" fill-rule="evenodd" d="M18.25 12.91c0-.6-.72-.89-1.14-.47l-4.37 4.36v5.68c0 .41-.34.75-.75.75 -.42 0-.75-.34-.75-.75v-6c0-.2.07-.39.21-.54l4.58-4.59c1.36-1.37 3.69-.4 3.69 1.53 0 .12-.02.24-.04.36 .07.25.01.54-.19.74l-.42.41c-.01 0 0-.01 0 0l-1.59 1.58c-.3.29-.77.29-1.07 0 -.3-.3-.3-.77 0-1.07l1.58-1.59c.12-.13.19-.3.19-.47Z"/><path fill="#FFD071" d="M3.5 5.75c1.24 0 2.25 1 2.25 2.25v2.85c.72-.24 1.56-.11 2.19.52l4.58 4.58c.14.14.21.33.21.53v6c0 .41-.34.75-.75.75h-5c-.42 0-.75-.34-.75-.75v-1.69L1.74 16.3c-.33-.33-.52-.78-.52-1.24V7.97c0-1.25 1-2.25 2.25-2.25Z"/><path fill="#EBB852" fill-rule="evenodd" d="M5.75 12.91c0-.6.71-.89 1.13-.47l4.36 4.36v5.68c0 .41.33.75.75.75 .41 0 .75-.34.75-.75v-6c0-.2-.08-.39-.22-.54l-4.59-4.59c-1.37-1.37-3.7-.4-3.7 1.53 0 .12.01.24.03.36 -.08.25-.02.54.18.74l.41.41s-.01-.01 0 0l1.58 1.58c.29.29.76.29 1.06 0 .29-.3.29-.77 0-1.07L5.9 13.31c-.13-.13-.2-.3-.2-.47Z"/><g fill="#8BC94D"><path d="M15.5 3l.74.05 -.01 0 -.01 0 -.01.03c-.01.02-.01.06-.02.11 -.01.09-.03.24-.05.41 -.04.34-.11.81-.2 1.31 -.1.5-.22 1.04-.39 1.54 -.17.47-.4.99-.76 1.34 -.59.58-1.33.9-2.1.9s-1.52-.33-2.1-.91c-.59-.59-.91-1.33-.91-2.1s.32-1.52.9-2.1c.35-.36.87-.59 1.34-.76 .49-.17 1.04-.3 1.54-.39 .5-.1.97-.16 1.31-.2 .17-.02.31-.04.41-.05 .04-.01.08-.01.11-.02l.03-.01 0-.01 0-.01 .05.74Z"/><path d="M15.5 3c.74.05.74.05.74.05 .01-.22-.07-.44-.22-.59 -.16-.16-.37-.24-.59-.22 0 0 0 0 .05.74Z"/><path fill="#8BC94D" fill-rule="evenodd" d="M11.53 6.96c-.3-.3-.77-.3-1.07 0l-2.01 2c-.3.29-.3.76 0 1.06 .29.29.76.29 1.06 0l1.99-2c.29-.3.29-.77 0-1.07Z"/></g></svg>