<svg viewBox="0 0 24 24" xmlns="http://www.w3.org/2000/svg"><path fill="#CFD8DC" d="M9.5 1.75c-.42 0-.75.33-.75.75V5c0 .41.33.75.75.75h5c.41 0 .75-.34.75-.75V2.5c0-.42-.34-.75-.75-.75h-5Z"/><path fill="#8BC94D" d="M9.5 4.25c-.26 0-.49.12-.63.33l-3 4.5c-.09.12-.13.26-.13.41v3.5c0 .04 0 .09.01.14l.47 2.36 -.48 2.86c-.01.04-.02.08-.02.12v3.5c0 .41.33.75.75.75h11c.41 0 .75-.34.75-.75v-3.5c0-.05-.01-.09-.02-.13l-.48-2.87 .47-2.37c0-.05.01-.1.01-.15v-3.5c0-.15-.05-.3-.13-.42l-3-4.5c-.14-.21-.38-.34-.63-.34h-5Z"/><g fill="#ECEFF1"><path d="M15 10.5l.74.05 -.01 0 -.01 0 -.01.03c-.01.02-.01.06-.02.11 -.01.09-.03.24-.05.41 -.04.34-.11.81-.2 1.31 -.1.5-.22 1.04-.39 1.54 -.17.47-.4.99-.76 1.34 -.59.58-1.33.9-2.1.9s-1.52-.33-2.1-.91c-.59-.59-.91-1.33-.91-2.1s.32-1.52.9-2.1c.35-.36.87-.59 1.34-.76 .49-.17 1.04-.3 1.54-.39 .5-.1.97-.16 1.31-.2 .17-.02.31-.04.41-.05 .04-.01.08-.01.11-.02l.03-.01 0-.01 0-.01 .05.74Z"/><path d="M15 10.5c-.06-.75-.06-.75-.06-.75 .21-.02.43.06.58.21 .15.15.23.36.21.58"/><path fill="#ECEFF1" fill-rule="evenodd" d="M11.03 14.46c-.3-.3-.77-.3-1.07 0l-1.5 1.5c-.3.29-.3.76 0 1.06 .29.29.76.29 1.06 0l1.49-1.5c.29-.3.29-.77 0-1.07Z"/></g></svg>