<svg viewBox="0 0 24 24" xmlns="http://www.w3.org/2000/svg"><path fill="#CFD8DC" fill-rule="evenodd" d="M16.82 4.66c.18-.38.63-.53 1-.34l4 2c.25.12.41.38.41.67v7.5c0 1.51-1.24 2.75-2.75 2.75h-4.5c-.42 0-.75-.34-.75-.75 0-.42.33-.75.75-.75h4.5c.69 0 1.25-.56 1.25-1.25V7.45l-3.59-1.8c-.38-.19-.53-.64-.34-1.01Z"/><path fill="#5E94FF" d="M4 1.25c-.42 0-.75.33-.75.75v17c0 .41.33.75.75.75h11c.41 0 .75-.34.75-.75V2c0-.42-.34-.75-.75-.75H4Z"/><g fill="#CFD8DC"><path d="M3 18.25c-.33 0-.61.2-.72.51l-1 3c-.08.22-.04.48.1.67 .14.19.36.31.6.31h15c.24 0 .46-.12.6-.32 .14-.2.17-.45.1-.68l-1-3c-.11-.31-.39-.52-.72-.52h-13Z"/><path d="M19.27 5.3c-.24-.1-.5-.07-.7.07 -.21.13-.33.37-.33.62v3c0 .41.33.75.75.75h2.5c.41 0 .75-.34.75-.75v-2c0-.31-.19-.59-.48-.7l-2.5-1Z"/></g><path fill="#ECEFF1" fill-rule="evenodd" d="M9.83 3.82c.37.18.52.63.33 1L8.7 7.73h2.78c.25 0 .5.13.63.35 .13.22.14.49.03.72l-2 4c-.19.37-.64.52-1.01.33 -.38-.19-.53-.64-.34-1.01l1.45-2.92H7.45c-.26 0-.51-.14-.64-.36 -.14-.23-.15-.5-.04-.73l2-4c.18-.38.63-.53 1-.34Z"/></svg>