<svg viewBox="0 0 24 24" xmlns="http://www.w3.org/2000/svg"><g fill="#82523E" fill-rule="evenodd"><path d="M4.5 7.75c.41 0 .75.33.75.75V12c0 .41-.34.75-.75.75 -.42 0-.75-.34-.75-.75V8.5c0-.42.33-.75.75-.75Z"/><path d="M12 7.75c.41 0 .75.33.75.75V12c0 .41-.34.75-.75.75 -.42 0-.75-.34-.75-.75V8.5c0-.42.33-.75.75-.75Z"/><path d="M19.5 7.75c.41 0 .75.33.75.75V12c0 .41-.34.75-.75.75 -.42 0-.75-.34-.75-.75V8.5c0-.42.33-.75.75-.75Z"/></g><path fill="#5E94FF" d="M2 11.25c-.42 0-.75.33-.75.75 0 5.93 4.81 10.75 10.75 10.75 5.93 0 10.75-4.82 10.75-10.75 0-.42-.34-.75-.75-.75H2Z"/><g fill="#A2D471" fill-rule="evenodd"><path d="M14.74 22.395v-2.4c0-1.52-1.24-2.75-2.75-2.75h-1.5c-.42 0-.75-.34-.75-.75 0-1.25-1.01-2.25-2.25-2.25H1.47c1.03 4.85 5.34 8.5 10.51 8.5 .95 0 1.87-.13 2.75-.36Z"/><path d="M21.646 16.75c.7-1.44 1.1-3.05 1.1-4.75 0-.42-.34-.75-.75-.75h-8.22l1.99 3.97c.46.93 1.41 1.52 2.45 1.52h3.41Z"/></g><g fill="#8BC94D"><path d="M4.5 1.25c-.6 0-1.1.28-1.48.62 -.39.34-.71.78-.96 1.25 -.5.9-.83 2.03-.83 2.87 0 1.79 1.45 3.25 3.25 3.25 1.79 0 3.25-1.46 3.25-3.25 0-.85-.33-1.97-.83-2.88 -.26-.47-.58-.91-.96-1.26 -.39-.35-.89-.63-1.48-.63Z"/><path d="M12 1.25c-.6 0-1.1.28-1.48.62 -.39.34-.71.78-.96 1.25 -.5.9-.83 2.03-.83 2.87 0 1.79 1.45 3.25 3.25 3.25 1.79 0 3.25-1.46 3.25-3.25 0-.85-.33-1.97-.83-2.88 -.26-.47-.58-.91-.96-1.26 -.39-.35-.89-.63-1.48-.63Z"/><path d="M19.5 1.25c-.6 0-1.1.28-1.48.62 -.39.34-.71.78-.96 1.25 -.5.9-.83 2.03-.83 2.87 0 1.79 1.45 3.25 3.25 3.25 1.79 0 3.25-1.46 3.25-3.25 0-.85-.33-1.97-.83-2.88 -.26-.47-.58-.91-.96-1.26 -.39-.35-.89-.63-1.48-.63Z"/></g></svg>