<svg viewBox="0 0 24 24" xmlns="http://www.w3.org/2000/svg"><path fill="#CFD8DC" d="M20.95 3.98c2.558 2.487 2.71 6.43.47 9.1 -.04.06-.09.13-.15.18l-8.756 8.51c-.3.28-.78.28-1.07 0l-8.76-8.52c-.06-.06-.11-.12-.15-.19C.28 10.38.44 6.44 3 3.95c2.44-2.38 6.23-2.62 8.95-.72 2.71-1.9 6.51-1.66 8.95.71Z"/><path fill="#5E94FF" d="M12 5.25c-3.18 0-5.75 2.57-5.75 5.75 0 3.17 2.57 5.75 5.75 5.75 3.17 0 5.75-2.58 5.75-5.75 0-3.18-2.58-5.75-5.75-5.75Z"/><g fill="#A2D471" fill-rule="evenodd"><path d="M13.74 16.47v-1.21c0-1.1-.78-2.05-1.86-2.27l-.59-.12c-.04-.01-.06-.04-.06-.08 0-.87-.71-1.58-1.58-1.58H6.22c.13 3.05 2.65 5.5 5.74 5.5 .61 0 1.19-.1 1.75-.28Z"/><path d="M17.7 11.75c.03-.25.04-.5.04-.75 0-3.18-2.58-5.75-5.75-5.75 -.26 0-.51.01-.75.04v2.7c0 .96.78 1.75 1.75 1.75 .13 0 .25.11.25.24 0 .96.78 1.75 1.75 1.75h2.7Z"/></g></svg>