<svg viewBox="0 0 24 24" xmlns="http://www.w3.org/2000/svg"><path fill="#A2D471" fill-rule="evenodd" d="M10.47 3.2c.66-1.21 2.39-1.21 3.05 0l3.57 6.42c.2.36.07.81-.3 1.01 -.37.2-.82.07-1.02-.3L12.19 3.9c-.1-.18-.35-.18-.44 0L10.4 6.32c-.21.36-.66.49-1.02.29 -.37-.21-.5-.66-.3-1.02l1.34-2.43Zm-4.22 9.13c.36.2.49.65.29 1.01l-3.07 5.51c-.1.16.02.37.21.37h1.3c.41 0 .75.33.75.75 0 .41-.34.75-.75.75H3.67c-1.34 0-2.18-1.44-1.53-2.6L5.2 12.6c.2-.37.65-.5 1.01-.3Zm13.16 3c.36-.21.81-.08 1.01.29l1.39 2.51c.64 1.16-.2 2.59-1.53 2.59h-7.31c-.42 0-.75-.34-.75-.75 0-.42.33-.75.75-.75h7.3c.19 0 .31-.21.21-.38l-1.4-2.52c-.21-.37-.08-.82.29-1.02Z"/><g fill="#8BC94D"><path d="M13.75 18c0-.28-.16-.54-.4-.67 -.25-.14-.54-.12-.77.03l-3.01 2c-.21.13-.34.37-.34.62s.12.48.33.62l3 2c.23.15.52.16.76.03 .24-.14.39-.39.39-.67v-4Z"/><path d="M6.85 14.36c.22.15.52.17.76.05 .24-.13.4-.38.41-.66l.07-3.61c0-.26-.12-.49-.33-.64 -.21-.15-.47-.18-.71-.09l-3.36 1.31c-.26.1-.44.33-.48.6 -.04.27.08.54.31.7l3.27 2.29Z"/><path d="M17.85 8.38c.22-.16.52-.18.76-.06s.4.37.41.65l.07 3.6c0 .25-.12.48-.33.63 -.21.14-.47.17-.71.08l-3.36-1.32c-.26-.11-.44-.34-.48-.61 -.04-.28.08-.55.31-.71l3.27-2.3Z"/></g></svg>