<svg viewBox="0 0 24 24" xmlns="http://www.w3.org/2000/svg"><g fill="#5E94FF" fill-rule="evenodd"><path d="M4.74 12c0 2.31 1.13 4.36 2.91 5.66 .3.22.62.42.97.59 .36.18.51.64.32 1s-.65.51-1.01.32c-.42-.22-.81-.46-1.17-.73 -2.14-1.56-3.53-4.06-3.53-6.88 0-4.75 3.93-8.57 8.75-8.57 .41 0 .75.33.75.75 0 .41-.34.75-.75.75 -4.03 0-7.26 3.18-7.26 7.06Zm6.5 7.81c0-.42.33-.75.75-.75 4.02 0 7.25-3.19 7.25-7.07 0-2.71-1.56-5.07-3.87-6.26 -.37-.2-.52-.65-.33-1.02s.64-.52 1.01-.33c2.77 1.43 4.67 4.28 4.67 7.58 0 4.74-3.94 8.56-8.76 8.56 -.42 0-.75-.34-.75-.75Z"/><path d="M8.56 1.63c.2-.37.66-.49 1.02-.29l3.26 1.84c.17.09.3.26.35.45 .05.19.02.4-.08.57l-1.89 3.19c-.22.35-.68.47-1.03.26 -.36-.22-.48-.68-.27-1.03l1.49-2.54L8.8 2.61c-.37-.21-.49-.67-.29-1.03Z"/><path d="M10.78 20.35c-.06-.2-.03-.41.07-.58l1.88-3.2c.21-.36.67-.48 1.02-.27 .35.21.47.67.26 1.02l-1.5 2.53 2.6 1.46c.36.2.48.66.28 1.02 -.21.36-.67.48-1.03.28l-3.27-1.85c-.18-.1-.31-.27-.36-.46Z"/></g><g fill="#4DC4FF"><path d="M12 8.5l.57-.49 0 0 0 0 .02.02c.01.02.04.05.08.1 .07.08.17.21.29.36 .24.3.56.73.88 1.2 .32.47.65 1 .91 1.52 .24.5.46 1.08.46 1.62 0 1.82-1.43 3.375-3.25 3.375 -1.83 0-3.25-1.55-3.25-3.375 0-.55.22-1.13.46-1.63 .25-.53.59-1.06.91-1.53 .32-.48.64-.9.88-1.21 .12-.16.22-.28.29-.37 .03-.05.06-.08.08-.11l.02-.03 0-.01 0-.01 .57.48Z"/><path d="M12 8.5c.57-.49.57-.49.57-.49 -.15-.17-.36-.27-.58-.27 -.22 0-.43.09-.58.26 0 0 0 0 .57.48Z"/></g></svg>