<svg viewBox="0 0 24 24" xmlns="http://www.w3.org/2000/svg"><path fill="#CFD8DC" d="M12.26 1.29c-.17-.07-.36-.07-.53 0l-8.01 3c-.3.1-.49.38-.49.7v9.13c0 1.72.85 3.34 2.27 4.32l6.04 4.15c.25.17.59.17.84 0l6.04-4.16c1.42-.98 2.27-2.6 2.27-4.33V4.96c0-.32-.2-.6-.49-.71l-8-3Z"/><path fill="#5E94FF" d="M12 6.25c-3.18 0-5.75 2.57-5.75 5.75 0 3.17 2.57 5.75 5.75 5.75 3.17 0 5.75-2.58 5.75-5.75 0-3.18-2.58-5.75-5.75-5.75Z"/><g fill="#A2D471" fill-rule="evenodd"><path d="M13.75 17.47v-1.21c0-1.1-.78-2.05-1.86-2.27l-.59-.12c-.04-.01-.06-.04-.06-.08 0-.87-.71-1.58-1.58-1.58H6.23c.13 3.05 2.65 5.5 5.74 5.5 .61 0 1.19-.1 1.75-.28Z"/><path d="M17.7 12.75c.03-.25.04-.5.04-.75 0-3.18-2.58-5.75-5.75-5.75 -.26 0-.51.01-.75.04v2.7c0 .96.78 1.75 1.75 1.75 .13 0 .25.11.25.25 0 .96.78 1.75 1.75 1.75h2.7Z"/></g></svg>