<svg viewBox="0 0 24 24" xmlns="http://www.w3.org/2000/svg"><g fill="#FF884D" fill-rule="evenodd"><path d="M1.25 12c0-.42.33-.75.75-.75h4c.41 0 .75.33.75.75 0 .41-.34.75-.75.75H2c-.42 0-.75-.34-.75-.75Z"/><path d="M17.25 12c0-.42.33-.75.75-.75h4c.41 0 .75.33.75.75 0 .41-.34.75-.75.75h-4c-.42 0-.75-.34-.75-.75Z"/><path d="M20.53 3.46c.29.29.29.76 0 1.06l-3.5 3.5c-.3.29-.77.29-1.07 0 -.3-.3-.3-.77 0-1.07l3.5-3.5c.29-.3.76-.3 1.06 0Zm-12.5 12.5c.29.29.29.76 0 1.06l-3.5 3.5c-.3.29-.77.29-1.07 0 -.3-.3-.3-.77 0-1.07l3.5-3.5c.29-.3.76-.3 1.06 0Z"/><path d="M3.46 3.46c-.3.29-.3.76 0 1.06l3.5 3.5c.29.29.76.29 1.06 0 .29-.3.29-.77 0-1.07l-3.5-3.5c-.3-.3-.77-.3-1.07 0Zm12.5 12.5c-.3.29-.3.76 0 1.06l3.5 3.5c.29.29.76.29 1.06 0 .29-.3.29-.77 0-1.07l-3.5-3.5c-.3-.3-.77-.3-1.07 0Z"/><path d="M12 1.25c.41 0 .75.33.75.75v4c0 .41-.34.75-.75.75 -.42 0-.75-.34-.75-.75V2c0-.42.33-.75.75-.75Z"/><path d="M12 17.25c.41 0 .75.33.75.75v4c0 .41-.34.75-.75.75 -.42 0-.75-.34-.75-.75v-4c0-.42.33-.75.75-.75Z"/></g><path fill="#FFC44D" d="M12 5.25c-3.73 0-6.75 3.02-6.75 6.75 0 3.72 3.02 6.75 6.75 6.75 3.72 0 6.75-3.03 6.75-6.75 0-3.73-3.03-6.75-6.75-6.75Z"/><path fill="#ECEFF1" fill-rule="evenodd" d="M12.33 8.32c.37.18.52.63.33 1l-.96 1.91h1.78c.25 0 .5.13.63.35 .13.22.14.49.03.72l-1.5 3c-.19.37-.64.52-1.01.33 -.38-.19-.53-.64-.34-1.01l.95-1.92h-1.79c-.26 0-.51-.14-.64-.36 -.14-.23-.15-.5-.04-.73l1.5-3c.18-.38.63-.53 1-.34Z"/></svg>