<svg viewBox="0 0 24 24" xmlns="http://www.w3.org/2000/svg"><path fill="#A2D471" fill-rule="evenodd" d="M9.46 6.46c.29-.3.76-.3 1.06 0l1.46 1.46 1.46-1.47c.29-.3.76-.3 1.06 0 .29.29.29.76 0 1.06l-1.79 1.78v5.68c0 .41-.34.75-.75.75 -.42 0-.75-.34-.75-.75V9.28L9.42 7.49c-.3-.3-.3-.77 0-1.07Z"/><path fill="#FFC44D" d="M10.18 14.1c-2.43-.81-4.94.99-4.94 3.55v.17c0 1.61 1.03 3.04 2.56 3.55l2.36.78c1.18.39 2.45.39 3.63 0l2.36-.79c1.53-.52 2.56-1.95 2.56-3.56v-.18c0-2.56-2.51-4.37-4.94-3.56l-.48.15c-.88.29-1.82.29-2.69 0l-.48-.16Z"/><path fill="#FFD071" fill-rule="evenodd" d="M8.32 16.66c.18-.38.63-.53 1-.34l.76.38c1.19.59 2.6.59 3.8 0l.76-.39c.37-.19.82-.04 1 .33 .18.37.03.82-.34 1l-.77.38c-1.62.8-3.53.8-5.15 0l-.77-.39c-.38-.19-.53-.64-.34-1.01Z"/><g fill="#8BC94D"><path d="M7 1.25c2.07 0 3.75 1.67 3.75 3.75v2c0 .41-.34.75-.75.75H6C3.92 7.75 2.25 6.07 2.25 4V2c0-.42.33-.75.75-.75h4Z"/><path d="M17 1.25c-2.08 0-3.75 1.67-3.75 3.75v2c0 .41.33.75.75.75h4c2.07 0 3.75-1.68 3.75-3.75V2c0-.42-.34-.75-.75-.75h-4Z"/></g></svg>