<svg viewBox="0 0 24 24" xmlns="http://www.w3.org/2000/svg"><path fill="#FFC44D" d="M12 7.75c-2.63 0-4.75 2.12-4.75 4.75 0 .19.07.38.21.53l4 4c.29.29.76.29 1.06 0l4-4c.14-.15.21-.34.21-.54 0-2.63-2.13-4.75-4.75-4.75Z"/><path fill="#8BC94D" d="M18.35 12.97c-1.07-1.79-3.65-1.79-4.72 0l-4.29 7.14c-.14.23-.15.52-.01.75 .13.23.38.38.65.38h12c.27 0 .51-.15.65-.39 .13-.24.12-.53-.01-.76l-4.285-7.15Z"/><g fill="#FFD071" fill-rule="evenodd"><path d="M12 2.75c.41 0 .75.33.75.75v3c0 .41-.34.75-.75.75 -.42 0-.75-.34-.75-.75v-3c0-.42.33-.75.75-.75Z"/><path d="M19.16 5.48c.28.3.27.77-.04 1.06l-2.12 2c-.31.28-.78.27-1.07-.04 -.29-.31-.28-.78.03-1.07l2.11-2c.3-.29.77-.28 1.06.03Z"/><path d="M4.96 5.46c.29-.3.76-.3 1.06 0l2 2c.29.29.29.76 0 1.06 -.3.29-.77.29-1.07 0l-2-2c-.3-.3-.3-.77 0-1.07Z"/><path d="M17.25 10.5c0-.42.33-.75.75-.75h3c.41 0 .75.33.75.75 0 .41-.34.75-.75.75h-3c-.42 0-.75-.34-.75-.75Z"/><path d="M2.25 10.5c0-.42.33-.75.75-.75h3c.41 0 .75.33.75.75 0 .41-.34.75-.75.75H3c-.42 0-.75-.34-.75-.75Z"/></g><path fill="#A2D471" d="M10.35 12.97c-1.07-1.79-3.65-1.79-4.72 0l-4.29 7.14c-.14.23-.15.52-.01.75 .13.23.38.38.65.38h12c.27 0 .51-.15.65-.39 .13-.24.12-.53-.01-.76l-4.285-7.15Z"/></svg>