<svg viewBox="0 0 24 24" xmlns="http://www.w3.org/2000/svg"><g fill="#A2D471"><path d="M16.9 1.25c3.17 0 5.75 2.57 5.75 5.75 0 3.17-2.58 5.75-5.75 5.75 -.23 0-.44-.11-.59-.28l-4.9-6c-.15-.18-.2-.41-.16-.63 .53-2.63 2.85-4.61 5.635-4.61Z"/><path d="M7 1.25C3.82 1.25 1.25 3.82 1.25 7c0 3.17 2.57 5.75 5.75 5.75 .22 0 .43-.11.58-.28l4.9-6c.14-.18.19-.41.15-.63 -.54-2.63-2.86-4.61-5.635-4.61Z"/></g><g fill="#B47C65" fill-rule="evenodd"><path d="M12 15.25c.41 0 .75.33.75.75v6c0 .41-.34.75-.75.75 -.42 0-.75-.34-.75-.75v-6c0-.42.33-.75.75-.75Z"/><path d="M7 11.25c.41 0 .75.33.75.75v6c0 .41-.34.75-.75.75 -.42 0-.75-.34-.75-.75v-6c0-.42.33-.75.75-.75Z"/><path d="M16.9 11.25c-.42 0-.75.33-.75.75v6c0 .41.33.75.75.75 .41 0 .75-.34.75-.75v-6c0-.42-.34-.75-.75-.75Z"/></g><path fill="#8BC94D" d="M12 5.25c-3.18 0-5.75 2.57-5.75 5.75 0 3.17 2.57 5.75 5.75 5.75 3.17 0 5.75-2.58 5.75-5.75 0-3.18-2.58-5.75-5.75-5.75Z"/></svg>