<svg viewBox="0 0 24 24" xmlns="http://www.w3.org/2000/svg"><path fill="#4DC4FF" fill-rule="evenodd" d="M12.51 1.45l0 0 0 0 .01.01 .06.06c.06.05.14.14.25.25 .22.21.53.53.92.93 .75.78 1.77 1.89 2.79 3.13 1.01 1.24 2.04 2.64 2.82 4.02 .76 1.36 1.34 2.8 1.34 4.1 0 4.83-3.92 8.75-8.75 8.75 -4.84 0-8.75-3.92-8.75-8.75 0-1.31.57-2.75 1.34-4.11 .77-1.39 1.8-2.79 2.82-4.03 1.01-1.25 2.03-2.35 2.79-3.14 .38-.4.69-.72.92-.94 .11-.11.19-.2.25-.26l.06-.07 .01-.02 0-.01c.28-.28.74-.28 1.03 0Zm-.52.54c-.52-.55-.52-.55-.52-.55l.51.54Zm0 0l.51-.55s-.01-.01-.52.54Z"/><path fill="#ECEFF1" d="M12.75 7.99c0-.34-.23-.64-.56-.73 -.33-.09-.68.05-.85.34l-3.51 6c-.13.21-.14.47-.03.7 .1.22.32.38.56.41l2.85.4v2.84c0 .33.22.63.55.72 .32.08.67-.06.84-.35l3.5-6c.12-.22.13-.48.02-.71 -.11-.23-.33-.39-.57-.42l-2.86-.41V7.93Z"/></svg>