<svg viewBox="0 0 24 24" xmlns="http://www.w3.org/2000/svg"><g fill-rule="evenodd"><path d="M4 9c0-4.42 3.58-8 8-8 4.41 0 8 3.58 8 8 0 4.41-3.59 8-8 8 -4.42 0-8-3.59-8-8Zm7.99-5c.43 0 .81.27.95.69l.67 2.07h2.17c.43 0 .81.27.95.69 .13.41-.02.86-.37 1.11l-1.77 1.28 .67 2.07c.13.41-.02.86-.37 1.11 -.36.25-.83.25-1.18 0l-1.77-1.29 -1.77 1.28c-.36.25-.83.25-1.18 0 -.36-.26-.5-.71-.37-1.12l.67-2.08 -1.77-1.29c-.36-.26-.5-.71-.37-1.12 .13-.42.51-.7.95-.7h2.17l.67-2.08c.13-.42.51-.7.95-.7Z"/><path d="M7 13c.55 0 1 .44 1 1v6.523l3.25-1.31c.47-.2 1-.2 1.48 0l3.25 1.3V13.99c0-.56.44-1 1-1 .55 0 1 .44 1 1v6.523c0 1.41-1.43 2.38-2.75 1.85l-3.26-1.31 -3.26 1.3c-1.32.52-2.75-.45-2.75-1.86V13.97c0-.56.44-1 1-1Z"/></g></svg>