<svg viewBox="0 0 24 24" xmlns="http://www.w3.org/2000/svg"><path fill-rule="evenodd" d="M13.5 4c-.97 0-1.83.45-2.38 1.16 -.36-.11-.74-.17-1.13-.17 -1.69 0-3.13 1.03-3.72 2.51 -.1-.01-.2-.02-.29-.02 -2.21 0-4 1.79-4 4 0 .08 0 .17 0 .25 -.62.54-1.01 1.34-1.01 2.24 0 1.65 1.34 3 3 3h4.2c.38.88 1.26 1.5 2.29 1.5h3.68l.1.51c.23 1.15 1.24 1.98 2.42 1.98 1.43 0 2.53-1.21 2.46-2.6 .76-.22 1.38-.79 1.66-1.53 1.24-.37 2.15-1.52 2.15-2.89 0-.92-.42-1.75-1.07-2.3 .04-.24.06-.47.06-.71 0-1.29-.62-2.44-1.56-3.17 -.32-1.9-1.97-3.34-3.95-3.34 -.39 0-.77.05-1.13.15 -.52-.42-1.17-.66-1.88-.66Zm2 6c-.56 0-1 .44-1 1h-2c0-1.66 1.34-3 3-3 1.65 0 3 1.34 3 3h-2c0-.56-.45-1-1-1ZM8 13c0-.56.44-1 1-1 .55 0 1 .44 1 1h2c0-1.66-1.35-3-3-3 -1.66 0-3 1.34-3 3h2Z"/></svg>