<svg viewBox="0 0 24 24" xmlns="http://www.w3.org/2000/svg"><path fill-rule="evenodd" d="M1.53 7l4.34-5.22 .17.52L7.6 6.98H1.51Zm8.7 2l1.763 8.22 1.763-8.23H10.23Zm5.57 0l-2.84 13.2c-.03.13-.09.25-.16.36l9.693-13.58h-6.71Zm-4.64 13.57c-.08-.11-.13-.23-.16-.37L8.16 8.99H1.45l9.69 13.57ZM22.45 7h-6.09l1.56-4.69 .17-.53 4.34 5.21ZM11.98 1h4.27l-.23.68 -1.24 3.7 -1.93-3.85c-.17-.34-.52-.56-.9-.56ZM7.7 1h4.27c-.38 0-.73.21-.9.55L9.14 5.39 7.9 1.68 7.67.99Zm4.27 3.23l-1.39 2.76h2.76l-1.39-2.77Z"/></svg>