<svg viewBox="0 0 24 24" xmlns="http://www.w3.org/2000/svg"><g fill-rule="evenodd"><path d="M9 8c.36 0 .7.2.88.52l7 13c.16.3.15.68-.03.98 -.19.3-.51.48-.86.48h-14c-.36 0-.68-.19-.86-.49 -.19-.31-.19-.68-.03-.99l7-13c.17-.33.51-.53.88-.53ZM3.67 21h10.65l-5.33-9.9 -5.33 9.89Z"/><path d="M14.99 10c.34 0 .66.17.84.46l7 11c.19.3.2.69.03 1.01 -.18.32-.52.51-.88.51h-6v-2h4.17l-5.18-8.14 -1.81 2.83 -1.69-1.08 2.64-4.17c.18-.29.5-.47.84-.47Z"/><path d="M10 6v3H8V6h2Z"/><path d="M9 1c-.56 0-1 .44-1 1v4c0 .55.44 1 1 1h5c.55 0 1-.45 1-1V2c0-.56-.45-1-1-1h-3H9Z"/><path d="M5.76 14c-.37 0-.71.2-.89.52l-3.77 7c-.17.3-.16.68.02.98 .18.3.5.48.85.48h14c.35 0 .67-.19.85-.49 .18-.31.18-.68.02-.99l-3.77-7c-.18-.33-.52-.53-.89-.53H5.71Z"/></g></svg>