<svg viewBox="0 0 24 24" xmlns="http://www.w3.org/2000/svg"><g fill-rule="evenodd"><path d="M14 14c-1.66 0-3 1.34-3 3v1c0 .55.44 1 1 1h3c1.65 0 3-1.35 3-3v-1c0-.56-.45-1-1-1h-3Z"/><path d="M13 13v9h-2v-9h2Z"/><path d="M12 6c-2.21 0-4 1.79-4 4 0 2.2 1.79 4 4 4 2.2 0 4-1.8 4-4 0-2.21-1.8-4-4-4Z"/><path d="M3.5 8V2h2v6h-2Z"/><path d="M18.5 8V2h2v6h-2Z"/><path d="M3.87 1.21c.36-.3.88-.3 1.24 0l2.5 2L6.36 4.77 4.48 3.26 2.6 4.76 1.35 3.19l2.5-2Z"/><path d="M18.875 1.21c.36-.3.88-.3 1.24 0l2.5 2 -1.25 1.56 -1.88-1.51 -1.88 1.5 -1.25-1.57 2.5-2Z"/><path d="M15 23H9v-2h6v2Z"/></g></svg>