<svg viewBox="0 0 24 24" xmlns="http://www.w3.org/2000/svg"><g fill-rule="evenodd"><path d="M11 22v-4h2v4h-2Z"/><path d="M4.5 21.13l6.99-4 .99 1.73 -7.01 4 -1-1.74Z"/><path d="M19.49 21.13l-7-4 -1 1.73 7 4 .99-1.74Z"/><path d="M1 3c0-1.11.89-2 2-2h18c1.1 0 2 .89 2 2v14c0 1.1-.9 2-2 2H3c-1.11 0-2-.9-2-2V3Zm4 3h4V4H5v2Zm5 3H5V7h5v2Zm2-4c0-.56.44-1 1-1h6c.55 0 1 .44 1 1v3c0 .55-.45 1-1 1h-6c-.56 0-1-.45-1-1V5Zm-7 5c-.56 0-1 .44-1 1v4c0 .55.44 1 1 1h5c.55 0 1-.45 1-1v-4c0-.56-.45-1-1-1H5Zm9 5v-3h-2v3h2Zm3-2v2h-2v-2h2Zm1 2h2v-4h-2v4Z"/></g></svg>