<svg viewBox="0 0 24 24" xmlns="http://www.w3.org/2000/svg"><g fill-rule="evenodd"><path d="M15 8c-2.77 0-5 2.23-5 5 0 2.76 2.23 5 5 5 2.76 0 5-2.24 5-5 0-2.77-2.24-5-5-5Z"/><path d="M18.7 15.29l4 4 -1.42 1.41 -4-4 1.41-1.42Z"/><path d="M6.29 1.29c.18-.19.44-.3.7-.3h9c.55 0 1 .44 1 1v7h-2v-6H7.4L2.98 7.4v13.58h12v-4h2v5c0 .55-.45 1-1 1h-14c-.56 0-1-.45-1-1v-15c0-.27.1-.52.29-.71l5-5Z"/><path d="M8 2c0-.41-.25-.77-.62-.93C7 .91 6.57 1 6.29 1.28l-5 5c-.29.28-.38.71-.22 1.08 .15.37.51.61.92.61h5c.55 0 1-.45 1-1v-5Z"/><path d="M13 20H5v-2h8v2Z"/><path d="M12 11H5V9h7v2Z"/><path d="M11 14H5v-2h6v2Z"/><path d="M12.5 17H5v-2h7.5v2Z"/></g></svg>