<svg viewBox="0 0 24 24" xmlns="http://www.w3.org/2000/svg"><g fill="#5E94FF"><path d="M17 10.25c-2.08 0-3.75 1.67-3.75 3.75 0 2.07 1.67 3.75 3.75 3.75 2.07 0 3.75-1.68 3.75-3.75 0-2.08-1.68-3.75-3.75-3.75Z"/><path fill="#5E94FF" fill-rule="evenodd" d="M17 17.75c-2.35 0-4.25 1.9-4.25 4.25 0 .41-.34.75-.75.75 -.42 0-.75-.34-.75-.75 0-3.18 2.57-5.75 5.75-5.75 3.17 0 5.75 2.57 5.75 5.75 0 .41-.34.75-.75.75 -.42 0-.75-.34-.75-.75 0-2.35-1.91-4.25-4.25-4.25Z"/></g><path fill="#CFD8DC" d="M4 1.25C2.48 1.25 1.25 2.48 1.25 4v3.31c0 1.51 1.23 2.75 2.75 2.75h5.27l2.3 1.55c.22.15.52.17.77.04 .24-.14.39-.39.39-.67v-7c0-1.52-1.24-2.75-2.75-2.75h-6Z"/></svg>