<svg viewBox="0 0 24 24" xmlns="http://www.w3.org/2000/svg"><path fill="#5E94FF" d="M5 3.25C3.48 3.25 2.25 4.48 2.25 6v9c0 1.51 1.23 2.75 2.75 2.75h11.27l4.31 2.87c.23.15.52.16.76.03 .24-.14.39-.39.39-.67v-14c0-1.52-1.24-2.75-2.75-2.75h-14Z"/><g fill="#ECEFF1"><path d="M11.78 6.28c-1.52 0-2.75 1.23-2.75 2.75 0 1.51 1.23 2.75 2.74 2.75 1.51 0 2.75-1.24 2.75-2.76 0-1.52-1.24-2.75-2.75-2.75Z"/><path fill="#ECEFF1" fill-rule="evenodd" d="M11.78 11.78c-1.25 0-2.25 1-2.25 2.25 0 .41-.34.75-.75.75 -.42 0-.75-.34-.75-.75 0-2.08 1.67-3.75 3.74-3.75 2.07 0 3.75 1.67 3.75 3.75 0 .41-.34.75-.75.75 -.42 0-.75-.34-.75-.75 0-1.25-1.01-2.25-2.25-2.25Z"/></g></svg>