<svg viewBox="0 0 24 24" xmlns="http://www.w3.org/2000/svg"><path fill="#5E94FF" d="M21 3c.41 0 .75.33.75.75v13c0 .41-.34.75-.75.75h-5.19l-3.29 3.28c-.3.29-.77.29-1.07 0l-3.29-3.29H2.97c-.42 0-.75-.34-.75-.75v-13c0-.42.33-.75.75-.75h18Z"/><g fill="#ECEFF1"><path d="M11.78 5.78c-1.52 0-2.75 1.23-2.75 2.75 0 1.51 1.23 2.75 2.74 2.75 1.51 0 2.75-1.24 2.75-2.76 0-1.52-1.24-2.75-2.75-2.75Z"/><path fill="#ECEFF1" fill-rule="evenodd" d="M11.78 11.28c-1.25 0-2.25 1-2.25 2.25 0 .41-.34.75-.75.75 -.42 0-.75-.34-.75-.75 0-2.08 1.67-3.76 3.74-3.76 2.07 0 3.75 1.67 3.75 3.75 0 .41-.34.75-.75.75 -.42 0-.75-.34-.75-.75 0-1.25-1.01-2.25-2.25-2.25Z"/></g></svg>