<svg viewBox="0 0 24 24" xmlns="http://www.w3.org/2000/svg"><g fill="#5E94FF"><path d="M17 10.25c2.07 0 3.75 1.67 3.75 3.75 0 2.07-1.68 3.75-3.75 3.75 -2.08 0-3.75-1.68-3.75-3.75 0-2.08 1.67-3.75 3.75-3.75Z"/><path fill="#5E94FF" fill-rule="evenodd" d="M17 17.75c2.34 0 4.25 1.9 4.25 4.25 0 .41.33.75.75.75 .41 0 .75-.34.75-.75 0-3.18-2.58-5.75-5.75-5.75 -3.18 0-5.75 2.57-5.75 5.75 0 .41.33.75.75.75 .41 0 .75-.34.75-.75 0-2.35 1.9-4.25 4.25-4.25Z"/></g><path fill="#CFD8DC" d="M2 1.75c-.42 0-.75.33-.75.75v6.9c0 .41.33.74.75.74h6.94l2.2 1.46c.23.15.52.16.76.03 .24-.14.39-.39.39-.67v-8.5c0-.42-.34-.75-.75-.75H1.97Z"/></svg>