<svg viewBox="0 0 24 24" xmlns="http://www.w3.org/2000/svg"><path fill="#CFD8DC" d="M20 12.75c.41 0 .75.33.75.75v6c0 .41-.34.75-.75.75H4.36l-1.78 2.21c-.2.24-.54.34-.84.23 -.31-.11-.51-.39-.51-.71v-8.5c0-.42.33-.75.75-.75h18Z"/><path fill="#5E94FF" d="M4 1.25c-.42 0-.75.33-.75.75v6c0 .41.33.75.75.75h15.63l1.77 2.21c.19.24.53.34.83.23 .3-.11.5-.39.5-.71v-8.5c0-.42-.34-.75-.75-.75h-18Z"/><g fill="#ECEFF1" fill-rule="evenodd"><path d="M6.25 5c0-.42.33-.75.75-.75h12c.41 0 .75.33.75.75 0 .41-.34.75-.75.75H7c-.42 0-.75-.34-.75-.75Z"/><path fill="#8B98A6" d="M4.25 16.5c0-.42.33-.75.75-.75h12c.41 0 .75.33.75.75 0 .41-.34.75-.75.75H5c-.42 0-.75-.34-.75-.75Z"/></g></svg>