<svg viewBox="0 0 24 24" xmlns="http://www.w3.org/2000/svg"><path fill="#EE4D4D" d="M21 3.25c.41 0 .75.33.75.75v13c0 .41-.34.75-.75.75H7.72L3.4 20.62c-.24.15-.53.16-.77.03 -.25-.14-.4-.39-.4-.67v-16c0-.42.33-.75.75-.75h18Z"/><g fill="#ECEFF1" fill-rule="evenodd"><path d="M9.7 8.2c.29-.3.76-.3 1.06 0l3.53 3.53c.29.29.29.76 0 1.06 -.3.29-.77.29-1.07 0L9.68 9.25c-.3-.3-.3-.77 0-1.07Z"/><path d="M9.7 12.79c-.3-.3-.3-.77 0-1.07l3.53-3.54c.29-.3.76-.3 1.06 0 .29.29.29.76 0 1.06l-3.54 3.53c-.3.29-.77.29-1.07 0Z"/></g></svg>