<svg viewBox="0 0 24 24" xmlns="http://www.w3.org/2000/svg"><path fill="#5E94FF" d="M21 3c.41 0 .75.33.75.75v13c0 .41-.34.75-.75.75h-5.19l-3.29 3.28c-.3.29-.77.29-1.07 0l-3.29-3.29H2.97c-.42 0-.75-.34-.75-.75v-13c0-.42.33-.75.75-.75h18Z"/><g fill="#ECEFF1" fill-rule="evenodd"><path d="M7.75 7.75c0-.42.33-.75.75-.75h7c.41 0 .75.33.75.75 0 .41-.34.75-.75.75h-7c-.42 0-.75-.34-.75-.75Z"/><path d="M7.75 12.25c0-.42.33-.75.75-.75h7c.41 0 .75.33.75.75 0 .41-.34.75-.75.75h-7c-.42 0-.75-.34-.75-.75Z"/></g></svg>