<svg viewBox="0 0 24 24" xmlns="http://www.w3.org/2000/svg"><path fill="#5E94FF" d="M5 3.25C3.48 3.25 2.25 4.48 2.25 6v9c0 1.51 1.23 2.75 2.75 2.75h11.27l4.31 2.87c.23.15.52.16.76.03 .24-.14.39-.39.39-.67v-14c0-1.52-1.24-2.75-2.75-2.75h-14Z"/><g fill="#ECEFF1"><path d="M9 9.25c-.42 0-.75.33-.75.75v4.5c0 .41.33.75.75.75h6c.41 0 .75-.34.75-.75V10c0-.42-.34-.75-.75-.75H9Z"/><path fill="#ECEFF1" fill-rule="evenodd" d="M9.25 8.5c0-1.52 1.23-2.75 2.75-2.75 1.51 0 2.75 1.23 2.75 2.75V10c0 .41-.34.75-.75.75h-4c-.42 0-.75-.34-.75-.75V8.5ZM12 7.25c-.7 0-1.25.55-1.25 1.25v.75h2.5V8.5c0-.7-.56-1.25-1.25-1.25Z"/></g></svg>