<svg viewBox="0 0 24 24" xmlns="http://www.w3.org/2000/svg"><path fill="#EE4D4D" d="M4.75 3C3.23 3 2 4.23 2 5.75v9c0 1.51 1.23 2.75 2.75 2.75h11.27l4.31 2.87c.23.15.52.16.76.03 .24-.14.39-.39.39-.67v-14c0-1.52-1.24-2.75-2.75-2.75h-14Z"/><g fill="#ECEFF1" fill-rule="evenodd"><path d="M9.7 8.2c.29-.3.76-.3 1.06 0l3.53 3.53c.29.29.29.76 0 1.06 -.3.29-.77.29-1.07 0L9.68 9.25c-.3-.3-.3-.77 0-1.07Z"/><path d="M9.7 12.79c-.3-.3-.3-.77 0-1.07l3.53-3.54c.29-.3.76-.3 1.06 0 .29.29.29.76 0 1.06l-3.54 3.53c-.3.29-.77.29-1.07 0Z"/></g></svg>