<svg viewBox="0 0 24 24" xmlns="http://www.w3.org/2000/svg"><path fill="#5E94FF" d="M12 2.25c5.38 0 9.75 4.36 9.75 9.75 0 1.51-.35 2.94-.97 4.23l.79 3.89c.17.86-.59 1.64-1.46 1.48l-4.03-.76c-1.25.57-2.64.9-4.11.9 -5.39 0-9.75-4.37-9.75-9.75 0-5.39 4.36-9.75 9.75-9.75Z"/><g fill="#ECEFF1" fill-rule="evenodd"><path d="M12 8.75c.41 0 .75.33.75.75v5c0 .41-.34.75-.75.75 -.42 0-.75-.34-.75-.75v-5c0-.42.33-.75.75-.75Z"/><path d="M8.75 12c0-.42.33-.75.75-.75h5c.41 0 .75.33.75.75 0 .41-.34.75-.75.75h-5c-.42 0-.75-.34-.75-.75Z"/></g></svg>