<svg viewBox="0 0 24 24" xmlns="http://www.w3.org/2000/svg"><path fill="#5E94FF" d="M12 2.25c5.38 0 9.75 4.36 9.75 9.75v9c0 .41-.34.75-.75.75h-9c-5.39 0-9.75-4.37-9.75-9.75 0-5.39 4.36-9.75 9.75-9.75Z"/><g fill="#ECEFF1"><path d="M7 10.75c-.97 0-1.75.78-1.75 1.75 0 .96.78 1.75 1.75 1.75 .96 0 1.75-.79 1.75-1.75 0-.97-.79-1.75-1.75-1.75Z"/><path d="M12 10.75c-.97 0-1.75.78-1.75 1.75 0 .96.78 1.75 1.75 1.75 .96 0 1.75-.79 1.75-1.75 0-.97-.79-1.75-1.75-1.75Z"/><path d="M17 10.75c-.97 0-1.75.78-1.75 1.75 0 .96.78 1.75 1.75 1.75 .96 0 1.75-.79 1.75-1.75 0-.97-.79-1.75-1.75-1.75Z"/></g></svg>