<svg viewBox="0 0 24 24" xmlns="http://www.w3.org/2000/svg"><path fill="#CFD8DC" d="M12.47 9.61c-1.25-2.05-3.83-2.84-6.01-1.86l-.82.36 -.04.01c-2.02 1.16-3.38 3.34-3.38 5.84 0 1.01.22 1.98.63 2.85l-.47 2.26c-.18.86.58 1.64 1.45 1.48l2.36-.45c.84.38 1.78.59 2.76.59 1.72 0 3.3-.66 4.5-1.72l.01-.02 .82-.82c1.23-1.23 1.47-3.14.56-4.63l-2.43-3.97Z"/><path fill="#5E94FF" d="M15 2.75c3.72 0 6.75 3.02 6.75 6.75 0 1.01-.23 1.98-.64 2.85l.46 2.26c.17.86-.59 1.64-1.46 1.48l-2.37-.45c-.85.38-1.79.59-2.77.59 -3.73 0-6.75-3.03-6.75-6.75 0-3.73 3.02-6.75 6.75-6.75Z"/></svg>