<svg viewBox="0 0 24 24" xmlns="http://www.w3.org/2000/svg"><path fill="#EE4D4D" d="M20.75 3c.41 0 .75.33.75.75v13c0 .41-.34.75-.75.75h-5.19l-3.29 3.28c-.3.29-.77.29-1.07 0l-3.29-3.29H2.72c-.42 0-.75-.34-.75-.75v-13c0-.42.33-.75.75-.75h18Z"/><g fill="#ECEFF1" fill-rule="evenodd"><path d="M9.7 8.2c.29-.3.76-.3 1.06 0l3.53 3.53c.29.29.29.76 0 1.06 -.3.29-.77.29-1.07 0L9.68 9.25c-.3-.3-.3-.77 0-1.07Z"/><path d="M9.7 12.79c-.3-.3-.3-.77 0-1.07l3.53-3.54c.29-.3.76-.3 1.06 0 .29.29.29.76 0 1.06l-3.54 3.53c-.3.29-.77.29-1.07 0Z"/></g></svg>