<svg viewBox="0 0 24 24" xmlns="http://www.w3.org/2000/svg"><g fill-rule="evenodd"><path d="M5.05 1.68c.13-.41.51-.69.94-.69h11.99c.43 0 .81.27.94.68l1 3c.01.05.03.11.04.17l.7 4.94c.2 1.45.2 2.93 0 4.38l-.71 4.94c-.01.05-.03.11-.05.17l-1 3c-.14.4-.52.68-.95.68h-12c-.44 0-.82-.28-.95-.69l-1-3c-.02-.06-.04-.12-.05-.18l-.71-4.95c-.21-1.46-.21-2.94 0-4.39l.7-4.95c0-.06.02-.12.04-.18l1-3Zm1.66 1.31l-.75 2.23 -.7 4.86c-.19 1.26-.19 2.55 0 3.81l.69 4.86 .74 2.23h10.55l.74-2.24 .69-4.87c.18-1.27.18-2.56 0-3.82l-.7-4.87 -.75-2.24H6.66Z"/><path d="M11 22V2h2v20h-2Z"/><path d="M6.53 11.55l.96-9.66 1.99.19 -.97 9.65c-.02.16-.02.33 0 .49l.96 9.65 -2 .19 -.97-9.66c-.03-.3-.03-.6 0-.9Z"/><path d="M17.46 11.55l-.97-9.66 -2 .19 .96 9.65c.01.16.01.33 0 .49l-.97 9.65 1.99.19 .96-9.66c.02-.3.02-.6 0-.9Z"/><path d="M20.5 6h-17V4h17v2Z"/><path d="M3.5 18h17v2h-17v-2Z"/></g></svg>