<svg viewBox="0 0 24 24" xmlns="http://www.w3.org/2000/svg"><g fill-rule="evenodd"><path d="M6 10c0-1.66 1.34-3 3-3h6c1.65 0 3 1.34 3 3v12c0 .55-.45 1-1 1H7c-.56 0-1-.45-1-1V10Zm3-1c-.56 0-1 .44-1 1v11h8V10c0-.56-.45-1-1-1H9Z"/><path d="M9 2c0-.56.44-1 1-1h4c.55 0 1 .44 1 1v6c0 .55-.45 1-1 1h-4c-.56 0-1-.45-1-1V2Zm2 1v4h2V3h-2Z"/><path d="M10.67 1.76c.2.18.32.45.32.73v3c0 .28-.12.54-.33.73 -.21.18-.49.28-.77.25l-5.5-.5c-.52-.05-.91-.48-.91-1v-2c0-.52.39-.95.9-1l5.5-.5c.27-.03.55.06.76.25ZM5.49 3.91v.17l3.5.31v-.81l-3.5.31Z"/><path d="M18.5 3H14V1h5.5c.55 0 1 .44 1 1v4h-2V3Z"/><path d="M12 13.5c-1.11 0-2 .89-2 2 0 1.1.89 2 2 2 1.1 0 2-.9 2-2 0-1.11-.9-2-2-2Zm-4 2c0-2.21 1.79-4 4-4 2.2 0 4 1.79 4 4 0 2.2-1.8 4-4 4 -2.21 0-4-1.8-4-4Z"/><path d="M13.21 18.62l-4.01-5 1.56-1.25 4 5 -1.57 1.24Z"/></g></svg>