<svg viewBox="0 0 24 24" xmlns="http://www.w3.org/2000/svg"><g fill-rule="evenodd"><path d="M2.09 10.62C2.01 8.63 3.6 6.99 5.58 6.99h1.81c1.98 0 3.56 1.64 3.49 3.62l-.41 11.41c-.02.53-.47.96-1 .96h-6c-.54 0-.99-.43-1-.97l-.41-11.42Zm3.49-1.63c-.85 0-1.53.7-1.5 1.55l.37 10.44h4.07l.37-10.45c.03-.85-.65-1.56-1.5-1.56H5.57Z"/><path d="M13.09 10.62c-.08-1.99 1.51-3.63 3.49-3.63h1.81c1.98 0 3.56 1.64 3.49 3.62l-.41 11.41c-.02.53-.47.96-1 .96h-6c-.54 0-.99-.43-1-.97l-.41-11.42Zm3.49-1.63c-.85 0-1.53.7-1.5 1.55l.37 10.44h4.07l.37-10.45c.03-.85-.65-1.56-1.5-1.56h-1.82Z"/><path d="M4.02 3.17C4.17 1.94 5.22.99 6.49.99c1.27 0 2.32.95 2.47 2.17 .79-.14 1.64.15 2.17.86 .66.89.57 2.13-.21 2.92L9.17 8.68c-.19.18-.45.29-.71.29h-4c-.27 0-.52-.11-.71-.3L2 6.92c-.79-.79-.88-2.04-.21-2.93 .52-.71 1.37-1.01 2.17-.87Zm2.47-.18c-.28 0-.5.22-.5.5v1.5c0 .4-.25.76-.62.92 -.38.15-.81.06-1.09-.22l-.5-.5c-.11-.11-.28-.1-.36.02 -.08.09-.07.22.02.31l1.44 1.44h3.17l1.44-1.45c.08-.09.09-.22.02-.32 -.09-.12-.26-.13-.36-.03l-.5.49c-.29.28-.72.37-1.09.21 -.38-.16-.62-.52-.62-.93v-1.5c0-.28-.23-.5-.5-.5Z"/><path d="M15.02 3.17c.15-1.23 1.2-2.18 2.47-2.18 1.27 0 2.32.95 2.47 2.17 .79-.14 1.64.15 2.17.86 .66.89.57 2.13-.21 2.92l-1.75 1.74c-.19.18-.45.29-.71.29h-4c-.27 0-.52-.11-.71-.3L13 6.92c-.79-.79-.88-2.04-.21-2.93 .52-.71 1.37-1.01 2.17-.87Zm2.47-.18c-.28 0-.5.22-.5.5v1.5c0 .4-.25.76-.62.92 -.38.15-.81.06-1.09-.22l-.5-.5c-.11-.11-.28-.1-.36.02 -.08.09-.07.22.02.31l1.44 1.44h3.17l1.44-1.45c.08-.09.09-.22.02-.32 -.09-.12-.26-.13-.36-.03l-.5.49c-.29.28-.72.37-1.09.21 -.38-.16-.62-.52-.62-.93v-1.5c0-.28-.23-.5-.5-.5Z"/><path d="M22 23H2v-2h20v2Z"/></g></svg>