<svg viewBox="0 0 24 24" xmlns="http://www.w3.org/2000/svg"><g fill-rule="evenodd"><path d="M11.7 8.29c-.4-.4-1.03-.4-1.42 0l-2.01 2c-.19.18-.3.44-.3.7 0 .26.1.51.29.7l9 9c.39.39 1.02.39 1.41 0l2-2c.18-.19.29-.45.29-.71 0-.27-.11-.52-.3-.71l-9-9.01Zm6.87 9.7l-.59.58 -7.59-7.59 .58-.59 7.58 7.58Z"/><path d="M9.74 2.21C8.98 1.43 7.95.99 6.87.99H1.99c-.56 0-1 .44-1 1v4.75c0 1.06.42 2.07 1.17 2.82l4.12 4.12c.39.39 1.02.39 1.41 0l5.99-6c.38-.39.39-1.02.01-1.41l-3.98-4.1Zm-2.87.78c.54 0 1.05.21 1.43.6l3.28 3.38 -4.6 4.59 -3.42-3.42c-.38-.38-.59-.89-.59-1.42V2.96h3.87Z"/><path d="M16.707 22.7l6-6 -1.42-1.42 -6 6 1.41 1.41Z"/></g></svg>