<svg viewBox="0 0 24 24" xmlns="http://www.w3.org/2000/svg"><g fill-rule="evenodd"><path d="M11 22V1.99h2v20h-2Z"/><path d="M1.29 4.29l3-3L5.7 2.7 3.4 4.99l2.29 2.29 -1.42 1.41 -3-3c-.4-.4-.4-1.03 0-1.42Z"/><path d="M17.29 1.29c.18-.19.44-.3.7-.3h4c.4 0 .76.24.92.61 .15.37.06.8-.22 1.08l-2.3 2.29 2.29 2.29c.28.28.37.71.21 1.08 -.16.37-.52.61-.93.61h-4c-.27 0-.52-.11-.71-.3l-3-3c-.4-.4-.4-1.03 0-1.42l3-3Zm1.12 1.7l-2 2 2 2h1.17l-1.3-1.3c-.4-.4-.4-1.03 0-1.42l1.29-1.3h-1.18Z"/><path d="M15 6H3V4h12v2Z"/><path d="M4 15c-.56 0-1 .44-1 1 0 .55.44 1 1 1 .55 0 1-.45 1-1 0-.56-.45-1-1-1Zm-3 1c0-1.66 1.34-3 3-3 1.65 0 3 1.34 3 3 0 1.65-1.35 3-3 3 -1.66 0-3-1.35-3-3Z"/><path d="M20 15c-.56 0-1 .44-1 1 0 .55.44 1 1 1 .55 0 1-.45 1-1 0-.56-.45-1-1-1Zm-3 1c0-1.66 1.34-3 3-3 1.65 0 3 1.34 3 3 0 1.65-1.35 3-3 3 -1.66 0-3-1.35-3-3Z"/><path d="M18 17H6v-2h12v2Z"/></g></svg>