<svg viewBox="0 0 24 24" xmlns="http://www.w3.org/2000/svg"><g fill-rule="evenodd"><path d="M9.25 2c0-.42.33-.75.75-.75h4c.41 0 .75.33.75.75v1.69c.4.13.8.29 1.18.48l1.19-1.2c.29-.3.76-.3 1.06 0L21 5.79c.14.14.21.33.21.53 0 .19-.08.38-.22.53l-1.2 1.19c.19.37.35.77.48 1.18h1.69c.41 0 .75.33.75.75v4c0 .41-.34.75-.75.75h-1.7c-.14.4-.3.8-.49 1.18l1.19 1.19c.14.14.21.33.21.53 0 .19-.08.38-.22.53l-2.83 2.82c-.3.29-.77.29-1.07 0l-1.2-1.2c-.38.19-.78.35-1.19.48v1.69c0 .41-.34.75-.75.75h-4c-.42 0-.75-.34-.75-.75v-1.7c-.41-.14-.81-.3-1.19-.49l-1.2 1.19c-.3.29-.77.29-1.07 0l-2.83-2.83c-.3-.3-.3-.77 0-1.07l1.59-1.6c.29-.3.76-.3 1.06 0 .29.29.29.76 0 1.06l-1.07 1.06 1.76 1.76 1.06-1.07c.24-.25.61-.29.91-.12 .57.34 1.2.6 1.86.77 .33.08.56.38.56.72v1.5h2.5v-1.51c0-.35.23-.65.56-.73 .66-.18 1.29-.44 1.86-.78 .29-.18.66-.13.91.11l1.06 1.06 1.76-1.77 -1.07-1.07c-.25-.25-.29-.62-.12-.92 .34-.58.6-1.21.77-1.87 .08-.34.38-.57.72-.57h1.5v-2.5h-1.51c-.35 0-.65-.24-.73-.57 -.18-.67-.44-1.3-.78-1.87 -.18-.3-.13-.67.11-.92l1.06-1.07 -1.77-1.77 -1.07 1.06c-.25.24-.62.28-.92.11 -.58-.35-1.21-.61-1.87-.78 -.34-.09-.57-.39-.57-.73V2.52h-2.5v1.5c0 .34-.24.64-.57.72 -.67.17-1.3.43-1.87.77 -.3.17-.67.12-.92-.12L6.07 4.32 4.3 6.08l1.06 1.06c.24.24.28.61.11.91 -.35.57-.61 1.2-.78 1.86 -.09.33-.39.56-.73.56H2.45v3.25c0 .41-.34.75-.75.75 -.42 0-.75-.34-.75-.75v-4c0-.42.33-.75.75-.75h1.69c.13-.41.29-.81.48-1.19l-1.2-1.2c-.15-.15-.22-.34-.22-.54s.07-.39.21-.54l2.82-2.83c.29-.3.76-.3 1.06 0l1.19 1.19c.37-.2.77-.36 1.18-.49v-1.7Z"/><path d="M16.93 7.38c.2.14.31.36.31.61v7c0 .24-.12.47-.32.61 -.21.14-.46.17-.69.09l-5.5-2c-.3-.11-.5-.39-.5-.71v-3c0-.32.19-.6.49-.71l5.5-2c.22-.09.48-.05.68.09Zm-5.19 3.13v1.94l4 1.45V9.04l-4 1.45Z"/><path d="M9.29 12.27c.39-.12.81.11.92.51l1 3.5c.11.39-.12.81-.52.92 -.4.11-.82-.12-.93-.52l-1-3.5c-.12-.4.11-.82.51-.93Z"/><path d="M7.25 10c0-.42.33-.75.75-.75h3c.41 0 .75.33.75.75v3c0 .41-.34.75-.75.75H8c-.42 0-.75-.34-.75-.75v-3Zm1.5.75v1.5h1.5v-1.5h-1.5Z"/></g></svg>