<svg viewBox="0 0 24 24" xmlns="http://www.w3.org/2000/svg"><g fill-rule="evenodd"><path d="M8.5 9.75c-3.18 0-5.75 2.57-5.75 5.75 0 2.03 1.05 3.82 2.65 4.84 .34.22.45.68.22 1.03 -.23.34-.69.45-1.04.22 -2.02-1.29-3.35-3.55-3.35-6.11 0-4.01 3.24-7.25 7.25-7.25 4 0 7.25 3.24 7.25 7.25 0 4-3.25 7.25-7.25 7.25 -.42 0-.75-.34-.75-.75 0-.42.33-.75.75-.75 3.17 0 5.75-2.58 5.75-5.75 0-3.18-2.58-5.75-5.75-5.75Z"/><path d="M5.75 14.25c0-1.11.89-2 2-2h2.75c.41 0 .75.33.75.75 0 .41-.34.75-.75.75H7.75c-.28 0-.5.22-.5.5 0 .27.22.5.5.5h1.5c1.1 0 2 .89 2 2 0 1.1-.9 2-2 2H6.5c-.42 0-.75-.34-.75-.75 0-.42.33-.75.75-.75h2.75c.27 0 .5-.23.5-.5 0-.28-.23-.5-.5-.5h-1.5c-1.11 0-2-.9-2-2Z"/><path d="M8.5 17.25c.41 0 .75.33.75.75v2c0 .41-.34.75-.75.75 -.42 0-.75-.34-.75-.75v-2c0-.42.33-.75.75-.75Z"/><path d="M8.5 10.25c.41 0 .75.33.75.75v2c0 .41-.34.75-.75.75 -.42 0-.75-.34-.75-.75v-2c0-.42.33-.75.75-.75Z"/><path d="M21.93 1.38c.2.14.31.36.31.61v7c0 .24-.12.47-.32.61 -.21.14-.46.17-.69.09l-5.5-2c-.3-.11-.5-.39-.5-.71v-3c0-.32.19-.6.49-.71l5.5-2c.22-.09.48-.05.68.09Zm-5.19 3.13v1.94l4 1.45V3.04l-4 1.45Z"/><path d="M14.29 6.27c.39-.12.81.11.92.51l1 3.5c.11.39-.12.81-.52.92 -.4.11-.82-.12-.93-.52l-1-3.51c-.12-.4.11-.82.51-.93Z"/><path d="M12.25 4c0-.42.33-.75.75-.75h3c.41 0 .75.33.75.75v3c0 .41-.34.75-.75.75h-3c-.42 0-.75-.34-.75-.75V4Zm1.5.75v1.5h1.5v-1.5h-1.5Z"/></g></svg>