<svg viewBox="0 0 24 24" xmlns="http://www.w3.org/2000/svg"><g fill-rule="evenodd"><path d="M6.75 11c0-1.25 1-2.25 2.25-2.25 1.24 0 2.25 1 2.25 2.25v3c0 .41-.34.75-.75.75 -.42 0-.75-.34-.75-.75v-1.25h-1.5V14c0 .41-.34.75-.75.75 -.42 0-.75-.34-.75-.75v-3Zm1.5.25h1.5V11c0-.42-.34-.75-.75-.75 -.42 0-.75.33-.75.75v.25Z"/><path d="M12.75 9.5c0-.42.33-.75.75-.75h1c1.51 0 2.75 1.23 2.75 2.75v.5c0 1.51-1.24 2.75-2.75 2.75h-1c-.42 0-.75-.34-.75-.75V9.5Zm1.5.75v3h.25c.69 0 1.25-.56 1.25-1.25v-.5c0-.7-.56-1.25-1.25-1.25h-.25Z"/><path d="M12 5.75c-3.46 0-6.25 2.79-6.25 6.25 0 3.45 2.79 6.25 6.25 6.25 2.12 0 3.99-1.06 5.13-2.68 .23-.34.7-.43 1.04-.19 .33.23.42.7.18 1.04 -1.4 2-3.73 3.32-6.37 3.32 -4.29 0-7.75-3.47-7.75-7.75 0-4.29 3.46-7.75 7.75-7.75 4.28 0 7.75 3.46 7.75 7.75 0 .41-.34.75-.75.75 -.42 0-.75-.34-.75-.75 0-3.46-2.8-6.25-6.25-6.25Z"/><path d="M18.25 2c0-.42.33-.75.75-.75h3c.41 0 .75.33.75.75v3c0 .41-.34.75-.75.75 -.42 0-.75-.34-.75-.75V2.75H19c-.42 0-.75-.34-.75-.75Z"/><path d="M18.25 22c0 .41.33.75.75.75h3c.41 0 .75-.34.75-.75v-3c0-.42-.34-.75-.75-.75 -.42 0-.75.33-.75.75v2.25H19c-.42 0-.75.33-.75.75Z"/><path d="M5.75 2c0-.42-.34-.75-.75-.75H2c-.42 0-.75.33-.75.75v3c0 .41.33.75.75.75 .41 0 .75-.34.75-.75V2.75H5c.41 0 .75-.34.75-.75Z"/><path d="M5.75 22c0 .41-.34.75-.75.75H2c-.42 0-.75-.34-.75-.75v-3c0-.42.33-.75.75-.75 .41 0 .75.33.75.75v2.25H5c.41 0 .75.33.75.75Z"/><path d="M22.53 1.46c.29.29.29.76 0 1.06l-5 5c-.3.29-.77.29-1.07 0 -.3-.3-.3-.77 0-1.07l5-5c.29-.3.76-.3 1.06 0Z"/><path d="M22.53 22.53c.29-.3.29-.77 0-1.07l-5-5c-.3-.3-.77-.3-1.07 0 -.3.29-.3.76 0 1.06l5 5c.29.29.76.29 1.06 0Z"/><path d="M1.46 1.46c-.3.29-.3.76 0 1.06l5 5c.29.29.76.29 1.06 0 .29-.3.29-.77 0-1.07l-5-5c-.3-.3-.77-.3-1.07 0Z"/><path d="M1.46 22.53c-.3-.3-.3-.77 0-1.07l5-5c.29-.3.76-.3 1.06 0 .29.29.29.76 0 1.06l-5 5c-.3.29-.77.29-1.07 0Z"/></g></svg>