<svg viewBox="0 0 24 24" xmlns="http://www.w3.org/2000/svg"><g fill-rule="evenodd"><path d="M1.25 4c0-1.52 1.23-2.75 2.75-2.75h16c1.51 0 2.75 1.23 2.75 2.75v16c0 1.51-1.24 2.75-2.75 2.75h-8c-.42 0-.75-.34-.75-.75 0-.42.33-.75.75-.75h8c.69 0 1.25-.56 1.25-1.25V4c0-.7-.56-1.25-1.25-1.25H4c-.7 0-1.25.55-1.25 1.25v16c0 .69.55 1.25 1.25 1.25h4c.41 0 .75.33.75.75 0 .41-.34.75-.75.75H4c-1.52 0-2.75-1.24-2.75-2.75V4Z"/><path d="M1.25 4c0-1.52 1.23-2.75 2.75-2.75h16c1.51 0 2.75 1.23 2.75 2.75v2c0 .41-.34.75-.75.75H2c-.42 0-.75-.34-.75-.75V4ZM4 2.75c-.7 0-1.25.55-1.25 1.25v1.25h18.5V4c0-.7-.56-1.25-1.25-1.25H4Z"/><path d="M16.93 9.38c.2.14.31.36.31.61v7c0 .24-.12.47-.32.61 -.21.14-.46.17-.69.09l-5.5-2c-.3-.11-.5-.39-.5-.71v-3c0-.32.19-.6.49-.71l5.5-2.01c.22-.09.48-.05.68.09Zm-5.19 3.13v1.94l4 1.45v-4.86l-4 1.45Z"/><path d="M9.29 14.27c.39-.12.81.11.92.51l1 3.5c.11.39-.12.81-.52.92 -.4.11-.82-.12-.93-.52l-1-3.5c-.12-.4.11-.82.51-.93Z"/><path d="M7.25 12c0-.42.33-.75.75-.75h3c.41 0 .75.33.75.75v3c0 .41-.34.75-.75.75H8c-.42 0-.75-.34-.75-.75v-3Zm1.5.75v1.5h1.5v-1.5h-1.5Z"/></g></svg>