<svg viewBox="0 0 24 24" xmlns="http://www.w3.org/2000/svg"><g fill-rule="evenodd"><path d="M2 1.25c.41 0 .75.33.75.75v19.25H12c.41 0 .75.33.75.75 0 .41-.34.75-.75.75H2c-.42 0-.75-.34-.75-.75V2c0-.42.33-.75.75-.75ZM15.25 22c0-.42.33-.75.75-.75h6c.41 0 .75.33.75.75 0 .41-.34.75-.75.75h-6c-.42 0-.75-.34-.75-.75Z"/><path d="M5 5.5l-.53.53c-.15-.15-.23-.34-.23-.54 0-.21.08-.4.22-.54l.52.53Zm12 0l.52.53c.14-.15.22-.34.22-.54 0-.21-.09-.4-.23-.54l-.53.53Zm-10.89 0c.36.31.86.73 1.42 1.14 .57.42 1.21.83 1.83 1.13 .63.3 1.18.47 1.62.47 .43 0 .98-.17 1.62-.48 .62-.31 1.25-.72 1.83-1.14 .56-.42 1.06-.83 1.42-1.15 -.37-.32-.87-.74-1.43-1.15 -.58-.43-1.22-.84-1.84-1.14 -.64-.31-1.19-.48-1.63-.48 -.44 0-.99.16-1.63.47 -.63.3-1.26.71-1.84 1.13 -.57.41-1.07.82-1.43 1.14Zm2.6-3.63c.71-.35 1.51-.63 2.27-.63s1.56.27 2.27.62c.72.35 1.44.81 2.064 1.27 .62.45 1.16.9 1.55 1.24 .19.16.34.31.45.41 .05.05.09.08.12.11l.03.03 0 0 0 0s0 0-.53.53c.52.53.52.53.52.53l-.01 0 -.01 0 -.01 0 -.04.03c-.03.02-.08.06-.13.11 -.11.1-.27.24-.46.41 -.39.33-.93.79-1.56 1.24 -.63.45-1.34.91-2.064 1.27 -.72.34-1.52.62-2.28.62 -.77 0-1.57-.28-2.28-.63 -.73-.36-1.45-.82-2.07-1.28 -.63-.46-1.17-.91-1.56-1.25 -.2-.17-.35-.32-.46-.42 -.06-.06-.1-.09-.13-.12l-.04-.04 -.01-.01 -.01-.01 -.01-.01c-.01-.01 0 0 .52-.54 -.53-.54-.53-.54-.53-.54l0-.01 0-.01 .03-.04c.02-.03.07-.07.12-.12 .1-.11.26-.25.45-.42 .38-.34.92-.8 1.55-1.25 .62-.46 1.33-.92 2.06-1.28Z"/><path d="M19.512 9.43c.29-.26.74-.24 1.01.03l2 2c.29.29.29.76 0 1.06 -.3.29-.77.29-1.07 0l-1.51-1.51 -6.48 5.54c-.3.25-.75.23-1.02-.04l-2.58-2.58 -7.5 4.68c-.36.21-.82.11-1.04-.24 -.22-.36-.12-.82.23-1.04l8-5c.29-.19.68-.15.92.1l2.5 2.5 6.47-5.55Z"/><path d="M11 3.75c-.97 0-1.75.78-1.75 1.75 0 .96.78 1.75 1.75 1.75 .96 0 1.75-.79 1.75-1.75 0-.97-.79-1.75-1.75-1.75ZM7.75 5.5c0-1.8 1.45-3.25 3.25-3.25 1.79 0 3.25 1.45 3.25 3.25 0 1.79-1.46 3.25-3.25 3.25 -1.8 0-3.25-1.46-3.25-3.25Z"/></g></svg>