<svg viewBox="0 0 24 24" xmlns="http://www.w3.org/2000/svg"><g fill-rule="evenodd"><path d="M2 1.25c.41 0 .75.33.75.75v19.25H5c.41 0 .75.33.75.75 0 .41-.34.75-.75.75H2c-.42 0-.75-.34-.75-.75V2c0-.42.33-.75.75-.75ZM8.25 22c0-.42.33-.75.75-.75h13c.41 0 .75.33.75.75 0 .41-.34.75-.75.75H9c-.42 0-.75-.34-.75-.75Z"/><path d="M18.25 8c0-.42.33-.75.75-.75h3c.41 0 .75.33.75.75v3c0 .41-.34.75-.75.75 -.42 0-.75-.34-.75-.75V8.75H19c-.42 0-.75-.34-.75-.75Z"/><path d="M22.53 7.46c.29.29.29.76 0 1.06l-9 8.99c-.3.29-.77.29-1.07 0l-2.47-2.47 -7.47 7.46c-.3.29-.77.29-1.07 0 -.3-.3-.3-.77 0-1.07l8-8c.29-.3.76-.3 1.06 0l2.46 2.46 8.46-8.47c.29-.3.76-.3 1.06-.001Z"/><path d="M5.46 1.46c.21-.22.54-.28.82-.16l7 3c.25.11.43.35.45.63 .01.28-.13.54-.37.69l-1.68 1L13 7.94c.29.29.29.76 0 1.06 -.3.29-.77.29-1.07 0L10.6 7.67 9.59 9.34c-.15.24-.42.38-.7.36 -.29-.02-.53-.2-.64-.46l-3-7c-.13-.29-.06-.61.15-.83Zm1.95 1.95l1.68 3.92 .74-1.25c.06-.11.15-.2.25-.26l1.24-.75 -3.93-1.69Z"/></g></svg>