<svg viewBox="0 0 24 24" xmlns="http://www.w3.org/2000/svg"><g fill-rule="evenodd"><path d="M3.25 7c0-.42.33-.75.75-.75h16c.41 0 .75.33.75.75v15c0 .41-.34.75-.75.75H4c-.42 0-.75-.34-.75-.75v-1.5c0-.42.33-.75.75-.75 .41 0 .75.33.75.75v.75h14.5V7.75H4.75v8.75c0 .41-.34.75-.75.75 -.42 0-.75-.34-.75-.75V7Z"/><path d="M22.27 1.3c.38.15.57.59.41.97l-2 5c-.16.38-.6.57-.98.41 -.39-.16-.58-.6-.42-.98l2-5c.15-.39.59-.58.97-.42Z"/><path d="M1.72 1.3c.38-.16.82.03.97.41l2 5c.15.38-.04.82-.42.97 -.39.15-.83-.04-.98-.42l-2-5c-.16-.39.03-.83.41-.98Z"/><path d="M6.75 13c0-1.25 1-2.25 2.25-2.25 1.24 0 2.25 1 2.25 2.25v4.5c0 .41-.34.75-.75.75 -.42 0-.75-.34-.75-.75v-2.25h-1.5v2.25c0 .41-.34.75-.75.75 -.42 0-.75-.34-.75-.75V13Zm1.5.75h1.5V13c0-.42-.34-.75-.75-.75 -.42 0-.75.33-.75.75v.75Z"/><path d="M12.75 11.5c0-.42.33-.75.75-.75h1c1.51 0 2.75 1.23 2.75 2.75v2c0 1.51-1.24 2.75-2.75 2.75h-1c-.42 0-.75-.34-.75-.75v-6Zm1.5.75v4.5h.25c.69 0 1.25-.56 1.25-1.25v-2c0-.7-.56-1.25-1.25-1.25h-.25Z"/></g></svg>