<svg viewBox="0 0 24 24" xmlns="http://www.w3.org/2000/svg"><g fill-rule="evenodd"><path d="M5.76 5.85c.07-.36.37-.61.73-.61h6.5c.41 0 .75.33.75.75 0 .41-.34.75-.75.75H7.1l-.88 4.39c-.08.35-.38.6-.74.6h-2c-.42 0-.75.33-.75.75v2.25h3.25c.41 0 .75.33.75.75 0 .41-.34.75-.75.75h-4c-.42 0-.75-.34-.75-.75v-3c0-1.25 1-2.25 2.25-2.25h1.38l.87-4.4Zm10.48.14c0-.42.33-.75.75-.75h5c.41 0 .75.33.75.75v9.5c0 .41-.34.75-.75.75h-2c-.42 0-.75-.34-.75-.75 0-.42.33-.75.75-.75h1.25v-8h-4.25c-.42 0-.75-.34-.75-.75Zm-8 9.5c0-.42.33-.75.75-.75h8c.41 0 .75.33.75.75 0 .41-.34.75-.75.75h-8c-.42 0-.75-.34-.75-.75Z"/><path d="M2.78 5.76c.1-.31.38-.52.71-.52h4c.41 0 .75.33.75.75 0 .41-.34.75-.75.75H4.03l-.33.98c-.14.39-.56.6-.95.47 -.4-.14-.61-.56-.48-.95l.5-1.5Z"/><path d="M7.5 14.75c-.42 0-.75.33-.75.75 0 .41.33.75.75.75 .41 0 .75-.34.75-.75 0-.42-.34-.75-.75-.75Zm-2.25.75c0-1.25 1-2.25 2.25-2.25 1.24 0 2.25 1 2.25 2.25 0 1.24-1.01 2.25-2.25 2.25 -1.25 0-2.25-1.01-2.25-2.25Z"/><path d="M18.5 14.75c-.42 0-.75.33-.75.75 0 .41.33.75.75.75 .41 0 .75-.34.75-.75 0-.42-.34-.75-.75-.75Zm-2.25.75c0-1.25 1-2.25 2.25-2.25 1.24 0 2.25 1 2.25 2.25 0 1.24-1.01 2.25-2.25 2.25 -1.25 0-2.25-1.01-2.25-2.25Z"/><path d="M9.25 8.5c0-.42.33-.75.75-.75h6c.41 0 .75.33.75.75V13c0 .41-.34.75-.75.75h-6c-.42 0-.75-.34-.75-.75V8.5Zm1.5.75v3h4.5v-3h-4.5Z"/><path d="M16.6 8.05c.24.33.18.8-.15 1.05l-6 4.5c-.34.24-.81.18-1.05-.15 -.25-.34-.19-.81.15-1.05l5.99-4.5c.33-.25.8-.19 1.05.15Z"/></g></svg>