<svg viewBox="0 0 24 24" xmlns="http://www.w3.org/2000/svg"><g fill-rule="evenodd"><path d="M1.25 8c0-.42.33-.75.75-.75h20c.41 0 .75.33.75.75v4c0 .41-.34.75-.75.75H11.5c-.42 0-.75-.34-.75-.75 0-.42.33-.75.75-.75h9.75v-2.5H2.75v2.5H7.5c.41 0 .75.33.75.75 0 .41-.34.75-.75.75H2c-.42 0-.75-.34-.75-.75V8Z"/><path d="M11.61 1.35c.23-.15.53-.15.77 0l10 6c.28.17.42.51.33.84 -.09.32-.39.54-.73.54h-20c-.34 0-.64-.23-.73-.55 -.09-.33.04-.67.33-.85l10-6ZM4.7 7.24h14.58l-7.3-4.38 -7.3 4.37Z"/><path d="M2 11.25c.41 0 .75.33.75.75v10c0 .41-.34.75-.75.75 -.42 0-.75-.34-.75-.75V12c0-.42.33-.75.75-.75Z"/><path d="M22 11.25c.41 0 .75.33.75.75v10c0 .41-.34.75-.75.75 -.42 0-.75-.34-.75-.75V12c0-.42.33-.75.75-.75Z"/><path d="M6 11.25c.41 0 .75.33.75.75v5c0 .41-.34.75-.75.75 -.42 0-.75-.34-.75-.75v-5c0-.42.33-.75.75-.75Z"/><path d="M18 11.25c.41 0 .75.33.75.75v5c0 .41-.34.75-.75.75 -.42 0-.75-.34-.75-.75v-5c0-.42.33-.75.75-.75Z"/></g></svg>