<svg viewBox="0 0 24 24" xmlns="http://www.w3.org/2000/svg"><g fill-rule="evenodd"><path d="M1.25 2c0-.42.33-.75.75-.75h8c.41 0 .75.33.75.75 0 .41-.34.75-.75.75H2.75v10.5h18.5V2.75H14c-.42 0-.75-.34-.75-.75 0-.42.33-.75.75-.75h8c.41 0 .75.33.75.75v12c0 .41-.34.75-.75.75H2c-.42 0-.75-.34-.75-.75V2Z"/><path d="M9.25 14c0-.42.33-.75.75-.75h4c.41 0 .75.33.75.75v5c0 .41-.34.75-.75.75h-4c-.42 0-.75-.34-.75-.75v-5Zm1.5.75v3.5h2.5v-3.5h-2.5Z"/><path d="M7.25 19c0-.42.33-.75.75-.75h8c.41 0 .75.33.75.75v3c0 .41-.34.75-.75.75H8c-.42 0-.75-.34-.75-.75v-3Zm1.5.75v1.5h6.5v-1.5h-6.5Z"/><path d="M6.75 6.5c0-1.25 1-2.25 2.25-2.25 1.24 0 2.25 1 2.25 2.25V11c0 .41-.34.75-.75.75 -.42 0-.75-.34-.75-.75V8.75h-1.5V11c0 .41-.34.75-.75.75 -.42 0-.75-.34-.75-.75V6.5Zm1.5.75h1.5V6.5c0-.42-.34-.75-.75-.75 -.42 0-.75.33-.75.75v.75Z"/><path d="M12.75 5c0-.42.33-.75.75-.75h1c1.51 0 2.75 1.23 2.75 2.75v2c0 1.51-1.24 2.75-2.75 2.75h-1c-.42 0-.75-.34-.75-.75V5Zm1.5.75v4.5h.25c.69 0 1.25-.56 1.25-1.25V7c0-.7-.56-1.25-1.25-1.25h-.25Z"/></g></svg>