<svg viewBox="0 0 24 24" xmlns="http://www.w3.org/2000/svg"><g fill-rule="evenodd"><path d="M1.65 9.33c.24-.13.54-.11.77.05l9.56 6.69 9.56-6.7c.22-.17.52-.18.77-.06 .24.12.4.38.4.66v12c0 .41-.34.75-.75.75h-1.5c-.42 0-.75-.34-.75-.75 0-.42.33-.75.75-.75h.75v-9.81l-8.82 6.17c-.26.18-.61.18-.87 0L2.7 11.4v9.8h13.75c.41 0 .75.33.75.75 0 .41-.34.75-.75.75H1.95c-.42 0-.75-.34-.75-.75v-12c0-.28.15-.54.4-.67Z"/><path d="M5.58 7.13c.25.32.2.79-.12 1.05L3.24 9.95l8.74 6.12 8.74-6.13 -2.22-1.78c-.33-.26-.38-.74-.12-1.06 .25-.33.73-.38 1.05-.12l3 2.4c.18.14.28.37.28.6 -.01.23-.13.45-.32.59l-10 7c-.26.18-.61.18-.87 0l-10-7c-.2-.14-.32-.36-.32-.6 -.01-.24.09-.47.28-.61l3-2.4c.32-.26.79-.21 1.05.11Z"/><path d="M5 12.75c.41 0 .75-.34.75-.75V2.75h12.5V12c0 .41.33.75.75.75 .41 0 .75-.34.75-.75V2c0-.42-.34-.75-.75-.75H5c-.42 0-.75.33-.75.75v10c0 .41.33.75.75.75Z"/><path d="M6.75 6.5c0-1.25 1-2.25 2.25-2.25 1.24 0 2.25 1 2.25 2.25V11c0 .41-.34.75-.75.75 -.42 0-.75-.34-.75-.75V8.75h-1.5V11c0 .41-.34.75-.75.75 -.42 0-.75-.34-.75-.75V6.5Zm1.5.75h1.5V6.5c0-.42-.34-.75-.75-.75 -.42 0-.75.33-.75.75v.75Z"/><path d="M12.75 5c0-.42.33-.75.75-.75h1c1.51 0 2.75 1.23 2.75 2.75v2c0 1.51-1.24 2.75-2.75 2.75h-1c-.42 0-.75-.34-.75-.75V5Zm1.5.75v4.5h.25c.69 0 1.25-.56 1.25-1.25V7c0-.7-.56-1.25-1.25-1.25h-.25Z"/></g></svg>