<svg viewBox="0 0 24 24" xmlns="http://www.w3.org/2000/svg"><g fill-rule="evenodd"><path d="M19.41 3.37c.21.13.33.37.33.62v14c0 .23-.12.45-.3.59 -.19.14-.44.18-.66.12l-14-4c-.33-.1-.55-.39-.55-.73v-4c0-.31.17-.58.45-.69l1-.43c.38-.17.82.01.98.39 .16.38-.02.82-.4.98l-.55.23v2.93l12.5 3.57V5.08l-7.96 3.4c-.39.16-.83-.02-.99-.4 -.17-.39.01-.83.39-.99l9-3.86c.23-.1.49-.08.7.06Z"/><path d="M1.25 10.5c0-1.25 1-2.25 2.25-2.25 1.24 0 2.25 1 2.25 2.25v3c0 1.24-1.01 2.25-2.25 2.25 -1.25 0-2.25-1.01-2.25-2.25v-3Zm2.25-.75c-.42 0-.75.33-.75.75v3c0 .41.33.75.75.75 .41 0 .75-.34.75-.75v-3c0-.42-.34-.75-.75-.75Z"/><path d="M18.25 3.5c0-1.25 1-2.25 2.25-2.25 1.24 0 2.25 1 2.25 2.25v15c0 1.24-1.01 2.25-2.25 2.25 -1.25 0-2.25-1.01-2.25-2.25v-15Zm2.25-.75c-.42 0-.75.33-.75.75v15c0 .41.33.75.75.75 .41 0 .75-.34.75-.75v-15c0-.42-.34-.75-.75-.75Z"/><path d="M8.5 14.25c.41 0 .75.33.75.75v3c0 .69.55 1.25 1.25 1.25H12c.69 0 1.25-.56 1.25-1.25v-1.5c0-.42.33-.75.75-.75 .41 0 .75.33.75.75V18c0 1.51-1.24 2.75-2.75 2.75h-1.5c-1.52 0-2.75-1.24-2.75-2.75v-3c0-.42.33-.75.75-.75Z"/></g></svg>