<svg viewBox="0 0 24 24" xmlns="http://www.w3.org/2000/svg"><g fill-rule="evenodd"><path d="M3.12 4.39c-.32.27-.38.48-.38.6s.06.32.37.6c.31.27.8.55 1.48.81 1.34.5 3.25.83 5.39.83 2.14 0 4.04-.33 5.39-.84 .67-.26 1.16-.54 1.48-.82 .31-.28.37-.49.37-.61 0-.13-.07-.33-.38-.61 -.32-.28-.81-.56-1.49-.82 -1.35-.51-3.26-.84-5.4-.84 -2.15 0-4.05.32-5.4.83 -.68.25-1.17.53-1.49.81Zm.95-2.22c1.55-.59 3.64-.93 5.92-.93 2.27 0 4.36.34 5.92.92 .77.28 1.45.65 1.94 1.09 .49.44.88 1.02.88 1.72s-.39 1.28-.89 1.72c-.5.44-1.18.8-1.95 1.09 -1.56.58-3.65.92-5.93.92s-4.37-.35-5.93-.93c-.78-.29-1.46-.66-1.95-1.1 -.5-.45-.89-1.03-.89-1.73 0-.71.38-1.29.88-1.73 .49-.45 1.17-.81 1.94-1.1Z"/><path d="M2 4.25c.41 0 .75.33.75.75v3c0 .41-.34.75-.75.75 -.42 0-.75-.34-.75-.75V5c0-.42.33-.75.75-.75Zm16 0c.41 0 .75.33.75.75v14c0 .7-.39 1.28-.89 1.72 -.5.44-1.18.8-1.95 1.09 -1.56.58-3.65.92-5.93.92s-4.37-.35-5.93-.93c-.78-.29-1.46-.66-1.95-1.1 -.5-.45-.89-1.03-.89-1.73v-7c0-.42.33-.75.75-.75 .41 0 .75.33.75.75v7c0 .12.06.32.37.6 .31.27.8.55 1.48.81 1.34.5 3.25.83 5.39.83 2.14 0 4.04-.33 5.39-.84 .67-.26 1.16-.54 1.48-.82 .31-.28.37-.49.37-.61v-14c0-.42.33-.75.75-.75Z"/><path d="M17.25 7c0-.42.33-.75.75-.75h2c1.51 0 2.75 1.23 2.75 2.75v7c0 1.51-1.24 2.75-2.75 2.75h-2c-.42 0-.75-.34-.75-.75V7Zm1.5.75v9.5H20c.69 0 1.25-.56 1.25-1.25V9c0-.7-.56-1.25-1.25-1.25h-1.25Z"/><path d="M14.43 9.38c.2.14.31.36.31.61v7c0 .24-.12.47-.32.61 -.21.14-.46.17-.69.09l-5.51-2c-.3-.11-.5-.39-.5-.71v-3c0-.32.19-.6.49-.71l5.5-2.01c.22-.09.48-.05.68.09Zm-5.19 3.13v1.94l4 1.45v-4.86l-4 1.45Z"/><path d="M6.79 14.27c.39-.12.81.11.92.51l1 3.5c.11.39-.12.81-.52.92 -.4.11-.82-.12-.93-.52l-1-3.5c-.12-.4.11-.82.51-.93Z"/><path d="M4.75 12c0-.42.33-.75.75-.75h3c.41 0 .75.33.75.75v3c0 .41-.34.75-.75.75h-3c-.42 0-.75-.34-.75-.75v-3Zm1.5.75v1.5h1.5v-1.5h-1.5Z"/></g></svg>