<svg viewBox="0 0 24 24" xmlns="http://www.w3.org/2000/svg"><g fill-rule="evenodd"><path d="M1.25 2c0-.42.33-.75.75-.75h17c.41 0 .75.33.75.75v20c0 .41-.34.75-.75.75H5c-2.08 0-3.75-1.68-3.75-3.75v-6c0-.42.33-.75.75-.75 .41 0 .75.33.75.75v6c0 1.24 1 2.25 2.25 2.25h13.25V2.75H2.75V9c0 .41-.34.75-.75.75 -.42 0-.75-.34-.75-.75V2Z"/><path d="M18.25 6c0-.42.33-.75.75-.75h3c.41 0 .75.33.75.75v13c0 2.07-1.68 3.75-3.75 3.75V22h-.75V6Zm1.5 15.122c.87-.31 1.5-1.15 1.5-2.122V6.75h-1.5v14.372Z"/><path d="M5.25 6.5c0-1.25 1-2.25 2.25-2.25 1.24 0 2.25 1 2.25 2.25v3c0 .41-.34.75-.75.75 -.42 0-.75-.34-.75-.75V8.25h-1.5V9.5c0 .41-.34.75-.75.75 -.42 0-.75-.34-.75-.75v-3Zm1.5.25h1.5V6.5c0-.42-.34-.75-.75-.75 -.42 0-.75.33-.75.75v.25Z"/><path d="M11.25 5c0-.42.33-.75.75-.75h1c1.51 0 2.75 1.23 2.75 2.75v.5c0 1.51-1.24 2.75-2.75 2.75h-1c-.42 0-.75-.34-.75-.75V5Zm1.5.75v3H13c.69 0 1.25-.56 1.25-1.25V7c0-.7-.56-1.25-1.25-1.25h-.25Z"/><path d="M4.25 13c0-.42.33-.75.75-.75h5c.41 0 .75.33.75.75v5c0 .41-.34.75-.75.75H5c-.42 0-.75-.34-.75-.75v-5Zm1.5.75v3.5h3.5v-3.5h-3.5Z"/><path d="M12.25 13c0-.42.33-.75.75-.75h3c.41 0 .75.33.75.75 0 .41-.34.75-.75.75h-3c-.42 0-.75-.34-.75-.75Z"/><path d="M12.25 16c0-.42.33-.75.75-.75h3c.41 0 .75.33.75.75 0 .41-.34.75-.75.75h-3c-.42 0-.75-.34-.75-.75Z"/></g></svg>