<svg viewBox="0 0 24 24" xmlns="http://www.w3.org/2000/svg"><g fill-rule="evenodd"><path d="M1.25 2c0-.42.33-.75.75-.75h20c.41 0 .75.33.75.75v20c0 .41-.34.75-.75.75h-6c-.42 0-.75-.34-.75-.75 0-.42.33-.75.75-.75h5.25V2.75H2.75v18.5H12c.41 0 .75.33.75.75 0 .41-.34.75-.75.75H2c-.42 0-.75-.34-.75-.75V2Z"/><path d="M1.25 2c0-.42.33-.75.75-.75h20c.41 0 .75.33.75.75v5c0 .41-.34.75-.75.75H2c-.42 0-.75-.34-.75-.75V2Zm1.5.75v3.5h18.5v-3.5H2.75Z"/><path d="M3.75 4.5c0-.42.33-.75.75-.75h2c.41 0 .75.33.75.75 0 .41-.34.75-.75.75h-2c-.42 0-.75-.34-.75-.75Z"/><path d="M7.75 4.5c0-.42.33-.75.75-.75h2c.41 0 .75.33.75.75 0 .41-.34.75-.75.75h-2c-.42 0-.75-.34-.75-.75Z"/><path d="M11.75 4.5c0-.42.33-.75.75-.75h2c.41 0 .75.33.75.75 0 .41-.34.75-.75.75h-2c-.42 0-.75-.34-.75-.75Z"/><path d="M5.25 13.5c0-.42.33-.75.75-.75h3c.41 0 .75.33.75.75v6c0 .41-.34.75-.75.75H6c-.42 0-.75-.34-.75-.75v-6Zm1.5.75v4.5h1.5v-4.5h-1.5Z"/><path d="M13.36 10.75c-.25 0-.48.14-.59.36l-1.37 2.72c-.13.25-.39.41-.68.41h-1v4.5h5.97c.36 0 .67-.27.73-.63l.4-2.42c.12-.77-.47-1.46-1.24-1.46h-1.64c-.26 0-.49-.13-.63-.34 -.14-.22-.17-.48-.07-.71l.66-1.55c.18-.44-.14-.92-.61-.92Zm-1.93-.31c.36-.74 1.11-1.2 1.92-1.2 1.54 0 2.59 1.58 1.98 3l-.22.49h.5c1.69 0 2.99 1.52 2.71 3.2l-.41 2.41c-.19 1.08-1.12 1.88-2.22 1.88H8.96c-.42 0-.75-.34-.75-.75v-6c0-.42.33-.75.75-.75h1.28l1.15-2.31Z"/></g></svg>