<svg viewBox="0 0 24 24" xmlns="http://www.w3.org/2000/svg"><g fill-rule="evenodd"><path d="M12 2.75c-5.11 0-9.25 4.14-9.25 9.25 0 5.1 4.14 9.25 9.25 9.25 2.08 0 4-.69 5.55-1.85 .33-.25.8-.19 1.05.14 .24.33.18.8-.15 1.05 -1.8 1.35-4.04 2.15-6.46 2.15 -5.94 0-10.75-4.82-10.75-10.75 0-5.94 4.81-10.75 10.75-10.75 5.93 0 10.75 4.81 10.75 10.75 0 1.52-.32 2.98-.9 4.3 -.17.37-.61.55-.99.38 -.38-.17-.56-.61-.39-.99 .49-1.14.76-2.39.76-3.7 0-5.11-4.15-9.25-9.25-9.25Z"/><path d="M7.66 5.35c-1.17 1.66-1.92 4.01-1.92 6.64 0 2.62.74 4.97 1.91 6.64 1.16 1.67 2.71 2.6 4.33 2.6s3.16-.94 4.33-2.61c1.16-1.67 1.91-4.02 1.91-6.641 0-2.63-.75-4.98-1.92-6.65 -1.17-1.68-2.72-2.61-4.34-2.61 -1.63 0-3.17.93-4.34 2.6Zm-1.23-.87c1.36-1.95 3.31-3.25 5.56-3.25 2.24 0 4.2 1.3 5.56 3.24 1.36 1.95 2.18 4.6 2.18 7.5 0 2.89-.83 5.55-2.19 7.5 -1.37 1.94-3.32 3.24-5.57 3.24 -2.25 0-4.21-1.31-5.57-3.25 -1.37-1.96-2.19-4.61-2.19-7.51 0-2.9.82-5.56 2.18-7.51Z"/><path d="M6.75 10.5c0-1.25 1-2.25 2.25-2.25 1.24 0 2.25 1 2.25 2.25V15c0 .41-.34.75-.75.75 -.42 0-.75-.34-.75-.75v-2.25h-1.5V15c0 .41-.34.75-.75.75 -.42 0-.75-.34-.75-.75v-4.5Zm1.5.75h1.5v-.75c0-.42-.34-.75-.75-.75 -.42 0-.75.33-.75.75v.75Z"/><path d="M12.75 9c0-.42.33-.75.75-.75h1c1.51 0 2.75 1.23 2.75 2.75v2c0 1.51-1.24 2.75-2.75 2.75h-1c-.42 0-.75-.34-.75-.75V9Zm1.5.75v4.5h.25c.69 0 1.25-.56 1.25-1.25v-2c0-.7-.56-1.25-1.25-1.25h-.25Z"/><path d="M12 1.25c.41 0 .75.33.75.75v5c0 .41-.34.75-.75.75 -.42 0-.75-.34-.75-.75V2c0-.42.33-.75.75-.75Zm0 15c.41 0 .75.33.75.75v5c0 .41-.34.75-.75.75 -.42 0-.75-.34-.75-.75v-5c0-.42.33-.75.75-.75Z"/><path d="M18.25 12c0-.42.33-.75.75-.75h3c.41 0 .75.33.75.75 0 .41-.34.75-.75.75h-3c-.42 0-.75-.34-.75-.75Z"/><path d="M1.25 12c0-.42.33-.75.75-.75h3c.41 0 .75.33.75.75 0 .41-.34.75-.75.75H2c-.42 0-.75-.34-.75-.75Z"/></g></svg>