<svg viewBox="0 0 24 24" xmlns="http://www.w3.org/2000/svg"><g fill-rule="evenodd"><path d="M11.72 1.3c.17-.08.37-.08.55 0l10 4c.28.11.47.38.47.69 0 .3-.19.58-.48.69l-10 4c-.18.07-.38.07-.56 0l-10-4.01c-.29-.12-.48-.39-.48-.7 0-.31.18-.59.47-.7l10-4ZM4.01 5.99l7.98 3.19 7.98-3.2 -7.99-3.2 -7.99 3.19Z"/><path d="M2 5.25c.41 0 .75.33.75.75v11.49l9.25 3.7 .72-.29c.38-.16.82.03.97.41 .15.38-.04.82-.42.97l-1 .4c-.18.07-.38.07-.56 0l-10-4c-.29-.12-.48-.39-.48-.7v-12c0-.42.33-.75.75-.75Zm20 0c.41 0 .75.33.75.75v12c0 .3-.19.58-.48.69l-4.98 1.98c-.39.15-.83-.04-.98-.42 -.16-.39.03-.83.41-.98l4.5-1.81V5.96c0-.42.33-.75.75-.75Z"/><path d="M5 9.25c.41 0 .75.33.75.75v6c0 .41-.34.75-.75.75 -.42 0-.75-.34-.75-.75v-6c0-.42.33-.75.75-.75Z"/><path d="M4.56 9.39c.19-.15.44-.18.67-.11l2.02.67c.88.29 1.48 1.12 1.48 2.06 0 1.48-1.46 2.53-2.87 2.06l-1.13-.38c-.31-.11-.52-.39-.52-.72v-3c0-.25.11-.47.31-.61Zm1.18 1.64v1.41l.61.2c.43.14.88-.18.88-.64 0-.29-.19-.55-.47-.64l-1.04-.35Z"/></g></svg>