<svg viewBox="0 0 24 24" xmlns="http://www.w3.org/2000/svg"><g fill-rule="evenodd"><path d="M4.75 12.001c0 2.31 1.13 4.36 2.91 5.66 .3.22.62.42.97.59 .36.18.51.64.32 1s-.65.51-1.01.32c-.42-.22-.81-.46-1.17-.73 -2.14-1.56-3.53-4.06-3.53-6.88 0-4.75 3.93-8.57 8.75-8.57 .41 0 .75.33.75.75 0 .41-.34.75-.75.75 -4.03 0-7.26 3.18-7.26 7.06Zm6.5 7.81c0-.42.33-.75.75-.75 4.02 0 7.256-3.19 7.256-7.07 0-.42.33-.75.75-.75 .41 0 .75.33.75.75 0 4.74-3.94 8.56-8.756 8.56 -.42 0-.75-.34-.75-.75Zm3.81-15.09c.19-.37.64-.52 1.01-.33 1.42.73 2.61 1.84 3.43 3.19 .21.35.1.81-.25 1.03 -.36.21-.82.1-1.04-.25 -.69-1.12-1.67-2.04-2.85-2.65 -.37-.2-.52-.65-.33-1.02Z"/><path d="M8.57 1.63c.2-.37.66-.49 1.02-.29l3.26 1.84c.17.09.3.26.35.45 .05.19.02.4-.08.57l-1.89 3.19c-.22.35-.68.47-1.03.26 -.36-.22-.48-.68-.27-1.03l1.49-2.54 -2.61-1.47c-.37-.21-.49-.67-.29-1.03Z"/><path d="M10.79 20.35c-.06-.2-.03-.41.07-.58l1.88-3.2c.21-.36.67-.48 1.02-.27 .35.21.47.67.26 1.02l-1.5 2.53 2.6 1.46c.36.2.48.66.28 1.02 -.21.36-.67.48-1.03.28l-3.27-1.85c-.18-.1-.31-.27-.36-.46Z"/><path d="M12 9.75c-.42 0-.75.33-.75.75 0 .41.33.75.75.75 .41 0 .75-.34.75-.75 0-.42-.34-.75-.75-.75Zm-2.25.75c0-1.25 1-2.25 2.25-2.25 1.24 0 2.25 1 2.25 2.25 0 1.24-1.01 2.25-2.25 2.25 -1.25 0-2.25-1.01-2.25-2.25Z"/><path d="M9.87 14.25h4.24c-.31-.88-1.15-1.5-2.122-1.5 -.98 0-1.82.62-2.13 1.5ZM8.24 15c0-2.08 1.67-3.75 3.75-3.75 2.07 0 3.75 1.67 3.75 3.75 0 .41-.34.75-.75.75h-6c-.42 0-.75-.34-.75-.75Z"/></g></svg>