<svg viewBox="0 0 24 24" xmlns="http://www.w3.org/2000/svg"><g fill-rule="evenodd"><path d="M9.25 6.5c0-1.25 1-2.25 2.25-2.25 1.24 0 2.25 1 2.25 2.25v3c0 .41-.34.75-.75.75 -.42 0-.75-.34-.75-.75V8.25h-1.5V9.5c0 .41-.34.75-.75.75 -.42 0-.75-.34-.75-.75v-3Zm1.5.25h1.5V6.5c0-.42-.34-.75-.75-.75 -.42 0-.75.33-.75.75v.25Z"/><path d="M15.25 5c0-.42.33-.75.75-.75h1c1.51 0 2.75 1.23 2.75 2.75v.5c0 1.51-1.24 2.75-2.75 2.75h-1c-.42 0-.75-.34-.75-.75V5Zm1.5.75v3H17c.69 0 1.25-.56 1.25-1.25V7c0-.7-.56-1.25-1.25-1.25h-.25Z"/><path d="M6.75 2c0-.42.33-.75.75-.75h14c.41 0 .75.33.75.75v10c0 .41-.34.75-.75.75h-14c-.42 0-.75-.34-.75-.75V2Zm1.5.75v8.5h12.5v-8.5H8.25Z"/><path d="M1.25 16c0-.42.33-.75.75-.75h20c.41 0 .75.33.75.75v5c0 .41-.34.75-.75.75h-2c-.42 0-.75-.34-.75-.75 0-.42.33-.75.75-.75h1.25v-3.5H2.75v3.5H16c.41 0 .75.33.75.75 0 .41-.34.75-.75.75H2c-.42 0-.75-.34-.75-.75v-5Z"/><path d="M21.5 11.25c.41 0 .75.33.75.75v4c0 .41-.34.75-.75.75 -.42 0-.75-.34-.75-.75v-4c0-.42.33-.75.75-.75Z"/><path d="M7.5 11.25c.41 0 .75.33.75.75v4c0 .41-.34.75-.75.75 -.42 0-.75-.34-.75-.75v-4c0-.42.33-.75.75-.75Z"/><path d="M14.5 11.25c.41 0 .75.33.75.75v4c0 .41-.34.75-.75.75 -.42 0-.75-.34-.75-.75v-4c0-.42.33-.75.75-.75Z"/><path d="M7.75 1.29c.39.13.59.56.45.95l-5 14c-.14.39-.57.59-.96.45 -.4-.14-.6-.57-.46-.96l5-14c.13-.4.56-.6.95-.46Z"/></g></svg>