<svg viewBox="0 0 24 24" xmlns="http://www.w3.org/2000/svg"><g fill-rule="evenodd"><path d="M9 2.75c-.7 0-1.25.55-1.25 1.25v3c0 .69.55 1.25 1.25 1.25h6c.69 0 1.25-.56 1.25-1.25V4c0-.7-.56-1.25-1.25-1.25h-1c-.42 0-.75-.34-.75-.75 0-.42.33-.75.75-.75h1c1.51 0 2.75 1.23 2.75 2.75v3c0 1.51-1.24 2.75-2.75 2.75H9C7.48 9.75 6.25 8.51 6.25 7V4c0-1.52 1.23-2.75 2.75-2.75h1c.41 0 .75.33.75.75 0 .41-.34.75-.75.75H9Z"/><path d="M6.25 19c0-.42.33-.75.75-.75h10c.41 0 .75.33.75.75v3c0 .41-.34.75-.75.75H7c-.42 0-.75-.34-.75-.75v-3Zm1.5.75v1.5h8.5v-1.5h-8.5Z"/><path d="M9.58 8.37c.34-.23.81-.14 1.04.2l2 3c.08.12.12.26.12.41v7c0 .41-.34.75-.75.75 -.42 0-.75-.34-.75-.75V12.2L9.36 9.38c-.23-.35-.14-.82.2-1.05Z"/></g></svg>