<svg viewBox="0 0 24 24" xmlns="http://www.w3.org/2000/svg"><g fill-rule="evenodd"><path d="M1.25 5c0-.42.33-.75.75-.75h20c.41 0 .75.33.75.75v3c0 .41-.34.75-.75.75 -.42 0-.75-.34-.75-.75V5.75H2.75v12.5h18.5V12c0-.42.33-.75.75-.75 .41 0 .75.33.75.75v7c0 .41-.34.75-.75.75H2c-.42 0-.75-.34-.75-.75V5Z"/><path d="M7.4 1.55c.24-.34.71-.4 1.05-.15l3.54 2.66 3.55-2.67c.33-.25.8-.19 1.05.15 .24.33.18.8-.15 1.05l-4 3c-.27.2-.64.2-.9 0l-4-3c-.34-.25-.4-.72-.15-1.05Z"/><path d="M8.5 19.25c.41 0 .75.33.75.75 0 .16.12.46.64.76 .5.28 1.24.48 2.1.48 .86 0 1.6-.21 2.1-.49 .52-.3.64-.6.64-.77 0-.42.33-.75.75-.75 .41 0 .75.33.75.75 0 .93-.66 1.63-1.41 2.06 -.766.43-1.78.68-2.85.68 -1.08 0-2.09-.25-2.85-.69 -.75-.43-1.41-1.13-1.41-2.07 0-.42.33-.75.75-.75Z"/><path d="M16.43 7.38c.2.14.31.36.31.61v7c0 .24-.12.47-.32.61 -.21.14-.46.17-.69.09l-5.5-2c-.3-.11-.5-.39-.5-.71v-3c0-.32.19-.6.49-.71l5.5-2c.22-.09.48-.05.68.09Zm-5.19 3.13v1.94l4 1.45V9.04l-4 1.45Z"/><path d="M8.79 12.27c.39-.12.81.11.92.51l1 3.5c.11.39-.12.81-.52.92 -.4.11-.82-.12-.93-.52l-1-3.5c-.12-.4.11-.82.51-.93Z"/><path d="M6.75 10c0-.42.33-.75.75-.75h3c.41 0 .75.33.75.75v3c0 .41-.34.75-.75.75h-3c-.42 0-.75-.34-.75-.75v-3Zm1.5.75v1.5h1.5v-1.5h-1.5Z"/></g></svg>