<svg viewBox="0 0 24 24" xmlns="http://www.w3.org/2000/svg"><g fill="#3747D6" fill-rule="evenodd"><path d="M12.63 5.73c.22.18.36.47.36.76v15.5c0 .55-.45 1-1 1h-8c-.56 0-1-.45-1-1v-14c0-.49.34-.9.81-.99l7.99-1.5c.29-.06.59.02.82.21ZM4.99 8.82v12.17h6V7.69l-6 1.125Z"/><path d="M11.36 1.23c-.23.18-.37.47-.37.76v20c0 .55.44 1 1 1h8c.55 0 1-.45 1-1V3.49c0-.49-.35-.9-.82-.99l-8-1.5c-.3-.06-.6.02-.83.21Zm7.63 3.09v16.67h-6V3.19l6 1.125Z"/><g fill="#9545ED"><path d="M5.5 16c0-.56.44-1 1-1h3c.55 0 1 .44 1 1v6c0 .55-.45 1-1 1h-3c-.56 0-1-.45-1-1v-6Zm2 1v4h1v-4h-1Z"/><path d="M9.5 12.5h-3v-2h3v2Z"/><path d="M17.5 8h-3V6h3v2Z"/><path d="M17.5 12.5h-3v-2h3v2Z"/><path d="M2 21h20v2H2v-2Z"/></g></g></svg>