<svg viewBox="0 0 24 24" xmlns="http://www.w3.org/2000/svg"><g fill="#9545ED" fill-rule="evenodd"><path d="M9 16c0-.56.44-1 1-1h4c.55 0 1 .44 1 1v6c0 .55-.45 1-1 1h-4c-.56 0-1-.45-1-1v-6Zm2 1v4h2v-4h-2Z"/><path fill="#3747D6" d="M6 9.5c0-.56.44-1 1-1h10c.55 0 1 .44 1 1V22c0 .55-.45 1-1 1H7c-.56 0-1-.45-1-1V9.5Zm2 1V21h8V10.5H8Z"/><path d="M5.02 7.15l-.53.84 -.53-.85c.32-.21.73-.21 1.05 0Zm-.53 2.07c.17.13.36.28.55.46 .27.25.51.51.68.77 .17.266.21.44.21.53 0 .2.01.4.02.55 0 .02 0 .05 0 .08 0 .16.01.27 0 .36h-3c-.01-.09-.01-.2 0-.37 0-.03 0-.06 0-.09 0-.16.02-.36.02-.56 0-.1.04-.28.21-.54 .16-.26.41-.53.68-.78 .19-.18.38-.34.55-.47Zm-.53-2.08c0-.01 0 0 .52.84C5 7.13 5 7.13 5 7.13l0 0 0 0 0 0 .02.01c.02.01.05.03.09.05 .07.05.18.12.31.21 .25.18.59.44.93.76 .34.31.71.7 1 1.14 .28.43.54.99.54 1.64 0 .13 0 .26.01.41 0 .03 0 .06 0 .1 .01.18.02.42 0 .67 -.05.55-.26 1.15-.9 1.61 -.18.12-.38.18-.59.18H2.37c-.21 0-.42-.07-.59-.19 -.64-.46-.85-1.07-.9-1.62 -.02-.25-.01-.49 0-.68 0-.04 0-.07 0-.11 0-.16.01-.29.01-.42 0-.65.26-1.21.54-1.65 .29-.45.66-.84 1-1.15 .34-.32.68-.58.93-.77 .12-.1.23-.17.31-.22 .03-.03.06-.05.09-.06l.02-.02 0-.01 0-.01 0-.01Z"/><path d="M20.02 7.15l-.53.84 -.53-.85c.32-.21.73-.21 1.05 0Zm-.53 2.07c.17.13.36.28.55.46 .27.25.51.51.68.77 .17.266.21.44.21.53 0 .2.01.4.02.55 0 .02 0 .05 0 .08 0 .16.01.27 0 .36h-3c-.01-.09-.01-.2 0-.37 0-.03 0-.06 0-.09 0-.16.02-.36.02-.56 0-.1.04-.28.21-.54 .16-.26.41-.53.68-.78 .19-.18.38-.34.55-.47Zm-.53-2.08c0-.01 0 0 .52.84 .52-.85.52-.85.52-.85l0 0 0 0 0 0 .02.01c.02.01.05.03.09.05 .07.05.18.12.31.21 .25.18.59.44.93.76 .34.31.71.7 1 1.14 .28.43.54.99.54 1.64 0 .13 0 .26.01.41 0 .03 0 .06 0 .1 .01.18.02.42 0 .67 -.05.55-.26 1.15-.9 1.61 -.18.12-.38.18-.59.18h-4.04c-.21 0-.42-.07-.59-.19 -.64-.46-.85-1.07-.9-1.62 -.02-.25-.01-.49 0-.68 0-.04 0-.07 0-.11 0-.16.01-.29.01-.42 0-.65.26-1.21.54-1.65 .29-.45.66-.84 1-1.15 .34-.32.68-.58.93-.77 .12-.1.23-.17.31-.22 .03-.03.06-.05.09-.06l.02-.02 0-.01 0-.01 0-.01Z"/><g fill="#3747D6"><path d="M1 13c0-.56.44-1 1-1h5c.55 0 1 .44 1 1v9c0 .55-.45 1-1 1H2c-.56 0-1-.45-1-1v-9Zm2 1v7h3v-7H3Z"/><path d="M16 13c0-.56.44-1 1-1h5c.55 0 1 .44 1 1v9c0 .55-.45 1-1 1h-5c-.56 0-1-.45-1-1v-9Zm2 1v7h3v-7h-3Z"/></g><path d="M12.45 1.1l-.46.89 -.46-.9c.28-.15.62-.15.9 0Zm-.46 2.03c-.07.03-.13.07-.2.11 -.41.23-.93.57-1.46.96 -.53.39-1.02.83-1.37 1.27 -.37.45-.49.78-.49 1 0 .71.36 1.43.99 2h5.01c.63-.57.99-1.29.99-2 0-.23-.13-.56-.49-1.01 -.35-.44-.85-.88-1.37-1.28 -.53-.4-1.06-.73-1.46-.97 -.07-.05-.14-.08-.2-.12Zm-.46-2.04c0-.01 0-.001.45.89 .45-.9.45-.9.45-.9l0 0 0 0 .01 0 .04.02c.03.01.08.04.15.08 .13.07.31.17.54.3 .44.26 1.03.63 1.64 1.09 .59.44 1.23.99 1.72 1.61 .48.59.92 1.37.92 2.26 0 1.58-.89 2.92-2.03 3.79 -.18.13-.39.2-.61.2H9.07c-.22 0-.44-.08-.61-.21C7.31 9.34 6.43 8 6.43 6.42c0-.89.44-1.67.92-2.27 .49-.62 1.12-1.17 1.72-1.62 .6-.46 1.19-.84 1.64-1.1 .22-.14.4-.24.54-.31 .06-.04.11-.07.15-.09l.04-.03 .01-.01 0-.01 0-.01Z"/></g></svg>