<svg viewBox="0 0 24 24" xmlns="http://www.w3.org/2000/svg"><g fill="#9545ED" fill-rule="evenodd"><path d="M17.5 7.5H11v-2h6.5c1.65 0 3 1.34 3 3v4h-2v-4c0-.56-.45-1-1-1Z"/><path d="M7.63 1.5c.17-.32.5-.51.86-.51h.5c.35 0 .69.19.86.5l1.99 3.5 -1.74.99 -1.39-2.42 -1.39 2.41 -1.74-1 2-3.5Z"/><path d="M10 16.5H6.5v-2H10v2Z"/><path fill="#3747D6" d="M3 12.5c0-.56.44-1 1-1h16c.55 0 1 .44 1 1v9c0 .55-.45 1-1 1H4c-.56 0-1-.45-1-1v-9Zm2 1v7h14v-7H5Z"/><path d="M11 17.5c0-1.66 1.34-3 3-3h1c1.65 0 3 1.34 3 3v4c0 .55-.45 1-1 1h-5c-.56 0-1-.45-1-1v-4Zm3-1c-.56 0-1 .44-1 1v3h3v-3c0-.56-.45-1-1-1h-1Z"/><g fill="#3747D6"><path d="M4.5 9c0-.56.44-1 1-1H12c.55 0 1 .44 1 1v3.5h-2V10H6.5v2.5h-2V9Z"/><path d="M5.5 5.5c0-.56.44-1 1-1H11c.55 0 1 .44 1 1V9h-2V6.5H7.5V9h-2V5.5Z"/></g><path d="M21.5 13.5h-19v-2h19v2Z"/><path d="M22 22.5H2v-2h20v2Z"/></g></svg>