<svg viewBox="0 0 24 24" xmlns="http://www.w3.org/2000/svg"><g fill="#9545ED" fill-rule="evenodd"><path d="M13 17c0-.56.44-1 1-1h6c.55 0 1 .44 1 1v3c0 .55-.45 1-1 1h-6c-.56 0-1-.45-1-1v-3Zm2 1v1h4v-1h-4Z"/><path d="M3 17c0-.56.44-1 1-1h6c.55 0 1 .44 1 1v3c0 .55-.45 1-1 1H4c-.56 0-1-.45-1-1v-3Zm2 1v1h4v-1H5Z"/><path d="M9 14c0-.56.44-1 1-1h4c.55 0 1 .44 1 1v6c0 .55-.45 1-1 1h-4c-.56 0-1-.45-1-1v-6Zm2 1v4h2v-4h-2Z"/><g fill="#3747D6"><path d="M3 11c0-.56.44-1 1-1h16c.55 0 1 .44 1 1v9c0 .55-.45 1-1 1H4c-.56 0-1-.45-1-1v-9Zm2 1v7h14v-7H5Z"/><path d="M4.5 4c0-.56.44-1 1-1H8c.55 0 1 .44 1 1v3c0 .55-.45 1-1 1H5.5c-.56 0-1-.45-1-1V4Zm2 1v1H7V5h-.5Z"/></g><path d="M3.1 6.55c.16-.34.51-.56.89-.56h16c.37 0 .72.21.89.55l2 4c.15.31.13.67-.05.97 -.19.29-.51.47-.86.47h-20c-.35 0-.67-.18-.86-.48 -.19-.3-.2-.67-.05-.98l2-4.01Zm1.51 1.44l-1 2h16.764l-1-2H4.61Z"/><path d="M22 21H2v-2h20v2Z"/></g></svg>