<svg viewBox="0 0 24 24" xmlns="http://www.w3.org/2000/svg"><g fill="#9545ED" fill-rule="evenodd"><path d="M16 8.5v6h-2v-6h2Z"/><path d="M13 9v5.5h-2V9h2Z"/><path d="M10 8.5v6H8v-6h2Z"/><path d="M22 21H2v-2h20v2Z"/><g fill="#3747D6"><path d="M22 15.5H2v-2h20v2Z"/><path d="M19 4v16h-2V4h2Z"/><path d="M7 4v16H5V4h2Z"/></g><path d="M6 3c.55 0 1 .44 1 1 0 2.04 2.06 4 5 4 2.93 0 5-1.96 5-4 0-.56.44-1 1-1 .55 0 1 .44 1 1 0 1.48.4 2.78 1 3.68 .6.9 1.33 1.31 1.99 1.31v2c-1.55 0-2.82-.94-3.67-2.21 -.26-.39-.49-.82-.67-1.27 -1.31 1.52-3.42 2.46-5.68 2.46s-4.37-.95-5.68-2.47c-.19.45-.42.88-.67 1.26 -.85 1.26-2.12 2.2-3.67 2.2v-2c.66 0 1.39-.41 1.99-1.32 .6-.91 1-2.21 1-3.69 0-.56.44-1 1-1Z"/></g></svg>