<svg viewBox="0 0 24 24" xmlns="http://www.w3.org/2000/svg"><g fill="#9545ED" fill-rule="evenodd"><path d="M19.5 20H14v-2h5.5v2Z"/><path d="M19.5 14H14v-2h5.5v2Z"/><path d="M9.5 20H4v-2h5.5v2Z"/><path d="M10 14H4v-2h6v2Z"/><g fill="#3747D6"><path d="M3.5 8.5c0-.56.44-1 1-1h15c.55 0 1 .44 1 1V22c0 .55-.45 1-1 1h-15c-.56 0-1-.45-1-1V8.5Zm2 1V21h13V9.5h-13Z"/><path d="M2.12 5.5c.17-.32.5-.51.87-.51h18c.36 0 .69.19.87.5 .17.31.17.69-.02 1l-1.5 2.5c-.19.3-.51.48-.86.48h-15c-.36 0-.68-.19-.86-.49l-1.5-2.5c-.19-.31-.2-.7-.02-1.01Zm2.63 1.49l.3.5h13.86l.3-.5H4.74Z"/><path d="M10 3v.34c0 .55-.45 1-1 1H6c-.56 0-1-.45-1-1v-.35H4v2h16v-2h-1v.34c0 .55-.45 1-1 1h-3c-.56 0-1-.45-1-1v-.35h-4Zm6-.66v-.35c0-.27-.11-.52-.3-.71 -.19-.19-.45-.3-.71-.3h-6c-.56 0-1 .44-1 1v.34h-1v-.35c0-.56-.45-1-1-1h-3c-.56 0-1 .44-1 1v4c0 .55.44 1 1 1h18c.55 0 1-.45 1-1v-4c0-.56-.45-1-1-1h-3c-.56 0-1 .44-1 1v.34h-1Z"/></g><path d="M9 13.5c0-1.66 1.34-3 3-3 1.65 0 3 1.34 3 3V22c0 .55-.45 1-1 1h-4c-.56 0-1-.45-1-1v-8.5Zm3-1c-.56 0-1 .44-1 1V21h2v-7.5c0-.56-.45-1-1-1Z"/><path d="M18 16v3h-2v-3h2Z"/><path d="M8 16v3H6v-3h2Z"/><path d="M22 23H2v-2h20v2Z"/></g></svg>