<svg viewBox="0 0 24 24" xmlns="http://www.w3.org/2000/svg"><g fill="#9545ED" fill-rule="evenodd"><path d="M14 2c0-.56.44-1 1-1h2.5c.55 0 1 .44 1 1v13c0 .55-.45 1-1 1H15c-.56 0-1-.45-1-1V2Zm2 1v11h.5V3H16Z"/><g fill="#3747D6"><path d="M3 14c0-2.77 2.23-5 5-5 2.76 0 5 2.23 5 5v8c0 .55-.45 1-1 1H4c-.56 0-1-.45-1-1v-8Zm5-3c-1.66 0-3 1.34-3 3v7h6v-7c0-1.66-1.35-3-3-3Z"/><path d="M11 15c0-.56.44-1 1-1h8c.55 0 1 .44 1 1v7c0 .55-.45 1-1 1h-8c-.56 0-1-.45-1-1v-7Zm2 1v5h6v-5h-6Z"/></g><path d="M17.5 19h-3v-2h3v2Z"/><path d="M2 21h20v2H2v-2Z"/><path d="M19 3h-5.5V1H19v2Z"/></g></svg>