<svg viewBox="0 0 24 24" xmlns="http://www.w3.org/2000/svg"><g fill="#9545ED" fill-rule="evenodd"><path d="M15.25 2.5c0-.56.44-1 1-1h2.5c.55 0 1 .44 1 1v7h-2v-6h-.5v6h-2v-7Z"/><path d="M9.75 2.5c0-.56.44-1 1-1h2.5c.55 0 1 .44 1 1v7h-2v-6h-.5v6h-2v-7Z"/><path d="M4.25 2.5c0-.56.44-1 1-1h2.5c.55 0 1 .44 1 1v7h-2v-6h-.5v6h-2v-7Z"/><path fill="#3747D6" d="M3 9.5c0-.56.44-1 1-1h16c.55 0 1 .44 1 1v12c0 .55-.45 1-1 1H4c-.56 0-1-.45-1-1v-12Zm2 1v10h14v-10H5Z"/><path d="M9 12v3H7v-3h2Z"/><path d="M13 12v3h-2v-3h2Z"/><path d="M17 12v3h-2v-3h2Z"/><path d="M9 17.5V19H7v-1.5h2Z"/><path d="M13 17.5V19h-2v-1.5h2Z"/><path d="M17 17.5V19h-2v-1.5h2Z"/><path d="M22 22.5H2v-2h20v2Z"/></g></svg>