<svg viewBox="0 0 24 24" xmlns="http://www.w3.org/2000/svg"><g fill="#9545ED" fill-rule="evenodd"><path d="M5.5 3c0-.56.44-1 1-1h3c.55 0 1 .44 1 1v5.75h-2V4h-1v6.25h-2V3Z"/><path d="M13.5 3c0-.56.44-1 1-1h3c.55 0 1 .44 1 1v5.25h-2V4h-1v5.75h-2V3Z"/><path d="M11 4H5V2h6v2Z"/><path d="M19 4h-6V2h6v2Z"/><path d="M17.5 19.5h-3v-2h3v2Z"/><path d="M9.5 19.5h-3v-2h3v2Z"/><g fill="#3747D6"><path d="M12.55 7.16c.28.18.44.49.44.83v7.5c0 .55-.45 1-1 1h-7c-.56 0-1-.45-1-1v-4.5c0-.4.23-.77.6-.92l7-3.01c.3-.14.66-.11.94.08Zm-6.56 4.49v2.84h5V9.5l-5 2.14Z"/><path d="M19.55 7.16c.28.18.44.49.44.83v7.5c0 .55-.45 1-1 1h-7c-.56 0-1-.45-1-1v-4.5c0-.4.23-.77.6-.92l7-3.01c.3-.14.66-.11.94.08Zm-6.56 4.49v2.84h5V9.5l-5 2.14Z"/><path d="M3 15.5c0-.56.44-1 1-1h16c.55 0 1 .44 1 1V22c0 .55-.45 1-1 1H4c-.56 0-1-.45-1-1v-6.5Zm2 1V21h14v-4.5H5Z"/></g><path d="M22 23H2v-2h20v2Z"/></g></svg>