<svg viewBox="0 0 24 24" xmlns="http://www.w3.org/2000/svg"><g fill="#9545ED" fill-rule="evenodd"><path d="M9 4v8H7V4h2Z"/><path d="M13 4v8h-2V4h2Z"/><path d="M17 4v8h-2V4h2Z"/><path d="M4 7h16v2H4V7Z"/><g fill="#3747D6"><path d="M3 12c0-.56.44-1 1-1h16c.55 0 1 .44 1 1v8c0 .55-.45 1-1 1H4c-.56 0-1-.45-1-1v-8Zm2 1v6h14v-6H5Z"/><path d="M3 4c0-.56.44-1 1-1h16c.55 0 1 .44 1 1v8c0 .55-.45 1-1 1H4c-.56 0-1-.45-1-1V4Zm2 1v6h14V5H5Z"/></g><path d="M9 15c0-.56.44-1 1-1h4c.55 0 1 .44 1 1v5c0 .55-.45 1-1 1h-4c-.56 0-1-.45-1-1v-5Zm2 1v3h2v-3h-2Z"/><path d="M2 19h20v2H2v-2Z"/></g></svg>