<svg viewBox="0 0 24 24" xmlns="http://www.w3.org/2000/svg"><g fill="#3747D6" fill-rule="evenodd"><path d="M9.51 1.85c.07-.5.49-.86.98-.86h3c.49 0 .91.36.99.85l1.48 10.37 3.94 9.38c.13.3.09.66-.09.94 -.19.27-.5.44-.84.44h-4.75c-.56 0-1-.45-1-1v-3c0-.56-.45-1-1-1h-.5c-.56 0-1 .44-1 1v3c0 .55-.45 1-1 1H4.97c-.34 0-.65-.17-.84-.45 -.19-.28-.22-.64-.09-.95l3.94-9.381L9.46 1.8Zm1.85 1.14l-1.38 9.64c-.02.08-.04.16-.07.24l-3.42 8.11h2.24v-2c0-1.66 1.34-3 3-3h.5c1.65 0 3 1.34 3 3v2h2.24l-3.42-8.12c-.04-.08-.06-.17-.07-.25L12.6 2.96h-1.27Z"/><g fill="#9545ED"><path d="M18 14H6v-2h12v2Z"/><path d="M17 10H7V8h10v2Z"/><path d="M16 6H8V4h8v2Z"/></g></g></svg>