<svg viewBox="0 0 24 24" xmlns="http://www.w3.org/2000/svg"><g fill="#9545ED" fill-rule="evenodd"><path d="M12 1c.29 0 .57.13.76.35l2.5 3c.24.29.3.71.13 1.06 -.17.35-.52.57-.91.57h-5c-.39 0-.75-.23-.91-.58 -.17-.36-.12-.77.13-1.07l2.5-3c.19-.23.47-.36.76-.36Zm-.37 3h.72l-.37-.44 -.37.43Z"/><path fill="#3747D6" d="M8.5 4.89c.05-.51.48-.9.99-.9h5c.51 0 .94.38.99.89l1.5 14.5c.02.28-.07.56-.26.77 -.19.21-.46.33-.75.33h-8c-.29 0-.56-.12-.75-.34 -.19-.22-.29-.5-.26-.78l1.5-14.5Zm1.89 1.1l-1.3 12.5h5.78l-1.3-12.5h-3.2Z"/><path d="M10.5 15.5h3v2h-3v-2Z"/><path d="M11 13h2v2h-2v-2Z"/><path d="M11 10.5h2v2h-2v-2Z"/><path d="M5 21.5c0-1.66 1.34-3 3-3h8c1.65 0 3 1.34 3 3v.5c0 .55-.45 1-1 1H6c-.56 0-1-.45-1-1v-.5Zm2.13-.5h9.73c-.18-.3-.5-.5-.87-.5h-8c-.38 0-.7.2-.87.5Z"/></g></svg>