<svg viewBox="0 0 24 24" xmlns="http://www.w3.org/2000/svg"><g fill="#9545ED" fill-rule="evenodd"><path d="M7.31 13h9.18v2H7.3v-2Z"/><path d="M6.81 16h10.18v2H6.8v-2Z"/><g fill="#3747D6"><path d="M16.98 10.82l2 11 -1.97.35 -2-11 1.96-.36Z"/><path d="M8.97 11.22l-2.5 11 -1.96-.45 2.5-11 1.95.44Z"/><path d="M7 5c0-.56.44-1 1-1h8c.55 0 1 .44 1 1v6c0 .55-.45 1-1 1H8c-.56 0-1-.45-1-1V5Zm2 1v4h6V6H9Z"/></g><path d="M11.48 1.14c.31-.2.71-.2 1.029 0l5 3c.38.23.56.69.44 1.12 -.12.43-.52.73-.97.73h-10c-.45 0-.85-.3-.97-.74s.06-.9.44-1.13l4.99-3Zm-.88 2.85h2.77l-1.39-.84 -1.39.83Z"/><path d="M6 10h12v2H6v-2Z"/></g></svg>