<svg viewBox="0 0 24 24" xmlns="http://www.w3.org/2000/svg"><path fill="#ECEFF1" d="M4 1.25C2.48 1.25 1.25 2.48 1.25 4v16c0 1.51 1.23 2.75 2.75 2.75h16c1.51 0 2.75-1.24 2.75-2.75V4c0-1.52-1.24-2.75-2.75-2.75H4Z"/><path fill="#5E94FF" d="M4 1.25C2.48 1.25 1.25 2.48 1.25 4v2c0 .41.33.75.75.75h20c.41 0 .75-.34.75-.75V4c0-1.52-1.24-2.75-2.75-2.75H4Z"/><path fill="#EE4D4D" d="M12 8.25c-3.18 0-5.75 2.57-5.75 5.75 0 3.17 2.57 5.75 5.75 5.75 3.17 0 5.75-2.58 5.75-5.75 0-3.18-2.58-5.75-5.75-5.75Z"/><g fill="#ECEFF1" fill-rule="evenodd"><path d="M14.53 11.46c.29.29.29.76 0 1.06l-4 4c-.3.29-.77.29-1.07 0 -.3-.3-.3-.77 0-1.07l4-4c.29-.3.76-.3 1.06 0Z"/><path d="M9.46 11.46c-.3.29-.3.76 0 1.06l4 4c.29.29.76.29 1.06 0 .29-.3.29-.77 0-1.07l-4-4c-.3-.3-.77-.3-1.07 0Z"/></g></svg>