<svg viewBox="0 0 24 24" xmlns="http://www.w3.org/2000/svg"><path fill="#ECEFF1" d="M2 1.25c-.42 0-.75.33-.75.75v20c0 .41.33.75.75.75h20c.41 0 .75-.34.75-.75V8c0-.2-.08-.39-.22-.54l-6-6c-.15-.15-.34-.22-.54-.22h-14Z"/><path fill="#CFD8DC" d="M16.53 1.46c-.22-.22-.54-.28-.82-.17 -.29.11-.47.38-.47.69v6c0 .41.33.75.75.75h6c.3 0 .57-.19.69-.47 .11-.29.05-.61-.17-.82l-6-6Z"/><path fill="#5E94FF" fill-rule="evenodd" d="M6.25 10.5c0-1.8 1.45-3.25 3.25-3.25h1c1.79 0 3.25 1.45 3.25 3.25v.5c0 .41-.34.75-.75.75 -.42 0-.75-.34-.75-.75v-.5c0-.97-.79-1.75-1.75-1.75h-1c-.97 0-1.75.78-1.75 1.75v5c0 .96.78 1.75 1.75 1.75h1c.96 0 1.75-.79 1.75-1.75V15c0-.42.33-.75.75-.75 .41 0 .75.33.75.75v.5c0 1.79-1.46 3.25-3.25 3.25h-1c-1.8 0-3.25-1.46-3.25-3.25v-5Z"/></svg>