<svg viewBox="0 0 24 24" xmlns="http://www.w3.org/2000/svg"><path fill="#5E94FF" d="M4 1.25C2.48 1.25 1.25 2.48 1.25 4v16c0 1.51 1.23 2.75 2.75 2.75h16c1.51 0 2.75-1.24 2.75-2.75V4c0-1.52-1.24-2.75-2.75-2.75H4Z"/><path fill="#4DC4FF" d="M4 1.25C2.48 1.25 1.25 2.48 1.25 4v2c0 .41.33.75.75.75h20c.41 0 .75-.34.75-.75V4c0-1.52-1.24-2.75-2.75-2.75H4Z"/><path fill="#E5E5E5" fill-rule="evenodd" d="M8.25 11.5c0-1.8 1.45-3.25 3.25-3.25h1c1.79 0 3.25 1.45 3.25 3.25v.5c0 .41-.34.75-.75.75 -.42 0-.75-.34-.75-.75v-.5c0-.97-.79-1.75-1.75-1.75h-1c-.97 0-1.75.78-1.75 1.75v5c0 .96.78 1.75 1.75 1.75h1c.96 0 1.75-.79 1.75-1.75V16c0-.42.33-.75.75-.75 .41 0 .75.33.75.75v.5c0 1.79-1.46 3.25-3.25 3.25h-1c-1.8 0-3.25-1.46-3.25-3.25v-5Z"/></svg>