<svg viewBox="0 0 24 24" xmlns="http://www.w3.org/2000/svg"><g fill="#CFD8DC" fill-rule="evenodd"><path d="M17.03 7.96c.29.29.29.76 0 1.06l-2 1.99c-.3.29-.77.29-1.07 0 -.3-.3-.3-.77 0-1.07l2-2c.29-.3.76-.3 1.06 0Z"/><path d="M6.96 7.96c-.3.29-.3.76 0 1.06l2 1.99c.29.29.76.29 1.06 0 .29-.3.29-.77 0-1.07l-2-2c-.3-.3-.77-.3-1.07 0Z"/><path d="M17.03 16.03c.29-.3.29-.77 0-1.07l-2-2c-.3-.3-.77-.3-1.07 0 -.3.29-.3.76 0 1.06l2 2c.29.29.76.29 1.06 0Z"/><path d="M6.96 16.03c-.3-.3-.3-.77 0-1.07l2-2c.29-.3.76-.3 1.06 0 .29.29.29.76 0 1.06l-2 2c-.3.29-.77.29-1.07 0Z"/><path d="M13.75 12c0-.42.33-.75.75-.75H17c.41 0 .75.33.75.75 0 .41-.34.75-.75.75h-2.5c-.42 0-.75-.34-.75-.75Z"/><path d="M10.25 12c0-.42-.34-.75-.75-.75H7c-.42 0-.75.33-.75.75 0 .41.33.75.75.75h2.5c.41 0 .75-.34.75-.75Z"/></g><path fill="#8B98A6" d="M11.5 7.25c-1.52 0-2.75 1.23-2.75 2.75v3c0 1.51 1.23 2.75 2.75 2.75h1c1.51 0 2.75-1.24 2.75-2.75v-3c0-1.52-1.24-2.75-2.75-2.75h-1Z"/><g fill="#CFD8DC" fill-rule="evenodd"><path d="M8.75 9.75h6.5v1.5h-2.5v4.5h-1.5v-4.5h-2.5v-1.5Z"/><g fill="#EE4D4D"><path d="M18.25 12c0-.42.33-.75.75-.75h3c.41 0 .75.33.75.75 0 .41-.34.75-.75.75h-3c-.42 0-.75-.34-.75-.75Z"/><path d="M1.25 12c0-.42.33-.75.75-.75h3c.41 0 .75.33.75.75 0 .41-.34.75-.75.75H2c-.42 0-.75-.34-.75-.75Z"/><path d="M12 1.25c.41 0 .75.33.75.75v3c0 .41-.34.75-.75.75 -.42 0-.75-.34-.75-.75V2c0-.42.33-.75.75-.75Z"/><path d="M12 18.25c.41 0 .75.33.75.75v3c0 .41-.34.75-.75.75 -.42 0-.75-.34-.75-.75v-3c0-.42.33-.75.75-.75Z"/><path d="M12 4.25c-4.29 0-7.75 3.46-7.75 7.75 0 4.28 3.46 7.75 7.75 7.75 4.28 0 7.75-3.47 7.75-7.75 0-4.29-3.47-7.75-7.75-7.75ZM2.75 12c0-5.11 4.14-9.25 9.25-9.25 5.1 0 9.25 4.14 9.25 9.25 0 5.1-4.15 9.25-9.25 9.25 -5.11 0-9.25-4.15-9.25-9.25Z"/></g></g></svg>