<svg viewBox="0 0 24 24" xmlns="http://www.w3.org/2000/svg"><path fill="#ECEFF1" d="M2 1.25c-.42 0-.75.33-.75.75v20c0 .41.33.75.75.75h20c.41 0 .75-.34.75-.75V2c0-.42-.34-.75-.75-.75H2Z"/><g fill="#5E94FF" fill-rule="evenodd"><path d="M22.75 5.75V2c0-.42-.34-.75-.75-.75H2c-.42 0-.75.33-.75.75v3.75h21.5Z"/><g fill="#CFD8DC"><path d="M9.25 1.25v7.5h-1.5v-7.5h1.5Zm0 9v12.5h-1.5v-12.5h1.5Z"/><path d="M16.25 1.25v15.5h-1.5V1.25h1.5Zm0 17v4.5h-1.5v-4.5h1.5Z"/><path d="M1.25 12.75h21.5v1.5H1.25v-1.5Z"/></g></g><g fill="#5E94FF"><path d="M4.5 7.25c-.42 0-.75.33-.75.75v3c0 .41.33.75.75.75H13c.41 0 .75-.34.75-.75V8c0-.42-.34-.75-.75-.75H4.5Z"/><path d="M11 15.25c-.42 0-.75.33-.75.75v3c0 .41.33.75.75.75h8.5c.41 0 .75-.34.75-.75v-3c0-.42-.34-.75-.75-.75H11Z"/></g></svg>