<svg viewBox="0 0 24 24" xmlns="http://www.w3.org/2000/svg"><path fill="#5E94FF" d="M4 1.25C2.48 1.25 1.25 2.48 1.25 4v16c0 1.51 1.23 2.75 2.75 2.75h16c1.51 0 2.75-1.24 2.75-2.75V4c0-1.52-1.24-2.75-2.75-2.75H4Z"/><path fill="#4DC4FF" d="M4 1.25C2.48 1.25 1.25 2.48 1.25 4v2c0 .41.33.75.75.75h20c.41 0 .75-.34.75-.75V4c0-1.52-1.24-2.75-2.75-2.75H4Z"/><g fill="#ECEFF1" fill-rule="evenodd"><path d="M12.75 9c0-.42.33-.75.75-.75H19c.41 0 .75.33.75.75v10c0 .41-.34.75-.75.75h-5.5c-.42 0-.75-.34-.75-.75V9Zm1.5.75v8.5h4v-8.5h-4Z"/><path d="M11.25 9c0-.42-.34-.75-.75-.75H5c-.42 0-.75.33-.75.75v10c0 .41.33.75.75.75h5.5c.41 0 .75-.34.75-.75v-5c0-.42-.34-.75-.75-.75H8c-.42 0-.75.33-.75.75 0 .41.33.75.75.75h1.75v3.5h-4v-8.5h4.75c.41 0 .75-.34.75-.75Z"/></g></svg>