<svg viewBox="0 0 24 24" xmlns="http://www.w3.org/2000/svg"><path fill="#5E94FF" d="M8 2.75c-.42 0-.75.33-.75.75v7c0 .49.27.88.56 1.14 .29.26.68.46 1.09.61 .82.31 1.92.48 3.09.48s2.26-.18 3.09-.49c.41-.16.79-.36 1.09-.62 .29-.27.56-.65.56-1.15v-7c0-.42-.34-.75-.75-.75h-8Z"/><g fill="#CFD8DC" fill-rule="evenodd"><path d="M9.25 15c0-.42.33-.75.75-.75h4c.41 0 .75.33.75.75v6c0 .41-.34.75-.75.75h-4c-.42 0-.75-.34-.75-.75v-6Zm1.5.75v4.5h2.5v-4.5h-2.5Z"/><path d="M2.25 15c0-.42.33-.75.75-.75h4c.41 0 .75.33.75.75 0 .41-.34.75-.75.75H3.75v1.5H7c.41 0 .75.33.75.75v3c0 .41-.34.75-.75.75H3c-.42 0-.75-.34-.75-.75 0-.42.33-.75.75-.75h3.25v-1.5H3c-.42 0-.75-.34-.75-.75v-3Z"/><path d="M13.25 21c0-.42.33-.75.75-.75h2c.41 0 .75.33.75.75 0 .41-.34.75-.75.75h-2c-.42 0-.75-.34-.75-.75Z"/><path d="M18 13.25c.41 0 .75.33.75.75v6.25H21c.41 0 .75.33.75.75 0 .41-.34.75-.75.75h-3c-.42 0-.75-.34-.75-.75v-7c0-.42.33-.75.75-.75Z"/></g><path fill="#7EA9FF" d="M8 2.75c-.42 0-.75.33-.75.75V7c0 .49.27.88.56 1.14 .29.26.68.46 1.09.61 .82.31 1.92.48 3.09.48s2.26-.18 3.09-.49c.41-.16.79-.36 1.09-.62 .29-.27.56-.65.56-1.15v-3.5c0-.42-.34-.75-.75-.75h-8Z"/><path fill="#5E94FF" d="M12 1.25c-1.18 0-2.27.17-3.1.48 -.42.15-.8.35-1.1.61 -.3.26-.57.64-.57 1.14 0 .49.27.88.56 1.14 .29.26.68.46 1.09.61 .82.31 1.92.48 3.09.48s2.26-.18 3.09-.49c.41-.16.79-.36 1.09-.62 .29-.27.56-.65.56-1.15 0-.5-.28-.89-.57-1.15 -.3-.262-.69-.47-1.1-.62 -.83-.32-1.93-.49-3.1-.49Z"/></svg>