<svg viewBox="0 0 24 24" xmlns="http://www.w3.org/2000/svg"><path fill="#5E94FF" d="M4 1.25C2.48 1.25 1.25 2.48 1.25 4v16c0 1.51 1.23 2.75 2.75 2.75h16c1.51 0 2.75-1.24 2.75-2.75V4c0-1.52-1.24-2.75-2.75-2.75H4Z"/><path fill="#4DC4FF" d="M4 1.25C2.48 1.25 1.25 2.48 1.25 4v2c0 .41.33.75.75.75h20c.41 0 .75-.34.75-.75V4c0-1.52-1.24-2.75-2.75-2.75H4Z"/><g fill="#ECEFF1" fill-rule="evenodd"><path d="M15 9.25c-.7 0-1.25.55-1.25 1.25v.25c0 .41-.34.75-.75.75 -.42 0-.75-.34-.75-.75v-.26c0-1.52 1.23-2.75 2.75-2.75h1c1.51 0 2.75 1.23 2.75 2.75v1.03c0 .83-.38 1.62-1.04 2.14l-1.47 1.17v1.63c0 .41-.34.75-.75.75 -.42 0-.75-.34-.75-.75v-2c0-.23.1-.45.28-.59l1.74-1.4c.29-.24.46-.6.46-.98v-1.04c0-.7-.56-1.25-1.25-1.25h-1Z"/><path d="M15.5 17.75c.41 0 .75.33.75.75v1c0 .41-.34.75-.75.75 -.42 0-.75-.34-.75-.75v-1c0-.42.33-.75.75-.75Z"/><path d="M9.53 9.46c.29.29.29.76 0 1.06l-3.47 3.46 3.46 3.46c.29.29.29.76 0 1.06 -.3.29-.77.29-1.07 0l-4-4c-.3-.3-.3-.77 0-1.07l4-4.01c.29-.3.76-.3 1.06 0Z"/></g></svg>