<svg viewBox="0 0 24 24" xmlns="http://www.w3.org/2000/svg"><path fill="#ECEFF1" d="M2 1.25c-.42 0-.75.33-.75.75v20c0 .41.33.75.75.75h20c.41 0 .75-.34.75-.75V8c0-.2-.08-.39-.22-.54l-6-6c-.15-.15-.34-.22-.54-.22h-14Z"/><path fill="#CFD8DC" d="M16.53 1.46c-.22-.22-.54-.28-.82-.17 -.29.11-.47.38-.47.69v6c0 .41.33.75.75.75h6c.3 0 .57-.19.69-.47 .11-.29.05-.61-.17-.82l-6-6Z"/><g fill="#FFC44D" fill-rule="evenodd"><path d="M13.5 10.25c.41 0 .75.33.75.75v2c0 .69.55 1.25 1.25 1.25h2.75V11c0-.42.33-.75.75-.75 .41 0 .75.33.75.75v6c0 1.51-1.24 2.75-2.75 2.75h-3.5c-.42 0-.75-.34-.75-.75 0-.42.33-.75.75-.75H17c.69 0 1.25-.56 1.25-1.25v-1.25H15.5c-1.52 0-2.75-1.24-2.75-2.75v-2c0-.42.33-.75.75-.75Z"/><path fill="#5E94FF" d="M4.25 11c0-.42.33-.75.75-.75h3.5c1.51 0 2.75 1.23 2.75 2.75 0 1.51-1.24 2.75-2.75 2.75H5.75V19c0 .41-.34.75-.75.75 -.42 0-.75-.34-.75-.75v-8Zm1.5 3.25H8.5c.69 0 1.25-.56 1.25-1.25 0-.7-.56-1.25-1.25-1.25H5.75v2.5Z"/></g></svg>