<svg viewBox="0 0 24 24" xmlns="http://www.w3.org/2000/svg"><path fill="#ECEFF1" d="M2 1.25c-.42 0-.75.33-.75.75v20c0 .41.33.75.75.75h20c.41 0 .75-.34.75-.75V8c0-.2-.08-.39-.22-.54l-6-6c-.15-.15-.34-.22-.54-.22h-14Z"/><path fill="#CFD8DC" d="M16.53 1.46c-.22-.22-.54-.28-.82-.17 -.29.11-.47.38-.47.69v6c0 .41.33.75.75.75h6c.3 0 .57-.19.69-.47 .11-.29.05-.61-.17-.82l-6-6Z"/><g fill="#5E94FF" fill-rule="evenodd"><path d="M8.25 9.5c0-.42.33-.75.75-.75h4c.41 0 .75.33.75.75v3c0 .41-.34.75-.75.75H7.75v4.25c0 .41-.34.75-.75.75 -.42 0-.75-.34-.75-.75v-5c0-.42.33-.75.75-.75h5.25v-1.5H9c-.42 0-.75-.34-.75-.75Z"/><path fill="#FFC44D" d="M14.75 18.5c0 .41-.34.75-.75.75h-4c-.42 0-.75-.34-.75-.75v-3c0-.42.33-.75.75-.75h5.25V10.5c0-.42.33-.75.75-.75 .41 0 .75.33.75.75v5c0 .41-.34.75-.75.75h-5.25v1.5H14c.41 0 .75.33.75.75Z"/></g></svg>