<svg viewBox="0 0 24 24" xmlns="http://www.w3.org/2000/svg"><path fill="#ECEFF1" d="M2 1.25c-.42 0-.75.33-.75.75v20c0 .41.33.75.75.75h20c.41 0 .75-.34.75-.75V8c0-.2-.08-.39-.22-.54l-6-6c-.15-.15-.34-.22-.54-.22h-14Z"/><g fill="#CFD8DC"><path d="M16.53 1.46c-.22-.22-.54-.28-.82-.17 -.29.11-.47.38-.47.69v6c0 .41.33.75.75.75h6c.3 0 .57-.19.69-.47 .11-.29.05-.61-.17-.82l-6-6Z"/><path fill="#CFD8DC" fill-rule="evenodd" d="M6.88 11.19c-1.19.59-1.64 1.27-1.64 1.8 0 .52.44 1.21 1.63 1.8 1.14.57 2.77.94 4.61.94 .15 0 .31-.01.47-.01 .41-.02.76.3.77.72 .01.41-.31.76-.73.77 -.18 0-.35 0-.53 0 -2.03 0-3.9-.41-5.29-1.11 -1.35-.68-2.47-1.75-2.47-3.15 0-1.41 1.11-2.48 2.46-3.15 1.39-.7 3.26-1.11 5.28-1.11 2.02 0 3.89.4 5.28 1.1 1.34.67 2.46 1.74 2.46 3.14 0 1.55-1.38 2.705-2.96 3.37 -.11.04-.29.1-.5.09 -.09-.01-.16-.02-.23-.05 -.36.03-.7-.19-.8-.54 -.12-.4.11-.82.51-.93 .13-.04.3-.08.49-.05 .02 0 .04 0 .07.01 1.35-.61 1.89-1.36 1.89-1.93 0-.53-.45-1.22-1.64-1.81 -1.15-.58-2.78-.95-4.62-.95 -1.85 0-3.48.37-4.62.94Zm9.3 3.87s0 0 0 0 0 0 0 0 0 0 0 0m-.48 1.31s-.01 0-.01 0c0-.01 0-.01 0-.01Z"/></g><path fill="#5E94FF" fill-rule="evenodd" d="M11.25 13.5c0-.42.33-.75.75-.75h2c1.24 0 2.25 1 2.25 2.25 0 1.24-1.01 2.25-2.25 2.25h-.19l2.21 2.21c.29.29.29.76 0 1.06 -.3.29-.77.29-1.07 0l-2.22-2.22v1.68c0 .41-.34.75-.75.75 -.42 0-.75-.34-.75-.75v-6.5Zm1.5 2.25v-1.5H14c.41 0 .75.33.75.75 0 .41-.34.75-.75.75h-1.25Z"/></svg>