<svg viewBox="0 0 24 24" xmlns="http://www.w3.org/2000/svg"><path fill="#5E94FF" d="M4 1.25C2.48 1.25 1.25 2.48 1.25 4v16c0 1.51 1.23 2.75 2.75 2.75h16c1.51 0 2.75-1.24 2.75-2.75V4c0-1.52-1.24-2.75-2.75-2.75H4Z"/><path fill="#4DC4FF" d="M4 1.25C2.48 1.25 1.25 2.48 1.25 4v2c0 .41.33.75.75.75h20c.41 0 .75-.34.75-.75V4c0-1.52-1.24-2.75-2.75-2.75H4Z"/><g fill="#ECEFF1"><path d="M5 8.25c-.42 0-.75.33-.75.75v4c0 .41.33.75.75.75h5c.41 0 .75-.34.75-.75V9c0-.42-.34-.75-.75-.75H5Z"/><path d="M5 15.25c-.42 0-.75.33-.75.75v3c0 .41.33.75.75.75h14c.41 0 .75-.34.75-.75v-3c0-.42-.34-.75-.75-.75H5Z"/><g fill="#ECEFF1" fill-rule="evenodd"><path d="M12.25 9c0-.42.33-.75.75-.75h6c.41 0 .75.33.75.75 0 .41-.34.75-.75.75h-6c-.42 0-.75-.34-.75-.75Z"/><path d="M12.25 13c0-.42.33-.75.75-.75h6c.41 0 .75.33.75.75 0 .41-.34.75-.75.75h-6c-.42 0-.75-.34-.75-.75Z"/></g></g></svg>