<svg viewBox="0 0 24 24" xmlns="http://www.w3.org/2000/svg"><path fill="#4DC4FF" fill-rule="evenodd" d="M7.25 5c0-.42.33-.75.75-.75h12c1.51 0 2.75 1.23 2.75 2.75v3c0 1.51-1.24 2.75-2.75 2.75h-5c-.42 0-.75-.34-.75-.75 0-.42.33-.75.75-.75h5c.69 0 1.25-.56 1.25-1.25V7c0-.7-.56-1.25-1.25-1.25H8c-.42 0-.75-.34-.75-.75ZM4 12.75c-.7 0-1.25.55-1.25 1.25v3c0 .69.55 1.25 1.25 1.25h12c.41 0 .75.33.75.75 0 .41-.34.75-.75.75H4c-1.52 0-2.75-1.24-2.75-2.75v-3c0-1.52 1.23-2.75 2.75-2.75h5c.41 0 .75.33.75.75 0 .41-.34.75-.75.75H4Z"/><g fill="#5E94FF"><path d="M5 1.25C2.92 1.25 1.25 2.92 1.25 5c0 2.07 1.67 3.75 3.75 3.75 2.07 0 3.75-1.68 3.75-3.75 0-2.08-1.68-3.75-3.75-3.75Z"/><path d="M12 8.25c-2.08 0-3.75 1.67-3.75 3.75 0 2.07 1.67 3.75 3.75 3.75 2.07 0 3.75-1.68 3.75-3.75 0-2.08-1.68-3.75-3.75-3.75Z"/><path d="M19 15.25c-2.08 0-3.75 1.67-3.75 3.75 0 2.07 1.67 3.75 3.75 3.75 2.07 0 3.75-1.68 3.75-3.75 0-2.08-1.68-3.75-3.75-3.75Z"/></g></svg>