<svg viewBox="0 0 24 24" xmlns="http://www.w3.org/2000/svg"><path fill="#ECEFF1" d="M2 1.25c-.42 0-.75.33-.75.75v20c0 .41.33.75.75.75h20c.41 0 .75-.34.75-.75V8c0-.2-.08-.39-.22-.54l-6-6c-.15-.15-.34-.22-.54-.22h-14Z"/><path fill="#CFD8DC" d="M16.53 1.46c-.22-.22-.54-.28-.82-.17 -.29.11-.47.38-.47.69v6c0 .41.33.75.75.75h6c.3 0 .57-.19.69-.47 .11-.29.05-.61-.17-.82l-6-6Z"/><g fill="#5E94FF" fill-rule="evenodd"><path d="M9.53 9.96c.29.29.29.76 0 1.06l-3.47 3.46 3.46 3.46c.29.29.29.76 0 1.06 -.3.29-.77.29-1.07 0l-4-4c-.3-.3-.3-.77 0-1.07l4-4.01c.29-.3.76-.3 1.06 0Z"/><path d="M12.58 9.37c.34-.23.81-.14 1.04.2l6 9c.22.34.13.81-.21 1.04 -.35.22-.82.13-1.05-.21l-6-9c-.23-.35-.14-.82.2-1.05Z"/><path d="M19.41 9.37c-.35-.23-.82-.14-1.05.2l-6 9c-.23.34-.14.81.2 1.04 .34.22.81.13 1.04-.21l6-9c.22-.35.13-.82-.21-1.05Z"/></g></svg>