<svg viewBox="0 0 24 24" xmlns="http://www.w3.org/2000/svg"><g fill-rule="evenodd"><path d="M3.37 17.32c-.65.44-.88.85-.88 1.17 0 .27.15.6.6.97 .44.36 1.11.71 1.98 1.02 1.74.61 4.18.99 6.9.99 2.72 0 5.16-.39 6.9-1 .87-.31 1.54-.66 1.98-1.03 .44-.37.6-.71.6-.98 0-.33-.23-.74-.88-1.18 -.64-.44-1.58-.83-2.76-1.14l.25-.97c1.24.32 2.3.75 3.06 1.28 .74.51 1.3 1.18 1.3 2 0 .69-.41 1.27-.97 1.74 -.57.47-1.37.87-2.3 1.19 -1.88.65-4.44 1.05-7.24 1.05 -2.81 0-5.37-.4-7.24-1.06 -.94-.33-1.73-.73-2.3-1.2 -.57-.47-.97-1.06-.97-1.75 0-.82.55-1.5 1.3-2.01 .76-.53 1.82-.96 3.06-1.29l.25.96c-1.19.31-2.13.7-2.76 1.13Z"/><path d="M12 2.5c-3.32 0-6 2.68-6 6 0 2.6 1.51 4.85 3.109 6.49 .78.81 1.58 1.46 2.17 1.9 .29.22.54.39.71.5 0 0 0 0 0 0 0-.01 0-.01 0-.01 .17-.12.41-.29.71-.51 .59-.45 1.38-1.09 2.17-1.91 1.59-1.65 3.1-3.9 3.1-6.5 0-3.32-2.69-6-6-6ZM12 18c-.26.42-.26.42-.26.42l-.01-.01 -.01-.01 -.01-.01 -.02-.01c-.02-.01-.04-.03-.06-.04 -.06-.04-.13-.08-.22-.14 -.19-.13-.45-.31-.76-.54 -.63-.47-1.46-1.15-2.3-2.01 -1.66-1.72-3.391-4.21-3.391-7.2 0-3.87 3.13-7 7-7 3.86 0 7 3.13 7 7 0 2.98-1.74 5.48-3.391 7.19 -.84.86-1.67 1.54-2.3 2 -.32.23-.58.41-.76.53 -.1.06-.17.1-.22.13 -.03.01-.05.02-.06.03l-.02 0 -.01 0 -.01 0 -.01 0c-.01 0-.01 0-.26-.43Zm0 0l.25.42c-.16.09-.36.09-.52 0l.25-.43Z"/><path d="M12 5.5c-1.39 0-2.5 1.11-2.5 2.5 0 1.38 1.11 2.5 2.5 2.5 1.38 0 2.5-1.12 2.5-2.5 0-1.39-1.12-2.5-2.5-2.5ZM8.5 8c0-1.94 1.56-3.5 3.5-3.5 1.93 0 3.5 1.56 3.5 3.5 0 1.93-1.57 3.5-3.5 3.5 -1.94 0-3.5-1.57-3.5-3.5Z"/></g></svg>