<svg viewBox="0 0 24 24" xmlns="http://www.w3.org/2000/svg"><g fill-rule="evenodd"><path d="M12 2.5c-1.94 0-3.5 1.56-3.5 3.5 0 1.93 1.56 3.5 3.5 3.5 1.93 0 3.5-1.57 3.5-3.5 0-1.94-1.57-3.5-3.5-3.5ZM7.5 6c0-2.49 2.01-4.5 4.5-4.5 2.48 0 4.5 2.01 4.5 4.5 0 2.48-2.02 4.5-4.5 4.5 -2.49 0-4.5-2.02-4.5-4.5Z"/><path d="M6.28 17.1c-.55.46-.79.94-.79 1.39 0 .67.56 1.42 1.77 2.02 1.18.59 2.85.97 4.72.97 1.87 0 3.54-.39 4.72-.98 1.21-.61 1.77-1.36 1.77-2.03 0-.46-.25-.94-.79-1.4 -.55-.47-1.35-.87-2.36-1.16l.27-.97c1.09.31 2.03.77 2.71 1.35 .68.57 1.14 1.31 1.14 2.15 0 1.25-1.01 2.26-2.33 2.92 -1.35.67-3.18 1.07-5.18 1.07 -2 0-3.83-.41-5.18-1.08 -1.32-.66-2.33-1.67-2.33-2.93 0-.85.45-1.58 1.14-2.16 .68-.58 1.62-1.05 2.71-1.36l.27.96c-1.01.28-1.81.69-2.36 1.15Z"/><path d="M11.5 19.5V10h1v9.5h-1Z"/></g></svg>