<svg viewBox="0 0 24 24" xmlns="http://www.w3.org/2000/svg"><g fill-rule="evenodd"><path d="M1.71 2.09c.13-.1.3-.12.45-.07L9 4.46l6.34-1.96c.1-.04.22-.03.32.01l6.5 2.5c.19.07.32.25.32.46v16c0 .16-.09.31-.22.41 -.14.09-.31.11-.47.05l-6.34-2.44 -6.34 1.94c-.11.03-.22.02-.32-.01l-7-2.5c-.2-.08-.34-.26-.34-.48v-16c0-.17.07-.32.21-.41Zm.78 1.11v14.93L9 20.45l6.34-1.96c.1-.04.22-.03.32.01l5.82 2.23V5.8l-6.02-2.32 -6.34 1.94c-.11.03-.22.02-.32-.01L2.46 3.14Z"/><path d="M8.5 21V5h1v16h-1Z"/><path d="M15 19V3h1v16h-1Z"/></g></svg>