<svg viewBox="0 0 24 24" xmlns="http://www.w3.org/2000/svg"><g fill-rule="evenodd"><path d="M12 3.5c-3.57 0-6.5 3.02-6.5 6.81 0 2.95 1.65 5.513 3.36 7.36 .85.91 1.7 1.64 2.34 2.14 .32.24.58.44.77.56 0 0 .01 0 .01.01 0-.01.01-.01.01-.02 .18-.13.45-.32.77-.57 .64-.5 1.49-1.23 2.34-2.15 1.71-1.85 3.36-4.41 3.36-7.37 0-3.79-2.94-6.82-6.5-6.82ZM12 21c-.266.42-.27.42-.27.42l-.01-.01 -.01-.01 -.01-.01 -.02-.02c-.02-.01-.04-.03-.07-.05 -.06-.04-.14-.09-.24-.16 -.2-.14-.48-.34-.82-.61 -.68-.53-1.57-1.29-2.47-2.26 -1.79-1.93-3.64-4.72-3.64-8.05 0-4.3 3.33-7.82 7.5-7.82 4.16 0 7.5 3.51 7.5 7.81 0 3.32-1.85 6.11-3.64 8.04 -.9.96-1.8 1.73-2.47 2.25 -.34.26-.62.46-.82.6 -.1.06-.18.12-.24.15 -.03.01-.05.03-.07.04l-.02.01 -.01 0 -.01 0 -.01 0c-.01 0-.01 0-.27-.43Zm0 0l.266.42c-.17.1-.37.1-.532 0l.266-.43Z"/><path d="M8.58 13.79c-.13-.13-.18-.31-.14-.48l.7-2.83c.02-.09.06-.17.13-.24L12.8 6.7c.58-.59 1.53-.59 2.12 0l.7.7c.58.58.58 1.53 0 2.12l-3.54 3.53c-.07.06-.15.1-.24.13l-2.83.7c-.18.04-.36-.01-.48-.14Zm2.92-1.52l3.43-3.44c.19-.2.19-.52 0-.71l-.71-.71c-.2-.2-.52-.2-.71 0l-3.44 3.43 -.48 1.88 1.88-.48Z"/></g></svg>