<svg viewBox="0 0 24 24" xmlns="http://www.w3.org/2000/svg"><g fill="#4DC4FF" fill-rule="evenodd"><path d="M1.34 15.19c.2-.36.66-.49 1.02-.28l1.36.77c.43.24.97.21 1.37-.1l.24-.19c.98-.76 2.34-.76 3.33 0l.08.06c.44.34 1.06.34 1.51 0l.08-.07c.98-.76 2.34-.76 3.33 0l.08.06c.44.34 1.06.34 1.51 0l.08-.07c.98-.76 2.34-.76 3.33 0l.24.18c.39.3.94.34 1.37.09l1.36-.78c.35-.21.81-.09 1.02.27 .2.35.08.81-.28 1.02l-1.37.77c-.96.54-2.16.46-3.04-.21l-.25-.19c-.45-.35-1.07-.35-1.52 0l-.09.06c-.99.75-2.35.75-3.34 0l-.09-.07c-.45-.35-1.07-.35-1.52 0l-.09.06c-.99.75-2.35.75-3.34 0l-.09-.07c-.45-.35-1.07-.35-1.52 0l-.25.18c-.88.66-2.08.74-3.04.2l-1.37-.78c-.36-.21-.49-.67-.28-1.03Z"/><path d="M8.55 7.64c.69-.56 1.57-.9 2.53-.9 2.22 0 4.03 1.8 4.03 4.03 0 .02-.01.05-.01.08 -.02.95.67 2.1 1.89 2.1h5.07c.41 0 .75-.34.75-.75 0-.42-.34-.75-.75-.75h-5.08c-.08 0-.17-.04-.25-.14 -.1-.12-.15-.28-.15-.44 0-.04 0-.08 0-.11 0-3.06-2.48-5.54-5.54-5.54 -2.18 0-4.06 1.25-4.97 3.08 -.14.27-.09.61.12.84 .21.22.54.3.82.18 .35-.15.73-.22 1.14-.22 .77 0 1.33.04 1.74.15 .37.1.56.26.67.49 .05.1.06.23-.05.42 -.12.2-.33.41-.59.55 -.84.45-1.77.69-2.72.69H1.9c-.42 0-.75.33-.75.75 0 .41.33.75.75.75h5.29c1.19 0 2.37-.31 3.43-.875 .47-.26.91-.67 1.18-1.16 .27-.52.38-1.17.06-1.82 -.35-.69-.94-1.07-1.6-1.26 -.55-.16-1.17-.21-1.83-.22Z"/></g></svg>