<svg viewBox="0 0 24 24" xmlns="http://www.w3.org/2000/svg"><g fill="#FFC44D" fill-rule="evenodd"><path d="M9.8 5.64c-4.73 0-8.56 3.83-8.56 8.55 0 4.72 3.83 8.55 8.55 8.55 4.72 0 8.55-3.84 8.55-8.56 0-4.73-3.84-8.56-8.56-8.56Z"/><path fill="#4DC4FF" d="M19.68 1.56c-.15-.2-.37-.32-.62-.32s-.48.11-.62.31l-.91 1.27 -1.5.46c-.24.07-.42.25-.5.48 -.08.23-.04.48.11.68l.93 1.25 -.02 1.56c-.01.24.11.47.3.61s.45.18.68.1L19 7.45l1.47.5c.23.07.48.03.68-.11 .19-.15.31-.38.3-.62l-.02-1.57 .93-1.26c.14-.2.18-.45.11-.69 -.08-.24-.26-.42-.5-.49l-1.5-.47 -.91-1.28Z"/></g></svg>