<svg viewBox="0 0 24 24" xmlns="http://www.w3.org/2000/svg"><g fill="#FF884D" fill-rule="evenodd"><path d="M9.66 1.25c.41 0 .74.33.74.75v2.85c0 .41-.34.75-.75.75 -.42 0-.75-.34-.75-.75V1.99c0-.42.33-.75.75-.75Z"/><path d="M4.37 2.89c.29-.3.76-.3 1.06 0l2.02 2.02c.29.29.29.76 0 1.06 -.3.29-.77.29-1.07 0L4.35 3.94c-.3-.3-.3-.77 0-1.07Z"/><path d="M15.07 2.89c-.3-.3-.77-.3-1.07 0l-2.03 2.02c-.07.06-.12.13-.16.21l-.03.05c-.18.37-.02.82.36.99 .34.16.75.03.95-.29l1.93-1.94c.29-.3.29-.77 0-1.07Z"/><path d="M7.57 10.99c-.3-.3-.77-.3-1.07 0l-2.03 2.02c-.3.29-.3.76 0 1.06 .29.29.76.29 1.06 0l2.02-2.03c.29-.3.29-.77 0-1.07Z"/><path d="M2.25 8.66c0-.42.33-.75.75-.75h2.85c.41 0 .75.33.75.75 0 .41-.34.75-.75.75H2.99c-.42 0-.75-.34-.75-.75Z"/><path fill="#FFC44D" d="M9.66 4.1C7.14 4.1 5.1 6.14 5.1 8.65c0 2.32 1.74 4.24 3.99 4.52l.04 0h.04 4.16 .75v-.75 -4.74 -.1l-.03-.1c-.51-1.97-2.3-3.43-4.42-3.43Z"/><g fill="#8B98A6"><path d="M12.52 16.01c-1.21 0-2.18.97-2.18 2.17s.97 2.17 2.17 2.17 2.17-.98 2.17-2.18c0-1.21-.98-2.18-2.18-2.18Z"/><path d="M17.28 18.39c-1.21 0-2.18.97-2.18 2.17s.97 2.17 2.17 2.17 2.17-.98 2.17-2.18c0-1.21-.98-2.18-2.18-2.18Z"/></g><path fill="#ECEFF1" d="M14.36 6.96c-2.08 0-3.86 1.46-4.112 3.43 -1.03.29-1.82 1.18-1.82 2.31 0 1.38 1.18 2.41 2.53 2.41h1.07 6.07c.36 0 .71-.08 1.03-.21 1.27-.46 2.21-1.63 2.21-3.05 0-1.85-1.59-3.26-3.43-3.26 -.06 0-.12 0-.18 0 -.76-1.03-2.01-1.68-3.4-1.68Z"/></g></svg>