<svg viewBox="0 0 24 24" xmlns="http://www.w3.org/2000/svg"><g fill="#ECEFF1" fill-rule="evenodd"><path d="M11.06 1.25c-3.54 0-6.48 2.65-6.68 6.06 -1.77.33-3.14 1.83-3.14 3.68 0 2.09 1.76 3.75 3.875 3.75H6.99h10.62c.57 0 1.11-.12 1.6-.34 2.04-.75 3.52-2.65 3.52-4.92 0-2.93-2.47-5.25-5.44-5.25 -.2 0-.39 0-.58.02 -1.19-1.83-3.29-3.03-5.68-3.03Z"/><g fill="#A2ADB8"><path d="M6.5 15.75c-1.25 0-2.25 1-2.25 2.25 0 1.24 1 2.25 2.25 2.25 1.24 0 2.25-1.01 2.25-2.25 0-1.25-1.01-2.25-2.25-2.25Z"/><path d="M12 18.25c-1.25 0-2.25 1-2.25 2.25 0 1.24 1 2.25 2.25 2.25 1.24 0 2.25-1.01 2.25-2.25 0-1.25-1.01-2.25-2.25-2.25Z"/><path d="M17 15.75c-1.25 0-2.25 1-2.25 2.25 0 1.24 1 2.25 2.25 2.25 1.24 0 2.25-1.01 2.25-2.25 0-1.25-1.01-2.25-2.25-2.25Z"/></g></g></svg>