<svg viewBox="0 0 24 24" xmlns="http://www.w3.org/2000/svg"><g fill="#FFC44D" fill-rule="evenodd"><path d="M9 5.25c-4.29 0-7.75 3.46-7.75 7.75 0 4.28 3.46 7.75 7.75 7.75 3.28 0 6.09-2.05 7.21-4.93 .12-.34 0-.71-.29-.91 -.3-.2-.69-.16-.94.09 -.77.76-1.83 1.23-3 1.23 -2.35 0-4.25-1.91-4.25-4.25 0-2.35 1.9-4.25 4.25-4.25 .19 0 .39.01.58.03 .35.04.68-.16.8-.49 .11-.34-.01-.71-.32-.9 -1.19-.74-2.59-1.16-4.08-1.16Z"/><path fill="#71D0FF" d="M18.61 3.06c-.15-.2-.37-.32-.62-.32s-.48.11-.62.31l-.93 1.31 -1.54.47c-.24.07-.42.25-.5.48 -.08.23-.04.48.11.68l.96 1.28 -.02 1.6c-.01.24.11.47.3.61s.45.18.68.1l1.52-.52 1.52.51c.23.07.48.03.68-.11 .19-.15.31-.38.3-.62l-.02-1.61 .96-1.29c.14-.2.18-.45.11-.69 -.08-.24-.26-.42-.5-.49l-1.54-.48 -.93-1.32Z"/></g></svg>