<svg viewBox="0 0 24 24" xmlns="http://www.w3.org/2000/svg"><g fill="#FFC44D" fill-rule="evenodd"><path d="M16.6 3.19c-3.65 0-6.6 2.95-6.6 6.59 0 .18 0 .36.02.54 0 .11.04.22.1.32l2.59 4.38c.05.09.13.18.23.24 1.04.69 2.29 1.09 3.64 1.09 2.74 0 5.09-1.68 6.08-4.06 .12-.3.04-.65-.2-.86 -.25-.22-.6-.25-.88-.08 -.62.36-1.33.56-2.1.56 -.14 0-.28-.01-.42-.03 -2.09-.21-3.71-1.97-3.71-4.1 0-1.35.64-2.55 1.64-3.3 .25-.2.36-.54.26-.84 -.11-.31-.39-.52-.72-.52Z"/><path fill="#ECEFF1" d="M7.29 8.06c-2.12 0-3.94 1.49-4.19 3.5 -1.05.29-1.86 1.2-1.86 2.35 0 1.4 1.2 2.45 2.57 2.45H4.9h6.2c.37 0 .72-.08 1.04-.22 1.29-.47 2.25-1.66 2.25-3.1 0-1.88-1.62-3.31-3.49-3.31 -.07 0-.13 0-.19 0 -.77-1.05-2.05-1.71-3.47-1.71Z"/><path fill="#4DC4FF" d="M20.62 17.62c.24.33.16.8-.18 1.04l-2.03 1.44c-1.1.78-2.6.65-3.55-.3l-.31-.31c-.49-.49-1.28-.49-1.77 0l-.2.19c-1.02 1.01-2.65 1.07-3.74.14l-.72-.62c-.47-.4-1.15-.41-1.62-.02l-1.63 1.35c-.32.26-.8.22-1.06-.1 -.27-.32-.23-.8.09-1.06l1.62-1.36c1.03-.86 2.53-.85 3.55.02l.71.61c.49.42 1.23.39 1.69-.07l.19-.2c1.07-1.08 2.81-1.08 3.88 0l.3.3c.43.43 1.11.48 1.61.13l2.02-1.45c.33-.25.8-.17 1.04.17Z"/></g></svg>