<svg viewBox="0 0 24 24" xmlns="http://www.w3.org/2000/svg"><g fill="#ECEFF1" fill-rule="evenodd"><path d="M9.81 1.25c2.48 0 4.61 1.85 4.61 4.28 0 .06-.01.13-.01.2v3.7c0 .41-.34.75-.75.75h-3.55 -4.6c-.41 0-.79-.08-1.14-.23 -1.41-.5-2.47-1.77-2.47-3.32 -.001-2.02 1.76-3.55 3.8-3.55 .08 0 .17 0 .25 0 .84-1.15 2.24-1.87 3.81-1.87Z"/><path fill="#A2ADB8" d="M14.18 4.97c-2.33 0-4.34 1.61-4.59 3.81 -1.16.29-2.07 1.26-2.07 2.52 0 1.5 1.31 2.61 2.78 2.61h1.221 6.91c.4 0 .78-.08 1.13-.23 1.4-.5 2.46-1.77 2.46-3.32 0-2.02-1.77-3.55-3.81-3.55 -.09 0-.18 0-.26 0 -.84-1.15-2.25-1.87-3.82-1.87Z"/><g fill="#4DC4FF"><path d="M20.05 15.05c.24.33.16.8-.18 1.04l-1.88 1.34c-1.1.78-2.6.65-3.55-.3l-.18-.18c-.49-.49-1.28-.49-1.77 0l-.07.06c-1.02 1.01-2.65 1.07-3.74.14l-.57-.49c-.47-.4-1.15-.41-1.62-.02l-1.5 1.24c-.32.26-.8.22-1.06-.1 -.27-.32-.23-.8.09-1.06l1.49-1.25c1.03-.86 2.53-.85 3.55.02l.56.48c.49.42 1.23.39 1.69-.07l.06-.07c1.07-1.08 2.81-1.08 3.88 0l.17.17c.43.43 1.11.48 1.61.13l1.87-1.35c.33-.25.8-.17 1.04.17Z"/><path d="M20.05 19.23c.24.33.16.8-.18 1.04l-1.88 1.34c-1.1.78-2.6.65-3.55-.3l-.18-.18c-.49-.49-1.28-.49-1.77 0l-.07.06c-1.02 1.01-2.65 1.07-3.74.14l-.57-.49c-.47-.4-1.15-.41-1.62-.02l-1.5 1.24c-.32.26-.8.22-1.06-.1 -.27-.32-.23-.8.09-1.06l1.49-1.25c1.03-.86 2.53-.85 3.55.02l.56.48c.49.42 1.23.39 1.69-.07l.06-.07c1.07-1.08 2.81-1.08 3.88 0l.17.17c.43.43 1.11.48 1.61.13l1.87-1.35c.33-.25.8-.17 1.04.17Z"/></g></g></svg>