<svg viewBox="0 0 24 24" xmlns="http://www.w3.org/2000/svg"><g fill="#FFC44D" fill-rule="evenodd"><path d="M13.86 2.45c-4.6 0-8.44 3.2-9.42 7.5 -.03.09-.03.19-.01.28l1.06 6.57c.01.09.04.18.09.26 1.68 2.79 4.75 4.65 8.26 4.65 3.93 0 7.31-2.36 8.81-5.73 .15-.34.03-.74-.28-.94 -.32-.21-.73-.15-.97.13 -1.14 1.26-2.776 2.06-4.61 2.06 -1.45 0-2.78-.5-3.84-1.34l-2.31-5.455c.3-3.12 2.94-5.56 6.14-5.56 .41 0 .82.04 1.218.11 .36.07.72-.13.85-.48 .12-.35-.02-.74-.34-.92 -1.4-.78-3-1.22-4.7-1.22Z"/><path fill="#ECEFF1" d="M7.37 8.87c-2.15 0-4 1.51-4.25 3.55 -1.07.29-1.89 1.21-1.89 2.38 0 1.41 1.21 2.48 2.6 2.48h1.11 6.3c.37 0 .73-.08 1.05-.22 1.3-.47 2.28-1.68 2.28-3.14 0-1.9-1.64-3.35-3.54-3.35 -.07 0-.14 0-.2 0 -.78-1.06-2.08-1.74-3.52-1.74Z"/></g></svg>