<svg viewBox="0 0 24 24" xmlns="http://www.w3.org/2000/svg"><g fill="#FF884D" fill-rule="evenodd"><path d="M11.09 2.06c.41 0 .75.33.75.75v2.27c0 .41-.34.75-.75.75 -.42 0-.75-.34-.75-.75V2.8c0-.42.33-.75.75-.75Z"/><path d="M1.25 11.9c0-.42.33-.75.75-.75h2.27c.41 0 .75.33.75.75 0 .41-.34.75-.75.75H1.99c-.42 0-.75-.34-.75-.75Z"/><path d="M11.09 17.97c.41 0 .75.33.75.75v2.27c0 .41-.34.75-.75.75 -.42 0-.75-.34-.75-.75v-2.28c0-.42.33-.75.75-.75Z"/><path d="M4.13 4.95c.29-.3.76-.3 1.06 0l1.6 1.6c.29.29.29.76 0 1.06 -.3.29-.77.29-1.07 0L4.11 6c-.3-.3-.3-.77 0-1.07Z"/><path d="M18.04 4.95c-.3-.3-.77-.3-1.07 0l-1.61 1.6c-.3.29-.3.76 0 1.06 .29.29.76.29 1.06 0L18.02 6c.29-.3.29-.77 0-1.07Z"/><path d="M6.79 16.2c-.3-.3-.77-.3-1.07 0l-1.61 1.6c-.3.29-.3.76 0 1.06 .29.29.76.29 1.06 0l1.6-1.61c.29-.3.29-.77 0-1.07Z"/><path fill="#FFC44D" d="M11.09 6.61c-2.93 0-5.3 2.37-5.3 5.29s2.37 5.29 5.29 5.29h.45 3.88c.41 0 .75-.34.75-.75v-5.91c0-.08-.02-.16-.04-.23 -.68-2.15-2.69-3.71-5.06-3.71Z"/><path fill="#ECEFF1" d="M16.03 9.79c-1.99 0-3.71 1.39-3.96 3.28 -.99.28-1.74 1.15-1.74 2.23 0 1.34 1.14 2.34 2.45 2.34h1.02 5.79c.35 0 .68-.08.99-.21 1.22-.44 2.14-1.57 2.14-2.94 0-1.78-1.54-3.14-3.31-3.14 -.06 0-.11 0-.16 0 -.73-.98-1.93-1.6-3.26-1.6Z"/></g></svg>