<svg viewBox="0 0 24 24" xmlns="http://www.w3.org/2000/svg"><g fill="#FFC44D" fill-rule="evenodd"><path d="M15.93 6.13c-4.01 0-7.26 3.24-7.26 7.25 0 .12.02.24.08.34l2.78 5.33c.05.1.13.19.23.26 1.17.81 2.6 1.3 4.14 1.3 3.07 0 5.7-1.92 6.75-4.62 .12-.34 0-.71-.29-.91 -.3-.2-.69-.16-.94.09 -.71.69-1.68 1.13-2.75 1.13 -2.16 0-3.9-1.75-3.9-3.9 0-2.16 1.74-3.9 3.89-3.9 .18 0 .35.01.53.03 .35.04.68-.16.8-.49 .11-.34-.01-.71-.32-.9 -1.11-.69-2.42-1.09-3.82-1.09Z"/><path fill="#ECEFF1" d="M7.05 11.71c-2.03 0-3.78 1.42-4.03 3.35 -1.01.28-1.78 1.16-1.78 2.27 0 1.36 1.16 2.37 2.49 2.37h1.04 5.92c.35 0 .7-.08 1.01-.21 1.24-.45 2.17-1.6 2.17-2.99 0-1.81-1.56-3.19-3.37-3.19 -.06 0-.11 0-.17 0 -.75-1-1.97-1.63-3.33-1.63Z"/><path fill="#71D0FF" d="M6.32 3.66c-.15-.2-.37-.32-.62-.32s-.48.11-.62.31l-.86 1.2 -1.41.43c-.24.07-.42.25-.5.48 -.08.23-.04.48.11.68l.88 1.18 -.02 1.47c-.01.24.11.47.3.61s.45.18.68.1l1.39-.48 1.39.47c.23.07.48.03.68-.11 .19-.15.31-.38.3-.62L8 7.58l.88-1.19c.14-.2.18-.45.11-.69 -.08-.24-.26-.42-.5-.49l-1.41-.44 -.86-1.21Z"/></g></svg>