<svg viewBox="0 0 24 24" xmlns="http://www.w3.org/2000/svg"><g fill="#4DC4FF" fill-rule="evenodd"><path d="M7.33 15.32c.37.18.52.63.33 1l-2 4c-.19.37-.64.52-1.01.33 -.38-.19-.53-.64-.34-1.01l2-4c.18-.38.63-.53 1-.34Z"/><path d="M10.83 15.32c.37.18.52.63.33 1l-2 4c-.19.37-.64.52-1.01.33 -.38-.19-.53-.64-.34-1.01l2-4c.18-.38.63-.53 1-.34Z"/><path d="M14.33 15.32c.37.18.52.63.33 1l-2 4c-.19.37-.64.52-1.01.33 -.38-.19-.53-.64-.34-1.01l2-4c.18-.38.63-.53 1-.34Z"/><path d="M17.83 15.32c.37.18.52.63.33 1l-2 4c-.19.37-.64.52-1.01.33 -.38-.19-.53-.64-.34-1.01l2-4c.18-.38.63-.53 1-.34Z"/><path fill="#ECEFF1" d="M11.06 3.25c-3.54 0-6.48 2.65-6.68 6.06 -1.77.33-3.14 1.83-3.14 3.68 0 2.09 1.76 3.75 3.875 3.75H6.99h10.62c.57 0 1.11-.12 1.6-.34 2.04-.75 3.52-2.65 3.52-4.92 0-2.93-2.47-5.25-5.44-5.25 -.2 0-.39 0-.58.02 -1.19-1.83-3.29-3.03-5.68-3.03Z"/></g></svg>