<svg viewBox="0 0 24 24" xmlns="http://www.w3.org/2000/svg"><g fill="#FF884D" fill-rule="evenodd"><path d="M9.51 1.25c.41 0 .74.33.74.75v2.79c0 .41-.34.75-.75.75 -.42 0-.75-.34-.75-.75v-2.8c0-.42.33-.75.75-.75Z"/><path d="M4.33 2.86c.29-.3.76-.3 1.06 0l1.97 1.97c.29.29.29.76 0 1.06 -.3.29-.77.29-1.07 0L4.31 3.91c-.3-.3-.3-.77 0-1.07Z"/><path d="M14.8 2.86c-.3-.3-.77-.3-1.07 0l-1.98 1.97 -.17.16c-.3.29-.3.76-.01 1.06 .29.29.76.29 1.06 0l.17-.17 1.97-1.98c.29-.3.29-.77 0-1.07Z"/><path d="M7.47 10.772c-.3-.3-.77-.3-1.07 0l-1.98 1.97c-.3.29-.3.76 0 1.06 .29.29.76.29 1.06 0l1.97-1.98c.29-.3.29-.77 0-1.07Z"/><path d="M2.25 8.51c0-.42.33-.75.75-.75h2.79c.41 0 .75.33.75.75 0 .41-.34.75-.75.75h-2.8c-.42 0-.75-.34-.75-.75Z"/><path fill="#FFC44D" d="M9.51 4.04c-2.47 0-4.48 2-4.48 4.47 0 2.28 1.7 4.16 3.91 4.43l.04 0h.04 4.06 .75v-.75 -4.63 -.1l-.03-.1C13.3 5.43 11.55 4 9.46 4Z"/><g fill="#8B98A6"><path d="M10.9 17.16c-.36 0-.65.28-.65.64 0 .35.28.64.64.64h6.97c.41 0 .75.33.75.75 0 .41-.34.75-.75.75h-6.98c-1.19 0-2.15-.97-2.15-2.15 0-1.19.96-2.15 2.14-2.15h.46c.41 0 .75.33.75.75 0 .41-.34.75-.75.75h-.47Z"/><path d="M14.16 21.25c-.36 0-.65-.29-.65-.65 0-.36.28-.65.64-.65h4.186c.41 0 .75-.34.75-.75 0-.42-.34-.75-.75-.75H14.15c-1.19 0-2.15.96-2.15 2.14 0 1.18.96 2.14 2.14 2.14h.46c.41 0 .75-.34.75-.75 0-.42-.34-.75-.75-.75h-.47Z"/></g><path fill="#ECEFF1" d="M14.1 6.83c-2.03 0-3.78 1.42-4.04 3.35 -1.01.28-1.78 1.16-1.78 2.27 0 1.36 1.16 2.37 2.49 2.37h1.04 5.93c.35 0 .7-.08 1.01-.21 1.24-.45 2.17-1.6 2.17-2.99 0-1.82-1.56-3.2-3.37-3.2 -.06 0-.11 0-.17 0 -.75-1-1.97-1.64-3.33-1.64Z"/></g></svg>