<svg viewBox="0 0 24 24" xmlns="http://www.w3.org/2000/svg"><g fill="#FF884D" fill-rule="evenodd"><path d="M9.75 2c.41 0 .75.33.75.75v3c0 .41-.34.75-.75.75 -.42 0-.75-.34-.75-.75v-3c0-.42.33-.75.75-.75Z"/><path d="M4.21 3.71c.29-.3.76-.3 1.06 0l2.12 2.12c.29.29.29.76 0 1.06 -.3.29-.77.29-1.07 0L4.19 4.76c-.3-.3-.3-.77 0-1.07Z"/><path d="M15.4 3.71c-.3-.3-.77-.3-1.07 0l-2.14 2.13 -.31.31c-.29.29-.29.77.01 1.06 .29.28.77.28 1.06-.02l.3-.32 2.11-2.12c.29-.3.29-.77 0-1.07Z"/><path d="M7.52 12.21c-.3-.3-.77-.3-1.07 0l-2.13 2.12c-.3.29-.3.76 0 1.06 .29.29.76.29 1.06 0l2.12-2.13c.29-.3.29-.77 0-1.07Z"/><path d="M2 9.75c0-.42.33-.75.75-.75h3c.41 0 .75.33.75.75 0 .41-.34.75-.75.75h-3c-.42 0-.75-.34-.75-.75Z"/><path fill="#FFC44D" d="M9.75 5C7.12 5 5 7.12 5 9.75c0 2.42 1.81 4.42 4.15 4.71l.04 0h.04 4.37 .75v-.75 -4.97 -.1l-.03-.1c-.53-2.05-2.39-3.57-4.61-3.57Z"/><g fill="#4DC4FF"><path d="M11.98 17.53c.39.13.6.55.47.94l-1 3c-.14.39-.56.6-.95.47 -.4-.14-.61-.56-.48-.95l1-3c.13-.4.55-.61.94-.48Z"/><path d="M15.48 17.53c.39.13.6.55.47.94l-1 3c-.14.39-.56.6-.95.47 -.4-.14-.61-.56-.48-.95l1-3c.13-.4.55-.61.94-.48Z"/><path d="M18.98 17.53c.39.13.6.55.47.94l-1 3c-.14.39-.56.6-.95.47 -.4-.14-.61-.56-.48-.95l1-3c.13-.4.55-.61.94-.48Z"/></g><path fill="#ECEFF1" d="M14.68 8c-2.17 0-4.04 1.53-4.29 3.59 -1.08.29-1.904 1.22-1.904 2.4 0 1.42 1.22 2.5 2.625 2.5h1.125 6.375c.37 0 .74-.08 1.06-.22 1.32-.48 2.3-1.69 2.3-3.16 0-1.92-1.65-3.375-3.57-3.375 -.07 0-.14 0-.21 0 -.79-1.08-2.1-1.76-3.55-1.76Z"/></g></svg>