<svg viewBox="0 0 24 24" xmlns="http://www.w3.org/2000/svg"><g fill="#FF884D" fill-rule="evenodd"><path d="M9.81 1.25c.41 0 .74.33.74.75v2.92c0 .41-.34.75-.75.75 -.42 0-.75-.34-.75-.75V1.99c0-.42.33-.75.75-.75Z"/><path d="M4.4 2.93c.29-.3.76-.3 1.06 0l2.06 2.06c.29.29.29.76 0 1.06 -.3.29-.77.29-1.07 0L4.38 3.98c-.3-.3-.3-.77 0-1.07Z"/><path d="M15.34 2.93c-.3-.3-.77-.3-1.07 0L12.19 5l-.26.26c-.3.29-.29.76 0 1.06 .29.29.76.28 1.06-.01l.25-.26 2.06-2.07c.29-.3.29-.77 0-1.07Z"/><path d="M7.65 11.22c-.3-.3-.77-.3-1.07 0l-2.07 2.06c-.3.29-.3.76 0 1.06 .29.29.76.29 1.06 0l2.06-2.07c.29-.3.29-.77 0-1.07Z"/><path d="M2.23 8.82c0-.42.33-.75.75-.75H5.9c.41 0 .75.33.75.75 0 .41-.34.75-.75.75H2.97c-.42 0-.75-.34-.75-.75Z"/><path fill="#FFC44D" d="M9.81 4.17c-2.57 0-4.66 2.08-4.66 4.65 0 2.37 1.77 4.33 4.07 4.61l.04 0h.04 4.26 .75v-.75 -4.85 -.1l-.03-.1c-.52-2.01-2.34-3.49-4.51-3.49Z"/><g fill="#8B98A6"><path d="M3.96 16.89c-.4 0-.72.31-.72.71 0 .39.31.71.71.71h7.31c.41 0 .75.33.75.75 0 .41-.34.75-.75.75H3.94c-1.23 0-2.22-1-2.22-2.22 0-1.23.99-2.22 2.21-2.22h.48c.41 0 .75.33.75.75 0 .41-.34.75-.75.75h-.49Z"/><path d="M7.37 21.25c-.4 0-.72-.32-.72-.72 0-.4.31-.72.71-.72h4.39c.41 0 .75-.34.75-.75 0-.42-.34-.75-.75-.75h-4.4c-1.23 0-2.22.99-2.22 2.21s.99 2.21 2.21 2.21h.48c.41 0 .75-.34.75-.75 0-.42-.34-.75-.75-.75h-.49Z"/></g><g fill="#4DC4FF"><path d="M14.69 16.85c.41 0 .75.33.75.75v2.92c0 .41-.34.75-.75.75 -.42 0-.75-.34-.75-.75v-2.93c0-.42.33-.75.75-.75Z"/><path d="M17.62 16.85c.41 0 .75.33.75.75v2.92c0 .41-.34.75-.75.75 -.42 0-.75-.34-.75-.75v-2.93c0-.42.33-.75.75-.75Z"/><path d="M20.54 16.85c.41 0 .75.33.75.75v2.92c0 .41-.34.75-.75.75 -.42 0-.75-.34-.75-.75v-2.93c0-.42.33-.75.75-.75Z"/></g><path fill="#ECEFF1" d="M14.63 7.1c-2.12 0-3.95 1.49-4.2 3.51 -1.05.29-1.86 1.2-1.86 2.359 0 1.4 1.2 2.45 2.57 2.45h1.09 6.21c.37 0 .72-.08 1.04-.22 1.29-.47 2.26-1.654 2.26-3.1 0-1.88-1.62-3.32-3.5-3.32 -.07 0-.13 0-.19 0 -.77-1.05-2.05-1.72-3.47-1.72Z"/></g></svg>