<svg viewBox="0 0 24 24" xmlns="http://www.w3.org/2000/svg"><g fill="#FFC44D" fill-rule="evenodd"><path d="M11.99 8.36c-2.05 0-3.83 1.1-4.774 2.75 -.07.11-.11.24-.11.37v4.5c0 .41.33.75.75.75h8.88c.41 0 .75-.34.75-.75v-2.12c0-3.05-2.47-5.52-5.52-5.52Z"/><path fill="#8B98A6" d="M6.81 9.54c-.18-.18-.43-.26-.67-.21 -.25.04-.45.2-.55.42L1.3 19.27c-.11.23-.09.5.05.71 .13.21.37.34.62.34h20c.25 0 .5-.14.63-.36 .13-.23.14-.5.03-.73l-3.34-6.67c-.18-.36-.61-.52-.97-.36l-6.2 2.65 -5.36-5.36Z"/><g fill="#FF884D"><path d="M12 2.65c.41 0 .75.33.75.75v2.85c0 .41-.34.75-.75.75 -.42 0-.75-.34-.75-.75V3.39c0-.42.33-.75.75-.75Z"/><path d="M4.32 5.67c.29-.3.76-.3 1.06 0L7.4 7.69c.29.29.29.76 0 1.06 -.3.29-.77.29-1.07 0L4.3 6.72c-.3-.3-.3-.77 0-1.07Z"/><path d="M19.84 5.73c-.3-.3-.77-.3-1.07 0l-2.03 2.02c-.3.29-.3.76 0 1.06 .29.29.76.29 1.06 0l2.02-2.03c.29-.3.29-.77 0-1.07Z"/></g></g></svg>