<svg viewBox="0 0 24 24" xmlns="http://www.w3.org/2000/svg"><g fill="#FFC44D" fill-rule="evenodd"><path d="M12 7.25c-3.18 0-5.75 2.57-5.75 5.75 0 .41.33.75.75.75h10c.41 0 .75-.34.75-.75 0-3.18-2.58-5.75-5.75-5.75Z"/><g fill="#8B98A6"><path d="M1.25 13c0-.42.33-.75.75-.75h20c.41 0 .75.33.75.75 0 .41-.34.75-.75.75H2c-.42 0-.75-.34-.75-.75Z"/><path d="M3.75 17c0-.42.33-.75.75-.75h15c.41 0 .75.33.75.75 0 .41-.34.75-.75.75h-15c-.42 0-.75-.34-.75-.75Z"/><path d="M6.25 21c0-.42.33-.75.75-.75h10c.41 0 .75.33.75.75 0 .41-.34.75-.75.75H7c-.42 0-.75-.34-.75-.75Z"/></g><g fill="#FF884D"><path d="M12 1.75c.41 0 .75.33.75.75v3c0 .41-.34.75-.75.75 -.42 0-.75-.34-.75-.75v-3c0-.42.33-.75.75-.75Z"/><path d="M3.9 4.9c.29-.3.76-.3 1.06 0l2.12 2.12c.29.29.29.76 0 1.06 -.3.29-.77.29-1.07 0L3.88 5.95c-.3-.3-.3-.77 0-1.07Z"/><path d="M20.15 4.96c-.3-.3-.77-.3-1.07 0l-2.13 2.12c-.3.29-.3.76 0 1.06 .29.29.76.29 1.06 0l2.12-2.13c.29-.3.29-.77 0-1.07Z"/></g></g></svg>