<svg viewBox="0 0 24 24" xmlns="http://www.w3.org/2000/svg"><g fill="#EE4D4D" fill-rule="evenodd"><path d="M8.87 3.63c-.22-.04-.44.02-.61.17 -.17.14-.27.35-.27.56v7.61c0 .21.09.42.26.56 .16.14.38.2.6.17l12.38-1.91c.36-.06.63-.38.63-.75V6.23c0-.38-.28-.69-.64-.75L8.83 3.57Z"/><path fill="#F17171" d="M9.51 4.38c0-.29-.17-.56-.43-.68 -.26-.13-.57-.09-.8.09l-4.77 3.8c-.18.14-.29.35-.29.58 0 .22.1.44.28.58l4.76 3.8c.22.18.53.21.79.09 .25-.13.42-.39.42-.68V4.34Z"/><path fill="#A2ADB8" d="M4 1.25c.41 0 .75.33.75.75v20c0 .41-.34.75-.75.75 -.42 0-.75-.34-.75-.75V2c0-.42.33-.75.75-.75Z"/></g></svg>