<svg viewBox="0 0 24 24" xmlns="http://www.w3.org/2000/svg"><g fill-rule="evenodd"><path d="M7 9c0-2.77 2.23-5 5-5 2.76 0 5 2.23 5 5v6c0 2.76-2.24 5-5 5 -2.77 0-5-2.24-5-5V9Zm5-3c-1.66 0-3 1.34-3 3v6c0 1.65 1.34 3 3 3 1.65 0 3-1.35 3-3V9c0-1.66-1.35-3-3-3Z"/><path d="M12 1C9.79 1 8 2.79 8 5v1 .5h1V7h6v-.5h1V6 5c0-2.21-1.8-4-4-4Z"/><path d="M15 8c0-.56.44-1 1-1h2.5c2.48 0 4.5 2.01 4.5 4.5v.5c0 2.2-1.8 4-4 4 -2.21 0-4-1.8-4-4V8Zm2 1v3c0 1.1.89 2 2 2 1.1 0 2-.9 2-2v-.5c0-1.39-1.12-2.5-2.5-2.5H17Z"/><path d="M9 8c0-.56-.45-1-1-1H5.5C3.01 7 1 9.01 1 11.5v.5c0 2.2 1.79 4 4 4 2.2 0 4-1.8 4-4V8ZM7 9v3c0 1.1-.9 2-2 2 -1.11 0-2-.9-2-2v-.5C3 10.11 4.11 9 5.5 9H7Z"/><path d="M11 22v-3h2v3h-2Z"/><path d="M7 9c0-2.77 2.23-5 5-5 2.76 0 5 2.23 5 5v6c0 2.76-2.24 5-5 5 -2.77 0-5-2.24-5-5V9Zm1-2v2h8V7H8Zm0 6v-2h8v2H8Zm0 2v2h8v-2H8Z"/></g></svg>