<svg viewBox="0 0 24 24" xmlns="http://www.w3.org/2000/svg"><g fill-rule="evenodd"><path d="M10 4C7.79 4 6 5.79 6 8c0 1.86 1.28 3.43 3.01 3.878C9.2 14.178 11.13 16 13.49 16c1.56 0 2.93-.8 3.74-2h4.75c.44 0 .83-.3.95-.72 .12-.43-.05-.89-.42-1.13l-8.89-5.78C13 4.96 11.59 3.98 9.95 3.98Z"/><path d="M4.29 9.29l2-2L7.7 8.7l-.3.29h.08v2h-2.5c-.41 0-.77-.25-.93-.62 -.16-.38-.07-.81.21-1.09Z"/><path d="M12 19v-4h2v4h-2Z"/><path d="M4.99 11c-.24 0-.45.13-.55.33l-1.56 3.11 -1.79-.9 1.55-3.12c.44-.89 1.34-1.45 2.33-1.45 1.66 0 2.9 1.54 2.54 3.17l-.33 1.45c-.11.45-.03.92.21 1.31l.92 1.54 -1.72 1.029 -.93-1.55c-.51-.84-.67-1.84-.46-2.79l.32-1.46c.08-.39-.21-.75-.6-.75Z"/><path d="M15 20h-4v-2h4v2Z"/></g></svg>