<svg viewBox="0 0 24 24" xmlns="http://www.w3.org/2000/svg"><g fill-rule="evenodd"><path d="M12 1c-1.79 0-3.65 1.08-5.08 2.63C5.46 5.2 4.32 7.4 4.05 9.88c-.04.36.12.72.42.93 .3.2.69.23 1.02.06l2.49-1.28 3.54 1.77c.31.15.68.13.97-.05l3.44-2.16 2.407 1.63c.32.21.74.23 1.07.02 .33-.21.52-.577.47-.97 -.27-2.49-1.42-4.69-2.87-6.26C15.56 2.01 13.7.93 11.92.93Z"/><path d="M8.44 10.6c-.36-.18-.79-.13-1.09.12l-2.99 2.5c-.24.19-.37.49-.36.79 .07 2.29.42 4.54 1.63 6.23 1.26 1.76 3.32 2.73 6.34 2.73s5.08-.97 6.34-2.74c1.21-1.7 1.56-3.95 1.63-6.24 0-.31-.13-.61-.36-.8l-2.99-2.5c-.31-.26-.74-.31-1.09-.13l-3.56 1.77 -3.56-1.78Z"/></g></svg>