<svg viewBox="0 0 24 24" xmlns="http://www.w3.org/2000/svg"><g fill-rule="evenodd"><path d="M3 8h2v2H3V8Z"/><path d="M4 9c0-2.77 2.23-5 5-5 2.76 0 5 2.23 5 5 0 2.76-2.24 5-5 5 -2.77 0-5-2.24-5-5Zm4.5-2h-1v2h1V7Z"/><path d="M22 10.61c0-1.49-1.57-2.46-2.9-1.79l-.71.35c-.42.2-.88.31-1.35.31h-3.78c-.24 0-.48.01-.71.05l-6.36.9c-.49.06-.93.32-1.24.7 -1.29 1.6-1.46 3.83-.44 5.61 -.08.04-.15.08-.23.13l-1.9 1.26 1.1 1.66 1.89-1.27c.19-.13.42-.19.64-.17 .16.01.31.06.46.16l.78.52c1 .67 2.32.67 3.32 0l.78-.53c.33-.23.77-.23 1.1 0l.78.52c1 .67 2.32.67 3.32 0l.78-.53c.22-.15.48-.2.73-.16 .13.02.25.07.37.15l1.89 1.26 1.1-1.67 -1.45-.97 .3-.29c1-.95 1.58-2.266 1.58-3.65v-2.65Z"/></g></svg>