<svg viewBox="0 0 24 24" xmlns="http://www.w3.org/2000/svg"><g fill-rule="evenodd"><path d="M2 10c-.56 0-1 .44-1 1 0 6.07 4.92 11 11 11 6.07 0 11-4.93 11-11 0-.56-.45-1-1-1 -.56 0-1 .44-1 1 0 3.03-2.47 5.5-5.5 5.5 -3.04 0-5.5-2.47-5.5-5.5 0-.56-.45-1-1-1H2Z"/><path d="M15.93 12h6.06v-2h-7c-.56 0-1 .44-1 1 0 1.94-1.01 3.657-2.54 4.63l1.07 1.68c1.81-1.17 3.09-3.09 3.39-5.33Z"/><path d="M18.49 6c.28 0 .56.12.75.34l3.5 4 -1.51 1.31 -2.75-3.14 -2.75 3.13 -1.51-1.32 3.5-4c.18-.22.46-.35.75-.35Z"/><path d="M5.49 6c.28 0 .56.12.75.34l3.5 4 -1.51 1.31 -2.75-3.14 -2.75 3.13 -1.51-1.32 3.5-4c.18-.22.46-.35.75-.35Z"/><path d="M19.5 3v4h-2V3h2Z"/><path d="M6.5 3v4h-2V3h2Z"/></g></svg>