<svg viewBox="0 0 24 24" xmlns="http://www.w3.org/2000/svg"><g fill-rule="evenodd"><path d="M5.7 4.29c-.4-.4-1.03-.4-1.42 0l-2 2c-.19.18-.3.44-.3.7v12c0 .55.44 1 1 1h4c.55 0 1-.45 1-1v-12c0-.27-.11-.52-.3-.71l-2-2Z"/><path d="M12.7 4.29c-.4-.4-1.03-.4-1.42 0l-2.01 2c-.19.18-.3.44-.3.7v12c0 .55.44 1 1 1h4c.55 0 1-.45 1-1v-12c0-.27-.11-.52-.3-.71l-2-2Z"/><path d="M19.7 4.29c-.4-.4-1.03-.4-1.42 0l-2 2c-.19.18-.3.44-.3.7v12c0 .55.44 1 1 1h4c.55 0 1-.45 1-1v-12c0-.27-.11-.52-.3-.71l-2-2Z"/><path d="M3 11H1.5V9H3v2Z"/><path d="M22.5 11H21V9h1.5v2Z"/><path d="M10 11H7V9h3v2Z"/><path d="M17 11h-3V9h3v2Z"/><path d="M3 17H1.5v-2H3v2Z"/><path d="M22.5 17H21v-2h1.5v2Z"/><path d="M10 17H7v-2h3v2Z"/><path d="M17 17h-3v-2h3v2Z"/></g></svg>