<svg viewBox="0 0 24 24" xmlns="http://www.w3.org/2000/svg"><g fill-rule="evenodd"><path d="M12.7 5.29c-.4-.4-1.03-.4-1.42 0l-5 5c-.29.28-.38.71-.22 1.08 .15.37.51.61.92.61h9.99c.4 0 .76-.25.92-.62 .15-.38.06-.81-.22-1.09l-5-5.01Z"/><path d="M2.19 9.01c-.37-.08-.74.06-.98.35 -.24.28-.29.68-.15 1.02l2.56 5.97 -1.2.79 1.1 1.66 1.89-1.27c.33-.23.77-.23 1.1 0l.78.52c1 .67 2.32.67 3.32 0l.78-.53c.33-.23.77-.23 1.1 0l.78.52c1 .67 2.32.67 3.32 0l.78-.53c.33-.23.77-.23 1.1 0l1.89 1.26 1.1-1.67 -1.2-.8 2.56-5.98c.14-.35.09-.74-.15-1.03 -.24-.29-.61-.43-.98-.36l-9.81 1.96 -9.81-1.97Z"/></g></svg>