<svg viewBox="0 0 24 24" xmlns="http://www.w3.org/2000/svg"><g fill-rule="evenodd"><path d="M22 3H2V1h20v2Z"/><path d="M9.78 11.12l10.39 1.89 -.36 1.96 -11-2c-.37-.07-.68-.34-.78-.7l-3-10 1.91-.58 2.82 9.41Z"/><path d="M6.4 17.35l3.41-4.78 -1.63-1.17 -3.42 4.77 1.62 1.16Z"/><path d="M16.43 8.48l-2.76 3.93 1.63 1.14 2.75-3.94 -1.64-1.15Z"/><path d="M3.26 22.2c-.33-.01-.64-.17-.83-.44 -.76-1.1-.78-2.62-.11-3.89 .66-1.27 1.92-2.12 3.25-2.12 .32 0 .63.16.82.43 .75 1.09.77 2.61.1 3.88 -.67 1.26-1.93 2.11-3.26 2.11Z"/><path d="M19.58 3.63c.32 0 .63.16.82.43 .75 1.09.77 2.61.1 3.88 -.67 1.26-1.93 2.11-3.26 2.11 -.33-.01-.64-.17-.83-.44 -.76-1.1-.78-2.62-.11-3.89 .66-1.27 1.92-2.12 3.25-2.12Z"/><path d="M8.14 13.23c.08.31 0 .65-.22.9 -.88 1-2.35 1.39-3.74 1.06 -1.4-.34-2.53-1.34-2.86-2.64 -.09-.32-.01-.66.21-.91 .87-1.01 2.34-1.4 3.73-1.07 1.39.33 2.52 1.33 2.85 2.63Z"/><path d="M12.44 12.1c-.3-.02-.59.11-.79.33 -.99 1.11-1.05 2.81-.31 4.18 .65 1.21 1.85 2.03 3.13 2.08 .29.01.58-.12.78-.34 .98-1.12 1.04-2.82.3-4.19 -.66-1.22-1.86-2.04-3.14-2.09Z"/></g></svg>