<svg viewBox="0 0 24 24" xmlns="http://www.w3.org/2000/svg"><path fill="#ECEFF1" d="M3 1.25c-.97 0-1.75.78-1.75 1.75v18c0 .96.78 1.75 1.75 1.75h18c.96 0 1.75-.79 1.75-1.75V3c0-.97-.79-1.75-1.75-1.75H3Z"/><path fill="#5E94FF" d="M3 1.25c-.97 0-1.75.78-1.75 1.75v4c0 .41.33.75.75.75h20c.41 0 .75-.34.75-.75V3c0-.97-.79-1.75-1.75-1.75H3Z"/><g fill="#ECEFF1" fill-rule="evenodd"><path d="M3.75 4.5c0-.42.33-.75.75-.75h2c.41 0 .75.33.75.75 0 .41-.34.75-.75.75h-2c-.42 0-.75-.34-.75-.75Z"/><path d="M7.75 4.5c0-.42.33-.75.75-.75h2c.41 0 .75.33.75.75 0 .41-.34.75-.75.75h-2c-.42 0-.75-.34-.75-.75Z"/><path d="M11.75 4.5c0-.42.33-.75.75-.75h2c.41 0 .75.33.75.75 0 .41-.34.75-.75.75h-2c-.42 0-.75-.34-.75-.75Z"/></g><g fill="#EE4D4D"><path d="M7.5 13.25c-.42 0-.75.33-.75.75v5c0 .41.33.75.75.75h3c.41 0 .75-.34.75-.75v-5c0-.42-.34-.75-.75-.75h-3Z"/><path d="M13.5 12.25c-.42 0-.75.33-.75.75v6c0 .41.33.75.75.75h3c.41 0 .75-.34.75-.75v-6c0-.42-.34-.75-.75-.75h-3Z"/></g><path fill="#FFC44D" d="M10.5 10.25c-.42 0-.75.33-.75.75v8c0 .41.33.75.75.75h3c.41 0 .75-.34.75-.75v-8c0-.42-.34-.75-.75-.75h-3Z"/><path fill="#A2ADB8" fill-rule="evenodd" d="M4.75 19c0-.42.33-.75.75-.75h13c.41 0 .75.33.75.75 0 .41-.34.75-.75.75h-13c-.42 0-.75-.34-.75-.75Z"/></svg>