<svg viewBox="0 0 24 24" xmlns="http://www.w3.org/2000/svg"><g fill="#4DC4FF" fill-rule="evenodd"><path d="M5.71 5.71c.29-.3.76-.3 1.06 0l2.82 2.82c.29.29.29.76 0 1.06 -.3.29-.77.29-1.07 0L5.69 6.76c-.3-.3-.3-.77 0-1.07Z"/><path d="M18.087 18.08c.29-.3.29-.77 0-1.07l-2.83-2.83c-.3-.3-.77-.3-1.07 0 -.3.29-.3.76 0 1.06L17 18.06c.29.29.76.29 1.06 0Z"/><path d="M18.08 5.71c-.3-.3-.77-.3-1.07 0l-2.83 2.82c-.3.29-.3.76 0 1.06 .29.29.76.29 1.06 0l2.82-2.83c.29-.3.29-.77 0-1.07Z"/><path d="M5.71 18.08c-.3-.3-.3-.77 0-1.07l2.82-2.83c.29-.3.76-.3 1.06 0 .29.29.29.76 0 1.06l-2.83 2.82c-.3.29-.77.29-1.07 0Z"/></g><g fill="#5E94FF"><path d="M11.89 7.14c-2.63 0-4.75 2.12-4.75 4.74s2.12 4.75 4.74 4.75 4.75-2.13 4.75-4.75c0-2.63-2.13-4.75-4.75-4.75Z"/><path d="M2.88 2.88c-1.08 1.07-1.08 2.81 0 3.88 1.07 1.07 2.81 1.07 3.88 0 1.07-1.08 1.07-2.82 0-3.89 -1.08-1.08-2.82-1.08-3.89 0Z"/><path d="M20.91 20.91c-1.08 1.07-2.82 1.07-3.89 0 -1.08-1.08-1.08-2.82 0-3.89 1.07-1.08 2.81-1.08 3.88 0 1.07 1.07 1.07 2.81 0 3.88Z"/><path d="M20.91 2.88c1.07 1.07 1.07 2.81 0 3.88 -1.08 1.07-2.82 1.07-3.89 0 -1.08-1.08-1.08-2.82 0-3.89 1.07-1.08 2.81-1.08 3.88 0Z"/><path d="M2.88 20.91c1.07 1.07 2.81 1.07 3.88 0 1.07-1.08 1.07-2.82 0-3.89 -1.08-1.08-2.82-1.08-3.89 0 -1.08 1.07-1.08 2.81 0 3.88Z"/></g></svg>