<svg viewBox="0 0 24 24" xmlns="http://www.w3.org/2000/svg"><path fill="#ECEFF1" d="M3 8.46c-.97 0-1.75.78-1.75 1.75v11c0 .96.78 1.75 1.75 1.75h18c.96 0 1.75-.79 1.75-1.75v-11c0-.97-.79-1.76-1.75-1.76H3Z"/><g fill="#FFC44D" fill-rule="evenodd"><path d="M4.75 14.65c0-.9.72-1.62 1.61-1.62h1.63c.41 0 .75.33.75.75 0 .41-.34.75-.75.75H6.35c-.07 0-.12.05-.12.11 0 .03.01.07.05.09l1.22.81c.45.3.72.8.72 1.34 0 .89-.73 1.61-1.62 1.61H4.96c-.42 0-.75-.34-.75-.75 0-.42.33-.75.75-.75h1.63c.06 0 .11-.06.11-.12 0-.04-.02-.08-.06-.1l-1.23-.82c-.46-.31-.73-.81-.73-1.35Z"/><path d="M6.5 17.03c.41 0 .75.33.75.75v2c0 .41-.34.75-.75.75 -.42 0-.75-.34-.75-.75v-2c0-.42.33-.75.75-.75Z"/><path d="M6.5 11.03c.41 0 .75.33.75.75v2c0 .41-.34.75-.75.75 -.42 0-.75-.34-.75-.75v-2c0-.42.33-.75.75-.75Z"/><g fill="#A2ADB8"><path d="M10.25 15.21c0-.42.33-.75.75-.75h8c.41 0 .75.33.75.75 0 .41-.34.75-.75.75h-8c-.42 0-.75-.34-.75-.75Z"/><path d="M10.25 18.21c0-.42.33-.75.75-.75h4c.41 0 .75.33.75.75 0 .41-.34.75-.75.75h-4c-.42 0-.75-.34-.75-.75Z"/></g></g><path fill="#A2ADB8" d="M18.17 2.16c.87.4 1.25 1.44.84 2.32l-2.44 5.21c-.07.13-.17.24-.29.32l-2.32 1.4c-.22.13-.48.14-.71.03 -.23-.11-.39-.32-.43-.57l-.41-2.68c-.03-.15-.01-.3.06-.44l2.43-5.22c.4-.88 1.44-1.26 2.32-.85l.9.42Z"/></svg>