<svg viewBox="0 0 24 24" xmlns="http://www.w3.org/2000/svg"><g fill="#5E94FF" fill-rule="evenodd"><path d="M8.27 3.8c.38.15.57.59.41.97l-1 2.5c-.16.38-.6.57-.98.41 -.39-.16-.58-.6-.42-.98l1-2.5c.15-.39.59-.58.97-.42Z"/><path d="M4.58 3.37c-.35.22-.44.69-.21 1.04l2 3c.22.34.69.43 1.04.2 .34-.23.43-.7.2-1.05l-2-3c-.23-.35-.7-.44-1.05-.21Z"/></g><path fill="#FFD071" d="M20 9.25c.41 0 .75.33.75.75v10c0 .41-.34.75-.75.75h-7c-.42 0-.75-.34-.75-.75V10c0-.42.33-.75.75-.75h7Z"/><g fill="#FFC44D" fill-rule="evenodd"><path d="M20.75 10c0-.42-.34-.75-.75-.75h-7c-.42 0-.75.33-.75.75v10c0 .41.33.75.75.75h7c.41 0 .75-.34.75-.75V10Zm-1.5.75v8.5h-5.5v-8.5h5.5Z"/><path d="M20.75 10c0-.42-.34-.75-.75-.75h-7c-.42 0-.75.33-.75.75v5c0 .41.33.75.75.75h7c.41 0 .75-.34.75-.75v-5Zm-1.5.75v3.5h-5.5v-3.5h5.5Z"/></g><path fill="#CFD8DC" d="M8.5 6.25c.41 0 .75.33.75.75v3c0 .41-.34.75-.75.75H5c-.42 0-.75-.34-.75-.75V7c0-.42.33-.75.75-.75h3.5Z"/><g fill="#FFC44D" fill-rule="evenodd"><path d="M22.75 10c0-.42-.34-.75-.75-.75H2c-.42 0-.75.33-.75.75 0 .41.33.75.75.75h20c.41 0 .75-.34.75-.75Z"/><path d="M4 9.25c-.42 0-.75.33-.75.75v10.2c0 .41.33.75.75.75 .41 0 .75-.34.75-.75V9.99c0-.42-.34-.75-.75-.75Z"/></g></svg>