<svg viewBox="0 0 24 24" xmlns="http://www.w3.org/2000/svg"><g fill="#CFD8DC" fill-rule="evenodd"><path d="M19 3.25c.32 0 .6.2.71.51l3 8.99c.13.39-.09.81-.48.94 -.4.13-.82-.09-.95-.48l-2.29-6.87 -2.29 6.86c-.14.39-.56.6-.95.47 -.4-.14-.61-.56-.48-.95l3-9c.1-.31.38-.52.71-.52Z"/><path d="M5 3.25c.32 0 .6.2.71.51l3 8.99c.13.39-.09.81-.48.94 -.4.13-.82-.09-.95-.48L4.99 6.34 2.7 13.2c-.14.39-.56.6-.95.47 -.4-.14-.61-.56-.48-.95l3-9c.1-.31.38-.52.71-.52Z"/><g fill="#FFC44D"><path d="M2.25 4c0-.42.33-.75.75-.75h18c.41 0 .75.33.75.75 0 .41-.34.75-.75.75H3c-.42 0-.75-.34-.75-.75Z"/><path d="M12 1.25c.41 0 .75.33.75.75v17c0 .41-.34.75-.75.75 -.42 0-.75-.34-.75-.75V2c0-.42.33-.75.75-.75Z"/></g></g><g fill="#FFC44D"><path d="M10 18.25c-1.52 0-2.75 1.23-2.75 2.75v1c0 .41.33.75.75.75h8c.41 0 .75-.34.75-.75v-1c0-1.52-1.24-2.75-2.75-2.75h-4Z"/><path d="M16 12.25c-.42 0-.75.33-.75.75 0 2.07 1.67 3.75 3.75 3.75 2.07 0 3.75-1.68 3.75-3.75 0-.42-.34-.75-.75-.75h-6Z"/><path d="M2 12.25c-.42 0-.75.33-.75.75 0 2.07 1.67 3.75 3.75 3.75 2.07 0 3.75-1.68 3.75-3.75 0-.42-.34-.75-.75-.75H2Z"/></g></svg>