<svg viewBox="0 0 24 24" xmlns="http://www.w3.org/2000/svg"><path fill="#A2D471" d="M2 13.25c-.42 0-.75.33-.75.75v7c0 .96.78 1.75 1.75 1.75h18c.96 0 1.75-.79 1.75-1.75v-7c0-.42-.34-.75-.75-.75H2Z"/><g fill="#8BC94D"><path d="M3 1.25c-.97 0-1.75.78-1.75 1.75v11c0 .41.33.75.75.75h20c.41 0 .75-.34.75-.75V3c0-.97-.79-1.75-1.75-1.75H3Z"/><g fill="#8BC94D" fill-rule="evenodd"><path d="M18.75 16.5c0-.42.33-.75.75-.75h3.25v1.5H19.5c-.42 0-.75-.34-.75-.75Z"/><path d="M1.25 15.75H4.5c.41 0 .75.33.75.75 0 .41-.34.75-.75.75H1.25v-1.5Z"/><path d="M18.75 19.5c0-.42.33-.75.75-.75h3.25v1.5H19.5c-.42 0-.75-.34-.75-.75Z"/><path d="M1.25 18.75H4.5c.41 0 .75.33.75.75 0 .41-.34.75-.75.75H1.25v-1.5Z"/></g></g><g fill="#A2D471"><path d="M3 1.25c-.97 0-1.75.78-1.75 1.75v2c0 .41.33.75.75.75h2c1.51 0 2.75-1.24 2.75-2.75V2c0-.42-.34-.75-.75-.75H3Z"/><path d="M2 10.25c-.42 0-.75.33-.75.75v2c0 1.96-.22 1.75 1.75 1.75h3c.41 0 .75-.34.75-.75v-1c0-1.52-1.24-2.75-2.75-2.75H2Z"/><path d="M18 1.25c-.42 0-.75.33-.75.75v1c0 1.51 1.23 2.75 2.75 2.75h2c.41 0 .75-.34.75-.75V3c0-.97-.79-1.75-1.75-1.75h-3Z"/><path d="M20 10.25c-1.52 0-2.75 1.23-2.75 2.75v1c0 .41.33.75.75.75h3c1.96 0 1.75.21 1.75-1.75v-2c0-.42-.34-.75-.75-.75h-2Z"/><path d="M12 4.25C9.92 4.25 8.25 5.92 8.25 8c0 2.07 1.67 3.75 3.75 3.75 2.07 0 3.75-1.68 3.75-3.75 0-2.08-1.68-3.75-3.75-3.75Z"/></g></svg>