<svg viewBox="0 0 24 24" xmlns="http://www.w3.org/2000/svg"><path fill="#A2ADB8" fill-rule="evenodd" d="M22.69 6.72c.15.38-.04.82-.42.97l-5 2c-.39.15-.83-.04-.98-.42 -.16-.39.03-.83.41-.98l5-2c.38-.16.82.03.97.41Z"/><g fill="#A2ADB8"><path d="M6 11.25c-.42 0-.75.33-.75.75v9c0 .96.78 1.75 1.75 1.75h9c.96 0 1.75-.79 1.75-1.75v-9c0-.42-.34-.75-.75-.75H6Z"/><path d="M3 3.25c-.97 0-1.75.78-1.75 1.75v1.38c0 .66.37 1.26.96 1.56l3.44 1.72c.23.11.5.1.72-.04 .22-.14.35-.38.35-.64v-5c0-.42-.34-.75-.75-.75h-3Z"/></g><g fill="#ECEFF1" fill-rule="evenodd"><path d="M5.25 17.25h12.5v1.5H5.25v-1.5Z"/><path fill="#A2ADB8" d="M8.25 2c0-.42.33-.75.75-.75h7c.41 0 .75.33.75.75 0 .41-.34.75-.75.75H9c-.42 0-.75-.34-.75-.75Z"/></g><path fill="#ECEFF1" d="M7 1.25c-.97 0-1.75.78-1.75 1.75v9c0 .41.33.75.75.75h11c.41 0 .75-.34.75-.75V6c0-.97-.79-1.75-1.75-1.75h-4c-.14 0-.25-.12-.25-.25V2c0-.42-.34-.75-.75-.75H7Z"/></svg>