<svg viewBox="0 0 24 24" xmlns="http://www.w3.org/2000/svg"><path fill="#FFC44D" d="M6.5 1.25c-.42 0-.75.33-.75.75v8c0 .41.33.75.75.75H11c.41 0 .75-.34.75-.75V2c0-.42-.34-.75-.75-.75H6.5Z"/><path fill="#5E94FF" d="M17.07.97c.2-.12.45-.12.67-.02 .21.09.36.29.41.52l.51 2.44c.03.15.01.32-.06.47l-2.77 5.91c-.13.26-.39.43-.68.43h-3.32c-.26 0-.5-.14-.64-.35 -.14-.22-.16-.49-.05-.72l3.35-7.19c.06-.15.18-.27.32-.35l2.2-1.18Z"/><path fill="#CFD8DC" d="M6 9.25c-.97 0-1.75.78-1.75 1.75v8c0 2.07 1.67 3.75 3.75 3.75h6c2.07 0 3.75-1.68 3.75-3.75v-8c0-.97-.79-1.75-1.75-1.75H6Z"/></svg>