<svg viewBox="0 0 24 24" xmlns="http://www.w3.org/2000/svg"><path fill="#A2ADB8" d="M10.33 1.25c-.42 0-.75.33-.75.75v1.81c-.59.17-1.14.4-1.66.68L6.63 3.2c-.3-.3-.77-.3-1.07 0L3.2 5.55c-.3.29-.3.76 0 1.06l1.28 1.28c-.29.52-.52 1.07-.69 1.65H1.97c-.42 0-.75.33-.75.74v3.33c0 .41.33.75.75.75h1.81c.17.58.4 1.13.68 1.65l-1.29 1.28c-.15.14-.22.33-.22.53 0 .19.07.38.21.53l2.35 2.35c.14.14.33.21.53.21 .19 0 .38-.08.53-.22l1.28-1.29c.52.28 1.07.51 1.65.68v1.81c0 .41.33.75.74.75h3.33c.41 0 .75-.34.75-.75v-1.82c.58-.18 1.13-.41 1.65-.69l1.28 1.28c.14.14.33.21.53.21 .19 0 .38-.08.53-.22l2.35-2.36c.29-.3.29-.77 0-1.07l-1.29-1.29c.28-.53.51-1.08.68-1.66h1.81c.41 0 .75-.34.75-.75v-3.34c0-.42-.34-.75-.75-.75h-1.82c-.18-.59-.41-1.14-.69-1.66l1.28-1.29c.29-.3.29-.77 0-1.07l-2.36-2.36c-.15-.15-.34-.22-.54-.22s-.39.07-.54.21L15.9 4.32c-.53-.29-1.08-.52-1.66-.69V1.81c0-.42-.34-.75-.75-.75h-3.34Z"/><g fill="#ECEFF1" fill-rule="evenodd"><path d="M10.25 10.86c0-.9.72-1.62 1.61-1.62h1.63c.41 0 .75.33.75.75 0 .41-.34.75-.75.75h-1.64c-.07 0-.12.05-.12.11 0 .03.01.07.05.09l1.22.81c.45.3.72.8.72 1.34 0 .89-.73 1.61-1.62 1.61h-1.64c-.42 0-.75-.34-.75-.75 0-.42.33-.75.75-.75h1.63c.06 0 .11-.06.11-.12 0-.04-.02-.08-.06-.1l-1.23-.82c-.46-.31-.73-.81-.73-1.35Z"/><path d="M12 13.25c.41 0 .75.33.75.75v2c0 .41-.34.75-.75.75 -.42 0-.75-.34-.75-.75v-2c0-.42.33-.75.75-.75Z"/><path d="M12 7.25c.41 0 .75.33.75.75v2c0 .41-.34.75-.75.75 -.42 0-.75-.34-.75-.75V8c0-.42.33-.75.75-.75Z"/></g></svg>