<svg viewBox="0 0 24 24" xmlns="http://www.w3.org/2000/svg"><g fill="#3747D6" fill-rule="evenodd"><path d="M1 6c0-1.66 1.34-3 3-3h16c1.65 0 3 1.34 3 3v14c0 1.65-1.35 3-3 3H4c-1.66 0-3-1.35-3-3V6Zm3-1c-.56 0-1 .44-1 1v14c0 .55.44 1 1 1h16c.55 0 1-.45 1-1V6c0-.56-.45-1-1-1H4Z"/><path d="M1 6c0-1.66 1.34-3 3-3h16c1.65 0 3 1.34 3 3v3c0 .55-.45 1-1 1H2c-.56 0-1-.45-1-1V6Zm3-1c-.56 0-1 .44-1 1v2h18V6c0-.56-.45-1-1-1H4Z"/><g fill="#9545ED"><path d="M6 2v3.5H4V2h2Z"/><path d="M13 2v3.5h-2V2h2Z"/><path d="M20 2v3.5h-2V2h2Z"/><path d="M12 12.5c-1.66 0-3 1.34-3 3 0 1.65 1.34 3 3 3 1.65 0 3-1.35 3-3 0-1.66-1.35-3-3-3Zm-5 3c0-2.77 2.23-5 5-5 2.76 0 5 2.23 5 5 0 2.76-2.24 5-5 5 -2.77 0-5-2.24-5-5Z"/><path d="M13 15v-1.3h-2V16c0 .55.44 1 1 1h1.5v-2H13Z"/></g></g></svg>