<svg viewBox="0 0 24 24" xmlns="http://www.w3.org/2000/svg"><g fill="#3747D6" fill-rule="evenodd"><path d="M8 2c0-.56.44-1 1-1h6c.55 0 1 .44 1 1v5.5c0 .55-.45 1-1 1 -.56 0-1-.45-1-1V3h-4v4.5c0 .55-.45 1-1 1 -.56 0-1-.45-1-1V2Z"/><path d="M8 22c0 .55.44 1 1 1h6c.55 0 1-.45 1-1v-5.5c0-.56-.45-1-1-1 -.56 0-1 .44-1 1V21h-4v-4.5c0-.56-.45-1-1-1 -.56 0-1 .44-1 1V22Z"/><path fill="#9545ED" d="M6.5 7.5c0-.56.44-1 1-1h9c.55 0 1 .44 1 1v9c0 .55-.45 1-1 1h-9c-.56 0-1-.45-1-1v-9Zm2 1v7h7v-7h-7Z"/></g></svg>