<svg viewBox="0 0 24 24" xmlns="http://www.w3.org/2000/svg"><g fill="#3747D6" fill-rule="evenodd"><path d="M9 15c0-.56.44-1 1-1h10c.55 0 1 .44 1 1v5c0 .55-.45 1-1 1H10c-.56 0-1-.45-1-1v-5Zm2 1v3h8v-3h-8Z"/><path d="M3 4c0-.56.44-1 1-1h10c.55 0 1 .44 1 1v11h-2V5H5v14h5v2H4c-.56 0-1-.45-1-1V4Z"/><path d="M2 19h14v2H2v-2Z"/><path fill="#9545ED" d="M8 14h14v2H8v-2Z"/><path d="M2 3h14v2H2V3Z"/><g fill="#9545ED"><path d="M9 9c-.56 0-1 .44-1 1 0 .55.44 1 1 1 .55 0 1-.45 1-1 0-.56-.45-1-1-1Zm-3 1c0-1.66 1.34-3 3-3 1.65 0 3 1.34 3 3 0 1.65-1.35 3-3 3 -1.66 0-3-1.35-3-3Z"/><path d="M8 19h14v2H8v-2Z"/></g></g></svg>