<svg viewBox="0 0 24 24" xmlns="http://www.w3.org/2000/svg"><g fill="#9545ED" fill-rule="evenodd"><path d="M7.5 7c-.28 0-.5.22-.5.5 0 .27.22.5.5.5 .27 0 .5-.23.5-.5 0-.28-.23-.5-.5-.5ZM5 7.5C5 6.11 6.11 5 7.5 5 8.88 5 10 6.11 10 7.5 10 8.88 8.88 10 7.5 10 6.11 10 5 8.88 5 7.5Z"/><path d="M13 8.5h-2v-2h2v2Z"/><path d="M4 8.5H2v-2h2v2Z"/><path d="M8.5 11v2h-2v-2h2Z"/><path d="M8.5 2v2h-2V2h2Z"/><path d="M10.68 9.26l1.41 1.41 -1.42 1.41 -1.42-1.42 1.41-1.42Z"/><path d="M4.31 9.26l-1.42 1.41 1.41 1.41 1.41-1.42 -1.42-1.42Z"/><path d="M4.31 2.9l1.41 1.41L4.3 5.72 2.88 4.3l1.41-1.42Z"/><path d="M10.682 2.9l-1.42 1.41 1.41 1.41 1.41-1.42 -1.42-1.42Z"/><path fill="#3747D6" d="M16 9c.33 0 .64.16.83.44l6 9c.1.16.16.35.16.55v3c0 .55-.45 1-1 1h-3c-.35 0-.67-.18-.85-.47l-2.16-3.45 -2.16 3.44c-.19.29-.51.47-.85.47h-3c-.56 0-1-.45-1-1v-3c0-.2.05-.4.16-.56l6-9c.18-.28.49-.45.83-.45Zm-5 10.3v1.69h1.44l2.7-4.33c.18-.3.5-.47.84-.47 .34 0 .66.17.84.47l2.7 4.33h1.44v-1.7l-5-7.5 -5 7.5Z"/></g></svg>