<svg viewBox="0 0 24 24" xmlns="http://www.w3.org/2000/svg"><g fill="#9545ED" fill-rule="evenodd"><path d="M22.63 5.72c.23.18.36.47.36.77v12c0 .29-.14.58-.37.77 -.24.19-.54.26-.84.2l-3.4-.68c-1.41-.29-2.42-1.52-2.42-2.95V9.1c0-1.44 1-2.67 2.41-2.95l3.39-.68c.29-.06.59.01.83.2Zm-1.64 1.99l-2.2.43c-.47.09-.81.5-.81.98v6.72c0 .47.33.88.8.98l2.19.43V7.68Z"/><path d="M1 10.5c0-1.66 1.34-3 3-3h7c.32 0 .63.16.82.43 .18.26.22.61.11.92l-1.5 3.99c-.15.39-.52.64-.94.64h-7.5c-.56 0-1-.45-1-1v-2Zm3-1c-.56 0-1 .44-1 1v1h5.8l.75-2H3.99Z"/><path d="M11 5.5c0-.56.44-1 1-1h3c.55 0 1 .44 1 1v3c0 .55-.45 1-1 1h-3c-.56 0-1-.45-1-1v-3Zm2 1v1h1v-1h-1Z"/><path fill="#3747D6" d="M1 10.5c0-1.66 1.34-3 3-3h13c.55 0 1 .44 1 1v8c0 .55-.45 1-1 1H4c-1.66 0-3-1.35-3-3v-4Zm3-1c-.56 0-1 .44-1 1v4c0 .55.44 1 1 1h12v-6H4Z"/></g></svg>