<svg viewBox="0 0 24 24" xmlns="http://www.w3.org/2000/svg"><g fill="#3747D6" fill-rule="evenodd"><path d="M13.293 11.29l2-2.01 1.41 1.41 -2 2 -1.42-1.42Z"/><g fill="#9545ED"><path d="M3.29 1.29c.39-.4 1.02-.4 1.41 0l7.99 8c.39.39.39 1.02 0 1.41l-2 2c-.4.39-1.03.39-1.42 0l-8-8c-.4-.4-.4-1.03 0-1.42l2-2Zm.12 2.7l6.58 6.58 .58-.59 -6.59-6.59 -.59.58Z"/><path d="M14.29 4.29c.39-.4 1.02-.4 1.41 0l5 5c.39.39.39 1.02 0 1.41l-2 2c-.4.39-1.03.39-1.42 0l-5-5c-.4-.4-.4-1.03 0-1.42l2-2Zm.12 2.7l3.58 3.58 .58-.59 -3.59-3.59 -.59.58Z"/><path d="M17.29 15.29c.39-.4 1.02-.4 1.41 0l4 4c.39.39.39 1.02 0 1.41l-2 2c-.19.18-.45.29-.71.29h-2c-.38 0-.73-.22-.9-.56l-2-4c-.2-.39-.12-.85.18-1.16l2-2Zm-.08 2.9l1.4 2.8h.96l1-1 -2.59-2.59 -.79.78Z"/><path d="M13 20v-3.5h2V20h-2Z"/></g><path d="M11.29 9.29c.39-.4 1.02-.4 1.41 0l6 6c.39.39.39 1.02 0 1.41l-2 2c-.4.39-1.03.39-1.42 0l-1.29-1.29 -2.21-.45c-.31-.07-.57-.26-.7-.54l-2-4c-.2-.39-.12-.85.18-1.16l1.99-2.01Zm-.08 2.9l1.45 2.91 2.02.4c.19.03.37.13.51.27l.79.79 .58-.59 -4.59-4.59 -.79.78Z"/></g></svg>