<svg viewBox="0 0 24 24" xmlns="http://www.w3.org/2000/svg"><g fill="#9545ED" fill-rule="evenodd"><path d="M6 15v7H4v-7h2Z"/><path d="M9 2v15H7V2h2Z"/><path d="M13 9v13h-2V9h2Z"/><path d="M16 16.5V22h-2v-5.5h2Z"/><path fill="#3747D6" d="M1 2c0-.56.44-1 1-1h8c.21 0 .42.07.6.2L13 3V2c0-.56.44-1 1-1h4c.55 0 1 .44 1 1v8.38l2.55-1.28c.31-.16.67-.14.97.04 .29.18.47.5.47.85v3c0 .26-.11.51-.3.7l-3.71 3.7v4.58c0 .55-.45 1-1 1h-16c-.56 0-1-.45-1-1v-20Zm2 1v18h14v-4c0-.27.1-.52.29-.71l3.7-3.71v-.97l-2.56 1.27c-.31.15-.68.13-.98-.05 -.3-.19-.48-.51-.48-.86v-9h-2v2c0 .37-.22.72-.56.89 -.34.16-.75.13-1.05-.1l-3.74-2.8H2.95Z"/></g></svg>