<svg viewBox="0 0 24 24" xmlns="http://www.w3.org/2000/svg"><g fill="#9545ED" fill-rule="evenodd"><path d="M11.5 6c-.56 0-1 .44-1 1v1h-2V7c0-1.66 1.34-3 3-3 1.65 0 3 1.34 3 3v1c0 .26-.11.51-.3.7l-1.71 1.7v1.58h-2v-2c0-.27.1-.52.29-.71l1.7-1.71v-.59c0-.56-.45-1-1-1Z"/><path d="M10.5 15v-1h2v1h-2Z"/><path fill="#3747D6" d="M11.5 3C8.46 3 6 5.46 6 8.5c0 2.74 1.49 5.91 3.09 8.5 .79 1.27 1.58 2.35 2.17 3.13 .07.1.15.19.22.28 .07-.09.14-.19.22-.29 .59-.78 1.38-1.86 2.17-3.14 1.6-2.59 3.09-5.76 3.09-8.51 0-3.04-2.47-5.5-5.5-5.5Zm0 19c-.76.65-.76.65-.76.65l-.01-.01 -.01-.01 -.02-.02c-.02-.02-.04-.04-.06-.07 -.06-.06-.13-.15-.22-.26 -.19-.23-.45-.55-.76-.95 -.63-.81-1.46-1.96-2.3-3.3 -1.65-2.64-3.41-6.22-3.41-9.57 0-4.15 3.35-7.5 7.5-7.5 4.14 0 7.5 3.35 7.5 7.5 0 3.34-1.76 6.92-3.41 9.56 -.84 1.34-1.67 2.48-2.3 3.29 -.32.4-.58.72-.76.94 -.1.11-.17.19-.22.25 -.03.02-.05.05-.06.06l-.02.01 -.01 0 -.01 0c-.01 0-.01 0-.76-.66Zm0 0l.75.65c-.19.21-.47.34-.76.34 -.29 0-.57-.13-.76-.35l.75-.66Z"/></g></svg>