<svg viewBox="0 0 24 24" xmlns="http://www.w3.org/2000/svg"><g fill="#9545ED" fill-rule="evenodd"><path d="M1.16 19.44l3-4.5 1.66 1.1 -3 4.5 -1.67-1.11Z"/><path d="M22.832 19.44l-3-4.5 -1.67 1.1 3 4.5 1.66-1.11Z"/><path fill="#3747D6" d="M12 4c.33 0 .64.16.83.44l7 10.5c.1.16.16.35.16.55v3.5c0 .55-.45 1-1 1h-3.5c-.35 0-.67-.18-.85-.47l-2.66-4.25 -2.66 4.24c-.19.29-.51.47-.85.47h-3.5c-.56 0-1-.45-1-1v-3.5c0-.2.05-.4.16-.56l6.99-10.5c.18-.28.49-.45.83-.45ZM6 15.8v2.19h1.94l3.2-5.13c.18-.3.5-.47.84-.47 .34 0 .66.17.84.47l3.2 5.13h1.94v-2.2l-6-9.01 -6 9Z"/></g></svg>