<svg viewBox="0 0 24 24" xmlns="http://www.w3.org/2000/svg"><g fill="#9545ED" fill-rule="evenodd"><path d="M9 2c0-.56.44-1 1-1h4c.55 0 1 .44 1 1v3c0 .55-.45 1-1 1h-4c-.56 0-1-.45-1-1V2Zm2 1v1h2V3h-2Z"/><path d="M12.74 10.83l-.75.66 -.75-.67c.18-.22.46-.34.74-.34 .28 0 .55.12.74.33Zm-.75 2.27c-.15.21-.29.42-.38.6 -.11.2-.13.29-.13.29 -.01 0-.01-.01-.01-.01 -.01-.01-.01-.01-.01-.01m.5-.89c.14.21.28.42.37.6 .1.2.12.29.12.29s0-.01 0-.01c-.01.27-.23.49-.5.49 -.28 0-.5-.22-.5-.5m.49-2.51c-.75-.67-.75-.67-.75-.67l-.01 0 -.01 0 -.02.01c-.02.01-.04.03-.06.06 -.05.05-.11.12-.19.21 -.16.18-.36.43-.56.71 -.21.28-.43.61-.6.94 -.16.3-.35.74-.35 1.19 0 1.38 1.11 2.5 2.5 2.5 1.38 0 2.5-1.12 2.5-2.5 0-.46-.19-.9-.35-1.2 -.18-.34-.4-.67-.6-.95 -.21-.29-.41-.54-.56-.72 -.08-.1-.14-.17-.19-.22 -.03-.03-.05-.05-.06-.07l-.02-.02 -.01-.01 -.01-.01c-.01-.01 0 0-.75.66Z"/><path fill="#3747D6" d="M6 9c0-2.77 2.23-5 5-5h2c2.76 0 5 2.23 5 5v13c0 .55-.45 1-1 1H7c-.56 0-1-.45-1-1V9Zm5-3C9.34 6 8 7.34 8 9v12h8V9c0-1.66-1.35-3-3-3h-2Z"/></g></svg>