<svg viewBox="0 0 24 24" xmlns="http://www.w3.org/2000/svg"><g fill="#9545ED" fill-rule="evenodd"><path d="M5.29 5.29c.29-.3.74-.38 1.12-.21l4 1.83 -.84 1.81L8.02 8l.71 1.54 -1.82.83 -1.84-4.01c-.18-.39-.1-.83.2-1.13Zm13.41 0c.29.29.37.74.2 1.12l-1.84 4 -1.82-.84 .71-1.55 -1.55.71 -.84-1.82 4-1.84c.38-.18.82-.1 1.12.2ZM8.03 15.95l.71-1.55 -1.82-.84 -1.84 4c-.18.38-.1.82.2 1.12 .29.29.74.37 1.12.2l4-1.84 -.84-1.82 -1.55.71Zm7.92 0l-.72-1.55 1.81-.84 1.83 4c.17.38.09.82-.21 1.12 -.3.29-.75.37-1.13.2l-4-1.84 .83-1.82 1.54.71Z"/><path d="M12 11.5c-.28 0-.5.22-.5.5 0 .27.22.5.5.5 .27 0 .5-.23.5-.5 0-.28-.23-.5-.5-.5Zm-2.5.5c0-1.39 1.11-2.5 2.5-2.5 1.38 0 2.5 1.11 2.5 2.5 0 1.38-1.12 2.5-2.5 2.5 -1.39 0-2.5-1.12-2.5-2.5Z"/><path fill="#3747D6" d="M12 1c.41 0 .79.26.93.65l2.54 6.86 6.86 2.54c.39.14.65.51.65.93 0 .41-.27.79-.66.93l-6.87 2.54 -2.55 6.86c-.15.39-.52.65-.94.65 -.42 0-.8-.27-.94-.66l-2.55-6.87 -6.87-2.55c-.4-.15-.66-.52-.66-.94 0-.42.26-.8.65-.94l6.86-2.55 2.54-6.87c.14-.4.51-.66.93-.66Zm0 3.88l-1.77 4.76c-.11.27-.32.48-.6.59l-4.77 1.76 4.76 1.76c.27.1.48.31.59.59l1.76 4.76 1.76-4.77c.1-.28.31-.49.59-.6l4.76-1.77 -4.77-1.77c-.28-.11-.49-.32-.6-.6l-1.77-4.77Z"/></g></svg>