<svg viewBox="0 0 24 24" xmlns="http://www.w3.org/2000/svg"><g fill-rule="evenodd"><path d="M4.25 5c0-.42.33-.75.75-.75h14c.41 0 .75.33.75.75v14c0 .41-.34.75-.75.75H5c-.42 0-.75-.34-.75-.75V5Zm1.5.75v12.5h12.5V5.75H5.75Z"/><path d="M5 1.25c.41 0 .75.33.75.75v3c0 .41-.34.75-.75.75 -.42 0-.75-.34-.75-.75V2c0-.42.33-.75.75-.75Z"/><path d="M9.5 1.25c.41 0 .75.33.75.75v3c0 .41-.34.75-.75.75 -.42 0-.75-.34-.75-.75V2c0-.42.33-.75.75-.75Z"/><path d="M14.5 1.25c.41 0 .75.33.75.75v3c0 .41-.34.75-.75.75 -.42 0-.75-.34-.75-.75V2c0-.42.33-.75.75-.75Z"/><path d="M19 1.25c.41 0 .75.33.75.75v3c0 .41-.34.75-.75.75 -.42 0-.75-.34-.75-.75V2c0-.42.33-.75.75-.75Z"/><path d="M5 18.25c.41 0 .75.33.75.75v3c0 .41-.34.75-.75.75 -.42 0-.75-.34-.75-.75v-3c0-.42.33-.75.75-.75Z"/><path d="M9.5 18.25c.41 0 .75.33.75.75v3c0 .41-.34.75-.75.75 -.42 0-.75-.34-.75-.75v-3c0-.42.33-.75.75-.75Z"/><path d="M14.5 18.25c.41 0 .75.33.75.75v3c0 .41-.34.75-.75.75 -.42 0-.75-.34-.75-.75v-3c0-.42.33-.75.75-.75Z"/><path d="M19 18.25c.41 0 .75.33.75.75v3c0 .41-.34.75-.75.75 -.42 0-.75-.34-.75-.75v-3c0-.42.33-.75.75-.75Z"/><path d="M11.46 6.96c.29-.3.76-.3 1.06-.01l3 3 2.97-2.55c.31-.27.78-.24 1.05.08 .26.31.23.78-.09 1.05l-3.5 2.99c-.3.25-.75.23-1.02-.04l-3.51-3.51c-.3-.3-.3-.77 0-1.07Zm-7.04.54c.26-.32.74-.36 1.05-.09l3.5 3c.31.26.35.74.08 1.05 -.27.31-.75.35-1.06.08l-3.5-3c-.32-.27-.36-.75-.09-1.06Z"/><path d="M11.99 12.25c.19 0 .38.07.53.21l3 3 2.97-2.548c.31-.27.78-.24 1.05.08 .26.31.23.78-.09 1.05l-3.5 3c-.3.25-.75.23-1.02-.04l-2.97-2.97 -2.97 2.96c-.28.27-.73.29-1.02.03l-3.5-3c-.32-.27-.36-.75-.09-1.06 .26-.32.74-.36 1.05-.09l2.97 2.54 3-3.01c.14-.15.33-.22.53-.22Z"/></g></svg>