<svg viewBox="0 0 24 24" xmlns="http://www.w3.org/2000/svg"><g fill-rule="evenodd"><path d="M3.83 6.11c.19-.33.59-.46.93-.31L8 7.18l3.71-1.4c.16-.07.35-.07.52 0l3.71 1.39 3.24-1.39c.34-.15.74-.02.93.3 1 1.69 1.58 3.71 1.58 5.88 0 5.86-4.3 10.75-9.75 10.75 -4.05 0-7.47-2.71-8.95-6.48 -.16-.39.03-.83.42-.98 .38-.16.82.03.97.42 1.29 3.29 4.21 5.52 7.55 5.52 4.48 0 8.25-4.07 8.25-9.25 0-1.66-.39-3.21-1.07-4.55l-2.9 1.23c-.18.07-.38.08-.56.01l-3.74-1.41 -3.74 1.4c-.19.06-.39.06-.56-.02l-2.9-1.24c-.68 1.33-1.07 2.88-1.07 4.54 0 .41-.34.75-.75.75 -.42 0-.75-.34-.75-.75 0-2.17.58-4.19 1.58-5.89Z"/><path d="M7.37 1.584c.13-.21.37-.34.62-.34h7.99c.25 0 .48.12.62.33l3 4.5c.22.34.13.81-.21 1.04 -.35.22-.82.13-1.04-.21l-2.78-4.17h-7.2l-2.78 4.16c-.23.34-.7.43-1.05.2 -.35-.23-.44-.7-.21-1.05l2.99-4.5Z"/></g></svg>