<svg viewBox="0 0 24 24" xmlns="http://www.w3.org/2000/svg"><g fill-rule="evenodd"><path d="M12 6.75c-3.37 0-6.25 3.14-6.25 7.25 0 4.1 2.88 7.25 6.25 7.25 2.26 0 4.28-1.41 5.39-3.59 .18-.37.63-.52 1-.34 .36.18.51.63.33 1 -1.32 2.59-3.82 4.41-6.74 4.41 -4.38 0-7.75-4.02-7.75-8.75 0-4.74 3.37-8.75 7.75-8.75 4.37 0 7.75 4.01 7.75 8.75 0 .41-.34.75-.75.75 -.42 0-.75-.34-.75-.75 0-4.11-2.89-7.25-6.25-7.25Z"/><path d="M17.73 1.85c.08.4-.19.8-.59.88l-10 2c-.41.08-.81-.19-.89-.59 -.09-.41.18-.81.58-.89l9.99-2c.4-.09.8.18.88.58Z"/><path d="M5.28 9.76c.13-.4.55-.61.94-.48l2.76.92 2.76-.93c.16-.06.35-.06.51.01l2.26.9 3.25-.93c.39-.12.81.11.92.51 .11.39-.12.81-.52.92l-3.5 1c-.16.04-.34.03-.49-.03l-2.25-.9 -2.74.91c-.16.05-.33.05-.48 0l-3-1c-.4-.14-.61-.56-.48-.95Z"/><path d="M12 2.25c.41 0 .75.33.75.75v3c0 .41-.34.75-.75.75 -.42 0-.75-.34-.75-.75V3c0-.42.33-.75.75-.75Z"/></g></svg>