<svg viewBox="0 0 24 24" xmlns="http://www.w3.org/2000/svg"><g fill-rule="evenodd"><path d="M17.9 6.05c.14-.19.36-.3.6-.3H22c.28 0 .53.15.66.4 .12.24.1.55-.06.77l-5 6.99c-.15.19-.37.31-.62.31h-9.8l-4.83 2.89c-.24.13-.53.14-.76 0 -.24-.14-.39-.39-.39-.66v-3c0-.27.13-.51.36-.65l5-3.01c.11-.07.24-.11.38-.11h3c.41 0 .75.33.75.75 0 .41-.34.75-.75.75h-2.8l-4.46 2.67v1.25l3.86-2.32c.11-.07.24-.11.38-.11h9.61l3.92-5.5h-1.67L16 10.87c-.15.18-.37.3-.6.3h-1.5c-.42 0-.75-.34-.75-.75 0-.42.33-.75.75-.75h1.125l2.77-3.7Z"/><path d="M8.33 12.82c.37.18.52.63.33 1l-2 4c-.19.37-.64.52-1.01.33 -.38-.19-.53-.64-.34-1.01l2-4c.18-.38.63-.53 1-.34Z"/><path d="M16.66 12.82c-.38.18-.53.63-.34 1l2 4c.18.37.63.52 1 .33s.52-.64.33-1.01l-2-4c-.19-.38-.64-.53-1.01-.34Z"/></g></svg>