<svg viewBox="0 0 24 24" xmlns="http://www.w3.org/2000/svg"><g fill-rule="evenodd"><path d="M12 9.25c-.42 0-.75.33-.75.75 0 .41.33.75.75.75 .41 0 .75-.34.75-.75 0-.42-.34-.75-.75-.75ZM9.75 10c0-1.25 1-2.25 2.25-2.25 1.24 0 2.25 1 2.25 2.25 0 1.24-1.01 2.25-2.25 2.25 -1.25 0-2.25-1.01-2.25-2.25Z"/><path d="M12 3.75c.41 0 .75.33.75.75v4c0 .41-.34.75-.75.75 -.42 0-.75-.34-.75-.75v-4c0-.42.33-.75.75-.75Z"/><path d="M12 10.75c.41 0 .75.33.75.75v4c0 .41-.34.75-.75.75 -.42 0-.75-.34-.75-.75v-4c0-.42.33-.75.75-.75Z"/><path d="M5.75 10c0-.42.33-.75.75-.75h4c.41 0 .75.33.75.75 0 .41-.34.75-.75.75h-4c-.42 0-.75-.34-.75-.75Z"/><path d="M12.75 10c0-.42.33-.75.75-.75h4c.41 0 .75.33.75.75 0 .41-.34.75-.75.75h-4c-.42 0-.75-.34-.75-.75Z"/><path d="M12 2.75c-2.69 0-5.03 1.45-6.29 3.62 -.21.35-.67.48-1.03.27 -.36-.21-.49-.67-.28-1.03 1.51-2.62 4.33-4.38 7.57-4.38 4.83 0 8.75 3.91 8.75 8.75 0 4.83-3.92 8.75-8.75 8.75 -4.84 0-8.75-3.92-8.75-8.75 0-.42.33-.75.75-.75 .41 0 .75.33.75.75 0 4 3.24 7.25 7.25 7.25 4 0 7.25-3.25 7.25-7.25 0-4.01-3.25-7.25-7.25-7.25Z"/><path d="M8.38 16.35c.35.21.47.67.25 1.029l-2.32 3.86h11.35l-2.32-3.87c-.22-.36-.1-.82.25-1.029 .35-.22.81-.1 1.02.25l3 5c.13.23.14.52 0 .75 -.14.23-.39.38-.66.38h-14c-.28 0-.52-.15-.66-.39 -.14-.24-.13-.53 0-.76l3-5c.21-.36.67-.48 1.02-.26Z"/></g></svg>