<svg viewBox="0 0 24 24" xmlns="http://www.w3.org/2000/svg"><g fill-rule="evenodd"><path d="M6.18 12.9c.16.38-.02.82-.4.98 -2.08.89-3.05 2.06-3.05 3.11 0 .94.78 1.99 2.51 2.86 1.68.84 4.06 1.38 6.73 1.38 2.67 0 5.05-.55 6.73-1.39 1.72-.87 2.51-1.93 2.51-2.87 0-1.05-.97-2.23-3.05-3.12 -.39-.17-.56-.61-.4-.99 .16-.39.6-.56.98-.4 2.2.94 3.95 2.49 3.95 4.48 0 1.81-1.46 3.26-3.35 4.2 -1.94.96-4.56 1.54-7.41 1.54 -2.86 0-5.48-.58-7.41-1.55 -1.89-.95-3.35-2.39-3.35-4.21 0-2 1.74-3.55 3.95-4.49 .38-.17.82.01.98.39Z"/><path d="M5.87 6.37c.26-1.75 2.09-2.8 3.73-2.14l1.92.76c.29.11.63.11.92 0l1.92-.77c1.64-.66 3.47.38 3.73 2.13l1.44 9.36c.16 1.06-.66 2.01-1.73 2.01H6.13c-1.08 0-1.9-.96-1.73-2.02l.74-4.85c.06-.41.44-.7.85-.63 .4.06.69.44.62.85l-.75 4.84c-.03.15.09.28.24.28h11.66c.15 0 .27-.14.24-.29l-1.44-9.37c-.13-.8-.96-1.27-1.7-.98l-1.93.76c-.66.26-1.39.26-2.05 0l-1.93-.77c-.75-.3-1.58.17-1.7.97l-.08.51c-.07.4-.45.69-.86.62 -.41-.07-.7-.45-.63-.86l.07-.52Z"/><path d="M4.75 13c0-.42.33-.75.75-.75h13c.41 0 .75.33.75.75 0 .41-.34.75-.75.75h-13c-.42 0-.75-.34-.75-.75Z"/></g></svg>