<svg viewBox="0 0 24 24" xmlns="http://www.w3.org/2000/svg"><g fill-rule="evenodd"><path d="M1.25 5.5c0-1.52 1.23-2.75 2.75-2.75h16c1.51 0 2.75 1.23 2.75 2.75v4c0 .41-.34.75-.75.75h-3c-.42 0-.75-.34-.75-.75 0-.42.33-.75.75-.75h2.25V5.5c0-.7-.56-1.25-1.25-1.25H4c-.7 0-1.25.55-1.25 1.25v3.25H5c.41 0 .75.33.75.75 0 .41-.34.75-.75.75H2c-.42 0-.75-.34-.75-.75v-4Zm6 4c0-.42.33-.75.75-.75h8c.41 0 .75.33.75.75 0 .41-.34.75-.75.75H8c-.42 0-.75-.34-.75-.75Z"/><path d="M1.25 9.5c0-.42.33-.75.75-.75h3c.41 0 .75.33.75.75 0 .41-.34.75-.75.75H2.75v9.5H16c.41 0 .75.33.75.75 0 .41-.34.75-.75.75H2c-.42 0-.75-.34-.75-.75v-11Zm6 0c0-.42.33-.75.75-.75h8c.41 0 .75.33.75.75 0 .41-.34.75-.75.75H8c-.42 0-.75-.34-.75-.75Zm11 0c0-.42.33-.75.75-.75h3c.41 0 .75.33.75.75v11c0 .41-.34.75-.75.75h-2c-.42 0-.75-.34-.75-.75 0-.42.33-.75.75-.75h1.25v-9.5H19c-.42 0-.75-.34-.75-.75Z"/><path d="M4.25 7c0-.42.33-.75.75-.75h3c.41 0 .75.33.75.75v6c0 .41-.34.75-.75.75H5c-.42 0-.75-.34-.75-.75V7Zm1.5.75v4.5h1.5v-4.5h-1.5Z"/><path d="M15.25 7c0-.42.33-.75.75-.75h3c.41 0 .75.33.75.75v6c0 .41-.34.75-.75.75h-3c-.42 0-.75-.34-.75-.75V7Zm1.5.75v4.5h1.5v-4.5h-1.5Z"/><path d="M12.16 12.25c.41 0 .75.33.75.75v5c0 .41-.34.75-.75.75 -.42 0-.75-.34-.75-.75v-5c0-.42.33-.75.75-.75Z"/><path d="M9.35 13.87c.2-.36.66-.49 1.02-.28l4.33 2.5c.35.2.48.66.27 1.02 -.21.35-.67.48-1.03.27l-4.34-2.5c-.36-.21-.49-.67-.28-1.03Z"/><path d="M14.97 13.87c-.21-.36-.67-.49-1.03-.28l-4.34 2.5c-.36.2-.49.66-.28 1.02 .2.35.66.48 1.02.27l4.33-2.5c.35-.21.48-.67.27-1.03Z"/></g></svg>