<svg viewBox="0 0 24 24" xmlns="http://www.w3.org/2000/svg"><g fill-rule="evenodd"><path d="M17.25 10.29c.38.14.59.57.44.96l-2.19 6c-.15.38-.58.59-.97.44 -.39-.15-.6-.58-.45-.97l2.18-6c.14-.39.57-.6.96-.45Zm-9.19 4.15c.38-.15.81-.45.96-.06l2.49 6.84h.94l.18-.51c.14-.39.57-.6.96-.45 .38.14.59.57.44.96l-.37 1c-.11.29-.39.49-.71.49h-2c-.32 0-.6-.2-.71-.5l-2.68-7.35c-.15-.39.05-.32.44-.47Z"/><path d="M6.8 7.25h10.39c-.37-2.55-2.56-4.5-5.2-4.5 -2.65 0-4.84 1.95-5.2 4.5ZM5.24 8c0-3.73 3.02-6.75 6.75-6.75 3.72 0 6.75 3.02 6.75 6.75 0 .41-.34.75-.75.75h-12c-.42 0-.75-.34-.75-.75Z"/><path d="M3.25 9.5c0-1.25 1-2.25 2.25-2.25h13c1.24 0 2.25 1 2.25 2.25 0 1.24-1.01 2.25-2.25 2.25h-7.75v1.75c0 1.24-1.01 2.25-2.25 2.25 -1.25 0-2.25-1.01-2.25-2.25v-1.75H5.5c-1.25 0-2.25-1.01-2.25-2.25Zm2.25-.75c-.42 0-.75.33-.75.75 0 .41.33.75.75.75H7c.41 0 .75.33.75.75v2.5c0 .41.33.75.75.75 .41 0 .75-.34.75-.75V11c0-.42.33-.75.75-.75h8.5c.41 0 .75-.34.75-.75 0-.42-.34-.75-.75-.75h-13Z"/></g></svg>