<svg viewBox="0 0 24 24" xmlns="http://www.w3.org/2000/svg"><g fill-rule="evenodd"><path d="M4.59 4.79c1.93-.97 4.55-1.55 7.4-1.55 2.85 0 5.47.57 7.4 1.54 1.88.94 3.34 2.38 3.34 4.2 0 .52-.13 1.03-.36 1.5 .22.46.35.97.35 1.5 0 .52-.13 1.03-.36 1.5 .22.46.35.97.35 1.5 0 1.81-1.46 3.26-3.35 4.2 -1.94.96-4.56 1.54-7.41 1.54 -.42 0-.75-.34-.75-.75 0-.42.33-.75.75-.75 2.67 0 5.05-.55 6.73-1.39 1.72-.87 2.51-1.93 2.51-2.87 0-.37-.11-.73-.35-1.11 -.16-.25-.16-.56 0-.8 .23-.38.34-.74.34-1.11 0-.37-.11-.73-.35-1.11 -.16-.25-.16-.56 0-.8 .23-.38.34-.74.34-1.11 0-.95-.79-2-2.52-2.87 -1.69-.85-4.07-1.39-6.74-1.39 -2.68 0-5.06.54-6.74 1.38 -1.73.86-2.52 1.92-2.52 2.86 0 .36.1.72.34 1.1 .15.24.15.55 0 .79 -.24.37-.35.73-.35 1.1 0 .36.1.73.34 1.1 .15.24.15.55 0 .79 -.24.37-.35.73-.35 1.1 0 .69.42 1.45 1.37 2.17 .94.71 2.33 1.3 4.03 1.67 .4.08.66.48.57.89 -.09.4-.49.66-.9.57 -1.84-.41-3.45-1.07-4.62-1.95 -1.17-.88-1.98-2.03-1.98-3.38 0-.53.12-1.04.35-1.5 -.23-.47-.36-.98-.36-1.5 0-.53.12-1.04.35-1.5 -.23-.47-.36-.98-.36-1.5 0-1.82 1.45-3.27 3.34-4.21Z"/><path d="M6.08 8.85c-.27.26-.34.48-.34.64 0 .16.07.37.33.64 .26.26.68.54 1.26.79 1.15.49 2.79.81 4.65.81 1.85 0 3.5-.33 4.65-.82 .57-.25.99-.53 1.26-.8 .26-.27.33-.49.33-.65 0-.17-.08-.38-.34-.65 -.27-.27-.69-.55-1.27-.8 -1.16-.5-2.8-.82-4.66-.82 -1.86 0-3.51.32-4.66.81 -.58.24-1 .52-1.27.79Zm.67-2.17c1.38-.6 3.23-.94 5.24-.94 2 0 3.86.34 5.24.93 .68.29 1.29.66 1.73 1.11 .44.45.76 1.02.76 1.69 0 .66-.32 1.24-.77 1.69 -.45.45-1.05.82-1.74 1.11 -1.39.59-3.24.93-5.25.93s-3.87-.35-5.25-.94c-.69-.3-1.3-.67-1.74-1.12 -.45-.46-.77-1.03-.77-1.7 0-.67.31-1.25.76-1.7C5.4 7.29 6 6.91 6.69 6.62Z"/></g></svg>