<svg viewBox="0 0 24 24" xmlns="http://www.w3.org/2000/svg"><g fill-rule="evenodd"><path d="M1.25 7c0-.42.33-.75.75-.75h10c.41 0 .75.33.75.75 0 .41-.34.75-.75.75H2c-.42 0-.75-.34-.75-.75Z"/><path d="M6.46 1.46c.29-.3.76-.3 1.06 0l4.99 5c.23.23.28.6.12.89l-5 8.99c-.14.23-.39.38-.66.38 -.28 0-.53-.15-.66-.39l-5-9c-.17-.3-.12-.66.12-.9l5-5ZM2.92 7.12l4.06 7.32 4.06-7.33 -4.07-4.07L2.9 7.1Z"/><path d="M7 1.25c.41 0 .75.33.75.75v14c0 .41-.34.75-.75.75 -.42 0-.75-.34-.75-.75V2c0-.42.33-.75.75-.75Z"/><path d="M13.25 12c0-1.52 1.23-2.75 2.75-2.75h2c1.51 0 2.75 1.23 2.75 2.75v10c0 .41-.34.75-.75.75 -.42 0-.75-.34-.75-.75V12c0-.7-.56-1.25-1.25-1.25h-2c-.7 0-1.25.55-1.25 1.25v1.5c0 .41-.34.75-.75.75 -.42 0-.75-.34-.75-.75V12ZM7 14.25c.41 0 .75.33.75.75v3c0 .69.55 1.25 1.25 1.25h3c.69 0 1.25-.56 1.25-1.25v-.5c0-.42.33-.75.75-.75 .41 0 .75.33.75.75v.5c0 1.51-1.24 2.75-2.75 2.75H9c-1.52 0-2.75-1.24-2.75-2.75v-3c0-.42.33-.75.75-.75Z"/><path d="M17.25 17c0-.42.33-.75.75-.75h4c.41 0 .75.33.75.75 0 .41-.34.75-.75.75h-4c-.42 0-.75-.34-.75-.75Z"/><path d="M17.25 20c0-.42.33-.75.75-.75h4c.41 0 .75.33.75.75 0 .41-.34.75-.75.75h-4c-.42 0-.75-.34-.75-.75Z"/></g></svg>