<svg viewBox="0 0 24 24" xmlns="http://www.w3.org/2000/svg"><g fill-rule="evenodd"><path d="M5.25 11.5c0-2.35 1.9-4.25 4.25-4.25h5c2.34 0 4.25 1.9 4.25 4.25v7c0 2.34-1.91 4.25-4.25 4.25h-5c-2.35 0-4.25-1.91-4.25-4.25v-7ZM9.5 8.75c-1.52 0-2.75 1.23-2.75 2.75v7c0 1.51 1.23 2.75 2.75 2.75h5c1.51 0 2.75-1.24 2.75-2.75v-7c0-1.52-1.24-2.75-2.75-2.75h-5Z"/><path d="M12 1.25c.25 0 .48.12.62.33l1.58 2.37 2.37-1.59c.25-.17.58-.17.83 0 .25.16.37.47.31.77l-.2 1c-.09.4-.48.66-.89.58 -.2-.04-.36-.15-.47-.3l-1.78 1.18c-.35.22-.82.13-1.05-.21l-1.38-2.07 -1.38 2.06c-.23.34-.7.43-1.05.2l-1.5-1 .52 2.62h7.38c.41 0 .75.33.75.75 0 .41-.34.75-.75.75h-8c-.36 0-.67-.26-.74-.61l-1-5c-.06-.3.06-.61.31-.78 .25-.17.58-.17.83-.01l2.37 1.58 1.58-2.38c.13-.21.37-.34.62-.34Z"/><path d="M17.48 8.42c.31.26.36.73.09 1.05l-10 12c-.27.31-.74.36-1.06.09 -.32-.27-.37-.74-.1-1.06l10-12c.26-.32.73-.37 1.05-.1Z"/><path d="M6.51 8.42c.31-.27.79-.23 1.05.09l10 12c.26.31.22.79-.1 1.05s-.8.22-1.06-.1l-10-12c-.27-.32-.23-.8.09-1.06Z"/><path d="M10.5 7.43c.31-.28.78-.25 1.05.07l7 7.99c.27.31.24.78-.08 1.05s-.79.24-1.06-.08l-7-8.01c-.28-.32-.25-.79.07-1.06Z"/><path d="M5.5 13.43c.31-.28.78-.25 1.05.07l6.99 8c.27.31.24.78-.08 1.05s-.79.24-1.06-.08l-7.01-8c-.28-.32-.25-.79.07-1.06Z"/></g></svg>