<svg viewBox="0 0 24 24" xmlns="http://www.w3.org/2000/svg"><g fill-rule="evenodd"><path d="M12 11.25c-.42 0-.75.33-.75.75 0 .41.33.75.75.75 .41 0 .75-.34.75-.75 0-.42-.34-.75-.75-.75ZM9.75 12c0-1.25 1-2.25 2.25-2.25 1.24 0 2.25 1 2.25 2.25 0 1.24-1.01 2.25-2.25 2.25 -1.25 0-2.25-1.01-2.25-2.25Z"/><path d="M12 5.75c-3.46 0-6.25 2.79-6.25 6.25 0 3.45 2.79 6.25 6.25 6.25 3.45 0 6.25-2.8 6.25-6.25 0-3.46-2.8-6.25-6.25-6.25ZM4.25 12c0-4.29 3.46-7.75 7.75-7.75 4.28 0 7.75 3.46 7.75 7.75 0 4.28-3.47 7.75-7.75 7.75 -4.29 0-7.75-3.47-7.75-7.75Z"/><path d="M12 1.25c.41 0 .75.33.75.75v8.5c0 .41-.34.75-.75.75 -.42 0-.75-.34-.75-.75V2c0-.42.33-.75.75-.75Z"/><path d="M12 12.75c.41 0 .75.33.75.75V22c0 .41-.34.75-.75.75 -.42 0-.75-.34-.75-.75v-8.5c0-.42.33-.75.75-.75Z"/><path d="M1.25 12c0-.42.33-.75.75-.75h8.5c.41 0 .75.33.75.75 0 .41-.34.75-.75.75H2c-.42 0-.75-.34-.75-.75Z"/><path d="M12.75 12c0-.42.33-.75.75-.75H22c.41 0 .75.33.75.75 0 .41-.34.75-.75.75h-8.5c-.42 0-.75-.34-.75-.75Z"/><path d="M4.39 4.39c.29-.3.76-.3 1.06 0l6.01 6.01c.29.29.29.76 0 1.06 -.3.29-.77.29-1.07 0L4.37 5.44c-.3-.3-.3-.77 0-1.07Z"/><path d="M12.53 12.53c.29-.3.76-.3 1.06 0l6.01 6.01c.29.29.29.76 0 1.06 -.3.29-.77.29-1.07 0l-6.02-6.02c-.3-.3-.3-.77 0-1.07Z"/><path d="M4.39 19.6c-.3-.3-.3-.77 0-1.07l6.01-6.02c.29-.3.76-.3 1.06 0 .29.29.29.76 0 1.06l-6.02 6.01c-.3.29-.77.29-1.07 0Z"/><path d="M12.53 11.46c-.3-.3-.3-.77 0-1.07l.93-.94c.29-.3.76-.3 1.06 0 .29.29.29.76 0 1.06l-.94.93c-.3.29-.77.29-1.07 0Zm3.43-3.44c-.3-.3-.3-.77 0-1.07l2.57-2.58c.29-.3.76-.3 1.06 0 .29.29.29.76 0 1.06L17.01 8c-.3.29-.77.29-1.07 0Z"/></g></svg>