<svg viewBox="0 0 24 24" xmlns="http://www.w3.org/2000/svg"><g fill-rule="evenodd"><path d="M8.46 1.46c-.3.29-.3.76 0 1.06l4.58 4.58c.48.48.48 1.27 0 1.76l-1.56 1.55 -5.47-5.47c-.3-.3-.77-.3-1.07 0 -.3.29-.3.76 0 1.06l5.46 5.46 -1.56 1.55c-.49.48-1.28.48-1.77 0L2.48 8.42c-.3-.3-.77-.3-1.07 0 -.3.29-.3.76 0 1.06l4.58 4.58c1.07 1.07 2.81 1.07 3.88 0l4.17-4.18c1.07-1.08 1.07-2.82 0-3.89L9.45 1.4c-.3-.3-.77-.3-1.07 0Z"/><path d="M13.53 9.46c-.3-.3-.77-.3-1.07 0l-3.01 3c-.3.29-.3.76 0 1.06l8.29 8.29c.68.68 1.79.68 2.47 0l1.58-1.59c.68-.69.68-1.8 0-2.48l-3.3-3.3c-.3-.3-.77-.3-1.07 0 -.3.29-.3.76 0 1.06l3.29 3.29c.09.09.09.25 0 .35l-1.59 1.58c-.1.09-.26.09-.36 0l-7.77-7.77 1.93-1.94 1.46 1.46c.29.29.76.29 1.06 0 .29-.3.29-.77 0-1.07l-2-2.01Z"/></g></svg>