<svg viewBox="0 0 24 24" xmlns="http://www.w3.org/2000/svg"><g fill-rule="evenodd"><path d="M6.5 19.75c-.42 0-.75.33-.75.75 0 .41.33.75.75.75h11c.41 0 .75-.34.75-.75 0-.42-.34-.75-.75-.75H14c-.42 0-.75-.34-.75-.75 0-.42.33-.75.75-.75h3.5c1.24 0 2.25 1 2.25 2.25 0 1.24-1.01 2.25-2.25 2.25h-11c-1.25 0-2.25-1.01-2.25-2.25 0-1.25 1-2.25 2.25-2.25H10c.41 0 .75.33.75.75 0 .41-.34.75-.75.75H6.5Z"/><path d="M10.5 2.75c-.42 0-.75.33-.75.75 0 1.24-1.01 2.25-2.25 2.25H7c-.7 0-1.25.55-1.25 1.25v.5c0 1.24-1.01 2.25-2.25 2.25 -.42 0-.75.33-.75.75v2.08c0 .61.32 1.18.84 1.5l.28.17c.35.21.47.67.25 1.029 -.22.35-.68.47-1.03.25l-.29-.18c-.98-.59-1.58-1.65-1.58-2.79v-2.09c0-1.25 1-2.25 2.25-2.25 .41 0 .75-.34.75-.75v-.5c0-1.52 1.23-2.75 2.75-2.75h.5c.41 0 .75-.34.75-.75 0-1.25 1-2.25 2.25-2.25h3c1.24 0 2.25 1 2.25 2.25 0 .41.33.75.75.75h.5c1.51 0 2.75 1.23 2.75 2.75v.5c0 .41.33.75.75.75 1.24 0 2.25 1 2.25 2.25v2.08c0 1.14-.6 2.19-1.58 2.78l-8.79 5.27c-.24.14-.54.14-.78 0l-5-3c-.36-.22-.48-.68-.26-1.029 .21-.36.67-.48 1.02-.26l4.61 2.76 8.4-5.05c.52-.32.84-.89.84-1.51v-2.09c0-.42-.34-.75-.75-.75 -1.25 0-2.25-1.01-2.25-2.25v-.5c0-.7-.56-1.25-1.25-1.25h-.5c-1.25 0-2.25-1.01-2.25-2.25 0-.42-.34-.75-.75-.75h-3Z"/></g></svg>