<svg viewBox="0 0 24 24" xmlns="http://www.w3.org/2000/svg"><g fill-rule="evenodd"><path d="M22.75 16c0 2.89-2.36 5.25-5.25 5.25 -2.9 0-5.25-2.36-5.25-5.25V8c0-2.9 2.35-5.25 5.25-5.25 2.89 0 5.25 2.35 5.25 5.25v2c0 .41-.34.75-.75.75 -.42 0-.75-.34-.75-.75V8c0-2.08-1.68-3.75-3.75-3.75 -2.08 0-3.75 1.67-3.75 3.75v8c0 2.07 1.67 3.75 3.75 3.75 2.07 0 3.75-1.68 3.75-3.75v-2c0-.42.33-.75.75-.75 .41 0 .75.33.75.75v2Z"/><path d="M1.25 8c0-2.9 2.35-5.25 5.25-5.25 2.89 0 5.25 2.35 5.25 5.25v8c0 2.89-2.36 5.25-5.25 5.25 -2.9 0-5.25-2.36-5.25-5.25V8ZM6.5 4.25C4.42 4.25 2.75 5.92 2.75 8v8c0 2.07 1.67 3.75 3.75 3.75 2.07 0 3.75-1.68 3.75-3.75V8c0-2.08-1.68-3.75-3.75-3.75Z"/><path d="M17.5 18.25c-.42 0-.75-.34-.75-.75v-1.23l-2.33-2.8c-.27-.32-.23-.8.09-1.06 .31-.27.79-.23 1.05.09l1.92 2.3 1.92-2.31c.26-.32.73-.37 1.05-.1 .31.26.36.73.09 1.05l-2.33 2.79v1.22c0 .41-.34.75-.75.75Z"/><path d="M6.5 5.75c.41 0 .75.33.75.75v1.22l2.32 2.79c.26.31.22.79-.1 1.05s-.8.22-1.06-.1L6.48 9.15l-1.93 2.3c-.27.31-.74.36-1.06.09 -.32-.27-.37-.74-.1-1.06l2.32-2.8V6.45c0-.42.33-.75.75-.75Z"/></g></svg>