<svg viewBox="0 0 24 24" xmlns="http://www.w3.org/2000/svg"><g fill-rule="evenodd"><path d="M11.56 2.38c-.71-.73-1.68-1.14-2.69-1.14H1.99c-.42 0-.75.33-.75.75v6.75c0 .99.39 1.94 1.09 2.65l5.12 5.12c.14.14.33.21.53.21 .19 0 .38-.08.53-.22l7.99-8c.29-.3.29-.77 0-1.06l-4.98-5.1Zm-2.69.36c.6 0 1.18.24 1.61.67l4.45 4.56 -6.95 6.94 -4.6-4.6c-.43-.43-.66-1-.66-1.6V2.7h6.12Z"/><path d="M14.02 9.96c-.3-.3-.77-.3-1.07 0l-3.01 3c-.15.14-.22.33-.22.53 0 .19.07.38.21.53l2.5 2.5c.29.29.76.29 1.06 0 .29-.3.29-.77 0-1.07l-1.97-1.97 1.93-1.94L20 18.09c.48.48.48 1.27 0 1.76l-.18.17c-.49.48-1.28.48-1.77 0l-1.59-1.59c-.3-.3-.77-.3-1.07 0 -.3.29-.3.76 0 1.06l1.58 1.58c1.07 1.07 2.81 1.07 3.88 0l.17-.18c1.07-1.08 1.07-2.82 0-3.89l-7.09-7.09Z"/></g></svg>