<svg viewBox="0 0 24 24" xmlns="http://www.w3.org/2000/svg"><g fill-rule="evenodd"><path d="M7.37 1.58c.13-.21.37-.34.62-.34h8c.25 0 .48.12.62.33l2 3c.08.12.12.26.12.41v14c0 .14-.05.29-.13.41l-2 3c-.14.2-.38.33-.63.33H7.96c-.26 0-.49-.13-.63-.34l-2-3c-.09-.13-.13-.27-.13-.42v-7c0-.42.33-.75.75-.75 .41 0 .75.33.75.75v6.77l1.65 2.47h7.19l1.65-2.48V5.17l-1.66-2.48h-7.2L6.55 5.35c-.23.34-.7.43-1.05.2 -.35-.23-.44-.7-.21-1.05l2-3Z"/><path d="M4.75 2c0-.42.33-.75.75-.75h13c.41 0 .75.33.75.75 0 .41-.34.75-.75.75h-13c-.42 0-.75-.34-.75-.75Z"/><path d="M4.75 22c0-.42.33-.75.75-.75h13c.41 0 .75.33.75.75 0 .41-.34.75-.75.75h-13c-.42 0-.75-.34-.75-.75Z"/><path d="M5.25 5c0-.42.33-.75.75-.75h12c.41 0 .75.33.75.75v14c0 .41-.34.75-.75.75H6c-.42 0-.75-.34-.75-.75v-8c0-.42.33-.75.75-.75 .41 0 .75.33.75.75v7.25h10.5V5.75H6.75V7c0 .41-.34.75-.75.75 -.42 0-.75-.34-.75-.75V5Z"/><path d="M14.38 4.35c.35.21.47.67.25 1.02l-2.11 3.5c-.33.53-.2 1.22.29 1.61l2.47 1.98c.94.75 1.28 2.04.83 3.16l-1.45 3.62c-.16.38-.6.57-.98.41 -.39-.16-.58-.6-.42-.98l1.44-3.63c.2-.52.05-1.1-.38-1.45l-2.48-1.99c-1.08-.86-1.35-2.39-.65-3.57l2.1-3.51c.21-.36.67-.48 1.029-.26Z"/></g></svg>