<svg viewBox="0 0 24 24" xmlns="http://www.w3.org/2000/svg"><g fill-rule="evenodd"><path d="M1.25 12c0-.42.33-.75.75-.75h3c.41 0 .75.33.75.75 0 .41-.34.75-.75.75H2c-.42 0-.75-.34-.75-.75Z"/><path d="M18.25 12c0-.42.33-.75.75-.75h3c.41 0 .75.33.75.75 0 .41-.34.75-.75.75h-3c-.42 0-.75-.34-.75-.75Z"/><path d="M20.53 3.46c.29.29.29.76 0 1.06l-2.5 2.5c-.3.29-.77.29-1.07 0 -.3-.3-.3-.77 0-1.07l2.5-2.5c.29-.3.76-.3 1.06 0Zm-13.5 13.5c.29.29.29.76 0 1.06l-2.5 2.5c-.3.29-.77.29-1.07 0 -.3-.3-.3-.77 0-1.07l2.5-2.5c.29-.3.76-.3 1.06 0Z"/><path d="M3.46 3.46c-.3.29-.3.76 0 1.06l2.5 2.5c.29.29.76.29 1.06 0 .29-.3.29-.77 0-1.07l-2.5-2.5c-.3-.3-.77-.3-1.07 0Zm13.5 13.5c-.3.29-.3.76 0 1.06l2.5 2.5c.29.29.76.29 1.06 0 .29-.3.29-.77 0-1.07l-2.5-2.5c-.3-.3-.77-.3-1.07 0Z"/><path d="M12 7.75c-2.35 0-4.25 1.9-4.25 4.25 0 .95.31 1.83.84 2.54 .24.33.18.8-.15 1.05 -.34.24-.81.18-1.06-.15 -.73-.97-1.15-2.16-1.15-3.46 0-3.18 2.57-5.75 5.75-5.75 3.17 0 5.75 2.57 5.75 5.75 0 3.17-2.58 5.75-5.75 5.75 -.42 0-.75-.34-.75-.75 0-.42.33-.75.75-.75 2.34 0 4.25-1.91 4.25-4.25 0-2.35-1.91-4.25-4.25-4.25Z"/><path d="M12 1.25c.41 0 .75.33.75.75v3c0 .41-.34.75-.75.75 -.42 0-.75-.34-.75-.75V2c0-.42.33-.75.75-.75Z"/><path d="M12 18.25c.41 0 .75.33.75.75v3c0 .41-.34.75-.75.75 -.42 0-.75-.34-.75-.75v-3c0-.42.33-.75.75-.75Z"/></g></svg>