<svg viewBox="0 0 24 24" xmlns="http://www.w3.org/2000/svg"><path fill-rule="evenodd" d="M9.56 2.37c.2.13.32.37.32.62 0 1.15.93 2.09 2.1 2.09 1.16 0 2.1-.95 2.1-2.1 0-.25.12-.49.32-.63s.46-.17.69-.08l4.76 1.89c.18.07.33.22.41.4l2.38 5.68c.08.2.07.43-.03.63 -.11.19-.29.33-.51.38l-3.7.81v1.87c0 .41-.34.75-.75.75 -.42 0-.75-.34-.75-.75v-2.48c0-.36.24-.66.58-.74l3.4-.76 -1.92-4.57 -3.6-1.44c-.45 1.47-1.83 2.54-3.46 2.54 -1.625 0-3.01-1.08-3.46-2.55l-3.6 1.43 -1.92 4.56 3.4.75c.34.07.58.38.58.73v8.72h9.92v-2.25c0-.42.33-.75.75-.75 .41 0 .75.33.75.75v3c0 .41-.34.75-.75.75H6.14c-.42 0-.75-.34-.75-.75v-8.88l-3.7-.82c-.22-.05-.41-.19-.51-.39 -.11-.2-.12-.43-.03-.64l2.38-5.69c.07-.19.22-.34.41-.41l4.76-1.9c.23-.1.49-.07.69.07Z"/></svg>