<svg viewBox="0 0 24 24" xmlns="http://www.w3.org/2000/svg"><g fill-rule="evenodd"><path d="M8 8.75c.41 0 .75.33.75.75v1c0 .41-.34.75-.75.75 -.42 0-.75-.34-.75-.75v-1c0-.42.33-.75.75-.75Z"/><path d="M12 8.75c.41 0 .75.33.75.75v1c0 .41-.34.75-.75.75 -.42 0-.75-.34-.75-.75v-1c0-.42.33-.75.75-.75Z"/><path d="M16 8.75c.41 0 .75.33.75.75v1c0 .41-.34.75-.75.75 -.42 0-.75-.34-.75-.75v-1c0-.42.33-.75.75-.75Z"/><path d="M1.25 7c0-.42.33-.75.75-.75h20c.41 0 .75.33.75.75 0 5.93-4.82 10.75-10.75 10.75 -.42 0-.75-.34-.75-.75 0-.42.33-.75.75-.75 4.85 0 8.83-3.75 9.22-8.5H2.78c.27 3.468 2.46 6.39 5.52 7.73 .37.16.55.6.38.98 -.17.37-.61.55-.99.38 -3.8-1.66-6.45-5.45-6.45-9.86Z"/></g></svg>