<svg viewBox="0 0 24 24" xmlns="http://www.w3.org/2000/svg"><g fill-rule="evenodd"><path d="M1.3 16.22c.12-.31.42-.5.75-.48l3 .22c.41.03.72.39.69.8 -.04.41-.4.72-.81.69l-.59-.05 2.9 2.32h12.81l.65-1.093 -11.79-.89c-.42-.04-.73-.4-.7-.81 .03-.42.39-.73.8-.7l13 .97c.25.01.49.17.61.4 .11.23.11.5-.03.73l-1.5 2.5c-.14.22-.38.36-.65.36H6.94c-.18 0-.34-.06-.47-.17l-5-4c-.26-.21-.35-.56-.23-.87Z"/><path d="M11.64 2.83c.24-.14.53-.12.76.03l3 2c.07.05.14.11.19.18l5 7c.13.19.17.44.1.67 -.08.22-.26.4-.49.47l-8 2.5c-.23.07-.48.02-.67-.12 -.2-.15-.31-.37-.31-.61V3.45c0-.28.15-.54.39-.67Zm1.1 2.06v9.07l6.03-1.89 -4.32-6.05 -1.72-1.15Z"/></g></svg>