<svg viewBox="0 0 24 24" xmlns="http://www.w3.org/2000/svg"><g fill-rule="evenodd"><path d="M12 5.25c.25 0 .48.12.62.33l6 9c.08.12.12.26.12.41v3c0 .41-.34.75-.75.75h-3c-.26 0-.5-.14-.64-.36l-2.37-3.79 -2.37 3.78c-.14.21-.38.35-.64.35h-3c-.42 0-.75-.34-.75-.75v-3c0-.15.04-.3.12-.42l6-9.01c.13-.21.37-.34.62-.34Zm-5.25 9.97v2.02h1.83l2.77-4.45c.13-.22.37-.36.63-.36 .25 0 .49.13.63.35l2.77 4.44h1.83v-2.03l-5.25-7.88 -5.25 7.87Z"/><path d="M1.25 4c0-1.52 1.23-2.75 2.75-2.75h16c1.51 0 2.75 1.23 2.75 2.75v16c0 1.51-1.24 2.75-2.75 2.75h-6c-.42 0-.75-.34-.75-.75 0-.42.33-.75.75-.75h6c.69 0 1.25-.56 1.25-1.25V4c0-.7-.56-1.25-1.25-1.25H4c-.7 0-1.25.55-1.25 1.25v16c0 .69.55 1.25 1.25 1.25h6c.41 0 .75.33.75.75 0 .41-.34.75-.75.75H4c-1.52 0-2.75-1.24-2.75-2.75V4Z"/></g></svg>