<svg viewBox="0 0 24 24" xmlns="http://www.w3.org/2000/svg"><g fill-rule="evenodd"><path d="M12 7.25c.21 0 .42.09.56.25l3.5 3.99c.11.13.18.31.18.49v2c0 .41-.34.75-.75.75h-1.75c-.22 0-.43-.1-.57-.26l-1.19-1.36 -1.19 1.35c-.15.16-.35.25-.57.25H8.47c-.42 0-.75-.34-.75-.75v-2c0-.19.06-.36.18-.5l3.5-4c.14-.17.34-.26.56-.26Zm-2.75 5.03v.96h.65l1.52-1.75c.14-.17.34-.26.56-.26 .21 0 .42.09.56.25l1.52 1.74h.65v-.97L11.96 9.1l-2.75 3.14Z"/><path d="M4.25 5c0-.42.33-.75.75-.75h14c.41 0 .75.33.75.75v1c0 .41-.34.75-.75.75 -.42 0-.75-.34-.75-.75v-.25H5.75v10.5h12.5V10c0-.42.33-.75.75-.75 .41 0 .75.33.75.75v7c0 .41-.34.75-.75.75H5c-.42 0-.75-.34-.75-.75V5Z"/><path d="M9.75 17c0-.42.33-.75.75-.75h3c.41 0 .75.33.75.75v5c0 .41-.34.75-.75.75h-3c-.42 0-.75-.34-.75-.75v-5Zm1.5.75v3.5h1.5v-3.5h-1.5Z"/><path d="M9.75 2c0-.42.33-.75.75-.75h3c.41 0 .75.33.75.75v3c0 .41-.34.75-.75.75h-3c-.42 0-.75-.34-.75-.75V2Zm1.5.75v1.5h1.5v-1.5h-1.5Z"/></g></svg>