<svg viewBox="0 0 24 24" xmlns="http://www.w3.org/2000/svg"><g fill-rule="evenodd"><path d="M3.25 2c0-.42.33-.75.75-.75h16c.41 0 .75.33.75.75v20c0 .41-.34.75-.75.75H4c-.42 0-.75-.34-.75-.75v-2c0-.42.33-.75.75-.75 .41 0 .75.33.75.75v1.25h14.5V2.75H4.75V16c0 .41-.34.75-.75.75 -.42 0-.75-.34-.75-.75V2Z"/><path d="M1.25 2c0-.42.33-.75.75-.75h20c.41 0 .75.33.75.75 0 .41-.34.75-.75.75H2c-.42 0-.75-.34-.75-.75Z"/><path d="M1.25 22c0-.42.33-.75.75-.75h20c.41 0 .75.33.75.75 0 .41-.34.75-.75.75H2c-.42 0-.75-.34-.75-.75Z"/><path d="M12 7.75c-1.65 0-3.25 1.73-3.25 4.25 0 2.51 1.6 4.25 3.25 4.25 1.64 0 3.25-1.74 3.25-4.25 0-2.52-1.61-4.25-3.25-4.25ZM7.25 12c0-3.02 1.97-5.75 4.75-5.75 2.77 0 4.75 2.73 4.75 5.75 0 3.01-1.98 5.75-4.75 5.75 -2.78 0-4.75-2.74-4.75-5.75Z"/></g></svg>