<svg viewBox="0 0 24 24" xmlns="http://www.w3.org/2000/svg"><g fill-rule="evenodd"><path d="M4.51 9.7c-1.3.6-1.77 1.29-1.77 1.79s.46 1.18 1.76 1.79c1.23.57 2.99.95 4.98.95 1.98 0 3.74-.38 4.98-.96 1.29-.61 1.76-1.3 1.76-1.8 0-.51-.47-1.19-1.77-1.8 -1.24-.58-3-.96-4.99-.96 -1.99 0-3.75.37-4.99.95Zm-.64-1.36c1.47-.69 3.46-1.1 5.62-1.1 2.15 0 4.14.4 5.62 1.09 1.41.66 2.62 1.72 2.62 3.15s-1.22 2.49-2.63 3.15c-1.48.68-3.47 1.09-5.63 1.09 -2.16 0-4.15-.41-5.63-1.1 -1.42-.67-2.63-1.73-2.63-3.16 0-1.44 1.21-2.5 2.62-3.16Z"/><path d="M18.89 9.63c-.77.53-1.15 1.2-1.15 1.86 0 .65.37 1.32 1.14 1.86 .6.42 1.42.73 2.35.84v-2.21c0-.42.33-.75.75-.75 .41 0 .75.33.75.75v3c0 .41-.34.75-.75.75 -1.52 0-2.93-.43-3.97-1.17 -1.05-.74-1.79-1.82-1.79-3.09 0-1.28.74-2.36 1.78-3.09 1.04-.74 2.44-1.17 3.96-1.17 .41 0 .75.33.75.75 0 .41-.34.75-.75.75 -1.25 0-2.35.35-3.11.88Z"/><path d="M5.58 7.87c.34-.23.81-.14 1.04.2l2 3c.16.25.16.58 0 .83l-2 3c-.23.34-.7.43-1.05.2 -.35-.23-.44-.7-.21-1.04l1.72-2.59 -1.73-2.59c-.23-.35-.14-.82.2-1.05Z"/><path d="M13.206 14.27c.39.11.62.02.51.42l-1 3.5c-.07.23-.25.42-.49.5 -.24.07-.5.03-.69-.12l-4-3c-.34-.25-.4-.72-.15-1.05 .24-.34.71-.4 1.05-.15l3.12 2.34 .7-2.46c.11-.4.52-.13.92-.02Z"/><path d="M13.206 8.72c.39-.12.62-.03.51-.43l-1-3.5c-.07-.24-.25-.43-.49-.51 -.24-.08-.5-.04-.69.11l-4 3c-.34.24-.4.71-.15 1.05 .24.33.71.39 1.05.15l3.12-2.35 .7 2.45c.11.39.52.12.92.01Z"/></g></svg>