<svg viewBox="0 0 24 24" xmlns="http://www.w3.org/2000/svg"><g fill-rule="evenodd"><path d="M13 17.75c-.42 0-.75.33-.75.75 0 .41.33.75.75.75 .41 0 .75-.34.75-.75 0-.42-.34-.75-.75-.75Zm-2.25.75c0-1.25 1-2.25 2.25-2.25 1.24 0 2.25 1 2.25 2.25 0 1.24-1.01 2.25-2.25 2.25 -1.25 0-2.25-1.01-2.25-2.25Z"/><path d="M16 15.25c.41 0 .75.33.75.75v2.5c0 .41-.34.75-.75.75h-1.5c-.42 0-.75-.34-.75-.75 0-.42.33-.75.75-.75h.75V16c0-.42.33-.75.75-.75Z"/><path d="M1.46 1.46c.29-.3.76-.3 1.06 0l7 7c.29.29.29.76 0 1.06 -.3.29-.77.29-1.07 0l-7-7c-.3-.3-.3-.77 0-1.07Zm11 11c.29-.3.76-.3 1.06 0l9 9c.29.29.29.76 0 1.06 -.3.29-.77.29-1.07 0l-9-9c-.3-.3-.3-.77 0-1.07Z"/><path d="M3 2.25c.41 0 .75.33.75.75v17c0 .41-.34.75-.75.75 -.42 0-.75-.34-.75-.75V3c0-.42.33-.75.75-.75Z"/></g></svg>