<svg viewBox="0 0 24 24" xmlns="http://www.w3.org/2000/svg"><g fill-rule="evenodd"><path d="M22.47 5.92c.17.14.27.35.27.58v7.99c0 .41-.34.75-.75.75 -.42 0-.75-.34-.75-.75V7.4l-2.5.49c-.59.11-1.01.62-1.01 1.22v6.72c0 .59.42 1.1 1 1.22l3.39.67c.4.08.66.47.58.88 -.09.4-.48.66-.89.58l-3.4-.68c-1.29-.26-2.22-1.39-2.22-2.7V9.07c0-1.32.92-2.44 2.21-2.7l3.39-.68c.22-.05.44.01.62.15Z"/><path d="M1.25 10.5c0-1.52 1.23-2.75 2.75-2.75h13c.41 0 .75.33.75.75v8c0 .41-.34.75-.75.75H4c-1.52 0-2.75-1.24-2.75-2.75v-4ZM4 9.25c-.7 0-1.25.55-1.25 1.25v4c0 .69.55 1.25 1.25 1.25h12.25v-6.5H4Z"/><path d="M1.25 10.5c0-1.52 1.23-2.75 2.75-2.75h7c.24 0 .47.12.61.32s.17.46.08.69l-1.5 3.99c-.11.29-.39.48-.71.48h-7.5c-.42 0-.75-.34-.75-.75v-2ZM4 9.25c-.7 0-1.25.55-1.25 1.25v1.25h6.23l.93-2.5H3.99Z"/><path d="M11.25 5.5c0-.42.33-.75.75-.75h3c.41 0 .75.33.75.75v3c0 .41-.34.75-.75.75h-3c-.42 0-.75-.34-.75-.75v-3Zm1.5.75v1.5h1.5v-1.5h-1.5Z"/></g></svg>