<svg viewBox="0 0 24 24" xmlns="http://www.w3.org/2000/svg"><g fill-rule="evenodd"><path d="M6.72 4.3c.17-.08.37-.08.55 0l4.72 1.88 2.72-1.09c.38-.16.82.03.97.41 .15.38-.04.82-.42.97l-3 1.2c-.18.07-.38.07-.56 0L6.97 5.78l-4.25 1.7v12.38l3.97-1.59c.17-.08.37-.08.55 0l4.72 1.88 4.72-1.89c.17-.08.37-.08.55 0l3.97 1.58v-8.9c0-.42.33-.75.75-.75 .41 0 .75.33.75.75v10c0 .24-.13.48-.33.62 -.21.13-.47.16-.7.07l-4.73-1.89 -4.73 1.88c-.18.07-.38.07-.56 0l-4.73-1.89 -4.73 1.88c-.24.09-.5.06-.7-.08 -.21-.14-.33-.38-.33-.63v-14c0-.31.18-.59.47-.7l5-2ZM18.3 5.51c.15-.39.59-.58.97-.42l3 1.2c.38.15.57.59.41.97 -.16.38-.6.57-.98.41l-3-1.2c-.39-.16-.58-.6-.42-.98Z"/><path d="M14.25 14.5c0-1.25 1-2.25 2.25-2.25H22c.41 0 .75.33.75.75 0 .41-.34.75-.75.75h-5.5c-.42 0-.75.33-.75.75 0 1.24-1.01 2.25-2.25 2.25 -.42 0-.75.33-.75.75V21c0 .41-.34.75-.75.75 -.42 0-.75-.34-.75-.75v-3.5c0-1.25 1-2.25 2.25-2.25 .41 0 .75-.34.75-.75Z"/><path d="M9.5 5.25c.41 0 .75.33.75.75v3.75c0 1.1-.9 2-2 2 -.28 0-.5.22-.5.5v1.25c0 1.24-1.01 2.25-2.25 2.25H2c-.42 0-.75-.34-.75-.75 0-.42.33-.75.75-.75h3.5c.41 0 .75-.34.75-.75v-1.25c0-1.11.89-2 2-2 .27 0 .5-.23.5-.5V6c0-.42.33-.75.75-.75Z"/><path d="M17 3.75c-.7 0-1.25.55-1.25 1.25 0 .07.04.26.21.56 .15.28.37.58.61.87 .14.17.28.34.41.48 .13-.15.27-.31.41-.49 .23-.29.45-.6.61-.88 .16-.31.21-.49.21-.57 0-.7-.56-1.25-1.25-1.25ZM17 8c-.52.54-.52.54-.52.54l-.01-.01 -.01-.01 -.02-.02c-.02-.02-.04-.04-.07-.07 -.06-.06-.15-.15-.25-.25 -.2-.21-.47-.5-.73-.82 -.27-.33-.55-.71-.77-1.09 -.21-.37-.41-.83-.41-1.31 0-1.52 1.23-2.75 2.75-2.75 1.51 0 2.75 1.23 2.75 2.75 0 .47-.21.93-.41 1.3 -.22.38-.5.76-.77 1.08 -.27.32-.54.61-.73.81 -.1.1-.19.18-.25.24 -.03.02-.06.05-.07.06l-.02.01 -.01 0 -.01 0 -.01 0c-.01 0-.01 0-.52-.55Zm0 0l.51.54c-.29.27-.75.27-1.04 0l.51-.55Z"/></g></svg>