<svg viewBox="0 0 24 24" xmlns="http://www.w3.org/2000/svg"><g fill-rule="evenodd"><path d="M12.89 10.25c.3 0 .57.2.67.48l1.33 3.56c.8 2.15-.79 4.44-3.09 4.44 -2.18 0-3.75-2.07-3.18-4.16l.43-1.6c.07-.28.3-.49.58-.54 .28-.06.56.05.74.28l.54.72 1.23-2.78c.12-.28.4-.46.7-.45Zm-.09 2.72l-1.01 2.263c-.11.24-.34.41-.61.44 -.27.02-.53-.09-.69-.3l-.4-.53 -.04.12c-.32 1.14.54 2.26 1.73 2.26 1.25 0 2.11-1.26 1.67-2.43l-.7-1.85Z"/><path d="M3.25 8c0-.42.33-.75.75-.75h16c.41 0 .75.33.75.75v14c0 .41-.34.75-.75.75h-2c-.42 0-.75-.34-.75-.75 0-.42.33-.75.75-.75h1.25V8.75H4.75v12.5H14c.41 0 .75.33.75.75 0 .41-.34.75-.75.75H4c-.42 0-.75-.34-.75-.75V8Z"/><path d="M4.25 2c0-.42.33-.75.75-.75h14c.41 0 .75.33.75.75v6c0 .41-.34.75-.75.75H5c-.42 0-.75-.34-.75-.75V2Zm1.5.75v4.5h12.5v-4.5H5.75Z"/><path d="M7.5 4.25c.41 0 .75.33.75.75v3c0 .41-.34.75-.75.75 -.42 0-.75-.34-.75-.75V5c0-.42.33-.75.75-.75Z"/><path d="M10.5 4.25c.41 0 .75.33.75.75v3c0 .41-.34.75-.75.75 -.42 0-.75-.34-.75-.75V5c0-.42.33-.75.75-.75Z"/><path d="M13.5 4.25c.41 0 .75.33.75.75v3c0 .41-.34.75-.75.75 -.42 0-.75-.34-.75-.75V5c0-.42.33-.75.75-.75Z"/><path d="M16.5 4.25c.41 0 .75.33.75.75v3c0 .41-.34.75-.75.75 -.42 0-.75-.34-.75-.75V5c0-.42.33-.75.75-.75Z"/></g></svg>