<svg viewBox="0 0 24 24" xmlns="http://www.w3.org/2000/svg"><g fill-rule="evenodd"><path d="M10.28 10.41c1-.81 2.43-.81 3.43 0l4 3.2c.65.52 1.03 1.31 1.03 2.14v3.28c0 1.94-1.97 3.27-3.78 2.55l-2.98-1.2L9 21.57c-1.81.72-3.78-.61-3.78-2.56v-3.29c0-.84.37-1.63 1.03-2.15l.24-.2c.32-.26.79-.21 1.05.11 .25.32.2.79-.12 1.05l-.25.19c-.3.23-.47.59-.47.97v3.28c0 .88.89 1.48 1.71 1.16l3.25-1.31c.17-.08.37-.08.55 0l3.25 1.3c.82.32 1.71-.28 1.71-1.17v-3.29c0-.38-.18-.74-.47-.98l-4-3.2c-.46-.37-1.11-.37-1.57 0l-.26.2c-.33.25-.8.2-1.06-.12 -.26-.33-.21-.8.11-1.06l.25-.21Z"/><path d="M14.2 3.29c-.27.4-.46 1-.46 1.7s.19 1.3.45 1.7c.27.4.56.54.79.54 .22 0 .51-.14.79-.55 .26-.41.45-1.01.45-1.71 0-.71-.2-1.31-.46-1.71 -.28-.41-.57-.55-.8-.55 -.23 0-.52.13-.8.54Zm-1.25-.84c.45-.68 1.15-1.22 2.03-1.22 .88 0 1.58.53 2.03 1.21 .45.68.71 1.58.71 2.53 0 .95-.26 1.85-.72 2.53 -.46.67-1.16 1.21-2.04 1.21 -.89 0-1.59-.54-2.04-1.22 -.46-.69-.72-1.59-.72-2.54 0-.96.25-1.86.71-2.54Z"/><path d="M8.2 3.29c-.27.4-.46 1-.46 1.7s.19 1.3.45 1.7c.27.4.56.54.79.54 .22 0 .51-.14.79-.55 .26-.41.45-1.01.45-1.71 0-.71-.2-1.31-.46-1.71 -.28-.41-.57-.55-.8-.55 -.23 0-.52.13-.8.54Zm-1.25-.84c.45-.68 1.15-1.22 2.03-1.22 .88 0 1.58.53 2.03 1.21 .45.68.71 1.58.71 2.53 0 .95-.26 1.85-.72 2.53 -.46.67-1.16 1.21-2.04 1.21 -.89 0-1.59-.54-2.04-1.22 -.46-.69-.72-1.59-.72-2.54 0-.96.25-1.86.71-2.54Z"/><path d="M3.2 8.29c-.27.4-.46 1-.46 1.7s.19 1.3.45 1.7c.27.4.56.54.79.54 .22 0 .51-.14.79-.55 .26-.41.45-1.01.45-1.71 0-.71-.2-1.31-.46-1.71 -.28-.41-.57-.55-.8-.55 -.23 0-.52.13-.8.54Zm-1.25-.84c.45-.68 1.15-1.22 2.03-1.22 .88 0 1.58.53 2.03 1.21 .45.68.71 1.58.71 2.53 0 .95-.26 1.85-.72 2.53 -.46.67-1.16 1.21-2.04 1.21 -.89 0-1.59-.54-2.04-1.22 -.46-.69-.72-1.59-.72-2.54 0-.96.25-1.86.71-2.54Z"/><path d="M19.2 8.29c-.27.4-.46 1-.46 1.7s.19 1.3.45 1.7c.27.4.56.54.79.54 .22 0 .51-.14.79-.55 .26-.41.45-1.01.45-1.71 0-.71-.2-1.31-.46-1.71 -.28-.41-.57-.55-.8-.55 -.23 0-.52.13-.8.54Zm-1.25-.84c.45-.68 1.15-1.22 2.03-1.22 .88 0 1.58.53 2.03 1.21 .45.68.71 1.58.71 2.53 0 .95-.26 1.85-.72 2.53 -.46.67-1.16 1.21-2.04 1.21 -.89 0-1.59-.54-2.04-1.22 -.46-.69-.72-1.59-.72-2.54 0-.96.25-1.86.71-2.54Z"/></g></svg>