<svg viewBox="0 0 24 24" xmlns="http://www.w3.org/2000/svg"><g fill-rule="evenodd"><path d="M6.92 7.09c-.42-3.1 1.99-5.85 5.11-5.85 3.08 0 5.48 2.69 5.12 5.76l-.43 3.57c-.05.41-.43.7-.84.65 -.42-.05-.71-.43-.66-.84l.42-3.58c.25-2.18-1.45-4.09-3.64-4.09 -2.22 0-3.93 1.95-3.63 4.14l.33 2.5c.05.41-.24.78-.65.84 -.42.05-.79-.24-.85-.65l-.34-2.51Zm1.17 6.66c.41.05.69.43.64.84l-.35 2.59c-.12.88.09 1.71.53 2.4 .22.34.12.81-.23 1.03 -.35.22-.82.12-1.04-.23 -.63-.98-.93-2.17-.76-3.41l.34-2.6c.05-.42.43-.7.84-.65Zm7.78 1c.4-.07.79.21.85.62l.23 1.5c.47 3.07-1.91 5.85-5.03 5.85 -.42 0-.75-.34-.75-.75 0-.42.33-.75.75-.75 2.19 0 3.87-1.96 3.54-4.128l-.24-1.51c-.07-.41.21-.8.62-.86Z"/><path d="M4.25 11.85c0-1.97 1.73-3.48 3.68-3.2l9.05 1.29c1.58.22 2.76 1.58 2.76 3.19 0 1.96-1.74 3.47-3.69 3.19l-9.06-1.3c-1.59-.23-2.77-1.59-2.77-3.2Zm3.46-1.71c-1.04-.15-1.97.65-1.97 1.7 0 .85.63 1.58 1.48 1.7l9.05 1.29c1.03.14 1.96-.66 1.96-1.71 0-.86-.64-1.59-1.49-1.71l-9.06-1.3Z"/><path d="M2 1.25c.41 0 .75.33.75.75v4.55c0 .53.34 1.01.85 1.18l3.13 1.04c.39.13.6.55.47.94 -.14.39-.56.6-.95.47L3.11 9.13C1.98 8.75 1.22 7.7 1.22 6.52V1.96c0-.42.33-.75.75-.75Z"/><path d="M22 23.25c-.42 0-.75-.34-.75-.75v-4.62c0-.53-.33-.99-.82-1.18l-2.71-1.02c-.39-.15-.59-.58-.44-.97 .14-.39.57-.59.96-.44l2.7 1.01c1.07.4 1.78 1.42 1.78 2.57v4.61c0 .41-.34.75-.75.75Z"/></g></svg>