<svg viewBox="0 0 24 24" xmlns="http://www.w3.org/2000/svg"><g fill-rule="evenodd"><path d="M7.25 4c0-1.52 1.23-2.75 2.75-2.75h4c1.51 0 2.75 1.23 2.75 2.75v4c0 .41-.34.75-.75.75H8c-.42 0-.75-.34-.75-.75V4ZM10 2.75c-.7 0-1.25.55-1.25 1.25v3.25h6.5V4c0-.7-.56-1.25-1.25-1.25h-4Z"/><path d="M6.25 8c0-.42.33-.75.75-.75h10c.41 0 .75.33.75.75v12c0 1.51-1.24 2.75-2.75 2.75H9c-1.52 0-2.75-1.24-2.75-2.75v-5c0-.42.33-.75.75-.75 .41 0 .75.33.75.75v5c0 .69.55 1.25 1.25 1.25h6c.69 0 1.25-.56 1.25-1.25V8.75h-8.5V11c0 .41-.34.75-.75.75 -.42 0-.75-.34-.75-.75V8Z"/><path d="M6.27 7.8c.08-.33.38-.56.72-.56h9.99c.28 0 .54.16.67.41 .12.25.09.55-.08.78l-3 4c-.23.3-.65.38-.98.2l-7-4.01c-.3-.17-.45-.52-.36-.85Zm3.54.94l3.97 2.27 1.7-2.28H9.8Z"/></g></svg>