<svg viewBox="0 0 24 24" xmlns="http://www.w3.org/2000/svg"><g fill-rule="evenodd"><path d="M6.39 3.6C5.31 2.52 3.9 2.53 3.22 3.21c-.69.68-.7 2.08.38 3.16 1.07 1.07 2.48 1.06 3.16.38 .68-.69.69-2.09-.39-3.17ZM2.16 2.15c1.43-1.44 3.81-1.09 5.28.38C8.91 4 9.26 6.37 7.82 7.81 6.38 9.24 4 8.89 2.53 7.42 1.05 5.94.7 3.57 2.14 2.13Z"/><path d="M15.05 13.88c1.07-1.08 2.81-1.08 3.88 0l3.58 3.58c.29.29.29.76 0 1.06 -.3.29-.77.29-1.07 0l-3.59-3.59c-.49-.49-1.28-.49-1.77 0l-.06.05 4.46 4.46c.29.29.29.76 0 1.06 -.3.29-.77.29-1.07 0l-4.47-4.47 -.06.05c-.49.48-.49 1.27 0 1.76l3.58 3.58c.29.29.29.76 0 1.06 -.3.29-.77.29-1.07 0l-3.59-3.59c-1.08-1.08-1.08-2.82 0-3.89l1.17-1.18Z"/><path d="M6.96 6.96c.29-.3.76-.3 1.06 0l2.99 3c.29.29.29.76 0 1.06 -.3.29-.77.29-1.07 0l-3-3c-.3-.3-.3-.77 0-1.07Zm6 6c.29-.3.76-.3 1.06 0l1.5 1.5c.29.29.29.76 0 1.06 -.3.29-.77.29-1.07 0l-1.5-1.5c-.3-.3-.3-.77 0-1.07Z"/></g></svg>