<svg viewBox="0 0 24 24" xmlns="http://www.w3.org/2000/svg"><g fill-rule="evenodd"><path d="M6.25 12c0-1.52 1.23-2.75 2.75-2.75h11c1.51 0 2.75 1.23 2.75 2.75v8c0 1.51-1.24 2.75-2.75 2.75h-1c-.42 0-.75-.34-.75-.75 0-.42.33-.75.75-.75h1c.69 0 1.25-.56 1.25-1.25v-8c0-.7-.56-1.25-1.25-1.25H9c-.7 0-1.25.55-1.25 1.25v8c0 .69.55 1.25 1.25 1.25h6c.41 0 .75.33.75.75 0 .41-.34.75-.75.75H9c-1.52 0-2.75-1.24-2.75-2.75v-8Z"/><path d="M14.5 7.25c.41 0 .75.33.75.75v2c0 .41-.34.75-.75.75 -.42 0-.75-.34-.75-.75V8c0-.42.33-.75.75-.75Z"/><path d="M6.25 4c0-1.52 1.23-2.75 2.75-2.75h11c1.51 0 2.75 1.23 2.75 2.75v10c0 .41-.34.75-.75.75 -.42 0-.75-.34-.75-.75V4c0-.7-.56-1.25-1.25-1.25H9c-.7 0-1.25.55-1.25 1.25v10c0 .41-.34.75-.75.75 -.42 0-.75-.34-.75-.75V4Z"/><path d="M1.57 10.37c.2-.14.46-.17.69-.08l5 2c.28.11.47.38.47.69v4c0 .24-.13.48-.33.62 -.21.13-.47.16-.7.07l-5-2c-.29-.12-.48-.39-.48-.7v-4c0-.25.12-.49.32-.63Zm1.17 1.72v2.38l3.5 1.4v-2.39l-3.5-1.4Z"/></g></svg>