<svg viewBox="0 0 24 24" xmlns="http://www.w3.org/2000/svg"><g fill-rule="evenodd"><path d="M4.25 2c0-.42.33-.75.75-.75h14c.41 0 .75.33.75.75v3c0 .41-.34.75-.75.75H5c-.42 0-.75-.34-.75-.75V2Zm1.5.75v1.5h12.5v-1.5H5.75Z"/><path d="M7.41 4.53c.14-.18.35-.29.58-.29h8c.22 0 .44.1.58.28 .14.17.19.41.14.63l-.95 4c-.1.4-.5.65-.91.55 -.41-.1-.66-.5-.56-.91l.72-3.08H8.9l3.05 12.97 1.38-5.9c.09-.41.49-.66.9-.56 .4.09.65.49.55.9l-2.12 9c-.08.33-.39.57-.74.57s-.66-.24-.74-.58l-4-17c-.06-.23-.01-.46.14-.64Z"/></g></svg>