<svg viewBox="0 0 24 24" xmlns="http://www.w3.org/2000/svg"><g fill-rule="evenodd"><path d="M12 15.25c.41 0 .75.33.75.75v6c0 .41-.34.75-.75.75 -.42 0-.75-.34-.75-.75v-6c0-.42.33-.75.75-.75Z"/><path d="M7 15.25c.41 0 .75.33.75.75v6c0 .41-.34.75-.75.75 -.42 0-.75-.34-.75-.75v-6c0-.42.33-.75.75-.75Z"/><path d="M16.84 15.25c-.42 0-.75.33-.75.75v6c0 .41.33.75.75.75 .41 0 .75-.34.75-.75v-6c0-.42-.34-.75-.75-.75Z"/><path d="M9.07 4.48C8.26 5.6 7.74 7.19 7.74 8.99c0 1.79.52 3.38 1.32 4.51 .8 1.12 1.84 1.73 2.92 1.73 1.07 0 2.12-.61 2.92-1.74 .8-1.13 1.32-2.72 1.32-4.52 0-.42.33-.75.75-.75 .41 0 .75.33.75.75 0 2.07-.6 3.97-1.61 5.38 -1.01 1.4-2.46 2.36-4.15 2.36 -1.69 0-3.15-.96-4.15-2.37C6.8 12.93 6.2 11.02 6.2 8.95c0-2.08.59-3.98 1.6-5.39 1-1.41 2.46-2.37 4.14-2.37 2.07 0 3.79 1.44 4.77 3.41 .18.37.03.82-.34 1 -.38.18-.83.03-1.01-.34 -.83-1.66-2.12-2.59-3.44-2.59 -1.08 0-2.13.6-2.93 1.73Z"/><path d="M17 2.75c-.65 0-1.27.21-1.83.61 -.34.24-.81.16-1.05-.18 -.25-.34-.17-.81.17-1.05 .79-.57 1.71-.9 2.7-.9 1.68 0 3.14.95 4.14 2.36 1 1.4 1.6 3.31 1.6 5.38s-.6 3.97-1.61 5.38c-1.01 1.4-2.46 2.36-4.15 2.36 -.99 0-1.91-.34-2.71-.9 -.34-.25-.42-.71-.18-1.05 .24-.34.7-.42 1.04-.18 .56.4 1.18.61 1.83.61 1.07 0 2.12-.61 2.92-1.74 .8-1.13 1.32-2.72 1.32-4.52 0-1.8-.53-3.39-1.33-4.52 -.81-1.13-1.85-1.74-2.93-1.74Z"/><path d="M6.99 2.75c.64 0 1.26.21 1.82.61 .33.24.8.16 1.04-.18 .24-.34.16-.81-.18-1.05 -.8-.57-1.72-.9-2.71-.9 -1.69 0-3.15.95-4.15 2.36C1.8 4.99 1.2 6.9 1.2 8.97c0 2.07.59 3.97 1.6 5.38 1 1.4 2.46 2.36 4.14 2.36 .98 0 1.9-.34 2.7-.9 .33-.25.41-.71.17-1.05 -.25-.34-.71-.42-1.05-.18 -.57.4-1.19.61-1.83.61 -1.08 0-2.13-.61-2.93-1.74 -.81-1.13-1.33-2.72-1.33-4.52 0-1.8.52-3.39 1.32-4.52 .8-1.13 1.84-1.74 2.92-1.74Z"/></g></svg>