<svg viewBox="0 0 24 24" xmlns="http://www.w3.org/2000/svg"><g fill-rule="evenodd"><path d="M6.25 9c0-2.63 2.12-4.75 4.75-4.75h2c2.62 0 4.75 2.12 4.75 4.75v13c0 .41-.34.75-.75.75H7c-.42 0-.75-.34-.75-.75v-3c0-.42.33-.75.75-.75 .41 0 .75.33.75.75v2.25h8.5V9c0-1.8-1.46-3.25-3.25-3.25h-2C9.2 5.75 7.75 7.2 7.75 9v6c0 .41-.34.75-.75.75 -.42 0-.75-.34-.75-.75V9Z"/><path d="M9.25 2c0-.42.33-.75.75-.75h4c.41 0 .75.33.75.75v3c0 .41-.34.75-.75.75h-4c-.42 0-.75-.34-.75-.75V2Zm1.5.75v1.5h2.5v-1.5h-2.5Z"/><path d="M12.55 10.99l-.56.5 -.56-.51c.14-.16.34-.25.55-.25 .21 0 .41.09.55.24Zm-.56 1.68c-.05.06-.1.12-.15.19 -.18.24-.35.49-.46.72 -.06.11-.1.2-.13.28 -.03.07-.03.1-.03.11 0 0 0 0 0 0 0 .41.33.75.75.75 .41 0 .75-.34.75-.75 0 0 0 0 0 0 -.01-.01-.01-.04-.03-.12 -.03-.08-.07-.18-.13-.29 -.12-.23-.29-.49-.46-.73 -.05-.07-.1-.13-.15-.2Zm0-1.19c-.56-.51-.56-.51-.56-.51l-.01 0 -.01 0 -.02.01c-.02.01-.03.03-.06.05 -.05.05-.11.12-.19.21 -.15.17-.35.42-.55.7 -.2.27-.41.59-.58.91 -.16.29-.32.68-.32 1.08 0 1.24 1 2.25 2.25 2.25 1.24 0 2.25-1.01 2.25-2.25 0-.4-.17-.79-.32-1.09 -.17-.32-.38-.64-.58-.92 -.21-.28-.4-.53-.55-.71 -.08-.09-.14-.17-.19-.22 -.03-.03-.04-.05-.06-.06l-.02-.02 -.01-.01 -.01-.01c-.01 0-.01-.01-.56.5Z"/></g></svg>