<svg viewBox="0 0 24 24" xmlns="http://www.w3.org/2000/svg"><path fill="#FFC44D" d="M12 1.25C6.06 1.25 1.25 6.06 1.25 12c0 5.93 4.81 10.75 10.75 10.75 5.93 0 10.75-4.82 10.75-10.75 0-5.94-4.82-10.75-10.75-10.75Z"/><g fill="#5E94FF" fill-rule="evenodd"><path d="M21.148 1.62l0 0 .01.02c.01.02.02.04.04.08 .04.07.1.18.17.31 .14.26.33.61.53 1 .19.38.39.81.54 1.2 .14.36.28.8.28 1.17 0 1.24-.98 2.31-2.25 2.31 -1.28 0-2.25-1.07-2.25-2.32 0-.38.14-.82.28-1.18 .15-.4.35-.82.54-1.21 .19-.39.38-.75.53-1.01 .07-.14.13-.24.17-.32 .02-.04.03-.07.04-.09l.01-.03 0-.01c.13-.24.38-.38.64-.38s.51.14.64.37Zm-.65.37l-.65-.38s0 0 .64.37Z"/><g fill="#C58400"><path d="M7.75 15.5c0-.42.33-.75.75-.75h7c.41 0 .75.33.75.75 0 .41-.34.75-.75.75h-7c-.42 0-.75-.34-.75-.75Z"/><path d="M5.75 9c0-.42.33-.75.75-.75h3c.41 0 .75.33.75.75 0 .41-.34.75-.75.75h-3c-.42 0-.75-.34-.75-.75Z"/><path d="M13.75 9c0-.42.33-.75.75-.75h3c.41 0 .75.33.75.75 0 .41-.34.75-.75.75h-3c-.42 0-.75-.34-.75-.75Z"/></g></g></svg>