<svg viewBox="0 0 24 24" xmlns="http://www.w3.org/2000/svg"><path fill="#EE4D4D" d="M12 1.25C6.06 1.25 1.25 6.06 1.25 12c0 5.93 4.81 10.75 10.75 10.75 5.93 0 10.75-4.82 10.75-10.75 0-5.94-4.82-10.75-10.75-10.75Z"/><g fill="#CB3B3B" fill-rule="evenodd"><path d="M17.69 8.72c.15.38-.04.82-.42.97l-2.5.99c-.39.15-.83-.04-.98-.42 -.16-.39.03-.83.41-.98l2.5-1c.38-.16.82.03.97.41Z"/><path d="M6.3 8.72c-.16.38.03.82.41.97l2.5.99c.38.15.82-.04.97-.42 .15-.39-.04-.83-.42-.98l-2.5-1c-.39-.16-.83.03-.98.41Z"/></g><path fill="#CB3B3B" d="M8 17.75c-.42 0-.75-.34-.75-.75 0-2.63 2.12-4.75 4.75-4.75 2.62 0 4.75 2.12 4.75 4.75 0 .41-.34.75-.75.75H8Z"/><g fill="#EE4D4D" fill-rule="evenodd"><path d="M2 1.25c.41 0 .75.33.75.75v.6c0 .52.32.99.82 1.17l1.42.51c.38.14.58.57.44.96 -.15.38-.58.58-.97.44l-1.43-.52c-1.09-.4-1.81-1.43-1.81-2.59v-.61c0-.42.33-.75.75-.75Z"/><path d="M22 1.25c-.42 0-.75.33-.75.75v.61c0 .52-.33.98-.82 1.17l-1.37.51c-.39.14-.59.57-.44.96 .14.38.57.58.96.43l1.36-.52c1.07-.41 1.78-1.43 1.78-2.58v-.62c0-.42-.34-.75-.75-.75Z"/></g></svg>