<svg viewBox="0 0 24 24" xmlns="http://www.w3.org/2000/svg"><path fill="#FFC44D" d="M12 1.25C6.06 1.25 1.25 6.06 1.25 12c0 5.93 4.81 10.75 10.75 10.75 5.93 0 10.75-4.82 10.75-10.75 0-5.94-4.82-10.75-10.75-10.75Z"/><g fill="#C58400"><path d="M8 6.75c-1.25 0-2.25 1-2.25 2.25 0 1.24 1 2.25 2.25 2.25 1.24 0 2.25-1.01 2.25-2.25 0-1.25-1.01-2.25-2.25-2.25Z"/><path d="M16 6.75c-1.25 0-2.25 1-2.25 2.25 0 1.24 1 2.25 2.25 2.25 1.24 0 2.25-1.01 2.25-2.25 0-1.25-1.01-2.25-2.25-2.25Z"/></g><g fill="#5E94FF" fill-rule="evenodd"><path d="M21.148 1.62l0 0 .01.02c.01.02.02.04.04.08 .04.07.1.18.17.31 .14.26.33.61.53 1 .19.38.39.81.54 1.2 .14.36.28.8.28 1.17 0 1.24-.98 2.31-2.25 2.31 -1.28 0-2.25-1.07-2.25-2.32 0-.38.14-.82.28-1.18 .15-.4.35-.82.54-1.21 .19-.39.38-.75.53-1.01 .07-.14.13-.24.17-.32 .02-.04.03-.07.04-.09l.01-.03 0-.01c.13-.24.38-.38.64-.38s.51.14.64.37Zm-.65.37l-.65-.38s0 0 .64.37Z"/><path fill="#C58400" d="M13.45 16.06c-.92-.46-2-.46-2.91 0l-1.22.6c-.38.18-.83.03-1.01-.34 -.19-.38-.04-.83.33-1.01l1.21-.61c1.33-.67 2.91-.67 4.24 0l1.21.6c.37.18.52.63.33 1s-.64.52-1.01.33l-1.22-.61Z"/></g></svg>