<svg viewBox="0 0 24 24" xmlns="http://www.w3.org/2000/svg"><path fill="#FFC44D" d="M12 1.25C6.06 1.25 1.25 6.06 1.25 12c0 5.93 4.81 10.75 10.75 10.75 5.93 0 10.75-4.82 10.75-10.75 0-5.94-4.82-10.75-10.75-10.75Z"/><g fill="#C58400" fill-rule="evenodd"><path d="M17.526 6.46c.29.29.29.76 0 1.06l-3.03 3.06c-.3.29-.77.29-1.07 0 -.3-.3-.3-.77-.01-1.07l3.02-3.07c.29-.3.76-.3 1.06-.01Z"/><path d="M10.526 6.46c.29.29.29.76 0 1.06l-3.03 3.06c-.3.29-.77.29-1.07 0 -.3-.3-.3-.77-.01-1.07l3.02-3.07c.29-.3.76-.3 1.06-.01Z"/><path d="M13.45 6.46c-.3.29-.3.76-.01 1.06l3.02 3.06c.29.29.76.29 1.06 0 .29-.3.29-.77 0-1.07l-3.03-3.07c-.3-.3-.77-.3-1.07-.01Z"/><path d="M6.45 6.46c-.3.29-.3.76-.01 1.06l3.02 3.06c.29.29.76.29 1.06 0 .29-.3.29-.77 0-1.07L7.49 6.44c-.3-.3-.77-.3-1.07-.01Z"/><path d="M13.45 14.93c-.92.45-2 .45-2.91 0l-1.22-.61c-.38-.19-.83-.04-1.01.33 -.19.37-.04.82.33 1l1.21.6c1.33.66 2.91.66 4.24 0l1.21-.61c.37-.19.52-.64.33-1.01 -.19-.38-.64-.53-1.01-.34l-1.22.6Z"/></g></svg>