<svg viewBox="0 0 24 24" xmlns="http://www.w3.org/2000/svg"><path fill="#FFC44D" d="M12 1.25C6.06 1.25 1.25 6.06 1.25 12c0 5.93 4.81 10.75 10.75 10.75 5.93 0 10.75-4.82 10.75-10.75 0-5.94-4.82-10.75-10.75-10.75Z"/><path fill="#C58400" fill-rule="evenodd" d="M13.45 14.43c-.92.45-2 .45-2.91 0l-1.22-.61c-.38-.19-.83-.04-1.01.33 -.19.37-.04.82.33 1l1.21.6c1.33.66 2.91.66 4.24 0l1.21-.61c.37-.19.52-.64.33-1.01 -.19-.38-.64-.53-1.01-.34l-1.22.6Z"/><g fill="#C58400"><path d="M8.5 6.75c1.24 0 2.25 1 2.25 2.25 0 1.24-1.01 2.25-2.25 2.25 -1.25 0-2.25-1.01-2.25-2.25 0-1.25 1-2.25 2.25-2.25Z"/><path fill="#C58400" fill-rule="evenodd" d="M13.25 9c0-.42.33-.75.75-.75h3c.41 0 .75.33.75.75 0 .41-.34.75-.75.75h-3c-.42 0-.75-.34-.75-.75Z"/></g></svg>