<svg viewBox="0 0 24 24" xmlns="http://www.w3.org/2000/svg"><path fill="#FFC44D" d="M12 1.25C6.06 1.25 1.25 6.06 1.25 12c0 5.93 4.81 10.75 10.75 10.75 5.93 0 10.75-4.82 10.75-10.75 0-5.94-4.82-10.75-10.75-10.75Z"/><g fill="#C58400" fill-rule="evenodd"><path d="M16.69 9.86c-.42-.28-.97-.28-1.39 0l-.4.26c-.35.22-.82.13-1.05-.21 -.23-.35-.14-.82.2-1.05l.39-.27c.92-.62 2.12-.62 3.05 0l.39.26c.34.22.43.69.2 1.04 -.23.34-.7.43-1.04.2l-.4-.27Z"/><path d="M8.69 9.86c-.42-.28-.97-.28-1.39 0l-.4.26c-.35.22-.82.13-1.05-.21 -.23-.35-.14-.82.2-1.05l.39-.27c.92-.62 2.12-.62 3.05 0l.39.26c.34.22.43.69.2 1.04 -.23.34-.7.43-1.05.2l-.4-.27Z"/><path d="M13.45 14.93c-.92.45-2 .45-2.91 0l-1.22-.61c-.38-.19-.83-.04-1.01.33 -.19.37-.04.82.33 1l1.21.6c1.33.66 2.91.66 4.24 0l1.21-.61c.37-.19.52-.64.33-1.01 -.19-.38-.64-.53-1.01-.34l-1.22.6Z"/></g><g fill="#EE4D4D"><path d="M10.39 15.56c.14-.2.36-.32.6-.32h3c.28 0 .54.16.67.41l.24.48c.6 1.2-.01 2.67-1.29 3.09 -1.17.38-2.42-.25-2.81-1.41l-.54-1.61c-.08-.23-.04-.49.1-.68Z"/><path fill="#EE4D4D" fill-rule="evenodd" d="M14.13 14.59l-.69.34c-.92.45-2 .45-2.91 0l-.8-.4c0 .06.01.13.03.2l.58 1.75c1.21.44 2.57.37 3.75-.22l.68-.35 -.68-1.35Z"/></g></svg>