<svg viewBox="0 0 24 24" xmlns="http://www.w3.org/2000/svg"><path fill="#FFC44D" d="M12 1.25C6.06 1.25 1.25 6.06 1.25 12c0 5.93 4.81 10.75 10.75 10.75 5.93 0 10.75-4.82 10.75-10.75 0-5.94-4.82-10.75-10.75-10.75Z"/><path fill="#C58400" fill-rule="evenodd" d="M10.653 16.25c.73 0 1.45-.26 2.03-.72l1.4-1.13c.32-.26.79-.21 1.05.11 .25.32.2.79-.12 1.05l-1.41 1.12c-.85.67-1.89 1.04-2.97 1.04h-.66c-.42 0-.76-.34-.76-.75 0-.42.33-.75.75-.75h.65Z"/><g fill="#C58400"><path d="M9 6.75c-1.25 0-2.25 1-2.25 2.25 0 1.24 1 2.25 2.25 2.25 1.24 0 2.25-1.01 2.25-2.25 0-1.25-1.01-2.25-2.25-2.25Z"/><path d="M16 6.75c-1.25 0-2.25 1-2.25 2.25 0 1.24 1 2.25 2.25 2.25 1.24 0 2.25-1.01 2.25-2.25 0-1.25-1.01-2.25-2.25-2.25Z"/><g fill="#C58400" fill-rule="evenodd"><path d="M5.25 7.5c0-.42.33-.75.75-.75h3c.41 0 .75.33.75.75 0 .41-.34.75-.75.75H6c-.42 0-.75-.34-.75-.75Z"/><path d="M12.25 7.5c0-.42.33-.75.75-.75h3c.41 0 .75.33.75.75 0 .41-.34.75-.75.75h-3c-.42 0-.75-.34-.75-.75Z"/></g></g></svg>