<svg viewBox="0 0 24 24" xmlns="http://www.w3.org/2000/svg"><path fill="#FFC44D" d="M12 1.25C6.06 1.25 1.25 6.06 1.25 12c0 5.93 4.81 10.75 10.75 10.75 5.93 0 10.75-4.82 10.75-10.75 0-5.94-4.82-10.75-10.75-10.75Z"/><g fill="#C58400" fill-rule="evenodd"><path d="M16.69 9.86c-.42-.28-.97-.28-1.39 0l-.4.26c-.35.22-.82.13-1.05-.21 -.23-.35-.14-.82.2-1.05l.39-.27c.92-.62 2.12-.62 3.05 0l.39.26c.34.22.43.69.2 1.04 -.23.34-.7.43-1.04.2l-.4-.27Z"/><path d="M8.69 9.86c-.42-.28-.97-.28-1.39 0l-.4.26c-.35.22-.82.13-1.05-.21 -.23-.35-.14-.82.2-1.05l.39-.27c.92-.62 2.12-.62 3.05 0l.39.26c.34.22.43.69.2 1.04 -.23.34-.7.43-1.05.2l-.4-.27Z"/><path d="M9.53 17.77c-.18-.38-.02-.83.36-1l4.12-1.93c.37-.18.82-.02.99.36 .17.37.01.82-.37.99l-4.13 1.92c-.38.17-.83.01-1-.37Z"/></g></svg>