<svg viewBox="0 0 24 24" xmlns="http://www.w3.org/2000/svg"><g fill-rule="evenodd"><path d="M1.23 16.64c-.31-.38-.31-.91 0-1.29l5-6c.18-.23.47-.36.76-.36h15c.55 0 1 .44 1 1v12c0 .55-.45 1-1 1h-15c-.3 0-.58-.14-.77-.36l-5-6Zm12.76-5.15c.32 0 .63.16.82.43l1.2 1.76 2.05.6c.31.09.56.33.66.65 .1.31.04.65-.16.91l-1.31 1.69 .05 2.13c0 .32-.15.64-.42.83 -.27.19-.62.24-.93.13l-2.02-.72 -2.02.71c-.32.11-.66.06-.93-.14s-.43-.51-.42-.84l.05-2.14 -1.31-1.7c-.21-.27-.27-.61-.16-.92 .1-.32.35-.56.66-.66l2.05-.61 1.2-1.77c.18-.28.49-.44.82-.44Z"/><path d="M11.293 1.29c.39-.4 1.02-.4 1.41 0l2 2 -1.42 1.41 -1.3-1.3 -1.3 1.29 -1.42-1.42 2-2Z"/><path d="M11 10V2h2v8h-2Z"/><path d="M17.293 3.29c.39-.4 1.02-.4 1.41 0l2 2 -1.42 1.41 -1.3-1.3 -1.3 1.29 -1.42-1.42 2-2Z"/><path d="M17 10V4h2v6h-2Z"/><path d="M5.29 3.29c.39-.4 1.02-.4 1.41 0l2 2L7.28 6.7l-1.3-1.3 -1.3 1.29 -1.42-1.42 2-2Z"/><path d="M5 11V4h2v7H5Z"/></g></svg>