<svg viewBox="0 0 24 24" xmlns="http://www.w3.org/2000/svg"><g fill-rule="evenodd"><path d="M1 7c0-1.66 1.34-3 3-3h16c1.65 0 3 1.34 3 3v13c0 1.65-1.35 3-3 3H4c-1.66 0-3-1.35-3-3V7Zm3-1c-.56 0-1 .44-1 1v13c0 .55.44 1 1 1h16c.55 0 1-.45 1-1V7c0-.56-.45-1-1-1H4Z"/><path d="M8 4c0-1.66 1.34-3 3-3h2c1.65 0 3 1.34 3 3v1c0 .55-.45 1-1 1H9c-.56 0-1-.45-1-1V4Zm3-1c-.56 0-1 .44-1 1h4c0-.56-.45-1-1-1h-2Z"/><path d="M4.88 4c-2.1 0-3.55 2.09-2.81 4.05l1.98 5.29c.14.39.51.64.93.64h4.99 4 5c.41 0 .79-.26.93-.65l1.98-5.3c.73-1.97-.72-4.06-2.81-4.06H4.84Zm5.11 5c-.56 0-1 .44-1 1v6c0 .55.44 1 1 1h4c.55 0 1-.45 1-1v-6c0-.56-.45-1-1-1h-4Z"/></g></svg>