<svg viewBox="0 0 24 24" xmlns="http://www.w3.org/2000/svg"><g fill-rule="evenodd"><path d="M5 5c-.56 0-1 .44-1 1v4c0 .55.44 1 1 1h14c.55 0 1-.45 1-1V6c0-.56-.45-1-1-1H5Z"/><path d="M7.09 1c-.29-.03-.57.06-.78.25 -.21.18-.33.45-.33.74v4c0 .55.44 1 1 1h10c.55 0 1-.45 1-1v-3c0-.52-.39-.95-.91-1l-10-1Z"/><path d="M5.26 9.32c.18-.21.45-.33.73-.33h12c.27 0 .54.11.73.32 .18.2.28.48.26.76l-1 12c-.05.51-.48.91-1 .91h-10c-.53 0-.96-.4-1-.92l-1-12c-.03-.28.07-.56.26-.77Zm6.84 2.93c.68-.1 1.44.05 2.01.61 .56.56.71 1.33.61 2.01 -.1.68-.45 1.34-.98 1.87 -.53.52-1.2.87-1.88.97 -.69.09-1.45-.06-2.02-.62 -.57-.57-.72-1.34-.62-2.02 .09-.69.44-1.35.97-1.88 .52-.53 1.19-.88 1.87-.98Z"/></g></svg>