<svg viewBox="0 0 24 24" xmlns="http://www.w3.org/2000/svg"><g fill-rule="evenodd"><path d="M2.51 10.14c-.31-.19-.7-.2-1.01-.02 -.32.17-.51.5-.51.87v11c0 .55.44 1 1 1h20c.55 0 1-.45 1-1v-11c0-.37-.2-.7-.51-.88 -.32-.18-.7-.18-1.01.01l-9.49 5.69 -9.49-5.7Z"/><path d="M1.29 10.29l3-3L5.7 8.7l-3 2.99 -1.42-1.42Zm18.41-3l3 2.99 -1.42 1.41 -3-3 1.41-1.42Z"/><path d="M4 2c0-.56.44-1 1-1h14c.55 0 1 .44 1 1v11h-2V3H6v10H4V2Z"/><path d="M16.5 9h-9V7h9v2Z"/><path d="M16.5 12h-9v-2h9v2Z"/><path d="M16.5 6h-9V4h9v2Z"/></g></svg>