<svg viewBox="0 0 24 24" xmlns="http://www.w3.org/2000/svg"><g fill-rule="evenodd"><path d="M10 16.5c0-3.59 2.91-6.5 6.5-6.5 3.58 0 6.5 2.91 6.5 6.5 0 3.58-2.92 6.5-6.5 6.5 -3.59 0-6.5-2.92-6.5-6.5Zm8.29-2.21l-2.3 2.29 -.8-.8 -1.42 1.41 1.5 1.5c.39.39 1.02.39 1.41 0l3-3 -1.42-1.42Z"/><path d="M7.5 1C3.91 1 1 3.91 1 7.5 1 11.08 3.91 14 7.5 14c3.58 0 6.5-2.92 6.5-6.5C14 3.91 11.08 1 7.5 1Zm0 5.08l1.29-1.3 1.41 1.41 -1.3 1.29 1.29 1.29 -1.42 1.41 -1.3-1.3 -1.3 1.29 -1.42-1.42 1.29-1.3 -1.3-1.3 1.41-1.42 1.29 1.29Z"/><path d="M22 8.5h-9v-2h9v2Z"/><path d="M2 15.5h9v2H2v-2Z"/></g></svg>