<svg viewBox="0 0 24 24" xmlns="http://www.w3.org/2000/svg"><g fill-rule="evenodd"><path d="M6.29 5.29c.18-.19.44-.3.7-.3h5v2H7.4l-1.71 1.7c-.19.18-.45.29-.71.29h-2v5h3c.26 0 .51.1.7.29l2.7 2.7h6.17l1-1 -5.3-5.3 1.41-1.42 6 6c.39.39.39 1.02 0 1.41l-2 2c-.19.18-.45.29-.71.29h-7c-.27 0-.52-.11-.71-.3l-2.71-2.71H1.94c-.56 0-1-.45-1-1v-7c0-.56.44-1 1-1h2.58l1.7-1.71Z"/><path d="M12 5c-.27 0-.52.1-.71.29l-2.5 2.5c-.95.94-.95 2.47 0 3.41 .87.87 2.24.93 3.19.19l4.3 4.3c.18.18.44.29.7.29h5c.55 0 1-.45 1-1v-7c0-.56-.45-1-1-1h-4.59l-1.71-1.71c-.19-.19-.45-.3-.71-.3h-3Z"/></g></svg>