<svg viewBox="0 0 24 24" xmlns="http://www.w3.org/2000/svg"><g fill-rule="evenodd"><path d="M5 1c-.56 0-1 .44-1 1v3c0 .55.44 1 1 1h14c.55 0 1-.45 1-1V2c0-.56-.45-1-1-1H5Z"/><path d="M5 18c-.56 0-1 .44-1 1v3c0 .55.44 1 1 1h14c.55 0 1-.45 1-1v-3c0-.56-.45-1-1-1H5Z"/><path d="M5 5c0-.56.44-1 1-1h12c.55 0 1 .44 1 1v1.5c0 .23-.09.45-.23.63l-3.78 4.58v.56l3.77 4.58c.14.17.22.4.22.63v1.5c0 .55-.45 1-1 1h-12c-.56 0-1-.45-1-1v-1.5c0-.24.08-.46.22-.64l3.77-4.59v-.57L5.19 7.09c-.15-.18-.23-.41-.23-.64v-1.5Zm2 1.14v-.15h10v.14l-3.78 4.58c-.15.17-.23.4-.23.63v1.28c0 .23.08.45.22.63l3.77 4.58v.14h-10v-.15l3.77-4.59c.14-.18.22-.41.22-.64V11.3c0-.24-.09-.46-.23-.64L6.96 6.07Z"/><path d="M12.78 13.37c-.19-.24-.48-.38-.79-.38 -.31 0-.6.13-.79.37l-4 5c-.25.3-.29.71-.13 1.05 .16.34.51.56.9.56h7.99c.38 0 .73-.23.9-.57 .16-.35.11-.76-.13-1.06l-4-5Z"/></g></svg>