<svg viewBox="0 0 24 24" xmlns="http://www.w3.org/2000/svg"><g fill-rule="evenodd"><path d="M12.41 13.82c-.63-.94-1.87-1.23-2.84-.66l-5.09 2.96c-.31.17-.5.5-.5.86v4.5c0 .55.44 1 1 1h11c.23 0 .46-.09.64-.24l4.76-3.98c1.11-.93 1.18-2.61.16-3.64 -.85-.85-2.18-.97-3.16-.28l-3.74 2.61h-2.82l.54-.83c.47-.72.47-1.65 0-2.36Z"/><path d="M2 14.5c-.56 0-1 .44-1 1V22c0 .55.44 1 1 1h3c.55 0 1-.45 1-1v-6.5c0-.56-.45-1-1-1H2Z"/><path d="M12 1C9.79 1 8 2.79 8 5c0 1.26.58 2.39 1.5 3.12v1.37c0 .55.44 1 1 1h3c.55 0 1-.45 1-1V8.11c.91-.74 1.5-1.86 1.5-3.13 0-2.21-1.8-4-4-4Z"/><path d="M9.5 9c0-.56.44-1 1-1h3c.55 0 1 .44 1 1v1.5c0 1.38-1.12 2.5-2.5 2.5 -1.39 0-2.5-1.12-2.5-2.5V9Zm2 1v.5c0 .27.22.5.5.5 .27 0 .5-.23.5-.5V10h-1Z"/></g></svg>