<svg viewBox="0 0 24 24" xmlns="http://www.w3.org/2000/svg"><g fill-rule="evenodd"><path d="M22.94 2.31c.11-.36.02-.76-.25-1.03s-.67-.37-1.03-.25l-6 2c-.33.1-.58.38-.657.71 -.08.33.02.69.26.93l4 4c.24.24.59.34.93.26 .33-.08.6-.33.71-.66l2-6Z"/><path d="M16.7 3.29c-.4-.4-1.03-.4-1.42 0l-10 10c-.4.39-.4 1.02 0 1.41l4 4c.39.39 1.02.39 1.41 0l10-10c.39-.4.39-1.03 0-1.42l-4-4Z"/><path d="M3 9.99c-.41 0-.77.24-.93.61 -.16.37-.07.8.21 1.08l3 3c.39.39 1.02.39 1.41 0l3-3c.28-.29.37-.72.21-1.09 -.16-.38-.52-.62-.93-.62h-6Z"/><path d="M14 15c0-.41-.25-.77-.62-.93 -.38-.16-.81-.07-1.09.21l-3.01 3c-.4.39-.4 1.02 0 1.41l3 3c.28.28.71.37 1.08.21 .37-.16.61-.52.61-.93v-6Z"/><path d="M1.29 21.29l4-4L6.7 18.7l-4 4 -1.42-1.42Z"/><path d="M5.29 21.29l2-2L8.7 20.7l-2 2 -1.42-1.42Z"/><path d="M1.29 17.29l2-2L4.7 16.7l-2 2 -1.42-1.42Z"/></g></svg>