<svg viewBox="0 0 24 24" xmlns="http://www.w3.org/2000/svg"><path fill-rule="evenodd" d="M19.18 19.138l-.06-.19c2.18-.31 3.86-2.19 3.86-4.46 0-2.04-1.35-3.75-3.2-4.31 -.49-1.61-1.85-2.83-3.52-3.13 -.8-1.25-2.2-2.07-3.79-2.07 -1.57 0-2.95.79-3.75 2 -.09-.01-.17-.01-.26-.01 -2.04 0-3.75 1.34-4.31 3.19 -1.85.56-3.2 2.27-3.2 4.307 0 2.16 1.53 3.97 3.57 4.404 .12.06.27.09.42.09h.5 7.056l.55 1.86c.38 1.26 1.54 2.13 2.87 2.13h.32c2 0 3.45-1.94 2.87-3.87ZM12.99 2v9.58l1.29-1.3 1.41 1.41 -3 3c-.4.39-1.03.39-1.42 0l-3.01-3 1.41-1.42 1.29 1.29V1.97h2Z"/></svg>