<svg viewBox="0 0 24 24" xmlns="http://www.w3.org/2000/svg"><g fill-rule="evenodd"><path d="M16 23H8v-2h8v2Z"/><path d="M7.5 19c0 .55.44 1 1 1h7c.55 0 1-.45 1-1v-3.39c2.11-1.44 3.5-3.87 3.5-6.62 0-4.42-3.59-8-8-8 -4.42 0-8 3.58-8 8 0 2.75 1.38 5.17 3.5 6.61v3.38ZM11 9c0-.56.44-1 1-1 .55 0 1 .44 1 1 0 .55-.45 1-1 1 -.56 0-1-.45-1-1Zm0-4v1.17c-.11.03-.2.07-.3.12l-.83-.83 -1.42 1.41 .82.82c-.05.09-.09.19-.13.29H7.96v2h1.17c.03.1.07.19.12.29l-.83.82 1.41 1.41 .82-.83c.09.04.19.08.29.12v1.17h2v-1.18c.1-.04.19-.08.29-.13l.82.82 1.41-1.42 -.83-.83c.04-.1.08-.2.12-.3h1.17v-2h-1.18c-.04-.11-.08-.2-.13-.3l.82-.83 -1.42-1.42 -.83.82c-.1-.05-.2-.09-.3-.13V4.88h-2Z"/></g></svg>