<svg viewBox="0 0 24 24" xmlns="http://www.w3.org/2000/svg"><g fill-rule="evenodd"><path d="M11.55 1.1c.28-.15.61-.15.89 0l10 5c.33.16.55.51.55.89 0 .37-.22.72-.56.89l-3.47 1.73 -2.04-1.02 -10-5 -.2-.1 4.8-2.41ZM4.51 4.61L1.54 6.09c-.34.16-.56.51-.56.89 0 .37.21.72.55.89l10 4.99c.28.14.61.14.89 0l4.3-2.16 -.7-.35 -10-5 -1.54-.77Z"/><path d="M3 16.46V6.99H1v10.09c0 .38.21.72.55.89l9.99 4.9c.27.13.6.13.88 0l10-4.91c.34-.17.55-.52.55-.9V6.96h-2v9.46l-9 4.41 -9-4.42Z"/><path d="M19.44 16.47l-2 .98 -.89-1.8 2-.99 .88 1.79Z"/></g></svg>