<svg viewBox="0 0 24 24" xmlns="http://www.w3.org/2000/svg"><path fill-rule="evenodd" d="M8 2c0-.56.44-1 1-1h6c.55 0 1 .44 1 1v4c0 .55-.45 1-1 1H9c-.56 0-1-.45-1-1V2Zm2 1v2h4V3h-4ZM4 4c0-.56.44-1 1-1h4 6 4c.55 0 1 .44 1 1v18c0 .55-.45 1-1 1H5c-.56 0-1-.45-1-1V4Zm5 13.5c0-.28.22-.5.5-.5 .27 0 .5.22.5.5 0 .27-.23.5-.5.5 -.28 0-.5-.23-.5-.5Zm.5-2.5C8.11 15 7 16.11 7 17.5 7 18.88 8.11 20 9.5 20c1.02 0 1.9-.62 2.292-1.5h.2c2.2 0 4-1.8 4-4v-3.09l.29.29 1.41-1.42 -2-2.01c-.4-.4-1.03-.4-1.42 0l-2 2 1.41 1.41 .29-.3v3.08c0 1.1-.9 2-2 2h-.21c-.39-.89-1.27-1.5-2.292-1.5ZM9 9.58l.79-.8 1.41 1.41 -.8.79 .79.79 -1.42 1.41 -.8-.8 -.8.79 -1.42-1.42 .79-.8 -.8-.8 1.41-1.42 .79.79Z"/></svg>