<svg viewBox="0 0 24 24" xmlns="http://www.w3.org/2000/svg"><g fill-rule="evenodd"><path d="M16.83 8.95c-.19-.29-.5-.46-.84-.46 -.34 0-.66.17-.84.45l-2.03 3.11 -3.44 1.06c-.31.09-.56.33-.66.64 -.11.3-.05.64.14.9l2.19 3 -.1 3.79c-.01.33.14.64.41.84 .27.19.61.23.93.12l3.35-1.26 3.35 1.25c.31.11.66.07.93-.13s.42-.51.41-.85l-.1-3.8 2.19-3.01c.19-.27.24-.6.14-.91 -.11-.31-.35-.55-.66-.65l-3.44-1.07 -2.03-3.12Z"/><path d="M1 2.5c0-.56.44-1 1-1h18c.55 0 1 .44 1 1v11h-2v-10H3v16h9.5v2H2c-.56 0-1-.45-1-1v-18Z"/><path d="M9 1.5c-.56 0-1 .44-1 1v5c0 .34.17.66.47.85 .29.18.66.19.97.04l1.55-.78 1.55.77c.31.15.67.13.97-.05 .29-.19.47-.51.47-.86v-5c0-.56-.45-1-1-1h-4Z"/><path d="M8.5 18.5h-4v-2h4v2Z"/></g></svg>