<svg viewBox="0 0 24 24" xmlns="http://www.w3.org/2000/svg"><g fill-rule="evenodd"><path d="M4 7.5c0-.56.44-1 1-1h14c.55 0 1 .44 1 1v13c0 .55-.45 1-1 1H5c-.56 0-1-.45-1-1v-13Zm8 2c.32 0 .63.16.82.43l1.2 1.76 2.05.6c.31.09.56.33.66.65 .1.31.04.65-.16.91l-1.31 1.69 .05 2.13c0 .32-.15.64-.42.83 -.27.19-.62.24-.93.13l-2.02-.72 -2.02.71c-.32.11-.66.06-.93-.14s-.43-.51-.42-.84l.05-2.14 -1.31-1.7c-.21-.27-.27-.61-.16-.92 .1-.32.35-.56.66-.66l2.05-.61 1.2-1.77c.18-.28.49-.44.82-.44Z"/><path d="M2.8 2.89l3 4 -1.6 1.2 -3-4 1.6-1.2Z"/><path d="M21.2 2.89l-3 4 1.6 1.2 3-4 -1.6-1.2Z"/></g></svg>