<svg viewBox="0 0 24 24" xmlns="http://www.w3.org/2000/svg"><g fill-rule="evenodd"><path d="M12.41 13.82c-.63-.94-1.87-1.23-2.84-.66l-5.09 2.96c-.31.17-.5.5-.5.86v4.5c0 .55.44 1 1 1h11c.23 0 .46-.09.64-.24l4.76-3.98c1.11-.93 1.18-2.61.16-3.64 -.85-.85-2.18-.97-3.16-.28l-3.74 2.61h-2.82l.54-.83c.47-.72.47-1.65 0-2.36Z"/><path d="M2 14.5c-.56 0-1 .44-1 1V22c0 .55.44 1 1 1h3c.55 0 1-.45 1-1v-6.5c0-.56-.45-1-1-1H2Z"/><path d="M8.5 1C6.56 1 5 2.56 5 4.5 5 6.43 6.56 8 8.5 8 10.43 8 12 6.43 12 4.5 12 2.56 10.43 1 8.5 1Z"/><path d="M12 8c0-2.77 2.23-5 5-5 2.76 0 5 2.23 5 5 0 2.76-2.24 5-5 5 -2.77 0-5-2.24-5-5Zm4-2v4h2V6h-2Z"/></g></svg>