<svg viewBox="0 0 24 24" xmlns="http://www.w3.org/2000/svg"><g fill-rule="evenodd"><path d="M22 19H2v-2h20v2Z"/><path d="M8.74 7c-.28 0-.54.08-.75.25L4.59 9.8l-1.2-1.6 3.4-2.55C7.35 5.22 8.03 5 8.74 5c1.75 0 3.18 1.39 3.24 3.13l2.32-2.14c.32-.3.8-.35 1.18-.13 .37.22.56.66.46 1.09l-1.07 4.42 2.23-.84c.32-.13.7-.07.97.15l2.5 2 -1.25 1.56 -2.06-1.65 -3.47 1.3c-.35.12-.74.05-1.02-.19 -.28-.25-.4-.63-.32-.99l.73-3.08 -1.27 1.16v2.74c0 1.32-1.08 2.401-2.41 2.401 -2.19 0-3.24-2.69-1.63-4.18l2.02-1.86V8.16c0-.7-.56-1.25-1.25-1.25Zm1.25 5.68l-.68.61c-.27.24-.1.69.27.69 .22 0 .4-.18.4-.41v-.92Z"/></g></svg>