<svg viewBox="0 0 24 24" xmlns="http://www.w3.org/2000/svg"><path fill-rule="evenodd" d="M2 1c-.56 0-1 .44-1 1v16c0 .55.44 1 1 1h4.83l4.52 3.76c.29.24.71.3 1.06.13 .35-.17.57-.52.57-.91v-3h9c.55 0 1-.45 1-1v-16c0-.56-.45-1-1-1h-20Zm3.09 7c-.56 0-1 .44-1 1v6c0 .55.44 1 1 1H8.9c.01 0 .03-.01.04-.01 .01 0 .03 0 .04 0h7.41c1.07 0 2.03-.69 2.37-1.71l.78-2.35c.64-1.95-.8-3.95-2.85-3.95h-.21l.49-1.17c.41-.98.11-2.12-.74-2.75 -1.11-.84-2.7-.51-3.39.69l-1.19 2.06 -1.34 1.14H8.92c-.02 0-.04 0-.05 0 -.02-.01-.04-.01-.05-.01H5Z"/></svg>