<svg viewBox="0 0 24 24" xmlns="http://www.w3.org/2000/svg"><g fill-rule="evenodd"><path d="M6.95 4.72C5.76 5.81 4.99 7.46 4.99 9.68c0 .81.26 1.77.75 2.84 .48 1.05 1.15 2.14 1.9 3.19 1.47 2.07 3.17 3.9 4.11 4.85 .93-.96 2.64-2.79 4.11-4.86 .74-1.06 1.42-2.15 1.9-3.2 .48-1.07.75-2.03.75-2.85 0-2.23-.78-3.88-1.96-4.97 -1.2-1.11-2.89-1.73-4.82-1.73 -1.94 0-3.63.61-4.82 1.72ZM5.58 3.25C7.2 1.74 9.4.98 11.76.98c2.35 0 4.55.75 6.18 2.26 1.63 1.51 2.59 3.71 2.59 6.43 0 1.21-.39 2.47-.94 3.67 -.56 1.2-1.31 2.41-2.1 3.52 -1.59 2.22-3.41 4.16-4.37 5.14 -.77.77-2.01.77-2.77 0 -.96-.98-2.78-2.92-4.37-5.15 -.8-1.12-1.55-2.32-2.1-3.53 -.55-1.2-.94-2.47-.94-3.68 0-2.72.96-4.92 2.59-6.44Z"/><path d="M10 8.36c0-1.04.83-1.87 1.86-1.87h1.63v2h-1.2l.86.57c.51.34.83.92.83 1.55 0 1.03-.84 1.86-1.87 1.86h-1.64v-2h1.19l-.87-.58c-.52-.35-.84-.93-.84-1.56Z"/><path d="M11 13.5v-2h2v2h-2Z"/><path d="M11 7.5v-2h2v2h-2Z"/></g></svg>