<svg viewBox="0 0 24 24" xmlns="http://www.w3.org/2000/svg"><g fill-rule="evenodd"><path d="M14.5 13H12v-2h2.5v2Z"/><path d="M19 7h-4V5h4v2Z"/><path d="M19 10h-4V8h4v2Z"/><path d="M9 7H5V5h4v2Z"/><path d="M9 10H5V8h4v2Z"/><path d="M4.5 13H2v-2h2.5v2Z"/><path d="M1 3c0-1.11.89-2 2-2h8c1.1 0 2 .89 2 2v16c0 .55-.45 1-1 1H2c-.56 0-1-.45-1-1V3Zm10 0H3v15h8V3Z"/><path d="M11 3c0-1.11.89-2 2-2h8c1.1 0 2 .89 2 2v16c0 .55-.45 1-1 1H12c-.56 0-1-.45-1-1V3Zm10 0h-8v15h8V3Z"/><path d="M1 19c0-.56.44-1 1-1h20c.55 0 1 .44 1 1v3c0 .55-.45 1-1 1H2c-.56 0-1-.45-1-1v-3Zm2 1v1h18v-1H3Z"/></g></svg>