<svg viewBox="0 0 24 24" xmlns="http://www.w3.org/2000/svg"><g fill-rule="evenodd"><path d="M6 17h11v2H6v-2Z"/><path d="M22.37 7.92l-5 2 -.75-1.86 5-2 .74 1.85Z"/><path d="M16 3H9V1h7v2Z"/><path d="M5 12c0-.56.44-1 1-1h11c.55 0 1 .44 1 1v9c0 1.1-.9 2-2 2H7c-1.11 0-2-.9-2-2v-9Zm2 1v8h9v-8H7Z"/><path d="M1 5c0-1.11.89-2 2-2h3c.55 0 1 .44 1 1v5c0 .34-.18.66-.48.85 -.3.18-.67.19-.98.04L2.09 8.16C1.41 7.82.98 7.12.98 6.37V4.98Zm4 0H3v1.38l2 1V4.99Z"/><path d="M5 3c0-1.11.89-2 2-2h4c.55 0 1 .44 1 1v2h4c1.1 0 2 .89 2 2v6c0 .55-.45 1-1 1H6c-.56 0-1-.45-1-1V3Zm5 0H7v8h9V6h-4c-1.11 0-2-.9-2-2V3Z"/></g></svg>