<svg viewBox="0 0 24 24" xmlns="http://www.w3.org/2000/svg"><g fill-rule="evenodd"><path d="M7.25 5c-1.66 0-3 1.34-3 3h-2c0-2.77 2.23-5 5-5 2.76 0 5 2.23 5 5h-2c0-1.66-1.35-3-3-3Z"/><path d="M13.74 5c-1.02 0-1.91.49-2.46 1.27L9.64 5.11c.9-1.28 2.39-2.12 4.08-2.12 2.76 0 5 2.23 5 5h-2c0-1.66-1.35-3-3-3Z"/><path d="M1.25 9c0-1.11.89-2 2-2h16c1.1 0 2 .89 2 2v1.98h-2V8.99h-16v10h16V17h2v1.98c0 1.1-.9 2-2 2h-16c-1.11 0-2-.9-2-2v-10Z"/><path d="M23 11c0-.56-.45-1-1-1h-4c-1.66 0-3 1.34-3 3v2c0 1.65 1.34 3 3 3h4c.55 0 1-.45 1-1v-6Zm-2 1v4h-3c-.56 0-1-.45-1-1v-2c0-.56.44-1 1-1h3Z"/></g></svg>