<svg viewBox="0 0 24 24" xmlns="http://www.w3.org/2000/svg"><defs><mask id="a"><path fill="#FFF" d="M0 0h24v24H0Z"/></mask></defs><g mask="url(#a)"><g fill-rule="evenodd"><path d="M4 11c0-1.11.89-2 2-2h10c1.1 0 2 .89 2 2v8c0 2.2-1.8 4-4 4H8c-2.21 0-4-1.8-4-4v-8Zm12 0H6v8c0 1.1.89 2 2 2h6c1.1 0 2-.9 2-2v-8Z"/><path d="M5.5 2c0-.56.44-1 1-1H11c.55 0 1 .44 1 1v8c0 .55-.45 1-1 1H6.5c-.56 0-1-.45-1-1V2Zm2 1v6H10V3H7.5Z"/><path d="M17.85.72c-.29-.14-.62-.13-.9.02l-2.21 1.17c-.2.1-.35.26-.44.45l-3.36 7.18 1.81.84 3.21-6.89 .73-.4 .17.81 -2.62 5.61 1.81.84 2.76-5.92c.09-.2.11-.42.07-.63l-.52-2.45c-.07-.31-.28-.57-.56-.71Z"/></g></g></svg>