<svg viewBox="0 0 24 24" xmlns="http://www.w3.org/2000/svg"><g fill-rule="evenodd"><path d="M10 2.75c-4.01 0-7.25 3.24-7.25 7.25 0 2.68 1.45 5.02 3.62 6.28 .35.2.48.66.27 1.02 -.21.35-.67.48-1.03.27 -2.62-1.52-4.38-4.34-4.38-7.58 0-4.84 3.91-8.75 8.75-8.75 4.83 0 8.75 3.91 8.75 8.75 0 4.83-3.92 8.75-8.75 8.75 -.42 0-.75-.34-.75-.75 0-.42.33-.75.75-.75 4 0 7.25-3.25 7.25-7.25 0-4.01-3.25-7.25-7.25-7.25Z"/><path d="M15.46 15.46c.29-.3.26-.8.56-.5l6.5 6.5c.29.29.29.76 0 1.06 -.3.29-.77.29-1.07 0l-6.5-6.5c-.3-.3.2-.27.5-.57Z"/><path d="M9.25 6.83c-1.44.33-2.5 1.62-2.5 3.16 0 1.79 1.45 3.25 3.25 3.25 1.53 0 2.82-1.07 3.16-2.5H9.99c-.42 0-.75-.34-.75-.75V6.82Zm-4 3.16c0-2.63 2.12-4.75 4.75-4.75 .41 0 .75.33.75.75v3.25H14c.41 0 .75.33.75.75 0 2.62-2.13 4.75-4.75 4.75 -2.63 0-4.75-2.13-4.75-4.75Z"/><path d="M9.25 6c0-.42.33-.75.75-.75 2.62 0 4.75 2.12 4.75 4.75 0 .41-.34.75-.75.75h-4c-.42 0-.75-.34-.75-.75V6Zm1.5.83v2.41h2.41c-.29-1.2-1.23-2.14-2.42-2.42Z"/></g></svg>