<svg viewBox="0 0 24 24" xmlns="http://www.w3.org/2000/svg"><g fill-rule="evenodd"><path d="M11.51 1.42c.28-.24.69-.24.97 0l1.95 1.66 2.56.2c.36.02.65.32.68.68l.2 2.56 1.66 1.95c.26.31.23.78-.09 1.05 -.32.26-.79.23-1.06-.09l-1.83-2.15c-.11-.13-.17-.27-.18-.43l-.18-2.17 -2.17-.18c-.16-.02-.31-.08-.43-.18L11.93 2.9l-1.66 1.41c-.13.1-.27.16-.43.17l-2.81.22c-.42.03-.78-.28-.81-.69 -.04-.42.27-.78.68-.81l2.56-.21 1.95-1.67ZM7.3 6.27c.31.26.35.74.08 1.05L5.96 8.97l1.41 1.65c.1.12.16.26.17.42l.17 2.16 2.16.17c.15.01.3.07.42.17l1.65 1.41 1.65-1.42c.12-.11.26-.17.42-.18l2.16-.18 .17-2.17c.03-.42.39-.73.8-.69 .41.03.72.39.68.8l-.23 2.8c-.03.36-.33.65-.69.68l-2.57.2 -1.96 1.66c-.29.23-.7.23-.98 0l-1.96-1.67 -2.57-.21c-.37-.03-.66-.33-.69-.69l-.21-2.57 -1.67-1.96c-.24-.29-.24-.7 0-.98l1.82-2.15c.26-.32.74-.36 1.05-.09Z"/><path d="M12 7.25c-.97 0-1.75.78-1.75 1.75 0 .96.78 1.75 1.75 1.75 .96 0 1.75-.79 1.75-1.75 0-.97-.79-1.75-1.75-1.75ZM8.75 9c0-1.8 1.45-3.25 3.25-3.25 1.79 0 3.25 1.45 3.25 3.25 0 1.79-1.46 3.25-3.25 3.25 -1.8 0-3.25-1.46-3.25-3.25Z"/><path d="M8 13.25c.41 0 .75.33.75.75v6.5l2.8-2.1c.26-.2.63-.2.9 0l2.8 2.1V14c0-.42.33-.75.75-.75 .41 0 .75.33.75.75v8c0 .28-.17.54-.42.67 -.26.12-.56.09-.79-.08l-3.55-2.67 -3.55 2.66c-.23.17-.54.19-.79.07 -.26-.13-.42-.39-.42-.68v-8c0-.42.33-.75.75-.75Z"/><path d="M3.46 13.46c.29-.3.76-.3 1.06 0l2 2c.29.29.29.76 0 1.06 -.3.29-.77.29-1.07 0l-1.47-1.47 -1.47 1.46c-.3.29-.77.29-1.07 0 -.3-.3-.3-.77 0-1.07l2-2Z"/><path d="M19.46 13.46c.29-.3.76-.3 1.06 0l2 2c.29.29.29.76 0 1.06 -.3.29-.77.29-1.07 0l-1.47-1.47 -1.47 1.46c-.3.29-.77.29-1.07 0 -.3-.3-.3-.77 0-1.07l2-2Z"/><path d="M4 13.25c.41 0 .75.33.75.75v8c0 .41-.34.75-.75.75 -.42 0-.75-.34-.75-.75v-8c0-.42.33-.75.75-.75Z"/><path d="M20 13.25c.41 0 .75.33.75.75v8c0 .41-.34.75-.75.75 -.42 0-.75-.34-.75-.75v-8c0-.42.33-.75.75-.75Z"/></g></svg>