<svg viewBox="0 0 24 24" xmlns="http://www.w3.org/2000/svg"><g fill-rule="evenodd"><path d="M8.75 10.5c0-1.25 1-2.25 2.25-2.25h3.5c.41 0 .75.33.75.75 0 .41-.34.75-.75.75H11c-.42 0-.75.33-.75.75 0 .41.33.75.75.75h2c1.24 0 2.25 1 2.25 2.25 0 1.24-1.01 2.25-2.25 2.25H9.5c-.42 0-.75-.34-.75-.75 0-.42.33-.75.75-.75H13c.41 0 .75-.34.75-.75 0-.42-.34-.75-.75-.75h-2c-1.25 0-2.25-1.01-2.25-2.25Z"/><path d="M12 14.25c.41 0 .75.33.75.75v2.5c0 .41-.34.75-.75.75 -.42 0-.75-.34-.75-.75V15c0-.42.33-.75.75-.75Z"/><path d="M12 5.75c.41 0 .75.33.75.75V9c0 .41-.34.75-.75.75 -.42 0-.75-.34-.75-.75V6.5c0-.42.33-.75.75-.75Z"/><path d="M12 2.75c-5.11 0-9.25 4.14-9.25 9.25 0 5.1 4.14 9.25 9.25 9.25 5.1 0 9.25-4.15 9.25-9.25 0-3.8-2.29-7.06-5.56-8.49 -.38-.17-.56-.61-.39-.99 .16-.38.6-.56.98-.39 3.79 1.65 6.44 5.44 6.44 9.85 0 5.93-4.82 10.75-10.75 10.75 -5.94 0-10.75-4.82-10.75-10.75 0-5.94 4.81-10.75 10.75-10.75 .41 0 .75.33.75.75 0 .41-.34.75-.75.75Z"/></g></svg>