<svg viewBox="0 0 24 24" xmlns="http://www.w3.org/2000/svg"><g fill-rule="evenodd"><path d="M1.63 10.34c.23-.14.52-.13.75 0l9.61 5.76 9.61-5.77c.23-.14.52-.15.75-.01 .23.13.38.38.38.65v11c0 .41-.34.75-.75.75h-15c-.42 0-.75-.34-.75-.75 0-.42.33-.75.75-.75h14.25v-8.93l-8.87 5.31c-.24.14-.54.14-.78 0l-8.87-5.32v8.92h.25c.41 0 .75.33.75.75 0 .41-.34.75-.75.75h-1c-.42 0-.75-.34-.75-.75v-11c0-.28.14-.52.38-.66Z"/><path d="M6.25 12c0-.42.33-.75.75-.75h10c.41 0 .75.33.75.75v2c0 .41-.34.75-.75.75 -.42 0-.75-.34-.75-.75v-1.25h-8.5V14c0 .41-.34.75-.75.75 -.42 0-.75-.34-.75-.75v-2Z"/><path d="M7.25 9c0-.42.33-.75.75-.75h8c.41 0 .75.33.75.75v3c0 .41-.34.75-.75.75 -.42 0-.75-.34-.75-.75V9.75h-6.5V12c0 .41-.34.75-.75.75 -.42 0-.75-.34-.75-.75V9Z"/><path d="M11.49 1.44c.28-.26.71-.26 1 0l10 8.99c.3.27.33.75.05 1.05 -.28.3-.76.33-1.06.05l-9.5-8.55 -9.5 8.54c-.31.27-.79.25-1.06-.06 -.28-.31-.26-.79.05-1.06l10-9Z"/></g></svg>