<svg viewBox="0 0 24 24" xmlns="http://www.w3.org/2000/svg"><g fill-rule="evenodd"><path d="M4.25 9c0-4.29 3.46-7.75 7.75-7.75 4.28 0 7.75 3.46 7.75 7.75 0 2.71-1.4 5.09-3.5 6.48v3.51c0 .41-.34.75-.75.75h-7c-.42 0-.75-.34-.75-.75v-3.52c-.83-.55-1.55-1.25-2.12-2.06 -.24-.34-.16-.81.18-1.05 .33-.24.8-.16 1.04.18 .52.75 1.2 1.38 2 1.84 .23.13.37.38.37.64v3.18h5.5v-3.19c0-.27.14-.52.37-.65 1.87-1.09 3.12-3.11 3.12-5.42 0-3.46-2.8-6.25-6.25-6.25 -3.46 0-6.25 2.79-6.25 6.25 0 .41-.34.75-.75.75 -.42 0-.75-.34-.75-.75Z"/><path d="M7.25 22c0-.42.33-.75.75-.75h8c.41 0 .75.33.75.75 0 .41-.34.75-.75.75H8c-.42 0-.75-.34-.75-.75Z"/><path d="M12.5 6.25c-1.14 0-1.75.7-1.75 1.25 0 .41-.34.75-.75.75h-.5c-.42 0-.75.33-.75.75 0 .41.33.75.75.75h5c.41 0 .75-.34.75-.75 0-.33-.21-.61-.51-.71 -.32-.12-.52-.42-.51-.75 0-.02 0-.04 0-.05 0-.55-.62-1.25-1.75-1.25Zm-3.14.5c.39-1.24 1.76-2.01 3.13-2.01 1.49 0 2.98.91 3.21 2.35 .61.4 1.03 1.09 1.03 1.89 0 1.24-1.01 2.25-2.25 2.25h-5c-1.25 0-2.25-1.01-2.25-2.25 0-1.2.93-2.18 2.11-2.25Z"/><path d="M13.22 9.8c.38-.16.82.03.97.41l1 2.5c.15.38-.04.82-.42.97 -.39.15-.83-.04-.98-.42l-1-2.5c-.16-.39.03-.83.41-.98Z"/></g></svg>