<svg viewBox="0 0 24 24" xmlns="http://www.w3.org/2000/svg"><g fill-rule="evenodd"><path d="M1.25 9c0-.42.33-.75.75-.75h20c.41 0 .75.33.75.75v13c0 .41-.34.75-.75.75H2c-.42 0-.75-.34-.75-.75v-7c0-.42.33-.75.75-.75 .41 0 .75.33.75.75v6.25h18.5V9.75H2.75V11c0 .41-.34.75-.75.75 -.42 0-.75-.34-.75-.75V9Z"/><path d="M19.53 15.46c.29.29.29.76 0 1.06l-3 3c-.3.29-.77.29-1.07 0 -.3-.3-.3-.77 0-1.07l3-3c.29-.3.76-.3 1.06 0Z"/><path d="M15.46 15.46c-.3.29-.3.76 0 1.06l3 3c.29.29.76.29 1.06 0 .29-.3.29-.77 0-1.07l-3-3c-.3-.3-.77-.3-1.07 0Z"/><path d="M1.25 4c0-.42.33-.75.75-.75h20c.41 0 .75.33.75.75v5c0 .41-.34.75-.75.75H2c-.42 0-.75-.34-.75-.75V4Zm1.5.75v3.5h18.5v-3.5H2.75Z"/><path d="M7 1.25c.41 0 .75.33.75.75v4c0 .41-.34.75-.75.75 -.42 0-.75-.34-.75-.75V2c0-.42.33-.75.75-.75Z"/><path d="M17 1.25c.41 0 .75.33.75.75v4c0 .41-.34.75-.75.75 -.42 0-.75-.34-.75-.75V2c0-.42.33-.75.75-.75Z"/></g></svg>