<svg viewBox="0 0 24 24" xmlns="http://www.w3.org/2000/svg"><g fill-rule="evenodd"><path d="M19.53 14.46c.29.29.29.76 0 1.06l-3 3c-.3.29-.77.29-1.07 0l-1.5-1.5c-.3-.3-.3-.77 0-1.07 .29-.3.76-.3 1.06 0l.96.96 2.46-2.47c.29-.3.76-.3 1.06 0Z"/><path d="M10.03 4.96c.29.29.29.76 0 1.06l-4 3.99c-.3.29-.77.29-1.07 0 -.3-.3-.3-.77 0-1.07l4-4c.29-.3.76-.3 1.06 0Z"/><path d="M4.96 4.96c-.3.29-.3.76 0 1.06l4 3.99c.29.29.76.29 1.06 0 .29-.3.29-.77 0-1.07l-4-4c-.3-.3-.77-.3-1.07 0Z"/><path d="M16.5 11.75c-2.63 0-4.75 2.12-4.75 4.75 0 2.62 2.12 4.75 4.75 4.75 .41 0 .75.33.75.75 0 .41-.34.75-.75.75 -3.46 0-6.25-2.8-6.25-6.25 0-3.46 2.79-6.25 6.25-6.25 3.45 0 6.25 2.79 6.25 6.25 0 1.94-.89 3.67-2.28 4.82 -.32.26-.8.21-1.06-.11 -.27-.32-.22-.8.1-1.06 1.05-.88 1.72-2.19 1.72-3.67 0-2.63-2.13-4.75-4.75-4.75Z"/><path d="M7.5 2.75c-2.63 0-4.75 2.12-4.75 4.75 0 2.62 2.12 4.75 4.75 4.75 2.62 0 4.75-2.13 4.75-4.75 0-2.63-2.13-4.75-4.75-4.75ZM1.25 7.5c0-3.46 2.79-6.25 6.25-6.25 3.45 0 6.25 2.79 6.25 6.25 0 3.45-2.8 6.25-6.25 6.25 -3.46 0-6.25-2.8-6.25-6.25Z"/><path d="M12.25 7.5c0-.42.33-.75.75-.75h9c.41 0 .75.33.75.75 0 .41-.34.75-.75.75h-9c-.42 0-.75-.34-.75-.75Z"/><path d="M1.25 16.5c0-.42.33-.75.75-.75h9c.41 0 .75.33.75.75 0 .41-.34.75-.75.75H2c-.42 0-.75-.34-.75-.75Z"/></g></svg>