<svg viewBox="0 0 24 24" xmlns="http://www.w3.org/2000/svg"><g fill-rule="evenodd"><path d="M8.46 1.46c.29-.3.76-.3 1.06 0l1.99 2c.29.29.29.76 0 1.06l-4 4c-.3.29-.77.29-1.07 0l-2-2c-.3-.3-.3-.77 0-1.07l4-4ZM6.05 5.99l.93.93 2.93-2.94 -.94-.94 -2.94 2.93Z"/><path d="M9.96 3.96c.29-.3.76-.3 1.06 0l1.5 1.5c.29.29.29.76 0 1.06 -.3.29-.77.29-1.07 0l-.97-.97 -1.94 1.93 4.93 4.93 1.93-1.94 -.97-.97c-.3-.3-.3-.77 0-1.07 .29-.3.76-.3 1.06 0l1.5 1.5c.29.29.29.76 0 1.06l-3 3c-.3.29-.77.29-1.07 0l-6.01-6c-.3-.3-.3-.77 0-1.07l3-3Z"/><path d="M15.46 10.46c.29-.3.76-.3 1.06 0l3 3c.29.29.29.76 0 1.06l-2 2c-.3.29-.77.29-1.07 0l-3-3c-.3-.3-.3-.77 0-1.07l2-2Zm-.41 2.53l1.93 1.93 .93-.94 -1.94-1.94 -.94.93Z"/><path d="M10.46 16.46c.29-.3.76-.3 1.06 0l5 5c.29.29.29.76 0 1.06 -.3.29-.77.29-1.07 0l-4.47-4.47 -4.47 4.46c-.3.29-.77.29-1.07 0 -.3-.3-.3-.77 0-1.07l5-5Z"/><path d="M11 10.25c.41 0 .75.33.75.75v6c0 .41-.34.75-.75.75 -.42 0-.75-.34-.75-.75v-6c0-.42.33-.75.75-.75Z"/></g></svg>