<svg viewBox="0 0 24 24" xmlns="http://www.w3.org/2000/svg"><g fill-rule="evenodd"><path d="M1.25 2c0-.42.33-.75.75-.75h20c.41 0 .75.33.75.75v16c0 .41-.34.75-.75.75H2c-.42 0-.75-.34-.75-.75V7c0-.42.33-.75.75-.75 .41 0 .75.33.75.75v10.25h18.5V2.75H2.75V3c0 .41-.34.75-.75.75 -.42 0-.75-.34-.75-.75V2Z"/><path d="M9.25 18c0-.42.33-.75.75-.75h4c.41 0 .75.33.75.75v4c0 .41-.34.75-.75.75h-4c-.42 0-.75-.34-.75-.75v-4Zm1.5.75v2.5h2.5v-2.5h-2.5Z"/><path d="M5.25 22c0-.42.33-.75.75-.75h12c.41 0 .75.33.75.75 0 .41-.34.75-.75.75H6c-.42 0-.75-.34-.75-.75Z"/><path d="M7.25 7.4c.04-.38.36-.66.74-.66h8c.37 0 .69.28.74.65l1 8c.02.21-.04.42-.19.58 -.15.16-.35.25-.57.25h-10c-.22 0-.42-.1-.57-.26 -.15-.17-.21-.38-.19-.59l1-8.01Zm1.4.84l-.82 6.5h8.3l-.82-6.5H8.63Z"/><path d="M12 5.25c-.85 0-1.75.87-1.75 2.25 0 .41-.34.75-.75.75 -.42 0-.75-.34-.75-.75 0-1.94 1.33-3.75 3.25-3.75 1.91 0 3.25 1.81 3.25 3.75 0 .41-.34.75-.75.75 -.42 0-.75-.34-.75-.75 0-1.38-.91-2.25-1.75-2.25Z"/></g></svg>