<svg viewBox="0 0 24 24" xmlns="http://www.w3.org/2000/svg"><g fill-rule="evenodd"><path d="M2 1.25c.41 0 .75.33.75.75v19.25H22c.41 0 .75.33.75.75 0 .41-.34.75-.75.75H2c-.42 0-.75-.34-.75-.75V2c0-.42.33-.75.75-.75Z"/><path d="M17.25 2c0-.42.33-.75.75-.75h4c.41 0 .75.33.75.75v4c0 .41-.34.75-.75.75 -.42 0-.75-.34-.75-.75V2.75H18c-.42 0-.75-.34-.75-.75Z"/><path d="M22.53 1.46c.29.29.29.76 0 1.06l-9 8.99c-.15.14-.34.21-.54.21H8.3L2.51 17.5c-.3.29-.77.29-1.07 0 -.3-.3-.3-.77 0-1.07l6-6c.14-.15.33-.22.53-.22h4.68l8.78-8.79c.29-.3.76-.3 1.06-.001Z"/><path d="M4.25 17c0-.42.33-.75.75-.75h3c.41 0 .75.33.75.75v5c0 .41-.34.75-.75.75H5c-.42 0-.75-.34-.75-.75v-5Zm1.5.75v3.5h1.5v-3.5h-1.5Z"/><path d="M10.25 14c0-.42.33-.75.75-.75h3c.41 0 .75.33.75.75v8c0 .41-.34.75-.75.75h-3c-.42 0-.75-.34-.75-.75v-8Zm1.5.75v6.5h1.5v-6.5h-1.5Z"/><path d="M16.25 10c0-.42.33-.75.75-.75h3c.41 0 .75.33.75.75v2c0 .41-.34.75-.75.75 -.42 0-.75-.34-.75-.75v-1.25h-1.5v10.5h1.5V16c0-.42.33-.75.75-.75 .41 0 .75.33.75.75v6c0 .41-.34.75-.75.75h-3c-.42 0-.75-.34-.75-.75V10Z"/></g></svg>