<svg viewBox="0 0 24 24" xmlns="http://www.w3.org/2000/svg"><g fill-rule="evenodd"><path d="M3.75 8c0-.42.33-.75.75-.75h3c.41 0 .75.33.75.75 0 .41-.34.75-.75.75h-3c-.42 0-.75-.34-.75-.75Z"/><path d="M3.75 13c0-.42.33-.75.75-.75h3c.41 0 .75.33.75.75 0 .41-.34.75-.75.75h-3c-.42 0-.75-.34-.75-.75Z"/><path d="M6 7.25c.41 0 .75.33.75.75v5c0 .41-.34.75-.75.75 -.42 0-.75-.34-.75-.75V8c0-.42.33-.75.75-.75Z"/><path d="M10.5 7.25c.41 0 .75.33.75.75v5c0 .41-.34.75-.75.75 -.42 0-.75-.34-.75-.75V8c0-.42.33-.75.75-.75Z"/><path d="M9.75 8c0-.42.33-.75.75-.75h2c.96 0 1.75.78 1.75 1.75v1c0 .96-.79 1.75-1.75 1.75h-2c-.42 0-.75-.34-.75-.75V8Zm1.5.75v1.5h1.25c.13 0 .25-.12.25-.25V9c0-.14-.12-.25-.25-.25h-1.25Z"/><path d="M15.75 9.5c0-1.25 1-2.25 2.25-2.25 1.24 0 2.25 1 2.25 2.25v2c0 1.24-1.01 2.25-2.25 2.25 -1.25 0-2.25-1.01-2.25-2.25v-2ZM18 8.75c-.42 0-.75.33-.75.75v2c0 .41.33.75.75.75 .41 0 .75-.34.75-.75v-2c0-.42-.34-.75-.75-.75Z"/><path d="M1.25 3c0-.42.33-.75.75-.75h8c.41 0 .75.33.75.75 0 .41-.34.75-.75.75H2.75v13.5H7c.13 0 .26.03.38.1l4.61 2.76 4.61-2.77c.11-.07.25-.11.38-.11h4.25V3.73h-7.25c-.42 0-.75-.34-.75-.75 0-.42.33-.75.75-.75h8c.41 0 .75.33.75.75v15c0 .41-.34.75-.75.75h-4.8l-4.83 2.89c-.24.14-.54.14-.78 0l-4.83-2.9h-4.8c-.42 0-.75-.34-.75-.75v-15Z"/></g></svg>