<svg viewBox="0 0 24 24" xmlns="http://www.w3.org/2000/svg"><g fill-rule="evenodd"><path d="M12 9.75c-3.18 0-5.75 2.57-5.75 5.75 0 3.17 2.57 5.75 5.75 5.75 3.17 0 5.75-2.58 5.75-5.75 0-.42.33-.75.75-.75 .41 0 .75.33.75.75 0 4-3.25 7.25-7.25 7.25 -4.01 0-7.25-3.25-7.25-7.25 0-4.01 3.24-7.25 7.25-7.25 2.46 0 4.64 1.23 5.95 3.1 .23.33.15.8-.19 1.04 -.34.23-.81.15-1.05-.19 -1.05-1.5-2.77-2.47-4.73-2.47Z"/><path d="M9.25 14.25c0-1.11.89-2 2-2H14c.41 0 .75.33.75.75 0 .41-.34.75-.75.75h-2.75c-.28 0-.5.22-.5.5 0 .27.22.5.5.5h1.5c1.1 0 2 .89 2 2 0 1.1-.9 2-2 2H10c-.42 0-.75-.34-.75-.75 0-.42.33-.75.75-.75h2.75c.27 0 .5-.23.5-.5 0-.28-.23-.5-.5-.5h-1.5c-1.11 0-2-.9-2-2Z"/><path d="M12 17.25c.41 0 .75.33.75.75v2c0 .41-.34.75-.75.75 -.42 0-.75-.34-.75-.75v-2c0-.42.33-.75.75-.75Z"/><path d="M12 10.25c.41 0 .75.33.75.75v2c0 .41-.34.75-.75.75 -.42 0-.75-.34-.75-.75v-2c0-.42.33-.75.75-.75Z"/><path d="M11.25 5c0-2.08 1.67-3.75 3.75-3.75h2c.41 0 .75.33.75.75v1c0 2.07-1.68 3.75-3.75 3.75h-2c-.42 0-.75-.34-.75-.75V5ZM15 2.75c-1.25 0-2.25 1-2.25 2.25v.25H14c1.24 0 2.25-1.01 2.25-2.25v-.25H15Z"/><path d="M12.75 5c0-2.08-1.68-3.75-3.75-3.75H7c-.42 0-.75.33-.75.75v1c0 2.07 1.67 3.75 3.75 3.75h2c.41 0 .75-.34.75-.75V5ZM9 2.75c1.24 0 2.25 1 2.25 2.25v.25H10C8.75 5.25 7.75 4.24 7.75 3v-.25H9Z"/><path d="M12 4.25c.41 0 .75.33.75.75v4c0 .41-.34.75-.75.75 -.42 0-.75-.34-.75-.75V5c0-.42.33-.75.75-.75Z"/></g></svg>