<svg viewBox="0 0 24 24" xmlns="http://www.w3.org/2000/svg"><g fill-rule="evenodd"><path d="M12.5 6.75c-1.13 0-2.1.67-2.52 1.64 -.15.33-.51.5-.86.42 -.21-.05-.41-.08-.63-.08 -1.4 0-2.55 1.03-2.73 2.38 -.05.33-.31.59-.65.64 -1.35.17-2.39 1.33-2.39 2.72 0 1.38 1.02 2.53 2.35 2.72 .36.05.64.36.64.74v.03c0 .41-.34.75-.75.75 -.13 0-.25-.04-.35-.09 -1.95-.4-3.41-2.11-3.41-4.17 0-1.97 1.33-3.62 3.14-4.11 .48-1.82 2.13-3.15 4.1-3.15 .12 0 .25 0 .38.01 .74-1.21 2.08-2.02 3.61-2.02 1.54 0 2.89.82 3.63 2.04 1.67.25 3.03 1.48 3.46 3.098 1.81.48 3.14 2.13 3.14 4.1 0 2.24-1.75 4.083-3.95 4.23l.14.47c.52 1.76-.8 3.54-2.64 3.54h-.33c-1.22 0-2.29-.8-2.64-1.96l-.62-2.05h-3.6c-.42 0-.75-.34-.75-.75 0-.42.33-.75.75-.75h4.15c.33 0 .62.21.71.53l.77 2.57c.15.52.64.89 1.19.89h.32c.83 0 1.43-.81 1.19-1.61l-.43-1.43c-.07-.23-.03-.48.11-.67 .13-.19.34-.3.57-.31 .1-.04.22-.05.33-.03 .12.01.25.02.39.02 1.51 0 2.75-1.24 2.75-2.75 0-1.4-1.04-2.55-2.39-2.73 -.34-.05-.6-.31-.65-.65 -.18-1.31-1.27-2.32-2.6-2.38 -.28-.02-.53-.18-.65-.43 -.45-.94-1.4-1.58-2.49-1.58Z"/><path d="M8.46 10.46c.29-.3.76-.3 1.06 0l2.46 2.46 2.46-2.47c.29-.3.76-.3 1.06 0 .29.29.29.76 0 1.06l-3 3c-.3.29-.77.29-1.07 0l-3.01-3c-.3-.3-.3-.77 0-1.07Z"/><path d="M12 1.25c.41 0 .75.33.75.75v12c0 .41-.34.75-.75.75 -.42 0-.75-.34-.75-.75V2c0-.42.33-.75.75-.75Z"/></g></svg>