<svg viewBox="0 0 24 24" xmlns="http://www.w3.org/2000/svg"><g fill-rule="evenodd"><path d="M12 8.75c-3.46 0-6.25 2.79-6.25 6.25 0 3.45 2.79 6.25 6.25 6.25 .41 0 .75.33.75.75 0 .41-.34.75-.75.75 -4.29 0-7.75-3.47-7.75-7.75 0-4.29 3.46-7.75 7.75-7.75 4.28 0 7.75 3.46 7.75 7.75 0 2.63-1.32 4.96-3.33 6.36 -.34.23-.81.15-1.05-.19 -.24-.34-.16-.81.18-1.05 1.62-1.14 2.67-3.01 2.67-5.14 0-3.46-2.8-6.25-6.25-6.25Z"/><path d="M12 11.75c-1.8 0-3.25 1.45-3.25 3.25 0 1.79 1.45 3.25 3.25 3.25 1.79 0 3.25-1.46 3.25-3.25 0-1.8-1.46-3.25-3.25-3.25ZM7.25 15c0-2.63 2.12-4.75 4.75-4.75 2.62 0 4.75 2.12 4.75 4.75 0 2.62-2.13 4.75-4.75 4.75 -2.63 0-4.75-2.13-4.75-4.75Z"/><path d="M4.25 2c0-.42.33-.75.75-.75h14c.41 0 .75.33.75.75v5c0 .25-.13.48-.34.62l-3 2c-.35.22-.82.13-1.04-.21 -.23-.35-.14-.82.2-1.05l2.66-1.78V2.73H5.73v3.84l2.66 1.77c.34.22.43.69.2 1.04 -.23.34-.7.43-1.05.2l-3-2c-.21-.14-.34-.38-.34-.63v-5Z"/><path d="M9.5 1.25c.41 0 .75.33.75.75v6.5c0 .41-.34.75-.75.75 -.42 0-.75-.34-.75-.75V2c0-.42.33-.75.75-.75Z"/><path d="M14.5 1.25c.41 0 .75.33.75.75v6.5c0 .41-.34.75-.75.75 -.42 0-.75-.34-.75-.75V2c0-.42.33-.75.75-.75Z"/></g></svg>