<svg viewBox="0 0 24 24" xmlns="http://www.w3.org/2000/svg"><g fill-rule="evenodd"><path d="M11 4.75c-4.56 0-8.25 3.69-8.25 8.25 0 3.23 1.86 6.04 4.58 7.39 .37.18.52.63.33 1s-.64.52-1.01.33c-3.21-1.6-5.42-4.91-5.42-8.74 0-5.39 4.36-9.75 9.75-9.75h1c.41 0 .75.33.75.75v7.25h7.25c.41 0 .75.33.75.75v1c0 5.38-4.37 9.75-9.75 9.75 -.42 0-.75-.34-.75-.75 0-.42.33-.75.75-.75 4.55 0 8.25-3.7 8.25-8.25v-.25h-7.25c-.42 0-.75-.34-.75-.75V4.73h-.25Z"/><path d="M11.25 2c0-.42.33-.75.75-.75 5.93 0 10.75 4.81 10.75 10.75 0 .41-.34.75-.75.75H12c-.42 0-.75-.34-.75-.75V2Zm1.5.77v8.47h8.47c-.37-4.52-3.96-8.11-8.47-8.48Z"/><path d="M19.53 4.46c.29.29.29.76 0 1.06l-7 6.99c-.3.29-.77.29-1.07 0 -.3-.3-.3-.77 0-1.07l7-7.01c.29-.3.76-.3 1.06 0Z"/><path d="M21.53 6.96c.29.29.29.76 0 1.06l-4.5 4.49c-.3.29-.77.29-1.07 0 -.3-.3-.3-.77 0-1.07l4.5-4.51c.29-.3.76-.3 1.06 0Z"/><path d="M17.03 2.46c.29.29.29.76 0 1.06l-4.5 4.5c-.3.29-.77.29-1.07 0 -.3-.3-.3-.77 0-1.07l4.5-4.5c.29-.3.76-.3 1.06 0Z"/></g></svg>