<svg viewBox="0 0 24 24" xmlns="http://www.w3.org/2000/svg"><g fill-rule="evenodd"><path d="M22 9.25c.41 0 .75.33.75.75v2c0 .96-.79 1.75-1.75 1.75h-1c-.42 0-.75-.34-.75-.75 0-.42.33-.75.75-.75h1c.13 0 .25-.12.25-.25v-2c0-.42.33-.75.75-.75Z"/><path d="M5.64 4.33c.24-.14.53-.12.76.03l3 2c.2.13.33.37.33.62v.25h.25c.41 0 .75.33.75.75 0 .41-.34.75-.75.75h-1c-.42 0-.75-.34-.75-.75v-.6l-1.5-1v2.59c0 .23-.12.45-.3.59 -.59.43-1.06 1.02-1.35 1.7 -.12.27-.39.44-.69.44H2.72v2.5h1.66c.29 0 .56.17.68.44 .42.98 1.21 1.76 2.19 2.19 .27.11.44.38.44.68v.66h1.5v-.25c0-.42.33-.75.75-.75h4c.41 0 .75.33.75.75v.25h1.5v-.67c0-.3.17-.57.44-.69 1.5-.66 2.55-2.16 2.55-3.9 0-2.35-1.91-4.25-4.25-4.25h-1c-.42 0-.75-.34-.75-.75 0-.42.33-.75.75-.75h1c3.17 0 5.75 2.57 5.75 5.75 0 2.18-1.22 4.07-3 5.05v.94c0 .41-.34.75-.75.75h-3c-.42 0-.75-.34-.75-.75v-.25h-2.5v.25c0 .41-.34.75-.75.75h-3c-.42 0-.75-.34-.75-.75v-.95c-.98-.53-1.78-1.34-2.31-2.31H1.92c-.42 0-.75-.34-.75-.75v-4c0-.42.33-.75.75-.75h1.94c.33-.62.77-1.16 1.3-1.61V4.88c0-.28.15-.54.39-.67Z"/><path d="M9.25 11c0-.42.33-.75.75-.75h5c.41 0 .75.33.75.75 0 .41-.34.75-.75.75h-5c-.42 0-.75-.34-.75-.75Z"/></g></svg>