<svg viewBox="0 0 24 24" xmlns="http://www.w3.org/2000/svg"><g fill-rule="evenodd"><path d="M6.25 12c0-.42.33-.75.75-.75h10c.41 0 .75.33.75.75v10c0 .41-.34.75-.75.75h-4.5c-.42 0-.75-.34-.75-.75 0-.42.33-.75.75-.75h3.75v-8.5h-8.5v8.5h.75c.41 0 .75.33.75.75 0 .41-.34.75-.75.75H7c-.42 0-.75-.34-.75-.75V12Z"/><path d="M12 1.25c.24 0 .47.12.61.32l.9 1.32 1.53.45c.23.06.42.25.5.48 .07.23.03.49-.12.68l-.98 1.27 .04 1.6c0 .24-.11.48-.31.62 -.21.14-.46.18-.7.09l-1.52-.54 -1.52.53c-.24.08-.5.04-.7-.1 -.21-.15-.32-.39-.31-.63l.04-1.61 -.98-1.28c-.16-.2-.2-.46-.12-.69 .07-.24.26-.42.5-.49l1.53-.46 .9-1.33c.13-.21.37-.33.61-.33Zm0 2.07l-.44.64c-.1.14-.25.24-.41.29l-.75.21 .47.61c.1.13.16.3.15.47l-.03.77 .73-.27c.16-.06.34-.06.5 0l.73.26 -.03-.78c-.01-.18.05-.35.15-.48l.47-.62 -.75-.22c-.17-.05-.31-.16-.41-.3l-.44-.65Z"/><path d="M22.53 6.46c.29.29.29.76 0 1.06l-5 4.99c-.3.29-.77.29-1.07 0 -.3-.3-.3-.77 0-1.07l5-5.01c.29-.3.76-.3 1.06 0Z"/><path d="M1.46 6.46c-.3.29-.3.76 0 1.06l5 4.99c.29.29.76.29 1.06 0 .29-.3.29-.77 0-1.07l-5-5.01c-.3-.3-.77-.3-1.07 0Z"/><path d="M12 8.25c.41 0 .75.33.75.75v3c0 .41-.34.75-.75.75 -.42 0-.75-.34-.75-.75V9c0-.42.33-.75.75-.75Z"/><path d="M14.5 9.25c.41 0 .75.33.75.75v2c0 .41-.34.75-.75.75 -.42 0-.75-.34-.75-.75v-2c0-.42.33-.75.75-.75Z"/><path d="M9.5 9.25c.41 0 .75.33.75.75v2c0 .41-.34.75-.75.75 -.42 0-.75-.34-.75-.75v-2c0-.42.33-.75.75-.75Z"/></g></svg>