<svg viewBox="0 0 24 24" xmlns="http://www.w3.org/2000/svg"><g fill-rule="evenodd"><path d="M16 9.25c.24 0 .47.12.61.32l1.96 2.86 3.33.98c.23.06.42.25.5.48 .07.23.03.49-.12.68l-2.12 2.75 .09 3.47c0 .24-.11.48-.31.62 -.21.14-.46.18-.7.09l-3.28-1.17 -3.28 1.16c-.24.08-.5.04-.7-.1 -.21-.15-.32-.39-.31-.63l.09-3.48 -2.12-2.76c-.16-.2-.2-.46-.12-.69 .07-.24.26-.42.5-.49l3.33-.99 1.96-2.87c.13-.21.37-.33.61-.33Zm0 2.07l-1.5 2.18c-.1.14-.25.24-.41.29l-2.55.74 1.61 2.09c.1.13.16.3.15.47l-.08 2.64 2.49-.89c.16-.06.34-.06.5 0l2.49.88 -.08-2.65c-.01-.18.05-.35.15-.48l1.61-2.1 -2.55-.75c-.17-.05-.31-.16-.41-.3l-1.5-2.19Z"/><path d="M4.25 6c0-.42.33-.75.75-.75h14c.41 0 .75.33.75.75v7c0 .41-.34.75-.75.75 -.42 0-.75-.34-.75-.75V6.75H5.75V9c0 .41-.34.75-.75.75 -.42 0-.75-.34-.75-.75V6ZM5 12.25c.41 0 .75.33.75.75v5.25h6.75c.41 0 .75.33.75.75 0 .41-.34.75-.75.75H5c-.42 0-.75-.34-.75-.75v-6c0-.42.33-.75.75-.75Z"/><path d="M1.54 1.4c.33-.25.8-.19 1.05.15l3 4c.24.33.18.8-.15 1.05 -.34.24-.81.18-1.05-.15l-3-4c-.25-.34-.19-.81.15-1.05Z"/><path d="M22.45 1.4c-.34-.25-.81-.19-1.05.15l-3 4c-.25.33-.19.8.15 1.05 .33.24.8.18 1.05-.15l3-4c.24-.34.18-.81-.15-1.05Z"/></g></svg>