<svg viewBox="0 0 24 24" xmlns="http://www.w3.org/2000/svg"><g fill-rule="evenodd"><path d="M10.96 14.79c-.11-.17-.33-.22-.5-.12l-4.72 2.75v3.31h9.97l4.56-3.81c.32-.27.34-.76.04-1.06 -.25-.25-.63-.28-.92-.08l-4 2.79c-.13.08-.28.13-.44.13h-5c-.28 0-.54-.16-.67-.4 -.14-.25-.12-.54.03-.77l1.58-2.38c.08-.13.08-.29 0-.42ZM9.7 13.37c.85-.5 1.95-.25 2.49.57 .41.62.41 1.44 0 2.07l-.81 1.21h3.36l3.8-2.67c.87-.62 2.07-.52 2.83.24 .92.91.85 2.43-.15 3.26l-4.77 3.97c-.14.11-.31.17-.49.17h-11c-.42 0-.75-.34-.75-.75v-4.5c0-.27.14-.52.37-.65l5.08-2.97Z"/><path d="M1.25 15.5c0-.42.33-.75.75-.75h3c.41 0 .75.33.75.75V22c0 .41-.34.75-.75.75H2c-.42 0-.75-.34-.75-.75v-6.5Zm1.5.75v5h1.5v-5h-1.5Z"/><path d="M12 3.25c.24 0 .47.12.61.32l.9 1.32 1.53.45c.23.06.42.25.5.48 .07.23.03.49-.12.68l-.98 1.27 .04 1.6c0 .24-.11.48-.31.62 -.21.14-.46.18-.7.09l-1.52-.54 -1.52.53c-.24.08-.5.04-.7-.1 -.21-.15-.32-.39-.31-.63l.04-1.61 -.98-1.28c-.16-.2-.2-.46-.12-.69 .07-.24.26-.42.5-.49l1.53-.46 .9-1.33c.13-.21.37-.33.61-.33Zm0 2.07l-.44.64c-.1.14-.25.24-.41.29l-.75.21 .47.61c.1.13.16.3.15.47l-.03.77 .73-.27c.16-.06.34-.06.5 0l.73.26 -.03-.78c-.01-.18.05-.35.15-.48l.47-.62 -.75-.22c-.17-.05-.31-.16-.41-.3l-.44-.65Z"/><path d="M6.25 2c0-.42.33-.75.75-.75h2c.41 0 .75.33.75.75 0 .41-.34.75-.75.75H7.75v8h8.5v-8H13c-.42 0-.75-.34-.75-.75 0-.42.33-.75.75-.75h4c.41 0 .75.33.75.75v9.5c0 .41-.34.75-.75.75H7c-.42 0-.75-.34-.75-.75V2Z"/></g></svg>