<svg viewBox="0 0 24 24" xmlns="http://www.w3.org/2000/svg"><g fill-rule="evenodd"><path d="M12 5.25c.24 0 .47.12.61.32l.9 1.32 1.53.45c.23.06.42.25.5.48 .07.23.03.49-.12.68l-.98 1.27 .04 1.6c0 .24-.11.48-.31.62 -.21.14-.46.18-.7.09l-1.52-.54 -1.52.53c-.24.08-.5.04-.7-.1 -.21-.15-.32-.39-.31-.63l.04-1.61 -.98-1.28c-.16-.2-.2-.46-.12-.69 .07-.24.26-.42.5-.49l1.53-.46 .9-1.33c.13-.21.37-.33.61-.33Zm0 2.07l-.44.64c-.1.14-.25.24-.41.29l-.75.21 .47.61c.1.13.16.3.15.47l-.03.77 .73-.27c.16-.06.34-.06.5 0l.73.26 -.03-.78c-.01-.18.05-.35.15-.48l.47-.62 -.75-.22c-.17-.05-.31-.16-.41-.3l-.44-.65Z"/><path d="M4.25 2c0-.42.33-.75.75-.75h8.5c.41 0 .75.33.75.75 0 .41-.34.75-.75.75H5.75V12c0 1.79 1.45 3.25 3.25 3.25h6c1.79 0 3.25-1.46 3.25-3.25V2.75h-.75c-.42 0-.75-.34-.75-.75 0-.42.33-.75.75-.75H19c.41 0 .75.33.75.75v10c0 2.62-2.13 4.75-4.75 4.75H9c-2.63 0-4.75-2.13-4.75-4.75V2Z"/><path d="M12 15.25c.41 0 .75.33.75.75v3c0 .41-.34.75-.75.75 -.42 0-.75-.34-.75-.75v-3c0-.42.33-.75.75-.75Z"/><path d="M1.25 5c0-1.52 1.23-2.75 2.75-2.75h1c.41 0 .75.33.75.75v6c0 .41-.34.75-.75.75H4C2.48 9.75 1.25 8.51 1.25 7V5ZM4 3.75c-.7 0-1.25.55-1.25 1.25v2c0 .69.55 1.25 1.25 1.25h.25v-4.5H4Z"/><path d="M22.75 5c0-1.52-1.24-2.75-2.75-2.75h-1c-.42 0-.75.33-.75.75v6c0 .41.33.75.75.75h1c1.51 0 2.75-1.24 2.75-2.75V5ZM20 3.75c.69 0 1.25.55 1.25 1.25v2c0 .69-.56 1.25-1.25 1.25h-.25v-4.5H20Z"/><path d="M6.25 19c0-.42.33-.75.75-.75h10c.41 0 .75.33.75.75v3c0 .41-.34.75-.75.75H7c-.42 0-.75-.34-.75-.75v-3Zm1.5.75v1.5h8.5v-1.5h-8.5Z"/></g></svg>