<svg viewBox="0 0 24 24" xmlns="http://www.w3.org/2000/svg"><g fill="#A2ADB8"><path d="M7.5 13.75c-.34 0-.64.22-.73.55l-2 7.5c-.07.22-.02.46.12.65 .14.18.36.29.59.29h11c.23 0 .45-.11.59-.3 .14-.19.19-.43.13-.66l-2-7.5c-.09-.33-.39-.56-.73-.56h-7Z"/><path fill="#A2ADB8" fill-rule="evenodd" d="M10.25 5c0-.42.33-.75.75-.75h6.5c.41 0 .75.33.75.75 0 .41-.34.75-.75.75h-5.75V7.5c0 .41-.34.75-.75.75 -.42 0-.75-.34-.75-.75V5Z"/></g><path fill="#CFD8DC" d="M5.5 6.75c-.24 0-.46.1-.6.29 -.15.18-.19.42-.13.65l1.9 6.99c.08.32.38.55.72.55h7.19c.33 0 .63-.23.72-.56l1.9-7c.06-.23.01-.47-.13-.66 -.15-.19-.37-.3-.6-.3h-11Z"/><path fill="#5E94FF" d="M15.5 1.25c-.42 0-.75.33-.75.75v3c0 .41.33.75.75.75h3c.41 0 .75-.34.75-.75V2c0-.42-.34-.75-.75-.75h-3Z"/></svg>