<svg viewBox="0 0 24 24" xmlns="http://www.w3.org/2000/svg"><path fill="#CFD8DC" fill-rule="evenodd" d="M12 2.25c.41 0 .75.33.75.75v2c0 .41-.34.75-.75.75 -.42 0-.75-.34-.75-.75V3c0-.42.33-.75.75-.75Z"/><path fill="#EE4D4D" d="M4 9.75c-.42 0-.75-.34-.75-.75V7c0-1.52 1.23-2.75 2.75-2.75h12c1.51 0 2.75 1.23 2.75 2.75v2c0 .41-.34.75-.75.75H4Z"/><g fill="#A2ADB8" fill-rule="evenodd"><path d="M1.46 8.46c.29-.3.76-.3 1.06 0l2 2c.29.29.29.76 0 1.06 -.3.29-.77.29-1.07 0l-2-2c-.3-.3-.3-.77 0-1.07Z"/><path d="M22.53 8.46c-.3-.3-.77-.3-1.07 0l-2 2c-.3.29-.3.76 0 1.06 .29.29.76.29 1.06 0l2-2c.29-.3.29-.77 0-1.07Z"/></g><path fill="#CFD8DC" d="M4 8.25c-.42 0-.75.33-.75.75v7.5c0 2.89 2.35 5.25 5.25 5.25h7c2.89 0 5.25-2.36 5.25-5.25V9c0-.42-.34-.75-.75-.75H4Z"/></svg>