<svg viewBox="0 0 24 24" xmlns="http://www.w3.org/2000/svg"><g fill="#ECEFF1"><path d="M1.75 3c-.42 0-.75.33-.75.75v14c0 .41.33.75.75.75h10c.41 0 .75-.34.75-.75V6.25C12.5 4.45 11.04 3 9.25 3h-7.5Z"/><path d="M14.5 2.75c-1.8 0-3.25 1.45-3.25 3.25v11.5c0 .41.33.75.75.75h10c.41 0 .75-.34.75-.75v-14c0-.42-.34-.75-.75-.75h-7.5Z"/></g><g fill="#8B98A6"><path d="M17 5.25c-1.25 0-2.25 1-2.25 2.25v1c0 1.24 1 2.25 2.25 2.25 1.24 0 2.25-1.01 2.25-2.25v-1c0-1.25-1.01-2.25-2.25-2.25Z"/><path fill="#8B98A6" fill-rule="evenodd" d="M17 9.25c.41 0 .75.33.75.75v5c0 .41-.34.75-.75.75 -.42 0-.75-.34-.75-.75v-5c0-.42.33-.75.75-.75Z"/></g><g fill="#EE4D4D" fill-rule="evenodd"><path d="M8 3.75c.41 0 .75.33.75.75v16c0 .41-.34.75-.75.75 -.42 0-.75-.34-.75-.75v-16c0-.42.33-.75.75-.75Z"/><path d="M7.25 18.5V3h1.5v15.5h-1.5Z"/></g></svg>