<svg viewBox="0 0 24 24" xmlns="http://www.w3.org/2000/svg"><g fill="#8B98A6"><path d="M2 7.75c-.42 0-.75.33-.75.75v3c0 .41.33.75.75.75h3c.41 0 .75-.34.75-.75v-3c0-.42-.34-.75-.75-.75H2Z"/><path d="M19 7.75c-.42 0-.75.33-.75.75v3c0 .41.33.75.75.75h3c.41 0 .75-.34.75-.75v-3c0-.42-.34-.75-.75-.75h-3Z"/></g><path fill="#CFD8DC" d="M5 7.75c-.42 0-.75.33-.75.75v10c0 1.51 1.23 2.75 2.75 2.75h10c1.51 0 2.75-1.24 2.75-2.75v-10c0-.42-.34-.75-.75-.75H5Z"/><path fill="#8B98A6" fill-rule="evenodd" d="M12 2.75c.41 0 .75.33.75.75v1.75H19c.41 0 .75.33.75.75 0 .41-.34.75-.75.75H5c-.42 0-.75-.34-.75-.75 0-.42.33-.75.75-.75h6.25V3.5c0-.42.33-.75.75-.75Z"/></svg>