<svg viewBox="0 0 24 24" xmlns="http://www.w3.org/2000/svg"><path fill="#ECEFF1" d="M12 1.25c-5.11 0-9.25 4.14-9.25 9.25 0 5.1 4.14 9.25 9.25 9.25 5.1 0 9.25-4.15 9.25-9.25 0-5.11-4.15-9.25-9.25-9.25Z"/><g fill="#A2ADB8" fill-rule="evenodd"><path d="M12 5.25c-2.9 0-5.25 2.35-5.25 5.25 0 .41-.34.75-.75.75 -.42 0-.75-.34-.75-.75 0-3.73 3.02-6.75 6.75-6.75 .41 0 .75.33.75.75 0 .41-.34.75-.75.75Zm6 4.5c.41 0 .75.33.75.75 0 3.72-3.03 6.75-6.75 6.75 -.42 0-.75-.34-.75-.75 0-.42.33-.75.75-.75 2.89 0 5.25-2.36 5.25-5.25 0-.42.33-.75.75-.75Z"/><path fill="#CFD8DC" d="M8.79 12.71c.36-1.45 1.66-2.47 3.15-2.47h.09c1.49 0 2.79 1.01 3.15 2.46l1.52 6.1c.1.4-.15.8-.55.9 -.41.1-.81-.15-.91-.55l-1.53-6.11c-.2-.78-.9-1.33-1.7-1.33h-.1c-.81 0-1.51.54-1.7 1.32l-1.53 6.1c-.11.4-.51.64-.91.54 -.41-.11-.65-.51-.55-.91l1.52-6.11Z"/></g><path fill="#CFD8DC" d="M3.5 18.25c-1.25 0-2.25 1-2.25 2.25 0 1.24 1 2.25 2.25 2.25h17c1.24 0 2.25-1.01 2.25-2.25 0-1.25-1.01-2.25-2.25-2.25h-17Z"/></svg>