<svg viewBox="0 0 24 24" xmlns="http://www.w3.org/2000/svg"><g fill="#A2ADB8" fill-rule="evenodd"><path d="M7 19.25c.41 0 .75.33.75.75v2c0 .41-.34.75-.75.75 -.42 0-.75-.34-.75-.75v-2c0-.42.33-.75.75-.75Z"/><path d="M17 19.25c.41 0 .75.33.75.75v2c0 .41-.34.75-.75.75 -.42 0-.75-.34-.75-.75v-2c0-.42.33-.75.75-.75Z"/></g><path fill="#CFD8DC" d="M7 1.25C5.48 1.25 4.25 2.48 4.25 4v16c0 .41.33.75.75.75h14c.41 0 .75-.34.75-.75V4c0-1.52-1.24-2.75-2.75-2.75H7Z"/><g fill="#A2ADB8" fill-rule="evenodd"><path d="M4.25 13.25h15.5v1.5H4.25v-1.5Z"/><path d="M9.5 5.25c.41 0 .75.33.75.75v4c0 .41-.34.75-.75.75 -.42 0-.75-.34-.75-.75V6c0-.42.33-.75.75-.75Z"/><path d="M14.5 5.25c.41 0 .75.33.75.75v4c0 .41-.34.75-.75.75 -.42 0-.75-.34-.75-.75V6c0-.42.33-.75.75-.75Z"/><path d="M9.25 16.5c0-.42.33-.75.75-.75h4c.41 0 .75.33.75.75 0 .41-.34.75-.75.75h-4c-.42 0-.75-.34-.75-.75Z"/><path d="M12.75 1.25V14h-1.5V1.25h1.5Z"/></g></svg>