<svg viewBox="0 0 24 24" xmlns="http://www.w3.org/2000/svg"><g fill="#CFD8DC"><path d="M8.25 9c0-.26-.13-.5-.35-.64 -.22-.14-.49-.16-.72-.06L3.73 9.86c-1.52.68-2.5 2.2-2.5 3.86v8.24c0 .41.33.75.75.75h5.5c.41 0 .75-.34.75-.75v-13Z"/><path d="M11 1.25c-.42 0-.75.33-.75.75v5c0 .41.33.75.75.75h4c.41 0 .75-.34.75-.75V2c0-.42-.34-.75-.75-.75h-4Z"/><path d="M18.33 9.32c-.24-.12-.51-.11-.73.03 -.23.13-.36.37-.36.63v4c0 .41.33.75.75.75h4c.41 0 .75-.34.75-.75v-2c0-.29-.17-.55-.42-.68l-4-2.01Z"/></g><path fill="#5E94FF" d="M10 6.25c-1.8 0-3.25 1.45-3.25 3.25V22c0 .41.33.75.75.75H18c.41 0 .75-.34.75-.75V9.5c0-1.8-1.46-3.25-3.25-3.25H10Z"/><path fill="#ECEFF1" d="M13 14.25c-1.25 0-2.25 1-2.25 2.25 0 1.24 1 2.25 2.25 2.25 1.24 0 2.25-1.01 2.25-2.25 0-1.25-1.01-2.25-2.25-2.25Z"/></svg>