<svg viewBox="0 0 24 24" xmlns="http://www.w3.org/2000/svg"><path fill="#ECEFF1" d="M2 3.75c-.42 0-.75.33-.75.75v15c0 .41.33.75.75.75h20c.41 0 .75-.34.75-.75v-15c0-.42-.34-.75-.75-.75H2Z"/><path fill="#8B98A6" d="M4.5 6.25c-.42 0-.75.33-.75.75v7.5c0 .41.33.75.75.75h15c.41 0 .75-.34.75-.75V7c0-.42-.34-.75-.75-.75h-15Z"/><g fill="#EE4D4D" fill-rule="evenodd"><path d="M4.25 17c0-.42.33-.75.75-.75h3c.41 0 .75.33.75.75 0 .41-.34.75-.75.75H5c-.42 0-.75-.34-.75-.75Z"/><path d="M10.25 17c0-.42.33-.75.75-.75h3c.41 0 .75.33.75.75 0 .41-.34.75-.75.75h-3c-.42 0-.75-.34-.75-.75Z"/></g></svg>