<svg viewBox="0 0 24 24" xmlns="http://www.w3.org/2000/svg"><path fill="#A2ADB8" fill-rule="evenodd" d="M14.03 9.96c.29.29.29.76 0 1.06l-6.5 6.5c-.3.29-.77.29-1.07 0 -.3-.3-.3-.77 0-1.07l6.5-6.51c.29-.3.76-.3 1.06 0Z"/><path fill="#CFD8DC" d="M17 1.25c-3.18 0-5.75 2.57-5.75 5.75 0 3.17 2.57 5.75 5.75 5.75 3.17 0 5.75-2.58 5.75-5.75 0-3.18-2.58-5.75-5.75-5.75Z"/><path fill="#5E94FF" d="M6.53 15.46c-.3-.3-.77-.3-1.07 0l-4 4c-.3.29-.3.76 0 1.06l2 2c.29.29.76.29 1.06 0l4-4c.29-.3.29-.77 0-1.07l-2-2Z"/></svg>