<svg viewBox="0 0 24 24" xmlns="http://www.w3.org/2000/svg"><path fill="#4DC4FF" fill-rule="evenodd" d="M12 12.75c.41 0 .75.33.75.75V18c0 .41-.34.75-.75.75 -.42 0-.75-.34-.75-.75v-4.5c0-.42.33-.75.75-.75Z"/><g fill="#71D0FF"><path d="M4 1.25c-.28 0-.54.15-.67.39 -.14.24-.12.53.03.76l8 12c.13.2.37.33.62.33s.48-.13.62-.34l8-12c.15-.24.16-.53.03-.77 -.14-.25-.39-.4-.67-.4h-16Z"/><path d="M8 22.75c-.31 0-.58-.19-.7-.47 -.12-.29-.06-.61.16-.82l4-4c.29-.3.76-.3 1.06 0l4 4c.21.21.27.53.16.81 -.12.28-.39.46-.7.46h-8Z"/></g></svg>