<svg viewBox="0 0 24 24" xmlns="http://www.w3.org/2000/svg"><g fill="#8B98A6" fill-rule="evenodd"><path d="M3 16.25c.41 0 .75.33.75.75v2c0 .41-.34.75-.75.75 -.42 0-.75-.34-.75-.75v-2c0-.42.33-.75.75-.75Z"/><path d="M21 16.25c.41 0 .75.33.75.75v2c0 .41-.34.75-.75.75 -.42 0-.75-.34-.75-.75v-2c0-.42.33-.75.75-.75Z"/></g><path fill="#CFD8DC" d="M2 4.25c-.42 0-.75.33-.75.75v12c0 .41.33.75.75.75h20c.41 0 .75-.34.75-.75V5c0-.42-.34-.75-.75-.75H2Z"/><path fill="#8B98A6" d="M4.5 6.75c-.42 0-.75.33-.75.75v7c0 .41.33.75.75.75h10c.41 0 .75-.34.75-.75v-7c0-.42-.34-.75-.75-.75h-10Z"/><g fill="#EE4D4D" fill-rule="evenodd"><path d="M16.25 11.5c0-.42.33-.75.75-.75h2.5c.41 0 .75.33.75.75 0 .41-.34.75-.75.75H17c-.42 0-.75-.34-.75-.75Z"/><path d="M16.25 14c0-.42.33-.75.75-.75h2.5c.41 0 .75.33.75.75 0 .41-.34.75-.75.75H17c-.42 0-.75-.34-.75-.75Z"/></g></svg>