<svg viewBox="0 0 24 24" xmlns="http://www.w3.org/2000/svg"><path fill="#5E94FF" d="M7.5 1.25C4.87 1.25 2.75 3.37 2.75 6v12c0 .41.33.75.75.75h12c.24 0 .46-.12.61-.32l4.2-5.9c.66-.94.56-2.23-.26-3.04 -.87-.87-2.24-.93-3.18-.15l-.65.53v-3.9c0-2.63-2.13-4.75-4.75-4.75h-4Z"/><path fill="#CFD8DC" d="M3.5 17.25c-.42 0-.75.33-.75.75v4c0 .41.33.75.75.75h12c.41 0 .75-.34.75-.75v-4c0-.42-.34-.75-.75-.75h-12Z"/><g fill="#ECEFF1" fill-rule="evenodd"><path d="M11.48 5.42c.31.26.36.73.09 1.05l-5.01 5.99c-.27.31-.74.36-1.06.09 -.32-.27-.37-.74-.1-1.06l5-6.01c.26-.32.73-.37 1.05-.1Z"/><path d="M13.48 7.42c.31.26.36.73.09 1.05l-5.01 5.99c-.27.31-.74.36-1.06.09 -.32-.27-.37-.74-.1-1.06l5-6.01c.26-.32.73-.37 1.05-.1Z"/></g></svg>