<svg viewBox="0 0 24 24" xmlns="http://www.w3.org/2000/svg"><g fill="#A2ADB8"><path d="M6.74 1.94c-.02-.23-.14-.43-.31-.56 -.18-.13-.41-.18-.63-.12l-4 1c-.25.06-.45.24-.54.49 -.09.24-.04.51.13.71l4.5 5.5c.2.25.55.34.85.22 .3-.13.49-.43.46-.76l-.5-6.5Z"/><path fill="#A2ADB8" fill-rule="evenodd" d="M17.25 2c0-.42.33-.75.75-.75h3.5c.41 0 .75.33.75.75v5c0 .41-.34.75-.75.75 -.42 0-.75-.34-.75-.75V2.75H18c-.42 0-.75-.34-.75-.75Z"/><path d="M8 11.25c-.42 0-.75.33-.75.75v3c0 .41.33.75.75.75h8c.41 0 .75-.34.75-.75v-3c0-.42-.34-.75-.75-.75H8Z"/></g><g fill="#CFD8DC"><path d="M6 1.25c-.22 0-.42.08-.56.24 -.15.15-.22.36-.2.57l1 9.99c.03.38.36.67.74.67h10c.38 0 .7-.3.74-.68l1-10c.02-.22-.05-.43-.2-.58 -.15-.16-.35-.25-.56-.25h-12Z"/><path d="M6 22.75c-.22 0-.43-.1-.57-.26 -.15-.17-.21-.39-.18-.6l1-7c.05-.37.36-.65.74-.65h10c.37 0 .68.27.74.64l1 7c.03.21-.04.43-.18.59 -.15.16-.35.25-.57.25h-12Z"/></g></svg>