<svg viewBox="0 0 24 24" xmlns="http://www.w3.org/2000/svg"><path fill="#A2ADB8" fill-rule="evenodd" d="M12.96 1.46c.29-.3.76-.3 1.06 0l2 2c.29.29.29.76 0 1.06 -.3.29-.77.29-1.07 0l-2-2c-.3-.3-.3-.77 0-1.07Zm6.5 6.5c.29-.3.76-.3 1.06 0l2 2c.29.29.29.76 0 1.06 -.3.29-.77.29-1.07 0l-2-2c-.3-.3-.3-.77 0-1.07Z"/><path fill="#5E94FF" d="M12.53 9.46c-.3-.3-.77-.3-1.07 0l-9 9c-.85.84-.85 2.21-.001 3.06 .84.84 2.21.84 3.06 0l9-9c.29-.3.29-.77 0-1.07l-2-2.01Z"/><path fill="#CFD8DC" fill-rule="evenodd" d="M14.03 1.46c.29.29.29.76 0 1.06 -1.08 1.07-1.82 2.46-1.99 3.86 -.17 1.38.22 2.81 1.48 4.07 1.25 1.25 2.68 1.64 4.06 1.48 1.4-.17 2.79-.91 3.86-1.99 .29-.3.76-.3 1.06 0 .29.29.29.76 0 1.06 -1.27 1.27-2.96 2.19-4.76 2.4 -1.83.21-3.72-.33-5.31-1.91C10.84 9.9 10.3 8 10.52 6.18c.21-1.8 1.13-3.49 2.4-4.76 .29-.3.76-.3 1.06 0Z"/><path fill="#CFD8DC" d="M17.53 2.46c-.3-.3-.77-.3-1.07 0l-2.5 2.5c-.3.29-.3.76 0 1.06l4 3.99c.29.29.76.29 1.06 0l2.5-2.5c.29-.3.29-.77 0-1.07l-4-4Z"/></svg>