<svg viewBox="0 0 24 24" xmlns="http://www.w3.org/2000/svg"><path fill="#CFD8DC" d="M8 5.75c-.38 0-.69.27-.75.64l-2 13.5c-.04.23.04.47.21.64l2 2c.14.14.33.21.53.21h7.99c.19 0 .38-.08.53-.22l2-2c.16-.17.24-.41.21-.65l-2-13.5c-.06-.37-.38-.65-.75-.65h-8Z"/><path fill="#5E94FF" d="M9 1.25C7.48 1.25 6.25 2.48 6.25 4v2.5c0 .41.33.75.75.75h10c.41 0 .75-.34.75-.75V4c0-1.52-1.24-2.75-2.75-2.75H9Z"/><path fill="#8B98A6" fill-rule="evenodd" d="M9.75 11.5c0-.97.78-1.75 1.75-1.75h1c.96 0 1.75.78 1.75 1.75v.5c0 .41-.34.75-.75.75 -.42 0-.75-.34-.75-.75v-.5c0-.14-.12-.25-.25-.25h-1c-.14 0-.25.11-.25.25v1.27c0 .1.06.2.17.23l1.63.54c.71.23 1.19.9 1.19 1.66v1.27c0 .96-.79 1.75-1.75 1.75h-1c-.97 0-1.75-.79-1.75-1.75v-.5c0-.42.33-.75.75-.75 .41 0 .75.33.75.75v.5c0 .13.11.25.25.25h1c.13 0 .25-.12.25-.25v-1.28c0-.11-.07-.21-.18-.24l-1.64-.55c-.72-.24-1.2-.91-1.2-1.67v-1.28Z"/></svg>