<svg viewBox="0 0 24 24" xmlns="http://www.w3.org/2000/svg"><g fill="#CFD8DC" fill-rule="evenodd"><path d="M7 19.25c.41 0 .75.33.75.75v2c0 .41-.34.75-.75.75 -.42 0-.75-.34-.75-.75v-2c0-.42.33-.75.75-.75Z"/><path d="M17 19.25c.41 0 .75.33.75.75v2c0 .41-.34.75-.75.75 -.42 0-.75-.34-.75-.75v-2c0-.42.33-.75.75-.75Z"/></g><path fill="#8B98A6" d="M7 1.25C5.48 1.25 4.25 2.48 4.25 4v16c0 .41.33.75.75.75h14c.41 0 .75-.34.75-.75V4c0-1.52-1.24-2.75-2.75-2.75H7Z"/><g fill="#ECEFF1" fill-rule="evenodd"><path d="M13.5 6.25c.41 0 .75.33.75.75v8c0 .41-.34.75-.75.75 -.42 0-.75-.34-.75-.75V7c0-.42.33-.75.75-.75Z"/><path d="M8.5 6.25c.41 0 .75.33.75.75v8c0 .41-.34.75-.75.75 -.42 0-.75-.34-.75-.75V7c0-.42.33-.75.75-.75Z"/><path d="M11.75 1.25v19.5h-1.5V1.25h1.5Z"/></g></svg>