<svg viewBox="0 0 24 24" xmlns="http://www.w3.org/2000/svg"><path fill="#A2ADB8" fill-rule="evenodd" d="M14.03 9.96c.29.29.29.76 0 1.06l-6.5 6.5c-.3.29-.77.29-1.07 0 -.3-.3-.3-.77 0-1.07l6.5-6.51c.29-.3.76-.3 1.06 0Z"/><path fill="#CFD8DC" d="M17.53 1.46c-.3-.3-.77-.3-1.07 0l-3.88 3.87c-1.47 1.46-1.47 3.83 0 5.3l.75.75c1.46 1.46 3.83 1.46 5.3 0L22.5 7.5c.29-.3.29-.77 0-1.07l-5-5Z"/><path fill="#5E94FF" d="M6.53 15.46c-.3-.3-.77-.3-1.07 0l-4 4c-.3.29-.3.76 0 1.06l2 2c.29.29.76.29 1.06 0l4-4c.29-.3.29-.77 0-1.07l-2-2Z"/></svg>