<svg viewBox="0 0 24 24" xmlns="http://www.w3.org/2000/svg"><path fill="#FFC44D" d="M12 5.25c-1.69 0-3.15.95-4.15 2.36 -1.01 1.4-1.61 3.31-1.61 5.38 0 .41.33.75.75.75h10c.41 0 .75-.34.75-.75 0-2.08-.6-3.98-1.61-5.39 -1.01-1.41-2.46-2.37-4.15-2.37Z"/><path fill="#FFD071" fill-rule="evenodd" d="M11.3 8.25c-.34 1.18-.56 2.86-.56 4.74 0 .41-.34.75-.75.75 -.42 0-.75-.34-.75-.75 0-1.99.22-3.81.61-5.16 .19-.68.43-1.27.73-1.72 .28-.43.74-.89 1.4-.89 .65 0 1.11.45 1.4.88 .3.44.54 1.04.73 1.71 .38 1.35.61 3.17.61 5.15 0 .41-.34.75-.75.75 -.42 0-.75-.34-.75-.75 0-1.89-.22-3.57-.56-4.75 -.18-.6-.36-1.03-.54-1.29 -.07-.11-.13-.16-.16-.2 -.04.03-.09.08-.16.19 -.18.26-.37.68-.54 1.28Zm.74-1.52s-.01 0-.01 0l0-.01Zm-.1 0c-.01-.01-.01-.01-.01-.01l0 0Z"/><path fill="#CFD8DC" d="M5 12.25c-.23 0-.44.1-.59.27 -.15.17-.2.4-.16.62l1 5c.07.35.37.6.73.6h12c.35 0 .66-.26.73-.61l1-5c.04-.23-.02-.45-.16-.63 -.15-.18-.36-.28-.58-.28h-14Z"/><path fill="#ECEFF1" fill-rule="evenodd" d="M1.25 13c0-.42.33-.75.75-.75h20c.41 0 .75.33.75.75 0 .41-.34.75-.75.75H2c-.42 0-.75-.34-.75-.75Z"/></svg>