<svg viewBox="0 0 24 24" xmlns="http://www.w3.org/2000/svg"><g fill-rule="evenodd"><path d="M12 2.5c-5.25 0-9.5 4.25-9.5 9.5 0 5.24 4.25 9.5 9.5 9.5 5.24 0 9.5-4.26 9.5-9.5 0-5.25-4.26-9.5-9.5-9.5ZM1.5 12C1.5 6.2 6.2 1.5 12 1.5c5.79 0 10.5 4.7 10.5 10.5 0 5.79-4.71 10.5-10.5 10.5 -5.8 0-10.5-4.71-10.5-10.5Z"/><path d="M13.903 15.5c-.8 0-1.57.27-2.19.76l-1.41 1.12 -.63-.79 1.4-1.13c.79-.64 1.78-.99 2.81-.99h.65v1h-.66Z"/><path d="M16.83 9.65c-.51-.34-1.17-.34-1.67 0l-.4.26 -.56-.84 .39-.27c.83-.56 1.93-.56 2.77 0l.39.26 -.56.83 -.4-.27Z"/><path d="M8.83 9.65c-.51-.34-1.17-.34-1.67 0l-.4.26 -.56-.84 .39-.27c.83-.56 1.93-.56 2.77 0l.39.26 -.56.83 -.4-.27Z"/></g></svg>