<svg viewBox="0 0 24 24" xmlns="http://www.w3.org/2000/svg"><g fill-rule="evenodd"><path d="M12 2.5c-5.25 0-9.5 4.25-9.5 9.5 0 5.24 4.25 9.5 9.5 9.5 5.24 0 9.5-4.26 9.5-9.5 0-5.25-4.26-9.5-9.5-9.5ZM1.5 12C1.5 6.2 6.2 1.5 12 1.5c5.79 0 10.5 4.7 10.5 10.5 0 5.79-4.71 10.5-10.5 10.5 -5.8 0-10.5-4.71-10.5-10.5Z"/><path d="M17.18 9.46l-2.5.99 -.38-.93 2.5-1 .37.92Z"/><path d="M6.81 9.46l2.5.99 .37-.93 -2.5-1 -.38.92Z"/><path d="M7.5 17c0 .27.22.5.5.5h8c.27 0 .5-.23.5-.5 0-2.49-2.02-4.5-4.5-4.5 -2.49 0-4.5 2.01-4.5 4.5Zm1.03-.5c.24-1.7 1.7-3 3.46-3s3.22 1.3 3.46 3H8.52Z"/><path d="M2.5 2v.6c0 .62.39 1.19.98 1.4l1.42.51 -.35.93 -1.43-.52c-.99-.37-1.65-1.3-1.65-2.35v-.61h1Z"/><path d="M21.5 2v.61c0 .62-.39 1.18-.98 1.4l-1.37.51 .35.93 1.36-.52c.97-.37 1.62-1.3 1.62-2.35v-.62h-1Z"/></g></svg>