<svg viewBox="0 0 24 24" xmlns="http://www.w3.org/2000/svg"><g fill-rule="evenodd"><path d="M12 2.5c-5.25 0-9.5 4.25-9.5 9.5 0 5.24 4.25 9.5 9.5 9.5 5.24 0 9.5-4.26 9.5-9.5 0-5.25-4.26-9.5-9.5-9.5ZM1.5 12C1.5 6.2 6.2 1.5 12 1.5c5.79 0 10.5 4.7 10.5 10.5 0 5.79-4.71 10.5-10.5 10.5 -5.8 0-10.5-4.71-10.5-10.5Z"/><path d="M11 17.844c-.3-.45-.51-1.11-.51-1.85 0-.75.2-1.4.5-1.85 .3-.46.66-.66.99-.66 .33 0 .69.2.99.65 .3.45.5 1.1.5 1.84s-.21 1.39-.51 1.84c-.31.45-.67.65-1 .65 -.34 0-.7-.21-1-.66Zm-.84.55c.42.63 1.05 1.1 1.83 1.1 .77 0 1.4-.47 1.83-1.11 .42-.64.66-1.49.66-2.4 0-.92-.25-1.77-.67-2.4 -.43-.64-1.06-1.11-1.84-1.11s-1.41.46-1.84 1.1c-.43.63-.67 1.48-.67 2.39 0 .91.24 1.76.66 2.39Z"/><path d="M16.83 9.65c-.51-.34-1.17-.34-1.67 0l-.4.26 -.56-.84 .39-.27c.83-.56 1.93-.56 2.77 0l.39.26 -.56.83 -.4-.27Z"/><path d="M8.83 9.65c-.51-.34-1.17-.34-1.67 0l-.4.26 -.56-.84 .39-.27c.83-.56 1.93-.56 2.77 0l.39.26 -.56.83 -.4-.27Z"/><path d="M6.5 20.5V9h1v11.5h-1Z"/><path d="M16.5 20.5V9h1v11.5h-1Z"/></g></svg>