<svg viewBox="0 0 24 24" xmlns="http://www.w3.org/2000/svg"><g fill-rule="evenodd"><path d="M16.83 11.34c-.51.33-1.17.33-1.67 0l-.4-.27 -.56.83 .39.26c.83.55 1.93.55 2.77 0l.39-.27 -.56-.84 -.4.26Z"/><path d="M8.83 11.34c-.51.33-1.17.33-1.67 0l-.4-.27 -.56.83 .39.26c.83.55 1.93.55 2.77 0l.39-.27 -.56-.84 -.4.26Z"/><path d="M13.56 17.84c-.99-.5-2.15-.5-3.14 0l-1.22.6 -.45-.9 1.21-.61c1.26-.64 2.75-.64 4.02 0l1.21.6 -.45.89 -1.22-.61Z"/><path d="M12 2.5c-5.25 0-9.5 4.25-9.5 9.5 0 5.24 4.25 9.5 9.5 9.5 5.24 0 9.5-4.26 9.5-9.5 0-.66-.07-1.29-.19-1.91l.98-.2c.13.67.21 1.38.21 2.09 0 5.79-4.71 10.5-10.5 10.5 -5.8 0-10.5-4.71-10.5-10.5 0-5.8 4.7-10.5 10.5-10.5 1.49 0 2.91.31 4.2.87l-.41.91c-1.17-.51-2.45-.8-3.8-.8Z"/><path d="M20.79 2.5h-1.8v-1h3c.2 0 .38.12.46.3 .07.18.03.4-.11.54l-2.15 2.14h1.79v1h-3c-.21 0-.39-.13-.47-.31 -.08-.19-.04-.41.1-.55l2.14-2.15Z"/><path d="M14.79 6h-1.8V5h3c.2 0 .38.12.46.3 .07.18.03.4-.11.54l-2.15 2.14h1.79v1h-3c-.21 0-.39-.13-.47-.31 -.08-.19-.04-.41.1-.55l2.14-2.15Z"/></g></svg>