<svg viewBox="0 0 24 24" xmlns="http://www.w3.org/2000/svg"><g fill-rule="evenodd"><path d="M16.83 9.65c-.51-.34-1.17-.34-1.67 0l-.4.26 -.56-.84 .39-.27c.83-.56 1.93-.56 2.77 0l.39.26 -.56.83 -.4-.27Z"/><path d="M8.83 9.65c-.51-.34-1.17-.34-1.67 0l-.4.26 -.56-.84 .39-.27c.83-.56 1.93-.56 2.77 0l.39.26 -.56.83 -.4-.27Z"/><path d="M12 2.5c-5.25 0-9.5 4.25-9.5 9.5 0 5.24 4.25 9.5 9.5 9.5 5.24 0 9.5-4.26 9.5-9.5 0-5.25-4.26-9.5-9.5-9.5ZM1.5 12C1.5 6.2 6.2 1.5 12 1.5c5.79 0 10.5 4.7 10.5 10.5 0 5.79-4.71 10.5-10.5 10.5 -5.8 0-10.5-4.71-10.5-10.5Z"/><path d="M12.764 13.5h-1.77v-1h1.76c.95 0 1.73.77 1.73 1.73 0 .65-.38 1.25-.96 1.55l-.43.21 .42.21c.58.29.95.89.95 1.55 -.01.95-.78 1.73-1.74 1.73h-1.77v-1h1.76c.4 0 .73-.33.73-.74 0-.28-.16-.54-.41-.66l-1.32-.66c-.17-.09-.28-.26-.28-.45s.1-.37.27-.45l1.31-.66c.24-.13.4-.38.4-.66 -.01-.41-.33-.74-.74-.74Z"/></g></svg>