<svg viewBox="0 0 24 24" xmlns="http://www.w3.org/2000/svg"><g fill-rule="evenodd"><path d="M12 2.5c-5.25 0-9.5 4.25-9.5 9.5 0 5.24 4.25 9.5 9.5 9.5 5.24 0 9.5-4.26 9.5-9.5 0-5.25-4.26-9.5-9.5-9.5ZM1.5 12C1.5 6.2 6.2 1.5 12 1.5c5.79 0 10.5 4.7 10.5 10.5 0 5.79-4.71 10.5-10.5 10.5 -5.8 0-10.5-4.71-10.5-10.5Z"/><path d="M16.83 8.34c-.51.33-1.17.33-1.67 0l-.4-.27 -.56.83 .39.26c.83.55 1.93.55 2.77 0l.39-.27 -.56-.84 -.4.26Z"/><path d="M8.83 8.34c-.51.33-1.17.33-1.67 0l-.4-.27 -.56.83 .39.26c.83.55 1.93.55 2.77 0l.39-.27 -.56-.84 -.4.26Z"/><path d="M13.56 15.15c-.99.49-2.15.49-3.14 0l-1.22-.61 -.45.89 1.21.6c1.26.63 2.75.63 4.02 0l1.21-.61 -.45-.9 -1.22.6Z"/></g></svg>