<svg viewBox="0 0 24 24" xmlns="http://www.w3.org/2000/svg"><g fill-rule="evenodd"><path d="M12 2.5c-2.89 0-5.48 1.28-7.22 3.32 -1.43 1.66-2.29 3.81-2.29 6.17 0 5.24 4.25 9.5 9.5 9.5 5.24 0 9.5-4.26 9.5-9.5 0-2.36-.86-4.52-2.29-6.18 -1.75-2.04-4.34-3.33-7.22-3.33ZM4.02 5.17c1.92-2.25 4.78-3.68 7.97-3.68 3.19 0 6.05 1.42 7.97 3.67 1.57 1.83 2.52 4.21 2.52 6.82 0 5.79-4.71 10.5-10.5 10.5 -5.8 0-10.5-4.71-10.5-10.5 0-2.61.94-4.99 2.52-6.83Z"/><path d="M9.5 9.5h-3v-1h3v1Z"/><path d="M17.5 9.5h-3v-1h3v1Z"/><path d="M13.56 15.84c-.99-.5-2.15-.5-3.14 0l-1.22.6 -.45-.9 1.21-.61c1.26-.64 2.75-.64 4.02 0l1.21.6 -.45.89 -1.22-.61Z"/><path d="M8.5 11V9h1v2h-1Z"/><path d="M16.5 11V9h1v2h-1Z"/></g></svg>