<svg viewBox="0 0 24 24" xmlns="http://www.w3.org/2000/svg"><g fill-rule="evenodd"><path d="M12 2.5c-5.25 0-9.5 4.25-9.5 9.5 0 5.24 4.25 9.5 9.5 9.5 5.24 0 9.5-4.26 9.5-9.5 0-5.25-4.26-9.5-9.5-9.5ZM1.5 12C1.5 6.2 6.2 1.5 12 1.5c5.79 0 10.5 4.7 10.5 10.5 0 5.79-4.71 10.5-10.5 10.5 -5.8 0-10.5-4.71-10.5-10.5Z"/><path d="M6.5 13c0-.28.22-.5.5-.5h10c.27 0 .5.22.5.5 0 2.09-1.71 3.75-3.88 4.3l-.25-.97c1.66-.42 2.83-1.55 3.07-2.84H7.53c.24 1.28 1.4 2.41 3.07 2.83l-.25.96c-2.18-.55-3.88-2.22-3.88-4.31Z"/><path d="M10 13c0-.28.22-.5.5-.5h3c.27 0 .5.22.5.5v4.5c0 1.1-.9 2-2 2 -1.11 0-2-.9-2-2V13Zm1 .5v4c0 .55.44 1 1 1 .55 0 1-.45 1-1v-4h-2Z"/><path d="M16 8c.55 0 1 .44 1 1 0 .55-.45 1-1 1 -.56 0-1-.45-1-1 0-.56.44-1 1-1Zm2 1c0-1.11-.9-2-2-2 -1.11 0-2 .89-2 2 0 1.1.89 2 2 2 1.1 0 2-.9 2-2Z"/><path d="M9.3 8.6l-2-1.5 -.6.8L8.16 9l-1.47 1.09 .6.8 2-1.5c.12-.1.2-.25.2-.4 0-.16-.08-.31-.2-.4Z"/></g></svg>