<svg viewBox="0 0 24 24" xmlns="http://www.w3.org/2000/svg"><path fill="#CFD8DC" d="M2 1.25c-.42 0-.75.33-.75.75v20c0 .41.33.75.75.75h20c.41 0 .75-.34.75-.75V2c0-.42-.34-.75-.75-.75H2Z"/><path fill="#A2D471" d="M12 12.75c-2.08 0-3.75 1.67-3.75 3.75 0 2.07 1.67 3.75 3.75 3.75 2.07 0 3.75-1.68 3.75-3.75 0-2.08-1.68-3.75-3.75-3.75Z"/><g fill="#8B98A6"><path d="M8 7.75c-.42 0-.75.33-.75.75v3c0 .41.33.75.75.75h1.5c.96 0 1.75-.79 1.75-1.75v-1c0-.97-.79-1.75-1.75-1.75H8Z"/><path d="M14.5 7.75c-.97 0-1.75.78-1.75 1.75v1c0 .96.78 1.75 1.75 1.75H16c.41 0 .75-.34.75-.75v-3c0-.42-.34-.75-.75-.75h-1.5Z"/><path fill="#8B98A6" fill-rule="evenodd" d="M11 5.25c-1.25 0-2.25 1-2.25 2.25V10c0 .41-.34.75-.75.75 -.42 0-.75-.34-.75-.75V7.5c0-2.08 1.67-3.75 3.75-3.75h2c2.07 0 3.75 1.67 3.75 3.75V10c0 .41-.34.75-.75.75 -.42 0-.75-.34-.75-.75V7.5c0-1.25-1.01-2.25-2.25-2.25h-2Z"/></g></svg>