<svg viewBox="0 0 24 24" xmlns="http://www.w3.org/2000/svg"><path fill="#EE4D4D" d="M2 1.25c-.42 0-.75.33-.75.75v20c0 .41.33.75.75.75h20c.41 0 .75-.34.75-.75V2c0-.42-.34-.75-.75-.75H2Z"/><g fill="#ECEFF1"><path d="M4.5 3.75c-.42 0-.75.33-.75.75v3c0 .41.33.75.75.75h3c.41 0 .75-.34.75-.75v-3c0-.42-.34-.75-.75-.75h-3Z"/><path d="M12 8.25c-2.08 0-3.75 1.67-3.75 3.75 0 2.07 1.67 3.75 3.75 3.75 2.07 0 3.75-1.68 3.75-3.75 0-2.08-1.68-3.75-3.75-3.75Z"/><path fill="#ECEFF1" fill-rule="evenodd" d="M12 16.25c.41 0 .75.33.75.75v3c0 .41-.34.75-.75.75 -.42 0-.75-.34-.75-.75v-3c0-.42.33-.75.75-.75Z"/></g></svg>