<svg viewBox="0 0 24 24" xmlns="http://www.w3.org/2000/svg"><g fill="#A2ADB8" fill-rule="evenodd"><path d="M7 19.25c.41 0 .75.33.75.75v2c0 .41-.34.75-.75.75 -.42 0-.75-.34-.75-.75v-2c0-.42.33-.75.75-.75Z"/><path d="M17 19.25c.41 0 .75.33.75.75v2c0 .41-.34.75-.75.75 -.42 0-.75-.34-.75-.75v-2c0-.42.33-.75.75-.75Z"/></g><path fill="#ECEFF1" d="M6 1.25c-.42 0-.75.33-.75.75v18c0 .41.33.75.75.75h12c.41 0 .75-.34.75-.75V2c0-.42-.34-.75-.75-.75H6Z"/><g fill="#EE4D4D" fill-rule="evenodd"><path d="M9.75 1.25v9.43l2.78 2.78c.14.14.21.33.21.53v6.75h-1.5V14.3l-2.79-2.79c-.15-.15-.22-.34-.22-.54V1.22h1.5Z"/><path d="M15 3.25c.41 0 .75.33.75.75v2c0 .41-.34.75-.75.75 -.42 0-.75-.34-.75-.75V4c0-.42.33-.75.75-.75Z"/></g></svg>