<svg viewBox="0 0 24 24" xmlns="http://www.w3.org/2000/svg"><path fill="#ECEFF1" d="M2 1.25c-.42 0-.75.33-.75.75v13c0 .41.33.75.75.75h20c.41 0 .75-.34.75-.75V2c0-.42-.34-.75-.75-.75H2Z"/><path fill="#CFD8DC" d="M10 14.25c-.42 0-.75.33-.75.75v4c0 .41.33.75.75.75h4c.41 0 .75-.34.75-.75v-4c0-.42-.34-.75-.75-.75h-4Z"/><g fill="#5E94FF"><path d="M8 18.25c-.26 0-.49.12-.63.33l-2 3c-.16.23-.17.52-.04.76s.38.39.66.39h12c.27 0 .53-.16.66-.4 .13-.25.11-.54-.04-.77l-2-3c-.14-.21-.38-.34-.63-.34h-8Z"/><path fill="#5E94FF" fill-rule="evenodd" d="M1.25 2c0-.42.33-.75.75-.75h20c.41 0 .75.33.75.75v13c0 .41-.34.75-.75.75H2c-.42 0-.75-.34-.75-.75V2Zm1.5.75v11.5h18.5V2.75H2.75Z"/></g></svg>