<svg viewBox="0 0 24 24" xmlns="http://www.w3.org/2000/svg"><path fill="#8BC94D" d="M2 1.25c-.42 0-.75.33-.75.75v5c0 .09.01.18.05.27l1.94 4.86v9.85c0 .41.33.75.75.75h18c.41 0 .75-.34.75-.75v-20c0-.42-.34-.75-.75-.75h-20Z"/><g fill="#ECEFF1"><path d="M6.5 14.75c-.42 0-.75.33-.75.75v4c0 .41.33.75.75.75h4c.41 0 .75-.34.75-.75v-4c0-.42-.34-.75-.75-.75h-4Z"/><path d="M16 15.25c-.42 0-.75.33-.75.75v3c0 .41.33.75.75.75h3c.41 0 .75-.34.75-.75v-3c0-.42-.34-.75-.75-.75h-3Z"/><path d="M11.5 3.75c-.42 0-.75.33-.75.75v3c0 .41.33.75.75.75h8c.41 0 .75-.34.75-.75v-3c0-.42-.34-.75-.75-.75h-8Z"/><path d="M11.5 9.25c-.42 0-.75.33-.75.75v3c0 .41.33.75.75.75h8c.41 0 .75-.34.75-.75v-3c0-.42-.34-.75-.75-.75h-8Z"/><path fill="#ECEFF1" fill-rule="evenodd" d="M8 4.25c.41 0 .75.33.75.75v7c0 .41-.34.75-.75.75 -.42 0-.75-.34-.75-.75V5c0-.42.33-.75.75-.75Z"/></g></svg>