<svg viewBox="0 0 24 24" xmlns="http://www.w3.org/2000/svg"><path fill="#5E94FF" d="M2 1.25c-.42 0-.75.33-.75.75v20c0 .41.33.75.75.75h20c.41 0 .75-.34.75-.75V2c0-.42-.34-.75-.75-.75H2Z"/><path fill="#ECEFF1" d="M6 4.25c-.97 0-1.75.78-1.75 1.75v12c0 .96.78 1.75 1.75 1.75h3.32c.71 0 1.35-.44 1.62-1.11l.49-1.25c.03-.1.12-.16.23-.16h.64c.1 0 .19.06.23.15l.49 1.24c.26.66.9 1.1 1.62 1.1h3.32c.96 0 1.75-.79 1.75-1.75v-12c0-.97-.79-1.75-1.75-1.75h-12Z"/><path fill="#CFD8DC" d="M8.5 6.75c-.97 0-1.75.78-1.75 1.75v7c0 .96.78 1.75 1.75 1.75h7c.96 0 1.75-.79 1.75-1.75v-7c0-.97-.79-1.75-1.75-1.75h-7Z"/></svg>