<svg viewBox="0 0 24 24" xmlns="http://www.w3.org/2000/svg"><path fill="#A2ADB8" d="M2 6.25c-.42 0-.75.33-.75.75v13c0 .41.33.75.75.75h4c.41 0 .75-.34.75-.75v-2.25h2.5V20c0 .41.33.75.75.75h12c.41 0 .75-.34.75-.75V7c0-.42-.34-.75-.75-.75H2Z"/><path fill="#FFC44D" d="M10 16.25c-.42 0-.75.33-.75.75v3c0 .41.33.75.75.75h9c.41 0 .75-.34.75-.75v-3c0-.42-.34-.75-.75-.75h-9Z"/><g fill="#ECEFF1"><path d="M16 9.25c-.42 0-.75.33-.75.75v4c0 .41.33.75.75.75h3c.41 0 .75-.34.75-.75v-4c0-.42-.34-.75-.75-.75h-3Z"/><path d="M5 9.25c-.42 0-.75.33-.75.75v4c0 .41.33.75.75.75h8.5c.41 0 .75-.34.75-.75v-4c0-.42-.34-.75-.75-.75H5Z"/></g></svg>