<svg viewBox="0 0 24 24" xmlns="http://www.w3.org/2000/svg"><g fill="#CFD8DC"><path d="M2 2.25c-.42 0-.75.33-.75.75v4c0 .41.33.75.75.75h3c.41 0 .75-.34.75-.75V3c0-.42-.34-.75-.75-.75H2Z"/><path d="M22 16.25c.41 0 .75.33.75.75v4c0 .41-.34.75-.75.75h-3c-.42 0-.75-.34-.75-.75v-4c0-.42.33-.75.75-.75h3Z"/></g><path fill="#EE4D4D" d="M9 2.25c-.42 0-.75.33-.75.75v4H9v.75c.41 0 .75.33.75.75V18c0 2.07 1.67 3.75 3.75 3.75H15c.41 0 .75-.34.75-.75v-4H15v-.75c-.42 0-.75-.34-.75-.75V6c0-2.08-1.68-3.75-3.75-3.75H9Z"/><g fill="#8B98A6"><path d="M5 1.25c-.42 0-.75.33-.75.75v6c0 .41.33.75.75.75h2c1.51 0 2.75-1.24 2.75-2.75V4c0-1.52-1.24-2.75-2.75-2.75H5Z"/><path d="M19 15.25c.41 0 .75.33.75.75v6c0 .41-.34.75-.75.75h-2c-1.52 0-2.75-1.24-2.75-2.75v-2c0-1.52 1.23-2.75 2.75-2.75h2Z"/></g></svg>