<svg viewBox="0 0 24 24" xmlns="http://www.w3.org/2000/svg"><path fill="#FFC44D" d="M11 16.25c-.42 0-.75.33-.75.75v3c0 .41.33.75.75.75h10c.41 0 .75-.34.75-.75v-3c0-.42-.34-.75-.75-.75H11Z"/><path fill="#A2ADB8" d="M4 5.25c-.42 0-.75.33-.75.75v11c0 .41.33.75.75.75h18c.41 0 .75-.34.75-.75V6c0-.42-.34-.75-.75-.75H4Z"/><path fill="#ECEFF1" d="M15.75 8.5c0-.28-.15-.52-.39-.66 -.24-.14-.53-.13-.76 0l-2.33 1.39h-1.8c-.42 0-.75.33-.75.75v3c0 .41.33.75.75.75h1.79l2.32 1.39c.23.13.52.14.75 0 .23-.14.38-.39.38-.66v-6Z"/><path fill="#CFD8DC" fill-rule="evenodd" d="M1.25 5c0-.42.33-.75.75-.75h2c.41 0 .75.33.75.75v14c0 .41-.34.75-.75.75 -.42 0-.75-.34-.75-.75V5.75H2c-.42 0-.75-.34-.75-.75Z"/></svg>