<svg viewBox="0 0 24 24" xmlns="http://www.w3.org/2000/svg"><path fill="#CFD8DC" fill-rule="evenodd" d="M7.75 2.75c-1.39 0-2.5 1.11-2.5 2.5V10c0 .41-.34.75-.75.75 -.42 0-.75-.34-.75-.75V5.25c0-2.21 1.79-4 4-4 2.2 0 4 1.79 4 4V7c0 .41-.34.75-.75.75 -.42 0-.75-.34-.75-.75V5.25c0-1.39-1.12-2.5-2.5-2.5Z"/><g fill="#8B98A6"><path d="M3 9.25c-.42 0-.75.33-.75.75v3c0 .41.33.75.75.75h3c.41 0 .75-.34.75-.75v-3c0-.42-.34-.75-.75-.75H3Z"/><path d="M12 6.25c-1.52 0-2.75 1.23-2.75 2.75v11c0 1.51 1.23 2.75 2.75 2.75h7c1.51 0 2.75-1.24 2.75-2.75v-8c0-.29-.17-.55-.42-.68l-3.59-1.8V6.98c0-.42-.34-.75-.75-.75h-5Z"/></g><path fill="#FFC44D" fill-rule="evenodd" d="M16.25 7c0-.42.33-.75.75-.75h2c1.51 0 2.75 1.23 2.75 2.75v3c0 .25-.14.5-.36.63 -.23.13-.5.14-.73.03l-4-2c-.26-.13-.42-.39-.42-.68v-3Zm1.5.75v1.78l2.5 1.25V8.99c0-.7-.56-1.25-1.25-1.25h-1.25Z"/></svg>