<svg viewBox="0 0 24 24" xmlns="http://www.w3.org/2000/svg"><g fill-rule="evenodd"><path d="M15.5 3c0-.56.44-1 1-1H22c.55 0 1 .44 1 1v18c0 .55-.45 1-1 1h-5.5c-.56 0-1-.45-1-1V3Zm2 1v16H21V4h-3.5Z"/><path d="M20 16v2h-2v-2h2Z"/><path d="M20 11.5v2h-2v-2h2Z"/><path d="M1 3c0-.56.44-1 1-1h14.5c.55 0 1 .44 1 1v18c0 .55-.45 1-1 1H2c-.56 0-1-.45-1-1V3Zm2 5c0-1.66 1.34-3 3-3 1.65 0 3 1.34 3 3 0 1.65-1.35 3-3 3 -1.66 0-3-1.35-3-3Zm9.5-3c-1.66 0-3 1.34-3 3 0 1.65 1.34 3 3 3 1.65 0 3-1.35 3-3 0-1.66-1.35-3-3-3ZM5 15v-2h9v2H5Zm0 1v2h9v-2H5Z"/></g></svg>