<svg viewBox="0 0 24 24" xmlns="http://www.w3.org/2000/svg"><g fill-rule="evenodd"><path d="M2.14 3.51c-.29-.05-.59.04-.81.23 -.23.18-.35.46-.35.75v12c0 .29.12.56.34.75 .22.19.51.27.8.23l8.51-1.28c.88-.14 1.78-.14 2.67 0l8.51 1.27c.28.04.58-.05.8-.24 .22-.19.34-.47.34-.76v-12c0-.3-.13-.57-.35-.76 -.23-.19-.52-.28-.81-.24l-8.52 1.27c-.89.13-1.79.13-2.68 0L2.07 3.45Z"/><path d="M11.83 18.51c.1-.02.22-.02.32 0l9 1.5 -.33 1.97 -8.84-1.48 -8.84 1.47 -.33-1.98 8.99-1.5Z"/><path d="M8.02 19.78l1-4.5 1.95.43 -.68 3.05 1.53-.26c.1-.02.22-.02.32 0l1.53.25 -.68-3.06 1.95-.44 1 4.5c.07.32-.03.66-.26.9s-.57.35-.9.29l-2.84-.48 -2.84.47c-.33.05-.67-.06-.9-.3 -.23-.25-.33-.59-.26-.91Z"/></g></svg>