<svg viewBox="0 0 24 24" xmlns="http://www.w3.org/2000/svg"><path fill-rule="evenodd" d="M4 2c0-.56.44-1 1-1h14c.55 0 1 .44 1 1v20c0 .55-.45 1-1 1H5c-.56 0-1-.45-1-1V2Zm4.5 7.5C8.5 7.56 10.06 6 12 6c1.93 0 3.5 1.56 3.5 3.5 0 1.93-1.57 3.5-3.5 3.5 -.37 0-.73-.06-1.06-.17l1.34-1.73 -1.58-1.23 -1.43 1.82c-.5-.61-.79-1.38-.79-2.22ZM12 15c-.84 0-1.63-.19-2.34-.52l-.88 1.13 -1.58-1.23 .83-1.07c-.96-.99-1.55-2.34-1.55-3.82 0-3.04 2.46-5.5 5.5-5.5 3.03 0 5.5 2.46 5.5 5.5 0 3.03-2.47 5.5-5.5 5.5Zm-4 1c-.56 0-1 .44-1 1v2.5c0 .55.44 1 1 1h8c.55 0 1-.45 1-1V17c0-.56-.45-1-1-1H8Zm1 2.5V18h6v.5H9Z"/></svg>