<svg viewBox="0 0 24 24" xmlns="http://www.w3.org/2000/svg"><path fill-rule="evenodd" d="M2 4.5c-.56 0-1 .44-1 1v13c0 .55.44 1 1 1h1.5V16c0-.56.44-1 1-1H7v2H5.5v2.5H7c.55 0 1-.45 1-1v-3h1v3c0 .55.44 1 1 1h8.5V17H10v-2h9.5c.55 0 1 .44 1 1v3.5H22c.55 0 1-.45 1-1v-13c0-.56-.45-1-1-1H2ZM16.5 7c-.56 0-1 .44-1 1v4c0 .55.44 1 1 1h3c.55 0 1-.45 1-1V8c0-.56-.45-1-1-1h-3Zm1 4V9h1v2h-1Zm-14-3c0-.56.44-1 1-1h3c.55 0 1 .44 1 1v4c0 .55-.45 1-1 1h-3c-.56 0-1-.45-1-1V8Zm2 1v2h1V9h-1Zm5-2c-.56 0-1 .44-1 1v4c0 .55.44 1 1 1h3c.55 0 1-.45 1-1V8c0-.56-.45-1-1-1h-3Zm1 4V9h1v2h-1Z"/></svg>