<svg viewBox="0 0 24 24" xmlns="http://www.w3.org/2000/svg"><g fill-rule="evenodd"><path d="M2.5 4c0-1.66 1.34-3 3-3h8c1.65 0 3 1.34 3 3v1.5h-2V4c0-.56-.45-1-1-1h-8c-.56 0-1 .44-1 1v16c0 .55.44 1 1 1h7v2h-7c-1.66 0-3-1.35-3-3V4Z"/><path d="M11 20.5H8v-2h3v2Z"/><path d="M15.5 10c-1.39 0-2.5 1.11-2.5 2.5v5c0 1.38 1.11 2.5 2.5 2.5H19c1.38 0 2.5-1.12 2.5-2.5v-5c0-1.39-1.12-2.5-2.5-2.5h-3.5Z"/></g><g><path d="M14.51 7.83c.08-.49.49-.84.98-.84h3.5c.48 0 .9.35.98.83l.23 1.38c-.38-.15-.79-.22-1.22-.22h-3.5c-.43 0-.84.07-1.22.21l.23-1.39Z"/><path d="M20.21 20.78c-.38.14-.79.21-1.22.21h-3.5c-.43 0-.84-.08-1.22-.22l.23 1.38c.08.48.49.83.98.83h3.5c.48 0 .9-.36.98-.84l.23-1.39Z"/></g></svg>