<svg viewBox="0 0 24 24" xmlns="http://www.w3.org/2000/svg"><g fill-rule="evenodd"><path d="M5.5 1C3.56 1 2 2.56 2 4.5 2 6.43 3.56 8 5.5 8 7.43 8 9 6.43 9 4.5 9 2.56 7.43 1 5.5 1Z"/><path d="M5.5 16C3.56 16 2 17.56 2 19.5 2 21.43 3.56 23 5.5 23 7.43 23 9 21.43 9 19.5 9 17.56 7.43 16 5.5 16Z"/><path d="M20 3.5H7v-2h14c.55 0 1 .44 1 1v4c0 .55-.45 1-1 1H7v-2h13v-2Z"/><path d="M20 18.5H7v-2h14c.55 0 1 .44 1 1v4c0 .55-.45 1-1 1H7v-2h13v-2Z"/><path d="M18.5 8.5c1.93 0 3.5 1.56 3.5 3.5 0 1.93-1.57 3.5-3.5 3.5 -1.94 0-3.5-1.57-3.5-3.5 0-1.94 1.56-3.5 3.5-3.5Z"/><path d="M4 11h13V9H3c-.56 0-1 .44-1 1v4c0 .55.44 1 1 1h14v-2H4v-2Z"/></g></svg>