<svg viewBox="0 0 24 24" xmlns="http://www.w3.org/2000/svg"><g fill-rule="evenodd"><path d="M2 9c-.56 0-1 .44-1 1v4c0 .55.44 1 1 1h4c.55 0 1-.45 1-1v-4c0-.56-.45-1-1-1H2Z"/><path d="M18 9c-.56 0-1 .44-1 1v4c0 .55.44 1 1 1h4c.55 0 1-.45 1-1v-4c0-.56-.45-1-1-1h-4Z"/><path d="M18 1c-.56 0-1 .44-1 1v4c0 .55.44 1 1 1h4c.55 0 1-.45 1-1V2c0-.56-.45-1-1-1h-4Z"/><path d="M18 17c-.56 0-1 .44-1 1v4c0 .55.44 1 1 1h4c.55 0 1-.45 1-1v-4c0-.56-.45-1-1-1h-4Z"/><path d="M18 13H6v-2h12v2Z"/><path d="M11 4c0-.56.44-1 1-1h6v2h-5v14h5v2h-6c-.56 0-1-.45-1-1V4Z"/></g></svg>