<svg viewBox="0 0 24 24" xmlns="http://www.w3.org/2000/svg"><g fill-rule="evenodd"><path d="M11 16V9h2v7h-2Z"/><path d="M3 13c0-.56.44-1 1-1h16c.55 0 1 .44 1 1v3h-2v-2H5v2H3v-3Z"/><path d="M4 15c-1.66 0-3 1.34-3 3 0 1.65 1.34 3 3 3 1.65 0 3-1.35 3-3 0-1.66-1.35-3-3-3Z"/><path d="M12 15c-1.66 0-3 1.34-3 3 0 1.65 1.34 3 3 3 1.65 0 3-1.35 3-3 0-1.66-1.35-3-3-3Z"/><path d="M12 2C9.79 2 8 3.79 8 6c0 2.2 1.79 4 4 4 2.2 0 4-1.8 4-4 0-2.21-1.8-4-4-4Z"/><path d="M20 15c-1.66 0-3 1.34-3 3 0 1.65 1.34 3 3 3 1.65 0 3-1.35 3-3 0-1.66-1.35-3-3-3Z"/></g></svg>