<svg viewBox="0 0 24 24" xmlns="http://www.w3.org/2000/svg"><g fill-rule="evenodd"><path d="M1 22V2h2v19h19v2H2c-.56 0-1-.45-1-1Z"/><path d="M19.5 14c-1.39 0-2.5 1.11-2.5 2.5 0 1.38 1.11 2.5 2.5 2.5 1.38 0 2.5-1.12 2.5-2.5 0-1.39-1.12-2.5-2.5-2.5Z"/><path d="M13.5 8C12.11 8 11 9.11 11 10.5c0 1.38 1.11 2.5 2.5 2.5 1.38 0 2.5-1.12 2.5-2.5C16 9.11 14.88 8 13.5 8Z"/><path d="M19.5 2C18.11 2 17 3.11 17 4.5 17 5.88 18.11 7 19.5 7 20.88 7 22 5.88 22 4.5 22 3.11 20.88 2 19.5 2Z"/><path d="M13.5 14c-1.39 0-2.5 1.11-2.5 2.5 0 1.38 1.11 2.5 2.5 2.5 1.38 0 2.5-1.12 2.5-2.5 0-1.39-1.12-2.5-2.5-2.5Z"/><path d="M7.5 8C6.11 8 5 9.11 5 10.5 5 11.88 6.11 13 7.5 13c1.38 0 2.5-1.12 2.5-2.5C10 9.11 8.88 8 7.5 8Z"/><path d="M13.5 2C12.11 2 11 3.11 11 4.5 11 5.88 12.11 7 13.5 7 14.88 7 16 5.88 16 4.5 16 3.11 14.88 2 13.5 2Z"/></g></svg>