<svg viewBox="0 0 24 24" xmlns="http://www.w3.org/2000/svg"><g fill-rule="evenodd"><path d="M11.27 5.76L6.41 9.28 5.23 7.66l4.85-3.53 1.17 1.61Zm6.3 3.52l-4.852-3.53 1.17-1.62 4.85 3.52 -1.18 1.61Zm-12.24 1.4l2.27 7 -1.91.61 -2.28-7 1.9-.62Zm11.04 7l2.27-7 1.9.61 -2.28 7 -1.91-.62Zm-7.39.5h5.99v2h-6v-2Z"/><path d="M12 1.5c-1.39 0-2.5 1.11-2.5 2.5 0 1.38 1.11 2.5 2.5 2.5 1.38 0 2.5-1.12 2.5-2.5 0-1.39-1.12-2.5-2.5-2.5Z"/><path d="M7.5 17C6.11 17 5 18.11 5 19.5 5 20.88 6.11 22 7.5 22c1.38 0 2.5-1.12 2.5-2.5 0-1.39-1.12-2.5-2.5-2.5Z"/><path d="M16.5 17c-1.39 0-2.5 1.11-2.5 2.5 0 1.38 1.11 2.5 2.5 2.5 1.38 0 2.5-1.12 2.5-2.5 0-1.39-1.12-2.5-2.5-2.5Z"/><path d="M19.5 7C18.11 7 17 8.11 17 9.5c0 1.38 1.11 2.5 2.5 2.5 1.38 0 2.5-1.12 2.5-2.5C22 8.11 20.88 7 19.5 7Z"/><path d="M4.5 7C3.11 7 2 8.11 2 9.5 2 10.88 3.11 12 4.5 12 5.88 12 7 10.88 7 9.5 7 8.11 5.88 7 4.5 7Z"/></g></svg>