<svg viewBox="0 0 24 24" xmlns="http://www.w3.org/2000/svg"><path fill-rule="evenodd" d="M14.09 1.01c-.3-.06-.6.02-.83.21 -.23.19-.36.47-.36.76v3.76c0 .44.29.83.71.95 1.74.51 3.12 1.89 3.64 3.64 .12.42.51.71.95.71h3.76c.29 0 .57-.14.76-.36 .19-.23.26-.53.21-.83 -.83-4.51-4.38-8.06-8.89-8.89Zm-2.85.98c0-.3-.14-.58-.36-.77 -.23-.19-.53-.27-.83-.22C4.89 1.94.98 6.46.98 11.9c0 2.45.8 4.73 2.15 6.56 .17.23.43.38.72.4 .29.02.57-.09.78-.3l2.64-2.64c.32-.33.38-.84.14-1.23 -.5-.82-.79-1.79-.79-2.82 0-2.46 1.63-4.53 3.86-5.2 .42-.13.71-.52.71-.96V1.94Zm6.98 10.75c-.45 0-.84.29-.96.71 -.67 2.23-2.75 3.86-5.2 3.86 -.84 0-1.63-.19-2.33-.53 -.39-.19-.84-.11-1.14.19l-2.7 2.69c-.22.21-.32.51-.29.81 .03.3.19.57.45.73 1.72 1.11 3.78 1.75 5.98 1.75 5.43 0 9.95-3.91 10.9-9.07 .05-.3-.03-.6-.22-.83 -.19-.23-.48-.36-.77-.36h-3.77Z"/></svg>