<svg viewBox="0 0 24 24" xmlns="http://www.w3.org/2000/svg"><path fill-rule="evenodd" d="M11.83 1c-1.18 0-2.31.18-3.37.52 -.29.09-.52.3-.63.57 -.12.27-.1.58.04.84l3.5 6.5c.14.27.42.46.73.51 .31.04.62-.06.85-.29l5.22-5.23c.2-.21.31-.51.28-.8 -.03-.3-.19-.57-.43-.74C16.24 1.65 14.09.94 11.78.94ZM6.44 3.72c-.15-.27-.4-.45-.69-.51 -.3-.06-.6.01-.83.2C2.9 5.02 1.47 7.34.99 9.98c-.06.29.02.59.21.82 .18.22.47.35.76.35h6.79c.35 0 .67-.19.85-.49 .18-.31.18-.68.02-.99L6.4 3.69Zm14.44 2.03c-.17-.25-.44-.41-.74-.43 -.3-.03-.59.07-.8.28l-6.96 6.95c-.16.15-.37.23-.58.23H1.96c-.3 0-.58.13-.77.35 -.19.22-.27.52-.22.82 .94 5.12 5.42 9 10.81 9 6.07 0 11-4.93 11-11 0-2.32-.72-4.47-1.94-6.24Z"/></svg>