<svg viewBox="0 0 24 24" xmlns="http://www.w3.org/2000/svg"><path fill="#5E94FF" d="M12 1.25C6.06 1.25 1.25 6.06 1.25 12c0 5.93 4.81 10.75 10.75 10.75 5.93 0 10.75-4.82 10.75-10.75 0-5.94-4.82-10.75-10.75-10.75Z"/><g fill="#ECEFF1"><path d="M12 4.75c-2.49 0-4.5 2.01-4.5 4.5 0 2.48 2.01 4.5 4.5 4.5 2.48 0 4.5-2.02 4.5-4.5 0-2.49-2.02-4.5-4.5-4.5Z"/><path fill="#ECEFF1" fill-rule="evenodd" d="M20.25 18.89v-.4c0-.33-.13-.62-.27-.85 -.15-.24-.35-.46-.57-.67 -.45-.42-1.06-.83-1.79-1.19 -1.46-.73-3.45-1.31-5.64-1.31 -2.2 0-4.19.57-5.64 1.3 -.73.36-1.34.77-1.79 1.19 -.23.2-.42.43-.57.66 -.15.22-.27.51-.27.84v.39c1.97 2.35 4.93 3.85 8.25 3.85 3.31 0 6.27-1.5 8.25-3.86Z"/></g></svg>