<svg viewBox="0 0 24 24" xmlns="http://www.w3.org/2000/svg"><path fill="#5E94FF" d="M12 1.25C6.06 1.25 1.25 6.06 1.25 12c0 5.93 4.81 10.75 10.75 10.75 5.93 0 10.75-4.82 10.75-10.75 0-5.94-4.82-10.75-10.75-10.75Z"/><g fill="#ECEFF1"><path d="M12 4.5c-2.63 0-4.75 2.12-4.75 4.75C7.25 11.87 9.37 14 12 14c2.62 0 4.75-2.13 4.75-4.75 0-2.63-2.13-4.75-4.75-4.75Z"/><path fill="#ECEFF1" fill-rule="evenodd" d="M18.75 20.36v-2.87c0-2.63-2.13-4.75-4.75-4.75h-4c-2.63 0-4.75 2.12-4.75 4.75v2.86c1.84 1.49 4.19 2.38 6.75 2.38 2.55 0 4.9-.9 6.75-2.39Z"/></g><g fill="#5E94FF" fill-rule="evenodd"><path d="M15.75 22.07v-4.58c0-.42-.34-.75-.75-.75 -.42 0-.75.33-.75.75v5.01c.51-.11 1.01-.26 1.5-.44Z"/><path d="M9.75 22.51v-5.02c0-.42-.34-.75-.75-.75 -.42 0-.75.33-.75.75v4.57c.48.18.98.32 1.5.43Z"/></g></svg>