<svg viewBox="0 0 24 24" xmlns="http://www.w3.org/2000/svg"><g fill-rule="evenodd"><path d="M12.25 4.75c-2.49 0-4.5 2.02-4.5 4.53 0 1.98 1.15 3.73 2.41 5.04 .62.64 1.24 1.15 1.71 1.5 .13.1.26.19.37.26 .09-.07.19-.15.31-.23 .43-.33 1.02-.81 1.62-1.41 .29-.3.76-.3 1.06-.01 .29.29.29.76 0 1.06 -.67.66-1.32 1.19-1.8 1.54 -.25.17-.45.31-.59.41 -.08.04-.13.08-.17.1 -.02.01-.04.02-.05.02l-.02 0 -.01 0 -.01 0c-.01 0-.01 0-.39-.65 -.39.64-.39.64-.39.64l-.01-.01 -.01-.01 -.02-.01c-.02-.01-.03-.02-.06-.04 -.05-.03-.11-.07-.19-.12 -.16-.11-.37-.26-.63-.45 -.52-.39-1.21-.96-1.9-1.67 -1.37-1.42-2.84-3.53-2.84-6.09 0-3.33 2.68-6.04 6-6.04 3.31 0 6 2.7 6 6.03 0 1.1-.28 2.12-.69 3.03 -.18.37-.62.54-1 .37 -.38-.18-.55-.62-.38-1 .34-.76.55-1.56.55-2.41 0-2.51-2.02-4.54-4.5-4.54Zm0 12.25l-.39.64c.23.14.53.14.77 0l-.39-.65Z"/><path d="M12.25 7.18c-.92 0-1.68.75-1.68 1.68 0 .93.75 1.68 1.67 1.68 .91 0 1.67-.76 1.67-1.69 0-.94-.76-1.69-1.68-1.69ZM9.07 8.86c0-1.76 1.41-3.19 3.17-3.19 1.75 0 3.17 1.43 3.17 3.18 0 1.75-1.42 3.18-3.18 3.18 -1.76 0-3.18-1.44-3.18-3.19Z"/><path d="M5.25 20c0-.42.33-.75.75-.75h12c.41 0 .75.33.75.75 0 .41-.34.75-.75.75H6c-.42 0-.75-.34-.75-.75Z"/></g></svg>