<svg viewBox="0 0 24 24" xmlns="http://www.w3.org/2000/svg"><g fill-rule="evenodd"><path d="M12 2.75c-2.35 0-4.25 1.9-4.25 4.25 0 2.34 1.9 4.25 4.25 4.25 .95 0 1.83-.32 2.55-.85 .33-.25.8-.19 1.05.14 .24.33.18.8-.15 1.05 -.97.72-2.16 1.15-3.46 1.15 -3.18 0-5.75-2.58-5.75-5.75 0-3.18 2.57-5.75 5.75-5.75 3.17 0 5.75 2.57 5.75 5.75 0 .41-.34.75-.75.75 -.42 0-.75-.34-.75-.75 0-2.35-1.91-4.25-4.25-4.25Z"/><path d="M8.72 14.25c.11.39-.12.81-.52.92 -1.13.32-2.03.78-2.62 1.28 -.6.5-.84 1-.84 1.45 0 .66.56 1.47 1.92 2.15 1.32.66 3.2 1.09 5.32 1.09 2.11 0 3.99-.44 5.32-1.1 1.36-.69 1.92-1.5 1.92-2.16 0-.45-.25-.95-.84-1.46 -.6-.51-1.5-.97-2.62-1.29 -.4-.12-.63-.54-.52-.93 .11-.4.53-.63.92-.52 1.26.36 2.36.9 3.17 1.58 .8.68 1.36 1.56 1.36 2.6 0 1.54-1.24 2.73-2.76 3.49 -1.58.78-3.692 1.25-6 1.25 -2.31 0-4.42-.47-6-1.26 -1.53-.77-2.76-1.96-2.76-3.5 0-1.04.56-1.92 1.36-2.61s1.91-1.22 3.17-1.59c.39-.12.81.11.92.51Z"/><path d="M12 11.25c.41 0 .75.33.75.75v7.5c0 .41-.34.75-.75.75 -.42 0-.75-.34-.75-.75V12c0-.42.33-.75.75-.75Z"/></g></svg>