<svg viewBox="0 0 24 24" xmlns="http://www.w3.org/2000/svg"><g fill-rule="evenodd"><path d="M12 3.75c-3.43 0-6.25 2.9-6.25 6.56 0 2.86 1.6 5.36 3.29 7.19 .84.9 1.68 1.62 2.31 2.11 .24.19.46.35.63.47 .12-.1.28-.21.45-.34 .53-.41 1.25-1 2.01-1.76 .29-.3.76-.3 1.06 0 .29.29.29.76-.01 1.06 -.82.81-1.6 1.45-2.17 1.88 -.29.21-.53.38-.7.5 -.09.05-.16.1-.2.13 -.03.01-.05.02-.06.03l-.02 0 -.01 0 -.01 0c-.01 0-.01 0-.4-.64 -.4.63-.4.63-.4.63l-.01-.01 -.01-.01 -.02-.02c-.02-.01-.04-.03-.07-.05 -.06-.04-.14-.1-.24-.17 -.21-.14-.49-.35-.83-.61 -.68-.53-1.59-1.31-2.5-2.29 -1.81-1.95-3.71-4.79-3.71-8.22 0-4.43 3.43-8.07 7.75-8.07 4.31 0 7.75 3.64 7.75 8.06 0 1.65-.45 3.17-1.11 4.51 -.19.37-.64.52-1.01.34 -.38-.19-.53-.64-.35-1.01 .57-1.19.94-2.48.94-3.86 0-3.66-2.83-6.57-6.25-6.57ZM12 21l-.4.63c.24.15.55.15.79 0l-.4-.64Z"/><path d="M9.34 12.15c-.3-.3-.3-.77 0-1.07l4.24-4.25c.29-.3.76-.3 1.06 0 .29.29.29.76 0 1.06l-4.25 4.24c-.3.29-.77.29-1.07 0Z"/><path d="M14.65 12.15c-.3.29-.77.29-1.07 0L9.33 7.9c-.3-.3-.3-.77 0-1.07 .29-.3.76-.3 1.06 0l4.24 4.24c.29.29.29.76 0 1.06Z"/></g></svg>