<svg viewBox="0 0 24 24" xmlns="http://www.w3.org/2000/svg"><g fill-rule="evenodd"><path d="M6.72 2.3c.17-.08.37-.08.55 0l4.72 1.88 4.72-1.89c.17-.08.37-.08.55 0l5 2c.28.11.47.38.47.69v10c0 .41-.34.75-.75.75 -.42 0-.75-.34-.75-.75v-9.5l-4.25-1.7 -4.73 1.88c-.18.07-.38.07-.56 0L6.96 3.77l-4.25 1.7v14.38l3.97-1.59c.17-.08.37-.08.55 0l4.72 1.88 4.72-1.89c.17-.08.37-.08.55 0l3.97 1.58v-.9c0-.42.33-.75.75-.75 .41 0 .75.33.75.75v2c0 .24-.13.48-.33.62 -.21.13-.47.16-.7.07l-4.73-1.89 -4.73 1.88c-.18.07-.38.07-.56 0l-4.73-1.89 -4.73 1.88c-.24.09-.5.06-.7-.08 -.21-.14-.33-.38-.33-.63v-16c0-.31.18-.59.47-.7l5-2Z"/><path d="M7 2.25c.41 0 .75.33.75.75v16c0 .41-.34.75-.75.75 -.42 0-.75-.34-.75-.75V3c0-.42.33-.75.75-.75Z"/><path d="M17 2.75c.41 0 .75.33.75.75V19c0 .41-.34.75-.75.75 -.42 0-.75-.34-.75-.75V3.5c0-.42.33-.75.75-.75Z"/><path d="M12 4.25c.41 0 .75.33.75.75v15.5c0 .41-.34.75-.75.75 -.42 0-.75-.34-.75-.75V5c0-.42.33-.75.75-.75Z"/></g></svg>