<svg viewBox="0 0 24 24" xmlns="http://www.w3.org/2000/svg"><g fill-rule="evenodd"><path d="M16.48 11.77c.18.09.18.35 0 .44l-3.83 1.91c-.38.18-.53.63-.34 1 .18.37.63.52 1 .33l3.82-1.92c1.28-.65 1.28-2.49 0-3.14L8.37 6.01c-1.47-.74-3.04.76-2.39 2.26l1.55 3.57c.02.06.02.13 0 .19L5.97 15.6c-.66 1.49.92 2.99 2.38 2.26l1.09-.55c.37-.19.52-.64.33-1.01 -.19-.38-.64-.53-1.01-.34l-1.1.54c-.21.1-.44-.11-.35-.33l1.55-3.58c.19-.45.19-.95 0-1.4L7.3 7.61c-.1-.22.13-.43.34-.33l8.75 4.37Z"/><path d="M7.75 12c0-.42.33-.75.75-.75h8.76c.41 0 .75.33.75.75 0 .41-.34.75-.75.75H8.49c-.42 0-.75-.34-.75-.75Z"/></g></svg>