<svg viewBox="0 0 24 24" xmlns="http://www.w3.org/2000/svg"><g fill-rule="evenodd"><path d="M6.25 17.25c0-.42.33-.75.75-.75h10c.41 0 .75.33.75.75 0 .41-.34.75-.75.75H7c-.42 0-.75-.34-.75-.75Z"/><path d="M4.5 7.5c-.97 0-1.75.78-1.75 1.75 0 .96.78 1.75 1.75 1.75 .96 0 1.75-.79 1.75-1.75 0-.97-.79-1.75-1.75-1.75ZM1.25 9.25C1.25 7.45 2.7 6 4.5 6c1.79 0 3.25 1.45 3.25 3.25 0 1.79-1.46 3.25-3.25 3.25 -1.8 0-3.25-1.46-3.25-3.25Z"/><path d="M19.5 7.5c-.97 0-1.75.78-1.75 1.75 0 .96.78 1.75 1.75 1.75 .39 0 .75-.13 1.04-.35 .33-.25.8-.19 1.05.14 .24.33.18.8-.15 1.05 -.55.4-1.22.65-1.96.65 -1.8 0-3.25-1.46-3.25-3.25 0-1.8 1.45-3.25 3.25-3.25 1.79 0 3.25 1.45 3.25 3.25 0 .41-.34.75-.75.75 -.42 0-.75-.34-.75-.75 0-.97-.79-1.75-1.75-1.75Z"/><path d="M4.5 11c.41 0 .75.33.75.75v5.5c0 .41-.34.75-.75.75 -.42 0-.75-.34-.75-.75v-5.5c0-.42.33-.75.75-.75Z"/><path d="M19.5 11c.41 0 .75.33.75.75v5.5c0 .41-.34.75-.75.75 -.42 0-.75-.34-.75-.75v-5.5c0-.42.33-.75.75-.75Z"/></g></svg>