<svg viewBox="0 0 24 24" xmlns="http://www.w3.org/2000/svg"><path fill="#8B98A6" fill-rule="evenodd" d="M8.26 3.85c.07-.36.37-.61.73-.61h2.99c.41 0 .75.33.75.75 0 .41-.34.75-.75.75H9.59l-.38 1.89c-.09.4-.48.66-.89.58 -.41-.09-.67-.48-.59-.89l.5-2.5Z"/><path fill="#EE4D4D" d="M7.5 5.75c-.22 0-.43.09-.57.26L4.15 9.24H1.99c-.42 0-.75.33-.75.75v3c0 .41.33.75.75.75H7.5l1.8 4.05c.12.27.38.44.68.44h4.5c.29 0 .56-.18.68-.45l1.83-4.14 5.1-.93c.35-.07.61-.38.61-.74v-1.5c0-.42-.34-.75-.75-.75H10.2V6.47c0-.42-.34-.75-.75-.75h-2Z"/><g fill="#CFD8DC"><path d="M4.5 14.25c-1.8 0-3.25 1.45-3.25 3.25 0 1.79 1.45 3.25 3.25 3.25 1.79 0 3.25-1.46 3.25-3.25 0-1.8-1.46-3.25-3.25-3.25Z"/><path d="M19.5 14.25c-1.8 0-3.25 1.45-3.25 3.25 0 1.79 1.45 3.25 3.25 3.25 1.79 0 3.25-1.46 3.25-3.25 0-1.8-1.46-3.25-3.25-3.25Z"/></g></svg>