<svg viewBox="0 0 24 24" xmlns="http://www.w3.org/2000/svg"><path fill="#CFD8DC" fill-rule="evenodd" d="M14.09 6.25c.41 0 .75.33.75.75v5c0 .31-.2.58-.49.69l-2.6 1c-.39.14-.83-.05-.97-.44 -.15-.39.04-.83.43-.97l2.11-.82V6.97c0-.42.33-.75.75-.75Z"/><g fill="#5E94FF"><path d="M7.72 6.75c-.76 0-1.43.48-1.67 1.19l-.61 1.8H1.98c-.42 0-.75.33-.75.75v5c0 .41.33.75.75.75h9.5c.41 0 .75-.34.75-.75v-8c0-.42-.34-.75-.75-.75H7.7Z"/><path fill="#5E94FF" fill-rule="evenodd" d="M22.75 15.5c0-.42-.34-.75-.75-.75h-1c-.42 0-.75.33-.75.75 0 .41.33.75.75.75h1c.41 0 .75-.34.75-.75Zm-8.5 0c0-.42-.34-.75-.75-.75H10c-.42 0-.75.33-.75.75 0 .41.33.75.75.75h3.5c.41 0 .75-.34.75-.75Z"/></g><g fill="#CFD8DC"><path d="M5.5 13.25c-1.25 0-2.25 1-2.25 2.25 0 1.24 1 2.25 2.25 2.25 1.24 0 2.25-1.01 2.25-2.25 0-1.25-1.01-2.25-2.25-2.25Z"/><path d="M15 13.25c-1.25 0-2.25 1-2.25 2.25 0 1.24 1 2.25 2.25 2.25 1.24 0 2.25-1.01 2.25-2.25 0-1.25-1.01-2.25-2.25-2.25Z"/><path d="M19.5 13.25c-1.25 0-2.25 1-2.25 2.25 0 1.24 1 2.25 2.25 2.25 1.24 0 2.25-1.01 2.25-2.25 0-1.25-1.01-2.25-2.25-2.25Z"/></g></svg>