<svg viewBox="0 0 24 24" xmlns="http://www.w3.org/2000/svg"><path fill="#5E94FF" d="M4.5 7.25c-.23 0-.44.09-.58.26l-2.5 3c-.12.13-.18.3-.18.48v5c0 .41.33.75.75.75h8c.41 0 .75-.34.75-.75v-8c0-.42-.34-.75-.75-.75h-5.5Z"/><path fill="#7EA9FF" d="M22 5.25c.41 0 .75.33.75.75v10c0 .41-.34.75-.75.75H10c-.42 0-.75-.34-.75-.75V6c0-.42.33-.75.75-.75h12Z"/><g fill="#CFD8DC"><path d="M6 13.25c-1.52 0-2.75 1.23-2.75 2.75 0 1.51 1.23 2.75 2.75 2.75 1.51 0 2.75-1.24 2.75-2.75 0-1.52-1.24-2.75-2.75-2.75Z"/><path d="M17 13.25c-1.52 0-2.75 1.23-2.75 2.75 0 1.51 1.23 2.75 2.75 2.75 1.51 0 2.75-1.24 2.75-2.75 0-1.52-1.24-2.75-2.75-2.75Z"/></g></svg>