<svg viewBox="0 0 24 24" xmlns="http://www.w3.org/2000/svg"><path fill="#EE4D4D" d="M18 13.25c-.42 0-.75-.34-.75-.75V9c0-.35.23-.65.56-.73l4-1c.22-.06.46-.01.64.13s.28.36.28.59v4.49c0 .41-.34.75-.75.75h-4Z"/><path fill="#A2ADB8" fill-rule="evenodd" d="M13 5.75c.41 0 .75.33.75.75V9c0 .41-.34.75-.75.75 -.42 0-.75-.34-.75-.75V6.5c0-.42.33-.75.75-.75Zm0 6c.41 0 .75.33.75.75V15c0 .41-.34.75-.75.75 -.42 0-.75-.34-.75-.75v-2.5c0-.42.33-.75.75-.75Z"/><g fill="#EE4D4D"><path d="M10 13.25c-.22 0-.43-.1-.57-.26 -.15-.17-.21-.39-.18-.6l.5-3.5c.05-.37.36-.65.74-.65h5c.41 0 .75.33.75.75v3.5c0 .41-.34.75-.75.75h-5.5Z"/><path d="M11 7.25c-.23 0-.44-.11-.58-.28 -.15-.18-.2-.41-.16-.63l.5-2.5c.07-.36.37-.61.73-.61h3.5c.41 0 .75.33.75.75v2.5c0 .41-.34.75-.75.75h-4Z"/><path d="M2.84 13.68c-.31.06-.62-.08-.79-.34 -.17-.27-.15-.61.04-.86l5-6.5c.19-.26.53-.36.83-.26 .3.1.5.38.5.71v5.49c0 .35-.26.66-.61.73l-5 1Z"/></g><path fill="#CFD8DC" d="M2 14.25c-.28 0-.54.15-.67.4 -.13.24-.11.54.05.77l3.5 5c.14.2.36.31.61.31h14.5c.41 0 .75-.34.75-.75v-1.09l1.64-1.03c.21-.14.35-.38.35-.64v-2.25c0-.42-.34-.75-.75-.75h-20Z"/></svg>