<svg viewBox="0 0 24 24" xmlns="http://www.w3.org/2000/svg"><g fill="#CFD8DC"><path d="M16 17.25c-.42 0-.75.33-.75.75v3c0 .96.78 1.75 1.75 1.75h2c.96 0 1.75-.79 1.75-1.75v-3c0-.42-.34-.75-.75-.75h-4Z"/><path d="M4 17.25c-.42 0-.75.33-.75.75v3c0 .96.78 1.75 1.75 1.75h2c.96 0 1.75-.79 1.75-1.75v-3c0-.42-.34-.75-.75-.75H4Z"/></g><path fill="#5E94FF" d="M4 1.25c-.97 0-1.75.78-1.75 1.75v15c0 .96.78 1.75 1.75 1.75h16c.96 0 1.75-.79 1.75-1.75V3c0-.97-.79-1.75-1.75-1.75H4Z"/><path fill="#CFD8DC" d="M3 4.25c-.42 0-.75.33-.75.75v9c0 .41.33.75.75.75h18c.41 0 .75-.34.75-.75V5c0-.42-.34-.75-.75-.75H3Z"/><g fill="#ECEFF1" fill-rule="evenodd"><path d="M14.25 16.5c0-.42.33-.75.75-.75h3c.41 0 .75.33.75.75 0 .41-.34.75-.75.75h-3c-.42 0-.75-.34-.75-.75Z"/><path d="M5.25 16.5c0-.42.33-.75.75-.75h3c.41 0 .75.33.75.75 0 .41-.34.75-.75.75H6c-.42 0-.75-.34-.75-.75Z"/></g></svg>