<svg viewBox="0 0 24 24" xmlns="http://www.w3.org/2000/svg"><path fill="#5E94FF" d="M8 6.25c-.2 0-.39.07-.54.21L4.67 9.24H2.98c-.97 0-1.75.78-1.75 1.75v4c0 .41.33.75.75.75h9c.41 0 .75-.34.75-.75v-8c0-.42-.34-.75-.75-.75h-3Z"/><path fill="#7EA9FF" d="M22 2.25c.41 0 .75.33.75.75v12c0 .41-.34.75-.75.75H11c-.42 0-.75-.34-.75-.75V6.375l-1.7-1.28c-.19-.15-.3-.37-.3-.6v-1.5c0-.42.33-.75.75-.75h13Z"/><g fill="#CFD8DC"><path d="M6 12.25c-1.52 0-2.75 1.23-2.75 2.75 0 1.51 1.23 2.75 2.75 2.75 1.51 0 2.75-1.24 2.75-2.75 0-1.52-1.24-2.75-2.75-2.75Z"/><path d="M18 12.25c-1.52 0-2.75 1.23-2.75 2.75 0 1.51 1.23 2.75 2.75 2.75 1.51 0 2.75-1.24 2.75-2.75 0-1.52-1.24-2.75-2.75-2.75Z"/></g><path fill="#ECEFF1" d="M15 5.25c-.42 0-.75.33-.75.75v3c0 .41.33.75.75.75h4c.41 0 .75-.34.75-.75V6c0-.42-.34-.75-.75-.75h-4Z"/></svg>