<svg viewBox="0 0 24 24" xmlns="http://www.w3.org/2000/svg"><path fill="#CFD8DC" d="M10.53 10.46c-.3-.3-.77-.3-1.07 0l-8 8c-.15.14-.22.33-.22.53v3c0 .41.33.75.75.75h3c.19 0 .38-.08.53-.22l7.99-8c.29-.3.29-.77 0-1.07l-3-3Z"/><path fill="#EE4D4D" d="M18.04 2.98c-1.13-1.13-2.97-1.07-4.02.13L9.65 8.09c-.96 1.08-.9 2.73.125 3.75l2.35 2.35c1.02 1.02 2.66 1.07 3.75.12l4.98-4.37c1.19-1.05 1.25-2.89.13-4.02L18 2.94Z"/><g fill="#ECEFF1" fill-rule="evenodd"><path d="M12.46 8.46c.29-.3.76-.3 1.06 0l2 2c.29.29.29.76 0 1.06 -.3.29-.77.29-1.07 0l-2-2c-.3-.3-.3-.77 0-1.07Z"/><path d="M14.46 6.46c.29-.3.76-.3 1.06 0l2 2c.29.29.29.76 0 1.06 -.3.29-.77.29-1.07 0l-2-2c-.3-.3-.3-.77 0-1.07Z"/></g></svg>