<svg viewBox="0 0 24 24" xmlns="http://www.w3.org/2000/svg"><path fill="#CFD8DC" fill-rule="evenodd" d="M1.25 15c0-.42.33-.75.75-.75h4c.41 0 .75.33.75.75 0 .41-.34.75-.75.75H2.75v1.75c0 .41-.34.75-.75.75 -.42 0-.75-.34-.75-.75V15Z"/><path fill="#5E94FF" d="M11.364 5.75c-1.4 0-2.73.55-3.72 1.53l-1.87 1.86c-.99.98-1.54 2.31-1.54 3.71v2.13c0 .41.33.75.75.75h17c.41 0 .75-.34.75-.75v-8.5c0-.42-.34-.75-.75-.75H11.34Z"/><g fill="#CFD8DC"><path d="M19 12.75c-1.25 0-2.25 1-2.25 2.25 0 1.24 1 2.25 2.25 2.25 1.24 0 2.25-1.01 2.25-2.25 0-1.25-1.01-2.25-2.25-2.25Z"/><path d="M14.5 12.75c-1.25 0-2.25 1-2.25 2.25 0 1.24 1 2.25 2.25 2.25 1.24 0 2.25-1.01 2.25-2.25 0-1.25-1.01-2.25-2.25-2.25Z"/><path d="M8.5 9.25c-.42 0-.75.33-.75.75v5c0 .41.33.75.75.75h3c.41 0 .75-.34.75-.75v-5c0-.42-.34-.75-.75-.75h-3Z"/><path fill="#CFD8DC" fill-rule="evenodd" d="M15.25 10c0-.42.33-.75.75-.75h3.5c.41 0 .75.33.75.75 0 .41-.34.75-.75.75H16c-.42 0-.75-.34-.75-.75Z"/></g></svg>