<svg viewBox="0 0 24 24" xmlns="http://www.w3.org/2000/svg"><path fill="#CFD8DC" d="M9 4.25c-.36 0-.66.24-.74.58l-1 4.5c-.05.22 0 .45.14.63 .14.17.35.28.58.28h7.99c.22 0 .44-.11.58-.29 .14-.18.19-.41.14-.64l-1-4.5c-.08-.35-.39-.59-.74-.59h-6Z"/><path fill="#EE4D4D" d="M12.18 7.77c-.12-.03-.25-.03-.37 0l-6 1.5c-.34.08-.57.38-.57.72v2.83c0 1.61 1.03 3.04 2.56 3.55l3.94 1.31c.15.05.32.05.47 0l3.94-1.32c1.53-.52 2.56-1.95 2.56-3.56V9.96c0-.35-.24-.65-.57-.73l-6-1.5Z"/><g fill="#ECEFF1" fill-rule="evenodd"><path d="M11.25 17.54V7.91l.56-.15c.11-.03.24-.03.36 0l.56.14v9.62l-.52.17c-.16.05-.33.05-.48 0l-.52-.18Z"/><g fill="#8B98A6"><path d="M3.5 5.75c.41 0 .75.33.75.75v9c0 .41-.34.75-.75.75 -.42 0-.75-.34-.75-.75v-9c0-.42.33-.75.75-.75Z"/><path d="M20.5 5.75c.41 0 .75.33.75.75v9c0 .41-.34.75-.75.75 -.42 0-.75-.34-.75-.75v-9c0-.42.33-.75.75-.75Z"/></g></g><g fill="#8B98A6"><path d="M3 14.75c-.97 0-1.75.78-1.75 1.75V19c0 .41.33.75.75.75h3c.41 0 .75-.34.75-.75v-2.5c0-.97-.79-1.75-1.75-1.75H3Z"/><path d="M20 14.75c-.97 0-1.75.78-1.75 1.75V19c0 .41.33.75.75.75h3c.41 0 .75-.34.75-.75v-2.5c0-.97-.79-1.75-1.75-1.75h-1Z"/></g></svg>