<svg viewBox="0 0 24 24" xmlns="http://www.w3.org/2000/svg"><g fill="#8B98A6" fill-rule="evenodd"><path d="M19 1.25c.41 0 .75.33.75.75v2.5c0 .41-.34.75-.75.75h-.75c-.28 0-.5.22-.5.5 0 .27.22.5.5.5H19c.41 0 .75.33.75.75 0 .41-.34.75-.75.75h-.75c-1.11 0-2-.9-2-2 0-1.11.89-2 2-2V2c0-.42.33-.75.75-.75Z"/><path fill="#CFD8DC" d="M13.28 1.77c.09-.32.38-.53.71-.53h5c.41 0 .75.33.75.75 0 .41-.34.75-.75.75h-4.45L12.7 8.71c-.13.39-.55.61-.94.49 -.4-.13-.62-.55-.5-.94l2-6.5Z"/></g><g fill="#CFD8DC"><path d="M16 17.25c-.42 0-.75.33-.75.75v3c0 .96.78 1.75 1.75 1.75h2c.96 0 1.75-.79 1.75-1.75v-3c0-.42-.34-.75-.75-.75h-4Z"/><path d="M4 17.25c-.42 0-.75.33-.75.75v3c0 .96.78 1.75 1.75 1.75h2c.96 0 1.75-.79 1.75-1.75v-3c0-.42-.34-.75-.75-.75H4Z"/></g><path fill="#ECEFF1" d="M7.7 7.75c-.74 0-1.4.46-1.65 1.15l-1.77 4.84c-.09.22-.05.48.09.68 .14.2.36.31.61.31h14c.24 0 .47-.12.61-.32 .14-.21.17-.46.09-.69l-1.77-4.85c-.26-.7-.91-1.16-1.65-1.16h-8.6Z"/><path fill="#7EA9FF" fill-rule="evenodd" d="M6.05 8.9c.25-.7.9-1.16 1.64-1.16h8.59c.73 0 1.39.46 1.64 1.15l1.76 4.84c.08.22.04.48-.1.68 -.15.2-.37.31-.62.31h-14c-.25 0-.48-.12-.62-.32 -.15-.21-.18-.46-.1-.69L6 8.86Zm1.64.34c-.11 0-.2.06-.24.16l-1.4 3.83H17.9l-1.4-3.84c-.04-.1-.13-.17-.24-.17h-8.6Z"/><path fill="#5E94FF" d="M4 13.25c-.97 0-1.75.78-1.75 1.75v3c0 .96.78 1.75 1.75 1.75h16c.96 0 1.75-.79 1.75-1.75v-3c0-.97-.79-1.75-1.75-1.75H4Z"/><g fill="#ECEFF1" fill-rule="evenodd"><path d="M14.25 16.5c0-.42.33-.75.75-.75h3c.41 0 .75.33.75.75 0 .41-.34.75-.75.75h-3c-.42 0-.75-.34-.75-.75Z"/><path d="M5.25 16.5c0-.42.33-.75.75-.75h3c.41 0 .75.33.75.75 0 .41-.34.75-.75.75H6c-.42 0-.75-.34-.75-.75Z"/></g></svg>