<svg viewBox="0 0 24 24" xmlns="http://www.w3.org/2000/svg"><path fill="#CFD8DC" d="M14 10.25c-.24 0-.46-.12-.6-.3 -.15-.19-.19-.44-.13-.66l1-3.5c.09-.33.38-.55.72-.55h3c.41 0 .75.33.75.75v3.5c0 .41-.34.75-.75.75h-4Z"/><path fill="#EE4D4D" d="M5.5 13.75c-.31 0-.58-.19-.7-.47 -.12-.29-.06-.61.16-.82l3.5-3.51c.14-.15.33-.22.53-.22h11c.41 0 .75.33.75.75v3.5c0 .41-.34.75-.75.75H5.49Z"/><path fill="#CFD8DC" d="M2 12.25c-.28 0-.54.15-.67.4 -.13.24-.11.54.05.77l3.5 5c.14.2.36.31.61.31h16.5c.22 0 .43-.11.58-.28 .14-.18.19-.41.15-.63l-1-5c-.08-.36-.38-.61-.74-.61h-19Z"/></svg>