<svg viewBox="0 0 24 24" xmlns="http://www.w3.org/2000/svg"><g fill="#CFD8DC" fill-rule="evenodd"><path d="M14.08 2.37c.34-.23.81-.14 1.04.2l1.99 3c.08.12.12.26.12.41v3.99c0 .41-.34.75-.75.75 -.42 0-.75-.34-.75-.75V6.19l-1.88-2.82c-.23-.35-.14-.82.2-1.05Z"/><path d="M13.75 6c0-.42.33-.75.75-.75h2c.41 0 .75.33.75.75 0 .41-.34.75-.75.75h-2c-.42 0-.75-.34-.75-.75Z"/></g><path fill="#CFD8DC" d="M3 3.25c-.42 0-.75.33-.75.75v9.5c0 .41.33.75.75.75h9c.41 0 .75-.34.75-.75V4c0-.42-.34-.75-.75-.75H3Z"/><path fill="#5E94FF" d="M10 9.25c-.23 0-.44.09-.58.26L7.09 12.3l-4.01.72c-1.07.19-1.85 1.12-1.85 2.21v2.74c0 .41.33.75.75.75h20c.41 0 .75-.34.75-.75v-3.5c0-1.25-1.01-2.25-2.25-2.25h-.65l-2.28-2.74c-.15-.18-.36-.27-.58-.27h-7Z"/><path fill="#7D8995" fill-rule="evenodd" d="M4.75 7c0-.42.33-.75.75-.75h4c.41 0 .75.33.75.75 0 .41-.34.75-.75.75h-4c-.42 0-.75-.34-.75-.75Z"/><g fill="#CFD8DC"><path d="M6 15.25c-1.52 0-2.75 1.23-2.75 2.75 0 1.51 1.23 2.75 2.75 2.75 1.51 0 2.75-1.24 2.75-2.75 0-1.52-1.24-2.75-2.75-2.75Z"/><path d="M18 15.25c-1.52 0-2.75 1.23-2.75 2.75 0 1.51 1.23 2.75 2.75 2.75 1.51 0 2.75-1.24 2.75-2.75 0-1.52-1.24-2.75-2.75-2.75Z"/></g></svg>