<svg viewBox="0 0 24 24" xmlns="http://www.w3.org/2000/svg"><path fill="#5E94FF" d="M10 9.25c-.23 0-.44.09-.58.26L7.09 12.3l-4.01.72c-1.07.19-1.85 1.12-1.85 2.21v2.74c0 .41.33.75.75.75h20c.41 0 .75-.34.75-.75v-3.5c0-1.25-1.01-2.25-2.25-2.25h-.65l-2.28-2.74c-.15-.18-.36-.27-.58-.27h-7Z"/><path fill="#FFC44D" fill-rule="evenodd" d="M6.33 1.32c.37.18.52.63.33 1L5.7 4.23h1.78c.25 0 .5.13.63.35 .13.22.14.49.03.72l-1.5 3c-.19.37-.64.52-1.01.33 -.38-.19-.53-.64-.34-1.01l.95-1.92H4.45c-.26 0-.51-.14-.64-.36 -.14-.23-.15-.5-.04-.73l1.5-3c.18-.38.63-.53 1-.34Z"/><path fill="#FFC44D" d="M18.5 2l.61-.43c-.14-.21-.38-.33-.62-.33 -.25 0-.48.12-.62.32l-.01 0 -.01 0 -.02.02c-.02.02-.04.05-.07.09 -.06.08-.14.2-.24.35 -.2.29-.45.7-.71 1.14 -.26.44-.53.93-.73 1.39 -.19.43-.38.94-.38 1.39 0 1.51 1.23 2.75 2.75 2.75 1.51 0 2.75-1.24 2.75-2.75 0-.45-.19-.97-.38-1.4 -.21-.47-.47-.96-.73-1.4 -.26-.45-.52-.86-.71-1.15 -.1-.15-.18-.27-.24-.36 -.03-.05-.06-.08-.07-.1l-.02-.03 -.01-.01 -.01-.01s-.01-.01-.62.42Z"/><g fill="#5E94FF" fill-rule="evenodd"><path d="M12 2.25c.41 0 .75.33.75.75v4c0 .41-.34.75-.75.75 -.42 0-.75-.34-.75-.75V3c0-.42.33-.75.75-.75Z"/><path d="M9.25 5c0-.42.33-.75.75-.75h4c.41 0 .75.33.75.75 0 .41-.34.75-.75.75h-4c-.42 0-.75-.34-.75-.75Z"/></g><g fill="#CFD8DC"><path d="M6 15.25c-1.52 0-2.75 1.23-2.75 2.75 0 1.51 1.23 2.75 2.75 2.75 1.51 0 2.75-1.24 2.75-2.75 0-1.52-1.24-2.75-2.75-2.75Z"/><path d="M18 15.25c-1.52 0-2.75 1.23-2.75 2.75 0 1.51 1.23 2.75 2.75 2.75 1.51 0 2.75-1.24 2.75-2.75 0-1.52-1.24-2.75-2.75-2.75Z"/></g></svg>