<svg viewBox="0 0 24 24" xmlns="http://www.w3.org/2000/svg"><path fill="#5E94FF" d="M10.1 5.25c-.95 0-1.83.48-2.34 1.29L6.01 9.33 2.99 10c-1.03.22-1.77 1.14-1.77 2.19v3.79c0 .41.33.75.75.75h20c.41 0 .75-.34.75-.75v-5c0-.1-.02-.19-.06-.28l-1.5-3.75c-.42-1.05-1.43-1.73-2.56-1.73h-8.54Z"/><g fill="#CFD8DC"><path d="M6 13.25c-1.52 0-2.75 1.23-2.75 2.75 0 1.51 1.23 2.75 2.75 2.75 1.51 0 2.75-1.24 2.75-2.75 0-1.52-1.24-2.75-2.75-2.75Z"/><path d="M18 13.25c-1.52 0-2.75 1.23-2.75 2.75 0 1.51 1.23 2.75 2.75 2.75 1.51 0 2.75-1.24 2.75-2.75 0-1.52-1.24-2.75-2.75-2.75Z"/></g></svg>