<svg viewBox="0 0 24 24" xmlns="http://www.w3.org/2000/svg"><path fill="#CFD8DC" fill-rule="evenodd" d="M18.38 7c0-.42.33-.75.75-.75h2.36c.41 0 .75.33.75.75 0 .41-.34.75-.75.75h-2.37c-.42 0-.75-.34-.75-.75Z"/><path fill="#5E94FF" d="M10 6.25c-.18 0-.36.06-.49.18L6.15 9.3 3 9.99c-1.03.22-1.77 1.14-1.77 2.19v2.79c0 .41.33.75.75.75h20c.41 0 .75-.34.75-.75v-5c0-.2-.08-.39-.22-.54l-3-3c-.15-.15-.34-.22-.54-.22h-9Z"/><g fill="#CFD8DC"><path d="M6 12.25c-1.52 0-2.75 1.23-2.75 2.75 0 1.51 1.23 2.75 2.75 2.75 1.51 0 2.75-1.24 2.75-2.75 0-1.52-1.24-2.75-2.75-2.75Z"/><path d="M18 12.25c-1.52 0-2.75 1.23-2.75 2.75 0 1.51 1.23 2.75 2.75 2.75 1.51 0 2.75-1.24 2.75-2.75 0-1.52-1.24-2.75-2.75-2.75Z"/></g></svg>