<svg viewBox="0 0 24 24" xmlns="http://www.w3.org/2000/svg"><g fill="#7EA9FF" fill-rule="evenodd"><path d="M12.48 10.93c-.32-.27-.79-.24-1.06.08l-3 3.5c-.27.31-.24.78.08 1.05 .31.26.78.23 1.05-.09l2.99-3.5c.26-.32.23-.79-.09-1.06Z"/><path d="M11.51 10.93c.31-.27.78-.24 1.05.08l3 3.5c.26.31.23.78-.09 1.05 -.32.26-.79.23-1.06-.09l-3-3.5c-.27-.32-.24-.79.08-1.06Z"/></g><path fill="#5E94FF" d="M8 2.75c-.2 0-.39.07-.54.21L4.67 5.74H2.98c-.97 0-1.75.78-1.75 1.75v4c0 .41.33.75.75.75h20c.41 0 .75-.34.75-.75v-4c0-.42-.34-.75-.75-.75h-9.25V3.49c0-.42-.34-.75-.75-.75h-4Z"/><g fill="#CFD8DC"><path d="M5.5 10.75c-2.35 0-4.25 1.9-4.25 4.25 0 2.34 1.9 4.25 4.25 4.25 2.34 0 4.25-1.91 4.25-4.25 0-2.35-1.91-4.25-4.25-4.25Z"/><path d="M18.5 10.75c-2.35 0-4.25 1.9-4.25 4.25 0 2.34 1.9 4.25 4.25 4.25 2.34 0 4.25-1.91 4.25-4.25 0-2.35-1.91-4.25-4.25-4.25Z"/></g></svg>