<svg viewBox="0 0 24 24" xmlns="http://www.w3.org/2000/svg"><path fill="#EE4D4D" d="M8 10.75c-.26 0-.5.12-.63.34 -.14.21-.16.48-.06.71l2 4.5c.12.27.38.44.68.44h4c.41 0 .75-.34.75-.75v-4.5c0-.42-.34-.75-.75-.75h-6Z"/><g fill="#F17171" fill-rule="evenodd"><path d="M6.05 8.9c.33-.25.8-.19 1.05.15l1.27 1.69h11.62c.16 0 .32.05.45.15l2 1.5c.33.24.39.71.15 1.05 -.25.33-.72.39-1.05.15l-1.8-1.35H7.99c-.24 0-.46-.12-.6-.3l-1.5-2c-.25-.34-.19-.81.15-1.05Z"/><path fill="#CFD8DC" d="M11.25 9c0-.42.33-.75.75-.75h4c.41 0 .75.33.75.75 0 .41-.34.75-.75.75h-4c-.42 0-.75-.34-.75-.75Z"/></g><path fill="#CFD8DC" d="M3 8.25c-.2 0-.39.07-.54.21 -.15.14-.22.33-.22.53l0 2.49c0 .41.33.75.75.75h1.24c1.1 0 2-.9 2-2 0-1.11-.9-2-2-2H2.98Z"/><path fill="#EE4D4D" fill-rule="evenodd" d="M7.31 5.19c.11-.28.38-.45.68-.45h2.18c.41 0 .75.33.75.75 0 .41-.34.75-.75.75h-1.7l-3.31 7.55c-.17.37-.61.55-.99.38 -.38-.17-.56-.61-.39-.99l3.5-8.01Z"/><g fill="#CFD8DC"><path d="M4.5 12.75c-1.8 0-3.25 1.45-3.25 3.25 0 1.79 1.45 3.25 3.25 3.25 1.79 0 3.25-1.46 3.25-3.25 0-1.8-1.46-3.25-3.25-3.25Z"/><path d="M18.5 12.75c-1.8 0-3.25 1.45-3.25 3.25 0 1.79 1.45 3.25 3.25 3.25 1.79 0 3.25-1.46 3.25-3.25 0-1.8-1.46-3.25-3.25-3.25Z"/></g></svg>