<svg viewBox="0 0 24 24" xmlns="http://www.w3.org/2000/svg"><path fill="#EE4D4D" d="M8 10.75c-.26 0-.5.12-.63.34 -.14.21-.16.48-.06.71l2 4.5c.12.27.38.44.68.44h4c.29 0 .56-.18.68-.45l2-4.5c.1-.24.08-.51-.06-.72 -.14-.22-.375-.35-.63-.35h-8Z"/><path fill="#F17171" d="M7 7.75c-.29 0-.55.16-.68.41l-1.5 3c-.12.23-.11.5.03.72 .13.22.37.35.63.35h6.5c.41 0 .75-.34.75-.75v-1c0-1.52-1.24-2.75-2.75-2.75h-3Z"/><path fill="#EE4D4D" fill-rule="evenodd" d="M7.31 5.19c.11-.28.38-.45.68-.45h2.18c.41 0 .75.33.75.75 0 .41-.34.75-.75.75h-1.7l-3.31 7.55c-.17.37-.61.55-.99.38 -.38-.17-.56-.61-.39-.99l3.5-8.01Z"/><g fill="#CFD8DC"><path d="M4.5 12.75c-1.8 0-3.25 1.45-3.25 3.25 0 1.79 1.45 3.25 3.25 3.25 1.79 0 3.25-1.46 3.25-3.25 0-1.8-1.46-3.25-3.25-3.25Z"/><path d="M19.5 12.75c-1.8 0-3.25 1.45-3.25 3.25 0 1.79 1.45 3.25 3.25 3.25 1.79 0 3.25-1.46 3.25-3.25 0-1.8-1.46-3.25-3.25-3.25Z"/></g><g fill="#EE4D4D" fill-rule="evenodd"><path d="M15.25 11.5c0-.42.33-.75.75-.75h6c.41 0 .75.33.75.75 0 .41-.34.75-.75.75h-6c-.42 0-.75-.34-.75-.75Z"/><path fill="#CFD8DC" d="M5.33 6.32c.37.18.52.63.33 1l-1.01 2c-.19.37-.64.52-1.01.33 -.38-.19-.53-.64-.34-1.01l1-2c.18-.38.63-.53 1-.34Z"/></g></svg>