<svg viewBox="0 0 24 24" xmlns="http://www.w3.org/2000/svg"><path fill="#FFD071" fill-rule="evenodd" d="M13.46 4.46c.29-.3.76-.3 1.06 0l6 6c.29.29.29.76 0 1.06 -.3.29-.77.29-1.07 0l-6-6c-.3-.3-.3-.77 0-1.07Z"/><path fill="#CFD8DC" d="M6 1.25c-.42 0-.75.33-.75.75v3c0 .41.33.75.75.75h5c.41 0 .75-.34.75-.75V2c0-.42-.34-.75-.75-.75H6Z"/><path fill="#FFC44D" d="M4 4.25c-.42 0-.75.33-.75.75v17c0 .41.33.75.75.75h16c.41 0 .75-.34.75-.75V11c0-.42-.34-.75-.75-.75h-5.25V5c0-.42-.34-.75-.75-.75H4Z"/><path fill="#ECEFF1" d="M10 11l.61-.43c-.14-.21-.38-.33-.62-.33 -.25 0-.48.12-.62.32l-.01 0 -.01 0 -.02.02c-.02.02-.04.05-.07.09 -.06.08-.14.2-.24.35 -.2.29-.45.7-.71 1.14 -.26.44-.53.93-.73 1.39 -.19.43-.38.94-.38 1.39 0 1.51 1.23 2.75 2.75 2.75 1.51 0 2.75-1.24 2.75-2.75 0-.45-.19-.97-.38-1.4 -.21-.47-.47-.96-.73-1.4 -.26-.45-.52-.86-.71-1.15 -.1-.15-.18-.27-.24-.36 -.03-.05-.06-.08-.07-.1l-.02-.03 -.01-.01 -.01-.01s-.01-.01-.62.42Z"/></svg>