<svg viewBox="0 0 24 24" xmlns="http://www.w3.org/2000/svg"><path fill="#CFD8DC" d="M7.03 2.46c-.15-.15-.34-.22-.54-.22s-.39.07-.54.21l-3 3c-.3.29-.3.76 0 1.06l2 2c.14.14.33.21.53.21 .19 0 .38-.08.53-.22l3-3c.29-.3.29-.77 0-1.07l-2-2.01Z"/><path fill="#FFD071" fill-rule="evenodd" d="M14.25 4.5c0-.42.33-.75.75-.75h5.5c.41 0 .75.33.75.75v6c0 .41-.34.75-.75.75 -.42 0-.75-.34-.75-.75V5.25H15c-.42 0-.75-.34-.75-.75Z"/><path fill="#FFC44D" d="M9 3.75c-.2 0-.39.07-.54.21l-4 4c-.15.14-.22.33-.22.53v12.5c0 .41.33.75.75.75h15.5c.41 0 .75-.34.75-.75v-10.5c0-.19-.08-.37-.2-.51l-5.5-6c-.15-.16-.35-.25-.56-.25h-6Z"/><path fill="#ECEFF1" d="M13 10.5l.61-.43c-.14-.21-.38-.33-.62-.33 -.25 0-.48.12-.62.32l-.01 0 -.01 0 -.02.02c-.02.02-.04.05-.07.09 -.06.08-.14.2-.24.35 -.2.29-.45.7-.71 1.14 -.26.44-.53.93-.73 1.39 -.19.43-.38.94-.38 1.39 0 1.51 1.23 2.75 2.75 2.75 1.51 0 2.75-1.24 2.75-2.75 0-.45-.19-.97-.38-1.4 -.21-.47-.47-.96-.73-1.4 -.26-.45-.52-.86-.71-1.15 -.1-.15-.18-.27-.24-.36 -.03-.05-.06-.08-.07-.1l-.02-.03 -.01-.01 -.01-.01s-.01-.01-.62.42Z"/></svg>