<svg viewBox="0 0 24 24" xmlns="http://www.w3.org/2000/svg"><path fill="#7EA9FF" d="M22 9.25c.41 0 .75.33.75.75v4c0 .32-.21.6-.52.71l-3 1c-.08.02-.16.03-.24.03h-7c-.42 0-.75-.34-.75-.75v-5c0-.42.33-.75.75-.75h10Z"/><path fill="#5E94FF" d="M8 6.25c-.2 0-.39.07-.54.21L4.67 9.24H2.98c-.97 0-1.75.78-1.75 1.75v4c0 .41.33.75.75.75h10c.41 0 .75-.34.75-.75v-8c0-.42-.34-.75-.75-.75h-4Z"/><g fill="#CFD8DC"><path d="M6 12.25c-1.52 0-2.75 1.23-2.75 2.75 0 1.51 1.23 2.75 2.75 2.75 1.51 0 2.75-1.24 2.75-2.75 0-1.52-1.24-2.75-2.75-2.75Z"/><path d="M17 12.25c-1.52 0-2.75 1.23-2.75 2.75 0 1.51 1.23 2.75 2.75 2.75 1.51 0 2.75-1.24 2.75-2.75 0-1.52-1.24-2.75-2.75-2.75Z"/></g></svg>