<svg viewBox="0 0 24 24" xmlns="http://www.w3.org/2000/svg"><path fill="#5E94FF" d="M13.63 6.25c-1.27 0-2.46.56-3.27 1.52L9.09 9.28l-5.91.78c-1.12.14-1.96 1.1-1.96 2.23v2.68c0 .41.33.75.75.75h20c.41 0 .75-.34.75-.75v-3.5c0-1.25-1.01-2.25-2.25-2.25h-1.46l-.83-2.49c-.11-.31-.39-.52-.72-.52h-3.87Z"/><g fill="#CFD8DC"><path d="M6 12.25c-1.52 0-2.75 1.23-2.75 2.75 0 1.51 1.23 2.75 2.75 2.75 1.51 0 2.75-1.24 2.75-2.75 0-1.52-1.24-2.75-2.75-2.75Z"/><path d="M18 12.25c-1.52 0-2.75 1.23-2.75 2.75 0 1.51 1.23 2.75 2.75 2.75 1.51 0 2.75-1.24 2.75-2.75 0-1.52-1.24-2.75-2.75-2.75Z"/></g></svg>