<svg viewBox="0 0 24 24" xmlns="http://www.w3.org/2000/svg"><g fill="#EE4D4D"><path d="M8.82 5.66c.15-.32.5-.48.84-.4 .33.07.57.38.57.72v7.49c0 .21-.1.42-.26.56 -.17.14-.39.2-.6.17l-3.5-.5c-.24-.04-.45-.19-.56-.4 -.12-.22-.12-.47-.01-.69l3.5-7Z"/><path d="M12.6 1.55c-.2-.27-.54-.37-.84-.27 -.31.1-.52.38-.52.71v11c0 .22.1.44.27.58 .17.14.4.19.62.15l7-1.5c.24-.06.45-.23.54-.47 .09-.24.05-.51-.1-.72l-7-9.5Z"/></g><path fill="#CFD8DC" d="M12.37 11.85c-.24-.14-.53-.14-.76 0l-6 3.5c-.24.13-.38.38-.38.64v1.83c0 1.61 1.03 3.04 2.56 3.55l3.94 1.31c.15.05.32.05.47 0l3.94-1.32c1.53-.52 2.56-1.95 2.56-3.56v-1.84c0-.27-.15-.52-.38-.65l-6-3.5Z"/><path fill="#A2ADB8" fill-rule="evenodd" d="M11.25 22.54V12.06l.37-.22c.23-.14.52-.14.75 0l.37.21v10.47l-.52.17c-.16.05-.33.05-.48 0l-.52-.18Z"/></svg>