<svg viewBox="0 0 24 24" xmlns="http://www.w3.org/2000/svg"><path fill="#CFD8DC" d="M2.03 14.751c-.33-.02-.63.17-.75.48 -.12.3-.03.64.23.85l5 4c.13.1.29.16.46.16h15c.24 0 .46-.12.6-.32 .14-.2.17-.45.1-.68l-1-3c-.1-.3-.37-.5-.68-.52l-19-1Z"/><g fill="#EE4D4D"><path d="M14.74 4.58c.03-.3-.12-.59-.38-.74 -.27-.15-.59-.13-.83.06l-11 8.49c-.25.19-.36.51-.26.81 .09.29.36.5.67.52l10 .5c.39.01.73-.28.78-.67l1-9Z"/><path d="M15.75 4.41c.03-.35.3-.62.65-.67 .34-.05.67.15.79.48l3.5 9.49c.08.24.04.51-.12.72 -.17.2-.42.31-.68.28l-4.5-.5c-.42-.05-.71-.42-.67-.83l1-9.01Z"/></g></svg>