<svg viewBox="0 0 24 24" xmlns="http://www.w3.org/2000/svg"><path fill="#5E94FF" d="M7.5 3.75c-.42 0-.75.33-.75.75v5c0 .41.33.75.75.75h3c.41 0 .75-.34.75-.75v-5c0-.42-.34-.75-.75-.75h-3Z"/><g fill="#CFD8DC"><path d="M6.5 15.75c-1.25 0-2.25 1-2.25 2.25 0 1.24 1 2.25 2.25 2.25 1.24 0 2.25-1.01 2.25-2.25 0-1.25-1.01-2.25-2.25-2.25Z"/><path d="M11.5 15.75c-1.25 0-2.25 1-2.25 2.25 0 1.24 1 2.25 2.25 2.25 1.24 0 2.25-1.01 2.25-2.25 0-1.25-1.01-2.25-2.25-2.25Z"/></g><path fill="#7EA9FF" d="M7.5 8.75c-1.8 0-3.25 1.45-3.25 3.25 0 1.79 1.45 3.25 3.25 3.25h8c.41 0 .75-.34.75-.75v-5c0-.42-.34-.75-.75-.75h-8Z"/><path fill="#5E94FF" fill-rule="evenodd" d="M3.37 14.084c.13-.21.37-.34.62-.34h12.5c.41 0 .75.33.75.75 0 .41-.34.75-.75.75H4.39l-1.78 2.66c-.23.34-.7.43-1.05.2 -.35-.23-.44-.7-.21-1.04l2-3Z"/><path fill="#5E94FF" d="M15.5 5.75c-.42 0-.75.33-.75.75v8c0 .32.21.62.52.71l6.5 2c.22.07.47.02.66-.12 .19-.15.3-.37.3-.61v-10c0-.42-.34-.75-.75-.75h-6.5Z"/><path fill="#CFD8DC" d="M19 12.75c-2.08 0-3.75 1.67-3.75 3.75 0 2.07 1.67 3.75 3.75 3.75 2.07 0 3.75-1.68 3.75-3.75 0-2.08-1.68-3.75-3.75-3.75Z"/></svg>