<svg viewBox="0 0 24 24" xmlns="http://www.w3.org/2000/svg"><path fill="#EE4D4D" d="M8 10.75c-.26 0-.5.12-.63.34 -.14.21-.16.48-.06.71l2 4.5c.12.27.38.44.68.44h4c.29 0 .56-.18.68-.45l2-4.5c.1-.24.08-.51-.06-.72 -.14-.22-.375-.35-.63-.35h-8Z"/><path fill="#F17171" d="M12.68 9.41c-.37-1.3-1.62-2.13-2.95-1.98l-2.83.31c-.26.02-.48.18-.59.41l-1.5 3c-.12.23-.11.5.03.72 .13.22.37.35.63.35h7c.23 0 .45-.12.59-.3 .14-.19.18-.44.12-.66l-.54-1.88Z"/><path fill="#EE4D4D" fill-rule="evenodd" d="M7.31 5.19c.11-.28.38-.45.68-.45h2.18c.41 0 .75.33.75.75 0 .41-.34.75-.75.75h-1.7l-3.31 7.55c-.17.37-.61.55-.99.38 -.38-.17-.56-.61-.39-.99l3.5-8.01Z"/><g fill="#CFD8DC"><path d="M4.5 12.75c-1.8 0-3.25 1.45-3.25 3.25 0 1.79 1.45 3.25 3.25 3.25 1.79 0 3.25-1.46 3.25-3.25 0-1.8-1.46-3.25-3.25-3.25Z"/><path d="M19.5 12.75c-1.8 0-3.25 1.45-3.25 3.25 0 1.79 1.45 3.25 3.25 3.25 1.79 0 3.25-1.46 3.25-3.25 0-1.8-1.46-3.25-3.25-3.25Z"/></g><path fill="#EE4D4D" fill-rule="evenodd" d="M20.7 9.73c.14.38-.06.82-.44.96l-4 1.5c-.39.14-.83-.06-.97-.44 -.15-.39.05-.83.43-.97l4-1.5c.38-.15.82.05.96.43Z"/></svg>