<svg viewBox="0 0 24 24" xmlns="http://www.w3.org/2000/svg"><path fill="#EE4D4D" d="M6.5 3.75c-.24 0-.46.11-.6.3l-4.5 6c-.18.22-.2.53-.08.78l1 2c.12.25.38.41.67.41h10.5c.41 0 .75-.34.75-.75v-1c0-1.52-1.24-2.75-2.75-2.75h-2V4.48c0-.42-.34-.75-.75-.75H6.49Z"/><g fill="#CFD8DC"><path d="M16 16.25c-.42 0-.75.33-.75.75 0 1.79 1.45 3.25 3.25 3.25 1.79 0 3.25-1.46 3.25-3.25 0-.42-.34-.75-.75-.75h-5Z"/><path d="M17 7.25c-.42 0-.75.33-.75.75v4c0 .41.33.75.75.75h5c.41 0 .75-.34.75-.75v-2c0-1.52-1.24-2.75-2.75-2.75h-3Z"/></g><path fill="#F17171" d="M8 11.75c-.26 0-.5.12-.63.34 -.14.21-.16.48-.06.71l2 4.5c.12.27.38.44.68.44h12c.41 0 .75-.34.75-.75v-1.5c0-2.08-1.68-3.75-3.75-3.75h-11Z"/><path fill="#CFD8DC" d="M4.5 13.75c-1.8 0-3.25 1.45-3.25 3.25 0 1.79 1.45 3.25 3.25 3.25 1.79 0 3.25-1.46 3.25-3.25 0-1.8-1.46-3.25-3.25-3.25Z"/></svg>