<svg viewBox="0 0 24 24" xmlns="http://www.w3.org/2000/svg"><path fill="#CFD8DC" d="M11.51 6.75c-.47 0-.93.11-1.34.34l-7.52 4.17c-.88.48-1.42 1.4-1.42 2.4v.82c0 1.51 1.23 2.75 2.75 2.75h10.5c.19 0 .38-.08.53-.22l2.28-2.29h4.68c.41 0 .75-.34.75-.75v-6.5c0-.42-.34-.75-.75-.75H11.48Z"/><g fill="#8B98A6" fill-rule="evenodd"><path d="M16.75 16.5c0-.42.33-.75.75-.75H22c.41 0 .75.33.75.75 0 .41-.34.75-.75.75h-4.5c-.42 0-.75-.34-.75-.75Z"/><path fill="#5E94FF" d="M3.6 10.75h2.89 9.99c.41 0 .75-.34.75-.75 0-.42-.34-.75-.75-.75h-10 -.2l-2.7 1.5Z"/></g></svg>