<svg viewBox="0 0 24 24" xmlns="http://www.w3.org/2000/svg"><path fill="#5E94FF" d="M9 5.25c-.17 0-.33.05-.45.15L4.64 8.32l-1.86.61c-.92.3-1.54 1.16-1.54 2.13v3.91c0 .41.33.75.75.75h20c.41 0 .75-.34.75-.75v-7c0-1.52-1.24-2.75-2.75-2.75h-11Z"/><g fill="#CFD8DC"><path d="M6 12.25c-1.52 0-2.75 1.23-2.75 2.75 0 1.51 1.23 2.75 2.75 2.75 1.51 0 2.75-1.24 2.75-2.75 0-1.52-1.24-2.75-2.75-2.75Z"/><path d="M18 12.25c-1.52 0-2.75 1.23-2.75 2.75 0 1.51 1.23 2.75 2.75 2.75 1.51 0 2.75-1.24 2.75-2.75 0-1.52-1.24-2.75-2.75-2.75Z"/></g></svg>