<svg viewBox="0 0 24 24" xmlns="http://www.w3.org/2000/svg"><g fill-rule="evenodd"><path d="M12 2.75c-5.11 0-9.25 4.14-9.25 9.25 0 5.1 4.14 9.25 9.25 9.25 2.08 0 4-.69 5.55-1.85 .33-.25.8-.19 1.05.14 .24.33.18.8-.15 1.05 -1.8 1.35-4.04 2.15-6.46 2.15 -5.94 0-10.75-4.82-10.75-10.75 0-5.94 4.81-10.75 10.75-10.75 5.93 0 10.75 4.81 10.75 10.75 0 1.52-.32 2.98-.9 4.3 -.17.37-.61.55-.99.38 -.38-.17-.56-.61-.39-.99 .49-1.14.76-2.39.76-3.7 0-5.11-4.15-9.25-9.25-9.25Z"/><path d="M8.65 9.5c0-1.52 1.23-2.75 2.75-2.75h3.1c.41 0 .75.33.75.75 0 .41-.34.75-.75.75h-3.1c-.7 0-1.25.55-1.25 1.25v.5c0 .69.55 1.25 1.25 1.25h1.2c1.51 0 2.75 1.23 2.75 2.75v.5c0 1.51-1.24 2.75-2.75 2.75H9.49c-.42 0-.75-.34-.75-.75 0-.42.33-.75.75-.75h3.1c.69 0 1.25-.56 1.25-1.25V14c0-.7-.56-1.25-1.25-1.25h-1.2c-1.52 0-2.76-1.24-2.76-2.75v-.5Z"/><path d="M12 4.54c.41 0 .75.33.75.75v2.2c0 .41-.34.75-.75.75 -.42 0-.75-.34-.75-.75v-2.2c0-.42.33-.75.75-.75Z"/><path d="M12 15.75c.41 0 .75.33.75.75v2.2c0 .41-.34.75-.75.75 -.42 0-.75-.34-.75-.75v-2.2c0-.42.33-.75.75-.75Z"/></g></svg>