<svg viewBox="0 0 24 24" xmlns="http://www.w3.org/2000/svg"><g fill-rule="evenodd"><path d="M3.75 21c0 .13.11.25.25.25h5c.13 0 .25-.12.25-.25v-4c0-.42.33-.75.75-.75 .41 0 .75.33.75.75v4c0 .96-.79 1.75-1.75 1.75H4c-.97 0-1.75-.79-1.75-1.75V8.5c0-.42.33-.75.75-.75 .41 0 .75.33.75.75V21ZM3 5.25c-.42 0-.75-.34-.75-.75V3c0-.97.78-1.75 1.75-1.75h5c.96 0 1.75.78 1.75 1.75v4c0 .41-.34.75-.75.75 -.42 0-.75-.34-.75-.75V3c0-.14-.12-.25-.25-.25H4c-.14 0-.25.11-.25.25v1.5c0 .41-.34.75-.75.75Z"/><path d="M6.5 20.25c-.42 0-.75-.34-.75-.75v-15c0-.42.33-.75.75-.75 .41 0 .75.33.75.75v15c0 .41-.34.75-.75.75Z"/><path d="M12 14.75c-.42 0-.75-.34-.75-.75v-4c0-.42.33-.75.75-.75 .41 0 .75.33.75.75v4c0 .41-.34.75-.75.75Z"/><path d="M12 7.75c-2.35 0-4.25 1.9-4.25 4.25 0 2.34 1.9 4.25 4.25 4.25 2.34 0 4.25-1.91 4.25-4.25 0-2.35-1.91-4.25-4.25-4.25ZM6.25 12c0-3.18 2.57-5.75 5.75-5.75 3.17 0 5.75 2.57 5.75 5.75 0 3.17-2.58 5.75-5.75 5.75 -3.18 0-5.75-2.58-5.75-5.75Z"/><path d="M15.87 7.75c1.15 1.05 1.87 2.56 1.87 4.24 0 1.68-.73 3.19-1.88 4.24 .04 0 .08 0 .12 0 2.34 0 4.25-1.91 4.25-4.25 0-2.35-1.91-4.25-4.25-4.25 -.05 0-.09 0-.13 0Zm-2.18-1.03c.7-.31 1.48-.48 2.3-.48 3.17 0 5.75 2.57 5.75 5.75 0 3.17-2.58 5.75-5.75 5.75 -.82 0-1.6-.18-2.31-.48 -.28-.12-.45-.39-.45-.69 0-.3.17-.57.44-.69 1.5-.66 2.55-2.16 2.55-3.9 0-1.75-1.05-3.25-2.56-3.9 -.28-.12-.45-.39-.45-.69 0-.3.17-.57.44-.69Z"/></g></svg>