<svg viewBox="0 0 24 24" xmlns="http://www.w3.org/2000/svg"><g fill-rule="evenodd"><path d="M2.75 5c0-2.08 1.67-3.75 3.75-3.75h12c.41 0 .75.33.75.75 0 .41-.34.75-.75.75h-12c-1.25 0-2.25 1-2.25 2.25v10.5c0 .41-.34.75-.75.75 -.42 0-.75-.34-.75-.75V5Zm13.75.25c.41 0 .75.33.75.75v16c0 .22-.11.44-.29.58 -.18.14-.41.19-.64.14l-2.09-.47 -1.96.46c-.12.02-.24.02-.35 0l-1.96-.46L8 22.7c-.12.02-.24.02-.35 0l-1.96-.47 -2.09.46c-.23.04-.46-.01-.64-.15 -.18-.15-.29-.36-.29-.59v-2.5c0-.42.33-.75.75-.75 .41 0 .75.33.75.75v1.56l1.33-.3c.11-.03.22-.03.33 0l1.95.45 1.95-.46c.11-.03.23-.03.34 0l1.95.45 1.95-.46c.1-.03.22-.03.33-.01l1.33.29V5.9c0-.42.33-.75.75-.75Z"/><path d="M6.25 17c0-.42.33-.75.75-.75h6c.41 0 .75.33.75.75 0 .41-.34.75-.75.75H7c-.42 0-.75-.34-.75-.75Z"/><path d="M15.75 4c0-1.52 1.23-2.75 2.75-2.75 1.51 0 2.75 1.23 2.75 2.75v5c0 .41-.34.75-.75.75h-4c-.42 0-.75-.34-.75-.75V4Zm2.75-1.25c-.7 0-1.25.55-1.25 1.25v4.25h2.5V4c0-.7-.56-1.25-1.25-1.25Z"/><path d="M7.25 7.75c0-1.11.89-2 2-2H12c.41 0 .75.33.75.75 0 .41-.34.75-.75.75H9.25c-.28 0-.5.22-.5.5 0 .27.22.5.5.5h1.5c1.1 0 2 .89 2 2 0 1.1-.9 2-2 2H8c-.42 0-.75-.34-.75-.75 0-.42.33-.75.75-.75h2.75c.27 0 .5-.23.5-.5 0-.28-.23-.5-.5-.5h-1.5c-1.11 0-2-.9-2-2Z"/><path d="M10 4.25c.41 0 .75.33.75.75v1.5c0 .41-.34.75-.75.75 -.42 0-.75-.34-.75-.75V5c0-.42.33-.75.75-.75Z"/><path d="M10 10.75c.41 0 .75.33.75.75V13c0 .41-.34.75-.75.75 -.42 0-.75-.34-.75-.75v-1.5c0-.42.33-.75.75-.75Z"/></g></svg>