<svg viewBox="0 0 24 24" xmlns="http://www.w3.org/2000/svg"><g fill-rule="evenodd"><path d="M6.75 13c0-.42.33-.75.75-.75h8c.41 0 .75.33.75.75 0 .41-.34.75-.75.75h-8c-.42 0-.75-.34-.75-.75Z"/><path d="M12 2.75c-5.11 0-9.25 4.14-9.25 9.25 0 5.1 4.14 9.25 9.25 9.25 2.08 0 4-.69 5.54-1.85 .33-.25.8-.19 1.05.14 .24.33.18.8-.15 1.05 -1.8 1.34-4.04 2.14-6.46 2.14 -5.94 0-10.75-4.82-10.75-10.75 0-5.94 4.81-10.75 10.75-10.75 5.93 0 10.75 4.81 10.75 10.75 0 1.52-.32 2.98-.9 4.3 -.17.37-.61.55-.99.38 -.38-.17-.56-.61-.39-.99 .49-1.14.76-2.39.76-3.7 0-5.11-4.15-9.25-9.25-9.25Z"/><path d="M12.5 6.75c-1.25 0-2.25 1-2.25 2.25v3.78c0 .93-.28 1.85-.8 2.63l-.56.82h7.59c.41 0 .75.33.75.75 0 .41-.34.75-.75.75h-9c-.28 0-.54-.16-.67-.4 -.14-.25-.12-.54.03-.77l1.32-2c.35-.54.54-1.17.54-1.81V8.96c0-2.08 1.67-3.75 3.75-3.75 2.07 0 3.75 1.67 3.75 3.75 0 .41-.34.75-.75.75 -.42 0-.75-.34-.75-.75 0-1.25-1.01-2.25-2.25-2.25Z"/></g></svg>