<svg viewBox="0 0 24 24" xmlns="http://www.w3.org/2000/svg"><g fill-rule="evenodd"><path d="M1.25 2c0-.42.33-.75.75-.75h14c.41 0 .75.33.75.75v7c0 .41-.34.75-.75.75 -.42 0-.75-.34-.75-.75V2.75H2.75V4.5c0 .41-.34.75-.75.75 -.42 0-.75-.34-.75-.75V2ZM2 7.75c.41 0 .75.33.75.75v12.75H11c.41 0 .75.33.75.75 0 .41-.34.75-.75.75H2c-.42 0-.75-.34-.75-.75V8.5c0-.42.33-.75.75-.75Z"/><path d="M6.25 6c0-.42.33-.75.75-.75h4c.41 0 .75.33.75.75 0 .41-.34.75-.75.75H7c-.42 0-.75-.34-.75-.75Z"/><path d="M4.25 13c0-.42.33-.75.75-.75h5c.41 0 .75.33.75.75 0 .41-.34.75-.75.75H5c-.42 0-.75-.34-.75-.75Z"/><path d="M4.25 17c0-.42.33-.75.75-.75h4c.41 0 .75.33.75.75 0 .41-.34.75-.75.75H5c-.42 0-.75-.34-.75-.75Z"/><path d="M9 10.75c-.42 0-.75-.34-.75-.75V6c0-.42.33-.75.75-.75 .41 0 .75.33.75.75v4c0 .41-.34.75-.75.75Z"/><path d="M17 12.75c-2.35 0-4.25 1.9-4.25 4.25 0 2.34 1.9 4.25 4.25 4.25 2.34 0 4.25-1.91 4.25-4.25 0-2.35-1.91-4.25-4.25-4.25ZM11.25 17c0-3.18 2.57-5.75 5.75-5.75 3.17 0 5.75 2.57 5.75 5.75 0 3.17-2.58 5.75-5.75 5.75 -3.18 0-5.75-2.58-5.75-5.75Z"/><path d="M19.686 14.63c.33.24.41.7.17 1.04l-2.5 3.5c-.12.16-.3.27-.5.3 -.2.03-.41-.02-.57-.15l-2-1.5c-.34-.25-.4-.72-.15-1.05 .24-.34.71-.4 1.05-.15l1.38 1.03 2.05-2.88c.24-.34.7-.42 1.04-.18Z"/></g></svg>