<svg viewBox="0 0 24 24" xmlns="http://www.w3.org/2000/svg"><g fill-rule="evenodd"><path d="M3 3.75c-.14 0-.25.11-.25.25v12c0 .13.11.25.25.25h4.5c.41 0 .75.33.75.75 0 .41-.34.75-.75.75H3c-.97 0-1.75-.79-1.75-1.75V4c0-.97.78-1.75 1.75-1.75h1.5c.41 0 .75.33.75.75 0 .41-.34.75-.75.75H3ZM7.75 3c0-.42.33-.75.75-.75H21c.96 0 1.75.78 1.75 1.75v12c0 .96-.79 1.75-1.75 1.75h-4.5c-.42 0-.75-.34-.75-.75 0-.42.33-.75.75-.75H21c.13 0 .25-.12.25-.25V4c0-.14-.12-.25-.25-.25H8.5c-.42 0-.75-.34-.75-.75Z"/><path d="M1.25 6.5c0-.42.33-.75.75-.75h20c.41 0 .75.33.75.75 0 .41-.34.75-.75.75H2c-.42 0-.75-.34-.75-.75Z"/><path d="M4.25 13.5c0-.42.33-.75.75-.75h6c.41 0 .75.33.75.75 0 .41-.34.75-.75.75H5c-.42 0-.75-.34-.75-.75Z"/><path d="M18 12.25c-.42 0-.75.33-.75.75 0 .41.33.75.75.75 .41 0 .75-.34.75-.75 0-.42-.34-.75-.75-.75Zm-2.25.75c0-1.25 1-2.25 2.25-2.25 1.24 0 2.25 1 2.25 2.25 0 1.24-1.01 2.25-2.25 2.25 -1.25 0-2.25-1.01-2.25-2.25Z"/><path d="M11.46 21.53c.29.29.76.29 1.06 0l2-2c.29-.3.29-.77 0-1.07 -.3-.3-.77-.3-1.07 0l-.72.71v-3.19c0-.42-.34-.75-.75-.75 -.42 0-.75.33-.75.75v3.18l-.72-.72c-.3-.3-.77-.3-1.07 0 -.3.29-.3.76 0 1.06l2 2Z"/></g></svg>