<svg viewBox="0 0 24 24" xmlns="http://www.w3.org/2000/svg"><path fill="#EE4D4D" d="M12 8.25c-.22 0-.42.09-.57.25 -.15.16-.21.37-.19.58l.5 3.99c.04.37.36.657.74.657h2c.41 0 .75-.34.75-.75v-4c0-.42-.34-.75-.75-.75h-2.5Z"/><path fill="#727982" d="M18.72 7.82c-.09-.38-.46-.63-.84-.57l-3.5.5c-.37.05-.65.36-.65.74V19.06c0 1.67 1.76 2.76 3.25 2.01l3.82-1.92c.31-.16.47-.51.39-.85l-2.5-10.5Z"/><path fill="#CFD8DC" d="M3.5 1.75c-.23 0-.45.1-.59.27 -.15.17-.2.4-.16.62l.91 4.27c.41 1.91 2.23 3.19 4.17 2.92l11.74-1.62c.37-.06.64-.37.64-.75v-5c0-.42-.34-.75-.75-.75h-16Z"/></svg>