<svg viewBox="0 0 24 24" xmlns="http://www.w3.org/2000/svg"><path fill="#727982" d="M5 1.75c-.42 0-.75.33-.75.75V21c0 .41.33.75.75.75h11c.41 0 .75-.34.75-.75V2.5c0-.42-.34-.75-.75-.75H5Z"/><path fill="#CFD8DC" d="M11.5 11.25c-2.35 0-4.25 1.9-4.25 4.25v2c0 2.34 1.9 4.25 4.25 4.25h7c2.34 0 4.25-1.91 4.25-4.25v-2c0-2.35-1.91-4.25-4.25-4.25h-7Z"/><g fill="#727982" fill-rule="evenodd"><path d="M12.5 13.75c.41 0 .75.33.75.75v4c0 .41-.34.75-.75.75 -.42 0-.75-.34-.75-.75v-4c0-.42.33-.75.75-.75Z"/><path d="M9.75 16.5c0-.42.33-.75.75-.75h4c.41 0 .75.33.75.75 0 .41-.34.75-.75.75h-4c-.42 0-.75-.34-.75-.75Z"/><path d="M17.25 15c0-.42.33-.75.75-.75h1.5c.41 0 .75.33.75.75 0 .41-.34.75-.75.75H18c-.42 0-.75-.34-.75-.75Z"/><path d="M16.25 18c0-.42.33-.75.75-.75h1.5c.41 0 .75.33.75.75 0 .41-.34.75-.75.75H17c-.42 0-.75-.34-.75-.75Z"/></g><path fill="#CFD8DC" d="M2 1.75c-.42 0-.75.33-.75.75V21c0 .41.33.75.75.75h3c.41 0 .75-.34.75-.75V2.5c0-.42-.34-.75-.75-.75H2Z"/></svg>