<svg viewBox="0 0 24 24" xmlns="http://www.w3.org/2000/svg"><path fill="#CFD8DC" d="M12.33 13.82c-.22-.11-.46-.11-.68 0l-2 1c-.21.1-.35.28-.4.5l-1 4.5c-.06.24.01.49.18.67 .17.18.42.26.66.22l2.87-.48 2.87.47c.24.04.49-.05.66-.23 .17-.19.24-.44.18-.68l-1-4.5c-.05-.23-.2-.41-.4-.51l-2-1Z"/><path fill="#ECEFF1" d="M2.11 3.75c-.22-.04-.44.03-.61.17 -.17.14-.27.34-.27.56v12c0 .21.09.42.26.56 .16.14.38.2.6.17l8.51-1.28c.9-.14 1.83-.14 2.74 0l8.51 1.27c.21.03.43-.04.6-.18 .16-.15.26-.35.26-.57v-12c0-.22-.1-.43-.27-.57 -.17-.15-.39-.21-.61-.18l-8.52 1.27c-.91.13-1.84.13-2.75 0L2.04 3.69Z"/><g fill="#727982" fill-rule="evenodd"><path d="M1.51 3.93c.16-.15.38-.21.6-.18l8.51 1.27c.9.13 1.83.13 2.74 0l8.51-1.28c.21-.04.43.03.6.17 .16.14.26.34.26.56v12c0 .21-.1.42-.27.56 -.17.14-.39.2-.61.17l-8.52-1.28c-.91-.14-1.84-.14-2.75 0l-8.52 1.27c-.22.03-.44-.04-.61-.18 -.17-.15-.27-.35-.27-.57v-12c0-.22.09-.43.26-.57Zm1.23 1.43v10.25l7.65-1.15c1.05-.16 2.13-.16 3.18 0l7.65 1.14V5.34l-7.66 1.14c-1.06.15-2.14.15-3.19 0L2.71 5.33Z"/><path fill="#CFD8DC" d="M11.87 18.76c.08-.02.16-.02.24 0l9 1.5c.4.06.68.45.61.86 -.07.4-.46.68-.87.61l-8.88-1.48 -8.88 1.47c-.41.06-.8-.21-.87-.62 -.07-.41.2-.8.61-.87l9-1.5Z"/></g></svg>