<svg viewBox="0 0 24 24" xmlns="http://www.w3.org/2000/svg"><path fill="#CFD8DC" d="M2 1.25c-.42 0-.75.33-.75.75v14c0 .41.33.75.75.75h20c.41 0 .75-.34.75-.75V2c0-.42-.34-.75-.75-.75H2Z"/><path fill="#727982" fill-rule="evenodd" d="M3.75 4.5c0-.42.33-.75.75-.75h3c.41 0 .75.33.75.75 0 .41-.34.75-.75.75H5.25V7c0 .41-.34.75-.75.75 -.42 0-.75-.34-.75-.75V4.5Zm12 0c0-.42.33-.75.75-.75h3c.41 0 .75.33.75.75V7c0 .41-.34.75-.75.75 -.42 0-.75-.34-.75-.75V5.25H16.5c-.42 0-.75-.34-.75-.75ZM4.5 10.25c.41 0 .75.33.75.75v1.75H7.5c.41 0 .75.33.75.75 0 .41-.34.75-.75.75h-3c-.42 0-.75-.34-.75-.75V11c0-.42.33-.75.75-.75Zm15 0c.41 0 .75.33.75.75v2.5c0 .41-.34.75-.75.75h-3c-.42 0-.75-.34-.75-.75 0-.42.33-.75.75-.75h2.25V11c0-.42.33-.75.75-.75Z"/><path fill="#727982" d="M8 18.25c-.17 0-.33.05-.45.15l-2 1.5c-.19.14-.3.36-.3.6 0 .23.11.45.3.6l2 1.5c.12.09.28.15.45.15h8.5c1.24 0 2.25-1.01 2.25-2.25 0-1.25-1.01-2.25-2.25-2.25H8Z"/></svg>