<svg viewBox="0 0 24 24" xmlns="http://www.w3.org/2000/svg"><path fill="#5E94FF" d="M12 1.25C6.06 1.25 1.25 6.06 1.25 12c0 5.93 4.81 10.75 10.75 10.75 5.93 0 10.75-4.82 10.75-10.75 0-5.94-4.82-10.75-10.75-10.75Z"/><g fill="#4DC4FF" fill-rule="evenodd"><path d="M21.71 7.39c-1.08-2.27-2.92-4.1-5.2-5.15l-.43.83 -2.86 5.22c-.16.29-.11.65.12.88l1.42 1.42c.23.23.59.28.88.12l5.23-2.86c.01-.01.03-.02.04-.03l.73-.48Z"/><path d="M7.47 21.75l.42-.84 2.85-5.23c.15-.3.1-.66-.13-.89l-1.43-1.43c-.24-.24-.6-.29-.89-.13l-5.24 2.85c-.01 0-.02 0-.03.01l-.78.46c1.07 2.27 2.92 4.11 5.2 5.17Z"/></g><path fill="#ECEFF1" d="M12 7.44c-2.52 0-4.56 2.04-4.56 4.55s2.04 4.55 4.55 4.55 4.55-2.05 4.55-4.56c0-2.52-2.05-4.56-4.56-4.56Z"/></svg>