<svg viewBox="0 0 24 24" xmlns="http://www.w3.org/2000/svg"><path fill="#CFD8DC" d="M4 2.25C2.48 2.25 1.25 3.48 1.25 5v14c0 .41.33.75.75.75h20c.41 0 .75-.34.75-.75V5c0-1.52-1.24-2.75-2.75-2.75H4Z"/><path fill="#727982" d="M4 15.75c-1.52 0-2.75 1.23-2.75 2.75v1c0 1.51 1.23 2.75 2.75 2.75h16c1.51 0 2.75-1.24 2.75-2.75v-1c0-1.52-1.24-2.75-2.75-2.75H4Z"/><g fill="#ECEFF1" fill-rule="evenodd"><path d="M3.75 19c0-.42.33-.75.75-.75h10c.41 0 .75.33.75.75 0 .41-.34.75-.75.75h-10c-.42 0-.75-.34-.75-.75Z"/><path d="M16.25 19c0-.42.33-.75.75-.75h2c.41 0 .75.33.75.75 0 .41-.34.75-.75.75h-2c-.42 0-.75-.34-.75-.75Z"/></g></svg>