<svg viewBox="0 0 24 24" xmlns="http://www.w3.org/2000/svg"><path fill="#5E94FF" fill-rule="evenodd" d="M11 4.75c-3.46 0-6.25 2.79-6.25 6.25v4.5c0 .41-.34.75-.75.75 -.42 0-.75-.34-.75-.75V11c0-4.29 3.46-7.75 7.75-7.75h2c4.28 0 7.75 3.46 7.75 7.75v4.5c0 .41-.34.75-.75.75 -.42 0-.75-.34-.75-.75V11c0-3.46-2.8-6.25-6.25-6.25h-2Z"/><g fill="#727982"><path d="M6 10.75c-1.52 0-2.75 1.23-2.75 2.75V18c0 1.51 1.23 2.75 2.75 2.75h.5c1.51 0 2.75-1.24 2.75-2.75v-4.5c0-1.52-1.24-2.75-2.75-2.75H6Z"/><path d="M17.5 10.75c-1.52 0-2.75 1.23-2.75 2.75V18c0 1.51 1.23 2.75 2.75 2.75h.5c1.51 0 2.75-1.24 2.75-2.75v-4.5c0-1.52-1.24-2.75-2.75-2.75h-.5Z"/></g></svg>