<svg viewBox="0 0 24 24" xmlns="http://www.w3.org/2000/svg"><path fill="#CFD8DC" d="M2 6.25c-.42 0-.75.33-.75.75v11c0 .41.33.75.75.75h20c.41 0 .75-.34.75-.75V7c0-.42-.34-.75-.75-.75H2Z"/><g fill="#727982" fill-rule="evenodd"><path d="M5.25 15.5c0-.42.33-.75.75-.75h12c.41 0 .75.33.75.75 0 .41-.34.75-.75.75H6c-.42 0-.75-.34-.75-.75Z"/><path d="M3.75 9.5c0-.42.33-.75.75-.75h2c.41 0 .75.33.75.75 0 .41-.34.75-.75.75h-2c-.42 0-.75-.34-.75-.75Z"/><path d="M3.75 12.5c0-.42.33-.75.75-.75h2c.41 0 .75.33.75.75 0 .41-.34.75-.75.75h-2c-.42 0-.75-.34-.75-.75Z"/><path d="M8.25 9.5c0-.42.33-.75.75-.75h1.5c.41 0 .75.33.75.75 0 .41-.34.75-.75.75H9c-.42 0-.75-.34-.75-.75Z"/><path d="M8.25 12.5c0-.42.33-.75.75-.75h1.5c.41 0 .75.33.75.75 0 .41-.34.75-.75.75H9c-.42 0-.75-.34-.75-.75Z"/><path d="M12.75 9.5c0-.42.33-.75.75-.75H15c.41 0 .75.33.75.75 0 .41-.34.75-.75.75h-1.5c-.42 0-.75-.34-.75-.75Z"/><path d="M12.75 12.5c0-.42.33-.75.75-.75H15c.41 0 .75.33.75.75 0 .41-.34.75-.75.75h-1.5c-.42 0-.75-.34-.75-.75Z"/><path d="M16.75 9.5c0-.42.33-.75.75-.75h2c.41 0 .75.33.75.75 0 .41-.34.75-.75.75h-2c-.42 0-.75-.34-.75-.75Z"/><path d="M16.75 12.5c0-.42.33-.75.75-.75h2c.41 0 .75.33.75.75 0 .41-.34.75-.75.75h-2c-.42 0-.75-.34-.75-.75Z"/></g></svg>