<svg viewBox="0 0 24 24" xmlns="http://www.w3.org/2000/svg"><path fill="#ECEFF1" d="M4 3.25c-.42 0-.75.33-.75.75v12c0 .41.33.75.75.75h16c.41 0 .75-.34.75-.75V4c0-.42-.34-.75-.75-.75H4Z"/><path fill="#727982" fill-rule="evenodd" d="M3.25 4c0-.42.33-.75.75-.75h16c.41 0 .75.33.75.75v12c0 .41-.34.75-.75.75H4c-.42 0-.75-.34-.75-.75V4Zm1.5.75v10.5h14.5V4.75H4.75Z"/><path fill="#4DC4FF" d="M2 15.25c-.42 0-.75.33-.75.75v1c0 1.51 1.23 2.75 2.75 2.75h16c1.51 0 2.75-1.24 2.75-2.75v-1c0-.42-.34-.75-.75-.75H2Z"/></svg>