<svg viewBox="0 0 24 24" xmlns="http://www.w3.org/2000/svg"><path fill="#727982" d="M2 4.75c-.42 0-.75.33-.75.75v13c0 .41.33.75.75.75h20c.41 0 .75-.34.75-.75v-13c0-.42-.34-.75-.75-.75H2Z"/><g fill="#ECEFF1"><path d="M4.5 7.25c-.42 0-.75.33-.75.75v4c0 .41.33.75.75.75h3c.41 0 .75-.34.75-.75V8c0-.42-.34-.75-.75-.75h-3Z"/><path d="M10.5 7.25c-.42 0-.75.33-.75.75v4c0 .41.33.75.75.75h3c.41 0 .75-.34.75-.75V8c0-.42-.34-.75-.75-.75h-3Z"/></g><path fill="#FFC44D" d="M4.5 15.25c-.42 0-.75.33-.75.75v3.25h16.5V16c0-.42-.34-.75-.75-.75h-15Z"/><path fill="#ECEFF1" d="M16.5 7.25c-.42 0-.75.33-.75.75v4c0 .41.33.75.75.75h3c.41 0 .75-.34.75-.75V8c0-.42-.34-.75-.75-.75h-3Z"/></svg>