<svg viewBox="0 0 24 24" xmlns="http://www.w3.org/2000/svg"><path fill="#727982" d="M2 4.75c-.42 0-.75.33-.75.75v13c0 .41.33.75.75.75h5c.41 0 .75-.34.75-.75v-3.25h1.5v3.25c0 .41.33.75.75.75h12c.41 0 .75-.34.75-.75v-13c0-.42-.34-.75-.75-.75H2Z"/><g fill="#ECEFF1"><path d="M4.5 7.25c-.42 0-.75.33-.75.75v4c0 .41.33.75.75.75h3c.41 0 .75-.34.75-.75V8c0-.42-.34-.75-.75-.75h-3Z"/><path d="M10.5 7.25c-.42 0-.75.33-.75.75v4c0 .41.33.75.75.75h3c.41 0 .75-.34.75-.75V8c0-.42-.34-.75-.75-.75h-3Z"/></g><g fill="#FFC44D"><path d="M4.5 15.25c-.42 0-.75.33-.75.75v3.25H7c.41 0 .75-.34.75-.75v-3.25H4.5Z"/><path d="M19.5 15.25H9.25v3.25c0 .41.33.75.75.75h10.25V16c0-.42-.34-.75-.75-.75Z"/></g><path fill="#ECEFF1" d="M16.5 7.25c-.42 0-.75.33-.75.75v4c0 .41.33.75.75.75h3c.41 0 .75-.34.75-.75V8c0-.42-.34-.75-.75-.75h-3Z"/></svg>