<svg viewBox="0 0 24 24" xmlns="http://www.w3.org/2000/svg"><path fill="#727982" fill-rule="evenodd" d="M14.5 2.75c-.97 0-1.75.78-1.75 1.75V5c0 .41-.34.75-.75.75 -.42 0-.75-.34-.75-.75v-.5c0-1.8 1.45-3.25 3.25-3.25H20c.41 0 .75.33.75.75 0 .41-.34.75-.75.75h-5.5Z"/><path fill="#CFD8DC" d="M9 6.25c-.12 0-.24.02-.34.07l-6 3c-.26.12-.42.38-.42.67v4c0 .41.33.75.75.75h1.26c1.26 0 2.36.85 2.66 2.08l.6 2.43c.51 2.04 2.34 3.47 4.45 3.47 2.1 0 3.94-1.44 4.45-3.48l.6-2.44c.3-1.23 1.4-2.083 2.66-2.083h1.26c.41 0 .75-.34.75-.75v-4c0-.29-.17-.55-.42-.68l-6-3c-.11-.06-.22-.08-.34-.08h-6Z"/><path fill="#EE4D4D" d="M12 4.25C9.92 4.25 8.25 5.92 8.25 8c0 2.07 1.67 3.75 3.75 3.75 2.07 0 3.75-1.68 3.75-3.75 0-2.08-1.68-3.75-3.75-3.75Z"/></svg>