<svg viewBox="0 0 24 24" xmlns="http://www.w3.org/2000/svg"><path fill="#CFD8DC" d="M4 1.25c-.42 0-.75.33-.75.75v7c0 .41.33.75.75.75h8c.41 0 .75-.34.75-.75V2c0-.42-.34-.75-.75-.75H4Z"/><g fill="#727982" fill-rule="evenodd"><path d="M9.5 3.75c.41 0 .75.33.75.75v2c0 .41-.34.75-.75.75 -.42 0-.75-.34-.75-.75v-2c0-.42.33-.75.75-.75Z"/><path d="M6.5 3.75c.41 0 .75.33.75.75v2c0 .41-.34.75-.75.75 -.42 0-.75-.34-.75-.75v-2c0-.42.33-.75.75-.75Z"/><path fill="#5E94FF" d="M18.713 6.3c.28-.12.6-.06.81.16l3 3c.15.15.23.38.21.6 -.03.22-.15.42-.34.55l-2.07 1.37 2.06 1.37c.18.12.3.32.33.55 .02.22-.06.44-.22.6l-3 3c-.22.21-.54.27-.82.16 -.29-.12-.47-.39-.47-.7v-3.6l-1.84 1.22c-.35.22-.82.13-1.04-.21 -.23-.35-.14-.82.2-1.04l2.06-1.38 -2.07-1.38c-.35-.23-.44-.7-.21-1.05 .22-.35.69-.44 1.04-.21l1.83 1.22v-3.6c0-.31.18-.58.46-.7Zm1.03 7.09l1.07.71 -1.08 1.07v-1.79Zm0-2.81V8.79l1.07 1.07 -1.08.71Z"/></g><path fill="#727982" d="M2.5 8.25c-.42 0-.75.33-.75.75v9c0 2.62 2.12 4.75 4.75 4.75h3c2.62 0 4.75-2.13 4.75-4.75V9c0-.42-.34-.75-.75-.75h-11Z"/></svg>