<svg viewBox="0 0 24 24" xmlns="http://www.w3.org/2000/svg"><path fill="#CFD8DC" d="M2 2.25c-.42 0-.75.33-.75.75v14c0 .41.33.75.75.75h14c.41 0 .75-.34.75-.75V3c0-.42-.34-.75-.75-.75H2Z"/><path fill="#5E94FF" d="M15 6.25c-4.29 0-7.75 3.46-7.75 7.75 0 4.28 3.46 7.75 7.75 7.75 4.28 0 7.75-3.47 7.75-7.75 0-4.29-3.47-7.75-7.75-7.75Z"/><path fill="#4DC4FF" fill-rule="evenodd" d="M13.94 21.67c-.51-.07-1-.19-1.47-.35l.29-1.02 .99-4.48c.08-.41.49-.66.89-.57 .4.08.65.49.56.89l-1 4.5c-.01.01-.01.02-.02.04l-.28.97Zm3.49-15.04l-.21 1 -.01.01 -1 4.5c-.09.4-.5.65-.9.56 -.41-.09-.66-.5-.57-.9l.99-4.5 .2-1.04c.5.06.99.17 1.46.33Z"/><path fill="#ECEFF1" d="M15 11.25c-1.52 0-2.75 1.23-2.75 2.75 0 1.51 1.23 2.75 2.75 2.75 1.51 0 2.75-1.24 2.75-2.75 0-1.52-1.24-2.75-2.75-2.75Z"/><path fill="#4DC4FF" fill-rule="evenodd" d="M3.75 6c0-.42.33-.75.75-.75h6c.41 0 .75.33.75.75 0 .41-.34.75-.75.75h-6c-.42 0-.75-.34-.75-.75Z"/></svg>