<svg viewBox="0 0 24 24" xmlns="http://www.w3.org/2000/svg"><path fill="#727982" d="M8.5 11.75c-.42 0-.75.33-.75.75v4c0 .41.33.75.75.75h7c.41 0 .75-.34.75-.75v-4c0-.42-.34-.75-.75-.75h-7Z"/><g fill="#CFD8DC"><path d="M2 3.75c-.42 0-.75.33-.75.75v8c0 .41.33.75.75.75h20c.41 0 .75-.34.75-.75v-8c0-.42-.34-.75-.75-.75H2Z"/><path d="M6.5 15.75c-.42 0-.75.33-.75.75v3c0 .41.33.75.75.75h11c.41 0 .75-.34.75-.75v-3c0-.42-.34-.75-.75-.75h-11Z"/></g><path fill="#5E94FF" d="M12 3.75c-2.63 0-4.75 2.12-4.75 4.75 0 2.62 2.12 4.75 4.75 4.75 2.62 0 4.75-2.13 4.75-4.75 0-2.63-2.13-4.75-4.75-4.75Z"/></svg>