<svg viewBox="0 0 24 24" xmlns="http://www.w3.org/2000/svg"><path fill="#727982" d="M9.5 13.25c-.42 0-.75.33-.75.75v4c0 .41.33.75.75.75h5c.41 0 .75-.34.75-.75v-4c0-.42-.34-.75-.75-.75h-5Z"/><g fill="#CFD8DC"><path d="M7.5 2.25c-1.8 0-3.25 1.45-3.25 3.25v6c0 1.79 1.45 3.25 3.25 3.25h9c1.79 0 3.25-1.46 3.25-3.25v-6c0-1.8-1.46-3.25-3.25-3.25h-9Z"/><path d="M6.5 17.25c-.42 0-.75.33-.75.75v3c0 .41.33.75.75.75h11c.41 0 .75-.34.75-.75v-3c0-.42-.34-.75-.75-.75h-11Z"/></g><path fill="#5E94FF" d="M12 4.75c-2.08 0-3.75 1.67-3.75 3.75 0 2.07 1.67 3.75 3.75 3.75 2.07 0 3.75-1.68 3.75-3.75 0-2.08-1.68-3.75-3.75-3.75Z"/></svg>