<svg viewBox="0 0 24 24" xmlns="http://www.w3.org/2000/svg"><g fill="#9545ED" fill-rule="evenodd"><path d="M14.66 15.24l-3.92 3.91 -1.42-1.42 3.91-3.92 1.41 1.41Z"/><path d="M12 14.5c-1.11 0-2 .89-2 2 0 1.1.89 2 2 2 1.1 0 2-.9 2-2 0-1.11-.9-2-2-2Zm-4 2c0-2.21 1.79-4 4-4 2.2 0 4 1.79 4 4 0 2.2-1.8 4-4 4 -2.21 0-4-1.8-4-4Z"/><path fill="#3747D6" d="M11 5.5c-2.77 0-5 2.23-5 5 0 .55-.45 1-1 1 -1.11 0-2 .89-2 2 0 1.1.89 2 2 2h1.25v2H5c-2.21 0-4-1.8-4-4 0-1.89 1.3-3.47 3.05-3.89 .43-3.45 3.37-6.12 6.94-6.12 2.81 0 5.23 1.65 6.34 4.04 .21-.03.43-.05.65-.05 2.76 0 5 2.23 5 5 0 1.29-.38 2.53-1.16 3.46 -.8.95-1.95 1.53-3.35 1.53h-.75v-2h.75c.8 0 1.4-.32 1.8-.81 .42-.52.69-1.28.69-2.2 0-1.66-1.35-3-3-3 -.34 0-.66.05-.96.15 -.26.08-.54.06-.78-.06 -.24-.13-.42-.34-.5-.6 -.64-2.04-2.54-3.51-4.773-3.51Z"/></g></svg>