<svg viewBox="0 0 24 24" xmlns="http://www.w3.org/2000/svg"><g fill="#9545ED" fill-rule="evenodd"><path d="M19 12.5V20c0 .55-.45 1-1 1h-4v-2h3v-6.5h2Z"/><path d="M5 12V7c0-.56.44-1 1-1h4v2H7v4H5Z"/><g fill="#3747D6"><path d="M15.4 3c-1.47 0-2.6 1.14-2.6 2.5 0 .55-.45 1-1 1 -.47 0-.8.36-.8.75 0 .38.33.75.8.75h8.1c.37 0 .62-.14.78-.34 .17-.22.31-.56.31-1.01 0-.72-.61-1.34-1.4-1.34 -.17 0-.32.02-.46.07 -.26.08-.53.06-.77-.07s-.42-.34-.5-.59c-.33-1.01-1.31-1.77-2.49-1.77Zm-4.519 1.65c.4-2.1 2.29-3.66 4.519-3.66 1.72 0 3.24.93 4.03 2.33 .05-.01.1-.01.16-.01 1.85 0 3.4 1.46 3.4 3.33 0 .83-.26 1.66-.8 2.29 -.56.65-1.37 1.03-2.31 1.03h-8.1c-1.52 0-2.8-1.21-2.8-2.75 0-1.22.79-2.23 1.88-2.6Z"/><path d="M7.4 16c-1.47 0-2.6 1.14-2.6 2.5 0 .55-.45 1-1 1 -.47 0-.8.36-.8.75 0 .38.33.75.8.75h8.1c.37 0 .62-.14.78-.34 .17-.22.31-.56.31-1.01 0-.71-.61-1.34-1.4-1.34 -.17 0-.32.02-.46.07 -.26.08-.53.06-.77-.07s-.42-.34-.5-.59c-.33-1.01-1.31-1.77-2.49-1.77Zm-4.52 1.65c.4-2.1 2.29-3.66 4.51-3.66 1.72 0 3.24.93 4.03 2.33 .05-.01.1-.01.16-.01 1.85 0 3.4 1.46 3.4 3.33 0 .83-.26 1.66-.8 2.29 -.56.65-1.37 1.03-2.31 1.03h-8.1c-1.52 0-2.8-1.21-2.8-2.75 0-1.22.79-2.23 1.88-2.6Z"/></g></g></svg>