<svg viewBox="0 0 24 24" xmlns="http://www.w3.org/2000/svg"><g fill="#9545ED" fill-rule="evenodd"><path d="M5 14.5v1c0 .55.44 1 1 1h12c.55 0 1-.45 1-1v-1h2v1c0 1.65-1.35 3-3 3H6c-1.66 0-3-1.35-3-3v-1h2Z"/><g fill="#3747D6"><path d="M5 5v15c0 .55.44 1 1 1h12c.55 0 1-.45 1-1V5h2v15c0 1.65-1.35 3-3 3H6c-1.66 0-3-1.35-3-3V5h2Z"/><path d="M5 9v1c0 .55.44 1 1 1h12c.55 0 1-.45 1-1V9h2v1c0 1.65-1.35 3-3 3H6c-1.66 0-3-1.35-3-3V9h2Z"/></g><path d="M3 4c0-1.66 1.34-3 3-3h12c1.65 0 3 1.34 3 3v1c0 1.65-1.35 3-3 3H6C4.34 8 3 6.65 3 5V4Zm3-1c-.56 0-1 .44-1 1v1c0 .55.44 1 1 1h12c.55 0 1-.45 1-1V4c0-.56-.45-1-1-1H6Z"/></g></svg>