<svg viewBox="0 0 24 24" xmlns="http://www.w3.org/2000/svg"><g fill="#9545ED" fill-rule="evenodd"><path d="M2 17c0-.56.44-1 1-1h18c.55 0 1 .44 1 1v4c0 .55-.45 1-1 1H3c-.56 0-1-.45-1-1v-4Zm2 1v2h16v-2H4Z"/><path d="M2 3c0-.56.44-1 1-1h18c.55 0 1 .44 1 1v4c0 .55-.45 1-1 1H3c-.56 0-1-.45-1-1V3Zm2 1v2h16V4H4Z"/><g fill="#3747D6"><path d="M16 3c0-.56.44-1 1-1h4c.55 0 1 .44 1 1v18c0 .55-.45 1-1 1h-4c-.56 0-1-.45-1-1V3Zm2 1v16h2V4h-2Z"/><path d="M2 3c0-.56.44-1 1-1h4c.55 0 1 .44 1 1v18c0 .55-.45 1-1 1H3c-.56 0-1-.45-1-1V3Zm2 1v16h2V4H4Z"/><path d="M2 3c0-.56.44-1 1-1h18c.55 0 1 .44 1 1v18c0 .55-.45 1-1 1H3c-.56 0-1-.45-1-1V3Zm2 1v16h16V4H4Z"/></g></g></svg>