<svg viewBox="0 0 24 24" xmlns="http://www.w3.org/2000/svg"><g fill-rule="evenodd"><path d="M16.2 14.79l6.5 6.5 -1.42 1.41 -6.5-6.5 1.41-1.42Z"/><path d="M10 1c-4.98 0-9 4.02-9 9 0 4.97 4.02 9 9 9 4.97 0 9-4.03 9-9 0-4.98-4.03-9-9-9ZM6.9 6.99c.51-.9 1.48-1.5 2.59-1.5h1c1.1 0 2.07.59 2.59 1.49l.69-.7 1.41 1.41 -1.71 1.7v.08h1.5v2h-1.5c0 .02-.01.05-.01.08l1.7 1.7 -1.42 1.41 -1.13-1.13c-.55.56-1.32.92-2.17.92h-1c-.86 0-1.62-.36-2.17-.93l-1.13 1.12 -1.42-1.42 1.7-1.71c-.01-.03-.01-.06-.01-.09h-1.5v-2h1.5v-.09L4.7 7.62 6.11 6.2l.69.69Zm1.72 1h1.36 1.36c-.18-.3-.5-.5-.87-.5h-1c-.38 0-.7.2-.87.5Zm2.86 2h-.5v2.36c.29-.18.5-.5.5-.87v-1.5Zm-2.5 2.36V9.98h-.5v1.5c0 .37.2.69.5.86Z"/></g></svg>