<svg viewBox="0 0 24 24" xmlns="http://www.w3.org/2000/svg"><path fill-rule="evenodd" d="M17 1.58v5.41h5.41l-5.42-5.42Zm-2-.59v7c0 .55.44 1 1 1h7v13c0 .55-.45 1-1 1H2c-.56 0-1-.45-1-1v-20c0-.56.44-1 1-1h13ZM3.29 14.28l2.5-2.5 1.41 1.41 -1.8 1.79 1.79 1.79 -1.42 1.41 -2.5-2.5c-.4-.4-.4-1.03 0-1.42Zm14.91-2.5l2.5 2.5c.39.39.39 1.02 0 1.41l-2.5 2.5 -1.42-1.42 1.79-1.8 -1.8-1.8 1.41-1.42Zm-10.21.2c0-.56.44-1 1-1h2v2h-1v4h1v2h-2c-.56 0-1-.45-1-1v-6Zm5.5-1c-.56 0-1 .44-1 1v3 3h2v-2h.5v-2h-.5v-1h1v-2h-2Z"/></svg>