<svg viewBox="0 0 24 24" xmlns="http://www.w3.org/2000/svg"><g fill-rule="evenodd"><path d="M1 4c0-1.66 1.34-3 3-3h16c1.65 0 3 1.34 3 3v16c0 1.65-1.35 3-3 3H4c-1.66 0-3-1.35-3-3V4Zm3-1c-.56 0-1 .44-1 1v16c0 .55.44 1 1 1h16c.55 0 1-.45 1-1V4c0-.56-.45-1-1-1H4Z"/><path d="M1 4c0-1.66 1.34-3 3-3h16c1.65 0 3 1.34 3 3v2c0 .55-.45 1-1 1H2c-.56 0-1-.45-1-1V4Zm3-1c-.56 0-1 .44-1 1v1h18V4c0-.56-.45-1-1-1H4Z"/><path d="M1 8c0-1.66 1.34-3 3-3h16c1.65 0 3 1.34 3 3v12c0 1.65-1.35 3-3 3H4c-1.66 0-3-1.35-3-3V8Zm8.27 1.31c.18-.21.45-.32.72-.32h4c.26 0 .51.1.7.29l2 2c.33.33.38.86.125 1.26l-4 6c-.19.27-.5.44-.83.44 -.34 0-.65-.17-.84-.44l-4.01-5.88c-.27-.39-.23-.91.09-1.25l2-2.13Zm-5.98 2.47l3-3.01 1.41 1.41 -2.3 2.29 2.29 2.29 -1.42 1.41 -3-3c-.4-.4-.4-1.03 0-1.42ZM17.7 8.77l3 3c.39.39.39 1.02 0 1.41l-3 3 -1.42-1.42 2.29-2.3 -2.3-2.3 1.41-1.42Z"/></g></svg>