<svg viewBox="0 0 24 24" xmlns="http://www.w3.org/2000/svg"><path fill-rule="evenodd" d="M1.25 1.33c.18-.22.46-.34.74-.34h20c.28 0 .55.12.74.33 .18.21.27.5.24.78l-2 16c-.05.33-.25.62-.55.77l-8 4c-.29.14-.62.14-.9 0l-8.01-4c-.3-.15-.51-.44-.55-.78l-2-16c-.04-.29.05-.58.24-.79Zm17.74 2.66h-13v2h11.8l-.64 3.5H9.98v2h6.8l-.71 3.87 -4.1 2.45 -4.09-2.46 -.43-2.55 -1.98.32 .5 3c.04.28.22.54.47.69l5 3c.31.19.71.19 1.029 0l5-3c.24-.15.41-.4.46-.68l1-5.5 1-5.51c.05-.3-.03-.6-.22-.82 -.19-.23-.48-.36-.77-.36Z"/></svg>