<svg viewBox="0 0 24 24" xmlns="http://www.w3.org/2000/svg"><g fill-rule="evenodd"><path d="M1 4c0-1.66 1.34-3 3-3h16c1.65 0 3 1.34 3 3v16c0 1.65-1.35 3-3 3H4c-1.66 0-3-1.35-3-3V4Zm3-1c-.56 0-1 .44-1 1v16c0 .55.44 1 1 1h16c.55 0 1-.45 1-1V4c0-.56-.45-1-1-1H4Z"/><path d="M1 4c0-1.66 1.34-3 3-3h16c1.65 0 3 1.34 3 3v2c0 .55-.45 1-1 1H2c-.56 0-1-.45-1-1V4Zm3-1c-.56 0-1 .44-1 1v1h18V4c0-.56-.45-1-1-1H4Z"/><path d="M4 5C2.34 5 1 6.34 1 8v12c0 1.65 1.34 3 3 3h16c1.65 0 3-1.35 3-3V8c0-1.66-1.35-3-3-3H4Zm3.5 5c0-1.11.89-2 2-2h1v2h-1v2.5c0 .31-.15.61-.4.8l-.94.7 .93.7c.25.18.4.48.4.8V18h1v2h-1c-1.11 0-2-.9-2-2v-2l-1.6-1.2c-.26-.19-.4-.49-.4-.8 0-.32.14-.62.4-.8l1.6-1.2v-2Zm7 10c1.1 0 2-.9 2-2v-2l1.6-1.2c.25-.19.4-.49.4-.8 0-.32-.15-.62-.4-.8L16.5 12v-2c0-1.11-.9-2-2-2h-1v2h1v2.5c0 .31.14.61.4.8l.93.7 -.94.7c-.26.18-.4.48-.4.8V18h-1v2h1Z"/></g></svg>