<svg viewBox="0 0 24 24" xmlns="http://www.w3.org/2000/svg"><g fill-rule="evenodd"><path d="M1 7.5c0-.56.44-1 1-1h20c.55 0 1 .44 1 1v10c0 .55-.45 1-1 1H2c-.56 0-1-.45-1-1v-10ZM16.5 9c-.56 0-1 .44-1 1v2.5c0 .55.44 1 1 1h2v.5h-2v2h3c.55 0 1-.45 1-1v-2.5c0-.56-.45-1-1-1h-2V11h2V9h-3Zm-13 1c0-.56.44-1 1-1h1c1.65 0 3 1.34 3 3v1c0 1.65-1.35 3-3 3h-1c-.56 0-1-.45-1-1v-2.5V10Zm2 1v1.5V14c.55 0 1-.45 1-1v-1c0-.56-.45-1-1-1Zm5.85-1.52c-.24-.39-.7-.57-1.13-.45 -.44.11-.74.51-.74.96v5h2V13.6l1.14 1.9c.23.38.69.56 1.12.44 .43-.12.73-.52.73-.97v-5h-2v1.38l-1.15-1.91Z"/><path d="M12 3C8.49 3 5.45 5 3.97 7.92l-1.79-.91C3.99 3.43 7.7.98 11.99.98c4.35 0 8.11 2.53 9.89 6.19l-1.8.87c-1.46-3.01-4.54-5.08-8.11-5.08ZM4.48 16.94c1.61 2.44 4.37 4.05 7.51 4.05 3.14 0 5.9-1.61 7.51-4.06l1.66 1.1c-1.97 2.97-5.35 4.94-9.19 4.94 -3.85 0-7.23-1.97-9.19-4.95l1.66-1.11Z"/><path d="M10.76 4.04c-.52.82-.98 2.06-1.29 3.62L7.5 7.27c.33-1.7.86-3.19 1.54-4.29C9.7 1.91 10.67.99 11.95.99c1.3 0 2.28.95 2.95 2.04 .69 1.12 1.21 2.66 1.54 4.4l-1.97.37c-.31-1.6-.77-2.88-1.29-3.74 -.55-.9-1.01-1.09-1.25-1.09s-.69.18-1.23 1.04Zm.15 16.13c.47.67.85.81 1.06.81 .2 0 .58-.14 1.06-.82 .46-.66.89-1.66 1.22-2.94l1.93.49c-.37 1.42-.89 2.67-1.54 3.59 -.64.9-1.55 1.65-2.7 1.65 -1.16 0-2.06-.76-2.7-1.66 -.66-.93-1.17-2.18-1.54-3.6l1.93-.5c.33 1.28.76 2.28 1.22 2.93Z"/></g></svg>