<svg viewBox="0 0 24 24" xmlns="http://www.w3.org/2000/svg"><g fill-rule="evenodd"><path d="M4 8c-.75 0-1.47.22-2.02.63 -.56.41-.99 1.06-.99 1.86 0 .79.43 1.44.98 1.86 .55.41 1.26.63 2.01.63 .74 0 1.46-.23 2.01-.64 .55-.42.98-1.07.98-1.87s-.44-1.45-.99-1.87c-.56-.42-1.27-.64-2.02-.64Z"/><path d="M5 6v3H3V6h2Z"/><path d="M12.7 7.79c-.4-.4-1.03-.4-1.42 0l-3.51 3.5c-.4.39-.4 1.02 0 1.41l3.5 3.5c.39.39 1.02.39 1.41 0l3.5-3.5c.39-.4.39-1.03 0-1.42l-3.5-3.51Z"/><path d="M2 1c-.56 0-1 .44-1 1v4c0 .55.44 1 1 1h6c.55 0 1-.45 1-1V2c0-.56-.45-1-1-1H2Z"/><path d="M16 17c-.56 0-1 .44-1 1v4c0 .55.44 1 1 1h6c.55 0 1-.45 1-1v-4c0-.56-.45-1-1-1h-6Z"/><path d="M14 1.5c-.75 0-1.47.22-2.02.63 -.56.41-.99 1.06-.99 1.86 0 .79.43 1.44.98 1.86 .55.41 1.26.63 2.01.63 .74 0 1.46-.23 2.01-.64 .55-.42.98-1.07.98-1.87s-.44-1.45-.99-1.87c-.56-.42-1.27-.64-2.02-.64Z"/><path d="M10 17.5c-.75 0-1.47.22-2.02.63 -.56.41-.99 1.06-.99 1.86 0 .79.43 1.44.98 1.86 .55.41 1.26.63 2.01.63 .74 0 1.46-.23 2.01-.64 .55-.42.98-1.07.98-1.87s-.44-1.45-.99-1.87c-.56-.42-1.27-.64-2.02-.64Z"/><path d="M12 19h4v2h-4v-2Z"/><path d="M12.53 14.65l4 2.5 -1.06 1.69 -4-2.5 1.06-1.7Z"/><path d="M8.52 5.15l4 2.5 -1.06 1.69 -4.01-2.5 1.06-1.7Z"/><path d="M12 5H8V3h4v2Z"/></g></svg>