<svg viewBox="0 0 24 24" xmlns="http://www.w3.org/2000/svg"><g fill-rule="evenodd"><path d="M1 4c0-1.66 1.34-3 3-3h16c1.65 0 3 1.34 3 3v16c0 1.65-1.35 3-3 3H4c-1.66 0-3-1.35-3-3V4Zm3-1c-.56 0-1 .44-1 1v16c0 .55.44 1 1 1h16c.55 0 1-.45 1-1V4c0-.56-.45-1-1-1H4Z"/><path d="M1 4c0-1.66 1.34-3 3-3h16c1.65 0 3 1.34 3 3v2c0 .55-.45 1-1 1H2c-.56 0-1-.45-1-1V4Zm3-1c-.56 0-1 .44-1 1v1h18V4c0-.56-.45-1-1-1H4Z"/><path d="M4 5C2.34 5 1 6.34 1 8v12c0 1.65 1.34 3 3 3h16c1.65 0 3-1.35 3-3V8c0-1.66-1.35-3-3-3H4Zm8.5 4c0-.56.44-1 1-1H19c.55 0 1 .44 1 1v5 5c0 .55-.45 1-1 1h-5.5c-.56 0-1-.45-1-1v-5V9Zm2 1v4 4H18v-4 -4h-3.5Zm-4 0H6v4 4h3.5v-3H8v-2h2.5c.55 0 1 .44 1 1v5c0 .55-.45 1-1 1H5c-.56 0-1-.45-1-1v-5V9c0-.56.44-1 1-1h5.5v2Z"/></g></svg>