<svg viewBox="0 0 24 24" xmlns="http://www.w3.org/2000/svg"><path fill-rule="evenodd" d="M2 1c-.29 0-.56.12-.75.33 -.19.21-.28.5-.25.78l2 16c.04.33.24.62.54.77l8 4c.28.14.61.14.89 0l8-4c.29-.15.5-.44.54-.78l2-16c.03-.29-.06-.58-.25-.79 -.19-.22-.47-.34-.75-.34h-20Zm7.49 15.27V4.99h1.99v13c0 .35-.19.68-.5.86 -.31.17-.69.18-1 0l-3.5-2 .99-1.74 2 1.14Zm4-12.28c-.56 0-1 .44-1 1v6.5c0 .3.13.59.37.78 .23.18.54.26.84.19l3.16-.71 -.33 3.58 -3.51 1.75 .89 1.78 4-2c.3-.16.51-.46.54-.81l.5-5.5c.02-.32-.1-.64-.34-.85 -.24-.22-.57-.3-.88-.23l-3.29.72V5.93h4v-2h-5Z"/></svg>