<svg viewBox="0 0 24 24" xmlns="http://www.w3.org/2000/svg"><path fill-rule="evenodd" d="M17 1.58v5.41h5.41l-5.42-5.42Zm-2-.59v7c0 .16.04.32.11.46 -.65-.31-1.36-.47-2.12-.47h-2c-2.77 0-5 2.23-5 5v2c0 2.76 2.23 5 5 5h5v-2h-5c-1.66 0-3-1.35-3-3v-2c0-1.66 1.34-3 3-3h2c1.65 0 3 1.34 3 3 0 .74-.41 1.38-1 1.73v-2.74c0-.56-.45-1-1-1h-2c-1.66 0-3 1.34-3 3 0 1.65 1.34 3 3 3h2c2.2 0 4-1.8 4-4 0-1.64-.79-3.09-2-4h6.99v13c0 .55-.45 1-1 1h-20c-.56 0-1-.45-1-1v-20c0-.56.44-1 1-1h13Zm-3 12c-.56 0-1 .44-1 1 0 .55.44 1 1 1h1v-2h-1Z"/></svg>