<svg viewBox="0 0 24 24" xmlns="http://www.w3.org/2000/svg"><g fill-rule="evenodd"><path d="M9 18c0-.56.44-1 1-1h4c.55 0 1 .44 1 1v4c0 .55-.45 1-1 1h-4c-.56 0-1-.45-1-1v-4Zm2 1v2h2v-2h-2Z"/><path d="M18 23H6v-2h12v2Z"/><path d="M1 2c0-.56.44-1 1-1h20c.55 0 1 .44 1 1v16c0 .55-.45 1-1 1H2c-.56 0-1-.45-1-1V2Zm2.5 2.5c0-.56.44-1 1-1h15c.55 0 1 .44 1 1V10c0 .55-.45 1-1 1h-15c-.56 0-1-.45-1-1V4.5Zm1 7c-.56 0-1 .44-1 1v3c0 .55.44 1 1 1h6c.55 0 1-.45 1-1v-3c0-.56-.45-1-1-1h-6Zm8 1c0-.56.44-1 1-1h6c.55 0 1 .44 1 1v3c0 .55-.45 1-1 1h-6c-.56 0-1-.45-1-1v-3Z"/></g></svg>