<svg viewBox="0 0 24 24" xmlns="http://www.w3.org/2000/svg"><g fill-rule="evenodd"><path d="M9.52 18.24l-1-4 1.94-.49 .34 1.37 .29-.59c.16-.34.51-.56.89-.56 .37 0 .72.21.89.55l.29.58 .34-1.38 1.94.48 -1 4c-.11.4-.45.7-.87.75 -.42.04-.82-.18-1.01-.55l-.61-1.22 -.61 1.21c-.19.37-.59.59-1.01.54 -.42-.05-.76-.35-.87-.76Z"/><path d="M17.02 18.24l-1-4 1.94-.49 .34 1.37 .29-.59c.16-.34.51-.56.89-.56 .37 0 .72.21.89.55l.29.58 .34-1.38 1.94.48 -1 4c-.11.4-.45.7-.87.75 -.42.04-.82-.18-1.01-.55l-.61-1.22 -.61 1.21c-.19.37-.59.59-1.01.54 -.42-.05-.76-.35-.87-.76Z"/><path d="M2.02 18.24l-1-4 1.94-.49 .34 1.37 .29-.59c.16-.34.51-.56.89-.56 .37 0 .72.21.89.55l.29.58L6 13.72l1.94.48 -1 4c-.11.4-.45.7-.87.75 -.42.04-.82-.18-1.01-.55l-.61-1.22 -.61 1.21c-.19.37-.59.59-1.01.54 -.42-.05-.76-.35-.87-.76Z"/><path d="M11 7c-.56 0-1 .44-1 1 0 .55.44 1 1 1 .55 0 1-.45 1-1 0-.56-.45-1-1-1ZM8 8c0-1.66 1.34-3 3-3 1.65 0 3 1.34 3 3 0 1.65-1.35 3-3 3 -1.66 0-3-1.35-3-3Z"/><path d="M13.793 12.2l-2-2 1.41-1.42 2 2 -1.42 1.41Z"/></g></svg>