<svg viewBox="0 0 24 24" xmlns="http://www.w3.org/2000/svg"><g fill-rule="evenodd"><path d="M7.63 1.66c.09-.11.22-.17.36-.17h8c.13 0 .27.05.36.16 .09.1.14.23.13.37l-1 13c-.02.26-.24.46-.5.46h-6c-.27 0-.48-.21-.5-.47l-1-13c-.02-.14.03-.28.13-.38Zm.9.83l.92 12h5.07l.92-12H8.51Z"/><path d="M6.62 22.32c.09.1.23.17.37.17h10c.14 0 .28-.07.37-.18 .09-.11.13-.26.11-.4l-1-7c-.04-.25-.25-.43-.5-.43h-8c-.25 0-.46.18-.5.42l-1 7c-.03.14.02.28.11.39Zm.95-.83l.85-6h7.13l.85 6H7.55Z"/><path d="M4.57 1.74c.09-.16.25-.25.42-.25h3c.27 0 .5.22.5.5 0 .27-.23.5-.5.5H5.82l3.1 5.76c.13.24.03.54-.21.67 -.25.13-.55.03-.68-.21l-3.5-6.5c-.09-.16-.08-.35.01-.5Z"/><path d="M15 2c0-.28.22-.5.5-.5H19c.27 0 .5.22.5.5v5c0 .27-.23.5-.5.5 -.28 0-.5-.23-.5-.5V2.5h-3c-.28 0-.5-.23-.5-.5Z"/><path d="M12 17c.27 0 .5.22.5.5v2c0 .27-.23.5-.5.5 -.28 0-.5-.23-.5-.5v-2c0-.28.22-.5.5-.5Z"/></g></svg>