<svg viewBox="0 0 24 24" xmlns="http://www.w3.org/2000/svg"><g fill-rule="evenodd"><path d="M13.64 1.64c.19-.2.51-.2.7 0l8 8c.19.19.19.51 0 .7l-12 12c-.2.19-.52.19-.71 0l-8-8c-.2-.2-.2-.52 0-.71l12-12ZM2.7 13.99l7.29 7.29 11.29-11.3 -7.3-7.3 -11.3 11.29Z"/><path d="M15.39 7.1c-.22-.22-.58-.22-.8 0 -.22.21-.22.57 0 .79l1.5 1.5c.21.21.57.21.79 0 .21-.22.21-.58 0-.8l-1.5-1.5Zm-1.5-.71c.6-.61 1.59-.61 2.2 0l1.5 1.5c.6.6.6 1.59 0 2.2 -.61.6-1.6.6-2.21 0l-1.5-1.51c-.61-.61-.61-1.6 0-2.21Z"/></g></svg>