<svg viewBox="0 0 24 24" xmlns="http://www.w3.org/2000/svg"><g fill-rule="evenodd"><path d="M6.5 3.5c0-.28.22-.5.5-.5h15c.27 0 .5.22.5.5v6c0 .27-.23.5-.5.5H7c-.28 0-.5-.23-.5-.5v-6Zm1 .5v5h14V4h-14Z"/><path d="M5.5 17.5c0-.28.22-.5.5-.5h12c.27 0 .5.22.5.5v3c0 .27-.23.5-.5.5H6c-.28 0-.5-.23-.5-.5v-3Zm1 .5v2h11v-2h-11Z"/><path d="M17.5 9.5c0-.28.22-.5.5-.5h4c.27 0 .5.22.5.5v11c0 .27-.23.5-.5.5h-4c-.28 0-.5-.23-.5-.5v-11Zm1 .5v10h3V10h-3Z"/><path d="M8.5 9.5c0-.28.22-.5.5-.5h4c.27 0 .5.22.5.5v4c0 .27-.23.5-.5.5H9c-.28 0-.5-.23-.5-.5v-4Zm1 .5v3h3v-3h-3Z"/><path d="M1.67 10.62c.1-.1.25-.14.39-.12l7 1c.24.03.42.24.42.49v1c0 .24-.19.45-.43.49l-7 1c-.15.02-.29-.03-.4-.12 -.11-.1-.18-.24-.18-.38v-3c0-.15.06-.29.17-.38Zm.82.95v1.84l6-.86v-.14l-6-.86Z"/></g></svg>