<svg viewBox="0 0 24 24" xmlns="http://www.w3.org/2000/svg"><g fill-rule="evenodd"><path d="M5.1 7.19c.09-.13.24-.2.39-.2h11c.15 0 .3.07.39.19 .09.12.12.28.08.43l-1.91 7c-.06.21-.26.36-.49.36h-7.2c-.23 0-.43-.16-.49-.37L4.96 7.59c-.05-.16-.01-.32.08-.44Zm1.05.8l1.63 6h6.42l1.63-6h-9.7Z"/><path d="M7.01 14.37c.05-.22.25-.38.48-.38h7c.22 0 .42.15.48.37l2 7.5c.04.15 0 .31-.09.43 -.1.12-.25.19-.4.19h-11c-.16 0-.31-.08-.4-.2 -.1-.13-.13-.29-.09-.44l2-7.5Zm.86.62l-1.74 6.5h9.69l-1.74-6.5H7.84Z"/><path d="M15 2c0-.28.22-.5.5-.5h3c.27 0 .5.22.5.5v3c0 .27-.23.5-.5.5h-3c-.28 0-.5-.23-.5-.5V2Zm1 .5v2h2v-2h-2Z"/><path d="M10.5 5c0-.28.22-.5.5-.5h6.5v1h-6v2h-1V5Z"/></g></svg>