<svg viewBox="0 0 24 24" xmlns="http://www.w3.org/2000/svg"><g fill-rule="evenodd"><path d="M16 2c0-.28.22-.5.5-.5h3c.27 0 .5.22.5.5v3c0 .27-.23.5-.5.5h-3c-.28 0-.5-.23-.5-.5V2Zm1 .5v2h2v-2h-2Z"/><path d="M6 7.5c0-.28.22-.5.5-.5H17c.27 0 .5.22.5.5v2c0 2.48-2.02 4.5-4.5 4.5h-2.5C8.01 14 6 11.98 6 9.5v-2ZM7 8v1.5c0 1.93 1.56 3.5 3.5 3.5H13c1.93 0 3.5-1.57 3.5-3.5V8H7Z"/><path d="M4 13.5c0-.28.22-.5.5-.5h14c.27 0 .5.22.5.5V22c0 .27-.23.5-.5.5h-14c-.28 0-.5-.23-.5-.5v-8.5Zm1 .5v7.5h13V14H5Z"/><path d="M11 5c0-.28.22-.5.5-.5H18v1h-6v2h-1V5Z"/><path d="M13.5 18.5h-4v-1h4v1Z"/></g></svg>