<svg viewBox="0 0 24 24" xmlns="http://www.w3.org/2000/svg"><g fill-rule="evenodd"><path d="M5 3.5c0-.28.22-.5.5-.5h15c.27 0 .5.22.5.5V8c0 .27-.23.5-.5.5h-15c-.28 0-.5-.23-.5-.5V3.5ZM6 4v3.5h14V4H6Z"/><path d="M4 17.5c0-.28.22-.5.5-.5h12c.27 0 .5.22.5.5v3c0 .27-.23.5-.5.5h-12c-.28 0-.5-.23-.5-.5v-3Zm1 .5v2h11v-2H5Z"/><path d="M16 8c0-.28.22-.5.5-.5h4c.27 0 .5.22.5.5v12.5c0 .27-.23.5-.5.5h-4c-.28 0-.5-.23-.5-.5V8Zm1 .5V20h3V8.5h-3Z"/><path d="M5.5 13c0-1.39 1.11-2.5 2.5-2.5h2.5c1.38 0 2.5 1.11 2.5 2.5v4.5c0 .27-.23.5-.5.5H6c-.28 0-.5-.23-.5-.5V13ZM8 11.5c-.83 0-1.5.67-1.5 1.5v4H12v-4c0-.83-.68-1.5-1.5-1.5H8Z"/><path d="M3 13.5c0-1.11.89-2 2-2h1v1H5c-.56 0-1 .44-1 1v.5c0 .55.44 1 1 1h1v1H5c-1.11 0-2-.9-2-2v-.5Z"/><path d="M13.45 12h-1.46v-1h2.5c.19 0 .36.11.45.28 .08.17.05.37-.07.52l-2 2.5 -.79-.63 1.35-1.69Z"/></g></svg>