<svg viewBox="0 0 24 24" xmlns="http://www.w3.org/2000/svg"><g fill-rule="evenodd"><path d="M1.5 2c0-.28.22-.5.5-.5h20c.27 0 .5.22.5.5v20c0 .27-.23.5-.5.5H2c-.28 0-.5-.23-.5-.5V2Zm1 .5v19h19v-19h-19Z"/><path d="M7 20H5v-1h2v1Z"/><path d="M19 20h-2v-1h2v1Z"/><path d="M14 20h-2v-1h2v1Z"/><path d="M12 5c-3.04 0-5.5 2.46-5.5 5.5 0 3.03 2.46 5.5 5.5 5.5 3.03 0 5.5-2.47 5.5-5.5C17.5 7.46 15.03 5 12 5Zm-6.5 5.5C5.5 6.91 8.41 4 12 4c3.58 0 6.5 2.91 6.5 6.5 0 3.58-2.92 6.5-6.5 6.5 -3.59 0-6.5-2.92-6.5-6.5Z"/><path d="M12 8c-1.39 0-2.5 1.11-2.5 2.5 0 1.38 1.11 2.5 2.5 2.5 1.38 0 2.5-1.12 2.5-2.5C14.5 9.11 13.38 8 12 8Zm-3.5 2.5C8.5 8.56 10.06 7 12 7c1.93 0 3.5 1.56 3.5 3.5 0 1.93-1.57 3.5-3.5 3.5 -1.94 0-3.5-1.57-3.5-3.5Z"/></g></svg>