<svg viewBox="0 0 24 24" xmlns="http://www.w3.org/2000/svg"><g fill-rule="evenodd"><path d="M6.5 5c0-.28.22-.5.5-.5h10c.27 0 .5.22.5.5v17c0 .27-.23.5-.5.5H7c-.28 0-.5-.23-.5-.5V5Zm1 .5v16h9v-16h-9Z"/><path d="M11.5 2.5H10v-1h4v1h-1.5V19h-1V2.5Z"/><path d="M17 19.5H7v-1h10v1Z"/><path d="M2.82 7.03l4-1.5 .35.93 -3.39 1.26 3.61 4.96 -.81.58 -4-5.51c-.1-.13-.12-.29-.08-.44 .04-.15.15-.27.3-.33Z"/><path d="M19 5.5H7v-1h12c1.38 0 2.5 1.11 2.5 2.5v3h-1V7c0-.83-.68-1.5-1.5-1.5Z"/><path d="M19 22.5H5v-1h14v1Z"/></g></svg>