<svg viewBox="0 0 24 24" xmlns="http://www.w3.org/2000/svg"><g fill-rule="evenodd"><path d="M15 2.5c-3.59 0-6.5 2.91-6.5 6.5 0 3.58 2.91 6.5 6.5 6.5 3.58 0 6.5-2.92 6.5-6.5 0-3.59-2.92-6.5-6.5-6.5ZM7.5 9c0-4.15 3.35-7.5 7.5-7.5 4.14 0 7.5 3.35 7.5 7.5 0 4.14-3.36 7.5-7.5 7.5 -4.15 0-7.5-3.36-7.5-7.5Z"/><path d="M15 5.5c-1.94 0-3.5 1.56-3.5 3.5 0 1.93 1.56 3.5 3.5 3.5 1.93 0 3.5-1.57 3.5-3.5 0-1.94-1.57-3.5-3.5-3.5ZM10.5 9c0-2.49 2.01-4.5 4.5-4.5 2.48 0 4.5 2.01 4.5 4.5 0 2.48-2.02 4.5-4.5 4.5 -2.49 0-4.5-2.02-4.5-4.5Z"/><path d="M7.14 14.14c.19-.2.51-.2.7 0l2 2c.19.19.19.51 0 .7l-4.5 4.5c-.75.74-1.96.74-2.71 0 -.75-.75-.75-1.96 0-2.71l4.5-4.5Zm.35 1.06l-4.15 4.14c-.36.35-.36.93 0 1.29 .35.35.93.35 1.29 0l4.14-4.15 -1.3-1.3Z"/><path d="M8.8 11.6c.22.16.26.47.1.7l-1.24 1.65 2.38 2.38 1.65-1.24c.22-.17.53-.13.7.1 .16.22.12.53-.1.7l-2 1.5c-.2.14-.48.12-.66-.05l-3-3c-.18-.18-.2-.46-.05-.66l1.5-2c.16-.23.47-.27.7-.1Z"/></g></svg>