<svg viewBox="0 0 24 24" xmlns="http://www.w3.org/2000/svg"><g fill-rule="evenodd"><path d="M5.5 8c0-1.39 1.11-2.5 2.5-2.5h8c1.38 0 2.5 1.11 2.5 2.5v9c0 1.38-1.12 2.5-2.5 2.5H8c-1.39 0-2.5-1.12-2.5-2.5V8ZM8 6.5c-.83 0-1.5.67-1.5 1.5v9c0 .82.67 1.5 1.5 1.5h8c.82 0 1.5-.68 1.5-1.5V8c0-.83-.68-1.5-1.5-1.5H8Z"/><path d="M7 19.5c0-.56.44-1 1-1h8c.55 0 1 .44 1 1V21c0 .82-.68 1.5-1.5 1.5h-7c-.83 0-1.5-.68-1.5-1.5v-1.5Zm9 0H8V21c0 .27.22.5.5.5h7c.27 0 .5-.23.5-.5v-1.5Z"/><path d="M17 2.5H7v-1h10v1Z"/><path d="M11.5 6V4h1v2h-1Z"/><path d="M15 6V2h1v4h-1Z"/><path d="M8 6V2h1v4H8Z"/></g></svg>