<svg viewBox="0 0 24 24" xmlns="http://www.w3.org/2000/svg"><g fill-rule="evenodd"><path d="M12 5.5c-3.04 0-5.5 2.46-5.5 5.5 0 3.03 2.46 5.5 5.5 5.5 3.03 0 5.5-2.47 5.5-5.5 0-3.04-2.47-5.5-5.5-5.5ZM5.5 11c0-3.59 2.91-6.5 6.5-6.5 3.58 0 6.5 2.91 6.5 6.5 0 3.58-2.92 6.5-6.5 6.5 -3.59 0-6.5-2.92-6.5-6.5Z"/><path d="M1.5 10c0-4.7 3.8-8.5 8.5-8.5h4c4.69 0 8.5 3.8 8.5 8.5v12c0 .27-.23.5-.5.5H2c-.28 0-.5-.23-.5-.5V10ZM10 2.5c-4.15 0-7.5 3.35-7.5 7.5v11.5h19V10c0-4.15-3.36-7.5-7.5-7.5h-4Z"/><path d="M12.5 8v6h-1V8h1Z"/></g></svg>