<svg viewBox="0 0 24 24" xmlns="http://www.w3.org/2000/svg"><g fill-rule="evenodd"><path d="M6.77 6.52c-1.42 2.35-2.28 5.24-2.28 7.37 0 4.2 3.36 7.6 7.5 7.6 4.13 0 7.5-3.4 7.5-7.6 0-2.13-.87-5.02-2.28-7.38 -1.43-2.39-3.3-4.03-5.228-4.03 -1.93 0-3.8 1.64-5.23 4.02ZM5.91 6c1.46-2.45 3.59-4.52 6.08-4.52 2.48 0 4.61 2.06 6.08 4.51 1.48 2.47 2.41 5.53 2.41 7.88 0 4.74-3.8 8.6-8.5 8.6 -4.71 0-8.5-3.86-8.5-8.6 0-2.35.92-5.41 2.41-7.89Z"/><path d="M4 13.5h16v1H4v-1Z"/><path d="M12.5 16.5v2h-1v-2h1Z"/></g></svg>