<svg viewBox="0 0 24 24" xmlns="http://www.w3.org/2000/svg"><g fill-rule="evenodd"><path d="M12 2.5c-4.7 0-8.5 3.8-8.5 8.5 0 4.69 3.8 8.5 8.5 8.5 4.69 0 8.5-3.81 8.5-8.5 0-4.7-3.81-8.5-8.5-8.5ZM2.5 11c0-5.25 4.25-9.5 9.5-9.5 5.24 0 9.5 4.25 9.5 9.5 0 5.24-4.26 9.5-9.5 9.5 -5.25 0-9.5-4.26-9.5-9.5Z"/><path d="M4 19.5c-.83 0-1.5.67-1.5 1.5v.5h19V21c0-.83-.68-1.5-1.5-1.5h-4v-1h4c1.38 0 2.5 1.11 2.5 2.5v1c0 .27-.23.5-.5.5H2c-.28 0-.5-.23-.5-.5v-1c0-1.39 1.11-2.5 2.5-2.5h4v1H4Z"/><path d="M12.5 5v6h-1V5h1Z"/></g></svg>