<svg viewBox="0 0 24 24" xmlns="http://www.w3.org/2000/svg"><g fill-rule="evenodd"><path d="M3.55 1.76c.08-.17.25-.27.44-.27h16c.18 0 .35.1.44.26 .08.16.07.35-.03.51l-8 12c-.1.13-.25.22-.42.22 -.17 0-.33-.09-.42-.23l-8.01-12c-.11-.16-.12-.36-.03-.52Zm1.37.73l7.06 10.59 7.06-10.6H4.9Z"/><path d="M7.53 22.19c.07.18.25.3.46.3h7.99c.2 0 .38-.13.46-.31 .07-.19.03-.41-.11-.55l-4-4c-.2-.2-.52-.2-.71 0l-4.01 4c-.15.14-.19.35-.11.54Zm1.66-.7l2.79-2.8 2.79 2.79H9.18Z"/><path d="M11.5 18v-4.5h1V18h-1Z"/></g></svg>