<svg viewBox="0 0 24 24" xmlns="http://www.w3.org/2000/svg"><g fill-rule="evenodd"><path d="M1.5 4.5c0-.28.22-.5.5-.5h20c.27 0 .5.22.5.5v12c0 .27-.23.5-.5.5H2c-.28 0-.5-.23-.5-.5v-12Zm1 .5v11h19V5h-19Z"/><path d="M2.5 16.5c0-.28.22-.5.5-.5h18c.27 0 .5.22.5.5v3c0 .27-.23.5-.5.5H3c-.28 0-.5-.23-.5-.5v-3Zm1 .5v2h17v-2h-17Z"/><path d="M4 7c0-.28.22-.5.5-.5h10c.27 0 .5.22.5.5v7c0 .27-.23.5-.5.5h-10c-.28 0-.5-.23-.5-.5V7Zm1 .5v6h9v-6H5Z"/><path d="M19.5 8.5H17v-1h2.5v1Z"/><path d="M19.5 11H17v-1h2.5v1Z"/></g></svg>