<svg viewBox="0 0 24 24" xmlns="http://www.w3.org/2000/svg"><g fill-rule="evenodd"><path d="M1.5 2c0-.28.22-.5.5-.5h20c.27 0 .5.22.5.5v7c0 .27-.23.5-.5.5H5.5c-2.21 0-4-1.8-4-4V2Zm1 .5v3c0 1.65 1.34 3 3 3h16v-6h-19Z"/><path d="M14.5 9c0-.28.22-.5.5-.5h7c.27 0 .5.22.5.5v13c0 .27-.23.5-.5.5h-7c-.28 0-.5-.23-.5-.5V9Zm1 .5v12h6v-12h-6Z"/><path d="M2 21.5h20v1H2v-1Z"/><path d="M6 12.5c-1.32 0-2.5 1.26-2.5 3 0 1.73 1.18 3 2.5 3 1.31 0 2.5-1.27 2.5-3 0-1.74-1.19-3-2.5-3Zm-3.5 3c0-2.14 1.49-4 3.5-4 2 0 3.5 1.86 3.5 4 0 2.13-1.5 4-3.5 4 -2.01 0-3.5-1.87-3.5-4Z"/><path d="M6.5 9v10h-1V9h1Z"/></g></svg>