<svg viewBox="0 0 24 24" xmlns="http://www.w3.org/2000/svg"><g fill-rule="evenodd"><path d="M8 10.5c-3.04 0-5.5 2.46-5.5 5.5 0 3.03 2.46 5.5 5.5 5.5 3.03 0 5.5-2.47 5.5-5.5 0-3.04-2.47-5.5-5.5-5.5ZM1.5 16c0-3.59 2.91-6.5 6.5-6.5 3.58 0 6.5 2.91 6.5 6.5 0 3.58-2.92 6.5-6.5 6.5 -3.59 0-6.5-2.92-6.5-6.5Z"/><path d="M8 15c-.56 0-1 .44-1 1 0 .55.44 1 1 1 .55 0 1-.45 1-1 0-.56-.45-1-1-1Zm-2 1c0-1.11.89-2 2-2 1.1 0 2 .89 2 2 0 1.1-.9 2-2 2 -1.11 0-2-.9-2-2Z"/><path d="M8.64 14.64l6-6.01 .7.7 -6.01 6 -.71-.71Z"/><path d="M18.64 2.64c.74-.75 1.95-.75 2.7 0 .74.74.74 1.95 0 2.7l-5 5c-.2.19-.52.19-.71 0l-2-2.01c-.2-.2-.2-.52 0-.71l5-5Zm2 .7c-.36-.36-.94-.36-1.3 0l-4.65 4.64 1.29 1.29 4.64-4.65c.35-.36.35-.94 0-1.3Z"/></g></svg>