<svg viewBox="0 0 24 24" xmlns="http://www.w3.org/2000/svg"><g fill-rule="evenodd"><path d="M7.5 20v2h-1v-2h1Z"/><path d="M17.5 20v2h-1v-2h1Z"/><path d="M3.63 8.66c.09-.11.22-.17.36-.17h16c.14 0 .27.05.36.16 .09.1.14.24.12.38l-.84 9.18c-.12 1.28-1.2 2.27-2.49 2.27H6.79c-1.3 0-2.38-.99-2.49-2.28l-.84-9.19c-.02-.14.03-.28.12-.39Zm.91.83l.78 8.63c.07.77.71 1.36 1.49 1.36h10.34c.77 0 1.42-.6 1.49-1.37l.78-8.64H4.51Z"/><path d="M20.39 9.3c-.1.12-.25.19-.4.19h-16c-.16 0-.3-.08-.4-.2 -.1-.13-.13-.28-.1-.43l.62-2.49c.27-1.12 1.27-1.9 2.42-1.9H17.4c1.14 0 2.14.78 2.42 1.89l.62 2.48c.03.14 0 .3-.1.42Zm-1.04-.81l-.47-1.87c-.17-.67-.77-1.14-1.46-1.14H6.54c-.69 0-1.29.46-1.46 1.13l-.47 1.86h14.71Z"/><path d="M15.5 20c0 .27-.23.5-.5.5H9c-.28 0-.5-.23-.5-.5v-4.5c0-1.39 1.11-2.5 2.5-2.5h2c1.38 0 2.5 1.11 2.5 2.5V20Zm-1-.5v-4c0-.83-.68-1.5-1.5-1.5h-2c-.83 0-1.5.67-1.5 1.5v4h5Z"/><path d="M11.5 2.5H10v-1h4v1h-1.5V5h-1V2.5Z"/><path d="M2 8.5h2v1H2v-1Z"/><path d="M20 8.5h2v1h-2v-1Z"/></g></svg>