<svg viewBox="0 0 24 24" xmlns="http://www.w3.org/2000/svg"><g fill-rule="evenodd"><path d="M17.864 4.5c-1.07 0-2.08.42-2.83 1.17l-6.33 6.32 3.29 3.29 9.29-9.3 -.33-.33c-.76-.76-1.77-1.18-2.83-1.18h-.28Zm-3.54.46c.93-.94 2.2-1.47 3.53-1.47h.27c1.32 0 2.59.52 3.53 1.46l.68.68c.09.09.14.22.14.35 0 .13-.06.25-.15.35l-10 10c-.2.19-.52.19-.71 0l-4-4c-.2-.2-.2-.52 0-.71l6.68-6.69Z"/><path d="M7.64 11.64c.19-.2.51-.2.7 0l2 2c.19.19.19.51 0 .7l-6.01 6c-.2.19-.52.19-.71 0l-2-2c-.2-.2-.2-.52-.001-.71l6-6ZM2.7 17.99l1.29 1.29 5.29-5.3 -1.3-1.3 -5.3 5.29Z"/></g></svg>