<svg viewBox="0 0 24 24" xmlns="http://www.w3.org/2000/svg"><g fill-rule="evenodd"><path d="M16.646 1.64c.19-.2.51-.2.7 0l5 5c.19.19.19.51 0 .7l-3.88 3.87c-1.37 1.36-3.59 1.36-4.95 0l-.76-.76c-1.37-1.37-1.37-3.59 0-4.95l3.87-3.88Zm.35 1.06l-3.53 3.52c-.98.97-.98 2.55 0 3.53l.75.75c.97.97 2.55.97 3.53 0l3.52-3.53 -4.3-4.3Z"/><path d="M5.64 15.64c.19-.2.51-.2.7 0l2 2c.19.19.19.51 0 .7l-4 4c-.2.19-.52.19-.71 0l-2-2c-.2-.2-.2-.52-.001-.71l4-4ZM2.7 19.99l1.29 1.29 3.29-3.3 -1.3-1.3 -3.3 3.29Z"/><path d="M13.85 10.85l-6.51 6.5 -.71-.71 6.5-6.5 .7.7Z"/></g></svg>