<svg viewBox="0 0 24 24" xmlns="http://www.w3.org/2000/svg"><g fill="#9545ED" fill-rule="evenodd"><path d="M6 22v-9h2v9H6Z"/><path d="M17.5 22v-9h2v9h-2Z"/><path d="M7 3C4.79 3 3 4.79 3 7c0 1.13.46 2.41 1.25 3.41 .78 1 1.77 1.58 2.74 1.58 .97 0 1.96-.58 2.74-1.59 .78-1 1.25-2.29 1.25-3.42 0-2.21-1.8-4-4-4ZM1 7c0-3.32 2.68-6 6-6 3.31 0 6 2.68 6 6 0 1.62-.66 3.34-1.68 4.65 -1.03 1.3-2.54 2.34-4.33 2.34s-3.3-1.05-4.33-2.35C1.63 10.33.98 8.61.98 6.98Z"/><path d="M18.63 6c-1.46 0-2.64 1.18-2.64 2.63 0 .75.31 1.63.85 2.31 .53.68 1.18 1.04 1.78 1.04 .59 0 1.24-.36 1.78-1.05 .53-.69.85-1.57.85-2.32 0-1.46-1.19-2.64-2.64-2.64Zm-4.64 2.63c0-2.57 2.07-4.64 4.63-4.64s4.63 2.07 4.63 4.63c0 1.25-.5 2.55-1.28 3.55 -.78.99-1.95 1.81-3.36 1.81 -1.42 0-2.59-.83-3.36-1.82 -.78-1-1.28-2.3-1.28-3.56Z"/><path fill="#3747D6" d="M7 4.72c-.92-.43-2.03-.26-2.78.49 -.97.96-.97 2.52 0 3.48l2.07 2.07c.18.18.44.29.7.29 .26 0 .51-.11.7-.3l2.07-2.08c.96-.97.96-2.53 0-3.49 -.76-.76-1.87-.92-2.78-.5Zm-.71 1.9c-.19-.19-.48-.19-.66 0 -.19.18-.19.47 0 .65l1.36 1.36 1.36-1.37c.18-.19.18-.48 0-.66 -.19-.19-.48-.19-.66 0 -.4.39-1.03.39-1.42 0Z"/></g></svg>