<svg viewBox="0 0 24 24" xmlns="http://www.w3.org/2000/svg"><g fill="#9545ED" fill-rule="evenodd"><path d="M4 9h3.5V7H4c-1.66 0-3 1.34-3 3v10.66c0 .38.22.74.57.9 .35.16.76.11 1.06-.14l2.44-2.04c.17-.15.4-.24.64-.24h6.44c1.56 0 2.83-1.27 2.83-2.84h-2c0 .46-.38.83-.84.83H5.69c-.71 0-1.39.24-1.93.69l-.81.66V9.94c0-.56.44-1 1-1Z"/><path d="M9 6c0-1.66 1.34-3 3-3h8.5c1.65 0 3 1.34 3 3v10.66c0 .38-.23.74-.58.9 -.36.16-.77.11-1.07-.14l-2.45-2.04c-.18-.15-.41-.24-.65-.24h-6.78c-1.66 0-3-1.35-3-3V5.97Zm3-1c-.56 0-1 .44-1 1v6.16c0 .55.44 1 1 1h6.77c.7 0 1.38.24 1.92.69l.8.66V5.97c0-.56-.45-1-1-1h-8.5Z"/><path fill="#3747D6" d="M16.25 5.87c1.03-.53 2.32-.36 3.19.51 1.07 1.07 1.07 2.82 0 3.89l-2.49 2.48c-.19.18-.45.29-.71.29 -.27 0-.52-.11-.71-.3l-2.49-2.49c-1.08-1.08-1.08-2.83 0-3.9 .86-.87 2.15-1.04 3.19-.52Zm1.77 1.92c-.3-.3-.78-.3-1.08 0 -.4.39-1.03.39-1.42 0 -.3-.3-.78-.3-1.08 0 -.3.29-.3.77 0 1.07l1.77 1.77 1.77-1.78c.29-.3.29-.78 0-1.08Z"/></g></svg>