<svg viewBox="0 0 24 24" xmlns="http://www.w3.org/2000/svg"><g fill="#9545ED" fill-rule="evenodd"><path d="M5.37 6.79l-4-4 1.41-1.42 4 4L5.36 6.78Zm11.3 11.3l-5.66-5.66 1.41-1.42 5.65 5.65 -1.42 1.41Z"/><path d="M16.08 16.71c.09-.3.33-.54.63-.64l2.12-.71c.35-.12.75-.03 1.02.24l2.82 2.82c.24.24.34.59.26.93 -.08.33-.33.6-.66.71l-1.65.54 -.55 1.64c-.11.32-.39.57-.72.657 -.34.07-.7-.03-.94-.27l-2.83-2.83c-.27-.27-.37-.67-.25-1.03l.7-2.13Zm1.38 2.16l1.24 1.24 .19-.59c.09-.3.33-.54.63-.64l.58-.2 -1.25-1.25 -1.07.35 -.36 1.06Z"/><path d="M1 2c0-.56.44-1 1-1h2.82v2H2.99v1.82h-2V1.99Z"/><path fill="#3747D6" d="M12.08 4.98c1.98-1.38 4.73-1.18 6.5.59 1.99 1.99 1.99 5.22 0 7.21l-5.8 5.79c-.19.18-.45.29-.71.29 -.27 0-.52-.11-.71-.3l-5.8-5.8c-2-2-2-5.23 0-7.22 1.77-1.78 4.51-1.97 6.5-.6Zm5.09 2c-1.22-1.22-3.18-1.22-4.39 0 -.4.39-1.03.39-1.42 0 -1.22-1.22-3.18-1.22-4.39 0 -1.22 1.21-1.22 3.17 0 4.38l5.09 5.09 5.09-5.1c1.21-1.22 1.21-3.18 0-4.39Z"/></g></svg>