<svg viewBox="0 0 24 24" xmlns="http://www.w3.org/2000/svg"><g fill="#9545ED" fill-rule="evenodd"><path d="M15 21H9v-2h6v2Z"/><path d="M13 13v7h-2v-7h2Z"/><g fill="#3747D6"><path d="M1.5 10c0-.56.44-1 1-1h8c.55 0 1 .44 1 1v1c0 1.65-1.35 3-3 3h-4c-1.66 0-3-1.35-3-3v-1Zm2 1c0 .55.44 1 1 1h4c.55 0 1-.45 1-1h-6Z"/><path d="M12.5 10c0-.56.44-1 1-1h8c.55 0 1 .44 1 1v1c0 1.65-1.35 3-3 3h-4c-1.66 0-3-1.35-3-3v-1Zm2 1c0 .55.44 1 1 1h4c.55 0 1-.45 1-1h-6Z"/><path d="M1.5 7c0 .55.44 1 1 1h8c.55 0 1-.45 1-1V6c0-1.66-1.35-3-3-3h-4c-1.66 0-3 1.34-3 3v1Zm2-1c0-.56.44-1 1-1h4c.55 0 1 .44 1 1h-6Z"/><path d="M12.5 7c0 .55.44 1 1 1h8c.55 0 1-.45 1-1V6c0-1.66-1.35-3-3-3h-4c-1.66 0-3 1.34-3 3v1Zm2-1c0-.56.44-1 1-1h4c.55 0 1 .44 1 1h-6Z"/><path d="M1 8.5C1 9.88 2.11 11 3.5 11h6c1.38 0 2.5-1.12 2.5-2.5C12 7.11 10.88 6 9.5 6h-6C2.11 6 1 7.11 1 8.5Zm2.5.5c-.28 0-.5-.23-.5-.5 0-.28.22-.5.5-.5h6c.27 0 .5.22.5.5 0 .27-.23.5-.5.5h-6Z"/><path d="M12 8.5c0 1.38 1.11 2.5 2.5 2.5h6c1.38 0 2.5-1.12 2.5-2.5C23 7.11 21.88 6 20.5 6h-6C13.11 6 12 7.11 12 8.5Zm2.5.5c-.28 0-.5-.23-.5-.5 0-.28.22-.5.5-.5h6c.27 0 .5.22.5.5 0 .27-.23.5-.5.5h-6Z"/></g><path d="M22 14H2v-2h20v2Z"/></g></svg>