<svg viewBox="0 0 24 24" xmlns="http://www.w3.org/2000/svg"><g fill="#9545ED" fill-rule="evenodd"><path d="M11.14 7.51l-3.01-5L9.84 1.48l2.14 3.57 2.14-3.58L15.83 2.5l-3 5c-.19.3-.51.48-.86.48 -.36 0-.68-.19-.86-.49Z"/><path d="M11 22V7h2v15h-2Z"/><path d="M11.47 9.65c.32-.21.73-.21 1.06 0l4 2.5 -1.06 1.69L12 11.67l-3.47 2.16 -1.06-1.7 3.99-2.5Z"/><g fill="#3747D6"><path d="M8.55 1.1c.13-.07.29-.11.44-.11h6c.21 0 .42.07.6.2l3.2 2.4c.75.56 1.2 1.45 1.2 2.4v8c0 .55-.45 1-1 1h-3c-.56 0-1-.45-1-1v-6h2v5h1v-7c0-.32-.15-.62-.4-.8l-2.94-2.2H9.21L6.52 4.33c-.34.16-.56.51-.56.89v7.76h1v-5h2v6c0 .55-.45 1-1 1h-3c-.56 0-1-.45-1-1V5.21c0-1.14.64-2.18 1.65-2.69L8.5 1.07Z"/><path d="M9.44 21l-.45-7.56 -2 .11 .5 8.5c.03.52.46.94.99.94h6.99c.52 0 .96-.42.99-.95l.5-8.5 -2-.12 -.45 7.55H9.39Z"/></g></g></svg>