<svg viewBox="0 0 24 24" xmlns="http://www.w3.org/2000/svg"><g fill-rule="evenodd"><path d="M9.35 10v5.5c0 .27.22.5.5.5h4.28c.27 0 .5-.23.5-.5V10h1v5.5c0 .82-.68 1.5-1.5 1.5H9.84c-.83 0-1.5-.68-1.5-1.5V10h1Z"/><path d="M11.71 7.59c.17-.13.4-.13.57 0l5 3.5 -.58.81 -4.72-3.3 -4.72 3.29 -.58-.82 5-3.51Z"/><path d="M12 2.5c-.33 0-.64.01-.96.04l-.1-1c.34-.04.69-.06 1.04-.06 5.79 0 10.5 4.7 10.5 10.5 0 2.13-.64 4.11-1.73 5.77l-.84-.56c.98-1.5 1.56-3.3 1.56-5.23 0-5.25-4.26-9.5-9.5-9.5ZM4.06 6.77c-.99 1.49-1.57 3.29-1.57 5.22 0 5.24 4.25 9.5 9.5 9.5 .32 0 .63-.02.95-.05l.09.99c-.35.03-.7.05-1.05.05 -5.8 0-10.5-4.71-10.5-10.5 0-2.14.63-4.12 1.72-5.78l.83.55Z"/><path d="M5 3.5c-.83 0-1.5.67-1.5 1.5 0 .82.67 1.5 1.5 1.5 .82 0 1.5-.68 1.5-1.5 0-.83-.68-1.5-1.5-1.5ZM2.5 5c0-1.39 1.11-2.5 2.5-2.5 1.38 0 2.5 1.11 2.5 2.5 0 1.38-1.12 2.5-2.5 2.5 -1.39 0-2.5-1.12-2.5-2.5Z"/><path d="M19 17.5c-.83 0-1.5.67-1.5 1.5 0 .82.67 1.5 1.5 1.5 .82 0 1.5-.68 1.5-1.5 0-.83-.68-1.5-1.5-1.5ZM16.5 19c0-1.39 1.11-2.5 2.5-2.5 1.38 0 2.5 1.11 2.5 2.5 0 1.38-1.12 2.5-2.5 2.5 -1.39 0-2.5-1.12-2.5-2.5Z"/></g></svg>