<svg viewBox="0 0 24 24" xmlns="http://www.w3.org/2000/svg"><g fill-rule="evenodd"><path d="M5.5 7v10c0 .82.67 1.5 1.5 1.5h3v1H7c-1.39 0-2.5-1.12-2.5-2.5V7h1Zm13 3.5V7h1v3.5h-1Z"/><path d="M11.71 1.59c.17-.13.4-.13.57 0l10 7 -.58.81 -9.72-6.8 -9.72 6.79 -.58-.82 10-7Z"/><path d="M20.76 14.21c-.95-.92-2.45-.96-3.44-.13 -.1.07-.22.11-.33.11 -.12 0-.24-.04-.33-.12 -1-.83-2.5-.79-3.44.12 -.94.9-.98 2.34-.14 3.29 .01.01.02.02.03.04l3.86 3.74 3.86-3.75c.01-.02.02-.03.03-.05 .84-.96.8-2.39-.14-3.3Zm.94 3.88c1.12-1.36 1.04-3.35-.25-4.6 -1.22-1.18-3.1-1.32-4.462-.42 -1.37-.91-3.25-.77-4.462.41 -1.3 1.25-1.38 3.24-.25 4.59 .02.03.05.07.08.1l4.27 4.15c.19.18.5.18.69 0l4.27-4.16c.03-.04.06-.07.08-.11Z"/></g></svg>