<svg viewBox="0 0 24 24" xmlns="http://www.w3.org/2000/svg"><g fill-rule="evenodd"><path d="M5.96 11.68l-.4.31 -.4-.32c.09-.12.23-.19.39-.19 .15 0 .29.06.39.18Zm-.4 1.12c-.05.06-.11.13-.16.2 -.34.44-.78 1.05-1.22 1.72 -.45.67-.88 1.39-1.2 2.06 -.34.68-.51 1.24-.51 1.61 0 1.69 1.37 3.07 3.07 3.07 1.2 0 2.24-.7 2.75-1.71l.89.44c-.67 1.33-2.05 2.25-3.65 2.25 -2.25 0-4.08-1.83-4.08-4.08 0-.62.26-1.35.6-2.06 .34-.73.8-1.49 1.26-2.18 .45-.7.9-1.32 1.24-1.78 .16-.23.31-.42.41-.54 .04-.07.08-.12.11-.15l.03-.04 0-.02 0-.01c0-.01 0 0 .39.31 .39-.32.39-.32.39-.32l0 0 0 0 .02.02c.01.02.04.05.07.09 .06.08.15.2.27.35 .23.3.54.73.89 1.23 .68.98 1.51 2.27 1.99 3.39l-.93.39c-.44-1.03-1.22-2.24-1.9-3.22 -.33-.47-.63-.87-.85-1.17Z"/><path d="M12.46 11.68l-.4.31 -.4-.32c.09-.12.23-.19.39-.19 .15 0 .29.06.39.18Zm-.4 1.12c-.05.06-.11.13-.16.2 -.34.44-.78 1.05-1.22 1.72 -.45.67-.88 1.39-1.2 2.06 -.34.68-.51 1.24-.51 1.61 0 1.69 1.37 3.07 3.07 3.07 1.69 0 3.07-1.38 3.07-3.08 0-.38-.18-.94-.51-1.62 -.33-.67-.76-1.39-1.2-2.07 -.44-.67-.88-1.28-1.22-1.73 -.06-.08-.11-.15-.16-.21Zm0-.82c-.4-.32-.4-.32-.4-.32l-.01 0 -.01.01 -.04.03c-.03.03-.07.08-.12.14 -.1.12-.25.31-.42.53 -.34.45-.8 1.08-1.25 1.77 -.46.68-.92 1.45-1.27 2.17 -.34.7-.61 1.44-.61 2.05 0 2.24 1.82 4.07 4.07 4.07 2.24 0 4.07-1.83 4.07-4.08 0-.62-.27-1.35-.61-2.06 -.35-.73-.81-1.49-1.27-2.18 -.46-.7-.91-1.32-1.25-1.78 -.17-.23-.32-.42-.42-.54 -.05-.07-.09-.12-.12-.15l-.04-.04 -.01-.02 -.01-.01c-.01-.01 0 0-.4.31Z"/><path d="M18.96 11.68l-.4.31 -.4-.31c.09-.13.23-.2.39-.2 .15-.01.29.06.39.18Zm-.39 1.13c-.22.29-.52.7-.84 1.16 -.68.98-1.46 2.2-1.94 3.21l-.91-.43c.5-1.1 1.33-2.38 2.01-3.37 .34-.5.65-.94.88-1.24 .11-.16.2-.28.26-.37 .03-.05.05-.08.07-.1l.01-.03 0-.01c0-.01 0 0 .39.3 .39-.32.39-.32.39-.32l0 0 0 .01 .03.03c.02.03.06.08.11.14 .09.12.24.31.41.53 .33.45.79 1.08 1.24 1.77 .45.68.91 1.45 1.26 2.17 .33.7.6 1.44.6 2.05 0 2.24-1.83 4.07-4.08 4.07 -1.61 0-3-.94-3.66-2.28l.89-.45c.5 1.01 1.54 1.72 2.75 1.72 1.69 0 3.07-1.38 3.07-3.08 0-.38-.18-.94-.51-1.62 -.33-.67-.76-1.39-1.2-2.07 -.44-.67-.88-1.28-1.22-1.73 -.06-.08-.11-.14-.16-.21Z"/><path d="M6 4.5c0-.28.22-.5.5-.5h11c.27 0 .5.22.5.5v2c0 1.93-1.57 3.5-3.5 3.5h-5C7.56 10 6 8.43 6 6.5v-2ZM7 5v1.5C7 7.88 8.11 9 9.5 9h5C15.88 9 17 7.88 17 6.5V5H7Z"/><path d="M4 2c0-.28.22-.5.5-.5h15c.27 0 .5.22.5.5v2.5c0 .27-.23.5-.5.5h-15c-.28 0-.5-.23-.5-.5V2Zm1 .5V4h14V2.5H5Z"/><path d="M12.5 7.5v2h-1v-2h1Z"/></g></svg>