<svg viewBox="0 0 24 24" xmlns="http://www.w3.org/2000/svg"><g fill-rule="evenodd"><path d="M12.28 7.81c-.18-.13-.41-.13-.58 0l-3.58 2.5c-.41.28-.64.73-.64 1.22v3.45c0 .82.67 1.5 1.5 1.5h6c.82 0 1.5-.68 1.5-1.5v-3.46c0-.49-.24-.95-.64-1.23l-3.58-2.51Zm-1.15-.82c.51-.37 1.2-.37 1.72 0l3.57 2.5c.66.46 1.06 1.23 1.06 2.04v3.45c0 1.38-1.12 2.5-2.5 2.5h-6c-1.39 0-2.5-1.12-2.5-2.5v-3.46c0-.82.39-1.59 1.06-2.05l3.57-2.51Z"/><path d="M12 2.5c-5.25 0-9.5 4.25-9.5 9.5 0 5.24 4.25 9.5 9.5 9.5 5.24 0 9.5-4.26 9.5-9.5 0-5.25-4.26-9.5-9.5-9.5ZM1.5 12C1.5 6.2 6.2 1.5 12 1.5c5.79 0 10.5 4.7 10.5 10.5 0 5.79-4.71 10.5-10.5 10.5 -5.8 0-10.5-4.71-10.5-10.5Z"/></g></svg>