<svg viewBox="0 0 24 24" xmlns="http://www.w3.org/2000/svg"><g fill-rule="evenodd"><path d="M5.5 7v10c0 .82.67 1.5 1.5 1.5h3v1H7c-1.39 0-2.5-1.12-2.5-2.5V7h1Zm13 3.5V7h1v3.5h-1Z"/><path d="M11.71 1.59c.17-.13.4-.13.57 0l10 7 -.58.81 -9.72-6.8 -9.72 6.79 -.58-.82 10-7Z"/><path d="M15.95 12.75c.32-1.01 1.75-1.01 2.08 0l.77 2.37c.01.03.04.06.09.06h2.49c1.06 0 1.5 1.35.64 1.98l-2.03 1.46c-.04.02-.05.06-.04.1l.77 2.37c.32 1-.83 1.84-1.69 1.22l-2.02-1.47c-.04-.03-.08-.03-.12 0l-2.02 1.46c-.86.62-2.02-.22-1.69-1.23l.77-2.38c.01-.04-.01-.09-.04-.11l-2.03-1.47c-.86-.63-.42-1.99.64-1.99h2.49c.04 0 .07-.03.09-.07l.77-2.38Zm.98.25c-.01 0-.03.01-.04.05l-.78 2.37c-.15.45-.57.75-1.05.75h-2.5c-.04 0-.05 0-.06.01 -.02 0-.03.02-.04.05 -.01.02-.01.04-.01.06 0 .01.01.02.03.04l2.02 1.46c.38.27.54.77.39 1.22l-.78 2.37c-.02.03-.01.04-.01.06 0 .01.01.03.03.04 .02.01.04.02.05.02 .01 0 .02-.01.05-.03L16.25 20c.38-.28.9-.28 1.28 0l2.02 1.46c.02.01.04.02.05.02 .01-.01.03-.01.05-.03 .02-.02.03-.04.03-.05 0-.02 0-.03-.01-.07l-.78-2.38c-.15-.46.01-.95.39-1.23l2.02-1.47c.02-.02.03-.04.03-.05 0-.02 0-.04-.01-.07 -.01-.03-.03-.05-.04-.06 -.01-.01-.03-.02-.06-.02h-2.5c-.48 0-.9-.31-1.05-.76l-.78-2.38c-.02-.04-.03-.05-.04-.06 -.02-.01-.04-.02-.06-.02 -.03 0-.05 0-.06.01Z"/></g></svg>