<svg viewBox="0 0 24 24" xmlns="http://www.w3.org/2000/svg"><g fill-rule="evenodd"><path d="M6.9 8.33c-.88.97-1.41 2.25-1.41 3.66 0 1.4.52 2.69 1.4 3.66l-.75.66c-1.03-1.15-1.66-2.67-1.66-4.34s.62-3.19 1.65-4.34l.74.66Zm11.59 3.66c0-1.41-.53-2.7-1.41-3.67l.74-.67c1.02 1.14 1.65 2.66 1.65 4.33 0 1.66-.63 3.18-1.66 4.33l-.75-.67c.87-.98 1.4-2.26 1.4-3.67Z"/><path d="M5.21 5.35c-1.69 1.71-2.72 4.06-2.72 6.64s1.03 4.93 2.71 6.65l-.72.7c-1.86-1.9-3.01-4.49-3.01-7.35 0-2.87 1.14-5.46 3-7.36l.71.7Zm16.28 6.64c0-2.59-1.04-4.94-2.72-6.65l.71-.71c1.85 1.89 3 4.48 3 7.35 0 2.86-1.15 5.45-3.01 7.35l-.72-.7c1.68-1.72 2.71-4.07 2.71-6.65Z"/><path d="M13.44 12.58c-.79-.79-2.05-.79-2.83 0l-.71-.71c1.17-1.18 3.07-1.18 4.24 0l-.71.7Z"/><path d="M15.21 10.818c-1.76-1.76-4.61-1.76-6.37 0l-.71-.71c2.14-2.15 5.63-2.15 7.77 0l-.71.7Z"/><path d="M11.53 15v-1h1v1h-1Z"/></g></svg>