<svg viewBox="0 0 24 24" xmlns="http://www.w3.org/2000/svg"><g fill-rule="evenodd"><path d="M19.94 5.58c-.79-.79-2.05-.79-2.83 0l-.71-.71c1.17-1.18 3.07-1.18 4.24 0l-.71.7Z"/><path d="M21.71 3.81c-1.76-1.76-4.61-1.76-6.37 0l-.71-.71c2.14-2.15 5.63-2.15 7.77 0l-.71.7Z"/><path d="M18.03 8V7h1v1h-1Z"/><path d="M1.5 2c0-.28.22-.5.5-.5h10c.27 0 .5.22.5.5v20c0 .27-.23.5-.5.5H2c-.28 0-.5-.23-.5-.5V2Zm1 .5v19h9v-19h-9Z"/><path d="M1.5 2c0-.28.22-.5.5-.5h10c.27 0 .5.22.5.5v3c0 .27-.23.5-.5.5H2c-.28 0-.5-.23-.5-.5V2Zm1 .5v2h9v-2h-9Z"/><path d="M1.5 5c0-.28.22-.5.5-.5h10c.27 0 .5.22.5.5v3c0 .27-.23.5-.5.5H2c-.28 0-.5-.23-.5-.5V5Zm1 .5v2h9v-2h-9Z"/><path d="M1.5 13c0-.28.22-.5.5-.5h10c.27 0 .5.22.5.5v9c0 .27-.23.5-.5.5H2c-.28 0-.5-.23-.5-.5v-9Zm1 .5v8h9v-8h-9Z"/><path d="M6.5 22v-9h1v9h-1Z"/></g></svg>