<svg viewBox="0 0 24 24" xmlns="http://www.w3.org/2000/svg"><g fill-rule="evenodd"><path d="M7.5 20.5V17h1v3.5h-1Z"/><path d="M13.44 11.58c-.79-.79-2.05-.79-2.83 0l-.71-.71c1.17-1.18 3.07-1.18 4.24 0l-.71.7Z"/><path d="M15.21 9.81c-1.76-1.76-4.61-1.76-6.37 0l-.71-.71c2.14-2.15 5.63-2.15 7.77 0l-.71.7Z"/><path d="M11.53 14v-1h1v1h-1Z"/><path d="M1.5 4c0-.28.22-.5.5-.5h20c.27 0 .5.22.5.5v13c0 .27-.23.5-.5.5H2c-.28 0-.5-.23-.5-.5V4Zm1 .5v12h19v-12h-19Z"/><path d="M15.5 20.5V17h1v3.5h-1Z"/><path d="M19 21.5H5v-1h14v1Z"/></g></svg>