<svg viewBox="0 0 24 24" xmlns="http://www.w3.org/2000/svg"><g fill-rule="evenodd"><path d="M19.94 5.58c-.79-.79-2.05-.79-2.83 0l-.71-.71c1.17-1.18 3.07-1.18 4.24 0l-.71.7Z"/><path d="M21.71 3.81c-1.76-1.76-4.61-1.76-6.37 0l-.71-.71c2.14-2.15 5.63-2.15 7.77 0l-.71.7Z"/><path d="M18.03 8V7h1v1h-1Z"/><path d="M2.5 11c0-.28.22-.5.5-.5h18c.27 0 .5.22.5.5v11c0 .27-.23.5-.5.5H3c-.28 0-.5-.23-.5-.5V11Zm1 .5v10h17v-10h-17Z"/><path d="M22 22.5H2v-1h20v1Z"/><path d="M21 15H3v-1h18v1Z"/><path d="M21 19H3v-1h18v1Z"/></g></svg>