<svg viewBox="0 0 24 24" xmlns="http://www.w3.org/2000/svg"><g fill-rule="evenodd"><path d="M3 4c0-1.39 1.11-2.5 2.5-2.5h8C14.88 1.5 16 2.61 16 4v1.5h-1V4c0-.83-.68-1.5-1.5-1.5h-8C4.67 2.5 4 3.17 4 4v16c0 .82.67 1.5 1.5 1.5h7v1h-7C4.11 22.5 3 21.38 3 20V4Z"/><path d="M11 20H8v-1h3v1Z"/><path d="M13.5 12.5c0-1.11.89-2 2-2H19c1.1 0 2 .89 2 2v5c0 1.1-.9 2-2 2h-3.5c-1.11 0-2-.9-2-2v-5Zm2-1c-.56 0-1 .44-1 1v5c0 .55.44 1 1 1H19c.55 0 1-.45 1-1v-5c0-.56-.45-1-1-1h-3.5Z"/><path d="M15 7.91c.04-.25.24-.42.49-.42h3.5c.24 0 .45.17.49.41l.5 3c.02.14-.02.29-.12.4 -.1.11-.24.17-.39.17h-4.5c-.15 0-.29-.07-.39-.18 -.1-.12-.14-.27-.12-.41l.5-3Zm.91.58l-.34 2h3.31l-.34-2h-2.66Z"/><path d="M15 22.08c.04.24.24.41.49.41h3.5c.24 0 .45-.18.49-.42l.5-3c.02-.15-.02-.3-.12-.41 -.1-.12-.24-.18-.39-.18h-4.5c-.15 0-.29.06-.39.17 -.1.11-.14.26-.12.4l.5 3Zm.91-.59l-.34-2h3.31l-.34 2h-2.66Z"/></g></svg>