<svg viewBox="0 0 24 24" xmlns="http://www.w3.org/2000/svg"><g fill-rule="evenodd"><path d="M1.5 8c0-.28.22-.5.5-.5h13.26c.27 0 .5.22.5.5v1.94c0 .82-.68 1.5-1.5 1.5H2.99c-.83 0-1.5-.68-1.5-1.51V7.98Zm1 .5v1.44c0 .27.22.5.5.5h11.26c.27 0 .5-.23.5-.51V8.48H2.49Z"/><path d="M5.92 17.36c0-1.39 1.11-2.5 2.5-2.5h.42c1.38 0 2.5 1.11 2.5 2.5v4.26h-1v-4.27c0-.83-.68-1.5-1.51-1.5H8.4c-.83 0-1.5.67-1.5 1.5v4.26h-1v-4.27Z"/><path d="M4.06 11.28c-.98 1.08-1.57 2.51-1.57 4.08 0 3.38 2.74 6.13 6.13 6.13 3.38 0 6.13-2.75 6.13-6.14 0-1.58-.59-3.01-1.57-4.09l.74-.67c1.12 1.26 1.81 2.92 1.81 4.75 0 3.93-3.2 7.13-7.14 7.13 -3.94 0-7.14-3.2-7.14-7.14 0-1.83.68-3.5 1.81-4.76l.74.66Z"/><path d="M19.94 5.58c-.79-.79-2.05-.79-2.83 0l-.71-.71c1.17-1.18 3.07-1.18 4.24 0l-.71.7Z"/><path d="M21.71 3.81c-1.76-1.76-4.61-1.76-6.37 0l-.71-.71c2.14-2.15 5.63-2.15 7.77 0l-.71.7Z"/><path d="M18.03 8V7h1v1h-1Z"/></g></svg>