<svg viewBox="0 0 24 24" xmlns="http://www.w3.org/2000/svg"><g fill-rule="evenodd"><path d="M13.44 13.08c-.79-.79-2.05-.79-2.83 0l-.71-.71c1.17-1.18 3.07-1.18 4.24 0l-.71.7Z"/><path d="M15.21 11.318c-1.76-1.76-4.61-1.76-6.37 0l-.71-.71c2.14-2.15 5.63-2.15 7.77 0l-.71.7Z"/><path d="M11.53 15.5v-1h1v1h-1Z"/><path d="M10.99 2.23c.57-.52 1.43-.52 2 0l9.33 8.39c.15.13.2.35.13.55 -.08.19-.26.32-.47.32h-2.14v9.5c0 .82-.68 1.5-1.5 1.5H5.6c-.83 0-1.5-.68-1.5-1.5v-9.5H1.96c-.21 0-.4-.13-.47-.33 -.08-.2-.03-.42.13-.56l9.33-8.4Zm1.33.74c-.2-.18-.48-.18-.67 0l-8.37 7.52H4.6c.27 0 .5.22.5.5v10c0 .27.22.5.5.5h12.73c.27 0 .5-.23.5-.5v-10c0-.28.22-.5.5-.5h1.32l-8.37-7.53Z"/></g></svg>