<svg viewBox="0 0 24 24" xmlns="http://www.w3.org/2000/svg"><g fill-rule="evenodd"><path d="M4.5 21.5v-12h-1V22c0 .27.22.5.5.5h16c.27 0 .5-.23.5-.5V9.5h-1v12h-15Z"/><path d="M2 21.5h20v1H2v-1Z"/><path d="M11.07 1.75c.57-.35 1.28-.35 1.85 0l8.69 5.21c.85.51 1.13 1.62.61 2.47 -.52.85-1.63 1.13-2.48.61l-7.77-4.67 -7.77 4.66c-.86.51-1.97.23-2.48-.62 -.52-.86-.24-1.97.61-2.48l.24.41 -.25-.42 8.69-5.22Zm1.34.85c-.26-.16-.58-.16-.83 0l-8.7 5.21c-.39.22-.51.72-.28 1.1 .22.38.72.5 1.1.27l8.02-4.82c.15-.1.35-.1.51 0l8.02 4.81c.38.22.875.1 1.1-.28 .22-.39.1-.88-.28-1.11l-8.7-5.22Z"/><path d="M13.44 14.58c-.79-.79-2.05-.79-2.83 0l-.71-.71c1.17-1.18 3.07-1.18 4.24 0l-.71.7Z"/><path d="M15.21 12.818c-1.76-1.76-4.61-1.76-6.37 0l-.71-.71c2.14-2.15 5.63-2.15 7.77 0l-.71.7Z"/><path d="M11.53 17v-1h1v1h-1Z"/></g></svg>