<svg viewBox="0 0 24 24" xmlns="http://www.w3.org/2000/svg"><g fill-rule="evenodd"><path d="M12.86 2.71c-.52-.37-1.21-.37-1.73 0l-8 5.59c-.41.28-.64.73-.64 1.22v9.95c0 .82.67 1.5 1.5 1.5h16c.82 0 1.5-.68 1.5-1.5V9.51c0-.49-.24-.95-.64-1.23l-8-5.6Zm-2.3-.82c.86-.61 2-.61 2.86 0l8 5.59c.66.46 1.06 1.23 1.06 2.04v9.95c0 1.38-1.12 2.5-2.5 2.5h-16c-1.39 0-2.5-1.12-2.5-2.5V9.51c0-.82.39-1.59 1.06-2.05l7.99-5.6Z"/><path d="M13.44 13.08c-.79-.79-2.05-.79-2.83 0l-.71-.71c1.17-1.18 3.07-1.18 4.24 0l-.71.7Z"/><path d="M15.21 11.318c-1.76-1.76-4.61-1.76-6.37 0l-.71-.71c2.14-2.15 5.63-2.15 7.77 0l-.71.7Z"/><path d="M11.53 15.5v-1h1v1h-1Z"/></g></svg>