<svg viewBox="0 0 24 24" xmlns="http://www.w3.org/2000/svg"><g fill-rule="evenodd"><path d="M5.5 7v10c0 .82.67 1.5 1.5 1.5h3v1H7c-1.39 0-2.5-1.12-2.5-2.5V7h1Zm13 3V7h1v3h-1Z"/><path d="M11.71 1.59c.17-.13.4-.13.57 0l10 7 -.58.81 -9.72-6.8 -9.72 6.79 -.58-.82 10-7Z"/><path d="M17 12.5c-2.49 0-4.5 2.01-4.5 4.5 0 2.48 2.01 4.5 4.5 4.5 2.48 0 4.5-2.02 4.5-4.5 0-2.49-2.02-4.5-4.5-4.5ZM11.5 17c0-3.04 2.46-5.5 5.5-5.5 3.03 0 5.5 2.46 5.5 5.5 0 3.03-2.47 5.5-5.5 5.5 -3.04 0-5.5-2.47-5.5-5.5Z"/><path d="M19.4 15.29l-2.5 3.5c-.08.1-.2.18-.34.2 -.14.02-.27-.02-.38-.1l-2-1.5 .6-.8 1.59 1.19 2.2-3.09 .81.58Z"/></g></svg>