<svg viewBox="0 0 24 24" xmlns="http://www.w3.org/2000/svg"><g fill-rule="evenodd"><path d="M5.5 7v10c0 .82.67 1.5 1.5 1.5h2.5v1H7c-1.39 0-2.5-1.12-2.5-2.5V7h1Zm13 3.5V7h1v3.5h-1Z"/><path d="M11.71 1.59c.17-.13.4-.13.57 0l10 7 -.58.81 -9.72-6.8 -9.72 6.79 -.58-.82 10-7Z"/><path d="M11.5 18.29c0 .27.22.5.5.5h2.55c.27 0 .5-.23.5-.5v-5.3c0-.28-.23-.5-.5-.5h-2.56c-.28 0-.5.22-.5.5v5.29Zm1-.5v-4.3h1.55v4.29h-1.56Z"/><path d="M18.6 21.18c-.28.2-.67.08-.78-.25l-.38-1.14c-.07-.2-.18-.38-.31-.53l-1.19-1.32c-.1-.11-.23-.17-.38-.17h-.53v-4.3h3.8c.65 0 1.23.42 1.43 1.04l.82 2.596c.1.32-.14.65-.48.65h-1.46c-.16 0-.3.06-.39.18 -.1.11-.14.27-.1.42l.44 2.01c.04.19-.04.39-.19.5l-.35.25Zm-1.73.07c.32.96 1.5 1.33 2.32.72l.34-.26c.47-.36.69-.96.56-1.53l-.32-1.41h.83c1.01 0 1.73-.99 1.43-1.96l-.83-2.596c-.33-1.04-1.3-1.75-2.39-1.75H14.5c-.28 0-.5.22-.5.5v5.29c0 .27.22.5.5.5h.8l1.03 1.15c.04.05.08.11.1.17l.37 1.13Z"/></g></svg>