<svg viewBox="0 0 24 24" xmlns="http://www.w3.org/2000/svg"><g fill-rule="evenodd"><path d="M12 3.5c-4.7 0-8.5 3.8-8.5 8.5 0 4.69 3.8 8.5 8.5 8.5 4.69 0 8.5-3.81 8.5-8.5 0-4.7-3.81-8.5-8.5-8.5ZM2.5 12c0-5.25 4.25-9.5 9.5-9.5 5.24 0 9.5 4.25 9.5 9.5 0 5.24-4.26 9.5-9.5 9.5 -5.25 0-9.5-4.26-9.5-9.5Z"/><path d="M12 7.5c-1.39 0-2.5 1.11-2.5 2.5 0 1.38 1.11 2.5 2.5 2.5 1.38 0 2.5-1.12 2.5-2.5 0-1.39-1.12-2.5-2.5-2.5ZM8.5 10c0-1.94 1.56-3.5 3.5-3.5 1.93 0 3.5 1.56 3.5 3.5 0 1.93-1.57 3.5-3.5 3.5 -1.94 0-3.5-1.57-3.5-3.5Z"/><path d="M12 16c-2.41 0-4.51 1.3-5.64 3.25l-.87-.51c1.29-2.25 3.71-3.75 6.49-3.75 2.77 0 5.2 1.5 6.49 3.74l-.87.5c-1.13-1.95-3.23-3.26-5.64-3.26Z"/></g></svg>