<svg viewBox="0 0 24 24" xmlns="http://www.w3.org/2000/svg"><g fill-rule="evenodd"><path d="M6.72 1.58c.22-.16.54-.1.69.13l1.7 2.55c.09.13.24.22.41.22h4.92c.16 0 .32-.09.41-.23l1.7-2.56c.15-.23.46-.3.69-.14 .22.15.29.46.13.69l-1.71 2.55c-.28.41-.75.66-1.25.66H9.48c-.51 0-.97-.26-1.25-.67L6.52 2.22c-.16-.23-.1-.55.13-.7Z"/><path d="M4.5 4c0-1.39 1.11-2.5 2.5-2.5h10c1.38 0 2.5 1.11 2.5 2.5v16c0 1.38-1.12 2.5-2.5 2.5H7c-1.39 0-2.5-1.12-2.5-2.5V4ZM7 2.5c-.83 0-1.5.67-1.5 1.5v16c0 .82.67 1.5 1.5 1.5h10c.82 0 1.5-.68 1.5-1.5V4c0-.83-.68-1.5-1.5-1.5H7Z"/><path d="M9.5 9.5C9.5 8.11 10.61 7 12 7c1.38 0 2.5 1.11 2.5 2.5v2c0 1.38-1.12 2.5-2.5 2.5 -1.39 0-2.5-1.12-2.5-2.5v-2ZM12 8c-.83 0-1.5.67-1.5 1.5v2c0 .82.67 1.5 1.5 1.5 .82 0 1.5-.68 1.5-1.5v-2c0-.83-.68-1.5-1.5-1.5Z"/><path d="M7.83 11.83c0 2.3 1.86 4.16 4.16 4.16s4.16-1.87 4.16-4.17h1c0 2.85-2.32 5.16-5.17 5.16 -2.86 0-5.17-2.32-5.17-5.17h1Z"/><path d="M12 16c.27 0 .5.22.5.5v3c0 .27-.23.5-.5.5 -.28 0-.5-.23-.5-.5v-3c0-.28.22-.5.5-.5Z"/><path d="M10 19.5c0-.28.22-.5.5-.5h3c.27 0 .5.22.5.5 0 .27-.23.5-.5.5h-3c-.28 0-.5-.23-.5-.5Z"/></g></svg>