<svg viewBox="0 0 24 24" xmlns="http://www.w3.org/2000/svg"><path fill="#CFD8DC" fill-rule="evenodd" d="M8.46 9.46c-.3.29-.3.76 0 1.06l3 3c.29.29.76.29 1.06 0 .29-.3.29-.77 0-1.07l-3-3.01c-.3-.3-.77-.3-1.07 0Z"/><path fill="#EE4D4D" d="M20 6.25c.28 0 .54.16.67.41l2 4c.05.1.07.21.07.33v8c0 .41-.34.75-.75.75h-10c-.42 0-.75-.34-.75-.75v-12c0-.42.33-.75.75-.75h8Z"/><g fill="#CFD8DC"><path d="M12 16.25c1.51 0 2.75 1.23 2.75 2.75 0 1.51-1.24 2.75-2.75 2.75 -1.52 0-2.75-1.24-2.75-2.75 0-1.52 1.23-2.75 2.75-2.75Z"/><path d="M20 16.25c1.51 0 2.75 1.23 2.75 2.75 0 1.51-1.24 2.75-2.75 2.75 -1.52 0-2.75-1.24-2.75-2.75 0-1.52 1.23-2.75 2.75-2.75Z"/></g><path fill="#ECEFF1" fill-rule="evenodd" d="M22.75 13.25h-11.5v1.5h11.5v-1.5Z"/><path fill="#F17171" d="M8.46 1.46c.29-.3.76-.3 1.06 0l3.99 4c.29.29.29.76 0 1.06l-7 6.99c-.3.29-.77.29-1.07 0l-4-4c-.3-.3-.3-.77 0-1.07l7-7Z"/></svg>