<svg viewBox="0 0 24 24" xmlns="http://www.w3.org/2000/svg"><g fill="#A2ADB8" fill-rule="evenodd"><path d="M15.38 1.35c.35.21.47.67.25 1.02l-1.5 2.5c-.22.35-.68.47-1.029.25 -.36-.22-.48-.68-.26-1.03l1.5-2.5c.21-.36.67-.48 1.029-.26Z"/><path d="M8.61 1.35c.35-.22.81-.1 1.02.25l1.49 2.5c.21.35.09.81-.26 1.02 -.36.21-.82.09-1.03-.26l-1.5-2.5c-.22-.36-.1-.82.25-1.03Z"/></g><path fill="#FFD071" d="M12 3.25c-1.52 0-2.75 1.23-2.75 2.75 0 1.51 1.23 2.75 2.75 2.75 1.51 0 2.75-1.24 2.75-2.75 0-1.52-1.24-2.75-2.75-2.75Z"/><path fill="#FFC44D" d="M12 7.25c-2.08 0-3.8 1.44-4.78 3.41 -.05.09-.08.19-.08.3l-.32 7.27c-.01.1.01.2.04.29 .9 2.37 2.77 4.2 5.12 4.2 2.34 0 4.22-1.84 5.12-4.21 .03-.1.05-.2.04-.3l-.32-7.28c-.01-.11-.04-.21-.08-.31 -.99-1.97-2.7-3.42-4.78-3.42Z"/><g fill="#ECEFF1"><path d="M11.65 9.68c-.92-.92-2.4-.92-3.31 0l-5.47 5.46c-1.08 1.07-1.08 2.81-.001 3.88l.77.77c1.26 1.26 3.38 1 4.3-.53l4.04-6.75c.55-.93.4-2.1-.36-2.86Z"/><path d="M12.347 9.59c.91-.92 2.39-.92 3.3 0l5.46 5.46c1.07 1.07 1.07 2.81 0 3.88l-.78.77c-1.27 1.26-3.39 1-4.31-.53l-4.05-6.75c-.56-.93-.41-2.1.35-2.86Z"/></g></svg>