<svg viewBox="0 0 24 24" xmlns="http://www.w3.org/2000/svg"><g fill="#8BC94D"><path d="M6.5 1.25c-1.25 0-2.25 1-2.25 2.24 -.78-.26-1.68-.01-2.21.69 -.6.79-.52 1.89.18 2.59l1.74 1.74c.14.14.33.21.53.21h4c.19 0 .38-.08.53-.22l1.74-1.75c.69-.7.77-1.81.18-2.6 -.53-.71-1.43-.96-2.21-.7C8.72 2.21 7.72 1.2 6.48 1.2Z"/><path d="M17.5 1.25c-1.25 0-2.25 1-2.25 2.24 -.78-.26-1.68-.01-2.21.69 -.6.79-.52 1.89.18 2.59l1.74 1.74c.14.14.33.21.53.21h4c.19 0 .38-.08.53-.22l1.74-1.75c.69-.7.77-1.81.18-2.6 -.53-.71-1.43-.96-2.21-.7 -.01-1.24-1.01-2.25-2.25-2.25Z"/></g><g fill="#FF884D"><path d="M4.8 7.25c-1.68 0-2.96 1.48-2.73 3.13l1.67 11.71c.05.36.36.64.74.64h4c.37 0 .68-.28.74-.65l1.67-11.72c.23-1.66-1.05-3.14-2.73-3.14H4.77Z"/><path d="M15.8 7.25c-1.68 0-2.96 1.48-2.73 3.13l1.67 11.71c.05.36.36.64.74.64h4c.37 0 .68-.28.74-.65l1.67-11.72c.23-1.66-1.05-3.14-2.73-3.14h-3.39Z"/></g><path fill="#CFD8DC" fill-rule="evenodd" d="M1.25 22c0-.42.33-.75.75-.75h20c.41 0 .75.33.75.75 0 .41-.34.75-.75.75H2c-.42 0-.75-.34-.75-.75Z"/></svg>