<svg viewBox="0 0 24 24" xmlns="http://www.w3.org/2000/svg"><g fill="#CFD8DC"><path d="M8.46 6.46c.29-.3.76-.3 1.06 0l13 13c.14.14.21.33.21.53 0 .19-.08.38-.22.53l-2 2c-.3.29-.77.29-1.07 0l-13-13c-.15-.15-.22-.34-.22-.54s.07-.39.21-.54l2-2Z"/><path d="M3.96 1.96c.14-.15.33-.22.53-.22 .19 0 .38.07.53.21l1.99 2c.29.29.29.76-.01 1.06l-2 2c-.15.14-.34.21-.54.21 -.2-.01-.39-.08-.54-.22l-2-2c-.3-.3-.3-.77 0-1.07l2-2Z"/></g><path fill="#8B98A6" d="M6.96 2.96c.29-.3.76-.3 1.06 0l2.49 2.5c.29.29.29.76 0 1.06l-4.3 4.29c-.09.08-.16.18-.22.29l-3.37 6.24c-.17.3-.52.45-.85.37 -.34-.09-.57-.39-.57-.73V9.8c0-.73.28-1.43.8-1.95l4.91-4.92Z"/></svg>