<svg viewBox="0 0 24 24" xmlns="http://www.w3.org/2000/svg"><path fill="#FFC44D" d="M9.33 2.82c-.22-.11-.46-.11-.68 0l-3 1.5c-.26.12-.42.38-.42.67v3.03L2.64 9.31c-.26.12-.42.38-.42.67v3.5c0 .28.16.54.41.67l2.58 1.29v3.03c0 .28.16.54.41.67l3 1.5c.21.1.45.1.67 0l2.66-1.34 2.66 1.33c.21.1.45.1.67 0l3-1.5c.25-.13.41-.39.41-.68v-3.04l2.58-1.3c.25-.13.41-.39.41-.68v-3.5c0-.29-.17-.55-.42-.68l-2.59-1.3V4.91c0-.29-.17-.55-.42-.68l-3-1.5c-.22-.11-.46-.11-.68 0L11.9 4.06 9.23 2.72Z"/><g fill="#FF884D" fill-rule="evenodd"><path d="M8.66 2.82c.21-.11.45-.11.67 0l2.99 1.5c.25.12.41.38.41.67v3.5c0 .28-.17.54-.42.67l-3 1.49c-.22.1-.46.1-.68 0l-3-1.5c-.26-.13-.42-.39-.42-.68v-3.5c0-.29.16-.55.41-.68l3-1.5ZM6.74 5.45v2.57l2.25 1.125 2.25-1.125V5.44L8.99 4.31 6.74 5.44Z"/><path d="M8.66 12.82c.21-.11.45-.11.67 0l2.99 1.5c.25.12.41.38.41.67v3.5c0 .28-.17.54-.42.67l-3 1.5c-.22.1-.46.1-.68 0l-3-1.5c-.26-.13-.42-.39-.42-.68v-3.5c0-.29.16-.55.41-.68l3-1.5Zm-1.92 2.63v2.57l2.25 1.125 2.25-1.125v-2.58l-2.25-1.125 -2.25 1.125Z"/><path d="M11.66 7.82c.21-.11.45-.11.67 0l3 1.5c.25.12.41.38.41.67v3.5c0 .28-.17.54-.42.67l-3 1.5c-.22.1-.46.1-.68 0l-3.01-1.5c-.26-.13-.42-.39-.42-.68v-3.5c0-.29.16-.55.41-.68l3-1.5Zm-1.92 2.63v2.57l2.25 1.125 2.25-1.125v-2.58l-2.25-1.13 -2.25 1.12Z"/><path d="M5.66 7.82c.21-.11.45-.11.67 0l3 1.5c.25.12.41.38.41.67v3.5c0 .28-.17.54-.42.67l-3 1.5c-.22.1-.46.1-.68 0l-3-1.5c-.26-.13-.42-.39-.42-.68v-3.5c0-.29.16-.55.41-.68l3-1.5Zm-1.92 2.63v2.57l2.25 1.125 2.25-1.125v-2.58L5.99 9.31l-2.25 1.12Z"/><path d="M17.66 7.82c.21-.11.45-.11.67 0l3 1.5c.25.12.41.38.41.67v3.5c0 .28-.17.54-.42.67l-3 1.5c-.22.1-.46.1-.68 0l-3-1.5c-.26-.13-.42-.39-.42-.68v-3.5c0-.29.16-.55.41-.68l3-1.5Zm-1.92 2.63v2.57l2.25 1.125 2.25-1.125v-2.58l-2.25-1.13 -2.25 1.12Z"/><path d="M14.66 2.82c.21-.11.45-.11.67 0l3 1.5c.25.12.41.38.41.67v3.5c0 .28-.17.54-.42.67l-3 1.49c-.22.1-.46.1-.68 0l-3-1.5c-.26-.13-.42-.39-.42-.68v-3.5c0-.29.16-.55.41-.68l3-1.5Zm-1.92 2.63v2.57l2.25 1.125 2.25-1.125V5.44L14.99 4.31 12.74 5.44Z"/><path d="M14.66 12.82c.21-.11.45-.11.67 0l3 1.5c.25.12.41.38.41.67v3.5c0 .28-.17.54-.42.67l-3 1.5c-.22.1-.46.1-.68 0l-3-1.5c-.26-.13-.42-.39-.42-.68v-3.5c0-.29.16-.55.41-.68l3-1.5Zm-1.92 2.63v2.57l2.25 1.125 2.25-1.125v-2.58l-2.25-1.125 -2.25 1.125Z"/></g></svg>