<svg viewBox="0 0 24 24" xmlns="http://www.w3.org/2000/svg"><path fill="#EE4D4D" d="M11 2.25C8.92 2.25 7.25 3.92 7.25 6v16c0 .41.33.75.75.75h8c.41 0 .75-.34.75-.75V6c0-2.08-1.68-3.75-3.75-3.75h-2Z"/><g fill="#CFD8DC" fill-rule="evenodd"><path d="M18.53 1.46c.29.29.29.76 0 1.06l-5 5c-.3.29-.77.29-1.07 0 -.3-.3-.3-.77 0-1.07l5-5c.29-.3.76-.3 1.06 0Z"/><path d="M5.46 1.46c-.3.29-.3.76 0 1.06l5 5c.29.29.76.29 1.06 0 .29-.3.29-.77 0-1.07l-5-5c-.3-.3-.77-.3-1.07 0Z"/><path d="M18.53 14.53c.29-.3.29-.77 0-1.07l-5-5.01c-.3-.3-.77-.3-1.07 0 -.3.29-.3.76 0 1.06l5 4.99c.29.29.76.29 1.06 0Z"/><path d="M5.46 14.53c-.3-.3-.3-.77 0-1.07l5-5.01c.29-.3.76-.3 1.06 0 .29.29.29.76 0 1.06l-5 4.99c-.3.29-.77.29-1.07 0Z"/></g><path fill="#ECEFF1" d="M12 5.75c-1.25 0-2.25 1-2.25 2.25 0 1.24 1 2.25 2.25 2.25 1.24 0 2.25-1.01 2.25-2.25 0-1.25-1.01-2.25-2.25-2.25Z"/><g fill="#CFD8DC" fill-rule="evenodd"><path d="M3.25 22c0-.42.33-.75.75-.75h16c.41 0 .75.33.75.75 0 .41-.34.75-.75.75H4c-.42 0-.75-.34-.75-.75Z"/><g fill="#ECEFF1"><path d="M12.25 19c0-.42.33-.75.75-.75h3.75v1.5H13c-.42 0-.75-.34-.75-.75Z"/><path d="M10.25 16c0-.42.33-.75.75-.75h5.75v1.5H11c-.42 0-.75-.34-.75-.75Z"/></g></g></svg>