<svg viewBox="0 0 24 24" xmlns="http://www.w3.org/2000/svg"><g fill="#A2ADB8" fill-rule="evenodd"><path d="M15.84 16.62c.2-.36.66-.49 1.02-.28l3.5 2c.23.13.37.38.37.65v3c0 .41-.34.75-.75.75 -.42 0-.75-.34-.75-.75v-2.57l-3.13-1.79c-.36-.21-.49-.67-.28-1.03Z"/><path d="M8.15 16.62c-.21-.36-.67-.49-1.03-.28l-3.5 2c-.24.13-.38.38-.38.65v3c0 .41.33.75.75.75 .41 0 .75-.34.75-.75v-2.57l3.12-1.79c.35-.21.48-.67.27-1.03Z"/></g><g fill="#A2ADB8"><path d="M9 9.75c-.42 0-.75-.34-.75-.75V7c0-2.08 1.67-3.75 3.75-3.75 2.07 0 3.75 1.67 3.75 3.75v2c0 .41-.34.75-.75.75H9Z"/><g fill="#A2ADB8" fill-rule="evenodd"><path d="M20 1.25c.41 0 .75.33.75.75v5c0 .24-.12.46-.32.61l-3.5 2.5c-.34.24-.81.16-1.05-.18 -.25-.34-.17-.81.17-1.05l3.186-2.28V1.98c0-.42.33-.75.75-.75Z"/><path d="M3.99 1.25c-.42 0-.75.33-.75.75v5c0 .24.11.46.31.61l3.5 2.5c.33.24.8.16 1.04-.18 .24-.34.16-.81-.18-1.05L4.72 6.6V1.98c0-.42-.34-.75-.75-.75Z"/><path d="M16.3 11.72c.15-.39.59-.58.97-.42l5 2c.28.11.47.38.47.69v3.5c0 .41-.34.75-.75.75 -.42 0-.75-.34-.75-.75v-3l-4.53-1.82c-.39-.16-.58-.6-.42-.98Z"/><path d="M7.69 11.72c-.16-.39-.6-.58-.98-.42l-5 2c-.29.11-.48.38-.48.69v3.5c0 .41.33.75.75.75 .41 0 .75-.34.75-.75v-3l4.52-1.82c.38-.16.57-.6.41-.98Z"/></g></g><path fill="#CFD8DC" d="M9 8.25c-1.52 0-2.75 1.23-2.75 2.75v4c0 3.17 2.57 5.75 5.75 5.75 3.17 0 5.75-2.58 5.75-5.75v-4c0-1.52-1.24-2.75-2.75-2.75H9Z"/></svg>