<svg viewBox="0 0 24 24" xmlns="http://www.w3.org/2000/svg"><path fill="#5E94FF" d="M22 1.25c.41 0 .75.33.75.75v3c0 .41-.34.75-.75.75h-7c-.7 0-1.25.55-1.25 1.25v2c0 .41-.34.75-.75.75h-3c-.42 0-.75-.34-.75-.75V4c0-1.52 1.23-2.75 2.75-2.75h10Z"/><path fill="#A2ADB8" d="M19 18.25c.32 0 .6.2.71.51l1 3c.07.22.03.48-.11.67 -.15.19-.37.31-.61.31h-16c-.25 0-.47-.12-.61-.32 -.15-.2-.18-.45-.11-.68l1-3c.1-.31.38-.52.71-.52h14Z"/><path fill="#CFD8DC" d="M17 8.25c.41 0 .75.33.75.75v2.89l1.97 6.89c.06.22.01.46-.13.65 -.15.18-.37.29-.6.29h-14c-.31 0-.58-.18-.69-.46l-3-7c-.05-.1-.07-.2-.07-.3v-3c0-.42.33-.75.75-.75h15Z"/></svg>