<svg viewBox="0 0 24 24" xmlns="http://www.w3.org/2000/svg"><g fill="#FFA071"><path d="M5.75 9.25c-1.33 0-2.47.71-3.26 1.76 -.79 1.04-1.25 2.45-1.25 3.98 0 1.52.46 2.93 1.24 3.98 .78 1.04 1.92 1.76 3.25 1.76 .55 0 1.08-.13 1.56-.36 .26-.13.43-.39.43-.68V10.25c0-.3-.17-.56-.44-.68 -.49-.23-1.02-.36-1.57-.36Z"/><path d="M12.25 9.25c1.32 0 2.46.71 3.25 1.76 .78 1.04 1.24 2.45 1.24 3.98 0 1.52-.47 2.93-1.25 3.98 -.79 1.04-1.93 1.76-3.26 1.76 -.56 0-1.09-.13-1.57-.36 -.27-.13-.44-.39-.44-.68V10.25c0-.3.16-.56.43-.68 .48-.23 1.01-.36 1.56-.36Z"/></g><path fill="#8BC94D" fill-rule="evenodd" d="M11 7.75c-.7 0-1.25.55-1.25 1.25v1c0 .41-.34.75-.75.75 -.42 0-.75-.34-.75-.75V9c0-1.52 1.23-2.75 2.75-2.75h9c1.51 0 2.75 1.23 2.75 2.75v.5c0 1.24-1.01 2.25-2.25 2.25 -.42 0-.75.33-.75.75 0 .41.33.75.75.75 1.24 0 2.25 1 2.25 2.25v.67c0 .72-.29 1.42-.81 1.94l-2.42 2.41c-.3.29-.77.29-1.07 0 -.3-.3-.3-.77 0-1.07l2.41-2.42c.23-.24.36-.56.36-.89v-.68c0-.42-.34-.75-.75-.75 -1.25 0-2.25-1.01-2.25-2.25 0-1.25 1-2.25 2.25-2.25 .41 0 .75-.34.75-.75v-.5c0-.7-.56-1.25-1.25-1.25h-9Z"/><path fill="#8BC94D" d="M5 3.25c-.42 0-.75.33-.75.75v1c0 1.51 1.23 2.75 2.75 2.75h3c.41 0 .75-.34.75-.75V6c0-1.52-1.24-2.75-2.75-2.75H5Z"/><path fill="#FF884D" d="M9 9.25c-2.78 0-4.75 2.73-4.75 5.75 0 3.01 1.97 5.75 4.75 5.75 2.77 0 4.75-2.74 4.75-5.75 0-3.02-1.98-5.75-4.75-5.75Z"/><path fill="#CFD8DC" fill-rule="evenodd" d="M1.25 20c0-.42.33-.75.75-.75h20c.41 0 .75.33.75.75 0 .41-.34.75-.75.75H2c-.42 0-.75-.34-.75-.75Z"/></svg>