<svg viewBox="0 0 24 24" xmlns="http://www.w3.org/2000/svg"><path fill="#ECEFF1" d="M1.88 2.31c.48-.74 1.44-.99 2.23-.6l7.18 3.59c2.75 1.37 4.99 3.61 6.37 6.37l3.35 6.71c.52 1.04.31 2.3-.51 3.13 -.83.82-2.09 1.03-3.14.5l-7.04-3.52c-2.55-1.28-4.66-3.28-6.05-5.76l-2.48-4.4c-.1-.17-.13-.37-.08-.55l.44-1.77 -.72-1.79c-.22-.54-.16-1.15.16-1.63l.21-.33Z"/><path fill="#CFD8DC" fill-rule="evenodd" d="M4.84 5.63c-.21.36-.08.81.28 1.02l6.13 3.44c1.08.61 1.96 1.53 2.52 2.64l2.79 5.58c.18.37.63.52 1 .33s.52-.64.33-1.01l-2.8-5.59c-.7-1.39-1.79-2.53-3.13-3.29L5.82 5.3c-.37-.21-.82-.08-1.03.28Z"/></svg>