<svg viewBox="0 0 24 24" xmlns="http://www.w3.org/2000/svg"><path fill="#ECEFF1" d="M4 1.25c-.25 0-.47.11-.61.31 -.15.19-.18.44-.11.67l.96 2.88v13.75l-.97 2.88c-.08.22-.04.48.1.67 .14.19.36.31.6.31h16c.23 0 .46-.12.6-.31 .14-.2.18-.44.11-.67l-.97-3.12V5.07l.96-2.89c.07-.23.03-.49-.11-.68 -.15-.2-.37-.32-.61-.32h-16Z"/><g fill="#FFC44D"><path d="M8.55 7.89c0-.01 0-.01.67.33l-.68-.34c.07-.15.19-.27.33-.34l.33.67c-.34-.68-.34-.68-.34-.68l0-.01 0-.01 0-.01 0-.01 .02-.02c.01-.01.04-.02.06-.04 .05-.03.13-.06.23-.09 .18-.07.45-.14.77-.17 .63-.06 1.5.05 2.23.79 .73.73.84 1.59.79 2.23 -.03.31-.1.58-.17.77 -.04.09-.07.17-.09.23 -.02.02-.03.05-.04.06l-.02.02 -.01 0 -.01 0 -.01 0c-.01 0-.01 0-.67-.34l.66.33c-.08.14-.2.26-.34.33l-.34-.67c.33.66.33.66.33.66l-.01 0 -.01 0 -.01 0 -.01 0 -.03.01c-.02 0-.05.01-.07.03 -.06.02-.14.05-.24.08 -.19.06-.46.13-.78.16 -.64.05-1.51-.06-2.24-.8 -.74-.74-.85-1.6-.8-2.24 .02-.32.09-.59.16-.78 .03-.1.06-.18.08-.24 .01-.03.02-.06.03-.07l.01-.03 0-.01 0-.01 0-.01Z"/><path d="M15.73 12.89c-.01-.01-.01-.01-.68.33l.67-.34c-.08-.15-.2-.27-.34-.34l-.34.67c.33-.68.33-.68.33-.68l-.01-.01 -.01-.01 -.01-.01 -.01-.01 -.03-.02c-.02-.01-.05-.02-.07-.04 -.06-.03-.14-.06-.24-.09 -.19-.07-.46-.14-.78-.17 -.64-.06-1.51.05-2.24.79 -.74.73-.85 1.59-.8 2.23 .02.31.09.58.16.77 .03.09.06.17.08.23 .01.02.02.05.03.06l.01.02 0 0 0 0 0 0s0 0 .67-.34l-.68.33c.07.14.19.26.33.33l.33-.67c-.34.66-.34.66-.34.66l0 0 0 0 0 0 0 0 .02.01c.01 0 .04.01.06.03 .05.02.13.05.23.08 .18.06.45.13.77.16 .63.05 1.5-.06 2.23-.8s.84-1.6.79-2.24c-.03-.32-.1-.59-.17-.78 -.04-.1-.07-.18-.09-.24 -.02-.03-.03-.06-.04-.07l-.02-.03 -.01-.01 -.01-.01 -.01-.01Z"/></g></svg>