<svg viewBox="0 0 24 24" xmlns="http://www.w3.org/2000/svg"><g fill="#A2ADB8"><path d="M19 10.25c1.51 0 2.75 1.23 2.75 2.75v1c0 .41-.34.75-.75.75h-3c-1.52 0-2.75-1.24-2.75-2.75v-1c0-.42.33-.75.75-.75h3Z"/><path d="M5 10.25c-1.52 0-2.75 1.23-2.75 2.75v1c0 .41.33.75.75.75h3c1.51 0 2.75-1.24 2.75-2.75v-1c0-.42-.34-.75-.75-.75H5Z"/></g><path fill="#CFD8DC" d="M8 9.25c-.42 0-.75.33-.75.75v9c0 2.07 1.67 3.75 3.75 3.75h2c2.07 0 3.75-1.68 3.75-3.75v-9c0-.42-.34-.75-.75-.75H8Z"/><path fill="#ECEFF1" d="M12 1.25c-1.82 0-3.39 1.01-4.19 2.5 -1.99.09-3.57 1.73-3.57 3.74 0 2.07 1.67 3.75 3.75 3.75 .22 0 .44-.02.65-.06 .61 1.22 1.88 2.05 3.34 2.05s2.72-.84 3.34-2.06c.21.03.43.05.65.05 2.07 0 3.75-1.68 3.75-3.75 0-2.01-1.58-3.65-3.57-3.75 -.81-1.5-2.38-2.51-4.19-2.51Z"/><path fill="#A2ADB8" fill-rule="evenodd" d="M12 16.75c.41 0 .75.33.75.75v2c0 .41-.34.75-.75.75 -.42 0-.75-.34-.75-.75v-2c0-.42.33-.75.75-.75Z"/></svg>