<svg viewBox="0 0 24 24" xmlns="http://www.w3.org/2000/svg"><path fill="#8B98A6" d="M8.87 1.25c1.01 0 1.97.4 2.68 1.13l4.97 5.09c.28.29.28.76-.01 1.05l-8 8c-.15.14-.34.21-.54.21s-.39-.08-.54-.22L2.3 11.38c-.71-.71-1.1-1.66-1.1-2.66V1.96c0-.42.33-.75.75-.75h6.87Z"/><path fill="#A2ADB8" d="M13.96 11.96c.29-.3.76-.3 1.06 0l6.5 6.5c.84.84.84 2.21 0 3.06 -.85.84-2.22.84-3.07 0l-6.5-6.5c-.15-.15-.22-.34-.22-.54s.07-.39.21-.54l2-2Z"/><path fill="#CFD8DC" d="M7.96 7.96c.54-.55 1.39-.63 2.03-.21l5.41 3.6c.18.12.3.32.33.55 .02.22-.06.44-.22.6l-3 3c-.16.15-.39.23-.61.21 -.23-.03-.43-.15-.56-.34L7.73 9.95c-.43-.64-.35-1.5.2-2.04Z"/></svg>