<svg viewBox="0 0 24 24" xmlns="http://www.w3.org/2000/svg"><g fill="#FFC44D"><path d="M8 7.75c-1.52 0-2.75 1.23-2.75 2.75v2c0 .41.33.75.75.75h2c1.51 0 2.75-1.24 2.75-2.75v-2c0-.42-.34-.75-.75-.75H8Z"/><path d="M4 7.75c1.51 0 2.75 1.23 2.75 2.75v2c0 .41-.34.75-.75.75H4c-1.52 0-2.75-1.24-2.75-2.75v-2c0-.42.33-.75.75-.75h2Z"/><path d="M8 13.25c-1.52 0-2.75 1.23-2.75 2.75v2c0 .41.33.75.75.75h2c1.51 0 2.75-1.24 2.75-2.75v-2c0-.42-.34-.75-.75-.75H8Z"/><path d="M4 13.25c1.51 0 2.75 1.23 2.75 2.75v2c0 .41-.34.75-.75.75H4c-1.52 0-2.75-1.24-2.75-2.75v-2c0-.42.33-.75.75-.75h2Z"/></g><path fill="#FFD071" fill-rule="evenodd" d="M6 6.25c.41 0 .75.33.75.75v15c0 .41-.34.75-.75.75 -.42 0-.75-.34-.75-.75V7c0-.42.33-.75.75-.75Z"/><g fill="#FFC44D"><path d="M6 2l.54-.52 0 0 0 0 .01.01c.01.01.03.04.06.07 .05.06.13.15.23.26 .19.22.45.52.72.87 .26.34.53.73.74 1.12 .19.36.4.82.4 1.28 0 1.49-1.28 2.625-2.75 2.625 -1.48 0-2.75-1.14-2.75-2.625 0-.46.2-.93.4-1.29 .21-.39.48-.79.74-1.13 .26-.35.52-.66.72-.88 .09-.12.17-.21.23-.27 .02-.04.05-.06.06-.08l.01-.02 0-.01 0-.01 .54.51Z"/><path d="M6 2c.54-.52.54-.52.54-.52 -.15-.15-.34-.24-.55-.24 -.21 0-.41.08-.55.23 0 0 0 0 .54.51Z"/><path d="M20 7.75c-1.52 0-2.75 1.23-2.75 2.75v2c0 .41.33.75.75.75h2c1.51 0 2.75-1.24 2.75-2.75v-2c0-.42-.34-.75-.75-.75h-2Z"/><path d="M16 7.75c1.51 0 2.75 1.23 2.75 2.75v2c0 .41-.34.75-.75.75h-2c-1.52 0-2.75-1.24-2.75-2.75v-2c0-.42.33-.75.75-.75h2Z"/><path d="M20 13.25c-1.52 0-2.75 1.23-2.75 2.75v2c0 .41.33.75.75.75h2c1.51 0 2.75-1.24 2.75-2.75v-2c0-.42-.34-.75-.75-.75h-2Z"/><path d="M16 13.25c1.51 0 2.75 1.23 2.75 2.75v2c0 .41-.34.75-.75.75h-2c-1.52 0-2.75-1.24-2.75-2.75v-2c0-.42.33-.75.75-.75h2Z"/></g><path fill="#FFD071" fill-rule="evenodd" d="M18 6.25c.41 0 .75.33.75.75v15c0 .41-.34.75-.75.75 -.42 0-.75-.34-.75-.75V7c0-.42.33-.75.75-.75Z"/><g fill="#FFC44D"><path d="M18 2l.54-.52 0 0 0 0 .01.01c.01.01.03.04.06.07 .05.06.13.15.23.26 .19.22.45.52.72.87 .26.34.53.73.74 1.12 .19.36.4.82.4 1.28 0 1.49-1.28 2.625-2.75 2.625 -1.48 0-2.75-1.14-2.75-2.625 0-.46.2-.93.4-1.29 .21-.39.48-.79.74-1.13 .26-.35.52-.66.72-.88 .09-.12.17-.21.23-.27 .02-.04.05-.06.06-.08l.01-.02 0-.01 0-.01 .54.51Z"/><path d="M18 2c.54-.52.54-.52.54-.52 -.15-.15-.34-.24-.55-.24 -.21 0-.41.08-.55.23 0 0 0 0 .54.51Z"/></g><path fill="#CFD8DC" fill-rule="evenodd" d="M1.25 22c0-.42.33-.75.75-.75h20c.41 0 .75.33.75.75 0 .41-.34.75-.75.75H2c-.42 0-.75-.34-.75-.75Z"/></svg>