<svg viewBox="0 0 24 24" xmlns="http://www.w3.org/2000/svg"><g fill="#3747D6" fill-rule="evenodd"><path d="M10.5 2c0-.56.44-1 1-1h8c.55 0 1 .44 1 1v6c0 .1-.02.21-.06.31l-1 2.99c-.14.4-.52.68-.95.68h-6c-.44 0-.82-.28-.95-.69l-1-3c-.04-.11-.06-.21-.06-.32v-6Zm2 1v4.83l.72 2.16h4.55l.72-2.17V2.98h-6Z"/><path d="M4.5 21h15v2h-15v-2Z"/><path d="M15.5 17.5c-.28 0-.5.22-.5.5 0 .27.22.5.5.5 .27 0 .5-.23.5-.5 0-.28-.23-.5-.5-.5ZM13 18c0-1.39 1.11-2.5 2.5-2.5 1.38 0 2.5 1.11 2.5 2.5 0 1.38-1.12 2.5-2.5 2.5 -1.39 0-2.5-1.12-2.5-2.5Z"/><path fill="#9545ED" d="M5.5 11c0-.56.44-1 1-1h13c.55 0 1 .44 1 1v11c0 .55-.45 1-1 1h-8c-.56 0-1-.45-1-1v-5.323l-4.38-1.75c-.38-.16-.63-.52-.63-.93v-3Zm2 1v1.32l4.37 1.74c.37.15.62.51.62.92v5h6v-9h-11Z"/></g></svg>