<svg viewBox="0 0 24 24" xmlns="http://www.w3.org/2000/svg"><g fill="#3747D6" fill-rule="evenodd"><path d="M4 2c0-.56.44-1 1-1h17c.55 0 1 .44 1 1v20c0 .55-.45 1-1 1H5c-.56 0-1-.45-1-1V2Zm2 1v18h15V3H6Z"/><g fill="#9545ED"><path d="M13.5 6c-.48 0-.89.33-.98.78 -.06.26-.23.5-.47.64 -.24.14-.53.18-.79.1 -.09-.03-.18-.04-.28-.04 -.56 0-1 .44-1 1 0 .46.31.85.74.96 .44.11.75.51.75.96v2.06h4v-2.07c0-.46.3-.86.75-.97 .43-.12.74-.51.74-.97 0-.56-.45-1-1-1 -.1 0-.19.01-.28.03 -.27.07-.56.03-.79-.11 -.24-.15-.41-.38-.47-.65 -.1-.45-.5-.79-.98-.79Zm-2.6-.5c.51-.9 1.48-1.51 2.59-1.51 1.11 0 2.08.6 2.59 1.5 1.61.05 2.9 1.37 2.9 2.99 0 1.11-.61 2.07-1.5 2.59v2.4c0 .55-.45 1-1 1h-6c-.56 0-1-.45-1-1v-2.41c-.9-.52-1.5-1.49-1.5-2.6 0-1.63 1.28-2.95 2.9-3Z"/><path d="M18 17.5H9v-2h9v2Z"/><path d="M2 5h4.5v2H2V5Z"/><path d="M2 9h4.5v2H2V9Z"/><path d="M2 13h4.5v2H2v-2Z"/><path d="M2 17h4.5v2H2v-2Z"/><path d="M18 20.5H9v-2h9v2Z"/></g></g></svg>