<svg viewBox="0 0 24 24" xmlns="http://www.w3.org/2000/svg"><g fill="#9545ED" fill-rule="evenodd"><path d="M3 9c0 .55.44 1 1 1h16c.55 0 1-.45 1-1V7c0-1.66-1.35-3-3-3H6C4.34 4 3 5.34 3 7v2Zm2-1V7c0-.56.44-1 1-1h12c.55 0 1 .44 1 1v1H5Z"/><path d="M21.29 8.29l-2 2 1.41 1.41 2-2 -1.42-1.42Z"/><path d="M2.7 8.29l2 2L3.28 11.7l-2-2 1.41-1.42Z"/><g fill="#3747D6"><path d="M13 3v2h-2V3h2Z"/><path d="M3 9c0-.56.44-1 1-1h16c.55 0 1 .44 1 1v7.5c0 3.03-2.47 5.5-5.5 5.5h-7C5.46 22 3 19.53 3 16.5V9Zm2 1v6.5C5 18.43 6.56 20 8.5 20h7c1.93 0 3.5-1.57 3.5-3.5V10H5Z"/></g></g></svg>