<svg viewBox="0 0 24 24" xmlns="http://www.w3.org/2000/svg"><g fill="#9545ED" fill-rule="evenodd"><path d="M11 3h-1V1h4v2h-1v16h-2V3Z"/><path d="M17 20H7v-2h10v2Z"/><path d="M2.64 6.56l4-1.5 .7 1.87 -2.77 1.03 3.22 4.43 -1.62 1.17 -4-5.51c-.19-.26-.24-.58-.15-.88 .08-.3.31-.54.6-.65Z"/><path d="M19 6H7V4h12c1.65 0 3 1.34 3 3v3h-2V7c0-.56-.45-1-1-1Z"/><path fill="#3747D6" d="M6 5c0-.56.44-1 1-1h10c.55 0 1 .44 1 1v17c0 .55-.45 1-1 1H7c-.56 0-1-.45-1-1V5Zm2 1v15h8V6H8Z"/><path d="M19 23H5v-2h14v2Z"/></g></svg>