<svg viewBox="0 0 24 24" xmlns="http://www.w3.org/2000/svg"><g fill="#9545ED" fill-rule="evenodd"><path d="M5.5 19.5c0-.83.67-1.5 1.5-1.5h10c.82 0 1.5.67 1.5 1.5V21c0 1.1-.9 2-2 2h-9c-1.11 0-2-.9-2-2v-1.5Zm2 .5v1h9v-1h-9Z"/><path d="M17 3H7V1h10v2Z"/><path d="M11 6V4h2v2h-2Z"/><path d="M14.5 6V2h2v4h-2Z"/><path d="M7.5 6V2h2v4h-2Z"/><path d="M17.5 13.5h-11v-2h11v2Z"/><path fill="#3747D6" d="M3 8c0-1.66 1.34-3 3-3h12c1.65 0 3 1.34 3 3v9c0 1.65-1.35 3-3 3H6c-1.66 0-3-1.35-3-3V8Zm3-1c-.56 0-1 .44-1 1v9c0 .55.44 1 1 1h12c.55 0 1-.45 1-1V8c0-.56-.45-1-1-1H6Z"/></g></svg>