<svg viewBox="0 0 24 24" xmlns="http://www.w3.org/2000/svg"><g fill="#9545ED" fill-rule="evenodd"><path d="M10 2c0-.56.44-1 1-1h4c.55 0 1 .44 1 1v5c0 .55-.45 1-1 1h-4c-.56 0-1-.45-1-1V2Zm2 1v3h2V3h-2Z"/><path d="M17.47 9.14c.29-.19.66-.2.97-.05l4 2c.33.16.55.51.55.89v2c0 .55-.45 1-1 1h-4c-.56 0-1-.45-1-1v-4c0-.35.17-.67.47-.86Zm1.52 2.46v1.38h2v-.39l-2-1Z"/><path d="M8.04 8.15c.28.18.45.5.45.84v13c0 .55-.45 1-1 1h-5.5c-.56 0-1-.45-1-1v-8.25c0-1.77 1.03-3.37 2.63-4.1l3.44-1.57c.3-.15.66-.12.95.06Zm-1.55 2.39l-2.04.92c-.9.4-1.47 1.29-1.47 2.27v7.24h3.5V10.523Z"/><path d="M13 16c-.28 0-.5.22-.5.5 0 .27.22.5.5.5 .27 0 .5-.23.5-.5 0-.28-.23-.5-.5-.5Zm-2.5.5c0-1.39 1.11-2.5 2.5-2.5 1.38 0 2.5 1.11 2.5 2.5 0 1.38-1.12 2.5-2.5 2.5 -1.39 0-2.5-1.12-2.5-2.5Z"/><path fill="#3747D6" d="M6.5 9.5C6.5 7.56 8.06 6 10 6h5.5C17.43 6 19 7.56 19 9.5V22c0 .55-.45 1-1 1H7.5c-.56 0-1-.45-1-1V9.5ZM10 8c-.83 0-1.5.67-1.5 1.5V21H17V9.5c0-.83-.68-1.5-1.5-1.5H10Z"/></g></svg>