<svg viewBox="0 0 24 24" xmlns="http://www.w3.org/2000/svg"><g fill="#9545ED" fill-rule="evenodd"><path d="M6.73 12.85l4.99-6 1.53 1.28 -5.01 6L6.7 12.84Z"/><path d="M8.73 16.85l4.99-6 1.53 1.28 -5 6 -1.54-1.29Z"/><path d="M3.5 20c-.28 0-.5.22-.5.5 0 .27.22.5.5.5H5v2H3.5C2.11 23 1 21.88 1 20.5 1 19.11 2.11 18 3.5 18H5v2H3.5Z"/><path fill="#3747D6" d="M4 6c0-2.77 2.23-5 5-5h4c2.76 0 5 2.23 5 5v3.36l.12-.11c1.09-.92 2.71-.85 3.71.16 .81.81 1.03 2.04.56 3.09l-4.5 9.88c-.17.35-.52.58-.92.58h-12c-.56 0-1-.45-1-1v-16Zm5-3C7.34 3 6 4.34 6 6v15h10.35l4.22-9.31c.13-.29.06-.63-.16-.86 -.28-.28-.73-.3-1.03-.05l-1.77 1.47c-.3.24-.72.3-1.07.13 -.36-.17-.58-.52-.58-.91v-5.5c0-1.66-1.35-3-3-3h-4Z"/></g></svg>