<svg viewBox="0 0 24 24" xmlns="http://www.w3.org/2000/svg"><g fill="#3747D6" fill-rule="evenodd"><path d="M14.2 1.29l2 2L14.78 4.7l-2-2 1.41-1.42Zm6.5 6.5l2 2 -1.42 1.41 -2-2 1.41-1.42Z"/><path fill="#9545ED" d="M14.2 1.29c.39.39.39 1.02 0 1.41 -1.05 1.04-1.76 2.37-1.91 3.72 -.16 1.3.21 2.66 1.4 3.86 1.19 1.19 2.55 1.56 3.86 1.4 1.34-.16 2.68-.87 3.72-1.91 .39-.4 1.02-.4 1.41 0 .39.39.39 1.02 0 1.41 -1.31 1.3-3.05 2.26-4.91 2.481 -1.9.22-3.87-.34-5.52-1.99 -1.65-1.65-2.21-3.62-1.99-5.52 .21-1.87 1.17-3.61 2.48-4.91 .39-.4 1.02-.4 1.41 0Z"/><path d="M11.293 9.29c.39-.4 1.02-.4 1.41 0l2 2c.39.39.39 1.02 0 1.41l-9.01 9c-.95.94-2.48.94-3.42 0 -.95-.95-.95-2.48 0-3.42l8.99-9.01Zm.7 2.12l-8.3 8.29c-.17.16-.17.42 0 .58 .16.16.42.16.58 0l8.29-8.3 -.59-.59Z"/><path fill="#9545ED" d="M16.29 2.29c.39-.4 1.02-.4 1.41 0l4 4c.39.39.39 1.02 0 1.41l-2.5 2.49c-.4.39-1.03.39-1.42 0l-4-4c-.4-.4-.4-1.03 0-1.42l2.5-2.5Zm-.38 3.2l2.58 2.58 1.08-1.09 -2.59-2.59 -1.09 1.08Z"/></g></svg>