<svg viewBox="0 0 24 24" xmlns="http://www.w3.org/2000/svg"><g fill="#9545ED" fill-rule="evenodd"><path d="M18.29 2.29c.94-.95 2.47-.95 3.41 0 .94.94.94 2.47 0 3.41l-3 3c-.19.18-.45.29-.71.29 -.27 0-.52-.11-.71-.3l-2-2c-.4-.4-.4-1.03 0-1.42l3-3Zm2 1.41c-.17-.17-.43-.17-.59-.01l-2.3 2.29 .58.58 2.29-2.3c.16-.17.16-.43 0-.59Z"/><path d="M5.7 21.7c-.95.94-2.48.94-3.42 0 -.95-.95-.95-2.48 0-3.42l3-3c.18-.19.44-.3.7-.3 .26 0 .51.1.7.29l2 2c.39.39.39 1.02 0 1.41l-3 3Zm-2-1.42c.16.16.42.16.58 0l2.29-2.3 -.59-.59 -2.3 2.29c-.17.16-.17.42 0 .58Z"/><path fill="#3747D6" d="M14.29 4.29c.39-.4 1.02-.4 1.41 0l4 4c.39.39.39 1.02 0 1.41l-10 9.99c-.4.39-1.03.39-1.42 0l-4-4c-.4-.4-.4-1.03 0-1.42l10-10Zm-7.88 10.7l2.58 2.58 8.58-8.59 -2.59-2.59 -8.59 8.58Z"/></g></svg>