<svg viewBox="0 0 24 24" xmlns="http://www.w3.org/2000/svg"><g fill-rule="evenodd"><path d="M1.25 19c0-.42.33-.75.75-.75h20c.41 0 .75.33.75.75v3c0 .41-.34.75-.75.75H2c-.42 0-.75-.34-.75-.75v-3Zm1.5.75v1.5h18.5v-1.5H2.75Z"/><path d="M17.25 8c0-.42.33-.75.75-.75h3c.41 0 .75.33.75.75v11c0 .41-.34.75-.75.75h-3c-.42 0-.75-.34-.75-.75V8Zm1.5.75v9.5h1.5v-9.5h-1.5Z"/><path d="M9.75 8c0-.42.33-.75.75-.75h3c.41 0 .75.33.75.75v11c0 .41-.34.75-.75.75h-3c-.42 0-.75-.34-.75-.75V8Zm1.5.75v9.5h1.5v-9.5h-1.5Z"/><path d="M2.25 8c0-.42.33-.75.75-.75h3c.41 0 .75.33.75.75v11c0 .41-.34.75-.75.75H3c-.42 0-.75-.34-.75-.75V8Zm1.5.75v9.5h1.5v-9.5h-1.5Z"/><path d="M11.75 1.29c.16-.06.33-.06.49 0l4 1.4c.39.13.59.56.46.95 -.14.39-.57.59-.96.46l-3.76-1.32 -9.25 3.23v1.21h18.5V6l-1.5-.53c-.4-.14-.6-.57-.47-.96 .13-.4.56-.6.95-.47l2 .7c.3.1.5.38.5.7v2.5c0 .41-.34.75-.75.75h-20c-.42 0-.75-.34-.75-.75v-2.5c0-.32.2-.61.5-.71l9.99-3.5Z"/></g></svg>