<svg viewBox="0 0 24 24" xmlns="http://www.w3.org/2000/svg"><g fill-rule="evenodd"><path d="M6.78 4.54C5.54 5.69 4.74 7.4 4.74 9.69c0 1.67 1.05 3.8 2.49 5.87 .23.34.15.8-.19 1.04 -.35.23-.81.15-1.05-.19 -1.45-2.1-2.76-4.56-2.76-6.73 0-2.66.94-4.79 2.51-6.26 1.56-1.46 3.7-2.2 6.01-2.2 2.3 0 4.44.74 6.01 2.19 1.57 1.46 2.51 3.59 2.51 6.25 0 1.16-.38 2.38-.92 3.56 -.55 1.18-1.29 2.37-2.08 3.48 -1.58 2.21-3.39 4.14-4.34 5.11 -.67.67-1.75.67-2.42-.01 -.53-.54-1.3-1.35-2.14-2.33 -.28-.32-.24-.79.07-1.06 .31-.28.78-.24 1.05.07 .82.95 1.56 1.73 2.07 2.25 .08.08.19.07.27 0 .93-.95 2.67-2.82 4.18-4.93 .75-1.06 1.43-2.17 1.93-3.24 .49-1.09.77-2.09.77-2.95 0-2.29-.8-4.01-2.04-5.16 -1.25-1.16-3-1.8-4.99-1.8 -1.99 0-3.75.63-4.99 1.79Z"/><path d="M10.25 8.36c0-.9.72-1.62 1.61-1.62h1.63c.41 0 .75.33.75.75 0 .41-.34.75-.75.75h-1.64c-.07 0-.12.05-.12.11 0 .03.01.07.05.09l1.22.81c.45.3.72.8.72 1.34 0 .89-.73 1.61-1.62 1.61h-1.64c-.42 0-.75-.34-.75-.75 0-.42.33-.75.75-.75h1.63c.06 0 .11-.06.11-.12 0-.04-.02-.08-.06-.1l-1.23-.82c-.46-.31-.73-.81-.73-1.35Z"/><path d="M12 10.75c.41 0 .75.33.75.75v2c0 .41-.34.75-.75.75 -.42 0-.75-.34-.75-.75v-2c0-.42.33-.75.75-.75Z"/><path d="M12 4.75c.41 0 .75.33.75.75v2c0 .41-.34.75-.75.75 -.42 0-.75-.34-.75-.75v-2c0-.42.33-.75.75-.75Z"/></g></svg>