<svg viewBox="0 0 24 24" xmlns="http://www.w3.org/2000/svg"><g fill-rule="evenodd"><path d="M1.25 3c0-.97.78-1.75 1.75-1.75h10c.96 0 1.75.78 1.75 1.75v2c0 .41-.34.75-.75.75 -.42 0-.75-.34-.75-.75V3c0-.14-.12-.25-.25-.25H3c-.14 0-.25.11-.25.25v12c0 .41-.34.75-.75.75 -.42 0-.75-.34-.75-.75V3ZM2 18.25c.41 0 .75.33.75.75v2c0 .13.11.25.25.25h10c.13 0 .25-.12.25-.25v-2c0-.42.33-.75.75-.75 .41 0 .75.33.75.75v2c0 .96-.79 1.75-1.75 1.75H3c-.97 0-1.75-.79-1.75-1.75v-2c0-.42.33-.75.75-.75Z"/><path d="M9.25 9c0-.97.78-1.75 1.75-1.75h10c.96 0 1.75.78 1.75 1.75v6c0 .96-.79 1.75-1.75 1.75H11c-.97 0-1.75-.79-1.75-1.75V9ZM11 8.75c-.14 0-.25.11-.25.25v6c0 .13.11.25.25.25h10c.13 0 .25-.12.25-.25V9c0-.14-.12-.25-.25-.25H11Z"/><path d="M3.87 1.57c.13-.21.37-.33.62-.33h7c.24 0 .48.12.62.32 .13.2.16.46.07.69l-.75 1.87c-.27.66-.91 1.1-1.63 1.1H6.15c-.72 0-1.36-.44-1.63-1.11l-.75-1.88c-.1-.24-.07-.5.07-.7Zm1.72 1.17l.33.84c.03.09.12.15.23.15h3.64c.1 0 .19-.07.23-.16l.33-.85H5.56Z"/><path d="M9.25 11c0-.42.33-.75.75-.75h12c.41 0 .75.33.75.75 0 .41-.34.75-.75.75H10c-.42 0-.75-.34-.75-.75Z"/></g></svg>