<svg viewBox="0 0 24 24" xmlns="http://www.w3.org/2000/svg"><g fill-rule="evenodd"><path d="M1.25 3c0-.97.78-1.75 1.75-1.75h18c.96 0 1.75.78 1.75 1.75v18c0 .96-.79 1.75-1.75 1.75H9c-.42 0-.75-.34-.75-.75 0-.42.33-.75.75-.75h12c.13 0 .25-.12.25-.25V3c0-.14-.12-.25-.25-.25H3c-.14 0-.25.11-.25.25v18c0 .13.11.25.25.25h2c.41 0 .75.33.75.75 0 .41-.34.75-.75.75H3c-.97 0-1.75-.79-1.75-1.75V3Z"/><path d="M1.25 3c0-.97.78-1.75 1.75-1.75h18c.96 0 1.75.78 1.75 1.75v4c0 .41-.34.75-.75.75H2c-.42 0-.75-.34-.75-.75V3ZM3 2.75c-.14 0-.25.11-.25.25v3.25h18.5V3c0-.14-.12-.25-.25-.25H3Z"/><path d="M3.75 4.5c0-.42.33-.75.75-.75h2c.41 0 .75.33.75.75 0 .41-.34.75-.75.75h-2c-.42 0-.75-.34-.75-.75Z"/><path d="M7.75 4.5c0-.42.33-.75.75-.75h2c.41 0 .75.33.75.75 0 .41-.34.75-.75.75h-2c-.42 0-.75-.34-.75-.75Z"/><path d="M11.75 4.5c0-.42.33-.75.75-.75h2c.41 0 .75.33.75.75 0 .41-.34.75-.75.75h-2c-.42 0-.75-.34-.75-.75Z"/><path d="M12 10.25c-2.35 0-4.25 1.9-4.25 4.25 0 2.34 1.9 4.25 4.25 4.25 2.34 0 4.25-1.91 4.25-4.25 0-2.35-1.91-4.25-4.25-4.25ZM6.25 14.5c0-3.18 2.57-5.75 5.75-5.75 3.17 0 5.75 2.57 5.75 5.75 0 3.17-2.58 5.75-5.75 5.75 -3.18 0-5.75-2.58-5.75-5.75Z"/><path d="M12 8.75c.41 0 .75.33.75.75v4.25H17c.41 0 .75.33.75.75 0 .41-.34.75-.75.75h-5c-.42 0-.75-.34-.75-.75v-5c0-.42.33-.75.75-.75Z"/></g></svg>