<svg viewBox="0 0 24 24" xmlns="http://www.w3.org/2000/svg"><g fill-rule="evenodd"><path d="M9.58 2c0-.42.33-.75.74-.75h3.33c.41 0 .75.33.75.75 0 .41-.34.75-.75.75h-2.59V4.4c0 .35-.25.65-.59.73 -.83.17-1.6.5-2.29.94 -.3.19-.69.14-.94-.11L6.07 4.79l-1.3 1.29 1.16 1.16c.24.24.29.63.1.93 -.45.68-.77 1.45-.95 2.28 -.08.34-.39.59-.74.59H2.68v1.83h1.65c.35 0 .65.24.73.59 .17.82.5 1.59.94 2.28 .22.34.12.81-.23 1.03 -.35.22-.82.12-1.04-.23 -.43-.67-.77-1.41-1-2.19H1.91c-.42 0-.75-.34-.75-.75v-3.34c0-.42.33-.75.75-.75h1.81c.17-.59.4-1.14.68-1.66L3.11 6.56c-.3-.3-.3-.77 0-1.07l2.35-2.36c.29-.3.76-.3 1.06 0L7.8 4.41c.52-.29 1.07-.52 1.65-.69V1.9Zm8.3 1c.19 0 .38.07.53.21l2.35 2.35c.29.29.29.76 0 1.06L19.47 7.9c.28.52.51 1.07.68 1.65h1.81c.41 0 .75.33.75.74v3.33c0 .41-.34.75-.75.75h-1.82c-.18.58-.41 1.13-.69 1.65l1.28 1.28c.29.29.29.76 0 1.06l-2.36 2.35c-.15.14-.34.21-.54.21s-.39-.08-.54-.22L16 19.41c-.53.28-1.08.51-1.66.68v1.81c0 .41-.34.75-.75.75h-3.34c-.42 0-.75-.34-.75-.75v-1.82c-.59-.18-1.14-.41-1.66-.69l-1.29 1.28c-.15.14-.34.21-.54.21s-.39-.08-.54-.22L3.11 18.3c-.3-.3-.3-.77 0-1.07 .29-.3.76-.3 1.06 0l1.82 1.82 1.16-1.17c.24-.25.63-.3.93-.11 .68.44 1.45.76 2.28.94 .34.07.59.38.59.73v1.65h1.83v-1.66c0-.36.24-.66.59-.74 .82-.18 1.59-.51 2.28-.95 .29-.2.68-.15.93.1L17.74 19l1.29-1.3 -1.17-1.17c-.25-.25-.3-.64-.11-.94 .44-.69.76-1.46.94-2.29 .07-.35.38-.59.73-.59h1.65v-1.84h-1.66c-.36 0-.66-.25-.74-.59 -.18-.83-.51-1.6-.95-2.29 -.2-.3-.15-.69.1-.94l1.16-1.17 -1.3-1.3 -1.17 1.16c-.25.24-.64.29-.94.1 -.69-.45-1.46-.77-2.29-.95 -.41-.09-.67-.49-.58-.9 .08-.41.48-.67.89-.58 .79.17 1.55.45 2.24.83l1.28-1.29c.14-.15.33-.22.53-.22Z"/><path d="M10.25 10.86c0-.9.72-1.62 1.61-1.62h1.63c.41 0 .75.33.75.75 0 .41-.34.75-.75.75h-1.64c-.07 0-.12.05-.12.11 0 .03.01.07.05.09l1.22.81c.45.3.72.8.72 1.34 0 .89-.73 1.61-1.62 1.61h-1.64c-.42 0-.75-.34-.75-.75 0-.42.33-.75.75-.75h1.63c.06 0 .11-.06.11-.12 0-.04-.02-.08-.06-.1l-1.23-.82c-.46-.31-.73-.81-.73-1.35Z"/><path d="M12 13.25c.41 0 .75.33.75.75v2c0 .41-.34.75-.75.75 -.42 0-.75-.34-.75-.75v-2c0-.42.33-.75.75-.75Z"/><path d="M12 7.25c.41 0 .75.33.75.75v2c0 .41-.34.75-.75.75 -.42 0-.75-.34-.75-.75V8c0-.42.33-.75.75-.75Z"/></g></svg>