<svg viewBox="0 0 24 24" xmlns="http://www.w3.org/2000/svg"><g fill-rule="evenodd"><path d="M8.31 18.42c-.56 0-1 .44-1 1v.57h9.37v-.58c0-.56-.45-1-1-1h-.41v-2h.4c1.65 0 3 1.34 3 3v1.57c0 .55-.45 1-1 1H6.29c-.56 0-1-.45-1-1V19.4c0-1.66 1.34-3 3-3h.4v2h-.41Z"/><path d="M11.99 7c-2.76 0-5.03 2.28-5.03 5.15 0 2.86 2.26 5.15 5.02 5.15 2.75 0 5.02-2.29 5.02-5.16s-2.27-5.16-5.03-5.16Zm-7.03 5.15c0-3.94 3.12-7.16 7.02-7.16 3.89 0 7.02 3.22 7.02 7.15s-3.13 7.15-7.03 7.15c-3.9 0-7.03-3.23-7.03-7.16Z"/><path d="M19.16 8.44c-.76-1.53-1.99-2.78-3.51-3.56l.91-1.78c1.88.97 3.42 2.53 4.37 4.44l-1.8.89Z"/><path d="M4.89 8.44c.75-1.53 1.98-2.78 3.5-3.56L7.47 3.1c-1.89.97-3.43 2.53-4.38 4.44l1.79.89Z"/><path d="M11.99 11.61c-.26 0-.51.22-.51.53 0 .31.24.53.5.53 .25 0 .5-.23.5-.54 0-.32-.25-.54-.51-.54Zm-2.51.53c0-1.39 1.1-2.54 2.5-2.54s2.5 1.15 2.5 2.53 -1.11 2.53-2.51 2.53c-1.41 0-2.51-1.16-2.51-2.54Z"/></g></svg>