<svg viewBox="0 0 24 24" xmlns="http://www.w3.org/2000/svg"><g fill-rule="evenodd"><path d="M1 3.5c0-.56.44-1 1-1h20c.55 0 1 .44 1 1v5h-2v-4H3v10h7.5v2H2c-.56 0-1-.45-1-1v-12Z"/><path d="M19 7.5H5v-2h14v2Z"/><path d="M16.02 9.34c.65-.87 1.95-.87 2.6-.01l.5.66 .82-.12c1.07-.15 1.99.77 1.84 1.84l-.12.82 .66.5c.86.65.86 1.95 0 2.6l-.67.5 .11.82c.14 1.07-.78 1.99-1.85 1.84l-.83-.12 -.51.66c-.66.86-1.96.86-2.61 0l-.51-.67 -.83.11c-1.08.14-2-.78-1.85-1.85l.11-.83 -.67-.51c-.87-.66-.87-1.96 0-2.61l.6.79 -.61-.8 .66-.51 -.12-.83c-.15-1.08.77-2 1.84-1.85l.82.11 .5-.67Zm1.3 1.59l-.35.45c-.36.47-.95.71-1.53.63l-.57-.08 .07.56c.08.58-.17 1.16-.64 1.52l-.46.34 .45.34c.47.35.71.94.63 1.52l-.08.56 .56-.08c.58-.09 1.16.16 1.52.63l.34.45 .34-.46c.35-.48.94-.72 1.52-.64l.56.07 -.08-.57c-.09-.59.16-1.17.63-1.53l.45-.35 -.46-.35c-.48-.36-.72-.95-.64-1.53l.07-.57 -.57.07c-.59.08-1.17-.17-1.53-.64l-.35-.46Zm3.81 3.14l-.01 0 0-.01Z"/><path d="M15.46 20.46v-2.6h-2v4.13c0 .33.17.65.45.83 .28.18.64.21.95.07l2.45-1.1 2.45 1.09c.3.13.66.1.95-.08 .28-.19.45-.5.45-.84v-4.14h-2v2.59l-1.46-.65c-.26-.12-.56-.12-.82 0l-1.46.64Z"/></g></svg>