<svg viewBox="0 0 24 24" xmlns="http://www.w3.org/2000/svg"><g fill="#9545ED" fill-rule="evenodd"><path d="M11.06 8c-.29 0-.55.15-.69.4 -.49.9-1.43 1.46-2.45 1.46h-.07c-.49 0-.875.39-.875.875v4.25c0 .55.44 1 1 1h8c.55 0 1-.45 1-1v-4.25c0-.49-.4-.875-.875-.875h-.07c-1.03 0-1.97-.57-2.45-1.47 -.14-.26-.4-.41-.69-.41H11.01Zm-2.45-.54c.48-.91 1.42-1.47 2.44-1.47h1.875c1.02 0 1.96.56 2.44 1.46 .13.25.39.4.68.4h.06c1.58 0 2.875 1.28 2.875 2.875v4.25c0 1.65-1.35 3-3 3h-8c-1.66 0-3-1.35-3-3v-4.25c0-1.59 1.28-2.875 2.875-2.875h.06c.28 0 .54-.16.68-.41Z"/><path d="M12 11c-.83 0-1.5.67-1.5 1.5 0 .82.67 1.5 1.5 1.5 .82 0 1.5-.68 1.5-1.5 0-.83-.68-1.5-1.5-1.5Zm-3.5 1.5C8.5 10.56 10.06 9 12 9c1.93 0 3.5 1.56 3.5 3.5 0 1.93-1.57 3.5-3.5 3.5 -1.94 0-3.5-1.57-3.5-3.5Z"/><path fill="#3747D6" d="M12 3c-4.98 0-9 4.02-9 9 0 4.97 4.02 9 9 9 4.97 0 9-4.03 9-9 0-4.98-4.03-9-9-9ZM1 12C1 5.92 5.92 1 12 1c6.07 0 11 4.92 11 11 0 6.07-4.93 11-11 11C5.92 23 1 18.07 1 12Z"/></g></svg>