<svg viewBox="0 0 24 24" xmlns="http://www.w3.org/2000/svg"><g fill="#3747D6" fill-rule="evenodd"><path d="M10.23 5c-.38 0-.73.21-.9.55l-.4.78c-.51 1.01-1.55 1.65-2.69 1.65H4.97c-.56 0-1 .44-1 1v9c0 .55.44 1 1 1h14c.55 0 1-.45 1-1v-9c0-.56-.45-1-1-1H17.7c-1.14 0-2.18-.65-2.69-1.66l-.4-.79c-.17-.34-.52-.56-.9-.56h-3.53Zm-2.69-.35c.5-1.02 1.54-1.66 2.68-1.66h3.52c1.13 0 2.17.64 2.68 1.65l.39.78c.16.33.51.55.89.55h1.26c1.65 0 3 1.34 3 3v9c0 1.65-1.35 3-3 3h-14c-1.66 0-3-1.35-3-3v-9c0-1.66 1.34-3 3-3h1.26c.37 0 .72-.22.89-.56l.39-.79Z"/><g fill="#9545ED"><path d="M11 16V8h2v8h-2Z"/><path d="M16 13H8v-2h8v2Z"/></g></g></svg>