<svg viewBox="0 0 24 24" xmlns="http://www.w3.org/2000/svg"><g fill="#9545ED" fill-rule="evenodd"><path d="M6.5 12c0-.56.44-1 1-1h9c.55 0 1 .44 1 1v2c0 2.2-1.8 4-4 4h-3c-2.21 0-4-1.8-4-4v-2Zm2 1v1c0 1.1.89 2 2 2h3c1.1 0 2-.9 2-2v-1h-7Z"/><path d="M6.5 12c0 .55.44 1 1 1h5c1.65 0 3-1.35 3-3 0-2.21-1.8-4-4-4h-1c-2.21 0-4 1.79-4 4v2Zm2-1v-1c0-1.11.89-2 2-2h1c1.1 0 2 .89 2 2 0 .55-.45 1-1 1h-4Z"/><path fill="#3747D6" d="M1 3c0-1.11.89-2 2-2h18c1.1 0 2 .89 2 2v18c0 1.1-.9 2-2 2H3c-1.11 0-2-.9-2-2V3Zm20 0H3v18h18V3Z"/></g></svg>