<svg viewBox="0 0 24 24" xmlns="http://www.w3.org/2000/svg"><g fill="#9545ED" fill-rule="evenodd"><path d="M12.686 10.539c1.44-.73 3.13-.78 4.62-.14l1.58.67c.36.15.6.51.6.91 0 4.14-3.36 7.5-7.5 7.5 -4.15 0-7.5-3.36-7.5-7.5 0-.34.16-.65.44-.84 .28-.19.63-.22.94-.09l1.58.67c.94.4 2.02.37 2.94-.09l2.26-1.14Zm3.83 1.7c-.95-.41-2.03-.38-2.95.08l-2.27 1.13c-1.43.71-3.1.77-4.58.15 .69 2.24 2.78 3.87 5.25 3.87 2.81 0 5.14-2.13 5.46-4.86l-.94-.41Z"/><path fill="#3747D6" d="M12 4c4.41 0 8 3.58 8 8 0 1.57-.46 3.04-1.24 4.27 -.17.25-.2.56-.11.85l.76 2.28 -2.29-.77c-.29-.1-.6-.06-.86.1 -1.237.78-2.71 1.23-4.28 1.23 -4.42 0-8.01-3.59-8.01-8 0-4.42 3.58-8 8-8Zm10 8c0-5.53-4.48-10-10-10C6.47 2 2 6.47 2 12c0 5.52 4.47 10 10 10 1.79 0 3.47-.48 4.93-1.31l3.74 1.24c.35.11.75.02 1.02-.25 .26-.27.36-.67.24-1.03l-1.25-3.75c.82-1.46 1.3-3.15 1.3-4.94Z"/></g></svg>