<svg viewBox="0 0 24 24" xmlns="http://www.w3.org/2000/svg"><g fill="#3747D6" fill-rule="evenodd"><path d="M12 3c-4.98 0-9 4.02-9 9 0 4.97 4.02 9 9 9 4.97 0 9-4.03 9-9 0-4.98-4.03-9-9-9ZM1 12C1 5.92 5.92 1 12 1c6.07 0 11 4.92 11 11 0 6.07-4.93 11-11 11C5.92 23 1 18.07 1 12Z"/><path fill="#9545ED" d="M7.93 5.86c.06-.5.49-.87.99-.87h6.15c.32 0 .63.15.81.42 .18.26.23.6.11.91l-1.05 2.85h1.03c.37 0 .71.2.88.54 .17.33.14.73-.08 1.03l-5.54 7.8c-.26.35-.71.5-1.12.37 -.42-.14-.7-.52-.7-.96v-4.4H7.94c-.29 0-.57-.13-.76-.35 -.19-.22-.28-.51-.24-.8l.92-6.61Zm1.86 1.13l-.65 4.6h1.31c.55 0 1 .44 1 1v2.26l2.6-3.67h-.53c-.33 0-.64-.16-.82-.43 -.19-.27-.24-.61-.12-.92l1.04-2.86H9.76Z"/></g></svg>