<svg viewBox="0 0 24 24" xmlns="http://www.w3.org/2000/svg"><g fill="#3747D6" fill-rule="evenodd"><path d="M4.5 3.5c0-1.11.89-2 2-2h14c1.1 0 2 .89 2 2v14c0 1.1-.9 2-2 2h-14c-1.11 0-2-.9-2-2v-14Zm16 0h-14v14h14v-14Z"/><g fill="#9545ED"><path d="M4 5v15h15v2H4c-1.11 0-2-.9-2-2V5h2Z"/><path d="M10.53 6.11c.33-.18.72-.15 1.03.06l5 3.5c.26.18.42.49.42.81 0 .32-.16.63-.43.81l-5 3.5c-.31.21-.71.24-1.04.06 -.34-.18-.54-.52-.54-.89v-7c0-.38.2-.72.53-.89Zm1.46 2.8v3.15l2.25-1.58 -2.26-1.58Z"/></g></g></svg>