<svg viewBox="0 0 24 24" xmlns="http://www.w3.org/2000/svg"><g fill="#9545ED" fill-rule="evenodd"><path d="M19.29 1.29c.39-.4 1.02-.4 1.41 0l2 2c.39.39.39 1.02 0 1.41l-8 7.99c-.11.1-.25.19-.4.24l-3 1c-.36.11-.76.02-1.03-.25s-.37-.67-.25-1.03l1-3.01c.04-.15.13-.29.24-.4l8-8Zm-6.42 9.24l-.3.87 .87-.3 7.12-7.13 -.59-.59 -7.13 7.12Z"/><path fill="#3747D6" d="M4 5c-.56 0-1 .44-1 1v14c0 .55.44 1 1 1h14c.55 0 1-.45 1-1V9.5h2V20c0 1.65-1.35 3-3 3H4c-1.66 0-3-1.35-3-3V6c0-1.66 1.34-3 3-3h10.5v2H4Z"/></g></svg>