<svg viewBox="0 0 24 24" xmlns="http://www.w3.org/2000/svg"><g fill="#3747D6" fill-rule="evenodd"><path d="M1 4c0-1.66 1.34-3 3-3h4.5c1.65 0 3 1.34 3 3v18c0 .55-.45 1-1 1H9c-.34 0-.65-.17-.84-.45l-1.71-2.56H3.98c-1.66 0-3-1.35-3-3v-13Zm3-1c-.56 0-1 .44-1 1v13c0 .55.44 1 1 1h3c.33 0 .64.16.83.44l1.66 2.5V3.99c0-.56-.45-1-1-1h-4.5Z"/><path fill="#9545ED" d="M23 4c0-1.66-1.35-3-3-3h-4.5c-1.66 0-3 1.34-3 3v18c0 .55.44 1 1 1H15c.33 0 .64-.17.83-.45l1.7-2.56h2.46c1.65 0 3-1.35 3-3v-13Zm-3-1c.55 0 1 .44 1 1v13c0 .55-.45 1-1 1h-3c-.34 0-.65.16-.84.44l-1.67 2.5V3.99c0-.56.44-1 1-1h4.5Z"/></g></svg>