<svg viewBox="0 0 24 24" xmlns="http://www.w3.org/2000/svg"><g fill="#9545ED" fill-rule="evenodd"><path d="M12.12 7.1c-1.55-.97-3.61-.78-4.95.56 -1.57 1.56-1.57 4.09 0 5.65l4.24 4.24c.18.18.44.29.7.29 .26 0 .51-.11.7-.3l4.24-4.25c1.56-1.57 1.56-4.1 0-5.66 -1.35-1.35-3.41-1.54-4.95-.57Zm-.71 1.97c-.79-.79-2.05-.79-2.83 0 -.79.78-.79 2.04 0 2.82l3.53 3.53 3.53-3.54c.78-.79.78-2.05 0-2.83 -.79-.79-2.05-.79-2.83 0 -.4.39-1.03.39-1.42 0Z"/><path d="M7.53 1.94c.54-.25 1.12-.45 1.71-.6l.49 1.93c-.49.12-.96.28-1.4.48l-.82-1.83ZM2.3 6.77c.57-1.07 1.32-2.04 2.21-2.86l1.35 1.46c-.73.67-1.34 1.45-1.82 2.33l-1.76-.96ZM.98 11.99c0-.62.05-1.22.14-1.81l1.97.32c-.08.48-.13.97-.13 1.47s.04.99.12 1.47l-1.98.32c-.1-.59-.15-1.2-.15-1.81Zm3.52 8.07c-.89-.82-1.64-1.79-2.22-2.86l1.75-.96c.47.87 1.08 1.66 1.81 2.33l-1.36 1.46Zm4.72 2.58c-.6-.16-1.17-.36-1.72-.6l.81-1.83c.44.19.91.36 1.39.48l-.5 1.93Z"/><path fill="#3747D6" d="M21 12c0-4.98-4.03-9-9-9V1c6.07 0 11 4.92 11 11 0 6.07-4.93 11-11 11v-2c4.97 0 9-4.03 9-9Z"/></g></svg>