<svg viewBox="0 0 24 24" xmlns="http://www.w3.org/2000/svg"><g fill="#9545ED" fill-rule="evenodd"><path d="M12.59 10.69c.25.18.4.48.4.8v1.65l3.71-1.12 .57 1.91 -5 1.5c-.31.09-.64.03-.89-.16 -.26-.19-.41-.49-.41-.81V12.8l-3.72 1.11 -.58-1.92 5-1.5c.3-.1.63-.04.88.15Z"/><g fill="#3747D6"><path d="M3 10c0-3.04 2.46-5.5 5.5-5.5h7c3.03 0 5.5 2.46 5.5 5.5v7c0 3.03-2.47 5.5-5.5 5.5h-7C5.46 22.5 3 20.03 3 17v-7Zm5.5-3.5C6.56 6.5 5 8.06 5 10v7c0 1.93 1.56 3.5 3.5 3.5h7c1.93 0 3.5-1.57 3.5-3.5v-7c0-1.94-1.57-3.5-3.5-3.5h-7Z"/><path d="M12 4.08l-2.3-2.3 -1.42 1.41 3 3c.39.39 1.02.39 1.41 0l3-3 -1.42-1.42 -2.3 2.29Z"/></g></g></svg>