<svg viewBox="0 0 24 24" xmlns="http://www.w3.org/2000/svg"><g fill="#3747D6" fill-rule="evenodd"><path d="M2 8c0-1.66 1.34-3 3-3h10c1.65 0 3 1.34 3 3v8c0 1.65-1.35 3-3 3H5c-1.66 0-3-1.35-3-3V8Zm3-1c-.56 0-1 .44-1 1v8c0 .55.44 1 1 1h10c.55 0 1-.45 1-1V8c0-.56-.45-1-1-1H5Z"/><path d="M20 8.41l-2 1.99v3.17l2 2V8.39Zm-.57-2.27c.94-.95 2.56-.28 2.56 1.06v9.58c0 1.33-1.62 2-2.57 1.06l-3.15-3.15c-.19-.19-.3-.45-.3-.71v-4c0-.27.1-.52.29-.71l3.14-3.15Z"/><path fill="#9545ED" d="M5.5 12l-.71.7c-.4-.4-.4-1.03 0-1.42l.7.7Zm9 0l.7.7c.39-.4.39-1.03 0-1.42l-.71.7ZM7 12c.17.13.36.28.57.43 .86.61 1.76 1.06 2.41 1.06 .65 0 1.55-.45 2.41-1.07 .2-.15.4-.3.57-.44 -.18-.14-.37-.29-.58-.44 -.87-.62-1.77-1.07-2.42-1.07 -.66 0-1.56.44-2.42 1.06 -.21.14-.41.29-.58.43Zm-.59-2.07c.88-.64 2.23-1.44 3.58-1.44 1.34 0 2.69.8 3.58 1.43 .47.33.87.67 1.15.92 .14.12.25.23.33.3 .03.03.07.06.09.08l.02.02 0 0 0 0 0 0s0 0-.71.7c.7.7.7.7.7.7l-.01 0 -.01 0 -.01 0 -.03.02c-.03.02-.06.05-.1.08 -.08.07-.2.18-.34.3 -.29.25-.69.58-1.16.92 -.89.63-2.24 1.43-3.59 1.43 -1.35 0-2.7-.81-3.59-1.44 -.48-.34-.88-.68-1.16-.93 -.15-.13-.26-.24-.34-.31 -.04-.04-.08-.07-.1-.09l-.03-.03 -.01-.01 -.01-.01 -.01-.01c-.01-.01 0 0 .7-.71 -.71-.71-.71-.71-.71-.71l0-.01 0-.01 0-.01 .02-.03c.02-.03.05-.06.09-.09 .07-.08.19-.19.33-.31 .28-.26.68-.59 1.15-.93Z"/></g></svg>