<svg viewBox="0 0 24 24" xmlns="http://www.w3.org/2000/svg"><g fill="#9545ED" fill-rule="evenodd"><path d="M16 17c-.28 0-.5.22-.5.5 0 .27.22.5.5.5 .27 0 .5-.23.5-.5 0-.28-.23-.5-.5-.5Zm-2.5.5c0-1.39 1.11-2.5 2.5-2.5 1.38 0 2.5 1.11 2.5 2.5 0 1.38-1.12 2.5-2.5 2.5 -1.39 0-2.5-1.12-2.5-2.5Z"/><path d="M8 16c-.28 0-.5.22-.5.5 0 .27.22.5.5.5 .27 0 .5-.23.5-.5 0-.28-.23-.5-.5-.5Zm-2.5.5C5.5 15.11 6.61 14 8 14c1.38 0 2.5 1.11 2.5 2.5 0 1.38-1.12 2.5-2.5 2.5 -1.39 0-2.5-1.12-2.5-2.5Z"/><path d="M16 11.5c-.28 0-.5.22-.5.5 0 .27.22.5.5.5 .27 0 .5-.23.5-.5 0-.28-.23-.5-.5-.5Zm-2.5.5c0-1.39 1.11-2.5 2.5-2.5 1.38 0 2.5 1.11 2.5 2.5 0 1.38-1.12 2.5-2.5 2.5 -1.39 0-2.5-1.12-2.5-2.5Z"/><path d="M8 10.5c-.28 0-.5.22-.5.5 0 .27.22.5.5.5 .27 0 .5-.23.5-.5 0-.28-.23-.5-.5-.5Zm-2.5.5c0-1.39 1.11-2.5 2.5-2.5 1.38 0 2.5 1.11 2.5 2.5 0 1.38-1.12 2.5-2.5 2.5 -1.39 0-2.5-1.12-2.5-2.5Z"/><path d="M16 6c-.28 0-.5.22-.5.5 0 .27.22.5.5.5 .27 0 .5-.23.5-.5 0-.28-.23-.5-.5-.5Zm-2.5.5C13.5 5.11 14.61 4 16 4c1.38 0 2.5 1.11 2.5 2.5C18.5 7.88 17.38 9 16 9c-1.39 0-2.5-1.12-2.5-2.5Z"/><path d="M8 5c-.28 0-.5.22-.5.5 0 .27.22.5.5.5 .27 0 .5-.23.5-.5 0-.28-.23-.5-.5-.5Zm-2.5.5C5.5 4.11 6.61 3 8 3c1.38 0 2.5 1.11 2.5 2.5C10.5 6.88 9.38 8 8 8 6.61 8 5.5 6.88 5.5 5.5Z"/><path d="M13 6v16h-2V6h2Z"/><path d="M11.55 19.1l3-1.5 .89 1.78 -3 1.5 -.9-1.79Z"/><path d="M12.44 18.1l-3.01-1.5 -.9 1.78 2.99 1.5 .89-1.79Z"/><path d="M11.55 13.6l3-1.5 .89 1.78 -3 1.5 -.9-1.79Z"/><path d="M12.44 12.6l-3.01-1.5 -.9 1.78 2.99 1.5 .89-1.79Z"/><path d="M11.55 8.1l3-1.5 .89 1.78 -3 1.5 -.9-1.79Z"/><path d="M12.44 7.1L9.43 5.6l-.9 1.78 2.99 1.5 .89-1.79Z"/><path fill="#3747D6" d="M3 4c0-1.66 1.34-3 3-3h12c1.65 0 3 1.34 3 3v16c0 1.65-1.35 3-3 3H6c-1.66 0-3-1.35-3-3V4Zm3-1c-.56 0-1 .44-1 1v16c0 .55.44 1 1 1h12c.55 0 1-.45 1-1V4c0-.56-.45-1-1-1H6Z"/></g></svg>