<svg viewBox="0 0 24 24" xmlns="http://www.w3.org/2000/svg"><g fill="#9545ED" fill-rule="evenodd"><path d="M1 9c0-.56.44-1 1-1h20c.55 0 1 .44 1 1 0 .55-.45 1-1 1H2c-.56 0-1-.45-1-1Z"/><path fill="#3747D6" d="M1 5c0-2.21 1.79-4 4-4h14c2.2 0 4 1.79 4 4v14c0 2.2-1.8 4-4 4H5c-2.21 0-4-1.8-4-4V5Zm4-2c-1.11 0-2 .89-2 2v14c0 1.1.89 2 2 2h14c1.1 0 2-.9 2-2V5c0-1.11-.9-2-2-2H5Z"/><path d="M6.5 5c-.28 0-.5.22-.5.5 0 .27.22.5.5.5 .27 0 .5-.23.5-.5 0-.28-.23-.5-.5-.5ZM4 5.5C4 4.11 5.11 3 6.5 3 7.88 3 9 4.11 9 5.5 9 6.88 7.88 8 6.5 8 5.11 8 4 6.88 4 5.5Z"/><path d="M19 6.5h-8v-2h8v2Z"/></g></svg>