<svg viewBox="0 0 24 24" xmlns="http://www.w3.org/2000/svg"><g fill="#3747D6" fill-rule="evenodd"><path d="M12 4c-3.86 0-7 3.16-7 7.1 0 2.22 1.69 4.44 3.66 6.22 .95.86 1.91 1.56 2.64 2.05 .26.18.5.33.68.45 .18-.12.42-.27.68-.46 .72-.5 1.68-1.2 2.64-2.06 1.97-1.79 3.66-4 3.66-6.23 0-3.94-3.15-7.1-7-7.1Zm0 17c-.5.87-.5.87-.5.87l-.01-.01 -.01-.01 -.01-.01 -.03-.02c-.02-.02-.05-.03-.08-.05 -.07-.04-.16-.1-.28-.17 -.23-.15-.56-.35-.95-.62 -.78-.53-1.82-1.29-2.86-2.23 -2.03-1.83-4.34-4.56-4.34-7.71 0-5.02 4.01-9.1 9-9.1 4.98 0 9 4.08 9 9.1 0 3.14-2.31 5.88-4.34 7.7 -1.05.94-2.09 1.7-2.86 2.22 -.39.26-.72.46-.95.61 -.12.07-.21.125-.28.16 -.04.01-.06.03-.08.04l-.03.01 -.01 0 -.01 0 -.01 0c-.01 0-.01 0-.5-.87Zm0 0l.49.87c-.31.17-.68.17-.99 0l.49-.88Z"/><g fill="#9545ED"><path d="M12 7.5c-.83 0-1.5.67-1.5 1.5 0 .82.67 1.5 1.5 1.5 .82 0 1.5-.68 1.5-1.5 0-.83-.68-1.5-1.5-1.5ZM8.5 9c0-1.94 1.56-3.5 3.5-3.5 1.93 0 3.5 1.56 3.5 3.5 0 1.93-1.57 3.5-3.5 3.5 -1.94 0-3.5-1.57-3.5-3.5Z"/><path d="M12 15c-1.82 0-3.41.96-4.29 2.41l-1.72-1.04c1.22-2.03 3.44-3.39 5.99-3.39 2.54 0 4.76 1.35 5.99 3.38l-1.72 1.03c-.88-1.46-2.47-2.42-4.282-2.42Z"/></g></g></svg>