<svg viewBox="0 0 24 24" xmlns="http://www.w3.org/2000/svg"><g fill="#9545ED" fill-rule="evenodd"><path d="M6.5 6.5C6.5 4.01 8.51 2 11 2h1c2.48 0 4.5 2.01 4.5 4.5V9h-2V6.5C14.5 5.11 13.38 4 12 4h-1C9.61 4 8.5 5.11 8.5 6.5V9h-2V6.5Z"/><path d="M11.5 13c-.28 0-.5.22-.5.5 0 .27.22.5.5.5 .27 0 .5-.23.5-.5 0-.28-.23-.5-.5-.5Zm-2.5.5c0-1.39 1.11-2.5 2.5-2.5 1.38 0 2.5 1.11 2.5 2.5 0 1.38-1.12 2.5-2.5 2.5 -1.39 0-2.5-1.12-2.5-2.5Z"/><path d="M9.76 17h3.46c-.35-.6-1-1-1.74-1 -.75 0-1.39.4-1.74 1Zm-2.27 1c0-2.21 1.79-4 4-4 2.2 0 4 1.79 4 4 0 .55-.45 1-1 1h-6c-.56 0-1-.45-1-1Z"/><path fill="#3747D6" d="M4 10.5C4 9.11 5.11 8 6.5 8h10c1.38 0 2.5 1.11 2.5 2.5v9c0 1.38-1.12 2.5-2.5 2.5h-10C5.11 22 4 20.88 4 19.5v-9Zm2.5-.5c-.28 0-.5.22-.5.5v9c0 .27.22.5.5.5h10c.27 0 .5-.23.5-.5v-9c0-.28-.23-.5-.5-.5h-10Z"/></g></svg>