<svg viewBox="0 0 24 24" xmlns="http://www.w3.org/2000/svg"><g fill="#3747D6" fill-rule="evenodd"><path d="M1 2c0-.56.44-1 1-1h8.5c.55 0 1 .44 1 1v8.5c0 .55-.45 1-1 1H2c-.56 0-1-.45-1-1V2Zm2 1v6.5h6.5V3H3Z"/><path d="M1 13.5c0-.56.44-1 1-1h8.5c.55 0 1 .44 1 1V22c0 .55-.45 1-1 1H2c-.56 0-1-.45-1-1v-8.5Zm2 1V21h6.5v-6.5H3Z"/><g fill="#9545ED"><path d="M3.5 4.5c0-.56.44-1 1-1H8c.55 0 1 .44 1 1V8c0 .55-.45 1-1 1H4.5c-.56 0-1-.45-1-1V4.5Zm2 1V7H7V5.5H5.5Z"/><path d="M3.5 16c0-.56.44-1 1-1H8c.55 0 1 .44 1 1v3.5c0 .55-.45 1-1 1H4.5c-.56 0-1-.45-1-1V16Zm2 1v1.5H7V17H5.5Z"/><path d="M15 4.5c0-.56.44-1 1-1h3.5c.55 0 1 .44 1 1V8c0 .55-.45 1-1 1H16c-.56 0-1-.45-1-1V4.5Zm2 1V7h1.5V5.5H17Z"/></g><path d="M12.5 2c0-.56.44-1 1-1H22c.55 0 1 .44 1 1v8.5c0 .55-.45 1-1 1h-8.5c-.56 0-1-.45-1-1V2Zm2 1v6.5H21V3h-6.5Z"/><g fill="#9545ED"><path d="M13 12.5h9v2h-9v-2Z"/><path d="M19 18h-3v-2h3v2Z"/><path d="M16 22h-3v-2h3v2Z"/><path d="M22 22h-3v-2h3v2Z"/></g></g></svg>