<svg viewBox="0 0 24 24" xmlns="http://www.w3.org/2000/svg"><g fill="#9545ED" fill-rule="evenodd"><path d="M16 13c-.28 0-.5.22-.5.5 0 .27.22.5.5.5 .27 0 .5-.23.5-.5 0-.28-.23-.5-.5-.5Zm-2.5.5c0-1.39 1.11-2.5 2.5-2.5 1.38 0 2.5 1.11 2.5 2.5 0 1.38-1.12 2.5-2.5 2.5 -1.39 0-2.5-1.12-2.5-2.5Z"/><path d="M8 13c-.28 0-.5.22-.5.5 0 .27.22.5.5.5 .27 0 .5-.23.5-.5 0-.28-.23-.5-.5-.5Zm-2.5.5C5.5 12.11 6.61 11 8 11c1.38 0 2.5 1.11 2.5 2.5 0 1.38-1.12 2.5-2.5 2.5 -1.39 0-2.5-1.12-2.5-2.5Z"/><path d="M13.02 1.12c.25-.14.55-.17.83-.06l4 1.5 -.71 1.87 -2.92-1.1 -1.26 5.86L11 8.77l1.5-7c.06-.29.24-.53.49-.67Z"/><path d="M10.02 18.046c.45.26 1.154.45 1.97.45 .82 0 1.52-.2 1.97-.46 .48-.28.52-.51.52-.55h2c0 1.06-.75 1.83-1.529 2.28 -.82.46-1.87.71-2.971.71 -1.11 0-2.17-.26-2.98-.72 -.79-.45-1.53-1.22-1.53-2.29h2c0 .03.03.26.52.54Z"/><g fill="#3747D6"><path d="M1 11c0-2.21 1.79-4 4-4 1.29 0 2.44.61 3.17 1.56 1.18-.37 2.47-.57 3.82-.57 1.35 0 2.64.19 3.82.56 .73-.96 1.87-1.57 3.17-1.57 2.2 0 4 1.79 4 4 0 1.13-.48 2.15-1.23 2.88 .15.51.22 1.05.22 1.61 0 2.19-1.24 4.09-3.06 5.4 -1.82 1.31-4.28 2.09-6.95 2.09 -2.68 0-5.14-.79-6.95-2.1 -1.82-1.32-3.06-3.22-3.06-5.41 0-.56.07-1.1.22-1.62 -.76-.73-1.23-1.76-1.23-2.89Zm4-2c-1.11 0-2 .89-2 2 0 .71.37 1.34.94 1.69 .42.26.58.79.38 1.24 -.22.49-.34 1.01-.34 1.55 0 1.39.77 2.74 2.22 3.78 1.44 1.04 3.48 1.71 5.77 1.71 2.29 0 4.33-.68 5.77-1.72 1.44-1.05 2.22-2.4 2.22-3.79 0-.54-.12-1.06-.34-1.56 -.2-.46-.04-.99.38-1.25 .56-.36.94-.99.94-1.7 0-1.11-.9-2-2-2 -.82 0-1.52.48-1.83 1.18 -.22.48-.78.71-1.28.52 -1.15-.45-2.48-.71-3.9-.71 -1.43 0-2.75.25-3.9.7 -.5.19-1.06-.04-1.28-.53 -.32-.7-1.02-1.19-1.83-1.19Z"/><path d="M19 3c-.28 0-.5.22-.5.5 0 .27.22.5.5.5 .27 0 .5-.23.5-.5 0-.28-.23-.5-.5-.5Zm-2.5.5C16.5 2.11 17.61 1 19 1c1.38 0 2.5 1.11 2.5 2.5C21.5 4.88 20.38 6 19 6c-1.39 0-2.5-1.12-2.5-2.5Z"/></g></g></svg>