<svg viewBox="0 0 24 24" xmlns="http://www.w3.org/2000/svg"><g fill="#9545ED" fill-rule="evenodd"><path d="M4 6c0-.56.44-1 1-1h7c.55 0 1 .44 1 1v8c0 .55-.45 1-1 1H5c-.56 0-1-.45-1-1V6Zm2 1v6h5V7H6Z"/><path d="M19.5 7h-5V5h5v2Z"/><path d="M19.5 15h-5v-2h5v2Z"/><path d="M19.5 11h-5V9h5v2Z"/><path fill="#3747D6" d="M4 4c-.56 0-1 .44-1 1v10c0 .55.44 1 1 1h3c.55 0 1 .44 1 1v1.82l3.01-2.59c.18-.16.41-.25.65-.25h8.33c.55 0 1-.45 1-1v-10c0-.56-.45-1-1-1h-16ZM1 5c0-1.66 1.34-3 3-3h16c1.65 0 3 1.34 3 3v10c0 1.65-1.35 3-3 3h-7.97l-4.39 3.75c-.3.25-.72.31-1.07.14 -.36-.17-.59-.52-.59-.91v-3h-2c-1.66 0-3-1.35-3-3v-10Z"/></g></svg>