<svg viewBox="0 0 24 24" xmlns="http://www.w3.org/2000/svg"><g fill="#3747D6" fill-rule="evenodd"><path d="M11 6c0-.56.44-1 1-1 2.54 0 4.84 1.17 6.08 3.01 .13-.02.27-.02.41-.02 2.48 0 4.5 2.01 4.5 4.5 0 2.48-2.02 4.5-4.5 4.5h-6.5c-.56 0-1-.45-1-1v-10Zm2 1.07v7.92h5.5c1.38 0 2.5-1.12 2.5-2.5 0-1.39-1.12-2.5-2.5-2.5 -.24 0-.46.03-.67.09 -.47.12-.96-.1-1.17-.53 -.59-1.21-1.94-2.21-3.67-2.49Z"/><g fill="#9545ED"><path d="M10.5 5v12h-2V5h2Z"/><path d="M8 9v8H6V9h2Z"/><path d="M5.5 7v10h-2V7h2Z"/><path d="M3 12v5H1v-5h2Z"/></g></g></svg>