<svg viewBox="0 0 24 24" xmlns="http://www.w3.org/2000/svg"><g fill="#3747D6" fill-rule="evenodd"><path d="M3 5c0-1.11.89-2 2-2h14c1.1 0 2 .89 2 2v14c0 1.1-.9 2-2 2H5c-1.11 0-2-.9-2-2V5Zm16 0H5v14h14V5Z"/><g fill="#9545ED"><path d="M12 8c-.56 0-1 .44-1 1 0 .55.44 1 1 1 .55 0 1-.45 1-1 0-.56-.45-1-1-1ZM9 9c0-1.66 1.34-3 3-3 1.65 0 3 1.34 3 3 0 1.65-1.35 3-3 3 -1.66 0-3-1.35-3-3Z"/><path d="M9.17 16h5.65c-.42-1.17-1.53-2-2.83-2 -1.31 0-2.42.83-2.83 2Zm-2.18 1c0-2.77 2.23-5 5-5 2.76 0 5 2.23 5 5 0 .55-.45 1-1 1h-8c-.56 0-1-.45-1-1Z"/></g></g></svg>