<svg viewBox="0 0 24 24" xmlns="http://www.w3.org/2000/svg"><g fill="#3747D6" fill-rule="evenodd"><path d="M15.55 1.67c.13-.41.51-.68.94-.68h4c.32 0 .62.15.81.41 .18.26.23.6.13.9l-4.35 12.54 4.23 6.59c.19.3.21.69.03 1.02 -.18.32-.52.52-.88.52h-4c-.35 0-.66-.18-.85-.46l-4.5-7c-.17-.26-.21-.58-.11-.87l4.5-13Zm1.65 1.32l-4.11 11.868 3.94 6.132h1.62l-3.51-5.46c-.17-.26-.21-.58-.11-.87l4.04-11.68h-1.89Z"/><path fill="#9545ED" d="M8.42 18.37c-.16.37-.52.62-.93.62h-4c-.34 0-.65-.17-.83-.44 -.19-.28-.23-.63-.11-.94l2.79-6.98 -2.67-3.56c-.23-.31-.27-.71-.1-1.05 .16-.34.51-.56.89-.56h4c.31 0 .61.14.8.4l3 4c.2.27.25.64.12.97l-3.01 7.5Zm-1.61-1.38l2.53-6.35 -2.37-3.16h-1.5l1.8 2.4c.2.27.25.64.12.97l-2.46 6.12h1.84Z"/></g></svg>