<svg viewBox="0 0 24 24" xmlns="http://www.w3.org/2000/svg"><g fill="#3747D6" fill-rule="evenodd"><path d="M9.5 6.5V8h-2V6.5h2Z"/><path d="M9.5 12v1.5h-2V12h2Z"/><path d="M5 9h1.5v2H5V9Z"/><path d="M10.5 9H12v2h-1.5V9Z"/><path d="M5.31 11.76l1.06-1.07 1.41 1.41 -1.07 1.06 -1.42-1.42Z"/><path d="M9.2 7.87l1.06-1.07 1.41 1.41 -1.07 1.06 -1.42-1.42Z"/><path d="M11.68 11.76l-1.07-1.07 -1.42 1.41 1.06 1.06 1.41-1.42Z"/><path d="M7.79 7.87L6.72 6.8 5.3 8.21l1.06 1.06 1.41-1.42Z"/><g fill="#9545ED"><path d="M3 18c0-.56.44-1 1-1h4c.55 0 1 .44 1 1v2.5c0 .55-.45 1-1 1H4c-.56 0-1-.45-1-1V18Zm2 1v.5h2V19H5Z"/><path d="M15 18c0-.56.44-1 1-1h4c.55 0 1 .44 1 1v2.5c0 .55-.45 1-1 1h-4c-.56 0-1-.45-1-1V18Zm2 1v.5h2V19h-2Z"/><path d="M1 4c0-1.11.89-2 2-2h18c1.1 0 2 .89 2 2v13c0 1.1-.9 2-2 2H3c-1.11 0-2-.9-2-2V4Zm20 0H3v13h18V4Z"/></g><path d="M8.5 9c-.56 0-1 .44-1 1 0 .55.44 1 1 1 .55 0 1-.45 1-1 0-.56-.45-1-1-1Zm-3 1c0-1.66 1.34-3 3-3 1.65 0 3 1.34 3 3 0 1.65-1.35 3-3 3 -1.66 0-3-1.35-3-3Z"/><path d="M18 9h-2V7h2v2Z"/><path d="M18 13h-2v-2h2v2Z"/></g></svg>