<svg viewBox="0 0 24 24" xmlns="http://www.w3.org/2000/svg"><path fill="#8B98A6" d="M10 1.25c-.42 0-.75.33-.75.75v1.69c-.41.13-.81.29-1.19.48l-1.2-1.2c-.3-.3-.77-.3-1.07 0L2.96 5.79c-.3.29-.3.76 0 1.06l1.19 1.19c-.2.37-.36.77-.49 1.18h-1.7c-.42 0-.75.33-.75.75v4c0 .41.33.75.75.75h1.69c.13.4.29.8.48 1.18l-1.2 1.19c-.3.29-.3.76 0 1.06l2.82 2.82c.29.29.76.29 1.06 0L8 19.77c.37.19.77.35 1.18.48v1.69c0 .41.33.75.75.75h4c.41 0 .75-.34.75-.75v-1.7c.4-.14.8-.3 1.18-.49l1.19 1.19c.29.29.76.29 1.06 0l2.82-2.83c.14-.15.21-.34.21-.54s-.08-.39-.22-.54l-1.2-1.2c.19-.38.35-.78.48-1.19h1.69c.41 0 .75-.34.75-.75v-4c0-.42-.34-.75-.75-.75h-1.7c-.14-.41-.3-.81-.49-1.19l1.19-1.2c.14-.15.21-.34.21-.54s-.08-.39-.22-.54l-2.83-2.83c-.3-.3-.77-.3-1.07 0l-1.2 1.19c-.38-.2-.78-.36-1.19-.49v-1.7c0-.42-.34-.75-.75-.75h-4Z"/><g fill="#ECEFF1"><path d="M17.25 8c0-.25-.12-.48-.32-.62 -.21-.15-.46-.18-.69-.1l-5.5 2c-.3.1-.5.38-.5.7v3c0 .31.19.59.49.7l5.5 2c.22.08.48.04.68-.1 .2-.15.31-.37.31-.62v-7Z"/><path fill="#ECEFF1" fill-rule="evenodd" d="M9.29 12.27c.39-.12.81.11.92.51l1 3.5c.11.39-.12.81-.52.92 -.4.11-.82-.12-.93-.52l-1-3.5c-.12-.4.11-.82.51-.93Z"/></g><path fill="#CFD8DC" d="M8 9.25c-.42 0-.75.33-.75.75v3c0 .41.33.75.75.75h3c.41 0 .75-.34.75-.75v-3c0-.42-.34-.75-.75-.75H8Z"/></svg>