<svg viewBox="0 0 24 24" xmlns="http://www.w3.org/2000/svg"><g fill="#EE4D4D" fill-rule="evenodd"><path d="M12 2.75c-5.11 0-9.25 4.14-9.25 9.25 0 5.1 4.14 9.25 9.25 9.25 5.1 0 9.25-4.15 9.25-9.25 0-5.11-4.15-9.25-9.25-9.25ZM1.25 12C1.25 6.06 6.06 1.25 12 1.25c5.93 0 10.75 4.81 10.75 10.75 0 5.93-4.82 10.75-10.75 10.75 -5.94 0-10.75-4.82-10.75-10.75Z"/><g fill="#A2ADB8"><path d="M6.75 10.5c0-1.25 1-2.25 2.25-2.25 1.24 0 2.25 1 2.25 2.25V15c0 .41-.34.75-.75.75 -.42 0-.75-.34-.75-.75v-2.25h-1.5V15c0 .41-.34.75-.75.75 -.42 0-.75-.34-.75-.75v-4.5Zm1.5.75h1.5v-.75c0-.42-.34-.75-.75-.75 -.42 0-.75.33-.75.75v.75Z"/><path d="M12.75 9c0-.42.33-.75.75-.75h1c1.51 0 2.75 1.23 2.75 2.75v2c0 1.51-1.24 2.75-2.75 2.75h-1c-.42 0-.75-.34-.75-.75V9Zm1.5.75v4.5h.25c.69 0 1.25-.56 1.25-1.25v-2c0-.7-.56-1.25-1.25-1.25h-.25Z"/></g><path d="M4.46 4.46c.29-.3.76-.3 1.06 0l14 14c.29.29.29.76 0 1.06 -.3.29-.77.29-1.07 0l-14-14c-.3-.3-.3-.77-.001-1.07Z"/></g></svg>