<svg viewBox="0 0 24 24" xmlns="http://www.w3.org/2000/svg"><path fill="#F17171" d="M6.5 8.25c-.23 0-.44.09-.58.26l-2.28 2.73h-.65c-.97 0-1.75.78-1.75 1.75v4c0 .41.33.75.75.75h8c.41 0 .75-.34.75-.75v-8c0-.42-.34-.75-.75-.75h-3.5Z"/><path fill="#EE4D4D" d="M22 4.25c.41 0 .75.33.75.75v12c0 .41-.34.75-.75.75H10c-.42 0-.75-.34-.75-.75V5c0-.42.33-.75.75-.75h12Z"/><g fill="#CFD8DC"><path d="M6 14.25c-1.52 0-2.75 1.23-2.75 2.75 0 1.51 1.23 2.75 2.75 2.75 1.51 0 2.75-1.24 2.75-2.75 0-1.52-1.24-2.75-2.75-2.75Z"/><path d="M17 14.25c-1.52 0-2.75 1.23-2.75 2.75 0 1.51 1.23 2.75 2.75 2.75 1.51 0 2.75-1.24 2.75-2.75 0-1.52-1.24-2.75-2.75-2.75Z"/></g><path fill="#ECEFF1" d="M12.5 6.75c-.42 0-.75.33-.75.75V13c0 .41.33.75.75.75h7c.41 0 .75-.34.75-.75V7.5c0-.42-.34-.75-.75-.75h-7Z"/><path fill="#F17171" fill-rule="evenodd" d="M11.75 12.625l.29-.22 6.99-5.5 .01-.02 .2-.15h.25c.41 0 .75.33.75.75v.37l-.3.21 -7 5.49 -.02.01 -.2.15h-.25c-.42 0-.75-.34-.75-.75v-.375Z"/></svg>