<svg viewBox="0 0 24 24" xmlns="http://www.w3.org/2000/svg"><path fill="#EE4D4D" fill-rule="evenodd" d="M19.512 9.43c.29-.26.74-.24 1.01.03l2 2c.29.29.29.76 0 1.06 -.3.29-.77.29-1.07 0l-1.51-1.51 -6.48 5.54c-.3.25-.75.23-1.02-.04l-2.58-2.58 -7.5 4.68c-.36.21-.82.11-1.04-.24 -.22-.36-.12-.82.23-1.04l8-5c.29-.19.68-.15.92.1l2.5 2.5 6.47-5.55Z"/><g fill="#CFD8DC"><path d="M6.29 1.31c-.29-.13-.61-.06-.83.15 -.22.21-.28.54-.16.82l3 7c.11.25.35.43.63.45 .28.01.54-.13.69-.37l1-1.68L11.94 9c.29.29.76.29 1.06 0 .29-.3.29-.77 0-1.07L11.67 6.6l1.67-1.01c.24-.15.38-.42.36-.7 -.02-.29-.2-.53-.46-.64l-7.01-3Z"/><path fill="#CFD8DC" fill-rule="evenodd" d="M2 1.25c.41 0 .75.33.75.75v19.25H22c.41 0 .75.33.75.75 0 .41-.34.75-.75.75H2c-.42 0-.75-.34-.75-.75V2c0-.42.33-.75.75-.75Z"/></g></svg>