<svg viewBox="0 0 24 24" xmlns="http://www.w3.org/2000/svg"><g fill="#CFD8DC" fill-rule="evenodd"><path d="M2 11.25c.41 0 .75.33.75.75v10c0 .41-.34.75-.75.75 -.42 0-.75-.34-.75-.75V12c0-.42.33-.75.75-.75Z"/><path d="M22 11.25c.41 0 .75.33.75.75v10c0 .41-.34.75-.75.75 -.42 0-.75-.34-.75-.75V12c0-.42.33-.75.75-.75Z"/><path d="M6 11.25c.41 0 .75.33.75.75v5c0 .41-.34.75-.75.75 -.42 0-.75-.34-.75-.75v-5c0-.42.33-.75.75-.75Z"/><path d="M18 11.25c.41 0 .75.33.75.75v5c0 .41-.34.75-.75.75 -.42 0-.75-.34-.75-.75v-5c0-.42.33-.75.75-.75Z"/></g><path fill="#F17171" d="M2 7.25c-.42 0-.75.33-.75.75v4c0 .41.33.75.75.75h20c.41 0 .75-.34.75-.75V8c0-.42-.34-.75-.75-.75H2Z"/><path fill="#EE4D4D" d="M12.38 1.35c-.24-.15-.54-.15-.78 0l-10 6c-.29.17-.43.51-.34.84 .08.32.38.54.72.54h20c.33 0 .63-.23.72-.55 .08-.33-.05-.67-.34-.85l-10-6Z"/></svg>