<svg viewBox="0 0 24 24" xmlns="http://www.w3.org/2000/svg"><path fill="#8B98A6" fill-rule="evenodd" d="M14.96 14.96c.29-.3.76-.3 1.06 0l6.5 6.5c.29.29.29.76 0 1.06 -.3.29-.77.29-1.07 0l-6.5-6.5c-.3-.3-.3-.77 0-1.07Z"/><path fill="#ECEFF1" d="M10 1.25c-4.84 0-8.75 3.91-8.75 8.75 0 4.83 3.91 8.75 8.75 8.75 4.83 0 8.75-3.92 8.75-8.75 0-4.84-3.92-8.75-8.75-8.75Z"/><g fill="#8B98A6" fill-rule="evenodd"><path d="M10 2.75c-4.01 0-7.25 3.24-7.25 7.25 0 4 3.24 7.25 7.25 7.25 4 0 7.25-3.25 7.25-7.25 0-4.01-3.25-7.25-7.25-7.25ZM1.25 10c0-4.84 3.91-8.75 8.75-8.75 4.83 0 8.75 3.91 8.75 8.75 0 4.83-3.92 8.75-8.75 8.75 -4.84 0-8.75-3.92-8.75-8.75Z"/><g fill="#FFC44D"><path d="M13.5 8.75c-.7 0-1.25.55-1.25 1.25 0 .69.55 1.25 1.25 1.25 .69 0 1.25-.56 1.25-1.25 0-.7-.56-1.25-1.25-1.25ZM10.75 10c0-1.52 1.23-2.75 2.75-2.75 1.51 0 2.75 1.23 2.75 2.75 0 1.51-1.24 2.75-2.75 2.75 -1.52 0-2.75-1.24-2.75-2.75Z"/><path d="M4.25 10c0-.42.33-.75.75-.75h6.5c.41 0 .75.33.75.75 0 .41-.34.75-.75.75H8.25V12c0 .41-.34.75-.75.75 -.42 0-.75-.34-.75-.75v-1.25h-1v1.75c0 .41-.34.75-.75.75 -.42 0-.75-.34-.75-.75V10Z"/></g></g></svg>