<svg viewBox="0 0 24 24" xmlns="http://www.w3.org/2000/svg"><path fill="#4DC4FF" d="M12 1.25C6.06 1.25 1.25 6.06 1.25 12c0 5.93 4.81 10.75 10.75 10.75 5.93 0 10.75-4.82 10.75-10.75 0-5.94-4.82-10.75-10.75-10.75Z"/><g fill="#5E94FF" fill-rule="evenodd"><path d="M12 2.75c-5.11 0-9.25 4.14-9.25 9.25 0 5.1 4.14 9.25 9.25 9.25 5.1 0 9.25-4.15 9.25-9.25 0-5.11-4.15-9.25-9.25-9.25ZM1.25 12C1.25 6.06 6.06 1.25 12 1.25c5.93 0 10.75 4.81 10.75 10.75 0 5.93-4.82 10.75-10.75 10.75 -5.94 0-10.75-4.82-10.75-10.75Z"/><path d="M7.66 5.35c-1.17 1.66-1.92 4.01-1.92 6.64 0 2.62.74 4.97 1.91 6.64 1.16 1.67 2.71 2.6 4.33 2.6s3.16-.94 4.33-2.61c1.16-1.67 1.91-4.02 1.91-6.641 0-2.63-.75-4.98-1.92-6.65 -1.17-1.68-2.72-2.61-4.34-2.61 -1.63 0-3.17.93-4.34 2.6Zm-1.23-.87c1.36-1.95 3.31-3.25 5.56-3.25 2.24 0 4.2 1.3 5.56 3.24 1.36 1.95 2.18 4.6 2.18 7.5 0 2.89-.83 5.55-2.19 7.5 -1.37 1.94-3.32 3.24-5.57 3.24 -2.25 0-4.21-1.31-5.57-3.25 -1.37-1.96-2.19-4.61-2.19-7.51 0-2.9.82-5.56 2.18-7.51Z"/><path d="M12 1.25c.41 0 .75.33.75.75v5c0 .41-.34.75-.75.75 -.42 0-.75-.34-.75-.75V2c0-.42.33-.75.75-.75Zm0 15c.41 0 .75.33.75.75v5c0 .41-.34.75-.75.75 -.42 0-.75-.34-.75-.75v-5c0-.42.33-.75.75-.75Z"/><path d="M18.25 12c0-.42.33-.75.75-.75h3c.41 0 .75.33.75.75 0 .41-.34.75-.75.75h-3c-.42 0-.75-.34-.75-.75Z"/><path d="M1.25 12c0-.42.33-.75.75-.75h3c.41 0 .75.33.75.75 0 .41-.34.75-.75.75H2c-.42 0-.75-.34-.75-.75Z"/></g><g fill="#ECEFF1"><path d="M16.75 8c0-.25-.12-.48-.32-.62 -.21-.15-.46-.18-.69-.1l-5.5 2c-.3.1-.5.38-.5.7v3c0 .31.19.59.49.7l5.5 2c.22.08.48.04.68-.1 .2-.15.31-.37.31-.62v-7Z"/><path fill="#ECEFF1" fill-rule="evenodd" d="M8.79 12.27c.39-.12.81.11.92.51l1 3.5c.11.39-.12.81-.52.92 -.4.11-.82-.12-.93-.52l-1-3.5c-.12-.4.11-.82.51-.93Z"/></g><path fill="#CFD8DC" d="M7.5 9.25c-.42 0-.75.33-.75.75v3c0 .41.33.75.75.75h3c.41 0 .75-.34.75-.75v-3c0-.42-.34-.75-.75-.75h-3Z"/></svg>