<svg viewBox="0 0 24 24" xmlns="http://www.w3.org/2000/svg"><path fill="#ECEFF1" d="M2 1.25c-.42 0-.75.33-.75.75v20c0 .41.33.75.75.75h20c.41 0 .75-.34.75-.75V2c0-.42-.34-.75-.75-.75H2Z"/><path fill="#EE4D4D" d="M6.5 4.25C4.98 4.25 3.75 5.48 3.75 7v10c0 1.51 1.23 2.75 2.75 2.75h11c1.51 0 2.75-1.24 2.75-2.75V7c0-1.52-1.24-2.75-2.75-2.75h-11Z"/><g fill="#ECEFF1"><path d="M17.25 8c0-.25-.12-.48-.32-.62 -.21-.15-.46-.18-.69-.1l-5.5 2c-.3.1-.5.38-.5.7v3c0 .31.19.59.49.7l5.5 2c.22.08.48.04.68-.1 .2-.15.31-.37.31-.62v-7Z"/><path fill="#ECEFF1" fill-rule="evenodd" d="M9.29 12.27c.39-.12.81.11.92.51l1 3.5c.11.39-.12.81-.52.92 -.4.11-.82-.12-.93-.52l-1-3.5c-.12-.4.11-.82.51-.93Z"/></g><path fill="#CFD8DC" d="M8 9.25c-.42 0-.75.33-.75.75v3c0 .41.33.75.75.75h3c.41 0 .75-.34.75-.75v-3c0-.42-.34-.75-.75-.75H8Z"/></svg>