<svg viewBox="0 0 24 24" xmlns="http://www.w3.org/2000/svg"><g fill="#A2ADB8" fill-rule="evenodd"><path d="M6.25 8.5c0-.42.33-.75.75-.75h3.5c.41 0 .75.33.75.75 0 .41-.34.75-.75.75H7c-.42 0-.75-.34-.75-.75Z"/><path d="M17.75 8.5c0-.42-.34-.75-.75-.75h-3.5c-.42 0-.75.33-.75.75 0 .41.33.75.75.75H17c.41 0 .75-.34.75-.75Z"/></g><path fill="#CFD8DC" d="M10.5 5.25c-.42 0-.75.33-.75.75v16c0 .41.33.75.75.75h3c.41 0 .75-.34.75-.75V6c0-.42-.34-.75-.75-.75h-3Z"/><path fill="#A2ADB8" d="M11.5 1.25C9.98 1.25 8.75 2.48 8.75 4v2c0 .41.33.75.75.75h5c.41 0 .75-.34.75-.75V4c0-1.52-1.24-2.75-2.75-2.75h-1Z"/><g fill="#EE4D4D"><path d="M2 7.75c-.42 0-.75.33-.75.75v11c0 .29.16.55.43.67 .26.12.57.08.79-.11l2.51-2.1 2.51 2.09c.22.18.53.22.79.1 .26-.13.43-.39.43-.68v-11c0-.42-.34-.75-.75-.75h-6Z"/><path d="M22 7.75c.41 0 .75.33.75.75v11c0 .29-.17.55-.44.67s-.58.08-.8-.11l-2.52-2.1 -2.52 2.09c-.23.18-.54.22-.8.1 -.27-.13-.44-.39-.44-.68v-11c0-.42.33-.75.75-.75h6Z"/></g></svg>