<svg viewBox="0 0 24 24" xmlns="http://www.w3.org/2000/svg"><path fill="#EE4D4D" d="M12.57 1.51c-.15-.17-.36-.27-.58-.27 -.23 0-.43.09-.58.26L9.36 3.91l-3.08-.76c-.22-.06-.45-.01-.62.12 -.18.12-.3.33-.31.55l-.24 3.16 -2.94 1.2c-.21.08-.37.25-.43.46 -.07.2-.05.43.07.62l1.66 2.69 -1.67 2.69c-.12.18-.15.41-.08.62 .06.2.22.37.42.46l2.93 1.2 .23 3.16c.01.21.12.42.3.55 .17.12.4.17.61.12l3.07-.76 2.04 2.41c.14.16.35.26.57.26 .22 0 .42-.1.57-.27l2.04-2.42 3.07.75c.21.05.44 0 .61-.13 .17-.13.29-.34.3-.56l.23-3.17 2.93-1.21c.2-.09.36-.26.42-.47 .06-.21.04-.44-.08-.63l-1.67-2.7 1.66-2.7c.11-.19.14-.42.07-.63 -.07-.21-.23-.38-.43-.47l-2.94-1.21 -.24-3.17c-.02-.22-.13-.43-.31-.56 -.18-.13-.41-.18-.62-.13l-3.08.75 -2.05-2.42Z"/><g fill="#ECEFF1"><path d="M9.5 6.25c-1.25 0-2.25 1-2.25 2.25 0 1.24 1 2.25 2.25 2.25 1.24 0 2.25-1.01 2.25-2.25 0-1.25-1.01-2.25-2.25-2.25Z"/><path d="M14.5 13.25c-1.25 0-2.25 1-2.25 2.25 0 1.24 1 2.25 2.25 2.25 1.24 0 2.25-1.01 2.25-2.25 0-1.25-1.01-2.25-2.25-2.25Z"/><path fill="#ECEFF1" fill-rule="evenodd" d="M16.53 7.46c.29.29.29.76 0 1.06l-8 7.99c-.3.29-.77.29-1.07 0 -.3-.3-.3-.77 0-1.07l8-8.01c.29-.3.76-.3 1.06-.001Z"/></g></svg>