<svg viewBox="0 0 24 24" xmlns="http://www.w3.org/2000/svg"><path fill="#EE4D4D" d="M9.75 3c0-.25-.13-.49-.33-.63 -.21-.14-.47-.17-.7-.08l-5 2c-.2.07-.36.24-.43.44l-2 5.57c-.14.36.03.76.38.93l2.57 1.21v8.52c0 .41.33.75.75.75h14c.41 0 .75-.34.75-.75v-8.53l2.57-1.22c.34-.17.51-.57.38-.94l-2-5.58c-.08-.21-.23-.37-.43-.45l-5-2c-.24-.1-.5-.07-.7.07 -.21.13-.33.37-.33.62 0 1.15-1.09 2.25-2.25 2.25 -1.17 0-2.25-1.1-2.25-2.25Z"/><g fill="#ECEFF1" fill-rule="evenodd"><path d="M6.75 10.5c0-1.25 1-2.25 2.25-2.25 1.24 0 2.25 1 2.25 2.25v3c0 .41-.34.75-.75.75 -.42 0-.75-.34-.75-.75v-1.25h-1.5v1.25c0 .41-.34.75-.75.75 -.42 0-.75-.34-.75-.75v-3Zm1.5.25h1.5v-.25c0-.42-.34-.75-.75-.75 -.42 0-.75.33-.75.75v.25Z"/><path d="M12.75 9c0-.42.33-.75.75-.75h1c1.51 0 2.75 1.23 2.75 2.75v.5c0 1.51-1.24 2.75-2.75 2.75h-1c-.42 0-.75-.34-.75-.75V9Zm1.5.75v3h.25c.69 0 1.25-.56 1.25-1.25V11c0-.7-.56-1.25-1.25-1.25h-.25Z"/></g></svg>