<svg viewBox="0 0 24 24" xmlns="http://www.w3.org/2000/svg"><path fill="#EE4D4D" d="M9.75 3c0-.25-.13-.49-.33-.63 -.21-.14-.47-.17-.7-.08l-5 2c-.2.07-.36.24-.43.44l-2 5.57c-.14.36.03.76.38.93l2.57 1.21v8.52c0 .41.33.75.75.75h14c.41 0 .75-.34.75-.75v-8.53l2.57-1.22c.34-.17.51-.57.38-.94l-2-5.58c-.08-.21-.23-.37-.43-.45l-5-2c-.24-.1-.5-.07-.7.07 -.21.13-.33.37-.33.62 0 1.15-1.09 2.25-2.25 2.25 -1.17 0-2.25-1.1-2.25-2.25Z"/><g fill="#ECEFF1"><path d="M17.25 8.5c0-.25-.12-.48-.32-.62 -.21-.15-.46-.18-.69-.1l-5.5 2c-.3.1-.5.38-.5.7v3c0 .31.19.59.49.7l5.5 2c.22.08.48.04.68-.1 .2-.15.31-.37.31-.62v-7Z"/><path fill="#ECEFF1" fill-rule="evenodd" d="M9.29 12.77c.39-.12.81.11.92.51l1 3.5c.11.39-.12.81-.52.92 -.4.11-.82-.12-.93-.52l-1-3.5c-.12-.4.11-.82.51-.93Z"/></g><path fill="#CFD8DC" fill-rule="evenodd" d="M8 9.75c-.42 0-.75.33-.75.75v3c0 .41.33.75.75.75h3c.41 0 .75-.34.75-.75v-3c0-.42-.34-.75-.75-.75H8Z"/></svg>