<svg viewBox="0 0 24 24" xmlns="http://www.w3.org/2000/svg"><path fill="#CFD8DC" fill-rule="evenodd" d="M7.25 6.5c0-2.63 2.12-4.75 4.75-4.75 2.62 0 4.75 2.12 4.75 4.75v1c0 .41-.34.75-.75.75H8c-.42 0-.75-.34-.75-.75v-1ZM12 3.25c-1.8 0-3.25 1.45-3.25 3.25v.25h6.5V6.5c0-1.8-1.46-3.25-3.25-3.25Z"/><path fill="#EE4D4D" d="M5.5 6.75c-.4 0-.73.3-.75.69l-1 14c-.02.2.05.41.19.56 .14.15.34.23.54.23h15c.2 0 .4-.09.54-.24 .14-.16.21-.36.19-.57l-1-14c-.03-.4-.36-.7-.75-.7h-13Z"/><g fill="#ECEFF1" fill-rule="evenodd"><path d="M6.75 13.5c0-1.25 1-2.25 2.25-2.25 1.24 0 2.25 1 2.25 2.25V18c0 .41-.34.75-.75.75 -.42 0-.75-.34-.75-.75v-2.25h-1.5V18c0 .41-.34.75-.75.75 -.42 0-.75-.34-.75-.75v-4.5Zm1.5.75h1.5v-.75c0-.42-.34-.75-.75-.75 -.42 0-.75.33-.75.75v.75Z"/><path d="M12.75 12c0-.42.33-.75.75-.75h1c1.51 0 2.75 1.23 2.75 2.75v2c0 1.51-1.24 2.75-2.75 2.75h-1c-.42 0-.75-.34-.75-.75v-6Zm1.5.75v4.5h.25c.69 0 1.25-.56 1.25-1.25v-2c0-.7-.56-1.25-1.25-1.25h-.25Z"/></g></svg>