<svg viewBox="0 0 24 24" xmlns="http://www.w3.org/2000/svg"><path fill="#EE4D4D" d="M2 6.25c-.42 0-.75.33-.75.75v8.5c0 .41.33.75.75.75h4.68l2.28 2.28c.14.14.33.21.53.21h5c.19 0 .38-.08.53-.22l2.28-2.29h4.68c.41 0 .75-.34.75-.75v-8.5c0-.42-.34-.75-.75-.75h-20Z"/><g fill="#A2ADB8" fill-rule="evenodd"><path d="M16.75 17.5c0-.42.33-.75.75-.75H22c.41 0 .75.33.75.75 0 .41-.34.75-.75.75h-4.5c-.42 0-.75-.34-.75-.75Z"/><path d="M1.25 17.5c0-.42.33-.75.75-.75h4.5c.41 0 .75.33.75.75 0 .41-.34.75-.75.75H2c-.42 0-.75-.34-.75-.75Z"/></g><path fill="#ECEFF1" d="M9 8.25c-.42 0-.75.33-.75.75v4.5c0 .41.33.75.75.75h6c.41 0 .75-.34.75-.75V9c0-.42-.34-.75-.75-.75H9Z"/><path fill="#F17171" fill-rule="evenodd" d="M8.25 13.125l.3-.23 6-4.5 .2-.15H15c.41 0 .75.33.75.75v.375l-.3.22 -6 4.5 -.2.15H9c-.42 0-.75-.34-.75-.75v-.375Z"/></svg>