<svg viewBox="0 0 24 24" xmlns="http://www.w3.org/2000/svg"><g fill-rule="evenodd"><path d="M5.78 6.12c.18-1.51 1.46-2.63 2.97-2.63h6.46c1.51 0 2.78 1.12 2.97 2.62l.78 6.24c0 .04 0 .08 0 .12v5c0 1.65-1.35 3-3 3h-8c-1.66 0-3-1.35-3-3v-5c0-.05 0-.09 0-.13l.78-6.25Zm2.97-.63c-.51 0-.93.37-1 .87l-.78 6.18v4.93c0 .55.44 1 1 1h8c.55 0 1-.45 1-1v-4.94l-.78-6.19c-.07-.51-.49-.88-1-.88H8.72Z"/><path d="M7.62 10.32c.36 1.28 1.54 2.17 2.88 2.17h2.98c1.33 0 2.51-.89 2.88-2.18l.85-3.01c.54-1.92-.9-3.83-2.89-3.83h-4.7c-2 0-3.44 1.9-2.89 3.82l.85 3Zm2.88.17c-.45 0-.84-.3-.97-.73l-.86-3c-.19-.64.29-1.28.96-1.28h4.69c.66 0 1.14.63.96 1.27l-.86 3c-.13.42-.52.72-.97.72h-2.99Z"/></g><g><path d="M4 12c-1.11 0-2 .89-2 2v3c0 1.1.89 2 2 2h2c.55 0 1-.45 1-1v-5c0-.56-.45-1-1-1H4Z"/><path d="M18 12c-.56 0-1 .44-1 1v5c0 .55.44 1 1 1h2c1.1 0 2-.9 2-2v-3c0-1.11-.9-2-2-2h-2Z"/><path fill-rule="evenodd" d="M11 13.5v-4h2v4h-2Z"/></g></svg>