<svg viewBox="0 0 24 24" xmlns="http://www.w3.org/2000/svg"><g fill-rule="evenodd"><path d="M3.5 9c0-1.11.89-2 2-2h13c1.1 0 2 .89 2 2v10c0 1.1-.9 2-2 2h-13c-1.11 0-2-.9-2-2V9Zm15 0h-13v10h13V9Z"/><path d="M4.14 9.3c-.64-1 .08-2.31 1.26-2.31h13.17c1.18 0 1.9 1.3 1.26 2.3l-1.94 3.04c-.86 1.33-2.33 2.15-3.92 2.15v-2c.9 0 1.74-.47 2.23-1.23l1.44-2.28H6.28l1.44 2.27c.48.76 1.32 1.22 2.23 1.22v2c-1.59 0-3.07-.82-3.92-2.16L4.09 9.25Z"/></g><g><path d="M10 10c-.56 0-1 .44-1 1v5c0 .55.44 1 1 1h4c.55 0 1-.45 1-1v-5c0-.56-.45-1-1-1h-4Z"/><path d="M4 10c-1.66 0-3 1.34-3 3v1c0 1.65 1.34 3 3 3h.5c.55 0 1-.45 1-1v-5c0-.56-.45-1-1-1H4Z"/><path d="M19.5 10c-.56 0-1 .44-1 1v5c0 .55.44 1 1 1h.5c1.65 0 3-1.35 3-3v-1c0-1.66-1.35-3-3-3h-.5Z"/><path fill-rule="evenodd" d="M6.5 6.5c0-1.66 1.34-3 3-3h5c1.65 0 3 1.34 3 3V8c0 .55-.45 1-1 1h-9c-.56 0-1-.45-1-1V6.5Zm3-1c-.56 0-1 .44-1 1V7h7v-.5c0-.56-.45-1-1-1h-5Z"/></g></svg>