<svg viewBox="0 0 24 24" xmlns="http://www.w3.org/2000/svg"><path fill-rule="evenodd" d="M1 3c0-.56.44-1 1-1h14.5c.55 0 1 .44 1 1v18c0 .55-.45 1-1 1H2c-.56 0-1-.45-1-1V3Zm2 1v16h12.5V4H3Z"/><g><path d="M6 5C4.34 5 3 6.34 3 8c0 1.65 1.34 3 3 3 1.65 0 3-1.35 3-3 0-1.66-1.35-3-3-3Z"/><path d="M12.5 5c-1.66 0-3 1.34-3 3 0 1.65 1.34 3 3 3 1.65 0 3-1.35 3-3 0-1.66-1.35-3-3-3Z"/><g fill-rule="evenodd"><path d="M16.5 2c-.56 0-1 .44-1 1v18c0 .55.44 1 1 1H22c.55 0 1-.45 1-1V3c0-.56-.45-1-1-1h-5.5ZM20 16v2h-2v-2h2Zm0-2.5v-2h-2v2h2Z"/><path d="M14 15H5v-2h9v2Z"/><path d="M14 18H5v-2h9v2Z"/></g></g></svg>