<svg viewBox="0 0 24 24" xmlns="http://www.w3.org/2000/svg"><path fill-rule="evenodd" d="M4 5c0-.56.44-1 1-1h14c.55 0 1 .44 1 1 0 1.1.89 2 2 2 .55 0 1 .44 1 1v8c0 .55-.45 1-1 1 -1.11 0-2 .89-2 2 0 .55-.45 1-1 1H5c-.56 0-1-.45-1-1 0-1.11-.9-2-2-2 -.56 0-1-.45-1-1V8c0-.56.44-1 1-1 1.1 0 2-.9 2-2Zm5.5 4c0-.28.22-.5.5-.5 .27 0 .5.22.5.5 0 .27-.23.5-.5.5 -.28 0-.5-.23-.5-.5Zm.5-2.5C8.61 6.5 7.5 7.61 7.5 9c0 1.38 1.11 2.5 2.5 2.5 1.38 0 2.5-1.12 2.5-2.5 0-1.39-1.12-2.5-2.5-2.5Zm4.5 7.5c-.28 0-.5.22-.5.5 0 .27.22.5.5.5 .27 0 .5-.23.5-.5 0-.28-.23-.5-.5-.5Zm-2.5.5c0-1.39 1.11-2.5 2.5-2.5 1.38 0 2.5 1.11 2.5 2.5 0 1.38-1.12 2.5-2.5 2.5 -1.39 0-2.5-1.12-2.5-2.5Zm2.79-6.71l-7.01 7 1.41 1.41 6.99-7 -1.42-1.42Z"/></svg>