<svg viewBox="0 0 24 24" xmlns="http://www.w3.org/2000/svg"><path fill-rule="evenodd" d="M1 12C1 5.92 5.92 1 12 1c6.07 0 11 4.92 11 11 0 6.07-4.93 11-11 11C5.92 23 1 18.07 1 12Zm12-6.67v1.32c1.27.34 2.22 1.51 2.22 2.89v.22h-2v-.23c0-.56-.45-1-1-1h-.45c-.56 0-1 .44-1 1v.09c0 .37.21.72.55.89l2.23 1.11c1.01.5 1.65 1.54 1.65 2.68v.09c0 1.38-.95 2.55-2.23 2.89v1.32h-2v-1.33c-1.28-.35-2.23-1.52-2.23-2.9v-.23h1.99v.22c0 .55.44 1 1 1h.44c.55 0 1-.45 1-1v-.1c0-.38-.22-.73-.56-.9l-2.24-1.12c-1.02-.51-1.66-1.55-1.66-2.69v-.1c0-1.39.94-2.56 2.22-2.9V5.22h2Z"/></svg>