<svg viewBox="0 0 24 24" xmlns="http://www.w3.org/2000/svg"><g><path d="M12.81 6.42c-.19-.27-.5-.43-.82-.43 -.33 0-.63.15-.82.42L10.11 7.9l-1.76.54c-.31.09-.56.33-.66.64 -.11.3-.05.64.14.9l1.09 1.46 -.03 1.83c-.01.32.14.63.41.82 .26.19.6.24.9.13l1.73-.59 1.73.58c.3.1.64.05.9-.14 .26-.2.41-.5.41-.83l-.03-1.84 1.09-1.47c.19-.27.24-.6.14-.91 -.11-.31-.35-.55-.66-.65l-1.76-.55 -1.06-1.5Z"/><g fill-rule="evenodd"><path d="M11 20v-7h2v7h-2Z"/><path d="M3 5c0-.56.44-1 1-1h16c.55 0 1 .44 1 1v17c0 .55-.45 1-1 1H4c-.56 0-1-.45-1-1V5Zm2 1v15h14V6H5Z"/><path d="M3 4c0-1.66 1.34-3 3-3h14v2H6c-.56 0-1 .44-1 1v1H3V4Z"/></g></g></svg>