<svg viewBox="0 0 24 24" xmlns="http://www.w3.org/2000/svg"><path fill-rule="evenodd" d="M5.5 8.5c0-.56.44-1 1-1h11c.55 0 1 .44 1 1v9c0 .55-.45 1-1 1h-11c-.56 0-1-.45-1-1v-9Zm2 1v7h9v-7h-9Z"/><g><path d="M10.31 10.41c-.17-.23-.42-.38-.69-.42 -.28-.04-.56.04-.77.22l-3 2.5c-.23.19-.36.47-.36.76v4c0 .55.44 1 1 1h11c.55 0 1-.45 1-1v-2.5c0-.3-.14-.58-.36-.77l-3-2.5c-.37-.31-.9-.31-1.27-.02l-1.68 1.34 -1.89-2.65Z"/><g fill-rule="evenodd"><path d="M3 5c0-.56.44-1 1-1h16c.55 0 1 .44 1 1v17c0 .55-.45 1-1 1H4c-.56 0-1-.45-1-1V5Zm2 1v15h14V6H5Z"/><path d="M3 4c0-1.66 1.34-3 3-3h14v2H6c-.56 0-1 .44-1 1v1H3V4Z"/></g></g></svg>