<svg viewBox="0 0 24 24" xmlns="http://www.w3.org/2000/svg"><path fill-rule="evenodd" d="M9.14 2c-.13 0-.26.02-.37.07L4 3.96c-.25.09-.45.29-.56.54l-2.39 5.68c-.12.27-.11.58.03.84 .13.26.38.45.67.51l3.5.77v8.67c0 .55.44 1 .99 1h11.42c.55 0 1-.45 1-1v-8.68l3.5-.78c.28-.07.53-.26.67-.52 .13-.27.14-.58.03-.85l-2.39-5.69c-.11-.25-.31-.45-.56-.55L15.14 2c-.12-.05-.25-.08-.37-.08h-.36 -5 -.36Zm2.85 3.76l1.6-3.22c.16-.34.51-.56.89-.56 0 0 .01 0 .02 0 .38.01.73.24.88.6l1.5 3.5c.1.25.1.53 0 .78 -.11.25-.32.44-.57.54l-4 1.49c-.22.08-.46.08-.68.01 -.02-.01-.03-.01-.04-.02l-4-1.5c-.26-.1-.47-.3-.57-.55 -.11-.26-.11-.54 0-.79l1.5-3.5c.15-.36.5-.6.88-.61 0-.01.01-.01.02-.01 .37 0 .72.21.89.55l1.6 3.21Z"/></svg>