<svg viewBox="0 0 24 24" xmlns="http://www.w3.org/2000/svg"><path fill-rule="evenodd" d="M4 15.5c0-.56.44-1 1-1h3.5c.55 0 1 .44 1 1v6c0 .55-.45 1-1 1H5c-.56 0-1-.45-1-1v-6Zm2 1v4h1.5v-4H6Z"/><g><path d="M15.78 10.58c-1.11-.84-2.7-.51-3.39.69l-1.19 2.06 -1.34 1.14H8.47c-.56 0-1 .44-1 1v6c0 .55.44 1 1 1h7.41c1.07 0 2.03-.69 2.37-1.71l.78-2.35c.64-1.95-.8-3.95-2.85-3.95h-.21l.49-1.17c.41-.98.11-2.12-.74-2.75Z"/><path d="M12.81 1.42c-.19-.27-.5-.43-.82-.43 -.33 0-.63.15-.82.42l-.88 1.24 -1.46.45c-.31.09-.56.33-.66.64 -.11.3-.05.64.14.9l.91 1.22 -.02 1.52c-.01.32.14.63.41.82 .26.19.6.24.9.13l1.44-.49 1.44.48c.3.1.64.05.9-.14 .26-.2.41-.5.41-.83l-.02-1.53 .91-1.23c.19-.27.24-.6.14-.91 -.11-.31-.35-.55-.66-.65l-1.46-.46 -.88-1.25Z"/><path d="M5.81 3.42c-.19-.27-.5-.43-.82-.43 -.33 0-.63.15-.82.42l-.89 1.24 -1.46.45c-.31.09-.56.33-.66.64 -.11.3-.05.64.14.9l.91 1.22 -.02 1.52c-.01.32.14.63.41.82 .26.19.6.24.9.13l1.44-.49 1.44.48c.3.1.64.05.9-.14 .26-.2.41-.5.41-.83l-.02-1.53 .91-1.23c.19-.27.24-.6.14-.91 -.11-.31-.35-.55-.66-.65L6.6 4.57l-.89-1.25Z"/><path d="M19.81 3.42c-.19-.27-.5-.43-.82-.43 -.33 0-.63.15-.82.42l-.88 1.24 -1.46.45c-.31.09-.56.33-.66.64 -.11.3-.05.64.14.9l.91 1.22 -.02 1.52c-.01.32.14.63.41.82 .26.19.6.24.9.13l1.44-.49 1.44.48c.3.1.64.05.9-.14 .26-.2.41-.5.41-.83l-.02-1.53 .91-1.23c.19-.27.24-.6.14-.91 -.11-.31-.35-.55-.66-.65l-1.46-.46 -.88-1.25Z"/></g></svg>