<svg viewBox="0 0 24 24" xmlns="http://www.w3.org/2000/svg"><g fill-rule="evenodd"><path d="M5 5c0 .55.44 1 1 1h12c.55 0 1-.45 1-1V4c0-1.66-1.35-3-3-3H8C6.34 1 5 2.34 5 4v1Zm2-1c0-.56.44-1 1-1h8c.55 0 1 .44 1 1H7Z"/><path d="M3.5 22c0 .55.44 1 1 1h15c.55 0 1-.45 1-1V5c0-.56-.45-1-1-1h-15c-.56 0-1 .44-1 1v17ZM7 8.5h3.5v-2H7v2Zm3.5 2.5H7V9h3.5v2ZM7 13.5h3.5v-2H7v2Zm10-5h-3.5v-2H17v2ZM13.5 11H17V9h-3.5v2Zm3.5 2.5h-3.5v-2H17v2Zm-7.5 4c0-1.39 1.11-2.5 2.5-2.5 1.38 0 2.5 1.11 2.5 2.5 0 1.38-1.12 2.5-2.5 2.5 -1.39 0-2.5-1.12-2.5-2.5Z"/></g></svg>