<svg viewBox="0 0 24 24" xmlns="http://www.w3.org/2000/svg"><g fill-rule="evenodd"><path d="M14.5 9.5c0-.56.44-1 1-1h4c.37 0 .72.21.89.55l2.5 5c.06.13.1.29.1.44v4c0 .55-.45 1-1 1h-1.5v-2h.5v-2.77l-2.12-4.24h-2.39v7h1v2h-2c-.56 0-1-.45-1-1v-9Z"/><path d="M6 18c-.28 0-.5.22-.5.5 0 .27.22.5.5.5 .27 0 .5-.23.5-.5 0-.28-.23-.5-.5-.5Zm-2.5.5C3.5 17.11 4.61 16 6 16c1.38 0 2.5 1.11 2.5 2.5C8.5 19.88 7.38 21 6 21c-1.39 0-2.5-1.12-2.5-2.5Z"/><path d="M19 18c-.28 0-.5.22-.5.5 0 .27.22.5.5.5 .27 0 .5-.23.5-.5 0-.28-.23-.5-.5-.5Zm-2.5.5c0-1.39 1.11-2.5 2.5-2.5 1.38 0 2.5 1.11 2.5 2.5 0 1.38-1.12 2.5-2.5 2.5 -1.39 0-2.5-1.12-2.5-2.5Z"/><path d="M1 4.5c0-.56.44-1 1-1h13.5c.55 0 1 .44 1 1v14c0 .55-.45 1-1 1h-8c-.56 0-1-.45-1-1V18h-1v.5c0 .55-.45 1-1 1H2c-.56 0-1-.45-1-1v-14Zm7 3.6c-.88.27-1.5 1.09-1.5 2.05 0 .93.59 1.75 1.47 2.05l1.41.47c.06.02.11.08.11.15 0 .08-.08.16-.17.16H6.48v2h1.5v1h2v-1.11c.87-.28 1.5-1.1 1.5-2.06 0-.94-.6-1.76-1.48-2.06l-1.42-.48c-.07-.03-.12-.09-.12-.16 0-.09.07-.17.16-.17h2.83v-2h-1.5v-1h-2v1.1Z"/></g></svg>