<svg viewBox="0 0 24 24" xmlns="http://www.w3.org/2000/svg"><g fill-rule="evenodd"><path d="M6.5 17c0-.56.44-1 1-1h9c.55 0 1 .44 1 1v3.5c0 .55-.45 1-1 1h-9c-.56 0-1-.45-1-1V17Zm2 1v1.5h7V18h-7Z"/><path d="M9 2.03c-.04.01-.08.02-.11.03L5.1 3.61c-.27.1-.47.32-.57.59l-3.49 9.91c-.09.25-.08.52.04.76 .11.23.32.42.57.51l2.36.82c.43.15.91-.02 1.16-.4l1.29-1.99v3.14c0 .55.44 1 1 1h9c.55 0 1-.45 1-1V13.8l1.29 1.98c.25.38.73.54 1.16.39l2.36-.83c.25-.09.45-.28.57-.52 .11-.24.13-.52.04-.77l-3.49-9.92c-.1-.27-.3-.49-.57-.6l-3.79-1.56c-.04-.02-.08-.03-.11-.04v1.96c0 1.65-1.35 3-3 3 -1.66 0-3-1.35-3-3V1.92Zm2 1.96v-1.5h2v1.5c0 .55-.45 1-1 1 -.56 0-1-.45-1-1Z"/></g></svg>