<svg viewBox="0 0 24 24" xmlns="http://www.w3.org/2000/svg"><g><path d="M9.5 1.5c-.56 0-1 .44-1 1v5c0 .55.44 1 1 1h6c.4 0 .77-.25.92-.63l.87-2.2 3.72-2.33c.37-.24.55-.7.43-1.13 -.13-.43-.52-.73-.97-.73h-11Z"/><path fill-rule="evenodd" d="M10 7.5c0-.56.44-1 1-1h3c.55 0 1 .44 1 1v14c0 .55-.45 1-1 1h-3c-.56 0-1-.45-1-1v-14Zm2 1v12h1v-12h-1Z"/><path d="M4 1.5c-.56 0-1 .44-1 1v5c0 .55.44 1 1 1h3c.55 0 1-.45 1-1v-5c0-.56-.45-1-1-1H4Z"/><path fill-rule="evenodd" d="M6 3.5c0-.56.44-1 1-1h2.5c.55 0 1 .44 1 1v3c0 .55-.45 1-1 1H7c-.56 0-1-.45-1-1v-3Zm2 1v1h.5v-1H8Z"/></g></svg>