<svg viewBox="0 0 24 24" xmlns="http://www.w3.org/2000/svg"><g><path d="M8.5 6c-.56 0-1 .44-1 1v3c0 .55.44 1 1 1h6c.55 0 1-.45 1-1V7c0-.56-.45-1-1-1h-6Z"/><path fill-rule="evenodd" d="M10.5 7V4.5h2V7h-2Z"/><path d="M9.5 1c-.56 0-1 .44-1 1v2.5c0 .55.44 1 1 1h4c.55 0 1-.45 1-1V2c0-.56-.45-1-1-1h-4Z"/><g fill-rule="evenodd"><path d="M18.05 6.39l-5-2.5 .89-1.79 5 2.5 -.9 1.78Z"/><path d="M4.55 21.68l4-12 1.89.63 -4 12 -1.9-.64Z"/><path d="M18.44 21.68l-4-12 -1.9.63 4 12 1.89-.64Z"/><path d="M10.5 22V10h2v12h-2Z"/></g></g></svg>