<svg viewBox="0 0 24 24" xmlns="http://www.w3.org/2000/svg"><g><path d="M12.81 3.92c-.19-.27-.5-.43-.82-.43 -.33 0-.63.15-.82.42l-.89 1.24 -1.46.45c-.31.09-.56.33-.66.64 -.11.3-.05.64.14.9l.91 1.22 -.02 1.52c-.01.32.14.63.41.82 .26.19.6.24.9.13l1.44-.49 1.44.48c.3.1.64.05.9-.14 .26-.2.41-.5.41-.83l-.02-1.53 .91-1.23c.19-.27.24-.6.14-.91 -.11-.31-.35-.55-.66-.65l-1.46-.46 -.89-1.25Z"/><path fill-rule="evenodd" d="M12 3C9.51 3 7.5 5.01 7.5 7.5 7.5 9.98 9.51 12 12 12c2.48 0 4.5-2.02 4.5-4.5C16.5 5.01 14.48 3 12 3ZM5.5 7.5C5.5 3.91 8.41 1 12 1c3.58 0 6.5 2.91 6.5 6.5 0 3.58-2.92 6.5-6.5 6.5 -3.59 0-6.5-2.92-6.5-6.5Z"/><path d="M8.6 10.7c-.24-.18-.55-.25-.83-.18 -.29.06-.54.26-.67.52l-4 8c-.17.33-.14.73.09 1.04 .22.3.59.45.96.39l2.15-.36 .72 2.18c.13.39.48.66.9.68 .41.01.79-.22.96-.6l3.99-9c.13-.31.1-.67-.08-.96 -.19-.29-.5-.46-.84-.46h-1.67l-1.74-1.3Z"/><path d="M15.29 10.79c.22-.23.55-.34.86-.28 .31.05.59.25.73.53l4 8c.16.33.13.73-.09 1.04 -.23.3-.6.45-.97.39l-2.16-.36 -.73 2.18c-.14.39-.49.66-.91.68 -.42.02-.8-.22-.97-.6l-4-9c-.14-.31-.11-.67.07-.96 .18-.29.5-.46.83-.46h2.08l1.2-1.21Z"/></g></svg>