<svg viewBox="0 0 24 24" xmlns="http://www.w3.org/2000/svg"><g><path d="M13 7.5c-.56 0-1 .44-1 1V16c0 .55.44 1 1 1h1.38l.61 1.23v2.76h-2v2h9c.55 0 1-.45 1-1v-7.5c0-3.87-3.14-7-7-7h-3Z"/><g fill-rule="evenodd"><path d="M13 17c-1.11 0-2 .89-2 2 0 1.1.89 2 2 2 1.1 0 2-.9 2-2 0-1.11-.9-2-2-2Zm-4 2c0-2.21 1.79-4 4-4 2.2 0 4 1.79 4 4 0 2.2-1.8 4-4 4 -2.21 0-4-1.8-4-4Z"/><path d="M5 6.5C5 3.46 7.46 1 10.5 1h.5c3.03 0 5.5 2.46 5.5 5.5v2h-2v-2C14.5 4.56 12.93 3 11 3h-.5C8.56 3 7 4.56 7 6.5V19H5V6.5Z"/></g><path d="M2 18c-.56 0-1 .44-1 1v3c0 .55.44 1 1 1h6c.55 0 1-.45 1-1v-3c0-.56-.45-1-1-1H2Z"/></g></svg>