<svg viewBox="0 0 24 24" xmlns="http://www.w3.org/2000/svg"><g><path d="M4.5 1.5c-.45 0-.84.28-.96.71l-1.5 5c-.03.09-.05.19-.05.28 0 2.2 1.79 4 4 4 1.19 0 2.26-.53 3-1.36 .73.83 1.8 1.35 3 1.35 1.19 0 2.26-.53 3-1.36 .73.83 1.8 1.35 3 1.35 2.2 0 4-1.8 4-4 0-.1-.02-.2-.05-.29l-1.5-5c-.13-.43-.52-.72-.96-.72h-15Z"/><g fill-rule="evenodd"><path d="M4 9c.55 0 1 .44 1 1v10h14V10c0-.56.44-1 1-1 .55 0 1 .44 1 1v11c0 .55-.45 1-1 1H4c-.56 0-1-.45-1-1V10c0-.56.44-1 1-1Z"/><path d="M16.7 13.7l-5 5c-.4.39-1.03.39-1.42 0l-3.01-3 1.41-1.42 2.29 2.29 4.29-4.3 1.41 1.41Z"/></g></g></svg>