<svg viewBox="0 0 24 24" xmlns="http://www.w3.org/2000/svg"><g fill-rule="evenodd"><path d="M1 5c0-.56.44-1 1-1h20c.55 0 1 .44 1 1v12c0 .55-.45 1-1 1h-7v-2h6V6H3v10h6v2H2c-.56 0-1-.45-1-1V5Z"/><path d="M15.27 8.36l.87-1.4 1.69 1.06 -.875 1.39c-1.2 1.91-3.63 2.64-5.68 1.71l-.15-.07c-1.07-.49-2.34-.17-3.04.77l-1.32 1.74 -1.6-1.2 1.31-1.75c1.26-1.69 3.53-2.28 5.46-1.4l.14.06c1.14.51 2.49.11 3.15-.96Z"/></g><path d="M9 14.5c-.56 0-1 .44-1 1v3c0 .55.44 1 1 1h6c.55 0 1-.45 1-1v-3c0-.56-.45-1-1-1H9Z"/></svg>