<svg viewBox="0 0 24 24" xmlns="http://www.w3.org/2000/svg"><g fill-rule="evenodd"><path d="M6.5 6.5C6.5 5.11 7.61 4 9 4c1.38 0 2.5 1.11 2.5 2.5v3h-2v-1h-1v1h-2v-3Zm2 0h1c0-.28-.23-.5-.5-.5 -.28 0-.5.22-.5.5Z"/><path d="M12.5 5c0-.56.44-1 1-1h1c1.65 0 3 1.34 3 3v.5c0 1.65-1.35 3-3 3h-1c-.56 0-1-.45-1-1V5Zm2 1v2.5c.55 0 1-.45 1-1V7c0-.56-.45-1-1-1Z"/><path d="M16 14H8v-2h8v2Z"/><path d="M16 17H8v-2h8v2Z"/><path d="M16 20H8v-2h8v2Z"/><path d="M4 2c0-.56.44-1 1-1h14c.55 0 1 .44 1 1v20c0 .55-.45 1-1 1H5c-.56 0-1-.45-1-1V2Zm2 1v18h12V3H6Z"/></g></svg>