<svg viewBox="0 0 24 24" xmlns="http://www.w3.org/2000/svg"><g fill-rule="evenodd"><path d="M6.5 11c0-1.39 1.11-2.5 2.5-2.5 1.38 0 2.5 1.11 2.5 2.5v3h-2v-1h-1v1h-2v-3Zm2 0h1c0-.28-.23-.5-.5-.5 -.28 0-.5.22-.5.5Z"/><path d="M12.5 9.5c0-.56.44-1 1-1h1c1.65 0 3 1.34 3 3v.5c0 1.65-1.35 3-3 3h-1c-.56 0-1-.45-1-1V9.5Zm2 1V13c.55 0 1-.45 1-1v-.5c0-.56-.45-1-1-1Z"/><path d="M12 6c-3.32 0-6 2.68-6 6 0 3.31 2.68 6 6 6 3.31 0 6-2.69 6-6 0-3.32-2.69-6-6-6Zm-8 6c0-4.42 3.58-8 8-8 4.41 0 8 3.58 8 8 0 4.41-3.59 8-8 8 -4.42 0-8-3.59-8-8Z"/><path d="M21 3h-2V1h3c.55 0 1 .44 1 1v3h-2V3Z"/><path d="M21 21h-2v2h3c.55 0 1-.45 1-1v-3h-2v2Z"/><path d="M3 3h2V1H2c-.56 0-1 .44-1 1v3h2V3Z"/><path d="M3 21h2v2H2c-.56 0-1-.45-1-1v-3h2v2Z"/><path d="M16.293 6.29l5-5 1.41 1.41 -5 5 -1.42-1.42Z"/><path d="M16.293 17.7l5 5 1.41-1.42 -5-5 -1.42 1.41Z"/><path d="M7.7 6.29l-5-5L1.28 2.7l5 5 1.41-1.42Z"/><path d="M7.7 17.7l-5 5 -1.42-1.42 5-5 1.41 1.41Z"/></g></svg>