<svg viewBox="0 0 24 24" xmlns="http://www.w3.org/2000/svg"><g fill-rule="evenodd"><path d="M13.79 13.79c.28-.29.72-.38 1.1-.22l7 3c.34.14.57.47.6.85 .02.37-.17.73-.49.92l-1.41.84 1.09 1.09 -1.42 1.41 -1.1-1.1 -.85 1.4c-.2.32-.56.5-.93.48 -.38-.03-.71-.26-.86-.61l-3-7c-.17-.38-.08-.82.21-1.11Zm2.61 2.61l1.24 2.9 .49-.83c.08-.15.2-.26.34-.35l.82-.5 -2.91-1.25Z"/><path d="M10.5 3.5c-3.87 0-7 3.13-7 7 0 3.86 3.13 7 7 7 1.65 0 3.17-.58 4.37-1.54l1.25 1.56c-1.55 1.23-3.5 1.97-5.63 1.97 -4.98 0-9-4.03-9-9 0-4.98 4.02-9 9-9 4.97 0 9 4.02 9 9 0 2.12-.74 4.08-1.98 5.62l-1.57-1.26c.96-1.2 1.53-2.72 1.53-4.38 0-3.87-3.14-7-7-7Z"/><path d="M5 8.5C5 7.11 6.11 6 7.5 6 8.88 6 10 7.11 10 8.5V13H8v-2H7v2H5V8.5ZM7 9h1v-.5c0-.28-.23-.5-.5-.5 -.28 0-.5.22-.5.5V9Z"/><path d="M11 7c0-.56.44-1 1-1h1c1.65 0 3 1.34 3 3v2c0 1.65-1.35 3-3 3h-1c-.56 0-1-.45-1-1V7Zm2 1v4c.55 0 1-.45 1-1V9c0-.56-.45-1-1-1Z"/></g></svg>