<svg viewBox="0 0 24 24" xmlns="http://www.w3.org/2000/svg"><g fill-rule="evenodd"><path d="M14.5 6c-1.96 0-3.65 1.11-4.47 2.75 -.24.46-.78.66-1.26.48 -.4-.16-.83-.24-1.28-.24 -1.94 0-3.5 1.56-3.5 3.5 0 .13 0 .27.02.4 .03.3-.08.6-.29.82 -.46.45-.74 1.07-.74 1.77 0 1.38 1.11 2.5 2.5 2.5h13c1.38 0 2.5-1.12 2.5-2.5 0-.91-.49-1.71-1.21-2.15 -.38-.23-.57-.68-.46-1.11 .1-.4.15-.82.15-1.26 0-2.77-2.24-5-5-5ZM8.66 7.12c1.25-1.89 3.39-3.13 5.83-3.13 3.86 0 7 3.13 7 7 0 .36-.03.72-.09 1.07 .96.82 1.58 2.05 1.58 3.42 0 2.48-2.02 4.5-4.5 4.5h-13c-2.49 0-4.5-2.02-4.5-4.5 0-1.08.37-2.06 1-2.84 -.01-.06-.01-.12-.01-.17 0-3.04 2.46-5.5 5.5-5.5 .4 0 .79.04 1.16.12Z"/><path d="M6.5 12.5C6.5 11.11 7.61 10 9 10c1.38 0 2.5 1.11 2.5 2.5v3h-2v-1h-1v1h-2v-3Zm2 0h1c0-.28-.23-.5-.5-.5 -.28 0-.5.22-.5.5Z"/><path d="M12.5 11c0-.56.44-1 1-1h1c1.65 0 3 1.34 3 3v.5c0 1.65-1.35 3-3 3h-1c-.56 0-1-.45-1-1V11Zm2 1v2.5c.55 0 1-.45 1-1V13c0-.56-.45-1-1-1Z"/></g></svg>