<svg viewBox="0 0 24 24" xmlns="http://www.w3.org/2000/svg"><g fill-rule="evenodd"><path d="M19.55 3.16c.28.18.44.49.44.83v14c0 .31-.15.6-.4.79 -.26.18-.58.24-.88.16l-14-4c-.43-.13-.73-.52-.73-.97v-4c0-.41.23-.77.6-.92l14-6c.3-.14.66-.11.94.08ZM5.99 10.65v2.58l12 3.42V5.49l-12 5.14Z"/><path d="M1 10.5C1 9.11 2.11 8 3.5 8 4.88 8 6 9.11 6 10.5v3C6 14.88 4.88 16 3.5 16 2.11 16 1 14.88 1 13.5v-3Zm2.5-.5c-.28 0-.5.22-.5.5v3c0 .27.22.5.5.5 .27 0 .5-.23.5-.5v-3c0-.28-.23-.5-.5-.5Z"/><path d="M18 3.5C18 2.11 19.11 1 20.5 1 21.88 1 23 2.11 23 3.5v15c0 1.38-1.12 2.5-2.5 2.5 -1.39 0-2.5-1.12-2.5-2.5v-15Zm2.5-.5c-.28 0-.5.22-.5.5v15c0 .27.22.5.5.5 .27 0 .5-.23.5-.5v-15c0-.28-.23-.5-.5-.5Z"/><path d="M7.5 18v-3h2v3c0 .55.44 1 1 1H12c.55 0 1-.45 1-1v-1.5h2V18c0 1.65-1.35 3-3 3h-1.5c-1.66 0-3-1.35-3-3Z"/></g></svg>