<svg viewBox="0 0 24 24" xmlns="http://www.w3.org/2000/svg"><g fill-rule="evenodd"><path d="M3 2c0-.56.44-1 1-1h16c.55 0 1 .44 1 1v20c0 .55-.45 1-1 1H4c-.56 0-1-.45-1-1V2Zm2 1v18h14V3H5Z"/><path d="M6.5 6.5C6.5 5.11 7.61 4 9 4c1.38 0 2.5 1.11 2.5 2.5V11h-2V9h-1v2h-2V6.5Zm2 .5h1v-.5c0-.28-.23-.5-.5-.5 -.28 0-.5.22-.5.5V7Z"/><path d="M12.5 5c0-.56.44-1 1-1h1c1.65 0 3 1.34 3 3v2c0 1.65-1.35 3-3 3h-1c-.56 0-1-.45-1-1V5Zm2 1v4c.55 0 1-.45 1-1V7c0-.56-.45-1-1-1Z"/><path d="M13.07 21h5.92v-5.93c-3.07.43-5.5 2.86-5.93 5.92Zm-2.08 1c0-4.98 4.02-9 9-9 .55 0 1 .44 1 1v8c0 .55-.45 1-1 1h-8c-.56 0-1-.45-1-1Z"/></g></svg>