<svg viewBox="0 0 24 24" xmlns="http://www.w3.org/2000/svg"><g fill-rule="evenodd"><path d="M11.62 1.07c.23-.1.5-.1.74 0l10 4c.37.15.62.51.62.92 0 .4-.25.77-.63.92l-10 4c-.24.09-.51.09-.75 0L1.6 6.9c-.38-.16-.63-.52-.63-.93 0-.41.24-.78.62-.93l9.99-4ZM4.68 5.99l7.3 2.92 7.3-2.93 -7.31-2.93 -7.31 2.92Z"/><path d="M1 18V6h2v11.323l9 3.6 9-3.6V6h2v12c0 .4-.25.77-.63.92l-10 4c-.24.09-.51.09-.75 0l-10-4c-.38-.16-.63-.52-.63-.93Z"/><path d="M4 16v-6h2v6H4Z"/><path d="M4.41 9.18c.26-.19.59-.24.9-.14l2.02.67c.98.32 1.65 1.25 1.65 2.29 0 1.65-1.63 2.82-3.19 2.29l-1.13-.38c-.41-.14-.69-.52-.69-.95v-3c0-.33.15-.63.41-.82Zm1.58 2.19v.89l.44.14c.27.09.55-.12.55-.41 0-.19-.12-.35-.29-.41l-.72-.24Z"/></g></svg>