<svg viewBox="0 0 24 24" xmlns="http://www.w3.org/2000/svg"><g fill-rule="evenodd"><path d="M11.99 1c.29 0 .57.12.76.35l1.94 2.3 2.92-.72c.28-.07.58-.02.82.16 .23.17.38.44.4.73l.22 3 2.78 1.14c.27.11.48.33.57.61 .09.27.05.58-.11.83l-1.59 2.56 1.58 2.56c.15.25.19.55.1.83 -.1.27-.3.5-.58.61l-2.79 1.14 -.23 3c-.03.29-.18.56-.41.73 -.24.17-.54.23-.83.16l-2.93-.72 -1.95 2.3c-.19.22-.47.35-.77.35 -.3 0-.58-.13-.77-.36l-1.95-2.31 -2.93.71c-.29.06-.59.01-.83-.17 -.24-.18-.39-.45-.41-.74l-.23-3.01 -2.79-1.15c-.272-.12-.49-.34-.58-.62 -.1-.28-.06-.59.1-.84l1.58-2.57 -1.59-2.57c-.16-.26-.2-.56-.11-.84 .09-.28.3-.51.57-.62l2.78-1.15 .22-3.01c.02-.3.17-.57.4-.74 .23-.18.53-.24.82-.17l2.92.71 1.94-2.31c.19-.23.46-.36.76-.36Zm0 2.54L10.4 5.41c-.25.28-.64.41-1.01.32L7 5.14l-.19 2.44c-.03.37-.27.7-.62.85l-2.27.92 1.28 2.08c.19.32.19.72 0 1.05l-1.29 2.08 2.26.92c.35.14.58.47.61.85l.18 2.44 2.38-.59c.36-.09.75.03 1 .32l1.58 1.87 1.58-1.88c.24-.29.63-.42 1-.33l2.38.58 .18-2.45c.02-.38.26-.71.61-.86l2.26-.93 -1.29-2.09c-.2-.33-.2-.73 0-1.06l1.28-2.09 -2.27-.93c-.36-.15-.59-.48-.62-.86l-.19-2.45 -2.39.58c-.37.08-.76-.04-1.01-.33l-1.59-1.88Z"/><path d="M9.5 8c-.28 0-.5.22-.5.5 0 .27.22.5.5.5 .27 0 .5-.23.5-.5 0-.28-.23-.5-.5-.5ZM7 8.5C7 7.11 8.11 6 9.5 6 10.88 6 12 7.11 12 8.5c0 1.38-1.12 2.5-2.5 2.5C8.11 11 7 9.88 7 8.5Z"/><path d="M14.5 15c-.28 0-.5.22-.5.5 0 .27.22.5.5.5 .27 0 .5-.23.5-.5 0-.28-.23-.5-.5-.5Zm-2.5.5c0-1.39 1.11-2.5 2.5-2.5 1.38 0 2.5 1.11 2.5 2.5 0 1.38-1.12 2.5-2.5 2.5 -1.39 0-2.5-1.12-2.5-2.5Z"/><path d="M7.29 15.29l8-8L16.7 8.7l-8.01 7.99 -1.42-1.42Z"/></g></svg>