<svg viewBox="0 0 24 24" xmlns="http://www.w3.org/2000/svg"><g fill-rule="evenodd"><path d="M4 2c0-.56.44-1 1-1h14c.55 0 1 .44 1 1v3c0 .55-.45 1-1 1H5c-.56 0-1-.45-1-1V2Zm2 1v1h12V3H6Z"/><path d="M5 14c0-.56.44-1 1-1h12c.55 0 1 .44 1 1v6c0 1.65-1.35 3-3 3H8c-1.66 0-3-1.35-3-3v-6Zm2 1v5c0 .55.44 1 1 1h8c.55 0 1-.45 1-1v-5H7Z"/><path d="M4.5 11c0-.56.44-1 1-1h13c.55 0 1 .44 1 1v3c0 .55-.45 1-1 1h-13c-.56 0-1-.45-1-1v-3Zm2 1v1h11v-1h-11Z"/><path d="M16 11V5h2v6h-2Z"/><path d="M6 11V5h2v6H6Z"/></g></svg>