<svg viewBox="0 0 24 24" xmlns="http://www.w3.org/2000/svg"><g fill-rule="evenodd"><path d="M3 2c0-.56.44-1 1-1h16c.55 0 1 .44 1 1v3c0 .55-.45 1-1 1H4c-.56 0-1-.45-1-1V2Zm2 1v1h14V3H5Z"/><path d="M3 19c0-.56.44-1 1-1h16.5c.55 0 1 .44 1 1v3c0 .55-.45 1-1 1H4c-.56 0-1-.45-1-1v-3Zm2 1v1h14.5v-1H5Z"/><path d="M4 5c0-.56.44-1 1-1h14c.55 0 1 .44 1 1v14c0 .55-.45 1-1 1H5c-.56 0-1-.45-1-1V5Zm2 1v12h12V6H6Z"/><path d="M6.5 10.5C6.5 9.11 7.61 8 9 8c1.38 0 2.5 1.11 2.5 2.5V15h-2v-2h-1v2h-2v-4.5Zm2 .5h1v-.5c0-.28-.23-.5-.5-.5 -.28 0-.5.22-.5.5v.5Z"/><path d="M12.5 9c0-.56.44-1 1-1h1c1.65 0 3 1.34 3 3v2c0 1.65-1.35 3-3 3h-1c-.56 0-1-.45-1-1V9Zm2 1v4c.55 0 1-.45 1-1v-2c0-.56-.45-1-1-1Z"/></g></svg>