<svg viewBox="0 0 24 24" xmlns="http://www.w3.org/2000/svg"><g fill-rule="evenodd"><path d="M9.56 2.17c.27.18.43.49.43.82 0 1.01.97 2 2 2 1.02 0 2-.99 2-2 0-.34.16-.65.43-.83 .27-.19.62-.23.93-.11l5 2c.26.1.47.32.56.59l2 5.57c.17.48-.05 1.02-.52 1.24l-2.43 1.15v8.36c0 .55-.45 1-1 1h-14c-.56 0-1-.45-1-1v-8.37l-2.43-1.16c-.47-.23-.69-.76-.52-1.25l2-5.58c.09-.27.3-.49.56-.6l5-2c.3-.13.65-.09.93.1ZM4.78 5.75l-1.55 4.3 2.18 1.03c.34.16.57.51.57.9v8h12v-8c0-.39.22-.74.57-.91l2.18-1.04 -1.55-4.31 -3.48-1.39c-.59 1.49-2.09 2.62-3.74 2.62 -1.66 0-3.15-1.14-3.74-2.63L4.74 5.7Z"/><path d="M17.07 7.68c.26.18.42.49.42.81v6.99c0 .32-.16.63-.43.81 -.27.18-.61.23-.92.12l-5.5-2c-.4-.15-.66-.52-.66-.94v-3c0-.43.26-.8.65-.94l5.5-2c.3-.12.64-.07.91.12Zm-5.08 3.51v1.59l3.5 1.27V9.9l-3.5 1.27Z"/><path d="M9.53 17.27l-1-3.5 1.92-.55 1 3.5 -1.93.54Z"/><path d="M7 10.5c0-.56.44-1 1-1h3c.55 0 1 .44 1 1v3c0 .55-.45 1-1 1H8c-.56 0-1-.45-1-1v-3Zm2 1v1h1v-1H9Z"/></g></svg>