<svg viewBox="0 0 24 24" xmlns="http://www.w3.org/2000/svg"><g fill-rule="evenodd"><path d="M4.5 7.42c.03-.53.47-.93.99-.93h13c.52 0 .96.4.99.92l1 14c.01.27-.08.54-.27.75 -.19.2-.46.31-.74.31h-15c-.28 0-.55-.12-.74-.32 -.19-.21-.29-.48-.27-.76l1-14Zm1.92 1.07l-.86 12h12.85l-.86-12H6.41Z"/><path d="M7 6.5c0-2.77 2.23-5 5-5 2.76 0 5 2.23 5 5v1c0 .55-.45 1-1 1H8c-.56 0-1-.45-1-1v-1Zm5-3c-1.66 0-3 1.34-3 3h6c0-1.66-1.35-3-3-3Z"/><path d="M6.5 13.5C6.5 12.11 7.61 11 9 11c1.38 0 2.5 1.11 2.5 2.5V18h-2v-2h-1v2h-2v-4.5Zm2 .5h1v-.5c0-.28-.23-.5-.5-.5 -.28 0-.5.22-.5.5v.5Z"/><path d="M12.5 12c0-.56.44-1 1-1h1c1.65 0 3 1.34 3 3v2c0 1.65-1.35 3-3 3h-1c-.56 0-1-.45-1-1v-6Zm2 1v4c.55 0 1-.45 1-1v-2c0-.56-.45-1-1-1Z"/></g></svg>