<svg viewBox="0 0 24 24" xmlns="http://www.w3.org/2000/svg"><g fill-rule="evenodd"><path d="M1 2c0-.56.44-1 1-1h20c.55 0 1 .44 1 1v14c0 .55-.45 1-1 1H2c-.56 0-1-.45-1-1V2Zm2 1v12h18V3H3Z"/><path d="M5 21H2v-2h3v2Zm17 0H8v-2h14v2Z"/><path d="M6.5 19.5c-.28 0-.5.22-.5.5 0 .27.22.5.5.5 .27 0 .5-.23.5-.5 0-.28-.23-.5-.5-.5ZM4 20c0-1.39 1.11-2.5 2.5-2.5C7.88 17.5 9 18.61 9 20c0 1.38-1.12 2.5-2.5 2.5C5.11 22.5 4 21.38 4 20Z"/><path d="M16.57 4.18c.26.18.42.49.42.81v6.99c0 .32-.16.63-.43.81 -.27.18-.61.23-.92.12l-5.5-2c-.4-.15-.66-.52-.66-.94v-3c0-.43.26-.8.65-.94l5.5-2c.3-.12.64-.07.91.12Zm-5.08 3.51v1.59l3.5 1.27V6.4l-3.5 1.27Z"/><path d="M9.03 13.77l-1-3.5 1.92-.55 .99 3.5 -1.93.54Z"/><path d="M6.5 7c0-.56.44-1 1-1h3c.55 0 1 .44 1 1v3c0 .55-.45 1-1 1h-3c-.56 0-1-.45-1-1V7Zm2 1v1h1V8h-1Z"/></g></svg>