<svg viewBox="0 0 24 24" xmlns="http://www.w3.org/2000/svg"><g fill-rule="evenodd"><path d="M9.04 4.68C8.64 3.35 7.24 2.6 5.92 3c-1.33.39-2.08 1.79-1.68 3.11l2.56 8.56c.31 1.05 1.29 1.78 2.39 1.78h6.5c1.38 0 2.5-1.12 2.5-2.5 0-1.39-1.12-2.5-2.5-2.5h-4.64L9.01 4.66Z"/><path d="M16.71 16.46h-2.5v-2h2.5c1.93 0 3.5 1.56 3.5 3.5 0 1.93-1.57 3.5-3.5 3.5h-6.36c-1.68 0-3.24-.84-4.17-2.23l-.82-1.22 1.66-1.11 .81 1.21c.55.83 1.49 1.33 2.49 1.33h6.35c.82 0 1.5-.68 1.5-1.5 0-.83-.68-1.5-1.5-1.5Z"/></g></svg>