<svg viewBox="0 0 24 24" xmlns="http://www.w3.org/2000/svg"><g fill-rule="evenodd"><path d="M9.18 5.16C8.7 3.57 7.03 2.67 5.44 3.14l-.96.28c-.26.07-.47.25-.6.48 -.13.23-.16.5-.08.76l3 10c.31 1.05 1.29 1.78 2.39 1.78h8c.55 0 1-.45 1-1v-1c0-1.66-1.35-3-3-3h-4.14l-1.9-6.31Z"/><path d="M16.71 16.46h-2.5v-2h2.5c1.93 0 3.5 1.56 3.5 3.5 0 1.93-1.57 3.5-3.5 3.5h-6.36c-1.68 0-3.24-.84-4.17-2.23l-.82-1.22 1.66-1.11 .81 1.21c.55.83 1.49 1.33 2.49 1.33h6.35c.82 0 1.5-.68 1.5-1.5 0-.83-.68-1.5-1.5-1.5Z"/><path d="M15 10H9.5V8H15v2Z"/><path d="M12 12.5V9h2v3.5h-2Z"/></g></svg>