<svg viewBox="0 0 24 24" xmlns="http://www.w3.org/2000/svg"><g fill-rule="evenodd"><path d="M15.5 5c0-.56.44-1 1-1h4c.55 0 1 .44 1 1v15c0 .55-.45 1-1 1h-4c-.56 0-1-.45-1-1V5Zm2 1v13h2V6h-2Z"/><path d="M8.5 5c0-.56-.45-1-1-1h-4c-.56 0-1 .44-1 1v15c0 .55.44 1 1 1h4c.55 0 1-.45 1-1V5Zm-2 1v13h-2V6h2Z"/><path d="M18.5 3h-13V1h13v2Z"/><path d="M6.5 2c0-.56.44-1 1-1h9c.55 0 1 .44 1 1v18c0 .55-.45 1-1 1h-9c-.56 0-1-.45-1-1V2ZM10 4c-.56 0-1 .44-1 1v6c0 .55.44 1 1 1h4c.55 0 1-.45 1-1V5c0-.56-.45-1-1-1h-4Zm1 6V6h2v4h-2Zm5 5H8v-2h8v2Zm-6 3h4v-2h-4v2Z"/><path d="M22 6h-5V4h5v2Z"/><path d="M2 6h5V4H2v2Z"/><path d="M6.5 22v-2h2v2h-2Z"/><path d="M19 22v-2h2v2h-2Z"/><path d="M3 22v-2h2v2H3Z"/><path d="M15.5 22v-2h2v2h-2Z"/></g></svg>