<svg viewBox="0 0 24 24" xmlns="http://www.w3.org/2000/svg"><g fill-rule="evenodd"><path d="M6 18.74v-7.25H4v8c0 .44.29.83.72.96l7 2c.17.05.36.05.54 0l7-2c.42-.13.72-.52.72-.97v-8h-2v7.24l-6 1.71 -6-1.72Z"/><path d="M12 8.5c.55 0 1 .44 1 1v12c0 .55-.45 1-1 1 -.56 0-1-.45-1-1v-12c0-.56.44-1 1-1Z"/><path d="M19.7 6.79c-.26-.26-.64-.36-.99-.26l-7 2c-.35.09-.61.36-.7.71 -.09.34.01.7.26.95l3 3c.25.25.63.35.98.25l7-2c.34-.1.6-.37.69-.72 .08-.35-.02-.71-.27-.96l-3-3Z"/><path d="M19.7 8.2c-.26.25-.64.35-.99.25l-7-2c-.35-.1-.61-.37-.7-.72 -.09-.35.01-.71.26-.96l3-3c.25-.26.63-.36.98-.26l7 2c.34.09.6.36.69.71 .08.34-.02.7-.27.95l-3 3Z"/><path d="M4.29 6.79c.25-.26.63-.36.98-.26l6.99 2c.34.09.6.36.69.71 .08.34-.02.7-.27.95l-3 3c-.26.25-.64.35-.99.25l-7-2c-.35-.1-.61-.37-.7-.72 -.09-.35.01-.71.26-.96l3-3Z"/><path d="M4.29 8.2c.25.25.63.35.98.25l6.99-2c.34-.1.6-.37.69-.72 .08-.35-.02-.71-.27-.96l-3-3c-.26-.26-.64-.36-.99-.26l-7 2c-.35.09-.61.36-.7.71 -.09.34.01.7.26.95l3 3Z"/></g></svg>