<svg viewBox="0 0 24 24" xmlns="http://www.w3.org/2000/svg"><g fill-rule="evenodd"><path d="M6.5 16.5c-.28 0-.5.22-.5.5 0 .27.22.5.5.5 .27 0 .5-.23.5-.5 0-.28-.23-.5-.5-.5ZM4 17c0-1.39 1.11-2.5 2.5-2.5C7.88 14.5 9 15.61 9 17c0 1.38-1.12 2.5-2.5 2.5C5.11 19.5 4 18.38 4 17Z"/><path d="M17.5 16.5c-.28 0-.5.22-.5.5 0 .27.22.5.5.5 .27 0 .5-.23.5-.5 0-.28-.23-.5-.5-.5ZM15 17c0-1.39 1.11-2.5 2.5-2.5 1.38 0 2.5 1.11 2.5 2.5 0 1.38-1.12 2.5-2.5 2.5 -1.39 0-2.5-1.12-2.5-2.5Z"/><path d="M2 4.5c-.56 0-1 .44-1 1v5c0 .55.44 1 1 1h9c.55 0 1-.45 1-1v-5c0-.56-.45-1-1-1H2Z"/><path d="M16 4.5h-2c-.56 0-1 .44-1 1V12H2c-.56 0-1 .44-1 1v4c0 .55.44 1 1 1h3c.55 0 1-.45 1-1v-.5h1v.5c0 .55.44 1 1 1h8c.55 0 1-.45 1-1v-.5h1v.5c0 .55.44 1 1 1h2c1.1 0 2-.9 2-2v-5h-6c-.56 0-1-.45-1-1V4.5ZM22.97 9c-.26-2.53-2.39-4.5-4.98-4.5V9h4.97Z"/></g></svg>