<svg viewBox="0 0 24 24" xmlns="http://www.w3.org/2000/svg"><g fill-rule="evenodd"><path d="M7 16c-.56 0-1 .44-1 1 0 .55.44 1 1 1 .55 0 1-.45 1-1 0-.56-.45-1-1-1Zm-3 1c0-1.66 1.34-3 3-3 1.65 0 3 1.34 3 3 0 1.65-1.35 3-3 3 -1.66 0-3-1.35-3-3Z"/><path d="M17.5 15.5c-.56 0-1 .44-1 1 0 .55.44 1 1 1 .55 0 1-.45 1-1 0-.56-.45-1-1-1Zm-3 1c0-1.66 1.34-3 3-3 1.65 0 3 1.34 3 3 0 1.65-1.35 3-3 3 -1.66 0-3-1.35-3-3Z"/><path d="M13 7.5c0-.56.44-1 1-1h4c2.76 0 5 2.23 5 5V15c0 1.1-.9 2-2 2h-1.5v-2H21v-3.5c0-1.66-1.35-3-3-3h-3V12h-2V7.5ZM9 15h6.5v2H9v-2Z"/><path d="M3 4c-1.11 0-2 .89-2 2v9c0 1.1.89 2 2 2h1.25c.88 0 1.61-.66 1.73-1.5h2.03c.12.84.85 1.5 1.73 1.5h4.25c.55 0 1-.45 1-1V6c0-1.11-.9-2-2-2h-10Z"/></g></svg>