<svg viewBox="0 0 24 24" xmlns="http://www.w3.org/2000/svg"><g fill-rule="evenodd"><path d="M1 4c0-1.66 1.34-3 3-3h16c1.65 0 3 1.34 3 3v7h-2V4c0-.56-.45-1-1-1H4c-.56 0-1 .44-1 1v16c0 .55.44 1 1 1h9v2H4c-1.66 0-3-1.35-3-3V4Z"/><path d="M9 1c-.56 0-1 .44-1 1v7c0 .32.15.62.41.81 .26.18.59.23.9.13l2.68-.9 2.68.89c.3.1.64.05.9-.14s.41-.49.41-.82v-7c0-.56-.45-1-1-1h-6Z"/><path d="M21.92 14.03c-1.21-1.17-3.04-1.35-4.43-.54 -1.4-.82-3.23-.64-4.43.53 -1.44 1.39-1.44 3.66 0 5.05l3.72 3.62c.38.37 1 .37 1.39 0l3.72-3.63c1.43-1.4 1.43-3.67 0-5.06Z"/></g></svg>