<svg viewBox="0 0 24 24" xmlns="http://www.w3.org/2000/svg"><g fill-rule="evenodd"><path d="M16.5 5C14.56 5 13 6.56 13 8.5V12c0 .55.44 1 1 1h5c.55 0 1-.45 1-1V8.5C20 6.56 18.43 5 16.5 5Z"/><path d="M8 7c-.56 0-1 .44-1 1v3h7.381v2H6c-.56 0-1-.45-1-1V8c0-1.66 1.34-3 3-3h8.5v2H8Z"/><path d="M5.5 16v3h2v-3H9c.55 0 1 .44 1 1v5c0 .55-.45 1-1 1H4c-.56 0-1-.45-1-1v-5c0-.56.44-1 1-1h1.5Z"/><path d="M22 23H2v-2h20v2Z"/><path d="M15 10v12h-2V10h2Z"/><path d="M14 1h2c.55 0 1 .44 1 1v4h-2V3h-1V1Z"/></g></svg>