<svg viewBox="0 0 24 24" xmlns="http://www.w3.org/2000/svg"><path fill-rule="evenodd" d="M1 2c0-.56.44-1 1-1h20c.55 0 1 .44 1 1v20c0 .55-.45 1-1 1H2c-.56 0-1-.45-1-1V2Zm3 3c0-.56.44-1 1-1h3c.55 0 1 .44 1 1v3c0 .55-.45 1-1 1H5c-.56 0-1-.45-1-1V5Zm1 10c-.56 0-1 .44-1 1v3c0 .55.44 1 1 1h3c.55 0 1-.45 1-1v-3c0-.56-.45-1-1-1H5ZM15 5c0-.56.44-1 1-1h3c.55 0 1 .44 1 1v3c0 .55-.45 1-1 1h-3c-.56 0-1-.45-1-1V5Zm-4 1h2v7c0 .55-.45 1-1 1h-2v-2h1V6Zm-6 8h2v-2H5v2Zm13-2h-2v-2h3c.55 0 1 .44 1 1v5c0 .55-.45 1-1 1h-6v2h-2v-3c0-.56.44-1 1-1h6v-3Zm-3 8h4v-2h-4v2Z"/></svg>