<svg viewBox="0 0 24 24" xmlns="http://www.w3.org/2000/svg"><g fill-rule="evenodd"><path d="M4.5 3H3V1h2.5c.55 0 1 .44 1 1v16H20v2H5.5c-.56 0-1-.45-1-1V3Z"/><path d="M10.5 6H9c-.56 0-1 .44-1 1v8c0 .55.44 1 1 1h8c.55 0 1-.45 1-1V7c0-.56-.45-1-1-1h-1.5v4.5c0 .32-.16.62-.42.81 -.27.18-.6.23-.91.13l-1.19-.4 -1.19.39c-.31.1-.65.05-.91-.14 -.27-.19-.42-.49-.42-.82v-4.5Zm2 3.11V6.99h1V9.1l-.19-.07c-.21-.07-.43-.07-.64 0l-.19.06Z"/><path d="M8.5 18C7.11 18 6 19.11 6 20.5 6 21.88 7.11 23 8.5 23c1.38 0 2.5-1.12 2.5-2.5 0-1.39-1.12-2.5-2.5-2.5Z"/><path d="M16.5 18c-1.39 0-2.5 1.11-2.5 2.5 0 1.38 1.11 2.5 2.5 2.5 1.38 0 2.5-1.12 2.5-2.5 0-1.39-1.12-2.5-2.5-2.5Z"/></g></svg>