<svg viewBox="0 0 24 24" xmlns="http://www.w3.org/2000/svg"><g fill-rule="evenodd"><path d="M6.16 1c-.38 0-.72.2-.89.53L4.1 3.78c-.17.31-.15.68.03.98l2.33 3.75c.18.29.5.47.84.47h9.33c.34 0 .66-.18.84-.48l2.33-3.75c.18-.3.2-.68.03-.99l-1.17-2.25c-.18-.34-.52-.54-.89-.54H6.1Z"/><path d="M10 7c-.56 0-1 .44-1 1v1.67c-2.37 1.12-4 3.53-4 6.32 0 3.86 3.13 7 7 7 1.96 0 3.5-.82 4.53-2.15 1-1.31 1.46-3.05 1.46-4.86 0-.56-.45-1-1-1h-1c-.52 0-.95.39-1 .9 -.02.02-.06.05-.12.1 -.19.15-.49.32-.87.48 -.79.32-1.66.5-2.03.5 -.56 0-1-.45-1-1 0-.56.44-1 1-1 1.65 0 3-1.35 3-3v-4c0-.56-.45-1-1-1h-4Zm5.02 8.87s-.01 0-.01 0c0-.01 0-.01 0-.01Z"/></g></svg>