<svg viewBox="0 0 24 24" xmlns="http://www.w3.org/2000/svg"><g fill-rule="evenodd"><path d="M6.25 2c0-.42.33-.75.75-.75h6c3.17 0 5.75 2.57 5.75 5.75 0 3.17-2.58 5.75-5.75 5.75H7c-.42 0-.75-.34-.75-.75V9c0-.42.33-.75.75-.75 .41 0 .75.33.75.75v2.25H13c2.34 0 4.25-1.91 4.25-4.25 0-2.35-1.91-4.25-4.25-4.25H7.75V5c0 .41-.34.75-.75.75 -.42 0-.75-.34-.75-.75V2Z"/><path d="M6.25 22c0 .41.33.75.75.75h6c3.17 0 5.75-2.58 5.75-5.75 0-3.18-2.58-5.75-5.75-5.75H7c-.42 0-.75.33-.75.75v10Zm1.5-.75v-8.5H13c2.34 0 4.25 1.9 4.25 4.25 0 2.34-1.91 4.25-4.25 4.25H7.75Z"/><path d="M4.25 2c0-.42.33-.75.75-.75h2c.41 0 .75.33.75.75 0 .41-.34.75-.75.75H5c-.42 0-.75-.34-.75-.75Z"/><path d="M4.25 22c0 .41.33.75.75.75h2c.41 0 .75-.34.75-.75 0-.42-.34-.75-.75-.75H5c-.42 0-.75.33-.75.75Z"/></g></svg>