<svg viewBox="0 0 24 24" xmlns="http://www.w3.org/2000/svg"><g fill-rule="evenodd"><path d="M22.75 5.5c0-.42-.34-.75-.75-.75H2c-.42 0-.75.33-.75.75 0 .41.33.75.75.75h20c.41 0 .75-.34.75-.75Z"/><path d="M22.75 9.5c0-.42-.34-.75-.75-.75H8c-.42 0-.75.33-.75.75 0 .41.33.75.75.75h14c.41 0 .75-.34.75-.75Zm-18 0c0-.42-.34-.75-.75-.75H2c-.42 0-.75.33-.75.75 0 .41.33.75.75.75h2c.41 0 .75-.34.75-.75Z"/><path d="M22.75 13.5c0-.42-.34-.75-.75-.75H11c-.42 0-.75.33-.75.75 0 .41.33.75.75.75h11c.41 0 .75-.34.75-.75Z"/><path d="M22.75 17.5c0-.42-.34-.75-.75-.75H11c-.42 0-.75.33-.75.75 0 .41.33.75.75.75h11c.41 0 .75-.34.75-.75Z"/><path d="M8.75 13c0-.42-.34-.75-.75-.75H3c-.42 0-.75.33-.75.75v5c0 .41.33.75.75.75h5c.41 0 .75-.34.75-.75v-5Zm-1.5.75v3.5h-3.5v-3.5h3.5Z"/></g></svg>