<svg viewBox="0 0 24 24" xmlns="http://www.w3.org/2000/svg"><g fill-rule="evenodd"><path d="M15.25 9.5c0-.42-.34-.75-.75-.75h-5c-.42 0-.75.33-.75.75v5c0 .41.33.75.75.75h5c.41 0 .75-.34.75-.75v-5Zm-1.5.75v3.5h-3.5v-3.5h3.5Z"/><path d="M22.75 6c0-.42-.34-.75-.75-.75h-8c-.42 0-.75.33-.75.75 0 .41.33.75.75.75h8c.41 0 .75-.34.75-.75Zm-12 0c0-.42-.34-.75-.75-.75H2c-.42 0-.75.33-.75.75 0 .41.33.75.75.75h8c.41 0 .75-.34.75-.75Z"/><path d="M22.75 18c0-.42-.34-.75-.75-.75H2c-.42 0-.75.33-.75.75 0 .41.33.75.75.75h20c.41 0 .75-.34.75-.75Z"/><path d="M7.25 14c0-.42-.34-.75-.75-.75H2c-.42 0-.75.33-.75.75 0 .41.33.75.75.75h4.5c.41 0 .75-.34.75-.75Z"/><path d="M22.75 14c0-.42-.34-.75-.75-.75h-4.5c-.42 0-.75.33-.75.75 0 .41.33.75.75.75H22c.41 0 .75-.34.75-.75Z"/><path d="M7.25 10c0-.42-.34-.75-.75-.75H2c-.42 0-.75.33-.75.75 0 .41.33.75.75.75h4.5c.41 0 .75-.34.75-.75Z"/><path d="M22.75 10c0-.42-.34-.75-.75-.75h-4.5c-.42 0-.75.33-.75.75 0 .41.33.75.75.75H22c.41 0 .75-.34.75-.75Z"/></g></svg>