<svg viewBox="0 0 24 24" xmlns="http://www.w3.org/2000/svg"><g fill-rule="evenodd"><path d="M22.75 4c0-1.52-1.24-2.75-2.75-2.75H4C2.48 1.25 1.25 2.48 1.25 4v6c0 .41.33.75.75.75 .41 0 .75-.34.75-.75V4c0-.7.55-1.25 1.25-1.25h16c.69 0 1.25.55 1.25 1.25v16c0 .69-.56 1.25-1.25 1.25H4c-.7 0-1.25-.56-1.25-1.25v-6c0-.42-.34-.75-.75-.75 -.42 0-.75.33-.75.75v6c0 1.51 1.23 2.75 2.75 2.75h16c1.51 0 2.75-1.24 2.75-2.75V4Z"/><path d="M19.75 6c0-.97-.79-1.75-1.75-1.75h-3c-.97 0-1.75.78-1.75 1.75v12c0 .96.78 1.75 1.75 1.75h3c.96 0 1.75-.79 1.75-1.75V6ZM18 5.75c.13 0 .25.11.25.25v12c0 .13-.12.25-.25.25h-3c-.14 0-.25-.12-.25-.25V6c0-.14.11-.25.25-.25h3Z"/></g></svg>