<svg viewBox="0 0 24 24" xmlns="http://www.w3.org/2000/svg"><g fill-rule="evenodd"><path d="M1.25 2c0-.42.33-.75.75-.75h20c.41 0 .75.33.75.75v3.29c0 .41-.34.75-.75.75 -.42 0-.75-.34-.75-.75V2.74H2.75v2.54c0 .41-.34.75-.75.75 -.42 0-.75-.34-.75-.75v-3.3Z"/><path d="M12 1.25c.41 0 .75.33.75.75v6c0 .41-.34.75-.75.75 -.42 0-.75-.34-.75-.75V2c0-.42.33-.75.75-.75Zm0 10c.41 0 .75.33.75.75v10c0 .41-.34.75-.75.75 -.42 0-.75-.34-.75-.75V12c0-.42.33-.75.75-.75Z"/><path d="M5.53 22c0-.42.33-.75.75-.75h11.43c.41 0 .75.33.75.75 0 .41-.34.75-.75.75H6.27c-.42 0-.75-.34-.75-.75Z"/></g></svg>