<svg viewBox="0 0 24 24" xmlns="http://www.w3.org/2000/svg"><g fill-rule="evenodd"><path d="M1.25 18c0 .41.33.75.75.75h20c.41 0 .75-.34.75-.75 0-.42-.34-.75-.75-.75H2c-.42 0-.75.33-.75.75Z"/><path d="M1.25 14c0 .41.33.75.75.75h20c.41 0 .75-.34.75-.75 0-.42-.34-.75-.75-.75H2c-.42 0-.75.33-.75.75Z"/><path d="M1.25 10c0 .41.33.75.75.75h11c.41 0 .75-.34.75-.75 0-.42-.34-.75-.75-.75H2c-.42 0-.75.33-.75.75Z"/><path d="M1.25 6c0 .41.33.75.75.75h11c.41 0 .75-.34.75-.75 0-.42-.34-.75-.75-.75H2c-.42 0-.75.33-.75.75Z"/><path d="M15.25 10.5c0 .41.33.75.75.75h1c.41 0 .75-.34.75-.75 0-.42-.34-.75-.75-.75h-.25v-3.5h3.5v3.5H20c-.42 0-.75.33-.75.75 0 .41.33.75.75.75h1c.41 0 .75-.34.75-.75v-5c0-.42-.34-.75-.75-.75h-5c-.42 0-.75.33-.75.75v5Z"/></g></svg>