<svg viewBox="0 0 24 24" xmlns="http://www.w3.org/2000/svg"><g fill-rule="evenodd"><path d="M1 2c0-.56.44-1 1-1h20c.55 0 1 .44 1 1v20c0 .55-.45 1-1 1H2c-.56 0-1-.45-1-1V2Zm2 1v18h18V3H3Z"/><path d="M12 14.5c-1.11 0-2 .89-2 2 0 1.1.89 2 2 2 1.1 0 2-.9 2-2 0-1.11-.9-2-2-2Zm-4 2c0-2.21 1.79-4 4-4 2.2 0 4 1.79 4 4 0 2.2-1.8 4-4 4 -2.21 0-4-1.8-4-4Z"/><path d="M9.5 6c0-1.39 1.11-2.5 2.5-2.5 1.38 0 2.5 1.11 2.5 2.5v1.5c0 1.38-1.12 2.5-2.5 2.5 -1.39 0-2.5-1.12-2.5-2.5V6Zm2.5-.5c-.28 0-.5.22-.5.5v1.5c0 .27.22.5.5.5 .27 0 .5-.23.5-.5V6c0-.28-.23-.5-.5-.5Z"/><path d="M7 7.5v-1h2v1c0 1.38 1.11 2.5 2.5 2.5h1c1.38 0 2.5-1.12 2.5-2.5v-1h2v1c0 2.48-2.02 4.5-4.5 4.5h-1C9.01 12 7 9.98 7 7.5Z"/></g></svg>