<svg viewBox="0 0 24 24" xmlns="http://www.w3.org/2000/svg"><g fill-rule="evenodd"><path d="M3 6H2V4h2c.55 0 1 .44 1 1v14H3V6Z"/><path d="M3 6.5c0-.56.44-1 1-1h18c.55 0 1 .44 1 1v10c0 .55-.45 1-1 1H4c-.56 0-1-.45-1-1v-10Zm2 1v8h16v-8H5Z"/><path d="M17 9.5c-1.11 0-2 .89-2 2 0 1.1.89 2 2 2 1.1 0 2-.9 2-2 0-1.11-.9-2-2-2Zm-4 2c0-2.21 1.79-4 4-4 2.2 0 4 1.79 4 4 0 2.2-1.8 4-4 4 -2.21 0-4-1.8-4-4Z"/><path d="M9 9.5c-1.11 0-2 .89-2 2 0 1.1.89 2 2 2 1.1 0 2-.9 2-2 0-1.11-.9-2-2-2Zm-4 2c0-2.21 1.79-4 4-4 2.2 0 4 1.79 4 4 0 2.2-1.8 4-4 4 -2.21 0-4-1.8-4-4Z"/><path d="M6 16.5c0-.56.44-1 1-1h10c.55 0 1 .44 1 1v3c0 .55-.45 1-1 1H7c-.56 0-1-.45-1-1v-3Zm2 1v1h8v-1H8Z"/></g></svg>