<svg viewBox="0 0 24 24" xmlns="http://www.w3.org/2000/svg"><g fill-rule="evenodd"><path d="M3 6H2V4h2c.55 0 1 .44 1 1v14H3V6Z"/><path d="M3 6.5c0-.56.44-1 1-1h18c.55 0 1 .44 1 1v10c0 .55-.45 1-1 1H4c-.56 0-1-.45-1-1v-10Zm2 1v8h16v-8H5Z"/><path d="M3 6.5c0-.56.44-1 1-1h4.5c.3 0 .59.13.78.37l3.69 4.62H13l3.69-4.63c.18-.24.47-.38.78-.38h4.5c.55 0 1 .44 1 1v10c0 .55-.45 1-1 1h-4.5c-.31 0-.6-.14-.79-.38l-3.7-4.63h-.04l-3.7 4.62c-.19.23-.48.37-.79.37h-4.5c-.56 0-1-.45-1-1v-10Zm11.78 5l3.2 4h3.01v-8h-3.02l-3.2 4Zm-3.57 0L8 7.5H4.98v8h3.01l3.2-4Z"/><path d="M18.5 11c-.28 0-.5.22-.5.5 0 .27.22.5.5.5 .27 0 .5-.23.5-.5 0-.28-.23-.5-.5-.5Zm-2.5.5c0-1.39 1.11-2.5 2.5-2.5 1.38 0 2.5 1.11 2.5 2.5 0 1.38-1.12 2.5-2.5 2.5 -1.39 0-2.5-1.12-2.5-2.5Z"/><path d="M7.5 11c-.28 0-.5.22-.5.5 0 .27.22.5.5.5 .27 0 .5-.23.5-.5 0-.28-.23-.5-.5-.5Zm-2.5.5C5 10.11 6.11 9 7.5 9c1.38 0 2.5 1.11 2.5 2.5 0 1.38-1.12 2.5-2.5 2.5C6.11 14 5 12.88 5 11.5Z"/><path d="M6 16.5c0-.56.44-1 1-1h10c.55 0 1 .44 1 1v3c0 .55-.45 1-1 1H7c-.56 0-1-.45-1-1v-3Zm2 1v1h8v-1H8Z"/></g></svg>