<svg viewBox="0 0 24 24" xmlns="http://www.w3.org/2000/svg"><g fill-rule="evenodd"><path d="M3 22c0 .55.44 1 1 1h18c.55 0 1-.45 1-1V2c0-.56-.45-1-1-1H4c-.56 0-1 .44-1 1v3h2V3h16v18H5v-7H3v8Z"/><path d="M8.5 8.5c0 .55.44 1 1 1h4c.55 0 1-.45 1-1v-4c0-.56-.45-1-1-1h-4c-.56 0-1 .44-1 1v4Zm2-1v-2h2v2h-2Z"/><path d="M1.43 15.82c.27.18.62.22.93.1l5-2c.37-.16.62-.52.62-.93v-7c0-.41-.25-.78-.63-.93l-5-2c-.31-.13-.66-.09-.94.1 -.28.18-.44.49-.44.82v11c0 .33.16.64.43.82Zm1.56-2.31V5.46l3 1.2v5.64l-3 1.2Z"/><path d="M15 8c0 .55.44 1 1 1h3c.55 0 1-.45 1-1V5c0-.56-.45-1-1-1h-3c-.56 0-1 .44-1 1v3Zm2-1V6h1v1h-1Z"/><path d="M10.5 19.5c0 .55.44 1 1 1h8c.55 0 1-.45 1-1v-3c0-.56-.45-1-1-1h-8c-.56 0-1 .44-1 1v3Zm2-1v-1h6v1h-6Z"/><path d="M10.5 14c0 .55.44 1 1 1h8c.55 0 1-.45 1-1v-3c0-.56-.45-1-1-1h-8c-.56 0-1 .44-1 1v3Zm2-1v-1h6v1h-6Z"/></g></svg>