<svg viewBox="0 0 24 24" xmlns="http://www.w3.org/2000/svg"><g fill-rule="evenodd"><path d="M1 2c0-.56.44-1 1-1h20c.55 0 1 .44 1 1v20c0 .55-.45 1-1 1H2c-.56 0-1-.45-1-1V2Zm2 1v18h18V3H3Z"/><path d="M4 6c0-1.11.89-2 2-2h12c1.1 0 2 .89 2 2v12c0 1.1-.9 2-2 2H6c-1.11 0-2-.9-2-2V6Zm14 0H6v12h12V6Z"/><path d="M10.32 12.05c-.25.36-.23.59-.19.7 .04.1.19.28.62.37 .42.08.99.04 1.6-.21 .61-.25 1.05-.63 1.29-.98 .24-.37.22-.6.18-.71 -.05-.11-.2-.29-.63-.38 -.43-.09-1-.05-1.61.2 -.62.24-1.06.62-1.3.97Zm-1.66-1.13c.49-.73 1.27-1.33 2.19-1.71 .92-.38 1.9-.49 2.76-.31 .84.17 1.69.66 2.07 1.58 .37.91.1 1.862-.39 2.57 -.5.72-1.28 1.32-2.2 1.7 -.93.37-1.91.48-2.77.3 -.85-.18-1.7-.67-2.08-1.59 -.38-.92-.11-1.862.38-2.58Z"/></g></svg>