<svg viewBox="0 0 24 24" xmlns="http://www.w3.org/2000/svg"><g fill-rule="evenodd"><path d="M1 7c0-.56.44-1 1-1h20c.55 0 1 .44 1 1v13c0 .55-.45 1-1 1H11c-.56 0-1-.45-1-1v-2H8v2c0 .55-.45 1-1 1H2c-.56 0-1-.45-1-1V7Zm2 1v11h3v-2c0-.56.44-1 1-1h4c.55 0 1 .44 1 1v2h9V8H3Z"/><path d="M10 17c0-.56.44-1 1-1h8c.55 0 1 .44 1 1v3c0 .55-.45 1-1 1h-8c-.56 0-1-.45-1-1v-3Zm2 1v1h6v-1h-6Z"/><path d="M15 10c0-.56.44-1 1-1h3c.55 0 1 .44 1 1v4c0 .55-.45 1-1 1h-3c-.56 0-1-.45-1-1v-4Zm2 1v2h1v-2h-1Z"/><path d="M4 10c0-.56.44-1 1-1h3c.55 0 1 .44 1 1v4c0 .55-.45 1-1 1H5c-.56 0-1-.45-1-1v-4Zm2 1v2h1v-2H6Z"/><path d="M9.5 10c0-.56.44-1 1-1h3c.55 0 1 .44 1 1v4c0 .55-.45 1-1 1h-3c-.56 0-1-.45-1-1v-4Zm2 1v2h1v-2h-1Z"/></g></svg>