<svg viewBox="0 0 24 24" xmlns="http://www.w3.org/2000/svg"><g fill-rule="evenodd"><path d="M1 3c0-.56.44-1 1-1h3c.55 0 1 .44 1 1v4c0 .55-.45 1-1 1H2c-.56 0-1-.45-1-1V3Zm2 1v2h1V4H3Z"/><path d="M23 17c0-.56-.45-1-1-1h-3c-.56 0-1 .44-1 1v4c0 .55.44 1 1 1h3c.55 0 1-.45 1-1v-4Zm-2 1v2h-1v-2h1Z"/><path d="M4 2c0-.56.44-1 1-1h2c1.65 0 3 1.34 3 3v2c0 1.65-1.35 3-3 3H5c-.56 0-1-.45-1-1V2Zm2 1v4h1c.55 0 1-.45 1-1V4c0-.56-.45-1-1-1H6Z"/><path d="M20 16c0-.56-.45-1-1-1h-2c-1.66 0-3 1.34-3 3v2c0 1.65 1.34 3 3 3h2c.55 0 1-.45 1-1v-6Zm-2 1v4h-1c-.56 0-1-.45-1-1v-2c0-.56.44-1 1-1h1Z"/><path d="M8 3c0-.56.44-1 1-1h1.5c2.2 0 4 1.79 4 4v9.5c0 .27.22.5.5.5v1h1v4c0 .55-.45 1-1 1h-1.5c-2.21 0-4-1.8-4-4V8.5c0-.28-.23-.5-.5-.5V7H8V3Zm2 3.2c.88.38 1.5 1.26 1.5 2.29v9.5c0 1.1.89 2 2 2h.5v-2.21c-.89-.39-1.5-1.27-1.5-2.292v-9.5c0-1.11-.9-2-2-2H10v2.2Z"/></g></svg>