<svg viewBox="0 0 24 24" xmlns="http://www.w3.org/2000/svg"><g fill-rule="evenodd"><path d="M19.29 15.29c.39-.4 1.02-.4 1.41 0l2 2c.39.39.39 1.02 0 1.41l-4 4c-.4.39-1.03.39-1.42 0l-2-2c-.4-.4-.4-1.03 0-1.42l4-4Zm-1.88 4.7l.58.58 2.58-2.59 -.59-.59 -2.59 2.58Z"/><path d="M8 1c.26 0 .51.1.7.29l13 13c.39.39.39 1.02 0 1.41l-6 6c-.4.39-1.03.39-1.42 0l-13-13c-.19-.19-.3-.45-.3-.71 0-.27.1-.52.29-.71L3.2 5.34c.39-.4 1.02-.4 1.41 0 .09.09.21.14.35.14 .27 0 .5-.23.5-.5 0-.14-.06-.27-.15-.36 -.4-.4-.4-1.03 0-1.42l1.93-1.94c.18-.19.44-.3.7-.3Zm0 2.41l-.68.67c.11.28.17.59.17.91 0 1.38-1.12 2.5-2.5 2.5 -.33 0-.64-.07-.92-.18l-.68.67 11.58 11.58 4.58-4.59L7.96 3.38Z"/><path d="M10.293 10.7l-3.01-3 1.41-1.42 3 3 -1.42 1.41Z"/></g></svg>