<svg viewBox="0 0 24 24" xmlns="http://www.w3.org/2000/svg"><g fill="#ECEFF1"><path d="M8 2.25c-.97 0-1.75.78-1.75 1.75v4c0 .41.33.75.75.75h9c.13 0 .25.11.25.25v8c0 .41.33.75.75.75h4c.96 0 1.75-.79 1.75-1.75V4c0-.97-.79-1.75-1.75-1.75H8Z"/><path d="M3 7.25c-.97 0-1.75.78-1.75 1.75v12c0 .96.78 1.75 1.75 1.75h13c.96 0 1.75-.79 1.75-1.75V9c0-.97-.79-1.75-1.75-1.75H3Z"/></g><g fill="#5E94FF"><path d="M8 2.25c-.97 0-1.75.78-1.75 1.75v4c0 .41.33.75.75.75h15c.41 0 .75-.34.75-.75V4c0-.97-.79-1.75-1.75-1.75H8Z"/><path d="M3 7.25c-.97 0-1.75.78-1.75 1.75v4c0 .41.33.75.75.75h15c.41 0 .75-.34.75-.75V9c0-.97-.79-1.75-1.75-1.75H3Z"/></g></svg>