<svg viewBox="0 0 24 24" xmlns="http://www.w3.org/2000/svg"><path fill="#ECEFF1" d="M11 3.75c-3.5 0-6.38 2.66-6.716 6.06 -1.73.33-3.034 1.85-3.034 3.68 0 .94.23 1.87.78 2.57 .56.73 1.4 1.17 2.46 1.17h14.5c1.34 0 2.33-.57 2.95-1.52 .58-.9.79-2.07.79-3.24 0-2.63-2.13-4.75-4.75-4.75 -.28 0-.55.02-.81.06 -1.04-2.4-3.43-4.07-6.2-4.07Z"/><g fill="#5E94FF" fill-rule="evenodd"><path d="M11 13.75c-1.25 0-2.25 1-2.25 2.25 0 1.24 1 2.25 2.25 2.25 .41 0 .75.33.75.75 0 .41-.34.75-.75.75 -2.08 0-3.75-1.68-3.75-3.75 0-2.08 1.67-3.75 3.75-3.75 2.07 0 3.75 1.67 3.75 3.75v1.5c0 .41-.34.75-.75.75 -.42 0-.75-.34-.75-.75V16c0-1.25-1.01-2.25-2.25-2.25Z"/><path d="M10.91 15.53c.25-.33.73-.38 1.05-.12l2.03 1.62 2.03-1.63c.32-.26.79-.21 1.05.11 .25.32.2.79-.12 1.05l-2.5 2c-.28.21-.67.21-.94 0l-2.5-2c-.33-.26-.38-.74-.12-1.06Z"/></g></svg>