<svg viewBox="0 0 24 24" xmlns="http://www.w3.org/2000/svg"><path fill="#ECEFF1" d="M11 3.75c-3.5 0-6.38 2.66-6.716 6.06 -1.73.33-3.034 1.85-3.034 3.68 0 2.07 1.67 3.75 3.75 3.75h13.5c1.32 0 2.41-.55 3.15-1.45 .73-.89 1.09-2.07 1.09-3.31 0-2.63-2.13-4.75-4.75-4.75 -.28 0-.55.02-.81.06 -1.04-2.4-3.43-4.07-6.2-4.07Z"/><path fill="#FF4DA5" d="M8.55 12.55c.91-.92 2.3-1.05 3.35-.42 1.05-.64 2.44-.5 3.35.41 1.07 1.07 1.07 2.81 0 3.88l-2.83 2.82c-.15.14-.34.21-.54.21s-.39-.08-.54-.22L8.51 16.4c-1.08-1.08-1.08-2.82 0-3.89Z"/></svg>