<svg viewBox="0 0 24 24" xmlns="http://www.w3.org/2000/svg"><path fill="#ECEFF1" d="M11 3.75c-3.5 0-6.38 2.66-6.716 6.06 -1.73.33-3.034 1.85-3.034 3.68 0 2.07 1.67 3.75 3.75 3.75h13.5c1.32 0 2.41-.55 3.15-1.45 .73-.89 1.09-2.07 1.09-3.31 0-2.63-2.13-4.75-4.75-4.75 -.28 0-.55.02-.81.06 -1.04-2.4-3.43-4.07-6.2-4.07Z"/><g fill="#EE4D4D" fill-rule="evenodd"><path d="M12 21.25c.41 0 .75-.34.75-.75V19c0-.42-.34-.75-.75-.75 -.42 0-.75.33-.75.75v1.5c0 .41.33.75.75.75Z"/><path d="M12 17.25c.41 0 .75-.34.75-.75v-5c0-.42-.34-.75-.75-.75 -.42 0-.75.33-.75.75v5c0 .41.33.75.75.75Z"/></g></svg>