<svg viewBox="0 0 24 24" xmlns="http://www.w3.org/2000/svg"><g fill="#5E94FF" fill-rule="evenodd"><path d="M18 11.75c.41 0 .75.33.75.75V20c0 .41-.34.75-.75.75h-4c-.42 0-.75-.34-.75-.75 0-.42.33-.75.75-.75h3.25V12.5c0-.42.33-.75.75-.75Z"/><path d="M6 12.75c-.42 0-.75-.34-.75-.75V7c0-.42.33-.75.75-.75h4c.41 0 .75.33.75.75 0 .41-.34.75-.75.75H6.75V12c0 .41-.34.75-.75.75Z"/></g><g fill="#ECEFF1"><path d="M7.4 14.25c-2.16 0-3.98 1.54-4.3 3.59 -1.06.29-1.86 1.24-1.86 2.4 0 1.4 1.16 2.5 2.55 2.5h8.1c.87 0 1.61-.36 2.11-.95 .49-.59.73-1.35.73-2.14 0-1.73-1.44-3.09-3.15-3.09 -.11 0-.21 0-.31.01 -.72-1.4-2.2-2.35-3.9-2.35Z"/><path d="M15.4 1.25c-2.16 0-3.98 1.54-4.3 3.59 -1.06.29-1.86 1.24-1.86 2.4 0 1.4 1.16 2.5 2.55 2.5h8.1c.87 0 1.61-.36 2.11-.95 .49-.59.73-1.35.73-2.14 0-1.73-1.44-3.09-3.15-3.09 -.11 0-.21 0-.31.01 -.72-1.4-2.2-2.35-3.9-2.35Z"/></g></svg>