<svg viewBox="0 0 24 24" xmlns="http://www.w3.org/2000/svg"><path fill="#ECEFF1" d="M3 2.25c-.42 0-.75.33-.75.75v18c0 .41.33.75.75.75h18c.41 0 .75-.34.75-.75V3c0-.42-.34-.75-.75-.75H3Z"/><g fill="#5E94FF" fill-rule="evenodd"><path d="M16.25 3c0-.42.33-.75.75-.75h4c.41 0 .75.33.75.75v18c0 .41-.34.75-.75.75h-4c-.42 0-.75-.34-.75-.75V3Zm1.5.75v16.5h2.5V3.75h-2.5Z"/><path d="M2.25 3c0-.42.33-.75.75-.75h4c.41 0 .75.33.75.75v18c0 .41-.34.75-.75.75H3c-.42 0-.75-.34-.75-.75V3Zm1.5.75v16.5h2.5V3.75h-2.5Z"/><path d="M2.25 3c0-.42.33-.75.75-.75h18c.41 0 .75.33.75.75v18c0 .41-.34.75-.75.75H3c-.42 0-.75-.34-.75-.75V3Zm1.5.75v16.5h16.5V3.75H3.75Z"/><path d="M2.25 17c0-.42.33-.75.75-.75h18c.41 0 .75.33.75.75v4c0 .41-.34.75-.75.75H3c-.42 0-.75-.34-.75-.75v-4Zm1.5.75v2.5h16.5v-2.5H3.75Z"/><path d="M2.25 3c0-.42.33-.75.75-.75h18c.41 0 .75.33.75.75v4c0 .41-.34.75-.75.75H3c-.42 0-.75-.34-.75-.75V3Zm1.5.75v2.5h16.5v-2.5H3.75Z"/></g></svg>