<svg viewBox="0 0 24 24" xmlns="http://www.w3.org/2000/svg"><path fill="#ECEFF1" d="M3 2.25c-.42 0-.75.33-.75.75v18c0 .41.33.75.75.75h18c.41 0 .75-.34.75-.75V3c0-.42-.34-.75-.75-.75H3Z"/><g fill="#5E94FF" fill-rule="evenodd"><path d="M2.25 3c0-.42.33-.75.75-.75h18c.41 0 .75.33.75.75v18c0 .41-.34.75-.75.75H3c-.42 0-.75-.34-.75-.75V3Zm1.5.75v16.5h16.5V3.75H3.75Z"/><path d="M11.25 8c0-.42.33-.75.75-.75h9c.41 0 .75.33.75.75v13c0 .41-.34.75-.75.75h-9c-.42 0-.75-.34-.75-.75V8Zm1.5.75v11.5h7.5V8.75h-7.5Z"/><path d="M2.25 3c0-.42.33-.75.75-.75h18c.41 0 .75.33.75.75v5c0 .41-.34.75-.75.75H3c-.42 0-.75-.34-.75-.75V3Zm1.5.75v3.5h16.5v-3.5H3.75Z"/></g></svg>