<svg viewBox="0 0 24 24" xmlns="http://www.w3.org/2000/svg"><g fill-rule="evenodd"><path d="M1 4c0-.56.44-1 1-1h18c.55 0 1 .44 1 1v5.5h-2V5H3v14h6v2H2c-.56 0-1-.45-1-1V4Z"/><path d="M2 7h18v2H2V7Z"/><path d="M5 5.5V2h2v3.5H5Z"/><path d="M15 5.5V2h2v3.5h-2Z"/><path d="M16.5 12c-2.49 0-4.5 2.01-4.5 4.5 0 2.48 2.01 4.5 4.5 4.5 2.48 0 4.5-2.02 4.5-4.5 0-2.49-2.02-4.5-4.5-4.5ZM10 16.5c0-3.59 2.91-6.5 6.5-6.5 3.58 0 6.5 2.91 6.5 6.5 0 3.58-2.92 6.5-6.5 6.5 -3.59 0-6.5-2.92-6.5-6.5Z"/><path d="M15.5 19v-5h2v5h-2Z"/><path d="M19 17.5h-5v-2h5v2Z"/></g></svg>