<svg viewBox="0 0 24 24" xmlns="http://www.w3.org/2000/svg"><g fill-rule="evenodd"><path d="M1 8c0-.56.44-1 1-1h4.5v2H3v6h7.5v2H2c-.56 0-1-.45-1-1V8Zm17.5 1H9.87V7h9.62c.55 0 1 .44 1 1v8c0 .55-.45 1-1 1h-6v-2h5V9Z"/><path d="M18.5 10c0-.56.44-1 1-1H22c.55 0 1 .44 1 1v4c0 .55-.45 1-1 1h-2.5c-.56 0-1-.45-1-1v-4Zm2 1v2h.5v-2h-.5Z"/><path d="M7.07 11.62l3.99-10 1.85.74 -3.46 8.62h4.52c.29 0 .58.13.77.36 .19.23.266.53.2.83l-2 10 -1.97-.4 1.76-8.81H7.94c-.34 0-.65-.17-.83-.44 -.19-.28-.23-.63-.11-.94Z"/></g></svg>