<svg viewBox="0 0 24 24" xmlns="http://www.w3.org/2000/svg"><g fill-rule="evenodd"><path d="M12 10.5c-.83 0-1.5.67-1.5 1.5 0 .82.67 1.5 1.5 1.5 .82 0 1.5-.68 1.5-1.5 0-.83-.68-1.5-1.5-1.5ZM8.5 12c0-1.94 1.56-3.51 3.5-3.51 1.93 0 3.5 1.56 3.5 3.5 0 1.93-1.57 3.5-3.5 3.5 -1.94 0-3.5-1.57-3.5-3.5Z"/><path d="M4.41 12c.04.04.09.08.14.13 .52.49 1.26 1.16 2.11 1.82 .85.66 1.8 1.31 2.74 1.78 .95.48 1.84.75 2.58.75s1.62-.28 2.58-.76c.94-.48 1.89-1.13 2.74-1.79 .85-.67 1.58-1.33 2.11-1.83 .04-.05.09-.1.14-.14 -.05-.05-.1-.09-.15-.14 -.53-.5-1.27-1.17-2.12-1.83 -.86-.67-1.81-1.32-2.75-1.79 -.96-.49-1.85-.76-2.59-.76 -.75 0-1.63.27-2.59.75 -.95.47-1.9 1.12-2.75 1.78 -.86.66-1.59 1.32-2.12 1.82 -.05.04-.1.09-.15.13Zm16.58 0c.73-.69.73-.69.73-.69l-.01-.01 -.02-.02 -.05-.06c-.05-.05-.11-.11-.18-.19 -.16-.16-.38-.38-.66-.65 -.56-.54-1.35-1.25-2.27-1.96 -.92-.72-1.98-1.44-3.08-2 -1.1-.55-2.3-.97-3.49-.97 -1.19 0-2.4.41-3.49.96 -1.11.55-2.17 1.28-3.08 1.99 -.92.71-1.71 1.42-2.27 1.95 -.28.26-.51.48-.66.64 -.08.07-.14.14-.18.18l-.05.05 -.02.01 -.01 0 -.01 0c-.01 0-.01 0 .73.68l-.74-.69c-.36.38-.36.98 0 1.36l.73-.69c-.74.68-.74.68-.74.68l0 0 0 0 .01.01 .04.05c.04.04.1.1.17.18 .15.15.37.37.65.64 .55.53 1.34 1.24 2.26 1.95 .91.71 1.97 1.43 3.07 1.99 1.09.54 2.29.96 3.48.96 1.18 0 2.39-.42 3.48-.97 1.1-.56 2.16-1.29 3.07-2 .91-.72 1.7-1.43 2.26-1.96 .27-.27.5-.49.65-.65 .07-.08.13-.15.17-.19l.04-.06 .01-.02 0-.01c0-.01 0-.01-.74-.69Zm0 0l.73.68c.35-.39.35-.99-.01-1.37l-.74.68Z"/></g></svg>