<svg viewBox="0 0 24 24" xmlns="http://www.w3.org/2000/svg"><g fill-rule="evenodd"><path d="M3.5 3c0-.56.44-1 1-1h4c.55 0 1 .44 1 1v4c0 .55-.45 1-1 1h-4c-.56 0-1-.45-1-1V3Zm2 1v2h2V4h-2Z"/><path d="M3.5 10c0-.56.44-1 1-1h4c.55 0 1 .44 1 1v4c0 .55-.45 1-1 1h-4c-.56 0-1-.45-1-1v-4Zm2 1v2h2v-2h-2Z"/><path d="M3.5 17c0-.56.44-1 1-1h4c.55 0 1 .44 1 1v4c0 .55-.45 1-1 1h-4c-.56 0-1-.45-1-1v-4Zm2 1v2h2v-2h-2Z"/><path d="M15 4.5h-4v-2h4v2Z"/><path d="M15 11.5h-4v-2h4v2Z"/><path d="M15 18.5h-4v-2h4v2Z"/><path d="M20 7.5h-9v-2h9v2Z"/><path d="M20 14.5h-9v-2h9v2Z"/><path d="M20 21.5h-9v-2h9v2Z"/></g></svg>