<svg viewBox="0 0 24 24" xmlns="http://www.w3.org/2000/svg"><g fill-rule="evenodd"><path d="M5 7.42c.03-.53.47-.93.99-.93h12c.52 0 .96.4.99.92l1 14c.01.27-.08.54-.27.75 -.19.2-.46.31-.74.31h-14c-.28 0-.55-.12-.74-.32 -.19-.21-.29-.48-.27-.76l1-14Zm1.92 1.07l-.86 12h11.85l-.86-12H6.91Z"/><path d="M7 6.5c0-2.77 2.23-5 5-5 2.76 0 5 2.23 5 5v1c0 .55-.45 1-1 1H8c-.56 0-1-.45-1-1v-1Zm5-3c-1.66 0-3 1.34-3 3h6c0-1.66-1.35-3-3-3Z"/><path d="M7.5 11.5c0 2.48 2.01 4.5 4.5 4.5 2.48 0 4.5-2.02 4.5-4.5V11h-2v.5c0 1.38-1.12 2.5-2.5 2.5 -1.39 0-2.5-1.12-2.5-2.5V11h-2v.5Z"/></g></svg>