<svg viewBox="0 0 24 24" xmlns="http://www.w3.org/2000/svg"><g fill-rule="evenodd"><path d="M12 12.5c-.28 0-.5.22-.5.5 0 .27.22.5.5.5 .27 0 .5-.23.5-.5 0-.28-.23-.5-.5-.5Zm-2.5.5c0-1.39 1.11-2.5 2.5-2.5 1.38 0 2.5 1.11 2.5 2.5 0 1.38-1.12 2.5-2.5 2.5 -1.39 0-2.5-1.12-2.5-2.5Z"/><path d="M11 18v-3.5h2V18h-2Z"/><path d="M9 3c-.56 0-1 .44-1 1v3.57H6V3.99c0-1.66 1.34-3 3-3h6c1.65 0 3 1.34 3 3v.87h-2v-.88c0-.56-.45-1-1-1H9Z"/><path d="M12 7c-3.87 0-7 3.13-7 7 0 3.86 3.13 7 7 7 3.86 0 7-3.14 7-7 0-3.87-3.14-7-7-7Zm-9 7c0-4.98 4.02-9 9-9 4.97 0 9 4.02 9 9 0 4.97-4.03 9-9 9 -4.98 0-9-4.03-9-9Z"/></g></svg>