<svg viewBox="0 0 24 24" xmlns="http://www.w3.org/2000/svg"><g fill-rule="evenodd"><path d="M1 4c0-.56.44-1 1-1h4.9c.32 0 .63.16.82.43l1.5 2.19h9.77c.55 0 1 .44 1 1v1.375h-2V7.62h-9.3c-.33 0-.64-.17-.83-.44l-1.51-2.2H2.97v14h5.5v2h-6.5c-.56 0-1-.45-1-1v-16Z"/><path d="M17 12.5v7h-2v-7h2Z"/><path d="M15.29 11.79c.39-.4 1.02-.4 1.41 0l3 3 -1.42 1.41 -2.3-2.3 -2.3 2.29 -1.42-1.42 3-3Z"/><path d="M16 11c-2.77 0-5 2.23-5 5 0 2.76 2.23 5 5 5 2.76 0 5-2.24 5-5 0-2.77-2.24-5-5-5Zm-7 5c0-3.87 3.13-7 7-7 3.86 0 7 3.13 7 7 0 3.86-3.14 7-7 7 -3.87 0-7-3.14-7-7Z"/></g></svg>