<svg viewBox="0 0 24 24" xmlns="http://www.w3.org/2000/svg"><g fill="#9545ED" fill-rule="evenodd"><path d="M8.75 7c0-.56.44-1 1-1h3c1.93 0 3.5 1.56 3.5 3.5 0 1.93-1.57 3.5-3.5 3.5h-3c-.56 0-1-.45-1-1V7Zm2 1v3h2c.82 0 1.5-.68 1.5-1.5 0-.83-.68-1.5-1.5-1.5h-2Z"/><path d="M8.75 12c0-.56.44-1 1-1h3c1.93 0 3.5 1.56 3.5 3.5 0 1.93-1.57 3.5-3.5 3.5h-3c-.56 0-1-.45-1-1v-5Zm2 1v3h2c.82 0 1.5-.68 1.5-1.5 0-.83-.68-1.5-1.5-1.5h-2Z"/><path d="M11.75 5v2h-2V5h2Z"/><path d="M11.75 17v2h-2v-2h2Z"/><path d="M14.25 5v2h-2V5h2Z"/><path d="M14.25 17v2h-2v-2h2Z"/><path fill="#3747D6" d="M12 3c-4.98 0-9 4.02-9 9 0 4.97 4.02 9 9 9 4.97 0 9-4.03 9-9 0-4.98-4.03-9-9-9ZM1 12C1 5.92 5.92 1 12 1c6.07 0 11 4.92 11 11 0 6.07-4.93 11-11 11C5.92 23 1 18.07 1 12Z"/></g></svg>