<svg viewBox="0 0 24 24" xmlns="http://www.w3.org/2000/svg"><g fill="#3747D6" fill-rule="evenodd"><path d="M1 4.25c0-1.11.89-2 2-2h18c1.1 0 2 .89 2 2v5c0 1.1-.9 2-2 2h-3.5c-.56 0-1-.45-1-1 0-.56.44-1 1-1H21v-5H3v5h3.5c.55 0 1 .44 1 1 0 .55-.45 1-1 1H3c-1.11 0-2-.9-2-2v-5Z"/><g fill="#9545ED"><path d="M13 19.75c0-1.66 1.34-3 3-3h1c.55 0 1 .44 1 1v2c0 1.1-.9 2-2 2h-2c-.56 0-1-.45-1-1v-1Zm3-1c-.56 0-1 .44-1 1h1v-1Z"/><path d="M11 19.75c0-1.66-1.35-3-3-3H7c-.56 0-1 .44-1 1v2c0 1.1.89 2 2 2h2c.55 0 1-.45 1-1v-1Zm-3-1c.55 0 1 .44 1 1H8v-1Z"/><path d="M12 11.25c-.28 0-.5.22-.5.5 0 .27.22.5.5.5 .27 0 .5-.23.5-.5 0-.28-.23-.5-.5-.5Zm-2.5.5c0-1.39 1.11-2.5 2.5-2.5 1.38 0 2.5 1.11 2.5 2.5 0 1.38-1.12 2.5-2.5 2.5 -1.39 0-2.5-1.12-2.5-2.5Z"/><path d="M6 6.75c0-.56.44-1 1-1h10c.55 0 1 .44 1 1v13c0 1.1-.9 2-2 2H8c-1.11 0-2-.9-2-2v-13Zm2 1v12h8v-12H8Z"/></g><path d="M19.5 7.75h-15v-2h15v2Z"/></g></svg>