<svg viewBox="0 0 24 24" xmlns="http://www.w3.org/2000/svg"><g fill="#9545ED" fill-rule="evenodd"><path d="M20 15v5c0 .55-.45 1-1 1h-4v-2h3v-4h2Z"/><path d="M18.48 14.14c.32-.2.73-.19 1.05.01l2.32 1.5 -1.09 1.67 -1.8-1.17 -1.97 1.17 -1.03-1.72 2.5-1.5Z"/><path d="M4.32 9V4c0-.56.44-1 1-1h4v2h-3v4h-2Z"/><path d="M5.83 9.85c-.33.19-.74.18-1.06-.02l-2.33-1.5 1.08-1.68 1.79 1.16 1.96-1.18 1.02 1.71 -2.5 1.5Z"/><g fill="#3747D6"><path d="M11 4c0-.56.44-1 1-1h10c.55 0 1 .44 1 1v6c0 .55-.45 1-1 1H12c-.56 0-1-.45-1-1V4Zm2 1v4h8V5h-8Z"/><path d="M1 14c0-.56.44-1 1-1h10c.55 0 1 .44 1 1v6c0 .55-.45 1-1 1H2c-.56 0-1-.45-1-1v-6Zm2 1v4h8v-4H3Z"/></g></g></svg>