<svg viewBox="0 0 24 24" xmlns="http://www.w3.org/2000/svg"><g fill="#3747D6" fill-rule="evenodd"><path d="M1 4c0-1.11.89-2 2-2h18c1.1 0 2 .89 2 2v12c0 1.1-.9 2-2 2h-4.5v-2H21V4H3v12h4.5v2H3c-1.11 0-2-.9-2-2V4Z"/><path d="M17 3c0-.56.44-1 1-1h3c1.1 0 2 .89 2 2v3c0 .55-.45 1-1 1h-2c-1.66 0-3-1.35-3-3V3Zm2 1v1c0 .55.44 1 1 1h1V4h-2Z"/><g fill="#9545ED"><path d="M16.5 9H18v2h-1.5V9Z"/><path d="M6 9h1.5v2H6V9Z"/></g><path d="M7 3c0-.56-.45-1-1-1H3c-1.11 0-2 .89-2 2v3c0 .55.44 1 1 1h2c1.65 0 3-1.35 3-3V3ZM5 4v1c0 .55-.45 1-1 1H3V4h2Z"/><path d="M17 17c0 .55.44 1 1 1h3c1.1 0 2-.9 2-2v-3c0-.56-.45-1-1-1h-2c-1.66 0-3 1.34-3 3v2Zm2-1v-1c0-.56.44-1 1-1h1v2h-2Z"/><path d="M7 17c0 .55-.45 1-1 1H3c-1.11 0-2-.9-2-2v-3c0-.56.44-1 1-1h2c1.65 0 3 1.34 3 3v2Zm-2-1v-1c0-.56-.45-1-1-1H3v2h2Z"/><g fill="#9545ED"><path d="M12 9c-.56 0-1 .44-1 1 0 .55.44 1 1 1 .55 0 1-.45 1-1 0-.56-.45-1-1-1Zm-3 1c0-1.66 1.34-3 3-3 1.65 0 3 1.34 3 3 0 1.65-1.35 3-3 3 -1.66 0-3-1.35-3-3Z"/><path d="M11.293 15.29c.39-.4 1.02-.4 1.41 0l2 2 -1.42 1.41 -.3-.3v2.58h-2v-2.59l-.3.29 -1.42-1.42 2-2Z"/></g></g></svg>