<svg viewBox="0 0 24 24" xmlns="http://www.w3.org/2000/svg"><g fill="#3747D6" fill-rule="evenodd"><path d="M1 2c0-.56.44-1 1-1h14c.55 0 1 .44 1 1v7h-2V3H3v18h8v2H2c-.56 0-1-.45-1-1V2Z"/><g fill="#9545ED"><path d="M11 7H7V5h4v2Z"/><path d="M10 14H5v-2h5v2Z"/><path d="M9 18H5v-2h4v2Z"/><path d="M10 6v4H8V6h2Z"/></g><path d="M17 13c-2.21 0-4 1.79-4 4 0 2.2 1.79 4 4 4 2.2 0 4-1.8 4-4 0-2.21-1.8-4-4-4Zm-6 4c0-3.32 2.68-6 6-6 3.31 0 6 2.68 6 6 0 3.31-2.69 6-6 6 -3.32 0-6-2.69-6-6Z"/><path fill="#9545ED" d="M16.53 17.33l1.9-2.67 1.62 1.16 -2.5 3.5c-.16.21-.4.36-.67.4 -.27.04-.54-.03-.76-.19l-2-1.5 1.2-1.6 1.18.88Z"/></g></svg>