<svg viewBox="0 0 24 24" xmlns="http://www.w3.org/2000/svg"><g fill-rule="evenodd"><path d="M4 11.25c.34 0 .64.23.72.56l2 8c.05.22 0 .46-.14.64 -.15.18-.37.28-.6.28h-4c-.24 0-.45-.11-.6-.29 -.15-.19-.2-.42-.14-.65l2-8c.08-.34.38-.57.72-.57Zm-1.04 8h2.07l-1.04-4.16 -1.04 4.15Z"/><path d="M12 6.25c.37 0 .68.27.74.63l2 13c.03.21-.03.43-.18.6 -.15.16-.36.26-.57.26h-4c-.22 0-.43-.1-.57-.27 -.15-.17-.21-.39-.18-.61l1.99-13c.05-.37.37-.64.74-.64Zm-1.13 13h2.25l-1.13-7.32 -1.13 7.31Z"/><path d="M20 3.25c.37 0 .69.28.74.65l1.5 12c.05.41-.25.78-.66.83 -.42.05-.79-.25-.84-.66l-.76-6.05 -1.16 9.2h3.15c.41 0 .75.33.75.75 0 .41-.34.75-.75.75h-4c-.22 0-.42-.1-.57-.26 -.15-.17-.21-.38-.19-.59l2-16c.04-.38.36-.66.74-.66Z"/></g></svg>