<svg viewBox="0 0 24 24" xmlns="http://www.w3.org/2000/svg"><g fill-rule="evenodd"><path d="M8 4.75C6.2 4.75 4.75 6.2 4.75 8c0 1.79 1.45 3.25 3.25 3.25 1.79 0 3.25-1.46 3.25-3.25 0-.42.33-.75.75-.75 .41 0 .75.33.75.75 0 2.62-2.13 4.75-4.75 4.75 -2.63 0-4.75-2.13-4.75-4.75 0-2.63 2.12-4.75 4.75-4.75 1.41 0 2.69.62 3.56 1.6 .27.31.24.78-.07 1.05 -.32.27-.79.24-1.06-.07 -.6-.68-1.47-1.11-2.44-1.11Z"/><path d="M1.25 8c0-.42.33-.75.75-.75h2c.41 0 .75.33.75.75 0 .41-.34.75-.75.75H2c-.42 0-.75-.34-.75-.75Z"/><path d="M11.25 8c0-.42.33-.75.75-.75h2c.41 0 .75.33.75.75 0 .41-.34.75-.75.75h-2c-.42 0-.75-.34-.75-.75Z"/><path d="M8 14.75c-.42 0-.75-.34-.75-.75v-2c0-.42.33-.75.75-.75 .41 0 .75.33.75.75v2c0 .41-.34.75-.75.75Z"/><path d="M8 4.75c-.42 0-.75-.34-.75-.75V2c0-.42.33-.75.75-.75 .41 0 .75.33.75.75v2c0 .41-.34.75-.75.75Z"/><path d="M3.22 12.773c-.3-.3-.3-.77 0-1.07l1.41-1.42c.29-.3.76-.3 1.06 0 .29.29.29.76 0 1.06l-1.42 1.41c-.3.29-.77.29-1.07 0Z"/><path d="M10.29 5.7c-.3-.3-.3-.77 0-1.07l1.41-1.42c.29-.3.76-.3 1.06 0 .29.29.29.76 0 1.06l-1.42 1.41c-.3.29-.77.29-1.07 0Z"/><path d="M12.77 12.773c.29-.3.29-.77 0-1.07l-1.42-1.42c-.3-.3-.77-.3-1.07 0 -.3.29-.3.76 0 1.06l1.41 1.41c.29.29.76.29 1.06 0Z"/><path d="M5.7 5.7c.29-.3.29-.77 0-1.07L4.28 3.21c-.3-.3-.77-.3-1.07 0 -.3.29-.3.76 0 1.06l1.41 1.41c.29.29.76.29 1.06 0Z"/><path d="M17 14.91c-1.43 0-2.59 1.15-2.59 2.58 0 1.42 1.15 2.58 2.58 2.58 1.42 0 2.58-1.16 2.58-2.59s-1.16-2.59-2.59-2.59Zm-4.09 2.58c0-2.26 1.82-4.09 4.08-4.09 2.25 0 4.08 1.82 4.08 4.08 0 2.25-1.83 4.08-4.09 4.08s-4.09-1.83-4.09-4.09Z"/><path d="M11.25 17.5c0-.42.33-.75.75-.75h1.66c.41 0 .75.33.75.75 0 .41-.34.75-.75.75h-1.67c-.42 0-.75-.34-.75-.75Z"/><path d="M19.58 17.5c0-.42.33-.75.75-.75h1.66c.41 0 .75.33.75.75 0 .41-.34.75-.75.75h-1.67c-.42 0-.75-.34-.75-.75Z"/><path d="M17 23.25c-.42 0-.75-.34-.75-.75v-1.67c0-.42.33-.75.75-.75 .41 0 .75.33.75.75v1.66c0 .41-.34.75-.75.75Z"/><path d="M17 14.91c-.42 0-.75-.34-.75-.75v-1.67c0-.42.33-.75.75-.75 .41 0 .75.33.75.75v1.66c0 .41-.34.75-.75.75Z"/><path d="M12.93 21.56c-.3-.3-.3-.77 0-1.07l1.17-1.18c.29-.3.76-.3 1.06 0 .29.29.29.76 0 1.06l-1.18 1.17c-.3.29-.77.29-1.07 0Z"/><path d="M18.82 15.67c-.3-.3-.3-.77 0-1.07l1.17-1.18c.29-.3.76-.3 1.06 0 .29.29.29.76 0 1.06l-1.18 1.17c-.3.29-.77.29-1.07 0Z"/><path d="M21.06 21.56c.29-.3.29-.77 0-1.07l-1.18-1.18c-.3-.3-.77-.3-1.07 0 -.3.29-.3.76 0 1.06l1.17 1.17c.29.29.76.29 1.06 0Z"/><path d="M15.17 15.67c.29-.3.29-.77 0-1.07l-1.18-1.18c-.3-.3-.77-.3-1.07 0 -.3.29-.3.76 0 1.06l1.17 1.17c.29.29.76.29 1.06 0Z"/></g></svg>