<svg viewBox="0 0 24 24" xmlns="http://www.w3.org/2000/svg"><g fill-rule="evenodd"><path d="M12 8.75c-1.8 0-3.25 1.45-3.25 3.25 0 1.79 1.45 3.25 3.25 3.25 1.79 0 3.25-1.46 3.25-3.25 0-1.8-1.46-3.25-3.25-3.25ZM7.25 12c0-2.63 2.12-4.75 4.75-4.75 2.62 0 4.75 2.12 4.75 4.75 0 2.62-2.13 4.75-4.75 4.75 -2.63 0-4.75-2.13-4.75-4.75Z"/><path d="M11.25 2c0-.42.33-.75.75-.75 5.93 0 10.75 4.81 10.75 10.75 0 5.93-4.82 10.75-10.75 10.75 -.42 0-.75-.34-.75-.75 0-.42.33-.75.75-.75 5.1 0 9.25-4.15 9.25-9.25 0-5.11-4.15-9.25-9.25-9.25 -.42 0-.75-.34-.75-.75ZM3.71 6.35c.35.2.48.66.27 1.02 -.79 1.35-1.24 2.93-1.24 4.62 0 3.79 2.28 7.05 5.55 8.48 .37.16.55.6.38.98 -.17.37-.61.55-.99.38 -3.8-1.66-6.45-5.45-6.45-9.86 0-1.96.52-3.8 1.43-5.38 .2-.36.66-.49 1.02-.28Z"/></g></svg>