<svg viewBox="0 0 24 24" xmlns="http://www.w3.org/2000/svg"><g fill-rule="evenodd"><path d="M4 16.75c-.7 0-1.25.55-1.25 1.25 0 .69.55 1.25 1.25 1.25 .69 0 1.25-.56 1.25-1.25 0-.7-.56-1.25-1.25-1.25ZM1.25 18c0-1.52 1.23-2.75 2.75-2.75 1.51 0 2.75 1.23 2.75 2.75 0 1.51-1.24 2.75-2.75 2.75 -1.52 0-2.75-1.24-2.75-2.75Z"/><path d="M12 16.75c-.7 0-1.25.55-1.25 1.25 0 .69.55 1.25 1.25 1.25 .69 0 1.25-.56 1.25-1.25 0-.7-.56-1.25-1.25-1.25ZM9.25 18c0-1.52 1.23-2.75 2.75-2.75 1.51 0 2.75 1.23 2.75 2.75 0 1.51-1.24 2.75-2.75 2.75 -1.52 0-2.75-1.24-2.75-2.75Z"/><path d="M20 16.75c-.7 0-1.25.55-1.25 1.25 0 .69.55 1.25 1.25 1.25 .69 0 1.25-.56 1.25-1.25 0-.7-.56-1.25-1.25-1.25ZM17.25 18c0-1.52 1.23-2.75 2.75-2.75 1.51 0 2.75 1.23 2.75 2.75 0 1.51-1.24 2.75-2.75 2.75 -1.52 0-2.75-1.24-2.75-2.75Z"/><path d="M3.25 12c0-.42.33-.75.75-.75h1.5c.41 0 .75.33.75.75 0 .41-.34.75-.75.75h-.75V16c0 .41-.34.75-.75.75 -.42 0-.75-.34-.75-.75v-4Zm5.5 0c0-.42.33-.75.75-.75H20c.41 0 .75.33.75.75v4c0 .41-.34.75-.75.75 -.42 0-.75-.34-.75-.75v-3.25H9.5c-.42 0-.75-.34-.75-.75Z"/><path d="M12 6.25c.41 0 .75.33.75.75v9c0 .41-.34.75-.75.75 -.42 0-.75-.34-.75-.75V7c0-.42.33-.75.75-.75Z"/><path d="M12 2.25c.23 0 .45.11.6.3l3 4c.17.22.19.53.07.78 -.13.25-.39.41-.68.41h-6c-.29 0-.55-.17-.68-.42 -.13-.26-.1-.56.07-.79l3-4c.14-.19.36-.3.6-.3Zm-1.5 4h3l-1.5-2 -1.5 2Z"/></g></svg>