<svg viewBox="0 0 24 24" xmlns="http://www.w3.org/2000/svg"><g fill-rule="evenodd"><path d="M2 1.25c.41 0 .75.33.75.75v3c0 .41-.34.75-.75.75 -.42 0-.75-.34-.75-.75V2c0-.42.33-.75.75-.75Zm0 7c.41 0 .75.33.75.75v12.25H22c.41 0 .75.33.75.75 0 .41-.34.75-.75.75H2c-.42 0-.75-.34-.75-.75V9c0-.42.33-.75.75-.75Z"/><path d="M21.23 6.28c.3.1.51.38.51.71v12c0 .41-.34.75-.75.75h-16c-.23 0-.44-.11-.59-.28 -.15-.18-.2-.41-.16-.63l1-5c.04-.21.16-.38.33-.49 .17-.11.38-.15.58-.1l1.5.37 2.2-3.09c.12-.18.32-.3.54-.32 .21-.02.43.06.59.21l1.43 1.43 2.97-3.4c.13-.16.33-.25.53-.26 .2-.01.4.07.55.21l1.38 1.38 2.48-3.31c.19-.26.53-.37.83-.27Zm-.99 2.96l-1.65 2.2c-.14.17-.33.28-.55.29 -.22.01-.43-.07-.59-.22l-1.44-1.44 -2.98 3.39c-.14.15-.34.24-.54.25 -.21 0-.41-.08-.56-.22l-1.38-1.38 -1.99 2.77c-.18.25-.5.36-.8.29l-1.24-.31 -.67 3.33h14.33v-9Z"/></g></svg>