<svg viewBox="0 0 24 24" xmlns="http://www.w3.org/2000/svg"><g fill-rule="evenodd"><path d="M2 1.25c.41 0 .75.33.75.75v14c0 .41-.34.75-.75.75 -.42 0-.75-.34-.75-.75V2c0-.42.33-.75.75-.75Zm0 18c.41 0 .75.33.75.75v1.25H22c.41 0 .75.33.75.75 0 .41-.34.75-.75.75H2c-.42 0-.75-.34-.75-.75v-2c0-.42.33-.75.75-.75Z"/><path d="M5.25 7c0-.42.33-.75.75-.75h3c.41 0 .75.33.75.75v5c0 .41-.34.75-.75.75H6c-.42 0-.75-.34-.75-.75V7Zm1.5.75v3.5h1.5v-3.5h-1.5Z"/><path d="M11.25 12.5c0-.42.33-.75.75-.75h3c.41 0 .75.33.75.75v5c0 .41-.34.75-.75.75h-3c-.42 0-.75-.34-.75-.75v-5Zm1.5.75v3.5h1.5v-3.5h-1.5Z"/><path d="M17.25 4.5c0-.42.33-.75.75-.75h3c.41 0 .75.33.75.75v5c0 .41-.34.75-.75.75h-3c-.42 0-.75-.34-.75-.75v-5Zm1.5.75v3.5h1.5v-3.5h-1.5Z"/><path d="M7.5 4.75c.41 0 .75.33.75.75V7c0 .41-.34.75-.75.75 -.42 0-.75-.34-.75-.75V5.5c0-.42.33-.75.75-.75Z"/><path d="M13.5 10.25c.41 0 .75.33.75.75v1.5c0 .41-.34.75-.75.75 -.42 0-.75-.34-.75-.75V11c0-.42.33-.75.75-.75Z"/><path d="M19.5 2.25c.41 0 .75.33.75.75v1.5c0 .41-.34.75-.75.75 -.42 0-.75-.34-.75-.75V3c0-.42.33-.75.75-.75Z"/><path d="M7.5 11.25c.41 0 .75.33.75.75v1.5c0 .41-.34.75-.75.75 -.42 0-.75-.34-.75-.75V12c0-.42.33-.75.75-.75Z"/><path d="M13.5 16.75c.41 0 .75.33.75.75V19c0 .41-.34.75-.75.75 -.42 0-.75-.34-.75-.75v-1.5c0-.42.33-.75.75-.75Z"/><path d="M19.5 8.75c.41 0 .75.33.75.75V11c0 .41-.34.75-.75.75 -.42 0-.75-.34-.75-.75V9.5c0-.42.33-.75.75-.75Z"/></g></svg>