<svg viewBox="0 0 24 24" xmlns="http://www.w3.org/2000/svg"><g fill-rule="evenodd"><path d="M1.25 2c0-.42.33-.75.75-.75h8c.41 0 .75.33.75.75v8c0 .41-.34.75-.75.75H2c-.42 0-.75-.34-.75-.75V2Zm1.5.75v6.5h6.5v-6.5h-6.5Z"/><path d="M1.25 14c0-.42.33-.75.75-.75h8c.41 0 .75.33.75.75v8c0 .41-.34.75-.75.75H2c-.42 0-.75-.34-.75-.75v-8Zm1.5.75v6.5h6.5v-6.5h-6.5Z"/><path d="M9.25 3c0-.42.33-.75.75-.75h11c.41 0 .75.33.75.75v6c0 .41-.34.75-.75.75H10c-.42 0-.75-.34-.75-.75V3Zm1.5.75v4.5h9.5v-4.5h-9.5Z"/><path d="M9.25 15c0-.42.33-.75.75-.75h11c.41 0 .75.33.75.75v6c0 .41-.34.75-.75.75h-3.5c-.42 0-.75-.34-.75-.75 0-.42.33-.75.75-.75h2.75v-4.5h-9.5v4.5H14c.41 0 .75.33.75.75 0 .41-.34.75-.75.75h-4c-.42 0-.75-.34-.75-.75v-6Z"/></g></svg>