<svg viewBox="0 0 24 24" xmlns="http://www.w3.org/2000/svg"><g fill-rule="evenodd"><path d="M12 9.75c-1.25 0-2.25 1-2.25 2.25 0 1.24 1 2.25 2.25 2.25 1.24 0 2.25-1.01 2.25-2.25 0-1.25-1.01-2.25-2.25-2.25ZM8.25 12c0-2.08 1.67-3.75 3.75-3.75 2.07 0 3.75 1.67 3.75 3.75 0 2.07-1.68 3.75-3.75 3.75 -2.08 0-3.75-1.68-3.75-3.75Z"/><path d="M3.5 11.25c-.42 0-.75.33-.75.75 0 .41.33.75.75.75 .41 0 .75-.34.75-.75 0-.42-.34-.75-.75-.75ZM1.25 12c0-1.25 1-2.25 2.25-2.25 1.24 0 2.25 1 2.25 2.25 0 1.24-1.01 2.25-2.25 2.25 -1.25 0-2.25-1.01-2.25-2.25Z"/><path d="M20.5 11.25c-.42 0-.75.33-.75.75 0 .41.33.75.75.75 .41 0 .75-.34.75-.75 0-.42-.34-.75-.75-.75Zm-2.25.75c0-1.25 1-2.25 2.25-2.25 1.24 0 2.25 1 2.25 2.25 0 1.24-1.01 2.25-2.25 2.25 -1.25 0-2.25-1.01-2.25-2.25Z"/><path d="M11.25 20.5c0 .41.33.75.75.75 .41 0 .75-.34.75-.75 0-.42-.34-.75-.75-.75 -.42 0-.75.33-.75.75Zm.75 2.25c-1.25 0-2.25-1.01-2.25-2.25 0-1.25 1-2.25 2.25-2.25 1.24 0 2.25 1 2.25 2.25 0 1.24-1.01 2.25-2.25 2.25Z"/><path d="M11.25 3.5c0 .41.33.75.75.75 .41 0 .75-.34.75-.75 0-.42-.34-.75-.75-.75 -.42 0-.75.33-.75.75ZM12 5.75c-1.25 0-2.25-1.01-2.25-2.25 0-1.25 1-2.25 2.25-2.25 1.24 0 2.25 1 2.25 2.25 0 1.24-1.01 2.25-2.25 2.25Z"/><path d="M5.45 17.48c-.3.29-.3.76 0 1.06 .29.29.76.29 1.06 0 .29-.3.29-.77 0-1.07 -.3-.3-.77-.3-1.07 0ZM4.38 19.6c-.88-.88-.88-2.31 0-3.19 .87-.88 2.3-.88 3.18 0 .87.87.87 2.3 0 3.18 -.88.87-2.31.87-3.19 0Z"/><path d="M17.48 5.45c-.3.29-.3.76 0 1.06 .29.29.76.29 1.06 0 .29-.3.29-.77 0-1.07 -.3-.3-.77-.3-1.07 0Zm-1.07 2.12c-.88-.88-.88-2.31 0-3.19 .87-.88 2.3-.88 3.18 0 .87.87.87 2.3 0 3.18 -.88.87-2.31.87-3.19 0Z"/><path d="M18.54 17.48c.29.29.29.76 0 1.06 -.3.29-.77.29-1.07 0 -.3-.3-.3-.77 0-1.07 .29-.3.76-.3 1.06 0Zm1.06 2.12c.87-.88.87-2.31 0-3.19 -.88-.88-2.31-.88-3.19 0 -.88.87-.88 2.3 0 3.18 .87.87 2.3.87 3.18 0Z"/><path d="M6.51 5.45c.29.29.29.76 0 1.06 -.3.29-.77.29-1.07 0 -.3-.3-.3-.77 0-1.07 .29-.3.76-.3 1.06 0Zm1.06 2.12c.87-.88.87-2.31 0-3.19 -.88-.88-2.31-.88-3.19 0 -.88.87-.88 2.3 0 3.18 .87.87 2.3.87 3.18 0Z"/><path d="M14.25 12c0-.42.33-.75.75-.75h4c.41 0 .75.33.75.75 0 .41-.34.75-.75.75h-4c-.42 0-.75-.34-.75-.75Z"/><path d="M4.25 12c0-.42.33-.75.75-.75h1c.41 0 .75.33.75.75 0 .41-.34.75-.75.75H5c-.42 0-.75-.34-.75-.75Zm3 0c0-.42.33-.75.75-.75h1c.41 0 .75.33.75.75 0 .41-.34.75-.75.75H8c-.42 0-.75-.34-.75-.75Z"/><path d="M12 9.75c-.42 0-.75-.34-.75-.75V8c0-.42.33-.75.75-.75 .41 0 .75.33.75.75v1c0 .41-.34.75-.75.75Zm0-3c-.42 0-.75-.34-.75-.75V5c0-.42.33-.75.75-.75 .41 0 .75.33.75.75v1c0 .41-.34.75-.75.75Z"/><path d="M12 19.75c-.42 0-.75-.34-.75-.75v-4c0-.42.33-.75.75-.75 .41 0 .75.33.75.75v4c0 .41-.34.75-.75.75Z"/><path d="M17.53 7.53l-2.82 2.81c-.3.29-.77.29-1.07 0 -.3-.3-.3-.77 0-1.07l2.81-2.82c.29-.3.76-.3 1.06 0 .29.29.29.76 0 1.06Z"/><path d="M6.46 17.53c-.3-.3-.3-.77 0-1.07l2.72-2.73c.29-.3.76-.3 1.06 0 .29.29.29.76 0 1.06l-2.73 2.72c-.3.29-.77.29-1.07 0Z"/><path d="M6.46 7.53l2.73 2.73c.29.29.76.29 1.06 0 .29-.3.29-.77 0-1.07L7.51 6.45c-.3-.3-.77-.3-1.07 0 -.3.29-.3.76 0 1.06Z"/><path d="M17.53 17.53c.29-.3.29-.77 0-1.07l-1-1c-.3-.3-.77-.3-1.07 0 -.3.29-.3.76 0 1.06l1 1c.29.29.76.29 1.06 0Zm-2.38-2.38c.29-.3.29-.77 0-1.07l-.38-.38c-.3-.3-.77-.3-1.07 0 -.3.29-.3.76 0 1.06l.37.37c.29.29.76.29 1.06 0Z"/></g></svg>