<svg viewBox="0 0 24 24" xmlns="http://www.w3.org/2000/svg"><path fill-rule="evenodd" d="M9.88 2.95l2.57 4.78 3.84-3.85c-1.33-.74-2.85-1.15-4.47-1.15 -.68 0-1.33.07-1.96.2Zm-1.34-1.2c1.03-.34 2.14-.52 3.29-.52 2.26 0 4.36.69 6.09 1.89 .18.12.3.32.32.54 .02.22-.06.44-.22.59l-5.23 5.22c-.17.16-.41.24-.64.21 -.24-.04-.44-.18-.56-.39L8.08 2.78c-.11-.2-.12-.43-.04-.64 .08-.21.25-.37.46-.44Zm-2.83 1.7c.21.04.4.18.51.37l3.21 5.97c.12.23.11.51-.02.74 -.14.22-.38.36-.65.36h-6.8c-.23 0-.44-.1-.58-.27 -.15-.18-.21-.4-.17-.62 .47-2.59 1.87-4.85 3.83-6.43 .17-.14.4-.2.61-.16ZM2.93 9.41h4.58L5.33 5.37C4.2 6.47 3.36 7.85 2.91 9.4Zm17.19-3.85c.22.02.42.13.54.32 1.19 1.73 1.89 3.83 1.89 6.09 0 .41-.34.75-.75.75 -.42 0-.75-.34-.75-.75 0-1.63-.42-3.15-1.15-4.47l-6.29 6.28c-.49.48-1.14.75-1.82.75H2.9c1.11 3.85 4.67 6.68 8.88 6.68 3.79 0 7.05-2.29 8.48-5.56 .16-.38.6-.56.98-.39 .37.16.55.6.38.98 -1.66 3.79-5.45 6.44-9.86 6.44 -5.28 0-9.66-3.8-10.58-8.8 -.05-.22.01-.45.16-.62 .14-.18.35-.27.57-.27h9.83c.28 0 .55-.12.75-.32l6.95-6.96c.15-.16.37-.24.59-.22Z"/></svg>