<svg viewBox="0 0 24 24" xmlns="http://www.w3.org/2000/svg"><path fill-rule="evenodd" d="M13.43 1.42c.17-.15.39-.21.61-.17 4.4.8 7.87 4.28 8.68 8.68 .04.21-.02.44-.17.61 -.15.17-.36.27-.58.27H18.2c-.34 0-.63-.22-.72-.54 -.55-1.83-1.99-3.27-3.82-3.82 -.32-.1-.54-.39-.54-.72V1.96c0-.23.09-.44.27-.58Zm-3.19-.18c.41 0 .75.33.75.75v3.76c0 .33-.22.62-.54.71 -2.35.69-4.05 2.86-4.05 5.43 0 1.07.3 2.08.82 2.94 .18.29.13.67-.12.92l-2.65 2.64c-.16.15-.37.23-.59.21 -.22-.02-.42-.13-.55-.31 -1.33-1.8-2.11-4.02-2.11-6.42 0-3.53 1.68-6.67 4.29-8.65 .33-.26.8-.19 1.05.14s.18.8-.15 1.05c-2.26 1.7-3.71 4.4-3.71 7.44 0 1.75.48 3.39 1.32 4.79l1.59-1.6c-.49-.97-.76-2.06-.76-3.21 0-3.05 1.9-5.66 4.58-6.69V1.9c0-.42.33-.75.74-.75Zm4.41 1.69v2.28c1.88.72 3.37 2.22 4.1 4.1h2.28c-.89-3.08-3.32-5.51-6.39-6.39Zm2.84 10.59c.09-.32.38-.54.71-.54h3.76c.22 0 .43.09.57.26 .14.17.2.39.16.61 -.93 5.04-5.35 8.86-10.66 8.86 -2.16 0-4.17-.64-5.86-1.72 -.2-.13-.32-.33-.34-.56 -.03-.23.05-.45.21-.62l2.69-2.7c.22-.23.56-.29.85-.15 .73.35 1.56.54 2.43.54 2.56 0 4.73-1.71 5.432-4.05Zm1.25.96c-1.04 2.68-3.64 4.58-6.69 4.58 -.92 0-1.79-.18-2.59-.49L7.82 20.2c1.26.64 2.7 1 4.22 1 4.25 0 7.85-2.86 8.97-6.75h-2.29Z"/></svg>