<svg viewBox="0 0 24 24" xmlns="http://www.w3.org/2000/svg"><g fill-rule="evenodd"><path d="M12 1.25c.28 0 .54.16.67.41l1 2c.18.37.03.82-.34 1 -.38.18-.83.03-1.01-.34l-.33-.66L3.2 21.23H20.77L14.31 8.31c-.19-.38-.04-.83.33-1.01 .37-.19.82-.04 1 .33l7 14c.11.23.1.5-.04.72 -.14.22-.38.35-.64.35h-20c-.26 0-.51-.14-.64-.36 -.14-.23-.15-.5-.04-.73l10-20c.12-.26.38-.42.67-.42Z"/><path d="M3.25 18c0-.42.33-.75.75-.75h16c.41 0 .75.33.75.75 0 .41-.34.75-.75.75H4c-.42 0-.75-.34-.75-.75Z"/><path d="M5.25 14c0-.42.33-.75.75-.75h12c.41 0 .75.33.75.75 0 .41-.34.75-.75.75H6c-.42 0-.75-.34-.75-.75Z"/><path d="M7.25 10c0-.42.33-.75.75-.75h8c.41 0 .75.33.75.75 0 .41-.34.75-.75.75H8c-.42 0-.75-.34-.75-.75Z"/></g></svg>