<svg viewBox="0 0 24 24" xmlns="http://www.w3.org/2000/svg"><g fill-rule="evenodd"><path d="M12 15.25c-.42 0-.75.33-.75.75 0 .41.33.75.75.75 .41 0 .75-.34.75-.75 0-.42-.34-.75-.75-.75ZM9.75 16c0-1.25 1-2.25 2.25-2.25 1.24 0 2.25 1 2.25 2.25 0 1.24-1.01 2.25-2.25 2.25 -1.25 0-2.25-1.01-2.25-2.25Z"/><path d="M4.5 5.25c-.97 0-1.75.78-1.75 1.75 0 .17.09.53.32 1.06 .21.49.51 1.05.82 1.57 .2.35.41.69.6.99 .18-.3.39-.64.6-1 .3-.53.6-1.09.82-1.58 .23-.53.32-.89.32-1.07 0-.97-.79-1.75-1.75-1.75Zm0 6.75c-.62.42-.62.42-.62.42l-.01-.01 -.01-.01 -.03-.04c-.02-.03-.05-.07-.09-.13 -.08-.11-.18-.26-.29-.44 -.24-.37-.56-.88-.88-1.43 -.32-.56-.65-1.16-.9-1.73 -.24-.54-.46-1.15-.46-1.67 0-1.8 1.45-3.25 3.25-3.25 1.79 0 3.25 1.45 3.25 3.25 0 .51-.22 1.12-.46 1.66 -.26.56-.58 1.17-.9 1.72 -.33.55-.65 1.05-.88 1.42 -.12.18-.22.33-.29.43 -.04.05-.07.09-.09.12l-.03.03 -.01 0 -.01 0c-.01 0-.01 0-.62-.43Zm0 0l.61.42c-.15.2-.38.32-.62.32 -.25 0-.48-.13-.62-.33l.61-.43Z"/><path d="M12 5.25c-.97 0-1.75.78-1.75 1.75 0 .17.09.53.32 1.06 .21.49.51 1.05.82 1.57 .2.35.41.69.6.99 0-.02.01-.03.02-.04 .22-.36.68-.46 1.03-.24 .35.22.45.68.23 1.03 -.2.3-.36.55-.48.73 -.06.09-.11.16-.15.21l-.04.05 -.02.01 -.01 0 -.62-.43c-.62.42-.62.42-.62.42l-.01-.01 -.01-.01 -.03-.04c-.02-.03-.05-.07-.09-.13 -.08-.11-.18-.26-.29-.44 -.24-.37-.56-.88-.88-1.43 -.32-.56-.65-1.16-.9-1.73 -.24-.54-.46-1.15-.46-1.67 0-1.8 1.45-3.25 3.25-3.25 1.79 0 3.25 1.45 3.25 3.25 0 .41-.34.75-.75.75 -.42 0-.75-.34-.75-.75 0-.97-.79-1.75-1.75-1.75ZM12 12l-.62.42c.14.2.37.32.61.32s.47-.13.61-.33l-.62-.43Z"/><path d="M19.5 5.25c-.97 0-1.75.78-1.75 1.75 0 .17.09.53.32 1.06 .21.49.51 1.05.82 1.57 .2.35.41.69.6.99 .18-.3.39-.64.6-1 .3-.53.6-1.09.82-1.58 .23-.53.32-.89.32-1.07 0-.97-.79-1.75-1.75-1.75Zm0 6.75c-.62.42-.62.42-.62.42l-.01-.01 -.01-.01 -.03-.04c-.02-.03-.05-.07-.09-.13 -.08-.11-.18-.26-.29-.44 -.24-.37-.56-.88-.88-1.43 -.32-.56-.65-1.16-.9-1.73 -.24-.54-.46-1.15-.46-1.67 0-1.8 1.45-3.25 3.25-3.25 1.79 0 3.25 1.45 3.25 3.25 0 .51-.22 1.12-.46 1.66 -.26.56-.58 1.17-.9 1.72 -.33.55-.65 1.05-.88 1.42 -.12.18-.22.33-.29.43 -.04.05-.07.09-.09.12l-.03.03 -.01 0 -.01 0c-.01 0-.01 0-.62-.43Zm0 0l.61.42c-.14.2-.38.32-.62.32 -.25 0-.48-.13-.62-.33l.61-.43Z"/><path d="M19.5 15.25c-.42 0-.75.33-.75.75 0 .41.33.75.75.75 .41 0 .75-.34.75-.75 0-.42-.34-.75-.75-.75Zm-2.25.75c0-1.25 1-2.25 2.25-2.25 1.24 0 2.25 1 2.25 2.25 0 1.24-1.01 2.25-2.25 2.25 -1.25 0-2.25-1.01-2.25-2.25Z"/><path d="M4.5 15.25c-.42 0-.75.33-.75.75 0 .41.33.75.75.75 .41 0 .75-.34.75-.75 0-.42-.34-.75-.75-.75ZM2.25 16c0-1.25 1-2.25 2.25-2.25 1.24 0 2.25 1 2.25 2.25 0 1.24-1.01 2.25-2.25 2.25 -1.25 0-2.25-1.01-2.25-2.25Z"/><path d="M12.75 16c0-.42.33-.75.75-.75H18c.41 0 .75.33.75.75 0 .41-.34.75-.75.75h-4.5c-.42 0-.75-.34-.75-.75Z"/><path d="M5.25 16c0-.42.33-.75.75-.75h4.5c.41 0 .75.33.75.75 0 .41-.34.75-.75.75H6c-.42 0-.75-.34-.75-.75Z"/><path d="M.75 16c0-.42.33-.75.75-.75H3c.41 0 .75.33.75.75 0 .41-.34.75-.75.75H1.5c-.42 0-.75-.34-.75-.75Z"/><path d="M20.25 16c0-.42.33-.75.75-.75h1.5c.41 0 .75.33.75.75 0 .41-.34.75-.75.75H21c-.42 0-.75-.34-.75-.75Z"/></g></svg>