<svg viewBox="0 0 24 24" xmlns="http://www.w3.org/2000/svg"><g fill-rule="evenodd"><path d="M1.35 8.12c.13-.24.38-.38.64-.38h18c.26 0 .51.14.65.37l2 3.5c.13.23.13.51 0 .74l-2 3.5c-.14.23-.39.37-.66.37h-14c-.42 0-.75-.34-.75-.75 0-.42.33-.75.75-.75h13.56l1.57-2.75 -1.58-2.75H3.25l1.35 2.37c.13.23.13.51 0 .74l-2 3.5c-.21.35-.67.48-1.03.27 -.36-.21-.49-.67-.28-1.03l1.78-3.13 -1.79-3.13c-.14-.24-.14-.52 0-.75Z"/><path d="M8.12 7.84c.35-.21.81-.09 1.02.27l1.99 3.5c.13.23.13.51 0 .74l-2 3.5c-.21.35-.67.48-1.03.27 -.36-.21-.49-.67-.28-1.03l1.78-3.13 -1.79-3.13c-.21-.36-.09-.82.27-1.03Z"/><path d="M14.12 7.84c.35-.21.81-.09 1.02.27l2 3.5c.13.23.13.51 0 .74l-2 3.5c-.21.35-.67.48-1.03.27 -.36-.21-.49-.67-.28-1.03l1.78-3.13 -1.79-3.13c-.21-.36-.09-.82.27-1.03Z"/><path d="M6.5 2.25c.41 0 .75.33.75.75v7.5c0 .41-.34.75-.75.75 -.42 0-.75-.34-.75-.75V3c0-.42.33-.75.75-.75Z"/><path d="M18 2.25c.41 0 .75.33.75.75v7.5c0 .41-.34.75-.75.75 -.42 0-.75-.34-.75-.75V3c0-.42.33-.75.75-.75Z"/><path d="M12.5 12.75c.41 0 .75.33.75.75V21c0 .41-.34.75-.75.75 -.42 0-.75-.34-.75-.75v-7.5c0-.42.33-.75.75-.75Z"/></g></svg>