<svg viewBox="0 0 24 24" xmlns="http://www.w3.org/2000/svg"><g fill-rule="evenodd"><path d="M2.25 12c0-5.39 4.36-9.75 9.75-9.75 .36 0 .72.02 1.08.05 .41.04.7.41.66.82 -.05.41-.42.7-.83.66 -.31-.04-.61-.06-.92-.06 -4.56 0-8.25 3.69-8.25 8.25 0 4.55 3.69 8.25 8.25 8.25 1.26 0 2.45-.29 3.52-.8 .23-.12.5-.16.77-.11l-.14.73 .13-.74 3.73.69 -.75-3.61c-.06-.29-.02-.57.1-.82 .53-1.1.84-2.34.84-3.64 0-2.86-1.46-5.38-3.67-6.87 -.35-.24-.44-.7-.21-1.05 .23-.35.69-.44 1.04-.21 2.61 1.74 4.33 4.72 4.33 8.1 0 1.51-.35 2.94-.97 4.23l.79 3.89c.17.86-.59 1.64-1.46 1.48l-4.03-.76c-1.25.57-2.64.9-4.11.9 -5.39 0-9.75-4.37-9.75-9.75Zm18.52 4.14s0 0 0 0l-.01-.01Zm-.37 3.97l-.01-.01 0 0Z"/><path d="M12 9.25c-.7 0-1.25.55-1.25 1.25 0 .69.55 1.25 1.25 1.25 .69 0 1.25-.56 1.25-1.25 0-.7-.56-1.25-1.25-1.25ZM9.25 10.5c0-1.52 1.23-2.75 2.75-2.75 1.51 0 2.75 1.23 2.75 2.75 0 1.51-1.24 2.75-2.75 2.75 -1.52 0-2.75-1.24-2.75-2.75Z"/><path d="M12 13.25c-1.25 0-2.25 1-2.25 2.25 0 .41-.34.75-.75.75 -.42 0-.75-.34-.75-.75 0-2.08 1.67-3.75 3.75-3.75 2.07 0 3.75 1.67 3.75 3.75 0 .41-.34.75-.75.75 -.42 0-.75-.34-.75-.75 0-1.25-1.01-2.25-2.25-2.25Z"/></g></svg>