<svg viewBox="0 0 24 24" xmlns="http://www.w3.org/2000/svg"><g fill-rule="evenodd"><path d="M3.25 1.99c0-.42.33-.75.75-.75h18c.41 0 .75.33.75.75v8.5c0 .31-.21.6-.51.7 -.31.1-.64 0-.84-.24l-1.78-2.22H9.98c-.42 0-.75-.34-.75-.75 0-.42.33-.75.75-.75h10c.22 0 .44.1.58.28l.66.83V2.72H4.72v4.5h1.25c.41 0 .75.33.75.75 0 .41-.34.75-.75.75h-2c-.42 0-.75-.34-.75-.75v-6Z"/><path d="M20.75 13.5c0-.42-.34-.75-.75-.75H2c-.42 0-.75.33-.75.75V22c0 .31.2.6.5.7 .3.1.63 0 .83-.24l1.77-2.22h15.63c.41 0 .75-.34.75-.75v-6Zm-1.5.75v4.5H4c-.23 0-.45.1-.59.28l-.67.83v-5.62h16.5Z"/></g></svg>