<svg viewBox="0 0 24 24" xmlns="http://www.w3.org/2000/svg"><g fill-rule="evenodd"><path d="M17 11.75c-1.25 0-2.25 1-2.25 2.25 0 1.24 1 2.25 2.25 2.25 1.24 0 2.25-1.01 2.25-2.25 0-1.25-1.01-2.25-2.25-2.25ZM13.25 14c0-2.08 1.67-3.75 3.75-3.75 2.07 0 3.75 1.67 3.75 3.75 0 2.07-1.68 3.75-3.75 3.75 -2.08 0-3.75-1.68-3.75-3.75Z"/><path d="M17 17.75c-2.35 0-4.25 1.9-4.25 4.25 0 .41-.34.75-.75.75 -.42 0-.75-.34-.75-.75 0-3.18 2.57-5.75 5.75-5.75 3.17 0 5.75 2.57 5.75 5.75 0 .41-.34.75-.75.75 -.42 0-.75-.34-.75-.75 0-2.35-1.91-4.25-4.25-4.25Z"/><path d="M6.26 2.75c-.34 0-.63.14-.83.38 -.19.21-.48.31-.75.24 -.08-.02-.17-.03-.25-.03 -.6 0-1.08.48-1.08 1.07 0 .08.01.17.02.24 .06.27-.04.56-.25.74 -.24.19-.39.49-.39.82 0 .33.14.62.38.82 .21.18.31.47.24.74 -.02.07-.03.16-.03.24 0 .59.48 1.07 1.07 1.07 .08 0 .17-.02.24-.03 .27-.07.56.03.74.24 .19.23.49.38.82.38 .33 0 .62-.15.82-.39 .18-.22.47-.32.74-.25 .07.01.16.02.24.02 .18 0 .35-.05.51-.13 .1-.06.22-.09.34-.09 0-.12.03-.24.08-.35 .08-.16.12-.33.12-.51 0-.09-.02-.18-.03-.25 -.07-.28.03-.57.24-.75 .23-.2.38-.5.38-.83 0-.34-.15-.63-.39-.83 -.32-.27-.37-.74-.1-1.06 .26-.32.73-.37 1.05-.1 .56.47.92 1.18.92 1.98 0 .63-.24 1.22-.62 1.66 0 .05 0 .1 0 .15 0 .27-.05.54-.13.79l1.09 1.71c.18.29.14.68-.11.93 -.25.24-.64.29-.94.1l-1.72-1.1c-.26.08-.52.12-.8.12 -.06 0-.11-.01-.16-.01 -.45.38-1.04.61-1.67.61 -.64 0-1.23-.24-1.67-.62 -.06 0-.11 0-.16 0 -1.43 0-2.58-1.16-2.58-2.58 0-.06 0-.11 0-.16 -.39-.45-.62-1.04-.62-1.67 0-.64.23-1.23.61-1.67 -.01-.06-.01-.11-.01-.16 0-1.43 1.15-2.58 2.57-2.58 .05 0 .1 0 .15 0 .44-.39 1.03-.62 1.66-.62 .79 0 1.5.36 1.98.92 .26.31.22.79-.1 1.05s-.8.22-1.06-.1c-.2-.24-.5-.39-.83-.39Z"/></g></svg>