<svg viewBox="0 0 24 24" xmlns="http://www.w3.org/2000/svg"><path fill-rule="evenodd" d="M9.26 3.07c.83-.82 1.97-1.33 3.23-1.33s2.4.5 3.23 1.32c.2-.03.41-.05.62-.05 2.54 0 4.6 2.06 4.6 4.6 0 .21-.02.41-.05.62 .82.83 1.32 1.97 1.32 3.23s-.51 2.4-1.33 3.23c.02.2.04.41.04.62 0 .99-.32 1.91-.86 2.67 -.25.33-.71.41-1.05.17 -.34-.25-.42-.71-.18-1.05 .36-.51.57-1.13.57-1.81 0-.25-.03-.49-.09-.72 -.07-.28.03-.57.24-.75 .68-.58 1.11-1.43 1.11-2.39 0-.96-.44-1.82-1.12-2.39 -.22-.19-.32-.48-.25-.75 .05-.24.08-.48.08-.72 0-1.72-1.4-3.11-3.11-3.11 -.25 0-.49.02-.72.08 -.28.06-.57-.04-.75-.25 -.58-.69-1.43-1.12-2.39-1.12 -.96 0-1.82.43-2.39 1.11 -.19.21-.48.31-.75.24 -.24-.06-.48-.09-.72-.09 -1.72 0-3.11 1.39-3.11 3.1 0 .24.02.48.08.71 .06.27-.04.56-.25.74 -.69.57-1.12 1.42-1.12 2.38 0 .95.43 1.81 1.11 2.38 .21.18.31.47.24.74 -.06.23-.09.47-.09.71 0 .53.13 1.03.37 1.47 .12.23.11.52-.03.75l-.94 1.46 1.46-.94c.22-.15.51-.16.75-.03 .43.23.93.37 1.47.37 .24 0 .48-.03.71-.09 .27-.07.56.03.74.24 .57.68 1.42 1.11 2.38 1.11 .95 0 1.81-.44 2.38-1.12 .26-.32.73-.37 1.05-.1 .31.26.36.73.09 1.05 -.85 1.01-2.12 1.65-3.55 1.65 -1.27 0-2.41-.51-3.24-1.33 -.21.02-.42.04-.63.04 -.63 0-1.23-.13-1.78-.36l-3.97 2.52c-.3.18-.69.14-.94-.11s-.3-.64-.11-.94l2.52-3.97c-.23-.55-.36-1.15-.36-1.78 0-.22.01-.42.04-.63 -.82-.84-1.33-1.98-1.33-3.24 0-1.27.5-2.41 1.32-3.24 -.03-.21-.05-.42-.05-.63 0-2.55 2.06-4.61 4.6-4.61 .21 0 .41.01.62.04Z"/></svg>