<svg viewBox="0 0 24 24" xmlns="http://www.w3.org/2000/svg"><g fill-rule="evenodd"><path d="M2.25 6c0-1.52 1.23-2.75 2.75-2.75h9c.41 0 .75.33.75.75 0 .41-.34.75-.75.75H5c-.7 0-1.25.55-1.25 1.25v9c0 .69.55 1.25 1.25 1.25h11.5c.14 0 .29.04.41.12l3.33 2.22V5.99c0-.7-.56-1.25-1.25-1.25h-1c-.42 0-.75-.34-.75-.75 0-.42.33-.75.75-.75h1c1.51 0 2.75 1.23 2.75 2.75v14c0 .27-.16.53-.4.66 -.25.13-.54.11-.77-.04l-4.32-2.88H4.97c-1.52 0-2.75-1.24-2.75-2.75v-9Z"/><path d="M12 13.25c.41 0 .75-.34.75-.75v-5c0-.42-.34-.75-.75-.75 -.42 0-.75.33-.75.75v5c0 .41.33.75.75.75Z"/><path d="M11.55 13.6c.26.2.63.2.9 0l2-1.5c.33-.25.39-.72.15-1.05 -.25-.34-.72-.4-1.05-.15L12 12.06l-1.55-1.17c-.34-.25-.81-.19-1.05.15 -.25.33-.19.8.15 1.05l1.99 1.5Z"/></g></svg>