<svg viewBox="0 0 24 24" xmlns="http://www.w3.org/2000/svg"><g fill-rule="evenodd"><path d="M2.25 12c0-5.39 4.36-9.75 9.75-9.75 5.38 0 9.75 4.36 9.75 9.75v4c0 .41-.34.75-.75.75 -.42 0-.75-.34-.75-.75v-4c0-4.56-3.7-8.25-8.25-8.25 -4.56 0-8.25 3.69-8.25 8.25 0 4.55 3.69 8.25 8.25 8.25h8.25V20c0-.42.33-.75.75-.75 .41 0 .75.33.75.75v1c0 .41-.34.75-.75.75h-9c-5.39 0-9.75-4.37-9.75-9.75Z"/><path d="M12 8.75c.41 0 .75.33.75.75v5c0 .41-.34.75-.75.75 -.42 0-.75-.34-.75-.75v-5c0-.42.33-.75.75-.75Z"/><path d="M8.75 12c0-.42.33-.75.75-.75h5c.41 0 .75.33.75.75 0 .41-.34.75-.75.75h-5c-.42 0-.75-.34-.75-.75Z"/></g></svg>