<svg viewBox="0 0 24 24" xmlns="http://www.w3.org/2000/svg"><g fill-rule="evenodd"><path d="M2.25 3.75c0-.42.33-.75.75-.75h12c.41 0 .75.33.75.75 0 .41-.34.75-.75.75H3.75V16H8.5c.19 0 .38.07.53.21l2.96 2.96 2.96-2.97c.14-.15.33-.22.53-.22h4.75V4.48h-1.25c-.42 0-.75-.34-.75-.75 0-.42.33-.75.75-.75h2c.41 0 .75.33.75.75v13c0 .41-.34.75-.75.75h-5.19l-3.29 3.28c-.3.29-.77.29-1.07 0l-3.29-3.29H2.95c-.42 0-.75-.34-.75-.75v-13Z"/><path d="M8.25 10c0-.42.33-.75.75-.75h6c.41 0 .75.33.75.75v4.5c0 .41-.34.75-.75.75H9c-.42 0-.75-.34-.75-.75V10Zm1.5.75v3h4.5v-3h-4.5Z"/><path d="M9.25 8.5c0-1.52 1.23-2.75 2.75-2.75 1.51 0 2.75 1.23 2.75 2.75V10c0 .41-.34.75-.75.75h-4c-.42 0-.75-.34-.75-.75V8.5ZM12 7.25c-.7 0-1.25.55-1.25 1.25v.75h2.5V8.5c0-.7-.56-1.25-1.25-1.25Z"/></g></svg>