<svg viewBox="0 0 24 24" xmlns="http://www.w3.org/2000/svg"><g fill-rule="evenodd"><path d="M2.25 12c0-5.39 4.36-9.75 9.75-9.75 5.38 0 9.75 4.36 9.75 9.75v4c0 .41-.34.75-.75.75 -.42 0-.75-.34-.75-.75v-4c0-4.56-3.7-8.25-8.25-8.25 -4.56 0-8.25 3.69-8.25 8.25 0 4.55 3.69 8.25 8.25 8.25h8.25V20c0-.42.33-.75.75-.75 .41 0 .75.33.75.75v1c0 .41-.34.75-.75.75h-9c-5.39 0-9.75-4.37-9.75-9.75Z"/><path d="M7 12.25c-.14 0-.25.11-.25.25 0 .13.11.25.25.25 .13 0 .25-.12.25-.25 0-.14-.12-.25-.25-.25Zm-1.75.25c0-.97.78-1.75 1.75-1.75 .96 0 1.75.78 1.75 1.75 0 .96-.79 1.75-1.75 1.75 -.97 0-1.75-.79-1.75-1.75Z"/><path d="M12 12.25c-.14 0-.25.11-.25.25 0 .13.11.25.25.25 .13 0 .25-.12.25-.25 0-.14-.12-.25-.25-.25Zm-1.75.25c0-.97.78-1.75 1.75-1.75 .96 0 1.75.78 1.75 1.75 0 .96-.79 1.75-1.75 1.75 -.97 0-1.75-.79-1.75-1.75Z"/><path d="M17 12.25c-.14 0-.25.11-.25.25 0 .13.11.25.25.25 .13 0 .25-.12.25-.25 0-.14-.12-.25-.25-.25Zm-1.75.25c0-.97.78-1.75 1.75-1.75 .96 0 1.75.78 1.75 1.75 0 .96-.79 1.75-1.75 1.75 -.97 0-1.75-.79-1.75-1.75Z"/></g></svg>