<svg viewBox="0 0 24 24" xmlns="http://www.w3.org/2000/svg"><g fill-rule="evenodd"><path d="M21.75 4c0-.42-.34-.75-.75-.75H3c-.42 0-.75.33-.75.75v16c0 .27.15.53.39.66 .24.13.53.11.76-.04l4.31-2.88h7.27c.41 0 .75-.34.75-.75 0-.42-.34-.75-.75-.75h-7.5c-.15 0-.3.04-.42.12l-3.34 2.22V4.73h16.5v11.5h-1.25c-.42 0-.75.33-.75.75 0 .41.33.75.75.75h2c.41 0 .75-.34.75-.75v-13Z"/><path d="M9.7 8.2c.29-.3.76-.3 1.06 0l3.53 3.53c.29.29.29.76 0 1.06 -.3.29-.77.29-1.07 0L9.68 9.25c-.3-.3-.3-.77 0-1.07Z"/><path d="M9.7 12.79c-.3-.3-.3-.77 0-1.07l3.53-3.54c.29-.3.76-.3 1.06 0 .29.29.29.76 0 1.06l-3.54 3.53c-.3.29-.77.29-1.07 0Z"/></g></svg>