<svg viewBox="0 0 24 24" xmlns="http://www.w3.org/2000/svg"><g fill-rule="evenodd"><path d="M8 9.91c0-.42-.34-.75-.75-.75h-.5C4.12 9.16 2 11.28 2 13.91v7.16c0 .29.16.55.43.67 .26.12.57.08.79-.11l2.79-2.33h4.72c2.62 0 4.75-2.13 4.75-4.75v-.34c0-.42-.34-.75-.75-.75 -.42 0-.75.33-.75.75v.33c0 1.79-1.46 3.25-3.25 3.25h-5c-.18 0-.35.06-.49.17l-1.77 1.47v-5.57c0-1.795 1.45-3.25 3.25-3.25h.5c.41 0 .75-.34.75-.76Z"/><path d="M8.5 6.91c0-2.63 2.12-4.75 4.75-4.75h4c.3-.001.6.02.88.08 .4.07.67.46.59.87 -.08.4-.47.67-.88.59 -.2-.04-.41-.06-.62-.06h-4c-1.8 0-3.25 1.45-3.25 3.25v.66c0 1.79 1.45 3.24 3.25 3.24h5c.17 0 .34.06.48.17l1.76 1.47V6.86c0-.26-.03-.51-.09-.75 -.1-.41.15-.81.55-.91 .4-.1.8.15.9.55 .08.35.12.71.12 1.08v7.16c0 .29-.17.55-.44.67s-.58.08-.8-.11l-2.8-2.33h-4.73c-2.63 0-4.75-2.13-4.75-4.75V6.8Z"/></g></svg>