<svg viewBox="0 0 24 24" xmlns="http://www.w3.org/2000/svg"><g fill-rule="evenodd"><path d="M2.25 12c0-5.39 4.36-9.75 9.75-9.75 .36 0 .72.02 1.08.05 .41.04.7.41.66.82 -.05.41-.42.7-.83.66 -.31-.04-.61-.06-.92-.06 -4.56 0-8.25 3.69-8.25 8.25 0 4.55 3.69 8.25 8.25 8.25 1.26 0 2.45-.29 3.52-.8 .23-.12.5-.16.77-.11l-.14.73 .13-.74 3.73.69 -.75-3.61c-.06-.29-.02-.57.1-.82 .53-1.1.84-2.34.84-3.64 0-2.86-1.46-5.38-3.67-6.87 -.35-.24-.44-.7-.21-1.05 .23-.35.69-.44 1.04-.21 2.61 1.74 4.33 4.72 4.33 8.1 0 1.51-.35 2.94-.97 4.23l.79 3.89c.17.86-.59 1.64-1.46 1.48l-4.03-.76c-1.25.57-2.64.9-4.11.9 -5.39 0-9.75-4.37-9.75-9.75Zm18.52 4.14s0 0 0 0l-.01-.01Zm-.37 3.97l-.01-.01 0 0Z"/><path d="M7.68 13.54c-1.27-1.27-1.27-3.327 0-4.6 1.1-1.11 2.8-1.25 4.06-.43 1.25-.82 2.96-.68 4.06.42 1.26 1.26 1.26 3.327 0 4.59l-3.54 3.53c-.3.29-.77.29-1.07 0l-3.54-3.54ZM8.74 10c-.69.68-.69 1.79 0 2.47l3 3 3-3.01c.68-.69.68-1.8 0-2.48 -.69-.69-1.8-.69-2.48 0 -.3.29-.77.29-1.07 0 -.69-.69-1.8-.69-2.48 0Z"/></g></svg>