<svg viewBox="0 0 24 24" xmlns="http://www.w3.org/2000/svg"><g fill-rule="evenodd"><path d="M21.75 12c0-5.39-4.37-9.75-9.75-9.75 -.37 0-.73.02-1.09.05 -.42.04-.71.41-.67.82 .04.41.41.7.82.66 .3-.04.6-.06.91-.06 4.55 0 8.25 3.69 8.25 8.25 0 4.55-3.7 8.25-8.25 8.25 -1.27 0-2.46-.29-3.53-.8 -.24-.12-.51-.16-.78-.11l.13.73 -.14-.74 -3.74.69 .74-3.61c.05-.29.01-.57-.11-.82 -.54-1.1-.85-2.34-.85-3.64 0-2.86 1.45-5.38 3.66-6.87 .34-.24.43-.7.2-1.05 -.24-.35-.7-.44-1.05-.21 -2.62 1.74-4.34 4.72-4.34 8.1 0 1.51.34 2.94.96 4.23l-.8 3.89c-.18.86.58 1.64 1.45 1.48l4.02-.76c1.24.57 2.63.9 4.1.9 5.38 0 9.75-4.37 9.75-9.75ZM3.22 16.14c-.01 0-.01 0-.01 0l0-.01Zm.36 3.97l0-.01 -.01 0Z"/><path d="M12 17.75c-.42 0-.75-.34-.75-.75v-6.25H10c-.42 0-.75-.34-.75-.75 0-.42.33-.75.75-.75h2c.41 0 .75.33.75.75v7c0 .41-.34.75-.75.75Z"/><path d="M9.25 17c0-.42.33-.75.75-.75h4c.41 0 .75.33.75.75 0 .41-.34.75-.75.75h-4c-.42 0-.75-.34-.75-.75Z"/><path d="M12 8.75c-.42 0-.75-.34-.75-.75V6c0-.42.33-.75.75-.75 .41 0 .75.33.75.75v2c0 .41-.34.75-.75.75Z"/></g></svg>