<svg viewBox="0 0 24 24" xmlns="http://www.w3.org/2000/svg"><g fill-rule="evenodd"><path d="M1.25 2c0-.42.33-.75.75-.75h13.5c.41 0 .75.33.75.75 0 .41-.34.75-.75.75H2.75v12.5h18.5V2.75H19.5c-.42 0-.75-.34-.75-.75 0-.42.33-.75.75-.75H22c.41 0 .75.33.75.75v14c0 .41-.34.75-.75.75H2c-.42 0-.75-.34-.75-.75V2Z"/><path d="M3.75 6.5c0-.42.33-.75.75-.75h3c.41 0 .75.33.75.75 0 .41-.34.75-.75.75H5.25V8.5c0 .41-.34.75-.75.75 -.42 0-.75-.34-.75-.75v-2Zm12 0c0-.42.33-.75.75-.75h3c.41 0 .75.33.75.75v2c0 .41-.34.75-.75.75 -.42 0-.75-.34-.75-.75V7.25H16.5c-.42 0-.75-.34-.75-.75ZM4.5 10.75c.41 0 .75.33.75.75v1.25H7.5c.41 0 .75.33.75.75 0 .41-.34.75-.75.75h-3c-.42 0-.75-.34-.75-.75v-2c0-.42.33-.75.75-.75Zm15 0c.41 0 .75.33.75.75v2c0 .41-.34.75-.75.75h-3c-.42 0-.75-.34-.75-.75 0-.42.33-.75.75-.75h2.25V11.5c0-.42.33-.75.75-.75Z"/><path d="M10.25 4c0-.42.33-.75.75-.75h2c.41 0 .75.33.75.75 0 .41-.34.75-.75.75h-2c-.42 0-.75-.34-.75-.75Z"/><path d="M14.75 4c0-.42.33-.75.75-.75h2c.41 0 .75.33.75.75 0 .41-.34.75-.75.75h-2c-.42 0-.75-.34-.75-.75Z"/><path d="M5.75 4c0-.42.33-.75.75-.75h2c.41 0 .75.33.75.75 0 .41-.34.75-.75.75h-2c-.42 0-.75-.34-.75-.75Z"/><path d="M7.55 18.4c.12-.1.28-.15.45-.15h8.5c1.24 0 2.25 1 2.25 2.25 0 1.24-1.01 2.25-2.25 2.25H8c-.17 0-.33-.06-.45-.15l-2-1.5c-.19-.15-.3-.37-.3-.6 0-.24.11-.46.3-.6l2-1.5Zm.7 1.35l-1 .75 1 .75h8.25c.41 0 .75-.34.75-.75 0-.42-.34-.75-.75-.75H8.25Z"/></g></svg>