<svg viewBox="0 0 24 24" xmlns="http://www.w3.org/2000/svg"><g fill-rule="evenodd"><path d="M5.75 9c0-.42.33-.75.75-.75h11c.41 0 .75.33.75.75v13c0 .41-.34.75-.75.75h-11c-.42 0-.75-.34-.75-.75v-2c0-.42.33-.75.75-.75 .41 0 .75.33.75.75v1.25h9.5V9.75h-9.5V16c0 .41-.34.75-.75.75 -.42 0-.75-.34-.75-.75V9Z"/><path d="M7.25 2c0-.42.33-.75.75-.75h8c.41 0 .75.33.75.75v7c0 .41-.34.75-.75.75H8c-.42 0-.75-.34-.75-.75V2Zm1.5.75v5.5h6.5v-5.5h-6.5Z"/><path d="M13.5 3.75c.41 0 .75.33.75.75v2c0 .41-.34.75-.75.75 -.42 0-.75-.34-.75-.75v-2c0-.42.33-.75.75-.75Z"/><path d="M10.5 3.75c.41 0 .75.33.75.75v2c0 .41-.34.75-.75.75 -.42 0-.75-.34-.75-.75v-2c0-.42.33-.75.75-.75Z"/></g></svg>