<svg viewBox="0 0 24 24" xmlns="http://www.w3.org/2000/svg"><g fill-rule="evenodd"><path d="M3.75 7c0-.42.33-.75.75-.75H16c.41 0 .75.33.75.75 0 .41-.34.75-.75.75H5.25v8.5h16v-8.5H20c-.42 0-.75-.34-.75-.75 0-.42.33-.75.75-.75h2c.41 0 .75.33.75.75v10c0 .41-.34.75-.75.75H4.5c-.42 0-.75-.34-.75-.75V7Z"/><path d="M6.25 17c0-.42.33-.75.75-.75h4c.41 0 .75.33.75.75v3c0 .41-.34.75-.75.75H7c-.42 0-.75-.34-.75-.75v-3Zm1.5.75v1.5h2.5v-1.5h-2.5Z"/><path d="M12.75 17c0-.42.33-.75.75-.75H21c.41 0 .75.33.75.75v3c0 .41-.34.75-.75.75h-7.5c-.42 0-.75-.34-.75-.75v-3Zm1.5.75v1.5h6v-1.5h-6Z"/><path d="M1.25 4c0-.42.33-.75.75-.75h2.5c.41 0 .75.33.75.75v16c0 .41-.34.75-.75.75 -.42 0-.75-.34-.75-.75V4.75H2c-.42 0-.75-.34-.75-.75Z"/><path d="M9.5 10.25c-.97 0-1.75.78-1.75 1.75 0 .96.78 1.75 1.75 1.75 .96 0 1.75-.79 1.75-1.75 0-.97-.79-1.75-1.75-1.75ZM6.25 12c0-1.8 1.45-3.25 3.25-3.25 1.79 0 3.25 1.45 3.25 3.25 0 1.79-1.46 3.25-3.25 3.25 -1.8 0-3.25-1.46-3.25-3.25Z"/><path d="M17 10.25c-.97 0-1.75.78-1.75 1.75 0 .96.78 1.75 1.75 1.75 .96 0 1.75-.79 1.75-1.75 0-.97-.79-1.75-1.75-1.75ZM13.75 12c0-1.8 1.45-3.25 3.25-3.25 1.79 0 3.25 1.45 3.25 3.25 0 1.79-1.46 3.25-3.25 3.25 -1.8 0-3.25-1.46-3.25-3.25Z"/></g></svg>