<svg viewBox="0 0 24 24" xmlns="http://www.w3.org/2000/svg"><g fill-rule="evenodd"><path d="M21.25 4c0-1.52-1.24-2.75-2.75-2.75H8.04c-.9 0-1.74.43-2.26 1.17L3.23 6.05c-.33.46-.5 1.01-.5 1.57v12.36c0 1.51 1.23 2.75 2.75 2.75h13c1.51 0 2.75-1.24 2.75-2.75v-.5c0-.42-.34-.75-.75-.75 -.42 0-.75.33-.75.75v.5c0 .69-.56 1.25-1.25 1.25h-13c-.7 0-1.25-.56-1.25-1.25V7.61c0-.26.07-.51.22-.72l2.54-3.64c.23-.34.61-.54 1.02-.54h10.45c.69 0 1.25.55 1.25 1.25v11.5c0 .41.33.75.75.75 .41 0 .75-.34.75-.75V3.96Z"/><path d="M11.5 3.75c.41 0 .75.33.75.75v4c0 .41-.34.75-.75.75 -.42 0-.75-.34-.75-.75v-4c0-.42.33-.75.75-.75Z"/><path d="M8.5 3.75c.41 0 .75.33.75.75v4c0 .41-.34.75-.75.75 -.42 0-.75-.34-.75-.75v-4c0-.42.33-.75.75-.75Z"/><path d="M14.5 3.75c.41 0 .75.33.75.75v4c0 .41-.34.75-.75.75 -.42 0-.75-.34-.75-.75v-4c0-.42.33-.75.75-.75Z"/><path d="M17.5 3.75c.41 0 .75.33.75.75v4c0 .41-.34.75-.75.75 -.42 0-.75-.34-.75-.75v-4c0-.42.33-.75.75-.75Z"/><path d="M6.25 15c0-.42.33-.75.75-.75h10c.41 0 .75.33.75.75v4c0 .41-.34.75-.75.75H7c-.42 0-.75-.34-.75-.75v-4Zm1.5.75v2.5h8.5v-2.5h-8.5Z"/></g></svg>