<svg viewBox="0 0 24 24" xmlns="http://www.w3.org/2000/svg"><g fill-rule="evenodd"><path d="M9.25 5c0-1.52 1.23-2.75 2.75-2.75 1.51 0 2.75 1.23 2.75 2.75v.5c0 .41-.34.75-.75.75 -.42 0-.75-.34-.75-.75V5c0-.7-.56-1.25-1.25-1.25 -.7 0-1.25.55-1.25 1.25v7c0 .69.55 1.25 1.25 1.25 .69 0 1.25-.56 1.25-1.25V9c0-.42.33-.75.75-.75 .41 0 .75.33.75.75v3c0 1.51-1.24 2.75-2.75 2.75 -1.52 0-2.75-1.24-2.75-2.75V5Z"/><path d="M7 9.25c.41 0 .75.33.75.75v2c0 2.34 1.9 4.25 4.25 4.25 2.34 0 4.25-1.91 4.25-4.25v-2c0-.42.33-.75.75-.75 .41 0 .75.33.75.75v2c0 3.17-2.58 5.75-5.75 5.75 -3.18 0-5.75-2.58-5.75-5.75v-2c0-.42.33-.75.75-.75Z"/><path d="M12 16.25c.41 0 .75.33.75.75v5c0 .41-.34.75-.75.75 -.42 0-.75-.34-.75-.75v-5c0-.42.33-.75.75-.75Z"/></g></svg>