<svg viewBox="0 0 24 24" xmlns="http://www.w3.org/2000/svg"><g fill-rule="evenodd"><path d="M1.25 4c0-1.52 1.23-2.75 2.75-2.75h8c1.51 0 2.75 1.23 2.75 2.75v16c0 1.51-1.24 2.75-2.75 2.75H4c-1.52 0-2.75-1.24-2.75-2.75V8.5c0-.42.33-.75.75-.75 .41 0 .75.33.75.75V20c0 .69.55 1.25 1.25 1.25h8c.69 0 1.25-.56 1.25-1.25V4c0-.7-.56-1.25-1.25-1.25H4c-.7 0-1.25.55-1.25 1.25v.5c0 .41-.34.75-.75.75 -.42 0-.75-.34-.75-.75V4Z"/><path d="M5.75 19.5c0-.42.33-.75.75-.75h3c.41 0 .75.33.75.75 0 .41-.34.75-.75.75h-3c-.42 0-.75-.34-.75-.75Z"/><path d="M15.75 2c0-.42.33-.75.75-.75H20c1.51 0 2.75 1.23 2.75 2.75v16c0 1.51-1.24 2.75-2.75 2.75h-3.5c-.42 0-.75-.34-.75-.75 0-.42.33-.75.75-.75H20c.69 0 1.25-.56 1.25-1.25V4c0-.7-.56-1.25-1.25-1.25h-3.5c-.42 0-.75-.34-.75-.75Z"/><path d="M15.75 19.5c0-.42.33-.75.75-.75H18c.41 0 .75.33.75.75 0 .41-.34.75-.75.75h-1.5c-.42 0-.75-.34-.75-.75Z"/></g></svg>