<svg viewBox="0 0 24 24" xmlns="http://www.w3.org/2000/svg"><g fill-rule="evenodd"><path d="M4 2.75c-.7 0-1.25.55-1.25 1.25v16c0 .69.55 1.25 1.25 1.25h8c.41 0 .75.33.75.75 0 .41-.34.75-.75.75H4c-1.52 0-2.75-1.24-2.75-2.75V4c0-1.52 1.23-2.75 2.75-2.75h.5c.41 0 .75.33.75.75 0 .41-.34.75-.75.75H4ZM7.75 2c0-.42.33-.75.75-.75h9c1.51 0 2.75 1.23 2.75 2.75v.5c0 .41-.34.75-.75.75 -.42 0-.75-.34-.75-.75V4c0-.7-.56-1.25-1.25-1.25h-9c-.42 0-.75-.34-.75-.75Z"/><path d="M13.25 8.5c0-1.25 1-2.25 2.25-2.25h5c1.24 0 2.25 1 2.25 2.25v12c0 1.24-1.01 2.25-2.25 2.25h-5c-1.25 0-2.25-1.01-2.25-2.25v-12Zm2.25-.75c-.42 0-.75.33-.75.75v12c0 .41.33.75.75.75h5c.41 0 .75-.34.75-.75v-12c0-.42-.34-.75-.75-.75h-5Z"/><path d="M8.25 19.5c0-.42.33-.75.75-.75h2.5c.41 0 .75.33.75.75 0 .41-.34.75-.75.75H9c-.42 0-.75-.34-.75-.75Z"/><path d="M16.25 19.5c0-.42.33-.75.75-.75h2c.41 0 .75.33.75.75 0 .41-.34.75-.75.75h-2c-.42 0-.75-.34-.75-.75Z"/></g></svg>