<svg viewBox="0 0 24 24" xmlns="http://www.w3.org/2000/svg"><g fill-rule="evenodd"><path d="M1.25 3c0-.42.33-.75.75-.75h2.5c.41 0 .75.33.75.75 0 .41-.34.75-.75.75H2.75v10.5h8.75c.41 0 .75.33.75.75 0 .41-.34.75-.75.75H2c-.42 0-.75-.34-.75-.75V3Zm6.5 0c0-.42.33-.75.75-.75H22c.41 0 .75.33.75.75v1c0 .41-.34.75-.75.75 -.42 0-.75-.34-.75-.75v-.25H8.5c-.42 0-.75-.34-.75-.75Z"/><path d="M10.73 14.28c.39.13.6.55.47.94l-1 3c-.14.39-.56.6-.95.47 -.4-.14-.61-.56-.48-.95l1-3c.13-.4.55-.61.94-.48Z"/><path d="M2.25 18c0-.42.33-.75.75-.75h8.5c.41 0 .75.33.75.75 0 .41-.34.75-.75.75H3c-.42 0-.75-.34-.75-.75Z"/><path d="M13.25 7.5c0-1.25 1-2.25 2.25-2.25h5c1.24 0 2.25 1 2.25 2.25v12c0 1.24-1.01 2.25-2.25 2.25h-5c-1.25 0-2.25-1.01-2.25-2.25v-12Zm2.25-.75c-.42 0-.75.33-.75.75v12c0 .41.33.75.75.75h5c.41 0 .75-.34.75-.75v-12c0-.42-.34-.75-.75-.75h-5Z"/><path d="M16.25 18.5c0-.42.33-.75.75-.75h2c.41 0 .75.33.75.75 0 .41-.34.75-.75.75h-2c-.42 0-.75-.34-.75-.75Z"/></g></svg>