<svg viewBox="0 0 24 24" xmlns="http://www.w3.org/2000/svg"><g fill-rule="evenodd"><path d="M1.25 4.5c0-.42.33-.75.75-.75h13.5c.41 0 .75.33.75.75 0 .41-.34.75-.75.75H2.75v10.5h18.5V5.25H19.5c-.42 0-.75-.34-.75-.75 0-.42.33-.75.75-.75H22c.41 0 .75.33.75.75v12c0 .41-.34.75-.75.75H2c-.42 0-.75-.34-.75-.75v-12Z"/><path d="M11.87 18.76c.08-.02.16-.02.24 0l9 1.5c.4.06.68.45.61.86 -.07.4-.46.68-.87.61l-8.88-1.48 -8.88 1.47c-.41.06-.8-.21-.87-.62 -.07-.41.2-.8.61-.87l8.99-1.5Z"/><path d="M9.27 16.294c.09-.33.38-.55.72-.55h4c.33 0 .62.22.72.54l1 3.5c.07.24 0 .51-.17.7 -.18.19-.43.28-.69.24l-2.88-.48 -2.88.47c-.26.04-.52-.05-.69-.25 -.18-.2-.24-.46-.17-.71l1-3.5Zm1.28.95l-.52 1.81 1.82-.31c.08-.02.16-.02.24 0l1.82.3 -.52-1.82h-2.87Z"/><path d="M9.75 14c0-.42.33-.75.75-.75h3c.41 0 .75.33.75.75 0 .41-.34.75-.75.75h-3c-.42 0-.75-.34-.75-.75Z"/></g></svg>