<svg viewBox="0 0 24 24" xmlns="http://www.w3.org/2000/svg"><g fill-rule="evenodd"><path d="M1.25 14c0-1.52 1.23-2.75 2.75-2.75h16c1.51 0 2.75 1.23 2.75 2.75v6c0 1.51-1.24 2.75-2.75 2.75H4c-1.52 0-2.75-1.24-2.75-2.75v-6ZM4 12.75c-.7 0-1.25.55-1.25 1.25v6c0 .69.55 1.25 1.25 1.25h16c.69 0 1.25-.56 1.25-1.25v-6c0-.7-.56-1.25-1.25-1.25H4Z"/><path d="M4 2.75c-.7 0-1.25.55-1.25 1.25v6c0 .69.55 1.25 1.25 1.25h16c.69 0 1.25-.56 1.25-1.25V4c0-.7-.56-1.25-1.25-1.25h-.5c-.42 0-.75-.34-.75-.75 0-.42.33-.75.75-.75h.5c1.51 0 2.75 1.23 2.75 2.75v6c0 1.51-1.24 2.75-2.75 2.75H4c-1.52 0-2.75-1.24-2.75-2.75V4c0-1.52 1.23-2.75 2.75-2.75h11.5c.41 0 .75.33.75.75 0 .41-.34.75-.75.75H4Z"/><path d="M3.75 17c0-.42.33-.75.75-.75h5c.41 0 .75.33.75.75 0 .41-.34.75-.75.75h-5c-.42 0-.75-.34-.75-.75Z"/><path d="M7 20.25c-.42 0-.75-.34-.75-.75v-5c0-.42.33-.75.75-.75 .41 0 .75.33.75.75v5c0 .41-.34.75-.75.75Z"/><path d="M14.75 18.5c0-.42.33-.75.75-.75h2c.41 0 .75.33.75.75 0 .41-.34.75-.75.75h-2c-.42 0-.75-.34-.75-.75Z"/><path d="M16.75 15.5c0-.42.33-.75.75-.75h2c.41 0 .75.33.75.75 0 .41-.34.75-.75.75h-2c-.42 0-.75-.34-.75-.75Z"/></g></svg>