<svg viewBox="0 0 24 24" xmlns="http://www.w3.org/2000/svg"><g fill-rule="evenodd"><path d="M1.25 10c0-1.52 1.23-2.75 2.75-2.75h16c1.51 0 2.75 1.23 2.75 2.75v6c0 .41-.34.75-.75.75H2c-.42 0-.75-.34-.75-.75v-6ZM4 8.75c-.7 0-1.25.55-1.25 1.25v5.25h18.5V10c0-.7-.56-1.25-1.25-1.25H4Z"/><path d="M7.75 16c0-.42.33-.75.75-.75h7c.41 0 .75.33.75.75v5.5c0 .41-.34.75-.75.75h-7c-.42 0-.75-.34-.75-.75V16Zm1.5.75v4h5.5v-4h-5.5Z"/><path d="M6.25 2.5c0-.42.33-.75.75-.75h4.5c.41 0 .75.33.75.75 0 .41-.34.75-.75.75H7.75v4h8.5v-4h-.75c-.42 0-.75-.34-.75-.75 0-.42.33-.75.75-.75H17c.41 0 .75.33.75.75V8c0 .41-.34.75-.75.75H7c-.42 0-.75-.34-.75-.75V2.5Z"/><path d="M15.25 13c0-.42.33-.75.75-.75h3c.41 0 .75.33.75.75 0 .41-.34.75-.75.75h-3c-.42 0-.75-.34-.75-.75Z"/></g></svg>