<svg viewBox="0 0 24 24" xmlns="http://www.w3.org/2000/svg"><g fill-rule="evenodd"><path d="M1.25 5.5c0-.42.33-.75.75-.75h13.5c.41 0 .75.33.75.75 0 .41-.34.75-.75.75H2.75v11.5h18.5V6.25H19.5c-.42 0-.75-.34-.75-.75 0-.42.33-.75.75-.75H22c.41 0 .75.33.75.75v13c0 .41-.34.75-.75.75H2c-.42 0-.75-.34-.75-.75v-13Z"/><path d="M3.75 8c0-.42.33-.75.75-.75h3c.41 0 .75.33.75.75v4c0 .41-.34.75-.75.75h-3c-.42 0-.75-.34-.75-.75V8Zm1.5.75v2.5h1.5v-2.5h-1.5Z"/><path d="M9.75 8c0-.42.33-.75.75-.75h3c.41 0 .75.33.75.75v4c0 .41-.34.75-.75.75h-3c-.42 0-.75-.34-.75-.75V8Zm1.5.75v2.5h1.5v-2.5h-1.5Z"/><path d="M3.75 16c0-.42.33-.75.75-.75h15c.41 0 .75.33.75.75v2.5c0 .41-.34.75-.75.75h-15c-.42 0-.75-.34-.75-.75V16Zm15 1.75v-1H5.25v1h13.5Z"/><path d="M15.75 8c0-.42.33-.75.75-.75h3c.41 0 .75.33.75.75v4c0 .41-.34.75-.75.75h-3c-.42 0-.75-.34-.75-.75V8Zm1.5.75v2.5h1.5v-2.5h-1.5Z"/></g></svg>