<svg viewBox="0 0 24 24" xmlns="http://www.w3.org/2000/svg"><g fill-rule="evenodd"><path d="M5.76 8.85c.07-.36.37-.61.73-.61h11c.35 0 .66.25.73.6l2 9.99c.04.22-.02.44-.16.62 -.15.17-.36.27-.58.27h-15c-.23 0-.44-.11-.59-.28 -.15-.18-.2-.41-.16-.63l2-10Zm1.35.89l-1.7 8.5h13.17l-1.7-8.5H7.1Z"/><path d="M5.77 9.2c.09.32.38.54.72.54h11c.33 0 .62-.23.72-.55l2-7c.06-.23.01-.47-.13-.66 -.15-.19-.37-.3-.6-.3h-2c-.42 0-.75.33-.75.75 0 .41.33.75.75.75h1l-1.58 5.5H7.03l-1.58-5.5h8c.41 0 .75-.34.75-.75 0-.42-.34-.75-.75-.75h-9c-.24 0-.46.11-.6.29 -.15.18-.19.43-.13.65l2 7Z"/><path d="M3.75 19c0-.42.33-.75.75-.75h15c.41 0 .75.33.75.75v3c0 .41-.34.75-.75.75h-15c-.42 0-.75-.34-.75-.75v-3Zm1.5.75v1.5h13.5v-1.5H5.25Z"/><path d="M5.25 13.5c0-.42.33-.75.75-.75h12c.41 0 .75.33.75.75 0 .41-.34.75-.75.75H6c-.42 0-.75-.34-.75-.75Z"/></g></svg>