<svg viewBox="0 0 24 24" xmlns="http://www.w3.org/2000/svg"><g fill-rule="evenodd"><path d="M1.25 3c0-.42.33-.75.75-.75h2.5c.41 0 .75.33.75.75 0 .41-.34.75-.75.75H2.75v10.5H13c.41 0 .75.33.75.75 0 .41-.34.75-.75.75H2c-.42 0-.75-.34-.75-.75V3Zm6.5 0c0-.42.33-.75.75-.75H22c.41 0 .75.33.75.75v2.5c0 .41-.34.75-.75.75 -.42 0-.75-.34-.75-.75V3.75H8.5c-.42 0-.75-.34-.75-.75Z"/><path d="M10.73 14.28c.39.13.6.55.47.94l-1 3c-.14.39-.56.6-.95.47 -.4-.14-.61-.56-.48-.95l1-3c.13-.4.55-.61.94-.48Z"/><path d="M2.25 18c0-.42.33-.75.75-.75h10c.41 0 .75.33.75.75 0 .41-.34.75-.75.75H3c-.42 0-.75-.34-.75-.75Z"/><path d="M14.75 11.5c0-1.25 1-2.25 2.25-2.25h3.5c1.24 0 2.25 1 2.25 2.25v5c0 1.24-1.01 2.25-2.25 2.25H17c-1.25 0-2.25-1.01-2.25-2.25v-5Zm2.25-.75c-.42 0-.75.33-.75.75v5c0 .41.33.75.75.75h3.5c.41 0 .75-.34.75-.75v-5c0-.42-.34-.75-.75-.75H17Z"/><path d="M16.26 6.87c.06-.37.37-.63.73-.63h3.5c.36 0 .67.26.73.62l.5 3c.03.21-.03.43-.17.6 -.15.16-.36.26-.58.26h-4.5c-.23 0-.43-.1-.58-.27 -.15-.17-.21-.4-.17-.61l.5-3Zm1.37.87l-.25 1.5h2.72l-.25-1.5h-2.23Z"/><path d="M16.26 21.12c.06.36.37.62.73.62h3.5c.36 0 .67-.27.73-.63l.5-3c.03-.22-.03-.44-.17-.61 -.15-.17-.36-.27-.58-.27h-4.5c-.23 0-.43.09-.58.26 -.15.16-.21.39-.17.6l.5 3Zm1.37-.88l-.25-1.5h2.72l-.25 1.5h-2.23Z"/></g></svg>