<svg viewBox="0 0 24 24" xmlns="http://www.w3.org/2000/svg"><g fill-rule="evenodd"><path d="M3.75 7c0-.42.33-.75.75-.75H16c.41 0 .75.33.75.75 0 .41-.34.75-.75.75H5.25v8.5h16v-8.5H20c-.42 0-.75-.34-.75-.75 0-.42.33-.75.75-.75h2c.41 0 .75.33.75.75v10c0 .41-.34.75-.75.75H4.5c-.42 0-.75-.34-.75-.75V7Z"/><path d="M6.75 17c0-.42.33-.75.75-.75h10c.41 0 .75.33.75.75v3c0 .41-.34.75-.75.75h-10c-.42 0-.75-.34-.75-.75v-3Zm1.5.75v1.5h8.5v-1.5h-8.5Z"/><path d="M1.25 4c0-.42.33-.75.75-.75h2.5c.41 0 .75.33.75.75v16c0 .41-.34.75-.75.75 -.42 0-.75-.34-.75-.75V4.75H2c-.42 0-.75-.34-.75-.75Z"/><path d="M15.39 8.86c.22.13.35.37.35.63v5c0 .25-.14.5-.36.63 -.23.13-.5.14-.73.03l-1.85-.93h-1.33c-.42 0-.75-.34-.75-.75v-3c0-.42.33-.75.75-.75h1.32l1.84-.93c.23-.12.5-.11.72.03Zm-1.15 1.85l-.92.45c-.11.05-.22.07-.34.07h-.75v1.5h.75c.11 0 .23.02.33.07l.91.45v-2.58Z"/></g></svg>