<svg viewBox="0 0 24 24" xmlns="http://www.w3.org/2000/svg"><g fill-rule="evenodd"><path d="M3.25 2c0-.42.33-.75.75-.75h16c.41 0 .75.33.75.75v20c0 .41-.34.75-.75.75H4c-.42 0-.75-.34-.75-.75v-2c0-.42.33-.75.75-.75 .41 0 .75.33.75.75v1.25h14.5V2.75H4.75V16c0 .41-.34.75-.75.75 -.42 0-.75-.34-.75-.75V2Z"/><path d="M5.75 5.5c0-.42.33-.75.75-.75h8c2.07 0 3.75 1.67 3.75 3.75v3c0 .41-.34.75-.75.75h-8c-2.08 0-3.75-1.68-3.75-3.75v-3Zm1.5.75V8.5c0 1.24 1 2.25 2.25 2.25h7.25V8.5c0-1.25-1.01-2.25-2.25-2.25H7.25Z"/><path d="M6.76 17.33c.07-.35.38-.59.73-.59h8.99c.35 0 .65.24.73.58l1 4.5c.04.22-.01.45-.15.63 -.15.17-.36.28-.59.28h-11c-.23 0-.45-.11-.59-.29 -.15-.18-.2-.41-.15-.64l1-4.5Zm1.33.91l-.67 3h9.13l-.67-3h-7.8Z"/><path d="M12 16.75c.41 0 .75.33.75.75V22c0 .41-.34.75-.75.75 -.42 0-.75-.34-.75-.75v-4.5c0-.42.33-.75.75-.75Z"/><path d="M9.5 16.75c.41 0 .75.33.75.75V22c0 .41-.34.75-.75.75 -.42 0-.75-.34-.75-.75v-4.5c0-.42.33-.75.75-.75Z"/><path d="M14.5 16.75c.41 0 .75.33.75.75V22c0 .41-.34.75-.75.75 -.42 0-.75-.34-.75-.75v-4.5c0-.42.33-.75.75-.75Z"/></g></svg>