<svg viewBox="0 0 24 24" xmlns="http://www.w3.org/2000/svg"><g fill-rule="evenodd"><path d="M19.13 3.94c-.49-.49-1.28-.49-1.77 0L3.92 17.37l-.9 3.58 3.58-.9 9.22-9.23c.29-.3.76-.3 1.06 0 .29.29.29.76 0 1.06L7.5 21.25c-.1.09-.22.16-.35.19l-5 1.25c-.26.06-.53-.02-.72-.2 -.19-.19-.27-.46-.2-.72l1.25-5c.03-.14.1-.26.19-.35L16.25 2.83c1.07-1.08 2.81-1.08 3.88 0l.92.92c1.07 1.07 1.07 2.81 0 3.88l-.47.46c-.3.29-.77.29-1.07 0 -.3-.3-.3-.77 0-1.07l.46-.47c.48-.49.48-1.28 0-1.77l-.93-.93Z"/><path d="M12.53 11.46c.29.29.29.76 0 1.06l-2 2c-.3.29-.77.29-1.07 0 -.3-.3-.3-.77 0-1.07l2-2c.29-.3.76-.3 1.06 0Z"/><path d="M9.03 14.96c.29.29.29.76 0 1.06l-1 1c-.3.29-.77.29-1.07 0 -.3-.3-.3-.77 0-1.07l1-1c.29-.3.76-.3 1.06 0Z"/></g></svg>