<svg viewBox="0 0 24 24" xmlns="http://www.w3.org/2000/svg"><g fill-rule="evenodd"><path d="M19.13 3.94c-.49-.49-1.28-.49-1.77 0L3.92 17.37l-.9 3.58 3.58-.9 3.6-3.61c.29-.3.76-.3 1.06 0 .29.29.29.76 0 1.06l-3.75 3.75c-.1.09-.22.16-.35.19l-5 1.25c-.26.06-.53-.02-.72-.2 -.19-.19-.27-.46-.2-.72l1.25-5c.03-.14.1-.26.19-.35L16.26 2.83c1.07-1.08 2.81-1.08 3.88 0l.92.92c1.07 1.07 1.07 2.81 0 3.88l-6.09 6.08c-.3.29-.77.29-1.07 0 -.3-.3-.3-.77 0-1.07l6.08-6.09c.48-.49.48-1.28 0-1.77l-.93-.93Z"/><path d="M7.96 7.96c.29-.3.76-.3 1.06 0l1.49 1.5c.29.29.29.76 0 1.06 -.3.29-.77.29-1.07 0l-.97-.97 -3.94 3.93 .96.96c.29.29.29.76 0 1.06 -.3.29-.77.29-1.07 0L2.92 14c-.3-.3-.3-.77 0-1.07l5-5.01Z"/><path d="M12.96 6.96c.29-.3.76-.3 1.06 0l3 3c.29.29.29.76 0 1.06 -.3.29-.77.29-1.07 0l-3-3c-.3-.3-.3-.77 0-1.07Z"/></g></svg>