<svg viewBox="0 0 24 24" xmlns="http://www.w3.org/2000/svg"><g fill-rule="evenodd"><path d="M9.5 14.75c.41 0 .75.33.75.75v2.75h3.5V15.5c0-.42.33-.75.75-.75 .41 0 .75.33.75.75V19c0 .41-.34.75-.75.75h-5c-.42 0-.75-.34-.75-.75v-3.5c0-.42.33-.75.75-.75Z"/><path d="M5.75 19c0-.42.33-.75.75-.75h11c.41 0 .75.33.75.75v3c0 .41-.34.75-.75.75h-11c-.42 0-.75-.34-.75-.75v-3Zm1.5.75v1.5h9.5v-1.5h-9.5Z"/><path d="M12 6.75c-1.25 0-2.25 1-2.25 2.25 0 1.24 1 2.25 2.25 2.25 1.24 0 2.25-1.01 2.25-2.25 0-1.25-1.01-2.25-2.25-2.25ZM8.25 9c0-2.08 1.67-3.75 3.75-3.75 2.07 0 3.75 1.67 3.75 3.75 0 2.07-1.68 3.75-3.75 3.75 -2.08 0-3.75-1.68-3.75-3.75Z"/><path d="M12 2.75C8.54 2.75 5.75 5.54 5.75 9c0 3.45 2.79 6.25 6.25 6.25 3.45 0 6.25-2.8 6.25-6.25 0-1.33-.42-2.56-1.12-3.58 -.24-.34-.16-.81.18-1.05 .33-.24.8-.16 1.04.18 .87 1.25 1.38 2.78 1.38 4.42 0 4.28-3.47 7.75-7.75 7.75 -4.29 0-7.75-3.47-7.75-7.75 0-4.29 3.46-7.75 7.75-7.75 .76 0 1.51.11 2.21.32 .39.11.62.53.5.93 -.12.39-.54.62-.94.5 -.57-.17-1.17-.26-1.79-.26Z"/></g></svg>