<svg viewBox="0 0 24 24" xmlns="http://www.w3.org/2000/svg"><g fill-rule="evenodd"><path d="M7.5 3.75c-.97 0-1.75.78-1.75 1.75v6c0 .96.78 1.75 1.75 1.75h9c.96 0 1.75-.79 1.75-1.75v-6c0-.97-.79-1.75-1.75-1.75h-1c-.42 0-.75-.34-.75-.75 0-.42.33-.75.75-.75h1c1.79 0 3.25 1.45 3.25 3.25v6c0 1.79-1.46 3.25-3.25 3.25h-9c-1.8 0-3.25-1.46-3.25-3.25v-6c0-1.8 1.45-3.25 3.25-3.25h4c.41 0 .75.33.75.75 0 .41-.34.75-.75.75h-4Z"/><path d="M8.75 14c0-.42.33-.75.75-.75h5c.41 0 .75.33.75.75v4c0 .41-.34.75-.75.75h-5c-.42 0-.75-.34-.75-.75v-4Zm1.5.75v2.5h3.5v-2.5h-3.5Z"/><path d="M5.75 18c0-.42.33-.75.75-.75h11c.41 0 .75.33.75.75v3c0 .41-.34.75-.75.75h-11c-.42 0-.75-.34-.75-.75v-3Zm1.5.75v1.5h9.5v-1.5h-9.5Z"/><path d="M12 6.25c-1.25 0-2.25 1-2.25 2.25 0 1.24 1 2.25 2.25 2.25 1.24 0 2.25-1.01 2.25-2.25 0-1.25-1.01-2.25-2.25-2.25ZM8.25 8.5c0-2.08 1.67-3.75 3.75-3.75 2.07 0 3.75 1.67 3.75 3.75 0 2.07-1.68 3.75-3.75 3.75 -2.08 0-3.75-1.68-3.75-3.75Z"/></g></svg>