<svg viewBox="0 0 24 24" xmlns="http://www.w3.org/2000/svg"><g fill-rule="evenodd"><path d="M11.5 5c0-1.94 1.56-3.5 3.5-3.5h5c.27 0 .5.22.5.5v1c0 1.93-1.57 3.5-3.5 3.5h-5c-.28 0-.5-.23-.5-.5V5ZM15 2.5c-1.39 0-2.5 1.11-2.5 2.5v.5H17c1.38 0 2.5-1.12 2.5-2.5v-.5H15Z"/><path d="M8 1.5h2c1.38 0 2.5 1.11 2.5 2.5v5h-1V4c0-.83-.68-1.5-1.5-1.5H8v-1Z"/><path d="M11.9 9.49l-2.5-.5L9.59 8l2.4.48 2.4-.49 .19.98 -2.5.5c-.07.01-.14.01-.2 0Z"/><path d="M9 6.5c-3.53 0-6.5 3.29-6.5 7.5 0 4.2 2.97 7.5 6.5 7.5 .98 0 1.92-.26 2.76-.71 .14-.09.32-.09.47 0 .83.45 1.77.7 2.76.7 3.52 0 6.5-3.3 6.5-7.5 0-4.21-2.98-7.5-6.5-7.5 -.99 0-1.93.25-2.77.7 -.15.08-.33.08-.48 0 -.84-.46-1.78-.71-2.77-.71ZM1.5 14c0-4.63 3.29-8.5 7.5-8.5 1.06 0 2.08.25 3 .7 .91-.46 1.93-.71 3-.71 4.2 0 7.5 3.87 7.5 8.5 0 4.62-3.3 8.5-7.5 8.5 -1.07 0-2.09-.26-3-.71 -.92.45-1.94.7-3 .7 -4.21 0-7.5-3.88-7.5-8.5Z"/></g></svg>