<svg viewBox="0 0 24 24" xmlns="http://www.w3.org/2000/svg"><g fill-rule="evenodd"><path d="M17.58 2.7c.78-.79 2.04-.79 2.82 0l.87.87c.78.78.78 2.04 0 2.82l-1.38 1.37c-.79.78-2.05.78-2.83 0l-.88-.88c-.79-.79-.79-2.05 0-2.83l1.37-1.38Zm2.12.7c-.4-.4-1.03-.4-1.42 0L16.9 4.77c-.4.39-.4 1.02 0 1.41l.87.87c.39.39 1.02.39 1.41 0l1.37-1.38c.39-.4.39-1.03 0-1.42l-.88-.88Z"/><path d="M11.64 8.64c.19-.2.51-.2.7 0l3 2.99c.19.19.19.51 0 .7l-2.5 2.5c-.12.11-.28.16-.44.13 -.16-.03-.3-.13-.37-.27l-2-4c-.1-.2-.06-.43.09-.58l1.5-1.5Zm-.54 1.95l1.52 3.05 1.65-1.66 -2.3-2.3 -.9.89Z"/><path d="M20.14 3.14l1.5-1.5 .7.7 -1.5 1.5 -.71-.71Zm-15 15l6-6 .7.7 -6.01 6 -.71-.71Z"/><path d="M12.5 6.5V5h1v1.5c0 .55.44 1 1 1 1.1 0 2 .89 2 2 0 .55.44 1 1 1H19v1h-1.5c-1.11 0-2-.9-2-2 0-.56-.45-1-1-1 -1.11 0-2-.9-2-2Z"/><path d="M4 18.5c-.83 0-1.5.67-1.5 1.5 0 .82.67 1.5 1.5 1.5 .82 0 1.5-.68 1.5-1.5 0-.83-.68-1.5-1.5-1.5ZM1.5 20c0-1.39 1.11-2.5 2.5-2.5 1.38 0 2.5 1.11 2.5 2.5 0 1.38-1.12 2.5-2.5 2.5 -1.39 0-2.5-1.12-2.5-2.5Z"/></g></svg>