<svg viewBox="0 0 24 24" xmlns="http://www.w3.org/2000/svg"><g fill-rule="evenodd"><path d="M9.85 3.48c1.17-1.21 3.11-1.21 4.29 0l.37.38c.38.39.9.6 1.45.6l.53-.01c1.68-.03 3.05 1.35 3.03 3.03l-.01.53c-.01.54.21 1.07.6 1.45l.38.37c1.2 1.17 1.2 3.11 0 4.29l-.39.37c-.4.38-.61.9-.61 1.45l0 .53c.02 1.68-1.36 3.05-3.04 3.03l-.532-.01c-.55-.01-1.08.21-1.46.6l-.38.38c-1.18 1.2-3.12 1.2-4.3 0l-.38-.39c-.39-.4-.91-.61-1.46-.61l-.54 0c-1.69.02-3.06-1.36-3.04-3.04l0-.54c0-.55-.22-1.08-.61-1.46l-.39-.38c-1.21-1.18-1.21-3.12 0-4.3l.38-.38c.39-.39.6-.91.6-1.46l-.01-.54c-.03-1.69 1.35-3.06 3.03-3.04l.53 0c.54 0 1.07-.22 1.45-.61l.37-.39Zm3.57.69c-.79-.81-2.08-.81-2.87 0l-.38.38c-.58.58-1.37.91-2.19.9l-.54-.01c-1.13-.02-2.04.9-2.03 2.02l0 .53c0 .82-.32 1.6-.91 2.18l-.39.37c-.81.78-.81 2.07 0 2.86l.38.37c.58.57.91 1.36.9 2.18l-.01.53c-.02 1.12.9 2.03 2.02 2.02l.53-.01c.82-.01 1.6.31 2.18.9l.37.38c.78.8 2.07.8 2.86 0l.37-.39c.57-.59 1.36-.92 2.18-.91l.53 0c1.12.01 2.03-.91 2.02-2.03l-.01-.532c-.01-.83.31-1.609.9-2.19l.38-.38c.8-.79.8-2.08 0-2.87l-.39-.38c-.59-.58-.92-1.37-.91-2.19l0-.54c.01-1.13-.91-2.04-2.03-2.03l-.532 0c-.83 0-1.609-.32-2.19-.91l-.38-.39Z"/><path d="M12 10.5c-.83 0-1.5.67-1.5 1.5 0 .82.67 1.5 1.5 1.5 .82 0 1.5-.68 1.5-1.5 0-.83-.68-1.5-1.5-1.5ZM9.5 12c0-1.39 1.11-2.5 2.5-2.5 1.38 0 2.5 1.11 2.5 2.5 0 1.38-1.12 2.5-2.5 2.5 -1.39 0-2.5-1.12-2.5-2.5Z"/><path d="M17 10c.27 0 .5.22.5.5v3c0 .27-.23.5-.5.5 -.28 0-.5-.23-.5-.5v-3c0-.28.22-.5.5-.5Z"/><path d="M10 17c0-.28.22-.5.5-.5h3c.27 0 .5.22.5.5 0 .27-.23.5-.5.5h-3c-.28 0-.5-.23-.5-.5Z"/><path d="M10 7c0-.28.22-.5.5-.5h3c.27 0 .5.22.5.5 0 .27-.23.5-.5.5h-3c-.28 0-.5-.23-.5-.5Z"/><path d="M7 10c.27 0 .5.22.5.5v3c0 .27-.23.5-.5.5 -.28 0-.5-.23-.5-.5v-3c0-.28.22-.5.5-.5Z"/></g></svg>