<svg viewBox="0 0 24 24" xmlns="http://www.w3.org/2000/svg"><g fill-rule="evenodd"><path d="M11.5 5c0-1.94 1.56-3.5 3.5-3.5h5c.27 0 .5.22.5.5v1c0 1.93-1.57 3.5-3.5 3.5h-5c-.28 0-.5-.23-.5-.5V5ZM15 2.5c-1.39 0-2.5 1.11-2.5 2.5v.5H17c1.38 0 2.5-1.12 2.5-2.5v-.5H15Z"/><path d="M12 6.5c-4.15 0-7.5 3.35-7.5 7.5 0 4.14 3.35 7.5 7.5 7.5 4.14 0 7.5-3.36 7.5-7.5 0-4.15-3.36-7.5-7.5-7.5ZM3.5 14c0-4.7 3.8-8.5 8.5-8.5 4.69 0 8.5 3.8 8.5 8.5 0 4.69-3.81 8.5-8.5 8.5 -4.7 0-8.5-3.81-8.5-8.5Z"/><path d="M10.1 16.88c-.49.24-.61.49-.61.61s.11.36.6.61c.45.23 1.13.38 1.89.38s1.43-.16 1.89-.39c.48-.25.6-.5.6-.62 0-.13-.12-.37-.61-.62 -.46-.23-1.14-.39-1.9-.39 -.77 0-1.44.15-1.9.38Zm-.45-.9c.62-.32 1.45-.5 2.34-.5 .88 0 1.71.17 2.34.49 .59.29 1.15.8 1.15 1.5s-.56 1.2-1.16 1.5c-.63.31-1.46.49-2.35.49 -.89 0-1.72-.18-2.35-.5 -.6-.3-1.16-.81-1.16-1.51 0-.71.55-1.21 1.15-1.51Z"/></g></svg>