<svg viewBox="0 0 24 24" xmlns="http://www.w3.org/2000/svg"><g fill-rule="evenodd"><path d="M20.64 2.64l1-1 .7.7 -1 1 -.71-.71Zm-19 19l5-5 .7.7 -5 5 -.71-.71Z"/><path d="M18.5 3C17.11 3 16 4.11 16 5.5 16 6.88 17.11 8 18.5 8 19.88 8 21 6.88 21 5.5 21 4.11 19.88 3 18.5 3ZM15 5.5C15 3.56 16.56 2 18.5 2 20.43 2 22 3.56 22 5.5 22 7.43 20.43 9 18.5 9 16.56 9 15 7.43 15 5.5Z"/><path d="M14 7.5c-1.39 0-2.5 1.11-2.5 2.5 0 1.38 1.11 2.5 2.5 2.5 1.38 0 2.5-1.12 2.5-2.5 0-1.39-1.12-2.5-2.5-2.5ZM10.5 10c0-1.94 1.56-3.5 3.5-3.5 1.93 0 3.5 1.56 3.5 3.5 0 1.93-1.57 3.5-3.5 3.5 -1.94 0-3.5-1.57-3.5-3.5Z"/><path d="M9.5 12C8.11 12 7 13.11 7 14.5 7 15.88 8.11 17 9.5 17c1.38 0 2.5-1.12 2.5-2.5 0-1.39-1.12-2.5-2.5-2.5ZM6 14.5C6 12.56 7.56 11 9.5 11c1.93 0 3.5 1.56 3.5 3.5 0 1.93-1.57 3.5-3.5 3.5C7.56 18 6 16.43 6 14.5Z"/></g></svg>