<svg viewBox="0 0 24 24" xmlns="http://www.w3.org/2000/svg"><g fill-rule="evenodd"><path d="M3.5 3.5c0-1.11.89-2 2-2h13c1.1 0 2 .89 2 2 0 1.1-.9 2-2 2h-13c-1.11 0-2-.9-2-2Zm2-1c-.56 0-1 .44-1 1 0 .55.44 1 1 1h13c.55 0 1-.45 1-1 0-.56-.45-1-1-1h-13Z"/><path d="M4.01 4.86c.06-.22.25-.37.48-.37h15c.22 0 .41.14.48.36l.76 2.66c.21.74-.46 1.43-1.21 1.24l-3.05-.77 -4.29.95c-.14.02-.27.03-.4 0L6.5 7.97l-1.98.65c-.77.25-1.5-.46-1.28-1.23l.73-2.59Zm.85.63l-.64 2.22 1.97-.66c.15-.06.32-.07.49-.04l5.27.95L16.23 7c.15-.04.3-.04.45 0l3.04.76 -.66-2.31H4.81Z"/><path d="M5.5 8v12c0 .82.67 1.5 1.5 1.5h10c.82 0 1.5-.68 1.5-1.5V8h1v12c0 1.38-1.12 2.5-2.5 2.5H7c-1.39 0-2.5-1.12-2.5-2.5V8h1Z"/><path d="M11.7 10.6c.17-.14.42-.14.6 0l2 1.5c.12.09.2.24.2.4v2c0 .15-.08.3-.2.4l-2 1.5c-.18.13-.43.13-.6 0l-2-1.5c-.13-.1-.2-.25-.2-.4v-2c0-.16.07-.31.2-.4l2-1.5Zm-1.2 2.15v1.5l1.5 1.125 1.5-1.125v-1.5L12 11.625l-1.5 1.125Z"/><path d="M13.7 14.1c.17-.14.42-.14.6 0l2 1.5c.12.09.2.24.2.4v2c0 .15-.08.3-.2.4l-2 1.5c-.18.13-.43.13-.6 0l-2-1.5c-.13-.1-.2-.25-.2-.4v-2c0-.16.07-.31.2-.4l2-1.5Zm-1.2 2.15v1.5l1.5 1.125 1.5-1.125v-1.5L14 15.125l-1.5 1.125Z"/><path d="M9.7 14.1c.17-.14.42-.14.6 0l2 1.5c.12.09.2.24.2.4v2c0 .15-.08.3-.2.4l-2 1.5c-.18.13-.43.13-.6 0l-2-1.5c-.13-.1-.2-.25-.2-.4v-2c0-.16.07-.31.2-.4l2-1.5Zm-1.2 2.15v1.5l1.5 1.125 1.5-1.125v-1.5L10 15.125 8.5 16.25Z"/></g></svg>