<svg viewBox="0 0 24 24" xmlns="http://www.w3.org/2000/svg"><g fill-rule="evenodd"><path d="M4.5 6c0-2.49 2.01-4.5 4.5-4.5h6c2.48 0 4.5 2.01 4.5 4.5v3.73c0 1.58-.83 3.04-2.19 3.85l-1.12.66c-1.06.63-1.7 1.77-1.7 3v.73c0 2.48-2.02 4.5-4.5 4.5H8.98c-2.49 0-4.5-2.02-4.5-4.5v-12ZM9 2.5C7.06 2.5 5.5 4.06 5.5 6v12c0 1.93 1.56 3.5 3.5 3.5h1c1.93 0 3.5-1.57 3.5-3.5v-.74c0-1.59.82-3.05 2.18-3.86l1.11-.67c1.05-.64 1.69-1.78 1.69-3.01V5.98c0-1.94-1.57-3.5-3.5-3.5H8.97Z"/><path d="M11.5 5.5c-.56 0-1 .44-1 1 0 .55.44 1 1 1 .55 0 1-.45 1-1 0-.56-.45-1-1-1Zm-2 1c0-1.11.89-2 2-2 1.1 0 2 .89 2 2 0 1.1-.9 2-2 2 -1.11 0-2-.9-2-2Z"/></g></svg>