<svg viewBox="0 0 24 24" xmlns="http://www.w3.org/2000/svg"><g fill-rule="evenodd"><path d="M12 2.5c-5.25 0-9.5 4.25-9.5 9.5 0 5.24 4.25 9.5 9.5 9.5 5.24 0 9.5-4.26 9.5-9.5 0-5.25-4.26-9.5-9.5-9.5ZM1.5 12C1.5 6.2 6.2 1.5 12 1.5c5.79 0 10.5 4.7 10.5 10.5 0 5.79-4.71 10.5-10.5 10.5 -5.8 0-10.5-4.71-10.5-10.5Z"/><path d="M12 5.5c-3.59 0-6.5 2.91-6.5 6.5 0 3.58 2.91 6.5 6.5 6.5 3.58 0 6.5-2.92 6.5-6.5 0-3.59-2.92-6.5-6.5-6.5ZM4.5 12c0-4.15 3.35-7.5 7.5-7.5 4.14 0 7.5 3.35 7.5 7.5 0 4.14-3.36 7.5-7.5 7.5 -4.15 0-7.5-3.36-7.5-7.5Z"/><path d="M10.64 10.85L8.63 8.84l.7-.71 2 1.99 -.71.7Z"/><path d="M8.64 14.35l-2-2 .7-.71 2 2 -.71.7Z"/><path d="M13.85 11.35l2-2.01 -.71-.71 -2 1.99 .7.7Z"/><path d="M14.85 15.35l2-2 -.71-.71 -2 2 .7.7Z"/><path d="M10.85 16.35l2-2 -.71-.71 -2 2 .7.7Z"/></g></svg>