<svg viewBox="0 0 24 24" xmlns="http://www.w3.org/2000/svg"><g fill-rule="evenodd"><path d="M17.58 2.7c.78-.79 2.04-.79 2.82 0l.87.87c.78.78.78 2.04 0 2.82l-1.38 1.37c-.79.78-2.05.78-2.83 0l-.88-.88c-.79-.79-.79-2.05 0-2.83l1.37-1.38Zm2.12.7c-.4-.4-1.03-.4-1.42 0L16.9 4.77c-.4.39-.4 1.02 0 1.41l.87.87c.39.39 1.02.39 1.41 0l1.37-1.38c.39-.4.39-1.03 0-1.42l-.88-.88Z"/><path d="M14.08 6.2c.78-.79 2.04-.79 2.82 0l.87.87c.78.78.78 2.04 0 2.82l-1.38 1.37c-.79.78-2.05.78-2.83 0l-.88-.88c-.79-.79-.79-2.05 0-2.83l1.37-1.38Zm2.12.7c-.4-.4-1.03-.4-1.42 0L13.4 8.27c-.4.39-.4 1.02 0 1.41l.87.87c.39.39 1.02.39 1.41 0l1.37-1.38c.39-.4.39-1.03 0-1.42l-.88-.88Z"/><path d="M10.58 9.7c.78-.79 2.04-.79 2.82 0l.87.87c.78.78.78 2.04 0 2.82l-1.38 1.37c-.79.78-2.05.78-2.83 0l-.88-.88c-.79-.79-.79-2.05 0-2.83l1.37-1.38Zm2.12.7c-.4-.4-1.03-.4-1.42 0L9.9 11.77c-.4.39-.4 1.02 0 1.41l.87.87c.39.39 1.02.39 1.41 0l1.37-1.38c.39-.4.39-1.03 0-1.42l-.88-.88Z"/><path d="M20.14 3.14l1.5-1.5 .7.7 -1.5 1.5 -.71-.71Zm-18.5 18.5l8-8 .7.7 -8.01 8 -.71-.71Z"/></g></svg>