<svg viewBox="0 0 24 24" xmlns="http://www.w3.org/2000/svg"><g fill-rule="evenodd"><path d="M9.53 1.81c.07-.19.25-.32.46-.32h1.68c2.25 0 4.41.89 6.01 2.48l2.31 2.31c1.59 1.59 2.48 3.75 2.48 6.01v1.68c0 .2-.13.38-.32.46l-20 8c-.19.07-.4.03-.54-.12 -.15-.15-.19-.36-.12-.54l8-20Zm.8.68l-7.45 18.6 18.6-7.45v-1.35c0-1.99-.8-3.9-2.2-5.31l-2.32-2.32c-1.41-1.41-3.32-2.2-5.31-2.2H10.3Z"/><path d="M17 9.5c-.83 0-1.5.67-1.5 1.5 0 .82.67 1.5 1.5 1.5 .82 0 1.5-.68 1.5-1.5 0-.83-.68-1.5-1.5-1.5ZM14.5 11c0-1.39 1.11-2.5 2.5-2.5 1.38 0 2.5 1.11 2.5 2.5 0 1.38-1.12 2.5-2.5 2.5 -1.39 0-2.5-1.12-2.5-2.5Z"/><path d="M8 11.5c-.83 0-1.5.67-1.5 1.5 0 .82.67 1.5 1.5 1.5 .82 0 1.5-.68 1.5-1.5 0-.83-.68-1.5-1.5-1.5ZM5.5 13c0-1.39 1.11-2.5 2.5-2.5 1.38 0 2.5 1.11 2.5 2.5 0 1.38-1.12 2.5-2.5 2.5 -1.39 0-2.5-1.12-2.5-2.5Z"/><path d="M11.5 8V5h1v3h-1Z"/></g></svg>