<svg viewBox="0 0 24 24" xmlns="http://www.w3.org/2000/svg"><g fill-rule="evenodd"><path d="M12 2.5c-5.25 0-9.5 4.25-9.5 9.5 0 5.24 4.25 9.5 9.5 9.5 5.24 0 9.5-4.26 9.5-9.5 0-5.25-4.26-9.5-9.5-9.5ZM1.5 12C1.5 6.2 6.2 1.5 12 1.5c5.79 0 10.5 4.7 10.5 10.5 0 5.79-4.71 10.5-10.5 10.5 -5.8 0-10.5-4.71-10.5-10.5Z"/><path d="M7.52 12.38l4.38-.88c.03-.01.06-.01.09-.01h4.47c-.25-2.25-2.16-4-4.48-4 -1.72 0-2.81.72-3.5 1.74 -.6.88-.91 2.01-.99 3.14Zm.15-3.71c.87-1.29 2.27-2.19 4.32-2.19 3.03 0 5.5 2.46 5.5 5.5 0 .27-.23.5-.5.5h-4.96l-4.96.99c-.15.02-.3-.01-.42-.11s-.19-.24-.19-.39c0-1.45.32-3.06 1.17-4.32Z"/><path d="M11.87 11.51c.03-.01.08-.02.12-.02h4c.27 0 .5.22.5.5 0 2.48-2.02 4.5-4.5 4.5 -1.16 0-2.27-.21-3.11-.76 -.88-.58-1.4-1.49-1.4-2.75 0-.23.15-.43.37-.49l3.99-1Zm.18.98l-3.54.88c.08.72.43 1.2.92 1.52 .6.39 1.49.58 2.55.58 1.76 0 3.22-1.31 3.46-3h-3.41Z"/></g></svg>