<svg viewBox="0 0 24 24" xmlns="http://www.w3.org/2000/svg"><g fill-rule="evenodd"><path d="M22.35 1.64c.13.13.17.32.12.49l-6 20c-.07.21-.26.35-.48.35 -8.01 0-14.5-6.5-14.5-14.5 0-.23.14-.42.35-.48l20-6c.17-.06.36-.01.49.12ZM2.5 8.36c.19 7.16 5.96 12.93 13.12 13.12l5.62-18.75L2.49 8.35Z"/><path d="M14.64 11.64l2-2 .7.7 -2 2 -.71-.71Z"/><path d="M11.64 8.64l2-2 .7.7 -2 2 -.71-.71Z"/><path d="M5.64 10.64l2-2 .7.7 -2 1.99 -.71-.71Z"/><path d="M8.64 14.64l2-2 .7.7 -2.01 2 -.71-.71Z"/><path d="M12.64 17.64l2-2 .7.7 -2 2 -.71-.71Z"/></g></svg>