<svg viewBox="0 0 24 24" xmlns="http://www.w3.org/2000/svg"><g fill-rule="evenodd"><path d="M2.51 10.14c-.41-.25-.93-.17-1.25.17 -.33.34-.36.86-.09 1.25l2.85 4.07c.34.48.57 1.04.66 1.63l.03.21c.24 1.44 1.49 2.5 2.95 2.5h4.3c.4 0 .76-.25.92-.62 .15-.38.06-.81-.22-1.09l-4.57-4.57c-.35-.35-.74-.65-1.16-.91l-4.48-2.69Z"/><path d="M21.48 10.14c.4-.25.92-.17 1.24.17 .32.34.35.86.08 1.25l-2.86 4.07c-.35.48-.58 1.04-.67 1.63l-.04.21c-.25 1.44-1.5 2.5-2.96 2.5h-4.31c-.41 0-.77-.25-.93-.62 -.16-.38-.07-.81.21-1.09l4.56-4.57c.34-.35.73-.65 1.15-.91l4.47-2.69Z"/><path d="M16.08 6c.46.04.83.39.9.85l1 7c.04.31-.07.62-.29.84l-5 5c-.33.32-.84.38-1.24.14 -.4-.25-.57-.73-.43-1.17l4-12c.14-.44.57-.73 1.03-.68Zm-1.81 9.29l1.65-1.66 -.34-2.32 -1.33 3.96Z"/><path d="M7.91 6c-.47.04-.84.39-.91.85l-1 7c-.05.31.06.62.28.84l5 5c.32.32.83.38 1.23.14 .39-.25.56-.73.42-1.17l-4.01-12c-.15-.44-.58-.73-1.04-.68Zm1.8 9.29l-1.66-1.66 .33-2.32 1.32 3.96Z"/><path d="M12 4c.45 0 .84.3.96.74l2 7.49 -1.94.51 -1.04-3.88 -1.04 3.87L9 12.21l2-7.5c.11-.44.51-.75.96-.75Z"/></g></svg>