<svg viewBox="0 0 24 24" xmlns="http://www.w3.org/2000/svg"><g fill-rule="evenodd"><path d="M9 17c-.31 0-.6.14-.79.38 -.19.24-.26.55-.19.85l1 4c.11.44.51.75.97.75h4c.45 0 .85-.32.97-.76l1-4c.07-.3 0-.62-.19-.86 -.19-.25-.49-.39-.79-.39h-6Z"/><path d="M12.74 1.33l-.75.66 -.75-.67c.18-.22.46-.34.74-.34 .28 0 .55.12.74.33Zm-.75 5.66c-.75.66-.75.66-.75.66l-.01-.01 -.01-.01 -.02-.02c-.02-.02-.04-.04-.06-.07 -.05-.06-.11-.13-.19-.22 -.16-.19-.36-.44-.56-.72 -.21-.29-.43-.62-.6-.95 -.16-.31-.35-.75-.35-1.2 0-.46.18-.9.34-1.2 .17-.34.39-.67.59-.95 .2-.29.4-.54.55-.72 .07-.1.13-.17.18-.22 .02-.03.04-.05.05-.07l.01-.02 0-.01 0-.01c0-.01 0 0 .74.66 .74-.67.74-.67.74-.67l0 0 0 0 .01.01c.01.01.03.03.05.06 .04.05.1.12.18.21 .15.18.35.43.55.71 .2.28.42.61.59.94 .15.3.34.74.34 1.19 0 .45-.19.89-.35 1.19 -.18.33-.4.66-.6.94 -.21.28-.41.53-.56.71 -.08.09-.14.16-.19.21 -.03.02-.05.04-.06.06l-.02.01 -.01 0 -.01 0s-.01 0-.75-.67Zm0 0l-.75.66c.18.21.46.33.74.33 .28 0 .55-.13.74-.34l-.75-.67Zm0-1.62c.14-.22.28-.43.37-.61 .08-.17.11-.26.11-.29 -.01-.03-.04-.12-.12-.29 -.1-.19-.23-.4-.38-.61 -.15.21-.29.42-.38.6 -.09.16-.12.25-.12.28 0 .02.03.11.11.28 .09.18.22.39.37.6Z"/><path d="M12.74 6.33l-.75.66 -.75-.67c.18-.22.46-.34.74-.34 .28 0 .55.12.74.33Zm-.75 5.66c-.75.66-.75.66-.75.66l-.01-.01 -.01-.01 -.02-.02c-.02-.02-.04-.04-.06-.07 -.05-.06-.11-.13-.19-.22 -.16-.19-.36-.44-.56-.72 -.21-.29-.43-.62-.6-.95 -.16-.31-.35-.75-.35-1.2 0-.46.18-.9.34-1.2 .17-.34.39-.67.59-.95 .2-.29.4-.54.55-.72 .07-.1.13-.17.18-.22 .02-.03.04-.05.05-.07l.01-.02 0-.01 0-.01c0-.01 0 0 .74.66 .74-.67.74-.67.74-.67l0 0 0 0 .01.01c.01.01.03.03.05.06 .04.05.1.12.18.21 .15.18.35.43.55.71 .2.28.42.61.59.94 .15.3.34.74.34 1.19 0 .45-.19.89-.35 1.19 -.18.33-.4.66-.6.94 -.21.28-.41.53-.56.71 -.08.09-.14.16-.19.21 -.03.02-.05.04-.06.06l-.02.01 -.01 0 -.01 0s-.01 0-.75-.67Zm0 0l-.75.66c.18.21.46.33.74.33 .28 0 .55-.13.74-.34l-.75-.67Zm0-1.62c.14-.22.28-.43.37-.61 .08-.17.11-.26.11-.29 -.01-.03-.04-.12-.12-.29 -.1-.19-.23-.4-.38-.61 -.15.21-.29.42-.38.6 -.09.16-.12.25-.12.28 0 .02.03.11.11.28 .09.18.22.39.37.6Z"/><path d="M12 7l-.67.74c-.22-.19-.34-.47-.34-.75 0-.29.12-.56.33-.75l.66.74Zm5 0l.66.74c.21-.19.33-.47.33-.75 0-.29-.13-.56-.34-.75l-.67.74Zm-3.39 0c.21.14.42.28.6.37 .16.08.25.11.28.11 .02-.01.12-.04.28-.12 .18-.1.39-.23.6-.38 -.22-.15-.43-.29-.61-.38 -.17-.09-.26-.12-.29-.12 -.03 0-.12.03-.29.11 -.19.09-.4.22-.61.37Zm-.31-2.16c.3-.16.74-.35 1.19-.35 .45 0 .89.18 1.19.34 .33.17.66.39.94.59 .28.2.53.4.71.55 .09.07.16.13.21.18 .02.02.04.04.06.05l.01.01 0 0 0 0s0 0-.67.74c.66.74.66.74.66.74l-.01 0 -.01 0 -.02.01c-.02.01-.04.03-.07.05 -.06.04-.13.1-.22.18 -.19.15-.44.35-.72.55 -.29.2-.62.42-.95.59 -.31.15-.75.34-1.2.34 -.46 0-.9-.19-1.2-.35 -.34-.18-.67-.4-.95-.6 -.29-.21-.54-.41-.72-.56 -.1-.08-.17-.14-.22-.19 -.03-.03-.05-.05-.07-.06l-.02-.02 -.01-.01 -.01-.01c-.01-.01 0 0 .66-.75 -.67-.75-.67-.75-.67-.75l0-.01 0-.01 .01-.02c.01-.02.03-.04.06-.06 .05-.05.12-.11.21-.19 .18-.16.43-.36.71-.56 .28-.21.61-.43.94-.6Z"/><path d="M7 7l-.67.74c-.22-.19-.34-.47-.34-.75 0-.29.12-.56.33-.75l.66.74Zm5 0l.66.74c.21-.19.33-.47.33-.75 0-.29-.13-.56-.34-.75l-.67.74ZM8.61 7c.21.14.42.28.6.37 .16.08.25.11.28.11 .02-.01.11-.04.28-.12 .18-.1.39-.23.6-.38 -.22-.15-.43-.29-.61-.38 -.17-.09-.26-.12-.29-.12 -.03 0-.12.03-.29.11 -.19.09-.4.22-.61.37ZM8.3 4.84c.3-.16.74-.35 1.19-.35 .45 0 .89.18 1.19.34 .33.17.66.39.94.59 .28.2.53.4.71.55 .09.07.16.13.21.18 .02.02.04.04.06.05l.01.01 0 0 0 0s0 0-.67.74c.66.74.66.74.66.74l-.01 0 -.01 0 -.02.01c-.02.01-.04.03-.07.05 -.06.04-.13.1-.22.18 -.19.15-.44.35-.72.55 -.29.2-.62.42-.95.59 -.31.15-.75.34-1.2.34 -.46 0-.9-.19-1.2-.35 -.34-.18-.67-.4-.95-.6 -.29-.21-.54-.41-.72-.56 -.1-.08-.17-.14-.22-.19 -.03-.03-.05-.05-.07-.06l-.02-.02 -.01-.01 -.01-.01c-.01-.01 0 0 .66-.75 -.67-.75-.67-.75-.67-.75l0-.01 0-.01 .01-.02c.01-.02.03-.04.06-.06 .05-.05.12-.11.21-.19 .18-.16.43-.36.71-.56 .28-.21.61-.43.94-.6Z"/><path d="M16.92 12.38c.16-.41.05-.87-.28-1.15 -.34-.29-.81-.32-1.18-.09l-4.01 2.5c-.3.18-.48.5-.48.84v3.49c0 .55.44 1 1 1h1.5c.4 0 .76-.25.92-.62l2.5-6Z"/><path d="M7.07 12.38c-.17-.41-.06-.87.27-1.15 .33-.29.8-.32 1.17-.09l4 2.5c.29.18.47.5.47.84v3.49c0 .55-.45 1-1 1h-1.51c-.41 0-.77-.25-.93-.62l-2.5-6Z"/><path d="M11 18v-6.5h2V18h-2Z"/></g></svg>