<svg viewBox="0 0 24 24" xmlns="http://www.w3.org/2000/svg"><g fill-rule="evenodd"><path d="M9 15c-.3 0-.58.12-.77.35 -.2.22-.28.52-.23.81l1 6c.08.48.49.83.98.83h4c.48 0 .9-.36.98-.84l1-6c.04-.29-.04-.59-.23-.82 -.19-.23-.47-.36-.77-.36h-6Z"/><path d="M5 5C3.34 5 2 6.34 2 8v4c0 .55.44 1 1 1h4c1.65 0 3-1.35 3-3 0-1.36-.9-2.5-2.13-2.88 -.38-1.24-1.52-2.13-2.88-2.13Z"/><path d="M19 2.5c1.65 0 3 1.34 3 3v4c0 .55-.45 1-1 1h-4c-1.66 0-3-1.35-3-3 0-1.36.89-2.5 2.12-2.88 .37-1.24 1.51-2.13 2.87-2.13Z"/><path d="M8 3v5H6V3h2Z"/><path d="M16 2v3.5h2V2h-2Z"/><path d="M11.1 16.44l-3.01-6 1.78-.9 2.99 6 -1.79.89Z"/><path d="M15.94 7.83l-3 8.49 -1.89-.67 3-8.51 1.88.66Z"/></g></svg>