<svg viewBox="0 0 24 24" xmlns="http://www.w3.org/2000/svg"><g fill-rule="evenodd"><path d="M15 1.99c0-.31-.15-.6-.39-.79 -.25-.19-.56-.26-.86-.19l-4.01 1c-.45.11-.76.51-.76.97v.69l-.84 1.24c-.23.33-.23.77 0 1.1l.83 1.24v2.89l-.84 1.24c-.23.33-.23.77 0 1.1l.83 1.24v3.39l-.84 1.24c-.23.33-.23.77 0 1.1l.83 1.24v1.19c0 .55.44 1 1 1h4c.55 0 1-.45 1-1v-1.2l.83-1.25c.22-.34.22-.78 0-1.11l-.84-1.25v-3.4l.83-1.25c.22-.34.22-.78 0-1.11l-.84-1.25v-2.9l.83-1.25c.22-.34.22-.78 0-1.11l-.84-1.25v-1.7Z"/><path d="M19 7c-1.66 0-3 1.34-3 3v1c0 .55.44 1 1 1h3c1.65 0 3-1.35 3-3V8c0-.56-.45-1-1-1h-3Z"/><path d="M5 14c1.65 0 3 1.34 3 3v1c0 .55-.45 1-1 1H4c-1.66 0-3-1.35-3-3v-1c0-.56.44-1 1-1h3Z"/></g></svg>