<svg viewBox="0 0 24 24" xmlns="http://www.w3.org/2000/svg"><g fill-rule="evenodd"><path d="M5 18c-.33 0-.63.15-.82.41 -.19.26-.24.59-.14.9l1 3c.13.4.51.68.94.68h12c.43 0 .81-.28.94-.69l1-3c.1-.31.05-.65-.14-.91 -.19-.27-.49-.42-.82-.42h-14Z"/><path d="M3.04 6.69c.13-.42.51-.7.95-.7h4c.19 0 .39.05.55.16l5.1 3.4c.83.55 1.33 1.49 1.33 2.49v3.51l2.7 2.7 -1.42 1.41 -3-3c-.19-.19-.3-.45-.3-.71v-3.93c0-.34-.17-.65-.45-.84L7.64 7.94h-.58l3.62 2.58c.78.56 1.25 1.47 1.25 2.44v1.14c0 .79-.32 1.55-.88 2.12l-3.42 3.41 -1.42-1.42 3.41-3.42c.18-.19.29-.45.29-.71v-1.15c0-.33-.16-.63-.42-.82L3.32 7.7c-.36-.26-.51-.71-.38-1.12Z"/><path d="M9 1c-1.8 0-3.41.78-4.5 2.03C2.52 3.27.99 4.95.99 6.99c0 .55.44 1 1 1h2 4 3.5 2.5 2.5c.55 0 1-.45 1-1 0-2.04-1.404-4-3.5-4 -.17 0-.34.01-.5.03C12.39 1.77 10.77.98 8.98.98Z"/><path d="M19 8c-2.21 0-4 1.79-4 4 0 .55.44 1 1 1h6c.55 0 1-.45 1-1 0-2.21-1.8-4-4-4Z"/><path d="M5 10c-2.21 0-4 1.79-4 4 0 .55.44 1 1 1h6c.55 0 1-.45 1-1 0-2.21-1.8-4-4-4Z"/><path d="M5.6 13.2l4 3 -1.2 1.6 -4-3 1.2-1.6Z"/><path d="M19.97 12.87l-5.51 3 -.96-1.76 5.5-3 .95 1.75Z"/></g></svg>