<svg viewBox="0 0 24 24" xmlns="http://www.w3.org/2000/svg"><g fill-rule="evenodd"><path d="M8 8c-.56 0-1 .44-1 1v3c0 1.65 1.34 3 3 3h4c1.65 0 3-1.35 3-3V9c0-.56-.45-1-1-1H8Z"/><path d="M3.29 18.29c.39-.4 1.02-.4 1.41 0l2 2L5.28 21.7l-1.3-1.3 -1.3 1.29 -1.42-1.42 2-2Z"/><path d="M20.707 18.29c-.4-.4-1.03-.4-1.42 0l-2 2 1.41 1.41 1.29-1.3 1.29 1.29 1.41-1.42 -2-2Z"/><path d="M3.29 14.29c.39-.4 1.02-.4 1.41 0l2 2L5.28 17.7l-1.3-1.3 -1.3 1.29 -1.42-1.42 2-2Z"/><path d="M20.707 14.29c-.4-.4-1.03-.4-1.42 0l-2 2 1.41 1.41 1.29-1.3 1.29 1.29 1.41-1.42 -2-2Z"/><path d="M3.29 10.29c.39-.4 1.02-.4 1.41 0l2 2L5.28 13.7l-1.3-1.3 -1.3 1.29 -1.42-1.42 2-2Z"/><path d="M20.707 10.29c-.4-.4-1.03-.4-1.42 0l-2 2 1.41 1.41 1.29-1.3 1.29 1.29 1.41-1.42 -2-2Z"/><path d="M6 7c-.56 0-1 .44-1 1v14H3V8c0-1.66 1.34-3 3-3h1c1.65 0 3 1.34 3 3v1H8V8c0-.56-.45-1-1-1H6Z"/><path d="M18 7c.55 0 1 .44 1 1v14h2V8c0-1.66-1.35-3-3-3h-1c-1.66 0-3 1.34-3 3v1h2V8c0-.56.44-1 1-1h1Z"/><path d="M11.99 1c.44 0 .83.29.96.72l2 7 -1.923.54 -1.04-3.64 -1.04 3.63 -1.93-.55 2-7c.12-.43.51-.73.96-.73Z"/></g></svg>