<svg viewBox="0 0 24 24" xmlns="http://www.w3.org/2000/svg"><g fill-rule="evenodd"><path d="M8.5 15c-.3 0-.58.12-.77.35 -.2.22-.28.52-.23.81l1 6c.08.48.49.83.98.83h4.99c.48 0 .9-.36.98-.84l1-6c.04-.29-.04-.59-.23-.82 -.19-.23-.47-.36-.77-.36h-7Z"/><path d="M12.83 1.44c-.19-.28-.5-.45-.84-.45 -.34 0-.65.16-.84.44L9.44 3.98H7.97c-.37 0-.71.2-.89.52 -.18.32-.16.71.04 1.02l1.4 2.1c.55.83 1.49 1.33 2.49 1.33h1.85c1 0 1.93-.51 2.49-1.34l1.4-2.11c.2-.31.22-.71.04-1.03 -.18-.33-.52-.53-.89-.53h-1.47l-1.71-2.56Z"/><path d="M1.44 10.668c-.28.18-.45.49-.45.83 0 .33.16.64.44.83l2.55 1.7v1.46c0 .36.2.7.52.88 .32.17.71.15 1.02-.05l2.1-1.41c.83-.56 1.33-1.5 1.33-2.5v-1.86c0-1.01-.51-1.94-1.34-2.5L5.5 6.63c-.31-.21-.71-.23-1.03-.05 -.33.17-.53.51-.53.88v1.46l-2.56 1.7Z"/><path d="M22.55 10.668c.27.18.44.49.44.83 0 .33-.17.64-.45.83l-2.56 1.7v1.46c0 .36-.21.7-.53.88 -.33.17-.72.15-1.03-.05l-2.11-1.41c-.84-.56-1.34-1.5-1.34-2.5v-1.86c0-1.01.5-1.94 1.33-2.5l2.1-1.41c.3-.21.7-.23 1.02-.05 .32.17.52.51.52.88v1.46l2.55 1.7Z"/><path d="M11.34 7.24c.37-.33.94-.33 1.31 0l4 3.49c.2.17.32.42.33.69 .01.266-.08.52-.26.72l-4 4.5 -1.5-1.33 3.33-3.75 -2.583-2.27 -2.15 1.87 2.03.87 -.79 1.83 -3.5-1.5c-.32-.14-.55-.43-.6-.77 -.06-.34.07-.69.32-.91l3.99-3.5Z"/></g></svg>