<svg viewBox="0 0 24 24" xmlns="http://www.w3.org/2000/svg"><g fill-rule="evenodd"><path d="M8 15c-.3 0-.58.12-.77.35 -.2.22-.28.52-.23.81l1 6c.08.48.49.83.98.83h5.99c.48 0 .9-.36.98-.84l1-6c.04-.29-.04-.59-.23-.82 -.19-.23-.47-.36-.77-.36h-8Z"/><path d="M13 2v14h-2V2h2Z"/><path d="M11.293 5.7l-2.01-2 1.41-1.42 1.29 1.29 1.29-1.3 1.41 1.41 -2 2c-.4.39-1.03.39-1.42 0Z"/><path d="M11.293 9.7l-3.01-3 1.41-1.42 2.29 2.29 2.29-2.3 1.41 1.41 -3 3c-.4.39-1.03.39-1.42 0Z"/><path d="M11.293 15.7l-10-10L2.7 4.28l9.29 9.29 9.29-9.3 1.41 1.41 -10 9.99c-.4.39-1.03.39-1.42 0Z"/><path d="M15 11V8h2v2h2v2h-3c-.56 0-1-.45-1-1Z"/><path d="M9 11V8H7v2H5v2h3c.55 0 1-.45 1-1Z"/><path d="M18 8V5h2v2h2v2h-3c-.56 0-1-.45-1-1Z"/><path d="M6 8V5H4v2H2v2h3c.55 0 1-.45 1-1Z"/></g></svg>