<svg viewBox="0 0 24 24" xmlns="http://www.w3.org/2000/svg"><g fill-rule="evenodd"><path d="M5 15c-.31 0-.6.13-.79.37 -.19.23-.26.55-.2.84l1.4 6c.1.45.5.77.97.77h11.2c.46 0 .86-.33.97-.78l1.4-6c.06-.3-.01-.61-.2-.85s-.48-.38-.79-.38h-14Z"/><path d="M12.79 1.39c-.19-.26-.49-.4-.798-.4 -.32 0-.609.14-.798.39l-.56.73 -.88.3c-.3.1-.53.33-.63.63 -.1.29-.05.62.13.88l.52.75 .01.92c0 .31.15.6.41.79 .25.18.57.23.87.14l.88-.27 .88.26c.3.09.62.03.87-.15 .25-.19.4-.48.41-.8l.01-.93 .52-.76c.17-.26.22-.59.13-.89 -.1-.3-.33-.54-.63-.64l-.88-.31 -.56-.74Z"/><path d="M12 7c-3.14 0-5.5 2.78-5.5 6 0 1.32.39 2.55 1.07 3.56 .18.27.49.43.82.43h7.2c.33 0 .64-.17.82-.44 .67-1.01 1.07-2.24 1.07-3.57 0-3.22-2.37-6-5.5-6Z"/><path d="M7.67 12.02c-.92.16-1.68 1.013-1.68 2.09 0 .31.06.6.17.875h1.82v2H5.57c-.33 0-.63-.16-.82-.42 -.5-.69-.79-1.55-.79-2.46 0-2.02 1.4-3.74 3.32-4.07L7.62 12Z"/><path d="M16.32 12.02c.91.16 1.67 1.013 1.67 2.09 0 .31-.07.6-.18.875h-1.83v2h2.4c.32 0 .62-.16.81-.42 .49-.69.78-1.55.78-2.46 0-2.02-1.41-3.74-3.33-4.07L16.29 12Z"/><path d="M13 5.5V8h-2V5.5h2Z"/></g></svg>