<svg viewBox="0 0 24 24" xmlns="http://www.w3.org/2000/svg"><g fill-rule="evenodd"><path d="M12 14c.29 0 .57.12.76.35 .19.22.27.52.22.81l-1 6c-.09.48-.5.83-.99.83H6.98c-.49 0-.91-.36-.99-.84l-1-6c-.05-.29.03-.59.22-.82 .19-.23.46-.36.76-.36h6Z"/><path d="M10 7.1c0-.73.75-1.22 1.41-.92l2.67 1.21 .82-1.83 -2.68-1.22c-1.99-.91-4.25.54-4.25 2.73v7.89h1.99v-7.9Z"/><path d="M3 11.09c0-1.48 1.55-2.44 2.87-1.78l3.57 1.78c.33.16.55.51.55.89v2.99c0 .55-.45 1-1.01 1H7.47c-.27 0-.52-.11-.71-.3l-3.22-3.22c-.38-.38-.59-.88-.59-1.41Z"/><path d="M12 8.5l-.67.74c-.22-.19-.34-.47-.34-.75 0-.29.12-.56.33-.75l.66.74Zm1.61 0c.21.14.42.28.6.37 .2.1.29.12.29.12s-.01 0-.01 0c-.01 0-.01 0-.01 0m-.89-.5c.21-.15.42-.29.6-.38 .2-.11.29-.13.29-.13 0-.01-.01-.01-.01-.01 .27 0 .49.22.49.49s-.22.49-.5.49m-1.21-2.66c.3-.16.74-.35 1.19-.35 1.38 0 2.5 1.11 2.5 2.5 0 1.38-1.12 2.5-2.5 2.5 -.46 0-.9-.19-1.2-.35 -.34-.18-.67-.4-.95-.6 -.29-.21-.54-.41-.72-.56 -.1-.08-.17-.14-.22-.19 -.03-.03-.05-.05-.07-.06l-.02-.02 -.01-.01 -.01-.01c-.01-.01 0 0 .66-.75 -.67-.75-.67-.75-.67-.75l0-.01 0-.01 .01-.02c.01-.02.03-.04.06-.06 .05-.05.12-.11.21-.19 .18-.16.43-.36.71-.56 .28-.21.61-.43.94-.6Z"/><path d="M20 8.5l.66.74c.21-.19.33-.47.33-.75 0-.29-.13-.56-.34-.75l-.67.74Zm-1.62 0c-.22.14-.43.28-.61.37 -.21.1-.3.12-.3.12s0 0 0 0 0 0 0 0m.88-.5c-.22-.15-.43-.29-.61-.38 -.21-.11-.3-.13-.3-.13 0-.01 0-.01 0-.01 -.28 0-.5.22-.5.49s.21.49.49.49m1.2-2.66c-.31-.16-.75-.35-1.2-.35 -1.39 0-2.5 1.11-2.5 2.5 0 1.38 1.11 2.5 2.5 2.5 .45 0 .89-.19 1.19-.35 .33-.18.66-.4.94-.6 .28-.21.53-.41.71-.56 .09-.08.16-.14.21-.19 .02-.03.04-.05.06-.06l.01-.02 0-.01 0-.01c0-.01 0 0-.67-.75 .66-.75.66-.75.66-.75l-.01-.01 -.01-.01 -.02-.02c-.02-.02-.04-.04-.07-.06 -.06-.05-.13-.11-.22-.19 -.19-.16-.44-.36-.72-.56 -.29-.21-.62-.43-.95-.6Z"/><path d="M16.74 2.33l-.75.66 -.75-.67c.18-.22.46-.34.74-.34 .28 0 .55.12.74.33Zm-.75 2.27c-.15.21-.29.42-.38.6 -.11.2-.13.29-.13.29 -.01-.01-.01-.01-.01-.01 -.01-.01-.01-.01-.01-.01m.5-.89c.14.21.28.42.37.6 .1.2.12.29.12.29 0-.01 0-.01 0-.01 -.01.27-.23.49-.5.49 -.28 0-.5-.22-.5-.5m.49-2.51c-.75-.67-.75-.67-.75-.67l-.01 0 -.01 0 -.02.01c-.02.01-.04.03-.06.06 -.05.05-.11.12-.19.21 -.16.18-.36.43-.56.71 -.21.28-.43.61-.6.94 -.16.3-.35.74-.35 1.19 0 1.38 1.11 2.5 2.5 2.5 1.38 0 2.5-1.12 2.5-2.5 0-.46-.19-.9-.35-1.2 -.18-.34-.4-.67-.6-.95 -.21-.29-.41-.54-.56-.72 -.08-.1-.14-.17-.19-.22 -.03-.03-.05-.05-.06-.07l-.02-.02 -.01-.01 -.01-.01c-.01-.01 0 0-.75.66Z"/><path d="M15 12V8h2v4h-2Z"/></g></svg>