<svg viewBox="0 0 24 24" xmlns="http://www.w3.org/2000/svg"><path fill="#5E94FF" d="M9 1.25c-.97 0-1.75.78-1.75 1.75v6c0 .96.78 1.75 1.75 1.75h12c.96 0 1.75-.79 1.75-1.75V3c0-.97-.79-1.75-1.75-1.75H9Z"/><path fill="#CFD8DC" d="M2.33 9.32c-.24-.12-.51-.11-.73.03 -.23.13-.36.37-.36.63v4c0 .25.13.5.35.63 .22.13.49.14.72.03l4-2c.25-.13.41-.39.41-.68 0-.29-.17-.55-.42-.68l-4-2.01Z"/><path fill="#5E94FF" d="M9 13.25c-.97 0-1.75.78-1.75 1.75v6c0 .96.78 1.75 1.75 1.75h12c.96 0 1.75-.79 1.75-1.75v-6c0-.97-.79-1.75-1.75-1.75H9Z"/></svg>