<svg viewBox="0 0 24 24" xmlns="http://www.w3.org/2000/svg"><g fill="#CFD8DC" fill-rule="evenodd"><path d="M11.25 10c0-.42.33-.75.75-.75h10c.41 0 .75.33.75.75 0 .41-.34.75-.75.75H12c-.42 0-.75-.34-.75-.75Z"/><g fill="#5E94FF"><path d="M1.25 12c0-.42.33-.75.75-.75h6.5c.41 0 .75.33.75.75 0 .41-.34.75-.75.75H2c-.42 0-.75-.34-.75-.75Z"/><path d="M1.25 18c0-.42.33-.75.75-.75h20c.41 0 .75.33.75.75 0 .41-.34.75-.75.75H2c-.42 0-.75-.34-.75-.75Z"/></g><path d="M11.25 14c0-.42.33-.75.75-.75h10c.41 0 .75.33.75.75 0 .41-.34.75-.75.75H12c-.42 0-.75-.34-.75-.75Z"/><g fill="#5E94FF"><path d="M1.25 6c0-.42.33-.75.75-.75h20c.41 0 .75.33.75.75 0 .41-.34.75-.75.75H2c-.42 0-.75-.34-.75-.75Z"/><path d="M5.96 8.96c.29-.3.76-.3 1.06 0l2.5 2.5c.28.28.29.75 0 1.05l-2.5 2.59c-.29.29-.77.3-1.07.01 -.3-.29-.31-.77-.02-1.07l1.98-2.07 -1.98-1.98c-.3-.3-.3-.77 0-1.07Z"/></g></g></svg>