<svg viewBox="0 0 24 24" xmlns="http://www.w3.org/2000/svg"><g fill="#CFD8DC" fill-rule="evenodd"><path d="M10.25 10c0-.42.33-.75.75-.75h11c.41 0 .75.33.75.75 0 .41-.34.75-.75.75H11c-.42 0-.75-.34-.75-.75Z"/><path d="M10.25 18c0-.42.33-.75.75-.75h11c.41 0 .75.33.75.75 0 .41-.34.75-.75.75H11c-.42 0-.75-.34-.75-.75Z"/><path d="M10.25 14c0-.42.33-.75.75-.75h11c.41 0 .75.33.75.75 0 .41-.34.75-.75.75H11c-.42 0-.75-.34-.75-.75Z"/><path d="M10.25 6c0-.42.33-.75.75-.75h11c.41 0 .75.33.75.75 0 .41-.34.75-.75.75H11c-.42 0-.75-.34-.75-.75Z"/><g fill="#5E94FF"><path d="M4.5 5.25c-.42 0-.75.33-.75.75v11.5c0 .41.33.75.75.75 .41 0 .75-.34.75-.75V6c0-.42-.34-.75-.75-.75Z"/><path d="M1.46 14.96c-.3.29-.3.76 0 1.06l2.5 2.5c.28.28.75.29 1.05 0l2.59-2.5c.29-.29.3-.77.01-1.07 -.29-.3-.77-.31-1.07-.02l-2.07 1.98 -1.98-1.98c-.3-.3-.77-.3-1.07 0Z"/><path d="M1.46 8.53c-.3-.3-.3-.77 0-1.07l2.5-2.5c.28-.29.75-.3 1.05-.01l2.59 2.5c.29.28.3.76.01 1.06 -.29.29-.77.3-1.07.01L4.47 6.53 2.49 8.5c-.3.29-.77.29-1.07 0Z"/></g></g></svg>