<svg viewBox="0 0 24 24" xmlns="http://www.w3.org/2000/svg"><g fill="#CFD8DC" fill-rule="evenodd"><path d="M9.25 4c0-.42.33-.75.75-.75h11c.41 0 .75.33.75.75 0 .41-.34.75-.75.75H10c-.42 0-.75-.34-.75-.75Z"/><path d="M9.25 12c0-.42.33-.75.75-.75h11c.41 0 .75.33.75.75 0 .41-.34.75-.75.75H10c-.42 0-.75-.34-.75-.75Z"/><path d="M9.25 20c0-.42.33-.75.75-.75h11c.41 0 .75.33.75.75 0 .41-.34.75-.75.75H10c-.42 0-.75-.34-.75-.75Z"/></g><g fill="#5E94FF"><path d="M3 1.25c-.42 0-.75.33-.75.75v4c0 .41.33.75.75.75h4c.41 0 .75-.34.75-.75V2c0-.42-.34-.75-.75-.75H3Z"/><path d="M3 9.25c-.42 0-.75.33-.75.75v4c0 .41.33.75.75.75h4c.41 0 .75-.34.75-.75v-4c0-.42-.34-.75-.75-.75H3Z"/><path d="M3 17.25c-.42 0-.75.33-.75.75v4c0 .41.33.75.75.75h4c.41 0 .75-.34.75-.75v-4c0-.42-.34-.75-.75-.75H3Z"/></g></svg>