<svg viewBox="0 0 24 24" xmlns="http://www.w3.org/2000/svg"><g fill="#3747D6" fill-rule="evenodd"><path d="M1 10.5c0-2.77 2.23-5 5-5h12c2.76 0 5 2.23 5 5v7c0 2.2-1.8 4-4 4h-.5c-1.26 0-2.45-.6-3.2-1.6l-1.5-2c-.19-.26-.49-.4-.8-.4h-2.4c-.35 0-.67.17-.85.47l-1.04 1.65c-.74 1.16-2.02 1.88-3.4 1.88h-.34c-2.21 0-4-1.8-4-4v-7Zm5-3c-1.66 0-3 1.34-3 3v7c0 1.1.89 2 2 2h.33c.68 0 1.33-.36 1.69-.94l1.03-1.65c.54-.88 1.5-1.41 2.54-1.41h2.39c.94 0 1.83.44 2.4 1.2l1.5 2c.37.5.97.8 1.6.8h.5c1.1 0 2-.9 2-2v-7c0-1.66-1.35-3-3-3h-12Z"/><g fill="#9545ED"><path d="M9.5 13.5h-5v-2h5v2Z"/><path d="M8 10v5H6v-5h2Z"/></g><path d="M13 3.5v3h-2v-3h2Z"/><g fill="#9545ED"><path d="M17.5 15h-2v-2h2v2Z"/><path d="M19.5 12h-2v-2h2v2Z"/></g></g></svg>