<svg viewBox="0 0 24 24" xmlns="http://www.w3.org/2000/svg"><g fill="#9545ED" fill-rule="evenodd"><path d="M16.79 11.79c.37-.38.99-.4 1.38-.03l1.5 1.38c.19.18.31.43.32.7 0 .26-.1.53-.29.72l-3.92 4.01c-.57.57-1.34.9-2.15.9h-.66c-.56 0-1-.45-1-1v-.68c0-.8.31-1.56.87-2.13l3.91-3.92Zm.73 2.09l-3.24 3.23c-.09.08-.15.17-.2.27 .1-.05.19-.12.27-.2l3.19-3.28 -.04-.04Z"/><path d="M15.5 10c-3.04 0-5.5 2.46-5.5 5.5 0 3.03 2.46 5.5 5.5 5.5 3.03 0 5.5-2.47 5.5-5.5 0-3.04-2.47-5.5-5.5-5.5ZM8 15.5C8 11.35 11.35 8 15.5 8c4.14 0 7.5 3.35 7.5 7.5 0 4.14-3.36 7.5-7.5 7.5 -4.15 0-7.5-3.36-7.5-7.5Z"/><path fill="#3747D6" d="M1 2c0-.56.44-1 1-1h4.9c.32 0 .63.16.82.43l1.5 2.19h10.27c.55 0 1 .44 1 1v2.375h-2V5.62h-9.8c-.33 0-.64-.17-.83-.44l-1.51-2.2H2.97v16h4v2h-5c-.56 0-1-.45-1-1v-18Z"/></g></svg>