<svg viewBox="0 0 24 24" xmlns="http://www.w3.org/2000/svg"><g fill="#9545ED" fill-rule="evenodd"><path d="M13.29 8.79c.37-.38.99-.4 1.38-.03l2 1.84c.19.18.31.43.32.7 0 .26-.1.53-.29.72l-5.42 5.55c-.57.57-1.34.9-2.15.9H7.97c-.56 0-1-.45-1-1v-1.18c0-.8.31-1.56.87-2.13l5.41-5.42Zm.73 2.09l-4.74 4.73c-.19.18-.3.44-.3.7v.17h.15c.26 0 .52-.11.71-.31l4.69-4.82 -.54-.5Z"/><path fill="#3747D6" d="M1 3.5c0-.56.44-1 1-1h6c.33 0 .64.16.83.44l1.7 2.55h11.46c.55 0 1 .44 1 1v14c0 .55-.45 1-1 1h-20c-.56 0-1-.45-1-1v-17Zm2 1v15h18v-12H10c-.34 0-.65-.17-.84-.45L7.45 4.49H2.98Z"/></g></svg>