<svg viewBox="0 0 24 24" xmlns="http://www.w3.org/2000/svg"><g fill="#3747D6" fill-rule="evenodd"><path d="M3.73 6.82s0 0-.74.67 -.74.67-.74.67l0 0 0 0 .01.01c.01.01.02.02.04.04 .03.03.08.09.15.15 .13.13.32.32.57.54 .48.44 1.19 1.03 2.06 1.63 1.71 1.17 4.16 2.42 6.89 2.42 2.72 0 5.17-1.26 6.89-2.43 .86-.6 1.57-1.19 2.06-1.64 .24-.23.43-.42.57-.55 .06-.07.11-.13.15-.16 .01-.02.03-.04.04-.05l.01-.02 0-.01 0-.01c0-.01 0-.01-.74-.68 -.74-.68-.74-.68-.74-.68l-.01 0 -.03.03c-.03.02-.07.07-.13.12 -.12.11-.29.27-.5.47 -.44.39-1.08.93-1.85 1.46 -1.58 1.07-3.62 2.07-5.76 2.07 -2.14 0-4.19-1-5.76-2.08 -.78-.54-1.41-1.07-1.85-1.47 -.22-.2-.39-.37-.5-.48 -.06-.06-.1-.1-.13-.13l-.03-.04 -.01-.01Z"/><path d="M13 16.5V12h-2v4.5h2Z"/><path d="M5.2 14.7l3-3 -1.42-1.42 -3 3 1.41 1.41Z"/><path d="M18.79 14.7l-3-3 1.41-1.42 3 3 -1.42 1.41Z"/></g></svg>