<svg viewBox="0 0 24 24" xmlns="http://www.w3.org/2000/svg"><g fill="#9545ED" fill-rule="evenodd"><path d="M2.35 3.23c.22-.2.52-.28.81-.23l5.83.97 5.83-.98c.1-.02.22-.02.32 0l6 1c.48.08.83.49.83.98v15c0 .29-.13.57-.36.76 -.23.19-.53.27-.82.22l-5.84-.98 -5.84.97c-.11.01-.22.01-.33 0l-6-1c-.49-.09-.84-.5-.84-.99v-15c0-.3.12-.58.35-.77Zm13.64 14.91l4 .66V5.82l-4-.67v12.97Zm-2-12.98v12.97l-4 .66V5.81l4-.67Zm-6 .66l-4-.67v12.97l4 .66V5.8Z"/><path fill="#3747D6" d="M2.35 3.23c.22-.2.52-.28.81-.23l5.83.97 5.83-.98c.1-.02.22-.02.32 0l6 1c.48.08.83.49.83.98v15c0 .29-.13.57-.36.76 -.23.19-.53.27-.82.22l-5.84-.98 -5.84.97c-.11.01-.22.01-.33 0l-6-1c-.49-.09-.84-.5-.84-.99v-15c0-.3.12-.58.35-.77Zm1.64 1.94v12.97l5 .83 5.83-.98c.1-.02.22-.02.32 0l4.83.8V5.81l-5-.84 -5.84.97c-.11.01-.22.01-.33 0l-4.84-.81Z"/></g></svg>