<svg viewBox="0 0 24 24" xmlns="http://www.w3.org/2000/svg"><g fill="#3747D6" fill-rule="evenodd"><path d="M19 4c0-1.66-1.35-3-3-3H7C5.34 1 4 2.34 4 4v2.42c0 .33-.17.64-.45.83l-1.22.81C1.49 8.61.99 9.55.99 10.55v9.42c0 1.65 1.34 3 3 3h7v-2h-7c-.56 0-1-.45-1-1v-9.43c0-.34.16-.65.44-.84l1.21-.82c.83-.56 1.33-1.5 1.33-2.5V3.95c0-.56.44-1 1-1h9c.55 0 1 .44 1 1v4h2v-4Z"/><g fill="#9545ED"><path d="M7.5 8V4h2v4h-2Z"/><path d="M10.5 8V4h2v4h-2Z"/><path d="M13.5 8V4h2v4h-2Z"/><path d="M9 19.5H5v-2h4v2Z"/><path d="M16.5 12c-2.49 0-4.5 2.01-4.5 4.5 0 2.48 2.01 4.5 4.5 4.5 2.48 0 4.5-2.02 4.5-4.5 0-2.49-2.02-4.5-4.5-4.5ZM10 16.5c0-3.59 2.91-6.5 6.5-6.5 3.58 0 6.5 2.91 6.5 6.5 0 3.58-2.92 6.5-6.5 6.5 -3.59 0-6.5-2.92-6.5-6.5Z"/><path d="M17.56 18.97l-3.54-3.54 1.41-1.42 3.53 3.53 -1.42 1.41Z"/><path d="M18.97 15.43l-3.54 3.53 -1.42-1.42L17.54 14l1.41 1.41Z"/></g></g></svg>