<svg viewBox="0 0 24 24" xmlns="http://www.w3.org/2000/svg"><g fill="#3747D6" fill-rule="evenodd"><path d="M3 4c0-1.66 1.34-3 3-3h6.26c.71 0 1.4.25 1.95.72l2.43 2.08 -1.31 1.51 -2.44-2.09c-.19-.16-.42-.25-.66-.25H5.96c-.56 0-1 .44-1 1v12h-2v-12Zm15.65 4.16l-1.44-1.24 1.3-1.52 1.43 1.23c.66.56 1.04 1.4 1.04 2.27v11.08c0 1.65-1.35 3-3 3h-12c-1.66 0-3-1.35-3-3h2c0 .55.44 1 1 1h12c.55 0 1-.45 1-1V8.89c0-.3-.13-.57-.35-.76Z"/><g fill="#9545ED"><path d="M14.5 13H12v-2h2.5c1.65 0 3 1.34 3 3v3c0 1.65-1.35 3-3 3h-5c-1.66 0-3-1.35-3-3v-.5h2v.5c0 .55.44 1 1 1h5c.55 0 1-.45 1-1v-3c0-.56-.45-1-1-1Z"/><path d="M13 14.5V12h-2v7h2v-2.5h3.5v-2H13Z"/><path d="M1.29 21.29l20-20L22.7 2.7l-20 20 -1.42-1.42Z"/></g></g></svg>