<svg viewBox="0 0 24 24" xmlns="http://www.w3.org/2000/svg"><g fill="#3747D6" fill-rule="evenodd"><path d="M12.54 16.79c-.31-.3-.8-.3-1.093 0 -.3.29-.3.76 0 1.05 .3.29.79.29 1.093 0 .29-.3.29-.77 0-1.06Zm-2.5-1.43c1.08-1.07 2.827-1.07 3.907 0s1.08 2.82 0 3.89c-1.08 1.06-2.827 1.06-3.907 0 -1.09-1.08-1.09-2.83 0-3.9Z"/><path d="M16.29 15.55c-1.3-1.29-3.03-1.87-4.73-1.75l-.14-2c2.24-.16 4.54.61 6.26 2.32l-1.407 1.42Z"/><path d="M11.63 10.3c-2.34.08-4.65 1.01-6.44 2.77l-1.41-1.43c2.15-2.14 4.94-3.26 7.76-3.36l.07 1.99Zm7.16 2.77c-1.27-1.26-2.8-2.09-4.414-2.5l.48-1.94c1.95.49 3.8 1.49 5.33 3l-1.407 1.42Z"/><path d="M14.39 7.01c-4.12-.76-8.52.45-11.7 3.59L1.28 9.17c3.66-3.63 8.73-5.01 13.45-4.15l-.36 1.96Zm6.9 3.59C20 9.32 18.51 8.36 16.92 7.73l.74-1.86c1.83.73 3.54 1.83 5.03 3.3l-1.407 1.42Z"/><path fill="#9545ED" d="M2.3 20.28l18.18-18 1.407 1.42 -18.19 18 -1.41-1.43Z"/></g></svg>