<svg viewBox="0 0 24 24" xmlns="http://www.w3.org/2000/svg"><g fill="#3747D6" fill-rule="evenodd"><path d="M1 5.5c0-1.66 1.34-3 3-3h14.5c1.65 0 3 1.34 3 3v4.04h-2V5.49c0-.56-.45-1-1-1H4c-.56 0-1 .44-1 1v9c0 .55.44 1 1 1h5.5v2H4c-1.66 0-3-1.35-3-3v-9Z"/><path d="M20.5 8.5h-18v-2h18v2Z"/><g fill="#9545ED"><path d="M6 11c-.28 0-.5.22-.5.5 0 .27.22.5.5.5 .27 0 .5-.23.5-.5 0-.28-.23-.5-.5-.5Zm-2.5.5C3.5 10.11 4.61 9 6 9c1.38 0 2.5 1.11 2.5 2.5C8.5 12.88 7.38 14 6 14c-1.39 0-2.5-1.12-2.5-2.5Z"/><path d="M9 11c-.28 0-.5.22-.5.5 0 .27.22.5.5.5 .27 0 .5-.23.5-.5 0-.28-.23-.5-.5-.5Zm-2.5.5C6.5 10.11 7.61 9 9 9c1.38 0 2.5 1.11 2.5 2.5 0 1.38-1.12 2.5-2.5 2.5 -1.39 0-2.5-1.12-2.5-2.5Z"/></g><path d="M17 11.5c-2.21 0-4 1.79-4 4 0 2.2 1.79 4 4 4 2.2 0 4-1.8 4-4 0-2.21-1.8-4-4-4Zm-6 4c0-3.32 2.68-6 6-6 3.31 0 6 2.68 6 6 0 3.31-2.69 6-6 6 -3.32 0-6-2.69-6-6Z"/><path fill="#9545ED" d="M19.76 14.14l-2.5 3c-.18.21-.45.34-.73.35 -.29.01-.56-.1-.76-.3l-1.5-1.5 1.41-1.42 .72.72 1.79-2.16 1.53 1.28Z"/></g></svg>