<svg viewBox="0 0 24 24" xmlns="http://www.w3.org/2000/svg"><g fill="#9545ED" fill-rule="evenodd"><path d="M17 8c-.56 0-1 .44-1 1 0 .55.44 1 1 1 .55 0 1-.45 1-1 0-.56-.45-1-1-1Zm-3 1c0-1.66 1.34-3 3-3 1.65 0 3 1.34 3 3 0 1.65-1.35 3-3 3 -1.66 0-3-1.35-3-3Z"/><path d="M7.29 10.29c.27-.28.67-.37 1.04-.24l14 5c.39.14.66.51.66.94v2c0 1.65-1.35 3-3 3h-16c-1.66 0-3-1.35-3-3v-1c0-.27.1-.52.29-.71l6-6Zm.96 1.86L2.99 17.4v.58c0 .55.44 1 1 1h16c.55 0 1-.45 1-1v-1.3L8.24 12.12Z"/><path fill="#3747D6" d="M1 6c0-1.66 1.34-3 3-3h16c1.65 0 3 1.34 3 3v12c0 1.65-1.35 3-3 3H4c-1.66 0-3-1.35-3-3V6Zm3-1c-.56 0-1 .44-1 1v12c0 .55.44 1 1 1h16c.55 0 1-.45 1-1V6c0-.56-.45-1-1-1H4Z"/></g></svg>