<svg viewBox="0 0 24 24" xmlns="http://www.w3.org/2000/svg"><g fill="#3747D6" fill-rule="evenodd"><path d="M6 3c-.56 0-1 .44-1 1v16c0 .55.44 1 1 1h12c.55 0 1-.45 1-1V8.91c0-.3-.13-.57-.35-.76l-5.74-4.92c-.19-.16-.42-.25-.66-.25H5.98ZM3 4c0-1.66 1.34-3 3-3h6.26c.71 0 1.4.25 1.95.72l5.73 4.91c.66.56 1.04 1.4 1.04 2.27v11.08c0 1.65-1.35 3-3 3h-12c-1.66 0-3-1.35-3-3v-16Z"/><g fill="#9545ED"><path d="M6.5 14c0-1.66 1.34-3 3-3h5c1.65 0 3 1.34 3 3v3c0 1.65-1.35 3-3 3h-5c-1.66 0-3-1.35-3-3v-3Zm3-1c-.56 0-1 .44-1 1v3c0 .55.44 1 1 1h5c.55 0 1-.45 1-1v-3c0-.56-.45-1-1-1h-5Z"/><path d="M13 14.5V12h-2v7h2v-2.5h3.5v-2H13Z"/></g></g></svg>