<svg viewBox="0 0 24 24" xmlns="http://www.w3.org/2000/svg"><g fill="#3747D6" fill-rule="evenodd"><path d="M1 4c0-.56.44-1 1-1h18c.55 0 1 .44 1 1v5.5h-2V5H3v14h6v2H2c-.56 0-1-.45-1-1V4Z"/><g fill="#9545ED"><path d="M17 13c-2.21 0-4 1.79-4 4 0 2.2 1.79 4 4 4 2.2 0 4-1.8 4-4 0-2.21-1.8-4-4-4Zm-6 4c0-3.32 2.68-6 6-6 3.31 0 6 2.68 6 6 0 3.31-2.69 6-6 6 -3.32 0-6-2.69-6-6Z"/><path d="M15.5 17.5v-3h2v2h2v2h-3c-.56 0-1-.45-1-1Z"/></g><path d="M2 7h18v2H2V7Z"/><g fill="#9545ED"><path d="M5 5.5V2h2v3.5H5Z"/><path d="M15 5.5V2h2v3.5h-2Z"/></g></g></svg>