<svg viewBox="0 0 24 24" xmlns="http://www.w3.org/2000/svg"><g fill="#9545ED" fill-rule="evenodd"><path d="M13 12v8h-2v-8h2Z"/><path d="M11.29 11.29c.39-.4 1.02-.4 1.41 0l3 3 -1.42 1.41 -2.3-2.3 -2.3 2.29 -1.42-1.42 2.99-3Z"/><path fill="#3747D6" d="M11.06 4c-2.7 0-4.94 2.27-4.94 5.17 0 .09 0 .18 0 .27 .01.27-.09.54-.28.73 -.19.19-.46.31-.73.31H5.1c-1.137 0-2.125.97-2.125 2.25s.988 2.25 2.125 2.25h1.875v2H5.1c-2.32 0-4.13-1.95-4.13-4.25 0-1.98 1.31-3.68 3.14-4.14 .27-3.68 3.23-6.62 6.91-6.62 2.45 0 4.58 1.31 5.81 3.26 .14-.02.28-.02.43-.02 3.17 0 5.68 2.66 5.68 5.875 0 2.48-1.5 4.63-3.66 5.48 -.53.24-1.11.38-1.73.38h-.625v-2h.625c.31 0 .61-.08.88-.21 .02-.02.05-.03.07-.04 1.39-.54 2.41-1.96 2.41-3.64 0-2.18-1.69-3.875-3.69-3.875 -.26 0-.52.02-.76.08 -.45.09-.91-.13-1.11-.54 -.84-1.68-2.5-2.8-4.39-2.8Z"/></g></svg>