<svg viewBox="0 0 24 24" xmlns="http://www.w3.org/2000/svg"><g fill-rule="evenodd"><path d="M4.25 16c0-.42.33-.75.75-.75h14c.41 0 .75.33.75.75 0 .8-.17 1.57-.46 2.28 -.16.38-.6.56-.98.4 -.39-.16-.57-.6-.41-.98 .12-.31.22-.64.27-.97H5.79c.42 2.47 2.94 4.5 6.18 4.5 .97 0 1.89-.19 2.71-.53 .38-.16.82.02.97.41 .15.38-.03.82-.42.97 -1 .4-2.12.63-3.29.63 -4.17 0-7.75-2.92-7.75-6.75Z"/><path d="M1.45 7.48c.24-.26.63-.32.93-.14l4.47 2.68c.4.24.77.53 1.1.86l4.56 4.56c.21.21.27.53.16.81 -.12.28-.39.46-.7.46h-6c-.37 0-.68-.27-.74-.63l-.32-1.89c-.11-.63-.35-1.22-.72-1.74L1.33 8.37c-.21-.3-.18-.69.06-.95Zm3.18 2.96l.83 1.18c.49.7.82 1.5.96 2.35l.2 1.25h3.55l-3.29-3.29c-.25-.25-.53-.47-.82-.64l-1.46-.88Z"/><path d="M22.54 7.48c-.25-.26-.64-.32-.94-.14l-4.48 2.68c-.41.24-.78.53-1.11.86l-4.57 4.56c-.22.21-.28.53-.17.81 .11.28.38.46.69.46h6c.36 0 .67-.27.73-.63l.31-1.89c.1-.63.34-1.22.71-1.74l2.85-4.08c.2-.3.17-.69-.07-.95Zm-3.19 2.96l-.84 1.18c-.5.7-.83 1.5-.97 2.35l-.21 1.25h-3.56l3.28-3.29c.24-.25.52-.47.81-.64l1.45-.88Z"/><path d="M16.06 3.25c.34.03.62.29.67.64l1 7c.03.23-.05.46-.22.63l-5 5c-.25.24-.63.29-.93.1 -.3-.19-.43-.55-.32-.88l4-12.01c.11-.33.43-.55.77-.51Zm-2.36 9.97l2.48-2.49 -.5-3.49 -2 5.97Z"/><path d="M7.93 3.25c-.35.03-.63.29-.68.64l-1 7c-.04.23.04.46.21.63l5 5c.24.24.62.29.92.1 .29-.19.42-.55.31-.88l-4-12.01c-.11-.33-.44-.55-.78-.51Zm2.35 9.97l-2.49-2.49 .49-3.49 1.99 5.97Z"/><path d="M12 1.25c.33 0 .63.22.72.55l2 7.5c.1.4-.14.81-.54.91 -.41.1-.82-.14-.92-.54l-1.28-4.79 -1.28 4.78c-.11.4-.52.63-.92.53 -.41-.11-.64-.52-.54-.92l1.99-7.5c.08-.33.38-.56.72-.56Z"/></g></svg>