<svg viewBox="0 0 24 24" xmlns="http://www.w3.org/2000/svg"><g fill-rule="evenodd"><path d="M8.4 17.53c.14-.19.36-.29.59-.29h5.99c.23 0 .44.1.59.28 .14.18.19.41.13.64l-1 4c-.09.33-.39.56-.73.56h-4c-.35 0-.65-.24-.73-.57l-1-4c-.06-.23-.01-.47.13-.65Zm1.55 1.21l.62 2.5h2.82l.625-2.5h-4.08Z"/><path d="M12.55 1.49l-.56.5 -.56-.51c.14-.16.34-.25.55-.25 .21 0 .41.09.55.24Zm-.56 5.5c-.56.5-.56.5-.56.5l-.01-.01 -.01-.01 -.02-.02c-.02-.02-.03-.04-.06-.06 -.05-.06-.11-.13-.19-.22 -.15-.18-.35-.43-.55-.71 -.2-.28-.41-.6-.58-.92 -.16-.3-.32-.69-.32-1.09 0-.4.16-.79.31-1.09 .16-.32.37-.64.57-.92 .2-.28.39-.53.54-.71 .07-.09.13-.17.18-.22 .02-.03.03-.05.05-.06l.01-.02 0-.01 0-.01c0-.01 0-.01.55.5 .55-.51.55-.51.55-.51l0 0 0 0 .01.01c.01.01.03.03.05.05 .04.05.1.12.18.21 .14.17.34.42.54.7 .19.27.4.59.57.91 .15.29.31.68.31 1.08 0 .39-.17.78-.32 1.08 -.17.31-.38.63-.58.91 -.21.27-.4.52-.55.7 -.08.08-.14.16-.19.21 -.03.02-.04.04-.06.05l-.02.01 -.01 0 -.01 0c-.01 0-.01 0-.56-.51Zm0 0l-.56.5c.14.15.34.24.55.24 .21 0 .41-.1.55-.25l-.56-.51Zm0-1.19c.04-.07.09-.13.14-.2 .17-.25.34-.5.45-.73 .05-.12.09-.21.12-.29 .02-.08.02-.11.02-.12 -.01-.01-.01-.04-.03-.12 -.03-.08-.07-.18-.13-.29 -.12-.23-.29-.49-.46-.73 -.05-.07-.1-.13-.15-.2 -.05.06-.1.12-.15.19 -.18.24-.35.49-.46.72 -.06.11-.1.2-.13.28 -.03.07-.03.1-.03.11 0 0 0 .03.02.11 .02.07.06.17.12.28 .11.22.28.48.45.72 .04.06.09.12.14.19Z"/><path d="M12.55 6.49l-.56.5 -.56-.51c.14-.16.34-.25.55-.25 .21 0 .41.09.55.24Zm-.56 5.5c-.56.5-.56.5-.56.5l-.01-.01 -.01-.01 -.02-.02c-.02-.02-.03-.04-.06-.06 -.05-.06-.11-.13-.19-.22 -.15-.18-.35-.43-.55-.71 -.2-.28-.41-.6-.58-.92 -.16-.3-.32-.69-.32-1.09 0-.4.16-.79.31-1.09 .16-.32.37-.64.57-.92 .2-.28.39-.53.54-.71 .07-.09.13-.17.18-.22 .02-.03.03-.05.05-.06l.01-.02 0-.01 0-.01c0-.01 0-.01.55.5 .55-.51.55-.51.55-.51l0 0 0 0 .01.01c.01.01.03.03.05.05 .04.05.1.12.18.21 .14.17.34.42.54.7 .19.27.4.59.57.91 .15.29.31.68.31 1.08 0 .39-.17.78-.32 1.08 -.17.31-.38.63-.58.91 -.21.27-.4.52-.55.7 -.08.08-.14.16-.19.21 -.03.02-.04.04-.06.05l-.02.01 -.01 0 -.01 0c-.01 0-.01 0-.56-.51Zm0 0l-.56.5c.14.15.34.24.55.24 .21 0 .41-.1.55-.25l-.56-.51Zm0-1.19c.04-.07.09-.13.14-.2 .17-.25.34-.5.45-.73 .05-.12.09-.21.12-.29 .02-.08.02-.11.02-.12 -.01-.01-.01-.04-.03-.12 -.03-.08-.07-.18-.13-.29 -.12-.23-.29-.49-.46-.73 -.05-.07-.1-.13-.15-.2 -.05.06-.1.12-.15.19 -.18.24-.35.49-.46.72 -.06.11-.1.2-.13.28 -.03.07-.03.1-.03.11 0 0 0 .03.02.11 .02.07.06.17.12.28 .11.22.28.48.45.72 .04.06.09.12.14.19Z"/><path d="M12 7l-.51.55c-.16-.15-.25-.35-.25-.56 0-.22.09-.42.24-.56l.5.55Zm5 0l.5.55c.15-.15.24-.35.24-.56 0-.22-.1-.42-.25-.56l-.51.55Zm-3.82 0c.06.04.12.09.19.14 .24.17.49.34.72.45 .11.05.2.09.28.12 .07.02.1.02.11.02 0-.01.03-.01.11-.03 .07-.03.17-.07.28-.13 .22-.12.48-.29.72-.46 .06-.05.12-.1.19-.15 -.07-.05-.13-.1-.2-.15 -.25-.18-.5-.35-.73-.46 -.12-.06-.21-.1-.29-.13 -.08-.03-.11-.03-.12-.03 -.01 0-.04 0-.12.02 -.08.02-.18.06-.29.12 -.23.11-.49.28-.73.45 -.07.04-.13.09-.2.14Zm.23-1.94c.29-.16.68-.32 1.08-.32 .39 0 .78.16 1.08.31 .31.16.63.37.91.57 .27.2.52.39.7.54 .08.07.16.13.21.18 .02.02.04.03.05.05l.01.01 0 0 0 0s0 0-.51.55c.5.55.5.55.5.55l-.01 0 -.01 0 -.02.01c-.02.01-.04.03-.06.05 -.06.04-.13.1-.22.18 -.18.14-.43.34-.71.54 -.28.19-.6.4-.92.57 -.3.15-.69.31-1.09.31 -.4 0-.79-.17-1.09-.32 -.32-.17-.64-.38-.92-.58 -.28-.21-.53-.4-.71-.55 -.09-.08-.17-.14-.22-.19 -.03-.03-.05-.04-.06-.06l-.02-.02 -.01-.01 -.01-.01c0-.01-.01-.01.5-.56 -.51-.56-.51-.56-.51-.56l0-.01 0-.01 .01-.02c.01-.02.03-.04.05-.06 .05-.05.12-.11.21-.19 .17-.15.42-.35.7-.55 .27-.2.59-.41.91-.58Z"/><path d="M7 7l-.51.55c-.16-.15-.25-.35-.25-.56 0-.22.09-.42.24-.56l.5.55Zm5 0l.5.55c.15-.15.24-.35.24-.56 0-.22-.1-.42-.25-.56l-.51.55ZM8.18 7c.06.04.12.09.19.14 .24.17.49.34.72.45 .11.05.2.09.28.12 .07.02.1.02.11.02 0-.01.03-.01.11-.03 .07-.03.17-.07.28-.13 .22-.12.48-.29.72-.46 .06-.05.12-.1.19-.15 -.07-.05-.13-.1-.2-.15 -.25-.18-.5-.35-.73-.46 -.12-.06-.21-.1-.29-.13 -.08-.03-.11-.03-.12-.03 -.01 0-.04 0-.12.02 -.08.02-.18.06-.29.12 -.23.11-.49.28-.73.45 -.07.04-.13.09-.2.14Zm.23-1.94c.29-.16.68-.32 1.08-.32 .39 0 .78.16 1.08.31 .31.16.63.37.91.57 .27.2.52.39.7.54 .08.07.16.13.21.18 .02.02.04.03.05.05l.01.01 0 0 0 0s0 0-.51.55c.5.55.5.55.5.55l-.01 0 -.01 0 -.02.01c-.02.01-.04.03-.06.05 -.06.04-.13.1-.22.18 -.18.14-.43.34-.71.54 -.28.19-.6.4-.92.57 -.3.15-.69.31-1.09.31 -.4 0-.79-.17-1.09-.32 -.32-.17-.64-.38-.92-.58 -.28-.21-.53-.4-.71-.55 -.09-.08-.17-.14-.22-.19 -.03-.03-.05-.04-.06-.06l-.02-.02 -.01-.01 -.01-.01c-.01-.01-.01-.01.5-.56 -.51-.56-.51-.56-.51-.56l0-.01 0-.01 .01-.02c.01-.02.03-.04.05-.06 .05-.05.12-.11.21-.19 .17-.15.42-.35.7-.55 .27-.2.59-.41.91-.58Z"/><path d="M16.48 11.42c.24.21.33.55.2.86l-.625 1.5c-.16.38-.6.56-.99.4 -.22-.09-.37-.27-.43-.47l-1.91 1.19v2.33h.25l.22-.54c.15-.39.59-.57.98-.41 .38.15.56.59.4.98l-.42.99c-.12.27-.39.46-.7.46h-1.51c-.42 0-.75-.34-.75-.75v-3.5c0-.26.13-.5.35-.64l4-2.5c.27-.18.63-.15.88.06Z"/><path d="M7.51 11.42c-.25.21-.34.55-.21.86l2.5 5.99c.11.27.38.46.69.46h1.5c.41 0 .75-.34.75-.75v-3.5c0-.26-.14-.5-.36-.64l-4.01-2.5c-.28-.18-.64-.15-.89.06Zm3.73 3.48v2.33h-.26l-1.41-3.37 1.65 1.03Z"/><path d="M12 10.75c.41 0 .75.33.75.75V18c0 .41-.34.75-.75.75 -.42 0-.75-.34-.75-.75v-6.5c0-.42.33-.75.75-.75Z"/></g></svg>