<svg viewBox="0 0 24 24" xmlns="http://www.w3.org/2000/svg"><g fill-rule="evenodd"><path d="M5.39 17.55c.14-.2.36-.31.6-.31h11.99c.23 0 .46.11.6.3 .14.19.18.43.11.66l-1.2 4c-.1.31-.39.53-.72.53h-9.6c-.34 0-.63-.22-.72-.54l-1.2-4c-.07-.23-.03-.48.11-.67Zm1.6 1.19l.75 2.5h8.48l.75-2.5H6.98Z"/><path d="M17.43 1.39c.19.14.31.36.31.6v1.82l.42.84c.1.21.1.45 0 .67l-.43.84V8.8l.42.84c.1.21.1.45 0 .67l-.43.84v2.64l.42.84c.1.21.1.45 0 .67l-.43.84v1.82c0 .41-.34.75-.75.75h-3c-.42 0-.75-.34-.75-.75v-1.83l-.43-.85c-.11-.22-.11-.46 0-.68l.42-.85V11.1l-.43-.85c-.11-.22-.11-.46 0-.68l.5-1c.18-.38.63-.53 1-.34 .37.18.52.63.33 1l-.34.66 .33.66c.05.1.07.21.07.33v3c0 .11-.03.23-.08.33l-.34.66 .33.66c.05.1.07.21.07.33v1.25h1.5v-1.25c0-.12.02-.24.07-.34l.33-.67 -.34-.67c-.06-.11-.08-.22-.08-.34v-3c0-.12.02-.24.07-.34l.33-.67 -.34-.67c-.06-.11-.08-.22-.08-.34v-3c0-.12.02-.24.07-.34l.33-.67 -.34-.67c-.06-.11-.08-.22-.08-.34v-.96l-1.5.5v.45c0 .11-.03.23-.08.33l-.34.66 .33.66c.18.37.03.82-.34 1 -.38.18-.83.03-1.01-.34l-.5-1c-.11-.22-.11-.46 0-.68l.42-.85v-.83c0-.33.2-.61.51-.72l3-1c.22-.08.48-.04.67.1Z"/><path d="M6.56 5.39c.19-.15.44-.18.67-.11l3 1c.3.1.51.38.51.71v1.82l.42.84c.1.21.1.45 0 .67l-.43.84v2.64l.42.84c.1.21.1.45 0 .67l-.5 1c-.19.37-.64.52-1.01.33 -.38-.19-.53-.64-.34-1.01l.33-.67 -.34-.67c-.06-.11-.08-.22-.08-.34v-3c0-.12.02-.24.07-.34l.33-.67 -.34-.67c-.06-.11-.08-.22-.08-.34V7.47l-1.5-.51v1.95c0 .11-.03.23-.08.33l-.34.66 .33.66c.05.1.07.21.07.33v3c0 .11-.03.23-.08.33l-.34.66 .33.66c.05.1.07.21.07.33v1.25H9.9c.41 0 .75.33.75.75 0 .41-.34.75-.75.75h-3c-.42 0-.75-.34-.75-.75v-1.83l-.43-.85c-.11-.22-.11-.46 0-.68l.42-.85v-2.65l-.43-.85c-.11-.22-.11-.46 0-.68l.42-.85V5.8c0-.25.11-.47.31-.61Z"/><path d="M16.75 9c0-1.52 1.23-2.75 2.75-2.75h2c.41 0 .75.33.75.75v1c0 1.51-1.24 2.75-2.75 2.75h-2c-.42 0-.75-.34-.75-.75V9Zm2.75-1.25c-.7 0-1.25.55-1.25 1.25v.25h1.25c.69 0 1.25-.56 1.25-1.25v-.25H19.5Z"/><path d="M7.25 14c0-1.52-1.24-2.75-2.75-2.75h-2c-.42 0-.75.33-.75.75v1c0 1.51 1.23 2.75 2.75 2.75h2c.41 0 .75-.34.75-.75v-1ZM4.5 12.75c.69 0 1.25.55 1.25 1.25v.25H4.5c-.7 0-1.25-.56-1.25-1.25v-.25H4.5Z"/></g></svg>