<svg viewBox="0 0 24 24" xmlns="http://www.w3.org/2000/svg"><g fill-rule="evenodd"><path d="M5.25 14c0-.42.33-.75.75-.75h12c.41 0 .75.33.75.75v3c0 .41-.34.75-.75.75H6c-.42 0-.75-.34-.75-.75v-3Zm1.5.75v1.5h10.5v-1.5H6.75Z"/><path d="M6.37 16.57c.13-.21.37-.33.62-.33h10c.24 0 .48.12.62.32 .13.2.16.46.07.69l-2 5c-.12.28-.39.47-.7.47h-6c-.31 0-.59-.19-.7-.48l-2-5c-.1-.24-.07-.5.07-.7Zm1.72 1.17l1.4 3.5h4.98l1.4-3.5H8.08Z"/><path d="M8.25 4.5c0-1.8 1.45-3.25 3.25-3.25h1c1.79 0 3.25 1.45 3.25 3.25V14c0 .41-.34.75-.75.75H9c-.42 0-.75-.34-.75-.75v-1.5c0-.42.33-.75.75-.75 .41 0 .75.33.75.75v.75h4.5V4.5c0-.97-.79-1.75-1.75-1.75h-1c-.97 0-1.75.78-1.75 1.75v4c0 .41-.34.75-.75.75 -.42 0-.75-.34-.75-.75v-4Z"/><path d="M4.25 5.17c0-1.56 1.63-2.57 3.02-1.88l2.05 1.02c.25.12.41.38.41.67v3c0 .25-.14.5-.36.63 -.23.13-.5.14-.73.03L5.38 7.01c-.71-.36-1.16-1.08-1.16-1.88Zm2.35-.53c-.4-.2-.86.08-.86.52 0 .22.12.42.32.52l2.17 1.08V5.43L6.58 4.6Z"/><path d="M19.75 8.17c0-1.56-1.64-2.57-3.03-1.88l-2.06 1.02c-.26.12-.42.38-.42.67v3c0 .25.13.5.35.63 .22.13.49.14.72.03l3.25-1.63c.7-.36 1.15-1.08 1.15-1.88Zm-2.36-.53c.39-.2.85.08.85.52 0 .22-.13.42-.33.52l-2.18 1.08V8.43l1.64-.83Z"/></g></svg>