<svg viewBox="0 0 24 24" xmlns="http://www.w3.org/2000/svg"><g fill-rule="evenodd"><path d="M17.26 10.29c.29.11.48.38.48.7v9c0 1.51-1.24 2.75-2.75 2.75h-3c-1.52 0-2.75-1.24-2.75-2.75v-1.15c0-.19.06-.37.19-.5l6.99-7.86c.2-.24.53-.32.82-.21Zm-6.52 8.84v.85c0 .69.55 1.25 1.25 1.25h3c.69 0 1.25-.56 1.25-1.25v-7.04l-5.5 6.17Z"/><path d="M3.25 9c0-2.08 1.67-3.75 3.75-3.75h14c.28 0 .55.16.67.42 .12.25.08.56-.1.79l-4 4.99c-.01 0-.02.01-.03.02l-7 8c-.23.25-.6.32-.9.17l-4.35-2.18c-1.28-.64-2.08-1.94-2.08-3.36v-.65c0-.42.33-.75.75-.75 .41 0 .75.33.75.75v.64c0 .85.48 1.63 1.24 2.01l3.82 1.91 6.6-7.56 3.01-3.77H6.94c-1.25 0-2.25 1-2.25 2.25v.5c0 .41-.34.75-.75.75 -.42 0-.75-.34-.75-.75v-.5Z"/><path d="M7.77 1.286c.39-.13.81.09.94.48l4.49 13.99c.12.39-.1.81-.49.94 -.4.12-.82-.1-.95-.49l-4.51-14c-.13-.4.09-.82.48-.95Z"/></g></svg>