<svg viewBox="0 0 24 24" xmlns="http://www.w3.org/2000/svg"><g fill-rule="evenodd"><path d="M2.07 1.25l-.08.74 -.75.07c-.03-.23.05-.45.21-.61 .15-.16.37-.24.6-.22Zm.77 1.59c.08 0 .16.01.25.03 .73.09 1.77.22 2.96.41 2.38.38 5.33.97 7.68 1.79 .39.13.81-.08.95-.47 .13-.4-.08-.82-.47-.96 -2.49-.87-5.54-1.48-7.95-1.86 -1.21-.2-2.27-.34-3.02-.43 -.38-.05-.68-.09-.89-.11 -.11-.02-.19-.02-.24-.03l-.07-.01 -.02-.01 -.01-.01c-.01-.01 0 0-.08.74 -.75.07-.75.07-.75.07l0 .01 0 .02 .01.1c0 .09.02.23.04.4 .03.35.1.85.18 1.47 .16 1.23.41 2.91.76 4.69 .35 1.77.8 3.67 1.37 5.33 .55 1.63 1.26 3.14 2.17 4.05 .92.92 2.33 1.51 3.81 1.9 1.5.39 3.18.61 4.73.73 1.55.11 3.01.13 4.08.12 .53-.01.96-.02 1.27-.03 .15-.01.27-.02.35-.02l.09-.01 .02-.01 0-.01 0-.01s0 0-.05-.75l.04.74c.37-.03.68-.33.7-.71l-.75-.05c.74.04.74.04.74.04l0-.01 0-.01 0-.03 0-.1c0-.09 0-.21.01-.36 .01-.31.02-.75.02-1.28 0-1.07-.01-2.53-.13-4.09 -.12-1.56-.34-3.24-.74-4.74 -.4-1.49-.99-2.9-1.91-3.82 -.3-.3-.77-.3-1.07 0 -.3.29-.3.76 0 1.06 .63.63 1.14 1.73 1.51 3.13 .36 1.38.57 2.96.69 4.46 .11 1.5.13 2.91.125 3.95 -.01.39-.02.73-.02 1 -.27 0-.61.01-1.01.01 -1.04 0-2.45-.01-3.96-.13 -1.51-.12-3.09-.33-4.47-.7 -1.41-.38-2.5-.88-3.14-1.52 -.66-.66-1.27-1.89-1.82-3.48 -.54-1.57-.98-3.4-1.32-5.14 -.35-1.75-.6-3.4-.76-4.61 -.06-.41-.1-.77-.14-1.06Z"/><path d="M1.46 1.46c.29-.3.76-.3 1.06 0l19.99 20c.29.29.29.76 0 1.06 -.3.29-.77.29-1.07 0l-20.01-20c-.3-.3-.3-.77-.001-1.07Z"/><path d="M17 11.25c.41 0 .75.33.75.75v5c0 .41-.34.75-.75.75h-5c-.42 0-.75-.34-.75-.75 0-.42.33-.75.75-.75h4.25V12c0-.42.33-.75.75-.75Z"/><path d="M14 8.25c.41 0 .75.33.75.75v5c0 .41-.34.75-.75.75H9c-.42 0-.75-.34-.75-.75 0-.42.33-.75.75-.75h4.25V9c0-.42.33-.75.75-.75Z"/><path d="M11 5.25c.41 0 .75.33.75.75v5c0 .41-.34.75-.75.75H6c-.42 0-.75-.34-.75-.75 0-.42.33-.75.75-.75h4.25V6c0-.42.33-.75.75-.75Z"/></g></svg>