<svg viewBox="0 0 24 24" xmlns="http://www.w3.org/2000/svg"><g fill-rule="evenodd"><path d="M14.42 15.51c.14-.17.35-.27.57-.27h7c.22 0 .42.09.57.26 .14.16.2.39.16.6l-1 6c-.07.36-.38.62-.74.62h-5c-.37 0-.68-.27-.74-.63l-1-6c-.04-.22.02-.44.16-.61Zm1.45 1.23l.75 4.5h3.72l.75-4.5h-5.23Z"/><path d="M16 1.25c.25 0 .48.12.62.33l1.77 2.66h1.59c.27 0 .53.15.66.39 .13.24.11.53-.04.76l-1.41 2.1c-.52.76-1.37 1.22-2.29 1.22h-1.86c-.92 0-1.78-.46-2.29-1.23l-1.41-2.11c-.16-.24-.17-.53-.04-.77 .13-.25.38-.4.66-.4h1.59l1.77-2.67c.13-.21.37-.34.62-.34Zm0 2.1l-1.38 2.06c-.14.2-.38.33-.63.33h-.6l.62.94c.23.34.62.55 1.04.55h1.85c.41 0 .8-.21 1.04-.56l.62-.95h-.6c-.26 0-.49-.13-.63-.34l-1.38-2.07Z"/><path d="M15.81 7.27c.38-.1.77.12.89.5l.625 2c.12.39-.1.81-.5.93s-.82-.1-.94-.5l-.42-1.33 -6.65 1.66 .69 4.17 3.53-2.36c.34-.23.81-.14 1.04.2 .22.34.13.81-.21 1.04l-4.5 3c-.22.14-.49.16-.72.06 -.24-.11-.4-.32-.45-.57l-1-6c-.07-.39.17-.76.55-.86l8-2Zm1.83 6.01c.39-.13.81.09.93.49l.625 2c.12.39-.1.81-.5.93s-.82-.1-.94-.5l-.63-2c-.13-.4.09-.82.49-.94Z"/><path d="M1.25 10c0-.26.12-.49.33-.63l2.66-1.78v-1.6c0-.28.15-.54.39-.67 .24-.14.53-.12.76.03l2.1 1.4c.76.51 1.22 1.36 1.22 2.28v1.85c0 .91-.46 1.77-1.23 2.28l-2.11 1.4c-.24.15-.53.16-.77.03 -.25-.14-.4-.39-.4-.67v-1.6l-2.67-1.78c-.21-.14-.34-.38-.34-.63Zm2.1 0l2.06 1.37c.2.13.33.37.33.62v.59l.94-.63c.34-.24.55-.63.55-1.05V9.04c0-.42-.21-.81-.56-1.05l-.95-.63v.59c0 .25-.13.48-.34.62L3.31 9.94Z"/><path d="M9 22.75c.25 0 .48-.13.62-.34l1.77-2.67h1.59c.27 0 .53-.16.66-.4 .13-.25.11-.54-.04-.77l-1.41-2.11c-.52-.77-1.37-1.23-2.29-1.23H8.04c-.92 0-1.78.45-2.29 1.22l-1.41 2.1c-.16.23-.17.52-.04.76s.38.39.66.39h1.59l1.77 2.66c.13.2.37.33.62.33Zm0-2.11l-1.38-2.07c-.14-.21-.38-.34-.63-.34h-.6l.62-.95c.23-.35.62-.56 1.04-.56H9.9c.41 0 .8.2 1.04.55l.62.94h-.6c-.26 0-.49.12-.63.33L8.95 20.6Z"/></g></svg>