<svg viewBox="0 0 24 24" xmlns="http://www.w3.org/2000/svg"><g fill-rule="evenodd"><path d="M7.4 17.53c.14-.19.36-.29.59-.29h7.99c.23 0 .44.1.59.28 .14.18.19.41.13.64l-1 4c-.09.33-.39.56-.73.56h-6c-.35 0-.65-.24-.73-.57l-1-4c-.06-.23-.01-.47.13-.65Zm1.55 1.21l.625 2.5h4.82l.625-2.5H8.94Z"/><path d="M12 7.25c.41 0 .75.33.75.75v4c0 .41-.34.75-.75.75 -.42 0-.75-.34-.75-.75V8c0-.42.33-.75.75-.75Zm0 8c.41 0 .75.33.75.75v2c0 .41-.34.75-.75.75 -.42 0-.75-.34-.75-.75v-2c0-.42.33-.75.75-.75Z"/><path d="M12 5.75c-.42 0-.75.33-.75.75 0 .41.33.75.75.75 .41 0 .75-.34.75-.75 0-.42-.34-.75-.75-.75Zm-2.25.75c0-1.25 1-2.25 2.25-2.25 1.24 0 2.25 1 2.25 2.25 0 1.24-1.01 2.25-2.25 2.25 -1.25 0-2.25-1.01-2.25-2.25Z"/><path d="M12 1.25c.41 0 .75.33.75.75v3c0 .41-.34.75-.75.75 -.42 0-.75-.34-.75-.75V2c0-.42.33-.75.75-.75Z"/><path d="M12 7.25c.41 0 .75.33.75.75v3c0 .41-.34.75-.75.75 -.42 0-.75-.34-.75-.75V8c0-.42.33-.75.75-.75Z"/><path d="M12.75 6.5c0-.42.33-.75.75-.75h3c.41 0 .75.33.75.75 0 .41-.34.75-.75.75h-3c-.42 0-.75-.34-.75-.75Z"/><path d="M6.75 6.5c0-.42.33-.75.75-.75h3c.41 0 .75.33.75.75 0 .41-.34.75-.75.75h-3c-.42 0-.75-.34-.75-.75Z"/><path d="M12.53 5.96c-.3-.3-.3-.77 0-1.07l2.12-2.13c.29-.3.76-.3 1.06 0 .29.29.29.76 0 1.06l-2.13 2.12c-.3.29-.77.29-1.07 0Z"/><path d="M8.28 10.21c-.3-.3-.3-.77 0-1.07l2.12-2.13c.29-.3.76-.3 1.06 0 .29.29.29.76 0 1.06l-2.13 2.12c-.3.29-.77.29-1.07 0Z"/><path d="M11.46 5.96c.29-.3.29-.77 0-1.07L9.33 2.76c-.3-.3-.77-.3-1.07 0 -.3.29-.3.76 0 1.06l2.12 2.12c.29.29.76.29 1.06 0Z"/><path d="M15.71 10.21c.29-.3.29-.77 0-1.07l-2.13-2.13c-.3-.3-.77-.3-1.07 0 -.3.29-.3.76 0 1.06l2.12 2.12c.29.29.76.29 1.06 0Z"/><path d="M10.25 14.5c0-1.52-1.24-2.75-2.75-2.75h-3c-.42 0-.75.33-.75.75v1c0 1.51 1.23 2.75 2.75 2.75h3c.41 0 .75-.34.75-.75v-1ZM7.5 13.25c.69 0 1.25.55 1.25 1.25v.25H6.5c-.7 0-1.25-.56-1.25-1.25v-.25H7.5Z"/><path d="M13.75 14.5c0-1.52 1.23-2.75 2.75-2.75h3c.41 0 .75.33.75.75v1c0 1.51-1.24 2.75-2.75 2.75h-3c-.42 0-.75-.34-.75-.75v-1Zm2.75-1.25c-.7 0-1.25.55-1.25 1.25v.25h2.25c.69 0 1.25-.56 1.25-1.25v-.25H16.5Z"/></g></svg>