<svg viewBox="0 0 24 24" xmlns="http://www.w3.org/2000/svg"><g fill-rule="evenodd"><path d="M8.4 18.03c.14-.19.35-.29.59-.29h5.99c.23 0 .44.1.59.28 .14.18.19.41.13.64l-.86 3.5c-.09.33-.39.57-.73.57H9.82c-.35 0-.65-.24-.73-.58l-.86-3.5c-.06-.23-.01-.47.13-.65Zm1.54 1.21l.48 2h3.1l.48-2H9.91Z"/><path d="M12 2.25c.41 0 .75.33.75.75v15.49c0 .41-.34.75-.75.75 -.42 0-.75-.34-.75-.75V2.99c0-.42.33-.75.75-.75Z"/><path d="M9.5 2.75c-.42 0-.75.33-.75.75 0 .41-.34.75-.75.75 -.42 0-.75-.34-.75-.75 0-1.25 1-2.25 2.25-2.25 .56 0 1.3.21 1.907.52 .3.15.61.36.86.62 .24.25.47.62.47 1.09 0 .46-.24.84-.48 1.09 -.25.26-.56.46-.87.62 -.6.31-1.35.52-1.907.52 -.42 0-.75-.34-.75-.75 0-.42.33-.75.75-.75 .26 0 .76-.13 1.21-.36 .21-.12.37-.23.46-.33 .02-.03.04-.06.05-.07 -.02-.02-.03-.04-.06-.07 -.1-.1-.26-.22-.47-.33 -.45-.24-.96-.36-1.22-.36Zm1.75.77s-.01-.01-.01-.01Zm-.01-.06c0-.01 0-.01 0-.01Z"/><path d="M9.5 8.25c-.42 0-.75.33-.75.75 0 .41.33.75.75.75 .26 0 .76-.13 1.21-.36 .21-.12.37-.23.46-.33 .02-.03.04-.06.05-.07 -.02-.02-.03-.04-.06-.07 -.1-.1-.26-.22-.47-.33 -.45-.24-.96-.36-1.22-.36Zm1.75.77s-.01-.01-.01-.01Zm-.01-.06c0-.01 0-.01 0-.01Zm-4.01.02c0-1.25 1-2.25 2.25-2.25 .56 0 1.3.21 1.907.52 .3.15.61.36.86.62 .24.25.47.62.47 1.09 0 .46-.24.84-.48 1.09 -.25.26-.56.46-.87.62 -.6.31-1.35.52-1.907.52 -1.25 0-2.25-1.01-2.25-2.25Z"/><path d="M8.75 13c0-.42.33-.75.75-.75 .56 0 1.3.21 1.907.52 .3.15.61.36.86.62 .24.25.47.62.47 1.09 0 .46-.24.84-.48 1.09 -.25.26-.56.46-.87.62 -.6.31-1.35.52-1.907.52 -1.25 0-2.25-1.01-2.25-2.25 0-.42.33-.75.75-.75 .41 0 .75.33.75.75 0 .41.33.75.75.75 .26 0 .76-.13 1.21-.36 .21-.12.37-.23.46-.33 .02-.03.04-.06.05-.07 -.02-.02-.03-.04-.06-.07 -.1-.1-.26-.22-.47-.33 -.45-.24-.96-.36-1.22-.36 -.42 0-.75-.34-.75-.75Zm2.5 1.52s-.01-.01-.01-.01Zm-.01-.06c0-.01 0-.01 0-.01Z"/><path d="M14.5 2.75c.41 0 .75.33.75.75 0 .41-.34.75-.75.75 -.27 0-.77-.13-1.22-.36 -.22-.12-.38-.23-.47-.33 -.03-.03-.05-.06-.06-.07 .01-.02.02-.04.05-.07 .09-.1.25-.22.46-.33 .44-.24.95-.36 1.21-.36Zm-1.76.77s0-.01 0-.01Zm0-.06c-.01-.01-.01-.01-.01-.01Zm4 .02c0-1.25-1.01-2.25-2.25-2.25 -.57 0-1.31.21-1.907.52 -.31.15-.62.36-.87.62 -.25.25-.48.62-.48 1.09 0 .46.23.84.47 1.09 .24.26.55.46.86.62 .59.31 1.34.52 1.907.52 1.24 0 2.25-1.01 2.25-2.25Z"/><path d="M15.25 7.5c0-.42-.34-.75-.75-.75 -.57 0-1.31.21-1.907.52 -.31.15-.62.36-.87.62 -.25.25-.48.62-.48 1.09 0 .46.23.84.47 1.09 .24.26.55.46.86.62 .59.31 1.34.52 1.907.52 1.24 0 2.25-1.01 2.25-2.25 0-.42-.34-.75-.75-.75 -.42 0-.75.33-.75.75 0 .41-.34.75-.75.75 -.27 0-.77-.13-1.22-.36 -.22-.12-.38-.23-.47-.33 -.03-.03-.05-.06-.06-.07 .01-.02.02-.04.05-.07 .09-.1.25-.22.46-.33 .44-.24.95-.36 1.21-.36 .41 0 .75-.34.75-.75Zm-2.51 1.52s0-.01 0-.01Zm0-.06c-.01-.01-.01-.01-.01-.01Z"/><path d="M14.5 13.75c.41 0 .75.33.75.75 0 .41-.34.75-.75.75 -.27 0-.77-.13-1.22-.36 -.22-.12-.38-.23-.47-.33 -.03-.03-.05-.06-.06-.07 .01-.02.02-.04.05-.07 .09-.1.25-.22.46-.33 .44-.24.95-.36 1.21-.36Zm-1.76.77s0-.01 0-.01Zm0-.06c-.01-.01-.01-.01-.01-.01Zm4 .02c0-1.25-1.01-2.25-2.25-2.25 -.57 0-1.31.21-1.907.52 -.31.15-.62.36-.87.62 -.25.25-.48.62-.48 1.09 0 .46.23.84.47 1.09 .24.26.55.46.86.62 .59.31 1.34.52 1.907.52 1.24 0 2.25-1.01 2.25-2.25Z"/></g></svg>