<svg viewBox="0 0 24 24" xmlns="http://www.w3.org/2000/svg"><g fill-rule="evenodd"><path d="M8.4 17.53c.14-.19.36-.29.59-.29h5.99c.23 0 .44.1.59.28 .14.18.19.41.13.64l-1 4c-.09.33-.39.56-.73.56h-4c-.35 0-.65-.24-.73-.57l-1-4c-.06-.23-.01-.47.13-.65Zm1.55 1.21l.62 2.5h2.82l.625-2.5h-4.08Z"/><path d="M7.25 15c0-.42.33-.75.75-.75h8c.41 0 .75.33.75.75v3c0 .41-.34.75-.75.75H8c-.42 0-.75-.34-.75-.75v-3Zm1.5.75v1.5h6.5v-1.5h-6.5Z"/><path d="M4.25 2c0-.42.33-.75.75-.75 2.07 0 3.75 1.67 3.75 3.75 0 2.07-1.68 3.75-3.75 3.75 -2.08 0-3.75-1.68-3.75-3.75 0-.42.33-.75.75-.75 .41 0 .75.33.75.75 0 1.24 1 2.25 2.25 2.25 1.24 0 2.25-1.01 2.25-2.25 0-1.25-1.01-2.25-2.25-2.25 -.42 0-.75-.34-.75-.75Z"/><path d="M19 2.75c-1.25 0-2.25 1-2.25 2.25 0 1.24 1 2.25 2.25 2.25 1.24 0 2.25-1.01 2.25-2.25 0-1.25-1.01-2.25-2.25-2.25ZM15.25 5c0-2.08 1.67-3.75 3.75-3.75 2.07 0 3.75 1.67 3.75 3.75 0 2.07-1.68 3.75-3.75 3.75 -2.08 0-3.75-1.68-3.75-3.75Z"/><path d="M19.5 10.75c-.97 0-1.75.78-1.75 1.75 0 .96.78 1.75 1.75 1.75 .96 0 1.75-.79 1.75-1.75 0-.97-.79-1.75-1.75-1.75Zm-3.25 1.75c0-1.8 1.45-3.25 3.25-3.25 1.79 0 3.25 1.45 3.25 3.25 0 1.79-1.46 3.25-3.25 3.25 -1.8 0-3.25-1.46-3.25-3.25Z"/><path d="M4.5 10.75c-.97 0-1.75.78-1.75 1.75 0 .96.78 1.75 1.75 1.75 .96 0 1.75-.79 1.75-1.75 0-.97-.79-1.75-1.75-1.75ZM1.25 12.5c0-1.8 1.45-3.25 3.25-3.25 1.79 0 3.25 1.45 3.25 3.25 0 1.79-1.46 3.25-3.25 3.25 -1.8 0-3.25-1.46-3.25-3.25Z"/><path d="M12 6.25c.41 0 .75.33.75.75v8c0 .41-.34.75-.75.75 -.42 0-.75-.34-.75-.75V7c0-.42.33-.75.75-.75Z"/><path d="M7.32 4.66c.18-.38.63-.53 1-.34l3.66 1.83 3.66-1.84c.37-.19.82-.04 1 .33 .18.37.03.82-.34 1l-4 2c-.22.1-.46.1-.68 0l-4.01-2c-.38-.19-.53-.64-.34-1.01Z"/><path d="M5.79 10.74c.14-.39.57-.6.96-.45l5.24 1.9 5.24-1.91c.38-.15.81.05.96.44 .14.38-.06.81-.45.96l-5.5 2c-.17.06-.35.06-.52 0l-5.51-2.01c-.39-.15-.6-.58-.45-.97Z"/></g></svg>