<svg viewBox="0 0 24 24" xmlns="http://www.w3.org/2000/svg"><g fill-rule="evenodd"><path d="M2.07 1.25l-.08.74 -.75.07c-.03-.23.05-.45.21-.61 .15-.16.37-.24.6-.22Zm18.08 18.9c.74.04.74.04.74.04l0-.01 0-.01 0-.03 0-.1c0-.09 0-.21.01-.36 .01-.31.02-.75.02-1.28 0-1.07-.01-2.53-.13-4.09 -.12-1.56-.34-3.24-.74-4.74 -.4-1.49-.99-2.9-1.91-3.82 -.91-.91-2.42-1.62-4.06-2.18 -1.66-.57-3.56-1.03-5.34-1.38 -1.79-.36-3.47-.61-4.7-.77 -.62-.09-1.13-.15-1.48-.19 -.18-.02-.32-.04-.41-.05l-.11-.02 -.03-.01 -.02-.01c-.01-.01 0 0-.08.74 -.75.07-.75.07-.75.07l0 0 0 .02 0 .07c0 .06.01.16.03.29 .02.25.07.62.12 1.07 .11.9.28 2.17.53 3.58 .07.4.45.68.86.61 .4-.08.68-.46.61-.87 -.24-1.39-.41-2.63-.53-3.52 -.03-.19-.05-.36-.07-.52 .29.03.65.07 1.05.13 1.21.16 2.86.4 4.6.75 1.74.34 3.56.78 5.13 1.32 1.59.54 2.82 1.16 3.47 1.81 .63.63 1.14 1.73 1.51 3.13 .36 1.38.57 2.96.69 4.46 .11 1.5.13 2.91.125 3.95 -.01.39-.02.73-.02 1 -.27 0-.61.01-1.01.01 -1.04 0-2.45-.01-3.96-.13 -1.51-.12-3.09-.33-4.47-.7 -1.41-.38-2.5-.88-3.14-1.52 -.44-.44-.88-1.16-1.29-2.1 -.41-.94-.78-2.05-1.1-3.23 -.11-.4-.53-.64-.93-.53 -.4.1-.64.52-.53.92 .33 1.22.71 2.4 1.16 3.43 .44 1.01.96 1.92 1.6 2.56 .92.92 2.33 1.51 3.81 1.9 1.5.39 3.18.61 4.73.73 1.55.11 3.01.13 4.08.12 .53-.01.96-.02 1.27-.03 .15-.01.27-.02.35-.02l.09-.01 .02-.01 0-.01 0-.01s0 0-.05-.75Zm0 0l.74.04c-.03.37-.33.68-.71.7l-.05-.75Z"/><path d="M1.46 1.46c.29-.3.76-.3 1.06 0l19.99 20c.29.29.29.76 0 1.06 -.3.29-.77.29-1.07 0l-20.01-20c-.3-.3-.3-.77-.001-1.07Z"/><path d="M8.46 8.46c.16-.17.4-.25.63-.22l6.94.99h3.44c.41 0 .75.33.75.74s-.34.75-.75.75h-3.5c-.04 0-.08-.01-.11-.01l-6.02-.86 .85 6.01c0 .03 0 .07 0 .1v3.5c0 .41-.34.75-.75.75 -.42 0-.75-.34-.75-.75v-3.45l-1-6.95c-.04-.24.04-.47.21-.64Z"/></g></svg>