<svg viewBox="0 0 24 24" xmlns="http://www.w3.org/2000/svg"><g fill-rule="evenodd"><path d="M4.93 14.5c.14-.17.34-.26.56-.26h13c.21 0 .42.09.56.25 .14.16.2.38.17.59l-1 7c-.06.36-.37.64-.75.64h-5.5c-.42 0-.75-.34-.75-.75 0-.42.33-.75.75-.75h4.84l.78-5.5H6.31l.78 5.5h.84c.41 0 .74.33.74.75 0 .41-.34.75-.75.75H6.41c-.38 0-.69-.28-.75-.65l-1-7c-.04-.22.03-.44.17-.6Z"/><path d="M9.25 4c0-1.52 1.23-2.75 2.75-2.75 1.51 0 2.75 1.23 2.75 2.75v11c0 .41-.34.75-.75.75h-4c-.42 0-.75-.34-.75-.75V4ZM12 2.75c-.7 0-1.25.55-1.25 1.25v10.25h2.5V4c0-.7-.56-1.25-1.25-1.25Z"/><path d="M7.26 6.55c-.26-.48-.89-.6-1.31-.27 -.32.25-.42.68-.25 1.04l3.25 6.91h.27v-4.06L7.23 6.52ZM5.02 5.11c1.14-.92 2.84-.58 3.55.71l2.07 3.8c.06.11.09.23.09.35v5c0 .41-.34.75-.75.75h-1.5c-.3 0-.56-.17-.68-.44L4.34 7.93c-.47-1-.2-2.18.66-2.86Z"/><path d="M16.73 6.55c.25-.48.88-.6 1.3-.27 .31.25.41.68.24 1.04l-3.26 6.91h-.28v-4.06l1.98-3.65Zm2.23-1.44c-1.15-.92-2.85-.58-3.56.71l-2.08 3.8c-.07.11-.1.23-.1.35v5c0 .41.33.75.75.75h1.5c.29 0 .55-.17.67-.44l3.45-7.35c.46-1 .19-2.18-.67-2.86Z"/><path d="M3.99 11c-.33-.21-.77-.07-.91.29 -.11.26-.03.56.2.72l2.95 2.21h1.03l-.87-1.73 -2.43-1.52Zm-2.3-.27c.49-1.23 1.97-1.72 3.09-1.02l2.6 1.63c.11.07.21.17.27.3l1.5 3c.11.23.1.5-.04.72 -.14.22-.38.35-.64.35h-2.5c-.17 0-.33-.06-.45-.15l-3.16-2.37c-.77-.58-1.06-1.6-.7-2.49Z"/><path d="M20 11c.32-.21.76-.07.9.29 .1.26.02.56-.21.72l-2.96 2.21h-1.04l.86-1.73 2.42-1.52Zm2.3-.27c-.5-1.23-1.98-1.72-3.1-1.02l-2.61 1.63c-.12.07-.22.17-.28.3l-1.5 3c-.12.23-.11.5.03.72 .13.22.37.35.63.35h2.49c.16 0 .32-.06.45-.15l3.15-2.37c.76-.58 1.05-1.6.69-2.49Z"/></g></svg>