<svg viewBox="0 0 24 24" xmlns="http://www.w3.org/2000/svg"><g fill="#9545ED" fill-rule="evenodd"><path d="M5 11h5.5v2H5v-2Z"/><path d="M19 11h-5.5v2H19v-2Z"/><path d="M10.5 13C8.56 13 7 14.56 7 16.5V18H5v-1.5c0-3.04 2.46-5.5 5.5-5.5v2Z"/><path d="M13.5 11c1.93 0 3.5-1.57 3.5-3.5V6h2v1.5c0 3.03-2.47 5.5-5.5 5.5v-2Z"/><g fill="#3747D6"><path d="M9.5 10.5c0-.56.44-1 1-1h3c.55 0 1 .44 1 1v3c0 .55-.45 1-1 1h-3c-.56 0-1-.45-1-1v-3Zm2 1v1h1v-1h-1Z"/><path d="M3 18c0-.56.44-1 1-1h4c.55 0 1 .44 1 1v4c0 .55-.45 1-1 1H4c-.56 0-1-.45-1-1v-4Zm2 1v2h2v-2H5Z"/><path d="M15 6c0 .55.44 1 1 1h4c.55 0 1-.45 1-1V2c0-.56-.45-1-1-1h-4c-.56 0-1 .44-1 1v4Zm2-1V3h2v2h-2Z"/><path d="M3.5 11.5c-.28 0-.5.22-.5.5 0 .27.22.5.5.5 .27 0 .5-.23.5-.5 0-.28-.23-.5-.5-.5ZM1 12c0-1.39 1.11-2.5 2.5-2.5C4.88 9.5 6 10.61 6 12c0 1.38-1.12 2.5-2.5 2.5C2.11 14.5 1 13.38 1 12Z"/><path d="M20.5 11.5c.27 0 .5.22.5.5 0 .27-.23.5-.5.5 -.28 0-.5-.23-.5-.5 0-.28.22-.5.5-.5Zm2.5.5c0-1.39-1.12-2.5-2.5-2.5 -1.39 0-2.5 1.11-2.5 2.5 0 1.38 1.11 2.5 2.5 2.5 1.38 0 2.5-1.12 2.5-2.5Z"/></g></g></svg>