<svg viewBox="0 0 24 24" xmlns="http://www.w3.org/2000/svg"><g fill="#3747D6" fill-rule="evenodd"><path d="M12 8c-2.21 0-4 1.79-4 4 0 2.2 1.79 4 4 4 2.2 0 4-1.8 4-4 0-2.21-1.8-4-4-4Zm-6 4c0-3.32 2.68-6 6-6 3.31 0 6 2.68 6 6 0 3.31-2.69 6-6 6 -3.32 0-6-2.69-6-6Z"/><g fill="#9545ED"><path d="M11 4.5V2h2v2.5h-2ZM11 22v-2.5h2V22h-2Z"/><path d="M5.98 7.4L4.21 5.63l1.41-1.42 1.76 1.76 -1.42 1.41Zm12.37 12.37L16.58 18l1.41-1.42 1.76 1.76 -1.42 1.41Z"/><path d="M18.01 7.4l1.76-1.77 -1.42-1.42 -1.77 1.76 1.41 1.41ZM5.63 19.77L7.39 18l-1.42-1.42 -1.77 1.76 1.41 1.41Z"/><path d="M4.5 13H2v-2h2.5v2ZM22 13h-2.5v-2H22v2Z"/></g></g></svg>