<svg viewBox="0 0 24 24" xmlns="http://www.w3.org/2000/svg"><g fill="#9545ED" fill-rule="evenodd"><path d="M8.7 7.29l8 8 -1.42 1.41 -8-8 1.41-1.42Z"/><path d="M12.7 7.29l4 4 -1.42 1.41 -4-4 1.41-1.42Z"/><path d="M8.7 11.29l4 4 -1.42 1.41 -4-4 1.41-1.42Z"/><g fill="#3747D6"><path d="M1 2c0-.56.44-1 1-1h14c.55 0 1 .44 1 1v14c0 .55-.45 1-1 1H2c-.56 0-1-.45-1-1V2Zm2 1v12h12V3H3Z"/><path d="M7 8c0-.56.44-1 1-1h14c.55 0 1 .44 1 1v14c0 .55-.45 1-1 1H8c-.56 0-1-.45-1-1V8Zm2 1v12h12V9H9Z"/></g></g></svg>