<svg viewBox="0 0 24 24" xmlns="http://www.w3.org/2000/svg"><g fill="#9545ED" fill-rule="evenodd"><path d="M12.49 7.29c.39-.4 1.02-.4 1.41 0l2.8 2.8c.18.18.29.44.29.7 0 .26-.11.51-.3.7l-4.2 4.2c-.19.18-.45.29-.71.29 -.27 0-.52-.11-.71-.3l-2.81-2.8c-.4-.4-.4-1.03 0-1.42l4.2-4.21Zm.7 2.12l-2.79 2.78 1.38 1.38 2.78-2.79 -1.39-1.39Z"/><path fill="#3747D6" d="M12.69 2.69c2.26-2.27 5.93-2.27 8.19 0l.41.41c2.26 2.26 2.26 5.93 0 8.19l-10 10c-2.27 2.26-5.94 2.26-8.2 0l.69-.7 -.7.69 -.42-.42c-2.27-2.27-2.27-5.94 0-8.2l9.99-10Zm6.78 1.41c-1.49-1.49-3.89-1.49-5.37 0l-10 9.99c-1.49 1.48-1.49 3.88 0 5.36l.41.41 -.71.7 .7-.71c1.48 1.48 3.88 1.48 5.36 0l10-10c1.48-1.49 1.48-3.89 0-5.37l-.42-.42 .7-.71 -.71.7Z"/></g></svg>