<svg viewBox="0 0 24 24" xmlns="http://www.w3.org/2000/svg"><g fill="#9545ED" fill-rule="evenodd"><path d="M9.5 4.5c0-.56.44-1 1-1H13v2h-1.5V7h-2V4.5Zm9 1H17v-2h2.5c.55 0 1 .44 1 1V7h-2V5.5Zm-7 10V14h-2v2.5c0 .55.44 1 1 1H13v-2h-1.5Zm7 0V14h2v2.5c0 .55-.45 1-1 1H17v-2h1.5Z"/><path d="M7 19c0-.56.44-1 1-1h14c.55 0 1 .44 1 1 0 .55-.45 1-1 1H8c-.56 0-1-.45-1-1Z"/><path d="M1 7c0-1.39 1.11-2.5 2.5-2.5C4.88 4.5 6 5.61 6 7v9c0 .18-.05.35-.15.51l-1.5 2.5c-.19.3-.51.48-.86.48 -.36 0-.68-.19-.86-.49l-1.5-2.5c-.1-.16-.15-.34-.15-.52v-9Zm2.5-.5c-.28 0-.5.22-.5.5v8.72l.5.83 .5-.84V6.98c0-.28-.23-.5-.5-.5Z"/><path fill="#3747D6" d="M7 4c0-1.66 1.34-3 3-3h10c1.65 0 3 1.34 3 3v16c0 1.65-1.35 3-3 3H10c-1.66 0-3-1.35-3-3V4Zm3-1c-.56 0-1 .44-1 1v16c0 .55.44 1 1 1h10c.55 0 1-.45 1-1V4c0-.56-.45-1-1-1H10Z"/></g></svg>