<svg viewBox="0 0 24 24" xmlns="http://www.w3.org/2000/svg"><g fill-rule="evenodd"><path d="M1.25 4.5c0-.42.33-.75.75-.75h14.26c.41 0 .75.33.75.75 0 .41-.34.75-.75.75H2.74v10.5h18.5V5.25h-1.37c-.42 0-.75-.34-.75-.75 0-.42.33-.75.75-.75h2.11c.41 0 .75.33.75.75v12c0 .41-.34.75-.75.75h-20c-.42 0-.75-.34-.75-.75v-12Z"/><path d="M9.78 16.26c.1-.31.38-.52.71-.52h3c.32 0 .6.2.71.51l1 3c.07.22.03.48-.11.67 -.15.19-.37.31-.61.31h-5c-.25 0-.47-.12-.61-.32 -.15-.2-.18-.45-.11-.68l1-3Zm1.25.98l-.5 1.5h2.91l-.5-1.5h-1.92Z"/><path d="M2.25 19.5c0-.42.33-.75.75-.75h18c.41 0 .75.33.75.75 0 .41-.34.75-.75.75H3c-.42 0-.75-.34-.75-.75Z"/><path d="M8.75 8c0-.42-.34-.75-.75-.75H5c-.42 0-.75.33-.75.75 0 .41.33.75.75.75h2.25V13c0 .41.33.75.75.75 .41 0 .75-.34.75-.75V8Z"/><path d="M14.25 8c0-.42-.34-.75-.75-.75h-3c-.42 0-.75.33-.75.75 0 .41.33.75.75.75h2.25v1H10.5c-.42 0-.75.33-.75.75V13c0 .41.33.75.75.75h3c.41 0 .75-.34.75-.75 0-.42-.34-.75-.75-.75h-2.25v-1h2.25c.41 0 .75-.34.75-.75V8Z"/><path d="M19.75 8c0-.42-.34-.75-.75-.75h-3c-.42 0-.75.33-.75.75v5c0 .41.33.75.75.75h3c.41 0 .75-.34.75-.75V8Zm-1.5.75v3.5h-1.5v-3.5h1.5Z"/></g></svg>