<svg viewBox="0 0 24 24" xmlns="http://www.w3.org/2000/svg"><g fill-rule="evenodd"><path d="M12 10.75c-.7 0-1.25.55-1.25 1.25 0 .69.55 1.25 1.25 1.25 .69 0 1.25-.56 1.25-1.25 0-.7-.56-1.25-1.25-1.25ZM9.25 12c0-1.52 1.23-2.75 2.75-2.75 1.51 0 2.75 1.23 2.75 2.75 0 1.51-1.24 2.75-2.75 2.75 -1.52 0-2.75-1.24-2.75-2.75Z"/><path d="M12 5.25c-3.73 0-6.75 3.02-6.75 6.75 0 3.72 3.02 6.75 6.75 6.75 .96 0 1.88-.21 2.71-.57 .37-.17.82 0 .98.38 .16.37-.01.82-.39.98 -1.02.44-2.14.69-3.32.69 -4.56 0-8.25-3.7-8.25-8.25 0-4.56 3.69-8.25 8.25-8.25 4.55 0 8.25 3.69 8.25 8.25 0 1.62-.47 3.13-1.29 4.41 -.23.34-.69.45-1.04.23 -.35-.23-.46-.69-.24-1.04 .66-1.05 1.04-2.29 1.04-3.62 0-3.73-3.03-6.75-6.75-6.75Z"/><path d="M16.25 12c0-.42.33-.75.75-.75h5c.41 0 .75.33.75.75 0 .41-.34.75-.75.75h-5c-.42 0-.75-.34-.75-.75Z"/><path d="M1.25 12c0-.42.33-.75.75-.75h5c.41 0 .75.33.75.75 0 .41-.34.75-.75.75H2c-.42 0-.75-.34-.75-.75Z"/><path d="M12 7.75c-.42 0-.75-.34-.75-.75V2c0-.42.33-.75.75-.75 .41 0 .75.33.75.75v5c0 .41-.34.75-.75.75Z"/><path d="M12 22.75c-.42 0-.75-.34-.75-.75v-5c0-.42.33-.75.75-.75 .41 0 .75.33.75.75v5c0 .41-.34.75-.75.75Z"/></g></svg>