<svg viewBox="0 0 24 24" xmlns="http://www.w3.org/2000/svg"><g fill-rule="evenodd"><path d="M1.25 3c0-.42.33-.75.75-.75h20c.41 0 .75.33.75.75v14.58c0 .41-.34.75-.75.75H2c-.42 0-.75-.34-.75-.75V2.99Zm1.5.75v13.08h18.5V3.74H2.75Z"/><path d="M1.25 17.58c0-.42.33-.75.75-.75h20c.41 0 .75.33.75.75v2.91c0 .41-.34.75-.75.75h-2.13c-.42 0-.75-.34-.75-.75 0-.42.33-.75.75-.75h1.37v-1.42H2.74v1.41h13.13c.41 0 .75.33.75.75 0 .41-.34.75-.75.75H1.98c-.42 0-.75-.34-.75-.75v-2.92Z"/><path d="M6.5 4.68c.41 0 .75.33.75.75v9.72c0 .41-.34.75-.75.75 -.42 0-.75-.34-.75-.75V5.42c0-.42.33-.75.75-.75Z"/><path d="M12 4.68c.41 0 .75.33.75.75v9.72c0 .41-.34.75-.75.75 -.42 0-.75-.34-.75-.75V5.42c0-.42.33-.75.75-.75Z"/><path d="M3.75 13c0-.42.33-.75.75-.75h4c.41 0 .75.33.75.75 0 .41-.34.75-.75.75h-4c-.42 0-.75-.34-.75-.75Z"/><path d="M9.25 8c0-.42.33-.75.75-.75h4c.41 0 .75.33.75.75 0 .41-.34.75-.75.75h-4c-.42 0-.75-.34-.75-.75Z"/><path d="M18 12.75c-.42 0-.75.33-.75.75 0 .41.33.75.75.75 .41 0 .75-.34.75-.75 0-.42-.34-.75-.75-.75Zm-2.25.75c0-1.25 1-2.25 2.25-2.25 1.24 0 2.25 1 2.25 2.25 0 1.24-1.01 2.25-2.25 2.25 -1.25 0-2.25-1.01-2.25-2.25Z"/><path d="M18 6.75c-.42 0-.75.33-.75.75 0 .41.33.75.75.75 .41 0 .75-.34.75-.75 0-.42-.34-.75-.75-.75Zm-2.25.75c0-1.25 1-2.25 2.25-2.25 1.24 0 2.25 1 2.25 2.25 0 1.24-1.01 2.25-2.25 2.25 -1.25 0-2.25-1.01-2.25-2.25Z"/></g></svg>