<svg viewBox="0 0 24 24" xmlns="http://www.w3.org/2000/svg"><g fill-rule="evenodd"><path d="M6.48 14.38c0-.42.33-.75.75-.75h9.52c.41 0 .75.33.75.75 0 1.68-.61 3.08-1.63 4.05 -1.02.96-2.41 1.45-3.89 1.45 -1.49 0-2.87-.5-3.89-1.46 -1.03-.97-1.63-2.37-1.63-4.06Zm1.55.75c.14.94.54 1.68 1.1 2.21 .7.66 1.7 1.04 2.85 1.04 1.14 0 2.14-.39 2.85-1.05 .55-.53.96-1.27 1.1-2.22H8.01Z"/><path d="M13.42 11.79c.41 0 .75-.34.75-.75 0-.72.24-1.23.6-1.56 .36-.35.88-.55 1.5-.55s1.14.2 1.5.54c.35.33.6.84.6 1.55 0 .41.33.75.75.75 .41 0 .75-.34.75-.75 0-1.09-.4-2.01-1.08-2.65 -.68-.64-1.59-.96-2.54-.96 -.96 0-1.87.32-2.54.95 -.69.64-1.08 1.56-1.08 2.64 0 .41.33.75.75.75Z"/><path d="M4.85 11.79c.41 0 .75-.34.75-.75 0-.72.24-1.23.6-1.56 .36-.35.88-.55 1.5-.55s1.14.2 1.5.54c.35.33.6.84.6 1.55 0 .41.33.75.74.75s.75-.34.75-.75c0-1.09-.4-2.01-1.08-2.65 -.68-.64-1.59-.96-2.54-.96 -.96 0-1.87.32-2.54.95C4.44 9 4.05 9.92 4.05 11c0 .41.33.75.75.75Z"/><path d="M12 2.75c-5.11 0-9.25 4.14-9.25 9.25 0 5.1 4.14 9.25 9.25 9.25 1.71 0 3.31-.47 4.69-1.28 .35-.22.81-.1 1.02.26 .21.35.09.81-.27 1.02 -1.6.94-3.47 1.48-5.46 1.48 -5.94 0-10.75-4.82-10.75-10.75 0-5.94 4.81-10.75 10.75-10.75 5.93 0 10.75 4.81 10.75 10.75 0 2-.55 3.87-1.51 5.48 -.22.35-.68.47-1.03.26 -.36-.22-.48-.68-.27-1.03 .82-1.39 1.29-3 1.29-4.72 0-5.11-4.15-9.25-9.25-9.25Z"/></g></svg>