<svg viewBox="0 0 24 24" xmlns="http://www.w3.org/2000/svg"><g fill-rule="evenodd"><path d="M20.94 4.39c.18.14.3.36.3.6v14c0 .22-.11.44-.29.58 -.18.14-.42.19-.64.14l-17-4c-.34-.08-.58-.39-.58-.74v-5c0-.34.21-.63.53-.72l7.42-2.19c.39-.12.81.11.93.5 .11.39-.12.81-.51.93L4.21 10.51v3.84l15.5 3.64V5.93l-4.63 1.36c-.4.11-.82-.12-.94-.51 -.12-.4.11-.82.5-.94l5.59-1.65c.22-.07.47-.03.66.11Z"/><path d="M5.5 14.75c.41 0 .75.33.75.75v2.75h4V17c0-.42.33-.75.75-.75 .41 0 .75.33.75.75v2c0 .41-.34.75-.75.75H5.5c-.42 0-.75-.34-.75-.75v-3.5c0-.42.33-.75.75-.75Z"/><path d="M17.5 5.25c.41 0 .75.33.75.75v12c0 .41-.34.75-.75.75 -.42 0-.75-.34-.75-.75V6c0-.42.33-.75.75-.75Z"/></g></svg>