<svg viewBox="0 0 24 24" xmlns="http://www.w3.org/2000/svg"><g fill-rule="evenodd"><path d="M22.44 4.39c.19.14.3.36.3.6v14c0 .23-.11.44-.29.58 -.19.14-.42.19-.65.13l-16.5-4c-.34-.09-.58-.39-.58-.73v-5c0-.34.21-.63.53-.72l9.45-2.87c.39-.13.81.1.93.5 .12.39-.11.81-.51.93l-8.924 2.7v3.85l15 3.63V5.95l-2.24.67c-.4.12-.82-.11-.94-.51 -.13-.4.1-.82.5-.94l3.2-.98c.22-.07.47-.03.66.11Z"/><path d="M1.54 8.4c-.19.14-.3.36-.3.59v6.99c0 .23.11.45.29.59 .18.14.43.18.65.12l3.5-1c.32-.1.54-.39.54-.73v-5c0-.34-.23-.63-.55-.73l-3.5-1c-.23-.07-.47-.02-.66.12Zm3.2 2.16v3.86l-2 .57V9.97l2 .57Z"/><path d="M7.5 14.75c.41 0 .75.33.75.75v2.75h4V17c0-.42.33-.75.75-.75 .41 0 .75.33.75.75v2c0 .41-.34.75-.75.75H7.5c-.42 0-.75-.34-.75-.75v-3.5c0-.42.33-.75.75-.75Z"/></g></svg>