<svg viewBox="0 0 24 24" xmlns="http://www.w3.org/2000/svg"><g fill-rule="evenodd"><path d="M8 5.25c.41 0 .75.33.75.75 0 1.79 1.45 3.25 3.25 3.25 1.79 0 3.25-1.46 3.25-3.25 0-.42.33-.75.75-.75 .41 0 .75.33.75.75 0 2.62-2.13 4.75-4.75 4.75 -2.63 0-4.75-2.13-4.75-4.75 0-.42.33-.75.75-.75Z"/><path d="M3.78 21.25c.37-4.21 3.91-7.5 8.21-7.5 1.89 0 3.63.63 5.02 1.7 .32.25.79.19 1.05-.14 .25-.33.19-.8-.14-1.06 -1.65-1.27-3.71-2.02-5.95-2.02 -5.39 0-9.75 4.36-9.75 9.75 0 .41.33.75.75.75h18c.41 0 .75-.34.75-.75 0-1.53-.36-2.97-.98-4.26 -.19-.38-.63-.53-1.01-.35 -.38.18-.53.62-.35 1 .42.87.7 1.83.79 2.85H3.73Z"/><path d="M9.11 12.85c.35-.22.81-.1 1.02.25l1.28 2.13h1.15l1.28-2.14c.21-.36.67-.48 1.029-.26 .35.21.47.67.25 1.029l-1.5 2.5c-.14.22-.38.36-.65.36h-2c-.27 0-.51-.14-.65-.37l-1.51-2.5c-.22-.36-.1-.82.25-1.029Z"/><path d="M9.31 22.72c.4.1.8-.15.9-.55l1.35-5.44h.82l1.35 5.43c.1.4.5.64.9.54 .4-.11.64-.51.54-.91l-1.5-6c-.09-.34-.39-.57-.73-.57h-2c-.35 0-.65.23-.73.56l-1.51 6c-.11.4.14.8.54.9Z"/><path d="M11.98 2.75c-.25 0-.49.03-.72.11L6.51 4.44c-.17.05-.29.21-.29.39 0 .22.18.41.41.41h8.58v-.25c0-1.25-1.01-2.25-2.25-2.25h-1.02Zm-1.19-1.31c.38-.13.78-.2 1.18-.2h1.01c2.07 0 3.75 1.67 3.75 3.75v1c0 .41-.34.75-.75.75H6.64c-1.06 0-1.92-.86-1.92-1.92 0-.83.52-1.56 1.3-1.82l4.74-1.59Z"/></g></svg>