<svg viewBox="0 0 24 24" xmlns="http://www.w3.org/2000/svg"><g fill-rule="evenodd"><path d="M1.25 2c0-.42.33-.75.75-.75h13c.41 0 .75.33.75.75v5.5c0 .41-.34.75-.75.75 -.42 0-.75-.34-.75-.75V2.75H2.75v16.5H9c.41 0 .75.33.75.75 0 .41-.34.75-.75.75H2c-.42 0-.75-.34-.75-.75V2Z"/><path d="M16 10.75c-2.9 0-5.25 2.35-5.25 5.25 0 2.89 2.35 5.25 5.25 5.25 .59 0 1.15-.1 1.68-.28 .39-.14.81.07.95.46 .13.39-.08.81-.47.95 -.69.23-1.41.35-2.17.35 -3.73 0-6.75-3.03-6.75-6.75 0-3.73 3.02-6.75 6.75-6.75 3.72 0 6.75 3.02 6.75 6.75 0 1.26-.35 2.45-.96 3.46 -.22.35-.68.47-1.03.25 -.36-.22-.48-.68-.26-1.03 .47-.79.74-1.71.74-2.7 0-2.9-2.36-5.25-5.25-5.25Z"/><path d="M16 14.75c-.7 0-1.25.55-1.25 1.25 0 .69.55 1.25 1.25 1.25 .69 0 1.25-.56 1.25-1.25 0-.7-.56-1.25-1.25-1.25ZM13.25 16c0-1.52 1.23-2.75 2.75-2.75 1.51 0 2.75 1.23 2.75 2.75 0 1.51-1.24 2.75-2.75 2.75 -1.52 0-2.75-1.24-2.75-2.75Z"/><path d="M18.2 9.77c.39.11.62.52.51.92l-1 3.5c-.12.39-.53.62-.93.51 -.4-.12-.63-.53-.52-.93l1-3.5c.11-.4.52-.63.92-.52Z"/><path d="M15.7 17.27c.39.11.62.52.51.92l-1 3.5c-.12.39-.53.62-.93.51 -.4-.12-.63-.53-.52-.93l1-3.5c.11-.4.52-.63.92-.52Z"/><path d="M3.75 5c0-.42.33-.75.75-.75h8c.41 0 .75.33.75.75 0 .41-.34.75-.75.75h-8c-.42 0-.75-.34-.75-.75Z"/></g></svg>