<svg viewBox="0 0 24 24" xmlns="http://www.w3.org/2000/svg"><g fill-rule="evenodd"><path d="M17 1.25c.25 0 .49.13.63.35l2.5 4c.08.13.12.29.11.45l-1 13c-.04.39-.36.69-.75.69h-3c-.4 0-.72-.31-.75-.7l-1-13c-.02-.16.02-.32.11-.46l2.5-4c.13-.22.37-.36.63-.36Zm-1.74 4.93l.92 12.06h1.61l.92-12.07 -1.74-2.78 -1.74 2.77Z"/><path d="M7 22.75c.25 0 .49-.14.63-.36l2.5-4c.08-.14.12-.3.11-.46l-1.01-13c-.04-.4-.36-.7-.75-.7h-3c-.4 0-.72.3-.75.69l-.54 6.95c-.04.41.27.77.69.8 .41.03.77-.28.8-.7l.48-6.27h1.61l.92 12.06 -1.74 2.77 -1.74-2.78 .13-1.72c.03-.42-.28-.78-.7-.81 -.42-.04-.78.27-.81.69l-.16 1.95c-.02.15.02.31.11.45l2.5 4c.13.21.37.35.63.35Z"/><path d="M12.75 19c0-.42.33-.75.75-.75h7c.41 0 .75.33.75.75 0 .41-.34.75-.75.75h-7c-.42 0-.75-.34-.75-.75Z"/><path d="M2.75 5c0 .41.33.75.75.75h7c.41 0 .75-.34.75-.75 0-.42-.34-.75-.75-.75h-7c-.42 0-.75.33-.75.75Z"/><path d="M17 18.25c.41 0 .75.33.75.75v3c0 .41-.34.75-.75.75 -.42 0-.75-.34-.75-.75v-3c0-.42.33-.75.75-.75Z"/><path d="M7 5.75c.41 0 .75-.34.75-.75V2c0-.42-.34-.75-.75-.75 -.42 0-.75.33-.75.75v3c0 .41.33.75.75.75Z"/></g></svg>