<svg viewBox="0 0 24 24" xmlns="http://www.w3.org/2000/svg"><g fill-rule="evenodd"><path d="M5 8.75c-1.25 0-2.25 1-2.25 2.25 0 1.24 1 2.25 2.25 2.25 1.24 0 2.25-1.01 2.25-2.25 0-1.25-1.01-2.25-2.25-2.25ZM1.25 11c0-2.08 1.67-3.75 3.75-3.75 2.07 0 3.75 1.67 3.75 3.75 0 2.07-1.68 3.75-3.75 3.75 -2.08 0-3.75-1.68-3.75-3.75Z"/><path d="M7.59 1.37c.21-.14.48-.16.71-.06l4.5 2c.37.16.54.61.38.98 -.17.37-.62.54-.99.38L8.74 3.13v7.84c0 .41-.34.75-.75.75 -.42 0-.75-.34-.75-.75v-9c0-.26.12-.5.34-.63Z"/><path d="M10 16.75c-1.25 0-2.25 1-2.25 2.25 0 1.24 1 2.25 2.25 2.25 1.24 0 2.25-1.01 2.25-2.25 0-1.25-1.01-2.25-2.25-2.25ZM6.25 19c0-2.08 1.67-3.75 3.75-3.75 2.07 0 3.75 1.67 3.75 3.75 0 2.07-1.68 3.75-3.75 3.75 -2.08 0-3.75-1.68-3.75-3.75Z"/><path d="M19 16.75c-1.25 0-2.25 1-2.25 2.25 0 1.24 1 2.25 2.25 2.25 1.24 0 2.25-1.01 2.25-2.25 0-1.25-1.01-2.25-2.25-2.25ZM15.25 19c0-2.08 1.67-3.75 3.75-3.75 2.07 0 3.75 1.67 3.75 3.75 0 2.07-1.68 3.75-3.75 3.75 -2.08 0-3.75-1.68-3.75-3.75Z"/><path d="M12.51 8.92c.16-.15.39-.21.61-.17l1.97.33c.4.06.68.45.61.86 -.07.4-.46.68-.87.61l-1.11-.19v9.11c0 .41-.34.75-.75.75 -.42 0-.75-.34-.75-.75v-10c0-.23.09-.44.26-.58Zm5.76 1.47c.06-.41.45-.69.86-.62l2.98.51c.36.06.62.37.62.73v8.46c0 .41-.34.75-.75.75 -.42 0-.75-.34-.75-.75v-7.83l-2.36-.41c-.41-.07-.69-.46-.62-.87Z"/></g></svg>