<svg viewBox="0 0 24 24" xmlns="http://www.w3.org/2000/svg"><g fill-rule="evenodd"><path d="M19.7 5.25c-1.98-1.92-5.13-2.01-7.22-.27 -.15.11-.32.17-.5.17s-.35-.06-.5-.18c-2.09-1.74-5.24-1.65-7.22.26 -1.97 1.9-2.06 4.92-.28 6.93 .02.02.04.05.06.08l7.91 7.68 1.56-1.53c.29-.29.77-.29 1.06.01 .28.29.28.77-.02 1.06l-2.1 2.02c-.3.28-.76.28-1.05 0l-8.56-8.31c-.06-.06-.11-.12-.14-.19C.5 10.37.66 6.52 3.16 4.1c2.38-2.32 6.09-2.55 8.75-.71 2.65-1.85 6.36-1.62 8.75.7 2.49 2.42 2.65 6.27.46 8.87 -.04.06-.09.12-.14.18l-3.52 3.41c-.3.28-.78.28-1.07-.02 -.29-.3-.29-.78.01-1.07l3.4-3.3c.01-.03.04-.06.06-.09 1.77-2.01 1.686-5.03-.28-6.94Z"/><path d="M15.25 6c0-.42.33-.75.75-.75 2.07 0 3.75 1.67 3.75 3.75 0 .41-.34.75-.75.75 -.42 0-.75-.34-.75-.75 0-1.25-1.01-2.25-2.25-2.25 -.42 0-.75-.34-.75-.75Z"/></g></svg>