<svg viewBox="0 0 24 24" xmlns="http://www.w3.org/2000/svg"><g fill-rule="evenodd"><path d="M12 2.75c-5.11 0-9.25 4.14-9.25 9.25 0 5.1 4.14 9.25 9.25 9.25 5.1 0 9.25-4.15 9.25-9.25 0-1.67-.44-3.23-1.21-4.58 -.21-.36-.08-.82.28-1.03 .35-.21.81-.08 1.02.28 .89 1.56 1.4 3.38 1.4 5.31 0 5.93-4.82 10.75-10.75 10.75 -5.94 0-10.75-4.82-10.75-10.75 0-5.94 4.81-10.75 10.75-10.75 1.94 0 3.77.51 5.35 1.42 .35.2.48.66.27 1.02 -.21.35-.67.48-1.03.27 -1.36-.78-2.93-1.23-4.61-1.23Z"/><path d="M6.48 7.23c0-.42.33-.75.75-.75h9.52c.41 0 .75.33.75.75v9.52c0 .41-.34.75-.75.75H7.22c-.42 0-.75-.34-.75-.75V7.22Zm1.5.75V16H16V7.97H7.97Z"/></g></svg>