<svg viewBox="0 0 24 24" xmlns="http://www.w3.org/2000/svg"><g fill-rule="evenodd"><path d="M11.93 2.25c.29-.03.58.12.72.38l1.89 3.47c.36.66 1.23.85 1.84.4l.15-.12c.22-.18.53-.2.78-.08 .25.12.41.38.41.67v3.49c0 1.17-.49 2.24-1.26 3.01 -.62.61-1.43 1.04-2.34 1.18 -.41.06-.8-.22-.86-.63 -.07-.41.21-.8.62-.86 .58-.1 1.1-.37 1.5-.77 .5-.5.81-1.19.81-1.96V8.12c-1.16.25-2.41-.26-3.02-1.37L12.1 4.79l-1.17 3.5c-.47 1.39-1.91 2.12-3.25 1.8v.32c0 1.51 1.23 2.75 2.75 2.75 .41 0 .75.33.75.75 0 .41-.34.75-.75.75 -2.35 0-4.25-1.91-4.25-4.25v-1.5c0-.28.14-.52.38-.66 .23-.14.52-.13.75 0l.36.21c.68.41 1.57.08 1.82-.68l1.71-5.14c.09-.29.34-.49.64-.51Z"/><path d="M18.67 14.66c.18.37.03.82-.34 1l-12 6c-.38.18-.83.03-1.01-.34 -.19-.38-.04-.83.33-1.01l12-6c.37-.19.82-.04 1 .33Z"/><path d="M5.32 14.66c-.19.37-.04.82.33 1l12 6c.37.18.82.03 1-.34 .18-.38.03-.83-.34-1.01l-12-6c-.38-.19-.83-.04-1.01.33Z"/></g></svg>