<svg viewBox="0 0 24 24" xmlns="http://www.w3.org/2000/svg"><g fill-rule="evenodd"><path d="M4.25 6.5c0-.42.33-.75.75-.75h7.89c.41 0 .75.33.75.75 0 .41-.34.75-.75.75H5.67c-.3 1.46-1.46 2.62-2.93 2.92v3.65c1.46.29 2.62 1.45 2.92 2.92h12.65c.29-1.47 1.45-2.63 2.92-2.93v-3.65c-1.47-.3-2.63-1.46-2.93-2.925h-1.44c-.42 0-.75-.34-.75-.75 0-.42.33-.75.75-.75h2.11c.41 0 .75.33.75.75 0 1.24 1 2.25 2.25 2.25 .41 0 .75.33.75.75v5c0 .41-.34.75-.75.75 -1.25 0-2.25 1-2.25 2.25 0 .41-.34.75-.75.75h-14c-.42 0-.75-.34-.75-.75 0-1.25-1.01-2.25-2.25-2.25 -.42 0-.75-.34-.75-.75v-5c0-.42.33-.75.75-.75 1.24 0 2.25-1.01 2.25-2.25Z"/><path d="M6.75 10.5c0-.42.33-.75.75-.75h9c.41 0 .75.33.75.75 0 .41-.34.75-.75.75h-9c-.42 0-.75-.34-.75-.75Z"/><path d="M6.75 13.5c0-.42.33-.75.75-.75h9c.41 0 .75.33.75.75 0 .41-.34.75-.75.75h-9c-.42 0-.75-.34-.75-.75Z"/></g></svg>