<svg viewBox="0 0 24 24" xmlns="http://www.w3.org/2000/svg"><g fill-rule="evenodd"><path d="M1.25 9c0-.42.33-.75.75-.75h20c.41 0 .75.33.75.75v12c0 .41-.34.75-.75.75h-2.01c-.42 0-.75-.34-.75-.75 0-.42.33-.75.75-.75h1.25V9.75H2.74v10.5h13.18c.41 0 .75.33.75.75 0 .41-.34.75-.75.75H1.98c-.42 0-.75-.34-.75-.75V9Z"/><path d="M3.75 11.5c0-.42.33-.75.75-.75h11c.41 0 .75.33.75.75V18c0 .41-.34.75-.75.75h-11c-.42 0-.75-.34-.75-.75v-6.5Zm1.5.75v5h9.5v-5h-9.5Z"/><path d="M19.56 2.51c.26.31.23.78-.09 1.05l-7 6c-.28.23-.68.24-.96.01l-5-4c-.33-.26-.38-.74-.12-1.06 .25-.33.73-.38 1.05-.12L11.95 8l6.52-5.6c.31-.27.78-.24 1.05.08Z"/><path d="M19 15.25c.41 0 .75.33.75.75v2c0 .41-.34.75-.75.75 -.42 0-.75-.34-.75-.75v-2c0-.42.33-.75.75-.75Z"/><path d="M19 10.75c.41 0 .75.33.75.75v2c0 .41-.34.75-.75.75 -.42 0-.75-.34-.75-.75v-2c0-.42.33-.75.75-.75Z"/></g></svg>