<svg viewBox="0 0 24 24" xmlns="http://www.w3.org/2000/svg"><g fill-rule="evenodd"><path d="M2.25 12c0-1.52 1.23-2.75 2.75-2.75h9.5c1.51 0 2.75 1.23 2.75 2.75v.84l3.44-1.54c.23-.11.5-.09.71.05 .21.13.34.375.34.62v8c0 .25-.13.49-.35.62 -.22.13-.49.15-.72.05l-3.45-1.54v.84c0 1.51-1.24 2.75-2.75 2.75H9.84c-.42 0-.75-.34-.75-.75 0-.42.33-.75.75-.75h4.62c.69 0 1.25-.56 1.25-1.25V18.7c0-.91.93-1.51 1.75-1.15l2.74 1.21v-5.7l-2.75 1.21c-.83.36-1.76-.24-1.76-1.15v-1.24c0-.7-.56-1.25-1.25-1.25h-9.5c-.7 0-1.25.55-1.25 1.25v8c0 .69.55 1.25 1.25 1.25h.94c.41 0 .75.33.75.75 0 .41-.34.75-.75.75h-.95c-1.52 0-2.75-1.24-2.75-2.75v-8Z"/><path d="M5.25 13c0-.42.33-.75.75-.75h4c.41 0 .75.33.75.75 0 .41-.34.75-.75.75H6c-.42 0-.75-.34-.75-.75Z"/><path d="M13 2.75c-1.25 0-2.25 1-2.25 2.25 0 1.24 1 2.25 2.25 2.25 1.24 0 2.25-1.01 2.25-2.25 0-1.25-1.01-2.25-2.25-2.25ZM9.25 5c0-2.08 1.67-3.75 3.75-3.75 2.07 0 3.75 1.67 3.75 3.75 0 2.07-1.68 3.75-3.75 3.75 -2.08 0-3.75-1.68-3.75-3.75Z"/><path d="M5.5 3.75c-.97 0-1.75.78-1.75 1.75 0 .96.78 1.75 1.75 1.75 .96 0 1.75-.79 1.75-1.75 0-.97-.79-1.75-1.75-1.75ZM2.25 5.5c0-1.8 1.45-3.25 3.25-3.25 1.79 0 3.25 1.45 3.25 3.25 0 1.79-1.46 3.25-3.25 3.25 -1.8 0-3.25-1.46-3.25-3.25Z"/></g></svg>