<svg viewBox="0 0 24 24" xmlns="http://www.w3.org/2000/svg"><g fill-rule="evenodd"><path d="M12 1.25c.29 0 .55.17.68.43l3 6.5c.05.11.07.24.06.37l-.87 10.34c-.04.41-.4.71-.81.68 -.42-.04-.72-.4-.69-.81l.84-10.15 -2.24-4.85L9.73 8.6l.84 10.14c.03.41-.28.77-.69.8 -.42.03-.78-.28-.81-.69L8.2 8.5c-.02-.13.01-.26.06-.38l2.99-6.5c.12-.27.38-.44.68-.44Z"/><path d="M9.65 8.12c.2.35.08.81-.28 1.02l-6.63 3.78v1.81h6.75c.41 0 .75.33.75.75 0 .41-.34.75-.75.75h-7.5c-.42 0-.75-.34-.75-.75v-3c0-.27.14-.52.37-.66l7-4c.35-.21.81-.09 1.02.27Z"/><path d="M14.34 8.12c-.21.35-.09.81.27 1.02l6.62 3.78v1.81h-6.75c-.42 0-.75.33-.75.75 0 .41.33.75.75.75h7.5c.41 0 .75-.34.75-.75v-3c0-.27-.15-.52-.38-.66l-7-4c-.36-.21-.82-.09-1.03.27Z"/><path d="M11.69 17.31c.19-.09.41-.09.6 0l4.5 2c.27.12.44.38.44.68v2c0 .41-.34.75-.75.75h-.99c-.42 0-.75-.34-.75-.75 0-.42.33-.75.75-.75h.23v-.77l-3.75-1.67 -3.75 1.66v.76h3.25c.41 0 .75.33.75.75 0 .41-.34.75-.75.75h-4c-.42 0-.75-.34-.75-.75v-2c0-.3.17-.57.44-.69l4.5-2Z"/><path d="M5 7.25c.41 0 .75.33.75.75v2.5c0 .41-.34.75-.75.75 -.42 0-.75-.34-.75-.75V8c0-.42.33-.75.75-.75Z"/><path d="M19 7.25c.41 0 .75.33.75.75v2.5c0 .41-.34.75-.75.75 -.42 0-.75-.34-.75-.75V8c0-.42.33-.75.75-.75Z"/></g></svg>