<svg viewBox="0 0 24 24" xmlns="http://www.w3.org/2000/svg"><g fill-rule="evenodd"><path d="M5.74 13.91c.12.39-.09.81-.48.94 -.9.29-1.57.63-2 .97 -.44.34-.54.6-.54.75 0 .14.08.4.5.74 .41.33 1.05.66 1.91.95 1.71.58 4.12.95 6.82.95s5.11-.38 6.82-.96c.86-.3 1.5-.63 1.91-.96 .41-.34.5-.6.5-.75 0-.16-.1-.42-.54-.76 -.44-.34-1.1-.68-2-.98 -.4-.13-.61-.56-.48-.95 .12-.4.55-.61.94-.48 .98.32 1.83.72 2.44 1.21 .61.48 1.1 1.13 1.1 1.93 0 .79-.48 1.43-1.07 1.9 -.6.48-1.43.88-2.38 1.2 -1.91.64-4.5 1.03-7.32 1.03 -2.83 0-5.41-.39-7.32-1.04 -.95-.33-1.78-.73-2.38-1.21 -.6-.48-1.07-1.12-1.07-1.91 0-.81.49-1.46 1.1-1.94 .61-.49 1.46-.9 2.44-1.22 .39-.13.81.08.94.47Z"/><path d="M8.41 5.2c-.44-.13-.89.14-.96.59l-1.58 9.44h12.22l-.7-4.18c-.07-.41.2-.8.61-.87 .4-.07.79.2.86.61l.74 4.46c.12.76-.47 1.45-1.24 1.45H5.54c-.78 0-1.36-.7-1.24-1.46L5.92 5.5c.22-1.34 1.56-2.18 2.86-1.79l3.15.94 3.15-.95c1.298-.39 2.64.44 2.86 1.78l.21 1.28c.06.4-.21.79-.62.86 -.41.06-.8-.21-.87-.62l-.22-1.29c-.08-.45-.53-.73-.96-.6l-3.37 1.01c-.15.04-.3.04-.44 0L8.3 5.1Z"/><path d="M11.99 6.75c.25 0 .49.12.62.34l.7 1.09 1.29.06c.25.01.48.15.61.37 .12.22.13.49.01.71l-.6 1.15 .59 1.15c.11.22.1.49-.02.71 -.13.22-.36.36-.62.37l-1.3.06 -.71 1.09c-.14.21-.38.34-.63.34 -.26 0-.5-.13-.63-.35l-.71-1.1 -1.3-.07c-.26-.02-.49-.16-.62-.38 -.13-.23-.14-.5-.02-.72l.59-1.16 -.6-1.16c-.12-.23-.11-.5.01-.72 .12-.23.35-.37.61-.38l1.29-.07 .7-1.1c.13-.22.37-.35.62-.35Zm0 2.13l-.29.44c-.14.2-.36.32-.6.34l-.53.02 .23.46c.1.21.1.46 0 .68l-.24.46 .52.02c.24.01.46.13.59.34l.28.44 .28-.45c.13-.21.35-.33.59-.35l.52-.03 -.24-.47c-.11-.22-.11-.47 0-.69l.23-.47 -.53-.03c-.25-.02-.47-.14-.6-.35l-.29-.45Z"/></g></svg>