<svg viewBox="0 0 24 24" xmlns="http://www.w3.org/2000/svg"><g fill-rule="evenodd"><path d="M6.5 3c0-.56.44-1 1-1h9c.55 0 1 .44 1 1v16.5c0 .55-.45 1-1 1h-9c-.56 0-1-.45-1-1V3Zm2 1v14.5h7V4h-7Z"/><path d="M9 13.5c0-.56.44-1 1-1h4c.55 0 1 .44 1 1v6c0 .55-.45 1-1 1h-4c-.56 0-1-.45-1-1v-6Zm2 1v4h2v-4h-2Z"/><path d="M15.5 7.5c0-.56.44-1 1-1H21c.55 0 1 .44 1 1v12c0 .55-.45 1-1 1h-4.5c-.56 0-1-.45-1-1v-12Zm2 1v10H20v-10h-2.5Z"/><path d="M1 19.5c0-.56.44-1 1-1h20c.55 0 1 .44 1 1V22c0 .55-.45 1-1 1H2c-.56 0-1-.45-1-1v-2.5Zm2 1v.5h18v-.5H3Z"/><path d="M2 7.5c0-.56.44-1 1-1h4.5c.55 0 1 .44 1 1v12c0 .55-.45 1-1 1H3c-.56 0-1-.45-1-1v-12Zm2 1v10h2.5v-10H4Z"/><path d="M12 7c-.56 0-1 .44-1 1 0 .55.44 1 1 1 .55 0 1-.45 1-1 0-.56-.45-1-1-1ZM9 8c0-1.66 1.34-3 3-3 1.65 0 3 1.34 3 3 0 1.65-1.35 3-3 3 -1.66 0-3-1.35-3-3Z"/></g></svg>