<svg viewBox="0 0 24 24" xmlns="http://www.w3.org/2000/svg"><g fill-rule="evenodd"><path d="M7.25 9.33c.18-.22.46-.34.74-.34h7.99c.28 0 .55.12.74.33 .18.21.27.5.24.78l-1.5 12c-.07.5-.49.87-1 .87h-5c-.51 0-.93-.38-1-.88l-1.5-12c-.04-.29.05-.58.24-.79Zm1.88 1.66l1.25 10h3.23l1.25-10H9.12Z"/><path d="M3.78 8.41c-.27-1.25.68-2.42 1.95-2.42h12.52c1.27 0 2.22 1.17 1.95 2.41l-1.08 5c-.2.92-1.02 1.58-1.96 1.58h-1.7v-2h1.69l1.07-5H5.69l1.07 5h1.69v2h-1.7c-.95 0-1.758-.66-1.96-1.59L3.71 8.38Z"/><path d="M9 4.53l2.55-1.71 -1.11-1.67 -3 2c-.28.18-.45.49-.45.83v3h2V4.51Z"/><path d="M6.74 21h10.25v2H6.73v-2Z"/></g></svg>