<svg viewBox="0 0 24 24" xmlns="http://www.w3.org/2000/svg"><g fill-rule="evenodd"><path d="M12 4.5c-4.15 0-7.5 3.35-7.5 7.5 0 4.14 3.35 7.5 7.5 7.5 4.14 0 7.5-3.36 7.5-7.5 0-4.15-3.36-7.5-7.5-7.5ZM3.5 12c0-4.7 3.8-8.5 8.5-8.5 4.69 0 8.5 3.8 8.5 8.5 0 4.69-3.81 8.5-8.5 8.5 -4.7 0-8.5-3.81-8.5-8.5Z"/><path d="M12.5 10.69v-3.7h-1v5c0 .2.12.39.32.46 .19.07.41.02.55-.14l2.5-2.79 -.75-.67 -1.63 1.81Z"/><path d="M20.73 5.28l-2.27-2.27 -.71.7 2.26 2.26 .7-.71Z"/><path d="M3.26 5.28l2.26-2.27 .7.7 -2.27 2.26 -.71-.71Z"/></g></svg>