<svg viewBox="0 0 24 24" xmlns="http://www.w3.org/2000/svg"><g fill-rule="evenodd"><path d="M1.5 4c0-.28.22-.5.5-.5h20c.27 0 .5.22.5.5v18c0 .27-.23.5-.5.5H2c-.28 0-.5-.23-.5-.5V4Zm1 .5v17h19v-17h-19Z"/><path d="M1.5 4c0-.28.22-.5.5-.5h20c.27 0 .5.22.5.5v5c0 .27-.23.5-.5.5H2c-.28 0-.5-.23-.5-.5V4Zm1 .5v4h19v-4h-19Z"/><path d="M5.5 2v3.5h-1V2h1Z"/><path d="M12.5 2v3.5h-1V2h1Z"/><path d="M19.5 2v3.5h-1V2h1Z"/><path d="M7.5 13.5h-2v-1h2v1Z"/><path d="M7.5 17.5h-2v-1h2v1Z"/><path d="M13 13.5h-2v-1h2v1Z"/><path d="M13 17.5h-2v-1h2v1Z"/><path d="M18.5 13.5h-2v-1h2v1Z"/><path d="M18.5 17.5h-2v-1h2v1Z"/></g></svg>