<svg viewBox="0 0 24 24" xmlns="http://www.w3.org/2000/svg"><g fill-rule="evenodd"><path d="M1.5 6c0-1.39 1.11-2.5 2.5-2.5h16c1.38 0 2.5 1.11 2.5 2.5v14c0 1.38-1.12 2.5-2.5 2.5H4c-1.39 0-2.5-1.12-2.5-2.5V6ZM4 4.5c-.83 0-1.5.67-1.5 1.5v14c0 .82.67 1.5 1.5 1.5h16c.82 0 1.5-.68 1.5-1.5V6c0-.83-.68-1.5-1.5-1.5H4Z"/><path d="M1.5 6c0-1.39 1.11-2.5 2.5-2.5h16c1.38 0 2.5 1.11 2.5 2.5v3c0 .27-.23.5-.5.5H2c-.28 0-.5-.23-.5-.5V6ZM4 4.5c-.83 0-1.5.67-1.5 1.5v2.5h19V6c0-.83-.68-1.5-1.5-1.5H4Z"/><path d="M5.5 2v3.5h-1V2h1Z"/><path d="M12.5 2v3.5h-1V2h1Z"/><path d="M19.5 2v3.5h-1V2h1Z"/><path d="M13 13c1.38 0 2.5 1.11 2.5 2.5 0 1.38-1.12 2.5-2.5 2.5v1c1.93 0 3.5-1.57 3.5-3.5 0-1.94-1.57-3.5-3.5-3.5 -1.94 0-3.5 1.56-3.5 3.5V17h1v-1.5c0-1.39 1.11-2.5 2.5-2.5Z"/><path d="M10.31 17.89l2.5-2 -.63-.79 -2.19 1.75 -2.19-1.76 -.63.78 2.5 2c.18.14.44.14.62 0Z"/></g></svg>