<svg viewBox="0 0 24 24" xmlns="http://www.w3.org/2000/svg"><g fill-rule="evenodd"><path d="M2.5 3c0-.28.22-.5.5-.5h18c.27 0 .5.22.5.5v18c0 .27-.23.5-.5.5H3c-.28 0-.5-.23-.5-.5V3Zm1 .5v17h17v-17h-17Z"/><path d="M12 4.5c-4.15 0-7.5 3.35-7.5 7.5 0 4.14 3.35 7.5 7.5 7.5 4.14 0 7.5-3.36 7.5-7.5 0-4.15-3.36-7.5-7.5-7.5ZM3.5 12c0-4.7 3.8-8.5 8.5-8.5 4.69 0 8.5 3.8 8.5 8.5 0 4.69-3.81 8.5-8.5 8.5 -4.7 0-8.5-3.81-8.5-8.5Z"/><path d="M15.85 8.85l-3.5 3.49c-.15.14-.36.18-.55.1 -.19-.08-.31-.26-.31-.47V8.46h1v2.29l2.64-2.65 .7.7Z"/></g></svg>