<svg viewBox="0 0 24 24" xmlns="http://www.w3.org/2000/svg"><g fill-rule="evenodd"><path d="M12 7.5c-2.49 0-4.5 2.01-4.5 4.5 0 2.48 2.01 4.5 4.5 4.5 2.48 0 4.5-2.02 4.5-4.5 0-2.49-2.02-4.5-4.5-4.5ZM6.5 12c0-3.04 2.46-5.5 5.5-5.5 3.03 0 5.5 2.46 5.5 5.5 0 3.03-2.47 5.5-5.5 5.5 -3.04 0-5.5-2.47-5.5-5.5Z"/><path d="M8.5 2c0-.28.22-.5.5-.5h6c.27 0 .5.22.5.5v6c0 .27-.23.5-.5.5 -.28 0-.5-.23-.5-.5V2.5h-5V8c0 .27-.23.5-.5.5 -.28 0-.5-.23-.5-.5V2Z"/><path d="M8.5 22c0 .27.22.5.5.5h6c.27 0 .5-.23.5-.5v-6c0-.28-.23-.5-.5-.5 -.28 0-.5.22-.5.5v5.5h-5V16c0-.28-.23-.5-.5-.5 -.28 0-.5.22-.5.5v6Z"/></g></svg>