<svg viewBox="0 0 24 24" xmlns="http://www.w3.org/2000/svg"><g fill-rule="evenodd"><path d="M6.12 3.17c-.13-.06-.28-.01-.34.12L3.24 8.72c-.06.12-.01.27.12.33l8.6 4.01c.12.05.27 0 .33-.13l1.51-3.24c.38-.83 1.34-1.23 2.2-.9l4.36 1.64c.12.04.25-.01.31-.13l.03-.07c.05-.13 0-.28-.13-.34l-9.95-4.64c-.38-.18-.54-.63-.37-1 .17-.38.62-.54.99-.37l9.94 4.63c.87.4 1.25 1.44.84 2.32l-.04.06c-.39.82-1.35 1.22-2.21.89l-4.37-1.65c-.13-.05-.26.01-.32.12l-1.52 3.23c-.41.87-1.45 1.25-2.33.84L2.62 10.3c-.88-.41-1.26-1.45-.85-2.33L4.3 2.53c.4-.88 1.44-1.26 2.32-.85l.56.26c.37.17.53.62.36.99 -.18.37-.63.53-1 .36l-.57-.27Z"/><path d="M6.3 5.74c.17-.38.62-.54.99-.37l3.62 1.69c.37.17.53.62.36.99 -.18.37-.63.53-1 .36l-3.63-1.7c-.38-.18-.54-.63-.37-1Z"/><path d="M19.29 10.41c.37.17.53.62.36.99l-1.48 3.17c-.18.37-.63.53-1 .36l-4.08-1.91c-.38-.18-.54-.63-.37-1 .17-.38.62-.54.99-.37l3.39 1.58 1.16-2.5c.17-.38.62-.54.99-.37Z"/><path d="M1.25 17c0-.42.33-.75.75-.75h3c.41 0 .75.33.75.75v5c0 .41-.34.75-.75.75H2c-.42 0-.75-.34-.75-.75v-5Zm1.5.75v3.5h1.5v-3.5h-1.5Z"/><path d="M9 11.75c.41 0 .75.33.75.75v5c0 1.51-1.24 2.75-2.75 2.75H5c-.42 0-.75-.34-.75-.75 0-.42.33-.75.75-.75h2c.69 0 1.25-.56 1.25-1.25v-5c0-.42.33-.75.75-.75Z"/></g></svg>