<svg viewBox="0 0 24 24" xmlns="http://www.w3.org/2000/svg"><g fill-rule="evenodd"><path d="M7.25 11.16c0-2.72 2.2-4.92 4.91-4.92s4.91 2.2 4.91 4.91v5c0 .41-.34.75-.75.75 -.42 0-.75-.34-.75-.75v-5c0-1.89-1.53-3.42-3.42-3.42s-3.42 1.52-3.42 3.41v5.83c0 .41-.34.75-.75.75 -.42 0-.75-.34-.75-.75v-5.84Z"/><path d="M9.75 11.16c0-1.34 1.08-2.42 2.41-2.42s2.41 1.08 2.41 2.41v5.83c0 .41-.34.75-.75.75 -.42 0-.75-.34-.75-.75v-5.84c0-.51-.42-.92-.92-.92 -.51 0-.92.41-.92.91v5c0 .41-.34.75-.75.75 -.42 0-.75-.34-.75-.75v-5Z"/><path d="M12 2.75c-5.11 0-9.25 4.14-9.25 9.25 0 5.1 4.14 9.25 9.25 9.25 .41 0 .75.33.75.75 0 .41-.34.75-.75.75 -5.94 0-10.75-4.82-10.75-10.75C1.25 6.06 6.06 1.25 12 1.25c5.93 0 10.75 4.81 10.75 10.75 0 4.4-2.66 8.197-6.45 9.85 -.38.16-.83-.01-.99-.39 -.17-.38 0-.83.38-.99 3.26-1.43 5.55-4.69 5.55-8.49 0-5.11-4.15-9.25-9.25-9.25Z"/></g></svg>