<svg viewBox="0 0 24 24" xmlns="http://www.w3.org/2000/svg"><path fill-rule="evenodd" d="M12.42 3.85c-.2-.14-.46-.14-.66 0L2.97 9.99c-.26.17-.32.53-.14.78 .17.25.53.31.78.13l.56-.4c.22-.17.52-.18.77-.06 .24.12.4.38.4.66v1.85c0 .41-.34.75-.75.75 -.42 0-.75-.34-.75-.75v-.55c-.83.23-1.75-.07-2.27-.81 -.66-.94-.43-2.23.5-2.88l8.78-6.15c.71-.5 1.65-.5 2.37 0L22 8.7c.93.65 1.16 1.94.5 2.87 -.52.74-1.44 1.03-2.27.8v5.475c0 2.11-1.72 3.82-3.83 3.82H7.61c-2.12 0-3.83-1.72-3.83-3.83v-.93c0-.42.33-.75.75-.75 .41 0 .75.33.75.75v.92c0 1.28 1.04 2.32 2.32 2.32h8.78c1.28 0 2.32-1.05 2.32-2.33v-6.78c0-.28.15-.54.4-.67 .24-.13.54-.11.77.05l.56.39c.25.17.61.11.78-.14 .17-.26.11-.62-.14-.79l-8.79-6.15Z"/></svg>