<svg viewBox="0 0 24 24" xmlns="http://www.w3.org/2000/svg"><path fill-rule="evenodd" d="M12.71 2.97c-.44-.31-1.01-.31-1.44 0L3.26 8.56c-.34.23-.54.61-.54 1.02v9.95c0 .69.55 1.25 1.25 1.25h4.25v-.81c0-.42.33-.75.75-.75 .41 0 .75.33.75.75v1.55c0 .41-.34.75-.75.75h-5c-1.52 0-2.75-1.24-2.75-2.75V9.56c0-.9.43-1.74 1.17-2.26l8-5.6c.94-.67 2.2-.67 3.154-.001l8 5.59c.73.51 1.17 1.35 1.17 2.25v9.95c0 1.51-1.24 2.75-2.75 2.75h-5c-.42 0-.75-.34-.75-.75v-7c0-.14-.12-.25-.25-.25h-4c-.14 0-.25.11-.25.25v1.44c0 .41-.34.75-.75.75 -.42 0-.75-.34-.75-.75v-1.45c0-.97.78-1.75 1.75-1.75h4c.96 0 1.75.78 1.75 1.75v6.25h4.25c.69 0 1.25-.56 1.25-1.25V9.51c0-.41-.2-.8-.54-1.03l-8-5.6Z"/></svg>