<svg viewBox="0 0 24 24" xmlns="http://www.w3.org/2000/svg"><g fill-rule="evenodd"><path d="M7.25 5c0-2.08 1.67-3.75 3.75-3.75h2c2.07 0 3.75 1.67 3.75 3.75v2c0 .41-.34.75-.75.75 -.42 0-.75-.34-.75-.75V5c0-1.25-1.01-2.25-2.25-2.25h-2c-1.25 0-2.25 1-2.25 2.25v7c0 1.24 1 2.25 2.25 2.25h2c1.24 0 2.25-1.01 2.25-2.25v-1.5c0-.42.33-.75.75-.75 .41 0 .75.33.75.75V12c0 2.07-1.68 3.75-3.75 3.75h-2c-2.08 0-3.75-1.68-3.75-3.75V5Z"/><path d="M5 9.25c.41 0 .75.33.75.75v2c0 2.89 2.35 5.25 5.25 5.25h2c2.89 0 5.25-2.36 5.25-5.25v-2c0-.42.33-.75.75-.75 .41 0 .75.33.75.75v2c0 3.72-3.03 6.75-6.75 6.75h-2c-3.73 0-6.75-3.03-6.75-6.75v-2c0-.42.33-.75.75-.75Z"/><path d="M12 17.25c.41 0 .75.33.75.75v4c0 .41-.34.75-.75.75 -.42 0-.75-.34-.75-.75v-4c0-.42.33-.75.75-.75Z"/><path d="M9.25 22c0-.42.33-.75.75-.75h4c.41 0 .75.33.75.75 0 .41-.34.75-.75.75h-4c-.42 0-.75-.34-.75-.75Z"/><path d="M13.25 11c0-.42.33-.75.75-.75h2c.41 0 .75.33.75.75 0 .41-.34.75-.75.75h-2c-.42 0-.75-.34-.75-.75Z"/><path d="M7.25 11c0-.42.33-.75.75-.75h2c.41 0 .75.33.75.75 0 .41-.34.75-.75.75H8c-.42 0-.75-.34-.75-.75Z"/><path d="M13.25 6.5c0-.42.33-.75.75-.75h2c.41 0 .75.33.75.75 0 .41-.34.75-.75.75h-2c-.42 0-.75-.34-.75-.75Z"/><path d="M7.25 6.5c0-.42.33-.75.75-.75h2c.41 0 .75.33.75.75 0 .41-.34.75-.75.75H8c-.42 0-.75-.34-.75-.75Z"/></g></svg>