<svg viewBox="0 0 24 24" xmlns="http://www.w3.org/2000/svg"><g fill-rule="evenodd"><path d="M6.25 3c0-.97.78-1.75 1.75-1.75h8c.96 0 1.75.78 1.75 1.75v.5c0 .41-.34.75-.75.75 -.42 0-.75-.34-.75-.75V3c0-.14-.12-.25-.25-.25H8c-.14 0-.25.11-.25.25v14c0 2.34 1.9 4.25 4.25 4.25 2.34 0 4.25-1.91 4.25-4.25V7.5c0-.42.33-.75.75-.75 .41 0 .75.33.75.75V17c0 3.17-2.58 5.75-5.75 5.75 -3.18 0-5.75-2.58-5.75-5.75V3Z"/><path d="M12 14.75c-.7 0-1.25.55-1.25 1.25 0 .69.55 1.25 1.25 1.25 .69 0 1.25-.56 1.25-1.25 0-.7-.56-1.25-1.25-1.25ZM9.25 16c0-1.52 1.23-2.75 2.75-2.75 1.51 0 2.75 1.23 2.75 2.75 0 1.51-1.24 2.75-2.75 2.75 -1.52 0-2.75-1.24-2.75-2.75Z"/><path d="M10 4.25c.41 0 .75.33.75.75v1c0 .41-.34.75-.75.75 -.42 0-.75-.34-.75-.75V5c0-.42.33-.75.75-.75Z"/><path d="M10 8.25c.41 0 .75.33.75.75v1c0 .41-.34.75-.75.75 -.42 0-.75-.34-.75-.75V9c0-.42.33-.75.75-.75Z"/><path d="M14 4.25c.41 0 .75.33.75.75v1c0 .41-.34.75-.75.75 -.42 0-.75-.34-.75-.75V5c0-.42.33-.75.75-.75Z"/><path d="M14 8.25c.41 0 .75.33.75.75v1c0 .41-.34.75-.75.75 -.42 0-.75-.34-.75-.75V9c0-.42.33-.75.75-.75Z"/></g></svg>