<svg viewBox="0 0 24 24" xmlns="http://www.w3.org/2000/svg"><g fill-rule="evenodd"><path d="M1.25 14c0-.97.78-1.75 1.75-1.75h18c.96 0 1.75.78 1.75 1.75v3c0 .96-.79 1.75-1.75 1.75H10c-.42 0-.75-.34-.75-.75 0-.42.33-.75.75-.75h11c.13 0 .25-.12.25-.25v-3c0-.14-.12-.25-.25-.25H3c-.14 0-.25.11-.25.25v3c0 .13.11.25.25.25h3c.41 0 .75.33.75.75 0 .41-.34.75-.75.75H3c-.97 0-1.75-.79-1.75-1.75v-3Z"/><path d="M2.83 3.26c.4-.09.8.16.89.56l2 9c.08.4-.17.8-.57.89 -.41.08-.81-.17-.9-.57l-2-9c-.09-.41.16-.81.56-.9Z"/><path d="M21.16 3.26c-.41-.09-.81.16-.9.56l-2 9c-.09.4.16.8.56.89 .4.08.8-.17.89-.57l2-9c.08-.41-.17-.81-.57-.9Z"/><path d="M7.91 3.25c.41-.05.78.25.82.66l1 9c.04.41-.26.78-.67.82 -.42.04-.79-.26-.83-.67l-1-9c-.05-.42.25-.79.66-.83Z"/><path d="M16.08 3.25c.41.04.7.41.66.82l-1 8.99c-.05.41-.42.7-.83.66 -.42-.05-.71-.42-.67-.83l1-9.01c.04-.42.41-.71.82-.67Z"/><path d="M5 17.25c.41 0 .75.33.75.75v2c0 .41-.34.75-.75.75 -.42 0-.75-.34-.75-.75v-2c0-.42.33-.75.75-.75Z"/><path d="M19 17.25c.41 0 .75.33.75.75v2c0 .41-.34.75-.75.75 -.42 0-.75-.34-.75-.75v-2c0-.42.33-.75.75-.75Z"/><path d="M16.25 15.5c0-.42.33-.75.75-.75h2c.41 0 .75.33.75.75 0 .41-.34.75-.75.75h-2c-.42 0-.75-.34-.75-.75Z"/><path d="M11.25 15.5c0-.42.33-.75.75-.75h2c.41 0 .75.33.75.75 0 .41-.34.75-.75.75h-2c-.42 0-.75-.34-.75-.75Z"/></g></svg>