<svg viewBox="0 0 24 24" xmlns="http://www.w3.org/2000/svg"><g fill-rule="evenodd"><path d="M19.77 5.76c-.69-.69-1.8-.69-2.48 0 -.3.29-.77.29-1.07 0 -.3-.3-.3-.77 0-1.07 1.26-1.27 3.32-1.27 4.59 0 .29.29.29.76 0 1.06 -.3.29-.77.29-1.07 0Z"/><path d="M21.54 3.99c-1.66-1.66-4.36-1.66-6.02 0 -.3.29-.77.29-1.07 0 -.3-.3-.3-.77 0-1.07 2.24-2.25 5.88-2.25 8.13 0 .29.29.29.76 0 1.06 -.3.29-.77.29-1.07 0Z"/><path d="M18.53 6.25c.41 0 .75.33.75.75v1c0 .41-.34.75-.75.75 -.42 0-.75-.34-.75-.75V7c0-.42.33-.75.75-.75Z"/><path d="M1.25 15c0-.42.33-.75.75-.75h2c.41 0 .75.33.75.75 0 .41-.34.75-.75.75H2c-.42 0-.75-.34-.75-.75Z"/><path d="M18.25 15c0-.42.33-.75.75-.75h2c.41 0 .75.33.75.75 0 .41-.34.75-.75.75h-2c-.42 0-.75-.34-.75-.75Z"/><path d="M1.25 20c0-.42.33-.75.75-.75h2c.41 0 .75.33.75.75 0 .41-.34.75-.75.75H2c-.42 0-.75-.34-.75-.75Z"/><path d="M18.25 20c0-.42.33-.75.75-.75h2c.41 0 .75.33.75.75 0 .41-.34.75-.75.75h-2c-.42 0-.75-.34-.75-.75Z"/><path d="M3.25 13.5c0-1.25 1-2.25 2.25-2.25 1.24 0 2.25 1 2.25 2.25v7c0 1.24-1.01 2.25-2.25 2.25 -1.25 0-2.25-1.01-2.25-2.25v-7Zm2.25-.75c-.42 0-.75.33-.75.75v7c0 .41.33.75.75.75 .41 0 .75-.34.75-.75v-7c0-.42-.34-.75-.75-.75Z"/><path d="M6.25 13.5c0-1.25 1-2.25 2.25-2.25 1.24 0 2.25 1 2.25 2.25v7c0 1.24-1.01 2.25-2.25 2.25 -1.25 0-2.25-1.01-2.25-2.25v-7Zm2.25-.75c-.42 0-.75.33-.75.75v7c0 .41.33.75.75.75 .41 0 .75-.34.75-.75v-7c0-.42-.34-.75-.75-.75Z"/><path d="M9.25 13.5c0-1.25 1-2.25 2.25-2.25 1.24 0 2.25 1 2.25 2.25v7c0 1.24-1.01 2.25-2.25 2.25 -1.25 0-2.25-1.01-2.25-2.25v-7Zm2.25-.75c-.42 0-.75.33-.75.75v7c0 .41.33.75.75.75 .41 0 .75-.34.75-.75v-7c0-.42-.34-.75-.75-.75Z"/><path d="M12.25 13.5c0-1.25 1-2.25 2.25-2.25 1.24 0 2.25 1 2.25 2.25v1c0 .41-.34.75-.75.75 -.42 0-.75-.34-.75-.75v-1c0-.42-.34-.75-.75-.75 -.42 0-.75.33-.75.75v7c0 .41.33.75.75.75 .41 0 .75-.34.75-.75v-2c0-.42.33-.75.75-.75 .41 0 .75.33.75.75v2c0 1.24-1.01 2.25-2.25 2.25 -1.25 0-2.25-1.01-2.25-2.25v-7Z"/><path d="M15.25 13.5c0-1.25 1-2.25 2.25-2.25 1.24 0 2.25 1 2.25 2.25v7c0 1.24-1.01 2.25-2.25 2.25 -1.25 0-2.25-1.01-2.25-2.25v-2c0-.42.33-.75.75-.75 .41 0 .75.33.75.75v2c0 .41.33.75.75.75 .41 0 .75-.34.75-.75v-7c0-.42-.34-.75-.75-.75 -.42 0-.75.33-.75.75v1c0 .41-.34.75-.75.75 -.42 0-.75-.34-.75-.75v-1Z"/></g></svg>