<svg viewBox="0 0 24 24" xmlns="http://www.w3.org/2000/svg"><g fill-rule="evenodd"><path d="M19.77 5.76c-.69-.69-1.8-.69-2.48 0 -.3.29-.77.29-1.07 0 -.3-.3-.3-.77 0-1.07 1.26-1.27 3.32-1.27 4.59 0 .29.29.29.76 0 1.06 -.3.29-.77.29-1.07 0Z"/><path d="M21.54 3.99c-1.66-1.66-4.36-1.66-6.02 0 -.3.29-.77.29-1.07 0 -.3-.3-.3-.77 0-1.07 2.24-2.25 5.88-2.25 8.13 0 .29.29.29.76 0 1.06 -.3.29-.77.29-1.07 0Z"/><path d="M18.53 6.25c.41 0 .75.33.75.75v1c0 .41-.34.75-.75.75 -.42 0-.75-.34-.75-.75V7c0-.42.33-.75.75-.75Z"/><path d="M9.5 7.75c-3.73 0-6.75 3.02-6.75 6.75 0 2.4 1.25 4.51 3.15 5.71 .35.22.45.68.23 1.03 -.23.35-.69.45-1.04.23 -2.32-1.47-3.85-4.04-3.85-6.98 0-4.56 3.69-8.25 8.25-8.25 4.55 0 8.25 3.69 8.25 8.25 0 4.55-3.7 8.25-8.25 8.25 -.42 0-.75-.34-.75-.75 0-.42.33-.75.75-.75 3.72 0 6.75-3.03 6.75-6.75 0-3.73-3.03-6.75-6.75-6.75Z"/><path d="M10.08 10.03l-.59.46 -.59-.47c.14-.18.35-.29.58-.29 .22 0 .44.1.58.28Zm-.59 1.71c-.19.26-.41.57-.63.9 -.31.46-.6.95-.82 1.39 -.23.47-.32.79-.32.96 0 .96.78 1.75 1.75 1.75 .96 0 1.75-.79 1.75-1.75 0-.17-.09-.49-.32-.97 -.22-.45-.51-.94-.82-1.4 -.22-.33-.44-.64-.63-.91Zm0-1.25c-.59-.47-.59-.47-.59-.47l-.01 0 -.01 0 -.03.02c-.02.02-.05.06-.09.1 -.08.09-.18.22-.3.38 -.25.32-.57.76-.89 1.26 -.33.49-.66 1.04-.91 1.56 -.25.5-.47 1.08-.47 1.61 0 1.79 1.45 3.25 3.25 3.25 1.79 0 3.25-1.46 3.25-3.25 0-.53-.23-1.11-.47-1.62 -.26-.53-.59-1.08-.91-1.57 -.33-.5-.65-.94-.89-1.27 -.13-.17-.23-.3-.3-.39 -.04-.05-.07-.09-.09-.11L10 9.96l-.01-.01 -.01-.01c0-.01 0 0-.59.46Z"/></g></svg>