<svg viewBox="0 0 24 24" xmlns="http://www.w3.org/2000/svg"><g fill-rule="evenodd"><path d="M2.25 16.61c0-.42.33-.75.75-.75h5.5c.41 0 .75.33.75.75 0 .41-.34.75-.75.75H3c-.42 0-.75-.34-.75-.75Zm9.5 0c0-.42.33-.75.75-.75H14c.41 0 .75.33.75.75 0 .41-.34.75-.75.75h-1.5c-.42 0-.75-.34-.75-.75Z"/><path d="M4 15.86c.41 0 .75.33.75.75v2.79c0 .41-.34.75-.75.75 -.42 0-.75-.34-.75-.75v-2.8c0-.42.33-.75.75-.75Z"/><path d="M7 15.86c.41 0 .75.33.75.75v2.79c0 .41-.34.75-.75.75 -.42 0-.75-.34-.75-.75v-2.8c0-.42.33-.75.75-.75Z"/><path d="M16.5 14.75c-.97 0-1.75.78-1.75 1.75 0 .96.78 1.75 1.75 1.75 .96 0 1.75-.79 1.75-1.75 0-.97-.79-1.75-1.75-1.75Zm-3.25 1.75c0-1.8 1.45-3.25 3.25-3.25 1.79 0 3.25 1.45 3.25 3.25 0 1.79-1.46 3.25-3.25 3.25 -1.8 0-3.25-1.46-3.25-3.25Z"/><path d="M18.77 7.76c-.69-.69-1.8-.69-2.48 0 -.3.29-.77.29-1.07 0 -.3-.3-.3-.77 0-1.07 1.26-1.27 3.32-1.27 4.59 0 .29.29.29.76 0 1.06 -.3.29-.77.29-1.07 0Z"/><path d="M20.54 5.99c-1.66-1.66-4.36-1.66-6.02 0 -.3.29-.77.29-1.07 0 -.3-.3-.3-.77 0-1.07 2.24-2.25 5.88-2.25 8.13 0 .29.29.29.76 0 1.06 -.3.29-.77.29-1.07 0Z"/><path d="M17.53 8.25c.41 0 .75.33.75.75v1c0 .41-.34.75-.75.75 -.42 0-.75-.34-.75-.75V9c0-.42.33-.75.75-.75Z"/></g></svg>