<svg viewBox="0 0 24 24" xmlns="http://www.w3.org/2000/svg"><g fill-rule="evenodd"><path d="M19.77 5.76c-.69-.69-1.8-.69-2.48 0 -.3.29-.77.29-1.07 0 -.3-.3-.3-.77 0-1.07 1.26-1.27 3.32-1.27 4.59 0 .29.29.29.76 0 1.06 -.3.29-.77.29-1.07 0Z"/><path d="M21.54 3.99c-1.66-1.66-4.36-1.66-6.02 0 -.3.29-.77.29-1.07 0 -.3-.3-.3-.77 0-1.07 2.24-2.25 5.88-2.25 8.13 0 .29.29.29.76 0 1.06 -.3.29-.77.29-1.07 0Z"/><path d="M18.53 6.25c.41 0 .75.33.75.75v1c0 .41-.34.75-.75.75 -.42 0-.75-.34-.75-.75V7c0-.42.33-.75.75-.75Z"/><path d="M1.25 11c0-.42.33-.75.75-.75h2.5c.41 0 .75.33.75.75v11c0 .41-.34.75-.75.75H2c-.42 0-.75-.34-.75-.75v-1.5c0-.42.33-.75.75-.75 .41 0 .75.33.75.75v.75h1v-9.5h-1v4.75c0 .41-.34.75-.75.75 -.42 0-.75-.34-.75-.75V11Z"/><path d="M18.75 11c0-.42.33-.75.75-.75H22c.41 0 .75.33.75.75v11c0 .41-.34.75-.75.75h-2.5c-.42 0-.75-.34-.75-.75V11Zm1.5.75v9.5h1v-9.5h-1Z"/><path d="M12 9.25c.41 0 .75.33.75.75v11.5c0 .41-.34.75-.75.75 -.42 0-.75-.34-.75-.75V10c0-.42.33-.75.75-.75Z"/><path d="M8 10.75c.41 0 .75.33.75.75v10c0 .41-.34.75-.75.75 -.42 0-.75-.34-.75-.75v-10c0-.42.33-.75.75-.75Z"/><path d="M16 10.75c.41 0 .75.33.75.75v10c0 .41-.34.75-.75.75 -.42 0-.75-.34-.75-.75v-10c0-.42.33-.75.75-.75Z"/><path d="M12 10.75c-1.67 0-3.05.72-3.75 1.71 -.08.1-.18.19-.3.24l-2.72 1.26v6.77h13.5v-6.78l-2.72-1.27c-.12-.06-.22-.14-.3-.25 -.7-.99-2.08-1.72-3.75-1.72Zm-4.85.68c1.04-1.35 2.85-2.19 4.84-2.19 1.99 0 3.79.83 4.84 2.18l2.97 1.38c.26.12.43.38.43.67v8c0 .41-.34.75-.75.75h-15c-.42 0-.75-.34-.75-.75v-8c0-.3.16-.56.43-.68l2.97-1.39Z"/></g></svg>