<svg viewBox="0 0 24 24" xmlns="http://www.w3.org/2000/svg"><g fill-rule="evenodd"><path d="M1.25 4.5c0-.42.33-.75.75-.75h20c.41 0 .75.33.75.75V6c0 .41-.34.75-.75.75 -.42 0-.75-.34-.75-.75v-.75H2.75v10.5h18.5V10c0-.42.33-.75.75-.75 .41 0 .75.33.75.75v6.5c0 .41-.34.75-.75.75H2c-.42 0-.75-.34-.75-.75v-12Z"/><path d="M11.87 18.76c.08-.02.16-.02.24 0l9 1.5c.4.06.68.45.61.86 -.07.4-.46.68-.87.61l-8.88-1.48 -8.88 1.47c-.41.06-.8-.21-.87-.62 -.07-.41.2-.8.61-.87l8.99-1.5Z"/><path d="M9.27 16.294c.09-.33.38-.55.72-.55h4c.33 0 .62.22.72.54l1 3.5c.07.24 0 .51-.17.7 -.18.19-.43.28-.69.24l-2.88-.48 -2.88.47c-.26.04-.52-.05-.69-.25 -.18-.2-.24-.46-.17-.71l1-3.5Zm1.28.95l-.52 1.81 1.82-.31c.08-.02.16-.02.24 0l1.82.3 -.52-1.82h-2.87Z"/><path d="M13.27 11.26c-.69-.69-1.8-.69-2.48 0 -.3.29-.77.29-1.07 0 -.3-.3-.3-.77 0-1.07 1.26-1.27 3.32-1.27 4.59 0 .29.29.29.76 0 1.06 -.3.29-.77.29-1.07 0Z"/><path d="M15.04 9.49c-1.66-1.66-4.36-1.66-6.02 0 -.3.29-.77.29-1.07 0 -.3-.3-.3-.77 0-1.07 2.24-2.25 5.88-2.25 8.13 0 .29.29.29.76 0 1.06 -.3.29-.77.29-1.07 0Z"/><path d="M12.03 11.75c.41 0 .75.33.75.75v1c0 .41-.34.75-.75.75 -.42 0-.75-.34-.75-.75v-1c0-.42.33-.75.75-.75Z"/></g></svg>