<svg viewBox="0 0 24 24" xmlns="http://www.w3.org/2000/svg"><g fill-rule="evenodd"><path d="M19.77 5.76c-.69-.69-1.8-.69-2.48 0 -.3.29-.77.29-1.07 0 -.3-.3-.3-.77 0-1.07 1.26-1.27 3.32-1.27 4.59 0 .29.29.29.76 0 1.06 -.3.29-.77.29-1.07 0Z"/><path d="M21.54 3.99c-1.66-1.66-4.36-1.66-6.02 0 -.3.29-.77.29-1.07 0 -.3-.3-.3-.77 0-1.07 2.24-2.25 5.88-2.25 8.13 0 .29.29.29.76 0 1.06 -.3.29-.77.29-1.07 0Z"/><path d="M18.53 6.25c.41 0 .75.33.75.75v1c0 .41-.34.75-.75.75 -.42 0-.75-.34-.75-.75V7c0-.42.33-.75.75-.75Z"/><path d="M1.25 11c0-.42.33-.75.75-.75h3c.41 0 .75.33.75.75v11c0 .41-.34.75-.75.75H2c-.42 0-.75-.34-.75-.75V11Zm1.5.75v9.5h1.5v-9.5h-1.5Z"/><path d="M18.25 11c0-.42.33-.75.75-.75h3c.41 0 .75.33.75.75v1.5c0 .41-.34.75-.75.75 -.42 0-.75-.34-.75-.75v-.75h-1.5v9.5h1.5V16.5c0-.42.33-.75.75-.75 .41 0 .75.33.75.75V22c0 .41-.34.75-.75.75h-3c-.42 0-.75-.34-.75-.75V11Z"/><path d="M11.66 9.32c.21-.11.45-.11.67 0l7 3.5c.25.12.41.38.41.67v8c0 .41-.34.75-.75.75h-14c-.42 0-.75-.34-.75-.75v-8c0-.29.16-.55.41-.68l7-3.51Zm-5.92 4.63v6.78h12.5v-6.79l-6.25-3.125 -6.25 3.125Z"/><path d="M12 9.75c.41 0 .75.33.75.75v11c0 .41-.34.75-.75.75 -.42 0-.75-.34-.75-.75v-11c0-.42.33-.75.75-.75Z"/><path d="M8.5 11.25c.41 0 .75.33.75.75v9.5c0 .41-.34.75-.75.75 -.42 0-.75-.34-.75-.75V12c0-.42.33-.75.75-.75Z"/><path d="M15.5 11.25c.41 0 .75.33.75.75v9.5c0 .41-.34.75-.75.75 -.42 0-.75-.34-.75-.75V12c0-.42.33-.75.75-.75Z"/></g></svg>