<svg viewBox="0 0 24 24" xmlns="http://www.w3.org/2000/svg"><g fill-rule="evenodd"><path d="M9.75 5c0-.42.33-.75.75-.75h3c.41 0 .75.33.75.75 0 .41-.34.75-.75.75h-3c-.42 0-.75-.34-.75-.75Z"/><path d="M5.25 4c0-1.52 1.23-2.75 2.75-2.75h8c1.51 0 2.75 1.23 2.75 2.75v16c0 1.51-1.24 2.75-2.75 2.75H8c-1.52 0-2.75-1.24-2.75-2.75V8.5c0-.42.33-.75.75-.75 .41 0 .75.33.75.75V20c0 .69.55 1.25 1.25 1.25h8c.69 0 1.25-.56 1.25-1.25V4c0-.7-.56-1.25-1.25-1.25H8c-.7 0-1.25.55-1.25 1.25v.5c0 .41-.34.75-.75.75 -.42 0-.75-.34-.75-.75V4Z"/><path d="M9.7 10.75c.41 0 .75.33.75.75v4.05h3.1V11.5c0-.42.33-.75.75-.75 .41 0 .75.33.75.75v4.8c0 .41-.34.75-.75.75H9.7c-.42 0-.75-.34-.75-.75v-4.8c0-.42.33-.75.75-.75Z"/><path d="M11.57 9.38c.25-.19.6-.19.86 0l4 2.8c.33.23.42.7.18 1.04 -.24.33-.71.42-1.05.18l-3.57-2.5 -3.57 2.49c-.34.23-.81.15-1.05-.19 -.24-.34-.16-.81.18-1.05l4-2.81Z"/></g></svg>