<svg viewBox="0 0 24 24" xmlns="http://www.w3.org/2000/svg"><g fill-rule="evenodd"><path d="M12 3.75c-4.56 0-8.25 3.69-8.25 8.25 0 .41-.34.75-.75.75 -.42 0-.75-.34-.75-.75 0-5.39 4.36-9.75 9.75-9.75 5.38 0 9.75 4.36 9.75 9.75 0 5.38-4.37 9.75-9.75 9.75 -3.78 0-7.05-2.15-8.67-5.28 -.2-.37-.05-.83.32-1.02 .36-.2.82-.05 1.01.32 1.37 2.65 4.14 4.46 7.33 4.46 4.55 0 8.25-3.7 8.25-8.25 0-4.56-3.7-8.25-8.25-8.25Z"/><path d="M12 7.75c-1.25 0-2.25 1-2.25 2.25 0 1.24 1 2.25 2.25 2.25 1.24 0 2.25-1.01 2.25-2.25 0-1.25-1.01-2.25-2.25-2.25ZM8.25 10c0-2.08 1.67-3.75 3.75-3.75 2.07 0 3.75 1.67 3.75 3.75 0 2.07-1.68 3.75-3.75 3.75 -2.08 0-3.75-1.68-3.75-3.75Z"/><path d="M12 16.25c-2.32 0-4.34 1.25-5.42 3.12 -.21.35-.67.48-1.03.27 -.36-.21-.49-.67-.28-1.03 1.33-2.32 3.84-3.88 6.71-3.88 2.86 0 5.37 1.55 6.71 3.87 .2.35.08.81-.28 1.02 -.36.2-.82.08-1.03-.28 -1.09-1.87-3.11-3.13-5.42-3.13Z"/></g></svg>