<svg viewBox="0 0 24 24" xmlns="http://www.w3.org/2000/svg"><g fill-rule="evenodd"><path d="M5.05 4.11c-.3.23-.31.36-.31.38 0 .01 0 .15.3.38 .28.22.74.46 1.38.67 1.26.42 3.05.69 5.06.69s3.8-.28 5.06-.7c.63-.22 1.09-.45 1.38-.68 .29-.24.3-.37.3-.39 0-.02-.01-.16-.31-.39 -.29-.23-.75-.47-1.39-.68 -1.27-.43-3.06-.7-5.07-.7 -2.02 0-3.81.27-5.07.69 -.64.21-1.1.44-1.39.67Zm.9-2.1c1.45-.49 3.41-.78 5.54-.78 2.12 0 4.08.28 5.54.77 .72.24 1.36.54 1.83.91 .46.36.87.88.87 1.56 0 .67-.42 1.19-.88 1.56 -.48.37-1.12.67-1.84.91 -1.46.48-3.42.77-5.55.77s-4.09-.29-5.55-.78c-.73-.25-1.37-.55-1.84-.92s-.88-.89-.88-1.57 .41-1.2.87-1.57c.47-.38 1.11-.68 1.83-.92Z"/><path d="M4 3.75c.41 0 .75.33.75.75v3c0 .41-.34.75-.75.75 -.42 0-.75-.34-.75-.75v-3c0-.42.33-.75.75-.75Zm15 0c.41 0 .75.33.75.75v15c0 .67-.42 1.19-.88 1.56 -.48.37-1.12.67-1.84.91 -1.46.48-3.42.77-5.55.77s-4.09-.29-5.55-.78c-.73-.25-1.37-.55-1.84-.92s-.88-.89-.88-1.57v-8c0-.42.33-.75.75-.75 .41 0 .75.33.75.75v8c0 .01 0 .15.3.38 .28.22.74.46 1.38.67 1.26.42 3.05.69 5.06.69s3.8-.28 5.06-.7c.63-.22 1.09-.45 1.38-.68 .29-.24.3-.37.3-.39v-15c0-.42.33-.75.75-.75Z"/><path d="M4 13.25c.41 0 .75.33.75.75 0 .01 0 .15.3.38 .28.22.74.46 1.38.67 1.26.42 3.05.69 5.06.69s3.8-.28 5.06-.7c.63-.22 1.09-.45 1.38-.68 .29-.24.3-.37.3-.39 0-.42.33-.75.75-.75 .41 0 .75.33.75.75 0 .67-.42 1.19-.88 1.56 -.48.37-1.12.67-1.84.91 -1.46.48-3.42.77-5.55.77s-4.09-.29-5.55-.78c-.73-.25-1.37-.55-1.84-.92s-.88-.89-.88-1.57c0-.42.33-.75.75-.75Z"/><path d="M12.75 19c0-.42.33-.75.75-.75h2c.41 0 .75.33.75.75 0 .41-.34.75-.75.75h-2c-.42 0-.75-.34-.75-.75Z"/></g></svg>