<svg viewBox="0 0 24 24" xmlns="http://www.w3.org/2000/svg"><g fill-rule="evenodd"><path d="M6.58 1.37c.34-.23.81-.14 1.04.2l1.7 2.55c.04.06.12.11.2.11h4.92c.08 0 .16-.05.2-.12l1.7-2.56c.22-.35.69-.44 1.04-.21 .34.22.43.69.2 1.04l-1.71 2.55c-.33.48-.88.77-1.46.77H9.48c-.59 0-1.14-.3-1.46-.78L6.31 2.36c-.23-.35-.14-.82.2-1.05Z"/><path d="M4.25 4c0-1.52 1.23-2.75 2.75-2.75h10c1.51 0 2.75 1.23 2.75 2.75v2c0 .41-.34.75-.75.75 -.42 0-.75-.34-.75-.75V4c0-.7-.56-1.25-1.25-1.25H7c-.7 0-1.25.55-1.25 1.25v16c0 .69.55 1.25 1.25 1.25h10c.69 0 1.25-.56 1.25-1.25V10c0-.42.33-.75.75-.75 .41 0 .75.33.75.75v10c0 1.51-1.24 2.75-2.75 2.75H7c-1.52 0-2.75-1.24-2.75-2.75V4Z"/><path d="M9.25 9.5c0-1.52 1.23-2.75 2.75-2.75 1.51 0 2.75 1.23 2.75 2.75v2c0 1.51-1.24 2.75-2.75 2.75 -1.52 0-2.75-1.24-2.75-2.75v-2ZM12 8.25c-.7 0-1.25.55-1.25 1.25v2c0 .69.55 1.25 1.25 1.25 .69 0 1.25-.56 1.25-1.25v-2c0-.7-.56-1.25-1.25-1.25Z"/><path d="M7.33 11.08c.41 0 .75.33.75.75 0 2.16 1.75 3.91 3.91 3.91s3.91-1.76 3.91-3.92c0-.42.33-.75.75-.75 .41 0 .75.33.75.75 0 2.99-2.43 5.41-5.42 5.41 -3 0-5.42-2.43-5.42-5.42 0-.42.33-.75.75-.75Z"/><path d="M12 15.75c.41 0 .75.33.75.75v3c0 .41-.34.75-.75.75 -.42 0-.75-.34-.75-.75v-3c0-.42.33-.75.75-.75Z"/><path d="M9.75 19.5c0-.42.33-.75.75-.75h3c.41 0 .75.33.75.75 0 .41-.34.75-.75.75h-3c-.42 0-.75-.34-.75-.75Z"/></g></svg>