<svg viewBox="0 0 24 24" xmlns="http://www.w3.org/2000/svg" xmlns:xlink="http://www.w3.org/1999/xlink"><defs><path d="M1 2c0-.56.44-1 1-1h10c.55 0 1 .44 1 1v10c0 .55-.45 1-1 1H2c-.56 0-1-.45-1-1V2Zm2 1v8h8V3H3Z" id="c"/><path d="M11 12c0-.56.44-1 1-1h10c.55 0 1 .44 1 1v10c0 .55-.45 1-1 1H12c-.56 0-1-.45-1-1V12Zm2 1v8h8v-8h-8Z" id="a"/><path d="M1 12c0-.56.44-1 1-1h10c.55 0 1 .44 1 1v10c0 .55-.45 1-1 1H2c-.56 0-1-.45-1-1V12Zm2 1v8h8v-8H3Z" id="d"/><path d="M11 2c0-.56.44-1 1-1h10c.55 0 1 .44 1 1v10c0 .55-.45 1-1 1H12c-.56 0-1-.45-1-1V2Zm2 1v8h8V3h-8Z" id="b"/></defs><g fill-rule="evenodd"><use xlink:href="#a"/><use xlink:href="#a"/><path d="M4.5 3.5c-.56 0-1 .44-1 1v5c0 .55.44 1 1 1h5c.55 0 1-.45 1-1v-5c0-.56-.45-1-1-1h-5Z"/><path d="M15.5 13.5c-1.11 0-2 .89-2 2v3c0 1.1.89 2 2 2h3c1.1 0 2-.9 2-2v-3c0-1.11-.9-2-2-2h-3Z"/><use xlink:href="#b"/><use xlink:href="#b"/><use xlink:href="#c"/><use xlink:href="#c"/><use xlink:href="#d"/><use xlink:href="#d"/><path d="M17 3.5c-1.94 0-3.5 1.56-3.5 3.5 0 1.93 1.56 3.5 3.5 3.5 1.93 0 3.5-1.57 3.5-3.5 0-1.94-1.57-3.5-3.5-3.5Z"/><path d="M7.89 14.05c-.17-.34-.52-.56-.9-.56s-.73.21-.9.55l-2.5 5c-.16.31-.14.67.04.97 .18.29.5.47.85.47h5c.34 0 .66-.18.85-.48 .18-.3.19-.67.04-.98l-2.5-5Z"/></g></svg>