<svg viewBox="0 0 24 24" xmlns="http://www.w3.org/2000/svg"><path fill-rule="evenodd" d="M8.24 1.07c-.25-.11-.53-.11-.77 0 -.25.1-.44.29-.55.54L5.36 5.36 1.6 6.91c-.25.1-.44.29-.55.54 -.11.24-.11.52 0 .76l1.55 3.75 -1.56 3.75c-.11.24-.11.52 0 .76 .1.24.29.43.54.54l3.75 1.55 1.55 3.75c.21.51.79.75 1.3.54l3.75-1.56 3.75 1.55c.51.21 1.09-.04 1.3-.55l1.55-3.76 3.75-1.56c.24-.11.43-.3.54-.55 .1-.25.1-.53 0-.77l-1.56-3.76 1.55-3.76c.1-.25.1-.53 0-.77 -.11-.25-.3-.44-.55-.55L18.5 5.25l-1.56-3.76c-.11-.25-.3-.44-.55-.55 -.25-.11-.53-.11-.77 0l-3.76 1.55L8.1.93Z"/></svg>