<svg viewBox="0 0 24 24" xmlns="http://www.w3.org/2000/svg"><g fill-rule="evenodd"><path d="M3.5 7.5H2v-1h2c.27 0 .5.22.5.5v14h-1V7.5Z"/><path d="M3.5 9c0-.28.22-.5.5-.5h10c.27 0 .5.22.5.5v10c0 .27-.23.5-.5.5H4c-.28 0-.5-.23-.5-.5V9Zm1 .5v9h9v-9h-9Z"/><path d="M7.5 22c0 .27.22.5.5.5h5c.27 0 .5-.23.5-.5v-3c0-.28-.23-.5-.5-.5H8c-.28 0-.5.22-.5.5v3Zm1-.5v-2h4v2h-4Z"/><path d="M17.5 2v9c0 .27-.23.5-.5.5h-3v-1h2.5V2h1Z"/><path d="M22.424 9.26l-5 8c-.1.14-.26.23-.43.23h-3v-1h2.72l4.85-7.77 .84.52Z"/></g></svg>