<svg viewBox="0 0 24 24" xmlns="http://www.w3.org/2000/svg"><g fill-rule="evenodd"><path d="M4.5 5c0-.28.22-.5.5-.5h14c.27 0 .5.22.5.5v14c0 .27-.23.5-.5.5H5c-.28 0-.5-.23-.5-.5V5Zm1 .5v13h13v-13h-13Z"/><path d="M7.5 2v3h-1V2h1Zm5 0v3h-1V2h1Zm5 0v3h-1V2h1Z"/><path d="M7.5 19v3h-1v-3h1Zm5 0v3h-1v-3h1Zm5 0v3h-1v-3h1Z"/><path d="M2 6.5h3v1H2v-1Zm0 5h3v1H2v-1Zm0 5h3v1H2v-1Z"/><path d="M19 6.5h3v1h-3v-1Zm0 5h3v1h-3v-1Zm0 5h3v1h-3v-1Z"/><path d="M11.5 17V7h1v10h-1Z"/><path d="M16.08 14.933l-8.67-5.01 .5-.87 8.66 5 -.5.86Z"/><path d="M7.91 14.933l8.66-5.01 -.5-.87 -8.67 5 .5.86Z"/></g></svg>