<svg viewBox="0 0 24 24" xmlns="http://www.w3.org/2000/svg"><g fill-rule="evenodd"><path d="M7.5 7c0-.28.22-.5.5-.5h13c.27 0 .5.22.5.5v11c0 .27-.23.5-.5.5H8c-.28 0-.5-.23-.5-.5V7Zm1 .5v10h12v-10h-12Z"/><path d="M8.5 18c0-.28.22-.5.5-.5h11c.27 0 .5.22.5.5v4c0 .27-.23.5-.5.5H9c-.28 0-.5-.23-.5-.5v-4Zm1 .5v3h10v-3h-10Z"/><path d="M22 22.5H7v-1h15v1Z"/><path d="M1.5 10c0-.28.22-.5.5-.5h3c.27 0 .5.22.5.5v3c0 .27-.23.5-.5.5H2c-.28 0-.5-.23-.5-.5v-3Zm1 .5v2h2v-2h-2Z"/><path d="M6.75 2.5C5.23 2.5 4 3.73 4 5.25V10H3V5.25C3 3.17 4.67 1.5 6.75 1.5c2.07 0 3.75 1.67 3.75 3.75V7h-1V5.25c0-1.52-1.24-2.75-2.75-2.75Z"/></g></svg>