<svg viewBox="0 0 24 24" xmlns="http://www.w3.org/2000/svg"><g fill-rule="evenodd"><path d="M2 2h14.5c1.1 0 2 .89 2 2 0 1.1-.9 2-2 2H12c-.83 0-1.5.67-1.5 1.5v1h-1v-1C9.5 6.11 10.61 5 12 5h4.5c.55 0 1-.45 1-1 0-.56-.45-1-1-1H2V2Z"/><path d="M3.64 8.14c.09-.1.22-.15.35-.15h16c.13 0 .25.05.35.14l2 1.99c.09.09.14.22.14.35v7c0 .13-.06.25-.15.35l-2 2c-.1.09-.23.14-.36.14h-2.8l-1.86 1.85c-.1.09-.23.14-.36.14h-6c-.14 0-.26-.06-.36-.15l-1.86-1.86h-2.8c-.14 0-.26-.06-.36-.15l-2-2c-.1-.1-.15-.23-.15-.36v-7c0-.14.05-.26.14-.36l2-2Zm.56.85l-1.71 1.7v6.58l1.7 1.7h2.79c.13 0 .25.05.35.14l1.85 1.85h5.58l1.85-1.86c.09-.1.22-.15.35-.15h2.79l1.7-1.71v-6.59l-1.71-1.71H4.15Z"/><path d="M16 18H8v-1h8v1Z"/><path d="M6 12H4v-1h2v1Z"/><path d="M10.5 12h-2v-1h2v1Z"/><path d="M15.5 12h-2v-1h2v1Z"/><path d="M20 12h-2v-1h2v1Z"/><path d="M6 15H4v-1h2v1Z"/><path d="M10.5 15h-2v-1h2v1Z"/><path d="M15.5 15h-2v-1h2v1Z"/><path d="M20 15h-2v-1h2v1Z"/></g></svg>