<svg viewBox="0 0 24 24" xmlns="http://www.w3.org/2000/svg"><g fill-rule="evenodd"><path d="M3.5 5.5H2v-1h2c.27 0 .5.22.5.5v14h-1V5.5Z"/><path d="M3.5 6.5c0-.28.22-.5.5-.5h18c.27 0 .5.22.5.5v10c0 .27-.23.5-.5.5H4c-.28 0-.5-.23-.5-.5v-10Zm1 .5v9h17V7h-17Z"/><path d="M17 9c-1.39 0-2.5 1.11-2.5 2.5 0 1.38 1.11 2.5 2.5 2.5 1.38 0 2.5-1.12 2.5-2.5 0-1.39-1.12-2.5-2.5-2.5Zm-3.5 2.5C13.5 9.56 15.06 8 17 8c1.93 0 3.5 1.56 3.5 3.5 0 1.93-1.57 3.5-3.5 3.5 -1.94 0-3.5-1.57-3.5-3.5Z"/><path d="M9 9c-1.39 0-2.5 1.11-2.5 2.5C6.5 12.88 7.61 14 9 14c1.38 0 2.5-1.12 2.5-2.5C11.5 10.11 10.38 9 9 9Zm-3.5 2.5C5.5 9.56 7.06 8 9 8c1.93 0 3.5 1.56 3.5 3.5 0 1.93-1.57 3.5-3.5 3.5 -1.94 0-3.5-1.57-3.5-3.5Z"/><path d="M6.5 16.5c0-.28.22-.5.5-.5h10c.27 0 .5.22.5.5v3c0 .27-.23.5-.5.5H7c-.28 0-.5-.23-.5-.5v-3Zm1 .5v2h9v-2h-9Z"/></g></svg>