<svg viewBox="0 0 24 24" xmlns="http://www.w3.org/2000/svg"><g fill-rule="evenodd"><path d="M3.5 2c0-.28.22-.5.5-.5h16c.27 0 .5.22.5.5v20c0 .27-.23.5-.5.5H4c-.28 0-.5-.23-.5-.5V2Zm1 .5v19h15v-19h-15Z"/><path d="M12 4.5C9.51 4.5 7.5 6.51 7.5 9c0 2.48 2.01 4.5 4.5 4.5 2.48 0 4.5-2.02 4.5-4.5 0-2.49-2.02-4.5-4.5-4.5ZM6.5 9c0-3.04 2.46-5.5 5.5-5.5 3.03 0 5.5 2.46 5.5 5.5 0 3.03-2.47 5.5-5.5 5.5 -3.04 0-5.5-2.47-5.5-5.5Z"/><path d="M6 16c0-.28.22-.5.5-.5h11c.27 0 .5.22.5.5v3.5c0 .27-.23.5-.5.5h-11c-.28 0-.5-.23-.5-.5V16Zm1 .5V19h10v-2.5H7Z"/></g></svg>