<svg viewBox="0 0 24 24" xmlns="http://www.w3.org/2000/svg"><g fill-rule="evenodd"><path d="M2.5 10c0-.28.22-.5.5-.5h3c.27 0 .5.22.5.5v3c0 .27-.23.5-.5.5H3c-.28 0-.5-.23-.5-.5v-3Zm1 .5v2h2v-2h-2Z"/><path d="M9.5 7c0-.28.22-.5.5-.5h11c.27 0 .5.22.5.5v15c0 .27-.23.5-.5.5H10c-.28 0-.5-.23-.5-.5V7Zm1 .5v14h10v-14h-10Z"/><path d="M7.75 2.5C6.23 2.5 5 3.73 5 5.25V10H4V5.25C4 3.17 5.67 1.5 7.75 1.5c2.07 0 3.75 1.67 3.75 3.75V7h-1V5.25c0-1.52-1.24-2.75-2.75-2.75Z"/><path d="M18.5 20v2h-1v-2h1Z"/></g></svg>