<svg viewBox="0 0 24 24" xmlns="http://www.w3.org/2000/svg"><g fill-rule="evenodd"><path d="M1.5 12c0-1.39 1.11-2.5 2.5-2.5h.5c.27 0 .5.22.5.5v8c0 .27-.23.5-.5.5H4c-1.39 0-2.5-1.12-2.5-2.5v-4ZM4 10.5c-.83 0-1.5.67-1.5 1.5v4c0 .82.67 1.5 1.5 1.5v-7Z"/><path d="M4 10c0-.28.22-.5.5-.5h2c.82 0 1.5.67 1.5 1.5v6c0 .82-.68 1.5-1.5 1.5h-2c-.28 0-.5-.23-.5-.5v-8Zm1 .5v7h1.5c.27 0 .5-.23.5-.5v-6c0-.28-.23-.5-.5-.5H5Z"/><path d="M22.5 12c0-1.39-1.12-2.5-2.5-2.5h-.5c-.28 0-.5.22-.5.5v8c0 .27.22.5.5.5h.5c1.38 0 2.5-1.12 2.5-2.5v-4ZM20 10.5c.82 0 1.5.67 1.5 1.5v4c0 .82-.68 1.5-1.5 1.5v-7Z"/><path d="M20 10c0-.28-.23-.5-.5-.5h-2c-.83 0-1.5.67-1.5 1.5v6c0 .82.67 1.5 1.5 1.5h2c.27 0 .5-.23.5-.5v-8Zm-1 .5v7h-1.5c-.28 0-.5-.23-.5-.5v-6c0-.28.22-.5.5-.5H19Z"/><path d="M9.5 2.5C7.01 2.5 5 4.51 5 7v3H4V7c0-3.04 2.46-5.5 5.5-5.5h5C17.53 1.5 20 3.96 20 7v3h-1V7c0-2.49-2.02-4.5-4.5-4.5h-5Z"/><path d="M15.5 21.5H12v1h3.5c2.48 0 4.5-2.02 4.5-4.5h-1c0 1.93-1.57 3.5-3.5 3.5Z"/></g></svg>