<svg viewBox="0 0 24 24" xmlns="http://www.w3.org/2000/svg"><g fill-rule="evenodd"><path d="M6.04 1.64c.09-.1.22-.15.35-.15h11.2c.13 0 .25.05.35.14l2.4 2.4c.09.09.14.22.14.35v11.2c0 .13-.06.25-.15.35l-2.4 2.4c-.1.09-.23.14-.36.14H6.37c-.14 0-.26-.06-.36-.15l-2.4-2.4c-.1-.1-.15-.23-.15-.36V4.36c0-.14.05-.26.14-.36L6 1.6ZM4.49 15.38l2.1 2.1h10.78l2.1-2.11V4.58l-2.11-2.11H6.57l-2.11 2.1v10.78Z"/><path d="M12 4.5c-3.04 0-5.5 2.46-5.5 5.5 0 3.03 2.46 5.5 5.5 5.5 3.03 0 5.5-2.47 5.5-5.5 0-3.04-2.47-5.5-5.5-5.5ZM5.5 10c0-3.59 2.91-6.5 6.5-6.5 3.58 0 6.5 2.91 6.5 6.5 0 3.58-2.92 6.5-6.5 6.5 -3.59 0-6.5-2.92-6.5-6.5Z"/><path d="M12 8.5c-.83 0-1.5.67-1.5 1.5 0 .82.67 1.5 1.5 1.5 .82 0 1.5-.68 1.5-1.5 0-.83-.68-1.5-1.5-1.5ZM9.5 10c0-1.39 1.11-2.5 2.5-2.5 1.38 0 2.5 1.11 2.5 2.5 0 1.38-1.12 2.5-2.5 2.5 -1.39 0-2.5-1.12-2.5-2.5Z"/><path d="M6.5 7.5H12v1H6.5v-1Z"/><path d="M9.5 15.5V10h1v5.5h-1Z"/><path d="M17.5 12.5H12v-1h5.5v1Z"/><path d="M14.5 4.5V10h-1V4.5h1Z"/><path d="M7.5 19.5V18h1v1.5c0 1.1.89 2 2 2h3c1.1 0 2-.9 2-2V18h1v1.5c0 1.65-1.35 3-3 3h-3c-1.66 0-3-1.35-3-3Z"/></g></svg>