<svg viewBox="0 0 24 24" xmlns="http://www.w3.org/2000/svg"><g fill-rule="evenodd"><path d="M1.68 2.61c.11-.1.26-.14.41-.11l6.07 1.21c2.52.5 5.12.5 7.64 0l6.07-1.22c.14-.03.29 0 .41.1 .11.09.18.23.18.38v12c0 .14-.07.29-.19.38 -.12.09-.27.13-.42.1l-6.08-1.22c-2.53-.51-5.13-.51-7.65 0l-6.08 1.21c-.15.02-.3-.01-.42-.11s-.19-.24-.19-.39v-12c0-.15.06-.3.18-.39Zm.81.99v10.78l5.47-1.1c2.65-.54 5.38-.54 8.04 0l5.47 1.09V3.58l-5.48 1.09c-2.654.53-5.39.53-8.05 0l-5.48-1.1Z"/><path d="M10.5 13.5v6h-1v-6h1Zm3 6v-6h1v6h-1Z"/><path d="M11.86 18.51c.08-.03.18-.03.27 0l7 2 -.28.96 -6.87-1.97 -6.87 1.96 -.28-.97 7-2Z"/></g></svg>