<svg viewBox="0 0 24 24" xmlns="http://www.w3.org/2000/svg"><g fill-rule="evenodd"><path d="M1.5 2c0-.28.22-.5.5-.5h20c.27 0 .5.22.5.5v20c0 .27-.23.5-.5.5H4c-.28 0-.5-.23-.5-.5v-9.91L1.53 7.17c-.03-.06-.04-.13-.04-.19v-5Zm1 .5v4.4l1.96 4.91c.02.05.03.12.03.18v9.5h17v-19h-19Z"/><path d="M6 15.5c0-.28.22-.5.5-.5h4c.27 0 .5.22.5.5v4c0 .27-.23.5-.5.5h-4c-.28 0-.5-.23-.5-.5v-4Zm1 .5v3h3v-3H7Z"/><path d="M15.5 16c0-.28.22-.5.5-.5h3c.27 0 .5.22.5.5v3c0 .27-.23.5-.5.5h-3c-.28 0-.5-.23-.5-.5v-3Zm1 .5v2h2v-2h-2Z"/><path d="M11 4.5c0-.28.22-.5.5-.5h8c.27 0 .5.22.5.5v3c0 .27-.23.5-.5.5h-8c-.28 0-.5-.23-.5-.5v-3Zm1 .5v2h7V5h-7Z"/><path d="M11 10c0-.28.22-.5.5-.5h8c.27 0 .5.22.5.5v3c0 .27-.23.5-.5.5h-8c-.28 0-.5-.23-.5-.5v-3Zm1 .5v2h7v-2h-7Z"/><path d="M7.5 12V5h1v7h-1Z"/></g></svg>