<svg viewBox="0 0 24 24" xmlns="http://www.w3.org/2000/svg"><g fill-rule="evenodd"><path d="M4.5 5.5c0-2.21 1.79-4 4-4h7c2.2 0 4 1.79 4 4v8c0 .05-.01.11-.03.16l-1.83 5.16c-.78 2.19-2.86 3.66-5.19 3.66h-.93c-2.34 0-4.42-1.48-5.19-3.67L4.5 13.64c-.02-.06-.03-.11-.03-.17v-8Zm4-3c-1.66 0-3 1.34-3 3v7.91l1.79 5.08c.63 1.79 2.33 3 4.24 3h.92c1.9 0 3.6-1.21 4.24-3.01l1.79-5.09V5.47c0-1.66-1.35-3-3-3h-7Z"/><path d="M10 7.5c0-1.11.89-2 2-2 1.1 0 2 .89 2 2v2c0 1.1-.9 2-2 2 -1.11 0-2-.9-2-2v-2Zm2-1c-.56 0-1 .44-1 1v2c0 .55.44 1 1 1 .55 0 1-.45 1-1v-2c0-.56-.45-1-1-1Z"/><path d="M11.5 6V2h1v4h-1Zm0 8v-3h1v3h-1Z"/></g></svg>