<svg viewBox="0 0 24 24" xmlns="http://www.w3.org/2000/svg"><g fill-rule="evenodd"><path d="M1.5 3c0-.28.22-.5.5-.5h3c.27 0 .5.22.5.5v4c0 .27-.23.5-.5.5H2c-.28 0-.5-.23-.5-.5V3Zm1 .5v3h2v-3h-2Z"/><path d="M22.5 17c0-.28-.23-.5-.5-.5h-3c-.28 0-.5.22-.5.5v4c0 .27.22.5.5.5h3c.27 0 .5-.23.5-.5v-4Zm-1 .5v3h-2v-3h2Z"/><path d="M4.5 2c0-.28.22-.5.5-.5h2c1.38 0 2.5 1.11 2.5 2.5v2c0 1.38-1.12 2.5-2.5 2.5H5c-.28 0-.5-.23-.5-.5V2Zm1 .5v5H7c.82 0 1.5-.68 1.5-1.5V4c0-.83-.68-1.5-1.5-1.5H5.5Z"/><path d="M19.5 16c0-.28-.23-.5-.5-.5h-2c-1.39 0-2.5 1.11-2.5 2.5v2c0 1.38 1.11 2.5 2.5 2.5h2c.27 0 .5-.23.5-.5v-6Zm-1 .5v5H17c-.83 0-1.5-.68-1.5-1.5v-2c0-.83.67-1.5 1.5-1.5h1.5Z"/><path d="M8.5 3c0-.28.22-.5.5-.5h1.5C12.43 2.5 14 4.06 14 6v9.5c0 .55.44 1 1 1v.5h.5v4c0 .27-.23.5-.5.5h-1.5c-1.94 0-3.5-1.57-3.5-3.5V8.5c0-.56-.45-1-1-1V7h-.5V3Zm1 3.56c.86.22 1.5 1 1.5 1.93v9.5c0 1.38 1.11 2.5 2.5 2.5h1v-3.07c-.87-.23-1.5-1.01-1.5-1.94v-9.5c0-1.39-1.12-2.5-2.5-2.5h-1v3.06Z"/></g></svg>