<svg viewBox="0 0 24 24" xmlns="http://www.w3.org/2000/svg"><g fill-rule="evenodd"><path d="M19.64 15.64c.19-.2.51-.2.7 0l2 2c.19.19.19.51 0 .7l-4 4c-.2.19-.52.19-.71 0l-2-2c-.2-.2-.2-.52 0-.71l4-4Zm-2.94 4.35l1.29 1.29 3.29-3.3 -1.3-1.3 -3.3 3.29Z"/><path d="M8 1.5c.13 0 .25.05.35.14l13 13c.19.19.19.51 0 .7l-6 6c-.2.19-.52.19-.71 0l-13-13c-.1-.1-.15-.23-.15-.36 0-.14.05-.26.14-.36l1.93-1.94c.19-.2.51-.2.7 0 .18.18.43.29.7.29 .55 0 1-.45 1-1 0-.28-.12-.53-.3-.71 -.2-.2-.2-.52 0-.71l1.93-1.94c.09-.1.22-.15.35-.15Zm0 1.2L6.72 3.97c.17.29.27.64.27 1.01 0 1.1-.9 2-2 2 -.38 0-.72-.11-1.02-.28L2.69 7.97l12.29 12.29 5.29-5.3 -12.3-12.3Z"/><path d="M10.64 10.35l-3.01-3 .7-.71 3 3 -.71.7Z"/></g></svg>