<svg viewBox="0 0 24 24" xmlns="http://www.w3.org/2000/svg"><g fill-rule="evenodd"><path d="M4.5 4c0-1.39 1.11-2.5 2.5-2.5h10c1.38 0 2.5 1.11 2.5 2.5v16c0 1.38-1.12 2.5-2.5 2.5H7c-1.39 0-2.5-1.12-2.5-2.5V4ZM7 2.5c-.83 0-1.5.67-1.5 1.5v16c0 .82.67 1.5 1.5 1.5h10c.82 0 1.5-.68 1.5-1.5V4c0-.83-.68-1.5-1.5-1.5H7Z"/><path d="M7.5 2c0-.28.22-.5.5-.5h8c.27 0 .5.22.5.5v2c0 .82-.68 1.5-1.5 1.5H9c-.83 0-1.5-.68-1.5-1.5V2Zm1 .5V4c0 .27.22.5.5.5h6c.27 0 .5-.23.5-.5V2.5h-7Z"/><path d="M7.5 8c0-.28.22-.5.5-.5h6c1.38 0 2.5 1.11 2.5 2.5v9c0 .27-.23.5-.5.5h-6c-1.39 0-2.5-1.12-2.5-2.5V8Zm1 .5V17c0 .82.67 1.5 1.5 1.5h5.5V10c0-.83-.68-1.5-1.5-1.5H8.5Z"/></g></svg>