<svg viewBox="0 0 24 24" xmlns="http://www.w3.org/2000/svg"><g fill-rule="evenodd"><path d="M1.5 6.5c0-.28.22-.5.5-.5h20c.27 0 .5.22.5.5v8c0 .27-.23.5-.5.5H2c-.28 0-.5-.23-.5-.5v-8Zm1 .5v7h19V7h-19Z"/><path d="M7.52 14.34c.06-.21.25-.35.47-.35h8c.21 0 .4.13.47.34l1 3c.05.15.02.32-.07.45 -.1.13-.25.2-.41.2h-10c-.17 0-.32-.08-.41-.21 -.1-.14-.12-.3-.07-.46l1-3Zm.83.65l-.67 2h8.61l-.67-2H8.34Z"/><path d="M12 7c-1.94 0-3.5 1.56-3.5 3.5 0 1.93 1.56 3.5 3.5 3.5 1.93 0 3.5-1.57 3.5-3.5C15.5 8.56 13.93 7 12 7Zm-4.5 3.5C7.5 8.01 9.51 6 12 6c2.48 0 4.5 2.01 4.5 4.5 0 2.48-2.02 4.5-4.5 4.5 -2.49 0-4.5-2.02-4.5-4.5Z"/></g></svg>