<svg viewBox="0 0 24 24" xmlns="http://www.w3.org/2000/svg"><g fill-rule="evenodd"><path d="M1 4c0-1.66 1.34-3 3-3h18c.55 0 1 .44 1 1v17c0 .55-.45 1-1 1H2c-.56 0-1-.45-1-1V4Zm3-1c-.56 0-1 .44-1 1v14h18V3H4Z"/><path d="M3 19v1c0 .55.44 1 1 1h18v2H4c-1.66 0-3-1.35-3-3v-1h2Z"/><path d="M19 22v-3h2v3h-2Z"/><path d="M9.22 10.36c.18-.24.47-.37.77-.37h4c.29 0 .58.13.77.36 .18.23.26.53.2.83l-.81 4.01c-.21 1.03-1.12 1.78-2.18 1.78s-1.97-.75-2.18-1.79l-.81-4.02c-.06-.3.01-.6.2-.84Zm1.99 1.63l.56 2.82c.02.1.11.17.21.17 .1 0 .19-.08.21-.18l.56-2.83h-1.57Z"/><path d="M17 6V4.5h-2v2.26l-.28.54 -1.02-1.02 -1.42 1.41 1.49 1.49 -.68 1.35 1.78.89 .25-.52 3.95-.44 -.23-1.99 -2.68.29 .4-.81h1.38c.19 0 .39-.06.55-.17l1.5-1 -1.11-1.67 -1.25.83h-.7Z"/><path d="M6.99 6V4.5h2v2.26l.27.54 1.01-1.02 1.41 1.41 -1.5 1.49 .67 1.35 -1.79.89 -.26-.52 -3.96-.44 .22-1.99 2.67.29 -.41-.81H5.93c-.2 0-.4-.06-.56-.17l-1.5-1 1.1-1.67 1.24.83h.69Z"/></g></svg>