<svg viewBox="0 0 24 24" xmlns="http://www.w3.org/2000/svg"><g fill-rule="evenodd"><path d="M1 4c0-1.66 1.34-3 3-3h18c.55 0 1 .44 1 1v17c0 .55-.45 1-1 1H2c-.56 0-1-.45-1-1V4Zm3-1c-.56 0-1 .44-1 1v14h18V3H4Z"/><path d="M3 19v1c0 .55.44 1 1 1h18v2H4c-1.66 0-3-1.35-3-3v-1h2Z"/><path d="M19 22v-3h2v3h-2Z"/><path d="M12 8c-1.66 0-3 1.34-3 3 0 1.65 1.34 3 3 3 1.65 0 3-1.35 3-3 0-1.66-1.35-3-3-3Zm-5 3c0-2.77 2.23-5 5-5 2.76 0 5 2.23 5 5 0 2.76-2.24 5-5 5 -2.77 0-5-2.24-5-5Z"/><path d="M7.89 15.1c.01-.06.03-.12.05-.19 .16-.49.51-1.16 1.05-1.94l-1.65-1.15c-.61.86-1.08 1.71-1.32 2.45 -.13.36-.21.76-.2 1.15 .01.39.13.84.49 1.2 .55.55 1.31.53 1.83.43 .56-.11 1.18-.38 1.8-.72 1.25-.7 2.72-1.84 4.13-3.26 1.41-1.42 2.55-2.89 3.25-4.14 .34-.63.6-1.25.71-1.81 .1-.53.11-1.29-.44-1.84 -.36-.36-.82-.48-1.21-.5 -.39-.02-.79.07-1.16.19 -.75.24-1.59.71-2.46 1.31l1.14 1.64c.78-.55 1.45-.9 1.93-1.06 .06-.03.13-.05.18-.06 -.07.27-.22.64-.49 1.12 -.59 1.04-1.6 2.37-2.92 3.69 -1.33 1.32-2.65 2.33-3.7 2.91 -.48.26-.86.41-1.13.48Zm8.25-8.52c0-.01 0 0 0 .01 -.01-.01-.01-.02-.01-.02ZM7.6 15.13c-.01-.01-.02-.01-.02-.01 0-.01 0 0 .01 0Z"/></g></svg>