<svg viewBox="0 0 24 24" xmlns="http://www.w3.org/2000/svg"><g fill-rule="evenodd"><path d="M1 4c0-1.66 1.34-3 3-3h18c.55 0 1 .44 1 1v17c0 .55-.45 1-1 1H2c-.56 0-1-.45-1-1V4Zm3-1c-.56 0-1 .44-1 1v14h18V3H4Z"/><path d="M3 19v1c0 .55.44 1 1 1h18v2H4c-1.66 0-3-1.35-3-3v-1h2Z"/><path d="M19 22v-3h2v3h-2Z"/><path d="M8.5 6c-1.11 0-2 .89-2 2 0 .99.72 1.81 1.66 1.97 .48.08.83.49.83.98v4.04h6v-4c0-.56.44-1 1-1 1.1 0 2-.9 2-2 0-1.11-.9-2-2-2 -.52 0-.98.19-1.34.5 -.38.33-.96.33-1.34 0 -.36-.32-.83-.51-1.34-.51 -.44 0-.84.13-1.17.37 -.35.25-.82.25-1.17 0 -.33-.24-.73-.38-1.17-.38Zm-4 2c0-2.21 1.79-4 4-4 .62 0 1.22.14 1.75.4 .52-.26 1.12-.41 1.75-.41 .72 0 1.41.19 2 .53 .58-.35 1.27-.54 2-.54 2.2 0 4 1.79 4 4 0 1.86-1.28 3.42-3 3.87v4.12c0 .55-.45 1-1 1H8c-.56 0-1-.45-1-1v-4.3c-1.47-.6-2.5-2.03-2.5-3.71Z"/></g></svg>