<svg viewBox="0 0 24 24" xmlns="http://www.w3.org/2000/svg"><g fill-rule="evenodd"><path d="M1 4c0-1.66 1.34-3 3-3h18c.55 0 1 .44 1 1v17c0 .55-.45 1-1 1H2c-.56 0-1-.45-1-1V4Zm3-1c-.56 0-1 .44-1 1v14h18V3H4Z"/><path d="M3 19v1c0 .55.44 1 1 1h18v2H4c-1.66 0-3-1.35-3-3v-1h2Z"/><path d="M19 22v-3h2v3h-2Z"/><path d="M9 13.5c0-.56.44-1 1-1h4c.55 0 1 .44 1 1v1c0 1.65-1.35 3-3 3 -1.66 0-3-1.35-3-3v-1Zm2 1c0 .55.44 1 1 1 .55 0 1-.45 1-1h-2Z"/><path d="M14.95 11.29c-.13.41-.52.7-.96.7h-4c-.56 0-1-.45-1-1V7.12c0-1.44 1-2.67 2.41-2.95l1-.2c1.85-.38 3.58 1.04 3.58 2.94v.81c0 .09-.02.19-.05.29l-1 3.25Zm-1.7-1.3l.73-2.41v-.67c0-.64-.58-1.11-1.2-.99l-1 .2c-.47.09-.81.5-.81.98v2.86h2.26Z"/></g></svg>