<svg viewBox="0 0 24 24" xmlns="http://www.w3.org/2000/svg"><g fill-rule="evenodd"><path d="M1 4c0-1.66 1.34-3 3-3h18c.55 0 1 .44 1 1v17c0 .55-.45 1-1 1H2c-.56 0-1-.45-1-1V4Zm3-1c-.56 0-1 .44-1 1v14h18V3H4Z"/><path d="M3 19v1c0 .55.44 1 1 1h18v2H4c-1.66 0-3-1.35-3-3v-1h2Z"/><path d="M19 22v-3h2v3h-2Z"/><path d="M14 8c0-1.11.89-2 2-2h2c1.1 0 2 .89 2 2v5c0 1.1-.9 2-2 2h-2c-1.11 0-2-.9-2-2V8Zm4 0h-2v5h2V8Z"/><path d="M15 11.5H9v-2h6v2Z"/><path d="M4 8c0-1.11.89-2 2-2h2c1.1 0 2 .89 2 2v5c0 1.1-.9 2-2 2H6c-1.11 0-2-.9-2-2V8Zm4 0H6v5h2V8Z"/></g></svg>