<svg viewBox="0 0 24 24" xmlns="http://www.w3.org/2000/svg"><g fill-rule="evenodd"><path d="M8 3c0-.56.44-1 1-1h1c1.65 0 3 1.34 3 3v2c0 .55-.45 1-1 1H9c-.56 0-1-.45-1-1V3Zm2 1v2h1V5c0-.56-.45-1-1-1Z"/><path d="M16 3c0-.56-.45-1-1-1h-1c-1.66 0-3 1.34-3 3v2c0 .55.44 1 1 1h3c.55 0 1-.45 1-1V3Zm-2 1v2h-1V5c0-.56.44-1 1-1Z"/><path d="M4 9.11l5.44-2.73 -.9-1.79 -6 3c-.34.16-.56.51-.56.89v3.5c0 .55.44 1 1 1h18c.55 0 1-.45 1-1v-3.5c0-.38-.22-.73-.56-.9l-6-3 -.9 1.78 5.44 2.72v1.88h-16V9.07Z"/><path d="M3 12c0-.56.44-1 1-1h16c.55 0 1 .44 1 1v6c0 .55-.45 1-1 1H4c-.56 0-1-.45-1-1v-6Zm2 1v4h14v-4H5Z"/><path d="M1 18c0-.56.44-1 1-1h20c.55 0 1 .44 1 1v3c0 .55-.45 1-1 1H2c-.56 0-1-.45-1-1v-3Zm2 1v1h18v-1H3Z"/></g></svg>