<svg viewBox="0 0 24 24" xmlns="http://www.w3.org/2000/svg"><g fill-rule="evenodd"><path d="M1 2c0-.56.44-1 1-1h20c.55 0 1 .44 1 1v20c0 .55-.45 1-1 1H2c-.56 0-1-.45-1-1V2Zm2 1v18h18V3H3Z"/><path d="M3.5 13.5c0-.56.44-1 1-1h6c.55 0 1 .44 1 1v6c0 .55-.45 1-1 1h-6c-.56 0-1-.45-1-1v-6Zm2 1v4h4v-4h-4Z"/><path d="M3.5 4.5c0-.56.44-1 1-1h6c.55 0 1 .44 1 1v6c0 .55-.45 1-1 1h-6c-.56 0-1-.45-1-1v-6Zm2 1v4h4v-4h-4Z"/><path d="M12.5 13.5c0-.56.44-1 1-1h6c.55 0 1 .44 1 1v6c0 .55-.45 1-1 1h-6c-.56 0-1-.45-1-1v-6Zm2 1v4h4v-4h-4Z"/><path d="M12.5 4.5c0-.56.44-1 1-1h6c.55 0 1 .44 1 1v6c0 .55-.45 1-1 1h-6c-.56 0-1-.45-1-1v-6Zm2 1v4h4v-4h-4Z"/><path d="M6.5 8h-2V6h2v2Z"/><path d="M6.5 17h-2v-2h2v2Z"/><path d="M15.5 8h-2V6h2v2Z"/><path d="M15.5 17h-2v-2h2v2Z"/></g></svg>