<svg viewBox="0 0 24 24" xmlns="http://www.w3.org/2000/svg"><g fill-rule="evenodd"><path d="M12 3c-4.98 0-9 4.02-9 9 0 4.97 4.02 9 9 9 4.97 0 9-4.03 9-9 0-4.98-4.03-9-9-9ZM1 12C1 5.92 5.92 1 12 1c6.07 0 11 4.92 11 11 0 6.07-4.93 11-11 11C5.92 23 1 18.07 1 12Z"/><path d="M18.293 19.7l-14-14L5.7 4.28l14 14 -1.42 1.41Z"/><path d="M6.5 12c0-1.39 1.11-2.5 2.5-2.5h6c1.38 0 2.5 1.11 2.5 2.5 0 1.38-1.12 2.5-2.5 2.5H9c-1.39 0-2.5-1.12-2.5-2.5Zm2.5-.5c-.28 0-.5.22-.5.5 0 .27.22.5.5.5h6c.27 0 .5-.23.5-.5 0-.28-.23-.5-.5-.5H9Z"/><path d="M7.5 9.5c0-1.66 1.34-3 3-3h3c1.65 0 3 1.34 3 3v1c0 .55-.45 1-1 1h-7c-.56 0-1-.45-1-1v-1Zm3-1c-.56 0-1 .44-1 1h5c0-.56-.45-1-1-1h-3Z"/><path d="M16.5 13.5c0-.56-.45-1-1-1h-7c-.56 0-1 .44-1 1v3c0 .55.44 1 1 1h7c.55 0 1-.45 1-1v-3Zm-2 1v1h-5v-1h5Z"/></g></svg>