<svg viewBox="0 0 24 24" xmlns="http://www.w3.org/2000/svg"><g fill-rule="evenodd"><path d="M1 4c0-1.66 1.34-3 3-3h18c.55 0 1 .44 1 1v17c0 .55-.45 1-1 1H2c-.56 0-1-.45-1-1V4Zm3-1c-.56 0-1 .44-1 1v14h18V3H4Z"/><path d="M3 19v1c0 .55.44 1 1 1h18v2H4c-1.66 0-3-1.35-3-3v-1h2Z"/><path d="M19 22v-3h2v3h-2Z"/><path d="M9.5 5c0-.56.44-1 1-1h3c.55 0 1 .44 1 1v2.66c1.49.86 2.5 2.47 2.5 4.33 0 2.76-2.24 5-5 5 -2.77 0-5-2.24-5-5 0-1.86 1-3.47 2.5-4.34V4.98Zm2 1v2.29c0 .4-.25.77-.63.92 -1.11.44-1.88 1.52-1.88 2.78 0 1.65 1.34 3 3 3 1.65 0 3-1.35 3-3 0-1.26-.78-2.34-1.88-2.79 -.38-.16-.63-.52-.63-.93v-2.3h-1Z"/><path d="M15 6H9V4h6v2Z"/></g></svg>