<svg viewBox="0 0 24 24" xmlns="http://www.w3.org/2000/svg"><g fill-rule="evenodd"><path d="M1 4c0-1.66 1.34-3 3-3h18c.55 0 1 .44 1 1v17c0 .55-.45 1-1 1H2c-.56 0-1-.45-1-1V4Zm3-1c-.56 0-1 .44-1 1v14h18V3H4Z"/><path d="M3 19v1c0 .55.44 1 1 1h18v2H4c-1.66 0-3-1.35-3-3v-1h2Z"/><path d="M19 22v-3h2v3h-2Z"/><path d="M11 5c0-.56.44-1 1-1h1.5C15.98 4 18 6.01 18 8.5v1c0 2.48-2.02 4.5-4.5 4.5H13v2h-2v-2h-.5C8.01 14 6 11.98 6 9.5V5h2v4.5c0 1.38 1.11 2.5 2.5 2.5h.5V5Zm2 7h.5c1.38 0 2.5-1.12 2.5-2.5v-1C16 7.11 14.88 6 13.5 6H13v6Z"/></g></svg>