<svg viewBox="0 0 24 24" xmlns="http://www.w3.org/2000/svg"><g fill-rule="evenodd"><path d="M15.79 12.17c-.64.94-1.05 2.29-1.05 3.82 0 1.52.41 2.88 1.04 3.82 .63.95 1.42 1.42 2.2 1.42 .77 0 1.56-.48 2.2-1.43 .63-.95 1.04-2.3 1.04-3.83 0-1.53-.42-2.89-1.05-3.83 -.64-.96-1.43-1.43-2.21-1.43s-1.57.47-2.21 1.42Zm-1.25-.84c.81-1.22 2.01-2.1 3.45-2.1 1.43 0 2.63.87 3.45 2.09 .81 1.22 1.29 2.87 1.29 4.65 0 1.78-.49 3.43-1.3 4.65 -.82 1.21-2.02 2.09-3.46 2.09s-2.64-.88-3.46-2.1c-.82-1.23-1.3-2.88-1.3-4.66 0-1.79.48-3.44 1.29-4.66Z"/><path d="M1.25 3.23c0-1.1.88-1.99 1.98-1.99 .75 0 1.43.42 1.77 1.09l1.44 2.89c1.22 2.45 3.73 4 6.48 4h5.05c.41 0 .75.33.75.75 0 .41-.34.75-.75.75h-5.06c-3.32 0-6.35-1.88-7.83-4.84l-1.45-2.9c-.09-.17-.26-.27-.44-.27 -.27 0-.49.21-.49.48v1.76c0 .41-.34.75-.75.75 -.42 0-.75-.34-.75-.75V3.18ZM2 8.24c.41 0 .75.33.75.75v5c0 4 3.24 7.25 7.25 7.25h8c.41 0 .75.33.75.75 0 .41-.34.75-.75.75h-8c-4.84 0-8.75-3.92-8.75-8.75v-5c0-.42.33-.75.75-.75Z"/><path d="M12.46 9.41c.32.25.37.73.11 1.05l-2.79 3.47c-.65.8-.94 1.84-.79 2.87l.72 5.07c.05.41-.23.29-.64.34 -.42.05-.79.27-.85-.14l-.73-5.08c-.21-1.44.19-2.9 1.09-4.03l2.78-3.48c.25-.33.73-.38 1.05-.12Z"/><path d="M8.68 8.2c.16.38.48.82.1.98l-1.57.66c-1.06.45-1.89 1.31-2.3 2.38l-1.75 4.53c-.15.38-.59.57-.97.43 -.39-.15-.58-.59-.44-.97l1.74-4.54c.55-1.45 1.67-2.61 3.1-3.23l1.56-.67c.38-.17.32.01.48.39Z"/></g></svg>