<svg viewBox="0 0 24 24" xmlns="http://www.w3.org/2000/svg"><g fill-rule="evenodd"><path d="M5.25 22c0-.42.33-.75.75-.75h12c.41 0 .75.33.75.75 0 .41-.34.75-.75.75H6c-.42 0-.75-.34-.75-.75Z"/><path d="M12 1.25c.38 0 .7.29.74.67l2 20c.02.21-.05.42-.2.57 -.15.15-.35.24-.56.24h-4c-.22 0-.42-.09-.56-.25 -.15-.16-.22-.37-.2-.58l.2-2c.04-.42.4-.72.82-.68 .41.04.71.4.67.82l-.12 1.17h2.34L11.95 9.49l-.46 4.53c-.05.41-.41.71-.83.67 -.42-.05-.72-.41-.68-.83l1.2-12c.03-.39.36-.68.74-.68Z"/><path d="M17.99 5.25c.41 0 .75.33.75.75v1.85l.87-.51c.11-.07.24-.1.37-.1h2c.41 0 .75.33.75.75 0 .41-.34.75-.75.75h-1.81l-3.58 2.04 1.59.49c.39.12.61.54.49.93 -.13.39-.55.61-.94.49l-2.94-.91 -1.47.83c-.36.2-.82.08-1.03-.28 -.21-.36-.09-.82.27-1.03l4.62-2.65V5.94c0-.42.33-.75.75-.75Z"/><path d="M18.61 1.56c.24.33.16.8-.18 1.04l-3.5 2.49 -2 1.49c-.34.24-.81.18-1.05-.15 -.25-.34-.19-.81.15-1.05l1.7-1.28V1.97c0-.42.33-.75.75-.75 .41 0 .75.33.75.75v1.04l2.31-1.66c.33-.25.8-.17 1.04.17Z"/><path d="M3.99 4.75c.41 0 .75.33.75.75v2.16l6.61 3.67c.36.2.49.65.29 1.01 -.21.36-.66.49-1.02.29L6.61 10.4l-2.1 2.09c-.3.29-.77.29-1.07 0 -.3-.3-.3-.77 0-1.07l1.79-1.8L1.59 7.6c-.37-.21-.5-.66-.3-1.02 .2-.37.65-.5 1.01-.3l.88.49V5.43c0-.42.33-.75.75-.75Z"/><path d="M9 1.25c.41 0 .75.33.75.75v2.29l2.19 1.59c.33.24.4.71.16 1.04 -.25.33-.72.4-1.05.16l-.91-.66 -2.86 1.23c-.39.16-.83-.01-.99-.39 -.17-.39 0-.83.38-.99l2.04-.89 -3-2.18H3.95c-.42 0-.75-.34-.75-.75 0-.42.33-.75.75-.75h2c.15 0 .31.05.44.14l1.8 1.31V1.94c0-.42.33-.75.75-.75Z"/></g></svg>