<svg viewBox="0 0 24 24" xmlns="http://www.w3.org/2000/svg"><g fill-rule="evenodd"><path d="M1.37 11.57c.13-.21.37-.33.62-.33h16c.24 0 .48.12.62.32 .13.2.16.46.07.69l-.89 2.22 .88 2.22c.07.17.07.37 0 .55l-.89 2.22 .88 2.22c.09.23.06.49-.08.69 -.14.2-.38.32-.63.32h-12c-.42 0-.75-.34-.75-.75 0-.42.33-.75.75-.75h10.89l-.59-1.48c-.08-.18-.08-.38 0-.56l.88-2.23 -.89-2.23c-.08-.18-.08-.38 0-.56l.58-1.48H3.03l.58 1.47c.07.17.07.37 0 .55l-.89 2.22 .88 2.22c.07.17.07.37 0 .55l-1 2.5c-.16.38-.6.57-.98.41 -.39-.16-.58-.6-.42-.98l.88-2.23 -.89-2.23c-.08-.18-.08-.38 0-.56l.88-2.23 -.89-2.23c-.1-.24-.07-.5.07-.7Z"/><path d="M7 11.25c.41 0 .75.33.75.75v10c0 .41-.34.75-.75.75 -.42 0-.75-.34-.75-.75V12c0-.42.33-.75.75-.75Z"/><path d="M13 11.25c.41 0 .75.33.75.75v10c0 .41-.34.75-.75.75 -.42 0-.75-.34-.75-.75V12c0-.42.33-.75.75-.75Z"/><path d="M5.37 1.57c.13-.21.37-.33.62-.33h16c.24 0 .48.12.62.32 .13.2.16.46.07.69l-.89 2.22 .88 2.22c.07.17.07.37 0 .55l-.89 2.22 .88 2.22c.09.23.06.49-.08.69 -.14.2-.38.32-.63.32h-16c-.25 0-.49-.13-.63-.33 -.14-.21-.17-.47-.08-.7l.88-2.23 -.89-2.23c-.08-.18-.08-.38 0-.56l.88-2.23 -.89-2.23c-.1-.24-.07-.5.07-.7Zm1.72 1.17l.58 1.47c.07.17.07.37 0 .55l-.89 2.22 .88 2.22c.07.17.07.37 0 .55l-.59 1.47h13.78l-.59-1.48c-.08-.18-.08-.38 0-.56l.88-2.23 -.89-2.23c-.08-.18-.08-.38 0-.56l.58-1.48H7.04Z"/><path d="M11 1.25c.41 0 .75.33.75.75v10c0 .41-.34.75-.75.75 -.42 0-.75-.34-.75-.75V2c0-.42.33-.75.75-.75Z"/><path d="M17 1.25c.41 0 .75.33.75.75v10c0 .41-.34.75-.75.75 -.42 0-.75-.34-.75-.75V2c0-.42.33-.75.75-.75Z"/></g></svg>