<svg viewBox="0 0 24 24" xmlns="http://www.w3.org/2000/svg"><g fill-rule="evenodd"><path d="M1.25 9c0-4.29 3.46-7.75 7.75-7.75h6c4.28 0 7.75 3.46 7.75 7.75v2.83c0 1.59-.73 3.1-1.98 4.09l-4.57 3.64c-.33.25-.8.2-1.06-.12 -.26-.33-.21-.8.11-1.06l4.56-3.65c.88-.72 1.4-1.79 1.4-2.93V8.96c0-3.46-2.8-6.25-6.25-6.25h-6c-3.46 0-6.25 2.79-6.25 6.25v2.83c0 1.13.51 2.21 1.4 2.92l8.31 6.64c.32.25.37.73.11 1.05 -.26.32-.74.37-1.06.11l-8.32-6.65c-1.25-1-1.98-2.51-1.98-4.1V8.92Z"/><path d="M17.79 1.81c.38.16.55.6.39.98l-.78 1.8c-.56 1.28-1.71 2.21-3.08 2.49l-4.77.95C7.24 8.49 5 6.99 4.54 4.69l-.32-1.57c-.09-.41.18-.31.58-.39 .4-.09.8-.32.88.08l.31 1.56c.29 1.48 1.74 2.45 3.23 2.15l4.76-.96c.88-.18 1.63-.79 1.98-1.62l.77-1.81c.16-.39.6-.56.98-.4Z"/></g></svg>