<svg viewBox="0 0 24 24" xmlns="http://www.w3.org/2000/svg"><g fill-rule="evenodd"><path d="M1.25 2c0-.42.33-.75.75-.75h13c.04 0 .08 0 .12 0 .12-.01.25-.01.37-.01 4 0 7.25 3.24 7.25 7.25 0 2.75-1.55 5.15-3.81 6.38l3.58 3.58c.28.28.29.75.01 1.04l-3 3.14c-.15.14-.34.23-.54.23 -.21 0-.4-.08-.55-.23l-3.62-3.68c-1.24 2.23-3.62 3.75-6.36 3.75 -4.01 0-7.25-3.25-7.25-7.25 0-.13 0-.26 0-.38 -.01-.04-.01-.08-.01-.13 0-.42.33-.75.75-.75h.01c.2 0 .4.08.55.24 .14.15.21.35.19.56 -.02.14-.02.29-.02.44 0 3.17 2.57 5.75 5.75 5.75 2.49 0 4.62-1.59 5.416-3.82 .08-.25.29-.43.54-.48 .25-.06.51.02.69.2l3.83 3.9 1.95-2.06 -3.85-3.85c-.19-.19-.26-.45-.21-.7 .05-.26.24-.46.48-.55 2.24-.79 3.85-2.93 3.85-5.44 0-3.18-2.58-5.75-5.75-5.75 -.15 0-.3 0-.45.01 -.08 0-.16-.01-.23-.02H2.59v8.25c0 .41-.34.75-.75.75 -.42 0-.75-.34-.75-.75v-9Z"/><path d="M14 5.25c.41 0 .75.33.75.75v8c0 .41-.34.75-.75.75H6c-.42 0-.75-.34-.75-.75 0-.42.33-.75.75-.75h7.25V6c0-.42.33-.75.75-.75Z"/><path d="M10 4.25c.41 0 .75.33.75.75v5c0 .41-.34.75-.75.75H5c-.42 0-.75-.34-.75-.75 0-.42.33-.75.75-.75h4.25V5c0-.42.33-.75.75-.75Z"/></g></svg>