<svg viewBox="0 0 24 24" xmlns="http://www.w3.org/2000/svg"><g fill-rule="evenodd"><path d="M12 8.75c-2.92 0-5.25 2.29-5.25 5.08 0 .59.28 1.36.82 2.24 .52.86 1.24 1.74 1.97 2.54 .73.79 1.46 1.5 2.01 2 .16.14.3.27.43.38 .12-.12.27-.25.43-.39 .55-.51 1.28-1.21 2.01-2.01 .73-.81 1.44-1.69 1.97-2.55 .53-.88.82-1.65.82-2.25 0-2.79-2.34-5.09-5.25-5.09ZM12 22c-.48.57-.48.57-.48.57l-.01-.01 -.02-.02 -.06-.05c-.05-.04-.12-.1-.2-.17 -.17-.15-.41-.36-.7-.62 -.58-.53-1.35-1.26-2.11-2.1 -.77-.84-1.56-1.8-2.15-2.78 -.59-.96-1.05-2.013-1.05-3.03 0-3.66 3.04-6.59 6.75-6.59 3.7 0 6.75 2.92 6.75 6.58 0 1.01-.47 2.07-1.05 3.02 -.6.97-1.39 1.93-2.15 2.77 -.77.84-1.54 1.57-2.11 2.09 -.29.26-.53.47-.7.61 -.09.07-.16.12-.2.16l-.06.04 -.02.01 -.01 0c-.01 0-.01 0-.48-.58Zm0 0l.47.57c-.28.22-.68.22-.96 0l.47-.58Z"/><path d="M7.53 6.75c-.44 0-.79.35-.79.78v6.46c0 .41-.34.75-.75.75 -.42 0-.75-.34-.75-.75V7.52c0-1.27 1.02-2.29 2.28-2.29 .45 0 .89.13 1.26.38l2.61 1.74c.34.22.43.69.2 1.04 -.23.34-.7.43-1.04.2L7.93 6.84c-.13-.09-.29-.14-.44-.14Z"/><path d="M16.46 6.75c.43 0 .78.35.78.78v6.46c0 .41.33.75.75.75 .41 0 .75-.34.75-.75V7.52c0-1.27-1.03-2.29-2.29-2.29 -.46 0-.9.13-1.27.38l-2.62 1.74c-.35.22-.44.69-.21 1.04 .22.34.69.43 1.04.2L16 6.84c.12-.09.28-.14.43-.14Z"/><path d="M12 1.25c.26 0 .5.13.64.36l1.11 1.85 1.85-1.12c.19-.12.43-.14.64-.07 .21.07.37.25.45.46l1 3c.13.39-.09.81-.48.94 -.4.13-.82-.09-.95-.48l-.71-2.12 -1.7 1.01c-.36.21-.82.09-1.029-.26l-.86-1.43 -.86 1.42c-.22.35-.68.47-1.029.25l-1.7-1.02 -.71 2.11c-.14.39-.56.6-.95.47 -.4-.14-.61-.56-.48-.95l1-3c.07-.22.23-.39.45-.47 .21-.08.45-.06.64.06l1.85 1.11 1.11-1.86c.13-.23.37-.37.64-.37Z"/><path d="M2.03 6.41c.24-.2.57-.22.83-.07l3.5 2c.35.2.48.66.27 1.02 -.21.35-.67.48-1.03.27L3.72 8.56l.96 3.2c.07.26 0 .55-.19.74l-1.36 1.35 5.23 3.49c.34.22.43.69.2 1.04 -.23.34-.7.43-1.05.2l-6-4c-.19-.13-.31-.33-.34-.56 -.03-.23.05-.45.21-.61l1.68-1.69 -1.38-4.58c-.09-.3.01-.62.25-.81Z"/><path d="M21.96 6.41c-.25-.2-.58-.22-.84-.07l-3.5 2c-.36.2-.49.66-.28 1.02 .2.35.66.48 1.02.27l1.92-1.11c.01.3.22.57.53.66 .39.11.81-.11.93-.51l.45-1.5c.08-.3-.02-.62-.26-.81Zm-2.5 5.05c-.3.29-.3.76 0 1.06l1.35 1.35 -5.24 3.49c-.35.22-.44.69-.21 1.04 .22.34.69.43 1.04.2l6-4c.18-.13.3-.33.33-.56 .02-.23-.06-.45-.22-.61l-2-2c-.3-.3-.77-.3-1.07 0Z"/><path d="M12 18.75c-.42 0-.75.33-.75.75 0-.01 0-.01 0 0 0 0 0 .03.02.11 .02.07.06.17.12.28 .11.22.28.48.45.72 .04.06.09.12.14.19 .04-.07.09-.13.14-.2 .17-.25.34-.5.45-.73 .05-.12.09-.21.12-.29 .02-.08.02-.11.02-.12 0-.01 0-.01 0 0 0-.42-.34-.76-.75-.76ZM12 22c-.56.5-.56.5-.56.5l-.01-.01 -.01-.01 -.02-.02c-.02-.02-.03-.04-.06-.06 -.05-.06-.11-.13-.19-.22 -.15-.18-.35-.43-.55-.71 -.2-.28-.41-.6-.58-.92 -.16-.3-.32-.69-.32-1.09 0-1.25 1-2.25 2.25-2.25 1.24 0 2.25 1 2.25 2.25 0 .39-.17.78-.32 1.08 -.17.31-.38.63-.58.91 -.21.27-.4.52-.55.7 -.08.08-.14.16-.19.21 -.03.02-.04.04-.06.05l-.02.01 -.01 0 -.01 0c-.01 0-.01 0-.56-.51Zm0 0l.55.5c-.15.15-.35.24-.56.24 -.22 0-.42-.1-.56-.25l.55-.51Z"/></g></svg>