<svg viewBox="0 0 24 24" xmlns="http://www.w3.org/2000/svg"><g fill-rule="evenodd"><path d="M12 6.75c-4.01 0-7.25 3.24-7.25 7.25 0 2.75 1.53 5.14 3.79 6.37l2.74-8.61c.09-.32.38-.53.71-.53 .32 0 .61.21.71.52l2.74 8.6c2.26-1.23 3.79-3.63 3.79-6.38 0-.42.33-.75.75-.75 .41 0 .75.33.75.75 0 3.67-2.27 6.81-5.47 8.11 -.2.07-.42.07-.61-.02 -.19-.09-.34-.26-.4-.46l-2.29-7.18 -2.29 7.17c-.07.19-.21.36-.4.45 -.19.08-.41.09-.61.01 -3.21-1.3-5.47-4.45-5.47-8.12 0-4.84 3.91-8.75 8.75-8.75 2.92 0 5.52 1.44 7.1 3.64 .24.33.16.8-.18 1.04 -.34.24-.81.16-1.05-.18 -1.32-1.84-3.465-3.03-5.891-3.03Z"/><path d="M11.5 2.75c-.97 0-1.75.78-1.75 1.75v2c0 .41-.34.75-.75.75 -.42 0-.75-.34-.75-.75v-2c0-1.8 1.45-3.25 3.25-3.25h1c1.79 0 3.25 1.45 3.25 3.25v2c0 .41-.34.75-.75.75 -.42 0-.75-.34-.75-.75v-2c0-.97-.79-1.75-1.75-1.75h-1Z"/><path d="M5.37 1.58c.22-.35.69-.44 1.04-.21l3 2c.34.22.43.69.2 1.04 -.23.34-.7.43-1.05.2l-3-2c-.35-.23-.44-.7-.21-1.05Z"/><path d="M18.62 1.58c-.23-.35-.7-.44-1.05-.21l-3 2c-.35.22-.44.69-.21 1.04 .22.34.69.43 1.04.2l3-2c.34-.23.43-.7.2-1.05Z"/><path d="M8.91 19.53c.25-.33.73-.38 1.05-.12l2.03 1.62 2.03-1.63c.32-.26.79-.21 1.05.11 .25.32.2.79-.12 1.05l-2.5 2c-.28.21-.67.21-.94 0l-2.5-2c-.33-.26-.38-.74-.12-1.06Z"/><path d="M16.5 13.75c-.42 0-.75.33-.75.75 0 .41.33.75.75.75 .41 0 .75-.34.75-.75 0-.42-.34-.75-.75-.75Zm-2.25.75c0-1.25 1-2.25 2.25-2.25 1.24 0 2.25 1 2.25 2.25 0 1.24-1.01 2.25-2.25 2.25 -1.25 0-2.25-1.01-2.25-2.25Z"/><path d="M8.5 10.75c-.42 0-.75.33-.75.75 0 .41.33.75.75.75 .41 0 .75-.34.75-.75 0-.42-.34-.75-.75-.75Zm-2.25.75c0-1.25 1-2.25 2.25-2.25 1.24 0 2.25 1 2.25 2.25 0 1.24-1.01 2.25-2.25 2.25 -1.25 0-2.25-1.01-2.25-2.25Z"/></g></svg>