<svg viewBox="0 0 24 24" xmlns="http://www.w3.org/2000/svg"><g fill-rule="evenodd"><path d="M7.75 5c0-.42.33-.75.75-.75h4c.41 0 .75.33.75.75v2.59l3.27 2.18c.76.51 1.22 1.36 1.22 2.28v9.92c0 .41-.34.75-.75.75h-13c-.42 0-.75-.34-.75-.75v-2c0-.42.33-.75.75-.75 .41 0 .75.33.75.75v1.25h11.5v-9.18c0-.42-.21-.81-.56-1.05l-3.61-2.41c-.21-.14-.34-.38-.34-.63V5.7h-2.5v2.25c0 .25-.13.48-.34.62l-3.61 2.4c-.35.23-.56.62-.56 1.04v3.92c0 .41-.34.75-.75.75 -.42 0-.75-.34-.75-.75V12c0-.92.45-1.78 1.22-2.29l3.27-2.19v-2.6Z"/><path d="M6.75 2c0-.42.33-.75.75-.75h6c.41 0 .75.33.75.75v3c0 .41-.34.75-.75.75h-6c-.42 0-.75-.34-.75-.75V2Zm1.5.75v1.5h4.5v-1.5h-4.5Z"/><path d="M9.96 9.96c.29-.3.76-.3 1.06 0l.78.78h.68c.22 0 .43.1.58.27 .14.17.19.4.15.62l-.29 1.41 .8-.28c.22-.08.48-.05.67.09 .19.14.31.36.31.61v.68l.78.78c.29.29.29.76 0 1.06l-.62.61 .25.51c.11.23.1.5-.04.72 -.14.22-.38.35-.64.35h-8c-.26 0-.51-.14-.64-.36 -.14-.23-.15-.5-.04-.73l.25-.52 -.62-.62c-.3-.3-.3-.77 0-1.07l.78-.79v-.69c0-.25.11-.47.31-.62 .19-.15.44-.18.67-.1l.8.27 -.29-1.42c-.05-.23.01-.45.15-.63 .14-.18.35-.28.58-.28h.68l.78-.79Zm-2.27 6.78h5.58c-.1-.27-.03-.58.17-.79l.46-.47 -.47-.47c-.13-.13-.21-.31-.22-.49l-1.05.35c-.25.08-.53.03-.73-.14 -.21-.18-.3-.44-.26-.7l.03-.2c0-.01 0-.02 0-.03l.32-1.61h-.09c-.2 0-.39-.08-.54-.22l-.47-.47 -.47.46c-.15.14-.34.21-.54.21h-.09l.32 1.6s0 .01 0 .02l.03.19c.04.26-.06.52-.26.69 -.21.17-.48.22-.73.13l-1.05-.36c-.02.18-.09.35-.22.48l-.47.46 .46.46c.2.2.27.51.17.78Z"/><path d="M10.5 15.25c.41 0 .75.33.75.75v3c0 .41-.34.75-.75.75 -.42 0-.75-.34-.75-.75v-3c0-.42.33-.75.75-.75Z"/><path d="M11.75 7c0-.42.33-.75.75-.75H18c1.51 0 2.75 1.23 2.75 2.75v1c0 1.51-1.24 2.75-2.75 2.75h-1c-.42 0-.75-.34-.75-.75 0-.42.33-.75.75-.75h1c.69 0 1.25-.56 1.25-1.25V9c0-.7-.56-1.25-1.25-1.25h-5.5c-.42 0-.75-.34-.75-.75Z"/></g></svg>