<svg viewBox="0 0 24 24" xmlns="http://www.w3.org/2000/svg"><path fill-rule="evenodd" d="M12 1.25c.23 0 .45.11.6.3l1.12 1.49 1.44-.73c.24-.13.54-.11.77.06 .22.16.34.43.3.71l-.63 4.38 1.9-1.58c.22-.19.53-.23.79-.1 .26.12.42.38.42.67V8.2h2.25c.24 0 .46.11.6.31 .14.19.17.44.1.67l-.83 2.48 1.56 1.17c.22.16.33.44.29.72 -.05.27-.24.5-.51.59L16 16.19l.61 1.43c.11.26.06.56-.12.78 -.19.21-.48.31-.76.24l-1.57-.4v3.66c0 .41-.34.75-.75.75h-3c-.42 0-.75-.34-.75-.75v-3.67l-1.57.39c-.28.06-.57-.03-.76-.25 -.19-.22-.24-.52-.12-.79l.61-1.44 -6.17-2.06c-.27-.09-.46-.32-.51-.6 -.05-.28.06-.56.29-.73l1.56-1.18 -.83-2.49c-.08-.23-.04-.49.1-.68 .14-.2.36-.32.6-.32h2.25V6.33c0-.3.16-.56.42-.68 .26-.13.57-.09.79.09L8.7 7.7c.09-.07.2-.11.32-.13 .41-.06.78.22.84.63l.11.8c.04.3-.11.6-.38.75 -.27.15-.61.12-.85-.08L6.56 7.88v.91c0 .41-.34.75-.75.75H3.85l.67 2.01c.1.3-.01.64-.27.83l-.86.64 5.57 1.85c.19.06.36.21.44.4 .08.19.08.4 0 .6l-.35.79 1.03-.26c.22-.06.46-.01.64.13s.28.36.28.59v3.875h1.5V17.12c0-.24.1-.45.28-.6 .18-.15.41-.2.64-.14l1.03.25 -.35-.8c-.09-.2-.09-.42 0-.61 .08-.2.24-.34.44-.41l5.57-1.86 -.86-.65c-.26-.2-.37-.54-.27-.84l.67-2.02h-1.96c-.42 0-.75-.34-.75-.75v-.92l-2.18 1.78c-.24.19-.58.22-.85.07 -.27-.16-.42-.46-.38-.76l.69-4.89 -.72.35c-.33.16-.72.06-.94-.23l-.9-1.2 -.9 1.2c-.22.28-.62.38-.94.22l-.72-.36 .01.08c.05.41-.23.78-.64.84 -.42.05-.79-.23-.85-.64l-.22-1.5c-.04-.28.07-.56.3-.72 .22-.17.52-.19.77-.07l1.44.72 1.12-1.5c.14-.19.36-.3.6-.3Z"/></svg>