<svg viewBox="0 0 24 24" xmlns="http://www.w3.org/2000/svg"><g fill-rule="evenodd"><path d="M1.25 19c0-1.25 1-2.25 2.25-2.25h17c1.24 0 2.25 1 2.25 2.25 0 1.24-1.01 2.25-2.25 2.25h-17c-1.25 0-2.25-1.01-2.25-2.25Zm2.25-.75c-.42 0-.75.33-.75.75 0 .41.33.75.75.75h17c.41 0 .75-.34.75-.75 0-.42-.34-.75-.75-.75h-17Z"/><path d="M6.25 3.39c.05-.37.36-.65.74-.65h1c.41 0 .74.33.74.75 0 .41-.34.75-.75.75h-.35l-1.79 12.5h12.27l-1.79-12.5h-4.35c-.42 0-.75-.34-.75-.75 0-.42.33-.75.75-.75h5c.37 0 .68.27.74.64l2 14c.03.21-.04.43-.18.59 -.15.16-.35.25-.57.25h-14c-.22 0-.43-.1-.57-.26 -.15-.17-.21-.39-.18-.6l2-14Z"/><path d="M9.25 9c0-.42.33-.75.75-.75h4c.41 0 .75.33.75.75v4c0 .41-.34.75-.75.75h-4c-.42 0-.75-.34-.75-.75V9Zm1.5.75v2.5h2.5v-2.5h-2.5Z"/><path d="M13.25 11c0-.42.33-.75.75-.75h4c.41 0 .75.33.75.75 0 .41-.34.75-.75.75h-4c-.42 0-.75-.34-.75-.75Z"/><path d="M5.25 11c0-.42.33-.75.75-.75h4c.41 0 .75.33.75.75 0 .41-.34.75-.75.75H6c-.42 0-.75-.34-.75-.75Z"/></g></svg>