<svg viewBox="0 0 24 24" xmlns="http://www.w3.org/2000/svg"><g fill-rule="evenodd"><path d="M4.25 5c0-.42.33-.75.75-.75h14c.41 0 .75.33.75.75v2c0 .41-.34.75-.75.75 -.42 0-.75-.34-.75-.75V5.75H5.75v12.5h12.5V11c0-.42.33-.75.75-.75 .41 0 .75.33.75.75v8c0 .41-.34.75-.75.75H5c-.42 0-.75-.34-.75-.75V5Z"/><path d="M12 7.25c.41 0 .75.33.75.75v8c0 .41-.34.75-.75.75 -.42 0-.75-.34-.75-.75V8c0-.42.33-.75.75-.75Z"/><path d="M7.25 12c0-.42.33-.75.75-.75h8c.41 0 .75.33.75.75 0 .41-.34.75-.75.75H8c-.42 0-.75-.34-.75-.75Z"/><path d="M5 1.25c.41 0 .75.33.75.75v3c0 .41-.34.75-.75.75 -.42 0-.75-.34-.75-.75V2c0-.42.33-.75.75-.75Z"/><path d="M9.5 1.25c.41 0 .75.33.75.75v3c0 .41-.34.75-.75.75 -.42 0-.75-.34-.75-.75V2c0-.42.33-.75.75-.75Z"/><path d="M14.5 1.25c.41 0 .75.33.75.75v3c0 .41-.34.75-.75.75 -.42 0-.75-.34-.75-.75V2c0-.42.33-.75.75-.75Z"/><path d="M19 1.25c.41 0 .75.33.75.75v3c0 .41-.34.75-.75.75 -.42 0-.75-.34-.75-.75V2c0-.42.33-.75.75-.75Z"/><path d="M5 18.25c.41 0 .75.33.75.75v3c0 .41-.34.75-.75.75 -.42 0-.75-.34-.75-.75v-3c0-.42.33-.75.75-.75Z"/><path d="M9.5 18.25c.41 0 .75.33.75.75v3c0 .41-.34.75-.75.75 -.42 0-.75-.34-.75-.75v-3c0-.42.33-.75.75-.75Z"/><path d="M14.5 18.25c.41 0 .75.33.75.75v3c0 .41-.34.75-.75.75 -.42 0-.75-.34-.75-.75v-3c0-.42.33-.75.75-.75Z"/><path d="M19 18.25c.41 0 .75.33.75.75v3c0 .41-.34.75-.75.75 -.42 0-.75-.34-.75-.75v-3c0-.42.33-.75.75-.75Z"/><path d="M13.75 9c0-.42.33-.75.75-.75h2c.41 0 .75.33.75.75 0 .41-.34.75-.75.75h-2c-.42 0-.75-.34-.75-.75Z"/><path d="M6.75 9c0-.42.33-.75.75-.75h2c.41 0 .75.33.75.75 0 .41-.34.75-.75.75h-2c-.42 0-.75-.34-.75-.75Z"/><path d="M13.75 15c0-.42.33-.75.75-.75h2c.41 0 .75.33.75.75 0 .41-.34.75-.75.75h-2c-.42 0-.75-.34-.75-.75Z"/><path d="M6.75 15c0-.42.33-.75.75-.75h2c.41 0 .75.33.75.75 0 .41-.34.75-.75.75h-2c-.42 0-.75-.34-.75-.75Z"/></g></svg>