<svg viewBox="0 0 24 24" xmlns="http://www.w3.org/2000/svg"><g fill-rule="evenodd"><path d="M16.46 6.46c.29-.3.76-.3 1.06 0l3.53 3.53c1.07 1.07 1.68 2.54 1.68 4.06v5.42c0 1.79-1.46 3.25-3.25 3.25h-5.43c-1.53 0-2.99-.61-4.07-1.69l-3.54-3.54c-.3-.3-.3-.77 0-1.07l10-10Zm.53 1.59l-8.94 8.93 3 3c.79.79 1.87 1.24 3 1.24h5.42c.96 0 1.75-.79 1.75-1.75v-5.43c0-1.13-.45-2.21-1.25-3.01l-3.01-3.01Z"/><path d="M11.29 5.35c-1.27-1.27-3.33-1.27-4.6 0L5.34 6.69c-1.27 1.26-1.27 3.327 0 4.59l3.14 3.14 5.93-5.94 -.47-.47c-.3-.3-.3-.77 0-1.07 .29-.3.76-.3 1.06 0l1 1c.29.29.29.76 0 1.06l-7 6.99c-.3.29-.77.29-1.07 0l-3.68-3.68c-1.86-1.86-1.86-4.87 0-6.72l1.34-1.35c1.85-1.86 4.86-1.86 6.71 0l.17.17c.29.29.29.76 0 1.06 -.3.29-.77.29-1.07 0l-.18-.18Z"/><path d="M12.53 15.46c.29.29.29.76 0 1.06l-3 3c-.3.29-.77.29-1.07 0 -.3-.3-.3-.77 0-1.07l3-3c.29-.3.76-.3 1.06 0Z"/><path d="M19.53 13.46c.29.29.29.76 0 1.06l-4 4c-.3.29-.77.29-1.07 0 -.3-.3-.3-.77 0-1.07l4-4c.29-.3.76-.3 1.06 0Z"/></g></svg>