<svg viewBox="0 0 24 24" xmlns="http://www.w3.org/2000/svg"><g fill-rule="evenodd"><path d="M3.96 10.96c.29-.3.76-.3 1.06 0l3 3c.14.14.21.33.21.53v4c0 .3-.19.57-.47.69 -.29.11-.61.05-.82-.17l-5-5c-.3-.3-.3-.77 0-1.07l2-2Zm-.41 2.53l3.18 3.18v-1.88l-2.25-2.25 -.94.93Z"/><path d="M11 9.75c-1.52 0-2.75 1.23-2.75 2.75v5c0 1.51 1.23 2.75 2.75 2.75h6c1.51 0 2.75-1.24 2.75-2.75V17c0-.42.33-.75.75-.75 .41 0 .75.33.75.75v.5c0 2.34-1.91 4.25-4.25 4.25h-6c-2.35 0-4.25-1.91-4.25-4.25v-5c0-2.35 1.9-4.25 4.25-4.25h6c2.34 0 4.25 1.9 4.25 4.25v.5c0 .41-.34.75-.75.75 -.42 0-.75-.34-.75-.75v-.5c0-1.52-1.24-2.75-2.75-2.75h-6Z"/><path d="M6.75 7c0-2.63 2.12-4.75 4.75-4.75h5c2.62 0 4.75 2.12 4.75 4.75v5c0 .41-.34.75-.75.75 -.42 0-.75-.34-.75-.75V7c0-1.8-1.46-3.25-3.25-3.25h-5C9.7 3.75 8.25 5.2 8.25 7v5c0 .41-.34.75-.75.75 -.42 0-.75-.34-.75-.75V7Z"/><path d="M13.99 6.25c.41-.01.75.33.75.74l0 2c0 .41-.34.75-.75.75 -.42 0-.75-.34-.76-.75l-.01-2c-.01-.42.33-.76.74-.76Z"/></g></svg>