<svg viewBox="0 0 24 24" xmlns="http://www.w3.org/2000/svg"><g fill-rule="evenodd"><path d="M12 15.25c.41 0 .75.33.75.75v6c0 .41-.34.75-.75.75 -.42 0-.75-.34-.75-.75v-6c0-.42.33-.75.75-.75Z"/><path d="M7 15.25c.41 0 .75.33.75.75v6c0 .41-.34.75-.75.75 -.42 0-.75-.34-.75-.75v-6c0-.42.33-.75.75-.75Z"/><path d="M16.84 15.25c-.42 0-.75.33-.75.75v6c0 .41.33.75.75.75 .41 0 .75-.34.75-.75v-6c0-.42-.34-.75-.75-.75Z"/><path d="M9.07 4.48C8.26 5.6 7.74 7.19 7.74 8.99c0 1.79.52 3.38 1.32 4.51 .8 1.12 1.84 1.73 2.92 1.73 1.07 0 2.12-.61 2.92-1.74 .8-1.13 1.32-2.72 1.32-4.52 0-1.8-.53-3.39-1.33-4.52 -.81-1.13-1.85-1.74-2.93-1.74s-2.13.6-2.93 1.73ZM7.84 3.6c1-1.41 2.46-2.37 4.14-2.37 1.68 0 3.14.95 4.14 2.36 1 1.4 1.6 3.31 1.6 5.38s-.6 3.97-1.61 5.38c-1.01 1.4-2.46 2.36-4.15 2.36 -1.69 0-3.15-.96-4.15-2.37C6.8 12.93 6.2 11.02 6.2 8.95c0-2.08.59-3.98 1.6-5.39Z"/><path d="M4.07 4.48C3.26 5.6 2.74 7.19 2.74 8.99c0 1.79.52 3.38 1.32 4.51 .8 1.12 1.84 1.73 2.92 1.73 .66 0 1.31-.24 1.89-.67 .33-.25.8-.18 1.04.15 .24.33.17.8-.16 1.04 -.82.6-1.77.96-2.8.96 -1.69 0-3.15-.96-4.15-2.37 -1.01-1.41-1.61-3.32-1.61-5.39 0-2.08.59-3.98 1.6-5.39 1-1.41 2.46-2.37 4.14-2.37 1.02 0 1.98.36 2.79.96 .33.24.4.71.15 1.04 -.25.33-.72.4-1.05.15 -.59-.44-1.24-.67-1.9-.67 -1.08 0-2.13.6-2.93 1.73Z"/><path d="M19.77 4.48c.8 1.12 1.32 2.71 1.32 4.51 0 .41.33.75.75.75 .41 0 .75-.34.75-.75 0-2.08-.6-3.98-1.61-5.39 -1.01-1.41-2.46-2.37-4.15-2.37 -1.03 0-1.99.36-2.8.96 -.34.24-.41.71-.16 1.04 .24.33.71.4 1.04.15 .58-.44 1.23-.67 1.89-.67 1.07 0 2.12.6 2.92 1.73Zm1.55 7.73c-.38-.18-.83-.03-1.01.35 -.83 1.71-2.14 2.67-3.48 2.67 -.67 0-1.32-.24-1.9-.67 -.34-.25-.81-.18-1.05.15 -.25.33-.18.8.15 1.04 .81.6 1.76.96 2.79.96 2.11 0 3.85-1.5 4.83-3.529 .17-.38.02-.83-.36-1.01Z"/></g></svg>