<svg viewBox="0 0 24 24" xmlns="http://www.w3.org/2000/svg"><g fill-rule="evenodd"><path d="M11.25 10.5c0-1.52 1.23-2.75 2.75-2.75h2c.41 0 .75.33.75.75v2c0 1.51-1.24 2.75-2.75 2.75h-2c-.42 0-.75-.34-.75-.75v-2ZM14 9.25c-.7 0-1.25.55-1.25 1.25v1.25H14c.69 0 1.25-.56 1.25-1.25V9.25H14Z"/><path d="M10 9.25c.69 0 1.25.55 1.25 1.25v1.25H10c-.7 0-1.25-.56-1.25-1.25V9.25H10Zm2.75 1.25c0-1.52-1.24-2.75-2.75-2.75H8c-.42 0-.75.33-.75.75v2c0 1.51 1.23 2.75 2.75 2.75h2c.41 0 .75-.34.75-.75v-2Z"/><path d="M11.25 16c0-1.52 1.23-2.75 2.75-2.75h2c.41 0 .75.33.75.75v2c0 1.51-1.24 2.75-2.75 2.75h-2c-.42 0-.75-.34-.75-.75v-2ZM14 14.75c-.7 0-1.25.55-1.25 1.25v1.25H14c.69 0 1.25-.56 1.25-1.25v-1.25H14Z"/><path d="M12.75 16c0-1.52-1.24-2.75-2.75-2.75H8c-.42 0-.75.33-.75.75v2c0 1.51 1.23 2.75 2.75 2.75h2c.41 0 .75-.34.75-.75v-2ZM10 14.75c.69 0 1.25.55 1.25 1.25v1.25H10c-.7 0-1.25-.56-1.25-1.25v-1.25H10Z"/><path d="M12 6.25c.41 0 .75.33.75.75v15c0 .41-.34.75-.75.75 -.42 0-.75-.34-.75-.75V7c0-.42.33-.75.75-.75Z"/><path d="M12.54 2.51s0-.01 0 0l-.01 0 -.02.01c-.02.01-.04.03-.06.06 -.06.05-.13.13-.22.23 -.18.2-.42.48-.66.79 -.24.31-.47.63-.63.93 -.18.32-.22.5-.22.56 0 .57.51 1.125 1.25 1.125 .73 0 1.25-.55 1.25-1.125 0-.42.33-.75.75-.75 .41 0 .75.33.75.75 0 1.49-1.28 2.625-2.75 2.625 -1.48 0-2.75-1.14-2.75-2.625 0-.46.2-.93.4-1.29 .21-.39.48-.79.74-1.13 .26-.35.52-.66.72-.88 .09-.12.17-.21.23-.27 .02-.04.05-.06.06-.08l.01-.02 0-.01 0-.01c0-.01 0-.01.54.51l-.55-.52c.28-.3.76-.31 1.06-.03 .29.28.3.76.02 1.06Z"/></g></svg>