<svg viewBox="0 0 24 24" xmlns="http://www.w3.org/2000/svg"><g fill-rule="evenodd"><path d="M12 7.25c-.42 0-.75.33-.75.75 0 .41.33.75.75.75 .41 0 .75-.34.75-.75 0-.42-.34-.75-.75-.75ZM9.75 8c0-1.25 1-2.25 2.25-2.25 1.24 0 2.25 1 2.25 2.25 0 1.24-1.01 2.25-2.25 2.25 -1.25 0-2.25-1.01-2.25-2.25Z"/><path d="M18.53 1.46c.29.29.29.76 0 1.06l-5 5c-.3.29-.77.29-1.07 0 -.3-.3-.3-.77 0-1.07l5-5c.29-.3.76-.3 1.06 0Z"/><path d="M5.46 1.46c-.3.29-.3.76 0 1.06l5 5c.29.29.76.29 1.06 0 .29-.3.29-.77 0-1.07l-5-5c-.3-.3-.77-.3-1.07 0Z"/><path d="M18.53 14.53c.29-.3.29-.77 0-1.07l-5-5.01c-.3-.3-.77-.3-1.07 0 -.3.29-.3.76 0 1.06l5 4.99c.29.29.76.29 1.06 0Z"/><path d="M5.46 14.53c-.3-.3-.3-.77 0-1.07l5-5.01c.29-.3.76-.3 1.06 0 .29.29.29.76 0 1.06l-5 4.99c-.3.29-.77.29-1.07 0Z"/><path d="M12 8.75c.34 0 .64.23.72.57l1.32 5.5c.09.4-.16.8-.56.9 -.41.09-.81-.16-.91-.56l-.6-2.47 -2.05 8.53h4.09l-.5-2.08c-.1-.41.15-.81.55-.91 .4-.1.8.15.9.55l.72 3c.05.22 0 .45-.15.63s-.36.28-.59.28h-6c-.23 0-.45-.11-.59-.29 -.15-.19-.2-.42-.15-.64l2.99-12.5c.08-.34.38-.58.72-.58Z"/><path d="M4.25 22c0-.42.33-.75.75-.75h14c.41 0 .75.33.75.75 0 .41-.34.75-.75.75H5c-.42 0-.75-.34-.75-.75Z"/></g></svg>