<svg viewBox="0 0 24 24" xmlns="http://www.w3.org/2000/svg"><g fill-rule="evenodd"><path d="M7.75 5c0-2.08 1.67-3.75 3.75-3.75 2.07 0 3.75 1.67 3.75 3.75v7c0 .41-.34.75-.75.75 -.42 0-.75-.34-.75-.75V5c0-1.25-1.01-2.25-2.25-2.25 -1.25 0-2.25 1-2.25 2.25v1c0 .41-.34.75-.75.75 -.42 0-.75-.34-.75-.75V5Zm6.75 10.25c.41 0 .75.33.75.75v6c0 .41-.34.75-.75.75 -.42 0-.75-.34-.75-.75v-6c0-.42.33-.75.75-.75Z"/><path d="M8.5 6.75c-1.2 0-2.25 1.05-2.25 2.45 0 .25.11.64.38 1.14 .25.48.6.98.96 1.46 .32.42.64.79.9 1.09 .25-.3.58-.68.9-1.1 .36-.48.7-.98.96-1.47 .26-.5.38-.89.38-1.15 0-1.4-1.06-2.45-2.25-2.45Zm0 7.25c-.54.52-.54.52-.54.52l-.01-.01 -.01-.01 -.03-.03c-.03-.03-.06-.06-.11-.11 -.09-.1-.21-.23-.36-.39 -.3-.33-.68-.78-1.07-1.282 -.39-.51-.8-1.09-1.1-1.68 -.3-.57-.56-1.22-.56-1.85 0-2.14 1.63-3.95 3.75-3.95 2.11 0 3.75 1.81 3.75 3.95 0 .62-.26 1.27-.56 1.84 -.31.58-.72 1.16-1.1 1.67 -.4.51-.78.96-1.07 1.282 -.15.16-.27.29-.36.38 -.05.04-.08.08-.11.1l-.03.02 -.01 0 -.01 0c-.01 0-.01 0-.54-.53Zm0 0l.53.52c-.15.14-.34.22-.54.22 -.21 0-.4-.09-.54-.23l.53-.53Z"/><path d="M20.25 6c0-.42-.34-.75-.75-.75h-3c-1.52 0-2.75 1.23-2.75 2.75v1c0 .41.33.75.75.75h3c1.51 0 2.75-1.24 2.75-2.75V6Zm-1.5.75V7c0 .69-.56 1.25-1.25 1.25h-2.25V8c0-.7.55-1.25 1.25-1.25h2.25Z"/><path d="M3.75 22c0 .41.33.75.75.75h3c1.51 0 2.75-1.24 2.75-2.75v-1c0-.42-.34-.75-.75-.75h-3c-1.52 0-2.75 1.23-2.75 2.75v1Zm1.5-.75V21c0-.7.55-1.25 1.25-1.25h2.25V20c0 .69-.56 1.25-1.25 1.25H5.25Z"/></g></svg>