<svg viewBox="0 0 24 24" xmlns="http://www.w3.org/2000/svg"><g fill-rule="evenodd"><path d="M13.5 1c-1.11 0-2 .89-2 2v1c0 1.1.89 2 2 2h5c1.1 0 2-.9 2-2V3c0-1.11-.9-2-2-2h-5Z"/><path d="M1 19c0-2.21 1.79-4 4-4h7c2.2 0 4 1.79 4 4v2c0 1.1-.9 2-2 2H3c-1.11 0-2-.9-2-2v-2Zm4-2c-1.11 0-2 .89-2 2v2h11v-2c0-1.11-.9-2-2-2H5Z"/><path d="M12.5 5c0-.56.44-1 1-1h5c.55 0 1 .44 1 1v1.65c0 .4.24.76.62.91 1.13.45 1.87 1.55 1.87 2.77v9.65c0 1.65-1.35 3-3 3h-6v-2h6c.55 0 1-.45 1-1v-9.66c0-.41-.25-.77-.63-.92 -1.14-.46-1.88-1.56-1.88-2.78v-.66h-3v.65c0 1.22-.75 2.32-1.88 2.77 -.38.15-.63.51-.63.91v5.65h-2v-5.66c0-1.23.74-2.33 1.87-2.78 .37-.16.62-.52.62-.92V4.92Z"/><path d="M12 10.34v.29c1.51-.38 3.12-.24 4.56.4 1.08.48 2.3.56 3.43.24v-.95h2v9.65c0 1.65-1.35 3-3 3h-4 -2v-2h1v-4h-3c-.56 0-1-.45-1-1v-5.66h2Z"/><path d="M4.5 18.5V16h2v2.5h-2Z"/><path d="M7.5 18.5V16h2v2.5h-2Z"/><path d="M10.5 18.5V16h2v2.5h-2Z"/></g></svg>