<svg viewBox="0 0 24 24" xmlns="http://www.w3.org/2000/svg"><path fill-rule="evenodd" d="M4.96 3.54C6.86 1.94 9.32.99 11.99.99c6.07 0 11 4.92 11 11 0 2.67-.96 5.13-2.55 7.03l-.68-.68 -4.62-4.62 .85-.86c1.6-1.61 2.16-3.99 1.44-6.14l-.03-.07c-.11-.33-.39-.58-.72-.66 -.34-.08-.7.02-.94.26l-4.05 4.04 -6.12-6.12 -.68-.68Zm4.33 9.24l1.04-1.05 -6.12-6.12 -.68-.68C1.93 6.83.98 9.29.98 11.96c0 6.07 4.92 11 11 11 2.67 0 5.13-.96 7.03-2.55l-.68-.68 -4.62-4.62 -1.05 1.04c-.4.39-1.03.39-1.42 0l-1.3-1.3 -2.3 2.29 -1.42-1.42 3-3Z"/></svg>