<svg viewBox="0 0 24 24" xmlns="http://www.w3.org/2000/svg"><g fill-rule="evenodd"><path d="M12 1c-1 0-1.9.56-2.35 1.44L8.23 5.27c-.18.35-.25.75-.2 1.14l1.83 14.7c.13 1.06 1.04 1.86 2.11 1.86 1.07 0 1.98-.81 2.11-1.87l1.83-14.71c.04-.4-.02-.79-.2-1.15L14.29 2.4c-.45-.89-1.35-1.45-2.35-1.45Z"/><path d="M9.99 6.92c-.03-.34-.22-.63-.51-.8 -.29-.17-.65-.18-.94-.03l-7 3.5c-.34.16-.56.51-.56.89v3c0 .55.44 1 1 1h7.5c.27 0 .54-.12.73-.33 .18-.21.28-.48.26-.76l-.51-6.5Z"/><path d="M14 6.92c.02-.34.21-.63.5-.8 .28-.17.64-.18.93-.03l7 3.5c.33.16.55.51.55.89v3c0 .55-.45 1-1 1h-7.5c-.28 0-.55-.12-.74-.33 -.19-.21-.29-.48-.27-.76l.5-6.5Z"/><path d="M11.39 18.55c-.21-.42-.67-.63-1.12-.53l-4.51 1c-.46.1-.79.5-.79.97v2c0 .55.44 1 1 1h6c.34 0 .66-.18.85-.48 .18-.3.19-.67.04-.98l-1.5-3Z"/><path d="M12.6 18.55c.2-.42.66-.63 1.11-.53l4.5 1c.45.1.78.5.78.97v2c0 .55-.45 1-1 1h-6c-.35 0-.67-.18-.86-.48 -.19-.3-.2-.67-.05-.98l1.5-3Z"/></g></svg>