<svg viewBox="0 0 24 24" xmlns="http://www.w3.org/2000/svg"><g fill-rule="evenodd"><path d="M14.24 12c-.09-.01-.17-.01-.25-.01h-4c-.1 0-.19 0-.28 0l.22.67 2.05 6.15 2.04-6.14 .19-.7Zm-2.25 9.99l-.95.31 -3-9 -.27-.8c-1.66.81-2.79 2.51-2.79 4.48v5c0 .55.44 1 1 1h12c.55 0 1-.45 1-1v-5c0-1.98-1.15-3.69-2.82-4.5l-.23.77c-.01.01-.01.02-.02.04l-3 9 -.95-.32Z"/><path d="M7.5 5.5c0-.56.44-1 1-1h7c.55 0 1 .44 1 1V8c0 2.2-1.8 4-4 4h-1c-2.21 0-4-1.8-4-4V5.5Zm2 1V8c0 1.1.89 2 2 2h1c1.1 0 2-.9 2-2V6.5h-5Z"/><path d="M10.74 1c-1.44 0-2.77.76-3.48 2.01l-.29.49c-.77 1.33.2 2.99 1.73 2.99h6.55c1.53 0 2.49-1.66 1.73-3l-.29-.5C15.97 1.74 14.65.97 13.21.97h-2.52Z"/></g></svg>