<svg viewBox="0 0 24 24" xmlns="http://www.w3.org/2000/svg"><path fill-rule="evenodd" d="M1.42 1.68c.26-.19.6-.24.91-.13l6.68 2.38 6.18-1.91c.21-.07.44-.06.65.02l6.5 2.5c.38.14.64.51.64.93v16c0 .32-.17.63-.44.82 -.28.18-.62.22-.93.1l-6.18-2.38 -6.17 1.89c-.21.06-.43.05-.64-.02l-7-2.5c-.4-.15-.67-.52-.67-.95v-16c0-.33.15-.64.42-.82Zm16 11.22c.15-.08.29-.19.39-.34l-.83-.57c.82.56.82.56.82.56l0-.01 0-.01 0-.01 0-.01 .01-.03c.01-.03.03-.06.06-.1 .05-.09.13-.21.23-.36 .19-.3.45-.71.71-1.16 .25-.45.52-.95.73-1.43 .19-.44.39-.99.39-1.5 0-1.66-1.35-3-3-3 -1.66 0-3 1.34-3 3 0 .5.2 1.05.39 1.49 .2.47.47.97.73 1.42 .13.23.27.46.4.67l-6.53 3.1c.03-.07.06-.14.09-.21 .19-.44.39-.99.39-1.5 0-1.66-1.35-3-3-3 -1.66 0-3 1.34-3 3 0 .5.2 1.05.39 1.49 .2.47.47.97.73 1.42 .26.44.52.86.71 1.15 .09.14.17.27.23.35 .02.04.05.07.06.09l.01.02 0 0 0 0 0 0 0 0s0 0 .82-.57l-.83.56c.18.27.49.43.82.43 .15 0 .29-.04.43-.1l10.49-5Z"/></svg>