<svg viewBox="0 0 24 24" xmlns="http://www.w3.org/2000/svg"><g fill-rule="evenodd"><path d="M12 3c-4.98 0-9 4.02-9 9 0 4.97 4.02 9 9 9 4.97 0 9-4.03 9-9 0-4.98-4.03-9-9-9ZM1 12C1 5.92 5.92 1 12 1c6.07 0 11 4.92 11 11 0 6.07-4.93 11-11 11C5.92 23 1 18.07 1 12Z"/><path d="M3 12c-.23 0-.46 0-.68.02 -.56.04-1.04-.38-1.08-.93 -.05-.56.37-1.04.92-1.08 .27-.03.54-.04.82-.04 6.07 0 10.99 4.92 10.99 11 0 .18-.01.36-.02.54 -.03.55-.5.97-1.05.94 -.56-.03-.98-.5-.95-1.05 0-.15.01-.3.01-.46 0-4.98-4.03-9-9-9Z"/><path d="M21.25 11.5c.22 0 .45-.01.67-.03 .55-.05 1.03.37 1.07.92 .04.55-.38 1.03-.93 1.07 -.28.02-.55.03-.83.03 -6.08 0-11-4.93-11-11 0-.19 0-.37.01-.55 .02-.56.49-.98 1.048-.95 .55.02.97.49.94 1.04 -.01.14-.02.29-.02.45 0 4.97 4.02 9 9 9Z"/><path d="M4.29 18.29l14-14L19.7 5.7 5.69 19.69l-1.42-1.42Z"/></g></svg>