<svg viewBox="0 0 24 24" xmlns="http://www.w3.org/2000/svg"><g fill-rule="evenodd"><path d="M22.7 19.7l-.85.84c-1.02 1.01-2.6 1.16-3.79.37l-.53-.36c-.34-.23-.78-.23-1.11 0l-.79.52c-1.01.67-2.33.67-3.33 0l-.79-.53c-.34-.23-.78-.23-1.11 0l-.79.52c-1.01.67-2.33.67-3.33 0l-.79-.53c-.34-.23-.78-.23-1.11 0l-1.9 1.26 -1.11-1.67 1.89-1.27c1-.68 2.32-.68 3.32 0l.78.52c.33.22.77.22 1.1 0l.78-.53c1-.68 2.32-.68 3.32 0l.78.52c.33.22.77.22 1.1 0l.78-.53c1-.68 2.32-.68 3.32 0l.52.35c.39.26.92.21 1.26-.13l.84-.85 1.41 1.41Z"/><path d="M7.61 8.56c.18 0 .36.05.52.15l3.97 2.46c.01 0 .01.01.02.01l1.3.87c1.09.73 1.56 2.1 1.14 3.35 -.53 1.56-2.25 2.38-3.8 1.8L3.5 14.46c-.78-.3-1.3-1.04-1.3-1.88l-.01-3.07c-.01-.27.1-.52.29-.71 .18-.19.44-.3.7-.3l4.37-.01Zm-.29 2H4.23l0 2.06 7.25 2.73c.48.18 1.02-.08 1.19-.57 .13-.4-.02-.83-.36-1.06l-1.3-.87 -3.72-2.31Z"/><path d="M3.35 2.86l.87 6.56 -1.99.26 -.88-6.57 1.98-.27Z"/><path d="M7.49 2.86l-.88 6.56 1.98.26 .87-6.57 -1.99-.27Z"/><path d="M19.5 13c-.83 0-1.5.67-1.5 1.5 0 .82.67 1.5 1.5 1.5 .82 0 1.5-.68 1.5-1.5 0-.83-.68-1.5-1.5-1.5ZM16 14.5c0-1.94 1.56-3.5 3.5-3.5 1.93 0 3.5 1.56 3.5 3.5 0 1.93-1.57 3.5-3.5 3.5 -1.94 0-3.5-1.57-3.5-3.5Z"/></g></svg>