<svg viewBox="0 0 24 24" xmlns="http://www.w3.org/2000/svg"><g fill-rule="evenodd"><path d="M11.72 3c-1.17 0-2.04 1.07-1.79 2.21l.68 3.21c.08.39-.09.81-.42 1.03 -.79.52-1.28 1.44-1.2 2.45l.64 9.08h4.13l.64-9.09c.07-1.02-.42-1.93-1.2-2.46 -.34-.23-.51-.64-.42-1.04l.68-3.22c.24-1.14-.63-2.22-1.79-2.22ZM7.97 5.63C7.45 3.24 9.27.99 11.71.99c2.43 0 4.25 2.24 3.74 4.63l-.56 2.6c1.02.93 1.63 2.31 1.52 3.82l-.72 10.01c-.04.52-.48.92-1 .92h-6c-.53 0-.97-.41-1-.93l-.72-10.02c-.11-1.51.5-2.89 1.52-3.83l-.56-2.61Z"/><path d="M9.72 7.5h3.99v2h-4v-2Z"/></g></svg>