<svg viewBox="0 0 24 24" xmlns="http://www.w3.org/2000/svg"><g fill-rule="evenodd"><path d="M1 9.95c0-1.98 1.68-3.46 3.62-3.46 1.59 0 3.01 1 3.47 2.45h1.02v1.99H7.23c-.56 0-1-.45-1-1 0-.75-.67-1.46-1.63-1.46 -.97 0-1.63.71-1.63 1.45 0 .47.25.92.7 1.19 .29.18.47.5.47.84 0 .34-.18.66-.48.84 -.45.27-.71.72-.71 1.19 0 .74.66 1.45 1.62 1.45 .96 0 1.62-.72 1.62-1.46 0-.56.44-1 1-1h2.75v2h-1.91c-.46 1.45-1.88 2.45-3.48 2.45 -1.94 0-3.63-1.49-3.63-3.46 0-.78.26-1.48.7-2.05 -.44-.57-.71-1.28-.71-2.05Z"/><path d="M23 14.04c0 1.97-1.69 3.45-3.625 3.45 -1.6 0-3.02-1.01-3.48-2.46h-1.03v-2h1.87c.55 0 1 .44 1 1 0 .74.66 1.45 1.625 1.45 .96 0 1.625-.72 1.625-1.46 0-.48-.26-.93-.71-1.2 -.3-.19-.48-.51-.48-.85 0-.35.17-.67.47-.85 .44-.28.7-.73.7-1.2 0-.75-.67-1.46-1.625-1.46 -.97 0-1.625.71-1.625 1.45 0 .55-.45.99-1 .99h-2.75v-2h1.9c.45-1.46 1.87-2.46 3.47-2.46 1.93 0 3.625 1.48 3.625 3.45 0 .77-.27 1.47-.71 2.04 .43.56.7 1.27.7 2.04Z"/><path d="M10.01 11.8l1-5.01 1.96.39 -.77 3.8h.78c.29 0 .58.13.77.36 .18.23.26.53.2.83l-1 5 -1.97-.4 .76-3.81h-.79c-.3 0-.59-.14-.78-.37 -.19-.24-.27-.54-.21-.84Z"/></g></svg>