<svg viewBox="0 0 24 24" xmlns="http://www.w3.org/2000/svg"><g fill-rule="evenodd"><path d="M12 3.99c-4.98 0-9 4.02-9 8.99 0 2.82 1.3 5.34 3.34 7h4.65v-7.01c0-.56.44-1 1-1h8.94c-.5-4.5-4.32-8-8.95-8ZM1 12.98c0-6.08 4.92-11 11-11 6.07 0 11 4.92 11 10.99 0 .55-.45 1-1 1h-9v7c0 .55-.45 1-1 1H6c-.22 0-.43-.08-.61-.21 -2.67-2.01-4.4-5.21-4.4-8.81Z"/><path d="M13 19.99l-1.8-2.4 1.6-1.2 1.8 2.4c.56.75 1.45 1.2 2.4 1.2h3v2h-3c-1.58 0-3.06-.75-4-2Z"/><path d="M20 16.99h-8v-2h8v2Z"/><path d="M20 19.49h-7v-2h7v2Z"/></g></svg>