<svg viewBox="0 0 24 24" xmlns="http://www.w3.org/2000/svg"><g fill-rule="evenodd"><path d="M12 2.5c.43 0 .81.27.95.69l.67 2.07h2.17c.43 0 .81.27.95.69 .13.41-.02.86-.37 1.11L14.6 8.34l.67 2.07c.13.41-.02.86-.37 1.11 -.36.25-.83.25-1.18 0l-1.77-1.29 -1.77 1.28c-.36.25-.83.25-1.18 0 -.36-.26-.5-.71-.37-1.12l.67-2.08 -1.77-1.29c-.36-.26-.5-.71-.37-1.12 .13-.42.51-.7.95-.7h2.17l.67-2.08c.13-.42.51-.7.95-.7Zm0 4.2c-.15.29-.43.5-.76.55 .23.23.34.56.28.89 .29-.16.64-.16.93 0 -.06-.33.05-.66.28-.9 -.33-.05-.62-.26-.76-.56Z"/><path d="M11 13.5H4c-.56 0-1 .44-1 1v3h2v-2h14v2h2v-3c0-.56-.45-1-1-1h-7v-1h-2v1Z"/><path d="M16.5 17.5c0-.56.44-1 1-1H22c.55 0 1 .44 1 1v3h-2v-2h-2.5v2h-2v-3Z"/><path d="M1 17.5c0-.56.44-1 1-1h4.5c.55 0 1 .44 1 1v3h-2v-2H3v2H1v-3Z"/></g></svg>