<svg viewBox="0 0 24 24" xmlns="http://www.w3.org/2000/svg"><g fill-rule="evenodd"><path d="M4 5c0-.56.44-1 1-1h6c.55 0 1 .44 1 1v2.33l4.06 1.7 2.62.61c1.35.31 2.31 1.52 2.31 2.92v.91c0 1.65-1.35 3-3 3h-12c-1.11 0-2-.9-2-2v-9.5Zm2 1v8.5h12c.55 0 1-.45 1-1v-.92c0-.47-.32-.87-.78-.98l-2.708-.64c-.06-.02-.11-.04-.16-.06l-4.75-2c-.38-.16-.62-.52-.62-.93v-2h-4Z"/><path d="M11 9H5V7h6v2Z"/><path d="M13.293 11.29l2-2 1.41 1.41 -2 2 -1.42-1.42Z"/><path d="M10.293 9.79l2-2 1.41 1.41 -2 1.99 -1.42-1.42Z"/><path d="M6 14.5V17h12.5v-2.25h2V17c0 1.1-.9 2-2 2H6c-1.11 0-2-.9-2-2v-2.5h2Z"/></g></svg>