<svg viewBox="0 0 24 24" xmlns="http://www.w3.org/2000/svg"><defs><mask id="a"><path fill="#FFF" d="M0 0h24v24H0Z"/></mask></defs><g mask="url(#a)"><g fill-rule="evenodd"><path d="M19.071 14.82c2.73-2.74 2.73-7.17 0-9.9 -2.74-2.74-7.17-2.74-9.9-.001L6.34 7.73c-.4.39-.4 1.02 0 1.41l8.48 8.48c.39.39 1.02.39 1.41 0l2.82-2.83Zm-1.42-8.49c1.95 1.95 1.95 5.11 0 7.07l-2.13 2.12 -7.08-7.08 2.12-2.13c1.95-1.96 5.11-1.96 7.07 0Z"/><path d="M16.24 17.65c.39-.4.39-1.03 0-1.42L7.75 7.74c-.4-.4-1.03-.4-1.42 0l-.05.04c-.92.91-1.14 2.308-.57 3.46l.83 1.66c.19.38.11.85-.19 1.15l-1.81 1.8c-.79.78-.79 2.04 0 2.82l.7.7c.78.78 2.04.78 2.82 0l1.8-1.81c.3-.31.76-.38 1.15-.19l1.66.83c1.15.57 2.54.35 3.46-.57l.04-.05Zm-2.6-1.18c-.01-.01-.02-.01-.02-.01l-1.67-.84c-1.16-.58-2.55-.36-3.47.56l-1.81 1.8 -.71-.71 1.8-1.81c.91-.92 1.13-2.308.56-3.47l-.84-1.67c-.01-.01-.01-.02-.01-.02l6.13 6.13Z"/></g></g></svg>