<svg viewBox="0 0 24 24" xmlns="http://www.w3.org/2000/svg"><g fill="#3747D6" fill-rule="evenodd"><path d="M8 14.5c0-1.66 1.34-3 3-3h2c1.65 0 3 1.34 3 3V21h-2v-6.5c0-.56-.45-1-1-1h-2c-.56 0-1 .44-1 1V21H8v-6.5Z"/><path d="M6.03 7.16c-1.27 1.41-2.04 3.28-2.04 5.33 0 4.41 3.58 8 8 8 4.41 0 8-3.59 8-8 0-2.05-.77-3.92-2.04-5.34l1.49-1.34c1.58 1.76 2.54 4.1 2.54 6.66 0 5.52-4.48 10-10 10 -5.53 0-10-4.48-10-10 0-2.57.96-4.9 2.54-6.67l1.49 1.33Z"/><g fill="#9545ED"><path d="M11 16v-1.5h2V16h-2Z"/><path d="M2 2.5c0-.56.44-1 1-1h18c.55 0 1 .44 1 1v2c0 1.65-1.35 3-3 3H5c-1.66 0-3-1.35-3-3v-2Zm2 1v1c0 .55.44 1 1 1h14c.55 0 1-.45 1-1v-1H4Z"/></g></g></svg>