<svg viewBox="0 0 24 24" xmlns="http://www.w3.org/2000/svg"><g fill="#9545ED" fill-rule="evenodd"><path d="M11 18.5V16h2v2.5h-2Z"/><path d="M12 14c-.28 0-.5.22-.5.5 0 .27.22.5.5.5 .27 0 .5-.23.5-.5 0-.28-.23-.5-.5-.5Zm-2.5.5c0-1.39 1.11-2.5 2.5-2.5 1.38 0 2.5 1.11 2.5 2.5 0 1.38-1.12 2.5-2.5 2.5 -1.39 0-2.5-1.12-2.5-2.5Z"/><g fill="#3747D6"><path d="M3 10.5c0-.56.44-1 1-1h16c.55 0 1 .44 1 1V21c0 .55-.45 1-1 1H4c-.56 0-1-.45-1-1V10.5Zm2 1V20h14v-8.5H5Z"/><path d="M6 6c0-2.77 2.23-5 5-5h2c2.76 0 5 2.23 5 5v4.5c0 .55-.45 1-1 1H7c-.56 0-1-.45-1-1V6Zm5-3C9.34 3 8 4.34 8 6v3.5h8V6c0-1.66-1.35-3-3-3h-2Z"/></g></g></svg>