<svg viewBox="0 0 24 24" xmlns="http://www.w3.org/2000/svg"><g fill="#9545ED" fill-rule="evenodd"><path d="M15.5 10c-3.04 0-5.5 2.46-5.5 5.5 0 3.03 2.46 5.5 5.5 5.5 3.03 0 5.5-2.47 5.5-5.5 0-3.04-2.47-5.5-5.5-5.5ZM8 15.5C8 11.35 11.35 8 15.5 8c4.14 0 7.5 3.35 7.5 7.5 0 4.14-3.36 7.5-7.5 7.5 -4.15 0-7.5-3.36-7.5-7.5Z"/><path fill="#3747D6" d="M1 2c0-.56.44-1 1-1h4.9c.32 0 .63.16.82.43l1.5 2.19h10.27c.55 0 1 .44 1 1v2.375h-2V5.62h-9.8c-.33 0-.64-.17-.83-.44l-1.51-2.2H2.97v16h5v2h-6c-.56 0-1-.45-1-1v-18Z"/><path d="M11.5 14.5c0-.56.44-1 1-1h6c.55 0 1 .44 1 1v4c0 .55-.45 1-1 1h-6c-.56 0-1-.45-1-1v-4Zm2 1v2h4v-2h-4Z"/><path d="M12.5 13.5c0-1.66 1.34-3 3-3 1.65 0 3 1.34 3 3v1c0 .55-.45 1-1 1h-4c-.56 0-1-.45-1-1v-1Zm3-1c-.56 0-1 .44-1 1h2c0-.56-.45-1-1-1Z"/></g></svg>