<svg viewBox="0 0 24 24" xmlns="http://www.w3.org/2000/svg"><path fill="#ECEFF1" d="M4 1.25C2.48 1.25 1.25 2.48 1.25 4v16c0 1.51 1.23 2.75 2.75 2.75h9.5c1.51 0 2.75-1.24 2.75-2.75V8.37c0-.78-.33-1.51-.9-2.03l-4.78-4.38c-.51-.47-1.18-.73-1.86-.73H3.98Z"/><path fill="#8B98A6" d="M10.84 2.21c-.81-.74-2.1-.17-2.1.92v2.36c0 1.51 1.23 2.75 2.75 2.75h2.71c1.14 0 1.68-1.41.84-2.18l-4.22-3.87Z"/><path fill="#5E94FF" d="M16 11.25c-1.52 0-2.75 1.23-2.75 2.75v8c0 .25.13.5.35.63 .22.13.49.14.72.03l3.66-1.84 3.66 1.83c.23.11.5.1.72-.04 .22-.14.35-.38.35-.64v-8c0-1.52-1.24-2.75-2.75-2.75h-4Z"/></svg>