<svg viewBox="0 0 24 24" xmlns="http://www.w3.org/2000/svg"><path fill="#ECEFF1" d="M6 1.25C4.48 1.25 3.25 2.48 3.25 4v16c0 1.51 1.23 2.75 2.75 2.75h12c1.51 0 2.75-1.24 2.75-2.75V8.91c0-.81-.36-1.57-.97-2.09L14.04 1.9c-.5-.43-1.14-.67-1.79-.67H5.98Z"/><path fill="#8B98A6" d="M14.31 2.13c-.82-.7-2.07-.12-2.07.94v2.91c0 1.51 1.23 2.75 2.75 2.75h3.64c1.16 0 1.69-1.45.81-2.2l-5.15-4.42Z"/><g fill="#5E94FF" fill-rule="evenodd"><path d="M7.75 12.5c0-1.25 1-2.25 2.25-2.25h.5c.41 0 .75.33.75.75 0 .41-.34.75-.75.75H10c-.42 0-.75.33-.75.75v1c0 .19-.08.38-.22.53l-.97.96 .96.96c.14.14.21.33.21.53v1c0 .41.33.75.75.75h.5c.41 0 .75.33.75.75 0 .41-.34.75-.75.75h-.5c-1.25 0-2.25-1.01-2.25-2.25v-.69L6.44 15.5c-.3-.3-.3-.77 0-1.07l1.28-1.29v-.69Z"/><path d="M16.25 12.5c0-1.25-1.01-2.25-2.25-2.25h-.5c-.42 0-.75.33-.75.75 0 .41.33.75.75.75h.5c.41 0 .75.33.75.75v1c0 .19.07.38.21.53l.96.96 -.97.96c-.15.14-.22.33-.22.53v1c0 .41-.34.75-.75.75h-.5c-.42 0-.75.33-.75.75 0 .41.33.75.75.75h.5c1.24 0 2.25-1.01 2.25-2.25v-.69l1.28-1.29c.29-.3.29-.77 0-1.07l-1.29-1.29v-.69Z"/></g></svg>