<svg viewBox="0 0 24 24" xmlns="http://www.w3.org/2000/svg"><path fill="#ECEFF1" d="M6 22.75c-1.52 0-2.75-1.24-2.75-2.75V4c0-1.52 1.23-2.75 2.75-2.75h12c1.51 0 2.75 1.23 2.75 2.75v12c0 .19-.08.38-.22.53l-6 6c-.15.14-.34.21-.54.21h-8Z"/><path fill="#4DC4FF" d="M12 6.25c-.42 0-.75.33-.75.75v3c0 .41.33.75.75.75h4c.41 0 .75-.34.75-.75V7c0-.42-.34-.75-.75-.75h-4Z"/><path fill="#8B98A6" d="M14.53 22.53c-.22.21-.54.27-.82.16 -.29-.12-.47-.39-.47-.7v-4c0-1.52 1.23-2.75 2.75-2.75h4c.3 0 .57.18.69.46 .11.28.05.6-.17.81l-6 6Z"/><g fill="#5E94FF" fill-rule="evenodd"><path d="M6.25 19c0-.42.33-.75.75-.75h2c.41 0 .75.33.75.75 0 .41-.34.75-.75.75H7c-.42 0-.75-.34-.75-.75Z"/><path d="M6.25 16c0-.42.33-.75.75-.75h5c.41 0 .75.33.75.75 0 .41-.34.75-.75.75H7c-.42 0-.75-.34-.75-.75Z"/><path d="M6.25 13c0-.42.33-.75.75-.75h3c.41 0 .75.33.75.75 0 .41-.34.75-.75.75H7c-.42 0-.75-.34-.75-.75Z"/></g><path fill="#5E94FF" d="M8 4.25c-.42 0-.75.33-.75.75v5c0 .41.33.75.75.75h4c.41 0 .75-.34.75-.75V5c0-.42-.34-.75-.75-.75H8Z"/><path fill="#8B98A6" fill-rule="evenodd" d="M6.25 10c0-.42.33-.75.75-.75h10c.41 0 .75.33.75.75 0 .41-.34.75-.75.75H7c-.42 0-.75-.34-.75-.75Z"/></svg>