<svg viewBox="0 0 24 24" xmlns="http://www.w3.org/2000/svg"><path fill="#ECEFF1" d="M6 1.25C4.48 1.25 3.25 2.48 3.25 4v16c0 1.51 1.23 2.75 2.75 2.75h12c1.51 0 2.75-1.24 2.75-2.75V8.91c0-.81-.36-1.57-.97-2.09L14.04 1.9c-.5-.43-1.14-.67-1.79-.67H5.98Z"/><path fill="#8B98A6" d="M14.31 2.13c-.82-.7-2.07-.12-2.07.94v2.91c0 1.51 1.23 2.75 2.75 2.75h3.64c1.16 0 1.69-1.45.81-2.2l-5.15-4.42Z"/><g fill="#5E94FF" fill-rule="evenodd"><path d="M7.25 19c0-.42.33-.75.75-.75h8c.41 0 .75.33.75.75 0 .41-.34.75-.75.75H8c-.42 0-.75-.34-.75-.75Z"/><path d="M12 16.75c.41 0 .75-.34.75-.75v-6c0-.42-.34-.75-.75-.75 -.42 0-.75.33-.75.75v6c0 .41.33.75.75.75Z"/><path d="M11.46 16.53c.29.29.76.29 1.06 0l3-3c.29-.3.29-.77 0-1.07 -.3-.3-.77-.3-1.07 0l-2.47 2.46 -2.47-2.47c-.3-.3-.77-.3-1.07 0 -.3.29-.3.76 0 1.06l3 3Z"/></g></svg>