<svg viewBox="0 0 24 24" xmlns="http://www.w3.org/2000/svg"><path fill="#ECEFF1" d="M4 1.25C2.48 1.25 1.25 2.48 1.25 4v16c0 1.51 1.23 2.75 2.75 2.75h9.5c1.51 0 2.75-1.24 2.75-2.75V8.37c0-.78-.33-1.51-.9-2.03l-4.78-4.38c-.51-.47-1.18-.73-1.86-.73H3.98Z"/><path fill="#8B98A6" d="M10.84 2.21c-.81-.74-2.1-.17-2.1.92v2.36c0 1.51 1.23 2.75 2.75 2.75h2.71c1.14 0 1.68-1.41.84-2.18l-4.22-3.87Z"/><path fill="#EE4D4D" d="M15 11.25c-.42 0-.75.33-.75.75v2.25H12c-.42 0-.75.33-.75.75v4c0 .41.33.75.75.75h2.25V22c0 .41.33.75.75.75h4c.41 0 .75-.34.75-.75v-2.25H22c.41 0 .75-.34.75-.75v-4c0-.42-.34-.75-.75-.75h-2.25V12c0-.42-.34-.75-.75-.75h-4Z"/></svg>