<svg viewBox="0 0 24 24" xmlns="http://www.w3.org/2000/svg"><path fill="#ECEFF1" d="M4 1.25C2.48 1.25 1.25 2.48 1.25 4v16c0 1.51 1.23 2.75 2.75 2.75h9.5c1.51 0 2.75-1.24 2.75-2.75V8.37c0-.78-.33-1.51-.9-2.03l-4.78-4.38c-.51-.47-1.18-.73-1.86-.73H3.98Z"/><path fill="#8B98A6" d="M10.84 2.21c-.81-.74-2.1-.17-2.1.92v2.36c0 1.51 1.23 2.75 2.75 2.75h2.71c1.14 0 1.68-1.41.84-2.18l-4.22-3.87Z"/><path fill="#CFD8DC" d="M10.5 11.75c-.42 0-.75.33-.75.75V22c0 .41.33.75.75.75H22c.41 0 .75-.34.75-.75v-9.5c0-.42-.34-.75-.75-.75H10.5Z"/><path fill="#8BC94D" fill-rule="evenodd" d="M22.75 19.74l-.15-.2 -3.51-4.52c-.14-.18-.36-.29-.58-.29 -.23-.01-.45.09-.59.26l-2.05 2.45 -1.43-1.08c-.29-.22-.68-.2-.94.03L10 19.38l-.27.22v2.35c0 .41.33.75.75.75h11.5c.41 0 .75-.34.75-.75v-2.26Z"/></svg>