<svg viewBox="0 0 24 24" xmlns="http://www.w3.org/2000/svg"><path fill="#ECEFF1" d="M6 1.25C4.48 1.25 3.25 2.48 3.25 4v16c0 1.51 1.23 2.75 2.75 2.75h12c1.51 0 2.75-1.24 2.75-2.75V8.91c0-.81-.36-1.57-.97-2.09L14.04 1.9c-.5-.43-1.14-.67-1.79-.67H5.98Z"/><path fill="#8B98A6" d="M14.31 2.13c-.82-.7-2.07-.12-2.07.94v2.91c0 1.51 1.23 2.75 2.75 2.75h3.64c1.16 0 1.69-1.45.81-2.2l-5.15-4.42Z"/><g fill="#5E94FF" fill-rule="evenodd"><path d="M18.25 15.5c0 1.51-1.24 2.75-2.75 2.75H15c-1.52 0-2.75-1.24-2.75-2.75v-1c0-1.52 1.23-2.75 2.75-2.75h.5c1.51 0 2.75 1.23 2.75 2.75v1Zm-2.75 1.25c.69 0 1.25-.56 1.25-1.25v-1c0-.7-.56-1.25-1.25-1.25H15c-.7 0-1.25.55-1.25 1.25v1c0 .69.55 1.25 1.25 1.25h.5Z"/><path d="M11.75 15.5c0 1.51-1.24 2.75-2.75 2.75h-.5c-1.52 0-2.75-1.24-2.75-2.75v-1c0-1.52 1.23-2.75 2.75-2.75H9c1.51 0 2.75 1.23 2.75 2.75v1ZM9 16.75c.69 0 1.25-.56 1.25-1.25v-1c0-.7-.56-1.25-1.25-1.25h-.5c-.7 0-1.25.55-1.25 1.25v1c0 .69.55 1.25 1.25 1.25H9Z"/><path fill="#4DC4FF" d="M8.25 15c0-.42.33-.75.75-.75h6c.41 0 .75.33.75.75 0 .41-.34.75-.75.75H9c-.42 0-.75-.34-.75-.75Z"/></g></svg>