<svg viewBox="0 0 24 24" xmlns="http://www.w3.org/2000/svg"><path fill="#ECEFF1" d="M6 1.25C4.48 1.25 3.25 2.48 3.25 4v16c0 1.51 1.23 2.75 2.75 2.75h12c1.51 0 2.75-1.24 2.75-2.75V8.91c0-.81-.36-1.57-.97-2.09L14.04 1.9c-.5-.43-1.14-.67-1.79-.67H5.98Z"/><path fill="#8B98A6" d="M14.31 2.13c-.82-.7-2.07-.12-2.07.94v2.91c0 1.51 1.23 2.75 2.75 2.75h3.64c1.16 0 1.69-1.45.81-2.2l-5.15-4.42Z"/><path fill="#5E94FF" fill-rule="evenodd" d="M7.25 13.5c0-2.35 1.9-4.25 4.25-4.25h.5c2.34 0 4.25 1.9 4.25 4.25V17c0 1.79-1.46 3.25-3.25 3.25 -1.8 0-3.25-1.46-3.25-3.25v-2.66c0-1.16.93-2.1 2.09-2.1 1.15 0 2.09.93 2.09 2.09v2.15c0 .41-.34.75-.75.75 -.42 0-.75-.34-.75-.75v-2.16c0-.33-.27-.6-.6-.6 -.33 0-.6.26-.6.59v2.65c0 .96.78 1.75 1.75 1.75 .96 0 1.75-.79 1.75-1.75v-3.5c0-1.52-1.24-2.75-2.75-2.75h-.5c-1.52 0-2.75 1.23-2.75 2.75v3.5c0 .41-.34.75-.75.75 -.42 0-.75-.34-.75-.75v-3.5Z"/></svg>