<svg viewBox="0 0 24 24" xmlns="http://www.w3.org/2000/svg"><path fill="#ECEFF1" d="M6 1.25C4.48 1.25 3.25 2.48 3.25 4v16c0 1.51 1.23 2.75 2.75 2.75h12c1.51 0 2.75-1.24 2.75-2.75V8.91c0-.81-.36-1.57-.97-2.09L14.04 1.9c-.5-.43-1.14-.67-1.79-.67H5.98Z"/><path fill="#8B98A6" d="M14.31 2.13c-.82-.7-2.07-.12-2.07.94v2.91c0 1.51 1.23 2.75 2.75 2.75h3.64c1.16 0 1.69-1.45.81-2.2l-5.15-4.42Z"/><path fill="#5E94FF" d="M12 8.75c-3.18 0-5.75 2.57-5.75 5.75 0 3.17 2.57 5.75 5.75 5.75 3.17 0 5.75-2.58 5.75-5.75 0-3.18-2.58-5.75-5.75-5.75Z"/><path fill="#ECEFF1" fill-rule="evenodd" d="M7.66 18.27l.8-.81 2.78-2.79V9.98 8.77c.24-.04.49-.05.75-.05 .25 0 .5.01.75.04v1.2 4.9l0 0 0 0 0 0 0 0 0 0 0 0 0 0 0 0 0 0 0 0 0 0 0 0 0 0 0 0 0 0 0 0 0 0 0 0 0 0 0 0 0 0 0 0 0 0 0 0 0 0 0 0 0 0 0 0 0 0 0 0 0 0 0 0 0 0 0 0 0 0 0 0 0 0 0 0 0 0 0 0 0 0 0 0 0 0 0 0 0 0 0 0 0 0 0 0 0 0 0 0 0 0 0 0 0 0 0 0 0 0 0 0 0 0 0 0 0 0 0 0 0 0 0 0 0 0 0 0 0 0 0 0 0 0 0 0 0 0 0 0 0 0 0 0 0 0 0 0 0 0 0 0 0 0 0 0 0 0 0 0 0 0 0 0 0 0 0 0 0 0 0 0 0 0 0 0 0 0 0 0 0 0 0 0 0 0 0 0 0 0 0 0 0 0 0 0 0 0 0 0 0 0 0 0 0 0 0 0 0 0 0 0 0 0 0 0 0 0 0 0 0 0 0 0 0 0 0 0 0 0 0 0 0 0 0 0 0 0 0 0 0 0 0 0 0 0 0 0 0 0 0 0 0 0 0 0 0 0 0 0 0 0 0 0 0 0 0 0 0 0 0 0 0 0 0 0 0 0 0 0 0 0 0 0 0 0 0 0 0 0 0 0 0 0 0 0 0 0 0 0 0 0 0 0 0 0 0 0 0 0 0 0 0 0 0 0 0 0 0 0 0 0 0 0 0 0 0 0 0 0 0 0 0 0 0 0 0 0 0 0 0 0 0 0 0 0 0 0 0 0 0 0 0 0 0 0 0 0 0 0 0 0 0 0 0 0 0 0 0 0 0 0 0 0 0 0 0 0 0 0 0 0 0 0 0 0 0 0 0 0 0 0 0 0 0 0 0 0 0 0 0 0 0 0 0 0 0 0 0 0 0 0 0 0 0 0 0 0 0 0 0 0 0 0 0 0 0 0 0 0 0 0 0 0 0 0 0 0 0 0 0 0 0 0 0 0 0 0 0 0 0 0 0 0 0 0 0 0 0 0 0 .01 0 0 0 .01 0 0 0 .01 0 .01 0 .01 0 .01 0 .01 0 .01 0 .01 0 .01 0 .01 0 .01 0 .01 0 .01 0 .01 0 .01 0 .01 0 .01 0 .01 0 .01 0 .01 0 .01 0 .01 0 .01 0 .01 0 .01 0 .01 0 .01 0 .01 0 .01 0 .01 0 .01 0 .01 0 .01 0 .01 0 .01 0 .01 0 .01 0 .01 0 .01 0 .01 0 .01 0 .01 0 .01 0 .01 0 .01 0 .01 0 .01 0 .01 0 .01 0 .01 0 .01 0 .01 0 .01 0 .01 0 .01 0 .01 0 .01 0 .01 0 .01 0 .01 0 .01 0 .01 0 .01 0 .01 0 .01 0 .01 0 .01 0 .01 0 .01 0 .01 0 .01 0 .01 0 .01 0 .01 0 .01 0 .01 0 .01 0 .01 0 .01 0 .01 0 .01 0 .01 0 .01 0 .01 0 .01 0 .01 0 .01 0 .01 0 .01 0 .01 0 .01 0 .01 0 .01 0 .01 0 .01 0 .01 0 .01 0 .01 0 .01 0 .01 0 .01 0 .01 0 .01 0 .01 0 .01 0 .01 0 .01 0 .01 0 .01 0 .01 0 .01 0 .01 0 .01 0 .01 0 .01 0 .01 0 .01 0 .01 0 .01 0 .01 0 .01 0 .01 0 .01 0 .01 0 .01 0 .01 0 .01 0 .01 0 .01 0 .01 0 .01 0 .01 0 .01 0 .01 0 .01 0 .01 0 .01 0 .01 0 .01 0 .01 0 .01 0 .01 0 .01 0 .01 0 .01 0 .01 0 .01 0 .01 0 .01 0 .01 0 .01 0 .01 0 .01 0 .01 0 .01 0 .01 0 .01 0 .01 0 .01 0 .01 0 .01 0 .01 0 .01 0 .01 0 .01 0 .01 0 .01 0 .01 0 .01 0 .01 0 .01 0 0 0 .01 0 0 0 .01 0 0 0 0 0 0 0 0 0 0 0 0 0 0 0 0 0 0 0 0 0 0 0 0 0 0 0 0 0 0 0 0 0 0 0 0 0 0 0 0 0 0 0 0 0 0 0 0 0 0 0 0 0 0 0 0 0 0 0 0 0 0 0 0 0 0 0 0 0 0 0 0 0 0 0 0 0 0 0 0 0 0 0 0 0 0 0 0 0 0 0 0 .26 1.07c-.47.17-.96.28-1.47.33l-.27-1.05 -.01-.01 -.01-.01 -.01-.01 -.01-.01 -.01-.01 -.01-.01 -.01-.01 -.01-.01 -.01-.01 -.01-.01 -.01-.01 -.01-.01 -.01-.01 -.01-.01 -.01-.01 -.01-.01 -.01-.01 -.01-.01 -.01-.01 -.01-.01 -.01-.01 -.01-.01 -.01-.01 -.01-.01 -.01-.01 -.01-.01 -.01-.01 -.01-.01 -.01-.01 -.01-.01 -.01-.01 -.01-.01 -.01-.01 -.01-.01 -.01-.01 -.01-.01 -.01-.01 -.01-.01 -.01-.01 -.01-.01 -.01-.01 -.01-.01 -.01-.01 -.01-.01 -.01-.01 -.01-.01 -.01-.01 -.01-.01 -.01-.01 -.01-.01 -.01-.01 -.01-.01 -.01-.01 -.01-.01 -.01-.01 -.01-.02 -.01-.01 -.01-.02 -.01-.01 -.01-.02 -.01-.02 -.01-.02 -.01-.02 -.01-.02 -.01-.02 -.01-.02 -.01-.02 -.01-.02 -.01-.02 -.01-.02 -.01-.02 -.01-.02 -.01-.02 -.01-.02 -.01-.02 -.01-.02 -.01-.02 -.01-.02 -.01-.02 -.01-.02 -.01-.02 -.01-.02 -.01-.02 -.01-.02 -.01-.02 -.01-.02 -.01-.02 -.01-.02 -.01-.02 -.01-.02 -.01-.02 -.01-.02 -.01-.02 -.01-.02 -.01-.02 -.01-.02 -.01-.02 -.01-.02 -.01-.02 -.01-.02 -.01-.02 -.01-.02 -.01-.02 -.01-.02 -.01-.02 -.01-.02 -.01-.02 -.01-.02 -.01-.02 -.01-.02 -.01-.02 -.01-.02 -.01-.02 -.01-.02 -.01-.02 -.01-.02 -.01-.02 -.01-.02 -.01-.02 -.01-.02 -.01-.02 -.01-.02 -.01-.02 -.01-.02 -.01-.02L10 15l-.01-.02 -.01-.02 -.01-.02 -.01-.02 -.01-.02 -.01-.02 -.01-.02 -.01-.02 -.01-.02 -.01-.02 -.01-.02 -.01-.02 -.01-.02 -.01-.02 -.01-.02 -.01-.02 -.01-.02 -.01-.02 -.01-.02 -.01-.02 -.01-.02 -.01-.02 -.01-.02 -.01-.02 -.01-.02 -.01-.02 -.01-.02 -.01-.02 -.01-.02 -.01-.02 -.01-.02 -.01-.02 -.01-.02 -.01-.02 -.01-.02 -.01-.02 -.01-.02 -.01-.02 -.01-.02 -.01-.02 -.01-.02 -.01-.02 -.01-.02 -.01-.02 -.01-.02 -.01-.02 -.01-.02 -.01-.02 -.01-.02L9.5 14l-.01-.02 -.01-.02 -.01-.02 -.01-.02 -.01-.02 -.01-.02 -.01-.02 -.01-.02 -.01-.02 -.01-.02 -.01-.02 -.01-.02 -.01-.02 -.01-.02 -.01-.02 -.01-.02 -.01-.02 -.01-.02 -.01-.02 -.01-.02 -.01-.02 -.01-.02 -.01-.02 -.01-.02 -.01-.02 -.01-.02 -.01-.02 -.01-.02 -.01-.02 -.01-.02 -.01-.02 -.01-.02 -.01-.02 -.01-.02 -.01-.02 -.01-.01 -.01-.02 -.01-.02 -.01-.01 -.01-.01 -.01-.02 -.01-.01 -.01-.01 -.01-.01 -.01-.01 -.01-.01 -.01-.01 -.01-.01 -.01-.01 -.01-.01 -.01-.01 -.01-.01 -.01-.01 -.01-.01 -.01-.01 -.01-.01 -.01-.01 -.01-.01 -.01-.01 -.01-.01 -.01-.01 -.01-.01 -.01-.01 -.01-.01 -.01-.01 -.01-.01 -.01-.01 -.01-.01 -.01-.01 -.01-.01 -.01-.01 -.01-.01 -.01-.01 -.01-.01 -.01-.01 -.01-.01 -.01-.01 -.01-.01 -.01-.01 -.01-.01 -.01-.01 -.01-.01 -.01-.01 -.01-.01 -.01-.01 -.01-.01 -.01-.01 -.01-.01 -.01-.01 -.01-.01 -.01-.01 -.01-.01 -.01-.01 -.01-.01 -2.07 2.06 -.75.74c-.42-.29-.8-.62-1.13-1Z"/></svg>