<svg viewBox="0 0 24 24" xmlns="http://www.w3.org/2000/svg"><path fill="#ECEFF1" d="M5 1C2.92 1 1.25 2.67 1.25 4.75v14c0 2.07 1.67 3.75 3.75 3.75h10c2.07 0 3.75-1.68 3.75-3.75v-11c0-.2-.08-.39-.22-.54l-6-6c-.15-.15-.34-.22-.54-.22h-7Z"/><path fill="#8B98A6" d="M12.53 1.21c-.22-.22-.54-.28-.82-.17 -.29.11-.47.38-.47.69v3c0 2.07 1.67 3.75 3.75 3.75h3c.3 0 .57-.19.69-.47 .11-.29.05-.61-.17-.82l-6-6Z"/><g fill="#5E94FF" fill-rule="evenodd"><path d="M15.5 12.75c-1.52 0-2.75 1.23-2.75 2.75 0 1.51 1.23 2.75 2.75 2.75 1.51 0 2.75-1.24 2.75-2.75 0-1.52-1.24-2.75-2.75-2.75Zm-4.25 2.75c0-2.35 1.9-4.25 4.25-4.25 2.34 0 4.25 1.9 4.25 4.25 0 2.34-1.91 4.25-4.25 4.25 -2.35 0-4.25-1.91-4.25-4.25Z"/><path d="M17.46 17.46c.29-.3.76-.3 1.06 0l4 4c.29.29.29.76 0 1.06 -.3.29-.77.29-1.07 0l-4-4c-.3-.3-.3-.77 0-1.07Z"/><path d="M4.25 7c0-.42.33-.75.75-.75h5c.41 0 .75.33.75.75 0 .41-.34.75-.75.75H5c-.42 0-.75-.34-.75-.75Z"/><path d="M4.25 12c0-.42.33-.75.75-.75h5c.41 0 .75.33.75.75 0 .41-.34.75-.75.75H5c-.42 0-.75-.34-.75-.75Z"/><path d="M4.25 17c0-.42.33-.75.75-.75h5c.41 0 .75.33.75.75 0 .41-.34.75-.75.75H5c-.42 0-.75-.34-.75-.75Z"/></g></svg>