<svg viewBox="0 0 24 24" xmlns="http://www.w3.org/2000/svg"><path fill="#ECEFF1" d="M4 1.25C2.48 1.25 1.25 2.48 1.25 4v16c0 1.51 1.23 2.75 2.75 2.75h9.5c1.51 0 2.75-1.24 2.75-2.75V8.37c0-.78-.33-1.51-.9-2.03l-4.78-4.38c-.51-.47-1.18-.73-1.86-.73H3.98Z"/><path fill="#8B98A6" d="M10.84 2.21c-.81-.74-2.1-.17-2.1.92v2.36c0 1.51 1.23 2.75 2.75 2.75h2.71c1.14 0 1.68-1.41.84-2.18l-4.22-3.87Z"/><path fill="#5E94FF" d="M16.5 10.25c-3.46 0-6.25 2.79-6.25 6.25 0 3.45 2.79 6.25 6.25 6.25 3.45 0 6.25-2.8 6.25-6.25 0-3.46-2.8-6.25-6.25-6.25Z"/><g fill="#ECEFF1" fill-rule="evenodd"><path d="M16.5 16.25c-.97 0-1.75.78-1.75 1.75v.5c0 .41-.34.75-.75.75 -.42 0-.75-.34-.75-.75V18c0-1.8 1.45-3.25 3.25-3.25H19c.41 0 .75.33.75.75 0 .41-.34.75-.75.75h-2.5Z"/><path d="M15.92 12.51c.26-.32.73-.37 1.05-.1l3 2.5c.17.14.26.35.26.57 0 .22-.1.43-.27.57l-3 2.5c-.32.26-.8.22-1.06-.1 -.27-.32-.23-.8.09-1.06l2.3-1.93 -2.31-1.93c-.32-.27-.37-.74-.1-1.06Z"/></g></svg>