<svg viewBox="0 0 24 24" xmlns="http://www.w3.org/2000/svg"><path fill="#ECEFF1" d="M6 1.25C4.48 1.25 3.25 2.48 3.25 4v16c0 1.51 1.23 2.75 2.75 2.75h12c1.51 0 2.75-1.24 2.75-2.75V8.91c0-.81-.36-1.57-.97-2.09L14.04 1.9c-.5-.43-1.14-.67-1.79-.67H5.98Z"/><path fill="#8B98A6" d="M14.31 2.13c-.82-.7-2.07-.12-2.07.94v2.91c0 1.51 1.23 2.75 2.75 2.75h3.64c1.16 0 1.69-1.45.81-2.2l-5.15-4.42Z"/><path fill="#FFC44D" d="M12.63 9.09c-.14-.22-.38-.35-.64-.35s-.5.12-.64.34l-1.55 2.4 -2.77.72c-.25.06-.45.25-.53.49 -.08.24-.03.5.13.7l1.81 2.21 -.17 2.85c-.02.25.1.49.3.64 .2.15.47.18.71.09l2.66-1.04 2.66 1.03c.23.09.5.05.71-.1 .2-.15.32-.4.3-.65l-.17-2.86 1.81-2.22c.16-.2.21-.47.13-.71 -.08-.25-.28-.43-.53-.5l-2.77-.73 -1.55-2.41Z"/></svg>