<svg viewBox="0 0 24 24" xmlns="http://www.w3.org/2000/svg"><path fill="#ECEFF1" d="M6 1.25C4.48 1.25 3.25 2.48 3.25 4v16c0 1.51 1.23 2.75 2.75 2.75h12c1.51 0 2.75-1.24 2.75-2.75V8.91c0-.81-.36-1.57-.97-2.09L14.04 1.9c-.5-.43-1.14-.67-1.79-.67H5.98Z"/><path fill="#8B98A6" d="M14.31 2.13c-.82-.7-2.07-.12-2.07.94v2.91c0 1.51 1.23 2.75 2.75 2.75h3.64c1.16 0 1.69-1.45.81-2.2l-5.15-4.42Z"/><g fill="#5E94FF" fill-rule="evenodd"><path d="M14.97 15.35c.46.76.77 1.88.77 3.14 0 .41.33.75.75.75 .41 0 .75-.34.75-.75 0-1.5-.37-2.89-.99-3.93 -.62-1.03-1.57-1.83-2.77-1.83 -.42 0-.75.33-.75.75 0 .41.33.75.75.75 .46 0 1 .31 1.47 1.1Z"/><path d="M9.02 11.64c-.47-.77-.78-1.89-.78-3.15 0-.42-.34-.75-.75-.75 -.42 0-.75.33-.75.75 0 1.49.36 2.88.98 3.92 .61 1.02 1.56 1.82 2.76 1.82 .41 0 .75-.34.75-.75 0-.42-.34-.75-.75-.75 -.47 0-1.01-.32-1.48-1.11Z"/><path d="M16.03 9.46c.29.29.29.76 0 1.06l-2 2c-.3.29-.77.29-1.07 0 -.3-.3-.3-.77 0-1.07l2-2.01c.29-.3.76-.3 1.06 0Z"/><path d="M11.03 14.46c.29.29.29.76 0 1.06l-2 2c-.3.29-.77.29-1.07 0 -.3-.3-.3-.77 0-1.07l2-2c.29-.3.76-.3 1.06 0Z"/></g><path fill="#4DC4FF" d="M10.5 11.25c-.42 0-.75.33-.75.75v3c0 .41.33.75.75.75h3c.41 0 .75-.34.75-.75v-3c0-.42-.34-.75-.75-.75h-3Z"/></svg>