<svg viewBox="0 0 24 24" xmlns="http://www.w3.org/2000/svg"><path fill="#ECEFF1" d="M7 1.25C4.92 1.25 3.25 2.92 3.25 5v14c0 2.07 1.67 3.75 3.75 3.75h10c2.07 0 3.75-1.68 3.75-3.75V8c0-.2-.08-.39-.22-.54l-6-6c-.15-.15-.34-.22-.54-.22h-7Z"/><path fill="#8B98A6" d="M14.53 1.46c-.22-.22-.54-.28-.82-.17 -.29.11-.47.38-.47.69v3c0 2.07 1.67 3.75 3.75 3.75h3c.3 0 .57-.19.69-.47 .11-.29.05-.61-.17-.82l-6-6Z"/><path fill="#5E94FF" fill-rule="evenodd" d="M15.53 10.46c.29.29.29.76 0 1.06l-6 6c-.3.29-.77.29-1.07 0 -.3-.3-.3-.77 0-1.07l6-6c.29-.3.76-.3 1.06 0Z"/><g fill="#5E94FF"><path d="M9.5 8.25c-1.25 0-2.25 1-2.25 2.25 0 1.24 1 2.25 2.25 2.25 1.24 0 2.25-1.01 2.25-2.25 0-1.25-1.01-2.25-2.25-2.25Z"/><path d="M14.5 15.25c-1.25 0-2.25 1-2.25 2.25 0 1.24 1 2.25 2.25 2.25 1.24 0 2.25-1.01 2.25-2.25 0-1.25-1.01-2.25-2.25-2.25Z"/></g></svg>