<svg viewBox="0 0 24 24" xmlns="http://www.w3.org/2000/svg"><path fill="#ECEFF1" d="M6 1.25C4.48 1.25 3.25 2.48 3.25 4v16c0 1.51 1.23 2.75 2.75 2.75h12c1.51 0 2.75-1.24 2.75-2.75V8.91c0-.81-.36-1.57-.97-2.09L14.04 1.9c-.5-.43-1.14-.67-1.79-.67H5.98Z"/><path fill="#8B98A6" d="M14.31 2.13c-.82-.7-2.07-.12-2.07.94v2.91c0 1.51 1.23 2.75 2.75 2.75h3.64c1.16 0 1.69-1.45.81-2.2l-5.15-4.42Z"/><path fill="#5E94FF" fill-rule="evenodd" d="M9.97 11.25c.31-.01.6.17.71.47l1.37 3.44 1.25-2.51c.12-.26.38-.42.67-.42 .28 0 .54.16.67.41l.79 1.58h1.03c.41 0 .75.33.75.75 0 .41-.34.75-.75.75h-1.5c-.29 0-.55-.17-.68-.42l-.33-.66 -1.33 2.65c-.14.26-.41.42-.702.41 -.3-.02-.56-.2-.67-.48L10 14.12l-.36 1.05c-.11.3-.39.51-.72.51h-1.5c-.42 0-.75-.34-.75-.75 0-.42.33-.75.75-.75h.95l.82-2.49c.09-.3.37-.51.68-.52Z"/></svg>