<svg viewBox="0 0 24 24" xmlns="http://www.w3.org/2000/svg"><path fill="#ECEFF1" d="M4 1.25C2.48 1.25 1.25 2.48 1.25 4v16c0 1.51 1.23 2.75 2.75 2.75h9.5c1.51 0 2.75-1.24 2.75-2.75V8.37c0-.78-.33-1.51-.9-2.03l-4.78-4.38c-.51-.47-1.18-.73-1.86-.73H3.98Z"/><path fill="#8B98A6" d="M10.84 2.21c-.81-.74-2.1-.17-2.1.92v2.36c0 1.51 1.23 2.75 2.75 2.75h2.71c1.14 0 1.68-1.41.84-2.18l-4.22-3.87Z"/><path fill="#5E94FF" d="M16.5 10.25c-3.46 0-6.25 2.79-6.25 6.25 0 3.45 2.79 6.25 6.25 6.25 3.45 0 6.25-2.8 6.25-6.25 0-3.46-2.8-6.25-6.25-6.25Z"/><path fill="#ECEFF1" fill-rule="evenodd" d="M15.01 13.25c.32 0 .61.22.7.53l.86 2.86 .71-1.92c.1-.28.36-.47.66-.49 .29-.02.57.14.71.41l.79 1.58h1.03c.41 0 .75.33.75.75 0 .41-.34.75-.75.75h-1.5c-.29 0-.55-.17-.68-.42l-.24-.47 -.9 2.38c-.12.3-.41.49-.73.48 -.33-.02-.61-.23-.7-.54l-.82-2.74 -.26.75c-.11.3-.39.51-.72.51h-1.5c-.42 0-.75-.34-.75-.75 0-.42.33-.75.75-.75h.95l.82-2.49c.1-.32.39-.52.72-.52Z"/></svg>