<svg viewBox="0 0 24 24" xmlns="http://www.w3.org/2000/svg"><path fill="#ECEFF1" d="M4 1.25C2.48 1.25 1.25 2.48 1.25 4v16c0 1.51 1.23 2.75 2.75 2.75h9.5c1.51 0 2.75-1.24 2.75-2.75V8.37c0-.78-.33-1.51-.9-2.03l-4.78-4.38c-.51-.47-1.18-.73-1.86-.73H3.98Z"/><path fill="#8B98A6" d="M10.84 2.21c-.81-.74-2.1-.17-2.1.92v2.36c0 1.51 1.23 2.75 2.75 2.75h2.71c1.14 0 1.68-1.41.84-2.18l-4.22-3.87Z"/><path fill="#ECEFF1" d="M16.5 10.25c-3.46 0-6.25 2.79-6.25 6.25 0 3.45 2.79 6.25 6.25 6.25 3.45 0 6.25-2.8 6.25-6.25 0-3.46-2.8-6.25-6.25-6.25Z"/><g fill="#5E94FF" fill-rule="evenodd"><path d="M16.5 11.75c-2.63 0-4.75 2.12-4.75 4.75 0 2.62 2.12 4.75 4.75 4.75 2.62 0 4.75-2.13 4.75-4.75 0-2.63-2.13-4.75-4.75-4.75Zm-6.25 4.75c0-3.46 2.79-6.25 6.25-6.25 3.45 0 6.25 2.79 6.25 6.25 0 3.45-2.8 6.25-6.25 6.25 -3.46 0-6.25-2.8-6.25-6.25Z"/><path d="M15.41 12.92c-.4.87-.67 2.14-.67 3.57 0 1.43.26 2.7.66 3.57 .42.94.86 1.17 1.08 1.17 .21 0 .65-.23 1.08-1.18 .39-.88.66-2.15.66-3.58 0-1.44-.27-2.71-.67-3.58 -.43-.95-.87-1.18-1.09-1.18 -.22 0-.66.22-1.09 1.17Zm-1.37-.63c.47-1.05 1.28-2.06 2.45-2.06 1.16 0 1.97 1 2.45 2.05 .5 1.11.79 2.59.79 4.19 0 1.6-.3 3.08-.8 4.19 -.48 1.04-1.29 2.05-2.46 2.05s-1.98-1.01-2.46-2.06c-.51-1.12-.8-2.6-.8-4.2 0-1.61.29-3.09.79-4.2Z"/><path d="M10.25 16c0-.42.33-.75.75-.75h11c.41 0 .75.33.75.75 0 .41-.34.75-.75.75H11c-.42 0-.75-.34-.75-.75Z"/></g></svg>