<svg viewBox="0 0 24 24" xmlns="http://www.w3.org/2000/svg"><g fill="#FFC44D"><path d="M17.5 1.25c-2.9 0-5.25 2.35-5.25 5.25 0 2.89 2.35 5.25 5.25 5.25 2.89 0 5.25-2.36 5.25-5.25 0-2.9-2.36-5.25-5.25-5.25Z"/><path d="M12.67 12.66c-.13-.26-.39-.42-.68-.42 -.29 0-.55.16-.68.41l-4.51 9c-.12.23-.11.5.03.72 .13.22.37.35.63.35h9c.25 0 .5-.14.63-.36 .13-.23.14-.5.03-.73l-4.5-9Z"/></g><path fill="#5E94FF" d="M2 1.25c-.42 0-.75.33-.75.75v8c0 .41.33.75.75.75h8c.41 0 .75-.34.75-.75V2c0-.42-.34-.75-.75-.75H2Z"/></svg>