<svg viewBox="0 0 24 24" xmlns="http://www.w3.org/2000/svg"><g fill-rule="evenodd"><path d="M8.25 10c0-.42.33-.75.75-.75h12c.41 0 .75.33.75.75v1.5c0 .41-.34.75-.75.75 -.42 0-.75-.34-.75-.75v-.75H9.75v5.1c0 1.08.54 2.1 1.44 2.7l3.8 2.53 3.8-2.54c.9-.61 1.44-1.62 1.44-2.71v-.36c0-.42.33-.75.75-.75 .41 0 .75.33.75.75v.35c0 1.58-.8 3.07-2.12 3.95l-4.22 2.81c-.26.16-.59.16-.84 0l-4.22-2.82C9 18.87 8.21 17.39 8.21 15.8V9.94Z"/><path d="M2.25 10c0-.42.33-.75.75-.75h6c.41 0 .75.33.75.75 0 .41-.34.75-.75.75H3.75v4.34c0 1.13.58 2.18 1.55 2.77l3.69 2.25 2.1-1.29c.35-.22.31.39.53.74 .21.35.6.31.25.53l-2.51 1.52c-.25.14-.55.14-.79 0l-4.09-2.5c-1.42-.87-2.28-2.4-2.28-4.06V9.96Z"/><path d="M7.25 8c0-2.63 2.12-4.75 4.75-4.75h6c2.62 0 4.75 2.12 4.75 4.75v2c0 .41-.34.75-.75.75H8c-.42 0-.75-.34-.75-.75V8ZM12 4.75C10.2 4.75 8.75 6.2 8.75 8v1.25h12.5V8c0-1.8-1.46-3.25-3.25-3.25h-6Z"/><path d="M6 5.75C4.2 5.75 2.75 7.2 2.75 9v.25H9c.41 0 .75.33.75.75 0 .41-.34.75-.75.75H2c-.42 0-.75-.34-.75-.75V9c0-2.63 2.12-4.75 4.75-4.75h3c.41 0 .75.33.75.75 0 .41-.34.75-.75.75H6Z"/><path d="M15 1.25c.41 0 .75.33.75.75v2c0 .41-.34.75-.75.75 -.42 0-.75-.34-.75-.75V2c0-.42.33-.75.75-.75Z"/><path d="M9 2.25c.41 0 .75.33.75.75v2c0 .41-.34.75-.75.75 -.42 0-.75-.34-.75-.75V3c0-.42.33-.75.75-.75Z"/></g></svg>