<svg viewBox="0 0 24 24" xmlns="http://www.w3.org/2000/svg"><g fill-rule="evenodd"><path d="M6.25 8c0-2.08 1.67-3.75 3.75-3.75 1.56 0 2.89.95 3.46 2.3l1.25.81c.34.22.44.69.22 1.03 -.23.34-.7.44-1.04.22l-1.47-.95c-.15-.1-.25-.24-.31-.4 -.3-.9-1.15-1.54-2.14-1.54 -1.25 0-2.25 1-2.25 2.25 0 1.24 1 2.24 2.24 2.25 0 0 0 0 0 0h.01c.2-.01.4.08.54.23 .14.15.21.35.2.55 -.01.14-.02.3-.02.45 0 1.51 1.23 2.75 2.75 2.75 1.09 0 2.04-.641 2.48-1.58 .12-.27.38-.43.67-.43h2.8l-1.73-1.13c-.35-.23-.45-.7-.23-1.04 .22-.35.69-.45 1.03-.23l3.84 2.5c.27.18.4.52.31.84 -.1.31-.39.53-.72.53h-4.9c-.76 1.2-2.09 2-3.61 2 -2.29 0-4.16-1.81-4.25-4.08 -1.72-.35-3.01-1.87-3.01-3.68Z"/><path d="M7.53 7.46c.29.29.29.76 0 1.06l-.72.71h.68c.41 0 .75.33.75.75 0 .41-.34.75-.75.75h-2.5c-.31 0-.58-.19-.7-.47 -.12-.29-.06-.61.16-.82l2-2c.29-.3.76-.3 1.06 0Z"/><path d="M13 14.25c.41 0 .75.33.75.75v4c0 .41-.34.75-.75.75 -.42 0-.75-.34-.75-.75v-4c0-.42.33-.75.75-.75Z"/><path d="M4.99 10.75c-.33 0-.63.18-.77.47l-1.56 3.11c-.19.37-.64.52-1.01.33 -.38-.19-.53-.64-.34-1.01l1.55-3.12c.39-.8 1.21-1.31 2.1-1.31 1.5 0 2.63 1.39 2.3 2.87l-.33 1.45c-.12.51-.03 1.04.24 1.5l.92 1.54c.21.35.09.81-.26 1.029 -.36.21-.82.09-1.03-.26l-.93-1.55c-.47-.78-.62-1.71-.43-2.6l.32-1.46c.11-.54-.29-1.05-.84-1.05Z"/><path d="M10.25 19c0-.42.33-.75.75-.75h4c.41 0 .75.33.75.75 0 .41-.34.75-.75.75h-4c-.42 0-.75-.34-.75-.75Z"/></g></svg>