<svg viewBox="0 0 24 24" xmlns="http://www.w3.org/2000/svg"><g fill-rule="evenodd"><path d="M6.44 11.49c.14-.16.34-.25.55-.25h10c.21 0 .41.08.55.24 .14.15.21.36.19.57l-1 10c-.04.38-.37.67-.75.67h-8c-.39 0-.71-.3-.75-.68l-.1-1c-.05-.42.25-.78.67-.83 .41-.05.77.25.82.67l.03.32h6.64l.85-8.5H7.79l.41 4.17c.04.41-.26.77-.68.82 -.42.04-.78-.26-.83-.68l-.5-5c-.03-.22.04-.43.19-.58Z"/><path d="M5.75 9.5c0-.42.33-.75.75-.75h11c.41 0 .75.33.75.75V12c0 .41-.34.75-.75.75h-11c-.42 0-.75-.34-.75-.75V9.5Zm1.5.75v1h9.5v-1h-9.5Z"/><path d="M12 5.25c-2.35 0-4.25 1.9-4.25 4.25 0 .41-.34.75-.75.75 -.42 0-.75-.34-.75-.75 0-3.18 2.57-5.75 5.75-5.75 3.17 0 5.75 2.57 5.75 5.75 0 .41-.34.75-.75.75 -.42 0-.75-.34-.75-.75 0-2.35-1.91-4.25-4.25-4.25Z"/><path d="M14.416.87c.34.22.43.69.2 1.04l-1.88 2.81v12.27c0 .41-.34.75-.75.75 -.42 0-.75-.34-.75-.75V4.49c0-.15.04-.3.12-.42l2-3c.22-.35.69-.44 1.04-.21Z"/></g></svg>