<svg viewBox="0 0 24 24" xmlns="http://www.w3.org/2000/svg"><g fill-rule="evenodd"><path d="M9 5.75C7.2 5.75 5.75 7.2 5.75 9c0 1.79 1.45 3.25 3.25 3.25 1.79 0 3.25-1.46 3.25-3.25 0-1.8-1.46-3.25-3.25-3.25ZM4.25 9c0-2.63 2.12-4.75 4.75-4.75 2.62 0 4.75 2.12 4.75 4.75 0 2.62-2.13 4.75-4.75 4.75 -2.63 0-4.75-2.13-4.75-4.75Z"/><path d="M2.25 9c0-.42.33-.75.75-.75h2c.41 0 .75.33.75.75 0 .41-.34.75-.75.75H3c-.42 0-.75-.34-.75-.75Z"/><path d="M6.75 8c0-.42.33-.75.75-.75h1c.41 0 .75.33.75.75 0 .41-.34.75-.75.75h-1c-.42 0-.75-.34-.75-.75Z"/><path d="M19.21 9.05c1.16-.59 2.53.26 2.53 1.56v2.64c0 1.31-.55 2.56-1.51 3.46l-1.26 1.17c-.31.28-.78.26-1.07-.04 -.29-.31-.27-.78.03-1.07l1.25-1.18c.65-.62 1.02-1.48 1.02-2.38v-2.65c0-.19-.2-.31-.37-.23l-1.56.77c-.38.18-.83.03-1.01-.34 -.19-.38-.04-.83.33-1.01l1.55-.78Zm-6.97 1.44c0-.42.33-.75.75-.75h1.5c.41 0 .75.33.75.75 0 .41-.34.75-.75.75h-1.5c-.42 0-.75-.34-.75-.75Zm-5.79.91c.32.25.37.23.11.55l-.23.28c-.87 1.07-.95 2.58-.22 3.75l.6.96c.21.35.11.81-.24 1.03 -.36.21-.82.11-1.04-.24l-.61-.97c-1.07-1.72-.95-3.91.31-5.49l.22-.29c.25-.33.73.12 1.05.38Z"/><path d="M6.69 18.36c-.42-.28-.97-.28-1.39 0l-1.9 1.26c-.35.22-.82.13-1.05-.21 -.23-.35-.14-.82.2-1.04l1.89-1.27c.92-.62 2.12-.62 3.05 0l.78.52c.41.27.96.27 1.38 0l.78-.53c.92-.62 2.12-.62 3.05 0l.78.52c.41.27.96.27 1.38 0l.78-.53c.92-.62 2.12-.62 3.05 0l1.89 1.26c.34.22.43.69.2 1.04 -.23.34-.7.43-1.04.2l-1.9-1.27c-.42-.28-.97-.28-1.39 0l-.79.52c-.93.61-2.13.61-3.06 0l-.79-.53c-.42-.28-.97-.28-1.39 0l-.79.52c-.93.61-2.13.61-3.06 0l-.79-.53Z"/></g></svg>