<svg viewBox="0 0 24 24" xmlns="http://www.w3.org/2000/svg"><g fill-rule="evenodd"><path d="M6.44 7.49c.14-.16.34-.25.55-.25h12c.2 0 .4.08.55.24 .14.15.21.35.19.56L19.6 9.66c-.04.41-.4.72-.81.69 -.42-.04-.73-.4-.7-.81l.06-.82H7.76l.88 11.5h8.61l.44-5.81c.03-.42.39-.73.8-.7 .41.03.72.39.69.8l-.5 6.5c-.04.39-.36.69-.75.69h-10c-.4 0-.72-.31-.75-.7l-1-13c-.02-.21.05-.42.19-.57Z"/><path d="M7 4.75C5.2 4.75 3.75 6.2 3.75 8c0 1.79 1.45 3.25 3.25 3.25 .41 0 .75.33.75.75 0 .41-.34.75-.75.75 -2.63 0-4.75-2.13-4.75-4.75 0-2.63 2.12-4.75 4.75-4.75 2.62 0 4.75 2.12 4.75 4.75 0 .41-.34.75-.75.75 -.42 0-.75-.34-.75-.75 0-1.8-1.46-3.25-3.25-3.25Z"/><path d="M15.28 2.77c.09-.32.38-.53.71-.53h4c.41 0 .75.33.75.75 0 .41-.34.75-.75.75h-3.45L12.7 16.21c-.13.39-.55.61-.94.49 -.4-.13-.62-.55-.5-.94l4-13Z"/></g></svg>