<svg viewBox="0 0 24 24" xmlns="http://www.w3.org/2000/svg"><g fill-rule="evenodd"><path d="M22.29 9.31c.38.16.55.6.39.98l-2.79 6.5c-.17.38-.61.55-.99.39 -.39-.17-.56-.61-.4-.99l2.78-6.51c.16-.39.6-.56.98-.4Zm-20.88.21c.17-.22.45-.32.72-.27l9.85 1.97 4.85-.98c.4-.09.8.18.88.58 .08.4-.19.8-.59.88l-5 1c-.1.01-.2.01-.3 0l-8.61-1.73 2.22 5.18c.16.38-.02.82-.4.98 -.39.16-.83-.02-.99-.4l-2.79-6.5c-.11-.26-.07-.56.1-.77Z"/><path d="M11.46 5.46c.29-.3.76-.3 1.06 0l5 5c.29.29.29.76 0 1.06 -.3.29-.77.29-1.07 0l-4.47-4.47 -4.47 4.46c-.3.29-.77.29-1.07 0 -.3-.3-.3-.77 0-1.07l5-5.01Z"/><path d="M6.69 17.36c-.42-.28-.97-.28-1.39 0l-1.9 1.26c-.35.22-.82.13-1.05-.21 -.23-.35-.14-.82.2-1.04l1.89-1.27c.92-.62 2.12-.62 3.05 0l.78.52c.41.27.96.27 1.38 0l.78-.53c.92-.62 2.12-.62 3.05 0l.78.52c.41.27.96.27 1.38 0l.78-.53c.92-.62 2.12-.62 3.05 0l1.89 1.26c.34.22.43.69.2 1.04 -.23.34-.7.43-1.04.2l-1.9-1.27c-.42-.28-.97-.28-1.39 0l-.79.52c-.93.61-2.13.61-3.06 0l-.79-.53c-.42-.28-.97-.28-1.39 0l-.79.52c-.93.61-2.13.61-3.06 0l-.79-.53Z"/></g></svg>