<svg viewBox="0 0 24 24" xmlns="http://www.w3.org/2000/svg"><g fill-rule="evenodd"><path d="M12 15.71c1.9 1.53 4.62 1.36 6.35-.53 1.86-2.04 1.86-5.32 0-7.36 -.28-.31-.76-.33-1.06-.05 -.31.27-.33.75-.05 1.05 1.33 1.46 1.33 3.86 0 5.33 -1.31 1.42-3.39 1.42-4.7 0 -.15-.16-.35-.25-.56-.25 -.22 0-.42.08-.56.24 -1.31 1.42-3.39 1.42-4.7 0 -1.34-1.47-1.34-3.87 0-5.34l5.24-5.74L14.3 5.62c.27.3.75.32 1.05.04 .3-.28.32-.76.04-1.06l-2.9-3.18c-.15-.16-.35-.25-.56-.25 -.22 0-.42.08-.56.24l-5.8 6.34c-1.87 2.03-1.87 5.31 0 7.35 1.72 1.88 4.44 2.05 6.35.52Z"/><path d="M12 14.25c.41 0 .75.33.75.75v7c0 .41-.34.75-.75.75 -.42 0-.75-.34-.75-.75v-7c0-.42.33-.75.75-.75Z"/><path d="M12 7.25c.41 0 .75.33.75.75v8c0 .41-.34.75-.75.75 -.42 0-.75-.34-.75-.75V8c0-.42.33-.75.75-.75Z"/><path d="M15.62 10.584c.22.34.13.81-.21 1.04l-3 2c-.35.22-.82.13-1.05-.21 -.23-.35-.14-.82.2-1.04l3-2c.34-.23.81-.14 1.04.2Z"/><path d="M8.37 8.58c-.23.34-.14.81.2 1.04l3 1.99c.34.22.81.13 1.04-.21 .22-.35.13-.82-.21-1.04l-3-2.01c-.35-.23-.82-.14-1.05.2Z"/></g></svg>