<svg viewBox="0 0 24 24" xmlns="http://www.w3.org/2000/svg"><g fill-rule="evenodd"><path d="M1.25 16c0-.42.33-.75.75-.75h6.5c.41 0 .75.33.75.75 0 .41-.34.75-.75.75H2c-.42 0-.75-.34-.75-.75Zm10.5 0c0-.42.33-.75.75-.75H22c.41 0 .75.33.75.75 0 .41-.34.75-.75.75h-9.5c-.42 0-.75-.34-.75-.75Z"/><path d="M12 8.75c-4.01 0-7.25 3.24-7.25 7.25 0 .41-.34.75-.75.75 -.42 0-.75-.34-.75-.75 0-4.84 3.91-8.75 8.75-8.75 4.83 0 8.75 3.91 8.75 8.75 0 .41-.34.75-.75.75 -.42 0-.75-.34-.75-.75 0-4.01-3.25-7.25-7.25-7.25Z"/><path d="M12 11.75c-2.35 0-4.25 1.9-4.25 4.25 0 .41-.34.75-.75.75 -.42 0-.75-.34-.75-.75 0-3.18 2.57-5.75 5.75-5.75 3.17 0 5.75 2.57 5.75 5.75 0 .41-.34.75-.75.75 -.42 0-.75-.34-.75-.75 0-2.35-1.91-4.25-4.25-4.25Z"/></g></svg>