<svg viewBox="0 0 24 24" xmlns="http://www.w3.org/2000/svg"><g fill-rule="evenodd"><path d="M12 7.75c-2.35 0-4.25 1.9-4.25 4.25 0 .29.02.57.08.85 .08.4-.18.8-.59.88 -.41.08-.81-.18-.89-.59 -.08-.38-.12-.76-.12-1.15 0-3.18 2.57-5.75 5.75-5.75 3.17 0 5.75 2.57 5.75 5.75 0 1.88-.91 3.55-2.3 4.59 -.34.24-.81.18-1.06-.15 -.25-.34-.19-.81.14-1.06 1.03-.78 1.7-2.02 1.7-3.41 0-2.35-1.91-4.25-4.25-4.25Z"/><path d="M1.25 15.5c0-1.8 1.45-3.25 3.25-3.25h6c1.71 0 3.11 1.32 3.24 3h5.75c1.79 0 3.25 1.45 3.25 3.25 0 1.79-1.46 3.25-3.25 3.25h-3.66c-.6.61-1.43 1-2.35 1h-2c-.42 0-.75-.34-.75-.75 0-.42.33-.75.75-.75h2c.57 0 1.08-.28 1.4-.71 .14-.19.36-.3.59-.3h3.99c.96 0 1.75-.79 1.75-1.75 0-.97-.79-1.75-1.75-1.75h-6c-.14 0-.27.01-.4.04 -.26.05-.516-.02-.7-.21 -.19-.19-.26-.45-.21-.7 .02-.13.04-.26.04-.4 0-.97-.79-1.75-1.75-1.75h-6c-.97 0-1.75.78-1.75 1.75 0 .96.78 1.75 1.75 1.75h.99c.28 0 .54.16.67.41 .12.25.09.55-.08.78 -.22.29-.35.65-.35 1.04 0 .96.78 1.75 1.75 1.75 .41 0 .75.33.75.75 0 .41-.34.75-.75.75 -1.8 0-3.25-1.46-3.25-3.25 0-.26.03-.52.08-.76 -1.72-.09-3.09-1.51-3.09-3.25Z"/><path d="M12 1.25c.41 0 .75.33.75.75v2c0 .41-.34.75-.75.75 -.42 0-.75-.34-.75-.75V2c0-.42.33-.75.75-.75Z"/><path d="M6.62 2.69c.35-.21.81-.09 1.02.27l1 1.73c.2.35.08.81-.28 1.02 -.36.2-.82.08-1.03-.28l-1-1.74c-.21-.36-.09-.82.27-1.03Z"/><path d="M17.37 2.69c-.36-.21-.82-.09-1.03.27l-1 1.73c-.21.35-.09.81.27 1.02 .35.2.81.08 1.02-.28l1-1.74c.2-.36.08-.82-.28-1.03Z"/><path d="M2.69 6.62c.2-.36.66-.49 1.02-.28l1.73 1c.35.2.48.66.27 1.02 -.21.35-.67.48-1.03.27l-1.74-1c-.36-.21-.49-.67-.28-1.03Z"/><path d="M21.3 6.62c-.21-.36-.67-.49-1.03-.28l-1.74 1c-.36.2-.49.66-.28 1.02 .2.35.66.48 1.02.27l1.73-1c.35-.21.48-.67.27-1.03Z"/><path d="M19.25 12c0-.42.33-.75.75-.75h2c.41 0 .75.33.75.75 0 .41-.34.75-.75.75h-2c-.42 0-.75-.34-.75-.75Z"/></g></svg>