<svg viewBox="0 0 24 24" xmlns="http://www.w3.org/2000/svg"><g fill="#9545ED" fill-rule="evenodd"><path d="M19 22v-3h2v3h-2Z"/><path d="M12.66 4.42c.72-.73 1.86-.79 2.66-.15l4.3 3.44c.23.18.37.47.37.78v2c0 .55-.45 1-1 1h-2c-.23 0-.45-.08-.63-.22l-4.13-3.31c-.94-.75-1.01-2.14-.17-2.98l.57-.58ZM18 8.97l-3.93-3.15 -.58.57 3.85 3.08h.64v-.52Z"/><g fill="#3747D6"><path d="M1 4c0-1.66 1.34-3 3-3h18c.55 0 1 .44 1 1v17c0 .55-.45 1-1 1H2c-.56 0-1-.45-1-1V4Zm3-1c-.56 0-1 .44-1 1v14h18V3H4Z"/><path d="M3 19v1c0 .55.44 1 1 1h18v2H4c-1.66 0-3-1.35-3-3v-1h2Z"/><path d="M8.5 14v2h-2v-2h2Z"/><path d="M11 14v2H9v-2h2Z"/><path d="M13.5 14v2h-2v-2h2Z"/></g><path d="M4.56 4.1c.34-.17.75-.13 1.05.11l14 11c.33.26.46.71.32 1.11 -.14.4-.52.67-.95.67h-14c-.56 0-1-.45-1-1v-11c0-.39.21-.74.56-.9Zm1.43 2.95v7.94h10.1L5.98 7.04Z"/></g></svg>