<svg viewBox="0 0 24 24" xmlns="http://www.w3.org/2000/svg"><g fill="#9545ED" fill-rule="evenodd"><path d="M12 5c-3.04 0-5.5 2.46-5.5 5.5 0 3.03 2.46 5.5 5.5 5.5 3.03 0 5.5-2.47 5.5-5.5C17.5 7.46 15.03 5 12 5Zm-7.5 5.5C4.5 6.35 7.85 3 12 3c4.14 0 7.5 3.35 7.5 7.5 0 4.14-3.36 7.5-7.5 7.5 -4.15 0-7.5-3.36-7.5-7.5Z"/><g fill="#3747D6"><path d="M1 4c0-1.66 1.34-3 3-3h18c.55 0 1 .44 1 1v17c0 .55-.45 1-1 1H2c-.56 0-1-.45-1-1V4Zm3-1c-.56 0-1 .44-1 1v14h18V3H4Z"/><path d="M3 19v1c0 .55.44 1 1 1h18v2H4c-1.66 0-3-1.35-3-3v-1h2Z"/><path d="M19 22v-3h2v3h-2Z"/><path d="M9 9.25C9 8 10 7 11.25 7H14v2h-2.75c-.14 0-.25.11-.25.25 0 .13.11.25.25.25h1.5c1.24 0 2.25 1 2.25 2.25 0 1.24-1.01 2.25-2.25 2.25H10v-2h2.75c.13 0 .25-.12.25-.25 0-.14-.12-.25-.25-.25h-1.5C10 11.5 9 10.49 9 9.25Z"/><path d="M11 15v-2h2v2h-2Z"/><path d="M11 8V6h2v2h-2Z"/></g></g></svg>