<svg viewBox="0 0 24 24" xmlns="http://www.w3.org/2000/svg"><g fill="#9545ED" fill-rule="evenodd"><path d="M19 22v-3h2v3h-2Z"/><path d="M19.61 6.28l-14 11L4.37 15.7l14-11 1.23 1.57Z"/><path d="M14.38 3.71c.24-.2.56-.26.86-.19l4 1c.44.11.75.51.75.97v4c0 .32-.16.62-.42.81l-6.35 4.53c-.6.42-1.31.65-2.04.65H8.03c-.9 0-1.59-.78-1.5-1.67l.32-2.91c.1-.94.57-1.79 1.31-2.37l6.17-4.86Zm.85 1.87l-5.8 4.54c-.32.24-.52.61-.57 1.01l-.27 2.34h2.58c.31 0 .61-.1.87-.28l5.92-4.24V6.24l-2.77-.7Z"/><g fill="#3747D6"><path d="M1 4c0-1.66 1.34-3 3-3h18c.55 0 1 .44 1 1v17c0 .55-.45 1-1 1H2c-.56 0-1-.45-1-1V4Zm3-1c-.56 0-1 .44-1 1v14h18V3H4Z"/><path d="M3 19v1c0 .55.44 1 1 1h18v2H4c-1.66 0-3-1.35-3-3v-1h2Z"/></g></g></svg>