<svg viewBox="0 0 24 24" xmlns="http://www.w3.org/2000/svg"><g fill="#9545ED" fill-rule="evenodd"><path d="M19 22v-3h2v3h-2Z"/><path d="M4.29 9.79l3-3L8.7 8.2l-2.3 2.29 2.29 2.29 -1.42 1.41 -3-3c-.4-.4-.4-1.03 0-1.42Z"/><path d="M19.7 9.79l-3-3L15.28 8.2l2.29 2.29 -2.3 2.29 1.41 1.41 3-3c.39-.4.39-1.03 0-1.42Z"/><path d="M9.58 13.6l3-7.01 1.83.78 -3 6.99 -1.84-.79Z"/><g fill="#3747D6"><path d="M1 4c0-1.66 1.34-3 3-3h18c.55 0 1 .44 1 1v17c0 .55-.45 1-1 1H2c-.56 0-1-.45-1-1V4Zm3-1c-.56 0-1 .44-1 1v14h18V3H4Z"/><path d="M3 19v1c0 .55.44 1 1 1h18v2H4c-1.66 0-3-1.35-3-3v-1h2Z"/></g></g></svg>