<svg viewBox="0 0 24 24" xmlns="http://www.w3.org/2000/svg"><g fill="#9545ED" fill-rule="evenodd"><path d="M19 22v-3h2v3h-2Z"/><path d="M12 5.5c-2.77 0-5 2.23-5 5 0 2.76 2.23 5 5 5 2.76 0 5-2.24 5-5 0-2.77-2.24-5-5-5Zm-7 5c0-3.87 3.13-7 7-7 3.86 0 7 3.13 7 7 0 3.86-3.14 7-7 7 -3.87 0-7-3.14-7-7Z"/><path d="M10.77 6.7c-.46.91-.78 2.26-.78 3.79 0 1.53.31 2.87.77 3.79 .48.97.98 1.2 1.22 1.2s.73-.23 1.22-1.21c.45-.92.77-2.27.77-3.8 0-1.54-.32-2.88-.78-3.8 -.49-.98-.99-1.21-1.23-1.21 -.25 0-.74.22-1.23 1.2Zm-1.79-.9c.59-1.2 1.6-2.32 3.01-2.32 1.41 0 2.41 1.11 3.01 2.31 .62 1.25.98 2.91.98 4.68 0 1.77-.36 3.43-.99 4.68 -.6 1.19-1.61 2.31-3.02 2.31 -1.42 0-2.42-1.12-3.02-2.32 -.63-1.26-.99-2.92-.99-4.69 0-1.78.35-3.44.98-4.69Z"/><path d="M6 9.5h12v2H6v-2Z"/><g fill="#3747D6"><path d="M1 4c0-1.66 1.34-3 3-3h18c.55 0 1 .44 1 1v17c0 .55-.45 1-1 1H2c-.56 0-1-.45-1-1V4Zm3-1c-.56 0-1 .44-1 1v14h18V3H4Z"/><path d="M3 19v1c0 .55.44 1 1 1h18v2H4c-1.66 0-3-1.35-3-3v-1h2Z"/></g></g></svg>