<svg viewBox="0 0 24 24" xmlns="http://www.w3.org/2000/svg"><g fill="#9545ED" fill-rule="evenodd"><path d="M19 22v-3h2v3h-2Z"/><path d="M12 6c-2.21 0-4 1.79-4 4 0 1.13.46 2.41 1.25 3.41 .78 1 1.77 1.58 2.74 1.58 .97 0 1.96-.58 2.74-1.59 .78-1 1.25-2.29 1.25-3.42 0-2.21-1.8-4-4-4Zm-6 4c0-3.32 2.68-6 6-6 3.31 0 6 2.68 6 6 0 1.62-.66 3.34-1.68 4.65 -1.03 1.3-2.54 2.34-4.33 2.34s-3.3-1.05-4.33-2.35c-1.03-1.31-1.68-3.03-1.68-4.66Z"/><g fill="#3747D6"><path d="M1 4c0-1.66 1.34-3 3-3h18c.55 0 1 .44 1 1v17c0 .55-.45 1-1 1H2c-.56 0-1-.45-1-1V4Zm3-1c-.56 0-1 .44-1 1v14h18V3H4Z"/><path d="M3 19v1c0 .55.44 1 1 1h18v2H4c-1.66 0-3-1.35-3-3v-1h2Z"/><path d="M8.04 9.4l3.95 1.97 3.95-1.98c-.29-1.93-1.95-3.41-3.96-3.41s-3.67 1.47-3.96 3.4Zm-2.05.59c0-3.32 2.68-6 6-6 3.31 0 6 2.68 6 6 0 .37-.22.72-.56.89l-5 2.5c-.29.14-.62.14-.9 0l-5.01-2.5c-.34-.17-.56-.52-.56-.9Z"/><path d="M18.97 6.24l-1 3.99 -1.95-.49 1-4 1.94.48Z"/><path d="M5.02 6.24l1 3.99 1.94-.49 -1-4 -1.95.48Z"/></g></g></svg>