<svg viewBox="0 0 24 24" xmlns="http://www.w3.org/2000/svg"><g fill="#9545ED" fill-rule="evenodd"><path d="M2 10.5h2v2H2v-2Z"/><path d="M22 12.5h-2v-2h2v2Z"/><path d="M11.55 7.6c.28-.15.61-.15.89 0l2 1 -.9 1.78 -1.56-.78 -1.56.77 -.9-1.79 1.99-1Z"/><g fill="#3747D6"><path d="M7.5 9C6.11 9 5 10.11 5 11.5 5 12.88 6.11 14 7.5 14c1.38 0 2.5-1.12 2.5-2.5C10 10.11 8.88 9 7.5 9ZM3 11.5C3 9.01 5.01 7 7.5 7 9.98 7 12 9.01 12 11.5c0 2.48-2.02 4.5-4.5 4.5C5.01 16 3 13.98 3 11.5Z"/><path d="M16.5 9c-1.39 0-2.5 1.11-2.5 2.5 0 1.38 1.11 2.5 2.5 2.5 1.38 0 2.5-1.12 2.5-2.5 0-1.39-1.12-2.5-2.5-2.5ZM12 11.5C12 9.01 14.01 7 16.5 7c2.48 0 4.5 2.01 4.5 4.5 0 2.48-2.02 4.5-4.5 4.5 -2.49 0-4.5-2.02-4.5-4.5Z"/></g></g></svg>