<svg viewBox="0 0 24 24" xmlns="http://www.w3.org/2000/svg"><g fill="#3747D6" fill-rule="evenodd"><path d="M13 6.5c0-1.66 1.34-3 3-3h4c.55 0 1 .44 1 1v4c0 .55-.45 1-1 1h-4c-1.66 0-3-1.35-3-3Zm3-1c-.56 0-1 .44-1 1 0 .55.44 1 1 1h3v-2h-3Z"/><g fill="#9545ED"><path d="M13 6.5c0-1.66 1.34-3 3-3h6v2h-6c-.56 0-1 .44-1 1 0 .55.44 1 1 1h6v2h-6c-1.66 0-3-1.35-3-3Z"/><path d="M2 12.5c0-.56.44-1 1-1h3c.55 0 1 .44 1 1v8c0 .55-.45 1-1 1H3c-.56 0-1-.45-1-1v-8Zm2 1v6h1v-6H4Z"/><path d="M17 12.5c0-.56.44-1 1-1h3c.55 0 1 .44 1 1v8c0 .55-.45 1-1 1h-3c-.56 0-1-.45-1-1v-8Zm2 1v6h1v-6h-1Z"/></g><path d="M1 3.5c0-.56.44-1 1-1h3c.55 0 1 .44 1 1v5c0 .55-.45 1-1 1H2c-.56 0-1-.45-1-1v-5Zm2 1v3h1v-3H3Z"/><path fill="#9545ED" d="M4 4.5c0-.56.44-1 1-1h3c.55 0 1 .44 1 1v4c0 .55-.45 1-1 1H5c-.56 0-1-.45-1-1v-4Zm2 1v2h1v-2H6Z"/><path d="M1 8.5c0-.56.44-1 1-1h20c.55 0 1 .44 1 1v4c0 .55-.45 1-1 1H2c-.56 0-1-.45-1-1v-4Zm2 1v2h18v-2H3Z"/></g></svg>