<svg viewBox="0 0 24 24" xmlns="http://www.w3.org/2000/svg"><g fill="#9545ED" fill-rule="evenodd"><path d="M22.7 2.7l-10 9.99c-.4.39-1.03.39-1.42 0l-2.8-2.8 -4.8 4.79 -1.42-1.42 5.5-5.51c.39-.4 1.02-.4 1.41 0l2.79 2.79 9.29-9.3 1.41 1.41Z"/><g fill="#3747D6"><path d="M10 3c-3.87 0-7 3.13-7 7 0 3.86 3.13 7 7 7 3.86 0 7-3.14 7-7 0-3.87-3.14-7-7-7Zm-9 7c0-4.98 4.02-9 9-9 4.97 0 9 4.02 9 9 0 4.97-4.03 9-9 9 -4.98 0-9-4.03-9-9Z"/><path d="M16.2 14.79l6.5 6.5 -1.42 1.41 -6.5-6.5 1.41-1.42Z"/></g></g><path fill="#9545ED" d="M22.7 2.7l-10 10c-.4.39-1.03.39-1.42 0l-2.8-2.8 -.71-2.13c.39-.4 1.02-.4 1.41 0l2.79 2.79 9.29-9.3 1.41 1.41Z"/></svg>