<svg viewBox="0 0 24 24" xmlns="http://www.w3.org/2000/svg"><g fill="#9545ED" fill-rule="evenodd"><path d="M12 7.5c-.83 0-1.5.67-1.5 1.5 0 .82.67 1.5 1.5 1.5 .82 0 1.5-.68 1.5-1.5 0-.83-.68-1.5-1.5-1.5ZM8.5 9c0-1.94 1.56-3.5 3.5-3.5 1.93 0 3.5 1.56 3.5 3.5 0 1.93-1.57 3.5-3.5 3.5 -1.94 0-3.5-1.57-3.5-3.5Z"/><path d="M7 22v-8h2v6l2.4-1.8c.35-.27.84-.27 1.2 0L15 20v-6h2v8c0 .37-.22.72-.56.89 -.34.16-.75.13-1.05-.1l-3.4-2.55 -3.4 2.55c-.31.22-.71.26-1.05.09 -.34-.17-.56-.52-.56-.9Z"/><g fill="#3747D6"><path d="M11.35 1.23c.37-.32.92-.32 1.29 0l1.89 1.61 2.48.19c.48.03.87.42.91.91l.19 2.48 1.61 1.89c.31.37.31.92 0 1.29l-1.62 1.89 -.2 2.484c-.04.48-.43.87-.92.91l-2.484.19 -1.9 1.61c-.38.31-.93.31-1.3 0l-1.9-1.62 -2.49-.2c-.49-.04-.88-.43-.92-.92l-.2-2.484 -1.62-1.9c-.32-.38-.32-.93 0-1.3l1.61-1.9 .19-2.49c.03-.49.42-.88.91-.92l2.48-.2 1.89-1.62Zm.64 2.07l-1.5 1.27c-.17.13-.36.21-.57.23l-1.96.15L7.8 6.9c-.02.2-.1.4-.24.56L6.28 8.95l1.27 1.49c.13.16.21.35.23.56l.15 1.95 1.95.15c.2.01.4.09.56.23l1.49 1.27 1.49-1.28c.16-.14.35-.22.56-.24l1.95-.16 .15-1.96c.01-.21.09-.41.23-.57l1.27-1.5 -1.28-1.5c-.14-.17-.22-.36-.24-.57l-.16-1.96 -1.96-.16c-.21-.02-.41-.1-.57-.24l-1.5-1.28Z"/><path d="M3.29 13.29c.39-.4 1.02-.4 1.41 0l2 2L5.28 16.7l-1.3-1.3 -1.3 1.29 -1.42-1.42 2-2Z"/><path d="M19.293 13.29c.39-.4 1.02-.4 1.41 0l2 2 -1.42 1.41 -1.3-1.3 -1.3 1.29 -1.42-1.42 2-2Z"/><path d="M3 22v-8h2v8H3Z"/><path d="M19 22v-8h2v8h-2Z"/></g></g></svg>