<svg viewBox="0 0 24 24" xmlns="http://www.w3.org/2000/svg"><g fill="#9545ED" fill-rule="evenodd"><path d="M16 16.58l2.29-2.3 1.41 1.41 -3 3c-.4.39-1.03.39-1.42 0l-1.5-1.5 1.41-1.42 .79.79Z"/><path d="M4.79 8.79l4-4L10.2 6.2l-4.01 3.99 -1.42-1.42Z"/><path d="M10.2 8.79l-4-4L4.78 6.2l4 3.99 1.41-1.42Z"/><path d="M22 8.5h-9v-2h9v2Z"/><path d="M2 15.5h9v2H2v-2Z"/><g fill="#3747D6"><path d="M16.5 12c-2.49 0-4.5 2.01-4.5 4.5 0 2.48 2.01 4.5 4.5 4.5 2.48 0 4.5-2.02 4.5-4.5 0-2.49-2.02-4.5-4.5-4.5ZM10 16.5c0-3.59 2.91-6.5 6.5-6.5 3.58 0 6.5 2.91 6.5 6.5 0 3.58-2.92 6.5-6.5 6.5 -3.59 0-6.5-2.92-6.5-6.5Z"/><path d="M7.5 3C5.01 3 3 5.01 3 7.5 3 9.98 5.01 12 7.5 12 9.98 12 12 9.98 12 7.5 12 5.01 9.98 3 7.5 3ZM1 7.5C1 3.91 3.91 1 7.5 1 11.08 1 14 3.91 14 7.5c0 3.58-2.92 6.5-6.5 6.5C3.91 14 1 11.08 1 7.5Z"/></g></g></svg>