<svg viewBox="0 0 24 24" xmlns="http://www.w3.org/2000/svg"><g fill="#9545ED" fill-rule="evenodd"><path d="M5.75 5.75c.26-.27.66-.37 1.02-.25l5.3 1.76c.29.09.53.33.63.63l1.76 5.3c.11.35.02.75-.25 1.02 -.27.26-.67.36-1.03.24l-5.31-1.77c-.3-.1-.54-.34-.64-.64L5.46 6.73c-.12-.36-.03-.76.24-1.03Zm3.26 5.21l2.93.97 -.98-2.94 -2.94-.98 .97 2.93Z"/><g fill="#3747D6"><path d="M10 3c-3.87 0-7 3.13-7 7 0 3.86 3.13 7 7 7 3.86 0 7-3.14 7-7 0-3.87-3.14-7-7-7Zm-9 7c0-4.98 4.02-9 9-9 4.97 0 9 4.02 9 9 0 4.97-4.03 9-9 9 -4.98 0-9-4.03-9-9Z"/><path d="M16.2 14.79l6.5 6.5 -1.42 1.41 -6.5-6.5 1.41-1.42Z"/></g></g></svg>