<svg viewBox="0 0 24 24" xmlns="http://www.w3.org/2000/svg"><g fill="#9545ED" fill-rule="evenodd"><path d="M22.7 7.7l-9 8.99c-.19.18-.45.29-.71.29H8.4l-5.71 5.7 -1.42-1.42 6-6c.18-.19.44-.3.7-.3h4.58l8.7-8.71 1.41 1.41Z"/><path d="M6 5.25C6 4 7 3 8.25 3H11v2H8.25c-.14 0-.25.11-.25.25 0 .13.11.25.25.25h1.5c1.24 0 2.25 1 2.25 2.25C12 8.99 10.99 10 9.75 10H7V8h2.75c.13 0 .25-.12.25-.25 0-.14-.12-.25-.25-.25h-1.5C7 7.5 6 6.49 6 5.25Z"/><path d="M8 11V9h2v2H8Z"/><path d="M8 4V2h2v2H8Z"/><path fill="#3747D6" d="M1 22V2h2v19h19v2H2c-.56 0-1-.45-1-1Z"/></g></svg>