<svg viewBox="0 0 24 24" xmlns="http://www.w3.org/2000/svg"><g fill="#9545ED" fill-rule="evenodd"><path d="M9 7.25C9 6 10 5 11.25 5H14v2h-2.75c-.14 0-.25.11-.25.25 0 .13.11.25.25.25h1.5c1.24 0 2.25 1 2.25 2.25 0 1.24-1.01 2.25-2.25 2.25H10v-2h2.75c.13 0 .25-.12.25-.25 0-.14-.12-.25-.25-.25h-1.5C10 9.5 9 8.49 9 7.25Z"/><path d="M11 13v-2h2v2h-2Z"/><path d="M11 6V4h2v2h-2Z"/><path d="M11 20v-5h2v5h-2Z"/><path d="M12 18.58l-1.8-1.8 -1.42 1.41 2.5 2.5c.39.39 1.02.39 1.41 0l2.5-2.5 -1.42-1.42 -1.8 1.79Z"/><g fill="#3747D6"><path d="M12 3C8.96 3 6.5 5.46 6.5 8.5c0 3.03 2.46 5.5 5.5 5.5 3.03 0 5.5-2.47 5.5-5.5C17.5 5.46 15.03 3 12 3ZM4.5 8.5C4.5 4.35 7.85 1 12 1c4.14 0 7.5 3.35 7.5 7.5 0 4.14-3.36 7.5-7.5 7.5 -4.15 0-7.5-3.36-7.5-7.5Z"/><path d="M1 22v-4h2v3h18v-3h2v4c0 .55-.45 1-1 1H2c-.56 0-1-.45-1-1Z"/></g></g></svg>