<svg viewBox="0 0 24 24" xmlns="http://www.w3.org/2000/svg"><g fill="#9545ED" fill-rule="evenodd"><path d="M19.7 18.29l3 3 -1.42 1.41 -3-3 1.41-1.42Z"/><g fill="#3747D6"><path d="M2.55 1.68c.13-.41.51-.69.94-.69h15c.43 0 .81.27.94.68l1.5 4.5c.03.1.05.2.05.31 0 2.2-1.8 4-4 4 -1.2 0-2.27-.53-3-1.36 -.74.83-1.81 1.35-3 1.35 -1.2 0-2.27-.53-3-1.36 -.74.83-1.81 1.35-3 1.35 -2.21 0-4-1.8-4-4 0-.11.01-.22.05-.32l1.5-4.5Zm6.44 4.81c0 1.1.89 2 2 2 1.1 0 2-.9 2-2 0-.56.44-1 1-1 .55 0 1 .44 1 1 0 1.1.89 2 2 2 1.05 0 1.91-.82 1.99-1.86l-1.22-3.65H4.2L2.98 6.62c.07 1.03.93 1.85 1.99 1.85 1.1 0 2-.9 2-2 0-.56.44-1 1-1 .55 0 1 .44 1 1Z"/><path d="M4 18V9H2v10c0 .55.44 1 1 1h9.5v-2H4Zm14-5.5V9h2v3.5h-2Z"/></g><path d="M16 12.5c-1.94 0-3.5 1.56-3.5 3.5 0 1.93 1.56 3.5 3.5 3.5 1.93 0 3.5-1.57 3.5-3.5 0-1.94-1.57-3.5-3.5-3.5ZM10.5 16c0-3.04 2.46-5.5 5.5-5.5 3.03 0 5.5 2.46 5.5 5.5 0 3.03-2.47 5.5-5.5 5.5 -3.04 0-5.5-2.47-5.5-5.5Z"/></g></svg>