<svg viewBox="0 0 24 24" xmlns="http://www.w3.org/2000/svg"><g fill="#9545ED" fill-rule="evenodd"><path d="M9.5 17c-.28 0-.5.22-.5.5 0 .27.22.5.5.5 .27 0 .5-.23.5-.5 0-.28-.23-.5-.5-.5Zm-2.5.5C7 16.11 8.11 15 9.5 15c1.38 0 2.5 1.11 2.5 2.5 0 1.38-1.12 2.5-2.5 2.5C8.11 20 7 18.88 7 17.5Z"/><path d="M16 9v5.5c0 2.2-1.8 4-4 4h-1v-2h1c1.1 0 2-.9 2-2V9h2Z"/><path d="M14.293 8.29c.39-.4 1.02-.4 1.41 0l2 2 -1.42 1.41 -1.3-1.3 -1.3 1.29 -1.42-1.42 2-2.01Z"/><path fill="#3747D6" d="M4 4c0-.56.44-1 1-1h4v2H6v16h12V5h-3V3h4c.55 0 1 .44 1 1v18c0 .55-.45 1-1 1H5c-.56 0-1-.45-1-1V4Z"/><path d="M8 2c0-.56.44-1 1-1h6c.55 0 1 .44 1 1v4c0 .55-.45 1-1 1H9c-.56 0-1-.45-1-1V2Zm2 1v2h4V3h-4Z"/><path d="M6.79 11.79l3-3.01 1.41 1.41 -3.01 3 -1.42-1.42Z"/><path d="M11.2 11.79l-3-3.01 -1.42 1.41 3 3 1.41-1.42Z"/></g></svg>