<svg viewBox="0 0 24 24" xmlns="http://www.w3.org/2000/svg"><g fill="#9545ED" fill-rule="evenodd"><path d="M18.7 15.29l4 4 -1.42 1.41 -4-4 1.41-1.42Z"/><path fill="#3747D6" d="M6.29 1.29c.18-.19.44-.3.7-.3h9c.55 0 1 .44 1 1v7h-2v-6H7.4L2.98 7.4v13.58h12v-4h2v5c0 .55-.45 1-1 1h-14c-.56 0-1-.45-1-1v-15c0-.27.1-.52.29-.71l5-5Z"/><path d="M15 10c-1.66 0-3 1.34-3 3 0 1.65 1.34 3 3 3 1.65 0 3-1.35 3-3 0-1.66-1.35-3-3-3Zm-5 3c0-2.77 2.23-5 5-5 2.76 0 5 2.23 5 5 0 2.76-2.24 5-5 5 -2.77 0-5-2.24-5-5Z"/><path d="M7.38 1.07c.37.15.61.51.61.92v5c0 .55-.45 1-1 1h-5c-.41 0-.77-.25-.93-.62 -.16-.38-.07-.81.21-1.09l5-5c.28-.29.71-.38 1.08-.22ZM4.41 5.99h1.58V4.4L4.4 5.98Z"/></g></svg>