<svg viewBox="0 0 24 24" xmlns="http://www.w3.org/2000/svg"><g fill="#9545ED" fill-rule="evenodd"><path d="M8.55 3c.23-1.15 1.24-2 2.44-2s2.21.85 2.45 2h1.05c.55 0 1 .44 1 1v1.05c1.14.23 2 1.24 2 2.44s-.86 2.21-2 2.44v1.05c0 .55-.45 1-1 1h-7c-.56 0-1-.45-1-1v-7c0-.56.44-1 1-1h1.05Zm2.44 0c-.28 0-.5.22-.5.5 0 .06.01.11.02.16 .1.3.06.64-.13.91 -.19.26-.5.42-.82.42H8.47v5h5V8.9c0-.33.15-.63.42-.82 .26-.19.6-.24.91-.13 .05.01.1.02.16.02 .27 0 .5-.23.5-.5 0-.28-.23-.5-.5-.5 -.07 0-.12.01-.17.02 -.31.1-.65.06-.92-.13s-.43-.5-.43-.82V4.95h-1.09c-.33 0-.63-.16-.82-.43 -.19-.27-.24-.61-.13-.92 .01-.06.02-.11.02-.17 0-.28-.23-.5-.5-.5Z"/><path fill="#3747D6" d="M10.75 14.933c-.04-.06-.11-.07-.17-.04l-4.6 2.67v2.92h9.63l4.49-3.75c.2-.18.22-.49.03-.69 -.16-.16-.41-.19-.6-.06l-4 2.79c-.17.11-.37.18-.58.18h-5c-.37 0-.71-.21-.89-.53 -.18-.33-.16-.72.04-1.03l1.58-2.38c.02-.05.02-.1 0-.14Zm-1.17-1.77c.96-.57 2.21-.28 2.83.65 .47.71.47 1.64 0 2.35l-.55.82h2.81l3.73-2.62c.97-.69 2.3-.57 3.15.27 1.02 1.02.94 2.7-.17 3.63l-4.77 3.97c-.18.14-.41.23-.65.23h-11c-.56 0-1-.45-1-1v-4.5c0-.36.18-.69.49-.87l5.08-2.97Z"/><path d="M1 15.5c0-.56.44-1 1-1h3c.55 0 1 .44 1 1V22c0 .55-.45 1-1 1H2c-.56 0-1-.45-1-1v-6.5Zm2 1V21h1v-4.5H3Z"/></g></svg>