<svg viewBox="0 0 24 24" xmlns="http://www.w3.org/2000/svg"><g fill-rule="evenodd"><path d="M4.57 19.42c-1.76-1.76-1.76-4.61 0-6.37l8.48-8.49c1.75-1.76 4.6-1.76 6.36 0 1.75 1.75 1.75 4.6 0 6.36l-8.49 8.48c-1.76 1.75-4.61 1.75-6.37 0Zm.7-5.66c-1.37 1.36-1.37 3.58 0 4.94 1.36 1.36 3.58 1.36 4.94 0l8.48-8.49c1.36-1.37 1.36-3.59 0-4.95 -1.37-1.37-3.59-1.37-4.95 0l-8.49 8.48Z"/><path d="M8.46 13.41c-.2-.2-.2-.52 0-.71l4.24-4.25c.19-.2.51-.2.7 0l2.12 2.12c.19.19.19.51 0 .7l-4.25 4.24c-.2.19-.52.19-.71 0l-2.13-2.13Zm1.06-.36l1.41 1.41 3.53-3.54 -1.42-1.42 -3.54 3.53Z"/></g></svg>