<svg viewBox="0 0 24 24" xmlns="http://www.w3.org/2000/svg"><g fill-rule="evenodd"><path d="M1.5 6c0-.28.22-.5.5-.5h20c.27 0 .5.22.5.5v12c0 .27-.23.5-.5.5H2c-.28 0-.5-.23-.5-.5V6Zm1 .5v11h19v-11h-19Z"/><path d="M11.5 10V6h1v4h-1Zm0 8v-4h1v4h-1Z"/><path d="M12 10.5c-.83 0-1.5.67-1.5 1.5 0 .82.67 1.5 1.5 1.5 .82 0 1.5-.68 1.5-1.5 0-.83-.68-1.5-1.5-1.5ZM9.5 12c0-1.39 1.11-2.5 2.5-2.5 1.38 0 2.5 1.11 2.5 2.5 0 1.38-1.12 2.5-2.5 2.5 -1.39 0-2.5-1.12-2.5-2.5Z"/><path d="M22 8.5c-1.94 0-3.5 1.56-3.5 3.5 0 1.93 1.56 3.5 3.5 3.5v1c-2.49 0-4.5-2.02-4.5-4.5 0-2.49 2.01-4.5 4.5-4.5v1Z"/><path d="M2 8.5c1.93 0 3.5 1.56 3.5 3.5 0 1.93-1.57 3.5-3.5 3.5v1c2.48 0 4.5-2.02 4.5-4.5 0-2.49-2.02-4.5-4.5-4.5v1Z"/></g></svg>