<svg viewBox="0 0 24 24" xmlns="http://www.w3.org/2000/svg"><g fill-rule="evenodd"><path d="M6 11c-1.94 0-3.5 1.56-3.5 3.5C2.5 16.43 4.06 18 6 18c1.93 0 3.5-1.57 3.5-3.5C9.5 12.56 7.93 11 6 11Zm-4.5 3.5C1.5 12.01 3.51 10 6 10c2.48 0 4.5 2.01 4.5 4.5 0 2.48-2.02 4.5-4.5 4.5 -2.49 0-4.5-2.02-4.5-4.5Z"/><path d="M18 11c-1.94 0-3.5 1.56-3.5 3.5 0 1.93 1.56 3.5 3.5 3.5 1.93 0 3.5-1.57 3.5-3.5 0-1.94-1.57-3.5-3.5-3.5Zm-4.5 3.5c0-2.49 2.01-4.5 4.5-4.5 2.48 0 4.5 2.01 4.5 4.5 0 2.48-2.02 4.5-4.5 4.5 -2.49 0-4.5-2.02-4.5-4.5Z"/><path d="M4 5h4c.15 0 .29.06.39.18 .09.11.13.27.09.42l-2 9 -.98-.22 1.86-8.4H3.98v-1Z"/><path d="M7.5 8H13c.14 0 .27.05.36.16l5.5 5.99 -.74.67 -5.36-5.84H7.48v-1Z"/><path d="M11.5 5h4v1h-1.42l-1.6 6.61 -.98-.24 1.53-6.39h-1.56v-1Z"/></g></svg>