<svg viewBox="0 0 24 24" xmlns="http://www.w3.org/2000/svg"><g fill-rule="evenodd"><path d="M1.5 9.95c0-1.67 1.43-2.96 3.12-2.96 1.51 0 2.82 1.03 3.08 2.45h1.41v.99H7.23c-.28 0-.5-.23-.5-.5 0-1.05-.92-1.96-2.13-1.96s-2.13.9-2.13 1.95c0 .66.36 1.26.93 1.62 .14.09.23.25.23.42 0 .17-.09.33-.24.42 -.58.35-.94.95-.94 1.62 0 1.04.91 1.95 2.12 1.95 1.2 0 2.12-.91 2.12-1.96 0-.28.22-.5.5-.5h2.75v1h-2.3c-.26 1.41-1.57 2.45-3.09 2.45 -1.7 0-3.13-1.3-3.13-2.96 0-.81.33-1.52.86-2.05 -.54-.53-.87-1.25-.87-2.05Z"/><path d="M22.5 14.04c0 1.66-1.44 2.95-3.125 2.95 -1.52 0-2.83-1.04-3.09-2.46h-1.42v-1h1.87c.27 0 .5.22.5.5 0 1.04.91 1.95 2.125 1.95 1.2 0 2.125-.91 2.125-1.96 0-.67-.37-1.263-.94-1.63 -.15-.1-.24-.26-.24-.43 0-.18.08-.34.23-.43 .57-.36.93-.96.93-1.63 0-1.05-.92-1.96-2.125-1.96 -1.21 0-2.125.9-2.125 1.95 0 .27-.23.49-.5.49h-2.75v-1h2.29c.25-1.42 1.56-2.46 3.08-2.46 1.69 0 3.125 1.29 3.125 2.95 0 .8-.34 1.51-.87 2.04 .53.52.86 1.24.86 2.04Z"/><path d="M10.5 11.9l1-5 .98.19 -.89 4.4h1.39c.14 0 .29.06.38.18 .09.11.13.26.1.41l-1 5 -.99-.2 .88-4.41h-1.4c-.15 0-.3-.07-.39-.19 -.1-.12-.14-.27-.11-.42Z"/></g></svg>