<svg viewBox="0 0 24 24" xmlns="http://www.w3.org/2000/svg"><g fill-rule="evenodd"><path d="M6.5 19.5c0-.28.22-.5.5-.5h10c.27 0 .5.22.5.5V22c0 .27-.23.5-.5.5H7c-.28 0-.5-.23-.5-.5v-2.5Zm1 .5v1.5h9V20h-9Z"/><path d="M6.5 8c0-.28.22-.5.5-.5h10c.27 0 .5.22.5.5v2.5c0 .27-.23.5-.5.5H7c-.28 0-.5-.23-.5-.5V8Zm1 .5V10h9V8.5h-9Z"/><path d="M7.5 10.5c0-.28.22-.5.5-.5h8c.27 0 .5.22.5.5v9c0 .27-.23.5-.5.5H8c-.28 0-.5-.23-.5-.5v-9Zm1 .5v8h7v-8h-7Z"/><path d="M12 2.5c-1.39 0-2.5 1.11-2.5 2.5 0 1.38 1.11 2.5 2.5 2.5 1.38 0 2.5-1.12 2.5-2.5 0-1.39-1.12-2.5-2.5-2.5ZM8.5 5c0-1.94 1.56-3.5 3.5-3.5 1.93 0 3.5 1.56 3.5 3.5 0 1.93-1.57 3.5-3.5 3.5 -1.94 0-3.5-1.57-3.5-3.5Z"/></g></svg>