<svg viewBox="0 0 24 24" xmlns="http://www.w3.org/2000/svg"><g fill-rule="evenodd"><path d="M12 3.49c-5.25 0-9.5 4.25-9.5 9.49 0 3.04 1.43 5.76 3.66 7.5h5.33v-7.51c0-.28.22-.5.5-.5h9.48c-.26-5.02-4.41-9-9.49-9ZM1.5 12.98c0-5.8 4.7-10.5 10.5-10.5 5.79 0 10.5 4.7 10.5 10.49 0 .27-.23.5-.5.5h-9.5v7.5c0 .27-.23.5-.5.5H6c-.11 0-.22-.04-.31-.11 -2.55-1.92-4.2-4.965-4.2-8.41Z"/><path d="M13.4 19.69l-1.8-2.4 .8-.6 1.8 2.4c.66.88 1.69 1.4 2.8 1.4h3v1h-3c-1.42 0-2.76-.67-3.6-1.8Z"/><path d="M20 16.49h-8v-1h8v1Z"/><path d="M20 18.99h-7v-1h7v1Z"/></g></svg>