<svg viewBox="0 0 24 24" xmlns="http://www.w3.org/2000/svg"><g fill-rule="evenodd"><path d="M4.5 5c0-.28.22-.5.5-.5h6c.27 0 .5.22.5.5v2.66l4.4 1.85 2.66.62c1.12.26 1.92 1.27 1.92 2.43v.91c0 1.38-1.12 2.5-2.5 2.5h-12c-.83 0-1.5-.68-1.5-1.5v-9.5Zm1 .5v9c0 .27.22.5.5.5h12c.82 0 1.5-.68 1.5-1.5v-.92c0-.7-.48-1.31-1.16-1.47l-2.71-.64c-.03-.01-.06-.02-.08-.03l-4.75-2c-.19-.08-.31-.26-.31-.47v-2.5h-5Z"/><path d="M11 8.5H5v-1h6v1Z"/><path d="M13.64 11.64l2-2.01 .7.7 -2 2 -.71-.71Z"/><path d="M10.64 10.14l2-2.01 .7.7 -2 2 -.71-.71Z"/><path d="M5.5 17v-1.5h1V17h-1Z"/><path d="M9.5 17v-1.5h1V17h-1Z"/><path d="M13.5 17v-1.5h1V17h-1Z"/><path d="M17.5 17v-1.5h1V17h-1Z"/></g></svg>