<svg viewBox="0 0 24 24" xmlns="http://www.w3.org/2000/svg"><g fill-rule="evenodd"><path d="M6.58 14.75c-1.38.77-2.09 1.76-2.09 2.74 0 .98.71 1.97 2.08 2.74 1.35.76 3.27 1.25 5.41 1.25 2.13 0 4.05-.49 5.41-1.26 1.37-.78 2.08-1.77 2.08-2.75 0-.99-.72-1.98-2.09-2.75 -1.36-.77-3.28-1.26-5.42-1.26s-4.06.48-5.42 1.25Zm-.5-.88c1.53-.87 3.62-1.39 5.9-1.39 2.27 0 4.36.51 5.9 1.38 1.51.85 2.59 2.11 2.59 3.61s-1.08 2.76-2.6 3.61c-1.54.86-3.63 1.38-5.91 1.38 -2.28 0-4.37-.52-5.91-1.39 -1.52-.86-2.6-2.12-2.6-3.62 0-1.51 1.07-2.77 2.59-3.62Z"/><path d="M11.74 1.57c.15-.1.33-.1.49-.02l6.5 3.5c.16.08.26.25.26.44 0 .18-.11.35-.27.44l-6.51 3.5c-.16.08-.35.07-.5-.02 -.16-.1-.25-.26-.25-.43v-7c0-.18.09-.34.24-.43Zm.75 1.26v5.32l4.94-2.67 -4.95-2.67Z"/><path d="M11.5 18V2h1v16h-1Z"/></g></svg>