<svg viewBox="0 0 24 24" xmlns="http://www.w3.org/2000/svg"><g fill-rule="evenodd"><path d="M4.25 5.25c0-.28.22-.5.5-.5h6c.27 0 .5.22.5.5v2.66l4.4 1.85 2.66.62c1.12.26 1.92 1.27 1.92 2.43v.91c0 1.38-1.12 2.5-2.5 2.5H8.48c-.1 0-.2-.03-.28-.09l-3.31-2.21c-.42-.28-.67-.75-.67-1.25V5.2Zm1 .5v6.96c0 .16.08.32.22.41l3.17 2.11h9.09c.82 0 1.5-.68 1.5-1.5v-.92c0-.7-.48-1.31-1.16-1.47l-2.71-.64c-.03-.01-.06-.02-.08-.03l-4.75-2c-.19-.08-.31-.26-.31-.47V5.7h-5Z"/><path d="M10.75 8.75h-6v-1h6v1Z"/><path d="M12.89 11.89l2-2.01 .7.7 -2 2 -.71-.71Z"/><path d="M10.39 10.39l2-2.01 .7.7 -2 2 -.71-.71Z"/><path d="M16.75 16.25h-3.5v-1h3.5c1.1 0 2 .89 2 2 0 1.1-.9 2-2 2H4.25v-1h12.5c.55 0 1-.45 1-1 0-.56-.45-1-1-1Z"/><path d="M13.75 18.75v-3h1v3h-1Z"/><path d="M7.75 18.75v-3h1v3h-1Z"/></g></svg>