<svg viewBox="0 0 24 24" xmlns="http://www.w3.org/2000/svg"><g fill-rule="evenodd"><path d="M12 10.5c-3.04 0-5.5 2.46-5.5 5.5 0 3.03 2.46 5.5 5.5 5.5 3.03 0 5.5-2.47 5.5-5.5 0-3.04-2.47-5.5-5.5-5.5ZM5.5 16c0-3.59 2.91-6.5 6.5-6.5 3.58 0 6.5 2.91 6.5 6.5 0 3.58-2.92 6.5-6.5 6.5 -3.59 0-6.5-2.92-6.5-6.5Z"/><path d="M5.07 1.73c.09-.15.25-.24.42-.24h4.5c.19 0 .37.11.45.29l3.5 8 -.92.4 -3.37-7.71H6.26l3.66 7.78 -.91.42 -4-8.5c-.08-.16-.07-.34.03-.49Z"/><path d="M18.41 1.72c-.1-.15-.25-.23-.42-.23h-4.5c-.2 0-.38.11-.46.29l-1.75 4 .91.4 1.61-3.71h3.4L14 9.76l.91.4 3.5-8c.06-.16.05-.34-.04-.48Z"/></g></svg>