<svg viewBox="0 0 24 24" xmlns="http://www.w3.org/2000/svg"><g fill-rule="evenodd"><path d="M18.58 7.83c.78-.79 2.04-.79 2.82 0 .78.78.78 2.04 0 2.82l-1.5 1.5c-.38.37-.89.58-1.42.58h-13c-.54 0-1.04-.22-1.42-.59l-1.5-1.5c-.79-.79-.79-2.05 0-2.83 .78-.79 2.04-.79 2.82 0l.91.91h11.34l.91-.92Zm2.12.7c-.4-.4-1.03-.4-1.42 0l-1.07 1.06c-.1.09-.23.14-.36.14H6.09c-.14 0-.26-.06-.36-.15L4.66 8.51c-.4-.4-1.03-.4-1.42 0 -.4.39-.4 1.02 0 1.41l1.5 1.49c.18.18.44.29.7.29h13c.26 0 .51-.11.7-.3l1.5-1.5c.39-.4.39-1.03 0-1.42Z"/><path d="M17.5 12.75c-.83 0-1.5.67-1.5 1.5 0 .82.67 1.5 1.5 1.5 .82 0 1.5-.68 1.5-1.5 0-.83-.68-1.5-1.5-1.5Zm-2.5 1.5c0-1.39 1.11-2.5 2.5-2.5 1.38 0 2.5 1.11 2.5 2.5 0 1.38-1.12 2.5-2.5 2.5 -1.39 0-2.5-1.12-2.5-2.5Z"/><path d="M6.5 12.75c-.83 0-1.5.67-1.5 1.5 0 .82.67 1.5 1.5 1.5 .82 0 1.5-.68 1.5-1.5 0-.83-.68-1.5-1.5-1.5ZM4 14.25c0-1.39 1.11-2.5 2.5-2.5 1.38 0 2.5 1.11 2.5 2.5 0 1.38-1.12 2.5-2.5 2.5 -1.39 0-2.5-1.12-2.5-2.5Z"/></g></svg>