<svg viewBox="0 0 24 24" xmlns="http://www.w3.org/2000/svg"><g fill-rule="evenodd"><path d="M6.49 2c0-.28.22-.5.5-.5h6.99c.27 0 .5.22.5.5v10.34c0 1.19-.48 2.33-1.32 3.18l-4.84 4.83c-1.57 1.56-4.1 1.56-5.66 0 -1.57-1.57-1.57-4.1-.001-5.66l3.81-3.82v-8.9Zm1 .5v8.6c0 .13-.06.25-.15.35l-3.97 3.96c-1.18 1.17-1.18 3.07 0 4.24 1.17 1.17 3.07 1.17 4.24 0l4.83-4.84c.65-.66 1.02-1.55 1.02-2.48V2.48h-6Z"/><path d="M20.49 2.5h-4v-1h4.49c.27 0 .5.22.5.5v10.34c0 1.19-.48 2.33-1.32 3.18l-4.84 4.83c-1.24 1.23-3.08 1.49-4.56.77l.43-.91c1.11.53 2.49.34 3.41-.59l4.83-4.84c.65-.66 1.02-1.55 1.02-2.48V2.45Z"/></g></svg>