<svg viewBox="0 0 24 24" xmlns="http://www.w3.org/2000/svg"><g fill-rule="evenodd"><path d="M3.12 6.8c-.45.41-.63.82-.63 1.19s.18.77.62 1.19c.44.42 1.11.82 1.98 1.17 1.73.69 4.17 1.13 6.88 1.13s5.14-.45 6.88-1.14c.86-.35 1.54-.75 1.98-1.18 .44-.42.62-.83.62-1.2 0-.38-.19-.78-.63-1.2 -.45-.43-1.12-.83-1.99-1.18 -1.74-.7-4.18-1.14-6.89-1.14 -2.72 0-5.15.44-6.89 1.13 -.87.34-1.55.74-1.99 1.17Zm1.61-2.1c1.88-.76 4.44-1.21 7.25-1.21 2.8 0 5.37.45 7.25 1.2 .93.37 1.73.83 2.3 1.37 .56.53.94 1.18.94 1.92 0 .73-.38 1.38-.95 1.92 -.57.53-1.37.99-2.31 1.37 -1.89.75-4.45 1.2-7.26 1.2 -2.81 0-5.38-.46-7.26-1.21 -.94-.38-1.74-.84-2.31-1.38 -.57-.54-.95-1.19-.95-1.93s.37-1.39.94-1.93c.56-.54 1.36-1 2.3-1.38Z"/><path d="M5.89 10.07c-.3.27-.4.52-.4.72h-1c0-.57.29-1.06.7-1.46 .41-.4.98-.73 1.65-1 1.33-.54 3.15-.86 5.13-.86s3.79.32 5.13.85c.66.26 1.24.59 1.65.99 .41.39.7.88.7 1.45h-1c0-.21-.11-.46-.4-.73 -.3-.28-.75-.55-1.35-.79 -1.2-.48-2.88-.79-4.77-.79 -1.89 0-3.57.3-4.77.78 -.6.23-1.05.51-1.35.78Z"/><path d="M2.5 8v8c0 .37.18.77.62 1.19 .44.42 1.11.82 1.98 1.17 1.73.69 4.17 1.13 6.88 1.13s5.14-.45 6.88-1.14c.86-.35 1.54-.75 1.98-1.18 .44-.42.62-.83.62-1.2v-8h1v8c0 .73-.38 1.38-.95 1.92 -.57.53-1.37.99-2.31 1.37 -1.89.75-4.45 1.2-7.26 1.2 -2.81 0-5.38-.46-7.26-1.21 -.94-.38-1.74-.84-2.31-1.38 -.57-.54-.95-1.19-.95-1.93v-8h1Z"/><path d="M8 15.5c0-.28.22-.5.5-.5h7c.27 0 .5.22.5.5v4h-1V16H9v3.5H8v-4Z"/><path d="M11.5 8V4h1v4h-1Z"/><path d="M20.35 6.35l-3 3 -.71-.71 3-3 .7.7Z"/><path d="M3.64 6.35l3 3 .7-.71 -3-3 -.71.7Z"/></g></svg>