<svg viewBox="0 0 24 24" xmlns="http://www.w3.org/2000/svg"><g fill-rule="evenodd"><path d="M17.88 1.57l-.39.32 -.39-.33c.09-.12.23-.18.38-.18 .14 0 .28.06.38.17Zm2.61 20.52l.49.04c-.03.25-.25.45-.5.45h-6c-.26 0-.48-.2-.5-.46l.49-.05c-.5.04-.5.05-.5.04l-.05-.44c-.03-.28-.07-.68-.12-1.17 -.1-.98-.22-2.29-.35-3.68 -.25-2.76-.51-5.84-.51-6.98 0-.93.27-1.91.66-2.84 .38-.95.9-1.87 1.41-2.68 .51-.81 1.01-1.52 1.4-2.02 .19-.26.35-.45.46-.59 .05-.07.1-.13.13-.16l.03-.05 0-.02 0-.01 0-.01c0-.01 0 0 .38.32 .38-.33.38-.33.38-.33l0 0 0 0 0 .01 .03.04c.03.03.07.09.13.15 .11.13.27.33.46.58 .38.49.89 1.2 1.4 2.01 .5.8 1.02 1.72 1.41 2.67 .38.93.66 1.91.66 2.83 0 1.13-.26 4.21-.51 6.97 -.13 1.38-.26 2.7-.35 3.67 -.05.48-.09.88-.12 1.16l-.05.43s0 0-.5-.05Zm-5.55-.5h5.09c.02-.28.06-.67.11-1.15 .09-.97.21-2.29.34-3.67 .25-2.79.49-5.81.49-6.89 0-.74-.23-1.59-.59-2.46 -.37-.88-.85-1.75-1.34-2.52 -.49-.78-.99-1.46-1.35-1.94 -.09-.11-.16-.21-.23-.3 -.07.08-.15.18-.23.29 -.37.48-.86 1.15-1.35 1.93 -.5.77-.98 1.64-1.34 2.51 -.37.87-.59 1.72-.59 2.45 0 1.08.24 4.1.49 6.88 .12 1.38.24 2.69.34 3.66 .04.47.08.86.11 1.14Z"/><path d="M18 13.14v8.76h-1v-8.77h1Z"/><path d="M6 16.64v5.26H5v-5.27h1Z"/><path d="M4.5 9.4c-.83 0-1.5.67-1.5 1.49v10.5h5v-9.5c0-.28.22-.5.5-.5H13v-2H4.5ZM2 10.89c0-1.39 1.11-2.5 2.5-2.5h9c.27 0 .5.22.5.5v2.99c0 .27-.23.5-.5.5H9v9.5c0 .27-.23.5-.5.5h-6c-.28 0-.5-.23-.5-.5v-11Z"/><path d="M5.5 2.4c-1.11 0-2 .89-2 2 0 1.1.89 2 2 2 1.1 0 2-.9 2-2 0-1.11-.9-2-2-2Zm-3 2c0-1.66 1.34-3 3-3 1.65 0 3 1.34 3 3 0 1.65-1.35 3-3 3 -1.66 0-3-1.35-3-3Z"/></g></svg>