<svg viewBox="0 0 24 24" xmlns="http://www.w3.org/2000/svg"><g fill-rule="evenodd"><path d="M14.5 8.5c-1.66 0-3 1.34-3 3 0 1.65 1.34 3 3 3 1.65 0 3-1.35 3-3 0-1.66-1.35-3-3-3Zm-4 3c0-2.21 1.79-4 4-4 2.2 0 4 1.79 4 4 0 2.2-1.8 4-4 4 -2.21 0-4-1.8-4-4Z"/><path d="M2.5 5c0-.28.22-.5.5-.5h12c.06 0 .12.01.17.03 3.54.34 6.32 3.33 6.32 6.96 0 3.86-3.14 7-7 7 -3.75 0-6.82-2.95-7-6.66L2.87 10.8c-.23-.06-.4-.26-.4-.49V4.97Zm12.36.5H3.49v4.43l4.6 1.02c.23.05.39.25.39.49l-.01.05c0 3.31 2.68 6 6 6 3.31 0 6-2.69 6-6 0-3.16-2.45-5.75-5.54-5.99 -.04-.01-.07-.01-.1-.02Z"/><path d="M20.2 5.52l-2 .92 -.42-.91 2-.93 .41.9Z"/></g></svg>