<svg viewBox="0 0 24 24" xmlns="http://www.w3.org/2000/svg"><g fill-rule="evenodd"><path d="M1 9c0-.56.44-1 1-1h8v2H3v11h18V10h-1V8h2c.55 0 1 .44 1 1v13c0 .55-.45 1-1 1H2c-.56 0-1-.45-1-1V9Z"/><path d="M4.5 14.446c0-1.032.83-1.87 1.86-1.87h1.63v2h-1.2l.86.57c.51.34.83.92.83 1.55 0 1.03-.84 1.86-1.87 1.86H4.97v-2h1.19l-.87-.58c-.52-.35-.84-.93-.84-1.56Z"/><path d="M5.5 19.57v-2h2v2h-2Z"/><path d="M5.5 13.57v-2h2v2h-2Z"/><path d="M18.37 1.28c-.98-.59-2.22-.23-2.76.75v0l-.51.9 .88.51 .01 0v0l2.59 1.55 0 0 .83.49 .52-.95v-.01c.53-.96.22-2.19-.73-2.77l-.87-.52Zm.09 5.97l-.89-.53 -.01-.01 -2.6-1.56 -.85-.49 -2.03 3.63c-.11.18-.15.39-.12.6l.29 2.57c.03.31.22.59.49.75 .27.15.61.17.9.04l2.29-1.02c.19-.09.36-.24.46-.43l1.99-3.59Z"/><path d="M19 16h-8v-2h8v2Z"/><path d="M15 19h-4v-2h4v2Z"/></g></svg>