<svg viewBox="0 0 24 24" xmlns="http://www.w3.org/2000/svg"><g fill-rule="evenodd"><path d="M5 1C3.34 1 2 2.34 2 4c0 1.65 1.34 3 3 3 1.65 0 3-1.35 3-3 0-1.66-1.35-3-3-3Zm11 15c0-1.66 1.34-3 3-3 1.65 0 3 1.34 3 3 0 1.65-1.35 3-3 3 -1.66 0-3-1.35-3-3Z"/><path d="M1.5 8.5C1.5 6.56 3.06 5 5 5c1.93 0 3.5 1.56 3.5 3.5V9c0 1.1-.9 2-2 2h-3c-1.11 0-2-.9-2-2v-.5ZM5 7c-.83 0-1.5.67-1.5 1.5V9h3v-.5C6.5 7.67 5.82 7 5 7Z"/><path d="M15.5 20.5c0-1.94 1.56-3.5 3.5-3.5 1.93 0 3.5 1.56 3.5 3.5v.5c0 1.1-.9 2-2 2h-3c-1.11 0-2-.9-2-2v-.5ZM19 19c-.83 0-1.5.67-1.5 1.5v.5h3v-.5c0-.83-.68-1.5-1.5-1.5Z"/><path d="M10 1c-.56 0-1 .44-1 1v6c0 .55.44 1 1 1h1v1c0 .37.21.72.55.89 .33.16.74.13 1.04-.1l2.4-1.8h7c.55 0 1-.45 1-1v-6c0-.56-.45-1-1-1h-12Zm5 13c0-.56-.45-1-1-1H2c-.56 0-1 .44-1 1v6c0 .55.44 1 1 1h7l2.4 1.8c.3.22.7.26 1.04.09 .33-.17.55-.52.55-.9v-1h1c.55 0 1-.45 1-1v-6Zm0-8h-2V4h2v2Zm-4 10v2H9v-2h2Zm8-10h-1V4h1v2ZM6 18H5v-2h1v2Z"/></g></svg>