<svg viewBox="0 0 24 24" xmlns="http://www.w3.org/2000/svg"><g fill-rule="evenodd"><path d="M12 1c-1.39 0-2.5 1.11-2.5 2.5C9.5 4.88 10.61 6 12 6c1.38 0 2.5-1.12 2.5-2.5C14.5 2.11 13.38 1 12 1ZM2.5 17c0-1.39 1.11-2.5 2.5-2.5 1.38 0 2.5 1.11 2.5 2.5 0 1.38-1.12 2.5-2.5 2.5 -1.39 0-2.5-1.12-2.5-2.5Zm14 0c0-1.39 1.11-2.5 2.5-2.5 1.38 0 2.5 1.11 2.5 2.5 0 1.38-1.12 2.5-2.5 2.5 -1.39 0-2.5-1.12-2.5-2.5Z"/><path d="M10.26 7.5h3.46c-.35-.6-1-1-1.74-1 -.75 0-1.39.4-1.74 1Zm-2.27 1c0-2.21 1.79-4 4-4 2.2 0 4 1.79 4 4 0 .55-.45 1-1 1h-6c-.56 0-1-.45-1-1Z"/><path d="M3.26 21h3.46c-.35-.6-1-1-1.74-1 -.75 0-1.39.4-1.74 1ZM.99 22c0-2.21 1.79-4 4-4 2.2 0 4 1.79 4 4 0 .55-.45 1-1 1h-6c-.56 0-1-.45-1-1Z"/><path d="M17.26 21h3.46c-.35-.6-1-1-1.74-1 -.75 0-1.39.4-1.74 1Zm-2.27 1c0-2.21 1.79-4 4-4 2.2 0 4 1.79 4 4 0 .55-.45 1-1 1h-6c-.56 0-1-.45-1-1Z"/><path d="M12 11c-1.66 0-3 1.34-3 3 0 1.65 1.34 3 3 3 1.65 0 3-1.35 3-3 0-1.66-1.35-3-3-3Z"/><path d="M13 8.5V12h-2V8.5h2Z"/><path d="M6.1 15.58l3.5-1.5 .78 1.83 -3.5 1.5 -.79-1.84Z"/><path d="M17.89 15.58l-3.5-1.5 -.79 1.83 3.5 1.5 .78-1.84Z"/></g></svg>