<svg viewBox="0 0 24 24" xmlns="http://www.w3.org/2000/svg"><path fill-rule="evenodd" d="M13.17 1.23c.22-.19.52-.27.82-.22 5.12.94 8.99 5.47 8.99 10.9 0 2.32-.72 4.49-1.94 6.27 -.17.24-.44.4-.74.43 -.3.02-.6-.08-.81-.3l-4.73-4.77c-.25-.26-.35-.62-.26-.97 .05-.22.08-.46.08-.7 0-.99-.54-1.86-1.33-2.32 -.31-.18-.5-.51-.5-.87V1.93c0-.3.13-.58.36-.77Zm-2 .76c0-.3-.14-.58-.37-.77 -.23-.19-.53-.27-.83-.22 -5.13.94-9 5.47-9 10.9 0 6.11 4.91 11.08 11 11.08 2.31 0 4.46-.73 6.23-1.96 .24-.17.39-.44.42-.74 .02-.3-.08-.59-.29-.8l-4.73-4.77c-.26-.26-.63-.36-.98-.27 -.22.05-.45.08-.69.08 -1.45 0-2.64-1.19-2.64-2.67 0-.99.53-1.86 1.32-2.32 .3-.18.49-.51.49-.87V1.91Z"/></svg>