<svg viewBox="0 0 24 24" xmlns="http://www.w3.org/2000/svg"><g fill-rule="evenodd"><path d="M13.45 2.17c1.6-.79 3.35.76 2.77 2.44l-1.28 3.7c-.14.4-.52.67-.95.67H9.98c-.44 0-.82-.28-.95-.69L7.79 4.58c-.57-1.7 1.19-3.22 2.79-2.43l1.39.69 1.44-.72Zm.88 1.79l-1.9.93c-.29.13-.61.13-.89-.01l-1.85-.93 1 3.02h2.56l1.04-3.04Z"/><path d="M16 9H8V7h8v2Z"/><path d="M8.84 8c.35-.63 1.01-1.01 1.73-1.01h2.83c.71 0 1.38.38 1.73 1l3.18 5.57c.43.75.65 1.61.65 2.48v1.93c0 2.76-2.24 5-5 5h-4c-2.77 0-5-2.24-5-5v-1.94c0-.88.22-1.73.65-2.49l3.18-5.58Zm2.15 4.2c-.6.31-1 .93-1 1.65 0 .62.31 1.2.83 1.55l.86.57h-1.2v2h.5v1h2v-1.22c.59-.32 1-.94 1-1.66 0-.63-.32-1.21-.84-1.56l-.87-.58h1.19v-2h-.5v-1h-2v1.21Z"/></g></svg>