<svg viewBox="0 0 24 24" xmlns="http://www.w3.org/2000/svg"><g fill-rule="evenodd"><path d="M12 8c0 .55.44 1 1 1h3c.55 0 1-.45 1-1V5c0-.56-.45-1-1-1h-3c-.56 0-1 .44-1 1v3Zm2-1V6h1v1h-1Z"/><path d="M15 8c0 .55.44 1 1 1h3c.55 0 1-.45 1-1V5c0-.56-.45-1-1-1h-3c-.56 0-1 .44-1 1v3Zm2-1V6h1v1h-1Z"/><path d="M12 14c0 .55.44 1 1 1h3c.55 0 1-.45 1-1v-3c0-.56-.45-1-1-1h-3c-.56 0-1 .44-1 1v3Zm2-1v-1h1v1h-1Z"/><path d="M15 14c0 .55.44 1 1 1h3c.55 0 1-.45 1-1v-3c0-.56-.45-1-1-1h-3c-.56 0-1 .44-1 1v3Zm2-1v-1h1v1h-1Z"/><path d="M9 2c0-.56.44-1 1-1h12c.55 0 1 .44 1 1v20c0 .55-.45 1-1 1H10c-.56 0-1-.45-1-1V2Zm2 1v18h10V3H11Z"/><path d="M14 23c-.56 0-1-.45-1-1v-5c0-.56.44-1 1-1h4c.55 0 1 .44 1 1v5c0 .55-.45 1-1 1h-4Z"/><path d="M2 10c-.56 0-1 .44-1 1v11c0 .55.44 1 1 1h8c.55 0 1-.45 1-1V11c0-.56-.45-1-1-1H2Zm3 5v-1h2v1H5Zm0 3v1h2v-1H5Z"/></g></svg>