<svg viewBox="0 0 24 24" xmlns="http://www.w3.org/2000/svg"><g fill-rule="evenodd"><path d="M12 4c-1.66 0-3 1.34-3 3 0 1.65 1.34 3 3 3 1.65 0 3-1.35 3-3 0-1.66-1.35-3-3-3Z"/><path d="M12 14c-1.66 0-3 1.34-3 3 0 1.65 1.34 3 3 3 1.65 0 3-1.35 3-3 0-1.66-1.35-3-3-3Z"/><path d="M9 11c0-1.66 1.34-3 3-3 1.65 0 3 1.34 3 3v1h-2v-1c0-.56-.45-1-1-1 -.56 0-1 .44-1 1v1H9v-1Z"/><path d="M9 21c0-1.66 1.34-3 3-3 1.65 0 3 1.34 3 3v1h-2v-1c0-.56-.45-1-1-1 -.56 0-1 .44-1 1v1H9v-1Z"/><path d="M5 4c0-1.66 1.34-3 3-3h8c1.65 0 3 1.34 3 3v16c0 1.65-1.35 3-3 3H8c-1.66 0-3-1.35-3-3V4Zm3-1c-.56 0-1 .44-1 1v16c0 .55.44 1 1 1h8c.55 0 1-.45 1-1V4c0-.56-.45-1-1-1H8Z"/><path d="M5 12c0-.56.44-1 1-1h12c.55 0 1 .44 1 1 0 .55-.45 1-1 1H6c-.56 0-1-.45-1-1Z"/></g></svg>