<svg viewBox="0 0 24 24" xmlns="http://www.w3.org/2000/svg"><g fill-rule="evenodd"><path d="M10 3c-3.87 0-7 3.13-7 7 0 3.86 3.13 7 7 7 3.86 0 7-3.14 7-7 0-3.87-3.14-7-7-7Zm-9 7c0-4.98 4.02-9 9-9 4.97 0 9 4.02 9 9 0 4.97-4.03 9-9 9 -4.98 0-9-4.03-9-9Z"/><path d="M21.29 22.7l-6-6 1.41-1.42 6 6 -1.42 1.41Z"/><path d="M9 7V4.08c-2.52.42-4.5 2.4-4.92 4.91h2.91v2H4.07c.42 2.51 2.4 4.49 4.91 4.917V12.99h1.99v2.917c2.51-.43 4.49-2.41 4.91-4.917h-2.92v-2h2.91c-.43-2.52-2.41-4.5-4.92-4.92v2.91h-2Z"/></g></svg>