<svg viewBox="0 0 24 24" xmlns="http://www.w3.org/2000/svg"><g fill-rule="evenodd"><path d="M1 6c0-1.66 1.34-3 3-3h16c1.65 0 3 1.34 3 3v2c0 .55-.45 1-1 1H2c-.56 0-1-.45-1-1V6Zm3-1c-.56 0-1 .44-1 1v1h18V6c0-.56-.45-1-1-1H4Z"/><path d="M11 5V2h2v3h-2Z"/><path d="M16 5V2h2v3h-2Z"/><path d="M6 5V2h2v3H6Z"/><path d="M2 7c-.56 0-1 .44-1 1v12c0 1.65 1.34 3 3 3h16c1.65 0 3-1.35 3-3V8c0-.56-.45-1-1-1H2Zm8.7 4.7l-3 3c-.4.39-1.03.39-1.42 0l-2-2 1.41-1.42 1.29 1.29 2.29-2.3 1.41 1.41Zm6 3l3-3 -1.42-1.42 -2.3 2.29 -1.3-1.3 -1.42 1.41 2 2c.39.39 1.02.39 1.41 0Zm3 2l-3 3c-.4.39-1.03.39-1.42 0l-2-2 1.41-1.42 1.29 1.29 2.29-2.3 1.41 1.41ZM4.99 18.99h5v-2h-5v2Z"/></g></svg>