<svg viewBox="0 0 24 24" xmlns="http://www.w3.org/2000/svg"><g fill-rule="evenodd"><path d="M1 9c0-.56.44-1 1-1h8c.55 0 1 .44 1 1v3H9v-2H3v11h6v-4h2v5c0 .55-.45 1-1 1H2c-.56 0-1-.45-1-1V9Z"/><path d="M13 9c0-.56.44-1 1-1h8c.55 0 1 .44 1 1v13c0 .55-.45 1-1 1h-8c-.56 0-1-.45-1-1v-5h2v4h6V10h-6v2h-2V9Z"/><path d="M14 1c-.56 0-1 .44-1 1v7c0 .55.44 1 1 1h5c.55 0 1-.45 1-1V2c0-.56-.45-1-1-1h-5Z"/><path d="M7.5 11c-.56 0-1 .44-1 1v5c0 .55.44 1 1 1h9c.55 0 1-.45 1-1v-5c0-.56-.45-1-1-1h-9Z"/><path d="M5 1c-.56 0-1 .44-1 1v7c0 .55.44 1 1 1h5c.55 0 1-.45 1-1V2c0-.56-.45-1-1-1H5Z"/></g></svg>