<svg viewBox="0 0 24 24" xmlns="http://www.w3.org/2000/svg"><g fill-rule="evenodd"><path d="M7 16v6H5v-6h2Z"/><path d="M6 1c-1.06 0-1.97.73-2.19 1.76l-2.8 13.02c-.07.29.01.6.2.83 .18.23.47.37.77.37h7.99c.3 0 .58-.14.77-.38 .18-.24.26-.55.2-.84L8.14 2.73C7.91 1.69 7 .96 5.95.96Z"/><path d="M16.83 9.44c-.19-.28-.5-.45-.84-.45 -.34 0-.65.16-.84.44l-6.01 9c-.11.16-.17.35-.17.55v3c0 .55.44 1 1 1h3c.34 0 .66-.18.84-.47l2.15-3.45 2.15 3.44c.18.29.5.47.84.47h3c.55 0 1-.45 1-1v-3c0-.2-.06-.4-.17-.56l-6-9Z"/></g></svg>