<svg viewBox="0 0 24 24" xmlns="http://www.w3.org/2000/svg"><g fill-rule="evenodd"><path d="M4 2c0-.56.44-1 1-1h14c.55 0 1 .44 1 1v14c0 1.65-1.35 3-3 3H7c-1.66 0-3-1.35-3-3V2Zm2 1v13c0 .55.44 1 1 1h10c.55 0 1-.45 1-1V3H6Z"/><path d="M4 15.5c-1.66 0-3-1.35-3-3v-4c0-.56.44-1 1-1h3c.55 0 1 .44 1 1v6c0 .55-.45 1-1 1H4Z"/><path d="M20 15.5c1.65 0 3-1.35 3-3v-4c0-.56-.45-1-1-1h-3c-.56 0-1 .44-1 1v6c0 .55.44 1 1 1h1Z"/><path d="M5 17c-1.11 0-2 .89-2 2v2c0 1.1.89 2 2 2h14c1.1 0 2-.9 2-2v-2c0-1.11-.9-2-2-2H5Zm2 3v-6h2v6H7Zm8 0v-6h2v6h-2Z"/><path d="M5 1c-.56 0-1 .44-1 1v5c0 1.65 1.34 3 3 3h10c1.65 0 3-1.35 3-3V2c0-.56-.45-1-1-1H5Zm6 10V6h2v5h-2Z"/></g></svg>