<svg viewBox="0 0 24 24" xmlns="http://www.w3.org/2000/svg"><g fill-rule="evenodd"><path d="M4 5c0-.56.44-1 1-1h14c.55 0 1 .44 1 1v12c0 .55-.45 1-1 1H5c-.56 0-1-.45-1-1V5Zm8 2c.28 0 .56.12.75.34l3.5 4c.15.18.24.41.24.65v2c0 .55-.45 1-1 1h-1.75c-.29 0-.57-.13-.76-.35l-1-1.14 -1 1.13c-.19.21-.47.34-.76.34H8.47c-.56 0-1-.45-1-1v-2c0-.25.08-.48.24-.66l3.49-4c.18-.22.46-.35.75-.35Z"/><path d="M10.5 16c-.56 0-1 .44-1 1v5c0 .55.44 1 1 1h3c.55 0 1-.45 1-1v-5c0-.56-.45-1-1-1h-3Z"/><path d="M10.5 1c-.56 0-1 .44-1 1v3c0 .55.44 1 1 1h3c.55 0 1-.45 1-1V2c0-.56-.45-1-1-1h-3Z"/></g></svg>