<svg viewBox="0 0 24 24" xmlns="http://www.w3.org/2000/svg"><g fill-rule="evenodd"><path d="M4 3.5c-.56 0-1 .44-1 1v5c0 .55.44 1 1 1h13c.23 0 .46-.09.64-.24l3-2.5c.22-.19.35-.48.35-.77 0-.3-.14-.58-.36-.77l-3-2.5c-.18-.15-.41-.24-.65-.24h-13Z"/><path d="M20 11.5c.55 0 1 .44 1 1v5c0 .55-.45 1-1 1H7c-.24 0-.47-.09-.65-.24l-3-2.5c-.23-.19-.36-.48-.36-.77 0-.3.13-.58.35-.77l3-2.5c.17-.15.4-.24.64-.24h13Z"/><path d="M10.5 16.5c-.56 0-1 .44-1 1V22c0 .55.44 1 1 1h3c.55 0 1-.45 1-1v-4.5c0-.56-.45-1-1-1h-3Z"/><path d="M10.5 1c-.56 0-1 .44-1 1v2.5c0 .55.44 1 1 1h3c.55 0 1-.45 1-1V2c0-.56-.45-1-1-1h-3Z"/><path d="M10.5 9c-.56 0-1 .44-1 1v2.5c0 .55.44 1 1 1h3c.55 0 1-.45 1-1V10c0-.56-.45-1-1-1h-3Z"/></g></svg>