<svg viewBox="0 0 24 24" xmlns="http://www.w3.org/2000/svg"><path fill-rule="evenodd" d="M1 12C1 5.92 5.92 1 12 1c.86 0 1.69.09 2.5.28v4.71c0 .55.44 1 1 1 .27 0 .5.22.5.5 0 .27-.23.5-.5.5 -.28 0-.5-.23-.5-.5h-2c0 1.38 1.11 2.5 2.5 2.5 1.38 0 2.5-1.12 2.5-2.5 0-1.03-.62-1.91-1.5-2.3V1.94C20.33 3.65 23 7.5 23 11.98c0 6.07-4.93 11-11 11 -6.08 0-11-4.93-11-11Zm15.77-1.31c-.89-.45-2.05-.7-3.28-.7s-2.39.24-3.28.69c-.22.1-.43.23-.64.38 -.14-.12-.28-.23-.42-.33 -.73-.49-1.68-.76-2.68-.76 -.56 0-1 .44-1 1v4c0 .55.44 1 1 1 .99 0 1.94-.27 2.67-.76 .14-.1.28-.21.41-.33 .2.15.42.28.63.38 .88.44 2.04.69 3.27.69 1.22 0 2.38-.25 3.27-.7 .83-.42 1.72-1.18 1.72-2.31 0-1.14-.9-1.9-1.73-2.31Z"/></svg>