<svg viewBox="0 0 24 24" xmlns="http://www.w3.org/2000/svg"><g fill-rule="evenodd"><path d="M23 6.5c0-.3-.14-.59-.37-.78 -.24-.19-.54-.266-.84-.21l-3.4.67c-1.41.28-2.42 1.51-2.42 2.94v6.72c0 1.43 1 2.66 2.41 2.94l3.39.67c.29.05.59-.02.83-.21 .23-.19.36-.48.36-.78v-12Z"/><path d="M1 10.5c0-1.66 1.34-3 3-3h13c.55 0 1 .44 1 1v8c0 .55-.45 1-1 1H4c-1.66 0-3-1.35-3-3v-4Zm3-1c-.56 0-1 .44-1 1v4c0 .55.44 1 1 1h12v-6H4Z"/><path d="M4 7.5c-1.66 0-3 1.34-3 3v2c0 .55.44 1 1 1h7.5c.41 0 .79-.26.93-.65l1.5-4c.11-.31.07-.66-.12-.93s-.5-.44-.83-.44h-7Z"/><path d="M12 4.5c-.56 0-1 .44-1 1v3c0 .55.44 1 1 1h3c.55 0 1-.45 1-1v-3c0-.56-.45-1-1-1h-3Z"/></g></svg>