<svg viewBox="0 0 24 24" xmlns="http://www.w3.org/2000/svg"><g fill-rule="evenodd"><path d="M9 13c-1.66 0-3 1.34-3 3v6c0 .55.44 1 1 1h10c.55 0 1-.45 1-1v-6c0-1.66-1.35-3-3-3H9Z"/><path d="M10 3C8.34 3 7 4.34 7 6v2c0 .55.44 1 1 1h8c.55 0 1-.45 1-1V6c0-1.66-1.35-3-3-3h-4Z"/><path d="M9.5 8c0-.56.44-1 1-1h3c.55 0 1 .44 1 1v6c0 .55-.45 1-1 1h-3c-.56 0-1-.45-1-1V8Zm2 1v4h1V9h-1Z"/><path d="M16.99 2c0-.56.44-1 1-1h4v2h-3v2c0 .37-.22.72-.56.89l-2 1 -.9-1.79 1.44-.73V1.98Z"/><path d="M7 2c0-.56-.45-1-1-1H2v2h3v2c0 .37.21.72.55.89l2 1 .89-1.79 -1.45-.73V1.98Z"/><path d="M18 12h-4.5v-2H18v2Z"/></g></svg>