<svg viewBox="0 0 24 24" xmlns="http://www.w3.org/2000/svg"><g fill-rule="evenodd"><path d="M4 6.5c-1.66 0-3 1.34-3 3 0 1.65 1.34 3 3 3h16c1.65 0 3-1.35 3-3 0-1.66-1.35-3-3-3H4Z"/><path d="M3 8.5c-.56 0-1-.45-1-1V4c0-1.66 1.34-3 3-3h14c1.65 0 3 1.34 3 3v3.5c0 .55-.45 1-1 1H3Z"/><path d="M2 11.5c0-.56.44-1 1-1h18c.55 0 1 .44 1 1V20c0 1.65-1.35 3-3 3H5c-1.66 0-3-1.35-3-3v-8.5Zm9 2.5v.76l-.67-.39 -1.01 1.73 .66.38 -.67.38 .99 1.73 .66-.39v.76h2v-.77l.66.38 1-1.74 -.67-.39 .66-.39 -1-1.74 -.67.38v-.77h-2Z"/></g></svg>