<svg viewBox="0 0 24 24" xmlns="http://www.w3.org/2000/svg"><path fill-rule="evenodd" d="M3.54 4.96C1.94 6.86.99 9.32.99 11.99c0 6.07 4.92 11 11 11 2.67 0 5.13-.96 7.03-2.55l-.75-.75 -1.83-1.83 -4.48-1.35 -4.72 1.41L6.66 16l1.8-.55 -1.81-.55 .57-1.92 4.71 1.41 .8-.25 -.23-.23c-.09 0-.17 0-.25 0 -2.1 0-3.69-1.8-3.54-3.8L4.2 5.6l-.75-.75Zm1.41-1.42l.74.74 3.63 3.63 0-.01c.1-.37.4-.65.77-.72 .37-.08.75.07.98.38l.29.38 1.05-2.39c.16-.38.53-.61.94-.6 .4.01.76.26.9.64l1.33 3.56c.56 1.49.04 3.05-1.06 3.96l.38.38 1.73-.53 .57 1.91 -.71.21 3.12 3.12 .74.74c1.59-1.91 2.54-4.37 2.54-7.04 0-6.08-4.93-11-11-11 -2.68 0-5.14.95-7.04 2.54Z"/></svg>