<svg viewBox="0 0 24 24" xmlns="http://www.w3.org/2000/svg"><path fill-rule="evenodd" d="M4.96 3.54C6.86 1.94 9.32.99 11.99.99c.86 0 1.69.09 2.5.28v4.71c0 .55.44 1 1 1 .27 0 .5.22.5.5 0 .27-.23.5-.5.5 -.28 0-.5-.23-.5-.5h-2c0 1.38 1.11 2.5 2.5 2.5 1.38 0 2.5-1.12 2.5-2.5 0-1.03-.62-1.91-1.5-2.3V1.93c3.83 1.71 6.5 5.56 6.5 10.04 0 2.67-.96 5.13-2.55 7.03l-.75-.75 -2.97-2.97 .03-.02c.83-.42 1.72-1.18 1.72-2.31 0-1.14-.9-1.9-1.73-2.31 -.89-.45-2.05-.7-3.28-.7 -.66 0-1.3.07-1.89.2L5.65 4.22l-.75-.75Zm4.21 11.69c.14-.1.28-.21.41-.33 .2.15.42.28.63.38 .88.44 2.04.69 3.27.69 .34 0 .69-.02 1.02-.06l3.766 3.766 .74.74c-1.91 1.59-4.37 2.54-7.04 2.54 -6.08 0-11-4.93-11-11 0-2.68.95-5.14 2.54-7.04l.74.74 5.33 5.33c-.02.01-.03.02-.05.03 -.14-.12-.28-.23-.42-.33 -.73-.49-1.68-.76-2.68-.76 -.56 0-1 .44-1 1v4c0 .55.44 1 1 1 .99 0 1.94-.27 2.67-.76Z"/></svg>