<svg viewBox="0 0 24 24" xmlns="http://www.w3.org/2000/svg"><g fill-rule="evenodd"><path d="M6 4c0-1.66 1.34-3 3-3h6c1.65 0 3 1.34 3 3v4c0 .55-.45 1-1 1h-3c.55 0 1-.45 1-1V6c0-1.11-.9-2-2-2h-2c-1.11 0-2 .89-2 2v2c0 .55.44 1 1 1H7c-.56 0-1-.45-1-1V4Z"/><path d="M6 8c0-.56.44-1 1-1h10c.55 0 1 .44 1 1v14c0 .55-.45 1-1 1H7c-.56 0-1-.45-1-1V8Zm2 1v12h8V9H8Z"/><path d="M17 7c.45 0 .85.3.96.74 .11.43-.08.89-.48 1.12l-7 3.99c-.44.25-1 .13-1.3-.27l-3-4c-.23-.31-.27-.71-.1-1.05 .16-.34.51-.56.89-.56h9.99Z"/></g></svg>