<svg viewBox="0 0 24 24" xmlns="http://www.w3.org/2000/svg"><g fill-rule="evenodd"><path d="M12 1c.33 0 .64.16.83.44l10 15c.1.16.16.35.16.55v5c0 .55-.45 1-1 1h-5c-.35 0-.67-.18-.85-.47l-4.16-6.65 -4.16 6.64c-.19.29-.51.47-.85.47h-5c-.56 0-1-.45-1-1v-5c0-.2.05-.4.16-.56l9.99-15c.18-.28.49-.45.83-.45ZM3 17.3v3.69h3.44l4.7-7.53c.18-.3.5-.47.84-.47 .34 0 .66.17.84.47l4.7 7.53h3.44v-3.7l-9-13.5 -9 13.5Z"/><path d="M7 13c-.56 0-1 .44-1 1v8c0 .44.29.83.72.96 .42.12.88-.06 1.12-.44l5-8c.19-.31.2-.7.02-1.02 -.18-.32-.52-.52-.88-.52h-5Z"/><path d="M17 13c.55 0 1 .44 1 1v8c0 .44-.3.83-.73.96 -.43.12-.89-.06-1.13-.44l-5-8c-.2-.31-.21-.7-.03-1.02 .17-.32.51-.52.87-.52h5Z"/></g></svg>