<svg viewBox="0 0 24 24" xmlns="http://www.w3.org/2000/svg"><g fill-rule="evenodd"><path d="M3.01 19h17.96c-.16-3.86-1.2-7.29-2.76-9.79 -1.71-2.73-3.94-4.22-6.23-4.22 -2.3 0-4.52 1.48-6.23 4.21 -1.57 2.49-2.61 5.92-2.76 9.78ZM4.07 8.15c1.91-3.07 4.68-5.16 7.91-5.16 3.23 0 6 2.09 7.91 5.15 1.92 3.07 3.08 7.26 3.08 11.84 0 .55-.45 1-1 1h-20c-.56 0-1-.45-1-1 0-4.58 1.15-8.77 3.08-11.85Z"/><path d="M12 9c.37 0 .72.21.89.55l5 10c.15.31.13.67-.05.97 -.19.29-.51.47-.86.47h-10c-.35 0-.67-.18-.86-.48 -.19-.3-.2-.67-.05-.98l5-10c.16-.34.51-.56.89-.56ZM8.61 19h6.76l-3.39-6.77 -3.39 6.76Z"/><path d="M7 9c-.56 0-1 .44-1 1v10c0 .46.31.86.77.97 .45.1.91-.12 1.12-.53l4.99-10c.15-.31.13-.68-.05-.98 -.19-.3-.51-.48-.86-.48h-5Z"/><path d="M17 9c.55 0 1 .44 1 1v10c0 .46-.32.86-.78.97 -.46.1-.92-.12-1.13-.53l-5-10c-.16-.31-.14-.68.04-.98 .18-.3.5-.48.85-.48h5Z"/></g></svg>