<svg viewBox="0 0 24 24" xmlns="http://www.w3.org/2000/svg"><g fill-rule="evenodd"><path d="M6 7c-.56 0-1 .44-1 1v14c0 .55.44 1 1 1h8c.55 0 1-.45 1-1V8c0-.56-.45-1-1-1H6Z"/><path d="M13 9c0-.56.44-1 1-1h1c1.65 0 3 1.34 3 3v7c0 1.65-1.35 3-3 3h-1c-.56 0-1-.45-1-1V9Zm2 1v9c.55 0 1-.45 1-1v-7c0-.56-.45-1-1-1Z"/><path d="M8.69 1C7.22 1 5.97 2.06 5.73 3.5L5 7.82c-.05.28.03.58.22.81 .19.22.46.35.76.35h7.99c.29 0 .57-.13.76-.36 .19-.23.27-.53.22-.82l-.73-4.33c-.25-1.45-1.5-2.51-2.96-2.51H8.64Z"/></g></svg>