<svg viewBox="0 0 24 24" xmlns="http://www.w3.org/2000/svg"><g fill-rule="evenodd"><path d="M2 5.5c-.56 0-1 .44-1 1v14c0 .55.44 1 1 1h8c.55 0 1-.45 1-1v-14c0-.56-.45-1-1-1H2Z"/><path d="M3 2.5c-.56 0-1 .44-1 1v3c0 .55.44 1 1 1h6c.55 0 1-.45 1-1v-3c0-.56-.45-1-1-1H3Z"/><path d="M18 19.5c0 .55.44 1 1 1h1c1.65 0 3-1.35 3-3 0-1.66-1.35-3-3-3h-1c-.56 0-1 .44-1 1v4Zm2-1v-2c.55 0 1 .44 1 1 0 .55-.45 1-1 1Z"/><path d="M15 21.5c-1.66 0-3-1.35-3-3v-3c0-.56.44-1 1-1h6c.55 0 1 .44 1 1v3c0 1.65-1.35 3-3 3h-2Z"/></g></svg>