<svg viewBox="0 0 24 24" xmlns="http://www.w3.org/2000/svg"><g fill-rule="evenodd"><path d="M1.34 3.74c.22-.19.51-.28.8-.24l8.51 1.27c.88.13 1.78.13 2.67 0l8.51-1.28c.28-.05.58.04.8.23 .22.18.34.46.34.75v12c0 .29-.13.56-.35.75 -.23.19-.52.27-.81.23l-8.52-1.28c-.89-.14-1.79-.14-2.68 0l-8.52 1.27c-.29.04-.59-.05-.81-.24 -.23-.19-.35-.47-.35-.76v-12c0-.3.12-.57.34-.76Zm1.65 1.91v9.67l7.36-1.11c1.08-.17 2.18-.17 3.26 0l7.36 1.1V5.63l-7.37 1.1c-1.09.16-2.19.16-3.27 0L2.96 5.62Z"/><path d="M11.83 18.51c.1-.02.22-.02.32 0l9 1.5 -.33 1.97 -8.84-1.48 -8.84 1.47 -.33-1.98 8.99-1.5Z"/><path d="M8.02 19.78l1-4.5 1.95.43 -.68 3.05 1.53-.26c.1-.02.22-.02.32 0l1.53.25 -.68-3.06 1.95-.44 1 4.5c.07.32-.03.66-.26.9s-.57.35-.9.29l-2.84-.48 -2.84.47c-.33.05-.67-.06-.9-.3 -.23-.25-.33-.59-.26-.91Z"/></g></svg>