<svg viewBox="0 0 24 24" xmlns="http://www.w3.org/2000/svg"><g fill-rule="evenodd"><path d="M1 2c0-.56.44-1 1-1h20c.55 0 1 .44 1 1v14c0 .55-.45 1-1 1H2c-.56 0-1-.45-1-1V2Zm2 1v12h18V3H3Z"/><path d="M3.5 6.5c0-.56.44-1 1-1h3v2h-2v1h-2v-2Zm15 1h-2v-2h3c.55 0 1 .44 1 1v2h-2v-1Zm-13 5v-1h-2v2c0 .55.44 1 1 1h3v-2h-2Zm13 0v-1h2v2c0 .55-.45 1-1 1h-3v-2h2Z"/><path d="M13 5h-2V3h2v2Z"/><path d="M17.5 5h-2V3h2v2Z"/><path d="M8.5 5h-2V3h2v2Z"/><path d="M7.4 18.2c.17-.13.38-.2.6-.2h8.5c1.38 0 2.5 1.11 2.5 2.5 0 1.38-1.12 2.5-2.5 2.5H8c-.22 0-.43-.08-.6-.2l-2-1.5c-.26-.19-.4-.49-.4-.8 0-.32.14-.62.4-.8l2-1.5Zm.93 1.8l-.67.5 .66.5h8.16c.27 0 .5-.23.5-.5 0-.28-.23-.5-.5-.5H8.31Z"/></g></svg>