<svg viewBox="0 0 24 24" xmlns="http://www.w3.org/2000/svg"><g fill-rule="evenodd"><path d="M3 5c0-2.21 1.79-4 4-4h10c2.2 0 4 1.79 4 4v14c0 2.2-1.8 4-4 4H7c-2.21 0-4-1.8-4-4V5Zm4-2c-1.11 0-2 .89-2 2v14c0 1.1.89 2 2 2h10c1.1 0 2-.9 2-2V5c0-1.11-.9-2-2-2H7Z"/><path d="M13 4.5c0-.56.44-1 1-1h1.5c1.65 0 3 1.34 3 3v4c0 .37-.21.71-.55.88 -.34.17-.74.14-1.04-.08l-3.5-2.5c-.27-.19-.42-.5-.42-.82v-3.5Zm2 1v1.98l1.5 1.07V6.49c0-.56-.45-1-1-1H15Z"/><path d="M6 14.5c0-.56.44-1 1-1h8c1.65 0 3 1.34 3 3v2c0 .55-.45 1-1 1H9c-1.66 0-3-1.35-3-3v-2Zm2 1v1c0 .55.44 1 1 1h7v-1c0-.56-.45-1-1-1H8Z"/></g></svg>