<svg viewBox="0 0 24 24" xmlns="http://www.w3.org/2000/svg"><g fill-rule="evenodd"><path d="M3.5 7c0-.56.44-1 1-1H22c.55 0 1 .44 1 1v10c0 .55-.45 1-1 1H4.5c-.56 0-1-.45-1-1V7Zm2 1v8H21V8H5.5Z"/><path d="M6 17c0-.56.44-1 1-1h4c.55 0 1 .44 1 1v3c0 .55-.45 1-1 1H7c-.56 0-1-.45-1-1v-3Zm2 1v1h2v-1H8Z"/><path d="M12.5 17c0-.56.44-1 1-1H21c.55 0 1 .44 1 1v3c0 .55-.45 1-1 1h-7.5c-.56 0-1-.45-1-1v-3Zm2 1v1H20v-1h-5.5Z"/><path d="M2 3h2.5c.55 0 1 .44 1 1v16h-2V5H2V3Z"/><path d="M9.5 10.5c-.83 0-1.5.67-1.5 1.5 0 .82.67 1.5 1.5 1.5 .82 0 1.5-.68 1.5-1.5 0-.83-.68-1.5-1.5-1.5ZM6 12c0-1.94 1.56-3.5 3.5-3.5 1.93 0 3.5 1.56 3.5 3.5 0 1.93-1.57 3.5-3.5 3.5C7.56 15.5 6 13.93 6 12Z"/><path d="M17 10.5c-.83 0-1.5.67-1.5 1.5 0 .82.67 1.5 1.5 1.5 .82 0 1.5-.68 1.5-1.5 0-.83-.68-1.5-1.5-1.5ZM13.5 12c0-1.94 1.56-3.5 3.5-3.5 1.93 0 3.5 1.56 3.5 3.5 0 1.93-1.57 3.5-3.5 3.5 -1.94 0-3.5-1.57-3.5-3.5Z"/></g></svg>