<svg viewBox="0 0 24 24" xmlns="http://www.w3.org/2000/svg"><g fill-rule="evenodd"><path d="M1 6c0-.56.44-1 1-1h20c.55 0 1 .44 1 1v8c0 .55-.45 1-1 1H2c-.56 0-1-.45-1-1V6Zm2 1v6h18V7H3Z"/><path d="M9.2 13.4c.18-.26.48-.4.79-.4h4c.31 0 .61.14.8.4l3 4c.22.3.26.7.09 1.04 -.17.33-.52.55-.9.55h-10c-.38 0-.73-.22-.9-.56 -.17-.34-.14-.75.09-1.05l3-4Zm1.29 1.6l-1.5 2h5.99l-1.5-2h-3Z"/><path d="M5.5 9.5c-.28 0-.5.22-.5.5 0 .27.22.5.5.5 .27 0 .5-.23.5-.5 0-.28-.23-.5-.5-.5ZM3 10c0-1.39 1.11-2.5 2.5-2.5C6.88 7.5 8 8.61 8 10c0 1.38-1.12 2.5-2.5 2.5C4.11 12.5 3 11.38 3 10Z"/><path d="M12 9.5c-.28 0-.5.22-.5.5 0 .27.22.5.5.5 .27 0 .5-.23.5-.5 0-.28-.23-.5-.5-.5Zm-2.5.5c0-1.39 1.11-2.5 2.5-2.5 1.38 0 2.5 1.11 2.5 2.5 0 1.38-1.12 2.5-2.5 2.5 -1.39 0-2.5-1.12-2.5-2.5Z"/><path d="M17 9.5c-.28 0-.5.22-.5.5 0 .27.22.5.5.5 .27 0 .5-.23.5-.5 0-.28-.23-.5-.5-.5Zm-2.5.5c0-1.39 1.11-2.5 2.5-2.5 1.38 0 2.5 1.11 2.5 2.5 0 1.38-1.12 2.5-2.5 2.5 -1.39 0-2.5-1.12-2.5-2.5Z"/></g></svg>