<svg viewBox="0 0 24 24" xmlns="http://www.w3.org/2000/svg"><g fill-rule="evenodd"><path d="M1 5c0-.56.44-1 1-1h20c.55 0 1 .44 1 1v16c0 .55-.45 1-1 1H2c-.56 0-1-.45-1-1V5Zm2 1v14h18V6H3Z"/><path d="M1 5c0-.56.44-1 1-1h20c.55 0 1 .44 1 1v5c0 .55-.45 1-1 1H2c-.56 0-1-.45-1-1V5Zm2 1v3h18V6H3Z"/><path d="M6 3v3.5H4V3h2Z"/><path d="M13 3v3.5h-2V3h2Z"/><path d="M20 3v3.5h-2V3h2Z"/><path d="M11 13.5H9v-2h2c1.1 0 2 .89 2 2v2c0 .55-.45 1-1 1H9v-2h2v-1Z"/><path d="M11 16.5H9v-2h3c.55 0 1 .44 1 1v2c0 1.1-.9 2-2 2H9v-2h2v-1Z"/><path d="M14 18.5v-6h2v6h-2Z"/></g></svg>