<svg viewBox="0 0 24 24" xmlns="http://www.w3.org/2000/svg"><g fill-rule="evenodd"><path d="M1 4c0-.56.44-1 1-1h20c.55 0 1 .44 1 1v18c0 .55-.45 1-1 1H2c-.56 0-1-.45-1-1V4Zm2 1v16h18V5H3Z"/><path d="M1 4c0-.56.44-1 1-1h20c.55 0 1 .44 1 1v5c0 .55-.45 1-1 1H2c-.56 0-1-.45-1-1V4Zm2 1v3h18V5H3Z"/><path d="M6 2v3.5H4V2h2Z"/><path d="M13 2v3.5h-2V2h2Z"/><path d="M20 2v3.5h-2V2h2Z"/><path d="M7.5 14h-2v-2h2v2Z"/><path d="M7.5 18h-2v-2h2v2Z"/><path d="M13 14h-2v-2h2v2Z"/><path d="M13 18h-2v-2h2v2Z"/><path d="M18.5 14h-2v-2h2v2Z"/><path d="M18.5 18h-2v-2h2v2Z"/></g></svg>