<svg viewBox="0 0 24 24" xmlns="http://www.w3.org/2000/svg"><g fill-rule="evenodd"><path d="M3 4.5h2.5c.22 0 .42.15.48.37l.49 1.99 1.9 7.12h9.23l1.9-7.13 .96.25 -2 7.49c-.06.21-.26.37-.49.37h-10c-.23 0-.43-.16-.49-.38L5.47 7.07l-.41-1.63H2.95v-1Z"/><path d="M8.5 17.5c-.56 0-1 .44-1 1 0 .55.44 1 1 1 .55 0 1-.45 1-1 0-.56-.45-1-1-1Zm-2 1c0-1.11.89-2 2-2 1.1 0 2 .89 2 2 0 1.1-.9 2-2 2 -1.11 0-2-.9-2-2Z"/><path d="M17.5 17.5c-.56 0-1 .44-1 1 0 .55.44 1 1 1 .55 0 1-.45 1-1 0-.56-.45-1-1-1Zm-2 1c0-1.11.89-2 2-2 1.1 0 2 .89 2 2 0 1.1-.9 2-2 2 -1.11 0-2-.9-2-2Z"/><path d="M12.5 10V2h1v8h-1Z"/><path d="M13 9.29l-2.65-2.65 -.71.7 3 3c.19.19.51.19.7 0l3-3.01 -.71-.71 -2.65 2.64Z"/></g></svg>