<svg viewBox="0 0 24 24" xmlns="http://www.w3.org/2000/svg"><g fill-rule="evenodd"><path d="M7.3 9.33c-.2-1.5.96-2.84 2.47-2.84h4.43c1.51 0 2.67 1.33 2.47 2.83l-.69 5.16 .84 6.3c.11.89-.58 1.69-1.49 1.69H8.61c-.91 0-1.61-.8-1.49-1.7l.84-6.31 -.69-5.17Zm2.47-1.84c-.91 0-1.61.79-1.49 1.69l.69 5.23c0 .04 0 .08 0 .13l-.85 6.36c-.04.29.19.56.49.56h6.71c.3 0 .53-.27.49-.57l-.85-6.37c-.01-.05-.01-.09 0-.14l.69-5.24c.11-.9-.58-1.7-1.49-1.7H9.72Z"/><path d="M10 3.5c0-1.11.89-2 2-2 1.1 0 2 .89 2 2v.86l1.42 2.38c.09.15.09.34 0 .5 -.09.15-.26.25-.44.25h-6c-.19 0-.35-.1-.44-.26 -.09-.16-.09-.35 0-.51l1.42-2.39v-.87Zm2-1c-.56 0-1 .44-1 1v1c0 .09-.03.17-.08.25L9.87 6.49h4.23l-1.05-1.75c-.05-.08-.08-.17-.08-.26v-1c0-.56-.45-1-1-1Z"/></g></svg>