<svg viewBox="0 0 24 24" xmlns="http://www.w3.org/2000/svg"><g fill-rule="evenodd"><path d="M12 2.5C8.97 2.5 6.5 5 6.5 8.125c0 1.57.63 3.44 1.66 4.91 1.04 1.48 2.4 2.45 3.83 2.45 1.42 0 2.79-.98 3.83-2.46 1.03-1.48 1.66-3.35 1.66-4.92 0-3.12-2.48-5.63-5.5-5.63ZM5.5 8.125c0-3.65 2.9-6.63 6.5-6.63 3.59 0 6.5 2.97 6.5 6.62 0 1.8-.72 3.87-1.85 5.49 -1.13 1.6-2.77 2.88-4.66 2.88 -1.9 0-3.53-1.28-4.66-2.89 -1.14-1.62-1.85-3.69-1.85-5.5Z"/><path d="M11.75 15.56c.15-.09.34-.09.5 0l2.5 1.5 -.52.85 -1.75-1.05v5.11h-1v-6c0-.19.09-.35.25-.44Z"/></g></svg>