<svg viewBox="0 0 24 24" xmlns="http://www.w3.org/2000/svg"><g fill-rule="evenodd"><path d="M3 14.96c.01-.27.23-.47.49-.47h6c.26 0 .48.2.49.46l.49 7c0 .13-.04.27-.14.37 -.1.1-.23.15-.37.15h-7c-.14 0-.28-.06-.37-.16 -.1-.11-.15-.24-.14-.38l.5-7Zm.96.53l-.43 6h5.92l-.43-6H3.95Z"/><path d="M4 14c0-1.39 1.11-2.5 2.5-2.5C7.88 11.5 9 12.61 9 14v1c0 .27-.23.5-.5.5h-4c-.28 0-.5-.23-.5-.5v-1Zm2.5-1.5c-.83 0-1.5.67-1.5 1.5v.5h3V14c0-.83-.68-1.5-1.5-1.5Z"/><path d="M16 5.87c0-.76.61-1.38 1.37-1.38h3.12v1h-3.13c-.21 0-.38.16-.38.37 0 .15.1.3.25.35l1.8.6c.56.18.93.71.93 1.3 0 .75-.62 1.37-1.38 1.37h-3.13v-1h3.12c.2 0 .37-.17.37-.38 0-.16-.11-.31-.26-.36l-1.81-.61c-.57-.19-.94-.72-.94-1.31Z"/><path d="M17.5 11V9h1v2h-1Z"/><path d="M17.5 5V3h1v2h-1Z"/><path d="M10 5c-3.59 0-6.5 2.91-6.5 6.5h-1C2.5 7.35 5.85 4 10 4v1Z"/><path d="M8.92 1.74l1.5 2.5c.09.15.09.35 0 .51l-1.51 2.5 -.86-.52 1.34-2.25 -1.35-2.25 .85-.52Z"/><path d="M13 19c3.58 0 6.5-2.92 6.5-6.5h1c0 4.14-3.36 7.5-7.5 7.5v-1Z"/><path d="M14.07 22.25l-1.5-2.5c-.1-.16-.1-.36 0-.52l1.5-2.5 .85.51 -1.35 2.24 1.34 2.24 -.86.51Z"/></g></svg>