<svg viewBox="0 0 24 24" xmlns="http://www.w3.org/2000/svg"><g fill-rule="evenodd"><path d="M6.64 22.35c-.1-.1-.15-.23-.15-.36V4.49c0-.28.22-.5.5-.5h10c.27 0 .5.22.5.5v17.5c0 .27-.23.5-.5.5h-10c-.14 0-.26-.06-.36-.15Zm.85-.86h9V4.99h-9v16.5Z"/><path d="M9.64 4.85c-.1-.1-.15-.23-.15-.36v-2.5c0-.28.22-.5.5-.5h4c.27 0 .5.22.5.5v2.5c0 .27-.23.5-.5.5h-4c-.14 0-.26-.06-.36-.15Zm.85-.86h3v-1.5h-3v1.5Z"/><path d="M13.5 19h-3v-1h3v1Z"/><path d="M14 9.5h-4v-1h4v1Z"/><path d="M12.5 7v4h-1V7h1Z"/></g></svg>