<svg viewBox="0 0 24 24" xmlns="http://www.w3.org/2000/svg"><g fill-rule="evenodd"><path d="M4 2c0-.28.22-.5.5-.5h7c.27 0 .5.22.5.5v7.66c0 2.66 2.16 4.83 4.83 4.83 1.74 0 3.16 1.41 3.16 3.16v1.83c0 .27-.23.5-.5.5h-15c-.28 0-.5-.23-.5-.5V1.98Zm1 .5V19h14v-1.34c0-1.2-.97-2.17-2.17-2.17 -3.23 0-5.84-2.62-5.84-5.84V2.48h-6Z"/><path d="M4 19.5c0-.28.22-.5.5-.5H8c.27 0 .5.22.5.5V22c0 .27-.23.5-.5.5H4.5c-.28 0-.5-.23-.5-.5v-2.5Zm1 .5v1.5h2.5V20H5Z"/><path d="M8.54 19.28c.08-.18.25-.29.45-.29h10.5c.27 0 .5.22.5.5v2.5c0 .27-.23.5-.5.5h-8.5c-.16 0-.3-.07-.4-.19l-2.01-2.5c-.13-.15-.15-.36-.07-.53Zm1.49.71l1.2 1.5h7.75v-1.5h-8.96Z"/></g></svg>