<svg viewBox="0 0 24 24" xmlns="http://www.w3.org/2000/svg"><g fill-rule="evenodd"><path d="M7.65 5.65c1.03-1.04 2.52-1.66 4.34-1.66v-1c-2.05 0-3.81.7-5.06 1.94 -1.25 1.24-1.95 3-1.95 5.05h1c0-1.82.61-3.31 1.65-4.35Z"/><path d="M3.2 8.89l2 1.5c.16.12.38.13.55.02l2.5-1.5 -.52-.86 -2.22 1.32 -1.74-1.3 -.6.8Z"/><path d="M5.5 13.96c.01-.27.23-.47.49-.47h6c.26 0 .48.2.49.46l.5 7c0 .13-.04.27-.14.37 -.1.1-.23.15-.37.15h-7c-.14 0-.28-.06-.37-.16 -.1-.11-.15-.24-.14-.38l.5-7Zm.96.53l-.43 6h5.92l-.43-6H6.45Z"/><path d="M6.5 13c0-1.39 1.11-2.5 2.5-2.5 1.38 0 2.5 1.11 2.5 2.5v1c0 .27-.23.5-.5.5H7c-.28 0-.5-.23-.5-.5v-1ZM9 11.5c-.83 0-1.5.67-1.5 1.5v.5h3V13c0-.83-.68-1.5-1.5-1.5Z"/><path d="M15 5.87c0-.76.61-1.38 1.37-1.38h3.12v1h-3.13c-.21 0-.38.16-.38.37 0 .15.1.3.25.35l1.8.6c.56.18.93.71.93 1.3 0 .75-.62 1.37-1.38 1.37h-3.13v-1h3.12c.2 0 .37-.17.37-.38 0-.16-.11-.31-.26-.36l-1.81-.61c-.57-.19-.94-.72-.94-1.31Z"/><path d="M16.5 11V9h1v2h-1Z"/><path d="M16.5 5V3h1v2h-1Z"/></g></svg>