<svg viewBox="0 0 24 24" xmlns="http://www.w3.org/2000/svg"><g fill-rule="evenodd"><path d="M4 9c0-.83.67-1.5 1.5-1.5h13c.82 0 1.5.67 1.5 1.5v10c0 .82-.68 1.5-1.5 1.5h-13c-.83 0-1.5-.68-1.5-1.5V9Zm1.5-.5c-.28 0-.5.22-.5.5v10c0 .27.22.5.5.5h13c.27 0 .5-.23.5-.5V9c0-.28-.23-.5-.5-.5h-13Z"/><path d="M4.56 9.03c-.43-.67.05-1.54.84-1.54h13.17c.78 0 1.26.87.84 1.53l-1.94 3.04c-.77 1.19-2.08 1.91-3.5 1.91v-1c1.07 0 2.07-.55 2.65-1.46l1.93-3.05H5.37v0L7.3 11.5c.57.9 1.57 1.45 2.65 1.45v1c-1.42 0-2.74-.73-3.5-1.92L4.51 8.98Z"/><path d="M9.5 11c0-.28.22-.5.5-.5h4c.27 0 .5.22.5.5v5c0 .27-.23.5-.5.5h-4c-.28 0-.5-.23-.5-.5v-5Zm1 .5v4h3v-4h-3Z"/><path d="M1.5 13c0-1.39 1.11-2.5 2.5-2.5h.5c.27 0 .5.22.5.5v5c0 .27-.23.5-.5.5H4c-1.39 0-2.5-1.12-2.5-2.5v-1ZM4 11.5c-.83 0-1.5.67-1.5 1.5v1c0 .82.67 1.5 1.5 1.5v-4Z"/><path d="M19 11c0-.28.22-.5.5-.5h.5c1.38 0 2.5 1.11 2.5 2.5v1c0 1.38-1.12 2.5-2.5 2.5h-.5c-.28 0-.5-.23-.5-.5v-5Zm1 .5v4c.82 0 1.5-.68 1.5-1.5v-1c0-.83-.68-1.5-1.5-1.5Z"/><path d="M7 6.5C7 5.11 8.11 4 9.5 4h5C15.88 4 17 5.11 17 6.5V8c0 .27-.23.5-.5.5h-9c-.28 0-.5-.23-.5-.5V6.5ZM9.5 5C8.67 5 8 5.67 8 6.5v1h8v-1c0-.83-.68-1.5-1.5-1.5h-5Z"/></g></svg>