<svg viewBox="0 0 24 24" xmlns="http://www.w3.org/2000/svg"><g fill-rule="evenodd"><path d="M10.23 4.5c-.57 0-1.09.32-1.35.82l-.4.78c-.43.84-1.29 1.38-2.24 1.38H4.97c-.83 0-1.5.67-1.5 1.5v9c0 .82.67 1.5 1.5 1.5h14c.82 0 1.5-.68 1.5-1.5v-9c0-.83-.68-1.5-1.5-1.5H17.7c-.95 0-1.82-.54-2.24-1.39l-.4-.79c-.26-.51-.78-.83-1.35-.83h-3.53Zm-2.24.38c.42-.85 1.28-1.39 2.23-1.39h3.52c.94 0 1.81.53 2.23 1.38l.39.78c.25.5.77.82 1.34.82h1.26c1.38 0 2.5 1.11 2.5 2.5v9c0 1.38-1.12 2.5-2.5 2.5h-14c-1.39 0-2.5-1.12-2.5-2.5v-9c0-1.39 1.11-2.5 2.5-2.5h1.26c.56 0 1.08-.33 1.34-.83l.39-.79Z"/><path d="M8.5 7.91c.04-.24.25-.42.49-.42h5c.15 0 .3.07.39.19 .09.12.12.28.08.43l-.82 2.86h2.33c.19 0 .37.11.45.28 .08.17.05.38-.07.53l-5 6c-.14.16-.36.22-.56.15 -.2-.08-.33-.26-.33-.48v-3.5h-2.5c-.15 0-.29-.07-.39-.18 -.1-.12-.14-.27-.11-.41l1-5.51Zm.9.58l-.82 4.5h2.4c.27 0 .5.22.5.5v2.61l3.43-4.119h-1.94c-.16 0-.31-.08-.4-.2 -.1-.13-.13-.29-.09-.44l.81-2.87H9.37Z"/></g></svg>