<svg viewBox="0 0 24 24" xmlns="http://www.w3.org/2000/svg"><g fill-rule="evenodd"><path d="M4.96 4.2c-.35.3-.47.57-.47.79 0 .21.11.48.46.79 .34.3.86.6 1.55.85 1.37.51 3.31.84 5.48.84 2.16 0 4.1-.33 5.48-.85 .69-.26 1.21-.56 1.55-.86 .34-.31.46-.58.46-.8 0-.22-.12-.49-.47-.8 -.35-.31-.87-.61-1.56-.86 -1.38-.52-3.32-.85-5.49-.85 -2.17 0-4.11.32-5.49.84 -.7.25-1.22.55-1.56.85Zm1.2-1.8c1.51-.57 3.57-.92 5.83-.92 2.25 0 4.31.34 5.83.91 .75.28 1.4.63 1.87 1.04 .46.41.79.93.79 1.54 0 .6-.34 1.12-.8 1.54 -.47.41-1.12.76-1.88 1.04 -1.52.56-3.58.91-5.84.91s-4.32-.35-5.84-.92c-.76-.29-1.41-.64-1.88-1.05 -.47-.42-.8-.94-.8-1.55 0-.61.33-1.13.79-1.55 .46-.42 1.11-.77 1.87-1.05Z"/><path d="M4.5 5v14c0 .21.11.48.46.79 .34.3.86.6 1.55.85 1.37.51 3.31.84 5.48.84 2.16 0 4.1-.33 5.48-.85 .69-.26 1.21-.56 1.55-.86 .34-.31.46-.58.46-.8v-14h1v14c0 .6-.34 1.12-.8 1.54 -.47.41-1.12.76-1.88 1.04 -1.52.56-3.58.91-5.84.91s-4.32-.35-5.84-.92c-.76-.29-1.41-.64-1.88-1.05 -.47-.42-.8-.94-.8-1.55v-14h1Z"/><path d="M13.01 12c-.41 0-.78.24-.93.62l-.15.36c-.36.88-1.07 1.59-1.95 1.94l-.37.14c-.38.15-.63.51-.63.92v.18c0 .62.56 1.09 1.17.98l1.68-.31c1.02-.19 1.82-.99 2.01-2.02l.3-1.69c.11-.62-.36-1.18-.99-1.18h-.19Zm-1.86.25c.3-.76 1.03-1.26 1.85-1.26h.18c1.24 0 2.19 1.13 1.96 2.35l-.31 1.68c-.27 1.43-1.39 2.55-2.82 2.81l-1.69.3c-1.23.22-2.36-.72-2.36-1.97v-.19c0-.82.49-1.56 1.25-1.86l.36-.15c.63-.26 1.13-.76 1.39-1.4l.14-.37Z"/></g></svg>