<svg viewBox="0 0 24 24" xmlns="http://www.w3.org/2000/svg"><g fill-rule="evenodd"><path d="M1.5 3c0-.28.22-.5.5-.5h14.5c.27 0 .5.22.5.5v18c0 .27-.23.5-.5.5H2c-.28 0-.5-.23-.5-.5V3Zm1 .5v17H16v-17H2.5Z"/><path d="M16 3c0-.28.22-.5.5-.5H22c.27 0 .5.22.5.5v18c0 .27-.23.5-.5.5h-5.5c-.28 0-.5-.23-.5-.5V3Zm1 .5v17h4.5v-17H17Z"/><path d="M6 6.5c-.83 0-1.5.67-1.5 1.5 0 .82.67 1.5 1.5 1.5 .82 0 1.5-.68 1.5-1.5 0-.83-.68-1.5-1.5-1.5ZM3.5 8c0-1.39 1.11-2.5 2.5-2.5 1.38 0 2.5 1.11 2.5 2.5 0 1.38-1.12 2.5-2.5 2.5 -1.39 0-2.5-1.12-2.5-2.5Z"/><path d="M12.5 6.5c-.83 0-1.5.67-1.5 1.5 0 .82.67 1.5 1.5 1.5 .82 0 1.5-.68 1.5-1.5 0-.83-.68-1.5-1.5-1.5ZM10 8c0-1.39 1.11-2.5 2.5-2.5C13.88 5.5 15 6.61 15 8c0 1.38-1.12 2.5-2.5 2.5 -1.39 0-2.5-1.12-2.5-2.5Z"/><path d="M19.5 16v2h-1v-2h1Z"/><path d="M19.5 11.5v2h-1v-2h1Z"/><path d="M14 14.5H5v-1h9v1Z"/><path d="M14 17.5H5v-1h9v1Z"/></g></svg>