<svg viewBox="0 0 24 24" xmlns="http://www.w3.org/2000/svg"><g fill-rule="evenodd"><path d="M3.5 2c0-.28.22-.5.5-.5h14c.27 0 .5.22.5.5v20c0 .27-.23.5-.5.5H4c-.28 0-.5-.23-.5-.5V2Zm1 .5v19h13v-19h-13Z"/><path d="M11 5.5c-2.21 0-4 1.79-4 4 0 2.2 1.79 4 4 4 2.2 0 4-1.8 4-4 0-2.21-1.8-4-4-4Zm-5 4c0-2.77 2.23-5 5-5 2.76 0 5 2.23 5 5 0 2.76-2.24 5-5 5 -2.77 0-5-2.24-5-5Z"/><path d="M6.6 14.693l3.5-4.5 .78.61 -3.5 4.5 -.79-.62Z"/><path d="M14 17c-.56 0-1 .44-1 1 0 .55.44 1 1 1 .55 0 1-.45 1-1 0-.56-.45-1-1-1Zm-2 1c0-1.11.89-2 2-2 1.1 0 2 .89 2 2 0 1.1-.9 2-2 2 -1.11 0-2-.9-2-2Z"/></g></svg>