<svg viewBox="0 0 24 24" xmlns="http://www.w3.org/2000/svg"><g fill-rule="evenodd"><path d="M11.71 1.58c.17-.12.39-.12.56 0l6.5 4.5c.13.09.21.24.21.41v15.5c0 .27-.23.5-.5.5h-13c-.28 0-.5-.23-.5-.5V6.49c0-.17.08-.32.21-.42l6.5-4.5ZM5.99 6.75v14.73h12V6.74l-6-4.16 -6 4.15Z"/><path d="M10 10c-.56 0-1 .44-1 1 0 .55.44 1 1 1 .55 0 1-.45 1-1 0-.56-.45-1-1-1Zm-2 1c0-1.11.89-2 2-2 1.1 0 2 .89 2 2 0 1.1-.9 2-2 2 -1.11 0-2-.9-2-2Z"/><path d="M14.5 15.5c-.56 0-1 .44-1 1 0 .55.44 1 1 1 .55 0 1-.45 1-1 0-.56-.45-1-1-1Zm-2 1c0-1.11.89-2 2-2 1.1 0 2 .89 2 2 0 1.1-.9 2-2 2 -1.11 0-2-.9-2-2Z"/><path d="M8.14 17.14l7-7 .7.7 -7.01 7 -.71-.71Z"/></g></svg>