<svg viewBox="0 0 24 24" xmlns="http://www.w3.org/2000/svg"><g fill-rule="evenodd"><path d="M5 11c0-1.94 1.56-3.5 3.5-3.5h10c1.93 0 3.5 1.56 3.5 3.5v3c0 1.93-1.57 3.5-3.5 3.5h-.67c-1.01 0-1.94-.51-2.5-1.34l-.18-.27c-.8-1.19-2.54-1.19-3.33 0l-.18.26c-.56.83-1.5 1.33-2.5 1.33h-.67c-1.94 0-3.5-1.57-3.5-3.5v-3Zm3.5-2.5C7.11 8.5 6 9.61 6 11v3c0 1.38 1.11 2.5 2.5 2.5h.66c.66 0 1.29-.34 1.66-.9l.17-.27c1.18-1.79 3.8-1.79 4.99 0l.17.26c.37.55.99.89 1.66.89h.66c1.38 0 2.5-1.12 2.5-2.5v-3c0-1.39-1.12-2.5-2.5-2.5h-10Z"/><path d="M3 2v12.5c0 2.76 2.23 5 5 5h3.5v1H8c-3.32 0-6-2.69-6-6V2h1Z"/><path d="M13.5 18.5c-.83 0-1.5.67-1.5 1.5 0 .82.67 1.5 1.5 1.5 .82 0 1.5-.68 1.5-1.5 0-.83-.68-1.5-1.5-1.5ZM11 20c0-1.39 1.11-2.5 2.5-2.5 1.38 0 2.5 1.11 2.5 2.5 0 1.38-1.12 2.5-2.5 2.5 -1.39 0-2.5-1.12-2.5-2.5Z"/></g></svg>