<svg viewBox="0 0 24 24" xmlns="http://www.w3.org/2000/svg"><g fill-rule="evenodd"><path d="M10 9.16c0-.92.74-1.67 1.66-1.67h2.83v1h-2.84c-.37 0-.67.29-.67.66 0 .28.18.53.45.62l1.41.47c.67.22 1.13.86 1.13 1.577 0 .91-.75 1.66-1.67 1.66H9.46v-1h2.83c.36 0 .66-.3.66-.67 0-.29-.19-.54-.46-.63l-1.42-.48c-.68-.23-1.14-.87-1.14-1.58Z"/><path d="M11.5 15v-2h1v2h-1Z"/><path d="M11.5 8V6h1v2h-1Z"/><path d="M12 5c-3.04 0-5.5 2.46-5.5 5.5 0 3.03 2.46 5.5 5.5 5.5 3.03 0 5.5-2.47 5.5-5.5C17.5 7.46 15.03 5 12 5Zm-6.5 5.5C5.5 6.91 8.41 4 12 4c3.58 0 6.5 2.91 6.5 6.5 0 3.58-2.92 6.5-6.5 6.5 -3.59 0-6.5-2.92-6.5-6.5Z"/><path d="M20 19.5H4v-1h16v1Z"/></g></svg>