<svg viewBox="0 0 24 24" xmlns="http://www.w3.org/2000/svg"><g fill-rule="evenodd"><path d="M5.5 4c0-1.39 1.11-2.5 2.5-2.5h8c1.38 0 2.5 1.11 2.5 2.5v16c0 1.38-1.12 2.5-2.5 2.5H8c-1.39 0-2.5-1.12-2.5-2.5V4ZM8 2.5c-.83 0-1.5.67-1.5 1.5v16c0 .82.67 1.5 1.5 1.5h8c.82 0 1.5-.68 1.5-1.5V4c0-.83-.68-1.5-1.5-1.5H8Z"/><path d="M13.5 20h-3v-1h3v1Z"/><path d="M10 9.37c0-.76.61-1.38 1.37-1.38h3.12v1h-3.13c-.21 0-.38.16-.38.37 0 .15.1.3.25.35l1.8.6c.56.18.93.71.93 1.3 0 .75-.62 1.37-1.38 1.37H9.45v-1h3.12c.2 0 .37-.17.37-.38 0-.16-.11-.31-.26-.36l-1.81-.61c-.57-.19-.94-.72-.94-1.31Z"/><path d="M11.5 14v-1.5h1V14h-1Z"/><path d="M11.5 8.5V7h1v1.5h-1Z"/></g></svg>