<svg viewBox="0 0 24 24" xmlns="http://www.w3.org/2000/svg"><g fill-rule="evenodd"><path d="M5.5 2.5c-1.11 0-2 .89-2 2 0 1.1.89 2 2 2 1.1 0 2-.9 2-2 0-1.11-.9-2-2-2Zm-3 2c0-1.66 1.34-3 3-3 1.65 0 3 1.34 3 3 0 1.65-1.35 3-3 3 -1.66 0-3-1.35-3-3Z"/><path d="M18.5 2.5c1.1 0 2 .89 2 2 0 1.1-.9 2-2 2 -1.11 0-2-.9-2-2 0-1.11.89-2 2-2Zm3 2c0-1.66-1.35-3-3-3 -1.66 0-3 1.34-3 3 0 1.65 1.34 3 3 3 1.65 0 3-1.35 3-3Z"/><path d="M3.5 11.5v-7h-1V12c0 .27.22.5.5.5h2.5c.27 0 .5-.23.5-.5V7H5v4.5H3.5Z"/><path d="M20.5 11.5v-7h1V12c0 .27-.23.5-.5.5h-2.5c-.28 0-.5-.23-.5-.5V7h1v4.5h1.5Z"/><path d="M8 16.5c-2.49 0-4.5-2.02-4.5-4.5h1c0 1.93 1.56 3.5 3.5 3.5h8c1.93 0 3.5-1.57 3.5-3.5h1c0 2.48-2.02 4.5-4.5 4.5H8Z"/><path d="M11.5 17v-1h1v1c0 1.38-1.12 2.5-2.5 2.5H4.5c-.56 0-1 .44-1 1 0 .55.44 1 1 1H22v1H4.5c-1.11 0-2-.9-2-2 0-1.11.89-2 2-2H10c.82 0 1.5-.68 1.5-1.5Z"/></g></svg>