<svg viewBox="0 0 24 24" xmlns="http://www.w3.org/2000/svg"><g fill-rule="evenodd"><path d="M11.79 8.04c.13-.06.28-.06.41 0l5.5 2.49c.17.08.29.25.29.45 0 .19-.12.37-.3.45l-5.5 2.5c-.14.05-.29.05-.42 0l-5.5-2.5c-.18-.09-.3-.26-.3-.46s.11-.38.29-.46l5.5-2.5ZM7.7 10.99l4.29 1.95 4.29-1.96 -4.3-1.96 -4.3 1.95Z"/><path d="M9.5 16v-3.5h-1v4c0 .27.22.5.5.5h6c.27 0 .5-.23.5-.5v-4h-1V16h-5Z"/><path d="M3.5 5c0-.28.22-.5.5-.5h16c.27 0 .5.22.5.5v17c0 .27-.23.5-.5.5H4c-.28 0-.5-.23-.5-.5V5Zm1 .5v16h15v-16h-15Z"/><path d="M3.5 4c0-1.39 1.11-2.5 2.5-2.5h14v1H6c-.83 0-1.5.67-1.5 1.5v1h-1V4Z"/></g></svg>