<svg viewBox="0 0 24 24" xmlns="http://www.w3.org/2000/svg"><g fill-rule="evenodd"><path d="M7.01 12c.01.02.07.08.19.16 .21.14.56.28 1.03.41 .94.25 2.27.42 3.75.42s2.81-.17 3.75-.43c.47-.13.82-.28 1.03-.42 .12-.08.17-.14.19-.17 -.02-.03-.07-.09-.2-.17 -.22-.15-.57-.29-1.04-.42 -.95-.26-2.27-.43-3.76-.43 -1.49 0-2.82.16-3.76.42 -.48.12-.83.27-1.04.41 -.13.07-.18.13-.2.16Zm.96-1.55c1.04-.29 2.47-.46 4.02-.46 1.55 0 2.97.17 4.02.45 .52.14.97.32 1.31.53 .31.2.66.53.66 1s-.35.79-.67 1c-.34.21-.8.39-1.32.53 -1.05.28-2.48.45-4.03.45 -1.56 0-2.98-.18-4.03-.46 -.53-.15-.98-.33-1.32-.54 -.32-.21-.67-.54-.67-1.01 0-.48.34-.8.66-1.01 .33-.22.79-.4 1.31-.54Z"/><path d="M9.5 9.5C9.5 8.11 10.61 7 12 7c1.38 0 2.5 1.11 2.5 2.5v1h-1v-1c0-.83-.68-1.5-1.5-1.5 -.83 0-1.5.67-1.5 1.5v1h-1v-1Z"/><path d="M7.08 19.77c.09.13.24.22.41.22h9c.16 0 .32-.09.41-.23 .09-.14.1-.32.04-.47l-2.5-6 -.923.38 2.21 5.3h-7.5l2.21-5.31 -.93-.39 -2.5 6c-.07.15-.05.33.04.46Z"/><path d="M3.5 5c0-.28.22-.5.5-.5h16c.27 0 .5.22.5.5v17c0 .27-.23.5-.5.5H4c-.28 0-.5-.23-.5-.5V5Zm1 .5v16h15v-16h-15Z"/><path d="M3.5 4c0-1.39 1.11-2.5 2.5-2.5h14v1H6c-.83 0-1.5.67-1.5 1.5v1h-1V4Z"/></g></svg>