<svg viewBox="0 0 24 24" xmlns="http://www.w3.org/2000/svg"><g fill-rule="evenodd"><path d="M1.5 11.78c0-2.99 2.84-5.14 5.71-4.34l10.91 3.07c.21.06.36.25.36.48v2c0 .22-.15.42-.37.48L7.193 16.54c-2.88.8-5.72-1.35-5.72-4.34v-.44Zm5.44-3.37c-2.24-.63-4.45 1.04-4.45 3.36v.43c0 2.31 2.21 3.99 4.44 3.36l10.55-2.97v-1.25L6.92 8.37Z"/><path d="M22.22 7.55c-.17-.09-.38-.07-.53.04l-4 3c-.13.09-.2.24-.2.4v2c0 .15.07.3.2.4l4 3c.15.11.35.13.52.04 .16-.09.27-.26.27-.45v-8c0-.19-.11-.37-.28-.45Zm-.73 1.44v6l-3-2.25v-1.5l3-2.25Z"/><path d="M12.77 6.91l-3.01 2 -.56-.84 3-2 .55.83Z"/></g></svg>