<svg viewBox="0 0 24 24" xmlns="http://www.w3.org/2000/svg"><g fill-rule="evenodd"><path d="M12 2.5C8.96 2.5 6.5 4.96 6.5 8c0 3.03 2.46 5.5 5.5 5.5 3.03 0 5.5-2.47 5.5-5.5 0-3.04-2.47-5.5-5.5-5.5ZM5.5 8c0-3.59 2.91-6.5 6.5-6.5 3.58 0 6.5 2.91 6.5 6.5 0 3.58-2.92 6.5-6.5 6.5 -3.59 0-6.5-2.92-6.5-6.5Z"/><path d="M15 8c0-1.66-1.35-3-3-3V4c2.2 0 4 1.79 4 4h-1Z"/><path d="M8.03 15.8c.07-.19.25-.31.46-.31h6.99c.2 0 .38.12.46.3 .07.18.03.4-.11.54l-2.41 2.4 -.97 3.37c-.07.21-.26.36-.49.36 -.23 0-.42-.15-.49-.37l-.97-3.38 -2.41-2.41c-.15-.15-.19-.36-.11-.55Zm1.66.69l1.64 1.64c.06.06.1.13.12.21l.51 1.81 .51-1.82c.02-.09.06-.16.12-.22l1.64-1.65H9.64Z"/></g></svg>