<svg viewBox="0 0 24 24" xmlns="http://www.w3.org/2000/svg"><g fill-rule="evenodd"><path d="M3.5 13.5C3.5 12.11 4.61 11 6 11h.5C7.88 11 9 12.11 9 13.5V18c0 1.38-1.12 2.5-2.5 2.5H6c-1.39 0-2.5-1.12-2.5-2.5v-4.5ZM6 12c-.83 0-1.5.67-1.5 1.5V18c0 .82.67 1.5 1.5 1.5h.5c.82 0 1.5-.68 1.5-1.5v-4.5c0-.83-.68-1.5-1.5-1.5H6Z"/><path d="M15 13.5c0-1.39 1.11-2.5 2.5-2.5h.5c1.38 0 2.5 1.11 2.5 2.5V18c0 1.38-1.12 2.5-2.5 2.5h-.5c-1.39 0-2.5-1.12-2.5-2.5v-4.5Zm2.5-1.5c-.83 0-1.5.67-1.5 1.5V18c0 .82.67 1.5 1.5 1.5h.5c.82 0 1.5-.68 1.5-1.5v-4.5c0-.83-.68-1.5-1.5-1.5h-.5Z"/><path d="M11 4.5c-3.59 0-6.5 2.91-6.5 6.5v4.5h-1V11c0-4.15 3.35-7.5 7.5-7.5l2 0c4.14 0 7.5 3.35 7.5 7.49v4.5h-1v-4.5c0-3.59-2.92-6.5-6.5-6.5l-2-.01Z"/></g></svg>