<svg viewBox="0 0 24 24" xmlns="http://www.w3.org/2000/svg"><g fill-rule="evenodd"><path d="M10 8.5c0-.28.22-.5.5-.5h3c.27 0 .5.22.5.5V11h2.5c.27 0 .5.22.5.5v3c0 .27-.23.5-.5.5H14v2.5c0 .27-.23.5-.5.5h-3c-.28 0-.5-.23-.5-.5V15H7.5c-.28 0-.5-.23-.5-.5v-3c0-.28.22-.5.5-.5H10V8.5Zm1 .5v2.5c0 .27-.23.5-.5.5H8v2h2.5c.27 0 .5.22.5.5V17h2v-2.5c0-.28.22-.5.5-.5H16v-2h-2.5c-.28 0-.5-.23-.5-.5V9h-2Z"/><path d="M3.5 5c0-.28.22-.5.5-.5h16c.27 0 .5.22.5.5v17c0 .27-.23.5-.5.5H4c-.28 0-.5-.23-.5-.5V5Zm1 .5v16h15v-16h-15Z"/><path d="M3.5 4c0-1.39 1.11-2.5 2.5-2.5h14v1H6c-.83 0-1.5.67-1.5 1.5v1h-1V4Z"/></g></svg>