<svg viewBox="0 0 24 24" xmlns="http://www.w3.org/2000/svg"><g fill-rule="evenodd"><path d="M4.39 9.6c.68-4.1 4.22-7.11 8.38-7.11h.22c4.69 0 8.5 3.8 8.5 8.5v6c0 .23-.17.43-.4.48L6.7 20.66c-2.08.46-3.96-1.33-3.61-3.43l.22-1.35 .98.16 -.23 1.34c-.24 1.39 1.02 2.58 2.4 2.28l13.99-3.11v-5.6c0-4.15-3.36-7.5-7.5-7.5h-.23c-3.67 0-6.8 2.65-7.4 6.26l-.06.31 -.99-.17 .05-.32Z"/><path d="M14.33 8.62c.1.09.16.22.16.37v1.89c0 2.58-1.98 4.74-4.55 4.97l-6.91.62c-.16.01-.31-.05-.42-.16 -.11-.12-.16-.27-.13-.43l1-6c.03-.23.21-.4.44-.42l10-1c.14-.02.28.03.38.12Zm-9.91 1.83l-.84 4.98 6.26-.57c2.06-.19 3.63-1.92 3.63-3.99V9.53l-9.07.907Z"/></g></svg>