<svg viewBox="0 0 24 24" xmlns="http://www.w3.org/2000/svg"><g fill-rule="evenodd"><path d="M12 3.5c-4.7 0-8.5 3.8-8.5 8.5 0 1.34.31 2.61.86 3.74 .09.19.13.42.08.65l-.82 3.97 4.1-.77c.21-.05.43-.01.62.08 1.1.52 2.33.81 3.63.81 4.69 0 8.5-3.81 8.5-8.5 0-4.7-3.81-8.5-8.5-8.5ZM2.5 12c0-5.25 4.25-9.5 9.5-9.5 5.24 0 9.5 4.25 9.5 9.5 0 5.24-4.26 9.5-9.5 9.5 -1.46 0-2.84-.33-4.07-.92 -.01-.01-.01-.01-.01-.01 -.01 0-.01 0-.01 0l-4.11.76c-.7.13-1.31-.49-1.17-1.19l.81-3.98s0 0 0-.01 0-.01-.01-.01c-.63-1.27-.98-2.69-.98-4.2Z"/><path d="M11.5 7c-.83 0-1.5.67-1.5 1.5v1H9v-1C9 7.11 10.11 6 11.5 6h1C13.88 6 15 7.11 15 8.5v1.17c0 .66-.27 1.29-.74 1.76l-1.33 1.32c-.29.28-.44.66-.44 1.06v1.67h-1V13.8c0-.67.26-1.3.73-1.77l1.32-1.33c.28-.29.43-.67.43-1.07V8.45c0-.83-.68-1.5-1.5-1.5h-1Z"/><path d="M11.5 18.5v-2h1v2h-1Z"/></g></svg>