<svg viewBox="0 0 24 24" xmlns="http://www.w3.org/2000/svg"><g fill-rule="evenodd"><path d="M1.5 9c0-1.66 1.34-3 3-3h15c1.65 0 3 1.34 3 3v9c0 1.65-1.35 3-3 3h-15c-1.66 0-3-1.35-3-3V9Zm3-2c-1.11 0-2 .89-2 2v9c0 1.1.89 2 2 2h15c1.1 0 2-.9 2-2V9c0-1.11-.9-2-2-2h-15Z"/><path d="M1.5 9c0-1.66 1.34-3 3-3h15c1.65 0 3 1.34 3 3v1c0 1.65-1.35 3-3 3h-4.75v-1h4.75c1.1 0 2-.9 2-2V9c0-1.11-.9-2-2-2h-15c-1.11 0-2 .89-2 2v1c0 1.1.89 2 2 2H9v1H4.5c-1.66 0-3-1.35-3-3V9Z"/><path d="M8.5 10.5c0-.28.22-.5.5-.5h6c.27 0 .5.22.5.5v4c0 .27-.23.5-.5.5H9c-.28 0-.5-.23-.5-.5v-4Zm1 .5v3h5v-3h-5Z"/><path d="M10.5 4c-.56 0-1 .44-1 1v1.5h-1V5c0-1.11.89-2 2-2h3c1.1 0 2 .89 2 2v1.5h-1V5c0-.56-.45-1-1-1h-3Z"/></g></svg>