<svg viewBox="0 0 24 24" xmlns="http://www.w3.org/2000/svg"><g fill-rule="evenodd"><path d="M8.1 4.95c-.98.93-1.61 2.34-1.61 4.2 0 1.22.65 2.72 1.59 4.22 .92 1.47 2.06 2.87 2.94 3.85 .52.59 1.41.59 1.93 0 .87-.99 2.01-2.38 2.94-3.86 .93-1.5 1.59-3 1.59-4.23 0-1.86-.63-3.27-1.61-4.21 -.98-.95-2.35-1.46-3.9-1.46 -1.55 0-2.92.51-3.9 1.45Zm-.7-.73c1.19-1.15 2.82-1.74 4.58-1.74 1.76 0 3.39.58 4.58 1.73s1.91 2.82 1.91 4.92c0 1.52-.79 3.22-1.75 4.75 -.97 1.54-2.15 2.98-3.05 3.99 -.93 1.03-2.51 1.03-3.44 0 -.9-1.01-2.08-2.45-3.05-4 -.96-1.53-1.75-3.24-1.75-4.76 0-2.1.71-3.78 1.91-4.93Z"/><path d="M12 6.5c-.83 0-1.5.67-1.5 1.5 0 .82.67 1.5 1.5 1.5 .82 0 1.5-.68 1.5-1.5 0-.83-.68-1.5-1.5-1.5ZM9.5 8c0-1.39 1.11-2.5 2.5-2.5 1.38 0 2.5 1.11 2.5 2.5 0 1.38-1.12 2.5-2.5 2.5 -1.39 0-2.5-1.12-2.5-2.5Z"/><path d="M8.96 15.68h.53v1h-.47c-1.43.18-2.61.48-3.43.85 -.42.18-.71.38-.89.56 -.19.17-.23.31-.23.39 0 .11.07.31.42.57 .34.25.86.5 1.56.71 1.38.43 3.33.7 5.5.7 2.173 0 4.12-.28 5.5-.71 .69-.22 1.22-.47 1.56-.72 .35-.27.42-.46.42-.58 0-.09-.04-.22-.23-.4 -.19-.19-.48-.38-.89-.57 -.82-.38-2.01-.68-3.43-.86h-.47v-1h.53l.03 0c1.49.18 2.79.51 3.74.94 .47.21.87.46 1.17.76 .29.29.51.66.51 1.1 0 .57-.38 1.03-.84 1.37 -.47.34-1.12.63-1.87.86 -1.51.47-3.57.75-5.81.75 -2.25 0-4.3-.29-5.81-.76 -.76-.24-1.4-.53-1.87-.87 -.46-.34-.84-.8-.84-1.38 0-.44.21-.82.51-1.11 .29-.3.7-.55 1.17-.77 .94-.44 2.24-.76 3.74-.95l.03-.01Z"/></g></svg>