<svg viewBox="0 0 24 24" xmlns="http://www.w3.org/2000/svg"><g fill-rule="evenodd"><path d="M7.39 5.16c-1.16 1.07-1.9 2.66-1.9 4.76 0 1.44.83 3.22 1.99 4.97 1.14 1.72 2.54 3.33 3.54 4.4 .52.56 1.39.56 1.91 0 1-1.08 2.4-2.69 3.54-4.41 1.15-1.75 1.99-3.53 1.99-4.98 0-2.1-.74-3.7-1.9-4.77 -1.17-1.08-2.782-1.67-4.61-1.67 -1.83 0-3.45.58-4.61 1.66Zm-.69-.74c1.37-1.275 3.25-1.93 5.28-1.93 2.03 0 3.91.65 5.28 1.92 1.37 1.28 2.21 3.14 2.21 5.49 0 1.76-.99 3.75-2.16 5.52 -1.19 1.79-2.63 3.44-3.66 4.53 -.923.98-2.46.98-3.38 0 -1.03-1.1-2.47-2.75-3.66-4.54 -1.18-1.77-2.16-3.77-2.16-5.53 0-2.35.83-4.22 2.21-5.5Z"/><path d="M12 6.5c-1.39 0-2.5 1.11-2.5 2.5 0 1.38 1.11 2.5 2.5 2.5 1.38 0 2.5-1.12 2.5-2.5 0-1.39-1.12-2.5-2.5-2.5ZM8.5 9c0-1.94 1.56-3.5 3.5-3.5 1.93 0 3.5 1.56 3.5 3.5 0 1.93-1.57 3.5-3.5 3.5 -1.94 0-3.5-1.57-3.5-3.5Z"/></g></svg>