<svg viewBox="0 0 24 24" xmlns="http://www.w3.org/2000/svg"><g fill-rule="evenodd"><path d="M16.56 16.76l-2.83-2.83 .7-.71 2.82 2.82 -.71.7Z"/><path d="M17.26 13.93l-2.83 2.82 -.71-.71 2.82-2.83 .7.7Z"/><path d="M9.72 16.522l-2.38-2.38 -.71.7 3 3c.12.12.31.17.48.12 .17-.05.3-.19.35-.37l1.9-7.63h4.6v-1h-5c-.23 0-.43.15-.49.37l-1.79 7.14Z"/><path d="M3.5 5c0-.28.22-.5.5-.5h16c.27 0 .5.22.5.5v17c0 .27-.23.5-.5.5H4c-.28 0-.5-.23-.5-.5V5Zm1 .5v16h15v-16h-15Z"/><path d="M3.5 4c0-1.39 1.11-2.5 2.5-2.5h14v1H6c-.83 0-1.5.67-1.5 1.5v1h-1V4Z"/></g></svg>