<svg viewBox="0 0 24 24" xmlns="http://www.w3.org/2000/svg"><g fill-rule="evenodd"><path d="M1.5 6.5C1.5 5.11 2.61 4 4 4h11.5C16.88 4 18 5.11 18 6.5v1.23l3.79-1.69c.15-.07.33-.06.47.03 .14.09.22.25.22.41v11.5c0 .16-.09.32-.23.41 -.15.09-.33.1-.48.03l-3.8-1.69v1.23c0 1.38-1.12 2.5-2.5 2.5H3.97c-1.39 0-2.5-1.12-2.5-2.5V6.46ZM4 5c-.83 0-1.5.67-1.5 1.5V18c0 .82.67 1.5 1.5 1.5h11.5c.82 0 1.5-.68 1.5-1.5v-1.24c0-.73.74-1.21 1.4-.92l3.09 1.37V7.24l-3.1 1.37c-.67.29-1.41-.2-1.41-.92V6.45c0-.83-.68-1.5-1.5-1.5H3.98Z"/><path d="M8 9c0-1.39 1.11-2.5 2.5-2.5C11.88 6.5 13 7.61 13 9v3c0 1.38-1.12 2.5-2.5 2.5C9.11 14.5 8 13.38 8 12V9Zm2.5-1.5C9.67 7.5 9 8.17 9 9v3c0 .82.67 1.5 1.5 1.5 .82 0 1.5-.68 1.5-1.5V9c0-.83-.68-1.5-1.5-1.5Z"/><path d="M6 12c0 2.48 2.01 4.5 4.5 4.5 2.48 0 4.5-2.02 4.5-4.5h1c0 3.03-2.47 5.5-5.5 5.5C7.46 17.5 5 15.03 5 12h1Z"/><path d="M10 20v-3h1v3h-1Z"/></g></svg>