<svg viewBox="0 0 24 24" xmlns="http://www.w3.org/2000/svg"><g fill-rule="evenodd"><path d="M5.5 8c0-.28.22-.5.5-.5h12c.27 0 .5.22.5.5v14c0 .27-.23.5-.5.5H6c-.28 0-.5-.23-.5-.5V8Zm1 .5v13h11v-13h-11Z"/><path d="M6.52 4.84c.06-.21.25-.35.47-.35h10c.21 0 .4.13.47.34l1 3c.05.15.02.32-.07.45 -.1.13-.25.2-.41.2h-12c-.17 0-.32-.08-.41-.21 -.1-.14-.12-.3-.07-.46l1-3Zm.83.65l-.67 2h10.61l-.67-2H7.34Z"/><path d="M6.5 2c0-.28.22-.5.5-.5h10c.27 0 .5.22.5.5v3c0 .27-.23.5-.5.5H7c-.28 0-.5-.23-.5-.5V2Zm1 .5v2h9v-2h-9Z"/><path d="M9.21 12.586c.13-.1.31-.12.46-.06l2.31.92 2.31-.93c.15-.07.32-.05.46.05 .13.09.21.24.21.41v4h-1v-3.27l-1.82.72c-.12.04-.26.04-.38 0l-1.82-.73v3.26h-1v-4c0-.17.08-.33.21-.42Z"/></g></svg>