<svg viewBox="0 0 24 24" xmlns="http://www.w3.org/2000/svg"><g fill-rule="evenodd"><path d="M12 18.5c-.83 0-1.5.67-1.5 1.5 0 .82.67 1.5 1.5 1.5 .82 0 1.5-.68 1.5-1.5 0-.83-.68-1.5-1.5-1.5ZM9.5 20c0-1.39 1.11-2.5 2.5-2.5 1.38 0 2.5 1.11 2.5 2.5 0 1.38-1.12 2.5-2.5 2.5 -1.39 0-2.5-1.12-2.5-2.5Z"/><path d="M5.5 4.02c-.31.45-.51 1.07-.51 1.97 0 1.81.79 4.21 2.11 6.17 1.32 1.96 3.06 3.32 4.88 3.32 1.82 0 3.56-1.37 4.88-3.33 1.31-1.96 2.11-4.36 2.11-6.18 0-.9-.2-1.53-.51-1.98 -.31-.46-.77-.78-1.38-1.01 -1.26-.48-3.03-.52-5.13-.52s-3.88.04-5.13.51c-.61.23-1.07.55-1.38 1Zm1.01-1.95c1.46-.556 3.43-.59 5.48-.59 2.045 0 4.02.02 5.48.58 .74.28 1.39.71 1.84 1.37 .45.65.67 1.49.67 2.53 0 2.05-.89 4.64-2.29 6.72 -1.4 2.06-3.4 3.77-5.72 3.77 -2.33 0-4.33-1.71-5.72-3.78 -1.41-2.09-2.29-4.68-2.29-6.73 0-1.04.22-1.88.67-2.54 .45-.67 1.09-1.1 1.84-1.38Z"/></g></svg>