<svg viewBox="0 0 24 24" xmlns="http://www.w3.org/2000/svg"><g fill-rule="evenodd"><path d="M5.88 8.65c.4-2.12 2.26-3.66 4.41-3.66h3.39c2.15 0 4.01 1.53 4.41 3.65l1.87 9.75c.02.14-.02.29-.11.41 -.1.11-.24.18-.39.18h-15c-.15 0-.3-.07-.39-.19 -.1-.12-.14-.27-.11-.42l1.87-9.76Zm4.41-2.66c-1.68 0-3.13 1.19-3.44 2.83l-1.77 9.16h13.78l-1.77-9.17c-.32-1.65-1.76-2.84-3.44-2.84h-3.4Z"/><path d="M22 19H2v-1h20v1Z"/><path d="M8.5 18.5c0-.28.22-.5.5-.5h6c.27 0 .5.22.5.5v1c0 1.38-1.12 2.5-2.5 2.5h-2c-1.39 0-2.5-1.12-2.5-2.5v-1Zm1 .5v.5c0 .82.67 1.5 1.5 1.5h2c.82 0 1.5-.68 1.5-1.5V19h-5Z"/><path d="M9.5 5.5c0 .27.22.5.5.5h4c.27 0 .5-.23.5-.5v-1C14.5 3.11 13.38 2 12 2c-1.39 0-2.5 1.11-2.5 2.5v1Zm1-.5v-.5c0-.83.67-1.5 1.5-1.5 .82 0 1.5.67 1.5 1.5V5h-3Z"/></g></svg>