<svg viewBox="0 0 24 24" xmlns="http://www.w3.org/2000/svg"><g fill-rule="evenodd"><path d="M2.5 4c0-1.39 1.11-2.5 2.5-2.5h14c1.38 0 2.5 1.11 2.5 2.5v16c0 1.38-1.12 2.5-2.5 2.5H5c-1.39 0-2.5-1.12-2.5-2.5V4ZM5 2.5c-.83 0-1.5.67-1.5 1.5v16c0 .82.67 1.5 1.5 1.5h14c.82 0 1.5-.68 1.5-1.5V4c0-.83-.68-1.5-1.5-1.5H5Z"/><path d="M13.5 20h-3v-1h3v1Z"/><path d="M7.5 5c-.56 0-1 .44-1 1 0 .55.44 1 1 1 .55 0 1-.45 1-1 0-.56-.45-1-1-1Zm-2 1c0-1.11.89-2 2-2 1.1 0 2 .89 2 2 0 1.1-.9 2-2 2 -1.11 0-2-.9-2-2Z"/><path d="M17.5 8h-6V7h6v1Z"/><path d="M13.5 5h-2V4h2v1Z"/><path d="M7.5 12c-.56 0-1 .44-1 1 0 .55.44 1 1 1 .55 0 1-.45 1-1 0-.56-.45-1-1-1Zm-2 1c0-1.11.89-2 2-2 1.1 0 2 .89 2 2 0 1.1-.9 2-2 2 -1.11 0-2-.9-2-2Z"/><path d="M17.5 15h-6v-1h6v1Z"/><path d="M13.5 12h-2v-1h2v1Z"/></g></svg>