<svg viewBox="0 0 24 24" xmlns="http://www.w3.org/2000/svg"><g fill-rule="evenodd"><path d="M1.5 6c0-.28.22-.5.5-.5h20c.27 0 .5.22.5.5v16c0 .27-.23.5-.5.5H2c-.28 0-.5-.23-.5-.5V6Zm1 .5v15h19v-15h-19Z"/><path d="M3.03 1.82c.07-.2.25-.33.46-.33h17c.2 0 .39.12.46.32l1.5 4c.05.15.03.32-.06.46 -.1.13-.25.21-.42.21h-20c-.17 0-.32-.09-.42-.22 -.1-.14-.12-.31-.06-.47l1.5-4Zm.81.67l-1.125 3h18.55l-1.125-3H3.83Z"/><path d="M10 12.66c0-.92.74-1.67 1.66-1.67h2.83v1h-2.84c-.37 0-.67.29-.67.66 0 .28.18.53.45.62l1.41.47c.67.22 1.13.86 1.13 1.577 0 .91-.75 1.66-1.67 1.66H9.46v-1h2.83c.36 0 .66-.3.66-.67 0-.29-.19-.54-.46-.63l-1.42-.48c-.68-.23-1.14-.87-1.14-1.577Z"/><path d="M11.5 18.5v-2h1v2h-1Z"/><path d="M11.5 11.5v-2h1v2h-1Z"/><path d="M12 8.5c-3.04 0-5.5 2.46-5.5 5.5 0 3.03 2.46 5.5 5.5 5.5 3.03 0 5.5-2.47 5.5-5.5 0-3.04-2.47-5.5-5.5-5.5ZM5.5 14c0-3.59 2.91-6.5 6.5-6.5 3.58 0 6.5 2.91 6.5 6.5 0 3.58-2.92 6.5-6.5 6.5 -3.59 0-6.5-2.92-6.5-6.5Z"/></g></svg>