<svg viewBox="0 0 24 24" xmlns="http://www.w3.org/2000/svg"><g fill-rule="evenodd"><path d="M1.5 6c0-.28.22-.5.5-.5h20c.27 0 .5.22.5.5v16c0 .27-.23.5-.5.5H2c-.28 0-.5-.23-.5-.5V6Zm1 .5v15h19v-15h-19Z"/><path d="M4.5 16c0-.28.22-.5.5-.5h6c.27 0 .5.22.5.5v3c0 .27-.23.5-.5.5H5c-.28 0-.5-.23-.5-.5v-3Zm1 .5v2h5v-2h-5Z"/><path d="M8.5 6c0-.28.22-.5.5-.5h6c.27 0 .5.22.5.5v4.5c0 .18-.11.35-.27.44 -.17.08-.36.07-.52-.03l-1.23-.82 -1.23.81c-.17.11-.39.11-.56 0l-1.23-.82 -1.23.81c-.16.1-.36.11-.52.02 -.17-.09-.27-.26-.27-.45v-4.5Zm1 .5v3.06l.72-.49c.16-.12.38-.12.55 0l1.22.81 1.22-.82c.16-.12.38-.12.55 0l.72.48V6.47h-5Z"/><path d="M3.03 1.82c.07-.2.25-.33.46-.33h17c.2 0 .39.12.46.32l1.5 4c.05.15.03.32-.06.46 -.1.13-.25.21-.42.21h-20c-.17 0-.32-.09-.42-.22 -.1-.14-.12-.31-.06-.47l1.5-4Zm.81.67l-1.125 3h18.55l-1.125-3H3.83Z"/></g></svg>