<svg viewBox="0 0 24 24" xmlns="http://www.w3.org/2000/svg"><g fill-rule="evenodd"><path d="M7.27 6.47c-1.22.6-1.78 1.35-1.78 2.02 0 .67.56 1.42 1.77 2.02 1.18.59 2.85.97 4.72.97 1.87 0 3.54-.39 4.72-.98 1.21-.61 1.77-1.36 1.77-2.03 0-.68-.57-1.43-1.78-2.03 -1.19-.6-2.86-.98-4.73-.98 -1.88 0-3.55.38-4.73.97Zm-.45-.9c1.34-.68 3.17-1.08 5.17-1.08 1.99 0 3.82.4 5.17 1.07 1.31.65 2.32 1.66 2.32 2.92 0 1.25-1.01 2.26-2.33 2.92 -1.35.67-3.18 1.07-5.18 1.07 -2 0-3.83-.41-5.18-1.08 -1.32-.66-2.33-1.67-2.33-2.93 0-1.26 1-2.27 2.32-2.93Z"/><path d="M3.5 15.56l1.97-6.93 -.97-.28 -2.02 7.06v.07c0 1.29 1.14 2.29 2.74 2.93 1.63.66 3.95 1.06 6.75 1.06s5.12-.4 6.75-1.07c1.59-.65 2.74-1.65 2.74-2.94v-.07l-2.02-7.07 -.97.27 1.97 6.92c-.04.62-.64 1.34-2.12 1.94 -1.49.6-3.67.98-6.39.98 -2.73 0-4.91-.39-6.39-.99 -1.48-.6-2.08-1.33-2.12-1.95Z"/><path d="M10.2 15h3.58l.85-.86 .7.7 -.65.64 .64.64 -.71.7 -.86-.86h-3.59l-.86.85 -.71-.71 .64-.65 -.65-.65 .7-.71 .85.85Z"/></g></svg>