<svg viewBox="0 0 24 24" xmlns="http://www.w3.org/2000/svg"><g fill-rule="evenodd"><path d="M16 10.5c.16 0 .31.07.4.21l.97 1.38 1.61.5c.15.04.27.16.32.32 .05.15.02.32-.08.45l-1.02 1.35 .02 1.69c0 .16-.08.31-.21.41 -.14.09-.31.12-.46.06l-1.61-.55 -1.61.54c-.16.05-.33.02-.46-.07 -.14-.1-.21-.25-.21-.42l.02-1.7 -1.02-1.36c-.1-.14-.13-.3-.08-.46 .05-.16.17-.28.32-.33l1.61-.51 .97-1.39c.09-.14.24-.22.4-.22Zm0 1.36l-.67.94c-.07.08-.16.15-.26.18l-1.11.34 .69.92c.06.08.1.19.09.3l-.02 1.15 1.09-.38c.1-.04.21-.04.32 0l1.09.37 -.02-1.16c-.01-.11.03-.22.09-.31l.69-.93 -1.11-.35c-.11-.04-.2-.1-.26-.19l-.67-.95Z"/><path d="M12 4c.16 0 .31.07.4.21l.97 1.38 1.61.5c.15.04.27.16.32.32 .05.15.02.32-.08.45L14.2 8.21l.02 1.69c0 .16-.08.31-.21.41 -.14.09-.31.12-.46.06l-1.61-.55 -1.61.54c-.16.05-.33.02-.46-.07 -.14-.1-.21-.25-.21-.42l.02-1.7 -1.02-1.36c-.1-.14-.13-.3-.08-.46 .05-.16.17-.28.32-.33l1.61-.51 .97-1.39c.09-.14.24-.22.4-.22Zm0 1.36l-.67.94c-.07.08-.16.15-.26.18l-1.11.34 .69.92c.06.08.1.19.09.3l-.02 1.15 1.09-.38c.1-.04.21-.04.32 0l1.09.37 -.02-1.16c-.01-.11.03-.22.09-.31l.69-.93 -1.11-.35c-.11-.04-.2-.1-.26-.19l-.67-.95Z"/><path d="M8 10.5c.16 0 .31.07.4.21l.97 1.38 1.61.5c.15.04.27.16.32.32 .05.15.02.32-.08.45l-1.02 1.35 .02 1.69c0 .16-.08.31-.21.41 -.14.09-.31.12-.46.06l-1.61-.55 -1.61.54c-.16.05-.33.02-.46-.07 -.14-.1-.21-.25-.21-.42l.02-1.7 -1.02-1.36c-.1-.14-.13-.3-.08-.46 .05-.16.17-.28.32-.33l1.61-.51 .97-1.39c.09-.14.24-.22.4-.22Zm0 1.36l-.67.94c-.07.08-.16.15-.26.18l-1.11.34 .69.92c.06.08.1.19.09.3l-.02 1.15 1.09-.38c.1-.04.21-.04.32 0l1.09.37 -.02-1.16c-.01-.11.03-.22.09-.31l.69-.93 -1.11-.35c-.11-.04-.2-.1-.26-.19l-.67-.95Z"/><path d="M12 2.5c-5.25 0-9.5 4.25-9.5 9.5 0 5.24 4.25 9.5 9.5 9.5 5.24 0 9.5-4.26 9.5-9.5 0-5.25-4.26-9.5-9.5-9.5ZM1.5 12C1.5 6.2 6.2 1.5 12 1.5c5.79 0 10.5 4.7 10.5 10.5 0 5.79-4.71 10.5-10.5 10.5 -5.8 0-10.5-4.71-10.5-10.5Z"/></g></svg>