<svg viewBox="0 0 24 24" xmlns="http://www.w3.org/2000/svg"><g fill-rule="evenodd"><path d="M7.5 7.5c0-.28.22-.5.5-.5h3.5c.07 0 .15.01.22.05l1.89.94h2.38c.27 0 .5.22.5.5v3c0 .27-.23.5-.5.5h-8c-.28 0-.5-.23-.5-.5v-4Zm1 .5v3h7V9h-2c-.08 0-.16-.02-.23-.06l-1.9-.95H8.48Z"/><path d="M11.5 20v-8.5h1V20h-1Z"/><path d="M3.5 5c0-.28.22-.5.5-.5h16c.27 0 .5.22.5.5v17c0 .27-.23.5-.5.5H4c-.28 0-.5-.23-.5-.5V5Zm1 .5v16h15v-16h-15Z"/><path d="M3.5 4c0-1.39 1.11-2.5 2.5-2.5h14v1H6c-.83 0-1.5.67-1.5 1.5v1h-1V4Z"/></g></svg>