<svg viewBox="0 0 24 24" xmlns="http://www.w3.org/2000/svg"><g fill-rule="evenodd"><path d="M4 7c0-.28.22-.5.5-.5h15c.27 0 .5.22.5.5v10.5c0 1.65-1.35 3-3 3H7c-1.66 0-3-1.35-3-3V7Zm1 .5v10c0 1.1.89 2 2 2h10c1.1 0 2-.9 2-2v-10H5Z"/><path d="M4 7c0 .27.22.5.5.5h15c.27 0 .5-.23.5-.5V4.5c0-1.66-1.35-3-3-3H7c-1.66 0-3 1.34-3 3V7Zm1-.5v-2c0-1.11.89-2 2-2h10c1.1 0 2 .89 2 2v2H5Z"/><path d="M8.5 17c0 .27.22.5.5.5h6c.27 0 .5-.23.5-.5v-2.5c0-1.66-1.35-3-3-3h-1c-1.66 0-3 1.34-3 3V17Zm1-.5v-2c0-1.11.89-2 2-2h1c1.1 0 2 .89 2 2v2h-5Z"/><path d="M2 8h2.5v1H2V8Z"/><path d="M19.5 8H22v1h-2.5V8Z"/><path d="M6.5 22v-2h1v2h-1Z"/><path d="M16.5 22v-2h1v2h-1Z"/></g></svg>