<svg viewBox="0 0 24 24" xmlns="http://www.w3.org/2000/svg"><g fill-rule="evenodd"><path d="M5.5 7.46c.01-.27.23-.47.49-.47h12c.26 0 .48.2.49.46l1 14c0 .13-.04.27-.14.37 -.1.1-.23.15-.37.15h-14c-.14 0-.28-.06-.37-.16 -.1-.11-.15-.24-.14-.38l1-14Zm.96.53l-.93 13h12.926l-.93-13H6.45Z"/><path d="M7.5 6.5C7.5 4.01 9.51 2 12 2c2.48 0 4.5 2.01 4.5 4.5v1c0 .27-.23.5-.5.5H8c-.28 0-.5-.23-.5-.5v-1ZM12 3c-1.94 0-3.5 1.56-3.5 3.5V7h7v-.5C15.5 4.56 13.93 3 12 3Z"/><path d="M8 11.5c0 2.2 1.79 4 4 4 2.2 0 4-1.8 4-4V11h-1v.5c0 1.65-1.35 3-3 3 -1.66 0-3-1.35-3-3V11H8v.5Z"/></g></svg>