<svg viewBox="0 0 24 24" xmlns="http://www.w3.org/2000/svg"><g fill-rule="evenodd"><path d="M17.11 2.24c.09-.16.25-.25.42-.25h4.45c.27 0 .5.22.5.5v15.5c0 2.48-2.02 4.5-4.5 4.5h-10c-.28 0-.5-.23-.5-.5v-3.65c0-.1.02-.18.07-.26l9.54-15.86Zm.71.75L8.49 18.48v3h9.5c1.93 0 3.5-1.57 3.5-3.5v-15h-3.68Z"/><path d="M18.86 6.75L11.42 19.1l-.86-.52 7.43-12.36 .85.51Z"/><path d="M1.5 10.5C1.5 5.8 5.3 2 10 2h7.5c.27 0 .5.22.5.5 0 .27-.23.5-.5.5H10c-4.15 0-7.5 3.35-7.5 7.5V16c0 2.86 2.19 5.22 5 5.47v-2.02c-1.7-.25-3-1.71-3-3.47v-4c0-4.15 3.35-7.5 7.5-7.5h4c.27 0 .5.22.5.5 0 .27-.23.5-.5.5h-4c-3.59 0-6.5 2.91-6.5 6.5v4c0 1.38 1.11 2.5 2.5 2.5v.5h.5v3H8v.5c-3.59 0-6.5-2.92-6.5-6.5v-5.5Z"/></g></svg>