<svg viewBox="0 0 24 24" xmlns="http://www.w3.org/2000/svg"><g fill-rule="evenodd"><path d="M5.5 9c0-1.39 1.11-2.5 2.5-2.5h8c1.38 0 2.5 1.11 2.5 2.5v9.5c0 1.38-1.12 2.5-2.5 2.5H8c-1.39 0-2.5-1.12-2.5-2.5V9ZM8 7.5c-.83 0-1.5.67-1.5 1.5v9.5c0 .82.67 1.5 1.5 1.5h8c.82 0 1.5-.68 1.5-1.5V9c0-.83-.68-1.5-1.5-1.5H8Z"/><path d="M8.5 4c0-1.39 1.11-2.5 2.5-2.5h2c1.38 0 2.5 1.11 2.5 2.5v3c0 .27-.23.5-.5.5H9c-.28 0-.5-.23-.5-.5V4ZM11 2.5c-.83 0-1.5.67-1.5 1.5v2.5h5V4c0-.83-.68-1.5-1.5-1.5h-2Z"/><path d="M11.5 18V9.5h1V18h-1Z"/><path d="M8.5 18V9.5h1V18h-1Z"/><path d="M14.5 18V9.5h1V18h-1Z"/><path d="M7.5 22v-1.5h1V22h-1Z"/><path d="M15.5 22v-1.5h1V22h-1Z"/></g></svg>