<svg viewBox="0 0 24 24" xmlns="http://www.w3.org/2000/svg"><g fill-rule="evenodd"><path d="M9.08 2.53c.06-.03.12-.04.18-.04h5.45c.06 0 .12.01.18.03l3.78 1.55c.13.05.23.16.28.29l3.48 9.91c.04.12.03.26-.03.38 -.06.11-.17.21-.29.25l-2.37.82c-.22.07-.46-.01-.59-.2l-2.22-3.4v4.82c0 .27-.23.5-.5.5h-9c-.28 0-.5-.23-.5-.5v-4.83L4.71 15.5c-.13.19-.37.27-.59.19l-2.37-.83c-.13-.05-.23-.14-.29-.26 -.06-.12-.07-.26-.03-.39l3.48-9.92c.04-.14.14-.25.28-.3l3.78-1.56Zm.28.96L5.87 4.92l-3.25 9.23 1.52.532 2.92-4.48c.12-.19.34-.27.56-.21 .21.06.35.25.35.47v6h8v-6c0-.23.14-.42.35-.48 .21-.07.44.02.56.2l2.92 4.47 1.52-.532 -3.25-9.24 -3.49-1.44H9.32Z"/><path d="M7 17c0-.28.22-.5.5-.5h9c.27 0 .5.22.5.5v3.5c0 .27-.23.5-.5.5h-9c-.28 0-.5-.23-.5-.5V17Zm1 .5V20h8v-2.5H8Z"/><path d="M9.5 3c0-.28.22-.5.5-.5h4c.27 0 .5.22.5.5v1c0 1.38-1.12 2.5-2.5 2.5 -1.39 0-2.5-1.12-2.5-2.5V3Zm1 .5V4c0 .82.67 1.5 1.5 1.5 .82 0 1.5-.68 1.5-1.5v-.5h-3Z"/></g></svg>