<svg viewBox="0 0 24 24" xmlns="http://www.w3.org/2000/svg"><g fill-rule="evenodd"><path d="M3.5 9c0-3.59 2.91-6.5 6.5-6.5 3.58 0 6.5 2.91 6.5 6.5v4c0 .27-.23.5-.5.5H4c-.28 0-.5-.23-.5-.5V9ZM10 3.5C6.96 3.5 4.5 5.96 4.5 9v3.5h11V9c0-3.04-2.47-5.5-5.5-5.5Z"/><path d="M3.5 13c0-.28.22-.5.5-.5h12c.27 0 .5.22.5.5v.35c0 .59-.35 1.13-.9 1.37l-3.65 1.62 -.47 3.71c-.04.25-.25.43-.5.43h-2c-.26 0-.47-.19-.5-.44l-.47-3.72 -3.65-1.63c-.55-.25-.9-.78-.9-1.38v-.36Zm1.02.5c.04.13.14.24.27.3l3.9 1.73c.16.07.27.22.29.39l.44 3.56h1.11l.44-3.57c.02-.18.13-.33.29-.4l3.9-1.74c.13-.06.23-.18.27-.31H4.47Z"/><path d="M17 17.5c-.83 0-1.5.67-1.5 1.5 0 .82.67 1.5 1.5 1.5 .82 0 1.5-.68 1.5-1.5 0-.83-.68-1.5-1.5-1.5ZM14.5 19c0-1.39 1.11-2.5 2.5-2.5 1.38 0 2.5 1.11 2.5 2.5 0 1.38-1.12 2.5-2.5 2.5 -1.39 0-2.5-1.12-2.5-2.5Z"/></g></svg>