<svg viewBox="0 0 24 24" xmlns="http://www.w3.org/2000/svg"><g fill-rule="evenodd"><path d="M12 2.5c-5.25 0-9.5 4.25-9.5 9.5 0 5.24 4.25 9.5 9.5 9.5 5.24 0 9.5-4.26 9.5-9.5 0-5.25-4.26-9.5-9.5-9.5ZM1.5 12C1.5 6.2 6.2 1.5 12 1.5c5.79 0 10.5 4.7 10.5 10.5 0 5.79-4.71 10.5-10.5 10.5 -5.8 0-10.5-4.71-10.5-10.5Z"/><path d="M6.78 3.9c0 2.87 2.33 5.21 5.21 5.21 2.87 0 5.21-2.34 5.21-5.22h1c0 3.43-2.79 6.21-6.22 6.21 -3.44 0-6.22-2.79-6.22-6.22h1Z"/><path d="M17.21 20.09c0-2.88-2.34-5.22-5.22-5.22s-5.22 2.33-5.22 5.21h-1c0-3.44 2.78-6.22 6.21-6.22s6.21 2.78 6.21 6.21h-1Z"/></g></svg>