<svg viewBox="0 0 24 24" xmlns="http://www.w3.org/2000/svg"><g fill-rule="evenodd"><path d="M10.77 9.58c.14.09.22.24.22.41v3.5c0 .27-.23.5-.5.5h-3.5c-.28 0-.5-.23-.5-.5v-2c0-.2.11-.39.3-.46l3.49-1.5c.15-.07.33-.06.47.04Zm-3.28 2.24v1.17h2.5v-2.25l-2.5 1.07Z"/><path d="M13.22 9.58c-.15.09-.23.24-.23.41v3.5c0 .27.22.5.5.5h3.5c.27 0 .5-.23.5-.5v-2c0-.2-.12-.39-.31-.46l-3.5-1.5c-.16-.07-.34-.06-.48.04Zm3.27 2.24v1.17h-2.5v-2.25l2.5 1.07Z"/><path d="M10 8.5c0-1.11.89-2 2-2 1.1 0 2 .89 2 2V14c0 .05-.01.1-.03.15l-1.5 4.5c-.07.2-.26.34-.48.34 -.22 0-.41-.14-.48-.35l-1.5-4.5c-.02-.06-.03-.11-.03-.16v-5.5Zm2-1c-.56 0-1 .44-1 1v5.41l1 3 1-3V8.49c0-.56-.45-1-1-1Z"/><path d="M11.74 18.07c.16-.1.36-.1.52 0l2.34 1.5 -.54.84 -2.09-1.34 -2.24 1.34 -.52-.86 2.5-1.5Z"/><path d="M3.5 5c0-.28.22-.5.5-.5h16c.27 0 .5.22.5.5v17c0 .27-.23.5-.5.5H4c-.28 0-.5-.23-.5-.5V5Zm1 .5v16h15v-16h-15Z"/><path d="M3.5 4c0-1.39 1.11-2.5 2.5-2.5h14v1H6c-.83 0-1.5.67-1.5 1.5v1h-1V4Z"/></g></svg>