<svg viewBox="0 0 24 24" xmlns="http://www.w3.org/2000/svg"><g fill-rule="evenodd"><path d="M21.99 4.96c-.02-.27-.24-.47-.5-.47h-6c-.27 0-.48.2-.5.46l-.5 7c-.01.13.03.27.13.37 .09.1.22.15.36.15h7c.13 0 .27-.06.36-.16 .09-.11.14-.24.13-.38l-.5-7.01Zm-.97.53l.42 6H15.51l.42-6h5.06Z"/><path d="M21 4c0-1.39-1.12-2.5-2.5-2.5C17.11 1.5 16 2.61 16 4v1c0 .27.22.5.5.5h4c.27 0 .5-.23.5-.5V4Zm-2.5-1.5c.82 0 1.5.67 1.5 1.5v.5h-3V4c0-.83.67-1.5 1.5-1.5Z"/><path d="M11.5 13c0-.28-.23-.5-.5-.5H2c-.28 0-.5.22-.5.5v9c0 .27.22.5.5.5h9c.27 0 .5-.23.5-.5v-9Zm-1 .5v8h-8v-8h8Z"/><path d="M9 13c0-.28-.23-.5-.5-.5h-4c-.28 0-.5.22-.5.5v4c0 .17.08.33.23.42 .14.09.33.09.48.02l1.77-.89 1.77.88c.15.07.33.06.48-.03 .14-.1.23-.26.23-.43v-4Zm-1 .5v2.69l-1.28-.64c-.15-.08-.31-.08-.45 0l-1.28.63v-2.7h3Z"/><path d="M11.75 4.75c-3.59 0-6.5 2.91-6.5 6.5h-1c0-4.15 3.35-7.5 7.5-7.5v1Z"/><path d="M10.93 1.75L12.18 4c.08.15.08.33 0 .48l-1.25 2.25 -.88-.49 1.11-2.01 -1.12-2.01 .87-.49Z"/></g></svg>