<svg viewBox="0 0 24 24" xmlns="http://www.w3.org/2000/svg"><g fill-rule="evenodd"><path d="M3.5 12c0-4.7 3.8-8.5 8.5-8.5v-1c-5.25 0-9.5 4.25-9.5 9.5 0 5.24 4.25 9.5 9.5 9.5 1.45 0 2.83-.33 4.06-.92 0-.01 0-.01 0-.01s0 0 0 0l4.1.76c.69.13 1.3-.49 1.16-1.19l-.82-3.98s0 0 0-.01 -.01-.01 0-.01c.62-1.27.97-2.69.97-4.2h-1c0 1.34-.32 2.61-.87 3.74 -.1.19-.14.42-.09.65l.81 3.97 -4.11-.77c-.22-.05-.44-.01-.63.08 -1.11.52-2.34.81-3.64.81 -4.7 0-8.5-3.81-8.5-8.5Z"/><path d="M7 11.5c-.28 0-.5.22-.5.5 0 .27.22.5.5.5 .27 0 .5-.23.5-.5 0-.28-.23-.5-.5-.5Zm-1.5.5c0-.83.67-1.5 1.5-1.5 .82 0 1.5.67 1.5 1.5 0 .82-.68 1.5-1.5 1.5 -.83 0-1.5-.68-1.5-1.5Z"/><path d="M12 11.5c-.28 0-.5.22-.5.5 0 .27.22.5.5.5 .27 0 .5-.23.5-.5 0-.28-.23-.5-.5-.5Zm-1.5.5c0-.83.67-1.5 1.5-1.5 .82 0 1.5.67 1.5 1.5 0 .82-.68 1.5-1.5 1.5 -.83 0-1.5-.68-1.5-1.5Z"/><path d="M17 11.5c-.28 0-.5.22-.5.5 0 .27.22.5.5.5 .27 0 .5-.23.5-.5 0-.28-.23-.5-.5-.5Zm-1.5.5c0-.83.67-1.5 1.5-1.5 .82 0 1.5.67 1.5 1.5 0 .82-.68 1.5-1.5 1.5 -.83 0-1.5-.68-1.5-1.5Z"/><path d="M18.5 2.5C17.11 2.5 16 3.61 16 5c0 1.38 1.11 2.5 2.5 2.5C19.88 7.5 21 6.38 21 5c0-1.39-1.12-2.5-2.5-2.5ZM15 5c0-1.94 1.56-3.5 3.5-3.5C20.43 1.5 22 3.06 22 5c0 1.93-1.57 3.5-3.5 3.5C16.56 8.5 15 6.93 15 5Z"/></g></svg>