<svg viewBox="0 0 24 24" xmlns="http://www.w3.org/2000/svg"><g fill-rule="evenodd"><path d="M1.5 2c0-.28.22-.5.5-.5h13c.27 0 .5.22.5.5v5.5h-1v-5h-12v17H9v1H2c-.28 0-.5-.23-.5-.5V2Z"/><path d="M16 10.5c-3.04 0-5.5 2.46-5.5 5.5 0 3.03 2.46 5.5 5.5 5.5 3.03 0 5.5-2.47 5.5-5.5 0-3.04-2.47-5.5-5.5-5.5ZM9.5 16c0-3.59 2.91-6.5 6.5-6.5 3.58 0 6.5 2.91 6.5 6.5 0 3.58-2.92 6.5-6.5 6.5 -3.59 0-6.5-2.92-6.5-6.5Z"/><path d="M16 14.5c-.83 0-1.5.67-1.5 1.5 0 .82.67 1.5 1.5 1.5 .82 0 1.5-.68 1.5-1.5 0-.83-.68-1.5-1.5-1.5ZM13.5 16c0-1.39 1.11-2.5 2.5-2.5 1.38 0 2.5 1.11 2.5 2.5 0 1.38-1.12 2.5-2.5 2.5 -1.39 0-2.5-1.12-2.5-2.5Z"/><path d="M18.48 10.63l-1 3.5 -.97-.28 1-3.5 .96.27Z"/><path d="M14.019 21.36l1-3.5 .96.27 -1 3.5 -.97-.28Z"/><path d="M6 5c-.56 0-1 .44-1 1v1.75c0 .41.33.75.75.75H6c.27 0 .5-.23.5-.5 0-.83.67-1.5 1.5-1.5h1c.82 0 1.5.67 1.5 1.5 0 .27.22.5.5.5h.25c.41 0 .75-.34.75-.75V6c0-.56-.45-1-1-1H6ZM4 6c0-1.11.89-2 2-2h5c1.1 0 2 .89 2 2v1.75c0 .96-.79 1.75-1.75 1.75H11c-.83 0-1.5-.68-1.5-1.5 0-.28-.23-.5-.5-.5H8c-.28 0-.5.22-.5.5 0 .82-.68 1.5-1.5 1.5h-.25C4.78 9.5 4 8.71 4 7.75V6Z"/></g></svg>