<svg viewBox="0 0 24 24" xmlns="http://www.w3.org/2000/svg"><g fill-rule="evenodd"><path d="M1.5 9c0-.28.22-.5.5-.5h20c.27 0 .5.22.5.5v9c0 .27-.23.5-.5.5h-5.67c-1.01 0-1.94-.51-2.5-1.34l-.18-.27c-.8-1.19-2.54-1.19-3.33 0l-.18.26c-.56.83-1.5 1.33-2.5 1.33H1.97c-.28 0-.5-.23-.5-.5v-9Zm1 .5v8h5.16c.66 0 1.29-.34 1.66-.9l.17-.27c1.18-1.79 3.8-1.79 4.99 0l.17.26c.37.55.99.89 1.66.89h5.16v-8h-19Z"/><path d="M6.5 12c-.83 0-1.5.67-1.5 1.5 0 .82.67 1.5 1.5 1.5 .82 0 1.5-.68 1.5-1.5 0-.83-.68-1.5-1.5-1.5ZM4 13.5C4 12.11 5.11 11 6.5 11 7.88 11 9 12.11 9 13.5 9 14.88 7.88 16 6.5 16 5.11 16 4 14.88 4 13.5Z"/><path d="M17.5 12c-.83 0-1.5.67-1.5 1.5 0 .82.67 1.5 1.5 1.5 .82 0 1.5-.68 1.5-1.5 0-.83-.68-1.5-1.5-1.5ZM15 13.5c0-1.39 1.11-2.5 2.5-2.5 1.38 0 2.5 1.11 2.5 2.5 0 1.38-1.12 2.5-2.5 2.5 -1.39 0-2.5-1.12-2.5-2.5Z"/><path d="M3.5 8c0-1.39 1.11-2.5 2.5-2.5h12c1.38 0 2.5 1.11 2.5 2.5v1c0 .27-.23.5-.5.5H4c-.28 0-.5-.23-.5-.5V8ZM6 6.5c-.83 0-1.5.67-1.5 1.5v.5h15V8c0-.83-.68-1.5-1.5-1.5H6Z"/></g></svg>