<svg viewBox="0 0 24 24" xmlns="http://www.w3.org/2000/svg"><g fill-rule="evenodd"><path d="M6.5 6c0-.28.22-.5.5-.5h10c.27 0 .5.22.5.5v16c0 .27-.23.5-.5.5H7c-.28 0-.5-.23-.5-.5V6Zm1 .5v15h9v-15h-9Z"/><path d="M9 8.5c0-.28.22-.5.5-.5h5c.27 0 .5.22.5.5v3c0 .27-.23.5-.5.5h-5c-.28 0-.5-.23-.5-.5v-3Zm1 .5v2h4V9h-4Z"/><path d="M14.5 15h-5v-1h5v1Z"/><path d="M14.5 17.5h-5v-1h5v1Z"/><path d="M14.5 20h-5v-1h5v1Z"/><path d="M12.5 3.5c0-.28.22-.5.5-.5h3c.27 0 .5.22.5.5V6c0 .27-.23.5-.5.5h-3c-.28 0-.5-.23-.5-.5V3.5Zm1 .5v1.5h2V4h-2Z"/><path d="M8.5 2v4h-1V2h1Z"/></g></svg>