<svg viewBox="0 0 24 24" xmlns="http://www.w3.org/2000/svg"><g fill-rule="evenodd"><path d="M4 22.5c-1.39 0-2.5-1.12-2.5-2.5V4c0-1.39 1.11-2.5 2.5-2.5h16c1.38 0 2.5 1.11 2.5 2.5v16c0 1.38-1.12 2.5-2.5 2.5H4ZM2.5 20c0 .82.67 1.5 1.5 1.5h16c.82 0 1.5-.68 1.5-1.5V4c0-.83-.68-1.5-1.5-1.5H4c-.83 0-1.5.67-1.5 1.5v16Z"/><path d="M6 19.5c-.83 0-1.5-.68-1.5-1.5v-3c0-.83.67-1.5 1.5-1.5h12c.82 0 1.5.67 1.5 1.5v3c0 .82-.68 1.5-1.5 1.5H6ZM5.5 18c0 .27.22.5.5.5h12c.27 0 .5-.23.5-.5v-3c0-.28-.23-.5-.5-.5H6c-.28 0-.5.22-.5.5v3Z"/></g></svg>