<svg viewBox="0 0 24 24" xmlns="http://www.w3.org/2000/svg"><g fill-rule="evenodd"><path d="M1.11 14.53c.17-.34.51-.54.88-.54h20c.55 0 1 .44 1 1v2.25c0 .34-.18.66-.47.84l-1.53.95v.94c0 .55-.45 1-1 1H5.49c-.33 0-.64-.16-.82-.43l-3.5-5c-.22-.31-.24-.71-.07-1.04Zm2.8 1.46l2.1 3h12.97v-.5c0-.35.17-.67.47-.85l1.53-.96v-.7H3.9Z"/><path d="M17 12.5c0 .55.44 1 1 1h4c.55 0 1-.45 1-1V8c0-.31-.15-.6-.39-.79 -.25-.19-.56-.26-.86-.19l-4 1c-.45.11-.76.51-.76.97v3.5Zm2-1V9.78l2-.5v2.21h-2Z"/><path d="M9.24 13.15c.18.21.46.34.75.34h5.5c.55 0 1-.45 1-1v-3.5c0-.56-.45-1-1-1h-5c-.5 0-.92.36-.99.85l-.5 3.5c-.05.28.04.57.23.79Zm1.9-1.66l.21-1.5h3.13v1.5h-3.35Z"/><path d="M10.22 7.13c.18.23.47.36.77.36h4c.55 0 1-.45 1-1v-2.5c0-.56-.45-1-1-1h-3.5c-.48 0-.89.33-.99.8l-.5 2.5c-.06.29.01.59.2.83Zm1.99-1.64l.1-.5h1.68v.5H12.2Z"/><path d="M1.85 13.47c.22.35.63.53 1.04.45l5-1c.46-.1.8-.51.8-.99v-5.5c0-.43-.28-.81-.68-.95 -.41-.14-.86-.01-1.12.33l-5 6.49c-.26.33-.28.78-.06 1.13Zm3.26-2.04l1.58-2.06v1.74l-1.59.31Z"/><path d="M12 9V6.5h2V9h-2Zm0 6v-2.5h2V15h-2Z"/></g></svg>