<svg viewBox="0 0 24 24" xmlns="http://www.w3.org/2000/svg"><g fill-rule="evenodd"><path d="M10 9.5H7v-2h3c1.65 0 3 1.34 3 3v1c0 .55-.45 1-1 1H5.5v-2H11c0-.56-.45-1-1-1Z"/><path d="M7.16 10.95c.18-.29.49-.46.83-.46h8c.33 0 .65.17.83.45 .18.28.21.64.07.95l-2 4.5c-.17.36-.52.59-.92.59h-4c-.4 0-.76-.24-.92-.6l-2-4.5c-.14-.31-.11-.67.07-.96Zm2.37 1.54l1.11 2.5h2.7l1.11-2.5H9.52Z"/><path d="M4.5 14.5c-.83 0-1.5.67-1.5 1.5 0 .82.67 1.5 1.5 1.5 .82 0 1.5-.68 1.5-1.5 0-.83-.68-1.5-1.5-1.5ZM1 16c0-1.94 1.56-3.5 3.5-3.5C6.43 12.5 8 14.06 8 16c0 1.93-1.57 3.5-3.5 3.5C2.56 19.5 1 17.93 1 16Z"/><path d="M19.5 14.5c-.83 0-1.5.67-1.5 1.5 0 .82.67 1.5 1.5 1.5 .82 0 1.5-.68 1.5-1.5 0-.83-.68-1.5-1.5-1.5ZM16 16c0-1.94 1.56-3.5 3.5-3.5 1.93 0 3.5 1.56 3.5 3.5 0 1.93-1.57 3.5-3.5 3.5 -1.94 0-3.5-1.57-3.5-3.5Z"/><path d="M8.25 7.28l2.28-.86 -.7-1.88 -2.69 1c-.26.09-.47.29-.58.54l-3 7 1.83.78 2.83-6.61Z"/><path d="M18.5 12.5H16v-2h2.5v2Z"/><path d="M2.79 6.29c.18-.19.44-.3.7-.3h1.25c1.24 0 2.25 1 2.25 2.25 0 1.24-1.01 2.25-2.25 2.25H3.49c-.56 0-1-.45-1-1l-.01-2.5c-.01-.27.1-.52.29-.71Zm1.7 1.7l0 .5h.24c.13 0 .25-.12.25-.25 0-.14-.12-.25-.25-.25h-.25Z"/></g></svg>