<svg viewBox="0 0 24 24" xmlns="http://www.w3.org/2000/svg"><g fill-rule="evenodd"><path d="M6.07 3.62c.15-.38.51-.63.92-.63h10c.4 0 .77.24.92.62l2 5c.12.3.08.65-.11.93 -.19.27-.5.43-.83.43h-14c-.34 0-.65-.17-.83-.44 -.19-.28-.23-.63-.11-.94l2-5Zm1.6 1.37l-1.2 3h11.046l-1.2-3H7.66Z"/><path d="M2 10c0-1.11.89-2 2-2h16c1.1 0 2 .89 2 2v5c0 1.1-.9 2-2 2H4c-1.11 0-2-.9-2-2v-5Zm18 0H4v5h16v-5Z"/><path d="M5 16v3h2v-3h2v3c0 1.1-.9 2-2 2H5c-1.11 0-2-.9-2-2v-3h2Z"/><path d="M17 16v3h2v-3h2v3c0 1.1-.9 2-2 2h-2c-1.11 0-2-.9-2-2v-3h2Z"/><path d="M18 13h-3v-2h3v2Z"/><path d="M9 13H6v-2h3v2Z"/></g></svg>