<svg viewBox="0 0 24 24" xmlns="http://www.w3.org/2000/svg"><g fill-rule="evenodd"><path d="M9.5 13c0-1.11.89-2 2-2h1c1.1 0 2 .89 2 2v8c0 1.1-.9 2-2 2h-1c-1.11 0-2-.9-2-2v-8Zm3 0h-1v8h1v-8Z"/><path d="M12 7c-.56 0-1 .44-1 1 0 .55.44 1 1 1 .55 0 1-.45 1-1 0-.56-.45-1-1-1ZM9 8c0-1.66 1.34-3 3-3 1.65 0 3 1.34 3 3 0 1.65-1.35 3-3 3 -1.66 0-3-1.35-3-3Z"/><path d="M6.64 2.01l3.49.5 -.29 1.97 -3.5-.5L6.62 2Z"/><path d="M17.35 2.01l-3.5.5 .28 1.97 3.5-.5L17.34 2Z"/><path d="M9.5 10.5c-.28 0-.5.22-.5.5v7H7v-7c0-1.39 1.11-2.5 2.5-2.5h1v2h-1Zm5 0h-1v-2h1c1.38 0 2.5 1.11 2.5 2.5v7h-2v-7c0-.28-.23-.5-.5-.5Z"/><path d="M11 4.5h-1v-2h4v2h-1V6h-2V4.5Z"/></g></svg>