<svg viewBox="0 0 24 24" xmlns="http://www.w3.org/2000/svg"><g fill-rule="evenodd"><path d="M7.32 9.01c.05-.02.11-.02.17-.02h13c1.38 0 2.5 1.11 2.5 2.5v3.5c0 .55-.45 1-1 1h-2v-2h1v-2.5c0-.28-.23-.5-.5-.5H7.58l-4.18.75c-.24.04-.42.25-.42.49v1.74h1v2h-2c-.56 0-1-.45-1-1v-2.75c0-1.21.86-2.25 2.05-2.46l4.26-.78Zm.67 4.98h8v2h-8v-2Z"/><path d="M6 14c-.56 0-1 .44-1 1 0 .55.44 1 1 1 .55 0 1-.45 1-1 0-.56-.45-1-1-1Zm-3 1c0-1.66 1.34-3 3-3 1.65 0 3 1.34 3 3 0 1.65-1.35 3-3 3 -1.66 0-3-1.35-3-3Z"/><path d="M18 14c-.56 0-1 .44-1 1 0 .55.44 1 1 1 .55 0 1-.45 1-1 0-.56-.45-1-1-1Zm-3 1c0-1.66 1.34-3 3-3 1.65 0 3 1.34 3 3 0 1.65-1.35 3-3 3 -1.66 0-3-1.35-3-3Z"/><path d="M11.7 7.7l-3.01 2.99 -1.42-1.42 3-3 1.41 1.41Z"/><path d="M13 6c0-.56.44-1 1-1h1.14c1.51 0 2.9.85 3.57 2.21l1.17 2.34c.15.3.13.67-.05.97 -.19.29-.51.47-.86.47h-5c-.56 0-1-.45-1-1v-4Zm2 1v2h2.38l-.45-.9c-.34-.68-1.04-1.11-1.79-1.11h-.15Z"/></g></svg>