<svg viewBox="0 0 24 24" xmlns="http://www.w3.org/2000/svg"><g fill-rule="evenodd"><path d="M12 11c-1.66 0-3 1.34-3 3 0 1.65 1.34 3 3 3 1.65 0 3-1.35 3-3 0-1.66-1.35-3-3-3Zm-5 3c0-2.77 2.23-5 5-5 2.76 0 5 2.23 5 5 0 2.76-2.24 5-5 5 -2.77 0-5-2.24-5-5Z"/><path d="M19.5 17c-.28 0-.5.22-.5.5 0 .27.22.5.5.5 .27 0 .5-.23.5-.5 0-.28-.23-.5-.5-.5Zm-2.5.5c0-1.39 1.11-2.5 2.5-2.5 1.38 0 2.5 1.11 2.5 2.5 0 1.38-1.12 2.5-2.5 2.5 -1.39 0-2.5-1.12-2.5-2.5Z"/><path d="M4.5 17c-.28 0-.5.22-.5.5 0 .27.22.5.5.5 .27 0 .5-.23.5-.5 0-.28-.23-.5-.5-.5Zm-2.5.5C2 16.11 3.11 15 4.5 15 5.88 15 7 16.11 7 17.5 7 18.88 5.88 20 4.5 20 3.11 20 2 18.88 2 17.5Z"/><path d="M2.07 14.5l6.5.5 -.16 1.99 -6.5-.5 .15-2Z"/><path d="M21.92 14.5l-6.5.5 .15 1.99 6.5-.5 -.16-2Z"/><path d="M13 5v5h-2V5h2Z"/><path d="M12.14 8.48l3.5-.5L15.35 6l-3.36.47 -3.36-.48 -.29 1.97 3.5.5 .14-.99 .14.98Z"/><path d="M10.8 13.98l-2.5-.5 .39-1.97 2.4.48h1.8l2.4-.49 .39 1.96 -2.5.5c-.07.01-.14.01-.2.01h-2c-.07 0-.14-.01-.2-.02Z"/></g></svg>