<svg viewBox="0 0 24 24" xmlns="http://www.w3.org/2000/svg"><g fill-rule="evenodd"><path d="M11.79 11.02c.13-.03.28-.03.41 0l7 1.5c.46.09.79.5.79.97v4.23c0 1.78-1.19 3.35-2.91 3.84l-4.83 1.37c-.18.05-.37.05-.55 0l-4.83-1.38c-1.72-.5-2.91-2.07-2.91-3.85v-4.24c0-.48.32-.88.79-.98l7-1.5Zm-5.8 3.28v3.42c0 .89.59 1.67 1.45 1.92l4.54 1.29 4.54-1.3c.85-.25 1.45-1.03 1.45-1.93v-3.43l-6-1.29 -6 1.28Z"/><path d="M13 12v10h-2V12h2Z"/><path d="M8.25 6.5c0-.56.44-1 1-1h5.5c.55 0 1 .44 1 1V8h.75c.55 0 1 .44 1 1v3.99h-2v-3h-.75c-.56 0-1-.45-1-1v-1.5h-3.5v1.5c0 .55-.45.99-1 .99H8.5v3h-2v-4c0-.56.44-1 1-1h.75v-1.5Z"/><path d="M7 4.5c-.56 0-1 .44-1 1v7.99H4v-8c0-1.66 1.34-3 3-3h10c1.65 0 3 1.34 3 3v7.99h-2v-8c0-.56-.45-1-1-1H7Z"/></g></svg>