<svg viewBox="0 0 24 24" xmlns="http://www.w3.org/2000/svg"><g fill-rule="evenodd"><path d="M11.79 10.02c.13-.03.28-.03.41 0l7 1.5c.46.09.79.5.79.97v5.23c0 1.78-1.19 3.35-2.91 3.84l-4.83 1.37c-.18.05-.37.05-.55 0l-4.83-1.38c-1.72-.5-2.91-2.07-2.91-3.85v-5.24c0-.48.32-.88.79-.98l7-1.5Zm-5.8 3.28v4.42c0 .89.59 1.67 1.45 1.92l4.54 1.29 4.54-1.3c.85-.25 1.45-1.03 1.45-1.93v-4.43l-6-1.29 -6 1.28Z"/><path d="M13 11v11h-2V11h2Z"/><path d="M5.5 8c0-.56.44-1 1-1h11c.55 0 1 .44 1 1v4h-2V9h-9v3h-2V8Z"/><path d="M6.5 4.5c0-.56.44-1 1-1h9c.55 0 1 .44 1 1V8c0 .55-.45 1-1 1h-9c-.56 0-1-.45-1-1V4.5Zm2 1V7h7V5.5h-7Z"/><path d="M10 2v2.5H8V2h2Z"/><path d="M13 2v2.5h-2V2h2Z"/></g></svg>