<svg viewBox="0 0 24 24" xmlns="http://www.w3.org/2000/svg"><g fill-rule="evenodd"><path d="M5.56 7.88c.45-1.14 1.55-1.89 2.78-1.89h7.29c1.22 0 2.32.74 2.78 1.88l1.49 3.74c.12.3.08.65-.11.93 -.19.27-.5.43-.83.43h-14c-.34 0-.65-.17-.83-.44 -.19-.28-.23-.63-.11-.94l1.49-3.75Zm2.78.11c-.41 0-.78.24-.93.62l-.95 2.37h11.046l-.95-2.38c-.16-.38-.52-.63-.93-.63h-7.3Z"/><path d="M2 14c0-1.66 1.34-3 3-3h14c1.65 0 3 1.34 3 3v1c0 1.65-1.35 3-3 3H5c-1.66 0-3-1.35-3-3v-1Zm3-1c-.56 0-1 .44-1 1v1c0 .55.44 1 1 1h14c.55 0 1-.45 1-1v-1c0-.56-.45-1-1-1H5Z"/><path d="M5 17v2h2v-2h2v2c0 1.1-.9 2-2 2H5c-1.11 0-2-.9-2-2v-2h2Z"/><path d="M17 17v2h2v-2h2v2c0 1.1-.9 2-2 2h-2c-1.11 0-2-.9-2-2v-2h2Z"/><path d="M18 15.5h-3v-2h3v2Z"/><path d="M9 15.5H6v-2h3v2Z"/><path d="M9.05 3.68c.13-.41.51-.69.94-.69h4c.43 0 .81.27.94.68l1 3c.1.3.05.64-.14.9s-.49.41-.82.41h-6c-.33 0-.63-.16-.82-.42 -.19-.27-.24-.6-.14-.91l1-3Zm1.66 1.31l-.34 1h3.22l-.34-1h-2.56Z"/></g></svg>