<svg viewBox="0 0 24 24" xmlns="http://www.w3.org/2000/svg"><g fill-rule="evenodd"><path d="M8 11c0-1.66 1.34-3 3-3h2c1.65 0 3 1.34 3 3v6c0 .55-.45 1-1 1H9c-.56 0-1-.45-1-1v-6Zm3-1c-.56 0-1 .44-1 1v5h4v-5c0-.56-.45-1-1-1h-2Z"/><path d="M7.06 4.64c.14-.4.51-.65.93-.65h8c.41 0 .79.25.93.64l1.5 4c.04.11.06.23.06.35v8c0 .55-.45 1-1 1h-11c-.56 0-1-.45-1-1v-8c0-.12.02-.24.06-.36l1.5-4Zm1.62 1.35l-1.2 3.18v6.81h9V9.16l-1.2-3.19H8.66Z"/><path d="M1.5 14c0-1.11.89-2 2-2h2c1.1 0 2 .89 2 2v6c0 1.1-.9 2-2 2h-2c-1.11 0-2-.9-2-2v-6Zm4 0h-2v6h2v-6Z"/><path d="M17.5 18h-11v-2h11v2Z"/><path d="M16.5 14c0-1.11.89-2 2-2h2c1.1 0 2 .89 2 2v6c0 1.1-.9 2-2 2h-2c-1.11 0-2-.9-2-2v-6Zm4 0h-2v6h2v-6Z"/><path d="M15 3v6h-2V3h2Z"/></g></svg>