<svg viewBox="0 0 24 24" xmlns="http://www.w3.org/2000/svg"><path fill-rule="evenodd" d="M10 1c-.56 0-1 .44-1 1v1.51c-.31.1-.6.22-.89.36L7.04 2.8c-.4-.4-1.03-.4-1.42 0L2.79 5.62c-.19.18-.3.44-.3.7 0 .26.1.51.29.7l1.06 1.06c-.14.28-.26.57-.37.88H1.95c-.56 0-1 .44-1 1v4c0 .55.44 1 1 1h1.51c.1.3.22.59.36.88L2.75 16.9c-.4.39-.4 1.02 0 1.41l2.82 2.82c.39.39 1.02.39 1.41 0l1.06-1.07c.28.13.57.25.88.36v1.51c0 .55.44 1 1 1h4c.55 0 1-.45 1-1v-1.52c.3-.11.59-.23.88-.37l1.06 1.06c.39.39 1.02.39 1.41 0l2.82-2.83c.18-.19.29-.45.29-.71 0-.27-.11-.52-.3-.71l-1.07-1.07c.13-.29.25-.58.36-.89h1.51c.55 0 1-.45 1-1v-4c0-.56-.45-1-1-1h-1.52c-.11-.31-.23-.6-.37-.89l1.06-1.07c.18-.19.29-.45.29-.71 0-.27-.11-.52-.3-.71l-2.83-2.83c-.4-.4-1.03-.4-1.42 0l-1.07 1.06c-.29-.14-.58-.26-.89-.37V1.85c0-.56-.45-1-1-1h-4Zm-3.5 9.5C6.5 9.11 7.61 8 9 8c1.38 0 2.5 1.11 2.5 2.5V12v3h-2v-2h-1v2h-2v-3 -1.5Zm3 .5v-.5c0-.28-.23-.5-.5-.5 -.28 0-.5.22-.5.5v.5h1Zm4-3c-.56 0-1 .44-1 1v3 3c0 .55.44 1 1 1h1c1.65 0 3-1.35 3-3v-1 -1c0-1.66-1.35-3-3-3h-1Zm2 5c0 .55-.45 1-1 1v-2 -2c.55 0 1 .44 1 1v1 1Z"/></svg>