<svg viewBox="0 0 24 24" xmlns="http://www.w3.org/2000/svg"><path fill-rule="evenodd" d="M6.29 1.29c.18-.19.44-.3.7-.3h5 5c.26 0 .51.1.7.29l5 5c.18.18.29.44.29.7v10c0 .26-.11.51-.3.7l-5 5c-.19.18-.45.29-.71.29h-5 -5c-.27 0-.52-.11-.71-.3l-5-5c-.19-.19-.3-.45-.3-.71v-10c0-.27.1-.52.29-.71l5-5Zm1.5 3c.18-.19.44-.3.7-.3h3.5 3.5c.26 0 .51.1.7.29l3.5 3.5c.18.18.29.44.29.7v7c0 .26-.11.51-.3.7l-3.5 3.5c-.19.18-.45.29-.71.29h-3.5 -3.5c-.27 0-.52-.11-.71-.3l-3.5-3.5c-.19-.19-.3-.45-.3-.71v-7c0-.27.1-.52.29-.71l3.5-3.5Zm1.2 3.7c-1.39 0-2.5 1.11-2.5 2.5v1.5 3h2v-2h1v2h2v-3 -1.5c0-1.39-1.12-2.5-2.5-2.5Zm.5 2.5v.5h-1v-.5c0-.28.22-.5.5-.5 .27 0 .5.22.5.5Zm3-1.5c0-.56.44-1 1-1h1c1.65 0 3 1.34 3 3v1 1c0 1.65-1.35 3-3 3h-1c-.56 0-1-.45-1-1v-3 -3Zm2 5c.55 0 1-.45 1-1v-1 -1c0-.56-.45-1-1-1v2 2Z"/></svg>