<svg viewBox="0 0 24 24" xmlns="http://www.w3.org/2000/svg"><path fill-rule="evenodd" d="M4.96 3.54C6.86 1.94 9.32.99 11.99.99c6.07 0 11 4.92 11 11 0 2.67-.96 5.13-2.55 7.03l-.75-.75 -3.13-3.13c.56-.55.92-1.32.92-2.17v-1 -1c0-1.66-1.35-3-3-3h-1c-.56 0-1 .44-1 1v2.08L11.43 10c-.19-1.02-.99-1.82-2.01-2.01L5.67 4.24l-.75-.75ZM3.54 4.95C1.94 6.85.99 9.31.99 11.98c0 6.07 4.92 11 11 11 2.67 0 5.13-.96 7.03-2.55l-.75-.75 -3.71-3.71c-.03 0-.06 0-.09 0h-1c-.56 0-1-.45-1-1v-1.09l-1-1v2.08h-2v-2h-1v2h-2v-3 -1.5c0-.72.29-1.36.77-1.82L4.25 5.65 3.5 4.9Zm5.14 5.14c-.12.09-.2.23-.2.39v.5h1v-.09l-.81-.81Zm6.47 3.64l-.67-.67v-1.09 -2c.55 0 1 .44 1 1v1 1c0 .29-.14.56-.34.74Z"/></svg>