<svg viewBox="0 0 24 24" xmlns="http://www.w3.org/2000/svg"><g fill-rule="evenodd"><path d="M1 15.5C1 11.35 4.35 8 8.5 8c4.14 0 7.5 3.35 7.5 7.5 0 4.14-3.36 7.5-7.5 7.5C4.35 23 1 19.64 1 15.5Zm6.5-3.49c-1.13.12-2 1.07-2 2.23 0 1.24 1 2.25 2.25 2.25h1.5c.13 0 .25.11.25.25 0 .13-.12.25-.25.25H6.5v2h1v1h2v-1.02c1.125-.13 2-1.08 2-2.24 0-1.25-1.01-2.25-2.25-2.25h-1.5c-.14 0-.25-.12-.25-.25 0-.14.11-.25.25-.25h2.75v-2h-1v-1h-2v1.01Z"/><path d="M22.5 2c0-.33-.16-.64-.43-.82 -.27-.19-.61-.24-.92-.13l-5.5 2c-.4.14-.66.51-.66.93v3c0 .42.26.79.65.93l5.5 2c.3.11.64.06.91-.13 .26-.19.42-.5.42-.82v-7Z"/><path d="M14.53 10.77l-1-3.5 1.923-.55 1 3.5 -1.923.54Z"/><path d="M13 3c-.56 0-1 .44-1 1v3c0 .55.44 1 1 1h3c.55 0 1-.45 1-1V4c0-.56-.45-1-1-1h-3Z"/></g></svg>