<svg viewBox="0 0 24 24" xmlns="http://www.w3.org/2000/svg"><g fill-rule="evenodd"><path d="M5 1c-.56 0-1 .44-1 1v13c0 .55.44 1 1 1h14c.55 0 1-.45 1-1V2c0-.56-.45-1-1-1H5Zm1.5 6c0-1.39 1.11-2.5 2.5-2.5 1.38 0 2.5 1.11 2.5 2.5v1.5 3h-2v-2h-1v2h-2v-3V7Zm3 .5V7c0-.28-.23-.5-.5-.5 -.28 0-.5.22-.5.5v.5h1Zm4-3c-.56 0-1 .44-1 1v3 3c0 .55.44 1 1 1h1c1.65 0 3-1.35 3-3v-1 -1c0-1.66-1.35-3-3-3h-1Zm2 5c0 .55-.45 1-1 1v-2 -2c.55 0 1 .44 1 1v1 1Z"/><path d="M7 18c-.56 0-1 .44-1 1v3c0 .55.44 1 1 1h10c.55 0 1-.45 1-1v-3c0-.56-.45-1-1-1H7Z"/><path d="M9 15c0-.56.44-1 1-1h4c.55 0 1 .44 1 1v4c0 .55-.45 1-1 1h-4c-.56 0-1-.45-1-1v-4Zm2 1v2h2v-2h-2Z"/></g></svg>