<svg viewBox="0 0 24 24" xmlns="http://www.w3.org/2000/svg"><g fill-rule="evenodd"><path d="M1 4c0-1.66 1.34-3 3-3h16c1.65 0 3 1.34 3 3v16c0 1.65-1.35 3-3 3H4c-1.66 0-3-1.35-3-3V4Zm3-1c-.56 0-1 .44-1 1v16c0 .55.44 1 1 1h16c.55 0 1-.45 1-1V4c0-.56-.45-1-1-1H4Z"/><path d="M1 4c0-1.66 1.34-3 3-3h16c1.65 0 3 1.34 3 3v2c0 .55-.45 1-1 1H2c-.56 0-1-.45-1-1V4Zm3-1c-.56 0-1 .44-1 1v1h18V4c0-.56-.45-1-1-1H4Z"/><path d="M1 8c0-1.66 1.34-3 3-3h16c1.65 0 3 1.34 3 3v12c0 1.65-1.35 3-3 3H4c-1.66 0-3-1.35-3-3V8Zm16.07 1.18c.26.18.42.49.42.81v7c0 .32-.16.63-.43.81 -.27.18-.61.23-.92.12L10.8 15.98l.63 2.22 -1.93.54 -.8-2.78h-.75c-.56 0-1-.45-1-1v-3c0-.56.44-1 1-1h2.82l5.33-1.94c.3-.12.64-.07.91.12Z"/></g></svg>