<svg viewBox="0 0 24 24" xmlns="http://www.w3.org/2000/svg"><g fill-rule="evenodd"><path d="M12.47 15.11c.32.17.52.51.52.88v3c0 1.1.89 2 2 2h2v2h-2c-2.21 0-4-1.8-4-4v-1.14l-1.45.96 -1.11-1.67 2.99-2c.3-.21.7-.23 1.02-.05Z"/><path d="M12 1C7.58 1 4 4.58 4 9c0 4.41 3.58 8 8 8 4.41 0 8-3.59 8-8 0-4.42-3.59-8-8-8ZM6.5 8c0-1.39 1.11-2.5 2.5-2.5 1.38 0 2.5 1.11 2.5 2.5v1 2h-2v-1h-1v1h-2V9 8Zm3 0c0-.28-.23-.5-.5-.5 -.28 0-.5.22-.5.5h1Zm4-2.5c-.56 0-1 .44-1 1V9v2c0 .55.44 1 1 1h1c1.65 0 3-1.35 3-3v-.5c0-1.66-1.35-3-3-3h-1Zm1 3.5V7.5c.55 0 1 .44 1 1V9c0 .55-.45 1-1 1V9Z"/></g></svg>