<svg viewBox="0 0 24 24" xmlns="http://www.w3.org/2000/svg"><g fill-rule="evenodd"><path d="M5 4c-.56 0-1 .44-1 1v11c0 .55.44 1 1 1h14c.55 0 1-.45 1-1V5c0-.56-.45-1-1-1H5Zm1.5 5c0-1.39 1.11-2.5 2.5-2.5 1.38 0 2.5 1.11 2.5 2.5v1.5 3h-2v-2h-1v2h-2v-3V9Zm3 .5V9c0-.28-.23-.5-.5-.5 -.28 0-.5.22-.5.5v.5h1Zm4-3c-.56 0-1 .44-1 1v3 3c0 .55.44 1 1 1h1c1.65 0 3-1.35 3-3v-1 -1c0-1.66-1.35-3-3-3h-1Zm2 5c0 .55-.45 1-1 1v-2 -2c.55 0 1 .44 1 1v1 1Z"/><path d="M1 2c0-.56.44-1 1-1h20c.55 0 1 .44 1 1v20h-2V3H3v19H1V2Z"/><path d="M22.7 2.7l-3 3 -1.42-1.42 3-3 1.41 1.41Z"/><path d="M2.7 1.29l3 3L4.28 5.7l-3-3 1.41-1.42Z"/><path d="M1.29 18.29l3-3L5.7 16.7l-3 3 -1.42-1.42Z"/><path d="M21.293 19.7l-3-3 1.41-1.42 3 3 -1.42 1.41Z"/></g></svg>