<svg viewBox="0 0 24 24" xmlns="http://www.w3.org/2000/svg"><path fill-rule="evenodd" d="M8.66 7.12c1.25-1.89 3.39-3.13 5.83-3.13 3.86 0 7 3.13 7 7 0 .36-.03.72-.09 1.07 .96.82 1.58 2.05 1.58 3.42 0 2.48-2.02 4.5-4.5 4.5h-13c-2.49 0-4.5-2.02-4.5-4.5 0-1.08.37-2.06 1-2.84 -.01-.06-.01-.12-.01-.17 0-3.04 2.46-5.5 5.5-5.5 .4 0 .79.04 1.16.12Zm8.4.55c.26.18.42.49.42.81v7c0 .32-.16.63-.43.81 -.27.18-.61.23-.92.12l-5.34-1.939 .63 2.22 -1.93.54 -.8-2.78h-.75c-.56 0-1-.45-1-1v-3c0-.56.44-1 1-1h2.82l5.33-1.94c.3-.12.64-.07.91.12Z"/></svg>