<svg viewBox="0 0 24 24" xmlns="http://www.w3.org/2000/svg"><path fill-rule="evenodd" d="M3.5 1c-.56 0-1 .44-1 1v20c0 .55.44 1 1 1h17c.55 0 1-.45 1-1V2c0-.56-.45-1-1-1H17c-.56 0-1 .44-1 1v4h-1l-1.2-1.6c-.19-.26-.49-.4-.8-.4h-2c-.32 0-.62.14-.8.4L9 6H8V2c0-.56-.45-1-1-1H3.5Zm3 11.5C6.5 11.11 7.61 10 9 10c1.38 0 2.5 1.11 2.5 2.5V14v3h-2v-2h-1v2h-2v-3 -1.5Zm3 .5v-.5c0-.28-.23-.5-.5-.5 -.28 0-.5.22-.5.5v.5h1Zm4-3c-.56 0-1 .44-1 1v3 3c0 .55.44 1 1 1h1c1.65 0 3-1.35 3-3v-1 -1c0-1.66-1.35-3-3-3h-1Zm2 5c0 .55-.45 1-1 1v-2 -2c.55 0 1 .44 1 1v1 1Z"/></svg>