<svg viewBox="0 0 24 24" xmlns="http://www.w3.org/2000/svg"><g fill-rule="evenodd"><path d="M8.14 1.01c.48.07.85.49.85.98v13c0 .55-.45 1-1 1h-4c-.32 0-.62-.16-.81-.41 -.19-.26-.25-.59-.16-.89l4-13c.14-.48.61-.77 1.1-.7Zm-2.8 12.98h1.64V8.64l-1.65 5.34Z"/><path d="M8 1c-.56 0-1 .44-1 1v16c0 .55.44 1 1 1h14c.55 0 1-.45 1-1V2c0-.56-.45-1-1-1H8Zm1.5 7.5C9.5 7.11 10.61 6 12 6c1.38 0 2.5 1.11 2.5 2.5V10v3h-2v-2h-1v2h-2v-3V8.5Zm3 .5v-.5c0-.28-.23-.5-.5-.5 -.28 0-.5.22-.5.5V9h1Zm4-3c-.56 0-1 .44-1 1v3 3c0 .55.44 1 1 1h1c1.65 0 3-1.35 3-3v-1V9c0-1.66-1.35-3-3-3h-1Zm2 5c0 .55-.45 1-1 1v-2V8c.55 0 1 .44 1 1v1 1Z"/><path d="M1.56 18.64l1.5-4 1.87.7 -1.51 4 -1.88-.71Z"/><path d="M7 22v-4h2v4H7Z"/><path d="M21 22v-4h2v4h-2Z"/></g></svg>