<svg viewBox="0 0 24 24" xmlns="http://www.w3.org/2000/svg"><g fill-rule="evenodd"><path d="M1.25 4c0-1.52 1.23-2.75 2.75-2.75h16c1.51 0 2.75 1.23 2.75 2.75v11c0 .41-.34.75-.75.75 -.42 0-.75-.34-.75-.75V4c0-.7-.56-1.25-1.25-1.25H4c-.7 0-1.25.55-1.25 1.25v16c0 .69.55 1.25 1.25 1.25h16c.69 0 1.25-.56 1.25-1.25v-1c0-.42.33-.75.75-.75 .41 0 .75.33.75.75v1c0 1.51-1.24 2.75-2.75 2.75H4c-1.52 0-2.75-1.24-2.75-2.75V4Z"/><path d="M1.25 4c0-1.52 1.23-2.75 2.75-2.75h16c1.51 0 2.75 1.23 2.75 2.75v2c0 .41-.34.75-.75.75H2c-.42 0-.75-.34-.75-.75V4ZM4 2.75c-.7 0-1.25.55-1.25 1.25v1.25h18.5V4c0-.7-.56-1.25-1.25-1.25H4Z"/><path d="M5.25 12.5c0-.42.33-.75.75-.75h12c.41 0 .75.33.75.75v6c0 .41-.34.75-.75.75H6c-.42 0-.75-.34-.75-.75v-6Zm1.5.75v4.5h10.5v-4.5H6.75Z"/><path d="M6.25 9.5c0-.42.33-.75.75-.75h3c.41 0 .75.33.75.75v3c0 .41-.34.75-.75.75H7c-.42 0-.75-.34-.75-.75v-3Zm1.5.75v1.5h1.5v-1.5h-1.5Z"/><path d="M13.25 9.5c0-.42.33-.75.75-.75h3c.41 0 .75.33.75.75v3c0 .41-.34.75-.75.75h-3c-.42 0-.75-.34-.75-.75v-3Zm1.5.75v1.5h1.5v-1.5h-1.5Z"/></g></svg>