<svg viewBox="0 0 24 24" xmlns="http://www.w3.org/2000/svg"><g fill-rule="evenodd"><path d="M1.25 4c0-1.52 1.23-2.75 2.75-2.75h16c1.51 0 2.75 1.23 2.75 2.75v16c0 1.51-1.24 2.75-2.75 2.75H4c-1.52 0-2.75-1.24-2.75-2.75v-8c0-.42.33-.75.75-.75 .41 0 .75.33.75.75v8c0 .69.55 1.25 1.25 1.25h16c.69 0 1.25-.56 1.25-1.25V4c0-.7-.56-1.25-1.25-1.25H4c-.7 0-1.25.55-1.25 1.25v4c0 .41-.34.75-.75.75 -.42 0-.75-.34-.75-.75V4Z"/><path d="M1.25 4c0-1.52 1.23-2.75 2.75-2.75h16c1.51 0 2.75 1.23 2.75 2.75v2c0 .41-.34.75-.75.75H2c-.42 0-.75-.34-.75-.75V4ZM4 2.75c-.7 0-1.25.55-1.25 1.25v1.25h18.5V4c0-.7-.56-1.25-1.25-1.25H4Z"/><path d="M4.25 8.5c0-.42.33-.75.75-.75h14c.41 0 .75.33.75.75v5c0 .41-.34.75-.75.75H5c-.42 0-.75-.34-.75-.75v-5Zm1.5.75v3.5h12.5v-3.5H5.75Z"/><path d="M4.25 17c0-.42.33-.75.75-.75h5.5c.41 0 .75.33.75.75v2.5c0 .41-.34.75-.75.75H5c-.42 0-.75-.34-.75-.75V17Zm1.5.75v1h4v-1h-4Z"/><path d="M12.75 17c0-.42.33-.75.75-.75H19c.41 0 .75.33.75.75v2.5c0 .41-.34.75-.75.75h-5.5c-.42 0-.75-.34-.75-.75V17Zm1.5.75v1h4v-1h-4Z"/><path d="M19.7 8.24c.13.39-.07.81-.46.95l-14 5c-.4.13-.82-.07-.96-.46s.06-.82.45-.96l14-5.01c.39-.14.81.06.95.45Z"/><path d="M4.29 8.24c-.14.39.06.81.45.95l14 5c.39.13.81-.07.95-.46 .13-.39-.07-.82-.46-.96l-14-5.01c-.4-.14-.82.06-.96.45Z"/></g></svg>