<svg viewBox="0 0 24 24" xmlns="http://www.w3.org/2000/svg"><g fill-rule="evenodd"><path d="M1.25 4c0-1.52 1.23-2.75 2.75-2.75h16c1.51 0 2.75 1.23 2.75 2.75v16c0 1.51-1.24 2.75-2.75 2.75h-.5c-.42 0-.75-.34-.75-.75 0-.42.33-.75.75-.75h.5c.69 0 1.25-.56 1.25-1.25V4c0-.7-.56-1.25-1.25-1.25H4c-.7 0-1.25.55-1.25 1.25v16c0 .69.55 1.25 1.25 1.25h11.5c.41 0 .75.33.75.75 0 .41-.34.75-.75.75H4c-1.52 0-2.75-1.24-2.75-2.75V4Z"/><path d="M1.25 4c0-1.52 1.23-2.75 2.75-2.75h16c1.51 0 2.75 1.23 2.75 2.75v2c0 .41-.34.75-.75.75H2c-.42 0-.75-.34-.75-.75V4ZM4 2.75c-.7 0-1.25.55-1.25 1.25v1.25h18.5V4c0-.7-.56-1.25-1.25-1.25H4Z"/><path d="M3.75 12c0-1.52 1.23-2.75 2.75-2.75 1.51 0 2.75 1.23 2.75 2.75v.5c0 .41-.34.75-.75.75 -.42 0-.75-.34-.75-.75V12c0-.7-.56-1.25-1.25-1.25 -.7 0-1.25.55-1.25 1.25v4c0 .69.55 1.25 1.25 1.25 .69 0 1.25-.56 1.25-1.25v-.5c0-.42.33-.75.75-.75 .41 0 .75.33.75.75v.5c0 1.51-1.24 2.75-2.75 2.75 -1.52 0-2.75-1.24-2.75-2.75v-4Z"/><path d="M12 11.25c.41 0 .75.33.75.75v4c0 .41-.34.75-.75.75 -.42 0-.75-.34-.75-.75v-4c0-.42.33-.75.75-.75Z"/><path d="M18 11.25c.41 0 .75.33.75.75v4c0 .41-.34.75-.75.75 -.42 0-.75-.34-.75-.75v-4c0-.42.33-.75.75-.75Z"/><path d="M9.25 14c0-.42.33-.75.75-.75h4c.41 0 .75.33.75.75 0 .41-.34.75-.75.75h-4c-.42 0-.75-.34-.75-.75Z"/><path d="M15.25 14c0-.42.33-.75.75-.75h4c.41 0 .75.33.75.75 0 .41-.34.75-.75.75h-4c-.42 0-.75-.34-.75-.75Z"/></g></svg>