<svg viewBox="0 0 24 24" xmlns="http://www.w3.org/2000/svg"><g fill-rule="evenodd"><path d="M1.25 2c0-.42.33-.75.75-.75h14c.19 0 .38.07.53.21l6 6c.14.14.21.33.21.53v2c0 .41-.34.75-.75.75 -.42 0-.75-.34-.75-.75V8.3l-5.57-5.57H2.73v18.5h18.5v-7.25c0-.42.33-.75.75-.75 .41 0 .75.33.75.75v8c0 .41-.34.75-.75.75h-20c-.42 0-.75-.34-.75-.75v-20Z"/><path d="M15.713 1.3c.28-.12.6-.06.81.16l6 6c.21.21.27.53.16.81 -.12.28-.39.46-.7.46h-6c-.42 0-.75-.34-.75-.75v-6c0-.31.18-.58.46-.7Zm1.03 2.5v3.43h3.43l-3.44-3.44Z"/><path d="M3.75 11.5C3.75 9.7 5.2 8.25 7 8.25h1c1.79 0 3.25 1.45 3.25 3.25v.5c0 .41-.34.75-.75.75 -.42 0-.75-.34-.75-.75v-.5c0-.97-.79-1.75-1.75-1.75H7c-.97 0-1.75.78-1.75 1.75v5c0 .96.78 1.75 1.75 1.75h1c.96 0 1.75-.79 1.75-1.75V16c0-.42.33-.75.75-.75 .41 0 .75.33.75.75v.5c0 1.79-1.46 3.25-3.25 3.25H7c-1.8 0-3.25-1.46-3.25-3.25v-5Z"/><path d="M15.09 9.25c.41.05.7.42.65.83l-1 8c-.06.41-.43.7-.84.65 -.42-.06-.71-.43-.66-.84l1-8.01c.05-.42.42-.71.83-.66Z"/><path d="M17.59 9.25c.41.05.7.42.65.83l-1 8c-.06.41-.43.7-.84.65 -.42-.06-.71-.43-.66-.84l1-8.01c.05-.42.42-.71.83-.66Z"/><path d="M12.25 12c0-.42.33-.75.75-.75h6.5c.41 0 .75.33.75.75 0 .41-.34.75-.75.75H13c-.42 0-.75-.34-.75-.75Z"/><path d="M11.75 16c0-.42.33-.75.75-.75h6c.41 0 .75.33.75.75 0 .41-.34.75-.75.75h-6c-.42 0-.75-.34-.75-.75Z"/></g></svg>