<svg viewBox="0 0 24 24" xmlns="http://www.w3.org/2000/svg"><g fill-rule="evenodd"><path d="M1.25 4c0-1.52 1.23-2.75 2.75-2.75h16c1.51 0 2.75 1.23 2.75 2.75v16c0 1.51-1.24 2.75-2.75 2.75H4c-1.52 0-2.75-1.24-2.75-2.75v-6c0-.42.33-.75.75-.75 .41 0 .75.33.75.75v6c0 .69.55 1.25 1.25 1.25h16c.69 0 1.25-.56 1.25-1.25V4c0-.7-.56-1.25-1.25-1.25H4c-.7 0-1.25.55-1.25 1.25v6c0 .41-.34.75-.75.75 -.42 0-.75-.34-.75-.75V4Z"/><path d="M1.25 4c0-1.52 1.23-2.75 2.75-2.75h16c1.51 0 2.75 1.23 2.75 2.75v2c0 .41-.34.75-.75.75H2c-.42 0-.75-.34-.75-.75V4ZM4 2.75c-.7 0-1.25.55-1.25 1.25v1.25h18.5V4c0-.7-.56-1.25-1.25-1.25H4Z"/><path d="M16.5 7.75c.41 0 .75.33.75.75v8c0 .41-.34.75-.75.75 -.42 0-.75-.34-.75-.75v-8c0-.42.33-.75.75-.75Z"/><path d="M16.5 17.75c.41 0 .75.33.75.75v1c0 .41-.34.75-.75.75 -.42 0-.75-.34-.75-.75v-1c0-.42.33-.75.75-.75Z"/><path d="M7.57 8.25c.41.04.71.4.67.82l-1 9.99c-.05.41-.41.71-.83.67 -.42-.05-.72-.41-.68-.83l1-10c.04-.42.4-.72.82-.68Z"/><path d="M11.57 8.25c.41.04.71.4.67.82l-1 9.99c-.05.41-.41.71-.83.67 -.42-.05-.72-.41-.68-.83l1-10c.04-.42.4-.72.82-.68Z"/><path d="M4.75 12c0-.42.33-.75.75-.75h8c.41 0 .75.33.75.75 0 .41-.34.75-.75.75h-8c-.42 0-.75-.34-.75-.75Z"/><path d="M3.75 16c0-.42.33-.75.75-.75h8c.41 0 .75.33.75.75 0 .41-.34.75-.75.75h-8c-.42 0-.75-.34-.75-.75Z"/></g></svg>