<svg viewBox="0 0 24 24" xmlns="http://www.w3.org/2000/svg"><g fill-rule="evenodd"><path d="M1.25 4c0-1.52 1.23-2.75 2.75-2.75h16c1.51 0 2.75 1.23 2.75 2.75v16c0 1.51-1.24 2.75-2.75 2.75h-8c-.42 0-.75-.34-.75-.75 0-.42.33-.75.75-.75h8c.69 0 1.25-.56 1.25-1.25V4c0-.7-.56-1.25-1.25-1.25H4c-.7 0-1.25.55-1.25 1.25v16c0 .69.55 1.25 1.25 1.25h4c.41 0 .75.33.75.75 0 .41-.34.75-.75.75H4c-1.52 0-2.75-1.24-2.75-2.75V4Z"/><path d="M1.25 4c0-1.52 1.23-2.75 2.75-2.75h16c1.51 0 2.75 1.23 2.75 2.75v2c0 .41-.34.75-.75.75H2c-.42 0-.75-.34-.75-.75V4ZM4 2.75c-.7 0-1.25.55-1.25 1.25v1.25h18.5V4c0-.7-.56-1.25-1.25-1.25H4Z"/><path d="M9.45 9.48c.14-.16.33-.24.54-.24h4c.19 0 .38.07.53.21l2 2c.25.25.29.64.09.94l-4 6c-.14.2-.38.33-.63.33s-.49-.13-.63-.33l-4.01-5.88c-.2-.3-.17-.69.07-.94l2-2.13Zm.86 1.26l-1.37 1.44 3.03 4.45 3.04-4.57 -1.35-1.35h-3.37Z"/><path d="M7.53 8.96c.29.29.29.76 0 1.06l-2.47 2.46 2.46 2.46c.29.29.29.76 0 1.06 -.3.29-.77.29-1.07 0l-3-3c-.3-.3-.3-.77 0-1.07l3-3.01c.29-.3.76-.3 1.06 0Z"/><path d="M16.46 8.96c-.3.29-.3.76 0 1.06l2.46 2.46 -2.47 2.46c-.3.29-.3.76 0 1.06 .29.29.76.29 1.06 0l3-3c.29-.3.29-.77 0-1.07l-3-3.01c-.3-.3-.77-.3-1.07 0Z"/></g></svg>