<svg viewBox="0 0 24 24" xmlns="http://www.w3.org/2000/svg"><g fill-rule="evenodd"><path d="M1.25 4c0-.42.33-.75.75-.75h6c.19 0 .38.07.53.21l3.78 3.78h9.68c.41 0 .75.33.75.75v12c0 .41-.34.75-.75.75h-20c-.42 0-.75-.34-.75-.75v-2c0-.42.33-.75.75-.75 .41 0 .75.33.75.75v1.25h18.5V8.74h-9.25c-.2 0-.39-.08-.54-.22L7.66 4.73H2.72v9.25c0 .41-.34.75-.75.75 -.42 0-.75-.34-.75-.75v-10Z"/><path d="M8.53 10.46c.29.29.29.76 0 1.06l-2.47 2.46 2.46 2.46c.29.29.29.76 0 1.06 -.3.29-.77.29-1.07 0l-3-3c-.3-.3-.3-.77 0-1.07l3-3c.29-.3.76-.3 1.06 0Z"/><path d="M15.46 10.46c-.3.29-.3.76 0 1.06l2.46 2.46 -2.47 2.46c-.3.29-.3.76 0 1.06 .29.29.76.29 1.06 0l3-3c.29-.3.29-.77 0-1.07l-3-3c-.3-.3-.77-.3-1.07 0Z"/><path d="M13.79 9.81c.38.16.55.6.39.98l-3 7c-.17.38-.61.55-.99.39 -.39-.17-.56-.61-.4-.99l3-7c.16-.39.6-.56.98-.4Z"/></g></svg>