<svg viewBox="0 0 24 24" xmlns="http://www.w3.org/2000/svg"><g fill-rule="evenodd"><path d="M1.25 2c0-.42.33-.75.75-.75h14c.19 0 .38.07.53.21l6 6c.14.14.21.33.21.53v14c0 .41-.34.75-.75.75h-1.5c-.42 0-.75-.34-.75-.75 0-.42.33-.75.75-.75h.75V8.3l-5.57-5.57H2.73v18.5h13.75c.41 0 .75.33.75.75 0 .41-.34.75-.75.75H1.98c-.42 0-.75-.34-.75-.75v-20Z"/><path d="M15.713 1.3c.28-.12.6-.06.81.16l6 6c.21.21.27.53.16.81 -.12.28-.39.46-.7.46h-6c-.42 0-.75-.34-.75-.75v-6c0-.31.18-.58.46-.7Zm1.03 2.5v3.43h3.43l-3.44-3.44Z"/><path d="M7.25 10c0-.97.78-1.75 1.75-1.75h1c.41 0 .75.33.75.75 0 .41-.34.75-.75.75H9c-.14 0-.25.11-.25.25v2.5c0 .23-.12.45-.3.6l-1.2.9 1.2.9c.18.14.3.36.3.6V18c0 .13.11.25.25.25h1c.41 0 .75.33.75.75 0 .41-.34.75-.75.75H9c-.97 0-1.75-.79-1.75-1.75v-2.125l-1.7-1.28c-.19-.15-.3-.37-.3-.6 0-.24.11-.46.3-.6l1.7-1.28V9.99Z"/><path d="M15.75 18c0 .96-.79 1.75-1.75 1.75h-1c-.42 0-.75-.34-.75-.75 0-.42.33-.75.75-.75h1c.13 0 .25-.12.25-.25v-2.5c0-.24.11-.46.3-.6l1.2-.9 -1.2-.9c-.19-.15-.3-.37-.3-.6V10c0-.14-.12-.25-.25-.25h-1c-.42 0-.75-.34-.75-.75 0-.42.33-.75.75-.75h1c.96 0 1.75.78 1.75 1.75v2.125l1.7 1.27c.18.14.3.36.3.6 0 .23-.12.45-.3.6l-1.7 1.27v2.125Z"/></g></svg>