<svg viewBox="0 0 24 24" xmlns="http://www.w3.org/2000/svg"><g fill-rule="evenodd"><path d="M1.43 1.5c.14-.17.34-.26.56-.26h20c.21 0 .41.09.56.25 .14.16.2.37.18.58l-2 16c-.04.24-.19.46-.41.57l-8 4c-.22.1-.46.1-.68 0l-8.01-4c-.23-.12-.38-.33-.41-.58l-1.25-10c-.06-.42.24-.79.65-.84 .41-.06.78.24.83.65l1.2 9.6 7.3 3.65 7.3-3.66L21.09 2.7H2.78l.14 1.15c.05.41-.25.78-.66.83 -.42.05-.79-.25-.84-.66l-.25-2c-.03-.22.03-.43.18-.59Z"/><path d="M5.25 5c0-.42.33-.75.75-.75h13c.22 0 .43.09.57.26 .14.17.2.39.16.61l-2 11c-.04.21-.17.39-.36.5l-5 3c-.24.14-.54.14-.78 0l-5-3c-.19-.12-.32-.31-.36-.52l-.5-3c-.07-.41.2-.8.61-.87 .4-.07.79.2.86.61l.44 2.65 4.31 2.59 4.32-2.6 .77-4.29H9.93c-.42 0-.75-.34-.75-.75 0-.42.33-.75.75-.75h7.37l.72-4H5.91c-.42 0-.75-.34-.75-.75Z"/></g></svg>