<svg viewBox="0 0 24 24" xmlns="http://www.w3.org/2000/svg"><g fill-rule="evenodd"><path d="M3.03 10.03c-.22.16-.29.33-.29.46 0 .12.06.29.28.46 .22.16.55.28.96.28 .4 0 .74-.13.96-.29 .21-.17.28-.34.28-.47 0-.13-.07-.3-.29-.47 -.23-.17-.56-.29-.97-.29 -.41 0-.75.12-.97.28Zm-.9-1.2c.5-.38 1.16-.59 1.86-.59 .69 0 1.36.21 1.86.58s.88.95.88 1.66c0 .7-.39 1.28-.89 1.66 -.51.37-1.17.58-1.87.58 -.7 0-1.37-.22-1.87-.59 -.504-.38-.89-.96-.89-1.67s.38-1.29.88-1.67Z"/><path d="M4 5.25c.41 0 .75.33.75.75v3c0 .41-.34.75-.75.75 -.42 0-.75-.34-.75-.75V6c0-.42.33-.75.75-.75Z"/><path d="M11.46 7.96c.29-.3.76-.3 1.06 0l3.5 3.5c.29.29.29.76 0 1.06l-3.5 3.5c-.3.29-.77.29-1.07 0l-3.51-3.5c-.3-.3-.3-.77 0-1.07l3.5-3.51Zm-1.91 4.03l2.43 2.43 2.43-2.44 -2.44-2.44 -2.44 2.43Z"/><path d="M1.25 2c0-.42.33-.75.75-.75h6c.41 0 .75.33.75.75v4c0 .41-.34.75-.75.75H2c-.42 0-.75-.34-.75-.75V2Zm1.5.75v2.5h4.5v-2.5h-4.5Z"/><path d="M15.25 18c0-.42.33-.75.75-.75h1.5c.41 0 .75.33.75.75 0 .41-.34.75-.75.75h-.75v2.5h4.5V18.7c-.3-.11-.5-.39-.5-.71 0-.42.33-.75.75-.75h.5c.41 0 .75.33.75.75v4c0 .41-.34.75-.75.75h-6c-.42 0-.75-.34-.75-.75v-4Z"/><path d="M13.03 3.53c-.22.16-.29.33-.29.46 0 .12.06.29.28.46 .22.16.55.28.96.28 .4 0 .74-.13.96-.29 .21-.17.28-.34.28-.47 0-.13-.07-.3-.29-.47 -.23-.17-.56-.29-.97-.29 -.41 0-.75.12-.97.28Zm-.9-1.2c.5-.38 1.16-.59 1.86-.59 .69 0 1.36.21 1.86.58s.88.95.88 1.66c0 .7-.39 1.28-.89 1.66 -.51.37-1.17.58-1.87.58 -.7 0-1.37-.22-1.87-.59 -.51-.38-.89-.96-.89-1.67s.38-1.29.88-1.67Z"/><path d="M9.03 19.53c-.22.16-.29.33-.29.46 0 .12.06.29.28.46 .22.16.55.28.96.28 .4 0 .74-.13.96-.29 .21-.17.28-.34.28-.47 0-.13-.07-.3-.29-.47 -.23-.17-.56-.29-.97-.29 -.41 0-.75.12-.97.28Zm-.9-1.2c.5-.38 1.16-.59 1.86-.59 .69 0 1.36.21 1.86.58s.88.95.88 1.66c0 .7-.39 1.28-.89 1.66 -.51.37-1.17.58-1.87.58 -.7 0-1.37-.22-1.87-.59 -.51-.38-.89-.96-.89-1.67s.38-1.29.88-1.67Z"/><path d="M11.25 20c0-.42.33-.75.75-.75h4c.41 0 .75.33.75.75 0 .41-.34.75-.75.75h-4c-.42 0-.75-.34-.75-.75Z"/><path d="M11.36 15.1c.21-.36.68-.46 1.03-.24l4 2.5c.35.21.45.68.23 1.03s-.69.45-1.04.23l-4-2.5c-.36-.22-.46-.69-.24-1.04Z"/><path d="M7.36 5.6c.21-.36.68-.46 1.03-.24l4 2.5c.35.21.45.68.23 1.03s-.69.45-1.04.23l-4-2.5c-.36-.22-.46-.69-.24-1.04Z"/><path d="M7.25 4c0-.42.33-.75.75-.75h4c.41 0 .75.33.75.75 0 .41-.34.75-.75.75H8c-.42 0-.75-.34-.75-.75Z"/></g></svg>