<svg viewBox="0 0 24 24" xmlns="http://www.w3.org/2000/svg"><g fill-rule="evenodd"><path d="M2.25 3.5c0-1.25 1-2.25 2.25-2.25h3c1.24 0 2.25 1 2.25 2.25v1c0 1.24-1.01 2.25-2.25 2.25h-3c-1.25 0-2.25-1.01-2.25-2.25v-1Zm2.25-.75c-.42 0-.75.33-.75.75v1c0 .41.33.75.75.75h3c.41 0 .75-.34.75-.75v-1c0-.42-.34-.75-.75-.75h-3Z"/><path d="M2.25 19.5c0-1.25 1-2.25 2.25-2.25h3c1.24 0 2.25 1 2.25 2.25v1c0 1.24-1.01 2.25-2.25 2.25h-3c-1.25 0-2.25-1.01-2.25-2.25v-1Zm2.25-.75c-.42 0-.75.33-.75.75v1c0 .41.33.75.75.75h3c.41 0 .75-.34.75-.75v-1c0-.42-.34-.75-.75-.75h-3Z"/><path d="M2.25 10c0-.42.33-.75.75-.75h6c.41 0 .75.33.75.75v4c0 .41-.34.75-.75.75H3c-.42 0-.75-.34-.75-.75v-4Zm1.5.75v2.5h4.5v-2.5h-4.5Z"/><path d="M6 5.25c.41 0 .75.33.75.75v4c0 .41-.34.75-.75.75 -.42 0-.75-.34-.75-.75V6c0-.42.33-.75.75-.75Z"/><path d="M16.96 7.96c.29-.3.76-.3 1.06 0l3.5 3.5c.29.29.29.76 0 1.06l-3.5 3.5c-.3.29-.77.29-1.07 0l-3.5-3.5c-.3-.3-.3-.77 0-1.07l3.5-3.51Zm-1.91 4.03l2.43 2.43 2.43-2.44 -2.44-2.44 -2.44 2.43Z"/><path d="M8.25 12c0-.42.33-.75.75-.75h5c.41 0 .75.33.75.75 0 .41-.34.75-.75.75H9c-.42 0-.75-.34-.75-.75Z"/><path d="M17.5 14.75c.41 0 .75.33.75.75V20c0 .41-.34.75-.75.75H15c-.42 0-.75-.34-.75-.75 0-.42.33-.75.75-.75h1.75V15.5c0-.42.33-.75.75-.75ZM8.25 20c0-.42.33-.75.75-.75h2c.41 0 .75.33.75.75 0 .41-.34.75-.75.75H9c-.42 0-.75-.34-.75-.75Z"/></g></svg>