<svg viewBox="0 0 24 24" xmlns="http://www.w3.org/2000/svg"><g fill-rule="evenodd"><path d="M1.25 2c0-.42.33-.75.75-.75h14c.19 0 .38.07.53.21l6 6c.14.14.21.33.21.53v14c0 .41-.34.75-.75.75h-20c-.42 0-.75-.34-.75-.75v-14c0-.42.33-.75.75-.75 .41 0 .75.33.75.75v13.25h18.5V8.3l-5.57-5.57H2.73v1.25c0 .41-.34.75-.75.75 -.42 0-.75-.34-.75-.75v-2Z"/><path d="M15.713 1.3c.28-.12.6-.06.81.16l6 6c.21.21.27.53.16.81 -.12.28-.39.46-.7.46h-6c-.42 0-.75-.34-.75-.75v-6c0-.31.18-.58.46-.7Zm1.03 2.5v3.43h3.43l-3.44-3.44Z"/><path d="M10.03 9.46c.29.29.29.76 0 1.06l-3.47 3.46 3.46 3.46c.29.29.29.76 0 1.06 -.3.29-.77.29-1.07 0l-4-4c-.3-.3-.3-.77 0-1.07l4-4.01c.29-.3.76-.3 1.06 0Z"/><path d="M13.96 9.46c-.3.29-.3.76 0 1.06l3.46 3.46 -3.47 3.46c-.3.29-.3.76 0 1.06 .29.29.76.29 1.06 0l4-4c.29-.3.29-.77 0-1.07l-4-4.01c-.3-.3-.77-.3-1.07 0Z"/></g></svg>