<svg viewBox="0 0 24 24" xmlns="http://www.w3.org/2000/svg"><g fill-rule="evenodd"><path d="M1.25 4c0-1.52 1.23-2.75 2.75-2.75h16c1.51 0 2.75 1.23 2.75 2.75v16c0 1.51-1.24 2.75-2.75 2.75h-9c-.42 0-.75-.34-.75-.75 0-.42.33-.75.75-.75h9c.69 0 1.25-.56 1.25-1.25V4c0-.7-.56-1.25-1.25-1.25H4c-.7 0-1.25.55-1.25 1.25v16c0 .69.55 1.25 1.25 1.25h3c.41 0 .75.33.75.75 0 .41-.34.75-.75.75H4c-1.52 0-2.75-1.24-2.75-2.75V4Z"/><path d="M1.25 4c0-1.52 1.23-2.75 2.75-2.75h16c1.51 0 2.75 1.23 2.75 2.75v2c0 .41-.34.75-.75.75H2c-.42 0-.75-.34-.75-.75V4ZM4 2.75c-.7 0-1.25.55-1.25 1.25v1.25h18.5V4c0-.7-.56-1.25-1.25-1.25H4Z"/><path d="M10.03 9.46c.29.29.29.76 0 1.06l-3.47 3.46 3.46 3.46c.29.29.29.76 0 1.06 -.3.29-.77.29-1.07 0l-4-4c-.3-.3-.3-.77 0-1.07l4-4.01c.29-.3.76-.3 1.06 0Z"/><path d="M13.96 9.46c-.3.29-.3.76 0 1.06l3.46 3.46 -3.47 3.46c-.3.29-.3.76 0 1.06 .29.29.76.29 1.06 0l4-4c.29-.3.29-.77 0-1.07l-4-4.01c-.3-.3-.77-.3-1.07 0Z"/></g></svg>