<svg viewBox="0 0 24 24" xmlns="http://www.w3.org/2000/svg"><g fill-rule="evenodd"><path d="M1.43 1.5c.14-.17.34-.26.56-.26h20c.41 0 .75.33.75.75 0 .41-.34.75-.75.75H2.83l1.84 14.75 7.3 3.65 7.3-3.66 1.45-11.61c.05-.42.42-.71.83-.66 .41.05.7.42.65.83l-1.5 12c-.04.24-.19.46-.41.57l-8 4c-.22.1-.46.1-.68 0l-8.01-4c-.23-.12-.38-.33-.41-.58l-2-16c-.03-.22.03-.43.18-.59Z"/><path d="M5.44 4.49c.14-.16.34-.25.55-.25h12c.41 0 .75.33.75.75 0 .41-.34.75-.75.75H6.81l.36 4h10.81c.22 0 .43.09.57.26 .14.17.2.39.16.61l-1 5.5c-.04.21-.17.39-.36.5l-5 3c-.24.14-.54.14-.78 0l-5-3c-.21-.13-.34-.34-.37-.58l-1-11c-.02-.21.05-.42.19-.58Zm1.87 6.75l.39 4.3 4.28 2.57 4.32-2.6 .77-4.29H7.28Z"/></g></svg>