<svg viewBox="0 0 24 24" xmlns="http://www.w3.org/2000/svg"><g fill-rule="evenodd"><path d="M4.25 4c0-1.52 1.23-2.75 2.75-2.75h10c1.51 0 2.75 1.23 2.75 2.75v10c0 .41-.34.75-.75.75 -.42 0-.75-.34-.75-.75V4c0-.7-.56-1.25-1.25-1.25H7c-.7 0-1.25.55-1.25 1.25v16c0 .69.55 1.25 1.25 1.25h10c.69 0 1.25-.56 1.25-1.25v-2c0-.42.33-.75.75-.75 .41 0 .75.33.75.75v2c0 1.51-1.24 2.75-2.75 2.75H7c-1.52 0-2.75-1.24-2.75-2.75V4Z"/><path d="M9.25 19.5c0-.42.33-.75.75-.75h4c.41 0 .75.33.75.75 0 .41-.34.75-.75.75h-4c-.42 0-.75-.34-.75-.75Z"/><path d="M6.75 5c0-.42.33-.75.75-.75h3c.41 0 .75.33.75.75v3c0 .41-.34.75-.75.75h-3c-.42 0-.75-.34-.75-.75V5Zm1.5.75v1.5h1.5v-1.5h-1.5Z"/><path d="M12.75 5c0-.42.33-.75.75-.75h3c.41 0 .75.33.75.75v3c0 .41-.34.75-.75.75h-3c-.42 0-.75-.34-.75-.75V5Zm1.5.75v1.5h1.5v-1.5h-1.5Z"/><path d="M6.75 11c0-.42.33-.75.75-.75h3c.41 0 .75.33.75.75v3c0 .41-.34.75-.75.75h-3c-.42 0-.75-.34-.75-.75v-3Zm1.5.75v1.5h1.5v-1.5h-1.5Z"/></g></svg>