<svg viewBox="0 0 24 24" xmlns="http://www.w3.org/2000/svg"><g fill-rule="evenodd"><path d="M9.25 15c0-.42.33-.75.75-.75h4c.41 0 .75.33.75.75v6c0 .41-.34.75-.75.75h-4c-.42 0-.75-.34-.75-.75v-6Zm1.5.75v4.5h2.5v-4.5h-2.5Z"/><path d="M2.25 15c0-.42.33-.75.75-.75h4c.41 0 .75.33.75.75 0 .41-.34.75-.75.75H3.75v1.5H7c.41 0 .75.33.75.75v3c0 .41-.34.75-.75.75H3c-.42 0-.75-.34-.75-.75 0-.42.33-.75.75-.75h3.25v-1.5H3c-.42 0-.75-.34-.75-.75v-3Z"/><path d="M13.25 21c0-.42.33-.75.75-.75h2c.41 0 .75.33.75.75 0 .41-.34.75-.75.75h-2c-.42 0-.75-.34-.75-.75Z"/><path d="M18 13.25c.41 0 .75.33.75.75v6.25H21c.41 0 .75.33.75.75 0 .41-.34.75-.75.75h-3c-.42 0-.75-.34-.75-.75v-7c0-.42.33-.75.75-.75Z"/><path d="M8.73 3.55c-.01 0 0-.01 0-.01 -.01 0-.01 0-.01 0Zm.04-.06c0-.01.01-.02.02-.03 .1-.1.31-.22.62-.34 .61-.24 1.52-.4 2.56-.4 1.03 0 1.94.15 2.56.39 .31.11.51.23.62.33 0 0 .01.01.02.02 -.01 0-.02.01-.03.02 -.11.09-.32.21-.63.33 -.62.23-1.53.39-2.57.39 -1.04 0-1.95-.16-2.57-.4 -.32-.12-.52-.24-.63-.34 -.01-.01-.02-.02-.03-.03Zm6.47.05c-.01 0-.01-.01-.01-.01s0 0 0 0Zm-.01-.12c0-.01 0-.01 0-.01s-.01 0-.01 0Zm-6.52 0c-.01-.01-.01-.01-.01-.01s0 0 0 0Zm.16-1.71c.82-.32 1.92-.49 3.09-.49s2.26.17 3.09.48c.41.15.79.35 1.09.61 .29.26.56.64.56 1.14 0 .49-.28.88-.57 1.14 -.3.26-.69.46-1.1.61 -.83.31-1.93.48-3.1.48 -1.18 0-2.27-.18-3.1-.49 -.42-.16-.8-.36-1.1-.62 -.3-.27-.57-.65-.57-1.15 0-.5.27-.89.56-1.15 .29-.262.68-.47 1.09-.62Z"/><path d="M8.74 6.95c-.03-.4-.35-.71-.75-.71 -.42 0-.75.33-.75.75 0 .49.27.88.56 1.14 .29.26.68.46 1.09.61 .82.31 1.92.48 3.09.48s2.26-.18 3.09-.49c.41-.16.79-.36 1.09-.62 .29-.27.56-.65.56-1.15 0-.42-.34-.75-.75-.75 -.4 0-.73.31-.75.7 -.01.01-.03.03-.07.06 -.11.09-.32.21-.63.33 -.62.23-1.53.39-2.57.39 -1.04 0-1.95-.16-2.57-.4 -.32-.12-.52-.24-.63-.34 -.04-.04-.06-.06-.07-.07Zm6.51-.02s-.01 0-.01 0c0-.01 0-.01 0-.01Zm-6.52 0c-.01-.01-.01-.01-.01-.01s0 0 0 0Z"/><path d="M8 2.75c.41 0 .75.33.75.75v6.95c.01.01.02.03.06.06 .1.09.31.21.62.33 .61.23 1.52.39 2.56.39 .41 0 .75.33.75.75 0 .41-.34.75-.75.75 -1.18 0-2.27-.18-3.1-.49 -.42-.16-.8-.36-1.1-.62 -.3-.27-.57-.65-.57-1.15v-7c0-.42.33-.75.75-.75Zm.73 7.69s0 0 0 0c-.01-.01-.01-.01-.01-.01Zm7.26-7.7c.41 0 .75.33.75.75v7c0 .41-.34.75-.75.75 -.42 0-.75-.34-.75-.75v-7c0-.42.33-.75.75-.75Z"/></g></svg>