<svg viewBox="0 0 24 24" xmlns="http://www.w3.org/2000/svg"><g fill-rule="evenodd"><path d="M1.25 4c0-1.52 1.23-2.75 2.75-2.75h16c1.51 0 2.75 1.23 2.75 2.75v16c0 1.51-1.24 2.75-2.75 2.75h-6c-.42 0-.75-.34-.75-.75 0-.42.33-.75.75-.75h6c.69 0 1.25-.56 1.25-1.25V4c0-.7-.56-1.25-1.25-1.25H4c-.7 0-1.25.55-1.25 1.25v16c0 .69.55 1.25 1.25 1.25h6c.41 0 .75.33.75.75 0 .41-.34.75-.75.75H4c-1.52 0-2.75-1.24-2.75-2.75V4Z"/><path d="M1.25 4c0-1.52 1.23-2.75 2.75-2.75h16c1.51 0 2.75 1.23 2.75 2.75v2c0 .41-.34.75-.75.75H2c-.42 0-.75-.34-.75-.75V4ZM4 2.75c-.7 0-1.25.55-1.25 1.25v1.25h18.5V4c0-.7-.56-1.25-1.25-1.25H4Z"/><path d="M13.5 8.25c.41 0 .75.33.75.75v3c0 .69.55 1.25 1.25 1.25h2.75V9c0-.42.33-.75.75-.75 .41 0 .75.33.75.75v8c0 1.51-1.24 2.75-2.75 2.75h-3.5c-.42 0-.75-.34-.75-.75 0-.42.33-.75.75-.75H17c.69 0 1.25-.56 1.25-1.25v-2.25H15.5c-1.52 0-2.75-1.24-2.75-2.75V9c0-.42.33-.75.75-.75Z"/><path d="M4.25 9c0-.42.33-.75.75-.75h3.5c1.51 0 2.75 1.23 2.75 2.75v1c0 1.51-1.24 2.75-2.75 2.75H5.75V19c0 .41-.34.75-.75.75 -.42 0-.75-.34-.75-.75V9Zm1.5 4.25H8.5c.69 0 1.25-.56 1.25-1.25v-1c0-.7-.56-1.25-1.25-1.25H5.75v3.5Z"/></g></svg>