<svg viewBox="0 0 24 24" xmlns="http://www.w3.org/2000/svg"><g fill-rule="evenodd"><path d="M1.25 2c0-.42.33-.75.75-.75h8c.41 0 .75.33.75.75 0 .41-.34.75-.75.75H2.75v18.5h18.5V8.31l-5.57-5.57h-1.69c-.42 0-.75-.34-.75-.75 0-.42.33-.75.75-.75h2c.19 0 .38.07.53.21l6 6c.14.14.21.33.21.53v14c0 .41-.34.75-.75.75h-20c-.42 0-.75-.34-.75-.75v-20Z"/><path d="M15.713 1.3c.28-.12.6-.06.81.16l6 6c.21.21.27.53.16.81 -.12.28-.39.46-.7.46h-6c-.42 0-.75-.34-.75-.75v-6c0-.31.18-.58.46-.7Zm1.03 2.5v3.43h3.43l-3.44-3.44Z"/><path d="M11.25 13.5c0-.42.33-.75.75-.75h2c1.24 0 2.25 1 2.25 2.25 0 1.24-1.01 2.25-2.25 2.25h-.19l2.21 2.21c.29.29.29.76 0 1.06 -.3.29-.77.29-1.07 0l-2.22-2.22v1.68c0 .41-.34.75-.75.75 -.42 0-.75-.34-.75-.75v-6.5Zm1.5 2.25v-1.5H14c.41 0 .75.33.75.75 0 .41-.34.75-.75.75h-1.25Z"/><path d="M6.88 11.19c-1.19.59-1.64 1.27-1.64 1.8 0 .52.44 1.21 1.63 1.8 1.14.57 2.77.94 4.61.94 .15 0 .31-.01.47-.01 .41-.02.76.3.77.72 .01.41-.31.76-.73.77 -.18 0-.35 0-.53 0 -2.03 0-3.9-.41-5.29-1.11 -1.35-.68-2.47-1.75-2.47-3.15 0-1.41 1.11-2.48 2.46-3.15 1.39-.7 3.26-1.11 5.28-1.11 2.02 0 3.89.4 5.28 1.1 1.34.67 2.46 1.74 2.46 3.14 0 1.55-1.38 2.705-2.96 3.37 -.11.04-.29.1-.5.09 -.09-.01-.16-.02-.23-.05 -.36.03-.7-.19-.8-.54 -.12-.4.11-.82.51-.93 .13-.04.3-.08.49-.05 .02 0 .04 0 .07.01 1.35-.61 1.89-1.36 1.89-1.93 0-.53-.45-1.22-1.64-1.81 -1.15-.58-2.78-.95-4.62-.95 -1.85 0-3.48.37-4.62.94Zm9.3 3.87s0 0 0 0 0 0 0 0 0 0 0 0m-.48 1.31s-.01 0-.01 0c0-.01 0-.01 0-.01Z"/></g></svg>