<svg viewBox="0 0 24 24" xmlns="http://www.w3.org/2000/svg"><g fill-rule="evenodd"><path d="M1.25 2c0-.42.33-.75.75-.75h14c.19 0 .38.07.53.21l6 6c.14.14.21.33.21.53v14c0 .41-.34.75-.75.75h-20c-.42 0-.75-.34-.75-.75v-13c0-.42.33-.75.75-.75 .41 0 .75.33.75.75v12.25h18.5V8.3l-5.57-5.57H2.73v2.25c0 .41-.34.75-.75.75 -.42 0-.75-.34-.75-.75v-3Z"/><path d="M15.713 1.3c.28-.12.6-.06.81.16l6 6c.21.21.27.53.16.81 -.12.28-.39.46-.7.46h-6c-.42 0-.75-.34-.75-.75v-6c0-.31.18-.58.46-.7Zm1.03 2.5v3.43h3.43l-3.44-3.44Z"/><path d="M4.25 11c0-1.52 1.23-2.75 2.75-2.75h3.5c.41 0 .75.33.75.75 0 .41-.34.75-.75.75H7c-.7 0-1.25.55-1.25 1.25v1c0 .69.55 1.25 1.25 1.25h1.5c1.51 0 2.75 1.23 2.75 2.75v1c0 1.51-1.24 2.75-2.75 2.75H5c-.42 0-.75-.34-.75-.75 0-.42.33-.75.75-.75h3.5c.69 0 1.25-.56 1.25-1.25v-1c0-.7-.56-1.25-1.25-1.25H7c-1.52 0-2.75-1.24-2.75-2.75v-1Z"/><path d="M16.165 11.25c.41 0 .75.33.75.75v5c0 .41-.34.75-.75.75 -.42 0-.75-.34-.75-.75v-5c0-.42.33-.75.75-.75Z"/><path d="M13.35 12.87c.2-.36.66-.49 1.02-.28l4.33 2.5c.35.2.48.66.27 1.02 -.21.35-.67.48-1.03.27l-4.34-2.5c-.36-.21-.49-.67-.28-1.03Z"/><path d="M18.97 12.87c-.21-.36-.67-.49-1.03-.28l-4.34 2.5c-.36.2-.49.66-.28 1.02 .2.35.66.48 1.02.27l4.33-2.5c.35-.21.48-.67.27-1.03Z"/></g></svg>