<svg viewBox="0 0 24 24" xmlns="http://www.w3.org/2000/svg"><g fill-rule="evenodd"><path d="M1.25 2c0-.42.33-.75.75-.75h20c.41 0 .75.33.75.75v16c0 .41-.34.75-.75.75H2c-.42 0-.75-.34-.75-.75V6c0-.42.33-.75.75-.75 .41 0 .75.33.75.75v11.25h18.5V2.75H2c-.42 0-.75-.34-.75-.75Z"/><path d="M9.25 18c0-.42.33-.75.75-.75h4c.41 0 .75.33.75.75v4c0 .41-.34.75-.75.75h-4c-.42 0-.75-.34-.75-.75v-4Zm1.5.75v2.5h2.5v-2.5h-2.5Z"/><path d="M5.25 22c0-.42.33-.75.75-.75h12c.41 0 .75.33.75.75 0 .41-.34.75-.75.75H6c-.42 0-.75-.34-.75-.75Z"/><path d="M4.25 8.5c0-.42.33-.75.75-.75h4c.41 0 .75.33.75.75v3c0 .41-.34.75-.75.75H5c-.42 0-.75-.34-.75-.75v-3Zm1.5.75v1.5h2.5v-1.5h-2.5Z"/><path d="M15.25 5c0-.42.33-.75.75-.75h3c.41 0 .75.33.75.75v3c0 .41-.34.75-.75.75h-3c-.42 0-.75-.34-.75-.75V5Zm1.5.75v1.5h1.5v-1.5h-1.5Z"/><path d="M15.25 12c0-.42.33-.75.75-.75h3c.41 0 .75.33.75.75v3c0 .41-.34.75-.75.75h-3c-.42 0-.75-.34-.75-.75v-3Zm1.5.75v1.5h1.5v-1.5h-1.5Z"/><path d="M11.25 6c0-.42.33-.75.75-.75h4c.41 0 .75.33.75.75 0 .41-.34.75-.75.75h-3.25v6H16c.41 0 .75.33.75.75 0 .41-.34.75-.75.75h-4c-.42 0-.75-.34-.75-.75v-2.75H9c-.42 0-.75-.34-.75-.75 0-.42.33-.75.75-.75h2.25V6Z"/></g></svg>