<svg viewBox="0 0 24 24" xmlns="http://www.w3.org/2000/svg"><g fill-rule="evenodd"><path d="M1.25 4c0-1.52 1.23-2.75 2.75-2.75h16c1.51 0 2.75 1.23 2.75 2.75v16c0 1.51-1.24 2.75-2.75 2.75H8.5c-.42 0-.75-.34-.75-.75 0-.42.33-.75.75-.75H20c.69 0 1.25-.56 1.25-1.25V4c0-.7-.56-1.25-1.25-1.25H4c-.7 0-1.25.55-1.25 1.25v16c0 .69.55 1.25 1.25 1.25h.5c.41 0 .75.33.75.75 0 .41-.34.75-.75.75H4c-1.52 0-2.75-1.24-2.75-2.75V4Z"/><path d="M1.25 4c0-1.52 1.23-2.75 2.75-2.75h16c1.51 0 2.75 1.23 2.75 2.75v2c0 .41-.34.75-.75.75H2c-.42 0-.75-.34-.75-.75V4ZM4 2.75c-.7 0-1.25.55-1.25 1.25v1.25h18.5V4c0-.7-.56-1.25-1.25-1.25H4Z"/><path d="M9.53 9.46c.29.29.29.76 0 1.06l-3.47 3.46 3.46 3.46c.29.29.29.76 0 1.06 -.3.29-.77.29-1.07 0l-4-4c-.3-.3-.3-.77 0-1.07l4-4.01c.29-.3.76-.3 1.06 0Z"/><path d="M12.58 8.87c.34-.23.81-.14 1.04.2l6 9c.22.34.13.81-.21 1.04 -.35.22-.82.13-1.05-.21l-6-9c-.23-.35-.14-.82.2-1.05Z"/><path d="M19.41 8.87c-.35-.23-.82-.14-1.04.2l-6 9c-.23.34-.14.81.2 1.04 .34.22.81.13 1.04-.21l6-9c.22-.35.13-.82-.21-1.05Z"/></g></svg>