<svg viewBox="0 0 24 24" xmlns="http://www.w3.org/2000/svg"><g fill-rule="evenodd"><path d="M12.88 1.5c.2 0 .38.13.45.32l1.33 3.56c.74 1.98-.73 4.11-2.85 4.11 -2.01 0-3.47-1.91-2.94-3.85l.43-1.6c.05-.19.2-.33.38-.36 .18-.04.37.03.49.19l.8 1.06 1.4-3.16c.08-.19.26-.31.47-.3Zm-.06 1.81l-1.26 2.82c-.08.16-.23.27-.41.29 -.18.01-.35-.06-.46-.2l-.7-.94 -.17.61c-.36 1.29.62 2.58 1.97 2.58 1.42 0 2.41-1.43 1.91-2.77l-.91-2.42Z"/><path d="M6.5 12.5c0-1.11.89-2 2-2h7c1.1 0 2 .89 2 2v.5c0 .82-.68 1.5-1.5 1.5h-3.5v.5c0 .82-.68 1.5-1.5 1.5 -.28 0-.5.22-.5.5 0 1.1-.9 2-2 2 -1.11 0-2-.9-2-2v-4.5Zm2-1c-.56 0-1 .44-1 1V17c0 .55.44 1 1 1 .55 0 1-.45 1-1 0-.83.67-1.5 1.5-1.5 .27 0 .5-.23.5-.5v-1c0-.28.22-.5.5-.5h4c.27 0 .5-.23.5-.5v-.5c0-.56-.45-1-1-1h-7Z"/><path d="M15.5 21.5V14h1v8c0 .27-.23.5-.5.5H8c-.28 0-.5-.23-.5-.5v-3.5h1v3h7Z"/></g></svg>