<svg viewBox="0 0 24 24" xmlns="http://www.w3.org/2000/svg"><g fill-rule="evenodd"><path d="M7.89 2.98c-1.35 0-2.43 1.08-2.43 2.42v8.78c0 .03 0 .07 0 .11 0 .15-.06.29-.17.39 -.8.71-1.3 1.74-1.3 2.9 0 2.14 1.74 3.89 3.89 3.89 2.14 0 3.89-1.75 3.89-3.9 0-1.16-.51-2.19-1.3-2.91 -.12-.11-.18-.25-.17-.4 0-.04 0-.08 0-.12V5.35c0-1.35-1.09-2.43-2.43-2.43ZM4.46 5.4c0-1.9 1.53-3.43 3.42-3.43s3.42 1.53 3.42 3.42v8.7c.9.88 1.46 2.12 1.46 3.48 0 2.7-2.19 4.89-4.9 4.89 -2.71 0-4.9-2.19-4.9-4.9 0-1.37.56-2.61 1.46-3.49V5.36Z"/><path d="M7.89 16.15c-.81 0-1.46.64-1.46 1.45 0 .8.64 1.45 1.45 1.45 .8 0 1.45-.65 1.45-1.46 0-.81-.65-1.46-1.46-1.46ZM5.43 17.6c0-1.36 1.09-2.46 2.45-2.46 1.35 0 2.45 1.09 2.45 2.45 0 1.35-1.1 2.45-2.46 2.45 -1.36 0-2.46-1.1-2.46-2.46Z"/><path d="M15.19 13.21V1.99h1V13.2h-1Z"/><path d="M20.3 10.84l-7.45-4.3 .5-.87 7.44 4.29 -.5.86Z"/><path d="M20.3 4.37l-7.62 4.39 .5.86 7.61-4.4 -.5-.87Z"/></g></svg>