<svg viewBox="0 0 24 24" xmlns="http://www.w3.org/2000/svg"><g fill-rule="evenodd"><path d="M11.107 2.5c-2.87 0-5.16 2.22-5.16 4.92 0 .08 0 .17 0 .25 0 .13-.05.27-.14.37 -.1.09-.23.15-.37.15h-.01c-1.39 0-2.48 1.07-2.48 2.35s1.08 2.35 2.47 2.35h11.9c.37 0 .73-.09 1.05-.23 .01-.01.02-.02.03-.02 1.51-.55 2.57-1.94 2.57-3.55 0-2.08-1.76-3.79-3.97-3.79 -.29 0-.56.02-.83.08 -.22.04-.44-.06-.54-.26 -.86-1.59-2.59-2.69-4.6-2.69ZM4.94 7.24c.09-3.21 2.83-5.75 6.15-5.75 2.24 0 4.21 1.15 5.29 2.89 .21-.03.43-.05.66-.05 2.72 0 4.96 2.12 4.96 4.78 0 2.06-1.35 3.8-3.22 4.48 -.45.19-.94.3-1.45.3H5.42c-1.91 0-3.48-1.484-3.48-3.36 0-1.71 1.3-3.1 2.97-3.33Z"/><path d="M11.49 22v-6.67h1v6.66h-1Z"/><path d="M14.63 20.76l-5.78-3.34 .5-.87 5.77 3.33 -.5.86Z"/><path d="M9.36 20.76l5.77-3.34 -.5-.87 -5.78 3.33 .5.86Z"/></g></svg>