<svg viewBox="0 0 24 24" xmlns="http://www.w3.org/2000/svg"><g fill-rule="evenodd"><path d="M1.5 6c0-1.39 1.11-2.5 2.5-2.5 1.38 0 2.5 1.11 2.5 2.5v9c0 1.38-1.12 2.5-2.5 2.5 -1.39 0-2.5-1.12-2.5-2.5V6ZM4 4.5c-.83 0-1.5.67-1.5 1.5v9c0 .82.67 1.5 1.5 1.5 .82 0 1.5-.68 1.5-1.5V6c0-.83-.68-1.5-1.5-1.5Z"/><path d="M17.5 6c0-1.39 1.11-2.5 2.5-2.5 1.38 0 2.5 1.11 2.5 2.5v9c0 1.38-1.12 2.5-2.5 2.5 -1.39 0-2.5-1.12-2.5-2.5V6ZM20 4.5c-.83 0-1.5.67-1.5 1.5v9c0 .82.67 1.5 1.5 1.5 .82 0 1.5-.68 1.5-1.5V6c0-.83-.68-1.5-1.5-1.5Z"/><path d="M5.5 5c0-.28.22-.5.5-.5h12c.27 0 .5.22.5.5v11c0 .27-.23.5-.5.5H6c-.28 0-.5-.23-.5-.5V5Zm1 .5v10h11v-10h-11Z"/><path d="M8.5 13.5v-6h1v6h-1Z"/><path d="M11.5 13.5v-6h1v6h-1Z"/><path d="M14.5 13.5v-6h1v6h-1Z"/><path d="M3.5 20v-3h1v3h-1Z"/><path d="M19.5 20v-3h1v3h-1Z"/></g></svg>