<svg viewBox="0 0 24 24" xmlns="http://www.w3.org/2000/svg"><g fill-rule="evenodd"><path d="M1.5 6c0-1.39 1.11-2.5 2.5-2.5h16c1.38 0 2.5 1.11 2.5 2.5v8c0 1.38-1.12 2.5-2.5 2.5H4c-1.39 0-2.5-1.12-2.5-2.5V6ZM4 4.5c-.83 0-1.5.67-1.5 1.5v8c0 .82.67 1.5 1.5 1.5h16c.82 0 1.5-.68 1.5-1.5V6c0-.83-.68-1.5-1.5-1.5H4Z"/><path d="M3.5 20v-4h1v4h-1Z"/><path d="M19.5 20v-4h1v4h-1Z"/><path d="M5.5 13.5v-7h1v7h-1Z"/><path d="M8.5 13.5v-7h1v7h-1Z"/><path d="M11.5 13.5v-7h1v7h-1Z"/><path d="M14.5 13.5v-7h1v7h-1Z"/><path d="M17.5 13.5v-7h1v7h-1Z"/></g></svg>