<svg viewBox="0 0 24 24" xmlns="http://www.w3.org/2000/svg"><g fill-rule="evenodd"><path d="M11.64 11.64c.19-.2.51-.2.7 0l3.25 3.25 4.18-1.93c.15-.08.33-.06.47.03 .14.09.23.25.23.42 0 4.97-3.78 9.07-8.5 9.07 -4.73 0-8.5-4.1-8.5-9.08 0-.18.08-.33.23-.43 .14-.1.32-.11.47-.04l4.18 1.92 3.25-3.26Zm.35 1.06l-3.15 3.14c-.15.14-.38.18-.57.1l-3.76-1.73c.37 4.11 3.6 7.27 7.46 7.27s7.09-3.17 7.46-7.28l-3.76 1.72c-.2.08-.42.04-.57-.11l-3.15-3.15Z"/><path d="M11.64 6.64c.19-.2.51-.2.7 0l2.74 2.74 3.67-1.84c.15-.08.33-.07.48.02 .14.09.23.25.23.42v6h-1v-5.2l-3.28 1.63c-.2.09-.43.05-.58-.1l-2.65-2.65L9.3 10.3c-.16.15-.39.18-.58.09L5.44 8.75v5.19h-1v-6c0-.18.08-.34.23-.43 .14-.1.33-.1.48-.03l3.67 1.83 2.74-2.75Z"/><path d="M12 1.5c.16 0 .32.08.41.22l1.77 2.66 2.62-1.02c.14-.06.3-.05.44.03 .13.08.22.21.23.37l.5 4.65 -1 .1 -.44-4.01 -2.4.92c-.22.08-.47 0-.6-.19l-1.59-2.38 -1.59 2.37c-.13.19-.38.27-.6.18l-2.4-.93 -.44 4 -1-.11 .5-4.66c.01-.16.1-.3.23-.38 .13-.09.29-.1.44-.04L9.7 4.29l1.77-2.67c.09-.14.24-.23.41-.23Z"/></g></svg>