<svg viewBox="0 0 24 24" xmlns="http://www.w3.org/2000/svg"><g fill-rule="evenodd"><path d="M17.14 3.14c1.02-1.03 2.68-1.03 3.7 0 1.02 1.02 1.02 2.68 0 3.7l-15.5 15.5c-.2.19-.52.19-.71 0l-3-3c-.1-.1-.15-.23-.15-.36 0-.14.05-.26.14-.36l15.5-15.5Zm3 .7c-.64-.64-1.66-.64-2.3 0L2.69 18.98l2.29 2.29L20.12 6.12c.63-.64.63-1.66 0-2.3Z"/><path d="M6.85 3.14c-1.03-1.03-2.69-1.03-3.71 0 -1.03 1.02-1.03 2.68 0 3.7l5.5 5.5 .7-.71 -5.5-5.51c-.64-.64-.64-1.66-.001-2.3 .63-.64 1.65-.64 2.29 0l5.49 5.5 .7-.71 -5.51-5.5Zm14.43 15.85l-6.65-6.65 .7-.71 7 7c.19.19.19.51 0 .7l-3 3c-.2.19-.52.19-.71 0l-7-7 .7-.71 6.64 6.64 2.29-2.3Z"/></g></svg>