<svg viewBox="0 0 24 24" xmlns="http://www.w3.org/2000/svg"><g fill-rule="evenodd"><path d="M11.5 22V2h1v20h-1Z"/><path d="M12 5.29L8.35 1.64l-.71.7 4 4c.19.19.51.19.7 0l4-4 -.71-.71 -3.65 3.64Z"/><path d="M12 18.7l-3.65 3.64 -.71-.71 4-4c.19-.2.51-.2.7 0l4 4 -.71.7 -3.65-3.65Z"/><path d="M20.41 17.433l-17.33-10 .5-.87 17.32 10 -.5.86Z"/><path d="M6.19 8.64L1.2 9.97l.25.96 5.46-1.47c.26-.08.42-.35.35-.62L5.79 3.37l-.97.25L6.15 8.6Z"/><path d="M17.8 15.35l1.33 4.98 -.97.25 -1.47-5.47c-.08-.27.08-.55.35-.62l5.46-1.47 .25.96 -4.99 1.33Z"/><path d="M3.58 17.433l17.32-10 -.5-.87 -17.33 10 .5.86Z"/><path d="M17.8 8.64l4.98 1.33 -.26.96 -5.47-1.47c-.27-.08-.43-.35-.36-.62l1.46-5.47 .96.25 -1.34 4.98Z"/><path d="M6.19 15.35l-1.34 4.98 .96.25 1.46-5.47c.07-.27-.09-.55-.36-.62l-5.47-1.47 -.26.96 4.98 1.33Z"/></g></svg>