<svg viewBox="0 0 24 24" xmlns="http://www.w3.org/2000/svg"><g fill-rule="evenodd"><path d="M1.5 18c0-.28.22-.5.5-.5h20c.27 0 .5.22.5.5v4c0 .27-.23.5-.5.5H2c-.28 0-.5-.23-.5-.5v-4Zm1 .5v3h19v-3h-19Z"/><path d="M12 2.5c-5.25 0-9.5 4.25-9.5 9.5 0 2.05.64 3.94 1.75 5.5h15.49c1.1-1.56 1.75-3.45 1.75-5.5 0-5.25-4.26-9.5-9.5-9.5ZM1.5 12C1.5 6.2 6.2 1.5 12 1.5c5.79 0 10.5 4.7 10.5 10.5 0 2.36-.79 4.54-2.1 6.3 -.1.12-.25.19-.4.19H3.99c-.16 0-.31-.08-.4-.2 -1.32-1.76-2.1-3.94-2.1-6.31Z"/><path d="M10 14.5V18H9v-3.5h1Z"/><path d="M7.81 5.38c.16-.81.86-1.39 1.68-1.39 .81 0 1.52.57 1.68 1.38l1.8 9.01c.02.14-.01.29-.11.41 -.1.11-.24.18-.39.18h-6c-.15 0-.3-.07-.39-.19 -.1-.12-.14-.27-.11-.42l1.8-9.02Zm1.68-.39c-.35 0-.64.24-.71.57l-1.69 8.42h4.78l-1.69-8.43c-.07-.34-.37-.58-.71-.58Z"/><path d="M17.5 15v3h-1v-3h1Z"/><path d="M15.71 8.56c.11-.62.65-1.07 1.28-1.07 .62 0 1.16.44 1.28 1.06l1.2 6.34c.02.14-.02.29-.11.41 -.1.11-.24.18-.39.18h-4c-.15 0-.3-.07-.39-.19 -.1-.12-.14-.266-.11-.42l1.2-6.35Zm1.28-.07c-.15 0-.28.1-.31.24l-1.1 5.75h2.79l-1.1-5.76c-.03-.15-.16-.25-.31-.25Z"/></g></svg>