<svg viewBox="0 0 24 24" xmlns="http://www.w3.org/2000/svg"><g fill-rule="evenodd"><path d="M7.27 6.55c.19-.1.42-.06.57.09l4.85 4.85h8.79c.27 0 .5.22.5.5v3c0 .27-.23.5-.5.5h-16c-.15 0-.29-.07-.38-.18l-3-3.5c-.08-.1-.13-.21-.13-.33v-2c0-.19.1-.37.27-.45l5-2.5ZM2.99 9.8v1.5l2.72 3.18h15.27v-2h-8.5c-.14 0-.26-.06-.36-.15L7.37 7.58l-4.41 2.2Z"/><path d="M9.42 5.54c.14-.07.3-.07.44.01l1.86 1 -.48.88 -1.65-.89 -1.92.89 -.43-.91 2.13-1Z"/><path d="M3.05 18.23l-1-1.87 .88-.48 .85 1.6h5.7v1h-6c-.19 0-.36-.11-.45-.27Z"/><path d="M12.5 17c0-1.39 1.11-2.5 2.5-2.5h5c1.38 0 2.5 1.11 2.5 2.5 0 1.38-1.12 2.5-2.5 2.5h-5c-1.39 0-2.5-1.12-2.5-2.5Zm2.5-1.5c-.83 0-1.5.67-1.5 1.5 0 .82.67 1.5 1.5 1.5h5c.82 0 1.5-.68 1.5-1.5 0-.83-.68-1.5-1.5-1.5h-5Z"/><path d="M21 10h-7V9h7v1Z"/></g></svg>