<svg viewBox="0 0 24 24" xmlns="http://www.w3.org/2000/svg"><g fill-rule="evenodd"><path d="M5.5 21.5V14h-1v8c0 .27.22.5.5.5h14c.27 0 .5-.23.5-.5v-8h-1v7.5h-13Z"/><path d="M11.64 1.64c.19-.2.51-.2.7 0l10 9.99c.09.09.14.22.14.35v5c0 .2-.13.38-.31.46 -.19.07-.41.03-.55-.11l-9.65-9.65 -.5.5v5.29c0 1.1-.9 2-2 2 -1.11 0-2-.9-2-2v-1.3l-5.15 5.14c-.15.14-.36.18-.55.1 -.19-.08-.31-.26-.31-.47v-5c0-.14.05-.26.14-.36l9.99-10ZM2.49 12.2v3.58l5.14-5.15c.14-.15.35-.19.54-.11 .18.07.3.25.3.46v2.5c0 .55.44 1 1 1 .55 0 1-.45 1-1v-5.5c0-.14.05-.26.14-.36l1-1c.19-.2.51-.2.7 0l9.14 9.14v-3.59l-9.5-9.5 -9.5 9.49Z"/><path d="M9.5 17c0-.28.22-.5.5-.5h4c.27 0 .5.22.5.5v5c0 .27-.23.5-.5.5h-4c-.28 0-.5-.23-.5-.5v-5Zm1 .5v4h3v-4h-3Z"/></g></svg>