<svg viewBox="0 0 24 24" xmlns="http://www.w3.org/2000/svg"><g fill-rule="evenodd"><path d="M8 2.5C4.96 2.5 2.5 4.96 2.5 8c0 3.03 2.46 5.5 5.5 5.5 3.03 0 5.5-2.47 5.5-5.5 0-3.04-2.47-5.5-5.5-5.5ZM1.5 8c0-3.59 2.91-6.5 6.5-6.5 3.58 0 6.5 2.91 6.5 6.5 0 3.58-2.92 6.5-6.5 6.5 -3.59 0-6.5-2.92-6.5-6.5Z"/><path d="M8.6 8.9l.83-1.68 -.9-.45 -1 2c-.1.19-.06.42.09.57l1.71 1.71 -1.78 2.65 .83.55 1.99-3c.13-.2.1-.47-.07-.64L8.55 8.86Z"/><path d="M12.85 12.14l9.5 9.5 -.71.7 -9.5-9.5 .7-.71Z"/><path d="M11.8 19.359l-5.16-5 .69-.72 5.15 5 -.7.71Z"/><path d="M20.64 14.35l-7-7 .7-.71 7 6.99 -.71.7Z"/></g></svg>