<svg viewBox="0 0 24 24" xmlns="http://www.w3.org/2000/svg"><g fill-rule="evenodd"><path d="M5.99 13.38l-1.56-3.11 -.9.44 2 4c.08.16.25.27.44.27 .18 0 .36-.11.44-.28l1.5-3 -.9-.45 -1.06 2.1Zm10.33 1.24l1.2-2.83 .91.39 -1.5 3.5c-.07.15-.21.26-.37.29 -.17.03-.34-.03-.45-.14l-1.55-1.55 -2.68 4.45c-.11.17-.31.26-.51.23 -.21-.03-.37-.18-.42-.38l-1.51-6 .97-.25 1.2 4.82 2.37-3.97c.07-.14.21-.23.36-.24 .15-.02.3.03.41.14l1.47 1.47Z"/><path d="M1.62 4.67c.09-.11.23-.18.37-.18h20c.14 0 .28.06.38.17 .09.11.13.26.1.4l-2 11c-.04.21-.21.37-.43.4 -.22.03-.43-.08-.52-.28L15.9 8.95l-1.53 2.28c-.1.13-.25.22-.42.22 -.17 0-.33-.09-.42-.23l-1.49-2.24 -2.64 6.15c-.08.18-.26.3-.46.3 -.21 0-.39-.12-.46-.31L5.82 8.91l-2.49 3.3c-.13.16-.33.23-.53.18 -.2-.06-.35-.22-.38-.42l-1-7c-.03-.15.02-.29.11-.4Zm.95.82l.74 5.23 2.27-3.04c.1-.15.28-.22.45-.2 .17.02.32.13.4.29l2.54 5.92 2.54-5.93c.07-.17.23-.29.41-.31 .18-.02.35.06.46.22l1.58 2.37 1.58-2.38c.09-.15.26-.24.44-.23 .17.01.33.11.41.27l3.32 6.65 1.62-8.94H2.5Z"/></g></svg>