<svg viewBox="0 0 24 24" xmlns="http://www.w3.org/2000/svg"><path fill-rule="evenodd" d="M3.18 8.29c-.92-2.3.77-4.8 3.24-4.8h11.72c2.27 0 3.94 2.13 3.39 4.34l-1.07 4.27c-.05.18-.19.32-.38.36 -.19.04-.38-.02-.5-.17l-2.44-2.84 -3.72 10.67c-.07.19-.25.32-.46.33 -.21 0-.4-.12-.48-.31l-3.69-8.76 -2.48 2.88c-.12.13-.29.19-.47.16s-.32-.15-.39-.31L3.09 8.22Zm3.24-3.8c-1.77 0-2.98 1.78-2.33 3.42l2.04 5.11 2.46-2.88c.11-.14.28-.2.45-.17 .17.02.31.14.38.3l3.49 8.29 3.57-10.28c.05-.17.2-.3.37-.33 .17-.04.35.03.47.16l2.37 2.76 .83-3.34c.39-1.58-.8-3.11-2.43-3.11H6.36Z"/></svg>