<svg viewBox="0 0 24 24" xmlns="http://www.w3.org/2000/svg"><g fill-rule="evenodd"><path d="M1.5 4c0-.28.22-.5.5-.5h20c.27 0 .5.22.5.5v4.03c0 .14-.07.28-.18.37 -.11.09-.26.13-.4.11 -.14-.03-.29-.04-.43-.04 -1.66 0-3 1.34-3 3 0 1.65 1.34 3 3 3 .14 0 .28-.02.42-.04 .14-.03.28.02.39.11 .1.09.17.23.17.37v4.03c0 .27-.23.5-.5.5h-20c-.28 0-.5-.23-.5-.5V14.9c0-.25.18-.46.42-.5 1.45-.21 2.57-1.46 2.57-2.97 0-1.52-1.12-2.77-2.58-2.97 -.25-.04-.43-.25-.43-.5V3.92Zm1 .5v3.12c1.72.44 3 2 3 3.87 0 1.86-1.28 3.42-3 3.87v3.12h19v-3c-2.21 0-4-1.8-4-4 0-2.21 1.79-4 4-4v-3h-19Z"/><path d="M11.5 15.5v-8h1v8h-1Z"/><path d="M15.21 13.933l-6.93-4.01 .5-.87 6.92 4 -.5.86Z"/><path d="M8.78 13.933l6.92-4.01 -.5-.87 -6.93 4 .5.86Z"/></g></svg>