<svg viewBox="0 0 24 24" xmlns="http://www.w3.org/2000/svg"><g fill-rule="evenodd"><path d="M4.5 5.5c0-.28.22-.5.5-.5h14c.27 0 .5.22.5.5C19.5 6.88 20.61 8 22 8c.27 0 .5.22.5.5v7c0 .27-.23.5-.5.5 -1.39 0-2.5 1.11-2.5 2.5 0 .27-.23.5-.5.5H5c-.28 0-.5-.23-.5-.5C4.5 17.11 3.38 16 2 16c-.28 0-.5-.23-.5-.5v-7c0-.28.22-.5.5-.5 1.38 0 2.5-1.12 2.5-2.5Zm.96.5c-.22 1.53-1.44 2.74-2.97 2.96v6.07c1.53.21 2.74 1.43 2.96 2.96h13.07c.21-1.54 1.43-2.75 2.96-2.97V8.94c-1.54-.22-2.75-1.44-2.97-2.97H5.43Z"/><path d="M11.46 16V8h1v8h-1Z"/><path d="M15.17 14.433l-6.93-4 .5-.87 6.92 4 -.5.86Z"/><path d="M8.75 14.433l6.92-4 -.5-.87 -6.93 4 .5.86Z"/></g></svg>