<svg viewBox="0 0 24 24" xmlns="http://www.w3.org/2000/svg"><path fill="#ECEFF1" d="M12 1.25C6.06 1.25 1.25 6.06 1.25 12c0 5.93 4.81 10.75 10.75 10.75 5.93 0 10.75-4.82 10.75-10.75 0-5.94-4.82-10.75-10.75-10.75Z"/><path fill="#EE4D4D" d="M16.41 6.59c.28-.13.6-.06.82.15 .21.21.27.54.15.82l-2.83 6.59c-.08.17-.22.31-.4.39l-6.6 2.82c-.29.12-.61.05-.83-.16 -.22-.22-.28-.55-.16-.83l2.82-6.6c.07-.18.21-.32.39-.4l6.59-2.83Z"/><g fill="#8B98A6" fill-rule="evenodd"><path d="M12.75 1.25V4c0 .41-.34.75-.75.75 -.42 0-.75-.34-.75-.75V1.25h1.5Z"/><path d="M12 19.25c.41 0 .75.33.75.75v2.75h-1.5V20c0-.42.33-.75.75-.75Z"/><path d="M1.25 11.25H4c.41 0 .75.33.75.75 0 .41-.34.75-.75.75H1.25v-1.5Z"/><path d="M19.25 12c0-.42.33-.75.75-.75h2.75v1.5H20c-.42 0-.75-.34-.75-.75Z"/></g></svg>