<svg viewBox="0 0 24 24" xmlns="http://www.w3.org/2000/svg"><g fill="#8B98A6" fill-rule="evenodd"><path d="M9.22 15.25c.11.39-.12.81-.52.92 -.98.28-1.75.67-2.26 1.1 -.52.43-.71.84-.71 1.2 0 .52.44 1.21 1.63 1.8 1.14.57 2.77.94 4.61.94 1.84 0 3.47-.38 4.61-.95 1.18-.6 1.63-1.28 1.63-1.81 0-.36-.2-.77-.71-1.21 -.51-.44-1.28-.83-2.26-1.11 -.4-.12-.63-.54-.52-.93 .11-.4.53-.63.92-.52 1.11.32 2.09.79 2.81 1.4 .71.6 1.23 1.4 1.23 2.34 0 1.4-1.12 2.47-2.47 3.14 -1.4.69-3.27 1.1-5.29 1.1 -2.03 0-3.9-.41-5.29-1.11 -1.35-.68-2.47-1.75-2.47-3.15 0-.95.51-1.74 1.23-2.35 .71-.61 1.69-1.09 2.81-1.41 .39-.12.81.11.92.51Z"/><path fill="#CFD8DC" d="M12 9.25c.41 0 .75.33.75.75v9.5c0 .41-.34.75-.75.75 -.42 0-.75-.34-.75-.75V10c0-.42.33-.75.75-.75Z"/></g><path fill="#EE4D4D" d="M12 1.25C9.37 1.25 7.25 3.37 7.25 6c0 2.62 2.12 4.75 4.75 4.75 2.62 0 4.75-2.13 4.75-4.75 0-2.63-2.13-4.75-4.75-4.75Z"/></svg>