<svg viewBox="0 0 24 24" xmlns="http://www.w3.org/2000/svg"><path fill="#8B98A6" fill-rule="evenodd" d="M6.72 15.509c.1.4-.14.81-.54.91 -1.17.3-2.08.69-2.68 1.1 -.62.42-.77.76-.77.97 0 .17.09.43.51.78 .41.34 1.05.68 1.91.98 1.71.59 4.12.98 6.82.98s5.11-.39 6.82-.99c.85-.31 1.5-.65 1.91-.99 .41-.35.51-.62.51-.79 0-.21-.15-.55-.77-.98 -.6-.42-1.51-.8-2.68-1.11 -.41-.11-.64-.52-.54-.92 .1-.41.51-.64.91-.54 1.25.33 2.35.77 3.14 1.31 .77.52 1.41 1.26 1.41 2.2 0 .79-.47 1.44-1.06 1.94 -.6.49-1.43.9-2.38 1.24 -1.91.66-4.496 1.06-7.32 1.06 -2.83 0-5.42-.4-7.32-1.07 -.96-.34-1.78-.75-2.38-1.25 -.6-.5-1.06-1.15-1.06-1.95 0-.95.64-1.68 1.41-2.21 .79-.55 1.88-.99 3.14-1.32 .4-.11.81.13.91.53Z"/><g fill="#EE4D4D"><path d="M11.61 18.64s0 0 .38-.65l.38.64c-.24.14-.54.14-.78-.01Z"/><path d="M11.61 18.64l.38-.65c.38.64.38.64.38.64l0-.01 0-.01 .01-.02c.01-.01.03-.03.06-.04 .05-.04.12-.09.22-.15 .18-.13.45-.31.77-.55 .63-.48 1.47-1.17 2.32-2.035 1.67-1.73 3.46-4.29 3.46-7.37 0-4.01-3.25-7.25-7.25-7.25 -4.01 0-7.25 3.24-7.25 7.25 0 3.08 1.78 5.64 3.46 7.36 .84.87 1.69 1.56 2.32 2.035 .31.23.58.41.77.54 .09.06.16.11.22.14 .02.01.04.02.06.03l.01.01 0 0 0 0Z"/></g><path fill="#ECEFF1" d="M12 4.25C9.92 4.25 8.25 5.92 8.25 8c0 2.07 1.67 3.75 3.75 3.75 2.07 0 3.75-1.68 3.75-3.75 0-2.08-1.68-3.75-3.75-3.75Z"/></svg>