<svg viewBox="0 0 24 24" xmlns="http://www.w3.org/2000/svg"><g fill="#EE4D4D"><path d="M11.6 21.63s0 0 .39-.64l.39.63c-.25.15-.56.15-.8-.01Z"/><path d="M11.6 21.63l.39-.64c.39.63.4.63.4.63l0-.01 0-.01 .01-.02 .02-.02 .03-.03c.05-.04.13-.1.23-.17 .2-.14.48-.35.82-.61 .67-.53 1.58-1.31 2.49-2.29 1.8-1.95 3.7-4.79 3.7-8.22 0-4.43-3.44-8.07-7.75-8.07 -4.32 0-7.75 3.64-7.75 8.06 0 3.42 1.89 6.27 3.7 8.21 .9.97 1.81 1.75 2.49 2.28 .34.26.625.46.82.6 .1.06.18.12.23.16 .02.01.04.03.06.04l.01.01 0 0 0 0Z"/></g><g fill="#ECEFF1" fill-rule="evenodd"><path d="M9.34 12.15c-.3-.3-.3-.77 0-1.07l4.24-4.25c.29-.3.76-.3 1.06 0 .29.29.29.76 0 1.06l-4.25 4.24c-.3.29-.77.29-1.07 0Z"/><path d="M14.65 12.15c-.3.29-.77.29-1.07 0L9.33 7.9c-.3-.3-.3-.77 0-1.07 .29-.3.76-.3 1.06 0l4.24 4.24c.29.29.29.76 0 1.06Z"/></g></svg>