<svg viewBox="0 0 24 24" xmlns="http://www.w3.org/2000/svg"><g fill="#5E94FF"><path d="M11.6 21.63s0 0 .39-.64l.39.63c-.25.15-.56.15-.8-.01Z"/><path d="M11.6 21.63l.39-.64c.39.63.4.63.4.63l0-.01 0-.01 .01-.02 .02-.02 .03-.03c.05-.04.13-.1.23-.17 .2-.14.48-.35.82-.61 .67-.53 1.58-1.31 2.49-2.29 1.8-1.95 3.7-4.79 3.7-8.22 0-4.43-3.44-8.07-7.75-8.07 -4.32 0-7.75 3.64-7.75 8.06 0 3.42 1.89 6.27 3.7 8.21 .9.97 1.81 1.75 2.49 2.28 .34.26.625.46.82.6 .1.06.18.12.23.16 .02.01.04.03.06.04l.01.01 0 0 0 0Z"/></g><path fill="#ECEFF1" d="M8.21 13.25c-.07.25.01.52.19.71 .18.18.45.26.71.19l2.82-.71c.13-.04.25-.11.34-.2L15.8 9.7c.68-.69.68-1.8 0-2.48l-.71-.71c-.69-.69-1.8-.69-2.48 0l-3.54 3.53c-.1.09-.17.21-.2.34l-.71 2.82Z"/></svg>