<svg viewBox="0 0 24 24" xmlns="http://www.w3.org/2000/svg"><path fill="#FFC44D" d="M1.57 11.46c-.3.29-.3.76 0 1.06l9.89 9.89c.29.29.76.29 1.06 0l9.89-9.9c.29-.3.29-.77 0-1.07l-9.9-9.9c-.3-.3-.77-.3-1.07-.001l-9.9 9.89Z"/><g fill="#ECEFF1" fill-rule="evenodd"><path d="M7.35 11.99c0-.42.33-.75.75-.75h7c.41 0 .75.33.75.75 0 .41-.34.75-.75.75H8.09c-.42 0-.75-.34-.75-.75Z"/><path d="M12.07 8.46c.29-.3.76-.3 1.06 0l3 2.99c.29.29.29.76 0 1.06l-3 3c-.3.29-.77.29-1.07 0 -.3-.3-.3-.77 0-1.07l2.46-2.47 -2.47-2.47c-.3-.3-.3-.77 0-1.07Z"/></g></svg>