<svg viewBox="0 0 24 24" xmlns="http://www.w3.org/2000/svg"><g fill="#CFD8DC" fill-rule="evenodd"><path d="M14.5 1.25c-.42 0-.75.33-.75.75v4c0 .41.33.75.75.75 .41 0 .75-.34.75-.75V2c0-.42-.34-.75-.75-.75Zm0 10c-.42 0-.75.33-.75.75v10c0 .41.33.75.75.75 .41 0 .75-.34.75-.75V12c0-.42-.34-.75-.75-.75Z"/><path d="M19.25 22c0-.42-.34-.75-.75-.75h-8c-.42 0-.75.33-.75.75 0 .41.33.75.75.75h8c.41 0 .75-.34.75-.75Z"/></g><path fill="#EE4D4D" d="M18.5 5.25c.41 0 .75.33.75.75v6c0 .41-.34.75-.75.75H8.75c-.24 0-.46-.12-.6-.3l-2.25-3c-.2-.27-.2-.64 0-.9l2.25-3c.14-.19.36-.3.6-.3h9.75Z"/></svg>