<svg viewBox="0 0 24 24" xmlns="http://www.w3.org/2000/svg"><path fill="#CFD8DC" fill-rule="evenodd" d="M7.25 22c0-.42.33-.75.75-.75h8c.41 0 .75.33.75.75 0 .41-.34.75-.75.75H8c-.42 0-.75-.34-.75-.75Z"/><g fill="#EE4D4D"><path d="M12 9.25c-.42 0-.75.33-.75.75v4c0 .41.33.75.75.75h6.5c.23 0 .45-.12.6-.3l1.5-2c.2-.27.2-.64 0-.9l-1.5-2c-.15-.19-.37-.3-.6-.3H12Z"/><path d="M12 5.25c.41 0 .75.33.75.75v4c0 .41-.34.75-.75.75H5.5c-.24 0-.46-.12-.6-.3l-1.5-2c-.2-.27-.2-.64 0-.9l1.5-2c.14-.19.36-.3.6-.3H12Z"/></g><path fill="#CFD8DC" fill-rule="evenodd" d="M12 1.25c.41 0 .75.33.75.75v20c0 .41-.34.75-.75.75 -.42 0-.75-.34-.75-.75V2c0-.42.33-.75.75-.75Z"/></svg>