<svg viewBox="0 0 24 24" xmlns="http://www.w3.org/2000/svg"><g fill-rule="evenodd"><path d="M18.71 5.28C15 1.57 8.98 1.57 5.275 5.28c-3.71 3.7-3.71 9.72 0 13.43 3.7 3.71 9.72 3.71 13.43 0 3.71-3.71 3.71-9.73 0-13.435ZM4.56 4.57C8.66.46 15.3.46 19.4 4.57c4.1 4.1 4.1 10.74 0 14.84 -4.11 4.1-10.75 4.1-14.85 0C.44 15.3.44 8.66 4.55 4.56Z"/><path d="M8.82 9.57c.07-.19.25-.31.46-.31h4.94c.27 0 .5.22.5.5v4.94c0 .2-.13.38-.31.46 -.19.07-.41.03-.55-.11L8.91 10.1c-.15-.15-.19-.36-.11-.55Zm1.66.69l3.24 3.24v-3.25h-3.25Z"/></g></svg>