<svg viewBox="0 0 24 24" xmlns="http://www.w3.org/2000/svg"><g fill-rule="evenodd"><path d="M5.73 11.64c-.43.53-.69 1.22-.69 1.85 0 .89.27 1.57.66 2.01 .39.44.92.68 1.53.68h9.49c.6 0 1.14-.25 1.53-.69 .39-.45.66-1.12.66-2.02 0-.63-.26-1.32-.69-1.86 -.43-.54-.98-.85-1.52-.85h-2.25v-1.1h2.25c.97 0 1.8.55 2.37 1.26 .56.7.92 1.64.92 2.53 0 1.12-.35 2.07-.95 2.74 -.61.67-1.45 1.05-2.36 1.05h-9.5c-.92 0-1.76-.38-2.36-1.06 -.61-.68-.95-1.63-.95-2.75 0-.9.35-1.83.92-2.54 .56-.71 1.39-1.27 2.37-1.27h4.24v1.1H7.15c-.55 0-1.09.31-1.52.84Z"/><path d="M11.22 10.25L8.6 7.63l.77-.78 3 3c.21.21.21.56 0 .77l-3 3 -.78-.78 2.61-2.62Z"/></g></svg>