<svg viewBox="0 0 24 24" xmlns="http://www.w3.org/2000/svg"><g fill-rule="evenodd"><path d="M12 2.5c-5.25 0-9.5 4.25-9.5 9.5 0 5.24 4.25 9.5 9.5 9.5 5.24 0 9.5-4.26 9.5-9.5 0-5.25-4.26-9.5-9.5-9.5ZM1.5 12C1.5 6.2 6.2 1.5 12 1.5c5.79 0 10.5 4.7 10.5 10.5 0 5.79-4.71 10.5-10.5 10.5 -5.8 0-10.5-4.71-10.5-10.5Z"/><path d="M10.8 8.03c.18-.08.4-.04.54.1l3.5 3.49c.19.19.19.51 0 .7l-3.5 3.5c-.15.14-.36.18-.55.1 -.19-.08-.31-.26-.31-.47v-7c0-.21.12-.39.3-.47Zm.69 1.66v4.58l2.29-2.3 -2.3-2.3Z"/></g></svg>