<svg viewBox="0 0 24 24" xmlns="http://www.w3.org/2000/svg"><g fill-rule="evenodd"><path d="M5.01 12.04l-3.15 3.14 .7.7 3.5-3.5c.19-.2.19-.52 0-.71l-3.5-3.5 -.71.7 3.14 3.14Z"/><path d="M12.04 5.01l3.14-3.15 .7.7 -3.5 3.5c-.2.19-.52.19-.71 0l-3.51-3.5 .7-.71L12 4.99Z"/><path d="M12.04 19.06l3.14 3.14 .7-.71 -3.5-3.5c-.2-.2-.52-.2-.71 0l-3.5 3.5 .7.7 3.14-3.15Z"/><path d="M19.06 12.04l3.14-3.15 -.71-.71 -3.5 3.5c-.2.19-.2.51 0 .7l3.5 3.5 .7-.71 -3.15-3.15Z"/><path d="M12 8.5c-1.94 0-3.5 1.56-3.5 3.5 0 1.93 1.56 3.5 3.5 3.5 1.93 0 3.5-1.57 3.5-3.5 0-1.94-1.57-3.5-3.5-3.5ZM7.5 12c0-2.49 2.01-4.5 4.5-4.5 2.48 0 4.5 2.01 4.5 4.5 0 2.48-2.02 4.5-4.5 4.5 -2.49 0-4.5-2.02-4.5-4.5Z"/></g></svg>