<svg viewBox="0 0 24 24" xmlns="http://www.w3.org/2000/svg"><g fill-rule="evenodd"><path d="M1.25 5c0-.42.33-.75.75-.75h20c.41 0 .75.33.75.75v16c0 .41-.34.75-.75.75H2c-.42 0-.75-.34-.75-.75V5Zm1.5.75v14.5h18.5V5.75H2.75Z"/><path d="M1.25 5c0-.42.33-.75.75-.75h20c.41 0 .75.33.75.75v5c0 .41-.34.75-.75.75h-3c-.42 0-.75-.34-.75-.75 0-.42.33-.75.75-.75h2.25v-3.5H2.75v3.5H15c.41 0 .75.33.75.75 0 .41-.34.75-.75.75H2c-.42 0-.75-.34-.75-.75V5Z"/><path d="M5 2.25c.41 0 .75.33.75.75v3.5c0 .41-.34.75-.75.75 -.42 0-.75-.34-.75-.75V3c0-.42.33-.75.75-.75Z"/><path d="M12 2.25c.41 0 .75.33.75.75v3.5c0 .41-.34.75-.75.75 -.42 0-.75-.34-.75-.75V3c0-.42.33-.75.75-.75Z"/><path d="M19 2.25c.41 0 .75.33.75.75v3.5c0 .41-.34.75-.75.75 -.42 0-.75-.34-.75-.75V3c0-.42.33-.75.75-.75Z"/><path d="M8.25 12.5c0-.42.33-.75.75-.75h2c.96 0 1.75.78 1.75 1.75v2c0 .41-.34.75-.75.75H9c-.42 0-.75-.34-.75-.75 0-.42.33-.75.75-.75h2.25V13.5c0-.14-.12-.25-.25-.25H9c-.42 0-.75-.34-.75-.75Z"/><path d="M8.25 15.5c0-.42.33-.75.75-.75h3c.41 0 .75.33.75.75v2c0 .96-.79 1.75-1.75 1.75H9c-.42 0-.75-.34-.75-.75 0-.42.33-.75.75-.75h2c.13 0 .25-.12.25-.25v-1.25H9c-.42 0-.75-.34-.75-.75Z"/><path d="M15 11.75c.41 0 .75.33.75.75v6c0 .41-.34.75-.75.75 -.42 0-.75-.34-.75-.75v-6c0-.42.33-.75.75-.75Z"/></g></svg>