<svg viewBox="0 0 24 24" xmlns="http://www.w3.org/2000/svg"><g fill-rule="evenodd"><path d="M1.25 6c0-1.52 1.23-2.75 2.75-2.75h16c1.51 0 2.75 1.23 2.75 2.75v14c0 1.51-1.24 2.75-2.75 2.75H4c-1.52 0-2.75-1.24-2.75-2.75V6ZM4 4.75c-.7 0-1.25.55-1.25 1.25v14c0 .69.55 1.25 1.25 1.25h16c.69 0 1.25-.56 1.25-1.25V6c0-.7-.56-1.25-1.25-1.25H4Z"/><path d="M1.25 6c0-1.52 1.23-2.75 2.75-2.75h16c1.51 0 2.75 1.23 2.75 2.75v3c0 .41-.34.75-.75.75h-3c-.42 0-.75-.34-.75-.75 0-.42.33-.75.75-.75h2.25V6c0-.7-.56-1.25-1.25-1.25H4c-.7 0-1.25.55-1.25 1.25v2.25H15c.41 0 .75.33.75.75 0 .41-.34.75-.75.75H2c-.42 0-.75-.34-.75-.75V6Z"/><path d="M5 1.25c.41 0 .75.33.75.75v3.5c0 .41-.34.75-.75.75 -.42 0-.75-.34-.75-.75V2c0-.42.33-.75.75-.75Z"/><path d="M12 1.25c.41 0 .75.33.75.75v3.5c0 .41-.34.75-.75.75 -.42 0-.75-.34-.75-.75V2c0-.42.33-.75.75-.75Z"/><path d="M19 1.25c.41 0 .75.33.75.75v3.5c0 .41-.34.75-.75.75 -.42 0-.75-.34-.75-.75V2c0-.42.33-.75.75-.75Z"/><path d="M7.96 19.28c-.19-.19-.27-.46-.2-.72l.7-2.83c.03-.14.1-.26.19-.35l3.53-3.54c.68-.69 1.79-.69 2.47 0l.7.7c.68.68.68 1.79 0 2.47l-3.54 3.53c-.1.09-.22.16-.35.19l-2.83.7c-.26.06-.53-.02-.72-.2Zm2.97-1.92l3.38-3.39c.09-.1.09-.26 0-.36l-.71-.71c-.1-.1-.26-.1-.36 0l-3.39 3.38 -.36 1.41 1.41-.36Z"/></g></svg>