<svg viewBox="0 0 24 24" xmlns="http://www.w3.org/2000/svg"><g fill-rule="evenodd"><path d="M12 2.75c-5.11 0-9.25 4.14-9.25 9.25 0 5.1 4.14 9.25 9.25 9.25 1.31 0 2.56-.28 3.69-.77 .37-.17.82 0 .98.38 .16.37-.01.82-.39.98 -1.32.57-2.78.89-4.31.89 -5.94 0-10.75-4.82-10.75-10.75 0-5.94 4.81-10.75 10.75-10.75 5.93 0 10.75 4.81 10.75 10.75 0 2.41-.81 4.65-2.16 6.45 -.25.33-.72.39-1.06.14 -.34-.25-.4-.72-.15-1.06 1.16-1.55 1.84-3.47 1.84-5.56 0-5.11-4.15-9.25-9.25-9.25Z"/><path d="M12 4.25c-.42 0-.75.33-.75.75v4.1l-1.1-1.97c-.21-.37-.66-.5-1.02-.3 -.37.2-.5.65-.3 1.01l2.5 4.49c.16.29.51.44.84.36 .33-.09.56-.39.56-.73v-7c0-.42-.34-.75-.75-.75Z"/></g></svg>