<svg viewBox="0 0 24 24" xmlns="http://www.w3.org/2000/svg"><g fill-rule="evenodd"><path d="M12 2.75c-5.11 0-9.25 4.14-9.25 9.25 0 5.1 4.14 9.25 9.25 9.25 1.31 0 2.56-.28 3.69-.77 .37-.17.82 0 .98.38 .16.37-.01.82-.39.98 -1.32.57-2.78.89-4.31.89 -5.94 0-10.75-4.82-10.75-10.75 0-5.94 4.81-10.75 10.75-10.75 5.93 0 10.75 4.81 10.75 10.75 0 2.41-.81 4.65-2.16 6.45 -.25.33-.72.39-1.06.14 -.34-.25-.4-.72-.15-1.06 1.16-1.55 1.84-3.47 1.84-5.56 0-5.11-4.15-9.25-9.25-9.25Z"/><path d="M16.03 7.96c.29.29.29.76 0 1.06l-3.29 3.28v6.18c0 .41-.34.75-.75.75 -.42 0-.75-.34-.75-.75v-6.5c0-.2.07-.39.21-.54l3.5-3.51c.29-.3.76-.3 1.06 0Z"/></g></svg>