<svg viewBox="0 0 24 24" xmlns="http://www.w3.org/2000/svg"><g fill-rule="evenodd"><path d="M12 11.25c.24 0 .46.11.6.31l6.5 9c.16.22.18.52.05.78 -.13.25-.39.4-.67.4h-13c-.29 0-.54-.16-.67-.41 -.13-.26-.11-.56.05-.79l6.5-9c.14-.2.36-.32.6-.32Zm0 2.03l-5.04 6.96h10.06l-5.04-6.97Z"/><path d="M12 12.75c.24 0 .46-.12.6-.32l6.5-9c.16-.23.18-.53.05-.79s-.39-.41-.67-.41h-3.5c-.42 0-.75.33-.75.75 0 .41.33.75.75.75h2.03l-5.04 6.969L6.93 3.73h4.03c.41 0 .75-.34.75-.75 0-.42-.34-.75-.75-.75h-5.5c-.29 0-.54.15-.67.4s-.11.55.05.78l6.5 8.99c.14.19.36.31.6.31Z"/><path d="M3.25 3c0-.42.33-.75.75-.75h5.5c.41 0 .75.33.75.75 0 .41-.34.75-.75.75H4c-.42 0-.75-.34-.75-.75Zm11 0c0-.42.33-.75.75-.75h5c.41 0 .75.33.75.75 0 .41-.34.75-.75.75h-5c-.42 0-.75-.34-.75-.75Z"/><path d="M3.25 21c0-.42.33-.75.75-.75h16c.41 0 .75.33.75.75 0 .41-.34.75-.75.75H4c-.42 0-.75-.34-.75-.75Z"/></g></svg>