<svg viewBox="0 0 24 24" xmlns="http://www.w3.org/2000/svg"><g fill-rule="evenodd"><path d="M2.25 3c0-.42.33-.75.75-.75h18c.41 0 .75.33.75.75v1c0 .41-.34.75-.75.75 -.42 0-.75-.34-.75-.75v-.25H3.75v16.5h16.5V8c0-.42.33-.75.75-.75 .41 0 .75.33.75.75v13c0 .41-.34.75-.75.75H3c-.42 0-.75-.34-.75-.75V3Z"/><path d="M12 4.75c-4.01 0-7.25 3.24-7.25 7.25 0 4 3.24 7.25 7.25 7.25 4 0 7.25-3.25 7.25-7.25 0-4.01-3.25-7.25-7.25-7.25ZM3.25 12c0-4.84 3.91-8.75 8.75-8.75 4.83 0 8.75 3.91 8.75 8.75 0 4.83-3.92 8.75-8.75 8.75 -4.84 0-8.75-3.92-8.75-8.75Z"/><path d="M12 7.75c.41 0 .75.33.75.75v1.68l2.21-2.22c.29-.3.76-.3 1.06 0 .29.29.29.76 0 1.06l-3.5 3.49c-.22.21-.54.27-.82.16 -.29-.12-.47-.39-.47-.7v-3.5c0-.42.33-.75.75-.75Z"/></g></svg>