<svg viewBox="0 0 24 24" xmlns="http://www.w3.org/2000/svg"><g fill-rule="evenodd"><path d="M12 7.75c-2.35 0-4.25 1.9-4.25 4.25 0 .41-.34.75-.75.75 -.42 0-.75-.34-.75-.75 0-3.18 2.57-5.75 5.75-5.75 3.17 0 5.75 2.57 5.75 5.75 0 3.17-2.58 5.75-5.75 5.75 -1.3 0-2.49-.43-3.46-1.16 -.34-.25-.4-.72-.15-1.06 .24-.34.71-.4 1.05-.15 .71.53 1.59.84 2.54.84 2.34 0 4.25-1.91 4.25-4.25 0-2.35-1.91-4.25-4.25-4.25Z"/><path d="M8.25 2c0-.42.33-.75.75-.75h6c.41 0 .75.33.75.75v6c0 .41-.34.75-.75.75 -.42 0-.75-.34-.75-.75V2.75h-4.5V8c0 .41-.34.75-.75.75 -.42 0-.75-.34-.75-.75V2Z"/><path d="M8.25 22c0 .41.33.75.75.75h6c.41 0 .75-.34.75-.75v-6c0-.42-.34-.75-.75-.75 -.42 0-.75.33-.75.75v5.25h-4.5V16c0-.42-.34-.75-.75-.75 -.42 0-.75.33-.75.75v6Z"/></g></svg>