<svg viewBox="0 0 24 24" xmlns="http://www.w3.org/2000/svg"><g fill-rule="evenodd"><path d="M16.67 5.32c-2.24-1.47-5.151-1.78-7.76-.58 -4.01 1.85-5.76 6.61-3.9 10.62 1.85 4 6.61 5.75 10.62 3.89 2.29-1.07 3.84-3.08 4.4-5.36 -2.21.87-4.74-.12-5.75-2.3 -1.05-2.26-.07-4.93 2.19-5.98 .09-.05.16-.14.18-.24 .01-.05 0-.07 0-.08 -.01-.01-.01-.01-.01-.01 -.01-.01-.01-.01-.02-.02ZM8.49 3.84c2.92-1.36 6.2-1.01 8.72.64 .43.28.52.76.43 1.15 -.09.37-.36.73-.75.91 -1.76.81-2.52 2.89-1.71 4.64 .81 1.75 2.89 2.51 4.64 1.7 .3-.15.63-.1.87.06s.43.47.35.85c-.56 2.69-2.35 5.099-5.04 6.34 -4.52 2.08-9.87.12-11.95-4.39 -2.09-4.52-.13-9.87 4.38-11.95Z"/><path d="M13.3 15.39c-.51.23-.72.82-.49 1.32 .23.5.82.71 1.32.48 .5-.24.71-.83.48-1.33 -.24-.51-.83-.72-1.33-.49Zm-1.4 1.74c-.47-1.01-.03-2.2.97-2.66 1-.47 2.19-.03 2.65.97 .46 1 .02 2.19-.98 2.65 -1.01.46-2.2.02-2.66-.98Z"/><path d="M8.23 12.78c-.51.23-.72.82-.49 1.32 .23.5.82.71 1.32.48 .5-.24.71-.83.48-1.33 -.24-.51-.83-.72-1.33-.49Zm-1.4 1.74c-.47-1.01-.03-2.2.97-2.66 1-.47 2.19-.03 2.65.97 .46 1 .02 2.19-.98 2.65 -1.01.46-2.2.02-2.66-.98Z"/><path d="M9.97 7.02c-.51.23-.72.82-.49 1.32 .23.5.82.71 1.32.48 .5-.24.71-.83.48-1.33 -.24-.51-.83-.72-1.33-.49Zm-1.4 1.74c-.47-1.01-.03-2.2.97-2.66 1-.47 2.19-.03 2.65.97 .46 1 .02 2.19-.98 2.65 -1.01.46-2.2.02-2.66-.98Z"/></g></svg>