<svg viewBox="0 0 24 24" xmlns="http://www.w3.org/2000/svg"><g fill-rule="evenodd"><path d="M3.5 6c0-.83.67-1.5 1.5-1.5h14c.82 0 1.5.67 1.5 1.5v3c0 .22-.16.42-.38.48l-8 2c-.08.01-.17.01-.25 0l-8-2.01c-.23-.06-.38-.26-.38-.49v-3ZM5 5.5c-.28 0-.5.22-.5.5v2.6l7.5 1.87 7.5-1.88V5.98c0-.28-.23-.5-.5-.5H5Z"/><path d="M4.5 21c0 .82.67 1.5 1.5 1.5h12c.82 0 1.5-.68 1.5-1.5V9h-1v12c0 .27-.23.5-.5.5H6c-.28 0-.5-.23-.5-.5V9h-1v12Z"/><path d="M9.5 2.5c-.28 0-.5.22-.5.5v2H8V3c0-.83.67-1.5 1.5-1.5h5c.82 0 1.5.67 1.5 1.5v2h-1V3c0-.28-.23-.5-.5-.5h-5Z"/><path d="M11.5 15V5h1v10h-1Z"/><path d="M5 18.5h14v1H5v-1Z"/></g></svg>