<svg viewBox="0 0 24 24" xmlns="http://www.w3.org/2000/svg"><g fill-rule="evenodd"><path d="M4.5 3c0-.83.67-1.5 1.5-1.5h12c.82 0 1.5.67 1.5 1.5v18c0 .82-.68 1.5-1.5 1.5H6c-.83 0-1.5-.68-1.5-1.5V3ZM6 2.5c-.28 0-.5.22-.5.5v18c0 .27.22.5.5.5h12c.27 0 .5-.23.5-.5V3c0-.28-.23-.5-.5-.5H6Z"/><path d="M13.5 9H16v1h-2.5V9Z"/><path d="M13.5 6.5H16v1h-2.5v-1Z"/><path d="M13.5 4H16v1h-2.5V4Z"/><path d="M10 6.5H8v-1h2v1Z"/><path d="M16 13.5H8v-1h8v1Z"/><path d="M16 17.5H8v-1h8v1Z"/><path d="M13 10V4h1v6h-1Z"/></g></svg>