<svg viewBox="0 0 24 24" xmlns="http://www.w3.org/2000/svg"><g fill-rule="evenodd"><path d="M12 2.5c-3.32 0-6 2.68-6 6 0 2.89 1.55 6.16 3.17 8.76 .8 1.28 1.6 2.39 2.2 3.17 .24.31.45.58.61.78 .16-.21.37-.47.61-.79 .6-.79 1.4-1.89 2.2-3.18 1.61-2.61 3.17-5.88 3.17-8.77 0-3.32-2.69-6-6-6ZM12 22c-.38.32-.38.32-.38.32l-.01-.01 -.01-.01 -.02-.02c-.02-.02-.04-.04-.06-.07 -.05-.06-.13-.15-.22-.26 -.19-.22-.44-.54-.75-.94 -.62-.8-1.44-1.94-2.27-3.26 -1.64-2.63-3.33-6.11-3.33-9.3 0-3.87 3.13-7 7-7 3.86 0 7 3.13 7 7 0 3.19-1.7 6.67-3.33 9.29 -.83 1.32-1.65 2.45-2.27 3.25 -.31.4-.57.71-.75.93 -.1.1-.17.19-.22.25 -.03.02-.05.05-.06.06l-.02.01 -.01 0 -.01 0c-.01 0-.01 0-.38-.33Zm0 0l.37.32c-.1.1-.24.17-.38.17 -.15 0-.29-.07-.38-.18l.37-.33Z"/><path d="M10.5 7.5c0-.83.67-1.5 1.5-1.5h1.5v1H12c-.28 0-.5.22-.5.5v3c0 .27.22.5.5.5h1.5v1H12c-.83 0-1.5-.68-1.5-1.5v-3Z"/></g></svg>