<svg viewBox="0 0 24 24" xmlns="http://www.w3.org/2000/svg"><g fill-rule="evenodd"><path d="M1.5 7c0-.83.67-1.5 1.5-1.5h18c.82 0 1.5.67 1.5 1.5v10c0 .82-.68 1.5-1.5 1.5H3c-.83 0-1.5-.68-1.5-1.5V7ZM3 6.5c-.28 0-.5.22-.5.5v10c0 .27.22.5.5.5h18c.27 0 .5-.23.5-.5V7c0-.28-.23-.5-.5-.5H3Z"/><path d="M17.5 10c0-.83.67-1.5 1.5-1.5h3c.27 0 .5.22.5.5v6c0 .27-.23.5-.5.5h-3c-.83 0-1.5-.68-1.5-1.5v-4Zm1.5-.5c-.28 0-.5.22-.5.5v4c0 .27.22.5.5.5h2.5v-5H19Z"/><path d="M1.5 9c0-.28.22-.5.5-.5h3c.82 0 1.5.67 1.5 1.5v4c0 .82-.68 1.5-1.5 1.5H2c-.28 0-.5-.23-.5-.5V9Zm1 .5v5H5c.27 0 .5-.23.5-.5v-4c0-.28-.23-.5-.5-.5H2.5Z"/><path d="M11.5 10V6h1v4h-1Zm0 8v-4h1v4h-1Z"/><path d="M12 10.5c-.83 0-1.5.67-1.5 1.5 0 .82.67 1.5 1.5 1.5 .82 0 1.5-.68 1.5-1.5 0-.83-.68-1.5-1.5-1.5ZM9.5 12c0-1.39 1.11-2.5 2.5-2.5 1.38 0 2.5 1.11 2.5 2.5 0 1.38-1.12 2.5-2.5 2.5 -1.39 0-2.5-1.12-2.5-2.5Z"/></g></svg>