<svg viewBox="0 0 24 24" xmlns="http://www.w3.org/2000/svg"><g fill-rule="evenodd"><path d="M1.5 3c0-.83.67-1.5 1.5-1.5h18c.82 0 1.5.67 1.5 1.5v11c0 .82-.68 1.5-1.5 1.5h-6v-1h6c.27 0 .5-.23.5-.5V3c0-.28-.23-.5-.5-.5H3c-.28 0-.5.22-.5.5v5h-1V3Z"/><path d="M4.5 12c-.83 0-1.5.67-1.5 1.5 0 .82.67 1.5 1.5 1.5 .82 0 1.5-.68 1.5-1.5 0-.83-.68-1.5-1.5-1.5ZM2 13.5C2 12.11 3.11 11 4.5 11 5.88 11 7 12.11 7 13.5 7 14.88 5.88 16 4.5 16 3.11 16 2 14.88 2 13.5Z"/><path d="M4 18.5c-.83 0-1.5.67-1.5 1.5v2h-1v-2c0-1.39 1.11-2.5 2.5-2.5h1c1.38 0 2.5 1.11 2.5 2.5v2h-1v-2c0-.83-.68-1.5-1.5-1.5H4Z"/><path d="M12.35 15.35l-5.01 5 -.71-.71 5-5 .7.7Z"/><path d="M8 5.5h10v1H8v-1Z"/><path d="M12 8.5h6v1h-6v-1Z"/></g></svg>