<svg viewBox="0 0 24 24" xmlns="http://www.w3.org/2000/svg"><g fill-rule="evenodd"><path d="M19 13.75c-.7 0-1.25.55-1.25 1.25 0 .69.55 1.25 1.25 1.25 .69 0 1.25-.56 1.25-1.25 0-.7-.56-1.25-1.25-1.25ZM16.25 15c0-1.52 1.23-2.75 2.75-2.75 1.51 0 2.75 1.23 2.75 2.75 0 1.51-1.24 2.75-2.75 2.75 -1.52 0-2.75-1.24-2.75-2.75Z"/><path d="M5 13.75c-.7 0-1.25.55-1.25 1.25 0 .69.55 1.25 1.25 1.25 .69 0 1.25-.56 1.25-1.25 0-.7-.56-1.25-1.25-1.25ZM2.25 15c0-1.52 1.23-2.75 2.75-2.75 1.51 0 2.75 1.23 2.75 2.75 0 1.51-1.24 2.75-2.75 2.75 -1.52 0-2.75-1.24-2.75-2.75Z"/><path d="M15.25 20c0-2.08 1.67-3.75 3.75-3.75 2.07 0 3.75 1.67 3.75 3.75v1c0 .96-.79 1.75-1.75 1.75h-4c-.97 0-1.75-.79-1.75-1.75v-1ZM19 17.75c-1.25 0-2.25 1-2.25 2.25v1c0 .13.11.25.25.25h4c.13 0 .25-.12.25-.25v-1c0-1.25-1.01-2.25-2.25-2.25Z"/><path d="M1.25 20c0-2.08 1.67-3.75 3.75-3.75 2.07 0 3.75 1.67 3.75 3.75v1c0 .96-.79 1.75-1.75 1.75H3c-.97 0-1.75-.79-1.75-1.75v-1ZM5 17.75c-1.25 0-2.25 1-2.25 2.25v1c0 .13.11.25.25.25h4c.13 0 .25-.12.25-.25v-1c0-1.25-1.01-2.25-2.25-2.25Z"/><path d="M8 2.75c-.7 0-1.25.55-1.25 1.25v4.23c0 .69.55 1.25 1.25 1.25h1.28c.72 0 1.42.28 1.94.8l.64.64 .64-.65c.51-.52 1.21-.81 1.94-.81h1.28c.69 0 1.25-.56 1.25-1.25V3.97c0-.7-.56-1.25-1.25-1.25h-.77c-.42 0-.75-.34-.75-.75 0-.42.33-.75.75-.75h.76c1.51 0 2.75 1.23 2.75 2.75V8.2c0 1.51-1.24 2.75-2.75 2.75h-1.29c-.34 0-.65.13-.89.36l-1.18 1.17c-.3.29-.77.29-1.07 0L10.1 11.3c-.24-.24-.56-.37-.89-.37H7.92c-1.52 0-2.75-1.24-2.75-2.76V3.93c0-1.52 1.23-2.75 2.75-2.75h3c.41 0 .75.33.75.75 0 .41-.34.75-.75.75h-3Z"/></g></svg>