<svg viewBox="0 0 24 24" xmlns="http://www.w3.org/2000/svg"><g fill-rule="evenodd"><path d="M10.25 3c0-.42.33-.75.75-.75 2.77 0 5.15 1.67 6.19 4.06 .26-.05.53-.07.8-.07 2.62 0 4.75 2.12 4.75 4.75 0 1.24-.37 2.42-1.1 3.3 -.75.89-1.83 1.44-3.16 1.44H4.98c-2.08 0-3.75-1.68-3.75-3.75 0-1.83 1.3-3.35 3.03-3.69C4.43 6.54 5.27 5 6.51 3.9c.31-.28.78-.25 1.05.06s.24.78-.07 1.05c-1.1.96-1.78 2.36-1.78 3.93 0 .41-.34.75-.75.75 -1.25 0-2.25 1-2.25 2.25 0 1.24 1 2.25 2.25 2.25h13.5c.88 0 1.54-.35 2-.9 .46-.57.74-1.39.74-2.36 0-1.8-1.46-3.25-3.25-3.25 -.37 0-.72.05-1.04.16 -.2.06-.4.04-.58-.05 -.18-.1-.32-.26-.38-.45 -.67-2.14-2.66-3.69-5.02-3.69 -.42 0-.75-.34-.75-.75Z"/><path d="M12 14.25c.41 0 .75.33.75.75v4c0 .41-.34.75-.75.75 -.42 0-.75-.34-.75-.75v-4c0-.42.33-.75.75-.75Z"/><path d="M12.75 20.5c0-.42.33-.75.75-.75H19c.41 0 .75.33.75.75 0 .41-.34.75-.75.75h-5.5c-.42 0-.75-.34-.75-.75Z"/><path d="M4.25 20.5c0-.42.33-.75.75-.75h5.5c.41 0 .75.33.75.75 0 .41-.34.75-.75.75H5c-.42 0-.75-.34-.75-.75Z"/><path d="M12 19.75c-.42 0-.75.33-.75.75 0 .41.33.75.75.75 .41 0 .75-.34.75-.75 0-.42-.34-.75-.75-.75Zm-2.25.75c0-1.25 1-2.25 2.25-2.25 1.24 0 2.25 1 2.25 2.25 0 1.24-1.01 2.25-2.25 2.25 -1.25 0-2.25-1.01-2.25-2.25Z"/><path d="M20.5 19.75c-.42 0-.75.33-.75.75 0 .41.33.75.75.75 .41 0 .75-.34.75-.75 0-.42-.34-.75-.75-.75Zm-2.25.75c0-1.25 1-2.25 2.25-2.25 1.24 0 2.25 1 2.25 2.25 0 1.24-1.01 2.25-2.25 2.25 -1.25 0-2.25-1.01-2.25-2.25Z"/><path d="M3.5 19.75c-.42 0-.75.33-.75.75 0 .41.33.75.75.75 .41 0 .75-.34.75-.75 0-.42-.34-.75-.75-.75Zm-2.25.75c0-1.25 1-2.25 2.25-2.25 1.24 0 2.25 1 2.25 2.25 0 1.24-1.01 2.25-2.25 2.25 -1.25 0-2.25-1.01-2.25-2.25Z"/></g></svg>