<svg viewBox="0 0 24 24" xmlns="http://www.w3.org/2000/svg"><g fill-rule="evenodd"><path d="M18.25 9c0-1.25 1-2.25 2.25-2.25 1.24 0 2.25 1 2.25 2.25v6.08c0 .46-.19.9-.52 1.23l-4.49 4.48v1.18c0 .41-.34.75-.75.75h-5c-.42 0-.75-.34-.75-.75v-5.5c0-.42.33-.75.75-.75 .41 0 .75.33.75.75v4.75h3.5v-.75c0-.2.07-.39.21-.54l4.7-4.71c.04-.05.07-.12.07-.18V8.95c0-.42-.34-.75-.75-.75 -.42 0-.75.33-.75.75v4.5c0 .19-.08.38-.22.53l-2 2c-.3.29-.77.29-1.07 0 -.3-.3-.3-.77 0-1.07l1.78-1.79V8.93Z"/><path d="M5.75 9c0-1.25-1.01-2.25-2.25-2.25 -1.25 0-2.25 1-2.25 2.25v6.08c0 .46.18.9.51 1.23l.2.2c.29.29.76.29 1.06 0 .29-.3.29-.77 0-1.07l-.21-.21c-.05-.05-.08-.12-.08-.18V8.96c0-.42.33-.75.75-.75 .41 0 .75.33.75.75v4.5c0 .19.07.38.21.53l2 2c.29.29.76.29 1.06 0 .29-.3.29-.77 0-1.07l-1.79-1.79V8.94ZM12 15.75c-.42 0-.75.33-.75.75v4.75h-3.5v-.75c0-.2-.08-.39-.22-.54l-2.5-2.5c-.3-.3-.77-.3-1.07 0 -.3.29-.3.76 0 1.06l2.28 2.28v1.18c0 .41.33.75.75.75h5c.41 0 .75-.34.75-.75v-5.5c0-.42-.34-.75-.75-.75Z"/><path d="M18.25 12.91c0-.6-.72-.89-1.14-.47l-4.59 4.58c-.3.29-.77.29-1.07 0 -.3-.3-.3-.77 0-1.07l4.58-4.59c1.36-1.37 3.69-.4 3.69 1.53 0 .57-.23 1.12-.64 1.53L17.49 16c-.3.29-.77.29-1.07 0 -.3-.3-.3-.77 0-1.07L18 13.34c.12-.13.19-.3.19-.47Z"/><path d="M5.75 12.91c0-.6.71-.89 1.13-.47l4.58 4.58c.29.29.76.29 1.06 0 .29-.3.29-.77 0-1.07l-4.59-4.59c-1.37-1.37-3.7-.4-3.7 1.53 0 .57.22 1.12.63 1.53L6.44 16c.29.29.76.29 1.06 0 .29-.3.29-.77 0-1.07l-1.59-1.59c-.13-.13-.2-.3-.2-.47Z"/><path d="M12 2.75c-.42 0-.75.33-.75.75 0 .41.33.75.75.75 .41 0 .75-.34.75-.75 0-.42-.34-.75-.75-.75Zm-2.25.75c0-1.25 1-2.25 2.25-2.25 1.24 0 2.25 1 2.25 2.25 0 1.24-1.01 2.25-2.25 2.25 -1.25 0-2.25-1.01-2.25-2.25Z"/><path d="M8.75 8.5c0-.97.78-1.75 1.75-1.75h3c.96 0 1.75.78 1.75 1.75V10c0 .41-.34.75-.75.75h-5c-.42 0-.75-.34-.75-.75V8.5Zm1.75-.25c-.14 0-.25.11-.25.25v.75h3.5V8.5c0-.14-.12-.25-.25-.25h-3Z"/></g></svg>