<svg viewBox="0 0 24 24" xmlns="http://www.w3.org/2000/svg"><g fill-rule="evenodd"><path d="M3.75 4c0-1.52 1.23-2.75 2.75-2.75h11c1.51 0 2.75 1.23 2.75 2.75v16c0 1.51-1.24 2.75-2.75 2.75h-11c-1.52 0-2.75-1.24-2.75-2.75V9c0-.42.33-.75.75-.75 .41 0 .75.33.75.75v11c0 .69.55 1.25 1.25 1.25h11c.69 0 1.25-.56 1.25-1.25V4c0-.7-.56-1.25-1.25-1.25h-11c-.7 0-1.25.55-1.25 1.25v1c0 .41-.34.75-.75.75 -.42 0-.75-.34-.75-.75V4Z"/><path d="M12 5.75c-.42 0-.75.33-.75.75 0 .41.33.75.75.75 .41 0 .75-.34.75-.75 0-.42-.34-.75-.75-.75Zm-2.25.75c0-1.25 1-2.25 2.25-2.25 1.24 0 2.25 1 2.25 2.25 0 1.24-1.01 2.25-2.25 2.25 -1.25 0-2.25-1.01-2.25-2.25Z"/><path d="M12 10.75c-.97 0-1.75.78-1.75 1.75 0 .41-.34.75-.75.75 -.42 0-.75-.34-.75-.75 0-1.8 1.45-3.25 3.25-3.25 1.79 0 3.25 1.45 3.25 3.25 0 .41-.34.75-.75.75 -.42 0-.75-.34-.75-.75 0-.97-.79-1.75-1.75-1.75Z"/><path d="M8.25 15c0-.42.33-.75.75-.75h6c.41 0 .75.33.75.75 0 .41-.34.75-.75.75H9c-.42 0-.75-.34-.75-.75Z"/><path d="M8.25 18c0-.42.33-.75.75-.75h6c.41 0 .75.33.75.75 0 .41-.34.75-.75.75H9c-.42 0-.75-.34-.75-.75Z"/></g></svg>