<svg viewBox="0 0 24 24" xmlns="http://www.w3.org/2000/svg"><g fill-rule="evenodd"><path d="M15.4 2.75c-1.6 0-2.85 1.25-2.85 2.75 0 .41-.34.75-.75.75 -.6 0-1.05.46-1.05 1 0 .53.45 1 1.05 1h.7c.41 0 .75.33.75.75 0 .41-.34.75-.75.75h-.7c-1.39 0-2.55-1.1-2.55-2.5 0-1.16.79-2.11 1.85-2.41 .32-2.06 2.14-3.6 4.29-3.6 1.69 0 3.17.94 3.89 2.34 .1-.01.2-.02.3-.02 1.71 0 3.15 1.36 3.15 3.08 0 .78-.24 1.55-.74 2.13 -.51.59-1.25.94-2.12.94h-3.4c-.42 0-.75-.34-.75-.75 0-.42.33-.75.75-.75h3.4c.44 0 .76-.17.97-.42 .22-.27.37-.67.37-1.17 0-.86-.72-1.59-1.65-1.59 -.19 0-.37.02-.54.08 -.19.06-.4.04-.58-.05 -.18-.1-.32-.25-.38-.44 -.36-1.11-1.44-1.94-2.73-1.94Z"/><path d="M7.4 15.75c-1.6 0-2.85 1.25-2.85 2.75 0 .41-.34.75-.75.75 -.6 0-1.05.46-1.05 1 0 .53.45 1 1.05 1h8.1c.44 0 .76-.17.97-.42 .22-.27.37-.67.37-1.17 0-.86-.72-1.59-1.65-1.59 -.19 0-.37.02-.54.08 -.19.06-.4.04-.58-.05 -.18-.1-.32-.25-.38-.44 -.36-1.11-1.44-1.94-2.73-1.94Zm-4.3 2.09c.32-2.06 2.14-3.6 4.29-3.6 1.69 0 3.17.94 3.89 2.34 .1-.01.2-.02.3-.02 1.71 0 3.15 1.36 3.15 3.08 0 .78-.24 1.55-.74 2.13 -.51.59-1.25.94-2.12.94h-8.1c-1.39 0-2.55-1.1-2.55-2.5 0-1.16.79-2.11 1.85-2.41Z"/><path d="M18 11.75c.41 0 .75.33.75.75V20c0 .41-.34.75-.75.75h-4c-.42 0-.75-.34-.75-.75 0-.42.33-.75.75-.75h3.25V12.5c0-.42.33-.75.75-.75Z"/><path d="M6 12.75c-.42 0-.75-.34-.75-.75V7c0-.42.33-.75.75-.75h4c.41 0 .75.33.75.75 0 .41-.34.75-.75.75H6.75V12c0 .41-.34.75-.75.75Z"/></g></svg>