<svg viewBox="0 0 24 24" xmlns="http://www.w3.org/2000/svg"><g fill-rule="evenodd"><path d="M12.75 14c0 .69.55 1.25 1.25 1.25h3c.69 0 1.25-.56 1.25-1.25V9c0-.7-.56-1.25-1.25-1.25h-3c-.7 0-1.25.55-1.25 1.25v5ZM14 16.75c-1.52 0-2.75-1.24-2.75-2.75V9c0-1.52 1.23-2.75 2.75-2.75h3c1.51 0 2.75 1.23 2.75 2.75v5c0 1.51-1.24 2.75-2.75 2.75h-3Z"/><path d="M11.25 14c0 .69-.56 1.25-1.25 1.25H7c-.7 0-1.25-.56-1.25-1.25V9c0-.7.55-1.25 1.25-1.25h3c.69 0 1.25.55 1.25 1.25v5ZM10 16.75c1.51 0 2.75-1.24 2.75-2.75V9c0-1.52-1.24-2.75-2.75-2.75H7C5.48 6.25 4.25 7.48 4.25 9v5c0 1.51 1.23 2.75 2.75 2.75h3Z"/><path d="M19 15.75c-.42 0-.75-.34-.75-.75V8c0-.42.33-.75.75-.75h3c.41 0 .75.33.75.75v7c0 .41-.34.75-.75.75h-3Zm.75-1.5h1.5v-5.5h-1.5v5.5Z"/><path d="M5 15.75c.41 0 .75-.34.75-.75V8c0-.42-.34-.75-.75-.75H2c-.42 0-.75.33-.75.75v1c0 .41.33.75.75.75 .41 0 .75-.34.75-.75v-.25h1.5v5.5h-1.5V13c0-.42-.34-.75-.75-.75 -.42 0-.75.33-.75.75v2c0 .41.33.75.75.75h3Z"/><path d="M15 6.25c-.42 0-.75.33-.75.75v3.25c0 1.51 1.23 2.75 2.75 2.75h2c.41 0 .75-.34.75-.75 0-.42-.34-.75-.75-.75h-2c-.7 0-1.25-.56-1.25-1.25V7c0-.42-.34-.75-.75-.75Z"/><path d="M9 6.25c.41 0 .75.33.75.75v3.25C9.75 11.76 8.51 13 7 13H5c-.42 0-.75-.34-.75-.75 0-.42.33-.75.75-.75h2c.69 0 1.25-.56 1.25-1.25V7c0-.42.33-.75.75-.75Z"/></g></svg>