<svg viewBox="0 0 24 24" xmlns="http://www.w3.org/2000/svg"><g fill-rule="evenodd"><path d="M8 8.75c-1.25 0-2.25 1-2.25 2.25v2c0 1.24 1 2.25 2.25 2.25h2c.41 0 .75.33.75.75 0 .41-.34.75-.75.75H8c-2.08 0-3.75-1.68-3.75-3.75v-2c0-2.08 1.67-3.75 3.75-3.75h2c.41 0 .75.33.75.75 0 .41-.34.75-.75.75H8Z"/><path d="M16 8.75c1.24 0 2.25 1 2.25 2.25v2c0 1.24-1.01 2.25-2.25 2.25h-2c-.42 0-.75.33-.75.75 0 .41.33.75.75.75h2c2.07 0 3.75-1.68 3.75-3.75v-2c0-2.08-1.68-3.75-3.75-3.75h-2c-.42 0-.75.33-.75.75 0 .41.33.75.75.75h2Z"/><path d="M8.25 12c0-.42.33-.75.75-.75h6c.41 0 .75.33.75.75 0 .41-.34.75-.75.75H9c-.42 0-.75-.34-.75-.75Z"/><path d="M1.25 8c0-2.63 2.12-4.75 4.75-4.75h12c2.62 0 4.75 2.12 4.75 4.75v8c0 2.62-2.13 4.75-4.75 4.75h-6c-.42 0-.75-.34-.75-.75 0-.42.33-.75.75-.75h6c1.79 0 3.25-1.46 3.25-3.25V8c0-1.8-1.46-3.25-3.25-3.25H6C4.2 4.75 2.75 6.2 2.75 8v8c0 1.79 1.45 3.25 3.25 3.25h2c.41 0 .75.33.75.75 0 .41-.34.75-.75.75H6c-2.63 0-4.75-2.13-4.75-4.75V8Z"/></g></svg>