<svg viewBox="0 0 24 24" xmlns="http://www.w3.org/2000/svg"><g fill-rule="evenodd"><path d="M9.25 2c0-.42.33-.75.75-.75h4c.41 0 .75.33.75.75v1.69c.4.13.8.29 1.18.48l1.19-1.2c.29-.3.76-.3 1.06 0L21 5.79c.14.14.21.33.21.53 0 .19-.08.38-.22.53l-1.2 1.19c.19.37.35.77.48 1.18h1.69c.41 0 .75.33.75.75v4c0 .41-.34.75-.75.75h-1.7c-.14.4-.3.8-.49 1.18l1.19 1.19c.14.14.21.33.21.53 0 .19-.08.38-.22.53l-2.83 2.82c-.3.29-.77.29-1.07 0 -.3-.3-.3-.77 0-1.07l2.29-2.3 -1.07-1.07c-.25-.25-.29-.62-.12-.92 .34-.58.6-1.21.77-1.87 .08-.34.38-.57.72-.57h1.5v-2.5h-1.51c-.35 0-.65-.24-.73-.57 -.18-.67-.44-1.3-.78-1.87 -.18-.3-.13-.67.11-.92l1.06-1.07 -1.77-1.77 -1.07 1.06c-.25.24-.62.28-.92.11 -.58-.35-1.21-.61-1.87-.78 -.34-.09-.57-.39-.57-.73V2.62h-2.5v1.5c0 .34-.24.64-.57.72 -.67.17-1.3.43-1.87.77 -.3.17-.67.12-.92-.12L6.16 4.42 4.39 6.18l1.06 1.06c.24.24.28.61.11.91 -.35.57-.61 1.2-.78 1.86 -.09.33-.39.56-.73.56H2.54v2.5h1.5c.34 0 .64.23.72.56 .17.66.43 1.29.77 1.86 .17.29.12.66-.12.91l-1.07 1.06 1.76 1.76 1.06-1.07c.24-.25.61-.29.91-.12 .57.34 1.2.6 1.86.77 .33.08.56.38.56.72v1.5h2.5v-1.51c0-.42.33-.75.75-.75 .41 0 .75.33.75.75v2.25c0 .41-.34.75-.75.75h-4c-.42 0-.75-.34-.75-.75v-1.7c-.41-.14-.81-.3-1.19-.49l-1.2 1.19c-.3.29-.77.29-1.07 0L2.7 17.93c-.3-.3-.3-.77 0-1.07l1.19-1.2c-.2-.38-.36-.78-.49-1.19H1.7c-.42 0-.75-.34-.75-.75v-4c0-.42.33-.75.75-.75h1.69c.13-.41.29-.81.48-1.19l-1.2-1.2c-.15-.15-.22-.34-.22-.54s.07-.39.21-.54l2.82-2.83c.29-.3.76-.3 1.06 0l1.19 1.19c.37-.2.77-.36 1.18-.49v-1.7Z"/><path d="M12 7.75c-2.35 0-4.25 1.9-4.25 4.25 0 2.34 1.9 4.25 4.25 4.25 2.34 0 4.25-1.91 4.25-4.25 0-2.35-1.91-4.25-4.25-4.25ZM6.25 12c0-3.18 2.57-5.75 5.75-5.75 3.17 0 5.75 2.57 5.75 5.75 0 3.17-2.58 5.75-5.75 5.75 -3.18 0-5.75-2.58-5.75-5.75Z"/><path d="M11.27 9.12c-.32.69-.53 1.71-.53 2.87 0 1.16.21 2.17.52 2.87 .15.34.32.58.46.72 .14.13.22.14.26.14 .03 0 .11-.02.26-.15 .14-.14.31-.38.46-.73 .31-.7.52-1.72.52-2.88 0-1.17-.22-2.18-.53-2.88 -.16-.35-.33-.59-.47-.73 -.15-.14-.23-.15-.27-.15 -.04 0-.12.01-.27.14 -.15.13-.32.37-.47.72ZM10.7 7.3c.33-.33.77-.57 1.29-.57s.95.24 1.29.56c.33.31.59.73.8 1.2 .41.93.65 2.16.65 3.48 0 1.32-.24 2.55-.66 3.48 -.21.46-.48.88-.81 1.2 -.34.32-.78.56-1.3.56 -.53 0-.96-.25-1.3-.57 -.34-.32-.6-.74-.81-1.21 -.42-.94-.66-2.17-.66-3.49 0-1.33.23-2.56.65-3.49 .2-.47.47-.89.8-1.21Z"/><path d="M6.25 12c0-.42.33-.75.75-.75h10c.41 0 .75.33.75.75 0 .41-.34.75-.75.75H7c-.42 0-.75-.34-.75-.75Z"/></g></svg>