<svg viewBox="0 0 24 24" xmlns="http://www.w3.org/2000/svg"><g fill-rule="evenodd"><path d="M11 6.25c-.7 0-1.25.55-1.25 1.25 0 .69.55 1.25 1.25 1.25 .69 0 1.25-.56 1.25-1.25 0-.7-.56-1.25-1.25-1.25ZM8.25 7.5c0-1.52 1.23-2.75 2.75-2.75 1.51 0 2.75 1.23 2.75 2.75 0 1.51-1.24 2.75-2.75 2.75 -1.52 0-2.75-1.24-2.75-2.75Z"/><path d="M11.96 8.46c.29-.3.76-.3 1.06 0l1.5 1.5c.29.29.29.76 0 1.06 -.3.29-.77.29-1.07 0l-1.5-1.5c-.3-.3-.3-.77 0-1.07Z"/><path d="M1.25 15.5c0-1.52 1.23-2.75 2.75-2.75h16c1.51 0 2.75 1.23 2.75 2.75v1c0 1.51-1.24 2.75-2.75 2.75h-8c-.42 0-.75-.34-.75-.75 0-.42.33-.75.75-.75h8c.69 0 1.25-.56 1.25-1.25v-1c0-.7-.56-1.25-1.25-1.25H4c-.7 0-1.25.55-1.25 1.25v1c0 .69.55 1.25 1.25 1.25h4c.41 0 .75.33.75.75 0 .41-.34.75-.75.75H4c-1.52 0-2.75-1.24-2.75-2.75v-1Z"/></g></svg>