<svg viewBox="0 0 24 24" xmlns="http://www.w3.org/2000/svg"><g fill-rule="evenodd"><path d="M6.5 2.75c-.7 0-1.25.55-1.25 1.25v1c0 .69.55 1.25 1.25 1.25h11c.69 0 1.25-.56 1.25-1.25V4c0-.7-.56-1.25-1.25-1.25H14c-.42 0-.75-.34-.75-.75 0-.42.33-.75.75-.75h3.5c1.51 0 2.75 1.23 2.75 2.75v1c0 1.51-1.24 2.75-2.75 2.75h-11C4.98 7.75 3.75 6.51 3.75 5V4c0-1.52 1.23-2.75 2.75-2.75H10c.41 0 .75.33.75.75 0 .41-.34.75-.75.75H6.5Z"/><path d="M3.75 11.5c0-1.52 1.23-2.75 2.75-2.75h11c1.51 0 2.75 1.23 2.75 2.75v1c0 1.51-1.24 2.75-2.75 2.75h-11c-1.52 0-2.75-1.24-2.75-2.75v-1Zm2.75-1.25c-.7 0-1.25.55-1.25 1.25v1c0 .69.55 1.25 1.25 1.25h11c.69 0 1.25-.56 1.25-1.25v-1c0-.7-.56-1.25-1.25-1.25h-11Z"/><path d="M3.75 19c0-1.52 1.23-2.75 2.75-2.75H18c1.51 0 2.75 1.23 2.75 2.75v1c0 1.51-1.24 2.75-2.75 2.75H6.5c-1.52 0-2.75-1.24-2.75-2.75v-1Zm2.75-1.25c-.7 0-1.25.55-1.25 1.25v1c0 .69.55 1.25 1.25 1.25H18c.69 0 1.25-.56 1.25-1.25v-1c0-.7-.56-1.25-1.25-1.25H6.5Z"/><path d="M6.25 4.5c0-.42.33-.75.75-.75h3c.41 0 .75.33.75.75 0 .41-.34.75-.75.75H7c-.42 0-.75-.34-.75-.75Z"/><path d="M6.25 12c0-.42.33-.75.75-.75h3c.41 0 .75.33.75.75 0 .41-.34.75-.75.75H7c-.42 0-.75-.34-.75-.75Z"/><path d="M6.75 19.5c0-.42.33-.75.75-.75h3c.41 0 .75.33.75.75 0 .41-.34.75-.75.75h-3c-.42 0-.75-.34-.75-.75Z"/><path d="M12 6.25c.41 0 .75.33.75.75v2.4c0 .41-.34.75-.75.75 -.42 0-.75-.34-.75-.76V6.98c0-.42.33-.75.75-.75Z"/><path d="M12 14.25c.41 0 .75.33.75.75v1.9c0 .41-.34.75-.75.75 -.42 0-.75-.34-.75-.75v-1.91c0-.42.33-.75.75-.75Z"/></g></svg>