<svg viewBox="0 0 24 24" xmlns="http://www.w3.org/2000/svg"><g fill-rule="evenodd"><path d="M1.25 12c0-.42.33-.75.75-.75h3c.41 0 .75.33.75.75v8c0 .41-.34.75-.75.75H2c-.42 0-.75-.34-.75-.75v-8Zm1.5.75v6.5h1.5v-6.5h-1.5Z"/><path d="M8.39 15.3c.24-.34.71-.4 1.05-.15l3.46 2.6c.21.16.47.25.75.25h6.7c1.31 0 2.375 1.06 2.375 2.375 0 1.31-1.07 2.375-2.375 2.375h-3.375c-.42 0-.75-.34-.75-.75 0-.42.33-.75.75-.75h3.375c.48 0 .875-.4.875-.875 0-.49-.4-.875-.875-.875h-6.71c-.6 0-1.18-.2-1.65-.55l-3.47-2.6c-.34-.25-.4-.72-.15-1.05Zm-4.13 4.49c.11-.4.53-.63.92-.52l6.6 1.92c.11.03.23.04.34.04h.83c.41 0 .75.33.75.75 0 .41-.34.75-.75.75h-.84c-.26 0-.52-.04-.77-.11l-6.61-1.93c-.4-.12-.63-.54-.52-.93Z"/><path d="M4.25 12c0-.42.33-.75.75-.75h4.27c.64 0 1.26.22 1.76.63l3.22 2.68c.62.52.98 1.29.98 2.11v.93c0 1.03-.84 1.875-1.875 1.875 -.41 0-.81-.14-1.125-.375l-3.7-2.78c-.34-.25-.4-.72-.15-1.05 .24-.34.71-.4 1.05-.15l3.7 2.77c.06.04.14.07.22.07 .2 0 .375-.17.375-.375v-.94c0-.38-.17-.73-.45-.97l-3.23-2.69c-.23-.19-.51-.29-.81-.29H4.95c-.42 0-.75-.34-.75-.75Z"/><path d="M19.67 3.66c.18.37.03.82-.34 1l-4 2c-.38.18-.83.03-1.01-.34 -.19-.38-.04-.83.33-1.01l4-2c.37-.19.82-.04 1 .33Z"/><path d="M19.67 10.33c.18-.38.03-.83-.34-1.01l-4-2c-.38-.19-.83-.04-1.01.33 -.19.37-.04.82.33 1l4 1.99c.37.18.82.03 1-.34Z"/><path d="M20.5 2.75c-.42 0-.75.33-.75.75 0 .41.33.75.75.75 .41 0 .75-.34.75-.75 0-.42-.34-.75-.75-.75Zm-2.25.75c0-1.25 1-2.25 2.25-2.25 1.24 0 2.25 1 2.25 2.25 0 1.24-1.01 2.25-2.25 2.25 -1.25 0-2.25-1.01-2.25-2.25Z"/><path d="M13.5 6.25c-.42 0-.75.33-.75.75 0 .41.33.75.75.75 .41 0 .75-.34.75-.75 0-.42-.34-.75-.75-.75ZM11.25 7c0-1.25 1-2.25 2.25-2.25 1.24 0 2.25 1 2.25 2.25 0 1.24-1.01 2.25-2.25 2.25 -1.25 0-2.25-1.01-2.25-2.25Z"/><path d="M20.5 9.75c-.42 0-.75.33-.75.75 0 .41.33.75.75.75 .41 0 .75-.34.75-.75 0-.42-.34-.75-.75-.75Zm-2.25.75c0-1.25 1-2.25 2.25-2.25 1.24 0 2.25 1 2.25 2.25 0 1.24-1.01 2.25-2.25 2.25 -1.25 0-2.25-1.01-2.25-2.25Z"/></g></svg>