<svg viewBox="0 0 24 24" xmlns="http://www.w3.org/2000/svg"><g fill-rule="evenodd"><path d="M17 15.25c-.42 0-.75.33-.75.75 0 .41.33.75.75.75 .41 0 .75-.34.75-.75 0-.42-.34-.75-.75-.75Zm-2.25.75c0-1.25 1-2.25 2.25-2.25 1.24 0 2.25 1 2.25 2.25 0 1.24-1.01 2.25-2.25 2.25 -1.25 0-2.25-1.01-2.25-2.25Z"/><path d="M7 5.25c-.42 0-.75.33-.75.75 0 .41.33.75.75.75 .41 0 .75-.34.75-.75 0-.42-.34-.75-.75-.75ZM4.75 6c0-1.25 1-2.25 2.25-2.25 1.24 0 2.25 1 2.25 2.25 0 1.24-1.01 2.25-2.25 2.25 -1.25 0-2.25-1.01-2.25-2.25Z"/><path d="M17 18.25c-1.46 0-2.7.96-3.11 2.28 -.13.39-.55.61-.94.49 -.4-.13-.62-.55-.5-.94 .59-1.936 2.4-3.35 4.53-3.35 2.13 0 3.93 1.4 4.53 3.34 .12.39-.1.81-.5.93s-.82-.1-.94-.5c-.42-1.33-1.65-2.29-3.11-2.29Z"/><path d="M7 8.25c-1.46 0-2.7.96-3.11 2.28 -.13.39-.55.61-.94.49 -.4-.13-.62-.55-.5-.94 .59-1.94 2.4-3.35 4.53-3.35 2.13 0 3.93 1.4 4.53 3.34 .12.39-.1.81-.5.93s-.82-.1-.94-.5c-.42-1.33-1.65-2.29-3.11-2.29Z"/><path d="M17 12.75c-2.35 0-4.25 1.9-4.25 4.25 0 2.34 1.9 4.25 4.25 4.25 2.34 0 4.25-1.91 4.25-4.25 0-2.35-1.91-4.25-4.25-4.25ZM11.25 17c0-3.18 2.57-5.75 5.75-5.75 3.17 0 5.75 2.57 5.75 5.75 0 3.17-2.58 5.75-5.75 5.75 -3.18 0-5.75-2.58-5.75-5.75Z"/><path d="M7 2.75c-1.75 0-3.25 1.04-3.9 2.55 -.17.37-.61.55-.99.38 -.38-.17-.56-.61-.39-.99 .88-2.03 2.91-3.45 5.27-3.45 3.17 0 5.74 2.57 5.74 5.75 0 3.17-2.58 5.75-5.75 5.75 -2.36 0-4.39-1.43-5.28-3.45 -.17-.38 0-.83.38-.99 .37-.17.82 0 .98.38 .65 1.5 2.15 2.55 3.89 2.55 2.34 0 4.24-1.91 4.24-4.25 0-2.35-1.91-4.25-4.25-4.25Z"/><path d="M6 15.75c-.7 0-1.25.55-1.25 1.25 0 .69.55 1.25 1.25 1.25 .69 0 1.25-.56 1.25-1.25 0-.7-.56-1.25-1.25-1.25ZM3.25 17c0-1.52 1.23-2.75 2.75-2.75 1.51 0 2.75 1.23 2.75 2.75 0 1.51-1.24 2.75-2.75 2.75 -1.52 0-2.75-1.24-2.75-2.75Z"/><path d="M18 5.75c.69 0 1.25.55 1.25 1.25 0 .69-.56 1.25-1.25 1.25 -.7 0-1.25-.56-1.25-1.25 0-.7.55-1.25 1.25-1.25ZM20.75 7c0-1.52-1.24-2.75-2.75-2.75 -1.52 0-2.75 1.23-2.75 2.75 0 1.51 1.23 2.75 2.75 2.75 1.51 0 2.75-1.24 2.75-2.75Z"/><path d="M7.25 17c0-.42.33-.75.75-.75h4c.41 0 .75.33.75.75 0 .41-.34.75-.75.75H8c-.42 0-.75-.34-.75-.75Z"/><path d="M16.75 7c0-.42-.34-.75-.75-.75h-4c-.42 0-.75.33-.75.75 0 .41.33.75.75.75h4c.41 0 .75-.34.75-.75Z"/><path d="M9.96 9.96c.29-.3.76-.3 1.06 0l3 3c.29.29.29.76 0 1.06 -.3.29-.77.29-1.07 0l-3.01-3c-.3-.3-.3-.77 0-1.07Z"/></g></svg>