<svg viewBox="0 0 24 24" xmlns="http://www.w3.org/2000/svg"><path fill="#FFC44D" d="M3 4.25c-.97 0-1.75.78-1.75 1.75v9.7c0 .96.78 1.75 1.75 1.75h16c.96 0 1.75-.79 1.75-1.75V6c0-.97-.79-1.75-1.75-1.75H3Z"/><g fill="#FFD071" fill-rule="evenodd"><path d="M20.68 5.53c-.21-.75-.89-1.29-1.69-1.29h-16c-.81 0-1.49.54-1.69 1.28l.69.51s.01.01.02.01l8.55 5.85c.25.17.59.17.84 0l8.55-5.86c0-.01.01-.02.02-.02l.69-.52Z"/><path fill="#5E94FF" d="M12.25 16c0-1.8 1.45-3.25 3.25-3.25h5.25c1.1 0 2 .89 2 2 0 1.1-.9 2-2 2H16c-.42 0-.75-.34-.75-.75 0-.42.33-.75.75-.75h4.75c.27 0 .5-.23.5-.5 0-.28-.23-.5-.5-.5H15.5c-.97 0-1.75.78-1.75 1.75 0 .96.78 1.75 1.75 1.75H21c.41 0 .75.33.75.75 0 .41-.34.75-.75.75h-5.5c-1.8 0-3.25-1.46-3.25-3.25Z"/></g></svg>