<svg viewBox="0 0 24 24" xmlns="http://www.w3.org/2000/svg"><path fill="#FFD071" d="M18.31 8.05c-.3 0-.58.07-.84.21L6.15 14.37c-.57.3-.92.89-.92 1.53v2.28c0 .96.78 1.75 1.75 1.75h14c.96 0 1.75-.79 1.75-1.75v-8.4c0-.97-.79-1.75-1.75-1.75h-2.69Z"/><path fill="#FFC44D" d="M3 4.05c-.97 0-1.75.78-1.75 1.75v8.4c0 .96.78 1.75 1.75 1.75h14c.96 0 1.75-.79 1.75-1.75V5.8c0-.97-.79-1.75-1.75-1.75H3Z"/><path fill="#FFD071" fill-rule="evenodd" d="M18.69 5.34c-.2-.75-.89-1.3-1.7-1.3h-14c-.81 0-1.5.54-1.7 1.29l.65.46 7.61 5.2c.25.17.59.17.84 0l7.6-5.2 .66-.48Z"/></svg>