<svg viewBox="0 0 24 24" xmlns="http://www.w3.org/2000/svg"><path fill="#FFC44D" d="M3 2.25c-.97 0-1.75.78-1.75 1.75v9.7c0 .96.78 1.75 1.75 1.75h16c.96 0 1.75-.79 1.75-1.75V4c0-.97-.79-1.75-1.75-1.75H3Z"/><g fill="#FFD071" fill-rule="evenodd"><path d="M20.68 3.53c-.21-.75-.89-1.29-1.69-1.29h-16c-.81 0-1.49.54-1.69 1.28l.69.51s.01.01.02.01l8.55 5.85c.25.17.59.17.84 0l8.55-5.85c0-.01.01-.02.02-.02l.69-.52Z"/><path fill="#CFD8DC" d="M15.25 13c0-1.52 1.23-2.75 2.75-2.75h1c1.51 0 2.75 1.23 2.75 2.75v1.5c0 .41-.34.75-.75.75h-5c-.42 0-.75-.34-.75-.75V13ZM18 11.75c-.7 0-1.25.55-1.25 1.25v.75h3.5V13c0-.7-.56-1.25-1.25-1.25h-1Z"/></g><path fill="#5E94FF" d="M16 13.75c-.97 0-1.75.78-1.75 1.75v4c0 .96.78 1.75 1.75 1.75h5c.96 0 1.75-.79 1.75-1.75v-4c0-.97-.79-1.75-1.75-1.75h-5Z"/></svg>