<svg viewBox="0 0 24 24" xmlns="http://www.w3.org/2000/svg"><path fill="#FFC44D" d="M3 2.75c-.97 0-1.75.78-1.75 1.75v9.7c0 .96.78 1.75 1.75 1.75h16c.96 0 1.75-.79 1.75-1.75V4.5c0-.97-.79-1.75-1.75-1.75H3Z"/><path fill="#FFD071" fill-rule="evenodd" d="M20.68 4.03c-.21-.75-.89-1.29-1.69-1.29h-16c-.81 0-1.49.54-1.69 1.28l.69.51s.01.01.02.01l8.55 5.85c.25.17.59.17.84 0l8.55-5.86c0-.01.01-.02.02-.02l.69-.52Z"/><path fill="#ECEFF1" d="M17 9.75c-3.18 0-5.75 2.57-5.75 5.75 0 3.17 2.57 5.75 5.75 5.75 3.17 0 5.75-2.58 5.75-5.75 0-3.18-2.58-5.75-5.75-5.75Z"/><g fill="#EE4D4D" fill-rule="evenodd"><path d="M14.96 17.79c-.3-.3-.3-.77 0-1.07l3.53-3.54c.29-.3.76-.3 1.06 0 .29.29.29.76 0 1.06l-3.54 3.53c-.3.29-.77.29-1.07 0Z"/><path d="M14.96 13.2c.29-.3.76-.3 1.06 0l3.53 3.53c.29.29.29.76 0 1.06 -.3.29-.77.29-1.07 0l-3.54-3.54c-.3-.3-.3-.77 0-1.07Z"/></g></svg>