<svg viewBox="0 0 24 24" xmlns="http://www.w3.org/2000/svg"><path fill="#FFC44D" d="M3 2.25c-.97 0-1.75.78-1.75 1.75v9.7c0 .96.78 1.75 1.75 1.75h16c.96 0 1.75-.79 1.75-1.75V4c0-.97-.79-1.75-1.75-1.75H3Z"/><path fill="#FFD071" fill-rule="evenodd" d="M20.68 3.53c-.21-.75-.89-1.29-1.69-1.29h-16c-.81 0-1.49.54-1.69 1.28l.69.51s.01.01.02.01l8.55 5.85c.25.17.59.17.84 0l8.55-5.85c0-.01.01-.02.02-.02l.69-.52Z"/><path fill="#5E94FF" d="M17 10.25c-3.18 0-5.75 2.57-5.75 5.75 0 3.17 2.57 5.75 5.75 5.75 3.17 0 5.75-2.58 5.75-5.75 0-3.18-2.58-5.75-5.75-5.75Z"/><g fill="#4DC4FF" fill-rule="evenodd"><path d="M16.28 12.74c-.32.79-.54 1.94-.54 3.25 0 1.3.21 2.46.53 3.25 .16.4.33.67.48.83 .14.15.22.15.23.15 0 0 .08 0 .23-.16 .15-.17.32-.44.48-.84 .31-.8.53-1.95.53-3.26 0-1.31-.22-2.47-.54-3.26 -.17-.41-.34-.68-.49-.84 -.15-.16-.23-.16-.24-.16 -.01 0-.09-.01-.24.15 -.16.16-.33.43-.49.83Zm-.61-1.87c.32-.35.77-.63 1.32-.63 .54 0 .99.28 1.32.62 .32.34.58.8.78 1.3 .4 1.01.63 2.36.63 3.81 0 1.45-.24 2.8-.64 3.81 -.21.5-.47.96-.79 1.3 -.33.34-.78.62-1.33.62s-1-.29-1.33-.63c-.33-.35-.59-.81-.79-1.31 -.41-1.02-.64-2.37-.64-3.82 0-1.46.23-2.81.63-3.82 .2-.51.46-.97.78-1.31Z"/><path d="M22.7 15.25H11.29c-.04.24-.05.49-.05.75 0 .25.01.5.04.75H22.69c.03-.25.04-.5.04-.75 0-.26-.02-.51-.05-.75Z"/></g></svg>