<svg viewBox="0 0 24 24" xmlns="http://www.w3.org/2000/svg"><path fill="#FFC44D" d="M5 2.75c-.97 0-1.75.78-1.75 1.75v7c0 .96.78 1.75 1.75 1.75h14c.96 0 1.75-.79 1.75-1.75v-7c0-.97-.79-1.75-1.75-1.75H5Z"/><path fill="#FFD071" fill-rule="evenodd" d="M20.68 4.03c-.21-.74-.89-1.29-1.69-1.29h-14c-.81 0-1.49.54-1.69 1.28l.64.47s.01.01.02.01l7.6 5.2c.25.17.59.17.84 0L20 4.5c0-.01.01-.02.02-.02l.64-.48Z"/><path fill="#CFD8DC" d="M2 11.75c-.42 0-.75.33-.75.75v8c0 .41.33.75.75.75h20c.41 0 .75-.34.75-.75v-8c0-.42-.34-.75-.75-.75H2Z"/><path fill="#8B98A6" fill-rule="evenodd" d="M8.75 15.5c0-.42.33-.75.75-.75h5c.41 0 .75.33.75.75 0 .41-.34.75-.75.75h-5c-.42 0-.75-.34-.75-.75Z"/></svg>