<svg viewBox="0 0 24 24" xmlns="http://www.w3.org/2000/svg"><path fill="#8B98A6" fill-rule="evenodd" d="M6.25 6c0-2.63 2.12-4.75 4.75-4.75h2c2.62 0 4.75 2.12 4.75 4.75v4.5c0 .41-.34.75-.75.75H7c-.42 0-.75-.34-.75-.75V6ZM11 2.75C9.2 2.75 7.75 4.2 7.75 6v3.75h8.5V6c0-1.8-1.46-3.25-3.25-3.25h-2Z"/><path fill="#FFC44D" d="M6 9.75c-1.52 0-2.75 1.23-2.75 2.75V19c0 1.51 1.23 2.75 2.75 2.75h12c1.51 0 2.75-1.24 2.75-2.75v-6.5c0-1.52-1.24-2.75-2.75-2.75H6Z"/><path fill="#ECEFF1" fill-rule="evenodd" d="M12 15.25c.41 0 .75.33.75.75v2.5c0 .41-.34.75-.75.75 -.42 0-.75-.34-.75-.75V16c0-.42.33-.75.75-.75Z"/><path fill="#ECEFF1" d="M12 12.25c-1.25 0-2.25 1-2.25 2.25 0 1.24 1 2.25 2.25 2.25 1.24 0 2.25-1.01 2.25-2.25 0-1.25-1.01-2.25-2.25-2.25Z"/></svg>