<svg viewBox="0 0 24 24" xmlns="http://www.w3.org/2000/svg"><path fill="#FFC44D" d="M12.38 1.85c-.24-.15-.54-.15-.78 0l-9.52 5.7c-.53.31-.85.88-.85 1.5v11.43c0 .96.78 1.75 1.75 1.75h18c.96 0 1.75-.79 1.75-1.75V9.04c0-.62-.33-1.19-.85-1.51l-9.52-5.71Z"/><g fill="#FFD071" fill-rule="evenodd"><path d="M22.67 8.55c-.13-.41-.4-.77-.78-1l-9.52-5.71c-.24-.15-.54-.15-.78-.001l-9.52 5.7c-.38.22-.65.58-.78.99l.72.54 9.5 7c.26.19.62.19.88 0l9.5-7 .72-.55Z"/><path d="M22.64 21.1c-.04-.05-.07-.1-.12-.15l-7.5-7.5c-.3-.3-.77-.3-1.07 0 -.3.29-.3.76 0 1.06l7.5 7.5c.04.04.09.08.14.11 .47-.18.85-.56 1.03-1.04Z"/><path d="M2.39 22.14c.04-.04.09-.07.14-.12l7.5-7.5c.29-.3.29-.77 0-1.07 -.3-.3-.77-.3-1.07 0l-7.5 7.5c-.05.04-.09.09-.12.14 .17.47.55.85 1.03 1.03Z"/></g></svg>