<svg viewBox="0 0 24 24" xmlns="http://www.w3.org/2000/svg"><path fill="#A2ADB8" fill-rule="evenodd" d="M12 17.25c.41 0 .75.33.75.75v4c0 .41-.34.75-.75.75 -.42 0-.75-.34-.75-.75v-4c0-.42.33-.75.75-.75Z"/><path fill="#ECEFF1" d="M6 7.25c-2.63 0-4.75 2.12-4.75 4.75v6c0 .41.33.75.75.75h13c.41 0 .75-.34.75-.75v-4.29l3.38-5.32c.14-.24.15-.53.02-.77 -.14-.24-.39-.39-.66-.39H5.99Z"/><path fill="#A2ADB8" fill-rule="evenodd" d="M20 3.25c.41 0 .75.33.75.75v4.5c0 .41-.34.75-.75.75 -.42 0-.75-.34-.75-.75V4c0-.42.33-.75.75-.75Z"/><g fill="#EE4D4D"><path d="M15 1.25c-.42 0-.75.33-.75.75v2.5c0 .41.33.75.75.75h5c.41 0 .75-.34.75-.75V2c0-.42-.34-.75-.75-.75h-5Z"/><path d="M18.5 7.25c-2.35 0-4.25 1.9-4.25 4.25V18c0 .41.33.75.75.75h7c.41 0 .75-.34.75-.75v-6.5c0-2.35-1.91-4.25-4.25-4.25Z"/></g></svg>