<svg viewBox="0 0 24 24" xmlns="http://www.w3.org/2000/svg"><path fill="#ECEFF1" d="M3 3.25c-.42 0-.75.33-.75.75v12c0 .41.33.75.75.75h18c.41 0 .75-.34.75-.75V4c0-.42-.34-.75-.75-.75H3Z"/><path fill="#5E94FF" fill-rule="evenodd" d="M2.25 4c0-.42.33-.75.75-.75h18c.41 0 .75.33.75.75v12c0 .41-.34.75-.75.75H3c-.42 0-.75-.34-.75-.75V4Zm1.5.75v10.5h16.5V4.75H3.75Z"/><path fill="#4DC4FF" d="M2 15.25c-.42 0-.75.33-.75.75v2c0 1.51 1.23 2.75 2.75 2.75h16c1.51 0 2.75-1.24 2.75-2.75v-2c0-.42-.34-.75-.75-.75H2Z"/><path fill="#FFC44D" d="M7 5.75c-.42 0-.75.33-.75.75v7c0 .41.33.75.75.75h10.76c.41 0 .75-.34.75-.75v-7c0-.42-.34-.75-.75-.75H6.99Z"/><g fill="#FFD071" fill-rule="evenodd"><path d="M18.51 6.96v-.47c0-.42-.34-.75-.75-.75H6.99c-.42 0-.75.33-.75.75v.42l.55.43c.01 0 .02.01.03.02l5.11 3.49c.25.17.59.17.84 0l5.11-3.5 .59-.43Z"/><path d="M13.2 8.93c.29-.3.76-.3 1.06 0l4.03 4.03c.29.29.29.76 0 1.06 -.3.29-.77.29-1.07 0l-4.04-4.04c-.3-.3-.3-.77 0-1.07Z"/><path d="M11.56 8.93c-.3-.3-.77-.3-1.07 0l-4.04 4.03c-.3.29-.3.76 0 1.06 .29.29.76.29 1.06 0l4.03-4.04c.29-.3.29-.77 0-1.07Z"/></g></svg>