<svg viewBox="0 0 24 24" xmlns="http://www.w3.org/2000/svg"><path fill="#FFC44D" d="M3 6.25c-.97 0-1.75.78-1.75 1.75v10c0 .96.78 1.75 1.75 1.75h16.46c.96 0 1.75-.79 1.75-1.75v-7.92c0-.64-.35-1.22-.9-1.53l-3.73-2.09c-.27-.15-.56-.23-.86-.23H2.98Z"/><g fill="#FFD071" fill-rule="evenodd"><path d="M17.95 7.23l-1.37-.77c-.27-.15-.56-.23-.86-.23H2.98c-.8 0-1.47.53-1.69 1.26l.67.53c.01.01.02.02.04.03l8.76 5.99c.25.17.59.17.84 0l5.975-4.09c.2-.14.32-.38.32-.62V7.19Z"/><path d="M21.1 18.61c-.04-.06-.07-.1-.12-.15l-6.93-6.93c-.3-.3-.77-.3-1.07 0 -.3.29-.3.76 0 1.06l6.92 6.923c.04.04.09.08.14.11 .47-.18.85-.56 1.03-1.04Z"/><path d="M2.39 19.64c.04-.04.09-.07.14-.12l6.92-6.923c.29-.3.29-.77 0-1.07 -.3-.3-.77-.3-1.07 0l-6.93 6.92c-.05.04-.08.09-.12.14 .17.47.55.85 1.03 1.03Z"/></g><path fill="#EE4D4D" d="M19 3.25c-2.08 0-3.75 1.67-3.75 3.75 0 2.07 1.67 3.75 3.75 3.75 2.07 0 3.75-1.68 3.75-3.75 0-2.08-1.68-3.75-3.75-3.75Z"/></svg>