<svg viewBox="0 0 24 24" xmlns="http://www.w3.org/2000/svg"><path fill="#ECEFF1" d="M5 1.25C3.48 1.25 2.25 2.48 2.25 4v16c0 1.51 1.23 2.75 2.75 2.75h8c1.51 0 2.75-1.24 2.75-2.75V4c0-1.52-1.24-2.75-2.75-2.75H5Z"/><g fill="#5E94FF" fill-rule="evenodd"><path d="M2.25 4c0-1.52 1.23-2.75 2.75-2.75h8c1.51 0 2.75 1.23 2.75 2.75v3c0 .41-.34.75-.75.75 -.42 0-.75-.34-.75-.75V4c0-.7-.56-1.25-1.25-1.25H5c-.7 0-1.25.55-1.25 1.25v16c0 .69.55 1.25 1.25 1.25h8c.69 0 1.25-.56 1.25-1.25v-5c0-.42.33-.75.75-.75 .41 0 .75.33.75.75v5c0 1.51-1.24 2.75-2.75 2.75H5c-1.52 0-2.75-1.24-2.75-2.75V4Z"/><path fill="#8B98A6" d="M6.75 19.5c0-.42.33-.75.75-.75h3c.41 0 .75.33.75.75 0 .41-.34.75-.75.75h-3c-.42 0-.75-.34-.75-.75Z"/></g><path fill="#FFC44D" d="M10 6.25c-.97 0-1.75.78-1.75 1.75v5.8c0 .96.78 1.75 1.75 1.75h10c.96 0 1.75-.79 1.75-1.75V8c0-.97-.79-1.75-1.75-1.75H10Z"/><path fill="#FFD071" fill-rule="evenodd" d="M21.68 7.51c-.22-.74-.89-1.27-1.69-1.27h-10c-.8 0-1.48.53-1.69 1.26l.54.39 .01.01 5.7 3.9c.25.17.59.17.84 0l5.7-3.91 .01-.02 .54-.4Z"/></svg>