<svg viewBox="0 0 24 24" xmlns="http://www.w3.org/2000/svg"><path fill="#FFC44D" d="M3 2.25c-.97 0-1.75.78-1.75 1.75v9.7c0 .96.78 1.75 1.75 1.75h16c.96 0 1.75-.79 1.75-1.75V4c0-.97-.79-1.75-1.75-1.75H3Z"/><g fill="#FFD071" fill-rule="evenodd"><path d="M20.68 3.53c-.21-.75-.89-1.29-1.69-1.29h-16c-.81 0-1.49.54-1.69 1.28l.69.51s.01.01.02.01l8.55 5.85c.25.17.59.17.84 0l8.55-5.85c0-.01.01-.02.02-.02l.69-.52Z"/><path fill="#CFD8DC" d="M15.25 12c0-.97.78-1.75 1.75-1.75h3c.96 0 1.75.78 1.75 1.75v3c0 .41-.34.75-.75.75h-2.5c-.42 0-.75-.34-.75-.75 0-.42.33-.75.75-.75h1.75V12c0-.14-.12-.25-.25-.25h-3c-.14 0-.25.11-.25.25v.5c0 .41-.34.75-.75.75 -.42 0-.75-.34-.75-.75V12Z"/></g><path fill="#5E94FF" d="M16 14.25c-.97 0-1.75.78-1.75 1.75v3.5c0 .96.78 1.75 1.75 1.75h5c.96 0 1.75-.79 1.75-1.75V16c0-.97-.79-1.75-1.75-1.75h-5Z"/></svg>