<svg viewBox="0 0 24 24" xmlns="http://www.w3.org/2000/svg"><path fill="#5E94FF" d="M4 4.75c-1.52 0-2.75 1.23-2.75 2.75v9c0 1.51 1.23 2.75 2.75 2.75h16c1.51 0 2.75-1.24 2.75-2.75v-9c0-1.52-1.24-2.75-2.75-2.75H4Z"/><g fill="#ECEFF1"><path d="M7.5 8.25c-1.8 0-3.25 1.45-3.25 3.25 0 1.79 1.45 3.25 3.25 3.25 1.79 0 3.25-1.46 3.25-3.25 0-1.8-1.46-3.25-3.25-3.25Z"/><path d="M16.5 8.25c-1.8 0-3.25 1.45-3.25 3.25 0 1.79 1.45 3.25 3.25 3.25 1.79 0 3.25-1.46 3.25-3.25 0-1.8-1.46-3.25-3.25-3.25Z"/><path fill="#ECEFF1" fill-rule="evenodd" d="M6.75 14c0-.42.33-.75.75-.75h9c.41 0 .75.33.75.75 0 .41-.34.75-.75.75h-9c-.42 0-.75-.34-.75-.75Z"/></g></svg>