<svg viewBox="0 0 24 24" xmlns="http://www.w3.org/2000/svg"><path fill="#ECEFF1" d="M2 18.25c-.42 0-.75.33-.75.75v1c0 1.51 1.23 2.75 2.75 2.75h16c.41 0 .75-.34.75-.75v-3c0-.42-.34-.75-.75-.75H2Z"/><path fill="#CFD8DC" fill-rule="evenodd" d="M2 18.25c.41 0 .75.33.75.75v1c0 .69.55 1.25 1.25 1.25h18c.41 0 .75.33.75.75 0 .41-.34.75-.75.75H4c-1.52 0-2.75-1.24-2.75-2.75v-1c0-.42.33-.75.75-.75Z"/><path fill="#CFD8DC" d="M4 1.25C2.48 1.25 1.25 2.48 1.25 4v15c0 .41.33.75.75.75h20c.41 0 .75-.34.75-.75V2c0-.42-.34-.75-.75-.75H4Z"/><path fill="#A2ADB8" fill-rule="evenodd" d="M10.96 9.96c.29-.3.76-.3 1.06 0l6 6c.29.29.29.76 0 1.06 -.3.29-.77.29-1.07 0l-6-6c-.3-.3-.3-.77 0-1.07Z"/><path fill="#FFC44D" d="M5.25 5.1c.03-.3.24-.55.53-.63l0-.01 0-.01 0-.01 .01-.01c.01-.01.03-.01.05-.02 .04-.02.1-.03.18-.05 .15-.04.38-.08.65-.11 .53-.07 1.26-.11 2.03.04 1.24.24 2.45 1.11 2.98 1.62 1.36 1.32 1.36 3.47 0 4.79 -1.36 1.3-3.54 1.3-4.89 0 -.73-.71-.63-1.61-.52-2.2 .02-.14.05-.27.08-.39l.01-.06c.03-.15.05-.27.07-.39 .04-.25.04-.42.01-.54 -.1-.48-.33-.83-.55-1.06 -.11-.12-.21-.2-.28-.26 -.04-.03-.06-.05-.08-.06l-.02-.01c-.26-.16-.4-.45-.36-.74Z"/></svg>