<svg viewBox="0 0 24 24" xmlns="http://www.w3.org/2000/svg"><g fill="#A2ADB8" fill-rule="evenodd"><path d="M3.25 8.5c0-.42.33-.75.75-.75h5.04c1.49 0 2.79 1.01 3.15 2.46l.52 2.1c.1.4-.15.8-.55.9 -.41.1-.81-.15-.91-.55l-.53-2.11c-.2-.78-.9-1.33-1.7-1.33H3.97c-.42 0-.75-.34-.75-.75Z"/><path d="M20.75 8.5c0-.42-.34-.75-.75-.75h-5.05c-1.5 0-2.8 1.01-3.16 2.46l-.53 2.1c-.11.4.14.8.54.9 .4.1.8-.15.9-.55l.52-2.11c.19-.78.89-1.33 1.69-1.33h5.04c.41 0 .75-.34.75-.75Z"/></g><g fill="#CFD8DC"><path d="M4 10.75c-1.52 0-2.75 1.23-2.75 2.75v1c0 .38.29.7.67.74l10 1c.21.02.42-.05.57-.2 .15-.15.24-.35.24-.56v-2c0-1.52-1.24-2.75-2.75-2.75h-6Z"/><path d="M14 10.75c-1.52 0-2.75 1.23-2.75 2.75v2c0 .21.08.41.24.55 .15.14.36.21.57.19l10-1c.38-.04.67-.37.67-.75v-1c0-1.52-1.24-2.75-2.75-2.75h-6Z"/></g></svg>