<svg viewBox="0 0 24 24" xmlns="http://www.w3.org/2000/svg"><path fill="#ECEFF1" d="M2 18.25c-.42 0-.75.33-.75.75v1c0 1.51 1.23 2.75 2.75 2.75h16c.41 0 .75-.34.75-.75v-3c0-.42-.34-.75-.75-.75H2Z"/><path fill="#CFD8DC" fill-rule="evenodd" d="M2 18.25c.41 0 .75.33.75.75v1c0 .69.55 1.25 1.25 1.25h18c.41 0 .75.33.75.75 0 .41-.34.75-.75.75H4c-1.52 0-2.75-1.24-2.75-2.75v-1c0-.42.33-.75.75-.75Z"/><path fill="#CFD8DC" d="M4 1.25C2.48 1.25 1.25 2.48 1.25 4v15c0 .41.33.75.75.75h20c.41 0 .75-.34.75-.75V2c0-.42-.34-.75-.75-.75H4Z"/><g fill="#5E94FF" fill-rule="evenodd"><path d="M12 5.25c-2.9 0-5.25 2.35-5.25 5.25 0 2.89 2.35 5.25 5.25 5.25 2.89 0 5.25-2.36 5.25-5.25 0-2.9-2.36-5.25-5.25-5.25ZM5.25 10.5c0-3.73 3.02-6.75 6.75-6.75 3.72 0 6.75 3.02 6.75 6.75 0 3.72-3.03 6.75-6.75 6.75 -3.73 0-6.75-3.03-6.75-6.75Z"/><path d="M10.54 6.59c-.49.96-.8 2.34-.8 3.9s.31 2.94.79 3.9c.5 1 1.05 1.34 1.45 1.34 .39 0 .94-.34 1.45-1.35 .48-.97.79-2.35.79-3.91 0-1.57-.32-2.95-.8-3.91 -.51-1.01-1.06-1.35-1.46-1.35 -.4 0-.95.33-1.46 1.34Zm-1.35-.68c.58-1.17 1.52-2.18 2.79-2.18 1.26 0 2.2 1 2.79 2.17 .6 1.21.95 2.83.95 4.57 0 1.74-.36 3.36-.96 4.57 -.59 1.16-1.53 2.17-2.8 2.17 -1.27 0-2.21-1.01-2.8-2.18 -.61-1.22-.96-2.84-.96-4.58 0-1.75.35-3.37.95-4.58Z"/><path d="M5.25 10.5c0-.42.33-.75.75-.75h12c.41 0 .75.33.75.75 0 .41-.34.75-.75.75H6c-.42 0-.75-.34-.75-.75Z"/></g></svg>