<svg viewBox="0 0 24 24" xmlns="http://www.w3.org/2000/svg"><path fill="#ECEFF1" d="M2 18.25c-.42 0-.75.33-.75.75v1c0 1.51 1.23 2.75 2.75 2.75h16c.41 0 .75-.34.75-.75v-3c0-.42-.34-.75-.75-.75H2Z"/><path fill="#CFD8DC" fill-rule="evenodd" d="M2 18.25c.41 0 .75.33.75.75v1c0 .69.55 1.25 1.25 1.25h18c.41 0 .75.33.75.75 0 .41-.34.75-.75.75H4c-1.52 0-2.75-1.24-2.75-2.75v-1c0-.42.33-.75.75-.75Z"/><path fill="#CFD8DC" d="M4 1.25C2.48 1.25 1.25 2.48 1.25 4v15c0 .41.33.75.75.75h20c.41 0 .75-.34.75-.75V2c0-.42-.34-.75-.75-.75H4Z"/><g fill="#FFD071"><path d="M10 5.25C8.48 5.25 7.25 6.48 7.25 8v1c0 .41.33.75.75.75h8c.41 0 .75-.34.75-.75V8c0-1.52-1.24-2.75-2.75-2.75h-4Z"/><path d="M16 11.25c.41 0 .75.33.75.75v3c0 .41-.34.75-.75.75H8c-.42 0-.75-.34-.75-.75v-3c0-.42.33-.75.75-.75h8Z"/></g><path fill="#F17171" d="M8.5 8.25c-1.25 0-2.25 1-2.25 2.25 0 1.24 1 2.25 2.25 2.25h7c1.24 0 2.25-1.01 2.25-2.25 0-1.25-1.01-2.25-2.25-2.25h-7Z"/></svg>