<svg viewBox="0 0 24 24" xmlns="http://www.w3.org/2000/svg"><path fill="#ECEFF1" d="M2 18.25c-.42 0-.75.33-.75.75v1c0 1.51 1.23 2.75 2.75 2.75h16c.41 0 .75-.34.75-.75v-3c0-.42-.34-.75-.75-.75H2Z"/><path fill="#CFD8DC" fill-rule="evenodd" d="M2 18.25c.41 0 .75.33.75.75v1c0 .69.55 1.25 1.25 1.25h18c.41 0 .75.33.75.75 0 .41-.34.75-.75.75H4c-1.52 0-2.75-1.24-2.75-2.75v-1c0-.42.33-.75.75-.75Z"/><path fill="#CFD8DC" d="M4 1.25C2.48 1.25 1.25 2.48 1.25 4v15c0 .41.33.75.75.75h20c.41 0 .75-.34.75-.75V2c0-.42-.34-.75-.75-.75H4Z"/><path fill="#5E94FF" d="M8.76 5.29c-.17-.07-.36-.07-.53 0l-4 1.5c-.3.1-.49.38-.49.7v4.75c0 1.02.48 1.98 1.3 2.6l3 2.25c.26.2.63.2.9 0l3-2.25c.81-.62 1.3-1.577 1.3-2.6V7.49c0-.32-.2-.6-.49-.71l-4-1.5Z"/><path fill="#ECEFF1" d="M16.5 6.25c-.4 0-.73.3-.75.7l-.5 8.5c-.02.21.06.42.21.57l1.5 1.5c.29.29.76.29 1.06 0l1.5-1.5c.15-.16.23-.37.21-.58l-.5-8.51c-.03-.4-.36-.71-.75-.71h-2Z"/><g fill="#A2ADB8" fill-rule="evenodd"><path d="M17.5 3.25c.41 0 .75.33.75.75v3c0 .41-.34.75-.75.75 -.42 0-.75-.34-.75-.75V4c0-.42.33-.75.75-.75Z"/><path d="M14.25 7c0-.42.33-.75.75-.75h5c.41 0 .75.33.75.75 0 .41-.34.75-.75.75h-5c-.42 0-.75-.34-.75-.75Z"/></g></svg>