<svg viewBox="0 0 24 24" xmlns="http://www.w3.org/2000/svg"><path fill="#ECEFF1" d="M2 18.25c-.42 0-.75.33-.75.75v1c0 1.51 1.23 2.75 2.75 2.75h16c.41 0 .75-.34.75-.75v-3c0-.42-.34-.75-.75-.75H2Z"/><path fill="#CFD8DC" fill-rule="evenodd" d="M2 18.25c.41 0 .75.33.75.75v1c0 .69.55 1.25 1.25 1.25h18c.41 0 .75.33.75.75 0 .41-.34.75-.75.75H4c-1.52 0-2.75-1.24-2.75-2.75v-1c0-.42.33-.75.75-.75Z"/><path fill="#CFD8DC" d="M4 1.25C2.48 1.25 1.25 2.48 1.25 4v15c0 .41.33.75.75.75h20c.41 0 .75-.34.75-.75V2c0-.42-.34-.75-.75-.75H4Z"/><g fill="#FFC44D" fill-rule="evenodd"><path d="M12 5.25c.41 0 .75.33.75.75v10c0 .41-.34.75-.75.75 -.42 0-.75-.34-.75-.75V6c0-.42.33-.75.75-.75Z"/><path d="M7.25 16c0-.42.33-.75.75-.75h8c.41 0 .75.33.75.75 0 .41-.34.75-.75.75H8c-.42 0-.75-.34-.75-.75Z"/><g fill="#ECEFF1"><path d="M7 5.25c.25 0 .49.13.63.35l2.5 4c.21.35.11.81-.24 1.03 -.36.21-.82.11-1.04-.24L6.98 7.4l-1.87 2.98c-.22.35-.69.45-1.04.23 -.36-.22-.46-.69-.24-1.04l2.5-4c.13-.22.37-.36.63-.36Z"/><path d="M17 5.25c.25 0 .49.13.63.35l2.5 4c.21.35.11.81-.24 1.03 -.36.21-.82.11-1.04-.24L16.98 7.4l-1.87 2.98c-.22.35-.69.45-1.04.23 -.36-.22-.46-.69-.24-1.04l2.5-4c.13-.22.37-.36.63-.36Z"/></g><path d="M4.25 6c0-.42.33-.75.75-.75h14c.41 0 .75.33.75.75 0 .41-.34.75-.75.75H5c-.42 0-.75-.34-.75-.75Z"/></g><g fill="#FFC44D"><path d="M4.5 9.25c-.42 0-.75.33-.75.75v1c0 1.51 1.23 2.75 2.75 2.75h1c1.51 0 2.75-1.24 2.75-2.75v-1c0-.42-.34-.75-.75-.75h-5Z"/><path d="M14.5 9.25c-.42 0-.75.33-.75.75v1c0 1.51 1.23 2.75 2.75 2.75h1c1.51 0 2.75-1.24 2.75-2.75v-1c0-.42-.34-.75-.75-.75h-5Z"/></g></svg>