<svg viewBox="0 0 24 24" xmlns="http://www.w3.org/2000/svg"><path fill="#ECEFF1" d="M5.5 5.75c-2.35 0-4.25 1.9-4.25 4.25 0 2.34 1.9 4.25 4.25 4.25H20c.41 0 .75-.34.75-.75v-7c0-.42-.34-.75-.75-.75H5.5Z"/><path fill="#CFD8DC" fill-rule="evenodd" d="M1.25 10c0-2.35 1.9-4.25 4.25-4.25H22c.41 0 .75.33.75.75 0 .41-.34.75-.75.75H5.5c-1.52 0-2.75 1.23-2.75 2.75 0 1.51 1.23 2.75 2.75 2.75H11c.41 0 .75.33.75.75 0 .41-.34.75-.75.75H5.5c-2.35 0-4.25-1.91-4.25-4.25Zm14 3.5c0-.42.33-.75.75-.75h6c.41 0 .75.33.75.75 0 .41-.34.75-.75.75h-6c-.42 0-.75-.34-.75-.75Z"/><path fill="#EE4D4D" d="M11 9.75c-.42 0-.75.33-.75.75v7c0 .28.16.55.42.67 .25.12.56.08.79-.1l2.03-1.63 2.03 1.62c.22.18.53.21.79.09 .25-.13.42-.39.42-.68v-7c0-.42-.34-.75-.75-.75h-5Z"/></svg>