<svg viewBox="0 0 24 24" xmlns="http://www.w3.org/2000/svg"><g fill="#FFD071"><path d="M10.5 6.75c-1.52 0-2.75 1.23-2.75 2.75v1c0 .41.33.75.75.75h7c.41 0 .75-.34.75-.75v-1c0-1.52-1.24-2.75-2.75-2.75h-3Z"/><path d="M15.5 12.75c.41 0 .75.33.75.75v3c0 .41-.34.75-.75.75h-7c-.42 0-.75-.34-.75-.75v-3c0-.42.33-.75.75-.75h7Z"/></g><path fill="#EE4D4D" fill-rule="evenodd" d="M12 2.75c-5.11 0-9.25 4.14-9.25 9.25 0 5.1 4.14 9.25 9.25 9.25 5.1 0 9.25-4.15 9.25-9.25 0-5.11-4.15-9.25-9.25-9.25ZM1.25 12C1.25 6.06 6.06 1.25 12 1.25c5.93 0 10.75 4.81 10.75 10.75 0 5.93-4.82 10.75-10.75 10.75 -5.94 0-10.75-4.82-10.75-10.75Z"/><path fill="#F17171" d="M9 9.75c-1.25 0-2.25 1-2.25 2.25 0 1.24 1 2.25 2.25 2.25h6c1.24 0 2.25-1.01 2.25-2.25 0-1.25-1.01-2.25-2.25-2.25H9Z"/><path fill="#EE4D4D" fill-rule="evenodd" d="M4.46 4.46c.29-.3.76-.3 1.06 0l14 14c.29.29.29.76 0 1.06 -.3.29-.77.29-1.07 0l-14-14c-.3-.3-.3-.77-.001-1.07Z"/></svg>