<svg viewBox="0 0 24 24" xmlns="http://www.w3.org/2000/svg"><path fill="#ECEFF1" d="M2 18.25c-.42 0-.75.33-.75.75v1c0 1.51 1.23 2.75 2.75 2.75h16c.41 0 .75-.34.75-.75v-3c0-.42-.34-.75-.75-.75H2Z"/><path fill="#CFD8DC" fill-rule="evenodd" d="M2 18.25c.41 0 .75.33.75.75v1c0 .69.55 1.25 1.25 1.25h18c.41 0 .75.33.75.75 0 .41-.34.75-.75.75H4c-1.52 0-2.75-1.24-2.75-2.75v-1c0-.42.33-.75.75-.75Z"/><path fill="#CFD8DC" d="M4 1.25C2.48 1.25 1.25 2.48 1.25 4v15c0 .41.33.75.75.75h20c.41 0 .75-.34.75-.75V2c0-.42-.34-.75-.75-.75H4Z"/><path fill="#5E94FF" d="M12 3.75c-1.16 0-2.17.6-2.75 1.5 -1.32.09-2.41.97-2.83 2.17 -1.27.44-2.19 1.64-2.19 3.06 0 1.79 1.45 3.25 3.25 3.25h5.16l.33 1.32c.24.98 1.12 1.67 2.13 1.67 1.43 0 2.48-1.35 2.13-2.75l-.09-.34c1.46-.32 2.55-1.62 2.55-3.18 0-1.43-.92-2.63-2.19-3.07 -.42-1.2-1.52-2.08-2.83-2.18 -.58-.91-1.59-1.51-2.75-1.51Z"/></svg>