<svg viewBox="0 0 24 24" xmlns="http://www.w3.org/2000/svg"><path fill="#ECEFF1" d="M2 18.25c-.42 0-.75.33-.75.75v1c0 1.51 1.23 2.75 2.75 2.75h16c.41 0 .75-.34.75-.75v-3c0-.42-.34-.75-.75-.75H2Z"/><path fill="#CFD8DC" fill-rule="evenodd" d="M2 18.25c.41 0 .75.33.75.75v1c0 .69.55 1.25 1.25 1.25h18c.41 0 .75.33.75.75 0 .41-.34.75-.75.75H4c-1.52 0-2.75-1.24-2.75-2.75v-1c0-.42.33-.75.75-.75Z"/><path fill="#CFD8DC" d="M4 1.25C2.48 1.25 1.25 2.48 1.25 4v15c0 .41.33.75.75.75h20c.41 0 .75-.34.75-.75V2c0-.42-.34-.75-.75-.75H4Z"/><path fill="#7EA9FF" d="M6 5.25c-.42 0-.75.33-.75.75v9c0 .41.33.75.75.75h11c.41 0 .75-.34.75-.75V6c0-.42-.34-.75-.75-.75H6Z"/><path fill="#A2D471" d="M9.61 8.06c-.13-.17-.31-.29-.52-.31 -.21-.03-.42.03-.58.16l-3 2.49c-.18.14-.27.35-.27.57v4c0 .41.33.75.75.75h11c.41 0 .75-.34.75-.75v-2.5c0-.23-.1-.44-.27-.58l-3-2.5c-.28-.23-.68-.24-.95-.01l-1.89 1.5 -2.04-2.86Z"/></svg>