<svg viewBox="0 0 24 24" xmlns="http://www.w3.org/2000/svg"><path fill="#ECEFF1" d="M2 18.25c-.42 0-.75.33-.75.75v1c0 1.51 1.23 2.75 2.75 2.75h16c.41 0 .75-.34.75-.75v-3c0-.42-.34-.75-.75-.75H2Z"/><path fill="#CFD8DC" fill-rule="evenodd" d="M2 18.25c.41 0 .75.33.75.75v1c0 .69.55 1.25 1.25 1.25h18c.41 0 .75.33.75.75 0 .41-.34.75-.75.75H4c-1.52 0-2.75-1.24-2.75-2.75v-1c0-.42.33-.75.75-.75Z"/><path fill="#CFD8DC" d="M4 1.25C2.48 1.25 1.25 2.48 1.25 4v15c0 .41.33.75.75.75h20c.41 0 .75-.34.75-.75V2c0-.42-.34-.75-.75-.75H4Z"/><path fill="#8BC94D" fill-rule="evenodd" d="M10.53 11.96c-.3-.3-.77-.3-1.07 0l-2 2c-.3.29-.3.76 0 1.06 .29.29.76.29 1.06 0l1.99-2c.29-.3.29-.77 0-1.07Z"/><path fill="#8BC94D" d="M15.49 6.99l-.06-.75c.21-.02.43.06.58.21 .15.15.23.36.21.58l-.75-.06c.74.05.74.05.74.05l-.01 0 -.01.01 -.01.03c-.01.03-.01.08-.02.14 -.02.12-.03.3-.06.52 -.06.43-.14 1.03-.25 1.66 -.12.63-.28 1.32-.49 1.94 -.21.59-.49 1.22-.91 1.64 -.72.71-1.61 1.09-2.54 1.09 -.93 0-1.82-.39-2.54-1.1 -.72-.72-1.1-1.61-1.1-2.54 0-.93.38-1.82 1.09-2.54 .41-.42 1.04-.71 1.64-.91 .61-.22 1.3-.38 1.94-.49 .63-.12 1.23-.2 1.66-.25 .21-.03.39-.05.52-.06 .06-.01.11-.02.14-.02l.03-.01 .01-.01 0-.01s0 0 .05.74Z"/></svg>