<svg viewBox="0 0 24 24" xmlns="http://www.w3.org/2000/svg"><path fill="#ECEFF1" d="M2 18.25c-.42 0-.75.33-.75.75v1c0 1.51 1.23 2.75 2.75 2.75h16c.41 0 .75-.34.75-.75v-3c0-.42-.34-.75-.75-.75H2Z"/><path fill="#CFD8DC" fill-rule="evenodd" d="M2 18.25c.41 0 .75.33.75.75v1c0 .69.55 1.25 1.25 1.25h18c.41 0 .75.33.75.75 0 .41-.34.75-.75.75H4c-1.52 0-2.75-1.24-2.75-2.75v-1c0-.42.33-.75.75-.75Z"/><path fill="#CFD8DC" d="M4 1.25C2.48 1.25 1.25 2.48 1.25 4v15c0 .41.33.75.75.75h20c.41 0 .75-.34.75-.75V2c0-.42-.34-.75-.75-.75H4Z"/><path fill="#EE4D4D" d="M13.7 3.73c-.11-.29-.38-.48-.68-.49 -.31-.01-.59.16-.71.44l-1.49 3.33 -.74-.98c-.18-.23-.46-.35-.75-.29 -.29.05-.51.26-.59.53l-.5 1.82c-.64 2.32 1.11 4.61 3.52 4.61 2.55 0 4.32-2.56 3.42-4.95l-1.53-4.08Z"/><g fill="#FF884D" fill-rule="evenodd"><path d="M17.18 12.69c.16.37-.01.82-.39.99l-9 4c-.38.16-.83-.01-.99-.39 -.17-.38 0-.83.38-.99l8.99-4c.37-.17.82 0 .99.38Z"/><path d="M6.81 12.69c-.17.37 0 .82.38.99l9 4c.37.16.82-.01.98-.39 .16-.38-.01-.83-.39-.99l-9.01-4c-.38-.17-.83 0-.99.38Z"/></g></svg>