<svg viewBox="0 0 24 24" xmlns="http://www.w3.org/2000/svg"><path fill="#ECEFF1" d="M2 18.25c-.42 0-.75.33-.75.75v1c0 1.51 1.23 2.75 2.75 2.75h16c.41 0 .75-.34.75-.75v-3c0-.42-.34-.75-.75-.75H2Z"/><path fill="#CFD8DC" fill-rule="evenodd" d="M2 18.25c.41 0 .75.33.75.75v1c0 .69.55 1.25 1.25 1.25h18c.41 0 .75.33.75.75 0 .41-.34.75-.75.75H4c-1.52 0-2.75-1.24-2.75-2.75v-1c0-.42.33-.75.75-.75Z"/><path fill="#CFD8DC" d="M4 1.25C2.48 1.25 1.25 2.48 1.25 4v15c0 .41.33.75.75.75h20c.41 0 .75-.34.75-.75V2c0-.42-.34-.75-.75-.75H4Z"/><g fill="#7EA9FF"><path d="M11.25 7.5c0-.26-.13-.49-.34-.63 -.22-.14-.48-.17-.71-.07L6.69 8.3c-.28.11-.46.38-.46.68v2c0 .41.33.75.75.75h3.5c.41 0 .75-.34.75-.75v-3.5Z"/><path d="M12.75 7.5c0-.26.12-.49.33-.63 .21-.14.47-.17.7-.07l3.5 1.5c.27.11.45.38.45.68v2c0 .41-.34.75-.75.75h-3.5c-.42 0-.75-.34-.75-.75v-3.5Z"/></g><path fill="#5E94FF" d="M12 3.75c-1.25 0-2.25 1-2.25 2.25v5.5c0 .08.01.16.03.23l1.5 4.5c.1.3.38.51.71.51 .32 0 .6-.21.71-.52l1.5-4.5c.02-.08.03-.16.03-.24v-5.5c0-1.25-1.01-2.25-2.25-2.25Z"/><path fill="#7EA9FF" fill-rule="evenodd" d="M11.85 15.26c.1-.03.2-.02.3 0l2.34.5c.4.08.66.48.577.89 -.09.4-.49.66-.89.57l-2.2-.47 -2.35.46c-.41.08-.81-.19-.89-.59 -.09-.41.18-.81.58-.89l2.49-.5Z"/></svg>