<svg viewBox="0 0 24 24" xmlns="http://www.w3.org/2000/svg"><g fill-rule="evenodd"><path d="M1.5 17c0-1.39 1.11-2.5 2.5-2.5h16c1.38 0 2.5 1.11 2.5 2.5v3c0 1.38-1.12 2.5-2.5 2.5H4c-1.39 0-2.5-1.12-2.5-2.5v-3ZM4 15.5c-.83 0-1.5.67-1.5 1.5v3c0 .82.67 1.5 1.5 1.5h16c.82 0 1.5-.68 1.5-1.5v-3c0-.83-.68-1.5-1.5-1.5H4Z"/><path d="M3.5 12.5c0-3.87 3.13-7 7-7h3c3.86 0 7 3.13 7 7V15c0 .27-.23.5-.5.5H4c-.28 0-.5-.23-.5-.5v-2.5Zm7-6c-3.32 0-6 2.68-6 6v2h15v-2c0-3.32-2.69-6-6-6h-3Z"/><path d="M12 2.5c-.83 0-1.5.67-1.5 1.5 0 .82.67 1.5 1.5 1.5 .82 0 1.5-.68 1.5-1.5 0-.83-.68-1.5-1.5-1.5ZM9.5 4c0-1.39 1.11-2.5 2.5-2.5 1.38 0 2.5 1.11 2.5 2.5 0 1.38-1.12 2.5-2.5 2.5 -1.39 0-2.5-1.12-2.5-2.5Z"/></g></svg>