<svg viewBox="0 0 24 24" xmlns="http://www.w3.org/2000/svg"><g fill-rule="evenodd"><path d="M12 4.5c.16 0 .32.08.41.22l6 9c.05.08.08.17.08.27v3c0 .27-.23.5-.5.5h-3c-.18 0-.34-.09-.43-.24l-2.58-4.13 -2.58 4.12c-.1.14-.26.23-.43.23h-3c-.28 0-.5-.23-.5-.5v-3c0-.1.02-.2.08-.28l6-9.01c.09-.14.24-.23.41-.23Zm-5.5 9.65v2.34h2.22l2.85-4.57c.09-.15.25-.24.42-.24 .17 0 .33.08.42.23l2.85 4.56h2.22v-2.35l-5.5-8.26 -5.5 8.25Z"/><path d="M12 2.5c-5.25 0-9.5 4.25-9.5 9.5 0 5.24 4.25 9.5 9.5 9.5 5.24 0 9.5-4.26 9.5-9.5 0-5.25-4.26-9.5-9.5-9.5ZM1.5 12C1.5 6.2 6.2 1.5 12 1.5c5.79 0 10.5 4.7 10.5 10.5 0 5.79-4.71 10.5-10.5 10.5 -5.8 0-10.5-4.71-10.5-10.5Z"/></g></svg>