<svg viewBox="0 0 24 24" xmlns="http://www.w3.org/2000/svg"><g fill-rule="evenodd"><path d="M3.5 3c0-.83.67-1.5 1.5-1.5h14c.82 0 1.5.67 1.5 1.5v2c0 .82-.68 1.5-1.5 1.5H5c-.83 0-1.5-.68-1.5-1.5V3ZM5 2.5c-.28 0-.5.22-.5.5v2c0 .27.22.5.5.5h14c.27 0 .5-.23.5-.5V3c0-.28-.23-.5-.5-.5H5Z"/><path d="M4.5 6c0-.28.22-.5.5-.5h14c.27 0 .5.22.5.5v14c0 1.38-1.12 2.5-2.5 2.5H7c-1.39 0-2.5-1.12-2.5-2.5V6Zm1 .5V20c0 .82.67 1.5 1.5 1.5h10c.82 0 1.5-.68 1.5-1.5V6.5h-13Z"/><path d="M4.5 6c0-.28.22-.5.5-.5h14c.27 0 .5.22.5.5v5c0 1.38-1.12 2.5-2.5 2.5H7c-1.39 0-2.5-1.12-2.5-2.5V6Zm1 .5V11c0 .82.67 1.5 1.5 1.5h10c.82 0 1.5-.68 1.5-1.5V6.5h-13Z"/><path d="M1.5 16.5C1.5 17.88 2.61 19 4 19h1c.27 0 .5-.23.5-.5v-6c0-.28-.23-.5-.5-.5H2c-.28 0-.5.22-.5.5v4ZM4 18c-.83 0-1.5-.68-1.5-1.5V13h2v5H4Z"/><path d="M22.5 16.5c0 1.38-1.12 2.5-2.5 2.5h-1c-.28 0-.5-.23-.5-.5v-6c0-.28.22-.5.5-.5h3c.27 0 .5.22.5.5v4ZM20 18c.82 0 1.5-.68 1.5-1.5V13h-2v5h.5Z"/><path d="M7.5 16v-6h1v6h-1Z"/><path d="M15.5 16v-6h1v6h-1Z"/></g></svg>