<svg viewBox="0 0 24 24" xmlns="http://www.w3.org/2000/svg"><g fill-rule="evenodd"><path d="M3.5 19c0-.83.67-1.5 1.5-1.5h14c.82 0 1.5.67 1.5 1.5v2c0 .82-.68 1.5-1.5 1.5H5c-.83 0-1.5-.68-1.5-1.5v-2Zm1.5-.5c-.28 0-.5.22-.5.5v2c0 .27.22.5.5.5h14c.27 0 .5-.23.5-.5v-2c0-.28-.23-.5-.5-.5H5Z"/><path d="M4.5 2c0-.28.22-.5.5-.5h14c.27 0 .5.22.5.5v14c0 1.38-1.12 2.5-2.5 2.5H7c-1.39 0-2.5-1.12-2.5-2.5V2Zm1 .5V16c0 .82.67 1.5 1.5 1.5h10c.82 0 1.5-.68 1.5-1.5V2.5h-13Z"/><path d="M4.5 2c0-.28.22-.5.5-.5h14c.27 0 .5.22.5.5v5c0 1.38-1.12 2.5-2.5 2.5H7C5.61 9.5 4.5 8.38 4.5 7V2Zm1 .5V7c0 .82.67 1.5 1.5 1.5h10c.82 0 1.5-.68 1.5-1.5V2.5h-13Z"/><path d="M1.5 12.5C1.5 13.88 2.61 15 4 15h1c.27 0 .5-.23.5-.5v-6c0-.28-.23-.5-.5-.5H2c-.28 0-.5.22-.5.5v4ZM4 14c-.83 0-1.5-.68-1.5-1.5V9h2v5H4Z"/><path d="M22.5 12.5c0 1.38-1.12 2.5-2.5 2.5h-1c-.28 0-.5-.23-.5-.5v-6c0-.28.22-.5.5-.5h3c.27 0 .5.22.5.5v4ZM20 14c.82 0 1.5-.68 1.5-1.5V9h-2v5h.5Z"/><path d="M7.5 20v-6h1v6h-1Z"/><path d="M15.5 20v-6h1v6h-1Z"/><path d="M11.5 11V6h1v5h-1Z"/></g></svg>