<svg viewBox="0 0 24 24" xmlns="http://www.w3.org/2000/svg"><g fill-rule="evenodd"><path d="M4.5 10c0-1.39 1.11-2.5 2.5-2.5h10c1.38 0 2.5 1.11 2.5 2.5v10c0 1.38-1.12 2.5-2.5 2.5H7c-1.39 0-2.5-1.12-2.5-2.5V10ZM7 8.5c-.83 0-1.5.67-1.5 1.5v10c0 .82.67 1.5 1.5 1.5h10c.82 0 1.5-.68 1.5-1.5V10c0-.83-.68-1.5-1.5-1.5H7Z"/><path d="M3 11.5h18v1H3v-1Z"/><path d="M8.5 2c0-.28.22-.5.5-.5h6c.27 0 .5.22.5.5v3c0 .27-.23.5-.5.5H9c-.28 0-.5-.23-.5-.5V2Zm1 .5v2h5v-2h-5Z"/><path d="M16 4h-1V3h1c1.38 0 2.5 1.11 2.5 2.5V6c0 1.38-1.12 2.5-2.5 2.5h-1v-1h1c.82 0 1.5-.68 1.5-1.5v-.5c0-.83-.68-1.5-1.5-1.5Z"/><path d="M9.5 5c0-.28.22-.5.5-.5h4c.27 0 .5.22.5.5v3c0 .27-.23.5-.5.5h-4c-.28 0-.5-.23-.5-.5V5Zm1 .5v2h3v-2h-3Z"/></g></svg>