<svg viewBox="0 0 24 24" xmlns="http://www.w3.org/2000/svg"><g fill-rule="evenodd"><path d="M7.82 7.46c.93-.94 2.2-1.47 3.53-1.47h10.63c.27 0 .5.22.5.5v8.5c0 .27-.23.5-.5.5h-1.5v-1h1v-7.5H11.34c-1.07 0-2.08.42-2.83 1.17l-1.87 1.86c-.76.75-1.18 1.76-1.18 2.82v1.63h7.5v1h-8c-.28 0-.5-.23-.5-.5v-2.14c0-1.33.52-2.6 1.46-3.54l1.86-1.87Z"/><path d="M19 14c-.56 0-1 .44-1 1 0 .55.44 1 1 1 .55 0 1-.45 1-1 0-.56-.45-1-1-1Zm-2 1c0-1.11.89-2 2-2 1.1 0 2 .89 2 2 0 1.1-.9 2-2 2 -1.11 0-2-.9-2-2Z"/><path d="M14.5 14c-.56 0-1 .44-1 1 0 .55.44 1 1 1 .55 0 1-.45 1-1 0-.56-.45-1-1-1Zm-2 1c0-1.11.89-2 2-2 1.1 0 2 .89 2 2 0 1.1-.9 2-2 2 -1.11 0-2-.9-2-2Z"/><path d="M1.5 15c0-.28.22-.5.5-.5h4v1H2.5v2h-1V15Z"/><path d="M8 10c0-.28.22-.5.5-.5h3c.27 0 .5.22.5.5v5c0 .27-.23.5-.5.5h-3c-.28 0-.5-.23-.5-.5v-5Zm1 .5v4h2v-4H9Z"/><path d="M19.5 10.5H16v-1h3.5v1Z"/></g></svg>