<svg viewBox="0 0 24 24" xmlns="http://www.w3.org/2000/svg"><g fill-rule="evenodd"><path d="M4.6 6.09c-.37-2.42 1.51-4.6 3.95-4.6h7.43c2.2 0 4 1.79 4 4v3.5h-1v-3.5c0-1.66-1.35-3-3-3H8.54c-1.84 0-3.24 1.63-2.97 3.44l1.95 13c.22 1.46 1.48 2.55 2.96 2.55h5.48c1.65 0 3-1.35 3-3v-3.5h1v3.5c0 2.2-1.8 4-4 4h-5.49c-1.99 0-3.67-1.45-3.96-3.41l-1.95-13Z"/><path d="M7.72 6.75c-.16-1.2.77-2.26 1.98-2.26h5.79c1.1 0 2 .89 2 2v2.4h-1v-2.4c0-.56-.45-1-1-1h-5.8c-.61 0-1.07.52-1 1.12l1.41 11c.06.49.48.87.99.87h4.38c.55 0 1-.45 1-1v-2.4h1v2.4c0 1.1-.9 2-2 2h-4.39c-1.01 0-1.86-.75-1.99-1.75l-1.42-11Z"/><path d="M15 9c0-.28.22-.5.5-.5h5c.27 0 .5.22.5.5v6c0 .27-.23.5-.5.5h-5c-.28 0-.5-.23-.5-.5V9Zm1 .5v5h4v-5h-4Z"/></g></svg>