<svg viewBox="0 0 24 24" xmlns="http://www.w3.org/2000/svg"><g fill-rule="evenodd"><path d="M3.5 7c0-1.39 1.11-2.5 2.5-2.5h12c1.38 0 2.5 1.11 2.5 2.5v13c0 1.38-1.12 2.5-2.5 2.5H6c-1.39 0-2.5-1.12-2.5-2.5V7ZM6 5.5c-.83 0-1.5.67-1.5 1.5v13c0 .82.67 1.5 1.5 1.5h12c.82 0 1.5-.68 1.5-1.5V7c0-.83-.68-1.5-1.5-1.5H6Z"/><path d="M6.5 8c0-.28.22-.5.5-.5h10c.27 0 .5.22.5.5v9c0 .27-.23.5-.5.5H7c-.28 0-.5-.23-.5-.5V8Zm1 .5v8h9v-8h-9Z"/><path d="M12 10c.18 0 .36.1.44.27l2 4c.09.19.05.42-.1.57 -.16.15-.39.18-.58.09l-1.78-.89 -1.78.88c-.2.09-.43.05-.58-.1 -.16-.16-.19-.39-.1-.58l2-4c.08-.17.25-.28.44-.28Zm-.89 3.38l.65-.33c.14-.08.3-.08.44 0l.65.32 -.89-1.77 -.89 1.76Z"/><path d="M6.5 2v3h-1V2h1Z"/><path d="M14 20h-4v-1h4v1Z"/></g></svg>