<svg viewBox="0 0 24 24" xmlns="http://www.w3.org/2000/svg"><g fill-rule="evenodd"><path d="M12.37 11.66l-.38.33 -.38-.34c.09-.11.23-.17.37-.17 .14 0 .27.06.37.16Zm-.38 1.11c-.11.13-.23.28-.35.45 -.19.25-.36.51-.48.75 -.14.25-.18.42-.18.51 0 .55.44 1 1 1 .55 0 1-.45 1-1 0-.09-.05-.26-.18-.52 -.13-.25-.3-.51-.48-.76 -.12-.17-.24-.32-.35-.46Zm0-.78c-.38-.34-.38-.34-.38-.34l-.01 0 -.01 0 -.02.01c-.02.01-.03.03-.06.05 -.05.04-.11.12-.18.2 -.15.17-.35.41-.54.69 -.2.27-.4.57-.56.88 -.15.28-.29.63-.29.96 0 1.1.89 2 2 2 1.1 0 2-.9 2-2 0-.34-.15-.69-.29-.97 -.16-.31-.36-.62-.56-.89 -.2-.28-.4-.52-.54-.7 -.08-.09-.14-.16-.18-.21 -.03-.03-.04-.05-.06-.06l-.02-.02 -.01-.01 -.01-.01c0-.01 0 0-.38.33Z"/><path d="M6.5 8c0-.28.22-.5.5-.5h10c.27 0 .5.22.5.5v10c0 .27-.23.5-.5.5H7c-.28 0-.5-.23-.5-.5V8Zm1 .5v9h9v-9h-9Z"/><path d="M4.5 18c0-.28.22-.5.5-.5h14c.27 0 .5.22.5.5v4c0 .27-.23.5-.5.5H5c-.28 0-.5-.23-.5-.5v-4Zm1 .5v3h13v-3h-13Z"/><path d="M5 7.5c-.83 0-1.5.67-1.5 1.5v4c0 .82.67 1.5 1.5 1.5h2v1H5c-1.39 0-2.5-1.12-2.5-2.5V9c0-1.39 1.11-2.5 2.5-2.5h1v1H5Zm14 0h-1v-1h1c1.38 0 2.5 1.11 2.5 2.5v4c0 1.38-1.12 2.5-2.5 2.5h-2v-1h2c.82 0 1.5-.68 1.5-1.5V9c0-.83-.68-1.5-1.5-1.5Z"/><path d="M5.5 5c0-.28.22-.5.5-.5h12c.27 0 .5.22.5.5v3c0 .27-.23.5-.5.5H6c-.28 0-.5-.23-.5-.5V5Zm1 .5v2h11v-2h-11Z"/><path d="M4.5 4c0-1.39 1.11-2.5 2.5-2.5h10c1.38 0 2.5 1.11 2.5 2.5v1c0 .27-.23.5-.5.5H5c-.28 0-.5-.23-.5-.5V4ZM7 2.5c-.83 0-1.5.67-1.5 1.5v.5h13V4c0-.83-.68-1.5-1.5-1.5H7Z"/></g></svg>