<svg viewBox="0 0 24 24" xmlns="http://www.w3.org/2000/svg"><g fill-rule="evenodd"><path d="M6.81 4.53c.11-.05.25-.05.37 0l4.81 1.92 2.81-1.13 .37.92 -3 1.2c-.12.04-.26.04-.38 0L6.97 5.51l-4.5 1.8v12.92l4.31-1.73c.11-.05.25-.05.37 0l4.81 1.92 4.81-1.93c.11-.05.25-.05.37 0l4.31 1.72V7.28L18.76 6.2l.37-.93 3 1.2c.18.07.31.25.31.46v14c0 .16-.09.32-.22.41 -.14.09-.32.11-.47.05l-4.82-1.93 -4.82 1.92c-.12.04-.26.04-.38 0l-4.82-1.93 -4.82 1.92c-.16.06-.33.04-.47-.06 -.14-.1-.22-.25-.22-.42v-14c0-.21.12-.39.31-.47l5-2Z"/><path d="M14.5 14.5c0-1.11.89-2 2-2H22v1h-5.5c-.56 0-1 .44-1 1 0 1.1-.9 2-2 2 -.56 0-1 .44-1 1V21h-1v-3.5c0-1.11.89-2 2-2 .55 0 1-.45 1-1Z"/><path d="M9 9.75V6h1v3.75c0 .96-.79 1.75-1.75 1.75 -.42 0-.75.33-.75.75v1.25c0 1.1-.9 2-2 2H2v-1h3.5c.55 0 1-.45 1-1v-1.25c0-.97.78-1.75 1.75-1.75 .41 0 .75-.34.75-.75Z"/><path d="M17 3.5c-.83 0-1.5.67-1.5 1.5 0 .14.07.37.24.68 .16.29.39.61.63.9 .21.26.43.5.61.69 .17-.19.39-.43.61-.7 .24-.3.47-.62.63-.91 .17-.32.24-.55.24-.69 0-.83-.68-1.5-1.5-1.5ZM17 8c-.35.36-.35.36-.35.36l-.01-.01 -.01-.01 -.02-.02c-.02-.02-.04-.04-.07-.07 -.06-.06-.14-.14-.24-.24 -.2-.21-.46-.49-.72-.81 -.26-.32-.53-.69-.74-1.06 -.2-.36-.38-.78-.38-1.19 0-1.39 1.11-2.5 2.5-2.5 1.38 0 2.5 1.11 2.5 2.5 0 .4-.18.82-.38 1.18 -.21.36-.48.73-.74 1.05 -.27.31-.53.6-.72.8 -.1.1-.18.18-.24.23 -.03.02-.06.05-.07.06l-.02.01 -.01 0 -.01 0s-.01 0-.35-.37Zm0 0l.34.36c-.2.18-.5.18-.69-.01l.34-.37Z"/></g></svg>