<svg viewBox="0 0 24 24" xmlns="http://www.w3.org/2000/svg"><g fill-rule="evenodd"><path d="M1.5 9c0-.28.22-.5.5-.5h20c.27 0 .5.22.5.5v13c0 .27-.23.5-.5.5H2c-.28 0-.5-.23-.5-.5V9Zm1 .5v12h19v-12h-19Z"/><path d="M17 12.5c-.83 0-1.5.67-1.5 1.5 0 .82.67 1.5 1.5 1.5 .82 0 1.5-.68 1.5-1.5 0-.83-.68-1.5-1.5-1.5ZM14.5 14c0-1.39 1.11-2.5 2.5-2.5 1.38 0 2.5 1.11 2.5 2.5 0 1.38-1.12 2.5-2.5 2.5 -1.39 0-2.5-1.12-2.5-2.5Z"/><path d="M18.21 2.45l-15 7 -.43-.91 15-7 .42.9Z"/><path d="M12.5 13h-8v-1h8v1Z"/><path d="M12.5 16h-8v-1h8v1Z"/><path d="M12.5 19h-8v-1h8v1Z"/></g></svg>