<svg viewBox="0 0 24 24" xmlns="http://www.w3.org/2000/svg"><g fill-rule="evenodd"><path d="M6.5 12c0-1.39 1.11-2.5 2.5-2.5h11c1.38 0 2.5 1.11 2.5 2.5v8c0 1.38-1.12 2.5-2.5 2.5H9c-1.39 0-2.5-1.12-2.5-2.5v-8ZM9 10.5c-.83 0-1.5.67-1.5 1.5v8c0 .82.67 1.5 1.5 1.5h11c.82 0 1.5-.68 1.5-1.5v-8c0-.83-.68-1.5-1.5-1.5H9Z"/><path d="M15 8v2h-1V8h1Z"/><path d="M6.5 4c0-1.39 1.11-2.5 2.5-2.5h11c1.38 0 2.5 1.11 2.5 2.5v10h-1V4c0-.83-.68-1.5-1.5-1.5H9c-.83 0-1.5.67-1.5 1.5v10h-1V4Z"/><path d="M1.71 10.586c.13-.1.31-.12.46-.06l5 2c.18.07.31.25.31.46v4c0 .16-.09.32-.22.41 -.14.09-.32.11-.47.05l-5-2c-.19-.08-.32-.26-.32-.47v-4c0-.17.08-.33.21-.42Zm.78 1.15v2.923l4 1.6v-2.923l-4-1.6Z"/></g></svg>