<svg viewBox="0 0 24 24" xmlns="http://www.w3.org/2000/svg"><g fill-rule="evenodd"><path d="M12 1.5c.16 0 .32.08.41.22l10 15c.05.08.08.17.08.27v5c0 .27-.23.5-.5.5h-5c-.18 0-.34-.09-.43-.24l-4.58-7.33 -4.58 7.32c-.1.14-.26.23-.43.23h-5c-.28 0-.5-.23-.5-.5v-5c0-.1.02-.2.08-.28l10-15c.09-.14.24-.23.41-.23ZM2.5 17.15v4.34h4.22l4.85-7.77c.09-.15.25-.24.42-.24 .17 0 .33.08.42.23l4.85 7.76h4.22v-4.35l-9.5-14.25 -9.5 14.25Z"/><path d="M6.5 14c0-.28.22-.5.5-.5h5c.18 0 .34.09.43.25 .08.15.08.35-.02.5l-5 8c-.12.18-.35.27-.57.21 -.22-.07-.37-.26-.37-.49v-8Zm1 .5v5.75l3.59-5.76h-3.6Z"/><path d="M17.5 14c0-.28-.23-.5-.5-.5h-5c-.19 0-.35.09-.44.25 -.09.15-.09.35.01.5l5 8c.11.18.34.27.56.21 .21-.07.36-.26.36-.49v-8Zm-1 .5v5.75l-3.6-5.76h3.59Z"/></g></svg>