<svg viewBox="0 0 24 24" xmlns="http://www.w3.org/2000/svg"><g fill-rule="evenodd"><path d="M12 4.5c.16 0 .32.08.41.22l7 10.5c.05.08.08.17.08.27v3.5c0 .27-.23.5-.5.5h-3.5c-.18 0-.34-.09-.43-.24l-3.08-4.93 -3.08 4.92c-.1.14-.26.23-.43.23h-3.5c-.28 0-.5-.23-.5-.5v-3.5c0-.1.02-.2.08-.28l7-10.5c.09-.14.24-.23.41-.23ZM5.5 15.65v2.84h2.72l3.35-5.37c.09-.15.25-.24.42-.24 .17 0 .33.08.42.23l3.35 5.36h2.72v-2.85l-6.5-9.76 -6.5 9.75Z"/><path d="M1.58 19.72l3-4.5 .83.55 -3 4.5 -.84-.56Z"/><path d="M22.416 19.72l-3-4.5 -.84.55 3 4.5 .83-.56Z"/></g></svg>