<svg viewBox="0 0 24 24" xmlns="http://www.w3.org/2000/svg"><g fill-rule="evenodd"><path d="M16.26 7c.2 0 .38.13.45.32l1.9 5.09c1.01 2.7-.99 5.58-3.88 5.58 -2.73 0-4.71-2.6-3.99-5.221l.62-2.29c.05-.19.2-.33.38-.36 .18-.04.37.03.49.19l1.36 1.81 2.15-4.85c.08-.19.26-.31.47-.3Zm-.06 1.81l-2.01 4.5c-.08.16-.23.27-.41.29 -.18.02-.35-.06-.46-.2l-1.27-1.69 -.36 1.29c-.55 1.99.95 3.95 3.02 3.95 2.18 0 3.7-2.19 2.93-4.24l-1.49-3.95Z"/><path d="M7.86 21.51l14-4 .27.96 -14 4 -.28-.97Z"/><path d="M22.13 21.51l-14-4 -.28.96 14 4 .27-.97Z"/><path d="M5 7c0-.28.22-.5.5-.5h3c.27 0 .5.22.5.5v3c0 .27-.23.5-.5.5h-3c-.28 0-.5-.23-.5-.5V7Zm1 .5v2h2v-2H6Z"/><path d="M7.11 6.82l.91-2.5 .93.34 -.92 2.5 -.94-.35ZM1.52 22.06l4.5-12.29 .93.34 -4.5 12.28 -.94-.35Z"/></g></svg>