<svg viewBox="0 0 24 24" xmlns="http://www.w3.org/2000/svg"><path fill="#ECEFF1" d="M2 1.25c-.42 0-.75.33-.75.75v20c0 .41.33.75.75.75h20c.41 0 .75-.34.75-.75V2c0-.42-.34-.75-.75-.75H2Z"/><g fill="#EE4D4D" fill-rule="evenodd"><path d="M4.46 4.46c.29-.3.76-.3 1.06 0l4 4c.29.29.29.76 0 1.06 -.3.29-.77.29-1.07 0l-4-4c-.3-.3-.3-.77 0-1.07Z"/><path d="M9.53 4.46c-.3-.3-.77-.3-1.07 0l-4 4c-.3.29-.3.76 0 1.06 .29.29.76.29 1.06 0l4-4c.29-.3.29-.77 0-1.07Z"/></g><path fill="#EE4D4D" d="M17.5 15.25c-1.25 0-2.25 1-2.25 2.25 0 1.24 1 2.25 2.25 2.25 1.24 0 2.25-1.01 2.25-2.25 0-1.25-1.01-2.25-2.25-2.25Z"/><path fill="#8B98A6" fill-rule="evenodd" d="M10.25 7c0-.42.33-.75.75-.75h4.25c1.93 0 3.5 1.56 3.5 3.5 0 1.93-1.57 3.5-3.5 3.5H7.5c-.97 0-1.75.78-1.75 1.75 0 .96.78 1.75 1.75 1.75H13c.41 0 .75.33.75.75 0 .41-.34.75-.75.75H7.5c-1.8 0-3.25-1.46-3.25-3.25 0-1.8 1.45-3.25 3.25-3.25h7.75c1.1 0 2-.9 2-2 0-1.11-.9-2-2-2H11c-.42 0-.75-.34-.75-.75Z"/></svg>