<svg viewBox="0 0 24 24" xmlns="http://www.w3.org/2000/svg"><path fill="#ECEFF1" d="M7 4.25c-.42 0-.75.33-.75.75v7c0 .41.33.75.75.75h10c.41 0 .75-.34.75-.75V5c0-.42-.34-.75-.75-.75H7Z"/><path fill="#F17171" fill-rule="evenodd" d="M6.25 5c0-.42.33-.75.75-.75h10c.41 0 .75.33.75.75v7c0 .41-.34.75-.75.75h-5v-1.5h4.25v-5.5h-8.5v5.5H9v1.5H7c-.42 0-.75-.34-.75-.75V5Z"/><g fill="#EE4D4D"><path d="M6 1.25c-.42 0-.75.33-.75.75v3c0 .41.33.75.75.75h12c.41 0 .75-.34.75-.75V2c0-.42-.34-.75-.75-.75H6Z"/><path d="M6 11.25c-.37 0-.68.26-.74.62l-1 6c-.04.21.02.43.16.6 .14.16.35.26.57.26h14c.22 0 .42-.1.57-.27 .14-.17.2-.4.16-.61l-1-6c-.07-.37-.38-.63-.74-.63h-12Z"/></g><path fill="#ECEFF1" fill-rule="evenodd" d="M10.5 12.75c.41 0 .75.33.75.75v2c0 .41-.34.75-.75.75 -.42 0-.75-.34-.75-.75v-2c0-.42.33-.75.75-.75Z"/><path fill="#F17171" d="M5 17.25c-.42 0-.75.33-.75.75v4c0 .41.33.75.75.75h14c.41 0 .75-.34.75-.75v-4c0-.42-.34-.75-.75-.75H5Z"/><path fill="#FFC44D" d="M10.5 9.75c-1.25 0-2.25 1-2.25 2.25 0 1.24 1 2.25 2.25 2.25 1.24 0 2.25-1.01 2.25-2.25 0-1.25-1.01-2.25-2.25-2.25Z"/></svg>