<svg viewBox="0 0 24 24" xmlns="http://www.w3.org/2000/svg"><path fill="#FFC44D" d="M2 1.25c-.42 0-.75.33-.75.75v20c0 .41.33.75.75.75h20c.41 0 .75-.34.75-.75V2c0-.42-.34-.75-.75-.75H2Z"/><path fill="#ECEFF1" fill-rule="evenodd" d="M6.25 7c0-.42.33-.75.75-.75h10c.41 0 .75.33.75.75v10c0 .41-.34.75-.75.75H7c-.42 0-.75-.34-.75-.75V7Zm1.5.75v8.5h8.5v-8.5h-8.5Z"/><g fill="#ECEFF1"><path d="M2 1.25c-.42 0-.75.33-.75.75v4c0 .41.33.75.75.75h2c1.51 0 2.75-1.24 2.75-2.75V2c0-.42-.34-.75-.75-.75H2Z"/><path d="M22 1.25c.41 0 .75.33.75.75v4c0 .41-.34.75-.75.75h-2c-1.52 0-2.75-1.24-2.75-2.75V2c0-.42.33-.75.75-.75h4Z"/><path d="M2 22.75c-.42 0-.75-.34-.75-.75v-4c0-.42.33-.75.75-.75h2c1.51 0 2.75 1.23 2.75 2.75v2c0 .41-.34.75-.75.75H2Z"/><path d="M22 22.75c.41 0 .75-.34.75-.75v-4c0-.42-.34-.75-.75-.75h-2c-1.52 0-2.75 1.23-2.75 2.75v2c0 .41.33.75.75.75h4Z"/><path d="M12 9.25c-1.52 0-2.75 1.23-2.75 2.75 0 1.51 1.23 2.75 2.75 2.75 1.51 0 2.75-1.24 2.75-2.75 0-1.52-1.24-2.75-2.75-2.75Z"/></g></svg>