<svg viewBox="0 0 24 24" xmlns="http://www.w3.org/2000/svg"><path fill="#ECEFF1" d="M19 5.25c-.42 0-.75.33-.75.75v16c0 .41.33.75.75.75h3c.41 0 .75-.34.75-.75V6c0-.42-.34-.75-.75-.75h-3Z"/><path fill="#CFD8DC" d="M7 1.25c-.42 0-.75.33-.75.75v20c0 .41.33.75.75.75h12c.41 0 .75-.34.75-.75V2c0-.42-.34-.75-.75-.75H7Z"/><path fill="#ECEFF1" d="M2 1.25c-.42 0-.75.33-.75.75v20c0 .41.33.75.75.75h13c.41 0 .75-.34.75-.75V2c0-.42-.34-.75-.75-.75H2Z"/><path fill="#5E94FF" fill-rule="evenodd" d="M5.25 9c0-.42.33-.75.75-.75h5c.41 0 .75.33.75.75v3.106c0 .41-.34.75-.75.75H6.75v1.39H11c.41 0 .75.33.75.75 0 .41-.34.75-.75.75H6c-.42 0-.75-.34-.75-.75v-2.894c0-.42.33-.75.75-.75h4.25v-1.61H6c-.42 0-.75-.34-.75-.75Z"/></svg>