<svg viewBox="0 0 24 24" xmlns="http://www.w3.org/2000/svg"><path fill="#ECEFF1" d="M2 3.25c-.42 0-.75.33-.75.75v16c0 .41.33.75.75.75h20c.41 0 .75-.34.75-.75V4c0-.42-.34-.75-.75-.75H2Z"/><path fill="#CFD8DC" d="M5 15.25c-.42 0-.75.33-.75.75v4c0 .41.33.75.75.75h9c.41 0 .75-.34.75-.75v-4c0-.42-.34-.75-.75-.75H5Z"/><g fill="#A2ADB8"><path d="M14 15.25c-.42 0-.75.33-.75.75v4c0 .41.33.75.75.75h5c.41 0 .75-.34.75-.75v-4c0-.42-.34-.75-.75-.75h-5Z"/><path d="M14 3.25c-.42 0-.75.33-.75.75v6c0 .41.33.75.75.75h5c.41 0 .75-.34.75-.75V4c0-.42-.34-.75-.75-.75h-5Z"/></g><path fill="#EE4D4D" fill-rule="evenodd" d="M13.75 13c0-.42.33-.75.75-.75h4c.41 0 .75.33.75.75 0 .41-.34.75-.75.75h-4c-.42 0-.75-.34-.75-.75Z"/></svg>