<svg viewBox="0 0 24 24" xmlns="http://www.w3.org/2000/svg"><path fill="#CFD8DC" d="M3.15 1.25c-1.07 0-1.89.94-1.74 1.99l.82 5.77 -.92 11.84c-.08 1.01.72 1.88 1.74 1.88h12.92c.41 0 .75-.34.75-.75v-20c0-.42-.34-.75-.75-.75H3.12Z"/><path fill="#ECEFF1" d="M15.1 1.25c-1.04 0-1.85.89-1.75 1.92l.88 8.82 -.89 8.82c-.11 1.03.7 1.92 1.74 1.92h5.79c1.03 0 1.84-.9 1.74-1.93l-.89-8.83 .88-8.83c.1-1.04-.71-1.93-1.75-1.93h-5.79Z"/><path fill="#8B98A6" fill-rule="evenodd" d="M18 4.25c.41 0 .75.33.75.75v8c0 .41-.34.75-.75.75 -.42 0-.75-.34-.75-.75V5c0-.42.33-.75.75-.75Z"/><path fill="#8BC94D" d="M17.99 15.25c-1.25 0-2.25 1-2.25 2.25 0 1.24 1 2.25 2.25 2.25 1.24 0 2.25-1.01 2.25-2.25 0-1.25-1.01-2.25-2.25-2.25Z"/></svg>