<svg viewBox="0 0 24 24" xmlns="http://www.w3.org/2000/svg"><path fill="#5E94FF" d="M12.26 1.29c-.17-.07-.36-.07-.53 0l-8.01 3c-.3.1-.49.38-.49.7v8.5c0 1.8.85 3.51 2.3 4.6l6 4.5c.26.2.63.2.9 0l6-4.5c1.44-1.09 2.3-2.8 2.3-4.6v-8.5c0-.32-.2-.6-.49-.71l-8-3Z"/><g fill="#ECEFF1" fill-rule="evenodd"><path d="M11.46 8.46c.29-.3.76-.3 1.06 0l3 3c.29.29.29.76 0 1.06 -.3.29-.77.29-1.07 0l-2.47-2.47 -2.47 2.46c-.3.29-.77.29-1.07 0 -.3-.3-.3-.77 0-1.07l3-3.01Z"/><path d="M12 8.25c.41 0 .75.33.75.75v6c0 .41-.34.75-.75.75 -.42 0-.75-.34-.75-.75V9c0-.42.33-.75.75-.75Z"/></g></svg>