<svg viewBox="0 0 24 24" xmlns="http://www.w3.org/2000/svg"><path fill="#FFC44D" fill-rule="evenodd" d="M22 7.25c.41 0 .75.33.75.75v12c0 .41-.34.75-.75.75 -.42 0-.75-.34-.75-.75V8c0-.42.33-.75.75-.75Z"/><path fill="#A2ADB8" d="M5 8.75c-.42 0-.75.33-.75.75v6.14c0 1.42.8 2.71 2.07 3.35l5.34 2.67c.21.1.45.1.67 0l5.34-2.68c1.27-.64 2.07-1.94 2.07-3.36V9.47c0-.42-.34-.75-.75-.75h-14Z"/><path fill="#8B98A6" d="M12.33 2.32c-.22-.11-.46-.11-.68 0l-10 5c-.26.12-.42.38-.42.67 0 .28.16.54.41.67l10 4.99c.21.1.45.1.67 0l10-5c.25-.13.41-.39.41-.68 0-.29-.17-.55-.42-.68l-10-5Z"/></svg>