<svg viewBox="0 0 24 24" xmlns="http://www.w3.org/2000/svg"><path fill="#FFC44D" d="M2 1.25c-.23 0-.43.09-.58.26 -.15.16-.21.39-.17.6l2 12c.06.36.37.62.73.62h3.25v7.25c0 .33.22.63.55.72 .32.08.67-.06.84-.35l6.99-12c.13-.24.13-.52 0-.76 -.14-.24-.39-.38-.66-.38H9.91l1.76-7.07c.05-.23 0-.47-.14-.65 -.15-.19-.37-.29-.6-.29h-9Z"/><g fill="#EE4D4D" fill-rule="evenodd"><path d="M18.46 3.46c.29-.3.76-.3 1.06 0l3 3c.29.29.29.76 0 1.06 -.3.29-.77.29-1.07 0l-2.47-2.47 -2.47 2.46c-.3.29-.77.29-1.07 0 -.3-.3-.3-.77 0-1.07l3-3Z"/><path d="M19 3.25c.41 0 .75.33.75.75v6c0 .41-.34.75-.75.75 -.42 0-.75-.34-.75-.75V4c0-.42.33-.75.75-.75Z"/></g></svg>