<svg viewBox="0 0 24 24" xmlns="http://www.w3.org/2000/svg"><path fill="#EE4D4D" d="M2 6.25c-.42 0-.75.33-.75.75v7c0 .41.33.75.75.75h20c.41 0 .75-.34.75-.75V7c0-.42-.34-.75-.75-.75H2Z"/><path fill="#ECEFF1" d="M6 8.25c-1.25 0-2.25 1-2.25 2.25 0 1.24 1 2.25 2.25 2.25 1.24 0 2.25-1.01 2.25-2.25 0-1.25-1.01-2.25-2.25-2.25Z"/><g fill="#CFD8DC" fill-rule="evenodd"><path d="M2 16.25h20v1.5H2v-1.5Z"/><path fill="#ECEFF1" d="M16.25 10.5c0-.42.33-.75.75-.75h2c.41 0 .75.33.75.75 0 .41-.34.75-.75.75h-2c-.42 0-.75-.34-.75-.75Z"/></g></svg>