<svg viewBox="0 0 24 24" xmlns="http://www.w3.org/2000/svg"><path fill="#ECEFF1" d="M7 1.25C5.48 1.25 4.25 2.48 4.25 4v16c0 1.51 1.23 2.75 2.75 2.75h10c1.51 0 2.75-1.24 2.75-2.75V4c0-1.52-1.24-2.75-2.75-2.75H7Z"/><g fill="#EE4D4D" fill-rule="evenodd"><path d="M12 4.75c.41 0 .75.33.75.75v13c0 .41-.34.75-.75.75 -.42 0-.75-.34-.75-.75v-13c0-.42.33-.75.75-.75Z"/><path d="M7.4 7.53c.14-.19.36-.29.59-.29h7.99c.23 0 .44.1.59.28 .14.18.19.41.13.64l-1 4c-.09.33-.39.56-.73.56h-6c-.35 0-.65-.24-.73-.57l-1-4c-.06-.23-.01-.47.13-.65Zm1.55 1.21l.625 2.5h4.82l.625-2.5H8.94Z"/></g></svg>