<svg viewBox="0 0 24 24" xmlns="http://www.w3.org/2000/svg"><path fill="#CFD8DC" d="M2 6.25c-.42 0-.75.33-.75.75v11c0 .41.33.75.75.75h20c.41 0 .75-.34.75-.75V7c0-.42-.34-.75-.75-.75H2Z"/><path fill="#ECEFF1" d="M6 5.25c-.42 0-.75.33-.75.75v12c0 .41.33.75.75.75h12c.41 0 .75-.34.75-.75V6c0-.42-.34-.75-.75-.75H6Z"/><g fill="#EE4D4D"><path d="M9 5.25c-.42 0-.75.33-.75.75v4c0 .41.33.75.75.75h6c.41 0 .75-.34.75-.75V6c0-.42-.34-.75-.75-.75H9Z"/><path d="M10 11.75c-.27 0-.52.14-.65.37 -.14.23-.14.51-.01.74l1.99 3.5c.13.23.38.37.65.37 .26 0 .51-.15.65-.38l2-3.5c.13-.24.13-.52-.01-.75 -.14-.24-.39-.38-.65-.38h-4Z"/></g></svg>