<svg viewBox="0 0 24 24" xmlns="http://www.w3.org/2000/svg"><path fill="#EE4D4D" d="M12 1.25C9.92 1.25 8.25 2.92 8.25 5c0 .84.27 1.62.74 2.25h-2c-1.52 0-2.75 1.23-2.75 2.75v10c0 1.51 1.23 2.75 2.75 2.75h10c1.51 0 2.75-1.24 2.75-2.75v-3c0-.42-.34-.75-.75-.75h-2.27c-.22 0-.42.09-.56.24 -.42.46-1.02.75-1.68.75 -1.25 0-2.25-1.01-2.25-2.25 0-1.25 1-2.25 2.25-2.25 .66 0 1.26.28 1.67.75 .14.15.34.24.55.24h2.26c.41 0 .75-.34.75-.75v-3c0-1.52-1.24-2.75-2.75-2.75h-2c.47-.63.74-1.41.74-2.25 0-2.08-1.68-3.75-3.75-3.75Z"/></svg>