<svg viewBox="0 0 24 24" xmlns="http://www.w3.org/2000/svg"><path fill="#5E94FF" d="M8.56 13.25c-1.27 0-2.37.85-2.67 2.083l-1.01 4c-.44 1.73.87 3.41 2.66 3.41 1.18 0 2.23-.76 2.6-1.88l.37-1.13h2.91l.37 1.12c.37 1.12 1.42 1.87 2.6 1.87 1.78 0 3.1-1.69 2.66-3.42l-1.01-4.01c-.31-1.23-1.41-2.083-2.67-2.083H8.49Z"/><path fill="#EE4D4D" d="M8.56 10.75c-1.27 0-2.37-.86-2.67-2.09L4.88 4.65c-.44-1.74.87-3.42 2.66-3.42 1.18 0 2.23.75 2.6 1.87l.37 1.12h2.91l.37-1.13c.37-1.13 1.42-1.88 2.6-1.88 1.78 0 3.1 1.68 2.66 3.41l-1.01 4c-.31 1.22-1.41 2.08-2.67 2.08H8.49Z"/></svg>