<svg viewBox="0 0 24 24" xmlns="http://www.w3.org/2000/svg"><path fill="#ECEFF1" d="M2 1.25c-.42 0-.75.33-.75.75v16c0 .41.33.75.75.75h4.92l4.59 3.82c.22.18.53.22.79.1 .26-.13.43-.39.43-.68v-3.25h9.25c.41 0 .75-.34.75-.75v-16c0-.42-.34-.75-.75-.75h-20Z"/><g fill="#EE4D4D" fill-rule="evenodd"><path d="M12 5.75c-.7 0-1.25.55-1.25 1.25v1c0 .41-.34.75-.75.75 -.42 0-.75-.34-.75-.75V7c0-1.52 1.23-2.75 2.75-2.75 1.51 0 2.75 1.23 2.75 2.75v1c0 .19-.08.38-.22.53l-1.79 1.78v1.68c0 .41-.34.75-.75.75 -.42 0-.75-.34-.75-.75v-2c0-.2.07-.39.21-.54l1.78-1.79v-.69c0-.7-.56-1.25-1.25-1.25Z"/><path d="M12 13.25c.41 0 .75.33.75.75v1c0 .41-.34.75-.75.75 -.42 0-.75-.34-.75-.75v-1c0-.42.33-.75.75-.75Z"/></g></svg>