<svg viewBox="0 0 24 24" xmlns="http://www.w3.org/2000/svg"><path fill="#EE4D4D" d="M5 1.25c-.42 0-.75.33-.75.75v20c0 .41.33.75.75.75h14c.41 0 .75-.34.75-.75V2c0-.42-.34-.75-.75-.75H5Z"/><path fill="#ECEFF1" d="M18.28 4.94c-1.36-1.28-3.3-1.45-5.21-.9 -1.92.55-3.93 1.85-5.6 3.73 -1.68 1.88-2.75 4.05-3.11 6.06 -.36 1.99-.02 3.94 1.32 5.21 1.35 1.27 3.29 1.44 5.2.89 1.91-.56 3.92-1.86 5.59-3.74 1.67-1.89 2.74-4.06 3.1-6.06 .35-2 .01-3.95-1.33-5.22Z"/><g fill="#EE4D4D" fill-rule="evenodd"><path d="M10.25 8.5c0-.42.33-.75.75-.75h3c.3 0 .57.18.69.46 .11.28.05.6-.17.81l-4 3.99c-.3.29-.77.29-1.07 0 -.3-.3-.3-.77 0-1.07l2.71-2.72h-1.19c-.42 0-.75-.34-.75-.75Z"/><path d="M13.75 15.5c0 .41-.34.75-.75.75h-3c-.31 0-.58-.19-.7-.47 -.12-.29-.06-.61.16-.82l4-4c.29-.3.76-.3 1.06 0 .29.29.29.76 0 1.06l-2.72 2.71h1.18c.41 0 .75.33.75.75Z"/></g></svg>