<svg viewBox="0 0 24 24" xmlns="http://www.w3.org/2000/svg"><g fill="#FFC44D" fill-rule="evenodd"><path d="M3.96 3.96c.29-.3.76-.3 1.06 0l5.99 6c.29.29.29.76 0 1.06 -.3.29-.77.29-1.07 0l-6-6c-.3-.3-.3-.77 0-1.07Zm9 9c.29-.3.76-.3 1.06 0l2.5 2.5c.29.29.29.76 0 1.06 -.3.29-.77.29-1.07 0l-2.5-2.5c-.3-.3-.3-.77 0-1.07Z"/><path fill="#EE4D4D" d="M6.53 17.46c.29.29.29.76 0 1.06l-4 4c-.3.29-.77.29-1.07 0 -.3-.3-.3-.77 0-1.07l4-4c.29-.3.76-.3 1.06 0Z"/></g><g fill="#ECEFF1"><path d="M19 1.25c-.2 0-.39.07-.54.21l-14.5 14.5c-.3.29-.3.76-.001 1.06l3 3c.29.29.76.29 1.06 0l14.5-14.5c.14-.15.21-.34.21-.54v-3c0-.42-.34-.75-.75-.75h-3Z"/><path d="M2 1.25c-.42 0-.75.33-.75.75v5c0 .3.18.57.46.69 .28.11.6.05.81-.17l5-5c.21-.22.27-.54.16-.82 -.12-.29-.39-.47-.7-.47h-5Z"/><path d="M15.5 14.75c-.42 0-.75.33-.75.75v5c0 .19.07.38.21.53l1.5 1.5c.19.19.47.26.73.19 .26-.08.46-.28.52-.55l.89-3.57 3.56-.9c.26-.07.46-.27.54-.53 .07-.27-.01-.54-.2-.74l-1.5-1.5c-.15-.15-.34-.22-.54-.22h-5Z"/></g><path fill="#EE4D4D" fill-rule="evenodd" d="M2.46 14.46c.29-.3.76-.3 1.06 0l6 6c.29.29.29.76 0 1.06 -.3.29-.77.29-1.07 0l-6-6c-.3-.3-.3-.77 0-1.07Z"/></svg>