<svg viewBox="0 0 24 24" xmlns="http://www.w3.org/2000/svg"><path fill="#ECEFF1" d="M19.12 5.58c-.14-.21-.38-.34-.63-.34 -.26 0-.49.12-.63.33l-2 3c-.1.13-.14.29-.13.45l.5 9c.02.39.35.7.74.7h3c.39 0 .72-.32.74-.71l.5-9c0-.17-.04-.33-.13-.46l-2-3Z"/><g fill="#EE4D4D" fill-rule="evenodd"><path d="M14.25 18c0-.42.33-.75.75-.75h7c.41 0 .75.33.75.75 0 .41-.34.75-.75.75h-7c-.42 0-.75-.34-.75-.75Z"/><path d="M18.5 17.25c.41 0 .75.33.75.75v4c0 .41-.34.75-.75.75 -.42 0-.75-.34-.75-.75v-4c0-.42.33-.75.75-.75Z"/></g><path fill="#5E94FF" d="M8.77 1.3c-.18-.07-.38-.07-.55 0l-6.5 2.55c-.29.11-.48.38-.48.69v6.91c0 1.76.81 3.43 2.2 4.52l4.58 3.59c.27.21.65.21.92 0l4.58-3.6c1.38-1.1 2.2-2.76 2.2-4.53V4.51c0-.31-.19-.59-.48-.7l-6.5-2.55Z"/><path fill="#ECEFF1" d="M8.79 4.31c-.19-.09-.41-.09-.6 0l-3.5 1.5c-.28.11-.46.38-.46.68v3.2c0 1.67.73 3.27 2 4.36l1.75 1.5c.28.24.69.24.97 0l1.75-1.51c1.27-1.1 2-2.69 2-4.37V6.46c0-.31-.18-.58-.46-.69l-3.5-1.5Z"/></svg>