<svg viewBox="0 0 24 24" xmlns="http://www.w3.org/2000/svg"><path fill="#8B98A6" fill-rule="evenodd" d="M10.37 15.416l-2.01-3 1.24-.84 2 3 -1.25.83Z"/><path fill="#ECEFF1" d="M4 11.25c-.34 0-.63.22-.73.54l-2 7c-.07.22-.02.46.12.65 .14.18.36.29.59.29h5c.33 0 .62-.23.72-.55l2-7c.06-.23.01-.47-.13-.66 -.15-.19-.37-.3-.6-.3h-5Z"/><path fill="#CFD8DC" d="M2 8.25c-.42 0-.75.33-.75.75v3c0 .41.33.75.75.75h14c.25 0 .48-.13.62-.34l2-3c.15-.24.16-.53.03-.77 -.14-.25-.39-.4-.67-.4h-16Z"/><path fill="#EE4D4D" d="M4 4.25c-.29 0-.55.16-.68.41l-2 4c-.12.23-.11.5.03.72 .13.22.37.35.63.35h20c.41 0 .75-.34.75-.75v-4c0-.42-.34-.75-.75-.75h-18Z"/></svg>