<svg viewBox="0 0 24 24" xmlns="http://www.w3.org/2000/svg"><g fill="#FFC44D"><path d="M12.62 2.58c-.14-.21-.38-.34-.63-.34 -.26 0-.49.12-.625.33L9.78 4.95l-2.76.76c-.25.06-.44.25-.52.49 -.08.23-.04.5.12.69l1.77 2.23 -.13 2.85c-.02.25.1.49.3.63 .2.14.46.18.7.09l2.67-1 2.67.99c.23.08.49.05.7-.1 .2-.15.31-.39.3-.64l-.13-2.86 1.77-2.24c.15-.2.2-.46.12-.7 -.08-.24-.27-.43-.52-.5l-2.76-.77 -1.58-2.39Z"/><path d="M7.12 12.58c-.14-.21-.38-.34-.63-.34 -.26 0-.49.12-.63.33l-1.41 2.11 -2.45.68c-.25.06-.44.25-.52.49 -.08.23-.04.5.12.69l1.58 1.99 -.11 2.54c-.02.25.1.49.3.63 .2.14.46.18.7.09l2.38-.89 2.38.88c.23.08.49.05.7-.1 .2-.15.31-.39.3-.64l-.11-2.55 1.58-2c.15-.2.2-.46.12-.7 -.08-.24-.27-.43-.52-.5l-2.45-.69 -1.41-2.12Z"/><path d="M18.12 12.58c-.14-.21-.38-.34-.63-.34 -.26 0-.49.12-.625.33l-1.41 2.11 -2.45.68c-.25.06-.44.25-.52.49 -.08.23-.04.5.12.69l1.58 1.99 -.11 2.54c-.02.25.1.49.3.63 .2.14.46.18.7.09l2.38-.89 2.38.88c.23.08.49.05.7-.1 .2-.15.31-.39.3-.64l-.11-2.55 1.58-2c.15-.2.2-.46.12-.7 -.08-.24-.27-.43-.52-.5l-2.45-.69 -1.41-2.12Z"/></g></svg>