<svg viewBox="0 0 24 24" xmlns="http://www.w3.org/2000/svg"><g fill="#ECEFF1"><path d="M13.96 19.53l3 3c.29.29.76.29 1.06 0l3-3c.15-.16.23-.37.21-.59l-1-13c-.04-.4-.36-.7-.75-.7h-4c-.4 0-.72.3-.75.69l-1 13c-.02.21.06.43.21.58Z"/><path d="M5.96 1.46c.29-.3.76-.3 1.06 0l2.99 3c.15.15.23.36.21.58l-1.01 13c-.04.39-.36.69-.75.69h-4c-.4 0-.72-.31-.75-.7l-1-13c-.02-.22.06-.44.21-.59l3-3Z"/></g><g fill="#EE4D4D" fill-rule="evenodd"><path d="M22.75 6c0 .41-.34.75-.75.75h-9c-.42 0-.75-.34-.75-.75 0-.42.33-.75.75-.75h9c.41 0 .75.33.75.75Z"/><path d="M17.5 6.75c-.42 0-.75-.34-.75-.75V2c0-.42.33-.75.75-.75 .41 0 .75.33.75.75v4c0 .41-.34.75-.75.75Z"/><path d="M11.75 18c0-.42-.34-.75-.75-.75H2c-.42 0-.75.33-.75.75 0 .41.33.75.75.75h9c.41 0 .75-.34.75-.75Z"/><path d="M6.5 17.25c-.42 0-.75.33-.75.75v4c0 .41.33.75.75.75 .41 0 .75-.34.75-.75v-4c0-.42-.34-.75-.75-.75Z"/></g></svg>