<svg viewBox="0 0 24 24" xmlns="http://www.w3.org/2000/svg"><g fill="#A2ADB8"><path d="M9 5.25c-.35 0-.65.23-.73.56l-1 4c-.06.22-.01.46.13.64s.36.28.59.28h7.99c.23 0 .44-.11.59-.29 .14-.19.19-.42.13-.65l-1-4c-.09-.34-.39-.57-.73-.57h-6Z"/><path d="M7.25 11c0-.22-.1-.42-.25-.56 -.16-.15-.38-.22-.59-.19l-4.5.5c-.38.04-.67.36-.67.74v5c0 .38.28.7.66.74l4.5.5c.21.02.42-.05.58-.19 .15-.15.24-.35.24-.56v-6Z"/><path d="M16.75 11c0-.22.09-.42.24-.56 .15-.15.37-.22.58-.19l4.5.5c.37.04.66.36.66.74v5c0 .38-.29.7-.67.74l-4.5.5c-.22.02-.43-.05-.59-.19 -.16-.15-.25-.35-.25-.56v-6Z"/></g><path fill="#ECEFF1" d="M9 9.25c-2.63 0-4.75 2.12-4.75 4.75 0 2.62 2.12 4.75 4.75 4.75h6c2.62 0 4.75-2.13 4.75-4.75 0-2.63-2.13-4.75-4.75-4.75H9Z"/></svg>