<svg viewBox="0 0 24 24" xmlns="http://www.w3.org/2000/svg"><path fill="#A2ADB8" d="M16 7.25c-.2 0-.39.07-.54.21l-8.01 8c-.15.14-.22.33-.22.53v6c0 .41.33.75.75.75h14c.41 0 .75-.34.75-.75v-14c0-.42-.34-.75-.75-.75h-6Z"/><path fill="#ECEFF1" fill-rule="evenodd" d="M15.264 11.4c.07-.41.47-.68.88-.6 1.84.36 3.1 2.17 3.1 4.18 0 2.23-1.58 4.25-3.75 4.25 -1.78 0-3.17-1.37-3.61-3.07 -.11-.41.14-.81.54-.92 .4-.11.8.14.91.54 .3 1.19 1.2 1.93 2.14 1.93 1.13 0 2.25-1.12 2.25-2.75 0-1.46-.9-2.53-1.9-2.72 -.41-.08-.68-.48-.6-.89Z"/><path fill="#ECEFF1" d="M2 1.25c-.42 0-.75.33-.75.75v14c0 .41.33.75.75.75h14c.41 0 .75-.34.75-.75V2c0-.42-.34-.75-.75-.75H2Z"/><path fill="#EE4D4D" fill-rule="evenodd" d="M3.66 5.32c.37-.19.82-.04 1 .33l2.25 4.5L8.28 6.7c.11-.29.38-.48.69-.48 .3 0 .58.18.69.47l1.37 3.44 2.25-4.51c.18-.38.63-.53 1-.34 .37.18.52.63.33 1l-3 5.99c-.14.26-.41.42-.702.41 -.3-.02-.56-.2-.67-.48l-1.31-3.26 -1.31 3.25c-.11.27-.38.45-.67.47 -.3.01-.57-.15-.71-.42l-3-6c-.19-.38-.04-.83.33-1.01Z"/></svg>