<svg viewBox="0 0 24 24" xmlns="http://www.w3.org/2000/svg"><path fill="#EE4D4D" d="M10 4.25c-.42 0-.75.33-.75.75v1.71c-3.21 1.13-5.5 4.18-5.5 7.78 0 4.55 3.69 8.25 8.25 8.25 4.55 0 8.25-3.7 8.25-8.25 0-3.6-2.3-6.65-5.5-7.79V4.98c0-.42-.34-.75-.75-.75h-4Z"/><path fill="#ECEFF1" fill-rule="evenodd" d="M9.25 5c0-.42.33-.75.75-.75h4c.41 0 .75.33.75.75v1.71c3.2 1.13 5.5 4.18 5.5 7.78 0 4.55-3.7 8.25-8.25 8.25 -4.56 0-8.25-3.7-8.25-8.25 0-3.6 2.29-6.65 5.5-7.79V4.98Zm1.5.75v1.51c0 .33-.23.63-.56.72 -2.86.78-4.95 3.4-4.95 6.5 0 3.72 3.02 6.75 6.75 6.75 3.72 0 6.75-3.03 6.75-6.75 0-3.11-2.1-5.72-4.95-6.51 -.33-.09-.56-.39-.56-.73V5.72h-2.5Z"/><path fill="#CFD8DC" d="M9.5 1.25c-1.25 0-2.25 1-2.25 2.25 0 1.24 1 2.25 2.25 2.25h5c1.24 0 2.25-1.01 2.25-2.25 0-1.25-1.01-2.25-2.25-2.25h-5Z"/><g fill="#ECEFF1" fill-rule="evenodd"><path d="M16.03 10.46c.29.29.29.76 0 1.06l-7 7c-.3.29-.77.29-1.07 0 -.3-.3-.3-.77 0-1.07l7-7c.29-.3.76-.3 1.06 0Z"/><path d="M7.96 10.46c-.3.29-.3.76 0 1.06l7 7c.29.29.76.29 1.06 0 .29-.3.29-.77 0-1.07l-7-7c-.3-.3-.77-.3-1.07 0Z"/></g></svg>