<svg viewBox="0 0 24 24" xmlns="http://www.w3.org/2000/svg"><g fill="#8B98A6" fill-rule="evenodd"><path d="M6.23 17.78c.39.13.6.55.47.94l-1 3c-.14.39-.56.6-.95.47 -.4-.14-.61-.56-.48-.95l1-3c.13-.4.55-.61.94-.48Z"/><path d="M17.76 17.78c-.4.13-.61.55-.48.94l1 3c.13.39.55.6.94.47 .39-.14.6-.56.47-.95l-1-3c-.14-.4-.56-.61-.95-.48Z"/><path fill="#5E94FF" d="M8.5 1.75c-2.63 0-4.75 2.12-4.75 4.75v3 6c0 .41.33.75.75.75h15c.41 0 .75-.34.75-.75v-6 -3c0-2.63-2.13-4.75-4.75-4.75h-7Z"/><path fill="#7EA9FF" d="M4.5 8.75c-1.8 0-3.25 1.45-3.25 3.25 0 1.35.82 2.51 2 3v1.49c0 1.51 1.23 2.75 2.75 2.75h1 10 1c1.51 0 2.75-1.24 2.75-2.75v-1.5c1.17-.49 2-1.65 2-3.01 0-1.8-1.46-3.25-3.25-3.25 -1.8 0-3.25 1.45-3.25 3.25v2.25h-8.5v-2.25c0-1.8-1.46-3.25-3.25-3.25Z"/></g></svg>