<svg viewBox="0 0 24 24" xmlns="http://www.w3.org/2000/svg"><g fill="#5D6874" fill-rule="evenodd"><path d="M5 18.25c-.42 0-.75.33-.75.75v1.5c0 .96.78 1.75 1.75 1.75h2c.96 0 1.75-.79 1.75-1.75V19c0-.42-.34-.75-.75-.75H5Z"/><path d="M15.5 18.25c-.42 0-.75.33-.75.75v1.5c0 .96.78 1.75 1.75 1.75h2c.96 0 1.75-.79 1.75-1.75V19c0-.42-.34-.75-.75-.75h-4Z"/><path fill="#ECEFF1" d="M8 2.25C4.27 2.25 1.25 5.27 1.25 9v2c0 .41.33.75.75.75h8c.41 0 .75-.34.75-.75V3c0-.42-.34-.75-.75-.75H8Z"/><path fill="#5E94FF" d="M2 10.25c-.42 0-.75.33-.75.75v4c0 2.62 2.12 4.75 4.75 4.75h12c2.62 0 4.75-2.13 4.75-4.75v-4c0-.42-.34-.75-.75-.75H2Z"/><g fill="#7EA9FF"><path d="M3 10.25c-.42 0-.75.33-.75.75 0 2.07 1.67 3.75 3.75 3.75 2.07 0 3.75-1.68 3.75-3.75 0-.42-.34-.75-.75-.75H3Z"/><path d="M9 10.25c-.42 0-.75.33-.75.75 0 2.07 1.67 3.75 3.75 3.75 2.07 0 3.75-1.68 3.75-3.75 0-.42-.34-.75-.75-.75H9Z"/><path d="M15 10.25c-.42 0-.75.33-.75.75 0 2.07 1.67 3.75 3.75 3.75 2.07 0 3.75-1.68 3.75-3.75 0-.42-.34-.75-.75-.75h-6Z"/></g></g></svg>