<svg viewBox="0 0 24 24" xmlns="http://www.w3.org/2000/svg"><g fill="#DD9A4B" fill-rule="evenodd"><path d="M20 16.25c.41 0 .75.33.75.75v3c0 .41-.34.75-.75.75 -.42 0-.75-.34-.75-.75v-3c0-.42.33-.75.75-.75Z"/><path d="M4 16.25c.41 0 .75.33.75.75v3c0 .41-.34.75-.75.75 -.42 0-.75-.34-.75-.75v-3c0-.42.33-.75.75-.75Z"/><path d="M16 7.25c.41 0 .75.33.75.75v9c0 .41-.34.75-.75.75 -.42 0-.75-.34-.75-.75V8c0-.42.33-.75.75-.75Z"/><path d="M12 7.25c.41 0 .75.33.75.75v9c0 .41-.34.75-.75.75 -.42 0-.75-.34-.75-.75V8c0-.42.33-.75.75-.75Z"/><path d="M8 7.25c.41 0 .75.33.75.75v9c0 .41-.34.75-.75.75 -.42 0-.75-.34-.75-.75V8c0-.42.33-.75.75-.75Z"/><g fill="#FFD071"><path d="M3.25 8c0-.42.33-.75.75-.75h16c.41 0 .75.33.75.75v9c0 .41-.34.75-.75.75H4c-.42 0-.75-.34-.75-.75V8Zm1.5.75v7.5h14.5v-7.5H4.75Z"/><path d="M20 4.25c.41 0 .75.33.75.75v10c0 .41-.34.75-.75.75 -.42 0-.75-.34-.75-.75V5c0-.42.33-.75.75-.75Z"/><path d="M4 4.25c.41 0 .75.33.75.75v10c0 .41-.34.75-.75.75 -.42 0-.75-.34-.75-.75V5c0-.42.33-.75.75-.75Z"/></g><path d="M17.75 5c0-.42.33-.75.75-.75h3c.41 0 .75.33.75.75 0 .41-.34.75-.75.75h-3c-.42 0-.75-.34-.75-.75Z"/><path d="M1.75 5c0-.42.33-.75.75-.75h3c.41 0 .75.33.75.75 0 .41-.34.75-.75.75h-3c-.42 0-.75-.34-.75-.75Z"/></g></svg>