<svg viewBox="0 0 24 24" xmlns="http://www.w3.org/2000/svg"><g fill="#5E94FF" fill-rule="evenodd"><path d="M8.43 1.25c-1.78 0-3.41.99-4.23 2.57L1.76 8.54c-.35.67-.53 1.42-.53 2.17v6.33c0 .34.03.69.11 1.03l.2.93c.48 2.17 2.41 3.71 4.63 3.71h11.58c2.22 0 4.15-1.55 4.63-3.72l.2-.94c.07-.34.11-.69.11-1.04v-6.34c0-.76-.19-1.51-.53-2.18l-2.44-4.73c-.82-1.58-2.45-2.58-4.23-2.58H8.36Z"/><g fill="#7EA9FF"><path d="M16.58 16.48c-2.85-1.625-6.34-1.625-9.18 0l-2.04 1.16c-.36.2-.82.08-1.03-.28 -.21-.36-.09-.82.27-1.03l2.03-1.17c3.3-1.89 7.36-1.89 10.66 0l2.03 1.16c.35.2.48.66.27 1.02 -.21.35-.67.48-1.03.27l-2.04-1.17Z"/><path d="M17.5 9.75c-1.8 0-3.25 1.45-3.25 3.25v1.23c0 .41-.34.75-.75.75 -.42 0-.75-.34-.75-.75v-1.24c0-2.63 2.12-4.75 4.75-4.75h.5c.41 0 .75.33.75.75 0 .41-.34.75-.75.75h-.5Z"/><path d="M6.5 9.75c1.79 0 3.25 1.45 3.25 3.25v1.23c0 .41.33.75.75.75 .41 0 .75-.34.75-.75v-1.24c0-2.63-2.13-4.75-4.75-4.75H6c-.42 0-.75.33-.75.75 0 .41.33.75.75.75h.5Z"/></g></g></svg>