<svg viewBox="0 0 24 24" xmlns="http://www.w3.org/2000/svg"><g fill="#DD9A4B" fill-rule="evenodd"><path d="M13.46 15.46c0-.42.33-.75.75-.75h2.5c1.79 0 3.25 1.45 3.25 3.25 0 1.79-1.46 3.25-3.25 3.25h-6.36c-1.59 0-3.08-.8-3.96-2.12l-.82-1.22c-.23-.35-.14-.82.2-1.04 .34-.23.81-.14 1.04.2l.81 1.21c.6.9 1.61 1.44 2.7 1.44h6.35c.96 0 1.75-.79 1.75-1.75 0-.97-.79-1.75-1.75-1.75h-2.5c-.42 0-.75-.34-.75-.75Z"/><path d="M8.75 9c0-.42.33-.75.75-.75H15c.41 0 .75.33.75.75 0 .41-.34.75-.75.75H9.5c-.42 0-.75-.34-.75-.75Z"/><path d="M13 8.25c.41 0 .75.33.75.75v3.5c0 .41-.34.75-.75.75 -.42 0-.75-.34-.75-.75V9c0-.42.33-.75.75-.75Z"/><path fill="#FFD071" d="M8.94 5.23C8.5 3.77 6.97 2.94 5.51 3.38l-.96.28c-.2.05-.36.18-.45.36 -.1.17-.12.38-.06.57l3 9.99c.28.95 1.16 1.6 2.15 1.6h8c.41 0 .75-.34.75-.75v-1c0-1.52-1.24-2.75-2.75-2.75h-4.33L8.91 5.19Z"/></g></svg>