<svg viewBox="0 0 24 24" xmlns="http://www.w3.org/2000/svg"><g fill="#9545ED" fill-rule="evenodd"><path d="M11.99 1.88l1.55-.78 .89 1.78 -1.45.72v2.38h-2V3.59l-1.45-.73 .89-1.79 1.55.77Z"/><path d="M7.5 8c-.28 0-.5.22-.5.5 0 .27.22.5.5.5 .27 0 .5-.23.5-.5 0-.28-.23-.5-.5-.5ZM5 8.5C5 7.11 6.11 6 7.5 6 8.88 6 10 7.11 10 8.5 10 9.88 8.88 11 7.5 11 6.11 11 5 9.88 5 8.5Z"/><path d="M16.5 8c-.28 0-.5.22-.5.5 0 .27.22.5.5.5 .27 0 .5-.23.5-.5 0-.28-.23-.5-.5-.5Zm-2.5.5C14 7.11 15.11 6 16.5 6 17.88 6 19 7.11 19 8.5c0 1.38-1.12 2.5-2.5 2.5 -1.39 0-2.5-1.12-2.5-2.5Z"/><g fill="#3747D6"><path d="M17.78 2.33c1.98-.89 4.21.57 4.21 2.74v3.92c0 2.76-2.24 5-5 5h-5c-.56 0-1-.45-1-1v-7c0-.4.23-.76.59-.92l6.18-2.76Zm2.21 2.74c0-.73-.75-1.21-1.41-.92l-5.6 2.48v5.35h4c1.65 0 3-1.35 3-3V5.05Z"/><path d="M6.21 2.33c-1.99-.89-4.22.57-4.22 2.74v3.92c0 2.76 2.23 5 5 5h5c.55 0 1-.45 1-1v-7c0-.4-.24-.76-.6-.92L6.2 2.31ZM3.99 5.07c0-.73.74-1.21 1.4-.92l5.59 2.48v5.35h-4c-1.66 0-3-1.35-3-3V5.05Z"/><path d="M14.84 22.75c.34.29.83.32 1.2.07l3.42-2.29c.98-.66 1.48-1.83 1.29-2.99l-.37-2.22c-.33-1.93-2-3.35-3.95-3.35h-4.46c-.56 0-1 .44-1 1v4.16c0 1.45.63 2.84 1.74 3.79l2.1 1.8Zm.72-2.02l-1.53-1.31c-.67-.57-1.05-1.41-1.05-2.28v-3.17h3.45c.97 0 1.81.7 1.97 1.67l.36 2.21c.06.38-.11.77-.44.99l-2.8 1.86Z"/><path d="M9.15 22.75c-.35.29-.84.32-1.21.07l-3.43-2.29c-.99-.66-1.49-1.83-1.3-2.99l.36-2.22c.32-1.93 1.99-3.35 3.94-3.35h4.45c.55 0 1 .44 1 1v4.16c0 1.45-.64 2.84-1.75 3.79l-2.11 1.8Zm-.73-2.02l1.52-1.31c.66-.57 1.04-1.41 1.04-2.28v-3.17H7.52c-.98 0-1.82.7-1.98 1.67l-.37 2.21c-.07.38.1.77.43.99l2.79 1.86Z"/></g></g></svg>