<svg viewBox="0 0 24 24" xmlns="http://www.w3.org/2000/svg"><g fill="#9545ED" fill-rule="evenodd"><path d="M11.03 15.96v-3.97h2v3.96h-2Z"/><path d="M7.73 15.35c.19-.23.46-.36.76-.36h6.99c.29 0 .57.12.76.35 .19.22.27.52.22.81l-1 6c-.09.48-.5.83-.99.83h-5c-.49 0-.91-.36-.99-.84l-1-6c-.05-.29.03-.59.22-.82Zm1.94 1.64l.66 4h3.3l.66-4H9.65Z"/><path d="M7 21h10v2H7v-2Z"/><path d="M7 15h10v2H7v-2Z"/><path fill="#3747D6" d="M12.51 1.14l-.52.85 -.52-.86c.31-.2.71-.2 1.029 0Zm1.09.76c-.26-.21-.49-.37-.67-.49 -.13-.09-.23-.16-.31-.21 -.04-.03-.07-.05-.09-.06l-.03-.02 -.01-.01 -.01-.01 -.01-.01c-.01-.01 0 0-.52.85 -.52-.86-.52-.86-.52-.86l-.01 0 -.01 0 -.01 0 -.03.01c-.03.01-.06.03-.09.05 -.08.04-.18.11-.31.2 -.18.12-.41.28-.67.48 -.33-.02-.61-.03-.83-.03 -.16 0-.28 0-.37 0 -.05 0-.08 0-.11 0l-.03 0 -.01 0 -.01 0 -.01 0c-.01 0-.01 0 .06.99l-.07-1c-.37.02-.7.25-.85.59l.91.4c-.92-.41-.92-.41-.92-.41l-.01 0 -.01 0 -.01.01c-.01.01-.02.03-.03.05 -.02.04-.05.1-.08.19 -.07.16-.15.39-.25.67 -.18.53-.38 1.26-.51 2.08 -.32.69-.53 1.46-.53 2.3 0 2.85 2.31 5.16 5.16 5.16s5.16-2.32 5.16-5.17c0-.84-.21-1.62-.53-2.31 -.13-.83-.34-1.56-.51-2.09 -.1-.29-.18-.52-.25-.68 -.04-.09-.06-.15-.08-.2 -.01-.03-.02-.05-.03-.06l-.01-.02 -.01-.01 -.01-.01 -.01-.01c0-.01-.01-.01-.92.4l.91-.41c-.16-.34-.48-.57-.843-.6l-.08.99c.07-1 .07-1 .07-1l-.01-.01 -.01-.01 -.01-.01 -.03-.01c-.03-.01-.06-.01-.11-.01 -.09-.01-.21-.01-.37-.01 -.22-.01-.5 0-.83.02Zm.57 1.98c-.23 0-.51.01-.82.04 -.27.02-.53-.06-.73-.23 -.24-.2-.46-.37-.65-.5 -.19.13-.41.3-.65.49 -.21.16-.47.25-.73.22 -.31-.03-.59-.04-.82-.05 -.02.05-.04.11-.06.17 -.17.48-.35 1.15-.45 1.89 -.02.1-.05.2-.09.29 -.25.51-.4 1.04-.4 1.57 0 1.74 1.41 3.16 3.16 3.16 1.74 0 3.16-1.42 3.16-3.17 0-.54-.15-1.06-.4-1.58 -.05-.1-.08-.2-.09-.3 -.11-.74-.29-1.41-.45-1.9 -.03-.07-.05-.13-.06-.18Zm-4.14-.59c0-.01 0-.01 0 0v0Z"/></g></svg>