<svg viewBox="0 0 24 24" xmlns="http://www.w3.org/2000/svg"><g fill="#9545ED" fill-rule="evenodd"><path d="M18.81 19.99l-1.64-.55 .63-1.9 1.63.54c1.22.4 2.05 1.55 2.05 2.846v1.55h-2v-1.56c0-.44-.28-.82-.69-.95Z"/><path d="M5.18 19.99l1.63-.55 -.64-1.9 -1.64.54c-1.23.4-2.06 1.55-2.06 2.846v1.55h2v-1.56c0-.44.27-.82.68-.95Z"/><path d="M18.31 6.5l-1.64.54 .63 1.89 1.63-.55c1.22-.41 2.05-1.56 2.05-2.85V3.97h-2v1.55c0 .43-.28.81-.69.94Z"/><path d="M5.68 6.5l1.63.54 -.64 1.89 -1.64-.55C3.8 7.97 2.97 6.82 2.97 5.53V3.97h2v1.55c0 .43.27.81.68.94Z"/><path d="M19.5 14h-1v-2h1c1.65 0 3 1.34 3 3v2h-2v-2c0-.56-.45-1-1-1Z"/><path d="M4.5 14h1v-2h-1c-1.66 0-3 1.34-3 3v2h2v-2c0-.56.44-1 1-1Z"/><g fill="#3747D6"><path d="M5 11c0-3.32 2.68-6 6-6h2c3.31 0 6 2.68 6 6v5c0 3.31-2.69 6-6 6h-2c-3.32 0-6-2.69-6-6v-5Zm6-4c-2.21 0-4 1.79-4 4v5c0 2.2 1.79 4 4 4h2c2.2 0 4-1.8 4-4v-5c0-2.21-1.8-4-4-4h-2Z"/><path d="M7.33 8.59c.61 1.41 2.02 2.4 3.66 2.4h2c1.63 0 3.04-.99 3.66-2.41l1.83.8c-.93 2.11-3.04 3.59-5.51 3.59h-2c-2.47 0-4.58-1.49-5.51-3.6l1.83-.81Z"/><path d="M8.5 4.5c0-1.66 1.34-3 3-3h1c1.65 0 3 1.34 3 3V6h-2V4.5c0-.56-.45-1-1-1h-1c-.56 0-1 .44-1 1V6h-2V4.5Z"/><path d="M11 21v-9h2v9h-2Z"/></g></g></svg>