<svg viewBox="0 0 24 24" xmlns="http://www.w3.org/2000/svg"><g fill="#9545ED" fill-rule="evenodd"><path d="M7 5C5.34 5 4 6.34 4 8c0 1.65 1.34 3 3 3v2c-2.77 0-5-2.24-5-5 0-2.77 2.23-5 5-5 2.76 0 5 2.23 5 5h-2c0-1.66-1.35-3-3-3Z"/><path d="M15.04 2.7c.12-.42.51-.71.95-.71h4v2h-3.27l-3.79 12.29 -1.92-.59 4-13Z"/><path fill="#3747D6" d="M6.26 7.32c.18-.21.45-.33.73-.33h12c.27 0 .54.11.73.32 .18.2.28.47.26.75l-1 13c-.05.52-.48.92-1 .92h-10c-.53 0-.96-.41-1-.93l-1-13c-.03-.28.07-.56.26-.76Zm1.81 1.67l.84 11h8.14l.84-11H8.04Z"/></g></svg>