<svg viewBox="0 0 24 24" xmlns="http://www.w3.org/2000/svg"><g fill="#3747D6" fill-rule="evenodd"><path d="M12 8c-2.21 0-4 1.79-4 4 0 .27.02.54.08.8l-1.97.39c-.08-.39-.12-.79-.12-1.2 0-3.32 2.68-6 6-6 3.31 0 6 2.68 6 6 0 1.96-.95 3.7-2.4 4.79l-1.21-1.6c.97-.74 1.6-1.9 1.6-3.21 0-2.21-1.8-4-4-4Z"/><path fill="#9545ED" d="M1 15.5C1 13.56 2.56 12 4.5 12h6c1.76 0 3.22 1.3 3.46 3h5.53c1.93 0 3.5 1.56 3.5 3.5 0 1.93-1.57 3.5-3.5 3.5h-3.56c-.64.61-1.5 1-2.45 1h-6c-1.94 0-3.5-1.57-3.5-3.5 0-.18.01-.36.03-.53 -1.72-.23-3.04-1.7-3.04-3.47ZM4.5 14c-.83 0-1.5.67-1.5 1.5 0 .82.67 1.5 1.5 1.5h.99c.37 0 .72.21.89.55 .16.33.13.74-.1 1.04 -.19.25-.3.56-.3.89 0 .82.67 1.5 1.5 1.5h6c.49 0 .92-.24 1.2-.61 .18-.26.48-.4.79-.4h3.99c.82 0 1.5-.68 1.5-1.5 0-.83-.68-1.5-1.5-1.5h-6c-.12 0-.24.01-.34.03 -.34.07-.69-.03-.94-.27 -.25-.25-.35-.6-.27-.94 .02-.11.03-.23.03-.34 0-.83-.68-1.5-1.5-1.5h-6Z"/><path d="M13 2v2h-2V2h2Z"/><path d="M7.86 2.83l1 1.73 -1.74 1 -1-1.74 1.73-1Z"/><path d="M16.13 2.83l-1 1.73 1.73 1 1-1.74 -1.74-1Z"/><path d="M3.83 6.13l1.73 1 -1 1.73 -1.74-1 1-1.74Z"/><path d="M20.16 6.13l-1.74 1 1 1.73 1.73-1 -1-1.74Z"/><path d="M20 11h2v2h-2v-2Z"/></g></svg>