<svg viewBox="0 0 24 24" xmlns="http://www.w3.org/2000/svg"><g fill="#9545ED" fill-rule="evenodd"><path d="M18 15.18V6.99h2v8.18c0 1.48.65 2.89 1.79 3.84l.84.7 -1.29 1.53 -.85-.71c-1.6-1.33-2.52-3.31-2.52-5.38Z"/><path d="M6 11.5V7H4v2.88l-.56-.28c-.31-.16-.68-.14-.98.04 -.3.18-.48.5-.48.85v3.5c0 .37.21.72.55.89l1.42.71c-.12 1.32-.75 2.56-1.79 3.42l-.85.7 1.28 1.53 .84-.71c1.59-1.33 2.51-3.31 2.51-5.38v-.19c0-.38-.22-.73-.56-.9l-1.45-.73v-1.27l.55.27c.3.15.67.13.97-.05 .29-.19.47-.51.47-.86Z"/><g fill="#3747D6"><path d="M7.54 5.03c-1.12.63-1.55 1.36-1.55 1.96 0 .59.42 1.32 1.54 1.96 1.08.62 2.66 1.03 4.45 1.03s3.36-.42 4.45-1.04c1.11-.64 1.54-1.37 1.54-1.97 0-.6-.43-1.33-1.55-1.97 -1.09-.63-2.67-1.04-4.46-1.04 -1.8 0-3.37.41-4.46 1.03Zm-1-1.74c1.44-.83 3.37-1.31 5.44-1.31 2.07 0 4 .47 5.44 1.3 1.41.8 2.55 2.07 2.55 3.69 0 1.61-1.14 2.88-2.56 3.69 -1.45.82-3.38 1.3-5.45 1.3 -2.08 0-4.01-.48-5.45-1.31 -1.42-.81-2.56-2.08-2.56-3.7s1.13-2.89 2.55-3.7Z"/><path d="M15 8H9V6h6v2Z"/></g></g></svg>