<svg viewBox="0 0 24 24" xmlns="http://www.w3.org/2000/svg"><g fill="#9545ED" fill-rule="evenodd"><path d="M17.89 19.31l-7.08-7.08 1.41-1.42 7.07 7.07 -1.42 1.41Z"/><path d="M10.11 16.91c-.18-.31-.18-.7 0-1.01 .69-1.2 1.98-2 3.46-2s2.77.8 3.46 1.99c.17.3.17.69 0 1 -.7 1.19-1.99 1.99-3.47 1.99 -1.49 0-2.78-.81-3.47-2Zm2.14-.51c.35.31.81.5 1.32.5 .5 0 .97-.19 1.32-.5 -.36-.32-.82-.5-1.33-.5 -.51 0-.97.18-1.33.5Z"/><path d="M16.91 10.11c-.31-.18-.7-.18-1.01 0 -1.2.69-2 1.98-2 3.46s.8 2.77 1.99 3.46c.3.17.69.17 1 0 1.19-.7 1.99-1.99 1.99-3.47 0-1.49-.81-2.78-2-3.47Zm-.51 2.14c.31.35.5.81.5 1.32 0 .5-.19.97-.5 1.32 -.32-.36-.5-.82-.5-1.33 0-.51.18-.97.5-1.33Z"/><path fill="#3747D6" d="M4.22 3.49l.24.97 -.98-.25c.08-.36.36-.64.72-.73Zm1.31-.23c-.33.03-.61.08-.82.12 -.16.02-.28.05-.36.07 -.05 0-.08.01-.11.02l-.03 0 -.01 0 -.01 0 -.01 0s0 0 .24.97c-.98-.25-.98-.25-.98-.25l-.01 0 -.01 0 -.01 0 -.01.02c-.01.02-.02.05-.03.1 -.02.08-.05.2-.08.35 -.04.21-.09.49-.13.81 -.25.21-.45.41-.6.56 -.11.1-.2.19-.26.26 -.03.03-.06.05-.07.07l-.02.02 -.01 0 -.01 0 -.01 0s-.01 0 .75.65l-.76-.66c-.25.27-.32.66-.18 1.01l.93-.36c-.94.35-.94.35-.94.35l0 0 0 0 0 .01c0 .01.01.03.02.05 .01.04.04.1.08.18 .06.15.17.38.3.65 .25.5.62 1.16 1.11 1.83 .26.71.66 1.4 1.25 1.99 2.01 2.01 5.28 2.01 7.3 0 2.01-2.02 2.01-5.29 0-7.31 -.6-.6-1.29-1-2-1.26 -.68-.5-1.34-.87-1.84-1.12 -.27-.14-.5-.24-.66-.31 -.09-.04-.15-.07-.19-.09 -.03-.01-.05-.02-.06-.03l-.02-.01 -.01-.01 -.01-.01s-.01-.01-.36.93l.35-.94c-.35-.14-.74-.07-1.02.17l.65.75c-.66-.76-.66-.76-.66-.76l-.01 0 -.01 0 -.01 0 -.03.01c-.02.01-.05.03-.08.06 -.07.05-.16.14-.27.25 -.16.15-.36.35-.57.59Zm1.8.99c-.16.16-.35.36-.55.6 -.17.2-.42.32-.68.35 -.31.02-.59.06-.81.1 -.04.22-.08.49-.11.8 -.03.26-.15.5-.36.67 -.24.19-.44.38-.61.54 .02.05.05.1.08.16 .23.45.57 1.06 1.02 1.65 .06.08.11.17.14.27 .18.54.46 1.01.83 1.39 1.23 1.23 3.24 1.23 4.47 0 1.23-1.24 1.23-3.25 0-4.48 -.38-.38-.85-.65-1.4-.84 -.1-.04-.19-.09-.28-.15 -.6-.45-1.2-.8-1.66-1.03 -.06-.03-.12-.06-.17-.09Z"/></g></svg>