<svg viewBox="0 0 24 24" xmlns="http://www.w3.org/2000/svg"><g fill="#CFD8DC"><path d="M2.5 18.25c-.42 0-.75.33-.75.75v3c0 .23.1.44.28.59 .18.14.41.19.64.13l1.81-.46 1.81.45c.22.05.46 0 .64-.14 .18-.15.28-.37.28-.6v-3c0-.42-.34-.75-.75-.75h-4Z"/><path d="M7 18.25c-.31 0-.58.18-.7.46s-.06.6.16.81l3 3c.2.2.49.27.76.18l2.76-.93 2.76.92c.15.05.32.05.47 0l2.76-.93 2.76.92c.22.07.48.03.67-.11 .19-.15.31-.37.31-.61v-3c0-.42-.34-.75-.75-.75h-15Z"/></g><path fill="#5E94FF" d="M2.5 5.25c-.42 0-.75.33-.75.75v13c0 .41.33.75.75.75H22c.41 0 .75-.34.75-.75v-4c0-1.52-1.24-2.75-2.75-2.75h-3.33l-4.43-2.22V5.99c0-.42-.34-.75-.75-.75h-9Z"/><path fill="#CFD8DC" d="M2 1.25c-.42 0-.75.33-.75.75v4c0 .41.33.75.75.75h10c.41 0 .75-.34.75-.75V2c0-.42-.34-.75-.75-.75H2Z"/></svg>