<svg viewBox="0 0 24 24" xmlns="http://www.w3.org/2000/svg"><path fill="#FFC44D" d="M12 1.25c-.9 0-1.72.49-2.14 1.28L1.6 18.11c-.25.45-.37.96-.37 1.47 0 1.74 1.41 3.15 3.15 3.15h15.19c1.74 0 3.15-1.42 3.15-3.16 0-.52-.13-1.03-.37-1.48L14.09 2.5c-.42-.79-1.24-1.29-2.14-1.29Z"/><g fill="#ECEFF1"><path d="M10.53 11.46c-.24-.24-.61-.29-.9-.13 -.3.16-.44.5-.36.83l2 8c.07.3.33.52.64.56 .31.03.61-.13.75-.42l2-4c.14-.29.08-.64-.15-.87l-4-4Z"/><path fill="#ECEFF1" fill-rule="evenodd" d="M12.75 1.36c.58.19 1.08.6 1.38 1.16l.11.22v9.24c0 .41-.34.75-.75.75 -.42 0-.75-.34-.75-.75V1.34Zm-1.5 0v8.13c0 .41-.34.75-.75.75 -.42 0-.75-.34-.75-.75V2.74l.11-.23c.29-.57.79-.98 1.38-1.17Z"/></g></svg>