<svg viewBox="0 0 24 24" xmlns="http://www.w3.org/2000/svg"><path fill="#F17171" d="M8 11.25c-.42 0-.75.33-.75.75v7c0 .41.33.75.75.75h8c.41 0 .75-.34.75-.75v-7c0-.42-.34-.75-.75-.75H8Z"/><g fill="#CFD8DC" fill-rule="evenodd"><path d="M13.96 1.46c.29-.3.76-.3 1.06 0l1 1c.84.84.84 2.21 0 3.06 -.26.25-.26.67 0 .93l1 1c.29.29.29.76 0 1.06 -.3.29-.77.29-1.07 0l-1-1c-.85-.85-.85-2.22 0-3.07 .25-.26.25-.68 0-.94l-1-1c-.3-.3-.3-.77 0-1.07Z"/><path d="M10.46 1.46c.29-.3.76-.3 1.06 0l1 1c.84.84.84 2.21 0 3.06 -.26.25-.26.67 0 .93l1 1c.29.29.29.76 0 1.06 -.3.29-.77.29-1.07 0l-1-1c-.85-.85-.85-2.22 0-3.07 .25-.26.25-.68 0-.94l-1-1c-.3-.3-.3-.77 0-1.07Z"/><path d="M6.96 1.46c.29-.3.76-.3 1.06 0l1 1c.84.84.84 2.21 0 3.06 -.26.25-.26.67 0 .93l.99 1c.29.29.29.76 0 1.06 -.3.29-.77.29-1.07 0l-1-1c-.85-.85-.85-2.22 0-3.07 .25-.26.25-.68 0-.94l-1-1c-.3-.3-.3-.77 0-1.07Z"/></g><g fill="#EE4D4D"><path d="M7 7.25c-.42 0-.75.33-.75.75v4c0 .41.33.75.75.75h10c.41 0 .75-.34.75-.75V8c0-.42-.34-.75-.75-.75H7Z"/><path d="M2 18.25c-.42 0-.75.33-.75.75v3c0 .41.33.75.75.75h20c.41 0 .75-.34.75-.75v-3c0-.42-.34-.75-.75-.75H2Z"/></g></svg>