<svg viewBox="0 0 24 24" xmlns="http://www.w3.org/2000/svg"><path fill="#ECEFF1" d="M7.89 1.73c-2.04 0-3.68 1.64-3.68 3.67V14c-.91.92-1.47 2.19-1.47 3.59 0 2.83 2.3 5.14 5.14 5.14 2.83 0 5.14-2.31 5.14-5.15 0-1.4-.56-2.67-1.47-3.6V5.37c0-2.04-1.65-3.68-3.68-3.68Z"/><path fill="#EE4D4D" d="M7.89 14.9c-1.5 0-2.71 1.2-2.71 2.7 0 1.49 1.2 2.7 2.7 2.7 1.49 0 2.7-1.21 2.7-2.71s-1.21-2.71-2.71-2.71Z"/><g fill="#4DC4FF" fill-rule="evenodd"><path d="M15.69 1.25c.41 0 .75.33.75.75v11.21c0 .41-.34.75-.75.75 -.42 0-.75-.34-.75-.75V1.99c0-.42.33-.75.75-.75Z"/><path d="M12.46 5.74c.2-.36.66-.49 1.02-.28l7.44 4.29c.35.2.48.66.27 1.02 -.21.35-.67.48-1.03.27l-7.45-4.3c-.36-.21-.49-.67-.28-1.03Z"/><path d="M12.28 9.57c.2.35.66.48 1.02.27l7.61-4.4c.35-.21.48-.67.27-1.03 -.21-.36-.67-.49-1.03-.28l-7.62 4.39c-.36.2-.49.66-.28 1.02Z"/></g></svg>