<svg viewBox="0 0 24 24" xmlns="http://www.w3.org/2000/svg"><path fill="#EE4D4D" d="M3 4.25c-.42 0-.75.33-.75.75v17c0 .41.33.75.75.75h18c.41 0 .75-.34.75-.75V5c0-.42-.34-.75-.75-.75H3Z"/><path fill="#F17171" d="M2 1.25c-.42 0-.75.33-.75.75v3c0 .41.33.75.75.75h20c.41 0 .75-.34.75-.75V2c0-.42-.34-.75-.75-.75H2Z"/><path fill="#ECEFF1" d="M10 8.25c-2.63 0-4.75 2.12-4.75 4.75v9c0 .41.33.75.75.75h12c.41 0 .75-.34.75-.75v-9c0-2.63-2.13-4.75-4.75-4.75h-4Z"/><path fill="#FF884D" d="M14.07 12.73c-.11-.29-.38-.48-.68-.49 -.31-.01-.59.16-.71.44l-1.24 2.77 -.55-.73c-.18-.23-.46-.35-.75-.29 -.29.05-.51.26-.59.53l-.44 1.59c-.58 2.09 1 4.15 3.17 4.15 2.29 0 3.89-2.3 3.08-4.45l-1.34-3.57Z"/></svg>