<svg viewBox="0 0 24 24" xmlns="http://www.w3.org/2000/svg"><path fill="#4DC4FF" d="M9.5 15.25c-2.15 0-4.12.34-5.59.93 -.74.29-1.38.65-1.85 1.1 -.48.44-.83 1.02-.83 1.71 0 .68.35 1.26.82 1.71 .47.44 1.11.81 1.84 1.1 1.46.58 3.43.93 5.58.93 2.14 0 4.11-.35 5.58-.94 .73-.3 1.37-.66 1.84-1.11 .47-.45.82-1.03.82-1.72s-.36-1.27-.83-1.72c-.48-.45-1.12-.82-1.85-1.11 -1.47-.59-3.44-.94-5.59-.94Z"/><g fill="#ECEFF1" fill-rule="evenodd"><path d="M11.5 2.25c.41 0 .75.33.75.75v16c0 .41-.34.75-.75.75 -.42 0-.75-.34-.75-.75V3c0-.42.33-.75.75-.75Z"/><path fill="#5E94FF" d="M10.57 1.38c.34-.24.8-.15 1.04.19l11 16c.23.34.14.8-.2 1.04 -.35.23-.81.14-1.05-.2l-11-16c-.24-.35-.15-.81.19-1.05Z"/></g><path fill="#4DC4FF" d="M17 11.25c-1.25 0-2.25 1-2.25 2.25 0 1.24 1 2.25 2.25 2.25 1.24 0 2.25-1.01 2.25-2.25 0-1.25-1.01-2.25-2.25-2.25Z"/></svg>