<svg viewBox="0 0 24 24" xmlns="http://www.w3.org/2000/svg"><g fill="#A2ADB8" fill-rule="evenodd"><path d="M4 15.25c.41 0 .75.33.75.75v4c0 .41-.34.75-.75.75 -.42 0-.75-.34-.75-.75v-4c0-.42.33-.75.75-.75Z"/><path d="M20 15.25c.41 0 .75.33.75.75v4c0 .41-.34.75-.75.75 -.42 0-.75-.34-.75-.75v-4c0-.42.33-.75.75-.75Z"/></g><path fill="#ECEFF1" d="M4 3.25C2.48 3.25 1.25 4.48 1.25 6v8c0 1.51 1.23 2.75 2.75 2.75h16c1.51 0 2.75-1.24 2.75-2.75V6c0-1.52-1.24-2.75-2.75-2.75H4Z"/><g fill="#EE4D4D" fill-rule="evenodd"><path d="M6 5.75c.41 0 .75.33.75.75v7c0 .41-.34.75-.75.75 -.42 0-.75-.34-.75-.75v-7c0-.42.33-.75.75-.75Z"/><path d="M9 5.75c.41 0 .75.33.75.75v7c0 .41-.34.75-.75.75 -.42 0-.75-.34-.75-.75v-7c0-.42.33-.75.75-.75Z"/><path d="M12 5.75c.41 0 .75.33.75.75v7c0 .41-.34.75-.75.75 -.42 0-.75-.34-.75-.75v-7c0-.42.33-.75.75-.75Z"/><path d="M15 5.75c.41 0 .75.33.75.75v7c0 .41-.34.75-.75.75 -.42 0-.75-.34-.75-.75v-7c0-.42.33-.75.75-.75Z"/><path d="M18 5.75c.41 0 .75.33.75.75v7c0 .41-.34.75-.75.75 -.42 0-.75-.34-.75-.75v-7c0-.42.33-.75.75-.75Z"/></g></svg>