<svg viewBox="0 0 24 24" xmlns="http://www.w3.org/2000/svg"><path fill="#EE4D4D" d="M9.27 3.25c-.11 0-.21.02-.3.06L5.18 4.92c-.2.08-.35.24-.42.44L1.27 15.663c-.14.38.07.8.45.94l2.36.85c.33.12.71-.02.9-.33l1.69-2.86v4.23c0 .41.33.75.75.75h9.09c.41 0 .75-.34.75-.75v-4.24l1.69 2.85c.18.3.56.44.9.32l2.36-.86c.38-.14.58-.56.45-.95L19.17 5.31c-.07-.21-.22-.37-.42-.45l-3.79-1.62c-.1-.04-.2-.07-.3-.07H9.2Z"/><g fill="#F17171" fill-rule="evenodd"><path d="M14.75 19.29v-3.3c0-.16-.06-.32-.15-.45l-1.14-1.55c-.15-.2-.37-.31-.61-.31h-1.73c-.24 0-.47.11-.61.3l-1.14 1.54c-.1.12-.15.28-.15.44v3.29h5.5Z"/><g fill="#ECEFF1"><path d="M10.63 5.52c.41 0 .75.33.75.75v4.09c0 .41-.34.75-.75.75 -.42 0-.75-.34-.75-.75v-4.1c0-.42.33-.75.74-.75Z"/><path d="M13.36 5.52c.41 0 .75.33.75.75v2.72c0 .41-.34.75-.75.75 -.42 0-.75-.34-.75-.75V6.26c0-.42.33-.75.75-.75Z"/></g></g></svg>