<svg viewBox="0 0 24 24" xmlns="http://www.w3.org/2000/svg"><g fill="#CFD8DC" fill-rule="evenodd"><path d="M9.96 1.46c.29-.3.76-.3 1.06 0l1.58 1.58c1.07 1.07 1.07 2.81 0 3.88l-.18.17c-.49.48-.49 1.27 0 1.76L14 10.43c.29.29.29.76 0 1.06 -.3.29-.77.29-1.07 0L11.34 9.9c-1.08-1.08-1.08-2.82 0-3.89l.17-.18c.48-.49.48-1.28 0-1.77L9.92 2.47c-.3-.3-.3-.77 0-1.07Z"/><path d="M3.46 1.46c.29-.3.76-.3 1.06 0L6.1 3.04c1.07 1.07 1.07 2.81 0 3.88l-.18.17c-.49.48-.49 1.27 0 1.76l1.58 1.58c.29.29.29.76 0 1.06 -.3.29-.77.29-1.07 0L4.84 9.9c-1.08-1.08-1.08-2.82 0-3.89l.17-.18c.48-.49.48-1.28 0-1.77L3.42 2.47c-.3-.3-.3-.77 0-1.07Z"/><path d="M16.46 1.46c.29-.3.76-.3 1.06 0l1.58 1.58c1.07 1.07 1.07 2.81 0 3.88l-.18.17c-.49.48-.49 1.27 0 1.76l1.58 1.58c.29.29.29.76 0 1.06 -.3.29-.77.29-1.07 0L17.84 9.9c-1.08-1.08-1.08-2.82 0-3.89l.17-.18c.48-.49.48-1.28 0-1.77l-1.59-1.59c-.3-.3-.3-.77 0-1.07Z"/></g><path fill="#5E94FF" d="M12 12.25c-2.85 0-5.46.51-7.38 1.38 -1.86.83-3.38 2.14-3.38 3.86 0 1.72 1.51 3.03 3.37 3.86 1.92.86 4.53 1.38 7.37 1.38s5.45-.52 7.37-1.39c1.85-.84 3.37-2.15 3.37-3.87 0-1.73-1.52-3.04-3.38-3.87 -1.93-.87-4.54-1.39-7.38-1.39Z"/></svg>