<svg viewBox="0 0 24 24" xmlns="http://www.w3.org/2000/svg"><path fill="#5E94FF" d="M4.03 1.41c.16-.13.37-.19.57-.16 .2.02.38.14.5.31L15.37 16.24h6.6c.41 0 .75.33.75.75v5c0 .41-.34.75-.75.75h-8c-.26 0-.49-.13-.63-.34l-12-18c-.22-.33-.15-.76.15-1.01l2.5-2Z"/><path fill="#8B98A6" d="M20 5.75c.41 0 .75.33.75.75V9c0 .46-.23.83-.5 1.11 -.27.27-.62.47-.99.63 -.75.32-1.73.5-2.78.5 -1.05 0-2.03-.18-2.78-.5 -.38-.16-.73-.37-.99-.64 -.28-.28-.5-.65-.5-1.12v-2.5c0-.42.33-.75.75-.75h7Z"/><path fill="#A2ADB8" d="M16.5 4.25c1.04 0 2.02.17 2.77.49 .37.15.72.36.98.63 .27.27.49.64.49 1.11 0 .46-.23.83-.5 1.11 -.27.27-.62.47-.99.63 -.75.32-1.73.49-2.78.49 -1.05 0-2.03-.18-2.78-.5 -.38-.16-.73-.37-.99-.64 -.28-.28-.5-.65-.5-1.12 0-.47.22-.84.49-1.12 .26-.28.61-.48.98-.64 .74-.33 1.72-.5 2.77-.5Z"/></svg>