<svg viewBox="0 0 24 24" xmlns="http://www.w3.org/2000/svg"><path fill="#4DC4FF" d="M9.12 1.58c-.16-.24-.44-.37-.73-.33 -.29.03-.53.23-.62.5l-3 8.99c-.03.07-.04.15-.04.23v3c0 .21.09.42.25.56l3.9 3.41 2.43 4.38c.19.35.65.49 1.01.29l3.69-2c.14-.08.25-.2.32-.35l2.8-6c.04-.1.07-.21.07-.32v-3c0-.12-.03-.24-.08-.34l-3-6c-.18-.35-.58-.51-.94-.37l-3.45 1.29 -2.67-4.01Z"/><path fill="#5E94FF" fill-rule="evenodd" d="M4.17 11.23c-.1-.1-.26-.1-.36 0l-1.3 1.29c-.3.29-.77.29-1.07 0 -.3-.3-.3-.77 0-1.07l1.29-1.3c.68-.69 1.79-.69 2.47 0l.58.58c.09.09.25.09.35 0l.58-.59c.68-.69 1.79-.69 2.47 0l.58.58c.09.09.25.09.35 0l.58-.59c.68-.69 1.79-.69 2.47 0l.58.58c.09.09.25.09.35 0l.58-.59c.68-.69 1.79-.69 2.47 0l.58.58c.09.09.25.09.35 0l.58-.59c.68-.69 1.79-.69 2.47 0l1.29 1.29c.29.29.29.76 0 1.06 -.3.29-.77.29-1.07 0l-1.3-1.3c-.1-.1-.26-.1-.36 0l-.59.58c-.69.68-1.8.68-2.48 0l-.59-.59c-.1-.1-.26-.1-.36 0l-.59.58c-.69.68-1.8.68-2.48 0l-.59-.59c-.1-.1-.26-.1-.36 0l-.59.58c-.69.68-1.8.68-2.48 0l-.59-.59c-.1-.1-.26-.1-.36 0l-.59.58c-.69.68-1.8.68-2.48 0l-.59-.59Z"/></svg>