<svg viewBox="0 0 24 24" xmlns="http://www.w3.org/2000/svg"><path fill="#EE4D4D" fill-rule="evenodd" d="M5 7.75c-.7 0-1.25.55-1.25 1.25v4c0 .69.55 1.25 1.25 1.25h2c.41 0 .75.33.75.75 0 .41-.34.75-.75.75H5c-1.52 0-2.75-1.24-2.75-2.75V9c0-1.52 1.23-2.75 2.75-2.75h1c.41 0 .75.33.75.75 0 .41-.34.75-.75.75H5ZM17.25 7c0-.42.33-.75.75-.75h1c1.51 0 2.75 1.23 2.75 2.75v4c0 1.51-1.24 2.75-2.75 2.75h-2c-.42 0-.75-.34-.75-.75 0-.42.33-.75.75-.75h2c.69 0 1.25-.56 1.25-1.25V9c0-.7-.56-1.25-1.25-1.25h-1c-.42 0-.75-.34-.75-.75Z"/><path fill="#ECEFF1" d="M7 7.25c-.42 0-.75.33-.75.75v10c0 .41.33.75.75.75h10c.41 0 .75-.34.75-.75V8c0-.42-.34-.75-.75-.75H7Z"/><g fill="#FF884D"><path d="M12 12l.55-.51c-.15-.16-.35-.25-.56-.25 -.22 0-.42.09-.56.24 0 0 0 0 .55.5Z"/><path d="M12 12l-.56-.51 -.01 0 -.01 0 -.02.01c-.02.01-.03.03-.06.05 -.05.05-.11.12-.19.21 -.15.17-.35.42-.55.7 -.2.27-.41.59-.58.91 -.16.29-.32.68-.32 1.08 0 1.24 1 2.25 2.25 2.25 1.24 0 2.25-1.01 2.25-2.25 0-.4-.17-.79-.32-1.09 -.17-.32-.38-.64-.58-.92 -.21-.28-.4-.53-.55-.71 -.08-.09-.14-.17-.19-.22 -.03-.03-.04-.05-.06-.06l-.02-.02 -.01-.01 -.01-.01s-.01-.01-.56.5Z"/></g><path fill="#EE4D4D" d="M5 17.25c-.42 0-.75.33-.75.75v4c0 .41.33.75.75.75h14c.41 0 .75-.34.75-.75v-4c0-.42-.34-.75-.75-.75H5Z"/><path fill="#F17171" d="M6 4.25c-.42 0-.75.33-.75.75v3c0 .41.33.75.75.75h12c.41 0 .75-.34.75-.75V5c0-.42-.34-.75-.75-.75H6Z"/><path fill="#EE4D4D" d="M7 1.25C5.48 1.25 4.25 2.48 4.25 4v1c0 .41.33.75.75.75h14c.41 0 .75-.34.75-.75V4c0-1.52-1.24-2.75-2.75-2.75H7Z"/></svg>