<svg viewBox="0 0 24 24" xmlns="http://www.w3.org/2000/svg"><path fill="#ECEFF1" d="M3 1.25c-.42 0-.75.33-.75.75v6c0 .41.33.75.75.75h11c.41 0 .75-.34.75-.75V2c0-.42-.34-.75-.75-.75H3Z"/><g fill="#FF884D" fill-rule="evenodd"><path d="M5.5 4.25c.41 0 .75.33.75.75v3c0 .41-.34.75-.75.75 -.42 0-.75-.34-.75-.75V5c0-.42.33-.75.75-.75Z"/><path d="M8.5 4.25c.41 0 .75.33.75.75v3c0 .41-.34.75-.75.75 -.42 0-.75-.34-.75-.75V5c0-.42.33-.75.75-.75Z"/><path d="M11.5 4.25c.41 0 .75.33.75.75v3c0 .41-.34.75-.75.75 -.42 0-.75-.34-.75-.75V5c0-.42.33-.75.75-.75Z"/></g><path fill="#FFC44D" d="M2 7.25c-.42 0-.75.33-.75.75v14c0 .41.33.75.75.75h13c.41 0 .75-.34.75-.75V8c0-.42-.34-.75-.75-.75H2Z"/><path fill="#EE4D4D" d="M10.57 10.73c-.11-.29-.38-.48-.68-.49 -.31-.01-.59.16-.71.44l-1.24 2.77 -.55-.73c-.18-.23-.46-.35-.75-.29 -.29.05-.51.26-.59.53l-.44 1.59c-.58 2.09 1 4.15 3.17 4.15 2.29 0 3.89-2.3 3.08-4.45l-1.34-3.57Z"/><path fill="#FFC44D" fill-rule="evenodd" d="M19.5 6.75c.41 0 .75.33.75.75V22c0 .41-.34.75-.75.75 -.42 0-.75-.34-.75-.75V7.5c0-.42.33-.75.75-.75Z"/><path fill="#FF884D" d="M19.5 3.25c-1.25 0-2.25 1-2.25 2.25 0 .58.22 1.23.57 1.73 .33.48.9 1.01 1.67 1.01 .77 0 1.34-.54 1.67-1.02 .34-.51.57-1.15.57-1.74 0-1.25-1.01-2.25-2.25-2.25Z"/></svg>