<svg viewBox="0 0 24 24" xmlns="http://www.w3.org/2000/svg"><path fill="#EE4D4D" d="M12.5 1.25C9.32 1.25 6.75 3.82 6.75 7v1c-1.94-.47-4 .97-4 3.16 0 1.08.54 2.09 1.44 2.7l2.55 1.7v1.43c0 .41.33.75.75.75h12c.41 0 .75-.34.75-.75v-10c0-3.18-2.58-5.75-5.75-5.75h-2Z"/><g fill="#ECEFF1" fill-rule="evenodd"><path d="M13.53 6.25c.41 0 .75.33.75.75v7c0 .41-.34.75-.75.75 -.42 0-.75-.34-.75-.75V7c0-.42.33-.75.75-.75Z"/><path d="M9.85 8.37c.2-.36.66-.49 1.02-.28l6.06 3.5c.35.2.48.66.27 1.02 -.21.35-.67.48-1.03.27l-6.07-3.5c-.36-.21-.49-.67-.28-1.03Z"/><path d="M17.21 8.37c-.21-.36-.67-.49-1.03-.28l-6.07 3.5c-.36.2-.49.66-.28 1.02 .2.35.66.48 1.02.27l6.06-3.5c.35-.21.48-.67.27-1.03Z"/></g><path fill="#ECEFF1" d="M6.5 16.25c-.42 0-.75.33-.75.75v5c0 .41.33.75.75.75h14c.41 0 .75-.34.75-.75v-5c0-.42-.34-.75-.75-.75h-14Z"/></svg>