<svg viewBox="0 0 24 24" xmlns="http://www.w3.org/2000/svg"><path fill="#CFD8DC" d="M10 5.25c-.42 0-.75.33-.75.75v16c0 .41.33.75.75.75h4c.41 0 .75-.34.75-.75V6c0-.42-.34-.75-.75-.75h-4Z"/><path fill="#EE4D4D" d="M12 1.25c-1.52 0-2.75 1.23-2.75 2.75 0 1.51 1.23 2.75 2.75 2.75 1.51 0 2.75-1.24 2.75-2.75 0-1.52-1.24-2.75-2.75-2.75Z"/><path fill="#FF884D" d="M5 8.25c-.42 0-.75.33-.75.75v2.5c0 .28.16.54.41.67l.65.32 -.66.32c-.26.12-.42.38-.42.67v1.5c0 .41.33.75.75.75h14c.41 0 .75-.34.75-.75v-2c0-.15-.05-.3-.13-.42l-.73-1.09 .72-1.09c.08-.13.12-.27.12-.42v-1c0-.42-.34-.75-.75-.75h-14Z"/></svg>