<svg viewBox="0 0 24 24" xmlns="http://www.w3.org/2000/svg"><g fill="#7EA9FF" fill-rule="evenodd"><path d="M22.53 7.46c.29.29.29.76 0 1.06l-4 3.99c-.3.29-.77.29-1.07 0 -.3-.3-.3-.77 0-1.07l4-4.01c.29-.3.76-.3 1.06 0Zm-6 6c.29.29.29.76 0 1.06l-2 2c-.3.29-.77.29-1.07 0 -.3-.3-.3-.77 0-1.07l2-2c.29-.3.76-.3 1.06 0Zm-4 4c.29.29.29.76 0 1.06l-4 4c-.3.29-.77.29-1.07 0 -.3-.3-.3-.77 0-1.07l4-4c.29-.3.76-.3 1.06 0Z"/><path d="M16.53 1.46c.29.29.29.76 0 1.06l-4 4c-.3.29-.77.29-1.07 0 -.3-.3-.3-.77 0-1.07l4-4c.29-.3.76-.3 1.06 0Zm-6 6c.29.29.29.76 0 1.06l-2 1.99c-.3.29-.77.29-1.07 0 -.3-.3-.3-.77 0-1.07l2-2c.29-.3.76-.3 1.06 0Zm-4 4c.29.29.29.76 0 1.06l-4 4c-.3.29-.77.29-1.07 0 -.3-.3-.3-.77 0-1.07l4-4c.29-.3.76-.3 1.06 0Z"/></g><path fill="#5E94FF" d="M6.46 2.46c.84-.85 2.21-.85 3.06 0l13 13c.29.29.29.76 0 1.06l-2 2c-.3.29-.77.29-1.07 0l-13-13c-.85-.85-.85-2.22 0-3.07Z"/><g fill="#CFD8DC" fill-rule="evenodd"><path d="M7.46 18.46c-.3.29-.3.76 0 1.06l3 3c.29.29.76.29 1.06 0 .29-.3.29-.77 0-1.07l-3-3c-.3-.3-.77-.3-1.07 0Z"/><path d="M1.46 12.46c-.3.29-.3.76 0 1.06l3 3c.29.29.76.29 1.06 0 .29-.3.29-.77 0-1.07l-3-3c-.3-.3-.77-.3-1.07 0Z"/></g><path fill="#5E94FF" d="M2.46 6.46c.84-.85 2.21-.85 3.06 0l13 13c.29.29.29.76 0 1.06l-2 2c-.3.29-.77.29-1.07 0l-13-13C1.6 8.67 1.6 7.3 2.44 6.45Z"/></svg>