<svg viewBox="0 0 24 24" xmlns="http://www.w3.org/2000/svg"><g fill="#CFD8DC" fill-rule="evenodd"><path d="M6 13.25c.41 0 .75.33.75.75v3c0 .41-.34.75-.75.75 -.42 0-.75-.34-.75-.75v-3c0-.42.33-.75.75-.75Z"/><path d="M15 13.25c.41 0 .75.33.75.75v3c0 .41-.34.75-.75.75 -.42 0-.75-.34-.75-.75v-3c0-.42.33-.75.75-.75Z"/><path fill="#FF884D" d="M22 12.25c.41 0 .75.33.75.75v1c0 2.07-1.68 3.75-3.75 3.75H2c-.42 0-.75-.34-.75-.75 0-.42.33-.75.75-.75h17c1.24 0 2.25-1.01 2.25-2.25v-1c0-.42.33-.75.75-.75Z"/></g><path fill="#EE4D4D" d="M2 6.25c-.42 0-.75.33-.75.75v4c0 2.07 1.67 3.75 3.75 3.75h11c2.07 0 3.75-1.68 3.75-3.75V8c0-.26-.14-.5-.35-.64 -.22-.14-.49-.16-.73-.05l-4.1 1.92h-4.28L7.5 6.44c-.15-.15-.34-.22-.54-.22h-5Z"/></svg>