<svg viewBox="0 0 24 24" xmlns="http://www.w3.org/2000/svg"><path fill="#EE4D4D" d="M12.53 6.46c-.3-.3-.77-.3-1.07 0l-7.01 7c-.15.14-.22.33-.22.53v8c0 .41.33.75.75.75h14c.41 0 .75-.34.75-.75v-8c0-.2-.08-.39-.22-.54l-7-7.01Z"/><g fill="#ECEFF1"><path d="M12.53 1.46c-.3-.3-.77-.3-1.07 0l-10 10c-.15.14-.22.33-.22.53v5c0 .3.18.57.46.69 .28.11.6.05.81-.17l4.71-4.72v.68c0 1.24 1 2.25 2.25 2.25 1.24 0 2.25-1.01 2.25-2.25V8.28l.25-.25 9.46 9.46c.21.21.53.27.81.16 .28-.12.46-.39.46-.7v-5c0-.2-.08-.39-.22-.54l-10-10Z"/><path d="M10 16.25c-.42 0-.75.33-.75.75v5c0 .41.33.75.75.75h4c.41 0 .75-.34.75-.75v-5c0-.42-.34-.75-.75-.75h-4Z"/></g></svg>