<svg viewBox="0 0 24 24" xmlns="http://www.w3.org/2000/svg"><g fill="#CFD8DC" fill-rule="evenodd"><path d="M9.32 5.32c.21-.11.46-.1.67.01l1.86 1c.36.19.5.65.3 1.01s-.66.5-1.02.3l-1.54-.83 -1.8.84c-.38.17-.83.01-1-.37 -.18-.38-.02-.83.36-1l2.13-1Z"/><path d="M2.14 15.47c.36-.2.81-.06 1.01.3l.78 1.47h5.55c.41 0 .74.33.74.75 0 .41-.34.75-.75.75h-6c-.28 0-.54-.16-.67-.4l-1-1.87c-.2-.37-.06-.82.3-1.02Z"/><path d="M13.25 9.5c0-.42.33-.75.75-.75h7c.41 0 .75.33.75.75 0 .41-.34.75-.75.75h-7c-.42 0-.75-.34-.75-.75Z"/></g><path fill="#5E94FF" d="M8.03 6.46c-.23-.23-.577-.29-.87-.15l-5 2.5c-.26.12-.42.38-.42.67v1.99c0 .17.06.35.18.48l3 3.5c.14.16.35.26.56.26h16c.41 0 .75-.34.75-.75v-3c0-.42-.34-.75-.75-.75h-8.69L8 6.42Z"/><path fill="#A2ADB8" d="M15 14.25c-1.52 0-2.75 1.23-2.75 2.75 0 1.51 1.23 2.75 2.75 2.75h5c1.51 0 2.75-1.24 2.75-2.75 0-1.52-1.24-2.75-2.75-2.75h-5Z"/></svg>