<svg viewBox="0 0 24 24" xmlns="http://www.w3.org/2000/svg"><path fill="#5E94FF" d="M16 7.25c-.42 0-.75.33-.75.75v6c0 .41.33.75.75.75h4c.32 0 .6-.21.71-.52l2-6.01c.07-.23.03-.49-.11-.68 -.15-.2-.37-.32-.61-.32h-6Z"/><g fill="#FFC44D" fill-rule="evenodd"><path d="M4 9.75c.41 0 .75.33.75.75V14c0 .19-.08.38-.22.53l-2 2c-.3.29-.77.29-1.07 0 -.3-.3-.3-.77 0-1.07l1.78-1.79v-3.19c0-.42.33-.75.75-.75Z"/><path d="M3.25 13c0-.42.33-.75.75-.75h3c.41 0 .75.33.75.75 0 .41-.34.75-.75.75H4c-.42 0-.75-.34-.75-.75Z"/></g><path fill="#ECEFF1" d="M11.22 6.75c-.76 0-1.43.48-1.67 1.19l-.61 1.8H6.98c-.42 0-.75.33-.75.75v5c0 .41.33.75.75.75h9c.41 0 .75-.34.75-.75v-8c0-.42-.34-.75-.75-.75H11.2Z"/><g fill="#CFD8DC"><path d="M10.5 13.25c-1.25 0-2.25 1-2.25 2.25 0 1.24 1 2.25 2.25 2.25 1.24 0 2.25-1.01 2.25-2.25 0-1.25-1.01-2.25-2.25-2.25Z"/><path d="M16 13.25c-1.25 0-2.25 1-2.25 2.25 0 1.24 1 2.25 2.25 2.25h3.5c1.24 0 2.25-1.01 2.25-2.25 0-1.25-1.01-2.25-2.25-2.25H16Z"/></g></svg>