<svg viewBox="0 0 24 24" xmlns="http://www.w3.org/2000/svg"><path fill="#4DC4FF" d="M9.61 5.56c-.15-.21-.4-.33-.65-.32 -.26.01-.49.15-.62.37l-7 12c-.14.23-.14.51-.01.75 .13.23.38.37.65.37h20c.26 0 .51-.15.64-.38 .13-.24.13-.52 0-.75l-4-7c-.2-.35-.64-.48-.99-.3l-3.43 1.71 -4.63-6.48Z"/><g fill="#71D0FF" fill-rule="evenodd"><path d="M18.91 18.75l-.18-.9c-.01-.02-.01-.03-.01-.04l-1-4c-.08-.29-.3-.5-.58-.56 -.29-.06-.58.05-.75.28l-3 3.99 -.97 1.2h6.47Z"/><path d="M9.78 5.8l-.18-.25c-.15-.21-.4-.33-.65-.32 -.26.01-.49.15-.62.37l-7 12c-.14.23-.14.51-.01.75 .13.23.38.37.65.37h5.4l2.22-3.34c.14-.23.16-.52.04-.76l-.9-1.8 1-7.07Z"/></g></svg>