<svg viewBox="0 0 24 24" xmlns="http://www.w3.org/2000/svg"><path fill="#5E94FF" d="M11.1 1.25c-3.38 0-6.19 2.53-6.4 5.78 -1.69.32-2.99 1.76-2.99 3.53 0 2.02 1.69 3.6 3.72 3.6h11.9c.54 0 1.07-.12 1.54-.33 1.95-.72 3.37-2.55 3.37-4.72 0-2.81-2.37-5.04-5.22-5.04 -.18 0-.36 0-.54.02 -1.14-1.74-3.15-2.89-5.42-2.89Z"/><g fill="#4DC4FF" fill-rule="evenodd"><path d="M15.96 16.48c.41 0 .75.33.75.75v4.76c0 .41-.34.75-.75.75 -.42 0-.75-.34-.75-.75v-4.77c0-.42.33-.75.75-.75Z"/><path d="M13.25 18.05c.2-.36.66-.49 1.02-.28l4.12 2.38c.35.2.48.66.27 1.02 -.21.35-.67.48-1.03.27l-4.13-2.39c-.36-.21-.49-.67-.28-1.03Z"/><path d="M18.67 18.05c-.21-.36-.67-.49-1.03-.28l-4.13 2.38c-.36.2-.49.66-.28 1.02 .2.35.66.48 1.02.27l4.12-2.39c.35-.21.48-.67.27-1.03Z"/><path d="M8.34 15.05c.41 0 .75.33.75.75v4.76c0 .41-.34.75-.75.75 -.42 0-.75-.34-.75-.75v-4.77c0-.42.33-.75.75-.75Z"/><path d="M5.63 16.625c.2-.36.66-.49 1.02-.28l4.12 2.38c.35.2.48.66.27 1.02 -.21.35-.67.48-1.03.27l-4.13-2.39c-.36-.21-.49-.67-.28-1.03Z"/><path d="M11.05 16.625c-.21-.36-.67-.49-1.03-.28l-4.13 2.38c-.36.2-.49.66-.28 1.02 .2.35.66.48 1.02.27l4.12-2.39c.35-.21.48-.67.27-1.03Z"/></g></svg>