<svg viewBox="0 0 24 24" xmlns="http://www.w3.org/2000/svg"><path fill="#EE4D4D" d="M14 1.75c-.42 0-.75.33-.75.75v7.64l-5.67 4.71 -2.77 1.38c-.97.48-1.57 1.46-1.57 2.53 0 1.35.95 2.51 2.28 2.78l1.89.37c1.07.21 2.19.08 3.2-.37l8.5-3.87c.98-.45 1.61-1.43 1.61-2.51V2.44c0-.42-.34-.75-.75-.75h-6Z"/><g fill="#ECEFF1" fill-rule="evenodd"><path d="M13.25 4.75h7.5v1.5h-7.5v-1.5Z"/><path d="M20.75 11.75H20h-1.5c-1.8 0-3.25 1.45-3.25 3.25v4.48l1.5-.69v-3.81c0-.97.78-1.75 1.75-1.75H20h.75v-1.5Z"/></g></svg>