<svg viewBox="0 0 24 24" xmlns="http://www.w3.org/2000/svg"><path fill="#EE4D4D" d="M9.27 1.25c-.15 0-.3.04-.42.12L5.06 3.92c-.14.09-.24.22-.29.37L1.28 14.2c-.07.18-.06.39.03.57 .08.17.24.31.42.38l2.36.82c.32.11.68-.01.87-.3l1.75-2.7v3.98c0 .41.33.75.75.75h9c.41 0 .75-.34.75-.75v-3.99l1.75 2.69c.18.28.54.41.87.29l2.36-.83c.18-.07.34-.21.42-.39 .08-.18.09-.39.03-.58l-3.49-9.92c-.06-.16-.16-.29-.29-.38l-3.79-2.56c-.13-.09-.27-.13-.42-.13H9.19Z"/><g fill="#ECEFF1"><path d="M7.5 16.25c-.42 0-.75.33-.75.75v3.5c0 .41.33.75.75.75h9c.41 0 .75-.34.75-.75V17c0-.42-.34-.75-.75-.75h-9Z"/><path d="M10 1.25c-.42 0-.75.33-.75.75v1c0 1.51 1.23 2.75 2.75 2.75 1.51 0 2.75-1.24 2.75-2.75V2c0-.42-.34-.75-.75-.75h-4Z"/></g></svg>