<svg viewBox="0 0 24 24" xmlns="http://www.w3.org/2000/svg"><path fill="#ECEFF1" d="M10 1.25C7.92 1.25 6.25 2.92 6.25 5v8.82c-.93.94-1.5 2.24-1.5 3.67 0 2.89 2.35 5.25 5.25 5.25 2.89 0 5.25-2.36 5.25-5.25 0-1.44-.58-2.73-1.5-3.68V4.98c0-2.08-1.68-3.75-3.75-3.75Z"/><g fill="#EE4D4D"><path d="M10 14.75c-1.52 0-2.75 1.23-2.75 2.75 0 1.51 1.23 2.75 2.75 2.75 1.51 0 2.75-1.24 2.75-2.75 0-1.52-1.24-2.75-2.75-2.75Z"/><path fill="#EE4D4D" fill-rule="evenodd" d="M10 11.25c.41 0 .75.33.75.75v3.5c0 .41-.34.75-.75.75 -.42 0-.75-.34-.75-.75V12c0-.42.33-.75.75-.75Z"/></g><g fill="#5E94FF" fill-rule="evenodd"><path d="M15.46 5.46c.29-.3.76-.3 1.06 0l1.46 1.46 1.46-1.47c.29-.3.76-.3 1.06 0 .29.29.29.76 0 1.06l-2 2c-.3.29-.77.29-1.07 0l-2-2c-.3-.3-.3-.77 0-1.07Z"/><path d="M18 1.25c.41 0 .75.33.75.75v6c0 .41-.34.75-.75.75 -.42 0-.75-.34-.75-.75V2c0-.42.33-.75.75-.75Z"/></g></svg>