<svg viewBox="0 0 24 24" xmlns="http://www.w3.org/2000/svg"><path fill="#4DC4FF" d="M2 3.25c-.42 0-.75.33-.75.75v4.03c0 .37.27.68.64.74 1.33.19 2.35 1.33 2.35 2.72 0 1.38-1.03 2.53-2.36 2.72 -.37.05-.65.36-.65.74v4.03c0 .41.33.75.75.75h20c.41 0 .75-.34.75-.75v-4.04c0-.22-.1-.43-.26-.57 -.17-.15-.39-.21-.6-.18 -.13.01-.26.02-.4.02 -1.52 0-2.75-1.24-2.75-2.75 0-1.52 1.23-2.75 2.75-2.75 .13 0 .26 0 .39.02 .21.03.43-.04.59-.18 .16-.15.25-.35.25-.57V3.94c0-.42-.34-.75-.75-.75h-20Z"/><g fill="#ECEFF1" fill-rule="evenodd"><path d="M12 6.75c.41 0 .75.33.75.75v8c0 .41-.34.75-.75.75 -.42 0-.75-.34-.75-.75v-8c0-.42.33-.75.75-.75Z"/><path d="M7.88 9.12c.2-.36.66-.49 1.02-.28l6.92 4c.35.2.48.66.27 1.02 -.21.35-.67.48-1.03.27l-6.93-4c-.36-.21-.49-.67-.28-1.03Z"/><path d="M16.11 9.12c-.21-.36-.67-.49-1.03-.28l-6.93 4c-.36.2-.49.66-.28 1.02 .2.35.66.48 1.02.27l6.92-4c.35-.21.48-.67.27-1.03Z"/></g></svg>