<svg viewBox="0 0 24 24" xmlns="http://www.w3.org/2000/svg"><path fill="#ECEFF1" d="M2 8.25c-.42 0-.75.33-.75.75v13c0 .41.33.75.75.75h20c.41 0 .75-.34.75-.75V9c0-.42-.34-.75-.75-.75H2Z"/><path fill="#5E94FF" d="M2 3.25c-.42 0-.75.33-.75.75v5c0 .41.33.75.75.75h20c.41 0 .75-.34.75-.75V4c0-.42-.34-.75-.75-.75H2Z"/><g fill="#ECEFF1" fill-rule="evenodd"><path d="M7 1.25c.41 0 .75.33.75.75v4c0 .41-.34.75-.75.75 -.42 0-.75-.34-.75-.75V2c0-.42.33-.75.75-.75Z"/><path d="M17 1.25c.41 0 .75.33.75.75v4c0 .41-.34.75-.75.75 -.42 0-.75-.34-.75-.75V2c0-.42.33-.75.75-.75Z"/><g fill="#4DC4FF"><path d="M12 11.25c.41 0 .75.33.75.75v7c0 .41-.34.75-.75.75 -.42 0-.75-.34-.75-.75v-7c0-.42.33-.75.75-.75Z"/><path d="M8.31 13.37c.2-.36.66-.49 1.02-.28l6.06 3.5c.35.2.48.66.27 1.02 -.21.35-.67.48-1.03.27l-6.07-3.5c-.36-.21-.49-.67-.28-1.03Z"/><path d="M15.68 13.37c-.21-.36-.67-.49-1.03-.28l-6.07 3.5c-.36.2-.49.66-.28 1.02 .2.35.66.48 1.02.27l6.06-3.5c.35-.21.48-.67.27-1.03Z"/></g></g></svg>