<svg viewBox="0 0 24 24" xmlns="http://www.w3.org/2000/svg"><path fill="#7EA9FF" d="M10.5 5.25c-4.01 0-7.25 3.24-7.25 7.25v.5c0 .41.33.75.75.75h16c.41 0 .75-.34.75-.75v-.5c0-4.01-3.25-7.25-7.25-7.25h-3Z"/><path fill="#5E94FF" d="M12 1.25c-1.52 0-2.75 1.23-2.75 2.75 0 1.51 1.23 2.75 2.75 2.75 1.51 0 2.75-1.24 2.75-2.75 0-1.52-1.24-2.75-2.75-2.75Z"/><g fill="#CFD8DC"><path d="M4 16.25c-.42 0-.75.33-.75.75v3c0 1.51 1.23 2.75 2.75 2.75 1.51 0 2.75-1.24 2.75-2.75v-3c0-.42-.34-.75-.75-.75H4Z"/><path d="M16 16.25c-.42 0-.75.33-.75.75v3c0 1.51 1.23 2.75 2.75 2.75 1.51 0 2.75-1.24 2.75-2.75v-3c0-.42-.34-.75-.75-.75h-4Z"/></g><path fill="#5E94FF" d="M4 12.25c-1.52 0-2.75 1.23-2.75 2.75 0 1.51 1.23 2.75 2.75 2.75h16c1.51 0 2.75-1.24 2.75-2.75 0-1.52-1.24-2.75-2.75-2.75H4Z"/></svg>