<svg viewBox="0 0 24 24" xmlns="http://www.w3.org/2000/svg"><path fill="#F17171" d="M6.25 1.45c-1.62-.16-3.01 1.11-3.01 2.73v1.8c0 .41.33.75.75.75h16c.41 0 .75-.34.75-.75V5.3c0-1.42-1.09-2.61-2.5-2.74l-12-1.125Z"/><g fill="#ECEFF1" fill-rule="evenodd"><path d="M6 18.25c.41 0 .75.33.75.75v3c0 .41-.34.75-.75.75 -.42 0-.75-.34-.75-.75v-3c0-.42.33-.75.75-.75Z"/><path d="M9 18.25c.41 0 .75.33.75.75v3c0 .41-.34.75-.75.75 -.42 0-.75-.34-.75-.75v-3c0-.42.33-.75.75-.75Z"/><path d="M12 18.25c.41 0 .75.33.75.75v3c0 .41-.34.75-.75.75 -.42 0-.75-.34-.75-.75v-3c0-.42.33-.75.75-.75Z"/></g><path fill="#F17171" d="M6 9.25c-.42 0-.75.33-.75.75v9c0 .41.33.75.75.75h6c.41 0 .75-.34.75-.75v-9c0-.42-.34-.75-.75-.75H6Z"/><path fill="#EE4D4D" d="M3 5.25c-.97 0-1.75.78-1.75 1.75v2c0 .96.78 1.75 1.75 1.75h18c.96 0 1.75-.79 1.75-1.75V7c0-.97-.79-1.75-1.75-1.75H3Z"/></svg>