<svg viewBox="0 0 24 24" xmlns="http://www.w3.org/2000/svg"><path fill="#ECEFF1" d="M13 1.25c-.2 0-.39.07-.54.21l-11 11c-.3.29-.3.76-.001 1.06l9 9c.29.29.76.29 1.06 0l11-11c.14-.15.21-.34.21-.54v-9c0-.42-.34-.75-.75-.75h-9Z"/><g fill="#4DC4FF" fill-rule="evenodd"><path d="M12.03 7.25c.41 0 .75.33.75.75v7c0 .41-.34.75-.75.75 -.42 0-.75-.34-.75-.75V8c0-.42.33-.75.75-.75Z"/><path d="M8.35 9.37c.2-.36.66-.49 1.02-.28l6.06 3.5c.35.2.48.66.27 1.02 -.21.35-.67.48-1.03.27l-6.07-3.5c-.36-.21-.49-.67-.28-1.03Z"/><path d="M15.71 9.37c-.21-.36-.67-.49-1.03-.28l-6.07 3.5c-.36.2-.49.66-.28 1.02 .2.35.66.48 1.02.27l6.06-3.5c.35-.21.48-.67.27-1.03Z"/></g></svg>