<svg viewBox="0 0 24 24" xmlns="http://www.w3.org/2000/svg"><g fill="#3747D6" fill-rule="evenodd"><path d="M7.29 6.29c.18-.19.44-.3.7-.3h4c.55 0 1 .44 1 1v8c0 .55-.45 1-1 1h-4v-2h3v-6H8.4l-2.71 2.7c-.19.18-.45.29-.71.29h-2v3h1v2h-2c-.56 0-1-.45-1-1v-4c0-1.11.89-2 2-2h1.58l2.7-2.71Z"/><path d="M23 10c0-.56-.45-1-1-1H12c-.56 0-1 .44-1 1v5c0 .55.44 1 1 1h3v-2h-2v-3h8v2.27l-2.32.77 .63 1.89 3-1c.4-.14.68-.52.68-.95v-4Z"/><g fill="#9545ED"><path d="M6 14c-.56 0-1 .44-1 1 0 .55.44 1 1 1 .55 0 1-.45 1-1 0-.56-.45-1-1-1Zm-3 1c0-1.66 1.34-3 3-3 1.65 0 3 1.34 3 3 0 1.65-1.35 3-3 3 -1.66 0-3-1.35-3-3Z"/><path d="M17 14c-.56 0-1 .44-1 1 0 .55.44 1 1 1 .55 0 1-.45 1-1 0-.56-.45-1-1-1Zm-3 1c0-1.66 1.34-3 3-3 1.65 0 3 1.34 3 3 0 1.65-1.35 3-3 3 -1.66 0-3-1.35-3-3Z"/></g></g></svg>