<svg viewBox="0 0 24 24" xmlns="http://www.w3.org/2000/svg"><g fill="#3747D6" fill-rule="evenodd"><path d="M4.52 4.17c.15-1.23 1.2-2.18 2.47-2.18 1.27 0 2.32.95 2.47 2.17 .79-.14 1.64.15 2.17.86 .66.89.57 2.13-.21 2.92l-1.51 1.5 -.96 6.67c-.08.49-.5.85-.99.85h-2c-.5 0-.92-.37-.99-.86l-.96-6.67L2.5 7.92c-.79-.79-.88-2.04-.21-2.93 .52-.71 1.37-1.01 2.17-.87Zm2.47-.18c-.28 0-.5.22-.5.5v1.5c0 .4-.25.76-.62.92 -.38.15-.81.06-1.09-.22l-.5-.5c-.11-.11-.28-.1-.36.02 -.08.09-.07.22.02.31l1.74 1.74c.15.15.25.35.28.56l.87 6.14h.26l.87-6.15c.03-.22.12-.42.28-.57l1.74-1.75c.08-.09.09-.22.02-.32 -.09-.12-.26-.13-.36-.03l-.5.49c-.29.28-.72.37-1.09.21 -.38-.16-.62-.52-.62-.93v-1.5c0-.28-.23-.5-.5-.5Z"/><path d="M14.52 4.17c.15-1.23 1.2-2.18 2.47-2.18 1.27 0 2.32.95 2.47 2.17 .79-.14 1.64.15 2.17.86 .66.89.57 2.13-.21 2.92l-1.51 1.5 -.96 6.67c-.08.49-.5.85-.99.85h-2c-.5 0-.92-.37-.99-.86l-.96-6.67 -1.51-1.51c-.79-.79-.88-2.04-.21-2.93 .52-.71 1.37-1.01 2.17-.87Zm2.47-.18c-.28 0-.5.22-.5.5v1.5c0 .4-.25.76-.62.92 -.38.15-.81.06-1.09-.22l-.5-.5c-.11-.11-.28-.1-.36.02 -.08.09-.07.22.02.31l1.74 1.74c.15.15.25.35.28.56l.87 6.14h.26l.87-6.15c.03-.22.12-.42.28-.57l1.74-1.75c.08-.09.09-.22.02-.32 -.09-.12-.26-.13-.36-.03l-.5.49c-.29.28-.72.37-1.09.21 -.38-.16-.62-.52-.62-.93v-1.5c0-.28-.23-.5-.5-.5Z"/><g fill="#9545ED"><path d="M2.5 18.5C2.5 16.56 4.06 15 6 15h2c1.93 0 3.5 1.56 3.5 3.5V21c0 .55-.45 1-1 1h-7c-.56 0-1-.45-1-1v-2.5ZM6 17c-.83 0-1.5.67-1.5 1.5V20h5v-1.5c0-.83-.68-1.5-1.5-1.5H6Z"/><path d="M12.5 18.5c0-1.94 1.56-3.5 3.5-3.5h2c1.93 0 3.5 1.56 3.5 3.5V21c0 .55-.45 1-1 1h-7c-.56 0-1-.45-1-1v-2.5ZM16 17c-.83 0-1.5.67-1.5 1.5V20h5v-1.5c0-.83-.68-1.5-1.5-1.5h-2Z"/></g><path d="M22 22H2v-2h20v2Z"/></g></svg>