<svg viewBox="0 0 24 24" xmlns="http://www.w3.org/2000/svg"><g fill="#9545ED" fill-rule="evenodd"><path d="M8.5 4h7v1c0 1.93-1.57 3.5-3.5 3.5 -1.94 0-3.5-1.57-3.5-3.5V4Zm2.38 2c.27.3.67.5 1.11.5 .44 0 .84-.2 1.11-.5h-2.24Z"/><path d="M11 22v-4h2v4h-2Z"/><path d="M2 9h4v2H2V9Zm20 2h-4V9h4v2Z"/><g fill="#3747D6"><path d="M5 9c0-.56.44-1 1-1h12c.55 0 1 .44 1 1v4c0 .55-.45 1-1 1h-2v4c0 .55-.45 1-1 1H9c-.56 0-1-.45-1-1v-4H6c-.56 0-1-.45-1-1V9Zm2 1v2h2c.55 0 1 .44 1 1v4h4v-4c0-.56.44-1 1-1h2v-2H7Z"/><path d="M11.48 1.14c.31-.2.71-.2 1.029 0l5 3c.38.23.56.69.44 1.12 -.12.43-.52.73-.97.73h-10c-.45 0-.85-.3-.97-.74s.06-.9.44-1.13l5-3Zm-.88 2.85h2.77l-1.39-.84 -1.39.83Z"/></g></g></svg>