<svg viewBox="0 0 24 24" xmlns="http://www.w3.org/2000/svg"><g fill="#9545ED" fill-rule="evenodd"><path d="M9 10v9c0 1.1.89 2 2 2h2c1.1 0 2-.9 2-2v-9h2v9c0 2.2-1.8 4-4 4h-2c-2.21 0-4-1.8-4-4v-9h2Z"/><g fill="#3747D6"><path d="M12 3c-1.27 0-2.35.77-2.79 1.88 -.17.41-.59.66-1.03.62 -.07-.01-.13-.01-.2-.01 -1.11 0-2 .89-2 2 0 1.1.89 2 2 2 .26 0 .5-.05.73-.14 .26-.11.56-.1.81.03 .25.12.44.35.51.63 .23.84 1 1.47 1.93 1.47 .92 0 1.69-.63 1.93-1.48 .07-.28.26-.51.51-.64s.55-.15.81-.04c.22.08.47.13.73.13 1.1 0 2-.9 2-2 0-1.11-.9-2-2-2 -.07 0-.13 0-.2 0 -.45.04-.86-.22-1.03-.63 -.45-1.11-1.53-1.89-2.79-1.89Zm-4.34.51C8.52 2 10.14.99 11.99.99c1.85 0 3.47 1.01 4.33 2.51 2.05.17 3.66 1.89 3.66 3.98 0 2.2-1.8 4-4 4 -.18 0-.35-.02-.52-.04 -.69 1.21-1.99 2.03-3.49 2.03 -1.5 0-2.8-.82-3.49-2.04 -.17.02-.35.03-.52.03 -2.21 0-4-1.8-4-4 0-2.1 1.61-3.82 3.66-3.99Z"/><path d="M22 13c0-1.66-1.35-3-3-3h-3c-.56 0-1 .44-1 1v1c0 1.65 1.34 3 3 3h3c.55 0 1-.45 1-1v-1Zm-3-1c.55 0 1 .44 1 1h-2c-.56 0-1-.45-1-1h2Z"/><path d="M2 13c0-1.66 1.34-3 3-3h3c.55 0 1 .44 1 1v1c0 1.65-1.35 3-3 3H3c-.56 0-1-.45-1-1v-1Zm3-1c-.56 0-1 .44-1 1h2c.55 0 1-.45 1-1H5Z"/><path d="M13 17.5v2h-2v-2h2Z"/></g></g></svg>