<svg viewBox="0 0 24 24" xmlns="http://www.w3.org/2000/svg"><g fill="#9545ED" fill-rule="evenodd"><path d="M11 22v-7h2v7h-2Z"/><g fill="#3747D6"><path d="M4 8c0-.56.44-1 1-1h14c.55 0 1 .44 1 1 0 4.41-3.59 8-8 8 -4.42 0-8-3.59-8-8Zm2.08 1c.47 2.83 2.94 5 5.91 5s5.44-2.17 5.91-5H6.06Z"/><path d="M14 8c0 .55.44 1 1 1h7c.55 0 1-.45 1-1V2c0-.56-.45-1-1-1 -4.27 0-8 2.99-8 7Zm2.12-1c.48-1.95 2.35-3.59 4.87-3.94v3.93h-4.88Z"/><path d="M4 4c0-1.66 1.34-3 3-3 1.65 0 3 1.34 3 3v4c0 .55-.45 1-1 1H5c-.56 0-1-.45-1-1V4Zm3-1c-.56 0-1 .44-1 1v3h2V4c0-.56-.45-1-1-1Z"/><path d="M3 4h2v2H3V4Z"/><path d="M1.29 18.29l3-3L5.7 16.7l-2.3 2.29 2.29 2.29 -1.42 1.41 -3-3c-.4-.4-.4-1.03 0-1.42Z"/><path d="M18.29 18.29l3-3 1.41 1.41 -2.3 2.29 2.29 2.29 -1.42 1.41 -3-3c-.4-.4-.4-1.03 0-1.42Z"/><path d="M19 20H3v-2h16v2Z"/></g></g></svg>