<svg viewBox="0 0 24 24" xmlns="http://www.w3.org/2000/svg"><g fill="#9545ED" fill-rule="evenodd"><path d="M11 21.99v-16h2v15.99h-2Z"/><g fill="#3747D6"><path d="M19 11H2V9h17v2Z"/><path d="M1.29 9.29l3-3L5.7 7.7 3.4 9.99l2.29 2.29 -1.42 1.41 -3-3c-.4-.4-.4-1.03 0-1.42Z"/><path d="M18.29 9.29l3-3L22.7 7.7l-2.3 2.29 2.29 2.29 -1.42 1.41 -3-3c-.4-.4-.4-1.03 0-1.42Z"/><path d="M14.29 9.29l3-3L18.7 7.7l-2.3 2.29 2.29 2.29 -1.42 1.41 -3-3c-.4-.4-.4-1.03 0-1.42Z"/><path d="M12 3c-.56 0-1 .44-1 1 0 .55.44 1 1 1 .55 0 1-.45 1-1 0-.56-.45-1-1-1ZM9 4c0-1.66 1.34-3 3-3 1.65 0 3 1.34 3 3 0 1.65-1.35 3-3 3 -1.66 0-3-1.35-3-3Z"/></g></g></svg>