<svg viewBox="0 0 24 24" xmlns="http://www.w3.org/2000/svg"><g fill="#9545ED" fill-rule="evenodd"><path d="M6.12 3.5c.3.03.57.21.73.47l1.5 2.5c.23.39.17.89-.16 1.22l-3 2.99c-.33.32-.83.38-1.23.15l-2.5-1.51c-.27-.16-.45-.43-.48-.74 -.04-.31.06-.62.28-.83l4-4c.21-.22.52-.33.82-.29ZM3.61 8.29l.73.43 1.89-1.9 -.44-.74L3.6 8.26Z"/><path d="M6.29 6.79c.39-.4 1.02-.4 1.41 0l3.99 4c.18.18.29.44.29.7v4c0 .4-.25.76-.62.92 -.38.15-.81.06-1.09-.22l-6.01-6c-.19-.19-.3-.45-.3-.71 0-.27.1-.52.29-.71l2-2Zm.12 2.7l3.58 3.58v-1.18l-3-3 -.59.58Z"/><path d="M14 4.5c-.56 0-1 .44-1 1v1h-2v-1c0-1.66 1.34-3 3-3h6c1.65 0 3 1.34 3 3v9.17c0 .79-.32 1.55-.88 2.12L19.7 19.2l-1.42-1.42 2.41-2.42c.18-.19.29-.45.29-.71V5.47c0-.56-.45-1-1-1h-6Z"/><path fill="#3747D6" d="M10 6.5c0-.56.44-1 1-1h8c.55 0 1 .44 1 1v14c0 .55-.45 1-1 1h-8c-.56 0-1-.45-1-1v-14Zm2 1v12h6v-12h-6Z"/></g></svg>