<svg viewBox="0 0 24 24" xmlns="http://www.w3.org/2000/svg"><g fill="#9545ED" fill-rule="evenodd"><path d="M16.7 7.29c.22.22.32.53.28.84l-.58 4.03c-.32 2.19-2.05 3.92-4.25 4.24l-4.04.57c-.32.04-.63-.07-.85-.29 -.23-.23-.33-.54-.29-.85l.57-4.04c.31-2.2 2.04-3.93 4.24-4.25l4.03-.58c.31-.05.62.06.84.28Zm-1.89 1.88l-2.72.38c-1.32.18-2.36 1.22-2.55 2.54l-.39 2.71 2.71-.39c1.32-.19 2.35-1.23 2.54-2.55l.38-2.72Z"/><g fill="#3747D6"><path d="M14.39 10.94l-1 2c-.1.19-.26.35-.45.44l-2 1 -.9-1.79 1.7-.86 .85-1.71 1.78.89Z"/><path d="M3.18 1.41c.18-.27.48-.42.81-.42h16c.32 0 .62.15.81.41 .18.26.23.59.13.9l-.95 2.84V18.6l.95 3.07c.09.3.03.63-.15.88 -.19.25-.49.4-.81.4h-16c-.33 0-.63-.16-.82-.42 -.19-.27-.24-.6-.14-.91l.94-2.85V5.09L3 2.24c-.11-.31-.06-.65.13-.91Zm2.19 1.58l.56 1.68c.03.1.05.2.05.31v14c0 .1-.02.21-.06.31l-.57 1.68H18.6l-.6-1.93c-.03-.1-.05-.2-.05-.3V4.96c0-.11.01-.22.05-.32l.56-1.69H5.33Z"/></g></g></svg>