<svg viewBox="0 0 24 24" xmlns="http://www.w3.org/2000/svg"><g fill-rule="evenodd"><path d="M4 11.5c.22 0 .42.15.48.37l2 8c.03.14 0 .3-.1.42s-.25.19-.4.19h-4c-.16 0-.3-.08-.4-.2 -.1-.13-.13-.28-.1-.43l2-8c.05-.23.25-.38.48-.38Zm-1.36 8h2.71l-1.36-5.44 -1.36 5.43Z"/><path d="M12 6.5c.24 0 .45.18.49.42l2 13c.02.14-.02.29-.12.4 -.1.11-.24.17-.38.17h-4c-.15 0-.29-.07-.38-.18 -.1-.12-.14-.26-.12-.41l1.99-13c.03-.25.24-.43.49-.43Zm-1.42 13h2.83l-1.42-9.22 -1.42 9.21Z"/><path d="M20 3.5c.25 0 .46.18.49.43l2 16c.01.14-.03.28-.13.39 -.1.1-.24.16-.38.16h-4c-.15 0-.28-.07-.38-.17 -.1-.11-.14-.26-.13-.4l2-16c.03-.26.24-.44.49-.44Zm-1.44 16h2.86L19.98 8.03l-1.44 11.46Z"/></g></svg>