<svg viewBox="0 0 24 24" xmlns="http://www.w3.org/2000/svg"><g fill-rule="evenodd"><path d="M1.5 3c0-.83.67-1.5 1.5-1.5h6c.82 0 1.5.67 1.5 1.5v.88l.94 1.89c.07.14.07.3 0 .44l-.95 1.89v.88c0 .82-.68 1.5-1.5 1.5h-6c-.83 0-1.5-.68-1.5-1.5v-6ZM3 2.5c-.28 0-.5.22-.5.5v6c0 .27.22.5.5.5h6c.27 0 .5-.23.5-.5V8c0-.08.01-.16.05-.23l.88-1.78 -.89-1.78c-.04-.07-.06-.15-.06-.23v-1c0-.28-.23-.5-.5-.5h-6Z"/><path d="M22.5 15c0-.83-.68-1.5-1.5-1.5h-6c-.83 0-1.5.67-1.5 1.5v.88l-.95 1.89c-.08.14-.08.3 0 .44l.94 1.89v.88c0 .82.67 1.5 1.5 1.5h6c.82 0 1.5-.68 1.5-1.5v-6Zm-1.5-.5c.27 0 .5.22.5.5v6c0 .27-.23.5-.5.5h-6c-.28 0-.5-.23-.5-.5v-1c0-.08-.02-.16-.06-.23l-.89-1.78 .88-1.78c.03-.07.05-.15.05-.23v-1c0-.28.22-.5.5-.5h6Z"/><path d="M15 1.5c-.83 0-1.5.67-1.5 1.5v6c0 .82.67 1.5 1.5 1.5h.88l1.89.94c.14.07.3.07.44 0l1.89-.95h.88c.82 0 1.5-.68 1.5-1.5v-6c0-.83-.68-1.5-1.5-1.5h-6ZM14.5 3c0-.28.22-.5.5-.5h6c.27 0 .5.22.5.5v6c0 .27-.23.5-.5.5h-1c-.08 0-.16.01-.23.05l-1.78.88 -1.78-.89c-.07-.04-.15-.06-.23-.06h-1c-.28 0-.5-.23-.5-.5v-6Z"/><path d="M3 22.5c-.83 0-1.5-.68-1.5-1.5v-6c0-.83.67-1.5 1.5-1.5h.88l1.89-.95c.14-.08.3-.08.44 0l1.89.94h.88c.82 0 1.5.67 1.5 1.5v6c0 .82-.68 1.5-1.5 1.5h-6ZM2.5 21c0 .27.22.5.5.5h6c.27 0 .5-.23.5-.5v-6c0-.28-.23-.5-.5-.5H8c-.08 0-.16-.02-.23-.06l-1.78-.89 -1.78.88c-.07.03-.15.05-.23.05h-1c-.28 0-.5.22-.5.5v6Z"/></g></svg>