<svg viewBox="0 0 24 24" xmlns="http://www.w3.org/2000/svg"><path fill-rule="evenodd" d="M6.19 1.53c.18.07.3.25.3.46v2h2.5c2.76 0 5 2.23 5 5v.1c.32-.07.65-.11 1-.11h2.5v-2c0-.21.12-.39.3-.47 .18-.08.4-.04.54.1l4 4c.19.19.19.51 0 .7l-4 4c-.15.14-.36.18-.55.1 -.19-.08-.31-.26-.31-.47v-2h-2.5c-.56 0-1 .44-1 1v8c0 .27-.23.5-.5.5h-3c-.28 0-.5-.23-.5-.5v-13c0-.56-.45-1-1-1h-2.5v1.99c0 .2-.13.38-.31.46 -.19.07-.41.03-.55-.11l-4-4.01c-.2-.2-.2-.52 0-.71l4-4c.14-.15.35-.19.54-.11ZM2.7 5.99l2.79 2.79v-1.3c0-.28.22-.5.5-.5h3c1.1 0 2 .89 2 2v12.5h2v-7.5c0-1.11.89-2 2-2h3c.27 0 .5.22.5.5v1.29l2.79-2.8 -2.8-2.8v1.29c0 .27-.23.49-.5.49h-3c-.47 0-.92.08-1.34.22 -.16.05-.33.03-.46-.07 -.14-.1-.22-.25-.22-.41v-.76c0-2.21-1.8-4-4-4h-3c-.28 0-.5-.23-.5-.5v-1.3l-2.8 2.79Z"/></svg>