<svg viewBox="0 0 24 24" xmlns="http://www.w3.org/2000/svg"><g fill-rule="evenodd"><path d="M22 20.5H2v-1h20v1Z"/><path d="M3.25 12c0-.28.22-.5.5-.5h3.5c.27 0 .5.22.5.5v8c0 .27-.23.5-.5.5h-3.5c-.28 0-.5-.23-.5-.5v-8Zm1 .5v7h2.5v-7h-2.5Z"/><path d="M9.75 8c0-.28.22-.5.5-.5h3.5c.27 0 .5.22.5.5v12c0 .27-.23.5-.5.5h-3.5c-.28 0-.5-.23-.5-.5V8Zm1 .5v11h2.5v-11h-2.5Z"/><path d="M16.25 4c0-.28.22-.5.5-.5h3.5c.27 0 .5.22.5.5v16c0 .27-.23.5-.5.5h-3.5c-.28 0-.5-.23-.5-.5V4Zm1 .5v15h2.5v-15h-2.5Z"/></g></svg>