<svg viewBox="0 0 24 24" xmlns="http://www.w3.org/2000/svg"><g fill-rule="evenodd"><path d="M1.5 2c0-.28.22-.5.5-.5h8c.27 0 .5.22.5.5v8c0 .27-.23.5-.5.5H2c-.28 0-.5-.23-.5-.5V2Zm1 .5v7h7v-7h-7Z"/><path d="M1.5 14c0-.28.22-.5.5-.5h8c.27 0 .5.22.5.5v8c0 .27-.23.5-.5.5H2c-.28 0-.5-.23-.5-.5v-8Zm1 .5v7h7v-7h-7Z"/><path d="M9.5 3c0-.28.22-.5.5-.5h11c.27 0 .5.22.5.5v6c0 .27-.23.5-.5.5H10c-.28 0-.5-.23-.5-.5V3Zm1 .5v5h10v-5h-10Z"/><path d="M9.5 15c0-.28.22-.5.5-.5h11c.27 0 .5.22.5.5v6c0 .27-.23.5-.5.5H10c-.28 0-.5-.23-.5-.5v-6Zm1 .5v5h10v-5h-10Z"/></g></svg>