<svg viewBox="0 0 24 24" xmlns="http://www.w3.org/2000/svg"><g fill-rule="evenodd"><path d="M13.5 6c0-2.49 2.01-4.5 4.5-4.5 2.48 0 4.5 2.01 4.5 4.5 0 2.48-2.02 4.5-4.5 4.5h-4c-.28 0-.5-.23-.5-.5V6ZM18 2.5c-1.94 0-3.5 1.56-3.5 3.5v3.5H18c1.93 0 3.5-1.57 3.5-3.5 0-1.94-1.57-3.5-3.5-3.5Z"/><path d="M13.5 18c0 2.48 2.01 4.5 4.5 4.5 2.48 0 4.5-2.02 4.5-4.5 0-2.49-2.02-4.5-4.5-4.5h-4c-.28 0-.5.22-.5.5v4Zm4.5 3.5c-1.94 0-3.5-1.57-3.5-3.5v-3.5H18c1.93 0 3.5 1.56 3.5 3.5 0 1.93-1.57 3.5-3.5 3.5Z"/><path d="M10.5 6c0-2.49-2.02-4.5-4.5-4.5 -2.49 0-4.5 2.01-4.5 4.5 0 2.48 2.01 4.5 4.5 4.5h4c.27 0 .5-.23.5-.5V6ZM6 2.5c1.93 0 3.5 1.56 3.5 3.5v3.5H6C4.06 9.5 2.5 7.93 2.5 6c0-1.94 1.56-3.5 3.5-3.5Z"/><path d="M10.5 18c0 2.48-2.02 4.5-4.5 4.5 -2.49 0-4.5-2.02-4.5-4.5 0-2.49 2.01-4.5 4.5-4.5h4c.27 0 .5.22.5.5v4ZM6 21.5c1.93 0 3.5-1.57 3.5-3.5v-3.5H6c-1.94 0-3.5 1.56-3.5 3.5 0 1.93 1.56 3.5 3.5 3.5Z"/></g></svg>