<svg viewBox="0 0 24 24" xmlns="http://www.w3.org/2000/svg"><g fill-rule="evenodd"><path d="M1.5 3c0-.83.67-1.5 1.5-1.5h6c.82 0 1.5.67 1.5 1.5v15c0 .82-.68 1.5-1.5 1.5h-.74L6.4 22.27c-.1.13-.25.22-.42.22 -.17 0-.33-.09-.42-.23L3.7 19.48h-.74c-.83 0-1.5-.68-1.5-1.5v-15ZM3 2.5c-.28 0-.5.22-.5.5v15c0 .27.22.5.5.5h1c.16 0 .32.08.41.22l1.58 2.37 1.58-2.38c.09-.14.24-.23.41-.23h1c.27 0 .5-.23.5-.5v-15c0-.28-.23-.5-.5-.5h-6Z"/><path d="M13.5 3c0-.83.67-1.5 1.5-1.5h6c.82 0 1.5.67 1.5 1.5v15c0 .82-.68 1.5-1.5 1.5h-.74l-1.86 2.77c-.1.13-.25.22-.42.22 -.17 0-.33-.09-.42-.23l-1.86-2.78h-.74c-.83 0-1.5-.68-1.5-1.5v-15Zm1.5-.5c-.28 0-.5.22-.5.5v15c0 .27.22.5.5.5h1c.16 0 .32.08.41.22l1.58 2.37 1.58-2.38c.09-.14.24-.23.41-.23h1c.27 0 .5-.23.5-.5v-15c0-.28-.23-.5-.5-.5h-6Z"/><path d="M2 7.5h8v1H2v-1Z"/><path d="M14 7.5h8v1h-8v-1Z"/></g></svg>