<svg viewBox="0 0 24 24" xmlns="http://www.w3.org/2000/svg"><g fill-rule="evenodd"><path d="M11.79 2.04c.13-.06.27-.06.41 0l10 4.5c.17.08.29.25.29.45 0 .19-.12.37-.3.45l-10 4.5c-.14.05-.28.05-.42 0l-10-4.51c-.18-.09-.3-.26-.3-.46s.11-.38.29-.46l9.99-4.5ZM3.21 6.99l8.78 3.95 8.78-3.96 -8.79-3.96 -8.79 3.95Z"/><path d="M1.79 11.54l5.55-2.5 .41.91 -4.55 2.04 8.78 3.95 8.78-3.96 -4.55-2.05 .41-.92 5.55 2.49c.17.08.29.25.29.45 0 .19-.12.37-.3.45l-10 4.5c-.14.05-.28.05-.42 0l-10-4.5c-.18-.09-.3-.26-.3-.46s.11-.38.29-.46Z"/><path d="M1.79 16.544l5.55-2.5 .41.91 -4.55 2.04 8.78 3.95 8.78-3.96 -4.55-2.05 .41-.92 5.55 2.5c.17.08.29.25.29.45 0 .19-.12.37-.3.45l-10 4.5c-.14.05-.28.05-.42 0l-10-4.5c-.18-.09-.3-.26-.3-.46s.11-.38.29-.46Z"/></g></svg>