<svg viewBox="0 0 24 24" xmlns="http://www.w3.org/2000/svg"><g fill-rule="evenodd"><path d="M11.7 2.09c.17-.13.41-.13.58 0l10 7.25c.17.12.24.35.18.55l-3.82 11.74c-.07.2-.26.34-.48.34H5.79c-.22 0-.41-.14-.48-.35L1.49 9.87c-.07-.21 0-.44.18-.56l10-7.26ZM2.58 9.94l3.59 11.05H17.8l3.59-11.06 -9.42-6.84 -9.42 6.83Z"/><path d="M11.72 8.58c.16-.12.38-.12.55 0l3 2c.17.11.25.32.21.52l-1 4.5c-.05.18-.18.32-.36.37l-5.51 1.5c-.16.04-.33 0-.46-.1 -.13-.11-.2-.27-.18-.43l.5-6c.01-.16.09-.29.22-.38l3-2.01Zm-2.25 2.69l-.43 5.04 4.51-1.24 .86-3.88 -2.44-1.63 -2.53 1.68Z"/><path d="M11.5 9V2.5h1V9h-1Z"/><path d="M21.576 10.49l-6.5 1 -.16-.99 6.5-1 .15.98Z"/><path d="M2.07 9.5l7 .99 -.15.99 -7-1 .14-.99Z"/><path d="M17.584 21.77l-4-6 .83-.56 4 6 -.84.55Z"/><path d="M5.56 21.25l2.5-4.5 .87.48 -2.5 4.5 -.88-.49Z"/></g></svg>