<svg viewBox="0 0 24 24" xmlns="http://www.w3.org/2000/svg"><g fill-rule="evenodd"><path d="M12 2.5c-5.25 0-9.5 4.25-9.5 9.5 0 5.24 4.25 9.5 9.5 9.5 5.24 0 9.5-4.26 9.5-9.5 0-5.25-4.26-9.5-9.5-9.5ZM1.5 12C1.5 6.2 6.2 1.5 12 1.5c5.79 0 10.5 4.7 10.5 10.5 0 5.79-4.71 10.5-10.5 10.5 -5.8 0-10.5-4.71-10.5-10.5Z"/><path d="M12 8.5c-1.94 0-3.5 1.56-3.5 3.5 0 1.93 1.56 3.5 3.5 3.5 1.93 0 3.5-1.57 3.5-3.5 0-1.94-1.57-3.5-3.5-3.5ZM7.5 12c0-2.49 2.01-4.5 4.5-4.5 2.48 0 4.5 2.01 4.5 4.5 0 2.48-2.02 4.5-4.5 4.5 -2.49 0-4.5-2.02-4.5-4.5Z"/><path d="M10.53 8.17l-2.01-5.5 .93-.35 1.99 5.5 -.94.34Zm1.42 8.03l-2.5 5.5 -.92-.42 2.5-5.5 .91.41Z"/><path d="M17.62 20.33l-4-4.5 .74-.67 4 4.5 -.75.66Z"/><path d="M21.65 8.97l-6 1.99 -.32-.95 6-2.01 .31.94Z"/><path d="M17.4 3.78l-3.5 5 -.82-.58 3.5-5 .81.57Z"/></g></svg>