<svg viewBox="0 0 24 24" xmlns="http://www.w3.org/2000/svg"><g fill-rule="evenodd"><path d="M4.5 2c0-.28.22-.5.5-.5h9c.13 0 .25.05.35.14l4 4c.09.09.14.22.14.35v16c0 .27-.23.5-.5.5h-13c-.28 0-.5-.23-.5-.5v-20Zm1 .5v19h12V6.2l-3.71-3.71h-8.3Z"/><path d="M13.8 1.53c.18-.08.4-.04.54.1l4 4c.14.14.18.35.1.54 -.08.18-.26.3-.47.3h-4c-.28 0-.5-.23-.5-.5v-4c0-.21.12-.39.3-.47Zm.69 1.66v2.29h2.29l-2.3-2.3Z"/><path d="M11 10.54c-1.42.23-2.5 1.47-2.5 2.95 0 1.65 1.34 3 3 3 1.48 0 2.72-1.09 2.95-2.5h-2.96c-.28 0-.5-.23-.5-.5v-2.96Zm-3.5 2.95c0-2.21 1.79-4 4-4 .27 0 .5.22.5.5v3h3c.27 0 .5.22.5.5 0 2.2-1.8 4-4 4 -2.21 0-4-1.8-4-4Z"/></g></svg>