<svg viewBox="0 0 24 24" xmlns="http://www.w3.org/2000/svg"><path fill-rule="evenodd" d="M13.59 1.61c.11-.1.26-.14.41-.11 4.3.79 7.69 4.18 8.48 8.48 .02.14-.02.29-.11.41 -.1.11-.24.18-.39.18h-3.77c-.23 0-.42-.15-.48-.36 -.57-1.91-2.08-3.42-3.99-3.99 -.22-.07-.36-.26-.36-.48V1.97c0-.15.06-.29.18-.39Zm-3.03 0c.11.09.17.23.17.38v3.76c0 .22-.15.41-.36.47 -2.45.72-4.23 2.99-4.23 5.67 0 1.12.31 2.17.86 3.07 .12.19.08.45-.08.61l-2.65 2.64c-.11.1-.25.15-.4.14 -.15-.02-.28-.09-.37-.21 -1.3-1.76-2.06-3.93-2.06-6.28 0-5.19 3.733-9.51 8.65-10.41 .14-.03.29.01.41.1Zm3.84 1v2.78c1.94.69 3.48 2.23 4.17 4.17h2.78c-.86-3.42-3.55-6.11-6.97-6.97Zm-4.67 0c-4.17 1.04-7.25 4.8-7.25 9.29 0 1.91.56 3.7 1.53 5.19l1.94-1.95c-.52-.97-.82-2.08-.82-3.26 0-3.01 1.91-5.56 4.58-6.52V2.57Zm8 10.98c.06-.22.25-.36.47-.36h3.76c.14 0 .28.06.38.17 .09.11.13.26.1.41 -.91 4.92-5.23 8.65-10.41 8.65 -2.11 0-4.07-.62-5.72-1.68 -.13-.09-.22-.22-.23-.37 -.02-.16.03-.3.14-.41l2.69-2.7c.14-.15.37-.19.56-.1 .76.36 1.63.57 2.54.57 2.67 0 4.94-1.79 5.67-4.23Zm.84.64c-.96 2.67-3.52 4.58-6.513 4.58 -.94 0-1.84-.19-2.65-.53l-2 1.99c1.37.76 2.95 1.19 4.64 1.19 4.48 0 8.25-3.09 9.29-7.25h-2.79Z"/></svg>