<svg viewBox="0 0 24 24" xmlns="http://www.w3.org/2000/svg"><g fill-rule="evenodd"><path d="M8 5V2h2v3H8Z"/><path d="M21 23H3v-2h18v2Z"/><path d="M8 4c0-.56.44-1 1-1 2.83 0 5.34 1.43 7.11 3.481 1.77 2.04 2.88 4.77 2.88 7.519v8c0 .55-.45 1-1 1h-9c-.56 0-1-.45-1-1V4Zm2 1.07v15.92h7v-7c0-2.23-.91-4.5-2.4-6.21 -1.25-1.44-2.86-2.44-4.61-2.72Z"/><path d="M13.5 20H9v-2h4.5v2Z"/><path d="M13.5 17H9v-2h4.5v2Z"/><path d="M13.5 14H9v-2h4.5v2Z"/><path d="M13.5 11H9V9h4.5v2Z"/><path d="M5 5.5c0-.56.44-1 1-1h3v2H7V22H5V5.5Z"/></g></svg>