<svg viewBox="0 0 24 24" xmlns="http://www.w3.org/2000/svg"><g fill-rule="evenodd"><path d="M2 21h20v2H2v-2Z"/><path d="M6.5 7c0-.56.44-1 1-1h9c.55 0 1 .44 1 1v15c0 .55-.45 1-1 1h-9c-.56 0-1-.45-1-1V7Zm2 1v13h7V8h-7Z"/><path d="M9.38 17.11c0-1.45 1.17-2.62 2.61-2.62s2.61 1.17 2.61 2.61v4.88c0 .55-.45 1-1 1h-3.23c-.56 0-1-.45-1-1v-4.89Zm2.61-.62c-.34 0-.62.27-.62.61v3.88h1.22v-3.89c0-.34-.28-.62-.62-.62Z"/><path d="M12 1c.28 0 .55.12.74.33l4.5 5c.26.29.33.71.17 1.07 -.17.36-.52.59-.92.59h-9c-.4 0-.76-.24-.92-.6 -.17-.37-.1-.79.17-1.08l4.49-5c.18-.22.45-.34.74-.34ZM9.74 6h4.5l-2.26-2.51 -2.26 2.5Z"/><path d="M10 9h4v2h-4V9Z"/><path d="M10 11.5h4v2h-4v-2Z"/><path d="M18.75 4c.39 0 .75.23.91.58l2.25 5c.13.3.11.66-.08.95 -.19.28-.51.45-.84.45h-4.5c-.34 0-.66-.18-.84-.46 -.19-.29-.22-.65-.08-.96l2.25-5c.16-.36.51-.59.91-.59Zm-.71 5h1.4l-.71-1.57 -.71 1.56Z"/><path d="M5.25 4c.39 0 .75.23.91.58l2.25 5c.13.3.11.66-.08.95 -.19.28-.51.45-.84.45h-4.5c-.34 0-.66-.18-.84-.46 -.19-.29-.22-.65-.08-.96l2.25-5c.16-.36.51-.59.91-.59Zm-.71 5h1.4l-.71-1.57 -.71 1.56Z"/><path d="M15.5 10c0-.56.44-1 1-1H21c.55 0 1 .44 1 1v12c0 .55-.45 1-1 1h-4.5c-.56 0-1-.45-1-1V10Zm2 1v10H20V11h-2.5Z"/><path d="M8.5 10c0-.56-.45-1-1-1H3c-.56 0-1 .44-1 1v12c0 .55.44 1 1 1h4.5c.55 0 1-.45 1-1V10Zm-2 1v10H4V11h2.5Z"/></g></svg>