<svg viewBox="0 0 24 24" xmlns="http://www.w3.org/2000/svg"><g fill-rule="evenodd"><path d="M5.5 21V8h-2v14c0 .55.44 1 1 1h15c.55 0 1-.45 1-1V8h-2v13h-13Z"/><path d="M18.5 3.5v5h2v-6c0-.56-.45-1-1-1H17c-.56 0-1 .44-1 1V6h2V3.5h.5Z"/><path d="M10.5 16v6h-2v-7c0-.56.44-1 1-1H15c.55 0 1 .44 1 1v7h-2v-6h-3.5Z"/><path d="M11.56 1.21c.36-.29.88-.29 1.24.01l9.81 8 -1.27 1.55 -9.2-7.5 -9.56 7.5 -1.24-1.58 10.18-8Z"/><path d="M12 7.5c-.83 0-1.5.67-1.5 1.5 0 .82.67 1.5 1.5 1.5 .82 0 1.5-.68 1.5-1.5 0-.83-.68-1.5-1.5-1.5ZM8.5 9c0-1.94 1.56-3.5 3.5-3.5 1.93 0 3.5 1.56 3.5 3.5 0 1.93-1.57 3.5-3.5 3.5 -1.94 0-3.5-1.57-3.5-3.5Z"/></g></svg>