<svg viewBox="0 0 24 24" xmlns="http://www.w3.org/2000/svg"><g fill-rule="evenodd"><path d="M6 3c0-.56.44-1 1-1h10c.55 0 1 .44 1 1v17c0 .55-.45 1-1 1H7c-.56 0-1-.45-1-1V3Zm2 1v15h8V4H8Z"/><path d="M9 13c0-.56.44-1 1-1h4c.55 0 1 .44 1 1v7c0 .55-.45 1-1 1h-4c-.56 0-1-.45-1-1v-7Zm2 1v5h2v-5h-2Z"/><path d="M16 8c0-.56.44-1 1-1h3.5c.55 0 1 .44 1 1v12c0 .55-.45 1-1 1H17c-.56 0-1-.45-1-1V8Zm2 1v10h1.5V9H18Z"/><path d="M8 8c0-.56-.45-1-1-1H3.5c-.56 0-1 .44-1 1v12c0 .55.44 1 1 1H7c.55 0 1-.45 1-1V8ZM6 9v10H4.5V9H6Z"/><path d="M2 19h20v2H2v-2Z"/><path d="M14 8.5h-4v-2h4v2Z"/><path d="M13 5.5v4h-2v-4h2Z"/></g></svg>