<svg viewBox="0 0 24 24" xmlns="http://www.w3.org/2000/svg"><g fill-rule="evenodd"><path d="M6 10c0-.56.44-1 1-1h10c.55 0 1 .44 1 1v10c0 .55-.45 1-1 1H7c-.56 0-1-.45-1-1V10Zm2 1v8h8v-8H8Z"/><path d="M16.43 9.17c.27-.19.62-.23.93-.11l5 1.99c.37.15.62.51.62.92v8c0 .55-.45 1-1 1h-5c-.56 0-1-.45-1-1v-10c0-.34.16-.65.43-.83Zm1.56 2.3v7.52h3V12.66l-3-1.2Z"/><path d="M7.56 9.17c-.28-.19-.63-.23-.94-.11l-5 1.99c-.38.15-.63.51-.63.92v8c0 .55.44 1 1 1h5c.55 0 1-.45 1-1v-10c0-.34-.17-.65-.44-.83Zm-1.57 2.3v7.52h-3V12.66l3-1.2Z"/><path d="M8.5 17.5c0-1.94 1.56-3.5 3.5-3.5 1.93 0 3.5 1.56 3.5 3.5V20c0 .55-.45 1-1 1h-5c-.56 0-1-.45-1-1v-2.5ZM12 16c-.83 0-1.5.67-1.5 1.5V19h3v-1.5c0-.83-.68-1.5-1.5-1.5Z"/><path d="M12 6c-2.21 0-4 1.79-4 4H6c0-3.32 2.68-6 6-6 3.31 0 6 2.68 6 6h-2c0-2.21-1.8-4-4-4Z"/><path d="M13 3v2h-2V3h2Z"/></g></svg>