<svg viewBox="0 0 24 24" xmlns="http://www.w3.org/2000/svg"><g fill-rule="evenodd"><path d="M4.21 15.37c.18-.24.47-.38.78-.38h14c.3 0 .59.13.78.37 .18.23.25.55.19.84l-1.4 6c-.11.45-.51.77-.98.77H6.38c-.47 0-.87-.33-.98-.78l-1.4-6c-.07-.3 0-.61.19-.85Zm2.04 1.62l.93 4h9.61l.93-4H6.24Z"/><path d="M11.99 1c.31 0 .609.14.798.39l.55.73 .87.3c.29.1.52.33.62.63 .09.29.04.62-.14.88l-.53.75 -.02.92c-.01.31-.16.6-.42.79 -.26.18-.58.23-.88.14l-.89-.27 -.89.26c-.3.09-.63.03-.88-.15 -.26-.19-.41-.48-.42-.8l-.02-.93 -.53-.76c-.18-.26-.23-.59-.14-.89 .09-.3.32-.54.62-.64l.87-.31 .55-.74c.18-.26.48-.4.798-.4Zm0 2.65c-.1.1-.21.18-.34.24 .06.11.11.25.12.38 .13-.03.27-.03.4 0 .01-.14.05-.27.12-.39 -.13-.06-.24-.14-.34-.25Z"/><path d="M12 9c-1.84 0-3.5 1.68-3.5 4 0 .73.17 1.41.46 2h6.06c.29-.59.46-1.27.46-2 0-2.32-1.67-4-3.5-4Zm-5.5 4c0-3.22 2.36-6 5.5-6 3.13 0 5.5 2.78 5.5 6 0 1.32-.4 2.55-1.08 3.56 -.19.27-.5.43-.83.43H8.38c-.34 0-.65-.17-.83-.44 -.68-1.01-1.08-2.24-1.08-3.57Z"/><path d="M7.67 12.02c-.92.16-1.68 1.013-1.68 2.09 0 .31.06.6.17.875h1.82v2H5.57c-.33 0-.63-.16-.82-.42 -.5-.69-.79-1.55-.79-2.46 0-2.02 1.4-3.74 3.32-4.07L7.62 12Z"/><path d="M16.32 12.02c.91.16 1.67 1.013 1.67 2.09 0 .31-.07.6-.18.875h-1.83v2h2.4c.32 0 .62-.16.81-.42 .49-.69.78-1.55.78-2.46 0-2.02-1.41-3.74-3.33-4.07L16.29 12Z"/><path d="M13 5.5V8h-2V5.5h2Z"/></g></svg>