<svg viewBox="0 0 24 24" xmlns="http://www.w3.org/2000/svg"><g fill-rule="evenodd"><path d="M5.25 11.329c.18-.21.45-.33.74-.33h12c.28 0 .55.11.74.32 .18.2.28.48.25.77l-1 10c-.06.51-.49.9-1 .9h-10c-.52 0-.95-.39-1-.91l-1-10c-.03-.29.06-.57.25-.78Zm1.84 1.67l.8 8h8.19l.8-8h-9.8Z"/><path d="M5.28 6.37c-.23-1.8 1.17-3.38 2.97-3.38h.46c1.8 0 3.2 1.58 2.97 3.37l-.72 5.75c-.07.5-.49.87-1 .87h-3c-.51 0-.93-.38-1-.88l-.72-5.76Zm2.97-1.38c-.61 0-1.07.52-1 1.12l.6 4.87h1.23l.6-4.88c.07-.6-.4-1.13-1-1.13h-.47Z"/><path d="M11.85 4.44C11.57 2.62 12.98.99 14.81.99h1.35c1.83 0 3.23 1.63 2.96 3.44l-1.16 7.7c-.08.48-.5.85-.99.85h-3c-.5 0-.92-.37-.99-.86l-1.16-7.71Zm2.96-1.45c-.62 0-1.08.54-.99 1.14l1.02 6.85h1.27l1.02-6.86c.09-.61-.38-1.15-.99-1.15h-1.36Z"/></g></svg>