<svg viewBox="0 0 24 24" xmlns="http://www.w3.org/2000/svg"><g fill-rule="evenodd"><path d="M3.13 3.13c.19 1.6.6 4.51 1.27 7.32 .33 1.42.73 2.79 1.19 3.95 .46 1.18.96 2.04 1.44 2.53 1.39 1.39 3.75 2.6 6.14 3.06 2.42.47 4.54.14 5.75-1.07 1.21-1.22 1.54-3.34 1.06-5.76 -.47-2.39-1.68-4.75-3.07-6.15 -.49-.49-1.35-.98-2.54-1.45 -1.17-.46-2.54-.86-3.96-1.2 -2.82-.67-5.72-1.08-7.33-1.28Zm-2 .19C.97 2.04 2.04.98 3.31 1.13c1.62.19 4.64.62 7.59 1.32 1.47.34 2.94.77 4.23 1.27 1.26.49 2.43 1.11 3.21 1.89 1.72 1.72 3.08 4.46 3.61 7.17 .52 2.67.29 5.64-1.62 7.55 -1.92 1.91-4.89 2.14-7.56 1.61 -2.71-.54-5.45-1.9-7.18-3.62 -.78-.78-1.4-1.96-1.9-3.22 -.51-1.29-.93-2.76-1.28-4.24 -.7-2.95-1.13-5.97-1.33-7.6Z"/><path d="M3.2 1.79l19.5 19.5 -1.42 1.41L1.78 3.2l1.41-1.42Z"/></g></svg>