<svg viewBox="0 0 24 24" xmlns="http://www.w3.org/2000/svg"><g fill-rule="evenodd"><path d="M4 2.5c-.56 0-1 .44-1 1v3c0 .55.44 1 1 1h4c.55 0 1-.45 1-1v-3c0-.56-.45-1-1-1H4Z"/><path d="M16 2.5c-.56 0-1 .44-1 1v3c0 .55.44 1 1 1h4c.55 0 1-.45 1-1v-3c0-.56-.45-1-1-1h-4Z"/><path d="M1 6.5c0-.56.44-1 1-1h20c.55 0 1 .44 1 1v14c0 .55-.45 1-1 1H2c-.56 0-1-.45-1-1v-14Zm11.261 1.03c.43.11.73.51.73.96v2.63l2.64.37c.32.04.61.25.75.55 .14.29.13.65-.04.93l-3.5 6c-.23.39-.69.57-1.13.46 -.44-.12-.74-.52-.74-.97v-2.64l-2.65-.38c-.33-.05-.62-.26-.76-.56 -.15-.3-.14-.66.03-.94l3.49-6c.22-.4.68-.58 1.12-.47Z"/></g></svg>