<svg viewBox="0 0 24 24" xmlns="http://www.w3.org/2000/svg"><g fill-rule="evenodd"><path d="M3 18c-.44 0-.82.27-.95.68l-1 3c-.11.3-.06.64.13.9 .18.26.48.41.81.41h15c.32 0 .62-.16.81-.42 .18-.27.23-.6.13-.91l-1-3c-.14-.41-.52-.69-.95-.69h-13Z"/><path d="M19.37 5.07c-.31-.13-.66-.09-.94.1 -.28.18-.44.49-.44.82v3c0 .55.44 1 1 1h2.5c.55 0 1-.45 1-1v-2c0-.41-.25-.78-.63-.93l-2.5-1Z"/><path d="M17.94 4.1l4 2c.33.16.55.51.55.89v7.5c0 1.65-1.35 3-3 3h-4.5v-2h4.5c.55 0 1-.45 1-1V7.6l-3.45-1.73 .89-1.79Z"/><path d="M4 1c-.56 0-1 .44-1 1v17c0 .55.44 1 1 1h11c.55 0 1-.45 1-1V2c0-.56-.45-1-1-1H4Zm8.99 4l.99.07c.02-.3-.09-.58-.29-.79 -.21-.21-.5-.32-.79-.3l.07.99Zm-5.42 6.83c.58.35 1.24.54 1.91.54 .99 0 1.95-.42 2.7-1.18 .46-.47.76-1.14.96-1.74 .21-.64.37-1.34.49-1.98 .11-.65.2-1.25.25-1.69 .02-.23.04-.41.05-.53 0-.07.01-.12.01-.15l0-.05 0-.02 0-.01 0-.01V5c0-.01 0-.01-1-.08 -.08-1-.08-1-.08-1l-.01 0 -.01 0 -.01 0 -.02 0 -.05 0c-.04 0-.09 0-.15.01 -.13.01-.31.03-.53.05 -.44.05-1.05.13-1.69.25 -.64.11-1.35.28-1.98.49 -.61.2-1.28.5-1.74.96 -.76.75-1.18 1.71-1.18 2.7 0 .67.19 1.32.54 1.91l-1.38 1.37 1.41 1.41 1.37-1.38Z"/></g></svg>