<svg viewBox="0 0 24 24" xmlns="http://www.w3.org/2000/svg"><g fill-rule="evenodd"><path d="M12.45 5.01c-.16-.01-.31-.02-.46-.02 -3.87 0-7 3.13-7 7h3.45c1.1 0 1.99.89 1.99 2h.27c1.25 0 2.27 1.01 2.27 2.27v2.65c2.72-.39 4.94-2.35 5.71-4.93H16.9c-.95 0-1.82-.54-2.25-1.39 -.12-.23-.38-.34-.62-.26l-.16.05c-1.42.47-2.94-.3-3.407-1.71l-.16-.47c-.3-.88-.17-1.85.34-2.62l1.45-2.19 .28-.44Zm6.54 6.98c0-2.97-1.85-5.502-4.46-6.53l-.72 1.07 -1.46 2.18c-.18.25-.22.57-.12.87l.15.46c.12.36.51.55.87.43l.15-.06c1.18-.4 2.47.14 3.03 1.25 .08.17.26.27.45.27h2.06Zm-8 6.92c-2.73-.39-4.95-2.35-5.72-4.93h3.16c0 1.1.89 2 1.99 2h.27c.15 0 .27.12.27.27v2.65Z"/><path d="M12 3c-4.98 0-9 4.02-9 9 0 4.97 4.02 9 9 9 4.97 0 9-4.03 9-9 0-2.03-.67-3.9-1.8-5.4l1.59-1.21c1.38 1.83 2.19 4.12 2.19 6.6 0 6.07-4.93 11-11 11 -6.08 0-11-4.93-11-11 0-6.08 4.92-11 11-11 2.47 0 4.76.81 6.6 2.2l-1.21 1.59c-1.51-1.14-3.38-1.8-5.41-1.8Z"/><path d="M19 2.5c-1.39 0-2.5 1.11-2.5 2.5 0 1.38 1.11 2.5 2.5 2.5 1.38 0 2.5-1.12 2.5-2.5 0-1.39-1.12-2.5-2.5-2.5Z"/></g></svg>