<svg viewBox="0 0 24 24" xmlns="http://www.w3.org/2000/svg"><g fill-rule="evenodd"><path d="M22.92 2.37l-2 5 -1.86-.75 2-5 1.85.74Z"/><path d="M2.92 1.62l2 5 -1.86.74 -2-5 1.85-.75Z"/><path d="M4 6c-.56 0-1 .44-1 1v15c0 .55.44 1 1 1h16c.55 0 1-.45 1-1V7c0-.56-.45-1-1-1H4Zm11.5 5l.99.07c.02-.3-.09-.58-.29-.79 -.21-.21-.5-.32-.79-.29l.07.99Zm-4.22 5.62c.45.24.95.37 1.46.37 .84 0 1.64-.36 2.27-.99 .39-.4.64-.97.81-1.45 .17-.52.3-1.08.39-1.59 .09-.52.15-.99.19-1.34 .02-.18.03-.32.04-.42 0-.06 0-.1.01-.12l0-.04 0-.01 0-.01 0-.01V11c0-.01 0-.01-1-.08 -.08-1-.08-1-.08-1h-.01l-.01 0 -.01 0 -.01 0 -.04 0c-.03 0-.07 0-.12.01 -.11 0-.25.02-.42.04 -.35.04-.83.1-1.34.19 -.51.09-1.07.22-1.59.39 -.49.16-1.05.41-1.45.81 -.64.63-.99 1.43-.99 2.27 0 .51.13 1.01.37 1.46l-1.59 1.58 1.41 1.41 1.58-1.59Z"/></g></svg>