<svg viewBox="0 0 24 24" xmlns="http://www.w3.org/2000/svg"><g fill-rule="evenodd"><path d="M16 23H8v-2h8v2Z"/><path d="M8.5 20c-.56 0-1-.45-1-1v-3.39C5.38 14.17 4 11.74 4 8.99c0-4.42 3.58-8 8-8 4.41 0 8 3.58 8 8 0 2.75-1.39 5.17-3.5 6.61v3.38c0 .55-.45 1-1 1h-7ZM15 5.5l.99.07c.02-.3-.09-.58-.29-.79 -.21-.21-.5-.32-.79-.3l.07.99Zm-4.22 5.62c.45.24.95.37 1.46.37 .84 0 1.64-.36 2.27-.99 .39-.4.64-.97.81-1.45 .17-.52.3-1.08.39-1.59 .09-.52.15-.99.19-1.34 .02-.18.03-.32.04-.42 0-.06 0-.1.01-.12l0-.04 0-.01 0-.01 0-.01V5.5c0-.01 0-.01-1-.08 -.08-1-.08-1-.08-1l-.01 0 -.01 0 -.01 0 -.01 0 -.04 0c-.03 0-.07 0-.12.01 -.11 0-.25.02-.42.04 -.35.04-.83.1-1.34.19 -.51.09-1.07.22-1.59.39 -.49.16-1.05.41-1.45.81 -.64.63-.99 1.43-.99 2.27 0 .51.13 1.01.37 1.46l-1.59 1.58 1.41 1.41 1.58-1.59Z"/></g></svg>