<svg viewBox="0 0 24 24" xmlns="http://www.w3.org/2000/svg"><g fill-rule="evenodd"><path d="M23 8v10h-2v-4h-2v-2h2V8h2Z"/><path d="M1 8v10h2v-4h2v-2H3V8H1Z"/><path d="M17 3.5H7v2h4v2h2v-2h4v-2Z"/><path d="M9 6.5c-.27 0-.52.1-.71.29l-1.71 1.7H4.99c-.56 0-1 .44-1 1v5 2c0 .55.44 1 1 1h1.58l2.7 2.7c.18.18.44.29.7.29h1 5c.26 0 .51-.11.7-.3l3-3c.18-.19.29-.45.29-.71v-2 -7c0-.56-.45-1-1-1h-7 -3Zm7.5 3.5l.99.07c.02-.3-.09-.58-.29-.79 -.21-.21-.5-.32-.79-.3l.07.99Zm-4.22 5.62c.45.24.95.37 1.46.37 .84 0 1.64-.36 2.27-.99 .39-.4.64-.97.81-1.45 .17-.52.3-1.08.39-1.59 .09-.52.15-.99.19-1.34 .02-.18.03-.32.04-.42 0-.06 0-.1.01-.12l0-.04 0-.01 0-.01 0-.01V10c0-.01 0-.01-1-.08 -.08-1-.08-1-.08-1l-.01 0 -.01 0 -.01 0 -.01 0 -.04 0c-.03 0-.07 0-.12.01 -.11 0-.25.02-.42.04 -.35.04-.83.1-1.34.19 -.51.09-1.07.22-1.59.39 -.49.16-1.05.41-1.45.81 -.64.63-.99 1.43-.99 2.27 0 .51.13 1.01.37 1.46l-1.59 1.58 1.41 1.41 1.58-1.59Z"/></g></svg>