<svg viewBox="0 0 24 24" xmlns="http://www.w3.org/2000/svg"><g fill-rule="evenodd"><path d="M7.5 1C6.11 1 5 2.11 5 3.5V8c0 .55.44 1 1 1h3c.55 0 1-.45 1-1V3.5C10 2.11 8.88 1 7.5 1Z"/><path d="M16.5 1C15.11 1 14 2.11 14 3.5V8c0 .55.44 1 1 1h3c.55 0 1-.45 1-1V3.5C19 2.11 17.88 1 16.5 1Z"/><path d="M5 9.5c-.56 0-1 .44-1 1V17c0 3.31 2.68 6 6 6h4c3.31 0 6-2.69 6-6v-6.5c0-.56-.45-1-1-1H5ZM15.5 13l.99.07c.02-.3-.09-.58-.29-.79 -.21-.21-.5-.32-.79-.29l.07.99Zm-4.22 5.62c.45.24.95.37 1.46.37 .84 0 1.64-.36 2.27-.99 .39-.4.64-.97.81-1.45 .17-.52.3-1.08.39-1.59 .09-.52.15-.99.19-1.34 .02-.18.03-.32.04-.42 0-.06 0-.1.01-.12l0-.04 0-.01 0-.01 0-.01V13c0-.01 0-.01-1-.08 -.08-1-.08-1-.08-1h-.01l-.01 0 -.01 0 -.01 0 -.04 0c-.03 0-.07 0-.12.01 -.11 0-.25.02-.42.04 -.35.04-.83.1-1.34.19 -.51.09-1.07.22-1.59.39 -.49.16-1.05.41-1.45.81 -.64.63-.99 1.43-.99 2.27 0 .51.13 1.01.37 1.46l-1.59 1.58 1.41 1.41 1.58-1.59Z"/><path d="M3.5 7c-.56 0-1 .44-1 1v2.5c0 .55.44 1 1 1h17c.55 0 1-.45 1-1V8c0-.56-.45-1-1-1h-17Z"/></g></svg>