<svg viewBox="0 0 24 24" xmlns="http://www.w3.org/2000/svg"><g fill-rule="evenodd"><path d="M21.49 15l.99.07c.02-.3-.09-.58-.29-.79 -.21-.21-.5-.32-.79-.29l.07.99Zm0 0c.99.07.99.07.99.07v0l-.01 0 -.01 0 -.01.01 -.01.04c-.01.03-.01.08-.02.14 -.02.12-.03.3-.06.52 -.06.43-.14 1.04-.26 1.68 -.12.63-.29 1.34-.5 1.97 -.21.6-.51 1.27-.97 1.73 -.76.75-1.72 1.17-2.71 1.17 -1 0-1.96-.42-2.71-1.18 -.76-.76-1.18-1.72-1.18-2.71 0-1 .41-1.96 1.17-2.71 .46-.47 1.13-.77 1.73-.97 .63-.22 1.33-.38 1.97-.5 .64-.12 1.24-.21 1.68-.26 .22-.03.4-.05.52-.06 .06-.01.11-.02.14-.02l.04-.01 .01-.01 0-.01 0-.01h0s0 0 .07.99Z"/><path d="M14.7 23.2l2-2 -1.42-1.42 -2 2 1.41 1.41Z"/><path d="M2 4c-.56 0-1 .44-1 1v17c0 .55.44 1 1 1h10c.55 0 1-.45 1-1V5c0-.56-.45-1-1-1H2Z"/><path d="M5 1c-.56 0-1 .44-1 1v3c0 .55.44 1 1 1h4c.55 0 1-.45 1-1V2c0-.56-.45-1-1-1H5Z"/></g></svg>