<svg viewBox="0 0 24 24" xmlns="http://www.w3.org/2000/svg"><g fill-rule="evenodd"><path d="M9 9.5c0-.56.44-1 1-1h12c.55 0 1 .44 1 1v12c0 .55-.45 1-1 1H10c-.56 0-1-.45-1-1v-12Zm2 6c0-2.77 2.23-5 5-5 2.76 0 5 2.23 5 5 0 2.76-2.24 5-5 5 -2.77 0-5-2.24-5-5Zm7.5-1h-2v2h2v-2Zm-5 0h2v2h-2v-2Z"/><path d="M5 1.5c1.65 0 3 1.34 3 3v2c0 .55-.45 1-1 1H4c-1.66 0-3-1.35-3-3v-2c0-.56.44-1 1-1h3Z"/><path d="M8 4.5v9c0 .55.44 1 1 1h1v2H9c-1.66 0-3-1.35-3-3v-9h2Z"/><path d="M9 1.5c-1.66 0-3 1.34-3 3v2c0 .55.44 1 1 1h3c1.65 0 3-1.35 3-3v-2c0-.56-.45-1-1-1H9Z"/></g></svg>