<svg viewBox="0 0 24 24" xmlns="http://www.w3.org/2000/svg"><g fill-rule="evenodd"><path d="M3 18c-.44 0-.82.27-.95.68l-1 3c-.11.3-.06.64.13.9 .18.26.48.41.81.41h15c.32 0 .62-.16.81-.42 .18-.27.23-.6.13-.91l-1-3c-.14-.41-.52-.69-.95-.69h-13Z"/><path d="M19.37 5.07c-.31-.13-.66-.09-.94.1 -.28.18-.44.49-.44.82v3c0 .55.44 1 1 1h2.5c.55 0 1-.45 1-1v-2c0-.41-.25-.78-.63-.93l-2.5-1Z"/><path d="M17.94 4.1l4 2c.33.16.55.51.55.89v7.5c0 1.65-1.35 3-3 3h-4.5v-2h4.5c.55 0 1-.45 1-1V7.6l-3.45-1.73 .89-1.79Z"/><path d="M3 2c0-.56.44-1 1-1h11c.55 0 1 .44 1 1v17c0 .55-.45 1-1 1H4c-.56 0-1-.45-1-1V2Zm5.6 2.05l-2 4c-.16.3-.14.67.04.97 .18.29.5.47.85.47h2 .38l-1.28 2.55 1.78.89 2-4c.15-.31.13-.68-.05-.98 -.19-.3-.51-.48-.86-.48h-2 -.39l1.27-2.56 -1.79-.9Z"/></g></svg>