<svg viewBox="0 0 24 24" xmlns="http://www.w3.org/2000/svg"><path fill-rule="evenodd" d="M9 2c0-.56.44-1 1-1h4c.55 0 1 .44 1 1v1.51c.3.1.59.22.88.36l1.06-1.07c.39-.4 1.02-.4 1.41 0l2.82 2.82c.18.18.29.44.29.7 0 .26-.11.51-.3.7l-1.07 1.06c.13.28.25.57.36.88h1.51c.55 0 1 .44 1 1v4c0 .55-.45 1-1 1h-1.52c-.11.3-.23.59-.37.88l1.06 1.06c.18.18.29.44.29.7 0 .26-.11.51-.3.7l-2.83 2.82c-.4.39-1.03.39-1.42 0l-1.07-1.07c-.29.13-.58.25-.89.36v1.51c0 .55-.45 1-1 1h-4c-.56 0-1-.45-1-1V20.4c-.31-.11-.6-.23-.89-.37l-1.07 1.06c-.4.39-1.03.39-1.42 0L2.7 18.26c-.4-.4-.4-1.03 0-1.42l1.06-1.07c-.14-.29-.26-.58-.37-.89H1.87c-.56 0-1-.45-1-1v-4c0-.56.44-1 1-1h1.51c.1-.31.22-.6.36-.89L2.67 6.92c-.19-.19-.3-.45-.3-.71 0-.27.1-.52.29-.71l2.82-2.83c.39-.4 1.02-.4 1.41 0l1.06 1.06c.28-.14.57-.26.88-.37V1.84Zm2.76 4.03c.43.11.73.51.73.96v2.63l2.64.37c.32.04.61.25.75.55 .14.29.13.65-.04.93l-3.5 6c-.23.39-.69.57-1.13.46 -.44-.12-.74-.52-.74-.97v-2.64l-2.65-.38c-.33-.05-.62-.26-.76-.56 -.15-.3-.14-.66.03-.94l3.49-6c.22-.4.68-.58 1.12-.47Z"/></svg>