<svg viewBox="0 0 24 24" xmlns="http://www.w3.org/2000/svg"><path fill-rule="evenodd" d="M12 2c-.69-.73-.69-.73-.69-.73l-.01 0 -.01 0 -.01 0 -.02.01 -.08.06c-.07.05-.15.14-.27.25 -.23.22-.55.54-.93.93 -.77.79-1.79 1.89-2.81 3.14C6.15 6.9 5.11 8.31 4.32 9.72c-.78 1.37-1.38 2.86-1.38 4.22 0 4.97 4.02 9 9 9 4.97 0 9-4.03 9-9 0-1.37-.61-2.86-1.38-4.23 -.79-1.41-1.83-2.82-2.85-4.07 -1.03-1.26-2.05-2.36-2.81-3.15 -.39-.4-.71-.72-.93-.94 -.12-.12-.21-.2-.27-.26l-.08-.07 -.02-.02 -.01-.01 -.01-.01 -.01-.01c-.01-.01-.01-.01-.69.72Zm0 0l.68-.73c-.39-.37-.99-.37-1.38 0l.68.72ZM6.58 12.21c.36-.62 1.01-1.22 1.91-1.22 .9 0 1.55.6 1.91 1.21 .37.63.58 1.44.58 2.28 0 .84-.21 1.64-.59 2.28 -.37.61-1.02 1.21-1.92 1.21 -.91 0-1.56-.61-1.92-1.22 -.38-.64-.59-1.45-.59-2.29 0-.85.2-1.65.58-2.29Z"/></svg>