<svg viewBox="0 0 24 24" xmlns="http://www.w3.org/2000/svg"><g fill-rule="evenodd"><path d="M4 5c0-.56.44-1 1-1h14c.55 0 1 .44 1 1v17c0 .55-.45 1-1 1H5c-.56 0-1-.45-1-1V5Zm9.6 5.46c-.8-1.07-2.4-1.07-3.2 0l-.7.93 1.59 1.2 .7-.94 .7.93 1.6-1.2 -.7-.94Zm-4.9 2.93l-.3.4c-.99 1.31-.05 3.2 1.6 3.2h1v-2h-1l.3-.4 -1.6-1.2Zm5 1.2l.3.4h-1v2h1c1.64 0 2.58-1.89 1.6-3.2l-.3-.4 -1.6 1.2Z"/><path d="M4 1c-.56 0-1 .44-1 1v3c0 .55.44 1 1 1h16c.55 0 1-.45 1-1V2c0-.56-.45-1-1-1H4Z"/><path d="M1 9.5C1 8.11 2.11 7 3.5 7H5c.55 0 1 .44 1 1v3c0 .55-.45 1-1 1H3.5C2.11 12 1 10.88 1 9.5ZM3.5 9c-.28 0-.5.22-.5.5 0 .27.22.5.5.5H4V9h-.5Z"/><path d="M23 9.5C23 8.11 21.88 7 20.5 7H19c-.56 0-1 .44-1 1v3c0 .55.44 1 1 1h1.5c1.38 0 2.5-1.12 2.5-2.5ZM20.5 9c.27 0 .5.22.5.5 0 .27-.23.5-.5.5H20V9h.5Z"/></g></svg>