<svg viewBox="0 0 24 24" xmlns="http://www.w3.org/2000/svg"><g fill-rule="evenodd"><path d="M10.16 1l-.18 1.14 -.84 5.85h5.69l-.84-5.86 -.17-1.15h-3.69ZM8.13 1l-.14.84 -.01-.01 -.01.01 -.88 6.14h-5l.87-6.15c.07-.5.49-.86.98-.86h4.14Zm-1.3 9h-5l-.84 5.85c-.05.28.04.57.23.79 .18.21.46.34.75.34h3.99v-1c0-.05 0-.1.01-.15l.83-5.86Zm1.15 7h8v-.93l-.87-6.08H8.84l-.87 6.07v.92Zm9.15-7l.83 5.85c0 .04.01.09.01.14v1h4c.28 0 .56-.13.75-.35 .18-.22.27-.51.23-.8l-.84-5.86h-5Zm-1.29-9l.12.85 .87 6.14h5l-.88-6.15c-.08-.5-.5-.86-.99-.86h-4.14Z"/><path d="M9 15c-.56 0-1 .44-1 1v6c0 .55.44 1 1 1h6c.55 0 1-.45 1-1v-6c0-.56-.45-1-1-1H9Z"/><path d="M18 23H6v-2h12v2Z"/></g></svg>