<svg viewBox="0 0 24 24" xmlns="http://www.w3.org/2000/svg"><g fill-rule="evenodd"><path d="M5 17.66c0-2.74 2.67-4.66 5.26-3.8l.47.15c.82.27 1.7.27 2.52 0l.47-.16c2.59-.87 5.26 1.06 5.26 3.79v.17c0 1.72-1.11 3.25-2.74 3.79l-2.37.78c-1.24.41-2.57.41-3.8 0l-2.37-.79c-1.64-.55-2.74-2.08-2.74-3.8v-.18Zm3.55.23l.76.38c1.68.84 3.67.84 5.36 0l.76-.39 -.9-1.79 -.77.38c-1.13.56-2.46.56-3.58 0l-.77-.39 -.9 1.78Z"/><path d="M7 1c2.2 0 4 1.79 4 4v2c0 .55-.45 1-1 1H6C3.79 8 2 6.2 2 4V2c0-.56.44-1 1-1h4Z"/><path d="M12 7.58l1.29-1.3 1.41 1.41 -1.71 1.7v5.58h-2V9.38L9.28 7.67l1.41-1.42 1.29 1.29Z"/><path d="M17 1c-2.21 0-4 1.79-4 4v2c0 .55.44 1 1 1h4c2.2 0 4-1.8 4-4V2c0-.56-.45-1-1-1h-4Z"/></g></svg>