<svg viewBox="0 0 24 24" xmlns="http://www.w3.org/2000/svg"><path fill-rule="evenodd" d="M12 2c-.69-.73-.69-.73-.69-.73l-.01 0 -.01 0 -.01 0 -.02.01 -.08.06c-.07.05-.15.14-.27.25 -.23.22-.55.54-.93.93 -.77.79-1.79 1.89-2.81 3.14C6.15 6.9 5.11 8.31 4.32 9.72c-.78 1.37-1.38 2.86-1.38 4.22 0 4.97 4.02 9 9 9 4.97 0 9-4.03 9-9 0-1.37-.61-2.86-1.38-4.23 -.79-1.41-1.83-2.82-2.85-4.07 -1.03-1.26-2.05-2.36-2.81-3.15 -.39-.4-.71-.72-.93-.94 -.12-.12-.21-.2-.27-.26l-.08-.07 -.02-.02 -.01-.01 -.01-.01 -.01-.01c-.01-.01-.01-.01-.69.72Zm0 0l.68-.73c-.39-.37-.99-.37-1.38 0l.68.72Zm.26 5.03c.43.11.73.51.73.96v2.63l2.64.37c.32.04.61.25.75.55 .14.29.13.65-.04.93l-3.5 6c-.23.39-.69.57-1.13.46 -.44-.12-.74-.52-.74-.97v-2.64l-2.65-.38c-.33-.05-.62-.26-.76-.56 -.15-.3-.14-.66.03-.94l3.49-6c.22-.4.68-.58 1.12-.47Z"/></svg>