<svg viewBox="0 0 24 24" xmlns="http://www.w3.org/2000/svg"><g fill="#9545ED" fill-rule="evenodd"><path d="M7.79 10.29c.39-.4 1.02-.4 1.41 0l6.99 7c.39.39.39 1.02 0 1.41 -.4.39-1.03.39-1.42 0l-7.01-7c-.4-.4-.4-1.03 0-1.42Z"/><path d="M16.2 10.29c-.4-.4-1.03-.4-1.42 0l-7.01 7c-.4.39-.4 1.02 0 1.41 .39.39 1.02.39 1.41 0l6.99-7c.39-.4.39-1.03 0-1.42Z"/><path d="M1 2c0-.56.44-1 1-1h20c.55 0 1 .44 1 1v20c0 .55-.45 1-1 1H2c-.56 0-1-.45-1-1V2Zm2 1v18h18V3H3Z"/><path fill="#3747D6" d="M1 2c0-.56.44-1 1-1h20c.55 0 1 .44 1 1v5c0 .55-.45 1-1 1H2c-.56 0-1-.45-1-1V2Zm2 1v3h18V3H3Z"/><path d="M6.5 5.5h-2v-2h2v2Z"/><path d="M10.5 5.5h-2v-2h2v2Z"/><path d="M14.5 5.5h-2v-2h2v2Z"/><path fill="#3747D6" d="M12 10.5c-2.21 0-4 1.79-4 4 0 2.2 1.79 4 4 4 2.2 0 4-1.8 4-4 0-2.21-1.8-4-4-4Zm-6 4c0-3.32 2.68-6 6-6 3.31 0 6 2.68 6 6 0 3.31-2.69 6-6 6 -3.32 0-6-2.69-6-6Z"/></g></svg>