<svg viewBox="0 0 24 24" xmlns="http://www.w3.org/2000/svg"><g fill="#9545ED" fill-rule="evenodd"><path d="M1 2c0-.56.44-1 1-1h20c.55 0 1 .44 1 1v20c0 .55-.45 1-1 1H2c-.56 0-1-.45-1-1V2Zm2 1v18h18V3H3Z"/><path fill="#3747D6" d="M1 2c0-.56.44-1 1-1h20c.55 0 1 .44 1 1v5c0 .55-.45 1-1 1H2c-.56 0-1-.45-1-1V2Zm2 1v3h18V3H3Z"/><path d="M6.5 5.5h-2v-2h2v2Z"/><path d="M10.5 5.5h-2v-2h2v2Z"/><path d="M14.5 5.5h-2v-2h2v2Z"/><g fill="#3747D6"><path d="M14.793 18.7l-7.01-7 1.41-1.42 7 7 -1.42 1.41Z"/><path d="M9.2 18.7l6.99-7 -1.42-1.42 -7 7 1.41 1.41Z"/></g></g></svg>