<svg viewBox="0 0 24 24" xmlns="http://www.w3.org/2000/svg"><g fill="#9545ED" fill-rule="evenodd"><path d="M1 2c0-.56.44-1 1-1h20c.55 0 1 .44 1 1v20c0 .55-.45 1-1 1H2c-.56 0-1-.45-1-1V2Zm2 1v18h18V3H3Z"/><path fill="#3747D6" d="M1 2c0-.56.44-1 1-1h20c.55 0 1 .44 1 1v5c0 .55-.45 1-1 1H2c-.56 0-1-.45-1-1V2Zm2 1v3h18V3H3Z"/><path d="M6.5 5.5h-2v-2h2v2Z"/><path d="M10.5 5.5h-2v-2h2v2Z"/><path d="M14.5 5.5h-2v-2h2v2Z"/><path fill="#3747D6" d="M5.5 13c0-2.21 1.79-4 4-4h5c2.2 0 4 1.79 4 4v.5c0 2.2-1.8 4-4 4h-1.14l-2.73 2.26c-.3.24-.72.3-1.07.13 -.36-.17-.58-.52-.58-.91v-1.54c-1.98-.25-3.5-1.93-3.5-3.97v-.5Zm4-2c-1.11 0-2 .89-2 2v.5c0 1.1.89 2 2 2h.5c.55 0 1 .44 1 1v.36l1.35-1.14c.17-.15.4-.24.64-.24h1.5c1.1 0 2-.9 2-2v-.5c0-1.11-.9-2-2-2h-5Z"/></g></svg>