<svg viewBox="0 0 24 24" xmlns="http://www.w3.org/2000/svg"><g fill="#3747D6" fill-rule="evenodd"><path d="M13 3c-2.58 0-4.71 1.95-4.98 4.45 -.04.32-.23.61-.52.76 -.29.15-.63.16-.93.02 -.33-.17-.71-.26-1.1-.26 -1.39 0-2.5 1.11-2.5 2.5 0 1.38 1.11 2.5 2.5 2.5h14c1.38 0 2.5-1.12 2.5-2.5 0-1.39-1.12-2.5-2.5-2.5 -.15 0-.28.01-.42.03 -.27.04-.54-.02-.75-.18 -.22-.16-.37-.4-.41-.66 -.39-2.39-2.45-4.21-4.94-4.21ZM6.27 6.06C7.1 3.13 9.8.99 12.99.99c3.17 0 5.852 2.11 6.71 5 2.38.11 4.28 2.08 4.28 4.49 0 2.48-2.02 4.5-4.5 4.5h-14c-2.49 0-4.5-2.02-4.5-4.5 0-2.49 2.01-4.5 4.5-4.5 .26 0 .52.02.77.06Z"/><g fill="#9545ED"><path d="M10.88 15.07c.37.15.61.51.61.92v6h-2V18.4l-.8.79 -1.42-1.42 2.49-2.5c.28-.29.71-.38 1.08-.22Z"/><path d="M13.11 22.92c-.38-.16-.62-.52-.62-.93v-6h2v3.58l.79-.8 1.41 1.41 -2.5 2.5c-.29.28-.72.37-1.09.21Z"/></g></g></svg>