<svg viewBox="0 0 24 24" xmlns="http://www.w3.org/2000/svg"><g fill="#9545ED" fill-rule="evenodd"><path d="M12 18c-.28 0-.5.22-.5.5 0 .27.22.5.5.5 .27 0 .5-.23.5-.5 0-.28-.23-.5-.5-.5Zm-2.5.5c0-1.39 1.11-2.5 2.5-2.5 1.38 0 2.5 1.11 2.5 2.5 0 1.38-1.12 2.5-2.5 2.5 -1.39 0-2.5-1.12-2.5-2.5Z"/><path fill="#3747D6" d="M3.05 21h17.89c-.5-4.5-4.32-8-8.95-8 -4.64 0-8.45 3.5-8.95 8ZM.99 22c0-6.08 4.92-11 11-11 6.07 0 11 4.92 11 11 0 .55-.45 1-1 1h-20c-.56 0-1-.45-1-1Z"/><path d="M13 10v7h-2v-7h2Z"/><g fill="#3747D6"><path d="M16 9h3c.55 0 1-.45 1-1V5h-2v2h-2v2Z"/><path d="M13 3.41l5.29 5.29 1.41-1.42 -6-6c-.4-.4-1.03-.4-1.42 0l-3.3 3.29 -3.3-3.3 -1.42 1.41 4 4c.39.39 1.02.39 1.41 0l3.29-3.3Z"/></g></g></svg>