<svg viewBox="0 0 24 24" xmlns="http://www.w3.org/2000/svg"><g fill="#9545ED" fill-rule="evenodd"><path d="M1 2c0-.56.44-1 1-1h20c.55 0 1 .44 1 1v20c0 .55-.45 1-1 1H2c-.56 0-1-.45-1-1V2Zm2 1v18h18V3H3Z"/><path fill="#3747D6" d="M1 2c0-.56.44-1 1-1h20c.55 0 1 .44 1 1v5c0 .55-.45 1-1 1H2c-.56 0-1-.45-1-1V2Zm2 1v3h18V3H3Z"/><path d="M6.5 5.5h-2v-2h2v2Z"/><path d="M10.5 5.5h-2v-2h2v2Z"/><path d="M14.5 5.5h-2v-2h2v2Z"/><g fill="#3747D6"><path d="M11 17V9.5h2V17h-2Z"/><path d="M12 15.58l-2.3-2.3 -1.42 1.41 3 3c.39.39 1.02.39 1.41 0l3-3 -1.42-1.42 -2.3 2.29Z"/><path d="M17 20.5H7v-2h10v2Z"/></g></g></svg>