<svg viewBox="0 0 24 24" xmlns="http://www.w3.org/2000/svg"><g fill="#9545ED" fill-rule="evenodd"><path d="M1 2c0-.56.44-1 1-1h20c.55 0 1 .44 1 1v20c0 .55-.45 1-1 1H2c-.56 0-1-.45-1-1V2Zm2 1v18h18V3H3Z"/><path fill="#3747D6" d="M1 2c0-.56.44-1 1-1h20c.55 0 1 .44 1 1v5c0 .55-.45 1-1 1H2c-.56 0-1-.45-1-1V2Zm2 1v3h18V3H3Z"/><path d="M6.5 5.5h-2v-2h2v2Z"/><path d="M10.5 5.5h-2v-2h2v2Z"/><path d="M14.5 5.5h-2v-2h2v2Z"/><g fill="#3747D6"><path d="M7 13c-.56 0-1 .44-1 1v1c0 .55.44 1 1 1h4.5c.55 0 1-.45 1-1v-.5h2v.5c0 1.65-1.35 3-3 3H7c-1.66 0-3-1.35-3-3v-1c0-1.66 1.34-3 3-3h1v2H7Z"/><path d="M17 16c.55 0 1-.45 1-1v-1c0-.56-.45-1-1-1h-4.5c-.56 0-1 .44-1 1v.5h-2V14c0-1.66 1.34-3 3-3H17c1.65 0 3 1.34 3 3v1c0 1.65-1.35 3-3 3h-1v-2h1Z"/></g></g></svg>