<svg viewBox="0 0 24 24" xmlns="http://www.w3.org/2000/svg"><g fill="#3747D6" fill-rule="evenodd"><path d="M11.49 8.72c-.3.65-.5 1.63-.5 2.77 0 1.13.2 2.11.49 2.77 .14.33.29.53.41.64 .04.03.07.05.08.07 .01-.02.04-.04.08-.08 .11-.11.26-.32.41-.65 .29-.66.49-1.64.49-2.78s-.21-2.12-.5-2.78c-.15-.34-.3-.54-.42-.65 -.05-.04-.08-.06-.09-.08 -.02.01-.05.03-.09.07 -.12.1-.27.31-.42.64Zm.52-.73s-.01 0-.01 0c0-.01 0-.01 0-.01Zm-.05 0c-.01-.01-.01-.01-.01-.01 0-.01 0 0 0 0Zm-.01 7c0-.01 0-.01 0-.01 -.01 0-.01 0-.01 0Zm.04-.01s0 0 0 0 -.01-.01-.01-.01ZM10.5 6.6c.36-.36.86-.63 1.46-.63s1.09.27 1.46.62c.36.34.64.79.86 1.28 .43.96.67 2.23.67 3.58 0 1.34-.25 2.61-.68 3.58 -.22.48-.5.93-.87 1.28s-.87.62-1.47.62c-.61 0-1.1-.28-1.47-.63 -.37-.35-.65-.8-.87-1.29 -.44-.97-.68-2.24-.68-3.59 0-1.35.24-2.62.67-3.59 .21-.49.49-.94.86-1.29Z"/><path d="M7 10.5h10v2H7v-2Z"/><path fill="#9545ED" d="M12 7.5c-2.21 0-4 1.79-4 4 0 2.2 1.79 4 4 4 2.2 0 4-1.8 4-4 0-2.21-1.8-4-4-4Zm-6 4c0-3.32 2.68-6 6-6 3.31 0 6 2.68 6 6 0 3.31-2.69 6-6 6 -3.32 0-6-2.69-6-6Z"/><path d="M11.64 1.06c.22-.09.47-.09.7 0l8 3c.39.14.64.51.64.93v9.13c0 1.81-.9 3.5-2.39 4.53l-6.05 4.15c-.35.23-.8.23-1.14 0l-6.05-4.16c-1.5-1.03-2.39-2.73-2.39-4.54V4.96c0-.42.25-.79.64-.94l8-3ZM4.99 5.68v8.43c0 1.15.56 2.23 1.51 2.88l5.48 3.76 5.48-3.77c.94-.66 1.51-1.74 1.51-2.89V5.65l-7-2.625 -7 2.625Z"/></g></svg>