<svg viewBox="0 0 24 24" xmlns="http://www.w3.org/2000/svg"><g fill="#9545ED" fill-rule="evenodd"><path d="M1 2c0-.56.44-1 1-1h20c.55 0 1 .44 1 1v20c0 .55-.45 1-1 1H2c-.56 0-1-.45-1-1V2Zm2 1v18h18V3H3Z"/><path fill="#3747D6" d="M1 2c0-.56.44-1 1-1h20c.55 0 1 .44 1 1v5c0 .55-.45 1-1 1H2c-.56 0-1-.45-1-1V2Zm2 1v3h18V3H3Z"/><path d="M6.5 5.5h-2v-2h2v2Z"/><path d="M10.5 5.5h-2v-2h2v2Z"/><path d="M14.5 5.5h-2v-2h2v2Z"/><g fill="#3747D6"><path d="M4 11c0-.56.44-1 1-1h4v2H6v1.5h2c.55 0 1 .44 1 1V18c0 .55-.45 1-1 1H4v-2h3v-1.5H5c-.56 0-1-.45-1-1V11Z"/><path d="M15 11c0-.56.44-1 1-1h3c.55 0 1 .44 1 1v7c0 .55-.45 1-1 1h-3c-.56 0-1-.45-1-1v-7Zm2 1v5h1v-5h-1Z"/><path d="M9.5 11c0-.56.44-1 1-1H14v2h-2.5v1.5H14v2h-2.5V17H14v2h-3.5c-.56 0-1-.45-1-1v-7Z"/></g></g></svg>