<svg viewBox="0 0 24 24" xmlns="http://www.w3.org/2000/svg"><g fill="#9545ED" fill-rule="evenodd"><path d="M12 9c-.56 0-1 .44-1 1 0 .55.44 1 1 1 .55 0 1-.45 1-1 0-.56-.45-1-1-1Zm-3 1c0-1.66 1.34-3 3-3 1.65 0 3 1.34 3 3 0 1.65-1.35 3-3 3 -1.66 0-3-1.35-3-3Z"/><path d="M9.17 15h5.65c-.42-1.17-1.53-2-2.83-2 -1.31 0-2.42.83-2.83 2Zm-2.18 1c0-2.77 2.23-5 5-5 2.76 0 5 2.23 5 5 0 .55-.45 1-1 1h-8c-.56 0-1-.45-1-1Z"/><path fill="#3747D6" d="M12 5c-3.87 0-7 3.13-7 7 0 3.86 3.13 7 7 7 3.86 0 7-3.14 7-7 0-3.87-3.14-7-7-7Zm-9 7c0-4.98 4.02-9 9-9 4.97 0 9 4.02 9 9 0 4.97-4.03 9-9 9 -4.98 0-9-4.03-9-9Z"/><path d="M11 22v-4h2v4h-2Z"/><path d="M11 6V2h2v4h-2Z"/><path d="M18 11h4v2h-4v-2Z"/><path d="M6 13H2v-2h4v2Z"/></g></svg>