<svg viewBox="0 0 24 24" xmlns="http://www.w3.org/2000/svg"><g fill="#9545ED" fill-rule="evenodd"><path d="M1 2c0-.56.44-1 1-1h20c.55 0 1 .44 1 1v20c0 .55-.45 1-1 1H2c-.56 0-1-.45-1-1V2Zm2 1v18h18V3H3Z"/><path fill="#3747D6" d="M1 2c0-.56.44-1 1-1h20c.55 0 1 .44 1 1v5c0 .55-.45 1-1 1H2c-.56 0-1-.45-1-1V2Zm2 1v3h18V3H3Z"/><path d="M6.5 5.5h-2v-2h2v2Z"/><path d="M10.5 5.5h-2v-2h2v2Z"/><path d="M14.5 5.5h-2v-2h2v2Z"/><path fill="#3747D6" d="M11.4 9.2c.35-.27.84-.27 1.2 0l4 3c.25.18.4.48.4.8v6c0 .55-.45 1-1 1H8c-.56 0-1-.45-1-1v-6c0-.32.14-.62.4-.8l4-3ZM9 13.5V18h6v-4.5l-3-2.25 -3 2.25Z"/></g></svg>