<svg viewBox="0 0 24 24" xmlns="http://www.w3.org/2000/svg"><g fill="#3747D6" fill-rule="evenodd"><path d="M4 2.99c-.56 0-1 .44-1 1v16c0 .55.44 1 1 1h1v2H4c-1.66 0-3-1.35-3-3v-16C1 2.33 2.34.98 4 .98h4.72c.75-.001 1.47.28 2.02.78l4.77 4.37c.61.56.97 1.37.97 2.21v1.62h-2V8.33c0-.29-.12-.55-.33-.74L9.37 3.21c-.19-.17-.43-.27-.68-.27H3.96Z"/><path d="M8.5 5.5V2h2v3.5c0 .55.44 1 1 1H15v2h-3.5c-1.66 0-3-1.35-3-3Z"/><path fill="#9545ED" d="M13.79 14c-1.95 0-3.46 1.5-3.46 3.27 0 .05 0 .11 0 .17 .01.27-.09.54-.28.74 -.19.19-.46.31-.73.31h-.01c-.79 0-1.35.59-1.35 1.25 0 .65.56 1.25 1.34 1.25h9.37c.21 0 .4-.05.58-.13 .02-.02.04-.03.07-.03 .97-.35 1.62-1.23 1.62-2.23 0-1.28-1.09-2.375-2.52-2.375 -.19 0-.36.01-.53.05 -.44.08-.88-.12-1.08-.51 -.57-1.06-1.73-1.8-3.09-1.8Zm-5.42 2.63c.32-2.65 2.65-4.64 5.41-4.64 1.84 0 3.481.88 4.47 2.25 .07-.01.14-.01.21-.01 2.45 0 4.51 1.92 4.51 4.375 0 1.89-1.24 3.47-2.92 4.09 -.42.18-.89.28-1.37.28H9.3c-1.81 0-3.35-1.42-3.35-3.25 0-1.5 1.02-2.72 2.38-3.12Z"/></g></svg>