<svg viewBox="0 0 24 24" xmlns="http://www.w3.org/2000/svg"><g fill="#3747D6" fill-rule="evenodd"><path d="M6 3c-.56 0-1 .44-1 1v16c0 .55.44 1 1 1h12c.55 0 1-.45 1-1V8.91c0-.3-.13-.57-.35-.76l-5.74-4.92c-.19-.16-.42-.25-.66-.25H5.98ZM3 4c0-1.66 1.34-3 3-3h6.26c.71 0 1.4.25 1.95.72l5.73 4.91c.66.56 1.04 1.4 1.04 2.27v11.08c0 1.65-1.35 3-3 3h-12c-1.66 0-3-1.35-3-3v-16Z"/><path d="M12 6V2.5h2V6c0 .55.44 1 1 1h4.5v2H15c-1.66 0-3-1.35-3-3Z"/><g fill="#9545ED"><path d="M7.5 12.5c0-1.39 1.11-2.5 2.5-2.5h.5v2H10c-.28 0-.5.22-.5.5v1c0 .26-.11.51-.3.7l-.8.79 .79.79c.18.18.29.44.29.7v1c0 .27.22.5.5.5h.5v2h-.5c-1.39 0-2.5-1.12-2.5-2.5v-.59l-1.21-1.21c-.4-.4-.4-1.03 0-1.42l1.2-1.21v-.59Z"/><path d="M16.5 12.5c0-1.39-1.12-2.5-2.5-2.5h-.5v2h.5c.27 0 .5.22.5.5v1c0 .26.1.51.29.7l.79.79 -.8.79c-.19.18-.3.44-.3.7v1c0 .27-.23.5-.5.5h-.5v2h.5c1.38 0 2.5-1.12 2.5-2.5v-.59l1.2-1.21c.39-.4.39-1.03 0-1.42l-1.21-1.21v-.59Z"/></g></g></svg>