<svg viewBox="0 0 24 24" xmlns="http://www.w3.org/2000/svg"><g fill="#3747D6" fill-rule="evenodd"><path d="M4 3c-.56 0-1 .44-1 1v16c0 .55.44 1 1 1h6.5v2H4c-1.66 0-3-1.35-3-3V4c0-1.66 1.34-3 3-3h4.72c.75 0 1.47.28 2.02.78l4.77 4.37c.61.56.97 1.37.97 2.21v1.62h-2V8.35c0-.29-.12-.55-.33-.74L9.37 3.23c-.19-.17-.43-.27-.68-.27H3.96Z"/><path d="M8.5 5.5V2h2v3.5c0 .55.44 1 1 1H15v2h-3.5c-1.66 0-3-1.35-3-3Z"/><g fill="#9545ED"><path d="M12 12c0-.56.44-1 1-1h5.5c.2 0 .41.06.58.18l3.5 2.5c.26.18.41.49.41.81v7.5c0 .55-.45 1-1 1h-9c-.56 0-1-.45-1-1v-10Zm2 1v8h7v-5.99l-2.83-2.02h-4.18Z"/><path d="M14.5 18.5c0-.56.44-1 1-1h4c.55 0 1 .44 1 1V22c0 .55-.45 1-1 1h-4c-.56 0-1-.45-1-1v-3.5Zm2 1V21h2v-1.5h-2Z"/></g></g></svg>