<svg viewBox="0 0 24 24" xmlns="http://www.w3.org/2000/svg"><g fill="#3747D6" fill-rule="evenodd"><path d="M6 3c-.56 0-1 .44-1 1v16c0 .55.44 1 1 1h12c.55 0 1-.45 1-1V8.91c0-.3-.13-.57-.35-.76l-5.74-4.92c-.19-.16-.42-.25-.66-.25H5.98ZM3 4c0-1.66 1.34-3 3-3h6.26c.71 0 1.4.25 1.95.72l5.73 4.91c.66.56 1.04 1.4 1.04 2.27v11.08c0 1.65-1.35 3-3 3h-12c-1.66 0-3-1.35-3-3v-16Z"/><path d="M12 6V2.5h2V6c0 .55.44 1 1 1h4.5v2H15c-1.66 0-3-1.35-3-3Z"/><path d="M7.37 14.21l2.5-2 1.24 1.56 -1.53 1.21 1.52 1.21 -1.25 1.56 -2.5-2c-.24-.19-.38-.48-.38-.79 0-.31.13-.6.37-.79Z"/><g fill="#9545ED"><path d="M14.5 12c-.28 0-.5.22-.5.5v.5h-2v-.5c0-1.39 1.11-2.5 2.5-2.5 1.38 0 2.5 1.11 2.5 2.5v.69c0 .83-.42 1.61-1.12 2.08l-.17.1c-.14.09-.23.24-.23.41v.69h-2v-.7c0-.84.41-1.62 1.11-2.09l.16-.11c.13-.1.22-.25.22-.42v-.7c0-.28-.23-.5-.5-.5Z"/><path d="M13.5 19.5v-1h2v1h-2Z"/></g></g></svg>