<svg viewBox="0 0 24 24" xmlns="http://www.w3.org/2000/svg"><g fill-rule="evenodd"><path d="M12 2.5c-3.32 0-6 2.68-6 6 0 2.89 1.55 6.16 3.17 8.76 .8 1.28 1.6 2.39 2.2 3.17 .24.31.45.58.61.78 .16-.21.37-.47.61-.79 .6-.79 1.4-1.89 2.2-3.18 1.61-2.61 3.17-5.88 3.17-8.77 0-3.32-2.69-6-6-6ZM12 22c-.38.32-.38.32-.38.32l-.01-.01 -.01-.01 -.02-.02c-.02-.02-.04-.04-.06-.07 -.05-.06-.13-.15-.22-.26 -.19-.22-.44-.54-.75-.94 -.62-.8-1.44-1.94-2.27-3.26 -1.64-2.63-3.33-6.11-3.33-9.3 0-3.87 3.13-7 7-7 3.86 0 7 3.13 7 7 0 3.19-1.7 6.67-3.33 9.29 -.83 1.32-1.65 2.45-2.27 3.25 -.31.4-.57.71-.75.93 -.1.1-.17.19-.22.25 -.03.02-.05.05-.06.06l-.02.01 -.01 0 -.01 0c-.01 0-.01 0-.38-.33Zm0 0l.37.32c-.1.1-.24.17-.38.17 -.15 0-.29-.07-.38-.18l.37-.33Z"/><path d="M15.49 5.53l-.5-.04 -.04-.5c.14-.02.28.04.39.14 .1.1.15.24.14.39Zm-1.06.52c-.32.03-.73.09-1.16.17 -.47.08-.96.2-1.37.34 -.44.14-.73.3-.87.45 -.38.37-.55.8-.55 1.21 0 .41.16.84.54 1.21 .37.37.8.54 1.21.54 .41 0 .84-.17 1.21-.55 .14-.15.3-.44.45-.87 .14-.42.25-.9.34-1.37 .08-.44.13-.85.17-1.16Zm.55-.56c-.04-.5-.04-.5-.04-.5l-.01 0 -.01 0 -.04 0c-.03 0-.07 0-.12.01 -.1 0-.24.02-.41.04 -.34.03-.81.1-1.31.19s-1.04.21-1.51.37c-.47.15-.94.37-1.26.69 -.55.54-.84 1.22-.84 1.92 0 .69.29 1.37.83 1.92 .54.54 1.22.83 1.92.83 .69 0 1.37-.3 1.92-.84 .31-.32.53-.79.69-1.26 .16-.48.28-1.02.37-1.51 .09-.5.15-.97.19-1.31 .01-.18.03-.32.04-.41 0-.05 0-.09.01-.12l0-.04 0-.01 0-.01c0-.01 0 0-.5-.04Z"/><path d="M8.85 12.35l1.99-2 -.71-.71 -2 2 .7.7Z"/></g></svg>