<svg viewBox="0 0 24 24" xmlns="http://www.w3.org/2000/svg"><g fill-rule="evenodd"><path d="M3.5 7c0-.28.22-.5.5-.5h16c.27 0 .5.22.5.5v15c0 .27-.23.5-.5.5H4c-.28 0-.5-.23-.5-.5V7Zm1 .5v14h15v-14h-15Z"/><path d="M22.46 2.18l-2 5 -.93-.38 2-5 .92.37Z"/><path d="M2.46 1.81l2 5 -.93.37 -2-5 .92-.38Z"/><path d="M15.99 11.03l-.5-.04 -.04-.5c.14-.02.28.04.39.14 .1.1.15.24.14.39Zm-1.06.52c-.32.03-.73.09-1.16.17 -.47.08-.96.2-1.37.34 -.44.14-.73.3-.87.45 -.38.37-.55.8-.55 1.21 0 .41.16.84.54 1.21 .37.37.8.54 1.21.54 .41 0 .84-.17 1.21-.55 .14-.15.3-.44.45-.87 .14-.42.25-.9.34-1.37 .08-.44.13-.85.17-1.16Zm.55-.56c-.04-.5-.04-.5-.04-.5l-.01 0 -.01 0 -.04 0c-.03 0-.07 0-.12.01 -.1 0-.24.02-.41.04 -.34.03-.81.1-1.31.19s-1.04.21-1.51.37c-.47.15-.94.37-1.26.69 -.55.54-.84 1.22-.84 1.92 0 .69.29 1.37.83 1.92 .54.54 1.22.83 1.92.83 .69 0 1.37-.3 1.92-.84 .31-.32.53-.79.69-1.26 .16-.48.28-1.02.37-1.51 .09-.5.15-.97.19-1.31 .01-.18.03-.32.04-.41 0-.05 0-.09.01-.12l0-.04 0-.01 0-.01c0-.01 0 0-.5-.04Z"/><path d="M9.35 17.85l1.99-2 -.71-.71 -2 2 .7.7Z"/></g></svg>