<svg viewBox="0 0 24 24" xmlns="http://www.w3.org/2000/svg"><g fill-rule="evenodd"><path d="M4.5 10.5c0-.28.22-.5.5-.5h14c.27 0 .5.22.5.5V17c0 3.03-2.47 5.5-5.5 5.5h-4c-3.04 0-5.5-2.47-5.5-5.5v-6.5Zm1 .5v6c0 2.48 2.01 4.5 4.5 4.5h4c2.48 0 4.5-2.02 4.5-4.5v-6h-13Z"/><path d="M5.5 3.5c0-1.11.89-2 2-2 1.1 0 2 .89 2 2V8c0 .27-.23.5-.5.5H6c-.28 0-.5-.23-.5-.5V3.5Zm2-1c-.56 0-1 .44-1 1v4h2v-4c0-.56-.45-1-1-1Z"/><path d="M14.5 3.5c0-1.11.89-2 2-2 1.1 0 2 .89 2 2V8c0 .27-.23.5-.5.5h-3c-.28 0-.5-.23-.5-.5V3.5Zm2-1c-.56 0-1 .44-1 1v4h2v-4c0-.56-.45-1-1-1Z"/><path d="M15.99 13.03l-.5-.04 -.04-.5c.14-.02.28.04.39.14 .1.1.15.24.14.39Zm-1.06.52c-.32.03-.73.09-1.16.17 -.47.08-.96.2-1.37.34 -.44.14-.73.3-.87.45 -.38.37-.55.8-.55 1.21 0 .41.16.84.54 1.21 .37.37.8.54 1.21.54 .41 0 .84-.17 1.21-.55 .14-.15.3-.44.45-.87 .14-.42.25-.9.34-1.37 .08-.44.13-.85.17-1.16Zm.55-.56c-.04-.5-.04-.5-.04-.5l-.01 0 -.01 0 -.04 0c-.03 0-.07 0-.12.01 -.1 0-.24.02-.41.04 -.34.03-.81.1-1.31.19s-1.04.21-1.51.37c-.47.15-.94.37-1.26.69 -.55.54-.84 1.22-.84 1.92 0 .69.29 1.37.83 1.92 .54.54 1.22.83 1.92.83 .69 0 1.37-.3 1.92-.84 .31-.32.53-.79.69-1.26 .16-.48.28-1.02.37-1.51 .09-.5.15-.97.19-1.31 .01-.18.03-.32.04-.41 0-.05 0-.09.01-.12l0-.04 0-.01 0-.01c0-.01 0 0-.5-.04Z"/><path d="M9.35 19.85l1.99-2 -.71-.71 -2 2 .7.7Z"/><path d="M3 8c0-.28.22-.5.5-.5h17c.27 0 .5.22.5.5v2.5c0 .27-.23.5-.5.5h-17c-.28 0-.5-.23-.5-.5V8Zm1 .5V10h16V8.5H4Z"/></g></svg>