<svg viewBox="0 0 24 24" xmlns="http://www.w3.org/2000/svg"><g fill-rule="evenodd"><path d="M11.71 1.59c.17-.13.4-.13.57 0l10 7c.13.09.21.24.21.4v13c0 .27-.23.5-.5.5h-20c-.28 0-.5-.23-.5-.5v-13c0-.17.07-.32.21-.41l10-7ZM2.49 9.25v12.23h19V9.24l-9.5-6.65 -9.5 6.65Z"/><path d="M12.5 13c0-1.39-1.12-2.5-2.5-2.5H8c-.28 0-.5.22-.5.5v1c0 1.38 1.11 2.5 2.5 2.5h2c.27 0 .5-.23.5-.5v-1ZM10 11.5c.82 0 1.5.67 1.5 1.5v.5H10c-.83 0-1.5-.68-1.5-1.5v-.5H10Z"/><path d="M12.5 13v4h-1v-4h1Z"/><path d="M11.5 13c0-1.39 1.11-2.5 2.5-2.5h2c.27 0 .5.22.5.5v1c0 1.38-1.12 2.5-2.5 2.5h-2c-.28 0-.5-.23-.5-.5v-1Zm2.5-1.5c-.83 0-1.5.67-1.5 1.5v.5H14c.82 0 1.5-.68 1.5-1.5v-.5H14Z"/></g></svg>