<svg viewBox="0 0 24 24" xmlns="http://www.w3.org/2000/svg"><g fill-rule="evenodd"><path d="M9.39 7.033c-.68.33-.9.7-.9.96s.22.63.89.96c.64.32 1.56.53 2.6.53s1.96-.22 2.6-.54c.67-.34.89-.71.89-.97 0-.27-.23-.64-.9-.97 -.65-.33-1.561-.54-2.61-.54 -1.05 0-1.97.21-2.61.53Zm-.45-.9c.8-.41 1.88-.64 3.05-.64 1.16 0 2.24.23 3.05.63 .77.38 1.44 1.01 1.44 1.86 0 .84-.68 1.47-1.45 1.86 -.81.4-1.89.63-3.06.63 -1.17 0-2.25-.24-3.06-.64 -.78-.39-1.45-1.02-1.45-1.87 0-.85.67-1.48 1.44-1.87Z"/><path d="M8.5 8v8.5c0 .26.22.63.89.96 .64.32 1.56.53 2.6.53s1.96-.22 2.6-.54c.67-.34.89-.71.89-.97v-8.5h1v8.5c0 .84-.68 1.47-1.45 1.86 -.81.4-1.89.63-3.06.63 -1.17 0-2.25-.24-3.06-.64 -.78-.39-1.45-1.02-1.45-1.87v-8.5h1Z"/><path d="M12.37 11.66l-.38.33 -.38-.34c.09-.11.23-.17.37-.17 .14 0 .27.06.37.16Zm-.38 1.11c-.11.13-.23.28-.35.45 -.19.25-.36.51-.48.75 -.14.25-.18.42-.18.51 0 .55.44 1 1 1 .55 0 1-.45 1-1 0-.09-.05-.26-.18-.52 -.13-.25-.3-.51-.48-.76 -.12-.17-.24-.32-.35-.46Zm0-.78c-.38-.34-.38-.34-.38-.34l-.01 0 -.01 0 -.02.01c-.02.01-.03.03-.06.05 -.05.04-.11.12-.18.2 -.15.17-.35.41-.54.69 -.2.27-.4.57-.56.88 -.15.28-.29.63-.29.96 0 1.1.89 2 2 2 1.1 0 2-.9 2-2 0-.34-.15-.69-.29-.97 -.16-.31-.36-.62-.56-.89 -.2-.28-.4-.52-.54-.7 -.08-.09-.14-.16-.18-.21 -.03-.03-.04-.05-.06-.06l-.02-.02 -.01-.01 -.01-.01c0-.01 0 0-.38.33Z"/><path d="M12 2.5c-5.25 0-9.5 4.25-9.5 9.5 0 5.24 4.25 9.5 9.5 9.5 5.24 0 9.5-4.26 9.5-9.5 0-5.25-4.26-9.5-9.5-9.5ZM1.5 12C1.5 6.2 6.2 1.5 12 1.5c5.79 0 10.5 4.7 10.5 10.5 0 5.79-4.71 10.5-10.5 10.5 -5.8 0-10.5-4.71-10.5-10.5Z"/><path d="M18.64 19.35l-14-14 .7-.71 14 14 -.71.7Z"/></g></svg>