<svg viewBox="0 0 24 24" xmlns="http://www.w3.org/2000/svg"><g fill-rule="evenodd"><path d="M12 2.5c-5.25 0-9.5 4.25-9.5 9.5 0 5.24 4.25 9.5 9.5 9.5 5.24 0 9.5-4.26 9.5-9.5 0-5.25-4.26-9.5-9.5-9.5ZM1.5 12C1.5 6.2 6.2 1.5 12 1.5c5.79 0 10.5 4.7 10.5 10.5 0 5.79-4.71 10.5-10.5 10.5 -5.8 0-10.5-4.71-10.5-10.5Z"/><path d="M18.64 19.35l-14-14 .7-.71 14 14 -.71.7Z"/><path d="M6.5 6c0-.28.22-.5.5-.5h2.55c.27 0 .49.22.49.5v2.5h3.88V6c0-.28.22-.5.5-.5h2.55c.27 0 .5.22.5.5v12c0 .27-.23.5-.5.5h-10c-.28 0-.5-.23-.5-.5V6Zm1 .5v11h9v-11h-1.56V9c0 .27-.23.5-.5.5H9.55c-.28 0-.5-.23-.5-.5V6.5H7.49Z"/><path d="M12.5 7v2h-1V7h1Z"/></g></svg>