<svg viewBox="0 0 24 24" xmlns="http://www.w3.org/2000/svg"><g fill-rule="evenodd"><path d="M10.68 3.33c.57-1.03 2.05-1.03 2.62 0l3.57 6.42c.13.24.04.54-.2.67 -.25.13-.55.04-.68-.2l-3.58-6.43c-.2-.35-.69-.35-.88-.001L10.18 6.2c-.14.24-.44.32-.68.19 -.25-.14-.33-.44-.2-.68l1.34-2.43Zm-4.56 9.23c.24.13.32.43.19.67l-3.07 5.51c-.19.33.05.74.43.74h1.3c.27 0 .5.22.5.5 0 .27-.23.5-.5.5H3.66c-1.15 0-1.87-1.23-1.32-2.23l3.06-5.52c.13-.25.43-.33.67-.2Zm13.4 3c.24-.14.54-.05.67.19l1.39 2.51c.55.99-.17 2.22-1.32 2.22h-7.31c-.28 0-.5-.23-.5-.5 0-.28.22-.5.5-.5h7.3c.38 0 .62-.41.43-.75l-1.4-2.52c-.14-.25-.05-.55.19-.68Z"/><path d="M13.23 17.55c.16.08.26.25.26.44v4c0 .18-.11.35-.27.44 -.17.08-.36.07-.52-.03l-3-2c-.14-.1-.23-.25-.23-.42 0-.17.08-.33.22-.42l2.99-2c.15-.11.35-.12.51-.03Zm-2.34 2.44l1.59 1.06v-2.14l-1.6 1.06Z"/><path d="M7.5 14.19c-.17.08-.37.06-.52-.04l-3.28-2.3c-.16-.11-.24-.29-.22-.47 .02-.19.14-.34.31-.41l3.35-1.32c.15-.07.33-.05.46.05 .13.09.21.25.21.42l-.08 3.6c-.01.18-.11.35-.28.43Zm-.67-3.32l-1.79.7 1.74 1.22 .04-1.93Z"/><path d="M18.5 8.55c-.17-.09-.37-.07-.52.03l-3.28 2.29c-.16.1-.24.28-.22.46 .02.18.14.33.31.4l3.35 1.31c.15.06.33.04.46-.06s.21-.26.21-.43l-.08-3.61c-.01-.19-.11-.36-.28-.44Zm-.67 3.31l-1.79-.71 1.74-1.23 .04 1.92Z"/></g></svg>