<svg viewBox="0 0 24 24" xmlns="http://www.w3.org/2000/svg"><g fill-rule="evenodd"><path d="M10.8 12.76c.6-.8 1.8-.8 2.4 0l.7.93 -.8.6 -.7-.94c-.2-.27-.6-.27-.8 0l-.7.93 -.8-.6 .7-.94Zm-2.01 3.33l.3-.4 .8.6 -.3.4c-.25.32-.02.8.4.8h1v1h-1c-1.24 0-1.95-1.42-1.21-2.4Zm5.6.6l-.3-.4 .8-.6 .3.4c.74.98.03 2.4-1.2 2.4h-1v-1h1c.41 0 .64-.48.4-.8Z"/><path d="M5.5 8c0-.28.22-.5.5-.5h12c.27 0 .5.22.5.5v14c0 .27-.23.5-.5.5H6c-.28 0-.5-.23-.5-.5V8Zm1 .5v13h11v-13h-11Z"/><path d="M9 5c0-.28.22-.5.5-.5h5c.27 0 .5.22.5.5v3c0 .27-.23.5-.5.5h-5c-.28 0-.5-.23-.5-.5V5Zm1 .5v2h4v-2h-4Z"/><path d="M7.52 1.84c.06-.21.25-.35.47-.35h8c.21 0 .4.13.47.34l2 6c.05.15.02.32-.07.45 -.1.13-.25.2-.41.2h-12c-.17 0-.32-.08-.41-.21 -.1-.14-.12-.3-.07-.46l2-6Zm.83.65l-1.67 5h10.61l-1.67-5H8.34Z"/></g></svg>