<svg viewBox="0 0 24 24" xmlns="http://www.w3.org/2000/svg"><g fill-rule="evenodd"><path d="M18.5 16c1.1 0 2 .89 2 2 0 1.1-.9 2-2 2h-7.09c-.4 0-.78-.16-1.07-.44l-4.57-4.57h-1.8c-.28 0-.5-.23-.5-.5v-5c0-.28.22-.5.5-.5h6c.27 0 .5.22.5.5 0 .27-.23.5-.5.5h-5.5v4h1.5c.13 0 .25.05.35.14l4.7 4.7c.09.09.22.14.35.14h7.08c.55 0 1-.45 1-1 0-.56-.45-1-1-1h-5.5c-.14 0-.26-.06-.36-.15l-2-2c-.2-.2-.2-.52 0-.71 .19-.2.51-.2.7 0l1.85 1.85h5.29Z"/><path d="M13.58 16c.81 0 1.22-.99.64-1.57L9.63 9.84c-.2-.2-.2-.52 0-.71 .19-.2.51-.2.7 0l4.58 4.58c1.2 1.2.35 3.26-1.36 3.26 -.51 0-1-.21-1.36-.57l-1.59-1.59c-.2-.2-.2-.52 0-.71 .19-.2.51-.2.7 0l1.58 1.58c.17.17.4.26.64.26Z"/><path d="M17.88 4.17l-.39.32 -.39-.33c.09-.12.23-.18.38-.18 .14 0 .28.06.38.17Zm-.39 1.11c-.23.29-.54.69-.84 1.13 -.31.44-.61.92-.83 1.37 -.23.46-.34.83-.34 1.07 0 1.19.91 2.125 2 2.125 1.08 0 2-.93 2-2.125 0-.25-.12-.62-.34-1.08 -.22-.45-.52-.93-.83-1.38 -.31-.45-.61-.85-.84-1.14Zm0-.8c-.39-.33-.38-.33-.39-.33l-.01 0 -.01 0 -.03.02c-.02.02-.05.05-.09.09 -.08.08-.18.2-.3.35 -.24.3-.56.72-.88 1.19 -.32.46-.65.99-.9 1.49 -.25.49-.45 1.03-.45 1.51 0 1.7 1.32 3.125 3 3.125 1.67 0 3-1.43 3-3.125 0-.49-.2-1.03-.45-1.52 -.25-.51-.58-1.04-.9-1.5 -.33-.47-.65-.89-.88-1.2 -.12-.16-.22-.28-.3-.36 -.04-.05-.07-.08-.09-.1l-.03-.03 -.01-.01 -.01-.01 -.01-.01c-.01-.01 0 0-.39.32Z"/></g></svg>