<svg viewBox="0 0 24 24" xmlns="http://www.w3.org/2000/svg"><g fill-rule="evenodd"><path d="M2 11.5h3v1H2v-1Z"/><path d="M22 12.5h-3v-1h3v1Z"/><path d="M17.14 6.14l2.5-2.5 .7.7 -2.5 2.5 -.71-.71Zm-13.5 13.5l2.5-2.5 .7.7 -2.5 2.5 -.71-.71Z"/><path d="M6.85 6.14l-2.5-2.5 -.71.7 2.5 2.5 .7-.71Zm13.5 13.5l-2.5-2.5 -.71.7 2.5 2.5 .7-.71Z"/><path d="M12 7.5c-2.49 0-4.5 2.01-4.5 4.5 0 2.48 2.01 4.5 4.5 4.5 2.48 0 4.5-2.02 4.5-4.5 0-2.49-2.02-4.5-4.5-4.5ZM6.5 12c0-3.04 2.46-5.5 5.5-5.5 3.03 0 5.5 2.46 5.5 5.5 0 3.03-2.47 5.5-5.5 5.5 -3.04 0-5.5-2.47-5.5-5.5Z"/><path d="M11.5 5V2h1v3h-1Z"/><path d="M11.5 22v-3h1v3h-1Z"/></g></svg>