<svg viewBox="0 0 24 24" xmlns="http://www.w3.org/2000/svg"><g fill-rule="evenodd"><path d="M6.5 16v6h-1v-6h1Z"/><path d="M4.3 2.87c.17-.81.87-1.38 1.69-1.38 .81 0 1.52.57 1.69 1.37l1.82 8.52 -.98.2 -1.83-8.53c-.08-.34-.38-.59-.73-.59s-.65.24-.73.58L2.56 15.45h7.38v1h-8c-.16 0-.3-.07-.39-.19 -.1-.12-.14-.28-.11-.42L4.23 2.81Z"/><path d="M17.5 16v6h1v-6h-1Z"/><path d="M19.69 2.87c-.18-.81-.88-1.38-1.7-1.38s-1.53.57-1.7 1.37l-1.83 8.52 .97.2 1.82-8.53c.07-.34.37-.59.72-.59 .34 0 .64.24.72.58l2.66 12.41h-7.39v1h8c.15 0 .29-.07.38-.19 .09-.12.13-.28.1-.42l-2.8-13.03Z"/><path d="M12.5 16v6h-1v-6h1Z"/><path d="M10.3 2.87c.17-.81.87-1.38 1.69-1.38 .81 0 1.52.57 1.69 1.37l2.79 13.02c.03.14-.01.3-.11.41 -.1.11-.24.18-.39.18h-8c-.16 0-.3-.07-.39-.19 -.1-.12-.14-.28-.11-.42l2.79-13.03Zm1.69-.38c-.35 0-.65.24-.73.58L8.59 15.48h6.763l-2.67-12.42c-.08-.34-.38-.59-.73-.59Z"/></g></svg>