<svg viewBox="0 0 24 24" xmlns="http://www.w3.org/2000/svg"><path fill="#ECEFF1" d="M17.36 4.27c-2.59-1.7-5.96-2.06-8.97-.67 -4.64 2.14-6.66 7.64-4.51 12.28 2.14 4.63 7.64 6.65 12.28 4.5 2.76-1.28 4.59-3.76 5.17-6.53 .1-.5-.15-.91-.47-1.12 -.31-.21-.74-.27-1.12-.09 -1.63.75-3.57.04-4.32-1.59 -.76-1.63-.05-3.57 1.58-4.32 .46-.22.77-.64.87-1.09 .1-.47-.01-1.07-.55-1.43Z"/><path fill="#5E94FF" d="M12.776 14.26c-1.13.52-1.62 1.85-1.1 2.98 .52 1.12 1.85 1.61 2.98 1.09 1.12-.53 1.61-1.86 1.09-2.987 -.53-1.13-1.86-1.62-2.99-1.1Z"/><path fill="#FFC44D" d="M7.7 11.64c-1.13.52-1.62 1.85-1.1 2.987 .52 1.12 1.85 1.61 2.98 1.09 1.12-.53 1.61-1.86 1.09-2.987 -.53-1.13-1.86-1.62-2.99-1.1Z"/><path fill="#EE4D4D" d="M9.44 5.88c-1.13.52-1.62 1.85-1.1 2.98 .52 1.12 1.85 1.61 2.98 1.09 1.12-.53 1.61-1.86 1.09-2.99 -.53-1.13-1.86-1.62-2.99-1.1Z"/></svg>