<svg viewBox="0 0 24 24" xmlns="http://www.w3.org/2000/svg"><path fill="#FF884D" fill-rule="evenodd" d="M6.25 4c0-.97.78-1.75 1.75-1.75h8c.96 0 1.75.78 1.75 1.75v2c0 .41-.34.75-.75.75H7c-.42 0-.75-.34-.75-.75V4ZM8 3.75c-.14 0-.25.11-.25.25v1.25h8.5V4c0-.14-.12-.25-.25-.25H8Z"/><path fill="#FF884D" d="M3 5.25c-.97 0-1.75.78-1.75 1.75v13c0 .96.78 1.75 1.75 1.75h18c.96 0 1.75-.79 1.75-1.75V7c0-.97-.79-1.75-1.75-1.75H3Z"/><path fill="#FFA071" d="M3 5.25c-.97 0-1.75.78-1.75 1.75v4c0 .34.23.64.56.72l8.26 2.06c.21.05.44.08.66.08h2.5c.22 0 .44-.03.66-.09l8.26-2.07c.33-.09.56-.39.56-.73v-4c0-.97-.79-1.75-1.75-1.75h-18Z"/><path fill="#ECEFF1" d="M12 9.75c-1.25 0-2.25 1-2.25 2.25v3c0 1.24 1 2.25 2.25 2.25 1.24 0 2.25-1.01 2.25-2.25v-3c0-1.25-1.01-2.25-2.25-2.25Z"/></svg>