<svg viewBox="0 0 24 24" xmlns="http://www.w3.org/2000/svg"><g fill="#5E94FF"><path d="M18.25 12.75c-1.52 0-2.75 1.23-2.75 2.75 0 1.51 1.23 2.75 2.75 2.75 1.51 0 2.75-1.24 2.75-2.75 0-1.52-1.24-2.75-2.75-2.75Z"/><path d="M18 16.75c-2.08 0-3.75 1.67-3.75 3.75v.5c0 .96.78 1.75 1.75 1.75h4.5c.96 0 1.75-.79 1.75-1.75v-.5c0-2.08-1.68-3.75-3.75-3.75H18Z"/><path d="M11.75 1.25C10.23 1.25 9 2.48 9 4c0 1.51 1.23 2.75 2.75 2.75 1.51 0 2.75-1.24 2.75-2.75 0-1.52-1.24-2.75-2.75-2.75Z"/><path d="M5.25 12.75c-1.52 0-2.75 1.23-2.75 2.75 0 1.51 1.23 2.75 2.75 2.75C6.76 18.25 8 17.01 8 15.5c0-1.52-1.24-2.75-2.75-2.75Z"/><path d="M11.5 5.25C9.42 5.25 7.75 6.92 7.75 9v1c0 .96.78 1.75 1.75 1.75H14c.96 0 1.75-.79 1.75-1.75V9c0-2.08-1.68-3.75-3.75-3.75h-.5Z"/><path d="M5 16.75c-2.08 0-3.75 1.67-3.75 3.75v.5c0 .96.78 1.75 1.75 1.75h4.5c.96 0 1.75-.79 1.75-1.75v-.5c0-2.08-1.68-3.75-3.75-3.75H5Z"/></g><g fill="#7EA9FF"><path d="M11.75 12.75C10.23 12.75 9 13.98 9 15.5c0 1.51 1.23 2.75 2.75 2.75 1.51 0 2.75-1.24 2.75-2.75 0-1.52-1.24-2.75-2.75-2.75Z"/><path d="M11.5 16.75c-2.08 0-3.75 1.67-3.75 3.75v.5c0 .96.78 1.75 1.75 1.75H14c.96 0 1.75-.79 1.75-1.75v-.5c0-2.08-1.68-3.75-3.75-3.75h-.5Z"/></g></svg>