<svg viewBox="0 0 24 24" xmlns="http://www.w3.org/2000/svg"><g fill="#F17171"><path d="M17 9.25c-.42 0-.75.33-.75.75v12c0 .41.33.75.75.75h3.5c.41 0 .75-.34.75-.75V10c0-.42-.34-.75-.75-.75H17Z"/><path d="M3.5 9.25c-.42 0-.75.33-.75.75v12c0 .41.33.75.75.75H7c.41 0 .75-.34.75-.75V10c0-.42-.34-.75-.75-.75H3.5Z"/></g><path fill="#EE4D4D" d="M7 6.25c-.42 0-.75.33-.75.75v15c0 .41.33.75.75.75h10c.41 0 .75-.34.75-.75V7c0-.42-.34-.75-.75-.75H7Z"/><g fill="#ECEFF1"><path d="M10 16.25c-.42 0-.75.33-.75.75v5c0 .41.33.75.75.75h4c.41 0 .75-.34.75-.75v-5c0-.42-.34-.75-.75-.75h-4Z"/><path d="M12.33 1.32c-.22-.11-.46-.11-.68 0l-6.01 3c-.26.12-.42.38-.42.67v2c0 .41.33.75.75.75h12c.41 0 .75-.34.75-.75v-2c0-.29-.17-.55-.42-.68l-6-3Z"/><g fill="#ECEFF1" fill-rule="evenodd"><path d="M1.25 22c0-.42.33-.75.75-.75h20c.41 0 .75.33.75.75 0 .41-.34.75-.75.75H2c-.42 0-.75-.34-.75-.75Z"/><path d="M8.75 10c0-.42.33-.75.75-.75h1c.41 0 .75.33.75.75 0 .41-.34.75-.75.75h-1c-.42 0-.75-.34-.75-.75Z"/><path d="M8.75 13c0-.42.33-.75.75-.75h1c.41 0 .75.33.75.75 0 .41-.34.75-.75.75h-1c-.42 0-.75-.34-.75-.75Z"/><path d="M12.75 10c0-.42.33-.75.75-.75h1c.41 0 .75.33.75.75 0 .41-.34.75-.75.75h-1c-.42 0-.75-.34-.75-.75Z"/><path d="M12.75 13c0-.42.33-.75.75-.75h1c.41 0 .75.33.75.75 0 .41-.34.75-.75.75h-1c-.42 0-.75-.34-.75-.75Z"/></g></g></svg>