<svg viewBox="0 0 24 24" xmlns="http://www.w3.org/2000/svg"><path fill="#EE4D4D" d="M12 1.75c-.42 0-.75.33-.75.75V5c0 .41.33.75.75.75h3c.41 0 .75-.34.75-.75V2.5c0-.42-.34-.75-.75-.75h-3Z"/><path fill="#ECEFF1" fill-rule="evenodd" d="M12 1.25c.41 0 .75.33.75.75v6c0 .41-.34.75-.75.75 -.42 0-.75-.34-.75-.75V2c0-.42.33-.75.75-.75Z"/><g fill="#F17171"><path d="M16 9.25c-.42 0-.75.33-.75.75v12c0 .41.33.75.75.75h4.5c.41 0 .75-.34.75-.75V10c0-.42-.34-.75-.75-.75H16Z"/><path d="M3.5 9.25c-.42 0-.75.33-.75.75v12c0 .41.33.75.75.75H8c.41 0 .75-.34.75-.75V10c0-.42-.34-.75-.75-.75H3.5Z"/></g><path fill="#EE4D4D" d="M8 7.25c-.42 0-.75.33-.75.75v14c0 .41.33.75.75.75h8c.41 0 .75-.34.75-.75V8c0-.42-.34-.75-.75-.75H8Z"/><g fill="#ECEFF1"><path d="M10.5 16.25c-.42 0-.75.33-.75.75v5c0 .41.33.75.75.75h3c.41 0 .75-.34.75-.75v-5c0-.42-.34-.75-.75-.75h-3Z"/><path fill="#ECEFF1" fill-rule="evenodd" d="M1.25 22c0-.42.33-.75.75-.75h20c.41 0 .75.33.75.75 0 .41-.34.75-.75.75H2c-.42 0-.75-.34-.75-.75Z"/></g></svg>