<svg viewBox="0 0 24 24" xmlns="http://www.w3.org/2000/svg"><path fill="#ECEFF1" d="M6 1.25c-.97 0-1.75.78-1.75 1.75v18c0 .96.78 1.75 1.75 1.75h12c.96 0 1.75-.79 1.75-1.75V3c0-.97-.79-1.75-1.75-1.75H6Z"/><g fill="#EE4D4D" fill-rule="evenodd"><path d="M12.25 8c0-.42.33-.75.75-.75h3c.41 0 .75.33.75.75 0 .41-.34.75-.75.75h-3c-.42 0-.75-.34-.75-.75Z"/><g fill="#8B98A6"><path d="M7.25 6c0-.42.33-.75.75-.75h2c.41 0 .75.33.75.75 0 .41-.34.75-.75.75H8c-.42 0-.75-.34-.75-.75Z"/><path d="M7.25 13c0-.42.33-.75.75-.75h8c.41 0 .75.33.75.75 0 .41-.34.75-.75.75H8c-.42 0-.75-.34-.75-.75Z"/><path d="M7.25 17c0-.42.33-.75.75-.75h8c.41 0 .75.33.75.75 0 .41-.34.75-.75.75H8c-.42 0-.75-.34-.75-.75Z"/></g><path d="M14 6.25c-.14 0-.25.11-.25.25v3.41c0 .41-.34.75-.75.75 -.42 0-.75-.34-.75-.76V6.48c0-.97.78-1.75 1.75-1.75h1c.96 0 1.75.78 1.75 1.75v3.41c0 .41-.34.75-.75.75 -.42 0-.75-.34-.75-.76V6.46c0-.14-.12-.25-.25-.25h-1Z"/></g></svg>