<svg viewBox="0 0 24 24" xmlns="http://www.w3.org/2000/svg"><path fill="#FFC44D" d="M12 2.75c-1.35 0-2.53.71-3.19 1.77 -.41-.18-.85-.28-1.32-.28 -1.57 0-2.87 1.1-3.18 2.57 -1.47.31-2.58 1.61-2.58 3.17 0 1.79 1.45 3.25 3.25 3.25h14c1.79 0 3.25-1.46 3.25-3.25 0-1.57-1.11-2.87-2.58-3.18 -.32-1.47-1.62-2.58-3.18-2.58 -.47 0-.92.09-1.32.27 -.67-1.07-1.85-1.78-3.19-1.78Z"/><path fill="#ECEFF1" d="M2 11.75c-.42 0-.75.33-.75.75v2c0 3.72 3.02 6.75 6.75 6.75h8c3.72 0 6.75-3.03 6.75-6.75v-2c0-.42-.34-.75-.75-.75H2Z"/></svg>