<svg viewBox="0 0 24 24" xmlns="http://www.w3.org/2000/svg"><path fill="#F17171" d="M9 2.25c-.42 0-.75.33-.75.75v3c0 .41.33.75.75.75h5.5c.41 0 .75-.34.75-.75V3c0-.42-.34-.75-.75-.75H9Z"/><path fill="#EE4D4D" d="M9.51 3c0-.24-.11-.46-.3-.6 -.19-.15-.43-.2-.65-.14l-3.78 1c-.26.06-.46.26-.53.51L2.61 9.5c-.32 1.11.51 2.22 1.66 2.23l1.43.01v8.22c0 .96.78 1.75 1.75 1.75h9c.96 0 1.75-.79 1.75-1.75v-8.23l1.44-.02c1.15-.01 1.98-1.12 1.66-2.24l-1.64-5.74c-.08-.26-.29-.46-.55-.53l-4.15-1c-.23-.06-.46-.01-.64.13 -.19.14-.29.35-.29.58 0 1.15-.94 2.09-2.11 2.09 -.6 0-1.24-.25-1.73-.66 -.49-.41-.76-.93-.76-1.44Z"/><g fill="#ECEFF1" fill-rule="evenodd"><path d="M5.75 17.75h12.5v1.5H5.75v-1.5Z"/><path d="M4.68 11.76l1.06-1.06V7.64L4.32 4.32l-.15-.24 .08-.32c.07-.26.27-.46.52-.52l.54-.15 .29.48c.01.02.03.05.04.09l1.5 3.5c.04.09.06.19.06.29v3.52c0 .2-.09.39-.23.53l-1.28 1.25V11.7l-1.07-.01Zm15.07-.01c-.03 0-.05 0-.07 0l-1.45.01v.73l-1.2-.89c-.2-.15-.31-.37-.31-.61V7.46c0-.11.02-.21.06-.3l1.5-3.5c.02-.07.06-.13.1-.18l.29-.38 .46.11c.26.06.47.26.54.52l.1.37 -.18.22 -1.4 3.26v2.99l1.5 1.11Z"/></g></svg>