<svg viewBox="0 0 24 24" xmlns="http://www.w3.org/2000/svg"><g fill="#9545ED" fill-rule="evenodd"><path d="M17 7h2v2h-2V7Z"/><path d="M4.5 9.5h15v2h-15v-2Z"/><path d="M6 19v-3h2v3c0 1.65-1.35 3-3 3H3v-2h2c.55 0 1-.45 1-1Z"/><path d="M18 19v-3h-2v3c0 1.65 1.34 3 3 3h2v-2h-2c-.56 0-1-.45-1-1Z"/><path d="M11 22v-6.5h2V22h-2Z"/><path fill="#3747D6" d="M1 5c0-.56.44-1 1-1h20c.55 0 1 .44 1 1v5.5c0 1.93-1.57 3.5-3.5 3.5h-15C2.56 14 1 12.43 1 10.5V5Zm2 1v4.5c0 .82.67 1.5 1.5 1.5h15c.82 0 1.5-.68 1.5-1.5V6H3Z"/></g></svg>