<svg viewBox="0 0 24 24" xmlns="http://www.w3.org/2000/svg"><g fill="#9545ED" fill-rule="evenodd"><path d="M5.22 19.36l4.5-5.5 1.54 1.26 -4.5 5.5 -1.55-1.27Z"/><path d="M18.77 19.36l-4.5-5.5 -1.55 1.26 4.5 5.5 1.54-1.27Z"/><path d="M14.94 2.32l-2.52 6.64 1.87.7 2.51-6.65 -1.88-.71Z"/><path d="M9.05 2.32l2.51 6.64 -1.88.7 -2.52-6.65 1.87-.71Z"/><path d="M21.72 14.05L14.7 12.9l.32-1.98 7.01 1.14 -.33 1.97Z"/><path d="M2.27 14.05l7.01-1.15 -.33-1.98 -7.02 1.14 .32 1.97Z"/><g fill="#3747D6"><path d="M12 3c-4.98 0-9 4.02-9 9 0 4.97 4.02 9 9 9 4.97 0 9-4.03 9-9 0-4.98-4.03-9-9-9ZM1 12C1 5.92 5.92 1 12 1c6.07 0 11 4.92 11 11 0 6.07-4.93 11-11 11C5.92 23 1 18.07 1 12Z"/><path d="M12 10c-1.11 0-2 .89-2 2 0 1.1.89 2 2 2 1.1 0 2-.9 2-2 0-1.11-.9-2-2-2Zm-4 2c0-2.21 1.79-4 4-4 2.2 0 4 1.79 4 4 0 2.2-1.8 4-4 4 -2.21 0-4-1.8-4-4Z"/></g></g></svg>