<svg viewBox="0 0 24 24" xmlns="http://www.w3.org/2000/svg"><g fill="#9545ED" fill-rule="evenodd"><path d="M9.25 3.03c.44.11.74.51.74.96v9c0 .55-.45 1-1 1h-5c-.36 0-.69-.19-.87-.5 -.18-.31-.19-.69-.02-1l5-9c.22-.4.68-.6 1.125-.49Zm-3.56 8.96h2.3V7.84l-2.31 4.14Z"/><path d="M11.66 1.05c-.4.14-.67.51-.67.94v11c0 .55.44 1 1 1h9c.38 0 .73-.23.9-.58 .16-.35.11-.77-.13-1.07l-9-11c-.27-.33-.72-.46-1.12-.31Zm7.22 10.94h-5.89v-7.2l5.88 7.19Z"/><path fill="#3747D6" d="M1.16 15.44c.18-.28.49-.45.83-.45h20c.33 0 .64.16.83.44 .18.27.21.63.09.93l-2.5 6c-.16.37-.52.61-.93.61h-15c-.41 0-.77-.25-.93-.62l-2.5-6c-.13-.31-.1-.67.09-.94Zm2.33 1.55l1.66 4h13.66l1.66-4h-17Z"/></g></svg>