<svg viewBox="0 0 24 24" xmlns="http://www.w3.org/2000/svg"><g fill="#9545ED" fill-rule="evenodd"><path d="M5.1 21.55l2-4 1.78.89 -2 4 -1.79-.9Z"/><path d="M19.89 21.55l-2-4 -1.79.89 2 4 1.78-.9Z"/><path fill="#3747D6" d="M17.79 11.29c.18-.19.44-.3.7-.3h3.5c.38 0 .74.22.9.57 .16.35.11.76-.14 1.06l-5 6c-.19.22-.48.35-.77.35H7.25l-4.77 2.85c-.31.18-.7.19-1.01.01 -.32-.18-.51-.51-.51-.88v-3c0-.36.18-.68.48-.86l5-3c.15-.1.33-.15.51-.15h8.08l2.7-2.71Zm1.12 1.7l-2.71 2.7c-.19.18-.45.29-.71.29H7.26l-4.28 2.56v.66l3.48-2.1c.15-.1.33-.15.51-.15h9.53l3.33-4h-.96Z"/><path d="M11 22V10h2v12h-2Z"/><path fill="#3747D6" d="M3.16 8.67l2.59-.65c.13-.04.27-.04.4-.02l5.83.97 5.83-.98c.13-.03.27-.02.4.01l2.59.64c-.79-3.12-4.28-5.68-8.84-5.68s-8.06 2.56-8.84 5.67ZM.99 9.99c0-5.17 5.14-9 11-9 5.85 0 11 3.83 11 9 0 .3-.15.59-.39.78 -.25.18-.56.25-.86.18l-3.8-.95 -5.8.96c-.11.01-.22.01-.33 0l-5.8-.97 -3.8.94c-.3.07-.62 0-.86-.19 -.25-.19-.39-.49-.39-.79Z"/></g></svg>