<svg viewBox="0 0 24 24" xmlns="http://www.w3.org/2000/svg"><g fill="#3747D6" fill-rule="evenodd"><path d="M11 22V12h2v10h-2Z"/><path d="M12 3c-3.87 0-7 3.13-7 7 0 3.86 3.13 7 7 7 3.86 0 7-3.14 7-7 0-3.87-3.14-7-7-7Zm-9 7c0-4.98 4.02-9 9-9 4.97 0 9 4.02 9 9 0 4.97-4.03 9-9 9 -4.98 0-9-4.03-9-9Z"/><g fill="#9545ED"><path d="M8.97 13.73c-.75.44-.98.92-.98 1.26 0 .33.23.81.97 1.26 .72.43 1.79.73 3.02.73s2.29-.31 3.02-.74c.74-.45.97-.93.97-1.27 0-.34-.24-.82-.98-1.27 -.73-.44-1.8-.74-3.03-.74 -1.24 0-2.3.3-3.03.73Zm-1.03-1.72c1.08-.66 2.51-1.03 4.05-1.03 1.53 0 2.96.37 4.05 1.02 1.06.63 1.95 1.66 1.95 2.97 0 1.31-.89 2.33-1.95 2.97 -1.09.65-2.52 1.02-4.05 1.02 -1.54 0-2.97-.38-4.06-1.03 -1.07-.64-1.95-1.67-1.95-2.98 0-1.32.88-2.34 1.94-2.98Z"/><path d="M17 16H7v-2h10v2Z"/></g></g></svg>