<svg viewBox="0 0 24 24" xmlns="http://www.w3.org/2000/svg"><g fill="#3747D6" fill-rule="evenodd"><path d="M4 2c0-.56.44-1 1-1h14c.55 0 1 .44 1 1v14c0 .55-.45 1-1 1h-3v.5c0 1.38-1.12 2.5-2.5 2.5 -1.39 0-2.5-1.12-2.5-2.5V17h-1v3.5c0 1.38-1.12 2.5-2.5 2.5C6.11 23 5 21.88 5 20.5V17c-.56 0-1-.45-1-1V2Zm2 13c.55 0 1 .44 1 1v4.5c0 .27.22.5.5.5 .27 0 .5-.23.5-.5V16c0-.56.44-1 1-1h3c.55 0 1 .44 1 1v1.5c0 .27.22.5.5.5 .27 0 .5-.23.5-.5V16c0-.56.44-1 1-1h3V3H6v12Z"/><path fill="#9545ED" d="M15 6h-3V4h4c.55 0 1 .44 1 1v4h-2V6Z"/></g></svg>