<svg viewBox="0 0 24 24" xmlns="http://www.w3.org/2000/svg"><g fill="#9545ED" fill-rule="evenodd"><path d="M10.29 8.79c.39-.4 1.02-.4 1.41 0l2 2c.39.39.39 1.02 0 1.41l-2 2c-.4.39-1.03.39-1.42 0l-2.01-2c-.4-.4-.4-1.03 0-1.42l2-2.01Zm.12 2.7l.58.58 .58-.59 -.59-.59 -.59.58Z"/><path d="M10 16c0-.56.44-1 1-1h3c.55 0 1 .44 1 1v3c0 .55-.45 1-1 1h-3c-.56 0-1-.45-1-1v-3Zm2 1v1h1v-1h-1Z"/><path d="M11.5 5c0-.56.44-1 1-1h3c.55 0 1 .44 1 1v3c0 .55-.45 1-1 1h-3c-.56 0-1-.45-1-1V5Zm2 1v1h1V6h-1Z"/><path fill="#3747D6" d="M5.27 1.31c.18-.2.45-.32.72-.32h12c.27 0 .53.11.72.31 .18.19.28.46.27.73l-1 20c-.03.53-.47.95-1 .95h-10c-.54 0-.98-.42-1-.96l-1-20c-.02-.28.08-.55.27-.74Zm1.77 1.68l.9 18h8.09l.9-18h-9.9Z"/></g></svg>