<svg viewBox="0 0 24 24" xmlns="http://www.w3.org/2000/svg"><g fill="#9545ED" fill-rule="evenodd"><path d="M11 3.5v5H9v-5h2Z"/><path d="M15 3.5v5h-2v-5h2Z"/><path d="M11 15.5v5H9v-5h2Z"/><path d="M15 15.5v5h-2v-5h2Z"/><path d="M3.5 9h5v2h-5V9Z"/><path d="M3.5 13h5v2h-5v-2Z"/><path d="M15.5 9h5v2h-5V9Z"/><path d="M15.5 13h5v2h-5v-2Z"/><path d="M19.79 4.2c-.38-.38-1.01-.35-1.34.07l-.68.84 -1.57-1.25 .67-.85c1.07-1.35 3.09-1.47 4.31-.24 1.22 1.22 1.11 3.23-.24 4.31l-.85.67 -1.25-1.57 .84-.68c.41-.34.45-.96.07-1.34Z"/><path d="M4.2 19.79c.37.37 1 .34 1.33-.08l.67-.85 1.56 1.24 -.68.84c-1.08 1.34-3.1 1.46-4.32.23 -1.23-1.23-1.12-3.24.23-4.32l.84-.68 1.24 1.56 -.85.67c-.42.33-.46.95-.08 1.33Z"/><g fill="#3747D6"><path d="M12 4c-4.42 0-8 3.58-8 8 0 4.41 3.58 8 8 8 4.41 0 8-3.59 8-8 0-4.42-3.59-8-8-8ZM2 12C2 6.47 6.47 2 12 2c5.52 0 10 4.47 10 10 0 5.52-4.48 10-10 10C6.47 22 2 17.52 2 12Z"/><path d="M12 9c-1.66 0-3 1.34-3 3 0 1.65 1.34 3 3 3 1.65 0 3-1.35 3-3 0-1.66-1.35-3-3-3Zm-5 3c0-2.77 2.23-5 5-5 2.76 0 5 2.23 5 5 0 2.76-2.24 5-5 5 -2.77 0-5-2.24-5-5Z"/></g></g></svg>