<svg viewBox="0 0 24 24" xmlns="http://www.w3.org/2000/svg"><g fill="#9545ED" fill-rule="evenodd"><path d="M6.5 20c-.28 0-.5.22-.5.5 0 .27.22.5.5.5h11c.27 0 .5-.23.5-.5 0-.28-.23-.5-.5-.5H14v-2h3.5c1.38 0 2.5 1.11 2.5 2.5 0 1.38-1.12 2.5-2.5 2.5h-11C5.11 23 4 21.88 4 20.5 4 19.11 5.11 18 6.5 18H10v2H6.5Z"/><path fill="#3747D6" d="M10.5 3c-.28 0-.5.22-.5.5C10 4.88 8.88 6 7.5 6H7c-.56 0-1 .44-1 1v.5C6 8.88 4.88 10 3.5 10c-.28 0-.5.22-.5.5v2.08c0 .52.27 1.01.72 1.28l8.27 4.96 8.27-4.97c.45-.28.72-.76.72-1.29v-2.09c0-.28-.23-.5-.5-.5 -1.39 0-2.5-1.12-2.5-2.5v-.5c0-.56-.45-1-1-1h-.5c-1.39 0-2.5-1.12-2.5-2.5 0-.28-.23-.5-.5-.5h-3ZM8 3.5C8 2.11 9.11 1 10.5 1h3C14.88 1 16 2.11 16 3.5c0 .27.22.5.5.5h.5c1.65 0 3 1.34 3 3v.5c0 .27.22.5.5.5 1.38 0 2.5 1.11 2.5 2.5v2.08c0 1.22-.65 2.36-1.7 3l-8.79 5.27c-.32.19-.72.19-1.029 0l-8.79-5.28c-1.06-.64-1.7-1.78-1.7-3.01v-2.09c0-1.39 1.11-2.5 2.5-2.5 .27 0 .5-.23.5-.5v-.5c0-1.66 1.34-3 3-3h.5c.27 0 .5-.23.5-.5Z"/></g></svg>