<svg viewBox="0 0 24 24" xmlns="http://www.w3.org/2000/svg"><g fill="#9545ED" fill-rule="evenodd"><path d="M11 13V2h2v11h-2Z"/><path d="M7.06 13.35l-3-8 1.87-.71 3 8 -1.88.7Z"/><path d="M16.93 13.35l3-8 -1.88-.71 -3 8 1.87.7Z"/><path fill="#3747D6" d="M12 3c-4.98 0-9 4.02-9 9v1.51l4.62 3.69c.3.24.44.64.34 1.02l-.69 2.75h9.43l-.69-2.76c-.1-.38.04-.78.34-1.03l4.62-3.7v-1.52c0-4.98-4.03-9-9-9ZM1 12C1 5.92 5.92 1 12 1c6.07 0 11 4.92 11 11v2c0 .3-.14.59-.38.78l-4.5 3.59 .84 3.37c.07.29 0 .61-.19.85s-.49.38-.79.38h-12c-.31 0-.6-.15-.79-.39 -.19-.25-.26-.56-.19-.86l.84-3.38 -4.5-3.6c-.24-.19-.38-.48-.38-.79v-2Z"/></g></svg>