<svg viewBox="0 0 24 24" xmlns="http://www.w3.org/2000/svg"><g fill="#9545ED" fill-rule="evenodd"><path d="M20 18H4v-2h16v2Z"/><path d="M17 22H7v-2h10v2Z"/><g fill="#3747D6"><path d="M16.793 6.79l2.5-2.5 1.41 1.41 -2.5 2.5 -1.42-1.42Z"/><path d="M7.2 6.79l-2.5-2.5L3.28 5.7l2.5 2.5 1.41-1.42Z"/><path d="M12 9c-2.21 0-4 1.79-4 4H6c0-3.32 2.68-6 6-6 3.31 0 6 2.68 6 6h-2c0-2.21-1.8-4-4-4Z"/><path d="M11 6V3h2v3h-2Z"/><path d="M2 9.5h3v2H2v-2Z"/><path d="M19 9.5h3v2h-3v-2Z"/></g><path d="M22 14H2v-2h20v2Z"/></g></svg>