<svg viewBox="0 0 24 24" xmlns="http://www.w3.org/2000/svg"><g fill="#3747D6" fill-rule="evenodd"><path d="M1.29 1.29c.21-.22.51-.33.81-.29l4.63.51c3.05.33 5.83 1.94 7.65 4.42l5.1 6.95 -1.62 1.18 -5.11-6.96c-1.49-2.04-3.77-3.35-6.27-3.63l-3.4-.38 .37 3.39c.27 2.5 1.59 4.77 3.62 6.26l10.76 7.89 2.78-2.79 -1.33-1.81 1.61-1.19 1.83 2.5c.29.39.24.94-.1 1.29l-4 4c-.35.34-.91.39-1.3.09L5.86 14.31c-2.49-1.83-4.09-4.6-4.43-7.66L.91 2.01c-.04-.31.07-.61.28-.82Z"/><g fill="#9545ED"><path d="M19.26 14.82l-2.36.67 1 1 1.34-1.69Zm.95-2.36c1.4-.41 2.49 1.23 1.58 2.37l-3.03 3.77c-.18.22-.45.35-.73.37 -.29.01-.57-.1-.77-.3l-3-3c-.26-.26-.35-.62-.27-.96 .08-.35.35-.62.69-.72l5.49-1.57Z"/><path d="M10.293 11.7l-6.01-6 1.41-1.42 6 6 -1.42 1.41Z"/></g></g></svg>