<svg viewBox="0 0 24 24" xmlns="http://www.w3.org/2000/svg"><g fill-rule="evenodd"><path d="M5 8.5c-.56 0-1 .44-1 1v9.33l-.95 2.84c-.11.3-.06.64.13.9 .18.26.48.41.81.41h16c.31 0 .61-.16.8-.41 .18-.26.24-.59.15-.89l-.96-3.08V9.47c0-.56-.45-1-1-1h-14Zm10.5 3.49l-.08-1c.29-.03.57.08.78.29 .2.2.31.49.29.78l-1-.08Zm-5.42 6.83c.58.35 1.24.54 1.91.54 .99 0 1.95-.42 2.7-1.18 .46-.47.76-1.14.96-1.74 .21-.64.37-1.34.49-1.98 .11-.65.2-1.25.25-1.69 .02-.23.04-.41.05-.53 0-.07.01-.12.01-.15l0-.05 0-.02 0-.01 0-.01v-.01c0-.01 0-.01-1-.08 -.08-1-.08-1-.08-1l-.01 0h-.01l-.01 0 -.02 0 -.05 0c-.04 0-.09 0-.15.01 -.13.01-.31.03-.53.05 -.44.05-1.05.13-1.69.25 -.64.11-1.35.28-1.98.49 -.61.2-1.28.5-1.74.96 -.76.75-1.18 1.71-1.18 2.7 0 .67.19 1.32.54 1.91l-1.38 1.37 1.41 1.41 1.37-1.38Z"/><path d="M4 5.5c-.56 0-1 .44-1 1v3c0 .55.44 1 1 1h16c.55 0 1-.45 1-1v-3c0-.56-.45-1-1-1H4Z"/><path d="M10.42 3c-.19.55-.68.97-1.29 1.04l-2.26.25c-.51.05-.89.48-.89.99v.2h11.64c-.15-.13-.33-.21-.52-.23l-1.32-.17c-1.032-.13-1.81-1.01-1.81-2.05 0-.04-.03-.07-.07-.07h-3.52Zm-1.87-.91c.18-.64.77-1.1 1.46-1.1h3.91c1.13 0 2.06.92 2.06 2.06 0 .03.02.05.05.06l1.31.16c1.5.18 2.62 1.46 2.62 2.97v.23c0 .55-.45 1-1 1h-14c-.56 0-1-.45-1-1V5.26c0-1.53 1.14-2.82 2.66-2.99l1.89-.22Z"/></g></svg>