<svg viewBox="0 0 24 24" xmlns="http://www.w3.org/2000/svg"><g fill-rule="evenodd"><path d="M16 15c1.65 0 3 1.34 3 3v1c0 .55-.45 1-1 1h-2c-1.66 0-3-1.35-3-3v-1c0-.56.44-1 1-1h2Z"/><path d="M4 15c1.65 0 3 1.34 3 3v1c0 .55-.45 1-1 1H4c-1.66 0-3-1.35-3-3v-1c0-.56.44-1 1-1h2Z"/><path d="M19 18v4h-2v-4h2Z"/><path d="M7 18v4H5v-4h2Z"/><path d="M20 15c-1.66 0-3 1.34-3 3v1c0 .55.44 1 1 1h2c1.65 0 3-1.35 3-3v-1c0-.56-.45-1-1-1h-2Z"/><path d="M8 15c-1.66 0-3 1.34-3 3v1c0 .55.44 1 1 1h2c1.65 0 3-1.35 3-3v-1c0-.56-.45-1-1-1H8Z"/><path d="M7.5 6.5C6.11 6.5 5 7.61 5 9c0 1.38 1.11 2.5 2.5 2.5 1.38 0 2.5-1.12 2.5-2.5 0-1.39-1.12-2.5-2.5-2.5Z"/><path d="M16.5 9c-1.39 0-2.5 1.11-2.5 2.5 0 1.38 1.11 2.5 2.5 2.5 1.38 0 2.5-1.12 2.5-2.5 0-1.39-1.12-2.5-2.5-2.5Z"/><path d="M12.5 1C11.11 1 10 2.11 10 3.5 10 4.88 11.11 6 12.5 6 13.88 6 15 4.88 15 3.5 15 2.11 13.88 1 12.5 1Z"/></g></svg>