<svg viewBox="0 0 24 24" xmlns="http://www.w3.org/2000/svg"><g fill-rule="evenodd"><path d="M3.14 19.5c0-.56.44-1 1-1h11c.55 0 1 .44 1 1V22c0 .55-.45 1-1 1h-11c-.56 0-1-.45-1-1v-2.5Zm2 1v.5h8.99v-.5h-9Z"/><path d="M11.64 1c-1.06 0-1.97.65-2.33 1.59 -.22-.06-.44-.1-.68-.1 -1.23 0-2.26.88-2.47 2.05 -.18-.04-.36-.06-.54-.06 -1.39 0-2.5 1.11-2.5 2.5v12.5c0 .55.44 1 1 1h11c.5 0 .92-.38.99-.88l.03-.25 4.95-4.36c.02-.03.04-.05.07-.08 1.03-1.12.84-2.9-.42-3.77 -.89-.61-2.07-.59-2.92.05l-.72.44v-.2 -.5 -6c0-1.39-1.12-2.5-2.5-2.5 -.24 0-.46.03-.68.09 -.37-.94-1.27-1.6-2.33-1.6Z"/></g></svg>