<svg viewBox="0 0 24 24" xmlns="http://www.w3.org/2000/svg"><path fill-rule="evenodd" d="M2.84 5.46c-.25-.4-.738-.57-1.18-.42 -.45.15-.72.59-.67 1.06l.95 8.1c.01.13 0 .26-.04.39l-.89 3.11c-.09.3-.03.62.16.87 .18.25.48.39.79.39h19.99c.31 0 .6-.15.79-.4 .18-.26.24-.58.16-.88l-.88-3.06c-.05-.15-.05-.31-.03-.46l.91-5.05c.08-.46-.16-.9-.57-1.09 -.42-.19-.91-.08-1.2.28l-2.86 3.56 -.42-1.26c-.13-.37-.44-.63-.82-.68 -.38-.06-.76.11-.97.43l-.9 1.34 -1.84-5.13c-.15-.41-.54-.68-.98-.67 -.44.01-.81.3-.93.72l-1.39 4.83 -1.31-2.1c-.22-.35-.61-.53-1.01-.46 -.4.06-.72.35-.82.74l-.43 1.71 -3.76-6.01Z"/></svg>