<svg viewBox="0 0 24 24" xmlns="http://www.w3.org/2000/svg"><g fill-rule="evenodd"><path d="M10 7c-1.66 0-3 1.34-3 3v8.61l1.68-.57c.35-.12.75-.03 1.02.24l2.29 2.29 2.29-2.3c.26-.27.66-.37 1.02-.25l1.68.56V9.96c0-1.66-1.35-3-3-3v-2c2.76 0 5 2.23 5 5v10c0 .32-.16.62-.42.81 -.27.18-.6.23-.91.13l-2.42-.81 -2.57 2.56c-.4.39-1.03.39-1.42 0l-2.57-2.57 -2.42.8c-.31.1-.65.05-.91-.14 -.27-.19-.42-.49-.42-.82v-10c0-2.77 2.23-5 5-5v2Z"/><path d="M12.7 10.29c-.4-.4-1.03-.4-1.42 0l-2 2c-.34.33-.39.86-.13 1.26l2 3c.18.27.49.44.83.44 .33 0 .64-.17.83-.45l2-3c.26-.4.21-.93-.125-1.27l-2-2Z"/><path d="M11.23 1C9.99 1 8.99 2 8.99 3.23v2.76c0 .26.1.51.29.7l2 2c.39.39 1.02.39 1.41 0l2-2 1.01-1.02c.96-.97.7-2.6-.52-3.21l-.12-.06c-.57-.29-1.218-.28-1.77-.02l-.1-.19c-.38-.76-1.16-1.24-2-1.24Z"/></g></svg>