<svg viewBox="0 0 24 24" xmlns="http://www.w3.org/2000/svg"><g fill-rule="evenodd"><path d="M6.79 2.79c.39-.4 1.02-.4 1.41 0l2.49 2.5c.39.39.39 1.02 0 1.41l-4.3 4.29c-.07.06-.13.14-.18.23l-3.37 6.24c-.22.4-.69.6-1.13.49 -.45-.12-.76-.52-.76-.97V9.8c0-.8.31-1.56.87-2.13l4.91-4.92Z"/><path d="M8.29 6.29c.39-.4 1.02-.4 1.41 0l13 13c.18.18.29.44.29.7 0 .26-.11.51-.3.7l-2 2c-.4.39-1.03.39-1.42 0l-13-13c-.19-.19-.3-.45-.3-.71 0-.27.1-.52.29-.71l2-2Z"/><path d="M3.79 1.79c.18-.19.44-.3.7-.3 .26 0 .51.1.7.29l1.99 2c.39.39.39 1.02-.01 1.41l-2 2c-.19.18-.45.29-.71.29 -.27-.01-.52-.11-.71-.3l-2-2c-.4-.4-.4-1.03 0-1.42l2-2Z"/></g></svg>