<svg viewBox="0 0 24 24" xmlns="http://www.w3.org/2000/svg"><g fill-rule="evenodd"><path d="M9.44 2.6c-.29-.15-.62-.15-.9 0l-3 1.5c-.34.16-.56.51-.56.89v3.5c0 .37.21.72.55.89l3 1.49c.28.14.61.14.89 0l2.99-1.5c.33-.17.55-.52.55-.9v-3.5c0-.38-.22-.73-.56-.9l-3-1.5Z"/><path d="M9.44 12.6c-.29-.15-.62-.15-.9 0l-3 1.5c-.34.16-.56.51-.56.89v3.5c0 .37.21.72.55.89l3 1.5c.28.14.61.14.89 0l2.99-1.5c.33-.17.55-.52.55-.9v-3.5c0-.38-.22-.73-.56-.9l-3-1.5Z"/><path d="M11.55 7.6c.28-.15.61-.15.89 0l3 1.5c.33.16.55.51.55.89v3.5c0 .37-.22.72-.56.89l-3 1.5c-.29.14-.62.14-.9 0l-3.01-1.5c-.34-.17-.56-.52-.56-.9v-3.5c0-.38.21-.73.55-.9l3-1.5Zm-1.56 3.01v2.26l2 1 2-1V10.6l-2-1 -2 .99Z"/><path d="M5.55 7.6c.28-.15.61-.15.89 0l3 1.5c.33.16.55.51.55.89v3.5c0 .37-.22.72-.56.89l-3 1.5c-.29.14-.62.14-.9 0l-3-1.5c-.34-.17-.56-.52-.56-.9v-3.5c0-.38.21-.73.55-.9l3-1.5Zm-1.56 3.01v2.26l2 1 2-1V10.6l-2-1 -2 .99Z"/><path d="M18.44 7.6c-.29-.15-.62-.15-.9 0l-3 1.5c-.34.16-.56.51-.56.89v3.5c0 .37.21.72.55.89l3 1.5c.28.14.61.14.89 0l3-1.5c.33-.17.55-.52.55-.9v-3.5c0-.38-.22-.73-.56-.9l-3-1.5Z"/><path d="M14.55 2.6c.28-.15.61-.15.89 0l3 1.5c.33.16.55.51.55.89v3.5c0 .37-.22.72-.56.89l-3 1.49c-.29.14-.62.14-.9 0l-3-1.5c-.34-.17-.56-.52-.56-.9v-3.5c0-.38.21-.73.55-.9l3-1.5Zm-1.56 3.01v2.26l2 1 2-1V5.6l-2-1 -2 1Z"/><path d="M14.55 12.6c.28-.15.61-.15.89 0l3 1.5c.33.16.55.51.55.89v3.5c0 .37-.22.72-.56.89l-3 1.5c-.29.14-.62.14-.9 0l-3-1.5c-.34-.17-.56-.52-.56-.9v-3.5c0-.38.21-.73.55-.9l3-1.5Zm-1.56 3.01v2.26l2 1 2-1V15.6l-2-1 -2 1Z"/></g></svg>