<svg viewBox="0 0 24 24" xmlns="http://www.w3.org/2000/svg"><g fill-rule="evenodd"><path d="M11 3c-3.87 0-7 3.13-7 7 0 3.86 3.13 7 7 7 3.41 0 6.26-2.45 6.87-5.69l1.96.37c-.79 4.16-4.45 7.31-8.85 7.31 -4.98 0-9-4.03-9-9 0-4.98 4.02-9 9-9 4.39 0 8.05 3.14 8.84 7.31l-1.97.37c-.62-3.24-3.47-5.69-6.88-5.69Z"/><path d="M11 7c-1.66 0-3 1.34-3 3 0 1.65 1.34 3 3 3 1.25 0 2.33-.78 2.78-1.88l1.85.75c-.75 1.83-2.54 3.12-4.64 3.12 -2.77 0-5-2.24-5-5 0-2.77 2.23-5 5-5 2.09 0 3.89 1.29 4.63 3.12l-1.86.75c-.45-1.11-1.53-1.88-2.79-1.88Z"/><path d="M18 17v-5.5h2V18c0 .55-.45 1-1 1h-3c-.56 0-1-.45-1-1v-1.5h2v.5h1Z"/><path d="M16 17c-.29 0-.56.12-.75.33 -.19.21-.28.5-.25.78l.5 4c.06.5.48.87.99.87h2c.5 0 .92-.38.99-.88l.5-4c.03-.29-.06-.58-.25-.79 -.19-.22-.47-.34-.75-.34h-3Z"/><path d="M11 7.5c-.56 0-1 .44-1 1v3c0 .55.44 1 1 1h10c.55 0 1-.45 1-1v-3c0-.56-.45-1-1-1H11Z"/></g></svg>