<svg viewBox="0 0 24 24" xmlns="http://www.w3.org/2000/svg"><g fill-rule="evenodd"><path d="M10 1c-.56 0-1 .44-1 1v6c0 .55.44 1 1 1h4c.55 0 1-.45 1-1V2c0-.56-.45-1-1-1h-4Z"/><path d="M11 2.5c0-.29-.12-.55-.33-.74 -.21-.19-.49-.29-.77-.26L4.4 2c-.52.04-.91.47-.91.99v2c0 .51.39.94.9.99l5.5.5c.27.02.55-.07.76-.26 .2-.19.32-.46.32-.74v-3Z"/><path d="M18.5 3H14V1h5.5c.55 0 1 .44 1 1v4h-2V3Z"/><path d="M6 10c0-1.66 1.34-3 3-3h6c1.65 0 3 1.34 3 3v12c0 .55-.45 1-1 1H7c-.56 0-1-.45-1-1V10Zm6 1.5c-2.21 0-4 1.79-4 4 0 2.2 1.79 4 4 4 2.2 0 4-1.8 4-4 0-2.21-1.8-4-4-4Zm1.21 7.12l-4-5 1.56-1.25 4 5 -1.57 1.24Z"/></g></svg>