<svg viewBox="0 0 24 24" xmlns="http://www.w3.org/2000/svg"><g fill-rule="evenodd"><path d="M5 8.5c0-.56.44-1 1-1h12c.55 0 1 .44 1 1V22c0 .55-.45 1-1 1H6c-.56 0-1-.45-1-1V8.5Zm2 1V21h10V9.5H7Z"/><path d="M7 3.5c-.46 0-.86.31-.98.75l-1 4c-.08.29-.01.61.18.85 .18.24.48.38.78.38h12c.3 0 .59-.15.78-.39 .18-.25.25-.56.18-.86l-1-4c-.12-.45-.52-.76-.98-.76h-10Z"/><path d="M7 1c-.56 0-1 .44-1 1v2.5c0 .55.44 1 1 1h10c.55 0 1-.45 1-1V2c0-.56-.45-1-1-1H7Z"/><path d="M6 14c-.56 0-1 .44-1 1v7c0 .55.44 1 1 1h6.5c.55 0 1-.45 1-1v-2c0-1.39-1.12-2.5-2.5-2.5 -.28 0-.5-.23-.5-.5v-.5c0-1.39-1.12-2.5-2.5-2.5H6Z"/><path d="M18 16.5c.55 0 1-.45 1-1v-7c0-.56-.45-1-1-1h-6.5c-.56 0-1 .44-1 1v2c0 1.38 1.11 2.5 2.5 2.5 .27 0 .5.22.5.5v.5c0 1.38 1.11 2.5 2.5 2.5h2Z"/></g></svg>