<svg viewBox="0 0 24 24" xmlns="http://www.w3.org/2000/svg"><g fill-rule="evenodd"><path d="M22 21H2v-2h20v2Z"/><path d="M9 9c-2.96 0-5 2.9-5 6 0 3.09 2.04 6 5 6 2.95 0 5-2.91 5-6 0-3.1-2.05-6-5-6Z"/><path d="M3.89 12.06c-.54.71-.9 1.75-.9 2.93 0 1.18.36 2.21.89 2.93 .53.71 1.2 1.06 1.85 1.06 .28 0 .55-.07.82-.19l.85 1.8c-.52.24-1.09.37-1.68.37 -1.43 0-2.64-.78-3.46-1.87 -.83-1.1-1.3-2.56-1.3-4.14 0-1.58.47-3.05 1.29-4.14 .82-1.1 2.03-1.87 3.45-1.87 .59 0 1.15.13 1.67.37 .35.16.57.51.57.9v.21H6.83l-.33.68c-.27-.13-.55-.19-.83-.19 -.66 0-1.32.34-1.86 1.06Z"/><path d="M14.1 12.06c.53.71.89 1.75.89 2.93 0 1.18-.37 2.21-.9 2.93 -.54.71-1.21 1.06-1.86 1.06 -.29 0-.56-.07-.83-.19l-.86 1.8c.51.24 1.08.37 1.67.37 1.42 0 2.63-.78 3.45-1.87 .82-1.1 1.29-2.56 1.29-4.14 0-1.58-.48-3.05-1.3-4.14 -.83-1.1-2.04-1.87-3.46-1.87 -.6 0-1.16.13-1.68.37 -.36.16-.58.51-.58.9v.21h1.1l.32.68c.26-.13.54-.19.82-.19 .65 0 1.31.34 1.85 1.06Z"/><path d="M11 8c-.56 0-1 .44-1 1v1H8V9c0-1.66 1.34-3 3-3h9c1.65 0 3 1.34 3 3v.5c0 1.38-1.12 2.5-2.5 2.5 -.28 0-.5.22-.5.5 0 .27.22.5.5.5 1.38 0 2.5 1.11 2.5 2.5v.67c0 .79-.32 1.55-.88 2.12L19.7 20.7l-1.42-1.42 2.41-2.42c.18-.19.29-.45.29-.71v-.68c0-.28-.23-.5-.5-.5 -1.39 0-2.5-1.12-2.5-2.5 0-1.39 1.11-2.5 2.5-2.5 .27 0 .5-.23.5-.5v-.5c0-.56-.45-1-1-1h-9Z"/><path d="M5 3c-.56 0-1 .44-1 1v1c0 1.65 1.34 3 3 3h3c.55 0 1-.45 1-1V6c0-1.66-1.35-3-3-3H5Z"/></g></svg>