<svg viewBox="0 0 24 24" xmlns="http://www.w3.org/2000/svg"><g fill-rule="evenodd"><path d="M6 15c-1.94 0-3.5 1.56-3.5 3.5V21c0 .55.44 1 1 1h7c.55 0 1-.45 1-1v-2.5c0-1.94-1.57-3.5-3.5-3.5H6Z"/><path d="M16 15c-1.94 0-3.5 1.56-3.5 3.5V21c0 .55.44 1 1 1h7c.55 0 1-.45 1-1v-2.5c0-1.94-1.57-3.5-3.5-3.5h-2Z"/><path d="M7 2c-1.28 0-2.33.95-2.48 2.17 -.8-.14-1.65.15-2.18.86 -.67.89-.58 2.13.2 2.92l1.5 1.5 .95 6.67c.07.49.49.85.98.85h2c.49 0 .91-.37.98-.86l.95-6.67 1.5-1.51c.78-.79.87-2.04.2-2.93 -.53-.71-1.38-1.01-2.18-.87 -.16-1.23-1.21-2.18-2.48-2.18Z"/><path d="M17 2c-1.28 0-2.33.95-2.48 2.17 -.8-.14-1.65.15-2.18.86 -.67.89-.58 2.13.2 2.92l1.5 1.5 .95 6.67c.07.49.49.85.99.85h2c.49 0 .91-.37.98-.86l.95-6.67 1.5-1.51c.78-.79.87-2.04.2-2.93 -.53-.71-1.38-1.01-2.18-.87 -.16-1.23-1.21-2.18-2.48-2.18Z"/><path d="M22 22H2v-2h20v2Z"/></g></svg>