<svg viewBox="0 0 24 24" xmlns="http://www.w3.org/2000/svg"><g fill-rule="evenodd"><path d="M13.17 9.41c1.56-1.57 4.09-1.57 5.65 0l3.12 3.12c.7.7 1.01 1.72.82 2.7l-.74 3.69 .59 1.79c.39 1.17-.73 2.28-1.9 1.89l-1.8-.6 -3.69.73c-.99.19-2.01-.12-2.71-.83l-3.13-3.13c-1.57-1.57-1.57-4.1 0-5.66l3.75-3.76Z"/><path d="M7.49 3c.27 0 .5.22.5.5v3c0 .24.08.48.25.66l4 4.5 1.49-1.33 -3.75-4.22V3.49c0-1.39-1.12-2.5-2.5-2.5 -.91 0-1.71.48-2.15 1.2l-.41-.33c-.87-.7-2.13-.63-2.92.16 -.79.78-.86 2.04-.17 2.91l.32.4C1.42 5.76.94 6.56.94 7.47c0 1.38 1.11 2.5 2.5 2.5h2.61l4.21 3.74 1.32-1.5 -4.5-4.01c-.19-.17-.42-.26-.67-.26h-3c-.28 0-.5-.23-.5-.5 0-.28.22-.5.5-.5h.5c.38 0 .73-.23.9-.57 .16-.35.11-.76-.13-1.06L3.34 3.63c-.06-.08-.06-.18.01-.25 .06-.07.17-.08.24-.02l1.67 1.33c.3.24.71.28 1.05.12 .34-.17.56-.52.56-.91v-.5c0-.28.22-.5.5-.5Z"/></g></svg>