<svg viewBox="0 0 24 24" xmlns="http://www.w3.org/2000/svg"><g fill-rule="evenodd"><path d="M10 13c-.56 0-1 .44-1 1v8c0 .55.44 1 1 1h4c.55 0 1-.45 1-1v-8c0-.56-.45-1-1-1h-4Z"/><path d="M10 9c-1.66 0-3 1.34-3 3v2c0 .55.44 1 1 1h8c.55 0 1-.45 1-1v-2c0-1.66-1.35-3-3-3h-4Z"/><path d="M12.001 7l.74.66c-.19.21-.47.33-.75.33 -.29 0-.56-.13-.75-.34l.74-.67Zm-.75.66s0 0 .74-.67c.74.66.74.66.74.66l0-.01 0-.01 0-.01 0-.01 .01-.02c.01-.02.03-.04.05-.07 .04-.06.1-.13.18-.22 .15-.19.35-.44.55-.72 .2-.29.42-.62.59-.95 .15-.31.34-.75.34-1.2 0-1.39-1.12-2.5-2.5-2.5 -1.39 0-2.51 1.11-2.51 2.5 0 .45.18.89.34 1.19 .17.33.39.66.59.94 .2.28.4.53.55.71 .07.09.13.16.18.21 .02.02.04.04.05.06l.01.01 0 0 0 0 0 0 0 0Z"/><path d="M6.91 8.41l.99-.06c.01.28-.1.56-.3.76 -.21.2-.48.3-.77.29l.05-1Zm-.06.99s0 0 .05-1c.99-.06.99-.06.99-.06l-.01-.01 -.01-.01 -.01-.01 -.01-.01 -.01-.03c-.01-.02-.01-.05-.01-.09 -.01-.07-.02-.17-.03-.29 -.03-.24-.06-.56-.12-.91s-.14-.74-.26-1.09c-.11-.33-.28-.77-.61-1.1 -.98-.98-2.56-.98-3.54 0 -.98.97-.98 2.55 0 3.53 .32.32.76.49 1.09.6 .35.11.74.19 1.08.25 .34.05.66.09.9.11 .11.01.21.01.28.02 .03 0 .06 0 .08 0l.02 0 0 0 0 0 0 0 0 0Z"/><path d="M16.94 8.38l-1-.06c-.02.28.09.56.29.76 .2.2.47.3.76.29l-.06-1Zm.05.99c-.01 0-.01 0-.06-1 -1-.06-1-.06-1-.06V8.3l0-.01 0-.01 0-.01 0-.03c0-.02 0-.05 0-.09 0-.07.01-.17.02-.29 .02-.24.05-.56.11-.91 .05-.35.13-.74.25-1.09 .1-.33.27-.77.6-1.1 .97-.98 2.55-.98 3.53 0 .97.97.97 2.55 0 3.53 -.33.32-.77.49-1.1.6 -.36.11-.75.19-1.09.25 -.35.05-.67.09-.91.11 -.12.01-.22.01-.29.02 -.04 0-.07 0-.09 0l-.03 0 -.01 0 -.01 0 -.01 0 -.01 0Z"/></g></svg>