<svg viewBox="0 0 24 24" xmlns="http://www.w3.org/2000/svg"><path fill-rule="evenodd" d="M11.55 4.18c.13-.41.51-.69.94-.69h5.5c.55 0 1 .44 1 1v6c0 .55-.45 1-1 1h-2.8l-2.263 6.33c-.15.39-.52.66-.95.66h-2c-.56 0-1-.45-1-1v-5.5c0-.11.01-.22.05-.32l2.49-7.51Zm1.66 1.31l-2.23 6.66v4.33h.29l2.263-6.34c.14-.4.51-.67.94-.67h2.5v-4h-3.78Z"/><g><path d="M18 4.5h-5.5L10 12v5.5h2l2.5-7H18v-6Z"/><g fill-rule="evenodd"><path d="M2 10.5c-.56 0-1 .44-1 1v6c0 .55.44 1 1 1h2 4 2c.55 0 1-.45 1-1v-6c0-.56-.45-1-1-1H2Zm4 4c-1.66 0-3 1.34-3 3 0 1.65 1.34 3 3 3 1.65 0 3-1.35 3-3 0-1.66-1.35-3-3-3Z"/><path d="M18.5 11.5c-2.49 0-4.5 2.01-4.5 4.5 0 2.48 2.01 4.5 4.5 4.5 2.48 0 4.5-2.02 4.5-4.5 0-2.49-2.02-4.5-4.5-4.5Z"/><path d="M13.55 10.16c.14-.4.51-.67.94-.67h7.5v2h-6.8l-2.263 6.33c-.15.39-.52.66-.95.66h-2v-2h1.29l2.263-6.34Z"/></g></g></svg>