<svg viewBox="0 0 24 24" xmlns="http://www.w3.org/2000/svg"><g fill-rule="evenodd"><path d="M13.79 11.79c.39-.4 1.02-.4 1.41 0l6.5 6.5c.94.94.94 2.47 0 3.41 -.95.94-2.48.94-3.42 0l-6.5-6.5c-.19-.19-.3-.45-.3-.71 0-.27.1-.52.29-.71l2-2Z"/><path d="M8.87 1c1.07 0 2.1.43 2.86 1.206l4.97 5.09c.38.39.37 1.01-.01 1.4l-2.5 2.5 -3 3 -2.5 2.5c-.19.18-.45.29-.71.29 -.27 0-.52-.11-.71-.3l-5.13-5.13C1.38 10.79.96 9.78.96 8.72V1.96c0-.56.44-1 .99-1h6.87ZM7.78 7.79c.62-.63 1.61-.73 2.35-.24l5.41 3.6c.24.16.41.43.44.73 .02.29-.08.59-.29.8l-3 3c-.22.21-.51.31-.81.28 -.3-.03-.57-.2-.74-.45l-3.61-5.42c-.5-.74-.4-1.73.23-2.36Z"/></g></svg>