<svg viewBox="0 0 24 24" xmlns="http://www.w3.org/2000/svg"><g fill-rule="evenodd"><path d="M3.5 15c-.56 0-1 .44-1 1v6c0 .55.44 1 1 1h14c.55 0 1-.45 1-1v-6c0-.56-.45-1-1-1h-14Z"/><path d="M5.5 1c-.38 0-.73.21-.9.55l-2 4c-.16.3-.14.67.04.97 .18.29.5.47.85.47h14c.34 0 .66-.18.85-.48 .18-.3.19-.67.04-.98l-2-4c-.17-.34-.52-.56-.9-.56h-10Z"/><path d="M4.5 16V6h2v10h-2Z"/><path d="M14.5 16V6h2v10h-2Z"/><path d="M15.5 11h-10V9h10v2Z"/><path d="M17.5 11h-2V9h3c.55 0 1 .44 1 1v2h1v2h-2c-.56 0-1-.45-1-1v-2Z"/></g></svg>