<svg viewBox="0 0 24 24" xmlns="http://www.w3.org/2000/svg"><path fill-rule="evenodd" d="M4 1c-.33 0-.63.15-.82.41 -.19.26-.24.59-.14.9l.94 2.84v13.67l-.95 2.84c-.11.3-.06.64.13.9 .18.26.48.41.81.41h16c.31 0 .61-.16.8-.41 .18-.26.24-.59.15-.89l-.96-3.08V5.12l.94-2.85c.1-.31.05-.65-.14-.91 -.19-.27-.49-.42-.82-.42h-16Zm6.99 10.5c0-.56-.45-1-1-1 0 .55.44 1 1 1Zm3-3h.99c.55 0 1 .44 1 1v1c0 .77-.3 1.48-.79 2.02 .44.09.78.49.78.97v1c0 1.65-1.35 3-3 3v2h-2v-2c-1.66 0-3-1.35-3-3v-1c0-.48.33-.88.78-.98 -.49-.54-.79-1.25-.79-2.03v-1c0-.56.44-1 1-1h.99c-.32-.42-.5-.94-.5-1.5 0-.46.18-.9.34-1.2 .17-.34.39-.67.59-.95 .2-.29.4-.54.55-.72 .07-.1.13-.17.18-.22 .02-.03.04-.05.05-.07l.01-.02 0-.01 0-.01 0-.01 0-.01c0-.01 0-.01.74.66 .74-.67.74-.67.74-.67l0 0 0 0 0 0 0 0 .01.01c.01.01.03.03.05.06 .04.05.1.12.18.21 .15.18.35.43.55.71 .2.28.42.61.59.94 .15.3.34.74.34 1.19 0 .56-.19 1.08-.5 1.5Zm-2.01-4l-.75-.67c.18-.22.46-.34.74-.34 .28 0 .55.12.74.33l-.75.66Zm2 6c0 .55-.45 1-1 1 0-.56.44-1 1-1Zm0 4c0 .55-.45 1-1 1 0-.56.44-1 1-1Zm-3 1c0-.56-.45-1-1-1 0 .55.44 1 1 1Zm.62-8.79c.09-.19.22-.4.37-.61l-.5.87c.01-.05.04-.13.11-.27Zm-.13.28l.49-.9c.14.21.28.42.37.6 .08.16.11.25.11.28 0 0 0 0 0 0 0-.01 0-.01 0-.01 -.01.27-.23.49-.5.49 -.28 0-.5-.22-.5-.5 0 0 0 0 0 0s0-.01 0-.01Zm0 0l-.01 0c-.01-.01-.01-.01-.01-.01l0-.02c-.01 0-.01.01-.01.01 -.01 0-.01 0-.01 0Z"/></svg>