<svg viewBox="0 0 24 24" xmlns="http://www.w3.org/2000/svg"><g fill="#ECEFF1" fill-rule="evenodd"><path d="M10 1.75c-.42 0-.75.33-.75.75V9c0 .25.13.5.35.63 .22.13.49.14.72.03l7-3.5c.25-.13.41-.39.41-.68v-3c0-.42-.34-.75-.75-.75h-7Z"/><path fill="#A2ADB8" d="M6.5 14.75c-.42 0-.75.33-.75.75v5c0 .41.33.75.75.75h3c.41 0 .75-.34.75-.75v-5c0-.42-.34-.75-.75-.75h-3Z"/><path fill="#4DDBC4" d="M18.25 5c0-.27-.15-.52-.38-.65 -.23-.14-.52-.14-.75-.01l-8 4.5c-.24.13-.39.38-.39.65v6 6c0 .41.33.75.75.75h5c2.07 0 3.75-1.68 3.75-3.75V4.99Z"/></g></svg>