<svg viewBox="0 0 24 24" xmlns="http://www.w3.org/2000/svg"><g fill="#E1E1E1" fill-rule="evenodd"><path d="M8 2.25c-.42 0-.75.33-.75.75v16c0 .41.33.75.75.75h6 8c.41 0 .75-.34.75-.75V3c0-.42-.34-.75-.75-.75H8Z"/><path fill="#ECEFF1" d="M2 4.75c-.42 0-.75.33-.75.75v13c0 .6.29 1.11.69 1.5 .39.38.92.7 1.52.95 1.19.49 2.79.78 4.53.78 1.73 0 3.33-.3 4.53-.79 .59-.25 1.12-.57 1.52-.96 .39-.4.69-.91.69-1.51v-13c0-.42-.34-.75-.75-.75h-12Z"/><path fill="#C3C5C7" d="M8 2.25c-1.74 0-3.34.29-4.54.78 -.6.24-1.13.56-1.53.95 -.4.39-.7.9-.7 1.5s.29 1.11.69 1.5c.39.38.92.7 1.52.95 1.19.49 2.79.78 4.53.78 1.73 0 3.33-.3 4.53-.79 .59-.25 1.12-.57 1.52-.96 .39-.4.69-.91.69-1.51 0-.61-.3-1.12-.7-1.51 -.4-.39-.93-.71-1.53-.96 -1.2-.5-2.8-.79-4.54-.79Z"/></g></svg>