<svg viewBox="0 0 24 24" xmlns="http://www.w3.org/2000/svg"><g fill="#ECEFF1" fill-rule="evenodd"><path d="M5 4.25c-.42 0-.75.33-.75.75v14c0 .66.31 1.24.76 1.69 .44.45 1.04.82 1.73 1.11 1.38.59 3.23.93 5.24.93 2 0 3.86-.35 5.24-.94 .68-.3 1.29-.67 1.73-1.12 .44-.46.76-1.03.76-1.7v-14c0-.42-.34-.75-.75-.75h-14Z"/><path fill="#C3C5C7" d="M12 1.25c-2.01 0-3.87.34-5.25.93 -.69.29-1.3.66-1.74 1.11 -.45.45-.77 1.02-.77 1.69 0 .66.31 1.24.76 1.69 .44.45 1.04.82 1.73 1.11 1.38.59 3.23.93 5.24.93 2 0 3.86-.35 5.24-.94 .68-.3 1.29-.67 1.73-1.12 .44-.46.76-1.03.76-1.7 0-.67-.32-1.25-.77-1.7 -.45-.45-1.05-.83-1.74-1.12 -1.39-.6-3.24-.94-5.25-.94Z"/><g fill="#EE4D4D"><path d="M12 11.25c.41 0 .75.33.75.75v5c0 .41-.34.75-.75.75 -.42 0-.75-.34-.75-.75v-5c0-.42.33-.75.75-.75Z"/><path d="M8.75 14.5c0-.42.33-.75.75-.75h5c.41 0 .75.33.75.75 0 .41-.34.75-.75.75h-5c-.42 0-.75-.34-.75-.75Z"/></g></g></svg>