<svg viewBox="0 0 24 24" xmlns="http://www.w3.org/2000/svg"><g fill="#5D6874" fill-rule="evenodd"><path d="M19 9.75c.41 0 .75.33.75.75v8c0 2.34-1.91 4.25-4.25 4.25h-4c-2.35 0-4.25-1.91-4.25-4.25V15c0-.42.33-.75.75-.75 .41 0 .75.33.75.75v3.5c0 1.51 1.23 2.75 2.75 2.75h4c1.51 0 2.75-1.24 2.75-2.75v-8c0-.42.33-.75.75-.75Z"/><path fill="#ECEFF1" d="M4.5 1.25c-1.8 0-3.25 1.45-3.25 3.25v8c0 1.79 1.45 3.25 3.25 3.25h7c1.79 0 3.25-1.46 3.25-3.25v-8c0-1.8-1.46-3.25-3.25-3.25h-7Z"/><path fill="#8B98A6" d="M19 1.25c.41 0 .75.33.75.75v3.5c0 .41-.34.75-.75.75 -.42 0-.75-.34-.75-.75V2c0-.42.33-.75.75-.75Z"/><path fill="#EE4D4D" d="M8 5l.58-.47c-.15-.18-.36-.29-.59-.29 -.23 0-.45.1-.59.28l.58.46Zm0 0c.58-.47.58-.47.58-.47l0 0 0 0 0 0 0 0 .02.02c.01.02.04.06.08.1 .07.09.17.22.29.38 .24.32.56.76.88 1.26 .32.48.65 1.03.9 1.56 .24.5.46 1.08.46 1.61 0 1.79-1.46 3.25-3.25 3.25 -1.8 0-3.25-1.46-3.25-3.25 0-.53.22-1.11.46-1.62 .25-.53.58-1.08.9-1.57 .32-.5.64-.94.88-1.27 .12-.17.22-.3.29-.39 .03-.05.06-.09.08-.11l.02-.03 0-.01 0-.01 0-.01 0-.01c0-.01 0-.01.58.46Z"/><path fill="#ECEFF1" d="M17.5 4.75c-.42 0-.75.33-.75.75v5c0 .41.33.75.75.75h3c.41 0 .75-.34.75-.75v-5c0-.42-.34-.75-.75-.75h-3Z"/></g></svg>