<svg viewBox="0 0 24 24" xmlns="http://www.w3.org/2000/svg"><g fill="#8B98A6" fill-rule="evenodd"><path d="M16.82 1.25c-.73 0-1.43.28-1.95.8l-3.42 3.41c-.3.29-.3.76 0 1.06l2 2c.29.29.76.29 1.06 0l2.41-2.42c.23-.24.55-.37.88-.37h.67c1.24 0 2.25-1.01 2.25-2.25 0-1.25-1.01-2.25-2.25-2.25h-1.68Z"/><path fill="#ECEFF1" d="M12.53 5.46c-.15-.15-.35-.23-.56-.22 -.21 0-.41.09-.54.25l-6.36 7.15c-1.2 1.34-1.62 3.2-1.13 4.93l1.32 4.62c.08.28.32.49.62.53 .29.03.58-.11.74-.36l1.35-2.27 1.23-.42c.18-.07.34-.2.43-.38l.86-1.73 1.2-.41c.18-.07.34-.2.43-.38l.88-1.78 1.77-.89c.17-.09.31-.25.37-.44l.4-1.21 1.72-.87c.21-.11.36-.32.4-.56 .03-.24-.04-.48-.21-.66l-5-5.01Z"/></g></svg>