<svg viewBox="0 0 24 24" xmlns="http://www.w3.org/2000/svg"><g fill="#EE4D4D" fill-rule="evenodd"><path d="M13.5 4.25c-.95 0-1.79.47-2.28 1.2 -.39-.14-.8-.21-1.23-.21 -1.65 0-3.04 1.05-3.55 2.52 -.15-.02-.31-.03-.46-.03 -2.08 0-3.75 1.67-3.75 3.75 0 .12 0 .24.01.36 -.63.5-1.02 1.27-1.02 2.13 0 1.51 1.23 2.75 2.75 2.75h4.37c.3.87 1.14 1.5 2.12 1.5h3.88l.14.71c.2 1.03 1.11 1.78 2.17 1.78 1.36 0 2.39-1.21 2.19-2.54 .82-.15 1.49-.76 1.74-1.55 1.2-.3 2.1-1.38 2.1-2.68 0-.9-.43-1.69-1.09-2.2 .05-.27.08-.54.08-.81 0-1.25-.61-2.35-1.54-3.03 -.26-1.83-1.83-3.23-3.72-3.23 -.42 0-.81.06-1.18.18 -.49-.43-1.13-.69-1.83-.69Z"/><g fill="#F17171"><path d="M15.5 9.75c-.7 0-1.25.55-1.25 1.25 0 .41-.34.75-.75.75 -.42 0-.75-.34-.75-.75 0-1.52 1.23-2.75 2.75-2.75 1.51 0 2.75 1.23 2.75 2.75 0 .41-.34.75-.75.75 -.42 0-.75-.34-.75-.75 0-.7-.56-1.25-1.25-1.25Z"/><path d="M9 11.75c-.7 0-1.25.55-1.25 1.25 0 .41-.34.75-.75.75 -.42 0-.75-.34-.75-.75 0-1.52 1.23-2.75 2.75-2.75 1.51 0 2.75 1.23 2.75 2.75 0 .41-.34.75-.75.75 -.42 0-.75-.34-.75-.75 0-.7-.56-1.25-1.25-1.25Z"/></g></g></svg>