<svg viewBox="0 0 24 24" xmlns="http://www.w3.org/2000/svg"><g fill="#EE4D4D" fill-rule="evenodd"><path d="M7.49 1.25c-.42 0-.75.33-.75.75v3.5c0 .41.33.75.75.75h2.5 1.99 2 2.5c.41 0 .75-.34.75-.75V2c0-.42-.34-.75-.75-.75h-4.5 -4.5Z"/><path fill="#FF9292" d="M17.2 1.73c-.1-.27-.34-.46-.63-.49 -.29-.04-.56.1-.72.33l-3.5 5.4 -4.5 6.95 -3 4.63c-.2.29-.16.68.09.93l3 3c.16.16.39.24.62.21 .22-.03.43-.17.55-.37l2.16-3.65 4.72-7.97 2.11-3.56c.42-.72.5-1.59.21-2.37l-1.17-3.11Z"/><path fill="#F17171" d="M6.79 1.73c.09-.27.33-.46.62-.49 .28-.04.55.1.71.33l11 17c.19.29.15.68-.1.93l-3 3c-.17.16-.4.24-.63.21 -.23-.03-.44-.17-.56-.37L5.81 7.16c-.43-.72-.51-1.59-.22-2.37l1.16-3.11Z"/></g></svg>