<svg viewBox="0 0 24 24" xmlns="http://www.w3.org/2000/svg"><g fill="#ECEFF1" fill-rule="evenodd"><path d="M12 22.78c-2.9 0-5.25-2.46-5.25-5.48v-5.31c0-.44.33-.79.75-.79h9c.41 0 .75.35.75.78v5.3c0 3.02-2.36 5.47-5.25 5.47Z"/><path fill="#EE4D4D" d="M12 1.21c-2.9 0-5.25 2.45-5.25 5.47v5.3c0 .43.33.78.75.78h9c.41 0 .75-.36.75-.79V6.66c0-3.03-2.36-5.48-5.25-5.48Z"/><path fill="#F9F9F9" d="M11.25 4.49c0-.44.33-.79.75-.79 1.48 0 2.75 1.21 2.75 2.78 0 .43-.34.78-.75.78 -.42 0-.75-.36-.75-.79 0-.65-.53-1.22-1.25-1.22 -.42 0-.75-.36-.75-.79Z"/></g></svg>