<svg viewBox="0 0 24 24" xmlns="http://www.w3.org/2000/svg"><g fill="#5D6874" fill-rule="evenodd"><path d="M7 1.75c-1.52 0-2.75 1.23-2.75 2.75v15c0 1.51 1.23 2.75 2.75 2.75h10c1.51 0 2.75-1.24 2.75-2.75v-15c0-1.52-1.24-2.75-2.75-2.75H7Z"/><g fill="#ECEFF1"><path d="M14.5 4.25c1.24 0 2.25 1 2.25 2.25 0 1.24-1.01 2.25-2.25 2.25H12c-.42 0-.75-.34-.75-.75V5c0-.42.33-.75.75-.75h2.5Z"/><path d="M14.5 9.75c1.24 0 2.25 1 2.25 2.25 0 1.24-1.01 2.25-2.25 2.25H12c-.42 0-.75-.34-.75-.75v-3c0-.42.33-.75.75-.75h2.5Z"/><path d="M14.5 15.25c1.24 0 2.25 1 2.25 2.25 0 1.24-1.01 2.25-2.25 2.25H12c-.42 0-.75-.34-.75-.75v-3c0-.42.33-.75.75-.75h2.5Z"/></g><g fill="#8BC94D"><path d="M9.5 4.25c-1.25 0-2.25 1-2.25 2.25 0 1.24 1 2.25 2.25 2.25H12c.41 0 .75-.34.75-.75V5c0-.42-.34-.75-.75-.75H9.5Z"/><path d="M9.5 9.75c-1.25 0-2.25 1-2.25 2.25 0 1.24 1 2.25 2.25 2.25H12c.41 0 .75-.34.75-.75v-3c0-.42-.34-.75-.75-.75H9.5Z"/><path d="M9.5 15.25c-1.25 0-2.25 1-2.25 2.25 0 1.24 1 2.25 2.25 2.25H12c.41 0 .75-.34.75-.75v-3c0-.42-.34-.75-.75-.75H9.5Z"/></g></g></svg>