<svg viewBox="0 0 24 24" xmlns="http://www.w3.org/2000/svg"><g fill="#FFD071" fill-rule="evenodd"><path d="M13 1.21c-4.53 0-8.25 3.67-8.25 8.28 0 .1 0 .2 0 .31l-1.68 3.77c-.34.74.07 1.62.84 1.81l1.33.33v2.21c0 1 .78 1.82 1.75 1.82h2.04l.15 1.7c.07.78.78 1.32 1.51 1.14l7.5-1.77c.62-.15 1.04-.77.96-1.43l-.45-4.01c1.53-1.51 2.5-3.61 2.5-5.95 0-4.61-3.73-8.29-8.25-8.29Z"/><path fill="#F9F9F9" d="M9 5.21c-.42 0-.75.35-.75.78v6c0 .43.33.78.75.78h7c.41 0 .75-.36.75-.79v-.72h.75c.41 0 .75-.36.75-.79v-3c0-.44-.34-.79-.75-.79h-.75v-.72c0-.44-.34-.79-.75-.79H9Z"/><path fill="#EE4D4D" d="M11.5 7.21c.41 0 .75.35.75.78v2c0 .43-.34.78-.75.78 -.42 0-.75-.36-.75-.79v-2c0-.44.33-.79.75-.79Z"/></g></svg>