<svg viewBox="0 0 24 24" xmlns="http://www.w3.org/2000/svg"><g fill="#8B98A6" fill-rule="evenodd"><path d="M21.5 12.25c.41 0 .75.33.75.75v6c0 .41-.34.75-.75.75H19c-.42 0-.75-.34-.75-.75 0-.42.33-.75.75-.75h1.75V13c0-.42.33-.75.75-.75Z"/><path d="M2.5 12.25c-.42 0-.75.33-.75.75v6c0 .41.33.75.75.75H5c.41 0 .75-.34.75-.75 0-.42-.34-.75-.75-.75H3.25V13c0-.42-.34-.75-.75-.75Z"/><g fill="#727982"><path d="M4.25 19c0-1.52 1.23-2.75 2.75-2.75h.5c.41 0 .75.33.75.75v4c0 .41-.34.75-.75.75H7c-1.52 0-2.75-1.24-2.75-2.75Zm2.5-1.23c-.58.11-1 .62-1 1.22s.42 1.1 1 1.22v-2.45Z"/><path d="M19.75 19c0-1.52-1.24-2.75-2.75-2.75h-.5c-.42 0-.75.33-.75.75v4c0 .41.33.75.75.75h.5c1.51 0 2.75-1.24 2.75-2.75Zm-2.5-1.23c.57.11 1 .62 1 1.22s-.43 1.1-1 1.22v-2.45Z"/></g><path d="M7.5 15.25c-.42 0-.75.33-.75.75v6c0 .41.33.75.75.75h3c.41 0 .75-.34.75-.75v-6c0-.42-.34-.75-.75-.75h-3Z"/><path d="M16.5 15.25c.41 0 .75.33.75.75v6c0 .41-.34.75-.75.75h-3c-.42 0-.75-.34-.75-.75v-6c0-.42.33-.75.75-.75h3Z"/><path fill="#727982" d="M2 1.25c-.42 0-.75.33-.75.75v11c0 .41.33.75.75.75h20c.41 0 .75-.34.75-.75V2c0-.42-.34-.75-.75-.75H2Z"/><g fill="#ECEFF1"><path d="M4.5 3.75c-.42 0-.75.33-.75.75v6c0 .41.33.75.75.75H17c.41 0 .75-.34.75-.75v-6c0-.42-.34-.75-.75-.75H4.5Z"/><path d="M19.5 3.75c.41 0 .75.33.75.75V6c0 .41-.34.75-.75.75 -.42 0-.75-.34-.75-.75V4.5c0-.42.33-.75.75-.75Z"/><path d="M19.5 8.25c.41 0 .75.33.75.75v1.5c0 .41-.34.75-.75.75 -.42 0-.75-.34-.75-.75V9c0-.42.33-.75.75-.75Z"/></g></g></svg>