<svg viewBox="0 0 24 24" xmlns="http://www.w3.org/2000/svg"><g fill="#A2ADB8" fill-rule="evenodd"><path d="M5.5 6.71c-.42 0-.75.35-.75.78 0 2.08 1.62 3.78 3.625 3.78H10c.41 0 .75-.36.75-.79v-3c0-.44-.34-.79-.75-.79H5.5Z"/><path d="M19.8 19.58c-.78 1.55-2.87 1.67-3.8.21l-3.13-4.87c-.09-.13-.13-.29-.13-.44V6.97c0-.36.23-.68.56-.76 .33-.09.67.06.84.38l5.62 10.78c.35.67.35 1.49.01 2.17Z"/><path fill="#ECEFF1" d="M11.75 22.78c-1.39 0-2.5-1.17-2.5-2.61V5.77H5.5c-.42 0-.75-.36-.75-.79v-.92c0-1.59 1.23-2.87 2.75-2.87h6c.41 0 .75.35.75.78v3 15.17c0 1.44-1.12 2.6-2.5 2.6Z"/></g></svg>