<svg viewBox="0 0 24 24" xmlns="http://www.w3.org/2000/svg"><g fill="#FFD071" fill-rule="evenodd"><path d="M13 1.25c-4.56 0-8.25 3.69-8.25 8.25 0 .1 0 .21 0 .32l-1.71 3.82c-.32.7.08 1.532.83 1.72l1.35.33v2.28c0 .96.78 1.75 1.75 1.75h2.04l.15 1.74c.06.75.79 1.27 1.53 1.1l7.5-1.77c.61-.15 1.02-.73.95-1.36l-.46-4.06c1.54-1.5 2.5-3.6 2.5-5.93 0-4.56-3.7-8.25-8.25-8.25Z"/><g fill="#5D6874"><path d="M9.35 11.24c-.01 0-.01-.01 0-.01 -.01 0-.01 0-.01 0Zm.06-.18c.08-.18.26-.42.53-.71 .58-.63 1.52-1.35 2.67-2.02 1.15-.67 2.24-1.12 3.07-1.31 .38-.1.67-.12.87-.11 -.09.17-.26.41-.54.7 -.59.62-1.53 1.34-2.68 2.01 -1.16.66-2.25 1.11-3.08 1.3 -.39.09-.68.11-.88.1Zm7.34-4.11c-.01 0-.01-.01-.01-.01s0 0 0 0Zm-.13-.21c0-.01 0-.01 0-.01 0-.01 0 0-.01 0Zm-7.41 4.27C9.2 11 9.2 11 9.2 11c0-.01 0 0 0 0ZM8.83 9.3c.71-.76 1.77-1.57 3.01-2.29 1.24-.72 2.47-1.23 3.48-1.47 .49-.12.98-.18 1.4-.14 .39.03.92.18 1.21.68 .28.49.15 1.02-.02 1.38 -.18.38-.48.77-.83 1.15 -.72.75-1.78 1.56-3.013 2.28 -1.25.71-2.48 1.22-3.484 1.46 -.5.11-.99.17-1.41.13 -.4-.04-.93-.19-1.22-.69 -.29-.5-.16-1.03.01-1.39 .17-.39.47-.78.82-1.16Z"/><path d="M16.64 11.24s0-.01-.01-.01c0 0 0 0 0 0Zm-.07-.18c-.09-.18-.26-.42-.532-.71 -.59-.63-1.53-1.35-2.68-2.02 -1.16-.67-2.25-1.12-3.08-1.31 -.39-.1-.68-.12-.88-.11 .08.17.26.41.53.7 .58.62 1.52 1.34 2.67 2.01 1.15.66 2.24 1.11 3.07 1.3 .38.09.67.11.87.1ZM9.22 6.95s0-.01 0-.01c-.01 0-.01 0-.01 0Zm.12-.21c-.01-.01-.01-.01-.01-.01 -.01-.01-.01 0 0 0Zm7.4 4.27c0-.01 0-.01 0-.01 -.01-.01-.01 0-.01 0Zm.37-1.71c-.72-.76-1.78-1.57-3.013-2.29 -1.25-.72-2.48-1.23-3.484-1.47 -.5-.12-.99-.18-1.41-.14 -.4.03-.93.18-1.22.68 -.29.49-.16 1.02.01 1.38 .17.38.47.77.82 1.15 .71.75 1.77 1.56 3.01 2.28 1.24.71 2.47 1.22 3.484 1.46 .49.11.98.17 1.4.13 .39-.04.92-.19 1.21-.69 .28-.5.15-1.03-.02-1.39 -.18-.39-.48-.78-.83-1.16Z"/></g></g></svg>