<svg viewBox="0 0 24 24" xmlns="http://www.w3.org/2000/svg"><g fill="#FFD071" fill-rule="evenodd"><path d="M14 1.21c-3.18 0-5.75 2.68-5.75 5.99v11.13c0 2.44 1.9 4.43 4.25 4.43h.56c2.31 0 4.18-1.96 4.18-4.37 0-.72.26-1.4.72-1.92L20.17 14c1-1.12 1.55-2.59 1.55-4.11V7.17c0-3.32-2.58-6-5.75-6h-2Z"/><path fill="#EBB852" d="M14.05 4.21c-1.83 0-3.31 1.54-3.31 3.44 0 .5.27.96.71 1.18l.85.42c.26.13.42.4.42.7v.71c0 .25-.12.48-.32.63l-.96.71c-.46.34-.73.89-.73 1.48v2.64c0 1.15.9 2.09 2.01 2.09 .92 0 1.73-.66 1.95-1.6l.48-2.06c.14-.61.47-1.16.93-1.55l1.01-.86c1.01-.86 1.59-2.15 1.59-3.51v-.34c0-2.31-1.8-4.18-4-4.18h-.7Z"/><g fill="#EE4D4D"><path d="M4.4 6.51c.23-.32.66-.4.99-.18l1.5 1c.34.23.45.71.22 1.08 -.23.36-.69.47-1.04.23l-.93-.62 -1.08 1.43c-.24.31-.67.39-1 .17l-1.5-1c-.35-.24-.46-.72-.23-1.09 .22-.37.68-.48 1.03-.24l.92.61 1.07-1.44Z"/><path d="M4.4 10.51c.23-.32.66-.4.99-.18l1.5 1c.34.23.45.71.22 1.08 -.23.36-.69.47-1.04.23l-.93-.62 -1.08 1.43c-.24.31-.67.39-1 .17l-1.5-1c-.35-.24-.46-.72-.23-1.09 .22-.37.68-.48 1.03-.24l.92.61 1.07-1.44Z"/><path d="M4.4 14.51c.23-.32.66-.4.99-.18l1.5 1c.34.23.45.71.22 1.08 -.23.36-.69.47-1.04.23l-.93-.62 -1.08 1.43c-.24.31-.67.39-1 .17l-1.5-1c-.35-.24-.46-.72-.23-1.09 .22-.37.68-.48 1.03-.24l.92.61 1.07-1.44Z"/></g></g></svg>