<svg viewBox="0 0 24 24" xmlns="http://www.w3.org/2000/svg"><g fill="#CFD8DC" fill-rule="evenodd"><path d="M9.5 16.25c-.23 0-.44.09-.58.26l-2.5 3c-.19.22-.23.53-.11.79 .12.26.38.43.67.43h9.99c.29 0 .55-.17.67-.44s.08-.58-.11-.8l-2.5-3c-.15-.18-.36-.27-.58-.27h-5Z"/><path fill="#ECEFF1" d="M2 3.25c-.42 0-.75.33-.75.75v13c0 .41.33.75.75.75h20c.41 0 .75-.34.75-.75V4c0-.42-.34-.75-.75-.75H2Z"/><path fill="#727982" d="M1.25 4c0-.42.33-.75.75-.75h20c.41 0 .75.33.75.75v13c0 .41-.34.75-.75.75H2c-.42 0-.75-.34-.75-.75V4Zm1.5.75v11.5h18.5V4.75H2.75Z"/><path fill="#EE4D4D" d="M10.07 5.75c.29.03.55.23.63.52l1.85 5.94 1.72-4.49c.1-.28.36-.47.66-.48 .29-.02.57.14.7.41l1.29 2.58h2.03c.41 0 .75.33.75.75 0 .41-.34.75-.75.75h-2.5c-.29 0-.55-.17-.68-.42l-.74-1.48 -1.89 4.91c-.12.29-.41.49-.73.48 -.32-.02-.6-.23-.7-.53L9.73 8.35l-1.66 2.97c-.14.23-.39.38-.66.38h-2.5c-.42 0-.75-.34-.75-.75 0-.42.33-.75.75-.75h2.05l2.28-4.12c.14-.27.43-.42.73-.39Z"/></g></svg>