<svg viewBox="0 0 24 24" xmlns="http://www.w3.org/2000/svg"><g fill="#FFD071" fill-rule="evenodd"><path d="M13 1.25c-4.56 0-8.25 3.69-8.25 8.25 0 .1 0 .21 0 .32l-1.71 3.82c-.32.7.08 1.532.83 1.72l1.35.33v2.28c0 .96.78 1.75 1.75 1.75h2.04l.15 1.74c.06.75.79 1.27 1.53 1.1l7.5-1.77c.61-.15 1.02-.73.95-1.36l-.46-4.06c1.54-1.5 2.5-3.6 2.5-5.93 0-4.56-3.7-8.25-8.25-8.25Z"/><g fill="#5D6874"><path d="M12.5 5.75c-.7 0-1.25.55-1.25 1.25v1c0 .41-.34.75-.75.75 -.42 0-.75-.34-.75-.75V7c0-1.52 1.23-2.75 2.75-2.75h1c1.51 0 2.75 1.23 2.75 2.75v.03c0 .83-.38 1.62-1.04 2.14l-1 .79c-.3.23-.47.59-.47.97v1.03c0 .41-.34.75-.75.75 -.42 0-.75-.34-.75-.75v-1.04c0-.84.37-1.63 1.03-2.15l.99-.8c.29-.24.46-.6.46-.98v-.04c0-.7-.56-1.25-1.25-1.25h-1Z"/><path d="M13 13.25c.41 0 .75.33.75.75v1.5c0 .41-.34.75-.75.75 -.42 0-.75-.34-.75-.75V14c0-.42.33-.75.75-.75Z"/></g></g></svg>