<svg viewBox="0 0 24 24" xmlns="http://www.w3.org/2000/svg"><g fill="#8B98A6" fill-rule="evenodd"><path d="M3.25 4.08c0-1.59 1.23-2.87 2.75-2.87h14c.41 0 .75.35.75.78 0 .43-.34.78-.75.78H6c-.7 0-1.25.58-1.25 1.3v.91c0 .43-.34.78-.75.78 -.42 0-.75-.36-.75-.79v-.92Z"/><path fill="#ECEFF1" d="M4 4.21c-.42 0-.75.35-.75.78v17c0 .43.33.78.75.78h16c.41 0 .75-.36.75-.79v-17c0-.44-.34-.79-.75-.79H4Z"/><path fill="#EE4D4D" d="M10.5 7.71c-.42 0-.75.35-.75.78v2.21H7.5c-.42 0-.75.35-.75.78v3c0 .43.33.78.75.78h2.25v2.21c0 .43.33.78.75.78h3c.41 0 .75-.36.75-.79v-2.22h2.25c.41 0 .75-.36.75-.79v-3c0-.44-.34-.79-.75-.79h-2.25V8.44c0-.44-.34-.79-.75-.79h-3Z"/></g></svg>