<svg viewBox="0 0 24 24" xmlns="http://www.w3.org/2000/svg"><g fill="#A2D471" fill-rule="evenodd"><path d="M20 14.21c.41 0 .75.35.75.78v2.36c0 2.16-1.68 3.91-3.75 3.91h-4.5c-.42 0-.75-.36-.75-.79V18.1c0-2.17 1.67-3.92 3.75-3.92H20Z"/><path fill="#8BC94D" d="M4 12.21c-.42 0-.75.35-.75.78v4.36c0 2.16 1.67 3.91 3.75 3.91h5.5c.41 0 .75-.36.75-.79V16.1c0-2.17-1.68-3.92-3.75-3.92H4Z"/><path fill="#EE4D4D" d="M15.5 2.71c-2.87 0-5.25 2.33-5.25 5.28 0 2.94 2.38 5.28 5.25 5.28 2.86 0 5.25-2.34 5.25-5.29s-2.39-5.29-5.25-5.29Z"/><g fill="#F9F9F9"><path d="M15.5 5.21c.41 0 .75.35.75.78v4c0 .43-.34.78-.75.78 -.42 0-.75-.36-.75-.79v-4c0-.44.33-.79.75-.79Z"/><path d="M12.75 8c0-.44.33-.79.75-.79h4c.41 0 .75.35.75.78 0 .43-.34.78-.75.78h-4c-.42 0-.75-.36-.75-.79Z"/></g></g></svg>