<svg viewBox="0 0 24 24" xmlns="http://www.w3.org/2000/svg"><g fill="#5D6874" fill-rule="evenodd"><path d="M20 2.75c-1.52 0-2.75 1.22-2.75 2.73l-4.74 3.94c-.25.2-.34.53-.23.83 .1.29.38.49.7.49h4c.19 0 .38-.08.53-.22l2.28-2.29c.06 0 .12 0 .18 0 1.51 0 2.75-1.24 2.75-2.75 0-1.52-1.24-2.75-2.75-2.75Z"/><path fill="#8B98A6" d="M8 16.75c-.42 0-.75.33-.75.75v2c0 .96.78 1.75 1.75 1.75h6c.96 0 1.75-.79 1.75-1.75v-2c0-.42-.34-.75-.75-.75H8Z"/><path fill="#ECEFF1" d="M3 9.25c-.42 0-.75.33-.75.75 0 4.91 4.45 8.75 9.75 8.75 5.29 0 9.75-3.84 9.75-8.75 0-.42-.34-.75-.75-.75H3Z"/></g></svg>