<svg viewBox="0 0 24 24" xmlns="http://www.w3.org/2000/svg"><g fill="#8B98A6" fill-rule="evenodd"><path d="M19 9.75c.41 0 .75.33.75.75v8c0 2.34-1.91 4.25-4.25 4.25h-4c-2.35 0-4.25-1.91-4.25-4.25V15c0-.42.33-.75.75-.75 .41 0 .75.33.75.75v3.5c0 1.51 1.23 2.75 2.75 2.75h4c1.51 0 2.75-1.24 2.75-2.75v-8c0-.42.33-.75.75-.75Z"/><path fill="#ECEFF1" d="M4.5 1.25c-1.8 0-3.25 1.45-3.25 3.25v8c0 1.79 1.45 3.25 3.25 3.25h7c1.79 0 3.25-1.46 3.25-3.25v-8c0-1.8-1.46-3.25-3.25-3.25h-7Z"/><path fill="#EE4D4D" d="M8.12 7.18c-.98-.65-2.22-.73-3.26-.21l-.71.35c-.26.12-.42.38-.42.67v4.49c0 .41.33.75.75.75h7c.41 0 .75-.34.75-.75v-4.5c0-.26-.14-.51-.36-.64 -.23-.14-.5-.15-.73-.04l-.71.35c-.57.28-1.24.23-1.76-.11l-.59-.4Z"/><path d="M19 1.25c.41 0 .75.33.75.75v3.5c0 .41-.34.75-.75.75 -.42 0-.75-.34-.75-.75V2c0-.42.33-.75.75-.75Z"/><path fill="#5D6874" d="M17.5 4.75c-.42 0-.75.33-.75.75v5c0 .41.33.75.75.75h3c.41 0 .75-.34.75-.75v-5c0-.42-.34-.75-.75-.75h-3Z"/></g></svg>