<svg viewBox="0 0 24 24" xmlns="http://www.w3.org/2000/svg"><g fill="#FFC44D" fill-rule="evenodd"><path d="M2 2.71c-.42 0-.75.35-.75.78v17c0 .43.33.78.75.78h20c.41 0 .75-.36.75-.79v-14c0-.44-.34-.79-.75-.79H10.39L8.61 3.02c-.15-.22-.38-.34-.62-.34h-6Z"/><path fill="#EE4D4D" d="M10.5 8.21c-.42 0-.75.35-.75.78v2.21H7.5c-.42 0-.75.35-.75.78v3c0 .43.33.78.75.78h2.25v2.21c0 .43.33.78.75.78h3c.41 0 .75-.36.75-.79v-2.22h2.25c.41 0 .75-.36.75-.79v-3c0-.44-.34-.79-.75-.79h-2.25V8.94c0-.44-.34-.79-.75-.79h-3Z"/></g></svg>