<svg viewBox="0 0 24 24" xmlns="http://www.w3.org/2000/svg"><g fill="#ECEFF1" fill-rule="evenodd"><path d="M5.5 3.21c-2.35 0-4.25 1.98-4.25 4.43v8.69c0 2.44 1.9 4.43 4.25 4.43 2.34 0 4.25-1.99 4.25-4.44v-8.7c0-2.45-1.91-4.44-4.25-4.44Z"/><path d="M17 6.21c-3.15 0-5.75 2.55-5.75 5.78 0 3.22 2.6 5.78 5.75 5.78 3.14 0 5.75-2.56 5.75-5.79s-2.61-5.79-5.75-5.79Z"/><path fill="#A2ADB8" d="M17 6.21c.41 0 .75.35.75.78v9.99c0 .43-.34.78-.75.78 -.42 0-.75-.36-.75-.79v-10c0-.44.33-.79.75-.79Z"/><path fill="#8BC94D" d="M9.75 7.65c0-2.45-1.91-4.44-4.25-4.44 -2.35 0-4.25 1.98-4.25 4.43v4.34c0 .43.33.78.75.78h7c.41 0 .75-.36.75-.79V7.62Z"/></g></svg>