<svg viewBox="0 0 24 24" xmlns="http://www.w3.org/2000/svg"><g fill="#8B98A6" fill-rule="evenodd"><path d="M21.25 2c0-.2-.08-.39-.22-.54 -.15-.15-.34-.22-.54-.22h-3c-.42 0-.75.33-.75.75v8c0 .27.15.53.39.66 .24.13.53.11.76-.04l3-2c.2-.14.33-.38.33-.63v-6Z"/><path fill="#ECEFF1" d="M18.25 2c0-.42-.34-.75-.75-.75h-14c-.2 0-.39.07-.54.21 -.15.14-.22.33-.22.53v20c0 .41.33.75.75.75h14c.41 0 .75-.34.75-.75v-12 -8Z"/><path fill="#EE4D4D" d="M15.75 7.5c0-.42-.34-.75-.75-.75h-2.25V4.5c0-.42-.34-.75-.75-.75H9c-.42 0-.75.33-.75.75v2.25H6c-.42 0-.75.33-.75.75v3c0 .41.33.75.75.75h2.25v2.25c0 .41.33.75.75.75h3c.41 0 .75-.34.75-.75v-2.25H15c.41 0 .75-.34.75-.75v-3Z"/><path d="M5.25 16.5c0-.42.33-.75.75-.75h9c.41 0 .75.33.75.75 0 .41-.34.75-.75.75H6c-.42 0-.75-.34-.75-.75Z"/><path d="M5.25 19.5c0-.42.33-.75.75-.75h9c.41 0 .75.33.75.75 0 .41-.34.75-.75.75H6c-.42 0-.75-.34-.75-.75Z"/></g></svg>