<svg viewBox="0 0 24 24" xmlns="http://www.w3.org/2000/svg"><g fill="#ECEFF1" fill-rule="evenodd"><path d="M5 4.75c-.42 0-.75.33-.75.75V22c0 .41.33.75.75.75h14c.41 0 .75-.34.75-.75V5.5c0-.42-.34-.75-.75-.75h-3.5H5Z"/><path fill="#5D6874" d="M12 1.25c-1.16 0-2.12.87-2.24 2H8.49c-.42 0-.75.33-.75.75v3c0 .41.33.75.75.75h7c.41 0 .75-.34.75-.75V4c0-.42-.34-.75-.75-.75h-1.27c-.13-1.13-1.08-2-2.24-2Z"/><path fill="#EE4D4D" d="M10.03 9.25c.32.01.6.23.69.54l1.47 5.14 1.63-3.28c.12-.26.38-.42.67-.42 .28 0 .54.16.67.41l.79 1.58h1.03c.41 0 .75.33.75.75 0 .41-.34.75-.75.75h-1.5c-.29 0-.55-.17-.68-.42l-.33-.66 -1.83 3.65c-.14.27-.44.44-.75.41 -.31-.03-.57-.25-.66-.55l-1.38-4.82 -.71 1.87c-.11.29-.39.48-.71.48h-1.5c-.42 0-.75-.34-.75-.75 0-.42.33-.75.75-.75h.98l1.31-3.52c.11-.31.4-.5.73-.49Z"/></g></svg>