<svg viewBox="0 0 24 24" xmlns="http://www.w3.org/2000/svg"><g fill="#8B98A6" fill-rule="evenodd"><path d="M11 6.25c-.42 0-.75.33-.75.75v3c0 .41.33.75.75.75 1.79 0 3.25 1.45 3.25 3.25 0 1.79-1.46 3.25-3.25 3.25 -.42 0-.75.33-.75.75v3c0 .41.33.75.75.75 4.28 0 7.75-3.47 7.75-7.75 0-4.29-3.47-7.75-7.75-7.75Z"/><path d="M7 2.25c-.42 0-.75.33-.75.75v2.5c0 .41.33.75.75.75h3c.41 0 .75-.34.75-.75V3c0-.42-.34-.75-.75-.75H7Z"/><path fill="#ECEFF1" d="M6 4.75c-.42 0-.75.33-.75.75v8c0 .41.33.75.75.75h5c.41 0 .75-.34.75-.75v-8c0-.42-.34-.75-.75-.75H6Z"/><path fill="#5D6874" d="M10.25 21c0-.42.33-.75.75-.75h10c.41 0 .75.33.75.75 0 .41-.34.75-.75.75H11c-.42 0-.75-.34-.75-.75Z"/><path fill="#ECEFF1" d="M4 17.25c-.33 0-.61.2-.72.51l-1 3c-.08.22-.04.48.1.67 .14.19.36.31.6.31h7.99c.41 0 .75-.34.75-.75v-3c0-.42-.34-.75-.75-.75h-7Z"/></g></svg>