<svg viewBox="0 0 24 24" xmlns="http://www.w3.org/2000/svg"><g fill="#8B98A6" fill-rule="evenodd"><path d="M18.49 1.41c.31.28.34.77.06 1.1L8.39 14.59c-.28.32-.75.35-1.06.07 -.32-.29-.35-.78-.07-1.11L17.41 1.46c.27-.33.74-.36 1.05-.08Z"/><path d="M5.5 1.41c-.32.28-.35.77-.07 1.1l10 11.9c.27.32.74.35 1.05.07 .31-.29.34-.78.06-1.11l-10-11.91c-.28-.33-.75-.36-1.06-.08Z"/><g fill="#5D6874"><path d="M6 14.78c-1.83 0-3.25 1.47-3.25 3.21s1.42 3.21 3.25 3.21c1.82 0 3.25-1.48 3.25-3.22 0-1.75-1.43-3.22-3.25-3.22Zm-4.75 3.21c0-2.68 2.15-4.79 4.75-4.79 2.59 0 4.75 2.11 4.75 4.78 0 2.67-2.16 4.78-4.75 4.78 -2.6 0-4.75-2.12-4.75-4.79Z"/><path d="M18 14.78c-1.83 0-3.25 1.47-3.25 3.21s1.42 3.21 3.25 3.21c1.82 0 3.25-1.48 3.25-3.22 0-1.75-1.43-3.22-3.25-3.22Zm-4.75 3.21c0-2.68 2.15-4.79 4.75-4.79 2.59 0 4.75 2.11 4.75 4.78 0 2.67-2.16 4.78-4.75 4.78 -2.6 0-4.75-2.12-4.75-4.79Z"/></g></g></svg>