<svg viewBox="0 0 24 24" xmlns="http://www.w3.org/2000/svg"><g fill="#ECEFF1" fill-rule="evenodd"><path d="M8.5 8.75c-.61 0-1.12.43-1.23 1.01 -1.14.11-2.03 1.07-2.03 2.23s.88 2.12 2.02 2.23c.11.57.61 1.01 1.22 1.01h7c.6 0 1.11-.44 1.22-1.02 1.13-.12 2.02-1.08 2.02-2.24 0-1.17-.89-2.13-2.03-2.24 -.12-.58-.62-1.02-1.23-1.02h-7Z"/><path d="M8.5 16.25c-.61 0-1.12.43-1.23 1.01 -1.14.11-2.03 1.07-2.03 2.23s.88 2.12 2.02 2.23c.11.57.61 1.01 1.22 1.01h7c.6 0 1.11-.44 1.22-1.02 1.13-.12 2.02-1.08 2.02-2.24 0-1.17-.89-2.13-2.03-2.24 -.12-.58-.62-1.02-1.23-1.02h-7Z"/><path d="M8.5 1.25c-.61 0-1.12.43-1.23 1.01 -1.14.11-2.03 1.07-2.03 2.23s.88 2.12 2.02 2.23c.11.57.61 1.01 1.22 1.01h7c.6 0 1.11-.44 1.22-1.02 1.13-.12 2.02-1.08 2.02-2.24 0-1.17-.89-2.13-2.03-2.24 -.12-.58-.62-1.02-1.23-1.02h-7Z"/><g fill="#A2ADB8"><path d="M9 6.25c-.42 0-.75.33-.75.75v2.5c0 .41.33.75.75.75h6c.41 0 .75-.34.75-.75V7c0-.42-.34-.75-.75-.75H9Z"/><path d="M9 13.75c-.42 0-.75.33-.75.75V17c0 .41.33.75.75.75h6c.41 0 .75-.34.75-.75v-2.5c0-.42-.34-.75-.75-.75H9Z"/></g></g></svg>