<svg viewBox="0 0 24 24" xmlns="http://www.w3.org/2000/svg"><g fill="#5D6874" fill-rule="evenodd"><path d="M1.25 12c0-1.52 1.23-2.75 2.75-2.75h1c.41 0 .75.33.75.75v5.5c0 .41-.34.75-.75.75H4c-1.52 0-2.75-1.24-2.75-2.75V12ZM4 10.75c-.7 0-1.25.55-1.25 1.25v1.5c0 .69.55 1.25 1.25 1.25h.25v-4H4Z"/><path d="M22.75 12c0-1.52-1.24-2.75-2.75-2.75h-1c-.42 0-.75.33-.75.75v5.5c0 .41.33.75.75.75h1c1.51 0 2.75-1.24 2.75-2.75V12ZM20 10.75c.69 0 1.25.55 1.25 1.25v1.5c0 .69-.56 1.25-1.25 1.25h-.25v-4H20Z"/><path d="M12.39 6.36c-.25-.16-.56-.16-.8 0L7.71 8.78l-2.86.47c-.37.06-.63.37-.63.73v4.88c0 1.29.9 2.41 2.17 2.68l5.41 1.16c.1.02.21.02.31 0l5.41-1.17c1.26-.28 2.17-1.4 2.17-2.69V9.95c0-.37-.27-.68-.63-.74l-2.86-.48 -3.88-2.43Z"/><path fill="#8B98A6" d="M14.5 11.25c-1.25 0-2.25 1-2.25 2.25 0 1.24 1 2.25 2.25 2.25 1.24 0 2.25-1.01 2.25-2.25 0-1.25-1.01-2.25-2.25-2.25Z"/></g></svg>