<svg viewBox="0 0 24 24" xmlns="http://www.w3.org/2000/svg"><g fill="#A2ADB8" fill-rule="evenodd"><path d="M19.5 11.21c.41 0 .75.35.75.78v7.43c0 1.29-1.01 2.34-2.25 2.34H9c-1.25 0-2.25-1.06-2.25-2.35v-5.44c0-.44.33-.79.75-.79 .41 0 .75.35.75.78v5.43c0 .43.33.78.75.78h9c.41 0 .75-.36.75-.79v-7.44c0-.44.33-.79.75-.79Z"/><g fill="#8B98A6"><path d="M19.5 6.21c-1.77 0-3.25 1.43-3.25 3.28 0 1.84 1.48 3.28 3.25 3.28 1.76 0 3.25-1.44 3.25-3.29s-1.49-3.29-3.25-3.29Z"/><path d="M3.5 3.78c-.42 0-.75.35-.75.78v4.21c0 2.44 1.9 4.43 4.25 4.43h1c2.34 0 4.25-1.99 4.25-4.44V4.54c0-.44-.34-.79-.75-.79H11c-.42 0-.75-.36-.75-.79 0-.44.33-.79.75-.79h.5c1.24 0 2.25 1.05 2.25 2.34v4.21c0 3.31-2.58 5.99-5.75 5.99H7c-3.18 0-5.75-2.69-5.75-6V4.49c0-1.3 1-2.35 2.25-2.35H4c.41 0 .75.35.75.78 0 .43-.34.78-.75.78h-.5Z"/></g></g></svg>