<svg viewBox="0 0 24 24" xmlns="http://www.w3.org/2000/svg"><g fill="#8B98A6" fill-rule="evenodd"><path d="M12.23 6.28c.39.13.6.55.47.94l-4.01 12c-.14.39-.56.6-.95.47 -.4-.14-.61-.56-.48-.95l3.99-12c.13-.4.55-.61.94-.48Z"/><path d="M10.69 1.72c-.12-.29-.39-.48-.7-.48h-4c-.42 0-.75.33-.75.75 0 .41.33.75.75.75h3.49l1.8 4.5 3.99 11.97c.13.39.55.6.94.47 .39-.14.6-.56.47-.95l-4-12c-.01-.02-.01-.03-.02-.05l-2-5Z"/><g fill="#5D6874"><path d="M5 16.75c-1.25 0-2.25 1-2.25 2.25 0 1.24 1 2.25 2.25 2.25 1.24 0 2.25-1.01 2.25-2.25 0-1.25-1.01-2.25-2.25-2.25ZM1.25 19c0-2.08 1.67-3.75 3.75-3.75 2.07 0 3.75 1.67 3.75 3.75 0 2.07-1.68 3.75-3.75 3.75 -2.08 0-3.75-1.68-3.75-3.75Z"/><path d="M19 16.75c-1.25 0-2.25 1-2.25 2.25 0 1.24 1 2.25 2.25 2.25 1.24 0 2.25-1.01 2.25-2.25 0-1.25-1.01-2.25-2.25-2.25ZM15.25 19c0-2.08 1.67-3.75 3.75-3.75 2.07 0 3.75 1.67 3.75 3.75 0 2.07-1.68 3.75-3.75 3.75 -2.08 0-3.75-1.68-3.75-3.75Z"/></g></g></svg>