<svg viewBox="0 0 24 24" xmlns="http://www.w3.org/2000/svg"><g fill="#ECEFF1" fill-rule="evenodd"><path d="M8 4.25c-.42 0-.75.33-.75.75v13.5c0 2.34 1.9 4.25 4.25 4.25h1c2.34 0 4.25-1.91 4.25-4.25V5c0-.42-.34-.75-.75-.75H8Z"/><path fill="#8B98A6" d="M12 4.25c.41 0 .75.33.75.75v9c0 .41-.34.75-.75.75 -.42 0-.75-.34-.75-.75V5c0-.42.33-.75.75-.75Z"/><path fill="#5E94FF" d="M8 1.25c-.42 0-.75.33-.75.75v3c0 .41.33.75.75.75h8c.41 0 .75-.34.75-.75V2c0-.42-.34-.75-.75-.75H8Z"/><path fill="#8B98A6" d="M12 14l.51-.55c-.29-.28-.75-.28-1.04 0l.51.54Zm0 0c-.52-.55-.516-.55-.52-.55l-.01 0 -.01 0 -.01 0 -.01 0 -.02.01c-.02.01-.04.03-.07.06 -.06.05-.15.14-.25.24 -.2.2-.47.49-.73.81 -.27.32-.55.7-.77 1.08 -.21.36-.41.82-.41 1.3 0 1.51 1.23 2.75 2.75 2.75 1.51 0 2.75-1.24 2.75-2.75 0-.48-.21-.94-.41-1.31 -.22-.39-.5-.77-.77-1.09 -.27-.33-.54-.62-.73-.82 -.1-.11-.19-.19-.25-.25 -.03-.03-.06-.06-.07-.07l-.02-.02 -.01-.01 -.01-.01 -.01-.01 -.01-.01c-.01-.01-.01-.01-.52.54Z"/></g></svg>