<svg viewBox="0 0 24 24" xmlns="http://www.w3.org/2000/svg"><g fill="#5D6874" fill-rule="evenodd"><path d="M9 5.21c-.42 0-.75.35-.75.78v4c0 .43.33.78.75.78h6c.41 0 .75-.36.75-.79v-4c0-.44-.34-.79-.75-.79H9Z"/><path fill="#8B98A6" d="M8.5 1.21c-1.25 0-2.25 1.05-2.25 2.34v.86c0 1.29 1 2.34 2.25 2.34h7c1.24 0 2.25-1.06 2.25-2.35v-.87c0-1.3-1.01-2.35-2.25-2.35h-7Z"/><path fill="#EE4D4D" d="M7.5 9.21c-1.25 0-2.25 1.05-2.25 2.34v8.86c0 1.29 1 2.34 2.25 2.34h9c1.24 0 2.25-1.06 2.25-2.35v-8.87c0-1.3-1.01-2.35-2.25-2.35h-9Z"/><path fill="#F9F9F9" d="M6 12.21c-.42 0-.75.35-.75.78v6c0 .43.33.78.75.78h8c.41 0 .75-.36.75-.79v-6c0-.44-.34-.79-.75-.79H6Z"/></g></svg>