<svg viewBox="0 0 24 24" xmlns="http://www.w3.org/2000/svg"><g fill="#CFD8DC" fill-rule="evenodd"><path d="M9.5 16.25c-.23 0-.44.09-.58.26l-2.5 3c-.19.22-.23.53-.11.79 .12.26.38.43.67.43h9.99c.29 0 .55-.17.67-.44s.08-.58-.11-.8l-2.5-3c-.15-.18-.36-.27-.58-.27h-5Z"/><path fill="#ECEFF1" d="M2 3.25c-.42 0-.75.33-.75.75v13c0 .41.33.75.75.75h20c.41 0 .75-.34.75-.75V4c0-.42-.34-.75-.75-.75H2Z"/><path fill="#727982" d="M1.25 4c0-.42.33-.75.75-.75h20c.41 0 .75.33.75.75v13c0 .41-.34.75-.75.75H2c-.42 0-.75-.34-.75-.75V4Zm1.5.75v11.5h18.5V4.75H2.75Z"/><path fill="#8B98A6" d="M9.23 5.78c-.36-.12-.75.04-.91.37l-3 6c-.1.19-.11.42-.03.62s.24.35.45.42l4.73 1.57c.97.32 2.02.32 3 0l4.73-1.58c.2-.07.37-.23.45-.43 .08-.21.07-.43-.03-.63l-3-6.01c-.17-.34-.56-.5-.91-.38l-1.74.57c-.67.22-1.39.22-2.06 0l-1.74-.58Z"/></g></svg>