<svg viewBox="0 0 24 24" xmlns="http://www.w3.org/2000/svg"><g fill="#ECEFF1" fill-rule="evenodd"><path d="M6 5.21c-.42 0-.75.35-.75.78v13.95c0 1 .78 1.82 1.75 1.82h10c.96 0 1.75-.82 1.75-1.83V5.97c0-.44-.34-.79-.75-.79H6Z"/><path fill="#5D6874" d="M4.5 2.21c-.42 0-.75.35-.75.78v3c0 .43.33.78.75.78h15c.41 0 .75-.36.75-.79v-3c0-.44-.34-.79-.75-.79h-15Z"/><path fill="#8BC94D" d="M6 8.21c-.42 0-.75.35-.75.78v9c0 .43.33.78.75.78h12c.41 0 .75-.36.75-.79v-9c0-.44-.34-.79-.75-.79H6Z"/><path fill="#F9F9F9" d="M9.65 10.8c.36-.2.82-.06 1.01.33l1.33 2.67 1.33-2.68c.19-.39.64-.54 1.01-.34 .36.19.5.67.31 1.05l-2 4c-.13.25-.39.42-.67.42s-.54-.17-.67-.43l-2.01-4c-.2-.39-.05-.86.31-1.06Z"/></g></svg>