<svg viewBox="0 0 24 24" xmlns="http://www.w3.org/2000/svg"><g fill="#FFD071" fill-rule="evenodd"><path d="M13 1.25c-4.56 0-8.25 3.69-8.25 8.25V11v7c0 .69.55 1.25 1.25 1.25h2.68c.05 0 .09.01.14.04l.18.12 .18 2.07c.06.75.79 1.27 1.53 1.1l7.5-1.77c.61-.15 1.02-.73.95-1.36l-.46-4.06c1.54-1.5 2.5-3.6 2.5-5.93 0-4.56-3.7-8.25-8.25-8.25Z"/><path fill="#8B98A6" d="M16.25 11.34c0-.43-.47-.69-.83-.46l-3.53 2.24c-.35.22-.82.11-1.04-.23 -.23-.35-.12-.82.23-1.04L14.6 9.6c1.35-.87 3.13.11 3.13 1.71 0 .65-.32 1.26-.84 1.64l-4.97 3.61c-.34.24-.81.16-1.05-.17 -.25-.34-.17-.81.16-1.05L16 11.72c.13-.11.22-.27.22-.44Z"/><path fill="#5D6874" d="M4 10.25c-.31 0-.59.18-.7.47l-.15.36c-1.1 2.82-.9 5.99.57 8.65l.61 1.11c.19.35.63.48.99.3l4-2c.07-.04.13-.09.19-.15l2.5-2.5c.14-.15.21-.34.21-.54v-3.5c0-.34-.23-.64-.56-.73l-5.51-1.5c-.07-.02-.14-.03-.2-.03h-2Z"/></g></svg>