<svg viewBox="0 0 24 24" xmlns="http://www.w3.org/2000/svg"><g fill="#5D6874" fill-rule="evenodd"><path d="M6.5 5c0-.42.33-.75.75-.75H18c.41 0 .75.33.75.75 0 .41-.34.75-.75.75H7.25c-.42 0-.75-.34-.75-.75Z"/><path d="M3.75 9.5c0-.42.33-.75.75-.75H11c.41 0 .75.33.75.75 0 .41-.34.75-.75.75H5.25v3H8c.41 0 .75.33.75.75 0 .41-.34.75-.75.75H5.25V17c0 .41-.34.75-.75.75 -.42 0-.75-.34-.75-.75V9.5Z"/><g fill="#8B98A6"><path d="M16 9.25c-3.73 0-6.75 3.02-6.75 6.75 0 3.72 3.02 6.75 6.75 6.75 3.72 0 6.75-3.03 6.75-6.75 0-3.73-3.03-6.75-6.75-6.75Z"/><path d="M4.5 16.25c-1.8 0-3.25 1.45-3.25 3.25 0 1.79 1.45 3.25 3.25 3.25 1.79 0 3.25-1.46 3.25-3.25 0-1.8-1.46-3.25-3.25-3.25Z"/></g><path d="M17.25 2c0-.42.33-.75.75-.75h4c.41 0 .75.33.75.75 0 .41-.34.75-.75.75h-3.25V7.5c0 .41-.34.75-.75.75 -.42 0-.75-.34-.75-.75V2Z"/></g></svg>