<svg viewBox="0 0 24 24" xmlns="http://www.w3.org/2000/svg"><g fill-rule="evenodd"><path d="M1.25 12c0-.42.33-.75.75-.75h10c.41 0 .75.33.75.75v10c0 .41-.34.75-.75.75H2c-.42 0-.75-.34-.75-.75V12Zm1.5.75v8.5h8.5v-8.5h-8.5Z"/><path d="M11.25 12c0-.42.33-.75.75-.75h10c.41 0 .75.33.75.75v10c0 .41-.34.75-.75.75H12c-.42 0-.75-.34-.75-.75V12Zm1.5.75v8.5h8.5v-8.5h-8.5Z"/><path d="M6.25 2c0-.42.33-.75.75-.75h10c.41 0 .75.33.75.75v10c0 .41-.34.75-.75.75H7c-.42 0-.75-.34-.75-.75V7.5c0-.42.33-.75.75-.75 .41 0 .75.33.75.75v3.75h8.5v-8.5h-8.5v.75c0 .41-.34.75-.75.75 -.42 0-.75-.34-.75-.75V2Z"/><path d="M9.25 2c0-.42.33-.75.75-.75h4c.41 0 .75.33.75.75v5c0 .25-.14.5-.36.63 -.23.13-.5.14-.73.03l-1.67-.84 -1.67.83c-.24.11-.51.1-.73-.04 -.23-.14-.36-.38-.36-.64v-5Zm1.5.75v3.03l.91-.46c.21-.11.45-.11.67 0l.91.45V2.73h-2.5Z"/><path d="M4.25 12c0-.42.33-.75.75-.75h4c.41 0 .75.33.75.75v5c0 .25-.14.5-.36.63 -.23.13-.5.14-.73.03l-1.67-.84 -1.67.83c-.24.11-.51.1-.73-.04 -.23-.14-.36-.38-.36-.64v-5Zm1.5.75v3.03l.91-.46c.21-.11.45-.11.67 0l.91.45v-3.04h-2.5Z"/><path d="M14.25 12c0-.42.33-.75.75-.75h4c.41 0 .75.33.75.75v5c0 .25-.14.5-.36.63 -.23.13-.5.14-.73.03l-1.67-.84 -1.67.83c-.24.11-.51.1-.73-.04 -.23-.14-.36-.38-.36-.64v-5Zm1.5.75v3.03l.91-.46c.21-.11.45-.11.67 0l.91.45v-3.04h-2.5Z"/></g></svg>