<svg viewBox="0 0 24 24" xmlns="http://www.w3.org/2000/svg"><g fill-rule="evenodd"><path d="M6.79 2.43c.77-.39 1.72-.16 2.21.56l1.34 1.92c.36.52.41 1.2.13 1.78l-1.25 2.5c-.05.08-.04.17.01.25l3.14 4.48c.05.07.14.11.23.1l2.77-.32c.63-.08 1.26.21 1.63.73l1.34 1.92c.49.71.39 1.68-.24 2.27l-2.47 2.32c-1.23 1.15-3.18.95-4.14-.43 -.24-.34-.16-.81.18-1.05 .33-.24.8-.16 1.04.18 .43.62 1.32.71 1.88.19l2.46-2.33c.09-.09.1-.23.03-.33l-1.35-1.93c-.06-.08-.15-.12-.24-.11l-2.78.31c-.64.07-1.27-.22-1.63-.74l-3.15-4.49c-.37-.53-.42-1.21-.14-1.79l1.24-2.51 .67.33 -.68-.34c.04-.09.03-.18-.02-.26L7.65 3.71c-.08-.11-.21-.14-.32-.09L4.29 5.14c-.69.34-.91 1.2-.47 1.83l5.9 8.43c.23.33.15.8-.19 1.04 -.34.23-.81.15-1.05-.19L2.57 7.81c-.97-1.38-.49-3.29 1.01-4.04l3.03-1.53Z"/><path d="M21.7 5.24c0-.42-.34-.75-.75-.75h-5c-.42 0-.75.33-.75.75 0 .41.33.75.75.75h5c.41 0 .75-.34.75-.75Z"/><path d="M21.98 5.77c.29-.3.29-.77 0-1.07l-2-2c-.3-.3-.77-.3-1.07 0 -.3.29-.3.76 0 1.06l1.46 1.46 -1.47 1.46c-.3.29-.3.76 0 1.06 .29.29.76.29 1.06 0l2-2Z"/><path d="M15.7 10.49c0 .41.33.75.75.75h5c.41 0 .75-.34.75-.75 0-.42-.34-.76-.75-.76h-5c-.42 0-.75.33-.75.75Z"/><path d="M15.42 9.96c-.3.29-.3.76 0 1.06l2 2c.29.29.76.29 1.06 0 .29-.3.29-.77 0-1.07l-1.47-1.47 1.46-1.47c.29-.3.29-.77 0-1.07 -.3-.3-.77-.3-1.07 0l-2 2Z"/></g></svg>