<svg viewBox="0 0 24 24" xmlns="http://www.w3.org/2000/svg"><g fill-rule="evenodd"><path d="M6.5 16.25c-.42 0-.75.33-.75.75 0 .41.33.75.75.75 .41 0 .75-.34.75-.75 0-.42-.34-.75-.75-.75ZM4.25 17c0-1.25 1-2.25 2.25-2.25 1.24 0 2.25 1 2.25 2.25 0 1.24-1.01 2.25-2.25 2.25 -1.25 0-2.25-1.01-2.25-2.25Z"/><path d="M17.5 16.25c-.42 0-.75.33-.75.75 0 .41.33.75.75.75 .41 0 .75-.34.75-.75 0-.42-.34-.75-.75-.75Zm-2.25.75c0-1.25 1-2.25 2.25-2.25 1.24 0 2.25 1 2.25 2.25 0 1.24-1.01 2.25-2.25 2.25 -1.25 0-2.25-1.01-2.25-2.25Z"/><path d="M13.25 5.5c0-.42.33-.75.75-.75h4c2.62 0 4.75 2.12 4.75 4.75V16c0 .96-.79 1.75-1.75 1.75h-2c-.42 0-.75-.34-.75-.75 0-.42.33-.75.75-.75h2c.13 0 .25-.12.25-.25V9.5c0-1.8-1.46-3.25-3.25-3.25h-3.25V13c0 .41-.34.75-.75.75H2.75v2.5H5c.41 0 .75.33.75.75 0 .41-.34.75-.75.75H2c-.42 0-.75-.34-.75-.75v-4c0-.42.33-.75.75-.75h11.25V5.5Zm-6 11.5c0-.42.33-.75.75-.75h2c.41 0 .75.33.75.75 0 .41-.34.75-.75.75H8c-.42 0-.75-.34-.75-.75Zm6 0c0-.42.33-.75.75-.75h2c.41 0 .75.33.75.75 0 .41-.34.75-.75.75h-2c-.42 0-.75-.34-.75-.75Z"/><path d="M1.25 5.5c0-.42.33-.75.75-.75h9c.41 0 .75.33.75.75v5c0 .41-.34.75-.75.75H2c-.42 0-.75-.34-.75-.75v-5Zm1.5.75v3.5h7.5v-3.5h-7.5Z"/><path d="M17 4.75c.41 0 .75.33.75.75v3.75H22c.41 0 .75.33.75.75 0 .41-.34.75-.75.75h-5c-.42 0-.75-.34-.75-.75V5.5c0-.42.33-.75.75-.75Z"/></g></svg>