<svg viewBox="0 0 24 24" xmlns="http://www.w3.org/2000/svg"><g fill-rule="evenodd"><path d="M1.25 6c0-1.52 1.23-2.75 2.75-2.75h11c1.51 0 2.75 1.23 2.75 2.75v6c0 1.51-1.24 2.75-2.75 2.75H4c-1.52 0-2.75-1.24-2.75-2.75V6ZM4 4.75c-.7 0-1.25.55-1.25 1.25v6c0 .69.55 1.25 1.25 1.25h11c.69 0 1.25-.56 1.25-1.25V6c0-.7-.56-1.25-1.25-1.25H4Z"/><path d="M16.25 9c0-.42.33-.75.75-.75h3c1.51 0 2.75 1.23 2.75 2.75v6c0 1.51-1.24 2.75-2.75 2.75h-5c-.42 0-.75-.34-.75-.75 0-.42.33-.75.75-.75h5c.69 0 1.25-.56 1.25-1.25v-6c0-.7-.56-1.25-1.25-1.25h-3c-.42 0-.75-.34-.75-.75ZM7 13.25c.41 0 .75.33.75.75v3c0 .69.55 1.25 1.25 1.25h2c.41 0 .75.33.75.75 0 .41-.34.75-.75.75H9c-1.52 0-2.75-1.24-2.75-2.75v-3c0-.42.33-.75.75-.75Z"/><path d="M1.25 7c0-.42.33-.75.75-.75h15c.41 0 .75.33.75.75 0 .41-.34.75-.75.75H2c-.42 0-.75-.34-.75-.75Z"/><path d="M16.25 12c0-.42.33-.75.75-.75h5c.41 0 .75.33.75.75 0 .41-.34.75-.75.75h-5c-.42 0-.75-.34-.75-.75Z"/></g></svg>