<svg viewBox="0 0 24 24" xmlns="http://www.w3.org/2000/svg"><g fill-rule="evenodd"><path d="M9 2.75C6.1 2.75 3.75 5.1 3.75 8v2c0 .41-.34.75-.75.75 -.42 0-.75-.34-.75-.75V8c0-3.73 3.02-6.75 6.75-6.75h6c3.72 0 6.75 3.02 6.75 6.75v2c0 .41-.34.75-.75.75 -.42 0-.75-.34-.75-.75V8c0-2.9-2.36-5.25-5.25-5.25H9Z"/><path d="M1.25 12c0-1.52 1.23-2.75 2.75-2.75h2c1.51 0 2.75 1.23 2.75 2.75v5c0 1.51-1.24 2.75-2.75 2.75H4c-1.52 0-2.75-1.24-2.75-2.75v-.5c0-.42.33-.75.75-.75 .41 0 .75.33.75.75v.5c0 .69.55 1.25 1.25 1.25h2c.69 0 1.25-.56 1.25-1.25v-5c0-.7-.56-1.25-1.25-1.25H4c-.7 0-1.25.55-1.25 1.25v.5c0 .41-.34.75-.75.75 -.42 0-.75-.34-.75-.75V12Z"/><path d="M15.25 12c0-1.52 1.23-2.75 2.75-2.75h2c1.51 0 2.75 1.23 2.75 2.75v5c0 1.51-1.24 2.75-2.75 2.75h-2c-1.52 0-2.75-1.24-2.75-2.75v-5ZM18 10.75c-.7 0-1.25.55-1.25 1.25v5c0 .69.55 1.25 1.25 1.25h2c.69 0 1.25-.56 1.25-1.25v-5c0-.7-.56-1.25-1.25-1.25h-2Z"/><path d="M20 18.25c.41 0 .75.33.75.75v2c0 .96-.79 1.75-1.75 1.75h-9c-.42 0-.75-.34-.75-.75 0-.42.33-.75.75-.75h9c.13 0 .25-.12.25-.25v-2c0-.42.33-.75.75-.75Z"/></g></svg>