<svg viewBox="0 0 24 24" xmlns="http://www.w3.org/2000/svg"><g fill-rule="evenodd"><path d="M15.94 5.49c.14-.16.34-.25.55-.25h.67c1.42 0 2.6 1.08 2.73 2.5l.41 4.51c1.36.15 2.42 1.32 2.42 2.73v2c0 .41-.34.75-.75.75h-8c-.42 0-.75-.34-.75-.75 0-.42.33-.75.75-.75h7.25v-1.25c0-.7-.56-1.25-1.25-1.25h-.37c-.39 0-.72-.3-.75-.69l-.48-5.19c-.06-.6-.52-1.06-1.1-1.13l.65 7.17c.01.2-.06.41-.2.57 -.15.15-.35.24-.56.24H9.93c-.42 0-.75-.34-.75-.75V9.7H7.93c-2.9 0-5.25 2.35-5.25 5.25v1.25h7.25c.41 0 .75.33.75.75 0 .41-.34.75-.75.75h-8c-.42 0-.75-.34-.75-.75v-2c0-3.73 3.02-6.75 6.75-6.75h2c.41 0 .75.33.75.75v4.25h5.65l-.66-7.19c-.02-.21.05-.42.19-.58Z"/><path d="M1.25 9c0-.42.33-.75.75-.75h10c.41 0 .75.33.75.75 0 .41-.34.75-.75.75H2c-.42 0-.75-.34-.75-.75Z"/><path d="M2.25 4c0-.42.33-.75.75-.75h5c.41 0 .75.33.75.75v5c0 .41-.34.75-.75.75H3c-.42 0-.75-.34-.75-.75V4Zm1.5.75v3.5h3.5v-3.5h-3.5Z"/><path d="M14.25 6c0-.42.33-.75.75-.75h2c.41 0 .75.33.75.75 0 .41-.34.75-.75.75h-2c-.42 0-.75-.34-.75-.75Z"/><path d="M4 16.25c.41 0 .75.33.75.75 0 .96.78 1.75 1.75 1.75 .96 0 1.75-.79 1.75-1.75 0-.42.33-.75.75-.75 .41 0 .75.33.75.75 0 1.79-1.46 3.25-3.25 3.25 -1.8 0-3.25-1.46-3.25-3.25 0-.42.33-.75.75-.75Z"/><path d="M16 16.25c.41 0 .75.33.75.75 0 .96.78 1.75 1.75 1.75 .96 0 1.75-.79 1.75-1.75 0-.42.33-.75.75-.75 .41 0 .75.33.75.75 0 1.79-1.46 3.25-3.25 3.25 -1.8 0-3.25-1.46-3.25-3.25 0-.42.33-.75.75-.75Z"/></g></svg>