<svg viewBox="0 0 24 24" xmlns="http://www.w3.org/2000/svg"><g fill-rule="evenodd"><path d="M6.25 2c0-.42.33-.75.75-.75h2.5c.29 0 .56.17.68.44l1.35 3c.06.14.08.3.05.46l-.36 1.65 .44.56 .16-.59c.02-.1.07-.19.13-.26l1.44-1.84 .33-2.8c.04-.38.36-.67.74-.67h2.5c.41 0 .75.33.75.75v1.5c0 .41-.34.75-.75.75 -.42 0-.75-.34-.75-.75V2.7h-1.09l-.28 2.33c-.02.13-.07.26-.16.37l-1.49 1.88 -.54 1.85c-.08.27-.31.47-.58.52 -.28.05-.57-.06-.74-.28l-1.58-2c-.14-.18-.2-.41-.15-.63l.37-1.76 -1.06-2.34H7.64v5.25c0 1.79 1.45 3.25 3.25 3.25h2c1.79 0 3.25-1.46 3.25-3.25v-.5c0-.42.33-.75.75-.75 .41 0 .75.33.75.75v.5c0 2.62-2.13 4.75-4.75 4.75h-2c-2.63 0-4.75-2.13-4.75-4.75v-6Z"/><path d="M12 11.25c.41 0 .75.33.75.75v7c0 .41-.34.75-.75.75 -.42 0-.75-.34-.75-.75v-7c0-.42.33-.75.75-.75Z"/><path d="M11.55 18.4c.26-.2.63-.2.9 0l4 3c.25.19.36.53.26.83 -.11.3-.39.51-.72.51h-8c-.33 0-.61-.21-.72-.52 -.11-.31 0-.65.26-.84l3.99-3Zm-1.3 2.85h3.5L12 19.93l-1.75 1.31Z"/></g></svg>