<svg viewBox="0 0 24 24" xmlns="http://www.w3.org/2000/svg"><g fill-rule="evenodd"><path d="M10 2.75c-2.69 0-5.03 1.45-6.29 3.62 -.21.35-.67.48-1.03.27 -.36-.21-.49-.67-.28-1.03 1.51-2.62 4.33-4.38 7.57-4.38 4.83 0 8.75 3.91 8.75 8.75 0 4.83-3.92 8.75-8.75 8.75 -4.84 0-8.75-3.92-8.75-8.75 0-.42.33-.75.75-.75 .41 0 .75.33.75.75 0 4 3.24 7.25 7.25 7.25 4 0 7.25-3.25 7.25-7.25 0-4.01-3.25-7.25-7.25-7.25Z"/><path d="M15.46 15.46c.29-.3.76-.3 1.06 0l6 6c.29.29.29.76 0 1.06 -.3.29-.77.29-1.07 0l-6-6c-.3-.3-.3-.77 0-1.07Z"/><path d="M6.75 7.5c0-.42.33-.75.75-.75h5c.41 0 .75.33.75.75v5c0 .41-.34.75-.75.75h-5c-.42 0-.75-.34-.75-.75v-5Zm1.5.75v3.5h3.5v-3.5h-3.5Z"/><path d="M10 6.75c.41 0 .75.33.75.75v2c0 .41-.34.75-.75.75 -.42 0-.75-.34-.75-.75v-2c0-.42.33-.75.75-.75Z"/></g></svg>