<svg viewBox="0 0 24 24" xmlns="http://www.w3.org/2000/svg"><g fill-rule="evenodd"><path d="M10 2.75c-4.01 0-7.25 3.24-7.25 7.25 0 4 3.24 7.25 7.25 7.25 4 0 7.25-3.25 7.25-7.25 0-2.73-1.51-5.11-3.74-6.35 -.37-.21-.5-.66-.3-1.02 .2-.37.65-.5 1.01-.3 2.68 1.49 4.51 4.36 4.51 7.65 0 4.83-3.92 8.75-8.75 8.75 -4.84 0-8.75-3.92-8.75-8.75 0-4.84 3.91-8.75 8.75-8.75 .41 0 .75.33.75.75 0 .41-.34.75-.75.75Z"/><path d="M15.46 15.46c.29-.3.76-.3 1.06 0l6 6c.29.29.29.76 0 1.06 -.3.29-.77.29-1.07 0l-6-6c-.3-.3-.3-.77 0-1.07Z"/></g></svg>