<svg viewBox="0 0 24 24" xmlns="http://www.w3.org/2000/svg"><path fill-rule="evenodd" d="M8 2.75c-.14 0-.25.11-.25.25v4c0 1.74 1.04 3.24 2.55 3.89 .27.11.44.38.44.68v.83c0 .29-.18.56-.45.68 -1.51.65-2.56 2.15-2.56 3.89v4c0 .13.11.25.25.25h8c.13 0 .25-.12.25-.25v-4c0-1.75-1.05-3.25-2.56-3.9 -.28-.12-.45-.39-.45-.69v-.84c0-.3.17-.57.44-.69 1.5-.66 2.55-2.16 2.55-3.9v-4c0-.14-.12-.25-.25-.25h-2c-.42 0-.75-.34-.75-.75 0-.42.33-.75.75-.75h2c.96 0 1.75.78 1.75 1.75v4c0 2.14-1.18 4.01-2.91 5 1.73.98 2.9 2.85 2.9 5v4c0 .96-.79 1.75-1.75 1.75h-8c-.97 0-1.75-.79-1.75-1.75v-4c0-2.15 1.17-4.02 2.9-5 -1.74-.99-2.91-2.86-2.91-5v-4c0-.97.78-1.75 1.75-1.75h2c.41 0 .75.33.75.75 0 .41-.34.75-.75.75h-2Z"/></svg>