<svg viewBox="0 0 24 24" xmlns="http://www.w3.org/2000/svg"><g fill-rule="evenodd"><path d="M2 5.25c.41 0 .75.33.75.75v11.49l3.52 1.41c.38.15.57.59.41.97 -.16.38-.6.57-.98.41l-4-1.6c-.29-.12-.48-.39-.48-.7v-12c0-.42.33-.75.75-.75Zm20 0c.41 0 .75.33.75.75v12c0 .3-.19.58-.48.69l-10 4c-.18.07-.38.07-.56 0l-2.01-.8c-.39-.16-.58-.6-.42-.98 .15-.39.59-.58.97-.42l1.72.68 9.25-3.7V5.97c0-.42.33-.75.75-.75Z"/><path d="M12 9.25c.41 0 .75.33.75.75v11.5c0 .41-.34.75-.75.75 -.42 0-.75-.34-.75-.75V10c0-.42.33-.75.75-.75Z"/><path d="M11.72 1.3c.17-.08.37-.08.55 0l10 4c.28.11.47.38.47.69 0 .3-.19.58-.48.69l-10 4c-.18.07-.38.07-.56 0l-10-4.01c-.29-.12-.48-.39-.48-.7 0-.31.18-.59.47-.7l10-4ZM4.01 5.99l7.98 3.19 7.98-3.2 -7.99-3.2 -7.99 3.19Z"/><path d="M6.81 3.37c.17-.38.61-.55.99-.38l9.5 4.31c.26.12.43.38.43.68v3.5c0 .41-.34.75-.75.75 -.42 0-.75-.34-.75-.75V8.46L7.16 4.34c-.38-.18-.55-.62-.38-1Z"/></g></svg>