<svg viewBox="0 0 24 24" xmlns="http://www.w3.org/2000/svg"><g fill-rule="evenodd"><path d="M1.25 11.25c0-.97.78-1.75 1.75-1.75h2c.41 0 .75.33.75.75v8c0 .41-.34.75-.75.75H3c-.97 0-1.75-.79-1.75-1.75v-6ZM3 11c-.14 0-.25.11-.25.25v6c0 .13.11.25.25.25h1.25V11H3Z"/><path d="M8.4 13.8c.24-.34.71-.4 1.05-.15l3.46 2.6c.21.16.47.25.75.25h6.83c1.24 0 2.25 1 2.25 2.25 0 1.24-1.01 2.25-2.25 2.25h-8.34c-.26 0-.52-.04-.77-.11l-6.61-1.93c-.4-.12-.63-.54-.52-.93 .11-.4.53-.63.92-.52l6.6 1.92c.11.03.23.04.34.04h8.33c.41 0 .75-.34.75-.75 0-.42-.34-.75-.75-.75H13.6c-.6 0-1.18-.2-1.65-.55l-3.47-2.6c-.34-.25-.4-.72-.16-1.05Z"/><path d="M4.25 10.25c0-.42.33-.75.75-.75h4.17c.72 0 1.42.28 1.94.8l3.39 3.39c.47.47.73 1.11.73 1.78v.64c0 1.03-.84 1.875-1.875 1.875 -.41 0-.81-.14-1.125-.375l-3.7-2.78c-.34-.25-.4-.72-.15-1.05 .24-.34.71-.4 1.05-.15l3.7 2.77c.06.04.14.07.22.07 .2 0 .375-.17.375-.375v-.65c0-.27-.11-.53-.3-.72l-3.4-3.4c-.24-.24-.56-.37-.89-.37H4.95c-.42 0-.75-.34-.75-.75Z"/><path d="M13.25 3c0-.42.33-.75.75-.75h7c.41 0 .75.33.75.75v1.5c0 .41-.34.75-.75.75 -.42 0-.75-.34-.75-.75v-.75h-5.5v5.5h5.5V8.5c0-.42.33-.75.75-.75 .41 0 .75.33.75.75V10c0 .41-.34.75-.75.75h-7c-.42 0-.75-.34-.75-.75V3Z"/><path d="M17.5 2.25c.41 0 .75.33.75.75v2.5c0 .41-.34.75-.75.75 -.42 0-.75-.34-.75-.75V3c0-.42.33-.75.75-.75Z"/></g></svg>