<svg viewBox="0 0 24 24" xmlns="http://www.w3.org/2000/svg"><g fill-rule="evenodd"><path d="M1.25 2c0-.42.33-.75.75-.75h7c.41 0 .75.33.75.75v7c0 .41-.34.75-.75.75H2c-.42 0-.75-.34-.75-.75V2Zm1.5.75v5.5h5.5v-5.5h-5.5Z"/><path d="M10.75 15c0-.42.33-.75.75-.75H13c.41 0 .75.33.75.75 0 .41-.34.75-.75.75h-.75v5.5h9v-5.5H17c-.42 0-.75-.34-.75-.75 0-.42.33-.75.75-.75h5c.41 0 .75.33.75.75v7c0 .41-.34.75-.75.75H11.5c-.42 0-.75-.34-.75-.75v-7Z"/><path d="M5.5 1.25c.41 0 .75.33.75.75v2.5c0 .41-.34.75-.75.75 -.42 0-.75-.34-.75-.75V2c0-.42.33-.75.75-.75Z"/><path d="M13.75 18.5c0-.42.33-.75.75-.75H19c.41 0 .75.33.75.75 0 .41-.34.75-.75.75h-4.5c-.42 0-.75-.34-.75-.75Z"/><path d="M12.25 5c0-.42.33-.75.75-.75h5c.41 0 .75.33.75.75v6c0 .41-.34.75-.75.75 -.42 0-.75-.34-.75-.75V5.75H13c-.42 0-.75-.34-.75-.75Z"/><path d="M14.91 8.53c.25-.33.73-.38 1.05-.12l2.03 1.62 2.03-1.63c.32-.26.79-.21 1.05.11 .25.32.2.79-.12 1.05l-2.5 2c-.28.21-.67.21-.94 0l-2.5-2.01c-.33-.26-.38-.74-.12-1.06Z"/></g></svg>