<svg viewBox="0 0 24 24" xmlns="http://www.w3.org/2000/svg"><g fill-rule="evenodd"><path d="M4.8 14.75c-1.14 0-2.05.91-2.05 2.05 0 .95.57 2.08 1.26 3.06 .27.39.55.74.78 1.01 .22-.28.5-.62.78-1.02 .68-.99 1.26-2.12 1.26-3.07 0-1.14-.92-2.05-2.05-2.05Zm0 7.25c-.54.53-.54.53-.54.53l-.01-.01 -.01-.01 -.01-.01 -.03-.03c-.03-.03-.06-.06-.1-.11 -.09-.09-.2-.22-.34-.38 -.28-.32-.65-.77-1.02-1.29 -.72-1.02-1.54-2.49-1.54-3.94 0-1.97 1.58-3.55 3.55-3.55 1.96 0 3.55 1.58 3.55 3.55 0 1.44-.83 2.91-1.54 3.93 -.37.52-.74.97-1.02 1.28 -.14.15-.26.28-.34.37 -.05.04-.08.07-.1.1l-.03.02 -.01 0 -.01 0 -.01 0c-.01 0-.01 0-.54-.53Zm0 0l.53.52c-.3.29-.77.29-1.07 0l.53-.54Z"/><path d="M20.1 2.75c-.75 0-1.35.6-1.35 1.35 0 .65.4 1.46.91 2.19 .14.21.29.4.43.57 .13-.17.28-.37.43-.58 .51-.74.91-1.55.91-2.2 0-.75-.61-1.35-1.35-1.35Zm0 5.25c-.54.53-.54.53-.54.53l-.01-.01 -.01-.01 -.01-.01 -.03-.03c-.02-.02-.05-.05-.08-.08 -.07-.07-.16-.17-.26-.29 -.21-.24-.49-.58-.78-.99 -.54-.77-1.19-1.91-1.19-3.06 0-1.58 1.27-2.85 2.85-2.85 1.57 0 2.85 1.27 2.85 2.85 0 1.14-.65 2.28-1.19 3.05 -.29.4-.57.74-.78.98 -.11.12-.2.21-.26.28 -.04.03-.06.05-.08.07l-.03.02 -.01 0 -.01 0 -.01 0c-.01 0-.01 0-.54-.53Zm0 0l.53.52c-.15.14-.34.22-.54.22s-.39-.08-.54-.22l.53-.54Z"/><path d="M10 8.75c-.7 0-1.25.55-1.25 1.25v.5c0 .69.55 1.25 1.25 1.25h6c2.62 0 4.75 2.12 4.75 4.75V18c0 2.62-2.13 4.75-4.75 4.75h-1c-.42 0-.75-.34-.75-.75 0-.42.33-.75.75-.75h1c1.79 0 3.25-1.46 3.25-3.25v-1.5c0-1.8-1.46-3.25-3.25-3.25h-6c-1.52 0-2.75-1.24-2.75-2.75V10c0-1.52 1.23-2.75 2.75-2.75h7c.41 0 .75.33.75.75 0 .41-.34.75-.75.75h-7ZM8.25 22c0-.42.33-.75.75-.75h2c.41 0 .75.33.75.75 0 .41-.34.75-.75.75H9c-.42 0-.75-.34-.75-.75Z"/></g></svg>