<svg viewBox="0 0 24 24" xmlns="http://www.w3.org/2000/svg"><g fill-rule="evenodd"><path d="M1.25 7.5c0-2.08 1.67-3.75 3.75-3.75h14c2.07 0 3.75 1.67 3.75 3.75v10c0 2.07-1.68 3.75-3.75 3.75h-8c-.42 0-.75-.34-.75-.75 0-.42.33-.75.75-.75h8c1.24 0 2.25-1.01 2.25-2.25v-10c0-1.25-1.01-2.25-2.25-2.25H5c-1.25 0-2.25 1-2.25 2.25v10c0 1.24 1 2.25 2.25 2.25h2c.41 0 .75.33.75.75 0 .41-.34.75-.75.75H5c-2.08 0-3.75-1.68-3.75-3.75v-10Z"/><path d="M1.25 9.5c0-.42.33-.75.75-.75h20c.41 0 .75.33.75.75 0 .41-.34.75-.75.75H2c-.42 0-.75-.34-.75-.75Z"/><path d="M8 2.25c.41 0 .75.33.75.75v3c0 .41-.34.75-.75.75 -.42 0-.75-.34-.75-.75V3c0-.42.33-.75.75-.75Z"/><path d="M16 2.25c.41 0 .75.33.75.75v3c0 .41-.34.75-.75.75 -.42 0-.75-.34-.75-.75V3c0-.42.33-.75.75-.75Z"/></g></svg>