<svg viewBox="0 0 24 24" xmlns="http://www.w3.org/2000/svg"><g fill-rule="evenodd"><path d="M3 2.75c-.14 0-.25.11-.25.25v18c0 .13.11.25.25.25h18c.13 0 .25-.12.25-.25V3c0-.14-.12-.25-.25-.25H10.5c-.42 0-.75-.34-.75-.75 0-.42.33-.75.75-.75H21c.96 0 1.75.78 1.75 1.75v18c0 .96-.79 1.75-1.75 1.75H3c-.97 0-1.75-.79-1.75-1.75V3c0-.97.78-1.75 1.75-1.75h3.5c.41 0 .75.33.75.75 0 .41-.34.75-.75.75H3Z"/><path d="M7.5 4.25c.23 0 .45.11.6.3l3 4c.17.22.19.53.07.78 -.13.25-.39.41-.68.41h-.75v5.25c0 .41-.34.75-.75.75h-3c-.42 0-.75-.34-.75-.75V9.74h-.75c-.29 0-.55-.17-.68-.42 -.13-.26-.1-.56.07-.79l3-4c.14-.19.36-.3.6-.3Zm-1.5 4c.41 0 .75.33.75.75v5.25h1.5V9c0-.42.33-.75.75-.75l-1.5-2 -1.5 2Z"/><path d="M16 4.25c.23 0 .45.11.6.3l3 4c.17.22.19.53.07.78 -.13.25-.39.41-.68.41h-.75v5.25c0 .41-.34.75-.75.75h-3c-.42 0-.75-.34-.75-.75V9.74h-.75c-.29 0-.55-.17-.68-.42 -.13-.26-.1-.56.07-.79l3-4c.14-.19.36-.3.6-.3Zm-1.5 4c.41 0 .75.33.75.75v5.25h1.5V9c0-.42.33-.75.75-.75l-1.5-2 -1.5 2Z"/><path d="M4.25 19c0-.42.33-.75.75-.75h14c.41 0 .75.33.75.75 0 .41-.34.75-.75.75H5c-.42 0-.75-.34-.75-.75Z"/></g></svg>