<svg viewBox="0 0 24 24" xmlns="http://www.w3.org/2000/svg"><g fill-rule="evenodd"><path d="M4.75 3c0-.97.78-1.75 1.75-1.75h11c.96 0 1.75.78 1.75 1.75v18c0 .96-.79 1.75-1.75 1.75h-11c-.97 0-1.75-.79-1.75-1.75v-6.5c0-.42.33-.75.75-.75 .41 0 .75.33.75.75V21c0 .13.11.25.25.25h11c.13 0 .25-.12.25-.25V3c0-.14-.12-.25-.25-.25h-11c-.14 0-.25.11-.25.25v7.5c0 .41-.34.75-.75.75 -.42 0-.75-.34-.75-.75V3Z"/><path d="M8.25 9c0-.42.33-.75.75-.75h6c.41 0 .75.33.75.75v6c0 .41-.34.75-.75.75H9c-.42 0-.75-.34-.75-.75V9Zm1.5.75v4.5h4.5v-4.5h-4.5Z"/><path d="M12 8.25c.41 0 .75.33.75.75v2.5c0 .41-.34.75-.75.75 -.42 0-.75-.34-.75-.75V9c0-.42.33-.75.75-.75Z"/><path d="M10.25 5c0-.42.33-.75.75-.75h2c.41 0 .75.33.75.75 0 .41-.34.75-.75.75h-2c-.42 0-.75-.34-.75-.75Z"/><path d="M10.25 19c0-.42.33-.75.75-.75h2c.41 0 .75.33.75.75 0 .41-.34.75-.75.75h-2c-.42 0-.75-.34-.75-.75Z"/></g></svg>