<svg viewBox="0 0 24 24" xmlns="http://www.w3.org/2000/svg"><g fill-rule="evenodd"><path d="M2.75 11c0-.42.33-.75.75-.75H7c.41 0 .75.33.75.75v9c0 .41-.34.75-.75.75H3.5c-.42 0-.75-.34-.75-.75v-9Zm1.5.75v7.5h2v-7.5h-2Z"/><path d="M13.68 6.24c-.4-.4-1.07-.24-1.25.29l-.74 2.19c-.04.09-.09.18-.16.26l-2.26 2.49c-.15.15-.35.24-.56.24h-1v7.5h2.75c.41 0 .75.33.75.75 0 .41-.34.75-.75.75h-3.5c-.42 0-.75-.34-.75-.75v-9c0-.42.33-.75.75-.75h1.41l1.92-2.14 .68-2.05c.52-1.59 2.54-2.07 3.72-.88l.2.2c.54.54.77 1.32.6 2.07l-.62 2.78h3.07c1.75 0 3.06 1.62 2.68 3.34l-1.2 5.39c-.23 1.02-1.15 1.76-2.2 1.76h-2.8c-.42 0-.75-.34-.75-.75 0-.42.33-.75.75-.75h2.79c.35 0 .65-.25.73-.59l1.19-5.4c.17-.79-.43-1.53-1.23-1.53h-4.01c-.23 0-.45-.11-.59-.29 -.15-.18-.2-.41-.15-.64l.82-3.7c.05-.26-.03-.52-.21-.7l-.21-.21Z"/></g></svg>