<svg viewBox="0 0 24 24" xmlns="http://www.w3.org/2000/svg"><g fill-rule="evenodd"><path d="M12 2.75c-3.8 0-7.06 2.28-8.49 5.55 -.17.37-.61.55-.99.38 -.38-.17-.56-.61-.39-.99 1.65-3.8 5.44-6.45 9.85-6.45 5.93 0 10.75 4.81 10.75 10.75 0 5.93-4.82 10.75-10.75 10.75 -5.94 0-10.75-4.82-10.75-10.75 0-.42.33-.75.75-.75 .41 0 .75.33.75.75 0 5.1 4.14 9.25 9.25 9.25 5.1 0 9.25-4.15 9.25-9.25 0-5.11-4.15-9.25-9.25-9.25Z"/><path d="M1.75 15c0-.42.33-.75.75-.75h5c1.24 0 2.25 1 2.25 2.25 0 .41.33.75.75.75H12c1.51 0 2.75 1.23 2.75 2.75v1.5c0 .41-.34.75-.75.75 -.42 0-.75-.34-.75-.75V20c0-.7-.56-1.25-1.25-1.25h-1.5c-1.25 0-2.25-1.01-2.25-2.25 0-.42-.34-.75-.75-.75h-5c-.42 0-.75-.34-.75-.75Z"/><path d="M13.43 1.38c.33.23.42.7.18 1.04l-2.82 4.02c-.27.37-.3.86-.1 1.27l.98 1.96c.32.65 1.15.89 1.78.5l.37-.24c1.32-.83 3.07-.39 3.84.96l.39.68c.22.38.63.62 1.08.62h2.83c.41 0 .75.33.75.75 0 .41-.34.75-.75.75h-2.84c-.99 0-1.9-.53-2.39-1.39l-.4-.69c-.36-.62-1.15-.82-1.75-.44l-.38.23c-1.38.85-3.2.34-3.92-1.11l-.99-1.97c-.46-.91-.38-1.99.2-2.81l2.81-4.03c.23-.34.7-.43 1.04-.19Z"/></g></svg>