<svg viewBox="0 0 24 24" xmlns="http://www.w3.org/2000/svg"><g fill-rule="evenodd"><path d="M1 3c0-1.11.89-2 2-2h5v2H3v5H1V3Zm20 0h-5V1h5c1.1 0 2 .89 2 2v5h-2V3ZM3 16v5h5v2H3c-1.11 0-2-.9-2-2v-5h2Zm18 5v-5h2v5c0 1.1-.9 2-2 2h-5v-2h5Z"/><path d="M18.64 11.24c-3.79-3.37-9.5-3.37-13.29 0l-.86.75 .85.75c3.78 3.36 9.49 3.36 13.28 0l.85-.76 -.86-.76ZM4.02 9.74c4.54-4.05 11.39-4.05 15.94 0l1.69 1.5c.21.18.33.46.33.74 0 .28-.13.55-.34.74l-1.7 1.5c-4.55 4.04-11.4 4.04-15.95 0l-1.7-1.51c-.22-.19-.34-.47-.34-.75 0-.29.12-.56.33-.75L3.97 9.7Z"/><path d="M12 9c-1.66 0-3 1.34-3 3 0 1.65 1.34 3 3 3 1.65 0 3-1.35 3-3 0-1.66-1.35-3-3-3Zm-5 3c0-2.77 2.23-5 5-5 2.76 0 5 2.23 5 5 0 2.76-2.24 5-5 5 -2.77 0-5-2.24-5-5Z"/></g></svg>