<svg viewBox="0 0 24 24" xmlns="http://www.w3.org/2000/svg"><g fill-rule="evenodd"><path d="M9 8c.36 0 .7.2.88.52l7 13c.16.3.15.68-.03.98 -.19.3-.51.48-.86.48h-14c-.36 0-.68-.19-.86-.49 -.19-.31-.19-.68-.03-.99l7-13c.17-.33.51-.53.88-.53ZM3.67 21h10.65l-5.33-9.9 -5.33 9.89Z"/><path d="M14.99 10c.34 0 .66.17.84.46l7 11c.19.3.2.69.03 1.01 -.18.32-.52.51-.88.51h-6v-2h4.17l-5.18-8.14 -1.81 2.83 -1.69-1.08 2.64-4.17c.18-.29.5-.47.84-.47Z"/><path d="M10 6v3H8V6h2Z"/><path d="M8 2c0-.56.44-1 1-1h5c.55 0 1 .44 1 1v4c0 .55-.45 1-1 1H9c-.56 0-1-.45-1-1V2Zm2 1v2h3V3h-3Z"/><path d="M12 16H6v-2h6v2Z"/></g></svg>