<svg viewBox="0 0 24 24" xmlns="http://www.w3.org/2000/svg"><g fill-rule="evenodd"><path d="M19.5 21H6v-2h13.5v2Z"/><path d="M18 5H6V3h13c.55 0 1 .44 1 1v6h-2V5Z"/><path d="M5 13h12v-2H4c-.56 0-1 .44-1 1v6h2v-5Z"/><path d="M4 3c-.56 0-1 .44-1 1 0 .55.44 1 1 1 .55 0 1-.45 1-1 0-.56-.45-1-1-1ZM1 4c0-1.66 1.34-3 3-3 1.65 0 3 1.34 3 3 0 1.65-1.35 3-3 3C2.34 7 1 5.65 1 4Z"/><path d="M4 19c-.56 0-1 .44-1 1 0 .55.44 1 1 1 .55 0 1-.45 1-1 0-.56-.45-1-1-1Zm-3 1c0-1.66 1.34-3 3-3 1.65 0 3 1.34 3 3 0 1.65-1.35 3-3 3 -1.66 0-3-1.35-3-3Z"/><path d="M16 10c0-.56.44-1 1-1h4c.55 0 1 .44 1 1v4c0 .55-.45 1-1 1h-4c-.56 0-1-.45-1-1v-4Zm2 1v2h2v-2h-2Z"/><path d="M18.719 20l-1.51-1.88 1.56-1.25 2 2.5c.29.36.29.88 0 1.24l-2 2.5 -1.57-1.25 1.5-1.88Z"/></g></svg>