<svg viewBox="0 0 24 24" xmlns="http://www.w3.org/2000/svg"><g fill-rule="evenodd"><path d="M7.24 11.34c.18-.23.46-.35.75-.35h7.99c.29 0 .56.12.75.34 .19.22.27.51.23.8l-1.5 10c-.08.48-.5.85-.99.85h-5c-.5 0-.92-.37-.99-.86l-1.5-10c-.05-.29.04-.59.23-.81Zm1.91 1.65l1.2 8h3.27l1.2-8H9.14Z"/><path d="M5 8c0-1.11.89-2 2-2h10c1.1 0 2 .89 2 2v3c0 1.1-.9 2-2 2H7c-1.11 0-2-.9-2-2V8Zm12 0H7v3h10V8Z"/><path d="M11.55 2.83l-2.56 1.7v2.46h-2V4.52c0-.67.33-1.3.89-1.67l2.55-1.71 1.1 1.66Z"/><path d="M6.75 21H17v2H6.74v-2Z"/></g></svg>