<svg viewBox="0 0 24 24" xmlns="http://www.w3.org/2000/svg"><g fill-rule="evenodd"><path d="M8 6.75v-2h8v2H8Z"/><path d="M11.37 1.46c.36-.3.88-.3 1.24 0l3.34 2.67c1.29 1.03 1.98 2.63 1.86 4.28l-.77 9.96c-.09 1.04-.95 1.84-2 1.84H8.89c-1.05 0-1.92-.81-2-1.85l-.77-9.97c-.13-1.65.57-3.26 1.86-4.29l3.34-2.68Zm.62 2.06L9.26 5.69c-.78.61-1.2 1.58-1.12 2.57l.76 9.96h6.14l.76-9.97c.07-.99-.35-1.96-1.12-2.58l-2.73-2.18Z"/><path d="M8 19.25c0-.56.44-1 1-1h6c.55 0 1 .44 1 1v1.5c0 1.1-.9 2-2 2h-4c-1.11 0-2-.9-2-2v-1.5Zm2 1v.5h4v-.5h-4Z"/><path d="M18.5 15.78l-2.56-1.71 1.1-1.67 3 2c.27.18.44.49.44.83v3c0 .55-.45 1-1 1h-3.5v-2h2.5v-1.47Z"/><path d="M5.49 15.78l2.55-1.71 -1.11-1.67 -3 2c-.28.18-.45.49-.45.83v3c0 .55.44 1 1 1h3.5v-2h-2.5v-1.47Z"/><path d="M12 12.25c-.28 0-.5.22-.5.5 0 .27.22.5.5.5 .27 0 .5-.23.5-.5 0-.28-.23-.5-.5-.5Zm-2.5.5c0-1.39 1.11-2.5 2.5-2.5 1.38 0 2.5 1.11 2.5 2.5 0 1.38-1.12 2.5-2.5 2.5 -1.39 0-2.5-1.12-2.5-2.5Z"/></g></svg>