<svg viewBox="0 0 24 24" xmlns="http://www.w3.org/2000/svg"><g fill-rule="evenodd"><path d="M3.79 5.7l-3-3L2.2 1.28l3 3L3.78 5.69Z"/><path d="M3.79 22.7l-3-3 1.41-1.42 3 3 -1.42 1.41Z"/><path d="M21.793 5.7l-3-3 1.41-1.42 3 3 -1.42 1.41Z"/><path d="M21.793 22.7l-3-3 1.41-1.42 3 3 -1.42 1.41Z"/><path d="M12.793 14.2l-3.01-3 1.41-1.42 3 2.99 -1.42 1.41Z"/><path d="M2.2 5.7l3-3L3.78 1.28l-3 3 1.41 1.41Z"/><path d="M2.2 22.7l3-3 -1.42-1.42 -3 3 1.41 1.41Z"/><path d="M20.207 5.7l3-3 -1.42-1.42 -3 3 1.41 1.41Z"/><path d="M20.207 22.7l3-3 -1.42-1.42 -3 3 1.41 1.41Z"/><path d="M11.2 14.2l3-3 -1.42-1.42 -3 2.99 1.41 1.41Z"/><path d="M12 3c-.28 0-.5.22-.5.5 0 .27.22.5.5.5 .27 0 .5-.23.5-.5 0-.28-.23-.5-.5-.5Zm-2.5.5C9.5 2.11 10.61 1 12 1c1.38 0 2.5 1.11 2.5 2.5C14.5 4.88 13.38 6 12 6c-1.39 0-2.5-1.12-2.5-2.5Z"/><path d="M12 20c-.28 0-.5.22-.5.5 0 .27.22.5.5.5 .27 0 .5-.23.5-.5 0-.28-.23-.5-.5-.5Zm-2.5.5c0-1.39 1.11-2.5 2.5-2.5 1.38 0 2.5 1.11 2.5 2.5 0 1.38-1.12 2.5-2.5 2.5 -1.39 0-2.5-1.12-2.5-2.5Z"/><path d="M3 12c0 .27.22.5.5.5 .27 0 .5-.23.5-.5 0-.28-.23-.5-.5-.5 -.28 0-.5.22-.5.5Zm.5 2.5C2.11 14.5 1 13.38 1 12c0-1.39 1.11-2.5 2.5-2.5C4.88 9.5 6 10.61 6 12c0 1.38-1.12 2.5-2.5 2.5Z"/><path d="M20 12c0 .27.22.5.5.5 .27 0 .5-.23.5-.5 0-.28-.23-.5-.5-.5 -.28 0-.5.22-.5.5Zm.5 2.5c-1.39 0-2.5-1.12-2.5-2.5 0-1.39 1.11-2.5 2.5-2.5 1.38 0 2.5 1.11 2.5 2.5 0 1.38-1.12 2.5-2.5 2.5Z"/><path d="M6.5 22V2h2v20h-2Z"/><path d="M15.5 22V2h2v20h-2Z"/><path d="M22 9H2V7h20v2Z"/><path d="M22 17H2v-2h20v2Z"/></g></svg>