<svg viewBox="0 0 24 24" xmlns="http://www.w3.org/2000/svg"><path fill="#8B98A6" d="M10.8 1.71c-.08-.19-.22-.34-.41-.41 -.19-.08-.39-.08-.58-.01L6.1 2.78c-.39.15-.57.59-.42.97l.63 1.56c-.33.27-.63.57-.91.89l-1.56-.66c-.19-.08-.39-.08-.58-.01 -.19.07-.34.21-.41.4L1.29 9.6c-.08.18-.08.38-.01.57 .07.18.21.33.4.4l1.55.65c-.04.42-.04.85-.02 1.27l-1.57.63c-.39.15-.57.59-.42.97l1.49 3.7c.07.18.21.33.4.4 .18.07.38.07.57 0l1.56-.64c.27.32.57.62.89.9L5.47 20c-.08.18-.08.38-.01.57 .07.18.21.33.4.4l3.67 1.55c.38.16.82-.02.98-.4l.65-1.56c.42.03.85.03 1.27.01l.63 1.56c.15.38.59.56.97.41l3.7-1.5c.38-.16.56-.6.41-.98l-.64-1.57c.32-.28.62-.58.9-.9l1.55.65c.38.16.82-.02.98-.4l1.55-3.68c.07-.19.07-.39 0-.58 -.08-.19-.22-.34-.41-.41l-1.56-.66c.03-.43.03-.86.01-1.28l1.56-.64c.38-.16.56-.6.41-.98l-1.5-3.71c-.08-.19-.22-.34-.41-.41 -.19-.08-.39-.08-.58-.01l-1.57.63c-.28-.33-.58-.63-.9-.91l.65-1.56c.16-.39-.02-.83-.4-.99L14.1 1.09c-.19-.08-.39-.08-.58-.01 -.19.07-.34.21-.41.4l-.66 1.55c-.43-.04-.86-.04-1.28-.02l-.64-1.57Z"/><g fill="#ECEFF1"><path d="M14 10.25c-1.52 0-2.75 1.23-2.75 2.75v1c0 .41.33.75.75.75h1c1.51 0 2.75-1.24 2.75-2.75v-1c0-.42-.34-.75-.75-.75h-1Z"/><path d="M14 14.25c-1.52 0-2.75 1.23-2.75 2.75v1c0 .41.33.75.75.75h1c1.51 0 2.75-1.24 2.75-2.75v-1c0-.42-.34-.75-.75-.75h-1Z"/><path d="M10 10.25c1.51 0 2.75 1.23 2.75 2.75v1c0 .41-.34.75-.75.75h-1c-1.52 0-2.75-1.24-2.75-2.75v-1c0-.42.33-.75.75-.75h1Z"/><path d="M10 14.25c1.51 0 2.75 1.23 2.75 2.75v1c0 .41-.34.75-.75.75h-1c-1.52 0-2.75-1.24-2.75-2.75v-1c0-.42.33-.75.75-.75h1Z"/></g><path fill="#CFD8DC" fill-rule="evenodd" d="M12.73 21.14c0-.05.01-.1.01-.15v-11c0-.42-.34-.75-.75-.75 -.42 0-.75.33-.75.75v10.79l.03-.09c.42.03.85.03 1.27.01l.17.43Z"/><g fill="#ECEFF1"><path d="M12 6l.55-.51c-.15-.16-.35-.25-.56-.25 -.22 0-.42.09-.56.24 0 0 0 0 .55.5Z"/><path d="M12 6l-.56-.51 -.01 0 -.01 0 -.02.01c-.02.01-.03.03-.06.05 -.05.05-.11.12-.19.21 -.15.17-.35.42-.55.7 -.2.27-.41.59-.58.91 -.16.29-.32.68-.32 1.08 0 1.24 1 2.25 2.25 2.25 1.24 0 2.25-1.01 2.25-2.25 0-.4-.17-.79-.32-1.09 -.17-.32-.38-.64-.58-.92 -.21-.28-.4-.53-.55-.71 -.08-.09-.14-.17-.19-.22 -.03-.03-.04-.05-.06-.06l-.02-.02 -.01-.01 -.01-.01s-.01-.01-.56.5Z"/></g></svg>