<svg viewBox="0 0 24 24" xmlns="http://www.w3.org/2000/svg"><path fill="#8B98A6" fill-rule="evenodd" d="M6.75 8c0 .41.33.75.75.75h9c.41 0 .75-.34.75-.75V5.5c0-2.35-1.91-4.25-4.25-4.25h-2c-2.35 0-4.25 1.9-4.25 4.25V8Zm1.5-.75V5.5c0-1.52 1.23-2.75 2.75-2.75h2c1.51 0 2.75 1.23 2.75 2.75v1.75h-7.5Z"/><path fill="#CFD8DC" d="M5 7.25c-.22 0-.43.09-.57.25 -.15.16-.21.38-.18.59l2 14c.05.36.36.64.74.64h9.99c.37 0 .68-.28.74-.65l2-14c.03-.22-.04-.44-.18-.6 -.15-.17-.35-.26-.57-.26h-14Z"/><path fill="#8B98A6" fill-rule="evenodd" d="M7.75 15c0-.42.33-.75.75-.75h7c.41 0 .75.33.75.75 0 .41-.34.75-.75.75h-7c-.42 0-.75-.34-.75-.75Z"/></svg>