<svg viewBox="0 0 24 24" xmlns="http://www.w3.org/2000/svg"><path fill="#CFD8DC" d="M14 11.75c-.42 0-.75.33-.75.75v6c0 .41.33.75.75.75h8c.41 0 .75-.34.75-.75v-6c0-.42-.34-.75-.75-.75h-8Z"/><path fill="#EE4D4D" d="M9.23 4.78c-.16-.06-.33-.06-.48 0l-3 1c-.12.03-.22.09-.3.18l-2 2c-.15.14-.22.33-.22.53v10c0 .41.33.75.75.75h3c.41 0 .75-.34.75-.75v-3.25h2.5v3.25c0 .41.33.75.75.75h3c.41 0 .75-.34.75-.75v-10c0-.2-.08-.39-.22-.54l-2-2c-.09-.09-.19-.15-.3-.19l-3.01-1Z"/><path fill="#F17171" fill-rule="evenodd" d="M8.76 4.78c.15-.06.32-.06.47 0l2.99 1c.11.03.21.09.29.18l3.99 4c.29.29.29.76-.01 1.06 -.3.29-.77.29-1.07-.01l-3.88-3.88 -2.6-.87 -2.6.86 -3.88 3.87c-.3.29-.77.29-1.07-.01 -.3-.3-.3-.77 0-1.07l4-4c.08-.09.18-.15.29-.19l3-1Z"/><path fill="#ECEFF1" d="M9 8.25c-1.25 0-2.25 1-2.25 2.25 0 1.24 1 2.25 2.25 2.25 1.24 0 2.25-1.01 2.25-2.25 0-1.25-1.01-2.25-2.25-2.25Z"/></svg>