<svg viewBox="0 0 24 24" xmlns="http://www.w3.org/2000/svg"><path fill="#FFC44D" d="M13.49 3.03c-.69-1.13-2.32-1.13-2.997 0l-1.81 2.99c-.05.07-.13.11-.21.12l-3.51.06c-1.32.02-2.14 1.44-1.5 2.59l1.69 3.06c.04.07.04.16 0 .24l-1.7 3.06c-.64 1.15.18 2.57 1.49 2.59l3.5.06c.08 0 .16.04.2.12l1.8 2.99c.68 1.12 2.31 1.12 2.997 0l1.8-3c.04-.08.12-.12.2-.13l3.5-.07c1.31-.03 2.13-1.45 1.49-2.6l-1.7-3.07c-.05-.08-.05-.17 0-.25l1.69-3.07c.63-1.16-.19-2.58-1.5-2.6l-3.51-.07c-.09-.01-.17-.05-.21-.13l-1.81-3Z"/><path fill="#FF884D" d="M12 9.25c-1.52 0-2.75 1.23-2.75 2.75 0 1.51 1.23 2.75 2.75 2.75 1.51 0 2.75-1.24 2.75-2.75 0-1.52-1.24-2.75-2.75-2.75Z"/></svg>