<svg viewBox="0 0 24 24" xmlns="http://www.w3.org/2000/svg"><path fill="#CFD8DC" fill-rule="evenodd" d="M3.5 2.25c.41 0 .75.33.75.75v5c0 .41-.34.75-.75.75 -.42 0-.75-.34-.75-.75V3c0-.42.33-.75.75-.75Zm6.5 2.5c-.7 0-1.25.55-1.25 1.25v12c0 1.51-1.24 2.75-2.75 2.75h-.5c-1.52 0-2.75-1.24-2.75-2.75v-7c0-.42.33-.75.75-.75 .41 0 .75.33.75.75v7c0 .69.55 1.25 1.25 1.25H6c.69 0 1.25-.56 1.25-1.25V6c0-1.52 1.23-2.75 2.75-2.75h5c.41 0 .75.33.75.75 0 .41-.34.75-.75.75h-5Z"/><path fill="#EE4D4D" d="M15 1.25c-.42 0-.75.33-.75.75v5c0 .41.33.75.75.75h4c.41 0 .75-.34.75-.75V2c0-.42-.34-.75-.75-.75h-4Z"/><path fill="#CFD8DC" d="M14 6.25c-1.52 0-2.75 1.23-2.75 2.75v13c0 .41.33.75.75.75h10c.41 0 .75-.34.75-.75V9c0-1.52-1.24-2.75-2.75-2.75h-6Z"/><path fill="#8B98A6" d="M2 7.25c-.42 0-.75.33-.75.75v3c0 .41.33.75.75.75h3c.41 0 .75-.34.75-.75V8c0-.42-.34-.75-.75-.75H2Z"/><g fill="#EE4D4D" fill-rule="evenodd"><path d="M17 12.25c-1.25 0-2.25 1-2.25 2.25 0 1.24 1 2.25 2.25 2.25 1.24 0 2.25-1.01 2.25-2.25 0-1.25-1.01-2.25-2.25-2.25Zm-3.75 2.25c0-2.08 1.67-3.75 3.75-3.75 2.07 0 3.75 1.67 3.75 3.75 0 2.07-1.68 3.75-3.75 3.75 -2.08 0-3.75-1.68-3.75-3.75Z"/><path d="M14.71 11.64c.32-.26.79-.21 1.05.11l3.68 4.6c.25.32.2.79-.12 1.05 -.33.25-.8.2-1.06-.12l-3.69-4.61c-.26-.33-.21-.8.11-1.06Z"/></g></svg>