<svg viewBox="0 0 24 24" xmlns="http://www.w3.org/2000/svg"><g fill="#8B98A6" fill-rule="evenodd"><path d="M3.96 4.96c.29-.3.76-.3 1.06 0l2.5 2.5c.29.29.29.76 0 1.06 -.3.29-.77.29-1.07 0l-2.5-2.5c-.3-.3-.3-.77 0-1.07Z"/><path d="M20.03 4.96c-.3-.3-.77-.3-1.07 0l-2.5 2.5c-.3.29-.3.76 0 1.06 .29.29.76.29 1.06 0l2.5-2.5c.29-.3.29-.77 0-1.07Z"/></g><path fill="#CFD8DC" d="M8 1.25c-.42 0-.75.33-.75.75v3.35L5.3 10.21c-.04.08-.06.18-.06.27v11.5c0 .41.33.75.75.75h12c.41 0 .75-.34.75-.75v-11.5c0-.1-.02-.19-.06-.28l-1.95-4.87V1.97c0-.42-.34-.75-.75-.75h-8Z"/><g fill="#8B98A6" fill-rule="evenodd"><path d="M5.25 2c0-.42.33-.75.75-.75h12c.41 0 .75.33.75.75 0 .41-.34.75-.75.75H6c-.42 0-.75-.34-.75-.75Z"/><path d="M7.75 11c0-.42.33-.75.75-.75h7c.41 0 .75.33.75.75 0 .41-.34.75-.75.75h-7c-.42 0-.75-.34-.75-.75Z"/></g></svg>