<svg viewBox="0 0 24 24" xmlns="http://www.w3.org/2000/svg"><path fill="#ECEFF1" d="M21.11 2.31c-.49-.74-1.45-.99-2.24-.6L11.68 5.3c-2.76 1.37-5 3.61-6.38 6.37l-3.36 6.71c-.53 1.04-.32 2.3.5 3.13 .82.82 2.08 1.03 3.13.5l7.03-3.52c2.54-1.28 4.65-3.28 6.04-5.76l2.47-4.4c.09-.17.12-.37.07-.55l-.45-1.77 .71-1.79c.21-.54.15-1.15-.17-1.63l-.22-.33Z"/><path fill="#CFD8DC" fill-rule="evenodd" d="M18.15 5.63c.2.36.07.81-.29 1.02l-6.14 3.44c-1.09.61-1.97 1.53-2.53 2.64l-2.8 5.58c-.19.37-.64.52-1.01.33 -.38-.19-.53-.64-.34-1.01l2.79-5.59c.69-1.39 1.78-2.53 3.13-3.29l6.13-3.45c.36-.21.81-.08 1.02.28Z"/></svg>