<svg viewBox="0 0 24 24" xmlns="http://www.w3.org/2000/svg"><g fill="#8BC94D"><path d="M4 15.25c1.51 0 2.75 1.23 2.75 2.75v1c0 .41-.34.75-.75.75H4c-1.52 0-2.75-1.24-2.75-2.75v-1c0-.42.33-.75.75-.75h2Z"/><path d="M16 15.25c1.51 0 2.75 1.23 2.75 2.75v1c0 .41-.34.75-.75.75h-2c-1.52 0-2.75-1.24-2.75-2.75v-1c0-.42.33-.75.75-.75h2Z"/><path fill="#8BC94D" fill-rule="evenodd" d="M6 17.25c.41 0 .75.33.75.75v4c0 .41-.34.75-.75.75 -.42 0-.75-.34-.75-.75v-4c0-.42.33-.75.75-.75Z"/><path d="M8 15.25c-1.52 0-2.75 1.23-2.75 2.75v1c0 .41.33.75.75.75h2c1.51 0 2.75-1.24 2.75-2.75v-1c0-.42-.34-.75-.75-.75H8Z"/><path d="M20 15.25c-1.52 0-2.75 1.23-2.75 2.75v1c0 .41.33.75.75.75h2c1.51 0 2.75-1.24 2.75-2.75v-1c0-.42-.34-.75-.75-.75h-2Z"/><path fill="#8BC94D" fill-rule="evenodd" d="M18 17.25c.41 0 .75.33.75.75v4c0 .41-.34.75-.75.75 -.42 0-.75-.34-.75-.75v-4c0-.42.33-.75.75-.75Z"/></g><g fill="#4DC4FF"><path d="M12 8.5l.55-.51c-.15-.16-.35-.25-.56-.25 -.22 0-.42.09-.56.24 0 0 0 0 .55.5Z"/><path d="M12 8.5l-.56-.51 -.01 0 -.01 0L11.4 8c-.02.01-.03.03-.06.05 -.05.05-.11.12-.19.21 -.15.17-.35.42-.55.7 -.2.27-.41.59-.58.91 -.16.29-.32.68-.32 1.08 0 1.24 1 2.25 2.25 2.25 1.24 0 2.25-1.01 2.25-2.25 0-.4-.17-.79-.32-1.09 -.17-.32-.38-.64-.58-.92 -.21-.28-.4-.53-.55-.71 -.08-.09-.14-.17-.19-.22 -.03-.03-.04-.05-.06-.06l-.02-.02 -.01-.01 -.01-.01s-.01-.01-.56.5Z"/><path d="M16.58 8.08l.04-.75c-.22-.02-.43.06-.58.21 -.16.15-.24.35-.22.57 0-.01 0-.01.74-.05l-.75.04 0 0 0 0 0 .02c0 .01 0 .04 0 .07 0 .06.01.16.02.27 .02.23.05.54.11.88 .05.33.13.71.24 1.05 .1.31.26.71.54.99 .87.87 2.3.87 3.18 0 .87-.88.87-2.31 0-3.19 -.28-.28-.68-.45-1-.55 -.35-.11-.72-.19-1.06-.25 -.34-.06-.66-.1-.89-.12 -.12-.02-.22-.02-.28-.03 -.04-.01-.07-.01-.08-.01l-.03-.01 -.01-.01 -.01-.01c-.01 0-.01-.01-.05.74Z"/><path d="M7.43 8.23l-.05-.75c.21-.02.42.06.57.21 .15.15.23.35.21.57 0-.01-.01 0-.75-.05l.74.04 -.01 0 -.01 0 -.01.02c-.01.01-.01.04-.01.07 -.01.06-.02.16-.03.27 -.03.23-.06.54-.12.88 -.06.33-.14.71-.25 1.05 -.11.31-.27.71-.55.99 -.88.87-2.31.87-3.19 0 -.88-.88-.88-2.31 0-3.19 .27-.28.67-.45.99-.55 .34-.11.71-.19 1.05-.25 .33-.06.65-.1.88-.12 .11-.02.21-.02.27-.03 .03-.01.06-.01.07-.01l.02-.01 0-.01 0-.01c0-.01 0-.01.04.74Z"/></g><path fill="#FFC44D" d="M10 1.25c-.42 0-.75.33-.75.75v4c0 .41.33.75.75.75h4c.41 0 .75-.34.75-.75V2c0-.42-.34-.75-.75-.75h-4Z"/><path fill="#CFD8DC" fill-rule="evenodd" d="M1.25 2c0-.42.33-.75.75-.75h20c.41 0 .75.33.75.75 0 .41-.34.75-.75.75H2c-.42 0-.75-.34-.75-.75Z"/></svg>