<svg viewBox="0 0 24 24" xmlns="http://www.w3.org/2000/svg"><path fill="#A2D471" fill-rule="evenodd" d="M14.33 6.82c.37.18.52.63.33 1l-1.93 3.84v1.82c0 .41-.34.75-.75.75 -.42 0-.75-.34-.75-.75v-1.625l-1.7-1.28c-.34-.25-.4-.72-.15-1.05 .24-.34.71-.4 1.04-.15l1.28.96 1.59-3.2c.18-.38.63-.53 1-.34Z"/><g fill="#8BC94D"><path d="M7 4.25c2.07 0 3.75 1.67 3.75 3.75v2c0 .41-.34.75-.75.75H6c-2.08 0-3.75-1.68-3.75-3.75V5c0-.42.33-.75.75-.75h4Z"/><path d="M17 1.75c-2.08 0-3.75 1.67-3.75 3.75v2c0 .41.33.75.75.75h4c2.07 0 3.75-1.68 3.75-3.75v-2c0-.42-.34-.75-.75-.75h-4Z"/></g><path fill="#B47C65" d="M12 12.75c-5.78 0-10.75 3.77-10.75 8.75 0 .41.33.75.75.75h20c.41 0 .75-.34.75-.75 0-4.98-4.98-8.75-10.75-8.75Z"/></svg>