<svg viewBox="0 0 24 24" xmlns="http://www.w3.org/2000/svg"><g fill="#8BC94D"><path d="M16 3.75c1.51 0 2.75 1.23 2.75 2.75v1c0 .41-.34.75-.75.75h-2c-1.52 0-2.75-1.24-2.75-2.75v-1c0-.42.33-.75.75-.75h2Z"/><path d="M4 3.75c1.51 0 2.75 1.23 2.75 2.75v1c0 .41-.34.75-.75.75H4c-1.52 0-2.75-1.24-2.75-2.75v-1c0-.42.33-.75.75-.75h2Z"/><path d="M20 3.75c-1.52 0-2.75 1.23-2.75 2.75v1c0 .41.33.75.75.75h2c1.51 0 2.75-1.24 2.75-2.75v-1c0-.42-.34-.75-.75-.75h-2Z"/><path d="M8 3.75c-1.52 0-2.75 1.23-2.75 2.75v1c0 .41.33.75.75.75h2c1.51 0 2.75-1.24 2.75-2.75v-1c0-.42-.34-.75-.75-.75H8Z"/><g fill="#8BC94D" fill-rule="evenodd"><path d="M6 5.75c.41 0 .75.33.75.75v4c0 .41-.34.75-.75.75 -.42 0-.75-.34-.75-.75v-4c0-.42.33-.75.75-.75Z"/><path d="M18 5.75c.41 0 .75.33.75.75v4c0 .41-.34.75-.75.75 -.42 0-.75-.34-.75-.75v-4c0-.42.33-.75.75-.75Z"/></g></g><path fill="#FF884D" d="M3 12.75c-.23 0-.43.09-.58.26 -.15.16-.21.39-.17.6l1 6c.06.36.37.62.73.62h16c.36 0 .67-.27.73-.63l1-6c.03-.22-.03-.44-.17-.61 -.15-.17-.36-.27-.58-.27h-18Z"/><path fill="#FFA071" d="M2 9.75c-.42 0-.75.33-.75.75v3c0 .41.33.75.75.75h20c.41 0 .75-.34.75-.75v-3c0-.42-.34-.75-.75-.75H2Z"/></svg>