<svg viewBox="0 0 24 24" xmlns="http://www.w3.org/2000/svg"><path fill="#8BC94D" d="M9 2.25C7.48 2.25 6.25 3.48 6.25 5v1c0 .41-.34.75-.75.75 -1.25 0-2.25 1-2.25 2.25v3c0 1.51 1.23 2.75 2.75 2.75h12c1.51 0 2.75-1.24 2.75-2.75V9c0-1.25-1.01-2.25-2.25-2.25 -.42 0-.75-.34-.75-.75V5c0-1.52-1.24-2.75-2.75-2.75H9Z"/><path fill="#82523E" d="M10 10.25c-.42 0-.75.33-.75.75v11c0 .41.33.75.75.75h4c.41 0 .75-.34.75-.75V11c0-.42-.34-.75-.75-.75h-4Z"/><path fill="#B47C65" fill-rule="evenodd" d="M5.25 22c0-.42.33-.75.75-.75h12c.41 0 .75.33.75.75 0 .41-.34.75-.75.75H6c-.42 0-.75-.34-.75-.75Z"/></svg>