<svg viewBox="0 0 24 24" xmlns="http://www.w3.org/2000/svg"><g fill="#4DC4FF"><path d="M7.53 6.96c-.3-.3-.77-.3-1.07 0l-2 2c-.15.14-.22.33-.22.53 0 .19.07.38.21.53l6 6c.21.21.53.27.81.16 .28-.12.46-.39.46-.7v-4c0-.2-.08-.39-.22-.54l-4-4.01Z"/><path fill="#4DC4FF" fill-rule="evenodd" d="M14 4.25c-.7 0-1.25.55-1.25 1.25v1c0 .41-.34.75-.75.75 -.42 0-.75-.34-.75-.75v-1c0-1.52 1.23-2.75 2.75-2.75h6c1.51 0 2.75 1.23 2.75 2.75v9.17c0 .72-.29 1.42-.81 1.94l-2.42 2.41c-.3.29-.77.29-1.07 0 -.3-.3-.3-.77 0-1.07l2.41-2.42c.23-.24.36-.56.36-.89V5.46c0-.7-.56-1.25-1.25-1.25h-6Z"/></g><g fill="#71D0FF"><path d="M11 5.75c-.42 0-.75.33-.75.75v14c0 .41.33.75.75.75h8c.41 0 .75-.34.75-.75v-14c0-.42-.34-.75-.75-.75h-8Z"/><path d="M6.64 4.11c-.12-.2-.33-.34-.56-.36 -.23-.03-.46.05-.63.21l-4 4c-.17.16-.25.39-.22.62 .02.22.16.43.35.55l2.5 1.49c.29.17.67.13.91-.12l3-3c.24-.25.28-.63.11-.92l-1.5-2.5Z"/></g></svg>