<svg viewBox="0 0 24 24" xmlns="http://www.w3.org/2000/svg"><g fill="#3747D6" fill-rule="evenodd"><path d="M21.5 5.13c.3.17.49.5.49.86v11.42c0 .37-.22.72-.55.89l-9 4.57c-.31.15-.68.14-.98-.04 -.3-.19-.48-.51-.48-.86v-11c0-.37.19-.7.51-.88l9-5c.3-.18.68-.17.99.01Zm-8.51 6.45v8.78l7-3.56V7.68l-7 3.88Z"/><path d="M11.59 1.08c.25-.12.55-.12.81 0l9 4c.34.15.57.49.59.86 .01.37-.19.73-.52.91l-9 5c-.31.16-.67.16-.98 0L2.48 6.84c-.34-.19-.54-.54-.52-.92 .01-.38.24-.72.59-.87l9-4ZM5.23 6.09l6.76 3.75 6.76-3.76 -6.77-3.01 -6.77 3Z"/><path fill="#9545ED" d="M2.49 5.13c-.31.17-.5.5-.5.86v11.42c0 .37.21.72.54.89l8.99 4.57c.31.15.67.14.97-.04 .29-.19.47-.51.47-.86v-11c0-.37-.2-.7-.52-.88l-9-5c-.31-.18-.69-.17-1 .01Zm8.5 6.45v8.78l-7-3.56V7.68l7 3.88Z"/></g></svg>