<svg viewBox="0 0 24 24" xmlns="http://www.w3.org/2000/svg"><path fill="#3747D6" fill-rule="evenodd" d="M4.91 1.36c.18-.24.47-.37.77-.37h12.625c.3 0 .58.13.77.36 .18.23.26.53.2.83 -.03.13-.05.27-.05.42 0 1.17.95 2.125 2.125 2.125 .14 0 .28-.02.42-.05 .29-.06.59.01.83.2 .23.18.36.47.36.77V18.27c0 .3-.14.58-.37.77 -.24.18-.54.26-.84.2 -.14-.03-.28-.05-.43-.05 -1.18 0-2.125.95-2.125 2.125 0 .14.01.28.04.42 .05.29-.02.59-.21.83 -.19.23-.48.36-.78.36H5.62c-.31 0-.59-.14-.78-.37 -.19-.24-.27-.54-.21-.84 .02-.14.04-.28.04-.43 0-1.18-.96-2.125-2.125-2.125 -.15 0-.29.01-.43.04 -.3.05-.6-.02-.84-.21s-.37-.48-.37-.78V5.58c0-.31.13-.59.36-.78 .23-.19.53-.27.83-.21 .13.02.27.04.42.04 1.17 0 2.125-.96 2.125-2.125 0-.15-.02-.29-.05-.43 -.06-.3.01-.6.2-.84Zm1.81 1.63c-.18 1.97-1.76 3.55-3.74 3.73v10.53c1.97.17 3.55 1.75 3.73 3.73h10.53c.17-1.98 1.75-3.56 3.73-3.74V6.7c-1.98-.18-3.56-1.76-3.74-3.74H6.69Z"/></svg>