<svg viewBox="0 0 24 24" xmlns="http://www.w3.org/2000/svg"><g fill="#FFC44D"><path d="M12 6.25c-3.18 0-5.75 2.57-5.75 5.75 0 3.17 2.57 5.75 5.75 5.75 3.17 0 5.75-2.58 5.75-5.75 0-3.18-2.58-5.75-5.75-5.75Z"/><g fill="#FFC44D" fill-rule="evenodd"><path d="M11.25 4.5V2h1.5v2.5h-1.5Zm0 17.5v-2.5h1.5V22h-1.5Z"/><path d="M6.16 7.22L4.39 5.45l1.06-1.07 1.76 1.76L6.14 7.2Zm12.37 12.37l-1.77-1.77 1.06-1.07 1.76 1.76 -1.07 1.06Z"/><path d="M17.83 7.22l1.76-1.77 -1.07-1.07 -1.77 1.76 1.06 1.06ZM5.45 19.59l1.76-1.77 -1.07-1.07 -1.77 1.76 1.06 1.06Z"/><path d="M4.5 12.75H2v-1.5h2.5v1.5Zm17.5 0h-2.5v-1.5H22v1.5Z"/></g></g></svg>