<svg viewBox="0 0 24 24" xmlns="http://www.w3.org/2000/svg"><path fill="#CFD8DC" d="M12.35 7.46c-.15-.15-.34-.22-.54-.22s-.39.07-.54.21l-7.92 7.91c-.76.75-1 1.84-.72 2.8l-.76.75c-.87.86-.87 2.27 0 3.14 .86.86 2.27.86 3.14 0l.75-.76c.96.28 2.04.04 2.8-.72l7.91-7.92c.29-.3.29-.77 0-1.07L12.29 7.4Z"/><path fill="#7EA9FF" d="M20.94 2.88c-1.08-1.08-2.82-1.08-3.89 0l-2.59 2.58c-.15.14-.22.33-.22.53 0 .19.07.38.21.53l3 3c.29.29.76.29 1.06 0l2.58-2.59c1.07-1.08 1.07-2.82 0-3.89l-.18-.18Z"/><path fill="#5E94FF" d="M14.03 3.96c-.3-.3-.77-.3-1.07 0l-2.5 2.5c-.3.29-.3.76 0 1.06l6 5.99c.29.29.76.29 1.06 0l2.5-2.5c.29-.3.29-.77 0-1.07l-6-6Z"/><g fill="#8B98A6" fill-rule="evenodd"><path d="M5.5 4.75c-.42 0-.75.33-.75.75 0 .41.33.75.75.75 .41 0 .75-.34.75-.75 0-.42-.34-.75-.75-.75Zm-2.25.75c0-1.25 1-2.25 2.25-2.25 1.24 0 2.25 1 2.25 2.25 0 1.24-1.01 2.25-2.25 2.25 -1.25 0-2.25-1.01-2.25-2.25Z"/><path d="M6.25 2v2h-1.5V2h1.5Z"/><path d="M2 4.75h2v1.5H2v-1.5Z"/><path d="M4.75 9V7h1.5v2h-1.5Z"/><path d="M9 6.25H7v-1.5h2v1.5Z"/></g></svg>