<svg viewBox="0 0 24 24" xmlns="http://www.w3.org/2000/svg"><path fill="#CFD8DC" d="M7 1.25c-.42 0-.75.33-.75.75v15c0 3.17 2.57 5.75 5.75 5.75 3.17 0 5.75-2.58 5.75-5.75V2c0-.42-.34-.75-.75-.75H7Z"/><path fill="#F17171" d="M9.5 3.75c-.42 0-.75.33-.75.75v12c0 .41.33.75.75.75h5c.41 0 .75-.34.75-.75v-12c0-.42-.34-.75-.75-.75h-5Z"/><path fill="#FFA071" d="M9.5 7.75c-.42 0-.75.33-.75.75v4c0 .41.33.75.75.75h5c.41 0 .75-.34.75-.75v-4c0-.42-.34-.75-.75-.75h-5Z"/><path fill="#FFD071" d="M9.5 3.75c-.42 0-.75.33-.75.75v4c0 .41.33.75.75.75h5c.41 0 .75-.34.75-.75v-4c0-.42-.34-.75-.75-.75h-5Z"/></svg>