<svg viewBox="0 0 24 24" xmlns="http://www.w3.org/2000/svg"><path fill="#ECEFF1" d="M2 1.25c-.42 0-.75.33-.75.75v20c0 .41.33.75.75.75h20c.41 0 .75-.34.75-.75V2c0-.42-.34-.75-.75-.75H2Z"/><path fill="#71D0FF" d="M15.58 10.53c-.15-.18-.36-.29-.59-.29 -.23 0-.45.1-.59.28l-4 5c-.19.22-.22.53-.1.79 .12.25.38.42.67.42h8c.28 0 .55-.17.67-.43s.08-.57-.1-.8l-4-5Z"/><path fill="#5E94FF" d="M10.61 8.56c-.15-.2-.37-.32-.62-.32s-.47.11-.62.31l-5 7c-.17.22-.19.52-.06.77 .12.24.38.4.66.4h10c.28 0 .53-.16.66-.41 .12-.25.1-.56-.06-.78l-5-7.01Z"/><path fill="#FFC44D" d="M17.5 5.25c-1.25 0-2.25 1-2.25 2.25 0 1.24 1 2.25 2.25 2.25 1.24 0 2.25-1.01 2.25-2.25 0-1.25-1.01-2.25-2.25-2.25Z"/></svg>