<svg viewBox="0 0 24 24" xmlns="http://www.w3.org/2000/svg"><g fill="#7EA9FF" fill-rule="evenodd"><path d="M5.35 4.66C3.67 5.82 2.74 7.37 2.74 8.99c0 2.16 1.69 4.22 4.53 5.36l-.57 1.39c-3.15-1.28-5.47-3.75-5.47-6.76 0-2.25 1.3-4.21 3.24-5.57 1.95-1.37 4.6-2.19 7.5-2.19 2.89 0 5.55.82 7.5 2.18 1.94 1.36 3.24 3.31 3.24 5.56 0 2.24-1.31 4.2-3.25 5.56 -1.96 1.36-4.61 2.18-7.51 2.18 -.36 0-.71-.02-1.06-.04l.1-1.5c.31.02.62.03.94.03 2.62 0 4.97-.75 6.64-1.92s2.6-2.72 2.6-4.34c0-1.63-.94-3.17-2.61-4.34s-4.02-1.92-6.641-1.92c-2.63 0-4.98.74-6.65 1.91Z"/><path d="M6.31 21.69l2-4.5 1.37.6 -2 4.5 -1.38-.61Z"/></g><path fill="#5E94FF" d="M9 12.75c-1.52 0-2.75 1.23-2.75 2.75 0 1.51 1.23 2.75 2.75 2.75 1.51 0 2.75-1.24 2.75-2.75 0-1.52-1.24-2.75-2.75-2.75Z"/></svg>