<svg viewBox="0 0 24 24" xmlns="http://www.w3.org/2000/svg"><path fill="#7EA9FF" d="M8.18 13.75c-.9 0-1.78.2-2.58.6l-3.95 1.97c-.26.12-.42.38-.42.67 0 .28.16.54.41.67l10 5c.21.1.45.1.67 0l10-5c.25-.13.41-.39.41-.68 0-.29-.17-.55-.42-.68l-3.95-1.98c-.8-.4-1.68-.61-2.58-.61H8.13Z"/><path fill="#5E94FF" d="M8.18 8.75c-.9 0-1.78.2-2.58.6l-3.95 1.97c-.26.12-.42.38-.42.67 0 .28.16.54.41.67l10 5c.21.1.45.1.67 0l10-5c.25-.13.41-.39.41-.68 0-.29-.17-.55-.42-.68l-3.95-1.98c-.8-.4-1.68-.61-2.58-.61H8.13Z"/><path fill="#7EA9FF" d="M12.33 1.32c-.22-.11-.46-.11-.68 0l-10 5c-.26.12-.42.38-.42.67 0 .28.16.54.41.67l10 4.99c.21.1.45.1.67 0l10-5c.25-.13.41-.39.41-.68 0-.29-.17-.55-.42-.68l-10-5Z"/></svg>