<svg viewBox="0 0 24 24" xmlns="http://www.w3.org/2000/svg"><path fill="#CFD8DC" d="M12 14.25c-.21 0-.41.08-.55.23 -.15.15-.22.35-.2.56l.5 7c.02.39.35.69.74.69h5c.39 0 .72-.31.74-.7l.5-7c.01-.21-.06-.42-.2-.57 -.15-.16-.35-.24-.55-.24h-6Z"/><path fill="#F17171" d="M15.579 1.52l-.01-.01c-.19-.23-.48-.32-.76-.25 -.28.06-.5.28-.56.56l-.01 0 -.01.01c-.01.01-.01.03-.02.06 -.02.06-.04.15-.07.26 -.06.23-.16.57-.28.98 -.25.82-.63 1.92-1.15 3.06 -.34.73-.75 1.48-1.15 2.21 -.14.24-.27.48-.4.72 -.26.46-.49.91-.66 1.32 -.17.391-.32.82-.32 1.237 0 1.31.55 2.34 1.47 3.03 .88.66 2.06.96 3.27.96s2.39-.31 3.27-.97c.91-.69 1.47-1.73 1.47-3.04 0-1.07-.2-3.35-1.18-5.51 -.57-1.24-1.32-2.42-1.92-3.29 -.31-.44-.58-.8-.77-1.05 -.1-.13-.18-.23-.23-.3 -.03-.04-.05-.07-.07-.08l-.02-.03 -.01-.01Z"/><g fill="#5E94FF"><path d="M7 4l.58-.47 0 0 0 0 .01.02c.01.02.03.04.06.08 .05.07.13.18.23.31 .19.26.45.62.71 1.03 .25.4.52.86.73 1.32 .19.43.38.94.38 1.42 0 1.57-1.16 3-2.75 3 -1.6 0-2.75-1.43-2.75-3 0-.48.18-.99.38-1.43 .2-.46.47-.92.73-1.33 .26-.41.52-.78.71-1.04 .09-.14.17-.24.23-.32 .02-.04.05-.07.06-.09l.01-.03 0-.01 0-.01 .58.46Z"/><path d="M7 4c.58-.47.58-.47.58-.47 -.15-.18-.36-.29-.59-.29 -.23 0-.45.1-.59.28 0 0 0 0 .58.46Z"/></g></svg>