<svg viewBox="0 0 24 24" xmlns="http://www.w3.org/2000/svg"><g fill="#5E94FF" fill-rule="evenodd"><path d="M11.46 1.46c.29-.3.76-.3 1.06 0l3 3 -1.07 1.06 -2.47-2.47 -2.47 2.46 -1.07-1.07 3-3Z"/><path d="M11.46 22.53c.29.29.76.29 1.06 0l3-3 -1.07-1.07 -2.47 2.46 -2.47-2.47 -1.07 1.06 3 3Z"/><path d="M3.06 12l2.46-2.47 -1.07-1.07 -3 3c-.3.29-.3.76 0 1.06l3 3 1.06-1.07 -2.47-2.47Z"/><path d="M20.93 12l-2.47-2.47 1.06-1.07 3 3c.29.29.29.76 0 1.06l-3 3 -1.07-1.07 2.46-2.47Z"/><path d="M11.25 22V2h1.5v20h-1.5Z"/><path d="M2 11.25h20v1.5H2v-1.5Z"/></g></svg>