<svg viewBox="0 0 24 24" xmlns="http://www.w3.org/2000/svg"><path fill="#5E94FF" d="M5 4.25c-.42 0-.75.33-.75.75v14c0 .41.33.75.75.75h14c.41 0 .75-.34.75-.75V5c0-.42-.34-.75-.75-.75H5Z"/><g fill="#CFD8DC" fill-rule="evenodd"><path d="M11.25 7V2h1.5v5h-1.5Z"/><path d="M11.25 22v-5h1.5v5h-1.5Z"/><path d="M7.75 7V2h1.5v5h-1.5Z"/><path d="M7.75 22v-5h1.5v5h-1.5Z"/><path d="M14.75 7V2h1.5v5h-1.5Z"/><path d="M14.75 22v-5h1.5v5h-1.5Z"/><path d="M22 12.75h-5v-1.5h5v1.5Z"/><path d="M7 12.75H2v-1.5h5v1.5Z"/><path d="M22 9.75h-5v-1.5h5v1.5Z"/><path d="M7 9.75H2v-1.5h5v1.5Z"/><path d="M22 15.75h-5v-1.5h5v1.5Z"/><path d="M7 15.75H2v-1.5h5v1.5Z"/></g></svg>