<svg viewBox="0 0 24 24" xmlns="http://www.w3.org/2000/svg"><path fill="#5E94FF" d="M8 7.25c-.42 0-.75.33-.75.75v8c0 .41.33.75.75.75h8c.41 0 .75-.34.75-.75V8c0-.42-.34-.75-.75-.75H8Z"/><g fill="#CFD8DC" fill-rule="evenodd"><path d="M5.75 12v4c0 1.24 1 2.25 2.25 2.25h4c.3 0 .57.18.69.46 .11.28.05.6-.17.81l-3 3 -1.07-1.07 1.71-1.72H7.97c-2.08 0-3.75-1.68-3.75-3.75v-4h1.5Z"/><path d="M18.25 12V8c0-1.25-1.01-2.25-2.25-2.25h-4c-.31 0-.58-.19-.7-.47 -.12-.29-.06-.61.16-.82l3-3 1.06 1.06 -1.72 1.71h2.18c2.07 0 3.75 1.67 3.75 3.75v4h-1.5Z"/></g></svg>