<svg viewBox="0 0 24 24" xmlns="http://www.w3.org/2000/svg"><g fill-rule="evenodd"><path d="M14 4.5h-.5v-1h.5c1.38 0 2.5 1.11 2.5 2.5v3.5c0 .47.22.91.6 1.2l1.2.9c.12.09.19.22.19.37s-.06.29-.17.39l-1.33 1.18c-.33.28-.51.69-.51 1.12v3.32c0 1.38-1.12 2.5-2.5 2.5h-.5v-1h.5c.82 0 1.5-.68 1.5-1.5v-3.33c0-.72.3-1.4.83-1.87l.87-.78 -.72-.54c-.63-.48-1-1.22-1-2v-3.5c0-.83-.68-1.5-1.5-1.5Z"/><path d="M10 4.5h.5v-1H10C8.61 3.5 7.5 4.61 7.5 6v3.5c0 .47-.23.91-.6 1.2l-1.2.9c-.13.09-.2.22-.2.37 -.01.15.05.29.16.39l1.32 1.18c.32.28.5.69.5 1.12v3.32c0 1.38 1.11 2.5 2.5 2.5h.5v-1h-.5c-.83 0-1.5-.68-1.5-1.5v-3.33c0-.72-.31-1.4-.84-1.87L6.76 12l.71-.54c.62-.48 1-1.22 1-2v-3.5c0-.83.67-1.5 1.5-1.5Z"/></g></svg>