<svg viewBox="0 0 24 24" xmlns="http://www.w3.org/2000/svg"><g fill-rule="evenodd"><path d="M1.5 9c0-.83.67-1.5 1.5-1.5h13c.82 0 1.5.67 1.5 1.5v12c0 .82-.68 1.5-1.5 1.5H3c-.83 0-1.5-.68-1.5-1.5V9ZM3 8.5c-.28 0-.5.22-.5.5v12c0 .27.22.5.5.5h13c.27 0 .5-.23.5-.5V9c0-.28-.23-.5-.5-.5H3Z"/><path d="M6.5 4c0-.83.67-1.5 1.5-1.5h13c.82 0 1.5.67 1.5 1.5v12c0 .82-.68 1.5-1.5 1.5h-4c-.28 0-.5-.23-.5-.5V9c0-.28-.23-.5-.5-.5H7c-.28 0-.5-.23-.5-.5V4ZM8 3.5c-.28 0-.5.22-.5.5v3.5H16c.82 0 1.5.67 1.5 1.5v7.5H21c.27 0 .5-.23.5-.5V4c0-.28-.23-.5-.5-.5H8Z"/><path d="M1.5 9c0-.83.67-1.5 1.5-1.5h13c.82 0 1.5.67 1.5 1.5v4c0 .27-.23.5-.5.5H2c-.28 0-.5-.23-.5-.5V9ZM3 8.5c-.28 0-.5.22-.5.5v3.5h14V9c0-.28-.23-.5-.5-.5H3Z"/><path d="M6.5 4c0-.83.67-1.5 1.5-1.5h13c.82 0 1.5.67 1.5 1.5v4c0 .27-.23.5-.5.5H7c-.28 0-.5-.23-.5-.5V4ZM8 3.5c-.28 0-.5.22-.5.5v3.5h14V4c0-.28-.23-.5-.5-.5H8Z"/></g></svg>