<svg viewBox="0 0 24 24" xmlns="http://www.w3.org/2000/svg"><g fill-rule="evenodd"><path d="M11 5c-3.04 0-5.5 2.46-5.5 5.5 0 .27-.23.5-.5.5 -1.39 0-2.5 1.11-2.5 2.5C2.5 14.88 3.61 16 5 16h1.25v1H5c-1.94 0-3.5-1.57-3.5-3.5 0-1.77 1.31-3.24 3.01-3.47 .23-3.38 3.05-6.04 6.48-6.04 2.74 0 5.08 1.69 6.04 4.1 .3-.07.62-.11.95-.11 2.48 0 4.5 2.01 4.5 4.5 0 1.19-.35 2.31-1.04 3.14 -.7.83-1.72 1.35-2.97 1.35h-1.25v-1h1.25c.95 0 1.68-.39 2.19-1 .51-.62.8-1.5.8-2.51 0-1.94-1.57-3.5-3.5-3.5 -.4 0-.77.06-1.12.18 -.13.04-.27.03-.39-.03 -.12-.07-.21-.17-.25-.3 -.7-2.24-2.79-3.86-5.26-3.86Z"/><path d="M10.97 17.27l3.64-4.11 .74.66 -4 4.5c-.1.1-.23.16-.359.16 -.14 0-.28-.05-.37-.15l-2.01-2 .7-.71 1.62 1.62Z"/></g></svg>