<svg viewBox="0 0 24 24" xmlns="http://www.w3.org/2000/svg"><g fill-rule="evenodd"><path d="M11 6.5c-.32 0-.62.02-.92.07l-.17-.99c.35-.06.71-.09 1.08-.09 2.74 0 5.089 1.69 6.04 4.1 .3-.07.62-.11.95-.11 2.48 0 4.5 2.01 4.5 4.5 0 1.29-.41 2.49-1.22 3.34l-.73-.69c.59-.63.93-1.561.93-2.66 0-1.94-1.57-3.5-3.5-3.5 -.4 0-.77.06-1.12.18 -.13.04-.27.03-.39-.03 -.12-.07-.21-.17-.25-.3 -.7-2.24-2.79-3.856-5.26-3.856ZM7.62 7.65c-1.3 1-2.13 2.57-2.13 4.34 0 .27-.23.5-.5.5 -1.39 0-2.5 1.11-2.5 2.5 0 1.38 1.11 2.5 2.5 2.5H17.86v1H4.98c-1.94 0-3.5-1.57-3.5-3.5 0-1.77 1.31-3.24 3.01-3.47 .13-1.9 1.08-3.57 2.49-4.67l.61.78Z"/><path d="M21.35 20.64l-18-18 -.71.7 18 18 .7-.71Z"/></g></svg>