<svg viewBox="0 0 24 24" xmlns="http://www.w3.org/2000/svg"><g fill-rule="evenodd"><path d="M11 5c-3.04 0-5.5 2.46-5.5 5.5 0 .27-.23.5-.5.5 -1.39 0-2.5 1.11-2.5 2.5C2.5 14.88 3.61 16 5 16h1.25v1H5c-1.94 0-3.5-1.57-3.5-3.5 0-1.77 1.31-3.24 3.01-3.47 .23-3.38 3.05-6.04 6.48-6.04 2.74 0 5.08 1.69 6.04 4.1 .3-.07.62-.11.95-.11 2.48 0 4.5 2.01 4.5 4.5 0 1.19-.35 2.31-1.04 3.14 -.7.83-1.72 1.35-2.97 1.35h-.75v-1h.75c.95 0 1.68-.39 2.19-1 .51-.62.8-1.5.8-2.51 0-1.94-1.57-3.5-3.5-3.5 -.4 0-.77.06-1.12.18 -.13.04-.27.03-.39-.03 -.12-.07-.21-.17-.25-.3 -.7-2.24-2.79-3.86-5.26-3.86Z"/><path d="M9 15c0-.28.22-.5.5-.5h5c.27 0 .5.22.5.5v3c0 .27-.23.5-.5.5h-5c-.28 0-.5-.23-.5-.5v-3Zm1 .5v2h4v-2h-4Z"/><path d="M10 13.5c0-1.11.89-2 2-2 1.1 0 2 .89 2 2V15c0 .27-.23.5-.5.5h-3c-.28 0-.5-.23-.5-.5v-1.5Zm2-1c-.56 0-1 .44-1 1v1h2v-1c0-.56-.45-1-1-1Z"/></g></svg>