<svg viewBox="0 0 24 24" xmlns="http://www.w3.org/2000/svg"><g fill-rule="evenodd"><path d="M11 5c-3.04 0-5.5 2.46-5.5 5.5 0 .27-.23.5-.5.5 -1.39 0-2.5 1.11-2.5 2.5 0 .75.19 1.38.52 1.81 .32.41.79.68 1.47.68h.75v1h-.75c-.99 0-1.76-.41-2.27-1.08 -.51-.66-.74-1.53-.74-2.43 0-1.77 1.31-3.24 3.01-3.47 .23-3.38 3.05-6.04 6.48-6.04 2.74 0 5.08 1.69 6.04 4.1 .3-.07.62-.11.95-.11 2.48 0 4.5 2.01 4.5 4.5 0 1.15-.21 2.26-.76 3.1 -.58.87-1.49 1.39-2.75 1.39h-.25v-1h.25c.94 0 1.53-.37 1.91-.95 .39-.61.58-1.5.58-2.56 0-1.94-1.57-3.5-3.5-3.5 -.4 0-.77.06-1.12.18 -.13.04-.27.03-.39-.03 -.12-.07-.21-.17-.25-.3 -.7-2.24-2.79-3.86-5.26-3.86Z"/><path d="M12.5 13c-1.66 0-3 1.34-3 3 0 1.65 1.34 3 3 3 1.65 0 3-1.35 3-3 0-1.66-1.35-3-3-3Zm-4 3c0-2.21 1.79-4 4-4 2.2 0 4 1.79 4 4 0 2.2-1.8 4-4 4 -2.21 0-4-1.8-4-4Z"/><path d="M7.74 18.91c0 .2.06.3.1.34 .05.05.2.13.52.1 .31-.04.73-.16 1.23-.4 .98-.48 2.19-1.35 3.35-2.52 1.16-1.17 2.03-2.37 2.51-3.36 .23-.5.36-.92.39-1.24 .03-.33-.05-.47-.11-.53 -.05-.05-.15-.11-.35-.11 -.21-.01-.49.04-.84.16 -.7.24-1.57.75-2.5 1.47l-.62-.79c.97-.77 1.94-1.35 2.78-1.64 .41-.15.82-.24 1.19-.23 .37 0 .74.11 1.03.4 .35.35.43.85.39 1.32 -.05.47-.23 1.01-.5 1.57 -.54 1.11-1.49 2.4-2.71 3.62 -1.22 1.21-2.51 2.16-3.63 2.7 -.56.26-1.1.44-1.58.49 -.48.04-.97-.04-1.33-.4 -.29-.29-.4-.66-.41-1.04 -.01-.38.07-.78.22-1.2 .29-.84.86-1.81 1.63-2.78l.78.61c-.73.92-1.24 1.79-1.48 2.49 -.13.34-.18.62-.17.83Z"/></g></svg>