<svg viewBox="0 0 24 24" xmlns="http://www.w3.org/2000/svg"><g fill-rule="evenodd"><path d="M3.5 4c0-1.39 1.11-2.5 2.5-2.5h12c1.38 0 2.5 1.11 2.5 2.5v1c0 1.38-1.12 2.5-2.5 2.5H6C4.61 7.5 3.5 6.38 3.5 5V4ZM6 2.5c-.83 0-1.5.67-1.5 1.5v1c0 .82.67 1.5 1.5 1.5h12c.82 0 1.5-.68 1.5-1.5V4c0-.83-.68-1.5-1.5-1.5H6Z"/><path d="M4.5 5v15c0 .82.67 1.5 1.5 1.5h12c.82 0 1.5-.68 1.5-1.5V5h1v15c0 1.38-1.12 2.5-2.5 2.5H6c-1.39 0-2.5-1.12-2.5-2.5V5h1Z"/><path d="M4.5 12v1c0 .82.67 1.5 1.5 1.5h12c.82 0 1.5-.68 1.5-1.5v-1h1v1c0 1.38-1.12 2.5-2.5 2.5H6c-1.39 0-2.5-1.12-2.5-2.5v-1h1Z"/><path d="M10 11.5H7v-1h3v1Z"/><path d="M10 19H7v-1h3v1Z"/></g></svg>