<svg viewBox="0 0 24 24" xmlns="http://www.w3.org/2000/svg"><g fill-rule="evenodd"><path d="M16.5 3c0-.28.22-.5.5-.5h4c.27 0 .5.22.5.5v18c0 .27-.23.5-.5.5h-4c-.28 0-.5-.23-.5-.5V3Zm1 .5v17h3v-17h-3Z"/><path d="M2.5 3c0-.28.22-.5.5-.5h4c.27 0 .5.22.5.5v18c0 .27-.23.5-.5.5H3c-.28 0-.5-.23-.5-.5V3Zm1 .5v17h3v-17h-3Z"/><path d="M2.5 3c0-.28.22-.5.5-.5h18c.27 0 .5.22.5.5v18c0 .27-.23.5-.5.5H3c-.28 0-.5-.23-.5-.5V3Zm1 .5v17h17v-17h-17Z"/><path d="M2.5 17c0-.28.22-.5.5-.5h18c.27 0 .5.22.5.5v4c0 .27-.23.5-.5.5H3c-.28 0-.5-.23-.5-.5v-4Zm1 .5v3h17v-3h-17Z"/><path d="M2.5 3c0-.28.22-.5.5-.5h18c.27 0 .5.22.5.5v4c0 .27-.23.5-.5.5H3c-.28 0-.5-.23-.5-.5V3Zm1 .5v3h17v-3h-17Z"/></g></svg>