<svg viewBox="0 0 24 24" xmlns="http://www.w3.org/2000/svg"><g fill-rule="evenodd"><path d="M2.5 3c0-.28.22-.5.5-.5h18c.27 0 .5.22.5.5v18c0 .27-.23.5-.5.5H3c-.28 0-.5-.23-.5-.5V3Zm1 .5v17h17v-17h-17Z"/><path d="M14.5 8c0-.28.22-.5.5-.5h6c.27 0 .5.22.5.5v13c0 .27-.23.5-.5.5h-6c-.28 0-.5-.23-.5-.5V8Zm1 .5v12h5v-12h-5Z"/><path d="M8.5 8c0-.28.22-.5.5-.5h6c.27 0 .5.22.5.5v13c0 .27-.23.5-.5.5H9c-.28 0-.5-.23-.5-.5V8Zm1 .5v12h5v-12h-5Z"/><path d="M2.5 3c0-.28.22-.5.5-.5h18c.27 0 .5.22.5.5v5c0 .27-.23.5-.5.5H3c-.28 0-.5-.23-.5-.5V3Zm1 .5v4h17v-4h-17Z"/></g></svg>