<svg viewBox="0 0 24 24" xmlns="http://www.w3.org/2000/svg"><g fill-rule="evenodd"><path d="M12.14 6.26c-3.05 0-5.52 2.46-5.52 5.51 0 3.04 2.46 5.51 5.51 5.51 3.04 0 5.51-2.47 5.51-5.52 0-3.05-2.47-5.52-5.52-5.52Z"/><path d="M8.43 5.46c0-2.05 1.65-3.71 3.7-3.71 2.04 0 3.7 1.65 3.7 3.7v2.7c0 .55-.45 1-1 1 -.56 0-1-.45-1-1V5.44c0-.95-.77-1.71-1.71-1.71 -.95 0-1.71.76-1.71 1.7v2.7c0 .55-.45 1-1.01 1s-1-.45-1-1V5.42Z"/><path d="M4.14 12.39C2.52 11.3 1.99 9.16 2.92 7.45c1.02-1.89 3.41-2.54 5.25-1.43l1.82 1.09c.47.28.62.89.34 1.37 -.29.47-.9.62-1.38.34l-1.83-1.1c-.87-.52-1.99-.22-2.47.67 -.44.8-.2 1.8.56 2.31l3.11 2.08c.45.3.58.92.27 1.38 -.31.45-.93.58-1.39.27l-3.12-2.09Z"/><path d="M11.87 19.21C11 21.06 8.8 21.86 6.95 21c-1.86-.87-2.66-3.08-1.79-4.94l1.58-3.36c.23-.5.83-.72 1.33-.48 .49.23.71.83.47 1.33L6.95 16.9c-.41.85-.04 1.86.81 2.26 .85.39 1.86.02 2.26-.83l1.14-2.46c.23-.51.82-.72 1.32-.49 .5.23.71.82.48 1.32l-1.15 2.45Z"/><path d="M19.86 12.37c1.65-1.06 2.2-3.22 1.27-4.94 -1.02-1.87-3.39-2.52-5.22-1.42l-1.86 1.11c-.48.28-.63.89-.35 1.37 .28.47.89.62 1.37.34l1.85-1.12c.84-.52 1.95-.22 2.42.65 .43.8.17 1.8-.6 2.29l-2.61 1.66c-.47.29-.61.91-.31 1.38 .29.46.91.6 1.38.3l2.6-1.67Z"/><path d="M12.23 19.257c.85 1.83 3.03 2.62 4.86 1.76 1.87-.88 2.65-3.14 1.71-4.99l-1.49-2.91c-.26-.5-.86-.69-1.35-.44 -.5.25-.69.85-.44 1.34l1.48 2.9c.42.83.07 1.86-.78 2.25 -.83.38-1.82.02-2.21-.81l-1.17-2.5c-.24-.51-.83-.72-1.33-.49 -.51.23-.72.82-.49 1.32l1.16 2.49Z"/></g></svg>