<svg viewBox="0 0 24 24" xmlns="http://www.w3.org/2000/svg"><g fill-rule="evenodd"><path d="M8.02 1.75c.11-.45.51-.76.97-.76h7.99c.33 0 .64.16.83.44 .18.28.21.63.08.94l-2.41 5.6h2.48c.38 0 .73.22.9.56 .16.34.11.75-.13 1.05l-2 2.5c-.18.22-.45.35-.73.37 -.29.01-.57-.1-.77-.3l-7.5-7.5c-.25-.25-.35-.61-.27-.95l.5-2Zm-.79 4.77c.34-.1.71 0 .96.26l6.91 6.97c.33.33.38.85.12 1.25l-4.92 7.52c-.26.39-.76.55-1.21.38 -.45-.18-.71-.63-.63-1.096l1.3-7.84H5.94c-.32 0-.61-.15-.8-.4 -.19-.25-.26-.57-.18-.88l1.49-5.51c.09-.35.36-.62.71-.71Z"/><path d="M20.293 21.7l-18-18L3.7 2.28l18 18 -1.42 1.41Z"/></g></svg>