<svg viewBox="0 0 24 24" xmlns="http://www.w3.org/2000/svg"><g fill-rule="evenodd"><path d="M21.707 20.29l-18-18L2.28 3.7l18 18 1.41-1.42Z"/><path d="M17.2 15.78l-.71.71h1c0 1.38-1.12 2.5-2.5 2.5h-10c-1.66 0-3-1.35-3-3v-8c0-1.66 1.34-3 3-3h.875c.26 0 .51.1.7.28l10.625 10.5ZM10.62 4.99c-.41 0-.78.24-.93.62 -.16.37-.07.81.23 1.09l10.375 10c.28.27.71.35 1.08.2 .36-.16.6-.52.6-.93v-8c0-.34-.18-.66-.46-.84 -.29-.19-.65-.22-.96-.08l-3.1 1.37v-.47c0-1.66-1.35-3-3-3H10.58Zm-1.625 3h-3v2h3v-2Z"/></g></svg>