<svg viewBox="0 0 24 24" xmlns="http://www.w3.org/2000/svg"><g fill-rule="evenodd"><path d="M1 6c0-1.66 1.34-3 3-3h16c1.65 0 3 1.34 3 3v12c0 1.65-1.35 3-3 3H4c-1.66 0-3-1.35-3-3V6Zm3-1c-.56 0-1 .44-1 1v12c0 .55.44 1 1 1h16c.55 0 1-.45 1-1V6c0-.56-.45-1-1-1H4Z"/><path d="M9.62 10.2c-1.18-1.18-3.08-1.18-4.25 0l-4.09 4.08c-.19.18-.3.44-.3.7v3c0 .26.1.51.29.7l2 2c.18.18.44.29.7.29h14c.4 0 .76-.25.92-.62 .15-.38.06-.81-.22-1.09l-9.09-9.09Z"/><path d="M19.31 10.72c-1.21-1.45-3.44-1.44-4.63.02l-2.97 3.62c-.18.21-.26.5-.22.78 .04.27.19.52.43.68l7.5 5c.39.26.92.21 1.26-.125l2-2c.18-.19.29-.45.29-.71v-2.5c0-.24-.09-.47-.24-.65l-3.45-4.14Z"/><path d="M12 5.5c-1.39 0-2.5 1.11-2.5 2.5 0 1.38 1.11 2.5 2.5 2.5 1.38 0 2.5-1.12 2.5-2.5 0-1.39-1.12-2.5-2.5-2.5Z"/></g></svg>