<svg viewBox="0 0 24 24" xmlns="http://www.w3.org/2000/svg"><path fill-rule="evenodd" d="M2 1c-.56 0-1 .44-1 1v20c0 .55.44 1 1 1h20c.55 0 1-.45 1-1V2c0-.56-.45-1-1-1H2Zm3.58 6l-1.3-1.3 1.41-1.42 1.29 1.29 1.29-1.3 1.41 1.41 -1.3 1.29 1.29 1.29 -1.42 1.41 -1.3-1.3 -1.3 1.29 -1.42-1.42 1.29-1.3Zm11.91 8c-1.39 0-2.5 1.11-2.5 2.5 0 1.38 1.11 2.5 2.5 2.5 1.38 0 2.5-1.12 2.5-2.5 0-1.39-1.12-2.5-2.5-2.5Zm-2.25-9h-4.25v2h4.25c.96 0 1.75.78 1.75 1.75 0 .96-.79 1.75-1.75 1.75H7.49c-1.94 0-3.5 1.56-3.5 3.5 0 1.93 1.56 3.5 3.5 3.5h5.5v-2h-5.5c-.83 0-1.5-.68-1.5-1.5 0-.83.67-1.5 1.5-1.5h7.75c2.07 0 3.75-1.68 3.75-3.75 0-2.08-1.68-3.75-3.75-3.75Z"/></svg>