<svg viewBox="0 0 24 24" xmlns="http://www.w3.org/2000/svg"><g fill-rule="evenodd"><path d="M6 5c0-.56.44-1 1-1h10c.55 0 1 .44 1 1v7c0 .55-.45 1-1 1h-5v-2h4V6H8v5h1v2H7c-.56 0-1-.45-1-1V5Z"/><path d="M5 17c-.56 0-1 .44-1 1v4c0 .55.44 1 1 1h14c.55 0 1-.45 1-1v-4c0-.56-.45-1-1-1H5Z"/><path d="M6 1c-.56 0-1 .44-1 1v3c0 .55.44 1 1 1h12c.55 0 1-.45 1-1V2c0-.56-.45-1-1-1H6Z"/><path d="M5.01 11.83c.08-.49.49-.84.98-.84h3v2H6.83l-.67 4h11.639l-.67-4h-5.16v-2h6c.48 0 .9.35.98.83l1 6c.04.29-.04.58-.23.81 -.19.22-.47.35-.77.35h-14c-.3 0-.58-.13-.77-.36 -.2-.23-.28-.53-.23-.82l1-6Z"/><path d="M10.5 9.5C9.11 9.5 8 10.61 8 12c0 1.38 1.11 2.5 2.5 2.5 1.38 0 2.5-1.12 2.5-2.5 0-1.39-1.12-2.5-2.5-2.5Z"/><path d="M9.5 15.5v-2h2v2h-2Z"/></g></svg>