<svg viewBox="0 0 24 24" xmlns="http://www.w3.org/2000/svg"><g fill-rule="evenodd"><path d="M9.23 11.35c.18-.23.47-.36.76-.36h7c.29 0 .57.13.76.35l2.2 2.64h.53c1.38 0 2.5 1.11 2.5 2.5v3.5c0 .55-.45 1-1 1h-2v-2h1v-2.5c0-.28-.23-.5-.5-.5h-1c-.3 0-.58-.14-.77-.36l-2.21-2.65h-6.07l-2.21 2.64c-.16.18-.36.3-.59.34l-4.27.77c-.24.04-.42.25-.42.49v1.74h1v2h-2c-.56 0-1-.45-1-1V17.2c0-1.21.86-2.25 2.05-2.46l3.91-.72 2.26-2.73Zm-1.24 7.64h8v2h-8v-2Z"/><path d="M6 17c-1.66 0-3 1.34-3 3 0 1.65 1.34 3 3 3 1.65 0 3-1.35 3-3 0-1.66-1.35-3-3-3Z"/><path d="M18 17c-1.66 0-3 1.34-3 3 0 1.65 1.34 3 3 3 1.65 0 3-1.35 3-3 0-1.66-1.35-3-3-3Z"/><path d="M6.5 3C4.56 3 3 4.56 3 6.5 3 8.43 4.56 10 6.5 10 8.43 10 10 8.43 10 6.5 10 4.56 8.43 3 6.5 3ZM1 6.5C1 3.46 3.46 1 6.5 1 9.53 1 12 3.46 12 6.5 12 9.53 9.53 12 6.5 12 3.46 12 1 9.53 1 6.5Z"/><path d="M6.38 5c.07-.01.14-.01.22 0l4.49.5 -.23 1.98 -4.39-.49 -4.39.48 -.23-1.99 4.5-.5Z"/><path d="M5.5 11V6h2v5h-2Z"/></g></svg>