<svg viewBox="0 0 24 24" xmlns="http://www.w3.org/2000/svg"><g fill-rule="evenodd"><path d="M8 17c-1.66 0-3 1.34-3 3v2c0 .55.44 1 1 1h12c.55 0 1-.45 1-1v-2c0-1.66-1.35-3-3-3H8Z"/><path d="M7 5c-.56 0-1 .44-1 1v3c0 .55.44 1 1 1h10c.55 0 1-.45 1-1V6c0-.56-.45-1-1-1H7Z"/><path d="M9.5 8c-.49 0-.91.35-.99.83l-1.5 9c-.05.29.03.58.22.81 .19.22.46.35.76.35h7.99c.29 0 .57-.13.76-.36 .19-.23.27-.53.22-.82l-1.5-9c-.09-.49-.5-.84-.99-.84h-5Z"/><path d="M11.5 1C9.56 1 8 2.56 8 4.5V6c0 .55.44 1 1 1h6c.55 0 1-.45 1-1V4.5C16 2.56 14.43 1 12.5 1h-1Z"/></g></svg>