<svg viewBox="0 0 24 24" xmlns="http://www.w3.org/2000/svg"><g fill-rule="evenodd"><path d="M1 10c0-.56.44-1 1-1h7v2H3v10h18V11h-6V9h7c.55 0 1 .44 1 1v12c0 .55-.45 1-1 1H2c-.56 0-1-.45-1-1V10Z"/><path d="M12 6c-2.21 0-4 1.79-4 4 0 2.2 1.79 4 4 4 2.2 0 4-1.8 4-4 0-2.21-1.8-4-4-4Z"/><path d="M5 1.1c-2.29.46-4 2.48-4 4.89v4c0 .55.44 1 1 1h7 6 7c.55 0 1-.45 1-1v-4c0-2.42-1.72-4.44-4-4.9v8.89h-2v-9H7v9H5v-8.9Z"/><path d="M2 17c-.56 0-1 .44-1 1v4c0 .55.44 1 1 1h4c.55 0 1-.45 1-1v-2c0-1.66-1.35-3-3-3H2Z"/><path d="M22 17c.55 0 1 .44 1 1v4c0 .55-.45 1-1 1h-4c-.56 0-1-.45-1-1v-2c0-1.66 1.34-3 3-3h2Z"/></g></svg>