<svg viewBox="0 0 24 24" xmlns="http://www.w3.org/2000/svg"><g fill-rule="evenodd"><path d="M17 7h-2V5h2c1.65 0 3 1.34 3 3v14c0 .55-.45 1-1 1h-4v-2h3V8c0-.56-.45-1-1-1Z"/><path d="M20.94 3h-5.95V1h7c.27 0 .53.11.72.31 .18.19.28.46.27.73l-1 20c-.03.53-.47.95-1 .95h-6v-2h5.04l.9-18Z"/><path d="M1 2c0-.56.44-1 1-1h13c.53 0 .97.41.99.95l1 20c.01.27-.09.54-.28.73 -.19.19-.46.31-.73.31h-14c-.56 0-1-.45-1-1v-20Zm4 2c-.56 0-1 .44-1 1v3.1c0 .55.44 1 1 1h3v.89H5v2h4c.55 0 1-.45 1-1v-2.9c0-.56-.45-1-1-1H6V5.98h3v-2H5Z"/></g></svg>