<svg viewBox="0 0 24 24" xmlns="http://www.w3.org/2000/svg"><g fill-rule="evenodd"><path d="M1 4c0-.56.44-1 1-1h20c.55 0 1 .44 1 1v16c0 .55-.45 1-1 1H2c-.56 0-1-.45-1-1V4Zm2 1v14h18V5H3Z"/><path d="M1 4c0-.56.44-1 1-1h6c.21 0 .42.07.6.2L12 5.75l3.4-2.55c.17-.13.38-.2.6-.2h6c.55 0 1 .44 1 1v2c0 .23-.09.46-.24.64l-4.47 5.35 4.46 5.35c.14.17.23.4.23.64v2c0 .55-.45 1-1 1h-6c-.22 0-.43-.08-.6-.2l-3.4-2.55 -3.4 2.55c-.18.12-.39.2-.6.2h-6c-.56 0-1-.45-1-1v-2c0-.24.08-.47.23-.65l4.46-5.36L1.2 6.61c-.15-.18-.24-.41-.24-.65v-2Zm10 8c0-.56.44-1 1-1 .55 0 1 .44 1 1 0 .55-.45 1-1 1 -.56 0-1-.45-1-1Zm1-3c-1.66 0-3 1.34-3 3 0 1.65 1.34 3 3 3 1.65 0 3-1.35 3-3 0-1.66-1.35-3-3-3Z"/></g></svg>