<svg viewBox="0 0 24 24" xmlns="http://www.w3.org/2000/svg"><g fill-rule="evenodd"><path d="M3 16.38V6.99H1v10c0 .37.21.72.55.89l10 5c.28.14.61.14.89 0l10-5c.33-.17.55-.52.55-.9v-10h-2v9.38l-9 4.5 -9-4.5Z"/><path d="M17 15v-2h2v2h-2Z"/><path d="M3.5 13v-2h2v2h-2Z"/><path d="M6 15.5v-2h2v2H6Z"/><path d="M8.5 18v-2h2v2h-2Z"/><path d="M12.44 1.1c-.29-.15-.62-.15-.9 0l-10 5c-.34.16-.56.51-.56.89 0 .37.21.72.55.89l10 4.99c.28.14.61.14.89 0l10-5c.33-.17.55-.52.55-.9s-.22-.73-.56-.9l-10-5Zm-1.45 3.39h2v2h-2v-2Zm2 3h-2v2h2v-2Z"/></g></svg>