<svg viewBox="0 0 24 24" xmlns="http://www.w3.org/2000/svg"><g fill-rule="evenodd"><path d="M2.5 7.5c0-.56.44-1 1-1h8c1.65 0 3 1.34 3 3 0 1.65-1.35 3-3 3H8.84l1.11 3.71 -1.92.57 -1.5-5c-.1-.31-.04-.64.15-.89 .18-.26.48-.41.8-.41h4c.55 0 1-.45 1-1 0-.56-.45-1-1-1h-7v8h-2v-9Z"/><path d="M6 1C4.34 1 3 2.34 3 4v2.5c0 1.1.89 2 2 2h7.25c.13 0 .25.11.25.25 0 1.24 1 2.25 2.25 2.25H18c1.65 0 3-1.35 3-3V4c0-1.66-1.35-3-3-3H6Z"/><path d="M19 17.26V7.49h2v10c0 .15-.04.3-.11.44l-2 4c-.17.33-.52.55-.9.55h-12c-.38 0-.73-.22-.9-.56l-2.5-5c-.07-.14-.11-.3-.11-.45v-2h2v1.76l2.11 4.23h10.764l1.61-3.24Z"/></g></svg>