<svg viewBox="0 0 24 24" xmlns="http://www.w3.org/2000/svg"><path fill-rule="evenodd" d="M8 1c-.27 0-.52.1-.71.29l-3 3c-.19.18-.3.44-.3.7v11c0 3.86 3.13 7 7 7h2c3.86 0 7-3.14 7-7v-11c0-.27-.11-.52-.3-.71l-3-3c-.19-.19-.45-.3-.71-.3h-2c-.27 0-.52.1-.71.29l-.3.29v3.62c.88.38 1.5 1.26 1.5 2.29v2c0 1.02-.62 1.9-1.5 2.292v2.208h-2V11.76c-.89-.39-1.5-1.27-1.5-2.292v-2c0-1.03.61-1.91 1.5-2.3V1.54l-.3-.3c-.19-.19-.45-.3-.71-.3h-2Zm4 6c-.28 0-.5.22-.5.5v2c0 .27.22.5.5.5 .27 0 .5-.23.5-.5v-2c0-.28-.23-.5-.5-.5Z"/></svg>