<svg viewBox="0 0 24 24" xmlns="http://www.w3.org/2000/svg"><g fill-rule="evenodd"><path d="M9.5 7.5C9.5 6.11 10.61 5 12 5c1.38 0 2.5 1.11 2.5 2.5v2c0 1.38-1.12 2.5-2.5 2.5 -1.39 0-2.5-1.12-2.5-2.5v-2ZM12 7c-.28 0-.5.22-.5.5v2c0 .27.22.5.5.5 .27 0 .5-.23.5-.5v-2c0-.28-.23-.5-.5-.5Z"/><path d="M8 1c-.27 0-.52.1-.71.29l-3 3c-.19.18-.3.44-.3.7v11c0 3.86 3.13 7 7 7h2c3.86 0 7-3.14 7-7v-11c0-.27-.11-.52-.3-.71l-3-3c-.19-.19-.45-.3-.71-.3h-2.5c-.56 0-1 .44-1 1v6.5h2v-5.5h1.08l2.41 2.41v5.1l-4.63 3.69c-.24.18-.38.47-.38.78v6h-2v-6c0-.31-.14-.6-.38-.79l-4.63-3.7V5.36l2.41-2.42h1.08v5.5h2v-6.5c0-.56-.45-1-1-1h-2.5Z"/></g></svg>