<svg viewBox="0 0 24 24" xmlns="http://www.w3.org/2000/svg"><g fill-rule="evenodd"><path d="M4 5.5c-1.66 0-3 1.34-3 3v3c0 1.65 1.34 3 3 3h16c1.65 0 3-1.35 3-3v-3c0-1.66-1.35-3-3-3H4Zm2.5 2C5.11 7.5 4 8.61 4 10c0 1.38 1.11 2.5 2.5 2.5C7.88 12.5 9 11.38 9 10c0-1.39-1.12-2.5-2.5-2.5Zm3 2.5c0-1.39 1.11-2.5 2.5-2.5 1.38 0 2.5 1.11 2.5 2.5 0 1.38-1.12 2.5-2.5 2.5 -1.39 0-2.5-1.12-2.5-2.5Z"/><path d="M10 12.5c-.38 0-.73.21-.9.55l-2 4c-.16.31-.14.67.04.97 .18.29.5.47.85.47h8c.34 0 .66-.18.85-.48 .18-.3.19-.67.04-.98l-2-4c-.17-.34-.52-.56-.9-.56h-4Z"/></g></svg>