<svg viewBox="0 0 24 24" xmlns="http://www.w3.org/2000/svg"><path fill-rule="evenodd" d="M5 1c-.56 0-1 .44-1 1v20c0 .55.44 1 1 1h14c.55 0 1-.45 1-1V2c0-.56-.45-1-1-1H5Zm8.56 4.72c-1.55.44-3.28 1.53-4.78 3.21 -1.5 1.68-2.4 3.56-2.69 5.2 -.3 1.66.05 2.92.8 3.63 .74.69 1.96.93 3.52.48 1.54-.45 3.27-1.54 4.77-3.22 1.49-1.69 2.39-3.57 2.68-5.21 .29-1.67-.06-2.93-.81-3.64 -.75-.7-1.97-.94-3.53-.49ZM13 3.79c1.95-.57 4-.41 5.44.95 1.42 1.34 1.76 3.4 1.4 5.43 -.37 2.05-1.47 4.26-3.17 6.18 -1.7 1.91-3.75 3.24-5.72 3.81 -1.96.56-4.01.4-5.45-.96 -1.43-1.35-1.77-3.41-1.41-5.44 .36-2.06 1.46-4.27 3.16-6.19 1.69-1.92 3.74-3.25 5.71-3.82Zm-3.02 6.69h2v1h-1v2h1v1h-2v2h2c1.1 0 2-.9 2-2v-2 -2c0-1.11-.9-2-2-2h-2v2Z"/></svg>