<svg viewBox="0 0 24 24" xmlns="http://www.w3.org/2000/svg"><g fill-rule="evenodd"><path d="M8.56 13c-1.38 0-2.58.93-2.92 2.27l-1.01 4c-.48 1.89.95 3.72 2.9 3.72 1.29 0 2.43-.83 2.84-2.06l.31-.95h2.55l.31.94c.4 1.22 1.55 2.05 2.84 2.05 1.95 0 3.38-1.84 2.9-3.73l-1.01-4.01c-.34-1.34-1.54-2.28-2.92-2.28h-.94 -2.5H9.4h-.94Z"/><path d="M10.5 12h-5v-2h5v2Z"/><path d="M6 1h2c.55 0 1 .44 1 1v9H7V3H6V1Z"/><path d="M14.5 2v9h-2V2h2Z"/><path d="M12.5 2c0-.56.44-1 1-1h3c1.65 0 3 1.34 3 3v1c0 1.65-1.35 3-3 3h-3c-.56 0-1-.45-1-1V2Zm2 1v3h2c.55 0 1-.45 1-1V4c0-.56-.45-1-1-1h-2Z"/></g></svg>