<svg viewBox="0 0 24 24" xmlns="http://www.w3.org/2000/svg"><g fill-rule="evenodd"><path d="M8 17c-1.66 0-3 1.34-3 3v2c0 .55.44 1 1 1h12c.55 0 1-.45 1-1v-2c0-1.66-1.35-3-3-3H8Z"/><path d="M7.5 7c-.56 0-1 .44-1 1v3c0 .55.44 1 1 1h9c.55 0 1-.45 1-1V8c0-.56-.45-1-1-1h-9Z"/><path d="M9.5 10c-.48 0-.88.32-.98.79l-1.5 7c-.07.29.01.6.2.83 .18.23.47.37.77.37h7.99c.3 0 .58-.14.77-.38 .18-.24.26-.55.2-.84l-1.5-7c-.1-.47-.51-.8-.98-.8h-5Z"/><path d="M12 1C9.79 1 8 2.79 8 5c0 2.2 1.79 4 4 4 2.2 0 4-1.8 4-4 0-2.21-1.8-4-4-4Z"/></g></svg>