<svg viewBox="0 0 24 24" xmlns="http://www.w3.org/2000/svg"><g fill-rule="evenodd"><path d="M9 5c0-.56.44-1 1-1h4c.55 0 1 .44 1 1v1.54c3.21 1.21 5.5 4.31 5.5 7.95 0 4.69-3.81 8.5-8.5 8.5 -4.7 0-8.5-3.81-8.5-8.5 0-3.64 2.28-6.75 5.5-7.96V4.98Zm2 1v1.26c0 .44-.31.84-.74.96 -2.75.75-4.77 3.27-4.77 6.26 0 3.58 2.91 6.5 6.5 6.5 3.58 0 6.5-2.92 6.5-6.5 0-2.99-2.02-5.51-4.77-6.27 -.44-.12-.74-.52-.74-.97V5.97h-2Z"/><path d="M9.5 1C8.11 1 7 2.11 7 3.5 7 4.88 8.11 6 9.5 6h5C15.88 6 17 4.88 17 3.5 17 2.11 15.88 1 14.5 1h-5Z"/><path d="M10.26 8.23c-2 .54-3.61 2.02-4.34 3.93 1.63-.81 3.56-.75 5.15.16l2.81 1.61c1.01.58 2.25.61 3.3.09l1.2-.61c-.42-2.51-2.27-4.53-4.68-5.2l.53-1.93c3.59.99 6.23 4.28 6.23 8.19 0 4.69-3.81 8.5-8.5 8.5 -4.7 0-8.5-3.81-8.5-8.5 0-3.92 2.64-7.21 6.23-8.2l.53 1.92Z"/></g></svg>