<svg viewBox="0 0 24 24" xmlns="http://www.w3.org/2000/svg"><g fill-rule="evenodd"><path d="M6.7 18.7l-4 4 -1.42-1.42 4-4 1.41 1.41Z"/><path d="M8.29 21.7l-6-6 1.41-1.42 6 6 -1.42 1.41Z"/><path d="M19 1c-.27 0-.52.1-.71.29l-14.5 14.5c-.4.39-.4 1.02 0 1.41l3 3c.39.39 1.02.39 1.41 0L22.7 5.7c.18-.19.29-.45.29-.71v-3c0-.56-.45-1-1-1h-3Z"/><path d="M2 1c-.56 0-1 .44-1 1v5c0 .4.24.76.61.92 .37.15.8.06 1.08-.22l5-5c.28-.29.37-.72.21-1.09 -.16-.38-.52-.62-.93-.62h-5Z"/><path d="M15.5 14.5c-.56 0-1 .44-1 1v5c0 .26.1.51.29.7l1.5 1.5c.25.25.62.35.97.25 .34-.1.61-.38.7-.73l.85-3.42 3.41-.86c.34-.09.625-.36.72-.71 .09-.35-.01-.72-.26-.98l-1.5-1.5c-.19-.19-.45-.3-.71-.3h-5Z"/><path d="M5.2 3.79l5.99 6L9.77 11.2l-6-6 1.41-1.42Zm8.99 8.99l2.5 2.5 -1.42 1.41 -2.5-2.5 1.41-1.42Z"/></g></svg>