<svg viewBox="0 0 24 24" xmlns="http://www.w3.org/2000/svg"><path fill-rule="evenodd" d="M4 2c0-.56.44-1 1-1h14c.55 0 1 .44 1 1v20c0 .55-.45 1-1 1H5c-.56 0-1-.45-1-1V2Zm4.79 6.94c1.49-1.69 3.22-2.78 4.77-3.22 1.56-.45 2.78-.22 3.52.48 .75.7 1.1 1.96.8 3.63 -.3 1.64-1.2 3.52-2.69 5.2 -1.5 1.68-3.23 2.77-4.78 3.21 -1.57.44-2.79.21-3.53-.49 -.76-.71-1.11-1.97-.81-3.64 .29-1.65 1.19-3.53 2.68-5.21Zm9.66-4.19c-1.44-1.36-3.49-1.52-5.45-.96 -1.98.56-4.02 1.89-5.72 3.81 -1.7 1.91-2.8 4.12-3.17 6.18 -.37 2.03-.03 4.09 1.4 5.43 1.43 1.35 3.48 1.51 5.44.95 1.97-.57 4.01-1.9 5.71-3.82 1.69-1.92 2.79-4.13 3.16-6.19 .36-2.04.02-4.1-1.41-5.44Zm-6.47 5.24c-1.11 0-2 .89-2 2 0 .17.02.35.06.51l2.45-2.46c-.17-.05-.34-.07-.52-.07Zm1.93 1.48l-2.46 2.45c.16.04.33.06.51.06 1.1 0 2-.9 2-2 0-.18-.03-.36-.07-.52Zm-5.94.51c0-2.21 1.79-4 4-4 2.2 0 4 1.79 4 4 0 2.2-1.8 4-4 4 -2.21 0-4-1.8-4-4Z"/></svg>