<svg viewBox="0 0 24 24" xmlns="http://www.w3.org/2000/svg"><g fill-rule="evenodd"><path d="M6 7v10c0 .55.44 1 1 1h3v2H7c-1.66 0-3-1.35-3-3V7h2Zm12 3.5V7h2v3.5h-2Z"/><path d="M11.42 1.18c.34-.25.8-.25 1.14 0l10 7 -1.15 1.63 -9.43-6.6L2.55 9.8 1.4 8.16l10-7Z"/><path d="M20.41 14.57c-.76-.74-1.98-.77-2.78-.11 -.19.15-.42.23-.65.23 -.23 0-.46-.08-.65-.24 -.81-.67-2.02-.63-2.78.1 -.75.71-.78 1.84-.11 2.6 .01.01.02.02.03.04l3.48 3.38 3.48-3.39c.01-.02.02-.03.03-.05 .66-.76.63-1.89-.11-2.61Zm1.7 3.81c1.27-1.56 1.16-3.82-.31-5.25 -1.31-1.27-3.29-1.48-4.82-.64 -1.53-.85-3.51-.64-4.82.63 -1.48 1.43-1.58 3.69-.31 5.25 .04.06.08.12.14.17l4.27 4.15c.38.37 1 .37 1.39 0l4.27-4.16c.05-.06.1-.12.14-.18Z"/></g></svg>