<svg viewBox="0 0 24 24" xmlns="http://www.w3.org/2000/svg"><path fill-rule="evenodd" d="M12.27 4.05c-.11-.08-.26-.08-.37 0l-8.79 6.14c-.15.1-.18.29-.08.44 .1.14.29.17.44.07l.56-.4c.3-.22.7-.24 1.03-.07 .33.17.53.51.53.88v6.77c0 1.14.92 2.07 2.07 2.07h8.78c1.14 0 2.07-.93 2.07-2.08v-6.78c0-.38.2-.72.53-.89 .33-.18.72-.15 1.03.06l.56.39c.14.1.34.06.44-.08 .1-.15.06-.35-.08-.45L12.2 3.97Zm8.28 8.7c.83.11 1.69-.24 2.21-.97 .73-1.05.47-2.5-.57-3.23L13.4 2.4c-.8-.56-1.86-.56-2.66 0L1.95 8.54c-1.05.73-1.31 2.17-.57 3.22 .51.73 1.38 1.08 2.21.96v5.16c0 2.24 1.82 4.07 4.07 4.07h8.78c2.24 0 4.07-1.83 4.07-4.08V12.7Z"/></svg>