<svg viewBox="0 0 24 24" xmlns="http://www.w3.org/2000/svg"><g fill-rule="evenodd"><path d="M12.54 1.35l-.77.64 -.77-.65c.19-.23.47-.36.76-.36 .29 0 .57.13.76.35Zm-.77 2.23c-.11.13-.23.28-.35.44 -.68.86-1.57 2.06-2.47 3.38 -.9 1.32-1.78 2.74-2.44 4.06 -.68 1.35-1.04 2.48-1.04 3.24 0 3.46 2.8 6.27 6.27 6.27 3.46 0 6.27-2.81 6.27-6.28 0-.77-.37-1.89-1.04-3.25 -.66-1.33-1.54-2.75-2.44-4.07 -.9-1.32-1.79-2.52-2.47-3.39 -.13-.16-.24-.31-.35-.45Zm0-1.6C11 1.33 11 1.33 11 1.33l-.01 0 -.02.02 -.07.07c-.06.06-.14.16-.24.28 -.21.25-.5.61-.84 1.05 -.7.89-1.62 2.12-2.54 3.48 -.93 1.35-1.86 2.86-2.57 4.3 -.7 1.4-1.24 2.87-1.24 4.12 0 4.56 3.7 8.27 8.27 8.27 4.56 0 8.27-3.71 8.27-8.28 0-1.25-.55-2.73-1.24-4.13 -.72-1.439-1.65-2.95-2.57-4.31 -.93-1.37-1.85-2.6-2.54-3.49 -.35-.45-.64-.81-.84-1.06 -.11-.13-.19-.23-.24-.29l-.07-.08 -.02-.03 -.01-.01c-.01-.01 0 0-.77.64Z"/><path d="M13.09 15.93c-.59-.59-1.54-.59-2.13 0l-1.42-1.42c1.36-1.37 3.58-1.37 4.94 0l-1.42 1.41Z"/><path d="M14.864 14.17c-1.57-1.57-4.1-1.57-5.66 0l-1.42-1.42c2.34-2.35 6.14-2.35 8.48 0l-1.42 1.41Z"/><path d="M11.03 18v-1h2v1h-2Z"/></g></svg>