<svg viewBox="0 0 24 24" xmlns="http://www.w3.org/2000/svg"><g fill-rule="evenodd"><path d="M19.59 5.93c-.59-.59-1.54-.59-2.13 0l-1.42-1.42c1.36-1.37 3.58-1.37 4.94 0l-1.42 1.41Z"/><path d="M21.364 4.17c-1.57-1.57-4.1-1.57-5.66 0l-1.42-1.42c2.34-2.35 6.14-2.35 8.48 0l-1.42 1.41Z"/><path d="M17.53 8V7h2v1h-2Z"/><path d="M1 14c0-1.11.89-2 2-2h18c1.1 0 2 .89 2 2v7c0 1.1-.9 2-2 2H3c-1.11 0-2-.9-2-2v-7Zm20 0H3v7h18v-7Z"/><path d="M4 12c0-1.11.89-2 2-2h2c1.1 0 2 .89 2 2v1c0 .55-.45 1-1 1H5c-.56 0-1-.45-1-1v-1Z"/><path d="M15 12c0-1.11.89-2 2-2h1c1.1 0 2 .89 2 2v1c0 .55-.45 1-1 1h-3c-.56 0-1-.45-1-1v-1Z"/><path d="M3.5 16.5c0-1.11.89-2 2-2H6c1.1 0 2 .89 2 2v2c0 1.1-.9 2-2 2h-.5c-1.11 0-2-.9-2-2v-2Zm2.5 0h-.5v2H6v-2Z"/><path d="M16 16.5c0-1.11.89-2 2-2h.5c1.1 0 2 .89 2 2v2c0 1.1-.9 2-2 2H18c-1.11 0-2-.9-2-2v-2Zm2.5 0H18v2h.5v-2Z"/><path d="M11 19.5V19h2v.5h-2Z"/><path d="M8.5 19.5v-4h2v4h-2Z"/><path d="M13.5 19.5v-4h2v4h-2Z"/></g></svg>