<svg viewBox="0 0 24 24" xmlns="http://www.w3.org/2000/svg"><g fill-rule="evenodd"><path d="M19.59 5.93c-.59-.59-1.54-.59-2.13 0l-1.42-1.42c1.36-1.37 3.58-1.37 4.94 0l-1.42 1.41Z"/><path d="M21.364 4.17c-1.57-1.57-4.1-1.57-5.66 0l-1.42-1.42c2.34-2.35 6.14-2.35 8.48 0l-1.42 1.41Z"/><path d="M17.53 8V7h2v1h-2Z"/><path d="M1 11c0-.56.44-1 1-1h2.5c.55 0 1 .44 1 1v11c0 .55-.45 1-1 1H2c-.56 0-1-.45-1-1V11Zm2 1v9h.5v-9H3Z"/><path d="M18.5 11c0-.56.44-1 1-1H22c.55 0 1 .44 1 1v11c0 .55-.45 1-1 1h-2.5c-.56 0-1-.45-1-1V11Zm2 1v9h.5v-9h-.5Z"/><path d="M3.5 11.5c0-.56.44-1 1-1h15c.55 0 1 .44 1 1v10c0 .55-.45 1-1 1h-15c-.56 0-1-.45-1-1v-10Zm2 1v8h13v-8h-13Z"/><path d="M11 21.5v-10h2v10h-2Z"/><path d="M13.5 17.5v-2h2v2h-2Z"/><path d="M8.5 17.5v-2h2v2h-2Z"/></g></svg>