<svg viewBox="0 0 24 24" xmlns="http://www.w3.org/2000/svg"><g fill-rule="evenodd"><path d="M19.59 5.93c-.59-.59-1.54-.59-2.13 0l-1.42-1.42c1.36-1.37 3.58-1.37 4.94 0l-1.42 1.41Z"/><path d="M21.364 4.17c-1.57-1.57-4.1-1.57-5.66 0l-1.42-1.42c2.34-2.35 6.14-2.35 8.48 0l-1.42 1.41Z"/><path d="M17.53 8V7h2v1h-2Z"/><path d="M1 2c0-.56.44-1 1-1h10c.55 0 1 .44 1 1v20c0 .55-.45 1-1 1H2c-.56 0-1-.45-1-1V2Zm2 1v18h8V3H3Z"/><path d="M1 2c0-.56.44-1 1-1h10c.55 0 1 .44 1 1v3c0 .55-.45 1-1 1H2c-.56 0-1-.45-1-1V2Zm2 1v1h8V3H3Z"/><path d="M1 5c0-.56.44-1 1-1h10c.55 0 1 .44 1 1v3c0 .55-.45 1-1 1H2c-.56 0-1-.45-1-1V5Zm2 1v1h8V6H3Z"/><path d="M1 13c0-.56.44-1 1-1h10c.55 0 1 .44 1 1v9c0 .55-.45 1-1 1H2c-.56 0-1-.45-1-1v-9Zm2 1v7h8v-7H3Z"/><path d="M6 22v-9h2v9H6Z"/></g></svg>