<svg viewBox="0 0 24 24" xmlns="http://www.w3.org/2000/svg"><g fill="#9545ED" fill-rule="evenodd"><path d="M1 15c0-.56.44-1 1-1h4v2H3v1.5H1V15Z"/><path d="M7.5 10c0-.56.44-1 1-1h3c.55 0 1 .44 1 1v5c0 .55-.45 1-1 1h-3c-.56 0-1-.45-1-1v-5Zm2 1v3h1v-3h-1Z"/><g fill="#3747D6"><path d="M7.47 7.11C8.5 6.07 9.9 5.49 11.35 5.49H21.98c.55 0 1 .44 1 1v8.5c0 .55-.45 1-1 1h-1.5v-2h.5v-6.5H11.35c-.93 0-1.82.36-2.48 1.02L7 10.37c-.66.65-1.03 1.54-1.03 2.47v1.13h7v2h-8c-.56 0-1-.45-1-1v-2.14c0-1.46.57-2.86 1.61-3.89l1.86-1.87Z"/><path d="M19 14.5c-.28 0-.5.22-.5.5 0 .27.22.5.5.5 .27 0 .5-.23.5-.5 0-.28-.23-.5-.5-.5Zm-2.5.5c0-1.39 1.11-2.5 2.5-2.5 1.38 0 2.5 1.11 2.5 2.5 0 1.38-1.12 2.5-2.5 2.5 -1.39 0-2.5-1.12-2.5-2.5Z"/><path d="M14.5 14.5c-.28 0-.5.22-.5.5 0 .27.22.5.5.5 .27 0 .5-.23.5-.5 0-.28-.23-.5-.5-.5ZM12 15c0-1.39 1.11-2.5 2.5-2.5 1.38 0 2.5 1.11 2.5 2.5 0 1.38-1.12 2.5-2.5 2.5 -1.39 0-2.5-1.12-2.5-2.5Z"/></g><path d="M19.5 11H16V9h3.5v2Z"/></g></svg>