<svg viewBox="0 0 24 24" xmlns="http://www.w3.org/2000/svg"><g fill="#9545ED" fill-rule="evenodd"><path d="M15.03 4.75c.11-.45.51-.76.97-.76h5c.55 0 1 .44 1 1v.5h-1v.5h-4.22l-1.82 7.24 -1.95-.49 2-8.01Z"/><g fill="#3747D6"><path d="M7.29 8.29c.18-.19.44-.3.7-.3h4c.55 0 1 .44 1 1v8c0 .55-.45 1-1 1h-4v-2h3v-6H8.4l-2.71 2.7c-.19.18-.45.29-.71.29h-2v3h1v2h-2c-.56 0-1-.45-1-1v-4c0-1.11.89-2 2-2h1.58l2.7-2.71Z"/><path d="M23 13c0-.56-.45-1-1-1H12c-.56 0-1 .44-1 1v4c0 .55.44 1 1 1h3v-2h-2v-2h8v1.27l-2.32.77 .63 1.89 3-1c.4-.14.68-.52.68-.95v-3Z"/></g><path d="M6 16c-.56 0-1 .44-1 1 0 .55.44 1 1 1 .55 0 1-.45 1-1 0-.56-.45-1-1-1Zm-3 1c0-1.66 1.34-3 3-3 1.65 0 3 1.34 3 3 0 1.65-1.35 3-3 3 -1.66 0-3-1.35-3-3Z"/><path d="M17 16c-.56 0-1 .44-1 1 0 .55.44 1 1 1 .55 0 1-.45 1-1 0-.56-.45-1-1-1Zm-3 1c0-1.66 1.34-3 3-3 1.65 0 3 1.34 3 3 0 1.65-1.35 3-3 3 -1.66 0-3-1.35-3-3Z"/><path d="M20 6.51V4.99h2v2.5c0 .55-.45 1-1 1h-.75c-.14 0-.25.11-.25.25 0 .13.11.25.25.25H21v2h-.75C19 10.99 18 9.98 18 8.74c0-1.16.875-2.12 2-2.24Z"/></g></svg>