<svg viewBox="0 0 24 24" xmlns="http://www.w3.org/2000/svg"><g fill="#3747D6" fill-rule="evenodd"><path d="M12 10c-1.66 0-3 1.34-3 3 0 1.65 1.34 3 3 3 1.65 0 3-1.35 3-3 0-1.66-1.35-3-3-3Zm-5 3c0-2.77 2.23-5 5-5 2.76 0 5 2.23 5 5 0 2.76-2.24 5-5 5 -2.77 0-5-2.24-5-5Z"/><g fill="#9545ED"><path d="M19.5 18c-.28 0-.5.22-.5.5 0 .27.22.5.5.5 .27 0 .5-.23.5-.5 0-.28-.23-.5-.5-.5Zm-2.5.5c0-1.39 1.11-2.5 2.5-2.5 1.38 0 2.5 1.11 2.5 2.5 0 1.38-1.12 2.5-2.5 2.5 -1.39 0-2.5-1.12-2.5-2.5Z"/><path d="M4.5 18c-.28 0-.5.22-.5.5 0 .27.22.5.5.5 .27 0 .5-.23.5-.5 0-.28-.23-.5-.5-.5Zm-2.5.5C2 17.11 3.11 16 4.5 16 5.88 16 7 17.11 7 18.5 7 19.88 5.88 21 4.5 21 3.11 21 2 19.88 2 18.5Z"/><path d="M12 15.99l-9.96-.5 -.1 1.99 10 .5c.03 0 .06 0 .09 0l10-.5 -.1-2 -9.96.49Z"/></g><path d="M10.8 12.98l-2.5-.5 .39-1.97 2.4.48h1.8l2.4-.49 .39 1.96 -2.5.5c-.07.01-.14.01-.2.01h-2c-.07 0-.14-.01-.2-.02Z"/><path d="M13 4v5h-2V4h2Z"/><path d="M12.14 7.48l3.5-.5L15.35 5l-3.36.47 -3.36-.48 -.29 1.97 3.5.5 .14-.99 .14.98Z"/></g></svg>