<svg viewBox="0 0 24 24" xmlns="http://www.w3.org/2000/svg"><g fill="#9545ED" fill-rule="evenodd"><path d="M11.44 1.16c.28-.19.63-.22.94-.09l3.5 1.5c.23.09.41.28.51.5l4.5 9.99c.11.26.11.55 0 .82 -.12.26-.35.45-.62.54l-8 2.5c-.31.09-.64.03-.9-.15 -.26-.19-.41-.49-.41-.81v-14c0-.34.16-.65.44-.84Zm1.55 2.35v11.12l5.62-1.76 -3.88-8.62 -1.75-.75Z"/><path fill="#3747D6" d="M11.8 15.01c.12-.03.26-.03.39 0l5 1c.46.09.8.5.8.98v.96c0 1.63-1 3.1-2.52 3.71l-3.12 1.24c-.24.09-.51.09-.75 0l-3.12-1.25c-1.52-.61-2.52-2.08-2.52-3.72v-.97c0-.48.33-.89.8-.99l5-1Zm-3.81 2.8v.14c0 .81.49 1.55 1.25 1.85l2.74 1.09 2.74-1.1c.75-.31 1.25-1.04 1.25-1.86v-.15l-4-.8 -4 .8Z"/></g></svg>