<svg viewBox="0 0 24 24" xmlns="http://www.w3.org/2000/svg"><g fill-rule="evenodd"><path d="M12.75 4c0-.42.33-.75.75-.75H16c.41 0 .75.33.75.75v10.43c0 .41-.34.75-.75.75 -.42 0-.75-.34-.75-.75V4.74H13.5c-.42 0-.75-.34-.75-.75ZM16 17.57c.41 0 .75.33.75.75v1.67c0 .41-.34.75-.75.75h-2.5c-.42 0-.75-.34-.75-.75 0-.42.33-.75.75-.75h1.75v-.93c0-.42.33-.75.75-.75Z"/><path d="M11.25 4c0-.42-.34-.75-.75-.75H8c-.42 0-.75.33-.75.75v16c0 .41.33.75.75.75h2.5c.41 0 .75-.34.75-.75 0-.42-.34-.75-.75-.75H8.75V4.75h1.75c.41 0 .75-.34.75-.75Z"/></g></svg>