<svg viewBox="0 0 24 24" xmlns="http://www.w3.org/2000/svg"><g fill-rule="evenodd"><path d="M1.25 9c0-.97.78-1.75 1.75-1.75h13c.96 0 1.75.78 1.75 1.75v12c0 .96-.79 1.75-1.75 1.75h-2.2c-.42 0-.75-.34-.75-.75 0-.42.33-.75.75-.75h2.19c.13 0 .25-.12.25-.25V9c0-.14-.12-.25-.25-.25h-13c-.14 0-.25.11-.25.25v12c0 .13.11.25.25.25h6.73c.41 0 .75.33.75.75 0 .41-.34.75-.76.75H2.97c-.97 0-1.75-.79-1.75-1.75V9Z"/><path d="M6.25 4c0-.97.78-1.75 1.75-1.75h13c.96 0 1.75.78 1.75 1.75v12c0 .96-.79 1.75-1.75 1.75h-4c-.42 0-.75-.34-.75-.75V9c0-.14-.12-.25-.25-.25H7c-.42 0-.75-.34-.75-.75V4ZM8 3.75c-.14 0-.25.11-.25.25v3.25H16c.96 0 1.75.78 1.75 1.75v7.25H21c.13 0 .25-.12.25-.25V4c0-.14-.12-.25-.25-.25H8Z"/><path d="M1.25 9c0-.97.78-1.75 1.75-1.75h13c.96 0 1.75.78 1.75 1.75v4c0 .41-.34.75-.75.75H2c-.42 0-.75-.34-.75-.75V9ZM3 8.75c-.14 0-.25.11-.25.25v3.25h13.5V9c0-.14-.12-.25-.25-.25H3Z"/><path d="M6.25 4c0-.97.78-1.75 1.75-1.75h13c.96 0 1.75.78 1.75 1.75v4c0 .41-.34.75-.75.75H7c-.42 0-.75-.34-.75-.75V4ZM8 3.75c-.14 0-.25.11-.25.25v3.25h13.5V4c0-.14-.12-.25-.25-.25H8Z"/></g></svg>