<svg viewBox="0 0 24 24" xmlns="http://www.w3.org/2000/svg"><g fill-rule="evenodd"><path d="M2.25 3c0-.97.78-1.75 1.75-1.75h10.73c.41 0 .75.33.75.75 0 .41-.34.75-.75.75H3.99c-.14 0-.25.11-.25.25v3c0 .13.11.25.25.25h16c.13 0 .25-.12.25-.25V3c0-.14-.12-.25-.25-.25h-1.26c-.42 0-.75-.34-.75-.75 0-.42.33-.75.75-.75h1.25c.96 0 1.75.78 1.75 1.75v3c0 .96-.79 1.75-1.75 1.75h-16c-.97 0-1.75-.79-1.75-1.75V3Z"/><path d="M2.25 8c0-.97.78-1.75 1.75-1.75h16c.96 0 1.75.78 1.75 1.75v3c0 .96-.79 1.75-1.75 1.75H4c-.97 0-1.75-.79-1.75-1.75V8ZM4 7.75c-.14 0-.25.11-.25.25v3c0 .13.11.25.25.25h16c.13 0 .25-.12.25-.25V8c0-.14-.12-.25-.25-.25H4Z"/><path d="M4.75 4.5c0-.42.33-.75.75-.75h4c.41 0 .75.33.75.75 0 .41-.34.75-.75.75h-4c-.42 0-.75-.34-.75-.75Z"/><path d="M4.75 9.5c0-.42.33-.75.75-.75h4c.41 0 .75.33.75.75 0 .41-.34.75-.75.75h-4c-.42 0-.75-.34-.75-.75Z"/><path d="M12 11.25c.41 0 .75.33.75.75v7c0 .41-.34.75-.75.75 -.42 0-.75-.34-.75-.75v-7c0-.42.33-.75.75-.75Z"/><path d="M12.75 20.5c0-.42.33-.75.75-.75H20c.41 0 .75.33.75.75 0 .41-.34.75-.75.75h-6.5c-.42 0-.75-.34-.75-.75Z"/><path d="M3.25 20.5c0-.42.33-.75.75-.75h6.5c.41 0 .75.33.75.75 0 .41-.34.75-.75.75H4c-.42 0-.75-.34-.75-.75Z"/><path d="M12 19.75c-.42 0-.75.33-.75.75 0 .41.33.75.75.75 .41 0 .75-.34.75-.75 0-.42-.34-.75-.75-.75Zm-2.25.75c0-1.25 1-2.25 2.25-2.25 1.24 0 2.25 1 2.25 2.25 0 1.24-1.01 2.25-2.25 2.25 -1.25 0-2.25-1.01-2.25-2.25Z"/></g></svg>