<svg viewBox="0 0 24 24" xmlns="http://www.w3.org/2000/svg"><g fill-rule="evenodd"><path d="M2.25 8c0-.97.78-1.75 1.75-1.75h9.74c.41 0 .75.33.75.75 0 .41-.34.75-.75.75H3.99c-.14 0-.25.11-.25.25v3c0 .13.11.25.25.25h16c.13 0 .25-.12.25-.25V8c0-.14-.12-.25-.25-.25h-2.24c-.42 0-.75-.34-.75-.75 0-.42.33-.75.75-.75h2.23c.96 0 1.75.78 1.75 1.75v3c0 .96-.79 1.75-1.75 1.75h-16c-.97 0-1.75-.79-1.75-1.75V8Z"/><path d="M2.25 13c0-.97.78-1.75 1.75-1.75h16c.96 0 1.75.78 1.75 1.75v3c0 .96-.79 1.75-1.75 1.75H4c-.97 0-1.75-.79-1.75-1.75v-3ZM4 12.75c-.14 0-.25.11-.25.25v3c0 .13.11.25.25.25h16c.13 0 .25-.12.25-.25v-3c0-.14-.12-.25-.25-.25H4Z"/><path d="M4.75 9.5c0-.42.33-.75.75-.75h4c.41 0 .75.33.75.75 0 .41-.34.75-.75.75h-4c-.42 0-.75-.34-.75-.75Z"/><path d="M11.25 9.5c0-.42.33-.75.75-.75h4c.41 0 .75.33.75.75 0 .41-.34.75-.75.75h-4c-.42 0-.75-.34-.75-.75Z"/><path d="M4.75 14.5c0-.42.33-.75.75-.75h4c.41 0 .75.33.75.75 0 .41-.34.75-.75.75h-4c-.42 0-.75-.34-.75-.75Z"/><path d="M11.25 14.5c0-.42.33-.75.75-.75h4c.41 0 .75.33.75.75 0 .41-.34.75-.75.75h-4c-.42 0-.75-.34-.75-.75Z"/></g></svg>