<svg viewBox="0 0 24 24" xmlns="http://www.w3.org/2000/svg"><g fill-rule="evenodd"><path d="M2.25 4c0-1.52 1.23-2.75 2.75-2.75h8.78c.41 0 .75.33.75.75 0 .41-.34.75-.75.75H4.99c-.7 0-1.25.55-1.25 1.25v1c0 .69.55 1.25 1.25 1.25h14c.69 0 1.25-.56 1.25-1.25V4c0-.7-.56-1.25-1.25-1.25h-1.26c-.42 0-.75-.34-.75-.75 0-.42.33-.75.75-.75h1.25c1.51 0 2.75 1.23 2.75 2.75v1c0 1.51-1.24 2.75-2.75 2.75h-14C3.46 7.75 2.23 6.51 2.23 5V4Z"/><path d="M2.25 9c0-1.52 1.23-2.75 2.75-2.75h14c1.51 0 2.75 1.23 2.75 2.75v1c0 1.51-1.24 2.75-2.75 2.75H5c-1.52 0-2.75-1.24-2.75-2.75V9ZM5 7.75c-.7 0-1.25.55-1.25 1.25v1c0 .69.55 1.25 1.25 1.25h14c.69 0 1.25-.56 1.25-1.25V9c0-.7-.56-1.25-1.25-1.25H5Z"/><path d="M4.75 4.5c0-.42.33-.75.75-.75h6c.41 0 .75.33.75.75 0 .41-.34.75-.75.75h-6c-.42 0-.75-.34-.75-.75Z"/><path d="M4.75 9.5c0-.42.33-.75.75-.75h6c.41 0 .75.33.75.75 0 .41-.34.75-.75.75h-6c-.42 0-.75-.34-.75-.75Z"/><path d="M15.75 4.5c0-.42.33-.75.75-.75H18c.41 0 .75.33.75.75 0 .41-.34.75-.75.75h-1.5c-.42 0-.75-.34-.75-.75Z"/><path d="M15.75 9.5c0-.42.33-.75.75-.75H18c.41 0 .75.33.75.75 0 .41-.34.75-.75.75h-1.5c-.42 0-.75-.34-.75-.75Z"/><path d="M12 11.25c.41 0 .75.33.75.75v7c0 .41-.34.75-.75.75 -.42 0-.75-.34-.75-.75v-7c0-.42.33-.75.75-.75Z"/><path d="M12.75 20.5c0-.42.33-.75.75-.75H20c.41 0 .75.33.75.75 0 .41-.34.75-.75.75h-6.5c-.42 0-.75-.34-.75-.75Z"/><path d="M3.25 20.5c0-.42.33-.75.75-.75h6.5c.41 0 .75.33.75.75 0 .41-.34.75-.75.75H4c-.42 0-.75-.34-.75-.75Z"/><path d="M12 19.75c-.42 0-.75.33-.75.75 0 .41.33.75.75.75 .41 0 .75-.34.75-.75 0-.42-.34-.75-.75-.75Zm-2.25.75c0-1.25 1-2.25 2.25-2.25 1.24 0 2.25 1 2.25 2.25 0 1.24-1.01 2.25-2.25 2.25 -1.25 0-2.25-1.01-2.25-2.25Z"/></g></svg>