<svg viewBox="0 0 24 24" xmlns="http://www.w3.org/2000/svg"><g fill="#9545ED" fill-rule="evenodd"><path d="M16.5 16c-1.39 0-2.5 1.11-2.5 2.5 0 1.38 1.11 2.5 2.5 2.5 1.38 0 2.5-1.12 2.5-2.5 0-1.39-1.12-2.5-2.5-2.5ZM12 18.5c0-2.49 2.01-4.5 4.5-4.5 2.48 0 4.5 2.01 4.5 4.5 0 2.48-2.02 4.5-4.5 4.5 -2.49 0-4.5-2.02-4.5-4.5Z"/><path d="M21 4v14.5h-2V4h2Z"/><path d="M8.5 16v2.5c0 1.38 1.11 2.5 2.5 2.5h5.5v2H11c-2.49 0-4.5-2.02-4.5-4.5V16h2Z"/><path d="M5 5h5v2H5V5Z"/><g fill="#3747D6"><path d="M2.52 1.79c.09-.47.5-.8.97-.8h8c.47 0 .87.32.97.79l1.27 5.95c.17.82.17 1.68 0 2.51l-1.28 5.95c-.1.46-.51.79-.98.79H3.46c-.48 0-.879-.33-.98-.8L1.2 10.22c-.18-.83-.18-1.69 0-2.52l1.27-5.96Zm1.78 1.2L3.19 8.15c-.12.55-.12 1.12 0 1.67l1.1 5.16h6.38l1.1-5.17c.11-.56.11-1.13 0-1.68l-1.11-5.17H4.27Z"/><path d="M22 11h-4V9h4v2Z"/></g></g></svg>