<svg viewBox="0 0 24 24" xmlns="http://www.w3.org/2000/svg"><g fill="#9545ED" fill-rule="evenodd"><path d="M6.5 17.5c0 3.03 2.46 5.5 5.5 5.5 3.03 0 5.5-2.47 5.5-5.5V12c0-.56-.45-1-1-1h-9c-.56 0-1 .44-1 1v5.5ZM12 21c-1.94 0-3.5-1.57-3.5-3.5V13h7v4.5c0 1.93-1.57 3.5-3.5 3.5Z"/><path d="M13 6.5c0-.56-.45-1-1-1v-2c1.65 0 3 1.34 3 3h-2Z"/><path fill="#3747D6" d="M6.5 6.5C6.5 3.46 8.96 1 12 1c3.03 0 5.5 2.46 5.5 5.5V12c0 .55-.45 1-1 1h-9c-.56 0-1-.45-1-1V6.5ZM12 3c-1.94 0-3.5 1.56-3.5 3.5V11h7V6.5C15.5 4.56 13.93 3 12 3Z"/></g></svg>