<svg viewBox="0 0 24 24" xmlns="http://www.w3.org/2000/svg"><g fill="#3747D6" fill-rule="evenodd"><path d="M4.5 9.5C4.5 4.8 8.3 1 13 1c4.69 0 8.5 3.8 8.5 8.5 0 2.34-.96 4.47-2.5 6.01l.43 3.93c.08.75-.41 1.45-1.15 1.62l-7.51 1.76c-.89.2-1.76-.42-1.84-1.33l-.14-1.52H6.97c-1.11 0-2-.9-2-2v-2.1l-1.17-.3c-.91-.23-1.39-1.22-1.01-2.07l1.67-3.78c-.01-.1-.01-.19-.01-.28ZM13 3C9.41 3 6.5 5.91 6.5 9.5c0 .14 0 .28.01.42 .01.22-.05.43-.16.6L4.89 13.8l.96.24c.66.16 1.13.76 1.13 1.45v2.48h2.27c.77 0 1.42.59 1.49 1.36l.12 1.39 6.51-1.54 -.42-3.74c-.06-.5.13-.96.47-1.28 1.25-1.19 2.03-2.87 2.03-4.73 0-3.59-2.92-6.5-6.5-6.5Z"/><g fill="#9545ED"><path d="M9.59 11.29c-.01 0 0-.01 0-.02 -.01 0-.01.01-.01.01Zm.32-.52c.06-.08.13-.16.21-.25 .56-.6 1.47-1.32 2.61-1.97 1.13-.66 2.21-1.1 3.01-1.29 .11-.03.22-.05.31-.07 -.07.07-.14.15-.22.24 -.57.59-1.48 1.31-2.62 1.96 -1.14.65-2.22 1.09-3.02 1.28 -.12.02-.23.04-.32.06Zm6.76-3.58c-.01 0-.01-.01-.02-.01 0 0 .01 0 .01 0Zm-.29-.48c0-.01 0-.02 0-.02 0-.01-.01 0-.01.01Zm-7.07 4.08c-.01-.01-.02-.01-.02-.01 0-.01 0 0 .01 0Zm-.65-1.65c.73-.78 1.81-1.61 3.06-2.33 1.25-.73 2.51-1.25 3.55-1.5 .51-.13 1.02-.19 1.48-.15 .42.04 1.05.2 1.4.8 .34.59.17 1.22-.01 1.61 -.2.42-.51.83-.88 1.21 -.74.77-1.82 1.6-3.07 2.32 -1.26.72-2.52 1.24-3.56 1.49 -.52.12-1.03.18-1.49.14 -.43-.05-1.06-.21-1.41-.81 -.35-.6-.18-1.23 0-1.62 .19-.43.5-.84.87-1.22Z"/><path d="M16.4 11.29s-.01-.01-.01-.02c0 0 0 .01 0 .01Zm-.33-.52c-.07-.08-.14-.16-.22-.25 -.57-.6-1.48-1.32-2.62-1.97 -1.14-.66-2.22-1.1-3.02-1.29 -.12-.03-.23-.05-.32-.07 .06.07.13.15.21.24 .56.59 1.47 1.31 2.61 1.96 1.13.65 2.21 1.09 3.01 1.28 .11.02.22.04.31.06ZM9.3 7.19s0-.01.01-.01c-.01 0-.02 0-.02 0Zm.28-.48c-.01-.01-.01-.02-.01-.02 -.01-.01 0 0 0 .01Zm7.06 4.08c0-.01.01-.01.01-.01 -.01-.01-.01 0-.02 0Zm.64-1.65c-.74-.78-1.82-1.61-3.07-2.33 -1.26-.73-2.52-1.25-3.56-1.5 -.52-.13-1.03-.19-1.49-.15 -.43.04-1.06.2-1.41.8 -.35.59-.18 1.22 0 1.61 .19.42.5.83.87 1.21 .73.77 1.81 1.6 3.07 2.32 1.25.72 2.51 1.24 3.55 1.49 .51.12 1.02.18 1.48.14 .42-.05 1.05-.21 1.4-.81 .34-.6.17-1.23-.01-1.62 -.2-.43-.51-.84-.88-1.22Z"/></g></g></svg>