<svg viewBox="0 0 24 24" xmlns="http://www.w3.org/2000/svg"><g fill="#3747D6" fill-rule="evenodd"><path d="M8 5c0-.56.44-1 1-1h6c.55 0 1 .44 1 1v3.07c2.38 1.38 4 3.96 4 6.92 0 4.41-3.59 8-8 8 -4.42 0-8-3.59-8-8 0-2.97 1.61-5.55 4-6.93V4.98Zm2 1v2.67c0 .38-.23.73-.58.9 -2.03.96-3.43 3.03-3.43 5.42 0 3.31 2.68 6 6 6 3.31 0 6-2.69 6-6 0-2.4-1.4-4.459-3.43-5.43 -.35-.17-.58-.52-.58-.91V5.97h-4Z"/><path fill="#9545ED" d="M6.5 3.5C6.5 2.11 7.61 1 9 1h6c1.38 0 2.5 1.11 2.5 2.5C17.5 4.88 16.38 6 15 6H9C7.61 6 6.5 4.88 6.5 3.5ZM9 3c-.28 0-.5.22-.5.5 0 .27.22.5.5.5h6c.27 0 .5-.23.5-.5 0-.28-.23-.5-.5-.5H9Z"/></g></svg>