<svg viewBox="0 0 24 24" xmlns="http://www.w3.org/2000/svg"><g fill="#9545ED" fill-rule="evenodd"><path d="M13 8.86v6.13h2V8.85c0-1.46-.58-2.86-1.62-3.89l-.19-.19 -1.42 1.41 .18.18c.65.65 1.02 1.54 1.02 2.47Z"/><path fill="#3747D6" d="M12.99 19.77c-.57.5-1.43.5-2 0l-1.33-1.19c-.75-.67-1.18-1.62-1.18-2.62V8c0-1 .42-1.96 1.17-2.62l1.32-1.19c.56-.51 1.42-.51 1.99 0l1.32 1.18c.74.66 1.17 1.61 1.17 2.61v7.95c0 .99-.43 1.95-1.18 2.61l-1.33 1.18Zm-3.33 1.49c1.32 1.17 3.32 1.17 4.65 0l1.32-1.19c1.17-1.05 1.84-2.54 1.84-4.12V7.99c0-1.58-.68-3.07-1.846-4.12l-1.33-1.19c-1.33-1.18-3.33-1.18-4.66 0L8.3 3.86C7.12 4.9 6.45 6.39 6.45 7.97v7.95c0 1.57.67 3.067 1.846 4.11l1.32 1.18Z"/></g></svg>