<svg viewBox="0 0 24 24" xmlns="http://www.w3.org/2000/svg"><g fill="#9545ED" fill-rule="evenodd"><path d="M7 6.5C7 5.11 8.11 4 9.5 4h5C15.88 4 17 5.11 17 6.5 17 7.88 15.88 9 14.5 9h-5C8.11 9 7 7.88 7 6.5ZM9.5 6c-.28 0-.5.22-.5.5 0 .27.22.5.5.5h5c.27 0 .5-.23.5-.5 0-.28-.23-.5-.5-.5h-5Z"/><path d="M7 12c0-1.39 1.11-2.5 2.5-2.5h5c1.38 0 2.5 1.11 2.5 2.5 0 1.38-1.12 2.5-2.5 2.5h-5C8.11 14.5 7 13.38 7 12Zm2.5-.5c-.28 0-.5.22-.5.5 0 .27.22.5.5.5h5c.27 0 .5-.23.5-.5 0-.28-.23-.5-.5-.5h-5Z"/><path d="M7 17.5C7 16.11 8.11 15 9.5 15h5c1.38 0 2.5 1.11 2.5 2.5 0 1.38-1.12 2.5-2.5 2.5h-5C8.11 20 7 18.88 7 17.5Zm2.5-.5c-.28 0-.5.22-.5.5 0 .27.22.5.5.5h5c.27 0 .5-.23.5-.5 0-.28-.23-.5-.5-.5h-5Z"/><path fill="#3747D6" d="M4 4.5c0-1.66 1.34-3 3-3h10c1.65 0 3 1.34 3 3v15c0 1.65-1.35 3-3 3H7c-1.66 0-3-1.35-3-3v-15Zm3-1c-.56 0-1 .44-1 1v15c0 .55.44 1 1 1h10c.55 0 1-.45 1-1v-15c0-.56-.45-1-1-1H7Z"/></g></svg>