<svg viewBox="0 0 24 24" xmlns="http://www.w3.org/2000/svg"><g fill="#3747D6" fill-rule="evenodd"><path d="M4 3c-.56 0-1 .44-1 1v16c0 .55.44 1 1 1h7.5v2H4c-1.66 0-3-1.35-3-3V4c0-1.66 1.34-3 3-3h4.72c.75 0 1.47.28 2.02.78l4.77 4.37c.61.56.97 1.37.97 2.21v1.12h-2V8.35c0-.29-.12-.55-.33-.74L9.37 3.23c-.19-.17-.43-.27-.68-.27H3.96Z"/><path d="M8.5 5.5v-3h2v3c0 .55.44 1 1 1H15v2h-3.5c-1.66 0-3-1.35-3-3Z"/><path fill="#9545ED" d="M14 12c0-.56.44-1 1-1h4c.55 0 1 .44 1 1v2h2c.55 0 1 .44 1 1v4c0 .55-.45 1-1 1h-2v2c0 .55-.45 1-1 1h-4c-.56 0-1-.45-1-1v-2h-2c-.56 0-1-.45-1-1v-4c0-.56.44-1 1-1h2v-2Zm2 1v2c0 .55-.45 1-1 1h-2v2h2c.55 0 1 .44 1 1v2h2v-2c0-.56.44-1 1-1h2v-2h-2c-.56 0-1-.45-1-1v-2h-2Z"/></g></svg>