<svg viewBox="0 0 24 24" xmlns="http://www.w3.org/2000/svg"><g fill="#9545ED" fill-rule="evenodd"><path d="M8 5c.4 0 .77.24.92.62l3.04 7.6 2.09-5.59c.13-.36.44-.6.82-.65 .37-.05.73.12.94.43l1.7 2.55h3.96v2h-4.5c-.34 0-.65-.17-.84-.45l-.92-1.38 -2.32 6.17c-.15.38-.52.64-.93.64 -.42 0-.79-.25-.94-.63L7.94 8.63 6.86 11.3c-.16.37-.52.62-.93.62h-3.5v-2h2.82l1.74-4.38c.15-.38.51-.63.92-.63Z"/><path fill="#3747D6" d="M19.53 5.43c-1.89-1.83-4.9-1.92-6.88-.26 -.19.15-.43.23-.66.23 -.24 0-.47-.08-.66-.24 -1.99-1.66-5-1.57-6.88.25 -1.87 1.81-1.96 4.68-.27 6.58 .02.02.04.05.06.08l7.72 7.49 7.72-7.5c.02-.03.04-.06.06-.09 1.68-1.91 1.6-4.78-.27-6.59Zm1.89 7.76c2.25-2.71 2.08-6.69-.5-9.2 -2.44-2.36-6.19-2.64-8.924-.83 -2.74-1.81-6.5-1.54-8.93.82 -2.59 2.51-2.76 6.49-.5 9.19 .04.07.1.15.16.21l8.55 8.3c.38.37 1 .37 1.39 0l8.557-8.31c.06-.07.12-.14.16-.22Z"/></g></svg>