<svg viewBox="0 0 24 24" xmlns="http://www.w3.org/2000/svg"><g fill="#9545ED" fill-rule="evenodd"><path d="M14 7c0-.56.44-1 1-1h5.24c1.52 0 2.75 1.23 2.75 2.75 0 1.16-.74 2.2-1.84 2.59l-5.84 2.08c-.31.1-.65.06-.92-.13s-.43-.5-.43-.82v-5.5Zm2 1v3.08l4.49-1.61c.3-.11.5-.4.5-.72 0-.42-.35-.76-.76-.76h-4.25Z"/><path fill="#3747D6" d="M1 11.5C1 8.46 3.46 6 6.5 6H15c.55 0 1 .44 1 1v5.52c0 1.31-.859 2.48-2.12 2.86L2.29 18.94c-.31.09-.64.03-.89-.16 -.26-.19-.41-.49-.41-.81v-6.5ZM6.5 8C4.56 8 3 9.56 3 11.5v5.14l10.29-3.17c.41-.13.7-.52.7-.96V7.98h-7.5Z"/></g></svg>