<svg viewBox="0 0 24 24" xmlns="http://www.w3.org/2000/svg"><g fill="#3747D6" fill-rule="evenodd"><path d="M1 2c0-.56.44-1 1-1h4.9c.32 0 .63.16.82.43l1.5 2.19h10.27c.55 0 1 .44 1 1v2.375h-2V5.62h-9.8c-.33 0-.64-.17-.83-.44l-1.51-2.2H2.97v16h5v2h-6c-.56 0-1-.45-1-1v-18Z"/><path fill="#9545ED" d="M13 10c0-.56.44-1 1-1h4c.55 0 1 .44 1 1v3h3c.55 0 1 .44 1 1v4c0 .55-.45 1-1 1h-3v3c0 .55-.45 1-1 1h-4c-.56 0-1-.45-1-1v-3h-3c-.56 0-1-.45-1-1v-4c0-.56.44-1 1-1h3v-3Zm2 1v3c0 .55-.45 1-1 1h-3v2h3c.55 0 1 .44 1 1v3h2v-3c0-.56.44-1 1-1h3v-2h-3c-.56 0-1-.45-1-1v-3h-2Z"/></g></svg>