<svg viewBox="0 0 24 24" xmlns="http://www.w3.org/2000/svg"><g fill="#9545ED" fill-rule="evenodd"><path d="M3 2c0-.56.44-1 1-1h8c.55 0 1 .44 1 1v3.5c0 .55-.45 1-1 1H4c-.56 0-1-.45-1-1V2Zm2 1v1.5h6V3H5Z"/><path fill="#3747D6" d="M3.16 4.94c.18-.28.49-.45.83-.45h8c.33 0 .64.16.83.44l2 3c.1.16.16.35.16.55v13.5c0 .55-.45 1-1 1h-12c-.56 0-1-.45-1-1V8.48c0-.2.05-.4.16-.56l2-3Zm1.36 1.55l-1.54 2.3v12.19h10V8.78l-1.54-2.31H4.51Z"/><path d="M7 17v-5h2v5H7Z"/><path d="M10.5 15.5h-5v-2h5v2Z"/><g fill="#3747D6"><path d="M19 4c-.97 0-2 .96-2 2.5C17 8.03 18.03 9 19 9c.96 0 2-.97 2-2.5C21 4.96 19.96 4 19 4Zm-4 2.5C15 4.16 16.65 2 19 2c2.34 0 4 2.16 4 4.5 0 2.33-1.66 4.5-4 4.5 -2.35 0-4-2.17-4-4.5Z"/><path d="M18 22V10h2v12h-2Z"/></g></g></svg>