<svg viewBox="0 0 24 24" xmlns="http://www.w3.org/2000/svg"><g fill="#9545ED" fill-rule="evenodd"><path d="M21.2 1.29c.18.18.29.44.29.7v6c0 .33-.17.64-.45.83l-3 2c-.31.2-.71.22-1.03.04 -.33-.18-.53-.52-.53-.89v-8c0-.56.44-1 1-1h3c.26 0 .51.1.7.29Zm-1.71 1.7h-1v5.13l1-.67V2.98Z"/><path d="M15 6.5c.55 0 1 .44 1 1v3c0 .55-.45 1-1 1h-2v2c0 .55-.45 1-1 1H9c-.56 0-1-.45-1-1v-2H6c-.56 0-1-.45-1-1v-3c0-.56.44-1 1-1h2v-2c0-.56.44-1 1-1h3c.55 0 1 .44 1 1v2h2Zm-1 2h-2c-.56 0-1-.45-1-1v-2h-1v2c0 .55-.45 1-1 1H7v1h2c.55 0 1 .44 1 1v2h1v-2c0-.56.44-1 1-1h2v-1Z"/><path d="M15 17.5H6v-2h9v2Z"/><path d="M15 20.5H6v-2h9v2Z"/><path fill="#3747D6" d="M17.5 1c.55 0 1 .44 1 1v20c0 .55-.45 1-1 1h-14c-.56 0-1-.45-1-1V2c0-.27.1-.52.29-.71 .18-.19.44-.3.7-.3h14Zm-1 2h-12v18h12V3Z"/></g></svg>