<svg viewBox="0 0 24 24" xmlns="http://www.w3.org/2000/svg"><g fill="#3747D6" fill-rule="evenodd"><path d="M10.51 1.83c.08-.49.49-.84.98-.84h1c.48 0 .9.35.98.83l2.11 12.67c.3 1.82-1.11 3.49-2.96 3.49h-1.28c-1.86 0-3.27-1.67-2.96-3.5L10.49 1.8Zm1.48 3.24l-1.63 9.75c-.11.6.36 1.16.98 1.16h1.27c.61 0 1.08-.56.98-1.17l-1.63-9.76Z"/><path fill="#9545ED" d="M3 11V6.5h2V11c0 1.38 1.11 2.5 2.5 2.5h9c2.48 0 4.5 2.01 4.5 4.5v.5c0 2.48-2.02 4.5-4.5 4.5H4v-2h12.5c1.38 0 2.5-1.12 2.5-2.5V18c0-1.39-1.12-2.5-2.5-2.5h-9C5.01 15.5 3 13.48 3 11Z"/></g></svg>