<svg viewBox="0 0 24 24" xmlns="http://www.w3.org/2000/svg"><g fill="#3747D6" fill-rule="evenodd"><path d="M5.5 3.5C5.5 2.11 6.61 1 8 1h1.5c.55 0 1 .44 1 1v3c0 .55-.45 1-1 1H8C6.61 6 5.5 4.88 5.5 3.5ZM8 3c-.28 0-.5.22-.5.5 0 .27.22.5.5.5h.5V3H8Z"/><path d="M18.5 3.5C18.5 2.11 17.38 1 16 1h-1.5c-.56 0-1 .44-1 1v3c0 .55.44 1 1 1H16c1.38 0 2.5-1.12 2.5-2.5ZM16 3c.27 0 .5.22.5.5 0 .27-.23.5-.5.5h-.5V3h.5Z"/><g fill="#9545ED"><path d="M8.5 2c0-.56.44-1 1-1h5c.55 0 1 .44 1 1v3c0 .55-.45 1-1 1h-5c-.56 0-1-.45-1-1V2Zm2 1v1h3V3h-3Z"/><path d="M11 10V5h2v5h-2Z"/></g><path d="M9.5 20.5c0 1.38 1.11 2.5 2.5 2.5 1.38 0 2.5-1.12 2.5-2.5V10c0-.56-.45-1-1-1h-3c-.56 0-1 .44-1 1v10.5Zm2.5.5c-.28 0-.5-.23-.5-.5V11h1v9.5c0 .27-.23.5-.5.5Z"/></g></svg>