<svg viewBox="0 0 24 24" xmlns="http://www.w3.org/2000/svg"><g fill="#9545ED" fill-rule="evenodd"><path d="M14.79 1.79c.27-.28.69-.37 1.06-.23l6.5 2.5c.31.12.54.39.61.72 .07.33-.04.67-.28.91l-4 4c-.24.23-.59.34-.92.27 -.34-.08-.61-.31-.73-.62l-2.5-6.5c-.15-.37-.06-.79.22-1.07Zm2.44 2.44l1.13 2.96 1.82-1.83 -2.97-1.14Z"/><g fill="#3747D6"><path d="M7.03 20.83c-1 1.41-3.03 1.59-4.25.37 -1.23-1.23-1.05-3.26.37-4.25l8.26-5.79c.39-.28.93-.24 1.28.11 .34.34.39.88.11 1.28l-5.79 8.26ZM4.2 19.78c.34.34.91.29 1.19-.11l2.53-3.62 -3.62 2.53c-.4.27-.45.84-.11 1.19Z"/><path d="M17.707 7.7l-5 5 -1.42-1.42 5-5.01 1.41 1.41Z"/></g></g></svg>