<svg viewBox="0 0 24 24" xmlns="http://www.w3.org/2000/svg"><g fill="#9545ED" fill-rule="evenodd"><path d="M9 7c0-.56.44-1 1-1h4c.55 0 1 .44 1 1v2h2c.55 0 1 .44 1 1v4c0 .55-.45 1-1 1h-2v2c0 .55-.45 1-1 1h-4c-.56 0-1-.45-1-1v-2H7c-.56 0-1-.45-1-1v-4c0-.56.44-1 1-1h2V7Zm2 1v2c0 .55-.45 1-1 1H8v2h2c.55 0 1 .44 1 1v2h2v-2c0-.56.44-1 1-1h2v-2h-2c-.56 0-1-.45-1-1V8h-2Z"/><path fill="#3747D6" d="M11.47 1.15c.3-.2.69-.21 1.01-.03l4.27 2.37h3.74c.55 0 1 .44 1 1v9.64c0 2.12-1.13 4.09-2.96 5.17l-6.04 3.55c-.32.18-.71.18-1.02 0L5.43 19.3c-1.84-1.08-2.96-3.05-2.96-5.18V4.47c0-.56.44-1 1-1h4.21l3.75-2.348Zm.55 2l-3.5 2.18c-.16.09-.35.15-.53.15h-3.5v8.64c0 1.41.75 2.72 1.97 3.44l5.52 3.25 5.52-3.26c1.22-.72 1.97-2.04 1.97-3.45V5.45h-3c-.17 0-.34-.05-.49-.13L11.99 3.1Z"/></g></svg>