<svg viewBox="0 0 24 24" xmlns="http://www.w3.org/2000/svg"><g fill="#9545ED" fill-rule="evenodd"><path d="M12.94 7.31l-4 12 -1.9-.64 4-12 1.89.63Z"/><path d="M10.92 1.62c-.16-.38-.52-.63-.93-.63h-4v2h3.32l1.73 4.34 3.99 11.97 1.89-.64 -4-12c-.01-.02-.02-.04-.03-.06l-2-5Z"/><g fill="#3747D6"><path d="M5 17c-1.11 0-2 .89-2 2 0 1.1.89 2 2 2 1.1 0 2-.9 2-2 0-1.11-.9-2-2-2Zm-4 2c0-2.21 1.79-4 4-4 2.2 0 4 1.79 4 4 0 2.2-1.8 4-4 4 -2.21 0-4-1.8-4-4Z"/><path d="M19 17c-1.11 0-2 .89-2 2 0 1.1.89 2 2 2 1.1 0 2-.9 2-2 0-1.11-.9-2-2-2Zm-4 2c0-2.21 1.79-4 4-4 2.2 0 4 1.79 4 4 0 2.2-1.8 4-4 4 -2.21 0-4-1.8-4-4Z"/></g></g></svg>