<svg viewBox="0 0 24 24" xmlns="http://www.w3.org/2000/svg"><g fill="#9545ED" fill-rule="evenodd"><path d="M6.7 18.7l-4 4 -1.42-1.42 4-4 1.41 1.41Z"/><path d="M20.7 4.7l-4.5 4.5 -1.42-1.42 4.5-4.5 1.41 1.41Z"/><path d="M21.293 6.7l-4-4 1.41-1.42 4 4 -1.42 1.41Z"/><path d="M7.79 16.2l-1.5-1.5 1.41-1.42 1.5 1.5 -1.42 1.41Z"/><path d="M9.79 14.2l-1.5-1.5 1.41-1.42 1.5 1.5 -1.42 1.41Z"/><path fill="#3747D6" d="M12.29 5.29c.39-.4 1.02-.4 1.41 0l5 5c.39.39.39 1.02 0 1.41l-1.5 1.5c-.27.26-.67.36-1.03.24l-.92-.31 -5.57 5.56c-.19.18-.45.29-.71.29h-3c-.56 0-1-.45-1-1v-3c0-.27.1-.52.29-.71l5.56-5.57 -.31-.92c-.12-.36-.03-.76.24-1.03l1.5-1.5Zm.35 2.47l.3.91c.11.35.02.75-.25 1.02l-5.71 5.7v1.58h1.58l5.7-5.71c.26-.27.66-.37 1.02-.25l.91.3 .35-.36 -3.59-3.59 -.36.35Z"/></g></svg>