<svg viewBox="0 0 24 24" xmlns="http://www.w3.org/2000/svg"><g fill="#3747D6" fill-rule="evenodd"><path d="M7.22 4.21c-1.41-.39-2.74.8-2.52 2.23l2.02 12.84c.06.4.41.7.82.7 .38 0 .71-.27.8-.64l1.41-5.65c.25-1.02 1.16-1.73 2.21-1.73 1.04 0 1.95.71 2.21 1.72l1.41 5.64c.09.37.42.63.8.63 .41 0 .76-.3.82-.71l2.02-12.85c.22-1.44-1.11-2.63-2.52-2.24l-3.71 1.02c-.71.19-1.45.19-2.15 0L7.13 4.14ZM2.73 6.76C2.27 3.88 4.94 1.5 7.75 2.28l3.7 1.02c.35.09.72.09 1.07 0l3.7-1.03c2.8-.78 5.47 1.6 5.02 4.47l-2.03 12.84c-.22 1.37-1.41 2.39-2.8 2.39 -1.31 0-2.44-.89-2.75-2.15l-1.42-5.65c-.04-.125-.15-.22-.28-.22 -.13 0-.25.08-.28.21l-1.42 5.64c-.32 1.26-1.45 2.14-2.75 2.14 -1.4 0-2.59-1.02-2.8-2.4L2.68 6.69Z"/><path fill="#9545ED" d="M13.58 9.1l1.5-3.5 1.83.78 -.91 2.1h1.48c.33 0 .64.16.83.44 .18.28.21.63.08.94l-1.5 3.49 -1.84-.79 .9-2.11h-1.49c-.34 0-.65-.17-.84-.45 -.19-.29-.22-.64-.09-.95Z"/></g></svg>