<svg viewBox="0 0 24 24" xmlns="http://www.w3.org/2000/svg"><g fill="#9545ED" fill-rule="evenodd"><path d="M8.1 5.05c.22-.45.73-.66 1.21-.51l1.73.57c.61.2 1.28.2 1.89 0l1.73-.58c.47-.16.98.05 1.21.5l3 6c.12.25.14.56.02.82 -.12.26-.34.47-.61.56l-4.74 1.57c-1.03.34-2.14.34-3.17 0L5.63 12.4c-.28-.1-.5-.3-.61-.57 -.12-.27-.11-.58.02-.83l3-6.01Zm1.4 1.67l-2.1 4.19 3.64 1.21c.61.2 1.28.2 1.89 0l3.64-1.22 -2.1-4.2 -.92.3c-1.03.34-2.14.34-3.17 0l-.92-.31Z"/><g fill="#3747D6"><path d="M1 3c0-.56.44-1 1-1h20c.55 0 1 .44 1 1v13c0 .55-.45 1-1 1H2c-.56 0-1-.45-1-1V3Zm2 1v11h18V4H3Z"/><path d="M6.5 19.5h-2v-2h2v2Z"/><path d="M11 19.5H9v-2h2v2Z"/></g><path d="M1 16c0-.56.44-1 1-1h20c.55 0 1 .44 1 1v5c0 .55-.45 1-1 1H2c-.56 0-1-.45-1-1v-5Zm2 1v3h18v-3H3Z"/></g></svg>