<svg viewBox="0 0 24 24" xmlns="http://www.w3.org/2000/svg"><g fill="#9545ED" fill-rule="evenodd"><path d="M16 11c-2.77 0-5 2.23-5 5 0 2.76 2.23 5 5 5 2.76 0 5-2.24 5-5 0-2.77-2.24-5-5-5Zm-7 5c0-3.87 3.13-7 7-7 3.86 0 7 3.13 7 7 0 3.86-3.14 7-7 7 -3.87 0-7-3.14-7-7Z"/><g fill="#3747D6"><path d="M17 2c0-.56.44-1 1-1h4v2h-3v4.5h-2V2Z"/><path d="M3.5 9.5c0-.56.44-1 1-1H11v2H5.5V13H8v2H5.5v2h-2V9.5Z"/><path d="M7.25 4H18v2H7.25V4Z"/></g><path d="M4.5 18c-.83 0-1.5.67-1.5 1.5 0 .82.67 1.5 1.5 1.5 .82 0 1.5-.68 1.5-1.5 0-.83-.68-1.5-1.5-1.5ZM1 19.5C1 17.56 2.56 16 4.5 16 6.43 16 8 17.56 8 19.5 8 21.43 6.43 23 4.5 23 2.56 23 1 21.43 1 19.5Z"/></g></svg>