<svg viewBox="0 0 24 24" xmlns="http://www.w3.org/2000/svg"><g fill-rule="evenodd"><path d="M1.5 10.12c.31-.18.69-.18 1 .01l9.48 5.69 9.48-5.7c.3-.19.69-.2 1-.02 .31.17.5.5.5.87v11c0 .55-.45 1-1 1h-20c-.56 0-1-.45-1-1v-11c0-.37.19-.7.5-.88Zm1.49 2.63v8.23h18v-8.24l-8.49 5.09c-.32.19-.72.19-1.029 0l-8.49-5.1Z"/><path d="M6 12c0-.56.44-1 1-1h10c.55 0 1 .44 1 1v2h-2v-1H8v1H6v-2Z"/><path d="M7 9c0-.56.44-1 1-1h8c.55 0 1 .44 1 1v3h-2v-2H9v2H7V9Z"/><path d="M11.33 1.25c.38-.35.95-.35 1.33 0l10 8.99 -1.34 1.48 -9.34-8.4 -9.34 8.39 -1.34-1.49 10-9Z"/></g></svg>