<svg viewBox="0 0 24 24" xmlns="http://www.w3.org/2000/svg"><g fill-rule="evenodd"><path d="M17 3c-1.66 0-3 1.34-3 3 0 1.65 1.34 3 3 3 1.65 0 3-1.35 3-3 0-1.66-1.35-3-3-3Zm-5 3c0-2.77 2.23-5 5-5 2.76 0 5 2.23 5 5 0 2.76-2.24 5-5 5 -2.77 0-5-2.24-5-5Z"/><path d="M7 7c-1.66 0-3 1.34-3 3 0 1.65 1.34 3 3 3 1.65 0 3-1.35 3-3 0-1.66-1.35-3-3-3Zm-5 3c0-2.77 2.23-5 5-5 2.76 0 5 2.23 5 5 0 2.76-2.24 5-5 5 -2.77 0-5-2.24-5-5Z"/><path d="M16 8V4h2v4h-2Z"/><path d="M6 12V8h2v4H6Z"/><path d="M1 22v-4h2v3h18v-3h2v4c0 .55-.45 1-1 1H2c-.56 0-1-.45-1-1Z"/><path d="M16 19v-9h2v9h-2Z"/><path d="M6 19v-5h2v5H6Z"/><path d="M17 17.58l-2.3-2.3 -1.42 1.41 3 3c.39.39 1.02.39 1.41 0l3-3 -1.42-1.42 -2.3 2.29Z"/><path d="M7 17.58l-2.3-2.3 -1.42 1.41 3 3c.39.39 1.02.39 1.41 0l3-3 -1.42-1.42 -2.3 2.29Z"/></g></svg>