<svg viewBox="0 0 24 24" xmlns="http://www.w3.org/2000/svg"><g fill-rule="evenodd"><path d="M12 17c-1.11 0-2 .89-2 2 0 1.1.89 2 2 2 1.1 0 2-.9 2-2 0-1.11-.9-2-2-2Zm-4 2c0-2.21 1.79-4 4-4 2.2 0 4 1.79 4 4 0 2.2-1.8 4-4 4 -2.21 0-4-1.8-4-4Z"/><path d="M13 2v14h-2V2h2Z"/><path d="M11.293 1.29c.39-.4 1.02-.4 1.41 0l3 3 -1.42 1.41 -2.3-2.3 -2.3 2.29 -1.42-1.42 3-3Z"/><path d="M18.5 10c-3.04 0-5.5 2.46-5.5 5.5v.5h-2v-.5c0-4.15 3.35-7.5 7.5-7.5H22v2h-3.5Z"/><path d="M5.5 10c3.03 0 5.5 2.46 5.5 5.5v.5h2v-.5C13 11.35 9.64 8 5.5 8H2v2h3.5Z"/><path d="M19.7 5.29l3 3c.39.39.39 1.02 0 1.41l-3 2.99 -1.42-1.42 2.29-2.3 -2.3-2.3 1.41-1.42Z"/><path d="M4.29 5.29l-3 3c-.4.39-.4 1.02 0 1.41l3 2.99 1.41-1.42 -2.3-2.3 2.29-2.3 -1.42-1.42Z"/></g></svg>