<svg viewBox="0 0 24 24" xmlns="http://www.w3.org/2000/svg"><g fill-rule="evenodd"><path d="M4.5 9V7h3v2h-3Z"/><path d="M4.5 14v-2h3v2h-3Z"/><path d="M5 13V8h2v5H5Z"/><path d="M9.5 13V8h2v5h-2Z"/><path d="M9.5 8c0-.56.44-1 1-1h2c1.1 0 2 .89 2 2v1c0 1.1-.9 2-2 2h-2c-.56 0-1-.45-1-1V8Zm2 1v1h1V9h-1Z"/><path d="M15.5 9.5C15.5 8.11 16.61 7 18 7c1.38 0 2.5 1.11 2.5 2.5v2c0 1.38-1.12 2.5-2.5 2.5 -1.39 0-2.5-1.12-2.5-2.5v-2ZM18 9c-.28 0-.5.22-.5.5v2c0 .27.22.5.5.5 .27 0 .5-.23.5-.5v-2c0-.28-.23-.5-.5-.5Z"/><path d="M1 3c0-.56.44-1 1-1h20c.55 0 1 .44 1 1v15c0 .55-.45 1-1 1h-4.73l-4.77 2.85c-.32.19-.72.19-1.029 0L6.7 18.99h-4.73c-.56 0-1-.45-1-1v-15Zm2 1v13h4c.18 0 .35.04.51.14l4.48 2.69 4.48-2.7c.15-.1.33-.15.51-.15h4v-13h-18Z"/></g></svg>