<svg viewBox="0 0 24 24" xmlns="http://www.w3.org/2000/svg"><g fill-rule="evenodd"><path d="M12.5 7c-1.03 0-1.91.61-2.29 1.49 -.2.44-.68.67-1.15.57 -.19-.05-.38-.07-.57-.07 -1.27 0-2.32.94-2.48 2.16 -.06.44-.42.79-.86.85 -1.23.16-2.17 1.21-2.17 2.47 0 1.25.931 2.3 2.14 2.47 .04 0 .08.01.12.02h8.03c.44 0 .83.28.95.71l.77 2.57c.12.42.51.71.95.71h.32c.66 0 1.15-.65.95-1.29l-.43-1.43c-.1-.31-.04-.64.15-.89 .17-.24.44-.38.72-.41 .13-.04.27-.05.41-.03 .11.01.23.02.35.02 1.38 0 2.5-1.12 2.5-2.5 0-1.27-.95-2.32-2.17-2.48 -.45-.06-.8-.42-.86-.86 -.16-1.19-1.15-2.11-2.36-2.17 -.37-.02-.7-.24-.86-.58 -.41-.85-1.27-1.44-2.27-1.44Zm6.63 11.95l.05.18c.57 1.92-.87 3.86-2.88 3.86h-.33c-1.33 0-2.5-.87-2.88-2.14l-.56-1.87H4.97c-.16 0-.3-.04-.43-.1C2.49 18.45.96 16.64.96 14.47c0-2.04 1.34-3.75 3.19-4.31 .56-1.85 2.27-3.2 4.3-3.2 .08 0 .16 0 .25 0 .8-1.21 2.18-2.01 3.74-2.01 1.59 0 2.98.82 3.78 2.06 1.67.29 3.03 1.52 3.51 3.12 1.84.56 3.19 2.27 3.19 4.307 0 2.27-1.69 4.14-3.87 4.45Z"/><path d="M11.293 14.7l-3.01-3 1.41-1.42 2.29 2.29 2.29-2.3 1.41 1.41 -3 3c-.4.39-1.03.39-1.42 0Z"/><path d="M13 2v12h-2V2h2Z"/></g></svg>