<svg viewBox="0 0 24 24" xmlns="http://www.w3.org/2000/svg"><g fill-rule="evenodd"><path d="M11.59 4.58c.25-.12.55-.12.81 0l9 4c.36.16.59.51.59.91 0 .39-.24.75-.6.91l-9 4c-.26.11-.56.11-.82 0l-9.01-4c-.37-.17-.6-.52-.6-.92s.23-.76.59-.92l9-4ZM5.45 9.49l6.53 2.9 6.53-2.91 -6.54-2.91 -6.54 2.9Z"/><path d="M2 18V9.5h2v7.85l8 3.55 8-3.56V9.48h2v8.5c0 .39-.24.75-.6.91l-9 4c-.26.11-.56.11-.82 0l-9.01-4c-.37-.17-.6-.52-.6-.92Z"/><path d="M11.293 11.2l-2.01-2 1.41-1.42 1.29 1.29 1.29-1.3 1.41 1.41 -2 1.99c-.4.39-1.03.39-1.42 0Z"/><path d="M13 2v8h-2V2h2Z"/></g></svg>