<svg viewBox="0 0 24 24" xmlns="http://www.w3.org/2000/svg"><g fill-rule="evenodd"><path d="M6.29 2.29c.18-.19.44-.3.7-.3h11c.55 0 1 .44 1 1v19c0 .55-.45 1-1 1h-16c-.56 0-1-.45-1-1v-14c0-.27.1-.52.29-.71l5-5Zm1.12 1.7L2.99 8.4v12.58h14v-17H7.4Z"/><path d="M7.38 2.07c.37.15.61.51.61.92v5c0 .55-.45 1-1 1h-5c-.41 0-.77-.25-.93-.62 -.16-.38-.07-.81.21-1.09l5-5c.28-.29.71-.38 1.08-.22ZM4.41 6.99h1.58V5.4L4.4 6.98Z"/><path d="M11 12c-.56 0-1 .44-1 1 0 .55.44 1 1 1 .55 0 1-.45 1-1 0-.56-.45-1-1-1Zm-3 1c0-1.66 1.34-3 3-3 1.65 0 3 1.34 3 3 0 1.65-1.35 3-3 3 -1.66 0-3-1.35-3-3Z"/><path d="M12 9v2h-2V9h2Z"/><path d="M12 15v2h-2v-2h2Z"/><path d="M8.87 9.46l1.41 1.41 -1.42 1.41 -1.42-1.42 1.41-1.42Z"/><path d="M13.12 9.46l-1.42 1.41 1.41 1.41 1.41-1.42 -1.42-1.42Z"/><path d="M13.12 13.7l1.41 1.41 -1.42 1.41 -1.42-1.42 1.41-1.42Z"/><path d="M8.87 13.7l-1.42 1.41 1.41 1.41 1.41-1.42 -1.42-1.42Z"/><path d="M7 12h2v2H7v-2Z"/><path d="M13 12h2v2h-2v-2Z"/><path d="M17 4c0-1.66 1.34-3 3-3 1.65 0 3 1.34 3 3v16c0 1.65-1.35 3-3 3h-2c-.56 0-1-.45-1-1V4Zm3-1c-.56 0-1 .44-1 1v17h1c.55 0 1-.45 1-1V4c0-.56-.45-1-1-1Z"/></g></svg>