<svg viewBox="0 0 24 24" xmlns="http://www.w3.org/2000/svg"><g fill-rule="evenodd"><path d="M1 2c0-.56.44-1 1-1h20c.55 0 1 .44 1 1v16c0 .55-.45 1-1 1h-9v3c0 .38-.23.74-.58.9 -.36.16-.77.11-1.07-.14l-4.53-3.77H1.98c-.56 0-1-.45-1-1v-16Zm2 1v14h4.2c.23 0 .46.08.64.23l3.15 2.63v-1.87c0-.56.44-1 1-1h9v-14h-18Z"/><path d="M11.99 3.5c.32 0 .63.16.82.43l1.03 1.5 1.75.51c.31.09.56.33.66.65 .1.31.04.65-.16.91l-1.12 1.44 .05 1.82c0 .32-.15.64-.42.83 -.27.19-.62.24-.93.13l-1.73-.62 -1.73.61c-.32.11-.66.06-.93-.14s-.43-.51-.42-.84l.05-1.83 -1.12-1.45c-.21-.27-.27-.61-.16-.92 .1-.32.35-.56.66-.66l1.75-.52 1.03-1.51c.18-.28.49-.44.82-.44Zm0 2.76l-.41.59c-.13.18-.33.32-.55.39l-.7.2 .44.57c.14.18.21.4.2.63l-.02.72 .68-.25c.21-.08.45-.08.67 0l.68.24 -.02-.73c-.01-.23.06-.46.2-.64l.44-.58 -.7-.21c-.23-.07-.42-.21-.55-.4l-.41-.6Z"/><path d="M6.49 10c.32 0 .63.16.82.43l.68.99 1.15.34c.31.09.56.33.66.65 .1.31.04.65-.16.91l-.74.95 .03 1.2c0 .32-.15.64-.42.83 -.27.19-.62.24-.93.13l-1.14-.41 -1.14.4c-.32.11-.66.06-.93-.14s-.43-.51-.42-.84l.03-1.21 -.74-.96c-.21-.27-.27-.61-.16-.92 .1-.32.35-.56.66-.66l1.15-.35 .68-1c.18-.28.49-.44.82-.44Zm0 2.76l-.06.08c-.14.18-.33.32-.55.39l-.1.02 .06.07c.14.18.21.4.2.63l-.01.1 .09-.04c.21-.08.45-.08.67 0l.09.03 -.01-.11c-.01-.23.06-.46.2-.64l.06-.08 -.1-.03c-.23-.07-.42-.21-.55-.4l-.06-.09Z"/><path d="M17.49 10c.32 0 .63.16.82.43l.68.99 1.15.34c.31.09.56.33.66.65 .1.31.04.65-.16.91l-.74.95 .03 1.2c0 .32-.15.64-.42.83 -.27.19-.62.24-.93.13l-1.14-.41 -1.14.4c-.32.11-.66.06-.93-.14s-.43-.51-.42-.84l.03-1.21 -.74-.96c-.21-.27-.27-.61-.16-.92 .1-.32.35-.56.66-.66l1.15-.35 .68-1c.18-.28.49-.44.82-.44Zm0 2.76l-.06.08c-.13.18-.33.32-.55.39l-.1.02 .06.07c.14.18.21.4.2.63l-.01.1 .09-.04c.21-.08.45-.08.67 0l.09.03 -.01-.11c-.01-.23.06-.46.2-.64l.06-.08 -.1-.03c-.23-.07-.42-.21-.55-.4l-.06-.09Z"/></g></svg>