<svg viewBox="0 0 24 24" xmlns="http://www.w3.org/2000/svg"><g fill-rule="evenodd"><path d="M4 17.5c-.56 0-1 .44-1 1 0 .55.44 1 1 1 .55 0 1-.45 1-1 0-.56-.45-1-1-1Zm-3 1c0-1.66 1.34-3 3-3 1.65 0 3 1.34 3 3 0 1.65-1.35 3-3 3 -1.66 0-3-1.35-3-3Z"/><path d="M12 17.5c-.56 0-1 .44-1 1 0 .55.44 1 1 1 .55 0 1-.45 1-1 0-.56-.45-1-1-1Zm-3 1c0-1.66 1.34-3 3-3 1.65 0 3 1.34 3 3 0 1.65-1.35 3-3 3 -1.66 0-3-1.35-3-3Z"/><path d="M20 17.5c-.56 0-1 .44-1 1 0 .55.44 1 1 1 .55 0 1-.45 1-1 0-.56-.45-1-1-1Zm-3 1c0-1.66 1.34-3 3-3 1.65 0 3 1.34 3 3 0 1.65-1.35 3-3 3 -1.66 0-3-1.35-3-3Z"/><path d="M7 3.5c0-.56.44-1 1-1h8c.55 0 1 .44 1 1v5c0 .55-.45 1-1 1H8c-.56 0-1-.45-1-1v-5Zm2 1v3h6v-3H9Z"/><path d="M3 12.5c0-.56.44-1 1-1h16c.55 0 1 .44 1 1v4h-2v-3H5v3H3v-4Z"/><path d="M13 8.5v8h-2v-8h2Z"/></g></svg>