<svg viewBox="0 0 24 24" xmlns="http://www.w3.org/2000/svg"><g fill-rule="evenodd"><path d="M8.25 3c0-.42.33-.75.75-.75h.5c1.37 0 2.66.41 3.73 1.12 .34.22.43.69.2 1.03 -.23.34-.7.43-1.04.2 -.77-.51-1.68-.83-2.66-.87v16.48c2.78-.14 5-2.43 5-5.25v-6c0-.3-.03-.6-.08-.88 -.07-.41.2-.8.61-.87 .4-.07.79.2.86.61 .06.36.09.74.09 1.12v6c0 3.72-3.03 6.75-6.75 6.75h-.5c-.42 0-.75-.34-.75-.75v-18Z"/><path d="M21.75 12c0-.42-.34-.75-.75-.75H4c-.42 0-.75.33-.75.75 0 .41.33.75.75.75h17c.41 0 .75-.34.75-.75Z"/><path d="M22.08 12.46c.21-.28.21-.67 0-.94l-2-2.51c-.26-.33-.74-.38-1.06-.12 -.33.25-.38.73-.12 1.05l1.62 2.03L18.89 14c-.26.32-.21.79.11 1.05 .32.25.79.2 1.05-.12l2-2.5Z"/><path d="M5.08 12.46c.21-.28.21-.67 0-.94l-2-2.51c-.26-.33-.74-.38-1.06-.12 -.33.25-.38.73-.12 1.05l1.62 2.03L1.89 14c-.26.32-.21.79.11 1.05 .32.25.79.2 1.05-.12l2-2.5Z"/></g></svg>