<svg viewBox="0 0 24 24" xmlns="http://www.w3.org/2000/svg"><g fill-rule="evenodd"><path d="M4.25 11c0-3.73 3.02-6.75 6.75-6.75h2c3.72 0 6.75 3.02 6.75 6.75v10c0 .96-.79 1.75-1.75 1.75h-.75c-.42 0-.75-.34-.75-.75 0-.42.33-.75.75-.75H18c.13 0 .25-.12.25-.25V11c0-2.9-2.36-5.25-5.25-5.25h-2C8.1 5.75 5.75 8.1 5.75 11v10c0 .13.11.25.25.25h7.25c.41 0 .75.33.75.75 0 .41-.34.75-.75.75H6c-.97 0-1.75-.79-1.75-1.75V11Z"/><path d="M8.25 8c0-.42.33-.75.75-.75h6c.41 0 .75.33.75.75 0 .41-.34.75-.75.75H9c-.42 0-.75-.34-.75-.75Z"/><path d="M6.75 17c0-.42.33-.75.75-.75h9c.41 0 .75.33.75.75v2.5c0 .41-.34.75-.75.75h-9c-.42 0-.75-.34-.75-.75V17Zm1.5.75v1h7.5v-1h-7.5Z"/><path d="M8.44 3.96c.25-1.29 1.38-2.22 2.69-2.22h1.72c1.31 0 2.43.92 2.69 2.21l.17.89c.04.22-.02.44-.16.62 -.15.17-.36.27-.58.27h-6c-.23 0-.44-.11-.59-.28 -.15-.18-.2-.41-.16-.63l.17-.9Zm1.47.28h4.17c-.12-.59-.64-1-1.23-1h-1.73c-.6 0-1.11.41-1.23 1Z"/><path d="M17.75 8c0-.42.33-.75.75-.75H20c1.51 0 2.75 1.23 2.75 2.75v5c0 1.51-1.24 2.75-2.75 2.75h-1c-.42 0-.75-.34-.75-.75 0-.42.33-.75.75-.75h1c.69 0 1.25-.56 1.25-1.25v-5c0-.7-.56-1.25-1.25-1.25h-1.5c-.42 0-.75-.34-.75-.75Z"/><path d="M6.25 8c0-.42-.34-.75-.75-.75H4c-1.52 0-2.75 1.23-2.75 2.75v5c0 1.51 1.23 2.75 2.75 2.75h1c.41 0 .75-.34.75-.75 0-.42-.34-.75-.75-.75H4c-.7 0-1.25-.56-1.25-1.25v-5c0-.7.55-1.25 1.25-1.25h1.5c.41 0 .75-.34.75-.75Z"/></g></svg>