<svg viewBox="0 0 24 24" xmlns="http://www.w3.org/2000/svg"><g fill-rule="evenodd"><path d="M1.25 9.95c0-1.82 1.55-3.21 3.37-3.21 1.55 0 2.92 1.01 3.28 2.45h1.21c.41 0 .75.33.75.75 0 .41-.34.74-.75.74H7.23c-.42 0-.75-.34-.75-.75 0-.9-.8-1.71-1.88-1.71 -1.09 0-1.88.8-1.88 1.7 0 .56.3 1.09.81 1.4 .22.13.35.37.35.63 0 .25-.14.5-.36.63 -.51.31-.82.83-.82 1.4 0 .89.79 1.7 1.87 1.7s1.87-.81 1.87-1.71c0-.42.33-.75.75-.75h2.75c.41 0 .75.33.75.75 0 .41-.34.75-.75.75h-2.1c-.36 1.43-1.73 2.45-3.29 2.45 -1.82 0-3.38-1.39-3.38-3.21 0-.79.29-1.5.77-2.05 -.49-.55-.78-1.27-.78-2.05Z"/><path d="M20.125 16.5c0 .41-.34.75-.75.75 -1.56 0-2.93-1.02-3.29-2.46h-1.22c-.42 0-.75-.34-.75-.75 0-.42.33-.75.75-.75h1.87c.41 0 .75.33.75.75 0 .89.79 1.7 1.875 1.7 .41 0 .75.33.75.75ZM22 14.79c-.42 0-.75-.34-.75-.75 0-.57-.31-1.1-.82-1.41 -.23-.14-.36-.38-.36-.64s.13-.51.35-.64c.5-.32.81-.84.81-1.41 0-.9-.8-1.71-1.875-1.71 -1.09 0-1.875.8-1.875 1.7 0 .41-.34.74-.75.74h-2.75c-.42 0-.75-.34-.75-.75 0-.42.33-.75.75-.75h2.09c.35-1.44 1.72-2.46 3.28-2.46 1.81 0 3.375 1.38 3.375 3.2 0 .78-.3 1.49-.78 2.04 .48.54.77 1.26.77 2.04 0 .41-.34.75-.75.75Z"/><path d="M12.14 6.26c.4.08.66.47.58.88l-.83 4.1h1.08c.22 0 .43.1.58.27 .14.17.19.4.15.62l-1 5c-.09.4-.48.66-.89.58 -.41-.09-.67-.48-.59-.89l.82-4.11h-1.09c-.23 0-.44-.11-.58-.28 -.15-.18-.2-.41-.16-.63l1-5c.08-.41.47-.67.88-.59Z"/></g></svg>