<svg viewBox="0 0 24 24" xmlns="http://www.w3.org/2000/svg"><g fill-rule="evenodd"><path d="M6.25 19.5c0-.42.33-.75.75-.75h10c.41 0 .75.33.75.75V22c0 .41-.34.75-.75.75H7c-.42 0-.75-.34-.75-.75v-2.5Zm1.5.75v1h8.5v-1h-8.5Z"/><path d="M6.25 8c0-.42.33-.75.75-.75h10c.41 0 .75.33.75.75v2.5c0 .41-.34.75-.75.75H7c-.42 0-.75-.34-.75-.75V8Zm1.5.75v1h8.5v-1h-8.5Z"/><path d="M7.25 10.5c0-.42.33-.75.75-.75h8c.41 0 .75.33.75.75v2c0 .41-.34.75-.75.75 -.42 0-.75-.34-.75-.75v-1.25h-6.5v7.5h6.5V16.5c0-.42.33-.75.75-.75 .41 0 .75.33.75.75v3c0 .41-.34.75-.75.75H8c-.42 0-.75-.34-.75-.75v-9Z"/><path d="M12 2.75c-1.25 0-2.25 1-2.25 2.25 0 1.24 1 2.25 2.25 2.25 1.24 0 2.25-1.01 2.25-2.25 0-1.25-1.01-2.25-2.25-2.25ZM8.25 5c0-2.08 1.67-3.75 3.75-3.75 2.07 0 3.75 1.67 3.75 3.75 0 2.07-1.68 3.75-3.75 3.75 -2.08 0-3.75-1.68-3.75-3.75Z"/></g></svg>