<svg viewBox="0 0 24 24" xmlns="http://www.w3.org/2000/svg"><g fill-rule="evenodd"><path d="M8.5 8.75c-1.25 0-2.25 1-2.25 2.25v3c0 1.24 1 2.25 2.25 2.25h.66c.58 0 1.13-.3 1.45-.78l.17-.27c1.28-1.93 4.12-1.93 5.4 0l.17.26c.32.48.87.77 1.45.77h.66c1.24 0 2.25-1.01 2.25-2.25v-3c0-1.25-1.01-2.25-2.25-2.25h-.5c-.42 0-.75-.34-.75-.75 0-.42.33-.75.75-.75h.5c2.07 0 3.75 1.67 3.75 3.75v3c0 2.07-1.68 3.75-3.75 3.75h-.67c-1.09 0-2.11-.55-2.71-1.45l-.18-.27c-.7-1.04-2.22-1.04-2.92 0l-.18.26c-.61.9-1.62 1.44-2.71 1.44h-.67c-2.08 0-3.75-1.68-3.75-3.75v-3c0-2.08 1.67-3.75 3.75-3.75h5.5c.41 0 .75.33.75.75 0 .41-.34.75-.75.75h-5.5Z"/><path d="M2.5 1.25c.41 0 .75.33.75.75v12.5c0 2.62 2.12 4.75 4.75 4.75h3.5c.41 0 .75.33.75.75 0 .41-.34.75-.75.75H8c-3.46 0-6.25-2.8-6.25-6.25V2c0-.42.33-.75.75-.75Z"/><path d="M13.5 18.75c-.7 0-1.25.55-1.25 1.25 0 .69.55 1.25 1.25 1.25 .69 0 1.25-.56 1.25-1.25 0-.7-.56-1.25-1.25-1.25ZM10.75 20c0-1.52 1.23-2.75 2.75-2.75 1.51 0 2.75 1.23 2.75 2.75 0 1.51-1.24 2.75-2.75 2.75 -1.52 0-2.75-1.24-2.75-2.75Z"/></g></svg>