<svg viewBox="0 0 24 24" xmlns="http://www.w3.org/2000/svg"><g fill-rule="evenodd"><path d="M4.25 5c0-.42.33-.75.75-.75h6c.41 0 .75.33.75.75v2.5l4.23 1.78 2.64.62c1.24.29 2.12 1.4 2.12 2.67v.91c0 1.51-1.24 2.75-2.75 2.75h-12c-.97 0-1.75-.79-1.75-1.75v-1c0-.42.33-.75.75-.75 .41 0 .75.33.75.75v1c0 .13.11.25.25.25h12c.69 0 1.25-.56 1.25-1.25v-.92c0-.58-.4-1.09-.97-1.22l-2.71-.64c-.05-.01-.09-.03-.12-.04l-4.75-2c-.28-.12-.46-.39-.46-.7V5.71h-4.5v3.75c0 .41-.34.75-.75.75 -.42 0-.75-.34-.75-.75v-4.5Z"/><path d="M4.25 8c0-.42.33-.75.75-.75h6c.41 0 .75.33.75.75 0 .41-.34.75-.75.75H5c-.42 0-.75-.34-.75-.75Z"/><path d="M16.31 9.68c.29.29.29.76 0 1.06l-1.79 1.78c-.3.29-.77.29-1.07 0 -.3-.3-.3-.77 0-1.07l1.78-1.79c.29-.3.76-.3 1.06 0Z"/><path d="M13.2 8.29c.29.29.29.76 0 1.06l-1.68 1.67c-.3.29-.77.29-1.07 0 -.3-.3-.3-.77 0-1.07l1.67-1.68c.29-.3.76-.3 1.06 0Z"/><path d="M6 14.75c.41 0 .75.33.75.75V17c0 .41-.34.75-.75.75 -.42 0-.75-.34-.75-.75v-1.5c0-.42.33-.75.75-.75Z"/><path d="M10 14.75c.41 0 .75.33.75.75V17c0 .41-.34.75-.75.75 -.42 0-.75-.34-.75-.75v-1.5c0-.42.33-.75.75-.75Z"/><path d="M14 14.75c.41 0 .75.33.75.75V17c0 .41-.34.75-.75.75 -.42 0-.75-.34-.75-.75v-1.5c0-.42.33-.75.75-.75Z"/><path d="M18 14.75c.41 0 .75.33.75.75V17c0 .41-.34.75-.75.75 -.42 0-.75-.34-.75-.75v-1.5c0-.42.33-.75.75-.75Z"/></g></svg>