<svg viewBox="0 0 24 24" xmlns="http://www.w3.org/2000/svg"><g fill-rule="evenodd"><path d="M16.06 7.93c.29.29.29.76 0 1.06l-7.08 7.07c-.3.29-.77.29-1.07 0 -.3-.3-.3-.77 0-1.07l7.07-7.08c.29-.3.76-.3 1.06 0Z"/><path d="M8.99 11.116c.29-.3.76-.3 1.06 0l2.82 2.82c.29.29.29.76 0 1.06 -.3.29-.77.29-1.07 0l-2.83-2.83c-.3-.3-.3-.77 0-1.07Z"/><path d="M11.11 8.99c.29-.3.76-.3 1.06 0l2.82 2.82c.29.29.29.76 0 1.06 -.3.29-.77.29-1.07 0l-2.83-2.83c-.3-.3-.3-.77 0-1.07Z"/><path d="M19.91 10.64c.09-.41-.17-.81-.57-.9 -1.21-.28-2.343-.88-3.28-1.82 -.94-.94-1.54-2.08-1.82-3.28 -.1-.41-.5-.66-.9-.57 -.41.09-.66.49-.57.89 .33 1.46 1.07 2.86 2.21 4.01 1.14 1.14 2.54 1.88 4.01 2.21 .4.09.8-.17.89-.57Z"/><path d="M10.64 19.91c-.41.09-.81-.17-.9-.57 -.28-1.21-.88-2.343-1.82-3.28 -.94-.94-2.08-1.54-3.28-1.82 -.41-.1-.66-.5-.57-.9 .09-.41.49-.66.89-.57 1.46.33 2.86 1.07 4.01 2.21 1.14 1.14 1.88 2.54 2.21 4.01 .09.4-.17.8-.57.89Z"/><path d="M17.26 3.38c.91.12 1.76.43 2.33 1 .47.47.76 1.13.92 1.84 .16.72.19 1.55.12 2.44 -.16 1.76-.8 3.81-1.99 5.71 -.22.35-.69.45-1.04.23 -.36-.22-.46-.69-.24-1.04 1.06-1.7 1.62-3.52 1.76-5.05 .06-.77.03-1.45-.1-1.99 -.13-.55-.32-.92-.52-1.12 -.25-.25-.74-.48-1.49-.59 -.74-.11-1.65-.08-2.65.12 -2.01.39-4.29 1.44-6.13 3.28 -1.84 1.83-2.89 4.11-3.29 6.12 -.2 1-.23 1.91-.13 2.64 .1.75.33 1.23.58 1.48 .2.2.56.39 1.11.51 .54.12 1.21.15 1.98.09 1.53-.14 3.35-.7 5.04-1.77 .35-.22.81-.12 1.03.23 .21.35.11.81-.24 1.03 -1.9 1.18-3.95 1.82-5.72 1.98 -.89.07-1.72.04-2.45-.13 -.72-.16-1.38-.46-1.85-.93 -.58-.58-.89-1.43-1.01-2.34 -.14-.94-.09-2.02.14-3.15 .44-2.27 1.62-4.83 3.69-6.9C9.17 5 11.73 3.82 14 3.37c1.13-.23 2.21-.28 3.14-.15Z"/></g></svg>