<svg viewBox="0 0 24 24" xmlns="http://www.w3.org/2000/svg"><g fill-rule="evenodd"><path d="M6.71 14.97c-1.34.75-1.97 1.67-1.97 2.52 0 .85.62 1.77 1.96 2.52 1.31.74 3.18 1.22 5.28 1.22 .65 0 1.28-.05 1.89-.14 .41-.06.79.22.84.63 .05.4-.23.79-.64.84 -.68.09-1.39.14-2.11.14 -2.32 0-4.45-.53-6.03-1.42 -1.56-.88-2.73-2.21-2.73-3.84 0-1.64 1.16-2.97 2.72-3.84 1.57-.89 3.71-1.42 6.02-1.42 2.31 0 4.44.52 6.02 1.41 1.55.87 2.72 2.2 2.72 3.83 0 1.5-1 2.74-2.35 3.6 -.35.22-.82.11-1.04-.23 -.23-.35-.12-.82.22-1.04 1.13-.73 1.65-1.57 1.65-2.35 0-.86-.63-1.78-1.97-2.53 -1.32-.75-3.19-1.23-5.29-1.23 -2.11 0-3.98.48-5.29 1.22Z"/><path d="M11.61 1.35c.22-.14.5-.15.74-.02l6.5 3.5c.24.13.39.38.39.66 0 .27-.16.52-.4.66l-6.5 3.5c-.24.12-.52.11-.75-.02 -.23-.14-.37-.38-.37-.65v-7c0-.27.13-.51.36-.65Zm1.13 1.89v4.48l4.16-2.25 -4.17-2.25Z"/><path d="M12 1.25c.41 0 .75.33.75.75v16c0 .41-.34.75-.75.75 -.42 0-.75-.34-.75-.75V2c0-.42.33-.75.75-.75Z"/></g></svg>