<svg viewBox="0 0 24 24" xmlns="http://www.w3.org/2000/svg"><g fill-rule="evenodd"><path d="M4.79 2.12c.33-.18.75-.08.97.24l8.88 13.1h6.85c.41 0 .75.33.75.75v5c0 .19-.08.38-.22.53 -.15.14-.34.21-.54.21h-8.01c-.26 0-.5-.13-.63-.35L5.61 10.42c-.23-.35-.13-.82.22-1.04 .34-.23.81-.13 1.03.22l7 10.83h6.84v-3.5h-6.51c-.25 0-.49-.13-.63-.33L4.82 3.72l-1.34.7 .72 1.12c.22.34.12.81-.23 1.03 -.35.22-.82.12-1.04-.23L1.75 4.52c-.12-.18-.15-.4-.1-.6 .05-.21.18-.38.37-.48L4.67 2.03Z"/><path d="M19.2 2.12c-.34-.18-.76-.08-.98.24l-6.76 9.95c-.24.34-.15.8.19 1.04 .34.23.8.14 1.04-.2l6.37-9.41 1.33.7 -6.98 10.79c-.23.34-.13.81.22 1.03 .34.22.81.12 1.03-.23l7.42-11.49c.11-.18.14-.4.09-.6 -.06-.21-.19-.38-.375-.48L19.13 2.05Zm-8.79 13.1c-.35-.24-.81-.15-1.05.19l-.04.04H2.46c-.42 0-.75.33-.75.75v5c0 .19.07.38.21.53 .14.14.33.21.53.21h8c.25 0 .49-.13.62-.35l1.5-2.33c.22-.35.12-.82-.23-1.04 -.35-.23-.82-.13-1.04.22l-1.29 1.98H3.16v-3.5h6.5c.24 0 .48-.13.62-.33l.25-.38c.23-.35.14-.81-.2-1.05Z"/></g></svg>