<svg viewBox="0 0 24 24" xmlns="http://www.w3.org/2000/svg"><g fill-rule="evenodd"><path d="M12 2.75c-5.11 0-9.25 4.14-9.25 9.25 0 5.1 4.14 9.25 9.25 9.25 5.1 0 9.25-4.15 9.25-9.25 0-3.03-1.46-5.72-3.7-7.41 -.34-.25-.4-.72-.15-1.06 .24-.34.71-.4 1.05-.15 2.6 1.96 4.29 5.08 4.29 8.59 0 5.93-4.82 10.75-10.75 10.75 -5.94 0-10.75-4.82-10.75-10.75 0-5.94 4.81-10.75 10.75-10.75 .73 0 1.45.07 2.14.21 .4.08.66.47.58.88 -.09.4-.48.66-.89.58 -.6-.13-1.22-.19-1.86-.19Z"/><path d="M1.74 9.28c-.09-.41.18-.81.58-.89l5.99-1.2c2.42-.49 4.92-.49 7.35 0l5.99 1.19c.4.08.66.47.58.88 -.09.4-.48.66-.89.58l-6-1.2c-2.24-.45-4.54-.45-6.77 0l-6 1.19c-.41.08-.81-.19-.89-.59Z"/><path d="M1.72 14.85c0-.42.33-.75.75-.75h1.18c3.01 0 5.66 1.99 6.49 4.89l.66 2.31c.11.39-.12.81-.52.92 -.4.11-.82-.12-.93-.52l-.67-2.32c-.65-2.26-2.71-3.81-5.05-3.81H2.44c-.42 0-.75-.34-.75-.75Zm11.97 7.38c-.4-.12-.63-.53-.52-.93l.66-2.32c.82-2.9 3.47-4.9 6.49-4.9h1.18c.41 0 .75.33.75.75 0 .41-.34.75-.75.75h-1.19c-2.35 0-4.41 1.55-5.048 3.8l-.67 2.31c-.12.39-.53.62-.93.51Z"/><path d="M12 11.32c-.64 0-1.16.51-1.16 1.15 0 .63.51 1.15 1.15 1.15 .63 0 1.15-.52 1.15-1.16 0-.64-.52-1.16-1.16-1.16Zm-2.66 1.15c0-1.47 1.18-2.66 2.65-2.66 1.46 0 2.65 1.18 2.65 2.65 0 1.46-1.19 2.65-2.66 2.65 -1.47 0-2.66-1.19-2.66-2.66Z"/></g></svg>