<svg viewBox="0 0 24 24" xmlns="http://www.w3.org/2000/svg"><g fill-rule="evenodd"><path d="M12 2.75c-2.35 0-4.25 1.9-4.25 4.25 0 2.34 1.9 4.25 4.25 4.25 2.34 0 4.25-1.91 4.25-4.25 0-2.35-1.91-4.25-4.25-4.25ZM6.25 7c0-3.18 2.57-5.75 5.75-5.75 3.17 0 5.75 2.57 5.75 5.75 0 3.17-2.58 5.75-5.75 5.75 -3.18 0-5.75-2.58-5.75-5.75Z"/><path d="M2.25 18c0-2.63 2.12-4.75 4.75-4.75h10c2.62 0 4.75 2.12 4.75 4.75v2c0 1.51-1.24 2.75-2.75 2.75h-1.25c-.42 0-.75-.34-.75-.75 0-.42.33-.75.75-.75H19c.69 0 1.25-.56 1.25-1.25v-2c0-1.8-1.46-3.25-3.25-3.25H7c-1.8 0-3.25 1.45-3.25 3.25v2c0 .69.55 1.25 1.25 1.25h8.75c.41 0 .75.33.75.75 0 .41-.34.75-.75.75H5c-1.52 0-2.75-1.24-2.75-2.75v-2Z"/><path d="M8.31 13.68c.12-.27.38-.44.68-.44h5.99c.29 0 .55.17.68.43 .12.26.07.57-.12.8l-2.82 3.28v4.22c0 .41-.34.75-.75.75 -.42 0-.75-.34-.75-.75v-4.23L8.4 14.45c-.2-.23-.24-.54-.12-.81Zm3.68 2.66l1.36-1.6h-2.74l1.36 1.59Z"/></g></svg>