<svg viewBox="0 0 24 24" xmlns="http://www.w3.org/2000/svg" xmlns:xlink="http://www.w3.org/1999/xlink"><defs><path d="M11.54 5.38c.26.2.64.2.91 0l3-2.3c.32-.26.39-.73.14-1.06 -.26-.33-.73-.4-1.06-.15l-2.55 1.94 -2.55-1.95c-.33-.26-.8-.19-1.06.14 -.26.32-.19.79.14 1.05l2.99 2.29Z" id="a"/></defs><g fill-rule="evenodd"><path d="M12 4.25c.41 0 .75.33.75.75v4c0 .41-.34.75-.75.75 -.42 0-.75-.34-.75-.75V5c0-.42.33-.75.75-.75Z"/><path d="M12 2.75c-5.11 0-9.25 4.14-9.25 9.25 0 4.79 3.65 8.74 8.32 9.2 .41.04.71.4.67.82 -.05.41-.41.71-.83.67 -5.44-.54-9.68-5.13-9.68-10.7 0-5.94 4.81-10.75 10.75-10.75 5.93 0 10.75 4.81 10.75 10.75 0 4.81-3.17 8.88-7.53 10.25 -.4.12-.82-.1-.95-.5s.09-.82.49-.95c3.75-1.18 6.47-4.686 6.47-8.83 0-5.11-4.15-9.25-9.25-9.25Z"/><path d="M11.54 8.4c.26-.21.64-.21.91 0l2.64 2.02 3.59-1.61c.37-.17.82-.01.99.37 .16.37 0 .82-.38.99l-3.7 1.65 -.9 2.89 2.74 2.18c.32.25.37.72.12 1.05 -.26.32-.73.37-1.06.12l-2.95-2.34h-3.19L7.4 18.05c-.33.25-.8.2-1.06-.13s-.21-.8.12-1.06l2.74-2.19 -.91-2.92 -3.22-1.65c-.37-.19-.52-.65-.33-1.01 .18-.37.64-.52 1-.33l3.07 1.57 2.62-2.01Zm-1.68 3.16l.82 2.67h2.6l.82-2.68 -2.13-1.63 -2.13 1.62Z"/><use xlink:href="#a"/><use xlink:href="#a"/><path d="M7.72 17.35c-.06-.34-.33-.59-.67-.63l-3.49-.37c-.42-.05-.79.25-.83.66 -.05.41.25.78.66.82l2.91.3 .45 2.76c.06.4.45.68.86.61 .4-.07.68-.46.61-.87l-.55-3.34Z"/><path d="M16.17 17.35c.05-.34.32-.59.66-.63l3.51-.37c.41-.05.78.25.82.66 .04.41-.26.78-.67.82l-2.95.3 -.49 2.96c-.07.4-.46.68-.87.61 -.41-.07-.69-.46-.62-.87l.57-3.53Z"/><path d="M5.78 10.22c.28-.19.41-.54.31-.86L4.96 5.75c-.13-.4-.55-.62-.94-.5 -.4.12-.62.54-.5.93l.95 3.05 -2.7 1.72c-.35.22-.46.68-.23 1.03 .22.34.68.45 1.03.22l3.17-2.04Z"/><path d="M18.32 10.22c-.29-.19-.42-.54-.32-.86l1.12-3.61c.12-.4.54-.62.93-.5s.61.54.49.93l-.96 3.05 2.69 1.72c.34.22.45.68.22 1.03 -.23.34-.69.45-1.04.22l-3.18-2.04Z"/></g></svg>