<svg viewBox="0 0 24 24" xmlns="http://www.w3.org/2000/svg"><g fill-rule="evenodd"><path d="M3.3 6.98c-.42.39-.56.73-.56 1.01 0 .27.13.62.55 1.01 .41.39 1.05.77 1.9 1.12 1.7.68 4.1 1.11 6.79 1.11 2.69 0 5.09-.44 6.79-1.12 .85-.35 1.49-.73 1.9-1.13 .41-.4.55-.74.55-1.02s-.14-.63-.56-1.02c-.42-.4-1.06-.78-1.91-1.13 -1.71-.69-4.11-1.12-6.8-1.12 -2.7 0-5.1.43-6.8 1.11 -.86.34-1.5.72-1.91 1.12Zm1.34-2.52c1.91-.77 4.51-1.23 7.34-1.23s5.43.45 7.34 1.22c.95.38 1.78.85 2.37 1.42 .59.56 1.02 1.27 1.02 2.1 0 .82-.43 1.53-1.03 2.1 -.6.56-1.43 1.04-2.38 1.42 -1.92.76-4.52 1.22-7.35 1.22 -2.84 0-5.44-.46-7.35-1.23 -.96-.39-1.79-.86-2.38-1.43 -.6-.57-1.03-1.28-1.03-2.11 0-.83.42-1.54 1.02-2.11 .59-.57 1.42-1.05 2.37-1.43Z"/><path d="M6.06 10.255c-.27.24-.32.43-.32.54 0 .41-.34.75-.75.75 -.42 0-.75-.34-.75-.75 0-.66.33-1.22.78-1.64 .44-.43 1.05-.77 1.73-1.05 1.37-.56 3.22-.88 5.22-.88 2 0 3.85.32 5.22.87 .68.27 1.29.61 1.73 1.04 .44.42.78.97.78 1.63 0 .41-.34.75-.75.75 -.42 0-.75-.34-.75-.75 0-.12-.06-.3-.32-.55 -.27-.25-.69-.51-1.27-.74 -1.16-.47-2.81-.77-4.68-.77 -1.87 0-3.52.3-4.68.76 -.59.23-1.01.49-1.27.73Z"/><path d="M2 7.25c.41 0 .75.33.75.75v8c0 .27.13.62.55 1.01 .41.39 1.05.77 1.9 1.12 1.7.68 4.1 1.11 6.79 1.11 2.69 0 5.09-.44 6.79-1.12 .85-.35 1.49-.73 1.9-1.12 .41-.4.55-.74.55-1.02v-1c0-.42.33-.75.75-.75 .41 0 .75.33.75.75v1c0 .82-.43 1.53-1.03 2.1 -.6.56-1.43 1.04-2.38 1.42 -1.92.76-4.52 1.22-7.35 1.22 -2.84 0-5.44-.46-7.35-1.23 -.96-.39-1.79-.86-2.38-1.43 -.6-.57-1.03-1.28-1.03-2.11v-8c0-.42.33-.75.75-.75Zm20 0c.41 0 .75.33.75.75v3c0 .41-.34.75-.75.75 -.42 0-.75-.34-.75-.75V8c0-.42.33-.75.75-.75Z"/><path d="M7.75 15.5c0-.42.33-.75.75-.75h7c.41 0 .75.33.75.75v4c0 .41-.34.75-.75.75 -.42 0-.75-.34-.75-.75v-3.25h-5.5v3.25c0 .41-.34.75-.75.75 -.42 0-.75-.34-.75-.75v-4Z"/><path d="M12 3.25c.41 0 .75.33.75.75v4c0 .41-.34.75-.75.75 -.42 0-.75-.34-.75-.75V4c0-.42.33-.75.75-.75Z"/><path d="M20.53 5.46c.29.29.29.76 0 1.06l-2.84 2.83c-.3.29-.77.29-1.07 0 -.3-.3-.3-.77 0-1.07l2.83-2.84c.29-.3.76-.3 1.06 0Z"/><path d="M3.46 5.46c-.3.29-.3.76 0 1.06l2.85 2.85c.29.29.76.29 1.06 0 .29-.3.29-.77 0-1.07L4.51 5.44c-.3-.3-.77-.3-1.07 0Z"/></g></svg>