<svg viewBox="0 0 24 24" xmlns="http://www.w3.org/2000/svg"><g fill-rule="evenodd"><path d="M1.5 9.5c0-.42.33-.75.75-.75h6.5c.41 0 .75.33.75.75v11c0 .41-.34.75-.75.75h-6.5c-.42 0-.75-.34-.75-.75v-11Zm1.5.75v9.5h5v-9.5H3Z"/><path d="M8 3.5c0-.42.33-.75.75-.75h6.5c.41 0 .75.33.75.75V6c0 .41-.34.75-.75.75 -.42 0-.75-.34-.75-.75V4.25h-5v15.5h5V10c0-.42.33-.75.75-.75 .41 0 .75.33.75.75v10.5c0 .41-.34.75-.75.75h-6.5c-.42 0-.75-.34-.75-.75v-17Z"/><path d="M14.5 13.5c0-.42.33-.75.75-.75h6.5c.41 0 .75.33.75.75v7c0 .41-.34.75-.75.75h-6.5c-.42 0-.75-.34-.75-.75v-7Zm1.5.75v5.5h5v-5.5h-5Z"/></g></svg>