<svg viewBox="0 0 24 24" xmlns="http://www.w3.org/2000/svg"><path fill-rule="evenodd" d="M9.22 2.4c.18.14.29.36.29.59 0 .51.27 1.02.75 1.43 .48.41 1.12.65 1.72.65 1.16 0 2.1-.95 2.1-2.1 0-.23.1-.45.28-.59 .18-.15.41-.2.63-.14l4.14 1c.26.06.47.26.54.52l2 7c.06.22.01.46-.13.65 -.15.18-.37.29-.6.3l-2.76.02v1.22c0 .41-.34.75-.75.75 -.42 0-.75-.34-.75-.75v-5.5c0-.42.33-.75.75-.75 .41 0 .75.33.75.75v2.77l1.75-.02 -1.61-5.64 -2.92-.71c-.41 1.53-1.82 2.66-3.49 2.66 -.99 0-1.96-.4-2.69-1.01 -.51-.43-.93-1-1.15-1.65l-2.57.68 -1.62 5.64 1.75.01V7.4c0-.42.33-.75.75-.75 .41 0 .75.33.75.75v12.74h9.49V16.9c0-.42.33-.75.75-.75 .41 0 .75.33.75.75v3.98c0 .41-.34.75-.75.75h-11c-.42 0-.75-.34-.75-.75v-9.23l-2.76-.03c-.24-.01-.46-.12-.6-.31 -.15-.19-.19-.44-.13-.66l1.99-7c.07-.26.27-.46.52-.52l3.77-1c.22-.06.46-.02.64.13Z"/></svg>