<svg viewBox="0 0 24 24" xmlns="http://www.w3.org/2000/svg"><g fill-rule="evenodd"><path d="M12 2.75c-.97 0-1.75.78-1.75 1.75 0 .96.78 1.75 1.75 1.75 .96 0 1.75-.79 1.75-1.75 0-.97-.79-1.75-1.75-1.75ZM8.75 4.5c0-1.8 1.45-3.25 3.25-3.25 1.79 0 3.25 1.45 3.25 3.25 0 1.79-1.46 3.25-3.25 3.25 -1.8 0-3.25-1.46-3.25-3.25Z"/><path d="M6 13.75c-.97 0-1.75.78-1.75 1.75 0 .96.78 1.75 1.75 1.75 .96 0 1.75-.79 1.75-1.75 0-.97-.79-1.75-1.75-1.75ZM2.75 15.5c0-1.8 1.45-3.25 3.25-3.25 1.79 0 3.25 1.45 3.25 3.25 0 1.79-1.46 3.25-3.25 3.25 -1.8 0-3.25-1.46-3.25-3.25Z"/><path d="M18 13.75c-.97 0-1.75.78-1.75 1.75 0 .96.78 1.75 1.75 1.75 .96 0 1.75-.79 1.75-1.75 0-.42.33-.75.75-.75 .41 0 .75.33.75.75 0 1.79-1.46 3.25-3.25 3.25 -1.8 0-3.25-1.46-3.25-3.25 0-1.8 1.45-3.25 3.25-3.25 .41 0 .75.33.75.75 0 .41-.34.75-.75.75Z"/><path d="M1.25 21c0-2.08 1.67-3.75 3.75-3.75h2c2.07 0 3.75 1.67 3.75 3.75 0 .96-.79 1.75-1.75 1.75H3c-.97 0-1.75-.79-1.75-1.75ZM5 18.75c-1.25 0-2.25 1-2.25 2.25 0 .13.11.25.25.25h6c.13 0 .25-.12.25-.25 0-1.25-1.01-2.25-2.25-2.25H5Z"/><path d="M7.25 10c0-2.08 1.67-3.75 3.75-3.75h2c2.07 0 3.75 1.67 3.75 3.75 0 .96-.79 1.75-1.75 1.75H9c-.97 0-1.75-.79-1.75-1.75ZM11 7.75c-1.25 0-2.25 1-2.25 2.25 0 .13.11.25.25.25h6c.13 0 .25-.12.25-.25 0-1.25-1.01-2.25-2.25-2.25h-2Z"/><path d="M13.25 21c0-2.08 1.67-3.75 3.75-3.75h2c2.07 0 3.75 1.67 3.75 3.75 0 .96-.79 1.75-1.75 1.75h-6c-.97 0-1.75-.79-1.75-1.75ZM17 18.75c-1.25 0-2.25 1-2.25 2.25 0 .13.11.25.25.25h6c.13 0 .25-.12.25-.25 0-1.25-1.01-2.25-2.25-2.25h-2Z"/></g></svg>