<svg viewBox="0 0 24 24" xmlns="http://www.w3.org/2000/svg"><g fill-rule="evenodd"><path d="M12 2.75c-5.11 0-9.25 4.14-9.25 9.25 0 5.1 4.14 9.25 9.25 9.25 .63 0 1.25-.07 1.85-.19 .4-.09.8.17.88.58 .08.4-.18.8-.59.88 -.7.14-1.42.21-2.15.21 -5.94 0-10.75-4.82-10.75-10.75 0-5.94 4.81-10.75 10.75-10.75 5.93 0 10.75 4.81 10.75 10.75 0 3.51-1.69 6.63-4.3 8.59 -.34.24-.81.18-1.06-.15 -.25-.34-.19-.81.14-1.06 2.24-1.69 3.69-4.38 3.69-7.41 0-5.11-4.15-9.25-9.25-9.25Z"/><path d="M12.335 1.32c.37.18.52.63.33 1l-.72 1.42c-.42.82-.66 1.709-.74 2.6l1.17.06c3.68.21 7.16 2.05 9.4 4.98l.66.87c.25.32.18.79-.15 1.05 -.33.25-.8.18-1.06-.15l-.67-.88c-1.98-2.59-5.06-4.22-8.3-4.41l-1.07-.07c.09.81.33 1.62.71 2.37l.54 1.09 1.19.23s0 0 0 0c1.2.23 2.32.72 3.3 1.407 1.21.85 2.21 2 2.87 3.38l.68 1.43c.17.37.02.82-.36 1 -.38.17-.83.02-1.01-.36l-.69-1.44c-.43-.88-1.01-1.65-1.72-2.28l-.56 1.04c-1.59 2.97-4.34 5.227-7.55 6.2 -.4.12-.82-.11-.94-.5 -.13-.4.1-.82.49-.94 2.83-.87 5.26-2.86 6.66-5.48l.65-1.23c-.68-.39-1.41-.66-2.19-.82h-.01l-.99-.2 -.44.9s0 0 0 0c-.68 1.39-1.69 2.56-2.93 3.41 -.97.66-2.08 1.13-3.26 1.37l-1.56.3c-.41.08-.81-.19-.89-.6 -.09-.41.18-.81.59-.89l1.55-.31c.74-.15 1.45-.41 2.09-.77l-.59-.96c-1.92-3.16-2.38-7.07-1.24-10.58l.49-1.52c.12-.4.55-.61.94-.49 .39.12.6.55.48.94l-.5 1.51c-1.01 3.09-.61 6.55 1.08 9.32l.53.87c.74-.65 1.35-1.44 1.79-2.35v0l.52-1.11 -.55-1.1c-1.24-2.47-1.24-5.37 0-7.83l.71-1.43c.18-.38.63-.53 1-.34Z"/></g></svg>