<svg viewBox="0 0 24 24" xmlns="http://www.w3.org/2000/svg"><g fill-rule="evenodd"><path d="M12 3c-4.98 0-9 4.02-9 9 0 4.97 4.02 9 9 9 4.97 0 9-4.03 9-9 0-4.98-4.03-9-9-9ZM1 12C1 5.92 5.92 1 12 1c6.07 0 11 4.92 11 11 0 6.07-4.93 11-11 11C5.92 23 1 18.07 1 12Z"/><path d="M13.9 16c-.69 0-1.35.23-1.88.65l-1.41 1.12 -1.25-1.57 1.4-1.13c.88-.71 1.98-1.1 3.12-1.1h.65v2h-.66Z"/><path d="M16.55 10.07c-.34-.23-.78-.23-1.11 0l-.4.26 -1.11-1.67 .39-.27c1-.68 2.32-.68 3.32 0l.39.26 -1.11 1.66 -.4-.27Z"/><path d="M8.55 10.07c-.34-.23-.78-.23-1.11 0l-.4.26 -1.11-1.67 .39-.27c1-.68 2.32-.68 3.32 0l.39.26 -1.11 1.66 -.4-.27Z"/></g></svg>