<svg viewBox="0 0 24 24" xmlns="http://www.w3.org/2000/svg"><g fill-rule="evenodd"><path d="M12 3c-4.98 0-9 4.02-9 9 0 4.97 4.02 9 9 9 4.97 0 9-4.03 9-9 0-4.98-4.03-9-9-9ZM1 12C1 5.92 5.92 1 12 1c6.07 0 11 4.92 11 11 0 6.07-4.93 11-11 11C5.92 23 1 18.07 1 12Z"/><path d="M16.55 10.07c-.34-.23-.78-.23-1.11 0l-.4.26 -1.11-1.67 .39-.27c1-.68 2.32-.68 3.32 0l.39.26 -1.11 1.66 -.4-.27Z"/><path d="M8.55 10.07c-.34-.23-.78-.23-1.11 0l-.4.26 -1.11-1.67 .39-.27c1-.68 2.32-.68 3.32 0l.39.26 -1.11 1.66 -.4-.27Z"/><path d="M8.36 11.49l-.87.5 -.87-.51c.17-.31.5-.5.86-.5 .35 0 .68.18.86.49Zm-.87 2.64c-.13.26-.25.52-.34.75 -.07.16-.11.29-.14.4 -.03.09-.03.14-.04.14 -.01 0-.01-.01-.01-.01 0 .34.26.56.5.56 .23 0 .49-.22.49-.56 0-.01 0-.01 0-.01m-.5-1.3c.12.26.24.52.33.75 .06.16.1.29.13.4 .02.09.02.14.03.14 -.01 0 0 0 0 0m-.5-3.45c-.87-.51-.87-.51-.87-.51l-.01 0 -.02.02c-.02.02-.03.05-.06.08 -.05.07-.11.18-.18.31 -.15.26-.34.62-.54 1.016 -.2.38-.4.82-.56 1.22 -.14.36-.31.84-.31 1.26 0 1.37 1.08 2.56 2.5 2.56 1.41 0 2.5-1.19 2.5-2.57 0-.43-.17-.91-.31-1.27 -.16-.41-.36-.84-.56-1.23 -.2-.4-.39-.76-.54-1.016 -.08-.14-.14-.24-.18-.32 -.03-.04-.04-.07-.06-.09l-.02-.03 -.01-.01c-.01-.01-.01-.01-.87.5Z"/><path d="M13.34 16.28c-.85-.43-1.84-.43-2.69 0l-1.22.6 -.9-1.79 1.21-.61c1.4-.71 3.06-.71 4.47 0l1.21.6 -.9 1.78 -1.22-.61Z"/></g></svg>