<svg viewBox="0 0 24 24" xmlns="http://www.w3.org/2000/svg"><g fill-rule="evenodd"><path d="M8 8.5c-.28 0-.5.22-.5.5 0 .27.22.5.5.5 .27 0 .5-.23.5-.5 0-.28-.23-.5-.5-.5ZM5.5 9c0-1.39 1.11-2.5 2.5-2.5 1.38 0 2.5 1.11 2.5 2.5 0 1.38-1.12 2.5-2.5 2.5 -1.39 0-2.5-1.12-2.5-2.5Z"/><path d="M16 8.5c-.28 0-.5.22-.5.5 0 .27.22.5.5.5 .27 0 .5-.23.5-.5 0-.28-.23-.5-.5-.5Zm-2.5.5c0-1.39 1.11-2.5 2.5-2.5 1.38 0 2.5 1.11 2.5 2.5 0 1.38-1.12 2.5-2.5 2.5 -1.39 0-2.5-1.12-2.5-2.5Z"/><path d="M12 3c-4.98 0-9 4.02-9 9 0 4.97 4.02 9 9 9 4.97 0 9-4.03 9-9 0-4.98-4.03-9-9-9ZM1 12C1 5.92 5.92 1 12 1c6.07 0 11 4.92 11 11 0 6.07-4.93 11-11 11C5.92 23 1 18.07 1 12Z"/><path d="M14 18h-4v-2h4v2Z"/><path d="M6.7 13.7l-1 1 -1.42-1.42 1-1 1.41 1.41Z"/><path d="M16.7 13.7l-1 1 -1.42-1.42 1-1 1.41 1.41Z"/><path d="M9.7 13.7l-1 1 -1.42-1.42 1-1 1.41 1.41Z"/><path d="M19.7 13.7l-1 1 -1.42-1.42 1-1 1.41 1.41Z"/></g></svg>