<svg viewBox="0 0 24 24" xmlns="http://www.w3.org/2000/svg"><g fill-rule="evenodd"><path d="M12 3c-4.98 0-9 4.02-9 9 0 4.97 4.02 9 9 9 4.97 0 9-4.03 9-9 0-4.98-4.03-9-9-9ZM1 12C1 5.92 5.92 1 12 1c6.07 0 11 4.92 11 11 0 6.07-4.93 11-11 11C5.92 23 1 18.07 1 12Z"/><path d="M17.37 9.92l-2.5 1 -.75-1.86 2.5-1 .74 1.85Z"/><path d="M6.62 9.92l2.5 1 .74-1.86 -2.5-1 -.75 1.85Z"/><path d="M7 17c0 .55.44 1 1 1h8c.55 0 1-.45 1-1 0-2.77-2.24-5-5-5 -2.77 0-5 2.23-5 5Zm2.17-1c.41-1.17 1.52-2 2.82-2 1.3 0 2.41.83 2.82 2H9.15Z"/><path d="M3 2v.6c0 .41.26.79.65.93l1.42.51 -.69 1.87 -1.43-.52C1.76 4.95.98 3.83.98 2.57v-.61h2Z"/><path d="M21 2v.61c0 .41-.26.78-.65.93l-1.37.51 .7 1.87 1.36-.52c1.17-.44 1.94-1.56 1.94-2.81v-.62h-2Z"/></g></svg>