<svg viewBox="0 0 24 24" xmlns="http://www.w3.org/2000/svg"><g fill-rule="evenodd"><path d="M12 3c-4.98 0-9 4.02-9 9 0 4.97 4.02 9 9 9 4.97 0 9-4.03 9-9 0-4.98-4.03-9-9-9ZM1 12C1 5.92 5.92 1 12 1c6.07 0 11 4.92 11 11 0 6.07-4.93 11-11 11C5.92 23 1 18.07 1 12Z"/><path d="M13.9 8.2l2-1.5 1.2 1.6 -.94.7 .93.7 -1.2 1.59 -2-1.5c-.26-.19-.4-.49-.4-.8 0-.32.14-.62.4-.8Z"/><path d="M10.1 8.2l-2-1.5 -1.2 1.6 .93.7 -.94.7 1.2 1.59 2-1.5c.25-.19.4-.49.4-.8 0-.32-.15-.62-.4-.8Z"/><path d="M15.5 16.5h-7v-2h7v2Z"/></g></svg>