<svg viewBox="0 0 24 24" xmlns="http://www.w3.org/2000/svg"><path fill-rule="evenodd" d="M1 12C1 5.92 5.92 1 12 1c6.07 0 11 4.92 11 11 0 6.07-4.93 11-11 11C5.92 23 1 18.07 1 12Zm11.029 4.65c.532-.43 1.19-.66 1.87-.66h.65v-2h-.66c-1.14 0-2.24.38-3.13 1.09l-1.41 1.12 1.24 1.56 1.4-1.13Zm4.52-6.59c-.34-.23-.78-.23-1.11 0l-.4.26 -1.11-1.67 .39-.27c1-.68 2.32-.68 3.32 0l.39.26 -1.11 1.66 -.4-.27Zm-9.11 0c.33-.23.77-.23 1.1 0l.39.26 1.1-1.67 -.4-.27c-1.01-.68-2.33-.68-3.33 0l-.4.26 1.1 1.66 .39-.27Z"/></svg>