<svg viewBox="0 0 24 24" xmlns="http://www.w3.org/2000/svg"><g fill-rule="evenodd"><path d="M12 3c4.97 0 9 4.02 9 9 0 4.97-4.03 9-9 9 -4.98 0-9-4.03-9-9 0-.62.06-1.22.18-1.81l-1.97-.4c-.15.71-.23 1.44-.23 2.19 0 6.07 4.92 11 11 11 6.07 0 11-4.93 11-11 0-6.08-4.93-11-11-11 -1.57 0-3.06.32-4.41.91l.8 1.83c1.1-.49 2.31-.75 3.59-.75Z"/><path d="M3.5 2l-.87-.51c.17-.31.5-.5.86-.5 .35 0 .68.18.86.49l-.87.5Zm0 0c-.87-.51-.87-.51-.87-.51l-.01 0 -.01 0 -.01 0 -.01 0 -.02.02c-.02.02-.03.05-.06.08 -.05.07-.11.18-.18.31 -.15.26-.34.62-.54 1.01 -.2.38-.4.82-.56 1.22 -.14.36-.31.84-.31 1.26 0 1.37 1.08 2.56 2.5 2.56 1.41 0 2.5-1.19 2.5-2.57 0-.43-.17-.91-.31-1.27 -.16-.41-.36-.84-.56-1.23 -.2-.4-.39-.76-.54-1.02 -.08-.14-.14-.24-.18-.32 -.03-.04-.04-.07-.06-.09l-.02-.03 -.01-.01 -.01-.01 -.01-.01 -.01-.01c-.01-.01-.01-.01-.87.5Z"/><path d="M13.34 18.28c-.85-.43-1.84-.43-2.69 0l-1.22.6 -.9-1.79 1.21-.61c1.4-.71 3.06-.71 4.47 0l1.21.6 -.9 1.78 -1.22-.61Z"/><path d="M16.55 10.92c-.34.22-.78.22-1.11 0l-.4-.27 -1.11 1.66 .39.26c1 .67 2.32.67 3.32 0l.39-.27 -1.11-1.67 -.4.26Z"/><path d="M8.55 10.92c-.34.22-.78.22-1.11 0l-.4-.27 -1.11 1.66 .39.26c1 .67 2.32.67 3.32 0l.39-.27 -1.11-1.67 -.4.26Z"/></g></svg>