<svg viewBox="0 0 24 24" xmlns="http://www.w3.org/2000/svg"><path fill-rule="evenodd" d="M1 12C1 5.92 5.92 1 12 1c6.07 0 11 4.92 11 11 0 6.07-4.93 11-11 11C5.92 23 1 18.07 1 12Zm14.44-1.93c.33-.23.77-.23 1.1 0l.39.26 1.1-1.67 -.4-.27c-1.01-.68-2.33-.68-3.33 0l-.4.26 1.1 1.66 .39-.27Zm-6.9 0c-.34-.23-.78-.23-1.11 0l-.4.26 -1.11-1.67 .39-.27c1-.68 2.32-.68 3.32 0l.39.26 -1.11 1.66 -.4-.27Zm-.2 1.42l-.87.5 -.87-.51c.17-.31.5-.5.86-.5 .35 0 .68.18.86.49Zm-.87.5c-.87-.51-.87-.51-.87-.51l-.01 0 -.01 0 -.01 0 -.01 0 -.02.02c-.02.02-.03.05-.06.08 -.05.07-.11.18-.18.31 -.15.26-.34.62-.54 1.01 -.2.38-.4.82-.56 1.22 -.14.36-.31.84-.31 1.26 0 1.37 1.08 2.56 2.5 2.56 1.41 0 2.5-1.19 2.5-2.57 0-.43-.17-.91-.31-1.27 -.16-.41-.36-.84-.56-1.23 -.2-.4-.39-.76-.54-1.02 -.08-.14-.14-.24-.18-.32 -.03-.04-.04-.07-.06-.09l-.02-.03 -.01-.01 -.01-.01 -.01-.01 -.01-.01c-.01 0-.01-.01-.87.5Zm5.84 4.28c-.85-.43-1.84-.43-2.69 0l-1.22.6 -.9-1.79 1.21-.61c1.4-.71 3.06-.71 4.47 0l1.21.6 -.9 1.78 -1.22-.61Z"/></svg>