<svg viewBox="0 0 24 24" xmlns="http://www.w3.org/2000/svg"><g fill-rule="evenodd"><path d="M3 2v.6c0 .41.26.79.65.93l1.42.51 -.69 1.87 -1.43-.52C1.76 4.95.98 3.83.98 2.57v-.61h2Z"/><path d="M21 2v.61c0 .41-.26.78-.65.93l-1.37.51 .7 1.87 1.36-.52c1.17-.44 1.94-1.56 1.94-2.81v-.62h-2Z"/><path d="M1 12C1 5.92 5.92 1 12 1c6.07 0 11 4.92 11 11 0 6.07-4.93 11-11 11C5.92 23 1 18.07 1 12Zm13.87-1.08l2.5-1.01 -.75-1.86 -2.5 1 .74 1.85ZM6.62 9.91l2.5 1 .74-1.86 -2.5-1L6.61 9.9Zm2.81 4.17l1.21.6c.84.42 1.83.42 2.68 0l1.21-.61 .89 1.78 -1.22.6c-1.41.7-3.07.7-4.48 0l-1.22-.61 .89-1.79Z"/></g></svg>