<svg viewBox="0 0 24 24" xmlns="http://www.w3.org/2000/svg"><path fill-rule="evenodd" d="M12 1C8.65 1 5.65 2.49 3.64 4.84 1.99 6.76.99 9.26.99 11.99c0 6.07 4.92 11 11 11 6.07 0 11-4.93 11-11 0-2.73-1-5.23-2.65-7.16C18.32 2.47 15.32.98 11.98.98ZM8 6.5C6.61 6.5 5.5 7.61 5.5 9c0 1.38 1.11 2.5 2.5 2.5 1.38 0 2.5-1.12 2.5-2.5 0-1.39-1.12-2.5-2.5-2.5ZM13.5 9c0-1.39 1.11-2.5 2.5-2.5 1.38 0 2.5 1.11 2.5 2.5 0 1.38-1.12 2.5-2.5 2.5 -1.39 0-2.5-1.12-2.5-2.5ZM6 16c0-1.66 1.34-3 3-3h6c1.65 0 3 1.34 3 3 0 1.65-1.35 3-3 3H9c-1.66 0-3-1.35-3-3Z"/></svg>