<svg viewBox="0 0 24 24" xmlns="http://www.w3.org/2000/svg"><path fill-rule="evenodd" d="M1.99 7.42C3.72 3.63 7.55.99 11.99.99 16.43.99 20.25 3.62 22 7.41l-1.3.4 -1.45.41c-.51-1.32-1.78-2.25-3.27-2.25 -1.59 0-2.93 1.05-3.36 2.5h-1.29c-.44-1.45-1.77-2.5-3.36-2.5 -1.49 0-2.77.93-3.27 2.24l-1.45-.42 -1.3-.41ZM1.32 9.3c-.22.86-.34 1.76-.34 2.69 0 6.07 4.92 11 11 11 6.07 0 11-4.93 11-11 0-.93-.12-1.83-.34-2.7l-1.37.43c-.01 0-.02 0-.03 0l-1.87.53c-.36 1.55-1.75 2.72-3.42 2.72 -1.59 0-2.93-1.06-3.36-2.5H11.3c-.44 1.44-1.77 2.5-3.36 2.5 -1.67 0-3.06-1.17-3.42-2.73L2.65 9.7c-.01-.01-.02-.01-.03-.01l-1.37-.44Zm9.32 5.9l-1.22-.61 -.9 1.78 1.21.6c1.4.7 3.06.7 4.47 0l1.21-.61 -.9-1.79 -1.22.6c-.85.42-1.84.42-2.69 0Z"/></svg>