<svg viewBox="0 0 24 24" xmlns="http://www.w3.org/2000/svg"><path fill-rule="evenodd" d="M1 12C1 5.92 5.92 1 12 1c6.07 0 11 4.92 11 11 0 6.07-4.93 11-11 11C5.92 23 1 18.07 1 12Zm10-3c0-1.39-1.12-2.5-2.5-2.5C7.11 6.5 6 7.61 6 9c0 1.38 1.11 2.5 2.5 2.5 1.38 0 2.5-1.12 2.5-2.5Zm3.4-.8l2-1.5 1.2 1.6 -.94.7 .93.7 -1.2 1.6 -2-1.5c-.26-.19-.4-.49-.4-.8 0-.32.14-.62.4-.8ZM11 14h1.76c.13 0 .23.1.23.23 0 .08-.06.17-.14.21l-1.32.65c-.34.16-.56.51-.56.89 0 .37.21.72.55.89l1.31.65c.07.04.13.12.13.21 0 .13-.11.23-.24.23h-1.77v2h1.76c1.23 0 2.23-1.01 2.23-2.24 0-.7-.33-1.35-.87-1.77 .53-.42.86-1.07.86-1.77 -.01-1.24-1.01-2.24-2.24-2.24h-1.77v2Z"/></svg>