<svg viewBox="0 0 24 24" xmlns="http://www.w3.org/2000/svg"><g fill-rule="evenodd"><path d="M3 19v1c0 .55.44 1 1 1h18v2H4c-1.66 0-3-1.35-3-3v-1h2Z"/><path d="M19 22v-3h2v3h-2Z"/><path d="M1 4c0-1.66 1.34-3 3-3h18c.55 0 1 .44 1 1v17c0 .55-.45 1-1 1H2c-.56 0-1-.45-1-1V4Zm8.04 7.32l-.2-.4 -3.96-.44 .22-1.99 2.67.29 -.41-.81H5.97c-.2 0-.4-.06-.56-.17l-1.5-1 1.1-1.67 1.24.83h.69v-1.5h2v2.26l.27.54 1.01-1.02 1.41 1.41 -1.5 1.49 .17.35 .22.44h2.76l.22-.45 .17-.36 -1.5-1.5 1.41-1.42 1.01 1.01 .27-.55V4.39h2v1.5h.69l1.24-.84 1.1 1.66 -1.5 1c-.17.1-.36.16-.56.16h-1.39l-.41.8 2.67-.3 .22 1.98 -3.96.43 -.2.39 -.78 3.88c-.21 1.03-1.12 1.78-2.18 1.78s-1.97-.75-2.18-1.79l-.78-3.89Zm2.73 3.49l-.57-2.83h1.56l-.57 2.82c-.03.1-.12.17-.22.17 -.11 0-.2-.08-.22-.18Z"/></g></svg>