<svg viewBox="0 0 24 24" xmlns="http://www.w3.org/2000/svg"><g fill-rule="evenodd"><path d="M2 11.5c-.56 0-1 .44-1 1v3c0 .55.44 1 1 1h20c.55 0 1-.45 1-1v-3c0-.56-.45-1-1-1H2Z"/><path d="M17 14.5c-.56 0-1 .44-1 1v3c0 .55.44 1 1 1h3c.55 0 1-.45 1-1v-3c0-.56-.45-1-1-1h-3Z"/><path d="M15 5.5c0-.56.44-1 1-1h3c.55 0 1 .44 1 1v7c0 .55-.45 1-1 1h-3c-.56 0-1-.45-1-1v-7Zm2 1v5h1v-5h-1Z"/><path d="M12 5.5c0-.56.44-1 1-1h3c.55 0 1 .44 1 1v7c0 .55-.45 1-1 1h-3c-.56 0-1-.45-1-1v-7Zm2 1v5h1v-5h-1Z"/><path d="M6 13.5c-.56 0-1-.45-1-1v-3c0-.56.44-1 1-1h7c.55 0 1 .44 1 1v3c0 .55-.45 1-1 1H6Zm1-2h5v-1H7v1Z"/><path d="M4 14.5c-.56 0-1 .44-1 1v3c0 .55.44 1 1 1h3c.55 0 1-.45 1-1v-3c0-.56-.45-1-1-1H4Z"/></g></svg>