<svg viewBox="0 0 24 24" xmlns="http://www.w3.org/2000/svg"><g fill-rule="evenodd"><path d="M3 19v1c0 .55.44 1 1 1h18v2H4c-1.66 0-3-1.35-3-3v-1h2Z"/><path d="M19 22v-3h2v3h-2Z"/><path d="M4 1C2.34 1 1 2.34 1 4v15c0 .55.44 1 1 1h20c.55 0 1-.45 1-1V2c0-.56-.45-1-1-1H4Zm5.23 2.85c.19-.23.46-.36.76-.36h4c.29 0 .57.12.76.35 .19.22.27.52.22.81l-.47 2.79 1.44 5.79c.08.34-.02.7-.27.94l-3 3c-.4.39-1.03.39-1.42 0l-3.01-3c-.25-.25-.35-.61-.27-.95l1.44-5.8 -.47-2.8c-.05-.29.03-.59.22-.82Zm2.11 2.64h1.3l.16-1h-1.64l.16 1Z"/></g></svg>