<svg viewBox="0 0 24 24" xmlns="http://www.w3.org/2000/svg"><g fill-rule="evenodd"><path d="M3 19v1c0 .55.44 1 1 1h18v2H4c-1.66 0-3-1.35-3-3v-1h2Z"/><path d="M19 22v-3h2v3h-2Z"/><path d="M4 1C2.34 1 1 2.34 1 4v15c0 .55.44 1 1 1h20c.55 0 1-.45 1-1V2c0-.56-.45-1-1-1H4Zm9 4.58v-.09c0-1.11-.9-2-2-2H9v2h2v.08c-1.61.26-2.99 1.17-3.9 2.44 -1.48.19-2.61 1.45-2.61 2.97 0 1.29.81 2.39 1.96 2.81 .9 2.16 3.04 3.68 5.53 3.68s4.63-1.53 5.53-3.69c1.14-.43 1.96-1.53 1.96-2.82 0-1.53-1.14-2.79-2.61-2.98 -.91-1.27-2.29-2.18-3.9-2.45Zm-1 7.41c-1.05 0-1.5-.65-1.5-1h-2c0 1.85 1.78 3 3.5 3 1.71 0 3.5-1.15 3.5-3h-2c0 .35-.46 1-1.5 1Z"/></g></svg>