<svg viewBox="0 0 24 24" xmlns="http://www.w3.org/2000/svg"><g fill-rule="evenodd"><path d="M3 19v1c0 .55.44 1 1 1h18v2H4c-1.66 0-3-1.35-3-3v-1h2Z"/><path d="M19 22v-3h2v3h-2Z"/><path d="M4 1C2.34 1 1 2.34 1 4v15c0 .55.44 1 1 1h20c.55 0 1-.45 1-1V2c0-.56-.45-1-1-1H4Zm8.39 3.08c-.26-.11-.54-.11-.79 0l-7.01 3c-.37.15-.61.51-.61.91s.23.76.6.91l1.89.81v3.26c0 1.65 1.34 3 3 3h5c1.65 0 3-1.35 3-3V9.7l1.89-.82c.36-.16.6-.52.6-.92 0-.41-.24-.77-.61-.92l-7-3Zm3.1 6.5l-3.11 1.33c-.26.1-.54.1-.79 0l-3.11-1.34v2.41c0 .55.44 1 1 1h5c.55 0 1-.45 1-1v-2.42Z"/></g></svg>