<svg viewBox="0 0 24 24" xmlns="http://www.w3.org/2000/svg"><g fill-rule="evenodd"><path d="M3 19v1c0 .55.44 1 1 1h18v2H4c-1.66 0-3-1.35-3-3v-1h2Z"/><path d="M19 22v-3h2v3h-2Z"/><path d="M1 4c0-1.66 1.34-3 3-3h18c.55 0 1 .44 1 1v17c0 .55-.45 1-1 1H2c-.56 0-1-.45-1-1V4Zm6.1 5.5c.2-1.02.72-1.93 1.44-2.62 -.27.78-.44 1.67-.51 2.61h-.94Zm0 2c.2 1.01.72 1.923 1.44 2.61 -.27-.79-.44-1.68-.51-2.62h-.94Zm2.94 0c.1 1.11.37 2.08.72 2.79 .48.97.98 1.2 1.22 1.2s.73-.23 1.22-1.21c.35-.72.62-1.69.72-2.8h-3.91Zm5.91 0c-.08.93-.25 1.82-.51 2.61 .72-.7 1.23-1.6 1.44-2.62h-.94Zm.93-2h-.94c-.08-.94-.25-1.83-.51-2.62 .72.69 1.23 1.59 1.44 2.61Zm-2.95 0h-3.91c.1-1.12.37-2.09.72-2.8 .48-.98.98-1.21 1.22-1.21s.73.22 1.22 1.2c.35.71.62 1.68.72 2.79Zm-8.96 1c0 3.86 3.13 7 7 7 3.86 0 7-3.14 7-7 0-3.87-3.14-7-7-7 -3.87 0-7 3.13-7 7Z"/></g></svg>