<svg viewBox="0 0 24 24" xmlns="http://www.w3.org/2000/svg"><g fill-rule="evenodd"><path d="M3 19v1c0 .55.44 1 1 1h18v2H4c-1.66 0-3-1.35-3-3v-1h2Z"/><path d="M19 22v-3h2v3h-2Z"/><path d="M4 1C2.34 1 1 2.34 1 4v15c0 .55.44 1 1 1h20c.55 0 1-.45 1-1V2c0-.56-.45-1-1-1H4Zm2.5 8c-.56 0-1 .44-1 1v3c0 .55.44 1 1 1h.74l.79 2.77c.12.42.51.72.96.72h5.99c.44 0 .83-.3.96-.73l.79-2.78h.74c.55 0 1-.45 1-1v-3c0-.56-.45-1-1-1h-4.5v-.5 -2c0-.56.44-1 1-1h1v-2h-1c-1.39 0-2.55.93-2.9 2.21 -.35-.14-.72-.22-1.11-.22h-1v2h1c.55 0 1 .44 1 1v.5h-4.5Z"/></g></svg>