<svg viewBox="0 0 24 24" xmlns="http://www.w3.org/2000/svg"><g fill-rule="evenodd"><path d="M1 9c0-.56.44-1 1-1h3v2H3.05c.49 4.5 4.31 8 8.94 8s8.44-3.5 8.94-8h-1.95V8h3c.55 0 1 .44 1 1 0 6.07-4.93 11-11 11 -6.08 0-11-4.93-11-11Z"/><path d="M14.32 1.34l-.79 1.2c-.01 0-.02.01-.02.02l-1.77 2.52c-.22.3-.24.69-.08 1.02l.45.91c.14.28.5.38.77.21 1.22-.77 2.83-.36 3.55.89l.1.17c.13.23.37.37.64.37h1.78v2h-1.79c-.99 0-1.9-.53-2.39-1.39l-.11-.18c-.16-.27-.5-.36-.76-.2 -1.28.79-2.96.32-3.63-1.02l-.46-.92c-.5-.99-.41-2.17.22-3.07l1.75-2.52 .28-.44C12 .9 11.95.9 11.9.9c-4.42 0-8 3.58-8 8 0 .37.02.74.07 1.1h4.77c1.13 0 2.04.91 2.04 2.05 0 .02.02.05.05.05h.7c1.51 0 2.75 1.23 2.75 2.75v1.68c3.24-1.02 5.6-4.06 5.6-7.64 0-3.62-2.4-6.67-5.68-7.66Zm-2.33 15.65c-3.32 0-6.17-2.03-7.38-4.9h4.22c.02 0 .05.02.05.05 0 1.13.91 2.05 2.04 2.05h.7c.41 0 .75.33.75.75v2.04c-.14 0-.27 0-.4 0Z"/><path d="M18 23H6v-2h12v2Z"/><path d="M13 19v3h-2v-3h2Z"/></g></svg>