<svg viewBox="0 0 24 24" xmlns="http://www.w3.org/2000/svg"><g fill-rule="evenodd"><path d="M3 19v1c0 .55.44 1 1 1h18v2H4c-1.66 0-3-1.35-3-3v-1h2Z"/><path d="M19 22v-3h2v3h-2Z"/><path d="M1 4c0-1.66 1.34-3 3-3h18c.55 0 1 .44 1 1v17c0 .55-.45 1-1 1H2c-.56 0-1-.45-1-1V4Zm6 4c0-2.49 2.01-4.5 4.5-4.5h2C15.98 3.5 18 5.51 18 8v8.5c0 .33-.17.64-.44.82 -.28.18-.63.22-.94.1l-2.083-.84 -1.6.79c-.29.14-.62.14-.9 0l-1.6-.8 -2.09.83c-.31.12-.66.08-.94-.11 -.28-.19-.44-.5-.44-.83v-8.5Zm7.05 1.83l1.5-1 -1.11-1.67 -1.5 1 1.1 1.66Zm-4.61-1l1.5 1 1.1-1.67 -1.5-1L9.43 8.82Z"/></g></svg>