<svg viewBox="0 0 24 24" xmlns="http://www.w3.org/2000/svg"><g fill-rule="evenodd"><path d="M3 19v1c0 .55.44 1 1 1h18v2H4c-1.66 0-3-1.35-3-3v-1h2Z"/><path d="M19 22v-3h2v3h-2Z"/><path d="M1 4c0-1.66 1.34-3 3-3h18c.55 0 1 .44 1 1v17c0 .55-.45 1-1 1H2c-.56 0-1-.45-1-1V4Zm4 2h1c.37 0 .69.2.86.5h-.62c-1.25 0-2.25 1-2.25 2.25 0 1.24 1 2.25 2.25 2.25h1.75c.55 0 1-.45 1-1V7.5 7c0-1.66-1.35-3-3-3h-1v2Zm1.25 2.5H7V9h-.75C6.11 9 6 8.88 6 8.75c0-.14.11-.25.25-.25ZM12 8h-2v2.5V13c0 .55.44 1 1 1h1.75c1.24 0 2.25-1.01 2.25-2.25 0-1.25-1.01-2.25-2.25-2.25H12V8Zm0 3.5h.75c.13 0 .25.11.25.25 0 .13-.12.25-.25.25H12v-.5Zm8 1.5h-1.5c-.28 0-.5.22-.5.5v1c0 .27.22.5.5.5H20v2h-1.5c-1.39 0-2.5-1.12-2.5-2.5v-1c0-1.39 1.11-2.5 2.5-2.5H20v2Z"/></g></svg>