<svg viewBox="0 0 24 24" xmlns="http://www.w3.org/2000/svg"><path fill-rule="evenodd" d="M2 1c-.56 0-1 .44-1 1v20c0 .55.44 1 1 1h20c.55 0 1-.45 1-1V2c0-.56-.45-1-1-1H2Zm1.5 12.5c0-.56.44-1 1-1h6c.55 0 1 .44 1 1v6c0 .55-.45 1-1 1h-6c-.56 0-1-.45-1-1v-6Zm2 3.5v1.5h4v-4h-4v.5h1v2h-1Zm-1-13.5c-.56 0-1 .44-1 1v6c0 .55.44 1 1 1h6c.55 0 1-.45 1-1v-6c0-.56-.45-1-1-1h-6Zm1 6V8h1V6h-1v-.5h4v4h-4Zm7 4c0-.56.44-1 1-1h6c.55 0 1 .44 1 1v6c0 .55-.45 1-1 1h-6c-.56 0-1-.45-1-1v-6Zm2 3.5v1.5h4v-4h-4v.5h1v2h-1Zm-1-13.5c-.56 0-1 .44-1 1v6c0 .55.44 1 1 1h6c.55 0 1-.45 1-1v-6c0-.56-.45-1-1-1h-6Zm1 6V8h1V6h-1v-.5h4v4h-4Z"/></svg>