<svg viewBox="0 0 24 24" xmlns="http://www.w3.org/2000/svg"><g fill-rule="evenodd"><path d="M18 6c0-.56.44-1 1-1h3c.55 0 1 .44 1 1v13c0 2.2-1.8 4-4 4v-1h-1V6Zm2 14.73c.59-.35 1-1 1-1.74v-12h-1v13.73Z"/><path d="M2 1c-.56 0-1 .44-1 1v17c0 2.2 1.79 4 4 4h14c.55 0 1-.45 1-1V2c0-.56-.45-1-1-1H2Zm2 12c0-.56.44-1 1-1h5c.55 0 1 .44 1 1v5c0 .55-.45 1-1 1H5c-.56 0-1-.45-1-1v-5Zm2 1v3h3v-3H6ZM5 4c-.56 0-1 .44-1 1v5c0 .55.44 1 1 1h11c.55 0 1-.45 1-1V5c0-.56-.45-1-1-1H5Zm1 5V6h9v3H6Zm10 5h-3v-2h3v2Zm-3 3h3v-2h-3v2Z"/></g></svg>