<svg viewBox="0 0 24 24" xmlns="http://www.w3.org/2000/svg"><path fill-rule="evenodd" d="M12 1c-2.68 0-5.14.95-7.04 2.54l.74.74 1.75 1.75c.17-.04.35-.05.53-.05h8c1.65 0 3 1.34 3 3v4c0 1.23-.76 2.3-1.83 2.76l2.53 2.53 .74.74c1.59-1.91 2.54-4.37 2.54-7.04 0-6.08-4.93-11-11-11Zm3.41 13h.58c.55 0 1-.45 1-1V9c0-.56-.45-1-1-1H9.4l5.99 6Zm-8.3-5.47l5.46 5.46h-1.26c-.19 0-.359.04-.52.14l-1.82 1.09v-.24c0-.27-.11-.52-.3-.71 -.19-.19-.45-.3-.71-.3 -.56 0-1-.45-1-1v-4c0-.17.04-.33.11-.47ZM5.67 7.09c-.43.51-.69 1.18-.69 1.9v4c0 1.3.83 2.41 2 2.82v1.17c0 .36.19.69.5.87 .31.17.69.17 1-.02l3.09-1.86h2.97l3.7 3.7 .74.74c-1.91 1.59-4.37 2.54-7.04 2.54 -6.08 0-11-4.93-11-11 0-2.68.95-5.14 2.54-7.04l.74.74L5.6 7.03Z"/></svg>