<svg viewBox="0 0 24 24" xmlns="http://www.w3.org/2000/svg"><g fill-rule="evenodd"><path d="M3 19v1c0 .55.44 1 1 1h18v2H4c-1.66 0-3-1.35-3-3v-1h2Z"/><path d="M19 22v-3h2v3h-2Z"/><path d="M4 1C2.34 1 1 2.34 1 4v15c0 .55.44 1 1 1h20c.55 0 1-.45 1-1V2c0-.56-.45-1-1-1H4Zm1 5c0-.56.44-1 1-1h11c.55 0 1 .44 1 1v6.5V15c0 .55-.45 1-1 1H6c-.56 0-1-.45-1-1v-4V6Zm2 5.46v2.53h9v-1.04l-2.02-1.68 -1.87 1.48c-.22.17-.5.24-.77.2 -.28-.04-.52-.19-.68-.41L8.78 9.91l-1.82 1.51Zm9-1.11l-1.36-1.14c-.37-.31-.9-.31-1.27-.02l-1.68 1.34L9.8 7.88c-.17-.23-.42-.38-.69-.42 -.28-.04-.56.04-.77.22L6.98 8.81V6.94h9v3.365Z"/></g></svg>