<svg viewBox="0 0 24 24" xmlns="http://www.w3.org/2000/svg"><g fill-rule="evenodd"><path d="M4 13c-1.66 0-3 1.34-3 3v1c0 .51.38.94.9.99l10 1c.28.02.56-.07.77-.26 .2-.19.32-.46.32-.75v-2c0-1.66-1.35-3-3-3h-6Z"/><path d="M14 13c-1.66 0-3 1.34-3 3v2c0 .28.11.55.32.74 .2.18.48.28.77.25l10-1c.51-.06.9-.49.9-1v-1c0-1.66-1.35-3-3-3h-6Z"/><path d="M7 6.5c-.56 0-1 .44-1 1 0 .55.44 1 1 1 .55 0 1-.45 1-1 0-.56-.45-1-1-1Zm-3 1c0-1.66 1.34-3 3-3 1.65 0 3 1.34 3 3 0 1.65-1.35 3-3 3 -1.66 0-3-1.35-3-3Z"/><path d="M7 10.5c-.56 0-1 .44-1 1V13h2v-1.5c0-.56-.45-1-1-1Zm-3 1c0-1.66 1.34-3 3-3 1.65 0 3 1.34 3 3V15H4v-3.5Z"/><path d="M17 8.5c-.56 0-1 .44-1 1V13h2V9.5c0-.56-.45-1-1-1Zm-3 1c0-1.66 1.34-3 3-3 1.65 0 3 1.34 3 3V15h-6V9.5Z"/></g></svg>