<svg viewBox="0 0 24 24" xmlns="http://www.w3.org/2000/svg"><g fill-rule="evenodd"><path d="M3 19v1c0 .55.44 1 1 1h18v2H4c-1.66 0-3-1.35-3-3v-1h2Z"/><path d="M19 22v-3h2v3h-2Z"/><path d="M4 1C2.34 1 1 2.34 1 4v15c0 .55.44 1 1 1h20c.55 0 1-.45 1-1V2c0-.56-.45-1-1-1H4Zm2.6 7.08l2.89-1.25v-.85c0-1.39 1.11-2.5 2.5-2.5 1.38 0 2.5 1.11 2.5 2.5v.84l2.89 1.24c.36.15.6.51.6.91v2c0 .55-.45 1-1 1h-2.62l-1.09 3.25 1.25.26 -.42 1.95 -2.15-.46 -2.3.45 -.4-1.97 1.38-.28 -1.09-3.25H6.92c-.56 0-1-.45-1-1v-2c0-.41.23-.77.6-.92Z"/></g></svg>