<svg viewBox="0 0 24 24" xmlns="http://www.w3.org/2000/svg"><path fill="#ECEFF1" d="M5.5 9.25c-.42 0-.75.33-.75.75v6c0 .41.33.75.75.75h4c.41 0 .75-.34.75-.75v-6c0-.42-.34-.75-.75-.75h-4Z"/><path fill="#5E94FF" d="M5.93 1.25c-.49 0-.95.2-1.28.55L2.71 3.86c-.31.32-.48.75-.48 1.19v1.87c0 .44.16.87.47 1.19l2.22 2.37c.14.15.33.23.54.23h4c.2 0 .4-.09.54-.24l2.22-2.38c.3-.33.47-.76.47-1.2V5.01c0-.45-.17-.88-.48-1.2l-1.94-2.07c-.34-.36-.8-.56-1.28-.56H5.85Z"/><path fill="#ECEFF1" fill-rule="evenodd" d="M2.25 5.25h10.5v1.5H2.25v-1.5Z"/><path fill="#ECEFF1" d="M14 12.25c-.97 0-1.75.78-1.75 1.75v2c0 .41.33.75.75.75h6c.41 0 .75-.34.75-.75v-2c0-.97-.79-1.75-1.75-1.75h-4Z"/><path fill="#5E94FF" d="M3 15.25c-.97 0-1.75.78-1.75 1.75v5c0 .41.33.75.75.75h20c.41 0 .75-.34.75-.75v-5c0-.97-.79-1.75-1.75-1.75H3Z"/><path fill="#ECEFF1" d="M10 18.25c-.97 0-1.75.78-1.75 1.75v2c0 .41.33.75.75.75h6c.41 0 .75-.34.75-.75v-2c0-.97-.79-1.75-1.75-1.75h-4Z"/></svg>