<svg viewBox="0 0 24 24" xmlns="http://www.w3.org/2000/svg"><path fill="#5E94FF" fill-rule="evenodd" d="M5.25 7c0-3.18 2.57-5.75 5.75-5.75h2c3.17 0 5.75 2.57 5.75 5.75v3c0 .41-.34.75-.75.75 -.42 0-.75-.34-.75-.75V7c0-2.35-1.91-4.25-4.25-4.25h-2c-2.35 0-4.25 1.9-4.25 4.25v3c0 .41-.34.75-.75.75 -.42 0-.75-.34-.75-.75V7Z"/><path fill="#5E94FF" d="M10 14.25c-2.63 0-4.75 2.12-4.75 4.75v3c0 .41.33.75.75.75h12c.41 0 .75-.34.75-.75v-3c0-2.63-2.13-4.75-4.75-4.75h-4Z"/><g fill="#ECEFF1"><path d="M15.5 7.25c-.42 0-.75.33-.75.75v3c0 .41.33.75.75.75H18c.41 0 .75-.34.75-.75V8c0-.42-.34-.75-.75-.75h-2.5Z"/><path d="M6 7.25c-.42 0-.75.33-.75.75v3c0 .41.33.75.75.75h2.5c.41 0 .75-.34.75-.75V8c0-.42-.34-.75-.75-.75H6Z"/><path fill="#ECEFF1" fill-rule="evenodd" d="M12.75 14.25v8.5h-1.5v-8.5h1.5Z"/></g><path fill="#FFD071" d="M11.5 4.25C9.42 4.25 7.75 5.92 7.75 8v2c0 2.07 1.67 3.75 3.75 3.75h1c2.07 0 3.75-1.68 3.75-3.75V8c0-2.08-1.68-3.75-3.75-3.75h-1Z"/></svg>