<svg viewBox="0 0 24 24" xmlns="http://www.w3.org/2000/svg"><path fill="#ECEFF1" d="M5.5 1.25c-.97 0-1.75.78-1.75 1.75v18c0 .96.78 1.75 1.75 1.75h11c.96 0 1.75-.79 1.75-1.75V3c0-.97-.79-1.75-1.75-1.75h-11Z"/><path fill="#8BC94D" d="M17.5 12.25c-2.9 0-5.25 2.35-5.25 5.25 0 2.89 2.35 5.25 5.25 5.25 2.89 0 5.25-2.36 5.25-5.25 0-2.9-2.36-5.25-5.25-5.25Z"/><g fill="#ECEFF1" fill-rule="evenodd"><path d="M20.03 15.71c.29.29.29.76 0 1.06l-2.5 2.5c-.3.29-.77.29-1.07 0l-1.51-1.5c-.3-.3-.3-.77-.01-1.07 .29-.3.76-.3 1.06-.01l.96.96 1.96-1.97c.29-.3.76-.3 1.06 0Z"/><g fill="#A2ADB8"><path d="M7.25 6c0-.42.33-.75.75-.75h6c.41 0 .75.33.75.75 0 .41-.34.75-.75.75H8c-.42 0-.75-.34-.75-.75Z"/><path d="M7.25 10c0-.42.33-.75.75-.75h6c.41 0 .75.33.75.75 0 .41-.34.75-.75.75H8c-.42 0-.75-.34-.75-.75Z"/></g></g></svg>