<svg viewBox="0 0 24 24" xmlns="http://www.w3.org/2000/svg"><path fill="#CFD8DC" d="M13.5 4.25c-.42 0-.75.33-.75.75v1.65c0 .5-.31.96-.78 1.14 -1.04.41-1.73 1.42-1.73 2.54v11.65c0 .41.33.75.75.75h8c1.51 0 2.75-1.24 2.75-2.75v-9.66c0-1.12-.69-2.13-1.73-2.55 -.48-.19-.78-.65-.78-1.15V4.96c0-.42-.34-.75-.75-.75h-5Z"/><g fill="#ECEFF1" fill-rule="evenodd"><path d="M21.75 11.11c-.34-.01-.69.04-1.03.18l-.12.04c-1.34.53-2.84.5-4.15-.08 -1.56-.7-3.32-.78-4.94-.24l-.77.25c-.02 0-.03 0-.05.01 -.17.06-.32.13-.48.21v10.47c0 .01 0 .03 0 .05 .34.26.71.5 1.1.69h7.64c1.51 0 2.75-1.24 2.75-2.75v-8.89Z"/><path fill="#CFD8DC" d="M12.75 5c0-.42.33-.75.75-.75h5c.41 0 .75.33.75.75v1.65c0 .5.3.96.77 1.14 1.03.41 1.72 1.42 1.72 2.54v9.65c0 1.51-1.24 2.75-2.75 2.75h-8c-.42 0-.75-.34-.75-.75V10.32c0-1.12.68-2.13 1.72-2.55 .47-.19.77-.65.77-1.15V4.96Zm1.5.75v.9c0 1.11-.69 2.12-1.73 2.54 -.48.18-.78.64-.78 1.14v10.9h7.25c.69 0 1.25-.56 1.25-1.25v-9.66c0-.51-.31-.97-.78-1.15 -1.04-.42-1.73-1.43-1.73-2.55v-.91h-3.5Z"/></g><path fill="#FFD071" d="M5 15.25c-2.08 0-3.75 1.67-3.75 3.75v2c0 .96.78 1.75 1.75 1.75h11c.96 0 1.75-.79 1.75-1.75v-2c0-2.08-1.68-3.75-3.75-3.75H5Z"/><g fill="#ECEFF1" fill-rule="evenodd"><path d="M6.25 15.25v3.25c0 .41-.34.75-.75.75 -.42 0-.75-.34-.75-.75v-3.25h1.5Z"/><path d="M9.25 15.25v3.25c0 .41-.34.75-.75.75 -.42 0-.75-.34-.75-.75v-3.25h1.5Z"/><path d="M12.25 15.25v3.25c0 .41-.34.75-.75.75 -.42 0-.75-.34-.75-.75v-3.25h1.5Z"/></g><path fill="#ECEFF1" d="M13.5 1.25c-.97 0-1.75.78-1.75 1.75v1c0 .96.78 1.75 1.75 1.75h5c.96 0 1.75-.79 1.75-1.75V3c0-.97-.79-1.75-1.75-1.75h-5Z"/></svg>