<svg viewBox="0 0 24 24" xmlns="http://www.w3.org/2000/svg"><g fill="#CFD8DC" fill-rule="evenodd"><path d="M12 3.25c.41 0 .75.33.75.75v3c0 .41-.34.75-.75.75 -.42 0-.75-.34-.75-.75V4c0-.42.33-.75.75-.75Z"/><path fill="#A2ADB8" d="M1.25 4c0-.42.33-.75.75-.75h20c.41 0 .75.33.75.75 0 .41-.34.75-.75.75H2c-.42 0-.75-.34-.75-.75Z"/></g><path fill="#ECEFF1" d="M9.5 6.25c-1.8 0-3.25 1.45-3.25 3.25v2c0 2.89 2.35 5.25 5.25 5.25h1c2.89 0 5.25-2.36 5.25-5.25v-2c0-1.8-1.46-3.25-3.25-3.25h-5Z"/><g fill="#CFD8DC" fill-rule="evenodd"><path d="M7.5 18.75c-.42 0-.75.33-.75.75v.5c0 .41-.34.75-.75.75 -.42 0-.75-.34-.75-.75v-.5c0-1.25 1-2.25 2.25-2.25h9c1.24 0 2.25 1 2.25 2.25v.5c0 .41-.34.75-.75.75 -.42 0-.75-.34-.75-.75v-.5c0-.42-.34-.75-.75-.75h-9Z"/><path fill="#A2ADB8" d="M11.25 6.25H9.5c-1.8 0-3.25 1.45-3.25 3.25v2c0 .25.01.5.05.75h4.19c.41 0 .75-.34.75-.75V6.25Zm1.5 0h1.75c1.79 0 3.25 1.45 3.25 3.25v2c0 .25-.02.5-.06.75h-4.2c-.42 0-.75-.34-.75-.75V6.25Z"/></g></svg>