<svg viewBox="0 0 24 24" xmlns="http://www.w3.org/2000/svg"><path fill="#A2ADB8" fill-rule="evenodd" d="M10.53 12.96c.29.29.29.76 0 1.06l-3 3c-.3.29-.77.29-1.07 0 -.3-.3-.3-.77 0-1.07l3-3c.29-.3.76-.3 1.06 0Z"/><path fill="#ECEFF1" d="M17.21 6.76c-.09-.25-.29-.44-.54-.5 -.26-.06-.52.01-.71.19l-6.51 6.5c-.3.29-.3.76 0 1.06l2 2c.29.29.76.29 1.06 0l3.31-3.32c1.54-1.54 2.07-3.82 1.38-5.89l-.03-.07Z"/><g fill="#EE4D4D" fill-rule="evenodd"><path d="M4.39 4.39c.29-.3.76-.3 1.06 0l14.14 14.14c.29.29.29.76 0 1.06 -.3.29-.77.29-1.07 0L4.37 5.44c-.3-.3-.3-.77 0-1.07Z"/><path d="M12 2.75c-5.11 0-9.25 4.14-9.25 9.25 0 5.1 4.14 9.25 9.25 9.25 5.1 0 9.25-4.15 9.25-9.25 0-5.11-4.15-9.25-9.25-9.25ZM1.25 12C1.25 6.06 6.06 1.25 12 1.25c5.93 0 10.75 4.81 10.75 10.75 0 5.93-4.82 10.75-10.75 10.75 -5.94 0-10.75-4.82-10.75-10.75Z"/></g></svg>