<svg viewBox="0 0 24 24" xmlns="http://www.w3.org/2000/svg"><g fill="#ECEFF1"><path d="M10 7.75c-.42 0-.75.33-.75.75v4c0 1.79-1.46 3.25-3.25 3.25h-.5c-.42 0-.75.33-.75.75v2c0 .2.08.39.22.54 .14.14.34.21.54.2l13-.5c.4-.02.72-.35.72-.75v-1.5c0-.42-.34-.75-.75-.75h-.5c-1.8 0-3.25-1.46-3.25-3.25v-4c0-.42-.34-.75-.75-.75h-4Z"/><path d="M6 18.75c-.42 0-.75.33-.75.75v.5c0 1.51 1.23 2.75 2.75 2.75h8c1.51 0 2.75-1.24 2.75-2.75v-.5c0-.42-.34-.75-.75-.75H6Z"/></g><g fill="#EE4D4D"><path d="M12 1.25c-2.35 0-4.25 1.9-4.25 4.25 0 2.34 1.9 4.25 4.25 4.25 2.34 0 4.25-1.91 4.25-4.25 0-2.35-1.91-4.25-4.25-4.25Z"/><path d="M5 15.75c-.42 0-.75.33-.75.75v3c0 .41.33.75.75.75h14c.41 0 .75-.34.75-.75v-3c0-.42-.34-.75-.75-.75H5Z"/></g></svg>