<svg viewBox="0 0 24 24" xmlns="http://www.w3.org/2000/svg"><path fill="#ECEFF1" d="M4 3.25C2.48 3.25 1.25 4.48 1.25 6v14.5c0 1.51 1.23 2.75 2.75 2.75h16c1.51 0 2.75-1.24 2.75-2.75V6c0-1.52-1.24-2.75-2.75-2.75H4Z"/><path fill="#FF884D" d="M9 13.25c-.97 0-1.75.78-1.75 1.75v4c0 .96.78 1.75 1.75 1.75h6c.96 0 1.75-.79 1.75-1.75v-4c0-.97-.79-1.75-1.75-1.75H9Z"/><path fill="#EE4D4D" d="M4 3.25C2.48 3.25 1.25 4.48 1.25 6v3c0 .41.33.75.75.75h20c.41 0 .75-.34.75-.75V6c0-1.52-1.24-2.75-2.75-2.75H4Z"/><g fill="#ECEFF1" fill-rule="evenodd"><path d="M5 1.25c.41 0 .75.33.75.75v3.5c0 .41-.34.75-.75.75 -.42 0-.75-.34-.75-.75V2c0-.42.33-.75.75-.75Z"/><path d="M12 1.25c.41 0 .75.33.75.75v3.5c0 .41-.34.75-.75.75 -.42 0-.75-.34-.75-.75V2c0-.42.33-.75.75-.75Z"/><path d="M19 1.25c.41 0 .75.33.75.75v3.5c0 .41-.34.75-.75.75 -.42 0-.75-.34-.75-.75V2c0-.42.33-.75.75-.75Z"/><path fill="#FF884D" d="M11 12.25c-.14 0-.25.11-.25.25v1c0 .41-.34.75-.75.75 -.42 0-.75-.34-.75-.75v-1c0-.97.78-1.75 1.75-1.75h2c.96 0 1.75.78 1.75 1.75v1c0 .41-.34.75-.75.75 -.42 0-.75-.34-.75-.75v-1c0-.14-.12-.25-.25-.25h-2Z"/></g><path fill="#FFA071" d="M9 13.25c-.97 0-1.75.78-1.75 1.75v1.5c0 .37.28.69.65.74l4 .5c.06 0 .12 0 .18 0l4-.5c.37-.05.657-.37.657-.75v-1.5c0-.97-.79-1.75-1.75-1.75h-6Z"/></svg>