<svg viewBox="0 0 24 24" xmlns="http://www.w3.org/2000/svg"><path fill="#5E94FF" d="M4 6.25c-.2 0-.39.07-.54.21l-2 2c-.15.14-.22.33-.22.53l-.01 6c0 .19.07.38.21.53l2 2c.14.14.33.21.53.21h4.99c.14 0 .29-.05.41-.13l1.08-.73 1.08.72c.12.08.26.12.41.12h8c.19 0 .38-.08.53-.22l2-2c.14-.15.21-.34.21-.54v-6c0-.2-.08-.39-.22-.54l-2.01-2c-.15-.15-.34-.22-.54-.22h-8c-.15 0-.3.04-.42.12l-1.09.72 -1.09-.73c-.13-.09-.27-.13-.42-.13h-5Z"/><g fill="#ECEFF1" fill-rule="evenodd"><path d="M10.5 9.75c.41 0 .75.33.75.75v3c0 .41-.34.75-.75.75 -.42 0-.75-.34-.75-.75v-3c0-.42.33-.75.75-.75Z"/><path d="M13.25 10c0-.42.33-.75.75-.75h4c.41 0 .75.33.75.75 0 .41-.34.75-.75.75h-4c-.42 0-.75-.34-.75-.75Z"/><path d="M13.25 13c0-.42.33-.75.75-.75h5c.41 0 .75.33.75.75 0 .41-.34.75-.75.75h-5c-.42 0-.75-.34-.75-.75Z"/></g></svg>