<svg viewBox="0 0 24 24" xmlns="http://www.w3.org/2000/svg"><path fill="#ECEFF1" d="M4 4.25C2.48 4.25 1.25 5.48 1.25 7v11c0 1.51 1.23 2.75 2.75 2.75h16c1.51 0 2.75-1.24 2.75-2.75V7c0-1.52-1.24-2.75-2.75-2.75H4Z"/><g fill="#A2ADB8" fill-rule="evenodd"><path d="M12.75 10c0-.42.33-.75.75-.75h3c.41 0 .75.33.75.75 0 .41-.34.75-.75.75h-3c-.42 0-.75-.34-.75-.75Z"/><path d="M12.75 13.5c0-.42.33-.75.75-.75h6c.41 0 .75.33.75.75 0 .41-.34.75-.75.75h-6c-.42 0-.75-.34-.75-.75Z"/></g><g fill="#5E94FF"><path d="M8 8.25c-1.52 0-2.75 1.23-2.75 2.75 0 1.51 1.23 2.75 2.75 2.75 1.51 0 2.75-1.24 2.75-2.75 0-1.52-1.24-2.75-2.75-2.75Z"/><path fill="#5E94FF" fill-rule="evenodd" d="M8 14.75c-1.25 0-2.25 1-2.25 2.25 0 .41-.34.75-.75.75 -.42 0-.75-.34-.75-.75 0-2.08 1.67-3.75 3.75-3.75 2.07 0 3.75 1.67 3.75 3.75 0 .41-.34.75-.75.75 -.42 0-.75-.34-.75-.75 0-1.25-1.01-2.25-2.25-2.25Z"/></g></svg>