<svg viewBox="0 0 24 24" xmlns="http://www.w3.org/2000/svg"><g fill-rule="evenodd"><path d="M1 3.8c0-.56.44-1 1-1h6.19c.33 0 .64.16.83.44l1.6 2.41h11.36c.55 0 1 .44 1 1v13.33c0 .55-.45 1-1 1h-20c-.56 0-1-.45-1-1V3.78Zm2 1v14.19h18V7.65H10.09c-.34-.001-.65-.17-.84-.45L7.64 4.78H2.98Z"/><path d="M7.66 11.02c0-1.39 1.11-2.51 2.5-2.51h.4v2h-.41c-.28 0-.51.22-.51.5v.88c0 .26-.11.51-.3.7l-.73.72 .72.72c.18.18.29.44.29.7v.88c0 .27.22.5.5.5h.4v2h-.41c-1.39 0-2.51-1.12-2.51-2.5v-.47L6.46 14c-.4-.4-.4-1.03 0-1.42l1.13-1.14v-.47Z"/><path d="M16.33 11.02c0-1.39-1.12-2.51-2.5-2.51h-.41v2h.4c.27 0 .5.22.5.5v.88c0 .26.1.51.29.7l.72.72 -.73.72c-.19.18-.3.44-.3.7v.88c0 .27-.23.5-.5.5h-.41v2h.4c1.38 0 2.5-1.12 2.5-2.5v-.47L17.42 14c.39-.4.39-1.03 0-1.42l-1.14-1.14v-.47Z"/></g></svg>