<svg viewBox="0 0 24 24" xmlns="http://www.w3.org/2000/svg"><g fill-rule="evenodd"><path d="M10.61 11.54c-.01 0 0-.01 0-.01 -.01 0-.01 0-.01 0Zm0-.02c.01-.03.04-.1.15-.19 .18-.18.52-.38 1.01-.57 .97-.38 2.39-.64 4.01-.64 1.61 0 3.03.25 4.01.63 .49.18.82.39 1.01.56 .1.09.14.15.15.18 -.02.02-.05.09-.16.18 -.19.17-.52.37-1.02.56 -.98.37-2.4.63-4.02.63 -1.62 0-3.04-.26-4.02-.64 -.5-.19-.83-.4-1.02-.57 -.11-.1-.15-.16-.16-.19Zm10.37.01c-.01 0-.01-.01-.01-.01s0 0 0 0Zm-.01-.03c0-.01 0-.01 0-.01s-.01 0-.01 0Zm-10.39 0c-.01-.01-.01-.01-.01-.01s0 0 0 0Zm.45-2.61c1.26-.49 2.93-.77 4.73-.77 1.8 0 3.47.27 4.73.76 .62.24 1.2.55 1.64.95 .43.39.81.95.81 1.66 0 .7-.38 1.26-.82 1.66 -.44.39-1.02.7-1.65.95 -1.27.48-2.94.76-4.74.76 -1.81 0-3.48-.28-4.74-.77 -.63-.25-1.21-.56-1.65-.96 -.44-.4-.82-.96-.82-1.67s.37-1.27.81-1.67c.43-.4 1.01-.71 1.64-.96Z"/><path d="M21 15.32c-.01 0-.01 0-.01.01h2c0 .7-.38 1.26-.82 1.66 -.44.39-1.02.7-1.65.95 -1.27.48-2.94.76-4.74.76 -1.81 0-3.48-.28-4.74-.77 -.63-.25-1.21-.56-1.65-.96 -.44-.4-.82-.96-.82-1.67h1.99c0-.01-.01-.01-.01-.02 0 .01.03.08.15.19 .18.17.52.37 1.01.56 .97.37 2.39.63 4.01.63 1.61 0 3.03-.26 4.01-.64 .49-.19.82-.4 1.01-.57 .12-.12.15-.19.15-.2Zm0-.01s-.01 0-.01 0c0-.01 0-.01 0-.01Zm-10.39 0s0 0 0 0c-.01-.01-.01-.01-.01-.01Z"/><path d="M10.61 19.13v-7.61h-2v7.61c0 .7.37 1.26.81 1.66 .43.39 1.01.7 1.64.95 1.26.48 2.93.76 4.73.76 1.8 0 3.47-.28 4.73-.77 .62-.25 1.2-.56 1.64-.96 .43-.4.81-.96.81-1.67v-7.62h-2v7.6c-.01.02-.04.08-.16.19 -.19.17-.52.37-1.02.56 -.98.37-2.4.63-4.02.63 -1.62 0-3.04-.26-4.02-.64 -.5-.19-.83-.4-1.02-.57 -.13-.11-.16-.18-.16-.2Zm10.38-.01s-.01 0-.01 0c0-.01 0-.01 0-.01Zm-10.39 0c-.01-.01-.01-.01-.01-.01s0 0 0 0Z"/><path d="M1 2.47c0-.56.44-1 1-1h5.14c.32 0 .63.16.82.43l1.41 2.06h9.75c.55 0 1 .44 1 1v2.26h-2V5.95H8.83c-.33 0-.64-.17-.83-.44L6.58 3.44H2.96v15.14h4.23v2H1.95c-.56 0-1-.45-1-1V2.43Z"/></g></svg>