<svg viewBox="0 0 24 24" xmlns="http://www.w3.org/2000/svg"><g fill-rule="evenodd"><path d="M1 3.8c0-.56.44-1 1-1h6.19c.33 0 .64.16.83.44l1.6 2.41h11.36c.55 0 1 .44 1 1v13.33c0 .55-.45 1-1 1h-20c-.56 0-1-.45-1-1V3.78Zm2 1v14.19h18V7.65H10.09c-.34-.001-.65-.17-.84-.45L7.64 4.78H2.98Z"/><path d="M17.204 13.41c.15-.37.08-.8-.2-1.09l-3.75-3.97c-.19-.2-.46-.32-.73-.32 -.28 0-.54.11-.73.31l-3.75 3.96c-.28.29-.35.71-.2 1.08 .15.36.51.6.91.6h1.58c-.19.7-.66 1.32-1.32 1.69L7.17 16.7c-.4.22-.6.68-.48 1.12 .11.43.51.74.96.74H9.8c2.68 0 4.9-2.01 5.23-4.61h1.18c.39 0 .76-.24.91-.61Zm-3.17-1.33c-.52.18-.9.67-.9 1.25 0 1.21-.67 2.27-1.66 2.84 .62-.82.97-1.83.97-2.89 0-.72-.58-1.29-1.29-1.29h-.07l1.42-1.52 1.49 1.58Z"/></g></svg>