<svg viewBox="0 0 24 24" xmlns="http://www.w3.org/2000/svg"><g fill-rule="evenodd"><path d="M1 3.8c0-.56.44-1 1-1h6.19c.33 0 .64.16.83.44l1.6 2.41h11.36c.55 0 1 .44 1 1v13.33c0 .55-.45 1-1 1h-20c-.56 0-1-.45-1-1V3.78Zm2 1v14.19h18V7.65H10.09c-.34-.001-.65-.17-.84-.45L7.64 4.78H2.98Z"/><path d="M8.61 15.23v-3.81h1.99v3.8h-2Z"/><path d="M11.52 14.33H7.71v-2h3.8v2Z"/><path d="M16.28 12.9h-1.43v-2h1.42v2Z"/><path d="M15.33 15.76H13.9v-2h1.42v2Z"/><path d="M4.33 12.54c0-2.49 2.01-4.5 4.5-4.5h6.33c2.48 0 4.5 2.01 4.5 4.5v1.57c0 2.48-2.02 4.5-4.5 4.5H8.82c-2.49 0-4.5-2.02-4.5-4.5v-1.58Zm4.5-2.5c-1.39 0-2.5 1.11-2.5 2.5v1.57c0 1.38 1.11 2.5 2.49 2.5h6.33c1.38 0 2.5-1.12 2.5-2.5v-1.58c0-1.39-1.12-2.5-2.5-2.5H8.81Z"/></g></svg>