<svg viewBox="0 0 24 24" xmlns="http://www.w3.org/2000/svg"><g fill-rule="evenodd"><path d="M1 3.8c0-.56.44-1 1-1h6.19c.33 0 .64.16.83.44l1.6 2.41h11.36c.55 0 1 .44 1 1v13.33c0 .55-.45 1-1 1h-20c-.56 0-1-.45-1-1V3.78Zm2 1v14.19h18V7.65H10.09c-.34-.001-.65-.17-.84-.45L7.64 4.78H2.98Z"/><path d="M7.19 12.54c0-2.49 2.01-4.5 4.49-4.5h.14c2.48 0 4.5 2.01 4.5 4.49v2.69c0 1.86-1.52 3.38-3.39 3.38s-3.39-1.52-3.39-3.39v-2.53c0-1.26 1.02-2.28 2.27-2.28s2.27 1.02 2.27 2.27v2.05h-2v-2.06c0-.16-.13-.28-.28-.28 -.16 0-.28.12-.28.27v2.52c0 .76.61 1.38 1.38 1.38 .76 0 1.38-.62 1.38-1.39v-2.7c0-1.39-1.12-2.5-2.5-2.5h-.15c-1.39 0-2.5 1.11-2.5 2.5v2.69h-2v-2.7Z"/></g></svg>