<svg viewBox="0 0 24 24" xmlns="http://www.w3.org/2000/svg"><g fill-rule="evenodd"><path d="M4 2v3H2V2h2Zm4.5 0v3h-2V2h2ZM13 2v3h-2V2h2Zm4.5 0v3h-2V2h2ZM22 2v3h-2V2h2Z"/><path d="M4 19v3H2v-3h2Zm4.5 0v3h-2v-3h2Zm4.5 0v3h-2v-3h2Zm4.5 0v3h-2v-3h2Zm4.5 0v3h-2v-3h2Z"/><path d="M1 5c0-.56.44-1 1-1h20c.55 0 1 .44 1 1v14c0 .55-.45 1-1 1H2c-.56 0-1-.45-1-1V5Zm5 9c0-.56.44-1 1-1 .55 0 1 .44 1 1 0 .55-.45 1-1 1 -.56 0-1-.45-1-1Zm1-3c-1.66 0-3 1.34-3 3 0 1.65 1.34 3 3 3 1.65 0 3-1.35 3-3 0-1.66-1.35-3-3-3Z"/></g></svg>