<svg viewBox="0 0 24 24" xmlns="http://www.w3.org/2000/svg"><g fill-rule="evenodd"><path d="M8 6c-.56 0-1 .44-1 1v11c0 .55.44 1 1 1h13c.55 0 1-.45 1-1v-5.71 -5.3c0-.56-.45-1-1-1h-5.42 -7.59Z"/><path d="M8 18c0-.56.44-1 1-1h11c.55 0 1 .44 1 1v4c0 .55-.45 1-1 1H9c-.56 0-1-.45-1-1v-4Zm2 1v2h9v-2h-9Z"/><path d="M22 23H7v-2h15v2Z"/><path d="M2 9c-.56 0-1 .44-1 1v3c0 .55.44 1 1 1h3c.55 0 1-.45 1-1v-3c0-.56-.45-1-1-1H2Z"/><path d="M6.75 3C5.5 3 4.5 4 4.5 5.25V10h-2V5.25C2.5 2.9 4.4 1 6.75 1 9.09 1 11 2.9 11 5.25V7H9V5.25C9 4 7.99 3 6.75 3Z"/></g></svg>