<svg viewBox="0 0 24 24" xmlns="http://www.w3.org/2000/svg"><g fill-rule="evenodd"><path d="M11.5 7.5C11.5 6.11 12.61 5 14 5c1.38 0 2.5 1.11 2.5 2.5v2c0 1.38-1.12 2.5-2.5 2.5 -1.39 0-2.5-1.12-2.5-2.5v-2ZM14 7c-.28 0-.5.22-.5.5v2c0 .27.22.5.5.5 .27 0 .5-.23.5-.5v-2c0-.28-.23-.5-.5-.5Z"/><path d="M2.4 11.2l4-3 1.2 1.6L4 12.49v4.83l5.38 2.24 -.77 1.84 -6-2.5c-.38-.16-.62-.52-.62-.93v-6c0-.32.14-.62.4-.8Z"/><path d="M13.01 1.14c.3.18.48.5.48.85v6.5 2h1v-2 -6.5c0-.36.18-.68.48-.86 .3-.19.67-.19.98-.02l5.5 3c.32.17.52.51.52.87v6.382l-1.45.72 -6 3c-.34.16-.56.51-.56.89v7h-1c-3.87 0-7-3.14-7-7v-11c0-.37.19-.71.52-.88l5.49-3c.3-.17.68-.17.98.01Zm2.98 21.78c3.39-.49 6-3.41 6-6.93V13.6l-.56.27 -5.45 2.72v6.31Z"/></g></svg>