<svg viewBox="0 0 24 24" xmlns="http://www.w3.org/2000/svg"><g fill-rule="evenodd"><path d="M3 6H2V4h2c.55 0 1 .44 1 1v14H3V6Z"/><path d="M3 6.5c0-.56.44-1 1-1h18c.55 0 1 .44 1 1v10c0 .55-.45 1-1 1H4c-.56 0-1-.45-1-1v-10Zm2 1v8h16v-8H5Z"/><path d="M3 6.5c0-.56.44-1 1-1h18c.55 0 1 .44 1 1v10c0 .55-.45 1-1 1H4c-.56 0-1-.45-1-1v-10Zm2 1v8h4.43l4.79-8H4.98Zm11.56 0l-4.8 8h9.23v-8h-4.44Z"/><path d="M18 8.5c-1.66 0-3 1.34-3 3 0 1.65 1.34 3 3 3 1.65 0 3-1.35 3-3 0-1.66-1.35-3-3-3Z"/><path d="M8 8.5c-1.66 0-3 1.34-3 3 0 1.65 1.34 3 3 3 1.65 0 3-1.35 3-3 0-1.66-1.35-3-3-3Z"/><path d="M7 15.5c-.56 0-1 .44-1 1v3c0 .55.44 1 1 1h10c.55 0 1-.45 1-1v-3c0-.56-.45-1-1-1H7Z"/></g></svg>