<svg viewBox="0 0 24 24" xmlns="http://www.w3.org/2000/svg"><g fill-rule="evenodd"><path d="M3 6H2V4h2c.55 0 1 .44 1 1v14H3V6Z"/><path d="M4 5.5c-.56 0-1 .44-1 1v10c0 .55.44 1 1 1h14.21l-.19-.75 -.69-2.39c-.28.08-.56.12-.86.12 -.3 0-.59-.05-.86-.13l-.69 2.39 -1.923-.55 .9-3.16c-.28-.46-.45-1-.45-1.57 0-.58.16-1.12.44-1.57l-.91-3.16c-.09-.31-.03-.63.16-.88 .18-.26.48-.4.79-.4h-10Zm19 9c0 1.56-1.2 2.84-2.73 2.98l-.31-1.23c-.01-.02-.01-.03-.01-.04l-.91-3.16c.27-.46.44-1 .44-1.57 0-.58-.17-1.12-.45-1.57l.9-3.16c.08-.31.02-.63-.17-.88 -.19-.26-.49-.4-.8-.4h1c1.65 0 3 1.34 3 3v6Zm-7.36-5.88c.27-.09.55-.13.85-.13 .29 0 .58.04.85.12l.32-1.13h-2.35l.32 1.12Zm.85 1.87c-.56 0-1 .44-1 1 0 .55.44 1 1 1 .55 0 1-.45 1-1 0-.56-.45-1-1-1Zm-10.5-1.5v5h2v-5h-2Z"/><path d="M7 15.5c-.56 0-1 .44-1 1v3c0 .55.44 1 1 1h10c.55 0 1-.45 1-1v-3c0-.56-.45-1-1-1H7Z"/></g></svg>