<svg viewBox="0 0 24 24" xmlns="http://www.w3.org/2000/svg"><g fill-rule="evenodd"><path d="M3 6H2V4h2c.55 0 1 .44 1 1v14H3V6Z"/><path d="M3 6.5c0-.56.44-1 1-1h18c.55 0 1 .44 1 1v10c0 .55-.45 1-1 1H4c-.56 0-1-.45-1-1v-10Zm2 1v8h16v-8H5Z"/><path d="M4 5.5c-.56 0-1 .44-1 1v10c0 .55.44 1 1 1h4.5c.3 0 .59-.14.78-.38l3.69-4.63H13l3.69 4.62c.18.23.47.37.78.37h4.5c.55 0 1-.45 1-1v-10c0-.56-.45-1-1-1h-4.5c-.31 0-.6.13-.79.37l-3.7 4.62h-.04l-3.7-4.63c-.19-.24-.48-.38-.79-.38h-4.5ZM18.5 9c-1.39 0-2.5 1.11-2.5 2.5 0 1.38 1.11 2.5 2.5 2.5 1.38 0 2.5-1.12 2.5-2.5 0-1.39-1.12-2.5-2.5-2.5ZM5 11.5C5 10.11 6.11 9 7.5 9c1.38 0 2.5 1.11 2.5 2.5 0 1.38-1.12 2.5-2.5 2.5C6.11 14 5 12.88 5 11.5Z"/><path d="M7 15.5c-.56 0-1 .44-1 1v3c0 .55.44 1 1 1h10c.55 0 1-.45 1-1v-3c0-.56-.45-1-1-1H7Z"/></g></svg>