<svg viewBox="0 0 24 24" xmlns="http://www.w3.org/2000/svg"><g fill-rule="evenodd"><path d="M1 14c0-1.66 1.34-3 3-3h.5c.55 0 1 .44 1 1v8c0 .55-.45 1-1 1H4c-1.66 0-3-1.35-3-3v-4Zm2.5-.87c-.3.17-.5.49-.5.86v4c0 .37.2.69.5.86v-5.74Z"/><path d="M4.5 11c-.56 0-1 .44-1 1v8c0 .55.44 1 1 1h2c1.1 0 2-.9 2-2v-6c0-1.11-.9-2-2-2h-2Z"/><path d="M23 14c0-1.66-1.35-3-3-3h-.5c-.56 0-1 .44-1 1v8c0 .55.44 1 1 1h.5c1.65 0 3-1.35 3-3v-4Zm-2.5-.87c.29.17.5.49.5.86v4c0 .37-.21.69-.5.86v-5.74Z"/><path d="M19.5 11c.55 0 1 .44 1 1v8c0 .55-.45 1-1 1h-2c-1.11 0-2-.9-2-2v-6c0-1.11.89-2 2-2h2Z"/><path d="M9.5 5c-2.21 0-4 1.79-4 4v3h-2V9c0-3.32 2.68-6 6-6h5c3.31 0 6 2.68 6 6v3h-2V9c0-2.21-1.8-4-4-4h-5Z"/></g></svg>