<svg viewBox="0 0 24 24" xmlns="http://www.w3.org/2000/svg"><path fill-rule="evenodd" d="M4.29 1.29c.18-.19.44-.3.7-.3h5.5 3 5.5c.26 0 .51.1.7.29l3 3c.18.18.29.44.29.7v5.5 3 5.5c0 .26-.11.51-.3.7l-3 3c-.19.18-.45.29-.71.29h-5.5 -3 -5.5c-.27 0-.52-.11-.71-.3l-3-3c-.19-.19-.3-.45-.3-.71v-5.5 -3 -5.5c0-.27.1-.52.29-.71l3-3Zm7.7 1.7c.33 0 .67.01 1 .05v6.11c-.32-.12-.65-.18-1-.18H3.5c1.23-3.5 4.56-6 8.48-6Zm2.82 10c.11-.32.17-.65.17-1V3.5c3.49 1.23 6 4.56 6 8.48 0 .33-.02.67-.06 1H14.8Zm-2.83-2c.55 0 1 .44 1 1 0 .55-.45 1-1 1 -.56 0-1-.45-1-1 0-.56.44-1 1-1Zm-8.95 0c-.04.32-.06.66-.06 1 0 3.91 2.5 7.25 6 8.48v-8.49c0-.36.06-.69.17-1H3.02Zm8.94 10c-.34 0-.68-.02-1-.06v-6.12c.31.11.64.17 1 .17h8.48c-1.24 3.49-4.57 6-8.49 6Z"/></svg>