<svg viewBox="0 0 24 24" xmlns="http://www.w3.org/2000/svg"><path fill-rule="evenodd" d="M1 2c0-.56.44-1 1-1h20c.55 0 1 .44 1 1v20c0 .55-.45 1-1 1H4c-.56 0-1-.45-1-1v-9.81L1.07 7.36c-.05-.12-.08-.25-.08-.38v-5Zm4.5 13.5c0-.56.44-1 1-1h4c.55 0 1 .44 1 1v4c0 .55-.45 1-1 1h-4c-.56 0-1-.45-1-1v-4ZM16 15c-.56 0-1 .44-1 1v3c0 .55.44 1 1 1h3c.55 0 1-.45 1-1v-3c0-.56-.45-1-1-1h-3ZM10.5 4.5c0-.56.44-1 1-1h8c.55 0 1 .44 1 1v3c0 .55-.45 1-1 1h-8c-.56 0-1-.45-1-1v-3Zm1 4.5c-.56 0-1 .44-1 1v3c0 .55.44 1 1 1h8c.55 0 1-.45 1-1v-3c0-.56-.45-1-1-1h-8ZM7 5v7h2V5H7Z"/></svg>