<svg viewBox="0 0 24 24" xmlns="http://www.w3.org/2000/svg"><g fill-rule="evenodd"><path d="M2 7c-.56 0-1 .44-1 1v3c0 .55.44 1 1 1h3c.55 0 1-.45 1-1V8c0-.56-.45-1-1-1H2Z"/><path d="M13.5 4C11.01 4 9 6.01 9 8.5v6.275c0 .11.01.22.05.33l1.42 3.99c.83 2.33 3.04 3.89 5.52 3.89 2.47 0 4.68-1.56 5.52-3.9l1.42-4c.03-.11.05-.23.05-.34V8.47c0-2.49-2.02-4.5-4.5-4.5h-5Zm-6-1c-1.66 0-3 1.34-3 3v2h-2V6c0-2.77 2.23-5 5-5H13c2.03 0 3.72 1.52 3.96 3.5h.03V5v1.7c.88.38 1.5 1.26 1.5 2.29v2c0 1.02-.62 1.9-1.5 2.292v1.7h-2v-1.71c-.89-.39-1.5-1.27-1.5-2.292v-2c0-1.03.61-1.91 1.5-2.3V4.97c0-1.11-.9-2-2-2h-5.5ZM16 8.5c-.28 0-.5.22-.5.5v2c0 .27.22.5.5.5 .27 0 .5-.23.5-.5V9c0-.28-.23-.5-.5-.5Z"/></g></svg>