<svg viewBox="0 0 24 24" xmlns="http://www.w3.org/2000/svg"><g fill-rule="evenodd"><path d="M8 7c-.56 0-1 .44-1 1v14c0 .55.44 1 1 1h14c.55 0 1-.45 1-1V8c0-.56-.45-1-1-1H8Zm3.55 5.968c-.36.59-.56 1.29-.56 2.032 0 .74.2 1.43.55 2.032l.73-.74c-.19-.4-.3-.84-.3-1.3 0-.47.1-.91.29-1.3l-.74-.74Zm1.41-1.42l.73.73c.39-.19.83-.3 1.29-.3 .46 0 .9.1 1.29.29l.73-.74c-.6-.36-1.3-.56-2.032-.56 -.75 0-1.44.2-2.032.55Zm2.032 7.44c-.75 0-1.44-.21-2.032-.56l.73-.74c.39.18.83.29 1.29.29 .46 0 .9-.11 1.29-.3l.73.73c-.6.35-1.3.55-2.032.55Zm3.44-1.968c.35-.6.55-1.3.55-2.032 0-.75-.21-1.44-.56-2.032l-.74.73c.18.39.29.83.29 1.29 0 .46-.11.9-.3 1.29l.73.73Zm-9.45-2.032c0-3.32 2.68-6 6-6 3.31 0 6 2.68 6 6 0 3.31-2.69 6-6 6 -3.32 0-6-2.69-6-6Zm5 0c0-.56.44-1 1-1 .55 0 1 .44 1 1 0 .55-.45 1-1 1 -.56 0-1-.45-1-1Z"/><path d="M2 9c-.56 0-1 .44-1 1v3c0 .55.44 1 1 1h3c.55 0 1-.45 1-1v-3c0-.56-.45-1-1-1H2Z"/><path d="M6.75 3C5.5 3 4.5 4 4.5 5.25V10h-2V5.25C2.5 2.9 4.4 1 6.75 1 9.09 1 11 2.9 11 5.25V8H9V5.25C9 4 7.99 3 6.75 3Z"/></g></svg>