<svg viewBox="0 0 24 24" xmlns="http://www.w3.org/2000/svg"><g fill-rule="evenodd"><path d="M10.33 1.55c.37-.16.8-.07 1.08.21l1.15 1.15v-.92h2v3.33c0 .4-.25.76-.62.92 -.38.15-.81.06-1.09-.22L11.7 4.86v.91H9.69V2.43c0-.41.24-.77.61-.93Z"/><path d="M4 14.85c0-4.5 3.64-8.15 8.14-8.15 4.49 0 8.14 3.64 8.14 8.14 0 4.49-3.65 8.14-8.15 8.14s-8.15-3.65-8.15-8.15Zm8.14-5.77c.4 0 .77.24.92.62l1.9 4.76c.09.23.09.5 0 .74l-1.91 4.76c-.16.37-.52.62-.93.62 -.41 0-.78-.25-.93-.63l-1.91-4.77c-.1-.24-.1-.51 0-.75l1.9-4.77c.15-.38.51-.63.92-.63Z"/></g></svg>