<svg viewBox="0 0 24 24" xmlns="http://www.w3.org/2000/svg"><g fill-rule="evenodd"><path d="M9.8 5.39c-4.87 0-8.81 3.94-8.81 8.8 0 4.86 3.94 8.8 8.8 8.8 4.86 0 8.8-3.95 8.8-8.81 0-4.87-3.95-8.81-8.81-8.81Z"/><path d="M19.88 1.42c-.19-.27-.5-.43-.82-.43 -.33 0-.63.15-.82.42l-.86 1.2 -1.42.43c-.31.09-.56.33-.66.64 -.11.3-.05.64.14.9l.88 1.18 -.02 1.47c-.01.32.14.63.41.82 .26.19.6.24.9.13L19 7.7l1.39.47c.3.1.64.05.9-.14 .26-.2.41-.5.41-.83l-.02-1.48 .88-1.19c.19-.27.24-.6.14-.91 -.11-.31-.35-.55-.66-.65l-1.42-.44 -.86-1.21Z"/></g></svg>