<svg viewBox="0 0 24 24" xmlns="http://www.w3.org/2000/svg"><g fill-rule="evenodd"><path d="M12 3c-4.98 0-9 4.02-9 9 0 4.97 4.02 9 9 9 4.97 0 9-4.03 9-9 0-4.98-4.03-9-9-9ZM1 12C1 5.92 5.92 1 12 1c6.07 0 11 4.92 11 11 0 6.07-4.93 11-11 11C5.92 23 1 18.07 1 12Z"/><path d="M15.4 1.53l-.57-.19 -.44.41c-.84.79-1.68 2.22-2.31 3.95 -.65 1.75-1.1 3.92-1.1 6.27 0 2.34.45 4.51 1.09 6.27 .63 1.73 1.47 3.15 2.3 3.95l.43.41 .56-.19c4.4-1.44 7.58-5.57 7.59-10.46v-.01 -.01c0-4.89-3.19-9.03-7.6-10.461Z"/></g></svg>