<svg viewBox="0 0 24 24" xmlns="http://www.w3.org/2000/svg"><g fill-rule="evenodd"><path d="M3.46 5.41c0-2.17 1.75-3.93 3.92-3.93 2.16 0 3.92 1.75 3.92 3.92v8.5c.9.96 1.46 2.26 1.46 3.69 0 2.97-2.42 5.39-5.4 5.39 -2.98 0-5.4-2.42-5.4-5.4 0-1.43.55-2.73 1.46-3.7V5.37Zm.97 12.19c0-1.63 1.32-2.96 2.95-2.96 1.62 0 2.95 1.32 2.95 2.95 0 1.62-1.33 2.95-2.96 2.95s-2.96-1.33-2.96-2.96Z"/><path d="M15.19 5.39c-1.63 0-2.96 1.32-2.96 2.95 0 1.62 1.32 2.95 2.95 2.95 1.62 0 2.95-1.33 2.95-2.96s-1.33-2.96-2.96-2.96Z"/><path d="M14.19 3.95V1.99h2v1.95h-2Z"/><path d="M14.19 14.68v-1.96h2v1.95h-2Z"/><path d="M18.97 13.53l-1.38-1.38L19 10.73l1.37 1.37 -1.42 1.41Z"/><path d="M19 5.94l1.37-1.38 -1.42-1.42 -1.38 1.37 1.41 1.41Z"/><path d="M21.53 9.34h-1.96v-2h1.95v2Z"/></g></svg>