<svg viewBox="0 0 24 24" xmlns="http://www.w3.org/2000/svg"><g fill-rule="evenodd"><path d="M9 5c-4.42 0-8 3.58-8 8 0 4.41 3.58 8 8 8 3.39 0 6.28-2.12 7.45-5.09 .17-.45.01-.95-.39-1.21s-.92-.21-1.26.12c-.73.71-1.72 1.16-2.82 1.16 -2.21 0-4-1.8-4-4 0-2.21 1.79-4 4-4 .18 0 .36.01.54.03 .46.06.91-.21 1.07-.66 .15-.45-.02-.94-.42-1.19 -1.23-.76-2.67-1.2-4.22-1.2Z"/><path d="M18.81 2.92c-.19-.27-.5-.43-.82-.43 -.33 0-.63.15-.82.42l-.89 1.24 -1.46.45c-.31.09-.56.33-.66.64 -.11.3-.05.64.14.9l.91 1.22 -.02 1.52c-.01.32.14.63.41.82 .26.19.6.24.9.13l1.44-.49 1.44.48c.3.1.64.05.9-.14 .26-.2.41-.5.41-.83l-.02-1.53 .91-1.23c.19-.27.24-.6.14-.91 -.11-.31-.35-.55-.66-.65l-1.46-.46 -.89-1.25Z"/></g></svg>