<svg viewBox="0 0 24 24" xmlns="http://www.w3.org/2000/svg"><g fill-rule="evenodd"><path d="M7.29 7.81c-2.18 0-4.08 1.49-4.42 3.56C1.8 11.73.98 12.7.98 13.91c0 1.55 1.33 2.7 2.82 2.7h1.09 6.2c.4 0 .78-.09 1.13-.23 1.37-.5 2.41-1.77 2.41-3.33 0-2.03-1.74-3.56-3.74-3.56 -.03 0-.05 0-.07 0 -.83-1.05-2.14-1.71-3.59-1.71Z"/><path d="M14.07 5.65c-1.39.85-2.32 2.38-2.32 4.13 0 .13 0 .27.01.4l-2 .16c-.02-.19-.03-.38-.03-.57 0-3.78 3.06-6.85 6.84-6.85 .43-.01.81.27.94.68 .13.4-.01.85-.35 1.11 -.95.7-1.55 1.83-1.55 3.09 0 2 1.52 3.65 3.48 3.84 .12.01.25.01.38.01 .71 0 1.38-.2 1.96-.54 .37-.22.84-.18 1.16.1 .32.28.43.74.26 1.13 -1.04 2.47-3.47 4.21-6.32 4.21 -1.4 0-2.7-.42-3.79-1.141l1.1-1.67c.76.5 1.68.8 2.67.8 1.06 0 2.04-.35 2.84-.93 -.18-.01-.34-.02-.51-.03 -2.97-.3-5.29-2.8-5.29-5.84 0-.78.14-1.51.41-2.19Z"/><path d="M7.98 19.43c-.38-.32-.92-.33-1.3-.01l-1.63 1.35 -1.29-1.54 1.62-1.36c1.12-.94 2.76-.93 3.87.02l.71.61c.39.34.98.31 1.35-.06l.19-.2c1.17-1.18 3.07-1.18 4.24 0l.3.3c.34.34.89.39 1.28.1l2.02-1.45 1.16 1.62 -2.03 1.44c-1.2.85-2.83.71-3.865-.32l-.31-.31c-.4-.4-1.03-.4-1.42 0l-.2.19c-1.11 1.1-2.89 1.17-4.08.15l-.72-.62Z"/></g></svg>