<svg viewBox="0 0 24 24" xmlns="http://www.w3.org/2000/svg"><g fill-rule="evenodd"><path d="M14.18 4.72c-2.38 0-4.47 1.61-4.82 3.86 -1.18.36-2.09 1.39-2.09 2.71 0 1.66 1.44 2.86 3.03 2.86h1.22 6.91c.43 0 .84-.09 1.22-.25 1.48-.53 2.62-1.88 2.62-3.56 0-2.18-1.91-3.8-4.06-3.8 -.05 0-.1 0-.14 0 -.9-1.15-2.34-1.87-3.933-1.87Z"/><path d="M9.81 3c1.66 0 2.86 1.21 2.86 2.53 0 .04-.01.08-.01.12l1.99.11c0-.09 0-.17 0-.25 0-2.587-2.27-4.54-4.87-4.54 -1.6 0-3.04.71-3.94 1.86 -.05-.01-.1-.01-.14-.01 -2.16 0-4.06 1.61-4.06 3.79 0 1.67 1.13 3.02 2.62 3.55 .37.15.78.24 1.22.24h4.593V8.39H5.48c-.18 0-.34-.04-.47-.1 -.03-.02-.05-.02-.08-.03 -.82-.28-1.31-.96-1.31-1.67 0-.91.83-1.8 2.05-1.8 .15 0 .3.01.44.04 .42.08.84-.12 1.05-.5 .45-.82 1.41-1.42 2.56-1.42Z"/><path d="M7.98 16.88c-.38-.32-.92-.33-1.3-.01l-1.5 1.24 -1.29-1.54 1.49-1.25c1.12-.94 2.76-.93 3.87.02l.56.48c.39.34.98.31 1.35-.06l.06-.07c1.17-1.18 3.07-1.18 4.24 0l.17.17c.34.34.89.39 1.28.1l1.87-1.35 1.16 1.62 -1.88 1.34c-1.2.85-2.83.71-3.87-.32l-.18-.18c-.4-.4-1.03-.4-1.42 0l-.07.06c-1.11 1.1-2.89 1.17-4.08.15l-.57-.49Z"/><path d="M7.98 21.06c-.38-.32-.92-.33-1.3-.01l-1.5 1.24 -1.29-1.54 1.49-1.25c1.12-.94 2.76-.93 3.87.02l.56.48c.39.34.98.31 1.35-.06l.06-.07c1.17-1.18 3.07-1.18 4.24 0l.17.17c.34.34.89.39 1.28.1l1.87-1.35 1.16 1.62 -1.88 1.34c-1.2.85-2.83.71-3.87-.32l-.18-.18c-.4-.4-1.03-.4-1.42 0l-.07.06c-1.11 1.1-2.89 1.17-4.08.15l-.57-.49Z"/></g></svg>