<svg viewBox="0 0 24 24" xmlns="http://www.w3.org/2000/svg"><g fill-rule="evenodd"><path d="M14.34 9c-2.54 0-4.76 1.73-5.11 4.13 -1.26.37-2.24 1.46-2.24 2.86 0 1.73 1.51 3 3.18 3h1.31 7.43c.45 0 .88-.09 1.28-.26 1.57-.56 2.77-1.99 2.77-3.75 0-2.3-2.003-4-4.29-4 -.07 0-.13 0-.19 0 -.95-1.23-2.49-2.01-4.2-2.01Z"/><path d="M9.65 7c1.82 0 3.15 1.33 3.15 2.8 0 .04-.01.09-.01.14l1.99.11c0-.09 0-.18 0-.26 0-2.74-2.4-4.8-5.16-4.8 -1.71 0-3.25.77-4.2 2 -.07-.01-.13-.01-.19-.01 -2.28 0-4.29 1.7-4.29 4 0 1.76 1.2 3.19 2.77 3.74 .39.16.83.25 1.28.25h4.93v-2H4.98c-.2 0-.38-.04-.54-.11 -.03-.02-.05-.02-.08-.03 -.91-.31-1.46-1.07-1.46-1.87 0-1.03.93-2 2.28-2 .16 0 .33.01.48.04 .42.08.84-.12 1.05-.5 .5-.9 1.55-1.56 2.82-1.56Z"/></g></svg>