<svg viewBox="0 0 24 24" xmlns="http://www.w3.org/2000/svg"><g fill-rule="evenodd"><path d="M16.03 9.63c-2.05 0-3.84 1.4-4.18 3.34 -1.01.35-1.77 1.27-1.77 2.42 0 1.49 1.27 2.59 2.7 2.59h1.02 5.79c.38 0 .75-.08 1.08-.22 1.3-.48 2.29-1.69 2.29-3.17 0-1.94-1.66-3.39-3.56-3.39l-.04 0c-.79-.98-2.02-1.6-3.38-1.6Z"/><path d="M10.09 7V2.9h2v4.09h-2Z"/><path d="M6.09 13h-4.1v-2h4.09v2Z"/><path d="M10.09 21.09v-4.1h2v4.09h-2Z"/><path d="M6.84 9.17l-2.9-2.9 1.41-1.42 2.89 2.89 -1.42 1.41Z"/><path d="M15.33 9.17l2.89-2.9 -1.42-1.42 -2.9 2.89 1.41 1.41Z"/><path d="M5.36 19.13l2.89-2.9 -1.42-1.42 -2.9 2.89 1.41 1.41Z"/><path d="M11.09 8.45c-1.96 0-3.55 1.58-3.55 3.54 0 1.95 1.58 3.54 3.54 3.54h.45v2h-.46c-3.07 0-5.55-2.49-5.55-5.55 0-3.07 2.48-5.55 5.54-5.55 2.48 0 4.58 1.63 5.29 3.88l-1.91.59c-.46-1.44-1.8-2.49-3.39-2.49Z"/></g></svg>