<svg viewBox="0 0 24 24" xmlns="http://www.w3.org/2000/svg"><g fill-rule="evenodd"><path d="M11.107 1c-3.44 0-6.32 2.52-6.63 5.83 -1.71.41-3.01 1.9-3.01 3.74 0 2.16 1.81 3.85 3.97 3.85h1.78 10.119c.58 0 1.13-.13 1.63-.35 2.04-.75 3.53-2.67 3.53-4.95 0-2.96-2.49-5.29-5.47-5.29 -.14 0-.28 0-.41.01 -1.2-1.74-3.25-2.88-5.55-2.88Z"/><path d="M14.96 22v-4.77h2v4.76h-2Z"/><path d="M17.52 21.67l-4.13-2.39 1-1.74 4.12 2.38 -1 1.73Z"/><path d="M14.4 21.67l4.12-2.39 -1-1.74 -4.13 2.38 1 1.73Z"/><path d="M7.34 20.57V15.8h2v4.76h-2Z"/><path d="M9.9 20.247l-4.13-2.39 1-1.74 4.12 2.38 -1.01 1.73Z"/><path d="M6.78 20.247l4.12-2.39 -1.01-1.74 -4.13 2.38 1 1.73Z"/></g></svg>