<svg viewBox="0 0 24 24" xmlns="http://www.w3.org/2000/svg"><g fill-rule="evenodd"><path d="M14.63 6.85c-2.18 0-4.08 1.5-4.43 3.57 -1.08.36-1.89 1.33-1.89 2.55 0 1.55 1.33 2.7 2.82 2.7h1.09 6.21c.4 0 .78-.09 1.13-.23 1.37-.5 2.42-1.78 2.42-3.34 0-2.04-1.75-3.57-3.75-3.57 -.03 0-.05 0-.07 0 -.83-1.05-2.14-1.71-3.59-1.71Z"/><path d="M9.81 5.92c-1.61 0-2.91 1.29-2.91 2.9 0 1.47 1.1 2.7 2.53 2.87l-.25 1.98c-2.42-.31-4.3-2.37-4.3-4.87 0-2.71 2.19-4.91 4.9-4.91 2.28 0 4.2 1.56 4.74 3.67l-1.94.49c-.33-1.26-1.46-2.18-2.82-2.18Z"/><path d="M10.81 2v2.92H8.8V1.99h2Z"/><path d="M5.64 2.75L7.7 4.81 6.28 6.22 4.21 4.15l1.41-1.42Z"/><path d="M14.1 2.75l-2.07 2.06c-.02.01-.04.03-.06.05l-.26.29 1.51 1.3 .23-.27 2.04-2.05 -1.42-1.42Z"/><path d="M6.41 11.049l-2.07 2.06 1.41 1.41 2.06-2.07 -1.42-1.42Z"/><path d="M2.98 7.82H5.9v2H2.97v-2Z"/><path d="M3.96 17.14c-.26 0-.47.2-.47.46 0 .25.2.46.46.46h7.31v2H3.94c-1.37 0-2.47-1.11-2.47-2.47 0-1.37 1.1-2.47 2.46-2.47h.48v2h-.49Z"/><path d="M7.37 21c-.26 0-.47-.21-.47-.47s.2-.47.46-.47h4.39v-2h-4.4c-1.37 0-2.47 1.1-2.47 2.46 0 1.36 1.1 2.46 2.46 2.46h.48v-2h-.49Z"/><path d="M12.77 20.22l.97-2.93 1.89.63 -.98 2.92 -1.9-.64Z"/><path d="M16.18 20.22l.97-2.93 1.89.63 -.98 2.92 -1.9-.64Z"/><path d="M19.6 20.22l.97-2.93 1.89.63 -.98 2.92 -1.9-.64Z"/></g></svg>