<svg viewBox="0 0 24 24" xmlns="http://www.w3.org/2000/svg"><g fill-rule="evenodd"><path d="M14.566 7.31c-2.33 0-4.36 1.61-4.7 3.83 -1.15.37-2.03 1.39-2.03 2.69 0 1.63 1.39 2.84 2.97 2.84h1.18 6.71c.42 0 .83-.09 1.2-.25 1.46-.53 2.56-1.88 2.56-3.53 0-2.15-1.84-3.77-3.97-3.77 -.04 0-.08 0-.12 0 -.88-1.13-2.28-1.85-3.84-1.85Z"/><path d="M9.36 6.15c-1.78 0-3.22 1.43-3.22 3.21 0 1.63 1.22 2.98 2.8 3.18l-.25 1.98C6.11 14.19 4.12 12 4.12 9.34c0-2.88 2.33-5.22 5.21-5.22 2.42 0 4.46 1.66 5.04 3.9l-1.94.49c-.36-1.39-1.62-2.41-3.11-2.41Z"/><path d="M10.36 2v3.15H8.35V1.99h2Z"/><path d="M7.02 5.08L4.8 2.86 3.38 4.27 5.61 6.5c.01.01.02.02.04.03l.14.12 1.33-1.5 -.13-.11Z"/><path d="M14.05 2.87L11.81 5.1c-.02.01-.03.02-.04.03l-.31.34 1.48 1.34 .29-.33 2.21-2.22 -1.42-1.42Z"/><path d="M5.75 11.81l-2.24 2.23 1.41 1.41 2.23-2.24 -1.42-1.42Z"/><path d="M2 8.36h3.15v1.99H1.99v-2Z"/><path d="M21.47 19.84H2.52v-2h18.94v2Z"/><path d="M21.47 23H7.25v-2h14.21v2Z"/></g></svg>