<svg viewBox="0 0 24 24" xmlns="http://www.w3.org/2000/svg"><g fill-rule="evenodd"><path d="M14.43 7c-2.23 0-4.17 1.53-4.51 3.65 -1.1.36-1.93 1.35-1.93 2.59 0 1.58 1.35 2.75 2.87 2.75h1.125 6.37c.4 0 .8-.09 1.15-.24 1.4-.51 2.46-1.81 2.46-3.4 0-2.07-1.78-3.625-3.82-3.625 -.03 0-.06 0-.09 0 -.84-1.08-2.19-1.76-3.67-1.76Z"/><path d="M9.5 6c-1.66 0-3 1.34-3 3 0 1.52 1.14 2.79 2.62 2.97l-.25 1.98c-2.47-.31-4.38-2.42-4.38-4.97 0-2.77 2.23-5 5-5 2.33 0 4.28 1.59 4.84 3.75l-1.94.49c-.34-1.3-1.51-2.25-2.91-2.25Z"/><path d="M10.5 2v3h-2V2h2Z"/><path d="M5.2 2.79l2.12 2.12L5.9 6.32 3.77 4.19l1.41-1.42Z"/><path d="M13.91 2.79l-2.5 2.5 1.41 1.41 2.5-2.5 -1.42-1.42Z"/><path d="M6.03 11.29L3.9 13.41l1.41 1.41 2.12-2.13 -1.42-1.42Z"/><path d="M2.5 8h3v2h-3V8Z"/><path d="M13.03 18.22l1-3.5 1.923.54 -.64 2.22h.67c.31 0 .61.15.8.4 .18.25.24.58.15.88l-1 3.25 -1.92-.59 .6-1.96h-.65c-.32 0-.61-.15-.8-.4 -.19-.26-.25-.58-.17-.88Z"/><path d="M20.45 15.3l.07-.2 -1.89-.68 -.09.22c-.01.02-.02.04-.03.06l-1 3.5c-.09.3-.03.62.16.87 .18.25.48.39.79.39h.64l-.61 1.95 1.91.58 1-3.25c.09-.31.03-.64-.16-.89 -.19-.26-.49-.41-.81-.41h-.68l.62-2.2Z"/><path d="M8.53 18.22l1-3.5 1.92.54 -.64 2.22h.67c.31 0 .61.15.8.4 .18.25.24.58.15.88l-1 3.25 -1.92-.59 .6-1.96h-.65c-.32 0-.61-.15-.8-.4 -.19-.26-.25-.58-.17-.88Z"/></g></svg>