<svg viewBox="0 0 24 24" xmlns="http://www.w3.org/2000/svg"><g fill-rule="evenodd"><path d="M1.5 6c0-1.39 1.11-2.5 2.5-2.5h16c1.38 0 2.5 1.11 2.5 2.5v9c0 1.38-1.12 2.5-2.5 2.5h-2v-1h2c.82 0 1.5-.68 1.5-1.5V6c0-.83-.68-1.5-1.5-1.5H4c-.83 0-1.5.67-1.5 1.5v9c0 .82.67 1.5 1.5 1.5h2v1H4c-1.39 0-2.5-1.12-2.5-2.5V6Z"/><path d="M12 13.5c.17 0 .34.09.43.24l3.5 6c.09.15.09.34 0 .5 -.09.15-.26.25-.44.25h-7c-.18 0-.35-.1-.44-.26 -.09-.16-.09-.35 0-.51l3.49-6c.08-.16.25-.25.43-.25Zm-2.63 6h5.25l-2.63-4.51 -2.63 4.5Z"/></g></svg>