<svg viewBox="0 0 24 24" xmlns="http://www.w3.org/2000/svg"><g fill-rule="evenodd"><path d="M6.51 1.86c.05-.22.25-.37.48-.37h8c.16 0 .32.08.41.22 .09.14.1.31.04.47l-2.71 6.3h3.24c.18 0 .35.1.43.26 .08.16.07.35-.03.51L7.86 22.24c-.13.19-.38.27-.61.19 -.23-.09-.36-.32-.32-.55l1.4-8.42H3.92c-.16 0-.31-.08-.4-.2 -.1-.13-.13-.29-.09-.44l3-11Zm.86.63l-2.73 10h4.34c.14 0 .28.06.38.17 .09.11.13.26.11.4l-1.11 6.65 6.69-10.24h-3.08c-.17 0-.33-.09-.42-.23 -.1-.15-.11-.32-.05-.48l2.7-6.31H7.34Z"/><path d="M18.5 13c.2 0 .38.12.46.3l3.5 8.5 -.93.38 -3.04-7.38 -3.04 7.37 -.93-.39 3.5-8.5c.07-.19.25-.31.46-.31Z"/><path d="M16.5 18h4v1h-4v-1Z"/></g></svg>