<svg viewBox="0 0 24 24" xmlns="http://www.w3.org/2000/svg"><g fill-rule="evenodd"><path d="M10.23 5.5c-.57 0-1.09.32-1.35.82l-.4.78c-.43.84-1.29 1.38-2.24 1.38H4.97c-.83 0-1.5.67-1.5 1.5v9c0 .82.67 1.5 1.5 1.5h14c.82 0 1.5-.68 1.5-1.5v-8.5h1v8.5c0 1.38-1.12 2.5-2.5 2.5h-14c-1.39 0-2.5-1.12-2.5-2.5v-9c0-1.39 1.11-2.5 2.5-2.5h1.26c.56 0 1.08-.33 1.34-.83l.39-.79c.42-.85 1.28-1.39 2.23-1.39h2.26v1h-2.27Z"/><path d="M12 10.5c-1.94 0-3.5 1.56-3.5 3.5 0 1.93 1.56 3.5 3.5 3.5 1.93 0 3.5-1.57 3.5-3.5 0-1.94-1.57-3.5-3.5-3.5ZM7.5 14c0-2.49 2.01-4.5 4.5-4.5 2.48 0 4.5 2.01 4.5 4.5 0 2.48-2.02 4.5-4.5 4.5 -2.49 0-4.5-2.02-4.5-4.5Z"/><path d="M16.55 7.89l1.59 1.59 -.71.7 -2.46-2.46c-.15-.15-.19-.36-.11-.55 .07-.19.25-.31.46-.31h6.65v1h-5.45Z"/><path d="M19.55 2.14L22 4.58c.14.14.18.35.1.54 -.08.18-.26.3-.47.3h-6.65v-1h5.44l-1.6-1.6 .7-.71Z"/></g></svg>