<svg viewBox="0 0 24 24" xmlns="http://www.w3.org/2000/svg"><g fill-rule="evenodd"><path d="M7 5c0-.28.22-.5.5-.5H17c.27 0 .5.22.5.5v6.5c0 .27-.23.5-.5.5H7.5c-.28 0-.5-.23-.5-.5V5Zm1 .5V11h8.5V5.5H8Z"/><path d="M16.5 13.5c0-.28.22-.5.5-.5h4c.27 0 .5.22.5.5v4c0 .27-.23.5-.5.5h-4c-.28 0-.5-.23-.5-.5v-4Zm1 .5v3h3v-3h-3Z"/><path d="M16.5 9.5c0-.28.22-.5.5-.5h4c.27 0 .5.22.5.5v4c0 .27-.23.5-.5.5h-4c-.28 0-.5-.23-.5-.5v-4Zm1 .5v3h3v-3h-3Z"/><path d="M16.5 5.5c0-.28.22-.5.5-.5h4c.27 0 .5.22.5.5v4c0 .27-.23.5-.5.5h-4c-.28 0-.5-.23-.5-.5v-4Zm1 .5v3h3V6h-3Z"/><path d="M7 11.5c0-.28.22-.5.5-.5H17c.27 0 .5.22.5.5v7c0 .27-.23.5-.5.5H7.5c-.28 0-.5-.23-.5-.5v-7Zm1 .5v6h8.5v-6H8Z"/><path d="M16.5 22V2h1v20h-1Z"/><path d="M20.5 22V2h1v20h-1Z"/><path d="M8 13.5c0-.28-.23-.5-.5-.5h-4c-.28 0-.5.22-.5.5v4c0 .27.22.5.5.5h4c.27 0 .5-.23.5-.5v-4ZM7 14v3H4v-3h3Z"/><path d="M8 9.5c0-.28-.23-.5-.5-.5h-4c-.28 0-.5.22-.5.5v4c0 .27.22.5.5.5h4c.27 0 .5-.23.5-.5v-4ZM7 10v3H4v-3h3Z"/><path d="M8 5.5c0-.28-.23-.5-.5-.5h-4c-.28 0-.5.22-.5.5v4c0 .27.22.5.5.5h4c.27 0 .5-.23.5-.5v-4ZM7 6v3H4V6h3Z"/><path d="M4 22V2H3v20h1Z"/><path d="M7 22V2h1v20H7Z"/></g></svg>