<svg viewBox="0 0 24 24" xmlns="http://www.w3.org/2000/svg"><g fill-rule="evenodd"><path d="M13.31 5.69c-.33-.27-.82-.03-.82.39v11.83c0 .41.48.65.81.39l7.39-5.92c.25-.21.25-.59 0-.79l-7.4-5.92Zm-1.82.39c0-1.26 1.45-1.96 2.43-1.18l7.39 5.91c.75.6.75 1.74 0 2.34l-7.4 5.91c-.99.78-2.44.08-2.44-1.18V6.04Z"/><path d="M3.31 5.69c-.33-.27-.82-.03-.82.39v11.83c0 .41.48.65.81.39l7.39-5.92c.25-.21.25-.59 0-.79l-7.4-5.92Zm-1.82.39c0-1.26 1.45-1.96 2.43-1.18l7.39 5.91c.75.6.75 1.74 0 2.34l-7.4 5.91c-.99.78-2.44.08-2.44-1.18V6.04Z"/></g></svg>