<svg viewBox="0 0 24 24" xmlns="http://www.w3.org/2000/svg"><g fill-rule="evenodd"><path d="M1.5 6c0-1.39 1.11-2.5 2.5-2.5h13c1.38 0 2.5 1.11 2.5 2.5v9.6c0 1.38-1.12 2.5-2.5 2.5H4c-1.39 0-2.5-1.12-2.5-2.5V6ZM4 4.5c-.83 0-1.5.67-1.5 1.5v9.6c0 .82.67 1.5 1.5 1.5h13c.82 0 1.5-.68 1.5-1.5V6c0-.83-.68-1.5-1.5-1.5H4Z"/><path d="M7.73 10.44c-.59-.59-1.54-.59-2.13 0L2.33 13.7l-.71-.71 3.26-3.27c.97-.98 2.55-.98 3.53 0l7.51 7.51 -.71.7 -7.52-7.52Z"/><path d="M15.81 13.41c-.59-.59-1.54-.59-2.13 0l-1.14 1.13 -.71-.71 1.13-1.14c.97-.98 2.55-.98 3.53 0l2.83 2.83 -.71.7 -2.84-2.84Z"/><path d="M21.5 18.5V7h1v11.5c0 1.38-1.12 2.5-2.5 2.5H5v-1h15c.82 0 1.5-.68 1.5-1.5Z"/></g></svg>