<svg viewBox="0 0 24 24" xmlns="http://www.w3.org/2000/svg"><g fill-rule="evenodd"><path d="M18.5 9h-6V8h6v1Z"/><path d="M4 2.5c-.83 0-1.5.67-1.5 1.5v16c0 .82.67 1.5 1.5 1.5h16c.82 0 1.5-.68 1.5-1.5v-4.5h1V20c0 1.38-1.12 2.5-2.5 2.5H4c-1.39 0-2.5-1.12-2.5-2.5V4c0-1.39 1.11-2.5 2.5-2.5h4.5v1H4Z"/><path d="M8.07 16.12c-.58-.72-1.66-.75-2.28-.07l-3.44 3.77 -.74-.68 3.43-3.78c1.02-1.14 2.82-1.09 3.79.1l5.03 6.19 -.78.63 -5.04-6.2Z"/><path d="M17.46 18.67c-.56-.56-1.46-.59-2.05-.07l-2.6 2.26 -.66-.76 2.59-2.27c.99-.87 2.48-.82 3.41.11l3.17 3.17 -.71.7 -3.18-3.18Z"/><path d="M15.5 2.5c-3.32 0-6 2.68-6 6 0 3.31 2.68 6 6 6 3.31 0 6-2.69 6-6 0-3.32-2.69-6-6-6Zm-7 6c0-3.87 3.13-7 7-7 3.86 0 7 3.13 7 7 0 3.86-3.14 7-7 7 -3.87 0-7-3.14-7-7Z"/></g></svg>