<svg viewBox="0 0 24 24" xmlns="http://www.w3.org/2000/svg"><g fill-rule="evenodd"><path d="M21.64 12.52c.21.06.35.25.35.47v6.5c0 1.38-1.12 2.5-2.5 2.5h-15c-1.39 0-2.5-1.12-2.5-2.5v-6.5c0-.19.09-.35.25-.44 .15-.09.34-.09.5 0l4.66 2.79 2.72-2.73c.19-.2.51-.2.7 0l2.64 2.64 2.64-2.65c.19-.2.51-.2.7 0l2.56 2.56 1.66-2.5c.12-.19.35-.27.56-.21ZM2.99 13.88v5.61c0 .82.67 1.5 1.5 1.5h15c.82 0 1.5-.68 1.5-1.5v-4.85l-1.09 1.62c-.09.12-.22.2-.37.22 -.15.01-.3-.04-.41-.15l-2.65-2.65 -2.65 2.64c-.2.19-.52.19-.71 0l-2.65-2.65 -2.65 2.64c-.17.16-.42.19-.62.07l-4.25-2.55Z"/><path d="M2.3 10.96c.18.07.4.03.54-.11L5.48 8.2l2.64 2.64c.19.19.51.19.7 0l2.64-2.65 2.64 2.64c.09.09.22.14.35.14 .13 0 .25-.06.35-.15l2.69-2.7 3.65 2.73c.15.11.35.13.52.04 .16-.09.27-.26.27-.45V3.93c0-1.39-1.12-2.5-2.5-2.5h-15c-1.39 0-2.5 1.11-2.5 2.5v6.5c0 .2.12.38.3.46Zm18.69-1.47l-3.2-2.4c-.2-.15-.48-.13-.66.04l-2.65 2.64 -2.65-2.65c-.2-.2-.52-.2-.71 0L8.47 9.76 5.82 7.11c-.2-.2-.52-.2-.71 0L2.96 9.25v-5.3c0-.83.67-1.5 1.5-1.5h15c.82 0 1.5.67 1.5 1.5v5.5Z"/></g></svg>