<svg viewBox="0 0 24 24" xmlns="http://www.w3.org/2000/svg"><g fill-rule="evenodd"><path d="M21.35 20.64l-18-18.01 -.71.7 17.99 18 .7-.71Z"/><path d="M6 14.5c-1.39 0-2.5 1.11-2.5 2.5 0 1.38 1.11 2.5 2.5 2.5 1.38 0 2.5-1.12 2.5-2.5 0-1.39-1.12-2.5-2.5-2.5ZM2.5 17c0-1.94 1.56-3.5 3.5-3.5 1.93 0 3.5 1.56 3.5 3.5 0 1.93-1.57 3.5-3.5 3.5 -1.94 0-3.5-1.57-3.5-3.5Z"/><path d="M9.5 3.5v1.93h-1V3.49h1Zm0 5.87v7.87h-1V9.36h1Z"/><path d="M19.96 16.58c-.18-1.05-1.01-1.88-2.05-2.05l.16-.99c1.46.24 2.62 1.4 2.86 2.86l-.99.16Zm-4.48-1.08c-.32.41-.5.93-.5 1.49 0 1.38 1.11 2.5 2.5 2.5 .57 0 1.1-.2 1.52-.53l.61.79c-.6.45-1.34.73-2.14.73 -1.94 0-3.5-1.57-3.5-3.5 0-.79.25-1.51.69-2.1l.8.59Z"/><path d="M21 5.5v10.75h-1V5.5h1Z"/><path d="M8.5 3.59c0-.63.55-1.1 1.17-.99l10.49 1.82c.47.08.82.49.82.98v2.98c0 .62-.56 1.09-1.18.98L10.88 7.8l.17-.99 8.91 1.55V5.37L9.46 3.54v.9h-1v-.91Z"/></g></svg>