<svg viewBox="0 0 24 24" xmlns="http://www.w3.org/2000/svg"><g fill-rule="evenodd"><path d="M21.35 20.64l-18-18 -.71.7 17.99 17.99 .7-.71Z"/><path d="M3.5 13.5C3.5 12.11 4.61 11 6 11h.5C7.88 11 9 12.11 9 13.5V18c0 1.38-1.12 2.5-2.5 2.5H6c-1.39 0-2.5-1.12-2.5-2.5v-4.5ZM6 12c-.83 0-1.5.67-1.5 1.5V18c0 .82.67 1.5 1.5 1.5h.5c.82 0 1.5-.68 1.5-1.5v-4.5c0-.83-.68-1.5-1.5-1.5H6Z"/><path d="M16.24 11.33c.36-.22.79-.34 1.25-.34h.5c1.38 0 2.5 1.11 2.5 2.5v2.25h-1v-2.25c0-.83-.68-1.5-1.5-1.5h-.5c-.28 0-.53.07-.75.2l-.51-.87Zm-.25 4.16v2.5c0 .82.67 1.5 1.5 1.5h.5c.38 0 .72-.15.99-.38l.66.74c-.45.38-1.03.62-1.66.62h-.5c-1.39 0-2.5-1.12-2.5-2.5v-2.5h1Z"/><path d="M11 4.5c-.65 0-1.27.09-1.86.26l-.29-.96c.67-.21 1.39-.32 2.14-.32h2c4.14 0 7.5 3.35 7.5 7.5v4.5h-1v-4.5c0-3.59-2.92-6.5-6.5-6.5h-2ZM6.45 6.35c-1.21 1.18-1.96 2.82-1.96 4.64v4.5h-1v-4.5c0-2.1.86-4 2.25-5.36l.69.71Z"/></g></svg>