<svg viewBox="0 0 24 24" xmlns="http://www.w3.org/2000/svg"><g fill-rule="evenodd"><path d="M7 8.5c0-1.11.89-2 2-2 1.1 0 2 .89 2 2v7c0 1.1-.9 2-2 2 -1.11 0-2-.9-2-2v-7Zm2-1c-.56 0-1 .44-1 1v7c0 .55.44 1 1 1 .55 0 1-.45 1-1v-7c0-.56-.45-1-1-1Z"/><path d="M13 8.5c0-1.11.89-2 2-2 1.1 0 2 .89 2 2v7c0 1.1-.9 2-2 2 -1.11 0-2-.9-2-2v-7Zm2-1c-.56 0-1 .44-1 1v7c0 .55.44 1 1 1 .55 0 1-.45 1-1v-7c0-.56-.45-1-1-1Z"/><path d="M12 2.5c-5.25 0-9.5 4.25-9.5 9.5 0 5.24 4.25 9.5 9.5 9.5 5.24 0 9.5-4.26 9.5-9.5 0-5.25-4.26-9.5-9.5-9.5ZM1.5 12C1.5 6.2 6.2 1.5 12 1.5c5.79 0 10.5 4.7 10.5 10.5 0 5.79-4.71 10.5-10.5 10.5 -5.8 0-10.5-4.71-10.5-10.5Z"/></g></svg>