<svg viewBox="0 0 24 24" xmlns="http://www.w3.org/2000/svg"><g fill-rule="evenodd"><path d="M6.67 7.53c-.15.05-.18.14-.18.18v8.55c0 .04.02.13.17.18 .14.05.3.04.43-.04l6.29-4.28c.08-.06.1-.12.1-.16 0-.04-.02-.1-.11-.16l-6.3-4.28c-.13-.09-.3-.1-.44-.04Zm-.38-.93c.41-.17.93-.16 1.37.13L13.95 11c.33.23.53.59.53.97s-.2.74-.54.97l-6.3 4.27c-.44.29-.96.3-1.38.13 -.42-.17-.8-.56-.8-1.12V7.66c0-.56.38-.95.79-1.12Z"/><path d="M13.5 8.5c0-1.11.89-2 2-2 1.1 0 2 .89 2 2v7c0 1.1-.9 2-2 2 -1.11 0-2-.9-2-2v-7Zm2-1c-.56 0-1 .44-1 1v7c0 .55.44 1 1 1 .55 0 1-.45 1-1v-7c0-.56-.45-1-1-1Z"/></g></svg>