<svg viewBox="0 0 24 24" xmlns="http://www.w3.org/2000/svg"><path fill-rule="evenodd" d="M12 1C5.92 1 1 5.92 1 12c0 6.07 4.92 11 11 11 6.07 0 11-4.93 11-11 0-6.08-4.93-11-11-11Zm3.85 3.81c.09-.26.14-.53.14-.82 0-1-.61-1.77-1.33-2.25 -.73-.49-1.68-.76-2.676-.76 -1 0-1.95.26-2.68.75 -.73.48-1.33 1.25-1.33 2.24 0 .29.05.56.14.81 -.73 1.92-1.15 4.45-1.15 7.18 0 2.85.46 5.48 1.24 7.44 .38.97.87 1.83 1.47 2.45 .59.63 1.36 1.09 2.28 1.09 .91 0 1.68-.47 2.28-1.1 .59-.63 1.08-1.49 1.47-2.46 .78-1.96 1.24-4.59 1.24-7.45 0-2.74-.43-5.26-1.15-7.19Zm-1.57 1.65c-.67.34-1.47.53-2.3.53 -.84 0-1.64-.19-2.3-.54 -.44 1.52-.71 3.43-.71 5.53 0 2.66.43 5.035 1.1 6.69 .33.83.7 1.44 1.06 1.82 .36.38.64.47.83.47 .18 0 .46-.1.83-.48 .36-.39.73-1 1.06-1.83 .66-1.67 1.1-4.04 1.1-6.7 0-2.1-.27-4.01-.71-5.54Zm-4.3-2.47c0-.12.06-.34.43-.59 .35-.24.9-.42 1.56-.42 .65 0 1.2.17 1.56.41 .36.24.43.46.43.58 0 .11-.07.33-.44.58 -.36.23-.91.41-1.57.41s-1.21-.18-1.57-.42c-.37-.25-.44-.47-.44-.59Z"/></svg>