<svg viewBox="0 0 24 24" xmlns="http://www.w3.org/2000/svg"><path fill-rule="evenodd" d="M11.22 8.07L9.04 2.32c-.01-.02-.01-.03-.02-.04l-.34-.8c1.03-.33 2.14-.51 3.29-.51 1.13 0 2.22.17 3.25.48l-.31.83 -2.18 5.74c-.25-.05-.51-.08-.78-.08s-.53.02-.78.07Zm-3.08 5.02l-5.88.96h-.01l-1.06.17c.48 2.33 1.69 4.39 3.4 5.93l.57-.77c0-.02.01-.03.02-.04L9 14.67c-.42-.46-.73-1-.9-1.61Zm-7.15-.86c-.01-.08-.01-.16-.01-.25 0-4.22 2.37-7.89 5.86-9.73l.32.77 2.22 5.89c-.65.54-1.12 1.28-1.32 2.13l-6.16 1h-.01l-.96.15Zm21.04-.16l-6.15-1.01c-.2-.85-.67-1.6-1.32-2.14L16.79 3l0-.01v-.01l.28-.78c3.5 1.83 5.89 5.51 5.89 9.74 0 .08-.01.16-.01.24l-.96-.16h-.01Zm-.33 1.97l1.05.17c-.48 2.32-1.69 4.37-3.38 5.91l-.62-.77 -.01-.01v0l-3.83-4.67c.41-.46.72-1 .89-1.61l5.87.96h0Zm-8.46 1.73c-.4.13-.83.2-1.27.2 -.45 0-.87-.08-1.27-.21l-3.95 4.82 -.57.74c1.67 1.03 3.65 1.63 5.77 1.63 2.12 0 4.11-.61 5.79-1.66l-.58-.73 -3.96-4.834Z"/></svg>