<svg viewBox="0 0 24 24" xmlns="http://www.w3.org/2000/svg"><g fill-rule="evenodd"><path d="M2 14.99c-.34 0-.65.16-.84.44 -.19.27-.22.63-.1.93l2.5 6c.15.37.51.61.92.61h15c.4 0 .76-.25.92-.62l2.5-6c.12-.31.09-.67-.1-.94 -.19-.28-.5-.45-.84-.45h-20Z"/><path d="M10 3.99c0-.46-.31-.86-.75-.97 -.45-.12-.91.08-1.125.48l-5 9c-.18.3-.17.68.01.99 .17.3.5.49.86.49h5c.55 0 1-.45 1-1v-9Z"/><path d="M11 1.99c0-.43.26-.8.66-.95 .39-.15.84-.02 1.11.3l9 11c.24.29.29.71.12 1.06 -.17.34-.52.57-.91.57h-9c-.56 0-1-.45-1-1v-11Z"/></g></svg>