<svg viewBox="0 0 24 24" xmlns="http://www.w3.org/2000/svg"><g fill-rule="evenodd"><path d="M5.89 14.11c-2.06.88-2.9 1.99-2.9 2.88 0 .79.67 1.78 2.37 2.64 1.64.82 3.98 1.35 6.62 1.35 2.63 0 4.98-.54 6.62-1.36 1.7-.86 2.37-1.85 2.37-2.65 0-.89-.84-2-2.9-2.89l.78-1.84c2.22.95 4.1 2.56 4.1 4.71 0 1.96-1.57 3.47-3.49 4.43 -1.98.98-4.64 1.57-7.52 1.57 -2.89 0-5.55-.59-7.52-1.57C2.5 20.42.93 18.91.93 16.95c0-2.16 1.88-3.77 4.1-4.72l.78 1.83Z"/><path d="M9.7 4c-1.8-.72-3.79.42-4.08 2.32l-1.45 9.36c-.19 1.21.75 2.3 1.97 2.3H17.8c1.22 0 2.16-1.1 1.97-2.31L18.32 6.3c-.3-1.91-2.29-3.05-4.08-2.33l-1.93.76c-.24.09-.51.09-.75 0l-1.93-.77Z"/><path d="M5.5 12h13v2h-13v-2Z"/></g></svg>