<svg viewBox="0 0 24 24" xmlns="http://www.w3.org/2000/svg"><g fill-rule="evenodd"><path d="M2 13c-.56 0-1 .44-1 1 0 4.41 3.58 8 8 8 1.05 0 2.07-.21 3-.59 .92.37 1.94.58 3 .58 4.41 0 8-3.59 8-8 0-.56-.45-1-1-1h-6c-.56 0-1 .44-1 1 0 2.21-1.205 4.15-3 5.19 -1.795-1.04-3-2.98-3-5.2 0-.56-.45-1-1-1H2Z"/><path d="M5 9c.31 0 .61.14.8.4l3 4 -1.6 1.2L5 11.66l-2.2 2.93 -1.6-1.2 3-4c.18-.26.48-.4.8-.4Z"/><path d="M19 9c.31 0 .61.14.8.4l3 4 -1.6 1.2 -2.2-2.94 -2.2 2.93 -1.6-1.2 3-4c.18-.26.48-.4.8-.4Z"/><path d="M6 2v8H4V2h2Z"/><path d="M20 2v8h-2V2h2Z"/></g></svg>