<svg viewBox="0 0 24 24" xmlns="http://www.w3.org/2000/svg"><g fill-rule="evenodd"><path d="M8.16 6.25c-.32-.29-.78-.34-1.15-.14l-5.5 3c-.33.17-.53.51-.53.87v2c0 .55.44 1 1 1h4.58l2.7 2.7c.18.18.44.29.7.29h11c.36 0 .7-.21.88-.53 .17-.33.15-.72-.05-1.03l-1.84-2.75v-1.7c0-.29-.13-.57-.35-.76 -.22-.19-.51-.28-.8-.24l-6.55.93 -4.16-3.7Z"/><path d="M9.21 5.09c.28-.14.61-.13.89.02l1.86 1 -.95 1.76 -1.43-.77 -1.69.78 -.85-1.82 2.13-1Z"/><path d="M1 12c0-.56.44-1 1-1h5c.26 0 .51.1.7.29l2.7 2.7h11.58c.55 0 1 .44 1 1v3c0 .55-.45 1-1 1h-15c-3.32 0-6-2.69-6-6v-1Zm2 1c0 2.2 1.79 4 4 4h14v-1H10c-.27 0-.52-.11-.71-.3l-2.71-2.71H2.99Z"/></g></svg>