<svg viewBox="0 0 24 24" xmlns="http://www.w3.org/2000/svg"><g fill-rule="evenodd"><path d="M9.71 2.09c.59-.64 1.36-1.1 2.28-1.1 .91 0 1.68.46 2.28 1.09 .59.62 1.08 1.48 1.47 2.45 .78 1.95 1.24 4.58 1.24 7.44 0 2.85-.47 5.48-1.25 7.44 -.39.97-.88 1.83-1.48 2.45 -.6.63-1.37 1.09-2.29 1.09 -.92 0-1.69-.47-2.29-1.1 -.6-.63-1.09-1.49-1.48-2.46 -.79-1.96-1.25-4.59-1.25-7.45 0-2.86.46-5.49 1.24-7.45 .38-.98.87-1.84 1.47-2.46Zm0 7.43c.44-.79 1.21-1.53 2.28-1.53 1.06 0 1.83.74 2.28 1.52 .46.81.71 1.86.71 2.97 0 1.1-.26 2.16-.72 2.971 -.45.78-1.22 1.529-2.29 1.529s-1.84-.75-2.29-1.529c-.47-.82-.72-1.87-.72-2.971 0-1.11.25-2.17.71-2.98Z"/><path d="M4.7 1.29c-.4-.4-1.03-.4-1.42 0l-2 2c-.4.39-.4 1.02 0 1.41l2 2c.94.94 2.47.94 3.41 0 .94-.95.94-2.48 0-3.42l-2-2Z"/><path d="M17.293 20.7l2 2c.39.39 1.02.39 1.41 0l2-2c.39-.4.39-1.03 0-1.42l-2-2c-.95-.95-2.48-.95-3.42 0 -.95.94-.95 2.47 0 3.41Z"/><path d="M6.7 5.29l12 12 -1.42 1.41 -12-12 1.41-1.42Z"/></g></svg>