<svg viewBox="0 0 24 24" xmlns="http://www.w3.org/2000/svg"><g fill-rule="evenodd"><path d="M5.27 5.31c.18-.21.45-.32.72-.32h12c.27 0 .53.11.72.31 .18.2.28.47.26.74l-1 16c-.04.52-.47.93-1 .93h-10c-.53 0-.97-.42-1-.94l-1-16c-.02-.28.08-.55.26-.75Zm1.79 1.68l.875 14h8.12l.875-14H7.05Z"/><path d="M18 3c-1.66 0-3 1.34-3 3h-2c0-2.77 2.23-5 5-5 2.76 0 5 2.23 5 5 0 2.76-2.24 5-5 5V9c1.65 0 3-1.35 3-3 0-1.66-1.35-3-3-3Z"/><path d="M12.732 9.65c-1.84-1.7-4.64-1.61-6.37.19l-.56.57 -.12.1c-.24.2-.36.5-.34.81l.64 10.75c.03.52.46.93.99.93h10c.52 0 .96-.42.99-.94l.71-11.93 -1-.07v-1c-.33 0-.64.08-.92.25l-1.06.62c-.97.57-2.18.44-3.02-.33Z"/></g></svg>