<svg viewBox="0 0 24 24" xmlns="http://www.w3.org/2000/svg"><g fill-rule="evenodd"><path d="M13 2.04c-.33-.04-.67-.05-1-.05 -.34 0-.68.01-1 .04v5.05c.32-.07.65-.11 1-.11 .34 0 .67.03 1 .1V2.01Zm2 5.95c.37.28.71.62 1 1h5.54c-.98-3.12-3.44-5.57-6.55-6.55v5.54Zm2 4c0-.35-.04-.68-.1-1h5.05c.03.32.04.66.04 1 0 .33-.02.67-.05 1h-5.06c.06-.33.1-.66.1-1Zm-1 3c-.29.37-.63.71-1.01 1v5.54c3.11-.98 5.56-3.44 6.54-6.55h-5.55Zm-3.01 6.95v-5.06c-.33.06-.66.1-1 .1 -.35 0-.68-.04-1-.1v5.05c.32.03.66.04 1 .04 .33 0 .67-.02 1-.05Zm-5.01-6.96c.28.37.62.71 1 1v5.54c-3.12-.98-5.57-3.44-6.55-6.55h5.54Zm-.9-2c-.07-.33-.11-.66-.11-1 0-.35.03-.68.1-1H2.01c-.04.32-.05.66-.05 1 0 .33.01.67.04 1h5.05Zm-4.65-4c.97-3.12 3.43-5.57 6.54-6.55v5.54c-.38.28-.72.62-1.01 1H2.41Zm6.54 3c0-1.66 1.34-3 3-3 1.65 0 3 1.34 3 3 0 1.65-1.35 3-3 3 -1.66 0-3-1.35-3-3Z"/><path d="M19.79 4.2c-.38-.38-1.01-.35-1.34.07l-.68.84 -1.57-1.25 .67-.85c1.07-1.35 3.09-1.47 4.31-.24 1.22 1.22 1.11 3.23-.24 4.31l-.85.67 -1.25-1.57 .84-.68c.41-.34.45-.96.07-1.34Z"/><path d="M4.2 19.79c.37.37 1 .34 1.33-.08l.67-.85 1.56 1.24 -.68.84c-1.08 1.34-3.1 1.46-4.32.23 -1.23-1.23-1.12-3.24.23-4.32l.84-.68 1.24 1.56 -.85.67c-.42.33-.46.95-.08 1.33Z"/></g></svg>