<svg viewBox="0 0 24 24" xmlns="http://www.w3.org/2000/svg"><g fill-rule="evenodd"><path d="M10.5 6.5c-.54 0-.99.42-1 .96L9 21.96c-.01.27.09.53.28.72 .18.19.44.3.71.3h4c.27 0 .53-.12.71-.31 .18-.2.28-.46.28-.73l-.5-14.5c-.02-.54-.47-.97-1-.97h-3Z"/><path d="M20 23H4v-2h16v2Z"/><path d="M17 1c-3.1 0-6 2.04-6 5 0 .55.44 1 1 1h6 4c.55 0 1-.45 1-1 0-2.96-2.91-5-6-5Z"/><path d="M7 1C3.9 1 1 3.04 1 6c0 .55.44 1 1 1h4 6c.55 0 1-.45 1-1 0-2.96-2.91-5-6-5Z"/><path d="M5.18 5.44c-2.38 1.98-3.29 5.42-1.39 7.68 .355.42.98.47 1.4.12l7.66-6.43c.42-.36.47-.99.12-1.41 -1.91-2.27-5.45-1.97-7.82.02Z"/><path d="M18.81 5.44c2.37 1.98 3.28 5.42 1.38 7.68 -.36.42-.99.47-1.41.12l-7.67-6.43c-.43-.36-.48-.99-.13-1.41 1.9-2.27 5.44-1.97 7.81.02Z"/></g></svg>