<svg viewBox="0 0 24 24" xmlns="http://www.w3.org/2000/svg"><g fill-rule="evenodd"><path d="M12 5.5c-2.77 0-5 2.23-5 5v2c0 .55.44 1 1 1h8c.55 0 1-.45 1-1v-2c0-2.77-2.24-5-5-5Z"/><path d="M4.18 12.14c-.97.57-1.19 1.07-1.19 1.35 0 .18.09.46.47.83 .38.36.99.73 1.82 1.06 1.66.66 4.03 1.1 6.69 1.1s5.035-.44 6.69-1.1c.83-.34 1.44-.71 1.82-1.07 .38-.37.47-.65.47-.84 0-.29-.23-.79-1.19-1.36 -.92-.56-2.3-1.03-3.99-1.33l.34-1.98c1.83.32 3.46.85 4.66 1.57 1.15.69 2.16 1.71 2.16 3.07 0 .91-.47 1.68-1.1 2.28 -.63.59-1.49 1.08-2.46 1.47 -1.96.78-4.59 1.24-7.45 1.24 -2.86 0-5.49-.47-7.45-1.25 -.98-.39-1.84-.88-2.46-1.48 -.64-.6-1.1-1.37-1.1-2.29 0-1.36 1-2.39 2.16-3.08 1.19-.72 2.82-1.26 4.66-1.58l.34 1.97c-1.7.29-3.07.77-3.99 1.32Z"/></g></svg>