<svg viewBox="0 0 24 24" xmlns="http://www.w3.org/2000/svg"><g fill-rule="evenodd"><path d="M1 5c0-2.21 1.79-4 4-4h3.28c2.05 0 3.77 1.55 3.98 3.6l.19 1.98c.02.27.02.56-.01.83l-.97 8.67 -.27 3.23c-.18 2.07-1.91 3.66-3.99 3.66H4.97c-2.21 0-4-1.8-4-4v-14Zm4-2c-1.11 0-2 .89-2 2v14c0 1.1.89 2 2 2h2.23c1.04 0 1.9-.8 1.99-1.84l.27-3.25c0-.01 0-.02 0-.03l.96-8.69c.01-.14.01-.29 0-.42l-.2-1.99c-.11-1.03-.97-1.81-2-1.81H4.96Z"/><path d="M8.81 5.05c-1.18-.4-2.44-.42-3.63-.06l-2.78.83C1.55 6.07.97 6.85.97 7.73v2.25c0 1.1.89 2 2 2h7.16c1.01 0 1.87-.77 1.98-1.78l.25-2.31c.1-.94-.47-1.83-1.36-2.12l-2.24-.75Z"/><path d="M15.182 18.94c1.17.39 2.43.41 3.62.05l2.77-.84c.84-.26 1.42-1.04 1.42-1.92v-2.26c0-1.11-.9-2-2-2h-7.17c-1.02 0-1.88.76-1.99 1.77l-.26 2.3c-.11.93.46 1.82 1.35 2.11l2.23.74Z"/><path d="M23 19c0 2.2-1.8 4-4 4h-3.285c-2.06 0-3.78-1.56-3.99-3.61l-.2-1.99c-.03-.28-.03-.57 0-.84l.96-8.68 .26-3.24c.17-2.08 1.9-3.67 3.98-3.67h2.23c2.2 0 4 1.79 4 4v14Zm-4 2c1.1 0 2-.9 2-2V5c0-1.11-.9-2-2-2h-2.24c-1.05 0-1.91.79-2 1.83l-.28 3.24c-.01 0-.01.01-.01.02l-.97 8.68c-.02.13-.02.28-.01.41l.19 1.98c.1 1.02.96 1.8 1.99 1.8h3.28Z"/></g></svg>