<svg viewBox="0 0 24 24" xmlns="http://www.w3.org/2000/svg"><g fill-rule="evenodd"><path d="M1 4c0-1.66 1.34-3 3-3h3c.55 0 1 .44 1 1v17c0 .55-.45 1-1 1H2c-.56 0-1-.45-1-1V4Zm3-1c-.56 0-1 .44-1 1v14h3V3H4Z"/><path d="M6 2c0-.56.44-1 1-1h12c2.2 0 4 1.79 4 4v4.58l-1.71 1.7 -3.59 3.58c-.4.39-1.03.39-1.42 0l-2.18-2.18c-1.18-1.18-3.08-1.18-4.25 0l-3.59 3.58 1.41 1.41 3.58-3.59c.39-.4 1.02-.4 1.41 0l2.17 2.17c1.17 1.17 3.07 1.17 4.24 0l3.58-3.59 .29-.3v9.58c0 .55-.45 1-1 1h-15c-.56 0-1-.45-1-1v-20Z"/></g></svg>