<svg viewBox="0 0 24 24" xmlns="http://www.w3.org/2000/svg"><g fill-rule="evenodd"><path d="M11 5.5c-2.77 0-5 2.23-5 5 0 .55-.45 1-1 1 -1.11 0-2 .89-2 2 0 1.1.89 2 2 2h2.25v2H5c-2.21 0-4-1.8-4-4 0-1.89 1.3-3.47 3.05-3.89 .43-3.45 3.37-6.12 6.94-6.12 2.81 0 5.23 1.65 6.34 4.04 .21-.03.43-.05.65-.05 2.76 0 5 2.23 5 5 0 1.29-.38 2.53-1.16 3.46 -.8.95-1.95 1.53-3.35 1.53h-1.75v-2h1.75c.8 0 1.4-.32 1.8-.81 .42-.52.69-1.28.69-2.2 0-1.66-1.35-3-3-3 -.34 0-.66.05-.96.15 -.26.08-.54.06-.78-.06 -.24-.13-.42-.34-.5-.6 -.64-2.04-2.54-3.51-4.773-3.51Z"/><path d="M11.99 14c-.68 0-1.22.54-1.22 1.21 0 .67.54 1.21 1.21 1.21 .67 0 1.21-.55 1.21-1.22 0-.68-.55-1.22-1.22-1.22Zm-3.22 1.21c0-1.78 1.44-3.22 3.21-3.22s3.21 1.44 3.21 3.21 -1.45 3.21-3.22 3.21c-1.78 0-3.22-1.45-3.22-3.22Z"/><path d="M11.99 19.76c-1.36 0-2.55.41-3.4 1.03L7.4 19.18c1.22-.91 2.83-1.44 4.58-1.44 1.74 0 3.36.52 4.58 1.43l-1.19 1.6c-.86-.63-2.05-1.04-3.4-1.04Z"/></g></svg>