<svg viewBox="0 0 24 24" xmlns="http://www.w3.org/2000/svg"><g fill-rule="evenodd"><path d="M12 6.5c-1.52 0-2.75 1.23-2.75 2.75C9.25 10.76 10.48 12 12 12c1.51 0 2.75-1.24 2.75-2.75 0-1.52-1.24-2.75-2.75-2.75ZM7.25 9.25C7.25 6.62 9.37 4.5 12 4.5c2.62 0 4.75 2.12 4.75 4.75 0 2.62-2.13 4.75-4.75 4.75 -2.63 0-4.75-2.13-4.75-4.75Z"/><path d="M5.49 18.59c-.05.5-.48.9-1 .9 -.56 0-1-.45-1-1 0-.39.14-.73.3-.98 .15-.26.37-.5.6-.72 .46-.44 1.1-.87 1.84-1.24 1.48-.75 3.51-1.33 5.75-1.33 2.23 0 4.26.58 5.75 1.32 .74.37 1.37.79 1.84 1.23 .23.21.44.45.6.71 .15.25.3.58.3.97 0 .55-.45 1-1 1 -.53 0-.96-.4-1-.91 -.01-.01-.01-.01-.01-.02 -.04-.07-.13-.18-.27-.31 -.3-.28-.76-.6-1.38-.91 -1.24-.62-2.96-1.12-4.86-1.12 -1.91 0-3.63.5-4.86 1.11 -.62.3-1.08.63-1.38.9 -.15.13-.23.24-.27.3 -.01 0-.01 0-.01.01Zm-.02.02c-.01 0 0-.01 0-.01 -.01 0-.01 0-.01 0Zm13.03 0c-.01 0-.01-.01-.01-.01s0 0 0 0Z"/><path d="M12 3c-4.98 0-9 4.02-9 9 0 4.97 4.02 9 9 9 4.97 0 9-4.03 9-9 0-4.98-4.03-9-9-9ZM1 12C1 5.92 5.92 1 12 1c6.07 0 11 4.92 11 11 0 6.07-4.93 11-11 11C5.92 23 1 18.07 1 12Z"/></g></svg>