<svg viewBox="0 0 24 24" xmlns="http://www.w3.org/2000/svg"><g fill-rule="evenodd"><path d="M12 3c-4.98 0-9 4.02-9 9 0 4.97 4.02 9 9 9 4.97 0 9-4.03 9-9 0-4.98-4.03-9-9-9ZM1 12C1 5.92 5.92 1 12 1c6.07 0 11 4.92 11 11 0 6.07-4.93 11-11 11C5.92 23 1 18.07 1 12Z"/><path d="M12 6.25c-1.66 0-3 1.34-3 3 0 1.65 1.34 3 3 3 1.65 0 3-1.35 3-3 0-1.66-1.35-3-3-3Zm-5 3c0-2.77 2.23-5 5-5 2.76 0 5 2.23 5 5 0 2.76-2.24 5-5 5 -2.77 0-5-2.24-5-5Z"/><path d="M5 17.5c0-2.77 2.23-5 5-5h4c2.76 0 5 2.23 5 5V20h-2v-2.5c0-1.66-1.35-3-3-3h-4c-1.66 0-3 1.34-3 3V20H5v-2.5Z"/><path d="M14 22v-4.5h2V22h-2Z"/><path d="M8 22v-4.5h2V22H8Z"/></g></svg>