<svg viewBox="0 0 24 24" xmlns="http://www.w3.org/2000/svg"><g fill-rule="evenodd"><path d="M12 3C9.79 3 8 4.79 8 7c0 2.2 1.79 4 4 4 2.2 0 4-1.8 4-4 0-2.21-1.8-4-4-4ZM6 7c0-3.32 2.68-6 6-6 3.31 0 6 2.68 6 6 0 3.31-2.69 6-6 6 -3.32 0-6-2.69-6-6Z"/><path d="M3 19.73v1.26h18v-1.27c-.41-1.44-1.45-2.6-3.01-3.42 -1.61-.86-3.71-1.32-6-1.32 -2.3 0-4.4.46-6 1.31 -1.56.82-2.6 1.98-3.01 3.41Zm2.06-5.19c1.95-1.04 4.39-1.55 6.93-1.55s4.97.51 6.93 1.54c1.96 1.04 3.48 2.64 4.03 4.8 .02.08.03.16.03.24v2.4c0 .55-.45 1-1 1h-20c-.56 0-1-.45-1-1v-2.4c0-.09.01-.17.03-.25 .54-2.17 2.07-3.77 4.03-4.81Z"/></g></svg>