<svg viewBox="0 0 24 24" xmlns="http://www.w3.org/2000/svg"><g fill="#9545ED" fill-rule="evenodd"><path d="M11 17.5V6h2v11.5h-2Z"/><path d="M7 17.5v-10h2v10H7Z"/><path d="M15 17.5v-10h2v10h-2Z"/><path d="M12 7c-1.6 0-2.9.7-3.54 1.6 -.11.14-.24.25-.4.32l-2.57 1.19v6.36h13V10.1l-2.57-1.2c-.16-.08-.3-.19-.4-.33 -.65-.91-1.95-1.61-3.54-1.61Zm-5.01.23c1.1-1.39 2.96-2.24 5-2.24 2.03 0 3.9.84 5 2.23l2.92 1.36c.35.16.57.51.57.9v8c0 .55-.45 1-1 1h-15c-.56 0-1-.45-1-1v-8c0-.39.22-.75.57-.91L6.97 7.2Z"/><g fill="#3747D6"><path d="M1 7c0-.56.44-1 1-1h2.5c.55 0 1 .44 1 1v11c0 .55-.45 1-1 1H2c-.56 0-1-.45-1-1V7Zm2 1v9h.5V8H3Z"/><path d="M18.5 7c0-.56.44-1 1-1H22c.55 0 1 .44 1 1v11c0 .55-.45 1-1 1h-2.5c-.56 0-1-.45-1-1V7Zm2 1v9h.5V8h-.5Z"/></g></g></svg>