<svg viewBox="0 0 24 24" xmlns="http://www.w3.org/2000/svg"><g fill="#3747D6" fill-rule="evenodd"><path d="M12 2.5c-2.21 0-4 1.79-4 4 0 1.63.98 3.04 2.4 3.66 .36.15.59.51.59.91v9.11l.53.8h.84l.61-1.24v-.35l-.71-.71c-.4-.4-.4-1.03 0-1.42l.7-.71v-.68l-.71-.71c-.4-.4-.4-1.03 0-1.42l.7-.71v-2.01c0-.4.23-.76.59-.92 1.41-.62 2.4-2.03 2.4-3.67 0-2.21-1.8-4-4-4Zm-6 4c0-3.32 2.68-6 6-6 3.31 0 6 2.68 6 6 0 2.22-1.21 4.16-3 5.19v1.8c0 .26-.11.51-.3.7l-.3.29 .29.29c.18.18.29.44.29.7v1.5c0 .26-.11.51-.3.7l-.3.29 .29.29c.18.18.29.44.29.7v1c0 .15-.04.3-.11.44l-1 2c-.17.33-.52.55-.9.55h-2c-.34 0-.65-.17-.84-.45l-1-1.5c-.11-.17-.17-.36-.17-.56v-8.81c-1.8-1.04-3-2.98-3-5.2Z"/><path fill="#9545ED" d="M12 6c-.28 0-.5.22-.5.5 0 .27.22.5.5.5 .27 0 .5-.23.5-.5 0-.28-.23-.5-.5-.5Zm-2.5.5C9.5 5.11 10.61 4 12 4c1.38 0 2.5 1.11 2.5 2.5C14.5 7.88 13.38 9 12 9c-1.39 0-2.5-1.12-2.5-2.5Z"/></g></svg>