<svg viewBox="0 0 24 24" xmlns="http://www.w3.org/2000/svg"><g fill="#9545ED" fill-rule="evenodd"><path d="M13.5 14H6v-2h7.5v2Z"/><path d="M6 15.79v-2.8h2v2.79H6Z"/><path d="M9 15.79v-2.8h2v2.79H9Z"/><path d="M15 12c-.56 0-1 .44-1 1 0 .55.44 1 1 1 .55 0 1-.45 1-1 0-.56-.45-1-1-1Zm-3 1c0-1.66 1.34-3 3-3 1.65 0 3 1.34 3 3 0 1.65-1.35 3-3 3 -1.66 0-3-1.35-3-3Z"/><path fill="#3747D6" d="M12.61 3.74c-.37-.29-.87-.29-1.23 0L4.37 9.18c-.25.18-.39.48-.39.78v10.02c0 .55.44 1 1 1h14c.55 0 1-.45 1-1V9.95c0-.31-.15-.6-.39-.79l-7-5.45Zm-2.46-1.58c1.08-.85 2.6-.85 3.68 0l7 5.44c.73.56 1.15 1.44 1.15 2.36v10.02c0 1.65-1.35 3-3 3h-14c-1.66 0-3-1.35-3-3V9.95c0-.93.42-1.8 1.15-2.37l7-5.45Z"/></g></svg>