<svg viewBox="0 0 24 24" xmlns="http://www.w3.org/2000/svg"><path fill="#4DC4FF" d="M12.75 6.5c0-.23-.1-.44-.28-.58 -.18-.15-.4-.21-.62-.17l-8.01 1.5c-.36.06-.62.37-.62.73v14c0 .41.33.75.75.75h8c.41 0 .75-.34.75-.75V6.48Z"/><path fill="#5E94FF" d="M11.25 2c0-.23.09-.44.27-.58 .17-.15.39-.21.61-.17l8 1.5c.35.06.61.37.61.73v18.5c0 .41-.34.75-.75.75h-8c-.42 0-.75-.34-.75-.75v-20Z"/><g fill="#CFD8DC"><path d="M6.5 15.25c-.42 0-.75.33-.75.75v6c0 .41.33.75.75.75h3c.41 0 .75-.34.75-.75v-6c0-.42-.34-.75-.75-.75h-3Z"/><g fill="#CFD8DC" fill-rule="evenodd"><path d="M5.75 11.5c0-.42.33-.75.75-.75h3c.41 0 .75.33.75.75 0 .41-.34.75-.75.75h-3c-.42 0-.75-.34-.75-.75Z"/><path d="M13.75 7c0-.42.33-.75.75-.75h3c.41 0 .75.33.75.75 0 .41-.34.75-.75.75h-3c-.42 0-.75-.34-.75-.75Z"/><path d="M13.75 11.5c0-.42.33-.75.75-.75h3c.41 0 .75.33.75.75 0 .41-.34.75-.75.75h-3c-.42 0-.75-.34-.75-.75Z"/><path d="M1.25 22c0-.42.33-.75.75-.75h20c.41 0 .75.33.75.75 0 .41-.34.75-.75.75H2c-.42 0-.75-.34-.75-.75Z"/></g></g></svg>