<svg viewBox="0 0 24 24" xmlns="http://www.w3.org/2000/svg"><path fill="#A2ADB8" d="M10.5 11.25c-.36 0-.67.25-.74.6l-2 10c-.05.22.01.44.15.62 .14.17.35.27.58.27h6.99c.22 0 .43-.11.58-.28 .14-.18.19-.41.15-.63l-2-10c-.08-.36-.38-.61-.74-.61h-3Z"/><g fill="#CFD8DC" fill-rule="evenodd"><path d="M5.75 22c0-.42.33-.75.75-.75h11c.41 0 .75.33.75.75 0 .41-.34.75-.75.75h-11c-.42 0-.75-.34-.75-.75Z"/><g fill="#A2ADB8"><path d="M12.89 3.55c.24-.34.71-.41 1.04-.17l5.5 4c.33.24.4.71.16 1.04 -.25.33-.72.4-1.05.16l-5.5-4c-.34-.25-.41-.72-.17-1.05Z"/><path d="M11.1 3.55c-.25-.34-.72-.41-1.05-.17l-5.5 4c-.34.24-.41.71-.17 1.04 .24.33.71.4 1.04.16l5.5-4c.33-.25.4-.72.16-1.05Z"/><path d="M20.45 9.26c.4.08.66.47.58.88l-.81 4c-.09.4-.48.66-.89.58 -.41-.09-.67-.48-.59-.89l.8-4c.08-.41.47-.67.88-.59Z"/><path d="M3.85 9.26c-.41.08-.67.47-.59.88l.8 4c.08.4.47.66.88.58 .4-.09.66-.48.58-.89l-.81-4c-.09-.41-.48-.67-.89-.59Z"/><path d="M13.75 16c0-.42.33-.75.75-.75h3c.41 0 .75.33.75.75 0 .41-.34.75-.75.75h-3c-.42 0-.75-.34-.75-.75Z"/><path d="M5.75 16c0-.42.33-.75.75-.75h3c.41 0 .75.33.75.75 0 .41-.34.75-.75.75h-3c-.42 0-.75-.34-.75-.75Z"/><path d="M12 4.41c.41 0 .75.33.75.75v2.83c0 .41-.34.75-.75.75 -.42 0-.75-.34-.75-.75V5.15c0-.42.33-.75.75-.75Z"/><path d="M19.74 9.14c.06.4-.23.79-.64.85l-5 .74c-.41.06-.8-.23-.86-.64 -.07-.41.22-.8.63-.86l5-.75c.4-.07.79.22.85.63Z"/><path d="M4.25 9.14c-.07.4.22.79.63.85l5 .74c.4.06.79-.23.85-.64 .06-.41-.23-.8-.64-.86l-5-.75c-.41-.07-.8.22-.86.63Z"/></g></g><g fill="#CFD8DC"><path d="M12 7.25c-1.52 0-2.75 1.23-2.75 2.75 0 1.51 1.23 2.75 2.75 2.75 1.51 0 2.75-1.24 2.75-2.75 0-1.52-1.24-2.75-2.75-2.75Z"/><path d="M20.5 6.25c-1.25 0-2.25 1-2.25 2.25 0 1.24 1 2.25 2.25 2.25 1.24 0 2.25-1.01 2.25-2.25 0-1.25-1.01-2.25-2.25-2.25Z"/><path d="M19 13.25c-1.25 0-2.25 1-2.25 2.25 0 1.24 1 2.25 2.25 2.25 1.24 0 2.25-1.01 2.25-2.25 0-1.25-1.01-2.25-2.25-2.25Z"/><path d="M12 1.25c-1.25 0-2.25 1-2.25 2.25 0 1.24 1 2.25 2.25 2.25 1.24 0 2.25-1.01 2.25-2.25 0-1.25-1.01-2.25-2.25-2.25Z"/><path d="M3.5 6.25c-1.25 0-2.25 1-2.25 2.25 0 1.24 1 2.25 2.25 2.25 1.24 0 2.25-1.01 2.25-2.25 0-1.25-1.01-2.25-2.25-2.25Z"/><path d="M5 13.25c-1.25 0-2.25 1-2.25 2.25 0 1.24 1 2.25 2.25 2.25 1.24 0 2.25-1.01 2.25-2.25 0-1.25-1.01-2.25-2.25-2.25Z"/></g></svg>