<svg viewBox="0 0 24 24" xmlns="http://www.w3.org/2000/svg"><g fill="#CFD8DC"><path d="M6 4.75c-.42 0-.75.33-.75.75V22c0 .41.33.75.75.75h3c.41 0 .75-.34.75-.75V5.5c0-.42-.34-.75-.75-.75H6Z"/><path fill="#CFD8DC" fill-rule="evenodd" d="M9 1.25c.41 0 .75.33.75.75v3c0 .41-.34.75-.75.75 -.42 0-.75-.34-.75-.75V2c0-.42.33-.75.75-.75Z"/></g><path fill="#5E94FF" d="M9 3.25c-.42 0-.75.33-.75.75v18c0 .41.33.75.75.75h9c.41 0 .75-.34.75-.75v-8c0-2.69-1.09-5.36-2.82-7.36 -1.74-2.01-4.19-3.4-6.94-3.4Z"/><g fill="#CFD8DC" fill-rule="evenodd"><path d="M8.25 9.25h5.25c.41 0 .75.33.75.75 0 .41-.34.75-.75.75H8.25v-1.5Zm0 3h5.25c.41 0 .75.33.75.75 0 .41-.34.75-.75.75H8.25v-1.5Zm0 3h5.25c.41 0 .75.33.75.75 0 .41-.34.75-.75.75H8.25v-1.5Zm0 3h5.25c.41 0 .75.33.75.75 0 .41-.34.75-.75.75H8.25v-1.5Z"/><path d="M2.25 22c0-.42.33-.75.75-.75h18c.41 0 .75.33.75.75 0 .41-.34.75-.75.75H3c-.42 0-.75-.34-.75-.75Z"/></g></svg>