<svg viewBox="0 0 24 24" xmlns="http://www.w3.org/2000/svg"><g fill="#A2ADB8"><path d="M16.5 9.25c-.42 0-.75.33-.75.75v12c0 .41.33.75.75.75H21c.41 0 .75-.34.75-.75V10c0-.42-.34-.75-.75-.75h-4.5Z"/><path d="M7.5 9.25c.41 0 .75.33.75.75v12c0 .41-.34.75-.75.75H3c-.42 0-.75-.34-.75-.75V10c0-.42.33-.75.75-.75h4.5Z"/></g><g fill="#EE4D4D"><path d="M19.43 4.69c-.13-.27-.39-.45-.69-.45 -.3 0-.57.17-.69.44l-2.25 5c-.11.23-.09.5.05.71 .13.21.37.34.62.34h4.5c.25 0 .49-.13.62-.35 .13-.22.15-.49.05-.72l-2.25-5Z"/><path d="M5.93 4.69c-.13-.27-.39-.45-.69-.45 -.3 0-.57.17-.69.44l-2.25 5c-.11.23-.09.5.05.71 .13.21.37.34.62.34h4.5c.25 0 .49-.13.62-.35 .13-.22.15-.49.05-.72l-2.25-5Z"/></g><path fill="#ECEFF1" d="M7.5 6.25c-.42 0-.75.33-.75.75v15c0 .41.33.75.75.75h9c.41 0 .75-.34.75-.75V7c0-.42-.34-.75-.75-.75h-9Z"/><path fill="#8B98A6" d="M12 14.75c-1.31 0-2.37 1.05-2.37 2.36v4.88c0 .41.33.75.74.75h3.22c.41 0 .75-.34.75-.75V17.1c0-1.31-1.06-2.37-2.37-2.37Z"/><path fill="#EE4D4D" d="M12.55 1.49c-.15-.16-.35-.25-.56-.25 -.22 0-.42.09-.56.24l-4.5 5c-.2.22-.25.53-.13.8s.38.44.68.44h8.99c.29 0 .56-.18.68-.45 .12-.28.07-.59-.13-.81l-4.5-5Z"/><g fill="#8B98A6" fill-rule="evenodd"><path d="M9.25 10c0-.42.33-.75.75-.75h4c.41 0 .75.33.75.75 0 .41-.34.75-.75.75h-4c-.42 0-.75-.34-.75-.75Z"/><path d="M9.25 12.5c0-.42.33-.75.75-.75h4c.41 0 .75.33.75.75 0 .41-.34.75-.75.75h-4c-.42 0-.75-.34-.75-.75Z"/><path d="M1.25 22c0-.42.33-.75.75-.75h20c.41 0 .75.33.75.75 0 .41-.34.75-.75.75H2c-.42 0-.75-.34-.75-.75Z"/></g></svg>