<svg viewBox="0 0 24 24" xmlns="http://www.w3.org/2000/svg"><g fill="#CFD8DC"><path d="M7.99 17.25c-.42 0-.75.33-.75.75v4c0 .41.33.75.75.75h8c.41 0 .75-.34.75-.75v-4c0-.42-.34-.75-.75-.75H7.98Z"/><path d="M8.99 5.75c-.42 0-.75.33-.75.75V9c0 .41.33.75.75.75h6c.41 0 .75-.34.75-.75V6.5c0-.42-.34-.75-.75-.75H8.98Z"/></g><path fill="#5E94FF" d="M11.49 1.25c-.18 0-.35.05-.48.16L5.5 5.91c-.25.2-.34.53-.24.83 .1.29.38.49.7.49h12c.31 0 .59-.2.7-.5 .1-.3.01-.64-.24-.84l-5.5-4.5c-.14-.11-.31-.17-.48-.17h-1Z"/><path fill="#4DC4FF" fill-rule="evenodd" d="M12.75 17.25v5.5h-1.5v-5.5h1.5Z"/><path fill="#5E94FF" d="M7.5 8.25c-.42 0-.75.33-.75.75v9c0 .41.33.75.75.75h9c.41 0 .75-.34.75-.75V9c0-.42-.34-.75-.75-.75h-9Z"/><path fill="#ECEFF1" d="M11.99 10.75c-1.52 0-2.76 1.23-2.76 2.75 0 1.51 1.23 2.75 2.75 2.75 1.51 0 2.75-1.24 2.75-2.75 0-1.52-1.24-2.75-2.75-2.75Z"/></svg>