<svg viewBox="0 0 24 24" xmlns="http://www.w3.org/2000/svg"><path fill="#CFD8DC" d="M4 5.25c-.42 0-.75.33-.75.75v13.5c0 .41.33.75.75.75h16c.41 0 .75-.34.75-.75V6c0-.42-.34-.75-.75-.75H4Z"/><g fill="#8B98A6"><path d="M9.5 11.75c-.42 0-.75.33-.75.75v7c0 .41.33.75.75.75h5c.41 0 .75-.34.75-.75v-7c0-.42-.34-.75-.75-.75h-5Z"/><g fill="#8B98A6" fill-rule="evenodd"><path d="M5.75 9.5c0-.42.33-.75.75-.75H10c.41 0 .75.33.75.75 0 .41-.34.75-.75.75H6.5c-.42 0-.75-.34-.75-.75Z"/><path d="M13.25 9.5c0-.42.33-.75.75-.75h3.5c.41 0 .75.33.75.75 0 .41-.34.75-.75.75H14c-.42 0-.75-.34-.75-.75Z"/></g></g><g fill="#EE4D4D"><path d="M2 18.75c-.42 0-.75.33-.75.75V22c0 .41.33.75.75.75h20c.41 0 .75-.34.75-.75v-2.5c0-.42-.34-.75-.75-.75H2Z"/><path d="M4 1.25c-.29 0-.55.16-.68.41l-2 4c-.12.23-.11.5.03.72 .13.22.37.35.63.35h20c.25 0 .5-.14.63-.36 .13-.23.14-.5.03-.73l-2-4c-.13-.26-.39-.42-.68-.42h-16Z"/></g></svg>