<svg viewBox="0 0 24 24" xmlns="http://www.w3.org/2000/svg"><path fill="#CFD8DC" d="M12.44 1.89c-.27-.2-.63-.2-.89 0l-7.51 5.5c-.2.14-.31.36-.31.6v11.5c0 .41.33.75.75.75h15c.41 0 .75-.34.75-.75V7.99c0-.24-.12-.47-.31-.61l-7.5-5.5Z"/><path fill="#8B98A6" d="M8.5 20.25c-.42 0-.75-.34-.75-.75V12c0-1.52 1.23-2.75 2.75-2.75H14c1.51 0 2.75 1.23 2.75 2.75v7.5c0 .41-.34.75-.75.75H8.5Z"/><path fill="#EE4D4D" fill-rule="evenodd" d="M11.72 1.41c.27-.22.66-.22.93 0l9.81 8c.32.26.36.73.1 1.05 -.27.32-.74.36-1.06.1l-9.35-7.63 -9.72 7.62c-.33.25-.8.19-1.06-.13 -.26-.33-.2-.8.12-1.06l10.18-8Z"/><path fill="#EE4D4D" d="M2 18.75c-.42 0-.75.33-.75.75V22c0 .41.33.75.75.75h20c.41 0 .75-.34.75-.75v-2.5c0-.42-.34-.75-.75-.75H2Z"/></svg>