<svg viewBox="0 0 24 24" xmlns="http://www.w3.org/2000/svg"><g fill="#CFD8DC"><path d="M17 9.25c-.42 0-.75-.34-.75-.75v-6c0-.42.33-.75.75-.75h2.5c.41 0 .75.33.75.75v6c0 .41-.34.75-.75.75H17Z"/><path d="M12.96 1.91c-.26-.21-.62-.22-.89-.03l-8 5.5c-.21.13-.33.37-.33.61v14c0 .41.33.75.75.75h15c.41 0 .75-.34.75-.75v-14c0-.24-.11-.45-.29-.59l-7-5.5Z"/></g><path fill="#8B98A6" d="M15.75 22.75h-7V15c0-.42.33-.75.75-.75H15c.41 0 .75.33.75.75v7.75Z"/><path fill="#EE4D4D" fill-rule="evenodd" d="M11.72 1.41c.27-.22.66-.22.93 0l9.81 8c.32.26.36.73.1 1.05 -.27.32-.74.36-1.06.1l-9.35-7.63 -9.72 7.62c-.33.25-.8.19-1.06-.13 -.26-.33-.2-.8.12-1.06l10.18-8Z"/><path fill="#8B98A6" d="M12 5.75C10.2 5.75 8.75 7.2 8.75 9c0 1.79 1.45 3.25 3.25 3.25 1.79 0 3.25-1.46 3.25-3.25 0-1.8-1.46-3.25-3.25-3.25Z"/></svg>