<svg viewBox="0 0 24 24" xmlns="http://www.w3.org/2000/svg"><path fill="#EE4D4D" d="M4 8.75c-.42 0-.75.33-.75.75v12c0 .41.33.75.75.75h16c.41 0 .75-.34.75-.75v-12c0-.42-.34-.75-.75-.75H4Z"/><path fill="#CFD8DC" d="M7 12.75c-.42 0-.75.33-.75.75v8c0 .41.33.75.75.75h10c.41 0 .75-.34.75-.75v-8c0-.42-.34-.75-.75-.75H7Z"/><path fill="#EE4D4D" d="M13 1.75c-.42 0-.75.33-.75.75v7c0 .41.33.75.75.75h6.5c.41 0 .75-.34.75-.75v-7c0-.42-.34-.75-.75-.75H13Z"/><g fill="#CFD8DC" fill-rule="evenodd"><path d="M10.25 2.5c0-.42.33-.75.75-.75h10.5c.41 0 .75.33.75.75 0 .41-.34.75-.75.75H11c-.42 0-.75-.34-.75-.75Z"/><path d="M1.75 9.5c0-.42.33-.75.75-.75h19c.41 0 .75.33.75.75 0 .41-.34.75-.75.75h-19c-.42 0-.75-.34-.75-.75Z"/><path d="M1.25 21.5c0-.42.33-.75.75-.75h20c.41 0 .75.33.75.75 0 .41-.34.75-.75.75H2c-.42 0-.75-.34-.75-.75Z"/></g></svg>