<svg viewBox="0 0 24 24" xmlns="http://www.w3.org/2000/svg"><path fill="#CFD8DC" d="M11 11.75c-.42 0-.75.33-.75.75v8c0 .41.33.75.75.75h9c.41 0 .75-.34.75-.75v-8c0-.42-.34-.75-.75-.75h-9Z"/><path fill="#5E94FF" d="M3.5 2.75c-.42 0-.75.33-.75.75v17c0 .41.33.75.75.75H11c.41 0 .75-.34.75-.75v-17c0-.42-.34-.75-.75-.75H3.5Z"/><g fill="#CFD8DC" fill-rule="evenodd"><path d="M5.75 9C5.33 9 5 8.66 5 8.25v-2.5c0-.42.33-.75.75-.75 .41 0 .75.33.75.75v2.5c0 .41-.34.75-.75.75Z"/><path d="M5.75 14c-.42 0-.75-.34-.75-.75v-2.5c0-.42.33-.75.75-.75 .41 0 .75.33.75.75v2.5c0 .41-.34.75-.75.75Z"/><path d="M8.25 9c-.42 0-.75-.34-.75-.75v-2.5c0-.42.33-.75.75-.75 .41 0 .75.33.75.75v2.5c0 .41-.34.75-.75.75Z"/><path d="M8.25 14c-.42 0-.75-.34-.75-.75v-2.5c0-.42.33-.75.75-.75 .41 0 .75.33.75.75v2.5c0 .41-.34.75-.75.75Z"/><g fill="#5E94FF"><path d="M16.25 21.25v-9.5h1.5v9.5h-1.5Z"/><path d="M13.25 21.25v-9.5h1.5v9.5h-1.5Z"/></g><path d="M1.25 20.5c0-.42.33-.75.75-.75h20c.41 0 .75.33.75.75 0 .41-.34.75-.75.75H2c-.42 0-.75-.34-.75-.75Z"/></g></svg>