<svg viewBox="0 0 24 24" xmlns="http://www.w3.org/2000/svg"><g fill="#8B98A6"><path d="M17 7.25c-.42 0-.75.33-.75.75v12c0 .41.33.75.75.75h3.5c.41 0 .75-.34.75-.75V8c0-.42-.34-.75-.75-.75H17Z"/><path d="M7 7.25c.41 0 .75.33.75.75v12c0 .41-.34.75-.75.75H3.5c-.42 0-.75-.34-.75-.75V8c0-.42.33-.75.75-.75H7Z"/></g><path fill="#ECEFF1" d="M7 2.25c-.42 0-.75.33-.75.75v17c0 .41.33.75.75.75h10c.41 0 .75-.34.75-.75V3c0-.42-.34-.75-.75-.75H7Z"/><g fill="#8B98A6"><path d="M10 12.25c-.42 0-.75.33-.75.75v7c0 .41.33.75.75.75h4c.41 0 .75-.34.75-.75v-7c0-.42-.34-.75-.75-.75h-4Z"/><path fill="#8B98A6" fill-rule="evenodd" d="M1.25 20c0-.42.33-.75.75-.75h20c.41 0 .75.33.75.75 0 .41-.34.75-.75.75H2c-.42 0-.75-.34-.75-.75Z"/></g><g fill="#EE4D4D" fill-rule="evenodd"><path d="M9.25 7.5c0-.42.33-.75.75-.75h4c.41 0 .75.33.75.75 0 .41-.34.75-.75.75h-4c-.42 0-.75-.34-.75-.75Z"/><path d="M12 10.25c-.42 0-.75-.34-.75-.75v-4c0-.42.33-.75.75-.75 .41 0 .75.33.75.75v4c0 .41-.34.75-.75.75Z"/></g></svg>