<svg viewBox="0 0 24 24" xmlns="http://www.w3.org/2000/svg"><path fill="#EE4D4D" d="M15.25 11c0-.28-.15-.52-.39-.66 -.24-.14-.53-.13-.76 0l-5 3c-.23.13-.37.37-.37.64v4.5c0 .41.33.75.75.75h5c.41 0 .75-.34.75-.75v-7.5Z"/><path fill="#CFD8DC" d="M17 5.25c-.42 0-.75.33-.75.75v6.75c0 .41.33.75.75.75h2.5c.41 0 .75-.34.75-.75V6c0-.42-.34-.75-.75-.75H17Z"/><g fill="#EE4D4D"><path d="M10.25 11c0-.28-.15-.52-.39-.66 -.24-.14-.53-.13-.76 0l-5 3c-.23.13-.37.37-.37.64v4.5c0 .41.33.75.75.75h5c.41 0 .75-.34.75-.75v-7.5Z"/><path d="M20.25 11c0-.28-.15-.52-.39-.66 -.24-.14-.53-.13-.76 0l-5 3c-.23.13-.37.37-.37.64v4.5c0 .41.33.75.75.75h5c.41 0 .75-.34.75-.75v-7.5Z"/></g><path fill="#CFD8DC" fill-rule="evenodd" d="M1.25 18.5c0-.42.33-.75.75-.75h20c.41 0 .75.33.75.75 0 .41-.34.75-.75.75H2c-.42 0-.75-.34-.75-.75Z"/></svg>