<svg viewBox="0 0 24 24" xmlns="http://www.w3.org/2000/svg" xmlns:xlink="http://www.w3.org/1999/xlink"><defs><path d="M12 3.25c.41 0 .75.33.75.75v2c0 .41-.34.75-.75.75 -.42 0-.75-.34-.75-.75V4c0-.42.33-.75.75-.75Z" id="a"/></defs><g fill="#CFD8DC" fill-rule="evenodd"><use xlink:href="#a"/><path d="M19.5 2.25c.41 0 .75.33.75.75v2c0 .41-.34.75-.75.75 -.42 0-.75-.34-.75-.75V3c0-.42.33-.75.75-.75Z"/><path d="M4.5 2.25c.41 0 .75.33.75.75v2c0 .41-.34.75-.75.75 -.42 0-.75-.34-.75-.75V3c0-.42.33-.75.75-.75Z"/></g><g fill="#FFC44D"><path d="M19.5 4.25c-1.92 0-3.25 1.81-3.25 3.75 0 .41.33.75.75.75h5c.41 0 .75-.34.75-.75 0-1.94-1.34-3.75-3.25-3.75Z"/><path d="M4.5 4.25C2.58 4.25 1.25 6.06 1.25 8c0 .41.33.75.75.75h5c.41 0 .75-.34.75-.75 0-1.94-1.34-3.75-3.25-3.75Z"/></g><use fill="#CFD8DC" fill-rule="evenodd" xlink:href="#a"/><g fill="#FF884D"><path d="M17 7.25c-.42 0-.75.33-.75.75v14c0 .41.33.75.75.75h5c.41 0 .75-.34.75-.75V8c0-.42-.34-.75-.75-.75h-5Z"/><path d="M2 7.25c-.42 0-.75.33-.75.75v14c0 .41.33.75.75.75h5c.41 0 .75-.34.75-.75V8c0-.42-.34-.75-.75-.75H2Z"/></g><path fill="#FFC44D" d="M12 5.25c-3.18 0-5.75 2.57-5.75 5.75 0 .41.33.75.75.75h10c.41 0 .75-.34.75-.75 0-3.18-2.58-5.75-5.75-5.75Z"/><path fill="#CFD8DC" d="M7 10.25c-.42 0-.75.33-.75.75v11c0 .41.33.75.75.75h10c.41 0 .75-.34.75-.75V11c0-.42-.34-.75-.75-.75H7Z"/><path fill="#8B98A6" d="M12 14.75c-1.8 0-3.25 1.45-3.25 3.25v4c0 .41.33.75.75.75h5c.41 0 .75-.34.75-.75v-4c0-1.8-1.46-3.25-3.25-3.25Z"/></svg>