<svg viewBox="0 0 24 24" xmlns="http://www.w3.org/2000/svg"><path fill="#8B98A6" d="M3.5 4.25c-.42 0-.75.33-.75.75v14.5c0 .41.33.75.75.75h17c.41 0 .75-.34.75-.75V5c0-.42-.34-.75-.75-.75h-17Z"/><g fill="#CFD8DC"><path d="M2 18.75c-.42 0-.75.33-.75.75V22c0 .41.33.75.75.75h20c.41 0 .75-.34.75-.75v-2.5c0-.42-.34-.75-.75-.75H2Z"/><path d="M4 1.25c-.26 0-.49.12-.63.33l-2 3c-.16.23-.17.52-.04.76s.38.39.66.39h20c.27 0 .53-.16.66-.4 .13-.25.11-.54-.04-.77l-2-3c-.14-.21-.38-.34-.63-.34h-16Z"/></g><path fill="#FFC44D" d="M12.206 6.77c-.14-.04-.28-.04-.42 0l-3.51 1c-.33.09-.55.38-.55.72v3.44c0 1.53.74 2.97 1.98 3.86l1.82 1.3c.26.18.61.18.87 0l1.82-1.31c1.24-.9 1.98-2.34 1.98-3.87V8.46c0-.34-.23-.63-.55-.73l-3.5-1Z"/></svg>