<svg viewBox="0 0 24 24" xmlns="http://www.w3.org/2000/svg"><path fill="#8B98A6" d="M11 11.25c-.42 0-.75.33-.75.75v10c0 .41.33.75.75.75h9c.41 0 .75-.34.75-.75V12c0-.42-.34-.75-.75-.75h-9Z"/><path fill="#CFD8DC" d="M3.5 4.25c-.42 0-.75.33-.75.75v17c0 .41.33.75.75.75H11c.41 0 .75-.34.75-.75V5c0-.42-.34-.75-.75-.75H3.5Z"/><g fill="#8B98A6"><path d="M6 16.25c-.42 0-.75.33-.75.75v5c0 .41.33.75.75.75h2.5c.41 0 .75-.34.75-.75v-5c0-.42-.34-.75-.75-.75H6Z"/><g fill="#8B98A6" fill-rule="evenodd"><path d="M5.25 8.5c0-.42.33-.75.75-.75h2.5c.41 0 .75.33.75.75 0 .41-.34.75-.75.75H6c-.42 0-.75-.34-.75-.75Z"/><path d="M1.25 22c0-.42.33-.75.75-.75h20c.41 0 .75.33.75.75 0 .41-.34.75-.75.75H2c-.42 0-.75-.34-.75-.75Z"/></g></g><path fill="#5E94FF" d="M4.25 1.25c-.29 0-.55.16-.68.41l-1.5 3c-.12.23-.11.5.03.72 .13.22.37.35.63.35h9c.25 0 .5-.14.63-.36 .13-.23.14-.5.03-.73l-1.5-3c-.13-.26-.39-.42-.68-.42h-6Z"/><path fill="#FFC44D" d="M15.65 13.77c-.14-.04-.28-.04-.42 0l-1.95.55c-.33.09-.55.38-.55.72v.99c0 1.53.74 2.97 1.98 3.86l.26.19c.26.18.61.18.87 0l.26-.2c1.24-.9 1.98-2.34 1.98-3.87v-1c0-.34-.23-.63-.55-.73l-1.95-.56Z"/></svg>