<svg viewBox="0 0 24 24" xmlns="http://www.w3.org/2000/svg"><path fill="#FFC44D" d="M12.33 1.32c-.22-.11-.46-.11-.68 0L5.8 4.24H2.97c-.42 0-.75.33-.75.75 0 2.07 1.67 3.75 3.75 3.75h12c2.07 0 3.75-1.68 3.75-3.75 0-.42-.34-.75-.75-.75h-2.83l-5.85-2.93Z"/><path fill="#ECEFF1" d="M5 7.25c-.42 0-.75.33-.75.75v14c0 .41.33.75.75.75h14c.41 0 .75-.34.75-.75V8c0-.42-.34-.75-.75-.75H5Z"/><path fill="#8B98A6" d="M10 16.25c-.42 0-.75.33-.75.75v5c0 .41.33.75.75.75h4c.41 0 .75-.34.75-.75v-5c0-.42-.34-.75-.75-.75h-4Z"/><g fill="#FFC44D"><path d="M16.5 10.25c-.42 0-.75.33-.75.75v11c0 .41.33.75.75.75H22c.21 0 .41-.09.55-.25 .14-.16.21-.37.19-.58l-1-11c-.04-.39-.36-.69-.75-.69h-4.5Z"/><path d="M3 10.25c-.39 0-.72.29-.75.68l-1 11c-.02.2.05.41.19.57 .14.15.34.24.55.24h5.5c.41 0 .75-.34.75-.75v-11c0-.42-.34-.75-.75-.75h-4.5Z"/></g></svg>