<svg viewBox="0 0 24 24" xmlns="http://www.w3.org/2000/svg"><path fill="#CFD8DC" d="M8 5.25c-.42 0-.75.33-.75.75v3.5c0 .41.33.75.75.75h8c.41 0 .75-.34.75-.75V6c0-.42-.34-.75-.75-.75H8Z"/><path fill="#EE4D4D" d="M4 8.75c-.42 0-.75.33-.75.75V18c0 .41.33.75.75.75h16c.41 0 .75-.34.75-.75V9.5c0-.42-.34-.75-.75-.75H4Z"/><g fill="#CFD8DC" fill-rule="evenodd"><path d="M5.75 12c0-.42.33-.75.75-.75h1c.41 0 .75.33.75.75 0 .41-.34.75-.75.75h-1c-.42 0-.75-.34-.75-.75Z"/><path d="M15.75 12c0-.42.33-.75.75-.75h1c.41 0 .75.33.75.75 0 .41-.34.75-.75.75h-1c-.42 0-.75-.34-.75-.75Z"/></g><g fill="#CFD8DC"><path d="M10 12.25c-.42 0-.75.33-.75.75v5c0 .41.33.75.75.75h4c.41 0 .75-.34.75-.75v-5c0-.42-.34-.75-.75-.75h-4Z"/><path fill="#CFD8DC" fill-rule="evenodd" d="M1.25 18c0-.42.33-.75.75-.75h20c.41 0 .75.33.75.75 0 .41-.34.75-.75.75H2c-.42 0-.75-.34-.75-.75Z"/></g></svg>