<svg viewBox="0 0 24 24" xmlns="http://www.w3.org/2000/svg"><path fill="#CFD8DC" d="M4 8.75c-.42 0-.75.33-.75.75v10c0 .41.33.75.75.75h16c.41 0 .75-.34.75-.75v-10c0-.42-.34-.75-.75-.75H4Z"/><g fill="#8B98A6"><path d="M8.5 11.75c-1.52 0-2.75 1.23-2.75 2.75v5c0 .41.33.75.75.75h4c.41 0 .75-.34.75-.75v-5c0-1.52-1.24-2.75-2.75-2.75Z"/><path d="M15.5 11.75c-1.52 0-2.75 1.23-2.75 2.75v5c0 .41.33.75.75.75h4c.41 0 .75-.34.75-.75v-5c0-1.52-1.24-2.75-2.75-2.75Z"/></g><path fill="#EE4D4D" d="M7 3.75c-.42 0-.75.33-.75.75 0 2.34-1.91 4.25-4.25 4.25 -.42 0-.75.33-.75.75 0 .41.33.75.75.75h20c.41 0 .75-.34.75-.75 0-.42-.34-.75-.75-.75 -2.35 0-4.25-1.91-4.25-4.25 0-.42-.34-.75-.75-.75H7Z"/><path fill="#8B98A6" fill-rule="evenodd" d="M1.25 19.5c0-.42.33-.75.75-.75h20c.41 0 .75.33.75.75 0 .41-.34.75-.75.75H2c-.42 0-.75-.34-.75-.75Z"/></svg>