<svg viewBox="0 0 24 24" xmlns="http://www.w3.org/2000/svg"><path fill="#CFD8DC" fill-rule="evenodd" d="M12 1.25c.41 0 .75.33.75.75v3c0 .41-.34.75-.75.75 -.42 0-.75-.34-.75-.75V2c0-.42.33-.75.75-.75Z"/><g fill="#5E94FF"><path d="M11 10.25c-.36 0-.66.24-.74.58l-2.51 11c-.06.22 0 .45.14.63 .14.17.35.28.58.28h6.99c.22 0 .44-.11.58-.29 .14-.18.19-.42.14-.64l-2.5-11c-.08-.35-.39-.59-.74-.59h-2Z"/><path d="M10 8.25c-.42 0-.75-.34-.75-.75V5c0-.42.33-.75.75-.75h4c.41 0 .75.33.75.75v2.5c0 .41-.34.75-.75.75h-4Z"/></g><path fill="#CFD8DC" fill-rule="evenodd" d="M5.75 22c0-.42.33-.75.75-.75h11c.41 0 .75.33.75.75 0 .41-.34.75-.75.75h-11c-.42 0-.75-.34-.75-.75Z"/><path fill="#CFD8DC" d="M9.5 11.75c-.31 0-.58-.18-.69-.46l-1.5-3.5c-.1-.24-.08-.5.06-.71 .13-.22.37-.34.62-.34h8c.25 0 .48.12.62.33 .13.21.16.47.06.7l-1.5 3.49c-.12.27-.39.45-.69.45h-5Z"/></svg>