<svg viewBox="0 0 24 24" xmlns="http://www.w3.org/2000/svg"><g fill="#CFD8DC"><path d="M10.5 8.75c-.42 0-.75.33-.75.75v9c0 .41.33.75.75.75h3c.41 0 .75-.34.75-.75v-9c0-.42-.34-.75-.75-.75h-3Z"/><path fill="#CFD8DC" fill-rule="evenodd" d="M12 1.25c.41 0 .75.33.75.75v4c0 .41-.34.75-.75.75 -.42 0-.75-.34-.75-.75V2c0-.42.33-.75.75-.75Z"/></g><g fill="#5E94FF"><path d="M9.5 10.25c-.31 0-.58-.18-.69-.46l-1.5-3.5c-.1-.24-.08-.5.06-.71 .13-.22.37-.34.62-.34h8c.25 0 .48.12.62.33 .13.21.16.47.06.7l-1.5 3.5c-.12.27-.39.45-.69.45h-5Z"/><path d="M9.5 17.75c-.31 0-.58.17-.69.45l-1.5 3.5c-.1.23-.08.49.06.7 .13.21.37.33.62.33h8c.25 0 .48-.13.62-.34 .13-.22.16-.48.06-.71l-1.5-3.5c-.12-.28-.39-.46-.69-.46h-5Z"/></g><path fill="#CFD8DC" fill-rule="evenodd" d="M5.75 22c0-.42.33-.75.75-.75h11c.41 0 .75.33.75.75 0 .41-.34.75-.75.75h-11c-.42 0-.75-.34-.75-.75Z"/></svg>