<svg viewBox="0 0 24 24" xmlns="http://www.w3.org/2000/svg"><path fill="#CFD8DC" d="M9.5 4.25c-.39 0-.71.29-.75.67l-1.5 14.5c-.03.21.04.42.18.57 .14.15.34.24.55.24h8c.21 0 .41-.09.55-.25 .14-.16.21-.37.18-.58l-1.5-14.5c-.04-.39-.37-.68-.75-.68h-5Z"/><g fill="#A2ADB8" fill-rule="evenodd"><path d="M9.75 16.5c0-.42.33-.75.75-.75h3c.41 0 .75.33.75.75 0 .41-.34.75-.75.75h-3c-.42 0-.75-.34-.75-.75Z"/><path d="M10.25 14c0-.42.33-.75.75-.75h2c.41 0 .75.33.75.75 0 .41-.34.75-.75.75h-2c-.42 0-.75-.34-.75-.75Z"/><path d="M10.25 11.5c0-.42.33-.75.75-.75h2c.41 0 .75.33.75.75 0 .41-.34.75-.75.75h-2c-.42 0-.75-.34-.75-.75Z"/></g><g fill="#A2ADB8"><path d="M12.57 1.51c-.15-.18-.36-.27-.58-.27 -.23 0-.44.09-.58.26l-2.5 3c-.19.22-.23.53-.11.79 .12.26.38.43.67.43h4.99c.29 0 .55-.17.67-.44s.08-.58-.11-.8l-2.5-3Z"/><path d="M8 18.75c-1.52 0-2.75 1.23-2.75 2.75v.5c0 .41.33.75.75.75h12c.41 0 .75-.34.75-.75v-.5c0-1.52-1.24-2.75-2.75-2.75H8Z"/></g></svg>