<svg viewBox="0 0 24 24" xmlns="http://www.w3.org/2000/svg"><g fill-rule="evenodd"><path d="M5.18 18.22c1.07-.82 2.56-.82 3.63 0l.07.05c.35.27.85.27 1.21 0l.07-.06c1.07-.82 2.56-.82 3.63 0l.07.05c.35.27.85.27 1.21 0l.07-.06c1.07-.82 2.56-.82 3.63 0l.23.17c.31.24.75.27 1.1.07l1.34-.78 .99 1.73 -1.35.77c-1.05.59-2.35.51-3.31-.22l-.24-.18c-.36-.28-.86-.28-1.22 0l-.08.05c-1.08.81-2.57.81-3.64 0l-.08-.06c-.36-.28-.86-.28-1.22 0l-.08.05c-1.08.81-2.57.81-3.64 0l-.08-.06c-.36-.28-.86-.28-1.22 0l-.24.17c-.96.73-2.27.81-3.31.21l-1.35-.78 .99-1.74 1.34.77c.34.19.78.17 1.1-.08l.23-.18Z"/><path d="M5.18 13.93c1.07-.82 2.56-.82 3.63 0l.07.05c.35.27.85.27 1.21 0l.07-.06c1.07-.82 2.56-.82 3.63 0l.07.05c.35.27.85.27 1.21 0l.07-.06c1.07-.82 2.56-.82 3.63 0l.23.17c.31.24.75.27 1.1.07l1.34-.78 .99 1.73 -1.35.77c-1.05.59-2.35.51-3.31-.22l-.24-.18c-.36-.28-.86-.28-1.22 0l-.08.05c-1.08.81-2.57.81-3.64 0l-.08-.06c-.36-.28-.86-.28-1.22 0l-.08.05c-1.08.81-2.57.81-3.64 0l-.08-.06c-.36-.28-.86-.28-1.22 0l-.24.17c-.96.73-2.27.81-3.31.21l-1.35-.78 .99-1.74 1.34.77c.34.19.78.17 1.1-.08l.23-.18Z"/><path d="M5.18 9.65c1.07-.82 2.56-.82 3.63 0l.07.05c.35.27.85.27 1.21 0l.07-.06c1.07-.82 2.56-.82 3.63 0l.07.05c.35.27.85.27 1.21 0l.07-.06c1.07-.82 2.56-.82 3.63 0l.23.17c.31.24.75.27 1.1.07l1.34-.78 .99 1.73 -1.35.77c-1.05.59-2.35.51-3.31-.22l-.24-.18c-.36-.28-.86-.28-1.22 0l-.08.05c-1.08.81-2.57.81-3.64 0l-.08-.06c-.36-.28-.86-.28-1.22 0l-.08.05c-1.08.81-2.57.81-3.64 0l-.08-.06c-.36-.28-.86-.28-1.22 0l-.24.17c-.96.73-2.27.81-3.31.21l-1.35-.78 .99-1.74 1.34.77c.34.19.78.17 1.1-.08l.23-.18Z"/><path d="M5.18 5.36c1.07-.82 2.56-.82 3.63 0l.07.05c.35.27.85.27 1.21 0l.07-.06c1.07-.82 2.56-.82 3.63 0l.07.05c.35.27.85.27 1.21 0l.07-.06c1.07-.82 2.56-.82 3.63 0l.23.17c.31.24.75.27 1.1.07l1.34-.78 .99 1.73 -1.35.77c-1.05.59-2.35.51-3.31-.22l-.24-.18c-.36-.28-.86-.28-1.22 0l-.08.05c-1.08.81-2.57.81-3.64 0l-.08-.06c-.36-.28-.86-.28-1.22 0l-.08.05c-1.08.81-2.57.81-3.64 0l-.08-.06c-.36-.28-.86-.28-1.22 0l-.24.17c-.96.73-2.27.81-3.31.21l-1.35-.78 .99-1.74 1.34.77c.34.19.78.17 1.1-.08l.23-.18Z"/></g></svg>