<svg viewBox="0 0 24 24" xmlns="http://www.w3.org/2000/svg"><g fill-rule="evenodd"><path d="M10.33 1.55c.37-.16.8-.07 1.08.21l1.15 1.15v-.92h2v3.33c0 .4-.25.76-.62.92 -.38.15-.81.06-1.09-.22L11.7 4.86v.91H9.69V2.43c0-.41.24-.77.61-.93Z"/><path d="M12.14 8.71c-3.4 0-6.15 2.75-6.15 6.14 0 3.39 2.75 6.14 6.14 6.14 3.39 0 6.14-2.76 6.14-6.15 0-3.4-2.76-6.15-6.15-6.15Zm-8.15 6.14c0-4.5 3.64-8.15 8.14-8.15 4.49 0 8.14 3.64 8.14 8.14 0 4.49-3.65 8.14-8.15 8.14s-8.15-3.65-8.15-8.15Z"/><path d="M12.14 9.09c.4 0 .77.24.92.62l1.9 4.76c.09.23.09.5 0 .74l-1.91 4.76c-.16.37-.52.62-.93.62 -.41 0-.78-.25-.93-.63l-1.91-4.77c-.1-.24-.1-.51 0-.75l1.9-4.77c.15-.38.51-.63.92-.63Zm-.83 5.76l.82 2.06 .82-2.07 -.83-2.07 -.83 2.06Z"/></g></svg>