<svg viewBox="0 0 24 24" xmlns="http://www.w3.org/2000/svg"><g fill-rule="evenodd"><path d="M11.32 9.58c-2.69 0-4.8 2.08-4.8 4.56 0 .08 0 .15 0 .23 .01.27-.09.54-.28.74 -.19.19-.46.31-.73.31H5.5c-1.18 0-2.05.9-2.05 1.92s.87 1.92 2.04 1.92h12.19c.31 0 .61-.07.88-.19 .02-.02.04-.03.07-.03 1.37-.5 2.31-1.75 2.31-3.18 0-1.84-1.57-3.4-3.58-3.4 -.26 0-.51.02-.75.07 -.44.08-.88-.12-1.08-.51 -.79-1.47-2.4-2.5-4.28-2.5Zm-6.77 3.96c.31-3.38 3.25-5.97 6.76-5.97 2.35 0 4.44 1.16 5.66 2.94 .14-.02.28-.02.43-.02 3.03 0 5.57 2.37 5.57 5.39 0 2.32-1.52 4.28-3.61 5.04 -.51.22-1.08.34-1.67.34H5.49c-2.2 0-4.05-1.72-4.05-3.93 -.001-1.88 1.33-3.4 3.07-3.82Z"/><path d="M8.41 4.72c-3.03.21-5.42 2.73-5.42 5.81 0 1.42.51 2.73 1.36 3.747l-1.54 1.28C1.66 14.18.97 12.43.97 10.517c0-4.33 3.5-7.83 7.82-7.83 1.5 0 2.92.42 4.12 1.17 .4.24.57.74.41 1.18 -.16.44-.61.71-1.08.65 -.18-.03-.36-.04-.54-.04 -2.15 0-3.88 1.73-3.88 3.87 0 .04-.01.14-.01.24 -.01.08-.01.17-.01.25 -.01.09-.01.19-.01.27 0 .05 0 .08 0 .1 0 0 0 0-.01 0l-2 .19c-.02-.15-.02-.42-.02-.6 0-.12 0-.22 0-.3 0-.09 0-.15 0-.19 0-2.01 1-3.78 2.54-4.84Z"/></g></svg>