<svg viewBox="0 0 24 24" xmlns="http://www.w3.org/2000/svg"><g fill-rule="evenodd"><path d="M9.8 7.39c-3.76 0-6.81 3.04-6.81 6.8 0 3.75 3.04 6.8 6.8 6.8 3.75 0 6.8-3.05 6.8-6.81s-3.05-6.81-6.81-6.81Zm-8.81 6.8c0-4.87 3.94-8.81 8.8-8.81 4.86 0 8.8 3.94 8.8 8.8 0 4.86-3.95 8.8-8.81 8.8 -4.87 0-8.81-3.95-8.81-8.81Z"/><path d="M19.07 1c.32 0 .62.15.81.42l.85 1.2 1.41.43c.3.09.55.33.65.64 .1.3.04.64-.15.9l-.89 1.18 .01 1.47c0 .32-.15.63-.42.82 -.27.19-.61.24-.91.13l-1.4-.48 -1.4.47c-.31.1-.65.05-.91-.14 -.27-.2-.42-.5-.42-.83l.01-1.48 -.89-1.19c-.2-.27-.25-.6-.15-.91 .1-.31.34-.55.65-.65l1.41-.44 .85-1.21c.18-.27.49-.43.81-.43Zm0 2.73l-.24.32c-.13.17-.31.31-.52.37l-.39.11 .24.32c.13.17.2.39.19.61l-.01.4 .38-.13c.2-.08.43-.08.64 0l.38.12 -.01-.41c-.01-.22.06-.44.19-.62l.24-.33 -.39-.12c-.21-.07-.4-.2-.52-.38l-.24-.33Z"/></g></svg>