<svg viewBox="0 0 24 24" xmlns="http://www.w3.org/2000/svg"><g fill-rule="evenodd"><path d="M7.78 16.88c-.38-.32-.92-.33-1.3-.01l-1.5 1.24 -1.29-1.54 1.49-1.25c1.12-.94 2.76-.93 3.87.02l.56.48c.39.34.98.31 1.35-.06l.06-.07c1.17-1.18 3.07-1.18 4.24 0l.17.17c.34.34.89.39 1.28.1l1.87-1.35 1.16 1.62 -1.88 1.34c-1.2.85-2.83.71-3.865-.32l-.18-.18c-.4-.4-1.03-.4-1.42 0l-.07.06c-1.11 1.1-2.89 1.17-4.08.15l-.57-.49Z"/><path d="M7.78 21.06c-.38-.32-.92-.33-1.3-.01l-1.5 1.24 -1.29-1.54 1.49-1.25c1.12-.94 2.76-.93 3.87.02l.56.48c.39.34.98.31 1.35-.06l.06-.07c1.17-1.18 3.07-1.18 4.24 0l.17.17c.34.34.89.39 1.28.1l1.87-1.35 1.16 1.62 -1.88 1.34c-1.2.85-2.83.71-3.865-.32l-.18-.18c-.4-.4-1.03-.4-1.42 0l-.07.06c-1.11 1.1-2.89 1.17-4.08.15l-.57-.49Z"/><path d="M10.93 3C8.39 3 6.4 4.96 6.4 7.3c0 .07 0 .15 0 .22 .01.27-.09.54-.28.74 -.19.19-.46.31-.73.31h-.01c-1.1 0-1.91.83-1.91 1.79 0 .95.81 1.79 1.9 1.79h11.62c.29 0 .57-.07.82-.18 .02-.02.04-.03.07-.03 1.29-.47 2.17-1.65 2.17-2.99 0-1.73-1.47-3.19-3.37-3.19 -.25 0-.48.02-.71.06 -.44.08-.88-.12-1.08-.51 -.75-1.39-2.26-2.36-4.04-2.36Zm-6.5 3.7C4.74 3.47 7.56.99 10.92.99c2.25 0 4.25 1.1 5.427 2.8 .12-.01.25-.02.38-.02 2.92 0 5.36 2.28 5.36 5.18 0 2.24-1.47 4.11-3.47 4.85 -.5.21-1.04.33-1.61.33H5.37c-2.12 0-3.91-1.66-3.91-3.8 0-1.8 1.26-3.26 2.93-3.68Z"/></g></svg>