<svg viewBox="0 0 24 24" xmlns="http://www.w3.org/2000/svg"><g fill-rule="evenodd"><path d="M14.34 13.5c-1.83 0-3.16 1.33-3.16 2.8 0 .04 0 .09 0 .14 .01.27-.09.54-.28.74 -.19.19-.46.31-.73.31h-.01c-.75 0-1.19.53-1.19 1 0 .46.44 1 1.18 1h8.75c.19 0 .37-.04.53-.11 .02-.02.04-.02.07-.03 .9-.31 1.45-1.07 1.45-1.87 0-1.03-.94-2-2.29-2 -.17 0-.34.01-.49.04 -.43.08-.85-.12-1.06-.5 -.51-.9-1.56-1.56-2.83-1.56Zm-5.11 2.13c.34-2.4 2.57-4.14 5.1-4.14 1.7 0 3.24.77 4.19 2 .06-.01.12-.01.18-.01 2.27 0 4.28 1.7 4.28 4 0 1.76-1.21 3.19-2.78 3.74 -.4.16-.84.25-1.29.25h-8.75c-1.68 0-3.19-1.27-3.19-3 0-1.4.98-2.49 2.23-2.87Z"/><path d="M9.65 9.5c1.82 0 3.15 1.33 3.15 2.8 0 .04-.01.09-.01.14l1.99.11c0-.09 0-.18 0-.26 0-2.74-2.4-4.8-5.16-4.8 -1.71 0-3.25.77-4.2 2 -.07-.01-.13-.01-.19-.01 -2.28 0-4.29 1.7-4.29 4 0 1.76 1.2 3.19 2.77 3.74 .39.16.83.25 1.28.25h4.93v-2H4.98c-.2 0-.38-.04-.54-.11 -.03-.02-.05-.02-.08-.03 -.91-.31-1.46-1.07-1.46-1.87 0-1.03.93-2 2.28-2 .16 0 .33.01.48.04 .42.08.84-.12 1.05-.5 .5-.9 1.55-1.56 2.82-1.56Z"/><path d="M18.5 2.5c.32 0 .62.15.81.42l.88 1.24 1.45.45c.3.09.55.33.65.64 .1.3.04.64-.15.9l-.92 1.22 .01 1.52c0 .32-.15.63-.42.82 -.27.19-.61.24-.91.13l-1.45-.49 -1.45.48c-.31.1-.65.05-.91-.14 -.27-.2-.42-.5-.42-.83l.01-1.53 -.92-1.23c-.2-.27-.25-.6-.15-.91 .1-.31.34-.55.65-.65l1.45-.46 .88-1.25c.18-.27.49-.43.81-.43Zm0 2.73l-.26.36c-.13.17-.31.31-.52.37l-.43.13 .26.36c.13.17.2.39.19.61l-.01.44 .42-.15c.2-.08.43-.08.64 0l.42.14 -.01-.45c-.01-.22.06-.44.19-.62l.26-.37 -.43-.14c-.21-.07-.4-.2-.52-.38l-.26-.37Z"/></g></svg>