<svg viewBox="0 0 24 24" xmlns="http://www.w3.org/2000/svg"><g fill-rule="evenodd"><path d="M16.03 11.54c-1.31 0-2.24.96-2.24 2.02 0 .03 0 .06 0 .1 .01.27-.09.54-.28.74 -.19.19-.46.31-.73.31h-.01c-.46 0-.71.32-.71.59 0 .26.24.59.7.59h6.81c.11 0 .22-.03.32-.07 .02-.02.04-.02.07-.03 .61-.22.99-.75.99-1.3 0-.71-.64-1.39-1.56-1.39 -.12 0-.23.01-.34.03 -.43.08-.86-.12-1.07-.5 -.36-.65-1.11-1.13-2.01-1.13Zm-4.18 1.34c.34-1.95 2.13-3.35 4.17-3.35 1.36 0 2.59.61 3.37 1.59 .01-.01.02-.01.03-.01 1.89 0 3.55 1.45 3.55 3.38 0 1.48-1 2.69-2.3 3.16 -.34.14-.71.21-1.09.21h-6.82c-1.43 0-2.71-1.1-2.71-2.6 0-1.16.76-2.07 1.76-2.43Z"/><path d="M10.09 5.09V2.81h2v2.27h-2Z"/><path d="M4.27 12.9H1.99v-2h2.27v2Z"/><path d="M10.09 21v-2.28h2v2.27h-2Z"/><path d="M5.56 7.79L3.95 6.18l1.41-1.42 1.6 1.6 -1.42 1.41Z"/><path d="M16.61 7.79l1.6-1.61 -1.42-1.42 -1.61 1.6 1.41 1.41Z"/><path d="M5.36 19.04l1.6-1.61 -1.42-1.42 -1.61 1.6 1.41 1.41Z"/><path d="M11.09 8.36c-1.96 0-3.55 1.58-3.55 3.54 0 1.95 1.58 3.54 3.54 3.54h.45v2h-.46c-3.07 0-5.55-2.49-5.55-5.55 0-3.07 2.48-5.55 5.54-5.55 2.48 0 4.58 1.63 5.29 3.88l-1.91.59c-.46-1.44-1.8-2.49-3.39-2.49Z"/></g></svg>