<svg viewBox="0 0 24 24" xmlns="http://www.w3.org/2000/svg"><g fill-rule="evenodd"><path d="M14.14 8.85c-1.44 0-2.48 1.06-2.48 2.24 0 .03 0 .07 0 .11 .01.27-.09.54-.28.74 -.19.19-.46.31-.73.31h-.01c-.53 0-.83.38-.83.7 0 .32.3.7.82.7h7.31c.13 0 .26-.03.37-.08 .02-.02.04-.02.07-.03 .68-.24 1.11-.84 1.11-1.46 0-.8-.72-1.561-1.75-1.561 -.13 0-.26.01-.38.03 -.43.08-.86-.12-1.07-.5 -.4-.72-1.23-1.25-2.22-1.25Zm-4.43 1.57c.34-2.07 2.24-3.58 4.42-3.58 1.45 0 2.76.65 3.58 1.7 .02-.01.04-.01.06-.01 2 0 3.74 1.53 3.74 3.56 0 1.56-1.05 2.83-2.43 3.33 -.36.14-.74.22-1.14.22H10.62c-1.5 0-2.83-1.15-2.83-2.71 0-1.22.81-2.19 1.88-2.56Z"/><path d="M9.32 5.92c-1.61 0-2.91 1.29-2.91 2.9 0 1.47 1.1 2.7 2.53 2.87l-.25 1.98c-2.42-.31-4.3-2.37-4.3-4.87 0-2.71 2.19-4.91 4.9-4.91 2.28 0 4.2 1.56 4.74 3.67l-1.94.49c-.33-1.26-1.47-2.18-2.82-2.18Z"/><path d="M10.32 2v2.92h-2V1.99h2Z"/><path d="M5.15 2.75l2.06 2.06 -1.42 1.41 -2.07-2.07 1.41-1.42Z"/><path d="M13.61 2.75l-2.33 2.32 1.41 1.41 2.32-2.33 -1.42-1.42Z"/><path d="M5.93 11.049l-2.07 2.06 1.41 1.41 2.06-2.07 -1.42-1.42Z"/><path d="M2.5 7.82h2.92v2H2.49v-2Z"/><path d="M17.271 22v-4.88h2v4.87h-2Z"/><path d="M19.88 21.64l-4.23-2.439 1-1.74 4.22 2.43 -1 1.73Z"/><path d="M16.65 21.64l4.22-2.439 -1-1.74 -4.23 2.43 1 1.73Z"/><path d="M10.44 22v-4.88h2v4.87h-2Z"/><path d="M13.05 21.64l-4.23-2.439 1-1.74 4.22 2.43 -1 1.73Z"/><path d="M9.82 21.64l4.22-2.439 -1-1.74 -4.23 2.43 1 1.73Z"/></g></svg>