<svg viewBox="0 0 24 24" xmlns="http://www.w3.org/2000/svg"><g fill-rule="evenodd"><path d="M11.06 3C8.29 3 6.12 5.14 6.12 7.7c0 .08 0 .16 0 .24 .01.27-.09.54-.28.74 -.19.19-.46.31-.73.31H5.1c-1.22 0-2.125.93-2.125 2 0 1.06.91 2 2.125 2h12.5c.33 0 .63-.08.91-.2 .02-.02.04-.03.07-.03 1.41-.51 2.38-1.81 2.38-3.28 0-1.9-1.62-3.5-3.69-3.5 -.27 0-.53.02-.77.07 -.44.08-.88-.12-1.08-.51 -.82-1.52-2.47-2.57-4.41-2.57ZM4.14 7.11C4.44 3.65 7.45.99 11.05.99c2.41 0 4.55 1.19 5.79 3.01 .14-.02.3-.02.45-.02 3.1 0 5.68 2.42 5.68 5.5 0 2.37-1.55 4.36-3.68 5.14 -.52.22-1.1.35-1.7.35H5.09c-2.24 0-4.13-1.76-4.13-4 0-1.92 1.36-3.47 3.15-3.89Z"/><path d="M9.1 17.55l2-4 1.78.89 -1.28 2.55h2.38c.34 0 .66.17.85.47 .18.29.19.66.04.97l-2 4 -1.79-.9 1.27-2.56H9.96c-.35 0-.67-.18-.86-.48 -.19-.3-.2-.67-.05-.98Z"/></g></svg>