<svg viewBox="0 0 24 24" xmlns="http://www.w3.org/2000/svg"><g fill-rule="evenodd"><path d="M14.68 9.125c-1.49 0-2.57 1.1-2.57 2.32 0 .04 0 .08 0 .11 .01.27-.09.54-.28.74 -.19.19-.46.31-.73.31h-.01c-.55 0-.875.39-.875.75 0 .35.32.75.875.75h7.5c.14 0 .27-.03.39-.09 .02-.02.04-.02.07-.03 .71-.25 1.15-.87 1.15-1.516 0-.84-.75-1.625-1.82-1.625 -.14 0-.27.01-.39.03 -.43.08-.86-.12-1.07-.5 -.42-.75-1.27-1.29-2.3-1.29Zm-4.51 1.65c.34-2.12 2.28-3.66 4.5-3.66 1.48 0 2.82.67 3.66 1.75 .02-.01.05-.01.08-.01 2.03 0 3.81 1.55 3.81 3.625 0 1.58-1.07 2.88-2.47 3.39 -.36.15-.75.23-1.16.23h-7.5c-1.53 0-2.875-1.17-2.875-2.75 0-1.25.83-2.23 1.92-2.6Z"/><path d="M9.75 6.12c-1.66 0-3 1.34-3 3 0 1.52 1.14 2.79 2.62 2.97l-.25 1.98c-2.47-.31-4.38-2.42-4.38-4.97 0-2.77 2.23-5 5-5 2.33 0 4.28 1.59 4.84 3.75l-1.94.49c-.34-1.3-1.51-2.25-2.91-2.25Z"/><path d="M10.75 2.125v3h-2v-3h2Z"/><path d="M5.45 2.91l2.12 2.12 -1.42 1.41 -2.13-2.13 1.41-1.42Z"/><path d="M14.164 2.91l-2.13 2.12 -.02.01 -.38.39 1.43 1.39 .37-.39 2.11-2.12 -1.42-1.42Z"/><path d="M6.28 11.41l-2.13 2.12 1.41 1.41 2.12-2.13 -1.42-1.42Z"/><path d="M2.75 8.125h3v2h-3v-2Z"/><path d="M12.38 18.12l2-3.5 1.73.99 -1.15 2h2.27c.36 0 .69.19.87.51 .17.31.16.7-.03 1.01l-2 3.25 -1.71-1.05 1.06-1.73H13.2c-.36 0-.69-.19-.87-.5 -.18-.31-.19-.69-.01-1Z"/></g></svg>