<svg viewBox="0 0 24 24" xmlns="http://www.w3.org/2000/svg"><g fill="#9545ED" fill-rule="evenodd"><path d="M11 11.5c0-1.66 1.34-3 3-3h1c.55 0 1 .44 1 1v1c0 1.65-1.35 3-3 3h-1c-.56 0-1-.45-1-1v-1Zm2 0c0-.56.44-1 1-1 0 .55-.45 1-1 1Z"/><path d="M11 15.5c0-1.66 1.34-3 3-3h1c.55 0 1 .44 1 1v1c0 1.65-1.35 3-3 3h-1c-.56 0-1-.45-1-1v-1Zm2 0c0-.56.44-1 1-1 0 .55-.45 1-1 1Z"/><path d="M13 11.5c0-1.66-1.35-3-3-3H9c-.56 0-1 .44-1 1v1c0 1.65 1.34 3 3 3h1c.55 0 1-.45 1-1v-1Zm-2 0c0-.56-.45-1-1-1 0 .55.44 1 1 1Z"/><path d="M13 15.5c0-1.66-1.35-3-3-3H9c-.56 0-1 .44-1 1v1c0 1.65 1.34 3 3 3h1c.55 0 1-.45 1-1v-1Zm-2 0c0-.56-.45-1-1-1 0 .55.44 1 1 1Z"/><path d="M11 19.5v-11h2v11h-2Z"/><path d="M12.74 3.83l-.75.66 -.75-.67c.18-.22.46-.34.74-.34 .28 0 .55.12.74.33Zm-.75 2.27c-.15.21-.29.42-.38.6 -.11.2-.13.29-.13.29 -.01-.01-.01-.01-.01-.01 -.01-.01-.01-.01-.01-.01m.5-.89c.14.21.28.42.37.6 .1.2.12.29.12.29 0-.01 0-.01 0-.01 -.01.27-.23.49-.5.49 -.28 0-.5-.22-.5-.5m.49-2.51c-.75-.67-.75-.67-.75-.67l-.01 0 -.01 0 -.02.01c-.02.01-.04.03-.06.06 -.05.05-.11.12-.19.21 -.16.18-.36.43-.56.71 -.21.28-.43.61-.6.94 -.16.3-.35.74-.35 1.19 0 1.38 1.11 2.5 2.5 2.5 1.38 0 2.5-1.12 2.5-2.5 0-.46-.19-.9-.35-1.2 -.18-.34-.4-.67-.6-.95 -.21-.29-.41-.54-.56-.72 -.08-.1-.14-.17-.19-.22 -.03-.03-.05-.05-.06-.07l-.02-.02 -.01-.01 -.01-.01c-.01-.01 0 0-.75.66Z"/><path fill="#3747D6" d="M12 3c-4.98 0-9 4.02-9 9 0 4.97 4.02 9 9 9 4.97 0 9-4.03 9-9 0-4.98-4.03-9-9-9ZM1 12C1 5.92 5.92 1 12 1c6.07 0 11 4.92 11 11 0 6.07-4.93 11-11 11C5.92 23 1 18.07 1 12Z"/></g></svg>