<svg viewBox="0 0 24 24" xmlns="http://www.w3.org/2000/svg"><g fill="#9545ED" fill-rule="evenodd"><path d="M6.5 8c0 .55.44 1 1 1h9c.55 0 1-.45 1-1V5.5C17.5 3.01 15.48 1 13 1h-2C8.51 1 6.5 3.01 6.5 5.5V8Zm2-1V5.5C8.5 4.11 9.61 3 11 3h2c1.38 0 2.5 1.11 2.5 2.5V7h-7Z"/><path d="M15.5 16h-7v-2h7v2Z"/><path fill="#3747D6" d="M4.24 7.34c.18-.22.46-.35.75-.35h14c.28 0 .56.12.75.34 .18.21.27.5.23.79l-2 14c-.08.49-.5.85-.99.85h-10c-.5 0-.92-.37-.99-.86l-2-14c-.05-.29.04-.58.23-.8Zm1.9 1.65l1.71 12h8.26l1.71-12H6.12Z"/></g></svg>