<svg viewBox="0 0 24 24" xmlns="http://www.w3.org/2000/svg"><g fill="#3747D6" fill-rule="evenodd"><path d="M3.18 1.41c.18-.27.48-.42.81-.42h16c.32 0 .62.15.81.41 .18.26.23.59.13.9l-.95 2.84V18.6l.95 3.07c.09.3.03.63-.15.88 -.19.25-.49.4-.81.4h-16c-.33 0-.63-.16-.82-.42 -.19-.27-.24-.6-.14-.91l.94-2.85V5.09L3 2.24c-.11-.31-.06-.65.13-.91Zm2.19 1.58l.56 1.68c.03.1.05.2.05.31v14c0 .1-.02.21-.06.31l-.57 1.68H18.6l-.6-1.93c-.03-.1-.05-.2-.05-.3V4.96c0-.11.01-.22.05-.32l.56-1.69H5.33Z"/><g fill="#9545ED"><path d="M13 11c0-1.66-1.35-3-3-3H8c-.56 0-1 .44-1 1v1c0 1.65 1.34 3 3 3h2c.55 0 1-.45 1-1v-1Zm-3-1c.55 0 1 .44 1 1h-1c-.56 0-1-.45-1-1h1Z"/><path d="M13 11v4h-2v-4h2Z"/><path d="M11 11c0-1.66 1.34-3 3-3h2c.55 0 1 .44 1 1v1c0 1.65-1.35 3-3 3h-2c-.56 0-1-.45-1-1v-1Zm3-1c-.56 0-1 .44-1 1h1c.55 0 1-.45 1-1h-1Z"/></g></g></svg>