<svg viewBox="0 0 24 24" xmlns="http://www.w3.org/2000/svg"><g fill="#9545ED" fill-rule="evenodd"><path d="M15.2 10.2L2.7 22.7l-1.42-1.42 12.5-12.5 1.41 1.41Z"/><g fill="#3747D6"><path d="M17.293 2.29c.94-.95 2.47-.95 3.41 0l1 1c.94.94.94 2.47 0 3.41 -.95.94-2.48.94-3.42 0l-1-1c-.95-.95-.95-2.48 0-3.42Zm2 1.41c-.17-.17-.43-.17-.59 0 -.17.16-.17.42 0 .58l1 1c.16.16.42.16.58 0 .16-.17.16-.43 0-.59l-1-1Z"/><path d="M13.293 6.29c.94-.95 2.47-.95 3.41 0l1 1c.94.94.94 2.47 0 3.41 -.95.94-2.48.94-3.42 0l-1-1c-.95-.95-.95-2.48 0-3.42Zm2 1.41c-.17-.17-.43-.17-.59 0 -.17.16-.17.42 0 .58l1 1c.16.16.42.16.58 0 .16-.17.16-.43 0-.59l-1-1Z"/><path d="M13.793 2.79c.94-.95 2.47-.95 3.41 0l4 4c.94.94.94 2.47 0 3.41 -.95.94-2.48.94-3.42 0l-4-4c-.95-.95-.95-2.48 0-3.42Zm2 1.41c-.17-.17-.43-.17-.59 0 -.17.16-.17.42 0 .58l4 4c.16.16.42.16.58 0 .16-.17.16-.43 0-.59l-4-4Z"/></g></g></svg>