<svg viewBox="0 0 24 24" xmlns="http://www.w3.org/2000/svg"><g fill="#9545ED" fill-rule="evenodd"><path d="M14.29 6.29c.39-.4 1.02-.4 1.41 0l2 2c.18.18.29.44.29.7 0 .26-.11.51-.3.7l-13 13c-.4.39-1.03.39-1.42 0l-2-2c-.19-.19-.3-.45-.3-.71 0-.27.1-.52.29-.71l13-13ZM3.41 19.99l.58.58L15.57 8.98l-.59-.59L3.39 19.97Z"/><path d="M19.49 1.5c.26-.01.51.1.7.29l2 2c.39.39.39 1.02 0 1.41l-2 2c-.19.18-.45.29-.71.29 -.27 0-.52-.11-.71-.3l-2-2c-.4-.4-.4-1.03 0-1.42l1.99-2c.18-.19.44-.3.7-.3Zm0 2.41l-.59.58 .58.58 .58-.59 -.59-.59Z"/><path fill="#3747D6" d="M6.03 1.75c.11-.45.51-.76.96-.76h7.17c.79 0 1.55.31 2.12.87l5.82 5.82c.56.56.87 1.32.87 2.12v7.17c0 .45-.32.85-.76.96 -.45.11-.91-.1-1.125-.5l-3.37-6.25c-.05-.09-.11-.17-.18-.24l-4.59-4.59c-.07-.07-.15-.13-.24-.18L6.455 2.8c-.41-.22-.61-.69-.5-1.13Zm4.93 1.24l2.74 1.48c.25.13.49.31.69.52l4.58 4.58c.2.2.38.44.52.69L20.97 13V9.79c0-.27-.11-.52-.3-.71l-5.83-5.83c-.19-.19-.45-.3-.71-.3h-3.21Z"/></g></svg>