<svg viewBox="0 0 24 24" xmlns="http://www.w3.org/2000/svg"><g fill="#3747D6" fill-rule="evenodd"><path d="M1 12c0-.56.44-1 1-1h6c.55 0 1 .44 1 1v1c0 1.1.89 2 2 2h2c1.1 0 2-.9 2-2v-1c0-.56.44-1 1-1h6c.55 0 1 .44 1 1 0 6.07-4.93 11-11 11C5.92 23 1 18.07 1 12Zm2.05 1c.49 4.5 4.31 8 8.94 8s8.44-3.5 8.94-8h-3.95c0 2.2-1.8 4-4 4h-2c-2.21 0-4-1.8-4-4H3.03Z"/><g fill="#9545ED"><path d="M8 6.5C8 5.11 9.11 4 10.5 4 11.88 4 13 5.11 13 6.5V8c0 1.38-1.12 2.5-2.5 2.5C9.11 10.5 8 9.38 8 8V6.5Zm2.5-.5c-.28 0-.5.22-.5.5V8c0 .27.22.5.5.5 .27 0 .5-.23.5-.5V6.5c0-.28-.23-.5-.5-.5Z"/><path d="M13 3.5C13 2.11 14.11 1 15.5 1 16.88 1 18 2.11 18 3.5V5c0 1.38-1.12 2.5-2.5 2.5C14.11 7.5 13 6.38 13 5V3.5Zm2.5-.5c-.28 0-.5.22-.5.5V5c0 .27.22.5.5.5 .27 0 .5-.23.5-.5V3.5c0-.28-.23-.5-.5-.5Z"/></g></g></svg>