<svg viewBox="0 0 24 24" xmlns="http://www.w3.org/2000/svg"><g fill-rule="evenodd"><path d="M14 5h-.5V3h.5c1.65 0 3 1.34 3 3v3.5c0 .31.14.61.4.8l1.2.9c.24.18.38.45.39.75 .01.29-.12.58-.34.78l-1.33 1.18c-.22.18-.34.46-.34.74v3.32c0 1.65-1.35 3-3 3h-.5v-2h.5c.55 0 1-.45 1-1v-3.33c0-.86.36-1.68 1-2.25l.41-.37 -.23-.17c-.76-.57-1.2-1.46-1.2-2.4v-3.5c0-.56-.45-1-1-1Z"/><path d="M10 5h.5V3H10C8.34 3 7 4.34 7 6v3.5c0 .31-.15.61-.4.8l-1.2.9c-.25.18-.39.45-.4.75 -.02.29.11.58.33.78l1.32 1.18c.21.18.33.46.33.74v3.32c0 1.65 1.34 3 3 3h.5v-2h-.5c-.56 0-1-.45-1-1v-3.33c0-.86-.37-1.68-1.01-2.25l-.42-.37 .22-.17c.75-.57 1.2-1.46 1.2-2.4v-3.5c0-.56.44-1 1-1Z"/></g></svg>