<svg viewBox="0 0 24 24" xmlns="http://www.w3.org/2000/svg"><g fill-rule="evenodd"><path d="M1 9c0-1.11.89-2 2-2h13c1.1 0 2 .89 2 2v12c0 1.1-.9 2-2 2H3c-1.11 0-2-.9-2-2V9Zm15 0H3v12h13V9Z"/><path d="M6 4c0-1.11.89-2 2-2h13c1.1 0 2 .89 2 2v12c0 1.1-.9 2-2 2h-4c-.56 0-1-.45-1-1V9H7c-.56 0-1-.45-1-1V4Zm15 0H8v3h8c1.1 0 2 .89 2 2v7h3V4Z"/><path d="M1 9c0-1.11.89-2 2-2h13c1.1 0 2 .89 2 2v4c0 .55-.45 1-1 1H2c-.56 0-1-.45-1-1V9Zm15 0H3v3h13V9Z"/><path d="M6 4c0-1.11.89-2 2-2h13c1.1 0 2 .89 2 2v4c0 .55-.45 1-1 1H7c-.56 0-1-.45-1-1V4Zm15 0H8v3h13V4Z"/></g></svg>