<svg viewBox="0 0 24 24" xmlns="http://www.w3.org/2000/svg"><g fill-rule="evenodd"><path d="M12 11c-1.11 0-2 .89-2 2 0 1.1.89 2 2 2 1.1 0 2-.9 2-2 0-1.11-.9-2-2-2Zm-4 2c0-2.21 1.79-4 4-4 2.2 0 4 1.79 4 4 0 2.2-1.8 4-4 4 -2.21 0-4-1.8-4-4Z"/><path d="M12 4c-.56 0-1 .44-1 1 0 .55.44 1 1 1 .55 0 1-.45 1-1 0-.56-.45-1-1-1ZM9 5c0-1.66 1.34-3 3-3 1.65 0 3 1.34 3 3 0 1.65-1.35 3-3 3 -1.66 0-3-1.35-3-3Z"/><path d="M5.5 18c-.56 0-1 .44-1 1 0 .55.44 1 1 1 .55 0 1-.45 1-1 0-.56-.45-1-1-1Zm-3 1c0-1.66 1.34-3 3-3 1.65 0 3 1.34 3 3 0 1.65-1.35 3-3 3 -1.66 0-3-1.35-3-3Z"/><path d="M18.5 18c-.56 0-1 .44-1 1 0 .55.44 1 1 1 .55 0 1-.45 1-1 0-.56-.45-1-1-1Zm-3 1c0-1.66 1.34-3 3-3 1.65 0 3 1.34 3 3 0 1.65-1.35 3-3 3 -1.66 0-3-1.35-3-3Z"/><path d="M12 6c.55 0 1 .44 1 1v3c0 .55-.45 1-1 1 -.56 0-1-.45-1-1V7c0-.56.44-1 1-1Z"/><path d="M13.73 14.73c.39-.4 1.02-.4 1.41 0l2.12 2.12c.39.39.39 1.02 0 1.41 -.4.39-1.03.39-1.42 0l-2.13-2.13c-.4-.4-.4-1.03 0-1.42Z"/><path d="M10.26 14.73c-.4-.4-1.03-.4-1.42 0l-2.13 2.12c-.4.39-.4 1.02 0 1.41 .39.39 1.02.39 1.41 0l2.12-2.13c.39-.4.39-1.03 0-1.42Z"/><path d="M18 7.5v-5h2v5h-2Z"/><path d="M21.5 6h-5V4h5v2Z"/></g></svg>