<svg viewBox="0 0 24 24" xmlns="http://www.w3.org/2000/svg"><g fill-rule="evenodd"><path d="M12 2.5C8.41 2.5 5.5 5.41 5.5 9c0 2.83 1.66 5.97 3.4 8.46 .86 1.23 1.72 2.27 2.37 3.01 .28.33.53.59.71.79 .18-.2.42-.47.71-.8 .64-.75 1.51-1.79 2.37-3.02 1.74-2.49 3.4-5.63 3.4-8.47 0-3.59-2.92-6.5-6.5-6.5ZM12 22c-.36.35-.36.35-.36.35l-.01-.01 -.01-.01 -.02-.02c-.02-.02-.04-.04-.07-.07 -.06-.06-.13-.14-.23-.24 -.2-.21-.48-.51-.81-.89 -.67-.76-1.56-1.84-2.44-3.11 -1.76-2.52-3.6-5.88-3.6-9.04 0-4.15 3.35-7.5 7.5-7.5 4.14 0 7.5 3.35 7.5 7.5 0 3.16-1.84 6.52-3.6 9.03 -.89 1.26-1.78 2.34-2.44 3.1 -.34.38-.62.68-.81.88 -.1.1-.18.18-.23.23 -.03.02-.05.04-.07.06l-.02.01 -.01 0 -.01 0c-.01 0-.01 0-.36-.36Zm0 0l.35.35c-.2.19-.52.19-.71 0l.35-.36Z"/><path d="M11.5 11c0-1.39 1.11-2.5 2.5-2.5h1c.27 0 .5.22.5.5v1c0 1.38-1.12 2.5-2.5 2.5h-1c-.28 0-.5-.23-.5-.5v-1ZM14 9.5c-.83 0-1.5.67-1.5 1.5v.5h.5c.82 0 1.5-.68 1.5-1.5v-.5H14Z"/><path d="M11.5 15c0-1.39 1.11-2.5 2.5-2.5h1c.27 0 .5.22.5.5v1c0 1.38-1.12 2.5-2.5 2.5h-1c-.28 0-.5-.23-.5-.5v-1Zm2.5-1.5c-.83 0-1.5.67-1.5 1.5v.5h.5c.82 0 1.5-.68 1.5-1.5v-.5H14Z"/><path d="M12.5 11c0-1.39-1.12-2.5-2.5-2.5H9c-.28 0-.5.22-.5.5v1c0 1.38 1.11 2.5 2.5 2.5h1c.27 0 .5-.23.5-.5v-1ZM10 9.5c.82 0 1.5.67 1.5 1.5v.5H11c-.83 0-1.5-.68-1.5-1.5v-.5h.5Z"/><path d="M12.5 15c0-1.39-1.12-2.5-2.5-2.5H9c-.28 0-.5.22-.5.5v1c0 1.38 1.11 2.5 2.5 2.5h1c.27 0 .5-.23.5-.5v-1ZM10 13.5c.82 0 1.5.67 1.5 1.5v.5H11c-.83 0-1.5-.68-1.5-1.5v-.5h.5Z"/><path d="M11.5 19V8h1v11h-1Z"/><path d="M12.37 3.66l-.38.33 -.38-.34c.09-.11.23-.17.37-.17 .14 0 .27.06.37.16Zm-.38 1.11c-.11.13-.23.28-.35.45 -.19.25-.36.51-.48.75 -.14.25-.18.42-.18.51 0 .55.44 1 1 1 .55 0 1-.45 1-1 0-.09-.05-.26-.18-.52 -.13-.25-.3-.51-.48-.76 -.12-.17-.24-.32-.35-.46Zm0-.78c-.38-.34-.38-.34-.38-.34l-.01 0 -.01 0 -.02.01c-.02.01-.03.03-.06.05 -.05.04-.11.12-.18.2 -.15.17-.35.41-.54.69 -.2.27-.4.57-.56.88 -.15.28-.29.63-.29.96 0 1.1.89 2 2 2 1.1 0 2-.9 2-2 0-.34-.15-.69-.29-.97 -.16-.31-.36-.62-.56-.89 -.2-.28-.4-.52-.54-.7 -.08-.09-.14-.16-.18-.21 -.03-.03-.04-.05-.06-.06l-.02-.02 -.01-.01 -.01-.01c0-.01 0 0-.38.33Z"/></g></svg>