<svg viewBox="0 0 24 24" xmlns="http://www.w3.org/2000/svg"><g fill-rule="evenodd"><path d="M12 2.5C8.41 2.5 5.5 5.41 5.5 9c0 2.83 1.66 5.97 3.4 8.46 .86 1.23 1.72 2.27 2.37 3.01 .28.33.53.59.71.79 .18-.2.42-.47.71-.8 .64-.75 1.51-1.79 2.37-3.02 1.74-2.49 3.4-5.63 3.4-8.47 0-3.59-2.92-6.5-6.5-6.5ZM12 22c-.36.35-.36.35-.36.35l-.01-.01 -.01-.01 -.02-.02c-.02-.02-.04-.04-.07-.07 -.06-.06-.13-.14-.23-.24 -.2-.21-.48-.51-.81-.89 -.67-.76-1.56-1.84-2.44-3.11 -1.76-2.52-3.6-5.88-3.6-9.04 0-4.15 3.35-7.5 7.5-7.5 4.14 0 7.5 3.35 7.5 7.5 0 3.16-1.84 6.52-3.6 9.03 -.89 1.26-1.78 2.34-2.44 3.1 -.34.38-.62.68-.81.88 -.1.1-.18.18-.23.23 -.03.02-.05.04-.07.06l-.02.01 -.01 0 -.01 0c-.01 0-.01 0-.36-.36Zm0 0l.35.35c-.2.19-.52.19-.71 0l.35-.36Z"/><path d="M12.5 9c0-1.39-1.12-2.5-2.5-2.5H8c-.28 0-.5.22-.5.5v1c0 1.38 1.11 2.5 2.5 2.5h2c.27 0 .5-.23.5-.5V9ZM10 7.5c.82 0 1.5.67 1.5 1.5v.5H10c-.83 0-1.5-.68-1.5-1.5v-.5H10Z"/><path d="M12.5 9v4h-1V9h1Z"/><path d="M11.5 9c0-1.39 1.11-2.5 2.5-2.5h2c.27 0 .5.22.5.5v1c0 1.38-1.12 2.5-2.5 2.5h-2c-.28 0-.5-.23-.5-.5V9ZM14 7.5c-.83 0-1.5.67-1.5 1.5v.5H14c.82 0 1.5-.68 1.5-1.5v-.5H14Z"/></g></svg>