<svg viewBox="0 0 24 24" xmlns="http://www.w3.org/2000/svg"><g fill-rule="evenodd"><path d="M12 2.5c-5.25 0-9.5 4.25-9.5 9.5 0 5.24 4.25 9.5 9.5 9.5 5.24 0 9.5-4.26 9.5-9.5 0-5.25-4.26-9.5-9.5-9.5ZM1.5 12C1.5 6.2 6.2 1.5 12 1.5c5.79 0 10.5 4.7 10.5 10.5 0 5.79-4.71 10.5-10.5 10.5 -5.8 0-10.5-4.71-10.5-10.5Z"/><path d="M18.64 19.35l-14-14 .7-.71 14 14 -.71.7Z"/><path d="M9 10c0-.28.22-.5.5-.5h5c.27 0 .5.22.5.5v4c0 1.38-1.12 2.5-2.5 2.5h-1C10.11 16.5 9 15.38 9 14v-4Zm1 .5V14c0 .82.67 1.5 1.5 1.5h1c.82 0 1.5-.68 1.5-1.5v-3.5h-4Z"/><path d="M10 10c0 .27.22.5.5.5h3c.27 0 .5-.23.5-.5V8.5c0-1.11-.9-2-2-2 -1.11 0-2 .89-2 2V10Zm1-.5v-1c0-.56.44-1 1-1 .55 0 1 .44 1 1v1h-2Z"/><path d="M16.99 18.5v-2c0-.16-.08-.31-.2-.4l-2-1.5 -.6.8 1.8 1.35v1.75h1Z"/><path d="M7 18.5v-2c0-.16.07-.31.2-.4l2-1.5 .6.8L8 16.75v1.75H7Z"/><path d="M16.99 6.5v2c0 .15-.08.3-.2.4l-2 1.5 -.6-.8 1.8-1.35V6.5h1Z"/><path d="M7 6.5v2c0 .15.07.3.2.4l2 1.5 .6-.8L8 8.25V6.5H7Z"/><path d="M16.79 13h-2.3v-1h2.5c.13 0 .25.05.35.14l1.5 1.5 -.71.7 -1.36-1.36Z"/><path d="M7.2 13h2.29v-1h-2.5c-.14 0-.26.05-.36.14l-1.5 1.5 .7.7 1.35-1.36Z"/></g></svg>