<svg viewBox="0 0 24 24" xmlns="http://www.w3.org/2000/svg"><g fill-rule="evenodd"><path d="M5.52 1.84c.06-.21.25-.35.47-.35h12c.21 0 .4.13.47.34l1 3c0 .02.01.05.02.08l.7 4.94c.2 1.4.2 2.83 0 4.24l-.71 4.94c-.01.02-.02.05-.03.08l-1 3c-.07.2-.26.34-.48.34h-12c-.22 0-.41-.14-.48-.35l-1-3c-.01-.03-.02-.06-.03-.09l-.71-4.95c-.21-1.41-.21-2.84 0-4.25l.7-4.95c0-.03.01-.06.02-.09l1-3Zm.83.65L5.47 5.1 4.76 10c-.19 1.31-.19 2.64 0 3.95l.7 4.9 .87 2.61H17.6l.87-2.62 .7-4.91c.18-1.32.18-2.65 0-3.96l-.71-4.91 -.88-2.62H6.3Z"/><path d="M11.5 22V2h1v20h-1Z"/><path d="M7.03 11.602l.96-9.66 .99.09 -.97 9.65c-.02.19-.02.39 0 .59l.96 9.65 -1 .09 -.97-9.66c-.03-.27-.03-.54 0-.8Z"/><path d="M16.96 11.602l-.97-9.66 -1 .09 .96 9.65c.01.19.01.39 0 .59l-.97 9.65 .99.09 .96-9.66c.02-.27.02-.54 0-.8Z"/><path d="M20.5 5.5h-17v-1h17v1Z"/><path d="M3.5 18.5h17v1h-17v-1Z"/></g></svg>