<svg viewBox="0 0 24 24" xmlns="http://www.w3.org/2000/svg"><g fill-rule="evenodd"><path d="M11.1 7.13c1.49-2.06 4.46-2.29 6.25-.5s1.55 4.76-.5 6.25L4.63 21.76c-.7.5-1.65.42-2.26-.18 -.61-.61-.69-1.57-.18-2.26L11.07 7.1Zm5.54.21c-1.36-1.36-3.61-1.19-4.74.37L3.01 19.92c-.22.29-.19.7.07.96 .25.25.66.28.96.07l12.21-8.89c1.55-1.13 1.72-3.38.37-4.74Z"/><path d="M16.5 2.5c-.56 0-1 .44-1 1V6h-1V3.5c0-1.11.89-2 2-2 .93 0 1.72.64 1.93 1.5l.92-.74c.67-.54 1.63-.49 2.24.12 .6.6.66 1.57.12 2.24l-.74.92c.86.21 1.5 1 1.5 1.93 0 1.1-.9 2-2 2h-2.5v-1h2.5c.55 0 1-.45 1-1 0-.56-.45-1-1-1h-.5c-.2 0-.37-.12-.46-.29 -.09-.18-.06-.38.06-.53l1.33-1.68c.21-.28.19-.67-.06-.92s-.64-.27-.92-.06l-1.68 1.33c-.15.12-.36.14-.53.06 -.18-.09-.29-.26-.29-.46v-.5c0-.56-.45-1-1-1Z"/></g></svg>