<svg viewBox="0 0 24 24" xmlns="http://www.w3.org/2000/svg"><g fill-rule="evenodd"><path d="M8.84 5.02c.1-.04.21-.04.31 0l2.99 1c.07.02.14.06.19.12l2 2c.09.09.14.22.14.35v10c0 .27-.23.5-.5.5h-3c-.28 0-.5-.23-.5-.5v-3.5h-3v3.5c0 .27-.23.5-.5.5h-3c-.28 0-.5-.23-.5-.5v-10c0-.14.05-.26.14-.36l2-2c.05-.06.12-.1.19-.13l3-1ZM6.26 6.93L4.48 8.7v9.29h2v-3.5c0-.28.22-.5.5-.5h4c.27 0 .5.22.5.5v3.5h2v-9.3L11.7 6.91 8.97 6l-2.73.9Z"/><path d="M8.84 5.02c.1-.04.21-.04.31 0l3 1c.07.02.14.06.19.12l3.99 4 -.71.7 -3.92-3.92 -2.73-.91 -2.73.9 -3.917 3.91 -.71-.71 4-4c.05-.06.12-.1.19-.13l3-1Z"/><path d="M13.5 12.5c0-.28.22-.5.5-.5h8c.27 0 .5.22.5.5v6c0 .27-.23.5-.5.5h-8c-.28 0-.5-.23-.5-.5v-6Zm1 .5v5h7v-5h-7Z"/><path d="M9 9.5c-.56 0-1 .44-1 1 0 .55.44 1 1 1 .55 0 1-.45 1-1 0-.56-.45-1-1-1Zm-2 1c0-1.11.89-2 2-2 1.1 0 2 .89 2 2 0 1.1-.9 2-2 2 -1.11 0-2-.9-2-2Z"/></g></svg>