<svg viewBox="0 0 24 24" xmlns="http://www.w3.org/2000/svg"><g fill-rule="evenodd"><path d="M11.7 8.6c.17-.14.42-.14.6 0l3.86 2.9h5.83c.27 0 .5.22.5.5 0 5.79-4.71 10.5-10.5 10.5 -5.8 0-10.5-4.71-10.5-10.5 0-.28.22-.5.5-.5h5.83l3.86-2.9Zm.3 1.02l-3.7 2.77c-.09.06-.2.1-.3.1H2.51c.26 5.01 4.4 9 9.48 9 5.07 0 9.22-3.99 9.48-9h-5.49c-.11 0-.22-.04-.3-.1l-3.7-2.78Z"/><path d="M10 15.5c0-1.11.89-2 2-2 1.1 0 2 .89 2 2V17c0 1.1-.9 2-2 2 -1.11 0-2-.9-2-2v-1.5Zm2-1c-.56 0-1 .44-1 1V17c0 .55.44 1 1 1 .55 0 1-.45 1-1v-1.5c0-.56-.45-1-1-1Z"/><path d="M9.5 4.5c-.56 0-1 .44-1 1 0 .55.44 1 1 1 .55 0 1-.45 1-1 0-.56-.45-1-1-1Zm-2 1c0-1.11.89-2 2-2 1.1 0 2 .89 2 2 0 1.1-.9 2-2 2 -1.11 0-2-.9-2-2Z"/><path d="M14.5 2.5c-.56 0-1 .44-1 1 0 .55.44 1 1 1 .55 0 1-.45 1-1 0-.56-.45-1-1-1Zm-2 1c0-1.11.89-2 2-2 1.1 0 2 .89 2 2 0 1.1-.9 2-2 2 -1.11 0-2-.9-2-2Z"/></g></svg>