<svg viewBox="0 0 24 24" xmlns="http://www.w3.org/2000/svg"><g fill-rule="evenodd"><path d="M11.71 12.08c.17-.12.39-.12.56 0l2.87 1.98h4.34c.27 0 .5.22.5.5 0 4.13-3.63 7.42-8 7.42 -4.38 0-8-3.29-8-7.43 0-.28.22-.5.5-.5h4.34l2.87-1.99Zm.28 1.01l-2.72 1.87c-.09.05-.19.08-.29.08H5c.27 3.28 3.26 5.92 6.97 5.92s6.7-2.65 6.97-5.93h-3.98c-.11 0-.21-.04-.29-.09l-2.72-1.88Z"/><path d="M6 9c0-1.11.89-2 2-2 1.1 0 2 .89 2 2v1.5c0 1.1-.9 2-2 2 -1.11 0-2-.9-2-2V9Zm2-1c-.56 0-1 .44-1 1v1.5c0 .55.44 1 1 1 .55 0 1-.45 1-1V9c0-.56-.45-1-1-1Z"/><path d="M11.5 10.5h-2v-1h2c.82 0 1.5.67 1.5 1.5v7h-1v-7c0-.28-.23-.5-.5-.5Z"/><path d="M11.5 7H8v1h3.5c.82 0 1.5-.68 1.5-1.5v-2c0-.28-.23-.5-.5-.5 -.28 0-.5.22-.5.5v2c0 .27-.23.5-.5.5Z"/><path d="M12 4.5C12 3.11 13.11 2 14.5 2h3c.27 0 .5.22.5.5v1C18 4.88 16.88 6 15.5 6h-3c-.28 0-.5-.23-.5-.5v-1ZM14.5 3c-.83 0-1.5.67-1.5 1.5V5h2.5c.82 0 1.5-.68 1.5-1.5V3h-2.5Z"/></g></svg>