<svg viewBox="0 0 24 24" xmlns="http://www.w3.org/2000/svg"><g fill-rule="evenodd"><path d="M17.64 2.64c.74-.75 1.95-.75 2.7 0l1 .99c.74.74.74 1.95 0 2.7 -.75.74-1.96.74-2.71 0l-1-1c-.75-.75-.75-1.96 0-2.71Zm2 .7c-.36-.36-.94-.36-1.3 0 -.36.35-.36.93 0 1.29l1 1c.35.35.93.35 1.29 0 .35-.36.35-.94 0-1.3l-1-1Z"/><path d="M13.64 6.64c.74-.75 1.95-.75 2.7 0l1 .99c.74.74.74 1.95 0 2.7 -.75.74-1.96.74-2.71 0l-1-1.01c-.75-.75-.75-1.96 0-2.71Zm2 .7c-.36-.36-.94-.36-1.3 0 -.36.35-.36.93 0 1.29l1 1c.35.35.93.35 1.29 0 .35-.36.35-.94 0-1.3l-1-1Z"/><path d="M14.14 3.14c.74-.75 1.95-.75 2.7 0l4 3.99c.74.74.74 1.95 0 2.7 -.75.74-1.96.74-2.71 0l-4-4c-.75-.75-.75-1.96 0-2.71Zm2 .7c-.36-.36-.94-.36-1.3 0 -.36.35-.36.93 0 1.29l4 4c.35.35.93.35 1.29 0 .35-.36.35-.94 0-1.3l-4-4Z"/><path d="M14.85 9.85l-12.5 12.5 -.71-.71 12.5-12.5 .7.7Z"/></g></svg>