<svg viewBox="0 0 24 24" xmlns="http://www.w3.org/2000/svg"><g fill-rule="evenodd"><path d="M6.51 1.87c.05-.23.25-.38.48-.38h7.17c.66 0 1.29.26 1.76.73l5.82 5.82c.46.46.73 1.1.73 1.76v7.17c0 .22-.16.42-.38.48 -.23.05-.46-.05-.57-.25l-3.37-6.25c-.07-.13-.16-.25-.27-.35l-4.59-4.59c-.11-.11-.23-.2-.35-.27L6.69 2.37c-.21-.11-.31-.35-.25-.57Zm2.46.62l4.49 2.42c.21.11.41.26.58.43l4.58 4.58c.17.17.31.36.43.58l2.42 4.49V9.8c0-.4-.16-.78-.44-1.07L15.2 2.9c-.29-.29-.67-.44-1.07-.44H8.94Z"/><path d="M14.64 6.64c.19-.2.51-.2.7 0l2 2c.09.09.14.22.14.35 0 .13-.06.25-.15.35l-13 13c-.2.19-.52.19-.71 0l-2-2c-.1-.1-.15-.23-.15-.36 0-.14.05-.26.14-.36l13-13ZM2.7 19.99l1.29 1.29 12.29-12.3 -1.3-1.3 -12.3 12.29Z"/><path d="M19.49 2c.13 0 .25.05.35.14l2 2c.19.19.19.51 0 .7l-2 2c-.1.09-.23.14-.36.14 -.14 0-.26-.06-.36-.15l-2-2c-.2-.2-.2-.52 0-.71l1.99-2c.09-.1.22-.15.35-.15Zm0 1.2l-1.3 1.29 1.29 1.29 1.29-1.3 -1.3-1.3Z"/></g></svg>