<svg viewBox="0 0 24 24" xmlns="http://www.w3.org/2000/svg"><g fill-rule="evenodd"><path d="M5.52 9.76c1.36-1.37 3.58-1.37 4.94 0l3.75 3.75c1.36 1.36 1.36 3.58 0 4.94l-3.13 3.12c-.6.59-1.44.84-2.26.68l-3.83-.77 -1.93.64c-.79.26-1.53-.49-1.27-1.27l.64-1.93 -.77-3.83c-.17-.82.09-1.67.68-2.26L5.46 9.7Zm4.24.7c-.98-.98-2.56-.98-3.54 0l-3.13 3.12c-.36.35-.51.86-.42 1.35l.79 3.95c.01.08.01.17-.02.25l-.69 2.05 2.05-.69c.08-.03.17-.04.25-.02l3.95.79c.49.09 1-.06 1.35-.42l3.12-3.13c.97-.98.97-2.56 0-3.54l-3.76-3.76Z"/><path d="M16.5 2.5c-.56 0-1 .44-1 1v3c0 .12-.05.24-.13.33l-4 4.5 -.75-.67 3.87-4.36V3.49c0-1.11.89-2 2-2 .93 0 1.72.64 1.93 1.5l.92-.74c.67-.54 1.63-.49 2.24.12 .6.6.66 1.57.12 2.24l-.74.92c.86.21 1.5 1 1.5 1.93 0 1.1-.9 2-2 2h-2.81l-4.36 3.87 -.67-.75 4.5-4c.09-.09.2-.13.33-.13h3c.55 0 1-.45 1-1 0-.56-.45-1-1-1h-.5c-.2 0-.37-.12-.46-.29 -.09-.18-.06-.38.06-.53l1.33-1.68c.21-.28.19-.67-.06-.92s-.64-.27-.92-.06L18.22 4.3c-.16.12-.36.14-.53.06 -.18-.09-.29-.26-.29-.46v-.5c0-.56-.45-1-1-1Z"/></g></svg>