<svg viewBox="0 0 24 24" xmlns="http://www.w3.org/2000/svg"><g fill-rule="evenodd"><path d="M20.07 3.01c-.14-.21-.42-.29-.64-.17l-7.19 3.59c-2.52 1.25-4.56 3.29-5.82 5.81l-3.36 6.71c-.29.56-.18 1.24.27 1.68 .44.44 1.12.55 1.68.27l7.03-3.52c2.32-1.17 4.24-3 5.51-5.26l2.37-4.23 -.46-1.81c-.03-.11-.02-.21.02-.31l.8-2.02c.06-.16.04-.33-.05-.47l-.22-.33Zm-1.09-1.07c.67-.34 1.49-.12 1.91.5l.21.32c.27.41.32.93.14 1.38L20.49 6l.46 1.84c.03.12.01.25-.05.36l-2.48 4.39c-1.38 2.43-3.45 4.4-5.95 5.65l-7.04 3.51c-.95.47-2.1.28-2.85-.47s-.94-1.9-.47-2.85l3.35-6.72C6.81 9 9.01 6.8 11.72 5.44l7.18-3.6Z"/><path d="M11.12 9.01l6.13-3.45 .49.87 -6.14 3.44c-1.14.63-2.05 1.59-2.63 2.75l-2.8 5.58 -.9-.45 2.79-5.59c.67-1.34 1.72-2.45 3.02-3.18Z"/></g></svg>