<svg viewBox="0 0 24 24" xmlns="http://www.w3.org/2000/svg"><g fill-rule="evenodd"><path d="M18.64 5.64c.19-.2.51-.2.7 0l2.41 2.41c.46.46.73 1.1.73 1.76v6.67c0 .23-.17.43-.4.48 -.24.04-.47-.07-.57-.29l-2.32-5.09c-.1-.21-.24-.39-.41-.54l-2.65-2.21c-.11-.09-.18-.23-.18-.37 -.01-.15.04-.28.14-.38l2.5-2.5Zm-1.41 2.81l2.22 1.85c.28.24.51.54.67.88l1.35 2.98V9.79c0-.4-.16-.78-.44-1.07l-2.07-2.07L17.2 8.4Z"/><path d="M17.64 2.64c.19-.2.51-.2.7 0l2 2c.09.09.14.22.14.35 0 .13-.06.25-.15.35l-16.01 16c-.2.19-.52.19-.71 0l-2-2c-.1-.1-.15-.23-.15-.36 0-.14.05-.26.14-.36l16-16ZM2.7 18.99l1.29 1.29 15.29-15.3 -1.3-1.3 -15.3 15.29Z"/></g></svg>