<svg viewBox="0 0 24 24" xmlns="http://www.w3.org/2000/svg"><g fill-rule="evenodd"><path d="M12.64 8.64c.19-.2.51-.2.7 0l2 1.99c.09.09.14.22.14.35 0 .13-.06.25-.15.35l-9.01 8.99c-.2.19-.52.19-.71 0l-2-2c-.1-.1-.15-.23-.15-.36 0-.14.05-.26.14-.36l8.99-9ZM4.7 17.99l1.29 1.29 8.29-8.3 -1.3-1.3 -8.3 8.29Z"/><path d="M14.61 2.56c.65-.68 1.56-1.07 2.51-1.07h4.87c.27 0 .5.22.5.5v4.75c0 .92-.37 1.81-1.03 2.47l-4.13 4.12c-.2.19-.52.19-.71 0l-6-6.01c-.2-.2-.2-.51-.01-.71l3.97-4.1Zm2.51-.07c-.68 0-1.33.27-1.8.75l-3.64 3.73 5.29 5.29 3.76-3.77c.46-.47.73-1.11.73-1.77V2.46h-4.38Z"/><path d="M7.64 22.35l-6-6 .7-.71 6 6 -.71.7Z"/></g></svg>