<svg viewBox="0 0 24 24" xmlns="http://www.w3.org/2000/svg"><g fill-rule="evenodd"><path d="M18.5 13c-1.66 0-3 1.34-3 3 0 1.65 1.34 3 3 3 1.65 0 3-1.35 3-3 0-1.66-1.35-3-3-3Zm-4 3c0-2.21 1.79-4 4-4 2.2 0 4 1.79 4 4 0 2.2-1.8 4-4 4 -2.21 0-4-1.8-4-4Z"/><path d="M6.5 16c-.83 0-1.5.67-1.5 1.5 0 .82.67 1.5 1.5 1.5 .82 0 1.5-.68 1.5-1.5 0-.83-.68-1.5-1.5-1.5ZM4 17.5C4 16.11 5.11 15 6.5 15 7.88 15 9 16.11 9 17.5 9 18.88 7.88 20 6.5 20 5.11 20 4 18.88 4 17.5Z"/><path d="M14.57 10.23c.09-.15.25-.24.42-.24h7v1h-6.73l-3.36 5.26c-.1.14-.26.23-.43.23h-3v-1h2.72l3.35-5.27Z"/><path d="M1.5 9c0-.28.22-.5.5-.5h9.5c.27 0 .5.22.5.5v7c0 .27-.23.5-.5.5H8v-1h3v-6H2.5v6H5v1H2c-.28 0-.5-.23-.5-.5V9Z"/><path d="M19.49 5.59l-1 5 -.99-.2 1-5 .98.19Z"/><path d="M5 3.5h2c.27 0 .5.22.5.5v5h-1V4.5H4.99v-1Z"/></g></svg>