<svg viewBox="0 0 24 24" xmlns="http://www.w3.org/2000/svg"><g fill-rule="evenodd"><path d="M11.71 11.58c.17-.12.39-.12.56 0l2.87 1.98h4.34c.27 0 .5.22.5.5 0 4.13-3.63 7.42-8 7.42 -4.38 0-8-3.29-8-7.43 0-.28.22-.5.5-.5h4.34l2.87-1.99Zm.28 1.01l-2.72 1.87c-.09.05-.19.08-.29.08H5c.27 3.28 3.26 5.92 6.97 5.92s6.7-2.65 6.97-5.93h-3.98c-.11 0-.21-.04-.29-.09l-2.72-1.88Z"/><path d="M14 5c0-1.39 1.11-2.5 2.5-2.5h3c.27 0 .5.22.5.5v1c0 1.38-1.12 2.5-2.5 2.5h-3c-.28 0-.5-.23-.5-.5V5Zm2.5-1.5c-.83 0-1.5.67-1.5 1.5v.5h2.5c.82 0 1.5-.68 1.5-1.5v-.5h-2.5Z"/><path d="M10 6.5C10 5.11 8.88 4 7.5 4h-3c-.28 0-.5.22-.5.5v1C4 6.88 5.11 8 6.5 8h3c.27 0 .5-.23.5-.5v-1ZM7.5 5C8.32 5 9 5.67 9 6.5V7H6.5C5.67 7 5 6.32 5 5.5V5h2.5Z"/><path d="M11.74 9.42l-2.51-1.5 .51-.86 2.5 1.5 -.52.85Z"/><path d="M14 6.5c-.83 0-1.5.67-1.5 1.5v10h-1V8c0-1.39 1.11-2.5 2.5-2.5h1v1h-1Z"/><path d="M12 14.74l3.24 1.82 -.49.87 -2.76-1.55 -2.76 1.54 -.49-.88 3.24-1.83Z"/></g></svg>