<svg viewBox="0 0 24 24" xmlns="http://www.w3.org/2000/svg"><g fill-rule="evenodd"><path d="M11.7 8.6c.17-.14.42-.14.6 0l3.86 2.9h5.83c.27 0 .5.22.5.5 0 5.79-4.71 10.5-10.5 10.5 -5.8 0-10.5-4.71-10.5-10.5 0-.28.22-.5.5-.5h5.83l3.86-2.9Zm.3 1.02l-3.7 2.77c-.09.06-.2.1-.3.1H2.51c.26 5.01 4.4 9 9.48 9 5.07 0 9.22-3.99 9.48-9h-5.49c-.11 0-.22-.04-.3-.1l-3.7-2.78Z"/><path d="M10 15.5c0-1.11.89-2 2-2 1.1 0 2 .89 2 2V17c0 1.1-.9 2-2 2 -1.11 0-2-.9-2-2v-1.5Zm2-1c-.56 0-1 .44-1 1V17c0 .55.44 1 1 1 .55 0 1-.45 1-1v-1.5c0-.56-.45-1-1-1Z"/><path d="M9.87 3.16l-.38.33 -.38-.34c.09-.11.23-.17.37-.17 .14 0 .27.06.37.16Zm-.38 1.11c-.11.13-.23.28-.35.45 -.19.25-.36.51-.48.75 -.14.25-.18.42-.18.51 0 .55.44 1 1 1 .55 0 1-.45 1-1 0-.09-.05-.26-.18-.52 -.13-.25-.3-.51-.48-.76 -.12-.17-.24-.32-.35-.46Zm0-.78c-.38-.34-.38-.34-.38-.34l-.01 0 -.01 0 -.02.01c-.02.01-.03.03-.06.05 -.05.04-.11.12-.18.2 -.15.17-.35.41-.54.69 -.2.27-.4.57-.56.88 -.15.28-.29.63-.29.96 0 1.1.89 2 2 2 1.1 0 2-.9 2-2 0-.34-.15-.69-.29-.97 -.16-.31-.36-.62-.56-.89 -.2-.28-.4-.52-.54-.7 -.08-.09-.14-.16-.18-.21 -.03-.03-.04-.05-.06-.06l-.02-.02 -.01-.01 -.01-.01c-.01-.01 0 0-.38.33Z"/><path d="M14.87 1.66l-.38.33 -.38-.34c.09-.11.23-.17.37-.17 .14 0 .27.06.37.16Zm-.38 1.11c-.11.13-.23.28-.35.45 -.19.25-.36.51-.48.75 -.14.25-.18.42-.18.51 0 .55.44 1 1 1 .55 0 1-.45 1-1 0-.09-.05-.26-.18-.52 -.13-.25-.3-.51-.48-.76 -.12-.17-.24-.32-.35-.46Zm0-.78c-.38-.34-.38-.34-.38-.34l-.01 0 -.01 0 -.02.01c-.02.01-.03.03-.06.05 -.05.04-.11.12-.18.2 -.15.17-.35.41-.54.69 -.2.27-.4.57-.56.88 -.15.28-.29.63-.29.96 0 1.1.89 2 2 2 1.1 0 2-.9 2-2 0-.34-.15-.69-.29-.97 -.16-.31-.36-.62-.56-.89 -.2-.28-.4-.52-.54-.7 -.08-.09-.14-.16-.18-.21 -.03-.03-.04-.05-.06-.06l-.02-.02 -.01-.01 -.01-.01c0-.01 0 0-.38.33Z"/></g></svg>