<svg viewBox="0 0 24 24" xmlns="http://www.w3.org/2000/svg"><path fill="#5E94FF" d="M18.94 17.2l-.15-.48c2.2-.16 3.94-2 3.94-4.24 0-1.97-1.34-3.62-3.15-4.11 -.44-1.62-1.8-2.85-3.47-3.098 -.75-1.23-2.1-2.05-3.64-2.05 -1.53 0-2.87.8-3.62 2.01 -.13-.02-.26-.02-.39-.02 -1.97 0-3.62 1.33-4.11 3.14 -1.82.48-3.15 2.13-3.15 4.1 0 2.05 1.46 3.77 3.4 4.16 .1.05.22.08.34.08h7.742l.61 2.04c.34 1.16 1.41 1.95 2.63 1.95h.32c1.84 0 3.16-1.78 2.63-3.55Z"/><path fill="#ECEFF1" fill-rule="evenodd" d="M12.87 5.84c.35.2.48.66.27 1.02l-1.36 2.37h2.7c.26 0 .51.14.64.37 .13.23.13.51 0 .74l-2 3.5c-.21.35-.67.48-1.03.27 -.36-.21-.49-.67-.28-1.03l1.35-2.38h-2.71c-.27 0-.52-.15-.65-.38 -.14-.24-.14-.52-.01-.75l1.99-3.5c.2-.36.66-.49 1.02-.28Z"/></svg>