<svg viewBox="0 0 24 24" xmlns="http://www.w3.org/2000/svg"><g fill="#FF884D"><path d="M4 4.25C2.48 4.25 1.25 5.48 1.25 7v13c0 1.51 1.23 2.75 2.75 2.75h16c1.51 0 2.75-1.24 2.75-2.75V7c0-1.52-1.24-2.75-2.75-2.75H4Z"/><path fill="#FF884D" fill-rule="evenodd" d="M8.25 4c0-1.52 1.23-2.75 2.75-2.75h2c1.51 0 2.75 1.23 2.75 2.75v1c0 .41-.34.75-.75.75H9c-.42 0-.75-.34-.75-.75V4ZM11 2.75c-.7 0-1.25.55-1.25 1.25v.25h4.5V4c0-.7-.56-1.25-1.25-1.25h-2Z"/></g><path fill="#FFA071" d="M3.44 4.25c-1.23 0-2.07 1.22-1.64 2.36l2.49 6.64c.1.29.38.48.7.48h14c.31 0 .59-.2.7-.49l2.49-6.65c.42-1.15-.42-2.37-1.64-2.37H3.42Z"/><path fill="#ECEFF1" d="M10 9.25c-.42 0-.75.33-.75.75v6c0 .41.33.75.75.75h4c.41 0 .75-.34.75-.75v-6c0-.42-.34-.75-.75-.75h-4Z"/></svg>