<svg viewBox="0 0 24 24" xmlns="http://www.w3.org/2000/svg"><path fill="#ECEFF1" d="M10 1.25c-.2 0-.39.07-.54.21l-5 5c-.15.14-.22.33-.22.53v15c0 .41.33.75.75.75h14c.41 0 .75-.34.75-.75v-20c0-.42-.34-.75-.75-.75h-9Z"/><path fill="#CFD8DC" d="M10.75 2c0-.31-.19-.58-.47-.7 -.29-.12-.61-.06-.82.16l-5 5c-.22.21-.28.53-.17.81 .11.28.38.46.69.46h4.99c.41 0 .75-.34.75-.75v-5Z"/><g fill="#EE4D4D" fill-rule="evenodd"><path d="M12.28 15.8c.28.11.46.38.46.69v1.18l.71-.72c.29-.3.76-.3 1.06 0l.78.78h1.68c.41 0 .75.33.75.75 0 .41-.34.75-.75.75h-2c-.2 0-.39-.08-.54-.22l-.47-.47L12.49 20c-.22.21-.54.27-.82.16 -.29-.12-.47-.39-.47-.7v-1.19l-.72.71c-.3.29-.77.29-1.07 0 -.3-.3-.3-.77 0-1.07l2-2c.21-.22.53-.28.81-.17Z"/><g fill="#8B98A6"><path d="M7.25 10c0-.42.33-.75.75-.75h8c.41 0 .75.33.75.75 0 .41-.34.75-.75.75H8c-.42 0-.75-.34-.75-.75Z"/><path d="M7.25 13c0-.42.33-.75.75-.75h8c.41 0 .75.33.75.75 0 .41-.34.75-.75.75H8c-.42 0-.75-.34-.75-.75Z"/></g></g></svg>