<svg viewBox="0 0 24 24" xmlns="http://www.w3.org/2000/svg"><g fill="#CFD8DC" fill-rule="evenodd"><path d="M17 9.25c.41 0 .75.33.75.75v9c0 .41-.34.75-.75.75 -.42 0-.75-.34-.75-.75v-9c0-.42.33-.75.75-.75Z"/><path d="M7 13.25c.41 0 .75.33.75.75v5c0 .41-.34.75-.75.75 -.42 0-.75-.34-.75-.75v-5c0-.42.33-.75.75-.75Z"/></g><g fill="#FFC44D"><path d="M17 1.25c-2.63 0-4.75 2.12-4.75 4.75 0 2.62 2.12 4.75 4.75 4.75 2.62 0 4.75-2.13 4.75-4.75 0-2.63-2.13-4.75-4.75-4.75Z"/><path d="M7 5.25c-2.63 0-4.75 2.12-4.75 4.75 0 2.62 2.12 4.75 4.75 4.75 2.62 0 4.75-2.13 4.75-4.75 0-2.63-2.13-4.75-4.75-4.75Z"/></g><g fill="#FF884D" fill-rule="evenodd"><path d="M17 3.25c.41 0 .75.33.75.75v4c0 .41-.34.75-.75.75 -.42 0-.75-.34-.75-.75V4c0-.42.33-.75.75-.75Z"/><path d="M7 7.25c.41 0 .75.33.75.75v4c0 .41-.34.75-.75.75 -.42 0-.75-.34-.75-.75V8c0-.42.33-.75.75-.75Z"/><path fill="#8B98A6" d="M2 17.25c.41 0 .75.33.75.75v3.25h18.5V18c0-.42.33-.75.75-.75 .41 0 .75.33.75.75v4c0 .41-.34.75-.75.75H2c-.42 0-.75-.34-.75-.75v-4c0-.42.33-.75.75-.75Z"/><g fill="#CFD8DC"><path d="M13.46 15.46c.29-.3.76-.3 1.06 0l2.46 2.46 2.46-2.47c.29-.3.76-.3 1.06 0 .29.29.29.76 0 1.06l-3 3c-.3.29-.77.29-1.07 0l-3-3c-.3-.3-.3-.77 0-1.07Z"/><path d="M3.46 15.46c.29-.3.76-.3 1.06 0l2.46 2.46 2.46-2.47c.29-.3.76-.3 1.06 0 .29.29.29.76 0 1.06l-3 3c-.3.29-.77.29-1.07 0l-3-3c-.3-.3-.3-.77 0-1.07Z"/></g></g></svg>