<svg viewBox="0 0 24 24" xmlns="http://www.w3.org/2000/svg"><g fill="#EE4D4D"><path d="M12.49 1.43c-.29-.25-.71-.25-.99 0l-4.01 3.5c-.24.2-.32.53-.21.82 .1.29.38.48.7.48h1.25v1.75c0 .41.33.75.74.75h4c.41 0 .75-.34.75-.75V6.23h1.25c.31 0 .59-.2.7-.49 .1-.3.02-.63-.21-.83l-4-3.5Z"/><path d="M16.49 19.06l-4 3.5c-.29.24-.71.24-.99 0l-4.01-3.5c-.24-.21-.32-.54-.21-.83 .1-.3.38-.49.7-.49h1.25v-1.75c0-.42.33-.75.74-.75h4c.41 0 .75.33.75.75v1.75h1.25c.31 0 .59.19.7.48 .1.29.02.62-.21.82Z"/><path d="M19.06 7.5l3.5 4c.24.28.24.7 0 .98l-3.5 4c-.21.23-.54.31-.83.2 -.3-.11-.49-.39-.49-.71v-1.25h-1.75c-.42 0-.75-.34-.75-.75V9.96c0-.42.33-.75.75-.75h1.75V7.96c0-.32.19-.6.48-.71 .29-.11.62-.03.82.2Z"/><path d="M1.43 11.5c-.25.28-.25.7 0 .98l3.5 4c.2.23.53.31.82.2 .29-.11.48-.39.48-.71v-1.25h1.75c.41 0 .75-.34.75-.75V9.96c0-.42-.34-.75-.75-.75H6.23V7.96c0-.32-.2-.6-.49-.71 -.3-.11-.63-.03-.83.2l-3.5 4Z"/></g><path fill="#FFC44D" d="M8 7.25c-.42 0-.75.33-.75.75v8c0 .41.33.75.75.75h8c.41 0 .75-.34.75-.75V8c0-.42-.34-.75-.75-.75H8Z"/><path fill="#ECEFF1" d="M10.5 7.25c-.42 0-.75.33-.75.75v3c0 .24.11.46.31.6 .19.14.44.17.67.1l1.26-.43 1.26.42c.22.07.48.03.67-.11 .19-.15.31-.37.31-.61v-3c0-.42-.34-.75-.75-.75h-3Z"/></svg>