<svg viewBox="0 0 24 24" xmlns="http://www.w3.org/2000/svg"><g fill="#8BC94D" fill-rule="evenodd"><path d="M22.53 6.46c.29.29.29.76 0 1.06l-9 8.99c-.15.14-.34.21-.54.21H8.3L2.51 22.5c-.3.29-.77.29-1.07 0 -.3-.3-.3-.77 0-1.07l6-6c.14-.15.33-.22.53-.22h4.68l8.78-8.79c.29-.3.76-.3 1.06-.001Z"/><g fill="#FFC44D"><path d="M6.25 5.25c0-1.11.89-2 2-2H11c.41 0 .75.33.75.75 0 .41-.34.75-.75.75H8.25c-.28 0-.5.22-.5.5 0 .27.22.5.5.5h1.5c1.1 0 2 .89 2 2 0 1.1-.9 2-2 2H7c-.42 0-.75-.34-.75-.75 0-.42.33-.75.75-.75h2.75c.27 0 .5-.23.5-.5 0-.28-.23-.5-.5-.5h-1.5c-1.11 0-2-.9-2-2Z"/><path d="M9 8.25c.41 0 .75.33.75.75v2c0 .41-.34.75-.75.75 -.42 0-.75-.34-.75-.75V9c0-.42.33-.75.75-.75Z"/><path d="M9 1.25c.41 0 .75.33.75.75v2c0 .41-.34.75-.75.75 -.42 0-.75-.34-.75-.75V2c0-.42.33-.75.75-.75Z"/></g><path fill="#CFD8DC" d="M2 1.25c.41 0 .75.33.75.75v19.25H22c.41 0 .75.33.75.75 0 .41-.34.75-.75.75H2c-.42 0-.75-.34-.75-.75V2c0-.42.33-.75.75-.75Z"/></g></svg>