<svg viewBox="0 0 24 24" xmlns="http://www.w3.org/2000/svg"><path fill="#8BC94D" fill-rule="evenodd" d="M12 9.25c.41 0 .75.33.75.75v8c0 .41-.34.75-.75.75 -.42 0-.75-.34-.75-.75v-8c0-.42.33-.75.75-.75Z"/><path fill="#8BC94D" d="M18 9.75c-2.08 0-3.75 1.67-3.75 3.75v1c0 .41.33.75.75.75h4c2.07 0 3.75-1.68 3.75-3.75v-1c0-.42-.34-.75-.75-.75h-4Z"/><path fill="#FFC44D" d="M12 1.25C9.37 1.25 7.25 3.37 7.25 6c0 2.62 2.12 4.75 4.75 4.75 2.62 0 4.75-2.13 4.75-4.75 0-2.63-2.13-4.75-4.75-4.75Z"/><path fill="#FF884D" fill-rule="evenodd" d="M12 3.25c.41 0 .75.33.75.75v4c0 .41-.34.75-.75.75 -.42 0-.75-.34-.75-.75V4c0-.42.33-.75.75-.75Z"/><path fill="#FF884D" d="M12 17.25c-1.79 0-3.44.48-4.66 1.29 -1.22.81-2.1 2.01-2.1 3.45 0 .41.33.75.75.75h12c.41 0 .75-.34.75-.75 0-1.44-.88-2.64-2.1-3.46 -1.23-.82-2.88-1.3-4.66-1.3Z"/></svg>