<svg viewBox="0 0 24 24" xmlns="http://www.w3.org/2000/svg"><g fill="#CFD8DC" fill-rule="evenodd"><path d="M12 14.25c.41 0 .75.33.75.75v5c0 .41-.34.75-.75.75 -.42 0-.75-.34-.75-.75v-5c0-.42.33-.75.75-.75Z"/><path d="M8.96 16.96c.29-.3.76-.3 1.06 0l1.96 1.96 1.96-1.97c.29-.3.76-.3 1.06 0 .29.29.29.76 0 1.06l-2.5 2.5c-.3.29-.77.29-1.07 0l-2.51-2.5c-.3-.3-.3-.77 0-1.07Z"/></g><path fill="#FFC44D" d="M12 1.25c-4.01 0-7.25 3.24-7.25 7.25 0 4 3.24 7.25 7.25 7.25 4 0 7.25-3.25 7.25-7.25 0-4.01-3.25-7.25-7.25-7.25Z"/><g fill="#FF884D" fill-rule="evenodd"><path d="M9.25 7.25c0-1.11.89-2 2-2H14c.41 0 .75.33.75.75 0 .41-.34.75-.75.75h-2.75c-.28 0-.5.22-.5.5 0 .27.22.5.5.5h1.5c1.1 0 2 .89 2 2 0 1.1-.9 2-2 2H10c-.42 0-.75-.34-.75-.75 0-.42.33-.75.75-.75h2.75c.27 0 .5-.23.5-.5 0-.28-.23-.5-.5-.5h-1.5c-1.11 0-2-.9-2-2Z"/><path d="M12 10.25c.41 0 .75.33.75.75v2c0 .41-.34.75-.75.75 -.42 0-.75-.34-.75-.75v-2c0-.42.33-.75.75-.75Z"/><path d="M12 3.25c.41 0 .75.33.75.75v2c0 .41-.34.75-.75.75 -.42 0-.75-.34-.75-.75V4c0-.42.33-.75.75-.75Z"/><path fill="#8B98A6" d="M2 17.25c.41 0 .75.33.75.75v3.25h18.5V18c0-.42.33-.75.75-.75 .41 0 .75.33.75.75v4c0 .41-.34.75-.75.75H2c-.42 0-.75-.34-.75-.75v-4c0-.42.33-.75.75-.75Z"/></g></svg>