<svg viewBox="0 0 24 24" xmlns="http://www.w3.org/2000/svg"><path fill="#FFD071" d="M12.2 13.96c-.55-.83-1.65-1.08-2.5-.58l-5.09 2.96c-.24.13-.38.38-.38.64v4.5c0 .41.33.75.75.75h11c.17 0 .34-.07.48-.18l4.76-3.98c.99-.84 1.06-2.35.14-3.27 -.76-.76-1.96-.87-2.84-.25l-3.81 2.66h-3.37l.8-1.22c.41-.63.41-1.45 0-2.08Z"/><path fill="#ECEFF1" d="M2 14.75c-.42 0-.75.33-.75.75V22c0 .41.33.75.75.75h3c.41 0 .75-.34.75-.75v-6.5c0-.42-.34-.75-.75-.75H2Z"/><path fill="#FFC44D" d="M12 1.25C9.92 1.25 8.25 2.92 8.25 5c0 1.22.59 2.31 1.5 3v1.49c0 .41.33.75.75.75h3c.41 0 .75-.34.75-.75v-1.5c.9-.69 1.5-1.78 1.5-3.01 0-2.08-1.68-3.75-3.75-3.75Z"/><path fill="#CFD8DC" d="M10.5 8.25c-.42 0-.75.33-.75.75v1.5c0 1.24 1 2.25 2.25 2.25 1.24 0 2.25-1.01 2.25-2.25V9c0-.42-.34-.75-.75-.75h-3Z"/></svg>