<svg viewBox="0 0 24 24" xmlns="http://www.w3.org/2000/svg"><path fill="#8BC94D" fill-rule="evenodd" d="M12 4.25c.41 0 .75.33.75.75v4c0 .41-.34.75-.75.75 -.42 0-.75-.34-.75-.75V5c0-.42.33-.75.75-.75Z"/><path fill="#FFC44D" d="M12 8.25c-4.01 0-7.25 3.24-7.25 7.25 0 4 3.24 7.25 7.25 7.25 4 0 7.25-3.25 7.25-7.25 0-4.01-3.25-7.25-7.25-7.25Z"/><g fill="#FF884D" fill-rule="evenodd"><path d="M9.25 14.25c0-1.11.89-2 2-2H14c.41 0 .75.33.75.75 0 .41-.34.75-.75.75h-2.75c-.28 0-.5.22-.5.5 0 .27.22.5.5.5h1.5c1.1 0 2 .89 2 2 0 1.1-.9 2-2 2H10c-.42 0-.75-.34-.75-.75 0-.42.33-.75.75-.75h2.75c.27 0 .5-.23.5-.5 0-.28-.23-.5-.5-.5h-1.5c-1.11 0-2-.9-2-2Z"/><path d="M12 17.25c.41 0 .75.33.75.75v2c0 .41-.34.75-.75.75 -.42 0-.75-.34-.75-.75v-2c0-.42.33-.75.75-.75Z"/><path d="M12 10.25c.41 0 .75.33.75.75v2c0 .41-.34.75-.75.75 -.42 0-.75-.34-.75-.75v-2c0-.42.33-.75.75-.75Z"/></g><g fill="#8BC94D"><path d="M15 1.25c-2.08 0-3.75 1.67-3.75 3.75v1c0 .41.33.75.75.75h2c2.07 0 3.75-1.68 3.75-3.75V2c0-.42-.34-.75-.75-.75h-2Z"/><path d="M9 1.25c2.07 0 3.75 1.67 3.75 3.75v1c0 .41-.34.75-.75.75h-2C7.92 6.75 6.25 5.07 6.25 3V2c0-.42.33-.75.75-.75h2Z"/></g></svg>