<svg viewBox="0 0 24 24" xmlns="http://www.w3.org/2000/svg"><path fill="#FFD071" d="M2 6.25c-.42 0-.75.33-.75.75v10.09c0 .28.16.54.41.67l10 4.9c.2.1.45.1.66 0l10-4.91c.25-.13.41-.39.41-.68V6.97c0-.42-.34-.75-.75-.75h-20Z"/><path fill="#FFC44D" d="M12.33 1.32c-.22-.11-.46-.11-.68 0l-10 5c-.26.12-.42.38-.42.67 0 .28.16.54.41.67l10 4.99c.21.1.45.1.67 0l10-5c.25-.13.41-.39.41-.68 0-.29-.17-.55-.42-.68l-10-5Z"/><g fill="#ECEFF1" fill-rule="evenodd"><path d="M18.42 9.62l-1.6-.8 -10-5 -.09-.05 -1.68.83 1.09.54 10 4.99 .58.29 1.67-.84Z"/><path d="M19.67 15.25c.18.37.02.82-.35 1l-2 .98c-.38.18-.83.02-1.01-.35 -.19-.38-.03-.83.34-1.01l2-.99c.37-.19.82-.03 1 .34Z"/></g></svg>