<svg viewBox="0 0 24 24" xmlns="http://www.w3.org/2000/svg"><path fill="#FFC44D" d="M10.5 1.75c-4.84 0-8.75 3.91-8.75 8.75 0 4.83 3.91 8.75 8.75 8.75 2.06 0 3.97-.72 5.46-1.92 .02-.02.04-.04.06-.06l1.24-1.25c.01-.02.03-.04.05-.07 1.2-1.5 1.91-3.41 1.91-5.47 0-4.84-3.92-8.75-8.75-8.75Z"/><path fill="#CFD8DC" d="M14.79 13.81c-.29-.13-.609-.06-.83.15 -.22.21-.28.54-.16.82l3 7c.11.25.35.43.63.45 .28.01.54-.13.69-.37l1-1.68 1.32 1.32c.29.29.76.29 1.06 0 .29-.3.29-.77 0-1.07l-1.33-1.33 1.67-1.01c.24-.15.38-.42.36-.7 -.02-.29-.2-.53-.46-.64l-7-3Z"/><g fill="#ECEFF1" fill-rule="evenodd"><path d="M7.25 9c0-1.25 1-2.25 2.25-2.25H13c.41 0 .75.33.75.75 0 .41-.34.75-.75.75H9.5c-.42 0-.75.33-.75.75 0 .41.33.75.75.75h2c1.24 0 2.25 1 2.25 2.25 0 1.24-1.01 2.25-2.25 2.25H8c-.42 0-.75-.34-.75-.75 0-.42.33-.75.75-.75h3.5c.41 0 .75-.34.75-.75 0-.42-.34-.75-.75-.75h-2c-1.25 0-2.25-1.01-2.25-2.25Z"/><path d="M10.5 12.75c.41 0 .75.33.75.75V16c0 .41-.34.75-.75.75 -.42 0-.75-.34-.75-.75v-2.5c0-.42.33-.75.75-.75Z"/><path d="M10.5 4.25c.41 0 .75.33.75.75v2.5c0 .41-.34.75-.75.75 -.42 0-.75-.34-.75-.75V5c0-.42.33-.75.75-.75Z"/></g></svg>