<svg viewBox="0 0 24 24" xmlns="http://www.w3.org/2000/svg"><path fill="#ECEFF1" d="M5 3.25c-.42 0-.75.33-.75.75v18c0 .41.33.75.75.75h14c.41 0 .75-.34.75-.75V4c0-.42-.34-.75-.75-.75H5Z"/><path fill="#A2ADB8" d="M9 1.25c-.42 0-.75.33-.75.75v4c0 .41.33.75.75.75h6c.41 0 .75-.34.75-.75V2c0-.42-.34-.75-.75-.75H9Z"/><g fill="#8BC94D"><path d="M9.5 15.25c-1.25 0-2.25 1-2.25 2.25 0 1.24 1 2.25 2.25 2.25 1.24 0 2.25-1.01 2.25-2.25 0-1.25-1.01-2.25-2.25-2.25Z"/><g fill="#8BC94D" fill-rule="evenodd"><path d="M15 8.25c.41 0 .75.33.75.75v5.5c0 2.07-1.68 3.75-3.75 3.75h-1c-.42 0-.75-.34-.75-.75 0-.42.33-.75.75-.75h1c1.24 0 2.25-1.01 2.25-2.25V9c0-.42.33-.75.75-.75Z"/><path d="M14.46 8.46c.29-.3.76-.3 1.06 0l2 2c.29.29.29.76 0 1.06 -.3.29-.77.29-1.07 0l-1.47-1.47 -1.47 1.46c-.3.29-.77.29-1.07 0 -.3-.3-.3-.77 0-1.07l2-2.01Z"/></g></g><g fill="#EE4D4D" fill-rule="evenodd"><path d="M11.03 8.96c.29.29.29.76 0 1.06l-3 3c-.3.29-.77.29-1.07 0 -.3-.3-.3-.77 0-1.07l3-3.01c.29-.3.76-.3 1.06 0Z"/><path d="M6.96 8.96c-.3.29-.3.76 0 1.06l3 3c.29.29.76.29 1.06 0 .29-.3.29-.77 0-1.07l-3-3.01c-.3-.3-.77-.3-1.07 0Z"/></g></svg>