<svg viewBox="0 0 24 24" xmlns="http://www.w3.org/2000/svg"><path fill="#ECEFF1" d="M7 1.25c-.42 0-.75.33-.75.75v9.5c0 .41.33.75.75.75h10c.41 0 .75-.34.75-.75V2c0-.42-.34-.75-.75-.75H7Z"/><path fill="#FFD071" d="M12.2 13.96c-.55-.83-1.65-1.08-2.5-.58l-5.09 2.96c-.24.13-.38.38-.38.64v4.5c0 .41.33.75.75.75h11c.17 0 .34-.07.48-.18l4.76-3.98c.99-.84 1.06-2.35.14-3.27 -.76-.76-1.96-.87-2.84-.25l-3.81 2.66h-3.37l.8-1.22c.41-.63.41-1.45 0-2.08Z"/><path fill="#ECEFF1" d="M2 14.75c-.42 0-.75.33-.75.75V22c0 .41.33.75.75.75h3c.41 0 .75-.34.75-.75v-6.5c0-.42-.34-.75-.75-.75H2Z"/><path fill="#FFC44D" d="M12.61 3.57c-.14-.21-.38-.33-.62-.33 -.25 0-.48.12-.62.32l-.91 1.32 -1.54.45c-.24.06-.43.25-.51.48 -.08.23-.04.49.11.68l.97 1.27 -.05 1.6c-.01.24.1.48.3.62 .2.14.45.18.69.09l1.51-.54 1.51.53c.23.08.49.04.69-.1 .2-.15.31-.39.3-.63l-.05-1.61 .97-1.28c.15-.2.19-.46.11-.69 -.08-.24-.27-.42-.51-.49l-1.54-.46 -.91-1.33Z"/></svg>