<svg viewBox="0 0 24 24" xmlns="http://www.w3.org/2000/svg"><g fill="#CFD8DC" fill-rule="evenodd"><path d="M1.55 1.39c.33-.25.8-.19 1.05.15l3 4c.24.33.18.8-.15 1.05 -.34.24-.81.18-1.05-.15l-3-4c-.25-.34-.19-.81.15-1.05Z"/><path d="M22.45 1.39c-.34-.25-.81-.19-1.05.15l-3 4c-.25.33-.19.8.15 1.05 .33.24.8.18 1.05-.15l3-4c.24-.34.18-.81-.15-1.05Z"/></g><path fill="#ECEFF1" d="M5 5.25c-.42 0-.75.33-.75.75v13c0 .41.33.75.75.75h14c.41 0 .75-.34.75-.75V6c0-.42-.34-.75-.75-.75H5Z"/><path fill="#FFC44D" d="M16.61 9.57c-.14-.21-.38-.33-.62-.33 -.25 0-.48.12-.62.32l-1.97 2.86 -3.34.98c-.24.06-.43.25-.51.48 -.08.23-.04.49.11.68l2.11 2.75 -.1 3.47c-.01.24.1.48.3.62 .2.14.45.18.69.09l3.27-1.17 3.27 1.16c.23.08.49.04.69-.1 .2-.15.31-.39.3-.63l-.1-3.48 2.11-2.76c.15-.2.19-.46.11-.69 -.08-.24-.27-.42-.51-.49l-3.34-.99 -1.97-2.87Z"/></svg>