<svg viewBox="0 0 24 24" xmlns="http://www.w3.org/2000/svg"><g fill="#FFC44D" fill-rule="evenodd"><path d="M10.25 10.75c0-1.11.89-2 2-2H15c.41 0 .75.33.75.75 0 .41-.34.75-.75.75h-2.75c-.28 0-.5.22-.5.5 0 .27.22.5.5.5h1.5c1.1 0 2 .89 2 2 0 1.1-.9 2-2 2H11c-.42 0-.75-.34-.75-.75 0-.42.33-.75.75-.75h2.75c.27 0 .5-.23.5-.5 0-.28-.23-.5-.5-.5h-1.5c-1.11 0-2-.9-2-2Z"/><path d="M13 13.75c.41 0 .75.33.75.75v2c0 .41-.34.75-.75.75 -.42 0-.75-.34-.75-.75v-2c0-.42.33-.75.75-.75Z"/><path d="M13 6.75c.41 0 .75.33.75.75v2c0 .41-.34.75-.75.75 -.42 0-.75-.34-.75-.75v-2c0-.42.33-.75.75-.75Z"/><g fill="#CFD8DC"><path d="M13 3.75c-4.56 0-8.25 3.69-8.25 8.25 0 .41-.34.75-.75.75 -.42 0-.75-.34-.75-.75 0-5.39 4.36-9.75 9.75-9.75 5.38 0 9.75 4.36 9.75 9.75 0 5.38-4.37 9.75-9.75 9.75 -4.25 0-7.86-2.72-9.2-6.51 -.14-.4.06-.82.45-.96s.81.06.95.45c1.13 3.2 4.18 5.49 7.78 5.49 4.55 0 8.25-3.7 8.25-8.25 0-4.56-3.7-8.25-8.25-8.25Z"/><path d="M1.46 9.46c.29-.3.76-.3 1.06 0l1.46 1.46 1.46-1.47c.29-.3.76-.3 1.06 0 .29.29.29.76 0 1.06l-2 2c-.3.29-.77.29-1.07 0l-2-2c-.3-.3-.3-.77 0-1.07Z"/></g></g></svg>