<svg viewBox="0 0 24 24" xmlns="http://www.w3.org/2000/svg"><path fill="#FFD071" d="M12.2 13.96c-.55-.83-1.65-1.08-2.5-.58l-5.09 2.96c-.24.13-.38.38-.38.64v4.5c0 .41.33.75.75.75h11c.17 0 .34-.07.48-.18l4.76-3.98c.99-.84 1.06-2.35.14-3.27 -.76-.76-1.96-.87-2.84-.25l-3.81 2.66h-3.37l.8-1.22c.41-.63.41-1.45 0-2.08Z"/><path fill="#ECEFF1" d="M2 14.75c-.42 0-.75.33-.75.75V22c0 .41.33.75.75.75h3c.41 0 .75-.34.75-.75v-6.5c0-.42-.34-.75-.75-.75H2Z"/><g fill="#FFC44D"><path d="M17 3.25c-2.63 0-4.75 2.12-4.75 4.75 0 2.62 2.12 4.75 4.75 4.75 2.62 0 4.75-2.13 4.75-4.75 0-2.63-2.13-4.75-4.75-4.75Z"/><path d="M8.5 1.25c-1.8 0-3.25 1.45-3.25 3.25 0 1.79 1.45 3.25 3.25 3.25 1.79 0 3.25-1.46 3.25-3.25 0-1.8-1.46-3.25-3.25-3.25Z"/></g><path fill="#FF884D" fill-rule="evenodd" d="M17 5.25c.41 0 .75.33.75.75v4c0 .41-.34.75-.75.75 -.42 0-.75-.34-.75-.75V6c0-.42.33-.75.75-.75Z"/></svg>