<svg viewBox="0 0 24 24" xmlns="http://www.w3.org/2000/svg"><path fill="#ECEFF1" d="M2 1.25c-.42 0-.75.33-.75.75v16c0 .41.33.75.75.75h4.92l4.59 3.82c.22.18.53.22.79.1 .26-.13.43-.39.43-.68v-3.25h9.25c.41 0 .75-.34.75-.75v-16c0-.42-.34-.75-.75-.75h-20Z"/><g fill="#FFC44D"><path d="M12.61 4.07c-.14-.21-.38-.33-.62-.33 -.25 0-.48.12-.62.32l-1.09 1.58 -1.84.54c-.24.06-.43.25-.51.48 -.08.23-.04.49.11.68L9.2 8.85l-.06 1.91c-.01.24.1.48.3.62 .2.14.45.18.69.09l1.8-.65 1.8.64c.23.08.49.04.69-.1 .2-.15.31-.39.3-.63l-.06-1.92 1.16-1.52c.15-.2.19-.46.11-.69 -.08-.24-.27-.42-.51-.49l-1.84-.55 -1.09-1.59Z"/><path d="M7.11 10.576c-.14-.21-.38-.33-.62-.33 -.25 0-.48.12-.62.32l-.74 1.06 -1.25.36c-.24.06-.43.25-.51.48 -.08.23-.04.49.11.68l.78 1.02 -.04 1.29c-.01.24.1.48.3.62 .2.14.45.18.69.09l1.21-.44 1.21.43c.23.08.49.04.69-.1 .2-.15.31-.39.3-.63l-.04-1.3 .78-1.03c.15-.2.19-.46.11-.69 -.08-.24-.27-.42-.51-.49l-1.25-.37 -.74-1.07Z"/><path d="M18.11 10.576c-.14-.21-.38-.33-.62-.33 -.25 0-.48.12-.62.32l-.74 1.06 -1.25.36c-.24.06-.43.25-.51.48 -.08.23-.04.49.11.68l.78 1.02 -.04 1.29c-.01.24.1.48.3.62 .2.14.45.18.69.09l1.21-.44 1.21.43c.23.08.49.04.69-.1 .2-.15.31-.39.3-.63l-.04-1.3 .78-1.03c.15-.2.19-.46.11-.69 -.08-.24-.27-.42-.51-.49l-1.25-.37 -.74-1.07Z"/></g></svg>