<svg viewBox="0 0 24 24" xmlns="http://www.w3.org/2000/svg"><path fill="#FFD071" d="M12.2 13.96c-.55-.83-1.65-1.08-2.5-.58l-5.09 2.96c-.24.13-.38.38-.38.64v4.5c0 .41.33.75.75.75h11c.17 0 .34-.07.48-.18l4.76-3.98c.99-.84 1.06-2.35.14-3.27 -.76-.76-1.96-.87-2.84-.25l-3.81 2.66h-3.37l.8-1.22c.41-.63.41-1.45 0-2.08Z"/><path fill="#ECEFF1" d="M2 14.75c-.42 0-.75.33-.75.75V22c0 .41.33.75.75.75h3c.41 0 .75-.34.75-.75v-6.5c0-.42-.34-.75-.75-.75H2Z"/><path fill="#5E94FF" d="M11 1.25c-1.16 0-2.12.87-2.24 2H7.49c-.42 0-.75.33-.75.75v7c0 .41.33.75.75.75h7c.41 0 .75-.34.75-.75V9.73c1.125-.13 2-1.08 2-2.24 0-1.16-.875-2.12-2-2.24V3.98c0-.42-.34-.75-.75-.75h-1.27c-.13-1.13-1.08-2-2.24-2Z"/></svg>