<svg viewBox="0 0 24 24" xmlns="http://www.w3.org/2000/svg"><path fill="#ECEFF1" d="M11 4.25c-4.84 0-8.75 3.91-8.75 8.75 0 4.83 3.91 8.75 8.75 8.75 4.83 0 8.75-3.92 8.75-8.75 0-4.84-3.92-8.75-8.75-8.75Z"/><g fill="#EE4D4D" fill-rule="evenodd"><path d="M11 5.75c-4.01 0-7.25 3.24-7.25 7.25 0 4 3.24 7.25 7.25 7.25 4 0 7.25-3.25 7.25-7.25 0-4.01-3.25-7.25-7.25-7.25ZM2.25 13c0-4.84 3.91-8.75 8.75-8.75 4.83 0 8.75 3.91 8.75 8.75 0 4.83-3.92 8.75-8.75 8.75 -4.84 0-8.75-3.92-8.75-8.75Z"/><path d="M11 9.25c-2.08 0-3.75 1.67-3.75 3.75 0 2.07 1.67 3.75 3.75 3.75 2.07 0 3.75-1.68 3.75-3.75 0-2.08-1.68-3.75-3.75-3.75ZM5.75 13c0-2.9 2.35-5.25 5.25-5.25 2.89 0 5.25 2.35 5.25 5.25 0 2.89-2.36 5.25-5.25 5.25 -2.9 0-5.25-2.36-5.25-5.25Z"/><g fill="#FFC44D"><path d="M19.53 4.46c.29.29.29.76 0 1.06l-8 7.99c-.3.29-.77.29-1.07 0 -.3-.3-.3-.77 0-1.07l8-8.01c.29-.3.76-.3 1.06-.001Z"/><path d="M19 1.25c.41 0 .75.33.75.75v2.25H22c.41 0 .75.33.75.75 0 .41-.34.75-.75.75h-3c-.42 0-.75-.34-.75-.75V2c0-.42.33-.75.75-.75Z"/></g></g></svg>