<svg viewBox="0 0 24 24" xmlns="http://www.w3.org/2000/svg"><path fill="#A2ADB8" fill-rule="evenodd" d="M3.25 18c0-.42.33-.75.75-.75h16c.41 0 .75.33.75.75 0 .41-.34.75-.75.75H4c-.42 0-.75-.34-.75-.75Z"/><path fill="#EE4D4D" d="M5 5.25c-.42 0-.75.33-.75.75 0 4.28 3.46 7.75 7.75 7.75 4.28 0 7.75-3.47 7.75-7.75 0-.42-.34-.75-.75-.75H5Z"/><path fill="#F17171" d="M5.5 2.25c-1.25 0-2.25 1-2.25 2.25 0 1.24 1 2.25 2.25 2.25h13c1.24 0 2.25-1.01 2.25-2.25 0-1.25-1.01-2.25-2.25-2.25h-13Z"/><g fill="#CFD8DC" fill-rule="evenodd"><path d="M12 9.25c.41 0 .75.33.75.75v11c0 .41-.34.75-.75.75 -.42 0-.75-.34-.75-.75V10c0-.42.33-.75.75-.75Z"/><path d="M9.4 9.36c.34.22.45.68.23 1.03l-7 11c-.23.34-.69.45-1.04.23 -.35-.23-.46-.69-.24-1.04l7-11c.22-.35.68-.46 1.03-.24Z"/><path d="M14.59 9.36c-.35.22-.46.68-.23 1.03l7 11c.22.34.68.45 1.03.23 .34-.23.45-.69.23-1.04l-7-11c-.23-.35-.69-.46-1.04-.24Z"/></g></svg>