<svg viewBox="0 0 24 24" xmlns="http://www.w3.org/2000/svg"><path fill="#ECEFF1" d="M4 1.25C2.48 1.25 1.25 2.48 1.25 4v16c0 1.51 1.23 2.75 2.75 2.75h16c1.51 0 2.75-1.24 2.75-2.75V4c0-1.52-1.24-2.75-2.75-2.75H4Z"/><g fill="#EE4D4D"><path d="M12.62 5.58c-.14-.21-.38-.34-.63-.34 -.26 0-.49.12-.63.33l-6.01 9c-.09.12-.13.26-.13.41v3c0 .41.33.75.75.75h3c.25 0 .49-.14.63-.36l2.36-3.79 2.36 3.78c.13.21.37.35.63.35h3c.41 0 .75-.34.75-.75v-3c0-.15-.05-.3-.13-.42l-6-9.01Z"/><path fill="#EE4D4D" fill-rule="evenodd" d="M1.25 4c0-1.52 1.23-2.75 2.75-2.75h16c1.51 0 2.75 1.23 2.75 2.75v16c0 1.51-1.24 2.75-2.75 2.75H4c-1.52 0-2.75-1.24-2.75-2.75V4ZM4 2.75c-.7 0-1.25.55-1.25 1.25v16c0 .69.55 1.25 1.25 1.25h16c.69 0 1.25-.56 1.25-1.25V4c0-.7-.56-1.25-1.25-1.25H4Z"/></g></svg>