<svg viewBox="0 0 24 24" xmlns="http://www.w3.org/2000/svg"><g fill="#7EA9FF"><path d="M4 15.25c-1.52 0-2.75-1.24-2.75-2.75v-4c0-.42.33-.75.75-.75h3c.41 0 .75.33.75.75v6c0 .41-.34.75-.75.75H4Z"/><path d="M20 15.25c1.51 0 2.75-1.24 2.75-2.75v-4c0-.42-.34-.75-.75-.75h-3c-.42 0-.75.33-.75.75v6c0 .41.33.75.75.75h1Z"/></g><path fill="#A2ADB8" d="M5 17.25c-.97 0-1.75.78-1.75 1.75v2c0 .96.78 1.75 1.75 1.75h14c.96 0 1.75-.79 1.75-1.75v-2c0-.97-.79-1.75-1.75-1.75H5Z"/><path fill="#5E94FF" fill-rule="evenodd" d="M5 1.25c-.42 0-.75.33-.75.75v14c0 1.51 1.23 2.75 2.75 2.75h10c1.51 0 2.75-1.24 2.75-2.75V2c0-.42-.34-.75-.75-.75H5Z"/><path fill="#7EA9FF" d="M5 1.25c-.42 0-.75.33-.75.75v5c0 1.51 1.23 2.75 2.75 2.75h10c1.51 0 2.75-1.24 2.75-2.75V2c0-.42-.34-.75-.75-.75H5Z"/><g fill="#ECEFF1" fill-rule="evenodd"><path d="M8 13.25c.41 0 .75.33.75.75v6c0 .41-.34.75-.75.75 -.42 0-.75-.34-.75-.75v-6c0-.42.33-.75.75-.75Z"/><path d="M16 13.25c.41 0 .75.33.75.75v6c0 .41-.34.75-.75.75 -.42 0-.75-.34-.75-.75v-6c0-.42.33-.75.75-.75Z"/><path d="M12 5.25c.41 0 .75.33.75.75v5c0 .41-.34.75-.75.75 -.42 0-.75-.34-.75-.75V6c0-.42.33-.75.75-.75Z"/></g></svg>