<svg viewBox="0 0 24 24" xmlns="http://www.w3.org/2000/svg"><path fill="#CFD8DC" fill-rule="evenodd" d="M14.25 3.5c0-.42.33-.75.75-.75h1c1.51 0 2.75 1.23 2.75 2.75V6c0 1.51-1.24 2.75-2.75 2.75h-1c-.42 0-.75-.34-.75-.75 0-.42.33-.75.75-.75h1c.69 0 1.25-.56 1.25-1.25v-.5c0-.7-.56-1.25-1.25-1.25h-1c-.42 0-.75-.34-.75-.75Z"/><path fill="#A2D471" d="M10 4.25c-.42 0-.75.33-.75.75v3c0 .41.33.75.75.75h4c.41 0 .75-.34.75-.75V5c0-.42-.34-.75-.75-.75h-4Z"/><path fill="#8BC94D" d="M7 7.25c-1.52 0-2.75 1.23-2.75 2.75v10c0 1.51 1.23 2.75 2.75 2.75h10c1.51 0 2.75-1.24 2.75-2.75V10c0-1.52-1.24-2.75-2.75-2.75H7Z"/><path fill="#CFD8DC" fill-rule="evenodd" d="M2.25 12c0-.42.33-.75.75-.75h18c.41 0 .75.33.75.75 0 .41-.34.75-.75.75H3c-.42 0-.75-.34-.75-.75Z"/><path fill="#8BC94D" d="M9 1.25c-.42 0-.75.33-.75.75v3c0 .41.33.75.75.75h6c.41 0 .75-.34.75-.75V2c0-.42-.34-.75-.75-.75H9Z"/></svg>