<svg viewBox="0 0 24 24" xmlns="http://www.w3.org/2000/svg"><path fill="#CFD8DC" d="M8.56 1.25c-2.6 0-4.59 2.31-4.21 4.88l1.95 13c.31 2.08 2.09 3.61 4.2 3.61h5.48c2.34 0 4.25-1.91 4.25-4.25v-3.5c0-.21-.09-.4-.24-.55 -.15-.15-.35-.22-.55-.21l-2.5.1c-.41.01-.72.34-.72.74v2.4c0 .41-.34.75-.75.75h-4.39c-.38 0-.7-.29-.75-.66l-1.42-11c-.06-.45.29-.85.74-.85h5.79c.41 0 .75.33.75.75v2.4c0 .4.31.73.72.74l2.5.1c.2 0 .4-.07.54-.21 .14-.15.23-.34.23-.55v-3.5c0-2.35-1.91-4.25-4.25-4.25H8.49Z"/><path fill="#EE4D4D" d="M15.5 8.25c-.42 0-.75.33-.75.75v6c0 .41.33.75.75.75h5c.41 0 .75-.34.75-.75V9c0-.42-.34-.75-.75-.75h-5Z"/></svg>