<svg viewBox="0 0 24 24" xmlns="http://www.w3.org/2000/svg"><g fill="#CFD8DC" fill-rule="evenodd"><path d="M20.56 7c.27.31.23.78-.08 1.05l-15 13c-.14.11-.32.18-.5.18h-3c-.42 0-.75-.34-.75-.75 0-.42.33-.75.75-.75H4.7L19.48 6.91c.31-.28.78-.24 1.05.07Z"/><path d="M3.43 7c-.28.31-.24.78.07 1.05l15 13c.13.11.31.18.49.18h3c.41 0 .75-.34.75-.75 0-.42-.34-.75-.75-.75h-2.73L4.47 6.91c-.32-.28-.79-.24-1.06.07Z"/></g><path fill="#5E94FF" d="M2 2.75c-.42 0-.75.33-.75.75v4c0 .41.33.75.75.75h20c.41 0 .75-.34.75-.75v-4c0-.42-.34-.75-.75-.75H2Z"/></svg>