<svg viewBox="0 0 24 24" xmlns="http://www.w3.org/2000/svg"><g fill="#FFC44D" fill-rule="evenodd"><path d="M15.53 1.41c.32-.26.79-.21 1.05.11l3.62 4.52 1.04-.53V1.97c0-.42.33-.75.75-.75 .41 0 .75.33.75.75v4c0 .28-.17.54-.42.67l-3.78 1.88 -2.39 4.77c-.19.37-.64.52-1.01.33 -.38-.19-.53-.64-.34-1.01l.99-2 -2.33-2.12c-.16-.15-.25-.35-.25-.56v-4c0-.42.33-.75.75-.75 .41 0 .75.33.75.75v3.66l1.77 1.61 .8-1.62c.07-.15.19-.27.33-.34l1.17-.59 -3.43-4.28c-.26-.33-.21-.8.11-1.06Z"/><path d="M8.46 1.41c-.33-.26-.8-.21-1.06.11L3.77 6.04l-1.05-.53V1.97c0-.42-.34-.75-.75-.75 -.42 0-.75.33-.75.75v4c0 .28.16.54.41.67L5.4 8.52l2.38 4.77c.18.37.63.52 1 .33s.52-.64.33-1.01l-1-2 2.32-2.12c.15-.15.24-.35.24-.56v-4c0-.42-.34-.75-.75-.75 -.42 0-.75.33-.75.75v3.66L7.39 9.2l-.81-1.62c-.08-.15-.2-.27-.34-.34l-1.18-.59 3.42-4.28c.25-.33.2-.8-.12-1.06Z"/><g fill="#FF884D"><path d="M8.98 12.42c.31.26.36.73.09 1.05l-2.5 3c-.27.31-.74.36-1.06.09 -.32-.27-.37-.74-.1-1.06l2.5-3c.26-.32.73-.37 1.05-.1Z"/><path d="M15.01 12.42c-.32.26-.37.73-.1 1.05l2.5 3c.26.31.73.36 1.05.09 .31-.27.36-.74.09-1.06l-2.5-3c-.27-.32-.74-.37-1.06-.1Z"/></g></g><path fill="#FF884D" d="M8.5 12.25c-.22 0-.42.09-.56.24 -.15.15-.22.37-.19.58l.8 7.22c.15 1.39 1.33 2.44 2.73 2.44h1.41c1.4 0 2.57-1.06 2.73-2.45l.8-7.23c.02-.22-.05-.43-.19-.59 -.15-.16-.35-.25-.56-.25h-7Z"/></svg>