<svg viewBox="0 0 24 24" xmlns="http://www.w3.org/2000/svg"><path fill="#5E94FF" d="M9 7.25c-.42 0-.75.33-.75.75v12c0 1.51 1.23 2.75 2.75 2.75h2c1.51 0 2.75-1.24 2.75-2.75V8c0-.42-.34-.75-.75-.75H9Z"/><path fill="#CFD8DC" d="M7 1.25c-.25 0-.47.11-.61.31 -.15.19-.18.44-.11.67l2 6c.1.3.38.51.71.51h5.99c.32 0 .6-.21.71-.52l2-6c.07-.23.03-.49-.11-.68 -.15-.2-.37-.32-.61-.32h-10Z"/><path fill="#ECEFF1" fill-rule="evenodd" d="M12 10.25c.41 0 .75.33.75.75v2c0 .41-.34.75-.75.75 -.42 0-.75-.34-.75-.75v-2c0-.42.33-.75.75-.75Z"/></svg>