<svg viewBox="0 0 24 24" xmlns="http://www.w3.org/2000/svg"><g fill="#8BC94D"><path d="M21.99 1.99l-.08-.75 -.02 0 -.03 0 -.11.01c-.1 0-.24.02-.41.04 -.36.03-.86.1-1.48.18 -1.24.16-2.92.41-4.7.76 -1.78.35-3.68.8-5.34 1.37 -1.64.55-3.15 1.26-4.06 2.17 -3.42 3.41-3.42 8.95 0 12.37 3.41 3.41 8.95 3.41 12.37 0 .9-.91 1.61-2.43 2.17-4.06 .56-1.66 1.02-3.56 1.37-5.34 .35-1.79.6-3.47.76-4.7 .08-.62.14-1.13.18-1.48 .01-.18.03-.32.04-.41l.01-.11 0-.03 0-.02 -.75-.08c.74.07.74.07.74.07Z"/><path d="M22.53 1.46c-.16-.16-.38-.24-.61-.22Z"/><path d="M21.99 1.99c-.08-.75-.08-.75-.08-.75Z"/></g><path fill="#A2D471" fill-rule="evenodd" d="M22.53 1.46c-.3-.3-.77-.3-1.07 0l-20 20c-.3.29-.3.76-.001 1.06 .29.29.76.29 1.06 0l20-20c.29-.3.29-.77 0-1.07Z"/></svg>