<svg viewBox="0 0 24 24" xmlns="http://www.w3.org/2000/svg"><path fill="#8B98A6" d="M12.5 1.25c-1.8 0-3.25 1.45-3.25 3.25 0 .08.01.16.03.23l.5 1.5c.1.3.38.51.71.51h4c.23 0 .45-.12.59-.3 .4-.55.65-1.22.65-1.96 0-1.8-1.46-3.25-3.25-3.25Z"/><path fill="#5E94FF" d="M7 8.25c-.42 0-.75.33-.75.75v12c0 .96.78 1.75 1.75 1.75h6c.96 0 1.75-.79 1.75-1.75V9c0-.42-.34-.75-.75-.75H7Z"/><path fill="#CFD8DC" d="M11 9.75c-.42 0-.75-.34-.75-.75V6c0-.42.33-.75.75-.75h3c.96 0 1.75.78 1.75 1.75v2c0 .41-.34.75-.75.75h-4Z"/><path fill="#ECEFF1" d="M11 9.75c.41 0 .75-.34.75-.75V4c0-.24-.11-.45-.29-.6 -.19-.15-.42-.2-.65-.14l-3.25.81c-.78.19-1.33.89-1.33 1.69v3.21c0 .41.33.75.75.75h4Z"/></svg>