<svg viewBox="0 0 24 24" xmlns="http://www.w3.org/2000/svg"><path fill="#EE4D4D" d="M11.21 1.77c-.1-.3-.37-.51-.68-.52 -.32-.02-.6.16-.73.44L7.31 7.27 5.82 5.29c-.18-.24-.48-.35-.76-.29 -.29.06-.52.28-.58.57l-1.03 4.67c-.74 3.33 1.8 6.48 5.21 6.48 3.61 0 6.19-3.53 5.08-6.98l-2.58-8.01Z"/><path fill="#FFC44D" fill-rule="evenodd" d="M9.45 12.48c.28-.31.75-.32 1.06-.03l9.5 9c.3.28.31.75.02 1.06 -.29.3-.76.31-1.07.02l-9.51-9c-.31-.29-.32-.76-.03-1.07Z"/><path fill="#FF884D" d="M9 9.75c-1.25 0-2.25 1-2.25 2.25 0 1.24 1 2.25 2.25 2.25 1.24 0 2.25-1.01 2.25-2.25 0-1.25-1.01-2.25-2.25-2.25Z"/></svg>