<svg viewBox="0 0 24 24" xmlns="http://www.w3.org/2000/svg"><path fill="#CFD8DC" fill-rule="evenodd" d="M17.25 9c0-.42.33-.75.75-.75h1.5c1.79 0 3.25 1.45 3.25 3.25v3c0 1.79-1.46 3.25-3.25 3.25H18c-.42 0-.75-.34-.75-.75V9Zm1.5.75v6.5h.75c.96 0 1.75-.79 1.75-1.75v-3c0-.97-.79-1.75-1.75-1.75h-.75Z"/><path fill="#8BC94D" d="M3 6.25c-.42 0-.75.33-.75.75v10c0 1.51 1.23 2.75 2.75 2.75h11c1.51 0 2.75-1.24 2.75-2.75V7c0-.42-.34-.75-.75-.75H3Z"/><path fill="#A2D471" d="M2 3.25c-.42 0-.75.33-.75.75v3c0 .41.33.75.75.75h17c.41 0 .75-.34.75-.75V4c0-.42-.34-.75-.75-.75H2Z"/></svg>