<svg viewBox="0 0 24 24" xmlns="http://www.w3.org/2000/svg"><g fill="#CFD8DC"><path d="M13.5 10.25c1.19 0 2.31.24 3.16.66 .8.4 1.58 1.09 1.58 2.08 0 .98-.79 1.68-1.59 2.08 -.85.42-1.968.66-3.17.66 -1.2 0-2.32-.25-3.17-.67 -.81-.41-1.59-1.1-1.59-2.09 0-.99.78-1.69 1.58-2.09 .84-.43 1.968-.67 3.16-.67Z"/><path d="M6.5 10.25c.95 0 1.85.25 2.53.71 .67.45 1.21 1.15 1.21 2.03 0 .88-.54 1.58-1.22 2.03 -.69.45-1.59.71-2.54.71 -.42 0-.75-.34-.75-.75v-4c0-.42.33-.75.75-.75Z"/><path fill="#CFD8DC" fill-rule="evenodd" d="M15.5 2.25c-.42 0-.75.33-.75.75v3c0 .41.33.75.75.75 .41 0 .75.33.75.75 0 .41-.34.75-.75.75 -.42 0-.75-.34-.75-.75 0-.42-.34-.75-.75-.75 -.42 0-.75.33-.75.75 0 1.24 1 2.25 2.25 2.25 1.24 0 2.25-1.01 2.25-2.25 0-.98-.63-1.82-1.5-2.13V2.99c0-.42-.34-.75-.75-.75Z"/></g><g fill="#EE4D4D" fill-rule="evenodd"><path d="M12 2.75c-5.11 0-9.25 4.14-9.25 9.25 0 5.1 4.14 9.25 9.25 9.25 5.1 0 9.25-4.15 9.25-9.25 0-5.11-4.15-9.25-9.25-9.25ZM1.25 12C1.25 6.06 6.06 1.25 12 1.25c5.93 0 10.75 4.81 10.75 10.75 0 5.93-4.82 10.75-10.75 10.75 -5.94 0-10.75-4.82-10.75-10.75Z"/><path d="M4.46 4.46c.29-.3.76-.3 1.06 0l14 14c.29.29.29.76 0 1.06 -.3.29-.77.29-1.07 0l-14-14c-.3-.3-.3-.77-.001-1.07Z"/></g></svg>