<svg viewBox="0 0 24 24" xmlns="http://www.w3.org/2000/svg"><g fill="#FF884D"><path d="M13.71 10.41c-1.01-.81-2.44-.81-3.44 0l-4.01 3.2c-.66.52-1.04 1.31-1.04 2.14v3.28c0 1.94 1.96 3.27 3.77 2.55l2.97-1.2 2.97 1.19c1.8.72 3.77-.61 3.77-2.56v-3.29c0-.84-.38-1.63-1.04-2.15l-4-3.2Z"/><path d="M15 1.25c-.89 0-1.59.53-2.04 1.21 -.46.68-.72 1.58-.72 2.53 0 .95.25 1.85.71 2.53 .45.67 1.15 1.21 2.03 1.21 .88 0 1.58-.54 2.03-1.22 .45-.69.71-1.59.71-2.54 0-.96-.26-1.86-.72-2.54 -.46-.68-1.16-1.22-2.04-1.22Z"/><path d="M9 1.25c-.89 0-1.59.53-2.04 1.21 -.46.68-.72 1.58-.72 2.53 0 .95.25 1.85.71 2.53 .45.67 1.15 1.21 2.03 1.21 .88 0 1.58-.54 2.03-1.22 .45-.69.71-1.59.71-2.54 0-.96-.26-1.86-.72-2.54 -.46-.68-1.16-1.22-2.04-1.22Z"/><path d="M4 6.25c-.89 0-1.59.53-2.04 1.21 -.46.68-.72 1.58-.72 2.53 0 .95.25 1.85.71 2.53 .45.67 1.15 1.21 2.03 1.21 .88 0 1.58-.54 2.03-1.22 .45-.69.71-1.59.71-2.54 0-.96-.26-1.86-.72-2.54 -.46-.68-1.16-1.22-2.04-1.22Z"/><path d="M20 6.25c-.89 0-1.59.53-2.04 1.21 -.46.68-.72 1.58-.72 2.53 0 .95.25 1.85.71 2.53 .45.67 1.15 1.21 2.03 1.21 .88 0 1.58-.54 2.03-1.22 .45-.69.71-1.59.71-2.54 0-.96-.26-1.86-.72-2.54 -.46-.68-1.16-1.22-2.04-1.22Z"/></g></svg>