<svg viewBox="0 0 24 24" xmlns="http://www.w3.org/2000/svg"><path fill="#CFD8DC" fill-rule="evenodd" d="M18.67 1.68c.17.37.01.82-.37.99l-15 7c-.38.17-.83.01-1-.37 -.18-.38-.02-.83.36-1l15-7c.37-.18.82-.02.99.36Z"/><path fill="#8B98A6" d="M2 8.25c-.42 0-.75.33-.75.75v13c0 .41.33.75.75.75h20c.41 0 .75-.34.75-.75V9c0-.42-.34-.75-.75-.75H2Z"/><g fill="#ECEFF1"><path d="M17 11.25c-1.52 0-2.75 1.23-2.75 2.75 0 1.51 1.23 2.75 2.75 2.75 1.51 0 2.75-1.24 2.75-2.75 0-1.52-1.24-2.75-2.75-2.75Z"/><g fill="#ECEFF1" fill-rule="evenodd"><path d="M3.75 12.5c0-.42.33-.75.75-.75h8c.41 0 .75.33.75.75 0 .41-.34.75-.75.75h-8c-.42 0-.75-.34-.75-.75Z"/><path d="M3.75 15.5c0-.42.33-.75.75-.75h8c.41 0 .75.33.75.75 0 .41-.34.75-.75.75h-8c-.42 0-.75-.34-.75-.75Z"/><path d="M3.75 18.5c0-.42.33-.75.75-.75h8c.41 0 .75.33.75.75 0 .41-.34.75-.75.75h-8c-.42 0-.75-.34-.75-.75Z"/></g></g></svg>