<svg viewBox="0 0 24 24" xmlns="http://www.w3.org/2000/svg"><path fill="#5E94FF" d="M9 1.25C7.48 1.25 6.25 2.48 6.25 4v4c0 .41.33.75.75.75h10c.41 0 .75-.34.75-.75V4c0-1.52-1.24-2.75-2.75-2.75H9Z"/><path fill="#7EA9FF" d="M11 4.25c-.97 0-1.75.78-1.75 1.75v2c0 .41.33.75.75.75h4c.41 0 .75-.34.75-.75V6c0-.97-.79-1.75-1.75-1.75h-2Z"/><path fill="#5E94FF" d="M7 7.25c-.42 0-.75.33-.75.75v14c0 .41.33.75.75.75h10c.41 0 .75-.34.75-.75V8c0-.42-.34-.75-.75-.75H7Z"/><path fill="#ECEFF1" d="M17 7.25c.34 0 .63.22.72.55 .08.32-.06.67-.36.84l-7 4c-.33.18-.75.1-.98-.21l-3-4c-.18-.23-.2-.54-.08-.79 .12-.26.38-.42.67-.42h10Z"/></svg>