<svg viewBox="0 0 24 24" xmlns="http://www.w3.org/2000/svg"><g fill="#8B98A6" fill-rule="evenodd"><path d="M14.5 7.25c.41 0 .75.33.75.75v2c0 .41-.34.75-.75.75 -.42 0-.75-.34-.75-.75V8c0-.42.33-.75.75-.75Z"/><path fill="#ECEFF1" d="M6.25 4c0-1.52 1.23-2.75 2.75-2.75h11c1.51 0 2.75 1.23 2.75 2.75v10c0 .41-.34.75-.75.75 -.42 0-.75-.34-.75-.75V4c0-.7-.56-1.25-1.25-1.25H9c-.7 0-1.25.55-1.25 1.25v10c0 .41-.34.75-.75.75 -.42 0-.75-.34-.75-.75V4Z"/></g><path fill="#ECEFF1" d="M2.27 10.3c-.24-.1-.5-.07-.7.07 -.21.13-.33.37-.33.62v4c0 .3.18.58.47.69l5 2c.23.09.49.06.69-.08 .2-.14.32-.38.32-.63v-4c0-.31-.19-.59-.48-.7l-5-2Z"/><path fill="#CFD8DC" d="M9 9.25c-1.52 0-2.75 1.23-2.75 2.75v8c0 1.51 1.23 2.75 2.75 2.75h11c1.51 0 2.75-1.24 2.75-2.75v-8c0-1.52-1.24-2.75-2.75-2.75H9Z"/></svg>