<svg viewBox="0 0 24 24" xmlns="http://www.w3.org/2000/svg"><path fill="#A2D471" d="M12 3.25c-3.12 0-5.82 2.01-7.71 5.03 -1.9 3.03-3.05 7.17-3.05 11.71 0 .41.33.75.75.75h20c.41 0 .75-.34.75-.75 0-4.54-1.15-8.68-3.05-11.72 -1.89-3.03-4.6-5.04-7.71-5.04Z"/><path fill="#8BC94D" d="M12.67 9.66c-.13-.26-.39-.42-.68-.42 -.29 0-.55.16-.68.41l-5.01 10c-.12.23-.11.5.03.72 .13.22.37.35.63.35h10c.25 0 .5-.14.63-.36 .13-.23.14-.5.03-.73l-5-10Z"/><g fill="#ECEFF1"><path d="M7 9.25c-.42 0-.75.33-.75.75v10c0 .34.23.65.57.72 .33.08.68-.09.84-.4l4.99-10c.11-.24.1-.51-.04-.73 -.14-.23-.38-.36-.64-.36h-5Z"/><path d="M17 9.25c.41 0 .75.33.75.75v10c0 .34-.24.65-.58.72 -.34.08-.69-.09-.85-.4l-5-10c-.12-.24-.11-.51.03-.73 .13-.23.37-.36.63-.36h5Z"/></g></svg>