<svg viewBox="0 0 24 24" xmlns="http://www.w3.org/2000/svg"><path fill="#8BC94D" d="M12.62 1.58c-.14-.21-.38-.34-.63-.34 -.26 0-.49.12-.63.33l-10 15c-.09.12-.13.26-.13.41v5c0 .41.33.75.75.75h5c.25 0 .49-.14.63-.36l4.36-6.99 4.36 6.98c.13.21.37.35.63.35h5c.41 0 .75-.34.75-.75v-5c0-.15-.05-.3-.13-.42l-10-15Z"/><g fill="#ECEFF1"><path d="M7 13.25c-.42 0-.75.33-.75.75v8c0 .33.22.62.54.72 .32.09.66-.04.84-.33l5-8c.14-.24.15-.53.02-.77 -.14-.24-.39-.39-.66-.39h-5Z"/><path d="M17 13.25c.41 0 .75.33.75.75v8c0 .33-.23.62-.55.72 -.33.09-.67-.04-.85-.33l-5-8c-.15-.24-.16-.53-.02-.77 .13-.24.38-.39.65-.39h5Z"/></g></svg>