<svg viewBox="0 0 24 24" xmlns="http://www.w3.org/2000/svg"><path fill="#CFD8DC" d="M10 1.25c-.42 0-.75.33-.75.75v3c0 .41.33.75.75.75h4c.41 0 .75-.34.75-.75V2c0-.42-.34-.75-.75-.75h-4Z"/><path fill="#5E94FF" d="M11 4.25C8.37 4.25 6.25 6.37 6.25 9v13c0 .41.33.75.75.75h10c.41 0 .75-.34.75-.75V9c0-2.63-2.13-4.75-4.75-4.75h-2Z"/><g fill="#ECEFF1"><path d="M12 11.5l.55-.51c-.15-.16-.35-.25-.56-.25 -.22 0-.42.09-.56.24 0 0 0 0 .55.5Z"/><path d="M12 11.5l-.56-.51 -.01 0 -.01 0 -.02.01c-.02.01-.03.03-.06.05 -.05.05-.11.12-.19.21 -.15.17-.35.42-.55.7 -.2.27-.41.59-.58.91 -.16.29-.32.68-.32 1.08 0 1.24 1 2.25 2.25 2.25 1.24 0 2.25-1.01 2.25-2.25 0-.4-.17-.79-.32-1.09 -.17-.32-.38-.64-.58-.92 -.21-.28-.4-.53-.55-.71 -.08-.09-.14-.17-.19-.22 -.03-.03-.04-.05-.06-.06l-.02-.02 -.01-.01 -.01-.01s-.01-.01-.56.5Z"/></g></svg>