<svg viewBox="0 0 24 24" xmlns="http://www.w3.org/2000/svg"><path fill="#EE4D4D" d="M9 5.25c-4.29 0-7.75 3.46-7.75 7.75 0 4.28 3.46 7.75 7.75 7.75 4.228 0 7.66-3.39 7.74-7.6l5.3-.41c.39-.04.69-.36.69-.75v-6c0-.42-.34-.75-.75-.75h-13Z"/><g fill="#ECEFF1"><path d="M9 8.75c-2.35 0-4.25 1.9-4.25 4.25 0 2.34 1.9 4.25 4.25 4.25 2.34 0 4.25-1.91 4.25-4.25 0-2.35-1.91-4.25-4.25-4.25Z"/><path d="M14 5.25c-.42 0-.75.33-.75.75v3c0 .41.33.75.75.75h3c.41 0 .75-.34.75-.75V6c0-.42-.34-.75-.75-.75h-3Z"/></g></svg>