<svg viewBox="0 0 24 24" xmlns="http://www.w3.org/2000/svg"><path fill="#F17171" d="M6.31 5.31c-.29-.14-.63-.08-.85.15 -.23.22-.29.55-.16.84l1.77 3.85v3.67l-1.78 3.85c-.14.28-.08.62.15.84 .22.22.55.28.84.15l3.85-1.78h3.67l3.85 1.77c.28.13.62.07.84-.16 .22-.23.28-.56.15-.85l-1.78-3.86V10.1l1.77-3.86c.13-.29.07-.63-.16-.85 -.23-.23-.56-.29-.85-.16L13.76 7h-3.68L6.22 5.22Z"/><path fill="#EE4D4D" d="M12.7 1.73c-.11-.3-.39-.49-.71-.49 -.32 0-.6.19-.71.48L8.69 8.69l-6.98 2.58c-.3.1-.49.38-.49.7 0 .31.19.59.48.7l6.97 2.58 2.58 6.97c.1.29.38.48.7.48 .31 0 .59-.2.7-.49l2.58-6.98 6.97-2.59c.29-.11.48-.39.48-.71 0-.32-.2-.6-.49-.71l-6.98-2.59 -2.59-6.98Z"/><path fill="#ECEFF1" d="M12 9.75c-1.25 0-2.25 1-2.25 2.25 0 1.24 1 2.25 2.25 2.25 1.24 0 2.25-1.01 2.25-2.25 0-1.25-1.01-2.25-2.25-2.25Z"/></svg>