<svg viewBox="0 0 24 24" xmlns="http://www.w3.org/2000/svg"><g fill="#9545ED" fill-rule="evenodd"><path d="M13 9.38V6.99h-2v5c0 .41.25.78.64.93 .38.14.82.04 1.1-.266l2.5-2.79 -1.49-1.34 -.76.84Z"/><path d="M21.091 4.92l-2.27-2.27 -1.42 1.41 2.26 2.26 1.41-1.42Z"/><path d="M2.9 4.92l2.26-2.27 1.41 1.41L4.3 6.32 2.88 4.9Z"/><g fill="#3747D6"><path d="M12 5c-3.87 0-7 3.13-7 7 0 3.86 3.13 7 7 7 3.86 0 7-3.14 7-7 0-3.87-3.14-7-7-7Zm-9 7c0-4.98 4.02-9 9-9 4.97 0 9 4.02 9 9 0 4.97-4.03 9-9 9 -4.98 0-9-4.03-9-9Z"/><path d="M21.091 19.42l-2.27-2.27 -1.42 1.41 2.26 2.26 1.41-1.42Z"/><path d="M2.9 19.42l2.26-2.27 1.41 1.41 -2.27 2.26 -1.42-1.42Z"/></g></g></svg>