<svg viewBox="0 0 24 24" xmlns="http://www.w3.org/2000/svg"><g fill="#3747D6" fill-rule="evenodd"><path d="M1 5c0-.56.44-1 1-1h20c.55 0 1 .44 1 1v15c0 .55-.45 1-1 1H2c-.56 0-1-.45-1-1V5Zm2 1v13h18V6H3Z"/><path d="M1 5c0-.56.44-1 1-1h20c.55 0 1 .44 1 1v5c0 .45-.32.85-.76.97l-8.06 2.01c-1.44.35-2.94.35-4.37 0l-8.06-2.02c-.45-.12-.76-.52-.76-.98v-5Zm2 1v3.21l7.3 1.82c1.11.27 2.28.27 3.39 0l7.3-1.83V5.98h-18Z"/><g fill="#9545ED"><path d="M6 2c0-.56.44-1 1-1h10c.55 0 1 .44 1 1v3c0 .55-.45 1-1 1H7c-.56 0-1-.45-1-1V2Zm2 1v1h8V3H8Z"/><path d="M12 10.5c-.28 0-.5.22-.5.5v3c0 .27.22.5.5.5 .27 0 .5-.23.5-.5v-3c0-.28-.23-.5-.5-.5Zm-2.5.5c0-1.39 1.11-2.5 2.5-2.5 1.38 0 2.5 1.11 2.5 2.5v3c0 1.38-1.12 2.5-2.5 2.5 -1.39 0-2.5-1.12-2.5-2.5v-3Z"/></g></g></svg>