<svg viewBox="0 0 24 24" xmlns="http://www.w3.org/2000/svg"><g fill="#9545ED" fill-rule="evenodd"><path d="M6 4c0-1.66 1.34-3 3-3h6c1.65 0 3 1.34 3 3v1c0 .55-.45 1-1 1H7c-.56 0-1-.45-1-1V4Zm3-1c-.56 0-1 .44-1 1h8c0-.56-.45-1-1-1H9Z"/><g fill="#3747D6"><path d="M1 7c0-1.66 1.34-3 3-3h16c1.65 0 3 1.34 3 3v11c0 1.65-1.35 3-3 3H4c-1.66 0-3-1.35-3-3V7Zm3-1c-.56 0-1 .44-1 1v11c0 .55.44 1 1 1h16c.55 0 1-.45 1-1V7c0-.56-.45-1-1-1H4Z"/><path d="M1.65 7.72c-.48-1.9.95-3.73 2.91-3.73h14.87c1.95 0 3.38 1.83 2.91 3.72l-.5 2c-.34 1.33-1.54 2.27-2.92 2.27H5.04c-1.38 0-2.58-.94-2.92-2.28l-.5-2Zm2.91-1.73c-.66 0-1.13.61-.98 1.24l.5 2c.11.44.51.75.97.75h13.87c.45 0 .85-.32.97-.76l.5-2c.15-.64-.32-1.25-.98-1.25H4.53Z"/></g><path d="M16 13.5v-5h2v5h-2Z"/><path d="M6 13.5v-5h2v5H6Z"/></g></svg>