<svg viewBox="0 0 24 24" xmlns="http://www.w3.org/2000/svg"><defs><mask id="a"><path fill="#FFF" d="M0 0h24v24H0Z"/></mask></defs><g mask="url(#a)"><g fill="#9545ED" fill-rule="evenodd"><path d="M5 17v-5.5h2V17h10v-5.5h2V17c0 1.1-.9 2-2 2H7c-1.11 0-2-.9-2-2Z"/><path d="M20 15V9.5h2V15h-2Z"/><path fill="#3747D6" d="M2 9.57c0-.37.19-.7.51-.88l9.07-5.08c.3-.17.67-.17.97 0l9.07 5.07c.31.17.51.51.51.87s-.2.69-.52.87l-9.08 5.07c-.31.16-.68.16-.98 0l-9.08-5.08c-.32-.18-.52-.52-.52-.88Zm3.04 0l7.02 3.92 7.02-3.93 -7.03-3.93 -7.03 3.92Z"/></g></g></svg>