<svg viewBox="0 0 24 24" xmlns="http://www.w3.org/2000/svg"><g fill="#9545ED" fill-rule="evenodd"><path d="M8.39 18.67c.05-.32-.06-.64-.28-.87l-1.48-1.48c-.24-.24-.56-.34-.89-.28 -.33.05-.6.26-.74.56l-1.35 2.89c-.18.38-.1.84.2 1.13 .3.29.76.36 1.14.17l2.82-1.42c.28-.15.48-.42.53-.74Z"/><g fill="#3747D6"><path d="M21.54 10.02c1.17-1.18 1.17-3.08 0-4.25l-2.83-2.83c-1.18-1.18-3.08-1.18-4.25 0l-7.78 7.77c-.4.39-.4 1.02 0 1.41l5.65 5.65c.39.39 1.02.39 1.41 0l7.77-7.78Zm-1.42-2.83c.39.39.39 1.02 0 1.41l-7.08 7.07 -4.25-4.25 7.07-7.08c.39-.4 1.02-.4 1.41 0l2.82 2.82Z"/><path d="M13.06 17.09c.39-.4.39-1.03 0-1.42l-4.25-4.25c-.4-.4-1.03-.4-1.42 0l-2.13 2.12c-.4.39-.4 1.02 0 1.41l-.71.7c-.4.39-.4 1.02 0 1.41l2.82 2.82c.39.39 1.02.39 1.41 0l.7-.71c.39.39 1.02.39 1.41 0l2.12-2.13Zm-4.95.7l.7-.71c.39-.4 1.02-.4 1.41 0l.7-.71 -2.83-2.83 -.71.7c.39.39.39 1.02 0 1.41l-.71.7 1.41 1.41Z"/></g></g></svg>