<svg viewBox="0 0 24 24" xmlns="http://www.w3.org/2000/svg"><g fill="#9545ED" fill-rule="evenodd"><path d="M21.34 3.96c.29.46.15 1.08-.32 1.37l-13.5 8.49c-.47.29-1.09.15-1.38-.32 -.3-.47-.16-1.09.31-1.38l13.5-8.51c.46-.3 1.08-.16 1.37.31Z"/><path d="M21.13 3.72c.42.34.49.97.14 1.4l-9 11c-.35.42-.98.49-1.41.14 -.43-.35-.5-.98-.15-1.41l9-11c.34-.43.97-.5 1.4-.15Z"/><path fill="#3747D6" d="M21.12 3.72c.27.22.4.56.36.91l-2 14.5c-.05.31-.24.59-.53.74 -.29.15-.63.15-.92 0l-6.15-3.08 -2.04 3.66c-.2.35-.59.55-.99.5 -.41-.05-.74-.33-.85-.72l-1.88-6.56 -4.08-1.82c-.38-.17-.61-.55-.6-.95 .01-.41.27-.77.65-.91l18-6.5c.32-.12.69-.06.96.16ZM5.16 11.09l2.22.99c.27.12.47.35.55.63l1.33 4.67 1.32-2.39c.26-.47.84-.65 1.32-.41l5.75 2.87 1.58-11.48L5.13 11.06Z"/></g></svg>