<svg viewBox="0 0 24 24" xmlns="http://www.w3.org/2000/svg"><g fill="#9545ED" fill-rule="evenodd"><path d="M9 4.53l2.55-1.71 -1.11-1.67 -3 2c-.28.18-.45.49-.45.83v3h2V4.51Z"/><g fill="#3747D6"><path d="M7.24 11.34c.18-.23.46-.35.75-.35h7.99c.29 0 .56.12.75.34 .19.22.27.51.23.8l-1.5 10c-.08.48-.5.85-.99.85h-5c-.5 0-.92-.37-.99-.86l-1.5-10c-.05-.29.04-.59.23-.81Zm1.91 1.65l1.2 8h3.27l1.2-8H9.14Z"/><path d="M5 7c0-.56.44-1 1-1h12c.55 0 1 .44 1 1v5c0 .55-.45 1-1 1H6c-.56 0-1-.45-1-1V7Zm2 1v3h10V8H7Z"/></g><path d="M6.74 21h10.25v2H6.73v-2Z"/></g></svg>