<svg viewBox="0 0 24 24" xmlns="http://www.w3.org/2000/svg"><g fill="#3747D6" fill-rule="evenodd"><path d="M9.61 21l1.27-2.56 -1.79-.9 -2 4c-.16.31-.14.67.04.97 .18.29.5.47.85.47h8.5c.34 0 .66-.18.85-.48 .18-.3.19-.67.04-.98l-2-4 -1.79.89 1.27 2.55H9.58Z"/><path fill="#9545ED" d="M18 11c0-2.19-1.17-4.1-2.91-5.15l1.03-1.72c2.32 1.39 3.87 3.94 3.87 6.85 0 4.41-3.59 8-8 8 -2.56 0-4.83-1.2-6.29-3.06l1.57-1.24c1.1 1.39 2.8 2.28 4.71 2.28 3.31 0 6-2.69 6-6Z"/><path d="M17.2 4.2c.34-.43.28-1.06-.15-1.41l-1.94-1.58c-.43-.35-1.06-.29-1.41.14L9.24 6.81c-.35.42-.29 1.05.14 1.4l1.93 1.57c.42.34 1.05.28 1.4-.15l4.45-5.47Zm-2.19-.49l-3.19 3.91 -.39-.32 3.18-3.92 .38.31Z"/><path fill="#9545ED" d="M10.5 16.5h-7v-2h7v2Z"/></g></svg>