<svg viewBox="0 0 24 24" xmlns="http://www.w3.org/2000/svg"><g fill-rule="evenodd"><path d="M10.95 16.543l3.29-3.71 1.49 1.32 -4 4.5c-.19.2-.45.32-.72.33 -.28 0-.55-.1-.74-.3l-2.01-2 1.41-1.42 1.25 1.25Z"/><path d="M4.05 9.61c.43-3.45 3.37-6.12 6.94-6.12 2.81 0 5.23 1.65 6.34 4.04 .21-.03.43-.05.65-.05 2.76 0 5 2.23 5 5 0 1.29-.38 2.53-1.16 3.46 -.8.95-1.95 1.53-3.35 1.53h-4.38l2.37-2.68 1.32-1.5 -2.99-2.66 -1.33 1.49 -2.6 2.91 -.51-.51 -1.42-1.42 -2.83 2.82 1.41 1.41 .08.08H4.91c-2.21 0-4-1.8-4-4 0-1.89 1.3-3.47 3.05-3.89Z"/></g></svg>