<svg viewBox="0 0 24 24" xmlns="http://www.w3.org/2000/svg"><g fill-rule="evenodd"><path d="M8.5 15.5c-.28 0-.5.22-.5.5 0 .27.22.5.5.5 .27 0 .5-.23.5-.5 0-.28-.23-.5-.5-.5ZM6 16c0-1.39 1.11-2.5 2.5-2.5 1.38 0 2.5 1.11 2.5 2.5 0 1.38-1.12 2.5-2.5 2.5C7.11 18.5 6 17.38 6 16Z"/><path d="M15.5 12.5c-.28 0-.5.22-.5.5 0 .27.22.5.5.5 .27 0 .5-.23.5-.5 0-.28-.23-.5-.5-.5ZM13 13c0-1.39 1.11-2.5 2.5-2.5 1.38 0 2.5 1.11 2.5 2.5 0 1.38-1.12 2.5-2.5 2.5 -1.39 0-2.5-1.12-2.5-2.5Z"/><path d="M15.5 18.5c-.28 0-.5.22-.5.5 0 .27.22.5.5.5 .27 0 .5-.23.5-.5 0-.28-.23-.5-.5-.5ZM13 19c0-1.39 1.11-2.5 2.5-2.5 1.38 0 2.5 1.11 2.5 2.5 0 1.38-1.12 2.5-2.5 2.5 -1.39 0-2.5-1.12-2.5-2.5Z"/><path d="M14.35 14.43l-4 1.5 -.71-1.88 3.99-1.5 .7 1.87Z"/><path d="M13.64 19.43l-4-1.5 .7-1.88 4 1.5 -.71 1.87Z"/><path d="M4.05 9.61c.43-3.45 3.37-6.12 6.94-6.12 2.81 0 5.23 1.65 6.34 4.04 .21-.03.43-.05.65-.05 2.76 0 5 2.23 5 5 0 1.19-.21 2.42-.84 3.37 -.67 1.02-1.75 1.62-3.17 1.62h-.34c-.3-.63-.78-1.15-1.36-1.5 1.01-.62 1.69-1.73 1.69-3 0-1.94-1.57-3.5-3.5-3.5 -1.61 0-2.97 1.08-3.38 2.56l-2.1.78c-.47-.23-.99-.36-1.54-.36 -1.94 0-3.5 1.56-3.5 3.5 0 .53.12 1.04.33 1.5h-.84c-1.14 0-2.06-.48-2.67-1.27 -.59-.77-.84-1.75-.84-2.74 0-1.89 1.3-3.47 3.05-3.89Z"/></g></svg>