<svg viewBox="0 0 24 24" xmlns="http://www.w3.org/2000/svg"><g><path d="M12 18c-1.39 0-2.5 1.11-2.5 2.5 0 1.38 1.11 2.5 2.5 2.5 1.38 0 2.5-1.12 2.5-2.5 0-1.39-1.12-2.5-2.5-2.5Z"/><path d="M12 1c-1.39 0-2.5 1.11-2.5 2.5C9.5 4.88 10.61 6 12 6c1.38 0 2.5-1.12 2.5-2.5C14.5 2.11 13.38 1 12 1Z"/><path d="M17 7c-1.39 0-2.5 1.11-2.5 2.5 0 1.38 1.11 2.5 2.5 2.5 1.38 0 2.5-1.12 2.5-2.5C19.5 8.11 18.38 7 17 7Z"/><g fill-rule="evenodd"><path d="M13 5v14h-2V5h2Z"/><path d="M18 11v2c0 1.65-1.35 3-3 3h-3v-2h3c.55 0 1-.45 1-1v-2h2Z"/></g><path d="M7 5.5c1.38 0 2.5 1.11 2.5 2.5 0 1.38-1.12 2.5-2.5 2.5 -1.39 0-2.5-1.12-2.5-2.5 0-1.39 1.11-2.5 2.5-2.5Z"/><path fill-rule="evenodd" d="M6 9.5v2c0 1.65 1.34 3 3 3h3v-2H9c-.56 0-1-.45-1-1v-2H6Z"/></g></svg>