<svg viewBox="0 0 24 24" xmlns="http://www.w3.org/2000/svg"><g><path d="M6 1C4.34 1 3 2.34 3 4v1c0 1.65 1.34 3 3 3h12c1.65 0 3-1.35 3-3V4c0-1.66-1.35-3-3-3H6Z"/><g fill-rule="evenodd"><path d="M5 5v15c0 .55.44 1 1 1h12c.55 0 1-.45 1-1V5h2v15c0 1.65-1.35 3-3 3H6c-1.66 0-3-1.35-3-3V5h2Z"/><path d="M5 9v1c0 .55.44 1 1 1h12c.55 0 1-.45 1-1V9h2v1c0 1.65-1.35 3-3 3H6c-1.66 0-3-1.35-3-3V9h2Z"/><path d="M5 14.5v1c0 .55.44 1 1 1h12c.55 0 1-.45 1-1v-1h2v1c0 1.65-1.35 3-3 3H6c-1.66 0-3-1.35-3-3v-1h2Z"/></g></g></svg>