<svg viewBox="0 0 24 24" xmlns="http://www.w3.org/2000/svg"><path fill-rule="evenodd" d="M11.03 1.62c-.1-.25-.3-.45-.54-.55 -.25-.11-.52-.11-.77-.01L6.01 2.55c-.52.2-.76.78-.56 1.3l.56 1.39c-.24.2-.47.42-.68.66l-1.39-.59c-.25-.11-.52-.11-.77-.01 -.25.09-.45.29-.55.53L1.06 9.5c-.11.24-.11.51-.01.76 .09.24.29.44.53.54l1.38.58c-.02.31-.03.63-.01.94l-1.4.56c-.52.2-.76.78-.56 1.3l1.49 3.7c.09.24.29.44.53.54 .24.1.51.1.76 0l1.39-.57c.2.23.42.46.66.67l-.59 1.38c-.11.24-.11.51-.01.76 .09.24.29.44.53.54l3.67 1.55c.5.21 1.09-.03 1.31-.53l.58-1.39c.31.01.63.02.94 0l.56 1.39c.2.51.78.75 1.3.55l3.7-1.5c.51-.21.75-.79.55-1.31l-.57-1.4c.23-.21.46-.43.67-.67l1.38.58c.5.21 1.09-.03 1.31-.53l1.55-3.68c.1-.25.1-.52 0-.77s-.3-.45-.54-.55l-1.39-.59c.01-.32.02-.64 0-.95l1.39-.57c.51-.21.75-.79.55-1.31l-1.5-3.71c-.1-.25-.3-.45-.54-.55 -.25-.11-.52-.11-.77-.01l-1.4.56c-.21-.24-.43-.47-.67-.68l.58-1.39c.21-.51-.03-1.1-.53-1.32L14.2.86c-.25-.11-.52-.11-.77-.01 -.25.09-.45.29-.55.53l-.59 1.38c-.32-.02-.64-.03-.95-.01l-.57-1.4Zm-.04 11.37c0-.56-.45-1-1-1 0 .55.44 1 1 1Zm-1.01-3c-.32-.42-.5-.94-.5-1.5 0-.46.18-.9.34-1.2 .17-.34.39-.67.59-.95 .2-.29.4-.54.55-.72 .07-.1.13-.17.18-.22 .02-.03.04-.05.05-.07l.01-.02 0-.01 0-.01 0-.01 0-.01c0-.01 0-.01.74.66 .74-.67.74-.67.74-.67l0 0 0 0 0 0 0 0 .01.01c.01.01.03.03.05.06 .04.05.1.12.18.21 .15.18.35.43.55.71 .2.28.42.61.59.94 .15.3.34.74.34 1.19 0 .56-.19 1.08-.5 1.5h.99c.55 0 1 .44 1 1v1c0 .77-.3 1.48-.79 2.02 .44.09.78.49.78.97v1c0 1.65-1.35 3-3 3v1h-2v-1c-1.66 0-3-1.35-3-3v-1c0-.48.33-.88.78-.98 -.49-.54-.79-1.25-.79-2.03v-1c0-.56.44-1 1-1h.99Zm2-4l-.75-.67c.18-.22.46-.34.74-.34 .28 0 .55.12.74.33l-.75.66Zm2 6c0 .55-.45 1-1 1 0-.56.44-1 1-1Zm0 4c0 .55-.45 1-1 1 0-.56.44-1 1-1Zm-3 1c0-.56-.45-1-1-1 0 .55.44 1 1 1Zm.62-8.79c.09-.19.22-.4.37-.61l-.5.87c.01-.05.04-.13.11-.27Zm-.13.28l.49-.9c.14.21.28.42.37.6 .08.16.11.25.11.28 0 0 0 0 0 0 0-.01 0-.01 0-.01 -.01.27-.23.49-.5.49 -.28 0-.5-.22-.5-.5 0 0 0 0 0 0s0 0 0 0 0-.01 0-.01Zm0 0l-.01 0c-.01-.01-.01-.01-.01-.01 0-.01 0-.01 0-.01l0-.02c-.01 0-.01.01-.01.01 -.01 0-.01 0-.01 0Z"/></svg>