<svg viewBox="0 0 24 24" xmlns="http://www.w3.org/2000/svg"><path fill-rule="evenodd" d="M5.05 1.68c.13-.41.51-.69.94-.69h12c.43 0 .81.27.94.68l.77 2.31h-3.02l-.21-2.1 -1.99.19 .19 1.9h-1.7v-2h-2v2h-1.7l.19-1.91 -2-.2 -.21 2.09H4.23L5 1.63ZM3.84 5.99l-.55 3.8c-.21 1.45-.21 2.93 0 4.38l.54 3.808h3.24l-.56-5.56c-.03-.3-.03-.6 0-.9l.55-5.56H3.81Zm.43 14l.77 2.31c.13.4.51.68.94.68h12c.43 0 .81-.28.94-.69l.77-2.32h-3.02l-.21 2.09 -1.99-.2 .19-1.91h-1.7v2h-2v-2h-1.7l.19 1.9 -2 .19 -.21-2.1H4.22Zm15.87-2l.54-3.808c.2-1.46.2-2.94 0-4.39l-.55-3.81h-3.25l.55 5.55c.02.29.02.59 0 .89l-.56 5.55h3.24ZM8.51 11.74l.57-5.76h1.89v12h-1.9l-.58-5.76c-.02-.17-.02-.34 0-.5Zm4.47 6.24v-12h1.89l.57 5.75c.01.16.01.33 0 .49l-.58 5.75h-1.9Z"/></svg>