<svg viewBox="0 0 24 24" xmlns="http://www.w3.org/2000/svg"><g fill-rule="evenodd"><path d="M16.5 6.5c-1.66 0-3 1.34-3 3v1c0 .55.44 1 1 1h3c1.65 0 3-1.35 3-3v-1c0-.56-.45-1-1-1h-3Z"/><path d="M7.5 6.5c1.65 0 3 1.34 3 3v1c0 .55-.45 1-1 1h-3c-1.66 0-3-1.35-3-3v-1c0-.56.44-1 1-1h3Z"/><path d="M12.56 12.17c-.35-.24-.8-.24-1.14 0l-2.75 1.89H4.48c-.56 0-1 .44-1 1 0 4.44 3.88 7.92 8.5 7.92 4.61 0 8.5-3.48 8.5-7.93 0-.56-.45-1-1-1h-4.19l-2.75-1.9Zm-.57-6.18c.55 0 1 .44 1 1v3.23l.98-.6 1.029 1.71 -2.02 1.2v.93 2.23l2.48 1.39 -.98 1.74 -1.52-.85v.97h-2v-.98l-1.52.84 -.98-1.75 2.48-1.4v-2.24 -.94l-2.02-1.21L9.94 9.54l.98.59V6.89c0-.56.44-1 1-1Z"/><path d="M12 2l.72-.7c-.19-.2-.45-.31-.73-.31 -.28 0-.54.11-.73.3l.72.69Zm0 0c.72-.7.72-.7.72-.7l0 0 0 0 0 0 0 0 .01.02c.01.01.04.04.06.07 .05.06.14.15.24.26 .19.22.46.53.73.88 .26.34.54.74.77 1.15 .2.36.43.88.43 1.4 0 1.64-1.41 2.875-3 2.875 -1.6 0-3-1.23-3-2.875 0-.53.23-1.04.43-1.41 .22-.41.5-.81.77-1.16 .26-.35.53-.67.73-.89 .09-.12.18-.21.24-.27 .02-.04.05-.06.06-.08l.01-.03 0-.01 0-.01 0-.01 0-.01c0-.01 0-.01.72.69Z"/></g></svg>