<svg viewBox="0 0 24 24" xmlns="http://www.w3.org/2000/svg"><g fill-rule="evenodd"><path d="M4.99 12c0 2.22 1.09 4.21 2.8 5.46 .29.21.6.4.93.57L7.8 19.8c-.43-.22-.83-.47-1.21-.75 -2.2-1.61-3.63-4.18-3.63-7.08 0-4.9 4.05-8.82 9-8.82v2c-3.9 0-7.01 3.07-7.01 6.81Zm7 6.81c3.89 0 7-3.08 7-6.82 0-2.61-1.51-4.88-3.73-6.03l.91-1.78c2.85 1.47 4.81 4.4 4.81 7.8 0 4.89-4.06 8.81-9.01 8.81v-2Z"/><path d="M11.1 4.21L8.72 2.86l.98-1.75 3.26 1.84c.23.13.4.35.47.61 .06.25.03.53-.11.76l-1.89 3.19L9.7 6.49l1.36-2.32Z"/><path d="M10.54 20.41c-.07-.26-.04-.54.1-.77l1.88-3.2 1.72 1.01 -1.37 2.31 2.37 1.34 -.99 1.74 -3.27-1.85c-.24-.14-.41-.36-.48-.62Z"/><path d="M15.49 8.5l-.08-1c.29-.03.57.08.78.29 .2.2.31.49.29.78l-1-.08Zm.99.07c0-.01 0-.01-1-.08 -.08-1-.08-1-.08-1l-.01 0 -.01 0 -.01 0 -.02 0 -.05 0c-.04 0-.09 0-.15.01 -.13.01-.31.03-.53.05 -.44.05-1.05.13-1.69.25 -.64.11-1.35.28-1.98.49 -.61.2-1.28.5-1.74.96 -.76.75-1.18 1.71-1.18 2.7 0 .99.41 1.95 1.17 2.7 .75.75 1.71 1.17 2.7 1.17 .99 0 1.95-.42 2.7-1.18 .46-.47.76-1.14.96-1.74 .21-.64.37-1.34.49-1.98 .11-.65.2-1.25.25-1.69 .02-.23.04-.41.05-.53 0-.07.01-.12.01-.15l0-.05 0-.02 0-.01 0-.01v-.01Z"/><path d="M8.7 16.7l1.99-2 -1.42-1.42 -2 2 1.41 1.41Z"/></g></svg>