<svg viewBox="0 0 24 24" xmlns="http://www.w3.org/2000/svg"><g fill-rule="evenodd"><path d="M8.68 4.55c.2-.07.42-.07.63 0l2.99 1c.14.04.28.13.39.24l3.99 4 -1.42 1.41 -3.84-3.84 -2.46-.82 -2.46.81 -3.84 3.83 -1.42-1.42 4-4c.1-.11.24-.2.39-.25l3-1Z"/><path d="M14 11.5c-.56 0-1 .44-1 1v6c0 .55.44 1 1 1h8c.55 0 1-.45 1-1v-6c0-.56-.45-1-1-1h-8Z"/><path d="M8.68 4.55c.2-.07.42-.07.63 0l2.99 1c.14.04.28.13.39.24l2 2c.18.18.29.44.29.7v10c0 .55-.45 1-1 1h-3c-.56 0-1-.45-1-1v-3h-2v3c0 .55-.45 1-1 1h-3c-.56 0-1-.45-1-1v-10c0-.27.1-.52.29-.71l2-2c.1-.11.24-.2.39-.25l3-1Zm-2.19 5.94c0-1.39 1.11-2.5 2.5-2.5 1.38 0 2.5 1.11 2.5 2.5 0 1.38-1.12 2.5-2.5 2.5 -1.39 0-2.5-1.12-2.5-2.5Z"/></g></svg>