<svg viewBox="0 0 24 24" xmlns="http://www.w3.org/2000/svg"><g fill-rule="evenodd"><path d="M7.7 13.29c-.4-.4-1.03-.4-1.42 0l-5 5c-.4.39-.4 1.02 0 1.41l3 3c.39.39 1.02.39 1.41 0l4.99-5c.39-.4.39-1.03 0-1.42l-3-3Z"/><path d="M16.29 13.29c.39-.4 1.02-.4 1.41 0l5 5c.39.39.39 1.02 0 1.41l-3 3c-.4.39-1.03.39-1.42 0l-5-5c-.4-.4-.4-1.03 0-1.42l3-3Z"/><path d="M19.293 1.29c.39-.4 1.02-.4 1.41 0l.58.58c1.17 1.17 1.17 3.07 0 4.24l-6.59 6.58 -1.42-1.42 6.58-6.59c.34-.35.38-.9.11-1.29l-7.29 7.28 -1.42-1.42 8-8Zm-8.59 11.41l-2.51 2.5 -1.42-1.42 2.5-2.5 1.41 1.41Zm2 2l-2.5 2.5 -1.42-1.42 2.5-2.5 1.41 1.41Z"/><path d="M4.7 1.29c-.4-.4-1.03-.4-1.42 0l-.59.58c-1.18 1.17-1.18 3.07 0 4.24l6.58 6.58 1.41-1.42 -6.59-6.59c-.35-.35-.39-.9-.12-1.29l7.28 7.28 1.41-1.42 -8-8Zm8.58 11.41l2.5 2.5 1.41-1.42 -2.5-2.5 -1.42 1.41Zm-2 2l2.5 2.5 1.41-1.42 -2.5-2.5 -1.42 1.41Z"/><path d="M12 9c-1.66 0-3 1.34-3 3 0 1.65 1.34 3 3 3 1.65 0 3-1.35 3-3 0-1.66-1.35-3-3-3Z"/></g></svg>