<svg viewBox="0 0 24 24" xmlns="http://www.w3.org/2000/svg"><g fill-rule="evenodd"><path d="M7 1.5c2.2 0 4 1.79 4 4v2c0 .55-.45 1-1 1H6c-2.21 0-4-1.8-4-4v-2c0-.56.44-1 1-1h4Z"/><path d="M12 8.08l1.29-1.3 1.41 1.41 -1.71 1.7v3.08h-2V9.88L9.28 8.17l1.41-1.42 1.29 1.29Z"/><path d="M17 1.5c-2.21 0-4 1.79-4 4v2c0 .55.44 1 1 1h4c2.2 0 4-1.8 4-4v-2c0-.56-.45-1-1-1h-4Z"/><path d="M5 12c-.56 0-1 .44-1 1v3c0 .55.44 1 1 1h14c.55 0 1-.45 1-1v-3c0-.56-.45-1-1-1H5Z"/><path d="M6.5 15c-.3 0-.58.12-.77.35 -.2.22-.28.52-.23.81l1 6c.08.48.49.83.98.83h8.99c.48 0 .9-.36.98-.84l1-6c.04-.29-.04-.59-.23-.82 -.19-.23-.47-.36-.77-.36h-11Z"/></g></svg>