<svg viewBox="0 0 24 24" xmlns="http://www.w3.org/2000/svg"><g fill-rule="evenodd"><path d="M17.53 6.12c-1.96-1.96-5.12-1.96-7.08 0L2.86 13.7c-.57.56-.88 1.32-.88 2.12v3l-.64 1.89c-.4 1.17.72 2.28 1.89 1.89l1.89-.64h3c.79 0 1.55-.32 2.12-.88l7.58-7.59c1.95-1.96 1.95-5.12 0-7.08l-.35-.35Z"/><path d="M16.5 3c-.28 0-.5.22-.5.5V6h-2V3.5C14 2.11 15.11 1 16.5 1c.9 0 1.7.48 2.14 1.2l.4-.33c.86-.7 2.12-.63 2.91.16 .78.78.85 2.04.16 2.91l-.33.4c.72.43 1.2 1.23 1.2 2.14 0 1.38-1.12 2.5-2.5 2.5h-2.5v-2h2.5c.27 0 .5-.23.5-.5 0-.28-.23-.5-.5-.5h-.5c-.39 0-.74-.23-.91-.57 -.17-.35-.12-.76.12-1.06l1.33-1.68c.05-.08.05-.18-.02-.25s-.18-.08-.25-.02l-1.68 1.33c-.31.24-.72.28-1.06.12 -.35-.17-.57-.52-.57-.91v-.5c0-.28-.23-.5-.5-.5Z"/></g></svg>