<svg viewBox="0 0 24 24" xmlns="http://www.w3.org/2000/svg"><g fill-rule="evenodd"><path d="M6 8c-.56 0-1 .44-1 1v4c0 .55.44 1 1 1h2v4c0 .55.44 1 1 1h6c.55 0 1-.45 1-1v-4h2c.55 0 1-.45 1-1V9c0-.56-.45-1-1-1H6Z"/><path d="M9.5 4h-1v1c0 1.93 1.56 3.5 3.5 3.5 1.93 0 3.5-1.57 3.5-3.5V4h-1 -5Z"/><path d="M12.51 1.14c-.32-.2-.72-.2-1.029 0l-5.01 3c-.39.23-.57.69-.45 1.12 .11.43.51.73.96.73h10c.44 0 .84-.3.96-.74s-.07-.9-.45-1.13l-5-3Z"/><path d="M11 22v-4h2v4h-2Z"/><path d="M2 9h4v2H2V9Zm20 2h-4V9h4v2Z"/></g></svg>