<svg viewBox="0 0 24 24" xmlns="http://www.w3.org/2000/svg"><path fill-rule="evenodd" d="M4 1c-.33 0-.63.15-.82.41 -.19.26-.24.59-.14.9l.94 2.84v13.67l-.95 2.84c-.11.3-.06.64.13.9 .18.26.48.41.81.41h16c.31 0 .61-.16.8-.41 .18-.26.24-.59.15-.89l-.96-3.08V5.12l.94-2.85c.1-.31.05-.65-.14-.91 -.19-.27-.49-.42-.82-.42h-16Zm4.33 6.78c0-.01 0-.01.89.44 -.45-.9-.45-.9-.45-.9l0-.01 0-.01 0-.01 0-.01 .02-.02c.02-.01.04-.03.07-.04 .06-.03.14-.06.24-.1 .2-.07.48-.15.82-.18 .68-.07 1.63.06 2.43.86 .79.79.92 1.74.86 2.43 -.04.33-.11.62-.18.82 -.04.1-.07.18-.1.24 -.02.03-.03.05-.04.07l-.02.02 -.01 0 -.01 0 -.01 0 -.01 0c-.01 0-.01 0-.9-.45 .44.89.44.89.44.89l-.01 0 -.01 0 -.01 0 -.01 0 -.03.01c-.02 0-.05.02-.08.03 -.07.02-.15.05-.25.09 -.21.06-.49.14-.83.17 -.69.06-1.64-.07-2.44-.87s-.93-1.75-.87-2.44c.03-.34.1-.63.17-.83 .03-.11.06-.19.09-.25 .01-.04.02-.06.03-.08l.01-.03 0-.01 0-.01 0-.01 0-.01Zm3.72 3.27l.89.44c-.1.19-.26.35-.45.44l-.45-.9ZM8.77 7.32l.44.89 -.9-.45c.09-.2.25-.36.44-.45Zm6.27 5.89c.89-.45.89-.45.89-.45l0 0 0 0 0 0 0 0 .01.02c0 .02.02.04.03.07 .02.06.05.14.09.24 .06.2.14.48.17.82 .06.68-.07 1.63-.87 2.43 -.8.79-1.75.92-2.44.86 -.34-.04-.63-.11-.83-.18 -.11-.04-.19-.07-.25-.1 -.04-.02-.06-.03-.08-.04l-.03-.02 -.01-.01 -.01-.01 -.01-.01 -.01-.01c-.01-.01-.01-.01.44-.9 -.9.44-.9.44-.9.44l-.01-.01 -.01-.01 -.01-.01 -.01-.01 -.02-.03c-.01-.02-.03-.05-.04-.08 -.03-.07-.06-.15-.1-.25 -.07-.21-.15-.49-.18-.83 -.07-.69.06-1.64.86-2.44 .79-.8 1.74-.93 2.43-.87 .33.03.62.1.82.17 .1.03.18.06.24.09 .03.01.05.02.07.03l.02.01 0 0 0 0 0 0 0 0s0 0-.45.89Zm-2.83 2.82l-.45.89c-.2-.1-.36-.26-.45-.45l.89-.45Zm3.72-3.28l-.9.44 .44-.9c.19.09.35.25.44.44Z"/></svg>