<svg viewBox="0 0 24 24" xmlns="http://www.w3.org/2000/svg"><path fill-rule="evenodd" d="M5 4c0-1.66 1.34-3 3-3h8c1.65 0 3 1.34 3 3v16c0 1.65-1.35 3-3 3H8c-1.66 0-3-1.35-3-3V4Zm8.5 16.5v-2h-3v2h3Zm2-13.01l-.08-1c.29-.03.57.08.78.29 .2.2.31.49.29.78l-1-.08Zm-5.42 6.83c.58.35 1.24.54 1.91.54 .99 0 1.95-.42 2.7-1.18 .46-.47.76-1.14.96-1.74 .21-.64.37-1.34.49-1.98 .11-.65.2-1.25.25-1.69 .02-.23.04-.41.05-.53 0-.07.01-.12.01-.15l0-.05 0-.02 0-.01 0-.01v-.01c0-.01 0-.01-1-.08 -.08-1-.08-1-.08-1l-.01 0 -.01 0 -.01 0 -.02 0 -.05 0c-.04 0-.09 0-.15.01 -.13.01-.31.03-.53.05 -.44.05-1.05.13-1.69.25 -.64.11-1.35.28-1.98.49 -.61.2-1.28.5-1.74.96C8.42 8.92 8 9.88 8 10.87c0 .67.19 1.32.54 1.91l-1.38 1.37 1.41 1.41 1.37-1.38Z"/></svg>