<svg viewBox="0 0 24 24" xmlns="http://www.w3.org/2000/svg"><path fill-rule="evenodd" d="M8 1C6.34 1 5 2.34 5 4v16c0 1.65 1.34 3 3 3h8c1.65 0 3-1.35 3-3V4c0-1.66-1.35-3-3-3H8Zm5.5 17.5v2h-3v-2h3Zm-2.5-7c0-.56-.45-1-1-1 0 .55.44 1 1 1Zm-1.01-3h-1c-.56 0-1 .44-1 1v1c0 .77.29 1.48.78 2.02 -.45.09-.79.49-.79.97v1c0 1.65 1.34 3 3 3h1 1c1.65 0 3-1.35 3-3v-1c0-.48-.34-.88-.79-.98 .48-.54.78-1.25.78-2.03v-1c0-.56-.45-1-1-1h-1c.31-.42.49-.94.49-1.5 0-.46-.19-.9-.35-1.2 -.18-.34-.4-.67-.6-.95 -.21-.29-.41-.54-.56-.72 -.08-.1-.14-.17-.19-.22 -.03-.03-.05-.05-.06-.07l-.02-.02 -.01-.01 -.01-.01 -.01-.01 -.01-.01c0-.01-.01-.01-.75.66l.74-.67c-.19-.22-.47-.34-.75-.34 -.29 0-.56.12-.75.33l.74.66c-.75-.67-.75-.67-.75-.67l-.01 0 -.01 0 -.01 0 -.01 0 -.02.01c-.02.01-.04.03-.06.06 -.05.05-.11.12-.19.21 -.16.18-.36.43-.56.71 -.21.28-.43.61-.6.94 -.16.3-.35.74-.35 1.19 0 .56.18 1.08.49 1.5Zm1 7c0-.56-.45-1-1-1 0 .55.44 1 1 1Zm3-1c0 .55-.45 1-1 1 0-.56.44-1 1-1Zm0-4c0 .55-.45 1-1 1 0-.56.44-1 1-1Zm-2.38-3.79c.09-.19.22-.4.37-.61l-.5.87c.01-.05.04-.13.11-.27Zm-.13.28l.49-.9c.14.21.28.42.37.6 .08.16.11.25.11.28 0 0 0 0 0 0 0-.01 0-.01 0-.01 -.01.27-.23.49-.5.49 -.28 0-.5-.22-.5-.5 0 0 0 0 0 0s0-.01 0-.01Zm0 0l-.01 0c-.01-.01-.01-.01-.01-.01v-.01l0-.02c-.01 0-.01.01-.01.01 -.01 0-.01 0-.01 0Z"/></svg>