<svg viewBox="0 0 24 24" xmlns="http://www.w3.org/2000/svg"><g fill-rule="evenodd"><path d="M16.5 2c-1.66 0-3 1.34-3 3v1c0 .55.44 1 1 1h3c1.65 0 3-1.35 3-3V3c0-.56-.45-1-1-1h-3Z"/><path d="M7.5 3.5c1.65 0 3 1.34 3 3v1c0 .55-.45 1-1 1h-3c-1.66 0-3-1.35-3-3v-1c0-.56.44-1 1-1h3Z"/><path d="M11.48 9.85l-2.5-1.5L10 6.63l2.5 1.5 -1.029 1.71Z"/><path d="M12.56 11.17c-.35-.24-.8-.24-1.14 0l-2.75 1.89H4.48c-.56 0-1 .44-1 1 0 4.44 3.88 7.92 8.5 7.92 4.61 0 8.5-3.48 8.5-7.93 0-.56-.45-1-1-1h-4.19l-2.75-1.9Zm1.43-4.18c-.56 0-1 .44-1 1v6.73l2.48 1.39 -.98 1.74 -1.52-.85v.97h-2v-.98l-1.52.84 -.98-1.75 2.48-1.4V7.94c0-1.66 1.34-3 3-3h1v2h-1Z"/></g></svg>