<svg viewBox="0 0 24 24" xmlns="http://www.w3.org/2000/svg"><g fill-rule="evenodd"><path d="M11 10.5c0-1.66 1.34-3 3-3h2c.55 0 1 .44 1 1v2c0 1.65-1.35 3-3 3h-2c-.56 0-1-.45-1-1v-2Zm3-1c-.56 0-1 .44-1 1v1h1c.55 0 1-.45 1-1v-1h-1Z"/><path d="M13 10.5c0-1.66-1.35-3-3-3H8c-.56 0-1 .44-1 1v2c0 1.65 1.34 3 3 3h2c.55 0 1-.45 1-1v-2Zm-3-1c.55 0 1 .44 1 1v1h-1c-.56 0-1-.45-1-1v-1h1Z"/><path d="M11 16c0-1.66 1.34-3 3-3h2c.55 0 1 .44 1 1v2c0 1.65-1.35 3-3 3h-2c-.56 0-1-.45-1-1v-2Zm3-1c-.56 0-1 .44-1 1v1h1c.55 0 1-.45 1-1v-1h-1Z"/><path d="M13 16c0-1.66-1.35-3-3-3H8c-.56 0-1 .44-1 1v2c0 1.65 1.34 3 3 3h2c.55 0 1-.45 1-1v-2Zm-3-1c.55 0 1 .44 1 1v1h-1c-.56 0-1-.45-1-1v-1h1Z"/><path d="M11 22V7h2v15h-2Z"/><path d="M12 2l.72-.7c-.19-.2-.45-.31-.73-.31 -.28 0-.54.11-.73.3l.72.69Zm0 0c.72-.7.72-.7.72-.7l0 0 0 0 0 0 0 0 .01.02c.01.01.04.04.06.07 .05.06.14.15.24.26 .19.22.46.53.73.88 .26.34.54.74.77 1.15 .2.36.43.88.43 1.4 0 1.64-1.41 2.875-3 2.875 -1.6 0-3-1.23-3-2.875 0-.53.23-1.04.43-1.41 .22-.41.5-.81.77-1.16 .26-.35.53-.67.73-.89 .09-.12.18-.21.24-.27 .02-.04.05-.06.06-.08l.01-.03 0-.01 0-.01 0-.01 0-.01c0-.01 0-.01.72.69Z"/></g></svg>