<svg viewBox="0 0 24 24" xmlns="http://www.w3.org/2000/svg"><path fill="#FFC44D" d="M2 2.2c-.42 0-.75.33-.75.75v17.14c0 .41.33.75.75.75h17c.2 0 .39-.09.53-.23 .14-.15.21-.35.21-.55l.14-12.38V5.42c0-.42-.34-.75-.75-.75h-9.9l-1.5-2.18c-.14-.21-.38-.33-.62-.33H1.96Z"/><path fill="#ECEFF1" d="M15.8 8.86c-3.84 0-6.95 3.1-6.95 6.94 0 3.83 3.1 6.94 6.94 6.94 3.83 0 6.94-3.11 6.94-6.95 0-3.84-3.11-6.95-6.95-6.95Z"/><path fill="#8BC94D" fill-rule="evenodd" d="M19.67 13.37c.29.29.29.76 0 1.06l-4.29 4.28c-.3.29-.77.29-1.07 0l-2.39-2.39c-.3-.3-.3-.77 0-1.07 .29-.3.76-.3 1.06 0l1.85 1.85 3.75-3.76c.29-.3.76-.3 1.06 0Z"/></svg>