<svg viewBox="0 0 24 24" xmlns="http://www.w3.org/2000/svg"><path fill="#FFC44D" d="M2 3.05c-.42 0-.75.33-.75.75v16.19c0 .41.33.75.75.75h20c.41 0 .75-.34.75-.75V6.65c0-.42-.34-.75-.75-.75H10.49L8.8 3.37c-.14-.21-.38-.34-.63-.34h-6.2Z"/><path fill="#ECEFF1" d="M12 8.29c-2.79 0-5.04 2.25-5.04 5.03 0 2.78 2.25 5.03 5.03 5.03 2.78 0 5.03-2.26 5.03-5.04 0-2.79-2.26-5.04-5.04-5.04Z"/><path fill="#FFC44D" d="M11.99 11.15c-1.21 0-2.18.97-2.18 2.17s.97 2.17 2.17 2.17 2.17-.98 2.17-2.18c0-1.21-.98-2.18-2.18-2.18Z"/></svg>