<svg viewBox="0 0 24 24" xmlns="http://www.w3.org/2000/svg"><path fill="#FFC44D" d="M2 3.05c-.42 0-.75.33-.75.75v16.19c0 .41.33.75.75.75h20c.41 0 .75-.34.75-.75V6.65c0-.42-.34-.75-.75-.75H10.49L8.8 3.37c-.14-.21-.38-.34-.63-.34h-6.2Z"/><g fill="#ECEFF1" fill-rule="evenodd"><path d="M8.86 16.66c0-.42.33-.75.75-.75h4.76c.41 0 .75.33.75.75 0 .41-.34.75-.75.75H9.6c-.42 0-.75-.34-.75-.75Z"/><path d="M12 8.77c.41 0 .75.33.75.75v4.76c0 .41-.34.75-.75.75 -.42 0-.75-.34-.75-.75V9.51c0-.42.33-.75.75-.75Z"/><path d="M8.98 11.38c.28-.3.76-.31 1.06-.02l1.94 1.86 1.86-1.87c.29-.3.76-.3 1.06 0 .29.29.29.76 0 1.06l-2.39 2.38c-.29.28-.76.29-1.06 0L8.97 12.4c-.3-.29-.31-.77-.02-1.07Z"/></g></svg>