<svg viewBox="0 0 24 24" xmlns="http://www.w3.org/2000/svg"><path fill="#FFC44D" d="M2 1.7c-.42 0-.75.33-.75.75v17.14c0 .41.33.75.75.75h17c.2 0 .39-.09.53-.23 .14-.15.21-.35.21-.55l.14-12.38V4.92c0-.42-.34-.75-.75-.75h-9.9l-1.5-2.18c-.14-.21-.38-.33-.62-.33H1.96Z"/><path fill="#ECEFF1" d="M13.42 11.25c-.42 0-.75.33-.75.75v3.33c0 .22.09.43.26.57l2.58 2.15v3.45c0 .24.11.46.31.6 .19.14.44.17.67.1l2.85-.96c.3-.11.51-.39.51-.72v-2.51l2.58-2.16c.17-.15.26-.36.26-.58v-3.34c0-.42-.34-.75-.75-.75h-8.58Z"/></svg>