<svg viewBox="0 0 24 24" xmlns="http://www.w3.org/2000/svg"><path fill="#FFC44D" d="M2 3.05c-.42 0-.75.33-.75.75v16.19c0 .41.33.75.75.75h20c.41 0 .75-.34.75-.75V6.65c0-.42-.34-.75-.75-.75H10.49L8.8 3.37c-.14-.21-.38-.34-.63-.34h-6.2Z"/><g fill="#ECEFF1" fill-rule="evenodd"><path d="M12.23 9.01c-.42 0-.75.33-.75.75v7.14c0 .41.33.75.75.75 .41 0 .75-.34.75-.75V9.75c0-.42-.34-.75-.75-.75Z"/><path d="M8.85 13.14c.29.29.76.29 1.06 0l2.32-2.33 2.32 2.32c.29.29.76.29 1.06 0 .29-.3.29-.77 0-1.07L12.75 9.2c-.3-.3-.77-.3-1.07 0l-2.86 2.85c-.3.29-.3.76 0 1.06Z"/></g></svg>