<svg viewBox="0 0 24 24" xmlns="http://www.w3.org/2000/svg"><path fill="#FFC44D" d="M2 1.75c-.42 0-.75.33-.75.75v17.14c0 .41.33.75.75.75h17.14c.41 0 .75-.34.75-.75V4.99c0-.42-.34-.75-.75-.75h-9.9l-1.5-2.18c-.14-.21-.38-.33-.62-.33H1.97Z"/><path fill="#ECEFF1" d="M12.16 12.22c-2.35 0-4.25 1.9-4.25 4.25v1.57c0 2.34 1.9 4.25 4.25 4.25h6.33c2.34 0 4.25-1.91 4.25-4.25v-1.58c0-2.35-1.91-4.25-4.25-4.25h-6.34Z"/><g fill="#5E94FF" fill-rule="evenodd"><path d="M12.95 14.6c.41 0 .75.33.75.75v3.8c0 .41-.34.75-.75.75 -.42 0-.75-.34-.75-.75v-3.81c0-.42.33-.75.75-.75Z"/><path d="M10.29 17.26c0-.42.33-.75.75-.75h3.8c.41 0 .75.33.75.75 0 .41-.34.75-.75.75h-3.81c-.42 0-.75-.34-.75-.75Z"/><path d="M17.44 15.83c0-.42.33-.75.75-.75h1.42c.41 0 .75.33.75.75 0 .41-.34.75-.75.75h-1.43c-.42 0-.75-.34-.75-.75Z"/><path d="M16.48 18.69c0-.42.33-.75.75-.75h1.42c.41 0 .75.33.75.75 0 .41-.34.75-.75.75h-1.43c-.42 0-.75-.34-.75-.75Z"/></g></svg>