<svg viewBox="0 0 24 24" xmlns="http://www.w3.org/2000/svg"><path fill="#FFC44D" d="M2 3.05c-.42 0-.75.33-.75.75v16.19c0 .41.33.75.75.75h20c.41 0 .75-.34.75-.75V6.65c0-.42-.34-.75-.75-.75H10.49L8.8 3.37c-.14-.21-.38-.34-.63-.34h-6.2Z"/><g fill="#ECEFF1"><path d="M9.14 12.1c-.42 0-.75.33-.75.75v3.8c0 .41.33.75.75.75h5.71c.41 0 .75-.34.75-.75v-3.81c0-.42-.34-.75-.75-.75H9.13Z"/><path fill="#ECEFF1" fill-rule="evenodd" d="M9.34 11.9c0-1.47 1.18-2.66 2.65-2.66 1.46 0 2.65 1.18 2.65 2.65v.95c0 .41-.34.75-.75.75h-3.81c-.42 0-.75-.34-.75-.75v-.96Zm2.65-1.16c-.64 0-1.16.51-1.16 1.15v.2h2.3v-.21c0-.64-.52-1.16-1.16-1.16Z"/></g></svg>