<svg viewBox="0 0 24 24" xmlns="http://www.w3.org/2000/svg"><path fill="#FFC44D" d="M2 1.7c-.42 0-.75.33-.75.75v17.14c0 .41.33.75.75.75h17c.2 0 .39-.09.53-.23 .14-.15.21-.35.21-.55l.14-12.38V4.92c0-.42-.34-.75-.75-.75h-9.9l-1.5-2.18c-.14-.21-.38-.33-.62-.33H1.96Z"/><path fill="#ECEFF1" d="M15.8 8.36c-3.84 0-6.95 3.1-6.95 6.94 0 3.83 3.1 6.94 6.94 6.94 3.83 0 6.94-3.11 6.94-6.95 0-3.84-3.11-6.95-6.95-6.95Z"/><path fill="#8B98A6" fill-rule="evenodd" d="M13.15 13.4c0-1.47 1.18-2.66 2.65-2.66 1.46 0 2.65 1.18 2.65 2.65v.95c0 .41-.34.75-.75.75h-3.81c-.42 0-.75-.34-.75-.75v-.96Zm2.65-1.16c-.64 0-1.16.51-1.16 1.15v.2h2.3v-.21c0-.64-.52-1.16-1.16-1.16Z"/><path fill="#FFC44D" d="M12.95 13.6c-.42 0-.75.33-.75.75v3.8c0 .41.33.75.75.75h5.71c.41 0 .75-.34.75-.75v-3.81c0-.42-.34-.75-.75-.75h-5.72Z"/></svg>