<svg viewBox="0 0 24 24" xmlns="http://www.w3.org/2000/svg"><path fill="#FFC44D" d="M2 3.05c-.42 0-.75.33-.75.75v16.19c0 .41.33.75.75.75h20c.41 0 .75-.34.75-.75V6.65c0-.42-.34-.75-.75-.75H10.49L8.8 3.37c-.14-.21-.38-.34-.63-.34h-6.2Z"/><path fill="#EE4D4D" d="M10.57 8.29c-.42 0-.75.33-.75.75v2.1H7.71c-.42 0-.75.33-.75.75v2.85c0 .41.33.75.75.75h2.1v2.1c0 .41.33.75.75.75h2.85c.41 0 .75-.34.75-.75v-2.11h2.1c.41 0 .75-.34.75-.75v-2.86c0-.42-.34-.75-.75-.75h-2.11V9.01c0-.42-.34-.75-.75-.75h-2.86Z"/></svg>