<svg viewBox="0 0 24 24" xmlns="http://www.w3.org/2000/svg"><path fill="#FFC44D" d="M2 3.05c-.42 0-.75.33-.75.75v16.19c0 .41.33.75.75.75h20c.41 0 .75-.34.75-.75V6.65c0-.42-.34-.75-.75-.75H10.49L8.8 3.37c-.14-.21-.38-.34-.63-.34h-6.2Z"/><path fill="#ECEFF1" d="M13.3 8.5c-.22-.21-.54-.27-.82-.15 -.28.11-.46.38-.46.68v1.4c-3.1.18-5.56 2.75-5.56 5.89v1.26c0 .34.22.63.55.72 .32.08.67-.06.84-.36l.62-1.11c.73-1.3 2.05-2.14 3.52-2.26v1.91c0 .29.17.57.45.68 .27.11.59.06.81-.15l3.96-3.75c.14-.15.23-.34.23-.55 0-.21-.09-.41-.24-.55L13.23 8.4Z"/></svg>