<svg viewBox="0 0 24 24" xmlns="http://www.w3.org/2000/svg"><g fill="#ECEFF1" fill-rule="evenodd"><path d="M12 14.75c.41 0 .75.33.75.75v3c0 .41-.34.75-.75.75 -.42 0-.75-.34-.75-.75v-3c0-.42.33-.75.75-.75Z"/><path d="M2.25 20.5c0-.42.33-.75.75-.75h7.5c.41 0 .75.33.75.75 0 .41-.34.75-.75.75H3c-.42 0-.75-.34-.75-.75Zm10.5 0c0-.42.33-.75.75-.75H21c.41 0 .75.33.75.75 0 .41-.34.75-.75.75h-7.5c-.42 0-.75-.34-.75-.75Z"/></g><path fill="#FFC44D" d="M3 1.25c-.42 0-.75.33-.75.75v13c0 .41.33.75.75.75h18c.41 0 .75-.34.75-.75V5c0-.42-.34-.75-.75-.75H10.4L8.62 1.58c-.14-.21-.38-.34-.63-.34h-5Z"/><path fill="#8B98A6" d="M10.5 18.25c-.42 0-.75.33-.75.75v3c0 .41.33.75.75.75h3c.41 0 .75-.34.75-.75v-3c0-.42-.34-.75-.75-.75h-3Z"/></svg>