<svg viewBox="0 0 24 24" xmlns="http://www.w3.org/2000/svg"><path fill="#FFC44D" d="M2 3.05c-.42 0-.75.33-.75.75v16.19c0 .41.33.75.75.75h20c.41 0 .75-.34.75-.75V6.65c0-.42-.34-.75-.75-.75H10.49L8.8 3.37c-.14-.21-.38-.34-.63-.34h-6.2Z"/><path fill="#8B98A6" d="M12 11.15c-.42 0-.75.33-.75.75v3.8c0 .41.33.75.75.75h3.8c.41 0 .75-.34.75-.75v-3.81c0-.42-.34-.75-.75-.75h-3.81Z"/><path fill="#ECEFF1" fill-rule="evenodd" d="M6.01 15.71c0-.42.33-.75.75-.75h10.47c.41 0 .75.33.75.75 0 .41-.34.75-.75.75H6.75c-.42 0-.75-.34-.75-.75Z"/><path fill="#ECEFF1" d="M8.19 9.25c-.42 0-.75.33-.75.75v5.71c0 .41.33.75.75.75h3.8c.41 0 .75-.34.75-.75V9.99c0-.42-.34-.75-.75-.75H8.18Z"/></svg>