<svg viewBox="0 0 24 24" xmlns="http://www.w3.org/2000/svg"><g fill="#CFD8DC" fill-rule="evenodd"><path d="M5.5 7.75c.41 0 .75.33.75.75v10.25H15c.41 0 .75.33.75.75 0 .41-.34.75-.75.75H5.5c-.42 0-.75-.34-.75-.75v-11c0-.42.33-.75.75-.75Z"/><path d="M4.75 11c0-.42.33-.75.75-.75H15c.41 0 .75.33.75.75 0 .41-.34.75-.75.75H5.5c-.42 0-.75-.34-.75-.75Z"/></g><g fill="#FFC44D"><path d="M15 15.25c-.42 0-.75.33-.75.75v6c0 .41.33.75.75.75h7c.41 0 .75-.34.75-.75v-4.64c0-.42-.34-.75-.75-.75h-2.92l-.78-1.06c-.15-.2-.37-.31-.61-.31h-2.7Z"/><path d="M15 6.75c-.42 0-.75.33-.75.75v6c0 .41.33.75.75.75h7c.41 0 .75-.34.75-.75V8.86c0-.42-.34-.75-.75-.75h-2.92l-.78-1.06c-.15-.2-.37-.31-.61-.31h-2.7Z"/><path d="M2 1.25c-.42 0-.75.33-.75.75v6c0 .41.33.75.75.75h7c.41 0 .75-.34.75-.75V3.36c0-.42-.34-.75-.75-.75H6.08L5.3 1.55c-.15-.2-.37-.31-.61-.31h-2.7Z"/></g></svg>