<svg viewBox="0 0 24 24" xmlns="http://www.w3.org/2000/svg"><path fill="#FFC44D" d="M2 3.05c-.42 0-.75.33-.75.75v16.19c0 .41.33.75.75.75h20c.41 0 .75-.34.75-.75V6.65c0-.42-.34-.75-.75-.75H10.49L8.8 3.37c-.14-.21-.38-.34-.63-.34h-6.2Z"/><g fill="#ECEFF1" fill-rule="evenodd"><path d="M8.61 8.99c.29-.3.76-.3 1.06 0l2.38 2.38c.29.29.29.76 0 1.06 -.3.29-.77.29-1.07 0l-1.86-1.86 -1.86 1.85c-.3.29-.77.29-1.07 0 -.3-.3-.3-.77 0-1.07l2.38-2.39Z"/><path d="M9.14 8.77c.41 0 .75.33.75.75v5.71c0 .41-.34.75-.75.75 -.42 0-.75-.34-.75-.75V9.51c0-.42.33-.75.75-.75Z"/><path d="M14.32 17.19c.29.29.76.29 1.06 0l2.38-2.39c.29-.3.29-.77 0-1.07 -.3-.3-.77-.3-1.07 0l-1.86 1.85 -1.86-1.86c-.3-.3-.77-.3-1.07 0 -.3.29-.3.76 0 1.06l2.38 2.38Z"/><path d="M14.85 17.41c.41 0 .75-.34.75-.75v-5.72c0-.42-.34-.75-.75-.75 -.42 0-.75.33-.75.75v5.71c0 .41.33.75.75.75Z"/></g></svg>