<svg viewBox="0 0 24 24" xmlns="http://www.w3.org/2000/svg"><path fill="#FFC44D" d="M2 2.2c-.42 0-.75.33-.75.75v17.14c0 .41.33.75.75.75h17c.2 0 .39-.09.53-.23 .14-.15.21-.35.21-.55l.14-12.38V5.42c0-.42-.34-.75-.75-.75h-9.9l-1.5-2.18c-.14-.21-.38-.33-.62-.33H1.96Z"/><path fill="#ECEFF1" d="M15.8 8.86c-3.84 0-6.95 3.1-6.95 6.94 0 3.83 3.1 6.94 6.94 6.94 3.83 0 6.94-3.11 6.94-6.95 0-3.84-3.11-6.95-6.95-6.95Z"/><g fill="#5E94FF" fill-rule="evenodd"><path d="M13.17 19.14c0-.42.33-.75.75-.75h3.76c.41 0 .75.33.75.75 0 .41-.34.75-.75.75h-3.77c-.42 0-.75-.34-.75-.75Z"/><path d="M15.8 17.51c.41 0 .75-.34.75-.75v-4.77c0-.42-.34-.75-.75-.75 -.42 0-.75.33-.75.75v4.76c0 .41.33.75.75.75Z"/><path d="M12.79 14.9c.28.29.76.3 1.06.01l1.94-1.87 1.86 1.86c.29.29.76.29 1.06 0 .29-.3.29-.77 0-1.07l-2.39-2.39c-.29-.29-.76-.3-1.06-.01l-2.48 2.38c-.3.28-.31.76-.02 1.06Z"/></g></svg>