<svg viewBox="0 0 24 24" xmlns="http://www.w3.org/2000/svg"><g fill-rule="evenodd"><path d="M5 13c0-.56.44-1 1-1h2.5c2.48 0 4.5 2.01 4.5 4.5V22c0 .55-.45 1-1 1H9.5C7.01 23 5 20.98 5 18.5V13Zm2 1v4.5C7 19.88 8.11 21 9.5 21H11v-4.5c0-1.39-1.12-2.5-2.5-2.5H7Z"/><path d="M19 13c0-.56-.45-1-1-1h-2.5c-2.49 0-4.5 2.01-4.5 4.5V22c0 .55.44 1 1 1h2.5c2.48 0 4.5-2.02 4.5-4.5V13Zm-2 1v4.5c0 1.38-1.12 2.5-2.5 2.5H13v-4.5c0-1.39 1.11-2.5 2.5-2.5H17Z"/><path d="M7.5 5.5C7.5 3.01 9.51 1 12 1c2.48 0 4.5 2.01 4.5 4.5V13h-2V5.5C14.5 4.11 13.38 3 12 3c-1.39 0-2.5 1.11-2.5 2.5V13h-2V5.5Z"/><path d="M12 5h3.5v2H12V5Z"/><path d="M12 9h3.5v2H12V9Z"/></g></svg>