<svg viewBox="0 0 24 24" xmlns="http://www.w3.org/2000/svg"><g fill-rule="evenodd"><path d="M19 18c0-1.66-1.35-3-3-3h-2c-.56 0-1 .44-1 1v1c0 1.65 1.34 3 3 3h2c.55 0 1-.45 1-1v-1Zm-3-1c.55 0 1 .44 1 1h-1c-.56 0-1-.45-1-1h1Z"/><path d="M7 18c0-1.66-1.35-3-3-3H2c-.56 0-1 .44-1 1v1c0 1.65 1.34 3 3 3h2c.55 0 1-.45 1-1v-1Zm-3-1c.55 0 1 .44 1 1H4c-.56 0-1-.45-1-1h1Z"/><path d="M19 18v4h-2v-4h2Z"/><path d="M7 18v4H5v-4h2Z"/><path d="M17 18c0-1.66 1.34-3 3-3h2c.55 0 1 .44 1 1v1c0 1.65-1.35 3-3 3h-2c-.56 0-1-.45-1-1v-1Zm3-1c-.56 0-1 .44-1 1h1c.55 0 1-.45 1-1h-1Z"/><path d="M5 18c0-1.66 1.34-3 3-3h2c.55 0 1 .44 1 1v1c0 1.65-1.35 3-3 3H6c-.56 0-1-.45-1-1v-1Zm3-1c-.56 0-1 .44-1 1h1c.55 0 1-.45 1-1H8Z"/><path d="M7.5 8.5c-.28 0-.5.22-.5.5 0 .27.22.5.5.5 .27 0 .5-.23.5-.5 0-.28-.23-.5-.5-.5ZM5 9c0-1.39 1.11-2.5 2.5-2.5C8.88 6.5 10 7.61 10 9c0 1.38-1.12 2.5-2.5 2.5C6.11 11.5 5 10.38 5 9Z"/><path d="M16.5 11c-.28 0-.5.22-.5.5 0 .27.22.5.5.5 .27 0 .5-.23.5-.5 0-.28-.23-.5-.5-.5Zm-2.5.5c0-1.39 1.11-2.5 2.5-2.5 1.38 0 2.5 1.11 2.5 2.5 0 1.38-1.12 2.5-2.5 2.5 -1.39 0-2.5-1.12-2.5-2.5Z"/><path d="M12.5 3c-.28 0-.5.22-.5.5 0 .27.22.5.5.5 .27 0 .5-.23.5-.5 0-.28-.23-.5-.5-.5Zm-2.5.5C10 2.11 11.11 1 12.5 1 13.88 1 15 2.11 15 3.5 15 4.88 13.88 6 12.5 6 11.11 6 10 4.88 10 3.5Z"/></g></svg>