<svg viewBox="0 0 24 24" xmlns="http://www.w3.org/2000/svg"><g fill-rule="evenodd"><path d="M18 23H6v-2h12v2Z"/><path d="M6.61 1.07c.37-.16.8-.07 1.08.21l2.13 2.13 1.32-1.99c.18-.28.49-.45.83-.45 .33 0 .64.16.83.44l1.32 1.98 2.13-2.14c.28-.29.71-.38 1.08-.22 .37.15.61.51.61.92v3c0 3.31-2.69 6-6 6 -3.32 0-6-2.69-6-6v-3c0-.41.24-.77.61-.93ZM7.99 4.4v.58c0 2.2 1.79 4 4 4 2.2 0 4-1.8 4-4v-.59l-1.3 1.29c-.22.21-.51.31-.81.28 -.3-.03-.57-.2-.74-.45l-1.17-1.76L10.8 5.5c-.17.24-.44.41-.74.44 -.3.02-.6-.08-.81-.29l-1.3-1.3Z"/><path d="M11 22V10h2v12h-2Z"/><path d="M11 15c0-2.21 1.79-4 4-4h3c.55 0 1 .44 1 1v1c0 2.2-1.8 4-4 4h-3c-.56 0-1-.45-1-1v-1Zm4-2c-1.11 0-2 .89-2 2h2c1.1 0 2-.9 2-2h-2Z"/><path d="M13 18.5c0-2.21-1.8-4-4-4H6c-.56 0-1 .44-1 1v1c0 2.2 1.79 4 4 4h3c.55 0 1-.45 1-1v-1Zm-4-2c1.1 0 2 .89 2 2H9c-1.11 0-2-.9-2-2h2Z"/></g></svg>