<svg viewBox="0 0 24 24" xmlns="http://www.w3.org/2000/svg"><g fill-rule="evenodd"><path d="M18 23H6v-2h12v2Z"/><path d="M12 7c-.56 0-1 .44-1 1 0 .55.44 1 1 1 .55 0 1-.45 1-1 0-.56-.45-1-1-1ZM9 8c0-1.66 1.34-3 3-3 1.65 0 3 1.34 3 3 0 1.65-1.35 3-3 3 -1.66 0-3-1.35-3-3Z"/><path d="M8 6.5c-.36 0-1 .45-1 1.5 0 1.04.64 1.5 1 1.5 .35 0 1-.46 1-1.5 0-1.05-.65-1.5-1-1.5ZM5 8c0-1.72 1.14-3.5 3-3.5 1.85 0 3 1.78 3 3.5 0 1.71-1.15 3.5-3 3.5 -1.86 0-3-1.79-3-3.5Z"/><path d="M16 6.5c-.36 0-1 .45-1 1.5 0 1.04.64 1.5 1 1.5 .35 0 1-.46 1-1.5 0-1.05-.65-1.5-1-1.5ZM13 8c0-1.72 1.14-3.5 3-3.5 1.85 0 3 1.78 3 3.5 0 1.71-1.15 3.5-3 3.5 -1.86 0-3-1.79-3-3.5Z"/><path d="M12 11c-1.05 0-1.5.64-1.5 1 0 .35.45 1 1.5 1 1.04 0 1.5-.65 1.5-1 0-.36-.46-1-1.5-1Zm-3.5 1c0-1.86 1.78-3 3.5-3 1.71 0 3.5 1.14 3.5 3 0 1.85-1.79 3-3.5 3 -1.72 0-3.5-1.15-3.5-3Z"/><path d="M12 3c-1.05 0-1.5.64-1.5 1 0 .35.45 1 1.5 1 1.04 0 1.5-.65 1.5-1 0-.36-.46-1-1.5-1ZM8.5 4c0-1.86 1.78-3 3.5-3 1.71 0 3.5 1.14 3.5 3 0 1.85-1.79 3-3.5 3 -1.72 0-3.5-1.15-3.5-3Z"/><path d="M11 22v-8h2v8h-2Z"/><path d="M11 17.5c0-2.21 1.79-4 4-4h3c.55 0 1 .44 1 1v1c0 2.2-1.8 4-4 4h-3c-.56 0-1-.45-1-1v-1Zm4-2c-1.11 0-2 .89-2 2h2c1.1 0 2-.9 2-2h-2Z"/></g></svg>