<svg viewBox="0 0 24 24" xmlns="http://www.w3.org/2000/svg"><g fill-rule="evenodd"><path d="M12.29 8.29c.39-.4 1.02-.4 1.41 0l2 2c.18.18.29.44.29.7 0 .26-.11.51-.3.7l-8 8c-.4.39-1.03.39-1.42 0l-2-2c-.19-.19-.3-.45-.3-.71 0-.27.1-.52.29-.71l8-8.01Zm-5.88 8.7l.58.58 6.58-6.59 -.59-.59 -6.59 6.58Z"/><path d="M11.65 4.88l3.48-3.59 1.43 1.39 -3.49 3.58c-.39.39-.38 1.01.01 1.4l.89.89 4.29-4.3 1.41 1.41 -4.3 4.29 .87.87c.39.39 1.02.39 1.41 0l3.58-3.59 1.41 1.41 -3.59 3.58c-1.18 1.17-3.08 1.17-4.25 0l-3.2-3.2c-1.16-1.16-1.18-3.04-.04-4.22Z"/><path d="M3.42 18.01l2.56 2.56c.27-.4.23-.94-.12-1.29L4.68 18.1c-.35-.35-.9-.39-1.29-.12ZM1.87 16.7c1.17-1.18 3.07-1.18 4.24 0l1.17 1.17c1.17 1.17 1.17 3.07 0 4.24l-.59.58c-.4.39-1.03.39-1.42 0l-4-4c-.4-.4-.4-1.03 0-1.42l.58-.59Z"/></g></svg>