<svg viewBox="0 0 24 24" xmlns="http://www.w3.org/2000/svg"><g fill-rule="evenodd"><path d="M11 9c0-1.66 1.34-3 3-3h6c1.65 0 3 1.34 3 3v13c0 .55-.45 1-1 1H12c-.56 0-1-.45-1-1V9Zm3-1c-.56 0-1 .44-1 1v12h8V9c0-.56-.45-1-1-1h-6Z"/><path d="M14 2c0-.56.44-1 1-1h4c.55 0 1 .44 1 1v5c0 .55-.45 1-1 1h-4c-.56 0-1-.45-1-1V2Zm2 1v3h2V3h-2Z"/><path d="M1 8c0-.56.44-1 1-1h3c.55 0 1 .44 1 1v3c0 .55-.45 1-1 1H2c-.56 0-1-.45-1-1V8Zm2 1v1h1V9H3Z"/><path d="M2.5 8V3h2v5h-2ZM10 5c-.56 0-1 .44-1 1v12c0 1.65-1.35 3-3 3h-.5c-1.66 0-3-1.35-3-3v-7h2v7c0 .55.44 1 1 1H6c.55 0 1-.45 1-1V6c0-1.66 1.34-3 3-3h5v2h-5Z"/><path d="M17 12.5c-1.11 0-2 .89-2 2 0 1.1.89 2 2 2 1.1 0 2-.9 2-2 0-1.11-.9-2-2-2Zm-4 2c0-2.21 1.79-4 4-4 2.2 0 4 1.79 4 4 0 2.2-1.8 4-4 4 -2.21 0-4-1.8-4-4Z"/><path d="M18.21 17.62l-4-5 1.56-1.25 4 5 -1.57 1.24Z"/></g></svg>