<svg viewBox="0 0 24 24" xmlns="http://www.w3.org/2000/svg"><g fill-rule="evenodd"><path d="M11 5.5c0-2.21-1.8-4-4-4H3c-.56 0-1 .44-1 1v2c0 2.2 1.79 4 4 4h4c.55 0 1-.45 1-1v-2Zm-4-2c1.1 0 2 .89 2 2v1H6c-1.11 0-2-.9-2-2v-1h3Z"/><path d="M12 8.08l1.29-1.3 1.41 1.41 -1.71 1.7v3.08h-2V9.88L9.28 8.17l1.41-1.42 1.29 1.29Z"/><path d="M13 5.5c0-2.21 1.79-4 4-4h4c.55 0 1 .44 1 1v2c0 2.2-1.8 4-4 4h-4c-.56 0-1-.45-1-1v-2Zm4-2c-1.11 0-2 .89-2 2v1h3c1.1 0 2-.9 2-2v-1h-3Z"/><path d="M4 13c0-.56.44-1 1-1h14c.55 0 1 .44 1 1v3c0 .55-.45 1-1 1H5c-.56 0-1-.45-1-1v-3Zm2 1v1h12v-1H6Z"/><path d="M5.73 15.35c.19-.23.46-.36.76-.36h11c.29 0 .57.12.76.35 .19.22.27.52.22.81l-1 6c-.09.48-.5.83-.99.83h-9c-.49 0-.91-.36-.99-.84l-1-6c-.05-.29.03-.59.22-.82Zm1.94 1.64l.66 4h7.3l.66-4H7.65Z"/></g></svg>