<svg viewBox="0 0 24 24" xmlns="http://www.w3.org/2000/svg"><g fill-rule="evenodd"><path d="M11.4 4.7c.35-.27.84-.27 1.2 0l3.73 2.8h5.66c.55 0 1 .44 1 1 0 6.07-4.93 11-11 11 -6.08 0-11-4.93-11-11 0-.56.44-1 1-1h5.66l3.73-2.8Zm.6 2.05L8.6 9.3c-.18.12-.39.2-.6.2H3.05c.49 4.5 4.31 8 8.94 8s8.44-3.5 8.94-8h-4.95c-.22 0-.43-.08-.6-.2l-3.4-2.55Z"/><path d="M9.5 12c0-1.39 1.11-2.5 2.5-2.5 1.38 0 2.5 1.11 2.5 2.5v1.5c0 1.38-1.12 2.5-2.5 2.5 -1.39 0-2.5-1.12-2.5-2.5V12Zm2.5-.5c-.28 0-.5.22-.5.5v1.5c0 .27.22.5.5.5 .27 0 .5-.23.5-.5V12c0-.28-.23-.5-.5-.5Z"/></g></svg>