<svg viewBox="0 0 24 24" xmlns="http://www.w3.org/2000/svg"><g fill-rule="evenodd"><path d="M12.29 8.29c.39-.4 1.02-.4 1.41 0l2 2c.18.18.29.44.29.7 0 .26-.11.51-.3.7l-9 9c-.4.39-1.03.39-1.42 0l-2-2c-.19-.19-.3-.45-.3-.71 0-.27.1-.52.29-.71l9-9.01Zm-6.88 9.7l.58.58 7.58-7.59 -.59-.59 -7.59 7.58Z"/><path d="M14.25 2.21C15 1.43 16.03.99 17.11.99h4.87c.55 0 1 .44 1 1v4.75c0 1.06-.43 2.07-1.18 2.82l-4.13 4.12c-.4.39-1.03.39-1.42 0l-6-6c-.39-.39-.4-1.02-.02-1.41l3.97-4.1Zm2.86.78c-.55 0-1.06.21-1.44.6l-3.29 3.38 4.59 4.59 3.41-3.42c.37-.38.58-.89.58-1.42V2.96h-3.88Z"/><path d="M7.29 22.7l-6-6 1.41-1.42 6 6 -1.42 1.41Z"/></g></svg>