<svg viewBox="0 0 24 24" xmlns="http://www.w3.org/2000/svg"><g fill-rule="evenodd"><path d="M1.5 6c0-.56.44-1 1-1h9c.55 0 1 .44 1 1v3.88l4.23 2.11h3.26c1.65 0 3 1.34 3 3v4c0 .55-.45 1-1 1H2.49c-.56 0-1-.45-1-1v-13Zm2 1v11H21v-3c0-.56-.45-1-1-1h-3.5c-.16 0-.31-.04-.45-.11l-5-2.5c-.34-.17-.56-.52-.56-.9v-3.5h-7Z"/><path d="M1.5 19c0-.56.44-1 1-1h4c.55 0 1 .44 1 1v3c0 .55-.45 1-1 1h-4c-.56 0-1-.45-1-1v-3Zm2 1v1h2v-1h-2Z"/><path d="M6.07 18.61c.15-.38.51-.62.92-.62h15c.55 0 1 .44 1 1v3c0 .55-.45 1-1 1h-12c-.27 0-.52-.11-.71-.3l-3-3c-.29-.29-.38-.72-.22-1.09Zm3.33 1.38l.99 1h10.58v-1H9.38Z"/><path d="M1 2c0-.56.44-1 1-1h10c.55 0 1 .44 1 1v4c0 .55-.45 1-1 1H2c-.56 0-1-.45-1-1V2Zm2 1v2h8V3H3Z"/></g></svg>