<svg viewBox="0 0 24 24" xmlns="http://www.w3.org/2000/svg"><g fill-rule="evenodd"><path d="M4.61 9.93c-1.28.59-1.62 1.22-1.62 1.56 0 .34.34.97 1.61 1.56 1.19.55 2.92.93 4.88.93 1.95 0 3.68-.38 4.88-.94 1.27-.6 1.61-1.23 1.61-1.57 0-.35-.35-.98-1.62-1.57 -1.2-.56-2.93-.94-4.89-.94 -1.96 0-3.69.37-4.89.93Zm-.85-1.82C5.27 7.4 7.3 6.99 9.48 6.99c2.18 0 4.2.41 5.72 1.11 1.43.67 2.77 1.79 2.77 3.38 0 1.58-1.34 2.71-2.78 3.38 -1.52.7-3.55 1.11-5.73 1.11 -2.19 0-4.21-.42-5.73-1.12 -1.44-.68-2.78-1.8-2.78-3.39s1.33-2.72 2.77-3.39Z"/><path d="M19.03 9.84c-.73.5-1.04 1.1-1.04 1.65 0 .55.31 1.15 1.03 1.65 .5.35 1.18.63 1.96.76V9.06c-.78.12-1.46.4-1.97.76ZM17.88 8.2c1.09-.77 2.54-1.21 4.1-1.21 .55 0 1 .44 1 1v7c0 .55-.45 1-1 1 -1.57 0-3.02-.45-4.11-1.21 -1.09-.77-1.9-1.92-1.9-3.3 0-1.39.8-2.54 1.89-3.3Z"/><path d="M6.79 11.5L5.15 9.05l1.66-1.11 2 3c.22.33.22.77 0 1.1l-2 3 -1.67-1.11 1.63-2.45Z"/><path d="M11.39 18.8l-4-3 1.2-1.6 2.83 2.12 .6-2.11 1.923.54 -1 3.5c-.1.31-.34.56-.65.67 -.32.1-.66.04-.92-.15Z"/><path d="M11.39 4.2l-4 3 1.2 1.6 2.83-2.13 .6 2.1 1.923-.55 -1-3.5c-.1-.32-.34-.57-.65-.68 -.32-.11-.66-.05-.92.14Z"/></g></svg>