<svg viewBox="0 0 24 24" xmlns="http://www.w3.org/2000/svg"><g fill-rule="evenodd"><path d="M1 9c0-1.66 1.34-3 3-3h16c1.65 0 3 1.34 3 3v10c0 1.65-1.35 3-3 3H4c-1.66 0-3-1.35-3-3V9Zm3-1c-.56 0-1 .44-1 1v10c0 .55.44 1 1 1h16c.55 0 1-.45 1-1V9c0-.56-.45-1-1-1H4Z"/><path d="M8 5c0-1.66 1.34-3 3-3h2c1.65 0 3 1.34 3 3v2c0 .55-.45 1-1 1H9c-.56 0-1-.45-1-1V5Zm3-1c-.56 0-1 .44-1 1v1h4V5c0-.56-.45-1-1-1h-2Z"/><path d="M16 21V7h2v14h-2Z"/><path d="M6 21V7h2v14H6Z"/><path d="M15 10h4v2h-4v-2Z"/><path d="M5 10h4v2H5v-2Z"/></g></svg>