<svg viewBox="0 0 24 24" xmlns="http://www.w3.org/2000/svg"><g fill-rule="evenodd"><path d="M6 12c0-1.66 1.34-3 3-3h11c1.65 0 3 1.34 3 3v8c0 1.65-1.35 3-3 3H9c-1.66 0-3-1.35-3-3v-8Zm3-1c-.56 0-1 .44-1 1v8c0 .55.44 1 1 1h11c.55 0 1-.45 1-1v-8c0-.56-.45-1-1-1H9Z"/><path d="M15.5 8v2h-2V8h2Z"/><path d="M6 4c0-1.66 1.34-3 3-3h11c1.65 0 3 1.34 3 3v10h-2V4c0-.56-.45-1-1-1H9c-.56 0-1 .44-1 1v10H6V4Z"/><path d="M1.43 10.17c.27-.19.62-.23.93-.11l5 2c.37.15.62.51.62.92v4c0 .33-.17.64-.44.82 -.28.18-.63.22-.94.1l-5-2c-.38-.16-.63-.52-.63-.93v-4c0-.34.16-.65.43-.83Zm1.56 2.3v1.846l3 1.2V13.67l-3-1.2Z"/></g></svg>