<svg viewBox="0 0 24 24" xmlns="http://www.w3.org/2000/svg"><g fill-rule="evenodd"><path d="M1 4.5C1 2.56 2.56 1 4.5 1h7C13.43 1 15 2.56 15 4.5v8c0 1.93-1.57 3.5-3.5 3.5h-7C2.56 16 1 14.43 1 12.5v-8ZM4.5 3C3.67 3 3 3.67 3 4.5v8c0 .82.67 1.5 1.5 1.5h7c.82 0 1.5-.68 1.5-1.5v-8c0-.83-.68-1.5-1.5-1.5h-7Z"/><path d="M16.5 5.5c0-.56.44-1 1-1h3c.55 0 1 .44 1 1v5c0 .55-.45 1-1 1h-3c-.56 0-1-.45-1-1v-5Zm2 1v3h1v-3h-1Z"/><path d="M20 2v3.5h-2V2h2Z"/><path d="M8.78 4.37l-.79.62 -.79-.63c.18-.24.47-.38.78-.38 .3 0 .59.13.78.37Zm-.79 2.29c-.14.18-.28.39-.42.6 -.31.45-.59.93-.8 1.36 -.23.46-.3.74-.3.85 0 .82.67 1.5 1.5 1.5 .82 0 1.5-.68 1.5-1.5 0-.11-.07-.39-.3-.86 -.21-.44-.5-.91-.8-1.37 -.15-.22-.29-.42-.42-.61Zm0-1.68c-.79-.63-.79-.63-.79-.63l-.01 0 -.01 0 -.03.02c-.02.02-.05.06-.09.1 -.08.09-.18.22-.3.38 -.25.32-.57.77-.9 1.27 -.33.49-.67 1.05-.93 1.59 -.25.5-.49 1.13-.49 1.71 0 1.93 1.56 3.5 3.5 3.5 1.93 0 3.5-1.57 3.5-3.5 0-.59-.25-1.22-.49-1.72 -.27-.55-.6-1.11-.93-1.6 -.33-.5-.66-.95-.9-1.28 -.13-.17-.23-.3-.3-.39 -.04-.05-.07-.09-.09-.11l-.03-.03 -.01-.01 -.01-.01c-.01-.01 0 0-.79.62Z"/><path d="M20 10.5v8c0 2.48-2.02 4.5-4.5 4.5h-4C9.01 23 7 20.98 7 18.5V15h2v3.5c0 1.38 1.11 2.5 2.5 2.5h4c1.38 0 2.5-1.12 2.5-2.5v-8h2Z"/></g></svg>