<svg viewBox="0 0 24 24" xmlns="http://www.w3.org/2000/svg"><path fill-rule="evenodd" d="M5.5 5c0-2.28 1.83-4.05 4-4.05 .94 0 1.81.32 2.5.88 .68-.56 1.55-.89 2.5-.89 2.16 0 4 1.76 4 4.04 0 1.91-1.3 3.46-3 3.91v6.16c1.7.44 3 2 3 3.91 0 2.27-1.84 4.04-4 4.04 -.95 0-1.82-.33-2.5-.89 -.69.55-1.56.88-2.5.88 -2.17 0-4-1.77-4-4.05 0-1.92 1.29-3.47 3-3.92V8.85c-1.71-.45-3-2.01-3-3.92Zm4-1.96c-1.15 0-2 .91-2 1.95 0 1.03.85 1.95 2 1.95 .55 0 1 .46 1 1.04v8c0 .57-.45 1.04-1 1.04 -1.15 0-2 .91-2 1.95 0 1.03.85 1.95 2 1.95 .71 0 1.32-.37 1.67-.9 .18-.29.49-.45.82-.45 .32 0 .63.16.82.44 .35.52.96.89 1.67.89 1.14 0 2-.92 2-1.96s-.86-1.96-2-1.96c-.56 0-1-.47-1-1.05v-8c0-.58.44-1.05 1-1.05 1.14 0 2-.92 2-1.96s-.86-1.96-2-1.96c-.72 0-1.33.36-1.68.89 -.19.28-.5.44-.83.44 -.33 0-.64-.17-.83-.45 -.36-.53-.97-.9-1.68-.9Z"/></svg>