<svg viewBox="0 0 24 24" xmlns="http://www.w3.org/2000/svg"><g fill-rule="evenodd"><path d="M1 9.95c0-2.04 1.72-3.5 3.625-3.5 1.55 0 2.99.98 3.46 2.45h1.03v2.08H7.24c-.56 0-1-.47-1-1.05 0-.68-.63-1.42-1.625-1.42 -1.01 0-1.625.73-1.625 1.41 0 .43.23.87.68 1.14 .3.18.48.52.48.89 0 .36-.19.7-.49.89 -.45.27-.69.71-.69 1.14 0 .67.62 1.41 1.62 1.41s1.625-.74 1.625-1.42c0-.58.44-1.05 1-1.05h2.75V15h-1.92c-.48 1.47-1.92 2.45-3.47 2.45 -1.9 0-3.625-1.47-3.625-3.5 0-.78.26-1.48.68-2.05 -.43-.57-.69-1.27-.69-2.05Z"/><path d="M23 14.04c0 2.03-1.73 3.49-3.625 3.49 -1.56 0-3-.99-3.47-2.46h-1.04v-2.09h1.875c.55 0 1 .46 1 1.04 0 .67.62 1.41 1.625 1.41 1 0 1.625-.74 1.625-1.42 0-.44-.24-.88-.69-1.15 -.31-.19-.49-.53-.49-.9s.18-.71.48-.9c.44-.28.68-.72.68-1.15 0-.68-.63-1.42-1.625-1.42 -1.01 0-1.625.73-1.625 1.41 0 .57-.45 1.04-1 1.04h-2.75V8.85h1.91c.47-1.48 1.91-2.46 3.46-2.46 1.89 0 3.625 1.46 3.625 3.49 0 .77-.27 1.47-.69 2.04 .42.56.68 1.26.68 2.04Z"/><path d="M10.02 11.78l1-5 1.95.42 -.75 3.74h.76c.3 0 .58.14.77.38 .18.24.26.56.2.87l-1 5 -1.96-.43 .74-3.75h-.77c-.31 0-.59-.15-.78-.39 -.19-.25-.27-.57-.21-.88Z"/></g></svg>