<svg viewBox="0 0 24 24" xmlns="http://www.w3.org/2000/svg"><g fill-rule="evenodd"><path d="M16.92 2.63c1.16-1.17 2.99-1.17 4.15 0l.1.1c1.23 1.23 1.23 3.28 0 4.52l-9.5 9.49c-.39.38-1 .38-1.39 0l-3.01-3c-.2-.2-.31-.47-.31-.76 0-.29.11-.56.3-.76l9.61-9.62Zm2.76 1.5c-.39-.39-1-.39-1.39 0l-8.87 8.86 1.55 1.55 8.8-8.81c.41-.42.41-1.1 0-1.51l-.11-.11Z"/><path d="M6.34 16.2l2.45-2.46 1.38 1.5 -3.01 3c-.33.32-.81.38-1.2.15l-.7-.42c-.5-.3-1.13-.11-1.39.42l-.35.68c-.21.41-.13.91.19 1.23l.91.91 -1.39 1.5 -.92-.92c-.97-.97-1.21-2.48-.59-3.71l.34-.69c.78-1.58 2.67-2.16 4.15-1.27l.04.02Z"/></g></svg>