<svg viewBox="0 0 24 24" xmlns="http://www.w3.org/2000/svg"><g fill-rule="evenodd"><path d="M6 3.04c-.56 0-1 .46-1 1.04v15.826c0 .57.44 1.04 1 1.04h12c.55 0 1-.47 1-1.05V8.96c0-.32-.14-.61-.37-.81l-5.72-4.9c-.18-.16-.41-.24-.64-.24H5.98ZM3 4.08C3 2.35 4.34.94 6 .94h6.28c.69 0 1.36.25 1.9.71l5.71 4.89c.69.59 1.09 1.48 1.09 2.41v10.92c0 1.72-1.35 3.13-3 3.13h-12c-1.66 0-3-1.41-3-3.14V4.03Z"/><path d="M12 5.91V2.49h2V5.9c0 .57.44 1.04 1 1.04h4.5v2.08H15c-1.66 0-3-1.41-3-3.14Z"/><path d="M7.5 9V5h2v4h-2Z"/><path d="M10.5 8.04h-4V5.95h4v2.08Z"/><path d="M17.5 13.54h-11v-2.09h11v2.08Z"/><path d="M17.5 16.54h-11v-2.09h11v2.08Z"/><path d="M17.5 19.54h-11v-2.09h11v2.08Z"/></g></svg>