<svg viewBox="0 0 24 24" xmlns="http://www.w3.org/2000/svg"><g fill-rule="evenodd"><path d="M1 2c0-.56.44-1 1-1h20c.55 0 1 .44 1 1v20c0 .55-.45 1-1 1H2c-.56 0-1-.45-1-1V2Zm2 1v18h18V3H3Z"/><path d="M8 4.5c0-.56.44-1 1-1h6c.55 0 1 .44 1 1v3c0 .55-.45 1-1 1H9c-.56 0-1-.45-1-1v-3Zm2 1v1h4v-1h-4Z"/><path d="M4 7.63c.31-.18.69-.18 1 0l4.51 2.63c1.22.71 1.98 2.03 1.98 3.45v2.77c0 2.2-1.8 4-4 4 -2.21 0-4-1.8-4-4v-8c0-.36.19-.69.5-.87Zm1.49 2.6v6.259c0 1.1.89 2 2 2 1.1 0 2-.9 2-2V13.7c0-.72-.38-1.37-1-1.73l-3.01-1.76Z"/><path d="M19.99 7.63c-.32-.18-.7-.18-1.01 0l-4.52 2.63c-1.23.71-1.99 2.03-1.99 3.45v2.77c0 2.2 1.79 4 4 4 2.2 0 4-1.8 4-4v-8c0-.36-.2-.69-.51-.87Zm-1.5 2.6v6.259c0 1.1-.9 2-2 2 -1.11 0-2-.9-2-2V13.7c0-.72.37-1.37.99-1.73l3-1.76Z"/></g></svg>