<svg viewBox="0 0 24 24" xmlns="http://www.w3.org/2000/svg"><g fill-rule="evenodd"><path d="M7 6c0-2.77 2.23-5 5-5 2.76 0 5 2.23 5 5 0 2.76-2.24 5-5 5 -2.77 0-5-2.24-5-5Zm5-3c-1.66 0-3 1.34-3 3 0 1.65 1.34 3 3 3 1.65 0 3-1.35 3-3 0-1.66-1.35-3-3-3Z"/><path d="M13 18c0-1.39 1.11-2.5 2.5-2.5 1.38 0 2.5 1.11 2.5 2.5 0 1.38-1.12 2.5-2.5 2.5 -1.39 0-2.5-1.12-2.5-2.5Zm2.5-.5c-.28 0-.5.22-.5.5 0 .27.22.5.5.5 .27 0 .5-.23.5-.5 0-.28-.23-.5-.5-.5Z"/><path d="M10 13.5v3H8v-3h2Z"/><path d="M16.5 13.5v3h-2v-3h2Z"/><path d="M6 18.5c0-1.66 1.34-3 3-3 1.65 0 3 1.34 3 3v1h-2v-1c0-.56-.45-1-1-1 -.56 0-1 .44-1 1v1H6v-1Z"/><path d="M4.06 21h15.87c-.5-3.95-3.86-7-7.94-7s-7.45 3.05-7.94 7Zm-2.07 1c0-5.53 4.47-10 10-10 5.52 0 10 4.47 10 10 0 .55-.45 1-1 1h-18c-.56 0-1-.45-1-1Z"/></g></svg>