<svg viewBox="0 0 24 24" xmlns="http://www.w3.org/2000/svg"><g fill-rule="evenodd"><path d="M1 3c0-.56.44-1 1-1h20c.55 0 1 .44 1 1v13c0 .55-.45 1-1 1H2c-.56 0-1-.45-1-1V3Zm2 1v11h18V4H3Z"/><path d="M1 16c0-.56.44-1 1-1h20c.55 0 1 .44 1 1v5c0 .55-.45 1-1 1H2c-.56 0-1-.45-1-1v-5Zm2 1v3h18v-3H3Z"/><path d="M10.1 4.5c.39.04.73.31.85.69l1.64 5.25 1.46-3.82c.14-.37.48-.63.88-.64 .39-.02.76.19.94.55l1.22 2.44h1.88v2h-2.5c-.38 0-.73-.22-.9-.56l-.49-.98 -1.69 4.38c-.16.39-.55.65-.97.64 -.43-.02-.8-.3-.93-.71L9.68 7.96l-1.37 2.46c-.18.31-.52.51-.88.51h-2.5v-2h1.91l2.21-3.99c.19-.35.57-.55.97-.51Z"/><path d="M6.5 19.5h-2v-2h2v2Z"/><path d="M11 19.5H9v-2h2v2Z"/></g></svg>