<svg viewBox="0 0 24 24" xmlns="http://www.w3.org/2000/svg"><g fill-rule="evenodd"><path d="M8 10.5c0-.56.44-1 1-1h6c.55 0 1 .44 1 1v2.04c1.41.23 2.5 1.47 2.5 2.95v4.5c0 1.65-1.35 3-3 3h-7c-1.66 0-3-1.35-3-3v-4.5c0-1.49 1.08-2.73 2.5-2.96v-2.05Zm2 1v2c0 .55-.45 1-1 1h-.5c-.56 0-1 .44-1 1V20c0 .55.44 1 1 1h7c.55 0 1-.45 1-1v-4.5c0-.56-.45-1-1-1H15c-.56 0-1-.45-1-1v-2h-4Z"/><path d="M6.5 8c0-.56.44-1 1-1h9c.55 0 1 .44 1 1v2.5c0 .55-.45 1-1 1h-9c-.56 0-1-.45-1-1V8Zm2 1v.5h7V9h-7Z"/><path d="M9.5 3.5C9.5 2.11 10.61 1 12 1c1.38 0 2.5 1.11 2.5 2.5v1.02c0 .15.03.3.1.44l1.28 2.57c.15.3.13.67-.05.97 -.19.29-.51.47-.86.47h-6c-.35 0-.67-.18-.86-.48 -.19-.3-.2-.67-.05-.98l1.28-2.58c.06-.14.1-.3.1-.45V3.45ZM12 3c-.28 0-.5.22-.5.5v1.02c0 .46-.11.92-.32 1.34l-.57 1.13h2.76l-.57-1.14c-.21-.42-.32-.88-.32-1.35V3.47c0-.28-.23-.5-.5-.5Z"/><path d="M10.38 17.5c.08.07.17.15.26.24 .26.22.53.42.79.56 .27.14.45.19.55.19 .09 0 .27-.05.55-.2 .26-.15.53-.35.79-.57 .09-.09.18-.17.26-.25 -.09-.08-.18-.16-.27-.25 -.27-.23-.54-.43-.8-.57 -.28-.15-.46-.2-.56-.2 -.1 0-.28.04-.56.19 -.27.14-.54.34-.8.56 -.1.08-.19.16-.27.24Zm4.61 0c.76-.65.76-.65.76-.65l-.01-.01 -.01-.01 -.01-.01 -.02-.03c-.02-.02-.04-.05-.07-.08 -.06-.07-.14-.15-.24-.26 -.2-.21-.47-.49-.8-.76 -.33-.28-.72-.58-1.15-.81 -.42-.23-.94-.44-1.51-.44 -.57 0-1.1.2-1.51.43 -.43.23-.82.52-1.15.8 -.33.27-.61.55-.8.75 -.1.1-.18.18-.24.25 -.03.03-.05.05-.07.07l-.02.02 -.01 0 -.01 0 -.01 0c-.01 0-.01 0 .76.64l-.77-.65c-.32.37-.32.91-.01 1.28l.76-.65c-.77.64-.77.64-.77.64l0 0 0 0 0 0 .01.02c.01.01.03.04.06.07 .05.06.13.14.23.25 .19.2.47.48.79.75 .32.27.71.57 1.14.8 .41.22.93.43 1.5.43 .56 0 1.09-.21 1.5-.44 .42-.24.81-.53 1.14-.81 .32-.28.6-.56.79-.76 .09-.11.17-.19.23-.26 .02-.04.04-.06.06-.08l.01-.03 0-.01 0-.01 0-.01c0-.01 0-.01-.77-.65Zm0 0l.76.64c.31-.38.31-.92 0-1.29l-.77.64Z"/></g></svg>