<svg viewBox="0 0 24 24" xmlns="http://www.w3.org/2000/svg"><g fill-rule="evenodd"><path d="M11.79 6.02c.13-.03.28-.03.41 0l7 1.5c.46.09.79.5.79.97v8c0 .47-.33.87-.8.97l-7 1.5c-.14.02-.29.02-.42 0l-7.01-1.5c-.47-.1-.8-.51-.8-.98v-8c0-.48.32-.88.79-.98l7-1.5ZM5.99 9.3v6.38l6 1.28 6-1.29V9.28l-6-1.29 -6 1.28Z"/><path d="M16.5 12h-9v-2h9v2Z"/><path d="M16.5 15h-9v-2h9v2Z"/><path d="M1 12c0-1.66 1.34-3 3-3h1c.55 0 1 .44 1 1v5.5c0 .55-.45 1-1 1H4c-1.66 0-3-1.35-3-3V12Zm3-1c-.56 0-1 .44-1 1v1.5c0 .55.44 1 1 1V11Z"/><path d="M23 12c0-1.66-1.35-3-3-3h-1c-.56 0-1 .44-1 1v5.5c0 .55.44 1 1 1h1c1.65 0 3-1.35 3-3V12Zm-3-1c.55 0 1 .44 1 1v1.5c0 .55-.45 1-1 1V11Z"/></g></svg>