<svg viewBox="0 0 24 24" xmlns="http://www.w3.org/2000/svg"><g fill-rule="evenodd"><path d="M6.5 8c0-1.11.89-2 2-2h7c1.1 0 2 .89 2 2v8c0 1.1-.9 2-2 2h-7c-1.11 0-2-.9-2-2V8Zm9 0h-7v8h7V8Z"/><path d="M8 2c0-.56.44-1 1-1h6c.55 0 1 .44 1 1v5c0 .55-.45 1-1 1H9c-.56 0-1-.45-1-1V2Zm2 1v3h4V3h-4Z"/><path d="M8 17c0-.56.44-1 1-1h6c.55 0 1 .44 1 1v5c0 .55-.45 1-1 1H9c-.56 0-1-.45-1-1v-5Zm2 1v3h4v-3h-4Z"/><path d="M11.05 8.5c.39.02.74.27.88.64l1.29 3.47 .42-.66c.18-.29.5-.47.84-.47h2v2h-1.46l-1.205 1.88c-.21.31-.58.49-.95.45 -.38-.04-.7-.29-.84-.65l-1.2-3.2 -.48.94c-.17.33-.52.55-.9.55h-2v-2h1.38L10.04 9c.17-.36.54-.58.94-.56Z"/></g></svg>