<svg viewBox="0 0 24 24" xmlns="http://www.w3.org/2000/svg"><g fill-rule="evenodd"><path d="M6.5 8c0-1.11.89-2 2-2h7c1.1 0 2 .89 2 2v8c0 1.1-.9 2-2 2h-7c-1.11 0-2-.9-2-2V8Zm9 0h-7v8h7V8Z"/><path d="M8 2c0-.56.44-1 1-1h6c.55 0 1 .44 1 1v5c0 .55-.45 1-1 1H9c-.56 0-1-.45-1-1V2Zm2 1v3h4V3h-4Z"/><path d="M8 17c0-.56.44-1 1-1h6c.55 0 1 .44 1 1v5c0 .55-.45 1-1 1H9c-.56 0-1-.45-1-1v-5Zm2 1v3h4v-3h-4Z"/><path d="M11.99 8.86c-.86-.38-1.9-.22-2.6.48 -.92.91-.92 2.38 0 3.29l1.88 1.88c.39.39 1.02.39 1.41 0l1.88-1.89c.91-.92.91-2.39 0-3.3 -.71-.71-1.74-.87-2.6-.49Zm-.71 1.89c-.14-.14-.35-.14-.48 0 -.14.13-.14.34 0 .47l1.17 1.17 1.17-1.18c.13-.14.13-.35 0-.48 -.14-.14-.35-.14-.48 0 -.4.39-1.03.39-1.42 0Z"/></g></svg>