<svg viewBox="0 0 24 24" xmlns="http://www.w3.org/2000/svg"><g fill-rule="evenodd"><path d="M6.5 3.5C6.5 2.09 7.59.95 8.93.95h6.125c1.34-.001 2.43 1.13 2.43 2.54 0 1.4-1.1 2.54-2.44 2.54H8.92c-1.35 0-2.44-1.14-2.44-2.55Zm2.43-.46c-.25 0-.44.2-.44.45s.19.45.43.45h6.125c.24 0 .43-.21.43-.46 0-.26-.2-.46-.44-.46H8.91Z"/><path d="M8 5c0-.58.44-1.05 1-1.05h6c.55 0 1 .46 1 1.04v3.03c2.37 1.38 4 3.97 4 6.96 0 4.48-3.63 8.04-8 8.04 -4.38 0-8-3.56-8-8.05 0-3 1.62-5.59 4-6.97V4.96Zm2 1.04v2.63c0 .4-.23.78-.59.94 -2.04.96-3.42 3.02-3.42 5.37 0 3.24 2.64 5.95 6 5.95 3.35 0 6-2.71 6-5.96 0-2.35-1.38-4.41-3.42-5.38 -.36-.17-.59-.55-.59-.95V6h-4Z"/></g></svg>