<svg viewBox="0 0 24 24" xmlns="http://www.w3.org/2000/svg"><g fill-rule="evenodd"><path d="M4 4.58c0-1.73 1.34-3.14 3-3.14h10c1.65 0 3 1.4 3 3.13v14.82c0 1.72-1.35 3.13-3 3.13H7c-1.66 0-3-1.41-3-3.14V4.55Zm3-1.05c-.56 0-1 .46-1 1.04v14.82c0 .57.44 1.04 1 1.04h10c.55 0 1-.47 1-1.05V4.55c0-.58-.45-1.05-1-1.05H7Z"/><path d="M7 6.49c0-1.41 1.09-2.55 2.43-2.55h5.125c1.34 0 2.43 1.13 2.43 2.54 0 1.4-1.1 2.54-2.44 2.54H9.42c-1.35 0-2.44-1.14-2.44-2.55Zm2.43-.46c-.25 0-.44.2-.44.45s.19.45.43.45h5.125c.24 0 .43-.21.43-.46 0-.26-.2-.46-.44-.46H9.41Z"/><path d="M7 12c0-1.41 1.09-2.55 2.43-2.55h5.125c1.34 0 2.43 1.13 2.43 2.54 0 1.4-1.1 2.54-2.44 2.54H9.42c-1.35 0-2.44-1.14-2.44-2.55Zm2.43-.46c-.25 0-.44.2-.44.45s.19.45.43.45h5.125c.24 0 .43-.21.43-.46 0-.26-.2-.46-.44-.46H9.41Z"/><path d="M7 17.5c0-1.41 1.09-2.55 2.43-2.55h5.125c1.34 0 2.43 1.13 2.43 2.54 0 1.4-1.1 2.54-2.44 2.54H9.42c-1.35 0-2.44-1.14-2.44-2.55Zm2.43-.46c-.25 0-.44.2-.44.45s.19.45.43.45h5.125c.24 0 .43-.21.43-.46 0-.26-.2-.46-.44-.46H9.41Z"/></g></svg>