<svg viewBox="0 0 24 24" xmlns="http://www.w3.org/2000/svg"><g fill-rule="evenodd"><path d="M6.31 21.04c-2.94 0-5.32-2.49-5.32-5.55 0-3.07 2.37-5.55 5.31-5.55h5.68c.55 0 1 .46 1 1.04v9c0 .57-.45 1.04-1 1.04H6.29Zm-3.32-5.55c0 1.9 1.48 3.45 3.31 3.45h4.68V12.02H6.29c-1.83 0-3.32 1.54-3.32 3.45Z"/><path d="M17.68 21.04c2.93 0 5.31-2.49 5.31-5.55 0-3.07-2.38-5.55-5.32-5.55h-5.69c-.56 0-1 .46-1 1.04v9c0 .57.44 1.04 1 1.04h5.68Zm3.31-5.55c0 1.9-1.49 3.45-3.32 3.45h-4.69V12.02h4.68c1.82 0 3.31 1.54 3.31 3.45Z"/><path d="M6.5 14.54c-.6 0-1 .46-1 .95h-2c0-1.73 1.38-3.05 3-3.05v2.08Z"/><path d="M6.5 3.99c0-.58.44-1.05 1-1.05h3c2.2 0 4 1.86 4 4.17v.86c0 .57-.45 1.04-1 1.04h-3c-2.21 0-4-1.87-4-4.18v-.87Zm2 1.04c.08 1.07.94 1.91 1.99 1.91h1.99c-.09-1.08-.95-1.92-2-1.92h-2Z"/><path d="M15.5 6.54c-.56 0-1 .46-1 1.04v.41h-2v-.42c0-1.73 1.34-3.14 3-3.14h1v2.08h-1Z"/></g></svg>