<svg viewBox="0 0 24 24" xmlns="http://www.w3.org/2000/svg"><g fill-rule="evenodd"><path d="M17.5 3.96l-1.28 2.11c-.43.7-.56 1.55-.38 2.36l.62 2.81c.1.47-.12.96-.55 1.17l-.87.43c-.35.17-.57.53-.57.94v7.14h6v-7.15c0-.41-.23-.77-.57-.95l-.87-.44c-.43-.22-.65-.71-.55-1.18l.62-2.82c.18-.82.04-1.67-.38-2.37l-1.28-2.12Zm-1.28-1.82c.58-.98 1.95-.98 2.54 0l1.69 2.82c.7 1.17.93 2.59.63 3.94l-.45 1.99 .14.07c1.04.52 1.7 1.61 1.7 2.82v8.18c0 .57-.45 1.04-1 1.04h-8c-.56 0-1-.47-1-1.05v-8.19c0-1.21.66-2.31 1.7-2.83l.14-.08 -.45-2c-.31-1.36-.08-2.78.63-3.95l1.69-2.83Z"/><path d="M6.5 3.96L5.22 6.07c-.43.7-.56 1.55-.38 2.36l.62 2.81c.1.47-.12.96-.55 1.17l-.87.43c-.35.17-.57.53-.57.94v7.14h6v-7.15c0-.41-.23-.77-.57-.95l-.87-.44c-.43-.22-.65-.71-.55-1.18l.62-2.82c.18-.82.04-1.67-.38-2.37L6.44 3.89ZM5.22 2.14c.58-.98 1.95-.98 2.54 0l1.69 2.82c.7 1.17.93 2.59.63 3.94l-.45 1.99 .14.07c1.04.52 1.7 1.61 1.7 2.82v8.18c0 .57-.45 1.04-1 1.04h-8c-.56 0-1-.47-1-1.05v-8.19c0-1.21.66-2.31 1.7-2.83l.14-.08 -.45-2c-.31-1.36-.08-2.78.63-3.95l1.69-2.83Z"/><path d="M12.5 14.5c0-.58.44-1.05 1-1.05h5c.55 0 1 .46 1 1.04v5c0 .57-.45 1.04-1 1.04h-5c-.56 0-1-.47-1-1.05v-5Zm2 1.04v2.91h3v-2.92h-3Z"/><path d="M1.5 14.5c0-.58.44-1.05 1-1.05h5c.55 0 1 .46 1 1.04v5c0 .57-.45 1.04-1 1.04h-5c-.56 0-1-.47-1-1.05v-5Zm2 1.04v2.91h3v-2.92h-3Z"/></g></svg>