<svg viewBox="0 0 24 24" xmlns="http://www.w3.org/2000/svg"><g fill-rule="evenodd"><path d="M4.5 9.5C4.5 4.74 8.34.95 12.99.95c4.65-.001 8.5 3.78 8.5 8.54 0 2.36-.96 4.5-2.49 6.04l.43 3.87c.08.79-.42 1.53-1.17 1.7l-7.51 1.76c-.89.2-1.74-.44-1.83-1.38l-.14-1.47H6.96c-1.11 0-2-.94-2-2.09v-2.01l-1.14-.29c-.93-.24-1.41-1.29-1.02-2.19L4.45 9.7c-.01-.09-.01-.18-.01-.27Zm8.49-6.46c-3.64-.001-6.5 2.93-6.5 6.45 0 .14 0 .28.01.41 .01.23-.05.46-.17.65L4.9 13.76l.92.23c.67.16 1.15.79 1.15 1.52v2.42h2.27c.77 0 1.42.61 1.49 1.41l.12 1.34 6.51-1.54 -.41-3.67c-.06-.53.14-1.03.49-1.36 1.24-1.19 2.01-2.85 2.01-4.68 0-3.53-2.87-6.46-6.5-6.46Z"/><path d="M10.5 6.54c-.56 0-1 .46-1 1.04v.32c0 .57.44 1.04 1 1.04 .55 0 1 .46 1 1.04v.76l3.03-1.69c.14-.09.3-.13.47-.13h.5c.55 0 1-.47 1-1.05v-.33c0-.58-.45-1.05-1-1.05h-5Zm-3 1.04c0-1.73 1.34-3.14 3-3.14h5c1.65 0 3 1.4 3 3.13v.32c0 1.72-1.35 3.13-3 3.13h-.26l-4.28 2.37c-.31.17-.69.16-.99-.03 -.31-.19-.49-.53-.49-.9v-1.64c-1.17-.43-2-1.59-2-2.96v-.33Z"/></g></svg>