<svg viewBox="0 0 24 24" xmlns="http://www.w3.org/2000/svg"><g fill-rule="evenodd"><path d="M8.58 8.11C7.1 4.73 9.63.99 13.28.99c2.02 0 3.89 1.19 4.71 3.06l.66 1.52c1.22 2.81 1.22 6 0 8.81l-.67 1.52c-.82 1.86-2.69 3.06-4.72 3.06 -3.65 0-6.18-3.75-4.71-7.12 .52-1.21.52-2.58 0-3.78Zm4.7-5.12c-2.24 0-3.75 2.29-2.87 4.31 .74 1.71.74 3.66 0 5.37 -.89 2.01.62 4.31 2.86 4.31 1.24 0 2.38-.74 2.88-1.88l.66-1.53c1-2.3 1-4.92 0-7.22l-.67-1.53c-.5-1.14-1.64-1.88-2.89-1.88Z"/><path d="M5.71 10.13l4.02-1.1 .52 1.92 -4.03 1.09c-.44.11-.74.51-.74.96v8.97h-2v-8.98c0-1.36.9-2.54 2.21-2.9Z"/></g></svg>