<svg viewBox="0 0 24 24" xmlns="http://www.w3.org/2000/svg"><g fill-rule="evenodd"><path d="M6.45 7.54c-.54 0-1.04.3-1.31.79l-1.96 3.58c-.13.23-.2.5-.2.77v5.65c0 1.07 1.01 1.82 1.98 1.48l2-.72c.6-.22 1.01-.82 1.01-1.49V8.55c0-.58-.45-1.05-1-1.05h-.55ZM3.4 7.29c.62-1.15 1.78-1.85 3.04-1.85h.54c1.65 0 3 1.4 3 3.13v9.04c0 1.56-.96 2.94-2.37 3.45l-2 .71c-2.28.81-4.64-.96-4.64-3.46v-5.66c0-.64.15-1.26.45-1.81l1.95-3.59Z"/><path d="M17.54 7.54c.53 0 1.03.3 1.3.79l1.95 3.58c.12.23.19.5.19.77v5.65c0 1.07-1.02 1.82-1.99 1.48l-2-.72c-.61-.22-1.02-.82-1.02-1.49V8.55c0-.58.44-1.05 1-1.05h.54Zm3.04-.25c-.63-1.15-1.79-1.85-3.05-1.85h-.55c-1.66 0-3 1.4-3 3.13v9.04c0 1.56.95 2.94 2.36 3.45l2 .71c2.27.81 4.63-.96 4.63-3.46v-5.66c0-.64-.16-1.26-.46-1.81l-1.96-3.59Z"/><path d="M11.99 8.4l3.3 1.1 -.61 1.98 -2.7-.9 -2.7.89 -.61-1.99 3.3-1.11Z"/><path d="M13 2v7.5h-2V2h2Z"/></g></svg>