<svg viewBox="0 0 24 24" xmlns="http://www.w3.org/2000/svg"><g fill-rule="evenodd"><path d="M3.17 4.9c.18-.29.49-.45.82-.45h8c.32 0 .63.16.82.44l2 3c.11.17.17.38.17.59v13.5c0 .57-.45 1.04-1 1.04h-12c-.56 0-1-.47-1-1.05V8.47c0-.22.06-.43.17-.6l2-3Zm1.34 1.63L2.98 8.81v12.12h10V8.8l-1.53-2.29H4.49Z"/><path d="M7 17v-5h2v5H7Z"/><path d="M10.5 15.54h-5v-2.09h5v2.08Z"/><path d="M3 2c0-.58.44-1.05 1-1.05h8c.55 0 1 .46 1 1.04v3.5c0 .57-.45 1.04-1 1.04H4c-.56 0-1-.47-1-1.05v-3.5Zm2 1.04v1.41h6V3.03H5Z"/><path d="M19 4.04c-1.01 0-2 .98-2 2.45 0 1.46.99 2.45 2 2.45 1 0 2-.99 2-2.46s-1-2.46-2-2.46Zm-4 2.45c0-2.4 1.68-4.55 4-4.55 2.31 0 4 2.14 4 4.54 0 2.39-1.69 4.54-4 4.54 -2.32 0-4-2.15-4-4.55Z"/><path d="M18 22V10h2v12h-2Z"/></g></svg>