<svg viewBox="0 0 24 24" xmlns="http://www.w3.org/2000/svg"><g fill-rule="evenodd"><path d="M10.08 15.57c.15-.38.51-.63.91-.63h11c.55 0 1 .46 1 1.04v.86c0 2.3-1.8 4.17-4 4.17h-3.18c-1.13 0-2.2-.5-2.96-1.36l-2.61-2.99c-.27-.31-.34-.75-.18-1.13Zm3.18 1.46l1.07 1.23c.37.43.91.67 1.47.67h3.17c1.04 0 1.9-.85 1.99-1.92h-7.73Z"/><path d="M2 14.95h11v2.08H2v-2.09Z"/><path d="M20.67 7.22l-.68.77 -.68-.78c.38-.37.96-.37 1.34 0Zm-.68 2.25c-.08.08-.16.18-.24.28 -.24.28-.44.57-.59.83 -.15.25-.17.38-.18.4 -.01 0-.01 0-.01 0 0 .48.4.95 1 .95 .59 0 1-.47 1-.96 0 0-.01 0-.01-.01 -.01-.03-.04-.15-.18-.41 -.15-.26-.36-.55-.59-.84 -.09-.1-.17-.2-.24-.29Zm-.68-2.26c0-.01 0 0 .67.77 .67-.78.67-.78.67-.78l0 0 0 0 .02.01c.01.01.04.04.07.06 .06.05.14.14.24.24 .2.2.47.5.74.83 .26.32.56.72.78 1.12 .21.37.45.9.45 1.46 0 1.72-1.39 3.04-3 3.04 -1.62 0-3-1.33-3-3.05 0-.57.23-1.09.45-1.47 .22-.41.51-.8.78-1.13 .27-.34.54-.63.74-.84 .1-.11.18-.19.24-.25 .03-.03.05-.06.07-.07l.02-.02 0-.01 0-.01Z"/><path d="M15.67 3.22l-.68.77 -.68-.78c.38-.37.96-.37 1.34 0Zm-.68 2.25c-.08.08-.16.18-.24.28 -.24.28-.44.57-.59.83 -.15.25-.17.38-.18.4 -.01 0-.01 0-.01 0 0 .48.4.95 1 .95 .59 0 1-.47 1-.96 0 0-.01 0-.01-.01 -.01-.03-.04-.15-.18-.41 -.15-.26-.36-.55-.59-.84 -.09-.1-.17-.2-.24-.29Zm-.68-2.26c0-.01 0 0 .67.77 .67-.78.67-.78.67-.78l0 0 0 0 .02.01c.01.01.04.04.07.06 .06.05.14.14.24.24 .2.2.47.5.74.83 .26.32.56.72.78 1.12 .21.37.45.9.45 1.46 0 1.72-1.39 3.04-3 3.04 -1.62 0-3-1.33-3-3.05 0-.57.23-1.09.45-1.47 .22-.41.51-.8.78-1.13 .27-.34.54-.63.74-.84 .1-.11.18-.19.24-.25 .03-.03.05-.06.07-.07l.02-.02 0-.01 0-.01Z"/></g></svg>