<svg viewBox="0 0 24 24" xmlns="http://www.w3.org/2000/svg"><g fill-rule="evenodd"><path d="M1 7.65c0-2.6 2.01-4.7 4.5-4.7 2.48 0 4.5 2.1 4.5 4.69v8.69c0 2.59-2.02 4.69-4.5 4.69 -2.49 0-4.5-2.11-4.5-4.7v-8.7Zm4.5-2.61C4.11 5.04 3 6.2 3 7.64v8.69c0 1.44 1.11 2.6 2.5 2.6 1.38 0 2.5-1.17 2.5-2.61v-8.7c0-1.45-1.12-2.61-2.5-2.61Z"/><path d="M17 8.04c-2.25 0-4 1.81-4 3.95s1.75 3.95 4 3.95c2.24 0 4-1.82 4-3.96 0-2.15-1.76-3.96-4-3.96Zm-6 3.95c0-3.38 2.72-6.05 6-6.05 3.27 0 6 2.66 6 6.04 0 3.37-2.73 6.04-6 6.04 -3.28 0-6-2.67-6-6.05Z"/><path d="M17 5.95c.55 0 1 .46 1 1.04v10c0 .57-.45 1.04-1 1.04 -.56 0-1-.47-1-1.05v-10c0-.58.44-1.05 1-1.05Z"/><path d="M1 12c0-.58.44-1.05 1-1.05h7c.55 0 1 .46 1 1.04 0 .57-.45 1.04-1 1.04H2c-.56 0-1-.47-1-1.05Z"/></g></svg>