<svg viewBox="0 0 24 24" xmlns="http://www.w3.org/2000/svg"><g fill-rule="evenodd"><path d="M4.5 9.5C4.5 4.74 8.34.95 12.99.95c4.65 0 8.5 3.78 8.5 8.54 0 2.36-.96 4.5-2.49 6.04l.43 3.87c.08.79-.42 1.53-1.17 1.7l-7.51 1.76c-.89.2-1.74-.44-1.83-1.38l-.14-1.47H6.96c-1.11 0-2-.94-2-2.09v-2.01l-1.14-.29c-.93-.24-1.41-1.29-1.02-2.19L4.45 9.7c-.01-.09-.01-.18-.01-.27Zm8.49-6.46c-3.64-.001-6.5 2.93-6.5 6.45 0 .14 0 .28.01.41 .01.23-.05.46-.17.65L4.9 13.76l.92.23c.67.16 1.15.79 1.15 1.52v2.42h2.27c.77 0 1.42.61 1.49 1.41l.12 1.34 6.51-1.54 -.41-3.67c-.06-.53.14-1.03.49-1.36 1.24-1.19 2.01-2.85 2.01-4.68 0-3.53-2.87-6.46-6.5-6.46Z"/><path d="M12 6.04c-1.11 0-2 .93-2 2.08v1.73c0 1.15.89 2.08 2 2.08h4.34v2.08h-4.35c-2.21 0-4-1.87-4-4.18V8.09c0-2.31 1.79-4.18 4-4.18h1.7c2 0 3.63 1.69 3.63 3.79v.22c0 1.97-1.56 3.57-3.44 3.57 -1.87 0-3.41-1.58-3.41-3.55h2c0 .79.63 1.45 1.4 1.45 .79 0 1.43-.68 1.43-1.49v-.23c0-.95-.74-1.71-1.64-1.71h-1.71Z"/></g></svg>