<svg viewBox="0 0 24 24" xmlns="http://www.w3.org/2000/svg"><g fill-rule="evenodd"><path d="M4 4.58c0-1.73 1.34-3.14 3-3.14h10c1.65 0 3 1.4 3 3.13v14.826c0 1.72-1.35 3.13-3 3.13H7c-1.66 0-3-1.41-3-3.14V4.56Zm3-1.05c-.56 0-1 .46-1 1.04v14.826c0 .57.44 1.04 1 1.04h10c.55 0 1-.47 1-1.05V4.56c0-.58-.45-1.05-1-1.05H7Z"/><path d="M9 6.04c-.32 0-.5.24-.5.45 0 .21.18.45.5.45 .31 0 .5-.25.5-.46 0-.22-.19-.46-.5-.46Zm-2.5.45c0-1.45 1.15-2.55 2.5-2.55 1.34 0 2.5 1.09 2.5 2.54 0 1.44-1.16 2.54-2.5 2.54 -1.35 0-2.5-1.1-2.5-2.55Z"/><path d="M9 11.54c-.32 0-.5.24-.5.45 0 .21.18.45.5.45 .31 0 .5-.25.5-.46 0-.22-.19-.46-.5-.46Zm-2.5.45c0-1.45 1.15-2.55 2.5-2.55 1.34 0 2.5 1.09 2.5 2.54 0 1.44-1.16 2.54-2.5 2.54 -1.35 0-2.5-1.1-2.5-2.55Z"/><path d="M9 17.04c-.32 0-.5.24-.5.45 0 .21.18.45.5.45 .31 0 .5-.25.5-.46 0-.22-.19-.46-.5-.46Zm-2.5.45c0-1.45 1.15-2.55 2.5-2.55 1.34 0 2.5 1.09 2.5 2.54 0 1.44-1.16 2.54-2.5 2.54 -1.35 0-2.5-1.1-2.5-2.55Z"/><path d="M15 6.04c-.32 0-.5.24-.5.45 0 .21.18.45.5.45 .31 0 .5-.25.5-.46 0-.22-.19-.46-.5-.46Zm-2.5.45c0-1.45 1.15-2.55 2.5-2.55 1.34 0 2.5 1.09 2.5 2.54 0 1.44-1.16 2.54-2.5 2.54 -1.35 0-2.5-1.1-2.5-2.55Z"/><path d="M15 11.54c-.32 0-.5.24-.5.45 0 .21.18.45.5.45 .31 0 .5-.25.5-.46 0-.22-.19-.46-.5-.46Zm-2.5.45c0-1.45 1.15-2.55 2.5-2.55 1.34 0 2.5 1.09 2.5 2.54 0 1.44-1.16 2.54-2.5 2.54 -1.35 0-2.5-1.1-2.5-2.55Z"/><path d="M15 17.04c-.32 0-.5.24-.5.45 0 .21.18.45.5.45 .31 0 .5-.25.5-.46 0-.22-.19-.46-.5-.46Zm-2.5.45c0-1.45 1.15-2.55 2.5-2.55 1.34 0 2.5 1.09 2.5 2.54 0 1.44-1.16 2.54-2.5 2.54 -1.35 0-2.5-1.1-2.5-2.55Z"/></g></svg>