<svg viewBox="0 0 24 24" xmlns="http://www.w3.org/2000/svg"><g fill-rule="evenodd"><path d="M12 3.04c-5.02 0-9 4.05-9 8.95 0 4.9 3.98 8.95 9 8.95 5.01 0 9-4.06 9-8.96 0-4.91-3.99-8.96-9-8.96ZM1 11.99C1 5.84 5.96.94 12 .94c6.03 0 11 4.9 11 11.04 0 6.14-4.97 11.04-11 11.04 -6.04 0-11-4.91-11-11.05Z"/><path d="M9 6.99c0-.58.44-1.05 1-1.05h4c.55 0 1 .46 1 1.04v1.95h2c.55 0 1 .46 1 1.04v4c0 .57-.45 1.04-1 1.04h-2v1.95c0 .57-.45 1.04-1 1.04h-4c-.56 0-1-.47-1-1.05v-1.96H7c-.56 0-1-.47-1-1.05V9.93c0-.58.44-1.05 1-1.05h2V6.92Zm2 1.04v1.95c0 .57-.45 1.04-1 1.04H8v1.91h2c.55 0 1 .46 1 1.04v1.95h2v-1.96c0-.58.44-1.05 1-1.05h2v-1.92h-2c-.56 0-1-.47-1-1.05V7.98h-2Z"/></g></svg>