<svg viewBox="0 0 24 24" xmlns="http://www.w3.org/2000/svg"><g fill-rule="evenodd"><path d="M9 7c0-.56.44-1 1-1h4c.55 0 1 .44 1 1v2h2c.55 0 1 .44 1 1v4c0 .55-.45 1-1 1h-2v2c0 .55-.45 1-1 1h-4c-.56 0-1-.45-1-1v-2H7c-.56 0-1-.45-1-1v-4c0-.56.44-1 1-1h2V7Zm2 1v2c0 .55-.45 1-1 1H8v2h2c.55 0 1 .44 1 1v2h2v-2c0-.56.44-1 1-1h2v-2h-2c-.56 0-1-.45-1-1V8h-2Z"/><path d="M11.71 1.04c.18-.06.38-.06.56 0l8.5 2.5c.42.12.71.51.71.95v9.64c0 2.12-1.13 4.09-2.96 5.17l-6.04 3.55c-.32.18-.71.18-1.02 0L5.42 19.3c-1.84-1.08-2.96-3.05-2.96-5.18V4.47c0-.45.29-.84.71-.96l8.49-2.5Zm-7.22 4.2v8.89c0 1.41.75 2.72 1.97 3.44l5.52 3.25 5.52-3.26c1.22-.72 1.97-2.04 1.97-3.45v-8.9L11.97 3l-7.5 2.2Z"/></g></svg>