<svg viewBox="0 0 24 24" xmlns="http://www.w3.org/2000/svg"><g fill-rule="evenodd"><path d="M4.5 9.5C4.5 4.74 8.34.95 12.99.95c4.65 0 8.5 3.78 8.5 8.54 0 2.36-.96 4.5-2.49 6.04l.43 3.87c.08.79-.42 1.53-1.17 1.7l-7.51 1.76c-.89.2-1.74-.44-1.83-1.38l-.14-1.47H6.96c-1.11 0-2-.94-2-2.09v-2.01l-1.14-.29c-.93-.24-1.41-1.29-1.02-2.19L4.45 9.7c-.01-.09-.01-.18-.01-.27Zm8.49-6.46c-3.64-.001-6.5 2.93-6.5 6.45 0 .14 0 .28.01.41 .01.23-.05.46-.17.65L4.9 13.76l.92.23c.67.16 1.15.79 1.15 1.52v2.42h2.27c.77 0 1.42.61 1.49 1.41l.12 1.34 6.51-1.54 -.41-3.67c-.06-.53.14-1.03.49-1.36 1.24-1.19 2.01-2.85 2.01-4.68 0-3.53-2.87-6.46-6.5-6.46Z"/><path d="M13 5.54c-.32 0-.5.24-.5.45 0 .21.18.45.5.45 .31 0 .5-.25.5-.46 0-.22-.19-.46-.5-.46Zm-2.5.45c0-1.45 1.15-2.55 2.5-2.55 1.34 0 2.5 1.09 2.5 2.54 0 1.44-1.16 2.54-2.5 2.54 -1.35 0-2.5-1.1-2.5-2.55Z"/><path d="M10.64 11.95h4.7c-.11-.34-.28-.59-.47-.79 -.37-.37-.97-.64-1.89-.64 -.93 0-1.53.26-1.89.63 -.2.19-.36.44-.47.78Zm-.92-2.29c.83-.84 1.98-1.22 3.27-1.22 1.28 0 2.43.37 3.27 1.21 .83.83 1.22 2.01 1.22 3.33 0 .57-.45 1.04-1 1.04h-7c-.56 0-1-.47-1-1.05 0-1.32.39-2.5 1.22-3.34Z"/></g></svg>