<svg viewBox="0 0 24 24" xmlns="http://www.w3.org/2000/svg"><g fill-rule="evenodd"><path d="M19.5 8.04c-.87 0-1.5.69-1.5 1.45s.63 1.45 1.5 1.45c.86 0 1.5-.7 1.5-1.46 0-.77-.64-1.46-1.5-1.46ZM16 9.49c0-2 1.6-3.55 3.5-3.55 1.89 0 3.5 1.54 3.5 3.54 0 1.99-1.61 3.54-3.5 3.54 -1.9 0-3.5-1.55-3.5-3.55Z"/><path d="M3.5 4.04c-.28 0-.5.23-.5.52v4.21c0 2.3 1.79 4.17 4 4.17h1c2.2 0 4-1.87 4-4.18V4.54c0-.29-.23-.53-.5-.53H11V1.92h.5c1.38 0 2.5 1.16 2.5 2.6v4.21c0 3.45-2.69 6.26-6 6.26H7c-3.32 0-6-2.81-6-6.27V4.5c0-1.45 1.11-2.61 2.5-2.61H4v2.08h-.5Z"/><path d="M20.5 12v7.43c0 1.44-1.12 2.6-2.5 2.6H9c-1.39 0-2.5-1.17-2.5-2.61v-5.44h2v5.43c0 .28.22.52.5.52h9c.27 0 .5-.24.5-.53v-7.44h2Z"/></g></svg>