<svg viewBox="0 0 24 24" xmlns="http://www.w3.org/2000/svg"><g fill-rule="evenodd"><path d="M5 17c-1.11 0-2 .89-2 2 0 1.1.89 2 2 2 1.1 0 2-.9 2-2 0-1.11-.9-2-2-2Zm-4 2c0-2.21 1.79-4 4-4 2.2 0 4 1.79 4 4 0 2.2-1.8 4-4 4 -2.21 0-4-1.8-4-4Z"/><path d="M19 17c-1.11 0-2 .89-2 2 0 1.1.89 2 2 2 1.1 0 2-.9 2-2 0-1.11-.9-2-2-2Zm-4 2c0-2.21 1.79-4 4-4 2.2 0 4 1.79 4 4 0 2.2-1.8 4-4 4 -2.21 0-4-1.8-4-4Z"/><path d="M12.91 7.42l2.94-4.91 -1.72-1.029 -3 5c-.04.06-.07.12-.1.19l-4.01 12 1.89.63 3.96-11.9Z"/><path d="M11.08 7.42L8.13 2.51 9.84 1.48l3 5c.03.06.06.12.09.19l4 12 -1.9.63 -3.97-11.9Z"/></g></svg>