<svg viewBox="0 0 24 24" xmlns="http://www.w3.org/2000/svg"><g fill-rule="evenodd"><path d="M12 3c-1.66 0-3 1.34-3 3 0 1.65 1.34 3 3 3 1.65 0 3-1.35 3-3 0-1.66-1.35-3-3-3ZM7 6c0-2.77 2.23-5 5-5 2.76 0 5 2.23 5 5 0 2.76-2.24 5-5 5 -2.77 0-5-2.24-5-5Z"/><path d="M11 22V10h2v12h-2Z"/><path d="M11.55 20.1l2-1 .89 1.78 -2 1 -.9-1.79Z"/><path d="M9.55 18.6l3.99-2 .89 1.78 -4 2 -.9-1.79Z"/><path d="M9.55 16.1l3.99-2 .89 1.78 -4 2 -.9-1.79Z"/><path d="M9.55 13.6l3.99-2 .89 1.78 -4 2 -.9-1.79Z"/></g></svg>