<svg viewBox="0 0 24 24" xmlns="http://www.w3.org/2000/svg"><g fill-rule="evenodd"><path d="M16.708 7.15c.54-.88 1.5-1.41 2.52-1.41 1.89 0 3.31 1.75 2.91 3.6 -.09.4-.49.66-.9.57 -.41-.09-.67-.49-.58-.9 .19-.93-.51-1.8-1.46-1.8 -.52 0-.99.26-1.26.69l-3.18 5.07c-.86 1.37-2.26 2.32-3.85 2.6l-7.04 1.27c-.69.12-1.18.71-1.18 1.4 0 .78.64 1.43 1.43 1.43h9.16c2.94 0 5.49-2.06 6.11-4.95l.42-1.97c.08-.41.48-.67.89-.58 .4.08.66.48.57.89l-.43 1.96c-.77 3.57-3.93 6.12-7.58 6.12H4.08c-1.62 0-2.94-1.32-2.94-2.94 0-1.42 1.01-2.63 2.4-2.89l7.03-1.28c1.17-.22 2.2-.92 2.84-1.93l3.17-5.08Z"/><path d="M18.26 3.37c.06-.37.37-.63.73-.63h3c.21 0 .41.09.55.24 .14.15.21.37.18.58l-.5 4.5c-.05.41-.42.7-.83.66 -.42-.05-.71-.42-.67-.83l.4-3.67h-1.53l-.4 2.37c-.07.4-.46.68-.87.61 -.41-.07-.69-.46-.62-.87l.5-3Z"/></g></svg>