<svg viewBox="0 0 24 24" xmlns="http://www.w3.org/2000/svg"><g fill-rule="evenodd"><path d="M11.25 5c0-2.08 1.67-3.75 3.75-3.75h5c.41 0 .75.33.75.75v1c0 2.07-1.68 3.75-3.75 3.75h-5c-.42 0-.75-.34-.75-.75V5ZM15 2.75c-1.25 0-2.25 1-2.25 2.25v.25H17c1.24 0 2.25-1.01 2.25-2.25v-.25H15Z"/><path d="M11.25 6c0-.42.33-.75.75-.75 4.83 0 8.75 3.91 8.75 8.75 0 4.83-3.92 8.75-8.75 8.75 -4.84 0-8.75-3.92-8.75-8.75 0-3.24 1.76-6.07 4.37-7.58 .35-.21.81-.09 1.02.27 .2.35.08.81-.28 1.02 -2.17 1.25-3.63 3.59-3.63 6.28 0 4 3.24 7.25 7.25 7.25 4 0 7.25-3.25 7.25-7.25 0-4.01-3.25-7.25-7.25-7.25 -.42 0-.75-.34-.75-.75Z"/><path d="M9.75 17.49c-.01 0-.01 0-.01 0s0 0 0 0 0 0 0 .01 .02.04.05.08c.06.08.19.18.4.29 .41.2 1.04.36 1.78.36 .73 0 1.36-.16 1.78-.37 .2-.11.33-.21.4-.3 .03-.04.04-.07.05-.09 0-.01 0-.02 0-.02 0-.01 0-.01 0-.01 0-.01 0-.01-.01-.01 -.01-.01-.01-.01-.01-.02 -.01-.02-.03-.05-.06-.09 -.07-.09-.2-.19-.41-.3 -.42-.21-1.05-.37-1.79-.37s-1.37.15-1.79.36c-.21.1-.34.2-.41.29 -.04.03-.05.06-.06.08 -.01 0-.01.01-.01.01Zm-.21-1.73c.66-.34 1.53-.52 2.45-.52 .91 0 1.78.18 2.45.51 .62.31 1.29.88 1.29 1.73s-.68 1.42-1.3 1.73c-.67.33-1.54.51-2.46.51 -.92 0-1.79-.19-2.46-.52 -.63-.32-1.3-.89-1.3-1.74 0-.86.67-1.43 1.29-1.74Z"/></g></svg>