<svg viewBox="0 0 24 24" xmlns="http://www.w3.org/2000/svg"><g fill-rule="evenodd"><path d="M19.29 5.35c-1.27-1.27-3.327-1.27-4.6 0l-9.35 9.34c-1.27 1.26-1.27 3.327 0 4.59l.75.75c.48.48 1.27.48 1.76 0l.08-.09c.29-.3.76-.3 1.06 0 .29.29.29.76 0 1.06l-.09.08c-1.08 1.07-2.82 1.07-3.89 0l-.76-.76c-1.86-1.86-1.86-4.87 0-6.72l9.34-9.35c1.85-1.86 4.86-1.86 6.71 0l.75.75c1.07 1.07 1.07 2.81 0 3.88l-8.09 8.08c-.3.29-.77.29-1.07 0 -.3-.3-.3-.77 0-1.07l8.08-8.09c.48-.49.48-1.28 0-1.77l-.76-.76Z"/><path d="M10.5 7.75c.41 0 .75.33.75.75v5c0 .41-.34.75-.75.75 -.42 0-.75-.34-.75-.75v-5c0-.42.33-.75.75-.75Z"/><path d="M7 11.25c.41 0 .75.33.75.75v5c0 .41-.34.75-.75.75 -.42 0-.75-.34-.75-.75v-5c0-.42.33-.75.75-.75Z"/><path d="M14 4.25c.41 0 .75.33.75.75v5c0 .41-.34.75-.75.75 -.42 0-.75-.34-.75-.75V5c0-.42.33-.75.75-.75Z"/></g></svg>