<svg viewBox="0 0 24 24" xmlns="http://www.w3.org/2000/svg"><g fill-rule="evenodd"><path d="M5 2.75c-1.25 0-2.25 1-2.25 2.25v.96c0 .92.56 1.74 1.41 2.08l.61.24c.28.11.47.38.47.69v7.5c0 .41-.34.75-.75.75 -.42 0-.75-.34-.75-.75v-7l-.15-.06c-1.43-.57-2.36-1.95-2.36-3.49v-.97c0-2.08 1.67-3.75 3.75-3.75h14c2.07 0 3.75 1.67 3.75 3.75v.96c0 1.53-.94 2.91-2.36 3.48l-.15.05v12.49c0 .41-.34.75-.75.75h-15c-.42 0-.75-.34-.75-.75v-1.5c0-.42.33-.75.75-.75 .41 0 .75.33.75.75v.75h13.5V8.93c0-.31.18-.59.47-.7l.61-.25c.85-.35 1.41-1.17 1.41-2.09v-.97c0-1.25-1.01-2.25-2.25-2.25h-14Z"/><path d="M9 6.75c-.7 0-1.25.55-1.25 1.25v2.46c0 .21.05.43.16.62l1.47 2.57c.23.41.36.88.36 1.36v1.96c0 .69.55 1.25 1.25 1.25h2c.69 0 1.25-.56 1.25-1.25v-1c0-.87.4-1.69 1.1-2.2l.4-.3c.31-.24.5-.61.5-1v-1c0-.42-.34-.75-.75-.75 -1.25 0-2.25-1.01-2.25-2.25v-.5c0-.7-.56-1.25-1.25-1.25h-3ZM6.25 8c0-1.52 1.23-2.75 2.75-2.75h3c1.51 0 2.75 1.23 2.75 2.75v.5c0 .41.33.75.75.75 1.24 0 2.25 1 2.25 2.25v1c0 .86-.41 1.68-1.1 2.2l-.4.3c-.32.23-.5.6-.5 1v1c0 1.51-1.24 2.75-2.75 2.75h-2c-1.52 0-2.75-1.24-2.75-2.75v-1.97c0-.22-.06-.44-.17-.63L6.6 11.82c-.24-.42-.37-.89-.37-1.37V7.98Z"/></g></svg>