<svg viewBox="0 0 24 24" xmlns="http://www.w3.org/2000/svg"><g fill-rule="evenodd"><path d="M8.39 11.6c-1.04 1.71-1.65 3.77-1.65 5.14 0 2.18 1.58 3.87 3.9 4.36 .4.08.66.48.57.88 -.09.4-.49.66-.89.57 -2.87-.61-5.1-2.8-5.1-5.84 0-1.72.72-4.04 1.86-5.93 .57-.96 1.27-1.84 2.07-2.48 .8-.65 1.75-1.1 2.8-1.1 1.05 0 2 .44 2.8 1.09 .8.64 1.5 1.52 2.07 2.47 1.13 1.88 1.86 4.2 1.86 5.92 0 2.61-1.68 4.62-3.99 5.5 -.39.14-.83-.05-.97-.44 -.15-.39.04-.83.43-.97 1.82-.7 3.01-2.21 3.01-4.11 0-1.38-.62-3.44-1.65-5.15 -.52-.85-1.11-1.58-1.74-2.09 -.63-.51-1.26-.77-1.87-.77 -.61 0-1.24.25-1.87.76 -.64.5-1.23 1.23-1.74 2.08Z"/><path d="M8.42 1.52c.19-.25.52-.34.81-.24l3.26 1.08c1.93.64 3.24 2.46 3.24 4.5v2.61c0 .41-.34.75-.75.75 -.42 0-.75-.34-.75-.75V6.85c0-1.4-.9-2.65-2.23-3.09l-1.41-.47 .22.4c.62 1.08.65 2.41.09 3.53L9.61 9.78c-.19.37-.64.52-1.01.33 -.38-.19-.53-.64-.34-1.01l1.28-2.57c.33-.68.31-1.47-.06-2.13L8.27 2.29c-.16-.27-.13-.61.07-.85Z"/><path d="M5.92 6.25c.29-.03.57.11.72.37l2 3.5c.2.35.08.81-.28 1.02 -.36.2-.82.08-1.03-.28L6.16 8.81l-.89 2.64c-.27.8-.06 1.69.54 2.3l.68.68c.29.29.29.76 0 1.06 -.3.29-.77.29-1.07 0l-.69-.69c-1.01-1.01-1.36-2.49-.91-3.84l1.41-4.25c.09-.29.34-.49.63-.51Z"/><path d="M18.07 6.25c-.3-.03-.58.11-.73.37l-2 3.5c-.21.35-.09.81.27 1.02 .35.2.81.08 1.02-.28l1.16-2.05 .88 2.64c.26.8.05 1.69-.55 2.3l-.69.68c-.3.29-.3.76 0 1.06 .29.29.76.29 1.06 0l.68-.69c1-1.01 1.35-2.49.9-3.84l-1.42-4.25c-.1-.29-.35-.49-.64-.51Z"/><path d="M1.5 14.43c.22-.2.55-.24.82-.11l4 2c.37.18.52.63.33 1s-.64.52-1.01.33l-2.39-1.2 .62 1.88c.37 1.12 1.42 1.88 2.6 1.88h1.47c.41 0 .75.33.75.75 0 .41-.34.75-.75.75H6.46c-1.83 0-3.46-1.18-4.04-2.91l-1.21-3.61c-.1-.29-.01-.61.22-.81Z"/><path d="M22.49 14.43c-.23-.2-.56-.24-.83-.11l-4 2c-.38.18-.53.63-.34 1 .18.37.63.52 1 .33l2.38-1.2 -.63 1.88c-.38 1.12-1.43 1.88-2.61 1.88h-1.48c-.42 0-.75.33-.75.75 0 .41.33.75.75.75h1.47c1.82 0 3.45-1.18 4.03-2.91l1.2-3.61c.09-.29 0-.61-.23-.81Z"/><path d="M10.94 12.25c.28-.03.55.11.69.36l3 5c.21.35.09.81-.26 1.029 -.36.21-.82.09-1.029-.26l-2.24-3.73 -1.44 3.46c-.16.38-.6.56-.98.4 -.39-.16-.57-.6-.41-.98l2-4.84c.1-.27.35-.45.63-.47Z"/></g></svg>