<svg viewBox="0 0 24 24" xmlns="http://www.w3.org/2000/svg"><g fill-rule="evenodd"><path d="M17 13.75c.41 0 .75.33.75.75 0 2.89-2.36 5.25-5.25 5.25 -.42 0-.75-.34-.75-.75 0-.42.33-.75.75-.75 2.07 0 3.75-1.68 3.75-3.75 0-.42.33-.75.75-.75Z"/><path d="M6.99 6.96c-1.41 2.48-2.25 5.48-2.25 7.53 0 3.94 3.18 6.75 7.25 6.75 4.06 0 7.25-2.81 7.25-6.75 0-.42.33-.75.75-.75 .41 0 .75.33.75.75 0 4.89-3.99 8.25-8.75 8.25 -4.77 0-8.75-3.36-8.75-8.25 0-2.37.94-5.62 2.43-8.28 .75-1.34 1.66-2.57 2.7-3.47 1.04-.9 2.26-1.52 3.6-1.52 1.97 0 3.69 1.32 5 3 1.33 1.7 2.38 3.91 3.02 6.02 .12.39-.11.81-.5.93 -.4.12-.82-.11-.94-.5 -.61-1.98-1.58-4.02-2.78-5.54 -1.22-1.55-2.54-2.44-3.83-2.44 -.87 0-1.76.39-2.63 1.14 -.88.75-1.69 1.82-2.38 3.06Z"/></g></svg>