<svg viewBox="0 0 24 24" xmlns="http://www.w3.org/2000/svg"><g fill-rule="evenodd"><path d="M3.42 10.51c.14-.18.35-.27.57-.27h16c.22 0 .43.09.57.26 .14.17.2.39.16.61l-2 11c-.07.35-.38.61-.74.61h-12c-.37 0-.68-.26-.74-.62l-.78-4.25c-.08-.41.19-.8.6-.88 .4-.08.79.19.87.6l.66 3.63h10.74l1.72-9.5H4.84l.29 1.61c.07.4-.2.798-.61.87 -.41.07-.8-.2-.88-.61l-.46-2.5c-.04-.22.01-.45.16-.62Z"/><path d="M9.75 3c0-.42.33-.75.75-.75h3c.41 0 .75.33.75.75v8c0 .41-.34.75-.75.75h-3c-.42 0-.75-.34-.75-.75V3Zm1.5.75v6.5h1.5v-6.5h-1.5Z"/><path d="M12.75 4.5c0-.42.33-.75.75-.75h3c.41 0 .75.33.75.75V11c0 .41-.34.75-.75.75h-3c-.42 0-.75-.34-.75-.75V4.5Zm1.5.75v5h1.5v-5h-1.5Z"/><path d="M11.25 4.5c0-.42-.34-.75-.75-.75h-3c-.42 0-.75.33-.75.75V11c0 .41.33.75.75.75h3c.41 0 .75-.34.75-.75V4.5Zm-1.5.75v5h-1.5v-5h1.5Z"/><path d="M15.75 6c0-.42.33-.75.75-.75h3c.41 0 .75.33.75.75v5c0 .41-.34.75-.75.75h-3c-.42 0-.75-.34-.75-.75V6Zm1.5.75v3.5h1.5v-3.5h-1.5Z"/><path d="M8.25 6c0-.42-.34-.75-.75-.75h-3c-.42 0-.75.33-.75.75v5c0 .41.33.75.75.75h3c.41 0 .75-.34.75-.75V6Zm-1.5.75v3.5h-1.5v-3.5h1.5Z"/><path d="M12 14.75c-1.14 0-1.75.7-1.75 1.25 0 .54.61 1.25 1.75 1.25 1.13 0 1.75-.71 1.75-1.25 0-.55-.62-1.25-1.75-1.25ZM8.75 16c0-1.67 1.61-2.75 3.25-2.75 1.63 0 3.25 1.08 3.25 2.75 0 1.66-1.62 2.75-3.25 2.75 -1.64 0-3.25-1.09-3.25-2.75Z"/></g></svg>