<svg viewBox="0 0 24 24" xmlns="http://www.w3.org/2000/svg"><g fill-rule="evenodd"><path d="M8.5 2.75c-3.18 0-5.75 2.57-5.75 5.75v1.08c0 1.54.81 2.97 2.13 3.77l.48.29c1.47.88 2.37 2.48 2.37 4.2 0 1.87 1.52 3.4 3.4 3.4h.79c1.11 0 2.18-.45 2.96-1.24l1.78-1.79c.59-.6 1.34-1.02 2.15-1.23l.93-.24c.85-.22 1.44-.98 1.44-1.86 0-.64-.32-1.24-.86-1.59l-1.07-.72c-1.62-1.08-2.59-2.89-2.59-4.83v-.26c0-2.65-2.15-4.79-4.79-4.79H8.4Zm0-1.5c-4.01 0-7.25 3.24-7.25 7.25v1.08c0 2.07 1.08 3.99 2.86 5.05l.48.29c1.02.61 1.65 1.72 1.65 2.91 0 2.7 2.19 4.9 4.9 4.9h.79c1.51 0 2.96-.61 4.03-1.67l1.78-1.79c.4-.41.9-.69 1.46-.83l.93-.24c1.51-.38 2.58-1.75 2.58-3.31 0-1.14-.57-2.21-1.52-2.84l-1.07-.72c-1.2-.8-1.92-2.15-1.92-3.59v-.26c0-3.48-2.82-6.29-6.29-6.29H8.44Z"/><path d="M10 5.25C7.92 5.25 6.25 6.92 6.25 9c0 2.07 1.67 3.75 3.75 3.75 .62 0 1.205-.16 1.71-.42 .36-.2.82-.05 1.01.32 .19.36.04.82-.33 1.01 -.73.37-1.55.58-2.41.58 -2.9 0-5.25-2.36-5.25-5.25 0-2.9 2.35-5.25 5.25-5.25 2.89 0 5.25 2.35 5.25 5.25 0 .41-.34.75-.75.75 -.42 0-.75-.34-.75-.75 0-2.08-1.68-3.75-3.75-3.75Z"/><path d="M8.75 7c0-.42.33-.75.75-.75 1.79 0 3.25 1.45 3.25 3.25 0 .41-.34.75-.75.75 -.42 0-.75-.34-.75-.75 0-.97-.79-1.75-1.75-1.75 -.42 0-.75-.34-.75-.75Z"/></g></svg>