<svg viewBox="0 0 24 24" xmlns="http://www.w3.org/2000/svg"><g fill-rule="evenodd"><path d="M4.25 6c0-2.63 2.12-4.75 4.75-4.75h6c2.62 0 4.75 2.12 4.75 4.75v3.73c0 1.66-.88 3.21-2.31 4.07l-1.12.66c-.98.58-1.58 1.64-1.58 2.78v.73c0 2.62-2.13 4.75-4.75 4.75H8.98c-2.63 0-4.75-2.13-4.75-4.75v-4c0-.42.33-.75.75-.75 .41 0 .75.33.75.75v4c0 1.79 1.45 3.25 3.25 3.25h1c1.795 0 3.25-1.46 3.25-3.25v-.74c0-1.67.87-3.22 2.3-4.08l1.11-.67c.97-.59 1.57-1.65 1.57-2.79V5.95c0-1.8-1.46-3.25-3.25-3.25H8.95c-1.8 0-3.25 1.45-3.25 3.25v4c0 .41-.34.75-.75.75 -.42 0-.75-.34-.75-.75v-4Z"/><path d="M11.5 5.75c-.42 0-.75.33-.75.75 0 .41.33.75.75.75 .41 0 .75-.34.75-.75 0-.42-.34-.75-.75-.75Zm-2.25.75c0-1.25 1-2.25 2.25-2.25 1.24 0 2.25 1 2.25 2.25 0 1.24-1.01 2.25-2.25 2.25 -1.25 0-2.25-1.01-2.25-2.25Z"/></g></svg>