<svg viewBox="0 0 24 24" xmlns="http://www.w3.org/2000/svg"><g fill-rule="evenodd"><path d="M9.25 2c0-.42.33-.75.75-.75h4c.41 0 .75.33.75.75v3c0 .41-.34.75-.75.75h-4c-.42 0-.75-.34-.75-.75V2Zm1.5.75v1.5h2.5v-1.5h-2.5Z"/><path d="M9.46 4.46c.14-.15.33-.22.53-.22h4c.19 0 .38.07.53.21l2.41 2.41c.51.51.8 1.21.8 1.94v.17c0 .41-.34.75-.75.75 -.42 0-.75-.34-.75-.75v-.18c0-.34-.14-.65-.37-.89l-2.2-2.2h-3.38l-2.2 2.19c-.24.23-.37.55-.37.88v4.11c0 .22.06.44.17.64l.65 1.08c.48.8.52 1.8.1 2.64l-.8 1.59c-.09.17-.14.36-.14.55v1.77h8.5v-1.78c0-.2-.05-.39-.14-.56l-.8-1.6c-.43-.85-.39-1.84.1-2.65l.65-1.09c.11-.2.17-.42.17-.65v-.45c0-.42.33-.75.75-.75 .41 0 .75.33.75.75v.44c0 .49-.14.98-.4 1.41l-.66 1.08c-.22.36-.24.81-.05 1.2l.79 1.59c.19.38.29.8.29 1.22v2.52c0 .41-.34.75-.75.75h-10c-.42 0-.75-.34-.75-.75V19.3c0-.43.09-.85.29-1.23l.79-1.6c.19-.39.17-.84-.05-1.21l-.66-1.09c-.26-.43-.4-.92-.4-1.42V8.63c0-.73.28-1.43.8-1.95l2.41-2.42Z"/><path d="M12.55 7.99l-.56.5 -.56-.51c.14-.16.34-.25.55-.25 .21 0 .41.09.55.24Zm-.56 1.68c-.05.06-.1.12-.15.19 -.18.24-.35.49-.46.72 -.06.11-.1.2-.13.28 -.03.07-.03.1-.03.11 0 0 0 0 0 0 0 .41.33.75.75.75 .41 0 .75-.34.75-.75 0 0 0 0 0 0 -.01-.01-.01-.04-.03-.12 -.03-.08-.07-.18-.13-.29 -.12-.23-.29-.49-.46-.73 -.05-.07-.1-.13-.15-.2Zm0-1.19c-.56-.51-.56-.51-.56-.51l-.01 0 -.01 0 -.02.01c-.02.01-.03.03-.06.05 -.05.05-.11.12-.19.21 -.15.17-.35.42-.55.7 -.2.27-.41.59-.58.91 -.16.29-.32.68-.32 1.08 0 1.24 1 2.25 2.25 2.25 1.24 0 2.25-1.01 2.25-2.25 0-.4-.17-.79-.32-1.09 -.17-.32-.38-.64-.58-.92 -.21-.28-.4-.53-.55-.71 -.08-.09-.14-.17-.19-.22 -.03-.03-.04-.05-.06-.06l-.02-.02 -.01-.01 -.01-.01c-.01-.01-.01-.01-.56.5Z"/></g></svg>