<svg viewBox="0 0 24 24" xmlns="http://www.w3.org/2000/svg"><g fill-rule="evenodd"><path d="M7 16.25c-1.25 0-2.25-1.01-2.25-2.25v-.25H5c.11 0 .23-.03.33-.08l3.57-1.79c.17-.09.36-.14.55-.14h5.05c.19 0 .38.04.55.13l3.57 1.78c.1.05.21.07.33.07h.25v.25c0 1.24-1.01 2.25-2.25 2.25h-4c-.42 0-.75.33-.75.75 0 .41.33.75.75.75h4c2.07 0 3.75-1.68 3.75-3.75v-1c0-.42-.34-.75-.75-.75h-.83l-3.42-1.71c-.39-.2-.81-.3-1.23-.3H9.41c-.43 0-.85.09-1.23.29l-3.42 1.7h-.83c-.42 0-.75.33-.75.75v1c0 2.07 1.67 3.75 3.75 3.75h2c.41 0 .75-.34.75-.75 0-.42-.34-.75-.75-.75h-2Z"/><path d="M6.98 6.13c3.08-1.86 6.94-1.86 10.03 0l4.43 2.66c.8.48 1.29 1.34 1.29 2.28 0 1.47-1.2 2.66-2.67 2.66h-.62c-.43 0-.85-.1-1.23-.3l-3.16-1.58c-.18-.09-.37-.14-.56-.14H9.43c-.2 0-.39.04-.56.13l-3.16 1.57c-.39.19-.81.29-1.23.29h-.62c-1.48 0-2.67-1.2-2.67-2.67 0-.94.49-1.81 1.29-2.29l4.43-2.67Zm9.26 1.28c-2.62-1.57-5.88-1.57-8.49 0l-4.44 2.66c-.36.21-.57.59-.57.99 0 .64.52 1.16 1.16 1.16h.61c.19 0 .38-.05.55-.14l3.15-1.58c.38-.2.8-.3 1.22-.3h5.05c.42 0 .84.09 1.22.29l3.15 1.57c.17.08.36.13.55.13h.61c.64 0 1.16-.53 1.16-1.17 0-.41-.22-.79-.57-1l-4.44-2.67Z"/><path d="M4.06 7.88c.33-.25.8-.17 1.04.17l2.5 3.5c.24.33.16.8-.18 1.04 -.34.24-.81.16-1.05-.18l-2.5-3.5c-.25-.34-.17-.81.17-1.05Z"/><path d="M19.93 7.88c-.34-.25-.81-.17-1.05.17l-2.5 3.5c-.25.33-.17.8.17 1.04 .33.24.8.16 1.04-.18l2.5-3.5c.24-.34.16-.81-.18-1.05Z"/><path d="M9.42 5.25c.41-.05.77.25.82.67l.5 5c.04.41-.26.77-.68.82 -.42.04-.78-.26-.83-.68l-.5-5c-.05-.42.25-.78.67-.83Z"/><path d="M14.57 5.25c-.42-.05-.78.25-.83.67l-.5 5c-.05.41.25.77.67.82 .41.04.77-.26.82-.68l.5-5c.04-.42-.26-.78-.68-.83Z"/></g></svg>