<svg viewBox="0 0 24 24" xmlns="http://www.w3.org/2000/svg"><g fill-rule="evenodd"><path d="M3.66 10.78c-.6 1.14-.92 2.19-.92 3.01 0 2.21.97 3.78 2.58 4.83 1.64 1.07 3.98 1.61 6.66 1.61 2.67 0 5.01-.55 6.66-1.62 1.6-1.05 2.58-2.62 2.58-4.84 0-.42.33-.75.75-.75 .41 0 .75.33.75.75 0 2.75-1.26 4.78-3.27 6.09 -1.98 1.28-4.64 1.85-7.49 1.85 -2.85 0-5.51-.58-7.49-1.86 -2.02-1.31-3.27-3.35-3.27-6.1 0-1.17.43-2.46 1.08-3.71 .65-1.27 1.56-2.55 2.6-3.69 1.03-1.15 2.21-2.17 3.4-2.92 1.18-.74 2.45-1.25 3.65-1.25 1.71 0 3.58 1.02 5.21 2.37 1.65 1.37 3.17 3.19 4.2 5 .2.36.07.81-.29 1.02 -.37.2-.82.07-1.03-.29 -.94-1.66-2.35-3.34-3.87-4.6 -1.55-1.29-3.08-2.03-4.26-2.03 -.81 0-1.8.34-2.87 1.01 -1.06.65-2.13 1.58-3.1 2.64 -.97 1.06-1.8 2.23-2.39 3.36Z"/><path d="M7.25 11c0-.42.33-.75.75-.75h8c.41 0 .75.33.75.75v9.5c0 .41-.34.75-.75.75 -.42 0-.75-.34-.75-.75v-8.75h-6.5v8.75c0 .41-.34.75-.75.75 -.42 0-.75-.34-.75-.75V11Z"/></g></svg>