<svg viewBox="0 0 24 24" xmlns="http://www.w3.org/2000/svg"><g fill-rule="evenodd"><path d="M12 2.75c-5.11 0-9.25 4.14-9.25 9.25 0 5.1 4.14 9.25 9.25 9.25 5.1 0 9.25-4.15 9.25-9.25 0-3.8-2.29-7.06-5.56-8.49 -.38-.17-.56-.61-.39-.99 .16-.38.6-.56.98-.39 3.79 1.65 6.44 5.44 6.44 9.85 0 5.93-4.82 10.75-10.75 10.75 -5.94 0-10.75-4.82-10.75-10.75 0-5.94 4.81-10.75 10.75-10.75 .41 0 .75.33.75.75 0 .41-.34.75-.75.75Z"/><path d="M12 5.75c-3.46 0-6.25 2.79-6.25 6.25 0 3.45 2.79 6.25 6.25 6.25 3.45 0 6.25-2.8 6.25-6.25 0-3.46-2.8-6.25-6.25-6.25ZM4.25 12c0-4.29 3.46-7.75 7.75-7.75 4.28 0 7.75 3.46 7.75 7.75 0 4.28-3.47 7.75-7.75 7.75 -4.29 0-7.75-3.47-7.75-7.75Z"/><path d="M8.46 7.96c.29-.3.76-.3 1.06 0l1.99 2c.29.29.29.76 0 1.06 -.3.29-.77.29-1.07 0l-2.01-2c-.3-.3-.3-.77 0-1.07Z"/><path d="M6.46 11.46c.29-.3.76-.3 1.06 0l2 2c.29.29.29.76 0 1.06 -.3.29-.77.29-1.07 0l-2-2c-.3-.3-.3-.77 0-1.07Z"/><path d="M16.03 8.46c-.3-.3-.77-.3-1.07 0l-2 2c-.3.29-.3.76 0 1.06 .29.29.76.29 1.06 0l2-2c.29-.3.29-.77 0-1.07Z"/><path d="M17.03 12.46c-.3-.3-.77-.3-1.07 0l-2 2c-.3.29-.3.76 0 1.06 .29.29.76.29 1.06 0l2-2c.29-.3.29-.77 0-1.07Z"/><path d="M13.03 13.46c-.3-.3-.77-.3-1.07 0l-2.01 2c-.3.29-.3.76 0 1.06 .29.29.76.29 1.06 0l2-2c.29-.3.29-.77 0-1.07Z"/></g></svg>