<svg viewBox="0 0 24 24" xmlns="http://www.w3.org/2000/svg"><g fill-rule="evenodd"><path d="M6.01 9.07c.76-1.1 2.04-1.83 3.48-1.83h5c2.34 0 4.25 1.9 4.25 4.25v7c0 2.34-1.91 4.25-4.25 4.25h-5c-2.35 0-4.25-1.91-4.25-4.25v-5c0-.42.33-.75.75-.75 .41 0 .75.33.75.75v5c0 1.51 1.23 2.75 2.75 2.75h5c1.51 0 2.75-1.24 2.75-2.75v-7c0-1.52-1.24-2.75-2.75-2.75h-5c-.94 0-1.76.46-2.26 1.17 -.24.33-.71.42-1.05.18 -.34-.24-.43-.71-.19-1.05Z"/><path d="M12 1.25c.25 0 .48.12.62.33l1.58 2.37 2.37-1.59c.25-.17.58-.17.83 0 .25.16.37.47.31.77l-1 5c-.08.35-.38.6-.74.6h-8c-.36 0-.67-.26-.74-.61l-1-5c-.06-.3.06-.61.31-.78 .25-.17.58-.17.83-.01l2.37 1.58 1.58-2.38c.13-.21.37-.34.62-.34Zm0 2.1l-1.38 2.06c-.23.34-.7.43-1.05.2l-1.5-1 .52 2.62h6.77l.52-2.63 -1.5.99c-.35.22-.82.13-1.05-.21l-1.38-2.07Z"/><path d="M16.97 8.91c.32.26.36.73.1 1.05l-9.01 11c-.27.32-.74.36-1.06.1 -.33-.27-.37-.74-.11-1.06l9-11c.26-.33.73-.37 1.05-.11Z"/><path d="M7.02 8.91c.32-.27.79-.22 1.05.1l9 11c.26.32.21.79-.11 1.05 -.33.26-.8.21-1.06-.11l-9.01-11c-.27-.33-.22-.8.1-1.06Z"/><path d="M10.5 7.43c.31-.28.78-.25 1.05.07l7 7.99c.27.31.24.78-.08 1.05s-.79.24-1.06-.08l-7-8.01c-.28-.32-.25-.79.07-1.06Z"/><path d="M5.5 13.43c.31-.28.78-.25 1.05.07l6.99 8c.27.31.24.78-.08 1.05s-.79.24-1.06-.08l-7.01-8c-.28-.32-.25-.79.07-1.06Z"/></g></svg>