<svg viewBox="0 0 24 24" xmlns="http://www.w3.org/2000/svg"><g fill-rule="evenodd"><path d="M11.25 5c0-2.08 1.67-3.75 3.75-3.75h5c.41 0 .75.33.75.75v1c0 2.07-1.68 3.75-3.75 3.75h-5c-.42 0-.75-.34-.75-.75V5ZM15 2.75c-1.25 0-2.25 1-2.25 2.25v.25H17c1.24 0 2.25-1.01 2.25-2.25v-.25H15Z"/><path d="M7.25 2c0-.42.33-.75.75-.75h2c1.51 0 2.75 1.23 2.75 2.75v2c0 .41-.34.75-.75.75 -.42 0-.75-.34-.75-.75V4c0-.7-.56-1.25-1.25-1.25H8c-.42 0-.75-.34-.75-.75Z"/><path d="M9 6.75c-3.37 0-6.25 3.14-6.25 7.25 0 2.5 1.09 4.68 2.71 5.97 .32.25.37.73.11 1.05 -.26.32-.74.37-1.06.11 -2.01-1.6-3.29-4.22-3.29-7.16 0-4.74 3.37-8.75 7.75-8.75 1.06 0 2.07.24 3 .67 .92-.44 1.93-.68 3-.68 4.37 0 7.75 4.01 7.75 8.75 0 4.73-3.38 8.75-7.75 8.75h-6c-.42 0-.75-.34-.75-.75 0-.42.33-.75.75-.75h6c3.36 0 6.25-3.15 6.25-7.25 0-4.11-2.89-7.25-6.25-7.25 -.95 0-1.84.24-2.65.67 -.23.12-.5.12-.72 0 -.81-.44-1.7-.68-2.65-.68Z"/><path d="M12.46 9.9l-.47.59 -.47-.6c.27-.22.65-.22.92 0Zm-.47 8.59c-.47.59-.47.59-.47.59l-.01-.01 -.01-.01 -.01-.01 -.03-.03c-.03-.02-.06-.05-.11-.09 -.09-.08-.22-.18-.36-.31 -.3-.26-.69-.62-1.09-1.04 -.4-.42-.81-.91-1.13-1.42 -.31-.5-.59-1.1-.59-1.72 0-.63.27-1.23.58-1.72 .31-.52.73-1.01 1.12-1.42 .39-.42.78-.79 1.08-1.04 .14-.13.27-.24.35-.31 .04-.04.07-.07.1-.09l.02-.03 0-.01 0-.01 0-.01c0-.01 0 0 .46.59 .46-.6.46-.6.46-.6l0 0 0 0 0 0 .02.02c.02.01.05.04.1.08 .08.07.21.17.35.3 .29.25.68.61 1.08 1.03 .39.41.8.9 1.12 1.41 .3.49.58 1.09.58 1.71 0 .62-.28 1.22-.59 1.71 -.32.51-.74 1-1.13 1.41 -.4.41-.79.78-1.09 1.03 -.15.12-.28.23-.36.3 -.05.03-.08.06-.11.08l-.03.02 -.01 0 -.01 0 -.01 0c-.01 0-.01 0-.47-.6Zm0 0l-.47.59c.27.21.65.21.92-.01l-.47-.6Zm0-.98c.26-.24.61-.56.95-.92 .35-.38.69-.79.93-1.18 .25-.41.35-.73.35-.93 0-.21-.11-.52-.36-.93 -.25-.4-.59-.81-.94-1.18 -.35-.37-.69-.69-.96-.92 -.27.23-.62.55-.96.91 -.36.37-.7.78-.94 1.17 -.26.4-.36.72-.36.92 0 .2.1.51.35.92 .24.39.58.8.93 1.17 .34.36.68.68.95.91Z"/></g></svg>