<svg viewBox="0 0 24 24" xmlns="http://www.w3.org/2000/svg"><g fill-rule="evenodd"><path d="M9.75 17c0-.42.33-.75.75-.75h3c.41 0 .75.33.75.75v3.5c0 1.24-1.01 2.25-2.25 2.25 -1.25 0-2.25-1.01-2.25-2.25V17Zm1.5.75v2.75c0 .41.33.75.75.75 .41 0 .75-.34.75-.75v-2.75h-1.5Z"/><path d="M6.75 17c0 .41.33.75.75.75h9c.41 0 .75-.34.75-.75V5.5c0-2.35-1.91-4.25-4.25-4.25h-2c-2.35 0-4.25 1.9-4.25 4.25v6c0 .41.33.75.75.75 .41 0 .75-.34.75-.75v-6c0-1.52 1.23-2.75 2.75-2.75h2c1.51 0 2.75 1.23 2.75 2.75v10.75h-7.5v-.75c0-.42-.34-.75-.75-.75 -.42 0-.75.33-.75.75V17Z"/><path d="M6.75 6c0-.42.33-.75.75-.75H9c1.51 0 2.75 1.23 2.75 2.75v4.75c0 .27.22.5.5.5 .27 0 .5-.23.5-.5V11c0-1.52 1.23-2.75 2.75-2.75h1c.41 0 .75.33.75.75 0 .41-.34.75-.75.75h-1c-.7 0-1.25.55-1.25 1.25v1.75c0 1.1-.9 2-2 2 -1.11 0-2-.9-2-2V8c0-.7-.56-1.25-1.25-1.25H7.5c-.42 0-.75-.34-.75-.75Z"/></g></svg>