<svg viewBox="0 0 24 24" xmlns="http://www.w3.org/2000/svg"><g fill-rule="evenodd"><path d="M9.3 1.72c.11-.29.38-.48.69-.48h1.68c2.32 0 4.54.92 6.18 2.56l2.31 2.31c1.64 1.64 2.56 3.86 2.56 6.18v1.68c0 .3-.19.58-.48.69l-5 2c-.39.15-.83-.04-.98-.42 -.16-.39.03-.83.41-.98l4.52-1.82v-1.18c0-1.93-.77-3.77-2.13-5.13l-2.32-2.32c-1.36-1.36-3.21-2.13-5.13-2.13h-1.18l-7.17 17.9 8.87-3.56c.38-.16.82.03.97.41 .15.38-.04.82-.42.97l-10.5 4.2c-.28.11-.6.04-.81-.17 -.22-.22-.28-.54-.17-.81l8-20Z"/><path d="M17 9.75c-.7 0-1.25.55-1.25 1.25 0 .69.55 1.25 1.25 1.25 .69 0 1.25-.56 1.25-1.25 0-.7-.56-1.25-1.25-1.25ZM14.25 11c0-1.52 1.23-2.75 2.75-2.75 1.51 0 2.75 1.23 2.75 2.75 0 1.51-1.24 2.75-2.75 2.75 -1.52 0-2.75-1.24-2.75-2.75Z"/><path d="M8 11.75c-.7 0-1.25.55-1.25 1.25 0 .69.55 1.25 1.25 1.25 .69 0 1.25-.56 1.25-1.25 0-.7-.56-1.25-1.25-1.25ZM5.25 13c0-1.52 1.23-2.75 2.75-2.75 1.51 0 2.75 1.23 2.75 2.75 0 1.51-1.24 2.75-2.75 2.75 -1.52 0-2.75-1.24-2.75-2.75Z"/><path d="M12 4.25c.41 0 .75.33.75.75v3c0 .41-.34.75-.75.75 -.42 0-.75-.34-.75-.75V5c0-.42.33-.75.75-.75Z"/></g></svg>