<svg viewBox="0 0 24 24" xmlns="http://www.w3.org/2000/svg"><g fill-rule="evenodd"><path d="M20.96 3.32c.03-.18-.12-.33-.3-.3l-5.59 1.11c-.15.02-.28.1-.39.2l-5.86 5.85c-.11.1-.18.23-.21.38l-.26 1.26c-.05.24.02.5.2.67l2.86 2.86c.17.17.43.25.67.2l1.26-.26c.14-.03.27-.11.38-.21l6.17-6.18c.29-.3.76-.3 1.06-.01 .29.29.29.76 0 1.06l-6.18 6.17c-.32.31-.72.52-1.15.61l-1.27.25c-.74.14-1.51-.09-2.04-.62l-2.87-2.87c-.54-.532-.77-1.3-.62-2.04l.25-1.27c.08-.44.3-.84.61-1.15l5.85-5.86c.31-.32.71-.53 1.14-.62l5.58-1.12c1.22-.25 2.3.83 2.05 2.05l-.41 2.02c-.09.4-.48.66-.89.58 -.41-.09-.67-.48-.59-.89l.4-2.03Z"/><path d="M6.25 5c0-1.25 1-2.25 2.25-2.25h6c.3 0 .57.18.69.46 .11.28.05.6-.17.81l-6 5.99c-.3.29-.77.29-1.07 0L6.88 8.94c-.43-.43-.66-1-.66-1.6V4.96Zm2.25-.75c-.42 0-.75.33-.75.75v2.37c0 .19.07.38.21.53l.53.53 4.18-4.19H8.48Z"/><path d="M19 17.75c1.24 0 2.25-1.01 2.25-2.25v-6c0-.31-.19-.58-.47-.7 -.29-.12-.61-.06-.82.16l-6 6c-.3.29-.3.76 0 1.06l1.06 1.06c.42.42.99.65 1.59.65h2.37Zm.75-2.25c0 .41-.34.75-.75.75h-2.38c-.2 0-.39-.08-.54-.22l-.54-.54 4.18-4.19v4.18Z"/><path d="M10.03 13.96c.29.29.29.76 0 1.06l-7.5 7.5c-.3.29-.77.29-1.07 0 -.3-.3-.3-.77 0-1.07l7.5-7.5c.29-.3.76-.3 1.06 0Z"/></g></svg>