<svg viewBox="0 0 24 24" xmlns="http://www.w3.org/2000/svg"><g fill-rule="evenodd"><path d="M22.53 1.46c.19.19.26.48.18.74l-1.65 5.5c-.12.39-.54.62-.94.5 -.4-.12-.63-.54-.51-.94l1.24-4.17L2.73 8.526c.28 6.87 5.8 12.4 12.684 12.68l2.98-9.96c.11-.4.53-.63.93-.51 .39.11.62.53.5.93l-3.15 10.5c-.1.31-.39.53-.72.53 -8.15 0-14.75-6.61-14.75-14.75 0-.34.21-.63.53-.72l20-6c.26-.08.55-.01.74.18Z"/><path d="M17.53 9.46c.29.29.29.76 0 1.06l-2 2c-.3.29-.77.29-1.07 0 -.3-.3-.3-.77 0-1.07l2-2.01c.29-.3.76-.3 1.06 0Z"/><path d="M14.53 6.46c.29.29.29.76 0 1.06l-2 2c-.3.29-.77.29-1.07 0 -.3-.3-.3-.77 0-1.07l2-2c.29-.3.76-.3 1.06 0Z"/><path d="M8.53 8.46c.29.29.29.76 0 1.06l-2 1.99c-.3.29-.77.29-1.07 0 -.3-.3-.3-.77 0-1.07l2-2.01c.29-.3.76-.3 1.06 0Z"/><path d="M11.53 12.46c.29.29.29.76 0 1.06l-2 2c-.3.29-.77.29-1.07 0 -.3-.3-.3-.77 0-1.07l2-2c.29-.3.76-.3 1.06 0Z"/><path d="M15.53 15.46c.29.29.29.76 0 1.06l-2 2c-.3.29-.77.29-1.07 0 -.3-.3-.3-.77 0-1.07l2-2c.29-.3.76-.3 1.06 0Z"/></g></svg>