<svg viewBox="0 0 24 24" xmlns="http://www.w3.org/2000/svg"><g fill-rule="evenodd"><path d="M4.4 13.53c.14-.19.36-.29.59-.29h14c.23 0 .44.1.59.28 .14.18.19.41.13.64l-2 8c-.09.33-.39.56-.73.56h-10c-.35 0-.65-.24-.73-.57l-.51-2.02c-.11-.41.14-.81.54-.91 .4-.11.8.14.9.54l.36 1.45h8.82l1.625-6.5H5.9l.39 1.57c.1.4-.15.8-.55.9 -.41.1-.81-.15-.91-.55l-.63-2.51c-.06-.23-.01-.47.13-.65Z"/><path d="M19.386 8.35c.35.21.47.67.25 1.029l-3 5c-.22.35-.68.47-1.029.25 -.36-.22-.48-.68-.26-1.029l3-5c.21-.36.67-.48 1.029-.26Z"/><path d="M4.61 8.35c-.36.21-.48.67-.26 1.029l3 5c.21.35.67.47 1.02.25 .35-.22.47-.68.25-1.029l-3-5c-.22-.36-.68-.48-1.029-.26Z"/><path d="M12 1.25c.41 0 .75.33.75.75v8c0 .41-.34.75-.75.75 -.42 0-.75-.34-.75-.75V2c0-.42.33-.75.75-.75Z"/><path d="M8.46 6.46c.29-.3.76-.3 1.06 0l2.46 2.46 2.46-2.47c.29-.3.76-.3 1.06 0 .29.29.29.76 0 1.06l-3 2.99c-.3.29-.77.29-1.07 0l-3.01-3c-.3-.3-.3-.77 0-1.07Z"/></g></svg>