<svg viewBox="0 0 24 24" xmlns="http://www.w3.org/2000/svg"><g fill-rule="evenodd"><path d="M12 2.75c-5.11 0-9.25 4.14-9.25 9.25 0 5.1 4.14 9.25 9.25 9.25 5.1 0 9.25-4.15 9.25-9.25 0-2.6-1.07-4.94-2.79-6.62 -.3-.29-.31-.77-.02-1.07 .28-.3.76-.31 1.06-.02 1.99 1.95 3.23 4.67 3.23 7.68 0 5.93-4.82 10.75-10.75 10.75 -5.94 0-10.75-4.82-10.75-10.75 0-5.94 4.81-10.75 10.75-10.75 1.08 0 2.12.16 3.11.45 .39.11.62.53.5.93 -.12.39-.54.62-.94.5 -.85-.26-1.75-.4-2.69-.4Z"/><path d="M4.65 4.33c.28-.3.76-.31 1.06-.02 1.99 1.95 3.22 4.67 3.22 7.67s-1.24 5.72-3.23 7.67c-.3.28-.78.28-1.07-.02 -.29-.3-.29-.78.01-1.07 1.71-1.68 2.77-4.02 2.77-6.61 0-2.59-1.07-4.93-2.78-6.61 -.3-.29-.31-.77-.02-1.07Z"/><path d="M19.34 19.668c-.29.29-.77.3-1.07.01 -2-1.96-3.23-4.68-3.23-7.68 0-3.01 1.23-5.73 3.22-7.68 .29-.29.77-.29 1.06.01 .28.29.28.77-.02 1.06 -1.72 1.67-2.78 4.01-2.78 6.6 0 2.58 1.06 4.92 2.77 6.6 .29.28.3.76.01 1.06Z"/><path d="M12 1.25c.41 0 .75.33.75.75v20c0 .41-.34.75-.75.75 -.42 0-.75-.34-.75-.75V2c0-.42.33-.75.75-.75Z"/><path d="M1.25 12c0-.42.33-.75.75-.75h20c.41 0 .75.33.75.75 0 .41-.34.75-.75.75H2c-.42 0-.75-.34-.75-.75Z"/></g></svg>