<svg viewBox="0 0 24 24" xmlns="http://www.w3.org/2000/svg"><g fill-rule="evenodd"><path d="M12 2.75c-5.11 0-9.25 4.14-9.25 9.25 0 5.1 4.14 9.25 9.25 9.25 .41 0 .75.33.75.75 0 .41-.34.75-.75.75 -5.94 0-10.75-4.82-10.75-10.75C1.25 6.06 6.06 1.25 12 1.25c5.93 0 10.75 4.81 10.75 10.75 0 3.92-2.11 7.36-5.26 9.23 -.26.15-.53.29-.8.42 -.38.18-.83.02-1.01-.35 -.19-.38-.03-.83.34-1.01 .23-.12.46-.24.68-.37 2.7-1.62 4.51-4.58 4.51-7.96 0-5.11-4.15-9.25-9.25-9.25Z"/><path d="M12 6.75C9.1 6.75 6.75 9.1 6.75 12c0 2.89 2.35 5.25 5.25 5.25 2.89 0 5.25-2.36 5.25-5.25 0-2.9-2.36-5.25-5.25-5.25ZM5.25 12c0-3.73 3.02-6.75 6.75-6.75 3.72 0 6.75 3.02 6.75 6.75 0 3.72-3.03 6.75-6.75 6.75 -3.73 0-6.75-3.03-6.75-6.75Z"/><path d="M9.25 10c0-.97.78-1.75 1.75-1.75h2c.96 0 1.75.78 1.75 1.75v4.34c0 .96-.79 1.75-1.75 1.75h-2c-.97 0-1.75-.79-1.75-1.75V9.99ZM11 9.75c-.14 0-.25.11-.25.25v1.25h2.5V10c0-.14-.12-.25-.25-.25h-2Zm2.25 3h-2.5v1.59c0 .13.11.25.25.25h2c.13 0 .25-.12.25-.25v-1.6Z"/></g></svg>