<svg viewBox="0 0 24 24" xmlns="http://www.w3.org/2000/svg"><g fill-rule="evenodd"><path d="M7.83 5.83c.98-.99 2.41-1.59 4.16-1.59 .41 0 .75-.34.75-.75 0-.42-.34-.75-.75-.75 -2.11 0-3.94.72-5.24 2.01 -1.3 1.29-2.02 3.12-2.02 5.23 0 .41.33.75.75.75 .41 0 .75-.34.75-.75 0-1.76.59-3.19 1.58-4.17Z"/><path d="M2.9 8.05c-.25.33-.19.8.15 1.05l2 1.49c.24.18.57.2.83.04l2.5-1.5c.35-.22.47-.68.25-1.03 -.22-.36-.68-.48-1.03-.26L5.53 9.08l-1.6-1.2c-.34-.25-.81-.19-1.05.15Z"/><path d="M5.25 13.94c.02-.4.35-.7.74-.7h6c.39 0 .72.3.74.69l.5 7c.01.2-.06.41-.2.56 -.15.15-.35.23-.55.23h-7c-.21 0-.41-.09-.55-.24 -.15-.16-.22-.36-.2-.57l.07-1.01c.02-.42.38-.73.8-.7 .41.02.72.38.69.8l-.02.2h5.38l-.4-5.5H6.64l-.1 1.3c-.03.41-.39.72-.81.69 -.42-.03-.73-.39-.7-.81l.14-2.01Z"/><path d="M6.25 13c0-1.52 1.23-2.75 2.75-2.75 1.51 0 2.75 1.23 2.75 2.75v1c0 .41-.34.75-.75.75H7c-.42 0-.75-.34-.75-.75v-1ZM9 11.75c-.7 0-1.25.55-1.25 1.25v.25h2.5V13c0-.7-.56-1.25-1.25-1.25Z"/><path d="M14.75 5.87c0-.9.72-1.63 1.62-1.63h3.12c.41 0 .75.33.75.75 0 .41-.34.75-.75.75h-3.13c-.07 0-.13.05-.13.12 0 .05.03.09.08.11l1.8.6c.66.22 1.1.84 1.1 1.53 0 .89-.73 1.62-1.63 1.62h-3.13c-.42 0-.75-.34-.75-.75 0-.42.33-.75.75-.75h3.12c.06 0 .12-.06.12-.13 0-.06-.04-.1-.09-.12l-1.81-.61c-.67-.23-1.11-.85-1.11-1.54Z"/><path d="M17 8.25c.41 0 .75.33.75.75v2c0 .41-.34.75-.75.75 -.42 0-.75-.34-.75-.75V9c0-.42.33-.75.75-.75Z"/><path d="M17 2.25c.41 0 .75.33.75.75v2c0 .41-.34.75-.75.75 -.42 0-.75-.34-.75-.75V3c0-.42.33-.75.75-.75Z"/></g></svg>