<svg viewBox="0 0 24 24" xmlns="http://www.w3.org/2000/svg"><g fill-rule="evenodd"><path d="M16 10.75c-2.9 0-5.25 2.35-5.25 5.25 0 2.89 2.35 5.25 5.25 5.25 2.89 0 5.25-2.36 5.25-5.25 0-2.9-2.36-5.25-5.25-5.25ZM9.25 16c0-3.73 3.02-6.75 6.75-6.75 3.72 0 6.75 3.02 6.75 6.75 0 3.72-3.03 6.75-6.75 6.75 -3.73 0-6.75-3.03-6.75-6.75Z"/><path d="M16 14.75c-.7 0-1.25.55-1.25 1.25 0 .69.55 1.25 1.25 1.25 .69 0 1.25-.56 1.25-1.25 0-.7-.56-1.25-1.25-1.25ZM13.25 16c0-1.52 1.23-2.75 2.75-2.75 1.51 0 2.75 1.23 2.75 2.75 0 1.51-1.24 2.75-2.75 2.75 -1.52 0-2.75-1.24-2.75-2.75Z"/><path d="M18 9.75c.41 0 .75.33.75.75V16c0 .41-.34.75-.75.75 -.42 0-.75-.34-.75-.75v-5.5c0-.42.33-.75.75-.75Z"/><path d="M16.75 14c0-.42-.34-.75-.75-.75h-5.5c-.42 0-.75.33-.75.75 0 .41.33.75.75.75H16c.41 0 .75-.34.75-.75Z"/><path d="M14 15.25c.41 0 .75.33.75.75v5.5c0 .41-.34.75-.75.75 -.42 0-.75-.34-.75-.75V16c0-.42.33-.75.75-.75Z"/><path d="M22.25 18c0-.42-.34-.75-.75-.75H16c-.42 0-.75.33-.75.75 0 .41.33.75.75.75h5.5c.41 0 .75-.34.75-.75Z"/><path d="M1.25 3c0-.42.33-.75.75-.75h6c.41 0 .75.33.75.75 0 .41-.34.75-.75.75H2.75v8.16l.98 4.41c.01.05.01.1.01.16v3.75h5.25c.41 0 .75.33.75.75 0 .41-.34.75-.75.75h-6c-.42 0-.75-.34-.75-.75v-4.42l-.99-4.42c-.02-.06-.02-.11-.02-.17v-9Zm10.04 0c0-.42.33-.75.75-.75h1.95c.41 0 .75.33.75.75v4c0 .41-.34.75-.75.75 -.42 0-.75-.34-.75-.75V3.75h-1.21c-.42 0-.75-.34-.75-.75Z"/></g></svg>