<svg viewBox="0 0 24 24" xmlns="http://www.w3.org/2000/svg"><g fill-rule="evenodd"><path d="M10.23 4.75c-.48 0-.91.26-1.12.69l-.4.78c-.47.93-1.42 1.52-2.46 1.52H4.98c-.7 0-1.25.55-1.25 1.25 0 .41-.34.75-.75.75 -.42 0-.75-.34-.75-.75 0-1.52 1.23-2.75 2.75-2.75h1.26c.47 0 .9-.27 1.11-.7l.39-.79c.46-.94 1.41-1.53 2.45-1.53h3.52c1.04 0 1.99.58 2.45 1.52l.39.78c.21.42.64.69 1.11.69h1.26c1.51 0 2.75 1.23 2.75 2.75v9c0 1.51-1.24 2.75-2.75 2.75h-14c-1.52 0-2.75-1.24-2.75-2.75v-5.03c0-.42.33-.75.75-.75 .41 0 .75.33.75.75v5.02c0 .69.55 1.25 1.25 1.25h14c.69 0 1.25-.56 1.25-1.25v-9c0-.7-.56-1.25-1.25-1.25h-1.27c-1.05 0-2-.59-2.46-1.53l-.4-.79c-.22-.43-.65-.7-1.12-.7h-3.53Z"/><path d="M12 7.75c-1.52 0-2.75 1.23-2.75 2.75 0 1.51 1.23 2.75 2.75 2.75 1.51 0 2.75-1.24 2.75-2.75 0-1.52-1.24-2.75-2.75-2.75ZM7.75 10.5c0-2.35 1.9-4.25 4.25-4.25 2.34 0 4.25 1.9 4.25 4.25 0 2.34-1.91 4.25-4.25 4.25 -2.35 0-4.25-1.91-4.25-4.25Z"/><path d="M10 12.75c.41 0 .75.33.75.75v2c0 .69.55 1.25 1.25 1.25 .69 0 1.25-.56 1.25-1.25v-2c0-.42.33-.75.75-.75 .41 0 .75.33.75.75v2c0 1.51-1.24 2.75-2.75 2.75 -1.52 0-2.75-1.24-2.75-2.75v-2c0-.42.33-.75.75-.75Z"/></g></svg>