<svg viewBox="0 0 24 24" xmlns="http://www.w3.org/2000/svg"><g fill-rule="evenodd"><path d="M1.25 6.5c0-1.52 1.23-2.75 2.75-2.75h11.5c1.51 0 2.75 1.23 2.75 2.75v.84l3.44-1.54c.23-.11.5-.09.71.05 .21.13.34.37.34.62v11.5c0 .25-.13.49-.35.62 -.22.13-.49.15-.72.05l-3.45-1.54v.84c0 1.51-1.24 2.75-2.75 2.75H3.97c-1.52 0-2.75-1.24-2.75-2.75v-6.06c0-.42.33-.75.75-.75 .41 0 .75.33.75.75v6.05c0 .69.55 1.25 1.25 1.25h11.5c.69 0 1.25-.56 1.25-1.25v-1.24c0-.91.93-1.51 1.75-1.15l2.74 1.21v-9.2l-2.75 1.21c-.83.36-1.76-.24-1.76-1.15V6.37c0-.7-.56-1.25-1.25-1.25H3.95c-.7 0-1.25.55-1.25 1.25v1.45c0 .41-.34.75-.75.75 -.42 0-.75-.34-.75-.75V6.36Z"/><path d="M6.26 7.36c.06-.36.37-.62.73-.62h4.99c.23 0 .45.11.59.29 .14.18.18.43.12.65l-.73 2.54h2c.29 0 .55.16.67.43 .12.26.08.57-.11.79l-5.01 6c-.21.24-.54.33-.84.22 -.3-.11-.5-.39-.5-.71V13.7H5.92c-.23 0-.44-.1-.58-.27 -.15-.18-.21-.4-.17-.62l1-5.5Zm1.36.88l-.73 4h2.1c.41 0 .75.33.75.75v1.92l2.64-3.18h-1.4c-.24 0-.46-.12-.6-.3 -.15-.19-.19-.44-.13-.66l.72-2.55H7.59Z"/></g></svg>