<svg viewBox="0 0 24 24" xmlns="http://www.w3.org/2000/svg"><g fill-rule="evenodd"><path d="M5.12 4.39c-.32.27-.38.48-.38.6s.06.32.37.6c.31.27.8.55 1.48.81 1.34.5 3.25.83 5.39.83 2.14 0 4.04-.33 5.39-.84 .67-.26 1.16-.54 1.48-.82 .31-.28.37-.49.37-.61 0-.13-.07-.33-.38-.61 -.32-.28-.81-.56-1.49-.82 -1.35-.51-3.26-.84-5.4-.84 -2.15 0-4.05.32-5.4.83 -.68.25-1.17.53-1.49.81Zm.95-2.22c1.55-.59 3.64-.93 5.92-.93 2.27 0 4.36.34 5.92.92 .77.28 1.45.65 1.94 1.09 .49.44.88 1.02.88 1.72s-.39 1.28-.89 1.72c-.5.44-1.18.8-1.95 1.09 -1.56.58-3.65.92-5.93.92s-4.37-.35-5.93-.93c-.78-.29-1.46-.66-1.95-1.1 -.5-.45-.89-1.03-.89-1.73 0-.71.38-1.29.88-1.73 .49-.45 1.17-.81 1.94-1.1Z"/><path d="M4 4.25c.41 0 .75.33.75.75v14c0 .12.06.32.37.6 .31.27.8.55 1.48.81 1.34.5 3.25.83 5.39.83 2.14 0 4.04-.33 5.39-.84 .67-.26 1.16-.54 1.48-.82 .31-.28.37-.49.37-.61v-14c0-.42.33-.75.75-.75 .41 0 .75.33.75.75v14c0 .7-.39 1.28-.89 1.72 -.5.44-1.18.8-1.95 1.09 -1.56.58-3.65.92-5.93.92s-4.37-.35-5.93-.93c-.78-.29-1.46-.66-1.95-1.1 -.5-.45-.89-1.03-.89-1.73v-14c0-.42.33-.75.75-.75Z"/><path d="M13.01 12.25c-.31 0-.59.18-.7.47l-.15.36c-.39.95-1.14 1.7-2.09 2.08l-.37.14c-.29.11-.48.38-.48.69v.18c0 .46.42.82.88.73l1.68-.31c.92-.17 1.64-.89 1.81-1.82l.3-1.69c.08-.47-.27-.89-.74-.89h-.19Zm-2.09-.09c.34-.86 1.16-1.42 2.08-1.42h.18c1.4 0 2.46 1.27 2.21 2.65l-.31 1.68c-.28 1.53-1.49 2.73-3.02 3.01l-1.69.3c-1.39.25-2.66-.81-2.66-2.22v-.19c0-.92.56-1.75 1.41-2.09l.36-.15c.57-.23 1.02-.69 1.25-1.26l.14-.37Z"/></g></svg>