<svg viewBox="0 0 24 24" xmlns="http://www.w3.org/2000/svg"><g fill-rule="evenodd"><path d="M3.9 5.03c.14-.19.36-.29.59-.29h8.99c.41 0 .75.33.75.75 0 .41-.34.75-.75.75H5.44l.65 2.6c.1.4-.15.8-.55.9 -.41.1-.81-.15-.91-.55l-.89-3.54c-.06-.23-.01-.47.13-.65Zm14.97 5.72c.4.07.67.46.59.87l-.75 4c-.07.35-.38.61-.74.61h-11c-.35 0-.65-.24-.73-.57l-.63-2.51c-.11-.41.14-.81.54-.91 .4-.11.8.14.9.54l.48 1.93h9.79l.63-3.39c.07-.41.46-.68.87-.6Z"/><path d="M1.25 3.5c0-.42.33-.75.75-.75h2c.34 0 .64.23.72.56l.5 2c.1.4-.15.8-.55.9 -.41.1-.81-.15-.91-.55L3.4 4.22H1.98c-.42 0-.75-.34-.75-.75Z"/><path d="M8 18.75c-.42 0-.75.33-.75.75 0 .41.33.75.75.75 .41 0 .75-.34.75-.75 0-.42-.34-.75-.75-.75Zm-2.25.75c0-1.25 1-2.25 2.25-2.25 1.24 0 2.25 1 2.25 2.25 0 1.24-1.01 2.25-2.25 2.25 -1.25 0-2.25-1.01-2.25-2.25Z"/><path d="M17 18.75c-.42 0-.75.33-.75.75 0 .41.33.75.75.75 .41 0 .75-.34.75-.75 0-.42-.34-.75-.75-.75Zm-2.25.75c0-1.25 1-2.25 2.25-2.25 1.24 0 2.25 1 2.25 2.25 0 1.24-1.01 2.25-2.25 2.25 -1.25 0-2.25-1.01-2.25-2.25Z"/><path d="M19 3.75c-1.25 0-2.25 1-2.25 2.25 0 1.24 1 2.25 2.25 2.25 1.24 0 2.25-1.01 2.25-2.25 0-1.25-1.01-2.25-2.25-2.25ZM15.25 6c0-2.08 1.67-3.75 3.75-3.75 2.07 0 3.75 1.67 3.75 3.75 0 2.07-1.68 3.75-3.75 3.75 -2.08 0-3.75-1.68-3.75-3.75Z"/></g></svg>