<svg viewBox="0 0 24 24" xmlns="http://www.w3.org/2000/svg"><g fill-rule="evenodd"><path d="M13.25 13c0-.42-.34-.75-.75-.75h-9c-.42 0-.75.33-.75.75v9c0 .41.33.75.75.75h3.77c.41 0 .75-.34.75-.75 0-.42-.34-.75-.75-.75H4.24v-7.5h7.5v7.5h-.73c-.42 0-.75.33-.75.75 0 .41.33.75.75.75h1.47c.41 0 .75-.34.75-.75v-9Z"/><path d="M10.75 13c0-.42-.34-.75-.75-.75H6c-.42 0-.75.33-.75.75v4c0 .25.13.5.35.63 .22.13.49.14.72.03l1.66-.84 1.66.83c.23.11.5.1.72-.04 .22-.14.35-.38.35-.64v-4Zm-1.5.75v2.03l-.92-.46c-.22-.11-.46-.11-.68 0l-.92.45v-2.04h2.5Z"/><path d="M14 5.25c-3.53 0-6.25 2.36-6.25 5.75 0 .41-.34.75-.75.75 -.42 0-.75-.34-.75-.75 0-4.36 3.54-7.25 7.75-7.25 .41 0 .75.33.75.75 0 .41-.34.75-.75.75Z"/><path d="M12.72 1.3c.38-.16.82.03.97.41l1 2.5c.07.17.07.37 0 .55l-1 2.5c-.16.38-.6.57-.98.41 -.39-.16-.58-.6-.42-.98l.88-2.23 -.89-2.23c-.16-.39.03-.83.41-.98Z"/><path d="M16.25 5.87c0-.9.72-1.63 1.62-1.63h3.12c.41 0 .75.33.75.75 0 .41-.34.75-.75.75h-3.13c-.07 0-.13.05-.13.12 0 .05.03.09.08.11l1.8.6c.66.22 1.1.84 1.1 1.53 0 .89-.73 1.62-1.63 1.62h-3.13c-.42 0-.75-.34-.75-.75 0-.42.33-.75.75-.75h3.12c.06 0 .12-.06.12-.13 0-.06-.04-.1-.09-.12l-1.81-.61c-.67-.23-1.11-.85-1.11-1.54Z"/><path d="M18.5 8.25c.41 0 .75.33.75.75v2c0 .41-.34.75-.75.75 -.42 0-.75-.34-.75-.75V9c0-.42.33-.75.75-.75Z"/><path d="M18.5 2.25c.41 0 .75.33.75.75v2c0 .41-.34.75-.75.75 -.42 0-.75-.34-.75-.75V3c0-.42.33-.75.75-.75Z"/></g></svg>