<svg viewBox="0 0 24 24" xmlns="http://www.w3.org/2000/svg"><g fill-rule="evenodd"><path d="M4.75 4.5c0-.42.33-.75.75-.75h13c.41 0 .75.33.75.75V22c0 .41-.34.75-.75.75h-13c-.42 0-.75-.34-.75-.75V4.5Zm1.5.75v16h11.5v-16H6.25Z"/><path d="M3.61 1.35c.35-.22.81-.1 1.02.25l1.5 2.5c.21.35.09.81-.26 1.02 -.36.21-.82.09-1.029-.26l-1.5-2.5c-.22-.36-.1-.82.25-1.03Z"/><path d="M20.38 1.35c-.36-.22-.82-.1-1.029.25l-1.5 2.5c-.22.35-.1.81.25 1.02 .35.21.81.09 1.029-.26l1.5-2.5c.21-.36.09-.82-.26-1.03Z"/><path d="M11.25 17c0-1.52 1.23-2.75 2.75-2.75h2c.41 0 .75.33.75.75v1c0 1.51-1.24 2.75-2.75 2.75h-2c-.42 0-.75-.34-.75-.75v-1ZM14 15.75c-.7 0-1.25.55-1.25 1.25v.25H14c.69 0 1.25-.56 1.25-1.25v-.25H14Z"/><path d="M11.25 14c0-1.52 1.23-2.75 2.75-2.75h2c.41 0 .75.33.75.75v1c0 1.51-1.24 2.75-2.75 2.75h-2c-.42 0-.75-.34-.75-.75v-1ZM14 12.75c-.7 0-1.25.55-1.25 1.25v.25H14c.69 0 1.25-.56 1.25-1.25v-.25H14Z"/><path d="M12.75 14c0-1.52-1.24-2.75-2.75-2.75H8c-.42 0-.75.33-.75.75v1c0 1.51 1.23 2.75 2.75 2.75h2c.41 0 .75-.34.75-.75v-1ZM10 12.75c.69 0 1.25.55 1.25 1.25v.25H10c-.7 0-1.25-.56-1.25-1.25v-.25H10Z"/><path d="M12.75 17c0-1.52-1.24-2.75-2.75-2.75H8c-.42 0-.75.33-.75.75v1c0 1.51 1.23 2.75 2.75 2.75h2c.41 0 .75-.34.75-.75v-1ZM10 15.75c.69 0 1.25.55 1.25 1.25v.25H10c-.7 0-1.25-.56-1.25-1.25v-.25H10Z"/><path d="M12 7.25c.25 0 .48.12.62.33l1.09 1.63c.72 1.09.58 2.54-.35 3.46l-.85.84c-.15.14-.34.21-.54.21s-.39-.08-.54-.22l-.85-.85c-.93-.93-1.08-2.38-.35-3.47l1.09-1.64c.13-.21.37-.34.62-.34Zm0 2.1l-.47.69c-.34.49-.27 1.15.15 1.57l.31.31 .31-.32c.42-.43.48-1.09.15-1.58l-.47-.7Z"/></g></svg>