<svg viewBox="0 0 24 24" xmlns="http://www.w3.org/2000/svg"><g fill-rule="evenodd"><path d="M5.25 4c0-1.52 1.23-2.75 2.75-2.75h8c1.51 0 2.75 1.23 2.75 2.75 0 .41-.34.75-.75.75 -.42 0-.75-.34-.75-.75 0-.7-.56-1.25-1.25-1.25H8c-.7 0-1.25.55-1.25 1.25v16c0 .69.55 1.25 1.25 1.25h8c.69 0 1.25-.56 1.25-1.25V8.03c0-.42.33-.75.75-.75 .41 0 .75.33.75.75v11.96c0 1.51-1.24 2.75-2.75 2.75H8c-1.52 0-2.75-1.24-2.75-2.75v-16Z"/><path d="M9.75 19.5c0-.42.33-.75.75-.75h3c.41 0 .75.33.75.75 0 .41-.34.75-.75.75h-3c-.42 0-.75-.34-.75-.75Z"/><path d="M8.25 8c0-.42.33-.75.75-.75h6c.41 0 .75.33.75.75v7c0 .41-.34.75-.75.75H9c-.42 0-.75-.34-.75-.75V8Zm1.5.75v5.5h4.5v-5.5h-4.5Z"/><path d="M8.25 7.5c0-1.52 1.23-2.75 2.75-2.75h4c.41 0 .75.33.75.75 0 .41-.34.75-.75.75h-4c-.7 0-1.25.55-1.25 1.25v5c0 .41-.34.75-.75.75 -.42 0-.75-.34-.75-.75v-5Z"/></g></svg>