<svg viewBox="0 0 24 24" xmlns="http://www.w3.org/2000/svg"><g fill-rule="evenodd"><path d="M6.25 2c0-.42.33-.75.75-.75h10c.41 0 .75.33.75.75v3c0 .41-.34.75-.75.75H7c-.42 0-.75-.34-.75-.75V2Zm1.5.75v1.5h8.5v-1.5h-8.5Z"/><path d="M7.25 17.5c0-.42.33-.75.75-.75h8c.41 0 .75.33.75.75V21c0 .96-.79 1.75-1.75 1.75H9c-.97 0-1.75-.79-1.75-1.75v-3.5Zm1.5.75V21c0 .13.11.25.25.25h6c.13 0 .25-.12.25-.25v-2.75h-6.5Z"/><path d="M6.44 4.49c.14-.16.34-.25.55-.25h10c.2 0 .4.08.55.24 .14.15.21.35.19.56l-.49 6c-.04.41-.4.72-.81.68 -.42-.04-.73-.4-.69-.81l.41-5.2H7.77l.88 11h6.61l.06-.87c.03-.42.39-.73.8-.69 .41.03.72.39.68.8l-.13 1.55c-.04.38-.36.69-.75.69h-8c-.4 0-.72-.31-.75-.7l-1-12.5c-.02-.21.05-.42.19-.57Z"/><path d="M12 9.75c-.7 0-1.25.55-1.25 1.25 0 .69.55 1.25 1.25 1.25 .69 0 1.25-.56 1.25-1.25 0-.7-.56-1.25-1.25-1.25ZM9.25 11c0-1.52 1.23-2.75 2.75-2.75 1.51 0 2.75 1.23 2.75 2.75 0 1.51-1.24 2.75-2.75 2.75 -1.52 0-2.75-1.24-2.75-2.75Z"/></g></svg>