<svg viewBox="0 0 24 24" xmlns="http://www.w3.org/2000/svg"><g fill-rule="evenodd"><path d="M2.75 7c0-.42.33-.75.75-.75h6c.41 0 .75.33.75.75v10c0 .41-.34.75-.75.75h-6c-.42 0-.75-.34-.75-.75v-1.97c0-.42.33-.75.75-.75 .41 0 .75.33.75.75v1.21h4.5v-8.5h-4.5V11c0 .41-.34.75-.75.75 -.42 0-.75-.34-.75-.75V6.99Z"/><path d="M8.75 9.5c0-.42.33-.75.75-.75H22c.41 0 .75.33.75.75v5c0 .41-.34.75-.75.75H9.5c-.42 0-.75-.34-.75-.75v-5Zm1.5.75v3.5h11v-3.5h-11Z"/><path d="M1.25 7c0-.42.33-.75.75-.75h9c.41 0 .75.33.75.75 0 .41-.34.75-.75.75H2c-.42 0-.75-.34-.75-.75Z"/><path d="M1.25 17c0-.42.33-.75.75-.75h9c.41 0 .75.33.75.75 0 .41-.34.75-.75.75H2c-.42 0-.75-.34-.75-.75Z"/><path d="M13.5 8.75c.41 0 .75.33.75.75v5c0 .41-.34.75-.75.75 -.42 0-.75-.34-.75-.75v-5c0-.42.33-.75.75-.75Z"/><path d="M18 8.75c.41 0 .75.33.75.75v5c0 .41-.34.75-.75.75 -.42 0-.75-.34-.75-.75v-5c0-.42.33-.75.75-.75Z"/><path d="M4.25 4.5c0-.42.33-.75.75-.75h3c.41 0 .75.33.75.75V7c0 .41-.34.75-.75.75H5c-.42 0-.75-.34-.75-.75V4.5Zm1.5.75v1h1.5v-1h-1.5Z"/></g></svg>