<svg viewBox="0 0 24 24" xmlns="http://www.w3.org/2000/svg"><g fill-rule="evenodd"><path d="M1.25 11.78c0-3.15 3-5.43 6.03-4.58l10.91 3.07c.32.09.54.38.54.72v2c0 .33-.23.63-.55.72L7.26 16.78c-3.04.85-6.04-1.43-6.04-4.58v-.44Zm5.62-3.13c-2.08-.59-4.13.97-4.13 3.12v.43c0 2.15 2.05 3.71 4.12 3.12l10.37-2.92v-.87L6.85 8.61Z"/><path d="M22.33 7.32c-.26-.13-.56-.1-.79.07l-4 3c-.19.14-.3.36-.3.6v2c0 .23.11.45.3.6l4 3c.22.17.53.19.78.07 .25-.13.41-.39.41-.68v-8c0-.29-.17-.55-.42-.68Zm-1.09 2.17v5l-2.5-1.875v-1.25l2.5-1.875Z"/><path d="M13.12 6.08c.22.34.13.81-.21 1.04l-3 2c-.35.22-.82.13-1.05-.21 -.23-.35-.14-.82.2-1.05l3-2c.34-.23.81-.14 1.04.2Z"/></g></svg>