<svg viewBox="0 0 24 24" xmlns="http://www.w3.org/2000/svg"><g fill-rule="evenodd"><path d="M12.5 13.25c.41 0 .75.33.75.75v4c0 .41-.34.75-.75.75 -.42 0-.75-.34-.75-.75v-4c0-.42.33-.75.75-.75Z"/><path d="M9.75 16c0-.42.33-.75.75-.75h4c.41 0 .75.33.75.75 0 .41-.34.75-.75.75h-4c-.42 0-.75-.34-.75-.75Z"/><path d="M17.25 14.5c0-.42.33-.75.75-.75h1.5c.41 0 .75.33.75.75 0 .41-.34.75-.75.75H18c-.42 0-.75-.34-.75-.75Z"/><path d="M16.25 17.5c0-.42.33-.75.75-.75h1.5c.41 0 .75.33.75.75 0 .41-.34.75-.75.75H17c-.42 0-.75-.34-.75-.75Z"/><path d="M7.25 15c0-2.35 1.9-4.25 4.25-4.25h7c2.34 0 4.25 1.9 4.25 4.25v2c0 2.34-1.91 4.25-4.25 4.25h-7c-2.35 0-4.25-1.91-4.25-4.25v-2Zm4.25-2.75c-1.52 0-2.75 1.23-2.75 2.75v2c0 1.51 1.23 2.75 2.75 2.75h7c1.51 0 2.75-1.24 2.75-2.75v-2c0-1.52-1.24-2.75-2.75-2.75h-7Z"/><path d="M1.25 6.5c0-.42.33-.75.75-.75h13.04c.41 0 .75.33.75.75 0 .41-.34.75-.75.75H2.74v1.58c1.43.33 2.5 1.62 2.5 3.16 0 1.53-1.07 2.82-2.5 3.16v1.58h2.75c.41 0 .75.33.75.75 0 .41-.34.75-.75.75h-3.5c-.42 0-.75-.34-.75-.75v-3c0-.42.33-.75.75-.75 .96 0 1.75-.79 1.75-1.75 0-.97-.79-1.75-1.75-1.75 -.42 0-.75-.34-.75-.75v-3Zm17.03 0c0-.42.33-.75.75-.75h2.96c.41 0 .75.33.75.75v3c0 .41-.34.75-.75.75 -.42 0-.75-.34-.75-.75V7.25h-2.22c-.42 0-.75-.34-.75-.75Z"/></g></svg>