<svg viewBox="0 0 24 24" xmlns="http://www.w3.org/2000/svg"><g fill-rule="evenodd"><path d="M1.25 2c0-.42.33-.75.75-.75h5c.41 0 .75.33.75.75v5c0 .41-.34.75-.75.75H2c-.42 0-.75-.34-.75-.75V2Zm1.5.75v3.5h3.5v-3.5h-3.5Z"/><path d="M1.25 9.5c0-.42.33-.75.75-.75h5c.41 0 .75.33.75.75v5c0 .41-.34.75-.75.75H2c-.42 0-.75-.34-.75-.75v-5Zm1.5.75v3.5h3.5v-3.5h-3.5Z"/><path d="M1.25 17c0-.42.33-.75.75-.75h5c.41 0 .75.33.75.75v5c0 .41-.34.75-.75.75H2c-.42 0-.75-.34-.75-.75v-5Zm1.5.75v3.5h3.5v-3.5h-3.5Z"/><path d="M8.75 2c0-.42.33-.75.75-.75h5c.41 0 .75.33.75.75v5c0 .41-.34.75-.75.75h-5c-.42 0-.75-.34-.75-.75V2Zm1.5.75v3.5h3.5v-3.5h-3.5Z"/><path d="M9.5 8.75c.41 0 .75.33.75.75v4.25h3.5v-3.5h-.28c-.42 0-.75-.34-.75-.75 0-.42.33-.75.75-.75h1.02c.41 0 .75.33.75.75v5c0 .41-.34.75-.75.75h-5c-.42 0-.75-.34-.75-.75v-5c0-.42.33-.75.75-.75Z"/><path d="M8.75 17c0-.42.33-.75.75-.75h5c.41 0 .75.33.75.75v5c0 .41-.34.75-.75.75h-5c-.42 0-.75-.34-.75-.75v-5Zm1.5.75v3.5h3.5v-3.5h-3.5Z"/><path d="M16.25 2c0-.42.33-.75.75-.75h5c.41 0 .75.33.75.75v5c0 .41-.34.75-.75.75h-5c-.42 0-.75-.34-.75-.75V2Zm1.5.75v3.5h3.5v-3.5h-3.5Z"/><path d="M16.25 9.5c0-.42.33-.75.75-.75h5c.41 0 .75.33.75.75v5c0 .41-.34.75-.75.75h-5c-.42 0-.75-.34-.75-.75v-5Zm1.5.75v3.5h3.5v-3.5h-3.5Z"/><path d="M16.25 17c0-.42.33-.75.75-.75h5c.41 0 .75.33.75.75v5c0 .41-.34.75-.75.75h-5c-.42 0-.75-.34-.75-.75v-5Zm1.5.75v3.5h3.5v-3.5h-3.5Z"/></g></svg>