<svg viewBox="0 0 24 24" xmlns="http://www.w3.org/2000/svg"><g fill-rule="evenodd"><path d="M1.25 2.5c0-.42.33-.75.75-.75h8.5c.41 0 .75.33.75.75v8c0 .41-.34.75-.75.75H2c-.42 0-.75-.34-.75-.75v-8Zm1.5.75v6.5h7v-6.5h-7Z"/><path d="M1.25 13.5c0-.42.33-.75.75-.75h8.5c.41 0 .75.33.75.75v8c0 .41-.34.75-.75.75H2c-.42 0-.75-.34-.75-.75v-8Zm1.5.75v6.5h7v-6.5h-7Z"/><path d="M12.75 2.5c0-.42.33-.75.75-.75H22c.41 0 .75.33.75.75v8c0 .41-.34.75-.75.75h-1.53c-.42 0-.75-.34-.75-.75 0-.42.33-.75.75-.75h.77v-6.5h-7v6.5h2.12c.41 0 .75.33.75.75 0 .41-.34.75-.75.75h-2.88c-.42 0-.75-.34-.75-.75v-8Z"/><path d="M12.75 13.5c0-.42.33-.75.75-.75H22c.41 0 .75.33.75.75v8c0 .41-.34.75-.75.75h-8.5c-.42 0-.75-.34-.75-.75v-8Zm1.5.75v6.5h7v-6.5h-7Z"/></g></svg>