<svg viewBox="0 0 24 24" xmlns="http://www.w3.org/2000/svg"><g fill-rule="evenodd"><path d="M3.34 9.31c.32-1.5 1.64-2.57 3.17-2.57h10.95c1.53 0 2.85 1.07 3.17 2.56l1.92 8.99c.43 2.02-1.11 3.93-3.18 3.93h-9.4c-.42 0-.76-.34-.76-.75 0-.42.33-.75.75-.75h9.39c1.11 0 1.94-1.03 1.71-2.12l-1.93-9c-.18-.81-.89-1.39-1.72-1.39H6.45c-.83 0-1.54.57-1.72 1.38L2.8 18.58c-.24 1.08.59 2.11 1.71 2.11h1.43c.41 0 .75.33.75.75 0 .41-.34.75-.75.75H4.5c-2.07 0-3.62-1.91-3.18-3.94l1.92-9Z"/><path d="M3.34 9.31c.32-1.5 1.64-2.57 3.17-2.57h10.95c1.53 0 2.85 1.07 3.17 2.56 .43 2.02-1.11 3.93-3.18 3.93h-3.48c-.42 0-.75-.34-.75-.75 0-.42.33-.75.75-.75h3.47c1.11 0 1.94-1.03 1.71-2.12 -.18-.81-.89-1.39-1.72-1.39H6.47c-.83 0-1.54.57-1.72 1.38 -.24 1.08.59 2.11 1.71 2.11h3.47c.41 0 .75.33.75.75 0 .41-.34.75-.75.75H6.45c-2.07 0-3.62-1.91-3.18-3.94Z"/><path d="M9.25 7.5c0-.42.33-.75.75-.75h4c.41 0 .75.33.75.75V14c0 1.51-1.24 2.75-2.75 2.75 -1.52 0-2.75-1.24-2.75-2.75V7.5Zm1.5.75V14c0 .69.55 1.25 1.25 1.25 .69 0 1.25-.56 1.25-1.25V8.25h-2.5Z"/><path d="M11.5 2.75c-2.08 0-3.75 1.67-3.75 3.75v1c0 .41-.34.75-.75.75 -.42 0-.75-.34-.75-.75v-1c0-2.9 2.35-5.25 5.25-5.25h1c2.89 0 5.25 2.35 5.25 5.25v1c0 .41-.34.75-.75.75 -.42 0-.75-.34-.75-.75v-1c0-2.08-1.68-3.75-3.75-3.75h-1Z"/></g></svg>