<svg viewBox="0 0 24 24" xmlns="http://www.w3.org/2000/svg"><g fill-rule="evenodd"><path d="M3.25 13.5c0-1.52 1.23-2.75 2.75-2.75h.5c1.51 0 2.75 1.23 2.75 2.75V18c0 1.51-1.24 2.75-2.75 2.75H6c-1.52 0-2.75-1.24-2.75-2.75v-4.5ZM6 12.25c-.7 0-1.25.55-1.25 1.25V18c0 .69.55 1.25 1.25 1.25h.5c.69 0 1.25-.56 1.25-1.25v-4.5c0-.7-.56-1.25-1.25-1.25H6Z"/><path d="M14.75 13.5c0-1.52 1.23-2.75 2.75-2.75h.5c1.51 0 2.75 1.23 2.75 2.75V18c0 1.51-1.24 2.75-2.75 2.75h-.5c-1.52 0-2.75-1.24-2.75-2.75v-4.5Zm2.75-1.25c-.7 0-1.25.55-1.25 1.25V18c0 .69.55 1.25 1.25 1.25h.5c.69 0 1.25-.56 1.25-1.25v-4.5c0-.7-.56-1.25-1.25-1.25h-.5Z"/><path d="M11 4.75c-.96 0-1.87.21-2.68.59 -.38.17-.83.01-1-.36 -.18-.38-.02-.83.35-1 1-.48 2.12-.75 3.31-.75h2c4.28 0 7.75 3.46 7.75 7.75v4.5c0 .41-.34.75-.75.75 -.42 0-.75-.34-.75-.75v-4.5c0-3.46-2.8-6.25-6.25-6.25h-2Zm-6.03 2.6c.37.17.53.62.36.99 -.38.8-.59 1.7-.59 2.64v4.5c0 .41-.34.75-.75.75 -.42 0-.75-.34-.75-.75v-4.5c0-1.18.26-2.29.72-3.29 .17-.38.62-.54.99-.37Z"/></g></svg>