<svg viewBox="0 0 24 24" xmlns="http://www.w3.org/2000/svg"><g fill-rule="evenodd"><path d="M4.14 9.56c.7-4.22 4.35-7.32 8.63-7.32h.22c4.83 0 8.75 3.91 8.75 8.75v6c0 .35-.25.65-.59.73l-1.98.43c-.41.08-.81-.17-.9-.57 -.09-.41.16-.81.56-.9l1.38-.31v-5.4c0-4.01-3.25-7.25-7.25-7.25h-.23c-3.55 0-6.57 2.56-7.16 6.05l-.06.31c-.07.4-.46.68-.87.61 -.41-.07-.69-.46-.62-.87l.05-.32Zm-.19 5.69c.4.06.68.45.61.86l-.23 1.34c-.21 1.22.89 2.26 2.1 1.99l8.47-1.89c.4-.09.8.16.89.56 .08.4-.17.8-.57.89l-8.48 1.88c-2.25.49-4.29-1.44-3.92-3.71l.22-1.35c.06-.41.45-.69.86-.62Z"/><path d="M14.5 8.44c.15.14.24.34.24.55v1.89c0 2.71-2.08 4.98-4.78 5.22l-6.91.62c-.24.02-.46-.07-.62-.24 -.16-.18-.23-.41-.2-.64l1-6c.05-.34.32-.59.66-.63l10-1c.21-.03.42.04.57.19Zm-9.86 2.24l-.75 4.47 5.94-.54c1.93-.18 3.41-1.8 3.41-3.74V9.8l-8.61.86Z"/></g></svg>