<svg viewBox="0 0 24 24" xmlns="http://www.w3.org/2000/svg"><path fill-rule="evenodd" d="M12.69 4.36c-.42-.28-.97-.28-1.39 0l-7 4.66c-.35.23-.56.62-.56 1.04v8.92c0 .69.55 1.25 1.25 1.25h3.25v-4.25c0-1.52 1.23-2.75 2.75-2.75h2c1.51 0 2.75 1.23 2.75 2.75v4.25h3.25c.69 0 1.25-.56 1.25-1.25v-8.93c0-.42-.21-.81-.56-1.05l-1.11-.74c-.35-.23-.44-.7-.21-1.05 .22-.35.69-.44 1.04-.21l1.1.73c.76.51 1.22 1.36 1.22 2.28v8.92c0 1.51-1.24 2.75-2.75 2.75h-4c-.42 0-.75-.34-.75-.75v-5c0-.7-.56-1.25-1.25-1.25h-2c-.7 0-1.25.55-1.25 1.25v5c0 .41-.34.75-.75.75h-4c-1.52 0-2.75-1.24-2.75-2.75V10c0-.92.45-1.78 1.22-2.29l7-4.67c.92-.62 2.12-.62 3.05 0l1.89 1.26c.34.22.43.69.2 1.04 -.23.34-.7.43-1.04.2l-1.9-1.27Z"/></svg>