<svg viewBox="0 0 24 24" xmlns="http://www.w3.org/2000/svg"><g fill-rule="evenodd"><path d="M2.25 6.94c.02-.4.35-.7.74-.7h6.99c.39 0 .72.3.74.69l.92 13.43c.06 1.01-.74 1.87-1.75 1.87H3.03c-1.02 0-1.82-.86-1.75-1.88L2.2 6.91Zm1.44.8l-.88 12.73c-.01.14.1.26.24.26H9.9c.14 0 .25-.13.24-.27L9.26 7.72h-5.6Z"/><path d="M13.25 6.94c.02-.4.35-.7.74-.7h7c.39 0 .72.3.74.69l.92 13.43c.06 1.01-.74 1.87-1.75 1.87h-6.86c-1.02 0-1.82-.86-1.75-1.88l.92-13.44Zm1.44.8l-.88 12.73c-.01.14.1.26.24.26h6.85c.14 0 .25-.13.24-.27l-.88-12.74h-5.6Z"/><path d="M1.25 4.5c0-1.52 1.23-2.75 2.75-2.75h5c1.51 0 2.75 1.23 2.75 2.75V5c0 1.51-1.24 2.75-2.75 2.75H4C2.48 7.75 1.25 6.51 1.25 5v-.5ZM4 3.25c-.7 0-1.25.55-1.25 1.25V5c0 .69.55 1.25 1.25 1.25h5c.69 0 1.25-.56 1.25-1.25v-.5c0-.7-.56-1.25-1.25-1.25H4Z"/><path d="M12.25 4.5c0-1.52 1.23-2.75 2.75-2.75h5c1.51 0 2.75 1.23 2.75 2.75V5c0 1.51-1.24 2.75-2.75 2.75h-5c-1.52 0-2.75-1.24-2.75-2.75v-.5ZM15 3.25c-.7 0-1.25.55-1.25 1.25V5c0 .69.55 1.25 1.25 1.25h5c.69 0 1.25-.56 1.25-1.25v-.5c0-.7-.56-1.25-1.25-1.25h-5Z"/><path d="M15.25 11c0-.42.33-.75.75-.75h1.5c1.24 0 2.25 1 2.25 2.25 0 1.24-1.01 2.25-2.25 2.25h-.75V17c0 .41-.34.75-.75.75 -.42 0-.75-.34-.75-.75v-6Zm1.5 2.25h.75c.41 0 .75-.34.75-.75 0-.42-.34-.75-.75-.75h-.75v1.5Z"/><path d="M4.25 12.5c0-1.25 1-2.25 2.25-2.25H8c.41 0 .75.33.75.75 0 .41-.34.75-.75.75H6.5c-.42 0-.75.33-.75.75 0 .41.33.75.75.75 1.24 0 2.25 1 2.25 2.25 0 1.24-1.01 2.25-2.25 2.25H5c-.42 0-.75-.34-.75-.75 0-.42.33-.75.75-.75h1.5c.41 0 .75-.34.75-.75 0-.42-.34-.75-.75-.75 -1.25 0-2.25-1.01-2.25-2.25Z"/></g></svg>