<svg viewBox="0 0 24 24" xmlns="http://www.w3.org/2000/svg"><g fill-rule="evenodd"><path d="M1.25 15.5C1.25 9.56 6.06 4.75 12 4.75h3.99c.41 0 .75.33.75.75 0 .41-.34.75-.75.75h-4c-4.86 0-8.84 3.74-9.23 8.5h15.79l2.67-4.46V6.24h-1.24c-.42 0-.75-.34-.75-.75 0-.42.33-.75.75-.75h1.98c.41 0 .75.33.75.75v5c0 .13-.04.26-.11.38l-3 5c-.14.22-.38.36-.65.36h-17c-.42 0-.75-.34-.75-.75Z"/><path d="M8.75 11.5c0-2.35 1.9-4.25 4.25-4.25h5c.41 0 .75.33.75.75v3.5c0 .41-.34.75-.75.75H9.5c-.42 0-.75-.34-.75-.75Zm1.6-.75h6.89v-2h-4.25c-1.26 0-2.32.84-2.65 2Z"/><path d="M1.25 15.5c0-.42.33-.75.75-.75h20c.41 0 .75.33.75.75v3c0 .41-.34.75-.75.75H2c-.42 0-.75-.34-.75-.75v-3Zm1.5.75v1.5h18.5v-1.5H2.75Z"/></g></svg>