<svg viewBox="0 0 24 24" xmlns="http://www.w3.org/2000/svg"><g fill-rule="evenodd"><path d="M12.25 12c0-.42.33-.75.75-.75h8c.41 0 .75.33.75.75v4.01c0 .41-.34.75-.75.75 -.42 0-.75-.34-.75-.75v-3.27h-6.5v8.5h6.5v-1.33c0-.42.33-.75.75-.75 .41 0 .75.33.75.75v2.07c0 .41-.34.75-.75.75h-8c-.42 0-.75-.34-.75-.75v-10Z"/><path d="M1.25 11c0-2.63 2.12-4.75 4.75-4.75 2.62 0 4.75 2.12 4.75 4.75v6c0 .41-.34.75-.75.75H2c-.42 0-.75-.34-.75-.75v-6ZM6 7.75C4.2 7.75 2.75 9.2 2.75 11v5.25h6.5V11c0-1.8-1.46-3.25-3.25-3.25Z"/><path d="M19.86 1.34c.23.13.38.38.38.65v10c0 .41-.34.75-.75.75h-5c-.42 0-.75-.34-.75-.75v-7c0-.27.13-.51.36-.65l5-3c.23-.14.52-.15.75-.01Zm-4.62 4.07v5.82h3.5V3.3l-3.5 2.1Z"/></g></svg>