<svg viewBox="0 0 24 24" xmlns="http://www.w3.org/2000/svg"><g fill-rule="evenodd"><path d="M14.75 12c0-.42-.34-.75-.75-.75H2c-.42 0-.75.33-.75.75 0 .41.33.75.75.75h12c.41 0 .75-.34.75-.75Z"/><path d="M6.03 7.96c-.3-.3-.77-.3-1.07 0l-3.5 3.5c-.3.29-.3.76 0 1.06l3.5 3.5c.29.29.76.29 1.06 0 .29-.3.29-.77 0-1.07l-2.97-2.97 2.96-2.97c.29-.3.29-.77 0-1.07Z"/><path d="M14.59 5.25c-2.58 0-4.83 1.48-5.93 3.67 -.19.36-.64.51-1.01.33 -.37-.19-.52-.64-.34-1.01 1.34-2.67 4.09-4.5 7.26-4.5 4.51 0 8.15 3.7 8.15 8.25 0 .74-.1 1.47-.29 2.16 -.11.4-.52.63-.92.53 -.41-.11-.64-.52-.54-.92 .15-.57.23-1.16.23-1.78 0-3.74-2.99-6.75-6.66-6.75Zm-6.94 9.49c.36-.19.82-.04 1 .33 1.1 2.18 3.34 3.67 5.92 3.67 1.51 0 2.9-.52 4.02-1.38 .32-.26.79-.2 1.05.13 .25.32.19.79-.14 1.05 -1.37 1.05-3.09 1.68-4.94 1.68 -3.18 0-5.92-1.84-7.27-4.5 -.19-.37-.04-.83.33-1.01Z"/></g></svg>