<svg viewBox="0 0 24 24" xmlns="http://www.w3.org/2000/svg"><g fill-rule="evenodd"><path d="M6.25 14c0-1.52 1.23-2.75 2.75-2.75h6c1.51 0 2.75 1.23 2.75 2.75 0 .41-.34.75-.75.75 -.42 0-.75-.34-.75-.75 0-.7-.56-1.25-1.25-1.25H9c-.7 0-1.25.55-1.25 1.25v6c0 .69.55 1.25 1.25 1.25h6c.69 0 1.25-.56 1.25-1.25v-2c0-.42.33-.75.75-.75 .41 0 .75.33.75.75v1.99c0 1.51-1.24 2.75-2.75 2.75H9c-1.52 0-2.75-1.24-2.75-2.75v-6Z"/><path d="M8.25 9c0-.42.33-.75.75-.75h6c.41 0 .75.33.75.75v3c0 .41-.34.75-.75.75H9c-.42 0-.75-.34-.75-.75V9Zm1.5.75v1.5h4.5v-1.5h-4.5Z"/><path d="M10.76 1.84c.07-.35.37-.6.73-.6h1c.35 0 .65.24.73.59l1.5 7c.04.22-.01.45-.16.62 -.15.17-.36.27-.59.27h-4c-.23 0-.45-.11-.59-.28 -.15-.18-.2-.41-.16-.63l1.5-7Zm1.23 1.4l-1.08 5h2.14l-1.08-5.01Z"/><path d="M12.63 14.604l-.64.39 -.64-.4c.13-.23.37-.36.63-.36 .25 0 .5.13.63.35Zm-.64 1.9c-.03.05-.06.1-.09.16 -.19.34-.36.7-.49 1.03 -.14.34-.19.55-.19.63 0 .58.4.91.75.91 .34 0 .75-.34.75-.92 0-.08-.05-.29-.19-.64 -.13-.33-.31-.69-.49-1.04 -.03-.06-.06-.11-.09-.17Zm0-1.51c-.64-.4-.64-.4-.64-.4l-.01 0 -.01 0 -.02.02c-.02.01-.03.04-.06.08 -.05.07-.11.17-.18.29 -.15.24-.34.58-.54.96 -.2.37-.4.78-.55 1.17 -.15.36-.29.8-.29 1.18 0 1.25.93 2.41 2.25 2.41 1.31 0 2.25-1.16 2.25-2.42 0-.39-.15-.83-.29-1.19 -.16-.39-.36-.81-.55-1.18 -.2-.38-.39-.72-.54-.97 -.08-.13-.14-.23-.18-.3 -.03-.04-.04-.07-.06-.09l-.02-.03 -.01-.01 -.01-.01c-.01-.01-.01-.01-.64.39Z"/></g></svg>