<svg viewBox="0 0 24 24" xmlns="http://www.w3.org/2000/svg"><g fill-rule="evenodd"><path d="M7.56 5.34c-1.1 1.01-1.82 2.54-1.82 4.58 0 .81.28 1.77.78 2.81 .17.37.02.82-.36 1 -.38.17-.83.02-1.01-.36 -.55-1.14-.94-2.34-.94-3.47 0-2.42.85-4.35 2.28-5.69 1.42-1.33 3.36-2 5.46-2 2.09 0 4.03.67 5.46 1.99 1.43 1.33 2.29 3.27 2.29 5.68 0 1.84-1.03 3.89-2.21 5.66 -1.2 1.8-2.65 3.47-3.676 4.56 -1.03 1.09-2.73 1.09-3.75 0 -.86-.92-2-2.21-3.05-3.66 -.25-.34-.17-.81.16-1.05 .33-.25.8-.17 1.04.16 .99 1.37 2.09 2.62 2.92 3.5 .42.45 1.12.45 1.55 0 1-1.08 2.38-2.67 3.52-4.38 1.15-1.75 1.95-3.47 1.95-4.84 0-2.04-.72-3.57-1.82-4.59 -1.11-1.03-2.67-1.6-4.44-1.6 -1.78 0-3.34.56-4.44 1.59Z"/><path d="M12 6.75c-1.25 0-2.25 1-2.25 2.25 0 1.24 1 2.25 2.25 2.25 1.24 0 2.25-1.01 2.25-2.25 0-1.25-1.01-2.25-2.25-2.25ZM8.25 9c0-2.08 1.67-3.75 3.75-3.75 2.07 0 3.75 1.67 3.75 3.75 0 2.07-1.68 3.75-3.75 3.75 -2.08 0-3.75-1.68-3.75-3.75Z"/></g></svg>