<svg viewBox="0 0 24 24" xmlns="http://www.w3.org/2000/svg"><g fill-rule="evenodd"><path d="M1.25 7.5c0-.42.33-.75.75-.75h13.99c.41 0 .75.33.75.75 0 .41-.34.75-.75.75H2.74v4.5h18.5v-4.5h-1.19c-.42 0-.75-.34-.75-.75 0-.42.33-.75.75-.75h1.93c.41 0 .75.33.75.75v6c0 .41-.34.75-.75.75h-20c-.42 0-.75-.34-.75-.75v-6Z"/><path d="M1.92 13.01c.14-.17.35-.27.57-.27h19c.22 0 .42.09.57.26 .14.16.2.39.16.6l-.5 3c-.07.36-.38.62-.74.62h-18c-.37 0-.68-.27-.74-.63l-.5-3c-.04-.22.02-.44.16-.61Zm1.45 1.23l.25 1.5h16.72l.25-1.5H3.36Z"/><path d="M3.25 10.5c0-.42.33-.75.75-.75h7c.41 0 .75.33.75.75 0 .41-.34.75-.75.75H4c-.42 0-.75-.34-.75-.75Z"/><path d="M12.75 10.5c0-.42.33-.75.75-.75h2c.41 0 .75.33.75.75 0 .41-.34.75-.75.75h-2c-.42 0-.75-.34-.75-.75Z"/><path d="M17.25 10.5c0-.42.33-.75.75-.75h2c.41 0 .75.33.75.75 0 .41-.34.75-.75.75h-2c-.42 0-.75-.34-.75-.75Z"/></g></svg>