<svg viewBox="0 0 24 24" xmlns="http://www.w3.org/2000/svg"><g fill-rule="evenodd"><path d="M1.25 7.5c0-2.35 1.9-4.25 4.25-4.25 2.34 0 4.25 1.9 4.25 4.25v9c0 2.12-1.56 3.88-3.6 4.2 -.41.06-.8-.22-.86-.63 -.07-.41.21-.8.62-.86 1.31-.21 2.32-1.35 2.32-2.72v-9c0-1.52-1.24-2.75-2.75-2.75 -1.52 0-2.75 1.23-2.75 2.75v9c0 .42.09.82.26 1.18 .17.37.02.82-.36 1 -.38.17-.83.02-1.01-.36 -.27-.56-.42-1.18-.42-1.84v-9Z"/><path d="M17 7.75c-2.35 0-4.25 1.9-4.25 4.25 0 2.34 1.9 4.25 4.25 4.25 2.34 0 4.25-1.91 4.25-4.25 0-2.35-1.91-4.25-4.25-4.25ZM11.25 12c0-3.18 2.57-5.75 5.75-5.75 3.17 0 5.75 2.57 5.75 5.75 0 3.17-2.58 5.75-5.75 5.75 -3.18 0-5.75-2.58-5.75-5.75Z"/><path d="M17 6.25c.41 0 .75.33.75.75v10c0 .41-.34.75-.75.75 -.42 0-.75-.34-.75-.75V7c0-.42.33-.75.75-.75Z"/><path d="M1.25 12c0-.42.33-.75.75-.75h7c.41 0 .75.33.75.75 0 .41-.34.75-.75.75H2c-.42 0-.75-.34-.75-.75Z"/></g></svg>