<svg viewBox="0 0 24 24" xmlns="http://www.w3.org/2000/svg"><g fill-rule="evenodd"><path d="M12 9.25c-1.8 0-3.25 1.45-3.25 3.25 0 .35.05.69.16 1.01 .08.24.02.52-.15.72 -.64.74-1.02 1.7-1.02 2.76 0 .95.31 1.83.84 2.55 .24.33.18.8-.15 1.05 -.34.24-.81.18-1.06-.15 -.73-.97-1.16-2.16-1.16-3.46 0-1.28.41-2.47 1.12-3.42 -.09-.35-.13-.72-.13-1.09 0-2.63 2.12-4.75 4.75-4.75 2.62 0 4.75 2.12 4.75 4.75 0 .37-.05.73-.13 1.08 .7.95 1.12 2.13 1.12 3.41 0 3.17-2.58 5.75-5.75 5.75 -.42 0-.75-.34-.75-.75 0-.42.33-.75.75-.75 2.34 0 4.25-1.91 4.25-4.25 0-1.06-.39-2.02-1.02-2.77 -.18-.2-.23-.48-.15-.73 .1-.32.16-.67.16-1.02 0-1.8-1.46-3.25-3.25-3.25Z"/><path d="M12 1.25c.41 0 .75.33.75.75v6.5c0 .41-.34.75-.75.75 -.42 0-.75-.34-.75-.75V2c0-.42.33-.75.75-.75Z"/><path d="M12 13.75c-.42 0-.75.33-.75.75 0 .41.33.75.75.75 .41 0 .75-.34.75-.75 0-.42-.34-.75-.75-.75Zm-2.25.75c0-1.25 1-2.25 2.25-2.25 1.24 0 2.25 1 2.25 2.25 0 1.24-1.01 2.25-2.25 2.25 -1.25 0-2.25-1.01-2.25-2.25Z"/><path d="M9.25 18.5c0-.42.33-.75.75-.75h4c.41 0 .75.33.75.75 0 .41-.34.75-.75.75h-4c-.42 0-.75-.34-.75-.75Z"/><path d="M9.75 2c0-.42.33-.75.75-.75h3c.41 0 .75.33.75.75 0 .41-.34.75-.75.75h-3c-.42 0-.75-.34-.75-.75Z"/></g></svg>