<svg viewBox="0 0 24 24" xmlns="http://www.w3.org/2000/svg"><g fill-rule="evenodd"><path d="M12 18.75c-.7 0-1.25.55-1.25 1.25 0 .69.55 1.25 1.25 1.25 .69 0 1.25-.56 1.25-1.25 0-.7-.56-1.25-1.25-1.25ZM9.25 20c0-1.52 1.23-2.75 2.75-2.75 1.51 0 2.75 1.23 2.75 2.75 0 1.51-1.24 2.75-2.75 2.75 -1.52 0-2.75-1.24-2.75-2.75Z"/><path d="M5.7 4.16c-.28.4-.46.97-.46 1.83 0 .58.08 1.24.25 1.93 .09.4-.16.8-.56.9 -.41.09-.81-.16-.91-.56 -.2-.79-.3-1.57-.3-2.3 0-1.08.23-1.97.71-2.68C4.91 2.56 5.6 2.1 6.38 1.8c1.51-.58 3.53-.6 5.57-.6 2.032 0 4.05.02 5.57.59 .78.29 1.47.75 1.95 1.47 .48.71.71 1.6.71 2.67 0 2.11-.91 4.75-2.33 6.86 -1.41 2.09-3.48 3.88-5.93 3.88 -2.63 0-4.82-2.06-6.23-4.35 -.22-.36-.11-.82.24-1.04 .35-.22.81-.11 1.03.24 1.33 2.16 3.12 3.63 4.94 3.63 1.69 0 3.37-1.28 4.68-3.22 1.29-1.93 2.06-4.28 2.06-6.04 0-.86-.19-1.44-.46-1.84 -.28-.4-.69-.7-1.26-.92 -1.21-.46-2.93-.51-5.04-.51 -2.12 0-3.84.04-5.04.5 -.58.21-.99.51-1.26.91Z"/></g></svg>