<svg viewBox="0 0 24 24" xmlns="http://www.w3.org/2000/svg"><g fill-rule="evenodd"><path d="M2.75 4.5c0-.42.33-.75.75-.75h10.51c.41 0 .75.33.75.75 0 .41-.34.75-.75.75H4.24v8.5h15.5v-8.5h-1.71c-.42 0-.75-.34-.75-.75 0-.42.33-.75.75-.75h2.45c.41 0 .75.33.75.75v10c0 .41-.34.75-.75.75h-17c-.42 0-.75-.34-.75-.75v-10Z"/><path d="M2.78 14.28c.09-.32.38-.54.71-.54h17c.33 0 .62.21.71.53l1.5 5c.06.22.02.47-.12.66 -.15.19-.37.3-.61.3h-20c-.24 0-.47-.12-.61-.31 -.15-.2-.19-.44-.12-.67l1.5-5Zm1.27.96L3 18.74h17.984l-1.05-3.5H4.05Z"/><path d="M8.75 17c0-.42.33-.75.75-.75h5c.41 0 .75.33.75.75 0 .41-.34.75-.75.75h-5c-.42 0-.75-.34-.75-.75Z"/></g></svg>