<svg viewBox="0 0 24 24" xmlns="http://www.w3.org/2000/svg"><g fill-rule="evenodd"><path d="M1.25 11c0-.42.33-.75.75-.75h20c.41 0 .75.33.75.75v11c0 .41-.34.75-.75.75H2c-.42 0-.75-.34-.75-.75V11Zm1.5.75v9.5h18.5v-9.5H2.75Z"/><path d="M12.75 16.5c0-.42.33-.75.75-.75h6c.41 0 .75.33.75.75v3c0 .41-.34.75-.75.75h-6c-.42 0-.75-.34-.75-.75v-3Zm1.5.75v1.5h4.5v-1.5h-4.5Z"/><path d="M1.25 2c0-.42.33-.75.75-.75h20c.41 0 .75.33.75.75v9c0 .41-.34.75-.75.75H2c-.42 0-.75-.34-.75-.75V2Zm1.5.75v7.5h18.5v-7.5H2.75Z"/><path d="M1.25 6.5c0-.42.33-.75.75-.75h3.01c.41 0 .75.33.75.75 0 .41-.34.75-.75.75H1.99c-.42 0-.75-.34-.75-.75Zm6.99 0c0-.42.33-.75.75-.75h13c.41 0 .75.33.75.75 0 .41-.34.75-.75.75H8.98c-.42 0-.75-.34-.75-.75Z"/></g></svg>