<svg viewBox="0 0 24 24" xmlns="http://www.w3.org/2000/svg"><g fill-rule="evenodd"><path d="M7.56 5.34c-1.1 1.01-1.82 2.54-1.82 4.58 0 1.36.79 3.09 1.95 4.83 1.13 1.7 2.51 3.3 3.52 4.37 .42.45 1.12.45 1.55 0 1-1.08 2.38-2.67 3.52-4.38 1.15-1.75 1.95-3.47 1.95-4.84 0-.42.33-.75.75-.75 .41 0 .75.33.75.75 0 1.84-1.03 3.89-2.21 5.66 -1.2 1.8-2.65 3.47-3.676 4.56 -1.03 1.09-2.73 1.09-3.75 0 -1.03-1.1-2.48-2.77-3.68-4.57 -1.18-1.78-2.21-3.824-2.21-5.67 0-2.42.85-4.35 2.28-5.69 1.42-1.33 3.36-2 5.46-2 2.73 0 5.21 1.15 6.61 3.39 .21.35.11.81-.25 1.03 -.36.21-.82.11-1.04-.25 -1.07-1.72-3.02-2.69-5.34-2.69 -1.78 0-3.34.56-4.44 1.59Z"/><path d="M11.584 5.37c.25-.17.58-.17.83 0l3 2c.2.13.33.37.33.62v3.5c0 .25-.13.48-.34.62l-3 2c-.26.16-.59.16-.84 0l-3.01-2c-.21-.14-.34-.38-.34-.63v-3.5c0-.26.12-.49.33-.63l3-2Zm-1.84 3.02v2.69l2.25 1.5 2.25-1.5v-2.7l-2.25-1.5 -2.25 1.5Z"/><path d="M8.37 7.58c.22-.35.69-.44 1.04-.21l2.58 1.72 2.58-1.73c.34-.23.81-.14 1.04.2 .22.34.13.81-.21 1.04l-2.67 1.77v3.09c0 .41-.34.75-.75.75 -.42 0-.75-.34-.75-.75v-3.1L8.56 8.58c-.35-.23-.44-.7-.21-1.05Z"/></g></svg>