<svg viewBox="0 0 24 24" xmlns="http://www.w3.org/2000/svg"><g fill-rule="evenodd"><path d="M1.25 12c0-4.84 3.91-8.75 8.75-8.75h4c3.65 0 6.77 2.23 8.08 5.4 .09.22.17.46.25.69 .125.39-.1.81-.49.94 -.4.125-.82-.1-.95-.49 -.07-.2-.14-.39-.21-.58 -1.09-2.64-3.69-4.49-6.71-4.49h-4c-4.01 0-7.25 3.24-7.25 7.25v2.89c0 2.12 1.72 3.85 3.85 3.85 1.69 0 3.18-1.11 3.68-2.72l.39-1.3c.45-1.48 1.81-2.49 3.36-2.49 .78 0 1.55.26 2.17.75l2.2 1.73c1.14.9 2.83.08 2.83-1.38 0-.42.33-.75.75-.75 .41 0 .75.33.75.75 0 2.71-3.13 4.23-5.26 2.55l-2.21-1.74c-.36-.28-.8-.44-1.25-.44 -.89 0-1.67.57-1.93 1.42l-.4 1.29c-.7 2.24-2.77 3.77-5.12 3.77 -2.96 0-5.36-2.4-5.36-5.36v-2.9Z"/><path d="M6.5 14.25c-.42 0-.75.33-.75.75 0 .41.33.75.75.75 .41 0 .75-.34.75-.75 0-.42-.34-.75-.75-.75ZM4.25 15c0-1.25 1-2.25 2.25-2.25 1.24 0 2.25 1 2.25 2.25 0 1.24-1.01 2.25-2.25 2.25 -1.25 0-2.25-1.01-2.25-2.25Z"/><path d="M7.5 8.75c-.42 0-.75.33-.75.75 0 .41.33.75.75.75 .41 0 .75-.34.75-.75 0-.42-.34-.75-.75-.75Zm-2.25.75c0-1.25 1-2.25 2.25-2.25 1.24 0 2.25 1 2.25 2.25 0 1.24-1.01 2.25-2.25 2.25 -1.25 0-2.25-1.01-2.25-2.25Z"/><path d="M13.5 7.25c-.42 0-.75.33-.75.75 0 .41.33.75.75.75 .41 0 .75-.34.75-.75 0-.42-.34-.75-.75-.75ZM11.25 8c0-1.25 1-2.25 2.25-2.25 1.24 0 2.25 1 2.25 2.25 0 1.24-1.01 2.25-2.25 2.25 -1.25 0-2.25-1.01-2.25-2.25Z"/></g></svg>