<svg viewBox="0 0 24 24" xmlns="http://www.w3.org/2000/svg"><g fill-rule="evenodd"><path d="M12 2.75c-5.11 0-9.25 4.14-9.25 9.25 0 5.1 4.14 9.25 9.25 9.25 5.1 0 9.25-4.15 9.25-9.25 0-1.69-.45-3.27-1.24-4.62 -.21-.36-.09-.82.27-1.03 .35-.21.81-.09 1.02.27 .91 1.58 1.43 3.41 1.43 5.36 0 5.93-4.82 10.75-10.75 10.75 -5.94 0-10.75-4.82-10.75-10.75 0-5.94 4.81-10.75 10.75-10.75 1.97 0 3.82.53 5.41 1.46 .35.2.47.66.26 1.02 -.21.35-.67.47-1.03.26 -1.37-.81-2.97-1.26-4.67-1.26Z"/><path d="M12 5.6c-3.54 0-6.4 2.86-6.4 6.39 0 .41-.34.75-.75.75 -.42 0-.75-.34-.75-.75 0-4.36 3.53-7.9 7.89-7.9 .41 0 .75.33.75.75 0 .41-.34.75-.75.75Zm7.14 5.64c.41 0 .75.33.75.75 0 4.35-3.54 7.89-7.9 7.89 -.42 0-.75-.34-.75-.75 0-.42.33-.75.75-.75 3.53 0 6.39-2.87 6.39-6.4 0-.42.33-.75.75-.75Z"/></g></svg>