<svg viewBox="0 0 24 24" xmlns="http://www.w3.org/2000/svg"><g fill-rule="evenodd"><path d="M9.75 8c0-.42.33-.75.74-.75h3c.41 0 .75.33.75.75v2.05c0 .68.31 1.33.84 1.75l.44.35c.78.63 1.16 1.64.98 2.63l-.57 3.09c-.2 1.06-1.13 1.84-2.22 1.84h-3.5c-1.09 0-2.02-.78-2.22-1.85l-.57-3.1c-.19-1 .19-2.01.98-2.64l.44-.36c.53-.43.84-1.08.84-1.76V7.94Zm1.49.75v1.3c0 1.13-.52 2.21-1.41 2.92l-.45.35c-.36.28-.54.74-.45 1.19l.56 3.09c.06.35.37.61.73.61h3.49c.36 0 .673-.26.73-.62l.56-3.1c.08-.46-.1-.92-.45-1.2l-.45-.36c-.89-.72-1.41-1.79-1.41-2.93V8.69h-1.5Z"/><path d="M7.75 8c0-.42.33-.75.75-.75h7c.41 0 .75.33.75.75 0 .41-.34.75-.75.75h-7c-.42 0-.75-.34-.75-.75Z"/><path d="M3.25 5c0-.42.33-.75.75-.75h16c.41 0 .75.33.75.75v11.89c0 .41-.34.75-.75.75 -.42 0-.75-.34-.75-.75V5.74H4.75v15.5h14.5v-.45c0-.42.33-.75.75-.75 .41 0 .75.33.75.75v1.19c0 .41-.34.75-.75.75H4c-.42 0-.75-.34-.75-.75v-17Z"/><path d="M3.25 4c0-1.52 1.23-2.75 2.75-2.75h14c.41 0 .75.33.75.75 0 .41-.34.75-.75.75H6c-.7 0-1.25.55-1.25 1.25v1c0 .41-.34.75-.75.75 -.42 0-.75-.34-.75-.75V4Z"/></g></svg>