<svg viewBox="0 0 24 24" xmlns="http://www.w3.org/2000/svg"><g fill-rule="evenodd"><path d="M16 10.25c.24 0 .47.11.61.31l.92 1.31 1.53.47c.23.07.41.25.49.48 .07.23.03.48-.12.68l-.97 1.28 .01 1.6c0 .24-.12.47-.31.61 -.2.14-.46.18-.69.1l-1.53-.52 -1.53.51c-.24.07-.49.03-.69-.11 -.2-.15-.32-.38-.31-.62l.01-1.61 -.97-1.29c-.15-.2-.19-.45-.12-.68 .07-.24.25-.42.49-.49l1.53-.48 .92-1.32c.14-.2.36-.32.61-.32Zm0 2.04l-.47.65c-.1.13-.24.23-.39.28l-.766.23 .47.64c.09.13.15.29.14.45l-.01.8 .75-.26c.15-.06.32-.06.48 0l.75.25 -.01-.81c-.01-.17.05-.33.14-.46l.47-.65 -.77-.24c-.16-.05-.3-.15-.39-.29l-.47-.66Z"/><path d="M12 3.75c.24 0 .47.11.61.31l.92 1.31 1.53.47c.23.07.41.25.49.48 .07.23.03.48-.12.68l-.97 1.28 .01 1.6c0 .24-.12.47-.31.61 -.2.14-.46.18-.69.1l-1.53-.52 -1.53.51c-.24.07-.49.03-.69-.11 -.2-.15-.32-.38-.31-.62l.01-1.61 -.97-1.29c-.15-.2-.19-.45-.12-.69 .07-.24.25-.42.49-.49l1.53-.48 .92-1.32c.14-.2.36-.32.61-.32Zm0 2.04l-.47.65c-.1.13-.24.23-.39.28l-.766.23 .47.64c.09.13.15.29.14.45l-.01.8 .75-.26c.15-.06.32-.06.48 0l.75.25 -.01-.81c-.01-.17.05-.33.14-.46l.47-.65 -.766-.24c-.16-.05-.3-.15-.39-.29l-.47-.66Z"/><path d="M8 10.25c.24 0 .47.11.61.31l.92 1.31 1.53.47c.23.07.41.25.49.48 .07.23.03.48-.12.68l-.97 1.28 .01 1.6c0 .24-.12.47-.31.61 -.2.14-.46.18-.69.1l-1.53-.52 -1.53.51c-.24.07-.49.03-.69-.11 -.2-.15-.32-.38-.31-.62l.01-1.61 -.97-1.29c-.15-.2-.19-.45-.12-.68 .07-.24.25-.42.49-.49l1.53-.48 .92-1.32c.14-.2.36-.32.61-.32Zm0 2.04l-.47.65c-.1.13-.24.23-.39.28l-.77.23 .47.64c.09.13.15.29.14.45l-.01.8 .75-.26c.15-.06.32-.06.48 0l.75.25 -.01-.81c-.01-.17.05-.33.14-.46l.47-.65 -.77-.24c-.16-.05-.3-.15-.39-.29l-.47-.66Z"/><path d="M12 2.75c-5.11 0-9.25 4.14-9.25 9.25 0 5.1 4.14 9.25 9.25 9.25 .41 0 .75.33.75.75 0 .41-.34.75-.75.75 -5.94 0-10.75-4.82-10.75-10.75C1.25 6.06 6.06 1.25 12 1.25c5.93 0 10.75 4.81 10.75 10.75 0 3.93-2.12 7.37-5.27 9.24 -.39.22-.79.43-1.21.61 -.38.16-.83-.01-.99-.39 -.17-.38 0-.83.38-.99 .35-.16.7-.34 1.03-.54 2.71-1.62 4.52-4.58 4.52-7.96 0-5.11-4.15-9.25-9.25-9.25Z"/></g></svg>