<svg viewBox="0 0 24 24" xmlns="http://www.w3.org/2000/svg"><g fill-rule="evenodd"><path d="M12 3.75c-4.56 0-8.25 3.69-8.25 8.25 0 4.55 3.69 8.25 8.25 8.25 4.55 0 8.25-3.7 8.25-8.25 0-.96-.17-1.87-.46-2.72 -.14-.4.07-.82.46-.96s.81.07.95.46c.34 1 .53 2.08.53 3.2 0 5.38-4.37 9.75-9.75 9.75 -5.39 0-9.75-4.37-9.75-9.75 0-5.39 4.36-9.75 9.75-9.75 2.5 0 4.79.94 6.51 2.5 .3.27.33.75.05 1.05 -.28.3-.76.33-1.06.05 -1.47-1.32-3.4-2.12-5.52-2.12Z"/><path d="M12 7.75c-1.25 0-2.25 1-2.25 2.25 0 1.24 1 2.25 2.25 2.25 1.24 0 2.25-1.01 2.25-2.25 0-1.25-1.01-2.25-2.25-2.25ZM8.25 10c0-2.08 1.67-3.75 3.75-3.75 2.07 0 3.75 1.67 3.75 3.75 0 2.07-1.68 3.75-3.75 3.75 -2.08 0-3.75-1.68-3.75-3.75Z"/><path d="M12 16.25c-2.23 0-4.18 1.16-5.29 2.91 -.23.35-.69.45-1.04.23 -.36-.23-.46-.69-.24-1.04 1.37-2.18 3.79-3.62 6.55-3.62s5.18 1.44 6.55 3.61c.22.35.11.81-.24 1.03 -.36.22-.82.11-1.04-.24 -1.11-1.76-3.07-2.92-5.29-2.92Z"/></g></svg>