<svg viewBox="0 0 24 24" xmlns="http://www.w3.org/2000/svg"><g fill-rule="evenodd"><path d="M5.29 9.7c0-.42.33-.75.75-.75h3.2c.41 0 .74.33.74.75v5.5c0 .41-.34.75-.75.75H6.02c-.42 0-.75-.34-.75-.75V9.7Zm1.5.75v4h1.7v-4H6.78Z"/><path d="M14.92 6.53c-.22-.17-.52-.1-.66.13l-1.17 2.03c-.05.07-.1.14-.17.19l-1.61 1.37c-.14.11-.31.18-.49.18h-.86v4h5.96c.32 0 .6-.21.71-.52l.61-1.85c.26-.81-.34-1.65-1.19-1.65h-1.36c-.26 0-.49-.13-.63-.34 -.14-.22-.17-.48-.07-.71l1-2.35c.08-.19.02-.41-.15-.54Zm-1.96-.61c.58-1.02 1.91-1.3 2.85-.6 .71.53.97 1.49.62 2.32l-.56 1.3h.21c1.87 0 3.2 1.83 2.6 3.61l-.62 1.84c-.31.91-1.17 1.53-2.14 1.53H9.2c-.42 0-.75-.34-.75-.75V9.66c0-.42.33-.75.75-.75h1.32l1.29-1.11 1.09-1.93Z"/><path d="M10.22 2.17c.87-1.21 2.67-1.21 3.55 0 .2.28.58.36.88.2 1.31-.71 2.93.07 3.199 1.54 .07.4-.2.79-.61.87 -.41.07-.8-.2-.88-.61 -.09-.47-.6-.72-1.02-.49 -.97.52-2.18.24-2.82-.65 -.28-.39-.85-.39-1.13 0 -.65.89-1.85 1.16-2.82.64 -.42-.23-.93.02-1.02.48 -.2 1.08-1.17 1.85-2.26 1.8 -.48-.03-.83.42-.7.87 .29 1.05-.25 2.17-1.26 2.6 -.44.18-.56.73-.25 1.09 .72.82.72 2.06 0 2.88 -.32.35-.19.9.24 1.09 1.01.43 1.54 1.54 1.25 2.6 -.13.45.22.89.69.87 1.09-.06 2.06.71 2.25 1.8 .08.46.59.71 1.01.48 .96-.53 2.17-.25 2.81.64 .27.38.84.38 1.12 0 .64-.9 1.84-1.17 2.81-.65 .41.22.92-.03 1.01-.49 .19-1.09 1.16-1.86 2.25-1.81 .47.02.82-.43.69-.88 -.3-1.06.24-2.18 1.25-2.61 .43-.19.55-.74.24-1.1 -.73-.83-.73-2.07 0-2.89 .31-.36.18-.91-.25-1.1 -.39-.17-.56-.61-.4-.99 .16-.39.6-.56.98-.4 1.37.58 1.77 2.33.79 3.46 -.23.26-.23.65 0 .91 .98 1.12.58 2.87-.8 3.46 -.32.13-.49.48-.4.82 .39 1.43-.73 2.84-2.22 2.77 -.35-.02-.66.22-.72.56 -.27 1.46-1.89 2.24-3.199 1.54 -.31-.17-.69-.08-.89.2 -.88 1.2-2.68 1.2-3.56 0 -.21-.29-.59-.37-.89-.21 -1.32.7-2.94-.08-3.2-1.55 -.07-.35-.37-.59-.72-.57C3.72 19.4 2.6 18 3 16.56c.09-.34-.08-.69-.4-.83 -1.38-.59-1.78-2.34-.8-3.47 .22-.27.22-.66 0-.92 -.99-1.13-.59-2.88.79-3.47 .31-.14.48-.49.39-.83 -.4-1.44.72-2.85 2.21-2.78 .34.01.65-.23.71-.57 .26-1.47 1.88-2.25 3.19-1.55 .3.16.68.07.88-.21Z"/></g></svg>