<svg viewBox="0 0 24 24" xmlns="http://www.w3.org/2000/svg"><g fill-rule="evenodd"><path d="M6.25 2c0-.42.33-.75.75-.75h9c.41 0 .75.33.75.75v2.02c0 .41-.34.75-.75.75 -.42 0-.75-.34-.75-.75V2.74h-7.5v18.5h7.5V7.51c0-.42.33-.75.75-.75 .41 0 .75.33.75.75v14.47c0 .41-.34.75-.75.75H7c-.42 0-.75-.34-.75-.75v-20Z"/><path d="M8.75 15c0-.42.33-.75.75-.75h4c.41 0 .75.33.75.75 0 .41-.34.75-.75.75h-4c-.42 0-.75-.34-.75-.75Z"/><path d="M8.75 19.5c0-.42.33-.75.75-.75h4c.41 0 .75.33.75.75 0 .41-.34.75-.75.75h-4c-.42 0-.75-.34-.75-.75Z"/><path d="M8.75 10c0-.42.33-.75.75-.75h4c.41 0 .75.33.75.75 0 .41-.34.75-.75.75h-4c-.42 0-.75-.34-.75-.75Z"/><path d="M8.75 7c0-.42.33-.75.75-.75h4c.41 0 .75.33.75.75 0 .41-.34.75-.75.75h-4c-.42 0-.75-.34-.75-.75Z"/><path d="M11.25 4.5c0-.42.33-.75.75-.75h1.5c.41 0 .75.33.75.75 0 .41-.34.75-.75.75H12c-.42 0-.75-.34-.75-.75Z"/><path d="M11.5 17.75c-.42 0-.75-.34-.75-.75v-4c0-.42.33-.75.75-.75 .41 0 .75.33.75.75v4c0 .41-.34.75-.75.75Z"/></g></svg>