<svg viewBox="0 0 24 24" xmlns="http://www.w3.org/2000/svg"><g fill-rule="evenodd"><path d="M3.25 4.5c0-.42.33-.75.75-.75h5.99c.41 0 .75.33.75.75 0 .41-.34.75-.76.75H4.73v1.5h10.5v-1.5h-1.14c-.42 0-.75-.34-.75-.75 0-.42.33-.75.75-.75h1.88c.41 0 .75.33.75.75v3c0 .41-.34.75-.75.75h-12c-.42 0-.75-.34-.75-.75v-3Z"/><path d="M3.25 16.5c0-.42.33-.75.75-.75h12c.41 0 .75.33.75.75v3c0 .41-.34.75-.75.75H4c-.42 0-.75-.34-.75-.75v-3Zm1.5.75v1.5h10.5v-1.5H4.75Z"/><path d="M5.25 7.5c0-.42.33-.75.75-.75h8c.41 0 .75.33.75.75v9c0 .41-.34.75-.75.75H6c-.42 0-.75-.34-.75-.75v-9Zm1.5.75v7.5h6.5v-7.5h-6.5Z"/><path d="M20 3.75c.41 0 .75.33.75.75v15c0 .41-.34.75-.75.75 -.42 0-.75-.34-.75-.75v-15c0-.42.33-.75.75-.75Z"/></g></svg>