<svg viewBox="0 0 24 24" xmlns="http://www.w3.org/2000/svg"><g fill-rule="evenodd"><path d="M4.26 4.86c.06-.36.37-.62.73-.62h14c.36 0 .67.26.73.61l3 17c.03.21-.03.44-.17.61 -.15.16-.36.26-.58.26h-20c-.23 0-.44-.1-.58-.27 -.15-.17-.21-.4-.17-.62l3-17Zm1.36.88l-2.74 15.5h18.21l-2.74-15.5H5.6Z"/><path d="M4.25 2c0-.42.33-.75.75-.75h7.86c.41 0 .75.33.75.75 0 .41-.34.75-.75.75H5.74v1.5h12.5v-1.5h-1.26c-.42 0-.75-.34-.75-.75 0-.42.33-.75.75-.75h2c.41 0 .75.33.75.75v3c0 .41-.34.75-.75.75h-14c-.42 0-.75-.34-.75-.75V2Z"/><path d="M8.12 6.76c.4.07.68.45.61.86l-2.5 14.5c-.08.4-.46.68-.87.61 -.41-.08-.69-.46-.62-.87l2.5-14.5c.07-.41.45-.69.86-.62Z"/><path d="M15.89 6.75c-.42.05-.7.43-.65.84l2 14.5c.05.41.43.69.84.64 .41-.06.69-.44.64-.85l-2-14.5c-.06-.42-.44-.7-.85-.65Z"/><path d="M12 6.75c.41 0 .75.33.75.75V22c0 .41-.34.75-.75.75 -.42 0-.75-.34-.75-.75V7.5c0-.42.33-.75.75-.75Z"/></g></svg>