<svg viewBox="0 0 24 24" xmlns="http://www.w3.org/2000/svg"><path fill-rule="evenodd" d="M5.75 2.5c0-.42.33-.75.75-.75H9c.41 0 .75.33.75.75 0 1.24 1 2.25 2.25 2.25 1.24 0 2.25-1.01 2.25-2.25 0-.42.33-.75.75-.75h2.5c.41 0 .75.33.75.75v4.04c0 1.41.48 2.79 1.36 3.9l.46.58c.1.13.16.29.16.46v10c0 .41-.34.75-.75.75h-2.49c-.42 0-.75-.34-.75-.75 0-.42.33-.75.75-.75h1.73v-8.99l-.31-.38c-1.1-1.38-1.7-3.09-1.7-4.85v-3.3h-1.08c-.35 1.71-1.87 3-3.68 3 -1.82 0-3.33-1.29-3.68-3H7.19V6.5c0 1.75-.6 3.46-1.7 4.84l-.31.37v8.98h7.75c.41 0 .75.33.75.75 0 .41-.34.75-.75.75h-8.5c-.42 0-.75-.34-.75-.75v-10c0-.18.05-.34.16-.47l.46-.59c.88-1.11 1.36-2.49 1.36-3.91V2.42Z"/></svg>