<svg viewBox="0 0 24 24" xmlns="http://www.w3.org/2000/svg"><g fill-rule="evenodd"><path d="M16.9 2.11c.13-.23.37-.37.64-.37h4.45c.41 0 .75.33.75.75v2.58c0 .41-.34.75-.75.75 -.42 0-.75-.34-.75-.75V3.23h-3.29L8.73 18.54v2.68h9.25c1.79 0 3.25-1.46 3.25-3.25V8.73c0-.42.33-.75.75-.75 .41 0 .75.33.75.75v9.23c0 2.62-2.13 4.75-4.75 4.75h-10c-.42 0-.75-.34-.75-.75v-3.65c0-.14.03-.27.1-.39l9.54-15.86Z"/><path d="M18.82 5.85c.35.21.46.67.25 1.02l-7.44 12.35c-.22.35-.68.46-1.03.25 -.36-.22-.47-.68-.26-1.03l7.43-12.36c.21-.36.67-.47 1.02-.26Z"/><path d="M1.25 10.5c0-4.84 3.91-8.75 8.75-8.75h7.5c.41 0 .75.33.75.75 0 .41-.34.75-.75.75H10c-4.01 0-7.25 3.24-7.25 7.25V16c0 2.64 1.95 4.83 4.5 5.19v-1.53c-1.72-.35-3-1.87-3-3.68v-4c0-4.29 3.46-7.75 7.75-7.75h4c.41 0 .75.33.75.75 0 .41-.34.75-.75.75h-4c-3.46 0-6.25 2.79-6.25 6.25v4c0 1.24 1 2.25 2.25 2.25v.75h.75v3H8v.75c-3.73 0-6.75-3.03-6.75-6.75v-5.5Z"/></g></svg>