<svg viewBox="0 0 24 24" xmlns="http://www.w3.org/2000/svg"><g fill-rule="evenodd"><path d="M4.76 4.35c.07-.36.37-.61.73-.61h13c.35 0 .66.25.73.6l.73 3.67c.52 2.62.52 5.32 0 7.94l-.74 3.67c-.08.35-.38.6-.74.6h-13c-.36 0-.67-.26-.74-.61l-.74-3.68c-.53-2.63-.53-5.33 0-7.95l.73-3.68Zm1.35.89l-.62 3.07c-.49 2.42-.49 4.92 0 7.35l.61 3.07h11.77l.61-3.08c.48-2.43.48-4.927 0-7.36l-.62-3.08H6.08Z"/><path d="M4.42 1.52c.14-.18.35-.28.58-.28h14c.22 0 .43.1.58.27 .14.17.19.4.15.62l-.5 2.5c-.08.35-.38.6-.74.6h-13c-.36 0-.67-.26-.74-.61l-.5-2.5c-.05-.23.01-.45.15-.63Zm1.49 1.22l.2 1h11.77l.2-1H5.9Z"/><path d="M4.76 19.35c.07-.36.37-.61.73-.61h13c.35 0 .66.25.73.6l.5 2.5c.04.22-.02.44-.16.62 -.15.17-.36.27-.58.27h-14c-.23 0-.44-.11-.59-.28 -.15-.18-.2-.41-.16-.63l.5-2.5Zm1.35.89l-.2 1h12.17l-.2-1H6.1Z"/><path d="M9.62 8.47c-.59.43-.88.98-.88 1.52 0 .53.28 1.08.87 1.52 .58.43 1.42.72 2.37.72 .95 0 1.79-.3 2.37-.73 .58-.44.87-.99.87-1.53s-.29-1.09-.88-1.53c-.59-.44-1.43-.73-2.38-.73 -.96 0-1.8.29-2.38.72Zm-.9-1.2c.86-.65 2.02-1.03 3.27-1.03s2.41.37 3.27 1.02c.86.64 1.47 1.6 1.47 2.72 0 1.11-.61 2.07-1.48 2.72 -.87.64-2.03 1.02-3.28 1.02 -1.26 0-2.42-.38-3.28-1.03 -.87-.65-1.48-1.61-1.48-2.73 0-1.12.6-2.08 1.47-2.73Z"/></g></svg>