<svg viewBox="0 0 24 24" xmlns="http://www.w3.org/2000/svg"><g fill-rule="evenodd"><path d="M13.25 2.5c0-.42.33-.75.75-.75h6c.41 0 .75.33.75.75v12.71c0 1.07-.64 2.05-1.62 2.5l-8.51 3.86c-1.01.45-2.13.58-3.21.36l-1.9-.38c-1.33-.27-2.29-1.43-2.29-2.79 0-1.08.6-2.06 1.56-2.54l2.84-1.43c.37-.19.82-.04 1 .33 .18.37.03.82-.34 1l-2.85 1.42c-.46.22-.74.68-.74 1.19 0 .63.44 1.18 1.07 1.31l1.89.37c.77.15 1.57.06 2.28-.27l8.5-3.87c.44-.21.73-.65.73-1.14V3.16h-4.5v7.25c0 .22-.1.43-.27.57l-2.49 2.07c-.32.26-.8.22-1.06-.1 -.27-.32-.23-.8.09-1.06l2.21-1.85V2.39Z"/><path d="M13.25 5.5c0-.42.33-.75.75-.75h6c.41 0 .75.33.75.75 0 .41-.34.75-.75.75h-6c-.42 0-.75-.34-.75-.75Z"/><path d="M15.25 15c0-1.8 1.45-3.25 3.25-3.25H20c.41 0 .75.33.75.75 0 .41-.34.75-.75.75h-1.5c-.97 0-1.75.78-1.75 1.75v3c0 .41-.34.75-.75.75 -.42 0-.75-.34-.75-.75v-3Z"/></g></svg>