<svg viewBox="0 0 24 24" xmlns="http://www.w3.org/2000/svg"><g fill-rule="evenodd"><path d="M10.28 6.75c.27-.03.53.1.68.33l1.36 2.05 2.48-.65c.22-.06.46-.01.64.13s.29.36.29.59v1.78c0 2.07-1.68 3.75-3.75 3.75h-.27c-1.93 0-3.49-1.57-3.49-3.49 0-.61.12-1.21.37-1.77l1.03-2.31c.11-.25.35-.42.62-.45Zm.18 2.29l-.48 1.06c-.17.36-.25.75-.25 1.14 0 1.09.89 1.98 1.98 1.98h.26c1.24 0 2.25-1.01 2.25-2.25v-.82l-2.061.53c-.32.08-.64-.05-.82-.32l-.91-1.37Z"/><path d="M16.15 15.62c.2.35.08.81-.28 1.02l-7 4c-.36.2-.82.08-1.03-.28 -.21-.36-.09-.82.27-1.03l6.99-4c.35-.21.81-.09 1.02.27Z"/><path d="M7.84 15.62c-.21.35-.09.81.27 1.02l7 4c.35.2.81.08 1.02-.28 .2-.36.08-.82-.28-1.03l-7.01-4c-.36-.21-.82-.09-1.03.27Z"/><path d="M3.25 5c0-.42.33-.75.75-.75h16c.41 0 .75.33.75.75v11.89c0 .41-.34.75-.75.75 -.42 0-.75-.34-.75-.75V5.74H4.75v15.5h14.5v-.45c0-.42.33-.75.75-.75 .41 0 .75.33.75.75v1.19c0 .41-.34.75-.75.75H4c-.42 0-.75-.34-.75-.75v-17Z"/><path d="M3.25 4c0-1.52 1.23-2.75 2.75-2.75h14c.41 0 .75.33.75.75 0 .41-.34.75-.75.75H6c-.7 0-1.25.55-1.25 1.25v1c0 .41-.34.75-.75.75 -.42 0-.75-.34-.75-.75V4Z"/></g></svg>