<svg viewBox="0 0 24 24" xmlns="http://www.w3.org/2000/svg"><g fill-rule="evenodd"><path d="M12 2.75c-5.11 0-9.25 4.14-9.25 9.25 0 5.1 4.14 9.25 9.25 9.25 5.1 0 9.25-4.15 9.25-9.25 0-2.57-1.05-4.89-2.74-6.57 -.3-.3-.3-.77-.01-1.07 .29-.3.76-.3 1.06-.01 1.96 1.94 3.17 4.64 3.17 7.63 0 5.93-4.82 10.75-10.75 10.75 -5.94 0-10.75-4.82-10.75-10.75 0-5.94 4.81-10.75 10.75-10.75 1.13 0 2.22.17 3.25.5 .39.12.61.54.48.94 -.13.39-.55.61-.95.48 -.89-.28-1.83-.44-2.81-.44Z"/><path d="M6.5 6.25c.41 0 .75.33.75.75v3c0 .69.55 1.25 1.25 1.25 .69 0 1.25-.56 1.25-1.25V7c0-.42.33-.75.75-.75 .41 0 .75.33.75.75v3c0 1.51-1.24 2.75-2.75 2.75 -1.52 0-2.75-1.24-2.75-2.75V7c0-.42.33-.75.75-.75Z"/><path d="M15.5 7.75c-.7 0-1.25.55-1.25 1.25v1c0 .69.55 1.25 1.25 1.25 .69 0 1.25-.56 1.25-1.25V9c0-.7-.56-1.25-1.25-1.25ZM12.75 9c0-1.52 1.23-2.75 2.75-2.75 1.51 0 2.75 1.23 2.75 2.75v1c0 1.51-1.24 2.75-2.75 2.75 -1.52 0-2.75-1.24-2.75-2.75V9Z"/><path d="M8.5 11.25c.41 0 .75.33.75.75v6.84c0 .41-.34.75-.75.75 -.42 0-.75-.34-.75-.75v-6.85c0-.42.33-.75.75-.75Z"/><path d="M15.5 11.25c.41 0 .75.33.75.75v6.84c0 .41-.34.75-.75.75 -.42 0-.75-.34-.75-.75v-6.85c0-.42.33-.75.75-.75Z"/></g></svg>