<svg viewBox="0 0 24 24" xmlns="http://www.w3.org/2000/svg"><g fill-rule="evenodd"><path d="M22 17.75c.41 0 .75-.34.75-.75V7c0-.42-.34-.75-.75-.75h-3c-.42 0-.75.33-.75.75v10c0 .41.33.75.75.75h3Zm-.75-1.5h-1.5v-8.5h1.5v8.5Z"/><path d="M5 14.75c.41 0 .75-.34.75-.75v-4c0-.42-.34-.75-.75-.75H2c-.42 0-.75.33-.75.75v4c0 .41.33.75.75.75h3Zm-.75-1.5h-1.5v-2.5h1.5v2.5Z"/><path d="M19.51 6.45c.15.14.23.34.23.54v10c0 .2-.09.4-.24.54 -.16.14-.36.21-.57.19l-7.99-.58c-.42-.03-.73-.39-.7-.81 .02-.42.38-.73.8-.7l7.17.51V7.75l-10.88.77c-.92.06-1.63.82-1.63 1.74v3.34c0 .91.7 1.68 1.62 1.74 .41.02.72.38.69.8 -.03.41-.39.72-.81.69 -1.71-.13-3.02-1.54-3.02-3.25v-3.35c0-1.71 1.31-3.13 3.01-3.25l11.67-.84c.2-.02.41.05.56.19Z"/><path d="M13.25 12c0 .69-.56 1.25-1.25 1.25 -.7 0-1.25-.56-1.25-1.25 0-.7.55-1.25 1.25-1.25 .69 0 1.25.55 1.25 1.25ZM12 14.75c1.51 0 2.75-1.24 2.75-2.75 0-1.52-1.24-2.75-2.75-2.75 -1.52 0-2.75 1.23-2.75 2.75 0 1.51 1.23 2.75 2.75 2.75Z"/></g></svg>