<svg viewBox="0 0 24 24" xmlns="http://www.w3.org/2000/svg"><g fill-rule="evenodd"><path d="M10.91 9.37c.21.13.33.37.33.62v3.5c0 .41-.34.75-.75.75h-3.5c-.42 0-.75-.34-.75-.75v-2c0-.3.17-.58.45-.69l3.5-1.5c.23-.1.49-.08.7.06Zm-3.17 2.62v.75h2v-1.62l-2 .85Z"/><path d="M13.08 9.37c-.22.13-.34.37-.34.62v3.5c0 .41.33.75.75.75h3.5c.41 0 .75-.34.75-.75v-2c0-.3-.18-.58-.46-.69l-3.5-1.5c-.24-.1-.5-.08-.71.06Zm3.16 2.62v.75h-2v-1.62l2 .85Z"/><path d="M9.75 8.5c0-1.25 1-2.25 2.25-2.25 1.24 0 2.25 1 2.25 2.25V14c0 .08-.02.16-.04.23l-1.5 4.5c-.11.3-.39.51-.72.51 -.33 0-.61-.21-.72-.52l-1.51-4.5c-.03-.08-.04-.16-.04-.24v-5.5ZM12 7.75c-.42 0-.75.33-.75.75v5.37l.75 2.25 .75-2.25V8.49c0-.42-.34-.75-.75-.75Z"/><path d="M11.61 17.85c.24-.15.55-.15.79.01l2.34 1.5c.34.22.45.68.22 1.03 -.23.34-.69.45-1.04.22l-1.96-1.25 -2.11 1.26c-.36.21-.82.09-1.029-.26 -.22-.36-.1-.82.25-1.029l2.49-1.5Z"/><path d="M3.25 5c0-.42.33-.75.75-.75h16c.41 0 .75.33.75.75v11.89c0 .41-.34.75-.75.75 -.42 0-.75-.34-.75-.75V5.74H4.75v15.5h14.5v-.45c0-.42.33-.75.75-.75 .41 0 .75.33.75.75v1.19c0 .41-.34.75-.75.75H4c-.42 0-.75-.34-.75-.75v-17Z"/><path d="M3.25 4c0-1.52 1.23-2.75 2.75-2.75h14c.41 0 .75.33.75.75 0 .41-.34.75-.75.75H6c-.7 0-1.25.55-1.25 1.25v1c0 .41-.34.75-.75.75 -.42 0-.75-.34-.75-.75V4Z"/></g></svg>