<svg viewBox="0 0 24 24" xmlns="http://www.w3.org/2000/svg"><g fill-rule="evenodd"><path d="M3.25 2c0-.42.33-.75.75-.75h16c.41 0 .75.33.75.75v12.13c0 .41-.34.75-.75.75 -.42 0-.75-.34-.75-.75V2.74H4.75v18.5h2.68l3.84-12.97c.09-.32.38-.54.71-.54 .33 0 .62.21.71.53l3.84 12.96h2.69V18c0-.42.33-.75.75-.75 .41 0 .75.33.75.75v3.96c0 .41-.34.75-.75.75h-4c-.34 0-.63-.22-.72-.54l-3.29-11.08 -3.29 11.07c-.1.31-.39.53-.72.53h-4c-.42 0-.75-.34-.75-.75v-20Z"/><path d="M16 1.25c.41 0 .75.33.75.75 0 1.79 1.45 3.25 3.25 3.25 .41 0 .75.33.75.75 0 .41-.34.75-.75.75 -2.63 0-4.75-2.13-4.75-4.75 0-.42.33-.75.75-.75Z"/><path d="M8 1.25c-.42 0-.75.33-.75.75 0 1.79-1.46 3.25-3.25 3.25 -.42 0-.75.33-.75.75 0 .41.33.75.75.75 2.62 0 4.75-2.13 4.75-4.75 0-.42-.34-.75-.75-.75Z"/></g></svg>