<svg viewBox="0 0 24 24" xmlns="http://www.w3.org/2000/svg"><g fill-rule="evenodd"><path d="M3.78 2.28c.09-.32.38-.54.71-.54h9.5c.41 0 .75.33.75.75 0 .41-.34.75-.75.75H5.04L3.73 7.59c.05 1.19 1.03 2.14 2.24 2.14 1.24 0 2.25-1.01 2.25-2.25 0-.42.33-.75.75-.75 .41 0 .75.33.75.75 0 1.24 1 2.25 2.25 2.25 1.24 0 2.25-1.01 2.25-2.25 0-.42.33-.75.75-.75 .41 0 .75.33.75.75 0 1.24 1 2.25 2.25 2.25 1.2 0 2.19-.96 2.24-2.15L18.9 3.22h-.95c-.42 0-.75-.34-.75-.75 0-.42.33-.75.75-.75h1.5c.33 0 .62.21.71.53l1.5 5c.02.06.03.14.03.21 0 2.07-1.68 3.75-3.75 3.75 -1.23 0-2.32-.59-3-1.5 -.69.91-1.78 1.49-3 1.49 -1.23 0-2.32-.59-3-1.5 -.69.91-1.78 1.49-3 1.49 -2.08 0-3.75-1.68-3.75-3.75 0-.08.01-.15.03-.22l1.5-5Z"/><path d="M4 9.25c.41 0 .75.33.75.75v10.25h14.5V10c0-.42.33-.75.75-.75 .41 0 .75.33.75.75v11c0 .41-.34.75-.75.75H4c-.42 0-.75-.34-.75-.75V10c0-.42.33-.75.75-.75Z"/><path d="M12 12.25c.24 0 .47.11.61.31l.92 1.31 1.53.47c.23.07.41.25.49.48 .07.23.03.48-.12.68l-.97 1.28 .01 1.6c0 .24-.12.47-.31.61 -.2.14-.46.18-.69.1l-1.53-.52 -1.53.51c-.24.07-.49.03-.69-.11 -.2-.15-.32-.38-.31-.62l.01-1.61 -.97-1.29c-.15-.2-.19-.45-.12-.68 .07-.24.25-.42.49-.49l1.53-.48 .92-1.32c.14-.2.36-.32.61-.32Zm0 2.04l-.47.65c-.1.13-.24.23-.39.28l-.766.23 .47.64c.09.13.15.29.14.45l-.01.8 .75-.26c.15-.06.32-.06.48 0l.75.25 -.01-.81c-.01-.17.05-.33.14-.46l.47-.65 -.766-.24c-.16-.05-.3-.15-.39-.29l-.47-.66Z"/></g></svg>