<svg viewBox="0 0 24 24" xmlns="http://www.w3.org/2000/svg"><g fill-rule="evenodd"><path d="M14.75 4.94c.02-.4.35-.7.74-.7h6c.39 0 .72.3.74.69l.5 7c.01.2-.06.41-.2.56 -.15.15-.35.23-.55.23h-7c-.21 0-.41-.09-.55-.24 -.15-.16-.22-.36-.2-.57l.07-1.01c.02-.42.38-.73.8-.7 .41.02.72.38.69.8l-.02.2h5.38l-.4-5.5h-4.61l-.1 1.3c-.03.41-.39.72-.81.69 -.42-.03-.73-.39-.7-.81l.14-2.01Z"/><path d="M21.25 4c0-1.52-1.24-2.75-2.75-2.75 -1.52 0-2.75 1.23-2.75 2.75v1c0 .41.33.75.75.75h4c.41 0 .75-.34.75-.75V4ZM18.5 2.75c.69 0 1.25.55 1.25 1.25v.25h-2.5V4c0-.7.55-1.25 1.25-1.25Z"/><path d="M11.75 13c0-.42-.34-.75-.75-.75H2c-.42 0-.75.33-.75.75v9c0 .41.33.75.75.75h9c.41 0 .75-.34.75-.75v-9Zm-1.5.75v7.5h-7.5v-7.5h7.5Z"/><path d="M9.25 13c0-.42-.34-.75-.75-.75h-4c-.42 0-.75.33-.75.75v4c0 .25.13.5.35.63 .22.13.49.14.72.03l1.66-.84 1.66.83c.23.11.5.1.72-.04 .22-.14.35-.38.35-.64v-4Zm-1.5.75v2.03l-.92-.46c-.22-.11-.46-.11-.68 0l-.92.45v-2.04h2.5Z"/><path d="M11.75 5C8.29 5 5.5 7.79 5.5 11.25c0 .41-.34.75-.75.75 -.42 0-.75-.34-.75-.75C4 6.96 7.46 3.5 11.75 3.5c.41 0 .75.33.75.75 0 .41-.34.75-.75.75Z"/><path d="M10.13 1.34c.36-.21.81-.08 1.01.29l1.25 2.25c.12.22.12.5 0 .72l-1.25 2.25c-.21.36-.66.49-1.02.29 -.37-.21-.5-.66-.3-1.02l1.04-1.89 -1.05-1.89c-.21-.37-.08-.82.29-1.02Z"/></g></svg>