<svg viewBox="0 0 24 24" xmlns="http://www.w3.org/2000/svg"><g fill-rule="evenodd"><path d="M1.25 2c0-.42.33-.75.75-.75h13c.41 0 .75.33.75.75v5.5c0 .41-.34.75-.75.75 -.42 0-.75-.34-.75-.75V2.75H2.75v10.2c0 .41-.34.75-.75.75 -.42 0-.75-.34-.75-.75V1.99ZM2 16.23c.41 0 .75.33.75.75v2.26H9c.41 0 .75.33.75.75 0 .41-.34.75-.75.75H2c-.42 0-.75-.34-.75-.75v-3.02c0-.42.33-.75.75-.75Z"/><path d="M16 10.75c-2.9 0-5.25 2.35-5.25 5.25 0 2.89 2.35 5.25 5.25 5.25 2.89 0 5.25-2.36 5.25-5.25 0-2.9-2.36-5.25-5.25-5.25ZM9.25 16c0-3.73 3.02-6.75 6.75-6.75 3.72 0 6.75 3.02 6.75 6.75 0 3.72-3.03 6.75-6.75 6.75 -3.73 0-6.75-3.03-6.75-6.75Z"/><path d="M16 14.75c-.7 0-1.25.55-1.25 1.25 0 .69.55 1.25 1.25 1.25 .69 0 1.25-.56 1.25-1.25 0-.7-.56-1.25-1.25-1.25ZM13.25 16c0-1.52 1.23-2.75 2.75-2.75 1.51 0 2.75 1.23 2.75 2.75 0 1.51-1.24 2.75-2.75 2.75 -1.52 0-2.75-1.24-2.75-2.75Z"/><path d="M18.2 9.77c.39.11.62.52.51.92l-1 3.5c-.12.39-.53.62-.93.51 -.4-.12-.63-.53-.52-.93l1-3.5c.11-.4.52-.63.92-.52Z"/><path d="M15.7 17.27c.39.11.62.52.51.92l-1 3.5c-.12.39-.53.62-.93.51 -.4-.12-.63-.53-.52-.93l1-3.5c.11-.4.52-.63.92-.52Z"/><path d="M6 5.25c-.42 0-.75.33-.75.75v1.75c0 .27.22.5.5.5H6c.13 0 .25-.12.25-.25 0-.97.78-1.75 1.75-1.75h1c.96 0 1.75.78 1.75 1.75 0 .13.11.25.25.25h.25c.27 0 .5-.23.5-.5V6c0-.42-.34-.75-.75-.75H6ZM3.75 6c0-1.25 1-2.25 2.25-2.25h5c1.24 0 2.25 1 2.25 2.25v1.75c0 1.1-.9 2-2 2H11c-.97 0-1.75-.79-1.75-1.75 0-.14-.12-.25-.25-.25H8c-.14 0-.25.11-.25.25 0 .96-.79 1.75-1.75 1.75h-.25c-1.11 0-2-.9-2-2V6Z"/></g></svg>