<svg viewBox="0 0 24 24" xmlns="http://www.w3.org/2000/svg"><g fill-rule="evenodd"><path d="M2.25 2c0-.42.33-.75.75-.75h18c.41 0 .75.33.75.75v20c0 .41-.34.75-.75.75H3c-.42 0-.75-.34-.75-.75v-3.01c0-.42.33-.75.75-.75 .41 0 .75.33.75.75v2.25h16.5V2.74H3.75v12.29c0 .41-.34.75-.75.75 -.42 0-.75-.34-.75-.75V1.98Z"/><path d="M2.25 2c0-.42.33-.75.75-.75h18c.41 0 .75.33.75.75v5c0 .41-.34.75-.75.75H3c-.42 0-.75-.34-.75-.75V2Zm1.5.75v3.5h16.5v-3.5H3.75Z"/><path d="M12 10.25c-2.35 0-4.25 1.9-4.25 4.25 0 2.34 1.9 4.25 4.25 4.25 2.34 0 4.25-1.91 4.25-4.25 0-2.35-1.91-4.25-4.25-4.25ZM6.25 14.5c0-3.18 2.57-5.75 5.75-5.75 3.17 0 5.75 2.57 5.75 5.75 0 3.17-2.58 5.75-5.75 5.75 -3.18 0-5.75-2.58-5.75-5.75Z"/><path d="M4.75 4.5c0-.42.33-.75.75-.75h2c.41 0 .75.33.75.75 0 .41-.34.75-.75.75h-2c-.42 0-.75-.34-.75-.75Z"/><path d="M9.25 4.5c0-.42.33-.75.75-.75h2c.41 0 .75.33.75.75 0 .41-.34.75-.75.75h-2c-.42 0-.75-.34-.75-.75Z"/></g></svg>