<svg viewBox="0 0 24 24" xmlns="http://www.w3.org/2000/svg"><g fill-rule="evenodd"><path d="M4.25 2c0-.42.33-.75.75-.75h7.99c.41 0 .75.33.75.75 0 .41-.34.75-.75.75H5.74v15.5h12.5V2.75h-1.27c-.42 0-.75-.34-.75-.75 0-.42.33-.75.75-.75h2.01c.41 0 .75.33.75.75v17c0 .41-.34.75-.75.75h-14c-.42 0-.75-.34-.75-.75V2Z"/><path d="M5.25 19c0-.42.33-.75.75-.75h12c.41 0 .75.33.75.75v1c0 1.51-1.24 2.75-2.75 2.75H8c-1.52 0-2.75-1.24-2.75-2.75v-1Zm1.5.75V20c0 .69.55 1.25 1.25 1.25h8c.69 0 1.25-.56 1.25-1.25v-.25H6.75Z"/><path d="M12 11.25c-1.25 0-2.25 1-2.25 2.25 0 1.24 1 2.25 2.25 2.25 1.24 0 2.25-1.01 2.25-2.25 0-1.25-1.01-2.25-2.25-2.25ZM8.25 13.5c0-2.08 1.67-3.75 3.75-3.75 2.07 0 3.75 1.67 3.75 3.75 0 2.07-1.68 3.75-3.75 3.75 -2.08 0-3.75-1.68-3.75-3.75Z"/><path d="M12 9.93c.41 0 .75.33.75.74v2.31c0 .41-.34.75-.75.75 -.42 0-.75-.34-.75-.75v-2.32c0-.42.33-.75.75-.75Z"/><path d="M16 3.75c.41 0 .75.33.75.75v2c0 .41-.34.75-.75.75 -.42 0-.75-.34-.75-.75v-2c0-.42.33-.75.75-.75Z"/><path d="M13 3.75c.41 0 .75.33.75.75v2c0 .41-.34.75-.75.75 -.42 0-.75-.34-.75-.75v-2c0-.42.33-.75.75-.75Z"/></g></svg>