<svg viewBox="0 0 24 24" xmlns="http://www.w3.org/2000/svg"><g fill-rule="evenodd"><path d="M1.75 4c0-.42.33-.75.75-.75H8c.24 0 .46.11.61.31l4.84 6.78 2.72.8c.39.11.62.53.5.93 -.12.39-.54.62-.94.5l-2.98-.88c-.17-.05-.31-.15-.4-.29L7.57 4.71H3.2v2.31l3.12 1.79c.07.04.13.09.19.15l5.83 6.72h8.35v-.01c0-1-.66-1.88-1.62-2.16 -.4-.12-.63-.54-.51-.94 .11-.4.53-.63.93-.51 1.596.46 2.69 1.93 2.69 3.59v.75c0 .41-.34.75-.75.75h-9.45c-.22 0-.43-.1-.57-.26L5.43 10l-3.4-1.96c-.24-.14-.38-.39-.38-.65v-3.5Z"/><path d="M2.5 6.75c.41 0 .75.33.75.75v11.75h17.5V16.5c0-.42.33-.75.75-.75 .41 0 .75.33.75.75V20c0 .41-.34.75-.75.75h-19c-.42 0-.75-.34-.75-.75V7.5c0-.42.33-.75.75-.75Z"/><path d="M7.25 4c0-.42.33-.75.75-.75h5c.41 0 .75.33.75.75 0 .41-.34.75-.75.75H8c-.42 0-.75-.34-.75-.75Z"/></g></svg>