<svg viewBox="0 0 24 24" xmlns="http://www.w3.org/2000/svg"><g fill-rule="evenodd"><path d="M1 5.5c0-.56.44-1 1-1h15c.55 0 1 .44 1 1v15c0 .55-.45 1-1 1H2c-.56 0-1-.45-1-1v-15Zm2 1v13h13v-13H3Z"/><path d="M16 5.5c0-.56.44-1 1-1h5c.55 0 1 .44 1 1v15c0 .55-.45 1-1 1h-5c-.56 0-1-.45-1-1v-15Zm2 1v13h3v-13h-3Z"/><path d="M19 5.5v-2h2v2h-2Z"/><path d="M9.5 9c-2.21 0-4 1.79-4 4 0 2.2 1.79 4 4 4 2.2 0 4-1.8 4-4 0-2.21-1.8-4-4-4Zm-6 4c0-3.32 2.68-6 6-6 3.31 0 6 2.68 6 6 0 3.31-2.69 6-6 6 -3.32 0-6-2.69-6-6Z"/></g></svg>