<svg viewBox="0 0 24 24" xmlns="http://www.w3.org/2000/svg"><g fill-rule="evenodd"><path d="M6 3.5c0-.56.44-1 1-1h15c.55 0 1 .44 1 1v6c0 .55-.45 1-1 1H7c-.56 0-1-.45-1-1v-6Zm2 1v4h13v-4H8Z"/><path d="M5 17.5c0-.56.44-1 1-1h12c.55 0 1 .44 1 1v3c0 .55-.45 1-1 1H6c-.56 0-1-.45-1-1v-3Zm2 1v1h10v-1H7Z"/><path d="M17 9.5c0-.56.44-1 1-1h4c.55 0 1 .44 1 1v11c0 .55-.45 1-1 1h-4c-.56 0-1-.45-1-1v-11Zm2 1v9h2v-9h-2Z"/><path d="M8 9.5c0-.56.44-1 1-1h4c.55 0 1 .44 1 1v4c0 .55-.45 1-1 1H9c-.56 0-1-.45-1-1v-4Zm2 1v2h2v-2h-2Z"/><path d="M1.34 10.24c.21-.19.5-.28.79-.24l7 1c.49.07.85.49.85.99v1c0 .49-.37.91-.86.98l-7 1c-.29.04-.58-.05-.8-.24 -.22-.19-.35-.47-.35-.76v-3c0-.29.12-.57.34-.76Zm1.65 1.9v.69l2.42-.35 -2.43-.35Z"/></g></svg>