<svg viewBox="0 0 24 24" xmlns="http://www.w3.org/2000/svg"><g fill-rule="evenodd"><path d="M13.29 1.29c.39-.4 1.02-.4 1.41 0l8 8c.39.39.39 1.02 0 1.41l-7 7c-.4.39-1.03.39-1.42 0l-8.01-8c-.4-.4-.4-1.03 0-1.42l7-7Zm-4.88 7.7l6.58 6.58 5.58-5.59 -6.59-6.59 -5.59 5.58Z"/><path d="M6.29 14.29c.39-.4 1.02-.4 1.41 0l2 2c.39.39.39 1.02 0 1.41l-5 5c-.4.39-1.03.39-1.42 0l-2-2c-.4-.4-.4-1.03 0-1.42l5-5Zm-2.88 5.7l.58.58 3.58-3.59 -.59-.59 -3.59 3.58Z"/><path d="M7.29 15.29l3-3 1.41 1.41 -3.01 3 -1.42-1.42Z"/><path d="M12.293 14.29l7-7 1.41 1.41 -7 6.99 -1.42-1.42Z"/><path d="M10.293 12.29l7-7 1.41 1.41 -7 6.99 -1.42-1.42Z"/><path d="M8.29 10.29l7-7L16.7 4.7l-7.01 6.99 -1.42-1.42Z"/><path d="M12.7 3.29l8 7.99 -1.42 1.41 -8-8 1.41-1.42Z"/><path d="M9.7 6.29l8 7.99 -1.42 1.41 -8.01-8 1.41-1.42Z"/></g></svg>