<svg viewBox="0 0 24 24" xmlns="http://www.w3.org/2000/svg"><g fill-rule="evenodd"><path d="M4 2c0-.56.44-1 1-1h14c.55 0 1 .44 1 1v20c0 .55-.45 1-1 1H5c-.56 0-1-.45-1-1V2Zm2 1v18h12V3H6Z"/><path d="M12 8.5c-1.11 0-2 .89-2 2 0 1.1.89 2 2 2 1.1 0 2-.9 2-2 0-1.11-.9-2-2-2Zm-4 2c0-2.21 1.79-4 4-4 2.2 0 4 1.79 4 4 0 2.2-1.8 4-4 4 -2.21 0-4-1.8-4-4Z"/><path d="M16 17H8v-2h8v2Z"/><path d="M16 20H8v-2h8v2Z"/><path d="M7 2c0-.56.44-1 1-1h8c.55 0 1 .44 1 1v3c0 .55-.45 1-1 1H8c-.56 0-1-.45-1-1V2Zm2 1v1h6V3H9Z"/></g></svg>