<svg viewBox="0 0 24 24" xmlns="http://www.w3.org/2000/svg"><g fill-rule="evenodd"><path d="M13.29 1.29c.39-.4 1.02-.4 1.41 0l8 8c.39.39.39 1.02 0 1.41l-12 12c-.4.39-1.03.39-1.42 0l-8-8c-.4-.4-.4-1.03 0-1.42l12-12Zm-9.88 12.7l6.58 6.58L20.57 9.98l-6.59-6.59L3.39 13.97Z"/><path d="M17.29 1.29c.39-.4 1.02-.4 1.41 0l4 4c.39.39.39 1.02 0 1.41l-2 2c-.4.39-1.03.39-1.42 0 -.4-.4-.4-1.03 0-1.42l1.29-1.3 -2.59-2.59 -1.3 1.29c-.4.39-1.03.39-1.42 0 -.4-.4-.4-1.03 0-1.42l2-2Z"/><path d="M4.7 15.29c.39.39.39 1.02 0 1.41l-1.3 1.29 2.58 2.58 1.29-1.3c.39-.4 1.02-.4 1.41 0 .39.39.39 1.02 0 1.41l-2 2c-.4.39-1.03.39-1.42 0l-4-4c-.4-.4-.4-1.03 0-1.42l2-2c.39-.4 1.02-.4 1.41 0Z"/><path d="M13.29 5.29c.39-.4 1.02-.4 1.41 0l4 4c.38.38.39 1.01 0 1.4l-8 8.12c-.19.19-.45.29-.72.29 -.27-.01-.53-.12-.72-.31l-4-4.13c-.39-.4-.38-1.02.01-1.41l8-8.01ZM7.4 14l2.6 2.68 6.58-6.69 -2.6-2.6 -6.6 6.59Z"/></g></svg>