<svg viewBox="0 0 24 24" xmlns="http://www.w3.org/2000/svg"><path fill-rule="evenodd" d="M1 12c0-1.66 1.34-3 3-3h16c1.65 0 3 1.34 3 3v3c0 .55-.45 1-1 1H2c-.56 0-1-.45-1-1v-3Zm3-1c-.56 0-1 .44-1 1v2h18v-2c0-.56-.45-1-1-1H4Z"/><g><path d="M2 12c0-1.11.89-2 2-2h16c1.1 0 2 .89 2 2v3H2v-3Z"/><g fill-rule="evenodd"><path d="M2 14c-.56 0-1 .44-1 1v4.5c0 .55.44 1 1 1h2.5c.31 0 .61-.15.8-.4l1.2-1.6h11l1.2 1.6c.18.25.48.4.8.4H22c.55 0 1-.45 1-1V15c0-.56-.45-1-1-1H2Z"/><path d="M5 3C3.34 3 2 4.34 2 6v4c0 .55.44 1 1 1h3.5c-.56 0-1-.45-1-1V8c0-1.11.89-2 2-2h2c1.1 0 2 .89 2 2v2c0 .55-.45 1-1 1h3c-.56 0-1-.45-1-1V8c0-1.11.89-2 2-2h2c1.1 0 2 .89 2 2v2c0 .55-.45 1-1 1H21c.55 0 1-.45 1-1V6c0-1.66-1.35-3-3-3H5Z"/></g></g></svg>