<svg viewBox="0 0 24 24" xmlns="http://www.w3.org/2000/svg"><g fill-rule="evenodd"><path d="M6.14 9.47c.18-.3.5-.48.85-.48h10c.34 0 .66.17.85.47 .18.29.19.66.04.97l-2.8 5.58c-.35.68-.41 1.47-.2 2.2l1.04 3.48c.09.3.03.63-.16.88s-.49.4-.81.4h-6c-.32 0-.62-.15-.81-.41 -.19-.26-.25-.59-.16-.89l1.04-3.49c.21-.74.15-1.53-.2-2.21l-2.8-5.59c-.16-.31-.14-.68.04-.98Zm5.16 8.52h1.68v-2h-1.69v2Z"/><path d="M17.49 15.86l-3.5 2 -1-1.74 3.5-2 .99 1.73Z"/><path d="M6.5 15.86l3.49 2 .99-1.74 -3.51-2 -1 1.73Z"/><path d="M17.49 18.13l-3.5-2 -1 1.73 3.5 2 .99-1.74Z"/><path d="M6.5 18.13l3.49-2 .99 1.73 -3.51 2 -1-1.74Z"/><path d="M13 6.5V10h-2V6.5h2Z"/><path d="M10 1c-.56 0-1 .44-1 1v2.5c0 1.65 1.34 3 3 3 1.65 0 3-1.35 3-3V2c0-.56-.45-1-1-1h-4Z"/><path d="M7.84 6.57l2 2.86 -1.64 1.14 -2.01-2.867 1.63-1.15Z"/><path d="M16.18 6.57l-2.01 2.86 1.63 1.14 2-2.867 -1.64-1.15Z"/><path d="M2.23 3.79c-.46.31-.57.94-.25 1.39l1.43 2.04c.95 1.35 2.82 1.68 4.17.73 1.35-.96 1.68-2.83.73-4.18L6.87 1.72c-.32-.46-.95-.57-1.4-.25L2.19 3.76Z"/><path d="M21.8 3.794c.45.31.56.94.24 1.39l-1.44 2.04c-.96 1.35-2.83 1.68-4.18.73 -1.36-.96-1.69-2.83-.74-4.18l1.43-2.05c.31-.46.94-.57 1.39-.25l3.27 2.29Z"/></g></svg>