<svg viewBox="0 0 24 24" xmlns="http://www.w3.org/2000/svg"><g fill-rule="evenodd"><path d="M4 3c0-1.11.89-2 2-2h12c1.1 0 2 .89 2 2v6.5h-2V3H6v18h5.5v2H6c-1.11 0-2-.9-2-2V3Z"/><path d="M11 17c0-3.32 2.68-6 6-6 3.31 0 6 2.68 6 6 0 3.31-2.69 6-6 6 -3.32 0-6-2.69-6-6Zm5.82-3.25c-1.18 0-2.125.95-2.125 2.125 0 1.17.95 2.125 2.125 2.125h.35c.06 0 .125.05.125.125 0 .06-.06.125-.125.125h-1.43v2h1.42c1.17 0 2.125-.96 2.125-2.125 0-1.18-.96-2.125-2.125-2.125h-.35c-.07 0-.125-.06-.125-.125 0-.07.05-.125.125-.125h1.42v-2H16.8Z"/><path d="M12 6H8V4h4v2Z"/><path d="M14 9H8V7h6v2Z"/></g></svg>