<svg viewBox="0 0 24 24" xmlns="http://www.w3.org/2000/svg"><g fill-rule="evenodd"><path d="M7 6c0-1.11.89-2 2-2h5v2H9v2H7V6Z"/><path d="M3 10c0-1.66 1.34-3 3-3h9.5c1.65 0 3 1.34 3 3v6c0 1.65-1.35 3-3 3H6c-1.66 0-3-1.35-3-3v-1h2v1c0 .55.44 1 1 1h9.5c.55 0 1-.45 1-1v-6c0-.56-.45-1-1-1H6c-.56 0-1 .44-1 1v1H3v-1Z"/><path d="M3 10c-1.11 0-2 .89-2 2v2c0 1.1.89 2 2 2h4c1.1 0 2-.9 2-2v-2c0-1.11-.9-2-2-2H3Z"/><path d="M23 8.99c0-.31-.14-.6-.38-.79 -.24-.19-.55-.27-.85-.2l-4.5 1c-.46.1-.79.5-.79.97v6c0 .46.32.87.78.97l4.5 1c.29.06.6-.01.84-.2 .23-.19.37-.48.37-.78V8.95Z"/></g></svg>