<svg viewBox="0 0 24 24" xmlns="http://www.w3.org/2000/svg"><g fill-rule="evenodd"><path d="M18.37 1.22c1.22 0 2.25.79 2.61 1.89 1.1.36 1.89 1.39 1.89 2.61 0 1.52-1.24 2.75-2.76 2.75h-3.52c-.27 0-.52-.11-.71-.3 -.19-.19-.3-.45-.3-.71V3.94c0-1.53 1.23-2.76 2.75-2.76Z"/><path d="M14.09 8.49l1.7-1.71 1.41 1.41 -1.71 1.7 -1.42-1.42Z"/><path d="M8 4c.37 0 .72.21.89.55l.19.39c.42.85 1.11 1.53 1.96 1.96l.03.01c.08.04.17.09.25.14 .21-.05.43-.08.65-.08 .89 0 1.69.39 2.24 1 1.54.12 2.75 1.41 2.75 2.99 0 .88-.39 1.68-1 2.23v.76c0 .55-.45 1-1 1h-12c-.56 0-1-.45-1-1v-.77c-.62-.55-1-1.35-1-2.24 0-1.58 1.21-2.87 2.75-3 .5-.58 1.22-.95 2.03-1.01l.33-.51 .97-1.95c.16-.34.51-.56.89-.56Zm.09 3.05l-.2.39c-.02.03-.04.07-.07.1l-.69 1.02c-.22.32-.61.49-.99.43 -.06-.01-.11-.02-.16-.02 -.38 0-.7.2-.88.5 -.21.35-.6.55-1 .49 -.05-.01-.09-.01-.14-.01 -.56 0-1 .44-1 1 0 .36.19.69.5.86 .3.17.49.5.49.86v.26h10v-.27c0-.36.19-.69.49-.87 .3-.18.5-.5.5-.87 0-.56-.45-1-1-1 -.05 0-.09 0-.14 0 -.41.05-.8-.15-1-.5 -.18-.31-.5-.51-.88-.51 -.16 0-.31.03-.44.09 -.41.19-.89.09-1.19-.24 -.06-.07-.12-.12-.2-.15l-.04-.02c-.81-.41-1.51-.97-2.07-1.65Z"/><path d="M3 13c-.31 0-.6.14-.79.38 -.19.24-.26.55-.19.85l1.62 6.48c.33 1.33 1.53 2.27 2.91 2.27h4.87c1.37 0 2.57-.94 2.91-2.28l1.62-6.49c.07-.3 0-.62-.19-.86 -.19-.25-.49-.39-.79-.39h-12Z"/></g></svg>