<svg viewBox="0 0 24 24" xmlns="http://www.w3.org/2000/svg"><g fill-rule="evenodd"><path d="M16.53 8.13c-3.21-.86-6.5 1.04-7.35 4.24 -.49 1.8-.1 3.62.91 5.04l-1.63 1.16c-1.34-1.88-1.87-4.32-1.22-6.72 1.14-4.27 5.53-6.81 9.79-5.66 4.26 1.14 6.8 5.53 5.65 9.79 -.91 3.37-3.84 5.66-7.14 5.9l-.15-2c2.47-.19 4.67-1.91 5.35-4.44 .85-3.21-1.05-6.5-4.25-7.35Z"/><path d="M16.63 1.95c-.26-.07-.53-.04-.76.09l-1.23.7c-.45.25-.63.81-.41 1.28l1.63 3.54c.12.26.36.46.64.54 .28.07.59.02.83-.15l3.19-2.26c.42-.3.54-.87.28-1.32l-.71-1.23c-.14-.23-.36-.4-.61-.47l-2.9-.78Z"/><path d="M6.91 6.2C7.6 6.01 8.3 5.92 9 5.92l-.01 2c-.52-.01-1.05.06-1.57.2 -3.21.85-5.11 4.14-4.25 7.34 .71 2.68 3.15 4.45 5.81 4.44 .5-.01 1.02-.07 1.53-.21 3.2-.86 5.1-4.15 4.24-7.35 -.22-.81-.59-1.53-1.07-2.15l1.57-1.24c.64.82 1.13 1.78 1.42 2.85 1.14 4.26-1.39 8.65-5.66 9.79 -.69.18-1.38.27-2.05.27 -3.55.01-6.79-2.35-7.75-5.94 -1.15-4.27 1.38-8.66 5.65-9.8Z"/><path d="M7.32 1.95c.25-.07.52-.04.75.09l1.22.7c.44.25.62.81.4 1.28L8.05 7.56c-.13.26-.37.46-.65.54 -.29.07-.6.02-.84-.15l-3.2-2.26c-.43-.3-.55-.87-.29-1.32l.7-1.23c.13-.23.35-.4.6-.47l2.89-.78Z"/></g></svg>