<svg viewBox="0 0 24 24" xmlns="http://www.w3.org/2000/svg"><g fill-rule="evenodd"><path d="M3 17c-.56 0-1 .44-1 1v2c0 1.65 1.34 3 3 3h14c1.65 0 3-1.35 3-3v-2c0-.56-.45-1-1-1H3Z"/><path d="M2 14c0-1.66 1.34-3 3-3h14c1.65 0 3 1.34 3 3v4c0 .55-.45 1-1 1H3c-.56 0-1-.45-1-1v-4Zm3-1c-.56 0-1 .44-1 1v3h16v-3c0-.56-.45-1-1-1H5Z"/><path d="M2 10c0 1.65 1.34 3 3 3h14c1.65 0 3-1.35 3-3V4c0-1.66-1.35-3-3-3H5C3.34 1 2 2.34 2 4v6Zm3 1c-.56 0-1-.45-1-1V4c0-.56.44-1 1-1h14c.55 0 1 .44 1 1v6c0 .55-.45 1-1 1H5Z"/><path d="M12 10c-2.77 0-5 2.23-5 5H5c0-3.87 3.13-7 7-7 3.86 0 7 3.13 7 7h-2c0-2.77-2.24-5-5-5Z"/><path d="M10.5 4c-.27 0-.52.1-.71.29l-1 1c-.37.36-.4.94-.07 1.34l2.5 3c.19.22.47.35.76.35 .29 0 .57-.14.76-.36l2.5-3c.33-.4.3-.99-.07-1.35l-1-1c-.19-.19-.45-.3-.71-.3h-3Z"/></g></svg>