<svg viewBox="0 0 24 24" xmlns="http://www.w3.org/2000/svg"><g fill-rule="evenodd"><path d="M1 15.5c0-1.11.89-2 2-2h18c1.1 0 2 .89 2 2v5c0 1.1-.9 2-2 2H3c-1.11 0-2-.9-2-2v-5Zm20 0H3v5h18v-5Z"/><path d="M20.79 7.61l-.59.58 -1.74 1.73c-1.64 1.63-4.32 1.54-5.84-.2l-.64-.73 -.64.72c-1.53 1.74-4.21 1.83-5.84.19L3.76 8.16l-.59-.59c-.14.26-.21.56-.21.88v6c0 .55.44 1 1 1h16c.55 0 1-.45 1-1v-6c0-.32-.08-.62-.21-.89Zm-1.72-1.12l-.3.29 -1.74 1.73c-.82.81-2.16.77-2.92-.1l-1.39-1.59c-.19-.22-.47-.35-.76-.35h7c.02 0 .05 0 .08 0Zm-14.17 0l.29.29 1.73 1.73c.81.81 2.15.77 2.91-.1l1.38-1.59c.18-.22.46-.35.75-.35h-7c-.03 0-.06 0-.09 0Z"/><path d="M15.51 13.5c.3 0 .59.15.78.39l1.4 1.86c.4.53 1.2.53 1.6 0l1.4-1.87 1.6 1.2 -1.4 1.86c-1.2 1.6-3.6 1.6-4.8 0l-.63-.84 -.88 1.08c-1.2 1.48-3.46 1.48-4.66.01l-.97-1.18 -1.1 1.25c-1.26 1.43-3.52 1.34-4.66-.18l-1.52-2.03 1.6-1.2 1.51 2.02c.38.5 1.13.53 1.55.05l1.87-2.15c.19-.23.47-.35.76-.35 .29 0 .57.13.75.36l1.7 2.09c.4.49 1.15.49 1.55-.01l1.68-2.09c.19-.24.48-.38.79-.38Z"/><path d="M15.19 1.8c-.87-.87-2.16-1.04-3.2-.52 -1.04-.53-2.33-.36-3.2.51 -1.08 1.07-1.08 2.82 0 3.89l2.48 2.48c.18.18.44.29.7.29 .26 0 .51-.11.7-.3l2.48-2.49c1.07-1.08 1.07-2.83 0-3.9Z"/></g></svg>