<svg viewBox="0 0 24 24" xmlns="http://www.w3.org/2000/svg"><path fill="#CFD8DC" d="M8.5 15.25c-.32 0-.6.19-.71.48l-1.5 4c-.09.23-.06.48.08.69 .14.2.37.32.61.32h10c.24 0 .47-.13.61-.33 .14-.21.17-.47.08-.7l-1.5-4c-.11-.3-.39-.49-.71-.49h-7Z"/><path fill="#5E94FF" fill-rule="evenodd" d="M4.25 20c0-.42.33-.75.75-.75h14c.41 0 .75.33.75.75 0 .41-.34.75-.75.75H5c-.42 0-.75-.34-.75-.75Z"/><path fill="#ECEFF1" d="M2 2.25c-.42 0-.75.33-.75.75v13c0 .41.33.75.75.75h20c.41 0 .75-.34.75-.75V3c0-.42-.34-.75-.75-.75H2Z"/><path fill="#5E94FF" fill-rule="evenodd" d="M1.25 3c0-.42.33-.75.75-.75h20c.41 0 .75.33.75.75v13c0 .41-.34.75-.75.75H2c-.42 0-.75-.34-.75-.75V3Zm1.5.75v11.5h18.5V3.75H2.75Z"/><path fill="#5E94FF" d="M12.81 6.4c-.64-.51-1.55-.51-2.18 0L8.9 7.77c-.42.33-.67.83-.67 1.36v2.35c0 .96.78 1.75 1.75 1.75h3.44c.96 0 1.75-.79 1.75-1.75V9.12c0-.54-.25-1.04-.67-1.37l-1.73-1.38Z"/></svg>