<svg viewBox="0 0 24 24" xmlns="http://www.w3.org/2000/svg"><path fill="#CFD8DC" fill-rule="evenodd" d="M19 7.25c.41 0 .75.33.75.75v4c0 .41-.34.75-.75.75 -.42 0-.75-.34-.75-.75V8c0-.42.33-.75.75-.75Z"/><path fill="#FFD071" d="M5 1.25c-.42 0-.75.33-.75.75v20c0 .41.33.75.75.75h3c.41 0 .75-.34.75-.75V2c0-.42-.34-.75-.75-.75H5Z"/><path fill="#FFC44D" d="M1.25 8c0 .41.33.75.75.75h20c.41 0 .75-.34.75-.75V5c0-.42-.34-.75-.75-.75H2c-.42 0-.75.33-.75.75v3Z"/><path fill="#EE4D4D" d="M15.25 14.5c0 .41.33.75.75.75h6c.41 0 .75-.34.75-.75V12c0-.42-.34-.75-.75-.75h-6c-.42 0-.75.33-.75.75v2.5Z"/><path fill="#CFD8DC" fill-rule="evenodd" d="M1.25 22c0-.42.33-.75.75-.75h20c.41 0 .75.33.75.75 0 .41-.34.75-.75.75H2c-.42 0-.75-.34-.75-.75Z"/></svg>