<svg viewBox="0 0 24 24" xmlns="http://www.w3.org/2000/svg"><path fill="#EE4D4D" d="M12 1.25C6.06 1.25 1.25 6.06 1.25 12c0 5.93 4.81 10.75 10.75 10.75 5.93 0 10.75-4.82 10.75-10.75 0-5.94-4.82-10.75-10.75-10.75Z"/><g fill="#ECEFF1"><path d="M5.86 8.11c0 1.24 1 2.25 2.25 2.25 1.24 0 2.24-1.01 2.24-2.25 0-1.25-1.01-2.25-2.25-2.25 -1.25 0-2.25 1-2.25 2.25Z"/><path d="M13.63 15.88c0 1.24 1 2.25 2.25 2.25 1.24 0 2.25-1.01 2.25-2.25 0-1.25-1.01-2.25-2.25-2.25 -1.25 0-2.25 1-2.25 2.25Z"/><path fill="#ECEFF1" fill-rule="evenodd" d="M17.47 6.51c-.3-.3-.77-.3-1.07 0L6.5 16.4c-.3.29-.3.76-.001 1.06 .29.29.76.29 1.06 0l9.89-9.9c.29-.3.29-.77 0-1.07Z"/></g></svg>