<svg viewBox="0 0 24 24" xmlns="http://www.w3.org/2000/svg"><path fill="#ECEFF1" d="M13.28 2.8c-.19-.08-.4-.08-.577 0l-6 2.5c-.28.11-.47.38-.47.69v5c0 .21.08.41.24.55l7.71 7c.13.12.31.19.5.19h4.28c.41 0 .75-.34.75-.75v-12c0-.31-.19-.58-.47-.7l-6-2.5Z"/><g fill="#EE4D4D" fill-rule="evenodd"><path d="M12.69 2.31c.19-.09.41-.09.6 0l9 4c.37.16.54.61.38.98 -.17.37-.62.54-.99.38l-8.7-3.87 -8.7 3.86c-.38.16-.83-.01-.99-.39 -.17-.38 0-.83.38-.99l8.99-4Z"/><path d="M10.75 8.5c0-.42.33-.75.75-.75h3c.41 0 .75.33.75.75 0 .41-.34.75-.75.75h-3c-.42 0-.75-.34-.75-.75Z"/></g><path fill="#FFD071" d="M5 10.5c-.42 0-.75.33-.75.75v8c0 .33.22.62.54.72l6.6 1.92c.24.07.5.1.76.1h8.21c1.31 0 2.375-1.07 2.375-2.375 0-1.32-1.07-2.375-2.375-2.375h-5.17c.02-.13.03-.25.03-.375v-.94c0-.82-.37-1.6-.99-2.12L11 11.11c-.5-.42-1.12-.64-1.77-.64H4.95Z"/><path fill="#FFC44D" fill-rule="evenodd" d="M4.25 11.25c0-.42.33-.75.75-.75h4.27c.64 0 1.26.22 1.76.63l3.22 2.68c.62.52.98 1.29.98 2.11v.93c0 1.03-.84 1.875-1.875 1.875 -.41 0-.81-.14-1.125-.375l-3.7-2.78c-.34-.25-.4-.72-.15-1.05 .24-.34.71-.4 1.05-.15l3.7 2.77c.06.04.14.07.22.07 .2 0 .375-.17.375-.375v-.94c0-.38-.17-.73-.45-.97l-3.23-2.69c-.23-.19-.51-.29-.81-.29H4.95c-.42 0-.75-.34-.75-.75Z"/><path fill="#ECEFF1" d="M2 10.5c-.42 0-.75.33-.75.75v8c0 .41.33.75.75.75h3c.41 0 .75-.34.75-.75v-8c0-.42-.34-.75-.75-.75H2Z"/></svg>