<svg viewBox="0 0 24 24" xmlns="http://www.w3.org/2000/svg"><path fill="#8BC94D" d="M3 1.25c-.97 0-1.75.78-1.75 1.75v3c0 .41.33.75.75.75h20c.41 0 .75-.34.75-.75V3c0-.97-.79-1.75-1.75-1.75H3Z"/><path fill="#A2D471" d="M2 5.25c-.42 0-.75.33-.75.75v4c0 .41.33.75.75.75h20c.41 0 .75-.34.75-.75V6c0-.42-.34-.75-.75-.75H2Z"/><path fill="#8BC94D" d="M2 9.25c-.42 0-.75.33-.75.75v10c0 .96.78 1.75 1.75 1.75h18c.96 0 1.75-.79 1.75-1.75V10c0-.42-.34-.75-.75-.75H2Z"/><g fill="#ECEFF1"><path d="M12 12.75c-1.52 0-2.75 1.23-2.75 2.75 0 1.51 1.23 2.75 2.75 2.75 1.51 0 2.75-1.24 2.75-2.75 0-1.52-1.24-2.75-2.75-2.75Z"/><g fill="#ECEFF1" fill-rule="evenodd"><path d="M15.75 15.5c0-.42.33-.75.75-.75H19c.41 0 .75.33.75.75 0 .41-.34.75-.75.75h-2.5c-.42 0-.75-.34-.75-.75Z"/><path d="M4.25 15.5c0-.42.33-.75.75-.75h2.5c.41 0 .75.33.75.75 0 .41-.34.75-.75.75H5c-.42 0-.75-.34-.75-.75Z"/></g></g></svg>