<svg viewBox="0 0 24 24" xmlns="http://www.w3.org/2000/svg"><g fill="#FFD071"><path d="M20.5 5.75c-1.25 0-2.25 1-2.25 2.25v2.85c-.72-.24-1.57-.11-2.2.52l-4.3 4.29c-.33.32-.52.77-.52 1.23v5.58c0 .41.33.75.75.75h5c.41 0 .75-.34.75-.75v-1.69l4.48-4.49c.32-.33.51-.78.51-1.24V7.96c0-1.25-1.01-2.25-2.25-2.25Z"/><path d="M3.5 5.75c1.24 0 2.25 1 2.25 2.25v2.85c.72-.24 1.56-.11 2.19.52l4.29 4.29c.32.32.51.77.51 1.23v5.58c0 .41-.34.75-.75.75h-5c-.42 0-.75-.34-.75-.75v-1.69l-4.49-4.49c-.33-.33-.52-.78-.52-1.24V7.96c0-1.25 1-2.25 2.25-2.25Z"/></g><g fill="#FFC44D" fill-rule="evenodd"><path d="M5.75 12.91c0-.6.71-.89 1.13-.47l4.36 4.36v6.43h1.5v-6.75c0-.2-.08-.39-.22-.54l-4.59-4.59c-1.37-1.37-3.7-.4-3.7 1.53 0 .57.22 1.12.63 1.53l1.58 1.58c.29.29.76.29 1.06 0 .29-.3.29-.77 0-1.07l-1.59-1.59c-.13-.13-.2-.3-.2-.47Z"/><path d="M18.25 12.91c0-.6-.72-.89-1.14-.47l-4.37 4.36v6.43h-1.5v-6.75c0-.2.07-.39.21-.54l4.58-4.59c1.36-1.37 3.69-.4 3.69 1.53 0 .57-.23 1.12-.64 1.53l-1.59 1.58c-.3.29-.77.29-1.07 0 -.3-.3-.3-.77 0-1.07L18 13.33c.12-.13.19-.3.19-.47Z"/></g><path fill="#5E94FF" d="M13.31 1.9c-.64-.51-1.55-.51-2.18 0L9.4 3.27c-.42.33-.67.83-.67 1.36v2.35c0 .96.78 1.75 1.75 1.75h3.44c.96 0 1.75-.79 1.75-1.75V4.62c0-.54-.25-1.04-.67-1.37l-1.73-1.38Z"/></svg>