<svg viewBox="0 0 24 24" xmlns="http://www.w3.org/2000/svg"><path fill="#ECEFF1" d="M10 1.25c-4.84 0-8.75 3.91-8.75 8.75 0 4.83 3.91 8.75 8.75 8.75 4.83 0 8.75-3.92 8.75-8.75 0-4.84-3.92-8.75-8.75-8.75Z"/><g fill="#8B98A6" fill-rule="evenodd"><path d="M10 2.75c-4.01 0-7.25 3.24-7.25 7.25 0 4 3.24 7.25 7.25 7.25 4 0 7.25-3.25 7.25-7.25 0-4.01-3.25-7.25-7.25-7.25ZM1.25 10c0-4.84 3.91-8.75 8.75-8.75 4.83 0 8.75 3.91 8.75 8.75 0 4.83-3.92 8.75-8.75 8.75 -4.84 0-8.75-3.92-8.75-8.75Z"/><path d="M15.46 15.46c.29-.3.76-.3 1.06 0l6 6c.29.29.29.76 0 1.06 -.3.29-.77.29-1.07 0l-6-6c-.3-.3-.3-.77 0-1.07Z"/></g><path fill="#5E94FF" d="M11.31 6.4c-.64-.51-1.55-.51-2.18 0L7.4 7.77c-.42.33-.67.83-.67 1.36v2.35c0 .96.78 1.75 1.75 1.75h3.44c.96 0 1.75-.79 1.75-1.75V9.12c0-.54-.25-1.04-.67-1.37l-1.73-1.38Z"/></svg>