<svg viewBox="0 0 24 24" xmlns="http://www.w3.org/2000/svg"><path fill="#CFD8DC" fill-rule="evenodd" d="M7.25 5c0-1.52 1.23-2.75 2.75-2.75h4c1.51 0 2.75 1.23 2.75 2.75v1c0 .41-.34.75-.75.75H8c-.42 0-.75-.34-.75-.75V5ZM10 3.75c-.7 0-1.25.55-1.25 1.25v.25h6.5V5c0-.7-.56-1.25-1.25-1.25h-4Z"/><path fill="#FF884D" d="M4 5.25C2.48 5.25 1.25 6.48 1.25 8v11c0 1.51 1.23 2.75 2.75 2.75h16c1.51 0 2.75-1.24 2.75-2.75V8c0-1.52-1.24-2.75-2.75-2.75H4Z"/><g fill="#CFD8DC" fill-rule="evenodd"><path d="M16 11.25c.41 0 .75.33.75.75v2c0 .41-.34.75-.75.75 -.42 0-.75-.34-.75-.75v-2c0-.42.33-.75.75-.75Z"/><path d="M8 11.25c.41 0 .75.33.75.75v2c0 .41-.34.75-.75.75 -.42 0-.75-.34-.75-.75v-2c0-.42.33-.75.75-.75Z"/></g><path fill="#FFC44D" d="M4 5.25C2.48 5.25 1.25 6.48 1.25 8v4c0 .41.33.75.75.75h20c.41 0 .75-.34.75-.75V8c0-1.52-1.24-2.75-2.75-2.75H4Z"/></svg>