<svg viewBox="0 0 24 24" xmlns="http://www.w3.org/2000/svg"><path fill="#FFC44D" d="M3.5 6.75c1.24 0 2.25 1 2.25 2.25v1.85c.72-.24 1.56-.11 2.19.52l4.29 4.29c.32.32.51.77.51 1.23v5.08c0 .41-.34.75-.75.75h-5c-.42 0-.75-.34-.75-.75v-1.19l-4.49-4.49c-.33-.33-.52-.78-.52-1.24V8.96c0-1.25 1-2.25 2.25-2.25Z"/><path fill="#FF884D" fill-rule="evenodd" d="M5.75 12.91c0-.6.71-.89 1.13-.47l4.29 4.29c.04.04.07.11.07.17v5.08c0 .41.33.75.75.75 .41 0 .75-.34.75-.75v-5.09c0-.47-.19-.91-.52-1.24l-4.3-4.3c-1.37-1.37-3.7-.4-3.7 1.53 0 .57.22 1.12.63 1.53l1.58 1.58c.29.29.76.29 1.06 0 .29-.3.29-.77 0-1.07L5.9 13.33c-.13-.13-.2-.3-.2-.47Z"/><path fill="#FFC44D" d="M20.5 6.75c-1.25 0-2.25 1-2.25 2.25v1.85c-.72-.24-1.57-.11-2.2.52l-4.3 4.29c-.33.32-.52.77-.52 1.23v5.08c0 .41.33.75.75.75h5c.41 0 .75-.34.75-.75v-1.19l4.48-4.49c.32-.33.51-.78.51-1.24V8.96c0-1.25-1.01-2.25-2.25-2.25Z"/><path fill="#FF884D" fill-rule="evenodd" d="M18.25 12.91c0-.6-.72-.89-1.14-.47l-4.3 4.29c-.05.04-.08.11-.08.17v5.08c0 .41-.34.75-.75.75 -.42 0-.75-.34-.75-.75v-5.09c0-.47.18-.91.51-1.24l4.29-4.3c1.36-1.37 3.69-.4 3.69 1.53 0 .57-.23 1.12-.64 1.53l-1.59 1.58c-.3.29-.77.29-1.07 0 -.3-.3-.3-.77 0-1.07L18 13.33c.12-.13.19-.3.19-.47Z"/><g fill="#5E94FF"><path d="M12 1.25c-1.25 0-2.25 1-2.25 2.25 0 1.24 1 2.25 2.25 2.25 1.24 0 2.25-1.01 2.25-2.25 0-1.25-1.01-2.25-2.25-2.25Z"/><path d="M10.5 6.75c-.97 0-1.75.78-1.75 1.75V10c0 .41.33.75.75.75h5c.41 0 .75-.34.75-.75V8.5c0-.97-.79-1.75-1.75-1.75h-3Z"/></g></svg>