<svg viewBox="0 0 24 24" xmlns="http://www.w3.org/2000/svg"><path fill="#CFD8DC" d="M10.5 14.25c-.33 0-.61.2-.72.51l-1 3c-.08.22-.04.48.1.67 .14.19.36.31.6.31h4.49c.41 0 .75-.34.75-.75v-3c0-.42-.34-.75-.75-.75h-3.5Z"/><path fill="#ECEFF1" d="M2 2.25c-.42 0-.75.33-.75.75v12c0 .41.33.75.75.75h20c.41 0 .75-.34.75-.75V3c0-.42-.34-.75-.75-.75H2Z"/><g fill="#5E94FF" fill-rule="evenodd"><path d="M1.25 3c0-.42.33-.75.75-.75h20c.41 0 .75.33.75.75v12c0 .41-.34.75-.75.75H2c-.42 0-.75-.34-.75-.75V3Zm1.5.75v10.5h18.5V3.75H2.75Z"/><path d="M2.25 18c0-.42.33-.75.75-.75h11c.41 0 .75.33.75.75 0 .41-.34.75-.75.75H3c-.42 0-.75-.34-.75-.75Z"/></g><path fill="#ECEFF1" d="M15.5 5.25c-1.25 0-2.25 1-2.25 2.25v12c0 1.24 1 2.25 2.25 2.25h5c1.24 0 2.25-1.01 2.25-2.25v-12c0-1.25-1.01-2.25-2.25-2.25h-5Z"/><g fill="#4DC4FF" fill-rule="evenodd"><path d="M13.25 7.5c0-1.25 1-2.25 2.25-2.25h5c1.24 0 2.25 1 2.25 2.25v12c0 1.24-1.01 2.25-2.25 2.25h-5c-1.25 0-2.25-1.01-2.25-2.25v-12Zm2.25-.75c-.42 0-.75.33-.75.75v12c0 .41.33.75.75.75h5c.41 0 .75-.34.75-.75v-12c0-.42-.34-.75-.75-.75h-5Z"/><path d="M16.25 18.5c0-.42.33-.75.75-.75h2c.41 0 .75.33.75.75 0 .41-.34.75-.75.75h-2c-.42 0-.75-.34-.75-.75Z"/></g></svg>