<svg viewBox="0 0 24 24" xmlns="http://www.w3.org/2000/svg"><g fill="#CFD8DC" fill-rule="evenodd"><path d="M18.25 2c0-.42.33-.75.75-.75h3c.41 0 .75.33.75.75v3c0 .41-.34.75-.75.75 -.42 0-.75-.34-.75-.75V2.75H19c-.42 0-.75-.34-.75-.75Z"/><path d="M18.25 22c0 .41.33.75.75.75h3c.41 0 .75-.34.75-.75v-3c0-.42-.34-.75-.75-.75 -.42 0-.75.33-.75.75v2.25H19c-.42 0-.75.33-.75.75Z"/><path d="M5.75 2c0-.42-.34-.75-.75-.75H2c-.42 0-.75.33-.75.75v3c0 .41.33.75.75.75 .41 0 .75-.34.75-.75V2.75H5c.41 0 .75-.34.75-.75Z"/><path d="M5.75 22c0 .41-.34.75-.75.75H2c-.42 0-.75-.34-.75-.75v-3c0-.42.33-.75.75-.75 .41 0 .75.33.75.75v2.25H5c.41 0 .75.33.75.75Z"/><path d="M22.03 1.96c.29.29.29.76 0 1.06l-3.5 3.5c-.3.29-.77.29-1.07 0 -.3-.3-.3-.77 0-1.07l3.5-3.5c.29-.3.76-.3 1.06 0Z"/><path d="M22.03 22.03c.29-.3.29-.77 0-1.07l-3.5-3.5c-.3-.3-.77-.3-1.07 0 -.3.29-.3.76 0 1.06l3.5 3.5c.29.29.76.29 1.06 0Z"/><path d="M1.96 1.96c-.3.29-.3.76 0 1.06l3.5 3.5c.29.29.76.29 1.06 0 .29-.3.29-.77 0-1.07l-3.5-3.5c-.3-.3-.77-.3-1.07 0Z"/><path d="M1.96 22.03c-.3-.3-.3-.77 0-1.07l3.5-3.5c.29-.3.76-.3 1.06 0 .29.29.29.76 0 1.06l-3.5 3.5c-.3.29-.77.29-1.07 0Z"/></g><path fill="#5E94FF" d="M12.33 7.82c-.22-.11-.46-.11-.68 0l-3.01 1.5c-.26.12-.42.38-.42.67v6c0 .41.33.75.75.75h6c.41 0 .75-.34.75-.75v-6c0-.29-.17-.55-.42-.68l-3-1.5Z"/><path fill="#4DC4FF" fill-rule="evenodd" d="M11.61 7.35c.23-.15.53-.15.77 0l5 3c.35.21.47.67.25 1.029 -.22.35-.68.47-1.029.25l-4.62-2.77 -4.62 2.76c-.36.21-.82.09-1.029-.26 -.22-.36-.1-.82.25-1.029l4.99-3.01Z"/></svg>