<svg viewBox="0 0 24 24" xmlns="http://www.w3.org/2000/svg"><g fill="#5E94FF"><path d="M4 6.25C2.48 6.25 1.25 7.48 1.25 9v3c0 .41.33.75.75.75h6c.41 0 .75-.34.75-.75V9c0-1.52-1.24-2.75-2.75-2.75H4Z"/><path d="M11 16.25c-1.52 0-2.75 1.23-2.75 2.75v3c0 .41.33.75.75.75h6c.41 0 .75-.34.75-.75v-3c0-1.52-1.24-2.75-2.75-2.75h-2Z"/><path d="M18 6.25c-1.52 0-2.75 1.23-2.75 2.75v3c0 .41.33.75.75.75h6c.41 0 .75-.34.75-.75V9c0-1.52-1.24-2.75-2.75-2.75h-2Z"/></g><g fill="#4DC4FF"><path d="M5 1.25C3.48 1.25 2.25 2.48 2.25 4v1c0 1.51 1.23 2.75 2.75 2.75 1.51 0 2.75-1.24 2.75-2.75V4c0-1.52-1.24-2.75-2.75-2.75Z"/><path d="M12 11.25c-1.52 0-2.75 1.23-2.75 2.75v1c0 1.51 1.23 2.75 2.75 2.75 1.51 0 2.75-1.24 2.75-2.75v-1c0-1.52-1.24-2.75-2.75-2.75Z"/><path d="M19 1.25c-1.52 0-2.75 1.23-2.75 2.75v1c0 1.51 1.23 2.75 2.75 2.75 1.51 0 2.75-1.24 2.75-2.75V4c0-1.52-1.24-2.75-2.75-2.75Z"/></g></svg>