<svg viewBox="0 0 24 24" xmlns="http://www.w3.org/2000/svg"><path fill="#ECEFF1" d="M9.5 1.25c-4.56 0-8.25 3.69-8.25 8.25 0 4.55 3.69 8.25 8.25 8.25 4.55 0 8.25-3.7 8.25-8.25 0-4.56-3.7-8.25-8.25-8.25Z"/><g fill="#5E94FF"><path d="M9.5 4.25c-1.25 0-2.25 1-2.25 2.25 0 1.24 1 2.25 2.25 2.25 1.24 0 2.25-1.01 2.25-2.25 0-1.25-1.01-2.25-2.25-2.25Z"/><path d="M7.5 9.25c-1.25 0-2.25 1-2.25 2.25 0 1.24 1 2.25 2.25 2.25h4c1.24 0 2.25-1.01 2.25-2.25 0-1.25-1.01-2.25-2.25-2.25h-4Z"/></g><g fill="#8B98A6" fill-rule="evenodd"><path d="M9.5 2.75c-3.73 0-6.75 3.02-6.75 6.75 0 3.72 3.02 6.75 6.75 6.75 3.72 0 6.75-3.03 6.75-6.75 0-3.73-3.03-6.75-6.75-6.75ZM1.25 9.5c0-4.56 3.69-8.25 8.25-8.25 4.55 0 8.25 3.69 8.25 8.25 0 4.55-3.7 8.25-8.25 8.25 -4.56 0-8.25-3.7-8.25-8.25Z"/><path d="M14.46 14.46c.29-.3.76-.3 1.06 0l7 7c.29.29.29.76 0 1.06 -.3.29-.77.29-1.07 0l-7-7c-.3-.3-.3-.77 0-1.07Z"/></g></svg>