<svg viewBox="0 0 24 24" xmlns="http://www.w3.org/2000/svg"><g fill="#CFD8DC" fill-rule="evenodd"><path d="M12 11.25c.41 0 .75.33.75.75v7c0 .41-.34.75-.75.75 -.42 0-.75-.34-.75-.75v-7c0-.42.33-.75.75-.75Z"/><path d="M12.75 20.5c0-.42.33-.75.75-.75H20c.41 0 .75.33.75.75 0 .41-.34.75-.75.75h-6.5c-.42 0-.75-.34-.75-.75Z"/><path d="M3.25 20.5c0-.42.33-.75.75-.75h6.5c.41 0 .75.33.75.75 0 .41-.34.75-.75.75H4c-.42 0-.75-.34-.75-.75Z"/></g><path fill="#5E94FF" d="M5 1.25C3.48 1.25 2.25 2.48 2.25 4v1c0 1.51 1.23 2.75 2.75 2.75h14c1.51 0 2.75-1.24 2.75-2.75V4c0-1.52-1.24-2.75-2.75-2.75H5Z"/><path fill="#4DC4FF" d="M5 6.25C3.48 6.25 2.25 7.48 2.25 9v1c0 1.51 1.23 2.75 2.75 2.75h14c1.51 0 2.75-1.24 2.75-2.75V9c0-1.52-1.24-2.75-2.75-2.75H5Z"/><g fill="#ECEFF1" fill-rule="evenodd"><path d="M4.75 4.5c0-.42.33-.75.75-.75h6c.41 0 .75.33.75.75 0 .41-.34.75-.75.75h-6c-.42 0-.75-.34-.75-.75Z"/><path d="M4.75 9.5c0-.42.33-.75.75-.75h6c.41 0 .75.33.75.75 0 .41-.34.75-.75.75h-6c-.42 0-.75-.34-.75-.75Z"/><path d="M15.75 4.5c0-.42.33-.75.75-.75H18c.41 0 .75.33.75.75 0 .41-.34.75-.75.75h-1.5c-.42 0-.75-.34-.75-.75Z"/><path d="M15.75 9.5c0-.42.33-.75.75-.75H18c.41 0 .75.33.75.75 0 .41-.34.75-.75.75h-1.5c-.42 0-.75-.34-.75-.75Z"/></g><g fill="#5E94FF"><path d="M13.5 20.5c0 .82-.68 1.5-1.5 1.5 -.83 0-1.5-.68-1.5-1.5 0-.83.67-1.5 1.5-1.5 .82 0 1.5.67 1.5 1.5Z"/><path fill="#5E94FF" fill-rule="evenodd" d="M12 19.75c-.42 0-.75.33-.75.75 0 .41.33.75.75.75 .41 0 .75-.34.75-.75 0-.42-.34-.75-.75-.75Zm-2.25.75c0-1.25 1-2.25 2.25-2.25 1.24 0 2.25 1 2.25 2.25 0 1.24-1.01 2.25-2.25 2.25 -1.25 0-2.25-1.01-2.25-2.25Z"/></g></svg>