<svg viewBox="0 0 24 24" xmlns="http://www.w3.org/2000/svg"><g fill="#3747D6" fill-rule="evenodd"><path d="M11.5 13.12l-.5-4 1.98-.25 .39 3.12h1.11v2h-2c-.51 0-.93-.38-1-.88Z"/><path fill="#9545ED" d="M19.34 17.96l-2.32-9.73 1.94-.47 2.5 10.5c.1.45-.12.91-.53 1.12l-3.83 1.91c-1.67.83-3.62-.38-3.62-2.24V8.47h2V19.05c0 .37.39.61.72.44l3.11-1.56Z"/><path d="M2.72 1.87c.18-.24.47-.38.77-.38h16c.55 0 1 .44 1 1v5c0 .49-.37.92-.87.99L7.87 10.09c-2.08.28-4.02-1.08-4.46-3.13l-.92-4.28c-.07-.3.01-.61.2-.84Zm2.01 1.62l.65 3.06c.21 1.02 1.19 1.7 2.22 1.56L18.47 6.6V3.47H4.7Z"/></g></svg>