<svg viewBox="0 0 24 24" xmlns="http://www.w3.org/2000/svg"><g fill="#9545ED" fill-rule="evenodd"><path d="M15 13c-.56 0-1 .44-1 1 0 .55.44 1 1 1 .55 0 1-.45 1-1 0-.56-.45-1-1-1Zm-3 1c0-1.66 1.34-3 3-3 1.65 0 3 1.34 3 3 0 1.65-1.35 3-3 3 -1.66 0-3-1.35-3-3Z"/><path d="M10.5 7h-6V5h6v2Z"/><path d="M17 10.5h-4v-2h4v2Z"/><path d="M17 19.5h-4v-2h4v2Z"/><g fill="#3747D6"><path d="M1 3c0-.56.44-1 1-1h14c.55 0 1 .44 1 1v1.5h-2V4H3v12h3v2H2c-.56 0-1-.45-1-1V3Z"/><path d="M15 8c-3.32 0-6 2.68-6 6 0 3.31 2.68 6 6 6 3.31 0 6-2.69 6-6 0-3.32-2.69-6-6-6Zm-8 6c0-4.42 3.58-8 8-8 4.41 0 8 3.58 8 8 0 4.41-3.59 8-8 8 -4.42 0-8-3.59-8-8Z"/></g></g></svg>