<svg viewBox="0 0 24 24" xmlns="http://www.w3.org/2000/svg"><g fill="#9545ED" fill-rule="evenodd"><path d="M3.5 5c0-.56.44-1 1-1h15c.55 0 1 .44 1 1v8.5c0 .55-.45 1-1 1h-15c-.56 0-1-.45-1-1V5Zm2 1v6.5h13V6h-13Z"/><path d="M8.79 8.29l1.5-1.5L11.7 8.2l-1.5 1.5 -1.42-1.42Z"/><path d="M10.793 10.29l3-3.01 1.41 1.41 -3 2.99 -1.42-1.42Z"/><g fill="#3747D6"><path d="M1 2.5c0-.56.44-1 1-1h20c.55 0 1 .44 1 1V16c0 .55-.45 1-1 1H2c-.56 0-1-.45-1-1V2.5Zm2 1V15h18V3.5H3Z"/><path d="M7.4 18.2c.17-.13.38-.2.6-.2h8.5c1.38 0 2.5 1.11 2.5 2.5 0 1.38-1.12 2.5-2.5 2.5H8c-.22 0-.43-.08-.6-.2l-2-1.5c-.26-.19-.4-.49-.4-.8 0-.32.14-.62.4-.8l2-1.5Zm.93 1.8l-.67.5 .66.5h8.16c.27 0 .5-.23.5-.5 0-.28-.23-.5-.5-.5H8.31Z"/></g></g></svg>