<svg viewBox="0 0 24 24" xmlns="http://www.w3.org/2000/svg"><g fill="#9545ED" fill-rule="evenodd"><path d="M9.5 19V8h2v12c0 .55-.45 1-1 1h-3c-.56 0-1-.45-1-1v-8h2v7h1Z"/><path d="M14.5 19V8h-2v12c0 .55.44 1 1 1h3c.55 0 1-.45 1-1v-8h-2v7h-1Z"/><g fill="#3747D6"><path d="M6.5 5c-1.66 0-3 1.34-3 3 0 1.65 1.34 3 3 3 1.65 0 3-1.35 3-3 0-1.66-1.35-3-3-3Zm-5 3c0-2.77 2.23-5 5-5 2.76 0 5 2.23 5 5 0 2.76-2.24 5-5 5 -2.77 0-5-2.24-5-5Z"/><path d="M17.5 5c1.65 0 3 1.34 3 3 0 1.65-1.35 3-3 3 -1.66 0-3-1.35-3-3 0-1.66 1.34-3 3-3Zm5 3c0-2.77-2.24-5-5-5 -2.77 0-5 2.23-5 5 0 2.76 2.23 5 5 5 2.76 0 5-2.24 5-5Z"/></g></g></svg>