<svg viewBox="0 0 24 24" xmlns="http://www.w3.org/2000/svg"><g fill="#9545ED" fill-rule="evenodd"><path d="M9.5 8.5v-4h2v4h-2Z"/><path d="M12.5 8.5v-4h2v4h-2Z"/><path d="M15.5 8.5v-4h2v4h-2Z"/><path d="M17 20H7v-2h10v2Z"/><path fill="#3747D6" d="M18 3c.55 0 1 .44 1 1v16c0 .55-.45 1-1 1H5.5c-.56 0-1-.45-1-1v-8.84c0-.36.19-.7.5-.87l1.48-.85c.93-.54 1.51-1.53 1.51-2.61V3.99c0-.56.44-1 1-1h9Zm3 1c0-1.66-1.35-3-3-3H9C7.34 1 6 2.34 6 4v2.83c0 .35-.2.69-.51.86L4 8.53c-.94.53-1.52 1.52-1.52 2.6v8.83c0 1.65 1.34 3 3 3h12.5c1.65 0 3-1.35 3-3v-16Z"/></g></svg>