<svg viewBox="0 0 24 24" xmlns="http://www.w3.org/2000/svg"><g fill="#9545ED" fill-rule="evenodd"><path d="M9.5 18h-5v-2h5v2Z"/><path d="M8 14.5v5H6v-5h2Z"/><path d="M17.5 19.5h-2v-2h2v2Z"/><path d="M19.5 16.5h-2v-2h2v2Z"/><g fill="#3747D6"><path d="M1 14c0-1.66 1.34-3 3-3h16c1.65 0 3 1.34 3 3v6c0 1.65-1.35 3-3 3H4c-1.66 0-3-1.35-3-3v-6Zm3-1c-.56 0-1 .44-1 1v6c0 .55.44 1 1 1h16c.55 0 1-.45 1-1v-6c0-.56-.45-1-1-1H4Z"/><path d="M1 4c0-1.66 1.34-3 3-3h16c1.65 0 3 1.34 3 3v6c0 1.65-1.35 3-3 3H4c-1.66 0-3-1.35-3-3V4Zm3-1c-.56 0-1 .44-1 1v6c0 .55.44 1 1 1h16c.55 0 1-.45 1-1V4c0-.56-.45-1-1-1H4Z"/></g></g></svg>