<svg viewBox="0 0 24 24" xmlns="http://www.w3.org/2000/svg"><g fill="#9545ED" fill-rule="evenodd"><path d="M3.5 8c0-.56.44-1 1-1h3c.55 0 1 .44 1 1v4c0 .55-.45 1-1 1h-3c-.56 0-1-.45-1-1V8Zm2 1v2h1V9h-1Z"/><path d="M9.5 8c0-.56.44-1 1-1h3c.55 0 1 .44 1 1v4c0 .55-.45 1-1 1h-3c-.56 0-1-.45-1-1V8Zm2 1v2h1V9h-1Z"/><path d="M15.5 8c0-.56.44-1 1-1h3c.55 0 1 .44 1 1v4c0 .55-.45 1-1 1h-3c-.56 0-1-.45-1-1V8Zm2 1v2h1V9h-1Z"/><g fill="#3747D6"><path d="M1 5.5c0-.56.44-1 1-1h20c.55 0 1 .44 1 1v9c0 .55-.45 1-1 1H2c-.56 0-1-.45-1-1v-9Zm2 1v7h18v-7H3Z"/><path d="M8.5 14.5c0-.56.44-1 1-1H21c.55 0 1 .44 1 1v4c0 .55-.45 1-1 1H9.5c-.56 0-1-.45-1-1v-4Zm2 1v2H20v-2h-9.5Z"/><path d="M2 14.5c0-.56.44-1 1-1h3.5c.55 0 1 .44 1 1v4c0 .55-.45 1-1 1H3c-.56 0-1-.45-1-1v-4Zm2 1v2h1.5v-2H4Z"/></g></g></svg>