<svg viewBox="0 0 24 24" xmlns="http://www.w3.org/2000/svg"><g fill="#9545ED" fill-rule="evenodd"><path d="M11.44 15.31l-1 3 -1.9-.64 1-3 1.89.63Z"/><path d="M16.01 6.83c.08-.49.49-.84.98-.84h3.5c.48 0 .9.35.98.83l.5 3c.04.29-.04.58-.23.81 -.19.22-.47.35-.77.35h-4.5c-.3 0-.58-.13-.77-.36 -.19-.23-.28-.53-.23-.82l.5-3Zm1.83 1.16l-.17 1h2.13l-.17-1h-1.81Z"/><path d="M16.01 21.16c.08.48.49.83.98.83h3.5c.48 0 .9-.36.98-.84l.5-3c.04-.29-.04-.59-.23-.82 -.19-.23-.47-.36-.77-.36h-4.5c-.3 0-.58.12-.77.35 -.19.22-.28.52-.23.81l.5 3Zm1.83-1.17l-.17-1h2.13l-.17 1h-1.81Z"/><path fill="#3747D6" d="M1 3c0-.56.44-1 1-1h20c.55 0 1 .44 1 1v2.5h-2V4H3v10h10v2H2c-.56 0-1-.45-1-1V3Z"/><path d="M3 17h10v2H3v-2Z"/><path fill="#3747D6" d="M14.5 11.5c0-1.39 1.11-2.5 2.5-2.5h3.5c1.38 0 2.5 1.11 2.5 2.5v5c0 1.38-1.12 2.5-2.5 2.5H17c-1.39 0-2.5-1.12-2.5-2.5v-5ZM17 11c-.28 0-.5.22-.5.5v5c0 .27.22.5.5.5h3.5c.27 0 .5-.23.5-.5v-5c0-.28-.23-.5-.5-.5H17Z"/></g></svg>