<svg viewBox="0 0 24 24" xmlns="http://www.w3.org/2000/svg"><g fill="#9545ED" fill-rule="evenodd"><path d="M7.79 7.79c.39-.4 1.02-.4 1.41 0l1.49 1.5c.39.39.39 1.02 0 1.41 -.4.39-1.03.39-1.42 0l-.8-.8 -3.59 3.58 .79.79c.39.39.39 1.02 0 1.41 -.4.39-1.03.39-1.42 0l-1.5-1.5c-.4-.4-.4-1.03 0-1.42l5-5.01Z"/><path d="M12.79 6.79c.39-.4 1.02-.4 1.41 0l3 3c.39.39.39 1.02 0 1.41 -.4.39-1.03.39-1.42 0l-3-3c-.4-.4-.4-1.03 0-1.42Z"/><path fill="#3747D6" d="M18.95 4.12c-.4-.4-1.03-.4-1.42 0L4.14 17.51l-.78 3.11 3.11-.78L19.85 6.45c.39-.4.39-1.03 0-1.42l-.93-.93ZM16.12 2.7c1.17-1.18 3.07-1.18 4.24 0l.92.92c1.17 1.17 1.17 3.07 0 4.24L7.69 21.44c-.13.12-.29.21-.47.26l-5 1.25c-.35.08-.71-.02-.95-.27 -.25-.25-.35-.61-.27-.95l1.25-5c.04-.18.13-.34.26-.47L16.09 2.67Z"/></g></svg>