<svg viewBox="0 0 24 24" xmlns="http://www.w3.org/2000/svg"><g fill-rule="evenodd"><path d="M11.37 4.29L9.78 2.7l1.41-1.42 1.58 1.58c1.17 1.17 1.17 3.07 0 4.24l-.18.17c-.4.39-.4 1.02 0 1.41l1.58 1.58 -1.42 1.41 -1.59-1.59C9.98 8.9 9.98 7 11.16 5.83l.17-.18c.39-.4.39-1.03 0-1.42Z"/><path d="M4.87 4.29L3.28 2.7l1.41-1.42 1.58 1.58c1.17 1.17 1.17 3.07 0 4.24l-.18.17c-.4.39-.4 1.02 0 1.41l1.58 1.58 -1.42 1.41 -1.59-1.59C3.48 8.9 3.48 7 4.66 5.83l.17-.18c.39-.4.39-1.03-.01-1.42Z"/><path d="M17.87 4.29L16.28 2.7l1.41-1.42 1.58 1.58c1.17 1.17 1.17 3.07 0 4.24l-.18.17c-.4.39-.4 1.02 0 1.41l1.58 1.58 -1.42 1.41 -1.59-1.59c-1.18-1.18-1.18-3.08 0-4.25l.17-.18c.39-.4.39-1.03 0-1.42Z"/><path d="M12 12c-2.87 0-5.52.52-7.49 1.4 -1.88.84-3.52 2.21-3.52 4.09s1.64 3.25 3.51 4.09c1.96.88 4.61 1.4 7.48 1.4 2.86 0 5.51-.53 7.48-1.41 1.87-.85 3.51-2.22 3.51-4.1 0-1.89-1.65-3.26-3.52-4.1 -1.97-.89-4.62-1.41-7.49-1.41Z"/></g></svg>