<svg viewBox="0 0 24 24" xmlns="http://www.w3.org/2000/svg"><g fill-rule="evenodd"><path d="M1 8c0-.56.44-1 1-1h13c.55 0 1 .44 1 1v14c0 .55-.45 1-1 1H2c-.56 0-1-.45-1-1V8Zm8.9 2c.4.01.76.26.9.64l1.33 3.56c.86 2.31-.85 4.78-3.32 4.78 -2.34 0-4.04-2.23-3.42-4.48l.43-1.6c.1-.37.4-.65.77-.72 .37-.08.75.07.98.38l.29.38 1.05-2.39c.16-.38.53-.61.94-.6Z"/><path d="M2 2c0-.56.44-1 1-1h11c.55 0 1 .44 1 1v6c0 .55-.45 1-1 1H3c-.56 0-1-.45-1-1V2Zm2 1v4h9V3H4Z"/><path d="M6.5 5v3h-2V5h2Z"/><path d="M9.5 5v3h-2V5h2Z"/><path d="M12.5 5v3h-2V5h2Z"/><path d="M19.5 3C18.11 3 17 4.11 17 5.5c0 .64.24 1.34.61 1.87 .34.51.98 1.12 1.88 1.12 .89 0 1.53-.62 1.88-1.13 .36-.54.61-1.23.61-1.88 0-1.39-1.12-2.5-2.5-2.5Z"/><path d="M18.5 22V7.5h2V22h-2Z"/></g></svg>