<svg viewBox="0 0 24 24" xmlns="http://www.w3.org/2000/svg"><g fill-rule="evenodd"><path d="M12.7 11.29c-.4-.4-1.03-.4-1.42 0l-3.01 3L4.4 12.5c-.31-.15-.68-.12-.96.06 -.29.18-.47.5-.47.84 0 5.22 3.96 9.57 9 9.57 5.03 0 9-4.36 9-9.58 0-.35-.18-.66-.47-.85 -.29-.19-.65-.21-.96-.07l-3.87 1.78 -3.01-3.01Z"/><path d="M11.29 6.29c.39-.4 1.02-.4 1.41 0l2.49 2.49 3.35-1.68c.31-.16.67-.14.97.04 .29.18.47.5.47.85v6h-2V9.6l-2.56 1.27c-.39.19-.85.11-1.16-.19l-2.3-2.3 -2.3 2.29c-.31.3-.77.37-1.16.18L5.94 9.57v4.38h-2v-6c0-.35.17-.67.47-.86 .29-.19.66-.2.97-.05l3.35 1.67 2.49-2.5Z"/><path d="M12 1c.33 0 .64.16.83.44l1.55 2.33 2.25-.87c.29-.12.61-.09.88.07 .26.16.44.43.47.74l.5 4.65 -1.99.21 -.37-3.37 -1.79.68c-.44.16-.94.01-1.2-.38l-1.17-1.76 -1.17 1.75c-.26.38-.76.54-1.2.37L7.8 5.17l-.37 3.36 -1.99-.22 .5-4.66c.03-.31.2-.59.47-.75 .26-.17.59-.2.88-.08l2.25.86 1.55-2.34c.18-.28.49-.45.83-.45Z"/></g></svg>