<svg viewBox="0 0 24 24" xmlns="http://www.w3.org/2000/svg"><g fill-rule="evenodd"><path d="M21.2 2.79c-1.22-1.22-3.2-1.22-4.42 0l-15.5 15.5c-.19.18-.3.44-.3.7 0 .26.1.51.29.7l3 3c.39.39 1.02.39 1.41 0l15.5-15.5c1.21-1.22 1.21-3.2 0-4.42Z"/><path d="M7.2 2.79c-1.22-1.22-3.2-1.22-4.42 0C1.56 4 1.56 5.98 2.78 7.2l5.5 5.49 1.41-1.42 -5.5-5.51c-.44-.44-.44-1.15 0-1.59 .43-.44 1.14-.44 1.58-.01l5.5 5.5 1.41-1.42 -5.5-5.5Zm13.37 16.2l-6.3-6.3 1.41-1.42 7 7c.39.39.39 1.02 0 1.41l-3 3c-.4.39-1.03.39-1.42 0l-7-7 1.41-1.42 6.29 6.29 1.58-1.59Z"/></g></svg>