<svg viewBox="0 0 24 24" xmlns="http://www.w3.org/2000/svg"><g fill-rule="evenodd"><path d="M9.32 7.86c.27-.82 1.03-1.37 1.89-1.37h4.77c.55 0 1 .44 1 1v6.5h-2v-5.5H11.2l-.78 2.31c-.14.4-.52.68-.95.68h-1.5v3h1.5v2h-2.5c-.56 0-1-.45-1-1v-5c0-.56.44-1 1-1h1.77l.54-1.64Z"/><path d="M5 10.5V14c0 .26-.11.51-.3.7l-2 2 -1.42-1.42 1.7-1.71v-3.09h2Z"/><path d="M10.5 13C9.11 13 8 14.11 8 15.5c0 1.38 1.11 2.5 2.5 2.5 1.38 0 2.5-1.12 2.5-2.5 0-1.39-1.12-2.5-2.5-2.5Z"/><path d="M14.5 16.5H12v-2h2.5v2Z"/><path d="M16 13c-1.39 0-2.5 1.11-2.5 2.5 0 1.38 1.11 2.5 2.5 2.5h3.5c1.38 0 2.5-1.12 2.5-2.5 0-1.39-1.12-2.5-2.5-2.5H16Z"/><path d="M7 14H4v-2h3v2Z"/><path d="M16 7c-.56 0-1 .44-1 1v6c0 .55.44 1 1 1h4c.43 0 .81-.28.94-.69l2-6c.1-.31.05-.65-.14-.91 -.19-.27-.49-.42-.82-.42h-6Z"/></g></svg>