<svg viewBox="0 0 24 24" xmlns="http://www.w3.org/2000/svg"><g fill-rule="evenodd"><path d="M12.41 13.82c-.63-.94-1.87-1.23-2.84-.66l-5.09 2.96c-.31.17-.5.5-.5.86v4.5c0 .55.44 1 1 1h11c.23 0 .46-.09.64-.24l4.76-3.98c1.11-.93 1.18-2.61.16-3.64 -.85-.85-2.18-.97-3.16-.28l-3.74 2.61h-2.82l.54-.83c.47-.72.47-1.65 0-2.36Z"/><path d="M2 14.5c-.56 0-1 .44-1 1V22c0 .55.44 1 1 1h3c.55 0 1-.45 1-1v-6.5c0-.56-.45-1-1-1H2Z"/><path d="M9 7c0-3.32 2.68-6 6-6 3.31 0 6 2.68 6 6 0 3.31-2.69 6-6 6 -3.32 0-6-2.69-6-6Zm8.2-.8l-1 .99 .67 1.35c.11.23.13.51.05.76l-1 2.99 -1.9-.64 .86-2.61 -.82-1.63c-.2-.39-.12-.85.18-1.16l1.5-1.5 1.41 1.41Z"/></g></svg>