<svg viewBox="0 0 24 24" xmlns="http://www.w3.org/2000/svg"><path fill-rule="evenodd" d="M12 1C5.92 1 1 5.92 1 12c0 4.78 3.05 8.85 7.31 10.36l-.2-.4 -1.99-3.48c-.17-.3-.18-.65-.03-.95l.6-1.22 -2.27-1.52c-.42-.28-.57-.83-.34-1.28l1-2 1.78.89 -.61 1.21 2.26 1.51c.41.27.56.82.33 1.27l-.77 1.52 1.73 3.03c0 .01.01.03.02.04l.94 1.88c.38.04.76.06 1.16.06 6.07 0 11-4.93 11-11 0-6.08-4.93-11-11-11Zm4.88 9l-.78-1.56 1.78-.9 1 2c.14.28.14.61 0 .89l-.73 1.44 1.12 1.5c.32.43.24 1.04-.18 1.38l-2.5 2 -1.25-1.57 1.74-1.4 -.92-1.23c-.23-.31-.27-.71-.1-1.05l.77-1.56Z"/></svg>