<svg viewBox="0 0 24 24" xmlns="http://www.w3.org/2000/svg"><g fill-rule="evenodd"><path d="M4.5 17c-.56 0-1 .44-1 1v2c0 1.65 1.34 3 3 3 1.65 0 3-1.35 3-3v-2c0-.56-.45-1-1-1h-4Z"/><path d="M4.5 16.5c-.53 0-.97-.42-1-.94l-.47-7.38c-.05-.77.35-1.5 1.02-1.88l2.62-1.47c1.17-.66 2.63-.45 3.57.5l.49.49c.53.53.72 1.32.48 2.04l-1.71 5.1c-.04.1-.06.2-.06.31v2.17c0 .55-.45 1-1 1h-4Z"/><path d="M19.5 14c.55 0 1 .44 1 1v2c0 1.65-1.35 3-3 3 -1.66 0-3-1.35-3-3v-2c0-.56.44-1 1-1h4Z"/><path d="M19.5 13.5c.52 0 .96-.42.99-.94l.46-7.38c.04-.77-.36-1.5-1.03-1.88l-2.63-1.47c-1.18-.66-2.64-.45-3.58.5l-.5.49c-.54.53-.73 1.32-.49 2.04l1.702 5.1c.03.1.05.2.05.31v2.17c0 .55.44 1 1 1h4Z"/></g></svg>