<svg viewBox="0 0 24 24" xmlns="http://www.w3.org/2000/svg"><g fill-rule="evenodd"><path d="M2 17c-.56 0-1 .44-1 1v4c0 .55.44 1 1 1h20c.55 0 1-.45 1-1v-4c0-.56-.45-1-1-1H2Z"/><path d="M12 1C5.92 1 1 5.92 1 12c0 2.47.81 4.76 2.19 6.6 .18.25.48.39.79.39h16c.31 0 .61-.15.79-.4 1.38-1.84 2.19-4.13 2.19-6.61 0-6.08-4.93-11-11-11Zm-1.5 14.5V18h-2v-2.5h-2c-.3 0-.59-.14-.78-.37 -.19-.24-.266-.54-.21-.84l1.8-9.02c.2-1.04 1.11-1.79 2.17-1.79 1.05 0 1.96.74 2.17 1.78l1.8 9.01c.05.29-.02.59-.21.83 -.19.23-.48.36-.78.36h-2Zm7.5.5v2h-2v-2h-1c-.3 0-.59-.14-.78-.37 -.19-.23-.27-.54-.22-.83l1.2-6.35c.16-.86.9-1.47 1.77-1.47 .86 0 1.61.61 1.77 1.46l1.2 6.34c.05.29-.03.59-.22.82 -.19.22-.48.36-.78.36h-1Z"/></g></svg>