<svg viewBox="0 0 24 24" xmlns="http://www.w3.org/2000/svg"><g fill-rule="evenodd"><path d="M12 5c-3.87 0-7 3.13-7 7 0 3.86 3.13 7 7 7 3.86 0 7-3.14 7-7 0-3.87-3.14-7-7-7Zm-9 7c0-4.98 4.02-9 9-9 4.97 0 9 4.02 9 9 0 4.97-4.03 9-9 9 -4.98 0-9-4.03-9-9Z"/><path d="M12 8c-2.21 0-4 1.79-4 4 0 2.2 1.79 4 4 4 2.2 0 4-1.8 4-4 0-2.21-1.8-4-4-4Zm-6 4c0-3.32 2.68-6 6-6 3.31 0 6 2.68 6 6 0 3.31-2.69 6-6 6 -3.32 0-6-2.69-6-6Z"/><path d="M12 8.5c-1.94 0-3.5 1.56-3.5 3.5 0 1.93 1.56 3.5 3.5 3.5 1.93 0 3.5-1.57 3.5-3.5 0-1.94-1.57-3.5-3.5-3.5Z"/><path d="M13 2v5h-2V2h2Z"/><path d="M21.99 13h-5v-2h4.99v2Z"/><path d="M11 22v-5h2v5h-2Z"/><path d="M2 11h5v2H2v-2Z"/><path d="M19.77 5.63L16.19 9.2l-1.42-1.42 3.57-3.58 1.41 1.41Z"/><path d="M4.22 5.63L7.79 9.2 9.2 7.78 5.62 4.2 4.2 5.61Z"/><path d="M4.22 18.364l3.57-3.58 1.41 1.41 -3.58 3.57 -1.42-1.42Z"/><path d="M19.77 18.364l-3.58-3.58 -1.42 1.41 3.57 3.57 1.41-1.42Z"/></g></svg>