<svg viewBox="0 0 24 24" xmlns="http://www.w3.org/2000/svg"><g fill-rule="evenodd"><path d="M11.58 10.83c-2.87 0-5.16 2.22-5.16 4.92 0 .08 0 .17 0 .25 0 .13-.05.27-.14.37 -.1.09-.23.15-.37.15H5.9c-1.39 0-2.48 1.07-2.48 2.35s1.08 2.35 2.47 2.35h11.9c.37 0 .73-.09 1.05-.23 .01-.01.02-.02.03-.02 1.51-.55 2.57-1.94 2.57-3.55 0-2.08-1.76-3.79-3.97-3.79 -.29 0-.56.02-.83.08 -.22.04-.44-.06-.54-.26 -.86-1.59-2.59-2.69-4.6-2.69Zm-6.16 4.74c.09-3.21 2.83-5.75 6.15-5.75 2.24 0 4.21 1.15 5.29 2.89 .21-.03.43-.05.66-.05 2.72 0 4.96 2.12 4.96 4.78 0 2.06-1.35 3.8-3.22 4.48 -.45.19-.94.3-1.45.3H5.9c-1.91 0-3.48-1.49-3.48-3.36 0-1.71 1.3-3.1 2.97-3.33Z"/><path d="M10.57 7.02c-2.1 0-3.79 1.69-3.79 3.78 0 .62.15 1.21.42 1.73l-.89.45c-.35-.66-.54-1.41-.54-2.2 0-2.65 2.14-4.79 4.78-4.79s4.78 2.14 4.78 4.78v.47h-1v-.48c0-2.1-1.7-3.79-3.79-3.79Z"/><path d="M10.07 4.14V2.23h1v1.9h-1Z"/><path d="M3.9 10.83H1.99v-1h1.9v.99Z"/><path d="M5.37 6.31L4.02 4.96l.7-.71 1.34 1.34 -.71.7Z"/><path d="M15.68 6.31l1.34-1.35 -.71-.71 -1.35 1.34 .7.7Z"/><path d="M19.143 10.83h-1.91v-1h1.9v.99Z"/></g></svg>