<svg viewBox="0 0 24 24" xmlns="http://www.w3.org/2000/svg"><g fill-rule="evenodd"><path d="M12 2.5c-5.25 0-9.5 4.25-9.5 9.5 0 5.24 4.25 9.5 9.5 9.5 5.24 0 9.5-4.26 9.5-9.5 0-5.25-4.26-9.5-9.5-9.5ZM1.5 12C1.5 6.2 6.2 1.5 12 1.5c5.79 0 10.5 4.7 10.5 10.5 0 5.79-4.71 10.5-10.5 10.5 -5.8 0-10.5-4.71-10.5-10.5Z"/><path d="M16 5.5c-3.87 0-7 3.13-7 7 0 3.86 3.13 7 7 7 .8 0 1.57-.14 2.29-.39 1.96-1.75 3.2-4.29 3.2-7.12 0-1.99-.61-3.83-1.65-5.35 -1.11-.74-2.44-1.16-3.86-1.16Zm-8 7c0-4.42 3.58-8 8-8 1.66 0 3.21.5 4.49 1.38l.07.05 .05.07c1.18 1.69 1.87 3.76 1.87 5.99 0 3.16-1.41 6-3.62 7.93l-.08.06 -.09.03c-.86.3-1.77.47-2.73.47 -4.42 0-8-3.59-8-8Z"/></g></svg>