<svg viewBox="0 0 24 24" xmlns="http://www.w3.org/2000/svg"><g fill-rule="evenodd"><path d="M7.29 9.31c-1.68 0-2.97 1.25-2.97 2.73 0 .04 0 .09 0 .14 0 .13-.05.27-.14.37 -.1.09-.23.15-.37.15H3.8c-.77 0-1.33.57-1.33 1.2s.56 1.2 1.32 1.2h7.3c.2 0 .4-.05.57-.12 .01-.01.02-.01.03-.02 .86-.31 1.44-1.07 1.44-1.93 0-1.11-.97-2.06-2.24-2.06 -.17 0-.32.01-.47.04 -.22.04-.43-.06-.54-.25 -.49-.89-1.49-1.5-2.65-1.5Zm-3.96 2.45C3.48 9.79 5.22 8.3 7.28 8.3c1.39 0 2.62.67 3.34 1.71 .1-.01.2-.02.31-.02 1.75 0 3.23 1.33 3.23 3.05 0 1.32-.9 2.43-2.1 2.86 -.3.12-.62.19-.96.19H3.79c-1.26 0-2.33-.96-2.33-2.21 0-1.09.8-1.95 1.83-2.16Z"/><path d="M15.22 4.62c-2.29.6-3.97 2.68-3.97 5.16 0 .15 0 .29.01.44l-1 .08c-.02-.18-.03-.36-.03-.53 0-3.51 2.83-6.35 6.34-6.35 .21-.01.4.13.47.34 .06.2-.01.42-.18.55 -1.07.79-1.75 2.06-1.75 3.49 0 2.26 1.72 4.12 3.93 4.34 .14.01.28.02.43.02 .81 0 1.56-.23 2.21-.61 .18-.11.42-.09.58.05 .16.14.21.37.13.56 -.96 2.29-3.22 3.9-5.86 3.9 -1.3 0-2.51-.39-3.51-1.06l.55-.84c.84.56 1.86.89 2.95.89 1.72 0 3.25-.82 4.23-2.09 -.43.1-.86.16-1.32.16 -.19 0-.36-.01-.54-.03 -2.72-.27-4.84-2.56-4.84-5.342 0-1.21.39-2.32 1.06-3.22Z"/><path d="M20.3 18.47l-2.03 1.44c-1 .71-2.36.59-3.23-.27l-.31-.31c-.59-.59-1.54-.59-2.13 0l-.2.19c-.93.92-2.41.98-3.4.13l-.72-.62c-.56-.48-1.38-.49-1.94-.02l-1.63 1.35 -.65-.77 1.62-1.36c.93-.79 2.3-.78 3.22.02l.71.61c.59.51 1.48.47 2.03-.08l.19-.2c.97-.98 2.55-.98 3.53 0l.3.3c.51.51 1.33.58 1.93.16l2.02-1.45 .58.81Z"/></g></svg>