<svg viewBox="0 0 24 24" xmlns="http://www.w3.org/2000/svg"><g fill-rule="evenodd"><path d="M6.92 19.83c-1.18-1.08-1.93-2.67-1.93-4.77 0-.71.2-1.56.55-2.51 .35-.95.85-1.96 1.42-2.97 1.13-2.03 2.53-4.02 3.57-5.41 .55-.74 1.61-.74 2.16 0 1.04 1.39 2.44 3.37 3.57 5.4 .56 1.01 1.06 2.02 1.42 2.96 .35.95.55 1.8.55 2.5 0 2.09-.75 3.68-1.93 4.76 -1.19 1.07-2.85 1.66-4.72 1.66 -1.87 0-3.53-.59-4.72-1.67Zm-.68.73c1.39 1.27 3.31 1.92 5.38 1.92s3.98-.66 5.38-1.93c1.4-1.28 2.25-3.15 2.25-5.51 0-.88-.25-1.86-.63-2.86 -.38-1.01-.91-2.07-1.49-3.11 -1.17-2.08-2.6-4.11-3.66-5.51 -.96-1.28-2.82-1.28-3.77 0 -1.06 1.4-2.49 3.43-3.66 5.5 -.59 1.03-1.11 2.09-1.49 3.1 -.38 1-.63 1.98-.63 2.85 0 2.35.84 4.22 2.25 5.5Z"/><path d="M14.95 15.8c0 1.56-1.27 2.83-2.84 2.83v1c2.11 0 3.83-1.72 3.83-3.84h-1Z"/></g></svg>