<svg viewBox="0 0 24 24" xmlns="http://www.w3.org/2000/svg"><g fill-rule="evenodd"><path d="M14.36 8.21c-1.64 0-2.9 1.22-2.9 2.66 0 .04 0 .09 0 .13 0 .13-.05.27-.14.37 -.1.09-.23.15-.37.15h-.01c-.75 0-1.29.55-1.29 1.16 0 .61.54 1.16 1.28 1.16h7.14c.2 0 .38-.05.55-.12 .01-.01.02-.01.03-.02 .84-.3 1.4-1.04 1.4-1.88 0-1.08-.95-2.01-2.18-2.01 -.16 0-.31.01-.46.04 -.22.04-.43-.06-.54-.25 -.48-.86-1.45-1.47-2.59-1.47Zm-3.89 2.38c.15-1.92 1.86-3.39 3.88-3.39 1.36 0 2.57.66 3.27 1.67 .09-.01.19-.02.29-.02 1.72 0 3.17 1.31 3.17 3 0 1.3-.88 2.38-2.07 2.8 -.29.12-.61.19-.94.19h-7.15c-1.23 0-2.29-.94-2.29-2.17 0-1.07.78-1.91 1.79-2.12Z"/><path d="M9.66 5.35c-1.83 0-3.31 1.48-3.31 3.3 0 1.68 1.26 3.08 2.89 3.28l-.13.99c-2.13-.27-3.78-2.08-3.78-4.28 0-2.39 1.92-4.31 4.3-4.31 2 0 3.69 1.37 4.17 3.23l-.97.24c-.37-1.43-1.67-2.49-3.21-2.49Z"/><path d="M10.167 2v2.85h-1.01V1.99h1Z"/><path d="M5.25 3.07l2.02 2.02 -.71.7 -2.03-2.03 .7-.71Z"/><path d="M12.18 5.08l2-2.01 .7.7 -2.03 2.02c-.01 0-.02.01-.03.02l-.26.22 -.66-.76 .24-.22Z"/><path d="M6.68 11.17l-2.03 2.02 .7.7 2.02-2.03 -.71-.71Z"/><path d="M3 8.16h2.85v1H2.99v-1Z"/><path d="M9.2 18.95l.95-2.39 .92.37 -.96 2.38 -.93-.38Z"/><path d="M13.48 18.95l.95-2.39 .92.37 -.96 2.38 -.93-.38Z"/><path d="M17.77 18.95l.95-2.39 .92.37 -.96 2.38 -.93-.38Z"/><path d="M10.63 21.81l.95-2.39 .92.37 -.96 2.38 -.93-.38Z"/><path d="M14.917 21.81l.95-2.39 .92.37 -.96 2.38 -.93-.38Z"/><path d="M19.2 21.81l.95-2.39 .92.37 -.96 2.38 -.93-.38Z"/></g></svg>