<svg viewBox="0 0 24 24" xmlns="http://www.w3.org/2000/svg"><g fill-rule="evenodd"><path d="M15.6 7.92c.18-.09.39-.05.53.08l3.23 2.92c.13.12.33.16.51.09l1.92-.74 .35.93 -1.93.73c-.53.2-1.13.08-1.54-.29l-2.41-2.17v.38c0 1.18-1.31 1.9-2.31 1.26l-2.94-1.87v.6c0 1.18-1.31 1.9-2.31 1.26L5.76 9.23v1.09c0 .99-.96 1.71-1.92 1.44l-2.06-.59 .27-.97 2.05.58c.31.09.63-.15.63-.49V8.28c0-.19.09-.36.25-.44 .15-.09.35-.09.5.01l3.7 2.35c.33.21.76-.03.76-.43V8.25c0-.19.09-.36.25-.44 .16-.09.35-.09.5.01l3.7 2.35c.33.21.76-.03.76-.43V8.22c0-.2.11-.38.29-.46Z"/><path d="M5.48 14.62c.89-.69 2.13-.69 3.03 0l.07.05c.53.4 1.28.4 1.81 0l.07-.06c.89-.69 2.13-.69 3.03 0l.07.05c.53.4 1.28.4 1.81 0l.07-.06c.89-.69 2.13-.69 3.03 0l.23.17c.47.36 1.13.4 1.65.1l1.34-.78 .49.86 -1.35.77c-.88.49-1.96.42-2.76-.19l-.24-.18c-.54-.41-1.29-.41-1.82 0l-.08.05c-.9.68-2.14.68-3.04 0l-.08-.06c-.54-.41-1.29-.41-1.82 0l-.08.05c-.9.68-2.14.68-3.04 0l-.08-.06c-.54-.41-1.29-.41-1.82 0l-.24.17c-.8.6-1.89.68-2.76.18l-1.35-.78 .49-.87 1.34.77c.52.29 1.17.25 1.65-.11l.23-.18Z"/></g></svg>