<svg viewBox="0 0 24 24" xmlns="http://www.w3.org/2000/svg"><g fill-rule="evenodd"><path d="M11.06 2.5c-3.03 0-5.44 2.34-5.44 5.2 0 .09 0 .18 0 .27 0 .13-.05.27-.14.37 -.1.09-.23.15-.37.15H5.1c-1.47 0-2.63 1.13-2.63 2.5 0 1.36 1.15 2.5 2.62 2.5h12.5c.4 0 .78-.09 1.11-.24 .01-.01.02-.02.03-.02 1.59-.58 2.71-2.05 2.71-3.75 0-2.2-1.86-4-4.19-4 -.3 0-.59.02-.87.08 -.22.04-.44-.06-.54-.26 -.9-1.68-2.73-2.84-4.85-2.84ZM4.62 7.53c.09-3.37 2.95-6.04 6.43-6.04 2.35 0 4.42 1.21 5.54 3.04 .23-.04.46-.05.7-.05 2.84 0 5.18 2.21 5.18 5 0 2.15-1.41 3.97-3.37 4.682 -.47.2-.98.31-1.52.31H5.08c-1.99 0-3.625-1.55-3.625-3.5 0-1.79 1.37-3.24 3.12-3.47Z"/><path d="M9.55 17.77l2-4 .89.44 -1.64 3.27h3.19c.17 0 .33.08.42.23 .09.14.09.33.02.48l-2 4 -.9-.45 1.63-3.28h-3.2c-.18 0-.34-.09-.43-.24 -.1-.15-.1-.34-.03-.49Z"/></g></svg>