<svg viewBox="0 0 24 24" xmlns="http://www.w3.org/2000/svg"><g fill-rule="evenodd"><path d="M8.5 10c0-.28.22-.5.5-.5h12c.27 0 .5.22.5.5v5.85c0 1.5-.76 2.9-2.01 3.74l-4.22 2.81c-.17.11-.39.11-.56 0l-4.22-2.82c-1.26-.84-2.01-2.24-2.01-3.75V9.97Zm1 .5v5.35c0 1.17.58 2.26 1.55 2.91l3.94 2.62 3.94-2.63c.97-.65 1.55-1.75 1.55-2.92v-5.36h-11Z"/><path d="M2.5 10c0-.28.22-.5.5-.5h6v1H3.5v4.59c0 1.21.63 2.35 1.67 2.98l3.82 2.33 2.23-1.37 .52.85 -2.5 1.52c-.17.09-.37.09-.53 0l-4.09-2.5c-1.34-.82-2.16-2.28-2.16-3.84V9.97Z"/><path d="M7.5 8c0-2.49 2.01-4.5 4.5-4.5h6c2.48 0 4.5 2.01 4.5 4.5v2c0 .27-.23.5-.5.5H8c-.28 0-.5-.23-.5-.5V8ZM12 4.5c-1.94 0-3.5 1.56-3.5 3.5v1.5h13V8c0-1.94-1.57-3.5-3.5-3.5h-6Z"/><path d="M6 5.5C4.06 5.5 2.5 7.06 2.5 9v.5H9v1H2c-.28 0-.5-.23-.5-.5V9c0-2.49 2.01-4.5 4.5-4.5h3v1H6Z"/><path d="M15.5 2v2h-1V2h1Z"/><path d="M9.5 3v2h-1V3h1Z"/></g></svg>