<svg viewBox="0 0 24 24" xmlns="http://www.w3.org/2000/svg"><g fill-rule="evenodd"><path d="M12 5.5c-3.59 0-6.5 2.91-6.5 6.5 0 3.58 2.91 6.5 6.5 6.5 3.58 0 6.5-2.92 6.5-6.5 0-3.59-2.92-6.5-6.5-6.5ZM4.5 12c0-4.15 3.35-7.5 7.5-7.5 4.14 0 7.5 3.35 7.5 7.5 0 4.14-3.36 7.5-7.5 7.5 -4.15 0-7.5-3.36-7.5-7.5Z"/><path d="M9.79 14.59c.62.44 1.38.71 2.2.71 .82 0 1.58-.27 2.208-.72l.58.81c-.79.56-1.76.89-2.792.89 -1.05 0-2.01-.34-2.8-.9l.58-.82Z"/><path d="M14.5 11v-1h1v1h-1Z"/><path d="M8.5 11v-1h1v1h-1Z"/><path d="M12.5 1.5v1h-1v-1h1Z"/><path d="M12.5 21.5v1h-1v-1h1Z"/><path d="M7.18 2.65l.5.86 -.87.5 -.5-.87 .86-.5Z"/><path d="M17.183 19.97l.5.86 -.87.5 -.5-.87 .86-.5Z"/><path d="M3.15 6.31l.86.5 -.5.86 -.87-.5 .5-.87Z"/><path d="M20.47 16.31l.86.5 -.5.86 -.87-.5 .5-.87Z"/><path d="M1.5 11.5h1v1h-1v-1Z"/><path d="M21.5 11.5h1v1h-1v-1Z"/><path d="M2.65 16.81l.86-.5 .5.86 -.87.5 -.5-.87Z"/><path d="M19.97 6.81l.86-.5 .5.86 -.87.5 -.5-.87Z"/><path d="M6.31 20.84l.5-.87 .86.5 -.5.86 -.87-.5Z"/><path d="M16.31 3.52l.5-.87 .86.5 -.5.86 -.87-.5Z"/></g></svg>