<svg viewBox="0 0 24 24" xmlns="http://www.w3.org/2000/svg"><g fill-rule="evenodd"><path d="M4.64 4.64c.19-.2.51-.2.7 0l2 2c.09.09.14.22.14.35v12c0 .27-.23.5-.5.5h-4c-.28 0-.5-.23-.5-.5v-12c0-.14.05-.26.14-.36l2-2ZM3.49 7.2v11.29h3V7.19l-1.5-1.5 -1.5 1.5Z"/><path d="M11.64 4.64c.19-.2.51-.2.7 0l2 2c.09.09.14.22.14.35v12c0 .27-.23.5-.5.5h-4c-.28 0-.5-.23-.5-.5v-12c0-.14.05-.26.14-.36l1.99-2ZM10.49 7.2v11.29h3V7.19l-1.5-1.5 -1.5 1.5Z"/><path d="M18.64 4.64c.19-.2.51-.2.7 0l2 2c.09.09.14.22.14.35v12c0 .27-.23.5-.5.5h-4c-.28 0-.5-.23-.5-.5v-12c0-.14.05-.26.14-.36l2-2ZM17.49 7.2v11.29h3V7.19l-1.5-1.5 -1.5 1.5Z"/><path d="M3 10.5H1.5v-1H3v1Z"/><path d="M22.5 10.5H21v-1h1.5v1Z"/><path d="M10 10.5H7v-1h3v1Z"/><path d="M17 10.5h-3v-1h3v1Z"/><path d="M3 16.5H1.5v-1H3v1Z"/><path d="M22.5 16.5H21v-1h1.5v1Z"/><path d="M10 16.5H7v-1h3v1Z"/><path d="M17 16.5h-3v-1h3v1Z"/></g></svg>