<svg viewBox="0 0 24 24" xmlns="http://www.w3.org/2000/svg"><g fill-rule="evenodd"><path d="M6.5 6c0-2.49 2.01-4.5 4.5-4.5h2c2.48 0 4.5 2.01 4.5 4.5v9c0 1.38-1.12 2.5-2.5 2.5H9c-1.39 0-2.5-1.12-2.5-2.5V6ZM11 2.5C9.06 2.5 7.5 4.06 7.5 6v9c0 .82.67 1.5 1.5 1.5h6c.82 0 1.5-.68 1.5-1.5V6c0-1.94-1.57-3.5-3.5-3.5h-2Z"/><path d="M12.832 12.15c-.51-.34-1.17-.34-1.67 0l-.79.52c-.84.55-1.94.55-2.78 0l-.9-.6 .55-.84 .89.59c.5.33 1.16.33 1.66 0l.78-.53c.83-.56 1.93-.56 2.77 0l.78.52c.5.33 1.16.33 1.66 0l.89-.6 .55.83 -.9.59c-.84.55-1.94.55-2.78 0l-.79-.53Z"/><path d="M11.5 22v-5h1v5h-1Z"/></g></svg>