<svg viewBox="0 0 24 24" xmlns="http://www.w3.org/2000/svg"><g fill-rule="evenodd"><path d="M5.5 11c0-3.04 2.46-5.5 5.5-5.5h2c3.03 0 5.5 2.46 5.5 5.5v5c0 3.03-2.47 5.5-5.5 5.5h-2c-3.04 0-5.5-2.47-5.5-5.5v-5ZM11 6.5c-2.49 0-4.5 2.01-4.5 4.5v5c0 2.48 2.01 4.5 4.5 4.5h2c2.48 0 4.5-2.02 4.5-4.5v-5c0-2.49-2.02-4.5-4.5-4.5h-2Z"/><path d="M6.87 8.79c.69 1.59 2.28 2.7 4.12 2.7h2c1.84 0 3.43-1.11 4.12-2.71l.91.4c-.85 1.94-2.79 3.29-5.05 3.29h-2c-2.26 0-4.2-1.36-5.05-3.3l.91-.41Z"/><path d="M18.97 19.51l-1.64-.55 .31-.95 1.63.54c1.02.34 1.7 1.29 1.7 2.37v1.55h-1v-1.56c0-.65-.42-1.22-1.03-1.43Z"/><path d="M5.02 19.51l1.63-.55 -.32-.95 -1.64.54c-1.03.34-1.71 1.29-1.71 2.37v1.55h1v-1.56c0-.65.41-1.22 1.02-1.43Z"/><path d="M18.47 6.98l-1.64.54 .31.94 1.63-.55c1.02-.35 1.7-1.3 1.7-2.38V3.97h-1v1.55c0 .64-.42 1.21-1.03 1.42Z"/><path d="M5.52 6.98l1.63.54 -.32.94 -1.64-.55c-1.03-.35-1.71-1.3-1.71-2.38V3.97h1v1.55c0 .64.41 1.21 1.02 1.42Z"/><path d="M19.5 13.5h-1v-1h1c1.38 0 2.5 1.11 2.5 2.5v2h-1v-2c0-.83-.68-1.5-1.5-1.5Z"/><path d="M4.5 13.5h1v-1h-1C3.11 12.5 2 13.61 2 15v2h1v-2c0-.83.67-1.5 1.5-1.5Z"/><path d="M9 4.5C9 3.11 10.11 2 11.5 2h1C13.88 2 15 3.11 15 4.5V6h-1V4.5c0-.83-.68-1.5-1.5-1.5h-1c-.83 0-1.5.67-1.5 1.5V6H9V4.5Z"/><path d="M11.5 21v-9h1v9h-1Z"/></g></svg>