<svg viewBox="0 0 24 24" xmlns="http://www.w3.org/2000/svg"><g fill-rule="evenodd"><path d="M6.63 7.66c.09-.11.22-.17.36-.17h12c.13 0 .27.05.36.16 .09.1.14.23.13.37l-1 13c-.02.26-.24.46-.5.46h-10c-.27 0-.48-.21-.5-.47l-1-13c-.02-.14.03-.28.13-.38Zm.9.83l.92 12h9.07l.92-12H7.51Z"/><path d="M7 4.5C5.06 4.5 3.5 6.06 3.5 8c0 1.93 1.56 3.5 3.5 3.5v1c-2.49 0-4.5-2.02-4.5-4.5 0-2.49 2.01-4.5 4.5-4.5 2.48 0 4.5 2.01 4.5 4.5h-1c0-1.94-1.57-3.5-3.5-3.5Z"/><path d="M15.52 2.85c.06-.21.25-.36.47-.36h4v1h-3.64l-3.9 12.64 -.96-.3 4-13Z"/></g></svg>