<svg viewBox="0 0 24 24" xmlns="http://www.w3.org/2000/svg"><g fill-rule="evenodd"><path d="M22 2.5H2v-1h20v1Z"/><path d="M9.39 11.56l10.69 1.94 -.18.98 -11-2c-.19-.04-.34-.17-.39-.35l-3-10 .95-.29 2.91 9.7Z"/><path d="M5.99 17.06l3.41-4.78 -.82-.59 -3.42 4.77 .81.58Z"/><path d="M16.84 8.77l-2.76 3.93 .81.57 2.75-3.94 -.82-.58Z"/><path d="M2.85 21.48c.09.13.24.21.41.21 1.11 0 2.22-.72 2.81-1.85 .59-1.13.56-2.45-.08-3.37 -.1-.14-.25-.22-.42-.22 -1.12-.01-2.23.71-2.82 1.84 -.6 1.12-.57 2.44.07 3.36Zm.68-.81c-.27-.57-.27-1.36.12-2.1 .38-.75 1.03-1.19 1.65-1.29 .26.56.26 1.35-.13 2.09 -.39.74-1.04 1.18-1.66 1.28Z"/><path d="M19.99 4.35c-.1-.14-.25-.22-.42-.22 -1.12-.01-2.23.71-2.82 1.84 -.6 1.12-.57 2.44.07 3.36 .09.13.24.21.41.21 1.11 0 2.22-.72 2.81-1.85 .59-1.13.56-2.45-.08-3.37Zm-.69.8c.26.56.26 1.35-.13 2.09 -.39.74-1.04 1.18-1.66 1.28 -.27-.57-.27-1.36.12-2.1 .38-.75 1.03-1.19 1.65-1.29Z"/><path d="M7.55 13.81c.1-.13.14-.3.1-.46 -.28-1.09-1.25-1.98-2.49-2.27 -1.25-.3-2.51.06-3.25.9 -.11.12-.15.29-.11.45 .27 1.08 1.24 1.97 2.48 2.26 1.24.29 2.5-.07 3.24-.91Zm-.96-.47c-.49.39-1.25.59-2.06.39 -.82-.2-1.41-.71-1.66-1.29 .48-.4 1.24-.6 2.05-.4 .81.19 1.4.7 1.65 1.28Z"/><path d="M12.03 12.77c.09-.12.24-.18.39-.17 1.07.03 2.12.73 2.7 1.81 .65 1.22.57 2.69-.25 3.61 -.1.11-.25.17-.4.16 -1.08-.04-2.13-.74-2.71-1.82 -.66-1.23-.58-2.7.24-3.62Zm.6.85c-.37.57-.42 1.45.03 2.28 .38.71 1.01 1.15 1.61 1.26 .36-.58.41-1.46-.04-2.29 -.39-.72-1.02-1.16-1.62-1.27Z"/></g></svg>