<svg viewBox="0 0 24 24" xmlns="http://www.w3.org/2000/svg"><g fill-rule="evenodd"><path d="M16.5 10c-.83 0-1.5.67-1.5 1.5 0 .82.67 1.5 1.5 1.5 .82 0 1.5-.68 1.5-1.5 0-.83-.68-1.5-1.5-1.5ZM14 11.5c0-1.39 1.11-2.5 2.5-2.5 1.38 0 2.5 1.11 2.5 2.5 0 1.38-1.12 2.5-2.5 2.5 -1.39 0-2.5-1.12-2.5-2.5Z"/><path d="M7.5 10c.82 0 1.5.67 1.5 1.5 0 .82-.68 1.5-1.5 1.5 -.83 0-1.5-.68-1.5-1.5 0-.83.67-1.5 1.5-1.5Zm2.5 1.5C10 10.11 8.88 9 7.5 9 6.11 9 5 10.11 5 11.5 5 12.88 6.11 14 7.5 14c1.38 0 2.5-1.12 2.5-2.5Z"/><path d="M11.5 11c0-2.49 2.01-4.5 4.5-4.5h5c.27 0 .5.22.5.5v5c0 2.48-2.02 4.5-4.5 4.5h-1c-2.49 0-4.5-2.02-4.5-4.5v-1ZM16 7.5c-1.94 0-3.5 1.56-3.5 3.5v1c0 1.93 1.56 3.5 3.5 3.5h1c1.93 0 3.5-1.57 3.5-3.5V7.5H16Z"/><path d="M12.5 11c0-2.49-2.02-4.5-4.5-4.5H3c-.28 0-.5.22-.5.5v5c0 2.48 2.01 4.5 4.5 4.5h1c2.48 0 4.5-2.02 4.5-4.5v-1ZM8 7.5c1.93 0 3.5 1.56 3.5 3.5v1c0 1.93-1.57 3.5-3.5 3.5H7c-1.94 0-3.5-1.57-3.5-3.5V7.5H8Z"/><path d="M1.6 16.68l2-2.5 .78.62 -2 2.5 -.79-.63Z"/><path d="M22.39 16.68l-2-2.5 -.79.62 2 2.5 .78-.63Z"/></g></svg>