<svg viewBox="0 0 24 24" xmlns="http://www.w3.org/2000/svg"><g fill-rule="evenodd"><path d="M3.5 11c0-.83.67-1.5 1.5-1.5h5c.82 0 1.5.67 1.5 1.5v2c0 1.38-1.12 2.5-2.5 2.5H5c-.83 0-1.5-.68-1.5-1.5v-3Zm1.5-.5c-.28 0-.5.22-.5.5v3c0 .27.22.5.5.5h4c.82 0 1.5-.68 1.5-1.5v-2c0-.28-.23-.5-.5-.5H5Z"/><path d="M20.5 11c0-.83-.68-1.5-1.5-1.5h-5c-.83 0-1.5.67-1.5 1.5v2c0 1.38 1.11 2.5 2.5 2.5h4c.82 0 1.5-.68 1.5-1.5v-3Zm-1.5-.5c.27 0 .5.22.5.5v3c0 .27-.23.5-.5.5h-4c-.83 0-1.5-.68-1.5-1.5v-2c0-.28.22-.5.5-.5h5Z"/><path d="M22 11.5h-2v-1h2v1Z"/><path d="M13 11.5h-2v-1h2v1Z"/><path d="M4 11.5H2v-1h2v1Z"/></g></svg>