<svg viewBox="0 0 24 24" xmlns="http://www.w3.org/2000/svg"><g fill-rule="evenodd"><path d="M12 2.5C8.41 2.5 5.5 5.41 5.5 9c0 2.94 1.95 5.43 4.64 6.23l-.29.95c-3.1-.93-5.36-3.8-5.36-7.19 0-4.15 3.35-7.5 7.5-7.5 4.14 0 7.5 3.35 7.5 7.5 0 3.39-2.26 6.26-5.36 7.18l-.29-.96c2.68-.8 4.64-3.29 4.64-6.24 0-3.59-2.92-6.5-6.5-6.5Z"/><path d="M13.5 17.34v-6.35h1v6.34c0 .92.36 1.81 1.02 2.47l1.82 1.82 -.71.7 -1.83-1.83c-.85-.85-1.32-1.99-1.32-3.19Z"/><path d="M10.5 17.34v-6.35h-1v6.34c0 .92-.37 1.81-1.03 2.47l-1.83 1.82 .7.7 1.82-1.83c.84-.85 1.31-1.99 1.31-3.19Z"/><path d="M8 6.5h1v1H8v-1Z"/><path d="M11 8.5h1v1h-1v-1Z"/><path d="M14 6.5h1v1h-1v-1Z"/></g></svg>