<svg viewBox="0 0 24 24" xmlns="http://www.w3.org/2000/svg"><g fill-rule="evenodd"><path d="M7.29 4.6c-1.2.68-1.8 1.54-1.8 2.39 0 .84.6 1.71 1.79 2.39 1.17.67 2.83 1.1 4.7 1.1 1.86 0 3.52-.44 4.7-1.11 1.19-.69 1.79-1.55 1.79-2.4 0-.85-.61-1.72-1.8-2.4 -1.18-.68-2.84-1.11-4.71-1.11s-3.53.43-4.71 1.1Zm-.5-.87c1.35-.78 3.19-1.24 5.19-1.24 2 0 3.84.46 5.19 1.23 1.34.76 2.3 1.9 2.3 3.26 0 1.36-.97 2.49-2.31 3.26 -1.36.77-3.2 1.23-5.2 1.23 -2.01 0-3.85-.47-5.2-1.24s-2.31-1.91-2.31-3.27c0-1.37.96-2.5 2.3-3.27Z"/><path d="M15 7.5H9v-1h6v1Z"/><path d="M18.5 15.18V6.99h1v8.18c0 1.63.72 3.18 1.97 4.22l.84.7 -.65.76 -.85-.71c-1.49-1.24-2.34-3.07-2.34-5Z"/><path d="M5.5 11.5V7h-1v3.69l-1.28-.64c-.16-.08-.34-.07-.49.02 -.15.09-.24.25-.24.42v3.5c0 .18.1.36.27.44l1.72.86c-.04 1.58-.76 3.08-1.98 4.1l-.85.7 .64.76 .84-.71c1.48-1.24 2.33-3.07 2.33-5v-.19c0-.19-.11-.37-.28-.45l-1.73-.87v-2.39l1.27.63c.15.07.33.06.48-.03 .14-.1.23-.26.23-.43Z"/></g></svg>