<svg viewBox="0 0 24 24" xmlns="http://www.w3.org/2000/svg"><g fill-rule="evenodd"><path d="M4.5 7.32c0-.28.22-.5.5-.5h9c.27 0 .5.22.5.5v6.99c0 1.38-1.12 2.5-2.5 2.5H7c-1.39 0-2.5-1.12-2.5-2.5v-7Zm1 .5v6.49c0 .82.67 1.5 1.5 1.5h5c.82 0 1.5-.68 1.5-1.5v-6.5h-8Z"/><path d="M5 14.82c.27 0 .5-.23.5-.5v-6c0-.28-.23-.5-.5-.5H4c-1.39 0-2.5 1.11-2.5 2.49v2c0 1.38 1.11 2.5 2.5 2.5h1Zm-.5-1H4c-.83 0-1.5-.68-1.5-1.5v-2c0-.83.67-1.5 1.5-1.5h.5v4.99Z"/><path d="M18.26 6.55c.21-.18.52-.15.7.07l3.16 3.86c.17.21.14.52-.08.7l-.78.63c-1.07.87-2.65.71-3.52-.36l-.64-.78c-.88-1.07-.72-2.65.35-3.52l.77-.64Zm.24 1.09l-.39.31c-.65.52-.74 1.46-.22 2.11l.63.77c.52.64 1.46.73 2.11.21l.38-.32 -2.54-3.1Z"/><path d="M14 10.82H5v-1h9v.99Z"/><path d="M18.31 11.38l-4 3.32 -.64-.77 4-3.33 .63.76Z"/></g></svg>