<svg viewBox="0 0 24 24" xmlns="http://www.w3.org/2000/svg"><g fill-rule="evenodd"><path d="M1.25 6c0-1.52 1.23-2.75 2.75-2.75h11c.41 0 .75.33.75.75 0 .41-.34.75-.75.75H4c-.7 0-1.25.55-1.25 1.25v9c0 .69.55 1.25 1.25 1.25h2c.41 0 .75.33.75.75 0 .41-.34.75-.75.75H4c-1.52 0-2.75-1.24-2.75-2.75V6Zm17-2c0-.42.33-.75.75-.75h1c1.51 0 2.75 1.23 2.75 2.75v9c0 1.51-1.24 2.75-2.75 2.75h-2c-.42 0-.75-.34-.75-.75 0-.42.33-.75.75-.75h2c.69 0 1.25-.56 1.25-1.25V6c0-.7-.56-1.25-1.25-1.25h-1c-.42 0-.75-.34-.75-.75Z"/><path d="M12 13.25c.26 0 .51.14.64.37l3.5 6c.13.23.13.51 0 .75 -.14.23-.39.37-.66.37h-7c-.27 0-.52-.15-.66-.38 -.14-.24-.14-.52 0-.76l3.5-6c.13-.24.38-.38.64-.38Zm-2.2 6h4.38l-2.2-3.77 -2.2 3.76Z"/></g></svg>