<svg viewBox="0 0 24 24" xmlns="http://www.w3.org/2000/svg"><g fill-rule="evenodd"><path d="M6.27 1.8c.08-.33.38-.56.72-.56h7.99c.25 0 .48.12.62.33 .13.21.16.47.06.7L13.1 8.22h2.86c.27 0 .52.15.65.39 .13.24.11.53-.04.76l-2.62 3.99c-.23.34-.7.44-1.04.21 -.35-.23-.45-.7-.22-1.04l1.85-2.84h-2.62c-.26 0-.49-.13-.63-.34 -.14-.22-.17-.48-.07-.71l2.55-5.96H7.48l-2.6 9.5h4.01c.22 0 .42.09.57.26 .14.16.2.39.16.6l-.92 5.47 1.31-2.02c.22-.35.69-.45 1.03-.22 .34.22.44.69.21 1.03l-3.27 5c-.2.29-.57.41-.91.28 -.34-.13-.53-.48-.47-.83l1.35-8.13H3.83c-.24 0-.46-.11-.6-.3 -.15-.19-.19-.43-.13-.66l3-11Z"/><path d="M18.5 12.75c.3 0 .57.18.69.46l3.5 8.5c.15.38-.03.82-.41.97 -.39.15-.83-.03-.98-.41l-2.81-6.82 -2.81 6.81c-.16.38-.6.56-.98.4 -.39-.16-.57-.6-.41-.98l3.5-8.5c.11-.29.38-.47.69-.47Z"/><path d="M15.75 18.5c0-.42.33-.75.75-.75h4c.41 0 .75.33.75.75 0 .41-.34.75-.75.75h-4c-.42 0-.75-.34-.75-.75Z"/></g></svg>