<svg viewBox="0 0 24 24" xmlns="http://www.w3.org/2000/svg"><g fill-rule="evenodd"><path d="M10.24 18.11c.16.13.4.01.4-.2V6.07c0-.21-.25-.33-.41-.2l-7.4 5.91c-.13.1-.13.29-.001.39l2.02 1.61c.32.25.37.73.11 1.05 -.26.32-.74.37-1.06.11l-2.03-1.62c-.88-.71-.88-2.04 0-2.74l7.39-5.92c1.14-.92 2.84-.11 2.84 1.36v11.83c0 1.46-1.7 2.28-2.85 1.36L7.86 18.1c-.33-.26-.38-.74-.12-1.06 .25-.33.73-.38 1.05-.12l1.37 1.1Z"/><path d="M20.24 5.88c.16-.14.4-.02.4.19V17.9c0 .2-.25.32-.41.19l-7.4-5.92c-.13-.11-.13-.3 0-.4l7.39-5.92Zm1.9.19c0-1.47-1.7-2.29-2.85-1.37l-7.4 5.91c-.88.7-.88 2.03 0 2.73l7.39 5.91c1.14.91 2.84.1 2.84-1.37V6.04Z"/></g></svg>