<svg viewBox="0 0 24 24" xmlns="http://www.w3.org/2000/svg"><g fill-rule="evenodd"><path d="M13.15 18.11c-.17.13-.41.01-.41-.2V6.07c0-.21.24-.33.4-.2l7.39 5.91c.12.1.12.29 0 .39l-2.03 1.61c-.33.25-.38.73-.12 1.05 .25.32.73.37 1.05.11l2.02-1.62c.87-.71.87-2.04 0-2.74l-7.4-5.92c-1.15-.92-2.85-.11-2.85 1.36v11.83c0 1.46 1.69 2.28 2.84 1.36l1.37-1.11c.32-.26.37-.74.11-1.06 -.26-.33-.74-.38-1.06-.12l-1.38 1.1Z"/><path d="M3.15 5.88c-.17-.14-.41-.02-.41.19V17.9c0 .2.24.32.4.19l7.39-5.92c.12-.11.12-.3 0-.4l-7.4-5.92Zm-1.91.19c0-1.47 1.69-2.29 2.84-1.37l7.39 5.91c.87.7.87 2.03 0 2.73l-7.4 5.91c-1.15.91-2.85.1-2.85-1.37V6.04Z"/></g></svg>