<svg viewBox="0 0 24 24" xmlns="http://www.w3.org/2000/svg"><g fill-rule="evenodd"><path d="M21.71 12.28c.31.09.53.38.53.71v6.5c0 1.51-1.24 2.75-2.75 2.75h-2.5c-.42 0-.75-.34-.75-.75 0-.42.33-.75.75-.75h2.5c.69 0 1.25-.56 1.25-1.25V15.46l-.63.93c-.13.18-.33.3-.56.33 -.23.02-.45-.06-.61-.22l-2.47-2.47L14 16.49c-.3.29-.77.29-1.07 0l-2.47-2.47 -2.47 2.46c-.25.24-.63.28-.92.11L3.2 14.27v5.17c0 .69.55 1.25 1.25 1.25h8.5c.41 0 .75.33.75.75 0 .41-.34.75-.75.75h-8.5c-1.52 0-2.75-1.24-2.75-2.75v-6.5c0-.28.14-.52.38-.66 .23-.14.52-.13.75 0l4.49 2.69 2.58-2.59c.29-.3.76-.3 1.06 0l2.46 2.46 2.46-2.47c.29-.3.76-.3 1.06 0l2.35 2.35 1.49-2.24c.18-.28.52-.4.84-.31Z"/><path d="M2.21 11.19c.28.11.6.05.81-.17l2.46-2.47 2.46 2.46c.29.29.76.29 1.06 0l2.46-2.47L13.92 11c.14.14.33.21.53.21 .19 0 .38-.08.53-.22l2.54-2.55 3.47 2.6c.22.17.53.19.78.07 .25-.13.41-.39.41-.68V3.92c0-1.52-1.24-2.75-2.75-2.75h-15c-1.52 0-2.75 1.23-2.75 2.75v6.5c0 .3.18.57.46.69Zm18.53-2.2l-2.8-2.1c-.3-.23-.72-.2-.99.06l-2.47 2.46 -2.47-2.47c-.3-.3-.77-.3-1.07 0L8.47 9.4 6 6.93c-.3-.3-.77-.3-1.07 0L3.21 8.64V3.95c0-.7.55-1.25 1.25-1.25h15c.69 0 1.25.55 1.25 1.25v5Z"/></g></svg>