<svg viewBox="0 0 24 24" xmlns="http://www.w3.org/2000/svg"><g fill-rule="evenodd"><path d="M1.25 4c0-1.52 1.23-2.75 2.75-2.75h10c.41 0 .75.33.75.75 0 .41-.34.75-.75.75H4c-.7 0-1.25.55-1.25 1.25v16c0 .69.55 1.25 1.25 1.25h16c.69 0 1.25-.56 1.25-1.25V4c0-.7-.56-1.25-1.25-1.25h-2c-.42 0-.75-.34-.75-.75 0-.42.33-.75.75-.75h2c1.51 0 2.75 1.23 2.75 2.75v16c0 1.51-1.24 2.75-2.75 2.75H4c-1.52 0-2.75-1.24-2.75-2.75V4Z"/><path d="M7.88 16.27c-.49-.6-1.39-.62-1.9-.06l-3.44 3.77c-.28.3-.76.32-1.06.05 -.31-.28-.33-.76-.06-1.06l3.43-3.78c1.13-1.25 3.1-1.2 4.16.11l5.03 6.19c.26.32.21.79-.11 1.05 -.33.26-.8.21-1.06-.11l-5.04-6.2Z"/><path d="M17.29 18.85c-.47-.47-1.22-.5-1.71-.06l-2.6 2.26c-.32.27-.79.24-1.06-.08 -.28-.32-.25-.79.07-1.06l2.59-2.27c1.08-.96 2.73-.9 3.75.12l3.17 3.17c.29.29.29.76 0 1.06 -.3.29-.77.29-1.07 0l-3.18-3.18Z"/></g></svg>