<svg viewBox="0 0 24 24" xmlns="http://www.w3.org/2000/svg"><g fill-rule="evenodd"><path d="M8 14.75c-1.25 0-2.25 1-2.25 2.25 0 1.24 1 2.25 2.25 2.25 1.24 0 2.25-1.01 2.25-2.25 0-1.25-1.01-2.25-2.25-2.25ZM4.25 17c0-2.08 1.67-3.75 3.75-3.75 2.07 0 3.75 1.67 3.75 3.75 0 2.07-1.68 3.75-3.75 3.75 -2.08 0-3.75-1.68-3.75-3.75Z"/><path d="M11 2.75c.41 0 .75.33.75.75v13.75c0 .41-.34.75-.75.75 -.42 0-.75-.34-.75-.75V3.5c0-.42.33-.75.75-.75Z"/><path d="M10.25 3.64c0-.82.76-1.41 1.55-1.22l2.37.59c.4.1.64.5.54.9 -.11.4-.51.64-.91.54l-2.07-.52v2.45L18.23 8V5.54l-1.44-.36c-.41-.11-.65-.51-.55-.91 .1-.41.5-.65.9-.55l1.62.4c.55.13.94.63.94 1.21v2.96c0 .81-.77 1.4-1.56 1.21l-7-1.75c-.56-.14-.95-.64-.95-1.22V3.56Z"/></g></svg>