<svg viewBox="0 0 24 24" xmlns="http://www.w3.org/2000/svg"><g fill-rule="evenodd"><path d="M2.46 2.46c-.3.29-.3.76 0 1.06l18 18c.29.29.76.29 1.06 0 .29-.3.29-.77 0-1.07l-18-18c-.3-.3-.77-.3-1.07-.001Z"/><path d="M6 14.75c-1.25 0-2.25 1-2.25 2.25 0 1.24 1 2.25 2.25 2.25 1.24 0 2.25-1.01 2.25-2.25 0-1.25-1.01-2.25-2.25-2.25ZM2.25 17c0-2.08 1.67-3.75 3.75-3.75 2.07 0 3.75 1.67 3.75 3.75 0 2.07-1.68 3.75-3.75 3.75 -2.08 0-3.75-1.68-3.75-3.75Z"/><path d="M9 2.75c.41 0 .75.33.75.75v1.93c0 .41-.34.75-.75.75 -.42 0-.75-.34-.75-.75V3.49c0-.42.33-.75.75-.75Zm0 5.875c.41 0 .75.33.75.75v7.875c0 .41-.34.75-.75.75 -.42 0-.75-.34-.75-.75V9.375c0-.42.33-.75.75-.75Z"/><path d="M17.26 13.91c.06-.41.45-.69.86-.62 1.57.26 2.81 1.5 3.07 3.07 .06.4-.21.79-.62.86 -.41.06-.8-.21-.87-.62 -.16-.95-.91-1.69-1.843-1.85 -.41-.07-.69-.46-.62-.87Zm-1.72.68c.33.24.4.71.15 1.04 -.28.37-.45.83-.45 1.34 0 1.24 1 2.25 2.25 2.25 .51 0 .99-.18 1.37-.47 .32-.26.79-.2 1.05.13 .25.32.19.79-.14 1.05 -.64.49-1.44.78-2.3.78 -2.08 0-3.75-1.68-3.75-3.75 0-.84.27-1.62.74-2.24 .24-.34.71-.41 1.04-.16Z"/><path d="M20.5 4.75c.41 0 .75.33.75.75v10.75c0 .41-.34.75-.75.75 -.42 0-.75-.34-.75-.75V5.5c0-.42.33-.75.75-.75Z"/><path d="M9.75 3.89l5.12.89c.4.07.79-.21.86-.62 .07-.41-.21-.8-.62-.87l-5.42-.95c-.77-.14-1.47.45-1.47 1.23v.9c0 .41.33.75.75.75 .41 0 .75-.34.75-.75v-.61Zm8.51.71c.07-.41.45-.69.86-.62l1.08.18c.59.1 1.03.62 1.03 1.23v2.98c0 .77-.7 1.36-1.47 1.23l-8.92-1.56c-.41-.08-.69-.46-.62-.87 .07-.41.45-.69.86-.62l8.62 1.49V5.56l-.88-.16c-.41-.08-.69-.46-.62-.87Z"/></g></svg>