<svg viewBox="0 0 24 24" xmlns="http://www.w3.org/2000/svg"><g fill-rule="evenodd"><path d="M6.75 8.5c0-1.25 1-2.25 2.25-2.25 1.24 0 2.25 1 2.25 2.25v7c0 1.24-1.01 2.25-2.25 2.25 -1.25 0-2.25-1.01-2.25-2.25v-1.25c0-.42.33-.75.75-.75 .41 0 .75.33.75.75v1.25c0 .41.33.75.75.75 .41 0 .75-.34.75-.75v-7c0-.42-.34-.75-.75-.75 -.42 0-.75.33-.75.75V10c0 .41-.34.75-.75.75 -.42 0-.75-.34-.75-.75V8.5Z"/><path d="M12.75 8.5c0-1.25 1-2.25 2.25-2.25 1.24 0 2.25 1 2.25 2.25v7c0 1.24-1.01 2.25-2.25 2.25 -1.25 0-2.25-1.01-2.25-2.25v-7ZM15 7.75c-.42 0-.75.33-.75.75v7c0 .41.33.75.75.75 .41 0 .75-.34.75-.75v-7c0-.42-.34-.75-.75-.75Z"/></g></svg>