<svg viewBox="0 0 24 24" xmlns="http://www.w3.org/2000/svg"><g fill-rule="evenodd"><path d="M1.25 6.5c0-1.52 1.23-2.75 2.75-2.75h16c1.51 0 2.75 1.23 2.75 2.75v8c0 .41-.34.75-.75.75 -.42 0-.75-.34-.75-.75v-8c0-.7-.56-1.25-1.25-1.25H4c-.7 0-1.25.55-1.25 1.25V9c0 .41-.34.75-.75.75 -.42 0-.75-.34-.75-.75V6.5ZM22 17.75c.41 0 .75.33.75.75 0 1.51-1.24 2.75-2.75 2.75h-4.5c-.42 0-.75-.34-.75-.75 0-.42.33-.75.75-.75H20c.69 0 1.25-.56 1.25-1.25 0-.42.33-.75.75-.75Z"/><path d="M1.25 18c0-.42.33-.75.75-.75 2.62 0 4.75 2.12 4.75 4.75 0 .41-.34.75-.75.75 -.42 0-.75-.34-.75-.75 0-1.8-1.46-3.25-3.25-3.25 -.42 0-.75-.34-.75-.75Z"/><path d="M1.25 15c0-.42.33-.75.75-.75 4.28 0 7.75 3.46 7.75 7.75 0 .41-.34.75-.75.75 -.42 0-.75-.34-.75-.75 0-3.46-2.8-6.25-6.25-6.25 -.42 0-.75-.34-.75-.75Z"/><path d="M1.25 12c0-.42.33-.75.75-.75 5.93 0 10.75 4.81 10.75 10.75 0 .41-.34.75-.75.75 -.42 0-.75-.34-.75-.75 0-5.11-4.15-9.25-9.25-9.25 -.42 0-.75-.34-.75-.75Z"/></g></svg>