<svg viewBox="0 0 24 24" xmlns="http://www.w3.org/2000/svg"><g fill-rule="evenodd"><path d="M12 2.75c-5.11 0-9.25 4.14-9.25 9.25 0 5.1 4.14 9.25 9.25 9.25 1.68 0 3.26-.46 4.62-1.24 .35-.21.81-.09 1.02.27 .2.35.08.81-.28 1.02 -1.59.91-3.42 1.43-5.38 1.43 -5.94 0-10.75-4.82-10.75-10.75 0-5.94 4.81-10.75 10.75-10.75 5.93 0 10.75 4.81 10.75 10.75 0 1.95-.53 3.79-1.44 5.37 -.21.35-.67.48-1.03.27 -.36-.21-.49-.67-.28-1.03 .78-1.36 1.23-2.94 1.23-4.63 0-5.11-4.15-9.25-9.25-9.25Z"/><path d="M11.713 7.8c.28-.12.6-.06.81.16l3.5 3.5c.29.29.29.76 0 1.06l-3.5 3.5c-.22.21-.54.27-.82.16 -.29-.12-.47-.39-.47-.7v-7c0-.31.18-.58.46-.7Zm1.03 2.5v3.37l1.68-1.69 -1.69-1.69Z"/><path d="M9.5 7.75c.41 0 .75.33.75.75v7c0 .41-.34.75-.75.75 -.42 0-.75-.34-.75-.75v-7c0-.42.33-.75.75-.75Z"/></g></svg>