<svg viewBox="0 0 24 24" xmlns="http://www.w3.org/2000/svg"><g fill-rule="evenodd"><path d="M7.25 3.5c0-1.11.89-2 2-2h11c1.1 0 2 .89 2 2v8c0 1.1-.9 2-2 2h-7.5v-2h7.5v-8h-11v9c0 .55-.45 1-1 1 -.56 0-1-.45-1-1v-9Z"/><path d="M1.75 19.5c0-1.11.89-2 2-2h6c1.1 0 2 .89 2 2v1c0 1.1-.9 2-2 2h-6c-1.11 0-2-.9-2-2v-1Zm8 0h-6v1h6v-1Z"/><path d="M9.25 6.83c0-.4-.24-.76-.6-.92 -.37-.16-.79-.09-1.08.18L3.71 9.65c-.62.56-.97 1.36-.97 2.2v6.62c0 .55.44 1 1 1h5.5c.36 0 .69-.2.87-.52l4.17-7.52c.74-1.34-.23-2.98-1.75-2.98h-.89c-.54 0-1.04.21-1.42.58l-1 1V6.78Z"/><path d="M17.25 2.5c0-.56.44-1 1-1h3c.55 0 1 .44 1 1v3c0 .55-.45 1-1 1h-1c-1.66 0-3-1.35-3-3v-1Zm2 1c0 .55.44 1 1 1v-1h-1Z"/><path d="M17.25 12.5c0 .55.44 1 1 1h3c.55 0 1-.45 1-1v-3c0-.56-.45-1-1-1h-1c-1.66 0-3 1.34-3 3v1Zm2-1c0-.56.44-1 1-1v1h-1Z"/><path d="M12.25 2.5c0-.56-.45-1-1-1h-3c-.56 0-1 .44-1 1v3c0 .55.44 1 1 1h1c1.65 0 3-1.35 3-3v-1Zm-2 1c0 .55-.45 1-1 1v-1h1Z"/></g></svg>