<svg viewBox="0 0 24 24" xmlns="http://www.w3.org/2000/svg"><g fill-rule="evenodd"><path d="M1.25 10c0-1.11.89-2 2-2h16c1.1 0 2 .89 2 2v2.98h-2V9.99h-16v10h16V17h2v2.98c0 1.1-.9 2-2 2h-16c-1.11 0-2-.9-2-2v-10Z"/><path d="M21.75 12c.55 0 1 .44 1 1v4c0 .55-.45 1-1 1h-3.5c-1.66 0-3-1.35-3-3 0-1.66 1.34-3 3-3h3.5Z"/><path d="M13 9c0 .55-.45 1-1 1H6c-.56 0-1-.45-1-1V3c0-.56.44-1 1-1h6c.55 0 1 .44 1 1v6Z"/><path d="M19 9c0 .55-.45 1-1 1h-6c-.56 0-1-.45-1-1V4c0-.56.44-1 1-1h6c.55 0 1 .44 1 1v5Z"/></g></svg>