<svg viewBox="0 0 24 24" xmlns="http://www.w3.org/2000/svg"><path fill="#5E94FF" d="M12.4 7.86c-.25-.16-.56-.16-.81 0l-3.15 2c-.22.13-.35.37-.35.63v5c0 .96.78 1.75 1.75 1.75h4.28c.96 0 1.75-.79 1.75-1.75v-5c0-.26-.14-.5-.35-.64l-3.15-2Z"/><g fill="#4DC4FF" fill-rule="evenodd"><path d="M11.57 7.38c.25-.19.6-.19.86 0l5 3.5c.33.23.42.7.18 1.04 -.24.33-.71.42-1.05.18l-4.57-3.2 -4.57 3.19c-.34.23-.81.15-1.05-.19 -.24-.34-.16-.81.18-1.05l5-3.51Z"/><path fill="#CFD8DC" d="M12 2.75c-.32 0-.63.01-.93.04 -.42.04-.78-.27-.83-.68 -.05-.42.26-.78.67-.83 .35-.04.71-.06 1.07-.06 5.93 0 10.75 4.81 10.75 10.75 0 2.18-.66 4.21-1.78 5.913 -.23.34-.7.44-1.04.21 -.35-.23-.45-.7-.22-1.04 .96-1.46 1.52-3.21 1.52-5.087 0-5.11-4.15-9.25-9.25-9.25ZM4.06 5.87c.34.22.44.69.21 1.03 -.97 1.45-1.53 3.2-1.53 5.08 0 5.1 4.14 9.25 9.25 9.25 .31 0 .62-.02.92-.05 .41-.05.77.26.82.67 .04.41-.26.77-.68.82 -.36.03-.72.05-1.08.05 -5.94 0-10.75-4.82-10.75-10.75 0-2.19.65-4.22 1.771-5.92 .22-.35.69-.45 1.03-.22Z"/></g><g fill="#5E94FF"><path d="M5 2.25C3.48 2.25 2.25 3.48 2.25 5c0 1.51 1.23 2.75 2.75 2.75 1.51 0 2.75-1.24 2.75-2.75 0-1.52-1.24-2.75-2.75-2.75Z"/><path d="M19 16.25c-1.52 0-2.75 1.23-2.75 2.75 0 1.51 1.23 2.75 2.75 2.75 1.51 0 2.75-1.24 2.75-2.75 0-1.52-1.24-2.75-2.75-2.75Z"/></g></svg>