<svg viewBox="0 0 24 24" xmlns="http://www.w3.org/2000/svg"><path fill="#5E94FF" d="M12.43 1.38c-.27-.19-.62-.19-.88 0l-7.01 5c-.2.14-.32.36-.32.61v10c0 1.51 1.23 2.75 2.75 2.75h12c.41 0 .75-.34.75-.75v-12c0-.25-.12-.47-.32-.62l-7-5Z"/><path fill="#4DC4FF" fill-rule="evenodd" d="M11.57 1.38c.25-.19.6-.19.86 0l10 7c.33.23.42.7.18 1.04 -.24.33-.71.42-1.05.18l-9.57-6.7 -9.57 6.69c-.34.23-.81.15-1.05-.19 -.24-.34-.16-.81.18-1.05l10-7Z"/><path fill="#ECEFF1" d="M17 11.25c-3.18 0-5.75 2.57-5.75 5.75 0 3.17 2.57 5.75 5.75 5.75 3.17 0 5.75-2.58 5.75-5.75 0-3.18-2.58-5.75-5.75-5.75Z"/><g fill="#EE4D4D" fill-rule="evenodd"><path d="M14.7 19.29c-.3-.3-.3-.77 0-1.07l3.53-3.54c.29-.3.76-.3 1.06 0 .29.29.29.76 0 1.06l-3.54 3.53c-.3.29-.77.29-1.07 0Z"/><path d="M14.7 14.7c.29-.3.76-.3 1.06 0l3.53 3.53c.29.29.29.76 0 1.06 -.3.29-.77.29-1.07 0l-3.54-3.54c-.3-.3-.3-.77 0-1.07Z"/></g></svg>