<svg viewBox="0 0 24 24" xmlns="http://www.w3.org/2000/svg"><path fill="#5E94FF" d="M12.43 1.38c-.27-.19-.62-.19-.88 0l-7.01 5c-.2.14-.32.36-.32.61v10c0 1.51 1.23 2.75 2.75 2.75h12c.41 0 .75-.34.75-.75v-12c0-.25-.12-.47-.32-.62l-7-5Z"/><path fill="#4DC4FF" fill-rule="evenodd" d="M11.57 1.38c.25-.19.6-.19.86 0l10 7c.33.23.42.7.18 1.04 -.24.33-.71.42-1.05.18l-9.57-6.7 -9.57 6.69c-.34.23-.81.15-1.05-.19 -.24-.34-.16-.81.18-1.05l10-7Z"/><path fill="#ECEFF1" d="M21.8 18.38c.04-.05.08-.1.11-.15 1.19-1.46 1.1-3.59-.28-4.93 -1.27-1.23-3.19-1.4-4.64-.53 -1.46-.88-3.38-.7-4.64.52 -1.39 1.34-1.48 3.47-.28 4.92 .03.05.07.1.11.14l4.27 4.15c.29.28.75.28 1.04 0l4.27-4.15Z"/></svg>