<svg viewBox="0 0 24 24" xmlns="http://www.w3.org/2000/svg"><g fill="#CFD8DC" fill-rule="evenodd"><path d="M2.83 4.26c.4-.09.8.16.89.56l2 8.99c.08.4-.17.8-.57.89 -.41.08-.81-.17-.9-.57l-2-9c-.09-.41.16-.81.56-.9Z"/><path d="M21.16 4.26c-.41-.09-.81.16-.9.56l-2 8.99c-.09.4.16.8.56.89 .4.08.8-.17.89-.57l2-9c.08-.41-.17-.81-.57-.9Z"/><path d="M7.91 4.25c.41-.05.78.25.82.66l1 9c.04.41-.26.78-.67.82 -.42.04-.79-.26-.83-.67l-1-9c-.05-.42.25-.79.66-.83Z"/><path d="M16.08 4.25c.41.04.7.41.66.82l-1 8.99c-.05.41-.42.7-.83.66 -.42-.05-.71-.42-.67-.83l1-9.01c.04-.42.41-.71.82-.67Z"/></g><path fill="#5E94FF" d="M2 13.25c-.42 0-.75.33-.75.75v3c0 1.51 1.23 2.75 2.75 2.75h16c1.51 0 2.75-1.24 2.75-2.75v-3c0-.42-.34-.75-.75-.75H2Z"/><path fill="#ECEFF1" fill-rule="evenodd" d="M8 16.25c.41 0 .75.33.75.75v2.75h-1.5V17c0-.42.33-.75.75-.75Z"/></svg>