<svg viewBox="0 0 24 24" xmlns="http://www.w3.org/2000/svg"><g fill="#CFD8DC" fill-rule="evenodd"><path d="M22 6.25c.41 0 .75.33.75.75v9c0 .41-.34.75-.75.75h-2c-.42 0-.75-.34-.75-.75 0-.42.33-.75.75-.75h1.25V7c0-.42.33-.75.75-.75Z"/><path d="M17 3.25c.41 0 .75.33.75.75v9c0 .41-.34.75-.75.75 -.42 0-.75-.34-.75-.75V4c0-.42.33-.75.75-.75Z"/><path d="M7 3.25c.41 0 .75.33.75.75v9c0 .41-.34.75-.75.75 -.42 0-.75-.34-.75-.75V4c0-.42.33-.75.75-.75Z"/><path d="M2 6.25c-.42 0-.75.33-.75.75v9c0 .41.33.75.75.75h2c.41 0 .75-.34.75-.75 0-.42-.34-.75-.75-.75H2.75V7c0-.42-.34-.75-.75-.75Z"/><path d="M16 18.33c.41 0 .75.33.75.75v1.91c0 .41-.34.75-.75.75 -.42 0-.75-.34-.75-.75v-1.92c0-.42.33-.75.75-.75Z"/><path d="M8 18.33c.41 0 .75.33.75.75v1.91c0 .41-.34.75-.75.75 -.42 0-.75-.34-.75-.75v-1.92c0-.42.33-.75.75-.75Z"/></g><path fill="#5E94FF" d="M5.5 12.25c-.97 0-1.75.78-1.75 1.75v4c0 .96.78 1.75 1.75 1.75h13c.96 0 1.75-.79 1.75-1.75v-4c0-.97-.79-1.75-1.75-1.75h-13Z"/><path fill="#ECEFF1" fill-rule="evenodd" d="M13.75 16c0-.42.33-.75.75-.75h2c.41 0 .75.33.75.75 0 .41-.34.75-.75.75h-2c-.42 0-.75-.34-.75-.75Z"/></svg>