<svg viewBox="0 0 24 24" xmlns="http://www.w3.org/2000/svg"><path fill="#5E94FF" d="M12.4 3.36c-.25-.16-.57-.16-.82 0l-7 4.5c-.22.13-.35.37-.35.63v10c0 1.51 1.23 2.75 2.75 2.75h10c1.51 0 2.75-1.24 2.75-2.75v-10c0-.26-.13-.5-.35-.64l-7-4.5Z"/><g fill="#4DC4FF" fill-rule="evenodd"><path d="M11.57 2.88c.25-.19.6-.19.86 0l10 7c.33.23.42.7.18 1.04 -.24.33-.71.42-1.05.18l-9.57-6.7 -9.57 6.69c-.34.23-.81.15-1.05-.19 -.24-.34-.16-.81.18-1.05l10-7Z"/><g fill="#ECEFF1"><path d="M13.27 13.26c-.69-.69-1.8-.69-2.48 0 -.3.29-.77.29-1.07 0 -.3-.3-.3-.77 0-1.07 1.26-1.27 3.32-1.27 4.59 0 .29.29.29.76 0 1.06 -.3.29-.77.29-1.07 0Z"/><path d="M15.04 11.49c-1.66-1.66-4.36-1.66-6.02 0 -.3.29-.77.29-1.07 0 -.3-.3-.3-.77 0-1.07 2.24-2.25 5.88-2.25 8.13 0 .29.29.29.76 0 1.06 -.3.29-.77.29-1.07 0Z"/><path d="M12.03 13.75c.41 0 .75.33.75.75v1c0 .41-.34.75-.75.75 -.42 0-.75-.34-.75-.75v-1c0-.42.33-.75.75-.75Z"/></g></g></svg>