<svg viewBox="0 0 24 24" xmlns="http://www.w3.org/2000/svg"><g fill="#4DC4FF"><path d="M3.5 22.75c-.38 0-.69-.28-.75-.65l-.5-3.5c-.04-.22.03-.44.17-.6 .14-.17.34-.26.56-.26h9c.21 0 .42.09.56.25 .14.16.2.38.17.59l-.5 3.5c-.06.36-.37.64-.75.64h-8Z"/><path d="M3.5 1.25c-.38 0-.69.27-.75.64l-.5 3.5c-.04.21.03.43.17.59 .14.16.34.25.56.25h9c.21 0 .42-.1.56-.26 .14-.17.2-.39.17-.6l-.5-3.5c-.06-.37-.37-.65-.75-.65h-8Z"/></g><path fill="#ECEFF1" d="M4 4.75c-1.52 0-2.75 1.23-2.75 2.75v9c0 1.51 1.23 2.75 2.75 2.75h7c1.51 0 2.75-1.24 2.75-2.75v-9c0-1.52-1.24-2.75-2.75-2.75H4Z"/><g fill="#5E94FF" fill-rule="evenodd"><path d="M1.25 7.5c0-1.52 1.23-2.75 2.75-2.75h7c1.51 0 2.75 1.23 2.75 2.75v9c0 1.51-1.24 2.75-2.75 2.75H4c-1.52 0-2.75-1.24-2.75-2.75v-9ZM4 6.25c-.7 0-1.25.55-1.25 1.25v9c0 .69.55 1.25 1.25 1.25h7c.69 0 1.25-.56 1.25-1.25v-9c0-.7-.56-1.25-1.25-1.25H4Z"/><g fill="#4DC4FF"><path d="M19.77 5.76c-.69-.69-1.8-.69-2.48 0 -.3.29-.77.29-1.07 0 -.3-.3-.3-.77 0-1.07 1.26-1.27 3.32-1.27 4.59 0 .29.29.29.76 0 1.06 -.3.29-.77.29-1.07 0Z"/><path d="M21.54 3.99c-1.66-1.66-4.36-1.66-6.02 0 -.3.29-.77.29-1.07 0 -.3-.3-.3-.77 0-1.07 2.24-2.25 5.88-2.25 8.13 0 .29.29.29.76 0 1.06 -.3.29-.77.29-1.07 0Z"/><path d="M18.53 6.25c.41 0 .75.33.75.75v1c0 .41-.34.75-.75.75 -.42 0-.75-.34-.75-.75V7c0-.42.33-.75.75-.75Z"/></g></g></svg>