<svg viewBox="0 0 24 24" xmlns="http://www.w3.org/2000/svg"><g fill="#8B98A6"><path d="M6 10c-.97 0-1.75.78-1.75 1.75v1c0 .41.33.75.75.75h4c.41 0 .75-.34.75-.75v-1C9.75 10.78 8.96 10 8 10H6Z"/><path d="M17 10c-.97 0-1.75.78-1.75 1.75v1c0 .41.33.75.75.75h3c.41 0 .75-.34.75-.75v-1c0-.97-.79-1.75-1.75-1.75h-1Z"/></g><path fill="#CFD8DC" d="M3 12.25c-.97 0-1.75.78-1.75 1.75v7c0 .96.78 1.75 1.75 1.75h18c.96 0 1.75-.79 1.75-1.75v-7c0-.97-.79-1.75-1.75-1.75H3Z"/><g fill="#EE4D4D" fill-rule="evenodd"><path d="M5.5 16.25c-.14 0-.25.11-.25.25v2c0 .13.11.25.25.25H6c.13 0 .25-.12.25-.25v-2c0-.14-.12-.25-.25-.25h-.5Zm-1.75.25c0-.97.78-1.75 1.75-1.75H6c.96 0 1.75.78 1.75 1.75v2c0 .96-.79 1.75-1.75 1.75h-.5c-.97 0-1.75-.79-1.75-1.75v-2Z"/><path d="M18 16.25c-.14 0-.25.11-.25.25v2c0 .13.11.25.25.25h.5c.13 0 .25-.12.25-.25v-2c0-.14-.12-.25-.25-.25H18Zm-1.75.25c0-.97.78-1.75 1.75-1.75h.5c.96 0 1.75.78 1.75 1.75v2c0 .96-.79 1.75-1.75 1.75H18c-.97 0-1.75-.79-1.75-1.75v-2Z"/><path d="M12 18.25c.41 0 .75.33.75.75v.5c0 .41-.34.75-.75.75 -.42 0-.75-.34-.75-.75V19c0-.42.33-.75.75-.75Z"/><path d="M9.5 14.75c.41 0 .75.33.75.75v4c0 .41-.34.75-.75.75 -.42 0-.75-.34-.75-.75v-4c0-.42.33-.75.75-.75Z"/><path d="M14.5 14.75c.41 0 .75.33.75.75v4c0 .41-.34.75-.75.75 -.42 0-.75-.34-.75-.75v-4c0-.42.33-.75.75-.75Z"/><g fill="#4DC4FF"><path d="M19.77 5.76c-.69-.69-1.8-.69-2.48 0 -.3.29-.77.29-1.07 0 -.3-.3-.3-.77 0-1.07 1.26-1.27 3.32-1.27 4.59 0 .29.29.29.76 0 1.06 -.3.29-.77.29-1.07 0Z"/><path d="M21.54 3.99c-1.66-1.66-4.36-1.66-6.02 0 -.3.29-.77.29-1.07 0 -.3-.3-.3-.77 0-1.07 2.24-2.25 5.88-2.25 8.13 0 .29.29.29.76 0 1.06 -.3.29-.77.29-1.07 0Z"/><path d="M18.53 6.25c.41 0 .75.33.75.75v1c0 .41-.34.75-.75.75 -.42 0-.75-.34-.75-.75V7c0-.42.33-.75.75-.75Z"/></g></g></svg>