<svg viewBox="0 0 24 24" xmlns="http://www.w3.org/2000/svg"><path fill="#ECEFF1" d="M8 1.25C6.48 1.25 5.25 2.48 5.25 4v16c0 1.51 1.23 2.75 2.75 2.75h8c1.51 0 2.75-1.24 2.75-2.75V4c0-1.52-1.24-2.75-2.75-2.75H8Z"/><path fill="#4DC4FF" d="M8 1.25c-.25 0-.49.12-.63.32s-.17.46-.08.69l.74 1.87c.26.66.9 1.1 1.62 1.1h4.64c.71 0 1.35-.44 1.62-1.11l.74-1.88c.09-.24.06-.5-.08-.7 -.14-.21-.38-.33-.63-.33H7.93Z"/><path fill="#5E94FF" fill-rule="evenodd" d="M5.25 4c0-1.52 1.23-2.75 2.75-2.75h8c1.51 0 2.75 1.23 2.75 2.75v16c0 1.51-1.24 2.75-2.75 2.75H8c-1.52 0-2.75-1.24-2.75-2.75V4ZM8 2.75c-.7 0-1.25.55-1.25 1.25v16c0 .69.55 1.25 1.25 1.25h8c.69 0 1.25-.56 1.25-1.25V4c0-.7-.56-1.25-1.25-1.25H8Z"/></svg>