<svg viewBox="0 0 24 24" xmlns="http://www.w3.org/2000/svg"><path fill="#CFD8DC" fill-rule="evenodd" d="M7.61 13.62c.41 0 .75.33.75.75v4.62c0 .96-.79 1.75-1.75 1.75H4.96c-.42 0-.75-.34-.75-.75 0-.42.33-.75.75-.75H6.6c.13 0 .25-.12.25-.25v-4.62c0-.42.33-.75.75-.75Z"/><path fill="#CFD8DC" d="M12.32 11.82c-.38-.18-.82-.03-1 .35l-1.41 2.91c-.09.18-.1.38-.04.57 .06.18.2.34.38.42l3.27 1.52c.18.08.39.09.58.02 .18-.08.34-.22.42-.41l1.27-2.94c.16-.38-.01-.81-.37-.98l-3.15-1.5Z"/><path fill="#5E94FF" d="M6.06 5.74c-.88-.41-1.92-.03-2.33.84l-1.87 4c-.41.87-.03 1.91.84 2.32l6.48 3.02c.92.43 2.01-.02 2.37-.97l.56-1.49c.04-.13.19-.2.32-.15l3.96 1.49c.33.12.71-.01.9-.31l1.25-2.03c.11-.19.14-.41.08-.61 -.07-.21-.21-.38-.41-.47L6.01 5.69Z"/><g fill="#ECEFF1" fill-rule="evenodd"><path d="M5.32 9.11c.17-.38.62-.54.99-.37l2.91 1.35c.37.17.53.62.36.99 -.18.37-.63.53-1 .36l-2.92-1.36c-.38-.18-.54-.63-.37-1Z"/><path fill="#5E94FF" d="M2 17.23c-.42 0-.75.33-.75.75v4.01c0 .41.33.75.75.75h2.98c.41 0 .75-.34.75-.75v-4.02c0-.42-.34-.75-.75-.75H2Z"/><g fill="#4DC4FF"><path d="M19.77 5.76c-.69-.69-1.8-.69-2.48 0 -.3.29-.77.29-1.07 0 -.3-.3-.3-.77 0-1.07 1.26-1.27 3.32-1.27 4.59 0 .29.29.29.76 0 1.06 -.3.29-.77.29-1.07 0Z"/><path d="M21.54 3.99c-1.66-1.66-4.36-1.66-6.02 0 -.3.29-.77.29-1.07 0 -.3-.3-.3-.77 0-1.07 2.24-2.25 5.88-2.25 8.13 0 .29.29.29.76 0 1.06 -.3.29-.77.29-1.07 0Z"/><path d="M18.53 6.25c.41 0 .75.33.75.75v1c0 .41-.34.75-.75.75 -.42 0-.75-.34-.75-.75V7c0-.42.33-.75.75-.75Z"/></g></g></svg>