<svg viewBox="0 0 24 24" xmlns="http://www.w3.org/2000/svg"><path fill="#CFD8DC" d="M2 3.25c-.42 0-.75.33-.75.75v16c0 .41.33.75.75.75h10c.41 0 .75-.34.75-.75V4c0-.42-.34-.75-.75-.75H2Z"/><path fill="#ECEFF1" d="M5 7.25c-.42 0-.75.33-.75.75v8c0 .41.33.75.75.75h4c.41 0 .75-.34.75-.75V8c0-.42-.34-.75-.75-.75H5Z"/><g fill="#CFD8DC" fill-rule="evenodd"><path d="M4.25 11.25h5.5v1.5h-5.5v-1.5Z"/><g fill="#4DC4FF"><path d="M19.77 12.76c-.69-.69-1.8-.69-2.48 0 -.3.29-.77.29-1.07 0 -.3-.3-.3-.77 0-1.07 1.26-1.27 3.32-1.27 4.59 0 .29.29.29.76 0 1.06 -.3.29-.77.29-1.07 0Z"/><path d="M21.54 10.99c-1.66-1.66-4.36-1.66-6.02 0 -.3.29-.77.29-1.07 0 -.3-.3-.3-.77 0-1.07 2.24-2.25 5.88-2.25 8.13 0 .29.29.29.76 0 1.06 -.3.29-.77.29-1.07 0Z"/><path d="M18.53 13.25c.41 0 .75.33.75.75v1c0 .41-.34.75-.75.75 -.42 0-.75-.34-.75-.75v-1c0-.42.33-.75.75-.75Z"/></g></g></svg>