<svg viewBox="0 0 24 24" xmlns="http://www.w3.org/2000/svg"><path fill="#ECEFF1" d="M3.5 14.75c-.42 0-.75-.34-.75-.75V4c0-1.52 1.23-2.75 2.75-2.75H7c1.51 0 2.75 1.23 2.75 2.75v10c0 .41-.34.75-.75.75H3.5Z"/><g fill="#CFD8DC"><path d="M4.5 18.75c-.42 0-.75.33-.75.75V21c0 .96.78 1.75 1.75 1.75H7c.96 0 1.75-.79 1.75-1.75v-1.5c0-.42-.34-.75-.75-.75H4.5Z"/><path fill="#CFD8DC" fill-rule="evenodd" d="M6.25 5.25c.41 0 .75.33.75.75v8c0 .41-.34.75-.75.75 -.42 0-.75-.34-.75-.75V6c0-.42.33-.75.75-.75Z"/></g><g fill="#4DC4FF" fill-rule="evenodd"><path d="M17.77 5.76c-.69-.69-1.8-.69-2.48 0 -.3.29-.77.29-1.07 0 -.3-.3-.3-.77 0-1.07 1.26-1.27 3.327-1.27 4.59 0 .29.29.29.76 0 1.06 -.3.29-.77.29-1.07 0Z"/><path d="M19.54 3.99c-1.66-1.66-4.36-1.66-6.02 0 -.3.29-.77.29-1.07 0 -.3-.3-.3-.77 0-1.07 2.24-2.25 5.88-2.25 8.13 0 .29.29.29.76 0 1.06 -.3.29-.77.29-1.07 0Z"/><path d="M16.53 6.25c.41 0 .75.33.75.75v1c0 .41-.34.75-.75.75 -.42 0-.75-.34-.75-.75V7c0-.42.33-.75.75-.75Z"/></g><path fill="#5E94FF" d="M3 13.25c-.42 0-.75.33-.75.75v3.5c0 1.51 1.23 2.75 2.75 2.75h2.5c1.51 0 2.75-1.24 2.75-2.75V14c0-.42-.34-.75-.75-.75H3Z"/></svg>