<svg viewBox="0 0 24 24" xmlns="http://www.w3.org/2000/svg"><path fill="#CFD8DC" d="M3.68 10.19c-.22 0-.42.09-.56.24 -1.17 1.3-1.88 3.03-1.88 4.92 0 4.07 3.3 7.38 7.38 7.38 4.07 0 7.38-3.31 7.38-7.39 0-1.9-.72-3.62-1.88-4.93 -.15-.16-.35-.25-.56-.25H3.67Z"/><g fill="#5E94FF"><path d="M2 7.25c-.42 0-.75.33-.75.75v1.94c0 .96.78 1.75 1.75 1.75h11.26c.96 0 1.75-.79 1.75-1.76V7.98c0-.42-.34-.75-.75-.75H1.99Z"/><path fill="#5E94FF" fill-rule="evenodd" d="M11.592 22.13v-4.77c0-1.52-1.24-2.75-2.76-2.75H8.4c-1.52 0-2.75 1.23-2.75 2.75v4.76c.9.39 1.9.61 2.96.61 1.05 0 2.05-.23 2.96-.62Z"/></g><g fill="#4DC4FF" fill-rule="evenodd"><path d="M19.77 5.76c-.69-.69-1.8-.69-2.48 0 -.3.29-.77.29-1.07 0 -.3-.3-.3-.77 0-1.07 1.26-1.27 3.32-1.27 4.59 0 .29.29.29.76 0 1.06 -.3.29-.77.29-1.07 0Z"/><path d="M21.54 3.99c-1.66-1.66-4.36-1.66-6.02 0 -.3.29-.77.29-1.07 0 -.3-.3-.3-.77 0-1.07 2.24-2.25 5.88-2.25 8.13 0 .29.29.29.76 0 1.06 -.3.29-.77.29-1.07 0Z"/><path d="M18.53 6.25c.41 0 .75.33.75.75v1c0 .41-.34.75-.75.75 -.42 0-.75-.34-.75-.75V7c0-.42.33-.75.75-.75Z"/></g></svg>