<svg viewBox="0 0 24 24" xmlns="http://www.w3.org/2000/svg"><path fill="#ECEFF1" d="M2 3.25c-.42 0-.75.33-.75.75v13c0 .41.33.75.75.75h20c.41 0 .75-.34.75-.75V4c0-.42-.34-.75-.75-.75H2Z"/><g fill="#CFD8DC" fill-rule="evenodd"><path d="M7.41 16.376c.34.22.43.69.2 1.04l-2 3c-.23.34-.7.43-1.05.2 -.35-.23-.44-.7-.21-1.04l2-3c.22-.35.69-.44 1.04-.21Z"/><path d="M16.58 16.376c.34-.23.81-.14 1.04.2l2 3c.22.34.13.81-.21 1.04 -.35.22-.82.13-1.05-.21l-2-3c-.23-.35-.14-.82.2-1.04Z"/><path fill="#5E94FF" d="M1.25 4c0-.42.33-.75.75-.75h20c.41 0 .75.33.75.75v13c0 .41-.34.75-.75.75H2c-.42 0-.75-.34-.75-.75V4Zm1.5.75v11.5h18.5V4.75H2.75Z"/></g></svg>