<svg viewBox="0 0 24 24" xmlns="http://www.w3.org/2000/svg"><path fill="#5E94FF" d="M8 1.25C4.27 1.25 1.25 4.27 1.25 8v8c0 3.72 3.02 6.75 6.75 6.75h8c3.72 0 6.75-3.03 6.75-6.75V8c0-3.73-3.03-6.75-6.75-6.75H8Z"/><g fill="#ECEFF1" fill-rule="evenodd"><path d="M13.27 13.26c-.69-.69-1.8-.69-2.48 0 -.3.29-.77.29-1.07 0 -.3-.3-.3-.77 0-1.07 1.26-1.27 3.32-1.27 4.59 0 .29.29.29.76 0 1.06 -.3.29-.77.29-1.07 0Z"/><path d="M15.04 10.99c-1.66-1.66-4.36-1.66-6.02 0 -.3.29-.77.29-1.07 0 -.3-.3-.3-.77 0-1.07 2.24-2.25 5.88-2.25 8.13 0 .29.29.29.76 0 1.06 -.3.29-.77.29-1.07 0Z"/><path d="M12.03 14.25c.41 0 .75.33.75.75v1c0 .41-.34.75-.75.75 -.42 0-.75-.34-.75-.75v-1c0-.42.33-.75.75-.75Z"/></g></svg>