<svg viewBox="0 0 24 24" xmlns="http://www.w3.org/2000/svg"><g fill="#5E94FF"><path d="M3 8.75c-.42 0-.75.33-.75.75v4.1c0 .41.33.75.75.75 3.66 0 6.64 2.97 6.64 6.64 0 .41.33.75.75.75h4.1c.41 0 .75-.34.75-.75 0-3.02-1.63-6.08-3.9-8.36 -2.28-2.28-5.34-3.9-8.36-3.9Z"/><path d="M3 1.25c-.42 0-.75.33-.75.75v3.95c0 .41.33.75.75.75 3.64 0 7.22 1.71 9.89 4.39 2.67 2.67 4.39 6.25 4.39 9.89 0 .41.33.75.75.75h3.95c.41 0 .75-.34.75-.75 0-10.91-8.85-19.75-19.75-19.75Z"/></g><path fill="#4DC4FF" d="M4.5 16.25c-1.8 0-3.25 1.45-3.25 3.25 0 1.79 1.45 3.25 3.25 3.25 1.79 0 3.25-1.46 3.25-3.25 0-1.8-1.46-3.25-3.25-3.25Z"/></svg>