<svg viewBox="0 0 24 24" xmlns="http://www.w3.org/2000/svg"><g fill-rule="evenodd"><path d="M12 3c-4.98 0-9 4.02-9 9 0 4.97 4.02 9 9 9 4.97 0 9-4.03 9-9 0-4.98-4.03-9-9-9ZM1 12C1 5.92 5.92 1 12 1c6.07 0 11 4.92 11 11 0 6.07-4.93 11-11 11C5.92 23 1 18.07 1 12Z"/><path d="M12 6c.4 0 .77.24.92.62l2 4.99c.09.23.09.5 0 .74l-2 5c-.16.37-.52.62-.93.62 -.41 0-.78-.25-.93-.63l-2-5c-.1-.24-.1-.51 0-.75l1.99-5c.15-.38.51-.63.92-.63Zm-.923 6L12 14.3l.923-2.31L12 9.68l-.923 2.3Z"/><path d="M11 4V2h2v2h-2Z"/><path d="M4 13H2v-2h2v2Z"/><path d="M20 11h2v2h-2v-2Z"/><path d="M13 20v2h-2v-2h2Z"/></g></svg>