<svg viewBox="0 0 24 24" xmlns="http://www.w3.org/2000/svg"><g fill-rule="evenodd"><path d="M12 3C9.79 3 8 4.79 8 7c0 2.2 1.79 4 4 4 2.2 0 4-1.8 4-4 0-2.21-1.8-4-4-4ZM6 7c0-3.32 2.68-6 6-6 3.31 0 6 2.68 6 6 0 3.31-2.69 6-6 6 -3.32 0-6-2.69-6-6Z"/><path d="M11 7V4h2v2h2v2h-3c-.56 0-1-.45-1-1Z"/><path d="M1 15c0-.56.44-1 1-1h14.29c.68 0 1.34.23 1.87.65l3.88 3.11c.59.47.93 1.19.93 1.95v.77c0 1.38-1.12 2.5-2.5 2.5H1.97c-.56 0-1-.45-1-1v-7Zm2 1v5h17.5c.27 0 .5-.23.5-.5v-.78c0-.16-.07-.3-.19-.4l-3.89-3.12c-.18-.15-.4-.22-.63-.22H2.99Z"/><path d="M13.968 17l-2.21-2.65 -1.54 1.28 2.5 3c.19.22.47.35.76.35h7v-2h-6.54Z"/><path d="M8.13 17l-.97-1.45 1.66-1.11 2 3c.2.3.22.7.04 1.02 -.18.32-.52.52-.89.52h-8v-2H8.1Z"/></g></svg>