<svg viewBox="0 0 24 24" xmlns="http://www.w3.org/2000/svg"><g fill-rule="evenodd"><path d="M2.5 7V2h2v5c0 .55.44 1 1 1h3c.55 0 1-.45 1-1V2h2v5c0 1.65-1.35 3-3 3h-3c-1.66 0-3-1.35-3-3Z"/><path d="M17 3c-.92 0-1.69.68-1.79 1.59l-.36 3.184c-.14 1.18.79 2.22 1.98 2.22h.29c1.19 0 2.11-1.04 1.98-2.23l-.36-3.184c-.11-.91-.87-1.6-1.79-1.6Zm-3.77 1.37c.21-1.93 1.83-3.38 3.76-3.38 1.93 0 3.55 1.45 3.77 3.37l.35 3.18c.26 2.36-1.6 4.44-3.98 4.44h-.3c-2.39 0-4.24-2.08-3.98-4.45l.35-3.184Z"/><path d="M6 22V2h2v20H6Z"/><path d="M16 22V11h2v11h-2Z"/></g></svg>