<svg viewBox="0 0 24 24" xmlns="http://www.w3.org/2000/svg"><path fill-rule="evenodd" d="M15.87 3.87c1.32 1.49 2.12 3.46 2.12 5.62 0 4.69-3.81 8.5-8.5 8.5 -2.16 0-4.13-.81-5.63-2.13 1.44 3.03 4.54 5.12 8.12 5.12 4.97 0 9-4.03 9-9 0-3.59-2.1-6.69-5.13-8.13Zm-5.35-2.78c.48-.07.97-.1 1.47-.1 6.07 0 11 4.92 11 11 0 6.07-4.93 11-11 11 -6.08 0-11-4.93-11-11 0-.5.03-1 .09-1.48 .06-.5.48-.87.98-.87 .49-.01.92.35.99.84 .48 3.11 3.17 5.49 6.42 5.49 3.58 0 6.5-2.92 6.5-6.5 0-3.25-2.39-5.94-5.5-6.43 -.5-.08-.86-.51-.85-1 0-.5.37-.92.86-.99Z"/></svg>