<svg viewBox="0 0 24 24" xmlns="http://www.w3.org/2000/svg"><g fill-rule="evenodd"><path d="M12 3c-.24 0-.45.13-.56.34l-1.42 2.83 1.83 14.7c0 .06.06.11.13.11 .06 0 .12-.05.13-.12l1.83-14.71 -1.42-2.84c-.11-.21-.32-.35-.56-.35Zm-2.35-.56C10.09 1.55 11 .99 11.99.99c.99 0 1.89.56 2.34 1.44l1.55 3.1c.08.17.12.37.09.57l-1.88 15c-.14 1.06-1.05 1.86-2.12 1.86 -1.08 0-1.99-.81-2.12-1.87L7.97 6.08c-.03-.2 0-.4.09-.58l1.55-3.11Z"/><path d="M9.89 6.55c.24.49.04 1.09-.45 1.34l-6.45 3.22v1.38h6.5c.55 0 1 .44 1 1 0 .55-.45 1-1 1h-7.5c-.56 0-1-.45-1-1v-3c0-.38.21-.73.55-.9l7-3.5c.49-.25 1.09-.05 1.34.44Z"/><path d="M14.1 6.55c-.25.49-.05 1.09.44 1.34l6.44 3.22v1.38h-6.5c-.56 0-1 .44-1 1 0 .55.44 1 1 1h7.5c.55 0 1-.45 1-1v-3c0-.38-.22-.73-.56-.9l-7-3.5c-.5-.25-1.1-.05-1.35.44Z"/><path d="M11.47 18.78c.11.53-.23 1.07-.76 1.19l-3.72.82v.19h5c.55 0 1 .44 1 1 0 .55-.45 1-1 1h-6c-.56 0-1-.45-1-1v-2c0-.47.32-.88.78-.98l4.5-1c.53-.12 1.07.22 1.19.75Z"/><path d="M12.52 18.78c-.12.53.22 1.07.75 1.19l3.71.82v.19h-5c-.56 0-1 .44-1 1 0 .55.44 1 1 1h6c.55 0 1-.45 1-1v-2c0-.47-.33-.88-.79-.98l-4.5-1c-.54-.12-1.08.22-1.2.75Z"/></g></svg>