<svg viewBox="0 0 24 24" xmlns="http://www.w3.org/2000/svg"><g fill-rule="evenodd"><path d="M3.5 8c0-.56.44-1 1-1h10c.55 0 1 .44 1 1v14c0 .55-.45 1-1 1h-10c-.56 0-1-.45-1-1V8Zm2 1v12h8V9h-8Z"/><path d="M8.5 2c0-.56.44-1 1-1h10c.55 0 1 .44 1 1v14c0 .55-.45 1-1 1h-5v-2h4V3h-8v5h-2V2Z"/><path d="M9.15 1.05c.39-.15.83-.03 1.1.3l5 6c.24.29.3.71.13 1.06 -.17.35-.52.57-.91.57h-5c-.56 0-1-.45-1-1v-6c0-.43.26-.8.65-.95Zm1.34 3.7v2.23h1.86l-1.87-2.24Z"/><path d="M9.5 13c-.56 0-1 .44-1 1 0-.01 0 0 0 0s0 .01 0 .05c0 .03.01.08.03.15 .03.13.1.29.18.48 .16.37.39.8.63 1.22 .04.07.09.15.13.22 .04-.08.08-.16.13-.23 .24-.42.47-.85.63-1.23 .08-.19.14-.36.18-.49 .01-.07.03-.12.03-.16 0-.04 0-.06 0-.06s0-.01 0 0c0-.56-.45-1-1-1Zm0 5c-.83.56-.83.56-.83.56l-.01-.01 -.01-.01 -.02-.03c-.02-.03-.04-.06-.07-.1 -.06-.09-.14-.21-.24-.36 -.2-.3-.46-.71-.72-1.16 -.26-.45-.53-.95-.74-1.43 -.2-.44-.4-.99-.4-1.5 0-1.66 1.34-3 3-3 1.65 0 3 1.34 3 3 0 .5-.21 1.05-.4 1.49 -.21.47-.48.97-.74 1.42 -.27.44-.53.86-.72 1.15 -.1.14-.18.27-.24.35 -.03.04-.06.07-.07.09l-.02.02 -.01 0 -.01 0s-.01 0-.83-.57Zm0 0l.82.56c-.19.27-.5.43-.83.43 -.33 0-.64-.17-.83-.44l.82-.57Z"/></g></svg>