<svg viewBox="0 0 24 24" xmlns="http://www.w3.org/2000/svg"><g fill-rule="evenodd"><path d="M1 7c0-.56.44-1 1-1h14c.55 0 1 .44 1 1v15c0 .55-.45 1-1 1H2c-.56 0-1-.45-1-1V7Zm2 1v13h12V8H3Z"/><path d="M9 11c-1.94 0-3.5 1.56-3.5 3.5C5.5 16.43 7.06 18 9 18c1.93 0 3.5-1.57 3.5-3.5 0-1.94-1.57-3.5-3.5-3.5Zm-5.5 3.5C3.5 11.46 5.96 9 9 9c3.03 0 5.5 2.46 5.5 5.5 0 3.03-2.47 5.5-5.5 5.5 -3.04 0-5.5-2.47-5.5-5.5Z"/><path d="M8.87 12.02c-.22.58-.38 1.46-.38 2.47 0 1.01.15 1.89.37 2.47 .04.11.08.2.12.28 .03-.08.08-.18.12-.29 .21-.59.37-1.47.37-2.48 0-1.02-.16-1.9-.38-2.48 -.05-.12-.09-.21-.13-.29 -.04.07-.09.17-.13.28Zm-.08 5.52s0-.01 0-.01c-.01 0-.01 0-.01 0Zm.38-.01s0 0 0 0 -.01-.01-.01-.01Zm-.01-6.11c0-.01 0-.01 0-.01s-.01 0-.01 0ZM7.63 10.12c.28-.33.73-.66 1.33-.66 .59 0 1.04.32 1.33.65 .28.32.5.74.66 1.16 .32.86.5 1.98.5 3.17s-.18 2.31-.51 3.17c-.17.42-.38.84-.67 1.16 -.29.32-.74.65-1.34.65 -.6 0-1.05-.33-1.34-.66 -.29-.33-.51-.75-.67-1.17 -.33-.87-.51-1.99-.51-3.18 0-1.2.17-2.32.5-3.18 .16-.43.37-.85.66-1.17Zm1.13 1.298c-.01-.01-.01-.01-.01-.01s0 0 0 0Z"/><path d="M3.5 14.5c0-.56.44-1 1-1h9c.55 0 1 .44 1 1 0 .55-.45 1-1 1h-9c-.56 0-1-.45-1-1Z"/><path d="M7 2c0-.56.44-1 1-1h14c.55 0 1 .44 1 1v15c0 .45-.32.85-.76.97l-6 1.5 -.49-1.95 5.24-1.32V3.26L8.25 6.44c-.02 0-.03 0-.05.01L2.22 7.94l-.49-1.95 5.24-1.32V1.95Zm2 2.21l4.87-1.22H8.99V4.2Z"/></g></svg>