<svg viewBox="0 0 24 24" xmlns="http://www.w3.org/2000/svg"><g fill-rule="evenodd"><path d="M12 2.5c-5.25 0-9.5 4.25-9.5 9.5 0 5.24 4.25 9.5 9.5 9.5 5.24 0 9.5-4.26 9.5-9.5 0-5.25-4.26-9.5-9.5-9.5ZM1.5 12C1.5 6.2 6.2 1.5 12 1.5c5.79 0 10.5 4.7 10.5 10.5 0 5.79-4.71 10.5-10.5 10.5 -5.8 0-10.5-4.71-10.5-10.5Z"/><path d="M14.64 6.64c.19-.2.51-.2.7 0l2 2c.19.19.19.51 0 .7l-8.01 8c-.1.09-.23.14-.36.14h-2c-.28 0-.5-.23-.5-.5v-2c0-.14.05-.26.14-.36l7.99-8ZM7.49 15.2v1.29h1.29l7.5-7.5 -1.3-1.3 -7.5 7.49Z"/><path d="M13.35 8.64l2 1.99 -.71.7 -2-2.01 .7-.71Z"/></g></svg>