<svg viewBox="0 0 24 24" xmlns="http://www.w3.org/2000/svg"><g fill-rule="evenodd"><path d="M18.693 3.6c.08-.07.19-.11.3-.11h2c.27 0 .5.22.5.5v14c0 .27-.23.5-.5.5h-2c-.12 0-.22-.04-.31-.11l-4.37-3.4H5.98c-1.94 0-3.5-1.57-3.5-3.5v-1c0-1.94 1.56-3.5 3.5-3.5h8.32l4.36-3.4Zm.47.89l-4.37 3.39c-.09.06-.2.1-.31.1h-8.5c-1.39 0-2.5 1.11-2.5 2.5v1c0 1.38 1.11 2.5 2.5 2.5h8.5c.11 0 .21.03.3.1l4.36 3.39h1.32v-13h-1.33Z"/><path d="M5.6 14.19c.09-.13.24-.2.39-.2h4c.22 0 .42.15.48.36l.98 3.6c.34 1.27-.62 2.52-1.93 2.52h-.9c-.91 0-1.7-.61-1.93-1.48l-1.2-4.4c-.05-.16-.01-.32.08-.44Zm1.05.8l1.02 3.76c.11.43.51.73.96.73h.89c.65 0 1.13-.63.96-1.27l-.89-3.24H6.62Z"/></g></svg>