<svg viewBox="0 0 24 24" xmlns="http://www.w3.org/2000/svg"><g fill-rule="evenodd"><path d="M4.5 4.5C4.5 3.67 5.17 3 6 3h15c.82 0 1.5.67 1.5 1.5v15c0 .82-.68 1.5-1.5 1.5H6c-.83 0-1.5-.68-1.5-1.5v-15ZM6 4c-.28 0-.5.22-.5.5v15c0 .27.22.5.5.5h15c.27 0 .5-.23.5-.5v-15c0-.28-.23-.5-.5-.5H6Z"/><path d="M13 9c.17 0 .33.08.42.23l5 8c.09.15.1.34.01.5 -.09.15-.26.25-.44.25h-10c-.19 0-.35-.1-.44-.26 -.09-.16-.09-.36.01-.51l5-8c.09-.15.25-.24.42-.24Zm-4.1 8h8.19l-4.1-6.56 -4.1 6.55Z"/><path d="M2 7.5h3v1H2v-1Z"/><path d="M2 15.5h3v1H2v-1Z"/><path d="M17.5 7c-.56 0-1 .44-1 1 0 .55.44 1 1 1 .55 0 1-.45 1-1 0-.56-.45-1-1-1Zm-2 1c0-1.11.89-2 2-2 1.1 0 2 .89 2 2 0 1.1-.9 2-2 2 -1.11 0-2-.9-2-2Z"/></g></svg>