<svg viewBox="0 0 24 24" xmlns="http://www.w3.org/2000/svg"><g fill-rule="evenodd"><path d="M1.5 9c0-3.04 2.46-5.5 5.5-5.5 2.21 0 4.13 1.31 5 3.2 .86-1.9 2.78-3.21 5-3.21 3.03 0 5.5 2.46 5.5 5.5 0 1.5-.27 2.99-.8 4.38 -.53 1.39-1.3 2.65-2.27 3.72 -.98 1.06-2.13 1.92-3.41 2.5 -1.28.58-2.65.88-4.04.88 -1.39 0-2.76-.31-4.04-.89 -1.28-.59-2.44-1.44-3.41-2.51 -.98-1.07-1.75-2.34-2.27-3.73 -.53-1.4-.8-2.89-.8-4.39Zm10 0c0-2.49-2.02-4.5-4.5-4.5 -2.49 0-4.5 2.01-4.5 4.5 0 1.38.24 2.75.72 4.03 .48 1.27 1.18 2.43 2.06 3.4 .88.97 1.93 1.74 3.08 2.26 1.14.52 2.37.79 3.61.79 1.24 0 2.47-.27 3.61-.8 1.14-.53 2.19-1.3 3.08-2.27 .88-.98 1.58-2.14 2.06-3.41 .48-1.28.72-2.65.72-4.04 0-2.49-2.02-4.5-4.5-4.5 -2.49 0-4.5 2.01-4.5 4.5 0 .27-.23.5-.5.5 -.28 0-.5-.23-.5-.5Z"/><path d="M7.5 10c0 2.48 2.01 4.5 4.5 4.5 2.48 0 4.5-2.02 4.5-4.5h1c0 3.03-2.47 5.5-5.5 5.5 -3.04 0-5.5-2.47-5.5-5.5h1Z"/></g></svg>