<svg viewBox="0 0 24 24" xmlns="http://www.w3.org/2000/svg"><g fill-rule="evenodd"><path d="M1.5 3c0-.83.67-1.5 1.5-1.5h18c.82 0 1.5.67 1.5 1.5v18c0 .82-.68 1.5-1.5 1.5H3c-.83 0-1.5-.68-1.5-1.5V3ZM3 2.5c-.28 0-.5.22-.5.5v18c0 .27.22.5.5.5h18c.27 0 .5-.23.5-.5V3c0-.28-.23-.5-.5-.5H3Z"/><path d="M7 12c0-.28.22-.5.5-.5h9c.27 0 .5.22.5.5v2c0 1.93-1.57 3.5-3.5 3.5h-3C8.56 17.5 7 15.93 7 14v-2Zm1 .5V14c0 1.38 1.11 2.5 2.5 2.5h3c1.38 0 2.5-1.12 2.5-2.5v-1.5H8Z"/><path d="M7 12c0 .27.22.5.5.5h5c1.38 0 2.5-1.12 2.5-2.5 0-1.94-1.57-3.5-3.5-3.5h-1C8.56 6.5 7 8.06 7 10v2Zm1-.5V10c0-1.39 1.11-2.5 2.5-2.5h1c1.38 0 2.5 1.11 2.5 2.5 0 .82-.68 1.5-1.5 1.5H8Z"/></g></svg>