<svg viewBox="0 0 24 24" xmlns="http://www.w3.org/2000/svg"><g fill-rule="evenodd"><path d="M1.5 4c0-1.39 1.11-2.5 2.5-2.5h16c1.38 0 2.5 1.11 2.5 2.5v16c0 1.38-1.12 2.5-2.5 2.5H4c-1.39 0-2.5-1.12-2.5-2.5V4ZM4 2.5c-.83 0-1.5.67-1.5 1.5v16c0 .82.67 1.5 1.5 1.5h16c.82 0 1.5-.68 1.5-1.5V4c0-.83-.68-1.5-1.5-1.5H4Z"/><path d="M12.12 4.01c.22.05.37.25.37.48l-.01 5.49h4c.17 0 .33.09.42.24 .09.15.09.33.01.49l-4.51 8.5c-.11.2-.34.3-.57.25 -.23-.06-.38-.26-.38-.49l0-5.5h-4c-.18 0-.34-.1-.43-.25 -.1-.16-.1-.34-.02-.5l4.5-8.5c.1-.21.33-.31.56-.26Zm-3.8 8.48h3.66c.13 0 .25.05.35.14 .09.09.14.22.14.35l-.01 3.98 3.16-5.99h-3.67c-.14 0-.26-.06-.36-.15 -.1-.1-.15-.23-.15-.36l0-3.99 -3.17 5.98Z"/></g></svg>