<svg viewBox="0 0 24 24" xmlns="http://www.w3.org/2000/svg"><g fill-rule="evenodd"><path d="M5 3.5C5 2.67 5.67 2 6.5 2h14c.82 0 1.5.67 1.5 1.5v14c0 .82-.68 1.5-1.5 1.5h-14c-.83 0-1.5-.68-1.5-1.5v-14ZM6.5 3c-.28 0-.5.22-.5.5v14c0 .27.22.5.5.5h14c.27 0 .5-.23.5-.5v-14c0-.28-.23-.5-.5-.5h-14Z"/><path d="M3.5 5v15c0 .27.22.5.5.5h15v1H4c-.83 0-1.5-.68-1.5-1.5V5h1Z"/><path d="M10.76 6.55c.16-.09.36-.08.51.03l5 3.5c.13.09.21.24.21.4 0 .16-.08.31-.22.4l-5 3.5c-.16.1-.36.12-.52.03 -.17-.09-.27-.26-.27-.45v-7c0-.19.1-.36.26-.45Zm.73 1.4v5.07l3.62-2.54 -3.63-2.54Z"/></g></svg>