<svg viewBox="0 0 24 24" xmlns="http://www.w3.org/2000/svg"><g fill-rule="evenodd"><path d="M1.5 2c0-.28.22-.5.5-.5h14c.27 0 .5.22.5.5v20c0 .27-.23.5-.5.5H2c-.28 0-.5-.23-.5-.5V2Zm1 .5v19h13v-19h-13Z"/><path d="M9 7.5c-.83 0-1.5.67-1.5 1.5 0 .82.67 1.5 1.5 1.5 .82 0 1.5-.68 1.5-1.5 0-.83-.68-1.5-1.5-1.5ZM6.5 9c0-1.39 1.11-2.5 2.5-2.5 1.38 0 2.5 1.11 2.5 2.5 0 1.38-1.12 2.5-2.5 2.5 -1.39 0-2.5-1.12-2.5-2.5Z"/><path d="M5.53 16.5h6.92c-.25-1.7-1.71-3-3.47-3 -1.77 0-3.23 1.3-3.47 3Zm-1.04.5c0-2.49 2.01-4.5 4.5-4.5 2.48 0 4.5 2.01 4.5 4.5 0 .27-.23.5-.5.5h-8c-.28 0-.5-.23-.5-.5Z"/><path d="M18 2c0-.28.22-.5.5-.5H20c1.1 0 2 .89 2 2v2c0 1.1-.9 2-2 2h-1.5c-.28 0-.5-.23-.5-.5V2Zm1 .5v4h1c.55 0 1-.45 1-1v-2c0-.56-.45-1-1-1h-1Z"/><path d="M18 9.5c0-.28.22-.5.5-.5H20c1.1 0 2 .89 2 2v2c0 1.1-.9 2-2 2h-1.5c-.28 0-.5-.23-.5-.5v-5Zm1 .5v4h1c.55 0 1-.45 1-1v-2c0-.56-.45-1-1-1h-1Z"/><path d="M18 17c0-.28.22-.5.5-.5H20c1.1 0 2 .89 2 2v2c0 1.1-.9 2-2 2h-1.5c-.28 0-.5-.23-.5-.5v-5Zm1 .5v4h1c.55 0 1-.45 1-1v-2c0-.56-.45-1-1-1h-1Z"/></g></svg>