<svg viewBox="0 0 24 24" xmlns="http://www.w3.org/2000/svg"><path fill-rule="evenodd" d="M13.04 1.79c.08-.18.25-.3.45-.3h4.5c.27 0 .5.22.5.5v3.33c0 .07-.02.14-.05.2l-3.59 7.96h3.12c.27 0 .5.22.5.5v5c0 .27-.23.5-.5.5h-5.83l-1.22 2.7c-.09.17-.26.29-.46.29h-4.5c-.28 0-.5-.23-.5-.5v-3.34c0-.08.01-.15.04-.21l3.58-7.97H5.95c-.28 0-.5-.23-.5-.5v-5c0-.28.22-.5.5-.5h5.82l1.21-2.71Zm.77.7l-1.22 2.7c-.09.17-.26.29-.46.29H6.48v4h3.4c.16 0 .32.08.41.22 .09.14.1.32.03.47L6.46 18.73v2.72h3.67l1.21-2.71c.08-.18.25-.3.45-.3h5.65v-4h-3.4c-.17 0-.33-.09-.42-.23 -.1-.15-.11-.33-.04-.48l3.856-8.57V2.43h-3.68Z"/></svg>