<svg viewBox="0 0 24 24" xmlns="http://www.w3.org/2000/svg"><path fill-rule="evenodd" d="M4 2.5c-.83 0-1.5.67-1.5 1.5v16c0 .82.67 1.5 1.5 1.5h7.5V15h-2c-.28 0-.5-.23-.5-.5V11c0-.28.22-.5.5-.5h2V8c0-2.21 1.79-4 4-4H19c.27 0 .5.22.5.5V8c0 .27-.23.5-.5.5h-1.5c-.56 0-1 .44-1 1v1H19c.15 0 .3.07.39.19 .09.12.12.28.08.43l-1 3.5c-.07.21-.26.36-.49.36h-1.5v6.5h3.5c.82 0 1.5-.68 1.5-1.5v-16c0-.83-.68-1.5-1.5-1.5h-16ZM1.5 4c0-1.39 1.11-2.5 2.5-2.5h16c1.38 0 2.5 1.11 2.5 2.5v16c0 1.38-1.12 2.5-2.5 2.5h-4c-.28 0-.5-.23-.5-.5v-7.5c0-.28.22-.5.5-.5h1.62l.71-2.5h-2.34c-.28 0-.5-.23-.5-.5V9.5c0-1.11.89-2 2-2h1V5h-3c-1.66 0-3 1.34-3 3v3c0 .27-.23.5-.5.5h-2V14h2c.27 0 .5.22.5.5V22c0 .27-.23.5-.5.5h-8c-1.39 0-2.5-1.12-2.5-2.5V4Z"/></svg>