<svg viewBox="0 0 24 24" xmlns="http://www.w3.org/2000/svg"><g fill-rule="evenodd"><path d="M1.5 7.5C1.5 5.01 3.51 3 6 3c2.18 0 3.99 1.55 4.41 3.61 .51-.08 1.04-.12 1.58-.12s1.07.03 1.58.11c.41-2.06 2.23-3.62 4.41-3.62 2.48 0 4.5 2.01 4.5 4.5 0 1.5-.74 2.83-1.87 3.65 .55 1.016.86 2.15.86 3.34 0 4.49-4.35 8-9.5 8 -5.16 0-9.5-3.51-9.5-8 0-1.2.31-2.34.86-3.35 -1.14-.82-1.87-2.15-1.87-3.66ZM6 4C4.06 4 2.5 5.56 2.5 7.5c0 1.31.72 2.45 1.78 3.05 .11.06.2.18.24.31 .03.13.01.27-.07.39 -.62.97-.97 2.07-.97 3.24 0 3.78 3.71 7 8.5 7 4.78 0 8.5-3.22 8.5-7 0-1.17-.35-2.27-.97-3.25 -.08-.12-.1-.26-.07-.4s.12-.25.24-.32c1.06-.61 1.78-1.75 1.78-3.06 0-1.94-1.57-3.5-3.5-3.5 -1.85 0-3.36 1.42-3.49 3.22 -.02.14-.09.27-.2.35 -.12.08-.26.12-.4.09 -.62-.12-1.26-.18-1.92-.18 -.67 0-1.31.06-1.92.17 -.14.02-.29-.01-.4-.1 -.12-.09-.19-.22-.2-.36 -.14-1.81-1.65-3.23-3.49-3.23Z"/><path d="M18 6.5c-.56 0-1 .44-1 1 0 .55.44 1 1 1 .55 0 1-.45 1-1 0-.56-.45-1-1-1Zm-2 1c0-1.11.89-2 2-2 1.1 0 2 .89 2 2 0 1.1-.9 2-2 2 -1.11 0-2-.9-2-2Z"/><path d="M6 6.5c-.56 0-1 .44-1 1 0 .55.44 1 1 1 .55 0 1-.45 1-1 0-.56-.45-1-1-1Zm-2 1c0-1.11.89-2 2-2 1.1 0 2 .89 2 2 0 1.1-.9 2-2 2 -1.11 0-2-.9-2-2Z"/><path d="M9.77 15.98c.54.31 1.33.51 2.22.51 .89 0 1.68-.21 2.22-.52 .55-.32.77-.69.77-.99h1c0 .8-.57 1.44-1.28 1.84 -.73.41-1.69.65-2.73.65s-2.01-.24-2.73-.66c-.71-.41-1.28-1.04-1.28-1.85h1c0 .29.21.66.77.98Z"/></g></svg>