<svg viewBox="0 0 24 24" xmlns="http://www.w3.org/2000/svg"><g fill-rule="evenodd"><path d="M5.21 6.45c-1.72 1.2-2.72 2.81-2.72 4.54 0 2.07 1.44 3.99 3.84 5.21 .16.08.27.25.27.44 -.01.94-.23 1.86-.65 2.71l.48-.07c1.29-.17 2.48-.8 3.35-1.77 .1-.13.27-.19.43-.17 .56.07 1.15.11 1.75.11 2.67 0 5.06-.76 6.78-1.96 1.71-1.21 2.71-2.82 2.71-4.55s-1-3.34-2.72-4.55c-1.72-1.21-4.12-1.96-6.79-1.96 -2.68 0-5.07.75-6.79 1.95Zm-.58-.82c1.9-1.34 4.5-2.15 7.35-2.15 2.85 0 5.45.8 7.35 2.14 1.9 1.33 3.14 3.21 3.14 5.35 0 2.14-1.25 4.02-3.15 5.35 -1.91 1.33-4.51 2.14-7.36 2.14 -.56 0-1.1-.04-1.63-.09 -1.01 1.04-2.35 1.71-3.8 1.89l-1.52.18c-.2.02-.4-.08-.5-.25 -.11-.18-.09-.4.03-.56 .6-.81.94-1.76 1-2.75 -2.45-1.34-4.11-3.48-4.11-5.958 0-2.15 1.24-4.03 3.14-5.36Z"/><path d="M5.63 16.16l10.5-11.5 .73.67 -10.5 11.5 -.74-.68Z"/><path d="M3.31 7.61l6 5 -.65.76 -6-5 .64-.77Z"/><path d="M13.32 8.62l7 6 -.66.75 -7-6 .65-.76Z"/></g></svg>