<svg viewBox="0 0 24 24" xmlns="http://www.w3.org/2000/svg"><g fill-rule="evenodd"><path d="M1.5 7.73c0-1.86 1.95-3.07 3.61-2.24l2.1 1.05c.16.08.27.25.27.44v12.5c0 .27-.23.5-.5.5h-3c-1.39 0-2.5-1.12-2.5-2.5V7.71Zm3.17-1.35c-1-.5-2.18.22-2.18 1.34v9.76c0 .82.67 1.5 1.5 1.5h2.5V7.28l-1.83-.92Z"/><path d="M22.5 7.73c0-1.86-1.96-3.07-3.62-2.24l-2.11 1.05c-.17.08-.28.25-.28.44v12.5c0 .27.22.5.5.5h3c1.38 0 2.5-1.12 2.5-2.5V7.71Zm-3.18-1.35c.99-.5 2.17.22 2.17 1.34v9.76c0 .82-.68 1.5-1.5 1.5h-2.5V7.28l1.82-.92Z"/><path d="M4.67 6.39c-1-.5-2.18.22-2.18 1.34v1.45l9.5 4.75 9.5-4.76V7.71c0-1.12-1.18-1.85-2.18-1.35L12.2 9.91c-.15.07-.31.07-.45 0L4.64 6.35ZM1.49 7.73c0-1.86 1.95-3.07 3.61-2.24l6.88 3.44 6.88-3.45c1.66-.84 3.61.37 3.61 2.23v1.76c0 .18-.11.36-.28.44l-10 4.99c-.15.07-.31.07-.45 0l-10-5c-.17-.09-.28-.26-.28-.45V7.68Z"/></g></svg>