<svg viewBox="0 0 24 24" xmlns="http://www.w3.org/2000/svg"><g fill-rule="evenodd"><path d="M4.76 1.55c.16-.09.35-.08.51.02L8.02 3.4l1.05-.53c1.82-.92 3.98-.92 5.81 0l1.05.52 2.75-1.84c.15-.11.35-.12.51-.03 .16.08.26.25.26.44v20c0 .27-.23.5-.5.5h-2c-6.91 0-12.5-5.6-12.5-12.5v-8c0-.19.1-.36.26-.45Zm.73 1.37v7.06c0 6.35 5.14 11.5 11.5 11.5h1.5V2.91l-2.23 1.48c-.15.09-.35.11-.51.03l-1.32-.66c-1.55-.78-3.38-.78-4.92-.01l-1.32.65c-.17.08-.36.06-.51-.04L5.45 2.87Z"/><path d="M15 7.5c-.56 0-1 .44-1 1 0 .55.44 1 1 1 .55 0 1-.45 1-1 0-.56-.45-1-1-1Zm-2 1c0-1.11.89-2 2-2 1.1 0 2 .89 2 2 0 1.1-.9 2-2 2 -1.11 0-2-.9-2-2Z"/><path d="M11.6 12.31l-2.01-2.5 .78-.63 1.6 2.01 1.6-2.02 .78.62 -2 2.49c-.1.11-.24.18-.4.18 -.16 0-.3-.07-.4-.19Z"/><path d="M9 7.5c-.56 0-1 .44-1 1 0 .55.44 1 1 1 .55 0 1-.45 1-1 0-.56-.45-1-1-1Zm-2 1c0-1.11.89-2 2-2 1.1 0 2 .89 2 2 0 1.1-.9 2-2 2 -1.11 0-2-.9-2-2Z"/></g></svg>