<svg viewBox="0 0 24 24" xmlns="http://www.w3.org/2000/svg"><g fill-rule="evenodd"><path d="M12 2.5c-5.25 0-9.5 4.25-9.5 9.5 0 2.69 1.12 5.12 2.92 6.85l1.49-3.94c.44-1.16 1.54-1.93 2.78-1.93 1.98 0 3.41 1.89 2.86 3.8l-1.34 4.66c.24.01.5.02.75.02 5.24 0 9.5-4.26 9.5-9.5 0-5.25-4.26-9.5-9.5-9.5ZM1.5 12C1.5 6.2 6.2 1.5 12 1.5c5.79 0 10.5 4.7 10.5 10.5 0 5.79-4.71 10.5-10.5 10.5 -.5 0-.99-.04-1.48-.11 -.15-.03-.28-.11-.35-.23 -.08-.13-.11-.28-.07-.41l1.49-5.24c.36-1.27-.59-2.53-1.91-2.53 -.83 0-1.56.5-1.86 1.27l-1.76 4.61c-.06.15-.19.26-.34.3 -.16.04-.33 0-.45-.1 -2.33-1.93-3.82-4.84-3.82-8.1Z"/><path d="M15.28 6.77c-.55-1.09-1.98-1.59-3.2-1.07 -1.21.52-1.69 1.81-1.15 2.87 .06.12.07.26.02.39 -.05.12-.15.23-.28.28l-.95.4c.26.3.62.54 1.04.68 .6.2 1.26.17 1.84-.08l1.49-.65c1.2-.53 1.68-1.82 1.14-2.88Zm-3.59-1.98c1.66-.73 3.67-.07 4.48 1.52 .81 1.61.04 3.51-1.65 4.24l-1.5.64c-.81.34-1.73.38-2.57.1 -.84-.29-1.53-.87-1.92-1.64 -.07-.13-.08-.27-.03-.4 .04-.13.14-.24.27-.29l1.05-.46c-.46-1.5.32-3.1 1.84-3.75Z"/></g></svg>