<svg viewBox="0 0 24 24" xmlns="http://www.w3.org/2000/svg"><g fill-rule="evenodd"><path d="M1.5 6.5c0-2.77 2.23-5 5-5h11c2.76 0 5 2.23 5 5v11c0 2.76-2.24 5-5 5h-11c-2.77 0-5-2.24-5-5v-11Zm5-4c-2.21 0-4 1.79-4 4v11c0 2.2 1.79 4 4 4h11c2.2 0 4-1.8 4-4v-11c0-2.21-1.8-4-4-4h-11Z"/><path d="M9.26 10.55c.16-.09.36-.08.51.03l4.99 3.5c.13.09.21.24.21.4 0 .16-.08.31-.22.4l-5 3.5c-.16.1-.36.12-.52.03 -.17-.09-.27-.26-.27-.45v-7c0-.19.1-.36.26-.45Zm.73 1.4v5.07l3.62-2.54 -3.63-2.54Z"/><path d="M1.5 8c0-.28.22-.5.5-.5h20c.27 0 .5.22.5.5 0 .27-.23.5-.5.5H2c-.28 0-.5-.23-.5-.5Z"/><path d="M7.84 1.52c.26-.09.54.05.63.31l2 6c.08.26-.06.54-.32.63 -.27.08-.55-.06-.64-.32l-2-6c-.09-.27.05-.55.31-.64Z"/><path d="M13.842 1.52c.26-.09.54.05.63.31l2 6c.08.26-.06.54-.32.63 -.27.08-.55-.06-.64-.32l-2-6c-.09-.27.05-.55.31-.64Z"/></g></svg>