<svg viewBox="0 0 24 24" xmlns="http://www.w3.org/2000/svg"><g fill-rule="evenodd"><path d="M12.12 7.71c1.37-1.05 3.34-.95 4.59.3 1.36 1.36 1.36 3.58 0 4.94l-4.25 4.24c-.1.09-.23.14-.36.14 -.14 0-.26-.06-.36-.15l-4.25-4.25c-1.37-1.37-1.37-3.59 0-4.95 1.25-1.26 3.22-1.36 4.59-.31ZM16 8.72c-.98-.98-2.56-.98-3.54 0 -.2.19-.52.19-.71 0 -.98-.98-2.56-.98-3.54 0 -.98.97-.98 2.55 0 3.53l3.88 3.88 3.88-3.89c.97-.98.97-2.56 0-3.54Z"/><path d="M7.74 2.39c.52-.24 1.06-.43 1.63-.57l.24.96c-.51.13-1.01.3-1.48.51l-.41-.92ZM2.75 7c.55-1.03 1.26-1.95 2.11-2.73l.67.73c-.77.7-1.42 1.53-1.92 2.46l-.88-.48Zm-1.26 4.98c0-.59.04-1.17.14-1.73l.98.16c-.09.5-.13 1.02-.13 1.55s.04 1.05.12 1.55l-.99.16c-.1-.57-.15-1.14-.15-1.73Zm3.36 7.7c-.85-.79-1.56-1.71-2.12-2.73l.87-.48c.49.92 1.14 1.75 1.91 2.46l-.68.73Zm4.5 2.46c-.57-.15-1.11-.34-1.64-.57l.4-.92c.47.21.96.38 1.47.51l-.25.96Z"/><path d="M21.5 12c0-5.25-4.26-9.5-9.5-9.5v-1c5.79 0 10.5 4.7 10.5 10.5 0 5.79-4.71 10.5-10.5 10.5v-1c5.24 0 9.5-4.26 9.5-9.5Z"/></g></svg>