<svg viewBox="0 0 24 24" xmlns="http://www.w3.org/2000/svg"><g fill-rule="evenodd"><path d="M7 11c0-1.11.89-2 2-2 1.1 0 2 .89 2 2v4c0 1.1-.9 2-2 2 -1.11 0-2-.9-2-2v-4Zm2-1c-.56 0-1 .44-1 1v4c0 .55.44 1 1 1 .55 0 1-.45 1-1v-4c0-.56-.45-1-1-1Z"/><path d="M13 11c0-1.11.89-2 2-2 1.1 0 2 .89 2 2v4c0 1.1-.9 2-2 2 -1.11 0-2-.9-2-2v-4Zm2-1c-.56 0-1 .44-1 1v4c0 .55.44 1 1 1 .55 0 1-.45 1-1v-4c0-.56-.45-1-1-1Z"/><path d="M7 6c0-1.11.89-2 2-2 1.1 0 2 .89 2 2 0 1.1-.9 2-2 2 -1.11 0-2-.9-2-2Zm2-1c-.56 0-1 .44-1 1 0 .55.44 1 1 1 .55 0 1-.45 1-1 0-.56-.45-1-1-1Z"/><path d="M13 6c0-1.11.89-2 2-2 1.1 0 2 .89 2 2 0 1.1-.9 2-2 2 -1.11 0-2-.9-2-2Zm2-1c-.56 0-1 .44-1 1 0 .55.44 1 1 1 .55 0 1-.45 1-1 0-.56-.45-1-1-1Z"/><path d="M8 2.5c-2.21 0-4 1.79-4 4v8c0 2.2 1.79 4 4 4h5c.1 0 .21.03.3.1l3.2 2.4v-2.12c0-.24.16-.44.38-.49 1.78-.41 3.11-2 3.11-3.91v-8c0-2.21-1.8-4-4-4h-8Zm-5 4c0-2.77 2.23-5 5-5h8c2.76 0 5 2.23 5 5v8c0 2.23-1.48 4.13-3.5 4.77v2.72c0 .18-.11.36-.28.44 -.17.08-.38.06-.53-.05l-3.87-2.9H7.98c-2.77 0-5-2.24-5-5v-8Z"/></g></svg>