<svg viewBox="0 0 24 24" xmlns="http://www.w3.org/2000/svg"><g fill-rule="evenodd"><path d="M12 2.5c-5.25 0-9.5 4.25-9.5 9.5 0 5.24 4.25 9.5 9.5 9.5 5.24 0 9.5-4.26 9.5-9.5 0-5.25-4.26-9.5-9.5-9.5ZM1.5 12C1.5 6.2 6.2 1.5 12 1.5c5.79 0 10.5 4.7 10.5 10.5 0 5.79-4.71 10.5-10.5 10.5 -5.8 0-10.5-4.71-10.5-10.5Z"/><path d="M8.47 8.5c-1.09 0-1.98.88-1.98 1.97v3.02c0 1.1.89 2 2 2h1.5v1h-1.5c-1.66 0-3-1.35-3-3v-3.03c0-1.65 1.33-2.98 2.97-2.98 1.12 0 2.15.63 2.65 1.64l2.63 5.26c.33.66 1.01 1.09 1.76 1.09h.61c.74 0 1.35-.61 1.35-1.36 0-.52-.29-.99-.75-1.22l-1.96-.98c-.8-.4-1.31-1.22-1.31-2.11 0-1.31 1.05-2.36 2.35-2.36h2.14v1h-2.15c-.75 0-1.36.6-1.36 1.35 0 .51.28.98.74 1.21l1.95.97c.79.39 1.3 1.21 1.3 2.1 0 1.3-1.06 2.35-2.36 2.35h-.62c-1.13 0-2.16-.64-2.66-1.65L10.13 9.5c-.34-.67-1.02-1.1-1.77-1.1Z"/></g></svg>