<svg viewBox="0 0 24 24" xmlns="http://www.w3.org/2000/svg"><g fill-rule="evenodd"><path d="M11.67 1.61c.18-.16.45-.16.64 0l6 5c.11.09.17.23.17.38v10c0 .14-.07.28-.18.38l-6 5c-.19.15-.46.15-.65 0l-6-5c-.12-.1-.18-.24-.18-.39v-10c0-.15.06-.29.17-.39l5.99-5ZM6.49 7.22v9.53l5.5 4.58 5.5-4.59V7.2l-5.5-4.59 -5.5 4.58Z"/><path d="M11.66 5.63c.19-.18.48-.18.67 0l3 2.75c.1.09.16.22.16.36v6.5c0 .14-.06.27-.17.36l-3 2.75c-.2.17-.49.17-.68 0l-3-2.75c-.11-.1-.17-.23-.17-.37v-6.5c0-.15.05-.28.16-.37l2.99-2.75ZM9.49 8.96v6.06l2.5 2.29 2.5-2.3V8.94l-2.5-2.3 -2.5 2.29Z"/></g></svg>