<svg viewBox="0 0 24 24" xmlns="http://www.w3.org/2000/svg"><g fill-rule="evenodd"><path d="M4 2.5c-.83 0-1.5.67-1.5 1.5 0 .82.67 1.5 1.5 1.5 .82 0 1.5-.68 1.5-1.5 0-.83-.68-1.5-1.5-1.5ZM1.5 4c0-1.39 1.11-2.5 2.5-2.5 1.38 0 2.5 1.11 2.5 2.5 0 1.38-1.12 2.5-2.5 2.5 -1.39 0-2.5-1.12-2.5-2.5Z"/><path d="M1.5 9c0-.28.22-.5.5-.5h4c.27 0 .5.22.5.5v13c0 .27-.23.5-.5.5H2c-.28 0-.5-.23-.5-.5V9Zm1 .5v12h3v-12h-3Z"/><path d="M8.5 9c0-.28.22-.5.5-.5h4c.27 0 .49.22.5.49l0 1.43 1.19-1c.71-.61 1.62-.94 2.56-.94h.23c2.76 0 5 2.23 5 5v8.5c0 .27-.23.5-.5.5h-4c-.28 0-.5-.23-.5-.5v-6c0-1.11-.9-2-2-2 -1.11 0-2 .89-2 2v6c0 .27-.23.5-.5.5h-4c-.28 0-.5-.23-.5-.5v-13Zm1 .5v12h3V16c0-1.66 1.34-3 3-3 1.65 0 3 1.34 3 3v5.5h3v-8c0-2.21-1.8-4-4-4h-.24c-.71 0-1.39.24-1.93.69l-2.01 1.67c-.15.12-.36.15-.54.06 -.18-.09-.29-.26-.29-.46l-.02-2H9.46Z"/></g></svg>