<svg viewBox="0 0 24 24" xmlns="http://www.w3.org/2000/svg"><g fill-rule="evenodd"><path d="M12 10c-1.11 0-2 .89-2 2 0 1.1.89 2 2 2 1.1 0 2-.9 2-2 0-1.11-.9-2-2-2Zm-3 2c0-1.66 1.34-3 3-3 1.65 0 3 1.34 3 3 0 1.65-1.35 3-3 3 -1.66 0-3-1.35-3-3Z"/><path d="M8.46 8.34c-1.96 2.01-1.96 5.28 0 7.3l-.72.69c-2.34-2.41-2.34-6.3 0-8.7l.71.69Zm7.06 7.3c1.95-2.02 1.95-5.29 0-7.31l.71-.7c2.33 2.4 2.33 6.29 0 8.69l-.72-.7Z"/><path d="M6.34 6.35c-3.13 3.11-3.13 8.17 0 11.29l-.71.7c-3.52-3.51-3.52-9.2 0-12.71l.7.7Zm11.31 11.29c3.12-3.12 3.12-8.18 0-11.3l.7-.71c3.51 3.5 3.51 9.19 0 12.7l-.71-.71Z"/></g></svg>