<svg viewBox="0 0 24 24" xmlns="http://www.w3.org/2000/svg"><g fill-rule="evenodd"><path d="M12 3.5c-4.7 0-8.5 3.8-8.5 8.5 0 1.67.48 3.23 1.31 4.54 .08.12.09.28.05.42l-1.08 3.23 3.23-1.08c.14-.05.29-.03.42.05 1.31.83 2.87 1.31 4.54 1.31 4.69 0 8.5-3.81 8.5-8.5 0-4.7-3.81-8.5-8.5-8.5ZM2.5 12c0-5.25 4.25-9.5 9.49-9.5s9.5 4.25 9.5 9.5c0 5.24-4.26 9.5-9.5 9.5 -1.79 0-3.46-.5-4.88-1.35l-3.97 1.32c-.18.05-.38.01-.52-.13s-.19-.34-.13-.52l1.32-3.97c-.86-1.43-1.35-3.1-1.35-4.88Z"/><path d="M13.62 7.68c-.52.18-.79.76-.6 1.28 .18.51.76.78 1.28.59 .51-.19.78-.77.59-1.29 -.19-.52-.77-.79-1.29-.6ZM12.08 9.3c-.38-1.04.15-2.19 1.19-2.57 1.03-.38 2.18.15 2.56 1.19 .37 1.03-.16 2.18-1.2 2.56 -1.04.37-2.19-.16-2.57-1.2Z"/><path d="M7.98 9.73c-.52.18-.79.76-.6 1.28 .18.51.76.78 1.28.59 .51-.19.78-.77.59-1.29 -.19-.52-.77-.79-1.29-.6Zm-1.54 1.62c-.38-1.04.15-2.19 1.19-2.57 1.03-.38 2.18.15 2.56 1.19 .37 1.03-.16 2.18-1.2 2.56 -1.04.37-2.19-.16-2.57-1.2Z"/><path d="M10.69 16.03c.84.2 1.91.14 3-.25 1.08-.4 1.94-1.05 2.45-1.75 .51-.71.65-1.41.44-1.98l.93-.35c.35.98.06 2.03-.58 2.91 -.65.87-1.68 1.63-2.93 2.08 -1.25.45-2.53.53-3.58.27 -1.06-.26-1.96-.88-2.32-1.86l.93-.35c.2.57.76 1.02 1.61 1.22Z"/></g></svg>