<svg viewBox="0 0 24 24" xmlns="http://www.w3.org/2000/svg"><g fill-rule="evenodd"><path d="M4.7 9.55c-.73-1-.62-2.37.25-3.25l2.69-2.7c.64-.65 1.7-.58 2.25.15l1.81 2.37c.45.59.39 1.43-.14 1.97l-.1.09c-.52.51-.59 1.31-.18 1.9l.03.05c.66.97 1.5 1.81 2.48 2.48l.05.03c.59.4 1.39.33 1.9-.18l.09-.1c.53-.54 1.37-.59 1.97-.14l2.37 1.81c.72.55.79 1.61.15 2.25l-2.7 2.69c-.88.87-2.25.97-3.25.25l-4.31-3.14c-.89-.65-1.66-1.42-2.31-2.31L4.61 9.46Zm.95-2.54c-.53.52-.59 1.34-.16 1.94l3.13 4.3c.58.798 1.28 1.5 2.08 2.08l4.3 3.13c.59.43 1.42.37 1.94-.16l2.69-2.7c.21-.22.19-.57-.06-.76l-2.38-1.82c-.2-.16-.48-.14-.66.04l-.1.09c-.86.85-2.19.97-3.18.29l-.06-.04c-1.08-.74-2.02-1.67-2.75-2.75l-.04-.06c-.68-1-.56-2.33.29-3.18l.09-.1c.17-.18.19-.46.04-.66L9 4.27c-.19-.25-.54-.27-.76-.06L5.54 6.9Z"/><path d="M17.5 8.5v-5h1v5h-1Z"/><path d="M20.5 6.5h-5v-1h5v1Z"/></g></svg>