<svg viewBox="0 0 24 24" xmlns="http://www.w3.org/2000/svg"><g fill-rule="evenodd"><path d="M3 7c0-1.94 1.56-3.5 3.5-3.5h4C12.43 3.5 14 5.06 14 7v4c0 1.93-1.57 3.5-3.5 3.5h-4C4.56 14.5 3 12.93 3 11V7Zm3.5-2.5C5.11 4.5 4 5.61 4 7v4c0 1.38 1.11 2.5 2.5 2.5h4c1.38 0 2.5-1.12 2.5-2.5V7c0-1.39-1.12-2.5-2.5-2.5h-4Z"/><path d="M17.5 8H16V7h1.5c1.93 0 3.5 1.56 3.5 3.5v4c0 1.93-1.57 3.5-3.5 3.5H10v-1h7.5c1.38 0 2.5-1.12 2.5-2.5v-4C20 9.11 18.88 8 17.5 8Z"/><path d="M10.5 18.5l0-1.01 1 0 -.01 1c-.01 1.1-.9 1.99-2.01 1.99h-.51v-1h.5c.55 0 .99-.45 1-1Z"/></g></svg>