<svg viewBox="0 0 24 24" xmlns="http://www.w3.org/2000/svg"><g fill-rule="evenodd"><path d="M5.5 2.9c.04-.24.25-.41.49-.41h8.26c2.23 0 3.9 2.07 3.41 4.25l-.67 3c-.36 1.6-1.78 2.74-3.42 2.74H9.86L8.45 18.1c-.06.22-.26.37-.49.37h-5c-.15 0-.3-.07-.39-.19 -.1-.12-.14-.27-.11-.42l3-15Zm.9.59l-2.8 14h3.99l1.4-5.63c.05-.23.25-.38.48-.38h4.09c1.17 0 2.18-.82 2.44-1.96l.66-3c.34-1.57-.85-3.05-2.45-3.05H6.35Z"/><path d="M17.26 6.5h-.27v-1h.26c2.23 0 3.9 2.07 3.41 4.25l-.67 3c-.36 1.6-1.78 2.74-3.42 2.74h-3.71l-1.41 5.62c-.06.22-.26.37-.49.37h-5c-.15 0-.3-.07-.39-.19 -.1-.12-.14-.27-.11-.42l.6-3 .98.19 -.49 2.4h3.99l1.4-5.63c.05-.23.25-.38.48-.38h4.09c1.17 0 2.18-.82 2.44-1.96l.66-3c.34-1.57-.85-3.05-2.45-3.05Z"/></g></svg>