<svg viewBox="0 0 24 24" xmlns="http://www.w3.org/2000/svg"><g fill-rule="evenodd"><path d="M1.5 5.5c0-2.21 1.79-4 4-4H8v1H5.5c-1.66 0-3 1.34-3 3V8h-1V5.5Zm17-3H16v-1h2.5c2.2 0 4 1.79 4 4V8h-1V5.5c0-1.66-1.35-3-3-3ZM2.5 16v2.5c0 1.65 1.34 3 3 3H8v1H5.5c-2.21 0-4-1.8-4-4V16h1Zm19 2.5V16h1v2.5c0 2.2-1.8 4-4 4H16v-1h2.5c1.65 0 3-1.35 3-3Z"/><path d="M4 6.5C4 5.11 5.11 4 6.5 4h2C9.88 4 11 5.11 11 6.5v2C11 9.88 9.88 11 8.5 11h-2C5.11 11 4 9.88 4 8.5v-2ZM6.5 5C5.67 5 5 5.67 5 6.5v2c0 .82.67 1.5 1.5 1.5h2c.82 0 1.5-.68 1.5-1.5v-2C10 5.67 9.32 5 8.5 5h-2Z"/><path d="M4 15.5C4 14.11 5.11 13 6.5 13h2c1.38 0 2.5 1.11 2.5 2.5v2c0 1.38-1.12 2.5-2.5 2.5h-2C5.11 20 4 18.88 4 17.5v-2ZM6.5 14c-.83 0-1.5.67-1.5 1.5v2c0 .82.67 1.5 1.5 1.5h2c.82 0 1.5-.68 1.5-1.5v-2c0-.83-.68-1.5-1.5-1.5h-2Z"/><path d="M13 6.5C13 5.11 14.11 4 15.5 4h2C18.88 4 20 5.11 20 6.5v2c0 1.38-1.12 2.5-2.5 2.5h-2C14.11 11 13 9.88 13 8.5v-2ZM15.5 5c-.83 0-1.5.67-1.5 1.5v2c0 .82.67 1.5 1.5 1.5h2c.82 0 1.5-.68 1.5-1.5v-2c0-.83-.68-1.5-1.5-1.5h-2Z"/><path d="M13 15.5c0-1.39 1.11-2.5 2.5-2.5h2c1.38 0 2.5 1.11 2.5 2.5v2c0 1.38-1.12 2.5-2.5 2.5h-2c-1.39 0-2.5-1.12-2.5-2.5v-2Zm2.5-1.5c-.83 0-1.5.67-1.5 1.5v2c0 .82.67 1.5 1.5 1.5h2c.82 0 1.5-.68 1.5-1.5v-2c0-.83-.68-1.5-1.5-1.5h-2Z"/></g></svg>