<svg viewBox="0 0 24 24" xmlns="http://www.w3.org/2000/svg"><g fill-rule="evenodd"><path d="M12 2.5c-5.25 0-9.5 4.25-9.5 9.5 0 5.24 4.25 9.5 9.5 9.5 5.24 0 9.5-4.26 9.5-9.5 0-5.25-4.26-9.5-9.5-9.5ZM1.5 12C1.5 6.2 6.2 1.5 12 1.5c5.79 0 10.5 4.7 10.5 10.5 0 5.79-4.71 10.5-10.5 10.5 -5.8 0-10.5-4.71-10.5-10.5Z"/><path d="M7.5 6.5c0-.28.22-.5.5-.5h3c.27 0 .5.22.5.5v.31c.62-.53 1.41-.82 2.24-.82h2.25c.27 0 .5.22.5.5v3c0 .27-.23.5-.5.5h-1.76c-.67 0-1.3.26-1.77.73l-.98.97v5.79c0 .27-.23.5-.5.5h-3c-.28 0-.5-.23-.5-.5v-11Zm1 .5v10h2v-5.5c0-.14.05-.26.14-.36l1.12-1.13c.65-.66 1.54-1.03 2.47-1.03h1.25v-2h-1.76c-.67 0-1.3.26-1.77.73l-.63.62c-.15.14-.36.18-.55.1 -.19-.08-.31-.26-.31-.47v-1h-2Z"/></g></svg>