<svg viewBox="0 0 24 24" xmlns="http://www.w3.org/2000/svg"><g fill-rule="evenodd"><path d="M1.5 11c0-1.94 1.56-3.5 3.5-3.5 1.25 0 2.35.66 2.97 1.65 1.22-.43 2.58-.66 4.02-.66 1.43 0 2.8.23 4.02.65 .61-1 1.71-1.66 2.97-1.66 1.93 0 3.5 1.56 3.5 3.5 0 1.1-.52 2.08-1.31 2.72 .19.56.3 1.15.3 1.77 0 1.99-1.13 3.75-2.85 5 -1.73 1.24-4.08 1.99-6.66 1.99s-4.94-.76-6.66-2c-1.73-1.25-2.85-3.01-2.85-5.01 0-.62.1-1.21.3-1.78 -.8-.641-1.31-1.63-1.31-2.73ZM5 8.5c-1.39 0-2.5 1.11-2.5 2.5 0 .89.46 1.68 1.17 2.12 .21.13.29.39.19.62 -.25.55-.38 1.14-.38 1.75 0 1.59.89 3.08 2.42 4.19 1.53 1.1 3.67 1.8 6.07 1.8 2.39 0 4.53-.71 6.07-1.81 1.53-1.11 2.42-2.6 2.42-4.2 0-.61-.13-1.2-.38-1.76 -.1-.23-.02-.5.19-.63 .7-.45 1.17-1.23 1.17-2.13 0-1.39-1.12-2.5-2.5-2.5 -1.02 0-1.9.6-2.29 1.47 -.11.24-.39.35-.64.26 -1.21-.48-2.6-.74-4.09-.74 -1.49 0-2.88.26-4.09.73 -.25.09-.53-.02-.64-.27 -.4-.88-1.27-1.48-2.29-1.48Z"/><path d="M19 2.5c-.56 0-1 .44-1 1 0 .55.44 1 1 1 .55 0 1-.45 1-1 0-.56-.45-1-1-1Zm-2 1c0-1.11.89-2 2-2 1.1 0 2 .89 2 2 0 1.1-.9 2-2 2 -1.11 0-2-.9-2-2Z"/><path d="M16 12.5c-.56 0-1 .44-1 1 0 .55.44 1 1 1 .55 0 1-.45 1-1 0-.56-.45-1-1-1Zm-2 1c0-1.11.89-2 2-2 1.1 0 2 .89 2 2 0 1.1-.9 2-2 2 -1.11 0-2-.9-2-2Z"/><path d="M8 12.5c-.56 0-1 .44-1 1 0 .55.44 1 1 1 .55 0 1-.45 1-1 0-.56-.45-1-1-1Zm-2 1c0-1.11.89-2 2-2 1.1 0 2 .89 2 2 0 1.1-.9 2-2 2 -1.11 0-2-.9-2-2Z"/><path d="M13.25 1.56c.12-.07.27-.09.41-.03l4 1.5 -.36.93 -3.46-1.3 -1.38 6.43 -.98-.21 1.5-7c.03-.15.12-.27.24-.34Z"/><path d="M9.77 18.48c.54.31 1.33.51 2.22.51 .89 0 1.68-.21 2.22-.52 .55-.32.77-.69.77-.99h1c0 .8-.57 1.44-1.28 1.84 -.73.41-1.69.65-2.73.65s-2.01-.24-2.73-.66c-.71-.41-1.28-1.04-1.28-1.85h1c0 .29.21.66.77.98Z"/></g></svg>