<svg viewBox="0 0 24 24" xmlns="http://www.w3.org/2000/svg"><g fill-rule="evenodd"><path d="M4 3.5c-.83 0-1.5.67-1.5 1.5v10c0 .82.67 1.5 1.5 1.5h3c.27 0 .5.22.5.5v2.91l3.84-3.3c.09-.08.2-.13.32-.13h8.33c.82 0 1.5-.68 1.5-1.5v-10c0-.83-.68-1.5-1.5-1.5h-16ZM1.5 5c0-1.39 1.11-2.5 2.5-2.5h16c1.38 0 2.5 1.11 2.5 2.5v10c0 1.38-1.12 2.5-2.5 2.5h-8.15l-4.53 3.87c-.15.12-.36.15-.54.07 -.18-.09-.3-.26-.3-.46v-3.5h-2.5c-1.39 0-2.5-1.12-2.5-2.5v-10Z"/><path d="M4.5 6c0-.28.22-.5.5-.5h7c.27 0 .5.22.5.5v8c0 .27-.23.5-.5.5H5c-.28 0-.5-.23-.5-.5V6Zm1 .5v7h6v-7h-6Z"/><path d="M19.5 6.5h-5v-1h5v1Z"/><path d="M19.5 14.5h-5v-1h5v1Z"/><path d="M19.5 10.5h-5v-1h5v1Z"/></g></svg>