<svg viewBox="0 0 24 24" xmlns="http://www.w3.org/2000/svg"><g fill-rule="evenodd"><path d="M1.5 9c0-.83.67-1.5 1.5-1.5h18c.82 0 1.5.67 1.5 1.5v11c0 .82-.68 1.5-1.5 1.5H3c-.83 0-1.5-.68-1.5-1.5V9ZM3 8.5c-.28 0-.5.22-.5.5v11c0 .27.22.5.5.5h18c.27 0 .5-.23.5-.5V9c0-.28-.23-.5-.5-.5H3Z"/><path d="M9.76 10.55c.16-.09.36-.08.51.03l5 3.5c.13.09.21.24.21.4 0 .16-.08.31-.22.4l-5 3.5c-.16.1-.36.12-.52.03 -.17-.09-.27-.26-.27-.45v-7c0-.19.1-.36.26-.45Zm.73 1.4v5.07l3.62-2.54 -3.63-2.54Z"/><path d="M20 6H4V5h16v1Z"/><path d="M18 3.5H6v-1h12v1Z"/></g></svg>