<svg viewBox="0 0 24 24" xmlns="http://www.w3.org/2000/svg"><g fill-rule="evenodd"><path d="M4 2.5c-.83 0-1.5.67-1.5 1.5v16c0 .82.67 1.5 1.5 1.5h16c.82 0 1.5-.68 1.5-1.5v-6.61c-1.8 1-4.06 1.6-6.5 1.6 -1.11 0-2.18-.13-3.19-.35l-4.6 2.29c-.18.08-.39.06-.54-.06 -.16-.13-.22-.33-.18-.52l.91-3.68c-1.79-1.33-2.94-3.15-2.94-5.21 0-1.96 1.03-3.7 2.66-5H3.95Zm4.474 10.16c.07-.22-.01-.45-.19-.58 -1.76-1.21-2.79-2.85-2.79-4.59 0-1.99 1.33-3.84 3.55-5.07 .19-.12.29-.35.24-.57 -.06-.23-.26-.38-.49-.38h-4.82c-1.39 0-2.5 1.11-2.5 2.5v16c0 1.38 1.11 2.5 2.5 2.5h16c1.38 0 2.5-1.12 2.5-2.5v-7.51c0-.19-.11-.36-.27-.45 -.17-.09-.37-.08-.52.03 -1.72 1.17-4.09 1.91-6.72 1.91 -1.1 0-2.16-.13-3.13-.37 -.12-.03-.24-.02-.35.03L7.69 15.5l.72-2.901Z"/><path d="M11.05 4.21c-1 .74-1.56 1.73-1.56 2.78 0 1.04.56 2.03 1.55 2.78 .99.74 2.38 1.21 3.94 1.21 1.55 0 2.95-.48 3.94-1.22 .99-.75 1.55-1.74 1.55-2.79s-.57-2.04-1.56-2.79c-1-.75-2.39-1.22-3.95-1.22s-2.96.47-3.95 1.21Zm-.6-.8c1.18-.89 2.78-1.42 4.54-1.42 1.75 0 3.36.53 4.54 1.41 1.18.88 1.95 2.14 1.95 3.58 0 1.43-.78 2.69-1.96 3.58 -1.19.88-2.79 1.41-4.55 1.41 -1.76 0-3.37-.54-4.55-1.42C9.23 9.66 8.46 8.4 8.46 6.96c0-1.44.77-2.7 1.95-3.59Z"/></g></svg>