<svg viewBox="0 0 24 24" xmlns="http://www.w3.org/2000/svg"><g fill-rule="evenodd"><path d="M3.5 4c0-.56.44-1.01 1-1l15 .04c.55 0 .99.44.99 1v11.5c0 .55-.45 1-1 1h-4c-.14 0-.26.05-.36.14l-3.15 3.14 -3.15-3.15c-.1-.1-.23-.15-.36-.15h-4c-.56 0-1-.45-1-1V3.96Zm1-2c-1.11-.01-2.01.89-2.01 1.99v11.55c0 1.1.89 2 2 2h3.79l3.35 3.35c.19.19.51.19.7 0l3.35-3.36h3.79c1.1 0 2-.9 2-2V4.02c0-1.11-.9-2-2-2l-15-.05Z"/><path d="M9.5 9.5c0-1.11.89-2 2-2h1c1.1 0 2 .89 2 2v1c0 1.1-.9 2-2 2h-1c-1.11 0-2-.9-2-2v-1Zm2-1c-.56 0-1 .44-1 1v1c0 .55.44 1 1 1h1c.55 0 1-.45 1-1v-1c0-.56-.45-1-1-1h-1Z"/><path d="M6 10c0-3.04 2.46-5.5 5.5-5.5H14c2.2 0 4 1.79 4 4v1.75c0 1.24-1.01 2.25-2.25 2.25 -1.25 0-2.25-1.01-2.25-2.25V10h1v.25c0 .69.55 1.25 1.25 1.25 .69 0 1.25-.56 1.25-1.25V8.5c0-1.66-1.35-3-3-3h-2.5C9.01 5.5 7 7.51 7 10c0 2.48 2.01 4.5 4.5 4.5h2.31c.69 0 1.38-.17 2.01-.48l.94-.48 .44.89 -.95.47c-.77.38-1.61.58-2.46.58h-2.32c-3.04 0-5.5-2.47-5.5-5.5Z"/></g></svg>