<svg viewBox="0 0 24 24" xmlns="http://www.w3.org/2000/svg"><g fill-rule="evenodd"><path d="M10 3.5C8.06 3.5 6.5 5.06 6.5 7c0 1.93 1.56 3.5 3.5 3.5 1.93 0 3.5-1.57 3.5-3.5 0-1.94-1.57-3.5-3.5-3.5ZM5.5 7c0-2.49 2.01-4.5 4.5-4.5 2.48 0 4.5 2.01 4.5 4.5 0 2.48-2.02 4.5-4.5 4.5 -2.49 0-4.5-2.02-4.5-4.5Z"/><path d="M19 8.5c-1.39 0-2.5 1.11-2.5 2.5 0 1.38 1.11 2.5 2.5 2.5 1.38 0 2.5-1.12 2.5-2.5 0-1.39-1.12-2.5-2.5-2.5ZM15.5 11c0-1.94 1.56-3.5 3.5-3.5 1.93 0 3.5 1.56 3.5 3.5 0 1.93-1.57 3.5-3.5 3.5 -1.94 0-3.5-1.57-3.5-3.5Z"/><path d="M2.51 20.5h14.96c-.26-3.91-3.51-7-7.49-7 -3.98 0-7.23 3.09-7.49 7Zm-1.02.5c0-4.7 3.8-8.5 8.5-8.5 4.69 0 8.5 3.8 8.5 8.5 0 .27-.23.5-.5.5h-16c-.28 0-.5-.23-.5-.5Z"/><path d="M21.35 8.64c-.2-.2-.52-.2-.71 0l-4 3.99c-.2.19-.2.51 0 .7 .19.19.51.19.7 0l4-4.01c.19-.2.19-.52 0-.71Z"/></g></svg>