<svg viewBox="0 0 24 24" xmlns="http://www.w3.org/2000/svg"><g fill-rule="evenodd"><path d="M12 3.5c-4.7 0-8.5 3.8-8.5 8.5 0 1.67.48 3.23 1.31 4.54 .08.12.09.28.05.42l-1.08 3.23 3.23-1.08c.14-.05.29-.03.42.05 1.31.83 2.87 1.31 4.54 1.31 4.69 0 8.5-3.81 8.5-8.5 0-4.7-3.81-8.5-8.5-8.5ZM2.5 12c0-5.25 4.25-9.5 9.49-9.5s9.5 4.25 9.5 9.5c0 5.24-4.26 9.5-9.5 9.5 -1.79 0-3.46-.5-4.88-1.35l-3.97 1.32c-.18.05-.38.01-.52-.13s-.19-.34-.13-.52l1.32-3.97c-.86-1.43-1.35-3.1-1.35-4.88Z"/><path d="M9 7c0-.28.22-.5.5-.5H13c1.65 0 3 1.34 3 3 0 1.65-1.35 3-3 3H9.5c-.28 0-.5-.23-.5-.5V7Zm1 .5v4h3c1.1 0 2-.9 2-2 0-1.11-.9-2-2-2h-3Z"/><path d="M9 12c0-.28.22-.5.5-.5H13c1.65 0 3 1.34 3 3 0 1.65-1.35 3-3 3H9.5c-.28 0-.5-.23-.5-.5v-5Zm1 .5v4h3c1.1 0 2-.9 2-2 0-1.11-.9-2-2-2h-3Z"/></g></svg>