<svg viewBox="0 0 24 24" xmlns="http://www.w3.org/2000/svg"><g fill-rule="evenodd"><path d="M12 3.5c-4.7 0-8.5 3.8-8.5 8.5 0 1.67.48 3.23 1.31 4.54 .08.12.09.28.05.42l-1.08 3.23 3.23-1.08c.14-.05.29-.03.42.05 1.31.83 2.87 1.31 4.54 1.31 4.69 0 8.5-3.81 8.5-8.5 0-4.7-3.81-8.5-8.5-8.5ZM2.5 12c0-5.25 4.25-9.5 9.49-9.5s9.5 4.25 9.5 9.5c0 5.24-4.26 9.5-9.5 9.5 -1.79 0-3.46-.5-4.88-1.35l-3.97 1.32c-.18.05-.38.01-.52-.13s-.19-.34-.13-.52l1.32-3.97c-.86-1.43-1.35-3.1-1.35-4.88Z"/><path d="M9.5 11.5c0-1.11.89-2 2-2h1c1.1 0 2 .89 2 2v1c0 1.1-.9 2-2 2h-1c-1.11 0-2-.9-2-2v-1Zm2-1c-.56 0-1 .44-1 1v1c0 .55.44 1 1 1h1c.55 0 1-.45 1-1v-1c0-.56-.45-1-1-1h-1Z"/><path d="M6 12c0-3.04 2.46-5.5 5.5-5.5H14c2.2 0 4 1.79 4 4v1.75c0 1.24-1.01 2.25-2.25 2.25 -1.25 0-2.25-1.01-2.25-2.25V12h1v.25c0 .69.55 1.25 1.25 1.25 .69 0 1.25-.56 1.25-1.25V10.5c0-1.66-1.35-3-3-3h-2.5C9.01 7.5 7 9.51 7 12c0 2.48 2.01 4.5 4.5 4.5h2.31c.69 0 1.38-.17 2.01-.48l.94-.48 .44.89 -.95.47c-.77.38-1.61.58-2.46.58h-2.32c-3.04 0-5.5-2.47-5.5-5.5Z"/></g></svg>