<svg viewBox="0 0 24 24" xmlns="http://www.w3.org/2000/svg"><g fill-rule="evenodd"><path d="M16.02 1.83c.06-.21.25-.34.47-.34h4c.16 0 .31.07.4.2 .09.13.11.3.06.45l-4.43 12.77 4.36 6.79c.09.15.1.34.01.51 -.09.16-.26.26-.44.26h-4c-.18 0-.33-.09-.43-.23l-4.5-7c-.09-.13-.11-.29-.06-.44l4.5-13Zm.82.66l-4.31 12.434 4.221 6.56h2.81l-4.01-6.23c-.09-.13-.11-.29-.06-.44l4.27-12.34h-2.95Z"/><path d="M7.96 18.18c-.08.18-.26.31-.47.31h-4c-.17 0-.33-.09-.42-.22 -.1-.14-.12-.32-.06-.47l2.89-7.24 -2.84-3.78c-.12-.16-.14-.36-.05-.53 .08-.17.25-.28.44-.28h4c.15 0 .3.07.4.2l3 4c.1.13.12.32.06.48l-3 7.5Zm-.81-.69l2.76-6.93 -2.69-3.58H4.47l2.4 3.2c.1.13.12.32.06.48L4.2 17.47h2.92Z"/></g></svg>