<svg viewBox="0 0 24 24" xmlns="http://www.w3.org/2000/svg"><g fill-rule="evenodd"><path d="M5.25 4.56c.14-.09.33-.09.48-.01l6.26 3.37 6.26-3.38c.15-.09.33-.08.48 0l3.5 2c.15.08.25.25.25.43v7.5c0 .19-.12.37-.3.45l-10 4.5c-.14.05-.28.05-.42 0l-10-4.5c-.18-.09-.3-.26-.3-.46v-7.5c0-.18.09-.35.25-.44l3.5-2Zm.25 1L2.49 7.27v6.88l9.5 4.27 9.5-4.275V7.25l-3.01-1.72 -6.26 3.36c-.15.07-.33.07-.48 0L5.48 5.52Z"/><path d="M18 11V5h1v4.66l2.62-3 .75.65 -3.5 4c-.14.15-.36.21-.56.13 -.2-.08-.33-.26-.33-.47Z"/></g></svg>