<svg viewBox="0 0 24 24" xmlns="http://www.w3.org/2000/svg"><g fill-rule="evenodd"><path d="M1.5 5c0-1.94 1.56-3.5 3.5-3.5h14c1.93 0 3.5 1.56 3.5 3.5v14c0 1.93-1.57 3.5-3.5 3.5H5c-1.94 0-3.5-1.57-3.5-3.5V5ZM5 2.5C3.61 2.5 2.5 3.61 2.5 5v14c0 1.38 1.11 2.5 2.5 2.5h14c1.38 0 2.5-1.12 2.5-2.5V5c0-1.39-1.12-2.5-2.5-2.5H5Z"/><path d="M17.02 11.82c.25-.1.54.03.64.29 .24.67.35 1.39.32 2.12 -.04.72-.21 1.42-.51 2.08 -.31.65-.74 1.24-1.27 1.73 -.54.48-1.16.86-1.84 1.11 -.68.24-1.4.35-2.13.32 -.73-.04-1.43-.21-2.09-.52 -.66-.31-1.25-.74-1.74-1.27 -.49-.54-.87-1.16-1.12-1.84 -.1-.26.03-.55.29-.65l9.39-3.43Zm-8.56 4.17c.18.37.42.72.71 1.04 .39.43.88.78 1.41 1.03 .53.24 1.11.39 1.7.41 .59.02 1.18-.07 1.73-.27 .55-.21 1.06-.52 1.5-.92 .43-.4.78-.89 1.03-1.42 .24-.54.39-1.12.41-1.71 .01-.43-.03-.85-.13-1.26l-8.41 3.05Z"/></g></svg>