<svg viewBox="0 0 24 24" xmlns="http://www.w3.org/2000/svg"><g fill="#9545ED" fill-rule="evenodd"><path d="M17.86 12.97l3 4.5 -1.67 1.1 -3-4.5 1.66-1.11Z"/><path fill="#3747D6" d="M3.31 8.17l3.38 4.23c.09.07.2.11.32.11h14c0-.56-.45-1-1-1H7.63c-.31 0-.6-.15-.79-.39L4.67 8.34c-.34-.44-.95-.51-1.38-.2ZM1.77 6.85c1.27-1.28 3.37-1.15 4.48.27l1.86 2.39H20c1.65 0 3 1.34 3 2.99v1c0 .55-.45 1-1 1H7c-.67 0-1.3-.27-1.77-.74 -.03-.03-.06-.06-.08-.09l-4-5.01c-.32-.4-.29-.98.07-1.34l.52-.53Z"/><path d="M10.13 7.58c.16-.34.51-.56.89-.56h4v2h-3.39L6.9 18.46l-1.79-.9 4.99-10Z"/></g></svg>