<svg viewBox="0 0 24 24" xmlns="http://www.w3.org/2000/svg"><g fill="#3747D6" fill-rule="evenodd"><path d="M1 6c0-.56.44-1 1-1h15c.55 0 1 .44 1 1v4c0 .55-.45 1-1 1H2c-.56 0-1-.45-1-1V6Zm2 1v2h13V7H3Z"/><g fill="#9545ED"><path d="M22 9h-5V7h5v2Z"/><path d="M7.5 4.5h-3v-2h3v2Z"/><path d="M7.5 13.5h-3v-2h3v2Z"/><path d="M22 17h-5v-2h5v2Z"/><path d="M22 21h-5v-2h5v2Z"/><path d="M22 13h-5v-2h5v2Z"/></g><path d="M1 15c0-.56.44-1 1-1h15c.55 0 1 .44 1 1v4c0 .55-.45 1-1 1H2c-.56 0-1-.45-1-1v-4Zm2 1v2h13v-2H3Z"/><path d="M3 3v18H1V3h2Z"/><g fill="#9545ED"><path d="M18 5v16h-2V5h2Z"/><path d="M23 5v16h-2V5h2Z"/></g></g></svg>