<svg viewBox="0 0 24 24" xmlns="http://www.w3.org/2000/svg"><g fill-rule="evenodd"><path d="M6.23 17.78c.39.13.6.55.47.94l-1 3c-.14.39-.56.6-.95.47 -.4-.14-.61-.56-.48-.95l1-3c.13-.4.55-.61.94-.48Z"/><path d="M1.25 12c0-1.8 1.45-3.25 3.25-3.25 1.79 0 3.25 1.45 3.25 3.25v2.25h8.5V12c0-1.8 1.45-3.25 3.25-3.25 1.79 0 3.25 1.45 3.25 3.25 0 1.35-.83 2.51-2 3v1.49c0 1.51-1.24 2.75-2.75 2.75H6c-1.52 0-2.75-1.24-2.75-2.75v-1.5c-1.18-.49-2-1.65-2-3.01Zm3.25-1.75c-.97 0-1.75.78-1.75 1.75 0 .84.6 1.55 1.39 1.71 .34.07.6.37.6.73v2.05c0 .69.55 1.25 1.25 1.25h12c.69 0 1.25-.56 1.25-1.25v-2.05c0-.36.25-.67.6-.74 .79-.17 1.39-.87 1.39-1.72 0-.97-.79-1.75-1.75-1.75 -.97 0-1.75.78-1.75 1.75v3c0 .41-.34.75-.75.75h-10c-.42 0-.75-.34-.75-.75v-3c0-.97-.79-1.75-1.75-1.75Z"/><path d="M8.5 3.25c-1.8 0-3.25 1.45-3.25 3.25v3c0 .41-.34.75-.75.75 -.42 0-.75-.34-.75-.75v-3c0-2.63 2.12-4.75 4.75-4.75H14c.41 0 .75.33.75.75 0 .41-.34.75-.75.75H8.5Zm8.91-.35c.25-.33.73-.38 1.05-.12 1.08.86 1.78 2.2 1.78 3.7v3c0 .41-.34.75-.75.75 -.42 0-.75-.34-.75-.75v-3c0-1.03-.48-1.95-1.22-2.54 -.33-.26-.38-.74-.12-1.06Z"/><path d="M17.76 17.78c-.4.13-.61.55-.48.94l1 3c.13.39.55.6.94.47 .39-.14.6-.56.47-.95l-1-3c-.14-.4-.56-.61-.95-.48Z"/></g></svg>