<svg viewBox="0 0 24 24" xmlns="http://www.w3.org/2000/svg"><g fill-rule="evenodd"><path d="M14.5 9.25c.41 0 .75.33.75.75v3c0 .41-.34.75-.75.75 -.42 0-.75-.34-.75-.75v-3c0-.42.33-.75.75-.75Z"/><path d="M3.25 2c0-.42.33-.75.75-.75h8c.41 0 .75.33.75.75v20c0 .41-.34.75-.75.75H4c-.42 0-.75-.34-.75-.75V2Zm1.5.75v18.5h6.5V2.75h-6.5Z"/><path d="M11.25 2c0-.42.33-.75.75-.75h8c.41 0 .75.33.75.75v13.5c0 .41-.34.75-.75.75 -.42 0-.75-.34-.75-.75V2.75h-6.5v18.5h6.5V19.5c0-.42.33-.75.75-.75 .41 0 .75.33.75.75V22c0 .41-.34.75-.75.75h-8c-.42 0-.75-.34-.75-.75V2Z"/><path d="M9.5 9.25c.41 0 .75.33.75.75v3c0 .41-.34.75-.75.75 -.42 0-.75-.34-.75-.75v-3c0-.42.33-.75.75-.75Z"/><path d="M1.25 2c0-.42.33-.75.75-.75h20c.41 0 .75.33.75.75 0 .41-.34.75-.75.75H2c-.42 0-.75-.34-.75-.75Z"/><path d="M1.25 22c0-.42.33-.75.75-.75h20c.41 0 .75.33.75.75 0 .41-.34.75-.75.75H2c-.42 0-.75-.34-.75-.75Z"/></g></svg>