<svg viewBox="0 0 24 24" xmlns="http://www.w3.org/2000/svg"><g fill-rule="evenodd"><path d="M6.06 9.81l11.87-.01c.59 0 1.16.23 1.59.65l1.93 1.93c.87.87.87 2.3 0 3.18 -.88.87-2.31.87-3.19 0l-1.29-1.29H6.95l-1.29 1.28c-.88.87-2.31.87-3.19 0 -.88-.88-.88-2.31 0-3.19l1.93-1.94c.42-.43.99-.66 1.59-.66Zm11.87 1.5H6.05c-.2 0-.39.07-.54.21l-1.94 1.93c-.3.29-.3.76 0 1.06 .29.29.76.29 1.06 0l1.5-1.5c.14-.15.33-.22.53-.22h10.636c.19 0 .38.07.53.21l1.5 1.5c.29.29.76.29 1.06 0 .29-.3.29-.77 0-1.07l-1.94-1.94c-.15-.15-.34-.22-.54-.22Z"/><path d="M5 14.75c.41 0 .75.33.75.75v2c0 .41.33.75.75.75H7c.13 0 .25-.12.25-.25 0-.97.78-1.75 1.75-1.75h6c.96 0 1.75.78 1.75 1.75 0 .13.11.25.25.25h.5c.41 0 .75-.34.75-.75v-2c0-.42.33-.75.75-.75 .41 0 .75.33.75.75v2c0 1.24-1.01 2.25-2.25 2.25H17c-.97 0-1.75-.79-1.75-1.75 0-.14-.12-.25-.25-.25H9c-.14 0-.25.11-.25.25 0 .96-.79 1.75-1.75 1.75h-.5c-1.25 0-2.25-1.01-2.25-2.25v-2c0-.42.33-.75.75-.75Z"/><path d="M7.5 5.75c-.7 0-1.25.55-1.25 1.25v3.5c0 .41-.34.75-.75.75 -.42 0-.75-.34-.75-.75V7c0-1.52 1.23-2.75 2.75-2.75H12c.41 0 .75.33.75.75 0 .41-.34.75-.75.75H7.5ZM15.25 5c0-.42.33-.75.75-.75h.5c1.51 0 2.75 1.23 2.75 2.75v3.5c0 .41-.34.75-.75.75 -.42 0-.75-.34-.75-.75V7c0-.7-.56-1.25-1.25-1.25H16c-.42 0-.75-.34-.75-.75Z"/></g></svg>