<svg viewBox="0 0 24 24" xmlns="http://www.w3.org/2000/svg"><g fill-rule="evenodd"><path d="M2.25 8.5c0-.42.33-.75.75-.75h18c.41 0 .75.33.75.75V11c0 .41-.34.75-.75.75H3c-.42 0-.75-.34-.75-.75V8.5Zm1.5.75v1h16.5v-1H3.75Z"/><path d="M2.25 3.5c0-.42.33-.75.75-.75h18c.41 0 .75.33.75.75V6c0 .41-.34.75-.75.75H3c-.42 0-.75-.34-.75-.75V3.5Zm1.5.75v1h16.5v-1H3.75Z"/><path d="M2.82 13.66c.12-.26.38-.42.67-.42h17c.28 0 .54.16.67.41l1.5 3c.11.23.1.5-.04.72 -.14.22-.38.35-.64.35h-4c-.42 0-.75-.34-.75-.75 0-.42.33-.75.75-.75h2.78l-.75-1.5H3.93l-.75 1.5h10.78c.41 0 .75.33.75.75 0 .41-.34.75-.75.75h-12c-.26 0-.51-.14-.64-.36 -.14-.23-.15-.5-.04-.73l1.5-3Z"/><path d="M19 1.25c.41 0 .75.33.75.75v12c0 .41-.34.75-.75.75 -.42 0-.75-.34-.75-.75V2c0-.42.33-.75.75-.75Z"/><path d="M21 16.25c.41 0 .75.33.75.75v5c0 .41-.34.75-.75.75 -.42 0-.75-.34-.75-.75v-5c0-.42.33-.75.75-.75Z"/><path d="M5 1.25c.41 0 .75.33.75.75v12c0 .41-.34.75-.75.75 -.42 0-.75-.34-.75-.75V2c0-.42.33-.75.75-.75Z"/><path d="M3 16.25c.41 0 .75.33.75.75v5c0 .41-.34.75-.75.75 -.42 0-.75-.34-.75-.75v-5c0-.42.33-.75.75-.75Z"/></g></svg>