<svg viewBox="0 0 24 24" xmlns="http://www.w3.org/2000/svg"><g fill-rule="evenodd"><path d="M7.36 5.18c-.12-.4-.54-.63-.94-.51 -.4.11-.63.53-.51.93l.31 1.06c.11.39-.11.81-.51.93 -.4.11-.82-.11-.94-.51l-.32-1.07c-.36-1.2.31-2.45 1.5-2.81 1.19-.36 2.44.31 2.8 1.5l2.08 6.95h4.82c1.24 0 2.25 1 2.25 2.25 0 1.24-1.01 2.25-2.25 2.25h-6.5c-1 0-1.87-.66-2.16-1.61l-1.02-3.4c-.12-.4.1-.82.5-.94 .39-.12.81.1.93.5l1.01 3.39c.09.31.38.53.71.53h6.49c.41 0 .75-.34.75-.75 0-.42-.34-.75-.75-.75h-5.39c-.34 0-.63-.22-.72-.54l-2.25-7.5Z"/><path d="M13.46 15.46c0-.42.33-.75.75-.75h2.5c1.79 0 3.25 1.45 3.25 3.25 0 1.79-1.46 3.25-3.25 3.25h-6.36c-1.59 0-3.08-.8-3.96-2.12l-.82-1.22c-.23-.35-.14-.82.2-1.04 .34-.23.81-.14 1.04.2l.81 1.21c.6.9 1.61 1.44 2.7 1.44h6.35c.96 0 1.75-.79 1.75-1.75 0-.97-.79-1.75-1.75-1.75h-2.5c-.42 0-.75-.34-.75-.75Z"/></g></svg>