<svg viewBox="0 0 24 24" xmlns="http://www.w3.org/2000/svg"><g fill-rule="evenodd"><path d="M1.25 9c0-.42.33-.75.75-.75h20c.41 0 .75.33.75.75v2c0 .41-.34.75-.75.75 -.42 0-.75-.34-.75-.75V9.75H2.75v7.98c0 .19.21.31.37.21l.78-.48c.87-.53 1.95-.53 2.82 0l1.27.76c.39.23.89.23 1.28 0l1.27-.77c.87-.53 1.95-.53 2.82 0l1.27.76c.39.23.89.23 1.28 0l1.27-.77c.87-.53 1.95-.53 2.82 0l.78.47c.16.1.37-.03.37-.22v-2.74c0-.42.33-.75.75-.75 .41 0 .75.33.75.75v2.73c0 1.36-1.49 2.2-2.66 1.5l-.79-.48c-.4-.24-.9-.24-1.29 0l-1.28.76c-.88.52-1.96.52-2.83 0l-1.28-.77c-.4-.24-.9-.24-1.29 0l-1.28.76c-.88.52-1.96.52-2.83 0l-1.28-.77c-.4-.24-.9-.24-1.29 0l-.79.47c-1.17.69-2.66-.15-2.66-1.51V8.9Z"/><path d="M20 17.75c.41 0 .75.33.75.75V22c0 .41-.34.75-.75.75 -.42 0-.75-.34-.75-.75v-3.5c0-.42.33-.75.75-.75Z"/><path d="M4 17.75c.41 0 .75.33.75.75V22c0 .41-.34.75-.75.75 -.42 0-.75-.34-.75-.75v-3.5c0-.42.33-.75.75-.75Z"/><path d="M3.25 5.5c0-.42.33-.75.75-.75h5c.41 0 .75.33.75.75V7c0 1.51-1.24 2.75-2.75 2.75H6C4.48 9.75 3.25 8.51 3.25 7V5.5Zm1.5.75V7c0 .69.55 1.25 1.25 1.25h1c.69 0 1.25-.56 1.25-1.25v-.75h-3.5Z"/><path d="M14.25 5.5c0 .41.33.75.75.75h5c.41 0 .75-.34.75-.75v-1c0-1.52-1.24-2.75-2.75-2.75h-1c-1.52 0-2.75 1.23-2.75 2.75v1Zm1.5-.75V4.5c0-.7.55-1.25 1.25-1.25h1c.69 0 1.25.55 1.25 1.25v.25h-3.5Z"/><path d="M13.75 5.5c0-.42.33-.75.75-.75h6c.41 0 .75.33.75.75V9c0 .41-.34.75-.75.75h-6c-.42 0-.75-.34-.75-.75V5.5Zm1.5.75v2h4.5v-2h-4.5Z"/><path d="M12.25 5.5c0-.42.33-.75.75-.75h9c.41 0 .75.33.75.75 0 .41-.34.75-.75.75h-9c-.42 0-.75-.34-.75-.75Z"/></g></svg>