<svg viewBox="0 0 24 24" xmlns="http://www.w3.org/2000/svg"><g fill-rule="evenodd"><path d="M11.99 1.25c.24 0 .47.12.61.32l.9 1.32 1.53.45c.23.06.42.25.5.48 .07.23.03.49-.12.68l-.98 1.27 .04 1.6c0 .24-.11.48-.31.62 -.21.14-.46.18-.7.09l-1.52-.54 -1.52.53c-.24.08-.5.04-.7-.1 -.21-.15-.32-.39-.31-.63l.04-1.61 -.98-1.28c-.16-.2-.2-.46-.12-.69 .07-.24.26-.42.5-.49l1.53-.46 .9-1.33c.13-.21.37-.33.61-.33Zm0 2.07l-.44.64c-.1.14-.25.24-.41.29l-.75.21 .47.61c.1.13.16.3.15.47l-.03.77 .73-.27c.16-.06.34-.06.5 0l.73.26 -.03-.78c-.01-.18.05-.35.15-.48l.47-.62 -.75-.22c-.17-.05-.31-.16-.41-.3l-.44-.65Z"/><path d="M4.99 7.25c.24 0 .47.12.61.32l.9 1.32 1.53.45c.23.06.42.25.5.48 .07.23.03.49-.12.68l-.98 1.27 .04 1.6c0 .24-.11.48-.31.62 -.21.14-.46.18-.7.09l-1.52-.54 -1.52.53c-.24.08-.492.04-.7-.1 -.21-.15-.32-.39-.31-.63l.04-1.61 -.98-1.28c-.16-.2-.2-.46-.12-.69 .07-.24.26-.42.5-.49l1.53-.46 .9-1.33c.13-.21.37-.33.61-.33Zm0 2.07l-.44.64c-.1.14-.25.24-.41.29l-.75.21 .47.61c.1.13.16.3.15.47l-.03.77 .73-.27c.16-.06.34-.06.5 0l.73.26 -.03-.78c-.01-.18.05-.35.15-.48l.47-.62 -.75-.22c-.17-.05-.31-.16-.41-.3l-.44-.65Z"/><path d="M18.99 7.25c-.25 0-.48.12-.62.32l-.91 1.32 -1.54.45c-.24.06-.43.25-.51.48 -.08.23-.04.49.11.68l.35.45c.25.32.72.38 1.05.13 .19-.15.29-.38.29-.6l.9-.27c.16-.05.3-.16.4-.3l.43-.65 .43.64c.09.14.24.24.4.29l.74.21 -.48.61c-.11.13-.17.3-.16.47l.02.77 -.74-.27c-.17-.06-.34-.06-.51 0l-.87.3c-.13-.21-.36-.35-.62-.35 -.42-.02-.76.31-.78.72l-.02.62c-.01.24.1.48.3.62 .2.14.45.18.69.09l1.51-.54 1.51.53c.23.08.49.04.69-.1 .2-.15.31-.39.3-.63l-.05-1.61 .97-1.28c.15-.2.19-.46.11-.69 -.08-.24-.27-.42-.51-.49l-1.54-.46 -.91-1.33c-.14-.21-.38-.33-.62-.33Z"/><path d="M7.49 15.75c.24 0 .47.12.61.32l.9 1.32 1.53.45c.23.06.42.25.5.48 .07.23.03.49-.12.68l-.98 1.27 .04 1.6c0 .24-.11.48-.31.62 -.21.14-.46.18-.7.09l-1.52-.54 -1.52.53c-.24.08-.492.04-.7-.1 -.21-.15-.32-.39-.31-.63l.04-1.61 -.98-1.28c-.16-.2-.2-.46-.12-.69 .07-.24.26-.42.5-.49l1.53-.46 .9-1.33c.13-.21.37-.33.61-.33Zm0 2.07l-.44.64c-.1.14-.25.24-.41.29l-.75.21 .47.61c.1.13.16.3.15.47l-.03.77 .73-.27c.16-.06.34-.06.5 0l.73.26 -.03-.78c-.01-.18.05-.35.15-.48l.47-.62 -.75-.22c-.17-.05-.31-.16-.41-.3l-.44-.65Z"/><path d="M16.49 15.75c-.25 0-.48.12-.62.32l-.91 1.32 -1.54.45c-.24.06-.43.25-.51.48 -.08.23-.04.49.11.68l.97 1.27 -.05 1.6c-.01.24.1.48.3.62 .2.14.45.18.69.09l1.51-.54 1.51.53c.23.08.49.04.69-.1 .2-.15.31-.39.3-.63l-.05-1.61 .97-1.28c.15-.2.19-.46.11-.69 -.08-.24-.27-.42-.51-.49l-1.54-.46 -.91-1.33c-.14-.21-.38-.33-.62-.33Zm0 2.07l.43.64c.09.14.24.24.4.29l.74.21 -.48.61c-.11.13-.17.3-.16.47l.02.77 -.74-.27c-.17-.06-.34-.06-.51 0l-.74.26 .02-.78c0-.18-.06-.35-.16-.48l-.48-.62 .74-.22c.16-.05.3-.16.4-.3l.43-.65Z"/></g></svg>