<svg viewBox="0 0 24 24" xmlns="http://www.w3.org/2000/svg"><g fill-rule="evenodd"><path d="M2.25 3c0-.42.33-.75.75-.75h9c.41 0 .75.33.75.75 0 .41-.34.75-.75.75H3.75V6c0 .41-.34.75-.75.75 -.42 0-.75-.34-.75-.75V3ZM3 9.25c.41 0 .75.33.75.75v5.25h15.5V10c0-.42.33-.75.75-.75 .41 0 .75.33.75.75v6c0 .41-.34.75-.75.75H3c-.42 0-.75-.34-.75-.75v-6c0-.42.33-.75.75-.75Z"/><path d="M11.25 2c0-.42.33-.75.75-.75h9c.41 0 .75.33.75.75v8c0 .41-.34.75-.75.75h-9c-.42 0-.75-.34-.75-.75V2Zm1.5.75v6.5h7.5v-6.5h-7.5Z"/><path d="M4.75 6c0-.42.33-.75.75-.75h4c.41 0 .75.33.75.75v4c0 .41-.34.75-.75.75h-4c-.42 0-.75-.34-.75-.75V6Zm1.5.75v2.5h2.5v-2.5h-2.5Z"/><path d="M16.5 4.75c-.7 0-1.25.55-1.25 1.25 0 .69.55 1.25 1.25 1.25 .69 0 1.25-.56 1.25-1.25 0-.7-.56-1.25-1.25-1.25ZM13.75 6c0-1.52 1.23-2.75 2.75-2.75 1.51 0 2.75 1.23 2.75 2.75 0 1.51-1.24 2.75-2.75 2.75 -1.52 0-2.75-1.24-2.75-2.75Z"/><path d="M4.75 13c0-.42.33-.75.75-.75h4c.41 0 .75.33.75.75 0 .41-.34.75-.75.75h-4c-.42 0-.75-.34-.75-.75Z"/><path d="M9.75 16c0-.42.33-.75.75-.75h3c.41 0 .75.33.75.75v6c0 .41-.34.75-.75.75h-3c-.42 0-.75-.34-.75-.75v-6Zm1.5.75v4.5h1.5v-4.5h-1.5Z"/><path d="M3.25 19c0-.42.33-.75.75-.75h6.5c.41 0 .75.33.75.75 0 .41-.34.75-.75.75H4c-.42 0-.75-.34-.75-.75Z"/></g></svg>