<svg viewBox="0 0 24 24" xmlns="http://www.w3.org/2000/svg"><g fill-rule="evenodd"><path d="M5.25 6c0-.42.33-.75.75-.75h12c.41 0 .75.33.75.75v3c0 2.07-1.68 3.75-3.75 3.75H9c-2.08 0-3.75-1.68-3.75-3.75V6Zm1.5.75V9c0 1.24 1 2.25 2.25 2.25h6c1.24 0 2.25-1.01 2.25-2.25V6.75H6.75Z"/><path d="M5.25 6c0-.42.33-.75.75-.75h12c.41 0 .75.33.75.75v9c0 .41-.34.75-.75.75 -.42 0-.75-.34-.75-.75V6.75H6.75V20c0 .13.11.25.25.25h10c.13 0 .25-.12.25-.25v-1c0-.42.33-.75.75-.75 .41 0 .75.33.75.75v1c0 .96-.79 1.75-1.75 1.75H7c-.97 0-1.75-.79-1.75-1.75V6Z"/><path d="M9 11.25c.41 0 .75.33.75.75v5c0 .41-.34.75-.75.75 -.42 0-.75-.34-.75-.75v-5c0-.42.33-.75.75-.75Z"/><path d="M15 11.25c.41 0 .75.33.75.75v5c0 .41-.34.75-.75.75 -.42 0-.75-.34-.75-.75v-5c0-.42.33-.75.75-.75Z"/><path d="M12 3.75c-.7 0-1.25.55-1.25 1.25v1c0 .41-.34.75-.75.75 -.42 0-.75-.34-.75-.75V5c0-1.52 1.23-2.75 2.75-2.75 1.51 0 2.75 1.23 2.75 2.75v1c0 .41-.34.75-.75.75 -.42 0-.75-.34-.75-.75V5c0-.7-.56-1.25-1.25-1.25Z"/></g></svg>