<svg viewBox="0 0 24 24" xmlns="http://www.w3.org/2000/svg"><g fill-rule="evenodd"><path d="M2.25 7.5c0-1.25 1-2.25 2.25-2.25 1.24 0 2.25 1 2.25 2.25v3.75H21c.41 0 .75.33.75.75v5c0 .41-.34.75-.75.75h-3c-.42 0-.75-.34-.75-.75v-1.25H12c-.42 0-.75-.34-.75-.75 0-.42.33-.75.75-.75h6c.41 0 .75.33.75.75v1.25h1.5v-3.5H6c-.42 0-.75-.34-.75-.75V7.5c0-.42-.34-.75-.75-.75 -.42 0-.75.33-.75.75v8.75h1.5V15c0-.42.33-.75.75-.75h2c.41 0 .75.33.75.75 0 .41-.34.75-.75.75H6.75V17c0 .41-.34.75-.75.75H3c-.42 0-.75-.34-.75-.75V7.5Z"/><path d="M9.25 8.5c0-.42.33-.75.75-.75h8.5c1.79 0 3.25 1.45 3.25 3.25v1c0 .41-.34.75-.75.75H10c-.42 0-.75-.34-.75-.75V8.5Zm1.5.75v2h9.5V11c0-.97-.79-1.75-1.75-1.75h-7.75Z"/></g></svg>