<svg viewBox="0 0 24 24" xmlns="http://www.w3.org/2000/svg"><g fill-rule="evenodd"><path d="M2.25 10c0-.42.33-.75.75-.75h18c.41 0 .75.33.75.75v2c0 .41-.34.75-.75.75 -.42 0-.75-.34-.75-.75v-1.25H3.75v9.5h16.5V16c0-.42.33-.75.75-.75 .41 0 .75.33.75.75v5c0 .41-.34.75-.75.75H3c-.42 0-.75-.34-.75-.75V10Z"/><path d="M2.25 5.5c0-.42.33-.75.75-.75h18c.41 0 .75.33.75.75V10c0 .41-.34.75-.75.75H3c-.42 0-.75-.34-.75-.75V5.5Zm1.5.75v3h16.5v-3H3.75Z"/><path d="M7 2.75c.41 0 .75.33.75.75v4c0 .41-.34.75-.75.75 -.42 0-.75-.34-.75-.75v-4c0-.42.33-.75.75-.75Z"/><path d="M17 2.75c.41 0 .75.33.75.75v4c0 .41-.34.75-.75.75 -.42 0-.75-.34-.75-.75v-4c0-.42.33-.75.75-.75Z"/><path d="M15.03 12.46c.29.29.29.76 0 1.06l-5 5c-.3.29-.77.29-1.07 0 -.3-.3-.3-.77 0-1.07l5-5c.29-.3.76-.3 1.06 0Z"/><path d="M8.96 12.46c-.3.29-.3.76 0 1.06l5 5c.29.29.76.29 1.06 0 .29-.3.29-.77 0-1.07l-5-5c-.3-.3-.77-.3-1.07 0Z"/></g></svg>