<svg viewBox="0 0 24 24" xmlns="http://www.w3.org/2000/svg"><g fill-rule="evenodd"><path d="M10.25 10c0-1.52 1.23-2.75 2.75-2.75h6c1.51 0 2.75 1.23 2.75 2.75v3c0 .41-.34.75-.75.75 -.42 0-.75-.34-.75-.75v-3c0-.7-.56-1.25-1.25-1.25h-6c-.7 0-1.25.55-1.25 1.25v8c0 .69.55 1.25 1.25 1.25h6c.69 0 1.25-.56 1.25-1.25v-1c0-.42.33-.75.75-.75 .41 0 .75.33.75.75v1c0 1.51-1.24 2.75-2.75 2.75h-6c-1.52 0-2.75-1.24-2.75-2.75v-8Z"/><path d="M13 19.25c.41 0 .75.33.75.75v2c0 .41-.34.75-.75.75 -.42 0-.75-.34-.75-.75v-2c0-.42.33-.75.75-.75Z"/><path d="M19 19.25c.41 0 .75.33.75.75v2c0 .41-.34.75-.75.75 -.42 0-.75-.34-.75-.75v-2c0-.42.33-.75.75-.75Z"/><path d="M18 2.25c.41 0 .75.33.75.75v5c0 .41-.34.75-.75.75 -.42 0-.75-.34-.75-.75V3c0-.42.33-.75.75-.75Z"/><path d="M14 2.25c.41 0 .75.33.75.75v5c0 .41-.34.75-.75.75 -.42 0-.75-.34-.75-.75V3c0-.42.33-.75.75-.75Z"/><path d="M11.75 3c0-.42.33-.75.75-.75h7c.41 0 .75.33.75.75 0 .41-.34.75-.75.75h-7c-.42 0-.75-.34-.75-.75Z"/><path d="M14 10.25c.41 0 .75.33.75.75v6c0 .41-.34.75-.75.75 -.42 0-.75-.34-.75-.75v-6c0-.42.33-.75.75-.75Z"/><path d="M18 10.25c.41 0 .75.33.75.75v6c0 .41-.34.75-.75.75 -.42 0-.75-.34-.75-.75v-6c0-.42.33-.75.75-.75Z"/><path d="M10.03 3.46c.29.29.29.76 0 1.06l-4.5 4.5c-.15.14-.34.21-.54.21 -.2-.01-.39-.08-.54-.22l-2-2c-.3-.3-.3-.77 0-1.07 .29-.3.76-.3 1.06 0L4.97 7.4l3.96-3.97c.29-.3.76-.3 1.06 0Z"/></g></svg>