<svg viewBox="0 0 24 24" xmlns="http://www.w3.org/2000/svg"><g fill-rule="evenodd"><path d="M12 2.75c-2.09 0-4.01.68-5.56 1.84 -.34.24-.81.18-1.06-.15 -.25-.34-.19-.81.14-1.06 1.79-1.36 4.03-2.16 6.45-2.16 5.93 0 10.75 4.81 10.75 10.75 0 5.93-4.82 10.75-10.75 10.75 -5.94 0-10.75-4.82-10.75-10.75 0-1.69.38-3.28 1.07-4.7 .18-.38.62-.53 1-.35 .37.18.52.62.34 1 -.6 1.21-.93 2.58-.93 4.03 0 5.1 4.14 9.25 9.25 9.25 5.1 0 9.25-4.15 9.25-9.25 0-5.11-4.15-9.25-9.25-9.25Z"/><path d="M12 6.25c.3 0 .58.18.69.47l2 5c.07.17.07.37 0 .55l-2 5c-.12.28-.39.47-.7.47 -.31 0-.59-.19-.7-.48l-2-5c-.08-.18-.08-.38 0-.56l1.99-5.01c.11-.29.38-.48.69-.48ZM10.8 12l1.19 2.98 1.19-2.99L11.98 9l-1.2 2.98Z"/><path d="M12 1.25c.41 0 .75.33.75.75v2c0 .41-.34.75-.75.75 -.42 0-.75-.34-.75-.75V2c0-.42.33-.75.75-.75Z"/><path d="M1.25 12c0-.42.33-.75.75-.75h2c.41 0 .75.33.75.75 0 .41-.34.75-.75.75H2c-.42 0-.75-.34-.75-.75Z"/><path d="M19.25 12c0-.42.33-.75.75-.75h2c.41 0 .75.33.75.75 0 .41-.34.75-.75.75h-2c-.42 0-.75-.34-.75-.75Z"/><path d="M12 19.25c.41 0 .75.33.75.75v2c0 .41-.34.75-.75.75 -.42 0-.75-.34-.75-.75v-2c0-.42.33-.75.75-.75Z"/></g></svg>