<svg viewBox="0 0 24 24" xmlns="http://www.w3.org/2000/svg"><g fill-rule="evenodd"><path d="M12 2.75c-2.35 0-4.25 1.9-4.25 4.25 0 2.34 1.9 4.25 4.25 4.25 2.34 0 4.25-1.91 4.25-4.25 0-2.35-1.91-4.25-4.25-4.25ZM6.25 7c0-3.18 2.57-5.75 5.75-5.75 3.17 0 5.75 2.57 5.75 5.75 0 3.17-2.58 5.75-5.75 5.75 -3.18 0-5.75-2.58-5.75-5.75Z"/><path d="M12 3.25c.41 0 .75.33.75.75v2.25H15c.41 0 .75.33.75.75 0 .41-.34.75-.75.75h-3c-.42 0-.75-.34-.75-.75V4c0-.42.33-.75.75-.75Z"/><path d="M1.25 15c0-.42.33-.75.75-.75h14.29c.62 0 1.23.21 1.71.6l3.88 3.11c.53.42.84 1.07.84 1.75v.77c0 1.24-1.01 2.25-2.25 2.25h-1.5c-.42 0-.75-.34-.75-.75 0-.42.33-.75.75-.75h1.5c.41 0 .75-.34.75-.75v-.78c0-.23-.11-.45-.29-.59l-3.89-3.12c-.23-.18-.5-.28-.79-.28H2.7v5.5h12.25c.41 0 .75.33.75.75 0 .41-.34.75-.75.75h-13c-.42 0-.75-.34-.75-.75v-7Z"/><path d="M10.51 14.42c.31-.27.79-.23 1.05.09l2.27 2.73h6.64c.41 0 .75.33.75.75 0 .41-.34.75-.75.75h-7c-.23 0-.44-.1-.58-.27l-2.5-3c-.27-.32-.23-.8.09-1.06Z"/><path d="M7.58 14.37c.34-.23.81-.14 1.04.2l1.99 3c.15.23.16.52.03.76 -.14.24-.39.39-.67.39h-8c-.42 0-.75-.34-.75-.75 0-.42.33-.75.75-.75h6.59l-1.23-1.84c-.23-.35-.14-.82.2-1.04Z"/></g></svg>