<svg viewBox="0 0 24 24" xmlns="http://www.w3.org/2000/svg"><g fill-rule="evenodd"><path d="M4.25 4c0-.42.33-.75.75-.75h4c.41 0 .75.33.75.75 0 .41-.34.75-.75.75H5.67c-.3 1.46-1.46 2.62-2.93 2.92v3.65c1.46.29 2.62 1.45 2.92 2.92h1.32c.41 0 .75.33.75.75 0 .41-.34.75-.75.75h-2c-.42 0-.75-.34-.75-.75 0-1.25-1.01-2.25-2.25-2.25 -.42 0-.75-.34-.75-.75v-5c0-.42.33-.75.75-.75 1.24 0 2.25-1.01 2.25-2.25Zm8 0c0-.42.33-.75.75-.75h6c.41 0 .75.33.75.75 0 1.24 1 2.25 2.25 2.25 .41 0 .75.33.75.75v5c0 .41-.34.75-.75.75 -1.25 0-2.25 1-2.25 2.25 0 .41-.34.75-.75.75h-2c-.42 0-.75-.34-.75-.75 0-.42.33-.75.75-.75h1.32c.29-1.47 1.45-2.63 2.92-2.93V7.66c-1.47-.3-2.63-1.46-2.93-2.93h-5.33c-.42 0-.75-.34-.75-.75Z"/><path d="M12 10.25c-2.35 0-4.25 1.9-4.25 4.25 0 2.34 1.9 4.25 4.25 4.25 2.34 0 4.25-1.91 4.25-4.25 0-2.35-1.91-4.25-4.25-4.25ZM6.25 14.5c0-3.18 2.57-5.75 5.75-5.75 3.17 0 5.75 2.57 5.75 5.75 0 3.17-2.58 5.75-5.75 5.75 -3.18 0-5.75-2.58-5.75-5.75Z"/><path d="M12 10.75c.41 0 .75.33.75.75v3.03l1.58.79c.37.18.52.63.33 1s-.64.52-1.01.33l-2-1c-.26-.13-.42-.39-.42-.68v-3.5c0-.42.33-.75.75-.75Z"/></g></svg>