<svg viewBox="0 0 24 24" xmlns="http://www.w3.org/2000/svg"><g fill-rule="evenodd"><path d="M4.46 4.96c.14-.15.33-.22.53-.22h7c.41 0 .75.33.75.75v4c0 .41-.34.75-.75.75h-7c-.2 0-.39-.08-.54-.22l-2-2c-.3-.3-.3-.77 0-1.07l2-2Zm.84 1.28L4.05 7.49 5.3 8.74h5.93v-2.5H5.29Z"/><path d="M19.53 16.03c-.15.14-.34.21-.54.21h-7c-.42 0-.75-.34-.75-.75v-4c0-.42.33-.75.75-.75h2c.41 0 .75.33.75.75 0 .41-.34.75-.75.75h-1.25v2.5h5.93l1.25-1.25 -1.25-1.25h-.69c-.42 0-.75-.34-.75-.75 0-.42.33-.75.75-.75h1c.19 0 .38.07.53.21l2 2c.29.29.29.76 0 1.06l-2 2Z"/><path d="M12 1.75c.41 0 .75.33.75.75v19c0 .41-.34.75-.75.75 -.42 0-.75-.34-.75-.75v-19c0-.42.33-.75.75-.75Z"/><path d="M8.25 21.5c0-.42.33-.75.75-.75h6c.41 0 .75.33.75.75 0 .41-.34.75-.75.75H9c-.42 0-.75-.34-.75-.75Z"/></g></svg>