<svg viewBox="0 0 24 24" xmlns="http://www.w3.org/2000/svg"><g fill-rule="evenodd"><path d="M10.25 1.88c.05-.37.37-.64.74-.64h2c.37 0 .68.27.74.63l.6 4c.06.4-.23.79-.64.85 -.41.06-.8-.23-.86-.64l-.51-3.37h-.71l-1.41 9.36c-.01.04-.02.09-.04.13L7 21.2h1.47l1.79-3.59c.12-.26.38-.42.67-.42h2c.28 0 .54.16.67.41l1.79 3.58h1.47l-3.16-9.01c-.02-.05-.03-.1-.04-.14l-.3-2c-.07-.41.22-.8.63-.86 .4-.07.79.22.85.63l.28 1.93 3.47 9.93c.08.22.04.48-.1.68 -.15.19-.37.31-.62.31h-3c-.29 0-.55-.17-.68-.42l-1.8-3.59h-1.08l-1.8 3.58c-.13.25-.39.41-.68.41h-3c-.25 0-.48-.12-.62-.32 -.15-.2-.18-.46-.1-.69l3.47-9.94 1.48-9.94Z"/><path d="M5.75 14c0-.42.33-.75.75-.75h11c.41 0 .75.33.75.75 0 .41-.34.75-.75.75h-11c-.42 0-.75-.34-.75-.75Z"/><path d="M8.25 4.5c0-.42.33-.75.75-.75h6c.41 0 .75.33.75.75 0 .41-.34.75-.75.75H9c-.42 0-.75-.34-.75-.75Z"/></g></svg>