<svg viewBox="0 0 24 24" xmlns="http://www.w3.org/2000/svg"><g fill-rule="evenodd"><path d="M2.25 9.5c0-1.52 1.23-2.75 2.75-2.75h14c1.51 0 2.75 1.23 2.75 2.75v8c0 1.51-1.24 2.75-2.75 2.75h-3c-.42 0-.75-.34-.75-.75 0-.42.33-.75.75-.75h3c.69 0 1.25-.56 1.25-1.25v-8c0-.7-.56-1.25-1.25-1.25H5c-.7 0-1.25.55-1.25 1.25v8c0 .69.55 1.25 1.25 1.25h7c.41 0 .75.33.75.75 0 .41-.34.75-.75.75H5c-1.52 0-2.75-1.24-2.75-2.75v-8Z"/><path d="M11.5 5.25c-.7 0-1.25.55-1.25 1.25v1c0 .41-.34.75-.75.75 -.42 0-.75-.34-.75-.75v-1c0-1.52 1.23-2.75 2.75-2.75h1c1.51 0 2.75 1.23 2.75 2.75v1c0 .41-.34.75-.75.75 -.42 0-.75-.34-.75-.75v-1c0-.7-.56-1.25-1.25-1.25h-1Z"/><path d="M22.53 1.46c.29.29.29.76 0 1.06l-20 20c-.3.29-.77.29-1.07 0 -.3-.3-.3-.77 0-1.07l20-20c.29-.3.76-.3 1.06-.001Z"/></g></svg>