<svg viewBox="0 0 24 24" xmlns="http://www.w3.org/2000/svg"><g fill-rule="evenodd"><path d="M7 3.25c.41 0 .75.33.75.75v16c0 .41-.34.75-.75.75 -.42 0-.75-.34-.75-.75V4c0-.42.33-.75.75-.75Z"/><path d="M17 3.25c.41 0 .75.33.75.75v16c0 .41-.34.75-.75.75 -.42 0-.75-.34-.75-.75V4c0-.42.33-.75.75-.75Z"/><path d="M1.25 12c0-.42.33-.75.75-.75h6.5c.41 0 .75.33.75.75 0 .41-.34.75-.75.75H2.75v1.5h18.5v-1.5H12.5c-.42 0-.75-.34-.75-.75 0-.42.33-.75.75-.75H22c.41 0 .75.33.75.75v3c0 .41-.34.75-.75.75H2c-.42 0-.75-.34-.75-.75v-3Z"/><path d="M7.03 3.25c.21 0 .4.1.54.26l1.54 1.85c1.49 1.79 4.26 1.79 5.76 0l1.54-1.86c.13-.17.33-.26.54-.27 .21-.01.41.06.56.21l5 5c.29.29.29.76 0 1.06 -.3.29-.77.29-1.07 0l-4.42-4.42L16 6.3c-2.099 2.51-5.97 2.51-8.07 0L6.91 5.07 2.49 9.48c-.3.29-.77.29-1.07 0 -.3-.3-.3-.77 0-1.07l5-5c.14-.15.35-.23.56-.22Z"/></g></svg>