<svg viewBox="0 0 24 24" xmlns="http://www.w3.org/2000/svg"><g fill-rule="evenodd"><path d="M6.25 2c0-.42.33-.75.75-.75h10c.41 0 .75.33.75.75v3c0 .41-.34.75-.75.75H7c-.42 0-.75-.34-.75-.75V2Zm1.5.75v1.5h8.5v-1.5h-8.5Z"/><path d="M9.75 18c0-.42.33-.75.75-.75h3c.41 0 .75.33.75.75v4c0 .41-.34.75-.75.75h-3c-.42 0-.75-.34-.75-.75v-4Zm1.5.75v2.5h1.5v-2.5h-1.5Z"/><path d="M5.25 8c0-.42.33-.75.75-.75h12c.41 0 .75.33.75.75v7c0 .41-.34.75-.75.75 -.42 0-.75-.34-.75-.75V8.75H6.75v12.5h10.5V19c0-.42.33-.75.75-.75 .41 0 .75.33.75.75v3c0 .41-.34.75-.75.75H6c-.42 0-.75-.34-.75-.75V8Z"/><path d="M9 4.25c.41 0 .75.33.75.75v3c0 .41-.34.75-.75.75 -.42 0-.75-.34-.75-.75V5c0-.42.33-.75.75-.75Z"/><path d="M15 4.25c.41 0 .75.33.75.75v3c0 .41-.34.75-.75.75 -.42 0-.75-.34-.75-.75V5c0-.42.33-.75.75-.75Z"/><path d="M7.75 11.5c0-.42.33-.75.75-.75h2c.41 0 .75.33.75.75 0 .41-.34.75-.75.75h-2c-.42 0-.75-.34-.75-.75Z"/><path d="M7.75 15c0-.42.33-.75.75-.75h2c.41 0 .75.33.75.75 0 .41-.34.75-.75.75h-2c-.42 0-.75-.34-.75-.75Z"/><path d="M12.75 11.5c0-.42.33-.75.75-.75h2c.41 0 .75.33.75.75 0 .41-.34.75-.75.75h-2c-.42 0-.75-.34-.75-.75Z"/><path d="M12.75 15c0-.42.33-.75.75-.75h2c.41 0 .75.33.75.75 0 .41-.34.75-.75.75h-2c-.42 0-.75-.34-.75-.75Z"/></g></svg>