<svg viewBox="0 0 24 24" xmlns="http://www.w3.org/2000/svg"><g fill-rule="evenodd"><path d="M6.25 10c0-1.52 1.23-2.75 2.75-2.75h6c1.51 0 2.75 1.23 2.75 2.75v2c0 .41-.34.75-.75.75 -.42 0-.75-.34-.75-.75v-2c0-.7-.56-1.25-1.25-1.25H9c-.7 0-1.25.55-1.25 1.25v8c0 .69.55 1.25 1.25 1.25h6c.69 0 1.25-.56 1.25-1.25v-2c0-.42.33-.75.75-.75 .41 0 .75.33.75.75v2c0 1.51-1.24 2.75-2.75 2.75H9c-1.52 0-2.75-1.24-2.75-2.75v-8Z"/><path d="M9 19.25c.41 0 .75.33.75.75v2c0 .41-.34.75-.75.75 -.42 0-.75-.34-.75-.75v-2c0-.42.33-.75.75-.75Z"/><path d="M15 19.25c.41 0 .75.33.75.75v2c0 .41-.34.75-.75.75 -.42 0-.75-.34-.75-.75v-2c0-.42.33-.75.75-.75Z"/><path d="M14 2.25c.41 0 .75.33.75.75v5c0 .41-.34.75-.75.75 -.42 0-.75-.34-.75-.75V3c0-.42.33-.75.75-.75Z"/><path d="M10 2.25c.41 0 .75.33.75.75v5c0 .41-.34.75-.75.75 -.42 0-.75-.34-.75-.75V3c0-.42.33-.75.75-.75Z"/><path d="M7.75 3c0-.42.33-.75.75-.75h7c.41 0 .75.33.75.75 0 .41-.34.75-.75.75h-7c-.42 0-.75-.34-.75-.75Z"/><path d="M10 10.25c.41 0 .75.33.75.75v6c0 .41-.34.75-.75.75 -.42 0-.75-.34-.75-.75v-6c0-.42.33-.75.75-.75Z"/><path d="M14 10.25c.41 0 .75.33.75.75v6c0 .41-.34.75-.75.75 -.42 0-.75-.34-.75-.75v-6c0-.42.33-.75.75-.75Z"/></g></svg>