<svg viewBox="0 0 24 24" xmlns="http://www.w3.org/2000/svg"><g fill-rule="evenodd"><path d="M1.25 5c0-.42.33-.75.75-.75h12c.41 0 .75.33.75.75 0 .41-.34.75-.75.75H2.75v13.5H13c.41 0 .75.33.75.75 0 .41-.34.75-.75.75H2c-.42 0-.75-.34-.75-.75V5Zm16 0c0-.42.33-.75.75-.75h4c.41 0 .75.33.75.75v15c0 .41-.34.75-.75.75h-5c-.42 0-.75-.34-.75-.75 0-.42.33-.75.75-.75h4.25V5.75H18c-.42 0-.75-.34-.75-.75Z"/><path d="M1.4 4.55c.24-.34.71-.4 1.05-.15l20 15c.33.24.39.71.15 1.05 -.25.33-.72.39-1.05.15l-20-15c-.34-.25-.4-.72-.15-1.05Z"/><path d="M8.46 8.91c.32.25.37.73.11 1.05l-6 7.49c-.26.32-.74.37-1.06.11 -.33-.26-.38-.74-.12-1.06l6-7.51c.25-.33.73-.38 1.05-.12Z"/><path d="M22.46 7.41c.32.25.37.73.11 1.05l-6 7.49c-.26.32-.74.37-1.06.11 -.33-.26-.38-.74-.12-1.06l6-7.51c.25-.33.73-.38 1.05-.12Z"/><path d="M16 3.75c-.7 0-1.25.55-1.25 1.25 0 .1.06.36.24.78 .17.39.4.82.64 1.24 .11.2.23.4.35.58 .11-.19.23-.38.35-.59 .24-.42.47-.86.64-1.25 .18-.43.24-.69.24-.79 0-.7-.56-1.25-1.25-1.25ZM16 9c-.62.42-.62.42-.62.42l-.01-.01 -.01-.01 -.02-.03c-.02-.03-.04-.06-.07-.1 -.06-.09-.14-.21-.24-.36 -.2-.3-.45-.71-.71-1.15 -.26-.45-.53-.94-.73-1.4 -.19-.44-.38-.95-.38-1.4 0-1.52 1.23-2.75 2.75-2.75 1.51 0 2.75 1.23 2.75 2.75 0 .44-.19.96-.38 1.39 -.21.46-.47.95-.73 1.39 -.26.44-.52.85-.71 1.14 -.1.14-.18.26-.24.35 -.03.04-.06.07-.07.09l-.02.02 -.01 0 -.01 0c-.01 0-.01 0-.62-.43Zm0 0l.61.42c-.14.2-.38.32-.62.32 -.25 0-.48-.13-.62-.33l.61-.43Z"/></g></svg>