<svg viewBox="0 0 24 24" xmlns="http://www.w3.org/2000/svg"><g fill-rule="evenodd"><path d="M4.25 5c0-.42.33-.75.75-.75h5.99c.41 0 .75.33.75.75 0 .41-.34.75-.75.75H5.74v2.92l1.36-.82c.35-.22.81-.1 1.02.25 .21.35.09.81-.26 1.02l-2.5 1.49c-.24.14-.54.14-.78 0l-2.5-1.5c-.36-.22-.48-.68-.26-1.03 .21-.36.67-.48 1.029-.26l1.36.81V4.95Z"/><path d="M19.74 19c0 .41-.34.75-.75.75h-5.5c-.42 0-.75-.34-.75-.75 0-.42.33-.75.75-.75h4.75v-2.93l-1.37.81c-.36.21-.82.09-1.029-.26 -.22-.36-.1-.82.25-1.029l2.5-1.5c.23-.15.53-.15.77 0l2.5 1.5c.35.21.47.67.25 1.029 -.22.35-.68.47-1.029.25l-1.37-.82v3.67Z"/><path d="M10.25 3c0-.42.33-.75.75-.75h11c.41 0 .75.33.75.75v7c0 .41-.34.75-.75.75H11c-.42 0-.75-.34-.75-.75V3Zm1.5.75v5.5h9.5v-5.5h-9.5Z"/><path d="M1.25 14c0-.42.33-.75.75-.75h1c.41 0 .75.33.75.75 0 .41-.34.75-.75.75h-.25v5.5h9.5v-5.5H7c-.42 0-.75-.34-.75-.75 0-.42.33-.75.75-.75h6c.41 0 .75.33.75.75v7c0 .41-.34.75-.75.75H2c-.42 0-.75-.34-.75-.75v-7Z"/><path d="M16.5 5.75c-.42 0-.75.33-.75.75 0 .41.33.75.75.75 .41 0 .75-.34.75-.75 0-.42-.34-.75-.75-.75Zm-2.25.75c0-1.25 1-2.25 2.25-2.25 1.24 0 2.25 1 2.25 2.25 0 1.24-1.01 2.25-2.25 2.25 -1.25 0-2.25-1.01-2.25-2.25Z"/><path d="M7.5 16.75c-.42 0-.75.33-.75.75 0 .41.33.75.75.75 .41 0 .75-.34.75-.75 0-.42-.34-.75-.75-.75Zm-2.25.75c0-1.25 1-2.25 2.25-2.25 1.24 0 2.25 1 2.25 2.25 0 1.24-1.01 2.25-2.25 2.25 -1.25 0-2.25-1.01-2.25-2.25Z"/></g></svg>