<svg viewBox="0 0 24 24" xmlns="http://www.w3.org/2000/svg"><path fill-rule="evenodd" d="M14.8 3.18c3.73 1.18 6.44 4.68 6.44 8.81 0 .41.33.75.75.75 .41 0 .75-.34.75-.75 0-5.94-4.82-10.75-10.75-10.75 -.49 0-.97.03-1.45.09 -.37.04-.65.36-.66.73 -.01.37.26.69.63.74 3.23.5 5.7 3.29 5.7 6.66 0 3.72-3.03 6.75-6.75 6.75 -3.38 0-6.17-2.48-6.67-5.71 -.06-.37-.38-.64-.75-.64 -.38 0-.69.28-.74.65 -.07.47-.1.95-.1 1.44 0 5.93 4.81 10.75 10.75 10.75 4.4 0 8.197-2.66 9.85-6.45 .16-.38-.01-.83-.39-.99 -.38-.17-.83 0-.99.38 -1.43 3.26-4.69 5.55-8.49 5.55 -4.13 0-7.63-2.71-8.82-6.45 1.51 1.79 3.78 2.94 6.31 2.94 4.55 0 8.25-3.7 8.25-8.25 0-2.54-1.15-4.81-2.95-6.32Z"/></svg>