<svg viewBox="0 0 24 24" xmlns="http://www.w3.org/2000/svg"><g fill-rule="evenodd"><path d="M6 10.75c-1.25 0-2.25 1-2.25 2.25 0 .24.12.69.4 1.33 .26.6.62 1.27.99 1.91 .29.51.6 1 .85 1.39 .25-.4.55-.88.85-1.4 .36-.64.72-1.31.99-1.92 .27-.64.4-1.1.4-1.34 0-1.25-1.01-2.25-2.25-2.25ZM6 19c-.62.42-.62.42-.62.42l-.01-.01 -.01-.02 -.03-.04c-.03-.04-.06-.09-.1-.15 -.09-.13-.21-.31-.35-.53 -.29-.44-.67-1.05-1.06-1.71 -.39-.66-.78-1.39-1.07-2.06 -.29-.65-.54-1.36-.54-1.94 0-2.08 1.67-3.75 3.75-3.75 2.07 0 3.75 1.67 3.75 3.75 0 .58-.25 1.29-.54 1.93 -.3.67-.69 1.4-1.07 2.05 -.39.66-.77 1.26-1.06 1.7 -.15.22-.27.39-.35.52 -.05.06-.08.11-.1.14l-.03.03 -.01.01 -.01 0c-.01 0-.01 0-.62-.43Zm0 0l.61.42c-.15.2-.38.32-.62.32 -.25 0-.48-.13-.62-.33l.61-.43Z"/><path d="M14 11.75c-.7 0-1.25.55-1.25 1.25 0 .69.55 1.25 1.25 1.25h.5c.41 0 .75.33.75.75 0 .41-.34.75-.75.75H14c-1.52 0-2.75-1.24-2.75-2.75 0-1.52 1.23-2.75 2.75-2.75h4c.41 0 .75.33.75.75 0 .41-.34.75-.75.75h-4ZM17.75 15c0-.42.33-.75.75-.75h.5c1.51 0 2.75 1.23 2.75 2.75 0 1.51-1.24 2.75-2.75 2.75H6c-.42 0-.75-.34-.75-.75 0-.42.33-.75.75-.75h13c.69 0 1.25-.56 1.25-1.25 0-.7-.56-1.25-1.25-1.25h-.5c-.42 0-.75-.34-.75-.75Z"/><path d="M18 5.75c-.7 0-1.25.55-1.25 1.25 0 .1.06.36.24.78 .17.39.4.82.64 1.24 .11.2.23.4.35.58 .11-.19.23-.38.35-.59 .24-.42.47-.86.64-1.25 .18-.43.24-.69.24-.79 0-.7-.56-1.25-1.25-1.25ZM18 11c-.62.42-.62.42-.62.42l-.01-.01 -.01-.01 -.02-.03c-.02-.03-.04-.06-.07-.1 -.06-.09-.14-.21-.24-.36 -.2-.3-.45-.71-.71-1.15 -.26-.45-.53-.94-.73-1.4 -.19-.44-.38-.95-.38-1.4 0-1.52 1.23-2.75 2.75-2.75 1.51 0 2.75 1.23 2.75 2.75 0 .44-.19.96-.38 1.39 -.21.46-.47.95-.73 1.39 -.26.44-.52.85-.71 1.14 -.1.14-.18.26-.24.35 -.03.04-.06.07-.07.09l-.02.02 -.01 0 -.01 0c-.01 0-.01 0-.62-.43Zm0 0l.61.42c-.14.2-.38.32-.62.32 -.25 0-.48-.13-.62-.33l.61-.43Z"/></g></svg>