<svg viewBox="0 0 24 24" xmlns="http://www.w3.org/2000/svg"><g fill-rule="evenodd"><path d="M1.25 2c0-.42.33-.75.75-.75h20c.41 0 .75.33.75.75v5c0 .41-.34.75-.75.75 -.42 0-.75-.34-.75-.75V2.75H2.75v18.5h18.5V12c0-.42.33-.75.75-.75 .41 0 .75.33.75.75v10c0 .41-.34.75-.75.75H2c-.42 0-.75-.34-.75-.75V2Z"/><path d="M4.25 15c0-.97.78-1.75 1.75-1.75h11c1.51 0 2.75 1.23 2.75 2.75v2c0 .41-.34.75-.75.75h-2c-.42 0-.75-.34-.75-.75 0-.42.33-.75.75-.75h1.25V16c0-.7-.56-1.25-1.25-1.25H6c-.14 0-.25.11-.25.25v2.25H7c.41 0 .75.33.75.75 0 .41-.34.75-.75.75H5c-.42 0-.75-.34-.75-.75v-3Zm5 3c0-.42.33-.75.75-.75h4c.41 0 .75.33.75.75 0 .41-.34.75-.75.75h-4c-.42 0-.75-.34-.75-.75Z"/><path d="M7.17 11.38c.25-.69.9-1.14 1.63-1.14h4.67c1.14 0 2.17.71 2.57 1.78l.63 1.7c.08.23.05.48-.09.69 -.15.2-.38.32-.62.32h-9c-.25 0-.48-.13-.62-.33 -.15-.21-.18-.47-.09-.7l.88-2.36Zm1.63.36c-.11 0-.2.06-.24.16l-.51 1.33h6.83l-.26-.69c-.19-.49-.65-.82-1.18-.82H8.76Z"/><path d="M15.5 17.75c-.42 0-.75.33-.75.75 0 .41.33.75.75.75 .41 0 .75-.34.75-.75 0-.42-.34-.75-.75-.75Zm-2.25.75c0-1.25 1-2.25 2.25-2.25 1.24 0 2.25 1 2.25 2.25 0 1.24-1.01 2.25-2.25 2.25 -1.25 0-2.25-1.01-2.25-2.25Z"/><path d="M8.5 17.75c-.42 0-.75.33-.75.75 0 .41.33.75.75.75 .41 0 .75-.34.75-.75 0-.42-.34-.75-.75-.75Zm-2.25.75c0-1.25 1-2.25 2.25-2.25 1.24 0 2.25 1 2.25 2.25 0 1.24-1.01 2.25-2.25 2.25 -1.25 0-2.25-1.01-2.25-2.25Z"/><path d="M9.25 4c0-.42.33-.75.75-.75h2.5c1.24 0 2.25 1 2.25 2.25 0 1.24-1.01 2.25-2.25 2.25h-1.75V9c0 .41-.34.75-.75.75 -.42 0-.75-.34-.75-.75V4Zm1.5 2.25h1.75c.41 0 .75-.34.75-.75 0-.42-.34-.75-.75-.75h-1.75v1.5Z"/></g></svg>