<svg viewBox="0 0 24 24" xmlns="http://www.w3.org/2000/svg"><defs><mask id="a"><path fill="#FFF" d="M0 0h24v24H0Z"/></mask></defs><g mask="url(#a)"><g fill-rule="evenodd"><path d="M6.73 15.77c.06-.41.44-.69.84-.63l7.91 1.13c.39.05.67.4.64.8l-.4 4.97c-.04.39-.36.69-.75.69h-8.5c-.22 0-.43-.1-.58-.27 -.15-.17-.21-.39-.18-.61l.97-6.11Zm1.36.96l-.72 4.5h6.92l.28-3.59 -6.5-.93Z"/><path d="M9.076 4.47c.15-.12.35-.18.55-.15l6.92.99c.41.05.69.43.63.84l-1.56 10.88c-.06.41-.44.69-.85.63l-6.93-1c-.2-.03-.38-.14-.5-.3 -.12-.16-.18-.36-.15-.56l.71-4.97c.05-.41.43-.7.84-.64 .41.05.69.43.63.84l-.61 4.22 5.44.77 1.34-9.41 -5.45-.78 -.17 1.18c-.06.41-.44.69-.85.63 -.42-.06-.7-.44-.64-.85l.27-1.93c.02-.2.13-.38.29-.5Z"/><path d="M10.19 2.14c.05-.42.43-.7.84-.64l4.94.7c.41.05.69.43.63.84L16.17 6c-.06.41-.44.69-.85.63l-4.95-.71c-.42-.06-.7-.44-.64-.85l.42-2.97Zm1.37.95l-.22 1.48 3.46.49 .21-1.49 -3.47-.5Z"/><path d="M4.25 22c0-.42.33-.75.75-.75h14c.41 0 .75.33.75.75 0 .41-.34.75-.75.75H5c-.42 0-.75-.34-.75-.75Z"/></g></g></svg>