<svg viewBox="0 0 24 24" xmlns="http://www.w3.org/2000/svg"><g fill-rule="evenodd"><path d="M2.25 5.5c0-1.8 1.45-3.25 3.25-3.25h13c1.79 0 3.25 1.45 3.25 3.25V9c0 .41-.34.75-.75.75 -.42 0-.75-.34-.75-.75V5.5c0-.97-.79-1.75-1.75-1.75h-13c-.97 0-1.75.78-1.75 1.75v13c0 .96.78 1.75 1.75 1.75h13c.96 0 1.75-.79 1.75-1.75V13c0-.42.33-.75.75-.75 .41 0 .75.33.75.75v5.5c0 1.79-1.46 3.25-3.25 3.25h-13c-1.8 0-3.25-1.46-3.25-3.25v-13Z"/><path d="M2.25 5.5c0-1.8 1.45-3.25 3.25-3.25 1.79 0 3.25 1.45 3.25 3.25v13c0 1.79-1.46 3.25-3.25 3.25 -1.8 0-3.25-1.46-3.25-3.25v-13ZM5.5 3.75c-.97 0-1.75.78-1.75 1.75v13c0 .96.78 1.75 1.75 1.75 .96 0 1.75-.79 1.75-1.75v-13c0-.97-.79-1.75-1.75-1.75Z"/><path d="M14.5 10.25c-1.8 0-3.25 1.45-3.25 3.25 0 1.79 1.45 3.25 3.25 3.25 1.79 0 3.25-1.46 3.25-3.25 0-1.8-1.46-3.25-3.25-3.25ZM9.75 13.5c0-2.63 2.12-4.75 4.75-4.75 2.62 0 4.75 2.12 4.75 4.75 0 2.62-2.13 4.75-4.75 4.75 -2.63 0-4.75-2.13-4.75-4.75Z"/><path d="M11.25 6c0-.42.33-.75.75-.75h5c.41 0 .75.33.75.75 0 .41-.34.75-.75.75h-5c-.42 0-.75-.34-.75-.75Z"/></g></svg>