<svg viewBox="0 0 24 24" xmlns="http://www.w3.org/2000/svg"><g fill-rule="evenodd"><path d="M1.25 12c0-.42.33-.75.75-.75h20c.41 0 .75.33.75.75v10c0 .41-.34.75-.75.75H11c-.42 0-.75-.34-.75-.75 0-.42.33-.75.75-.75h10.25v-8.5H2.75v8.5H7c.41 0 .75.33.75.75 0 .41-.34.75-.75.75H2c-.42 0-.75-.34-.75-.75V12Z"/><path d="M12 15.25c-.97 0-1.75.78-1.75 1.75 0 .96.78 1.75 1.75 1.75 .96 0 1.75-.79 1.75-1.75 0-.97-.79-1.75-1.75-1.75ZM8.75 17c0-1.8 1.45-3.25 3.25-3.25 1.79 0 3.25 1.45 3.25 3.25 0 1.79-1.46 3.25-3.25 3.25 -1.8 0-3.25-1.46-3.25-3.25Z"/><path d="M12.03 1.46c.29.29.29.76 0 1.06l-1.97 1.96 1.96 1.96c.29.29.29.76 0 1.06 -.3.29-.77.29-1.07 0L8.44 5c-.3-.3-.3-.77 0-1.07l2.5-2.5c.29-.3.76-.3 1.06 0Z"/><path d="M8.25 4.5c0-.42.33-.75.75-.75h4.75c1.65 0 3 1.34 3 3 0 1.65-1.35 3-3 3H9c-.42 0-.75-.34-.75-.75 0-.42.33-.75.75-.75h4.75c.82 0 1.5-.68 1.5-1.5 0-.83-.68-1.5-1.5-1.5H9c-.42 0-.75-.34-.75-.75Z"/><path d="M1.25 12c0-.42.33-.75.75-.75h3c.41 0 .75.33.75.75v1c0 1.51-1.24 2.75-2.75 2.75H2c-.42 0-.75-.34-.75-.75v-3Zm1.5.75v1.5H3c.69 0 1.25-.56 1.25-1.25v-.25h-1.5Z"/><path d="M22.75 12c0-.42-.34-.75-.75-.75h-3c-.42 0-.75.33-.75.75v1c0 1.51 1.23 2.75 2.75 2.75h1c.41 0 .75-.34.75-.75v-3Zm-1.5.75v1.5H21c-.7 0-1.25-.56-1.25-1.25v-.25h1.5Z"/><path d="M1.25 22c0 .41.33.75.75.75h3c.41 0 .75-.34.75-.75v-1c0-1.52-1.24-2.75-2.75-2.75H2c-.42 0-.75.33-.75.75v3Zm1.5-.75v-1.5H3c.69 0 1.25.55 1.25 1.25v.25h-1.5Z"/><path d="M22.75 22c0 .41-.34.75-.75.75h-3c-.42 0-.75-.34-.75-.75v-1c0-1.52 1.23-2.75 2.75-2.75h1c.41 0 .75.33.75.75v3Zm-1.5-.75v-1.5H21c-.7 0-1.25.55-1.25 1.25v.25h1.5Z"/></g></svg>