<svg viewBox="0 0 24 24" xmlns="http://www.w3.org/2000/svg"><g fill-rule="evenodd"><path d="M1.25 4c0-.42.33-.75.75-.75h4c.41 0 .75.33.75.75v16c0 .41-.34.75-.75.75H2c-.42 0-.75-.34-.75-.75V4Zm1.5.75v14.5h2.5V4.75h-2.5Z"/><path d="M5.25 20c0-.42.33-.75.75-.75h16c.41 0 .75.33.75.75 0 .41-.34.75-.75.75H6c-.42 0-.75-.34-.75-.75Z"/><path d="M22.75 8c0-.42-.34-.75-.75-.75h-7.29c-.64 0-1.26.21-1.75.62l-4.04 3.29c-.76.61-1.2 1.54-1.2 2.51v.81c0 1.79 1.45 3.25 3.25 3.25h2c.41 0 .75-.34.75-.75 0-.42-.34-.75-.75-.75h-2c-.97 0-1.75-.79-1.75-1.75v-.82c0-.53.23-1.03.64-1.36L13.89 9c.22-.19.5-.29.79-.29h6.53v7.5h-4.25c-.42 0-.75.33-.75.75 0 .41.33.75.75.75h5c.41 0 .75-.34.75-.75v-9Z"/><path d="M19.41 7.37c-.35-.23-.82-.14-1.04.2l-1.78 2.66h-6.1c-.42 0-.75.33-.75.75 0 .41.33.75.74.75h6.5c.25 0 .48-.13.62-.34l2-3c.22-.35.13-.82-.21-1.05Z"/></g></svg>