<svg viewBox="0 0 24 24" xmlns="http://www.w3.org/2000/svg"><g fill-rule="evenodd"><path d="M1.25 15c0-.42.33-.75.75-.75h14.29c.62 0 1.23.21 1.71.6l3.88 3.11c.53.42.84 1.07.84 1.75v.77c0 1.24-1.01 2.25-2.25 2.25H1.97c-.42 0-.75-.34-.75-.75v-7Zm1.5.75v5.5H20.5c.41 0 .75-.34.75-.75v-.78c0-.23-.11-.45-.29-.59l-3.89-3.12c-.23-.18-.5-.28-.79-.28H2.73Z"/><path d="M22.75 2c0-.42-.34-.75-.75-.75H7.7c-.63 0-1.24.21-1.72.6L2.09 4.96c-.54.42-.85 1.07-.85 1.75v.77c0 1.24 1 2.25 2.25 2.25h3.5c.41 0 .75-.34.75-.75 0-.42-.34-.75-.75-.75h-3.5c-.42 0-.75-.34-.75-.75V6.7c0-.23.1-.45.28-.59L6.9 2.99c.22-.18.49-.28.78-.28h13.54v5.5H10.97c-.42 0-.75.33-.75.75 0 .41.33.75.75.75h11c.41 0 .75-.34.75-.75v-7Z"/><path d="M10.51 14.42c.31-.27.79-.23 1.05.09l2.27 2.73h6.64c.41 0 .75.33.75.75 0 .41-.34.75-.75.75h-7c-.23 0-.44-.1-.58-.27l-2.5-3c-.27-.32-.23-.8.09-1.06Z"/><path d="M13.48 1.42c-.32-.27-.8-.23-1.06.09l-2.28 2.73H3.49c-.42 0-.75.33-.75.75 0 .41.33.75.75.75h7c.22 0 .43-.1.57-.27l2.5-3c.26-.32.22-.8-.1-1.06Z"/><path d="M7.58 14.37c.34-.23.81-.14 1.04.2l1.99 3c.15.23.16.52.03.76 -.14.24-.39.39-.67.39h-8c-.42 0-.75-.34-.75-.75 0-.42.33-.75.75-.75h6.59l-1.23-1.84c-.23-.35-.14-.82.2-1.04Z"/><path d="M16.416 1.37c-.35-.23-.82-.14-1.04.2l-2 3c-.16.23-.17.52-.04.76s.38.39.66.39h8c.41 0 .75-.34.75-.75 0-.42-.34-.75-.75-.75h-6.6l1.22-1.84c.22-.35.13-.82-.21-1.05Z"/><path d="M15.03 10.41c.27-.22.66-.22.93 0l2.5 2c.32.25.37.73.11 1.05 -.26.32-.74.37-1.06.11l-2.04-1.63 -2.04 1.62c-.33.25-.8.2-1.06-.12 -.26-.33-.21-.8.11-1.06l2.5-2Z"/><path d="M8.03 13.58c.27.21.66.21.93 0l2.49-2c.32-.26.37-.74.11-1.06 -.26-.33-.74-.38-1.06-.12l-2.04 1.62 -2.04-1.63c-.33-.26-.8-.21-1.06.11s-.21.79.11 1.05l2.5 2Z"/></g></svg>