<svg viewBox="0 0 24 24" xmlns="http://www.w3.org/2000/svg"><g fill-rule="evenodd"><path d="M2.75 8c0-.42.33-.75.75-.75h11c.41 0 .75.33.75.75v14c0 .41-.34.75-.75.75h-11c-.42 0-.75-.34-.75-.75V8Zm1.5.75v12.5h9.5V8.75h-9.5Z"/><path d="M8.75 2c0-.42.33-.75.75-.75h11c.41 0 .75.33.75.75v3c0 .41-.34.75-.75.75 -.42 0-.75-.34-.75-.75V2.75h-9.5V8c0 .41-.34.75-.75.75 -.42 0-.75-.34-.75-.75V2ZM20.5 8.25c.41 0 .75.33.75.75v7c0 .41-.34.75-.75.75h-6c-.42 0-.75-.34-.75-.75 0-.42.33-.75.75-.75h5.25V9c0-.42.33-.75.75-.75Z"/><path d="M9.24 1.29c.29-.11.62-.02.83.22l5 6c.18.22.22.53.1.79 -.13.26-.39.43-.68.43h-5c-.42 0-.75-.34-.75-.75v-6c0-.32.19-.6.49-.71Zm1 2.77v3.17h2.64l-2.65-3.18Z"/><path d="M9 19.25c-.42 0-.75-.34-.75-.75v-8c0-.42.33-.75.75-.75 .41 0 .75.33.75.75v8c0 .41-.34.75-.75.75Z"/><path d="M4.84 15.37c-.21-.36-.09-.82.27-1.03l3.5-2c.23-.14.51-.14.74 0l3.49 2c.35.2.48.66.27 1.02 -.21.35-.67.48-1.03.27l-3.13-1.79 -3.13 1.78c-.36.2-.82.08-1.03-.28Z"/><path d="M6.32 18.83c-.19-.38-.04-.83.33-1.01l2-1c.21-.11.45-.11.67 0l2 1c.37.18.52.63.33 1s-.64.52-1.01.33l-1.67-.84 -1.67.83c-.38.18-.83.03-1.01-.34Z"/></g></svg>