<svg viewBox="0 0 24 24" xmlns="http://www.w3.org/2000/svg"><g fill-rule="evenodd"><path d="M4.25 6c0-.42.33-.75.75-.75h14c.41 0 .75.33.75.75v2c0 .41-.34.75-.75.75 -.42 0-.75-.34-.75-.75V6.75H5.75v14.5h12.5V12c0-.42.33-.75.75-.75 .41 0 .75.33.75.75v10c0 .41-.34.75-.75.75H5c-.42 0-.75-.34-.75-.75V6Z"/><path d="M17.43 1.39c.19.14.31.36.31.6v4c0 .41-.34.75-.75.75 -.42 0-.75-.34-.75-.75V3.03L5.22 6.7c-.4.13-.82-.09-.95-.48 -.14-.4.08-.82.47-.95l12-4c.22-.08.48-.04.67.1Z"/><path d="M12 10.25c-2.08 0-3.75 1.67-3.75 3.75 0 2.07 1.67 3.75 3.75 3.75 2.07 0 3.75-1.68 3.75-3.75 0-2.08-1.68-3.75-3.75-3.75ZM6.75 14c0-2.9 2.35-5.25 5.25-5.25 2.89 0 5.25 2.35 5.25 5.25 0 2.89-2.36 5.25-5.25 5.25 -2.9 0-5.25-2.36-5.25-5.25Z"/><path d="M11.64 11.43c-.24.61-.4 1.52-.4 2.56 0 1.03.15 1.94.39 2.56 .11.31.23.51.33.62 0 0 .01.01.02.02 0-.01.01-.02.02-.03 .09-.11.21-.32.33-.63 .23-.62.39-1.53.39-2.57 0-1.04-.16-1.95-.4-2.57 -.12-.32-.24-.52-.34-.63 -.01-.01-.02-.02-.03-.03 -.01 0-.02.01-.03.02 -.1.1-.22.31-.34.62Zm.41-.7s-.01 0-.01 0c0-.01 0-.01 0-.01Zm-.12 0c-.01-.01-.01-.01-.01-.01 0-.01 0 0 0 0Zm-.01 6.519c0-.01 0-.01 0-.01 -.01 0-.01 0-.01 0Zm.11-.01s0 0 0 0 -.01-.01-.01-.01Zm-1.2-7.45c.26-.3.64-.57 1.14-.57 .49 0 .88.27 1.14.56 .26.29.46.68.61 1.09 .31.82.48 1.92.48 3.09s-.18 2.26-.49 3.09c-.16.41-.36.79-.62 1.09 -.27.29-.65.56-1.15.56 -.5 0-.89-.28-1.15-.57 -.27-.3-.47-.69-.62-1.1 -.32-.83-.49-1.93-.49-3.1 0-1.18.17-2.27.48-3.1 .15-.42.35-.8.61-1.1Z"/><path d="M6.75 14c0-.42.33-.75.75-.75h9c.41 0 .75.33.75.75 0 .41-.34.75-.75.75h-9c-.42 0-.75-.34-.75-.75Z"/></g></svg>