<svg viewBox="0 0 24 24" xmlns="http://www.w3.org/2000/svg"><g fill-rule="evenodd"><path d="M4.25 10c0-.42.33-.75.75-.75h14c.41 0 .75.33.75.75 0 1.24 1 2.25 2.25 2.25 .41 0 .75.33.75.75v5c0 .41-.34.75-.75.75 -1.25 0-2.25 1-2.25 2.25 0 .41-.34.75-.75.75h-9c-.42 0-.75-.34-.75-.75 0-.42.33-.75.75-.75h8.32c.29-1.47 1.45-2.63 2.92-2.93v-3.65c-1.47-.3-2.63-1.46-2.93-2.93H5.66c-.3 1.46-1.46 2.62-2.93 2.92v3.65c1.46.29 2.62 1.45 2.92 2.92h.32c.41 0 .75.33.75.75 0 .41-.34.75-.75.75h-1c-.42 0-.75-.34-.75-.75 0-1.25-1.01-2.25-2.25-2.25 -.42 0-.75-.34-.75-.75v-5c0-.42.33-.75.75-.75 1.24 0 2.25-1.01 2.25-2.25Z"/><path d="M8.75 12.5c0-.42.33-.75.75-.75h5c.41 0 .75.33.75.75V17c0 .41-.34.75-.75.75h-5c-.42 0-.75-.34-.75-.75v-4.5Zm1.5.75v3h3.5v-3h-3.5Z"/><path d="M10.5 16.25c.41 0 .75.33.75.75v2c0 .41-.34.75-.75.75 -.42 0-.75-.34-.75-.75v-2c0-.42.33-.75.75-.75Z"/><path d="M13.5 16.25c.41 0 .75.33.75.75v2c0 .41-.34.75-.75.75 -.42 0-.75-.34-.75-.75v-2c0-.42.33-.75.75-.75Z"/><path d="M16.53 2.46c.29.29.29.76 0 1.06l-4.5 4.5c-.15.14-.34.21-.54.21 -.2-.01-.39-.08-.54-.22l-2-2c-.3-.3-.3-.77 0-1.07 .29-.3.76-.3 1.06 0l1.46 1.46 3.96-3.97c.29-.3.76-.3 1.06 0Z"/></g></svg>