<svg viewBox="0 0 24 24" xmlns="http://www.w3.org/2000/svg"><g fill-rule="evenodd"><path d="M1.25 10c0-.42.33-.75.75-.75h2c.41 0 .75.33.75.75 0 .41-.34.75-.75.75H2.75v1.58c1.43.33 2.5 1.62 2.5 3.16 0 1.53-1.07 2.82-2.5 3.16v1.58h18.5v-1.59c-1.44-.34-2.5-1.63-2.5-3.17s1.06-2.83 2.5-3.17v-1.59H8c-.42 0-.75-.34-.75-.75 0-.42.33-.75.75-.75h14c.41 0 .75.33.75.75v3c0 .41-.34.75-.75.75 -.97 0-1.75.78-1.75 1.75 0 .96.78 1.75 1.75 1.75 .41 0 .75.33.75.75v3c0 .41-.34.75-.75.75H2c-.42 0-.75-.34-.75-.75v-3c0-.42.33-.75.75-.75 .96 0 1.75-.79 1.75-1.75 0-.97-.79-1.75-1.75-1.75 -.42 0-.75-.34-.75-.75v-3Z"/><path d="M7.25 15.5c0-.42.33-.75.75-.75h8c.41 0 .75.33.75.75 0 .41-.34.75-.75.75H8c-.42 0-.75-.34-.75-.75Z"/><path d="M11.12 11.34c.35-.21.81-.09 1.02.27l2 3.5c.13.23.13.51 0 .74l-2 3.5c-.21.35-.67.48-1.03.27 -.36-.21-.49-.67-.28-1.03l1.78-3.13 -1.79-3.13c-.21-.36-.09-.82.27-1.03Z"/><path d="M7.66 12.82c.37-.19.82-.04 1 .33l1 2c.1.21.1.45 0 .67l-1 2c-.19.37-.64.52-1.01.33 -.38-.19-.53-.64-.34-1.01l.83-1.67 -.84-1.67c-.19-.38-.04-.83.33-1.01Z"/><path d="M16.03 2.46c.29.29.29.76 0 1.06l-4.5 4.5c-.15.14-.34.21-.54.21 -.2-.01-.39-.08-.54-.22l-2-2c-.3-.3-.3-.77 0-1.07 .29-.3.76-.3 1.06 0l1.46 1.46 3.96-3.97c.29-.3.76-.3 1.06 0Z"/></g></svg>