<svg viewBox="0 0 24 24" xmlns="http://www.w3.org/2000/svg"><g fill-rule="evenodd"><path d="M3 4c0-1.66 1.34-3 3-3h14c1.65 0 3 1.34 3 3v6.5c0 .42-.27.8-.67.94 -.41.14-.85.01-1.12-.32l-1.7-2.13H5.99c-1.66 0-3-1.35-3-3v-2Zm3-1c-.56 0-1 .44-1 1v2c0 .55.44 1 1 1h14c.3 0 .59.13.78.37l.21.27V3.99c0-.56-.45-1-1-1h-14Z"/><path d="M19 6H7V4h12v2Z"/><path d="M17 17.5H5v-2h12v2Z"/><path d="M21 15.5c0-1.66-1.35-3-3-3H4c-1.66 0-3 1.34-3 3V22c0 .42.26.8.66.94 .4.14.84.01 1.11-.32l1.69-2.13h13.51c1.65 0 3-1.35 3-3v-2Zm-3-1c.55 0 1 .44 1 1v2c0 .55-.45 1-1 1H4c-.31 0-.6.13-.79.37l-.22.27v-3.65c0-.56.44-1 1-1h14Z"/></g></svg>