<svg viewBox="0 0 24 24" xmlns="http://www.w3.org/2000/svg"><g fill-rule="evenodd"><path d="M12 4c4.41 0 8 3.58 8 8v8h-8c-4.42 0-8-3.59-8-8 0-4.42 3.58-8 8-8Zm10 8c0-5.53-4.48-10-10-10C6.47 2 2 6.47 2 12c0 5.52 4.47 10 10 10h9c.55 0 1-.45 1-1v-9Z"/><path d="M5 12.5c0-1.11.89-2 2-2 1.1 0 2 .89 2 2 0 1.1-.9 2-2 2 -1.11 0-2-.9-2-2Z"/><path d="M10 12.5c0-1.11.89-2 2-2 1.1 0 2 .89 2 2 0 1.1-.9 2-2 2 -1.11 0-2-.9-2-2Z"/><path d="M15 12.5c0-1.11.89-2 2-2 1.1 0 2 .89 2 2 0 1.1-.9 2-2 2 -1.11 0-2-.9-2-2Z"/></g></svg>