<svg viewBox="0 0 24 24" xmlns="http://www.w3.org/2000/svg"><g fill-rule="evenodd"><path d="M12 4c4.41 0 8 3.58 8 8 0 1.26-.3 2.46-.82 3.52 -.15.29-.2.63-.13.97l.66 3.24 -3.38-.64c-.33-.07-.65-.02-.93.12 -1.04.49-2.2.76-3.43.76 -4.42 0-8-3.59-8-8 0-4.42 3.58-8 8-8Zm10 8c0-5.53-4.48-10-10-10C6.47 2 2 6.47 2 12c0 5.52 4.47 10 10 10 1.47 0 2.87-.32 4.13-.9l3.94.73c1.04.19 1.95-.74 1.74-1.78l-.79-3.81c.61-1.3.95-2.74.95-4.27Z"/><path d="M15.5 10.75h-7v-2h7v2Z"/><path d="M15.5 15.25h-7v-2h7v2Z"/></g></svg>