<svg viewBox="0 0 24 24" xmlns="http://www.w3.org/2000/svg"><g fill-rule="evenodd"><path d="M2 6c0-1.66 1.34-3 3-3h14c1.65 0 3 1.34 3 3v14c0 .36-.21.7-.53.88 -.33.17-.72.15-1.03-.05l-4.25-2.84H4.99c-1.66 0-3-1.35-3-3v-9Zm3-1c-.56 0-1 .44-1 1v9c0 .55.44 1 1 1h11.5c.19 0 .39.05.55.16l2.94 1.96V5.98c0-.56-.45-1-1-1h-14Z"/><path d="M8.06 11.77c-1.37-1.37-1.37-3.59 0-4.95 1.15-1.16 2.9-1.34 4.24-.55 1.34-.79 3.09-.61 4.24.54 1.36 1.36 1.36 3.58 0 4.94L13 15.28c-.4.39-1.03.39-1.42 0l-3.54-3.54Zm1.41-3.54c-.59.58-.59 1.53 0 2.12l2.82 2.82 2.82-2.83c.58-.59.58-1.54 0-2.13 -.59-.59-1.54-.59-2.13 0 -.4.39-1.03.39-1.42 0 -.59-.59-1.54-.59-2.13 0Z"/></g></svg>