<svg viewBox="0 0 24 24" xmlns="http://www.w3.org/2000/svg"><g fill-rule="evenodd"><path d="M22 3.75c0-.56-.45-1-1-1H3c-.56 0-1 .44-1 1v13c0 .55.44 1 1 1h5.08l3.2 3.2c.39.39 1.02.39 1.41 0l3.2-3.21h5.08c.55 0 1-.45 1-1v-13Zm-2 1v11h-4.5c-.27 0-.52.1-.71.29l-2.8 2.79 -2.8-2.8c-.19-.19-.45-.3-.71-.3h-4.5v-11h16Z"/><path d="M8 11.72c-1.37-1.37-1.37-3.59 0-4.95 1.15-1.16 2.9-1.34 4.24-.55 1.34-.79 3.09-.61 4.24.54 1.36 1.36 1.36 3.58 0 4.94l-3.54 3.53c-.4.39-1.03.39-1.42 0l-3.54-3.54Zm1.41-3.54c-.59.58-.59 1.53 0 2.12l2.82 2.82 2.82-2.83c.58-.59.58-1.54 0-2.13 -.59-.59-1.54-.59-2.13 0 -.4.39-1.03.39-1.42 0 -.59-.59-1.54-.59-2.13 0Z"/></g></svg>