<svg viewBox="0 0 24 24" xmlns="http://www.w3.org/2000/svg"><g fill-rule="evenodd"><path d="M22 3.75c0-.56-.45-1-1-1H3c-.56 0-1 .44-1 1v13c0 .55.44 1 1 1h5.08l3.2 3.2c.39.39 1.02.39 1.41 0l3.2-3.21h5.08c.55 0 1-.45 1-1v-13Zm-2 1v11h-4.5c-.27 0-.52.1-.71.29l-2.8 2.79 -2.8-2.8c-.19-.19-.45-.3-.71-.3h-4.5v-11h16Z"/><path d="M12 7.5c-1.66 0-3 1.34-3 3 0 1.65 1.34 3 3 3 1.65 0 3-1.35 3-3 0-1.66-1.35-3-3-3Zm-5 3c0-2.77 2.23-5 5-5 2.76 0 5 2.23 5 5 0 2.76-2.24 5-5 5 -2.77 0-5-2.24-5-5Z"/><path d="M8.46 6.96c.39-.4 1.02-.4 1.41 0l5.65 5.65c.39.39.39 1.02 0 1.41 -.4.39-1.03.39-1.42 0L8.44 8.36c-.4-.4-.4-1.03 0-1.42Z"/></g></svg>