<svg viewBox="0 0 24 24" xmlns="http://www.w3.org/2000/svg"><g fill-rule="evenodd"><path d="M20.662 9.24c1.17-1.18 1.17-3.08 0-4.25l-1.42-1.42c-1.18-1.18-3.08-1.18-4.25 0l-9.9 9.89c-.14.13-.24.31-.28.51l-1.07 5.3c-.07.32.03.66.27.9 .23.23.57.33.9.27l5.3-1.07c.19-.04.37-.14.51-.28l9.89-9.9Zm-1.42-2.83c.39.39.39 1.02 0 1.41L9.55 17.5l-3.54.7 .7-3.54 9.68-9.69c.39-.4 1.02-.4 1.41 0l1.41 1.41Z"/><path d="M14.29 5.7l4.24 4.24 1.41-1.42 -4.25-4.25 -1.42 1.41Z"/><path d="M5.1 14.9l4.24 4.24 1.41-1.42 -4.25-4.25 -1.42 1.41Z"/></g></svg>