<svg viewBox="0 0 24 24" xmlns="http://www.w3.org/2000/svg"><g fill-rule="evenodd"><path d="M17.96 7.07c.02-.59-.46-1.08-1.05-1.05l-3.24.15c-.95.04-1.81.52-2.34 1.3l-3.21 4.7c-.71 1.04-.58 2.44.31 3.33 .89.89 2.29 1.02 3.33.31l4.7-3.21c.77-.54 1.26-1.4 1.3-2.34l.15-3.24Zm-1.15-3.05c1.76-.09 3.22 1.37 3.13 3.13l-.16 3.23c-.08 1.56-.89 3.01-2.19 3.89l-4.71 3.2c-1.84 1.24-4.31 1.01-5.88-.56 -1.58-1.58-1.81-4.04-.56-5.88l3.2-4.71c.88-1.3 2.32-2.11 3.89-2.19l3.23-.16Z"/><path d="M14.47 10.93l-8.84 8.83 -1.42-1.42 8.83-8.84 1.41 1.41Z"/></g></svg>