<svg viewBox="0 0 24 24" xmlns="http://www.w3.org/2000/svg"><g fill-rule="evenodd"><path d="M9.8 5.6c.12.09.19.24.19.39v5.5h12c.27 0 .5.22.5.5v2.5c0 .11-.04.22-.11.31l-2 2.5 -.79-.63 1.89-2.37v-1.83h-12c-.28 0-.5-.23-.5-.5V6.61l-1.22.3 -2.88 3.69c-.25.32-.36.73-.31 1.13l.35 2.49 2.23 2.23h8.79v1h-9c-.14 0-.26-.06-.36-.15l-2.5-2.5c-.08-.08-.13-.18-.15-.29l-.38-2.66c-.1-.68.08-1.36.5-1.89l2.97-3.83c.06-.09.16-.16.27-.18l2-.5c.14-.04.3-.01.42.09Z"/><path d="M4 15.5c-.83 0-1.5.67-1.5 1.5 0 .82.67 1.5 1.5 1.5 .82 0 1.5-.68 1.5-1.5 0-.83-.68-1.5-1.5-1.5ZM1.5 17c0-1.39 1.11-2.5 2.5-2.5 1.38 0 2.5 1.11 2.5 2.5 0 1.38-1.12 2.5-2.5 2.5 -1.39 0-2.5-1.12-2.5-2.5Z"/><path d="M18 15.5c-.83 0-1.5.67-1.5 1.5 0 .82.67 1.5 1.5 1.5 .82 0 1.5-.68 1.5-1.5 0-.83-.68-1.5-1.5-1.5ZM15.5 17c0-1.39 1.11-2.5 2.5-2.5 1.38 0 2.5 1.11 2.5 2.5 0 1.38-1.12 2.5-2.5 2.5 -1.39 0-2.5-1.12-2.5-2.5Z"/><path d="M9.43 5.5l7.5-1 .13.99 -7.51 1 -.14-1Z"/><path d="M16.67 4.61c.11-.1.26-.14.4-.12l3 .5c.18.03.34.16.39.34l2 6.5c.04.15.01.31-.08.44 -.1.12-.25.2-.41.2h-5c-.28 0-.5-.23-.5-.5v-7c0-.15.06-.29.17-.39Zm.82.97v5.9h3.82L19.6 5.92l-2.12-.36Z"/><path d="M6.5 11.82h-2v-1h2v1Z"/></g></svg>