<svg viewBox="0 0 24 24" xmlns="http://www.w3.org/2000/svg"><g fill-rule="evenodd"><path d="M6.11 7.67c.09-.12.23-.18.38-.18h4.5c.27 0 .5.22.5.5v8c0 .27-.23.5-.5.5h-3v-1h2.5v-7H6.72l-2.36 2.82c-.1.11-.24.17-.39.17h-1c-.28 0-.5.22-.5.5v3.5h1.5v1h-2c-.28 0-.5-.23-.5-.5v-4c0-.83.67-1.5 1.5-1.5h.76l2.35-2.83Z"/><path d="M22.5 6c0-.28-.23-.5-.5-.5H11c-.28 0-.5.22-.5.5v10c0 .27.22.5.5.5h4v-1h-3.5v-9h10v9H19v1h3c.27 0 .5-.23.5-.5V6Z"/><path d="M6 14.5c-.83 0-1.5.67-1.5 1.5 0 .82.67 1.5 1.5 1.5 .82 0 1.5-.68 1.5-1.5 0-.83-.68-1.5-1.5-1.5ZM3.5 16c0-1.39 1.11-2.5 2.5-2.5 1.38 0 2.5 1.11 2.5 2.5 0 1.38-1.12 2.5-2.5 2.5 -1.39 0-2.5-1.12-2.5-2.5Z"/><path d="M17 14.5c-.83 0-1.5.67-1.5 1.5 0 .82.67 1.5 1.5 1.5 .82 0 1.5-.68 1.5-1.5 0-.83-.68-1.5-1.5-1.5ZM14.5 16c0-1.39 1.11-2.5 2.5-2.5 1.38 0 2.5 1.11 2.5 2.5 0 1.38-1.12 2.5-2.5 2.5 -1.39 0-2.5-1.12-2.5-2.5Z"/></g></svg>