<svg viewBox="0 0 24 24" xmlns="http://www.w3.org/2000/svg"><g fill-rule="evenodd"><path d="M11.5 12.5c-.28 0-.5.22-.5.5v8c0 .27.22.5.5.5h1c.27 0 .5-.23.5-.5v-8c0-.28-.23-.5-.5-.5h-1ZM10 13c0-.83.67-1.5 1.5-1.5h1c.82 0 1.5.67 1.5 1.5v8c0 .82-.68 1.5-1.5 1.5h-1c-.83 0-1.5-.68-1.5-1.5v-8Z"/><path d="M12 2.5c-.83 0-1.5.67-1.5 1.5 0 .82.67 1.5 1.5 1.5 .82 0 1.5-.68 1.5-1.5 0-.83-.68-1.5-1.5-1.5ZM9.5 4c0-1.39 1.11-2.5 2.5-2.5 1.38 0 2.5 1.11 2.5 2.5 0 1.38-1.12 2.5-2.5 2.5 -1.39 0-2.5-1.12-2.5-2.5Z"/><path d="M5.39 4.01l4.5-1 .21.97 -4.5 1L5.38 4Z"/><path d="M18.6 4.01l-4.5-1 -.22.97 4.5 1 .21-.98Z"/><path d="M9.5 10c-.56 0-1 .44-1 1v7h-1v-7c0-1.11.89-2 2-2h5c1.1 0 2 .89 2 2v7h-1v-7c0-.56-.45-1-1-1h-5Z"/><path d="M10 9.5v-4h1v4h-1Z"/><path d="M13 9.5v-4h1v4h-1Z"/></g></svg>