<svg viewBox="0 0 24 24" xmlns="http://www.w3.org/2000/svg"><g fill-rule="evenodd"><path d="M7.64 6.64c.09-.1.22-.15.35-.15h3c.27 0 .5.22.5.5v8c0 .27-.23.5-.5.5H7.9v-1h2.58v-7h-2.3l-2.86 2.85c-.1.09-.23.14-.36.14h-2c-.28 0-.5.22-.5.5v3.5h1.5v1h-2c-.28 0-.5-.23-.5-.5v-4c0-.83.67-1.5 1.5-1.5h1.79L7.6 6.62Z"/><path d="M22.5 3c0-.28-.23-.5-.5-.5H9c-.28 0-.5.22-.5.5v1.5c0 .15.07.3.2.4l1.8 1.35V15c0 .27.22.5.5.5h5v-1h-4.5V6c0-.16-.08-.31-.2-.4L9.5 4.25V3.5h12v11H20v1h2c.27 0 .5-.23.5-.5V3Z"/><path d="M6 13.5c-.83 0-1.5.67-1.5 1.5 0 .82.67 1.5 1.5 1.5 .82 0 1.5-.68 1.5-1.5 0-.83-.68-1.5-1.5-1.5ZM3.5 15c0-1.39 1.11-2.5 2.5-2.5 1.38 0 2.5 1.11 2.5 2.5 0 1.38-1.12 2.5-2.5 2.5 -1.39 0-2.5-1.12-2.5-2.5Z"/><path d="M18 13.5c-.83 0-1.5.67-1.5 1.5 0 .82.67 1.5 1.5 1.5 .82 0 1.5-.68 1.5-1.5 0-.83-.68-1.5-1.5-1.5ZM15.5 15c0-1.39 1.11-2.5 2.5-2.5 1.38 0 2.5 1.11 2.5 2.5 0 1.38-1.12 2.5-2.5 2.5 -1.39 0-2.5-1.12-2.5-2.5Z"/><path d="M14.5 6c0-.28.22-.5.5-.5h4c.27 0 .5.22.5.5v3c0 .27-.23.5-.5.5h-4c-.28 0-.5-.23-.5-.5V6Zm1 .5v2h3v-2h-3Z"/></g></svg>