<svg viewBox="0 0 24 24" xmlns="http://www.w3.org/2000/svg"><g fill-rule="evenodd"><path d="M6.53 3.81c.07-.19.25-.32.46-.32h10c.2 0 .38.12.46.31l2 5c.06.15.04.32-.06.46 -.1.13-.25.21-.42.21h-14c-.17 0-.33-.09-.42-.22 -.1-.14-.12-.32-.06-.47l2-5Zm.8.68l-1.6 4h12.523l-1.6-4H7.32Z"/><path d="M2.5 10c0-.83.67-1.5 1.5-1.5h16c.82 0 1.5.67 1.5 1.5v5c0 .82-.68 1.5-1.5 1.5H4c-.83 0-1.5-.68-1.5-1.5v-5ZM4 9.5c-.28 0-.5.22-.5.5v5c0 .27.22.5.5.5h16c.27 0 .5-.23.5-.5v-5c0-.28-.23-.5-.5-.5H4Z"/><path d="M4.5 16v3c0 .27.22.5.5.5h2c.27 0 .5-.23.5-.5v-3h1v3c0 .82-.68 1.5-1.5 1.5H5c-.83 0-1.5-.68-1.5-1.5v-3h1Z"/><path d="M16.5 16v3c0 .27.22.5.5.5h2c.27 0 .5-.23.5-.5v-3h1v3c0 .82-.68 1.5-1.5 1.5h-2c-.83 0-1.5-.68-1.5-1.5v-3h1Z"/><path d="M18 12.5h-3v-1h3v1Z"/><path d="M9 12.5H6v-1h3v1Z"/></g></svg>