<svg viewBox="0 0 24 24" xmlns="http://www.w3.org/2000/svg"><g fill-rule="evenodd"><path d="M9.14 6.14c.09-.1.22-.15.35-.15h12.5c.27 0 .5.22.5.5v8.5c0 .27-.23.5-.5.5h-2v-1h1.5v-7.5H9.69l-4.21 4.2v3.29h11.5v1h-12c-.28 0-.5-.23-.5-.5v-4c0-.14.05-.26.14-.36l4.5-4.5Z"/><path d="M18.5 14c-.56 0-1 .44-1 1 0 .55.44 1 1 1 .55 0 1-.45 1-1 0-.56-.45-1-1-1Zm-2 1c0-1.11.89-2 2-2 1.1 0 2 .89 2 2 0 1.1-.9 2-2 2 -1.11 0-2-.9-2-2Z"/><path d="M1.5 15c0-.28.22-.5.5-.5h4v1H2.5v2h-1V15Z"/><path d="M9.5 10c0-.28.22-.5.5-.5h3c.27 0 .5.22.5.5v5c0 .27-.23.5-.5.5h-3c-.28 0-.5-.23-.5-.5v-5Zm1 .5v4h2v-4h-2Z"/><path d="M19.5 10.5H16v-1h3.5v1Z"/></g></svg>