<svg viewBox="0 0 24 24" xmlns="http://www.w3.org/2000/svg"><g fill-rule="evenodd"><path d="M11.5 12.5c-.28 0-.5.22-.5.5v8c0 .27.22.5.5.5h1c.27 0 .5-.23.5-.5v-8c0-.28-.23-.5-.5-.5h-1ZM10 13c0-.83.67-1.5 1.5-1.5h1c.82 0 1.5.67 1.5 1.5v8c0 .82-.68 1.5-1.5 1.5h-1c-.83 0-1.5-.68-1.5-1.5v-8Z"/><path d="M12 6.5c-.83 0-1.5.67-1.5 1.5 0 .82.67 1.5 1.5 1.5 .82 0 1.5-.68 1.5-1.5 0-.83-.68-1.5-1.5-1.5ZM9.5 8c0-1.39 1.11-2.5 2.5-2.5 1.38 0 2.5 1.11 2.5 2.5 0 1.38-1.12 2.5-2.5 2.5 -1.39 0-2.5-1.12-2.5-2.5Z"/><path d="M6.57 2.5l3.49.5 -.15.98 -3.5-.5 .14-.99Z"/><path d="M17.42 2.5l-3.5.5 .14.98 3.5-.5 -.15-.99Z"/><path d="M9.5 10c-.56 0-1 .44-1 1v7h-1v-7c0-1.11.89-2 2-2h1v1h-1Zm5 0h-1V9h1c1.1 0 2 .89 2 2v7h-1v-7c0-.56-.45-1-1-1Z"/><path d="M11.5 4H10V3h4v1h-1.5v2h-1V4Z"/></g></svg>