<svg viewBox="0 0 24 24" xmlns="http://www.w3.org/2000/svg"><g fill-rule="evenodd"><path d="M1.5 14.5c0-.28.22-.5.5-.5h20c.27 0 .5.22.5.5V17h-1v-2h-19v2h-1v-2.5Z"/><path d="M14 14.5c0-.28.22-.5.5-.5H19c.27 0 .5.22.5.5V16c0 .82-.68 1.5-1.5 1.5h-2.5c-.83 0-1.5-.68-1.5-1.5v-1.5Zm1 .5v1c0 .27.22.5.5.5H18c.27 0 .5-.23.5-.5v-1H15Z"/><path d="M4.5 14.5c0-.28.22-.5.5-.5h4.5c.27 0 .5.22.5.5V16c0 .82-.68 1.5-1.5 1.5H6c-.83 0-1.5-.68-1.5-1.5v-1.5Zm1 .5v1c0 .27.22.5.5.5h2.5c.27 0 .5-.23.5-.5v-1H5.5Z"/><path d="M2.58 6.71c.09-.14.24-.22.41-.22h18c.16 0 .32.08.41.21 .09.13.11.31.05.46l-3 7.5c-.08.18-.26.31-.47.31h-12c-.21 0-.39-.13-.47-.32l-3-7.5c-.07-.16-.05-.33.05-.47Zm1.15.78l2.6 6.5h11.32l2.6-6.5H3.72Z"/></g></svg>