<svg viewBox="0 0 24 24" xmlns="http://www.w3.org/2000/svg"><g fill-rule="evenodd"><path d="M11.87 8.01c.07-.02.16-.02.24 0l6 1.5c.22.05.37.25.37.48v2.83c0 1.5-.97 2.84-2.4 3.32l-3.95 1.31c-.11.03-.22.03-.32 0l-3.95-1.32c-1.43-.48-2.4-1.82-2.4-3.33V9.96c0-.23.15-.43.37-.49l5.99-1.5Zm-5.38 2.37v2.44c0 1.07.68 2.03 1.7 2.37l3.79 1.26 3.79-1.27c1.02-.35 1.7-1.3 1.7-2.38v-2.45l-5.5-1.38 -5.5 1.37Z"/><path d="M12.5 8.5V17h-1V8.5h1Z"/><path d="M8.51 4.89c.05-.23.25-.4.48-.4h5.99c.23 0 .43.16.48.39l1 4.5 -.98.21 -.92-4.11h-5.2l-.92 4.1 -.98-.22 1-4.5Z"/><path d="M3 15.5v-9h1v9H3Z"/><path d="M20 15.5v-9h1v9h-1Z"/><path d="M1.5 16.5c0-.83.67-1.5 1.5-1.5h1c.82 0 1.5.67 1.5 1.5V19c0 .27-.23.5-.5.5H2c-.28 0-.5-.23-.5-.5v-2.5ZM3 16c-.28 0-.5.22-.5.5v2h2v-2c0-.28-.23-.5-.5-.5H3Z"/><path d="M18.5 16.5c0-.83.67-1.5 1.5-1.5h1c.82 0 1.5.67 1.5 1.5V19c0 .27-.23.5-.5.5h-3c-.28 0-.5-.23-.5-.5v-2.5ZM20 16c-.28 0-.5.22-.5.5v2h2v-2c0-.28-.23-.5-.5-.5h-1Z"/></g></svg>