<svg viewBox="0 0 24 24" xmlns="http://www.w3.org/2000/svg"><g fill-rule="evenodd"><path d="M11.89 10.51c.06-.02.14-.02.2 0l7 1.5c.23.04.39.25.39.48v5.23c0 1.56-1.04 2.936-2.54 3.36l-4.83 1.37c-.09.02-.19.02-.28 0L7 21.07c-1.51-.43-2.54-1.81-2.54-3.37v-5.24c0-.24.16-.44.39-.49l6.99-1.5Zm-6.4 2.39v4.83c0 1.11.73 2.09 1.81 2.4l4.68 1.33 4.68-1.34c1.07-.31 1.81-1.29 1.81-2.41v-4.84l-6.5-1.4 -6.5 1.39Z"/><path d="M12.5 11v11h-1V11h1Z"/><path d="M5.5 9c0-.28.22-.5.5-.5h6c.27 0 .5.22.5.5v3h-1V9.5h-5V12h-1V9Z"/><path d="M11.5 9c0-.28.22-.5.5-.5h6c.27 0 .5.22.5.5v3h-1V9.5h-5V12h-1V9Z"/><path d="M11.5 6c0-.28.22-.5.5-.5h6c.27 0 .5.22.5.5v3c0 .27-.23.5-.5.5h-6c-.28 0-.5-.23-.5-.5V6Zm1 .5v2h5v-2h-5Z"/><path d="M5.5 6c0-.28.22-.5.5-.5h6c.27 0 .5.22.5.5v3c0 .27-.23.5-.5.5H6c-.28 0-.5-.23-.5-.5V6Zm1 .5v2h5v-2h-5Z"/><path d="M6.6 1.69c.09-.13.24-.2.39-.2h10c.15 0 .29.07.39.19 .09.12.12.27.09.42l-1 4c-.06.22-.26.37-.49.37h-8c-.23 0-.43-.16-.49-.38l-1-4c-.04-.15-.01-.31.09-.43Zm1.03.8l.75 3h7.21l.75-3H7.62Z"/></g></svg>