<svg viewBox="0 0 24 24" xmlns="http://www.w3.org/2000/svg"><g fill-rule="evenodd"><path d="M6.29 8.98c.21-.6.77-.99 1.4-.99h8.59c.63 0 1.19.39 1.4.98l1.76 4.84c.05.15.03.32-.07.45s-.25.21-.41.21h-14c-.17 0-.32-.08-.41-.22 -.1-.14-.12-.31-.07-.46l1.76-4.85Zm1.4.01c-.22 0-.4.13-.47.32L5.7 13.48h12.57L16.75 9.3c-.08-.2-.26-.33-.47-.33h-8.6Z"/><path d="M2.5 15c0-.83.67-1.5 1.5-1.5h16c.82 0 1.5.67 1.5 1.5v3c0 .82-.68 1.5-1.5 1.5H4c-.83 0-1.5-.68-1.5-1.5v-3Zm1.5-.5c-.28 0-.5.22-.5.5v3c0 .27.22.5.5.5h16c.27 0 .5-.23.5-.5v-3c0-.28-.23-.5-.5-.5H4Z"/><path d="M4.5 19v2c0 .27.22.5.5.5h2c.27 0 .5-.23.5-.5v-2h1v2c0 .82-.68 1.5-1.5 1.5H5c-.83 0-1.5-.68-1.5-1.5v-2h1Z"/><path d="M16.5 19v2c0 .27.22.5.5.5h2c.27 0 .5-.23.5-.5v-2h1v2c0 .82-.68 1.5-1.5 1.5h-2c-.83 0-1.5-.68-1.5-1.5v-2h1Z"/><path d="M18 17h-3v-1h3v1Z"/><path d="M9 17H6v-1h3v1Z"/><path d="M13.52 1.85c.06-.21.25-.36.47-.36h5c.27 0 .5.22.5.5v.5h-5.14l-1.9 6.14 -.96-.3 2-6.5Z"/><path d="M18.5 4V2h1v2.5c0 .27-.23.5-.5.5h-.75c-.42 0-.75.33-.75.75 0 .41.33.75.75.75H19v1h-.75c-.97 0-1.75-.79-1.75-1.75 0-.97.78-1.75 1.75-1.75h.25Z"/></g></svg>