<svg viewBox="0 0 24 24" xmlns="http://www.w3.org/2000/svg"><g fill-rule="evenodd"><path d="M7.64 8.64c.09-.1.22-.15.35-.15h4c.27 0 .5.22.5.5v8c0 .27-.23.5-.5.5h-4v-1h3.5v-7h-3.3l-2.86 2.85c-.1.09-.23.14-.36.14h-2c-.28 0-.5.22-.5.5v3.5h1.5v1h-2c-.28 0-.5-.23-.5-.5v-4c0-.83.67-1.5 1.5-1.5h1.79l2.85-2.86Z"/><path d="M22.5 13c0-.28-.23-.5-.5-.5H12c-.28 0-.5.22-.5.5v4c0 .27.22.5.5.5h3v-1h-2.5v-3h9v2.13l-2.66.88 .31.94 3-1c.2-.07.34-.26.34-.48v-3Z"/><path d="M6 15.5c-.83 0-1.5.67-1.5 1.5 0 .82.67 1.5 1.5 1.5 .82 0 1.5-.68 1.5-1.5 0-.83-.68-1.5-1.5-1.5ZM3.5 17c0-1.39 1.11-2.5 2.5-2.5 1.38 0 2.5 1.11 2.5 2.5 0 1.38-1.12 2.5-2.5 2.5 -1.39 0-2.5-1.12-2.5-2.5Z"/><path d="M17 15.5c-.83 0-1.5.67-1.5 1.5 0 .82.67 1.5 1.5 1.5 .82 0 1.5-.68 1.5-1.5 0-.83-.68-1.5-1.5-1.5ZM14.5 17c0-1.39 1.11-2.5 2.5-2.5 1.38 0 2.5 1.11 2.5 2.5 0 1.38-1.12 2.5-2.5 2.5 -1.39 0-2.5-1.12-2.5-2.5Z"/><path d="M15.51 4.87c.05-.23.25-.38.48-.38h5c.27 0 .5.22.5.5v.5h-5.11l-1.91 7.62 -.98-.25 2-8Z"/><path d="M20.5 7V5h1v2.5c0 .27-.23.5-.5.5h-.75c-.42 0-.75.33-.75.75 0 .41.33.75.75.75H21v1h-.75c-.97 0-1.75-.79-1.75-1.75 0-.97.78-1.75 1.75-1.75h.25Z"/></g></svg>