<svg viewBox="0 0 24 24" xmlns="http://www.w3.org/2000/svg"><g fill-rule="evenodd"><path d="M11.74 8.56c.15-.1.34-.1.5 0l6 3.49c.15.08.24.25.24.43v5.33c0 1.5-.97 2.84-2.4 3.32l-3.95 1.31c-.11.03-.22.03-.32 0l-3.95-1.32c-1.43-.48-2.4-1.82-2.4-3.33v-5.34c0-.18.09-.35.24-.44l6-3.5Zm-5.25 4.21v5.05c0 1.07.68 2.03 1.7 2.37l3.79 1.26 3.79-1.27c1.02-.35 1.7-1.3 1.7-2.38v-5.06l-5.5-3.21 -5.5 3.2Z"/><path d="M12.5 9v13h-1V9h1Z"/><path d="M7 6.5c0-.28.22-.5.5-.5h9c.27 0 .5.22.5.5v5h-1V7H8v4.5H7v-5Z"/><path d="M9.5 2c0-.28.22-.5.5-.5h4c.27 0 .5.22.5.5v4.5c0 .27-.23.5-.5.5h-4c-.28 0-.5-.23-.5-.5V2Zm1 .5V6h3V2.5h-3Z"/></g></svg>