<svg viewBox="0 0 24 24" xmlns="http://www.w3.org/2000/svg"><g fill-rule="evenodd"><path d="M1.5 14c0-3.04 2.46-5.5 5.5-5.5h7c.16 0 .32.08.41.22 .09.14.1.31.04.47l-3 7c-.08.18-.26.3-.46.3h-9c-.28 0-.5-.23-.5-.5v-2ZM7 9.5c-2.49 0-4.5 2.01-4.5 4.5v1.5h8.17l2.57-6H6.99Z"/><path d="M21.19 9.5l.36-.73 .89.44 -1.5 2.99c-.08.14-.22.25-.39.27l-8 1 -.13-1 7.73-.97 .51-1.04h-6.7v-1h7.19Z"/><path d="M22 6.5H2v-1h20v1Z"/><path d="M11.5 9V6h1v3h-1Z"/><path d="M14.5 19.5H2v-1h12.5v1Z"/><path d="M2.58 18.72l2-3 .83.55 -2 3 -.84-.56Zm9 .55l-2.01-3 .83-.56 2 3 -.84.55Z"/><path d="M8.5 10V9h1v1c0 1.93-1.57 3.5-3.5 3.5H2.5v-1H6c1.38 0 2.5-1.12 2.5-2.5Z"/></g></svg>