<svg viewBox="0 0 24 24" xmlns="http://www.w3.org/2000/svg"><g fill-rule="evenodd"><path d="M7.98 6.675c.45-.74 1.25-1.18 2.12-1.18h8.53c1.02 0 1.94.62 2.32 1.57l1.49 3.74c.02.05.03.12.03.18v5c0 .27-.23.5-.5.5h-2v-1h1.5v-4.41L20 7.41c-.23-.57-.78-.95-1.4-.95h-8.54c-.52 0-1 .26-1.28.7l-1.92 3.06c-.08.11-.19.19-.32.22l-3.33.73c-.46.1-.79.5-.79.97v3.29h1.5v1h-2c-.28 0-.5-.23-.5-.5v-3.8c0-.94.65-1.75 1.56-1.96l3.12-.7 1.8-2.89Zm.01 8.825h8v1h-8v-1Z"/><path d="M6 14.5c-.83 0-1.5.67-1.5 1.5 0 .82.67 1.5 1.5 1.5 .82 0 1.5-.68 1.5-1.5 0-.83-.68-1.5-1.5-1.5ZM3.5 16c0-1.39 1.11-2.5 2.5-2.5 1.38 0 2.5 1.11 2.5 2.5 0 1.38-1.12 2.5-2.5 2.5 -1.39 0-2.5-1.12-2.5-2.5Z"/><path d="M18 14.5c-.83 0-1.5.67-1.5 1.5 0 .82.67 1.5 1.5 1.5 .82 0 1.5-.68 1.5-1.5 0-.83-.68-1.5-1.5-1.5ZM15.5 16c0-1.39 1.11-2.5 2.5-2.5 1.38 0 2.5 1.11 2.5 2.5 0 1.38-1.12 2.5-2.5 2.5 -1.39 0-2.5-1.12-2.5-2.5Z"/></g></svg>