<svg viewBox="0 0 24 24" xmlns="http://www.w3.org/2000/svg"><g fill-rule="evenodd"><path d="M7.64 3.14c.09-.1.22-.15.35-.15h4c.27 0 .5.22.5.5v3.5h9.5c.27 0 .5.22.5.5v4c0 .27-.23.5-.5.5h-20c-.28 0-.5-.23-.5-.5v-4c0-.83.67-1.5 1.5-1.5h1.79l2.85-2.86Zm.56.85L5.34 6.84c-.1.09-.23.14-.36.14h-2c-.28 0-.5.22-.5.5v3.5h19v-3h-9.5c-.28 0-.5-.23-.5-.5v-3.5h-3.3Z"/><path d="M5.5 12c-1.66 0-3 1.34-3 3 0 1.65 1.34 3 3 3 1.65 0 3-1.35 3-3 0-1.66-1.35-3-3-3Zm-4 3c0-2.21 1.79-4 4-4 2.2 0 4 1.79 4 4 0 2.2-1.8 4-4 4 -2.21 0-4-1.8-4-4Z"/><path d="M18.5 12c-1.66 0-3 1.34-3 3 0 1.65 1.34 3 3 3 1.65 0 3-1.35 3-3 0-1.66-1.35-3-3-3Zm-4 3c0-2.21 1.79-4 4-4 2.2 0 4 1.79 4 4 0 2.2-1.8 4-4 4 -2.21 0-4-1.8-4-4Z"/><path d="M11.62 11.17l-3 3.5 .75.65 3-3.5 -.76-.66Z"/><path d="M12.37 11.17l3 3.5 -.76.65 -3-3.5 .75-.66Z"/></g></svg>