<svg viewBox="0 0 24 24" xmlns="http://www.w3.org/2000/svg"><g fill-rule="evenodd"><path d="M3.5 5c0-.28.22-.5.5-.5h10c.27 0 .5.22.5.5v5.5H20c.27 0 .5.22.5.5v11c0 .27-.23.5-.5.5H4c-.28 0-.5-.23-.5-.5V5Zm1 .5v16h15v-10H14c-.28 0-.5-.23-.5-.5V5.5h-9Z"/><path d="M5.5 2c0-.28.22-.5.5-.5h5c.27 0 .5.22.5.5v3c0 .27-.23.5-.5.5H6c-.28 0-.5-.23-.5-.5V2Zm1 .5v2h4v-2h-4Z"/><path d="M14.35 4.64l6 6 -.71.7 -6-6.01 .7-.71Z"/><path d="M10.41 10.71l-.42.28 -.42-.29c.09-.14.24-.22.41-.22 .16 0 .31.08.41.21Zm-.42 1.19c-.17.26-.37.58-.57.92 -.25.42-.49.87-.67 1.27 -.19.42-.28.72-.28.88 0 .82.67 1.5 1.5 1.5 .82 0 1.5-.68 1.5-1.5 0-.17-.09-.47-.28-.89 -.18-.41-.42-.86-.67-1.28 -.2-.35-.41-.67-.57-.93Zm0-.91c-.42-.29-.42-.29-.42-.29l-.01 0 -.01 0 -.02.02c-.02.02-.04.05-.07.09 -.06.08-.14.2-.24.34 -.2.29-.45.69-.71 1.13 -.26.43-.52.92-.72 1.37 -.19.43-.36.9-.36 1.29 0 1.38 1.11 2.5 2.5 2.5 1.38 0 2.5-1.12 2.5-2.5 0-.39-.17-.87-.36-1.3 -.2-.46-.46-.94-.72-1.38 -.26-.45-.52-.85-.71-1.14 -.1-.15-.18-.27-.24-.35 -.03-.05-.06-.08-.07-.1l-.02-.03 -.01-.01 -.01-.01s0 0-.42.28Z"/></g></svg>