<svg viewBox="0 0 24 24" xmlns="http://www.w3.org/2000/svg"><g fill-rule="evenodd"><path d="M8.64 4.14c.09-.1.22-.15.35-.15h6c.14 0 .27.05.36.16l5.5 5.99c.08.09.13.21.13.33v10.5c0 .27-.23.5-.5.5H4.98c-.28 0-.5-.23-.5-.5V8.47c0-.14.05-.26.14-.36l4-4Zm.56.85l-3.71 3.7v11.79h14.5v-9.81l-5.22-5.7H9.19Z"/><path d="M15 4h5.5c.27 0 .5.22.5.5v6h-1V5h-5V4Z"/><path d="M13.41 10.21l-.42.28 -.42-.29c.09-.14.24-.22.41-.22 .16 0 .31.08.41.21Zm-.42 1.19c-.17.26-.37.58-.57.92 -.25.42-.49.87-.67 1.27 -.19.42-.28.72-.28.88 0 .82.67 1.5 1.5 1.5 .82 0 1.5-.68 1.5-1.5 0-.17-.09-.47-.28-.89 -.18-.41-.42-.86-.67-1.28 -.2-.35-.41-.67-.57-.93Zm0-.91c-.42-.29-.42-.29-.42-.29l-.01 0 -.01 0 -.02.02c-.02.02-.04.05-.07.09 -.06.08-.14.2-.24.34 -.2.29-.45.69-.71 1.13 -.26.43-.52.92-.72 1.37 -.19.43-.36.9-.36 1.29 0 1.38 1.11 2.5 2.5 2.5 1.38 0 2.5-1.12 2.5-2.5 0-.39-.17-.87-.36-1.3 -.2-.46-.46-.94-.72-1.38 -.26-.45-.52-.85-.71-1.14 -.1-.15-.18-.27-.24-.35 -.03-.05-.06-.08-.07-.1l-.02-.03 -.01-.01 -.01-.01s0 0-.42.28Z"/><path d="M6.5 2.5c.13 0 .25.05.35.14l2 2c.19.19.19.51 0 .7l-3 3c-.1.09-.23.14-.36.14 -.14 0-.26-.06-.36-.15l-2-2.01c-.2-.2-.2-.52 0-.71l3-3c.09-.1.22-.15.35-.15ZM4.2 6l1.29 1.29 2.29-2.3 -1.3-1.3 -2.3 2.29Z"/></g></svg>