<svg viewBox="0 0 24 24" xmlns="http://www.w3.org/2000/svg"><g fill-rule="evenodd"><path d="M1.5 7.5c0-.28.22-.5.5-.5h20c.27 0 .5.22.5.5V14c0 .27-.23.5-.5.5h-4.8l-2.36 2.35c-.1.09-.23.14-.36.14h-5c-.14 0-.26-.06-.36-.15l-2.36-2.36h-4.8c-.28 0-.5-.23-.5-.5v-6.5Zm1 .5v5.5H7c.13 0 .25.05.35.14l2.35 2.35h4.58l2.35-2.36c.09-.1.22-.15.35-.15h4.5v-5.5h-19Z"/><path d="M22 17h-4.5v-1H22v1Z"/><path d="M6.5 17H2v-1h4.5v1Z"/><path d="M7.5 11h-3v-1h3v1Z"/><path d="M13.5 11h-3v-1h3v1Z"/><path d="M19.5 11h-3v-1h3v1Z"/></g></svg>