<svg viewBox="0 0 24 24" xmlns="http://www.w3.org/2000/svg"><g fill-rule="evenodd"><path d="M10.56 7.93c.76-.92 1.88-1.44 3.07-1.44h3.86c.21 0 .4.13.47.34l.88 2.65h1.63c1.1 0 2 .89 2 2v3.5c0 .27-.23.5-.5.5h-2v-1h1.5v-3c0-.56-.45-1-1-1h-2c-.22 0-.41-.14-.48-.35l-.89-2.66h-3.51c-.9 0-1.74.39-2.31 1.07l-1.46 1.74c-.09.09-.2.15-.32.17l-6.2.82c-.5.06-.87.49-.87.99v2.18h1.5v1h-2c-.28 0-.5-.23-.5-.5v-2.69c0-1.01.74-1.85 1.73-1.99l6-.81 1.32-1.6Zm-2.57 6.56h8v1h-8v-1Z"/><path d="M6 13.5c-.83 0-1.5.67-1.5 1.5 0 .82.67 1.5 1.5 1.5 .82 0 1.5-.68 1.5-1.5 0-.83-.68-1.5-1.5-1.5ZM3.5 15c0-1.39 1.11-2.5 2.5-2.5 1.38 0 2.5 1.11 2.5 2.5 0 1.38-1.12 2.5-2.5 2.5 -1.39 0-2.5-1.12-2.5-2.5Z"/><path d="M18 13.5c-.83 0-1.5.67-1.5 1.5 0 .82.67 1.5 1.5 1.5 .82 0 1.5-.68 1.5-1.5 0-.83-.68-1.5-1.5-1.5ZM15.5 15c0-1.39 1.11-2.5 2.5-2.5 1.38 0 2.5 1.11 2.5 2.5 0 1.38-1.12 2.5-2.5 2.5 -1.39 0-2.5-1.12-2.5-2.5Z"/></g></svg>