<svg viewBox="0 0 24 24" xmlns="http://www.w3.org/2000/svg"><g fill-rule="evenodd"><path d="M1.58 14.22c.09-.15.24-.23.41-.23h20c.16 0 .31.07.4.2 .09.13.11.29.06.45l-1.5 4.5c-.07.2-.26.34-.48.34H3.97c-.2 0-.38-.12-.46-.3l-2-4.5c-.07-.16-.06-.34.03-.48Zm1.18.77l1.55 3.5h15.81l1.16-3.5H2.74Z"/><path d="M5.5 14.5c0 .27.22.5.5.5h14c.27 0 .5-.23.5-.5V11c0-.28-.23-.5-.5-.5H6c-.28 0-.5.22-.5.5v3.5Zm1-.5v-2.5h13V14h-13Z"/><path d="M10.5 11c0 .27.22.5.5.5h7c.27 0 .5-.23.5-.5V7.5c0-.28-.23-.5-.5-.5h-7c-.28 0-.5.22-.5.5V11Zm1-.5V8h6v2.5h-6Z"/><path d="M17.5 5v2.5h-1V5h1Z"/><path d="M14.5 5v2.5h-1V5h1Z"/></g></svg>