<svg viewBox="0 0 24 24" xmlns="http://www.w3.org/2000/svg"><g fill-rule="evenodd"><path d="M1.52 13.83c.07-.21.25-.34.47-.34h19c.22 0 .42.15.48.37l1 4c.03.14 0 .3-.1.42s-.25.19-.4.19h-15c-.12 0-.23-.04-.32-.11l-5-4c-.17-.14-.23-.36-.16-.56Zm1.89.66l3.75 3h14.18l-.75-3H3.4Z"/><path d="M4.03 14.17c.07.19.25.32.46.32h15.5c.15 0 .3-.08.4-.21 .09-.13.12-.3.07-.45l-1.5-5c-.07-.22-.26-.36-.48-.36h-6.25c-.15 0-.29.06-.38.17l-1.61 1.82H7.96c-.12 0-.24.04-.33.12l-3.5 3c-.16.13-.22.35-.15.55Zm1.82-.68l2.33-2h2.31c.14 0 .28-.07.37-.18l1.6-1.83h5.65l1.2 4H5.83Z"/><path d="M17.13 6.5l.88 2.65 .94-.32 -1-3c-.07-.21-.26-.35-.48-.35h-4v1h3.63Z"/></g></svg>