<svg viewBox="0 0 24 24" xmlns="http://www.w3.org/2000/svg"><g fill-rule="evenodd"><path d="M7.27 6.55c.19-.1.42-.06.57.09l2.35 2.35h11.29c.27 0 .5.22.5.5v2c0 .22-.15.41-.36.48l-12 3.5c-.05.01-.1.02-.14.02h-4c-.15 0-.29-.07-.38-.18l-3-3.5c-.08-.1-.13-.21-.13-.33v-2c0-.19.1-.37.27-.45l5-2.5ZM2.99 9.8v1.5l2.72 3.18H9.4l11.57-3.375V9.98h-11c-.14 0-.26-.06-.36-.15L7.36 7.58l-4.41 2.2Z"/><path d="M9.42 5.54c.14-.07.3-.07.44.01l1.86 1 -.48.88 -1.65-.89 -1.92.89 -.43-.91 2.13-1Z"/><path d="M3.05 18.23l-1-1.87 .88-.48 .85 1.6h5.7v1h-6c-.19 0-.36-.11-.45-.27Z"/><path d="M20.56 16.17l-5.74-2.21 .359-.94 5.74 2.2c.65.25 1.08.87 1.08 1.57 0 .93-.76 1.68-1.69 1.68h-6.82c-.15 0-.29-.07-.39-.18l-2.5-3 .76-.65 2.35 2.82h6.58c.37 0 .68-.31.68-.69 0-.29-.18-.54-.44-.64Z"/></g></svg>