<svg viewBox="0 0 24 24" xmlns="http://www.w3.org/2000/svg"><g fill-rule="evenodd"><path d="M8.15 10.14c.15-.15.38-.19.57-.09l3.81 1.9 2.8-.94c.17-.06.37-.02.51.12 .13.13.18.33.12.51l-1.5 4.5c-.07.2-.26.34-.48.34h-3c-.2 0-.38-.12-.46-.3l-2.5-5.5c-.09-.2-.05-.42.1-.57Zm1.38 1.43l1.78 3.92h2.31l1.06-3.21 -2.06.68c-.13.04-.27.03-.39-.03l-2.74-1.37Z"/><path d="M4.5 14c-1.11 0-2 .89-2 2 0 1.1.89 2 2 2 1.1 0 2-.9 2-2 0-1.11-.9-2-2-2Zm-3 2c0-1.66 1.34-3 3-3 1.65 0 3 1.34 3 3 0 1.65-1.35 3-3 3 -1.66 0-3-1.35-3-3Z"/><path d="M19.5 14c-1.11 0-2 .89-2 2 0 1.1.89 2 2 2 1.1 0 2-.9 2-2 0-1.11-.9-2-2-2Zm-3 2c0-1.66 1.34-3 3-3 1.65 0 3 1.34 3 3 0 1.65-1.35 3-3 3 -1.66 0-3-1.35-3-3Z"/><path d="M7.54 5.29c.07-.19.25-.3.45-.3h2.18v1H8.31l-3.37 7.7 -.92-.41 3.5-8.01Z"/><path d="M19.19 10.45l-3.5 1.5 -.4-.92 3.5-1.5 .39.91Z"/><path d="M7.42 7.74l1.5 2.5 -.86.51 -1.5-2.5 .85-.52Z"/></g></svg>