<svg viewBox="0 0 24 24" xmlns="http://www.w3.org/2000/svg"><g fill-rule="evenodd"><path d="M7.24 6.57c.19-.12.44-.09.61.07l2.42 2.42 2.4.96c.13.05.23.15.28.28l2.25 6c.05.15.03.32-.06.46 -.1.13-.25.21-.42.21H6.97v-1h7.02l-1.92-5.12 -2.295-.92c-.07-.03-.12-.07-.17-.12L7.37 7.58l-4.43 2.65v1.55l1.4 1.86 -.8.6 -1.5-2c-.07-.09-.1-.2-.1-.3v-2c0-.18.09-.34.24-.43l5-3Z"/><path d="M20.11 11h-7.62v-1h7.61c.45 0 .84.3.96.73l1.39 5.13c.04.15 0 .31-.09.43 -.1.12-.25.19-.4.19h-2v-1h1.34l-1.23-4.5Z"/><path d="M8.2 4.75c.08-.16.25-.26.43-.26h1.86v1H8.91l-1 1.74 -.87-.5 1.13-2Z"/><path d="M4.5 14.5c-1.11 0-2 .89-2 2 0 1.1.89 2 2 2 1.1 0 2-.9 2-2 0-1.11-.9-2-2-2Zm-3 2c0-1.66 1.34-3 3-3 1.65 0 3 1.34 3 3 0 1.65-1.35 3-3 3 -1.66 0-3-1.35-3-3Z"/><path d="M17.5 14.5c-1.11 0-2 .89-2 2 0 1.1.89 2 2 2 1.1 0 2-.9 2-2 0-1.11-.9-2-2-2Zm-3 2c0-1.66 1.34-3 3-3 1.65 0 3 1.34 3 3 0 1.65-1.35 3-3 3 -1.66 0-3-1.35-3-3Z"/><path d="M16.5 6.5c0-.28.22-.5.5-.5h3c1.38 0 2.5 1.11 2.5 2.5v2c0 .27-.23.5-.5.5h-5c-.28 0-.5-.23-.5-.5v-4Zm1 .5v3h4V8.5c0-.83-.68-1.5-1.5-1.5h-2.5Z"/><path d="M6.98 3.13l-1.5 5.5 -.97-.27 1.5-5.5 .96.26Z"/></g></svg>