<svg viewBox="0 0 24 24" xmlns="http://www.w3.org/2000/svg"><g fill-rule="evenodd"><path d="M8.7 5.6c.08-.07.19-.1.3-.1h11c1.38 0 2.5 1.11 2.5 2.5v7c0 .27-.23.5-.5.5h-2v-1h1.5V8c0-.83-.68-1.5-1.5-1.5H9.16L5.29 9.4c-.05.03-.1.05-.15.07l-1.98.65c-.41.13-.69.51-.69.94v3.41h1.5v1h-2c-.28 0-.5-.23-.5-.5v-3.92c0-.87.55-1.63 1.36-1.9l1.89-.64 3.93-2.96ZM8 14.5h8v1H8v-1Z"/><path d="M6 13.5c-.83 0-1.5.67-1.5 1.5 0 .82.67 1.5 1.5 1.5 .82 0 1.5-.68 1.5-1.5 0-.83-.68-1.5-1.5-1.5ZM3.5 15c0-1.39 1.11-2.5 2.5-2.5 1.38 0 2.5 1.11 2.5 2.5 0 1.38-1.12 2.5-2.5 2.5 -1.39 0-2.5-1.12-2.5-2.5Z"/><path d="M18 13.5c-.83 0-1.5.67-1.5 1.5 0 .82.67 1.5 1.5 1.5 .82 0 1.5-.68 1.5-1.5 0-.83-.68-1.5-1.5-1.5ZM15.5 15c0-1.39 1.11-2.5 2.5-2.5 1.38 0 2.5 1.11 2.5 2.5 0 1.38-1.12 2.5-2.5 2.5 -1.39 0-2.5-1.12-2.5-2.5Z"/></g></svg>