<svg viewBox="0 0 24 24" xmlns="http://www.w3.org/2000/svg"><path fill-rule="evenodd" d="M9.18 5.5c-3.13 0-5.63 2.59-5.5 5.71l.27 6.86 -.22.01C2.17 18.2.97 19.5.97 21.06v.9c0 .55.44 1 1 1h20c.55 0 1-.45 1-1v-.91c0-1.57-1.2-2.87-2.76-2.99l-.22-.02 .27-6.87c.12-3.13-2.38-5.72-5.5-5.72H9.12ZM13.49 8h-.5V2h-2v6h-.5c-2.49 0-4.5 2.01-4.5 4.5v4.26c0 .31.07.61.21.89l.34.68c.5 1.01 1.54 1.65 2.68 1.65h.43c.79 0 1.55-.32 2.12-.88l.2-.21 .2.2c.56.56 1.32.87 2.12.87h.43c1.13 0 2.17-.65 2.68-1.66l.34-.69c.13-.28.21-.59.21-.9v-4.27c0-2.49-2.02-4.5-4.5-4.5Z"/></svg>