<svg viewBox="0 0 24 24" xmlns="http://www.w3.org/2000/svg"><g fill-rule="evenodd"><path d="M4 23c-.56 0-1-.45-1-1v-1.5c0-1.54 1.14-2.8 2.62-2.98l-.58-1.77c-.04-.11-.05-.21-.05-.32v-2.82c0-.32.07-.62.21-.9l.54-1.09c.5-1.02 1.54-1.66 2.68-1.66h.93c.79 0 1.55.31 2.12.87l.5.5 .5-.51c.56-.57 1.32-.88 2.12-.88h.93c1.13 0 2.17.64 2.68 1.65l.54 1.08c.13.27.21.58.21.89v2.81c0 .1-.02.21-.05.31l-.58 1.76c1.48.18 2.62 1.44 2.62 2.97v1.5c0 .55-.45 1-1 1h-16Z"/><path d="M9.5 3.5C9.5 2.11 10.61 1 12 1c1.38 0 2.5 1.11 2.5 2.5v7h-2v-7c0-.28-.23-.5-.5-.5 -.28 0-.5.22-.5.5v7h-2v-7Z"/></g></svg>