<svg viewBox="0 0 24 24" xmlns="http://www.w3.org/2000/svg"><g fill-rule="evenodd"><path d="M9 5c-1.11 0-2 .89-2 2v2c0 1.1.89 2 2 2h6c1.1 0 2-.9 2-2V7c0-1.11-.9-2-2-2H9Z"/><path d="M12 1C9.79 1 8 2.79 8 5c0 .46.08.91.22 1.33 .14.39.51.66.94.66h5.65c.42 0 .8-.27.94-.67 .14-.42.22-.87.22-1.34 0-2.21-1.8-4-4-4Z"/><path d="M9.91 19.92c.66.73 1.38 1.07 2.08 1.07 .69 0 1.41-.35 2.08-1.08 .67-.74 1.23-1.83 1.57-3.18l1.93.49c-.41 1.58-1.11 2.99-2.04 4.02 -.95 1.03-2.17 1.72-3.57 1.72 -1.41 0-2.63-.7-3.57-1.73 -.94-1.04-1.64-2.44-2.04-4.03l1.93-.5c.33 1.34.9 2.43 1.57 3.17Z"/><path d="M8.83 6.44c-.18-.27-.46-.43-.78-.45 -.32-.02-.62.1-.82.34l-5.28 6.15c-.63.72-.97 1.64-.97 2.6v2.5c0 1.86 1.51 3.38 3.38 3.38 1.38 0 2.62-.85 3.14-2.13l3.4-8.51c.12-.31.08-.66-.1-.93l-2.01-3Z"/><path d="M15.168 6.44c.17-.27.45-.43.77-.45 .31-.02.61.1.81.34l5.27 6.15c.62.72.96 1.64.96 2.6v2.5c0 1.86-1.52 3.38-3.39 3.38 -1.39 0-2.63-.85-3.15-2.13l-3.41-8.51c-.13-.31-.09-.66.09-.93l2-3Z"/><path d="M7.37 1.07l2.5 1 -.75 1.85 -2.5-1 .74-1.86Z"/><path d="M17.37 2.92l-2.5 1 -.75-1.86 2.5-1 .74 1.85Z"/></g></svg>