<svg viewBox="0 0 24 24" xmlns="http://www.w3.org/2000/svg"><g fill-rule="evenodd"><path d="M18 23H6v-2h12v2Z"/><path d="M11 1c-.54 0-.98.41-1 .95l-1 20c-.02.27.08.54.27.73 .18.19.45.31.72.31h4c.27 0 .53-.12.72-.32 .18-.2.28-.47.27-.74l-1-20c-.03-.54-.47-.96-1-.96h-2Z"/><path d="M19.5 12.91v-1.42h-2v2.56l-2.69 1.53 -1.19.47 .74 1.85 .92-.37 2.91.89 .58-1.92 -1.05-.33 3.01-1.73h1.73v-2h-2c-.18 0-.35.04-.5.13l-.51.28Z"/><path d="M15.86 7.23c.17-.15.4-.24.64-.24H19v2h-2.14l-2.73 2.26 -1.29-1.54 3-2.5Z"/><path d="M16.09 5.3l-2 1.49 -1.2-1.6 1.6-1.2v-2h2v.55l1.91-1.38 1.16 1.62 -3.5 2.49Z"/><path d="M3 8.91l-.52-.29 -.98 1.74 3.34 1.85 -1.57 1.56 1.41 1.41 1.99-2 3.35 1.67 .89-1.79 -3.99-2 -1.97-1.1V7.93h-2v.91Z"/><path d="M3 1.5h2c.21 0 .41.06.58.19l1.41 1.02v-.72h2v2.17l2.08 1.51 -1.18 1.61 -.79-.58 -2.73 1.18 -.8-1.84 1.64-.72 -2.58-1.87H2.95v-2Z"/></g></svg>