<svg viewBox="0 0 24 24" xmlns="http://www.w3.org/2000/svg"><g fill-rule="evenodd"><path d="M10.49 19l-.08.99c.29.02.57-.09.78-.29 .2-.21.31-.5.29-.79l-1 .07Zm.99-.08s0 0-1 .07c-.08.99-.08.99-.08.99h-.01l-.01-.01 -.01-.01 -.02-.01 -.05-.01c-.04-.01-.09-.01-.15-.02 -.13-.02-.31-.03-.53-.06 -.44-.06-1.05-.14-1.69-.26 -.64-.12-1.35-.29-1.98-.5 -.61-.21-1.28-.51-1.74-.97 -.76-.76-1.18-1.72-1.18-2.71 0-1 .41-1.96 1.17-2.71 .75-.76 1.71-1.18 2.7-1.18 .99 0 1.95.41 2.7 1.17 .46.46.76 1.13.96 1.73 .21.63.37 1.33.49 1.97 .11.64.2 1.24.25 1.68 .02.22.04.4.05.52 0 .06.01.11.01.14l0 .04 0 .01 0 0 0 0v0Z"/><path d="M13.5 10.5l.07.99c-.3.02-.58-.09-.79-.29 -.21-.21-.32-.5-.29-.79l.99.07Zm0 0c.07.99.07.99.07.99h0l0-.01 0-.01 .01-.01 .04-.01c.03-.01.08-.01.14-.02 .12-.02.3-.03.52-.06 .43-.06 1.04-.14 1.68-.26 .63-.12 1.34-.29 1.97-.5 .6-.21 1.27-.51 1.73-.97 .75-.76 1.17-1.72 1.17-2.71 0-1-.42-1.96-1.18-2.71 -.76-.76-1.72-1.18-2.71-1.18 -1 0-1.96.41-2.71 1.17 -.47.46-.77 1.13-.97 1.73 -.22.63-.38 1.33-.5 1.97 -.12.64-.21 1.24-.26 1.68 -.03.22-.05.4-.06.52 -.01.06-.02.11-.02.14l-.01.04 -.01.01 -.01 0 -.01 0v0s0 0 .99.07Z"/><path d="M3.7 10.79l2 2L4.28 14.2l-2-2 1.41-1.42Z"/><path d="M20.293 2.29l-2 2 1.41 1.41 2-2 -1.42-1.42Z"/><path d="M18 15c-1.66 0-3 1.34-3 3v2c0 .55.44 1 1 1h2c1.65 0 3-1.35 3-3v-2c0-.56-.45-1-1-1h-2Z"/><path d="M6 3c1.65 0 3 1.34 3 3v2c0 .55-.45 1-1 1H6C4.34 9 3 7.65 3 6V4c0-.56.44-1 1-1h2Z"/></g></svg>