<svg viewBox="0 0 24 24" xmlns="http://www.w3.org/2000/svg"><g fill-rule="evenodd"><path d="M1.29 18.2c-.4-.4-.4-1.03 0-1.42l.7-.71v-.59c0-.3.13-.59.36-.78 .23-.19.53-.266.83-.21l.99.19 -.14-.4c-.11-.31-.06-.65.13-.91 .18-.27.49-.42.81-.42h.58l.7-.71c.39-.4 1.02-.4 1.41 0l.49.49 .35-.18c.3-.16.67-.14.97.04 .29.18.47.5.47.85v2.5 3 2.5c0 .34-.18.66-.48.85 -.3.18-.67.19-.98.04l-.36-.18 -.5.49c-.4.39-1.03.39-1.42 0l-.71-.71H4.9c-.33 0-.63-.16-.82-.42 -.19-.27-.24-.6-.14-.91l.13-.4 -1 .19c-.3.05-.6-.02-.84-.21s-.37-.48-.37-.78v-.59l-.71-.71Z"/><path d="M21.5 16.41l.7-.71c.39-.4.39-1.03 0-1.42l-.71-.71v-.59c0-.3-.14-.59-.37-.78 -.24-.19-.54-.266-.84-.21l-1 .19 .13-.4c.1-.31.05-.65-.14-.91 -.19-.27-.5-.42-.82-.42h-.59l-.71-.71c-.4-.4-1.03-.4-1.42 0l-.5.49 -.36-.18c-.31-.16-.68-.14-.98.04 -.3.18-.48.5-.48.85v2.5 3 2.5c0 .34.17.66.47.85 .29.18.66.19.97.04l.35-.18 .49.49c.39.39 1.02.39 1.41 0l.7-.71h.58c.32 0 .62-.16.81-.42 .18-.27.23-.6.13-.91l-.14-.4 .99.19c.29.05.59-.02.83-.21 .23-.19.36-.48.36-.78v-.59Z"/><path d="M7.5 18.5h3v-2h-3v2Z"/><path d="M16 16h-3v-2h3v2Z"/><path d="M3 11V2h2v9H3Z"/><path d="M14 8V2h2v6h-2Z"/><path d="M7 8.5V2h2v6.5H7Z"/><path d="M18 5V2h2v3h-2Z"/></g></svg>