<svg viewBox="0 0 24 24" xmlns="http://www.w3.org/2000/svg"><g fill-rule="evenodd"><path d="M19.38 1.07c.37.15.61.51.61.92v8.49h-2V4.39l-3.3 3.29 -1.42-1.42 5-5c.28-.29.71-.38 1.08-.22Z"/><path d="M4.61 1.07c-.38.15-.62.51-.62.92v8.49h2V4.39l3.29 3.29 1.41-1.42 -5-5C5.4.97 4.97.88 4.6 1.04Z"/><path d="M10.29 6c-1.76 0-3.42.76-4.56 2.09l-2.26 2.62 .87.35c.02.01.05.02.07.03l3.51 1.75c1.86.93 3.04 2.83 3.04 4.91v4.99c.31.14.65.22 1 .22 .34 0 .68-.08 1-.23v-5c0-2.09 1.17-3.99 3.04-4.92l3.51-1.76 .89-.45 -2.2-2.57c-1.14-1.33-2.81-2.1-4.56-2.1h-3.41Zm-1.3 15.2v-3.43c0-1.33-.75-2.54-1.94-3.14l-3.48-1.74 -1.48-.59 -.88 1.02c-.18.2-.26.46-.24.73 .02.26.14.51.35.68l7.64 6.43Zm13.64-6.44l-7.65 6.43v-3.43c0-1.33.74-2.54 1.93-3.14l3.51-1.76 1.34-.68 .96 1.12c.17.2.25.46.23.73 -.03.26-.15.51-.36.68Z"/></g></svg>