<svg viewBox="0 0 24 24" xmlns="http://www.w3.org/2000/svg"><g fill-rule="evenodd"><path d="M14 3c-.56 0-1 .44-1 1v2h-2V4c0-1.66 1.34-3 3-3h2v2h-2Z"/><path d="M2.95 7.74c1.22-1.64 3-2.75 5.04-2.75 .69 0 1.36.13 2 .36 .63-.24 1.3-.37 2-.37 .69 0 1.36.13 2 .36 .63-.24 1.3-.37 2-.37 2.04 0 3.81 1.1 5.04 2.74 1.22 1.63 1.95 3.85 1.95 6.25s-.73 4.62-1.96 6.25 -3.01 2.74-5.05 2.74c-.7 0-1.37-.14-2-.37 -.64.23-1.31.36-2 .36 -.7 0-1.37-.14-2-.37 -.64.23-1.31.36-2 .36 -2.05 0-3.82-1.11-5.05-2.75C1.69 18.54.96 16.32.96 13.92c0-2.41.72-4.63 1.95-6.26Zm13.04.25c.33 0 .64.16.83.44l2 3c.2.3.22.7.04 1.02 -.18.32-.52.52-.89.52h-4c-.37 0-.71-.21-.89-.53 -.18-.33-.16-.72.04-1.03l2-3c.18-.28.49-.45.83-.45Zm-7.17.44c-.19-.28-.5-.45-.84-.45 -.34 0-.65.16-.84.44l-2 3c-.21.3-.23.7-.05 1.02 .17.32.51.52.88.52h4c.36 0 .7-.21.88-.53 .17-.33.15-.72-.05-1.03l-2.01-3Zm-4.64 5.45c.27-.37.75-.51 1.17-.34l4.38 1.75 1.53-1.54c.39-.4 1.02-.4 1.41 0l1.53 1.53 4.38-1.76c.42-.17.9-.04 1.17.33 .27.36.26.86-.03 1.22l-4 5c-.27.32-.7.45-1.1.32l-2.69-.9 -2.69.89c-.4.13-.84 0-1.1-.33l-4-5c-.29-.36-.3-.86-.03-1.23Z"/></g></svg>