<svg viewBox="0 0 24 24" xmlns="http://www.w3.org/2000/svg"><path fill-rule="evenodd" d="M9 1C4.79 1 1.34 4.24 1.02 8.36l.52-.27 6-3c.38-.2.84-.12 1.15.18l3.29 3.29 3.29-3.3c.3-.31.76-.38 1.15-.19l6 3c.02.01.04.02.06.03l.46.27c-.3-4.15-3.76-7.43-7.98-7.43h-6ZM1 11.83v-1.22l1.44-.73L7.79 7.2l3.49 3.49c.39.39 1.02.39 1.41 0l3.49-3.5 5.32 2.66 1.46.88 .01-.03v1.1c0 1.67-.76 3.25-2.07 4.29l-8.14 6.51 .09-.2c0-.02.01-.04.02-.06l2.75-6.44c.21-.5.32-1.04.32-1.58v-2.39h-2v2.38c0 .27-.06.53-.17.78l-2.75 6.4 -.35.69 -7.68-6.15C1.68 14.98.92 13.4.92 11.73Z"/></svg>