<svg viewBox="0 0 24 24" xmlns="http://www.w3.org/2000/svg"><g fill-rule="evenodd"><path d="M20.7 2.29c-.95-.95-2.48-.95-3.42 0 -.95.94-.95 2.47 0 3.41l1 1c.94.94 2.47.94 3.41 0 .94-.95.94-2.48 0-3.42l-1-1Z"/><path d="M16.7 6.29c-.95-.95-2.48-.95-3.42 0 -.95.94-.95 2.47 0 3.41l1 1c.94.94 2.47.94 3.41 0 .94-.95.94-2.48 0-3.42l-1-1Z"/><path d="M17.2 2.79c-.95-.95-2.48-.95-3.42 0 -.95.94-.95 2.47 0 3.41l4 3.99c.94.94 2.47.94 3.41 0 .94-.95.94-2.48 0-3.42l-4-4Z"/><path d="M15.2 10.2L2.7 22.7l-1.42-1.42 12.5-12.5 1.41 1.41Z"/><path d="M19.5 14.75V9.5h2v5.25c0 1.24-1.01 2.25-2.25 2.25C18 17 17 15.99 17 14.75v-.5c0-.14-.12-.25-.25-.25 -1.25 0-2.25-1.01-2.25-2.25V10.5h2v1.25c0 .13.11.25.25.25 1.24 0 2.25 1 2.25 2.25v.5c0 .13.11.25.25.25 .13 0 .25-.12.25-.25Z"/></g></svg>