<svg viewBox="0 0 24 24" xmlns="http://www.w3.org/2000/svg"><g fill-rule="evenodd"><path d="M5.5 1C4.11 1 3 2.11 3 3.5 3 4.88 4.11 6 5.5 6h13C19.88 6 21 4.88 21 3.5 21 2.11 19.88 1 18.5 1h-13Z"/><path d="M4.5 4c-.45 0-.84.29-.97.72L2.79 7.3c-.34 1.15.77 2.21 1.91 1.83l1.85-.62 5.14.93c.19.03.39.03.59-.02l4.17-.93 2.93.73c1.12.28 2.12-.76 1.8-1.87l-.77-2.67c-.13-.43-.52-.73-.97-.73h-15Z"/><path d="M6 8v12c0 .55.44 1 1 1h10c.55 0 1-.45 1-1V8h2v12c0 1.65-1.35 3-3 3H7c-1.66 0-3-1.35-3-3V8h2Z"/><path d="M11.5 12.5c-1.66 0-3 1.34-3 3v.4c0 .54.12 1.07.36 1.56l.78 1.57c.44.88 1.35 1.44 2.34 1.44 .99 0 1.89-.57 2.34-1.45l.78-1.58c.24-.49.36-1.03.36-1.57v-.41c0-1.66-1.35-3-3-3h-1Z"/><path d="M11 12.5V11h2v1.5h2.5v2H13v1h-2v-1H8.5v-2H11Z"/></g></svg>