<svg viewBox="0 0 24 24" xmlns="http://www.w3.org/2000/svg"><g fill-rule="evenodd"><path d="M9 1c-.56 0-1 .44-1 1v3c0 .55.44 1 1 1h6c.55 0 1-.45 1-1V2c0-.56-.45-1-1-1H9Z"/><path d="M10 4c-.56 0-1 .44-1 1v2.68c-2.59.66-4.5 3.01-4.5 5.81v8.5c0 .55.44 1 1 1h13c.55 0 1-.45 1-1v-8.5c0-2.8-1.92-5.15-4.5-5.82V4.98c0-.56-.45-1-1-1h-4Zm2.7 5.79c-.4-.4-1.03-.4-1.42 0l-.71.7h-.59c-.3 0-.59.13-.78.36 -.19.23-.266.53-.21.83l.19.99 -.4-.14c-.31-.11-.65-.06-.91.13 -.27.18-.42.49-.42.81v.58l-.71.7c-.4.39-.4 1.02 0 1.41l.49.49 -.18.35c-.16.31-.14.67.04.97 .18.29.5.47.85.47h2.5 .5v.5h2v-.5h.5 2.5c.34 0 .66-.18.85-.48 .18-.3.19-.67.04-.98l-.18-.36 .49-.5c.39-.4.39-1.03 0-1.42l-.71-.71v-.59c0-.33-.16-.63-.42-.82 -.27-.19-.6-.24-.91-.14l-.4.13 .19-1c.05-.3-.02-.6-.21-.84s-.48-.37-.78-.37h-.59l-.71-.71Z"/></g></svg>