<svg viewBox="0 0 24 24" xmlns="http://www.w3.org/2000/svg"><g fill-rule="evenodd"><path d="M4.02 21.22l-1.5-6.5 1.94-.45 1.32 5.72h12.34l.86-5.66 1.97.3 -1 6.5c-.08.48-.5.84-.99.84h-14c-.47 0-.87-.33-.98-.78Z"/><path d="M1 12C1 6.38 6.02 2 12 2c5.97 0 11 4.38 11 10 0 2.34-2.17 4-4.5 4 -1.33 0-2.6-.54-3.45-1.42 -.74.86-1.84 1.41-3.06 1.41 -1.23 0-2.33-.56-3.06-1.42 -.86.88-2.13 1.41-3.45 1.41 -2.34 0-4.5-1.66-4.5-4Zm12-2V7h-2v3h2ZM6.29 7.79l2-2L9.7 7.2l-2 2L6.28 7.78Zm9.41-2l2 2L16.28 9.2l-2-2 1.41-1.42Z"/></g></svg>