<svg viewBox="0 0 24 24" xmlns="http://www.w3.org/2000/svg"><g fill-rule="evenodd"><path d="M4.37 6.2c1.09-1.1 2.83-1.17 4.01-.21h4.7c.71 0 1.43.12 2.1.38l4.46 1.67c2 .75 3.33 2.66 3.33 4.8 0 2.83-2.3 5.13-5.14 5.13H9.96c-3.32 0-6-2.69-6-6v-1.61c-.96-1.18-.9-2.92.2-4.02l.17-.18Zm5.91 5.91c1.13-1.14 1.17-2.95.11-4.13h2.68c.47 0 .95.08 1.4.25l4.46 1.67c1.22.45 2.03 1.62 2.03 2.93 0 1.73-1.41 3.13-3.14 3.13H9.95c-2.07 0-3.77-1.57-3.98-3.58 1.17 1.03 2.97.98 4.09-.14l.17-.18Z"/><path d="M2.7 3.29l3 3L4.28 7.7l-3-3 1.41-1.42Z"/><path d="M2 19h20v2H2v-2Z"/></g></svg>