<svg viewBox="0 0 24 24" xmlns="http://www.w3.org/2000/svg"><g fill-rule="evenodd"><path d="M6.35 22.76s0 0 .64-.77l-.65.76c.37.31.92.31 1.29 0l-.65-.77c.64.76.64.76.64.76l0-.01 0-.01 0-.01 .01-.02 .04-.04c.03-.04.09-.09.16-.15 .14-.13.34-.31.58-.54 .48-.46 1.13-1.1 1.78-1.83 .64-.73 1.31-1.57 1.83-2.43 .49-.84.92-1.81.92-2.78 0-3.32-2.69-6-6-6 -3.32 0-6 2.68-6 6 0 .96.42 1.93.92 2.77 .51.86 1.18 1.7 1.83 2.42 .65.73 1.29 1.36 1.78 1.82 .24.22.44.41.58.53 .07.06.12.11.16.14l.04.03 .01.01 0 0 0 0 0 0Z"/><path d="M14 3c-3.32 0-6 2.68-6 6v1H6V9c0-4.42 3.58-8 8-8h1c4.41 0 8 3.58 8 8v1c0 2.76-2.24 5-5 5 -2.77 0-5-2.24-5-5V7.5h2V10c0 1.65 1.34 3 3 3 1.65 0 3-1.35 3-3V9c0-3.32-2.69-6-6-6h-1Z"/><path d="M17 19v-5h2v5c0 2.2-1.8 4-4 4H7v-2h8c1.1 0 2-.9 2-2Z"/><path d="M1.5 9.17c0-1.71 2-2.64 3.3-1.52l1.84 1.58 -1.31 1.51 -1.85-1.59v3.82h-2V9.14Z"/><path d="M12.5 9.17c0-1.71-2.01-2.64-3.31-1.52L7.34 9.23l1.3 1.51 1.84-1.59v3.82h2V9.14Z"/></g></svg>