<svg viewBox="0 0 24 24" xmlns="http://www.w3.org/2000/svg"><g fill-rule="evenodd"><path d="M12.53 4.12c-1.96-1.96-5.12-1.96-7.08 0L4.1 5.46c-1.96 1.95-1.96 5.11 0 7.07l3.67 3.67c.39.39 1.02.39 1.41 0l7-7c.39-.4.39-1.03 0-1.42L12.5 4.1Z"/><path d="M17.7 6.29c-.4-.4-1.03-.4-1.42 0l-5 5 -5.01 5c-.4.39-.4 1.02 0 1.41l1.29 1.29 .7-.71 3-3 1.41 1.41 -3 3 -.71.7 .82.82c1.12 1.12 2.65 1.75 4.24 1.75h5.42c1.93 0 3.5-1.57 3.5-3.5v-5.43c0-1.6-.64-3.12-1.76-4.25l-3.54-3.54Zm2 8.41l-1.42-1.42 -4 4 1.41 1.41 4-4Z"/></g></svg>