<svg viewBox="0 0 24 24" xmlns="http://www.w3.org/2000/svg"><g fill-rule="evenodd"><path d="M7.01 5.93c-.02.03-.02.05-.02.06 0 0 0 .02.01.06 .02.04.06.11.15.19 .18.17.49.38.96.58 .93.39 2.3.65 3.85.65 1.55 0 2.92-.27 3.85-.66 .47-.2.78-.41.96-.59 .08-.09.13-.16.15-.2 .01-.04.01-.06.01-.07 0-.01-.01-.03-.02-.07 -.03-.05-.07-.12-.16-.2 -.19-.18-.5-.39-.97-.59 -.94-.4-2.31-.66-3.86-.66 -1.56 0-2.93.26-3.86.65 -.48.19-.79.4-.97.58 -.09.08-.14.15-.16.19Zm.35-2.63c1.23-.52 2.87-.81 4.62-.81s3.39.29 4.62.8c.61.25 1.17.58 1.6 1 .42.42.76.99.76 1.68s-.35 1.26-.77 1.68c-.43.41-.99.74-1.61 1 -1.24.51-2.88.8-4.63.8 -1.76 0-3.4-.3-4.63-.81 -.62-.26-1.18-.59-1.61-1.01 -.43-.43-.77-1-.77-1.69 0-.7.34-1.27.76-1.69 .42-.42.98-.75 1.6-1.01Z"/><path d="M7 6c0-.56-.45-1-1-1 -.56 0-1 .44-1 1v7.22l-2.86 4.76c-.23.37-.19.84.1 1.17 .28.32.74.43 1.14.26L8.98 17v3.48c0 .42.26.8.66.94 .4.14.84.01 1.11-.32l3.58-4.49 6.36 1.81c.41.11.85-.05 1.09-.4 .24-.36.23-.83-.03-1.17l-2.8-3.74V5.94c0-.56-.45-1-1-1 -.56 0-1 .44-1 1 0 0-.01.02-.02.06 -.03.04-.07.11-.16.19 -.19.17-.5.38-.97.58 -.94.39-2.31.65-3.86.65 -1.56 0-2.93-.27-3.86-.66 -.48-.2-.79-.41-.97-.59 -.09-.09-.14-.16-.16-.2 -.02-.04-.02-.06-.02-.07Z"/></g></svg>