<svg viewBox="0 0 24 24" xmlns="http://www.w3.org/2000/svg"><g fill="#3747D6" fill-rule="evenodd"><path d="M12 4c-3.28 0-6 2.78-6 6.31 0 2.77 1.55 5.2 3.23 7.02 .82.89 1.66 1.6 2.28 2.09 .17.13.34.26.47.36 .13-.11.3-.23.47-.37 .62-.49 1.45-1.2 2.28-2.1 1.68-1.82 3.23-4.25 3.23-7.03 0-3.53-2.73-6.32-6-6.32Zm0 17c-.54.84-.54.84-.54.84l-.01-.01 -.01-.01 -.02-.02c-.02-.02-.04-.03-.07-.05 -.06-.04-.14-.1-.25-.17 -.21-.15-.5-.35-.84-.62 -.69-.54-1.61-1.32-2.53-2.31 -1.82-1.96-3.77-4.87-3.77-8.39 0-4.55 3.54-8.32 8-8.32 4.459 0 8 3.76 8 8.31 0 3.51-1.95 6.42-3.77 8.38 -.93.99-1.84 1.77-2.53 2.3 -.35.26-.64.47-.84.61 -.11.07-.19.12-.25.16 -.03.01-.06.03-.07.04l-.02.01 -.01 0 -.01 0c-.01 0-.01 0-.54-.85Zm0 0l.53.84c-.33.2-.74.2-1.07-.01l.53-.85Z"/><path fill="#9545ED" d="M11.2 8.29c-.4-.4-1.03-.4-1.42 0 -.4.39-.4 1.02 0 1.41l2.12 2.12 2.12-2.13c.39-.4.39-1.03 0-1.42 -.4-.4-1.03-.4-1.42 0 -.4.39-1.03.39-1.42 0Zm.7-1.94c-1.14-.61-2.58-.44-3.54.52 -1.18 1.17-1.18 3.07 0 4.24l2.82 2.82c.18.18.44.29.7.29 .26 0 .51-.11.7-.3l2.82-2.83c1.17-1.18 1.17-3.08 0-4.25 -.96-.96-2.41-1.14-3.54-.53Z"/></g></svg>