<svg viewBox="0 0 24 24" xmlns="http://www.w3.org/2000/svg"><g fill="#CFD8DC" fill-rule="evenodd"><path d="M11.25 4.57c-.68-.33-1.44-.41-2.17-.24 -1.67.4-2.84 1.89-2.84 3.6v.69c0 1.67.8 3.24 2.15 4.23l.51.37c.69.5 1.61.58 2.38.2 .23-.12.5-.11.72.01 .78.41 1.74.34 2.45-.2l.53-.4c.74-.56 1.311-1.3 1.67-2.12 .1-.24.07-.51-.07-.73 -.15-.22-.4-.34-.65-.33 -.03 0-.05 0-.07 0 -.89 0-1.6-.72-1.6-1.59 0-.78.56-1.43 1.3-1.57 .27-.05.5-.25.58-.52 .08-.27 0-.56-.2-.76 -.47-.46-1.06-.8-1.73-.96 -.73-.18-1.5-.1-2.17.23l-.44.21 -.44-.22Z"/><path d="M13.53 1.46c.29.29.29.76 0 1.06l-1 1c-.3.29-.77.29-1.07 0 -.3-.3-.3-.77 0-1.07l1-1c.29-.3.76-.3 1.06 0Z"/><path d="M4.25 16c0-.42.33-.75.75-.75h2.5c1.24 0 2.25 1 2.25 2.25 0 1.24-1.01 2.25-2.25 2.25H5.75V22c0 .41-.34.75-.75.75 -.42 0-.75-.34-.75-.75v-6Zm1.5 2.25H7.5c.41 0 .75-.34.75-.75 0-.42-.34-.75-.75-.75H5.75v1.5Z"/><path d="M14.75 22c0 .41-.34.75-.75.75h-2.5c-1.25 0-2.25-1.01-2.25-2.25 0-1.25 1-2.25 2.25-2.25h1.75V18c0-.7-.56-1.25-1.25-1.25h-1c-.42 0-.75-.34-.75-.75 0-.42.33-.75.75-.75h1c1.51 0 2.75 1.23 2.75 2.75v4Zm-1.5-2.25H11.5c-.42 0-.75.33-.75.75 0 .41.33.75.75.75h1.75v-1.5Z"/><path d="M16 15.25c.41 0 .75.33.75.75v2c0 .13.11.25.25.25h1.25V16c0-.42.33-.75.75-.75 .41 0 .75.33.75.75v4c0 1.51-1.24 2.75-2.75 2.75h-1c-.42 0-.75-.34-.75-.75 0-.42.33-.75.75-.75h1c.69 0 1.25-.56 1.25-1.25v-.25H17c-.97 0-1.75-.79-1.75-1.75v-2c0-.42.33-.75.75-.75Z"/></g></svg>