<svg viewBox="0 0 24 24" xmlns="http://www.w3.org/2000/svg"><path fill="#5E94FF" d="M3 2.5c-.97 0-1.75.78-1.75 1.75v5c0 .96.78 1.75 1.75 1.75h18c.96 0 1.75-.79 1.75-1.75v-5c0-.97-.79-1.75-1.75-1.75H3Z"/><path fill="#ECEFF1" d="M7 6c-.42 0-.75.33-.75.75v14c0 .24.11.46.31.6 .19.14.44.17.67.1l1.27-.43 1.52.43c.13.03.27.03.41 0l1.54-.45 1.54.44c.13.03.27.03.41 0l1.52-.44 1.27.42c.22.07.48.03.67-.11 .19-.15.31-.37.31-.61v-14c0-.42-.34-.75-.75-.75h-10Z"/><g fill="#4DC4FF" fill-rule="evenodd"><path d="M3.75 6.75c0-.42.33-.75.75-.75h15c.41 0 .75.33.75.75 0 .41-.34.75-.75.75h-15c-.42 0-.75-.34-.75-.75Z"/><g fill="#8B98A6"><path d="M9.25 11.75c0-.42.33-.75.75-.75h4c.41 0 .75.33.75.75 0 .41-.34.75-.75.75h-4c-.42 0-.75-.34-.75-.75Z"/><path d="M9.25 15.75c0-.42.33-.75.75-.75h4c.41 0 .75.33.75.75 0 .41-.34.75-.75.75h-4c-.42 0-.75-.34-.75-.75Z"/></g></g></svg>