<svg viewBox="0 0 24 24" xmlns="http://www.w3.org/2000/svg"><path fill="#ECEFF1" d="M3 3.25c-.97 0-1.75.78-1.75 1.75v12c0 .96.78 1.75 1.75 1.75h18c.96 0 1.75-.79 1.75-1.75V5c0-.97-.79-1.75-1.75-1.75H3Z"/><g fill="#8B98A6" fill-rule="evenodd"><path d="M1.25 6.75h21.5v1.5H1.25v-1.5Z"/><path d="M3.75 14.5c0-.42.33-.75.75-.75h5c.41 0 .75.33.75.75 0 .41-.34.75-.75.75h-5c-.42 0-.75-.34-.75-.75Z"/></g><path fill="#8BC94D" d="M17 9.25c-3.18 0-5.75 2.57-5.75 5.75 0 3.17 2.57 5.75 5.75 5.75 3.17 0 5.75-2.58 5.75-5.75 0-3.18-2.58-5.75-5.75-5.75Z"/><path fill="#ECEFF1" fill-rule="evenodd" d="M19.686 12.63c.33.24.41.7.17 1.04l-2.5 3.5c-.12.16-.3.27-.5.3 -.2.03-.41-.02-.57-.15l-2-1.5c-.34-.25-.4-.72-.15-1.05 .24-.34.71-.4 1.05-.15l1.38 1.03 2.05-2.88c.24-.34.7-.42 1.04-.18Z"/></svg>