<svg viewBox="0 0 24 24" xmlns="http://www.w3.org/2000/svg"><path fill="#5E94FF" d="M3 4.25c-.97 0-1.75.78-1.75 1.75v12c0 .96.78 1.75 1.75 1.75h18c.96 0 1.75-.79 1.75-1.75V6c0-.97-.79-1.75-1.75-1.75H3Z"/><g fill="#ECEFF1" fill-rule="evenodd"><path d="M1.25 7.75h21.5v1.5H1.25v-1.5Z"/><path d="M4.25 15.5c0-.42.33-.75.75-.75h6c.41 0 .75.33.75.75 0 .41-.34.75-.75.75H5c-.42 0-.75-.34-.75-.75Z"/></g><path fill="#ECEFF1" d="M18 12.75c-1.25 0-2.25 1-2.25 2.25 0 1.24 1 2.25 2.25 2.25 1.24 0 2.25-1.01 2.25-2.25 0-1.25-1.01-2.25-2.25-2.25Z"/></svg>