<svg viewBox="0 0 24 24" xmlns="http://www.w3.org/2000/svg"><path fill="#ECEFF1" d="M2.25 21c0 .96.78 1.75 1.75 1.75h5c.96 0 1.75-.79 1.75-1.75V3c0-.97-.79-1.75-1.75-1.75H4c-.97 0-1.75.78-1.75 1.75v18Z"/><path fill="#8B98A6" fill-rule="evenodd" d="M6.5 20.25c-.42 0-.75-.34-.75-.75v-15c0-.42.33-.75.75-.75 .41 0 .75.33.75.75v15c0 .41-.34.75-.75.75Z"/><path fill="#FF884D" d="M16 6.25c-.82 0-1.6.17-2.31.47 -.28.11-.45.38-.45.68 0 .29.17.56.44.68 1.5.65 2.55 2.15 2.55 3.89 0 1.74-1.05 3.24-2.56 3.89 -.28.11-.45.38-.45.68 0 .29.17.56.44.68 .7.3 1.48.47 2.3.47 3.17 0 5.75-2.58 5.75-5.75 0-3.18-2.58-5.75-5.75-5.75Z"/><path fill="#FFC44D" d="M12 6.25c-3.18 0-5.75 2.57-5.75 5.75 0 3.17 2.57 5.75 5.75 5.75 3.17 0 5.75-2.58 5.75-5.75 0-3.18-2.58-5.75-5.75-5.75Z"/><path fill="#ECEFF1" fill-rule="evenodd" d="M12 14.75c-.42 0-.75-.34-.75-.75v-4c0-.42.33-.75.75-.75 .41 0 .75.33.75.75v4c0 .41-.34.75-.75.75Z"/></svg>