<svg viewBox="0 0 24 24" xmlns="http://www.w3.org/2000/svg"><path fill="#FFD071" d="M9.25 6.33c0-.3-.18-.57-.45-.69 -.28-.12-.6-.07-.81.13L4.13 9.33c-.57.52-.89 1.25-.89 2.01v2.12c0 .41.33.75.75.75h3c.19 0 .38-.08.53-.22l1.5-1.5c.14-.15.21-.34.21-.54V6.28Z"/><path fill="#ECEFF1" d="M9.5 2.25c-.97 0-1.75.78-1.75 1.75v8c0 .41.33.75.75.75h11c.96 0 1.75-.79 1.75-1.75V4c0-.97-.79-1.75-1.75-1.75h-10Z"/><path fill="#8B98A6" fill-rule="evenodd" d="M7.75 5.25h13.5v1.5H7.75v-1.5Z"/><path fill="#FFD071" d="M11.91 8.25c-.47 0-.91.18-1.24.51l-3.99 3.98H3.99c-.42 0-.75.33-.75.75v4.5c0 .41.33.75.75.75h5.5c.27 0 .52-.15.65-.39l4.17-7.52c.64-1.17-.2-2.6-1.53-2.6h-.89Z"/><path fill="#8B98A6" d="M4 17.25c-.97 0-1.75.78-1.75 1.75v1c0 .96.78 1.75 1.75 1.75h6c.96 0 1.75-.79 1.75-1.75v-1c0-.97-.79-1.75-1.75-1.75H4Z"/></svg>