<svg viewBox="0 0 24 24" xmlns="http://www.w3.org/2000/svg"><g fill="#FF884D"><path d="M3 14.25c-.97 0-1.75.78-1.75 1.75v2c0 .96.78 1.75 1.75 1.75h10c.41 0 .75-.34.75-.75v-4c0-.42-.34-.75-.75-.75H3Z"/><path d="M3 10.25c-.97 0-1.75.78-1.75 1.75v2c0 .96.78 1.75 1.75 1.75h15c.41 0 .75-.34.75-.75v-3c0-.97-.79-1.75-1.75-1.75H3Z"/></g><path fill="#CFD8DC" fill-rule="evenodd" d="M11.46 2.46c.29-.3.76-.3 1.06 0l2 2c.29.29.29.76 0 1.06 -.3.29-.77.29-1.07 0l-.72-.72v3.18c0 .41-.34.75-.75.75 -.42 0-.75-.34-.75-.75V4.79l-.72.71c-.3.29-.77.29-1.07 0 -.3-.3-.3-.77 0-1.07l2-2Z"/><path fill="#FFC44D" d="M17 10.25c-3.18 0-5.75 2.57-5.75 5.75 0 3.17 2.57 5.75 5.75 5.75 3.17 0 5.75-2.58 5.75-5.75 0-3.18-2.58-5.75-5.75-5.75Z"/><path fill="#ECEFF1" fill-rule="evenodd" d="M14.95 14.87c0-1.04.83-1.875 1.87-1.875h1.42c.41 0 .75.33.75.75 0 .41-.34.75-.75.75h-1.43c-.21 0-.375.16-.375.375 0 .2.16.375.375.375h.35c1.03 0 1.875.83 1.875 1.87 0 1.03-.84 1.875-1.875 1.875h-1.43c-.42 0-.75-.34-.75-.75 0-.42.33-.75.75-.75h1.42c.2 0 .375-.17.375-.375 0-.21-.17-.375-.375-.375h-.35c-1.04 0-1.875-.84-1.875-1.875Z"/></svg>