<svg viewBox="0 0 24 24" xmlns="http://www.w3.org/2000/svg"><path fill="#ECEFF1" d="M5 1.25c-.42 0-.75.33-.75.75v20c0 .41.33.75.75.75h14c.41 0 .75-.34.75-.75V2c0-.42-.34-.75-.75-.75H5Z"/><g fill="#8B98A6" fill-rule="evenodd"><path d="M9.25 6c0-.42.33-.75.75-.75h4c.41 0 .75.33.75.75 0 .41-.34.75-.75.75h-4c-.42 0-.75-.34-.75-.75Z"/><path d="M7.25 13c0-.42.33-.75.75-.75h8c.41 0 .75.33.75.75 0 .41-.34.75-.75.75H8c-.42 0-.75-.34-.75-.75Z"/><path d="M7.25 17c0-.42.33-.75.75-.75h8c.41 0 .75.33.75.75 0 .41-.34.75-.75.75H8c-.42 0-.75-.34-.75-.75Z"/><path d="M12 10.75c-.42 0-.75-.34-.75-.75V6c0-.42.33-.75.75-.75 .41 0 .75.33.75.75v4c0 .41-.34.75-.75.75Z"/></g></svg>