<svg viewBox="0 0 24 24" xmlns="http://www.w3.org/2000/svg"><path fill="#FFC44D" d="M12 1.25C6.06 1.25 1.25 6.06 1.25 12c0 5.93 4.81 10.75 10.75 10.75 5.93 0 10.75-4.82 10.75-10.75 0-5.94-4.82-10.75-10.75-10.75Z"/><g fill="#ECEFF1" fill-rule="evenodd"><path d="M7.75 11.75c0-.42.33-.75.75-.75h7c.41 0 .75.33.75.75 0 .41-.34.75-.75.75h-7c-.42 0-.75-.34-.75-.75Z"/><path d="M7.75 14.75c0-.42.33-.75.75-.75h7c.41 0 .75.33.75.75 0 .41-.34.75-.75.75h-7c-.42 0-.75-.34-.75-.75Z"/><path d="M7.96 6.71c.29-.3.76-.3 1.06 0l2.96 2.96 2.96-2.97c.29-.3.76-.3 1.06 0 .29.29.29.76 0 1.06l-3.29 3.28v7.68c0 .41-.34.75-.75.75 -.42 0-.75-.34-.75-.75v-7.69L7.92 7.74c-.3-.3-.3-.77 0-1.07Z"/></g></svg>