<svg viewBox="0 0 24 24" xmlns="http://www.w3.org/2000/svg"><g fill-rule="evenodd"><path d="M1 2c0-.56.44-1 1-1h20c.55 0 1 .44 1 1v20c0 .55-.45 1-1 1H2c-.56 0-1-.45-1-1V2Zm2 1v18h18V3H3Z"/><path d="M8.29 9.7l-4-4L5.7 4.28l4 4L8.28 9.69Z"/><path d="M5.7 9.7l4-4L8.28 4.28l-4 4 1.41 1.41Z"/><path d="M17.5 17c-.28 0-.5.22-.5.5 0 .27.22.5.5.5 .27 0 .5-.23.5-.5 0-.28-.23-.5-.5-.5Zm-2.5.5c0-1.39 1.11-2.5 2.5-2.5 1.38 0 2.5 1.11 2.5 2.5 0 1.38-1.12 2.5-2.5 2.5 -1.39 0-2.5-1.12-2.5-2.5Z"/><path d="M11 6h4.25C17.32 6 19 7.67 19 9.75c0 2.07-1.68 3.75-3.75 3.75H7.5c-.83 0-1.5.67-1.5 1.5 0 .82.67 1.5 1.5 1.5H13v2H7.5C5.56 18.5 4 16.93 4 15c0-1.94 1.56-3.5 3.5-3.5h7.75c.96 0 1.75-.79 1.75-1.75C17 8.78 16.21 8 15.25 8H11V6Z"/></g></svg>