<svg viewBox="0 0 24 24" xmlns="http://www.w3.org/2000/svg"><g fill-rule="evenodd"><path d="M1 2c0-.56.44-1 1-1h20c.55 0 1 .44 1 1v20c0 .55-.45 1-1 1H2c-.56 0-1-.45-1-1V2Zm2 1v18h18V3H3Z"/><path d="M1 2c0-.56.44-1 1-1h6.5c.55 0 1 .44 1 1v6.5c0 .55-.45 1-1 1H2c-.56 0-1-.45-1-1V2Zm2 1v4.5h4.5V3H3Z"/><path d="M1 15.5c0-.56.44-1 1-1h6.5c.55 0 1 .44 1 1V22c0 .55-.45 1-1 1H2c-.56 0-1-.45-1-1v-6.5Zm2 1V21h4.5v-4.5H3Z"/><path d="M7.5 8.5c0-.56.44-1 1-1h7c.55 0 1 .44 1 1V15c0 .55-.45 1-1 1h-7c-.56 0-1-.45-1-1V8.5Zm2 1V14h5V9.5h-5Z"/><path d="M14.5 2c0-.56.44-1 1-1H22c.55 0 1 .44 1 1v6.5c0 .55-.45 1-1 1h-6.5c-.56 0-1-.45-1-1V2Zm2 1v4.5H21V3h-4.5Z"/><path d="M14.5 15.5c0-.56.44-1 1-1H22c.55 0 1 .44 1 1V22c0 .55-.45 1-1 1h-6.5c-.56 0-1-.45-1-1v-6.5Zm2 1V21H21v-4.5h-4.5Z"/></g></svg>