<svg viewBox="0 0 24 24" xmlns="http://www.w3.org/2000/svg"><g fill-rule="evenodd"><path d="M1 4c0-.56.44-1 1-1h20c.55 0 1 .44 1 1v16c0 .55-.45 1-1 1H2c-.56 0-1-.45-1-1V4Zm2 1v14h18V5H3Z"/><path d="M4 16c0-.56.44-1 1-1h9c.55 0 1 .44 1 1v4c0 .55-.45 1-1 1H5c-.56 0-1-.45-1-1v-4Zm2 1v2h7v-2H6Z"/><path d="M13 16c0-.56.44-1 1-1h5c.55 0 1 .44 1 1v4c0 .55-.45 1-1 1h-5c-.56 0-1-.45-1-1v-4Zm2 1v2h3v-2h-3Z"/><path d="M13 4c0-.56.44-1 1-1h5c.55 0 1 .44 1 1v6c0 .55-.45 1-1 1h-5c-.56 0-1-.45-1-1V4Zm2 1v4h3V5h-3Z"/><path d="M14.5 12h4v2h-4v-2Z"/></g></svg>