<svg viewBox="0 0 24 24" xmlns="http://www.w3.org/2000/svg"><g fill-rule="evenodd"><path d="M11.55 1.1c.28-.15.61-.15.89 0l10 5c.33.16.55.51.55.89 0 .37-.22.72-.56.89l-10 4.99c-.29.14-.62.14-.9 0l-10-5c-.34-.17-.56-.52-.56-.9s.21-.73.55-.9l10-5ZM4.23 6.99l7.76 3.88 7.76-3.89 -7.77-3.89 -7.77 3.88Z"/><path d="M3 16.38V6.99H1v10c0 .37.21.72.55.89l10 5c.28.14.61.14.89 0l10-5c.33-.17.55-.52.55-.9v-10h-2v9.38l-9 4.5 -9-4.5Z"/><path d="M17 15v-2h2v2h-2Z"/><path d="M3.5 13v-2h2v2h-2Z"/><path d="M6 15.5v-2h2v2H6Z"/><path d="M8.5 18v-2h2v2h-2Z"/><path d="M11 4.5h2v2h-2v-2Z"/><path d="M11 7.5h2v2h-2v-2Z"/></g></svg>