<svg viewBox="0 0 24 24" xmlns="http://www.w3.org/2000/svg"><g fill-rule="evenodd"><path d="M1.23 1.35c.19-.23.46-.36.76-.36h8.99c.3 0 .59.14.78.38 .18.24.25.55.18.85l-1.69 6.75h4.71c.35 0 .68.19.86.5 .17.31.17.69-.01 1l-7.01 12c-.23.39-.69.57-1.13.46 -.44-.12-.74-.52-.74-.97v-7h-3c-.49 0-.91-.36-.99-.84l-2-12c-.05-.29.03-.59.22-.82Zm1.94 1.64l1.66 10h3.15c.55 0 1 .44 1 1v4.3l4.25-7.31H8.97c-.31 0-.6-.15-.79-.39 -.19-.25-.26-.56-.19-.86l1.68-6.76H3.13Z"/><path d="M18.293 3.29c.39-.4 1.02-.4 1.41 0l3 3 -1.42 1.41 -2.3-2.3 -2.3 2.29 -1.42-1.42 3-3Z"/><path d="M18 10V4h2v6h-2Z"/></g></svg>