<svg viewBox="0 0 24 24" xmlns="http://www.w3.org/2000/svg"><g fill-rule="evenodd"><path d="M1 13c0-1.66 1.34-3 3-3h16c1.65 0 3 1.34 3 3v6c0 1.65-1.35 3-3 3H4c-1.66 0-3-1.35-3-3v-6Zm3-1c-.56 0-1 .44-1 1v6c0 .55.44 1 1 1h16c.55 0 1-.45 1-1v-6c0-.56-.45-1-1-1H4Z"/><path d="M9 17H5v-2h4v2Z"/><path d="M19 15.5h-2v-2h2v2Z"/><path d="M16 18.5h-2v-2h2v2Z"/><path d="M6 18v-4h2v4H6Z"/><path d="M6 5c-.56 0-1 .44-1 1 0 .55.44 1 1 1h4c1.65 0 3 1.34 3 3v1h-2v-1c0-.56-.45-1-1-1H6C4.34 9 3 7.65 3 6c0-1.66 1.34-3 3-3h16v2H6Z"/></g></svg>