<svg viewBox="0 0 24 24" xmlns="http://www.w3.org/2000/svg"><g fill-rule="evenodd"><path d="M5 20c0-1.66 1.34-3 3-3h8c1.65 0 3 1.34 3 3v2c0 .55-.45 1-1 1H6c-.56 0-1-.45-1-1v-2Zm3-1c-.56 0-1 .44-1 1v1h10v-1c0-.56-.45-1-1-1H8Z"/><path d="M6.5 6.5c0-.56.44-1 1-1h9c.55 0 1 .44 1 1v3c0 .55-.45 1-1 1h-9c-.56 0-1-.45-1-1v-3Zm2 1v1h7v-1h-7Z"/><path d="M8.51 9.32c.08-.48.49-.83.98-.83h4.99c.48 0 .9.34.98.82l1.5 8.49c.05.29-.03.59-.22.81 -.19.22-.48.35-.77.35h-8c-.3 0-.58-.14-.77-.36 -.19-.23-.28-.53-.22-.82l1.5-8.5Zm1.82 1.17l-1.15 6.5h5.61l-1.15-6.5h-3.33Z"/><path d="M13 2v4.5h-2V2h2Z"/><path d="M14 5h-4V3h4v2Z"/></g></svg>