<svg viewBox="0 0 24 24" xmlns="http://www.w3.org/2000/svg"><g fill-rule="evenodd"><path d="M6.5 6.5c-1.4-.82-3.23-.64-4.43.53C.63 8.42.63 10.69 2.06 12.08l3.72 3.62c.38.37 1 .37 1.39 0l3.72-3.63c1.43-1.4 1.43-3.67 0-5.06 -1.21-1.17-3.04-1.35-4.425-.54Zm-.7 1.96c-.65-.63-1.7-.63-2.34 0 -.63.6-.63 1.58 0 2.19l3.03 2.94 3.03-2.95c.62-.61.62-1.59 0-2.2 -.65-.63-1.7-.63-2.34 0 -.39.37-1.01.37-1.4 0Z"/><path d="M22 17h-5v-2h5v2Z"/><path d="M17.5 5h2c.55 0 1 .44 1 1v10h-2V7h-1V5Z"/><path d="M10.793 15.29l3-3 1.41 1.41 -3 3 -1.42-1.42Z"/><path d="M15.2 15.29l-3-3 -1.42 1.41 3 3 1.41-1.42Z"/></g></svg>