<svg viewBox="0 0 24 24" xmlns="http://www.w3.org/2000/svg"><g fill-rule="evenodd"><path d="M4 20c0-1.66 1.34-3 3-3h10c1.65 0 3 1.34 3 3v2c0 .55-.45 1-1 1H5c-.56 0-1-.45-1-1v-2Zm3-1c-.56 0-1 .44-1 1v1h12v-1c0-.56-.45-1-1-1H7Z"/><path d="M4.5 3c0-.56.44-1 1-1H8c.55 0 1 .44 1 1v1h.5V3c0-.56.44-1 1-1h3c.55 0 1 .44 1 1v1h.5V3c0-.56.44-1 1-1h2.5c.55 0 1 .44 1 1v5c0 .4-.25.77-.63.92l-2.5 1c-.12.04-.25.07-.38.07h-8c-.13 0-.26-.03-.38-.08l-2.5-1c-.38-.16-.63-.52-.63-.93v-5ZM17 4v1c0 .55-.45 1-1 1h-2.5c-.56 0-1-.45-1-1V4h-1v1c0 .55-.45 1-1 1H8c-.56 0-1-.45-1-1V4h-.5v3.32l1.69.67h7.61l1.69-.68V3.98h-.5Z"/><path d="M7.51 8.83c.08-.49.49-.84.98-.84h6.99c.48 0 .9.35.98.83l1.5 9c.04.29-.04.58-.23.81 -.19.22-.47.35-.77.35h-10c-.3 0-.58-.13-.77-.36 -.2-.23-.28-.53-.23-.82l1.5-9Zm1.83 1.16l-1.17 7h7.63l-1.17-7H9.32Z"/></g></svg>