<svg viewBox="0 0 24 24" xmlns="http://www.w3.org/2000/svg"><g fill-rule="evenodd"><path d="M3.1 4.55c.16-.34.51-.56.89-.56h18c.55 0 1 .44 1 1v4c0 .55-.45 1-1 1h-20c-.35 0-.67-.18-.86-.48 -.19-.3-.2-.67-.05-.98l2-4Zm1.51 1.44l-1 2h17.38v-2H4.6Z"/><path d="M1 9c0-.56.44-1 1-1h16c.36 0 .7.2.88.52 .17.32.15.71-.05 1.02l-2 3c-.19.27-.5.44-.84.44h-14c-.56 0-1-.45-1-1v-3Zm2 1v1h12.46l.66-1H2.98Z"/><path d="M3.03 11.72c.12-.43.51-.73.96-.73h5c.31 0 .6.14.79.39 .18.25.24.57.16.87l-2 7c-.13.42-.52.72-.97.72h-5c-.32 0-.61-.15-.8-.4 -.19-.26-.25-.58-.17-.88l2-7Zm1.71 1.27l-1.43 5h2.91l1.42-5H4.72Z"/><path d="M10.168 15.55l-2.01-3 1.66-1.11 2 3 -1.67 1.1Z"/></g></svg>