<svg viewBox="0 0 24 24" xmlns="http://www.w3.org/2000/svg"><g fill-rule="evenodd"><path d="M8.56 15c-.46 0-.86.31-.98.75l-1.01 4c-.16.63.31 1.24.96 1.24 .42 0 .81-.28.94-.69l.54-1.64c.13-.41.51-.69.94-.69h3.99c.43 0 .81.27.94.68l.54 1.63c.13.4.51.68.94.68 .64 0 1.12-.62.96-1.25l-1.01-4.01c-.12-.45-.52-.76-.98-.76H8.45Zm-2.92.27c.33-1.34 1.53-2.28 2.91-2.28h6.87c1.37 0 2.57.93 2.91 2.27l1 4c.47 1.89-.96 3.72-2.91 3.72 -1.3 0-2.44-.83-2.85-2.06l-.32-.95h-2.56l-.32.94c-.41 1.22-1.56 2.05-2.85 2.05 -1.96 0-3.39-1.84-2.91-3.73l1-4.01Z"/><path d="M5.5 1h5c.55 0 1 .44 1 1v4.5c0 .55-.45 1-1 1h-4V10h4v2h-5c-.56 0-1-.45-1-1V6.5c0-.56.44-1 1-1h4V3h-4V1Z"/><path d="M14.5 2v9h-2V2h2Z"/><path d="M12.5 2c0-.56.44-1 1-1h3c1.65 0 3 1.34 3 3v1c0 1.65-1.35 3-3 3h-3c-.56 0-1-.45-1-1V2Zm2 1v3h2c.55 0 1-.45 1-1V4c0-.56-.45-1-1-1h-2Z"/></g></svg>