<svg viewBox="0 0 24 24" xmlns="http://www.w3.org/2000/svg"><g fill-rule="evenodd"><path d="M4 14c0-2.77 2.23-5 5-5h6c2.76 0 5 2.23 5 5 0 2.76-2.24 5-5 5H9c-2.77 0-5-2.24-5-5Zm5-3c-1.66 0-3 1.34-3 3 0 1.65 1.34 3 3 3h6c1.65 0 3-1.35 3-3 0-1.66-1.35-3-3-3H9Z"/><path d="M8.02 5.75c.11-.45.51-.76.97-.76h5.99c.45 0 .85.31.97.75l1 4c.07.29 0 .61-.19.85s-.49.38-.79.38h-8c-.31 0-.6-.15-.79-.39 -.19-.25-.26-.56-.19-.86l1-4Zm1.75 1.24l-.5 2h5.43l-.5-2H9.76Z"/><path d="M3 12.39l3.61-.41 -.23-1.99 -4.5.5c-.51.05-.89.48-.89.99v5c0 .5.38.93.88.99l4.5.5 .22-1.99 -3.62-.41v-3.21Z"/><path d="M21 12.39l-3.62-.41 .22-1.99 4.5.5c.5.05.88.48.88.99v5c0 .5-.39.93-.89.99l-4.5.5 -.23-1.99 3.61-.41v-3.21Z"/></g></svg>