<svg width="563" height="187" viewBox="0 0 563 187" fill="none" xmlns="http://www.w3.org/2000/svg">
<path d="M123 65H142.405C153.45 65 162.405 73.9543 162.405 85V156C162.405 167.046 171.359 176 182.405 176H478.5C489.546 176 498.5 167.046 498.5 156V121.5" stroke="#FD8270" stroke-width="3"/>
<rect x="157" y="116" width="10" height="10" fill="white"/>
<path d="M68 66H83.1954C94.2411 66 103.195 74.9543 103.195 86V101C103.195 112.046 112.15 121 123.195 121H348.108C359.154 121 368.108 112.046 368.108 101V86C368.108 74.9543 377.062 66 388.108 66H415" stroke="#028BA3" stroke-width="3"/>
<line x1="65" y1="65.5" x2="563" y2="65.5001" stroke="#960563" stroke-width="3"/>
<circle cx="57" cy="65" r="9.5" fill="white" stroke="#960563" stroke-width="3"/>
<circle cx="406" cy="65" r="9.5" fill="white" stroke="#960563" stroke-width="3"/>
<circle cx="139" cy="121" r="9.5" fill="white" stroke="#028BA3" stroke-width="3"/>
<circle cx="187" cy="121" r="9.5" fill="white" stroke="#028BA3" stroke-width="3"/>
<circle cx="235" cy="121" r="9.5" fill="white" stroke="#028BA3" stroke-width="3"/>
<circle cx="283" cy="121" r="9.5" fill="white" stroke="#028BA3" stroke-width="3"/>
<circle cx="331" cy="121" r="9.5" fill="white" stroke="#028BA3" stroke-width="3"/>
<circle cx="214" cy="176" r="9.5" fill="white" stroke="#FD8270" stroke-width="3"/>
<circle cx="262" cy="176" r="9.5" fill="white" stroke="#FD8270" stroke-width="3"/>
<circle cx="310" cy="176" r="9.5" fill="white" stroke="#FD8270" stroke-width="3"/>
<circle cx="358" cy="176" r="9.5" fill="white" stroke="#FD8270" stroke-width="3"/>
<circle cx="406" cy="176" r="9.5" fill="white" stroke="#FD8270" stroke-width="3"/>
<circle cx="454" cy="176" r="9.5" fill="white" stroke="#FD8270" stroke-width="3"/>
<path d="M1.0575 70V62.4025H1.86C2.05 62.4025 2.1675 62.495 2.2125 62.68L2.31 63.46C2.59 63.115 2.905 62.8325 3.255 62.6125C3.605 62.3925 4.01 62.2825 4.47 62.2825C4.98 62.2825 5.3925 62.425 5.7075 62.71C6.0275 62.995 6.2575 63.38 6.3975 63.865C6.5075 63.59 6.6475 63.3525 6.8175 63.1525C6.9925 62.9525 7.1875 62.7875 7.4025 62.6575C7.6175 62.5275 7.845 62.4325 8.085 62.3725C8.33 62.3125 8.5775 62.2825 8.8275 62.2825C9.2275 62.2825 9.5825 62.3475 9.8925 62.4775C10.2075 62.6025 10.4725 62.7875 10.6875 63.0325C10.9075 63.2775 11.075 63.58 11.19 63.94C11.305 64.295 11.3625 64.7025 11.3625 65.1625V70H10.02V65.1625C10.02 64.5675 9.89 64.1175 9.63 63.8125C9.37 63.5025 8.995 63.3475 8.505 63.3475C8.285 63.3475 8.075 63.3875 7.875 63.4675C7.68 63.5425 7.5075 63.655 7.3575 63.805C7.2075 63.955 7.0875 64.145 6.9975 64.375C6.9125 64.6 6.87 64.8625 6.87 65.1625V70H5.5275V65.1625C5.5275 64.5525 5.405 64.0975 5.16 63.7975C4.915 63.4975 4.5575 63.3475 4.0875 63.3475C3.7575 63.3475 3.4525 63.4375 3.1725 63.6175C2.8925 63.7925 2.635 64.0325 2.4 64.3375V70H1.0575ZM17.509 66.58C16.894 66.6 16.369 66.65 15.934 66.73C15.504 66.805 15.1515 66.905 14.8765 67.03C14.6065 67.155 14.409 67.3025 14.284 67.4725C14.164 67.6425 14.104 67.8325 14.104 68.0425C14.104 68.2425 14.1365 68.415 14.2015 68.56C14.2665 68.705 14.354 68.825 14.464 68.92C14.579 69.01 14.7115 69.0775 14.8615 69.1225C15.0165 69.1625 15.1815 69.1825 15.3565 69.1825C15.5915 69.1825 15.8065 69.16 16.0015 69.115C16.1965 69.065 16.379 68.995 16.549 68.905C16.724 68.815 16.889 68.7075 17.044 68.5825C17.204 68.4575 17.359 68.315 17.509 68.155V66.58ZM13.1965 63.475C13.6165 63.07 14.069 62.7675 14.554 62.5675C15.039 62.3675 15.5765 62.2675 16.1665 62.2675C16.5915 62.2675 16.969 62.3375 17.299 62.4775C17.629 62.6175 17.9065 62.8125 18.1315 63.0625C18.3565 63.3125 18.5265 63.615 18.6415 63.97C18.7565 64.325 18.814 64.715 18.814 65.14V70H18.2215C18.0915 70 17.9915 69.98 17.9215 69.94C17.8515 69.895 17.7965 69.81 17.7565 69.685L17.6065 68.965C17.4065 69.15 17.2115 69.315 17.0215 69.46C16.8315 69.6 16.6315 69.72 16.4215 69.82C16.2115 69.915 15.9865 69.9875 15.7465 70.0375C15.5115 70.0925 15.249 70.12 14.959 70.12C14.664 70.12 14.3865 70.08 14.1265 70C13.8665 69.915 13.639 69.79 13.444 69.625C13.254 69.46 13.1015 69.2525 12.9865 69.0025C12.8765 68.7475 12.8215 68.4475 12.8215 68.1025C12.8215 67.8025 12.904 67.515 13.069 67.24C13.234 66.96 13.5015 66.7125 13.8715 66.4975C14.2415 66.2825 14.724 66.1075 15.319 65.9725C15.914 65.8325 16.644 65.7525 17.509 65.7325V65.14C17.509 64.55 17.3815 64.105 17.1265 63.805C16.8715 63.5 16.499 63.3475 16.009 63.3475C15.679 63.3475 15.4015 63.39 15.1765 63.475C14.9565 63.555 14.764 63.6475 14.599 63.7525C14.439 63.8525 14.299 63.945 14.179 64.03C14.064 64.11 13.949 64.15 13.834 64.15C13.744 64.15 13.6665 64.1275 13.6015 64.0825C13.5365 64.0325 13.4815 63.9725 13.4365 63.9025L13.1965 63.475ZM22.2575 62.4025V70H20.9225V62.4025H22.2575ZM22.5425 60.0175C22.5425 60.1475 22.515 60.27 22.46 60.385C22.41 60.495 22.34 60.595 22.25 60.685C22.165 60.77 22.0625 60.8375 21.9425 60.8875C21.8275 60.9375 21.705 60.9625 21.575 60.9625C21.445 60.9625 21.3225 60.9375 21.2075 60.8875C21.0975 60.8375 21 60.77 20.915 60.685C20.83 60.595 20.7625 60.495 20.7125 60.385C20.6625 60.27 20.6375 60.1475 20.6375 60.0175C20.6375 59.8875 20.6625 59.765 20.7125 59.65C20.7625 59.53 20.83 59.4275 20.915 59.3425C21 59.2525 21.0975 59.1825 21.2075 59.1325C21.3225 59.0825 21.445 59.0575 21.575 59.0575C21.705 59.0575 21.8275 59.0825 21.9425 59.1325C22.0625 59.1825 22.165 59.2525 22.25 59.3425C22.34 59.4275 22.41 59.53 22.46 59.65C22.515 59.765 22.5425 59.8875 22.5425 60.0175ZM25.7111 63.505C25.8761 63.32 26.0511 63.1525 26.2361 63.0025C26.4211 62.8525 26.6161 62.725 26.8211 62.62C27.0311 62.51 27.2511 62.4275 27.4811 62.3725C27.7161 62.3125 27.9686 62.2825 28.2386 62.2825C28.6536 62.2825 29.0186 62.3525 29.3336 62.4925C29.6536 62.6275 29.9186 62.8225 30.1286 63.0775C30.3436 63.3275 30.5061 63.63 30.6161 63.985C30.7261 64.34 30.7811 64.7325 30.7811 65.1625V70H29.4386V65.1625C29.4386 64.5875 29.3061 64.1425 29.0411 63.8275C28.7811 63.5075 28.3836 63.3475 27.8486 63.3475C27.4536 63.3475 27.0836 63.4425 26.7386 63.6325C26.3986 63.8225 26.0836 64.08 25.7936 64.405V70H24.4511V62.4025H25.2536C25.4436 62.4025 25.5611 62.495 25.6061 62.68L25.7111 63.505Z" fill="#74706D"/>
<path d="M53.5525 126V119.542L52.7125 119.445C52.6075 119.42 52.52 119.382 52.45 119.332C52.385 119.277 52.3525 119.2 52.3525 119.1V118.552H53.5525V117.817C53.5525 117.382 53.6125 116.997 53.7325 116.662C53.8575 116.322 54.0325 116.037 54.2575 115.807C54.4875 115.572 54.7625 115.395 55.0825 115.275C55.4025 115.155 55.7625 115.095 56.1625 115.095C56.5025 115.095 56.815 115.145 57.1 115.245L57.07 115.912C57.06 116.032 56.9925 116.097 56.8675 116.107C56.7475 116.117 56.585 116.122 56.38 116.122C56.15 116.122 55.94 116.152 55.75 116.212C55.565 116.272 55.405 116.37 55.27 116.505C55.135 116.64 55.03 116.817 54.955 117.037C54.885 117.257 54.85 117.53 54.85 117.855V118.552H57.04V119.52H54.895V126H53.5525ZM63.1523 121.372C63.1523 121.062 63.1073 120.78 63.0173 120.525C62.9323 120.265 62.8048 120.042 62.6348 119.857C62.4698 119.667 62.2673 119.522 62.0273 119.422C61.7873 119.317 61.5148 119.265 61.2098 119.265C60.5698 119.265 60.0623 119.452 59.6873 119.827C59.3173 120.197 59.0873 120.712 58.9973 121.372H63.1523ZM64.2323 124.935C64.0673 125.135 63.8698 125.31 63.6398 125.46C63.4098 125.605 63.1623 125.725 62.8973 125.82C62.6373 125.915 62.3673 125.985 62.0873 126.03C61.8073 126.08 61.5298 126.105 61.2548 126.105C60.7298 126.105 60.2448 126.017 59.7998 125.842C59.3598 125.662 58.9773 125.402 58.6523 125.062C58.3323 124.717 58.0823 124.292 57.9023 123.787C57.7223 123.282 57.6323 122.702 57.6323 122.047C57.6323 121.517 57.7123 121.022 57.8723 120.562C58.0373 120.102 58.2723 119.705 58.5773 119.37C58.8823 119.03 59.2548 118.765 59.6948 118.575C60.1348 118.38 60.6298 118.282 61.1798 118.282C61.6348 118.282 62.0548 118.36 62.4398 118.515C62.8298 118.665 63.1648 118.885 63.4448 119.175C63.7298 119.46 63.9523 119.815 64.1123 120.24C64.2723 120.66 64.3523 121.14 64.3523 121.68C64.3523 121.89 64.3298 122.03 64.2848 122.1C64.2398 122.17 64.1548 122.205 64.0298 122.205H58.9523C58.9673 122.685 59.0323 123.102 59.1473 123.457C59.2673 123.812 59.4323 124.11 59.6423 124.35C59.8523 124.585 60.1023 124.762 60.3923 124.882C60.6823 124.997 61.0073 125.055 61.3673 125.055C61.7023 125.055 61.9898 125.017 62.2298 124.942C62.4748 124.862 62.6848 124.777 62.8598 124.687C63.0348 124.597 63.1798 124.515 63.2948 124.44C63.4148 124.36 63.5173 124.32 63.6023 124.32C63.7123 124.32 63.7973 124.362 63.8573 124.447L64.2323 124.935ZM70.1096 122.58C69.4946 122.6 68.9696 122.65 68.5346 122.73C68.1046 122.805 67.7521 122.905 67.4771 123.03C67.2071 123.155 67.0096 123.302 66.8846 123.472C66.7646 123.642 66.7046 123.832 66.7046 124.042C66.7046 124.242 66.7371 124.415 66.8021 124.56C66.8671 124.705 66.9546 124.825 67.0646 124.92C67.1796 125.01 67.3121 125.077 67.4621 125.122C67.6171 125.162 67.7821 125.182 67.9571 125.182C68.1921 125.182 68.4071 125.16 68.6021 125.115C68.7971 125.065 68.9796 124.995 69.1496 124.905C69.3246 124.815 69.4896 124.707 69.6446 124.582C69.8046 124.457 69.9596 124.315 70.1096 124.155V122.58ZM65.7971 119.475C66.2171 119.07 66.6696 118.767 67.1546 118.567C67.6396 118.367 68.1771 118.267 68.7671 118.267C69.1921 118.267 69.5696 118.337 69.8996 118.477C70.2296 118.617 70.5071 118.812 70.7321 119.062C70.9571 119.312 71.1271 119.615 71.2421 119.97C71.3571 120.325 71.4146 120.715 71.4146 121.14V126H70.8221C70.6921 126 70.5921 125.98 70.5221 125.94C70.4521 125.895 70.3971 125.81 70.3571 125.685L70.2071 124.965C70.0071 125.15 69.8121 125.315 69.6221 125.46C69.4321 125.6 69.2321 125.72 69.0221 125.82C68.8121 125.915 68.5871 125.987 68.3471 126.038C68.1121 126.093 67.8496 126.12 67.5596 126.12C67.2646 126.12 66.9871 126.08 66.7271 126C66.4671 125.915 66.2396 125.79 66.0446 125.625C65.8546 125.46 65.7021 125.252 65.5871 125.002C65.4771 124.747 65.4221 124.447 65.4221 124.102C65.4221 123.802 65.5046 123.515 65.6696 123.24C65.8346 122.96 66.1021 122.712 66.4721 122.497C66.8421 122.282 67.3246 122.107 67.9196 121.972C68.5146 121.833 69.2446 121.752 70.1096 121.732V121.14C70.1096 120.55 69.9821 120.105 69.7271 119.805C69.4721 119.5 69.0996 119.347 68.6096 119.347C68.2796 119.347 68.0021 119.39 67.7771 119.475C67.5571 119.555 67.3646 119.647 67.1996 119.752C67.0396 119.852 66.8996 119.945 66.7796 120.03C66.6646 120.11 66.5496 120.15 66.4346 120.15C66.3446 120.15 66.2671 120.127 66.2021 120.082C66.1371 120.032 66.0821 119.972 66.0371 119.902L65.7971 119.475ZM75.6781 126.12C75.0781 126.12 74.6156 125.952 74.2906 125.617C73.9706 125.282 73.8106 124.8 73.8106 124.17V119.52H72.8956C72.8156 119.52 72.7481 119.497 72.6931 119.452C72.6381 119.402 72.6106 119.327 72.6106 119.227V118.695L73.8556 118.537L74.1631 116.19C74.1781 116.115 74.2106 116.055 74.2606 116.01C74.3156 115.96 74.3856 115.935 74.4706 115.935H75.1456V118.552H77.3431V119.52H75.1456V124.08C75.1456 124.4 75.2231 124.637 75.3781 124.792C75.5331 124.947 75.7331 125.025 75.9781 125.025C76.1181 125.025 76.2381 125.007 76.3381 124.972C76.4431 124.932 76.5331 124.89 76.6081 124.845C76.6831 124.8 76.7456 124.76 76.7956 124.725C76.8506 124.685 76.8981 124.665 76.9381 124.665C77.0081 124.665 77.0706 124.707 77.1256 124.792L77.5156 125.43C77.2856 125.645 77.0081 125.815 76.6831 125.94C76.3581 126.06 76.0231 126.12 75.6781 126.12ZM78.6016 120.937H82.3066V122.07H78.6016V120.937ZM88.4055 122.58C87.7905 122.6 87.2655 122.65 86.8305 122.73C86.4005 122.805 86.048 122.905 85.773 123.03C85.503 123.155 85.3055 123.302 85.1805 123.472C85.0605 123.642 85.0005 123.832 85.0005 124.042C85.0005 124.242 85.033 124.415 85.098 124.56C85.163 124.705 85.2505 124.825 85.3605 124.92C85.4755 125.01 85.608 125.077 85.758 125.122C85.913 125.162 86.078 125.182 86.253 125.182C86.488 125.182 86.703 125.16 86.898 125.115C87.093 125.065 87.2755 124.995 87.4455 124.905C87.6205 124.815 87.7855 124.707 87.9405 124.582C88.1005 124.457 88.2555 124.315 88.4055 124.155V122.58ZM84.093 119.475C84.513 119.07 84.9655 118.767 85.4505 118.567C85.9355 118.367 86.473 118.267 87.063 118.267C87.488 118.267 87.8655 118.337 88.1955 118.477C88.5255 118.617 88.803 118.812 89.028 119.062C89.253 119.312 89.423 119.615 89.538 119.97C89.653 120.325 89.7105 120.715 89.7105 121.14V126H89.118C88.988 126 88.888 125.98 88.818 125.94C88.748 125.895 88.693 125.81 88.653 125.685L88.503 124.965C88.303 125.15 88.108 125.315 87.918 125.46C87.728 125.6 87.528 125.72 87.318 125.82C87.108 125.915 86.883 125.987 86.643 126.038C86.408 126.093 86.1455 126.12 85.8555 126.12C85.5605 126.12 85.283 126.08 85.023 126C84.763 125.915 84.5355 125.79 84.3405 125.625C84.1505 125.46 83.998 125.252 83.883 125.002C83.773 124.747 83.718 124.447 83.718 124.102C83.718 123.802 83.8005 123.515 83.9655 123.24C84.1305 122.96 84.398 122.712 84.768 122.497C85.138 122.282 85.6205 122.107 86.2155 121.972C86.8105 121.833 87.5405 121.752 88.4055 121.732V121.14C88.4055 120.55 88.278 120.105 88.023 119.805C87.768 119.5 87.3955 119.347 86.9055 119.347C86.5755 119.347 86.298 119.39 86.073 119.475C85.853 119.555 85.6605 119.647 85.4955 119.752C85.3355 119.852 85.1955 119.945 85.0755 120.03C84.9605 120.11 84.8455 120.15 84.7305 120.15C84.6405 120.15 84.563 120.127 84.498 120.082C84.433 120.032 84.378 119.972 84.333 119.902L84.093 119.475Z" fill="#74706D"/>
<path d="M8.7825 5.8125H5.5125V15H3.495V5.8125H0.225V4.155H8.7825V5.8125ZM10.1479 8.64C10.3879 8.18 10.6729 7.82 11.0029 7.56C11.3329 7.295 11.7229 7.1625 12.1729 7.1625C12.5279 7.1625 12.8129 7.24 13.0279 7.395L12.9079 8.7825C12.8829 8.8725 12.8454 8.9375 12.7954 8.9775C12.7504 9.0125 12.6879 9.03 12.6079 9.03C12.5329 9.03 12.4204 9.0175 12.2704 8.9925C12.1254 8.9675 11.9829 8.955 11.8429 8.955C11.6379 8.955 11.4554 8.985 11.2954 9.045C11.1354 9.105 10.9904 9.1925 10.8604 9.3075C10.7354 9.4175 10.6229 9.5525 10.5229 9.7125C10.4279 9.8725 10.3379 10.055 10.2529 10.26V15H8.40035V7.305H9.48785C9.67785 7.305 9.81035 7.34 9.88535 7.41C9.96035 7.475 10.0104 7.595 10.0354 7.77L10.1479 8.64ZM17.9585 11.715C17.4235 11.74 16.9735 11.7875 16.6085 11.8575C16.2435 11.9225 15.951 12.0075 15.731 12.1125C15.511 12.2175 15.3535 12.34 15.2585 12.48C15.1635 12.62 15.116 12.7725 15.116 12.9375C15.116 13.2625 15.211 13.495 15.401 13.635C15.596 13.775 15.8485 13.845 16.1585 13.845C16.5385 13.845 16.866 13.7775 17.141 13.6425C17.421 13.5025 17.6935 13.2925 17.9585 13.0125V11.715ZM13.7135 8.3775C14.5985 7.5675 15.6635 7.1625 16.9085 7.1625C17.3585 7.1625 17.761 7.2375 18.116 7.3875C18.471 7.5325 18.771 7.7375 19.016 8.0025C19.261 8.2625 19.446 8.575 19.571 8.94C19.701 9.305 19.766 9.705 19.766 10.14V15H18.926C18.751 15 18.616 14.975 18.521 14.925C18.426 14.87 18.351 14.7625 18.296 14.6025L18.131 14.0475C17.936 14.2225 17.746 14.3775 17.561 14.5125C17.376 14.6425 17.1835 14.7525 16.9835 14.8425C16.7835 14.9325 16.5685 15 16.3385 15.045C16.1135 15.095 15.8635 15.12 15.5885 15.12C15.2635 15.12 14.9635 15.0775 14.6885 14.9925C14.4135 14.9025 14.176 14.77 13.976 14.595C13.776 14.42 13.621 14.2025 13.511 13.9425C13.401 13.6825 13.346 13.38 13.346 13.035C13.346 12.84 13.3785 12.6475 13.4435 12.4575C13.5085 12.2625 13.6135 12.0775 13.7585 11.9025C13.9085 11.7275 14.101 11.5625 14.336 11.4075C14.571 11.2525 14.8585 11.1175 15.1985 11.0025C15.5435 10.8875 15.9435 10.795 16.3985 10.725C16.8535 10.65 17.3735 10.605 17.9585 10.59V10.14C17.9585 9.625 17.8485 9.245 17.6285 9C17.4085 8.75 17.091 8.625 16.676 8.625C16.376 8.625 16.126 8.66 15.926 8.73C15.731 8.8 15.5585 8.88 15.4085 8.97C15.2585 9.055 15.121 9.1325 14.996 9.2025C14.876 9.2725 14.741 9.3075 14.591 9.3075C14.461 9.3075 14.351 9.275 14.261 9.21C14.171 9.14 14.0985 9.06 14.0435 8.97L13.7135 8.3775ZM26.3407 9.27C26.1307 9.015 25.9007 8.835 25.6507 8.73C25.4057 8.625 25.1407 8.5725 24.8557 8.5725C24.5757 8.5725 24.3232 8.625 24.0982 8.73C23.8732 8.835 23.6807 8.995 23.5207 9.21C23.3607 9.42 23.2382 9.69 23.1532 10.02C23.0682 10.345 23.0257 10.73 23.0257 11.175C23.0257 11.625 23.0607 12.0075 23.1307 12.3225C23.2057 12.6325 23.3107 12.8875 23.4457 13.0875C23.5807 13.2825 23.7457 13.425 23.9407 13.515C24.1357 13.6 24.3532 13.6425 24.5932 13.6425C24.9782 13.6425 25.3057 13.5625 25.5757 13.4025C25.8457 13.2425 26.1007 13.015 26.3407 12.72V9.27ZM28.1932 3.855V15H27.0607C26.8157 15 26.6607 14.8875 26.5957 14.6625L26.4382 13.92C26.1282 14.275 25.7707 14.5625 25.3657 14.7825C24.9657 15.0025 24.4982 15.1125 23.9632 15.1125C23.5432 15.1125 23.1582 15.025 22.8082 14.85C22.4582 14.675 22.1557 14.4225 21.9007 14.0925C21.6507 13.7575 21.4557 13.345 21.3157 12.855C21.1807 12.365 21.1132 11.805 21.1132 11.175C21.1132 10.605 21.1907 10.075 21.3457 9.585C21.5007 9.095 21.7232 8.67 22.0132 8.31C22.3032 7.95 22.6507 7.67 23.0557 7.47C23.4607 7.265 23.9157 7.1625 24.4207 7.1625C24.8507 7.1625 25.2182 7.23 25.5232 7.365C25.8282 7.5 26.1007 7.6825 26.3407 7.9125V3.855H28.1932ZM31.9414 7.305V15H30.0814V7.305H31.9414ZM32.1964 5.0625C32.1964 5.2225 32.1639 5.3725 32.0989 5.5125C32.0339 5.6525 31.9464 5.775 31.8364 5.88C31.7314 5.985 31.6064 6.07 31.4614 6.135C31.3164 6.195 31.1614 6.225 30.9964 6.225C30.8364 6.225 30.6839 6.195 30.5389 6.135C30.3989 6.07 30.2764 5.985 30.1714 5.88C30.0664 5.775 29.9814 5.6525 29.9164 5.5125C29.8564 5.3725 29.8264 5.2225 29.8264 5.0625C29.8264 4.8975 29.8564 4.7425 29.9164 4.5975C29.9814 4.4525 30.0664 4.3275 30.1714 4.2225C30.2764 4.1175 30.3989 4.035 30.5389 3.975C30.6839 3.91 30.8364 3.8775 30.9964 3.8775C31.1614 3.8775 31.3164 3.91 31.4614 3.975C31.6064 4.035 31.7314 4.1175 31.8364 4.2225C31.9464 4.3275 32.0339 4.4525 32.0989 4.5975C32.1639 4.7425 32.1964 4.8975 32.1964 5.0625ZM41.5925 15H39.74V8.6925H36.17V12.8625C36.17 13.1025 36.2275 13.29 36.3425 13.425C36.4625 13.56 36.625 13.6275 36.83 13.6275C36.945 13.6275 37.04 13.615 37.115 13.59C37.195 13.56 37.2625 13.53 37.3175 13.5C37.3775 13.47 37.43 13.4425 37.475 13.4175C37.52 13.3875 37.565 13.3725 37.61 13.3725C37.665 13.3725 37.71 13.3875 37.745 13.4175C37.78 13.4425 37.8175 13.4825 37.8575 13.5375L38.4125 14.4375C38.1425 14.6625 37.8325 14.8325 37.4825 14.9475C37.1325 15.0625 36.77 15.12 36.395 15.12C35.725 15.12 35.21 14.9325 34.85 14.5575C34.495 14.1775 34.3175 13.655 34.3175 12.99V8.6925H33.53C33.43 8.6925 33.345 8.66 33.275 8.595C33.205 8.53 33.17 8.4325 33.17 8.3025V7.5675L34.4075 7.3575L34.7975 5.265C34.8225 5.165 34.87 5.0875 34.94 5.0325C35.01 4.9775 35.1 4.95 35.21 4.95H36.17V7.3725H41.5925V15ZM41.915 5.0325C41.915 5.1925 41.8825 5.345 41.8175 5.49C41.7525 5.63 41.665 5.7525 41.555 5.8575C41.45 5.9625 41.3225 6.0475 41.1725 6.1125C41.0275 6.1725 40.8725 6.2025 40.7075 6.2025C40.5475 6.2025 40.3975 6.1725 40.2575 6.1125C40.1175 6.0475 39.995 5.9625 39.89 5.8575C39.785 5.7525 39.7 5.63 39.635 5.49C39.575 5.345 39.545 5.1925 39.545 5.0325C39.545 4.8675 39.575 4.715 39.635 4.575C39.7 4.43 39.785 4.305 39.89 4.2C39.995 4.09 40.1175 4.005 40.2575 3.945C40.3975 3.88 40.5475 3.8475 40.7075 3.8475C40.8725 3.8475 41.0275 3.88 41.1725 3.945C41.3225 4.005 41.45 4.09 41.555 4.2C41.665 4.305 41.7525 4.43 41.8175 4.575C41.8825 4.715 41.915 4.8675 41.915 5.0325ZM46.8884 7.185C47.4584 7.185 47.9759 7.2775 48.4409 7.4625C48.9109 7.6475 49.3109 7.91 49.6409 8.25C49.9759 8.59 50.2334 9.005 50.4134 9.495C50.5934 9.985 50.6834 10.5325 50.6834 11.1375C50.6834 11.7475 50.5934 12.2975 50.4134 12.7875C50.2334 13.2775 49.9759 13.695 49.6409 14.04C49.3109 14.385 48.9109 14.65 48.4409 14.835C47.9759 15.02 47.4584 15.1125 46.8884 15.1125C46.3134 15.1125 45.7909 15.02 45.3209 14.835C44.8509 14.65 44.4484 14.385 44.1134 14.04C43.7834 13.695 43.5259 13.2775 43.3409 12.7875C43.1609 12.2975 43.0709 11.7475 43.0709 11.1375C43.0709 10.5325 43.1609 9.985 43.3409 9.495C43.5259 9.005 43.7834 8.59 44.1134 8.25C44.4484 7.91 44.8509 7.6475 45.3209 7.4625C45.7909 7.2775 46.3134 7.185 46.8884 7.185ZM46.8884 13.6875C47.5284 13.6875 48.0009 13.4725 48.3059 13.0425C48.6159 12.6125 48.7709 11.9825 48.7709 11.1525C48.7709 10.3225 48.6159 9.69 48.3059 9.255C48.0009 8.82 47.5284 8.6025 46.8884 8.6025C46.2384 8.6025 45.7559 8.8225 45.4409 9.2625C45.1309 9.6975 44.9759 10.3275 44.9759 11.1525C44.9759 11.9775 45.1309 12.6075 45.4409 13.0425C45.7559 13.4725 46.2384 13.6875 46.8884 13.6875ZM53.8291 8.25C53.9841 8.095 54.1466 7.9525 54.3166 7.8225C54.4916 7.6875 54.6741 7.575 54.8641 7.485C55.0591 7.39 55.2666 7.3175 55.4866 7.2675C55.7066 7.2125 55.9466 7.185 56.2066 7.185C56.6266 7.185 56.9991 7.2575 57.3241 7.4025C57.6491 7.5425 57.9191 7.7425 58.1341 8.0025C58.3541 8.2575 58.5191 8.565 58.6291 8.925C58.7441 9.28 58.8016 9.6725 58.8016 10.1025V15H56.9491V10.1025C56.9491 9.6325 56.8416 9.27 56.6266 9.015C56.4116 8.755 56.0841 8.625 55.6441 8.625C55.3241 8.625 55.0241 8.6975 54.7441 8.8425C54.4641 8.9875 54.1991 9.185 53.9491 9.435V15H52.0966V7.305H53.2291C53.4691 7.305 53.6266 7.4175 53.7016 7.6425L53.8291 8.25ZM64.6284 11.715C64.0934 11.74 63.6434 11.7875 63.2784 11.8575C62.9134 11.9225 62.6209 12.0075 62.4009 12.1125C62.1809 12.2175 62.0234 12.34 61.9284 12.48C61.8334 12.62 61.7859 12.7725 61.7859 12.9375C61.7859 13.2625 61.8809 13.495 62.0709 13.635C62.2659 13.775 62.5184 13.845 62.8284 13.845C63.2084 13.845 63.5359 13.7775 63.8109 13.6425C64.0909 13.5025 64.3634 13.2925 64.6284 13.0125V11.715ZM60.3834 8.3775C61.2684 7.5675 62.3334 7.1625 63.5784 7.1625C64.0284 7.1625 64.4309 7.2375 64.7859 7.3875C65.1409 7.5325 65.4409 7.7375 65.6859 8.0025C65.9309 8.2625 66.1159 8.575 66.2409 8.94C66.3709 9.305 66.4359 9.705 66.4359 10.14V15H65.5959C65.4209 15 65.2859 14.975 65.1909 14.925C65.0959 14.87 65.0209 14.7625 64.9659 14.6025L64.8009 14.0475C64.6059 14.2225 64.4159 14.3775 64.2309 14.5125C64.0459 14.6425 63.8534 14.7525 63.6534 14.8425C63.4534 14.9325 63.2384 15 63.0084 15.045C62.7834 15.095 62.5334 15.12 62.2584 15.12C61.9334 15.12 61.6334 15.0775 61.3584 14.9925C61.0834 14.9025 60.8459 14.77 60.6459 14.595C60.4459 14.42 60.2909 14.2025 60.1809 13.9425C60.0709 13.6825 60.0159 13.38 60.0159 13.035C60.0159 12.84 60.0484 12.6475 60.1134 12.4575C60.1784 12.2625 60.2834 12.0775 60.4284 11.9025C60.5784 11.7275 60.7709 11.5625 61.0059 11.4075C61.2409 11.2525 61.5284 11.1175 61.8684 11.0025C62.2134 10.8875 62.6134 10.795 63.0684 10.725C63.5234 10.65 64.0434 10.605 64.6284 10.59V10.14C64.6284 9.625 64.5184 9.245 64.2984 9C64.0784 8.75 63.7609 8.625 63.3459 8.625C63.0459 8.625 62.7959 8.66 62.5959 8.73C62.4009 8.8 62.2284 8.88 62.0784 8.97C61.9284 9.055 61.7909 9.1325 61.6659 9.2025C61.5459 9.2725 61.4109 9.3075 61.2609 9.3075C61.1309 9.3075 61.0209 9.275 60.9309 9.21C60.8409 9.14 60.7684 9.06 60.7134 8.97L60.3834 8.3775ZM70.0556 3.855V15H68.2031V3.855H70.0556ZM78.3613 10.965C78.5913 10.965 78.7913 10.935 78.9613 10.875C79.1313 10.81 79.2713 10.7225 79.3813 10.6125C79.4963 10.5025 79.5813 10.37 79.6363 10.215C79.6963 10.06 79.7263 9.89 79.7263 9.705C79.7263 9.325 79.6113 9.025 79.3813 8.805C79.1563 8.58 78.8163 8.4675 78.3613 8.4675C77.9063 8.4675 77.5638 8.58 77.3338 8.805C77.1088 9.025 76.9963 9.325 76.9963 9.705C76.9963 9.885 77.0238 10.0525 77.0788 10.2075C77.1388 10.3625 77.2238 10.4975 77.3338 10.6125C77.4488 10.7225 77.5913 10.81 77.7613 10.875C77.9363 10.935 78.1363 10.965 78.3613 10.965ZM80.4538 15.345C80.4538 15.195 80.4088 15.0725 80.3188 14.9775C80.2288 14.8825 80.1063 14.81 79.9513 14.76C79.7963 14.705 79.6138 14.665 79.4038 14.64C79.1988 14.615 78.9788 14.5975 78.7438 14.5875C78.5138 14.5725 78.2738 14.56 78.0238 14.55C77.7788 14.54 77.5388 14.52 77.3038 14.49C77.0988 14.605 76.9313 14.74 76.8013 14.895C76.6763 15.05 76.6138 15.23 76.6138 15.435C76.6138 15.57 76.6463 15.695 76.7113 15.81C76.7813 15.93 76.8888 16.0325 77.0338 16.1175C77.1838 16.2025 77.3763 16.2675 77.6113 16.3125C77.8463 16.3625 78.1338 16.3875 78.4738 16.3875C78.8188 16.3875 79.1163 16.36 79.3663 16.305C79.6163 16.255 79.8213 16.1825 79.9813 16.0875C80.1463 15.9975 80.2663 15.8875 80.3413 15.7575C80.4163 15.6325 80.4538 15.495 80.4538 15.345ZM82.2988 7.5675V8.2575C82.2988 8.4775 82.1663 8.6125 81.9013 8.6625L81.2113 8.79C81.3163 9.055 81.3688 9.345 81.3688 9.66C81.3688 10.04 81.2913 10.385 81.1363 10.695C80.9863 11 80.7763 11.26 80.5063 11.475C80.2363 11.69 79.9163 11.8575 79.5463 11.9775C79.1813 12.0925 78.7863 12.15 78.3613 12.15C78.2113 12.15 78.0663 12.1425 77.9263 12.1275C77.7863 12.1125 77.6488 12.0925 77.5138 12.0675C77.2738 12.2125 77.1538 12.375 77.1538 12.555C77.1538 12.71 77.2238 12.825 77.3638 12.9C77.5088 12.97 77.6988 13.02 77.9338 13.05C78.1688 13.08 78.4363 13.1 78.7363 13.11C79.0363 13.115 79.3438 13.13 79.6588 13.155C79.9738 13.18 80.2813 13.225 80.5813 13.29C80.8813 13.35 81.1488 13.4475 81.3838 13.5825C81.6188 13.7175 81.8063 13.9025 81.9463 14.1375C82.0913 14.3675 82.1638 14.665 82.1638 15.03C82.1638 15.37 82.0788 15.7 81.9088 16.02C81.7438 16.34 81.5013 16.625 81.1813 16.875C80.8663 17.125 80.4763 17.325 80.0113 17.475C79.5513 17.63 79.0263 17.7075 78.4363 17.7075C77.8563 17.7075 77.3513 17.65 76.9213 17.535C76.4913 17.425 76.1338 17.275 75.8488 17.085C75.5638 16.9 75.3513 16.685 75.2113 16.44C75.0713 16.195 75.0013 15.94 75.0013 15.675C75.0013 15.315 75.1088 15.015 75.3238 14.775C75.5438 14.53 75.8438 14.335 76.2238 14.19C76.0188 14.085 75.8563 13.945 75.7363 13.77C75.6163 13.595 75.5563 13.365 75.5563 13.08C75.5563 12.965 75.5763 12.8475 75.6163 12.7275C75.6613 12.6025 75.7238 12.48 75.8038 12.36C75.8888 12.24 75.9938 12.1275 76.1188 12.0225C76.2438 11.9125 76.3913 11.815 76.5613 11.73C76.1713 11.52 75.8638 11.24 75.6388 10.89C75.4188 10.54 75.3088 10.13 75.3088 9.66C75.3088 9.28 75.3838 8.9375 75.5338 8.6325C75.6888 8.3225 75.9013 8.06 76.1713 7.845C76.4463 7.625 76.7688 7.4575 77.1388 7.3425C77.5138 7.2275 77.9213 7.17 78.3613 7.17C78.6913 7.17 79.0013 7.205 79.2913 7.275C79.5813 7.34 79.8463 7.4375 80.0863 7.5675H82.2988ZM85.3936 7.305V15H83.5336V7.305H85.3936ZM85.6486 5.0625C85.6486 5.2225 85.6161 5.3725 85.5511 5.5125C85.4861 5.6525 85.3986 5.775 85.2886 5.88C85.1836 5.985 85.0586 6.07 84.9136 6.135C84.7686 6.195 84.6136 6.225 84.4486 6.225C84.2886 6.225 84.1361 6.195 83.9911 6.135C83.8511 6.07 83.7286 5.985 83.6236 5.88C83.5186 5.775 83.4336 5.6525 83.3686 5.5125C83.3086 5.3725 83.2786 5.2225 83.2786 5.0625C83.2786 4.8975 83.3086 4.7425 83.3686 4.5975C83.4336 4.4525 83.5186 4.3275 83.6236 4.2225C83.7286 4.1175 83.8511 4.035 83.9911 3.975C84.1361 3.91 84.2886 3.8775 84.4486 3.8775C84.6136 3.8775 84.7686 3.91 84.9136 3.975C85.0586 4.035 85.1836 4.1175 85.2886 4.2225C85.3986 4.3275 85.4861 4.4525 85.5511 4.5975C85.6161 4.7425 85.6486 4.8975 85.6486 5.0625ZM89.8472 15.12C89.1772 15.12 88.6622 14.9325 88.3022 14.5575C87.9472 14.1775 87.7697 13.655 87.7697 12.99V8.6925H86.9822C86.8822 8.6925 86.7972 8.66 86.7272 8.595C86.6572 8.53 86.6222 8.4325 86.6222 8.3025V7.5675L87.8597 7.365L88.2497 5.265C88.2747 5.165 88.3222 5.0875 88.3922 5.0325C88.4622 4.9775 88.5522 4.95 88.6622 4.95H89.6222V7.3725H91.6772V8.6925H89.6222V12.8625C89.6222 13.1025 89.6797 13.29 89.7947 13.425C89.9147 13.56 90.0772 13.6275 90.2822 13.6275C90.3972 13.6275 90.4922 13.615 90.5672 13.59C90.6472 13.56 90.7147 13.53 90.7697 13.5C90.8297 13.47 90.8822 13.4425 90.9272 13.4175C90.9722 13.3875 91.0172 13.3725 91.0622 13.3725C91.1172 13.3725 91.1622 13.3875 91.1972 13.4175C91.2322 13.4425 91.2697 13.4825 91.3097 13.5375L91.8647 14.4375C91.5947 14.6625 91.2847 14.8325 90.9347 14.9475C90.5847 15.0625 90.2222 15.12 89.8472 15.12ZM107.191 7.305L104.746 15H103.261C103.091 15 102.973 14.89 102.908 14.67L101.528 10.2225C101.483 10.0725 101.441 9.925 101.401 9.78C101.366 9.63 101.336 9.48 101.311 9.33C101.281 9.48 101.246 9.6325 101.206 9.7875C101.171 9.9375 101.131 10.0875 101.086 10.2375L99.6831 14.67C99.6231 14.89 99.4906 15 99.2856 15H97.8606L95.4231 7.305H96.9006C97.0356 7.305 97.1506 7.3375 97.2456 7.4025C97.3406 7.4675 97.4031 7.55 97.4331 7.65L98.5356 11.76C98.5906 11.985 98.6381 12.205 98.6781 12.42C98.7231 12.635 98.7606 12.85 98.7906 13.065C98.8456 12.85 98.9031 12.635 98.9631 12.42C99.0281 12.205 99.0956 11.985 99.1656 11.76L100.441 7.635C100.471 7.535 100.528 7.4525 100.613 7.3875C100.703 7.3225 100.811 7.29 100.936 7.29H101.753C101.883 7.29 101.993 7.3225 102.083 7.3875C102.178 7.4525 102.241 7.535 102.271 7.635L103.508 11.76C103.573 11.985 103.633 12.2075 103.688 12.4275C103.748 12.6425 103.806 12.8575 103.861 13.0725C103.926 12.6475 104.018 12.21 104.138 11.76L105.271 7.65C105.306 7.55 105.368 7.4675 105.458 7.4025C105.548 7.3375 105.656 7.305 105.781 7.305H107.191ZM111.517 7.185C112.087 7.185 112.605 7.2775 113.07 7.4625C113.54 7.6475 113.94 7.91 114.27 8.25C114.605 8.59 114.862 9.005 115.042 9.495C115.222 9.985 115.312 10.5325 115.312 11.1375C115.312 11.7475 115.222 12.2975 115.042 12.7875C114.862 13.2775 114.605 13.695 114.27 14.04C113.94 14.385 113.54 14.65 113.07 14.835C112.605 15.02 112.087 15.1125 111.517 15.1125C110.942 15.1125 110.42 15.02 109.95 14.835C109.48 14.65 109.077 14.385 108.742 14.04C108.412 13.695 108.155 13.2775 107.97 12.7875C107.79 12.2975 107.7 11.7475 107.7 11.1375C107.7 10.5325 107.79 9.985 107.97 9.495C108.155 9.005 108.412 8.59 108.742 8.25C109.077 7.91 109.48 7.6475 109.95 7.4625C110.42 7.2775 110.942 7.185 111.517 7.185ZM111.517 13.6875C112.157 13.6875 112.63 13.4725 112.935 13.0425C113.245 12.6125 113.4 11.9825 113.4 11.1525C113.4 10.3225 113.245 9.69 112.935 9.255C112.63 8.82 112.157 8.6025 111.517 8.6025C110.867 8.6025 110.385 8.8225 110.07 9.2625C109.76 9.6975 109.605 10.3275 109.605 11.1525C109.605 11.9775 109.76 12.6075 110.07 13.0425C110.385 13.4725 110.867 13.6875 111.517 13.6875ZM118.473 8.64C118.713 8.18 118.998 7.82 119.328 7.56C119.658 7.295 120.048 7.1625 120.498 7.1625C120.853 7.1625 121.138 7.24 121.353 7.395L121.233 8.7825C121.208 8.8725 121.171 8.9375 121.121 8.9775C121.076 9.0125 121.013 9.03 120.933 9.03C120.858 9.03 120.746 9.0175 120.596 8.9925C120.451 8.9675 120.308 8.955 120.168 8.955C119.963 8.955 119.781 8.985 119.621 9.045C119.461 9.105 119.316 9.1925 119.186 9.3075C119.061 9.4175 118.948 9.5525 118.848 9.7125C118.753 9.8725 118.663 10.055 118.578 10.26V15H116.726V7.305H117.813C118.003 7.305 118.136 7.34 118.211 7.41C118.286 7.475 118.336 7.595 118.361 7.77L118.473 8.64ZM124.174 3.855V10.2375H124.519C124.644 10.2375 124.741 10.2225 124.811 10.1925C124.886 10.1575 124.961 10.09 125.036 9.99L126.949 7.6275C127.029 7.5225 127.116 7.4425 127.211 7.3875C127.311 7.3325 127.439 7.305 127.594 7.305H129.289L126.896 10.1625C126.726 10.3875 126.541 10.56 126.341 10.68C126.446 10.755 126.539 10.8425 126.619 10.9425C126.704 11.0425 126.784 11.15 126.859 11.265L129.424 15H127.751C127.606 15 127.481 14.9775 127.376 14.9325C127.271 14.8825 127.184 14.795 127.114 14.67L125.149 11.7525C125.079 11.6375 125.006 11.5625 124.931 11.5275C124.856 11.4925 124.744 11.475 124.594 11.475H124.174V15H122.321V3.855H124.174ZM130.881 15V8.7L130.214 8.595C130.069 8.565 129.951 8.515 129.861 8.445C129.776 8.37 129.734 8.265 129.734 8.13V7.3725H130.881V7.05C130.881 6.64 130.946 6.2475 131.076 5.8725C131.206 5.4975 131.404 5.1675 131.669 4.8825C131.934 4.5925 132.269 4.3625 132.674 4.1925C133.079 4.0175 133.556 3.93 134.106 3.93C134.531 3.93 134.931 3.945 135.306 3.975C135.686 4 136.064 4.015 136.439 4.02H137.661V15H135.816V5.31C135.551 5.3 135.291 5.2875 135.036 5.2725C134.786 5.2575 134.574 5.25 134.399 5.25C133.839 5.25 133.411 5.4075 133.116 5.7225C132.821 6.0325 132.674 6.475 132.674 7.05V7.3725H134.496V8.6925H132.734V15H130.881ZM142.924 7.185C143.494 7.185 144.011 7.2775 144.476 7.4625C144.946 7.6475 145.346 7.91 145.676 8.25C146.011 8.59 146.269 9.005 146.449 9.495C146.629 9.985 146.719 10.5325 146.719 11.1375C146.719 11.7475 146.629 12.2975 146.449 12.7875C146.269 13.2775 146.011 13.695 145.676 14.04C145.346 14.385 144.946 14.65 144.476 14.835C144.011 15.02 143.494 15.1125 142.924 15.1125C142.349 15.1125 141.826 15.02 141.356 14.835C140.886 14.65 140.484 14.385 140.149 14.04C139.819 13.695 139.561 13.2775 139.376 12.7875C139.196 12.2975 139.106 11.7475 139.106 11.1375C139.106 10.5325 139.196 9.985 139.376 9.495C139.561 9.005 139.819 8.59 140.149 8.25C140.484 7.91 140.886 7.6475 141.356 7.4625C141.826 7.2775 142.349 7.185 142.924 7.185ZM142.924 13.6875C143.564 13.6875 144.036 13.4725 144.341 13.0425C144.651 12.6125 144.806 11.9825 144.806 11.1525C144.806 10.3225 144.651 9.69 144.341 9.255C144.036 8.82 143.564 8.6025 142.924 8.6025C142.274 8.6025 141.791 8.8225 141.476 9.2625C141.166 9.6975 141.011 10.3275 141.011 11.1525C141.011 11.9775 141.166 12.6075 141.476 13.0425C141.791 13.4725 142.274 13.6875 142.924 13.6875ZM158.987 7.305L156.542 15H155.057C154.887 15 154.77 14.89 154.705 14.67L153.325 10.2225C153.28 10.0725 153.237 9.925 153.197 9.78C153.162 9.63 153.132 9.48 153.107 9.33C153.077 9.48 153.042 9.6325 153.002 9.7875C152.967 9.9375 152.927 10.0875 152.882 10.2375L151.48 14.67C151.42 14.89 151.287 15 151.082 15H149.657L147.22 7.305H148.697C148.832 7.305 148.947 7.3375 149.042 7.4025C149.137 7.4675 149.2 7.55 149.23 7.65L150.332 11.76C150.387 11.985 150.435 12.205 150.475 12.42C150.52 12.635 150.557 12.85 150.587 13.065C150.642 12.85 150.7 12.635 150.76 12.42C150.825 12.205 150.892 11.985 150.962 11.76L152.237 7.635C152.267 7.535 152.325 7.4525 152.41 7.3875C152.5 7.3225 152.607 7.29 152.732 7.29H153.55C153.68 7.29 153.79 7.3225 153.88 7.3875C153.975 7.4525 154.037 7.535 154.067 7.635L155.305 11.76C155.37 11.985 155.43 12.2075 155.485 12.4275C155.545 12.6425 155.602 12.8575 155.657 13.0725C155.722 12.6475 155.815 12.21 155.935 11.76L157.067 7.65C157.102 7.55 157.165 7.4675 157.255 7.4025C157.345 7.3375 157.452 7.305 157.577 7.305H158.987Z" fill="black"/>
<path d="M108.553 181V174.542L107.713 174.445C107.608 174.42 107.52 174.382 107.45 174.332C107.385 174.277 107.353 174.2 107.353 174.1V173.552H108.553V172.817C108.553 172.382 108.613 171.997 108.733 171.662C108.858 171.322 109.033 171.037 109.258 170.807C109.488 170.572 109.763 170.395 110.083 170.275C110.403 170.155 110.763 170.095 111.163 170.095C111.503 170.095 111.815 170.145 112.1 170.245L112.07 170.912C112.06 171.032 111.993 171.097 111.868 171.107C111.748 171.117 111.585 171.122 111.38 171.122C111.15 171.122 110.94 171.152 110.75 171.212C110.565 171.272 110.405 171.37 110.27 171.505C110.135 171.64 110.03 171.817 109.955 172.037C109.885 172.257 109.85 172.53 109.85 172.855V173.552H112.04V174.52H109.895V181H108.553ZM118.152 176.372C118.152 176.062 118.107 175.78 118.017 175.525C117.932 175.265 117.805 175.042 117.635 174.857C117.47 174.667 117.267 174.522 117.027 174.422C116.787 174.317 116.515 174.265 116.21 174.265C115.57 174.265 115.062 174.452 114.687 174.827C114.317 175.197 114.087 175.712 113.997 176.372H118.152ZM119.232 179.935C119.067 180.135 118.87 180.31 118.64 180.46C118.41 180.605 118.162 180.725 117.897 180.82C117.637 180.915 117.367 180.985 117.087 181.03C116.807 181.08 116.53 181.105 116.255 181.105C115.73 181.105 115.245 181.017 114.8 180.842C114.36 180.662 113.977 180.402 113.652 180.062C113.332 179.717 113.082 179.292 112.902 178.787C112.722 178.282 112.632 177.702 112.632 177.047C112.632 176.517 112.712 176.022 112.872 175.562C113.037 175.102 113.272 174.705 113.577 174.37C113.882 174.03 114.255 173.765 114.695 173.575C115.135 173.38 115.63 173.282 116.18 173.282C116.635 173.282 117.055 173.36 117.44 173.515C117.83 173.665 118.165 173.885 118.445 174.175C118.73 174.46 118.952 174.815 119.112 175.24C119.272 175.66 119.352 176.14 119.352 176.68C119.352 176.89 119.33 177.03 119.285 177.1C119.24 177.17 119.155 177.205 119.03 177.205H113.952C113.967 177.685 114.032 178.102 114.147 178.457C114.267 178.812 114.432 179.11 114.642 179.35C114.852 179.585 115.102 179.762 115.392 179.882C115.682 179.997 116.007 180.055 116.367 180.055C116.702 180.055 116.99 180.017 117.23 179.942C117.475 179.862 117.685 179.777 117.86 179.687C118.035 179.597 118.18 179.515 118.295 179.44C118.415 179.36 118.517 179.32 118.602 179.32C118.712 179.32 118.797 179.362 118.857 179.447L119.232 179.935ZM125.11 177.58C124.495 177.6 123.97 177.65 123.535 177.73C123.105 177.805 122.752 177.905 122.477 178.03C122.207 178.155 122.01 178.302 121.885 178.472C121.765 178.642 121.705 178.832 121.705 179.042C121.705 179.242 121.737 179.415 121.802 179.56C121.867 179.705 121.955 179.825 122.065 179.92C122.18 180.01 122.312 180.077 122.462 180.122C122.617 180.162 122.782 180.182 122.957 180.182C123.192 180.182 123.407 180.16 123.602 180.115C123.797 180.065 123.98 179.995 124.15 179.905C124.325 179.815 124.49 179.707 124.645 179.582C124.805 179.457 124.96 179.315 125.11 179.155V177.58ZM120.797 174.475C121.217 174.07 121.67 173.767 122.155 173.567C122.64 173.367 123.177 173.267 123.767 173.267C124.192 173.267 124.57 173.337 124.9 173.477C125.23 173.617 125.507 173.812 125.732 174.062C125.957 174.312 126.127 174.615 126.242 174.97C126.357 175.325 126.415 175.715 126.415 176.14V181H125.822C125.692 181 125.592 180.98 125.522 180.94C125.452 180.895 125.397 180.81 125.357 180.685L125.207 179.965C125.007 180.15 124.812 180.315 124.622 180.46C124.432 180.6 124.232 180.72 124.022 180.82C123.812 180.915 123.587 180.987 123.347 181.038C123.112 181.093 122.85 181.12 122.56 181.12C122.265 181.12 121.987 181.08 121.727 181C121.467 180.915 121.24 180.79 121.045 180.625C120.855 180.46 120.702 180.252 120.587 180.002C120.477 179.747 120.422 179.447 120.422 179.102C120.422 178.802 120.505 178.515 120.67 178.24C120.835 177.96 121.102 177.712 121.472 177.497C121.842 177.282 122.325 177.107 122.92 176.972C123.515 176.833 124.245 176.752 125.11 176.732V176.14C125.11 175.55 124.982 175.105 124.727 174.805C124.472 174.5 124.1 174.347 123.61 174.347C123.28 174.347 123.002 174.39 122.777 174.475C122.557 174.555 122.365 174.647 122.2 174.752C122.04 174.852 121.9 174.945 121.78 175.03C121.665 175.11 121.55 175.15 121.435 175.15C121.345 175.15 121.267 175.127 121.202 175.082C121.137 175.032 121.082 174.972 121.037 174.902L120.797 174.475ZM130.678 181.12C130.078 181.12 129.616 180.952 129.291 180.617C128.971 180.282 128.811 179.8 128.811 179.17V174.52H127.896C127.816 174.52 127.748 174.497 127.693 174.452C127.638 174.402 127.611 174.327 127.611 174.227V173.695L128.856 173.537L129.163 171.19C129.178 171.115 129.211 171.055 129.261 171.01C129.316 170.96 129.386 170.935 129.471 170.935H130.146V173.552H132.343V174.52H130.146V179.08C130.146 179.4 130.223 179.637 130.378 179.792C130.533 179.947 130.733 180.025 130.978 180.025C131.118 180.025 131.238 180.007 131.338 179.972C131.443 179.932 131.533 179.89 131.608 179.845C131.683 179.8 131.746 179.76 131.796 179.725C131.851 179.685 131.898 179.665 131.938 179.665C132.008 179.665 132.071 179.707 132.126 179.792L132.516 180.43C132.286 180.645 132.008 180.815 131.683 180.94C131.358 181.06 131.023 181.12 130.678 181.12ZM133.602 175.937H137.307V177.07H133.602V175.937ZM140.63 179.17C140.875 179.5 141.143 179.732 141.433 179.867C141.728 180.002 142.05 180.07 142.4 180.07C143.115 180.07 143.663 179.817 144.043 179.312C144.423 178.807 144.613 178.055 144.613 177.055C144.613 176.125 144.443 175.442 144.103 175.007C143.768 174.567 143.288 174.347 142.663 174.347C142.228 174.347 141.848 174.447 141.523 174.647C141.203 174.847 140.905 175.13 140.63 175.495V179.17ZM140.63 174.497C140.95 174.127 141.31 173.832 141.71 173.612C142.115 173.392 142.58 173.282 143.105 173.282C143.55 173.282 143.95 173.367 144.305 173.537C144.665 173.707 144.97 173.955 145.22 174.28C145.47 174.6 145.66 174.99 145.79 175.45C145.925 175.91 145.993 176.427 145.993 177.002C145.993 177.617 145.918 178.177 145.768 178.682C145.618 179.187 145.4 179.62 145.115 179.98C144.835 180.335 144.493 180.612 144.088 180.812C143.683 181.008 143.228 181.105 142.723 181.105C142.223 181.105 141.8 181.012 141.455 180.827C141.115 180.637 140.818 180.37 140.563 180.025L140.495 180.715C140.455 180.905 140.34 181 140.15 181H139.288V169.952H140.63V174.497Z" fill="#74706D"/>
<path d="M475.484 24V16.4025H476.286C476.476 16.4025 476.594 16.495 476.639 16.68L476.736 17.46C477.016 17.115 477.331 16.8325 477.681 16.6125C478.031 16.3925 478.436 16.2825 478.896 16.2825C479.406 16.2825 479.819 16.425 480.134 16.71C480.454 16.995 480.684 17.38 480.824 17.865C480.934 17.59 481.074 17.3525 481.244 17.1525C481.419 16.9525 481.614 16.7875 481.829 16.6575C482.044 16.5275 482.271 16.4325 482.511 16.3725C482.756 16.3125 483.004 16.2825 483.254 16.2825C483.654 16.2825 484.009 16.3475 484.319 16.4775C484.634 16.6025 484.899 16.7875 485.114 17.0325C485.334 17.2775 485.501 17.58 485.616 17.94C485.731 18.295 485.789 18.7025 485.789 19.1625V24H484.446V19.1625C484.446 18.5675 484.316 18.1175 484.056 17.8125C483.796 17.5025 483.421 17.3475 482.931 17.3475C482.711 17.3475 482.501 17.3875 482.301 17.4675C482.106 17.5425 481.934 17.655 481.784 17.805C481.634 17.955 481.514 18.145 481.424 18.375C481.339 18.6 481.296 18.8625 481.296 19.1625V24H479.954V19.1625C479.954 18.5525 479.831 18.0975 479.586 17.7975C479.341 17.4975 478.984 17.3475 478.514 17.3475C478.184 17.3475 477.879 17.4375 477.599 17.6175C477.319 17.7925 477.061 18.0325 476.826 18.3375V24H475.484ZM492.903 19.3725C492.903 19.0625 492.858 18.78 492.768 18.525C492.683 18.265 492.555 18.0425 492.385 17.8575C492.22 17.6675 492.018 17.5225 491.778 17.4225C491.538 17.3175 491.265 17.265 490.96 17.265C490.32 17.265 489.813 17.4525 489.438 17.8275C489.068 18.1975 488.838 18.7125 488.748 19.3725H492.903ZM493.983 22.935C493.818 23.135 493.62 23.31 493.39 23.46C493.16 23.605 492.913 23.725 492.648 23.82C492.388 23.915 492.118 23.985 491.838 24.03C491.558 24.08 491.28 24.105 491.005 24.105C490.48 24.105 489.995 24.0175 489.55 23.8425C489.11 23.6625 488.728 23.4025 488.403 23.0625C488.083 22.7175 487.833 22.2925 487.653 21.7875C487.473 21.2825 487.383 20.7025 487.383 20.0475C487.383 19.5175 487.463 19.0225 487.623 18.5625C487.788 18.1025 488.023 17.705 488.328 17.37C488.633 17.03 489.005 16.765 489.445 16.575C489.885 16.38 490.38 16.2825 490.93 16.2825C491.385 16.2825 491.805 16.36 492.19 16.515C492.58 16.665 492.915 16.885 493.195 17.175C493.48 17.46 493.703 17.815 493.863 18.24C494.023 18.66 494.103 19.14 494.103 19.68C494.103 19.89 494.08 20.03 494.035 20.1C493.99 20.17 493.905 20.205 493.78 20.205H488.703C488.718 20.685 488.783 21.1025 488.898 21.4575C489.018 21.8125 489.183 22.11 489.393 22.35C489.603 22.585 489.853 22.7625 490.143 22.8825C490.433 22.9975 490.758 23.055 491.118 23.055C491.453 23.055 491.74 23.0175 491.98 22.9425C492.225 22.8625 492.435 22.7775 492.61 22.6875C492.785 22.5975 492.93 22.515 493.045 22.44C493.165 22.36 493.268 22.32 493.353 22.32C493.463 22.32 493.548 22.3625 493.608 22.4475L493.983 22.935ZM497.01 17.925C497.25 17.405 497.545 17 497.895 16.71C498.245 16.415 498.673 16.2675 499.178 16.2675C499.338 16.2675 499.49 16.285 499.635 16.32C499.785 16.355 499.918 16.41 500.033 16.485L499.935 17.4825C499.905 17.6075 499.83 17.67 499.71 17.67C499.64 17.67 499.538 17.655 499.403 17.625C499.268 17.595 499.115 17.58 498.945 17.58C498.705 17.58 498.49 17.615 498.3 17.685C498.115 17.755 497.948 17.86 497.798 18C497.653 18.135 497.52 18.305 497.4 18.51C497.285 18.71 497.18 18.94 497.085 19.2V24H495.743V16.4025H496.508C496.653 16.4025 496.753 16.43 496.808 16.485C496.863 16.54 496.9 16.635 496.92 16.77L497.01 17.925ZM503.678 20.2875C503.948 20.2875 504.186 20.25 504.391 20.175C504.596 20.1 504.768 19.995 504.908 19.86C505.048 19.725 505.153 19.565 505.223 19.38C505.293 19.19 505.328 18.9825 505.328 18.7575C505.328 18.2925 505.186 17.9225 504.901 17.6475C504.621 17.3725 504.213 17.235 503.678 17.235C503.138 17.235 502.726 17.3725 502.441 17.6475C502.161 17.9225 502.021 18.2925 502.021 18.7575C502.021 18.9825 502.056 19.19 502.126 19.38C502.201 19.565 502.308 19.725 502.448 19.86C502.588 19.995 502.761 20.1 502.966 20.175C503.171 20.25 503.408 20.2875 503.678 20.2875ZM506.086 24.4125C506.086 24.2275 506.033 24.0775 505.928 23.9625C505.823 23.8475 505.681 23.7575 505.501 23.6925C505.326 23.6275 505.121 23.5825 504.886 23.5575C504.651 23.5275 504.401 23.505 504.136 23.49C503.876 23.475 503.611 23.46 503.341 23.445C503.071 23.43 502.811 23.405 502.561 23.37C502.281 23.5 502.051 23.665 501.871 23.865C501.696 24.06 501.608 24.29 501.608 24.555C501.608 24.725 501.651 24.8825 501.736 25.0275C501.826 25.1775 501.961 25.305 502.141 25.41C502.321 25.52 502.546 25.605 502.816 25.665C503.091 25.73 503.413 25.7625 503.783 25.7625C504.143 25.7625 504.466 25.73 504.751 25.665C505.036 25.6 505.276 25.5075 505.471 25.3875C505.671 25.2675 505.823 25.125 505.928 24.96C506.033 24.795 506.086 24.6125 506.086 24.4125ZM507.443 16.7025V17.1975C507.443 17.3625 507.338 17.4675 507.128 17.5125L506.266 17.625C506.436 17.955 506.521 18.32 506.521 18.72C506.521 19.09 506.448 19.4275 506.303 19.7325C506.163 20.0325 505.968 20.29 505.718 20.505C505.468 20.72 505.168 20.885 504.818 21C504.468 21.115 504.088 21.1725 503.678 21.1725C503.323 21.1725 502.988 21.13 502.673 21.045C502.513 21.145 502.391 21.2525 502.306 21.3675C502.221 21.4775 502.178 21.59 502.178 21.705C502.178 21.885 502.251 22.0225 502.396 22.1175C502.546 22.2075 502.741 22.2725 502.981 22.3125C503.221 22.3525 503.493 22.3775 503.798 22.3875C504.108 22.3975 504.423 22.415 504.743 22.44C505.068 22.46 505.383 22.4975 505.688 22.5525C505.998 22.6075 506.273 22.6975 506.513 22.8225C506.753 22.9475 506.946 23.12 507.091 23.34C507.241 23.56 507.316 23.845 507.316 24.195C507.316 24.52 507.233 24.835 507.068 25.14C506.908 25.445 506.676 25.715 506.371 25.95C506.066 26.19 505.691 26.38 505.246 26.52C504.806 26.665 504.308 26.7375 503.753 26.7375C503.198 26.7375 502.713 26.6825 502.298 26.5725C501.883 26.4625 501.538 26.315 501.263 26.13C500.988 25.945 500.781 25.73 500.641 25.485C500.506 25.245 500.438 24.9925 500.438 24.7275C500.438 24.3525 500.556 24.035 500.791 23.775C501.026 23.515 501.348 23.3075 501.758 23.1525C501.533 23.0525 501.353 22.92 501.218 22.755C501.088 22.585 501.023 22.3575 501.023 22.0725C501.023 21.9625 501.043 21.85 501.083 21.735C501.123 21.615 501.183 21.4975 501.263 21.3825C501.348 21.2625 501.451 21.15 501.571 21.045C501.691 20.94 501.831 20.8475 501.991 20.7675C501.616 20.5575 501.323 20.28 501.113 19.935C500.903 19.585 500.798 19.18 500.798 18.72C500.798 18.35 500.868 18.015 501.008 17.715C501.153 17.41 501.353 17.1525 501.608 16.9425C501.863 16.7275 502.166 16.5625 502.516 16.4475C502.871 16.3325 503.258 16.275 503.678 16.275C504.008 16.275 504.316 16.3125 504.601 16.3875C504.886 16.4575 505.146 16.5625 505.381 16.7025H507.443ZM513.791 19.3725C513.791 19.0625 513.746 18.78 513.656 18.525C513.571 18.265 513.444 18.0425 513.274 17.8575C513.109 17.6675 512.906 17.5225 512.666 17.4225C512.426 17.3175 512.154 17.265 511.849 17.265C511.209 17.265 510.701 17.4525 510.326 17.8275C509.956 18.1975 509.726 18.7125 509.636 19.3725H513.791ZM514.871 22.935C514.706 23.135 514.509 23.31 514.279 23.46C514.049 23.605 513.801 23.725 513.536 23.82C513.276 23.915 513.006 23.985 512.726 24.03C512.446 24.08 512.169 24.105 511.894 24.105C511.369 24.105 510.884 24.0175 510.439 23.8425C509.999 23.6625 509.616 23.4025 509.291 23.0625C508.971 22.7175 508.721 22.2925 508.541 21.7875C508.361 21.2825 508.271 20.7025 508.271 20.0475C508.271 19.5175 508.351 19.0225 508.511 18.5625C508.676 18.1025 508.911 17.705 509.216 17.37C509.521 17.03 509.894 16.765 510.334 16.575C510.774 16.38 511.269 16.2825 511.819 16.2825C512.274 16.2825 512.694 16.36 513.079 16.515C513.469 16.665 513.804 16.885 514.084 17.175C514.369 17.46 514.591 17.815 514.751 18.24C514.911 18.66 514.991 19.14 514.991 19.68C514.991 19.89 514.969 20.03 514.924 20.1C514.879 20.17 514.794 20.205 514.669 20.205H509.591C509.606 20.685 509.671 21.1025 509.786 21.4575C509.906 21.8125 510.071 22.11 510.281 22.35C510.491 22.585 510.741 22.7625 511.031 22.8825C511.321 22.9975 511.646 23.055 512.006 23.055C512.341 23.055 512.629 23.0175 512.869 22.9425C513.114 22.8625 513.324 22.7775 513.499 22.6875C513.674 22.5975 513.819 22.515 513.934 22.44C514.054 22.36 514.156 22.32 514.241 22.32C514.351 22.32 514.436 22.3625 514.496 22.4475L514.871 22.935ZM476.955 35.7525C476.915 35.8075 476.875 35.85 476.835 35.88C476.795 35.91 476.74 35.925 476.67 35.925C476.595 35.925 476.513 35.895 476.423 35.835C476.333 35.77 476.22 35.7 476.085 35.625C475.955 35.55 475.793 35.4825 475.598 35.4225C475.408 35.3575 475.173 35.325 474.893 35.325C474.518 35.325 474.188 35.3925 473.903 35.5275C473.618 35.6575 473.378 35.8475 473.183 36.0975C472.993 36.3475 472.848 36.65 472.748 37.005C472.653 37.36 472.605 37.7575 472.605 38.1975C472.605 38.6575 472.658 39.0675 472.763 39.4275C472.868 39.7825 473.015 40.0825 473.205 40.3275C473.4 40.5675 473.633 40.7525 473.903 40.8825C474.178 41.0075 474.485 41.07 474.825 41.07C475.15 41.07 475.418 41.0325 475.628 40.9575C475.838 40.8775 476.01 40.79 476.145 40.695C476.285 40.6 476.4 40.515 476.49 40.44C476.585 40.36 476.678 40.32 476.768 40.32C476.878 40.32 476.963 40.3625 477.023 40.4475L477.398 40.935C477.233 41.14 477.045 41.315 476.835 41.46C476.625 41.605 476.398 41.7275 476.153 41.8275C475.913 41.9225 475.66 41.9925 475.395 42.0375C475.13 42.0825 474.86 42.105 474.585 42.105C474.11 42.105 473.668 42.0175 473.258 41.8425C472.853 41.6675 472.5 41.415 472.2 41.085C471.9 40.75 471.665 40.34 471.495 39.855C471.325 39.37 471.24 38.8175 471.24 38.1975C471.24 37.6325 471.318 37.11 471.473 36.63C471.633 36.15 471.863 35.7375 472.163 35.3925C472.468 35.0425 472.84 34.77 473.28 34.575C473.725 34.38 474.235 34.2825 474.81 34.2825C475.345 34.2825 475.815 34.37 476.22 34.545C476.63 34.715 476.993 34.9575 477.308 35.2725L476.955 35.7525ZM481.902 34.2825C482.457 34.2825 482.957 34.375 483.402 34.56C483.847 34.745 484.227 35.0075 484.542 35.3475C484.857 35.6875 485.097 36.1 485.262 36.585C485.432 37.065 485.517 37.6025 485.517 38.1975C485.517 38.7975 485.432 39.3375 485.262 39.8175C485.097 40.2975 484.857 40.7075 484.542 41.0475C484.227 41.3875 483.847 41.65 483.402 41.835C482.957 42.015 482.457 42.105 481.902 42.105C481.342 42.105 480.837 42.015 480.387 41.835C479.942 41.65 479.562 41.3875 479.247 41.0475C478.932 40.7075 478.689 40.2975 478.519 39.8175C478.354 39.3375 478.272 38.7975 478.272 38.1975C478.272 37.6025 478.354 37.065 478.519 36.585C478.689 36.1 478.932 35.6875 479.247 35.3475C479.562 35.0075 479.942 34.745 480.387 34.56C480.837 34.375 481.342 34.2825 481.902 34.2825ZM481.902 41.0625C482.652 41.0625 483.212 40.8125 483.582 40.3125C483.952 39.8075 484.137 39.105 484.137 38.205C484.137 37.3 483.952 36.595 483.582 36.09C483.212 35.585 482.652 35.3325 481.902 35.3325C481.522 35.3325 481.189 35.3975 480.904 35.5275C480.624 35.6575 480.389 35.845 480.199 36.09C480.014 36.335 479.874 36.6375 479.779 36.9975C479.689 37.3525 479.644 37.755 479.644 38.205C479.644 39.105 479.829 39.8075 480.199 40.3125C480.574 40.8125 481.142 41.0625 481.902 41.0625ZM488.47 35.505C488.635 35.32 488.81 35.1525 488.995 35.0025C489.18 34.8525 489.375 34.725 489.58 34.62C489.79 34.51 490.01 34.4275 490.24 34.3725C490.475 34.3125 490.727 34.2825 490.997 34.2825C491.412 34.2825 491.777 34.3525 492.092 34.4925C492.412 34.6275 492.677 34.8225 492.887 35.0775C493.102 35.3275 493.265 35.63 493.375 35.985C493.485 36.34 493.54 36.7325 493.54 37.1625V42H492.197V37.1625C492.197 36.5875 492.065 36.1425 491.8 35.8275C491.54 35.5075 491.142 35.3475 490.607 35.3475C490.212 35.3475 489.842 35.4425 489.497 35.6325C489.157 35.8225 488.842 36.08 488.552 36.405V42H487.21V34.4025H488.012C488.202 34.4025 488.32 34.495 488.365 34.68L488.47 35.505ZM495.967 42V35.5425L495.127 35.445C495.017 35.42 494.929 35.3825 494.864 35.3325C494.799 35.2775 494.767 35.2 494.767 35.1V34.5525H495.967V34.1475C495.967 33.7275 496.029 33.33 496.154 32.955C496.284 32.575 496.479 32.245 496.739 31.965C496.999 31.685 497.324 31.4625 497.714 31.2975C498.104 31.1325 498.559 31.05 499.079 31.05C499.464 31.05 499.834 31.065 500.189 31.095C500.549 31.125 500.897 31.1425 501.232 31.1475H502.139V42H500.812V32.085C500.542 32.075 500.269 32.0625 499.994 32.0475C499.724 32.0325 499.487 32.025 499.282 32.025C498.632 32.025 498.132 32.2125 497.782 32.5875C497.437 32.9575 497.264 33.4775 497.264 34.1475V34.5525H499.237V35.52H497.302V42H495.967ZM505.715 34.4025V42H504.38V34.4025H505.715ZM506 32.0175C506 32.1475 505.972 32.27 505.917 32.385C505.867 32.495 505.797 32.595 505.707 32.685C505.622 32.77 505.52 32.8375 505.4 32.8875C505.285 32.9375 505.162 32.9625 505.032 32.9625C504.902 32.9625 504.78 32.9375 504.665 32.8875C504.555 32.8375 504.457 32.77 504.372 32.685C504.287 32.595 504.22 32.495 504.17 32.385C504.12 32.27 504.095 32.1475 504.095 32.0175C504.095 31.8875 504.12 31.765 504.17 31.65C504.22 31.53 504.287 31.4275 504.372 31.3425C504.457 31.2525 504.555 31.1825 504.665 31.1325C504.78 31.0825 504.902 31.0575 505.032 31.0575C505.162 31.0575 505.285 31.0825 505.4 31.1325C505.52 31.1825 505.622 31.2525 505.707 31.3425C505.797 31.4275 505.867 31.53 505.917 31.65C505.972 31.765 506 31.8875 506 32.0175ZM513.196 35.7525C513.156 35.8075 513.116 35.85 513.076 35.88C513.036 35.91 512.981 35.925 512.911 35.925C512.836 35.925 512.753 35.895 512.663 35.835C512.573 35.77 512.461 35.7 512.326 35.625C512.196 35.55 512.033 35.4825 511.838 35.4225C511.648 35.3575 511.413 35.325 511.133 35.325C510.758 35.325 510.428 35.3925 510.143 35.5275C509.858 35.6575 509.618 35.8475 509.423 36.0975C509.233 36.3475 509.088 36.65 508.988 37.005C508.893 37.36 508.846 37.7575 508.846 38.1975C508.846 38.6575 508.898 39.0675 509.003 39.4275C509.108 39.7825 509.256 40.0825 509.446 40.3275C509.641 40.5675 509.873 40.7525 510.143 40.8825C510.418 41.0075 510.726 41.07 511.066 41.07C511.391 41.07 511.658 41.0325 511.868 40.9575C512.078 40.8775 512.251 40.79 512.386 40.695C512.526 40.6 512.641 40.515 512.731 40.44C512.826 40.36 512.918 40.32 513.008 40.32C513.118 40.32 513.203 40.3625 513.263 40.4475L513.638 40.935C513.473 41.14 513.286 41.315 513.076 41.46C512.866 41.605 512.638 41.7275 512.393 41.8275C512.153 41.9225 511.901 41.9925 511.636 42.0375C511.371 42.0825 511.101 42.105 510.826 42.105C510.351 42.105 509.908 42.0175 509.498 41.8425C509.093 41.6675 508.741 41.415 508.441 41.085C508.141 40.75 507.906 40.34 507.736 39.855C507.566 39.37 507.481 38.8175 507.481 38.1975C507.481 37.6325 507.558 37.11 507.713 36.63C507.873 36.15 508.103 35.7375 508.403 35.3925C508.708 35.0425 509.081 34.77 509.521 34.575C509.966 34.38 510.476 34.2825 511.051 34.2825C511.586 34.2825 512.056 34.37 512.461 34.545C512.871 34.715 513.233 34.9575 513.548 35.2725L513.196 35.7525ZM517.404 42.12C516.804 42.12 516.341 41.9525 516.016 41.6175C515.696 41.2825 515.536 40.8 515.536 40.17V35.52H514.621C514.541 35.52 514.474 35.4975 514.419 35.4525C514.364 35.4025 514.336 35.3275 514.336 35.2275V34.695L515.581 34.5375L515.889 32.19C515.904 32.115 515.936 32.055 515.986 32.01C516.041 31.96 516.111 31.935 516.196 31.935H516.871V34.5525H519.069V35.52H516.871V40.08C516.871 40.4 516.949 40.6375 517.104 40.7925C517.259 40.9475 517.459 41.025 517.704 41.025C517.844 41.025 517.964 41.0075 518.064 40.9725C518.169 40.9325 518.259 40.89 518.334 40.845C518.409 40.8 518.471 40.76 518.521 40.725C518.576 40.685 518.624 40.665 518.664 40.665C518.734 40.665 518.796 40.7075 518.851 40.7925L519.241 41.43C519.011 41.645 518.734 41.815 518.409 41.94C518.084 42.06 517.749 42.12 517.404 42.12Z" fill="black"/>
<path d="M505.5 104V97C505.5 95.5413 504.921 94.1424 503.889 93.1109C502.858 92.0795 501.459 91.5 500 91.5H496.75M505.5 104C504.837 104 504.201 104.263 503.732 104.732C503.263 105.201 503 105.837 503 106.5C503 107.163 503.263 107.799 503.732 108.268C504.201 108.737 504.837 109 505.5 109C506.163 109 506.799 108.737 507.268 108.268C507.737 107.799 508 107.163 508 106.5C508 105.837 507.737 105.201 507.268 104.732C506.799 104.263 506.163 104 505.5 104ZM496.75 91.5L499.25 89M496.75 91.5L499.25 94M490.5 104C489.837 104 489.201 104.263 488.732 104.732C488.263 105.201 488 105.837 488 106.5C488 107.163 488.263 107.799 488.732 108.268C489.201 108.737 489.837 109 490.5 109C491.163 109 491.799 108.737 492.268 108.268C492.737 107.799 493 107.163 493 106.5C493 105.837 492.737 105.201 492.268 104.732C491.799 104.263 491.163 104 490.5 104ZM490.5 104V94M490.5 94C491.163 94 491.799 93.7366 492.268 93.2678C492.737 92.7989 493 92.163 493 91.5C493 90.837 492.737 90.2011 492.268 89.7322C491.799 89.2634 491.163 89 490.5 89C489.837 89 489.201 89.2634 488.732 89.7322C488.263 90.2011 488 90.837 488 91.5C488 92.163 488.263 92.7989 488.732 93.2678C489.201 93.7366 489.837 94 490.5 94Z" stroke="#FD8270" stroke-width="2" stroke-miterlimit="10" stroke-linecap="round" stroke-linejoin="round"/>
<path d="M488 130L497.053 120.516C497.841 119.69 499.159 119.69 499.947 120.516L509 130" stroke="#FD8270" stroke-width="3"/>
<circle cx="497" cy="66" r="14" fill="white"/>
<path d="M485.625 66C485.625 59.7175 490.717 54.625 497 54.625C503.282 54.625 508.375 59.7175 508.375 66C508.375 72.2825 503.282 77.375 497 77.375C490.717 77.375 485.625 72.2825 485.625 66ZM492.882 61.8817C492.718 62.0457 492.626 62.2681 492.626 62.5C492.626 62.7319 492.718 62.9543 492.882 63.1183L495.763 66L492.882 68.8817C492.796 68.9618 492.727 69.0584 492.679 69.1657C492.631 69.273 492.605 69.3889 492.603 69.5064C492.601 69.6239 492.623 69.7406 492.667 69.8495C492.711 69.9585 492.776 70.0575 492.859 70.1405C492.943 70.2236 493.042 70.2891 493.15 70.3331C493.259 70.3772 493.376 70.3988 493.494 70.3967C493.611 70.3946 493.727 70.3689 493.834 70.3211C493.942 70.2733 494.038 70.2043 494.118 70.1183L497 67.2367L499.882 70.1183C500.048 70.2729 500.267 70.357 500.494 70.353C500.72 70.349 500.937 70.2572 501.097 70.0969C501.257 69.9366 501.349 69.7203 501.353 69.4936C501.357 69.2669 501.273 69.0475 501.118 68.8817L498.237 66L501.118 63.1183C501.273 62.9525 501.357 62.7331 501.353 62.5064C501.349 62.2797 501.257 62.0634 501.097 61.9031C500.937 61.7428 500.72 61.651 500.494 61.647C500.267 61.643 500.048 61.7271 499.882 61.8817L497 64.7633L494.118 61.8817C493.954 61.7178 493.732 61.6258 493.5 61.6258C493.268 61.6258 493.046 61.7178 492.882 61.8817Z" fill="#960563"/>
</svg>
