<svg viewBox="0 0 24 24" xmlns="http://www.w3.org/2000/svg"><path fill="#FF71B7" d="M12.11 13.25c-.08-.02-.15-.02-.23 0l-4.5.67c-.37.05-.64.37-.64.74v7.5c0 .25.12.49.34.62 .21.13.48.15.71.05l4.19-1.87 4.19 1.86c.23.1.5.08.71-.06 .21-.14.34-.375.34-.63v-7.5c0-.38-.28-.69-.64-.75l-4.5-.68Z"/><path fill="#ECEFF1" d="M13.39 1.77c-.71-.93-2.09-.93-2.79 0l-1 1.3c-.06.07-.15.1-.24.09l-1.63-.23c-1.15-.16-2.13.82-1.98 1.97l.22 1.62c.01.08-.03.17-.1.23l-1.31.99c-.93.7-.93 2.08 0 2.78l1.3.99c.07.05.1.14.09.23l-.23 1.62c-.16 1.14.82 2.12 1.97 1.97l1.62-.23c.08-.02.17.02.23.09l.99 1.3c.7.92 2.08.92 2.78 0l.99-1.31c.05-.08.14-.11.23-.1l1.62.22c1.14.15 2.12-.83 1.97-1.98l-.23-1.63c-.02-.09.02-.18.09-.24l1.3-1c.92-.71.92-2.09 0-2.79l-1.31-1c-.08-.06-.11-.15-.1-.24l.22-1.63c.15-1.15-.83-2.13-1.98-1.98l-1.63.22c-.09.01-.18-.03-.24-.1l-1-1.31Z"/><path fill="#FF71B7" d="M8.98 6.48c.81-.82 2.05-.96 3.01-.41 .95-.55 2.19-.42 3.01.4 .97.97.97 2.56 0 3.54l-2.49 2.48c-.15.14-.34.21-.54.21s-.39-.08-.54-.22L8.94 9.99c-.98-.98-.98-2.57 0-3.55Z"/></svg>