<svg viewBox="0 0 24 24" xmlns="http://www.w3.org/2000/svg"><g fill="#B4BCC0" fill-rule="evenodd"><path d="M7 12.25c.41 0 .75.33.75.75v9c0 .41-.34.75-.75.75 -.42 0-.75-.34-.75-.75v-9c0-.42.33-.75.75-.75Z"/><path d="M18.5 12.25c.41 0 .75.33.75.75v9c0 .41-.34.75-.75.75 -.42 0-.75-.34-.75-.75v-9c0-.42.33-.75.75-.75Z"/></g><g fill="#FF71B7"><path d="M7 1.25C3.82 1.25 1.25 3.82 1.25 7c0 1.56.62 3.22 1.62 4.49 .99 1.26 2.44 2.25 4.12 2.25 1.68 0 3.13-.99 4.12-2.26 .99-1.28 1.62-2.94 1.62-4.5 0-3.18-2.58-5.75-5.75-5.75Z"/><path d="M18.63 4.25c-2.43 0-4.39 1.96-4.39 4.38 0 1.19.47 2.44 1.22 3.39 .74.95 1.85 1.71 3.16 1.71 1.3 0 2.41-.77 3.16-1.72 .74-.96 1.22-2.21 1.22-3.4 0-2.43-1.97-4.39-4.39-4.39Z"/></g><path fill="#ECEFF1" d="M9.6 5.39c-.71-.71-1.77-.84-2.61-.4 -.84-.45-1.9-.32-2.61.39 -.87.86-.87 2.26 0 3.13l2.07 2.07c.14.14.33.21.53.21 .19 0 .38-.08.53-.22l2.07-2.08c.86-.87.86-2.27 0-3.14Z"/></svg>