<svg viewBox="0 0 24 24" xmlns="http://www.w3.org/2000/svg"><g fill="#EE4D4D"><path d="M22.75 9.56c0-1.79-1.69-3.11-3.42-2.67l-5.52 1.37c-.34.08-.57.38-.57.72v6c0 .34.23.64.56.72l5.51 1.37c1.73.43 3.41-.88 3.41-2.67V9.52Z"/><path d="M1.25 9.56c0-1.79 1.68-3.11 3.41-2.67l5.51 1.37c.33.08.56.38.56.72v6c0 .34-.24.64-.57.72l-5.52 1.37c-1.74.43-3.42-.88-3.42-2.67V9.52Z"/></g><g fill="#ECEFF1" fill-rule="evenodd"><path d="M13.25 12c0-.42.33-.75.75-.75h2c.41 0 .75.33.75.75 0 .41-.34.75-.75.75h-2c-.42 0-.75-.34-.75-.75Z"/><path d="M7.25 12c0-.42.33-.75.75-.75h2c.41 0 .75.33.75.75 0 .41-.34.75-.75.75H8c-.42 0-.75-.34-.75-.75Z"/></g><path fill="#F17171" d="M11 7.25c-.97 0-1.75.78-1.75 1.75v6c0 .96.78 1.75 1.75 1.75h2c.96 0 1.75-.79 1.75-1.75V9c0-.97-.79-1.75-1.75-1.75h-2Z"/></svg>