<svg viewBox="0 0 24 24" xmlns="http://www.w3.org/2000/svg"><g fill="#ECEFF1" fill-rule="evenodd"><path d="M6 1.25c.41 0 .75.33.75.75v5.5c0 .41-.34.75-.75.75 -.42 0-.75-.34-.75-.75V2c0-.42.33-.75.75-.75Zm0 10.37c.41 0 .75.33.75.75v4.12c0 .41-.34.75-.75.75 -.42 0-.75-.34-.75-.75V12.36c0-.42.33-.75.75-.75Z"/><path d="M17 1.25c.41 0 .75.33.75.75v5.5c0 .41-.34.75-.75.75 -.42 0-.75-.34-.75-.75V2c0-.42.33-.75.75-.75Zm0 10.37c.41 0 .75.33.75.75v4.12c0 .41-.34.75-.75.75 -.42 0-.75-.34-.75-.75V12.36c0-.42.33-.75.75-.75Z"/></g><g fill="#FFC44D"><path d="M3.6 23.15c-.2 0-.39-.08-.54-.22l-1.6-1.6c-.28-.28-.3-.72-.05-1.02l4-4.8c.14-.18.35-.27.57-.27 .22 0 .43.09.57.26l4 4.8c.24.29.22.73-.05 1.01l-1.6 1.6c-.15.14-.34.21-.54.21h-4.8Z"/><path d="M14.6 23.15c-.2 0-.39-.08-.54-.22l-1.6-1.6c-.28-.28-.3-.72-.05-1.02l4-4.8c.14-.18.35-.27.57-.27 .22 0 .43.09.57.26l4 4.8c.24.29.22.73-.05 1.01l-1.6 1.6c-.15.14-.34.21-.54.21h-4.8Z"/><path d="M6.53 6.64c-.3-.3-.77-.3-1.07 0L2.63 9.46c-.3.29-.3.76 0 1.06l2.82 2.82c.29.29.76.29 1.06 0l2.82-2.83c.29-.3.29-.77 0-1.07L6.5 6.61Z"/><path d="M17.53 6.64c-.3-.3-.77-.3-1.07 0l-2.83 2.82c-.3.29-.3.76 0 1.06l2.82 2.82c.29.29.76.29 1.06 0l2.82-2.83c.29-.3.29-.77 0-1.07L17.5 6.61Z"/></g></svg>