<svg viewBox="0 0 24 24" xmlns="http://www.w3.org/2000/svg"><path fill="#CFD8DC" fill-rule="evenodd" d="M5.25 6c0-2.63 2.12-4.75 4.75-4.75h4c2.62 0 4.75 2.12 4.75 4.75v5c0 .41-.34.75-.75.75H6c-.42 0-.75-.34-.75-.75V6ZM10 2.75C8.2 2.75 6.75 4.2 6.75 6v4.25h10.5V6c0-1.8-1.46-3.25-3.25-3.25h-4Z"/><path fill="#FF71B7" d="M5 10.25c-.97 0-1.75.78-1.75 1.75v9c0 .96.78 1.75 1.75 1.75h14c.96 0 1.75-.79 1.75-1.75v-9c0-.97-.79-1.75-1.75-1.75H5Z"/><path fill="#ECEFF1" d="M8.98 13.98c.81-.82 2.05-.96 3.01-.41 .95-.55 2.19-.42 3.01.4 .97.97.97 2.56 0 3.54l-2.49 2.48c-.15.14-.34.21-.54.21s-.39-.08-.54-.22l-2.49-2.49c-.98-.98-.98-2.57 0-3.55Z"/></svg>