<svg viewBox="0 0 24 24" xmlns="http://www.w3.org/2000/svg"><g fill="#5E94FF" fill-rule="evenodd"><path d="M19.13 4.59c-.3-.3-.77-.3-1.07 0l-7.08 7.07c-.3.29-.3.76 0 1.06 .29.29.76.29 1.06 0l7.07-7.08c.29-.3.29-.77 0-1.07Z"/><path d="M3.93 11.662c2.24-2.25 5.88-2.25 8.13 0 2.24 2.24 2.24 5.88 0 8.13 -2.25 2.24-5.89 2.24-8.14 0 -2.25-2.25-2.25-5.89 0-8.14ZM11 12.72c-1.66-1.66-4.36-1.66-6.02 0 -1.66 1.65-1.66 4.35 0 6.01 1.65 1.65 4.35 1.65 6.01 0 1.65-1.66 1.65-4.36 0-6.02Z"/><path d="M19.35 5.12c0-.42-.34-.75-.75-.75h-4.25c-.42 0-.75.33-.75.75 0 .41.33.75.75.75h3.49v3.49c0 .41.33.74.75.74 .41 0 .75-.34.75-.75V5.1Z"/></g></svg>