<svg viewBox="0 0 24 24" xmlns="http://www.w3.org/2000/svg"><path fill="#8BC94D" d="M3 3c-.33 0-.61.2-.72.51l-1 3c-.08.22-.04.48.1.67 .14.19.36.31.6.31h2.5c.24 0 .46-.12.6-.32 .14-.2.17-.45.1-.68l-1-3c-.11-.31-.39-.52-.72-.52h-.5Z"/><path fill="#ECEFF1" d="M2 6c-.42 0-.75.33-.75.75v12c0 .41.33.75.75.75h2.5c.41 0 .75-.34.75-.75v-12c0-.42-.34-.75-.75-.75H2Z"/><path fill="#8BC94D" d="M20.5 3c-.33 0-.61.2-.72.51l-1 3c-.08.22-.04.48.1.67 .14.19.36.31.6.31h2.5c.24 0 .46-.12.6-.32 .14-.2.17-.45.1-.68l-1-3c-.11-.31-.39-.52-.72-.52h-.5Z"/><path fill="#ECEFF1" d="M19.5 6c-.42 0-.75.33-.75.75v12c0 .41.33.75.75.75H22c.41 0 .75-.34.75-.75v-12c0-.42-.34-.75-.75-.75h-2.5Z"/><g fill="#A2ADB8"><path d="M17 18c-.42 0-.75.33-.75.75v3c0 .41.33.75.75.75h5c.41 0 .75-.34.75-.75v-3c0-.42-.34-.75-.75-.75h-5Z"/><path d="M2 18c-.42 0-.75.33-.75.75v3c0 .41.33.75.75.75h5c.41 0 .75-.34.75-.75v-3c0-.42-.34-.75-.75-.75H2Z"/></g><path fill="#ECEFF1" d="M7 9c-.42 0-.75.33-.75.75v12c0 .41.33.75.75.75h10c.41 0 .75-.34.75-.75v-12c0-.42-.34-.75-.75-.75H7Z"/><path fill="#A2ADB8" d="M10 15c-.42 0-.75.33-.75.75v6c0 .41.33.75.75.75h4c.41 0 .75-.34.75-.75v-6c0-.42-.34-.75-.75-.75h-4Z"/><g fill="#8BC94D"><path d="M12 2.25l.34-.67 0 0 0 0 .01 0 .04.02c.03.01.08.04.15.08 .12.07.31.17.53.3 .43.25 1.02.62 1.61 1.07 .58.44 1.2.97 1.68 1.57 .46.58.86 1.3.86 2.1 0 1.48-.84 2.76-1.94 3.59 -.14.09-.29.15-.46.15H9.08c-.17 0-.33-.06-.46-.16 -1.11-.84-1.94-2.12-1.94-3.6 0-.81.4-1.53.86-2.11 .47-.6 1.09-1.13 1.67-1.58 .59-.45 1.17-.82 1.61-1.08 .21-.13.4-.24.53-.31 .06-.04.11-.07.15-.09l.04-.03 .01-.01 0-.01 0-.01 .34.66Z"/><path d="M11.65 1.58s0 0 .34.66c.34-.67.34-.67.34-.67 -.22-.11-.47-.11-.69 0Z"/></g></svg>