<svg viewBox="0 0 24 24" xmlns="http://www.w3.org/2000/svg"><path fill="#FFC44D" fill-rule="evenodd" d="M12 6.75c-4.01 0-7.25 3.24-7.25 7.25 0 4 3.24 7.25 7.25 7.25 4 0 7.25-3.25 7.25-7.25 0-4.01-3.25-7.25-7.25-7.25ZM3.25 14c0-4.84 3.91-8.75 8.75-8.75 4.83 0 8.75 3.91 8.75 8.75 0 4.83-3.92 8.75-8.75 8.75 -4.84 0-8.75-3.92-8.75-8.75Z"/><path fill="#4DC4FF" d="M10.5 1.25c-.2 0-.39.07-.54.21l-1 1c-.28.27-.3.71-.05 1.01l2.49 3c.14.17.35.26.57.26 .22 0 .43-.1.57-.27l2.5-3c.24-.3.22-.74-.05-1.02l-1-1c-.15-.15-.34-.22-.54-.22h-3Z"/></svg>