<svg viewBox="0 0 24 24" xmlns="http://www.w3.org/2000/svg"><path fill="#FF71B7" d="M12.3 2.76c-.42-.42-1.01-.6-1.59-.48l-5.9 1.17c-.7.13-1.24.68-1.38 1.37l-1.18 5.89c-.12.57.06 1.16.47 1.58l10.22 10.22c.68.68 1.79.68 2.47 0l7.07-7.08c.68-.69.68-1.8 0-2.48L12.25 2.72Z"/><g fill="#ECEFF1"><path d="M6.62 6.62c-.88.87-.88 2.3 0 3.18 .87.87 2.3.87 3.18 0 .87-.88.87-2.31 0-3.19 -.88-.88-2.31-.88-3.19 0Z"/><path d="M9.96 14.22c0-1.16.78-2.13 1.84-2.42 .29-1.07 1.26-1.85 2.41-1.85 1.38 0 2.5 1.12 2.5 2.5v3.51c0 .19-.08.38-.22.53 -.15.14-.34.21-.54.21h-3.52c-1.39 0-2.51-1.13-2.51-2.51Z"/></g></svg>