<svg viewBox="0 0 24 24" xmlns="http://www.w3.org/2000/svg"><path fill="#FF71B7" d="M8.98 1.98c.81-.82 2.05-.96 3.01-.41 .95-.55 2.19-.42 3.01.4 .97.97.97 2.56 0 3.54l-2.49 2.48c-.15.14-.34.21-.54.21s-.39-.08-.54-.22L8.94 5.49c-.98-.98-.98-2.57 0-3.55Z"/><path fill="#ECEFF1" d="M5 6.75c-.97 0-1.75.78-1.75 1.75v6c0 .41.33.75.75.75h16c.41 0 .75-.34.75-.75v-6c0-.97-.79-1.75-1.75-1.75H5Z"/><path fill="#FF71B7" fill-rule="evenodd" d="M3.96 6.96c.29-.3.76-.3 1.06 0l1.73 1.73c.92.92 2.42.87 3.28-.11l1.38-1.59c.14-.17.34-.26.56-.26 .21 0 .42.09.56.25l1.38 1.58c.85.97 2.36 1.02 3.28.1l1.73-1.74c.29-.3.76-.3 1.06 0 .29.29.29.76 0 1.06l-1.74 1.73c-1.54 1.53-4.05 1.45-5.48-.19l-.83-.95 -.83.94c-1.43 1.63-3.94 1.71-5.48.18L3.88 7.95c-.3-.3-.3-.77 0-1.07Z"/><path fill="#CFD8DC" d="M3 13.75c-.97 0-1.75.78-1.75 1.75v5c0 .96.78 1.75 1.75 1.75h18c.96 0 1.75-.79 1.75-1.75v-5c0-.97-.79-1.75-1.75-1.75H3Z"/><path fill="#FF71B7" fill-rule="evenodd" d="M2.05 13.9c.33-.25.8-.19 1.05.15l1.51 2.02c.47.63 1.41.67 1.94.07l1.87-2.15c.14-.17.35-.26.57-.26 .22 0 .42.1.56.27l1.7 2.09c.5.61 1.44.61 1.94-.01l1.68-2.09c.14-.18.36-.29.59-.28 .23 0 .44.11.58.29l1.4 1.86c.5.66 1.5.66 2 0l1.4-1.87c.24-.34.71-.4 1.05-.15 .33.24.39.71.15 1.05l-1.4 1.86c-1.1 1.46-3.3 1.46-4.4 0l-.83-1.1 -1.09 1.33c-1.1 1.35-3.17 1.36-4.27 0L8.9 15.57l-1.3 1.47c-1.16 1.31-3.23 1.23-4.27-.17l-1.52-2.03c-.25-.34-.19-.81.15-1.05Z"/></svg>