<svg viewBox="0 0 24 24" xmlns="http://www.w3.org/2000/svg"><g fill-rule="evenodd"><path d="M5.5 6.5c-.32 0-.61.14-.8.39 -.19.24-.26.56-.18.86l1.9 7c.11.43.51.73.96.73h7.19c.45 0 .84-.31.96-.74l1.9-7.01c.08-.31.01-.63-.18-.87 -.19-.25-.49-.4-.8-.4h-11Z"/><path d="M6.53 14.24c.11-.44.51-.75.96-.75h6.99c.45 0 .84.3.96.74l2 7.5c.08.3.01.62-.18.86s-.49.39-.8.39h-11c-.32 0-.61-.15-.8-.4 -.19-.25-.26-.57-.18-.87l2-7.5Zm1.73 1.25l-1.47 5.5h8.39l-1.47-5.5H8.24Z"/><path d="M15.5 1c-.56 0-1 .44-1 1v3c0 .55.44 1 1 1h3c.55 0 1-.45 1-1V2c0-.56-.45-1-1-1h-3Z"/><path d="M10 5c0-.56.44-1 1-1h6.5v2H12v1.5h-2V5Z"/></g></svg>