<svg viewBox="0 0 24 24" xmlns="http://www.w3.org/2000/svg"><g fill-rule="evenodd"><path d="M5.5 2.5c-.56 0-1 .44-1 1V8c0 .55.44 1 1 1h15c.55 0 1-.45 1-1V3.5c0-.56-.45-1-1-1h-15Z"/><path d="M4.5 16.5c-.56 0-1 .44-1 1v3c0 .55.44 1 1 1h12c.55 0 1-.45 1-1v-3c0-.56-.45-1-1-1h-12Z"/><path d="M16.5 7c-.56 0-1 .44-1 1v12.5c0 .55.44 1 1 1h4c.55 0 1-.45 1-1V8c0-.56-.45-1-1-1h-4Z"/><path d="M5 13c0-1.66 1.34-3 3-3h2.5c1.65 0 3 1.34 3 3v4.5c0 .55-.45 1-1 1H6c-.56 0-1-.45-1-1V13Zm3-1c-.56 0-1 .44-1 1v3.5h4.5V13c0-.56-.45-1-1-1H8Z"/><path d="M2.5 13.5C2.5 12.11 3.61 11 5 11h1v2H5c-.28 0-.5.22-.5.5v.5c0 .27.22.5.5.5h1v2H5c-1.39 0-2.5-1.12-2.5-2.5v-.5Z"/><path d="M12.419 12.5h-.42v-2h2.5c.38 0 .73.22.9.56 .16.34.11.75-.13 1.05l-2 2.5 -1.57-1.25 .7-.88Z"/></g></svg>