<svg viewBox="0 0 24 24" xmlns="http://www.w3.org/2000/svg"><g fill-rule="evenodd"><path d="M1 7.5v-3h2v3c0 .55.44 1 1 1h1c.55 0 1-.45 1-1v-3h2v3c0 1.65-1.35 3-3 3H4c-1.66 0-3-1.35-3-3Z"/><path d="M20.5 3.5c-1.66 0-3 1.34-3 3v3c0 1.65 1.34 3 3 3H22c.55 0 1-.45 1-1v-7c0-.56-.45-1-1-1h-1.5Z"/><path d="M3.5 16.71V4.49h2V16.7h-2Z"/><path d="M21 16.71V5.49h2V16.7h-2Z"/><path d="M6 14.5c0-3.32 2.68-6 6-6 3.31 0 6 2.68 6 6 0 3.31-2.69 6-6 6 -3.32 0-6-2.69-6-6Zm6-1.5c.82 0 1.5.67 1.5 1.5h2c0-1.94-1.57-3.5-3.5-3.5v2Zm0 3c-.83 0-1.5-.68-1.5-1.5h-2c0 1.93 1.56 3.5 3.5 3.5v-2Z"/></g></svg>