<svg viewBox="0 0 24 24" xmlns="http://www.w3.org/2000/svg"><g fill-rule="evenodd"><path d="M17.29 1.29c.39-.4 1.02-.4 1.41 0l4 4c.39.39.39 1.02 0 1.41l-2 2c-.4.39-1.03.39-1.42 0l-4-4c-.4-.4-.4-1.03 0-1.42l2-2Zm.12 2.7l2.58 2.58 .58-.59 -2.59-2.59 -.59.58Z"/><path d="M14.7 1.29c-.4-.4-1.03-.4-1.42 0l-12 12c-.19.18-.3.44-.3.71 0 .26.11.52.3.71l8.23 8c.39.38 1.02.37 1.41-.02l11.76-12c.38-.4.38-1.02-.01-1.41l-8-8Zm-3.92 6.5l2-2 1.41 1.41 -2 2 -1.42-1.42Zm-3.01 3l-2 2 1.41 1.41 2-2 -1.42-1.42Zm5-1.01l2-2 1.41 1.41 -2 1.99 -1.42-1.42Zm-3.01 3l-2 2 1.41 1.41 1.99-2 -1.42-1.42Zm5-1l2-2.01 1.41 1.41 -2 2 -1.42-1.42Zm-1.59 4.41l-1.42-1.42 -2.01 2 1.41 1.41 2-2Z"/></g></svg>