<svg viewBox="0 0 24 24" xmlns="http://www.w3.org/2000/svg"><g fill-rule="evenodd"><path d="M17.29 1.29c.39-.4 1.02-.4 1.41 0l4 4c.39.39.39 1.02 0 1.41l-2 2c-.4.39-1.03.39-1.42 0 -.4-.4-.4-1.03 0-1.42l1.29-1.3 -2.59-2.59 -1.3 1.29c-.4.39-1.03.39-1.42 0 -.4-.4-.4-1.03 0-1.42l2-2Z"/><path d="M4.7 15.29c.39.39.39 1.02 0 1.41l-1.3 1.29 2.58 2.58 1.29-1.3c.39-.4 1.02-.4 1.41 0 .39.39.39 1.02 0 1.41l-2 2c-.4.39-1.03.39-1.42 0l-4-4c-.4-.4-.4-1.03 0-1.42l2-2c.39-.4 1.02-.4 1.41 0Z"/><path d="M13.29 1.29c.39-.4 1.02-.4 1.41 0l8 8c.39.39.39 1.02 0 1.41l-12 12c-.4.39-1.03.39-1.42 0l-8-8c-.4-.4-.4-1.03 0-1.42l12-12Zm-10 11.41l8 8 1.41-1.42 -8-8 -1.42 1.41Zm2-2L6.7 9.28l7.99 8 -1.42 1.41 -8.01-8ZM8.7 7.28L7.28 8.69l8 7.99 1.41-1.42 -8-8.01Zm.58-.59l1.41-1.42 8 8 -1.42 1.41 -8.01-8Zm3.41-3.42l-1.42 1.41 8 7.99 1.41-1.42 -8-8.01Z"/></g></svg>