<svg viewBox="0 0 24 24" xmlns="http://www.w3.org/2000/svg"><g fill-rule="evenodd"><path d="M6 16c-.97 0-2 .96-2 2.5C4 20.03 5.03 21 6 21c.96 0 2-.97 2-2.5C8 16.96 6.96 16 6 16Zm-4 2.5C2 16.16 3.65 14 6 14c2.34 0 4 2.16 4 4.5 0 2.33-1.66 4.5-4 4.5 -2.35 0-4-2.17-4-4.5Z"/><path d="M7 12v10H5V12h2Z"/><path d="M18 3h-5V1h5c2.76 0 5 2.23 5 5v1h-2V6c0-1.66-1.35-3-3-3Z"/><path d="M1 2c0-.56.44-1 1-1h11c.55 0 1 .44 1 1v4h8c.55 0 1 .44 1 1v5c0 .55-.45 1-1 1H5.5C3.01 13 1 10.98 1 8.5V2Zm4 4h3V4H5v2Z"/></g></svg>