<svg viewBox="0 0 24 24" xmlns="http://www.w3.org/2000/svg"><g fill-rule="evenodd"><path d="M6 1c-.29 0-.56.11-.75.32 -.19.2-.29.48-.26.77l1 10c.05.51.48.9.99.9h10c.51 0 .94-.39.99-.91l1-10c.02-.29-.07-.57-.26-.78 -.19-.21-.46-.33-.75-.33h-12Z"/><path d="M5.24 22.65c.18.21.46.34.75.34h12c.28 0 .56-.13.75-.35 .18-.22.27-.51.23-.8l-1-7c-.08-.5-.5-.86-.99-.86h-10c-.5 0-.92.36-.99.85l-1 7c-.05.28.04.57.23.79Zm1.9-1.66l.71-5h8.26l.71 5h-9.7Z"/><path d="M6.99 1.92c-.03-.3-.18-.57-.42-.74 -.24-.18-.55-.24-.83-.16l-4 1c-.34.08-.6.33-.71.65 -.11.32-.05.68.17.94l4.5 5.5c.27.33.74.45 1.14.29 .4-.17.65-.57.62-1.01l-.5-6.5Z"/><path d="M17 2c0-.56.44-1 1-1h3.5c.55 0 1 .44 1 1v5c0 .55-.45 1-1 1 -.56 0-1-.45-1-1V3H18c-.56 0-1-.45-1-1Z"/><path d="M7 12c0-.56.44-1 1-1h8c.55 0 1 .44 1 1v3c0 .55-.45 1-1 1H8c-.56 0-1-.45-1-1v-3Zm2 1v1h6v-1H9Z"/></g></svg>