<svg viewBox="0 0 24 24" xmlns="http://www.w3.org/2000/svg"><g fill-rule="evenodd"><path d="M4 20.5C4 21.88 5.11 23 6.5 23h11c1.38 0 2.5-1.12 2.5-2.5 0-1.39-1.12-2.5-2.5-2.5h-11C5.11 18 4 19.11 4 20.5Zm2.5.5c-.28 0-.5-.23-.5-.5 0-.28.22-.5.5-.5h11c.27 0 .5.22.5.5 0 .27-.23.5-.5.5h-11Z"/><path d="M2 4.5c-.37 0-.71.19-.88.52 -.18.32-.17.71.03 1.01l4.5 7c.23.36.67.53 1.08.42 .41-.11.71-.47.75-.9l.5-7c.01-.28-.08-.55-.27-.76 -.19-.21-.46-.32-.74-.32h-5Z"/><path d="M11 2c0-.56.44-1 1-1h6.5C20.98 1 23 3.01 23 5.5v3.03c0 1.13-.3 2.24-.86 3.22l-3.28 5.73c-.28.47-.89.64-1.37.37 -.48-.28-.65-.89-.38-1.37l3.27-5.74c.38-.68.59-1.45.59-2.24V5.46c0-1.39-1.12-2.5-2.5-2.5h-6.5c-.56 0-1-.45-1-1Z"/><path d="M6.14 6.01C6.39 3.17 8.76.99 11.61.99h.75c2.85 0 5.22 2.17 5.47 5.01l1.13 12.89c.02.27-.07.55-.26.76 -.19.2-.46.32-.74.32h-12c-.29 0-.55-.12-.74-.33 -.19-.21-.29-.49-.26-.77l1.13-12.9Zm6.85 3.98c0-.56-.45-1-1-1 -.56 0-1 .44-1 1v6c0 .55.44 1 1 1 .55 0 1-.45 1-1v-6Z"/></g></svg>