<svg viewBox="0 0 24 24" xmlns="http://www.w3.org/2000/svg"><path fill-rule="evenodd" d="M11.64 1.06c.22-.09.47-.09.7 0l8 3c.39.14.64.51.64.93v9.13c0 1.81-.9 3.5-2.39 4.53l-6.05 4.15c-.35.23-.8.23-1.14 0l-6.05-4.16c-1.5-1.03-2.39-2.73-2.39-4.54V4.96c0-.42.25-.79.64-.94l8-3Zm-2.61 9.43H6.06c.47-2.84 2.94-5 5.91-5s5.44 2.16 5.91 5h-2.97c-.09-.97-.31-1.87-.63-2.59 -.22-.49-.5-.94-.87-1.29 -.37-.36-.87-.63-1.47-.63 -.61 0-1.1.27-1.47.62 -.37.34-.65.79-.87 1.28 -.33.72-.54 1.61-.63 2.58Zm5.91 2h2.96c-.48 2.83-2.95 5-5.917 5 -2.98 0-5.45-2.17-5.92-5h2.96c.08.96.3 1.86.62 2.58 .21.48.49.93.86 1.28 .36.35.86.62 1.46.62s1.09-.28 1.46-.63c.36-.35.64-.8.86-1.29 .32-.73.53-1.62.62-2.59Zm-3.46 1.77c-.21-.46-.37-1.07-.45-1.78h1.88c-.09.7-.25 1.31-.45 1.77 -.15.33-.3.53-.42.64 -.05.03-.08.05-.09.07 -.02-.02-.05-.04-.09-.08 -.12-.11-.27-.32-.42-.65Zm1-5.56c.2.45.36 1.06.44 1.77h-1.89c.08-.71.24-1.32.44-1.78 .14-.34.29-.54.41-.65 .04-.04.07-.06.08-.08 .01.01.04.03.08.07 .11.1.26.31.41.64Zm-.49-.73c0-.01 0-.01 0-.01 0-.01-.01-.01-.01 0 -.01 0-.01 0-.01 0Zm-.04 0c-.01-.01-.01-.01-.01-.01 0-.01 0 0 0 0Zm-.01 7c0-.01 0-.01 0-.01 -.01 0-.01 0-.01 0Zm.04-.01l-.01-.01s0 0 0 0l-.01-.01 -.01-.01Z"/></svg>