<svg viewBox="0 0 24 24" xmlns="http://www.w3.org/2000/svg"><path fill-rule="evenodd" d="M9 2c0-.56.44-1 1-1h4c.55 0 1 .44 1 1v1.51c.3.1.59.22.88.36l1.06-1.07c.39-.4 1.02-.4 1.41 0l2.82 2.82c.18.18.29.44.29.7 0 .26-.11.51-.3.7l-1.07 1.06c.13.28.25.57.36.88h1.51c.55 0 1 .44 1 1v4c0 .55-.45 1-1 1h-1.52c-.11.3-.23.59-.37.88l1.06 1.06c.18.18.29.44.29.7 0 .26-.11.51-.3.7l-2.83 2.82c-.4.39-1.03.39-1.42 0l-1.07-1.07c-.29.13-.58.25-.89.36v1.51c0 .55-.45 1-1 1h-4c-.56 0-1-.45-1-1V20.4c-.31-.11-.6-.23-.89-.37l-1.07 1.06c-.4.39-1.03.39-1.42 0L2.7 18.26c-.4-.4-.4-1.03 0-1.42l1.06-1.07c-.14-.29-.26-.58-.37-.89H1.87c-.56 0-1-.45-1-1v-4c0-.56.44-1 1-1h1.51c.1-.31.22-.6.36-.89L2.67 6.92c-.19-.19-.3-.45-.3-.71 0-.27.1-.52.29-.71l2.82-2.83c.39-.4 1.02-.4 1.41 0l1.06 1.06c.28-.14.57-.26.88-.37V1.84Zm.04 9H6.07c.47-2.84 2.94-5 5.91-5s5.44 2.16 5.91 5h-2.97c-.09-.97-.31-1.87-.63-2.59 -.22-.49-.5-.94-.87-1.29 -.37-.36-.87-.63-1.47-.63 -.61 0-1.1.27-1.47.62 -.37.34-.65.79-.87 1.28 -.33.72-.54 1.61-.63 2.58Zm5.91 2h2.96c-.48 2.83-2.95 5-5.917 5 -2.98 0-5.45-2.17-5.92-5h2.96c.08.96.3 1.86.62 2.58 .21.48.49.93.86 1.28 .36.35.86.62 1.46.62s1.09-.28 1.46-.63c.36-.35.64-.8.86-1.29 .32-.73.53-1.62.62-2.59Zm-3.46 1.77c-.21-.46-.37-1.07-.45-1.78h1.88c-.09.7-.25 1.31-.45 1.77 -.15.33-.3.53-.42.64 -.05.03-.08.05-.09.07 -.02-.02-.05-.04-.09-.08 -.12-.11-.27-.32-.42-.65Zm1-5.56c.2.45.36 1.06.44 1.77h-1.89c.08-.71.24-1.32.44-1.78 .14-.34.29-.54.41-.65 .04-.04.07-.06.08-.08 .01.01.04.03.08.07 .11.1.26.31.41.64Zm-.48-.73s-.01 0-.01 0c0-.01 0-.01 0-.01Zm-.05 0s0 0 0 0c-.01-.01-.01-.01-.01-.01s0 0 0 0Zm-.01 7c0-.01 0-.01 0-.01 -.01 0-.01 0-.01 0Zm.04-.01l-.01-.01s0 0 0 0l-.01-.01 -.01-.01Z"/></svg>