<svg viewBox="0 0 24 24" xmlns="http://www.w3.org/2000/svg"><g fill-rule="evenodd"><path d="M12 7c-1.66 0-3 1.34-3 3 0 1.65 1.34 3 3 3 1.65 0 3-1.35 3-3 0-1.66-1.35-3-3-3Z"/><path d="M11.25 11C9.45 11 8 12.45 8 14.25c0 .96.78 1.75 1.75 1.75h4.5c.96 0 1.75-.79 1.75-1.75 0-1.8-1.46-3.25-3.25-3.25h-1.5Z"/><path d="M18 1h4c.55 0 1 .44 1 1v4h-2V4.41L17.7 7.7l-1.42-1.42 3.29-3.3h-1.59v-2Z"/><path d="M5.99 1h-4c-.56 0-1 .44-1 1v4h1.99V4.41L6.27 7.7l1.41-1.42 -3.3-3.3h1.58v-2Z"/><path d="M18 23h4c.55 0 1-.45 1-1v-4h-2v1.58l-3.3-3.3 -1.42 1.41 3.29 3.29h-1.59v2Z"/><path d="M5.99 23h-4c-.56 0-1-.45-1-1v-4h1.99v1.58l3.29-3.3 1.41 1.41 -3.3 3.29h1.58v2Z"/><path d="M13 2v3h-2V2h2Z"/><path d="M22 13h-3v-2h3v2Z"/><path d="M13 19v3h-2v-3h2Z"/><path d="M5 13H2v-2h3v2Z"/></g></svg>