<svg viewBox="0 0 24 24" xmlns="http://www.w3.org/2000/svg"><g fill-rule="evenodd"><path d="M5 1C3.34 1 2 2.34 2 4v1c0 1.65 1.34 3 3 3h14c1.65 0 3-1.35 3-3V4c0-1.66-1.35-3-3-3H5Zm6.5 4.5h-6v-2h6v2Zm5 0H18v-2h-1.5v2Z"/><path d="M5 6C3.34 6 2 7.34 2 9v1c0 1.65 1.34 3 3 3h14c1.65 0 3-1.35 3-3V9c0-1.66-1.35-3-3-3H5Zm6.5 4.5h-6v-2h6v2Zm5 0H18v-2h-1.5v2Z"/><path d="M11 19v-7h2v7h-2Z"/><path d="M20 21.5h-6.5v-2H20v2Z"/><path d="M10.5 21.5H4v-2h6.5v2Z"/><path d="M12 18c-1.39 0-2.5 1.11-2.5 2.5 0 1.38 1.11 2.5 2.5 2.5 1.38 0 2.5-1.12 2.5-2.5 0-1.39-1.12-2.5-2.5-2.5Z"/></g></svg>