<svg viewBox="0 0 24 24" xmlns="http://www.w3.org/2000/svg"><g fill-rule="evenodd"><path d="M1 5.5c0-1.11.89-2 2-2h18c1.1 0 2 .89 2 2v6c0 1.1-.9 2-2 2H3c-1.11 0-2-.9-2-2v-6Zm20 0H3v6h18v-6Z"/><path d="M7.5 12.5c0-.56.44-1 1-1h7c.55 0 1 .44 1 1v4c0 .55-.45 1-1 1h-7c-.56 0-1-.45-1-1v-4Zm2 1v2h5v-2h-5Z"/><path d="M6.5 15.5c-.56 0-1 .44-1 1v3c0 .55.44 1 1 1h11c.55 0 1-.45 1-1v-3c0-.56-.45-1-1-1h-11Z"/><path d="M12 3.5c-2.77 0-5 2.23-5 5 0 2.76 2.23 5 5 5 2.76 0 5-2.24 5-5 0-2.77-2.24-5-5-5Z"/></g></svg>