<svg viewBox="0 0 24 24" xmlns="http://www.w3.org/2000/svg"><g fill-rule="evenodd"><path d="M20 1c-1.66 0-3 1.34-3 3 0 1.65 1.34 3 3 3 1.65 0 3-1.35 3-3 0-1.66-1.35-3-3-3Z"/><path d="M4 1C2.34 1 1 2.34 1 4c0 1.65 1.34 3 3 3 1.65 0 3-1.35 3-3 0-1.66-1.35-3-3-3Z"/><path d="M4 17c-1.66 0-3 1.34-3 3 0 1.65 1.34 3 3 3 1.65 0 3-1.35 3-3 0-1.66-1.35-3-3-3Z"/><path d="M20 17c-1.66 0-3 1.34-3 3 0 1.65 1.34 3 3 3 1.65 0 3-1.35 3-3 0-1.66-1.35-3-3-3Z"/><path d="M8.49 16.92L6.2 19.2l-1.42-1.42 2.28-2.29 1.41 1.41Z"/><path d="M16.99 15.57l2.21 2.21 -1.42 1.41 -2.22-2.22 1.41-1.42Z"/><path d="M15.55 7.02l2.23-2.24 1.41 1.41 -2.24 2.23L15.53 7Z"/><path d="M7.07 8.49L4.78 6.2l1.41-1.42 2.28 2.28 -1.42 1.41Z"/><path d="M5.07 11h3.95c.07-1.35.28-2.59.61-3.56 .2-.61.46-1.16.79-1.59 .32-.42.85-.86 1.56-.86 .71 0 1.23.43 1.56.85 .33.42.59.98.79 1.58 .32.97.53 2.21.61 3.55h3.95c-.49-3.4-3.41-6-6.93-6 -3.53 0-6.45 2.6-6.93 6Zm13.85 2h-3.96c-.08 1.34-.29 2.583-.62 3.55 -.21.6-.47 1.15-.8 1.58 -.33.41-.85.85-1.57.85 -.72 0-1.24-.44-1.57-.86 -.34-.43-.6-.99-.8-1.59 -.33-.98-.54-2.22-.62-3.56H5.02c.48 3.39 3.4 6 6.92 6s6.44-2.61 6.92-6Zm-7.9 0c.06 1.16.25 2.17.5 2.92 .15.47.32.79.46.97 .13-.18.3-.5.46-.98 .25-.76.43-1.77.5-2.93h-1.95Zm1.94-2c-.07-1.17-.26-2.18-.51-2.93 -.16-.48-.33-.8-.47-.98 -.14.18-.31.49-.47.97 -.26.75-.44 1.76-.51 2.92h1.94Zm-.86-4.03s-.01 0-.01 0c0-.01 0-.01 0-.01Zm-.24 0c-.01-.01-.01-.01-.01-.01 0-.01 0 0 0 0Zm-.01 10.04c0-.01 0-.01 0-.01 -.01 0-.01 0-.01 0Zm.23-.01s0 0 0 0 -.01-.01-.01-.01Z"/></g></svg>