<svg viewBox="0 0 24 24" xmlns="http://www.w3.org/2000/svg"><g fill-rule="evenodd"><path d="M17 2.5c-2.49 0-4.5 2.01-4.5 4.5 0 2.48 2.01 4.5 4.5 4.5 2.48 0 4.5-2.02 4.5-4.5 0-2.49-2.02-4.5-4.5-4.5ZM11.5 7c0-3.04 2.46-5.5 5.5-5.5 3.03 0 5.5 2.46 5.5 5.5 0 3.03-2.47 5.5-5.5 5.5 -3.04 0-5.5-2.47-5.5-5.5Z"/><path d="M9.75 10.5c.13-.01.25.05.35.14l3.22 3.2c.09.09.14.22.14.35l.01 4.54c0 .13-.06.26-.15.35l-3.21 3.22c-.1.09-.23.14-.36.14l-4.55.01c-.14 0-.26-.06-.36-.15l-3.23-3.21c-.1-.1-.15-.23-.15-.36l-.02-4.55c-.01-.14.05-.26.14-.36l3.2-3.23c.09-.1.22-.15.35-.15l4.54-.02Zm-4.34 1.01l-2.92 2.93 .01 4.13 2.93 2.91 4.13-.02 2.91-2.94 -.02-4.14 -2.94-2.92 -4.14.01Z"/></g></svg>