<svg viewBox="0 0 24 24" xmlns="http://www.w3.org/2000/svg"><g fill-rule="evenodd"><path d="M21.25 5.56c.15.08.24.25.24.43v11.42c0 .18-.11.36-.28.44l-9 4.57c-.16.07-.34.07-.49-.02 -.15-.1-.24-.26-.24-.43v-11c0-.19.09-.35.25-.44l9-5c.15-.09.34-.09.49 0Zm-8.76 5.72v9.89l8-4.07V6.82l-8 4.44Z"/><path d="M11.79 1.54c.12-.06.27-.06.4 0l9 4c.17.07.28.24.29.43 0 .18-.1.36-.26.45l-9 5c-.16.08-.34.08-.49 0L2.72 6.41c-.17-.1-.27-.27-.26-.46 0-.19.12-.36.29-.44l8.99-4Zm-7.68 4.5l7.88 4.37 7.88-4.38 -7.89-3.51 -7.89 3.5Z"/><path d="M2.74 5.56c-.16.08-.25.25-.25.43v11.42c0 .18.1.36.27.44l9 4.57c.15.07.33.07.48-.02 .14-.1.23-.26.23-.43v-11c0-.19-.1-.35-.26-.44l-9-5c-.16-.09-.35-.09-.5 0Zm8.75 5.72v9.89l-8-4.07V6.82l8 4.44Z"/></g></svg>