<svg viewBox="0 0 24 24" xmlns="http://www.w3.org/2000/svg"><g fill-rule="evenodd"><path d="M17.5 2.5c-2.21 0-4 1.79-4 4 0 2.2 1.79 4 4 4 2.2 0 4-1.8 4-4 0-2.21-1.8-4-4-4Zm-5 4c0-2.77 2.23-5 5-5 2.76 0 5 2.23 5 5 0 2.76-2.24 5-5 5 -2.77 0-5-2.24-5-5Z"/><path d="M12 12.5c.18 0 .36.1.44.27l4.5 9c.07.15.06.33-.03.48 -.1.14-.26.23-.43.23h-9c-.18 0-.34-.09-.43-.24 -.1-.15-.1-.34-.03-.49l4.5-9c.08-.17.25-.28.44-.28Zm0 1.61L8.3 21.49h7.38l-3.7-7.382Z"/><path d="M1.5 2c0-.28.22-.5.5-.5h8c.27 0 .5.22.5.5v8c0 .27-.23.5-.5.5H2c-.28 0-.5-.23-.5-.5V2Zm1 .5v7h7v-7h-7Z"/></g></svg>