<svg viewBox="0 0 24 24" xmlns="http://www.w3.org/2000/svg"><g fill-rule="evenodd"><path d="M11.5 12c0-.28.22-.5.5-.5h10c.27 0 .5.22.5.5v10c0 .27-.23.5-.5.5H12c-.28 0-.5-.23-.5-.5V12Zm1 .5v9h9v-9h-9Z"/><path d="M4 4.5c0-.28.22-.5.5-.5h5c.27 0 .5.22.5.5v5c0 .27-.23.5-.5.5h-5c-.28 0-.5-.23-.5-.5v-5ZM5 5v4h4V5H5Z"/><path d="M14 15.5c0-.83.67-1.5 1.5-1.5h3c.82 0 1.5.67 1.5 1.5v3c0 .82-.68 1.5-1.5 1.5h-3c-.83 0-1.5-.68-1.5-1.5v-3Zm1.5-.5c-.28 0-.5.22-.5.5v3c0 .27.22.5.5.5h3c.27 0 .5-.23.5-.5v-3c0-.28-.23-.5-.5-.5h-3Z"/><path d="M11.5 2c0-.28.22-.5.5-.5h10c.27 0 .5.22.5.5v10c0 .27-.23.5-.5.5H12c-.28 0-.5-.23-.5-.5V2Zm1 .5v9h9v-9h-9Z"/><path d="M1.5 2c0-.28.22-.5.5-.5h10c.27 0 .5.22.5.5v10c0 .27-.23.5-.5.5H2c-.28 0-.5-.23-.5-.5V2Zm1 .5v9h9v-9h-9Z"/><path d="M1.5 12c0-.28.22-.5.5-.5h10c.27 0 .5.22.5.5v10c0 .27-.23.5-.5.5H2c-.28 0-.5-.23-.5-.5V12Zm1 .5v9h9v-9h-9Z"/><path d="M17 5c-1.11 0-2 .89-2 2 0 1.1.89 2 2 2 1.1 0 2-.9 2-2 0-1.11-.9-2-2-2Zm-3 2c0-1.66 1.34-3 3-3 1.65 0 3 1.34 3 3 0 1.65-1.35 3-3 3 -1.66 0-3-1.35-3-3Z"/><path d="M7 14c.18 0 .36.1.44.27l2.5 5c.07.15.06.33-.03.48 -.1.14-.26.23-.43.23h-5c-.18 0-.34-.09-.43-.24 -.1-.15-.1-.34-.03-.49l2.5-5c.08-.17.25-.28.44-.28Zm0 1.61l-1.7 3.38h3.38l-1.7-3.39Z"/></g></svg>