<svg viewBox="0 0 24 24" xmlns="http://www.w3.org/2000/svg"><path fill-rule="evenodd" d="M7.05 2.3c.13 0 .25.05.35.14l4.59 4.59 4.59-4.6c.09-.1.22-.15.35-.15 .13 0 .25.05.35.14l4.24 4.24c.19.19.19.51 0 .7l-4.6 4.59 4.59 4.59c.19.19.19.51 0 .7l-4.25 4.24c-.2.19-.52.19-.71 0l-4.6-4.6 -4.6 4.59c-.2.19-.52.19-.71 0l-4.25-4.25c-.1-.1-.15-.23-.15-.36 0-.14.05-.26.14-.36l4.59-4.6 -4.6-4.6c-.1-.1-.15-.23-.15-.36 0-.14.05-.26.14-.36L6.6 2.33c.09-.1.22-.15.35-.15Zm9.89 1.2l-4.6 4.59c-.1.09-.23.14-.36.14 -.14 0-.26-.06-.36-.15l-4.6-4.6 -3.54 3.53 4.59 4.59c.09.09.14.22.14.35 0 .13-.06.25-.15.35l-4.6 4.59 3.53 3.53 4.59-4.6c.19-.2.51-.2.7 0l4.59 4.59 3.53-3.54 -4.6-4.6c-.2-.2-.2-.52 0-.71l4.59-4.6 -3.54-3.54Z"/></svg>