<svg viewBox="0 0 24 24" xmlns="http://www.w3.org/2000/svg"><path fill-rule="evenodd" d="M5.3 1.68c.09-.12.23-.19.38-.19h12.625c.15 0 .29.06.38.18 .09.11.13.26.1.41 -.04.16-.06.34-.06.52 0 1.44 1.17 2.625 2.625 2.625 .18 0 .35-.02.52-.06 .14-.03.29 0 .41.1 .11.09.18.23.18.38V18.27c0 .15-.07.29-.19.38 -.12.09-.27.13-.42.1 -.17-.04-.35-.06-.53-.06 -1.45 0-2.625 1.17-2.625 2.625 0 .18.01.35.05.52 .02.14-.01.29-.11.41 -.1.11-.24.18-.39.18H5.62c-.16 0-.3-.07-.39-.19 -.1-.12-.14-.27-.11-.42 .03-.17.05-.35.05-.53 0-1.45-1.18-2.625-2.625-2.625 -.19 0-.36.01-.53.05 -.15.02-.3-.01-.42-.11s-.19-.24-.19-.39V5.58c0-.16.06-.3.18-.39 .11-.1.26-.14.41-.11 .16.03.34.05.52.05 1.44 0 2.625-1.18 2.625-2.625 0-.19-.02-.36-.06-.53 -.03-.15 0-.3.1-.42Zm.94.81c0 .04 0 .08 0 .125 0 2-1.63 3.625-3.625 3.625 -.05 0-.09-.01-.125-.01v11.5c.04-.01.08-.01.125-.01 2 0 3.625 1.62 3.625 3.625 0 .04-.01.08-.01.125h11.5c-.01-.05-.01-.09-.01-.125 0-2.01 1.62-3.625 3.625-3.625 .04 0 .08 0 .125 0V6.21c-.05 0-.09 0-.125 0 -2.01 0-3.625-1.63-3.625-3.625 0-.05 0-.09 0-.125H6.21Z"/></svg>