<svg viewBox="0 0 24 24" xmlns="http://www.w3.org/2000/svg"><g fill-rule="evenodd"><path d="M17.5 1.5c.18 0 .36.1.44.27l4.5 9c.07.15.06.33-.03.48 -.1.14-.26.23-.43.23h-9c-.18 0-.34-.09-.43-.24 -.1-.15-.1-.34-.03-.49l4.5-9.01c.08-.17.25-.28.44-.28Zm0 1.61l-3.7 7.38h7.38l-3.7-7.39Z"/><path d="M6.23 10.57c.16-.1.36-.1.52 0l4.49 2.75c.14.09.23.25.23.42v5.5c0 .17-.1.33-.24.42l-4.5 2.75c-.17.09-.37.09-.53 0l-4.5-2.75c-.15-.1-.24-.26-.24-.43v-5.5c0-.18.09-.34.23-.43l4.5-2.75Zm-3.74 3.45v4.93l4 2.44 4-2.45V14l-4-2.45 -4 2.44Z"/></g></svg>