<svg viewBox="0 0 24 24" xmlns="http://www.w3.org/2000/svg"><g fill-rule="evenodd"><path d="M7 3c0-1.11.89-2 2-2h12c1.1 0 2 .89 2 2v6c0 1.1-.9 2-2 2H9c-1.11 0-2-.9-2-2V3Zm14 0H9v6h12V3Z"/><path d="M1.47 9.14c.29-.19.66-.2.97-.05l4 2c.33.16.55.51.55.89 0 .37-.22.72-.56.89l-4 2c-.31.15-.68.13-.98-.05 -.3-.19-.48-.51-.48-.86v-4c0-.35.17-.67.47-.86Zm1.52 2.46v.76l.76-.39 -.77-.39Z"/><path d="M7 15c0-1.11.89-2 2-2h12c1.1 0 2 .89 2 2v6c0 1.1-.9 2-2 2H9c-1.11 0-2-.9-2-2v-6Zm14 0H9v6h12v-6Z"/></g></svg>