<svg viewBox="0 0 24 24" xmlns="http://www.w3.org/2000/svg"><g fill-rule="evenodd"><path d="M5 10c0-1.66 1.34-3 3-3h8.44c1.65 0 3 1.34 3 3v4c0 1.65-1.35 3-3 3H7.99c-1.66 0-3-1.35-3-3v-4Zm3-1c-.56 0-1 .44-1 1v4c0 .55.44 1 1 1h8.44c.55 0 1-.45 1-1v-4c0-.56-.45-1-1-1H7.99Z"/><path d="M1 6.5c0-1.66 1.34-3 3-3h3v2H4c-.56 0-1 .44-1 1v3H1v-3Zm19-1h-3v-2h3c1.65 0 3 1.34 3 3v3h-2v-3c0-.56-.45-1-1-1Zm-17 9v3c0 .55.44 1 1 1h3v2H4c-1.66 0-3-1.35-3-3v-3h2Zm18 3v-3h2v3c0 1.65-1.35 3-3 3h-3v-2h3c.55 0 1-.45 1-1Z"/></g></svg>