<svg viewBox="0 0 24 24" xmlns="http://www.w3.org/2000/svg"><g fill-rule="evenodd"><path d="M11 3.75C9.2 3.75 7.75 5.2 7.75 7c0 1.79 1.45 3.25 3.25 3.25 1.79 0 3.25-1.46 3.25-3.25 0-1.8-1.46-3.25-3.25-3.25ZM6.25 7c0-2.63 2.12-4.75 4.75-4.75 2.62 0 4.75 2.12 4.75 4.75 0 2.62-2.13 4.75-4.75 4.75 -2.63 0-4.75-2.13-4.75-4.75Z"/><path d="M11 13.75c-.97 0-1.89.18-2.72.52 -.39.15-.83-.03-.98-.42 -.16-.39.02-.83.41-.98 1.01-.42 2.12-.64 3.28-.64 4.83 0 8.75 3.91 8.75 8.75 0 .41-.34.75-.75.75h-16c-.42 0-.75-.34-.75-.75 0-1.6.42-3.09 1.17-4.38 .2-.36.66-.49 1.02-.28 .35.2.48.66.27 1.02 -.5.86-.83 1.83-.94 2.87h14.42c-.38-3.66-3.47-6.5-7.22-6.5Z"/><path d="M15.25 11c0-.42.33-.75.75-.75h5c.41 0 .75.33.75.75 0 .41-.34.75-.75.75h-5c-.42 0-.75-.34-.75-.75Z"/><path d="M18.5 14.25c-.42 0-.75-.34-.75-.75v-5c0-.42.33-.75.75-.75 .41 0 .75.33.75.75v5c0 .41-.34.75-.75.75Z"/></g></svg>