<svg viewBox="0 0 24 24" xmlns="http://www.w3.org/2000/svg"><g fill-rule="evenodd"><path d="M12 13.36c-1.12 0-2.03.9-2.03 2.02 0 1.11.9 2.02 2.02 2.02 .25 0 .5-.05.72-.14 .38-.15.82.04.96.42s-.05.82-.43.96c-.4.15-.83.23-1.27.23 -1.95 0-3.53-1.58-3.53-3.53 0-1.95 1.57-3.53 3.52-3.53 1.94 0 3.52 1.57 3.52 3.52 0 .41-.34.75-.75.75 -.42 0-.75-.34-.75-.75 0-1.12-.91-2.03-2.03-2.03Z"/><path d="M12 20.58c-1.8 0-3.4.54-4.56 1.4 -.34.24-.81.17-1.05-.16 -.25-.34-.18-.81.15-1.05 1.43-1.07 3.35-1.7 5.44-1.7 2.08 0 4 .63 5.44 1.69 .33.24.4.71.15 1.04 -.25.33-.72.4-1.05.15 -1.16-.86-2.77-1.4-4.56-1.4Z"/><path d="M17.03 5.53c.29-.3.29-.77 0-1.07l-2-2c-.3-.3-.77-.3-1.07 0 -.3.29-.3.76 0 1.06l.71.71h-3.19c-.42 0-.75.33-.75.75 0 .41.33.75.75.75h3.18l-.72.71c-.3.29-.3.76 0 1.06 .29.29.76.29 1.06 0l2-2Z"/><path d="M6.46 8.03c-.3-.3-.3-.77 0-1.07l2-2c.29-.3.76-.3 1.06 0 .29.29.29.76 0 1.06l-.72.71h3.18c.41 0 .75.33.75.75 0 .41-.34.75-.75.75H8.79l.71.71c.29.29.29.76 0 1.06 -.3.29-.77.29-1.07 0l-2-2Z"/></g></svg>