<svg viewBox="0 0 24 24" xmlns="http://www.w3.org/2000/svg"><g fill-rule="evenodd"><path d="M11 5.25c-.62 0-1.21.1-1.76.29 -.4.13-.82-.07-.96-.46 -.14-.4.06-.82.45-.96 .7-.25 1.46-.39 2.24-.39 2.77 0 5.15 1.67 6.19 4.06 .26-.05.53-.07.8-.07 2.62 0 4.75 2.12 4.75 4.75 0 1.24-.37 2.42-1.1 3.3 -.75.89-1.83 1.44-3.16 1.44H16.7c-.42 0-.75-.34-.75-.75 0-.42.33-.75.75-.75h1.75c.88 0 1.54-.35 2-.9 .46-.57.74-1.39.74-2.36 0-1.8-1.46-3.25-3.25-3.25 -.37 0-.72.05-1.04.16 -.2.06-.4.04-.58-.05 -.18-.1-.32-.26-.38-.45 -.67-2.14-2.66-3.69-5.02-3.69ZM5.85 7.31c.37.17.54.61.36.99 -.31.66-.48 1.4-.48 2.18 0 .41-.34.75-.75.75 -1.25 0-2.25 1-2.25 2.25 0 1.24 1 2.25 2.25 2.25h2.25c.41 0 .75.33.75.75 0 .41-.34.75-.75.75H4.98c-2.08 0-3.75-1.68-3.75-3.75 0-1.83 1.3-3.35 3.03-3.69 .07-.76.27-1.48.57-2.14 .17-.38.61-.55.99-.37Z"/><path d="M11.99 13.75c-.82 0-1.47.657-1.47 1.46 0 .81.657 1.46 1.46 1.46 .81 0 1.46-.657 1.46-1.47 0-.82-.657-1.47-1.47-1.47Zm-2.97 1.46c0-1.64 1.32-2.97 2.96-2.97 1.63 0 2.96 1.32 2.96 2.96 0 1.63-1.33 2.96-2.97 2.96 -1.64 0-2.97-1.33-2.97-2.97Z"/><path d="M11.99 19.51c-1.41 0-2.65.42-3.55 1.08 -.34.24-.81.17-1.05-.16 -.25-.34-.18-.81.15-1.05 1.17-.87 2.74-1.39 4.43-1.39 1.69 0 3.26.51 4.43 1.38 .33.24.4.71.15 1.04 -.25.33-.72.4-1.05.15 -.9-.67-2.15-1.09-3.55-1.09Z"/></g></svg>