<svg viewBox="0 0 24 24" xmlns="http://www.w3.org/2000/svg"><g fill-rule="evenodd"><path d="M12 3.5c-2.08 0-3.75 1.67-3.75 3.75C8.25 9.32 9.92 11 12 11c2.07 0 3.75-1.68 3.75-3.75 0-2.08-1.68-3.75-3.75-3.75ZM6.75 7.25C6.75 4.35 9.1 2 12 2c2.89 0 5.25 2.35 5.25 5.25 0 2.89-2.36 5.25-5.25 5.25 -2.9 0-5.25-2.36-5.25-5.25Z"/><path d="M3.25 17.75c0-2.35 1.9-4.25 4.25-4.25h9c2.34 0 4.25 1.9 4.25 4.25 0 1.03-.38 1.99-1 2.73 -.27.31-.74.35-1.06.09 -.32-.27-.36-.74-.1-1.06 .4-.48.64-1.1.64-1.77 0-1.52-1.24-2.75-2.75-2.75h-9c-1.52 0-2.75 1.23-2.75 2.75 0 1.51 1.23 2.75 2.75 2.75h7.5c.41 0 .75.33.75.75 0 .41-.34.75-.75.75h-7.5c-2.35 0-4.25-1.91-4.25-4.25Z"/></g></svg>