<svg viewBox="0 0 24 24" xmlns="http://www.w3.org/2000/svg"><g fill-rule="evenodd"><path d="M12 3.5c-1.8 0-3.25 1.45-3.25 3.25C8.75 8.54 10.2 10 12 10c1.79 0 3.25-1.46 3.25-3.25 0-1.8-1.46-3.25-3.25-3.25ZM7.25 6.75C7.25 4.12 9.37 2 12 2c2.62 0 4.75 2.12 4.75 4.75 0 2.62-2.13 4.75-4.75 4.75 -2.63 0-4.75-2.13-4.75-4.75Z"/><path d="M3.79 20.5c.42-3.59 3.86-6.5 8.2-6.5 1.33 0 2.58.27 3.69.76 .37.16.82-.01.98-.39 .16-.38-.01-.83-.39-.99 -1.31-.58-2.77-.9-4.31-.9 -5.3 0-9.75 3.83-9.75 8.75 0 .41.33.75.75.75h18c.41 0 .75-.34.75-.75 0-1.47-.4-2.84-1.11-4.05 -.21-.36-.67-.48-1.03-.28 -.36.2-.48.66-.28 1.02 .45.77.74 1.63.85 2.54H3.72Z"/></g></svg>