<svg viewBox="0 0 24 24" xmlns="http://www.w3.org/2000/svg"><g fill-rule="evenodd"><path d="M12 3.75c-2.35 0-4.25 1.9-4.25 4.25 0 2.34 1.9 4.25 4.25 4.25 2.34 0 4.25-1.91 4.25-4.25 0-2.35-1.91-4.25-4.25-4.25ZM6.25 8c0-3.18 2.57-5.75 5.75-5.75 3.17 0 5.75 2.57 5.75 5.75 0 3.17-2.58 5.75-5.75 5.75 -3.18 0-5.75-2.58-5.75-5.75Z"/><path d="M6.55 17.59c-1.55.53-2.67 1.26-3.28 2.03 -.08.09-.08.15-.08.17 0 .02 0 .07.06.14 .11.14.38.3.73.3h16c.34 0 .61-.16.73-.31 .05-.07.06-.12.06-.15 0-.02-.01-.08-.08-.18 -.43-.55-1.12-1.08-2.05-1.53 -.38-.19-.53-.64-.35-1.01 .18-.38.63-.53 1-.35 1.06.51 1.95 1.17 2.56 1.94 .26.33.4.72.4 1.13 -.01.39-.16.75-.39 1.03 -.44.55-1.16.88-1.92.88H3.93c-.76 0-1.49-.33-1.92-.89 -.23-.29-.38-.64-.39-1.04 -.01-.41.13-.8.4-1.14 .85-1.09 2.27-1.94 3.95-2.53 1.7-.59 3.74-.93 5.93-.93 1.08 0 2.12.08 3.11.23 .4.06.68.44.62.85 -.07.4-.45.68-.86.62 -.91-.15-1.88-.22-2.89-.22 -2.04 0-3.92.31-5.45.84Z"/></g></svg>