<svg viewBox="0 0 24 24" xmlns="http://www.w3.org/2000/svg"><g fill-rule="evenodd"><path d="M17 12.75c-2.35 0-4.25 1.9-4.25 4.25 0 2.34 1.9 4.25 4.25 4.25 .6 0 1.18-.13 1.69-.36 .37-.17.82 0 .98.38 .16.37-.01.82-.39.98 -.71.3-1.49.47-2.31.47 -3.18 0-5.75-2.58-5.75-5.75 0-3.18 2.57-5.75 5.75-5.75 3.17 0 5.75 2.57 5.75 5.75 0 .39-.04.77-.12 1.14 -.09.4-.48.66-.89.58 -.41-.09-.67-.48-.59-.89 .05-.28.08-.56.08-.86 0-2.35-1.91-4.25-4.25-4.25Z"/><path d="M10 2.75c-2.08 0-3.75 1.67-3.75 3.75 0 2.07 1.67 3.75 3.75 3.75 2.07 0 3.75-1.68 3.75-3.75 0-2.08-1.68-3.75-3.75-3.75ZM4.75 6.5c0-2.9 2.35-5.25 5.25-5.25 2.89 0 5.25 2.35 5.25 5.25 0 2.89-2.36 5.25-5.25 5.25 -2.9 0-5.25-2.36-5.25-5.25Z"/><path d="M10 11.75c-4.01 0-7.25 3.24-7.25 7.25 0 .41-.34.75-.75.75 -.42 0-.75-.34-.75-.75 0-4.84 3.91-8.75 8.75-8.75 .41 0 .75.33.75.75 0 .41-.34.75-.75.75Z"/><path d="M18.3 15.49c-.1-.1-.26-.1-.36 0l-1.51 1.5c-.18.17-.3.39-.35.63l-.06.28 .28-.06c.23-.05.45-.17.63-.35l1.5-1.51c.09-.1.09-.26 0-.36l-.17-.17Zm-1.42-1.07c.68-.69 1.79-.69 2.47 0l.16.16c.68.68.68 1.79 0 2.47L18 18.55c-.39.38-.87.64-1.4.74l-1.4.28c-.25.05-.51-.03-.69-.21 -.18-.18-.26-.44-.21-.69l.28-1.4c.1-.53.36-1.02.74-1.391l1.5-1.51Z"/></g></svg>