<svg viewBox="0 0 24 24" xmlns="http://www.w3.org/2000/svg"><g fill-rule="evenodd"><path d="M14.25 16.5c0-.42.33-.75.75-.75h4c.41 0 .75.33.75.75V19c0 .41-.34.75-.75.75h-4c-.42 0-.75-.34-.75-.75v-2.5Zm1.5.75v1h2.5v-1h-2.5Z"/><path d="M14.75 16c0-1.25 1-2.25 2.25-2.25 1.24 0 2.25 1 2.25 2.25v.5c0 .41-.34.75-.75.75h-3c-.42 0-.75-.34-.75-.75V16Zm1.54-.25h1.41c-.11-.3-.39-.5-.71-.5 -.33 0-.61.2-.71.5Z"/><path d="M17 12.75c-2.35 0-4.25 1.9-4.25 4.25 0 2.34 1.9 4.25 4.25 4.25 .6 0 1.18-.13 1.69-.36 .37-.17.82 0 .98.38 .16.37-.01.82-.39.98 -.71.3-1.49.47-2.31.47 -3.18 0-5.75-2.58-5.75-5.75 0-3.18 2.57-5.75 5.75-5.75 3.17 0 5.75 2.57 5.75 5.75 0 .39-.04.77-.12 1.14 -.09.4-.48.66-.89.58 -.41-.09-.67-.48-.59-.89 .05-.28.08-.56.08-.86 0-2.35-1.91-4.25-4.25-4.25Z"/><path d="M10 2.75c-2.08 0-3.75 1.67-3.75 3.75 0 2.07 1.67 3.75 3.75 3.75 2.07 0 3.75-1.68 3.75-3.75 0-2.08-1.68-3.75-3.75-3.75ZM4.75 6.5c0-2.9 2.35-5.25 5.25-5.25 2.89 0 5.25 2.35 5.25 5.25 0 2.89-2.36 5.25-5.25 5.25 -2.9 0-5.25-2.36-5.25-5.25Z"/><path d="M10 11.75c-4.01 0-7.25 3.24-7.25 7.25 0 .41-.34.75-.75.75 -.42 0-.75-.34-.75-.75 0-4.84 3.91-8.75 8.75-8.75 .41 0 .75.33.75.75 0 .41-.34.75-.75.75Z"/></g></svg>