<svg viewBox="0 0 24 24" xmlns="http://www.w3.org/2000/svg"><g fill-rule="evenodd"><path d="M12 3c-1.8 0-3.25 1.45-3.25 3.25C8.75 8.04 10.2 9.5 12 9.5c1.79 0 3.25-1.46 3.25-3.25C15.25 4.45 13.79 3 12 3ZM7.25 6.25C7.25 3.62 9.37 1.5 12 1.5c2.62 0 4.75 2.12 4.75 4.75C16.75 8.87 14.62 11 12 11c-2.63 0-4.75-2.13-4.75-4.75Z"/><path d="M5.75 14.5c0-2.63 2.12-4.75 4.75-4.75h3c1.99 0 3.7 1.22 4.4 2.96 .15.38-.03.82-.42.97 -.39.15-.83-.03-.98-.42 -.49-1.2-1.66-2.04-3.02-2.04h-3c-1.8 0-3.25 1.45-3.25 3.25v6.25h9.5v-3.75c0-.42.33-.75.75-.75 .41 0 .75.33.75.75v4.5c0 .41-.34.75-.75.75h-11c-.42 0-.75-.34-.75-.75v-7Z"/></g></svg>