<svg viewBox="0 0 24 24" xmlns="http://www.w3.org/2000/svg"><g fill-rule="evenodd"><path d="M2.25 5c0-1.52 1.23-2.75 2.75-2.75h14c1.51 0 2.75 1.23 2.75 2.75v.75c0 .41-.34.75-.75.75 -.42 0-.75-.34-.75-.75V5c0-.7-.56-1.25-1.25-1.25H5c-.7 0-1.25.55-1.25 1.25v14c0 .69.55 1.25 1.25 1.25h14c.69 0 1.25-.56 1.25-1.25V9.75c0-.42.33-.75.75-.75 .41 0 .75.33.75.75V19c0 1.51-1.24 2.75-2.75 2.75H5c-1.52 0-2.75-1.24-2.75-2.75V5Z"/><path d="M12 7c-.97 0-1.75.78-1.75 1.75 0 .96.78 1.75 1.75 1.75 .96 0 1.75-.79 1.75-1.75C13.75 7.78 12.96 7 12 7ZM8.75 8.75c0-1.8 1.45-3.25 3.25-3.25 1.79 0 3.25 1.45 3.25 3.25 0 1.79-1.46 3.25-3.25 3.25 -1.8 0-3.25-1.46-3.25-3.25Z"/><path d="M12 13.56c-2.35 0-4.25 1.9-4.25 4.25 0 .41-.34.75-.75.75 -.42 0-.75-.34-.75-.75 0-3.18 2.57-5.75 5.75-5.75 3.17 0 5.75 2.57 5.75 5.75 0 .41-.34.75-.75.75 -.42 0-.75-.34-.75-.75 0-2.35-1.91-4.25-4.25-4.25Z"/></g></svg>