<svg viewBox="0 0 24 24" xmlns="http://www.w3.org/2000/svg"><g fill-rule="evenodd"><path d="M3 4.25c-.14 0-.25.11-.25.25v15c0 .13.11.25.25.25h1.5c.41 0 .75.33.75.75 0 .41-.34.75-.75.75H3c-.97 0-1.75-.79-1.75-1.75v-15c0-.97.78-1.75 1.75-1.75h4.58c.46 0 .9.18 1.23.51l1.41 1.41c.04.04.11.07.17.07h10.58c.96 0 1.75.78 1.75 1.75v13c0 .96-.79 1.75-1.75 1.75H8.47c-.42 0-.75-.34-.75-.75 0-.42.33-.75.75-.75h12.5c.13 0 .25-.12.25-.25v-13c0-.14-.12-.25-.25-.25H10.38c-.47 0-.91-.19-1.24-.52L7.72 4.3c-.05-.05-.12-.08-.18-.08H2.95Z"/><path d="M12.26 9.25c-.77 0-1.39.61-1.39 1.38 0 .76.61 1.38 1.38 1.38 .76 0 1.38-.62 1.38-1.39 0-.77-.62-1.39-1.39-1.39Zm-2.89 1.38c0-1.6 1.29-2.89 2.88-2.89 1.59 0 2.88 1.29 2.88 2.88 0 1.59-1.3 2.88-2.89 2.88 -1.6 0-2.89-1.3-2.89-2.89Z"/><path d="M9.58 15.66s0 0 .01 0c.09.04.23.08.4.08h4.53c.16 0 .3-.04.4-.09 0-.01 0-.01.01-.01 -.65-.33-1.6-.55-2.68-.55 -1.09 0-2.04.22-2.68.54Zm5.5.09s-.01-.01-.01-.01 0 0 0 0Zm-5.66 0c-.01-.01 0-.01 0-.01 -.01 0-.01 0-.01 0Zm-.59-1.41c.9-.47 2.11-.74 3.41-.74 1.29 0 2.51.26 3.41.73 .35.18.66.46.8.86 .14.4.05.81-.13 1.12 -.36.58-1.09.91-1.83.91H9.95c-.75 0-1.48-.33-1.83-.92 -.19-.32-.28-.72-.14-1.13 .13-.4.44-.68.8-.87Z"/></g></svg>