<svg viewBox="0 0 24 24" xmlns="http://www.w3.org/2000/svg"><g fill-rule="evenodd"><path d="M1.5 4c0-1.39 1.11-2.5 2.5-2.5h18c.27 0 .5.22.5.5v17c0 .27-.23.5-.5.5H2c-.28 0-.5-.23-.5-.5V4ZM4 2.5c-.83 0-1.5.67-1.5 1.5v14.5h19v-16H4Z"/><path d="M2.5 19v1c0 .82.67 1.5 1.5 1.5h18v1H4c-1.39 0-2.5-1.12-2.5-2.5v-1h1Z"/><path d="M19.5 22v-3h1v3h-1Z"/><path d="M12 4.5c-3.32 0-6 2.68-6 6 0 3.31 2.68 6 6 6 3.31 0 6-2.69 6-6 0-3.32-2.69-6-6-6Zm-7 6c0-3.87 3.13-7 7-7 3.86 0 7 3.13 7 7 0 3.86-3.14 7-7 7 -3.87 0-7-3.14-7-7Z"/><path d="M9.5 9.25c0-.97.78-1.75 1.75-1.75H14v1h-2.75c-.42 0-.75.33-.75.75 0 .41.33.75.75.75h1.5c.96 0 1.75.78 1.75 1.75 0 .96-.79 1.75-1.75 1.75H10v-1h2.75c.41 0 .75-.34.75-.75 0-.42-.34-.75-.75-.75h-1.5c-.97 0-1.75-.79-1.75-1.75Z"/><path d="M11.5 15v-2h1v2h-1Z"/><path d="M11.5 8V6h1v2h-1Z"/></g></svg>