<svg viewBox="0 0 24 24" xmlns="http://www.w3.org/2000/svg"><g fill-rule="evenodd"><path d="M1.5 4c0-1.39 1.11-2.5 2.5-2.5h18c.27 0 .5.22.5.5v17c0 .27-.23.5-.5.5H2c-.28 0-.5-.23-.5-.5V4ZM4 2.5c-.83 0-1.5.67-1.5 1.5v14.5h19v-16H4Z"/><path d="M2.5 19v1c0 .82.67 1.5 1.5 1.5h18v1H4c-1.39 0-2.5-1.12-2.5-2.5v-1h1Z"/><path d="M19.5 22v-3h1v3h-1Z"/><path d="M18 5.5H6v-1h12v1Z"/><path d="M12 6.5c.17 0 .34.09.43.25l1.01 1.75 1.95-.53c.17-.05.35 0 .48.12 .12.12.17.31.12.48l-.53 1.95 1.75 1.01c.15.08.25.25.25.43 0 .17-.1.34-.26.43l-1.76 1.01 .52 1.95c.04.17-.01.35-.13.48 -.13.12-.32.17-.49.12l-1.96-.53 -1.02 1.75c-.09.15-.26.25-.44.25s-.35-.1-.44-.26l-1.02-1.76 -1.96.52c-.18.04-.36-.01-.49-.13 -.13-.13-.18-.32-.13-.49l.52-1.96 -1.76-1.02c-.16-.09-.26-.26-.26-.44s.09-.35.25-.44l1.75-1.02 -.53-1.96c-.05-.18 0-.36.12-.49s.31-.18.48-.13l1.95.52 1.01-1.76c.08-.16.25-.26.43-.26ZM12 8l-.78 1.33c-.12.19-.35.29-.57.23l-1.5-.41 .4 1.49c.05.21-.04.44-.24.56l-1.34.77 1.33.77c.19.11.29.34.23.56l-.41 1.49 1.49-.41c.21-.06.44.03.56.23l.77 1.33 .77-1.34c.11-.2.34-.3.56-.24l1.49.4 -.41-1.5c-.06-.22.03-.45.23-.57l1.33-.78 -1.34-.78c-.2-.12-.3-.35-.24-.57l.4-1.5 -1.5.4c-.22.05-.45-.04-.57-.24l-.78-1.34Z"/></g></svg>