<svg viewBox="0 0 24 24" xmlns="http://www.w3.org/2000/svg"><g fill-rule="evenodd"><path d="M1.5 4c0-1.39 1.11-2.5 2.5-2.5h18c.27 0 .5.22.5.5v17c0 .27-.23.5-.5.5H2c-.28 0-.5-.23-.5-.5V4ZM4 2.5c-.83 0-1.5.67-1.5 1.5v14.5h19v-16H4Z"/><path d="M2.5 19v1c0 .82.67 1.5 1.5 1.5h18v1H4c-1.39 0-2.5-1.12-2.5-2.5v-1h1Z"/><path d="M19.5 22v-3h1v3h-1Z"/><path d="M9.5 13.5c0-.28.22-.5.5-.5h4c.27 0 .5.22.5.5v1c0 1.38-1.12 2.5-2.5 2.5 -1.39 0-2.5-1.12-2.5-2.5v-1Zm1 .5v.5c0 .82.67 1.5 1.5 1.5 .82 0 1.5-.68 1.5-1.5V14h-3Z"/><path d="M14.47 11.14c-.07.2-.26.35-.48.35h-4c-.28 0-.5-.23-.5-.5V7.12c0-1.2.84-2.22 2-2.46l1-.2c1.54-.31 2.99.87 2.99 2.45v.81c0 .04-.01.09-.03.14l-1 3.24Zm-.85-.65l.86-2.83v-.74c0-.95-.87-1.66-1.8-1.48l-1 .2c-.71.14-1.21.75-1.21 1.47v3.36h3.13Z"/></g></svg>