<svg viewBox="0 0 24 24" xmlns="http://www.w3.org/2000/svg"><g fill-rule="evenodd"><path d="M1.5 4c0-1.39 1.11-2.5 2.5-2.5h18c.27 0 .5.22.5.5v17c0 .27-.23.5-.5.5H2c-.28 0-.5-.23-.5-.5V4ZM4 2.5c-.83 0-1.5.67-1.5 1.5v14.5h19v-16H4Z"/><path d="M2.5 19v1c0 .82.67 1.5 1.5 1.5h18v1H4c-1.39 0-2.5-1.12-2.5-2.5v-1h1Z"/><path d="M19.5 22v-3h1v3h-1Z"/><path d="M12 5c-3.04 0-5.5 2.46-5.5 5.5 0 3.03 2.46 5.5 5.5 5.5 3.03 0 5.5-2.47 5.5-5.5C17.5 7.46 15.03 5 12 5Zm-6.5 5.5C5.5 6.91 8.41 4 12 4c3.58 0 6.5 2.91 6.5 6.5 0 3.58-2.92 6.5-6.5 6.5 -3.59 0-6.5-2.92-6.5-6.5Z"/><path d="M10.32 6.48c-.51 1-.83 2.42-.83 4.01 0 1.59.32 3.01.82 4.019 .51 1.03 1.13 1.48 1.67 1.48 .53 0 1.15-.45 1.67-1.49 .5-1.01.82-2.43.82-4.019 0-1.6-.33-3.02-.83-4.02 -.52-1.04-1.14-1.49-1.68-1.49s-1.16.44-1.68 1.48Zm-.9-.45c.56-1.14 1.44-2.04 2.56-2.04 1.11 0 1.99.89 2.56 2.03 .58 1.16.93 2.74.93 4.46 0 1.71-.35 3.29-.94 4.46 -.57 1.13-1.45 2.03-2.57 2.03 -1.12 0-2-.9-2.57-2.04 -.59-1.17-.94-2.75-.94-4.47 0-1.72.34-3.3.93-4.47Z"/><path d="M6 10h12v1H6v-1Z"/></g></svg>