<svg viewBox="0 0 24 24" xmlns="http://www.w3.org/2000/svg"><g fill-rule="evenodd"><path d="M1.5 4c0-1.39 1.11-2.5 2.5-2.5h18c.27 0 .5.22.5.5v17c0 .27-.23.5-.5.5H2c-.28 0-.5-.23-.5-.5V4ZM4 2.5c-.83 0-1.5.67-1.5 1.5v14.5h19v-16H4Z"/><path d="M2.5 19v1c0 .82.67 1.5 1.5 1.5h18v1H4c-1.39 0-2.5-1.12-2.5-2.5v-1h1Z"/><path d="M19.5 22v-3h1v3h-1Z"/><path d="M13.3 6.53c.18-.08.4-.04.54.1l3 3 -.71.7 -2.15-2.15v5.29h-1v-6.5c0-.21.12-.39.3-.47Z"/><path d="M10.69 13.96c-.19.07-.41.03-.55-.11l-3-3 .7-.71 2.14 2.14v-5.3h1v6.5c0 .2-.13.38-.31.46Z"/></g></svg>