<svg viewBox="0 0 24 24" xmlns="http://www.w3.org/2000/svg"><g fill-rule="evenodd"><path d="M1.5 4c0-1.39 1.11-2.5 2.5-2.5h18c.27 0 .5.22.5.5v17c0 .27-.23.5-.5.5H2c-.28 0-.5-.23-.5-.5V4ZM4 2.5c-.83 0-1.5.67-1.5 1.5v14.5h19v-16H4Z"/><path d="M2.5 19v1c0 .82.67 1.5 1.5 1.5h18v1H4c-1.39 0-2.5-1.12-2.5-2.5v-1h1Z"/><path d="M19.5 22v-3h1v3h-1Z"/><path d="M8.99 10.5c-.17 0-.33-.09-.42-.23l-.94-1.42 -1.64-.46c-.17-.05-.29-.17-.35-.33s-.03-.34.08-.47l1.05-1.33 -.08-1.7c-.01-.17.07-.33.2-.43 .13-.1.31-.13.46-.07l1.58.59 1.58-.6c.15-.06.33-.04.46.06 .13.09.21.25.2.42l-.08 1.69 1.05 1.32c.1.13.13.3.08.46 -.06.15-.18.28-.35.32l-1.64.45 -.94 1.41c-.1.13-.25.22-.42.22Zm0-1.41l.62-.95c.06-.11.16-.18.28-.21l1.08-.31 -.71-.89c-.08-.1-.12-.22-.11-.34l.04-1.13 -1.06.39c-.12.04-.24.04-.35 0l-1.06-.4 .04 1.12c0 .12-.04.23-.11.33l-.71.88 1.08.3c.11.03.21.1.28.2l.62.94Z"/><path d="M16.63 16.34l-7-7.51 .73-.69 7 7.49 -.74.68Z"/></g></svg>