<svg viewBox="0 0 24 24" xmlns="http://www.w3.org/2000/svg"><g fill-rule="evenodd"><path d="M1.5 4c0-1.39 1.11-2.5 2.5-2.5h18c.27 0 .5.22.5.5v17c0 .27-.23.5-.5.5H2c-.28 0-.5-.23-.5-.5V4ZM4 2.5c-.83 0-1.5.67-1.5 1.5v14.5h19v-16H4Z"/><path d="M2.5 19v1c0 .82.67 1.5 1.5 1.5h18v1H4c-1.39 0-2.5-1.12-2.5-2.5v-1h1Z"/><path d="M19.5 22v-3h1v3h-1Z"/><path d="M6 10c0-.28.22-.5.5-.5h11c.27 0 .5.22.5.5v3c0 .27-.23.5-.5.5h-11c-.28 0-.5-.23-.5-.5v-3Zm1 .5v2h10v-2H7Z"/><path d="M7.6 12.69c.09-.13.24-.2.39-.2h8c.15 0 .3.07.39.19 .09.12.12.28.08.43l-1 3.5c-.07.21-.26.36-.49.36h-6c-.23 0-.42-.15-.49-.37l-1-3.5c-.05-.16-.02-.32.08-.44Zm1.06.8l.71 2.5h5.24l.71-2.5H8.64Z"/><path d="M9 6h1c1.38 0 2.5 1.11 2.5 2.5V10h-1V8.5c0-.83-.68-1.5-1.5-1.5H9V6Z"/><path d="M15 4h-1c-1.39 0-2.5 1.11-2.5 2.5V10h1V6.5c0-.83.67-1.5 1.5-1.5h1V4Z"/></g></svg>