<svg viewBox="0 0 24 24" xmlns="http://www.w3.org/2000/svg"><g fill-rule="evenodd"><path d="M12 2.5C8.41 2.5 5.5 5.41 5.5 9c0 3.58 2.91 6.5 6.5 6.5 3.58 0 6.5-2.92 6.5-6.5 0-3.59-2.92-6.5-6.5-6.5ZM4.5 9c0-4.15 3.35-7.5 7.5-7.5 4.14 0 7.5 3.35 7.5 7.5 0 4.14-3.36 7.5-7.5 7.5 -4.15 0-7.5-3.36-7.5-7.5Z"/><path d="M1.5 9c0-.28.22-.5.5-.5h3v1H2.51c.26 5.01 4.4 9 9.48 9 5.07 0 9.22-3.99 9.48-9h-2.49v-1h3c.27 0 .5.22.5.5 0 5.79-4.71 10.5-10.5 10.5 -5.8 0-10.5-4.71-10.5-10.5Z"/><path d="M8.84 11.6h-3.5v-1h3.5c.85 0 1.54.69 1.54 1.55 0 .3.24.55.55.55h.7c1.24 0 2.25 1 2.25 2.25v.7h-1v-.7c0-.7-.56-1.25-1.25-1.25h-.7c-.86 0-1.55-.7-1.55-1.55 0-.31-.25-.55-.55-.55Z"/><path d="M10.52 4.23l1.76-2.53 .81.57 -1.77 2.52c-.32.45-.359 1.03-.12 1.53l.45.91c.27.55.96.74 1.48.41 .98-.62 2.28-.29 2.85.71l.1.17c.22.38.63.62 1.07.62h1.78v1h-1.79c-.81 0-1.55-.44-1.95-1.13l-.11-.18c-.3-.52-.96-.69-1.46-.37 -1.03.63-2.38.25-2.91-.82l-.46-.92c-.42-.83-.34-1.81.18-2.56Z"/><path d="M18 22.5H6v-1h12v1Z"/><path d="M12.5 19v3h-1v-3h1Z"/></g></svg>