<svg viewBox="0 0 24 24" xmlns="http://www.w3.org/2000/svg"><g fill-rule="evenodd"><path d="M1.5 4c0-1.39 1.11-2.5 2.5-2.5h18c.27 0 .5.22.5.5v17c0 .27-.23.5-.5.5H2c-.28 0-.5-.23-.5-.5V4ZM4 2.5c-.83 0-1.5.67-1.5 1.5v14.5h19v-16H4Z"/><path d="M2.5 19v1c0 .82.67 1.5 1.5 1.5h18v1H4c-1.39 0-2.5-1.12-2.5-2.5v-1h1Z"/><path d="M19.5 22v-3h1v3h-1Z"/><path d="M12 7c-.83 0-1.5.67-1.5 1.5 0 .82.67 1.5 1.5 1.5 .82 0 1.5-.68 1.5-1.5 0-.83-.68-1.5-1.5-1.5ZM9.5 8.5C9.5 7.11 10.61 6 12 6c1.38 0 2.5 1.11 2.5 2.5 0 1.38-1.12 2.5-2.5 2.5 -1.39 0-2.5-1.12-2.5-2.5Z"/><path d="M8.53 15.5h6.92c-.25-1.7-1.71-3-3.47-3 -1.77 0-3.23 1.3-3.47 3Zm-1.04.5c0-2.49 2.01-4.5 4.5-4.5 2.48 0 4.5 2.01 4.5 4.5 0 .27-.23.5-.5.5h-8c-.28 0-.5-.23-.5-.5Z"/><path d="M6 4.5c0-.28.22-.5.5-.5h11c.27 0 .5.22.5.5v12c0 .27-.23.5-.5.5h-11c-.28 0-.5-.23-.5-.5v-12ZM7 5v11h10V5H7Z"/></g></svg>