<svg viewBox="0 0 24 24" xmlns="http://www.w3.org/2000/svg"><g fill-rule="evenodd"><path d="M1.5 4c0-1.39 1.11-2.5 2.5-2.5h18c.27 0 .5.22.5.5v17c0 .27-.23.5-.5.5H2c-.28 0-.5-.23-.5-.5V4ZM4 2.5c-.83 0-1.5.67-1.5 1.5v14.5h19v-16H4Z"/><path d="M2.5 19v1c0 .82.67 1.5 1.5 1.5h18v1H4c-1.39 0-2.5-1.12-2.5-2.5v-1h1Z"/><path d="M19.5 22v-3h1v3h-1Z"/><path d="M5 5c0-.28.22-.5.5-.5H8c.27 0 .5.22.5.5v1.5H10V5c0-.28.22-.5.5-.5h3c.27 0 .5.22.5.5v1.5h1.5V5c0-.28.22-.5.5-.5h2.5c.27 0 .5.22.5.5v5c0 .27-.23.5-.5.5h-13c-.28 0-.5-.23-.5-.5V5Zm1 .5v4h12v-4h-1.5V7c0 .27-.23.5-.5.5h-2.5c-.28 0-.5-.23-.5-.5V5.5h-2V7c0 .27-.23.5-.5.5H8c-.28 0-.5-.23-.5-.5V5.5H6Z"/><path d="M6.5 10c0-.28.22-.5.5-.5h10c.27 0 .5.22.5.5v6c0 .27-.23.5-.5.5H7c-.28 0-.5-.23-.5-.5v-6Zm1 .5v5h9v-5h-9Z"/></g></svg>