<svg viewBox="0 0 24 24" xmlns="http://www.w3.org/2000/svg"><g fill-rule="evenodd"><path d="M1.5 4c0-1.39 1.11-2.5 2.5-2.5h18c.27 0 .5.22.5.5v17c0 .27-.23.5-.5.5H2c-.28 0-.5-.23-.5-.5V4ZM4 2.5c-.83 0-1.5.67-1.5 1.5v14.5h19v-16H4Z"/><path d="M2.5 19v1c0 .82.67 1.5 1.5 1.5h18v1H4c-1.39 0-2.5-1.12-2.5-2.5v-1h1Z"/><path d="M19.5 22v-3h1v3h-1Z"/><path d="M4 10c0-.28.22-.5.5-.5h5c.27 0 .5.22.5.5v1c0 1.38-1.12 2.5-2.5 2.5h-1C5.11 13.5 4 12.38 4 11v-1Zm1 .5v.5c0 .82.67 1.5 1.5 1.5h1c.82 0 1.5-.68 1.5-1.5v-.5H5Z"/><path d="M11.5 16V6h1v10h-1Z"/><path d="M16 16.5H8v-1h8v1Z"/><path d="M7 5.5c.17 0 .33.08.42.23l2.5 4 -.85.53 -2.08-3.33 -2.08 3.32 -.85-.53 2.5-4c.09-.15.25-.24.42-.24Z"/><path d="M17 5.5c.17 0 .33.08.42.23l2.5 4 -.85.53 -2.08-3.33 -2.08 3.32 -.85-.53 2.5-4c.09-.15.25-.24.42-.24Z"/><path d="M19 6.5H5v-1h14v1Z"/><path d="M14 10c0-.28.22-.5.5-.5h5c.27 0 .5.22.5.5v1c0 1.38-1.12 2.5-2.5 2.5h-1c-1.39 0-2.5-1.12-2.5-2.5v-1Zm1 .5v.5c0 .82.67 1.5 1.5 1.5h1c.82 0 1.5-.68 1.5-1.5v-.5h-4Z"/></g></svg>