<svg viewBox="0 0 24 24" xmlns="http://www.w3.org/2000/svg"><g fill-rule="evenodd"><path d="M15.5 19.5c-.56 0-1 .44-1 1 0 .55.44 1 1 1 .55 0 1-.45 1-1 0-.56-.45-1-1-1Zm-2 1c0-1.11.89-2 2-2 1.1 0 2 .89 2 2 0 1.1-.9 2-2 2 -1.11 0-2-.9-2-2Z"/><path d="M7.5 19.5c-.56 0-1 .44-1 1 0 .55.44 1 1 1 .55 0 1-.45 1-1 0-.56-.45-1-1-1Zm-2 1c0-1.11.89-2 2-2 1.1 0 2 .89 2 2 0 1.1-.9 2-2 2 -1.11 0-2-.9-2-2Z"/><path d="M16 2v17h-1V2h1Z"/><path d="M8 2v17H7V2h1Z"/><path d="M7.5 3.5h8v1h-8v-1Z"/><path d="M7.5 6.5h8v1h-8v-1Z"/><path d="M7.5 9.5h8v1h-8v-1Z"/><path d="M7.5 12.5h8v1h-8v-1Z"/><path d="M7.5 15.5h8v1h-8v-1Z"/></g></svg>