<svg viewBox="0 0 24 24" xmlns="http://www.w3.org/2000/svg"><g fill-rule="evenodd"><path d="M1.5 2c0-.28.22-.5.5-.5h20c.27 0 .5.22.5.5v20c0 .27-.23.5-.5.5H2c-.28 0-.5-.23-.5-.5V2Zm1 .5v19h19v-19h-19Z"/><path d="M4 13.5c0-.28.22-.5.5-.5h6c.27 0 .5.22.5.5v6c0 .27-.23.5-.5.5h-6c-.28 0-.5-.23-.5-.5v-6Zm1 .5v5h5v-5H5Z"/><path d="M4 4.5c0-.28.22-.5.5-.5h6c.27 0 .5.22.5.5v6c0 .27-.23.5-.5.5h-6c-.28 0-.5-.23-.5-.5v-6ZM5 5v5h5V5H5Z"/><path d="M13 13.5c0-.28.22-.5.5-.5h6c.27 0 .5.22.5.5v6c0 .27-.23.5-.5.5h-6c-.28 0-.5-.23-.5-.5v-6Zm1 .5v5h5v-5h-5Z"/><path d="M13 4.5c0-.28.22-.5.5-.5h6c.27 0 .5.22.5.5v6c0 .27-.23.5-.5.5h-6c-.28 0-.5-.23-.5-.5v-6Zm1 .5v5h5V5h-5Z"/><path d="M6.5 7.5h-2v-1h2v1Z"/><path d="M6.5 16.5h-2v-1h2v1Z"/><path d="M15.5 7.5h-2v-1h2v1Z"/><path d="M15.5 16.5h-2v-1h2v1Z"/></g></svg>