<svg viewBox="0 0 24 24" xmlns="http://www.w3.org/2000/svg"><g fill-rule="evenodd"><path d="M1.5 4c0-1.39 1.11-2.5 2.5-2.5h18c.27 0 .5.22.5.5v17c0 .27-.23.5-.5.5H2c-.28 0-.5-.23-.5-.5V4ZM4 2.5c-.83 0-1.5.67-1.5 1.5v14.5h19v-16H4Z"/><path d="M2.5 19v1c0 .82.67 1.5 1.5 1.5h18v1H4c-1.39 0-2.5-1.12-2.5-2.5v-1h1Z"/><path d="M19.5 22v-3h1v3h-1Z"/><path d="M15.56 14.26l-2.83-2.83 .7-.71 2.82 2.82 -.71.7Z"/><path d="M16.26 11.43l-2.83 2.82 -.71-.71 2.82-2.83 .7.7Z"/><path d="M8.72 14.022l-2.38-2.38 -.71.7 3 3c.12.12.31.17.48.12 .17-.05.3-.19.35-.37l1.9-7.63h4.6v-1h-5c-.23 0-.43.15-.49.37l-1.79 7.14Z"/></g></svg>