<svg viewBox="0 0 24 24" xmlns="http://www.w3.org/2000/svg"><g fill-rule="evenodd"><path d="M12 9c-.83 0-1.5.67-1.5 1.5 0 .82.67 1.5 1.5 1.5 .82 0 1.5-.68 1.5-1.5 0-.83-.68-1.5-1.5-1.5Zm-2.5 1.5C9.5 9.11 10.61 8 12 8c1.38 0 2.5 1.11 2.5 2.5 0 1.38-1.12 2.5-2.5 2.5 -1.39 0-2.5-1.12-2.5-2.5Z"/><path d="M8.53 17.5h6.92c-.25-1.7-1.71-3-3.47-3 -1.77 0-3.23 1.3-3.47 3Zm-1.04.5c0-2.49 2.01-4.5 4.5-4.5 2.48 0 4.5 2.01 4.5 4.5 0 .27-.23.5-.5.5h-8c-.28 0-.5-.23-.5-.5Z"/><path d="M4.5 5c0-.28.22-.5.5-.5h14c.27 0 .5.22.5.5v16c0 .27-.23.5-.5.5H5c-.28 0-.5-.23-.5-.5V5Zm1 .5v15h13v-15h-13Z"/><path d="M10 2c0-.28.22-.5.5-.5h3c.27 0 .5.22.5.5v3c0 .27-.23.5-.5.5h-3c-.28 0-.5-.23-.5-.5V2Zm1 .5v2h2v-2h-2Z"/></g></svg>