<svg viewBox="0 0 24 24" xmlns="http://www.w3.org/2000/svg"><g fill-rule="evenodd"><path d="M1.5 4c0-1.39 1.11-2.5 2.5-2.5h18c.27 0 .5.22.5.5v17c0 .27-.23.5-.5.5H2c-.28 0-.5-.23-.5-.5V4ZM4 2.5c-.83 0-1.5.67-1.5 1.5v14.5h19v-16H4Z"/><path d="M2.5 19v1c0 .82.67 1.5 1.5 1.5h18v1H4c-1.39 0-2.5-1.12-2.5-2.5v-1h1Z"/><path d="M19.5 22v-3h1v3h-1Z"/><path d="M10 5c0-.28.22-.5.5-.5h3c.27 0 .5.22.5.5v2.05c0 .75.34 1.47.93 1.95l.44.35c.71.57 1.06 1.49.89 2.39l-.57 3.09c-.18.95-1.01 1.64-1.97 1.64h-3.5c-.97 0-1.8-.7-1.97-1.65l-.57-3.1c-.17-.91.18-1.83.89-2.4l.44-.36c.59-.48.93-1.2.93-1.96V4.94Zm1 .5v1.55c0 1.06-.49 2.06-1.32 2.73l-.45.35c-.44.34-.64.89-.54 1.43l.56 3.09c.08.47.5.82.98.82h3.49c.48 0 .89-.35.98-.83l.56-3.1c.09-.55-.11-1.1-.54-1.44l-.45-.36c-.84-.67-1.32-1.67-1.32-2.74V5.44h-2Z"/><path d="M15.5 5.5h-7v-1h7v1Z"/></g></svg>