<svg viewBox="0 0 24 24" xmlns="http://www.w3.org/2000/svg"><g fill-rule="evenodd"><path d="M1.5 4c0-1.39 1.11-2.5 2.5-2.5h18c.27 0 .5.22.5.5v17c0 .27-.23.5-.5.5H2c-.28 0-.5-.23-.5-.5V4ZM4 2.5c-.83 0-1.5.67-1.5 1.5v14.5h19v-16H4Z"/><path d="M2.5 19v1c0 .82.67 1.5 1.5 1.5h18v1H4c-1.39 0-2.5-1.12-2.5-2.5v-1h1Z"/><path d="M19.5 22v-3h1v3h-1Z"/><path d="M6.49 5.5l-.09-.02 .19-.99 .08.01c1.63.32 2.81 1.76 2.81 3.43v1.04c0 1.38 1.11 2.5 2.49 2.5 1.38 0 2.5-1.12 2.5-2.51V7.91c0-1.67 1.17-3.11 2.81-3.44l.08-.02 .19.98 -.09.01c-1.17.23-2.01 1.25-2.01 2.45v1.04c0 1.93-1.57 3.5-3.5 3.5 -1.94 0-3.5-1.57-3.5-3.51V7.87c0-1.2-.85-2.22-2.01-2.46Z"/><path d="M11.5 16.5V5h1v11.5h-1Z"/><path d="M13.5 17h-3v-1h3v1Z"/><path d="M13.5 5.5h-3v-1h3v1Z"/></g></svg>