<svg viewBox="0 0 24 24" xmlns="http://www.w3.org/2000/svg"><g fill-rule="evenodd"><path d="M1.5 4c0-1.39 1.11-2.5 2.5-2.5h18c.27 0 .5.22.5.5v17c0 .27-.23.5-.5.5H2c-.28 0-.5-.23-.5-.5V4ZM4 2.5c-.83 0-1.5.67-1.5 1.5v14.5h19v-16H4Z"/><path d="M2.5 19v1c0 .82.67 1.5 1.5 1.5h18v1H4c-1.39 0-2.5-1.12-2.5-2.5v-1h1Z"/><path d="M19.5 22v-3h1v3h-1Z"/><path d="M9.5 4.5c0-.28.22-.5.5-.5h3.5c.27 0 .5.22.5.5v4c0 .27-.23.5-.5.5H10c-.28 0-.5-.23-.5-.5v-4Zm1 .5v3H13V5h-2.5Z"/><path d="M6.7 4.09c.13-.1.29-.12.45-.07l2.99 1c.2.06.34.25.34.47v2c0 .21-.14.4-.35.47l-3 1c-.16.05-.33.02-.46-.07 -.14-.1-.21-.25-.21-.41v-4c0-.17.07-.32.2-.41Zm.79 1.09v2.61l2-.67V5.84l-2-.67Z"/><path d="M15.86 5h-2.37V4h2.36c.18 0 .35.04.51.14l2.38 1.42 -.52.85 -2.39-1.43Z"/><path d="M11.5 16.5v-8h1v8h-1Z"/></g></svg>