<svg viewBox="0 0 24 24" xmlns="http://www.w3.org/2000/svg"><g fill-rule="evenodd"><path d="M1.5 4c0-1.39 1.11-2.5 2.5-2.5h18c.27 0 .5.22.5.5v17c0 .27-.23.5-.5.5H2c-.28 0-.5-.23-.5-.5V4ZM4 2.5c-.83 0-1.5.67-1.5 1.5v14.5h19v-16H4Z"/><path d="M2.5 19v1c0 .82.67 1.5 1.5 1.5h18v1H4c-1.39 0-2.5-1.12-2.5-2.5v-1h1Z"/><path d="M19.5 22v-3h1v3h-1Z"/><path d="M7.5 4.5c0-.28.22-.5.5-.5h3.5c.07 0 .15.01.22.05l1.89.94h2.38c.27 0 .5.22.5.5v3c0 .27-.23.5-.5.5h-8c-.28 0-.5-.23-.5-.5v-4Zm1 .5v3h7V6h-2c-.08 0-.16-.02-.23-.06l-1.9-.95H8.48Z"/><path d="M11.5 16.5v-8h1v8h-1Z"/></g></svg>