<svg viewBox="0 0 24 24" xmlns="http://www.w3.org/2000/svg"><g fill-rule="evenodd"><path d="M1.5 4c0-1.39 1.11-2.5 2.5-2.5h18c.27 0 .5.22.5.5v17c0 .27-.23.5-.5.5H2c-.28 0-.5-.23-.5-.5V4ZM4 2.5c-.83 0-1.5.67-1.5 1.5v14.5h19v-16H4Z"/><path d="M2.5 19v1c0 .82.67 1.5 1.5 1.5h18v1H4c-1.39 0-2.5-1.12-2.5-2.5v-1h1Z"/><path d="M19.5 22v-3h1v3h-1Z"/><path d="M12 6.59c-1.23-.89-2.97-.79-4.08.29 -1.24 1.19-1.24 3.14 0 4.34l3.72 3.62c.19.18.5.18.69 0l3.72-3.63c1.23-1.2 1.23-3.15 0-4.35 -1.12-1.09-2.86-1.18-4.08-.3Zm-.35 1c-.84-.82-2.2-.82-3.04 0 -.83.8-.83 2.1 0 2.9l3.37 3.28 3.37-3.29c.82-.81.82-2.11 0-2.91 -.84-.82-2.2-.82-3.04 0 -.2.18-.51.18-.7 0Z"/></g></svg>