<svg viewBox="0 0 24 24" xmlns="http://www.w3.org/2000/svg"><g fill-rule="evenodd"><path d="M1.5 4c0-1.39 1.11-2.5 2.5-2.5h18c.27 0 .5.22.5.5v17c0 .27-.23.5-.5.5H2c-.28 0-.5-.23-.5-.5V4ZM4 2.5c-.83 0-1.5.67-1.5 1.5v14.5h19v-16H4Z"/><path d="M2.5 19v1c0 .82.67 1.5 1.5 1.5h18v1H4c-1.39 0-2.5-1.12-2.5-2.5v-1h1Z"/><path d="M19.5 22v-3h1v3h-1Z"/><path d="M5 9c0-1.11.89-2 2-2h10c1.1 0 2 .89 2 2 0 1.1-.9 2-2 2H7c-1.11 0-2-.9-2-2Zm2-1c-.56 0-1 .44-1 1 0 .55.44 1 1 1h10c.55 0 1-.45 1-1 0-.56-.45-1-1-1H7Z"/><path d="M8.5 6.5C8.5 5.11 9.61 4 11 4h2c1.38 0 2.5 1.11 2.5 2.5v1c0 .27-.23.5-.5.5H9c-.28 0-.5-.23-.5-.5v-1ZM11 5c-.83 0-1.5.67-1.5 1.5V7h5v-.5c0-.83-.68-1.5-1.5-1.5h-2Z"/><path d="M9.51 10.37c.05-.23.25-.38.48-.38h4c.22 0 .42.15.48.37l1.5 6c.03.14 0 .3-.1.42s-.25.19-.4.19h-7c-.16 0-.3-.08-.4-.2 -.1-.13-.13-.28-.1-.43l1.5-6Zm.87.62l-1.26 5h5.71l-1.25-5h-3.22Z"/></g></svg>