<svg viewBox="0 0 24 24" xmlns="http://www.w3.org/2000/svg"><g fill-rule="evenodd"><path d="M1.5 4c0-1.39 1.11-2.5 2.5-2.5h18c.27 0 .5.22.5.5v17c0 .27-.23.5-.5.5H2c-.28 0-.5-.23-.5-.5V4ZM4 2.5c-.83 0-1.5.67-1.5 1.5v14.5h19v-16H4Z"/><path d="M2.5 19v1c0 .82.67 1.5 1.5 1.5h18v1H4c-1.39 0-2.5-1.12-2.5-2.5v-1h1Z"/><path d="M19.5 22v-3h1v3h-1Z"/><path d="M13.01 3.5c.2 0 .38.13.45.32l1.52 4.07c.83 2.22-.82 4.6-3.19 4.6 -2.25 0-3.88-2.14-3.29-4.31l.49-1.83c.05-.19.2-.33.38-.36 .18-.04.37.03.49.19l.98 1.31 1.65-3.73c.08-.19.26-.31.47-.3Zm-.06 1.81l-1.51 3.38c-.08.16-.23.27-.41.29 -.18.01-.35-.06-.46-.2l-.89-1.19 -.23.84c-.42 1.53.73 3.03 2.32 3.03 1.68 0 2.84-1.68 2.25-3.26l-1.1-2.93Z"/><path d="M7.29 16.54l9-4 .4.91 -9 4 -.41-.92Z"/><path d="M16.7 16.54l-9-4 -.41.91 9 4 .4-.92Z"/></g></svg>