<svg viewBox="0 0 24 24" xmlns="http://www.w3.org/2000/svg"><g fill-rule="evenodd"><path d="M12 5c0-1.39 1.11-2.5 2.5-2.5h3C18.88 2.5 20 3.61 20 5v2c0 .27-.23.5-.5.5h-7c-.28 0-.5-.23-.5-.5V5Zm2.5-1.5c-.83 0-1.5.67-1.5 1.5v1.5h6V5c0-.83-.68-1.5-1.5-1.5h-3Z"/><path d="M5 18c0-.28.22-.5.5-.5h7c.27 0 .5.22.5.5v3c0 .27-.23.5-.5.5h-7c-.28 0-.5-.23-.5-.5v-3Zm1 .5v2h6v-2H6Z"/><path d="M6 7.5c-.56 0-1 .44-1 1 0 .55.44 1 1 1 .55 0 1-.45 1-1 0-.56-.45-1-1-1Zm-2 1c0-1.11.89-2 2-2 1.1 0 2 .89 2 2 0 1.1-.9 2-2 2 -1.11 0-2-.9-2-2Z"/><path d="M6.46 9.82l3 8 -.94.35 -3-8 .93-.36Z"/><path d="M12.64 5.47l-6.51 2 -.3-.96 6.49-2 .29.95Z"/></g></svg>