<svg viewBox="0 0 24 24" xmlns="http://www.w3.org/2000/svg"><g fill="#3747D6" fill-rule="evenodd"><path d="M5 15c0-.56.44-1 1-1h12c.55 0 1 .44 1 1v7c0 .55-.45 1-1 1H6c-.56 0-1-.45-1-1v-7Zm2 1v5h10v-5H7Z"/><path d="M5.07 9.62c.15-.38.51-.63.92-.63h12c.4 0 .77.24.92.62l2 4.99c.12.3.08.65-.11.93 -.19.27-.5.43-.83.43h-16c-.34 0-.65-.17-.83-.44 -.19-.28-.23-.63-.11-.94l2-5Zm1.6 1.37l-1.2 3h13.046l-1.2-3H6.66Z"/><g fill="#9545ED"><path d="M13 2.5v5h-2v-5h2Z"/><path d="M11.293 1.29c.39-.4 1.02-.4 1.41 0l2 2 -1.42 1.41 -1.3-1.3 -1.3 1.29 -1.42-1.42 2-2Z"/></g><path d="M15.5 20H13v-2h2.5v2Z"/></g></svg>