<svg viewBox="0 0 24 24" xmlns="http://www.w3.org/2000/svg"><g fill="#3747D6" fill-rule="evenodd"><path d="M6.5 16.5c-.28 0-.5.22-.5.5 0 .27.22.5.5.5 .27 0 .5-.23.5-.5 0-.28-.23-.5-.5-.5ZM4 17c0-1.39 1.11-2.5 2.5-2.5C7.88 14.5 9 15.61 9 17c0 1.38-1.12 2.5-2.5 2.5C5.11 19.5 4 18.38 4 17Z"/><path d="M17.5 16.5c-.28 0-.5.22-.5.5 0 .27.22.5.5.5 .27 0 .5-.23.5-.5 0-.28-.23-.5-.5-.5ZM15 17c0-1.39 1.11-2.5 2.5-2.5 1.38 0 2.5 1.11 2.5 2.5 0 1.38-1.12 2.5-2.5 2.5 -1.39 0-2.5-1.12-2.5-2.5Z"/><path d="M13 5.5c0-.56.44-1 1-1h4c2.76 0 5 2.23 5 5V16c0 1.1-.9 2-2 2h-2v-2h2V9.5c0-1.66-1.35-3-3-3h-3V13c0 .55-.45 1-1 1H3v2h2v2H2c-.56 0-1-.45-1-1v-4c0-.56.44-1 1-1h11V5.5ZM8 16h8v2H8v-2Z"/><path fill="#9545ED" d="M1 5.5c0-.56.44-1 1-1h9c.55 0 1 .44 1 1v5c0 .55-.45 1-1 1H2c-.56 0-1-.45-1-1v-5Zm2 1v3h7v-3H3Z"/><path d="M17 4.5c.55 0 1 .44 1 1V9h4c.55 0 1 .44 1 1 0 .55-.45 1-1 1h-5c-.56 0-1-.45-1-1V5.5c0-.56.44-1 1-1Z"/></g></svg>