<svg viewBox="0 0 24 24" xmlns="http://www.w3.org/2000/svg"><g fill="#3747D6" fill-rule="evenodd"><path d="M6 5c0-1.11.89-2 2-2h8c1.1 0 2 .89 2 2v9c0 .55-.45 1-1 1H7c-.56 0-1-.45-1-1V5Zm10 0H8v8h8V5Z"/><path d="M9.5 4c0-.56.44-1 1-1h3c.55 0 1 .44 1 1v3.5c0 .32-.16.62-.42.81 -.27.18-.6.23-.91.13l-1.19-.4 -1.19.39c-.31.1-.65.05-.91-.14 -.27-.19-.42-.49-.42-.82v-3.5Zm2 1v1.11l.18-.07c.2-.07.42-.07.63 0l.18.06V4.98h-1Z"/><path d="M20.58 8l-1.3-1.3 1.41-1.42 2 2c.39.39.39 1.02 0 1.41l-2 1.99 -1.42-1.42 1.29-1.3Z"/><path d="M3.41 8L4.7 6.7 3.28 5.28l-2 2c-.4.39-.4 1.02 0 1.41l2 1.99 1.41-1.42 -1.3-1.3Z"/><g fill="#9545ED"><path d="M1 17c0-2.21 1.79-4 4-4h14c2.2 0 4 1.79 4 4 0 2.2-1.8 4-4 4H5c-2.21 0-4-1.8-4-4Zm4-2c-1.11 0-2 .89-2 2 0 1.1.89 2 2 2h14c1.1 0 2-.9 2-2 0-1.11-.9-2-2-2H5Z"/><path d="M17 18H7v-2h10v2Z"/></g></g></svg>