<svg viewBox="0 0 24 24" xmlns="http://www.w3.org/2000/svg"><g fill="#3747D6" fill-rule="evenodd"><path d="M10 8.5v-5H8v6c0 .55.44 1 1 1h6c.55 0 1-.45 1-1v-6h-2v5h-4Z"/><path d="M11.48 1.14c.31-.2.71-.2 1.029 0l5 3L16.48 5.85l-4.49-2.7L7.5 5.84 6.47 4.12l4.99-3Z"/><g fill="#9545ED"><path d="M1 17c0-.56.44-1 1-1h5c.55 0 1 .44 1 1v5c0 .55-.45 1-1 1H2c-.56 0-1-.45-1-1v-5Zm2 1v3h3v-3H3Z"/><path d="M16 17c0-.56.44-1 1-1h5c.55 0 1 .44 1 1v5c0 .55-.45 1-1 1h-5c-.56 0-1-.45-1-1v-5Zm2 1v3h3v-3h-3Z"/><path d="M3.5 19v-2h2v2h-2Z"/><path d="M18.5 19v-2h2v2h-2Z"/></g><path d="M3 12c0-.56.44-1 1-1h16c.55 0 1 .44 1 1v2h-2v-1H5v1H3v-2Z"/><path d="M13 9.5V12h-2V9.5h2Z"/></g></svg>