<svg viewBox="0 0 24 24" xmlns="http://www.w3.org/2000/svg"><g fill="#3747D6" fill-rule="evenodd"><path d="M12 3C8.68 3 6 5.68 6 9c0 2.67 1.58 5.7 3.31 8.17 .84 1.21 1.7 2.24 2.33 2.97 .12.13.23.26.34.38 .1-.12.21-.25.34-.39 .63-.74 1.49-1.77 2.33-2.98 1.73-2.48 3.31-5.51 3.31-8.18 0-3.32-2.69-6-6-6Zm0 19c-.71.7-.71.7-.71.7l-.01-.01 -.01-.01 -.02-.02c-.02-.02-.04-.04-.07-.07 -.06-.06-.14-.14-.24-.25 -.2-.22-.49-.52-.82-.91 -.68-.77-1.58-1.87-2.48-3.15 -1.77-2.53-3.69-6-3.69-9.33 0-4.42 3.58-8 8-8 4.41 0 8 3.58 8 8 0 3.32-1.92 6.79-3.69 9.32 -.91 1.28-1.8 2.37-2.48 3.14 -.34.38-.62.69-.82.9 -.1.1-.18.18-.24.24 -.03.02-.05.04-.07.06l-.02.01 -.01 0 -.01 0c-.01 0-.01 0-.71-.71Zm0 0l.7.7c-.4.39-1.03.39-1.42-.01l.7-.71Z"/><path fill="#9545ED" d="M12 6.5c-1.11 0-2 .89-2 2 0 1.1.89 2 2 2 1.1 0 2-.9 2-2 0-1.11-.9-2-2-2Zm-4 2c0-2.21 1.79-4 4-4 2.2 0 4 1.79 4 4 0 2.2-1.8 4-4 4 -2.21 0-4-1.8-4-4Z"/></g></svg>