<svg viewBox="0 0 24 24" xmlns="http://www.w3.org/2000/svg"><g fill="#3747D6" fill-rule="evenodd"><path d="M6 8c0-1.11.89-2 2-2h8c1.1 0 2 .89 2 2v8c0 1.1-.9 2-2 2H8c-1.11 0-2-.9-2-2V8Zm10 0H8v8h8V8Z"/><path d="M9.5 7c0-.56.44-1 1-1h3c.55 0 1 .44 1 1v3.5c0 .32-.16.62-.42.81 -.27.18-.6.23-.91.13l-1.19-.4 -1.19.39c-.31.1-.65.05-.91-.14 -.27-.19-.42-.49-.42-.82v-3.5Zm2 1v1.11l.18-.07c.2-.07.42-.07.63 0l.18.06V7.98h-1Z"/><g fill="#9545ED"><path d="M20.58 12l-1.3-1.3 1.41-1.42 2 2c.39.39.39 1.02 0 1.41l-2 2 -1.42-1.42 1.29-1.3Z"/><path d="M3.41 12l1.29-1.3 -1.42-1.42 -2 2c-.4.39-.4 1.02 0 1.41l2 2 1.41-1.42 -1.3-1.3Z"/><path d="M12 3.41L10.7 4.7 9.28 3.28l2-2c.39-.4 1.02-.4 1.41 0l2 2 -1.42 1.41 -1.3-1.3Z"/><path d="M12 20.58l-1.3-1.3 -1.42 1.41 2 2c.39.39 1.02.39 1.41 0l2-2 -1.42-1.42 -1.3 1.29Z"/></g></g></svg>