<svg viewBox="0 0 24 24" xmlns="http://www.w3.org/2000/svg"><g fill="#3747D6" fill-rule="evenodd"><path d="M1 2c0-.56.44-1 1-1h20c.55 0 1 .44 1 1v20c0 .55-.45 1-1 1H2c-.56 0-1-.45-1-1V2Zm2 1v18h18V3H3Z"/><g fill="#9545ED"><path d="M4 5c0-.56.44-1 1-1h3c.55 0 1 .44 1 1v3c0 .55-.45 1-1 1H5c-.56 0-1-.45-1-1V5Zm2 1v1h1V6H6Z"/><path d="M4 16c0-.56.44-1 1-1h3c.55 0 1 .44 1 1v3c0 .55-.45 1-1 1H5c-.56 0-1-.45-1-1v-3Zm2 1v1h1v-1H6Z"/><path d="M15 5c0-.56.44-1 1-1h3c.55 0 1 .44 1 1v3c0 .55-.45 1-1 1h-3c-.56 0-1-.45-1-1V5Zm2 1v1h1V6h-1Z"/><path d="M11 12V6h2v7c0 .55-.45 1-1 1h-2v-2h1Z"/><path d="M7 14H5v-2h2v2Z"/><path d="M18 12h-2v-2h3c.55 0 1 .44 1 1v5c0 .55-.45 1-1 1h-6v2h-2v-3c0-.56.44-1 1-1h6v-3Z"/><path d="M19 20h-4v-2h4v2Z"/></g></g></svg>