<svg viewBox="0 0 24 24" xmlns="http://www.w3.org/2000/svg"><g fill="#9545ED" fill-rule="evenodd"><path d="M1 2c0-.56.44-1 1-1h7c.55 0 1 .44 1 1v7c0 .55-.45 1-1 1H2c-.56 0-1-.45-1-1V2Zm2 1v5h5V3H3Z"/><path fill="#3747D6" d="M10.5 15c0-.56.44-1 1-1H22c.55 0 1 .44 1 1v7c0 .55-.45 1-1 1H11.5c-.56 0-1-.45-1-1v-7Zm2 1v5H21v-5h-8.5Z"/><path d="M4.5 4.5V2h2v2.5h-2Z"/><g fill="#3747D6"><path d="M19 19.5h-4.5v-2H19v2Z"/><path d="M17 6h-4V4h5c.55 0 1 .44 1 1v6h-2V6Z"/><path d="M17.375 11.78l-2.5-2.01 1.24-1.57 1.87 1.5 1.87-1.51 1.24 1.56 -2.5 2c-.37.29-.89.29-1.25 0Z"/></g></g></svg>