<svg viewBox="0 0 24 24" xmlns="http://www.w3.org/2000/svg"><g fill="#3747D6" fill-rule="evenodd"><path d="M2.5 11c0-.56.44-1 1-1H7c.55 0 1 .44 1 1v9c0 .55-.45 1-1 1H3.5c-.56 0-1-.45-1-1v-9Zm2 1v7H6v-7H4.5Z"/><path fill="#9545ED" d="M13.5 6.42c-.27-.27-.72-.16-.83.19l-.74 2.19c-.05.13-.12.25-.21.35l-2.26 2.5c-.19.21-.46.33-.75.33h-.75v7h9.29c.23 0 .43-.17.48-.4l1.19-5.4c.13-.63-.34-1.22-.98-1.22h-4.01c-.31 0-.6-.14-.78-.38 -.19-.24-.27-.55-.2-.85l.82-3.7c.03-.17-.02-.35-.14-.47l-.21-.21Zm-2.73-.44c.58-1.77 2.82-2.3 4.13-.98l.2.2c.6.6.85 1.47.67 2.31l-.56 2.47h2.76c1.91 0 3.34 1.77 2.92 3.65l-1.2 5.39c-.26 1.14-1.27 1.95-2.45 1.95H6.94c-.56 0-1-.45-1-1v-9c0-.56.44-1 1-1h1.3l1.81-2.02 .66-2Z"/></g></svg>