<svg viewBox="0 0 24 24" xmlns="http://www.w3.org/2000/svg"><g fill="#3747D6" fill-rule="evenodd"><path d="M2.5 13c0 .55.44 1 1 1H7c.55 0 1-.45 1-1V4c0-.56-.45-1-1-1H3.5c-.56 0-1 .44-1 1v9Zm2-1V5H6v7H4.5Z"/><path fill="#9545ED" d="M13.5 17.57c-.27.26-.72.15-.83-.2l-.74-2.2c-.05-.14-.12-.26-.21-.36l-2.26-2.5c-.19-.22-.46-.34-.75-.34h-.75v-7h9.29c.23 0 .43.16.48.39l1.19 5.39c.13.62-.34 1.21-.98 1.21h-4.01c-.31 0-.6.13-.78.37 -.19.23-.27.54-.2.84l.82 3.69c.03.16-.02.34-.14.46l-.21.2Zm-2.73.43c.58 1.76 2.82 2.29 4.13.97l.2-.21c.6-.61.85-1.48.67-2.32l-.56-2.48h2.76c1.91 0 3.34-1.78 2.92-3.66l-1.2-5.4c-.26-1.15-1.27-1.96-2.45-1.96H6.94c-.56 0-1 .44-1 1v9c0 .55.44 1 1 1h1.3l1.81 2.01 .66 1.99Z"/></g></svg>