<svg viewBox="0 0 24 24" xmlns="http://www.w3.org/2000/svg"><g fill="#9545ED" fill-rule="evenodd"><path d="M5 4.5c-1.11 0-2 .89-2 2 0 1.1.89 2 2 2 1.1 0 2-.9 2-2 0-1.11-.9-2-2-2Zm-4 2c0-2.21 1.79-4 4-4 2.2 0 4 1.79 4 4 0 2.2-1.8 4-4 4 -2.21 0-4-1.8-4-4Z"/><path fill="#3747D6" d="M12.5 9c0-1.39 1.11-2.5 2.5-2.5 1.38 0 2.5 1.11 2.5 2.5v1.5h.5V10c0-1.39 1.11-2.5 2.5-2.5 1.38 0 2.5 1.11 2.5 2.5v2.5c0 1.65-1.35 3-3 3h-2.5v5c0 .55-.45 1-1 1h-3c-.56 0-1-.45-1-1v-2H10c-1.66 0-3-1.35-3-3V13c0-1.39 1.11-2.5 2.5-2.5 1.38 0 2.5 1.11 2.5 2.5v.5h.5V9Zm2.5-.5c-.28 0-.5.22-.5.5v5.5c0 .55-.45 1-1 1H11c-.56 0-1-.45-1-1V13c0-.28-.23-.5-.5-.5 -.28 0-.5.22-.5.5v2.5c0 .55.44 1 1 1h3.5c.55 0 1 .44 1 1v2h1v-5c0-.56.44-1 1-1H20c.55 0 1-.45 1-1V10c0-.28-.23-.5-.5-.5 -.28 0-.5.22-.5.5v1.5c0 .55-.45 1-1 1h-2.5c-.56 0-1-.45-1-1V9c0-.28-.23-.5-.5-.5Z"/><path d="M22 21.5H2v-2h20v2Z"/></g></svg>