<svg viewBox="0 0 24 24" xmlns="http://www.w3.org/2000/svg"><g fill="#9545ED" fill-rule="evenodd"><path d="M8.5 2.5c0-.56.44-1 1-1h5c.55 0 1 .44 1 1V5c0 .55-.45 1-1 1h-5c-.56 0-1-.45-1-1V2.5Zm2 1V4h3v-.5h-3Z"/><path fill="#3747D6" d="M8.66 4.44c.18-.28.49-.45.83-.45h5c.33 0 .64.16.83.44l3 4.5c.1.16.16.35.16.55v3.5c0 .06-.01.13-.02.19l-.47 2.32 .46 2.81c0 .05.01.1.01.16v3.5c0 .55-.45 1-1 1h-11c-.56 0-1-.45-1-1v-3.5c0-.06 0-.12.01-.17l.46-2.82 -.47-2.33c-.02-.07-.02-.14-.02-.2v-3.5c0-.2.05-.4.16-.56l3-4.5Zm1.36 1.55l-2.54 3.8v3.09l.48 2.4c.02.11.02.24 0 .36l-.49 2.91v2.41h9v-2.42l-.49-2.92c-.02-.12-.02-.25 0-.37l.48-2.41v-3.1l-2.54-3.81H9.99Z"/><path d="M15.99 10.57l-1-.08 -.08-1c.29-.03.57.08.78.29 .2.2.31.49.29.78Zm-2.15 1.06c-.16.02-.32.05-.49.08 -.46.08-.92.19-1.3.32 -.42.14-.62.27-.68.33 -.29.28-.4.59-.4.86 0 .26.1.57.39.86 .28.28.59.39.86.39 .26 0 .57-.11.86-.4 .06-.07.19-.27.33-.68 .13-.39.23-.85.32-1.3 .03-.17.05-.33.08-.484Zm1.14-1.15c-.08-1-.08-1-.08-1l-.01 0 -.01 0 -.04 0c-.03 0-.07 0-.12.01 -.11 0-.25.02-.42.04 -.35.04-.83.1-1.34.19 -.51.09-1.07.22-1.59.39 -.49.16-1.05.41-1.45.81 -.64.63-.99 1.43-.99 2.27 0 .84.35 1.64.98 2.27 .63.63 1.43.98 2.27.98 .84 0 1.64-.36 2.27-.99 .39-.4.64-.97.81-1.45 .17-.52.3-1.08.39-1.59 .09-.52.15-.99.19-1.34 .02-.18.03-.32.04-.42 0-.06 0-.1.01-.12l0-.04 0-.01 0-.01c0-.01 0 0-1-.08Z"/><path d="M9.7 17.2l1.49-1.5 -1.42-1.42 -1.5 1.5 1.41 1.41Z"/></g></svg>