<svg viewBox="0 0 24 24" xmlns="http://www.w3.org/2000/svg"><g fill="#9545ED" fill-rule="evenodd"><path d="M8 4.5v9c0 .55.44 1 1 1h1v2H9c-1.66 0-3-1.35-3-3v-9h2Z"/><g fill="#3747D6"><path d="M16.5 16.5v-2h2v2h-2Z"/><path d="M13.5 16.5v-2h2v2h-2Z"/></g><path d="M16 12.5c-1.66 0-3 1.34-3 3 0 1.65 1.34 3 3 3 1.65 0 3-1.35 3-3 0-1.66-1.35-3-3-3Zm-5 3c0-2.77 2.23-5 5-5 2.76 0 5 2.23 5 5 0 2.76-2.24 5-5 5 -2.77 0-5-2.24-5-5Z"/><g fill="#3747D6"><path d="M9 9.5c0-.56.44-1 1-1h12c.55 0 1 .44 1 1v12c0 .55-.45 1-1 1H10c-.56 0-1-.45-1-1v-12Zm2 1v10h10v-10H11Z"/><path d="M8 4.5c0-1.66-1.35-3-3-3H2c-.56 0-1 .44-1 1v2c0 1.65 1.34 3 3 3h3c.55 0 1-.45 1-1v-2Zm-3-1c.55 0 1 .44 1 1v1H4c-.56 0-1-.45-1-1v-1h2Z"/><path d="M6 4.5c0-1.66 1.34-3 3-3h3c.55 0 1 .44 1 1v2c0 1.65-1.35 3-3 3H7c-.56 0-1-.45-1-1v-2Zm3-1c-.56 0-1 .44-1 1v1h2c.55 0 1-.45 1-1v-1H9Z"/></g></g></svg>