<svg viewBox="0 0 24 24" xmlns="http://www.w3.org/2000/svg"><g fill="#9545ED" fill-rule="evenodd"><path d="M20 6h-4.5V4H20c1.65 0 3 1.34 3 3v8h-2V7c0-.56-.45-1-1-1Z"/><path fill="#3747D6" d="M9.23 9.35c.18-.23.47-.36.76-.36h7c.29 0 .57.13.76.35l2.2 2.64h.53c1.38 0 2.5 1.11 2.5 2.5v3.5c0 .55-.45 1-1 1h-2v-2h1v-2.5c0-.28-.23-.5-.5-.5h-1c-.3 0-.58-.14-.77-.36l-2.21-2.65h-6.07l-2.21 2.64c-.16.18-.36.3-.59.34l-4.27.77c-.24.04-.42.25-.42.49v1.74h1v2h-2c-.56 0-1-.45-1-1V15.2c0-1.21.86-2.25 2.05-2.46l3.91-.72 2.26-2.73Zm-1.24 7.64h8v2h-8v-2Z"/><path d="M6 17c-.56 0-1 .44-1 1 0 .55.44 1 1 1 .55 0 1-.45 1-1 0-.56-.45-1-1-1Zm-3 1c0-1.66 1.34-3 3-3 1.65 0 3 1.34 3 3 0 1.65-1.35 3-3 3 -1.66 0-3-1.35-3-3Z"/><path d="M18 17c-.56 0-1 .44-1 1 0 .55.44 1 1 1 .55 0 1-.45 1-1 0-.56-.45-1-1-1Zm-3 1c0-1.66 1.34-3 3-3 1.65 0 3 1.34 3 3 0 1.65-1.35 3-3 3 -1.66 0-3-1.35-3-3Z"/><path d="M8.5 2.5H11v2H8.5v-2Z"/><path d="M8.5 5.5H11v2H8.5v-2Z"/><path fill="#3747D6" d="M10 3c0-.56.44-1 1-1h2.5c1.65 0 3 1.34 3 3 0 1.65-1.35 3-3 3H11c-.56 0-1-.45-1-1V3Zm2 1v2h1.5c.55 0 1-.45 1-1 0-.56-.45-1-1-1H12Z"/></g></svg>