<svg viewBox="0 0 24 24" xmlns="http://www.w3.org/2000/svg"><g fill="#9545ED" fill-rule="evenodd"><path d="M16 23H8v-2h8v2Z"/><path d="M12.78 4.38l-.79.61 -.79-.62c.18-.25.47-.39.78-.39 .3 0 .59.14.78.38Zm-.79 2.34c-.06.07-.11.15-.16.23 -.24.37-.47.77-.63 1.12 -.18.38-.23.62-.23.72 0 .42.13.71.29.89 .15.17.38.28.7.28 .31 0 .54-.12.7-.29 .16-.18.29-.48.29-.9 0-.11-.06-.35-.23-.73 -.17-.36-.39-.76-.63-1.13 -.06-.09-.11-.17-.16-.24Zm2.59.54c.2.45.4 1 .4 1.54 0 .85-.28 1.65-.83 2.24 -.55.59-1.33.93-2.18.93 -.86 0-1.63-.34-2.18-.94 -.55-.6-.83-1.4-.83-2.25 0-.54.19-1.1.4-1.55 .21-.48.49-.96.75-1.38 .26-.43.52-.798.72-1.07 .09-.14.18-.25.23-.33 .02-.04.05-.07.06-.09l.01-.03 0-.01 0-.01c0-.01 0 0 .78.61 .78-.62.78-.62.78-.62l0 0 0 0 .01.02c.01.02.03.05.06.08 .05.07.14.18.23.32 .19.27.45.64.72 1.06 .26.41.53.89.75 1.37ZM11.19 5.6c0-.01 0-.01 0 0v0Z"/><path d="M11 14v-3h2v3h-2Z"/><path fill="#3747D6" d="M7.5 19c0 .55.44 1 1 1h7c.55 0 1-.45 1-1v-3.39c2.11-1.44 3.5-3.87 3.5-6.62 0-4.42-3.59-8-8-8 -4.42 0-8 3.58-8 8 0 2.75 1.38 5.17 3.5 6.61v3.38Zm2-1v-2.94c0-.36-.2-.69-.5-.87 -1.8-1.04-3.01-2.98-3.01-5.2 0-3.32 2.68-6 6-6 3.31 0 6 2.68 6 6 0 2.21-1.21 4.15-3.01 5.19 -.31.17-.5.5-.5.86v2.93h-5Z"/></g></svg>