<svg viewBox="0 0 24 24" xmlns="http://www.w3.org/2000/svg"><g fill="#9545ED" fill-rule="evenodd"><path d="M8.78 9.87l1.06 1.33c.12.15.35.16.49.02 .91-.92 2.39-.92 3.3 0 .14.14.37.12.49-.03l1.06-1.34 1.56 1.24 -1.07 1.33c-.87 1.08-2.5 1.17-3.48.19 -.14-.14-.35-.14-.48 0 -.99.98-2.61.89-3.48-.2l-1.07-1.34 1.56-1.25Z"/><path fill="#3747D6" d="M9.5 6.44c1.18-1.79 3.8-1.79 4.99 0l8.33 12.5c.2.3.22.7.04 1.02 -.18.32-.52.52-.89.52h-20c-.37 0-.71-.21-.89-.53 -.18-.33-.16-.72.04-1.03L9.45 6.41Zm3.32 1.1c-.4-.6-1.27-.6-1.67 0l-7.3 10.94h16.26l-7.3-10.95Z"/></g></svg>