<svg viewBox="0 0 24 24" xmlns="http://www.w3.org/2000/svg"><g fill="#9545ED" fill-rule="evenodd"><path d="M13 10c0-1.66-1.35-3-3-3H7c-.56 0-1 .44-1 1v2c0 1.65 1.34 3 3 3h3c.55 0 1-.45 1-1v-2Zm-3-1c.55 0 1 .44 1 1v1H9c-.56 0-1-.45-1-1V9h2Z"/><path d="M13 11v10h-2V11h2Z"/><path d="M11 10c0-1.66 1.34-3 3-3h3c.55 0 1 .44 1 1v2c0 1.65-1.35 3-3 3h-3c-.56 0-1-.45-1-1v-2Zm3-1c-.56 0-1 .44-1 1v1h2c.55 0 1-.45 1-1V9h-2Z"/><path fill="#3747D6" d="M19.53 5.43c-1.89-1.83-4.9-1.92-6.88-.26 -.19.15-.43.23-.66.23 -.24 0-.47-.08-.66-.24 -1.99-1.66-5-1.57-6.88.25 -1.87 1.81-1.96 4.68-.27 6.58 .02.02.04.05.06.08l7.72 7.49 7.72-7.5c.02-.03.04-.06.06-.09 1.68-1.91 1.6-4.78-.27-6.59Zm1.89 7.76c2.25-2.71 2.08-6.69-.5-9.2 -2.44-2.36-6.19-2.64-8.924-.83 -2.74-1.81-6.5-1.54-8.93.82 -2.59 2.51-2.76 6.49-.5 9.19 .04.07.1.15.16.21l8.55 8.3c.38.37 1 .37 1.39 0l8.557-8.31c.06-.07.12-.14.16-.22Z"/></g></svg>