<svg viewBox="0 0 24 24" xmlns="http://www.w3.org/2000/svg"><g fill="#3747D6" fill-rule="evenodd"><path d="M12 21c-3.87 0-7-3.14-7-7 0-.85.39-1.96 1.12-3.25 .71-1.27 1.67-2.58 2.65-3.78 .97-1.2 1.95-2.27 2.69-3.03 .19-.21.37-.39.52-.55 .15.15.33.33.52.54 .73.76 1.71 1.83 2.69 3.02 .98 1.2 1.94 2.51 2.65 3.77 .72 1.28 1.12 2.4 1.12 3.24 0 3.86-3.14 7-7 7Zm0-19c-.69-.73-.69-.73-.69-.73l-.01 0 -.02.01 -.08.06c-.07.05-.15.14-.27.25 -.23.22-.55.54-.93.93 -.77.79-1.79 1.89-2.81 3.14C6.17 6.9 5.13 8.31 4.34 9.72c-.78 1.37-1.38 2.86-1.38 4.22 0 4.97 4.02 9 9 9 4.97 0 9-4.03 9-9 0-1.37-.61-2.86-1.38-4.23 -.79-1.41-1.83-2.82-2.85-4.07 -1.03-1.26-2.05-2.36-2.81-3.15 -.39-.4-.71-.72-.93-.94 -.12-.12-.21-.2-.27-.26l-.08-.07 -.02-.02 -.01-.01c-.01-.01-.01-.01-.69.72Zm0 0l.68-.73c-.39-.37-1-.37-1.38 0l.68.72Z"/><path fill="#9545ED" d="M8.29 13.24c-.17.27-.3.71-.3 1.25s.13.98.29 1.25c.09.15.16.21.2.23 .03-.03.1-.09.2-.24 .16-.28.29-.72.29-1.26 0-.55-.14-.99-.3-1.26 -.1-.16-.17-.22-.21-.24 -.04.02-.11.08-.21.23Zm.22-.25s-.01 0-.01 0c0-.01 0-.01 0-.01Zm-.05 0c-.01-.01-.01-.01-.01-.01 0-.01 0 0 0 0Zm-.01 3c-.01 0 0-.01 0-.01 -.01 0-.01 0-.01 0Zm.04-.01s0 0 0 0c-.01 0-.01-.01-.01-.01Zm-1.94-3.79c.36-.62 1.01-1.22 1.91-1.22 .9 0 1.55.6 1.91 1.21 .37.63.58 1.44.58 2.28 0 .84-.21 1.64-.59 2.28 -.37.61-1.02 1.21-1.92 1.21 -.91 0-1.56-.61-1.92-1.22 -.38-.64-.59-1.45-.59-2.29 0-.85.2-1.65.58-2.29Z"/></g></svg>