<svg viewBox="0 0 24 24" xmlns="http://www.w3.org/2000/svg"><g fill="#3747D6" fill-rule="evenodd"><path d="M9.74 2.65c.3-.99 1.22-1.66 2.25-1.66s1.94.67 2.25 1.65l4.7 15.04c.09.3.03.63-.15.89 -.19.25-.49.4-.81.4h-4.5v-2h3.13l-4.3-13.75c-.05-.16-.19-.26-.35-.26 -.16 0-.3.1-.35.25L7.31 16.95h3.13v2h-4.5c-.32 0-.62-.16-.81-.41 -.19-.26-.25-.59-.15-.9l4.7-15.05Z"/><path fill="#9545ED" d="M9.5 13c0-.56.44-1 1-1h3c.55 0 1 .44 1 1v9c0 .55-.45 1-1 1h-3c-.56 0-1-.45-1-1v-9Zm2 1v7h1v-7h-1Z"/><path d="M18 23H6v-2h12v2Z"/></g></svg>