<svg viewBox="0 0 24 24" xmlns="http://www.w3.org/2000/svg"><g fill="#3747D6" fill-rule="evenodd"><path d="M19 17.26V7.49h2v10c0 .15-.04.3-.11.44l-2 4c-.17.33-.52.55-.9.55h-12c-.38 0-.73-.22-.9-.56l-2.5-5c-.07-.14-.11-.3-.11-.45v-2h2v1.76l2.11 4.23h10.764l1.61-3.24Z"/><path fill="#9545ED" d="M3 4c0-1.66 1.34-3 3-3h12c1.65 0 3 1.34 3 3v4c0 1.65-1.35 3-3 3h-4.5V9H18c.55 0 1-.45 1-1V4c0-.56-.45-1-1-1H6c-.56 0-1 .44-1 1v3.5H3V4Z"/><path d="M2.5 7.5c0-.56.44-1 1-1h8c1.65 0 3 1.34 3 3 0 1.65-1.35 3-3 3H8.84l1.11 3.71 -1.92.57 -1.5-5c-.1-.31-.04-.64.15-.89 .18-.26.48-.41.8-.41h4c.55 0 1-.45 1-1 0-.56-.45-1-1-1h-7v8h-2v-9Z"/></g></svg>