<svg viewBox="0 0 24 24" xmlns="http://www.w3.org/2000/svg"><g fill="#9545ED" fill-rule="evenodd"><path d="M19.8 2.59l-3 4 -1.6-1.2 3-4 1.6 1.2Zm2.8 3.2l-4 3 -1.2-1.6 4-3 1.2 1.6Z"/><path d="M19.79 21.4l-3-4 -1.6 1.2 2.99 4 1.6-1.2Zm2.8-3.2l-4-3 -1.2 1.6 4 3 1.2-1.6Z"/><path d="M4.2 21.4l3-4 1.6 1.2 -3 4 -1.6-1.2Zm-2.8-3.2l4-3 1.2 1.6 -4 3 -1.2-1.6Z"/><path d="M4.2 2.59l3 4 1.6-1.2 -3-4 -1.6 1.2Zm-2.8 3.2l4 3 1.2-1.6 -4-3 -1.2 1.6Z"/><g fill="#3747D6"><path d="M4.29 1.29c.18-.19.44-.3.7-.3h14c.26 0 .51.1.7.29l3 3c.18.18.29.44.29.7v14c0 .26-.11.51-.3.7l-3 3c-.19.18-.45.29-.71.29h-14c-.27 0-.52-.11-.71-.3l-3-3c-.19-.19-.3-.45-.3-.71v-14c0-.27.1-.52.29-.71l3-3Zm1.12 1.7L2.99 5.4v13.17l2.41 2.41h13.17l2.41-2.42V5.38l-2.42-2.42H5.38Z"/><path d="M7.09 5.29c.18-.19.44-.3.7-.3h8.4c.26 0 .51.1.7.29l1.8 1.8c.18.18.29.44.29.7v8.4c0 .26-.11.51-.3.7l-1.8 1.8c-.19.18-.45.29-.71.29h-8.4c-.27 0-.52-.11-.71-.3l-1.8-1.8c-.19-.19-.3-.45-.3-.71v-8.4c0-.27.1-.52.29-.71l1.8-1.8Zm1.12 1.7L6.99 8.2v7.57l1.21 1.21h7.57l1.21-1.22V8.18l-1.22-1.22H8.18Z"/></g></g></svg>