<svg viewBox="0 0 24 24" xmlns="http://www.w3.org/2000/svg"><g fill="#9545ED" fill-rule="evenodd"><path d="M19.55 6.83l-3 2 -1.11-1.67 3-2 1.1 1.66Z"/><path d="M4.44 6.83l3 2 1.1-1.67 -3-2L4.43 6.82Z"/><path d="M18.44 18.83l-3-2 1.1-1.67 3 2 -1.11 1.66Z"/><path d="M5.55 18.83l3-2 -1.11-1.67 -3 2 1.1 1.66Z"/><path d="M11 22v-4h2v4h-2Z"/><path d="M13 2v4h-2V2h2Z"/><g fill="#3747D6"><path d="M11.5 1.13c.3-.18.68-.18.99 0l7 4c.31.17.5.5.5.86v12c0 .35-.2.69-.51.86l-7 4c-.31.17-.69.17-1 0l-7.01-4c-.32-.18-.51-.51-.51-.87v-12c0-.36.19-.7.5-.87l7-4ZM5.99 6.57V17.4l6 3.42 6-3.43V6.55l-6-3.43 -6 3.42Z"/><path d="M11.55 5.1c.28-.15.61-.15.89 0l4 2c.33.16.55.51.55.89v8c0 .37-.22.72-.56.89l-4 2c-.29.14-.62.14-.9 0l-4.01-2c-.34-.17-.56-.52-.56-.9v-8c0-.38.21-.73.55-.9l4-2ZM8.99 8.61v6.76l3 1.5 3-1.5V8.6l-3-1.5 -3 1.5Z"/></g></g></svg>