<svg viewBox="0 0 24 24" xmlns="http://www.w3.org/2000/svg"><g fill="#9545ED" fill-rule="evenodd"><path d="M2 12c0-.56.44-1 1-1h6c.55 0 1 .44 1 1v6c0 .55-.45 1-1 1H3c-.56 0-1-.45-1-1v-6Zm2 1v4h4v-4H4Z"/><path d="M14 6c0-.56.44-1 1-1h6c.55 0 1 .44 1 1v12c0 .55-.45 1-1 1h-6c-.56 0-1-.45-1-1V6Zm2 1v10h4V7h-4Z"/><g fill="#3747D6"><path d="M1 18c0-.56.44-1 1-1h20c.55 0 1 .44 1 1v4c0 .55-.45 1-1 1H2c-.56 0-1-.45-1-1v-4Zm2 1v2h18v-2H3Z"/><path d="M1 8c0-.56.44-1 1-1h8c.55 0 1 .44 1 1v4c0 .55-.45 1-1 1H2c-.56 0-1-.45-1-1V8Zm2 1v2h6V9H3Z"/><path d="M13 2c0-.56.44-1 1-1h8c.55 0 1 .44 1 1v4c0 .55-.45 1-1 1h-8c-.56 0-1-.45-1-1V2Zm2 1v2h6V3h-6Z"/></g></g></svg>