<svg viewBox="0 0 24 24" xmlns="http://www.w3.org/2000/svg"><g fill="#9545ED" fill-rule="evenodd"><path d="M5.94 12.832c1.84-1.24 4.25-1.24 6.1 0l1 .67c1.17.78 2.7.78 3.88 0l.5-.34 1.1 1.66 -.51.33c-1.85 1.23-4.26 1.23-6.11 0l-1.01-.68c-1.18-.79-2.71-.79-3.89 0l-.51.33 -1.11-1.67 .5-.34Z"/><path fill="#3747D6" d="M9 5c0-.56.44-1 1-1h4c.55 0 1 .44 1 1v2h1c1.65 0 3 1.34 3 3v10c0 1.65-1.35 3-3 3H8c-1.66 0-3-1.35-3-3V10c0-1.66 1.34-3 3-3h1V5Zm2 1v2c0 .55-.45 1-1 1H8c-.56 0-1 .44-1 1v10c0 .55.44 1 1 1h8c.55 0 1-.45 1-1V10c0-.56-.45-1-1-1h-2c-.56 0-1-.45-1-1V6h-2Z"/><path d="M7 3.5C7 2.11 8.11 1 9.5 1h5C15.88 1 17 2.11 17 3.5 17 4.88 15.88 6 14.5 6h-5C8.11 6 7 4.88 7 3.5ZM9.5 3c-.28 0-.5.22-.5.5 0 .27.22.5.5.5h5c.27 0 .5-.23.5-.5 0-.28-.23-.5-.5-.5h-5Z"/></g></svg>