<svg viewBox="0 0 24 24" xmlns="http://www.w3.org/2000/svg"><g fill="#3747D6" fill-rule="evenodd"><path d="M1 2c0-.56.44-1 1-1h20c.55 0 1 .44 1 1v20c0 .55-.45 1-1 1H2c-.56 0-1-.45-1-1V2Zm2 1v18h18V3H3Z"/><g fill="#9545ED"><path d="M8.29 9.7l-4-4L5.7 4.28l4 4L8.28 9.69Z"/><path d="M5.7 9.7l4-4L8.28 4.28l-4 4 1.41 1.41Z"/><path d="M18.29 19.7l-4-4 1.41-1.42 4 4 -1.42 1.41Z"/><path d="M15.7 19.7l4-4 -1.42-1.42 -4 4 1.41 1.41Z"/><path d="M17.5 6c-.28 0-.5.22-.5.5 0 .27.22.5.5.5 .27 0 .5-.23.5-.5 0-.28-.23-.5-.5-.5Zm-2.5.5C15 5.11 16.11 4 17.5 4 18.88 4 20 5.11 20 6.5 20 7.88 18.88 9 17.5 9 16.11 9 15 7.88 15 6.5Z"/></g><path d="M13.5 10h-2V8h3c.55 0 1 .44 1 1v3h-2v-2Z"/><path d="M9.37 12.7l4.41-4.42 1.41 1.41 -4.42 4.41c-.19.18-.3.44-.3.7v2.17c0 1.65-1.35 3-3 3h-2.5v-2h2.5c.55 0 1-.45 1-1v-2.18c0-.8.31-1.56.87-2.13Z"/></g></svg>