<svg viewBox="0 0 24 24" xmlns="http://www.w3.org/2000/svg"><g fill="#3747D6" fill-rule="evenodd"><path d="M11.64 1.06c.22-.09.47-.09.7 0l8 3c.39.14.64.51.64.93v8.5c0 1.88-.89 3.66-2.4 4.8l-6 4.5c-.36.26-.85.26-1.2 0l-6-4.5c-1.52-1.14-2.4-2.92-2.4-4.8v-8.5c0-.42.25-.79.64-.94l8-3ZM4.99 5.68v7.807c0 1.25.59 2.44 1.6 3.2l5.4 4.05 5.4-4.05c1-.76 1.6-1.95 1.6-3.2V5.67l-7-2.625 -7 2.625Z"/><path fill="#9545ED" d="M9 10.5c0-.56.44-1 1-1h4c.55 0 1 .44 1 1V14c0 .55-.45 1-1 1h-4c-.56 0-1-.45-1-1v-3.5Zm2 1V13h2v-1.5h-2Z"/><path d="M8 15c0-1.11.89-2 2-2h4c1.1 0 2 .89 2 2v2c0 .55-.45 1-1 1H9c-.56 0-1-.45-1-1v-2Zm6 0h-4v1h4v-1Z"/><path d="M8 8c0-.56.44-1 1-1h6c.55 0 1 .44 1 1v2.5c0 .55-.45 1-1 1H9c-.56 0-1-.45-1-1V8Zm2 1v.5h4V9h-4Z"/><path d="M8 8V5.5h2V8H8Z"/><path d="M11 8V5.5h2V8h-2Z"/><path d="M14 8V5.5h2V8h-2Z"/></g></svg>