<svg viewBox="0 0 24 24" xmlns="http://www.w3.org/2000/svg"><g fill="#9545ED" fill-rule="evenodd"><path d="M22 23h-4.5v-2H22v2Z"/><path d="M16.57 13.81l-5 3.5c-.17.11-.37.18-.58.18h-6v-2h5.68l4.74-3.32 1.14 1.63Z"/><path d="M18.67 15.5l2.4-1.69 -1.15-1.64 -5 3.5c-.36.25-.52.7-.39 1.11 .13.41.51.69.95.69h6.5v-2h-3.33Z"/><path d="M6.05 7.39l-4-2 .89-1.79 3.55 1.77 3.55-1.78 .89 1.78 -4.01 2c-.29.14-.62.14-.9 0Z"/><path d="M5.5 11V6h2v5h-2Z"/><g fill="#3747D6"><path d="M10.06 12.37c.44-.25.94-.38 1.45-.38h10.48c.55 0 1 .44 1 1v6.5c0 .55-.45 1-1 1H17.4l-2.21 2.2c-.19.18-.45.29-.71.29H3.98c-1.66 0-3-1.35-3-3v-.83c0-1.09.59-2.1 1.54-2.63l7.51-4.18Zm1.45 1.62c-.17 0-.34.04-.49.12L3.5 18.28c-.32.17-.52.51-.52.87v.82c0 .55.44 1 1 1h10.08l2.2-2.21c.18-.19.44-.3.7-.3h4v-4.5h-9.49Z"/><path d="M6.5 3C4.56 3 3 4.56 3 6.5 3 8.43 4.56 10 6.5 10 8.43 10 10 8.43 10 6.5 10 4.56 8.43 3 6.5 3ZM1 6.5C1 3.46 3.46 1 6.5 1 9.53 1 12 3.46 12 6.5 12 9.53 9.53 12 6.5 12 3.46 12 1 9.53 1 6.5Z"/></g></g></svg>