<svg viewBox="0 0 24 24" xmlns="http://www.w3.org/2000/svg"><g fill-rule="evenodd"><path d="M1 3c0-.56.44-1 1-1h20c.55 0 1 .44 1 1v14.58c0 .55-.45 1-1 1H2c-.56 0-1-.45-1-1V2.99Zm2 1v12.58h18V3.99H3Z"/><path d="M1 17.58c0-.56.44-1 1-1h20c.55 0 1 .44 1 1v2.91c0 .55-.45 1-1 1H2c-.56 0-1-.45-1-1v-2.92Zm2 1v.91h18v-.92H3Z"/><path d="M5.5 15.15V5.42h2v9.72h-2Z"/><path d="M11 15.15V5.42h2v9.72h-2Z"/><path d="M16.5 15.15V5.42h2v9.72h-2Z"/><path d="M8.5 14h-4v-2h4v2Z"/><path d="M14 9h-4V7h4v2Z"/><path d="M19.5 12h-4v-2h4v2Z"/></g></svg>