<svg viewBox="0 0 24 24" xmlns="http://www.w3.org/2000/svg"><g fill-rule="evenodd"><path d="M22.59 4.19c.25.18.4.48.4.8v14c0 .3-.15.59-.39.78 -.25.18-.56.25-.86.18l-16.5-4c-.45-.11-.77-.52-.77-.98v-5c0-.45.28-.83.7-.96l16.5-5c.3-.1.63-.04.88.15Zm-16.1 6.54v3.47l14.5 3.51V6.32l-14.5 4.39Z"/><path d="M1.39 8.2c-.26.18-.4.48-.4.79v6.99c0 .31.14.6.39.79 .25.18.57.24.87.16l3.5-1c.42-.13.72-.52.72-.97v-5c0-.45-.3-.84-.73-.97l-3.5-1c-.31-.09-.63-.03-.88.16Zm3.1 2.55v3.49l-1.5.42v-4.35l1.5.42Z"/><path d="M6.5 19v-3.5h2V18H12v-1h2v2c0 .55-.45 1-1 1H7.5c-.56 0-1-.45-1-1Z"/></g></svg>