<svg viewBox="0 0 24 24" xmlns="http://www.w3.org/2000/svg"><g fill-rule="evenodd"><path d="M12 3c-4.98 0-9 4.02-9 9 0 4.97 4.02 9 9 9 4.97 0 9-4.03 9-9 0-4.98-4.03-9-9-9ZM1 12C1 5.92 5.92 1 12 1c6.07 0 11 4.92 11 11 0 6.07-4.93 11-11 11C5.92 23 1 18.07 1 12Z"/><path d="M12 5.5c-3.59 0-6.5 2.91-6.5 6.5 0 3.58 2.91 6.5 6.5 6.5 3.58 0 6.5-2.92 6.5-6.5 0-3.59-2.92-6.5-6.5-6.5ZM3.5 12c0-4.7 3.8-8.5 8.5-8.5 4.69 0 8.5 3.8 8.5 8.5 0 4.69-3.81 8.5-8.5 8.5 -4.7 0-8.5-3.81-8.5-8.5Z"/><path d="M12 8c-.28 0-.5.22-.5.5 0 .27.22.5.5.5 .27 0 .5-.23.5-.5 0-.28-.23-.5-.5-.5Zm-2.5.5C9.5 7.11 10.61 6 12 6c1.38 0 2.5 1.11 2.5 2.5 0 1.38-1.12 2.5-2.5 2.5 -1.39 0-2.5-1.12-2.5-2.5Z"/><path d="M12 15c-.28 0-.5.22-.5.5 0 .27.22.5.5.5 .27 0 .5-.23.5-.5 0-.28-.23-.5-.5-.5Zm-2.5.5c0-1.39 1.11-2.5 2.5-2.5 1.38 0 2.5 1.11 2.5 2.5 0 1.38-1.12 2.5-2.5 2.5 -1.39 0-2.5-1.12-2.5-2.5Z"/><path d="M8 12c0 .27.22.5.5.5 .27 0 .5-.23.5-.5 0-.28-.23-.5-.5-.5 -.28 0-.5.22-.5.5Zm.5 2.5C7.11 14.5 6 13.38 6 12c0-1.39 1.11-2.5 2.5-2.5 1.38 0 2.5 1.11 2.5 2.5 0 1.38-1.12 2.5-2.5 2.5Z"/><path d="M15 12c0 .27.22.5.5.5 .27 0 .5-.23.5-.5 0-.28-.23-.5-.5-.5 -.28 0-.5.22-.5.5Zm.5 2.5c-1.39 0-2.5-1.12-2.5-2.5 0-1.39 1.11-2.5 2.5-2.5 1.38 0 2.5 1.11 2.5 2.5 0 1.38-1.12 2.5-2.5 2.5Z"/><path d="M2 21h10v2H2v-2Z"/></g></svg>