<svg viewBox="0 0 24 24" xmlns="http://www.w3.org/2000/svg"><g fill-rule="evenodd"><path d="M5 7c0-3.32 2.68-6 6-6h2c3.31 0 6 2.68 6 6v15c0 .38-.23.74-.58.9 -.36.16-.77.11-1.07-.14l-2.36-1.97 -2.36 1.96c-.38.3-.91.3-1.29 0l-2.36-1.97 -2.36 1.96c-.3.24-.72.3-1.07.13 -.36-.17-.58-.52-.58-.91v-15Zm6-4C8.79 3 7 4.79 7 7v12.86l1.35-1.14c.37-.31.9-.31 1.28 0l2.35 1.96 2.35-1.97c.37-.31.9-.31 1.28 0l1.35 1.13V6.97c0-2.21-1.8-4-4-4h-2Z"/><path d="M10.88 11h2.23c-.28-.31-.68-.5-1.12-.5 -.45 0-.85.19-1.12.5Zm-2.39 1c0-1.94 1.56-3.5 3.5-3.5 1.93 0 3.5 1.56 3.5 3.5 0 .55-.45 1-1 1h-5c-.56 0-1-.45-1-1Z"/><path d="M13.05 6.1l2-1 .89 1.78 -2 1 -.9-1.79Z"/><path d="M10.94 6.1l-2.01-1 -.9 1.78 1.99 1 .89-1.79Z"/></g></svg>