<svg viewBox="0 0 24 24" xmlns="http://www.w3.org/2000/svg"><g fill-rule="evenodd"><path d="M1 4.5c0-.56.44-1 1-1h20c.55 0 1 .44 1 1v12c0 .55-.45 1-1 1H2c-.56 0-1-.45-1-1v-12Zm2 1v10h18v-10H3Z"/><path d="M9.55 16.18c.13-.41.51-.69.94-.69h3c.43 0 .81.27.94.68l1 3c.1.3.05.64-.14.9s-.49.41-.82.41h-5c-.33 0-.63-.16-.82-.42 -.19-.27-.24-.6-.14-.91l1-3Zm1.66 1.31l-.34 1h2.22l-.34-1h-1.56Z"/><path d="M3 18.5h18v2H3v-2Z"/><path d="M8.97 7.14c.29-.19.66-.2.97-.05l4.99 2.5c.33.16.55.51.55.89 0 .37-.22.72-.56.89l-5 2.5c-.31.15-.68.13-.98-.05 -.3-.19-.48-.51-.48-.86v-5c0-.35.17-.67.47-.86Zm1.52 2.46v1.76l1.76-.89 -1.77-.89Z"/></g></svg>