<svg viewBox="0 0 24 24" xmlns="http://www.w3.org/2000/svg"><g fill-rule="evenodd"><path d="M1 6.5c0-.56.44-1 1-1h20c.55 0 1 .44 1 1v3c0 .55-.45 1-1 1 -.83 0-1.5.67-1.5 1.5 0 .82.67 1.5 1.5 1.5 .55 0 1 .44 1 1v3c0 .55-.45 1-1 1H2c-.56 0-1-.45-1-1v-3c0-.56.44-1 1-1 .82 0 1.5-.68 1.5-1.5 0-.83-.68-1.5-1.5-1.5 -.56 0-1-.45-1-1v-3Zm2 1v1.14c1.44.43 2.5 1.76 2.5 3.35 0 1.58-1.06 2.92-2.5 3.35v1.14h18v-1.15c-1.45-.44-2.5-1.77-2.5-3.36 0-1.59 1.05-2.93 2.5-3.36V7.46H3Z"/><path d="M16 9V6.5h2V9h-2Z"/><path d="M16 13.5V11h2v2.5h-2Z"/><path d="M16 17.5v-2h2v2h-2Z"/><path d="M14 11.5H7v-2h7v2Z"/><path d="M14 14.5H7v-2h7v2Z"/></g></svg>