<svg viewBox="0 0 24 24" xmlns="http://www.w3.org/2000/svg"><g fill-rule="evenodd"><path d="M2 12c0-1.66 1.34-3 3-3h9.5c1.65 0 3 1.34 3 3v.46l3.09-1.375c.3-.14.66-.11.95.07 .28.18.45.5.45.83v8c0 .33-.18.65-.46.83 -.29.18-.65.21-.96.07l-3.1-1.375v.46c0 1.65-1.35 3-3 3h-9.5c-1.66 0-3-1.35-3-3v-8Zm3-1c-.56 0-1 .44-1 1v8c0 .55.44 1 1 1h9.5c.55 0 1-.45 1-1v-1.24c0-1.09 1.11-1.82 2.1-1.38l2.39 1.06v-4.93l-2.4 1.06c-1 .44-2.11-.29-2.11-1.38v-1.24c0-.56-.45-1-1-1h-9.5Z"/><path d="M13 3c-1.11 0-2 .89-2 2 0 1.1.89 2 2 2 1.1 0 2-.9 2-2 0-1.11-.9-2-2-2ZM9 5c0-2.21 1.79-4 4-4 2.2 0 4 1.79 4 4 0 2.2-1.8 4-4 4 -2.21 0-4-1.8-4-4Z"/><path d="M5.5 4C4.67 4 4 4.67 4 5.5 4 6.32 4.67 7 5.5 7 6.32 7 7 6.32 7 5.5 7 4.67 6.32 4 5.5 4ZM2 5.5C2 3.56 3.56 2 5.5 2 7.43 2 9 3.56 9 5.5 9 7.43 7.43 9 5.5 9 3.56 9 2 7.43 2 5.5Z"/><path d="M6.97 12.64c.29-.19.66-.2.97-.05l4.99 2.5c.33.16.55.51.55.89 0 .37-.22.72-.56.89l-5 2.5c-.31.15-.68.13-.98-.05 -.3-.19-.48-.51-.48-.86v-5c0-.35.17-.67.47-.86Zm1.52 2.46v1.76l1.76-.89 -1.77-.89Z"/></g></svg>