<svg viewBox="0 0 24 24" xmlns="http://www.w3.org/2000/svg"><g fill-rule="evenodd"><path d="M1.25 9.5c0-.42.33-.75.75-.75h20c.41 0 .75.33.75.75v11c0 .41-.34.75-.75.75H2c-.42 0-.75-.34-.75-.75v-1c0-.42.33-.75.75-.75 .41 0 .75.33.75.75v.25h18.5v-9.5H2.75v5.25c0 .41-.34.75-.75.75 -.42 0-.75-.34-.75-.75v-6Z"/><path d="M1.25 6.5c0-.42.33-.75.75-.75h20c.41 0 .75.33.75.75v3c0 .41-.34.75-.75.75H2c-.42 0-.75-.34-.75-.75v-3Zm1.5.75v1.5h18.5v-1.5H2.75Z"/><path d="M3.25 3.5c0-.42.33-.75.75-.75h4c.41 0 .75.33.75.75v3c0 .41-.34.75-.75.75H4c-.42 0-.75-.34-.75-.75v-3Zm1.5.75v1.5h2.5v-1.5h-2.5Z"/><path d="M15.75 3.5c0-.42.33-.75.75-.75h4c.41 0 .75.33.75.75v3c0 .41-.34.75-.75.75h-4c-.42 0-.75-.34-.75-.75v-3Zm1.5.75v1.5h2.5v-1.5h-2.5Z"/><path d="M12.33 11.32c.37.18.52.63.33 1l-.96 1.91h1.78c.25 0 .5.13.63.35 .13.22.14.49.03.72l-1.5 3c-.19.37-.64.52-1.01.33 -.38-.19-.53-.64-.34-1.01l.95-1.92h-1.79c-.26 0-.51-.14-.64-.36 -.14-.23-.15-.5-.04-.73l1.5-3c.18-.38.63-.53 1-.34Z"/></g></svg>