<svg viewBox="0 0 24 24" xmlns="http://www.w3.org/2000/svg"><g fill-rule="evenodd"><path d="M6.06 7.94c.23-.72.9-1.2 1.66-1.2h3.77c.41 0 .75.33.75.75v.5c0 .41-.34.75-.75.75 -.33 0-.61-.21-.71-.5H7.7c-.11 0-.21.06-.24.17l-.78 2.31c-.11.3-.39.51-.72.51H2.71v3.5h1.25c.41 0 .75.33.75.75 0 .41-.34.75-.75.75h-2c-.42 0-.75-.34-.75-.75v-5c0-.42.33-.75.75-.75h3.45l.6-1.81Zm5.43 3.3c.41 0 .75.33.75.75v3.5c0 .41-.34.75-.75.75h-4.5c-.42 0-.75-.34-.75-.75 0-.42.33-.75.75-.75h3.75v-2.75c0-.42.33-.75.75-.75Z"/><path d="M22.75 15.5c0-.42-.34-.75-.75-.75h-1c-.42 0-.75.33-.75.75 0 .41.33.75.75.75h1c.41 0 .75-.34.75-.75Zm-8.5 0c0-.42-.34-.75-.75-.75H10c-.42 0-.75.33-.75.75 0 .41.33.75.75.75h3.5c.41 0 .75-.34.75-.75Z"/><path d="M5.5 14.75c-.42 0-.75.33-.75.75 0 .41.33.75.75.75 .41 0 .75-.34.75-.75 0-.42-.34-.75-.75-.75Zm-2.25.75c0-1.25 1-2.25 2.25-2.25 1.24 0 2.25 1 2.25 2.25 0 1.24-1.01 2.25-2.25 2.25 -1.25 0-2.25-1.01-2.25-2.25Z"/><path d="M19.5 14.75c-.42 0-.75.33-.75.75 0 .41.33.75.75.75 .41 0 .75-.34.75-.75 0-.42-.34-.75-.75-.75Zm-2.25.75c0-1.25 1-2.25 2.25-2.25 1.24 0 2.25 1 2.25 2.25 0 1.24-1.01 2.25-2.25 2.25 -1.25 0-2.25-1.01-2.25-2.25Z"/><path d="M15 14.75c-.42 0-.75.33-.75.75 0 .41.33.75.75.75 .41 0 .75-.34.75-.75 0-.42-.34-.75-.75-.75Zm-2.25.75c0-1.25 1-2.25 2.25-2.25 1.24 0 2.25 1 2.25 2.25 0 1.24-1.01 2.25-2.25 2.25 -1.25 0-2.25-1.01-2.25-2.25Z"/><path d="M14.09 6.25c.41 0 .75.33.75.75v5c0 .31-.2.58-.49.69l-2.6 1c-.39.14-.83-.05-.97-.44 -.15-.39.04-.83.43-.97l2.11-.82V6.97c0-.42.33-.75.75-.75Z"/></g></svg>