<svg viewBox="0 0 24 24" xmlns="http://www.w3.org/2000/svg"><g fill-rule="evenodd"><path d="M5.92 7.51c.14-.18.35-.27.57-.27h4.5c.41 0 .75.33.75.75v8c0 .41-.34.75-.75.75h-3c-.42 0-.75-.34-.75-.75 0-.42.33-.75.75-.75h2.25v-6.5h-3.4l-2.28 2.73c-.15.17-.36.26-.58.26h-1c-.14 0-.25.11-.25.25v3.25h1.25c.41 0 .75.33.75.75 0 .41-.34.75-.75.75h-2c-.42 0-.75-.34-.75-.75v-4c0-.97.78-1.75 1.75-1.75h.64l2.27-2.74Z"/><path d="M22.75 6c0-.42-.34-.75-.75-.75h-1c-.42 0-.75.33-.75.75 0 .41.33.75.75.75h.25v8.5H19c-.42 0-.75.33-.75.75 0 .41.33.75.75.75h3c.41 0 .75-.34.75-.75V6Zm-5 0c0-.42-.34-.75-.75-.75h-6c-.42 0-.75.33-.75.75v10c0 .41.33.75.75.75h4c.41 0 .75-.34.75-.75 0-.42-.34-.75-.75-.75h-3.25v-8.5H17c.41 0 .75-.34.75-.75Z"/><path d="M6 14.75c-.7 0-1.25.55-1.25 1.25 0 .69.55 1.25 1.25 1.25 .69 0 1.25-.56 1.25-1.25 0-.7-.56-1.25-1.25-1.25ZM3.25 16c0-1.52 1.23-2.75 2.75-2.75 1.51 0 2.75 1.23 2.75 2.75 0 1.51-1.24 2.75-2.75 2.75 -1.52 0-2.75-1.24-2.75-2.75Z"/><path d="M17 14.75c-.7 0-1.25.55-1.25 1.25 0 .69.55 1.25 1.25 1.25 .69 0 1.25-.56 1.25-1.25 0-.7-.56-1.25-1.25-1.25ZM14.25 16c0-1.52 1.23-2.75 2.75-2.75 1.51 0 2.75 1.23 2.75 2.75 0 1.51-1.24 2.75-2.75 2.75 -1.52 0-2.75-1.24-2.75-2.75Z"/></g></svg>