<svg viewBox="0 0 24 24" xmlns="http://www.w3.org/2000/svg"><g fill-rule="evenodd"><path d="M9.75 13c0-.97.78-1.75 1.75-1.75h1c.96 0 1.75.78 1.75 1.75v8c0 .96-.79 1.75-1.75 1.75h-1c-.97 0-1.75-.79-1.75-1.75v-3c0-.42.33-.75.75-.75 .41 0 .75.33.75.75v3c0 .13.11.25.25.25h1c.13 0 .25-.12.25-.25v-8c0-.14-.12-.25-.25-.25h-1c-.14 0-.25.11-.25.25v1c0 .41-.34.75-.75.75 -.42 0-.75-.34-.75-.75v-1Z"/><path d="M12 2.75c-.7 0-1.25.55-1.25 1.25 0 .69.55 1.25 1.25 1.25 .69 0 1.25-.56 1.25-1.25 0-.7-.56-1.25-1.25-1.25ZM9.25 4c0-1.52 1.23-2.75 2.75-2.75 1.51 0 2.75 1.23 2.75 2.75 0 1.51-1.24 2.75-2.75 2.75 -1.52 0-2.75-1.24-2.75-2.75Z"/><path d="M10.73 3.33c.08.4-.17.8-.57.89l-4.51 1c-.41.08-.81-.17-.9-.57 -.09-.41.16-.81.56-.9l4.5-1c.4-.09.8.16.89.56Z"/><path d="M13.26 3.33c-.09.4.16.8.56.89l4.5 1c.4.08.8-.17.89-.57 .08-.41-.17-.81-.57-.9l-4.5-1c-.41-.09-.81.16-.9.56Z"/><path d="M9.5 10.25c-.42 0-.75.33-.75.75v7c0 .41-.34.75-.75.75 -.42 0-.75-.34-.75-.75v-7c0-1.25 1-2.25 2.25-2.25h5c1.24 0 2.25 1 2.25 2.25v7c0 .41-.34.75-.75.75 -.42 0-.75-.34-.75-.75v-7c0-.42-.34-.75-.75-.75h-5Z"/><path d="M10.5 4.75c.41 0 .75.33.75.75v4c0 .41-.34.75-.75.75 -.42 0-.75-.34-.75-.75v-4c0-.42.33-.75.75-.75Z"/><path d="M13.5 4.75c.41 0 .75.33.75.75v4c0 .41-.34.75-.75.75 -.42 0-.75-.34-.75-.75v-4c0-.42.33-.75.75-.75Z"/></g></svg>