<svg viewBox="0 0 24 24" xmlns="http://www.w3.org/2000/svg"><g fill-rule="evenodd"><path d="M16.98 4.04c-.52-.52-1.35-.49-1.83.06l-4.37 4.98c-.44.49-.41 1.24.05 1.7l2.35 2.35c.46.46 1.21.49 1.7.05l4.98-4.37c.54-.48.57-1.32.06-1.83L16.94 4Zm-2.96-.93c1.04-1.2 2.88-1.26 4.01-.14L21 5.94c1.12 1.12 1.06 2.96-.14 4.01l-4.99 4.36c-1.09.95-2.74.89-3.76-.13l-2.36-2.36c-1.03-1.03-1.08-2.67-.125-3.76l4.36-4.99Z"/><path d="M9.46 10.46c.29-.3.76-.3 1.06 0l3 3c.29.29.29.76 0 1.06l-2.5 2.5c-.3.29-.77.29-1.07 0 -.3-.3-.3-.77 0-1.07l1.96-1.97 -1.94-1.94 -7.25 7.25v1.93h1.93l2.28-2.29c.29-.3.76-.3 1.06 0 .29.29.29.76 0 1.06l-2.5 2.5c-.15.14-.34.21-.54.21h-3c-.42 0-.75-.34-.75-.75v-3c0-.2.07-.39.21-.54l8-8Z"/><path d="M12.46 8.46c.29-.3.76-.3 1.06 0l2 2c.29.29.29.76 0 1.06 -.3.29-.77.29-1.07 0l-2-2c-.3-.3-.3-.77 0-1.07Z"/><path d="M14.46 6.46c.29-.3.76-.3 1.06 0l2 2c.29.29.29.76 0 1.06 -.3.29-.77.29-1.07 0l-2-2c-.3-.3-.3-.77 0-1.07Z"/></g></svg>