<svg viewBox="0 0 24 24" xmlns="http://www.w3.org/2000/svg"><g fill-rule="evenodd"><path d="M6.3 3.72c.11-.29.38-.48.69-.48h4.5c.41 0 .75.33.75.75 0 .41-.34.75-.75.75h-4l-1.4 3.5h11.78l-1.4-3.5h-1c-.42 0-.75-.34-.75-.75 0-.42.33-.75.75-.75h1.5c.3 0 .58.18.69.47l2 5c.09.23.06.49-.08.69 -.14.2-.38.32-.63.32h-14c-.25 0-.49-.13-.63-.33 -.14-.21-.17-.47-.08-.7l2-5Z"/><path d="M2.25 10c0-.97.78-1.75 1.75-1.75h16c.96 0 1.75.78 1.75 1.75v5c0 .96-.79 1.75-1.75 1.75H4c-.97 0-1.75-.79-1.75-1.75v-5ZM4 9.75c-.14 0-.25.11-.25.25v5c0 .13.11.25.25.25h16c.13 0 .25-.12.25-.25v-5c0-.14-.12-.25-.25-.25H4Z"/><path d="M4 15.25c.41 0 .75.33.75.75v3c0 .13.11.25.25.25h2c.13 0 .25-.12.25-.25v-3c0-.42.33-.75.75-.75 .41 0 .75.33.75.75v3c0 .96-.79 1.75-1.75 1.75H5c-.97 0-1.75-.79-1.75-1.75v-3c0-.42.33-.75.75-.75Z"/><path d="M16 15.25c.41 0 .75.33.75.75v3c0 .13.11.25.25.25h2c.13 0 .25-.12.25-.25v-3c0-.42.33-.75.75-.75 .41 0 .75.33.75.75v3c0 .96-.79 1.75-1.75 1.75h-2c-.97 0-1.75-.79-1.75-1.75v-3c0-.42.33-.75.75-.75Z"/><path d="M14.25 12c0-.42.33-.75.75-.75h3c.41 0 .75.33.75.75 0 .41-.34.75-.75.75h-3c-.42 0-.75-.34-.75-.75Z"/><path d="M5.25 12c0-.42.33-.75.75-.75h3c.41 0 .75.33.75.75 0 .41-.34.75-.75.75H6c-.42 0-.75-.34-.75-.75Z"/></g></svg>