<svg viewBox="0 0 24 24" xmlns="http://www.w3.org/2000/svg"><g fill-rule="evenodd"><path d="M8.96 5.96c.14-.15.33-.22.53-.22h1.5c.41 0 .75.33.75.75 0 .41-.34.75-.75.75H9.8L5.73 11.3v2.93h11.25c.41 0 .75.33.75.75 0 .41-.34.75-.75.75h-12c-.42 0-.75-.34-.75-.75v-4c0-.2.07-.39.21-.54l4.5-4.51Zm5.28.53c0-.42.33-.75.75-.75h7c.41 0 .75.33.75.75v8.5c0 .41-.34.75-.75.75h-2c-.42 0-.75-.34-.75-.75 0-.42.33-.75.75-.75h1.25v-7h-6.25c-.42 0-.75-.34-.75-.75Z"/><path d="M18.5 14.25c-.42 0-.75.33-.75.75 0 .41.33.75.75.75 .41 0 .75-.34.75-.75 0-.42-.34-.75-.75-.75Zm-2.25.75c0-1.25 1-2.25 2.25-2.25 1.24 0 2.25 1 2.25 2.25 0 1.24-1.01 2.25-2.25 2.25 -1.25 0-2.25-1.01-2.25-2.25Z"/><path d="M1.25 15c0-.42.33-.75.75-.75h4c.41 0 .75.33.75.75 0 .41-.34.75-.75.75H2.75v1.75c0 .41-.34.75-.75.75 -.42 0-.75-.34-.75-.75V15Z"/><path d="M9.25 10c0-.42.33-.75.75-.75h3c.41 0 .75.33.75.75v5c0 .41-.34.75-.75.75h-3c-.42 0-.75-.34-.75-.75v-5Zm1.5.75v3.5h1.5v-3.5h-1.5Z"/><path d="M15.25 10c0-.42.33-.75.75-.75h3.5c.41 0 .75.33.75.75 0 .41-.34.75-.75.75H16c-.42 0-.75-.34-.75-.75Z"/></g></svg>