<svg viewBox="0 0 24 24" xmlns="http://www.w3.org/2000/svg"><g fill-rule="evenodd"><path d="M7.36 8.1c.13-.23.37-.36.63-.36h3.5c1.51 0 2.75 1.23 2.75 2.75v1c0 .41-.34.75-.75.75h-4c-.29 0-.55-.17-.68-.42l-1.5-3c-.12-.24-.11-.51.03-.73Zm1.85 1.14l.75 1.5h2.78v-.25c0-.7-.56-1.25-1.25-1.25H9.2Z"/><path d="M8.87 11.09c.13-.22.37-.35.62-.35h7c.25 0 .49.12.62.34 .13.21.15.48.05.71l-2 4.5c-.13.27-.39.44-.69.44h-3c-.3 0-.57-.18-.69-.45l-2-4.5c-.11-.24-.09-.51.05-.72Zm1.78 1.15l1.33 3H14l1.33-3h-4.7Z"/><path d="M4.5 14.25c-.97 0-1.75.78-1.75 1.75 0 .96.78 1.75 1.75 1.75 .96 0 1.75-.79 1.75-1.75 0-.97-.79-1.75-1.75-1.75ZM1.25 16c0-1.8 1.45-3.25 3.25-3.25 1.79 0 3.25 1.45 3.25 3.25 0 1.79-1.46 3.25-3.25 3.25 -1.8 0-3.25-1.46-3.25-3.25Z"/><path d="M19.5 14.25c-.97 0-1.75.78-1.75 1.75 0 .96.78 1.75 1.75 1.75 .96 0 1.75-.79 1.75-1.75 0-.97-.79-1.75-1.75-1.75ZM16.25 16c0-1.8 1.45-3.25 3.25-3.25 1.79 0 3.25 1.45 3.25 3.25 0 1.79-1.46 3.25-3.25 3.25 -1.8 0-3.25-1.46-3.25-3.25Z"/><path d="M9.9 5.05c.14-.19.36-.3.59-.3h2.18c.41 0 .75.33.75.75 0 .41-.34.75-.75.75h-1.82l-5.78 7.7c-.25.33-.72.39-1.05.15 -.34-.25-.4-.72-.15-1.05l6-8Z"/><path d="M19.25 11.5c0-.42.33-.75.75-.75h2c.41 0 .75.33.75.75 0 .41-.34.75-.75.75h-2c-.42 0-.75-.34-.75-.75Z"/><path d="M4.46 5.96c.14-.15.33-.22.53-.22h1.25c1.1 0 2 .89 2 2 0 1.1-.9 2-2 2H4.99c-.42 0-.75-.34-.75-.75l-.01-2.5c-.01-.2.07-.39.21-.54Zm1.28 1.28l0 1h.49c.27 0 .5-.23.5-.5 0-.28-.23-.5-.5-.5h-.5Z"/></g></svg>