<svg viewBox="0 0 24 24" xmlns="http://www.w3.org/2000/svg"><g fill-rule="evenodd"><path d="M11.84 10.26c.1-.03.21-.03.31 0l7 1.5c.34.07.59.37.59.73v5.23c0 1.67-1.11 3.14-2.72 3.6l-4.83 1.37c-.14.03-.28.03-.42 0l-4.83-1.38c-1.61-.46-2.72-1.94-2.72-3.61v-5.24c0-.36.24-.66.59-.74l7-1.5Zm-6.1 2.83v4.63c0 1 .66 1.88 1.63 2.16l4.61 1.31 4.61-1.32c.96-.28 1.63-1.16 1.63-2.17v-4.64l-6.25-1.34 -6.25 1.33Z"/><path d="M12 10.25c.41 0 .75.33.75.75v11c0 .41-.34.75-.75.75 -.42 0-.75-.34-.75-.75V11c0-.42.33-.75.75-.75Z"/><path d="M5.25 9c0-.42.33-.75.75-.75h6c.41 0 .75.33.75.75v3c0 .41-.34.75-.75.75 -.42 0-.75-.34-.75-.75V9.75h-4.5V12c0 .41-.34.75-.75.75 -.42 0-.75-.34-.75-.75V9Z"/><path d="M11.25 9c0-.42.33-.75.75-.75h6c.41 0 .75.33.75.75v3c0 .41-.34.75-.75.75 -.42 0-.75-.34-.75-.75V9.75h-4.5V12c0 .41-.34.75-.75.75 -.42 0-.75-.34-.75-.75V9Z"/><path d="M11.25 6c0-.42.33-.75.75-.75h6c.41 0 .75.33.75.75v3c0 .41-.34.75-.75.75h-6c-.42 0-.75-.34-.75-.75V6Zm1.5.75v1.5h4.5v-1.5h-4.5Z"/><path d="M5.25 6c0-.42.33-.75.75-.75h6c.41 0 .75.33.75.75v3c0 .41-.34.75-.75.75H6c-.42 0-.75-.34-.75-.75V6Zm1.5.75v1.5h4.5v-1.5h-4.5Z"/><path d="M6.4 1.53c.14-.19.36-.29.59-.29h2.99c.41 0 .75.33.75.75 0 .41-.34.75-.75.75H7.94l.625 2.5h6.82l.62-2.5h-2.04c-.42 0-.75-.34-.75-.75 0-.42.33-.75.75-.75h3c.23 0 .44.1.59.28 .14.18.19.41.13.64l-1 4c-.09.33-.39.56-.73.56h-8c-.35 0-.65-.24-.73-.57l-1-4c-.06-.23-.01-.47.13-.65Z"/></g></svg>