<svg viewBox="0 0 24 24" xmlns="http://www.w3.org/2000/svg"><g fill-rule="evenodd"><path d="M7.36 9.26c.04-.01.08-.02.13-.02h13c1.24 0 2.25 1 2.25 2.25v3.5c0 .41-.34.75-.75.75h-2c-.42 0-.75-.34-.75-.75 0-.42.33-.75.75-.75h1.25v-2.75c0-.42-.34-.75-.75-.75H7.55l-4.21.76c-.36.06-.62.37-.62.73v1.99h1.25c.41 0 .75.33.75.75 0 .41-.34.75-.75.75h-2c-.42 0-.75-.34-.75-.75v-2.75c0-1.09.77-2.02 1.84-2.22l4.26-.78Zm-.12 5.73c0-.42.33-.75.75-.75h1c.41 0 .75.33.75.75 0 .41-.34.75-.75.75h-1c-.42 0-.75-.34-.75-.75Zm5 0c0-.42.33-.75.75-.75h3c.41 0 .75.33.75.75 0 .41-.34.75-.75.75h-3c-.42 0-.75-.34-.75-.75Z"/><path d="M6 13.75c-.7 0-1.25.55-1.25 1.25 0 .69.55 1.25 1.25 1.25 .69 0 1.25-.56 1.25-1.25 0-.7-.56-1.25-1.25-1.25ZM3.25 15c0-1.52 1.23-2.75 2.75-2.75 1.51 0 2.75 1.23 2.75 2.75 0 1.51-1.24 2.75-2.75 2.75 -1.52 0-2.75-1.24-2.75-2.75Z"/><path d="M18 13.75c-.7 0-1.25.55-1.25 1.25 0 .69.55 1.25 1.25 1.25 .69 0 1.25-.56 1.25-1.25 0-.7-.56-1.25-1.25-1.25ZM15.25 15c0-1.52 1.23-2.75 2.75-2.75 1.51 0 2.75 1.23 2.75 2.75 0 1.51-1.24 2.75-2.75 2.75 -1.52 0-2.75-1.24-2.75-2.75Z"/><path d="M11.53 6.46c.29.29.29.76 0 1.06l-3 2.99c-.3.29-.77.29-1.07 0 -.3-.3-.3-.77 0-1.07l3-3c.29-.3.76-.3 1.06 0Z"/><path d="M13.25 6c0-.42.33-.75.75-.75h1.14c1.42 0 2.71.8 3.35 2.07l1.17 2.34c.11.23.1.5-.04.72 -.14.22-.38.35-.64.35h-5c-.42 0-.75-.34-.75-.75v-4Zm1.5.75v2.5h3.03l-.63-1.26c-.39-.77-1.17-1.25-2.02-1.25h-.4Z"/></g></svg>