<svg viewBox="0 0 24 24" xmlns="http://www.w3.org/2000/svg"><g fill-rule="evenodd"><path d="M6.05 8.9c.25-.7.9-1.16 1.64-1.16h8.59c.73 0 1.39.46 1.64 1.15l1.76 4.84c.08.22.04.48-.1.68 -.15.2-.37.31-.62.31h-14c-.25 0-.48-.12-.62-.32 -.15-.21-.18-.46-.1-.69L6 8.86Zm1.64.34c-.11 0-.2.06-.24.16l-1.4 3.83H17.9l-1.4-3.84c-.04-.1-.13-.17-.24-.17h-8.6Z"/><path d="M2.25 15c0-.97.78-1.75 1.75-1.75h16c.96 0 1.75.78 1.75 1.75v3c0 .96-.79 1.75-1.75 1.75h-6c-.42 0-.75-.34-.75-.75 0-.42.33-.75.75-.75h6c.13 0 .25-.12.25-.25v-3c0-.14-.12-.25-.25-.25H4c-.14 0-.25.11-.25.25v3c0 .13.11.25.25.25h6c.41 0 .75.33.75.75 0 .41-.34.75-.75.75H4c-.97 0-1.75-.79-1.75-1.75v-3Z"/><path d="M4 18.25c.41 0 .75.33.75.75v2c0 .13.11.25.25.25h2c.13 0 .25-.12.25-.25v-2c0-.42.33-.75.75-.75 .41 0 .75.33.75.75v2c0 .96-.79 1.75-1.75 1.75H5c-.97 0-1.75-.79-1.75-1.75v-2c0-.42.33-.75.75-.75Z"/><path d="M16 18.25c.41 0 .75.33.75.75v2c0 .13.11.25.25.25h2c.13 0 .25-.12.25-.25v-2c0-.42.33-.75.75-.75 .41 0 .75.33.75.75v2c0 .96-.79 1.75-1.75 1.75h-2c-.97 0-1.75-.79-1.75-1.75v-2c0-.42.33-.75.75-.75Z"/><path d="M14.25 16.5c0-.42.33-.75.75-.75h3c.41 0 .75.33.75.75 0 .41-.34.75-.75.75h-3c-.42 0-.75-.34-.75-.75Z"/><path d="M5.25 16.5c0-.42.33-.75.75-.75h3c.41 0 .75.33.75.75 0 .41-.34.75-.75.75H6c-.42 0-.75-.34-.75-.75Z"/><path d="M13.28 1.77c.09-.32.38-.53.71-.53h5c.41 0 .75.33.75.75v.5c0 .41-.34.75-.75.75 -.33 0-.61-.21-.71-.5h-3.74L12.7 8.71c-.13.39-.55.61-.94.49 -.4-.13-.62-.55-.5-.94l2-6.5Z"/><path d="M19 1.25c.41 0 .75.33.75.75v2.5c0 .41-.34.75-.75.75h-.75c-.28 0-.5.22-.5.5 0 .27.22.5.5.5H19c.41 0 .75.33.75.75 0 .41-.34.75-.75.75h-.75c-1.11 0-2-.9-2-2 0-1.11.89-2 2-2V2c0-.42.33-.75.75-.75Z"/></g></svg>