<svg viewBox="0 0 24 24" xmlns="http://www.w3.org/2000/svg"><g fill-rule="evenodd"><path d="M7.46 8.46c.14-.15.33-.22.53-.22h4c.41 0 .75.33.75.75v8c0 .41-.34.75-.75.75h-4c-.42 0-.75-.34-.75-.75 0-.42.33-.75.75-.75h3.25v-6.5H8.3l-2.79 2.78c-.15.14-.34.21-.54.21h-2c-.14 0-.25.11-.25.25v3.25h1.25c.41 0 .75.33.75.75 0 .41-.34.75-.75.75h-2c-.42 0-.75-.34-.75-.75v-4c0-.97.78-1.75 1.75-1.75h1.68l2.78-2.79Z"/><path d="M22.75 13c0-.42-.34-.75-.75-.75h-2c-.42 0-.75.33-.75.75 0 .41.33.75.75.75h1.25v1.7l-2.49.82c-.4.13-.61.55-.48.94 .13.39.55.6.94.47l3-1c.3-.11.51-.39.51-.72v-3Zm-6 0c0-.42-.34-.75-.75-.75h-4c-.42 0-.75.33-.75.75v4c0 .41.33.75.75.75h3c.41 0 .75-.34.75-.75 0-.42-.34-.75-.75-.75h-2.25v-2.5H16c.41 0 .75-.34.75-.75Z"/><path d="M6 15.75c-.7 0-1.25.55-1.25 1.25 0 .69.55 1.25 1.25 1.25 .69 0 1.25-.56 1.25-1.25 0-.7-.56-1.25-1.25-1.25ZM3.25 17c0-1.52 1.23-2.75 2.75-2.75 1.51 0 2.75 1.23 2.75 2.75 0 1.51-1.24 2.75-2.75 2.75 -1.52 0-2.75-1.24-2.75-2.75Z"/><path d="M17 15.75c-.7 0-1.25.55-1.25 1.25 0 .69.55 1.25 1.25 1.25 .69 0 1.25-.56 1.25-1.25 0-.7-.56-1.25-1.25-1.25ZM14.25 17c0-1.52 1.23-2.75 2.75-2.75 1.51 0 2.75 1.23 2.75 2.75 0 1.51-1.24 2.75-2.75 2.75 -1.52 0-2.75-1.24-2.75-2.75Z"/><path d="M15.27 4.81c.08-.34.38-.57.72-.57h5c.41 0 .75.33.75.75v.5c0 .41-.34.75-.75.75 -.33 0-.61-.21-.71-.5h-3.71l-1.86 7.43c-.11.4-.51.64-.91.54 -.41-.11-.65-.51-.55-.91l2-8Z"/><path d="M21 4.25c.41 0 .75.33.75.75v2.5c0 .41-.34.75-.75.75h-.75c-.28 0-.5.22-.5.5 0 .27.22.5.5.5H21c.41 0 .75.33.75.75 0 .41-.34.75-.75.75h-.75c-1.11 0-2-.9-2-2 0-1.11.89-2 2-2V5c0-.42.33-.75.75-.75Z"/></g></svg>