<svg viewBox="0 0 24 24" xmlns="http://www.w3.org/2000/svg"><g fill-rule="evenodd"><path d="M7 9.75c-2.35 0-4.25 1.9-4.25 4.25v1.25h7.75l1.3-3.05c.09-.23.28-.39.52-.44l7.37-1.67 .15-.36h-.87c-.42 0-.75-.34-.75-.75 0-.42.33-.75.75-.75h2c.25 0 .48.12.62.33 .13.21.16.47.06.7L20.9 11c-.1.22-.29.38-.53.43l-7.38 1.66 -1.35 3.14c-.12.27-.39.45-.69.45h-9c-.42 0-.75-.34-.75-.75v-2c0-3.18 2.57-5.75 5.75-5.75h8c.41 0 .75.33.75.75 0 .41-.34.75-.75.75h-8Z"/><path d="M22.33 6.32c.37.18.52.63.33 1l-1 2c-.19.37-.64.52-1.01.33 -.38-.19-.53-.64-.34-1.01l1-2c.18-.38.63-.53 1-.34Z"/><path d="M4.25 6c0-.42.33-.75.75-.75h14c.41 0 .75.33.75.75 0 .41-.34.75-.75.75H5c-.42 0-.75-.34-.75-.75Z"/><path d="M12 5.25c.41 0 .75.33.75.75v3c0 .41-.34.75-.75.75 -.42 0-.75-.34-.75-.75V6c0-.42.33-.75.75-.75Z"/><path d="M1.25 19c0-.42.33-.75.75-.75h12.5c.41 0 .75.33.75.75 0 .41-.34.75-.75.75H2c-.42 0-.75-.34-.75-.75Z"/><path d="M5.41 15.37c.34.22.43.69.2 1.04l-2 3c-.23.34-.7.43-1.05.2 -.35-.23-.44-.7-.21-1.04l2-3c.22-.35.69-.44 1.04-.21Zm4.16 0c.34-.23.81-.14 1.04.2l2 3c.22.34.13.81-.21 1.04 -.35.22-.82.13-1.05-.21l-2-3c-.23-.35-.14-.82.2-1.04Z"/><path d="M9 8.25c.41 0 .75.33.75.75v1c0 2.07-1.68 3.75-3.75 3.75H2.5c-.42 0-.75-.34-.75-.75 0-.42.33-.75.75-.75H6c1.24 0 2.25-1.01 2.25-2.25V9c0-.42.33-.75.75-.75Z"/></g></svg>