<svg viewBox="0 0 24 24" xmlns="http://www.w3.org/2000/svg"><g fill-rule="evenodd"><path d="M7.46 2.96c.14-.15.33-.22.53-.22h4c.41 0 .75.33.75.75v3.25h.25c.41 0 .75.33.75.75 0 .41-.34.75-.75.75h-1c-.42 0-.75-.34-.75-.75V4.24H8.3L5.51 7.02c-.15.14-.34.21-.54.21h-2c-.14 0-.25.11-.25.25v3.25h18.5v-2.5h-4.25c-.42 0-.75-.34-.75-.75 0-.42.33-.75.75-.75h5c.41 0 .75.33.75.75v4c0 .41-.34.75-.75.75h-20c-.42 0-.75-.34-.75-.75v-4c0-.97.78-1.75 1.75-1.75h1.68l2.78-2.79Z"/><path d="M5.5 12.25c-1.52 0-2.75 1.23-2.75 2.75 0 1.51 1.23 2.75 2.75 2.75 1.51 0 2.75-1.24 2.75-2.75 0-1.52-1.24-2.75-2.75-2.75ZM1.25 15c0-2.35 1.9-4.25 4.25-4.25 2.34 0 4.25 1.9 4.25 4.25 0 2.34-1.91 4.25-4.25 4.25 -2.35 0-4.25-1.91-4.25-4.25Z"/><path d="M18.5 12.25c-1.52 0-2.75 1.23-2.75 2.75 0 1.51 1.23 2.75 2.75 2.75 1.51 0 2.75-1.24 2.75-2.75 0-1.52-1.24-2.75-2.75-2.75ZM14.25 15c0-2.35 1.9-4.25 4.25-4.25 2.34 0 4.25 1.9 4.25 4.25 0 2.34-1.91 4.25-4.25 4.25 -2.35 0-4.25-1.91-4.25-4.25Z"/><path d="M12.48 10.93c-.32-.27-.79-.24-1.06.08l-3 3.5c-.27.31-.24.78.08 1.05 .31.26.78.23 1.05-.09l2.99-3.5c.26-.32.23-.79-.09-1.06Z"/><path d="M11.51 10.93c.31-.27.78-.24 1.05.08l3 3.5c.26.31.23.78-.09 1.05 -.32.26-.79.23-1.06-.09l-3-3.5c-.27-.32-.24-.79.08-1.06Z"/></g></svg>