<svg viewBox="0 0 24 24" xmlns="http://www.w3.org/2000/svg"><g fill-rule="evenodd"><path d="M10.37 7.77c.8-.97 2-1.53 3.26-1.53h3.86c.32 0 .6.2.71.51l.82 2.48h1.45c1.24 0 2.25 1 2.25 2.25v3.5c0 .41-.34.75-.75.75h-2c-.42 0-.75-.34-.75-.75 0-.42.33-.75.75-.75h1.25v-2.75c0-.42-.34-.75-.75-.75h-2c-.33 0-.61-.21-.72-.52l-.83-2.49h-3.33c-.82 0-1.6.36-2.12.98l-1.46 1.74c-.13.14-.3.23-.48.26l-6.2.82c-.38.04-.66.36-.66.74v1.93h1.25c.41 0 .75.33.75.75 0 .41-.34.75-.75.75h-2c-.42 0-.75-.34-.75-.75v-2.69c0-1.13.83-2.09 1.95-2.24l5.9-.79 1.26-1.52Zm-3.13 7.22c0-.42.33-.75.75-.75h3c.41 0 .75.33.75.75 0 .41-.34.75-.75.75h-3c-.42 0-.75-.34-.75-.75Zm7 0c0-.42.33-.75.75-.75h1c.41 0 .75.33.75.75 0 .41-.34.75-.75.75h-1c-.42 0-.75-.34-.75-.75Z"/><path d="M6 13.75c-.7 0-1.25.55-1.25 1.25 0 .69.55 1.25 1.25 1.25 .69 0 1.25-.56 1.25-1.25 0-.7-.56-1.25-1.25-1.25ZM3.25 15c0-1.52 1.23-2.75 2.75-2.75 1.51 0 2.75 1.23 2.75 2.75 0 1.51-1.24 2.75-2.75 2.75 -1.52 0-2.75-1.24-2.75-2.75Z"/><path d="M18 13.75c-.7 0-1.25.55-1.25 1.25 0 .69.55 1.25 1.25 1.25 .69 0 1.25-.56 1.25-1.25 0-.7-.56-1.25-1.25-1.25ZM15.25 15c0-1.52 1.23-2.75 2.75-2.75 1.51 0 2.75 1.23 2.75 2.75 0 1.51-1.24 2.75-2.75 2.75 -1.52 0-2.75-1.24-2.75-2.75Z"/></g></svg>