<svg viewBox="0 0 24 24" xmlns="http://www.w3.org/2000/svg"><g fill-rule="evenodd"><path d="M11.62 11.85c.23-.14.52-.14.75 0l6 3.5c.23.13.37.38.37.64v1.83c0 1.61-1.04 3.04-2.57 3.55l-3.95 1.31c-.16.05-.33.05-.48 0l-3.95-1.32c-1.54-.52-2.57-1.95-2.57-3.56v-1.84c0-.27.14-.52.37-.65l6-3.5Zm-4.88 4.57v1.4c0 .96.61 1.82 1.53 2.13l3.71 1.23 3.71-1.24c.91-.31 1.53-1.17 1.53-2.14v-1.41l-5.25-3.07 -5.25 3.06Z"/><path d="M12 11.75c.41 0 .75.33.75.75V22c0 .41-.34.75-.75.75 -.42 0-.75-.34-.75-.75v-9.5c0-.42.33-.75.75-.75Z"/><path d="M11.76 1.28c.3-.11.64 0 .83.26l7 9.5c.15.2.18.47.09.71 -.1.23-.3.41-.55.46l-7 1.5c-.23.04-.46-.01-.63-.16 -.18-.15-.28-.36-.28-.59v-2c0-.42.33-.75.75-.75 .41 0 .75.33.75.75v1.07l4.95-1.07 -4.96-6.73v2.71c0 .41-.34.75-.75.75 -.42 0-.75-.34-.75-.75v-5c0-.33.2-.62.51-.72Z"/><path d="M9.67 5.27c-.34-.08-.69.08-.85.39l-3.5 7c-.11.21-.11.46 0 .68 .11.21.31.36.55.39l3.5.5c.21.03.43-.04.59-.18 .16-.15.25-.35.25-.57v-7.5c0-.35-.24-.66-.58-.73Zm-.93 3.9v3.45l-1.62-.24 1.61-3.23Z"/></g></svg>