<svg viewBox="0 0 24 24" xmlns="http://www.w3.org/2000/svg"><g fill-rule="evenodd"><path d="M17.46 14.46c.29-.3.76-.3 1.06 0l1 1c.29.29.29.76 0 1.06 -.3.29-.77.29-1.07 0l-.47-.47 -1.94 1.93 2.93 2.93 1.94-1.95c-.27-.3-.26-.75.02-1.03 .29-.3.76-.3 1.06 0l.5.5c.29.29.29.76 0 1.06l-3 3c-.3.29-.77.29-1.07 0l-4-4c-.3-.3-.3-.77 0-1.07l3-3Z"/><path d="M4.46 1.46c.29-.3.76-.3 1.06 0l3.5 3.5c.29.29.29.76 0 1.06l-3 3c-.3.29-.77.29-1.07 0l-3.5-3.5c-.3-.3-.3-.77 0-1.07l3-3ZM3.05 4.99l2.43 2.43 1.93-1.94 -2.44-2.44 -1.94 1.93Z"/><path d="M15.46 10.46c.29-.3.76-.3 1.06 0l3 3c.29.29.29.76 0 1.06l-5 5c-.3.29-.77.29-1.07 0l-3-3c-.3-.3-.3-.77 0-1.07l5-5Zm-3.41 5.53l1.93 1.93 3.93-3.94 -1.94-1.94 -3.94 3.93Z"/><path d="M9.96 6.96c.29-.3.76-.3 1.06 0l2.5 2.5c.29.29.29.76 0 1.06l-3 3c-.3.29-.77.29-1.07 0l-2.5-2.5c-.3-.3-.3-.77 0-1.07l3-3Zm-1.41 3.53l1.43 1.43 1.93-1.94 -1.44-1.44 -1.94 1.93Z"/><path d="M8.96 3.96c.29-.3.76-.3 1.06 0l2 2c.29.29.29.76 0 1.06l-5 4.99c-.3.29-.77.29-1.07 0l-2-2c-.3-.3-.3-.77 0-1.07l5-5ZM5.55 9.49l.93.93 3.93-3.94 -.94-.94 -3.94 3.93Z"/></g></svg>