<svg viewBox="0 0 24 24" xmlns="http://www.w3.org/2000/svg"><g fill-rule="evenodd"><path d="M4.43 4.51c.14-.17.35-.27.56-.27h2c.41 0 .75.33.75.75v2.75h1.68c1.23 0 2.31.82 2.64 2h.81l1.9-.53c.39-.12.81.12.92.52 .11.39-.13.81-.53.92l-2 .55c-.07.01-.14.02-.21.02h-1.5c-.35 0-.65-.24-.73-.57l-.13-.49c-.14-.56-.64-.95-1.22-.95H6.93c-.42 0-.75-.34-.75-.75V5.71h-.91l-2.3 2.67c-.2.22-.31.51-.31.81v.26c0 .69.55 1.25 1.25 1.25h4c.29 0 .56.17.68.44l1.8 4.05h3.54l1.79-3.59c.09-.2.26-.34.47-.39l4.39-1.2c.32-.09.55-.39.55-.73v-.37l-2.05.56c-.4.11-.82-.13-.93-.53 -.12-.4.12-.82.52-.93l3-.84c.22-.07.46-.02.65.12 .18.14.29.36.29.59v1.35c0 1.01-.68 1.9-1.66 2.17l-4.08 1.11 -1.86 3.7c-.13.25-.39.41-.68.41h-4.5c-.3 0-.57-.18-.69-.45l-1.81-4.06H3.81c-1.52 0-2.75-1.24-2.75-2.75v-.27c0-.66.23-1.3.66-1.79l2.51-2.94Z"/><path d="M4.5 14.25c-.97 0-1.75.78-1.75 1.75 0 .96.78 1.75 1.75 1.75 .96 0 1.75-.79 1.75-1.75 0-.97-.79-1.75-1.75-1.75ZM1.25 16c0-1.8 1.45-3.25 3.25-3.25 1.79 0 3.25 1.45 3.25 3.25 0 1.79-1.46 3.25-3.25 3.25 -1.8 0-3.25-1.46-3.25-3.25Z"/><path d="M19.5 14.25c-.97 0-1.75.78-1.75 1.75 0 .96.78 1.75 1.75 1.75 .96 0 1.75-.79 1.75-1.75 0-.97-.79-1.75-1.75-1.75ZM16.25 16c0-1.8 1.45-3.25 3.25-3.25 1.79 0 3.25 1.45 3.25 3.25 0 1.79-1.46 3.25-3.25 3.25 -1.8 0-3.25-1.46-3.25-3.25Z"/></g></svg>