<svg viewBox="0 0 24 24" xmlns="http://www.w3.org/2000/svg"><g fill-rule="evenodd"><path d="M11.24 9.83c-.17-.59-.74-.97-1.34-.9l-2.83.31c-.42.04-.79-.26-.83-.67 -.05-.42.25-.79.66-.83l2.82-.32c1.33-.15 2.57.68 2.94 1.97l.53 1.87c.06.22.01.46-.13.65 -.15.18-.37.29-.6.29h-7c-.42 0-.75-.34-.75-.75 0-.42.33-.75.75-.75h6l-.27-.92Z"/><path d="M7.37 11.09c.13-.22.37-.35.62-.35h8c.41 0 .75.33.75.75 0 .41-.34.75-.75.75H9.14l1.33 3h3.51c.41 0 .75.33.75.75 0 .41-.34.75-.75.75h-4c-.3 0-.57-.18-.69-.45l-2-4.5c-.11-.24-.09-.51.05-.72Z"/><path d="M4.5 14.25c-.97 0-1.75.78-1.75 1.75 0 .96.78 1.75 1.75 1.75 .96 0 1.75-.79 1.75-1.75 0-.97-.79-1.75-1.75-1.75ZM1.25 16c0-1.8 1.45-3.25 3.25-3.25 1.79 0 3.25 1.45 3.25 3.25 0 1.79-1.46 3.25-3.25 3.25 -1.8 0-3.25-1.46-3.25-3.25Z"/><path d="M19.5 14.25c-.97 0-1.75.78-1.75 1.75 0 .96.78 1.75 1.75 1.75 .96 0 1.75-.79 1.75-1.75 0-.97-.79-1.75-1.75-1.75ZM16.25 16c0-1.8 1.45-3.25 3.25-3.25 1.79 0 3.25 1.45 3.25 3.25 0 1.79-1.46 3.25-3.25 3.25 -1.8 0-3.25-1.46-3.25-3.25Z"/><path d="M7.31 5.19c.11-.28.38-.45.68-.45h2.18c.41 0 .75.33.75.75 0 .41-.34.75-.75.75h-1.7l-3.31 7.55c-.17.37-.61.55-.99.38 -.38-.17-.56-.61-.39-.99l3.5-8.01Z"/><path d="M20.7 9.73c.14.38-.06.82-.44.96l-4 1.5c-.39.14-.83-.06-.97-.44 -.15-.39.05-.83.43-.97l4-1.51c.38-.15.82.05.96.43Z"/></g></svg>