<svg viewBox="0 0 24 24" xmlns="http://www.w3.org/2000/svg"><g fill-rule="evenodd"><path d="M11.62 8.35c.23-.14.52-.14.75 0l6 3.5c.23.13.37.38.37.64v5.33c0 1.61-1.04 3.04-2.57 3.55l-3.95 1.31c-.16.05-.33.05-.48 0l-3.95-1.32c-1.54-.52-2.57-1.95-2.57-3.56v-5.34c0-.27.14-.52.37-.65l6-3.51Zm-4.88 4.57v4.9c0 .96.61 1.82 1.53 2.13l3.71 1.23 3.71-1.24c.91-.31 1.53-1.17 1.53-2.14v-4.91l-5.25-3.07 -5.25 3.06Z"/><path d="M12 8.25c.41 0 .75.33.75.75v7c0 .41-.34.75-.75.75 -.42 0-.75-.34-.75-.75V9c0-.42.33-.75.75-.75Zm0 11c.41 0 .75.33.75.75v2c0 .41-.34.75-.75.75 -.42 0-.75-.34-.75-.75v-2c0-.42.33-.75.75-.75Z"/><path d="M7.75 6.5c0-.42.33-.75.75-.75h7c.41 0 .75.33.75.75V11c0 .41-.34.75-.75.75 -.42 0-.75-.34-.75-.75V7.25h-5.5V11c0 .41-.34.75-.75.75 -.42 0-.75-.34-.75-.75V6.5Z"/><path d="M10 1.25c.41 0 .75.33.75.75v4.5c0 .41-.34.75-.75.75 -.42 0-.75-.34-.75-.75V2c0-.42.33-.75.75-.75Z"/><path d="M15 12.75c.41 0 .75.33.75.75v3c0 .41-.34.75-.75.75 -.42 0-.75-.34-.75-.75v-3c0-.42.33-.75.75-.75Z"/></g></svg>