<svg viewBox="0 0 24 24" xmlns="http://www.w3.org/2000/svg"><g fill-rule="evenodd"><path d="M3.32 7.16c.12-.26.38-.42.67-.42h6c.41 0 .75.33.75.75v1.5c0 .41-.34.75-.75.75 -.42 0-.75-.34-.75-.75v-.75H4.45l-1.72 3.42v3.07h2.25c.41 0 .75.33.75.75 0 .41-.34.75-.75.75h-3c-.42 0-.75-.34-.75-.75v-4c0-.12.02-.24.07-.34l2-4.01Zm6.67 5.08c.41 0 .75.33.75.75v2.5c0 .41-.34.75-.75.75h-2c-.42 0-.75-.34-.75-.75 0-.42.33-.75.75-.75h1.25v-1.75c0-.42.33-.75.75-.75Z"/><path d="M22.75 15.5c0-.42-.34-.75-.75-.75h-1c-.42 0-.75.33-.75.75 0 .41.33.75.75.75h1c.41 0 .75-.34.75-.75Zm-8.5 0c0-.42-.34-.75-.75-.75H10c-.42 0-.75.33-.75.75 0 .41.33.75.75.75h3.5c.41 0 .75-.34.75-.75Z"/><path d="M6.5 14.75c-.42 0-.75.33-.75.75 0 .41.33.75.75.75 .41 0 .75-.34.75-.75 0-.42-.34-.75-.75-.75Zm-2.25.75c0-1.25 1-2.25 2.25-2.25 1.24 0 2.25 1 2.25 2.25 0 1.24-1.01 2.25-2.25 2.25 -1.25 0-2.25-1.01-2.25-2.25Z"/><path d="M19.5 14.75c-.42 0-.75.33-.75.75 0 .41.33.75.75.75 .41 0 .75-.34.75-.75 0-.42-.34-.75-.75-.75Zm-2.25.75c0-1.25 1-2.25 2.25-2.25 1.24 0 2.25 1 2.25 2.25 0 1.24-1.01 2.25-2.25 2.25 -1.25 0-2.25-1.01-2.25-2.25Z"/><path d="M15 14.75c-.42 0-.75.33-.75.75 0 .41.33.75.75.75 .41 0 .75-.34.75-.75 0-.42-.34-.75-.75-.75Zm-2.25.75c0-1.25 1-2.25 2.25-2.25 1.24 0 2.25 1 2.25 2.25 0 1.24-1.01 2.25-2.25 2.25 -1.25 0-2.25-1.01-2.25-2.25Z"/><path d="M12.59 6.25c.41 0 .75.33.75.75v5c0 .31-.2.58-.49.69l-2.6 1c-.39.14-.83-.05-.97-.44 -.15-.39.04-.83.43-.97l2.11-.82V6.97c0-.42.33-.75.75-.75Z"/></g></svg>