<svg viewBox="0 0 24 24" xmlns="http://www.w3.org/2000/svg"><g fill-rule="evenodd"><path d="M2.25 4.5c0-.42.33-.75.75-.75h10c.41 0 .75.33.75.75 0 .41-.34.75-.75.75H3.75V8c0 .69.55 1.25 1.25 1.25h14c.69 0 1.25-.56 1.25-1.25V5.25H17c-.42 0-.75-.34-.75-.75 0-.42.33-.75.75-.75h4c.41 0 .75.33.75.75V8c0 1.51-1.24 2.75-2.75 2.75H5c-1.52 0-2.75-1.24-2.75-2.75V4.5Z"/><path d="M8.75 14.5c0-1.25 1-2.25 2.25-2.25h2c1.24 0 2.25 1 2.25 2.25V19c0 .41-.34.75-.75.75h-5c-.42 0-.75-.34-.75-.75v-4.5Zm2.25-.75c-.42 0-.75.33-.75.75v3.75h3.5V14.5c0-.42-.34-.75-.75-.75h-2Z"/><path d="M2.25 3c0-.97.78-1.75 1.75-1.75h16c.96 0 1.75.78 1.75 1.75v9c0 .96-.79 1.75-1.75 1.75H4c-.97 0-1.75-.79-1.75-1.75V3ZM4 2.75c-.14 0-.25.11-.25.25v9c0 .13.11.25.25.25h16c.13 0 .25-.12.25-.25V3c0-.14-.12-.25-.25-.25H4Z"/><path d="M2.25 14c0-.97.78-1.75 1.75-1.75h16c.96 0 1.75.78 1.75 1.75v4c0 .96-.79 1.75-1.75 1.75H4c-.97 0-1.75-.79-1.75-1.75v-4ZM4 13.75c-.14 0-.25.11-.25.25v4c0 .13.11.25.25.25h16c.13 0 .25-.12.25-.25v-4c0-.14-.12-.25-.25-.25H4Z"/><path d="M4 18.25c.41 0 .75.33.75.75v2c0 .13.11.25.25.25h2c.13 0 .25-.12.25-.25v-2c0-.42.33-.75.75-.75 .41 0 .75.33.75.75v2c0 .96-.79 1.75-1.75 1.75H5c-.97 0-1.75-.79-1.75-1.75v-2c0-.42.33-.75.75-.75Z"/><path d="M16 18.25c.41 0 .75.33.75.75v2c0 .13.11.25.25.25h2c.13 0 .25-.12.25-.25v-2c0-.42.33-.75.75-.75 .41 0 .75.33.75.75v2c0 .96-.79 1.75-1.75 1.75h-2c-.97 0-1.75-.79-1.75-1.75v-2c0-.42.33-.75.75-.75Z"/><path d="M13.75 16c0-.42.33-.75.75-.75h3c.41 0 .75.33.75.75 0 .41-.34.75-.75.75h-3c-.42 0-.75-.34-.75-.75Z"/><path d="M5.75 16c0-.42.33-.75.75-.75h3c.41 0 .75.33.75.75 0 .41-.34.75-.75.75h-3c-.42 0-.75-.34-.75-.75Z"/></g></svg>