<svg viewBox="0 0 24 24" xmlns="http://www.w3.org/2000/svg"><g fill-rule="evenodd"><path d="M1.25 14.5c0-.42.33-.75.75-.75h20c.41 0 .75.33.75.75V17c0 .41-.34.75-.75.75 -.42 0-.75-.34-.75-.75v-1.75H2.75V17c0 .41-.34.75-.75.75 -.42 0-.75-.34-.75-.75v-2.5Z"/><path d="M13.75 14.5c0-.42.33-.75.75-.75H19c.41 0 .75.33.75.75V16c0 .96-.79 1.75-1.75 1.75h-2.5c-.97 0-1.75-.79-1.75-1.75v-1.5Zm1.5.75V16c0 .13.11.25.25.25H18c.13 0 .25-.12.25-.25v-.75h-3Z"/><path d="M4.25 14.5c0-.42.33-.75.75-.75h4.5c.41 0 .75.33.75.75V16c0 .96-.79 1.75-1.75 1.75H6c-.97 0-1.75-.79-1.75-1.75v-1.5Zm1.5.75V16c0 .13.11.25.25.25h2.5c.13 0 .25-.12.25-.25v-.75h-3Z"/><path d="M2.25 7c0-.42.33-.75.75-.75h13c.41 0 .75.33.75.75 0 .41-.34.75-.75.75H3.75v6h16.5v-6H20c-.42 0-.75-.34-.75-.75 0-.42.33-.75.75-.75h1c.41 0 .75.33.75.75v7.5c0 .41-.34.75-.75.75H3c-.42 0-.75-.34-.75-.75V7Z"/><path d="M6 8.75c.41 0 .75.33.75.75V12c0 .41-.34.75-.75.75 -.42 0-.75-.34-.75-.75V9.5c0-.42.33-.75.75-.75Z"/><path d="M9 8.75c.41 0 .75.33.75.75V12c0 .41-.34.75-.75.75 -.42 0-.75-.34-.75-.75V9.5c0-.42.33-.75.75-.75Z"/><path d="M12 8.75c.41 0 .75.33.75.75V12c0 .41-.34.75-.75.75 -.42 0-.75-.34-.75-.75V9.5c0-.42.33-.75.75-.75Z"/><path d="M15 8.75c.41 0 .75.33.75.75V12c0 .41-.34.75-.75.75 -.42 0-.75-.34-.75-.75V9.5c0-.42.33-.75.75-.75Z"/><path d="M18 8.75c.41 0 .75.33.75.75V12c0 .41-.34.75-.75.75 -.42 0-.75-.34-.75-.75V9.5c0-.42.33-.75.75-.75Z"/></g></svg>