<svg viewBox="0 0 24 24" xmlns="http://www.w3.org/2000/svg"><g fill="#3747D6" fill-rule="evenodd"><path d="M5 2c0-.56.44-1 1-1h12c.55 0 1 .44 1 1v9c0 2.76-2.24 5-5 5h-4c-2.77 0-5-2.24-5-5V2Zm2 1v8c0 1.65 1.34 3 3 3h4c1.65 0 3-1.35 3-3V3H7Z"/><path d="M9 15c0-.56.44-1 1-1h4c.55 0 1 .44 1 1v4c0 .55-.45 1-1 1h-4c-.56 0-1-.45-1-1v-4Zm2 1v2h2v-2h-2Z"/><path d="M7.59 20.05c.4-1.23 1.55-2.06 2.84-2.06h3.04c1.25 0 2.36.77 2.8 1.94l.63 1.7c.11.3.07.65-.12.92 -.19.26-.5.43-.83.43h-8c-.33 0-.63-.16-.82-.42 -.19-.27-.24-.6-.14-.91l.54-1.64Zm2.84-.06c-.44 0-.82.27-.95.68l-.11.31h5.16l-.14-.36c-.15-.4-.52-.65-.94-.65H10.4Z"/><path d="M1 5c0-.56.44-1 1-1h4c.55 0 1 .44 1 1v7c0 .3-.15.59-.39.78 -.25.18-.56.25-.86.18l-2.49-.63C1.92 11.99.98 10.79.98 9.41V4.97Zm2 1v3.43c0 .45.31.85.75.97l1.24.31V5.99h-2Z"/><path d="M23 5c0-.56-.45-1-1-1h-4c-.56 0-1 .44-1 1v7c0 .3.14.59.38.78 .24.18.55.25.85.18l2.48-.63c1.33-.34 2.27-1.54 2.27-2.92V4.97Zm-2 1v3.43c0 .45-.32.85-.76.97l-1.25.31V5.99h2Z"/><path fill="#9545ED" d="M12 7c-.56 0-1 .44-1 1 0 .55.44 1 1 1 .55 0 1-.45 1-1 0-.56-.45-1-1-1ZM9 8c0-1.66 1.34-3 3-3 1.65 0 3 1.34 3 3 0 1.65-1.35 3-3 3 -1.66 0-3-1.35-3-3Z"/></g></svg>