<svg viewBox="0 0 24 24" xmlns="http://www.w3.org/2000/svg"><g fill="#9545ED" fill-rule="evenodd"><path d="M1 3c0-1.11.89-2 2-2h6c1.1 0 2 .89 2 2v6c0 1.1-.9 2-2 2H3c-1.11 0-2-.9-2-2V3Zm8 0H3v6h6V3Z"/><path d="M13 15c0-1.11.89-2 2-2h6c1.1 0 2 .89 2 2v6c0 1.1-.9 2-2 2h-6c-1.11 0-2-.9-2-2v-6Zm8 0h-6v6h6v-6Z"/><g fill="#3747D6"><path d="M17 7h-4V5h4c1.1 0 2 .89 2 2v1.58l.29-.3 1.41 1.41 -2 1.99c-.4.39-1.03.39-1.42 0l-2-2 1.41-1.42 .29.29V6.96Z"/><path d="M6.99 17h4v2H6.98c-1.11 0-2-.9-2-2v-1.59l-.3.29 -1.42-1.42 1.99-2c.39-.4 1.02-.4 1.41 0l1.99 2 -1.42 1.41 -.3-.3v1.58Z"/></g></g></svg>