<svg viewBox="0 0 24 24" xmlns="http://www.w3.org/2000/svg"><g fill="#3747D6" fill-rule="evenodd"><path d="M7 5c0-1.66 1.34-3 3-3h4c1.65 0 3 1.34 3 3v1c0 .55-.45 1-1 1H8c-.56 0-1-.45-1-1V5Zm3-1c-.56 0-1 .44-1 1h6c0-.56-.45-1-1-1h-4Z"/><g fill="#9545ED"><path d="M1 8c0-1.66 1.34-3 3-3h16c1.65 0 3 1.34 3 3v5c0 .55-.45 1-1 1h-7c-.56 0-1-.45-1-1 0-.56.44-1 1-1h6V8c0-.56-.45-1-1-1H4c-.56 0-1 .44-1 1v4h6c.55 0 1 .44 1 1 0 .55-.45 1-1 1H2c-.56 0-1-.45-1-1V8Z"/><path d="M8.49 13.58c-.38-1.86 1.04-3.59 2.94-3.59h1.12c1.89 0 3.31 1.73 2.94 3.58l-.53 2.6c-.1.46-.51.8-.99.8h-4c-.48 0-.89-.34-.99-.81l-.53-2.61Zm2.94-1.59c-.64 0-1.11.57-.99 1.19l.36 1.8h2.36l.36-1.81c.12-.62-.35-1.2-.99-1.2H11.4Z"/></g><path d="M1 8c0-1.66 1.34-3 3-3h16c1.65 0 3 1.34 3 3v11c0 1.65-1.35 3-3 3H4c-1.66 0-3-1.35-3-3V8Zm3-1c-.56 0-1 .44-1 1v11c0 .55.44 1 1 1h16c.55 0 1-.45 1-1V8c0-.56-.45-1-1-1H4Z"/></g></svg>