<svg viewBox="0 0 24 24" xmlns="http://www.w3.org/2000/svg"><g fill="#3747D6" fill-rule="evenodd"><path d="M6 21c-.56 0-1-.45-1-1V4c0-.56.44-1 1-1h12c.55 0 1 .44 1 1v11.58l-5.42 5.41H5.99Zm-3-1c0 1.65 1.34 3 3 3h8c.26 0 .51-.11.7-.3l6-6c.18-.19.29-.45.29-.71v-12c0-1.66-1.35-3-3-3h-12c-1.66 0-3 1.34-3 3v16Z"/><path d="M13.61 22.92c.37.15.8.06 1.08-.22l6-6c.28-.29.37-.72.21-1.09 -.16-.38-.52-.62-.93-.62h-4c-1.66 0-3 1.34-3 3v4c0 .4.24.76.61.92Zm1.38-3.34v-1.59c0-.56.44-1 1-1h1.58l-2.59 2.58Z"/><g fill="#9545ED"><path d="M9 20H7v-2h2v2Z"/><path d="M12 17H7v-2h5v2Z"/><path d="M10 14H7v-2h3v2Z"/><path d="M17 11H7V9h10v2Z"/><path d="M7 5c0-.56.44-1 1-1h4c.55 0 1 .44 1 1v5c0 .55-.45 1-1 1H8c-.56 0-1-.45-1-1V5Zm2 1v3h2V6H9Z"/><path d="M11 7c0-.56.44-1 1-1h4c.55 0 1 .44 1 1v3c0 .55-.45 1-1 1h-4c-.56 0-1-.45-1-1V7Zm2 1v1h2V8h-2Z"/></g></g></svg>