<svg viewBox="0 0 24 24" xmlns="http://www.w3.org/2000/svg"><g fill="#3747D6" fill-rule="evenodd"><path d="M10.82 1.23c.22.18.36.47.36.76v6.74c0 .35-.19.68-.5.86 -.79.46-1.33 1.32-1.33 2.31 0 1.48 1.18 2.66 2.63 2.66 .23 0 .46-.04.68-.09 .34-.1.71 0 .97.26l4.72 4.76c.2.2.31.5.28.79 -.03.29-.19.56-.43.73 -1.78 1.23-3.93 1.95-6.24 1.95 -6.09 0-11-4.97-11-11.09C.96 6.44 4.83 1.91 9.95.96c.29-.06.59.02.82.21ZM9.18 3.28c-3.59 1.19-6.19 4.6-6.19 8.62 0 5.02 4.03 9.08 9 9.08 1.46 0 2.84-.36 4.06-.98l-3.46-3.49c-.2.02-.41.04-.61.04 -2.57 0-4.64-2.1-4.64-4.67 0-1.51.71-2.86 1.81-3.71V3.24Z"/><path fill="#9545ED" d="M13.17 1.23c.22-.19.52-.27.82-.22 5.12.94 8.99 5.47 8.99 10.9 0 2.32-.72 4.49-1.94 6.27 -.17.24-.44.4-.74.43 -.3.02-.6-.08-.81-.3l-4.73-4.77c-.25-.26-.35-.62-.26-.97 .05-.22.08-.46.08-.7 0-.99-.54-1.86-1.33-2.32 -.31-.18-.5-.51-.5-.87V1.93c0-.3.13-.58.36-.77Zm1.63 2.05V8.2c1.1.85 1.81 2.19 1.81 3.7 0 .21-.02.41-.05.62l3.442 3.47c.61-1.23.96-2.62.96-4.1 0-4.03-2.6-7.44-6.19-8.63Z"/></g></svg>