<svg viewBox="0 0 24 24" xmlns="http://www.w3.org/2000/svg"><g fill="#3747D6" fill-rule="evenodd"><path d="M9.14 8.5c-3.32 0-6 2.68-6 6 -.001 3.31 2.68 6 6 6 3.31 0 6-2.69 6-6 0-3.32-2.69-6-6.01-6Zm-8 6c-.001-4.42 3.58-8 8-8 4.41 0 8 3.58 8 8 0 4.41-3.59 8-8.01 8s-8-3.59-8-8Z"/><path fill="#9545ED" d="M18.43 10.2c.39.39 1.02.39 1.41 0l3-3 -1.42-1.42 -1.3 1.29V1.48h-2v5.58l-1.3-1.3 -1.42 1.41 3 2.99Z"/><path d="M7.14 13.36c0-1.04.83-1.87 1.86-1.87h1.63v2h-1.2l.86.57c.51.34.83.92.83 1.55 0 1.03-.84 1.86-1.87 1.86H7.61v-2H8.8l-.87-.58c-.52-.35-.84-.93-.84-1.56Z"/><path d="M8.14 18.5v-2h2v2H8.13Z"/><path d="M8.14 12.5v-2h2v2H8.13Z"/></g></svg>