<svg viewBox="0 0 24 24" xmlns="http://www.w3.org/2000/svg"><g fill="#9545ED" fill-rule="evenodd"><path d="M10 13.38c0-1.04.83-1.87 1.86-1.87h1.63v2h-1.2l.86.57c.51.34.83.92.83 1.55 0 1.03-.84 1.86-1.87 1.86h-1.64v-2h1.19l-.87-.58c-.52-.35-.84-.93-.84-1.56Z"/><path d="M11 18.51v-2h2v2h-2Z"/><path d="M11 12.51v-2h2v2h-2Z"/><g fill="#3747D6"><path d="M8.84 7.52c.35-.63 1.01-1.01 1.73-1.01h2.83c.71 0 1.38.38 1.73 1l3.18 5.57c.43.75.65 1.61.65 2.48v1.93c0 2.76-2.24 5-5 5h-4c-2.77 0-5-2.24-5-5v-1.94c0-.88.22-1.73.65-2.49l3.18-5.58Zm4.57.99h-2.84l-3.19 5.57c-.26.45-.4.96-.4 1.48v1.93c0 1.65 1.34 3 3 3h3.99c1.65 0 3-1.35 3-3v-1.94c0-.53-.14-1.04-.4-1.49l-3.19-5.58Z"/><path d="M13.45 1.69c1.6-.79 3.35.76 2.77 2.44l-1.28 3.7c-.14.4-.52.67-.95.67H9.98c-.44 0-.82-.28-.95-.69L7.79 4.1C7.22 2.4 8.98.88 10.58 1.67l1.39.69 1.44-.72Zm.88 1.79l-1.9.93c-.29.13-.61.13-.89-.01l-1.85-.93 1 3.02h2.56l1.04-3.04Z"/><path d="M16 8.51H8v-2h8v2Z"/></g></g></svg>