<svg viewBox="0 0 24 24" xmlns="http://www.w3.org/2000/svg"><g fill="#3747D6" fill-rule="evenodd"><path d="M5 6c-.56 0-1 .44-1 1v13c0 .55.44 1 1 1h10c.55 0 1-.45 1-1V7c0-.56-.45-1-1-1h-1V4h1c1.65 0 3 1.34 3 3v13c0 1.65-1.35 3-3 3H5c-1.66 0-3-1.35-3-3V7c0-1.66 1.34-3 3-3h1v2H5Z"/><path d="M5 2c0-.56.44-1 1-1h8c.55 0 1 .44 1 1v4c0 .55-.45 1-1 1H6c-.56 0-1-.45-1-1V2Zm2 1v2h6V3H7Z"/><path d="M16 9c0-.56.44-1 1-1h2c1.65 0 3 1.34 3 3v5c0 1.65-1.35 3-3 3h-2c-.56 0-1-.45-1-1V9Zm2 1v7h1c.55 0 1-.45 1-1v-5c0-.56-.45-1-1-1h-1Z"/><g fill="#9545ED"><path d="M5 9c0-.56.44-1 1-1h8c.55 0 1 .44 1 1v3c0 .55-.45 1-1 1H6c-.56 0-1-.45-1-1V9Zm2 1v1h6v-1H7Z"/><path d="M6 15v1h2v-1H6Z"/><path d="M6 19v-1h2v1H6Z"/><path d="M9 15v1h2v-1H9Z"/><path d="M9 19v-1h2v1H9Z"/><path d="M12 15v1h2v-1h-2Z"/><path d="M12 19v-1h2v1h-2Z"/></g></g></svg>