<svg viewBox="0 0 24 24" xmlns="http://www.w3.org/2000/svg"><g fill="#3747D6" fill-rule="evenodd"><path d="M10.14 3.14c-3.87 0-7.01 3.13-7.01 6.99 -.001 3.86 3.13 7 7 7 3.86 0 7-3.14 7-7 0-3.87-3.14-7-7-7Zm-9.01 6.99c-.001-4.98 4.02-9 9-9 4.97 0 9 4.02 9 8.99 0 4.97-4.03 9-9 9 -4.98 0-9.01-4.03-9.01-9Z"/><path d="M21.43 22.85l-6-6 1.41-1.42 6 6 -1.42 1.41Z"/><g fill="#9545ED"><path d="M10.14 6.64c-.56 0-1.01.44-1.01 1 0 .55.44 1 1 1 .55 0 1-.45 1-1 0-.56-.45-1-1-1Zm-3.01 1c0-1.66 1.34-3 3-3 1.65 0 3 1.34 3 3 0 1.65-1.35 2.99-3 2.99 -1.66 0-3.01-1.35-3.01-3Z"/><path d="M7.35 12.53s0 0 0 0c.03.04.14.1.28.1h4.99c.14 0 .24-.07.28-.11 0 0 0 0 0-.01 -.45-1.11-1.53-1.9-2.79-1.9 -1.27 0-2.35.78-2.79 1.89Zm-1.87-.73c.73-1.86 2.53-3.17 4.65-3.17 2.11 0 3.92 1.31 4.65 3.16 .3.77.09 1.53-.38 2.05 -.45.49-1.11.77-1.79.77h-5c-.69 0-1.35-.29-1.79-.78 -.47-.52-.68-1.28-.38-2.06Z"/></g></g></svg>