<svg viewBox="0 0 24 24" xmlns="http://www.w3.org/2000/svg"><g fill="#3747D6" fill-rule="evenodd"><path d="M3.14 20.5v-19h-2v20c0 .55.44 1 1 1h20v-2h-19Z"/><path d="M22.85 9.2l-6 6c-.4.39-1.03.39-1.42 0l-1.3-1.3 -4.3 4.29c-.4.39-1.03.39-1.42 0l-2.3-2.3 -3.3 3.29 -1.42-1.42 4-4c.39-.4 1.02-.4 1.41 0l2.29 2.29 4.29-4.3c.39-.4 1.02-.4 1.41 0l1.29 1.29 5.29-5.3 1.41 1.41Z"/><g fill="#9545ED"><path d="M9.64 4.66c0-1.2.96-2.17 2.16-2.17h2.33v2h-2.34c-.09 0-.17.07-.17.16 0 .06.04.13.11.15l1.41.47c.88.29 1.47 1.12 1.47 2.05 0 1.19-.97 2.16-2.17 2.16H10.1v-2h2.33c.08 0 .16-.08.16-.17 0-.07-.05-.14-.12-.16l-1.42-.48c-.89-.3-1.48-1.13-1.48-2.06Z"/><path d="M11.14 10.5v-2h2v2h-2Z"/><path d="M11.14 3.5v-2h2v2h-2Z"/></g></g></svg>