<svg viewBox="0 0 24 24" xmlns="http://www.w3.org/2000/svg"><g fill="#3747D6" fill-rule="evenodd"><path d="M1 3.5C1 2.11 2.11 1 3.5 1h17C21.88 1 23 2.11 23 3.5 23 4.88 21.88 6 20.5 6h-17C2.11 6 1 4.88 1 3.5ZM3.5 3c-.28 0-.5.22-.5.5 0 .27.22.5.5.5h17c.27 0 .5-.23.5-.5 0-.28-.23-.5-.5-.5h-17Z"/><path d="M2 5c0-.56.44-1 1-1h18c.55 0 1 .44 1 1v15c0 1.65-1.35 3-3 3H5c-1.66 0-3-1.35-3-3V5Zm2 1v14c0 .55.44 1 1 1h14c.55 0 1-.45 1-1V6H4Z"/><g fill="#9545ED"><path d="M8 9c-.56 0-1 .44-1 1 0 .55.44 1 1 1 .55 0 1-.45 1-1 0-.56-.45-1-1-1Zm-3 1c0-1.66 1.34-3 3-3 1.65 0 3 1.34 3 3 0 1.65-1.35 3-3 3 -1.66 0-3-1.35-3-3Z"/><path d="M13.29 18.293l4-4 1.41 1.41 -4 4 -1.42-1.42Z"/><path d="M18.7 18.293l-4-4 -1.42 1.41 4 4 1.41-1.42Z"/><path d="M13 7h4c.55 0 1 .44 1 1v4h-2v-1.59l-3.71 3.7c-.19.18-.3.44-.3.7v1.17c0 1.65-1.35 3-3 3h-3v-2h3c.55 0 1-.45 1-1V14.8c0-.8.31-1.56.87-2.13l3.7-3.71h-1.59v-2Z"/></g></g></svg>