<svg viewBox="0 0 24 24" xmlns="http://www.w3.org/2000/svg"><g fill-rule="evenodd"><path d="M10.48 6.14c-.31-.15-.66-.19-.99-.11 -.88.21-1.5 1-1.5 1.9v.69c0 1.11.53 2.16 1.43 2.82l.51.37c.16.12.39.14.58.04l.43.89 -.44-.9c.72-.36 1.59-.35 2.31.04 .18.09.41.08.58-.05l.53-.4c.15-.12.29-.25.42-.38 -1.09-.56-1.83-1.68-1.83-2.98 0-.81.28-1.55.76-2.12 -.15.02-.3.06-.44.13l-.77.37c-.28.13-.6.13-.88 0l-.77-.38ZM9.02 4.09c.78-.2 1.6-.11 2.33.25l.32.15 .32-.16c.72-.36 1.54-.45 2.33-.26 .71.17 1.34.53 1.83 1.02 .26.26.36.65.25 1 -.12.35-.42.62-.78.68 -.63.11-1.11.66-1.11 1.31 0 .73.59 1.33 1.34 1.33 .01 0 .03-.01.05-.01 .34-.02.67.15.86.43 .19.28.22.64.09.96 -.38.86-.98 1.63-1.75 2.21l-.54.39c-.8.59-1.86.67-2.73.21 -.16-.09-.34-.09-.5-.01 -.85.41-1.87.32-2.64-.24l-.52-.38c-1.42-1.04-2.26-2.69-2.26-4.44v-.7c0-1.83 1.25-3.42 3.02-3.85Z"/><path d="M13.7 2.7l-1 1 -1.42-1.42 1-1 1.41 1.41Z"/><path d="M4 16c0-.56.44-1 1-1h2.5c1.38 0 2.5 1.11 2.5 2.5 0 1.38-1.12 2.5-2.5 2.5H6v2H4v-6Zm2 2h1.5c.27 0 .5-.23.5-.5 0-.28-.23-.5-.5-.5H6v1Z"/><path d="M15 22c0 .55-.45 1-1 1h-2.5C10.11 23 9 21.88 9 20.5c0-1.39 1.11-2.5 2.5-2.5H13c0-.56-.45-1-1-1h-1v-2h1c1.65 0 3 1.34 3 3v4Zm-2-2h-1.5c-.28 0-.5.22-.5.5 0 .27.22.5.5.5H13v-1Z"/><path d="M15 18v-2h2v2h1v-2h2v4c0 1.65-1.35 3-3 3h-1v-2h1c.55 0 1-.45 1-1h-1c-1.11 0-2-.9-2-2Z"/></g></svg>