<svg viewBox="0 0 24 24" xmlns="http://www.w3.org/2000/svg"><g fill-rule="evenodd"><path d="M12.76 6c-.06 0-.1.04-.1.09v5.22c0 .55-.45 1-1 1h-.07c-.53 0-.97-.41-1-.94l-.31-4.4c-.01-.06-.05-.09-.1-.09 -.06 0-.1.04-.1.1l.29 4.24c.01.27-.08.54-.27.75 -.19.2-.46.31-.74.31h-.1c-.49 0-.91-.35-.99-.83l-.56-3.13c-.02-.07-.07-.12-.14-.12 -.09 0-.15.06-.14.15l.32 3.68c0 .04 0 .08 0 .13v2.27c0 1.93 1.56 3.5 3.5 3.5h2.417c.25 0 .48-.1.66-.26 .09-.09.19-.15.31-.19l3.76-4.23c.03-.04.02-.1-.02-.13s-.1-.03-.12.01l-1.69 2.04c-.28.33-.74.45-1.14.29 -.41-.16-.66-.57-.63-1l.15-2.37c0-.04 0-.08 0-.12l.7-5.09c0-.06-.04-.11-.09-.11 -.05 0-.09.03-.09.07l-.63 4.52c-.05.3-.23.57-.5.72 -.27.15-.6.17-.88.05l-.1-.04c-.38-.15-.65-.51-.65-.94V5.92c0-.06-.05-.1-.1-.1Zm1.88-.83c-.35-.7-1.06-1.18-1.89-1.18 -.78 0-1.45.41-1.82 1.04 -.24-.09-.49-.14-.75-.14 -.94 0-1.72.6-1.99 1.43 -.19-.06-.38-.08-.58-.08 -1.26 0-2.25 1.07-2.13 2.32l.32 3.69v2.22c0 3.03 2.46 5.5 5.5 5.5h2.417c.58 0 1.14-.18 1.6-.47 .21-.04.41-.15.57-.32l4.05-4.55c.8-.91.67-2.31-.29-3.05 -.77-.59-1.82-.57-2.55 0l.6-4.35c.17-1.26-.81-2.38-2.07-2.38 -.38 0-.74.09-1.04.27Z"/><path d="M19.5 8c0 .4-.19.85-.64 1.22l1.27 1.54c.87-.73 1.36-1.73 1.36-2.78 0-1.05-.49-2.05-1.37-2.78l-1.28 1.54c.45.37.63.82.63 1.22Z"/><path d="M4.5 8.5c0 .4.18.85.63 1.22l-1.28 1.54c-.88-.73-1.37-1.73-1.37-2.78 0-1.05.48-2.05 1.36-2.78l1.27 1.54c-.46.37-.64.82-.64 1.22Z"/></g></svg>