<svg viewBox="0 0 24 24" xmlns="http://www.w3.org/2000/svg"><g fill-rule="evenodd"><path d="M7 8.5C7 6.01 9.01 4 11.5 4 13.98 4 16 6.01 16 8.5v.33c0 1.69-.9 3.26-2.35 4.14l-.57.33 .64.44 1.173-.43c.6-.22 1.23-.34 1.87-.34h4.7v2h-4.71c-.41 0-.82.07-1.2.21l-.39.14c.18.41.29.87.29 1.35v.29c0 1.65-1.35 3-3 3h-.24c-1.53 0-2.77-1.24-2.77-2.77 0-1.17.72-2.21 1.81-2.6l.11-.05 -.25-.17c-.76.37-1.6.57-2.45.57H2.4v-2h6.25c.11 0 .23-.01.35-.02 -1.32-.93-2.11-2.44-2.11-4.05v-.44Zm4.28 3.56l1.33-.81c.85-.52 1.37-1.44 1.37-2.43v-.34c0-1.39-1.12-2.5-2.5-2.5 -1.39 0-2.5 1.11-2.5 2.5v.43c0 .96.47 1.86 1.26 2.41l1.02.7Zm2.02 3.97l-1.32.47c-.31.1-.51.39-.51.71 0 .42.34.76.76.76h.23c.55 0 1-.45 1-1v-.3c0-.24-.07-.47-.19-.67Z"/><path d="M12 3c-4.98 0-9 4.02-9 9 0 4.97 4.02 9 9 9 4.97 0 9-4.03 9-9 0-4.98-4.03-9-9-9ZM1 12C1 5.92 5.92 1 12 1c6.07 0 11 4.92 11 11 0 6.07-4.93 11-11 11C5.92 23 1 18.07 1 12Z"/></g></svg>