<svg viewBox="0 0 24 24" xmlns="http://www.w3.org/2000/svg"><g fill-rule="evenodd"><path d="M2 7c0-1.66 1.34-3 3-3h10c1.65 0 3 1.34 3 3v10c0 1.65-1.35 3-3 3H5c-1.66 0-3-1.35-3-3V7Zm3-1c-.56 0-1 .44-1 1v10c0 .55.44 1 1 1h10c.55 0 1-.45 1-1V7c0-.56-.45-1-1-1H5Z"/><path d="M20 8.41l-2 1.99v3.17l2 2V8.39Zm-.57-2.27c.94-.95 2.56-.28 2.56 1.06v9.58c0 1.33-1.62 2-2.57 1.06l-3.15-3.15c-.19-.19-.3-.45-.3-.71v-4c0-.27.1-.52.29-.71l3.14-3.15Z"/><path d="M7.87 12.7l2.82-2.83 1.41 1.41 -2.83 2.82 -1.42-1.42Z"/><path d="M12.47 9.52c-.59-.59-1.54-.59-2.13 0l-.36.35 -1.42-1.42 .35-.36c1.36-1.37 3.58-1.37 4.94 0 1.36 1.36 1.36 3.58 0 4.94l-.36.35 -1.42-1.42 .35-.36c.58-.59.58-1.54 0-2.13Z"/><path d="M7.52 14.47c-.59-.59-.59-1.54 0-2.13l.35-.36 -1.42-1.42 -.36.35c-1.37 1.36-1.37 3.58 0 4.94 1.36 1.36 3.58 1.36 4.94 0l.35-.36 -1.42-1.42 -.36.35c-.59.58-1.54.58-2.13 0Z"/></g></svg>