<svg viewBox="0 0 24 24" xmlns="http://www.w3.org/2000/svg"><path fill-rule="evenodd" d="M2 5c0-2.21 1.79-4 4-4 1.97 0 3.61 1.42 3.94 3.3l2.58-2.33c.7-.64 1.62-.99 2.56-.99 3.22 0 5.01 3.72 2.99 6.23l-3.81 4.76 3.85 4.81c1.99 2.49.21 6.18-2.98 6.18 -1.01 0-1.98-.41-2.7-1.12l-2.5-2.5c-.2 2.02-1.91 3.6-3.99 3.6 -2.21 0-4-1.8-4-4v-14Zm4-2c-1.11 0-2 .89-2 2v14c0 1.1.89 2 2 2 1.1 0 2-.9 2-2v-2c0-.41.24-.77.61-.93 .37-.16.8-.07 1.08.21l4.17 4.17c.33.33.798.52 1.27.52 1.51 0 2.356-1.76 1.41-2.94l-4.36-5.45c-.3-.37-.3-.89 0-1.25l4.3-5.39c.96-1.21.1-3-1.44-3 -.46 0-.9.16-1.24.47L9.61 7.18c-.3.26-.72.33-1.08.17 -.37-.17-.6-.52-.6-.92v-1.5c0-1.11-.9-2-2-2Z"/></svg>