<svg viewBox="0 0 24 24" xmlns="http://www.w3.org/2000/svg"><g fill-rule="evenodd"><path d="M11.35 1.23c.37-.31.9-.31 1.28 0l6 5c.22.18.35.47.35.76v10c0 .29-.14.57-.36.76l-6 5c-.38.3-.91.3-1.29 0l-6-5c-.23-.19-.36-.48-.36-.77v-10c0-.3.13-.58.35-.77l5.99-5ZM6.99 7.46v9.06l5 4.16 5-4.17V7.44l-5-4.17 -5 4.16Z"/><path d="M11.32 5.26c.38-.36.96-.36 1.35 0l3 2.75c.2.18.32.45.32.73v6.5c0 .28-.12.54-.33.73l-3 2.75c-.39.35-.97.35-1.36 0l-3.01-2.75c-.21-.19-.33-.46-.33-.74v-6.5c0-.29.11-.55.32-.74l3-2.75ZM9.99 9.18v5.62l2 1.83 2-1.84V9.16l-2-1.84 -2 1.83Z"/></g></svg>