<svg viewBox="0 0 24 24" xmlns="http://www.w3.org/2000/svg"><g fill-rule="evenodd"><path d="M6 9c-1.66 0-3 1.34-3 3 0 1.65 1.34 3 3 3 1.65 0 3-1.35 3-3 0-1.66-1.35-3-3-3Zm-5 3c0-2.77 2.23-5 5-5 2.76 0 5 2.23 5 5 0 2.76-2.24 5-5 5 -2.77 0-5-2.24-5-5Z"/><path d="M13.58 9.7c-.34.54-.59 1.35-.59 2.29s.24 1.75.58 2.29c.34.55.69.7.91.7 .22 0 .57-.15.91-.71 .33-.55.58-1.36.58-2.3 0-.95-.25-1.76-.59-2.3 -.35-.56-.7-.71-.92-.71 -.23 0-.58.14-.92.7Zm-1.7-1.06c.55-.9 1.45-1.65 2.61-1.65 1.15 0 2.05.74 2.61 1.64 .56.9.88 2.09.88 3.35 0 1.26-.32 2.452-.89 3.35 -.56.89-1.46 1.64-2.62 1.64 -1.16 0-2.06-.75-2.62-1.65 -.57-.91-.89-2.1-.89-3.36 0-1.27.31-2.452.88-3.36Z"/><path d="M20.37 9.52c-.22.58-.38 1.46-.38 2.47 0 1.01.15 1.89.37 2.47 .04.11.08.2.12.28 .03-.08.08-.18.12-.29 .21-.59.37-1.47.37-2.48 0-1.02-.16-1.9-.38-2.48 -.05-.12-.09-.21-.13-.29 -.04.07-.09.17-.13.28Zm-.08 5.52s0-.01 0-.01c-.01 0-.01 0-.01 0Zm.38-.01s0 0 0 0 -.01-.01-.01-.01Zm0-6.11c0-.01 0-.01 0-.01s-.01 0-.01 0Zm-1.53-1.3c.28-.33.73-.66 1.33-.66 .59 0 1.04.32 1.33.65 .28.32.5.74.66 1.16 .32.86.5 1.98.5 3.17s-.18 2.31-.51 3.17c-.17.42-.38.84-.67 1.16 -.29.32-.74.65-1.34.65 -.6 0-1.05-.33-1.34-.66 -.29-.33-.51-.75-.67-1.17 -.33-.87-.51-1.99-.51-3.18 0-1.2.17-2.32.5-3.18 .16-.43.37-.85.66-1.17Zm1.13 1.29c-.01-.01-.01-.01-.01-.01 0-.01 0 0 0 0Z"/></g></svg>