<svg viewBox="0 0 24 24" xmlns="http://www.w3.org/2000/svg"><g fill-rule="evenodd"><path d="M1.5 2.5c0-.56.44-1 1-1h8c.55 0 1 .44 1 1v8c0 .55-.45 1-1 1h-8c-.56 0-1-.45-1-1v-8Zm2 1v6h6v-6h-6Z"/><path d="M6.5 6c-.28 0-.5.22-.5.5 0 .27.22.5.5.5 .27 0 .5-.23.5-.5 0-.28-.23-.5-.5-.5ZM4 6.5C4 5.11 5.11 4 6.5 4 7.88 4 9 5.11 9 6.5 9 7.88 7.88 9 6.5 9 5.11 9 4 7.88 4 6.5Z"/><path d="M1.5 13.5c0-.56.44-1 1-1h8c.55 0 1 .44 1 1v8c0 .55-.45 1-1 1h-8c-.56 0-1-.45-1-1v-8Zm2 1v6h6v-6h-6Z"/><path d="M6.5 17c-.28 0-.5.22-.5.5 0 .27.22.5.5.5 .27 0 .5-.23.5-.5 0-.28-.23-.5-.5-.5Zm-2.5.5C4 16.11 5.11 15 6.5 15 7.88 15 9 16.11 9 17.5 9 18.88 7.88 20 6.5 20 5.11 20 4 18.88 4 17.5Z"/><path d="M12.5 2.5c0-.56.44-1 1-1h8c.55 0 1 .44 1 1v8c0 .55-.45 1-1 1h-8c-.56 0-1-.45-1-1v-8Zm2 1v6h6v-6h-6Z"/><path d="M17.5 6c-.28 0-.5.22-.5.5 0 .27.22.5.5.5 .27 0 .5-.23.5-.5 0-.28-.23-.5-.5-.5Zm-2.5.5C15 5.11 16.11 4 17.5 4 18.88 4 20 5.11 20 6.5 20 7.88 18.88 9 17.5 9 16.11 9 15 7.88 15 6.5Z"/><path d="M12.5 13.5c0-.56.44-1 1-1h8c.55 0 1 .44 1 1v8c0 .55-.45 1-1 1h-8c-.56 0-1-.45-1-1v-8Zm2 1v6h6v-6h-6Z"/><path d="M17.5 17c-.28 0-.5.22-.5.5 0 .27.22.5.5.5 .27 0 .5-.23.5-.5 0-.28-.23-.5-.5-.5Zm-2.5.5c0-1.39 1.11-2.5 2.5-2.5 1.38 0 2.5 1.11 2.5 2.5 0 1.38-1.12 2.5-2.5 2.5 -1.39 0-2.5-1.12-2.5-2.5Z"/></g></svg>