<svg viewBox="0 0 24 24" xmlns="http://www.w3.org/2000/svg"><g fill-rule="evenodd"><path d="M1 5c0-2.21 1.79-4 4-4h14c2.2 0 4 1.79 4 4v14c0 2.2-1.8 4-4 4H5c-2.21 0-4-1.8-4-4V5Zm4-2c-1.11 0-2 .89-2 2v14c0 1.1.89 2 2 2h14c1.1 0 2-.9 2-2V5c0-1.11-.9-2-2-2H5Z"/><path d="M4 7c0-.56.44-1 1-1h8c.55 0 1 .44 1 1v3c0 .55-.45 1-1 1h-1.5v7c0 .55-.45 1-1 1h-3c-.56 0-1-.45-1-1v-7H5c-.56 0-1-.45-1-1V7Zm2 1v1h1.5c.55 0 1 .44 1 1v7h1v-7c0-.56.44-1 1-1H12V8H6Z"/><path d="M15 7c0-.56.44-1 1-1h3c.55 0 1 .44 1 1v6c0 .55-.45 1-1 1h-3c-.56 0-1-.45-1-1V7Zm2 1v4h1V8h-1Z"/><path d="M15 15.5c0-.56.44-1 1-1h3c.55 0 1 .44 1 1V18c0 .55-.45 1-1 1h-3c-.56 0-1-.45-1-1v-2.5Zm2 1v.5h1v-.5h-1Z"/></g></svg>