<svg viewBox="0 0 24 24" xmlns="http://www.w3.org/2000/svg"><path fill-rule="evenodd" d="M10 2c0-.56.44-1 1-1h3c.55 0 1 .44 1 1 0 2.76 2.23 5 5 5 .55 0 1 .44 1 1v3c0 .55-.45 1-1 1 -1.83 0-3.529-.49-5-1.34v5.33c0 3.86-3.14 7-7 7 -3.87 0-7-3.14-7-7 0-3.87 3.13-7 7-7 .55 0 1 .44 1 1v3c0 .55-.45 1-1 1 -1.11 0-2 .89-2 2 0 1.1.89 2 2 2 1.1 0 2-.9 2-2v-14Zm2 1v13c0 2.2-1.8 4-4 4 -2.21 0-4-1.8-4-4 0-1.87 1.27-3.43 3-3.88v-1.03c-2.29.46-4 2.481-4 4.9 0 2.76 2.23 5 5 5 2.76 0 5-2.24 5-5v-7.3c0-.4.23-.76.59-.92 .36-.17.78-.1 1.07.16 1.18 1.05 2.67 1.76 4.33 1.97V8.89c-3.07-.44-5.5-2.87-5.93-5.93h-1.08Z"/></svg>