<svg viewBox="0 0 24 24" xmlns="http://www.w3.org/2000/svg"><g fill-rule="evenodd"><path d="M4 4c0-.28.22-.51.5-.5l15 .04c.27 0 .49.22.49.5v11.5c0 .27-.23.5-.5.5h-4c-.27 0-.52.1-.71.29l-2.8 2.79 -2.8-2.8c-.19-.19-.45-.3-.71-.3h-4c-.28 0-.5-.23-.5-.5V3.96Zm.5-2.5c-1.39-.01-2.51 1.11-2.51 2.49v11.55c0 1.38 1.11 2.5 2.5 2.5h3.58l3.2 3.2c.39.39 1.02.39 1.41 0l3.2-3.21h3.58c1.38 0 2.5-1.12 2.5-2.5V4.02c0-1.38-1.12-2.5-2.5-2.5l-15-.05Z"/><path d="M12 6c-.56 0-1 .44-1 1 0 .55.44 1 1 1 .55 0 1-.45 1-1 0-.56-.45-1-1-1ZM9 7c0-1.66 1.34-3 3-3 1.65 0 3 1.34 3 3 0 1.65-1.35 3-3 3 -1.66 0-3-1.35-3-3Z"/><path d="M9.17 14h5.65c-.42-1.17-1.53-2-2.83-2 -1.31 0-2.42.83-2.83 2Zm-2.18 1c0-2.77 2.23-5 5-5 2.76 0 5 2.23 5 5 0 .55-.45 1-1 1h-8c-.56 0-1-.45-1-1Z"/></g></svg>