<svg viewBox="0 0 24 24" xmlns="http://www.w3.org/2000/svg"><g fill-rule="evenodd"><path d="M17.51 15.12c.31-.18.7-.17 1.01.02l4 2.5c.29.18.47.5.47.84 0 .34-.18.66-.47.84l-4 2.5c-.31.19-.7.2-1.02.02 -.32-.18-.52-.52-.52-.88v-5c0-.37.19-.7.51-.88Zm1.48 2.67v1.39l1.11-.7 -1.12-.7Z"/><path d="M1 16.5c0-.56.44-1 1-1h13c.55 0 1 .44 1 1v4c0 .55-.45 1-1 1H2c-.56 0-1-.45-1-1v-4Zm2 1v2h11v-2H3Z"/><path d="M1 9.5c0-.56.44-1 1-1h20c.55 0 1 .44 1 1v4c0 .55-.45 1-1 1H2c-.56 0-1-.45-1-1v-4Zm2 1v2h18v-2H3Z"/><path d="M1 2.5c0-.56.44-1 1-1h20c.55 0 1 .44 1 1v4c0 .55-.45 1-1 1H2c-.56 0-1-.45-1-1v-4Zm2 1v2h18v-2H3Z"/></g></svg>