<svg viewBox="0 0 24 24" xmlns="http://www.w3.org/2000/svg"><g fill-rule="evenodd"><path d="M1 5c0-2.21 1.79-4 4-4h14c2.2 0 4 1.79 4 4v14c0 2.2-1.8 4-4 4H5c-2.21 0-4-1.8-4-4V5Zm4-2c-1.11 0-2 .89-2 2v14c0 1.1.89 2 2 2h14c1.1 0 2-.9 2-2V5c0-1.11-.9-2-2-2H5Z"/><path d="M16.85 11.35c.51-.19 1.09.07 1.28.59 .26.74.39 1.52.35 2.31 -.04.78-.23 1.55-.56 2.27 -.34.71-.81 1.35-1.39 1.88 -.59.53-1.27.94-2.01 1.21 -.75.26-1.53.39-2.32.35 -.79-.04-1.56-.23-2.28-.56 -.72-.34-1.36-.81-1.89-1.39 -.54-.59-.95-1.27-1.22-2.01 -.19-.52.07-1.1.59-1.29l9.39-3.43Zm-7.66 4.91c.1.15.22.3.34.43 .35.38.78.7 1.25.92 .47.22.99.34 1.516.37 .52.02 1.04-.06 1.54-.24 .49-.18.94-.46 1.33-.81 .38-.36.7-.79.92-1.26 .22-.48.34-1 .37-1.516 0-.19 0-.38-.02-.56l-7.28 2.64Z"/></g></svg>