<svg viewBox="0 0 24 24" xmlns="http://www.w3.org/2000/svg"><path fill="#5E94FF" d="M12 1.25C6.06 1.25 1.25 6.06 1.25 12c0 5.93 4.81 10.75 10.75 10.75 5.93 0 10.75-4.82 10.75-10.75 0-5.94-4.82-10.75-10.75-10.75Z"/><path fill="#ECEFF1" d="M11.06 6.25c-.94 0-1.79.51-2.23 1.33 -.18.33-.53.54-.91.54h-.07c-1.45 0-2.625 1.17-2.625 2.625v4.25c0 1.51 1.23 2.75 2.75 2.75h8c1.51 0 2.75-1.24 2.75-2.75v-4.25c0-1.45-1.18-2.625-2.625-2.625h-.07c-.38 0-.73-.21-.91-.55 -.44-.83-1.3-1.34-2.23-1.34h-1.875Z"/><path fill="#5E94FF" d="M12 9.25c-1.8 0-3.25 1.45-3.25 3.25 0 1.79 1.45 3.25 3.25 3.25 1.79 0 3.25-1.46 3.25-3.25 0-1.8-1.46-3.25-3.25-3.25Z"/></svg>