<svg viewBox="0 0 24 24" xmlns="http://www.w3.org/2000/svg"><g fill="#CFD8DC" fill-rule="evenodd"><path d="M11.5 6.79c-1.12-.55-2.39-.69-3.59-.4 -2.75.67-4.68 3.14-4.68 5.96v.6c0 3.4 1.61 6.6 4.34 8.63l.67.5c.82.61 1.93.71 2.85.25l.82-.41c.36-.18.79-.18 1.14.02l.8.43c.95.51 2.12.42 2.98-.24l.74-.58c1.27-.98 2.3-2.22 3.02-3.62 .11-.22.11-.48-.01-.7 -.12-.22-.33-.37-.58-.4 -1.75-.21-3.11-1.72-3.11-3.57 0-1.84 1.34-3.34 3.06-3.57 .26-.04.49-.22.59-.47 .1-.25.06-.54-.11-.75 -.83-1.05-1.99-1.83-3.36-2.17 -1.21-.3-2.474-.16-3.59.39l-1.05.51 -1.05-.52Z"/><path d="M14 1.25c-1.52 0-2.75 1.23-2.75 2.75v1c0 .41.33.75.75.75h1c1.51 0 2.75-1.24 2.75-2.75V2c0-.42-.34-.75-.75-.75h-1Z"/></g></svg>