<svg viewBox="0 0 24 24" xmlns="http://www.w3.org/2000/svg"><path fill="#FF884D" d="M3 1.25c-.97 0-1.75.78-1.75 1.75v18c0 .96.78 1.75 1.75 1.75h18c.96 0 1.75-.79 1.75-1.75V3c0-.97-.79-1.75-1.75-1.75H3Z"/><g fill="#ECEFF1" fill-rule="evenodd"><path d="M6.75 12c0-.42.33-.75.75-.75h9c.41 0 .75.33.75.75v2c0 2.07-1.68 3.75-3.75 3.75h-3c-2.08 0-3.75-1.68-3.75-3.75v-2Zm1.5.75V14c0 1.24 1 2.25 2.25 2.25h3c1.24 0 2.25-1.01 2.25-2.25v-1.25h-7.5Z"/><path d="M6.75 12c0 .41.33.75.75.75h5c1.51 0 2.75-1.24 2.75-2.75 0-2.08-1.68-3.75-3.75-3.75h-1c-2.08 0-3.75 1.67-3.75 3.75v2Zm1.5-.75V10c0-1.25 1-2.25 2.25-2.25h1c1.24 0 2.25 1 2.25 2.25 0 .69-.56 1.25-1.25 1.25H8.25Z"/></g></svg>