<svg viewBox="0 0 24 24" xmlns="http://www.w3.org/2000/svg"><path fill="#ECEFF1" d="M12 2.25c5.38 0 9.75 4.36 9.75 9.75 0 1.78-.49 3.46-1.33 4.9l1.28 3.85c.08.26.01.56-.19.76 -.21.2-.5.27-.77.18l-3.86-1.29c-1.45.84-3.12 1.32-4.91 1.32 -5.39 0-9.75-4.37-9.75-9.75 0-5.39 4.36-9.75 9.75-9.75Z"/><path fill="#FF884D" fill-rule="evenodd" d="M9.75 7.46l-1.07.26c-.41.1-.81-.15-.91-.55 -.11-.41.14-.81.54-.91l1.37-.35c.78-.2 1.55.39 1.55 1.21v5.22l.07-.1c.51-.65 1.29-1.02 2.11-1.02 1.78 0 3.07 1.69 2.61 3.41l-.43 1.55c-.33 1.19-1.42 2.02-2.66 2.02h-.48c-1.52 0-2.76-1.24-2.76-2.75V7.41Zm1.5 7.3v.73c0 .69.55 1.25 1.25 1.25h.47c.56 0 1.05-.38 1.2-.93l.42-1.56c.2-.77-.37-1.53-1.17-1.53 -.37 0-.72.16-.95.45l-1.25 1.56Z"/></svg>