<svg viewBox="0 0 24 24" xmlns="http://www.w3.org/2000/svg"><path fill="#5E94FF" d="M8.88 4.6c-.18-.28-.5-.41-.81-.34l-4.25 1c-.26.05-.46.24-.54.49l-1.47 4.38c-.39 1.14-.58 2.34-.58 3.55v4.29c0 .3.18.58.47.69l5 2c.27.11.59.04.8-.17l1.78-1.79h5.37l1.78 1.78c.21.21.53.27.8.16l5-2c.28-.12.47-.39.47-.7v-4.3c0-1.21-.2-2.42-.58-3.56l-1.47-4.39c-.09-.25-.29-.44-.54-.5l-4.25-1c-.32-.08-.64.06-.81.33l-1.03 1.64H9.85L8.82 4.51Z"/><g fill="#ECEFF1"><path d="M15.5 10.75c-1.25 0-2.25 1-2.25 2.25 0 1.24 1 2.25 2.25 2.25 1.24 0 2.25-1.01 2.25-2.25 0-1.25-1.01-2.25-2.25-2.25Z"/><path d="M8.5 10.75c-1.25 0-2.25 1-2.25 2.25 0 1.24 1 2.25 2.25 2.25 1.24 0 2.25-1.01 2.25-2.25 0-1.25-1.01-2.25-2.25-2.25Z"/></g></svg>