<svg viewBox="0 0 24 24" xmlns="http://www.w3.org/2000/svg"><path fill="#FFD071" d="M2 9.25c-.34 0-.63-.22-.72-.54 -.1-.32.03-.67.31-.85l9.99-6.5c.24-.17.56-.17.81-.001l10 6.5c.27.18.4.52.31.84 -.1.31-.39.53-.72.53h-20Z"/><path fill="#FFC44D" d="M2 7.75c-.42 0-.75.33-.75.75v13c0 .41.33.75.75.75h20c.41 0 .75-.34.75-.75v-13c0-.42-.34-.75-.75-.75H2Z"/><path fill="#ECEFF1" d="M2 7.75c-.34 0-.63.21-.72.53 -.1.31.03.66.31.84l9.99 6.49c.24.16.56.16.81 0l10-6.5c.27-.19.4-.53.31-.85 -.1-.32-.39-.54-.72-.54h-20Z"/></svg>