<svg viewBox="0 0 24 24" xmlns="http://www.w3.org/2000/svg"><g fill="#8B98A6" fill-rule="evenodd"><path d="M8 1.25c-.42 0-.75.33-.75.75v3c0 .41.33.75.75.75 .41 0 .75-.34.75-.75V2c0-.42-.34-.75-.75-.75Z"/><path d="M16 1.25c-.42 0-.75.33-.75.75v3c0 .41.33.75.75.75 .41 0 .75-.34.75-.75V2c0-.42-.34-.75-.75-.75Z"/></g><path fill="#ECEFF1" d="M2.75 6c0-.97.78-1.75 1.75-1.75h15c.96 0 1.75.78 1.75 1.75v15c0 .96-.79 1.75-1.75 1.75h-15c-.97 0-1.75-.79-1.75-1.75V6Z"/><path fill="#8BC94D" fill-rule="evenodd" d="M18.03 8.96c.29.29.29.76 0 1.06l-7 7c-.15.14-.34.21-.54.21s-.39-.08-.54-.22l-4-4c-.3-.3-.3-.77 0-1.07 .29-.3.76-.3 1.06 0l3.46 3.46 6.46-6.47c.29-.3.76-.3 1.06 0Z"/></svg>