<svg viewBox="0 0 24 24" xmlns="http://www.w3.org/2000/svg"><path fill="#5485E5" d="M2 1.25c-.42 0-.75.33-.75.75v20c0 .41.33.75.75.75h20c.41 0 .75-.34.75-.75V2c0-.42-.34-.75-.75-.75H2Z"/><g fill="#ECEFF1"><path d="M7.3 8.34c.23-.04.46.04.63.21 .16.16.24.4.21.63l-.14.99 .43.89c.1.21.1.45-.01.66 -.11.2-.31.35-.54.39l-.99.17 -.73.69c-.17.16-.41.23-.64.2 -.24-.04-.44-.19-.55-.39l-.48-.89 -.89-.48c-.21-.12-.36-.32-.39-.55 -.04-.24.03-.47.2-.64l.69-.73 .17-.99c.04-.24.18-.44.39-.54 .2-.11.45-.11.66-.01l.89.43 .99-.14Z"/><path d="M11.66 3.48c.23-.04.46.04.63.21 .16.16.24.4.21.63l-.19 1.29 .57 1.17c.1.21.1.45-.01.66 -.11.2-.31.35-.54.39l-1.29.22 -.95.9c-.17.16-.41.23-.64.2 -.24-.04-.44-.19-.55-.39L8.28 7.6l-1.16-.62c-.21-.12-.36-.32-.39-.55 -.04-.24.03-.47.2-.64l.9-.95 .22-1.29c.04-.24.18-.44.39-.54 .2-.11.45-.11.66-.01l1.17.57 1.29-.19Z"/><g fill="#ECEFF1" fill-rule="evenodd"><path d="M17.5 9.25c.34 0 .63.22.72.55l2.5 9.49c.1.4-.14.81-.54.91 -.41.1-.82-.14-.92-.54l-1.78-6.75 -1.78 6.74c-.11.4-.52.63-.92.53 -.41-.11-.64-.52-.54-.92l2.5-9.5c.08-.33.38-.56.72-.56Z"/><path d="M15.25 16c0-.42.33-.75.75-.75h3c.41 0 .75.33.75.75 0 .41-.34.75-.75.75h-3c-.42 0-.75-.34-.75-.75Z"/><path d="M9.75 10c0-.42.33-.75.75-.75H14c.41 0 .75.33.75.75 0 .41-.34.75-.75.75h-2.75v8.75c0 .41-.34.75-.75.75 -.42 0-.75-.34-.75-.75V10Z"/><path d="M9.75 14c0-.42.33-.75.75-.75H14c.41 0 .75.33.75.75 0 .41-.34.75-.75.75h-3.5c-.42 0-.75-.34-.75-.75Z"/></g></g></svg>