<svg viewBox="0 0 24 24" xmlns="http://www.w3.org/2000/svg"><path fill="#8BC94D" d="M12 1.25C6.06 1.25 1.25 6.06 1.25 12c0 5.93 4.81 10.75 10.75 10.75 5.93 0 10.75-4.82 10.75-10.75 0-5.94-4.82-10.75-10.75-10.75Z"/><g fill="#ECEFF1"><path d="M14.12 5.75c-1.17.42-1.77 1.71-1.35 2.88 .42 1.16 1.71 1.76 2.88 1.34 1.16-.43 1.76-1.72 1.34-2.89 -.43-1.17-1.72-1.77-2.89-1.35Z"/><path d="M6.6 8.49c-1.17.42-1.77 1.71-1.35 2.88 .42 1.16 1.71 1.76 2.88 1.34 1.16-.43 1.76-1.72 1.34-2.89 -.43-1.17-1.72-1.77-2.89-1.35Z"/><path fill="#ECEFF1" fill-rule="evenodd" d="M8.52 15.24c.38-.15.81.05.96.44 .58 1.61 2.6 2.5 4.63 1.77 2.02-.74 2.99-2.73 2.41-4.34 -.15-.39.05-.82.44-.97 .38-.15.81.05.96.44 .92 2.54-.67 5.29-3.31 6.25 -2.65.96-5.64-.13-6.56-2.67 -.15-.39.05-.82.44-.97Z"/></g></svg>