<svg viewBox="0 0 24 24" xmlns="http://www.w3.org/2000/svg"><path fill="#8BC94D" d="M6 2.75c-2.63 0-4.75 2.12-4.75 4.75 0 1.5.7 2.85 1.79 3.72 -.52 1-.8 2.1-.8 3.27 0 4.67 4.49 8.25 9.75 8.25 5.25 0 9.75-3.58 9.75-8.25 0-1.17-.29-2.28-.8-3.28 1.09-.87 1.79-2.22 1.79-3.73 0-2.63-2.13-4.75-4.75-4.75 -2.221 0-4.09 1.52-4.61 3.58 -.46-.06-.93-.09-1.4-.09 -.48 0-.94.02-1.4.08 -.53-2.06-2.39-3.59-4.61-3.59Z"/><g fill="#ECEFF1"><path d="M18 5.25c-1.25 0-2.25 1-2.25 2.25 0 1.24 1 2.25 2.25 2.25 1.24 0 2.25-1.01 2.25-2.25 0-1.25-1.01-2.25-2.25-2.25Z"/><path d="M6 5.25c-1.25 0-2.25 1-2.25 2.25 0 1.24 1 2.25 2.25 2.25 1.24 0 2.25-1.01 2.25-2.25 0-1.25-1.01-2.25-2.25-2.25Z"/><path fill="#ECEFF1" fill-rule="evenodd" d="M8.5 14.25c.41 0 .75.33.75.75 0 .16.12.46.64.76 .5.28 1.24.48 2.1.48 .86 0 1.6-.21 2.1-.49 .52-.3.64-.6.64-.77 0-.42.33-.75.75-.75 .41 0 .75.33.75.75 0 .93-.66 1.63-1.41 2.06 -.766.43-1.78.68-2.85.68 -1.08 0-2.09-.25-2.85-.69 -.75-.43-1.41-1.13-1.41-2.07 0-.42.33-.75.75-.75Z"/></g></svg>