<svg viewBox="0 0 24 24" xmlns="http://www.w3.org/2000/svg"><path fill="#ECEFF1" d="M5 1.25c-.42 0-.75.33-.75.75v20c0 .41.33.75.75.75h14c.41 0 .75-.34.75-.75V9c0-.42-.34-.75-.75-.75h-6.25V2c0-.42-.34-.75-.75-.75H5Z"/><g fill="#A071FF" fill-rule="evenodd"><path d="M19 8.25c.41 0 .75.33.75.75v13c0 .41-.34.75-.75.75 -.42 0-.75-.34-.75-.75V9c0-.42.33-.75.75-.75Z"/><path fill="#8BC94D" d="M5 1.25c.41 0 .75.33.75.75v20c0 .41-.34.75-.75.75 -.42 0-.75-.34-.75-.75V2c0-.42.33-.75.75-.75Z"/><path fill="#FFC44D" d="M4.25 2c0-.42.33-.75.75-.75h7c.41 0 .75.33.75.75v6.25H19c.41 0 .75.33.75.75 0 .41-.34.75-.75.75h-7c-.42 0-.75-.34-.75-.75V2.75H5c-.42 0-.75-.34-.75-.75Z"/></g><path fill="#EE4D4D" d="M12 1.25c-.42 0-.75.33-.75.75v7c0 .41.33.75.75.75h7c.41 0 .75-.34.75-.75V6c0-.42-.34-.75-.75-.75h-1.25V4c0-.42-.34-.75-.75-.75h-1.25V2c0-.42-.34-.75-.75-.75h-3Z"/><path fill="#4DC4FF" fill-rule="evenodd" d="M4.25 22c0-.42.33-.75.75-.75h14c.41 0 .75.33.75.75 0 .41-.34.75-.75.75H5c-.42 0-.75-.34-.75-.75Z"/></svg>