<svg viewBox="0 0 24 24" xmlns="http://www.w3.org/2000/svg"><path fill="#C5815F" d="M3 1.25c-.97 0-1.75.78-1.75 1.75v18c0 .96.78 1.75 1.75 1.75h18c.96 0 1.75-.79 1.75-1.75V3c0-.97-.79-1.75-1.75-1.75H3Z"/><g fill="#ECEFF1" fill-rule="evenodd"><path d="M15.5 4.25c.41 0 .75.33.75.75v10.75c0 2.2-1.8 4-4 4 -2.21 0-4-1.8-4-4v-.25c0-.42.33-.75.75-.75 .41 0 .75.33.75.75v.25c0 1.38 1.11 2.5 2.5 2.5 1.38 0 2.5-1.12 2.5-2.5V5c0-.42.33-.75.75-.75Z"/><path d="M12 6.75c-1.52 0-2.75 1.23-2.75 2.75v1c0 1.51 1.23 2.75 2.75 2.75 1.51 0 2.75-1.24 2.75-2.75v-1c0-1.52-1.24-2.75-2.75-2.75ZM7.75 9.5c0-2.35 1.9-4.25 4.25-4.25 2.34 0 4.25 1.9 4.25 4.25v1c0 2.34-1.91 4.25-4.25 4.25 -2.35 0-4.25-1.91-4.25-4.25v-1Z"/></g></svg>