<svg viewBox="0 0 24 24" xmlns="http://www.w3.org/2000/svg"><path fill="#ECEFF1" d="M6.5 1.25c-2.9 0-5.25 2.35-5.25 5.25v11c0 2.89 2.35 5.25 5.25 5.25h11c2.89 0 5.25-2.36 5.25-5.25v-11c0-2.9-2.36-5.25-5.25-5.25h-11Z"/><path fill="#8B98A6" d="M12 9.75c-1.25 0-2.25 1-2.25 2.25v5.5c0 1.24 1 2.25 2.25 2.25 1.24 0 2.25-1.01 2.25-2.25V12c0-1.25-1.01-2.25-2.25-2.25Z"/><path fill="#8BC94D" d="M12 4.25c-1.25 0-2.25 1-2.25 2.25 0 1.24 1 2.25 2.25 2.25 1.24 0 2.25-1.01 2.25-2.25 0-1.25-1.01-2.25-2.25-2.25Z"/></svg>