<svg viewBox="0 0 24 24" xmlns="http://www.w3.org/2000/svg"><path fill="#5E94FF" fill-rule="evenodd" d="M7.25 5c0-2.08 1.67-3.75 3.75-3.75h2c2.07 0 3.75 1.67 3.75 3.75v1c0 .41-.34.75-.75.75 -.42 0-.75-.34-.75-.75V5c0-1.25-1.01-2.25-2.25-2.25h-2c-1.25 0-2.25 1-2.25 2.25v1c0 .41-.34.75-.75.75 -.42 0-.75-.34-.75-.75V5Z"/><path fill="#5E94FF" d="M7.75 5.25C5.24 5.25 3.16 7.2 3 9.7l-.5 8c-.18 2.73 2 5.04 4.74 5.04h9.48c2.73 0 4.91-2.32 4.74-5.05l-.5-8c-.16-2.51-2.24-4.46-4.75-4.46H7.72Z"/><path fill="#ECEFF1" fill-rule="evenodd" d="M7.25 10c0 2.07 1.67 3.75 3.75 3.75h2c2.07 0 3.75-1.68 3.75-3.75V9c0-.42-.34-.75-.75-.75 -.42 0-.75.33-.75.75v1c0 1.24-1.01 2.25-2.25 2.25h-2c-1.25 0-2.25-1.01-2.25-2.25V9c0-.42-.34-.75-.75-.75 -.42 0-.75.33-.75.75v1Z"/></svg>