<svg viewBox="0 0 24 24" xmlns="http://www.w3.org/2000/svg"><g fill="#5E94FF"><path d="M8.5 4.75C5.6 4.75 3.25 7.1 3.25 10v7c0 2.89 2.35 5.25 5.25 5.25h7c2.89 0 5.25-2.36 5.25-5.25v-7c0-2.9-2.36-5.25-5.25-5.25h-7Z"/><path fill="#5E94FF" fill-rule="evenodd" d="M8.46 1.96c.29-.3.76-.3 1.06 0l2.46 2.46 2.46-2.47c.29-.3.76-.3 1.06 0 .29.29.29.76 0 1.06l-3 3c-.3.29-.77.29-1.07 0l-3.01-3c-.3-.3-.3-.77 0-1.07Z"/></g><path fill="#ECEFF1" fill-rule="evenodd" d="M12.44 10.89c.19.14.3.36.3.6v1.99l4.03-1.22c.39-.12.81.1.93.5 .11.39-.11.81-.51.93l-5 1.5c-.23.06-.48.02-.67-.12 -.2-.15-.31-.37-.31-.61v-2l-4.04 1.21c-.4.11-.82-.11-.94-.51s.1-.82.5-.94l5-1.5c.22-.07.47-.03.66.11Z"/></svg>