<svg viewBox="0 0 24 24" xmlns="http://www.w3.org/2000/svg"><path fill="#FF4DA5" d="M12.48 1.42c-.28-.24-.69-.24-.97 0l-6.01 5c-.18.14-.27.35-.27.57v10c0 .22.09.43.26.57l6 5c.27.23.68.23.96 0l6-5c.17-.15.26-.36.26-.58v-10c0-.23-.1-.44-.27-.58l-6-5Z"/><path fill="#ECEFF1" fill-rule="evenodd" d="M11.49 5.44c.28-.27.72-.27 1.01 0l3 2.75c.15.14.24.34.24.55v6.5c0 .21-.09.41-.25.55l-3 2.75c-.29.26-.73.26-1.02 0l-3-2.75c-.16-.15-.25-.35-.25-.56v-6.5c0-.22.08-.42.24-.56l2.99-2.75ZM9.74 9.07v5.84l2.25 2.06 2.25-2.07V9.05l-2.25-2.07 -2.25 2.06Z"/></svg>