<svg viewBox="0 0 24 24" xmlns="http://www.w3.org/2000/svg"><g fill="#5E94FF"><path d="M5 5.25C3.48 5.25 2.25 6.48 2.25 8v8c0 1.51 1.23 2.75 2.75 2.75h10c1.51 0 2.75-1.24 2.75-2.75V8c0-1.52-1.24-2.75-2.75-2.75H5Z"/><path d="M21.75 7.2c0-1.12-1.35-1.68-2.14-.89l-3.15 3.14c-.15.14-.22.33-.22.53v4c0 .19.07.38.21.53l3.14 3.14c.78.78 2.13.22 2.13-.89V7.17Z"/></g><g fill="#ECEFF1"><path d="M15.03 12.53l-.01 0 -.01 0 -.03.02c-.03.02-.06.05-.1.08 -.08.07-.19.17-.33.3 -.28.24-.68.57-1.14.9 -.89.63-2.18 1.38-3.44 1.38 -1.26 0-2.56-.76-3.44-1.39 -.47-.34-.86-.67-1.14-.91 -.15-.13-.26-.23-.33-.31 -.04-.04-.07-.07-.1-.09l-.03-.03 -.01-.01 -.01-.01 -.01-.01"/><path fill="#ECEFF1" fill-rule="evenodd" d="M15.03 12.53c0-.01 0 0-.54-.54 .53-.54.53-.54.53-.54l-.01-.01 -.01-.01 -.01-.01 -.03-.03c-.03-.03-.06-.06-.1-.09 -.08-.08-.19-.18-.33-.31 -.28-.25-.68-.58-1.14-.91 -.89-.64-2.18-1.39-3.44-1.39 -1.26 0-2.56.75-3.44 1.38 -.47.33-.86.66-1.14.9 -.15.12-.26.22-.33.3 -.04.03-.07.06-.1.08l-.03.02 -.01 0 -.01 0 -.01 0c-.01 0 0 0 .53.53l-.54-.54c-.3.29-.3.76 0 1.06m.53-.54l-.54.53c-.01-.01 0-.01.53-.54Zm9.53-.54l-.54.53 .53.53c.29-.3.29-.77 0-1.07Z"/></g></svg>