<svg viewBox="0 0 24 24" xmlns="http://www.w3.org/2000/svg"><path fill="#2E2E2E" d="M2 1.25c-.42 0-.75.33-.75.75v20c0 .41.33.75.75.75h20c.41 0 .75-.34.75-.75V2c0-.42-.34-.75-.75-.75H2Z"/><g fill="#ECEFF1" fill-rule="evenodd"><path d="M5.25 7c0-.42.33-.75.75-.75h2.5c.31 0 .6.2.7.5l2.79 7.97 2.79-7.98c.1-.31.38-.51.7-.51h2.5c.41 0 .75.33.75.75 0 .41-.34.75-.75.75h-1.97l-3.33 9.49c-.11.3-.39.5-.71.5 -.32 0-.61-.21-.71-.51l-3.33-9.5H5.96c-.42 0-.75-.34-.75-.75Z"/><path d="M7.5 6.25c.41 0 .75.33.75.75v10c0 .41-.34.75-.75.75 -.42 0-.75-.34-.75-.75V7c0-.42.33-.75.75-.75Z"/><path d="M16.5 6.25c.41 0 .75.33.75.75v10c0 .41-.34.75-.75.75 -.42 0-.75-.34-.75-.75V7c0-.42.33-.75.75-.75Z"/><path d="M5.25 17c0-.42.33-.75.75-.75h3c.41 0 .75.33.75.75 0 .41-.34.75-.75.75H6c-.42 0-.75-.34-.75-.75Z"/><path d="M14.25 17c0-.42.33-.75.75-.75h3c.41 0 .75.33.75.75 0 .41-.34.75-.75.75h-3c-.42 0-.75-.34-.75-.75Z"/></g></svg>