<svg viewBox="0 0 24 24" xmlns="http://www.w3.org/2000/svg"><path fill="#5E94FF" d="M12 2.25c-5.3 0-9.75 3.83-9.75 8.75 0 2.78 1.44 5.23 3.64 6.82l.35 4.23c.02.26.18.5.42.61 .24.11.52.08.74-.07l4.1-2.88c.15 0 .3 0 .46 0 5.29 0 9.75-3.84 9.75-8.75 0-4.92-4.46-8.75-9.75-8.75Z"/><path fill="#ECEFF1" d="M10.916 7.37c-.33-.22-.76-.15-1.01.15l-4 5c-.22.26-.22.63-.03.9s.55.38.87.26l3.64-1.37 2.68 1.78c.33.22.78.14 1.02-.19l4-5.5c.2-.28.18-.67-.04-.93 -.23-.27-.6-.35-.91-.19l-3.62 1.8 -2.64-1.76Z"/></svg>