<svg viewBox="0 0 24 24" xmlns="http://www.w3.org/2000/svg"><path fill="#A071FF" d="M16 11.75c-.42 0-.75.33-.75.75v2c0 1.79 1.45 3.25 3.25 3.25h1c1.79 0 3.25-1.46 3.25-3.25v-2c0-.42-.34-.75-.75-.75h-6Z"/><path fill="#B38DFF" d="M10 10.25c-.42 0-.75.33-.75.75v3.5c0 1.79 1.45 3.25 3.25 3.25H14c1.79 0 3.25-1.46 3.25-3.25V11c0-.42-.34-.75-.75-.75H10Z"/><path fill="#A071FF" d="M11.75 3c0-.25-.12-.47-.32-.61 -.2-.15-.45-.18-.68-.11l-9 3c-.31.1-.52.38-.52.71v8.99c0 .32.2.6.51.71l8.99 3c.22.07.48.03.67-.11 .19-.15.31-.37.31-.61v-15Z"/><path fill="#ECEFF1" fill-rule="evenodd" d="M3.75 8.5c0-.42.33-.75.75-.75h4c.41 0 .75.33.75.75 0 .41-.34.75-.75.75H7.25V13c0 .41-.34.75-.75.75 -.42 0-.75-.34-.75-.75V9.25H4.5c-.42 0-.75-.34-.75-.75Z"/><path fill="#B38DFF" d="M14.5 4.75c-1.25 0-2.25 1-2.25 2.25 0 1.24 1 2.25 2.25 2.25 1.24 0 2.25-1.01 2.25-2.25 0-1.25-1.01-2.25-2.25-2.25Z"/><path fill="#A071FF" d="M20 6.25c-1.25 0-2.25 1-2.25 2.25 0 1.24 1 2.25 2.25 2.25 1.24 0 2.25-1.01 2.25-2.25 0-1.25-1.01-2.25-2.25-2.25Z"/></svg>