<svg viewBox="0 0 24 24" xmlns="http://www.w3.org/2000/svg"><g fill="#5E94FF"><path d="M4.78 6.13c-.96.95-1.08 2.46-.28 3.56l3.13 4.3c.65.9 1.45 1.69 2.35 2.35l4.3 3.13c1.09.79 2.6.67 3.56-.28l2.69-2.7c.74-.75.66-1.99-.18-2.63l-2.38-1.82c-.7-.54-1.68-.47-2.3.15l-.1.09c-.43.42-1.1.48-1.59.14l-.06-.04c-.96-.65-1.78-1.47-2.42-2.42l-.04-.06c-.34-.5-.28-1.17.14-1.59l.09-.1c.61-.62.68-1.61.15-2.3l-1.82-2.38c-.65-.85-1.88-.93-2.63-.18l-2.7 2.69Z"/><g fill="#5E94FF" fill-rule="evenodd"><path d="M18 2.75c.41 0 .75.33.75.75v5c0 .41-.34.75-.75.75 -.42 0-.75-.34-.75-.75v-5c0-.42.33-.75.75-.75Z"/><path d="M14.75 6c0-.42.33-.75.75-.75h5c.41 0 .75.33.75.75 0 .41-.34.75-.75.75h-5c-.42 0-.75-.34-.75-.75Z"/></g></g></svg>