<svg viewBox="0 0 24 24" xmlns="http://www.w3.org/2000/svg"><path fill="#8BC94D" d="M6 1.25C4.48 1.25 3.25 2.48 3.25 4v16c0 1.51 1.23 2.75 2.75 2.75h12c1.51 0 2.75-1.24 2.75-2.75V4c0-1.52-1.24-2.75-2.75-2.75H6Z"/><g fill="#ECEFF1"><path d="M16 15.25c-1.25 0-2.25 1-2.25 2.25 0 1.24 1 2.25 2.25 2.25 1.24 0 2.25-1.01 2.25-2.25 0-1.25-1.01-2.25-2.25-2.25Z"/><path d="M8 14.25c-1.25 0-2.25 1-2.25 2.25 0 1.24 1 2.25 2.25 2.25 1.24 0 2.25-1.01 2.25-2.25 0-1.25-1.01-2.25-2.25-2.25Z"/><path d="M16 9.75c-1.25 0-2.25 1-2.25 2.25 0 1.24 1 2.25 2.25 2.25 1.24 0 2.25-1.01 2.25-2.25 0-1.25-1.01-2.25-2.25-2.25Z"/><path d="M8 8.75c-1.25 0-2.25 1-2.25 2.25 0 1.24 1 2.25 2.25 2.25 1.24 0 2.25-1.01 2.25-2.25 0-1.25-1.01-2.25-2.25-2.25Z"/><path d="M16 4.25c-1.25 0-2.25 1-2.25 2.25 0 1.24 1 2.25 2.25 2.25 1.24 0 2.25-1.01 2.25-2.25 0-1.25-1.01-2.25-2.25-2.25Z"/><path d="M8 3.25c-1.25 0-2.25 1-2.25 2.25 0 1.24 1 2.25 2.25 2.25 1.24 0 2.25-1.01 2.25-2.25 0-1.25-1.01-2.25-2.25-2.25Z"/><g fill="#ECEFF1" fill-rule="evenodd"><path d="M12 5.25c.41 0 .75.33.75.75v16.75h-1.5V6c0-.42.33-.75.75-.75Z"/><path d="M15.671 18.16c.18.37.03.82-.34 1l-3 1.5c-.38.18-.83.03-1.01-.34 -.19-.38-.04-.83.33-1.01l3-1.5c.37-.19.82-.04 1 .33Z"/><path d="M8.32 17.16c-.19.37-.04.82.33 1l2.99 1.5c.37.18.82.03 1-.34 .18-.38.03-.83-.34-1.01l-3-1.5c-.38-.19-.83-.04-1.01.33Z"/><path d="M15.671 12.66c.18.37.03.82-.34 1l-3 1.5c-.38.18-.83.03-1.01-.34 -.19-.38-.04-.83.33-1.01l3-1.5c.37-.19.82-.04 1 .33Z"/><path d="M8.32 11.66c-.19.37-.04.82.33 1l2.99 1.5c.37.18.82.03 1-.34 .18-.38.03-.83-.34-1.01l-3-1.5c-.38-.19-.83-.04-1.01.33Z"/><path d="M15.671 7.16c.18.37.03.82-.34 1l-3 1.5c-.38.18-.83.03-1.01-.34 -.19-.38-.04-.83.33-1.01l3-1.5c.37-.19.82-.04 1 .33Z"/><path d="M8.32 6.16c-.19.37-.04.82.33 1l2.99 1.5c.37.18.82.03 1-.34 .18-.38.03-.83-.34-1.01l-3-1.5c-.38-.19-.83-.04-1.01.33Z"/></g></g></svg>