<svg viewBox="0 0 24 24" xmlns="http://www.w3.org/2000/svg"><g fill="#4DC4FF"><path d="M11.52 22.57s0 0 .47-.58l.47.57c-.28.22-.68.22-.96-.01Z"/><path d="M11.52 22.57l.47-.58c.47.57.47.57.47.57l0-.01 0-.01 .01-.02c.01-.02.04-.04.07-.06 .06-.06.15-.13.26-.23 .22-.2.54-.48.92-.84 .76-.72 1.78-1.73 2.8-2.92 1.02-1.19 2.05-2.57 2.84-4.01 .78-1.44 1.34-2.99 1.34-4.52 0-4.84-3.92-8.75-8.75-8.75 -4.84 0-8.75 3.91-8.75 8.75 0 1.52.56 3.08 1.34 4.51 .78 1.44 1.82 2.81 2.84 4 1.02 1.18 2.04 2.19 2.8 2.91 .38.35.7.64.92.83 .11.09.2.17.26.22 .03.02.05.04.07.05l.01.01 0 0 0 0Z"/></g><path fill="#ECEFF1" d="M12 3.75c-3.18 0-5.75 2.57-5.75 5.75 0 3.17 2.57 5.75 5.75 5.75 3.17 0 5.75-2.58 5.75-5.75 0-3.18-2.58-5.75-5.75-5.75Z"/><path fill="#4DC4FF" d="M10 4.75c-1.25 0-2.25 1-2.25 2.25 0 1.24 1 2.25 2.25 2.25 1.24 0 2.25-1.01 2.25-2.25 0-1.25-1.01-2.25-2.25-2.25Z"/></svg>