<svg viewBox="0 0 24 24" xmlns="http://www.w3.org/2000/svg"><path fill="#71D0FF" d="M5.59 2.58c-1.5-.84-3.35.25-3.35 1.96v14.9c0 1.71 1.843 2.8 3.34 1.96l13.41-7.46c1.54-.86 1.54-3.08 0-3.94L5.57 2.54Z"/><g fill="#A2D471" fill-rule="evenodd"><path d="M16.76 8.79L5.58 2.58c-1.18-.66-2.57-.13-3.11.96l.48.48 .01.01 8.86 8.5c.29.27.74.27 1.03 0l3.13-3.01 .01-.02 .73-.74Z"/><path fill="#F17171" d="M16.76 15.2l-.74-.74 -.02-.02 -3.14-3c-.3-.28-.75-.28-1.04 0l-8.87 8.5 -.02.01 -.49.48c.54 1.08 1.93 1.61 3.1.96l11.17-6.21Z"/><path fill="#FFC44D" d="M15.4 8.03l-.44.43 -3.13 2.99c-.15.14-.24.33-.24.54 0 .2.08.4.23.54l3.12 2.99 .43.43 3.59-2c1.54-.86 1.54-3.08 0-3.94l-3.6-2Z"/></g></svg>