<svg viewBox="0 0 24 24" xmlns="http://www.w3.org/2000/svg"><path fill="#8B98A6" fill-rule="evenodd" d="M6.75 6.5c0-2.35 1.9-4.25 4.25-4.25h1c2.34 0 4.25 1.9 4.25 4.25V9c0 .41-.34.75-.75.75 -.42 0-.75-.34-.75-.75V6.5c0-1.52-1.24-2.75-2.75-2.75h-1c-1.52 0-2.75 1.23-2.75 2.75V9c0 .41-.34.75-.75.75 -.42 0-.75-.34-.75-.75V6.5Z"/><path fill="#FFC44D" d="M6.5 8.25c-1.25 0-2.25 1-2.25 2.25v9c0 1.24 1 2.25 2.25 2.25h10c1.24 0 2.25-1.01 2.25-2.25v-9c0-1.25-1.01-2.25-2.25-2.25h-10Z"/><g fill="#ECEFF1"><path d="M11.5 11.25c-1.25 0-2.25 1-2.25 2.25 0 1.24 1 2.25 2.25 2.25 1.24 0 2.25-1.01 2.25-2.25 0-1.25-1.01-2.25-2.25-2.25Z"/><path d="M11.5 14.25c-2.08 0-3.75 1.67-3.75 3.75 0 .41.33.75.75.75h6c.41 0 .75-.34.75-.75 0-2.08-1.68-3.75-3.75-3.75Z"/></g></svg>