<svg viewBox="0 0 24 24" xmlns="http://www.w3.org/2000/svg"><path fill="#CFD8DC" fill-rule="evenodd" d="M1.25 5.5c0-2.35 1.9-4.25 4.25-4.25H8c.41 0 .75.33.75.75 0 .41-.34.75-.75.75H5.5c-1.52 0-2.75 1.23-2.75 2.75V8c0 .41-.34.75-.75.75 -.42 0-.75-.34-.75-.75V5.5Zm14-3.5c0-.42.33-.75.75-.75h2.5c2.34 0 4.25 1.9 4.25 4.25V8c0 .41-.34.75-.75.75 -.42 0-.75-.34-.75-.75V5.5c0-1.52-1.24-2.75-2.75-2.75H16c-.42 0-.75-.34-.75-.75ZM2 15.25c.41 0 .75.33.75.75v2.5c0 1.51 1.23 2.75 2.75 2.75H8c.41 0 .75.33.75.75 0 .41-.34.75-.75.75H5.5c-2.35 0-4.25-1.91-4.25-4.25V16c0-.42.33-.75.75-.75Zm20 0c.41 0 .75.33.75.75v2.5c0 2.34-1.91 4.25-4.25 4.25H16c-.42 0-.75-.34-.75-.75 0-.42.33-.75.75-.75h2.5c1.51 0 2.75-1.24 2.75-2.75V16c0-.42.33-.75.75-.75Z"/><g fill="#5E94FF"><path d="M6.5 3.75c-1.52 0-2.75 1.23-2.75 2.75v2c0 1.51 1.23 2.75 2.75 2.75h2c1.51 0 2.75-1.24 2.75-2.75v-2c0-1.52-1.24-2.75-2.75-2.75h-2Z"/><path d="M6.5 12.75c-1.52 0-2.75 1.23-2.75 2.75v2c0 1.51 1.23 2.75 2.75 2.75h2c1.51 0 2.75-1.24 2.75-2.75v-2c0-1.52-1.24-2.75-2.75-2.75h-2Z"/><path d="M15.5 3.75c-1.52 0-2.75 1.23-2.75 2.75v2c0 1.51 1.23 2.75 2.75 2.75h2c1.51 0 2.75-1.24 2.75-2.75v-2c0-1.52-1.24-2.75-2.75-2.75h-2Z"/><path d="M15.5 12.75c-1.52 0-2.75 1.23-2.75 2.75v2c0 1.51 1.23 2.75 2.75 2.75h2c1.51 0 2.75-1.24 2.75-2.75v-2c0-1.52-1.24-2.75-2.75-2.75h-2Z"/></g></svg>