<svg viewBox="0 0 24 24" xmlns="http://www.w3.org/2000/svg"><path fill="#8BC94D" fill-rule="evenodd" d="M11.87 1.81C9.7.72 7.29 1.29 5.78 2.8c-2.46.35-4.54 2.43-4.54 5.21v7.96c0 2.78 2.08 4.86 4.53 5.21 1.51 1.5 3.91 2.07 6.08.99l7.96-3.99c2.47-1.24 3.36-3.93 2.69-6.21 .66-2.29-.23-4.98-2.7-6.21l-7.97-3.99ZM5.74 8.72c0-2.21 2.32-3.65 4.29-2.66l6.56 3.27c2.18 1.09 2.18 4.21 0 5.3l-6.561 3.27c-1.98.98-4.3-.45-4.3-2.66V8.68Z"/><path fill="#8BC94D" d="M11.14 8.49c-1.56-.78-3.4.35-3.4 2.09v2.81c0 1.74 1.83 2.87 3.39 2.09l2.81-1.41c1.72-.87 1.72-3.33 0-4.2l-2.82-1.41Z"/></svg>