<svg viewBox="0 0 24 24" xmlns="http://www.w3.org/2000/svg"><path fill="#5E94FF" d="M4 2.25C2.48 2.25 1.25 3.48 1.25 5v10c0 1.51 1.23 2.75 2.75 2.75h2.25V21c0 .29.17.55.43.68 .26.12.57.07.8-.12l4.45-3.82h8.05c1.51 0 2.75-1.24 2.75-2.75v-10c0-1.52-1.24-2.75-2.75-2.75h-16Z"/><g fill="#ECEFF1" fill-rule="evenodd"><path d="M5 5.25c-.42 0-.75.33-.75.75v8c0 .41.33.75.75.75h7c.41 0 .75-.34.75-.75V6c0-.42-.34-.75-.75-.75H5Z"/><path d="M13.75 6c0-.42.33-.75.75-.75h5c.41 0 .75.33.75.75 0 .41-.34.75-.75.75h-5c-.42 0-.75-.34-.75-.75Z"/><path d="M13.75 14c0-.42.33-.75.75-.75h5c.41 0 .75.33.75.75 0 .41-.34.75-.75.75h-5c-.42 0-.75-.34-.75-.75Z"/><path d="M13.75 10c0-.42.33-.75.75-.75h5c.41 0 .75.33.75.75 0 .41-.34.75-.75.75h-5c-.42 0-.75-.34-.75-.75Z"/></g></svg>