<svg viewBox="0 0 24 24" xmlns="http://www.w3.org/2000/svg"><path fill="#FFC44D" d="M11 1.25c-2.35 0-4.25 1.9-4.25 4.25v1.26l-1.12-.44c-1.15-.45-2.39.4-2.39 1.63v.85c0 .72.44 1.37 1.11 1.63l2.15.83 -.81 1.61c-.48.94-1.32 1.63-2.33 1.92l-1.6.45c-.29.08-.49.31-.54.6 -.05.28.08.57.32.73l2.66 1.77v2.59c0 .23.1.44.28.59 .18.14.41.19.64.13l3.14-.79c.67 1.1 1.88 1.8 3.2 1.8h.93c1.32 0 2.53-.7 3.208-1.81l3.14.78c.22.05.46 0 .64-.14 .18-.15.28-.37.28-.6v-2.6l2.66-1.78c.24-.17.37-.46.32-.74 -.05-.29-.26-.53-.54-.61l-1.6-.46c-1.02-.29-1.86-.99-2.33-1.93l-.81-1.62 2.15-.84c.67-.27 1.11-.91 1.11-1.64v-.86c0-1.23-1.24-2.08-2.39-1.64l-1.12.43V5.33c0-2.35-1.91-4.25-4.25-4.25h-2Z"/></svg>