<svg viewBox="0 0 24 24" xmlns="http://www.w3.org/2000/svg"><path fill="#5E94FF" d="M5 1.25C2.92 1.25 1.25 2.92 1.25 5v14c0 2.07 1.67 3.75 3.75 3.75h14c2.07 0 3.75-1.68 3.75-3.75V5c0-2.08-1.68-3.75-3.75-3.75H5Z"/><path fill="#ECEFF1" d="M12 3.75c-4.56 0-8.25 3.69-8.25 8.25 0 4.55 3.69 8.25 8.25 8.25 4.55 0 8.25-3.7 8.25-8.25 0-4.56-3.7-8.25-8.25-8.25Z"/><g fill="#5E94FF"><path d="M11.23 9.12c.05-.31-.09-.61-.36-.77 -.27-.16-.6-.15-.84.04l-4 3c-.19.14-.3.36-.3.6 0 .23.11.45.3.6l4 3c.24.18.57.2.83.04s.4-.47.35-.77l-.48-2.88 .47-2.88Z"/><path d="M12.76 9.12c-.06-.31.08-.61.35-.77 .26-.16.59-.15.83.04l4 3c.18.14.3.36.3.6 0 .23-.12.45-.3.6l-4 3c-.25.18-.58.2-.84.04 -.27-.16-.41-.47-.36-.77l.47-2.88 -.48-2.88Z"/><path fill="#5E94FF" fill-rule="evenodd" d="M9.25 12c0-.42.33-.75.75-.75h4c.41 0 .75.33.75.75 0 .41-.34.75-.75.75h-4c-.42 0-.75-.34-.75-.75Z"/></g></svg>