<svg viewBox="0 0 24 24" xmlns="http://www.w3.org/2000/svg"><g fill="#4DC4FF" fill-rule="evenodd"><path d="M9.5 9.75c-1.25 0-2.25 1-2.25 2.25 0 1.24 1 2.25 2.25 2.25 1.24 0 2.25-1.01 2.25-2.25 0-1.25-1.01-2.25-2.25-2.25ZM5.75 12c0-2.08 1.67-3.75 3.75-3.75 2.07 0 3.75 1.67 3.75 3.75 0 2.07-1.68 3.75-3.75 3.75 -2.08 0-3.75-1.68-3.75-3.75Z"/><path d="M13.5 7.75c.41 0 .75.33.75.75V13c0 .41.33.75.75.75 .41 0 .75-.34.75-.75V8.5c0-.42.33-.75.75-.75 .41 0 .75.33.75.75V13c0 1.24-1.01 2.25-2.25 2.25 -1.25 0-2.25-1.01-2.25-2.25V8.5c0-.42.33-.75.75-.75Z"/><path d="M1.25 9.5c0-.42.33-.75.75-.75h5.5c.41 0 .75.33.75.75 0 .41-.34.75-.75.75H2c-.42 0-.75-.34-.75-.75Z"/><path d="M15.75 9.5c0-.42.33-.75.75-.75H22c.41 0 .75.33.75.75 0 .41-.34.75-.75.75h-5.5c-.42 0-.75-.34-.75-.75Z"/><path d="M4 8.75c.41 0 .75.33.75.75V15c0 .41-.34.75-.75.75 -.42 0-.75-.34-.75-.75V9.5c0-.42.33-.75.75-.75Z"/><path d="M19.5 8.75c.41 0 .75.33.75.75V15c0 .41-.34.75-.75.75 -.42 0-.75-.34-.75-.75V9.5c0-.42.33-.75.75-.75Z"/></g></svg>