<svg viewBox="0 0 24 24" xmlns="http://www.w3.org/2000/svg"><path fill="#5E94FF" d="M10 2.25C7.37 2.25 5.25 4.37 5.25 7c0 2.62 2.12 4.75 4.75 4.75 2.62 0 4.75-2.13 4.75-4.75 0-2.63-2.13-4.75-4.75-4.75Z"/><path fill="#EE4D4D" fill-rule="evenodd" d="M19 8.75c-1.25 0-2.25 1-2.25 2.25 0 1.24 1 2.25 2.25 2.25 1.24 0 2.25-1.01 2.25-2.25 0-1.25-1.01-2.25-2.25-2.25ZM15.25 11c0-2.08 1.67-3.75 3.75-3.75 2.07 0 3.75 1.67 3.75 3.75 0 2.07-1.68 3.75-3.75 3.75 -2.08 0-3.75-1.68-3.75-3.75Z"/><path fill="#5E94FF" d="M10 12.25c-4.84 0-8.75 3.91-8.75 8.75 0 .41.33.75.75.75h16c.41 0 .75-.34.75-.75 0-4.84-3.92-8.75-8.75-8.75Z"/><path fill="#EE4D4D" fill-rule="evenodd" d="M21.53 8.46c-.3-.3-.77-.3-1.07 0l-4 4c-.3.29-.3.76 0 1.06 .29.29.76.29 1.06 0l4-4c.29-.3.29-.77 0-1.07Z"/></svg>