<svg viewBox="0 0 24 24" xmlns="http://www.w3.org/2000/svg"><g fill="#8B98A6" fill-rule="evenodd"><path d="M7.25 17c0-.42.33-.75.75-.75h4c.41 0 .75.33.75.75 0 .41-.34.75-.75.75H8c-.42 0-.75-.34-.75-.75Z"/><path d="M16.75 7c0-.42-.34-.75-.75-.75h-4c-.42 0-.75.33-.75.75 0 .41.33.75.75.75h4c.41 0 .75-.34.75-.75Z"/><path d="M9.96 9.96c.29-.3.76-.3 1.06 0l3 3c.29.29.29.76 0 1.06 -.3.29-.77.29-1.07 0l-3.01-3c-.3-.3-.3-.77 0-1.07Z"/></g><g fill="#5E94FF"><path d="M7 1.25C3.82 1.25 1.25 3.82 1.25 7c0 3.17 2.57 5.75 5.75 5.75 3.17 0 5.75-2.58 5.75-5.75 0-3.18-2.58-5.75-5.75-5.75Z"/><path d="M17 11.25c-3.18 0-5.75 2.57-5.75 5.75 0 3.17 2.57 5.75 5.75 5.75 3.17 0 5.75-2.58 5.75-5.75 0-3.18-2.58-5.75-5.75-5.75Z"/></g><g fill="#4DC4FF" fill-rule="evenodd"><path d="M11.57 10.48v-.18c0-.08-.02-.15-.04-.23 -.6-1.94-2.41-3.35-4.54-3.35 -2.14 0-3.94 1.4-4.54 3.34 -.03.07-.04.14-.04.22v.17c1.05 1.37 2.7 2.26 4.57 2.26 1.86 0 3.52-.89 4.57-2.27Z"/><path d="M21.57 20.48v-.18c0-.08-.02-.15-.04-.23 -.6-1.936-2.41-3.35-4.54-3.35 -2.14 0-3.94 1.4-4.54 3.34 -.03.07-.04.14-.04.22v.17c1.05 1.37 2.7 2.26 4.57 2.26 1.86 0 3.52-.89 4.57-2.27Z"/></g><g fill="#4DC4FF"><path d="M7 3.75c-1.25 0-2.25 1-2.25 2.25 0 1.24 1 2.25 2.25 2.25 1.24 0 2.25-1.01 2.25-2.25 0-1.25-1.01-2.25-2.25-2.25Z"/><path d="M17 13.75c-1.25 0-2.25 1-2.25 2.25 0 1.24 1 2.25 2.25 2.25 1.24 0 2.25-1.01 2.25-2.25 0-1.25-1.01-2.25-2.25-2.25Z"/></g><g fill="#5E94FF"><path d="M6 14.25c-1.52 0-2.75 1.23-2.75 2.75 0 1.51 1.23 2.75 2.75 2.75 1.51 0 2.75-1.24 2.75-2.75 0-1.52-1.24-2.75-2.75-2.75Z"/><path d="M18 4.25c1.51 0 2.75 1.23 2.75 2.75 0 1.51-1.24 2.75-2.75 2.75 -1.52 0-2.75-1.24-2.75-2.75 0-1.52 1.23-2.75 2.75-2.75Z"/></g></svg>