<svg viewBox="0 0 24 24" xmlns="http://www.w3.org/2000/svg"><path fill="#5E94FF" d="M12 2.25c-5.39 0-9.75 4.36-9.75 9.75 0 1.78.48 3.46 1.32 4.9l-1.29 3.85c-.09.26-.02.56.18.76 .2.2.49.27.76.18l3.85-1.29c1.44.84 3.11 1.32 4.9 1.32 5.38 0 9.75-4.37 9.75-9.75 0-5.39-4.37-9.75-9.75-9.75Z"/><g fill="#ECEFF1" fill-rule="evenodd"><path d="M9.25 11.5c0-1.25 1-2.25 2.25-2.25h1c1.24 0 2.25 1 2.25 2.25v1c0 1.24-1.01 2.25-2.25 2.25h-1c-1.25 0-2.25-1.01-2.25-2.25v-1Zm2.25-.75c-.42 0-.75.33-.75.75v1c0 .41.33.75.75.75h1c.41 0 .75-.34.75-.75v-1c0-.42-.34-.75-.75-.75h-1Z"/><path d="M5.75 12c0-3.18 2.57-5.75 5.75-5.75H14c2.34 0 4.25 1.9 4.25 4.25v1.75c0 1.38-1.12 2.5-2.5 2.5 -1.39 0-2.5-1.12-2.5-2.5V12c0-.42.33-.75.75-.75 .41 0 .75.33.75.75v.25c0 .55.44 1 1 1 .55 0 1-.45 1-1V10.5c0-1.52-1.24-2.75-2.75-2.75h-2.5c-2.35 0-4.25 1.9-4.25 4.25 0 2.34 1.9 4.25 4.25 4.25h2.31c.65 0 1.31-.16 1.9-.45l.94-.48c.37-.19.82-.04 1 .33 .18.37.03.82-.34 1l-.95.47c-.8.39-1.68.6-2.58.6h-2.32c-3.18 0-5.75-2.58-5.75-5.75Z"/></g></svg>