<svg viewBox="0 0 24 24" xmlns="http://www.w3.org/2000/svg"><path fill="#8BC94D" d="M12 2.25c-5.39 0-9.75 4.36-9.75 9.75 0 1.78.48 3.46 1.32 4.9l-1.29 3.85c-.09.26-.02.56.18.76 .2.2.49.27.76.18l3.85-1.29c1.44.84 3.11 1.32 4.9 1.32 5.38 0 9.75-4.37 9.75-9.75 0-5.39-4.37-9.75-9.75-9.75Z"/><path fill="#ECEFF1" fill-rule="evenodd" d="M6.44 10.51c.25-.95.74-1.84 1.48-2.58 .73-.74 1.63-1.24 2.57-1.49 .4-.11.81.13.91.53 .1.4-.14.81-.54.91 -.7.18-1.36.55-1.91 1.1 -.55.54-.92 1.2-1.11 1.9 -.11.4-.52.63-.92.53 -.41-.11-.64-.52-.54-.92Zm6.12-3.54c.1-.41.51-.64.91-.54 .94.25 1.83.74 2.57 1.48 .73.73 1.23 1.63 1.48 2.57 .1.4-.14.81-.54.91 -.41.1-.82-.14-.92-.54 -.19-.7-.56-1.36-1.11-1.91 -.55-.55-1.21-.92-1.91-1.11 -.41-.11-.64-.52-.54-.92Zm-5.6 5.59c.4-.11.81.13.91.53 .18.69.55 1.35 1.1 1.9 .54.54 1.2.91 1.9 1.1 .4.1.63.51.53.91 -.11.4-.52.63-.92.53 -.95-.26-1.84-.75-2.58-1.49s-1.24-1.64-1.49-2.58c-.11-.41.13-.82.53-.92Zm5.59 4.45c-.11-.41.13-.82.53-.92 .69-.19 1.35-.56 1.9-1.11 .54-.55.91-1.21 1.1-1.91 .1-.41.51-.64.91-.54 .4.1.63.51.53.91 -.26.94-.75 1.83-1.49 2.57 -.74.73-1.64 1.23-2.58 1.48 -.41.1-.82-.14-.92-.54Z"/></svg>