<svg viewBox="0 0 24 24" xmlns="http://www.w3.org/2000/svg"><path fill="#FFC44D" d="M16.5 1.25c-.32 0-.61.2-.71.5l-4.5 13c-.08.21-.05.45.07.65l4.5 7c.13.21.37.34.63.34h4c.27 0 .52-.15.65-.4s.12-.54-.03-.77l-4.31-6.7 4.38-12.66c.07-.23.04-.49-.1-.69 -.15-.2-.37-.32-.62-.32h-4Z"/><path fill="#8BC94D" d="M7.5 18.75c.3 0 .58-.19.69-.48l3-7.5c.09-.25.06-.52-.1-.73l-3-4c-.15-.19-.37-.3-.6-.3h-4c-.29 0-.55.16-.68.41 -.13.25-.1.55.07.78l2.74 3.66 -2.85 7.1c-.1.23-.07.49.07.69 .13.2.37.32.62.32h4Z"/></svg>