<svg viewBox="0 0 24 24" xmlns="http://www.w3.org/2000/svg"><path fill="#EE4D4D" d="M10.5 2.25c-.42 0-.75.33-.75.75v1.58c-.5.14-.97.34-1.41.58L7.22 4.04c-.15-.15-.34-.22-.54-.22s-.39.07-.54.21L4.01 6.15c-.3.29-.3.76 0 1.06l1.11 1.11c-.24.44-.44.91-.59 1.4H2.94c-.42 0-.75.33-.75.75v3c0 .41.33.75.75.75h1.58c.14.49.34.96.58 1.4l-1.12 1.11c-.3.29-.3.76 0 1.06l2.12 2.12c.14.14.33.21.53.21 .19 0 .38-.08.53-.22l1.11-1.12c.44.23.91.43 1.4.58v1.58c0 .41.33.75.75.75h3c.41 0 .75-.34.75-.75v-1.59c.49-.15.96-.35 1.4-.59l1.11 1.11c.29.29.76.29 1.06 0l2.12-2.13c.29-.3.29-.77 0-1.07l-1.12-1.12c.23-.45.43-.92.58-1.41h1.58c.41 0 .75-.34.75-.75v-3c0-.42-.34-.75-.75-.75h-1.59c-.15-.5-.35-.97-.59-1.41l1.11-1.12c.14-.15.21-.34.21-.54s-.08-.39-.22-.54L17.69 3.9c-.3-.3-.77-.3-1.07 0L15.5 5.01c-.45-.24-.92-.44-1.41-.59V2.83c0-.42-.34-.75-.75-.75h-3Z"/><path fill="#ECEFF1" d="M10.43 7.88c-.23-.17-.53-.18-.78-.06s-.41.38-.41.66v7c0 .27.15.53.4.66 .24.12.54.1.77-.06l5-3.5c.2-.15.31-.37.31-.62s-.12-.48-.32-.62l-5-3.51Z"/></svg>