<svg viewBox="0 0 24 24" xmlns="http://www.w3.org/2000/svg"><g fill-rule="evenodd"><path d="M12 9.84c-.82 0-1.48.65-1.48 1.47 0 .81.65 1.47 1.47 1.47 .81 0 1.47-.66 1.47-1.48s-.66-1.48-1.48-1.48Zm-2.98 1.47c0-1.65 1.33-2.98 2.97-2.98 1.64 0 2.97 1.33 2.97 2.97 0 1.64-1.34 2.97-2.98 2.97 -1.65 0-2.98-1.34-2.98-2.98Z"/><path d="M12 16.02c-1.41 0-2.66.42-3.56 1.09 -.34.24-.81.17-1.05-.16 -.25-.34-.18-.81.15-1.05 1.17-.87 2.74-1.39 4.44-1.39 1.69 0 3.26.51 4.44 1.38 .33.24.4.71.15 1.04 -.25.33-.72.4-1.05.15 -.9-.67-2.15-1.1-3.56-1.1Z"/><path d="M12 5.228c-4.29 0-7.75 3.46-7.75 7.75 0 4.28 3.46 7.75 7.75 7.75 2.95 0 5.53-1.66 6.83-4.11 .19-.37.64-.51 1.01-.31 .36.19.5.64.3 1.01 -1.56 2.91-4.63 4.89-8.17 4.89 -5.11 0-9.25-4.15-9.25-9.25 0-5.11 4.14-9.25 9.25-9.25 .41 0 .75.33.75.75 0 .41-.34.75-.75.75Zm3.34-.11c.19-.37.64-.51 1.01-.31 2.91 1.55 4.89 4.62 4.89 8.16 0 .41-.34.75-.75.75 -.42 0-.75-.34-.75-.75 0-2.96-1.66-5.54-4.11-6.84 -.37-.2-.51-.65-.31-1.02Z"/><path d="M9.52 2.28c.25-.33.72-.38 1.05-.13l2.21 1.75c.32.25.37.72.12 1.05l-1.76 2.21c-.26.32-.73.37-1.06.12 -.33-.26-.38-.73-.13-1.06l1.29-1.63 -1.63-1.3c-.33-.26-.38-.73-.13-1.06Z"/></g></svg>