<svg viewBox="0 0 24 24" xmlns="http://www.w3.org/2000/svg"><g fill-rule="evenodd"><path d="M12 3.75c4.55 0 8.25 3.69 8.25 8.25 0 1.3-.31 2.54-.85 3.63 -.13.24-.17.53-.11.81l.74 3.6 -3.74-.7c-.27-.06-.54-.01-.78.1 -1.07.5-2.27.79-3.53.79 -3.2 0-5.97-1.82-7.34-4.47 -.2-.37-.65-.52-1.02-.33s-.52.64-.33 1.01c1.61 3.13 4.89 5.27 8.66 5.27 1.46 0 2.85-.33 4.1-.91l4.02.75c.87.16 1.63-.62 1.45-1.48l-.8-3.9c.61-1.29.96-2.72.96-4.24 0-5.39-4.37-9.75-9.75-9.75 -5.39 0-9.75 4.36-9.75 9.75 0 .41.33.75.75.75 .41 0 .75-.34.75-.75 0-4.56 3.69-8.25 8.25-8.25Z"/><path d="M7 11.75c-.14 0-.25.11-.25.25 0 .13.11.25.25.25 .13 0 .25-.12.25-.25 0-.14-.12-.25-.25-.25ZM5.25 12c0-.97.78-1.75 1.75-1.75 .96 0 1.75.78 1.75 1.75 0 .96-.79 1.75-1.75 1.75 -.97 0-1.75-.79-1.75-1.75Z"/><path d="M12 11.75c-.14 0-.25.11-.25.25 0 .13.11.25.25.25 .13 0 .25-.12.25-.25 0-.14-.12-.25-.25-.25Zm-1.75.25c0-.97.78-1.75 1.75-1.75 .96 0 1.75.78 1.75 1.75 0 .96-.79 1.75-1.75 1.75 -.97 0-1.75-.79-1.75-1.75Z"/><path d="M17 11.75c-.14 0-.25.11-.25.25 0 .13.11.25.25.25 .13 0 .25-.12.25-.25 0-.14-.12-.25-.25-.25Zm-1.75.25c0-.97.78-1.75 1.75-1.75 .96 0 1.75.78 1.75 1.75 0 .96-.79 1.75-1.75 1.75 -.97 0-1.75-.79-1.75-1.75Z"/></g></svg>