<svg viewBox="0 0 24 24" xmlns="http://www.w3.org/2000/svg"><g fill-rule="evenodd"><path d="M4 2.75c-.7 0-1.25.55-1.25 1.25v16c0 .69.55 1.25 1.25 1.25h16c.69 0 1.25-.56 1.25-1.25V4c0-.7-.56-1.25-1.25-1.25h-9c-.42 0-.75-.34-.75-.75 0-.42.33-.75.75-.75h9c1.51 0 2.75 1.23 2.75 2.75v16c0 1.51-1.24 2.75-2.75 2.75H4c-1.52 0-2.75-1.24-2.75-2.75V4c0-1.52 1.23-2.75 2.75-2.75h3c.41 0 .75.33.75.75 0 .41-.34.75-.75.75H4Z"/><path d="M15.46 5.46c.29-.3.76-.3 1.06 0l2 2c.29.29.29.76 0 1.06l-8 7.99c-.09.08-.19.14-.3.18l-3.01 1c-.27.08-.57.01-.77-.19 -.21-.21-.28-.5-.19-.77l1-3c.03-.12.09-.22.18-.3l8-8.01Zm-6.82 8.93l-.47 1.4 1.4-.47 7.34-7.35 -.94-.94 -7.35 7.34Z"/></g></svg>