<svg viewBox="0 0 24 24" xmlns="http://www.w3.org/2000/svg"><g fill-rule="evenodd"><path d="M4 4.75c-.7 0-1.25.55-1.25 1.25v14c0 .69.55 1.25 1.25 1.25h3c.41 0 .75.33.75.75 0 .41-.34.75-.75.75H4c-1.52 0-2.75-1.24-2.75-2.75V6c0-1.52 1.23-2.75 2.75-2.75h10.5c.41 0 .75.33.75.75 0 .41-.34.75-.75.75H4Zm16 4c.41 0 .75.33.75.75V20c0 1.51-1.24 2.75-2.75 2.75h-7c-.42 0-.75-.34-.75-.75 0-.42.33-.75.75-.75h7c.69 0 1.25-.56 1.25-1.25V9.5c0-.42.33-.75.75-.75Z"/><path d="M19.46 1.46c.29-.3.76-.3 1.06 0l2 2c.29.29.29.76 0 1.06l-8 7.99c-.09.08-.19.14-.3.18l-3 1c-.27.08-.57.01-.77-.19 -.21-.21-.28-.5-.19-.77l1-3c.03-.12.09-.22.18-.3l8-8Zm-6.82 8.93l-.47 1.4 1.4-.47 7.34-7.35 -.94-.94 -7.35 7.34Z"/></g></svg>