<svg viewBox="0 0 24 24" xmlns="http://www.w3.org/2000/svg"><g fill-rule="evenodd"><path d="M5.25 9c0-.97.78-1.75 1.75-1.75h10c.96 0 1.75.78 1.75 1.75v5.8c0 .96-.79 1.75-1.75 1.75H7c-.97 0-1.75-.79-1.75-1.75V9ZM7 8.75c-.14 0-.25.11-.25.25v5.8c0 .13.11.25.25.25h10c.13 0 .25-.12.25-.25V9c0-.14-.12-.25-.25-.25H7Z"/><path d="M5.68 7.87c.23-.35.7-.43 1.04-.2l5.27 3.61 5.27-3.62c.34-.24.8-.15 1.04.19 .23.34.14.8-.2 1.04l-5.7 3.9c-.26.17-.6.17-.85 0L5.84 8.88c-.35-.24-.43-.71-.2-1.05Z"/><path d="M12 2.75c-5.11 0-9.25 4.14-9.25 9.25 0 5.1 4.14 9.25 9.25 9.25 5.1 0 9.25-4.15 9.25-9.25 0-1.45-.34-2.82-.93-4.04 -.19-.38-.03-.83.34-1.01 .37-.19.82-.03 1 .34 .68 1.41 1.07 3.01 1.07 4.69 0 5.93-4.82 10.75-10.75 10.75 -5.94 0-10.75-4.82-10.75-10.75 0-5.94 4.81-10.75 10.75-10.75 2.41 0 4.65.8 6.45 2.15 .33.24.39.71.14 1.05 -.25.33-.72.39-1.06.14 -1.55-1.17-3.47-1.85-5.56-1.85Z"/></g></svg>