<svg viewBox="0 0 24 24" xmlns="http://www.w3.org/2000/svg"><g fill-rule="evenodd"><path d="M1.25 4c0-.97.78-1.75 1.75-1.75h16c.96 0 1.75.78 1.75 1.75v4.5c0 .41-.34.75-.75.75 -.42 0-.75-.34-.75-.75V4c0-.14-.12-.25-.25-.25H3c-.14 0-.25.11-.25.25v9.7c0 .13.11.25.25.25h6.5c.41 0 .75.33.75.75 0 .41-.34.75-.75.75H3c-.97 0-1.75-.79-1.75-1.75V4Z"/><path d="M1.83 3.02c.23-.35.7-.43 1.04-.2l4.54 3.11c.34.23.42.7.19 1.04 -.24.34-.71.42-1.05.19L2 4.04c-.35-.24-.43-.71-.2-1.05Zm18.33 0c.23.34.14.8-.2 1.04l-8.55 5.85c-.26.17-.6.17-.85 0l-1.01-.69c-.35-.24-.43-.71-.2-1.05 .23-.35.7-.43 1.04-.2l.57.39 8.12-5.57c.34-.24.8-.15 1.04.19Z"/><path d="M16.51 12.78c-.9-.75-2.26-.71-3.11.11 -.84.81-.88 2.09-.12 2.949 .01.01.02.02.03.04l3.67 3.56 3.67-3.564c.01-.02.02-.03.03-.05 .75-.86.71-2.14-.12-2.949 -.85-.83-2.21-.87-3.11-.12 -.15.11-.32.17-.49.17 -.18 0-.35-.06-.49-.18Zm5.4 3.96c-.04.05-.08.1-.12.14l-4.28 4.15c-.3.28-.76.28-1.05 0l-4.28-4.15c-.05-.05-.09-.1-.12-.15 -1.2-1.46-1.11-3.59.28-4.93 1.26-1.23 3.18-1.4 4.63-.53 1.45-.88 3.37-.7 4.63.52 1.38 1.34 1.47 3.47.28 4.92Z"/></g></svg>