<svg viewBox="0 0 24 24" xmlns="http://www.w3.org/2000/svg"><path fill-rule="evenodd" d="M13.36 2.31c.27-.12.59-.07.81.13l8.33 7.77c.15.14.23.34.23.54s-.09.4-.24.54l-8.34 7.77c-.22.2-.54.25-.82.13 -.28-.12-.46-.39-.46-.69v-4.56c0-.14-.12-.25-.25-.25h-2.46c-2.07 0-3.97 1.1-5 2.89l-2.58 4.5c-.17.29-.52.44-.85.35 -.33-.09-.56-.39-.56-.73v-7.34c0-3.73 3.02-6.75 6.75-6.75h.5c.41 0 .75.33.75.75 0 .41-.34.75-.75.75h-.5c-2.9 0-5.25 2.35-5.25 5.24v4.5l1.17-2.06c1.29-2.26 3.69-3.66 6.29-3.66h2.45c.96 0 1.75.78 1.75 1.75v2.82l6.48-6.06 -6.49-6.06v1.71c0 .96-.79 1.75-1.75 1.75h-.17c-.42 0-.75-.34-.75-.75 0-.42.33-.75.75-.75h.16c.13 0 .25-.12.25-.25V2.84c0-.3.17-.57.45-.69Z"/></svg>