<svg viewBox="0 0 24 24" xmlns="http://www.w3.org/2000/svg"><g fill-rule="evenodd"><path d="M12 2.75c-5.11 0-9.25 4.14-9.25 9.25 0 5.1 4.14 9.25 9.25 9.25 4.95 0 8.99-3.9 9.23-8.79 .02-.42.37-.74.78-.72 .41.02.73.37.71.78 -.29 5.68-4.98 10.21-10.74 10.21 -5.94 0-10.75-4.82-10.75-10.75 0-5.94 4.81-10.75 10.75-10.75 4.61 0 8.54 2.9 10.07 6.98 .14.38-.06.82-.44.96 -.39.14-.83-.06-.97-.45 -1.32-3.52-4.7-6.02-8.67-6.02Z"/><path d="M9.86 5.2c-.69 1.7-1.12 4.1-1.12 6.79 0 2.69.43 5.09 1.11 6.79 .34.85.72 1.49 1.11 1.9 .39.41.73.55 1.01.55 .27 0 .62-.14 1.01-.56 .39-.42.77-1.06 1.12-1.91 .68-1.71 1.11-4.11 1.11-6.8 0-2.7-.44-5.1-1.12-6.8 -.35-.86-.73-1.5-1.12-1.91 -.4-.42-.74-.56-1.02-.56s-.63.13-1.02.55c-.4.41-.78 1.05-1.12 1.9Zm.03-2.94c.56-.6 1.27-1.03 2.1-1.03 .82 0 1.53.42 2.1 1.02 .56.59 1.04 1.42 1.42 2.37 .76 1.91 1.22 4.51 1.22 7.34s-.46 5.43-1.23 7.34c-.39.95-.86 1.782-1.43 2.37 -.57.59-1.28 1.02-2.11 1.02 -.83 0-1.54-.43-2.11-1.03 -.57-.6-1.05-1.43-1.43-2.38 -.77-1.92-1.23-4.52-1.23-7.35 0-2.84.45-5.44 1.22-7.35 .38-.96.85-1.782 1.42-2.38Z"/><path d="M2.25 8c0-.42.33-.75.75-.75h18c.41 0 .75.33.75.75 0 .41-.34.75-.75.75H3c-.42 0-.75-.34-.75-.75Z"/><path d="M2.25 16c0-.42.33-.75.75-.75h18c.41 0 .75.33.75.75 0 .41-.34.75-.75.75H3c-.42 0-.75-.34-.75-.75Z"/></g></svg>