<svg viewBox="0 0 24 24" xmlns="http://www.w3.org/2000/svg"><g fill-rule="evenodd"><path d="M1.25 4c0-.97.78-1.75 1.75-1.75h16c.96 0 1.75.78 1.75 1.75v5c0 .41-.34.75-.75.75 -.42 0-.75-.34-.75-.75V4c0-.14-.12-.25-.25-.25H3c-.14 0-.25.11-.25.25v2.5c0 .41-.34.75-.75.75 -.42 0-.75-.34-.75-.75V4ZM2 9.85c.41 0 .75.33.75.75v3.1c0 .13.11.25.25.25h6.5c.41 0 .75.33.75.75 0 .41-.34.75-.75.75H3c-.97 0-1.75-.79-1.75-1.75v-3.1c0-.42.33-.75.75-.75Z"/><path d="M1.83 3.02c.23-.35.7-.43 1.04-.2l8.12 5.56 8.12-5.57c.34-.24.8-.15 1.04.19 .23.34.14.8-.2 1.04L11.4 9.89c-.26.17-.6.17-.85 0L1.99 4.04c-.35-.24-.43-.71-.2-1.05Z"/><path d="M17 11.75c-2.35 0-4.25 1.9-4.25 4.25 0 2.34 1.9 4.25 4.25 4.25 2.34 0 4.25-1.91 4.25-4.25 0-2.35-1.91-4.25-4.25-4.25ZM11.25 16c0-3.18 2.57-5.75 5.75-5.75 3.17 0 5.75 2.57 5.75 5.75 0 3.17-2.58 5.75-5.75 5.75 -3.18 0-5.75-2.58-5.75-5.75Z"/><path d="M16.28 12.74c-.32.79-.54 1.94-.54 3.25 0 1.3.21 2.46.53 3.25 .16.4.33.67.48.83 .14.15.22.15.23.15 0 0 .08 0 .23-.16 .15-.17.32-.44.48-.84 .31-.8.53-1.95.53-3.26 0-1.31-.22-2.47-.54-3.26 -.17-.41-.34-.68-.49-.84 -.15-.16-.23-.16-.24-.16 -.01 0-.09-.01-.24.15 -.16.16-.33.43-.49.83Zm-.61-1.87c.32-.35.77-.63 1.32-.63 .54 0 .99.28 1.32.62 .32.34.58.8.78 1.3 .4 1.01.63 2.36.63 3.81 0 1.45-.24 2.8-.64 3.81 -.21.5-.47.96-.79 1.3 -.33.34-.78.62-1.33.62s-1-.29-1.33-.63c-.33-.35-.59-.81-.79-1.31 -.41-1.02-.64-2.37-.64-3.82 0-1.46.23-2.81.63-3.82 .2-.51.46-.97.78-1.31Z"/><path d="M11.25 16c0-.42.33-.75.75-.75h10c.41 0 .75.33.75.75 0 .41-.34.75-.75.75H12c-.42 0-.75-.34-.75-.75Z"/></g></svg>