<svg viewBox="0 0 24 24" xmlns="http://www.w3.org/2000/svg"><g fill-rule="evenodd"><path d="M4.84 2.75c-.13 0-.23.08-.25.2l-1.84 11c-.02.06-.02.13-.02.2v5.83c0 .69.55 1.25 1.25 1.25h16c.69 0 1.25-.56 1.25-1.25v-5.84c0-.07-.01-.14-.02-.21L19.37 2.92c-.03-.13-.13-.21-.25-.21h-3.16c-.42 0-.75-.34-.75-.75 0-.42.33-.75.75-.75h3.15c.85 0 1.58.61 1.72 1.46l1.83 11c.02.14.03.3.03.45v5.83c0 1.51-1.24 2.75-2.75 2.75h-16c-1.52 0-2.75-1.24-2.75-2.75v-5.84c0-.16.01-.31.03-.46L3.05 2.64c.14-.85.87-1.47 1.72-1.47h3.15c.41 0 .75.33.75.75 0 .41-.34.75-.75.75H4.76Z"/><path d="M1.75 14c0-.42.33-.75.75-.75H9c.41 0 .75.33.75.75 0 1.24 1 2.25 2.25 2.25 1.24 0 2.25-1.01 2.25-2.25 0-.42.33-.75.75-.75h1c.41 0 .75.33.75.75 0 .41-.34.75-.75.75h-.33c-.35 1.71-1.87 3-3.68 3 -1.82 0-3.33-1.29-3.68-3H2.48c-.42 0-.75-.34-.75-.75Zm17.5 0c0-.42.33-.75.75-.75h1.5c.41 0 .75.33.75.75 0 .41-.34.75-.75.75H20c-.42 0-.75-.34-.75-.75Z"/><path d="M11.51 9.57c.27.23.68.23.96 0l3-2.5c.31-.27.36-.74.09-1.06 -.27-.32-.74-.37-1.06-.1l-1.77 1.47v-5.9c0-.42-.34-.75-.75-.75 -.42 0-.75.33-.75.75v5.89L9.46 5.89c-.32-.27-.8-.23-1.06.09 -.27.31-.23.79.09 1.05l3 2.5Z"/></g></svg>