<svg viewBox="0 0 24 24" xmlns="http://www.w3.org/2000/svg"><g fill-rule="evenodd"><path d="M4.75 9c0-.42.33-.75.75-.75h13c.41 0 .75.33.75.75 0 .41-.34.75-.75.75h-13c-.42 0-.75-.34-.75-.75Z"/><path d="M9.25 6c0-.42.33-.75.75-.75h4c.41 0 .75.33.75.75 0 .41-.34.75-.75.75h-4c-.42 0-.75-.34-.75-.75Z"/><path d="M4.75 6c0-2.63 2.12-4.75 4.75-4.75h5c2.62 0 4.75 2.12 4.75 4.75v10c0 .41-.34.75-.75.75 -.42 0-.75-.34-.75-.75V6c0-1.8-1.46-3.25-3.25-3.25h-5C7.7 2.75 6.25 4.2 6.25 6v15.25h11.5V20c0-.42.33-.75.75-.75 .41 0 .75.33.75.75v2c0 .41-.34.75-.75.75h-13c-.42 0-.75-.34-.75-.75V6Z"/></g></svg>