<svg viewBox="0 0 24 24" xmlns="http://www.w3.org/2000/svg"><g fill-rule="evenodd"><path d="M3 5.75c-.14 0-.25.11-.25.25v9.7c0 .13.11.25.25.25h8.5c.41 0 .75.33.75.75 0 .41-.34.75-.75.75H3c-.97 0-1.75-.79-1.75-1.75V6c0-.97.78-1.75 1.75-1.75h5c.41 0 .75.33.75.75 0 .41-.34.75-.75.75H3ZM11.25 5c0-.42.33-.75.75-.75h7c.96 0 1.75.78 1.75 1.75v5c0 .41-.34.75-.75.75 -.42 0-.75-.34-.75-.75V6c0-.14-.12-.25-.25-.25h-7c-.42 0-.75-.34-.75-.75Z"/><path d="M1.83 5.02c.23-.35.7-.43 1.04-.2l8.12 5.56 8.12-5.57c.34-.24.8-.15 1.04.19 .23.34.14.8-.2 1.04l-8.55 5.85c-.26.17-.6.17-.85 0L1.99 6.03c-.35-.24-.43-.71-.2-1.05Z"/><path d="M22.58 16.96c.21-.28.21-.67 0-.94l-2-2.5c-.26-.33-.74-.38-1.06-.12 -.33.25-.38.73-.12 1.05l1.62 2.03 -1.63 2.03c-.26.32-.21.79.11 1.05 .32.25.79.2 1.05-.12l2-2.5Z"/><path d="M14.41 16.96c-.22-.28-.22-.67 0-.94l2-2.5c.25-.33.73-.38 1.05-.12 .32.25.37.73.11 1.05l-1.63 2.03 1.62 2.03c.25.32.2.79-.12 1.05 -.33.25-.8.2-1.06-.12l-2-2.5Z"/></g></svg>