<svg viewBox="0 0 24 24" xmlns="http://www.w3.org/2000/svg"><g fill-rule="evenodd"><path d="M12 17.25c.41 0 .75.33.75.75v4c0 .41-.34.75-.75.75 -.42 0-.75-.34-.75-.75v-4c0-.42.33-.75.75-.75Z"/><path d="M20 3.25c.41 0 .75.33.75.75v4.5c0 .41-.34.75-.75.75 -.42 0-.75-.34-.75-.75V4c0-.42.33-.75.75-.75Z"/><path d="M14.25 2c0-.42.33-.75.75-.75h5c.41 0 .75.33.75.75v2.5c0 .41-.34.75-.75.75h-5c-.42 0-.75-.34-.75-.75V2Zm1.5.75v1h3.5v-1h-3.5Z"/><path d="M14.25 11.5c0-2.35 1.9-4.25 4.25-4.25 2.34 0 4.25 1.9 4.25 4.25V18c0 .41-.34.75-.75.75h-7c-.42 0-.75-.34-.75-.75v-6.5Zm4.25-2.75c-1.52 0-2.75 1.23-2.75 2.75v5.75h5.5V11.5c0-1.52-1.24-2.75-2.75-2.75Z"/><path d="M6 8.75c-1.8 0-3.25 1.45-3.25 3.25v5.25H5c.41 0 .75.33.75.75 0 .41-.34.75-.75.75H2c-.42 0-.75-.34-.75-.75v-6c0-2.63 2.12-4.75 4.75-4.75h12.5c.41 0 .75.33.75.75 0 .41-.34.75-.75.75H6Zm9 4c.41 0 .75.33.75.75V18c0 .41-.34.75-.75.75H9c-.42 0-.75-.34-.75-.75 0-.42.33-.75.75-.75h5.25V13.5c0-.42.33-.75.75-.75Z"/></g></svg>