<svg viewBox="0 0 24 24" xmlns="http://www.w3.org/2000/svg"><g fill-rule="evenodd"><path d="M2.25 4c0-.42.33-.75.75-.75h5c.41 0 .75.33.75.75 0 .41-.34.75-.75.75H3.75v10.5h16.5V4.75H12c-.42 0-.75-.34-.75-.75 0-.42.33-.75.75-.75h9c.41 0 .75.33.75.75v12c0 .41-.34.75-.75.75H3c-.42 0-.75-.34-.75-.75V4Z"/><path d="M1.25 16c0-.42.33-.75.75-.75h20c.41 0 .75.33.75.75v2c0 1.51-1.24 2.75-2.75 2.75H4c-1.52 0-2.75-1.24-2.75-2.75v-2Zm1.5.75V18c0 .69.55 1.25 1.25 1.25h16c.69 0 1.25-.56 1.25-1.25v-1.25H2.75Z"/><path d="M6.25 6.5c0-.42.33-.75.75-.75h10.76c.41 0 .75.33.75.75v7c0 .41-.34.75-.75.75H6.99c-.42 0-.75-.34-.75-.75v-7Zm1.5.75v5.5h9.26v-5.5H7.74Z"/><path d="M6.65 6.34c.23-.35.7-.43 1.04-.2l4.69 3.21 4.69-3.22c.34-.24.8-.15 1.04.19 .23.34.14.8-.2 1.04l-5.12 3.49c-.26.17-.6.17-.85 0l-5.12-3.5c-.35-.24-.43-.71-.2-1.05Z"/><path d="M13.2 8.93c.29-.3.76-.3 1.06 0l4.03 4.03c.29.29.29.76 0 1.06 -.3.29-.77.29-1.07 0l-4.04-4.04c-.3-.3-.3-.77 0-1.07Z"/><path d="M11.56 8.93c-.3-.3-.77-.3-1.07 0l-4.04 4.03c-.3.29-.3.76 0 1.06 .29.29.76.29 1.06 0l4.03-4.04c.29-.3.29-.77 0-1.07Z"/></g></svg>