<svg viewBox="0 0 24 24" xmlns="http://www.w3.org/2000/svg"><g fill-rule="evenodd"><path d="M3 4.75c-.14 0-.25.11-.25.25v9.7c0 .13.11.25.25.25h6.5c.41 0 .75.33.75.75 0 .41-.34.75-.75.75H3c-.97 0-1.75-.79-1.75-1.75V5c0-.97.78-1.75 1.75-1.75h2c.41 0 .75.33.75.75 0 .41-.34.75-.75.75H3ZM8.25 4c0-.42.33-.75.75-.75h10c.96 0 1.75.78 1.75 1.75v4.5c0 .41-.34.75-.75.75 -.42 0-.75-.34-.75-.75V5c0-.14-.12-.25-.25-.25H9c-.42 0-.75-.34-.75-.75Z"/><path d="M1.83 4.02c.23-.35.7-.43 1.04-.2l8.12 5.56 8.12-5.57c.34-.24.8-.15 1.04.19 .23.34.14.8-.2 1.04l-8.55 5.85c-.26.17-.6.17-.85 0L1.99 5.03c-.35-.24-.43-.71-.2-1.05Z"/><path d="M16.46 10.81c-.28-.12-.6-.07-.82.13l-4.17 3.88c-.16.14-.24.34-.24.54s.08.4.23.54l4.16 3.88c.21.2.53.25.81.13 .27-.12.45-.39.45-.69v-2.03l0-.01 0-.01c0-.01 0-.01 0-.01 0-.01 0-.01 0-.01l0-.01 0-.01c1.49 0 2.87.8 3.61 2.1l.8 1.41c.16.29.51.44.84.35 .32-.09.55-.39.55-.73v-1.62c0-3.21-2.6-5.81-5.81-5.81 -.02 0-.03-.02-.03-.03v-1.45c0-.3-.18-.57-.46-.69Zm-1.03 2.39c.12.71.75 1.26 1.5 1.26 1.95 0 3.6 1.3 4.13 3.08 -1.06-1.14-2.56-1.81-4.16-1.81 -.84 0-1.51.67-1.51 1.5v.29l-2.32-2.17 2.33-2.19Z"/></g></svg>