<svg viewBox="0 0 24 24" xmlns="http://www.w3.org/2000/svg"><g fill-rule="evenodd"><path d="M1.25 4c0-.97.78-1.75 1.75-1.75h16c.96 0 1.75.78 1.75 1.75v3.5c0 .41-.34.75-.75.75 -.42 0-.75-.34-.75-.75V4c0-.14-.12-.25-.25-.25H3c-.14 0-.25.11-.25.25v9.7c0 .13.11.25.25.25h6c.41 0 .75.33.75.75 0 .41-.34.75-.75.75H3c-.97 0-1.75-.79-1.75-1.75V4Z"/><path d="M1.83 3.02c.23-.35.7-.43 1.04-.2l8.12 5.56 2.93-2.02c.34-.24.8-.15 1.04.19 .23.34.14.8-.2 1.04l-3.37 2.29c-.26.17-.6.17-.85 0L1.98 4.03c-.35-.24-.43-.71-.2-1.05Zm18.33 0c.23.34.14.8-.2 1.04L17.4 5.8c-.35.23-.81.14-1.05-.2 -.24-.35-.15-.81.19-1.05l2.55-1.75c.34-.24.8-.15 1.04.19Z"/><path d="M13.66 14.58c-.51 0-.92.41-.92.91s.41.91.91.91 .91-.42.91-.92c0-.51-.42-.92-.92-.92Zm-2.42.91c0-1.34 1.08-2.42 2.41-2.42s2.41 1.08 2.41 2.41 -1.09 2.41-2.42 2.41c-1.34 0-2.42-1.09-2.42-2.42Z"/><path d="M20.33 11.25c-.51 0-.92.41-.92.91s.41.91.91.91 .91-.42.91-.92c0-.51-.42-.92-.92-.92Zm-2.42.91c0-1.34 1.08-2.42 2.41-2.42s2.41 1.08 2.41 2.41 -1.09 2.41-2.42 2.41c-1.34 0-2.42-1.09-2.42-2.42Z"/><path d="M20.33 17.91c-.51 0-.92.41-.92.91s.41.91.91.91 .91-.42.91-.92c0-.51-.42-.92-.92-.92Zm-2.42.91c0-1.34 1.08-2.42 2.41-2.42s2.41 1.08 2.41 2.41 -1.09 2.41-2.42 2.41c-1.34 0-2.42-1.09-2.42-2.42Z"/><path d="M19.32 12.36c.19.36.05.81-.31 1.016l-3.62 1.94c-.37.19-.82.05-1.02-.31 -.2-.37-.06-.82.3-1.02l3.61-1.95c.36-.2.81-.06 1.01.3Z"/><path d="M14.39 15.97c.19-.37.65-.51 1.01-.31l3.61 1.94c.36.19.5.65.3 1.01s-.66.5-1.02.3l-3.62-1.95c-.37-.2-.51-.66-.31-1.02Z"/></g></svg>