<svg viewBox="0 0 24 24" xmlns="http://www.w3.org/2000/svg"><g fill-rule="evenodd"><path d="M2.25 4c0-1.52 1.23-2.75 2.75-2.75h8c1.51 0 2.75 1.23 2.75 2.75v3c0 .41-.34.75-.75.75 -.42 0-.75-.34-.75-.75V4c0-.7-.56-1.25-1.25-1.25H5c-.7 0-1.25.55-1.25 1.25v5c0 .41-.34.75-.75.75 -.42 0-.75-.34-.75-.75V4ZM3 12.25c.41 0 .75.33.75.75v7c0 .69.55 1.25 1.25 1.25h8c.69 0 1.25-.56 1.25-1.25v-5c0-.42.33-.75.75-.75 .41 0 .75.33.75.75v5c0 1.51-1.24 2.75-2.75 2.75H5c-1.52 0-2.75-1.24-2.75-2.75v-7c0-.42.33-.75.75-.75Z"/><path d="M6.75 19.5c0-.42.33-.75.75-.75h3c.41 0 .75.33.75.75 0 .41-.34.75-.75.75h-3c-.42 0-.75-.34-.75-.75Z"/><path d="M8.25 8c0-.97.78-1.75 1.75-1.75h10c.96 0 1.75.78 1.75 1.75v5.8c0 .96-.79 1.75-1.75 1.75H10c-.97 0-1.75-.79-1.75-1.75V8ZM10 7.75c-.14 0-.25.11-.25.25v5.8c0 .13.11.25.25.25h10c.13 0 .25-.12.25-.25V8c0-.14-.12-.25-.25-.25H10Z"/><path d="M8.68 6.87c.23-.35.7-.43 1.04-.2l5.27 3.61 5.27-3.62c.34-.24.8-.15 1.04.19 .23.34.14.8-.2 1.04l-5.7 3.9c-.26.17-.6.17-.85 0L8.84 7.88c-.35-.24-.43-.71-.2-1.05Z"/></g></svg>