<svg viewBox="0 0 24 24" xmlns="http://www.w3.org/2000/svg"><g fill-rule="evenodd"><path d="M12 4.75c.41 0 .75.33.75.75V13c0 .41-.34.75-.75.75 -.42 0-.75-.34-.75-.75V5.5c0-.42.33-.75.75-.75Z"/><path d="M12 15.75c.41 0 .75.33.75.75v2c0 .41-.34.75-.75.75 -.42 0-.75-.34-.75-.75v-2c0-.42.33-.75.75-.75Z"/><path d="M16.06 1.25c.19-.01.39.07.53.21l5.88 5.8c.14.13.22.32.22.52l.05 8.26c0 .19-.08.39-.22.53l-.93.93c-.3.29-.77.29-1.07 0 -.3-.3-.3-.77-.01-1.07l.7-.72 -.06-7.65 -5.44-5.37 -7.65.05 -5.37 5.43 .05 7.64 5.43 5.36 7.64-.06 1.702-1.73c.29-.3.76-.3 1.06-.01 .29.29.29.76 0 1.06l-1.93 1.94c-.14.14-.33.22-.53.22l-8.27.05c-.2 0-.4-.08-.54-.22l-5.89-5.81c-.15-.14-.23-.33-.23-.53l-.06-8.27c-.01-.2.07-.4.21-.54l5.8-5.89c.13-.15.32-.23.52-.23l8.26-.06Z"/></g></svg>