<svg viewBox="0 0 24 24" xmlns="http://www.w3.org/2000/svg"><g fill-rule="evenodd"><path d="M3 7.25c-.14 0-.25.11-.25.25v9c0 .13.11.25.25.25h11c.13 0 .25-.12.25-.25v-9c0-.14-.12-.25-.25-.25h-1c-.42 0-.75-.34-.75-.75 0-.42.33-.75.75-.75h1c.96 0 1.75.78 1.75 1.75v9c0 .96-.79 1.75-1.75 1.75H3c-.97 0-1.75-.79-1.75-1.75v-9c0-.97.78-1.75 1.75-1.75h6c.41 0 .75.33.75.75 0 .41-.34.75-.75.75H3Z"/><path d="M21.25 8.82c0-.17-.16-.29-.32-.25l-5.19 1.48v3.86l5.18 1.48c.15.04.31-.08.31-.25V8.79Zm-.74-1.69c1.11-.32 2.23.52 2.23 1.68v6.34c0 1.16-1.12 2-2.24 1.68l-5.73-1.64c-.33-.1-.55-.39-.55-.73v-5c0-.34.22-.63.54-.73l5.72-1.64Z"/></g></svg>