<svg viewBox="0 0 24 24" xmlns="http://www.w3.org/2000/svg"><g fill-rule="evenodd"><path d="M4 6.75c-.7 0-1.25.55-1.25 1.25v9c0 .69.55 1.25 1.25 1.25h16c.69 0 1.25-.56 1.25-1.25V8c0-.7-.56-1.25-1.25-1.25h-5c-.42 0-.75-.34-.75-.75 0-.42.33-.75.75-.75h5c1.51 0 2.75 1.23 2.75 2.75v9c0 1.51-1.24 2.75-2.75 2.75H4c-1.52 0-2.75-1.24-2.75-2.75V8c0-1.52 1.23-2.75 2.75-2.75h7c.41 0 .75.33.75.75 0 .41-.34.75-.75.75H4Z"/><path d="M9.89 8.83c.24-.14.53-.12.76.03l4.5 3c.2.13.33.37.33.62s-.13.48-.34.62l-4.5 3c-.24.15-.53.16-.77.03 -.25-.14-.4-.39-.4-.67v-6c0-.28.15-.54.39-.67Zm1.1 2.06v3.19l2.39-1.6 -2.4-1.6Z"/></g></svg>