<svg viewBox="0 0 24 24" xmlns="http://www.w3.org/2000/svg"><g fill-rule="evenodd"><path d="M4 6.25c-.7 0-1.25.55-1.25 1.25v9c0 .69.55 1.25 1.25 1.25h16c.69 0 1.25-.56 1.25-1.25v-9c0-.7-.56-1.25-1.25-1.25h-9c-.42 0-.75-.34-.75-.75 0-.42.33-.75.75-.75h9c1.51 0 2.75 1.23 2.75 2.75v9c0 1.51-1.24 2.75-2.75 2.75H4c-1.52 0-2.75-1.24-2.75-2.75v-9c0-1.52 1.23-2.75 2.75-2.75h3c.41 0 .75.33.75.75 0 .41-.34.75-.75.75H4Z"/><path d="M7.5 9.75c-.97 0-1.75.78-1.75 1.75 0 .96.78 1.75 1.75 1.75 .96 0 1.75-.79 1.75-1.75 0-.97-.79-1.75-1.75-1.75ZM4.25 11.5c0-1.8 1.45-3.25 3.25-3.25 1.79 0 3.25 1.45 3.25 3.25 0 1.79-1.46 3.25-3.25 3.25 -1.8 0-3.25-1.46-3.25-3.25Z"/><path d="M16.5 9.75c-.97 0-1.75.78-1.75 1.75 0 .96.78 1.75 1.75 1.75 .96 0 1.75-.79 1.75-1.75 0-.97-.79-1.75-1.75-1.75Zm-3.25 1.75c0-1.8 1.45-3.25 3.25-3.25 1.79 0 3.25 1.45 3.25 3.25 0 1.79-1.46 3.25-3.25 3.25 -1.8 0-3.25-1.46-3.25-3.25Z"/><path d="M6.75 14c0-.42.33-.75.75-.75h9c.41 0 .75.33.75.75 0 .41-.34.75-.75.75h-9c-.42 0-.75-.34-.75-.75Z"/></g></svg>