<svg viewBox="0 0 24 24" xmlns="http://www.w3.org/2000/svg"><g fill-rule="evenodd"><path d="M5.75 12c0-.97.78-1.75 1.75-1.75h9c.96 0 1.75.78 1.75 1.75v5c0 .96-.79 1.75-1.75 1.75h-9c-.97 0-1.75-.79-1.75-1.75v-5Zm1.75-.25c-.14 0-.25.11-.25.25v5c0 .13.11.25.25.25h9c.13 0 .25-.12.25-.25v-5c0-.14-.12-.25-.25-.25h-9Z"/><path d="M1.25 4c0-1.52 1.23-2.75 2.75-2.75h16c1.51 0 2.75 1.23 2.75 2.75v16c0 1.51-1.24 2.75-2.75 2.75H4c-1.52 0-2.75-1.24-2.75-2.75v-5c0-.42.33-.75.75-.75 .41 0 .75.33.75.75v5c0 .69.55 1.25 1.25 1.25h16c.69 0 1.25-.56 1.25-1.25V4c0-.7-.56-1.25-1.25-1.25H4c-.7 0-1.25.55-1.25 1.25v7c0 .41-.34.75-.75.75 -.42 0-.75-.34-.75-.75V4Z"/><path d="M6.35 11.11c.21-.36.67-.48 1.029-.26l4.61 2.76 4.61-2.77c.35-.22.81-.1 1.029.25 .21.35.09.81-.26 1.029l-5 3c-.24.14-.54.14-.78 0l-5-3c-.36-.22-.48-.68-.26-1.029Z"/><path d="M1.25 6c0-.42.33-.75.75-.75h20c.41 0 .75.33.75.75 0 .41-.34.75-.75.75H2c-.42 0-.75-.34-.75-.75Z"/></g></svg>