<svg viewBox="0 0 24 24" xmlns="http://www.w3.org/2000/svg"><g fill="#3747D6" fill-rule="evenodd"><path d="M3 4h2.5c.45 0 .85.31.97.75l.49 1.99 1.8 6.75h8.46l1.8-6.76 1.93.51 -2 7.5c-.12.43-.52.74-.97.74h-10c-.46 0-.85-.31-.97-.75l-2-7.51L5 7.2l-.32-1.25H2.96v-2Z"/><path d="M8.5 18c-.28 0-.5.22-.5.5 0 .27.22.5.5.5 .27 0 .5-.23.5-.5 0-.28-.23-.5-.5-.5Zm-2.5.5C6 17.11 7.11 16 8.5 16c1.38 0 2.5 1.11 2.5 2.5 0 1.38-1.12 2.5-2.5 2.5C7.11 21 6 19.88 6 18.5Z"/><path d="M17.5 18c-.28 0-.5.22-.5.5 0 .27.22.5.5.5 .27 0 .5-.23.5-.5 0-.28-.23-.5-.5-.5Zm-2.5.5c0-1.39 1.11-2.5 2.5-2.5 1.38 0 2.5 1.11 2.5 2.5 0 1.38-1.12 2.5-2.5 2.5 -1.39 0-2.5-1.12-2.5-2.5Z"/><g fill="#9545ED"><path d="M12 10V2h2v8h-2Z"/><path d="M13 8.58l-2.3-2.3 -1.42 1.41 3 2.99c.39.39 1.02.39 1.41 0l3-3 -1.42-1.42 -2.3 2.29Z"/></g></g></svg>