<svg viewBox="0 0 24 24" xmlns="http://www.w3.org/2000/svg"><g fill="#9545ED" fill-rule="evenodd"><path d="M2.04 10.12c-.41-1.87 1.02-3.63 2.93-3.63h1.52v2H4.96c-.64 0-1.12.58-.98 1.2l.64 2.99c.09.46.5.79.97.79h1.38v2H5.58c-1.42 0-2.64-.99-2.94-2.38l-.65-3Z"/><g fill="#3747D6"><path d="M5.78 6.33C5.58 3.44 7.87.99 10.76.99h5.44c2.89 0 5.18 2.44 4.98 5.33l-.72 10.73c-.04.52-.48.93-1 .93h-12c-.53 0-.97-.41-1-.94L5.74 6.3Zm4.98-3.34c-1.74 0-3.11 1.46-3 3.19l.65 9.8h10.12l.65-9.81c.11-1.74-1.26-3.2-3-3.2h-5.45Z"/><path d="M5.5 17c0-.56.44-1 1-1h14c.55 0 1 .44 1 1v5c0 .55-.45 1-1 1h-14c-.56 0-1-.45-1-1v-5Zm2 1v3h12v-3h-12Z"/></g></g></svg>