<svg viewBox="0 0 24 24" xmlns="http://www.w3.org/2000/svg"><g fill="#3747D6" fill-rule="evenodd"><path d="M3 5v2.9c0 .55.44 1 1 1 .55 0 1-.45 1-1V5h2v2.9c0 1.3-.84 2.41-2 2.82v8.27H3v-8.28c-1.17-.42-2-1.53-2-2.83v-2.9h2Z"/><path d="M19 19v-9h2v9h-2Z"/><path d="M20 6c-.36 0-1 .45-1 1.5 0 1.04.64 1.5 1 1.5 .35 0 1-.46 1-1.5 0-1.05-.65-1.5-1-1.5Zm-3 1.5C17 5.78 18.14 4 20 4c1.85 0 3 1.78 3 3.5 0 1.71-1.15 3.5-3 3.5 -1.86 0-3-1.79-3-3.5Z"/><path fill="#9545ED" d="M12 8c-2.21 0-4 1.79-4 4 0 2.2 1.79 4 4 4 2.2 0 4-1.8 4-4 0-2.21-1.8-4-4-4Zm-6 4c0-3.32 2.68-6 6-6 3.31 0 6 2.68 6 6 0 3.31-2.69 6-6 6 -3.32 0-6-2.69-6-6Z"/><path d="M12 11c-.56 0-1 .44-1 1 0 .55.44 1 1 1 .55 0 1-.45 1-1 0-.56-.45-1-1-1Zm-3 1c0-1.66 1.34-3 3-3 1.65 0 3 1.34 3 3 0 1.65-1.35 3-3 3 -1.66 0-3-1.35-3-3Z"/></g></svg>