<svg viewBox="0 0 24 24" xmlns="http://www.w3.org/2000/svg"><g fill="#9545ED" fill-rule="evenodd"><path d="M8.5 10c-.56 0-1 .44-1 1h-2c0-1.66 1.34-3 3-3 1.65 0 3 1.34 3 3h-2c0-.56-.45-1-1-1Z"/><path d="M9.17 15h5.65c-.42 1.16-1.53 2-2.83 2 -1.31 0-2.42-.84-2.83-2Zm-2.18-1c0 2.76 2.23 5 5 5 2.76 0 5-2.24 5-5 0-.56-.45-1-1-1h-8c-.56 0-1 .44-1 1Z"/><path d="M15.5 10c-.56 0-1 .44-1 1h-2c0-1.66 1.34-3 3-3 1.65 0 3 1.34 3 3h-2c0-.56-.45-1-1-1Z"/><g fill="#3747D6"><path d="M3 5c0-.56.44-1 1-1h16c.55 0 1 .44 1 1v17c0 .55-.45 1-1 1H4c-.56 0-1-.45-1-1V5Zm2 1v15h14V6H5Z"/><path d="M3 4c0-1.66 1.34-3 3-3h14v2H6c-.56 0-1 .44-1 1v1H3V4Z"/></g></g></svg>