<svg viewBox="0 0 24 24" xmlns="http://www.w3.org/2000/svg"><g fill="#3747D6" fill-rule="evenodd"><path d="M3 4c0-1.66 1.34-3 3-3h12c1.65 0 3 1.34 3 3v18c0 .33-.18.65-.46.83 -.29.18-.64.21-.95.07l-3.6-1.58 -3.6 1.57c-.26.11-.55.11-.81 0l-3.6-1.58 -3.6 1.57c-.31.13-.67.1-.95-.08 -.29-.19-.46-.5-.46-.84v-18Zm3-1c-.56 0-1 .44-1 1v16.471l2.59-1.14c.25-.12.54-.12.8 0l3.59 1.57 3.59-1.58c.25-.12.54-.12.8 0l2.59 1.13V3.98c0-.56-.45-1-1-1h-12Z"/><g fill="#9545ED"><path d="M13 12H6.5v-2H13v2Z"/><path d="M13 16H6.5v-2H13v2Z"/><path d="M17.5 12h-2v-2h2v2Z"/><path d="M17.5 16h-2v-2h2v2Z"/><path d="M13 8H6.5V6H13v2Z"/><path d="M17.5 8h-2V6h2v2Z"/></g></g></svg>