<svg viewBox="0 0 24 24" xmlns="http://www.w3.org/2000/svg"><g fill="#9545ED" fill-rule="evenodd"><path d="M8.5 10.5c0-.56.44-1 1-1H22c.55 0 1 .44 1 1V13c0 .45-.32.85-.76.97l-1.25.31v1.21c0 .55-.45 1-1 1H9.49c-.56 0-1-.45-1-1v-5Zm2 1v3H19v-1c0-.46.31-.86.75-.98l1.24-.32v-.72h-10.5Z"/><path d="M12 15.5v-5h2v5h-2Z"/><path d="M16 15.5v-5h2v5h-2Z"/><g fill="#3747D6"><path d="M2.5 8c0-.56.44-1 1-1h6c.55 0 1 .44 1 1v10c0 .55-.45 1-1 1h-6c-.56 0-1-.45-1-1V8Zm2 1v8h4V9h-4Z"/><path d="M4 5.5c0-.56.44-1 1-1h3c.55 0 1 .44 1 1V8c0 .55-.45 1-1 1H5c-.56 0-1-.45-1-1V5.5Zm2 1V7h1v-.5H6Z"/><path d="M11 9H2V7h9v2Z"/><path d="M11 19H2v-2h9v2Z"/></g></g></svg>