<svg viewBox="0 0 24 24" xmlns="http://www.w3.org/2000/svg"><g fill="#3747D6" fill-rule="evenodd"><path d="M1 2.5c0-.56.44-1 1-1h8.5c.55 0 1 .44 1 1v8c0 .55-.45 1-1 1H2c-.56 0-1-.45-1-1v-8Zm2 1v6h6.5v-6H3Z"/><path d="M1 13.5c0-.56.44-1 1-1h8.5c.55 0 1 .44 1 1v8c0 .55-.45 1-1 1H2c-.56 0-1-.45-1-1v-8Zm2 1v6h6.5v-6H3Z"/><path d="M12.5 2.5c0-.56.44-1 1-1H22c.55 0 1 .44 1 1v8c0 .55-.45 1-1 1h-8.5c-.56 0-1-.45-1-1v-8Zm2 1v6H21v-6h-6.5Z"/><path fill="#9545ED" d="M12.5 13.5c0-.56.44-1 1-1H22c.55 0 1 .44 1 1v8c0 .55-.45 1-1 1h-8.5c-.56 0-1-.45-1-1v-8Zm2 1v6H21v-6h-6.5Z"/></g></svg>