<svg viewBox="0 0 24 24" xmlns="http://www.w3.org/2000/svg"><g fill="#9545ED" fill-rule="evenodd"><path d="M18 16.5H6v-2h12v2Z"/><path d="M6 10.5H4v-2h2v2Z"/><path d="M6 13.5H4v-2h2v2Z"/><path d="M10.5 10.5h-2v-2h2v2Z"/><path d="M10.5 13.5h-2v-2h2v2Z"/><path d="M15.5 10.5h-2v-2h2v2Z"/><path d="M15.5 13.5h-2v-2h2v2Z"/><path d="M20 10.5h-2v-2h2v2Z"/><path d="M20 13.5h-2v-2h2v2Z"/><path fill="#3747D6" d="M1 7c0-.56.44-1 1-1h20c.55 0 1 .44 1 1v11c0 .55-.45 1-1 1H2c-.56 0-1-.45-1-1V7Zm2 1v9h18V8H3Z"/></g></svg>