<svg viewBox="0 0 24 24" xmlns="http://www.w3.org/2000/svg"><g fill="#3747D6" fill-rule="evenodd"><path d="M1 9c0-1.94 1.56-3.5 3.5-3.5h15C21.43 5.5 23 7.06 23 9v9c0 1.93-1.57 3.5-3.5 3.5h-15C2.56 21.5 1 19.93 1 18V9Zm3.5-1.5C3.67 7.5 3 8.17 3 9v9c0 .82.67 1.5 1.5 1.5h15c.82 0 1.5-.68 1.5-1.5V9c0-.83-.68-1.5-1.5-1.5h-15Z"/><path d="M10.5 4.5c-.28 0-.5.22-.5.5v1.5H8V5c0-1.39 1.11-2.5 2.5-2.5h3C14.88 2.5 16 3.61 16 5v1.5h-2V5c0-.28-.23-.5-.5-.5h-3Z"/><g fill="#9545ED"><path d="M1 9c0-1.94 1.56-3.5 3.5-3.5h15C21.43 5.5 23 7.06 23 9v1c0 1.93-1.57 3.5-3.5 3.5h-4.75v-2h4.75c.82 0 1.5-.68 1.5-1.5V9c0-.83-.68-1.5-1.5-1.5h-15C3.67 7.5 3 8.17 3 9v1c0 .82.67 1.5 1.5 1.5H9v2H4.5C2.56 13.5 1 11.93 1 10V9Z"/><path d="M8 10.5c0-.56.44-1 1-1h6c.55 0 1 .44 1 1v4c0 .55-.45 1-1 1H9c-.56 0-1-.45-1-1v-4Zm2 1v2h4v-2h-4Z"/></g></g></svg>