<svg viewBox="0 0 24 24" xmlns="http://www.w3.org/2000/svg"><g fill="#9545ED" fill-rule="evenodd"><path d="M7.5 11.5v-4h2v4h-2Z"/><path d="M10.5 10.5h-4v-2h4v2Z"/><path d="M9.2 19.12l-2.83-2.83 1.41-1.42 2.82 2.82 -1.42 1.41Z"/><path d="M10.62 16.29l-2.83 2.82 -1.42-1.42 2.82-2.83 1.41 1.41Z"/><path d="M17.5 10.5h-4v-2h4v2Z"/><path d="M17.5 16.5h-4v-2h4v2Z"/><path d="M17.5 19.5h-4v-2h4v2Z"/><g fill="#3747D6"><path d="M3 5c0-.56.44-1 1-1h16c.55 0 1 .44 1 1v17c0 .55-.45 1-1 1H4c-.56 0-1-.45-1-1V5Zm2 1v15h14V6H5Z"/><path d="M3 4c0-1.66 1.34-3 3-3h14v2H6c-.56 0-1 .44-1 1v1H3V4Z"/></g></g></svg>