<svg viewBox="0 0 24 24" xmlns="http://www.w3.org/2000/svg"><g fill="#3747D6" fill-rule="evenodd"><path d="M4 6.5C4 3.46 6.46 1 9.5 1h5C17.53 1 20 3.46 20 6.5v12c0 2.48-2.02 4.5-4.5 4.5h-1.68c-1.47 0-2.85-.72-3.69-1.92l-3.79-5.41c-1.53-2.19-2.35-4.79-2.35-7.46V6.49ZM9.5 3C7.56 3 6 4.56 6 6.5v1.71c0 2.25.69 4.45 1.98 6.3l3.78 5.4c.46.66 1.23 1.06 2.04 1.06h1.67c1.38 0 2.5-1.12 2.5-2.5v-12c0-1.94-1.57-3.5-3.5-3.5h-5Z"/><path fill="#9545ED" d="M12 6c-.56 0-1 .44-1 1 0 .55.44 1 1 1 .55 0 1-.45 1-1 0-.56-.45-1-1-1ZM9 7c0-1.66 1.34-3 3-3 1.65 0 3 1.34 3 3 0 1.65-1.35 3-3 3 -1.66 0-3-1.35-3-3Z"/></g></svg>