<svg viewBox="0 0 24 24" xmlns="http://www.w3.org/2000/svg"><g fill="#9545ED" fill-rule="evenodd"><path d="M12 19c-.56 0-1 .44-1 1 0 .55.44 1 1 1 .55 0 1-.45 1-1 0-.56-.45-1-1-1Zm-3 1c0-1.66 1.34-3 3-3 1.65 0 3 1.34 3 3 0 1.65-1.35 3-3 3 -1.66 0-3-1.35-3-3Z"/><path fill="#3747D6" d="M5.91 4.3c-.24.34-.42.87-.42 1.69 0 1.69.75 4 2.02 5.89 1.29 1.91 2.9 3.1 4.47 3.1 1.56 0 3.18-1.2 4.47-3.11 1.27-1.89 2.02-4.2 2.02-5.9 0-.83-.18-1.35-.42-1.7 -.24-.35-.6-.62-1.14-.83 -1.16-.44-2.83-.49-4.95-.49 -2.13 0-3.8.04-4.95.48 -.54.2-.91.47-1.14.82Zm.42-2.7C7.89 1 9.97.98 11.98.98c2.01 0 4.09.02 5.65.61 .81.31 1.55.79 2.07 1.56 .52.76.76 1.7.76 2.81 0 2.17-.93 4.86-2.37 7 -1.43 2.11-3.57 3.99-6.14 3.99 -2.58 0-4.71-1.88-6.14-4C4.36 10.8 3.44 8.11 3.44 5.94c0-1.12.24-2.06.76-2.82 .52-.77 1.26-1.26 2.07-1.57Z"/></g></svg>