<svg viewBox="0 0 24 24" xmlns="http://www.w3.org/2000/svg"><g fill="#3747D6" fill-rule="evenodd"><path d="M1 6c0-.56.44-1 1-1h20c.55 0 1 .44 1 1v16c0 .55-.45 1-1 1H2c-.56 0-1-.45-1-1V6Zm2 1v14h18V7H3Z"/><g fill="#9545ED"><path d="M11.35 13.23c.37-.31.9-.31 1.28 0l1.74 1.45c1.02.85 1.61 2.12 1.61 3.45v1.36c0 .55-.45 1-1 1h-6c-.56 0-1-.45-1-1v-1.37c0-1.34.59-2.61 1.61-3.46l1.74-1.46Zm.64 2.06l-1.11.91c-.57.47-.9 1.17-.9 1.92v.36h4v-.37c0-.75-.33-1.45-.9-1.93l-1.11-.92Z"/><path d="M12.64 14.76c-.38.3-.91.3-1.29 0L9.6 13.3c-1.03-.86-1.62-2.13-1.62-3.46V8.47c0-.56.44-1 1-1h6c.55 0 1 .44 1 1v1.36c0 1.33-.6 2.6-1.62 3.45l-1.75 1.45Zm-.65-2.07l1.1-.92c.56-.48.89-1.18.89-1.93v-.37h-4v.36c0 .74.32 1.44.89 1.92l1.1.91Z"/></g><path d="M2.56 1.64c.14-.4.51-.65.93-.65h17c.41 0 .79.25.93.64l1.5 4c.11.3.07.65-.12.92 -.19.26-.5.43-.83.43h-20c-.33 0-.64-.17-.83-.44 -.19-.27-.23-.62-.12-.93l1.5-4Zm1.62 1.35l-.75 2h17.11l-.75-2H4.17Z"/></g></svg>