<svg viewBox="0 0 24 24" xmlns="http://www.w3.org/2000/svg"><g fill="#9545ED" fill-rule="evenodd"><path d="M6 7c0-1.66 1.34-3 3-3h4c3.31 0 6 2.68 6 6 0 3.31-2.69 6-6 6h-1v1c0 1.65-1.35 3-3 3 -1.66 0-3-1.35-3-3V7Zm3-1c-.56 0-1 .44-1 1v10c0 .55.44 1 1 1 .55 0 1-.45 1-1v-2c0-.56.44-1 1-1h2c2.2 0 4-1.8 4-4 0-2.21-1.8-4-4-4H9Zm1 3c0-.56.44-1 1-1h2c1.1 0 2 .89 2 2 0 1.1-.9 2-2 2h-2c-.56 0-1-.45-1-1V9Z"/><path fill="#3747D6" d="M1 5c0-2.21 1.79-4 4-4h14c2.2 0 4 1.79 4 4v14c0 2.2-1.8 4-4 4H5c-2.21 0-4-1.8-4-4V5Zm4-2c-1.11 0-2 .89-2 2v14c0 1.1.89 2 2 2h14c1.1 0 2-.9 2-2V5c0-1.11-.9-2-2-2H5Z"/></g></svg>