<svg viewBox="0 0 24 24" xmlns="http://www.w3.org/2000/svg"><g fill="#3747D6" fill-rule="evenodd"><path d="M14.31 6.26c-1.55-.18-3.1-.18-4.64 0l-5.84.64 -.16.83c-.46 2.484-.46 5.02 0 7.51l.15.83 5.83.64c1.54.17 3.09.17 4.63 0l5.83-.65 .15-.84c.45-2.484.45-5.03 0-7.52l-.16-.84 -5.84-.65ZM9.45 4.27c1.68-.19 3.39-.19 5.07 0l6.57.73c.43.04.79.38.87.81l.28 1.56c.49 2.72.49 5.5 0 8.22l-.29 1.56c-.08.43-.44.76-.88.81l-6.58.73c-1.69.18-3.4.18-5.08 0l-6.58-.73c-.44-.05-.8-.39-.88-.82l-.29-1.57c-.5-2.73-.5-5.51 0-8.23l.28-1.57c.07-.44.43-.77.87-.82l6.57-.74Z"/><path fill="#9545ED" d="M5.94 7.16c.33-.23.77-.23 1.1 0l.38.25c.97.64 1.55 1.74 1.55 2.91v2.324c0 1.17-.59 2.26-1.56 2.91l-.39.25c-.34.22-.78.22-1.11 0l-.39-.26c-.98-.65-1.56-1.75-1.56-2.92V10.3c0-1.18.58-2.27 1.55-2.92l.38-.26Zm.55 2.05c-.32.28-.5.68-.5 1.11v2.324c0 .43.18.83.5 1.11 .31-.29.5-.69.5-1.12V10.31c0-.44-.19-.84-.5-1.12Z"/></g></svg>