<svg viewBox="0 0 24 24" xmlns="http://www.w3.org/2000/svg"><g fill="#9545ED" fill-rule="evenodd"><path d="M8 4h2c1.65 0 3 1.34 3 3v2h-2V7c0-.56-.45-1-1-1H8V4Z"/><path d="M16 1h-2c-1.66 0-3 1.34-3 3v5h2V4c0-.56.44-1 1-1h2V1Z"/><g fill="#3747D6"><path d="M2 9c0-.56.44-1 1-1h18c.55 0 1 .44 1 1v5c0 .55-.45 1-1 1H3c-.56 0-1-.45-1-1V9Zm2 1v3h16v-3H4Z"/><path d="M4.25 13.33c.18-.22.46-.34.74-.34h14c.28 0 .55.12.74.33 .18.21.27.5.24.78l-1 8c-.07.5-.49.87-1 .87h-12c-.51 0-.93-.38-1-.88l-1-8c-.04-.29.05-.58.24-.79Zm1.88 1.66l.75 6h10.23l.75-6H6.12Z"/></g></g></svg>