<svg viewBox="0 0 24 24" xmlns="http://www.w3.org/2000/svg"><g fill="#9545ED" fill-rule="evenodd"><path d="M11.09 11.24c-.59-.59-1.54-.59-2.13 0 -.59.58-.59 1.53 0 2.12l2.82 2.82 2.82-2.83c.58-.59.58-1.54 0-2.13 -.59-.59-1.54-.59-2.13 0 -.4.39-1.03.39-1.42 0Zm.7-1.97c-1.35-.79-3.1-.61-4.25.54 -1.37 1.36-1.37 3.58 0 4.94l3.53 3.53c.18.18.44.29.7.29 .26 0 .51-.11.7-.3L16 14.73c1.36-1.37 1.36-3.59 0-4.95 -1.16-1.16-2.91-1.34-4.25-.55Z"/><g fill="#3747D6"><path d="M3 5c0-.56.44-1 1-1h16c.55 0 1 .44 1 1v17c0 .55-.45 1-1 1H4c-.56 0-1-.45-1-1V5Zm2 1v15h14V6H5Z"/><path d="M3 4c0-1.66 1.34-3 3-3h14v2H6c-.56 0-1 .44-1 1v1H3V4Z"/></g></g></svg>