<svg viewBox="0 0 24 24" xmlns="http://www.w3.org/2000/svg"><g fill="#9545ED" fill-rule="evenodd"><path d="M3 12.5v-4h2v4H3Z"/><path d="M18 7c-.28 0-.5.22-.5.5 0 .27.22.5.5.5 .27 0 .5-.23.5-.5 0-.28-.23-.5-.5-.5Zm-2.5.5C15.5 6.11 16.61 5 18 5c1.38 0 2.5 1.11 2.5 2.5 0 1.38-1.12 2.5-2.5 2.5 -1.39 0-2.5-1.12-2.5-2.5Z"/><g fill="#3747D6"><path d="M1 15.5c0-.56.44-1 1-1h20c.55 0 1 .44 1 1v5c0 .55-.45 1-1 1H2c-.56 0-1-.45-1-1v-5Zm2 1v3h18v-3H3Z"/><path d="M1 3.5c0-.56.44-1 1-1h17.5C21.43 2.5 23 4.06 23 6v9.5c0 .55-.45 1-1 1h-7c-.56 0-1-.45-1-1v-3.78c0-.77-.58-1.41-1.33-1.5L1.88 8.97c-.51-.06-.89-.49-.89-1v-4.5Zm2 1v2.6l9.9 1.14c1.766.2 3.09 1.69 3.09 3.47v2.77h5v-8.5c0-.83-.68-1.5-1.5-1.5H2.99Z"/></g></g></svg>