<svg viewBox="0 0 24 24" xmlns="http://www.w3.org/2000/svg"><g fill="#3747D6" fill-rule="evenodd"><path d="M4 9c.55 0 1 .44 1 1v10h14V10c0-.56.44-1 1-1 .55 0 1 .44 1 1v11c0 .55-.45 1-1 1H4c-.56 0-1-.45-1-1V10c0-.56.44-1 1-1Z"/><g fill="#9545ED"><path d="M3.54 2.21c.12-.43.51-.72.95-.72h15c.44 0 .83.28.95.71l1.5 5c.02.09.04.19.04.28 0 2.2-1.8 4-4 4 -1.2 0-2.27-.53-3-1.36 -.74.83-1.81 1.35-3 1.35 -1.2 0-2.27-.53-3-1.36 -.74.83-1.81 1.35-3 1.35 -2.21 0-4-1.8-4-4 0-.1.01-.2.04-.29l1.5-5Zm6.45 5.28c0 1.1.89 2 2 2 1.1 0 2-.9 2-2 0-.56.44-1 1-1 .55 0 1 .44 1 1 0 1.1.89 2 2 2 1.06 0 1.92-.83 1.99-1.87l-1.24-4.14H5.22L3.98 7.61c.06 1.04.93 1.86 1.99 1.86 1.1 0 2-.9 2-2 0-.56.44-1 1-1 .55 0 1 .44 1 1Z"/><path d="M12 12c.32 0 .62.15.81.42l.88 1.24 1.45.45c.3.09.55.33.65.64 .1.3.04.64-.15.9l-.92 1.22 .01 1.52c0 .32-.15.63-.42.82 -.27.19-.61.24-.91.13l-1.45-.49 -1.45.48c-.31.1-.65.05-.91-.14 -.27-.2-.42-.5-.42-.83l.01-1.53 -.92-1.23c-.2-.27-.25-.6-.15-.91 .1-.31.34-.55.65-.65l1.45-.46 .88-1.25c.18-.27.49-.43.81-.43Zm0 2.73l-.26.36c-.13.17-.31.31-.52.37l-.43.13 .26.36c.13.17.2.39.19.61l-.01.44 .42-.15c.2-.08.43-.08.64 0l.42.14 -.01-.45c-.01-.22.06-.44.19-.61l.26-.36 -.43-.14c-.21-.07-.4-.2-.52-.38l-.26-.37Z"/></g></g></svg>