<svg viewBox="0 0 24 24" xmlns="http://www.w3.org/2000/svg"><g fill="#3747D6" fill-rule="evenodd"><path d="M2 8c0-1.66 1.34-3 3-3h9.5c1.65 0 3 1.34 3 3v.46l3.09-1.38c.3-.14.66-.11.95.07 .28.18.45.49.45.83v8c0 .33-.18.65-.46.83 -.29.18-.65.21-.96.07l-3.1-1.375v.46c0 1.65-1.35 3-3 3h-9.5c-1.66 0-3-1.35-3-3v-8Zm3-1c-.56 0-1 .44-1 1v8c0 .55.44 1 1 1h9.5c.55 0 1-.45 1-1v-1.24c0-1.09 1.11-1.82 2.1-1.38l2.39 1.06V9.51l-2.4 1.06c-1 .44-2.11-.29-2.11-1.38V7.95c0-.56-.45-1-1-1h-9.5Z"/><path fill="#9545ED" d="M6 8h4v2H6V8Z"/></g></svg>