<svg viewBox="0 0 24 24" xmlns="http://www.w3.org/2000/svg"><g fill="#9545ED" fill-rule="evenodd"><path d="M6.5 12.5c-.56 0-1 .44-1 1 0 .55.44 1 1 1 .55 0 1-.45 1-1 0-.56-.45-1-1-1Zm-3 1c0-1.66 1.34-3 3-3 1.65 0 3 1.34 3 3 0 1.65-1.35 3-3 3 -1.66 0-3-1.35-3-3Z"/><path d="M17.5 12.5c-.56 0-1 .44-1 1 0 .55.44 1 1 1 .55 0 1-.45 1-1 0-.56-.45-1-1-1Zm-3 1c0-1.66 1.34-3 3-3 1.65 0 3 1.34 3 3 0 1.65-1.35 3-3 3 -1.66 0-3-1.35-3-3Z"/><path d="M3 8c0-1.66 1.34-3 3-3h12c1.65 0 3 1.34 3 3v1c0 .55-.45 1-1 1H4c-.56 0-1-.45-1-1V8Zm3-1c-.56 0-1 .44-1 1h14c0-.56-.45-1-1-1H6Z"/><path fill="#3747D6" d="M1 9c0-.56.44-1 1-1h20c.55 0 1 .44 1 1v9c0 .55-.45 1-1 1h-5.67c-1.18 0-2.27-.59-2.92-1.56l-.18-.27c-.6-.9-1.91-.9-2.5 0l-.18.26c-.65.97-1.75 1.55-2.92 1.55H1.96c-.56 0-1-.45-1-1v-9Zm2 1v7h4.66c.5 0 .96-.26 1.24-.67l.17-.27c1.38-2.08 4.43-2.08 5.82 0l.17.26c.27.41.74.66 1.24.66h4.66v-7h-18Z"/></g></svg>