<svg viewBox="0 0 24 24" xmlns="http://www.w3.org/2000/svg"><g fill-rule="evenodd"><path d="M6 11.5c-1.66 0-3 1.34-3 3 0 1.65 1.34 3 3 3 1.65 0 3-1.35 3-3 0-1.66-1.35-3-3-3Zm-5 3c0-2.77 2.23-5 5-5 2.76 0 5 2.23 5 5 0 2.76-2.24 5-5 5 -2.77 0-5-2.24-5-5Z"/><path d="M18 11.5c-1.66 0-3 1.34-3 3 0 1.65 1.34 3 3 3 1.65 0 3-1.35 3-3 0-1.66-1.35-3-3-3Zm-5 3c0-2.77 2.23-5 5-5 2.76 0 5 2.23 5 5 0 2.76-2.24 5-5 5 -2.77 0-5-2.24-5-5Z"/><path d="M4 4.5h4c.3 0 .59.13.78.37 .18.23.26.54.19.84l-2 8.99 -1.96-.44 1.72-7.79H3.97v-2Z"/><path d="M7.5 7.5H13c.28 0 .54.11.73.32l5.5 6 -1.48 1.35 -5.21-5.68H7.47v-2Z"/><path d="M11.49 4.5h4v2h-1.03l-1.51 6.23 -1.95-.47 1.39-5.77h-.92v-2Z"/></g></svg>