<svg viewBox="0 0 24 24" xmlns="http://www.w3.org/2000/svg"><g fill-rule="evenodd"><path d="M1 2c0-.56.44-1 1-1h20c.55 0 1 .44 1 1v20c0 .55-.45 1-1 1H2c-.56 0-1-.45-1-1V2Zm2 1v18h18V3H3Z"/><path d="M7 6.5C7 5.11 8.11 4 9.5 4h5C15.88 4 17 5.11 17 6.5 17 7.88 15.88 9 14.5 9h-5C8.11 9 7 7.88 7 6.5ZM9.5 6c-.28 0-.5.22-.5.5 0 .27.22.5.5.5h5c.27 0 .5-.23.5-.5 0-.28-.23-.5-.5-.5h-5Z"/><path d="M16.49 12.07l-1-.08 -.08-1c.29-.03.57.08.78.29 .2.2.31.49.29.78Zm-2.15 1.06c-.16.02-.32.05-.49.08 -.46.08-.92.19-1.3.32 -.42.14-.62.27-.68.33 -.29.28-.4.59-.4.86 0 .26.1.57.39.86 .28.28.59.39.86.39 .26 0 .57-.11.86-.4 .06-.07.19-.27.33-.68 .13-.39.23-.85.32-1.3 .03-.17.05-.33.08-.484Zm1.14-1.15c-.08-1-.08-1-.08-1l-.01 0 -.01 0 -.04 0c-.03 0-.07 0-.12.01 -.11 0-.25.02-.42.04 -.35.04-.83.1-1.34.19 -.51.09-1.07.22-1.59.39 -.49.16-1.05.41-1.45.81 -.64.63-.99 1.43-.99 2.27 0 .84.35 1.64.98 2.27 .63.63 1.43.98 2.27.98 .84 0 1.64-.36 2.27-.99 .39-.4.64-.97.81-1.45 .17-.52.3-1.08.39-1.59 .09-.52.15-.99.19-1.34 .02-.18.03-.32.04-.42 0-.06 0-.1.01-.12l0-.04 0-.01 0-.01c0-.01 0 0-1-.08Z"/><path d="M9.7 19.2l1.99-2 -1.42-1.42 -2 2 1.41 1.41Z"/></g></svg>