<svg viewBox="0 0 24 24" xmlns="http://www.w3.org/2000/svg"><g fill-rule="evenodd"><path d="M12 3c-4.98 0-9 4.02-9 9 0 4.97 4.02 9 9 9 4.97 0 9-4.03 9-9 0-4.98-4.03-9-9-9ZM1 12C1 5.92 5.92 1 12 1c6.07 0 11 4.92 11 11 0 6.07-4.93 11-11 11C5.92 23 1 18.07 1 12Z"/><path d="M12.261 6.03c.43.11.73.51.73.96v2.63l2.64.37c.32.04.61.25.75.55 .14.29.13.65-.04.93l-3.5 6c-.23.39-.69.57-1.13.46 -.44-.12-.74-.52-.74-.97v-2.64l-2.65-.38c-.33-.05-.62-.26-.76-.56 -.15-.3-.14-.66.03-.94l3.49-6c.22-.4.68-.58 1.12-.47Zm-2.15 6.18l2.02.28c.43.06.77.39.84.81l.9-1.55 -2.03-.29c-.44-.07-.78-.4-.85-.82l-.91 1.54Z"/></g></svg>