<svg viewBox="0 0 24 24" xmlns="http://www.w3.org/2000/svg"><g fill-rule="evenodd"><path d="M12 9c-3.32 0-6 2.68-6 6 0 3.31 2.68 6 6 6 3.31 0 6-2.69 6-6 0-3.32-2.69-6-6-6Zm-8 6c0-4.42 3.58-8 8-8 4.41 0 8 3.58 8 8 0 4.41-3.59 8-8 8 -4.42 0-8-3.59-8-8Z"/><path d="M8.84 18.1h-3.5v-2h3.5c1.13 0 2.04.91 2.04 2.05 0 .02.02.05.05.05h.7c1.51 0 2.75 1.23 2.75 2.75v.7h-2v-.7c0-.42-.34-.75-.75-.75h-.7c-1.14 0-2.05-.92-2.05-2.05 0-.03-.03-.05-.05-.05Z"/><path d="M10.11 9.95l1.76-2.53 1.63 1.14 -1.77 2.52c-.22.3-.24.69-.08 1.02l.45.91c.14.28.5.38.77.21 1.22-.77 2.83-.36 3.55.89l.1.17c.13.23.37.37.64.37h1.78v2h-1.79c-.99 0-1.9-.53-2.39-1.39l-.11-.18c-.16-.27-.5-.36-.76-.2 -1.28.79-2.96.32-3.63-1.02l-.46-.92c-.5-.99-.41-2.17.22-3.07Z"/><path d="M13 4c0-1.66-1.35-3-3-3H7c-.56 0-1 .44-1 1v2c0 1.65 1.34 3 3 3h3c.55 0 1-.45 1-1V4Zm-3-1c.55 0 1 .44 1 1v1H9c-.56 0-1-.45-1-1V3h2Z"/><path d="M13 5v3h-2V5h2Z"/><path d="M11 4c0-1.66 1.34-3 3-3h3c.55 0 1 .44 1 1v2c0 1.65-1.35 3-3 3h-3c-.56 0-1-.45-1-1V4Zm3-1c-.56 0-1 .44-1 1v1h2c.55 0 1-.45 1-1V3h-2Z"/></g></svg>