<svg viewBox="0 0 24 24" xmlns="http://www.w3.org/2000/svg"><g fill-rule="evenodd"><path d="M18 23H6v-2h12v2Z"/><path d="M9.5 13c0-.56.44-1 1-1h3c.55 0 1 .44 1 1v9c0 .55-.45 1-1 1h-3c-.56 0-1-.45-1-1v-9Zm2 1v7h1v-7h-1Z"/><path d="M10.13 2c.41-.63 1.11-1 1.86-1s1.452.37 1.86 1l2.96 4.44c.2.3.22.7.04 1.02 -.12.22-.32.39-.56.47l2.48 3.47c.21.3.24.7.07 1.03 -.18.33-.52.54-.89.54h-.68l2.48 3.41c.22.3.25.7.08 1.04 -.18.33-.52.54-.9.54h-5.5v-2h3.53l-2.487-3.42c-.23-.31-.26-.71-.09-1.05 .17-.34.51-.55.89-.55h.7l-2.442-3.42c-.22-.31-.25-.71-.08-1.04 .12-.26.35-.44.61-.51L12.1 3.04c-.05-.07-.13-.11-.21-.11 -.09 0-.16.04-.21.1L9.72 5.95c.26.07.48.25.61.5 .17.33.14.734-.08 1.03L7.8 10.89h.7c.37 0 .72.21.89.54 .17.33.13.73-.09 1.04l-2.49 3.41h3.53v2h-5.5c-.38 0-.73-.22-.9-.55 -.18-.34-.14-.74.08-1.05l2.48-3.42h-.68c-.38 0-.72-.21-.89-.55 -.18-.34-.15-.734.07-1.04l2.48-3.48c-.24-.09-.44-.25-.56-.48 -.18-.33-.16-.72.04-1.03l2.96-4.45Z"/></g></svg>