<svg viewBox="0 0 24 24" xmlns="http://www.w3.org/2000/svg"><g fill-rule="evenodd"><path d="M7 16v6H5v-6h2Z"/><path d="M3.81 2.76C4.03 1.72 4.94.99 5.99.99c1.05 0 1.96.73 2.18 1.76l1.82 8.52 -1.96.41L6.2 3.15c-.03-.11-.12-.19-.24-.19s-.21.07-.24.18L3.18 14.95H9.94v2h-8c-.31 0-.59-.14-.78-.38 -.19-.24-.27-.55-.21-.84L3.74 2.7Z"/><path d="M17 16v6h2v-6h-2Z"/><path d="M20.18 2.76C19.95 1.72 19.04.99 17.99.99c-1.06 0-1.97.73-2.19 1.76l-1.83 8.52 1.95.41 1.82-8.53c.02-.11.11-.19.23-.19 .11 0 .2.07.23.18l2.53 11.81h-6.763v2h8c.3 0 .58-.14.77-.38 .18-.24.26-.55.2-.84L20.13 2.7Z"/><path d="M13 16v6h-2v-6h2Z"/><path d="M9.81 2.76c.22-1.04 1.13-1.77 2.18-1.77 1.05 0 1.96.73 2.18 1.76l2.79 13.02c.06.29-.02.6-.21.83 -.19.23-.48.37-.78.37h-8c-.31 0-.59-.14-.78-.38 -.19-.24-.27-.55-.21-.84L9.77 2.72Zm2.18.23c-.12 0-.21.07-.24.18L9.21 14.98h5.526L12.19 3.16c-.03-.11-.12-.19-.24-.19Z"/></g></svg>