<svg viewBox="0 0 24 24" xmlns="http://www.w3.org/2000/svg"><g fill-rule="evenodd"><path d="M9.29 11.29c.39-.4 1.02-.4 1.41 0l5 5c.39.39.39 1.02 0 1.41l-2.5 2.5c-1.78 1.77-4.65 1.77-6.42 0C5 18.42 5 15.55 6.78 13.78l2.5-2.5Zm.7 2.12l-1.8 1.79c-1 .99-1 2.59-.01 3.58 .99.99 2.59.99 3.58 0l1.79-1.8 -3.59-3.59Z"/><path d="M9.87 8.7c1.17-1.18 3.07-1.18 4.24 0l4.17 4.17c1.17 1.17 1.17 3.07 0 4.24l-1.59 1.58c-.4.39-1.03.39-1.42 0l-7.01-7c-.4-.4-.4-1.03 0-1.42l1.58-1.59Zm2.82 1.41c-.4-.4-1.03-.4-1.42 0l-.88.87 5.58 5.58 .87-.88c.39-.4.39-1.03 0-1.42l-4.18-4.18Z"/><path d="M18.2 11.62c-.4-.4-1.03-.4-1.42 0l-.59.58 -1.42-1.42 .58-.59c1.17-1.18 3.07-1.18 4.24 0l.58.58 -1.42 1.41 -.59-.59Z"/><path d="M15 2v8h-2V2h2Z"/><path d="M7.5 5v11.5h-2V5h2Z"/><path d="M19.5 4.5v6h-2v-6h2Z"/></g></svg>