<svg viewBox="0 0 24 24" xmlns="http://www.w3.org/2000/svg"><g fill-rule="evenodd"><path d="M1 9c0-.56.44-1 1-1h20c.55 0 1 .44 1 1v13c0 .55-.45 1-1 1H2c-.56 0-1-.45-1-1V9Zm2 1v11h18V10H3Z"/><path d="M1 4c0-.56.44-1 1-1h20c.55 0 1 .44 1 1v5c0 .55-.45 1-1 1H2c-.56 0-1-.45-1-1V4Zm2 1v3h18V5H3Z"/><path d="M8 2v4H6V2h2Z"/><path d="M18 2v4h-2V2h2Z"/><path d="M11.29 10.29c.39-.4 1.02-.4 1.41 0l.7.7h.58c.29 0 .58.13.77.36 .19.23.266.53.2.83l-.28 1.36 1.46-.51c.3-.11.64-.06.9.13 .26.18.41.49.41.81v.58l.7.7c.39.39.39 1.02 0 1.41l-.5.49 .17.35c.15.31.13.67-.05.97 -.19.29-.51.47-.86.47h-10c-.35 0-.67-.18-.86-.48 -.19-.3-.2-.67-.05-.98l.17-.36 -.5-.5c-.4-.4-.4-1.03 0-1.42l.7-.71v-.59c0-.33.15-.63.41-.82 .26-.19.59-.24.9-.14l1.46.5 -.28-1.36c-.06-.3.01-.6.2-.84 .18-.24.47-.37.77-.37h.58l.7-.71Zm-.08 2.68l.26 1.32c0 .01 0 .02 0 .03l.09.57c.05.35-.08.71-.36.93 -.28.22-.66.28-1 .15l-.38-.15 -1.44-.5c-.05.12-.13.23-.23.33l-.3.29 .29.29c.19.19.29.44.29.7h6.99c0-.26.1-.52.29-.71l.29-.3 -.3-.3c-.1-.1-.18-.21-.23-.34l-1.44.49 -.38.14c-.34.12-.72.06-1-.16 -.28-.23-.42-.59-.36-.94l.09-.58c0-.02 0-.03 0-.04l.26-1.33c-.19-.05-.36-.14-.5-.27l-.3-.3 -.3.29c-.14.13-.31.22-.5.26Z"/><path d="M13 16.5v3h-2v-3h2Z"/></g></svg>