<svg viewBox="0 0 24 24" xmlns="http://www.w3.org/2000/svg"><g fill-rule="evenodd"><path d="M1 15c0-1.66 1.34-3 3-3h16c1.65 0 3 1.34 3 3v5c0 1.65-1.35 3-3 3H4c-1.66 0-3-1.35-3-3v-5Zm3-1c-.56 0-1 .44-1 1v5c0 .55.44 1 1 1h16c.55 0 1-.45 1-1v-5c0-.56-.45-1-1-1H4Z"/><path d="M3 8.5C3 4.35 6.35 1 10.5 1h3C17.64 1 21 4.35 21 8.5V13c0 .55-.45 1-1 1H4c-.56 0-1-.45-1-1V8.5ZM10.5 3C7.46 3 5 5.46 5 8.5V12h14V8.5C19 5.46 16.53 3 13.5 3h-3Z"/><path d="M9 16c0-.56.44-1 1-1h4c.55 0 1 .44 1 1v3c0 .55-.45 1-1 1h-4c-.56 0-1-.45-1-1v-3Zm2 1v1h2v-1h-2Z"/></g></svg>