<svg viewBox="0 0 24 24" xmlns="http://www.w3.org/2000/svg"><g fill-rule="evenodd"><path d="M1 9c0-4.42 3.58-8 8-8h6c4.41 0 8 3.58 8 8v2.83c0 1.67-.76 3.25-2.07 4.29l-8.32 6.64c-.37.29-.89.29-1.25 0l-8.32-6.65C1.73 15.06.97 13.48.97 11.81V8.97Zm8-6C5.68 3 3 5.68 3 9v2.83c0 1.06.48 2.06 1.31 2.73l7.68 6.14 7.68-6.15c.83-.67 1.31-1.67 1.31-2.74V8.97c0-3.32-2.69-6-6-6h-6Z"/><path d="M7.55 5.1c.38-.2.84-.12 1.15.18l3.29 3.29 3.29-3.3c.3-.31.76-.38 1.15-.19l6 3 -.9 1.78 -5.36-2.68 -3.5 3.49c-.4.39-1.03.39-1.42 0l-3.5-3.5 -5.36 2.67 -.9-1.79 6-3Z"/><path d="M16 12v2.38c0 .54-.11 1.07-.33 1.57l-2.76 6.43 -1.84-.79 2.75-6.44c.1-.25.16-.52.16-.79v-2.39h2Z"/></g></svg>