<svg viewBox="0 0 24 24" xmlns="http://www.w3.org/2000/svg"><g fill-rule="evenodd"><path d="M5 3.5C5 2.11 6.11 1 7.5 1h9C17.88 1 19 2.11 19 3.5 19 4.88 17.88 6 16.5 6h-9C6.11 6 5 4.88 5 3.5ZM7.5 3c-.28 0-.5.22-.5.5 0 .27.22.5.5.5h9c.27 0 .5-.23.5-.5 0-.28-.23-.5-.5-.5h-9Z"/><path d="M7 5c0-.56.44-1 1-1h8c.55 0 1 .44 1 1v1c1.65 0 3 1.34 3 3v11c0 1.65-1.35 3-3 3H7c-1.66 0-3-1.35-3-3V9c0-1.66 1.34-3 3-3V5Zm2 1v1c0 .55-.45 1-1 1H7c-.56 0-1 .44-1 1v11c0 .55.44 1 1 1h10c.55 0 1-.45 1-1V9c0-.56-.45-1-1-1h-1c-.56 0-1-.45-1-1V6H9Z"/><path d="M15 17v-2h2v2c0 1.65-1.35 3-3 3h-2v-2h2c.55 0 1-.45 1-1Z"/></g></svg>