<svg viewBox="0 0 24 24" xmlns="http://www.w3.org/2000/svg"><g fill-rule="evenodd"><path d="M11.58 8l-5.3-5.3 1.41-1.42 5.99 6c.39.39.39 1.02 0 1.41l-5 4.99c-.4.39-1.03.39-1.42 0l-6-6 1.41-1.42 5.29 5.29 1.08-1.09 -5.3-5.3 1.41-1.42 5.29 5.29 1.08-1.09Z"/><path d="M12.2 8.79c-.4-.4-1.03-.4-1.42 0l-2.01 2c-.4.39-.4 1.02 0 1.41l9 9c.39.39 1.02.39 1.41 0l2-2c.39-.4.39-1.03 0-1.42l-9-9.01Zm6.87 9.7l-.59.58 -7.59-7.59 .58-.59 7.58 7.58Z"/><path d="M16.293 21.29l5-5 1.41 1.41 -5 5 -1.42-1.42Z"/></g></svg>