<svg viewBox="0 0 24 24" xmlns="http://www.w3.org/2000/svg"><g fill-rule="evenodd"><path d="M2 14c-.38 0-.72.2-.89.53 -.18.33-.15.72.06 1.03l3.5 5c.18.26.49.42.81.42h14.5c.55 0 1-.45 1-1v-.95l1.53-.96c.29-.19.47-.51.47-.85v-2.25c0-.56-.45-1-1-1h-20Z"/><path d="M18 13.5c-.56 0-1-.45-1-1V9c0-.46.31-.86.75-.98l4-1c.29-.08.61-.01.85.18 .24.18.38.48.38.78v4.49c0 .55-.45 1-1 1h-4Z"/><path d="M10 13.5c-.29 0-.57-.13-.76-.35 -.19-.22-.28-.51-.24-.8l.5-3.51c.07-.5.49-.86.98-.86h5c.55 0 1 .44 1 1v3.5c0 .55-.45 1-1 1h-5.5Z"/><path d="M11 7.5c-.3 0-.59-.14-.78-.37 -.19-.24-.27-.54-.21-.84l.5-2.5c.09-.47.5-.81.98-.81h3.5c.55 0 1 .44 1 1v2.5c0 .55-.45 1-1 1h-4Z"/><path d="M2.89 13.93c-.41.08-.83-.1-1.05-.46 -.23-.36-.2-.81.05-1.14l5-6.5c.26-.34.7-.48 1.11-.34 .4.13.67.51.67.94v5.49c0 .47-.34.88-.81.98l-5 1Z"/><path d="M12 9V6.5h2V9h-2Zm0 6v-2.5h2V15h-2Z"/></g></svg>