<svg viewBox="0 0 24 24" xmlns="http://www.w3.org/2000/svg"><g fill-rule="evenodd"><path d="M7 3c-.41 0-.78.24-.93.62l-2 5c-.13.3-.09.65.1.93 .18.27.49.43.82.43h14c.33 0 .64-.17.82-.44 .18-.28.22-.63.1-.94l-2-5c-.16-.38-.52-.63-.93-.63h-10Z"/><path d="M4 15c-.56 0-1 .44-1 1v3c0 1.1.89 2 2 2h2c1.1 0 2-.9 2-2v-3c0-.56-.45-1-1-1H4Z"/><path d="M16 15c-.56 0-1 .44-1 1v3c0 1.1.89 2 2 2h2c1.1 0 2-.9 2-2v-3c0-.56-.45-1-1-1h-4Z"/><path d="M4 8c-1.11 0-2 .89-2 2v5c0 1.1.89 2 2 2h16c1.1 0 2-.9 2-2v-5c0-1.11-.9-2-2-2H4Zm14 5h-3v-2h3v2ZM6 13h3v-2H6v2Z"/></g></svg>