<svg viewBox="0 0 24 24" xmlns="http://www.w3.org/2000/svg"><g fill-rule="evenodd"><path d="M8 7.5c-.35 0-.67.17-.86.47 -.19.29-.2.66-.05.97l1.5 2.99c.16.33.51.55.89.55h4c.55 0 1-.45 1-1v-1c0-1.66-1.35-3-3-3h-3.5Z"/><path d="M9.5 10.5c-.34 0-.66.17-.84.45 -.19.28-.22.64-.08.95l2 4.5c.16.36.51.59.91.59h3c.39 0 .75-.24.91-.6l2-4.5c.13-.31.1-.67-.08-.96 -.19-.29-.5-.46-.84-.46h-7Z"/><path d="M4.5 12.5C2.56 12.5 1 14.06 1 16c0 1.93 1.56 3.5 3.5 3.5C6.43 19.5 8 17.93 8 16c0-1.94-1.57-3.5-3.5-3.5Z"/><path d="M19.5 12.5c-1.94 0-3.5 1.56-3.5 3.5 0 1.93 1.56 3.5 3.5 3.5 1.93 0 3.5-1.57 3.5-3.5 0-1.94-1.57-3.5-3.5-3.5Z"/><path d="M9.7 4.9c.18-.26.48-.4.8-.4h2.18v2h-1.69l-5.7 7.6 -1.6-1.2 6-8Z"/><path d="M22 12.5h-6v-2h6v2Z"/><path d="M5 5.5c-.27 0-.52.1-.71.29 -.19.18-.3.44-.3.7l0 2.5c0 .55.44.99 1 .99h1.24c1.24 0 2.25-1.01 2.25-2.25 0-1.25-1.01-2.25-2.25-2.25H4.98Z"/></g></svg>