<svg viewBox="0 0 24 24" xmlns="http://www.w3.org/2000/svg"><g fill-rule="evenodd"><path d="M8 7.5c-.35 0-.67.17-.86.47 -.19.29-.2.66-.05.97l1.5 2.99c.16.33.51.55.89.55h4c.55 0 1-.45 1-1v-1c0-1.66-1.35-3-3-3h-3.5Z"/><path d="M9.5 10.5c-.34 0-.66.17-.84.45 -.19.28-.22.64-.08.95l2 4.5c.16.36.51.59.91.59h10.5c.55 0 1-.45 1-1v-1.5c0-2.21-1.8-4-4-4h-9.5Z"/><path d="M4.5 14.5c-.83 0-1.5.67-1.5 1.5 0 .82.67 1.5 1.5 1.5 .82 0 1.5-.68 1.5-1.5 0-.83-.68-1.5-1.5-1.5ZM1 16c0-1.94 1.56-3.5 3.5-3.5C6.43 12.5 8 14.06 8 16c0 1.93-1.57 3.5-3.5 3.5C2.56 19.5 1 17.93 1 16Z"/><path d="M15 16c0-.56.44-1 1-1h5c.55 0 1 .44 1 1 0 1.93-1.57 3.5-3.5 3.5 -1.94 0-3.5-1.57-3.5-3.5Zm2.38 1c.27.3.67.5 1.11.5 .44 0 .84-.2 1.11-.5h-2.24Z"/><path d="M9.7 4.9c.18-.26.48-.4.8-.4h2.18v2h-1.69l-5.7 7.6 -1.6-1.2 6-8Z"/><path d="M20.96 8.27l-1 3.49 -1.93-.55 1-3.51 1.92.54Z"/><path d="M5 5.5c-.27 0-.52.1-.71.29 -.19.18-.3.44-.3.7l0 2.5c0 .55.44.99 1 .99h1.24c1.24 0 2.25-1.01 2.25-2.25 0-1.25-1.01-2.25-2.25-2.25H4.98Z"/></g></svg>