<svg viewBox="0 0 24 24" xmlns="http://www.w3.org/2000/svg"><g fill-rule="evenodd"><path d="M10 9c-.3 0-.58.13-.77.35l-2.27 2.72 -3.92.71c-1.19.21-2.06 1.25-2.06 2.45v2.74c0 .55.44 1 1 1h2c.55 0 1-.45 1-1v-1h2v1c0 .55.44 1 1 1h8c.55 0 1-.45 1-1v-1h2v1c0 .55.44 1 1 1h2c.55 0 1-.45 1-1v-3.5c0-1.39-1.12-2.5-2.5-2.5h-.54l-2.21-2.65c-.19-.23-.48-.36-.77-.36h-7Z"/><path d="M6 17c-.56 0-1 .44-1 1 0 .55.44 1 1 1 .55 0 1-.45 1-1 0-.56-.45-1-1-1Zm-3 1c0-1.66 1.34-3 3-3 1.65 0 3 1.34 3 3 0 1.65-1.35 3-3 3 -1.66 0-3-1.35-3-3Z"/><path d="M18 17c-.56 0-1 .44-1 1 0 .55.44 1 1 1 .55 0 1-.45 1-1 0-.56-.45-1-1-1Zm-3 1c0-1.66 1.34-3 3-3 1.65 0 3 1.34 3 3 0 1.65-1.35 3-3 3 -1.66 0-3-1.35-3-3Z"/><path d="M5 4l.82-.57c-.19-.28-.5-.44-.83-.44 -.33 0-.64.16-.83.43l.82.56Zm0 0c.82-.57.82-.57.82-.57l0 0 0 0 0 0 0 0 .01.02c.01.02.03.05.06.09 .05.08.13.2.23.35 .19.29.45.7.71 1.15 .25.44.52.94.73 1.42 .19.43.39.98.39 1.49 0 1.65-1.35 3-3 3 -1.66 0-3-1.35-3-3 0-.51.2-1.06.39-1.5 .2-.48.47-.98.73-1.43 .26-.45.52-.87.71-1.16 .09-.15.17-.28.23-.36 .02-.05.05-.08.06-.1l.01-.03 0-.01 0-.01 0-.01 0-.01c0-.01 0-.01.82.56Z"/></g></svg>