<svg viewBox="0 0 24 24" xmlns="http://www.w3.org/2000/svg"><g fill-rule="evenodd"><path d="M20.88 9l.22-.45 1.78.89 -1.5 2.99c-.15.29-.44.5-.78.54l-8 1 -.25-1.99 7.46-.94 .03-.08h-5.882v-2h6.882Z"/><path d="M22 7H2V5h20v2Z"/><path d="M11 9V6h2v3h-2Z"/><path d="M14.5 20H2v-2h12.5v2Z"/><path d="M2.16 18.44l2-3 1.66 1.1 -2 3 -1.67-1.11Zm9 1.1l-2.01-3 1.66-1.11 2 3 -1.67 1.1Z"/><path d="M8 8v2c0 1.1-.9 2-2 2H1.34c.82-2.34 3.04-4 5.65-4h1Zm2 0v2c0 2.2-1.8 4-4 4H1v2c0 .55.44 1 1 1h9c.4 0 .76-.24.91-.61l3-7c.13-.31.1-.67-.09-.95 -.19-.29-.5-.45-.84-.45h-4Z"/></g></svg>