<svg viewBox="0 0 24 24" xmlns="http://www.w3.org/2000/svg"><g fill-rule="evenodd"><path d="M8 10.5c-.34 0-.66.17-.84.45 -.19.28-.22.64-.08.95l2 4.5c.16.36.51.59.91.59h4c.55 0 1-.45 1-1v-4.5c0-.56-.45-1-1-1h-6Z"/><path d="M4.5 12.5C2.56 12.5 1 14.06 1 16c0 1.93 1.56 3.5 3.5 3.5C6.43 19.5 8 17.93 8 16c0-1.94-1.57-3.5-3.5-3.5Z"/><path d="M18.5 12.5c-1.94 0-3.5 1.56-3.5 3.5 0 1.93 1.56 3.5 3.5 3.5 1.93 0 3.5-1.57 3.5-3.5 0-1.94-1.57-3.5-3.5-3.5Z"/><path d="M7.08 5.09c.15-.37.51-.6.91-.6h2.18v2H8.63l-3.24 7.4 -1.84-.81 3.5-8.01Z"/><path d="M8.5 10.5L7.3 8.9l-1.6 1.2 1.5 2c.18.25.48.4.8.4h11.66l1.73 1.3 1.2-1.6 -2-1.5c-.18-.13-.39-.2-.6-.2H8.49Z"/><path d="M16 10h-4V8h4v2Z"/><path d="M3 8c-.27 0-.52.1-.71.29 -.19.18-.3.44-.3.7l0 2.5c0 .55.44.99 1 .99h1.24c1.24 0 2.25-1.01 2.25-2.25 0-1.25-1.01-2.25-2.25-2.25H2.98Z"/></g></svg>