<svg viewBox="0 0 24 24" xmlns="http://www.w3.org/2000/svg"><g fill-rule="evenodd"><path d="M15 3.5h5.5c.55 0 1 .44 1 1v6h-2v-5H15v-2Z"/><path d="M8.29 3.79c.18-.19.44-.3.7-.3h6c.28 0 .54.11.73.32l5.5 6c.16.18.26.42.26.67v10.5c0 .55-.45 1-1 1H4.98c-.56 0-1-.45-1-1V8.48c0-.27.1-.52.29-.71l4-4Zm5.52 6.13l-.83.56 -.83-.57c.18-.28.49-.44.82-.44 .32 0 .63.16.82.43Zm-.83.56c-.83-.57-.83-.57-.83-.57l-.01 0 -.01 0 -.01 0 -.01 0 -.02.02c-.02.02-.04.05-.07.09 -.06.08-.14.2-.24.35 -.2.29-.46.7-.72 1.15 -.26.44-.53.94-.74 1.42 -.2.43-.4.98-.4 1.49 0 1.65 1.34 3 3 3 1.65 0 3-1.35 3-3 0-.51-.21-1.06-.4-1.5 -.21-.48-.48-.98-.74-1.43 -.27-.45-.53-.87-.72-1.16 -.1-.15-.18-.28-.24-.36 -.03-.05-.06-.08-.07-.1l-.02-.03 -.01-.01 -.01-.01 -.01-.01 -.01-.01c0-.01-.01-.01-.83.56Z"/><path d="M7.2 2.29c-.19-.19-.45-.3-.71-.3 -.27 0-.52.1-.71.29l-3 3c-.4.39-.4 1.02 0 1.41l2 2c.18.18.44.29.7.29 .26 0 .51-.11.7-.3l3-3c.39-.4.39-1.03 0-1.42l-2-2.01Z"/></g></svg>