<svg viewBox="0 0 24 24" xmlns="http://www.w3.org/2000/svg"><g fill-rule="evenodd"><path d="M17.29 14.29c.39-.4 1.02-.4 1.41 0l4 4c.39.39.39 1.02 0 1.41l-3 3c-.4.39-1.03.39-1.42 0l-4-4c-.4-.4-.4-1.03 0-1.42l3-3Zm-.88 3.7l2.58 2.58 1.58-1.59 -2.59-2.59 -1.59 1.58Z"/><path d="M4.29 1.29c.39-.4 1.02-.4 1.41 0l3.5 3.5c.39.39.39 1.02 0 1.41l-3 3c-.4.39-1.03.39-1.42 0l-3.5-3.5c-.4-.4-.4-1.03 0-1.42l3-3Zm-.88 3.7l2.08 2.08 1.58-1.59 -2.09-2.09 -1.59 1.58Z"/><path d="M16.7 10.29c-.4-.4-1.03-.4-1.42 0l-5 5c-.4.39-.4 1.02 0 1.41l3 3c.39.39 1.02.39 1.41 0l1-1 3-3 1-1c.39-.4.39-1.03 0-1.42l-3-3Z"/><path d="M9.79 6.79c.39-.4 1.02-.4 1.41 0l2.5 2.5c.39.39.39 1.02 0 1.41l-3 3c-.4.39-1.03.39-1.42 0l-2.5-2.5c-.4-.4-.4-1.03 0-1.42l3-3Zm-.88 3.7l1.08 1.08 1.58-1.59 -1.09-1.09 -1.59 1.58Z"/><path d="M10.2 3.79c-.4-.4-1.03-.4-1.42 0l-5 5c-.4.39-.4 1.02 0 1.41l2 2c.39.39 1.02.39 1.41 0l4.99-5c.39-.4.39-1.03 0-1.42l-2-2Z"/></g></svg>