<svg viewBox="0 0 24 24" xmlns="http://www.w3.org/2000/svg"><g fill-rule="evenodd"><path d="M2 13.5c-.34 0-.66.17-.84.45 -.19.28-.22.64-.08.95l2 4.5c.16.36.51.59.91.59h16.5c.43 0 .81-.28.94-.69l1.5-4.5c.1-.31.05-.65-.14-.91 -.19-.27-.49-.42-.82-.42h-20Z"/><path d="M6 15.5c-.56 0-1-.45-1-1V11c0-.56.44-1 1-1h14c.55 0 1 .44 1 1v3.5c0 .55-.45 1-1 1H6Z"/><path d="M10 11c0 .55.44 1 1 1h7c.55 0 1-.45 1-1V7.5c0-.56-.45-1-1-1h-7c-.56 0-1 .44-1 1V11Zm2-1V8.5h5V10h-5Z"/><path d="M18 5v2.5h-2V5h2Z"/><path d="M15 5v2.5h-2V5h2Z"/></g></svg>