<svg viewBox="0 0 24 24" xmlns="http://www.w3.org/2000/svg"><g fill-rule="evenodd"><path d="M5 4c-.32 0-.62.14-.8.4l-3 4c-.23.3-.27.7-.1 1.04l1 1.99c.15.3.45.51.79.54l4.57.45 1.15 1.48 -.59 1.74c-.11.3-.06.64.13.9 .18.26.48.41.81.41h5.49c.43 0 .81-.28.94-.69l.87-2.64 4.15-2.311c.2-.12.35-.29.44-.51l1-2.51c.14-.37.06-.78-.21-1.06 -.27-.29-.68-.39-1.05-.27l-7.35 2.44h-.17l-.19-.46c-.51-1.26-1.78-2.02-3.12-1.87l-1.88.2v-2.39c0-.56-.45-1-1-1h-2Z"/><path d="M4.5 12.5C2.56 12.5 1 14.06 1 16c0 1.93 1.56 3.5 3.5 3.5C6.43 19.5 8 17.93 8 16c0-1.94-1.57-3.5-3.5-3.5Z"/><path d="M19.5 12.5c-1.94 0-3.5 1.56-3.5 3.5 0 1.93 1.56 3.5 3.5 3.5 1.93 0 3.5-1.57 3.5-3.5 0-1.94-1.57-3.5-3.5-3.5Z"/></g></svg>