<svg viewBox="0 0 24 24" xmlns="http://www.w3.org/2000/svg"><g fill-rule="evenodd"><path d="M11 6.5c-.19 0-.38.05-.53.15l-3.85 2.4 -4.02.8c-.94.18-1.61 1-1.61 1.96v2.68c0 .55.44 1 1 1h2c.55 0 1-.45 1-1v-1h2v1c0 .55.44 1 1 1h8c.55 0 1-.45 1-1v-1h2v1c0 .55.44 1 1 1h2c.55 0 1-.45 1-1v-4.5c0-.43-.27-.8-.67-.95l-7-2.5c-.11-.04-.23-.06-.34-.06h-4Z"/><path d="M6 13.5c-.56 0-1 .44-1 1 0 .55.44 1 1 1 .55 0 1-.45 1-1 0-.56-.45-1-1-1Zm-3 1c0-1.66 1.34-3 3-3 1.65 0 3 1.34 3 3 0 1.65-1.35 3-3 3 -1.66 0-3-1.35-3-3Z"/><path d="M18 13.5c-.56 0-1 .44-1 1 0 .55.44 1 1 1 .55 0 1-.45 1-1 0-.56-.45-1-1-1Zm-3 1c0-1.66 1.34-3 3-3 1.65 0 3 1.34 3 3 0 1.65-1.35 3-3 3 -1.66 0-3-1.35-3-3Z"/><path d="M22.24 5.97l-4 1 -.49-1.95 3.99-1 .48 1.94Z"/><path d="M19 8.85l.5-3.5 1.97.28 -.5 3.5 -1.98-.29Z"/></g></svg>