<svg viewBox="0 0 24 24" xmlns="http://www.w3.org/2000/svg"><g fill-rule="evenodd"><path d="M8.94 4c-1.59 0-3.02.93-3.66 2.37L4.07 9.08c-.14.3-.11.66.07.95 .18.28.49.45.83.45h14c.33 0 .65-.18.83-.46 .18-.29.21-.65.07-.96l-1.21-2.72c-.65-1.45-2.08-2.38-3.66-2.38H8.89Z"/><path d="M4.12 15.5c-.29-.04-.58.05-.79.24 -.22.18-.34.46-.34.74v1.5c0 1.1.89 2 2 2h2c1.1 0 2-.9 2-2v-1c0-.51-.38-.93-.88-1l-4-.5Z"/><path d="M21 16.5c0-.29-.13-.56-.34-.75 -.22-.19-.51-.28-.79-.25l-4 .5c-.51.06-.88.48-.88.99v1c0 1.1.89 2 2 2h2c1.1 0 2-.9 2-2v-1.5Z"/><path d="M5 8.5c-1.66 0-3 1.34-3 3V16c0 .48.35.9.83.98l9 1.5c.1.01.22.01.32 0l9-1.5c.48-.09.83-.5.83-.99v-4.5c0-1.66-1.35-3-3-3h-2.5c-.2 0-.4.05-.56.16l-3.95 2.63 -3.95-2.64c-.17-.11-.36-.17-.56-.17h-2.5Zm13.31 4.94l-3 1 -.64-1.9 3-1 .63 1.89Zm-12.64 0l3 1 .63-1.9 -3-1 -.64 1.89Z"/><path d="M20.74 8.47l-2 .5 -.49-1.95 2-.5 .48 1.94Z"/><path d="M3.25 8.47l2 .5 .48-1.95 -2-.5 -.49 1.94Z"/></g></svg>