<svg viewBox="0 0 24 24" xmlns="http://www.w3.org/2000/svg"><g fill-rule="evenodd"><path d="M6.5 3.5c-.32 0-.62.14-.8.4l-4.5 6c-.23.3-.27.7-.1 1.04l1 2c.16.33.51.55.89.55h10.5c.55 0 1-.45 1-1v-1c0-1.66-1.35-3-3-3H9.74V4.48c0-.56-.45-1-1-1H6.49Z"/><path d="M8 11.5c-.34 0-.66.17-.84.45 -.19.28-.22.64-.08.95l2 4.5c.16.36.51.59.91.59h12c.55 0 1-.45 1-1v-1.5c0-2.21-1.8-4-4-4h-11Z"/><path d="M4.5 15.5c-.83 0-1.5.67-1.5 1.5 0 .82.67 1.5 1.5 1.5 .82 0 1.5-.68 1.5-1.5 0-.83-.68-1.5-1.5-1.5ZM1 17c0-1.94 1.56-3.5 3.5-3.5C6.43 13.5 8 15.06 8 17c0 1.93-1.57 3.5-3.5 3.5C2.56 20.5 1 18.93 1 17Z"/><path d="M15 17c0-.56.44-1 1-1h5c.55 0 1 .44 1 1 0 1.93-1.57 3.5-3.5 3.5 -1.94 0-3.5-1.57-3.5-3.5Zm2.38 1c.27.3.67.5 1.11.5 .44 0 .84-.2 1.11-.5h-2.24Z"/><path d="M17 7c-.56 0-1 .44-1 1v4c0 .55.44 1 1 1h5c.55 0 1-.45 1-1v-2c0-1.66-1.35-3-3-3h-3Z"/></g></svg>