<svg viewBox="0 0 24 24" xmlns="http://www.w3.org/2000/svg"><g fill-rule="evenodd"><path d="M2 10.5c-.56 0-1 .44-1 1v6c0 .55.44 1 1 1h2c.55 0 1-.45 1-1v-1h2v1c0 .55.44 1 1 1h2c.55 0 1-.45 1-1v-6c0-.56-.45-1-1-1H2Z"/><path d="M12.5 3.5c-.44 0-.82.27-.95.68l-2.5 7.5c-.04.1-.06.2-.06.31v5.5c0 .55.44 1 1 1h2c.42 0 .79-.27.94-.67l2.263-6.34h2.79c.55 0 1-.45 1-1v-6c0-.56-.45-1-1-1h-5.5Z"/><path d="M6 16.5c-.56 0-1 .44-1 1 0 .55.44 1 1 1 .55 0 1-.45 1-1 0-.56-.45-1-1-1Zm-3 1c0-1.66 1.34-3 3-3 1.65 0 3 1.34 3 3 0 1.65-1.35 3-3 3 -1.66 0-3-1.35-3-3Z"/><path d="M18.5 13.5c-1.39 0-2.5 1.11-2.5 2.5 0 1.38 1.11 2.5 2.5 2.5 1.38 0 2.5-1.12 2.5-2.5 0-1.39-1.12-2.5-2.5-2.5ZM14 16c0-2.49 2.01-4.5 4.5-4.5 2.48 0 4.5 2.01 4.5 4.5 0 2.48-2.02 4.5-4.5 4.5 -2.49 0-4.5-2.02-4.5-4.5Z"/><path d="M13.55 10.16c.14-.4.51-.67.94-.67h7.5v2h-6.8l-2.263 6.33c-.15.39-.52.66-.95.66h-2v-2h1.29l2.263-6.34Z"/></g></svg>