<svg viewBox="0 0 24 24" xmlns="http://www.w3.org/2000/svg"><g fill-rule="evenodd"><path d="M2 11.5c-.38 0-.72.2-.89.53 -.18.33-.15.72.06 1.03l3.5 5c.18.26.49.42.81.42h15.5c.43 0 .81-.28.94-.69l1-3c.1-.31.05-.65-.14-.91 -.19-.27-.49-.42-.82-.42h-9.09l-1.71-1.71c-.19-.19-.45-.3-.71-.3h-8.5Z"/><path d="M5 13.5c-.3 0-.59-.14-.78-.37 -.19-.24-.266-.54-.21-.84l1-5.01c.09-.47.5-.81.98-.81h3.99c.55 0 1 .44 1 1v5c0 .55-.45 1-1 1h-5Z"/><path d="M18.34 7.03l-5 8 -1.7-1.06 5-8 1.69 1.06Z"/><path d="M17.18 5.55c.45-.16.95.04 1.18.45l4.5 7.99 -1.75.98 -1.95-3.47 .31 2.34 -1.99.26 -1-7.51c-.07-.48.21-.93.67-1.09Z"/></g></svg>