<svg viewBox="0 0 24 24" xmlns="http://www.w3.org/2000/svg"><g fill-rule="evenodd"><path d="M4 6.5c-.38 0-.73.21-.9.55l-2 4c-.07.13-.11.29-.11.44v4c0 .55.44 1 1 1h3c.55 0 1-.45 1-1v-.5h1v.5c0 .55.44 1 1 1h2c.55 0 1-.45 1-1v-8c0-.56-.45-1-1-1h-6Z"/><path d="M22 14.5h-1v2h1v-2Zm-8.5 0H10v2h3.5v-2Z"/><path d="M6.5 15c-.28 0-.5.22-.5.5 0 .27.22.5.5.5 .27 0 .5-.23.5-.5 0-.28-.23-.5-.5-.5Zm-2.5.5C4 14.11 5.11 13 6.5 13 7.88 13 9 14.11 9 15.5 9 16.88 7.88 18 6.5 18 5.11 18 4 16.88 4 15.5Z"/><path d="M19.5 15c-.28 0-.5.22-.5.5 0 .27.22.5.5.5 .27 0 .5-.23.5-.5 0-.28-.23-.5-.5-.5Zm-2.5.5c0-1.39 1.11-2.5 2.5-2.5 1.38 0 2.5 1.11 2.5 2.5 0 1.38-1.12 2.5-2.5 2.5 -1.39 0-2.5-1.12-2.5-2.5Z"/><path d="M15 15c-.28 0-.5.22-.5.5 0 .27.22.5.5.5 .27 0 .5-.23.5-.5 0-.28-.23-.5-.5-.5Zm-2.5.5c0-1.39 1.11-2.5 2.5-2.5 1.38 0 2.5 1.11 2.5 2.5 0 1.38-1.12 2.5-2.5 2.5 -1.39 0-2.5-1.12-2.5-2.5Z"/><path d="M13.59 7v5c0 .41-.26.78-.65.93l-2.6 1 -.72-1.87 1.95-.76V6.98h2Z"/></g></svg>