<svg viewBox="0 0 24 24" xmlns="http://www.w3.org/2000/svg"><g fill-rule="evenodd"><path d="M1 14.5c0-.56.44-1 1-1h20c.55 0 1 .44 1 1V17h-2v-1.5H3V17H1v-2.5Z"/><path d="M14.5 13.5c-.56 0-1 .44-1 1V16c0 1.1.89 2 2 2H18c1.1 0 2-.9 2-2v-1.5c0-.56-.45-1-1-1h-4.5Z"/><path d="M5 13.5c-.56 0-1 .44-1 1V16c0 1.1.89 2 2 2h2.5c1.1 0 2-.9 2-2v-1.5c0-.56-.45-1-1-1H5Z"/><path d="M2 7c0-.56.44-1 1-1h18c.55 0 1 .44 1 1v7.5c0 .55-.45 1-1 1H3c-.56 0-1-.45-1-1V7Zm3 2.5V12h2V9.5H5ZM8 12V9.5h2V12H8Zm3-2.5V12h2V9.5h-2Zm3 2.5V9.5h2V12h-2Zm3-2.5V12h2V9.5h-2Z"/></g></svg>