<svg viewBox="0 0 24 24" xmlns="http://www.w3.org/2000/svg"><g fill-rule="evenodd"><path d="M1.5 4c0-1.39 1.11-2.5 2.5-2.5h16c1.38 0 2.5 1.11 2.5 2.5v16c0 1.38-1.12 2.5-2.5 2.5H4c-1.39 0-2.5-1.12-2.5-2.5V4ZM4 2.5c-.83 0-1.5.67-1.5 1.5v16c0 .82.67 1.5 1.5 1.5h16c.82 0 1.5-.68 1.5-1.5V4c0-.83-.68-1.5-1.5-1.5H4Z"/><path d="M1.5 4c0-1.39 1.11-2.5 2.5-2.5h16c1.38 0 2.5 1.11 2.5 2.5v2c0 .27-.23.5-.5.5H2c-.28 0-.5-.23-.5-.5V4ZM4 2.5c-.83 0-1.5.67-1.5 1.5v1.5h19V4c0-.83-.68-1.5-1.5-1.5H4Z"/><path d="M12 9.5c-2.49 0-4.5 2.01-4.5 4.5 0 2.48 2.01 4.5 4.5 4.5 2.48 0 4.5-2.02 4.5-4.5 0-2.49-2.02-4.5-4.5-4.5ZM6.5 14c0-3.04 2.46-5.5 5.5-5.5 3.03 0 5.5 2.46 5.5 5.5 0 3.03-2.47 5.5-5.5 5.5 -3.04 0-5.5-2.47-5.5-5.5Z"/><path d="M9.64 15.64l3.99-4 .7.7 -4 4 -.71-.71Z"/><path d="M14.35 15.64l-4-4 -.71.7 4 4 .7-.71Z"/></g></svg>