<svg viewBox="0 0 24 24" xmlns="http://www.w3.org/2000/svg"><g fill-rule="evenodd"><path d="M1.5 4c0-1.39 1.11-2.5 2.5-2.5h16c1.38 0 2.5 1.11 2.5 2.5v16c0 1.38-1.12 2.5-2.5 2.5H4c-1.39 0-2.5-1.12-2.5-2.5V4ZM4 2.5c-.83 0-1.5.67-1.5 1.5v16c0 .82.67 1.5 1.5 1.5h16c.82 0 1.5-.68 1.5-1.5V4c0-.83-.68-1.5-1.5-1.5H4Z"/><path d="M1.5 4c0-1.39 1.11-2.5 2.5-2.5h16c1.38 0 2.5 1.11 2.5 2.5v2c0 .27-.23.5-.5.5H2c-.28 0-.5-.23-.5-.5V4ZM4 2.5c-.83 0-1.5.67-1.5 1.5v1.5h19V4c0-.83-.68-1.5-1.5-1.5H4Z"/><path d="M4.5 11.5c0-1.66 1.34-3 3-3h1c1.65 0 3 1.34 3 3v.5h-1v-.5c0-1.11-.9-2-2-2h-1c-1.11 0-2 .89-2 2v5c0 1.1.89 2 2 2h1c1.1 0 2-.9 2-2V16h1v.5c0 1.65-1.35 3-3 3h-1c-1.66 0-3-1.35-3-3v-5Z"/><path d="M14 17.938l1-8.01 .99.12 -1 8 -1-.13Z"/><path d="M16.5 17.938l1-8.01 .99.12 -1 8 -1-.13Z"/><path d="M20 12.5h-6.5v-1H20v1Z"/><path d="M19 16.5h-6v-1h6v1Z"/></g></svg>