<svg viewBox="0 0 24 24" xmlns="http://www.w3.org/2000/svg"><g fill-rule="evenodd"><path d="M14.5 5.5c-2.15 0-4.02 1.23-4.92 3.03 -.12.23-.39.33-.63.24 -.46-.18-.95-.28-1.46-.28 -2.21 0-4 1.79-4 4 0 .15 0 .31.02.46 .01.15-.04.3-.15.41 -.55.54-.89 1.29-.89 2.12 0 1.65 1.34 3 3 3h13c1.65 0 3-1.35 3-3 0-1.09-.58-2.05-1.45-2.57 -.19-.12-.29-.34-.23-.56 .11-.45.17-.91.17-1.38 0-3.04-2.47-5.5-5.5-5.5ZM8.89 7.69c1.13-1.92 3.21-3.2 5.6-3.2 3.58 0 6.5 2.91 6.5 6.5 0 .43-.05.86-.13 1.28 .98.72 1.62 1.89 1.62 3.21 0 2.2-1.8 4-4 4h-13c-2.21 0-4-1.8-4-4 0-1.03.38-1.96 1.01-2.66 -.01-.12-.02-.23-.02-.35 0-2.77 2.23-5 5-5 .48 0 .95.06 1.39.19Z"/><path d="M4.64 13.14l3-3 .7.7 -2.65 2.64 2.64 2.64 -.71.7 -3-3c-.2-.2-.2-.52 0-.71Z"/><path d="M18.35 13.14l-3-3 -.71.7 2.64 2.64 -2.65 2.64 .7.7 3-3c.19-.2.19-.52 0-.71Z"/><path d="M9.54 16.803l2.99-7 .91.39 -3 7 -.92-.4Z"/></g></svg>