<svg viewBox="0 0 24 24" xmlns="http://www.w3.org/2000/svg"><g fill-rule="evenodd"><path d="M1.62 1.66c.09-.11.23-.17.37-.17h20c.14 0 .27.06.37.16 .09.1.13.25.12.39l-2 16c-.03.16-.13.31-.28.38l-8 4c-.15.07-.31.07-.45 0l-8-4c-.15-.08-.26-.22-.28-.39l-2-16c-.02-.15.02-.29.12-.4Zm.94.83l1.89 15.17 7.53 3.76 7.53-3.77L21.4 2.47H2.53Z"/><path d="M6 4.5h13c.23 0 .43.15.48.38 .05.22-.06.45-.27.56L10.1 9.99h7.882c.14 0 .28.06.38.17 .09.11.13.26.1.4l-1 5.5c-.03.14-.12.26-.24.33l-5 3c-.16.09-.36.09-.52 0l-5.01-3c-.13-.08-.22-.21-.24-.35l-.5-3 .98-.17 .46 2.77 4.54 2.72 4.54-2.73 .85-4.69H7.91c-.24 0-.44-.16-.49-.39 -.06-.23.05-.46.26-.57l9.1-4.56H5.89v-1Z"/></g></svg>