<svg viewBox="0 0 24 24" xmlns="http://www.w3.org/2000/svg"><g fill-rule="evenodd"><path d="M1.5 4c0-.28.22-.5.5-.5h20c.27 0 .5.22.5.5v12c0 .27-.23.5-.5.5H2c-.28 0-.5-.23-.5-.5V4Zm1 .5v11h19v-11h-19Z"/><path d="M9.5 16c0-.28.22-.5.5-.5h4c.27 0 .5.22.5.5v4c0 .27-.23.5-.5.5h-4c-.28 0-.5-.23-.5-.5v-4Zm1 .5v3h3v-3h-3Z"/><path d="M18 20.5H6v-1h12v1Z"/><path d="M4.64 9.64l3-3 .7.7 -2.65 2.64 2.64 2.64 -.71.7 -3-3c-.2-.2-.2-.52 0-.71Z"/><path d="M19.35 9.64l-3-3 -.71.7 2.64 2.64 -2.65 2.64 .7.7 3-3c.19-.2.19-.52 0-.71Z"/><path d="M10.04 13.303l3-7 .91.39 -3 7 -.92-.4Z"/></g></svg>