<svg viewBox="0 0 24 24" xmlns="http://www.w3.org/2000/svg"><g fill-rule="evenodd"><path d="M4.5 4c0-1.39 1.11-2.5 2.5-2.5h10c1.38 0 2.5 1.11 2.5 2.5v16c0 1.38-1.12 2.5-2.5 2.5H7c-1.39 0-2.5-1.12-2.5-2.5V4ZM7 2.5c-.83 0-1.5.67-1.5 1.5v16c0 .82.67 1.5 1.5 1.5h10c.82 0 1.5-.68 1.5-1.5V4c0-.83-.68-1.5-1.5-1.5H7Z"/><path d="M11.5 4V2h1v2h-1Z"/><path d="M11 11c-1.39 0-2.5 1.11-2.5 2.5v2c0 1.38 1.11 2.5 2.5 2.5h2c1.2 0 2.21-.86 2.45-2.01 -1.64-.03-2.96-1.36-2.96-3 0-.77.28-1.46.75-1.99 -.09-.01-.17-.02-.26-.02h-2Zm-3.5 2.5c0-1.94 1.56-3.5 3.5-3.5h2c.54 0 1.06.12 1.52.35 .16.08.27.25.28.43 0 .18-.1.36-.27.45 -.63.33-1.05 1-1.05 1.75 0 1.1.89 2 2 2 .13 0 .27-.02.4-.04 .14-.03.29 0 .41.1 .11.09.18.23.18.38v.05c0 1.93-1.57 3.5-3.5 3.5h-2c-1.94 0-3.5-1.57-3.5-3.5v-2Z"/><path d="M11.5 7c0-1.11.89-2 2-2H15c.27 0 .5.22.5.5V7c0 1.1-.9 2-2 2H12c-.28 0-.5-.23-.5-.5V7Zm2-1c-.56 0-1 .44-1 1v1h1c.55 0 1-.45 1-1V6h-1Z"/></g></svg>