<svg viewBox="0 0 24 24" xmlns="http://www.w3.org/2000/svg"><g fill-rule="evenodd"><path d="M1.5 2c0-.28.22-.5.5-.5h14c.13 0 .25.05.35.14l6 6c.09.09.14.22.14.35v14c0 .27-.23.5-.5.5h-20c-.28 0-.5-.23-.5-.5v-20Zm1 .5v19h19V8.2l-5.71-5.71H2.49Z"/><path d="M15.8 1.53c.18-.08.4-.04.54.1l6 6c.14.14.18.35.1.54 -.08.18-.26.3-.47.3h-6c-.28 0-.5-.23-.5-.5v-6c0-.21.12-.39.3-.47Zm.69 1.66v4.29h4.29l-4.3-4.3Z"/><path d="M13 10.5c0-.28.22-.5.5-.5H19v1h-5v3h5c.27 0 .5.22.5.5v4c0 .27-.23.5-.5.5h-5.5v-1h5v-3h-5c-.28 0-.5-.23-.5-.5v-4Z"/><path d="M10 11H5v-1h5.5c.27 0 .5.22.5.5v8c0 .27-.23.5-.5.5H5c-.28 0-.5-.23-.5-.5V14h1v4H10v-7Z"/></g></svg>