<svg viewBox="0 0 24 24" xmlns="http://www.w3.org/2000/svg"><g fill-rule="evenodd"><path d="M1.5 2c0-.28.22-.5.5-.5h20c.27 0 .5.22.5.5v20c0 .27-.23.5-.5.5H2c-.28 0-.5-.23-.5-.5V2Zm1 .5v19h19v-19h-19Z"/><path d="M16.5 12.5c-.56 0-1 .44-1 1v.5c0 .55.44 1 1 1H18c1.1 0 2 .89 2 2v.5c0 1.1-.9 2-2 2h-3v-1h3c.55 0 1-.45 1-1V17c0-.56-.45-1-1-1h-1.5c-1.11 0-2-.9-2-2v-.5c0-1.11.89-2 2-2h3v1h-3Z"/><path d="M12 17.5V12h1v5.5c0 1.1-.9 2-2 2H9.5c-1.11 0-2-.9-2-2V17h1v.5c0 .55.44 1 1 1H11c.55 0 1-.45 1-1Z"/></g></svg>