<svg viewBox="0 0 24 24" xmlns="http://www.w3.org/2000/svg"><g fill-rule="evenodd"><path d="M1.5 2c0-.28.22-.5.5-.5h14c.13 0 .25.05.35.14l6 6c.09.09.14.22.14.35v14c0 .27-.23.5-.5.5h-20c-.28 0-.5-.23-.5-.5v-20Zm1 .5v19h19V8.2l-5.71-5.71H2.49Z"/><path d="M15.8 1.53c.18-.08.4-.04.54.1l6 6c.14.14.18.35.1.54 -.08.18-.26.3-.47.3h-6c-.28 0-.5-.23-.5-.5v-6c0-.21.12-.39.3-.47Zm.69 1.66v4.29h4.29l-4.3-4.3Z"/><path d="M15 10.5c-.83 0-1.5.67-1.5 1.5v.25h-1v-.26c0-1.39 1.11-2.5 2.5-2.5h1c1.38 0 2.5 1.11 2.5 2.5v.03c0 .75-.35 1.47-.94 1.95l-1.57 1.24v1.75h-1v-2c0-.16.06-.3.18-.4l1.74-1.4c.35-.29.56-.72.56-1.18v-.04c0-.83-.68-1.5-1.5-1.5h-1Z"/><path d="M15 20v-1h1v1h-1Z"/><path d="M4.64 14.14l4-4 .7.7 -3.65 3.64 3.64 3.64 -.71.7 -4-4c-.2-.2-.2-.52 0-.71Z"/></g></svg>