<svg viewBox="0 0 24 24" xmlns="http://www.w3.org/2000/svg"><g fill-rule="evenodd"><path d="M1.5 4c0-1.39 1.11-2.5 2.5-2.5h16c1.38 0 2.5 1.11 2.5 2.5v16c0 1.38-1.12 2.5-2.5 2.5H4c-1.39 0-2.5-1.12-2.5-2.5V4ZM4 2.5c-.83 0-1.5.67-1.5 1.5v16c0 .82.67 1.5 1.5 1.5h16c.82 0 1.5-.68 1.5-1.5V4c0-.83-.68-1.5-1.5-1.5H4Z"/><path d="M1.5 4c0-1.39 1.11-2.5 2.5-2.5h16c1.38 0 2.5 1.11 2.5 2.5v2c0 .27-.23.5-.5.5H2c-.28 0-.5-.23-.5-.5V4ZM4 2.5c-.83 0-1.5.67-1.5 1.5v1.5h19V4c0-.83-.68-1.5-1.5-1.5H4Z"/><path d="M14 9v3c0 .82.67 1.5 1.5 1.5h3V9h1v8c0 1.38-1.12 2.5-2.5 2.5h-3.5v-1H17c.82 0 1.5-.68 1.5-1.5v-2.5h-3c-1.39 0-2.5-1.12-2.5-2.5V9h1Z"/><path d="M4.5 9c0-.28.22-.5.5-.5h3.5C9.88 8.5 11 9.61 11 11v1c0 1.38-1.12 2.5-2.5 2.5h-3V19h-1V9Zm1 4.5h3c.82 0 1.5-.68 1.5-1.5v-1c0-.83-.68-1.5-1.5-1.5h-3v4Z"/></g></svg>