<svg viewBox="0 0 24 24" xmlns="http://www.w3.org/2000/svg"><g fill-rule="evenodd"><path d="M1.5 2c0-.28.22-.5.5-.5h14c.13 0 .25.05.35.14l6 6c.09.09.14.22.14.35v14c0 .27-.23.5-.5.5h-20c-.28 0-.5-.23-.5-.5v-20Zm1 .5v19h19V8.2l-5.71-5.71H2.49Z"/><path d="M15.8 1.53c.18-.08.4-.04.54.1l6 6c.14.14.18.35.1.54 -.08.18-.26.3-.47.3h-6c-.28 0-.5-.23-.5-.5v-6c0-.21.12-.39.3-.47Zm.69 1.66v4.29h4.29l-4.3-4.3Z"/><path d="M11.5 13.5c0-.28.22-.5.5-.5h2c1.1 0 2 .89 2 2 0 1.1-.9 2-2 2h-.8l2.64 2.64 -.71.7 -2.65-2.65v2.29h-1v-6.5Zm1 2.5v-2H14c.55 0 1 .44 1 1 0 .55-.45 1-1 1h-1.5Z"/><path d="M6.77 10.97c-1.22.6-1.78 1.35-1.78 2.02 0 .67.56 1.42 1.77 2.02 1.18.59 2.85.97 4.72.97 .16 0 .32-.01.48-.01l.03.99c-.18 0-.35 0-.52 0 -2 0-3.83-.41-5.18-1.08 -1.32-.66-2.33-1.67-2.33-2.93 0-1.26 1-2.27 2.32-2.93 1.34-.68 3.17-1.08 5.17-1.08 1.99 0 3.82.4 5.17 1.07 1.31.66 2.32 1.66 2.32 2.92 0 1.39-1.24 2.48-2.81 3.14 -.1.04-.24.08-.39.07 -.18-.01-.3-.1-.33-.12 -.01-.01-.01-.01-.01-.01 -.01-.01.05.03.13.04 0 0 .01 0 .02 0l-.28-.96c.11-.04.25-.06.39-.04 .04 0 .08.01.12.02 1.44-.63 2.12-1.45 2.12-2.2 0-.68-.57-1.43-1.78-2.03 -1.19-.6-2.86-.98-4.73-.98 -1.88 0-3.55.38-4.73.97Zm9 4.25s0-.01 0-.01c-.01 0-.01 0-.01 0Zm.27.05s0 0 0 0 -.01-.01-.01-.01Z"/></g></svg>