<svg viewBox="0 0 24 24" xmlns="http://www.w3.org/2000/svg"><g fill-rule="evenodd"><path d="M1.5 2c0-.28.22-.5.5-.5h8c.27 0 .5.22.5.5v5c0 .27-.23.5-.5.5H2c-.28 0-.5-.23-.5-.5V2Zm1 .5v4h7v-4h-7Z"/><path d="M3.5 10c0-.28.22-.5.5-.5h4c.27 0 .5.22.5.5v5c0 .27-.23.5-.5.5H4c-.28 0-.5-.23-.5-.5v-5Zm1 .5v4h3v-4h-3Z"/><path d="M15.5 15c0-.28.22-.5.5-.5h4c.27 0 .5.22.5.5v7c0 .27-.23.5-.5.5h-4c-.28 0-.5-.23-.5-.5v-7Zm1 .5v6h3v-6h-3Z"/><path d="M5.5 10V7h1v3h-1Zm0 12v-7h1v7h-1Z"/><path d="M17.5 15V7h1v8h-1Z"/><path d="M13.5 2c0-.28.22-.5.5-.5h8c.27 0 .5.22.5.5v5c0 .27-.23.5-.5.5h-8c-.28 0-.5-.23-.5-.5V2Zm1 .5v4h7v-4h-7Z"/><path d="M14 15.5H8v-1h6v1Z"/><path d="M11.85 12.14l2.5 2.5c.19.19.19.51 0 .7l-2.5 2.5 -.71-.71 2.14-2.15 -2.15-2.15 .7-.71Z"/></g></svg>