<svg viewBox="0 0 24 24" xmlns="http://www.w3.org/2000/svg"><g fill-rule="evenodd"><path d="M1.5 2c0-.28.22-.5.5-.5h14c.13 0 .25.05.35.14l6 6c.09.09.14.22.14.35v14c0 .27-.23.5-.5.5h-20c-.28 0-.5-.23-.5-.5v-20Zm1 .5v19h19V8.2l-5.71-5.71H2.49Z"/><path d="M15.8 1.53c.18-.08.4-.04.54.1l6 6c.14.14.18.35.1.54 -.08.18-.26.3-.47.3h-6c-.28 0-.5-.23-.5-.5v-6c0-.21.12-.39.3-.47Zm.69 1.66v4.29h4.29l-4.3-4.3Z"/><path d="M13.6 16.1c-1.87 1.86-4.89 1.86-6.75 0l-.71.7c2.25 2.25 5.9 2.25 8.16 0 2.25-2.26 2.25-5.91 0-8.17l-.71.7c1.86 1.86 1.86 4.88 0 6.74Z"/><path d="M7.35 8.14l9.49 9.5c.09.09.14.22.14.35v1.5h-1v-1.3L6.62 8.83l.7-.71Z"/><path d="M5.74 10.56l8.99 5 -.49.87 -9-5 .48-.88Z"/></g></svg>