<svg viewBox="0 0 24 24" xmlns="http://www.w3.org/2000/svg"><g fill-rule="evenodd"><path d="M7.5 7.5c0-.28.22-.5.5-.5h8c.27 0 .5.22.5.5v3c0 .27-.23.5-.5.5H8c-.28 0-.5-.23-.5-.5v-3Zm1 .5v2h7V8h-7Z"/><path d="M11.5 4.5H6v-1h6c.27 0 .5.22.5.5v3.5h-1v-3Z"/><path d="M11.5 15v-4.5h1V15h-1Z"/><path d="M18.5 19h-3v-1h3v1Z"/><path d="M11.64 14.64c.19-.2.51-.2.7 0l3.5 3.5c.19.19.19.51 0 .7l-3.5 3.5c-.2.19-.52.19-.71 0l-3.5-3.5c-.2-.2-.2-.52 0-.71l3.49-3.5ZM9.2 18.49l2.79 2.79 2.79-2.8 -2.8-2.8 -2.8 2.79Z"/><path d="M4 2.5c-.83 0-1.5.67-1.5 1.5 0 .82.67 1.5 1.5 1.5 .82 0 1.5-.68 1.5-1.5 0-.83-.68-1.5-1.5-1.5ZM1.5 4c0-1.39 1.11-2.5 2.5-2.5 1.38 0 2.5 1.11 2.5 2.5 0 1.38-1.12 2.5-2.5 2.5 -1.39 0-2.5-1.12-2.5-2.5Z"/><path d="M20 17c-.83 0-1.5.67-1.5 1.5 0 .82.67 1.5 1.5 1.5 .82 0 1.5-.68 1.5-1.5 0-.83-.68-1.5-1.5-1.5Zm-2.5 1.5c0-1.39 1.11-2.5 2.5-2.5 1.38 0 2.5 1.11 2.5 2.5 0 1.38-1.12 2.5-2.5 2.5 -1.39 0-2.5-1.12-2.5-2.5Z"/><path d="M3.5 9c0-.28.22-.5.5-.5h4v1H4.5V18h4v1H4c-.28 0-.5-.23-.5-.5V9Z"/></g></svg>