<svg viewBox="0 0 24 24" xmlns="http://www.w3.org/2000/svg"><g fill-rule="evenodd"><path d="M1.5 2c0-.28.22-.5.5-.5h14c.13 0 .25.05.35.14l6 6c.09.09.14.22.14.35v14c0 .27-.23.5-.5.5h-20c-.28 0-.5-.23-.5-.5v-20Zm1 .5v19h19V8.2l-5.71-5.71H2.49Z"/><path d="M15.8 1.53c.18-.08.4-.04.54.1l6 6c.14.14.18.35.1.54 -.08.18-.26.3-.47.3h-6c-.28 0-.5-.23-.5-.5v-6c0-.21.12-.39.3-.47Zm.69 1.66v4.29h4.29l-4.3-4.3Z"/><path d="M4.14 14.14l4-4 .7.7 -3.65 3.64 3.64 3.64 -.71.7 -4-4c-.2-.2-.2-.52 0-.71Z"/><path d="M19.85 14.14l-4-4 -.71.7 3.64 3.64 -3.65 3.64 .7.7 4-4c.19-.2.19-.52 0-.71Z"/><path d="M10.5 19.4l2-10 .98.19 -2 10 -.99-.2Z"/></g></svg>