<svg viewBox="0 0 24 24" xmlns="http://www.w3.org/2000/svg"><g fill="#9545ED" fill-rule="evenodd"><path d="M1 4c0-1.66 1.34-3 3-3h16c1.65 0 3 1.34 3 3v2c0 .55-.45 1-1 1H2c-.56 0-1-.45-1-1V4Zm3-1c-.56 0-1 .44-1 1v1h18V4c0-.56-.45-1-1-1H4Z"/><path d="M9.58 14l-4.3-4.3 1.41-1.42 5 5c.39.39.39 1.02 0 1.41l-5.01 5 -1.42-1.42 4.29-4.3Z"/><path d="M19 20h-7v-2h7v2Z"/><path fill="#3747D6" d="M1 4c0-1.66 1.34-3 3-3h16c1.65 0 3 1.34 3 3v16c0 1.65-1.35 3-3 3H4c-1.66 0-3-1.35-3-3V4Zm3-1c-.56 0-1 .44-1 1v16c0 .55.44 1 1 1h16c.55 0 1-.45 1-1V4c0-.56-.45-1-1-1H4Z"/></g></svg>