<svg viewBox="0 0 24 24" xmlns="http://www.w3.org/2000/svg"><g fill="#3747D6" fill-rule="evenodd"><path d="M1 2c0-.56.44-1 1-1h14c.26 0 .51.1.7.29l6 6c.18.18.29.44.29.7v14c0 .55-.45 1-1 1h-20c-.56 0-1-.45-1-1v-20Zm2 1v18h18V8.41l-5.42-5.42H2.99Z"/><g fill="#9545ED"><path d="M15.61 1.07c.37-.16.8-.07 1.08.21l6 6c.28.28.37.71.21 1.08 -.16.37-.52.61-.93.61h-6c-.56 0-1-.45-1-1v-6c0-.41.24-.77.61-.93Zm1.38 3.33v2.58h2.58l-2.59-2.59Z"/><path d="M6 10.5C6 8.56 7.56 7 9.5 7h1c1.93 0 3.5 1.56 3.5 3.5v.5h-2v-.5c0-.83-.68-1.5-1.5-1.5h-1C8.67 9 8 9.67 8 10.5v5c0 .82.67 1.5 1.5 1.5h1c.82 0 1.5-.68 1.5-1.5V15h2v.5c0 1.93-1.57 3.5-3.5 3.5h-1C7.56 19 6 17.43 6 15.5v-5Z"/></g></g></svg>