<svg viewBox="0 0 24 24" xmlns="http://www.w3.org/2000/svg"><g fill="#3747D6" fill-rule="evenodd"><path d="M1 2c0-.56.44-1 1-1h14c.26 0 .51.1.7.29l6 6c.18.18.29.44.29.7v14c0 .55-.45 1-1 1h-20c-.56 0-1-.45-1-1v-20Zm2 1v18h18V8.41l-5.42-5.42H2.99Z"/><g fill="#9545ED"><path d="M15.61 1.07c.37-.16.8-.07 1.08.21l6 6c.28.28.37.71.21 1.08 -.16.37-.52.61-.93.61h-6c-.56 0-1-.45-1-1v-6c0-.41.24-.77.61-.93Zm1.38 3.33v2.58h2.58l-2.59-2.59Z"/><path d="M3.5 12c0-1.66 1.34-3 3-3 1.65 0 3 1.34 3 3v.5h-2V12c0-.56-.45-1-1-1 -.56 0-1 .44-1 1v4c0 .55.44 1 1 1 .55 0 1-.45 1-1v-.5h2v.5c0 1.65-1.35 3-3 3 -1.66 0-3-1.35-3-3v-4Z"/><path d="M11 16v-4h2v4h-2Z"/><path d="M17 16v-4h2v4h-2Z"/><path d="M14 15h-4v-2h4v2Z"/><path d="M20 15h-4v-2h4v2Z"/></g></g></svg>