<svg viewBox="0 0 24 24" xmlns="http://www.w3.org/2000/svg"><g fill="#9545ED" fill-rule="evenodd"><path d="M9 16c0-.56.44-1 1-1h4c.55 0 1 .44 1 1v4c0 .55-.45 1-1 1h-4c-.56 0-1-.45-1-1v-4Zm2 1v2h2v-2h-2Z"/><path d="M4.29 9.29l3-3L8.7 7.7 6.4 9.99l2.29 2.29 -1.42 1.41 -3-3c-.4-.4-.4-1.03 0-1.42Z"/><path d="M19.7 9.29l-3-3L15.28 7.7l2.29 2.29 -2.3 2.29 1.41 1.41 3-3c.39-.4.39-1.03 0-1.42Z"/><g fill="#3747D6"><path d="M1 4c0-.56.44-1 1-1h20c.55 0 1 .44 1 1v12c0 .55-.45 1-1 1H2c-.56 0-1-.45-1-1V4Zm2 1v10h18V5H3Z"/><path d="M18 21H6v-2h12v2Z"/><path d="M9.58 13.1l2.99-7.01 1.83.78 -3 6.99 -1.84-.79Z"/></g></g></svg>