<svg viewBox="0 0 24 24" xmlns="http://www.w3.org/2000/svg"><g fill="#9545ED" fill-rule="evenodd"><path d="M5 10V6h2v4H5Z"/><path d="M14 13H9v-2h5v2Z"/><path d="M16.5 19v-3.5h2V20c0 .55-.45 1-1 1H9v-2h7.5Z"/><g fill="#3747D6"><path d="M2 3.5C2 2.11 3.11 1 4.5 1h3C8.88 1 10 2.11 10 3.5v1C10 5.88 8.88 7 7.5 7h-3C3.11 7 2 5.88 2 4.5v-1ZM4.5 3c-.28 0-.5.22-.5.5v1c0 .27.22.5.5.5h3c.27 0 .5-.23.5-.5v-1c0-.28-.23-.5-.5-.5h-3Z"/><path d="M2 19.5C2 18.11 3.11 17 4.5 17h3c1.38 0 2.5 1.11 2.5 2.5v1c0 1.38-1.12 2.5-2.5 2.5h-3C3.11 23 2 21.88 2 20.5v-1Zm2.5-.5c-.28 0-.5.22-.5.5v1c0 .27.22.5.5.5h3c.27 0 .5-.23.5-.5v-1c0-.28-.23-.5-.5-.5h-3Z"/><path d="M2 10c0-.56.44-1 1-1h6c.55 0 1 .44 1 1v4c0 .55-.45 1-1 1H3c-.56 0-1-.45-1-1v-4Zm2 1v2h4v-2H4Z"/><path d="M16.79 7.79c.39-.4 1.02-.4 1.41 0l3.5 3.5c.39.39.39 1.02 0 1.41l-3.5 3.5c-.4.39-1.03.39-1.42 0l-3.5-3.5c-.4-.4-.4-1.03 0-1.42l3.5-3.51Zm-1.38 4.2l2.08 2.08 2.08-2.09 -2.09-2.09 -2.09 2.08Z"/></g></g></svg>