<svg viewBox="0 0 24 24" xmlns="http://www.w3.org/2000/svg"><g fill="#3747D6" fill-rule="evenodd"><path d="M1 2c0-.56.44-1 1-1h20c.55 0 1 .44 1 1v20c0 .55-.45 1-1 1H2c-.56 0-1-.45-1-1V2Zm2 1v18h18V3H3Z"/><g fill="#9545ED"><path d="M16.5 13c-.28 0-.5.22-.5.5v.5c0 .27.22.5.5.5H18c1.38 0 2.5 1.11 2.5 2.5v.5c0 1.38-1.12 2.5-2.5 2.5h-3v-2h3c.27 0 .5-.23.5-.5V17c0-.28-.23-.5-.5-.5h-1.5c-1.39 0-2.5-1.12-2.5-2.5v-.5c0-1.39 1.11-2.5 2.5-2.5h3v2h-3Z"/><path d="M11.5 17.5V12h2v5.5c0 1.38-1.12 2.5-2.5 2.5H9.5C8.11 20 7 18.88 7 17.5V17h2v.5c0 .27.22.5.5.5H11c.27 0 .5-.23.5-.5Z"/></g></g></svg>