<svg viewBox="0 0 24 24" xmlns="http://www.w3.org/2000/svg"><g fill="#3747D6" fill-rule="evenodd"><path d="M1.25 1.33c.18-.22.46-.34.74-.34h20c.28 0 .55.12.74.33 .18.21.27.5.24.78l-2 16c-.05.33-.25.62-.55.77l-8 4c-.29.14-.62.14-.9 0l-8.01-4c-.3-.15-.51-.44-.55-.78l-2-16c-.04-.29.05-.58.24-.79Zm1.88 1.66l1.79 14.34 7.07 3.53 7.07-3.54 1.79-14.35H3.11Z"/><g fill="#9545ED"><path d="M9.49 16.27V4.99h2v13c0 .35-.19.68-.5.86 -.31.17-.69.18-1 0l-3.5-2 .99-1.74 2 1.14Z"/><path d="M12.5 5c0-.56.44-1 1-1h5v2h-4v4.25l3.28-.73c.31-.07.63.01.87.22 .23.21.36.52.33.84l-.5 5.5c-.04.34-.24.64-.55.8l-4 2 -.9-1.79 3.5-1.76 .32-3.59 -3.17.7c-.3.06-.61-.01-.85-.2s-.38-.48-.38-.78v-6.5Z"/></g></g></svg>