<svg viewBox="0 0 24 24" xmlns="http://www.w3.org/2000/svg"><g fill="#3747D6" fill-rule="evenodd"><path d="M4 4c0-1.66 1.34-3 3-3h10c1.65 0 3 1.34 3 3v16c0 1.65-1.35 3-3 3H7c-1.66 0-3-1.35-3-3V4Zm3-1c-.56 0-1 .44-1 1v16c0 .55.44 1 1 1h10c.55 0 1-.45 1-1V4c0-.56-.45-1-1-1H7Z"/><path d="M14 20.5h-4v-2h4v2Z"/><g fill="#9545ED"><path d="M6.5 5c0-.56.44-1 1-1h3c.55 0 1 .44 1 1v3c0 .55-.45 1-1 1h-3c-.56 0-1-.45-1-1V5Zm2 1v1h1V6h-1Z"/><path d="M12.5 5c0-.56.44-1 1-1h3c.55 0 1 .44 1 1v3c0 .55-.45 1-1 1h-3c-.56 0-1-.45-1-1V5Zm2 1v1h1V6h-1Z"/><path d="M6.5 11c0-.56.44-1 1-1h3c.55 0 1 .44 1 1v3c0 .55-.45 1-1 1h-3c-.56 0-1-.45-1-1v-3Zm2 1v1h1v-1h-1Z"/></g></g></svg>