<svg viewBox="0 0 24 24" xmlns="http://www.w3.org/2000/svg"><g fill="#3747D6" fill-rule="evenodd"><path d="M1 4c0-1.66 1.34-3 3-3h16c1.65 0 3 1.34 3 3v16c0 1.65-1.35 3-3 3H4c-1.66 0-3-1.35-3-3V4Zm3-1c-.56 0-1 .44-1 1v16c0 .55.44 1 1 1h16c.55 0 1-.45 1-1V4c0-.56-.45-1-1-1H4Z"/><g fill="#9545ED"><path d="M1 4c0-1.66 1.34-3 3-3h16c1.65 0 3 1.34 3 3v2c0 .55-.45 1-1 1H2c-.56 0-1-.45-1-1V4Zm3-1c-.56 0-1 .44-1 1v1h18V4c0-.56-.45-1-1-1H4Z"/><path d="M9 14c0-1.66 1.34-3 3-3h2c.55 0 1 .44 1 1v4c0 .55-.45 1-1 1h-2c-1.66 0-3-1.35-3-3Zm3-1c-.56 0-1 .44-1 1 0 .55.44 1 1 1h1v-2h-1Z"/><path d="M6 13c0-2.77 2.23-5 5-5h2c2.76 0 5 2.23 5 5 0 2.2-1.8 4-4 4v-2c1.1 0 2-.9 2-2 0-1.66-1.35-3-3-3h-2c-1.66 0-3 1.34-3 3v2c0 1.65 1.34 3 3 3h5v2h-5c-2.77 0-5-2.24-5-5v-2Z"/></g></g></svg>