<svg viewBox="0 0 24 24" xmlns="http://www.w3.org/2000/svg"><g fill="#3747D6" fill-rule="evenodd"><path d="M1 4c0-1.66 1.34-3 3-3h16c1.65 0 3 1.34 3 3v16c0 1.65-1.35 3-3 3H4c-1.66 0-3-1.35-3-3V4Zm3-1c-.56 0-1 .44-1 1v16c0 .55.44 1 1 1h16c.55 0 1-.45 1-1V4c0-.56-.45-1-1-1H4Z"/><path d="M11.5 17.5h3v2h-4c-.56 0-1-.45-1-1v-3c0-.56.44-1 1-1h5v-4h2v5c0 .55-.45 1-1 1h-5v1Z"/><g fill="#9545ED"><path d="M1 4c0-1.66 1.34-3 3-3h16c1.65 0 3 1.34 3 3v2c0 .55-.45 1-1 1H2c-.56 0-1-.45-1-1V4Zm3-1c-.56 0-1 .44-1 1v1h18V4c0-.56-.45-1-1-1H4Z"/><path d="M12.5 10.5h-3v-2h4c.55 0 1 .44 1 1v3c0 .55-.45 1-1 1h-5v4h-2v-5c0-.56.44-1 1-1h5v-1Z"/></g></g></svg>