<svg viewBox="0 0 24 24" xmlns="http://www.w3.org/2000/svg"><g fill="#9545ED" fill-rule="evenodd"><path d="M11 5H6V3h6c.55 0 1 .44 1 1v3.5h-2V5Z"/><path d="M11 15v-4.5h2V15h-2Z"/><path d="M18.5 19.5h-3v-2h3v2Z"/><path d="M3 9c0-.56.44-1 1-1h4v2H5v7.5h3.5v2H4c-.56 0-1-.45-1-1V9Z"/><g fill="#3747D6"><path d="M7 7.5c0-.56.44-1 1-1h8c.55 0 1 .44 1 1v3c0 .55-.45 1-1 1H8c-.56 0-1-.45-1-1v-3Zm2 1v1h6v-1H9Z"/><path d="M11.29 14.29c.39-.4 1.02-.4 1.41 0l3.5 3.5c.39.39.39 1.02 0 1.41l-3.5 3.5c-.4.39-1.03.39-1.42 0l-3.51-3.5c-.4-.4-.4-1.03 0-1.42l3.5-3.5Zm-1.38 4.2l2.08 2.08 2.08-2.09 -2.09-2.09 -2.09 2.08Z"/><path d="M4 3c-.56 0-1 .44-1 1 0 .55.44 1 1 1 .55 0 1-.45 1-1 0-.56-.45-1-1-1ZM1 4c0-1.66 1.34-3 3-3 1.65 0 3 1.34 3 3 0 1.65-1.35 3-3 3C2.34 7 1 5.65 1 4Z"/><path d="M20 17.5c-.56 0-1 .44-1 1 0 .55.44 1 1 1 .55 0 1-.45 1-1 0-.56-.45-1-1-1Zm-3 1c0-1.66 1.34-3 3-3 1.65 0 3 1.34 3 3 0 1.65-1.35 3-3 3 -1.66 0-3-1.35-3-3Z"/></g></g></svg>