<svg viewBox="0 0 24 24" xmlns="http://www.w3.org/2000/svg"><g fill-rule="evenodd"><path d="M2 1.25c.41 0 .75.33.75.75v18c0 .69.55 1.25 1.25 1.25h18c.41 0 .75.33.75.75 0 .41-.34.75-.75.75H4c-1.52 0-2.75-1.24-2.75-2.75V2c0-.42.33-.75.75-.75Z"/><path d="M10.75 3c0-.42-.34-.75-.75-.75H5c-.42 0-.75.33-.75.75v10c0 .41.33.75.75.75 .41 0 .75-.34.75-.75V3.75h3.5v14.5h-3.5V17c0-.42-.34-.75-.75-.75 -.42 0-.75.33-.75.75v2c0 .41.33.75.75.75h5c.41 0 .75-.34.75-.75V3Z"/><path d="M15.75 7c0-.42-.34-.75-.75-.75h-5c-.42 0-.75.33-.75.75v12c0 .41.33.75.75.75h5c.41 0 .75-.34.75-.75V7Zm-1.5.75v10.5h-3.5V7.75h3.5Z"/><path d="M20.75 12c0-.42-.34-.75-.75-.75h-5c-.42 0-.75.33-.75.75v7c0 .41.33.75.75.75h5c.41 0 .75-.34.75-.75v-7Zm-1.5.75v5.5h-3.5v-5.5h3.5Z"/></g></svg>