<svg viewBox="0 0 24 24" xmlns="http://www.w3.org/2000/svg"><g fill-rule="evenodd"><path d="M7.25 5c0-1.52 1.23-2.75 2.75-2.75h4c1.51 0 2.75 1.23 2.75 2.75v1c0 .41-.34.75-.75.75H8c-.42 0-.75-.34-.75-.75V5ZM10 3.75c-.7 0-1.25.55-1.25 1.25v.25h6.5V5c0-.7-.56-1.25-1.25-1.25h-4Z"/><path d="M1.25 8c0-1.52 1.23-2.75 2.75-2.75h16c1.51 0 2.75 1.23 2.75 2.75v11c0 1.51-1.24 2.75-2.75 2.75H9c-.42 0-.75-.34-.75-.75 0-.42.33-.75.75-.75h11c.69 0 1.25-.56 1.25-1.25V8c0-.7-.56-1.25-1.25-1.25H4c-.7 0-1.25.55-1.25 1.25v11c0 .69.55 1.25 1.25 1.25h1c.41 0 .75.33.75.75 0 .41-.34.75-.75.75H4c-1.52 0-2.75-1.24-2.75-2.75V8Z"/><path d="M1.25 8c0-1.52 1.23-2.75 2.75-2.75h16c1.51 0 2.75 1.23 2.75 2.75v5c0 .41-.34.75-.75.75h-7c-.42 0-.75-.34-.75-.75 0-.42.33-.75.75-.75h6.25V8c0-.7-.56-1.25-1.25-1.25H4c-.7 0-1.25.55-1.25 1.25v4.25H9c.41 0 .75.33.75.75 0 .41-.34.75-.75.75H2c-.42 0-.75-.34-.75-.75V8Z"/><path d="M8.74 13.53c-.35-1.71.96-3.29 2.69-3.29h1.12c1.73 0 3.03 1.58 2.69 3.28l-.53 2.6c-.08.35-.38.6-.74.6H9.96c-.36 0-.67-.26-.74-.61l-.53-2.61Zm2.69-1.79c-.79 0-1.39.72-1.23 1.49l.4 2h2.77l.4-2.01c.15-.78-.44-1.5-1.23-1.5h-1.13Z"/></g></svg>