<svg viewBox="0 0 24 24" xmlns="http://www.w3.org/2000/svg"><g fill-rule="evenodd"><path d="M7.25 5c0-1.52 1.23-2.75 2.75-2.75h4c1.51 0 2.75 1.23 2.75 2.75v1c0 .41-.34.75-.75.75H8c-.42 0-.75-.34-.75-.75V5ZM10 3.75c-.7 0-1.25.55-1.25 1.25v.25h6.5V5c0-.7-.56-1.25-1.25-1.25h-4Z"/><path d="M1.25 8c0-1.52 1.23-2.75 2.75-2.75h16c1.51 0 2.75 1.23 2.75 2.75v11c0 1.51-1.24 2.75-2.75 2.75H4c-1.52 0-2.75-1.24-2.75-2.75V8ZM4 6.75c-.7 0-1.25.55-1.25 1.25v11c0 .69.55 1.25 1.25 1.25h16c.69 0 1.25-.56 1.25-1.25V8c0-.7-.56-1.25-1.25-1.25H4Z"/><path d="M1.25 8c0-1.52 1.23-2.75 2.75-2.75h16c1.51 0 2.75 1.23 2.75 2.75v3c0 .33-.22.62-.54.71l-3 .9c-.4.11-.82-.11-.94-.51s.1-.82.5-.94l2.46-.74V7.97c0-.7-.56-1.25-1.25-1.25h-16c-.7 0-1.25.55-1.25 1.25v2.442l9.25 2.77 2.78-.84c.39-.12.81.1.93.5 .11.39-.11.81-.51.93l-3 .9c-.15.04-.3.04-.44 0l-10-3c-.32-.1-.54-.39-.54-.72v-3Z"/><path d="M12 11.25c.41 0 .75.33.75.75v4c0 .41-.34.75-.75.75 -.42 0-.75-.34-.75-.75v-4c0-.42.33-.75.75-.75Z"/></g></svg>