<svg viewBox="0 0 24 24" xmlns="http://www.w3.org/2000/svg"><g fill-rule="evenodd"><path d="M1.25 7.5c0-1.52 1.23-2.75 2.75-2.75h16c1.51 0 2.75 1.23 2.75 2.75v9c0 1.51-1.24 2.75-2.75 2.75h-2c-.42 0-.75-.34-.75-.75 0-.42.33-.75.75-.75h2c.69 0 1.25-.56 1.25-1.25v-9c0-.7-.56-1.25-1.25-1.25H4c-.7 0-1.25.55-1.25 1.25v9c0 .69.55 1.25 1.25 1.25h10c.41 0 .75.33.75.75 0 .41-.34.75-.75.75H4c-1.52 0-2.75-1.24-2.75-2.75v-9Z"/><path d="M8 9.75c-.42 0-.75.33-.75.75 0 .41.33.75.75.75 .41 0 .75-.34.75-.75 0-.42-.34-.75-.75-.75Zm-2.25.75c0-1.25 1-2.25 2.25-2.25 1.24 0 2.25 1 2.25 2.25 0 1.24-1.01 2.25-2.25 2.25 -1.25 0-2.25-1.01-2.25-2.25Z"/><path d="M7.99 12.75c-.86 0-1.6.47-1.98 1.17 -.03.04-.03.06-.03.07 0 0 0 0 0 0s0 .03.04.07c.07.08.24.18.45.18h3c.21 0 .37-.1.45-.19 .03-.05.04-.07.04-.08 0-.01 0-.01 0-.01 0-.01 0-.03-.03-.08 -.39-.7-1.13-1.18-1.98-1.18Zm-3.3.45c.63-1.17 1.87-1.96 3.29-1.96s2.65.79 3.29 1.95c.36.66.21 1.36-.2 1.83 -.39.44-.98.7-1.6.7h-3c-.62 0-1.22-.27-1.6-.71 -.41-.48-.57-1.17-.2-1.84Z"/><path d="M13.25 10.5c0-.42.33-.75.75-.75h5c.41 0 .75.33.75.75 0 .41-.34.75-.75.75h-5c-.42 0-.75-.34-.75-.75Z"/><path d="M13.25 13.5c0-.42.33-.75.75-.75h5c.41 0 .75.33.75.75 0 .41-.34.75-.75.75h-5c-.42 0-.75-.34-.75-.75Z"/></g></svg>