<svg viewBox="0 0 24 24" xmlns="http://www.w3.org/2000/svg"><g fill-rule="evenodd"><path d="M13.713 1.3c.28-.12.6-.06.81.16l6 6c.21.21.27.53.16.81 -.12.28-.39.46-.7.46h-3c-2.08 0-3.75-1.68-3.75-3.75v-3c0-.31.18-.58.46-.7Zm1.03 2.5v1.18c0 1.24 1 2.25 2.25 2.25h1.18l-3.44-3.44Z"/><path d="M7 2.75c-1.25 0-2.25 1-2.25 2.25v9c0 .41-.34.75-.75.75 -.42 0-.75-.34-.75-.75V5c0-2.08 1.67-3.75 3.75-3.75h7c.19 0 .38.07.53.21l6 6c.14.14.21.33.21.53v11c0 2.07-1.68 3.75-3.75 3.75h-10c-2.08 0-3.75-1.68-3.75-3.75v-1c0-.42.33-.75.75-.75 .41 0 .75.33.75.75v1c0 1.24 1 2.25 2.25 2.25h10c1.24 0 2.25-1.01 2.25-2.25V8.3l-5.57-5.57H6.98Z"/><path d="M6.25 6c0-.42.33-.75.75-.75h4c.41 0 .75.33.75.75 0 .41-.34.75-.75.75H7c-.42 0-.75-.34-.75-.75Z"/><path d="M6.25 9c0-.42.33-.75.75-.75h5c.41 0 .75.33.75.75 0 .41-.34.75-.75.75H7c-.42 0-.75-.34-.75-.75Z"/><path d="M17.45 13.4c.33.24.39.71.15 1.05l-3 4c-.14.17-.33.28-.55.29 -.22.01-.43-.07-.59-.22l-3.39-3.39 -2.49 3.3c-.25.33-.72.39-1.05.15 -.34-.25-.4-.72-.15-1.05l3-4c.13-.18.32-.29.54-.3 .21-.02.42.06.58.21l3.38 3.38 2.48-3.31c.24-.34.71-.4 1.05-.15Z"/></g></svg>