<svg viewBox="0 0 24 24" xmlns="http://www.w3.org/2000/svg"><g fill-rule="evenodd"><path d="M6 14.75c-.7 0-1.25.55-1.25 1.25 0 .69.55 1.25 1.25 1.25 .69 0 1.25-.56 1.25-1.25 0-.7-.56-1.25-1.25-1.25ZM3.25 16c0-1.52 1.23-2.75 2.75-2.75 1.51 0 2.75 1.23 2.75 2.75 0 1.51-1.24 2.75-2.75 2.75 -1.52 0-2.75-1.24-2.75-2.75Z"/><path d="M18 14.75c-.7 0-1.25.55-1.25 1.25 0 .69.55 1.25 1.25 1.25 .69 0 1.25-.56 1.25-1.25 0-.7-.56-1.25-1.25-1.25ZM15.25 16c0-1.52 1.23-2.75 2.75-2.75 1.51 0 2.75 1.23 2.75 2.75 0 1.51-1.24 2.75-2.75 2.75 -1.52 0-2.75-1.24-2.75-2.75Z"/><path d="M2.25 21c0-2.08 1.67-3.75 3.75-3.75 2.07 0 3.75 1.67 3.75 3.75 0 .96-.79 1.75-1.75 1.75H4c-.97 0-1.75-.79-1.75-1.75ZM6 18.75c-1.25 0-2.25 1-2.25 2.25 0 .13.11.25.25.25h4c.13 0 .25-.12.25-.25 0-1.25-1.01-2.25-2.25-2.25Z"/><path d="M14.25 21c0-2.08 1.67-3.75 3.75-3.75 2.07 0 3.75 1.67 3.75 3.75 0 .96-.79 1.75-1.75 1.75h-4c-.97 0-1.75-.79-1.75-1.75ZM18 18.75c-1.25 0-2.25 1-2.25 2.25 0 .13.11.25.25.25h4c.13 0 .25-.12.25-.25 0-1.25-1.01-2.25-2.25-2.25Z"/><path d="M1.25 4c0-1.52 1.23-2.75 2.75-2.75h2c.41 0 .75.33.75.75 0 .41-.34.75-.75.75H4c-.7 0-1.25.55-1.25 1.25v4c0 .69.55 1.25 1.25 1.25h1c.19 0 .38.07.53.21l.46.46 .46-.47c.14-.15.33-.22.53-.22h10c.19 0 .38.07.53.21l.46.46 .46-.47c.14-.15.33-.22.53-.22h1c.69 0 1.25-.56 1.25-1.25v-4c0-.7-.56-1.25-1.25-1.25h-10c-.42 0-.75-.34-.75-.75 0-.42.33-.75.75-.75h10c1.51 0 2.75 1.23 2.75 2.75v4c0 1.51-1.24 2.75-2.75 2.75h-.69l-.79.78c-.15.14-.34.21-.54.21s-.39-.08-.54-.22l-.79-.79H7.23l-.79.78c-.15.14-.34.21-.54.21s-.39-.08-.54-.22l-.79-.79h-.69c-1.52 0-2.75-1.24-2.75-2.75v-4Z"/><path d="M4.25 6c0-.42.33-.75.75-.75h2c.41 0 .75.33.75.75 0 .41-.34.75-.75.75H5c-.42 0-.75-.34-.75-.75Z"/><path d="M9.25 6c0-.42.33-.75.75-.75h9c.41 0 .75.33.75.75 0 .41-.34.75-.75.75h-9c-.42 0-.75-.34-.75-.75Z"/></g></svg>