<svg viewBox="0 0 24 24" xmlns="http://www.w3.org/2000/svg"><g fill-rule="evenodd"><path d="M12 2.75c-.42 0-.75.33-.75.75 0 .41.33.75.75.75 .41 0 .75-.34.75-.75 0-.42-.34-.75-.75-.75Zm-2.25.75c0-1.25 1-2.25 2.25-2.25 1.24 0 2.25 1 2.25 2.25 0 1.24-1.01 2.25-2.25 2.25 -1.25 0-2.25-1.01-2.25-2.25Z"/><path d="M5 16.25c-.42 0-.75.33-.75.75 0 .41.33.75.75.75 .41 0 .75-.34.75-.75 0-.42-.34-.75-.75-.75ZM2.75 17c0-1.25 1-2.25 2.25-2.25 1.24 0 2.25 1 2.25 2.25 0 1.24-1.01 2.25-2.25 2.25 -1.25 0-2.25-1.01-2.25-2.25Z"/><path d="M19 16.25c-.42 0-.75.33-.75.75 0 .41.33.75.75.75 .41 0 .75-.34.75-.75 0-.42-.34-.75-.75-.75Zm-2.25.75c0-1.25 1-2.25 2.25-2.25 1.24 0 2.25 1 2.25 2.25 0 1.24-1.01 2.25-2.25 2.25 -1.25 0-2.25-1.01-2.25-2.25Z"/><path d="M9.87 7.75h4.24c-.31-.88-1.15-1.5-2.122-1.5 -.98 0-1.82.62-2.13 1.5Zm-1.63.75c0-2.08 1.67-3.75 3.75-3.75 2.07 0 3.75 1.67 3.75 3.75 0 .41-.34.75-.75.75h-6c-.42 0-.75-.34-.75-.75Z"/><path d="M2.87 21.25h4.24c-.31-.88-1.15-1.5-2.13-1.5s-1.82.62-2.13 1.5ZM1.24 22c0-2.08 1.67-3.75 3.75-3.75 2.07 0 3.75 1.67 3.75 3.75 0 .41-.34.75-.75.75h-6c-.42 0-.75-.34-.75-.75Z"/><path d="M16.878 21.25h.12c.41 0 .75.33.75.75 0 .41-.34.75-.75.75h-1c-.42 0-.75-.34-.75-.75 0-2.08 1.67-3.75 3.75-3.75 2.07 0 3.75 1.67 3.75 3.75 0 .41-.34.75-.75.75h-1c-.42 0-.75-.34-.75-.75 0-.42.33-.75.75-.75h.12c-.31-.88-1.15-1.5-2.122-1.5 -.98 0-1.82.62-2.122 1.5Z"/><path d="M12 12.75c-.7 0-1.25.55-1.25 1.25 0 .69.55 1.25 1.25 1.25 .69 0 1.25-.56 1.25-1.25 0-.7-.56-1.25-1.25-1.25ZM9.25 14c0-1.52 1.23-2.75 2.75-2.75 1.51 0 2.75 1.23 2.75 2.75 0 1.51-1.24 2.75-2.75 2.75 -1.52 0-2.75-1.24-2.75-2.75Z"/><path d="M12 7.75c.41 0 .75.33.75.75V12c0 .41-.34.75-.75.75 -.42 0-.75-.34-.75-.75V8.5c0-.42.33-.75.75-.75Z"/><path d="M10.68 14.7c.16.38-.02.82-.4.98l-3.5 1.49c-.39.16-.83-.02-.99-.4 -.17-.39.01-.83.39-.99l3.5-1.5c.38-.17.82.01.98.39Z"/><path d="M13.31 14.7c-.17.38.01.82.39.98l3.5 1.49c.38.16.82-.02.98-.4 .16-.39-.02-.83-.4-.99l-3.5-1.5c-.39-.17-.83.01-.99.39Z"/></g></svg>