<svg viewBox="0 0 24 24" xmlns="http://www.w3.org/2000/svg"><g fill-rule="evenodd"><path d="M6 2.75c-1.25 0-2.25 1-2.25 2.25v9c0 .41-.34.75-.75.75 -.42 0-.75-.34-.75-.75V5c0-2.08 1.67-3.75 3.75-3.75h10c2.07 0 3.75 1.67 3.75 3.75v6c0 .41-.34.75-.75.75 -.42 0-.75-.34-.75-.75V5c0-1.25-1.01-2.25-2.25-2.25H6Zm-3 14.5c.41 0 .75.33.75.75v1c0 1.24 1 2.25 2.25 2.25h4c.41 0 .75.33.75.75 0 .41-.34.75-.75.75H6c-2.08 0-3.75-1.68-3.75-3.75v-1c0-.42.33-.75.75-.75Z"/><path d="M17.96 13.77c.69-.7 1.82-.7 2.52 0l.73.73c.69.69.69 1.82 0 2.52 0 0 0 0 0 0l-5.14 5.13c-.12.11-.27.18-.43.21l-2.57.36c-.24.03-.47-.05-.64-.22 -.17-.17-.25-.41-.22-.64l.36-2.57c.02-.17.09-.31.21-.43l5.13-5.14Zm-.94 3.05l-2.96 2.95 -.19 1.32 1.32-.19 2.95-2.96L17 16.8Zm2.19.07l.93-.94c.11-.12.11-.3 0-.41l-.74-.74c-.12-.12-.3-.12-.41 0 -.01 0 0 0 0 0l-.94.93 1.13 1.13Z"/><path d="M6.25 7c0-.42.33-.75.75-.75h8c.41 0 .75.33.75.75 0 .41-.34.75-.75.75H7c-.42 0-.75-.34-.75-.75Z"/><path d="M6.25 12c0-.42.33-.75.75-.75h8c.41 0 .75.33.75.75 0 .41-.34.75-.75.75H7c-.42 0-.75-.34-.75-.75Z"/><path d="M6.25 17c0-.42.33-.75.75-.75h4c.41 0 .75.33.75.75 0 .41-.34.75-.75.75H7c-.42 0-.75-.34-.75-.75Z"/></g></svg>