<svg viewBox="0 0 24 24" xmlns="http://www.w3.org/2000/svg"><g fill-rule="evenodd"><path d="M1.25 6c0-1.52 1.23-2.75 2.75-2.75h16c1.51 0 2.75 1.23 2.75 2.75v2c0 .41-.34.75-.75.75H2c-.42 0-.75-.34-.75-.75V6ZM4 4.75c-.7 0-1.25.55-1.25 1.25v1.25h18.5V6c0-.7-.56-1.25-1.25-1.25H4Z"/><path d="M1.25 8c0-.42.33-.75.75-.75h20c.41 0 .75.33.75.75v2c0 .41-.34.75-.75.75 -.42 0-.75-.34-.75-.75V8.75H2.75V10c0 .41-.34.75-.75.75 -.42 0-.75-.34-.75-.75V8ZM2 13.25c.41 0 .75.33.75.75v6c0 .69.55 1.25 1.25 1.25h6c.41 0 .75.33.75.75 0 .41-.34.75-.75.75H4c-1.52 0-2.75-1.24-2.75-2.75v-6c0-.42.33-.75.75-.75Z"/><path d="M12 1.25c.41 0 .75.33.75.75v3c0 .41-.34.75-.75.75 -.42 0-.75-.34-.75-.75V2c0-.42.33-.75.75-.75Z"/><path d="M17 1.25c.41 0 .75.33.75.75v3c0 .41-.34.75-.75.75 -.42 0-.75-.34-.75-.75V2c0-.42.33-.75.75-.75Z"/><path d="M7 1.25c.41 0 .75.33.75.75v3c0 .41-.34.75-.75.75 -.42 0-.75-.34-.75-.75V2c0-.42.33-.75.75-.75Z"/><path d="M16.5 11.75c-2.63 0-4.75 2.12-4.75 4.75 0 2.62 2.12 4.75 4.75 4.75 2.62 0 4.75-2.13 4.75-4.75 0-2.63-2.13-4.75-4.75-4.75Zm-6.25 4.75c0-3.46 2.79-6.25 6.25-6.25 3.45 0 6.25 2.79 6.25 6.25 0 3.45-2.8 6.25-6.25 6.25 -3.46 0-6.25-2.8-6.25-6.25Z"/><path d="M16.5 13.25c.41 0 .75.33.75.75v2.25H19c.41 0 .75.33.75.75 0 .41-.34.75-.75.75h-2.5c-.42 0-.75-.34-.75-.75v-3c0-.42.33-.75.75-.75Z"/></g></svg>