<svg viewBox="0 0 24 24" xmlns="http://www.w3.org/2000/svg"><g fill-rule="evenodd"><path d="M12 6.75C9.1 6.75 6.75 9.1 6.75 12c0 2.6 1.89 4.76 4.37 5.17 .4.06.68.45.61.86 -.07.4-.46.68-.87.61 -3.2-.54-5.63-3.32-5.63-6.66 0-3.73 3.02-6.75 6.75-6.75 3.72 0 6.75 3.02 6.75 6.75 0 2.49-1.36 4.68-3.38 5.84 -.36.2-.82.08-1.03-.28 -.21-.36-.09-.82.27-1.03 1.57-.91 2.62-2.61 2.62-4.55 0-2.9-2.36-5.25-5.25-5.25Z"/><path d="M10.25 10.86c0-.9.72-1.62 1.61-1.62h1.63c.41 0 .75.33.75.75 0 .41-.34.75-.75.75h-1.64c-.07 0-.12.05-.12.11 0 .03.01.07.05.09l1.22.81c.45.3.72.8.72 1.34 0 .89-.73 1.61-1.62 1.61h-1.64c-.42 0-.75-.34-.75-.75 0-.42.33-.75.75-.75h1.63c.06 0 .11-.06.11-.12 0-.04-.02-.08-.06-.1l-1.23-.82c-.46-.31-.73-.81-.73-1.35Z"/><path d="M12 13.25c.41 0 .75.33.75.75v2c0 .41-.34.75-.75.75 -.42 0-.75-.34-.75-.75v-2c0-.42.33-.75.75-.75Z"/><path d="M12 7.25c.41 0 .75.33.75.75v2c0 .41-.34.75-.75.75 -.42 0-.75-.34-.75-.75V8c0-.42.33-.75.75-.75Z"/><path d="M1.25 2c0-.42.33-.75.75-.75h5c.41 0 .75.33.75.75 0 .41-.34.75-.75.75H3.81l4.21 4.21c.29.29.29.76 0 1.06 -.3.29-.77.29-1.07 0L2.73 3.8v3.18c0 .41-.34.75-.75.75 -.42 0-.75-.34-.75-.75v-5Z"/><path d="M1.25 22c0 .41.33.75.75.75h5c.41 0 .75-.34.75-.75 0-.42-.34-.75-.75-.75H3.81l4.21-4.22c.29-.3.29-.77 0-1.07 -.3-.3-.77-.3-1.07 0l-4.22 4.21v-3.19c0-.42-.34-.75-.75-.75 -.42 0-.75.33-.75.75v5Z"/><path d="M22.75 2c0-.42-.34-.75-.75-.75h-5c-.42 0-.75.33-.75.75 0 .41.33.75.75.75h3.18l-4.22 4.21c-.3.29-.3.76 0 1.06 .29.29.76.29 1.06 0l4.21-4.22v3.18c0 .41.33.75.75.75 .41 0 .75-.34.75-.75v-5Z"/><path d="M22.75 22c0 .41-.34.75-.75.75h-5c-.42 0-.75-.34-.75-.75 0-.42.33-.75.75-.75h3.18l-4.22-4.22c-.3-.3-.3-.77 0-1.07 .29-.3.76-.3 1.06 0l4.21 4.21v-3.19c0-.42.33-.75.75-.75 .41 0 .75.33.75.75v5Z"/></g></svg>