<svg viewBox="0 0 24 24" xmlns="http://www.w3.org/2000/svg"><g fill-rule="evenodd"><path d="M18.46 8.53c.29.29.76.29 1.06 0l3-3c.29-.3.29-.77 0-1.07 -.3-.3-.77-.3-1.07 0l-1.72 1.71V1.98c0-.42-.34-.75-.75-.75 -.42 0-.75.33-.75.75v4.18l-1.72-1.72c-.3-.3-.77-.3-1.07 0 -.3.29-.3.76 0 1.06l3 3Z"/><path d="M1.25 11c0-.97.78-1.75 1.75-1.75h9c.41 0 .75.33.75.75 0 .41-.34.75-.75.75H3c-.14 0-.25.11-.25.25v10c0 .13.11.25.25.25h18c.13 0 .25-.12.25-.25V11c0-.14-.12-.25-.25-.25h-5c-.42 0-.75-.34-.75-.75 0-.42.33-.75.75-.75h5c.96 0 1.75.78 1.75 1.75v10c0 .96-.79 1.75-1.75 1.75H3c-.97 0-1.75-.79-1.75-1.75V11Z"/><path d="M10.25 14.86c0-.9.72-1.62 1.61-1.62h1.63c.41 0 .75.33.75.75 0 .41-.34.75-.75.75h-1.64c-.07 0-.12.05-.12.11 0 .03.01.07.05.09l1.22.81c.45.3.72.8.72 1.34 0 .89-.73 1.61-1.62 1.61h-1.64c-.42 0-.75-.34-.75-.75 0-.42.33-.75.75-.75h1.63c.06 0 .11-.06.11-.12 0-.04-.02-.08-.06-.1l-1.23-.82c-.46-.31-.73-.81-.73-1.35Z"/><path d="M12 17.25c.41 0 .75.33.75.75v2c0 .41-.34.75-.75.75 -.42 0-.75-.34-.75-.75v-2c0-.42.33-.75.75-.75Z"/><path d="M12 11.25c.41 0 .75.33.75.75v2c0 .41-.34.75-.75.75 -.42 0-.75-.34-.75-.75v-2c0-.42.33-.75.75-.75Z"/><path d="M3 10.75c-.14 0-.25.11-.25.25v2.25H4c.69 0 1.25-.56 1.25-1.25v-1.25H3ZM1.25 11c0-.97.78-1.75 1.75-1.75h3c.41 0 .75.33.75.75v2c0 1.51-1.24 2.75-2.75 2.75H2c-.42 0-.75-.34-.75-.75v-3Z"/><path d="M1.25 18c0-.42.33-.75.75-.75h2c1.51 0 2.75 1.23 2.75 2.75v2c0 .41-.34.75-.75.75H3c-.97 0-1.75-.79-1.75-1.75v-3Zm1.5.75V21c0 .13.11.25.25.25h2.25V20c0-.7-.56-1.25-1.25-1.25H2.75Z"/><path d="M17.25 10c0-.42.33-.75.75-.75h3c.96 0 1.75.78 1.75 1.75v3c0 .41-.34.75-.75.75h-2c-1.52 0-2.75-1.24-2.75-2.75v-2Zm1.5.75V12c0 .69.55 1.25 1.25 1.25h1.25V11c0-.14-.12-.25-.25-.25h-2.25Z"/><path d="M20 18.75c-.7 0-1.25.55-1.25 1.25v1.25H21c.13 0 .25-.12.25-.25v-2.25H20ZM17.25 20c0-1.52 1.23-2.75 2.75-2.75h2c.41 0 .75.33.75.75v3c0 .96-.79 1.75-1.75 1.75h-3c-.42 0-.75-.34-.75-.75v-2Z"/></g></svg>