<svg viewBox="0 0 24 24" xmlns="http://www.w3.org/2000/svg"><g fill-rule="evenodd"><path d="M12 13.75c-.7 0-1.25.55-1.25 1.25 0 .69.55 1.25 1.25 1.25 .69 0 1.25-.56 1.25-1.25 0-.7-.56-1.25-1.25-1.25ZM9.25 15c0-1.52 1.23-2.75 2.75-2.75 1.51 0 2.75 1.23 2.75 2.75 0 1.51-1.24 2.75-2.75 2.75 -1.52 0-2.75-1.24-2.75-2.75Z"/><path d="M8.25 20c0-2.08 1.67-3.75 3.75-3.75 2.07 0 3.75 1.67 3.75 3.75v1c0 .96-.79 1.75-1.75 1.75 -.42 0-.75-.34-.75-.75 0-.42.33-.75.75-.75 .13 0 .25-.12.25-.25v-1c0-1.25-1.01-2.25-2.25-2.25 -1.25 0-2.25 1-2.25 2.25v1c0 .13.11.25.25.25 .41 0 .75.33.75.75 0 .41-.34.75-.75.75 -.97 0-1.75-.79-1.75-1.75v-1Z"/><path d="M17.25 7c0-.42.33-.75.75-.75h4c.41 0 .75.33.75.75v4c0 .41-.34.75-.75.75 -.42 0-.75-.34-.75-.75V8.81l-3.72 3.71c-.3.29-.77.29-1.07 0 -.3-.3-.3-.77 0-1.07l3.71-3.72h-2.19c-.42 0-.75-.34-.75-.75Z"/><path d="M6.75 7c0-.42-.34-.75-.75-.75H2c-.42 0-.75.33-.75.75v4c0 .41.33.75.75.75 .41 0 .75-.34.75-.75V8.81l3.71 3.71c.29.29.76.29 1.06 0 .29-.3.29-.77 0-1.07L3.8 7.73h2.18c.41 0 .75-.34.75-.75Z"/><path d="M11.46 1.46c.29-.3.76-.3 1.06 0l3 3c.29.29.29.76 0 1.06 -.3.29-.77.29-1.07 0L12.73 3.8v5.18c0 .41-.34.75-.75.75 -.42 0-.75-.34-.75-.75V3.79L9.51 5.5c-.3.29-.77.29-1.07 0 -.3-.3-.3-.77 0-1.07l3-3Z"/></g></svg>