<svg viewBox="0 0 24 24" xmlns="http://www.w3.org/2000/svg"><g fill-rule="evenodd"><path d="M1.25 3.5c0-1.25 1-2.25 2.25-2.25H15c.41 0 .75.33.75.75 0 .41-.34.75-.75.75H3.5c-.42 0-.75.33-.75.75 0 .41.33.75.75.75h17c.41 0 .75-.34.75-.75 0-.42-.34-.75-.75-.75H19c-.42 0-.75-.34-.75-.75 0-.42.33-.75.75-.75h1.5c1.24 0 2.25 1 2.25 2.25 0 1.24-1.01 2.25-2.25 2.25h-17c-1.25 0-2.25-1.01-2.25-2.25Z"/><path d="M2.25 5c0-.42.33-.75.75-.75h18c.41 0 .75.33.75.75v10c0 .41-.34.75-.75.75H3c-.42 0-.75-.34-.75-.75V5Zm1.5.75v8.5h16.5v-8.5H3.75Z"/><path d="M1.25 16.5c0-1.25 1-2.25 2.25-2.25h17c1.24 0 2.25 1 2.25 2.25 0 1.24-1.01 2.25-2.25 2.25h-17c-1.25 0-2.25-1.01-2.25-2.25Zm2.25-.75c-.42 0-.75.33-.75.75 0 .41.33.75.75.75h17c.41 0 .75-.34.75-.75 0-.42-.34-.75-.75-.75h-17Z"/><path d="M12 17.25c.41 0 .75.33.75.75v4c0 .41-.34.75-.75.75 -.42 0-.75-.34-.75-.75v-4c0-.42.33-.75.75-.75Z"/><path d="M9.25 22c0-.42.33-.75.75-.75h4c.41 0 .75.33.75.75 0 .41-.34.75-.75.75h-4c-.42 0-.75-.34-.75-.75Z"/><path d="M18.53 7.46c.29.29.29.76 0 1.06l-3.3 3.29c-.69.68-1.8.68-2.48 0l-2.59-2.59c-.1-.1-.26-.1-.36 0l-3.3 3.29c-.3.29-.77.29-1.07 0 -.3-.3-.3-.77 0-1.07l3.29-3.3c.68-.69 1.79-.69 2.47 0l2.58 2.58c.09.09.25.09.35 0l3.29-3.3c.29-.3.76-.3 1.06 0Z"/></g></svg>