<svg viewBox="0 0 24 24" xmlns="http://www.w3.org/2000/svg"><g fill-rule="evenodd"><path d="M4.25 5.07c0-.42.33-.75.75-.75h14c.41 0 .75.33.75.75v15.48c0 1.25-1.29 2.1-2.44 1.61l-2.16-.92c-.08-.04-.16-.03-.23.01l-2.08 1.17c-.54.3-1.2.3-1.73 0l-2.08-1.18c-.07-.04-.15-.05-.23-.02l-2.16.91c-1.16.49-2.44-.36-2.44-1.62V5.02Zm1.5.75v14.73c0 .17.18.3.34.23l2.15-.92c.5-.22 1.07-.19 1.54.08l2.07 1.17c.07.04.17.04.24 0l2.07-1.18c.47-.27 1.04-.31 1.54-.09l2.15.91c.16.07.34-.06.34-.24V5.77H5.69Z"/><path d="M2.25 2.07c0-.42.33-.75.75-.75h2c.41 0 .75.33.75.75 0 .41-.34.75-.75.75H3.75v1.5h16.5v-1.5H9c-.42 0-.75-.34-.75-.75 0-.42.33-.75.75-.75h12c.41 0 .75.33.75.75v3c0 .41-.34.75-.75.75H3c-.42 0-.75-.34-.75-.75v-3Z"/><path d="M8.25 9.07c0-.42.33-.75.75-.75h6c.41 0 .75.33.75.75 0 .41-.34.75-.75.75H9c-.42 0-.75-.34-.75-.75Z"/><path d="M8.25 13.07c0-.42.33-.75.75-.75h6c.41 0 .75.33.75.75 0 .41-.34.75-.75.75H9c-.42 0-.75-.34-.75-.75Z"/><path d="M8.25 17.07c0-.42.33-.75.75-.75h6c.41 0 .75.33.75.75 0 .41-.34.75-.75.75H9c-.42 0-.75-.34-.75-.75Z"/></g></svg>