<svg viewBox="0 0 24 24" xmlns="http://www.w3.org/2000/svg"><g fill-rule="evenodd"><path d="M6 2.85c-.14 0-.25.11-.25.25v17.38c0 .18.19.3.36.22l2.03-1.02c.56-.29 1.23-.24 1.75.1l1.96 1.3c.08.05.19.05.27 0l1.96-1.31c.52-.35 1.19-.39 1.75-.11l2.03 1.01c.16.08.36-.04.36-.23v-2.39c0-.42.33-.75.75-.75 .41 0 .75.33.75.75v2.38c0 1.3-1.37 2.14-2.54 1.56l-2.04-1.02c-.09-.05-.18-.04-.26.01l-1.97 1.3c-.59.39-1.36.39-1.95 0l-1.97-1.31c-.08-.05-.18-.06-.26-.02l-2.04 1.01c-1.17.58-2.54-.27-2.54-1.57V3c0-.97.78-1.75 1.75-1.75h12c.96 0 1.75.78 1.75 1.75v11c0 .41-.34.75-.75.75 -.42 0-.75-.34-.75-.75V3c0-.14-.12-.25-.25-.25h-12Z"/><path d="M11.25 6.1c0-.42.33-.75.75-.75h4c.41 0 .75.33.75.75 0 .41-.34.75-.75.75h-4c-.42 0-.75-.34-.75-.75Z"/><path d="M7.25 6.1c0-.42.33-.75.75-.75h1c.41 0 .75.33.75.75 0 .41-.34.75-.75.75H8c-.42 0-.75-.34-.75-.75Z"/><path d="M7.25 11.1c0-.42.33-.75.75-.75h1c.41 0 .75.33.75.75 0 .41-.34.75-.75.75H8c-.42 0-.75-.34-.75-.75Z"/><path d="M7.25 16.1c0-.42.33-.75.75-.75h1c.41 0 .75.33.75.75 0 .41-.34.75-.75.75H8c-.42 0-.75-.34-.75-.75Z"/><path d="M11.25 11.1c0-.42.33-.75.75-.75h4c.41 0 .75.33.75.75 0 .41-.34.75-.75.75h-4c-.42 0-.75-.34-.75-.75Z"/><path d="M11.25 16.1c0-.42.33-.75.75-.75h4c.41 0 .75.33.75.75 0 .41-.34.75-.75.75h-4c-.42 0-.75-.34-.75-.75Z"/></g></svg>