<svg viewBox="0 0 24 24" xmlns="http://www.w3.org/2000/svg"><g fill-rule="evenodd"><path d="M22.75 22c0-.42-.34-.75-.75-.75H2c-.42 0-.75.33-.75.75 0 .41.33.75.75.75h20c.41 0 .75-.34.75-.75Z"/><path d="M7.75 7c0-.42-.34-.75-.75-.75H3c-.42 0-.75.33-.75.75v2c0 .41.33.75.75.75 .41 0 .75-.34.75-.75V7.75h2.5v13.5h-2.5V13c0-.42-.34-.75-.75-.75 -.42 0-.75.33-.75.75v9c0 .41.33.75.75.75h4c.41 0 .75-.34.75-.75V7Z"/><path d="M14.75 12c0-.42-.34-.75-.75-.75h-4c-.42 0-.75.33-.75.75v10c0 .41.33.75.75.75h4c.41 0 .75-.34.75-.75V12Zm-1.5.75v8.5h-2.5v-8.5h2.5Z"/><path d="M21.75 17c0-.42-.34-.75-.75-.75h-4c-.42 0-.75.33-.75.75v5c0 .41.33.75.75.75h4c.41 0 .75-.34.75-.75v-5Zm-1.5.75v3.5h-2.5v-3.5h2.5Z"/><path d="M17.25 13.5c0 .41.33.75.75.75h3c.41 0 .75-.34.75-.75v-3c0-.42-.34-.75-.75-.75 -.42 0-.75.33-.75.75v1.18L10.03 1.46c-.3-.3-.77-.3-1.07-.001 -.3.29-.3.76 0 1.06l10.21 10.21h-1.19c-.42 0-.75.33-.75.75Z"/></g></svg>