<svg viewBox="0 0 24 24" xmlns="http://www.w3.org/2000/svg"><g fill-rule="evenodd"><path d="M1.25 6c0-1.52 1.23-2.75 2.75-2.75h16c1.51 0 2.75 1.23 2.75 2.75v2c0 .41-.34.75-.75.75H2c-.42 0-.75-.34-.75-.75V6ZM4 4.75c-.7 0-1.25.55-1.25 1.25v1.25h18.5V6c0-.7-.56-1.25-1.25-1.25H4Z"/><path d="M1.25 8c0-.42.33-.75.75-.75h20c.41 0 .75.33.75.75v12c0 1.51-1.24 2.75-2.75 2.75H4c-1.52 0-2.75-1.24-2.75-2.75v-6c0-.42.33-.75.75-.75 .41 0 .75.33.75.75v6c0 .69.55 1.25 1.25 1.25h16c.69 0 1.25-.56 1.25-1.25V8.75H2.75V10c0 .41-.34.75-.75.75 -.42 0-.75-.34-.75-.75V8Z"/><path d="M12 1.25c.41 0 .75.33.75.75v3c0 .41-.34.75-.75.75 -.42 0-.75-.34-.75-.75V2c0-.42.33-.75.75-.75Z"/><path d="M17 1.25c.41 0 .75.33.75.75v3c0 .41-.34.75-.75.75 -.42 0-.75-.34-.75-.75V2c0-.42.33-.75.75-.75Z"/><path d="M7 1.25c.41 0 .75.33.75.75v3c0 .41-.34.75-.75.75 -.42 0-.75-.34-.75-.75V2c0-.42.33-.75.75-.75Z"/><path d="M10.53 10.46c.29.29.29.76 0 1.06l-3 3c-.3.29-.77.29-1.07 0l-2-2c-.3-.3-.3-.77 0-1.07 .29-.3.76-.3 1.06 0l1.46 1.46 2.46-2.47c.29-.3.76-.3 1.06 0Z"/><path d="M19.53 10.46c.29.29.29.76 0 1.06l-3 3c-.3.29-.77.29-1.07 0l-2-2c-.3-.3-.3-.77 0-1.07 .29-.3.76-.3 1.06 0l1.46 1.46 2.46-2.47c.29-.3.76-.3 1.06 0Z"/><path d="M19.53 15.46c.29.29.29.76 0 1.06l-3 3c-.3.29-.77.29-1.07 0l-2-2c-.3-.3-.3-.77 0-1.07 .29-.3.76-.3 1.06 0l1.46 1.46 2.46-2.47c.29-.3.76-.3 1.06 0Z"/><path d="M4.25 18c0-.42.33-.75.75-.75h5c.41 0 .75.33.75.75 0 .41-.34.75-.75.75H5c-.42 0-.75-.34-.75-.75Z"/></g></svg>