<svg viewBox="0 0 24 24" xmlns="http://www.w3.org/2000/svg"><g fill-rule="evenodd"><path d="M1.25 3.5c0-1.25 1-2.25 2.25-2.25h17c1.24 0 2.25 1 2.25 2.25 0 1.24-1.01 2.25-2.25 2.25h-17c-1.25 0-2.25-1.01-2.25-2.25Zm2.25-.75c-.42 0-.75.33-.75.75 0 .41.33.75.75.75h17c.41 0 .75-.34.75-.75 0-.42-.34-.75-.75-.75h-17Z"/><path d="M2.25 5c0-.42.33-.75.75-.75h18c.41 0 .75.33.75.75v15c0 1.51-1.24 2.75-2.75 2.75h-1c-.42 0-.75-.34-.75-.75 0-.42.33-.75.75-.75h1c.69 0 1.25-.56 1.25-1.25V5.75H3.75V20c0 .69.55 1.25 1.25 1.25h9c.41 0 .75.33.75.75 0 .41-.34.75-.75.75H5c-1.52 0-2.75-1.24-2.75-2.75V5Z"/><path d="M8 8.75c-.7 0-1.25.55-1.25 1.25 0 .69.55 1.25 1.25 1.25 .69 0 1.25-.56 1.25-1.25 0-.7-.56-1.25-1.25-1.25ZM5.25 10c0-1.52 1.23-2.75 2.75-2.75 1.51 0 2.75 1.23 2.75 2.75 0 1.51-1.24 2.75-2.75 2.75 -1.52 0-2.75-1.24-2.75-2.75Z"/><path d="M18.53 14.46c.29.29.29.76 0 1.06l-4 4c-.3.29-.77.29-1.07 0 -.3-.3-.3-.77 0-1.07l4-4c.29-.3.76-.3 1.06 0Z"/><path d="M13.46 14.46c-.3.29-.3.76 0 1.06l4 4c.29.29.76.29 1.06 0 .29-.3.29-.77 0-1.07l-4-4c-.3-.3-.77-.3-1.07 0Z"/><path d="M13 8.75c-.42 0-.75-.34-.75-.75 0-.42.33-.75.75-.75h4c.41 0 .75.33.75.75v4c0 .41-.34.75-.75.75 -.42 0-.75-.34-.75-.75V9.81l-4.14 4.13c-.24.23-.37.55-.37.88v1.17c0 1.51-1.24 2.75-2.75 2.75h-3c-.42 0-.75-.34-.75-.75 0-.42.33-.75.75-.75h3c.69 0 1.25-.56 1.25-1.25v-1.18c0-.73.28-1.43.8-1.95l4.13-4.14h-2.19Z"/></g></svg>