<svg viewBox="0 0 24 24" xmlns="http://www.w3.org/2000/svg"><g fill-rule="evenodd"><path d="M12 7.75c-2.35 0-4.25 1.9-4.25 4.25 0 2.34 1.9 4.25 4.25 4.25 2.34 0 4.25-1.91 4.25-4.25 0-2.35-1.91-4.25-4.25-4.25ZM6.25 12c0-3.18 2.57-5.75 5.75-5.75 3.17 0 5.75 2.57 5.75 5.75 0 3.17-2.58 5.75-5.75 5.75 -3.18 0-5.75-2.58-5.75-5.75Z"/><path d="M12 10.75c-.7 0-1.25.55-1.25 1.25 0 .69.55 1.25 1.25 1.25 .69 0 1.25-.56 1.25-1.25 0-.7-.56-1.25-1.25-1.25ZM9.25 12c0-1.52 1.23-2.75 2.75-2.75 1.51 0 2.75 1.23 2.75 2.75 0 1.51-1.24 2.75-2.75 2.75 -1.52 0-2.75-1.24-2.75-2.75Z"/><path d="M12 2.75c-5.11 0-9.25 4.14-9.25 9.25 0 2.52 1 4.8 2.64 6.47 .28.29.28.77-.02 1.06 -.3.28-.78.28-1.07-.02 -1.91-1.94-3.08-4.6-3.08-7.53 0-5.94 4.81-10.75 10.75-10.75 5.93 0 10.75 4.81 10.75 10.75 0 5.93-4.82 10.75-10.75 10.75 -1.13 0-2.21-.18-3.23-.5 -.4-.13-.62-.55-.5-.95 .12-.4.54-.62.94-.5 .87.27 1.8.42 2.77.42 5.1 0 9.25-4.15 9.25-9.25 0-5.11-4.15-9.25-9.25-9.25Z"/><path d="M20 1.25c.41 0 .75.33.75.75v1.25H22c.41 0 .75.33.75.75 0 .41-.34.75-.75.75h-1.69l-7.79 7.78c-.3.29-.77.29-1.07 0 -.3-.3-.3-.77 0-1.07l7.78-7.79V1.98c0-.42.33-.75.75-.75Z"/></g></svg>