<svg viewBox="0 0 24 24" xmlns="http://www.w3.org/2000/svg"><g fill-rule="evenodd"><path d="M12 2.75c-2.35 0-4.25 1.9-4.25 4.25 0 2.34 1.9 4.25 4.25 4.25 2.34 0 4.25-1.91 4.25-4.25 0-2.35-1.91-4.25-4.25-4.25ZM6.25 7c0-3.18 2.57-5.75 5.75-5.75 3.17 0 5.75 2.57 5.75 5.75 0 3.17-2.58 5.75-5.75 5.75 -3.18 0-5.75-2.58-5.75-5.75Z"/><path d="M2.25 19c0-2.63 2.12-4.75 4.75-4.75h10c2.62 0 4.75 2.12 4.75 4.75v1c0 1.51-1.24 2.75-2.75 2.75h-2c-.42 0-.75-.34-.75-.75 0-.42.33-.75.75-.75h2c.69 0 1.25-.56 1.25-1.25v-1c0-1.8-1.46-3.25-3.25-3.25H7c-1.8 0-3.25 1.45-3.25 3.25v1c0 .69.55 1.25 1.25 1.25h8c.41 0 .75.33.75.75 0 .41-.34.75-.75.75H5c-1.52 0-2.75-1.24-2.75-2.75v-1Z"/><path d="M9.37 14.57c.13-.21.37-.33.62-.33h4c.24 0 .48.12.62.32 .13.2.16.46.07.69l-1.08 2.67c-.59 1.46-2.67 1.46-3.25 0l-1.08-2.68c-.1-.24-.07-.5.07-.7Zm1.72 1.17l.66 1.65c.08.2.38.2.46 0l.66-1.66h-1.79Z"/></g></svg>