<svg viewBox="0 0 24 24" xmlns="http://www.w3.org/2000/svg"><g fill-rule="evenodd"><path d="M12 2.75c-2.35 0-4.25 1.9-4.25 4.25 0 2.34 1.9 4.25 4.25 4.25 2.34 0 4.25-1.91 4.25-4.25 0-2.35-1.91-4.25-4.25-4.25ZM6.25 7c0-3.18 2.57-5.75 5.75-5.75 3.17 0 5.75 2.57 5.75 5.75 0 3.17-2.58 5.75-5.75 5.75 -3.18 0-5.75-2.58-5.75-5.75Z"/><path d="M4.27 17.12c.74-1.75 2.46-2.88 4.36-2.88h6.72c1.9 0 3.61 1.13 4.36 2.87l.76 1.78c.77 1.81-.56 3.83-2.53 3.83h-1.97c-.42 0-.75-.34-.75-.75 0-.42.33-.75.75-.75h1.96c.89 0 1.5-.92 1.14-1.75l-.77-1.79c-.52-1.2-1.69-1.97-2.99-1.97H8.58c-1.31 0-2.48.77-2.99 1.96l-.77 1.78c-.36.82.25 1.74 1.14 1.74h5.96c.41 0 .75.33.75.75 0 .41-.34.75-.75.75H5.95c-1.98 0-3.31-2.02-2.53-3.84l.76-1.79Z"/><path d="M12 14.25c.19 0 .38.07.53.21l2 2c.21.21.27.53.16.8l-2 5c-.12.28-.39.47-.7.47 -.31 0-.59-.19-.7-.48l-2.01-5c-.12-.28-.05-.6.16-.81l2-2c.14-.15.33-.22.53-.22Zm0 1.81l-1.12 1.11 1.12 2.8 1.12-2.8L12 16.05Z"/></g></svg>