<svg viewBox="0 0 24 24" xmlns="http://www.w3.org/2000/svg"><g fill-rule="evenodd"><path d="M1.25 11.59c0-.42.33-.75.75-.75h19c.96 0 1.75.78 1.75 1.75v8c0 .96-.79 1.75-1.75 1.75H3c-.97 0-1.75-.79-1.75-1.75v-9Zm1.5.75v8.25c0 .13.11.25.25.25h18c.13 0 .25-.12.25-.25v-8c0-.14-.12-.25-.25-.25H2.75Z"/><path d="M17.25 3.4c0-.2-.22-.32-.39-.22l-6.47 4.04c-.36.21-.82.11-1.04-.24 -.22-.36-.12-.82.23-1.04l6.46-4.05c1.16-.73 2.67.1 2.67 1.48v8.19c0 .41-.34.75-.75.75h-16c-.34 0-.63-.23-.73-.55 -.1-.33.03-.67.32-.85l4-2.51c.35-.22.81-.12 1.03.23 .21.35.11.81-.24 1.03l-1.79 1.11h12.63V3.32Z"/><path d="M15.25 16.59c0-.42.33-.75.75-.75h3c.41 0 .75.33.75.75 0 .41-.34.75-.75.75h-3c-.42 0-.75-.34-.75-.75Z"/></g></svg>