<svg viewBox="0 0 24 24" xmlns="http://www.w3.org/2000/svg"><g fill="#9545ED" fill-rule="evenodd"><path d="M5 9c0-1.11.89-2 2-2h10c1.1 0 2 .89 2 2v5.8c0 1.1-.9 2-2 2H7c-1.11 0-2-.9-2-2V9Zm12 0H7v5.8h10V9Z"/><path d="M11.43 13.02l-5.71-3.9 1.12-1.66 5.13 3.51 5.13-3.52 1.12 1.65 -5.7 3.9c-.35.23-.79.23-1.13 0Z"/><path fill="#3747D6" d="M11.11 1.52c.17-.33.51-.53.88-.53 6.07 0 11 4.92 11 11 0 4.51-2.72 8.38-6.6 10.08l-.81-1.84c3.18-1.39 5.4-4.57 5.4-8.26 0-4.28-2.99-7.86-6.98-8.78l.81 1.21 -1.67 1.1 -2-3c-.21-.31-.23-.71-.05-1.03ZM8.39 3.74C5.2 5.12 2.98 8.3 2.98 11.99c0 4.27 2.98 7.85 6.97 8.77l-.82-1.22 1.66-1.11 2 3c.2.3.22.7.04 1.02 -.18.32-.52.52-.89.52 -6.08 0-11-4.93-11-11 0-4.52 2.71-8.39 6.59-10.09l.8 1.83Z"/></g></svg>