<svg viewBox="0 0 24 24" xmlns="http://www.w3.org/2000/svg"><g fill="#9545ED" fill-rule="evenodd"><path d="M3 3.5c0-.56.44-1 1-1h4c.55 0 1 .44 1 1v3c0 .55-.45 1-1 1H4c-.56 0-1-.45-1-1v-3Zm2 1v1h2v-1H5Z"/><path d="M15.5 3.5c0-.56.44-1 1-1h4c.55 0 1 .44 1 1v3c0 .55-.45 1-1 1h-4c-.56 0-1-.45-1-1v-3Zm2 1v1h2v-1h-2Z"/><g fill="#3747D6"><path d="M1 9.5c0-.56.44-1 1-1h20c.55 0 1 .44 1 1v11c0 .55-.45 1-1 1H2c-.56 0-1-.45-1-1v-11Zm2 1v9h18v-9H3Z"/><path d="M1 6.5c0-.56.44-1 1-1h20c.55 0 1 .44 1 1v3c0 .55-.45 1-1 1H2c-.56 0-1-.45-1-1v-3Zm2 1v1h18v-1H3Z"/></g><path d="M9.6 14.55l1.5-3 1.78.89 -.78 1.55h1.38c.34 0 .66.17.85.47 .18.29.19.66.04.97l-1.5 3 -1.79-.9 .77-1.56h-1.39c-.35 0-.67-.18-.86-.48 -.19-.3-.2-.67-.05-.98Z"/></g></svg>