<svg viewBox="0 0 24 24" xmlns="http://www.w3.org/2000/svg"><g fill="#9545ED" fill-rule="evenodd"><path d="M4.29 5.79c.18-.19.44-.3.7-.3h1.25c1.24 0 2.25 1 2.25 2.25 0 1.24-1.01 2.25-2.25 2.25H4.99c-.56 0-1-.45-1-1l-.01-2.5c-.01-.27.1-.52.29-.71Zm1.7 1.7l0 .5h.24c.13 0 .25-.12.25-.25 0-.14-.12-.25-.25-.25h-.25Z"/><g fill="#3747D6"><path d="M7.14 7.97c.18-.3.5-.48.85-.48h3.5c1.65 0 3 1.34 3 3v1c0 .55-.45 1-1 1h-4c-.38 0-.73-.22-.9-.56l-1.5-3c-.16-.31-.14-.68.04-.98ZM9.6 9.49l.49 1h2.38c0-.56-.45-1-1-1H9.58Z"/><path d="M8.66 10.95c.18-.29.49-.46.83-.46h9.5c2.2 0 4 1.79 4 4v1.5c0 .55-.45 1-1 1h-10.5c-.4 0-.76-.24-.92-.6l-2.01-4.5c-.14-.31-.11-.67.07-.96Zm2.37 1.54l1.11 2.5h8.85v-.5c0-1.11-.9-2-2-2h-7.97Z"/></g><path d="M4.5 14.5c-.83 0-1.5.67-1.5 1.5 0 .82.67 1.5 1.5 1.5 .82 0 1.5-.68 1.5-1.5 0-.83-.68-1.5-1.5-1.5ZM1 16c0-1.94 1.56-3.5 3.5-3.5C6.43 12.5 8 14.06 8 16c0 1.93-1.57 3.5-3.5 3.5C2.56 19.5 1 17.93 1 16Z"/><path d="M15 16c0-.56.44-1 1-1h5c.55 0 1 .44 1 1 0 1.93-1.57 3.5-3.5 3.5 -1.94 0-3.5-1.57-3.5-3.5Zm2.38 1c.27.3.67.5 1.11.5 .44 0 .84-.2 1.11-.5h-2.24Z"/><g fill="#3747D6"><path d="M9.7 4.9c.18-.26.48-.4.8-.4h2.18v2h-1.69l-5.7 7.6 -1.6-1.2 6-8Z"/><path d="M20.96 8.27l-1 3.49 -1.93-.55 1-3.51 1.92.54Z"/></g></g></svg>