<svg viewBox="0 0 24 24" xmlns="http://www.w3.org/2000/svg"><g fill="#9545ED" fill-rule="evenodd"><path d="M14 15.5c0-1.11.89-2 2-2h5c1.1 0 2 .89 2 2v4c0 1.1-.9 2-2 2h-5c-1.11 0-2-.9-2-2v-4Zm7 0h-5v4h5v-4Z"/><path d="M15 13c0-1.66 1.34-3 3-3h1c1.65 0 3 1.34 3 3v1.5c0 .55-.45 1-1 1h-5c-.56 0-1-.45-1-1V13Zm3-1c-.56 0-1 .44-1 1v.5h3V13c0-.56-.45-1-1-1h-1Z"/><g fill="#3747D6"><path d="M1 4c0-1.11.89-2 2-2h16c1.1 0 2 .89 2 2v4h-2V4H3v9.7h9v2H3c-1.11 0-2-.9-2-2V4Z"/><path d="M10.43 10.12L1.88 4.27 3 2.61l7.98 5.46 7.98-5.47 1.12 1.65 -8.55 5.84c-.35.23-.79.23-1.13 0Z"/></g></g></svg>