<svg viewBox="0 0 24 24" xmlns="http://www.w3.org/2000/svg"><g fill="#3747D6" fill-rule="evenodd"><path d="M1 5c0-1.11.89-2 2-2h16c1.1 0 2 .89 2 2v4.5h-2V5H3v9.7h6.5v2H3c-1.11 0-2-.9-2-2V5Z"/><path d="M10.43 11.12L1.88 5.27 3 3.61l7.98 5.46 7.98-5.47 1.12 1.65 -8.55 5.84c-.35.23-.79.23-1.13 0Z"/><path fill="#9545ED" d="M17.43 10.58c.36-.16.78-.09 1.08.18l4.16 3.88c.2.18.31.45.31.73 0 .27-.12.54-.32.73l-4.17 3.88c-.3.27-.72.34-1.09.18 -.37-.16-.61-.52-.61-.92v-1.78c-1.32.08-2.51.81-3.16 1.96l-.81 1.41c-.23.39-.69.58-1.13.47 -.44-.12-.75-.52-.75-.97v-1.62c0-3.27 2.59-5.94 5.83-6.06v-1.23c0-.4.23-.76.6-.92Zm1.24 3.07c-.28.625-.91 1.06-1.63 1.06 -1.45 0-2.71.75-3.43 1.88 .98-.71 2.19-1.11 3.44-1.11 .88 0 1.61.64 1.73 1.49l1.72-1.61 -1.86-1.73Z"/></g></svg>