<svg viewBox="0 0 24 24" xmlns="http://www.w3.org/2000/svg"><g fill="#9545ED" fill-rule="evenodd"><path d="M19 7H5V5h14v2Z"/><path d="M11 9V6h2v3h-2Z"/><g fill="#3747D6"><path d="M1 14c0-3.32 2.68-6 6-6h14c.33 0 .64.16.83.44 .18.28.21.63.08.94l-.75 1.74c-.13.29-.39.51-.7.58l-7.26 1.63 -1.3 3.03c-.16.36-.52.6-.92.6h-9c-.56 0-1-.45-1-1v-2Zm6-4c-2.21 0-4 1.79-4 4v1h7.34l1.24-2.9c.12-.3.38-.52.69-.59l6.75-1.53H6.98Z"/><path d="M22.89 7.44l-1 2 -1.79-.9 1-2 1.78.89Z"/><path d="M2.16 18.44l2-3 1.66 1.1 -2 3 -1.67-1.11Zm9 1.1l-2.01-3 1.66-1.11 2 3 -1.67 1.1Z"/><path d="M8 10V9h2v1c0 2.2-1.8 4-4 4H2.5v-2H6c1.1 0 2-.9 2-2Z"/></g><path d="M14.5 20H2v-2h12.5v2Z"/></g></svg>