<svg viewBox="0 0 24 24" xmlns="http://www.w3.org/2000/svg"><g fill="#9545ED" fill-rule="evenodd"><path d="M13.05 18.66l2.5-7 1.88.67 -2.5 7 -1.89-.68Z"/><path d="M10.94 18.66l-2.5-7 -1.89.67 2.5 7 1.88-.68Z"/><path d="M18 9H6V7h12v2Z"/><g fill="#3747D6"><path d="M9 19c0-.56.44-1 1-1h4c.55 0 1 .44 1 1v3c0 .55-.45 1-1 1h-4c-.56 0-1-.45-1-1v-3Zm2 1v1h2v-1h-2Z"/><path d="M12 3C9.23 3 7 5.23 7 8c0 2.76 2.23 5 5 5 2.76 0 5-2.24 5-5 0-2.77-2.24-5-5-5ZM5 8c0-3.87 3.13-7 7-7 3.86 0 7 3.13 7 7 0 3.86-3.14 7-7 7 -3.87 0-7-3.14-7-7Z"/></g></g></svg>