<svg viewBox="0 0 24 24" xmlns="http://www.w3.org/2000/svg"><g fill="#9545ED" fill-rule="evenodd"><path d="M6.02 1.64l2.54 2.85h6.85l2.54-2.86 1.49 1.33 -2.55 2.85c-.38.42-.93.66-1.5.66H8.53c-.57 0-1.12-.25-1.5-.67L4.48 2.94 5.97 1.6Z"/><path d="M11 12V5.5h2V12h-2Z"/><path fill="#3747D6" d="M4 3c0-1.11.89-2 2-2h12c1.1 0 2 .89 2 2v18c0 1.1-.9 2-2 2H6c-1.11 0-2-.9-2-2V3Zm14 0H6v18h12V3Z"/><path d="M12 13c-.56 0-1 .44-1 1 0 .55.44 1 1 1 .55 0 1-.45 1-1 0-.56-.45-1-1-1Zm-3 1c0-1.66 1.34-3 3-3 1.65 0 3 1.34 3 3 0 1.65-1.35 3-3 3 -1.66 0-3-1.35-3-3Z"/></g></svg>