<svg viewBox="0 0 24 24" xmlns="http://www.w3.org/2000/svg"><g fill="#3747D6" fill-rule="evenodd"><path d="M10.5 7C9.11 7 8 8.11 8 9.5v6c0 1.1.89 2 2 2v2c-2.21 0-4-1.8-4-4v-6C6 7.01 8.01 5 10.5 5h3C15.98 5 18 7.01 18 9.5v6c0 2.2-1.8 4-4 4v-2c1.1 0 2-.9 2-2v-6C16 8.11 14.88 7 13.5 7h-3Z"/><path d="M4.8 4.01l5-1 .39 1.96 -5 1L4.79 4Z"/><path d="M19.19 4.01l-5-1 -.4 1.96 5 1L19.18 4Z"/><g fill="#9545ED"><path d="M9 16c0-1.11.89-2 2-2h2c1.1 0 2 .89 2 2v5c0 1.1-.9 2-2 2h-2c-1.11 0-2-.9-2-2v-5Zm4 0h-2v5h2v-5Z"/><path d="M12 3c-.56 0-1 .44-1 1 0 .55.44 1 1 1 .55 0 1-.45 1-1 0-.56-.45-1-1-1ZM9 4c0-1.66 1.34-3 3-3 1.65 0 3 1.34 3 3 0 1.65-1.35 3-3 3 -1.66 0-3-1.35-3-3Z"/><path d="M14 12.5h-4v-2h4v2Z"/></g></g></svg>