<svg viewBox="0 0 24 24" xmlns="http://www.w3.org/2000/svg"><g fill="#9545ED" fill-rule="evenodd"><path d="M11 13V5.5h2V13h-2Z"/><path d="M11 18.5v-2h2v2h-2Z"/><path fill="#3747D6" d="M16.05 1c.26-.01.52.1.7.28l5.88 5.8c.18.18.29.43.29.7l.05 8.26c0 .26-.11.52-.29.7l-5.81 5.88c-.19.18-.44.29-.71.29l-8.27.05c-.27 0-.53-.11-.71-.29l-5.89-5.81c-.19-.19-.3-.44-.3-.71L.93 7.88c-.01-.27.1-.53.28-.71l5.8-5.89c.18-.19.43-.3.7-.3l8.26-.06ZM8.21 3.05L2.98 8.34l.04 7.43 5.29 5.22 7.43-.05 5.22-5.3 -.05-7.44 -5.3-5.23 -7.44.04Z"/></g></svg>