<svg viewBox="0 0 24 24" xmlns="http://www.w3.org/2000/svg"><g fill="#9545ED" fill-rule="evenodd"><path d="M12.41 1.59l2 4.5 -1.83.81 -2-4.5 1.82-.82Z"/><g fill="#3747D6"><path d="M15.99 8.13c.31-.19.69-.19 1 0l6 3.49c.3.17.49.5.49.86v5.33c0 1.72-1.11 3.25-2.74 3.79l-3.95 1.31c-.21.06-.43.06-.64 0l-3.95-1.32c-1.64-.55-2.74-2.08-2.74-3.8v-5.34c0-.36.18-.69.49-.87l5.99-3.5Zm-4.5 4.93v4.76c0 .86.55 1.62 1.36 1.89l3.63 1.21 3.63-1.22c.81-.28 1.36-1.04 1.36-1.9v-4.77l-5-2.92 -5 2.91Z"/><path d="M17.5 9v13h-2V9h2Z"/><path d="M12 6.5c0-.56.44-1 1-1h7c.55 0 1 .44 1 1V11h-2V7.5h-5V11h-2V6.5Z"/></g><path d="M11.88 1.07c.47.19.72.72.57 1.21l-5.51 18c-.13.42-.52.7-.96.7h-4c-.36 0-.68-.19-.86-.49 -.19-.31-.2-.68-.03-.99l9.49-18c.24-.46.78-.66 1.26-.46ZM3.65 18.99h1.6l2.2-7.21 -3.81 7.2Z"/></g></svg>