<svg viewBox="0 0 24 24" xmlns="http://www.w3.org/2000/svg"><g fill="#9545ED" fill-rule="evenodd"><path d="M12 3.75c-1.94 0-3.5 1.56-3.5 3.5 0 1.93 1.56 3.5 3.5 3.5 1.93 0 3.5-1.57 3.5-3.5 0-1.94-1.57-3.5-3.5-3.5Zm-5.5 3.5c0-3.04 2.46-5.5 5.5-5.5 3.03 0 5.5 2.46 5.5 5.5 0 3.03-2.47 5.5-5.5 5.5 -3.04 0-5.5-2.47-5.5-5.5Z"/><path fill="#3747D6" d="M3 17.75c0-2.49 2.01-4.5 4.5-4.5h9c2.48 0 4.5 2.01 4.5 4.5 0 2.48-2.02 4.5-4.5 4.5h-9c-2.49 0-4.5-2.02-4.5-4.5Zm4.5-2.5c-1.39 0-2.5 1.11-2.5 2.5 0 1.38 1.11 2.5 2.5 2.5h9c1.38 0 2.5-1.12 2.5-2.5 0-1.39-1.12-2.5-2.5-2.5h-9Z"/></g></svg>