<svg viewBox="0 0 24 24" xmlns="http://www.w3.org/2000/svg"><g fill="#3747D6" fill-rule="evenodd"><path d="M8.4 5.2c.17-.13.38-.2.6-.2h11c1.65 0 3 1.34 3 3v7c0 .55-.45 1-1 1h-2v-2h1V8c0-.56-.45-1-1-1H9.33L5.59 9.8c-.09.06-.19.11-.29.14l-1.98.65c-.21.06-.35.25-.35.47v2.91h1v2h-2c-.56 0-1-.45-1-1v-3.92c0-1.08.68-2.04 1.7-2.38l1.82-.61 3.87-2.91ZM8 14h8v2H8v-2Z"/><g fill="#9545ED"><path d="M6 14c-.56 0-1 .44-1 1 0 .55.44 1 1 1 .55 0 1-.45 1-1 0-.56-.45-1-1-1Zm-3 1c0-1.66 1.34-3 3-3 1.65 0 3 1.34 3 3 0 1.65-1.35 3-3 3 -1.66 0-3-1.35-3-3Z"/><path d="M18 14c-.56 0-1 .44-1 1 0 .55.44 1 1 1 .55 0 1-.45 1-1 0-.56-.45-1-1-1Zm-3 1c0-1.66 1.34-3 3-3 1.65 0 3 1.34 3 3 0 1.65-1.35 3-3 3 -1.66 0-3-1.35-3-3Z"/></g></g></svg>