<svg viewBox="0 0 24 24" xmlns="http://www.w3.org/2000/svg"><path fill="#FFC44D" d="M8.5 19.75c-.42 0-.75-.34-.75-.75v-3.52c-2.11-1.39-3.5-3.77-3.5-6.49 0-4.29 3.46-7.75 7.75-7.75 4.28 0 7.75 3.46 7.75 7.75 0 2.71-1.4 5.09-3.5 6.48v3.51c0 .41-.34.75-.75.75h-7Z"/><g fill="#8B98A6" fill-rule="evenodd"><path d="M7.25 22c0-.42.33-.75.75-.75h8c.41 0 .75.33.75.75 0 .41-.34.75-.75.75H8c-.42 0-.75-.34-.75-.75Z"/><path fill="#ECEFF1" d="M16.53 6.46c.29.29.29.76 0 1.06l-5 4.99c-.3.29-.77.29-1.07 0l-3.01-3c-.3-.3-.3-.77 0-1.07 .29-.3.76-.3 1.06 0l2.46 2.46 4.46-4.47c.29-.3.76-.3 1.06 0Z"/></g></svg>