<svg viewBox="0 0 24 24" xmlns="http://www.w3.org/2000/svg"><g fill="#8B98A6" fill-rule="evenodd"><path d="M6.53 9.46c.29.29.29.76 0 1.06l-3.47 3.46 3.46 3.46c.29.29.29.76 0 1.06 -.3.29-.77.29-1.07 0l-4-4c-.3-.3-.3-.77 0-1.07l4-4.01c.29-.3.76-.3 1.06 0Z"/><path d="M17.46 9.46c-.3.29-.3.76 0 1.06l3.46 3.46 -3.47 3.46c-.3.29-.3.76 0 1.06 .29.29.76.29 1.06 0l4-4c.29-.3.29-.77 0-1.07l-4-4.01c-.3-.3-.77-.3-1.07 0Z"/></g><g fill="#71D0FF"><path d="M9 9.25c-.29 0-.55.16-.68.41l-1 2c-.13.24-.11.52.04.75l4 6c.13.2.37.33.62.33s.48-.13.62-.34l4-6c.14-.23.16-.52.04-.76l-1-2.01c-.13-.26-.39-.42-.68-.42h-6Z"/><g fill="#71D0FF" fill-rule="evenodd"><path d="M7.5 3.75c.41 0 .75.33.75.75v4c0 .41-.34.75-.75.75 -.42 0-.75-.34-.75-.75v-4c0-.42.33-.75.75-.75Z"/><path d="M12.5 1.25c.41 0 .75.33.75.75v4c0 .41-.34.75-.75.75 -.42 0-.75-.34-.75-.75V2c0-.42.33-.75.75-.75Z"/><path d="M15 17.25c.41 0 .75.33.75.75v4c0 .41-.34.75-.75.75 -.42 0-.75-.34-.75-.75v-4c0-.42.33-.75.75-.75Z"/><path d="M4.75 6.5c0-.42.33-.75.75-.75h4c.41 0 .75.33.75.75 0 .41-.34.75-.75.75h-4c-.42 0-.75-.34-.75-.75Z"/><path d="M9.75 4c0-.42.33-.75.75-.75h4c.41 0 .75.33.75.75 0 .41-.34.75-.75.75h-4c-.42 0-.75-.34-.75-.75Z"/><path d="M12.25 20c0-.42.33-.75.75-.75h4c.41 0 .75.33.75.75 0 .41-.34.75-.75.75h-4c-.42 0-.75-.34-.75-.75Z"/></g></g></svg>