<svg viewBox="0 0 24 24" xmlns="http://www.w3.org/2000/svg"><path fill="#ECEFF1" d="M2 1.25c-.42 0-.75.33-.75.75v20c0 .41.33.75.75.75h20c.41 0 .75-.34.75-.75V2c0-.42-.34-.75-.75-.75H2Z"/><path fill="#5E94FF" d="M2 1.25c-.42 0-.75.33-.75.75v5c0 .41.33.75.75.75h20c.41 0 .75-.34.75-.75V2c0-.42-.34-.75-.75-.75H2Z"/><g fill="#ECEFF1" fill-rule="evenodd"><path d="M3.75 4.5c0-.42.33-.75.75-.75h2c.41 0 .75.33.75.75 0 .41-.34.75-.75.75h-2c-.42 0-.75-.34-.75-.75Z"/><path d="M7.75 4.5c0-.42.33-.75.75-.75h2c.41 0 .75.33.75.75 0 .41-.34.75-.75.75h-2c-.42 0-.75-.34-.75-.75Z"/><path d="M11.75 4.5c0-.42.33-.75.75-.75h2c.41 0 .75.33.75.75 0 .41-.34.75-.75.75h-2c-.42 0-.75-.34-.75-.75Z"/><g fill="#8BC94D"><path d="M9.03 10.46c.29.29.29.76 0 1.06l-2.97 2.96 2.96 2.96c.29.29.29.76 0 1.06 -.3.29-.77.29-1.07 0L4.45 15c-.3-.3-.3-.77 0-1.07l3.5-3.5c.29-.3.76-.3 1.06 0Z"/><path d="M14.96 10.46c-.3.29-.3.76 0 1.06l2.96 2.96 -2.97 2.96c-.3.29-.3.76 0 1.06 .29.29.76.29 1.06 0l3.5-3.5c.29-.3.29-.77 0-1.07l-3.5-3.5c-.3-.3-.77-.3-1.07 0Z"/><path d="M13.71 8.78c.39.11.62.53.5.93l-3 9.99c-.12.39-.54.62-.94.5 -.4-.12-.63-.54-.51-.94l2.99-10c.11-.4.53-.63.93-.51Z"/></g></g></svg>