<svg viewBox="0 0 24 24" xmlns="http://www.w3.org/2000/svg"><path fill="#4DC4FF" d="M13 1.25c-3.17 0-5.82 2.17-6.55 5.1 -.31-.08-.63-.11-.96-.11 -2.35 0-4.25 1.9-4.25 4.25 0 2.34 1.9 4.25 4.25 4.25h14c2.34 0 4.25-1.91 4.25-4.25 0-2.35-1.9-4.24-4.23-4.25 -.78-2.88-3.4-5.01-6.53-5.01Z"/><g fill="#8B98A6" fill-rule="evenodd"><path d="M10.78 15.3c.28.11.46.38.46.69v6c0 .41-.34.75-.75.75 -.42 0-.75-.34-.75-.75V17.8l-1.22 1.21c-.3.29-.77.29-1.07 0 -.3-.3-.3-.77-.01-1.07l2.49-2.5c.21-.22.53-.28.81-.17Z"/><path d="M13.213 22.69c-.29-.12-.47-.39-.47-.7v-6c0-.42.33-.75.75-.75 .41 0 .75.33.75.75v4.18l1.21-1.22c.29-.3.76-.3 1.06 0 .29.29.29.76 0 1.06l-2.5 2.5c-.22.21-.54.27-.82.16Z"/></g></svg>