<svg viewBox="0 0 24 24" xmlns="http://www.w3.org/2000/svg"><path fill="#ECEFF1" d="M2 1.25c-.42 0-.75.33-.75.75v20c0 .41.33.75.75.75h20c.41 0 .75-.34.75-.75V2c0-.42-.34-.75-.75-.75H2Z"/><path fill="#5E94FF" d="M2 1.25c-.42 0-.75.33-.75.75v5c0 .41.33.75.75.75h20c.41 0 .75-.34.75-.75V2c0-.42-.34-.75-.75-.75H2Z"/><g fill="#ECEFF1" fill-rule="evenodd"><path d="M3.75 4.5c0-.42.33-.75.75-.75h2c.41 0 .75.33.75.75 0 .41-.34.75-.75.75h-2c-.42 0-.75-.34-.75-.75Z"/><path d="M7.75 4.5c0-.42.33-.75.75-.75h2c.41 0 .75.33.75.75 0 .41-.34.75-.75.75h-2c-.42 0-.75-.34-.75-.75Z"/><path d="M11.75 4.5c0-.42.33-.75.75-.75h2c.41 0 .75.33.75.75 0 .41-.34.75-.75.75h-2c-.42 0-.75-.34-.75-.75Z"/><g fill="#4DC4FF"><path d="M12 10.25c-2.35 0-4.25 1.9-4.25 4.25 0 2.34 1.9 4.25 4.25 4.25 2.34 0 4.25-1.91 4.25-4.25 0-2.35-1.91-4.25-4.25-4.25ZM6.25 14.5c0-3.18 2.57-5.75 5.75-5.75 3.17 0 5.75 2.57 5.75 5.75 0 3.17-2.58 5.75-5.75 5.75 -3.18 0-5.75-2.58-5.75-5.75Z"/><path d="M11.27 11.62c-.32.69-.53 1.71-.53 2.87 0 1.16.21 2.17.52 2.87 .15.34.32.58.46.72 .14.13.22.14.26.14 .03 0 .11-.02.26-.15 .14-.14.31-.38.46-.73 .31-.7.52-1.72.52-2.88 0-1.17-.22-2.18-.53-2.88 -.16-.35-.33-.59-.47-.73 -.15-.14-.23-.15-.27-.15 -.04 0-.12.01-.27.14 -.15.13-.32.37-.47.72ZM10.7 9.8c.33-.33.77-.57 1.29-.57s.95.24 1.29.56c.33.31.59.73.8 1.2 .41.93.65 2.16.65 3.48 0 1.32-.24 2.55-.66 3.48 -.21.46-.48.88-.81 1.2 -.34.32-.78.56-1.3.56 -.53 0-.96-.25-1.3-.57 -.34-.32-.6-.74-.81-1.21 -.42-.94-.66-2.17-.66-3.49 0-1.33.23-2.56.65-3.49 .2-.47.47-.89.8-1.21Z"/><path d="M6.25 14.5c0-.42.33-.75.75-.75h10c.41 0 .75.33.75.75 0 .41-.34.75-.75.75H7c-.42 0-.75-.34-.75-.75Z"/></g></g></svg>