<svg viewBox="0 0 24 24" xmlns="http://www.w3.org/2000/svg"><path fill="#ECEFF1" d="M2 1.25c-.42 0-.75.33-.75.75v20c0 .41.33.75.75.75h20c.41 0 .75-.34.75-.75V2c0-.42-.34-.75-.75-.75H2Z"/><path fill="#5E94FF" d="M2 1.25c-.42 0-.75.33-.75.75v5c0 .41.33.75.75.75h20c.41 0 .75-.34.75-.75V2c0-.42-.34-.75-.75-.75H2Z"/><g fill="#ECEFF1" fill-rule="evenodd"><path d="M3.75 4.5c0-.42.33-.75.75-.75h2c.41 0 .75.33.75.75 0 .41-.34.75-.75.75h-2c-.42 0-.75-.34-.75-.75Z"/><path d="M7.75 4.5c0-.42.33-.75.75-.75h2c.41 0 .75.33.75.75 0 .41-.34.75-.75.75h-2c-.42 0-.75-.34-.75-.75Z"/><path d="M11.75 4.5c0-.42.33-.75.75-.75h2c.41 0 .75.33.75.75 0 .41-.34.75-.75.75h-2c-.42 0-.75-.34-.75-.75Z"/><path fill="#8B98A6" d="M9.25 11.5c0-1.52 1.23-2.75 2.75-2.75 1.51 0 2.75 1.23 2.75 2.75v1c0 .41-.34.75-.75.75h-4c-.42 0-.75-.34-.75-.75v-1ZM12 10.25c-.7 0-1.25.55-1.25 1.25v.25h2.5v-.25c0-.7-.56-1.25-1.25-1.25Z"/></g><path fill="#FFC44D" d="M8 11.75c-1.25 0-2.25 1-2.25 2.25v4c0 1.24 1 2.25 2.25 2.25h8c1.24 0 2.25-1.01 2.25-2.25v-4c0-1.25-1.01-2.25-2.25-2.25H8Z"/></svg>