<svg viewBox="0 0 24 24" xmlns="http://www.w3.org/2000/svg"><path fill="#8B98A6" d="M10 1.25c-.42 0-.75.33-.75.75v1.69c-.41.13-.81.29-1.19.48l-1.2-1.2c-.3-.3-.77-.3-1.07 0L2.96 5.79c-.15.14-.22.33-.22.53 0 .19.07.38.21.53l1.19 1.19c-.2.37-.36.77-.49 1.18h-1.7c-.42 0-.75.33-.75.75v4c0 .41.33.75.75.75h1.69c.13.4.29.8.48 1.18l-1.2 1.19c-.3.29-.3.76 0 1.06l2.82 2.82c.29.29.76.29 1.06 0l1.19-1.2c.37.19.77.35 1.18.48v1.69c0 .41.33.75.75.75h4c.41 0 .75-.34.75-.75v-1.7c.4-.14.8-.3 1.18-.49l1.19 1.19c.29.29.76.29 1.06 0l2.82-2.83c.14-.15.21-.34.21-.54s-.08-.39-.22-.54l-1.2-1.2c.19-.38.35-.78.48-1.19h1.69c.41 0 .75-.34.75-.75v-4c0-.42-.34-.75-.75-.75h-1.7c-.14-.41-.3-.81-.49-1.19l1.19-1.2c.14-.15.21-.34.21-.54s-.08-.39-.22-.54l-2.83-2.83c-.3-.3-.77-.3-1.07 0l-1.2 1.19c-.38-.2-.78-.36-1.19-.49v-1.7c0-.42-.34-.75-.75-.75h-4Z"/><path fill="#ECEFF1" d="M12.26 6.29c-.17-.07-.36-.07-.53 0l-4.01 1.5c-.3.1-.49.38-.49.7v3.86c0 .93.4 1.82 1.1 2.44l3.14 2.75c.28.24.7.24.98 0l3.14-2.76c.7-.62 1.1-1.51 1.1-2.45V8.46c0-.32-.2-.6-.49-.71l-4-1.5Z"/><path fill="#8B98A6" fill-rule="evenodd" d="M14.53 9.96c.29.29.29.76 0 1.06l-2.5 2.5c-.3.29-.77.29-1.07 0l-1.51-1.5c-.3-.3-.3-.77 0-1.07 .29-.3.76-.3 1.06 0l.96.96 1.96-1.97c.29-.3.76-.3 1.06 0Z"/></svg>