<svg viewBox="0 0 24 24" xmlns="http://www.w3.org/2000/svg"><path fill="#ECEFF1" d="M10 1.25c-4.84 0-8.75 3.91-8.75 8.75 0 4.83 3.91 8.75 8.75 8.75 4.83 0 8.75-3.92 8.75-8.75 0-4.84-3.92-8.75-8.75-8.75Z"/><g fill="#8B98A6" fill-rule="evenodd"><path d="M10 2.75c-4.01 0-7.25 3.24-7.25 7.25 0 4 3.24 7.25 7.25 7.25 4 0 7.25-3.25 7.25-7.25 0-4.01-3.25-7.25-7.25-7.25ZM1.25 10c0-4.84 3.91-8.75 8.75-8.75 4.83 0 8.75 3.91 8.75 8.75 0 4.83-3.92 8.75-8.75 8.75 -4.84 0-8.75-3.92-8.75-8.75Z"/><path d="M15.46 15.46c.29-.3.76-.3 1.06 0l6 6c.29.29.29.76 0 1.06 -.3.29-.77.29-1.07 0l-6-6c-.3-.3-.3-.77 0-1.07Z"/><g fill="#8BC94D"><path d="M13.53 4.46c.29.29.29.76 0 1.06l-4 4c-.3.29-.77.29-1.07 0l-2-2c-.3-.3-.3-.77 0-1.07 .29-.3.76-.3 1.06 0l1.46 1.46 3.46-3.47c.29-.3.76-.3 1.06 0Z"/><path d="M5.75 11.5c0-.42.33-.75.75-.75h7c.41 0 .75.33.75.75 0 .41-.34.75-.75.75h-7c-.42 0-.75-.34-.75-.75Z"/><path d="M5.75 14.5c0-.42.33-.75.75-.75h7c.41 0 .75.33.75.75 0 .41-.34.75-.75.75h-7c-.42 0-.75-.34-.75-.75Z"/></g></g></svg>