<svg viewBox="0 0 24 24" xmlns="http://www.w3.org/2000/svg"><path fill="#ECEFF1" d="M2 1.25c-.42 0-.75.33-.75.75v20c0 .41.33.75.75.75h20c.41 0 .75-.34.75-.75V2c0-.42-.34-.75-.75-.75H2Z"/><path fill="#5E94FF" d="M2 1.25c-.42 0-.75.33-.75.75v5c0 .41.33.75.75.75h20c.41 0 .75-.34.75-.75V2c0-.42-.34-.75-.75-.75H2Z"/><g fill="#ECEFF1" fill-rule="evenodd"><path d="M3.75 4.5c0-.42.33-.75.75-.75h2c.41 0 .75.33.75.75 0 .41-.34.75-.75.75h-2c-.42 0-.75-.34-.75-.75Z"/><path d="M7.75 4.5c0-.42.33-.75.75-.75h2c.41 0 .75.33.75.75 0 .41-.34.75-.75.75h-2c-.42 0-.75-.34-.75-.75Z"/><path d="M11.75 4.5c0-.42.33-.75.75-.75h2c.41 0 .75.33.75.75 0 .41-.34.75-.75.75h-2c-.42 0-.75-.34-.75-.75Z"/></g><path fill="#CFD8DC" d="M12.64 9.25c-.7 0-1.32.4-1.6 1.03l-1.74 3.9c-.05.09-.07.19-.07.3v4.5c0 .41.33.75.75.75h6.99c.96 0 1.75-.79 1.75-1.75v-3.5c0-.97-.79-1.75-1.75-1.75h-2.25v-1.75c0-.97-.79-1.75-1.75-1.75h-.36Z"/><path fill="#5E94FF" d="M6 12.75c-.42 0-.75.33-.75.75v6c0 .41.33.75.75.75h4c.41 0 .75-.34.75-.75v-6c0-.42-.34-.75-.75-.75H6Z"/></svg>