<svg viewBox="0 0 24 24" xmlns="http://www.w3.org/2000/svg"><path fill="#ECEFF1" d="M2 1.25c-.42 0-.75.33-.75.75v20c0 .41.33.75.75.75h20c.41 0 .75-.34.75-.75V2c0-.42-.34-.75-.75-.75H2Z"/><path fill="#5E94FF" d="M2 1.25c-.42 0-.75.33-.75.75v5c0 .41.33.75.75.75h20c.41 0 .75-.34.75-.75V2c0-.42-.34-.75-.75-.75H2Z"/><g fill="#ECEFF1" fill-rule="evenodd"><path d="M3.75 4.5c0-.42.33-.75.75-.75h2c.41 0 .75.33.75.75 0 .41-.34.75-.75.75h-2c-.42 0-.75-.34-.75-.75Z"/><path d="M7.75 4.5c0-.42.33-.75.75-.75h2c.41 0 .75.33.75.75 0 .41-.34.75-.75.75h-2c-.42 0-.75-.34-.75-.75Z"/><path d="M11.75 4.5c0-.42.33-.75.75-.75h2c.41 0 .75.33.75.75 0 .41-.34.75-.75.75h-2c-.42 0-.75-.34-.75-.75Z"/></g><path fill="#4DC4FF" d="M9 11.25c-.42 0-.75.33-.75.75v5c0 .85.67 1.42 1.29 1.73 .66.33 1.53.51 2.45.51 .91 0 1.78-.19 2.45-.52 .62-.32 1.29-.89 1.29-1.74v-5c0-.42-.34-.75-.75-.75h-6Z"/><path fill="#71D0FF" d="M12 9.75c-.92 0-1.79.18-2.46.51 -.63.31-1.3.88-1.3 1.73s.67 1.42 1.29 1.73c.66.33 1.53.51 2.45.51 .91 0 1.78-.19 2.45-.52 .62-.32 1.29-.89 1.29-1.74 0-.86-.68-1.43-1.3-1.74 -.67-.34-1.54-.52-2.46-.52Z"/></svg>