<svg viewBox="0 0 24 24" xmlns="http://www.w3.org/2000/svg"><path fill="#ECEFF1" d="M2 1.25c-.42 0-.75.33-.75.75v20c0 .41.33.75.75.75h20c.41 0 .75-.34.75-.75V2c0-.42-.34-.75-.75-.75H2Z"/><path fill="#5E94FF" d="M2 1.25c-.42 0-.75.33-.75.75v5c0 .41.33.75.75.75h20c.41 0 .75-.34.75-.75V2c0-.42-.34-.75-.75-.75H2Z"/><g fill="#ECEFF1" fill-rule="evenodd"><path d="M3.75 4.5c0-.42.33-.75.75-.75h2c.41 0 .75.33.75.75 0 .41-.34.75-.75.75h-2c-.42 0-.75-.34-.75-.75Z"/><path d="M7.75 4.5c0-.42.33-.75.75-.75h2c.41 0 .75.33.75.75 0 .41-.34.75-.75.75h-2c-.42 0-.75-.34-.75-.75Z"/><path d="M11.75 4.5c0-.42.33-.75.75-.75h2c.41 0 .75.33.75.75 0 .41-.34.75-.75.75h-2c-.42 0-.75-.34-.75-.75Z"/></g><path fill="#EE4D4D" d="M12.64 9.6c-.14-.23-.38-.36-.64-.36 -.27 0-.51.13-.64.35l-5.5 8.99c-.15.23-.15.52-.02.75 .13.23.38.38.65.38h11c.27 0 .52-.15.65-.39 .13-.24.12-.53-.02-.76l-5.5-9Z"/></svg>