<svg viewBox="0 0 24 24" xmlns="http://www.w3.org/2000/svg"><g fill-rule="evenodd"><path d="M1.25 15c0-.97.78-1.75 1.75-1.75h2c.41 0 .75.33.75.75v6c0 .41-.34.75-.75.75H3c-.97 0-1.75-.79-1.75-1.75v-4ZM3 14.75c-.14 0-.25.11-.25.25v4c0 .13.11.25.25.25h1.25v-4.5H3Z"/><path d="M18.25 14c0-.42.33-.75.75-.75h2c.96 0 1.75.78 1.75 1.75v4c0 .96-.79 1.75-1.75 1.75h-2c-.42 0-.75-.34-.75-.75v-6Zm1.5.75v4.5H21c.13 0 .25-.12.25-.25v-4c0-.14-.12-.25-.25-.25h-1.25Z"/><path d="M4.25 4c0-.97.78-1.75 1.75-1.75h12c.96 0 1.75.78 1.75 1.75v3c0 .41-.34.75-.75.75 -.42 0-.75-.34-.75-.75V4c0-.14-.12-.25-.25-.25H6c-.14 0-.25.11-.25.25v16c0 .41-.34.75-.75.75 -.42 0-.75-.34-.75-.75V4ZM19 10.25c.41 0 .75.33.75.75v9c0 .41-.34.75-.75.75 -.42 0-.75-.34-.75-.75v-9c0-.42.33-.75.75-.75Z"/><path d="M13.27 6.46c-.69.68-1.8.68-2.48 0 -.3-.3-.77-.3-1.07 0 -.3.29-.3.76 0 1.06 1.26 1.26 3.32 1.26 4.59 0 .29-.3.29-.77 0-1.07 -.3-.3-.77-.3-1.07 0Z"/><path d="M15.04 9.23c-1.66 1.65-4.36 1.65-6.02 0 -.3-.3-.77-.3-1.07 0 -.3.29-.3.76 0 1.06 2.24 2.24 5.88 2.24 8.13 0 .29-.3.29-.77 0-1.07 -.3-.3-.77-.3-1.07 0Z"/></g></svg>