<svg viewBox="0 0 24 24" xmlns="http://www.w3.org/2000/svg"><g fill-rule="evenodd"><path d="M2.25 5c0-.42.33-.75.75-.75h17c.41 0 .75.33.75.75v9c0 .41-.34.75-.75.75H3c-.42 0-.75-.34-.75-.75 0-.42.33-.75.75-.75h16.25v-7.5H3c-.42 0-.75-.34-.75-.75Z"/><path d="M2.25 3c0-.97.78-1.75 1.75-1.75h15c.96 0 1.75.78 1.75 1.75v15c0 .96-.79 1.75-1.75 1.75H4c-.97 0-1.75-.79-1.75-1.75v-7c0-.42.33-.75.75-.75 .41 0 .75.33.75.75v7c0 .13.11.25.25.25h15c.13 0 .25-.12.25-.25V3c0-.14-.12-.25-.25-.25H4c-.14 0-.25.11-.25.25v4c0 .41-.34.75-.75.75 -.42 0-.75-.34-.75-.75V3Z"/><path d="M4 18.25c.41 0 .75.33.75.75v2c0 .13.11.25.25.25h2.5c.13 0 .25-.12.25-.25v-2c0-.42.33-.75.75-.75 .41 0 .75.33.75.75v2c0 .96-.79 1.75-1.75 1.75H5c-.97 0-1.75-.79-1.75-1.75v-2c0-.42.33-.75.75-.75Z"/><path d="M14.5 18.25c.41 0 .75.33.75.75v2c0 .13.11.25.25.25H18c.13 0 .25-.12.25-.25v-2c0-.42.33-.75.75-.75 .41 0 .75.33.75.75v2c0 .96-.79 1.75-1.75 1.75h-2.5c-.97 0-1.75-.79-1.75-1.75v-2c0-.42.33-.75.75-.75Z"/><path d="M13.75 16.5c0-.42.33-.75.75-.75h3c.41 0 .75.33.75.75 0 .41-.34.75-.75.75h-3c-.42 0-.75-.34-.75-.75Z"/><path d="M4.75 16.5c0-.42.33-.75.75-.75h3c.41 0 .75.33.75.75 0 .41-.34.75-.75.75h-3c-.42 0-.75-.34-.75-.75Z"/></g></svg>