<svg viewBox="0 0 24 24" xmlns="http://www.w3.org/2000/svg"><g fill-rule="evenodd"><path d="M1.25 7c0-.42.33-.75.75-.75h20c.41 0 .75.33.75.75v3c0 .41-.34.75-.75.75 -.97 0-1.75.78-1.75 1.75 0 .96.78 1.75 1.75 1.75 .41 0 .75.33.75.75v3c0 .41-.34.75-.75.75H8c-.42 0-.75-.34-.75-.75 0-.42.33-.75.75-.75h13.25v-1.59c-1.44-.34-2.5-1.63-2.5-3.17s1.06-2.83 2.5-3.17V7.73H2.75v1.58c1.43.33 2.5 1.62 2.5 3.16 0 1.53-1.07 2.82-2.5 3.16v1.58H4c.41 0 .75.33.75.75 0 .41-.34.75-.75.75H2c-.42 0-.75-.34-.75-.75v-3c0-.42.33-.75.75-.75 .96 0 1.75-.79 1.75-1.75 0-.97-.79-1.75-1.75-1.75 -.42 0-.75-.34-.75-.75v-3Z"/><path d="M8.75 9.5c0-.42.33-.75.75-.75h5c.41 0 .75.33.75.75V14c0 .41-.34.75-.75.75h-5c-.42 0-.75-.34-.75-.75V9.5Zm1.5.75v3h3.5v-3h-3.5Z"/><path d="M10.5 13.25c.41 0 .75.33.75.75v2c0 .41-.34.75-.75.75 -.42 0-.75-.34-.75-.75v-2c0-.42.33-.75.75-.75Z"/><path d="M13.5 13.25c.41 0 .75.33.75.75v2c0 .41-.34.75-.75.75 -.42 0-.75-.34-.75-.75v-2c0-.42.33-.75.75-.75Z"/></g></svg>