<svg viewBox="0 0 24 24" xmlns="http://www.w3.org/2000/svg"><g fill-rule="evenodd"><path d="M5.25 5c0-.42.33-.75.75-.75h6c.41 0 .75.33.75.75v17c0 .41-.34.75-.75.75H6c-.42 0-.75-.34-.75-.75v-2c0-.42.33-.75.75-.75 .41 0 .75.33.75.75v1.25h4.5V5.75h-4.5V16c0 .41-.34.75-.75.75 -.42 0-.75-.34-.75-.75V5Z"/><path d="M11.65 6.83c.24-.13.55-.11.77.05l3.5 2.5c.19.14.31.36.31.61v12c0 .41-.34.75-.75.75h-3.5c-.42 0-.75-.34-.75-.75V7.49c0-.29.15-.54.4-.67Zm1.09 2.12v12.29h2V10.37l-2-1.43Z"/><path d="M15.15 11.83c.24-.13.55-.11.77.05l3.5 2.5c.19.14.31.36.31.61v7c0 .41-.34.75-.75.75h-3.5c-.42 0-.75-.34-.75-.75v-9.5c0-.29.15-.54.4-.67Zm1.09 2.12v7.29h2v-5.87l-2-1.43Z"/><path d="M2.25 22c0-.42.33-.75.75-.75h18c.41 0 .75.33.75.75 0 .41-.34.75-.75.75H3c-.42 0-.75-.34-.75-.75Z"/><path d="M7 1.25c.41 0 .75.33.75.75v3c0 .41-.34.75-.75.75 -.42 0-.75-.34-.75-.75V2c0-.42.33-.75.75-.75Z"/><path d="M10 2.25c.41 0 .75.33.75.75v2c0 .41-.34.75-.75.75 -.42 0-.75-.34-.75-.75V3c0-.42.33-.75.75-.75Z"/><path d="M9 4.25c.41 0 .75.33.75.75v17c0 .41-.34.75-.75.75 -.42 0-.75-.34-.75-.75V5c0-.42.33-.75.75-.75Z"/></g></svg>