<svg viewBox="0 0 24 24" xmlns="http://www.w3.org/2000/svg"><g fill-rule="evenodd"><path d="M3.75 3c0-.97.78-1.75 1.75-1.75h11c.96 0 1.75.78 1.75 1.75v7.5c0 .41-.34.75-.75.75 -.42 0-.75-.34-.75-.75V3c0-.14-.12-.25-.25-.25h-11c-.14 0-.25.11-.25.25v1c0 .41-.34.75-.75.75 -.42 0-.75-.34-.75-.75V3Zm.75 4.25c.41 0 .75.33.75.75v13c0 .13.11.25.25.25h6c.41 0 .75.33.75.75 0 .41-.34.75-.75.75h-6c-.97 0-1.75-.79-1.75-1.75V8c0-.42.33-.75.75-.75Z"/><path d="M20.03 15.71c.29.29.29.76 0 1.06l-2.5 2.5c-.3.29-.77.29-1.07 0l-1.51-1.5c-.3-.3-.3-.77-.01-1.07 .29-.3.76-.3 1.06-.01l.96.96 1.96-1.97c.29-.3.76-.3 1.06 0Z"/><path d="M17.5 13.75c-2.08 0-3.75 1.67-3.75 3.75 0 2.07 1.67 3.75 3.75 3.75 2.07 0 3.75-1.68 3.75-3.75 0-2.08-1.68-3.75-3.75-3.75Zm-5.25 3.75c0-2.9 2.35-5.25 5.25-5.25 2.89 0 5.25 2.35 5.25 5.25 0 2.89-2.36 5.25-5.25 5.25 -2.9 0-5.25-2.36-5.25-5.25Z"/><path d="M7.25 6c0-.42.33-.75.75-.75h6c.41 0 .75.33.75.75 0 .41-.34.75-.75.75H8c-.42 0-.75-.34-.75-.75Z"/><path d="M7.25 10c0-.42.33-.75.75-.75h6c.41 0 .75.33.75.75 0 .41-.34.75-.75.75H8c-.42 0-.75-.34-.75-.75Z"/></g></svg>