<svg viewBox="0 0 24 24" xmlns="http://www.w3.org/2000/svg"><g fill-rule="evenodd"><path d="M11.75 3c0-.97.78-1.75 1.75-1.75h5c.96 0 1.75.78 1.75 1.75v1c0 .96-.79 1.75-1.75 1.75h-5c-.97 0-1.75-.79-1.75-1.75V3Zm1.75-.25c-.14 0-.25.11-.25.25v1c0 .13.11.25.25.25h5c.13 0 .25-.12.25-.25V3c0-.14-.12-.25-.25-.25h-5Z"/><path d="M1.25 19c0-2.08 1.67-3.75 3.75-3.75h7c2.07 0 3.75 1.67 3.75 3.75v2c0 .96-.79 1.75-1.75 1.75H3c-.97 0-1.75-.79-1.75-1.75v-2ZM5 16.75c-1.25 0-2.25 1-2.25 2.25v2c0 .13.11.25.25.25h11c.13 0 .25-.12.25-.25v-2c0-1.25-1.01-2.25-2.25-2.25H5Z"/><path d="M12.75 5c0-.42.33-.75.75-.75h5c.41 0 .75.33.75.75v1.65c0 .5.3.96.77 1.14 1.03.41 1.72 1.42 1.72 2.54v3.65c0 .41-.34.75-.75.75 -.42 0-.75-.34-.75-.75v-3.66c0-.51-.31-.97-.78-1.15 -1.04-.42-1.73-1.43-1.73-2.55v-.91h-3.5v.9c0 1.11-.69 2.12-1.73 2.54 -.48.18-.78.64-.78 1.14v5.65c0 .41-.34.75-.75.75 -.42 0-.75-.34-.75-.75v-5.66c0-1.12.68-2.13 1.72-2.55 .47-.19.77-.65.77-1.15V4.92ZM21 17.25c.41 0 .75.33.75.75v2c0 1.51-1.24 2.75-2.75 2.75h-6c-.42 0-.75-.34-.75-.75 0-.42.33-.75.75-.75h6c.69 0 1.25-.56 1.25-1.25v-2c0-.42.33-.75.75-.75Z"/><path d="M11.52 11.03c1.61-.54 3.37-.46 4.93.23 1.31.58 2.8.61 4.14.07l.11-.05c.38-.16.82.03.97.41 .15.38-.04.82-.42.97l-.12.04c-1.72.68-3.63.64-5.32-.11 -1.22-.55-2.59-.61-3.86-.19l-.77.25c-.4.13-.82-.09-.95-.48 -.14-.4.08-.82.47-.95l.76-.26Z"/><path d="M5.5 15.25c.41 0 .75.33.75.75v2.5c0 .41-.34.75-.75.75 -.42 0-.75-.34-.75-.75V16c0-.42.33-.75.75-.75Z"/><path d="M8.5 15.25c.41 0 .75.33.75.75v2.5c0 .41-.34.75-.75.75 -.42 0-.75-.34-.75-.75V16c0-.42.33-.75.75-.75Z"/><path d="M11.5 15.25c.41 0 .75.33.75.75v2.5c0 .41-.34.75-.75.75 -.42 0-.75-.34-.75-.75V16c0-.42.33-.75.75-.75Z"/></g></svg>