<svg viewBox="0 0 24 24" xmlns="http://www.w3.org/2000/svg"><g fill-rule="evenodd"><path d="M2.25 4c0-.42.33-.75.75-.75h18c.41 0 .75.33.75.75 0 .41-.34.75-.75.75H3c-.42 0-.75-.34-.75-.75Z"/><path d="M19 3.25c.32 0 .6.2.71.51l3 8.99c.13.39-.09.81-.48.94 -.4.13-.82-.09-.95-.48l-2.29-6.87 -2.29 6.86c-.14.39-.56.6-.95.47 -.4-.14-.61-.56-.48-.95l3-9c.1-.31.38-.52.71-.52Z"/><path d="M4.99 3.25c.32 0 .6.2.71.51l3 8.99c.13.39-.09.81-.48.94 -.4.13-.82-.09-.95-.48L4.98 6.34 2.69 13.2c-.14.39-.56.6-.95.47 -.4-.14-.61-.56-.48-.95l3-9c.1-.31.38-.52.71-.52Z"/><path d="M12 1.25c.41 0 .75.33.75.75v4c0 .41-.34.75-.75.75 -.42 0-.75-.34-.75-.75V2c0-.42.33-.75.75-.75Zm0 8c.41 0 .75.33.75.75v9c0 .41-.34.75-.75.75 -.42 0-.75-.34-.75-.75v-9c0-.42.33-.75.75-.75Z"/><path d="M7.25 21c0-1.52 1.23-2.75 2.75-2.75h4c1.51 0 2.75 1.23 2.75 2.75v1c0 .41-.34.75-.75.75H8c-.42 0-.75-.34-.75-.75v-1ZM10 19.75c-.7 0-1.25.55-1.25 1.25v.25h6.5V21c0-.7-.56-1.25-1.25-1.25h-4Z"/><path d="M15.25 13c0-.42.33-.75.75-.75h6c.41 0 .75.33.75.75 0 2.07-1.68 3.75-3.75 3.75 -2.08 0-3.75-1.68-3.75-3.75Zm1.62.75c.3.87 1.14 1.5 2.122 1.5 .97 0 1.81-.63 2.122-1.5H16.87Z"/><path d="M1.25 13c0-.42.33-.75.75-.75h6c.41 0 .75.33.75.75 0 2.07-1.68 3.75-3.75 3.75 -2.08 0-3.75-1.68-3.75-3.75Zm1.62.75c.3.87 1.14 1.5 2.12 1.5 .97 0 1.81-.63 2.12-1.5H2.86Z"/></g></svg>