<svg viewBox="0 0 24 24" xmlns="http://www.w3.org/2000/svg"><g fill-rule="evenodd"><path d="M12 6.75c-.7 0-1.25.55-1.25 1.25 0 .69.55 1.25 1.25 1.25 .69 0 1.25-.56 1.25-1.25 0-.7-.56-1.25-1.25-1.25ZM9.25 8c0-1.52 1.23-2.75 2.75-2.75 1.51 0 2.75 1.23 2.75 2.75 0 1.51-1.24 2.75-2.75 2.75 -1.52 0-2.75-1.24-2.75-2.75Z"/><path d="M12 11.75c-1.25 0-2.25 1-2.25 2.25 0 .41-.34.75-.75.75 -.42 0-.75-.34-.75-.75 0-2.08 1.67-3.75 3.75-3.75 2.07 0 3.75 1.67 3.75 3.75 0 .41-.34.75-.75.75 -.42 0-.75-.34-.75-.75 0-1.25-1.01-2.25-2.25-2.25Z"/><path d="M12 2.75c-4.01 0-7.25 3.24-7.25 7.25 0 2.23 1.25 4.56 2.84 6.59 .25.32.19.79-.13 1.05 -.33.25-.8.19-1.06-.13 -1.65-2.11-3.16-4.77-3.16-7.52 0-4.84 3.91-8.75 8.75-8.75 4.83 0 8.75 3.91 8.75 8.75 0 3.29-2.18 6.47-4.19 8.74 -1.03 1.15-2.06 2.11-2.82 2.78 -.39.33-.71.6-.94.78 -.12.09-.21.16-.27.2 -.04.02-.06.04-.08.05l-.02.01 -.01 0 -.01 0c-.01 0-.01 0-.46-.6l-.46.6 -.01-.01 -.01-.01 -.02-.02c-.01-.01-.01-.01-.02-.02 -.02-.01-.03-.03-.05-.04 -.05-.04-.12-.1-.21-.17 -.19-.15-.44-.36-.75-.62 -.32-.27-.36-.75-.09-1.06 .26-.32.74-.36 1.05-.09 .19.16.36.31.51.42 .19-.17.45-.38.75-.64 .73-.65 1.7-1.56 2.68-2.66 1.98-2.24 3.81-5.048 3.81-7.76 0-4.01-3.25-7.25-7.25-7.25ZM12 22l-.46.6c.26.19.63.2.9 0l-.45-.6Z"/></g></svg>