<svg viewBox="0 0 24 24" xmlns="http://www.w3.org/2000/svg"><g fill-rule="evenodd"><path d="M12 2.75c-1.52 0-2.75 1.23-2.75 2.75 0 1.51 1.23 2.75 2.75 2.75 1.51 0 2.75-1.24 2.75-2.75 0-.42.33-.75.75-.75 .41 0 .75.33.75.75 0 2.34-1.91 4.25-4.25 4.25 -2.35 0-4.25-1.91-4.25-4.25 0-2.35 1.9-4.25 4.25-4.25 .42 0 .82.06 1.21.17 .39.11.62.53.5.93 -.12.39-.54.62-.94.5 -.25-.08-.52-.12-.79-.12Z"/><path d="M4.25 16.5c0-.42.33-.75.75-.75h14c.41 0 .75.33.75.75v3c0 .41-.34.75-.75.75H5c-.42 0-.75-.34-.75-.75v-3Zm1.5.75v1.5h12.5v-1.5H5.75Z"/><path d="M14 7.75c.41 0 .75.33.75.75v4c0 1.79 1.45 3.25 3.25 3.25h.5c.41 0 .75.33.75.75 0 .41-.34.75-.75.75H18c-2.63 0-4.75-2.13-4.75-4.75v-4c0-.42.33-.75.75-.75Z"/><path d="M10 7.75c-.42 0-.75.33-.75.75v4c0 1.79-1.46 3.25-3.25 3.25h-.5c-.42 0-.75.33-.75.75 0 .41.33.75.75.75H6c2.62 0 4.75-2.13 4.75-4.75v-4c0-.42-.34-.75-.75-.75Z"/><path d="M5.25 19.5c0-.42.33-.75.75-.75h12c.41 0 .75.33.75.75v.5c0 1.51-1.24 2.75-2.75 2.75H8c-1.52 0-2.75-1.24-2.75-2.75v-.5Zm1.52.75c.11.57.62 1 1.22 1h8c.6 0 1.1-.43 1.22-1H6.76Z"/></g></svg>