<svg viewBox="0 0 24 24" xmlns="http://www.w3.org/2000/svg"><g fill-rule="evenodd"><path d="M13.59 2.11c-.81-1.06-2.39-1.06-3.19 0l-1 1.3 -1.63-.23c-1.32-.19-2.44.94-2.26 2.25l.22 1.62 -1.31.99c-1.06.8-1.06 2.38 0 3.18l1.3.99 -.23 1.62c-.19 1.31.94 2.43 2.25 2.25l1.62-.23 .99 1.3c.8 1.05 2.38 1.05 3.18 0l.99-1.31 1.62.22c1.31.18 2.43-.95 2.25-2.26l-.23-1.63 1.3-1c1.05-.81 1.05-2.39 0-3.19l-1.31-1 .22-1.63c.18-1.32-.95-2.44-2.26-2.26l-1.63.22 -1-1.31Z"/><path d="M8.49 20.13v-4.97h-2v6.5c0 .33.17.65.45.83 .28.18.64.21.95.07l4.09-1.82 4.09 1.81c.3.13.66.1.95-.08 .28-.19.45-.5.45-.84v-6.5h-2v4.96l-3.1-1.38c-.26-.12-.56-.12-.82 0l-3.1 1.37Z"/></g></svg>