<svg viewBox="0 0 24 24" xmlns="http://www.w3.org/2000/svg"><g fill-rule="evenodd"><path d="M22.7 19.7l-.85.84c-1.02 1.01-2.6 1.16-3.79.37l-.53-.36c-.34-.23-.78-.23-1.11 0l-.79.52c-1.01.67-2.33.67-3.33 0l-.79-.53c-.34-.23-.78-.23-1.11 0l-.79.52c-1.01.67-2.33.67-3.33 0l-.79-.53c-.34-.23-.78-.23-1.11 0l-1.9 1.26 -1.11-1.67 1.89-1.27c1-.68 2.32-.68 3.32 0l.78.52c.33.22.77.22 1.1 0l.78-.53c1-.68 2.32-.68 3.32 0l.78.52c.33.22.77.22 1.1 0l.78-.53c1-.68 2.32-.68 3.32 0l.52.35c.39.26.92.21 1.26-.13l.84-.85 1.41 1.41Z"/><path d="M8.14 8.71c-.16-.1-.35-.16-.53-.16l-4.38 0c-.27 0-.52.1-.71.29 -.19.18-.3.44-.3.7l0 3.06c0 .83.51 1.57 1.29 1.87l4.23 1.59 3.02 1.13c1.54.58 3.26-.24 3.79-1.81 .41-1.25-.05-2.63-1.15-3.36l-1.31-.88c-.01-.01-.02-.02-.03-.02L8.08 8.65Z"/><path d="M3.35 2.86l.87 6.56 -1.99.26 -.88-6.57 1.98-.27Z"/><path d="M7.49 2.86l-.88 6.56 1.98.26 .87-6.57 -1.99-.27Z"/><path d="M19.5 11c-1.94 0-3.5 1.56-3.5 3.5 0 1.93 1.56 3.5 3.5 3.5 1.93 0 3.5-1.57 3.5-3.5 0-1.94-1.57-3.5-3.5-3.5Z"/></g></svg>