<svg viewBox="0 0 24 24" xmlns="http://www.w3.org/2000/svg"><g fill-rule="evenodd"><path d="M10.77 1c-2.9 0-5.19 2.44-4.99 5.33l.71 10.73c.03.52.47.93.99.93h12c.52 0 .96-.41.99-.94l.71-10.74c.19-2.89-2.1-5.34-4.99-5.34h-5.45Z"/><path d="M4.97 6.5c-1.91 0-3.34 1.76-2.94 3.62l.64 3c.29 1.38 1.51 2.37 2.93 2.37h1.38c.27 0 .54-.12.73-.32 .18-.21.28-.48.26-.76l-.5-7.01c-.04-.53-.48-.93-1-.93H4.94Z"/><path d="M5.5 18c0-1.11.89-2 2-2h12c1.1 0 2 .89 2 2v3c0 1.1-.9 2-2 2h-12c-1.11 0-2-.9-2-2v-3Zm14 0h-12v3h12v-3Z"/></g></svg>