<svg viewBox="0 0 24 24" xmlns="http://www.w3.org/2000/svg"><g fill-rule="evenodd"><path d="M16.5 13H7v-2h9.5v2Z"/><path d="M5.06 8.67c-.28-.19-.63-.23-.94-.11l-2.5 1c-.38.15-.63.51-.63.92v3c0 .4.24.77.62.92l2.5 1c.3.12.65.08.93-.11 .27-.19.43-.5.43-.83v-5c0-.34-.17-.65-.44-.83Zm14.81-.11c-.31-.13-.66-.09-.94.1 -.28.18-.44.49-.44.82v5c0 .33.16.64.43.82 .27.18.62.22.93.1l2.5-1c.37-.16.62-.52.62-.93v-3c0-.41-.25-.78-.63-.93l-2.5-1Z"/><path d="M3.5 9c0-.56.44-1 1-1h3c.55 0 1 .44 1 1v6c0 .55-.45 1-1 1h-3c-.56 0-1-.45-1-1V9Zm13-1c-.56 0-1 .44-1 1v6c0 .55.44 1 1 1h3c.55 0 1-.45 1-1V9c0-.56-.45-1-1-1h-3Z"/></g></svg>