<svg viewBox="0 0 24 24" xmlns="http://www.w3.org/2000/svg"><path fill-rule="evenodd" d="M19.38 9.49c-1.16-.27-2.25-.85-3.14-1.74 -.91-.91-1.49-2.01-1.75-3.16l-.01-.01 -.31-1.34c1.11-.21 2.17-.25 3.1-.12 .94.13 1.85.45 2.47 1.08 .62.62.94 1.53 1.08 2.47 .12.91.09 1.96-.11 3.05l-1.37-.26ZM7.04 7.04c1.57-1.58 3.41-2.64 5.21-3.27l.28 1.25v0c.27 1.2.81 2.36 1.61 3.38l-1.11 1.1 -.71-.71 -1.42 1.41 .7.7 -.71.7 -.71-.71 -1.42 1.41 .7.7 -1.11 1.1c-1.02-.81-2.18-1.35-3.39-1.62 -.03-.01-.05-.01-.07-.02l-1.23-.2c.62-1.83 1.7-3.7 3.29-5.3Zm-3.81 7.23c-.2 1.07-.23 2.11-.11 3.01 .13.94.45 1.85 1.08 2.47 .62.62 1.53.94 2.47 1.08 .91.12 1.96.09 3.05-.11l-.26-1.37c-.27-1.16-.85-2.25-1.74-3.14 -.9-.9-1.99-1.48-3.13-1.74l-1.39-.22Zm8.44 5.94c1.81-.63 3.67-1.71 5.25-3.29 1.58-1.59 2.65-3.45 3.28-5.27l-1.24-.23c-.02-.01-.03-.01-.04-.01 -1.21-.28-2.37-.82-3.39-1.62l-1.11 1.1 .7.7L13.7 13l-.71-.71 -.71.7 .7.7 -1.42 1.41 -.71-.71 -1.11 1.1c.8 1.01 1.34 2.17 1.61 3.38 0 .01 0 .02 0 .03l.23 1.23Z"/></svg>