<svg viewBox="0 0 24 24" xmlns="http://www.w3.org/2000/svg"><g fill-rule="evenodd"><path d="M12.47 1.11c-.31-.17-.69-.16-.99.02 -.31.18-.49.5-.49.85v7c0 .35.18.67.48.85 .3.18.67.18.98.02l6.5-3.5c.32-.18.52-.52.52-.89s-.21-.71-.53-.89l-6.5-3.5Z"/><path d="M12 12c-2.35 0-4.53.53-6.15 1.44 -1.6.89-2.86 2.28-2.86 4.05 0 1.76 1.26 3.15 2.85 4.05 1.62.91 3.79 1.44 6.14 1.44 2.34 0 4.52-.54 6.14-1.45 1.59-.9 2.85-2.29 2.85-4.06 0-1.77-1.27-3.16-2.86-4.06 -1.63-.92-3.8-1.45-6.15-1.45Zm-1 6V2h2v16h-2Z"/></g></svg>