<svg viewBox="0 0 24 24" xmlns="http://www.w3.org/2000/svg"><g fill-rule="evenodd"><path d="M11.82 7.25c.19 0 .38.07.53.21l4.17 4.17c.29.29.29.76 0 1.06L8.6 20.6c-.76.75-1.85.99-2.81.71l-.76.75c-.87.86-2.28.86-3.148 0 -.87-.87-.87-2.28 0-3.15l.52.52 -.53-.53 .75-.76c-.29-.97-.05-2.05.71-2.81l2.7-2.71c.29-.3.76-.3 1.06 0 .29.29.29.76 0 1.06l-2.71 2.7c-.43.42-.51 1.06-.24 1.57 .15.29.1.64-.14.88l-1.11 1.1c-.29.28-.29.74 0 1.02 .28.28.74.28 1.02 0l1.1-1.11c.23-.24.59-.29.88-.14 .5.26 1.14.18 1.57-.24l7.38-7.39 -3.12-3.12 -1.97 1.96c-.3.29-.77.29-1.07 0 -.3-.3-.3-.77 0-1.07l2.5-2.5c.14-.15.33-.22.53-.22Z"/><path d="M17.05 2.88c1.07-1.08 2.81-1.08 3.88 0l.17.17c1.07 1.07 1.07 2.81 0 3.88l-2.59 2.58c-.3.29-.77.29-1.07 0l-3-3c-.3-.3-.3-.77 0-1.07l2.58-2.59Zm2.82 1.06c-.49-.49-1.28-.49-1.77 0l-2.06 2.05 1.93 1.93 2.05-2.06c.48-.49.48-1.28 0-1.77l-.18-.18Z"/><path d="M12.96 3.96c.29-.3.76-.3 1.06 0l6 6c.29.29.29.76 0 1.06l-2.5 2.5c-.3.29-.77.29-1.07 0l-6-6c-.3-.3-.3-.77 0-1.07l2.5-2.5Zm-.91 3.03l4.93 4.93 1.43-1.44 -4.94-4.94 -1.44 1.43Z"/><path d="M5.5 4.75c-.42 0-.75.33-.75.75 0 .41.33.75.75.75 .41 0 .75-.34.75-.75 0-.42-.34-.75-.75-.75Zm-2.25.75c0-1.25 1-2.25 2.25-2.25 1.24 0 2.25 1 2.25 2.25 0 1.24-1.01 2.25-2.25 2.25 -1.25 0-2.25-1.01-2.25-2.25Z"/><path d="M5.5 1.25c.41 0 .75.33.75.75v2c0 .41-.34.75-.75.75 -.42 0-.75-.34-.75-.75V2c0-.42.33-.75.75-.75Z"/><path d="M1.25 5.5c0-.42.33-.75.75-.75h2c.41 0 .75.33.75.75 0 .41-.34.75-.75.75H2c-.42 0-.75-.34-.75-.75Z"/><path d="M5.5 6.25c.41 0 .75.33.75.75v2c0 .41-.34.75-.75.75 -.42 0-.75-.34-.75-.75V7c0-.42.33-.75.75-.75Z"/><path d="M6.25 5.5c0-.42.33-.75.75-.75h2c.41 0 .75.33.75.75 0 .41-.34.75-.75.75H7c-.42 0-.75-.34-.75-.75Z"/></g></svg>