<svg viewBox="0 0 24 24" xmlns="http://www.w3.org/2000/svg"><g fill-rule="evenodd"><path d="M1.25 12c0-.42.33-.75.75-.75h20c.41 0 .75.33.75.75 0 .41-.34.75-.75.75H2c-.42 0-.75-.34-.75-.75Z"/><path d="M3.26 14.84c.07-.35.37-.6.73-.6h16c.41 0 .75.33.75.75v7c0 .25-.13.48-.34.62 -.22.13-.48.16-.72.05l-16-7c-.33-.15-.51-.5-.44-.85Zm15.98 6v-5.11H7.57l11.66 5.1Z"/><path d="M3.26 9.15c.07.34.37.59.73.59h16c.41 0 .75-.34.75-.75v-7c0-.26-.13-.49-.34-.63 -.22-.14-.48-.17-.72-.06l-4 1.75c-.38.16-.56.6-.39.98 .16.37.6.55.98.38l2.94-1.3v5.1H7.54l4.71-2.07c.37-.17.55-.61.38-.99 -.17-.38-.61-.56-.99-.39l-8.01 3.5c-.33.14-.51.49-.44.84Z"/></g></svg>