<svg viewBox="0 0 24 24" xmlns="http://www.w3.org/2000/svg"><g fill-rule="evenodd"><path d="M1.25 2c0-.42.33-.75.75-.75h20c.41 0 .75.33.75.75v20c0 .41-.34.75-.75.75h-1.5c-.42 0-.75-.34-.75-.75 0-.42.33-.75.75-.75h.75V2.75H2.75v18.5H16.5c.41 0 .75.33.75.75 0 .41-.34.75-.75.75H2c-.42 0-.75-.34-.75-.75V2Z"/><path d="M8.5 1.25c.41 0 .75.33.75.75v20c0 .41-.34.75-.75.75 -.42 0-.75-.34-.75-.75V2c0-.42.33-.75.75-.75Z"/><path d="M15.5 1.25c.41 0 .75.33.75.75v20c0 .41-.34.75-.75.75 -.42 0-.75-.34-.75-.75V2c0-.42.33-.75.75-.75Z"/><path d="M1.25 15.5c0-.42.33-.75.75-.75h20c.41 0 .75.33.75.75 0 .41-.34.75-.75.75H2c-.42 0-.75-.34-.75-.75Z"/><path d="M1.25 8.5c0-.42.33-.75.75-.75h20c.41 0 .75.33.75.75 0 .41-.34.75-.75.75H2c-.42 0-.75-.34-.75-.75Z"/></g></svg>