<svg viewBox="0 0 24 24" xmlns="http://www.w3.org/2000/svg"><g fill-rule="evenodd"><path d="M3.72 1.3c.28-.12.61-.04.82.18l13 14c.2.21.25.53.13.81 -.12.27-.39.45-.69.45H9.33l-4.78 5.73c-.21.24-.54.33-.84.22 -.3-.11-.5-.39-.5-.71v-1c0-.42.33-.75.75-.75 .14 0 .27.04.39.1l4.03-4.84c.14-.18.35-.27.57-.27h6.28L4.69 3.87v13.09c0 .41-.34.75-.75.75 -.42 0-.75-.34-.75-.75v-15c0-.31.18-.59.47-.7Z"/><path d="M7.62 5.08c.22.34.13.81-.21 1.04l-3 2c-.35.22-.82.13-1.05-.21 -.23-.35-.14-.82.2-1.05l3-2c.34-.23.81-.14 1.04.2Z"/><path d="M10.1 7.55c.24.33.16.8-.17 1.04l-5.5 3.99c-.34.24-.81.16-1.05-.17 -.25-.34-.17-.81.16-1.05l5.5-4c.33-.25.8-.17 1.04.16Z"/><path d="M12.6 10.05c.24.33.18.8-.15 1.05l-8 6c-.34.24-.81.18-1.05-.15 -.25-.34-.19-.81.15-1.05l7.99-6.01c.33-.25.8-.19 1.05.15Z"/><path d="M14.6 12.55c.24.33.18.8-.15 1.05l-4 3c-.34.24-.81.18-1.05-.15 -.25-.34-.19-.81.15-1.05l3.99-3c.33-.25.8-.19 1.05.15Z"/><path d="M16 1.25c.41 0 .75.33.75.75v8c0 .41-.34.75-.75.75 -.42 0-.75-.34-.75-.75V2c0-.42.33-.75.75-.75Z"/><path d="M11.25 6c0-.42.33-.75.75-.75h8c.41 0 .75.33.75.75 0 .41-.34.75-.75.75h-8c-.42 0-.75-.34-.75-.75Z"/></g></svg>