<svg viewBox="0 0 24 24" xmlns="http://www.w3.org/2000/svg"><g fill-rule="evenodd"><path d="M17.25 2c0-.42.33-.75.75-.75h4c.41 0 .75.33.75.75 0 .41-.34.75-.75.75h-4c-.42 0-.75-.34-.75-.75Z"/><path d="M20 1.25c.41 0 .75.33.75.75v20c0 .41-.34.75-.75.75 -.42 0-.75-.34-.75-.75V2c0-.42.33-.75.75-.75Z"/><path d="M17.25 22c0-.42.33-.75.75-.75h4c.41 0 .75.33.75.75 0 .41-.34.75-.75.75h-4c-.42 0-.75-.34-.75-.75Z"/><path d="M1.25 2c0-.42.33-.75.75-.75h13c.41 0 .75.33.75.75v20c0 .41-.34.75-.75.75H2c-.42 0-.75-.34-.75-.75V8c0-.42.33-.75.75-.75 .41 0 .75.33.75.75v13.25h11.5V2.75H2.75V4c0 .41-.34.75-.75.75 -.42 0-.75-.34-.75-.75V2Z"/></g></svg>