<svg viewBox="0 0 24 24" xmlns="http://www.w3.org/2000/svg"><g fill-rule="evenodd"><path d="M15 10.25c.22 0 .44.1.58.28l4 5c.18.22.21.53.09.79 -.13.25-.39.42-.68.42h-8c-.42 0-.75-.34-.75-.75 0-.42.33-.75.75-.75h6.43l-2.44-3.05 -1.16 1.44c-.26.32-.74.37-1.06.11 -.33-.26-.38-.74-.12-1.06l1.74-2.19c.14-.18.35-.29.58-.29Z"/><path d="M1.25 2c0-.42.33-.75.75-.75h20c.41 0 .75.33.75.75v20c0 .41-.34.75-.75.75h-9c-.42 0-.75-.34-.75-.75 0-.42.33-.75.75-.75h8.25V2.75H2.75v18.5H9c.41 0 .75.33.75.75 0 .41-.34.75-.75.75H2c-.42 0-.75-.34-.75-.75V2Z"/><path d="M10 8.25c.24 0 .46.11.61.31l5 7c.16.22.18.52.05.77 -.13.24-.39.4-.67.4h-10c-.29 0-.54-.16-.67-.41 -.13-.25-.11-.56.05-.78l5-7.01c.14-.2.36-.32.61-.32Zm-3.55 7h7.08l-3.55-4.96 -3.55 4.95Z"/><path d="M17.5 6.75c-.42 0-.75.33-.75.75 0 .41.33.75.75.75 .41 0 .75-.34.75-.75 0-.42-.34-.75-.75-.75Zm-2.25.75c0-1.25 1-2.25 2.25-2.25 1.24 0 2.25 1 2.25 2.25 0 1.24-1.01 2.25-2.25 2.25 -1.25 0-2.25-1.01-2.25-2.25Z"/></g></svg>