<svg viewBox="0 0 24 24" xmlns="http://www.w3.org/2000/svg"><g fill-rule="evenodd"><path d="M12 1.25c.41 0 .75.33.75.75v20c0 .41-.34.75-.75.75 -.42 0-.75-.34-.75-.75V2c0-.42.33-.75.75-.75Z"/><path d="M1.54 3.4c.18-.15.43-.19.65-.13l7 2c.32.09.54.38.54.72v12c0 .33-.23.62-.55.72l-7 2c-.23.06-.47.01-.66-.13 -.19-.15-.3-.37-.3-.6v-16c0-.24.11-.46.29-.6Zm1.2 1.59V19l5.5-1.58V6.55l-5.5-1.58Z"/><path d="M22.45 3.4c-.19-.15-.44-.19-.66-.13l-7 2c-.33.09-.55.38-.55.72v12c0 .33.22.62.54.72l7 2c.22.06.46.01.65-.13 .18-.15.29-.37.29-.6v-10c0-.42-.34-.75-.75-.75 -.42 0-.75.33-.75.74v9l-5.5-1.58V6.52l5.5-1.58v1c0 .41.33.75.75.75 .41 0 .75-.34.75-.75v-2c0-.24-.12-.46-.3-.6Z"/></g></svg>