<svg viewBox="0 0 25 24" xmlns="http://www.w3.org/2000/svg"><g fill-rule="evenodd"><path d="M11.95 14.48c.14-.16.34-.24.54-.24h6c.2 0 .4.08.54.23 .14.15.21.35.19.56l-.5 7c-.03.39-.36.69-.75.69h-5c-.4 0-.73-.31-.75-.7l-.11-1.5c-.03-.42.28-.78.69-.81 .41-.03.77.28.8.69l.05.8h3.6l.39-5.5h-4.39l.04.69c.02.41-.29.77-.7.8 -.42.02-.78-.29-.81-.7l-.11-1.5c-.02-.21.05-.42.19-.57Z"/><path d="M16.07 1.52l-.58.47c.57-.48.57-.48.57-.48l0 0 0 0 .01.02c.01.01.03.04.06.07 .05.06.13.16.22.29 .19.24.46.6.76 1.04 .6.86 1.35 2.04 1.91 3.28 .97 2.16 1.17 4.44 1.17 5.5 0 1.31-.56 2.34-1.48 3.03 -.89.66-2.07.96-3.28.96 -1.22 0-2.4-.31-3.28-.97 -.92-.69-1.48-1.73-1.48-3.04 0-.41.14-.85.31-1.237 .17-.42.4-.87.65-1.33 .12-.25.26-.49.39-.73 .4-.73.81-1.48 1.14-2.22 .51-1.15.89-2.25 1.14-3.07 .12-.41.21-.75.27-.99 .03-.12.05-.21.06-.27 0-.04.01-.06.01-.07l0-.02 0-.01c.06-.28.27-.5.55-.57 .27-.07.57.02.75.24Zm-.26 2.14c-.27.85-.66 2-1.2 3.19 -.37.79-.82 1.62-1.23 2.36 -.13.23-.26.46-.37.67 -.25.45-.46.85-.6 1.19 -.16.35-.2.56-.2.65 0 .84.33 1.43.87 1.83 .55.41 1.38.66 2.37.66 .99 0 1.81-.25 2.37-.67 .53-.41.87-1 .87-1.84 0-.94-.19-2.99-1.05-4.9 -.51-1.13-1.21-2.22-1.78-3.04 -.04-.06-.08-.11-.11-.16Z"/><path d="M8.08 3.53l-.59.46 -.59-.47c.14-.18.35-.29.58-.29 .22 0 .44.1.58.28Zm-.59 1.73c-.12.16-.25.35-.37.55 -.25.37-.48.77-.64 1.13 -.18.38-.25.65-.25.79 0 .91.64 1.5 1.25 1.5 .6 0 1.25-.59 1.25-1.5 0-.15-.07-.42-.25-.8 -.17-.37-.4-.77-.64-1.14 -.13-.2-.26-.39-.37-.56Zm0-1.27c-.59-.47-.59-.47-.59-.47l-.01 0 -.01 0 -.02.02c-.02.02-.04.04-.07.08 -.06.07-.14.18-.24.31 -.2.26-.46.62-.72 1.03 -.26.4-.53.86-.74 1.32 -.2.43-.39.94-.39 1.42 0 1.57 1.15 3 2.75 3 1.59 0 2.75-1.43 2.75-3 0-.48-.19-.99-.39-1.43 -.21-.46-.48-.92-.74-1.33 -.27-.41-.53-.78-.72-1.04 -.1-.14-.18-.24-.24-.32 -.03-.04-.06-.07-.07-.09l-.02-.03 -.01-.01L8 3.44c-.01-.01 0 0-.59.46Z"/></g></svg>