<svg viewBox="0 0 24 24" xmlns="http://www.w3.org/2000/svg"><g fill-rule="evenodd"><path d="M9 5.75c-3.46 0-6.25 2.79-6.25 6.25 0 3.45 2.79 6.25 6.25 6.25 3.45 0 6.25-2.8 6.25-6.25 0-3.46-2.8-6.25-6.25-6.25ZM1.25 12c0-4.29 3.46-7.75 7.75-7.75 4.28 0 7.75 3.46 7.75 7.75 0 4.28-3.47 7.75-7.75 7.75 -4.29 0-7.75-3.47-7.75-7.75Z"/><path d="M15 5.75c-3.46 0-6.25 2.79-6.25 6.25 0 3.45 2.79 6.25 6.25 6.25 3.45 0 6.25-2.8 6.25-6.25 0-.42.33-.75.75-.75 .41 0 .75.33.75.75 0 4.28-3.47 7.75-7.75 7.75 -4.29 0-7.75-3.47-7.75-7.75 0-4.29 3.46-7.75 7.75-7.75 2.63 0 4.96 1.31 6.36 3.32 .23.33.15.8-.19 1.04 -.34.23-.81.15-1.05-.19 -1.14-1.63-3.01-2.68-5.14-2.68Z"/><path d="M7.25 12c0-.42.33-.75.75-.75h8c.41 0 .75.33.75.75 0 .41-.34.75-.75.75H8c-.42 0-.75-.34-.75-.75Z"/><path d="M8.25 9c0-.42.33-.75.75-.75h6c.41 0 .75.33.75.75 0 .41-.34.75-.75.75H9c-.42 0-.75-.34-.75-.75Z"/><path d="M8.25 15c0-.42.33-.75.75-.75h6c.41 0 .75.33.75.75 0 .41-.34.75-.75.75H9c-.42 0-.75-.34-.75-.75Z"/></g></svg>