<svg viewBox="0 0 24 24" xmlns="http://www.w3.org/2000/svg"><g fill-rule="evenodd"><path d="M6.25 19c0-.42.33-.75.75-.75h10c.41 0 .75.33.75.75v3c0 .41-.34.75-.75.75H7c-.42 0-.75-.34-.75-.75v-3Zm1.5.75v1.5h8.5v-1.5h-8.5Z"/><path d="M12 1.25c.26 0 .5.13.64.36l2.4 4c.21.35.09.81-.26 1.02 -.36.21-.82.09-1.029-.26l-1.76-2.93 -5.19 8.64 1.75 6.14h6.86l1.75-6.15 -1.04-1.73c-.22-.36-.1-.82.25-1.03 .35-.22.81-.1 1.029.25l1.2 1.99c.1.17.13.39.07.59l-2 7c-.1.32-.39.54-.73.54h-8c-.34 0-.63-.23-.73-.55l-2-7c-.06-.2-.03-.42.07-.6l6-10c.13-.23.37-.37.64-.37Z"/><path d="M12 11.75c-.42 0-.75.33-.75.75 0 .41.33.75.75.75 .41 0 .75-.34.75-.75 0-.42-.34-.75-.75-.75Zm-2.25.75c0-1.25 1-2.25 2.25-2.25 1.24 0 2.25 1 2.25 2.25 0 1.24-1.01 2.25-2.25 2.25 -1.25 0-2.25-1.01-2.25-2.25Z"/><path d="M12 1.25c.41 0 .75.33.75.75v9c0 .41-.34.75-.75.75 -.42 0-.75-.34-.75-.75V2c0-.42.33-.75.75-.75Z"/></g></svg>