<svg viewBox="0 0 24 24" xmlns="http://www.w3.org/2000/svg"><g fill-rule="evenodd"><path d="M9 14.25c-.7 0-1.25.55-1.25 1.25 0 .69.55 1.25 1.25 1.25 .69 0 1.25-.56 1.25-1.25 0-.7-.56-1.25-1.25-1.25ZM6.25 15.5c0-1.52 1.23-2.75 2.75-2.75 1.51 0 2.75 1.23 2.75 2.75 0 1.51-1.24 2.75-2.75 2.75 -1.52 0-2.75-1.24-2.75-2.75Z"/><path d="M9.3 16.81c.37.16.54.61.38.99l-2 4.5c-.17.37-.62.54-.99.38 -.38-.17-.55-.62-.39-.99l2-4.5c.16-.38.61-.55.98-.39Z"/><path d="M1.46 1.47c.2-.21.51-.28.78-.18l4 1.45c.38.14.59.57.44.96 -.15.38-.58.59-.97.44l-2.48-.91 4.43 11.98c.14.38-.06.81-.45.96 -.39.14-.82-.06-.97-.45l-5-13.5c-.11-.274-.04-.59.17-.79Zm20.99-.07c.21.17.32.45.27.72l-2 11c-.06.28-.27.51-.54.58l-9 2.5c-.4.11-.82-.13-.93-.53 -.12-.4.12-.82.52-.93l8.54-2.38 1.66-9.15 -7.71 3.42c-.18.07-.38.08-.57.01l-3-1.1c-.39-.15-.6-.58-.45-.97 .14-.39.57-.6.96-.45l2.71.98 8.72-3.88c.25-.12.54-.08.76.09Z"/></g></svg>