<svg viewBox="0 0 24 24" xmlns="http://www.w3.org/2000/svg"><g fill-rule="evenodd"><path d="M12 1.25c.41 0 .75.33.75.75v20c0 .41-.34.75-.75.75 -.42 0-.75-.34-.75-.75V2c0-.42.33-.75.75-.75Z"/><path d="M22.31 5.31c.26.12.43.38.43.68v12c0 .29-.18.55-.44.68 -.27.12-.58.07-.81-.12l-7-6c-.17-.15-.27-.36-.27-.57 0-.22.09-.43.26-.57l7-6.01c.22-.2.53-.24.8-.12Zm-6.17 6.68l5.09 4.36V7.61l-5.1 4.36Z"/><path d="M1.68 5.31c-.27.12-.44.38-.44.68v3c0 .41.33.75.75.75 .41 0 .75-.34.75-.75V7.62l5.09 4.36 -5.1 4.36v-2.87c0-.42-.34-.75-.75-.75 -.42 0-.75.33-.75.75v4.5c0 .29.17.55.43.68 .26.12.57.07.8-.12l7-6c.16-.15.26-.36.26-.57 0-.22-.1-.43-.27-.57l-7-6.01c-.23-.2-.54-.24-.81-.12Z"/></g></svg>