<svg viewBox="0 0 24 24" xmlns="http://www.w3.org/2000/svg"><g fill-rule="evenodd"><path d="M1.25 8c0-.42.33-.75.75-.75h14c.41 0 .75.33.75.75 0 .41-.34.75-.75.75H2.75v6.5h18.5v-6.5H20c-.42 0-.75-.34-.75-.75 0-.42.33-.75.75-.75h2c.41 0 .75.33.75.75v8c0 .41-.34.75-.75.75H2c-.42 0-.75-.34-.75-.75V8Z"/><path d="M12 10.25c.41 0 .75.33.75.75v5c0 .41-.34.75-.75.75 -.42 0-.75-.34-.75-.75v-5c0-.42.33-.75.75-.75Z"/><path d="M18.5 10.25c.41 0 .75.33.75.75v5c0 .41-.34.75-.75.75 -.42 0-.75-.34-.75-.75v-5c0-.42.33-.75.75-.75Z"/><path d="M5.5 10.25c-.42 0-.75.33-.75.75v5c0 .41.33.75.75.75 .41 0 .75-.34.75-.75v-5c0-.42-.34-.75-.75-.75Z"/><path d="M15.5 12.25c.41 0 .75.33.75.75v3c0 .41-.34.75-.75.75 -.42 0-.75-.34-.75-.75v-3c0-.42.33-.75.75-.75Z"/><path d="M8.5 12.25c-.42 0-.75.33-.75.75v3c0 .41.33.75.75.75 .41 0 .75-.34.75-.75v-3c0-.42-.34-.75-.75-.75Z"/></g></svg>