<svg viewBox="0 0 24 24" xmlns="http://www.w3.org/2000/svg"><g fill-rule="evenodd"><path d="M1.25 4c0-.42.33-.75.75-.75h1.5c.41 0 .75.33.75.75 0 .41-.34.75-.75.75h-.75v16.5h16.5V12c0-.42.33-.75.75-.75 .41 0 .75.33.75.75v10c0 .41-.34.75-.75.75H2c-.42 0-.75-.34-.75-.75V4Zm5.5 0c0-.42.33-.75.75-.75H12c.41 0 .75.33.75.75 0 .41-.34.75-.75.75H7.5c-.42 0-.75-.34-.75-.75Z"/><path d="M15.25 2c0-.42.33-.75.75-.75h6c.41 0 .75.33.75.75v6c0 .41-.34.75-.75.75 -.42 0-.75-.34-.75-.75V2.75H16c-.42 0-.75-.34-.75-.75Z"/><path d="M13.75 17c0 .41-.34.75-.75.75H7c-.42 0-.75-.34-.75-.75v-6c0-.42.33-.75.75-.75 .41 0 .75.33.75.75v5.25H13c.41 0 .75.33.75.75Z"/><path d="M22.53 1.46c.29.29.29.76 0 1.06l-15 15c-.3.29-.77.29-1.07 0 -.3-.3-.3-.77 0-1.07l15-15c.29-.3.76-.3 1.06-.001Z"/></g></svg>