<svg viewBox="0 0 24 24" xmlns="http://www.w3.org/2000/svg"><g fill-rule="evenodd"><path d="M2.25 14c0-.42.33-.75.75-.75h18c.41 0 .75.33.75.75v5c0 .41-.34.75-.75.75h-8c-.42 0-.75-.34-.75-.75 0-.42.33-.75.75-.75h7.25v-3.5H3.75v3.5H9c.41 0 .75.33.75.75 0 .41-.34.75-.75.75H3c-.42 0-.75-.34-.75-.75v-5Z"/><path d="M8.25 5c0-2.08 1.67-3.75 3.75-3.75 2.07 0 3.75 1.67 3.75 3.75v9c0 .41-.34.75-.75.75H9c-.42 0-.75-.34-.75-.75V5ZM12 2.75c-1.25 0-2.25 1-2.25 2.25v8.25h4.5V5c0-1.25-1.01-2.25-2.25-2.25Z"/><path d="M3.25 22c0-.42.33-.75.75-.75h16c.41 0 .75.33.75.75 0 .41-.34.75-.75.75H4c-.42 0-.75-.34-.75-.75Z"/></g></svg>