<svg viewBox="0 0 24 24" xmlns="http://www.w3.org/2000/svg"><g fill-rule="evenodd"><path d="M9 2.75C5.54 2.75 2.75 5.54 2.75 9c0 .41-.34.75-.75.75 -.42 0-.75-.34-.75-.75 0-4.29 3.46-7.75 7.75-7.75 4.28 0 7.75 3.46 7.75 7.75 0 4.28-3.47 7.75-7.75 7.75 -2.64 0-4.97-1.32-6.37-3.33 -.24-.34-.16-.81.18-1.05 .33-.24.8-.16 1.04.18 1.13 1.62 3 2.67 5.13 2.67 3.45 0 6.25-2.8 6.25-6.25 0-3.46-2.8-6.25-6.25-6.25Z"/><path d="M13.46 13.46c.29-.3.76-.3 1.06 0l8 8c.29.29.29.76 0 1.06 -.3.29-.77.29-1.07 0l-8-8c-.3-.3-.3-.77 0-1.07Z"/><path d="M4.25 9c0-.42.33-.75.75-.75h8c.41 0 .75.33.75.75 0 .41-.34.75-.75.75H5c-.42 0-.75-.34-.75-.75Z"/></g></svg>