<svg viewBox="0 0 24 24" xmlns="http://www.w3.org/2000/svg"><g fill-rule="evenodd"><path d="M8.25 2c0-.42.33-.75.75-.75 4.28 0 7.75 3.46 7.75 7.75 0 4.28-3.47 7.75-7.75 7.75 -4.29 0-7.75-3.47-7.75-7.75 0-2.83 1.5-5.29 3.75-6.65 .35-.22.81-.1 1.02.25 .21.35.09.81-.26 1.02C3.94 4.71 2.73 6.7 2.73 8.97c0 3.45 2.79 6.25 6.25 6.25 3.45 0 6.25-2.8 6.25-6.25 0-3.46-2.8-6.25-6.25-6.25 -.42 0-.75-.34-.75-.75Z"/><path d="M13.46 13.46c.29-.3.76-.3 1.06 0l8 8c.29.29.29.76 0 1.06 -.3.29-.77.29-1.07 0l-8-8c-.3-.3-.3-.77 0-1.07Z"/></g></svg>