<svg viewBox="0 0 24 24" xmlns="http://www.w3.org/2000/svg"><g fill-rule="evenodd"><path d="M4.25 2c0-.42.33-.75.75-.75h14c.41 0 .75.33.75.75v1.91c0 .41-.34.75-.75.75 -.42 0-.75-.34-.75-.75V2.74H5.75v18.5h12.5V7.6c0-.42.33-.75.75-.75 .41 0 .75.33.75.75v14.38c0 .41-.34.75-.75.75H5c-.42 0-.75-.34-.75-.75v-20Z"/><path d="M8.25 14c0-.42.33-.75.75-.75h6c.41 0 .75.33.75.75v8c0 .41-.34.75-.75.75H9c-.42 0-.75-.34-.75-.75v-8Zm1.5.75v6.5h4.5v-6.5h-4.5Z"/><path d="M6.75 11c0-.42.33-.75.75-.75h3c.41 0 .75.33.75.75 0 .41-.34.75-.75.75h-3c-.42 0-.75-.34-.75-.75Z"/><path d="M6.75 8c0-.42.33-.75.75-.75h3c.41 0 .75.33.75.75 0 .41-.34.75-.75.75h-3c-.42 0-.75-.34-.75-.75Z"/><path d="M6.75 5c0-.42.33-.75.75-.75h3c.41 0 .75.33.75.75 0 .41-.34.75-.75.75h-3c-.42 0-.75-.34-.75-.75Z"/><path d="M12.75 11c0-.42.33-.75.75-.75h3c.41 0 .75.33.75.75 0 .41-.34.75-.75.75h-3c-.42 0-.75-.34-.75-.75Z"/><path d="M12.75 8c0-.42.33-.75.75-.75h3c.41 0 .75.33.75.75 0 .41-.34.75-.75.75h-3c-.42 0-.75-.34-.75-.75Z"/><path d="M12.75 5c0-.42.33-.75.75-.75h3c.41 0 .75.33.75.75 0 .41-.34.75-.75.75h-3c-.42 0-.75-.34-.75-.75Z"/><path d="M1.25 22c0-.42.33-.75.75-.75h20c.41 0 .75.33.75.75 0 .41-.34.75-.75.75H2c-.42 0-.75-.34-.75-.75Z"/></g></svg>