<svg viewBox="0 0 24 24" xmlns="http://www.w3.org/2000/svg"><g fill-rule="evenodd"><path d="M9.76 11.85c.07-.36.37-.61.73-.61h3c.35 0 .66.25.73.6l.8 4.02c.08.4-.19.8-.59.88 -.41.08-.81-.19-.89-.59l-.69-3.43h-1.78l-1.71 8.5h5.17l-.23-1.14c-.09-.41.18-.81.58-.89 .4-.09.8.18.88.58l.4 2.03c.04.22-.02.44-.16.62 -.15.17-.36.27-.58.27h-7c-.23 0-.44-.11-.59-.28 -.15-.18-.2-.41-.16-.63l2-10Z"/><path d="M5.75 22c0-.42.33-.75.75-.75h11c.41 0 .75.33.75.75 0 .41-.34.75-.75.75h-11c-.42 0-.75-.34-.75-.75Z"/><path d="M12 8.75c-.7 0-1.25.55-1.25 1.25 0 .69.55 1.25 1.25 1.25 .69 0 1.25-.56 1.25-1.25 0-.7-.56-1.25-1.25-1.25ZM9.25 10c0-1.52 1.23-2.75 2.75-2.75 1.51 0 2.75 1.23 2.75 2.75 0 1.51-1.24 2.75-2.75 2.75 -1.52 0-2.75-1.24-2.75-2.75Z"/><path d="M20.5 7.75c-.42 0-.75.33-.75.75 0 .41.33.75.75.75 .41 0 .75-.34.75-.75 0-.42-.34-.75-.75-.75Zm-2.25.75c0-1.25 1-2.25 2.25-2.25 1.24 0 2.25 1 2.25 2.25 0 1.24-1.01 2.25-2.25 2.25 -1.25 0-2.25-1.01-2.25-2.25Z"/><path d="M19 14.75c-.42 0-.75.33-.75.75 0 .41.33.75.75.75 .41 0 .75-.34.75-.75 0-.42-.34-.75-.75-.75Zm-2.25.75c0-1.25 1-2.25 2.25-2.25 1.24 0 2.25 1 2.25 2.25 0 1.24-1.01 2.25-2.25 2.25 -1.25 0-2.25-1.01-2.25-2.25Z"/><path d="M12 2.75c-.42 0-.75.33-.75.75 0 .41.33.75.75.75 .41 0 .75-.34.75-.75 0-.42-.34-.75-.75-.75Zm-2.25.75c0-1.25 1-2.25 2.25-2.25 1.24 0 2.25 1 2.25 2.25 0 1.24-1.01 2.25-2.25 2.25 -1.25 0-2.25-1.01-2.25-2.25Z"/><path d="M3.5 7.75c-.42 0-.75.33-.75.75 0 .41.33.75.75.75 .41 0 .75-.34.75-.75 0-.42-.34-.75-.75-.75Zm-2.25.75c0-1.25 1-2.25 2.25-2.25 1.24 0 2.25 1 2.25 2.25 0 1.24-1.01 2.25-2.25 2.25 -1.25 0-2.25-1.01-2.25-2.25Z"/><path d="M5 14.75c-.42 0-.75.33-.75.75 0 .41.33.75.75.75 .41 0 .75-.34.75-.75 0-.42-.34-.75-.75-.75Zm-2.25.75c0-1.25 1-2.25 2.25-2.25 1.24 0 2.25 1 2.25 2.25 0 1.24-1.01 2.25-2.25 2.25 -1.25 0-2.25-1.01-2.25-2.25Z"/><path d="M12.89 3.55c.24-.34.71-.41 1.04-.17l5.5 4c.33.24.4.71.16 1.04 -.25.33-.72.4-1.05.16l-5.5-4.01c-.34-.25-.41-.72-.17-1.05Z"/><path d="M11.1 3.55c-.25-.34-.72-.41-1.05-.17l-5.5 4c-.34.24-.41.71-.17 1.04 .24.33.71.4 1.04.16l5.5-4.01c.33-.25.4-.72.16-1.05Z"/><path d="M20.45 9.26c.4.08.66.47.58.88l-.81 4c-.09.4-.48.66-.89.58 -.41-.09-.67-.48-.59-.89l.8-4.01c.08-.41.47-.67.88-.59Z"/><path d="M3.85 9.26c-.41.08-.67.47-.59.88l.8 4c.08.4.47.66.88.58 .4-.09.66-.48.58-.89l-.81-4.01c-.09-.41-.48-.67-.89-.59Z"/><path d="M13.75 16c0-.42.33-.75.75-.75h3c.41 0 .75.33.75.75 0 .41-.34.75-.75.75h-3c-.42 0-.75-.34-.75-.75Z"/><path d="M5.75 16c0-.42.33-.75.75-.75h3c.41 0 .75.33.75.75 0 .41-.34.75-.75.75h-3c-.42 0-.75-.34-.75-.75Z"/><path d="M12 4.41c.41 0 .75.33.75.75v2.83c0 .41-.34.75-.75.75 -.42 0-.75-.34-.75-.75V5.15c0-.42.33-.75.75-.75Z"/><path d="M19.74 9.14c.06.4-.23.79-.64.85l-5 .74c-.41.06-.8-.23-.86-.64 -.07-.41.22-.8.63-.86l5-.75c.4-.07.79.22.85.63Z"/><path d="M4.25 9.14c-.07.4.22.79.63.85l5 .74c.4.06.79-.23.85-.64 .06-.41-.23-.8-.64-.86l-5.01-.75c-.41-.07-.8.22-.86.63Z"/></g></svg>