<svg viewBox="0 0 24 24" xmlns="http://www.w3.org/2000/svg"><g fill-rule="evenodd"><path d="M6.25 9.5c0-.42.33-.75.75-.75h10c.41 0 .75.33.75.75V22c0 .41-.34.75-.75.75H7c-.42 0-.75-.34-.75-.75V9.5Zm1.5.75v11h8.5v-11h-8.5Z"/><path d="M1.25 13c0-.42.33-.75.75-.75h5c.41 0 .75.33.75.75v9c0 .41-.34.75-.75.75H2c-.42 0-.75-.34-.75-.75v-9Zm1.5.75v7.5h3.5v-7.5h-3.5Z"/><path d="M16.25 13c0-.42.33-.75.75-.75h5c.41 0 .75.33.75.75v9c0 .41-.34.75-.75.75h-5c-.42 0-.75-.34-.75-.75v-9Zm1.5.75v7.5h3.5v-7.5h-3.5Z"/><path d="M9.25 16c0-.42.33-.75.75-.75h4c.41 0 .75.33.75.75v6c0 .41-.34.75-.75.75h-4c-.42 0-.75-.34-.75-.75v-6Zm1.5.75v4.5h2.5v-4.5h-2.5Z"/><path d="M12.34 1.33l-.35.66 -.35-.67c.21-.11.46-.11.68 0ZM9.39 8.74c-.72-.62-1.15-1.42-1.15-2.25 0-.26.1-.57.37-.95 .23-.35.15-.81-.19-1.05 -.35-.24-.81-.16-1.05.18 -.36.51-.65 1.12-.65 1.8 0 1.48.83 2.76 1.93 3.59 .13.09.28.15.45.15h5.73c.16 0 .32-.06.45-.16 1.1-.84 1.93-2.12 1.93-3.6 0-.81-.41-1.53-.87-2.11 -.48-.6-1.1-1.13-1.68-1.58 -.6-.45-1.18-.82-1.62-1.08 -.22-.13-.41-.24-.54-.31 -.07-.04-.12-.07-.16-.09l-.05-.03 -.02-.01 -.01-.01 -.01-.01c-.01-.01 0 0-.35.66l-.35-.67 -.01 0 -.01 0 -.02 0c-.02 0-.04.01-.06.03 -.06.02-.13.06-.22.11 -.19.1-.44.24-.74.42 -.36.21-.47.67-.25 1.03 .21.35.67.46 1.03.24 .22-.15.43-.26.58-.35 .09.05.2.11.32.18 .4.24.94.57 1.47.98 .53.4 1.04.85 1.41 1.31 .37.46.53.86.53 1.16 0 .83-.44 1.63-1.15 2.25H9.22Z"/><path d="M4.89 7.36l-.4.63 -.4-.64c.24-.16.54-.16.79 0Zm-.4 1.54c-.21.15-.47.35-.73.59 -.29.25-.55.54-.73.82 -.19.28-.27.51-.27.67 0 .19-.02.38-.03.54 -.01.02-.01.05-.01.08 -.02.18-.02.31-.01.43 0 .08.01.14.04.19h3.4c.02-.05.03-.11.04-.2 0-.12 0-.25-.01-.44 -.01-.03-.01-.06-.01-.09 -.01-.16-.03-.35-.03-.55 0-.17-.08-.4-.27-.68 -.19-.29-.45-.57-.73-.83 -.26-.24-.52-.44-.73-.6Zm-.4-1.55c0-.01 0 0 .39.63 .39-.64.39-.64.39-.64l0 0 0 0 0 0 .02.01c.02.01.05.03.08.05 .07.04.17.12.3.2 .24.17.57.43.91.74 .33.3.68.68.96 1.1 .27.41.5.93.5 1.5 0 .14 0 .27.01.43 0 .03 0 .06 0 .09 .01.18.02.41 0 .63 -.04.49-.23 1.02-.79 1.43 -.13.09-.29.14-.44.14H2.38c-.16 0-.32-.05-.44-.15 -.57-.41-.75-.94-.79-1.44 -.02-.23-.01-.46 0-.64 0-.04 0-.07 0-.1 0-.16.01-.3.01-.44 0-.58.23-1.09.5-1.51 .27-.42.63-.8.96-1.11 .33-.31.66-.57.91-.75 .12-.09.22-.17.3-.21 .03-.03.06-.05.08-.06l.02-.02 0-.01 0-.01 0-.01Z"/><path d="M19.89 7.36l-.4.63 -.4-.64c.24-.16.54-.16.79 0Zm-.4 1.54c-.21.15-.47.35-.73.59 -.29.25-.55.54-.73.82 -.19.28-.27.51-.27.67 0 .19-.02.38-.03.54 -.01.02-.01.05-.01.08 -.02.18-.02.31-.01.43 0 .08.01.14.04.19h3.4c.02-.05.03-.11.04-.2 0-.12 0-.25-.01-.44 -.01-.03-.01-.06-.01-.09 -.01-.16-.03-.35-.03-.55 0-.17-.08-.4-.27-.68 -.19-.29-.45-.57-.73-.83 -.26-.24-.52-.44-.73-.6Zm-.4-1.55c0-.01 0 0 .39.63 .39-.64.39-.64.39-.64l0 0 0 0 0 0 .02.01c.02.01.05.03.08.05 .07.04.17.12.3.2 .24.17.57.43.91.74 .33.3.68.68.96 1.1 .27.41.5.93.5 1.5 0 .14 0 .27.01.43 0 .03 0 .06 0 .09 .01.18.02.41 0 .63 -.04.49-.23 1.02-.79 1.43 -.13.09-.29.14-.44.14h-4.04c-.16 0-.32-.05-.44-.15 -.57-.41-.75-.94-.79-1.44 -.02-.23-.01-.46 0-.64 0-.04 0-.07 0-.1 0-.16.01-.3.01-.44 0-.58.23-1.09.5-1.51 .27-.42.63-.8.96-1.11 .33-.31.66-.57.91-.75 .12-.09.22-.17.3-.21 .03-.03.06-.05.08-.06l.02-.02 0-.01 0-.01 0-.01Z"/></g></svg>