<svg viewBox="0 0 24 24" xmlns="http://www.w3.org/2000/svg"><g fill-rule="evenodd"><path d="M3.25 11c0-.42.33-.75.75-.75h3c.41 0 .75.33.75.75v11c0 .41-.34.75-.75.75H4c-.42 0-.75-.34-.75-.75V11Zm1.5.75v9.5h1.5v-9.5h-1.5Z"/><path d="M9.75 11c0-.42.33-.75.75-.75h3c.41 0 .75.33.75.75v11c0 .41-.34.75-.75.75h-3c-.42 0-.75-.34-.75-.75V11Zm1.5.75v9.5h1.5v-9.5h-1.5Z"/><path d="M1.37 8.07c.13-.21.37-.33.62-.33h20c.24 0 .48.12.62.32 .13.2.16.46.07.69l-1 2.49c-.12.28-.39.47-.7.47h-18c-.31 0-.59-.19-.7-.48l-1-2.5c-.1-.24-.07-.5.07-.7Zm1.72 1.17l.4 1h16.98l.4-1H3.08Z"/><path d="M1.37 5.57c.13-.21.37-.33.62-.33h20c.24 0 .48.12.62.32 .13.2.16.46.07.69l-1 2.5c-.12.28-.39.47-.7.47h-18c-.31 0-.59-.19-.7-.48l-1-2.5c-.1-.24-.07-.5.07-.7Zm1.72 1.17l.4 1h16.98l.4-1H3.08Z"/><path d="M9.25 3.5c0-.42.33-.75.75-.75h4c.41 0 .75.33.75.75V6c0 .41-.34.75-.75.75h-4c-.42 0-.75-.34-.75-.75V3.5Zm1.5.75v1h2.5v-1h-2.5Z"/><path d="M16.25 11c0-.42.33-.75.75-.75h3c.41 0 .75.33.75.75v2.01c0 .41-.34.75-.75.75 -.42 0-.75-.34-.75-.75v-1.26h-1.5v9.5h1.5V17c0-.42.33-.75.75-.75 .41 0 .75.33.75.75v4.99c0 .41-.34.75-.75.75h-3c-.42 0-.75-.34-.75-.75v-11Z"/><path d="M1.25 22c0-.42.33-.75.75-.75h20c.41 0 .75.33.75.75 0 .41-.34.75-.75.75H2c-.42 0-.75-.34-.75-.75Z"/><path d="M12 1.25c.41 0 .75.33.75.75v1.5c0 .41-.34.75-.75.75 -.42 0-.75-.34-.75-.75V2c0-.42.33-.75.75-.75Z"/></g></svg>