<svg viewBox="0 0 24 24" xmlns="http://www.w3.org/2000/svg"><g fill-rule="evenodd"><path d="M20 6.25c.41 0 .75.33.75.75v2.37c0 .41-.34.74-.75.74 -.42 0-.75-.34-.75-.75V6.98c0-.42.33-.75.75-.75Z"/><path d="M16 1.25c.41 0 .75.33.75.75v2.37c0 .41-.34.75-.75.75 -.42 0-.75-.34-.75-.75V1.99c0-.42.33-.75.75-.75Z"/><path d="M12 1.25c.41 0 .75.33.75.75v1.88c0 .41-.34.75-.75.75 -.42 0-.75-.34-.75-.75V1.99c0-.42.33-.75.75-.75Z"/><path d="M4 6.25c.41 0 .75.33.75.75v2.37c0 .41-.34.74-.75.74 -.42 0-.75-.34-.75-.75V6.98c0-.42.33-.75.75-.75Z"/><path d="M8 1.25c.41 0 .75.33.75.75v2.37c0 .41-.34.75-.75.75 -.42 0-.75-.34-.75-.75V1.99c0-.42.33-.75.75-.75Z"/><path d="M3.25 9.5c0-.42.33-.75.75-.75h16c.41 0 .75.33.75.75v12c0 .41-.34.75-.75.75H4c-.42 0-.75-.34-.75-.75v-5.49c0-.42.33-.75.75-.75 .41 0 .75.33.75.75v4.73h14.5v-10.5H4.75v1.75c0 .41-.34.75-.75.75 -.42 0-.75-.34-.75-.75V9.48Z"/><path d="M7.25 4c0-.42.33-.75.75-.75h8c.41 0 .75.33.75.75v5.5c0 .41-.34.75-.75.75H8c-.42 0-.75-.34-.75-.75V4Zm1.5.75v4h6.5v-4h-6.5Z"/><path d="M6.25 17.5c0-2.63 2.12-4.75 4.75-4.75h2c2.62 0 4.75 2.12 4.75 4.75v4c0 .41-.34.75-.75.75H7c-.42 0-.75-.34-.75-.75v-4ZM11 14.25c-1.8 0-3.25 1.45-3.25 3.25v3.25h8.5V17.5c0-1.8-1.46-3.25-3.25-3.25h-2Z"/><path d="M12 12.75c.41 0 .75.33.75.75v8c0 .41-.34.75-.75.75 -.42 0-.75-.34-.75-.75v-8c0-.42.33-.75.75-.75Z"/><path d="M1.25 21.5c0-.42.33-.75.75-.75h20c.41 0 .75.33.75.75 0 .41-.34.75-.75.75H2c-.42 0-.75-.34-.75-.75Z"/></g></svg>