<svg viewBox="0 0 24 24" xmlns="http://www.w3.org/2000/svg"><g fill-rule="evenodd"><path d="M20 6.25c.41 0 .75.33.75.75v13.5c0 .41-.34.75-.75.75H4c-.42 0-.75-.34-.75-.75V14c0-.42.33-.75.75-.75 .41 0 .75.33.75.75v5.74h14.5V6.99c0-.42.33-.75.75-.75ZM4 6.43c.41 0 .75.33.75.75v2.8c0 .41-.34.74-.75.74 -.42 0-.75-.34-.75-.75V7.16c0-.42.33-.75.75-.75Z"/><path d="M6.5 21.25c.41 0 .75-.34.75-.75v-8.25h9.5v8.25c0 .41.33.75.75.75 .41 0 .75-.34.75-.75v-9c0-.42-.34-.75-.75-.75h-11c-.42 0-.75.33-.75.75v9c0 .41.33.75.75.75Z"/><path d="M8.25 14.5c0 .41.33.75.75.75h6c.41 0 .75-.34.75-.75 0-.42-.34-.75-.75-.75H9c-.42 0-.75.33-.75.75Z"/><path d="M5.75 8.5c0 .41.33.75.75.75h4c.41 0 .75-.34.75-.75 0-.42-.34-.75-.75-.75h-4c-.42 0-.75.33-.75.75Z"/><path d="M12.75 8.5c0 .41.33.75.75.75h4c.41 0 .75-.34.75-.75 0-.42-.34-.75-.75-.75h-4c-.42 0-.75.33-.75.75Z"/><path d="M8.25 17.5c0 .41.33.75.75.75h6c.41 0 .75-.34.75-.75 0-.42-.34-.75-.75-.75H9c-.42 0-.75.33-.75.75Z"/><path d="M11.85 2.32c.21-.11.46-.11.67 0l9.81 5c.36.18.51.63.32 1 -.19.36-.64.51-1.01.32l-9.49-4.83L2.3 8.64c-.38.18-.83.02-1.01-.35 -.19-.38-.03-.83.34-1.01l10.18-5Z"/><path d="M1.25 20.5c0-.42.33-.75.75-.75h20c.41 0 .75.33.75.75 0 .41-.34.75-.75.75H2c-.42 0-.75-.34-.75-.75Z"/></g></svg>