<svg viewBox="0 0 24 24" xmlns="http://www.w3.org/2000/svg"><g fill-rule="evenodd"><path d="M3.25 6c0-.42.33-.75.75-.75h16c.41 0 .75.33.75.75v13.5c0 .41-.34.75-.75.75H4c-.42 0-.75-.34-.75-.75V6Zm1.5.75v12h14.5v-12H4.75Z"/><path d="M8.75 12.5c0-.42.33-.75.75-.75h5c.41 0 .75.33.75.75v7c0 .41-.34.75-.75.75h-5c-.42 0-.75-.34-.75-.75v-7Zm1.5.75v5.5h3.5v-5.5h-3.5Z"/><path d="M5.75 9.5c0-.42.33-.75.75-.75H10c.41 0 .75.33.75.75 0 .41-.34.75-.75.75H6.5c-.42 0-.75-.34-.75-.75Z"/><path d="M13.25 9.5c0-.42.33-.75.75-.75h3.5c.41 0 .75.33.75.75 0 .41-.34.75-.75.75H14c-.42 0-.75-.34-.75-.75Z"/><path d="M1.25 19.5c0-.42.33-.75.75-.75h20c.41 0 .75.33.75.75V22c0 .41-.34.75-.75.75H2c-.42 0-.75-.34-.75-.75v-2.5Zm1.5.75v1h18.5v-1H2.75Z"/><path d="M3.32 1.66c.12-.26.38-.42.67-.42h9.99c.41 0 .75.33.75.75 0 .41-.34.75-.75.75H4.44l-1.25 2.5h17.573l-1.25-2.5h-1.56c-.42 0-.75-.34-.75-.75 0-.42.33-.75.75-.75h2.01c.28 0 .54.16.67.41l2 4c.11.23.1.5-.04.72 -.14.22-.38.35-.64.35h-20c-.26 0-.51-.14-.64-.36 -.14-.23-.15-.5-.04-.73l2-4Z"/></g></svg>