<svg viewBox="0 0 24 24" xmlns="http://www.w3.org/2000/svg"><g fill-rule="evenodd"><path d="M2.75 3.5c0-.42.33-.75.75-.75H11c.41 0 .75.33.75.75v17c0 .41-.34.75-.75.75H3.5c-.42 0-.75-.34-.75-.75v-9.6c0-.42.33-.75.75-.75 .41 0 .75.33.75.75v8.84h6V4.24h-6v2.74c0 .41-.34.75-.75.75 -.42 0-.75-.34-.75-.75v-3.5Z"/><path d="M5.75 9C5.33 9 5 8.66 5 8.25v-2.5c0-.42.33-.75.75-.75 .41 0 .75.33.75.75v2.5c0 .41-.34.75-.75.75Z"/><path d="M5.75 14c-.42 0-.75-.34-.75-.75v-2.5c0-.42.33-.75.75-.75 .41 0 .75.33.75.75v2.5c0 .41-.34.75-.75.75Z"/><path d="M8.25 9c-.42 0-.75-.34-.75-.75v-2.5c0-.42.33-.75.75-.75 .41 0 .75.33.75.75v2.5c0 .41-.34.75-.75.75Z"/><path d="M8.25 14c-.42 0-.75-.34-.75-.75v-2.5c0-.42.33-.75.75-.75 .41 0 .75.33.75.75v2.5c0 .41-.34.75-.75.75Z"/><path d="M1.25 20.5c0-.42.33-.75.75-.75h20c.41 0 .75.33.75.75 0 .41-.34.75-.75.75H2c-.42 0-.75-.34-.75-.75Z"/><path d="M10.25 12.5c0-.42.33-.75.75-.75h9c.41 0 .75.33.75.75v8c0 .41-.34.75-.75.75h-9c-.42 0-.75-.34-.75-.75v-8Zm1.5.75v6.5h7.5v-6.5h-7.5Z"/><path d="M17 21.25c-.42 0-.75-.34-.75-.75v-8c0-.42.33-.75.75-.75 .41 0 .75.33.75.75v8c0 .41-.34.75-.75.75Z"/><path d="M14 21.25c-.42 0-.75-.34-.75-.75v-8c0-.42.33-.75.75-.75 .41 0 .75.33.75.75v8c0 .41-.34.75-.75.75Z"/></g></svg>