<svg viewBox="0 0 24 24" xmlns="http://www.w3.org/2000/svg"><g fill-rule="evenodd"><path d="M6.25 3c0-.42.33-.75.75-.75h3.97c.41 0 .75.33.75.75 0 .41-.34.75-.75.75H7.74v15.5h8.5V3.75h-1.26c-.42 0-.75-.34-.75-.75 0-.42.33-.75.75-.75h2c.41 0 .75.33.75.75v17c0 .41-.34.75-.75.75h-10c-.42 0-.75-.34-.75-.75V3Z"/><path d="M9.25 13c0-.42.33-.75.75-.75h4c.41 0 .75.33.75.75v7c0 .41-.34.75-.75.75h-4c-.42 0-.75-.34-.75-.75v-7Zm1.5.75v5.5h2.5v-5.5h-2.5Z"/><path d="M16.25 8c0-.42.33-.75.75-.75h3.5c.41 0 .75.33.75.75v12c0 .41-.34.75-.75.75H17c-.42 0-.75-.34-.75-.75V8Zm1.5.75v10.5h2V8.75h-2Z"/><path d="M7.75 8c0-.42-.34-.75-.75-.75H3.5c-.42 0-.75.33-.75.75v12c0 .41.33.75.75.75H7c.41 0 .75-.34.75-.75V8Zm-1.5.75v10.5h-2V8.75h2Z"/><path d="M1.25 20c0-.42.33-.75.75-.75h20c.41 0 .75.33.75.75 0 .41-.34.75-.75.75H2c-.42 0-.75-.34-.75-.75Z"/><path d="M9.25 7.5c0-.42.33-.75.75-.75h4c.41 0 .75.33.75.75 0 .41-.34.75-.75.75h-4c-.42 0-.75-.34-.75-.75Z"/><path d="M12 10.25c-.42 0-.75-.34-.75-.75v-4c0-.42.33-.75.75-.75 .41 0 .75.33.75.75v4c0 .41-.34.75-.75.75Z"/></g></svg>