<svg viewBox="0 0 24 24" xmlns="http://www.w3.org/2000/svg"><g fill-rule="evenodd"><path d="M9.86 10.34c.23.13.38.38.38.65v7.5c0 .41-.34.75-.75.75h-5c-.42 0-.75-.34-.75-.75v-4.5c0-.27.13-.51.36-.65l.54-.33c.35-.22.81-.1 1.02.25 .21.35.09.81-.26 1.02l-.19.1v3.32h3.5v-5.43l-.33.19c-.36.21-.82.09-1.03-.26 -.22-.36-.1-.82.25-1.029l1.45-.88c.23-.14.52-.15.75-.01Z"/><path d="M14.86 10.34c.23.13.38.38.38.65v7.5c0 .41-.34.75-.75.75h-5c-.42 0-.75-.34-.75-.75v-4.5c0-.27.13-.51.36-.65l4.99-3c.23-.14.52-.15.75-.01Zm-4.62 4.07v3.32h3.5V12.3l-3.5 2.1Z"/><path d="M19.86 10.34c.23.13.38.38.38.65v7.5c0 .41-.34.75-.75.75h-5c-.42 0-.75-.34-.75-.75v-4.5c0-.27.13-.51.36-.65l5-3c.23-.14.52-.15.75-.01Zm-4.62 4.07v3.32h3.5V12.3l-3.5 2.1Z"/><path d="M16.25 6c0-.42.33-.75.75-.75h2.5c.41 0 .75.33.75.75v5.25c0 .41-.34.75-.75.75 -.42 0-.75-.34-.75-.75v-4.5h-1v5.57c0 .41-.34.75-.75.75 -.42 0-.75-.34-.75-.75V5.99Z"/><path d="M1.25 18.5c0-.42.33-.75.75-.75h20c.41 0 .75.33.75.75 0 .41-.34.75-.75.75H2c-.42 0-.75-.34-.75-.75Z"/></g></svg>