<svg viewBox="0 0 24 24" xmlns="http://www.w3.org/2000/svg"><g fill-rule="evenodd"><path d="M6.25 10c0-.42.33-.75.75-.75h2.03c.41 0 .75.33.75.75 0 .41-.34.75-.75.75H7.74v8.5h8.5v-8.5h-3.26c-.42 0-.75-.34-.75-.75 0-.42.33-.75.75-.75h4c.41 0 .75.33.75.75v10c0 .41-.34.75-.75.75h-10c-.42 0-.75-.34-.75-.75V10Z"/><path d="M16.57 9.37c.2-.14.46-.17.69-.08l5 1.99c.28.11.47.38.47.69v8c0 .41-.34.75-.75.75h-5c-.42 0-.75-.34-.75-.75v-10c0-.25.12-.49.32-.63Zm1.17 1.72v8.14h3.5v-6.75l-3.5-1.4Z"/><path d="M7.42 9.37c-.21-.14-.47-.17-.7-.08l-5 1.99c-.29.11-.48.38-.48.69v8c0 .41.33.75.75.75h5c.41 0 .75-.34.75-.75v-10c0-.25-.13-.49-.33-.63Zm-1.18 1.72v8.14h-3.5v-6.75l3.5-1.4Z"/><path d="M8.75 17.5c0-1.8 1.45-3.25 3.25-3.25 1.79 0 3.25 1.45 3.25 3.25V20c0 .41-.34.75-.75.75h-5c-.42 0-.75-.34-.75-.75v-2.5ZM12 15.75c-.97 0-1.75.78-1.75 1.75v1.75h3.5V17.5c0-.97-.79-1.75-1.75-1.75Z"/><path d="M12 5.75c-2.35 0-4.25 1.9-4.25 4.25 0 .41-.34.75-.75.75 -.42 0-.75-.34-.75-.75 0-3.18 2.57-5.75 5.75-5.75 3.17 0 5.75 2.57 5.75 5.75 0 .41-.34.75-.75.75 -.42 0-.75-.34-.75-.75 0-2.35-1.91-4.25-4.25-4.25Z"/><path d="M12 2.25c.41 0 .75.33.75.75v2c0 .41-.34.75-.75.75 -.42 0-.75-.34-.75-.75V3c0-.42.33-.75.75-.75Z"/></g></svg>