<svg viewBox="0 0 24 24" xmlns="http://www.w3.org/2000/svg"><g fill-rule="evenodd"><path d="M3.25 12c0-.42.33-.75.75-.75h16c.41 0 .75.33.75.75v1.99c0 .41-.34.75-.75.75 -.42 0-.75-.34-.75-.75v-1.25H4.75v6.5h14.5v-1.23c0-.42.33-.75.75-.75 .41 0 .75.33.75.75v1.97c0 .41-.34.75-.75.75H4c-.42 0-.75-.34-.75-.75v-8Z"/><path d="M3.25 4c0-.42.33-.75.75-.75h16c.41 0 .75.33.75.75v8c0 .41-.34.75-.75.75H4c-.42 0-.75-.34-.75-.75V4Zm1.5.75v6.5h14.5v-6.5H4.75Z"/><path d="M8 3.25c.41 0 .75.33.75.75v8c0 .41-.34.75-.75.75 -.42 0-.75-.34-.75-.75V4c0-.42.33-.75.75-.75Z"/><path d="M12 3.25c.41 0 .75.33.75.75v8c0 .41-.34.75-.75.75 -.42 0-.75-.34-.75-.75V4c0-.42.33-.75.75-.75Z"/><path d="M16 3.25c.41 0 .75.33.75.75v8c0 .41-.34.75-.75.75 -.42 0-.75-.34-.75-.75V4c0-.42.33-.75.75-.75Z"/><path d="M9.25 15c0-.42.33-.75.75-.75h4c.41 0 .75.33.75.75v5c0 .41-.34.75-.75.75h-4c-.42 0-.75-.34-.75-.75v-5Zm1.5.75v3.5h2.5v-3.5h-2.5Z"/><path d="M1.25 20c0-.42.33-.75.75-.75h20c.41 0 .75.33.75.75 0 .41-.34.75-.75.75H2c-.42 0-.75-.34-.75-.75Z"/><path d="M3.25 8c0-.42.33-.75.75-.75h16c.41 0 .75.33.75.75 0 .41-.34.75-.75.75H4c-.42 0-.75-.34-.75-.75Z"/></g></svg>