<svg viewBox="0 0 24 24" xmlns="http://www.w3.org/2000/svg"><g fill-rule="evenodd"><path d="M3.75 9.5c0-.42.33-.75.75-.75h15c.41 0 .75.33.75.75v12c0 .41-.34.75-.75.75h-15c-.42 0-.75-.34-.75-.75v-12Zm1.5.75v10.5h13.5v-10.5H5.25Z"/><path d="M1.25 5.5c0-.42.33-.75.75-.75h2.5c.41 0 .75.33.75.75v16c0 .41-.34.75-.75.75H2c-.42 0-.75-.34-.75-.75v-2.47c0-.42.33-.75.75-.75 .41 0 .75.33.75.75v1.71h1V6.24h-1v8.71c0 .41-.34.75-.75.75 -.42 0-.75-.34-.75-.75V5.48Z"/><path d="M2.28 2.26c.1-.31.38-.52.71-.52h.5c.32 0 .6.2.71.51l1 3c.07.22.03.48-.11.67 -.15.19-.37.31-.61.31h-2.5c-.25 0-.47-.12-.61-.32 -.15-.2-.18-.45-.11-.68l1-3Zm.96 1.85l-.21.62h.41l-.21-.63Z"/><path d="M19.78 2.26c.1-.31.38-.52.71-.52h.5c.32 0 .6.2.71.51l1 3c.07.22.03.48-.11.67 -.15.19-.37.31-.61.31h-2.5c-.25 0-.47-.12-.61-.32 -.15-.2-.18-.45-.11-.68l1-3Zm.96 1.85l-.21.62h.41l-.21-.63Z"/><path d="M18.75 5.5c0-.42.33-.75.75-.75H22c.41 0 .75.33.75.75v16c0 .41-.34.75-.75.75h-2.5c-.42 0-.75-.34-.75-.75v-16Zm1.5.75v14.5h1V6.25h-1Z"/><path d="M9.25 15.5c0-.42.33-.75.75-.75h4c.41 0 .75.33.75.75v6c0 .41-.34.75-.75.75h-4c-.42 0-.75-.34-.75-.75v-6Zm1.5.75v4.5h2.5v-4.5h-2.5Z"/><path d="M6.75 12.5c0-.42.33-.75.75-.75H10c.41 0 .75.33.75.75 0 .41-.34.75-.75.75H7.5c-.42 0-.75-.34-.75-.75Z"/><path d="M13.25 12.5c0-.42.33-.75.75-.75h2.5c.41 0 .75.33.75.75 0 .41-.34.75-.75.75H14c-.42 0-.75-.34-.75-.75Z"/><path d="M10.75 4c0-.42.33-.75.75-.75H15c.41 0 .75.33.75.75v2.5c0 .41-.34.75-.75.75h-3.5c-.42 0-.75-.34-.75-.75V4Zm1.5.75v1h2v-1h-2Z"/><path d="M11.5 3.75c.41 0 .75.33.75.75v4.8c0 .41-.34.75-.75.75 -.42 0-.75-.34-.75-.76V4.48c0-.42.33-.75.75-.75Z"/></g></svg>