<svg viewBox="0 0 24 24" xmlns="http://www.w3.org/2000/svg"><g fill-rule="evenodd"><path d="M10.82 1.45c.13-.14.32-.21.51-.21h1.33c.19 0 .37.07.51.2l1.05.98c.3.28.31.75.03 1.06 -.29.3-.76.31-1.07.03l-.84-.79h-.75l-3.74 3.5h8.2l-.36-.34c-.31-.29-.32-.76-.04-1.07 .28-.31.75-.32 1.06-.04l1.74 1.63c.22.21.29.53.18.82 -.12.28-.39.47-.7.47h-12c-.31 0-.59-.19-.7-.48 -.12-.29-.05-.62.18-.83l5.33-5Z"/><path d="M2.25 22c0-.42.33-.75.75-.75h18c.41 0 .75.33.75.75 0 .41-.34.75-.75.75H3c-.42 0-.75-.34-.75-.75Z"/><path d="M5.25 7c0-.42.33-.75.75-.75h12c.41 0 .75.33.75.75v15c0 .41-.34.75-.75.75H6c-.42 0-.75-.34-.75-.75V7Zm1.5.75v13.5h10.5V7.75H6.75Z"/><path d="M3.25 15.5c0-.42.33-.75.75-.75h16c.41 0 .75.33.75.75 0 .41-.34.75-.75.75H4c-.42 0-.75-.34-.75-.75Z"/><path d="M3.25 10.5c0-.42.33-.75.75-.75h16c.41 0 .75.33.75.75 0 .41-.34.75-.75.75H4c-.42 0-.75-.34-.75-.75Z"/><path d="M7.75 13c0-.42.33-.75.75-.75h2c.41 0 .75.33.75.75 0 .41-.34.75-.75.75h-2c-.42 0-.75-.34-.75-.75Z"/><path d="M12.75 13c0-.42.33-.75.75-.75h2c.41 0 .75.33.75.75 0 .41-.34.75-.75.75h-2c-.42 0-.75-.34-.75-.75Z"/><path d="M9.25 18c0-.42.33-.75.75-.75h4c.41 0 .75.33.75.75v4c0 .41-.34.75-.75.75h-4c-.42 0-.75-.34-.75-.75v-4Zm1.5.75v2.5h2.5v-2.5h-2.5Z"/></g></svg>