<svg viewBox="0 0 24 24" xmlns="http://www.w3.org/2000/svg"><g fill-rule="evenodd"><path d="M8.81 18.2c.11-.28.38-.46.68-.46h5c.3 0 .57.17.68.45l1.5 3.5c.09.23.07.49-.07.7 -.14.21-.38.33-.63.33h-8c-.26 0-.49-.13-.63-.34 -.14-.22-.17-.48-.07-.71l1.5-3.5Zm1.18 1.04l-.86 2h5.72l-.86-2H9.97Z"/><path d="M8.81 9.79c.11.27.38.45.68.45h5c.3 0 .57-.18.68-.46l1.5-3.5c.09-.24.07-.5-.07-.71 -.14-.22-.38-.34-.63-.34h-8c-.26 0-.49.12-.63.33 -.14.21-.17.47-.07.7l1.5 3.5Zm1.18-1.05l-.86-2h5.72l-.86 2H9.97Z"/><path d="M9.75 9.5c0-.42.33-.75.75-.75h3c.41 0 .75.33.75.75v2.54c0 .41-.34.75-.75.75 -.42 0-.75-.34-.75-.75v-1.8h-1.5v7.5h1.5V16c0-.42.33-.75.75-.75 .41 0 .75.33.75.75v2.48c0 .41-.34.75-.75.75h-3c-.42 0-.75-.34-.75-.75v-9Z"/><path d="M5.75 22c0-.42.33-.75.75-.75h11c.41 0 .75.33.75.75 0 .41-.34.75-.75.75h-11c-.42 0-.75-.34-.75-.75Z"/><path d="M12 1.25c.41 0 .75.33.75.75v4c0 .41-.34.75-.75.75 -.42 0-.75-.34-.75-.75V2c0-.42.33-.75.75-.75Z"/></g></svg>