<svg viewBox="0 0 24 24" xmlns="http://www.w3.org/2000/svg"><g fill-rule="evenodd"><path d="M9.62 9.26c.4.06.68.45.61.86l-.84 4.98c-.07.4-.46.68-.87.61 -.41-.07-.69-.46-.62-.87l.83-4.99c.06-.41.45-.69.86-.62Zm4.75 0c.4-.07.79.2.86.61l2 12c.03.21-.03.43-.17.6 -.15.16-.36.26-.58.26h-9c-.23 0-.43-.1-.58-.27 -.15-.17-.21-.4-.17-.61l.49-2.99c.06-.41.45-.69.86-.62 .4.06.68.45.61.86l-.36 2.1h7.22l-1.86-11.13c-.07-.41.2-.8.61-.87Z"/><path d="M4.75 22c0-.42.33-.75.75-.75h13c.41 0 .75.33.75.75 0 .41-.34.75-.75.75h-13c-.42 0-.75-.34-.75-.75Z"/><path d="M12 6.75c-.42 0-.75.33-.75.75 0 .41.33.75.75.75 .41 0 .75-.34.75-.75 0-.42-.34-.75-.75-.75Zm-2.25.75c0-1.25 1-2.25 2.25-2.25 1.24 0 2.25 1 2.25 2.25 0 1.24-1.01 2.25-2.25 2.25 -1.25 0-2.25-1.01-2.25-2.25Z"/><path d="M18.03 1.46c.29.29.29.76 0 1.06l-4.5 4.5c-.3.29-.77.29-1.07 0 -.3-.3-.3-.77 0-1.07l4.5-4.5c.29-.3.76-.3 1.06 0Z"/><path d="M18.03 13.53c.29-.3.29-.77 0-1.07l-4.5-4.51c-.3-.3-.77-.3-1.07 0 -.3.29-.3.76 0 1.06l4.5 4.49c.29.29.76.29 1.06 0Z"/><path d="M5.96 1.46c-.3.29-.3.76 0 1.06l4.5 4.5c.29.29.76.29 1.06 0 .29-.3.29-.77 0-1.07l-4.5-4.5c-.3-.3-.77-.3-1.07 0Z"/><path d="M5.96 13.53c-.3-.3-.3-.77 0-1.07l4.5-4.51c.29-.3.76-.3 1.06 0 .29.29.29.76 0 1.06l-4.5 4.49c-.3.29-.77.29-1.07 0Z"/><path d="M9.75 17.5c0-1.25 1-2.25 2.25-2.25 1.24 0 2.25 1 2.25 2.25V22c0 .41-.34.75-.75.75h-3c-.42 0-.75-.34-.75-.75v-4.5Zm2.25-.75c-.42 0-.75.33-.75.75v3.75h1.5V17.5c0-.42-.34-.75-.75-.75Z"/></g></svg>