<svg viewBox="0 0 24 24" xmlns="http://www.w3.org/2000/svg"><g fill="#9545ED" fill-rule="evenodd"><path d="M12 9c0-.56.44-1 1-1h3c.55 0 1 .44 1 1v11.5c0 1.38-1.12 2.5-2.5 2.5 -1.39 0-2.5-1.12-2.5-2.5V9Zm2 1v10.5c0 .27.22.5.5.5 .27 0 .5-.23.5-.5V10h-1Z"/><path d="M12 2c0-.56.44-1 1-1h3c.55 0 1 .44 1 1v3c0 .55-.45 1-1 1h-3c-.56 0-1-.45-1-1V2Zm2 1v1h1V3h-1Z"/><path fill="#3747D6" d="M6.41 2.18c.26-.19.59-.24.9-.14l5.84 1.94h3.33c.55 0 1 .44 1 1v4c0 .55-.45.99-1 .99h-3.34l-5.85 1.94c-.31.1-.65.05-.91-.14 -.27-.19-.42-.49-.42-.82v-8c0-.33.15-.63.41-.82Zm1.58 2.19v5.22l4.68-1.57c.1-.04.2-.06.31-.06h2.5v-2h-2.5c-.11 0-.22-.02-.32-.06L7.97 4.33Z"/></g></svg>