<svg viewBox="0 0 24 24" xmlns="http://www.w3.org/2000/svg"><g fill="#9545ED" fill-rule="evenodd"><path d="M20 8.5v3h-2v-3h2Z"/><path d="M22 17v4.5h-2V17h2Z"/><path d="M6 8.5v3H4v-3h2Z"/><path d="M4 17v4.5H2V17h2Z"/><g fill="#3747D6"><path d="M2 3.5c0-.56.44-1 1-1h18c.55 0 1 .44 1 1v5c0 .55-.45 1-1 1H3c-.56 0-1-.45-1-1v-5Zm2 1v3h16v-3H4Z"/><path d="M2.55 11.68c.13-.41.51-.69.94-.69h17c.43 0 .81.27.94.68l1.5 4.5c.1.3.05.64-.14.9s-.49.41-.82.41h-20c-.33 0-.63-.16-.82-.42 -.19-.27-.24-.6-.14-.91l1.5-4.5Zm1.66 1.31l-.84 2.5h17.22l-.84-2.5H4.19Z"/></g></g></svg>