<svg viewBox="0 0 24 24" xmlns="http://www.w3.org/2000/svg"><g fill="#9545ED" fill-rule="evenodd"><path d="M9.14 4.48c.27-.47.88-.63 1.35-.36l7 4 -1 1.73 -4.44-2.54 2.85 6.77 -1.85.77 -3.24-7.69 -1.99 3.3L6.1 9.43l3-5Z"/><path d="M14.6 2.8l-4 3L9.39 4.2l4-3 1.2 1.6Z"/><g fill="#3747D6"><path d="M7 11c-2.21 0-4 1.79-4 4 0 2.2 1.79 4 4 4 2.2 0 4-1.8 4-4 0-2.21-1.8-4-4-4Zm-6 4c0-3.32 2.68-6 6-6 3.31 0 6 2.68 6 6 0 3.31-2.69 6-6 6 -3.32 0-6-2.69-6-6Z"/><path d="M16 15c-1.66 0-3 1.34-3 3 0 1.65 1.34 3 3 3 1.65 0 3-1.35 3-3 0-1.66-1.35-3-3-3Zm-5 3c0-2.77 2.23-5 5-5 2.76 0 5 2.23 5 5 0 2.76-2.24 5-5 5 -2.77 0-5-2.24-5-5Z"/><path d="M19 9.5c-1.11 0-2 .89-2 2 0 1.1.89 2 2 2 1.1 0 2-.9 2-2 0-1.11-.9-2-2-2Zm-4 2c0-2.21 1.79-4 4-4 2.2 0 4 1.79 4 4 0 2.2-1.8 4-4 4 -2.21 0-4-1.8-4-4Z"/><path d="M4 2c0-.56.44-1 1-1h3c1.65 0 3 1.34 3 3v1c0 .55-.45 1-1 1H7C5.34 6 4 4.65 4 3V2Zm2 1c0 .55.44 1 1 1h2c0-.56-.45-1-1-1H6Z"/></g></g></svg>