<svg viewBox="0 0 24 24" xmlns="http://www.w3.org/2000/svg"><g fill="#3747D6" fill-rule="evenodd"><path d="M18.29 11.29c.39-.4 1.02-.4 1.41 0l3 3c.39.39.39 1.02 0 1.41l-3.5 3.5c-.25.24-.61.34-.95.26l-.39-.1 .09.38c.08.34-.02.7-.27.94l-2 2c-.4.39-1.03.39-1.42 0l-3-3c-.4-.4-.4-1.03 0-1.42l7-7Zm-4.88 7.7l1.58 1.58 .89-.9 -.37-1.46c-.09-.35.01-.71.26-.95 .24-.25.6-.35.94-.27l1.45.36 2.39-2.4 -1.59-1.59 -5.59 5.58Z"/><path d="M11.293 14.7c.39.39 1.02.39 1.41 0l2-2c.39-.4.39-1.03 0-1.42l-9.01-9.01c-.95-.95-2.48-.95-3.42 0 -.95.94-.95 2.47 0 3.41l8.99 8.99Zm.7-2.13l-8.3-8.3c-.17-.17-.17-.43 0-.59 .16-.17.42-.17.58 0l8.29 8.29 -.59.58Z"/><path fill="#9545ED" d="M11.29 19.7c.39.39 1.02.39 1.41 0l7-7c.18-.19.29-.45.29-.71 0-.27-.11-.52-.3-.71l-1.09-1.09c-1.18-1.18-3.08-1.18-4.25 0l-4.18 4.17c-1.18 1.17-1.18 3.07 0 4.24l1.08 1.08Zm.7-2.13l-.38-.38c-.4-.4-.4-1.03 0-1.42l4.17-4.18c.39-.4 1.02-.4 1.41 0l.37.37 -5.59 5.58Z"/></g></svg>