<svg viewBox="0 0 24 24" xmlns="http://www.w3.org/2000/svg"><g fill="#9545ED" fill-rule="evenodd"><path d="M11.29 9.79c.39-.4 1.02-.4 1.41 0l.7.7h.58c.29 0 .58.13.77.36 .19.23.266.53.2.83l-.2.99 .39-.14c.3-.11.64-.06.9.13 .26.18.41.49.41.81v.58l.7.7c.39.39.39 1.02 0 1.41l-.5.49 .17.35c.15.31.13.67-.05.97 -.19.29-.51.47-.86.47h-8c-.35 0-.67-.18-.86-.48 -.19-.3-.2-.67-.05-.98l.17-.36 -.5-.5c-.4-.4-.4-1.03 0-1.42l.7-.71v-.59c0-.33.15-.63.41-.82 .26-.19.59-.24.9-.14l.39.13 -.2-1c-.06-.3.01-.6.2-.84 .18-.24.47-.37.77-.37h.58l.7-.71Zm-.08 2.68l.26 1.32c0 .01 0 .02 0 .03l.03.19c.05.34-.08.69-.34.92 -.27.22-.64.29-.98.18l-.79-.27c-.05.12-.13.23-.23.33l-.3.29 .29.29c.19.19.29.44.29.7h4.99c0-.26.1-.52.29-.71l.29-.3 -.3-.3c-.1-.1-.18-.21-.23-.34l-.79.26c-.34.11-.71.04-.98-.19s-.4-.58-.34-.93l.03-.2c0-.02 0-.03 0-.04l.26-1.33c-.19-.05-.36-.14-.5-.27l-.3-.3 -.3.29c-.14.13-.31.22-.5.26Z"/><path d="M13 16v3h-2v-3h2Z"/><path fill="#3747D6" d="M9 5c0-.56.44-1 1-1h4c.55 0 1 .44 1 1v2.68c2.58.66 4.5 3.01 4.5 5.81v8.5c0 .55-.45 1-1 1h-13c-.56 0-1-.45-1-1v-8.5c0-2.8 1.91-5.15 4.5-5.82V4.98Zm2 1v2.52c0 .51-.39.94-.91.99 -2.03.2-3.6 1.9-3.6 3.98v7.5h11v-7.5c0-2.08-1.58-3.78-3.6-3.99 -.52-.06-.91-.49-.91-1V5.97h-2Z"/><path d="M8 2c0-.56.44-1 1-1h6c.55 0 1 .44 1 1v3c0 .55-.45 1-1 1H9c-.56 0-1-.45-1-1V2Zm2 1v1h4V3h-4Z"/></g></svg>