<svg viewBox="0 0 24 24" xmlns="http://www.w3.org/2000/svg"><path fill="#3747D6" fill-rule="evenodd" d="M12 1c.31 0 .61.14.8.4l.99 1.33 1.25-.63c.33-.17.73-.14 1.03.08 .3.21.45.58.4.95l-.54 3.74 1.4-1.17c.29-.25.71-.3 1.06-.14 .35.16.57.51.57.9v1.5h2c.32 0 .62.15.81.41 .18.26.23.59.13.9l-.78 2.31 1.42 1.06c.29.22.44.593.38.96 -.06.36-.32.67-.68.78l-5.91 1.96 .5 1.18c.14.34.08.75-.16 1.04 -.25.28-.64.41-1.01.32l-1.26-.32v3.34c0 .55-.45 1-1 1h-3c-.56 0-1-.45-1-1v-3.35l-1.26.31c-.37.09-.76-.04-1.01-.33 -.25-.29-.31-.7-.16-1.05l.5-1.19 -5.91-1.97c-.36-.12-.62-.43-.68-.79 -.06-.37.08-.74.38-.97l1.42-1.07 -.78-2.32c-.11-.31-.06-.65.13-.91 .18-.27.48-.42.81-.42h2v-1.5c0-.39.22-.74.57-.91 .34-.17.76-.12 1.06.13l1.4 1.16 -.54-3.75c-.06-.37.1-.74.4-.96 .3-.22.69-.25 1.03-.09l1.25.62L11 1.2c.18-.26.48-.4.8-.4Zm0 2.66l-.7.93c-.29.38-.82.51-1.25.29l-.3-.15 .63 4.41c.05.4-.15.81-.51 1.01 -.36.2-.81.16-1.13-.1L6.97 8.59v.38c0 .55-.45 1-1 1H4.35l.56 1.68c.13.4-.01.85-.35 1.11l-.48.35 5.12 1.7c.26.08.48.28.59.53 .11.25.11.54 0 .8l-.15.33 .54-.14c.29-.08.61-.01.85.18 .24.18.38.48.38.78v3.625h1V17.29c0-.31.14-.6.38-.79 .24-.19.55-.26.85-.19l.54.13 -.15-.34c-.12-.26-.11-.55 0-.81s.33-.46.59-.54l5.12-1.71 -.48-.36c-.35-.26-.49-.71-.35-1.12l.56-1.69h-1.62c-.56 0-1-.45-1-1v-.39l-1.77 1.45c-.32.26-.77.3-1.13.09 -.36-.21-.56-.61-.51-1.02l.63-4.42 -.3.14c-.44.21-.96.09-1.25-.3l-.7-.94Z"/></svg>