<svg viewBox="0 0 24 24" xmlns="http://www.w3.org/2000/svg"><g fill="#9545ED" fill-rule="evenodd"><path d="M13 18h3v2h-3v-2Z"/><path d="M11 15h5v2h-5v-2Z"/><path fill="#3747D6" d="M7 6c0-2.21 1.79-4 4-4h2c2.2 0 4 1.79 4 4v16c0 .55-.45 1-1 1H8c-.56 0-1-.45-1-1V6Zm4-2c-1.11 0-2 .89-2 2v15h6V6c0-1.11-.9-2-2-2h-2Z"/><path d="M12 7.5c-.28 0-.5.22-.5.5 0 .27.22.5.5.5 .27 0 .5-.23.5-.5 0-.28-.23-.5-.5-.5ZM9.5 8c0-1.39 1.11-2.5 2.5-2.5 1.38 0 2.5 1.11 2.5 2.5 0 1.38-1.12 2.5-2.5 2.5 -1.39 0-2.5-1.12-2.5-2.5Z"/><path d="M18.7 2.7l-5 5 -1.42-1.42 5-5 1.41 1.41Z"/><path d="M5.29 2.7l4.99 5 1.41-1.42 -5-5L5.27 2.69Z"/><path d="M18.7 13.29l-5-5.01 -1.42 1.41 5 4.99 1.41-1.42Z"/><path d="M5.29 13.29l4.99-5.01 1.41 1.41 -5 4.99 -1.42-1.42Z"/><path d="M20 23H4v-2h16v2Z"/></g></svg>