<svg viewBox="0 0 24 24" xmlns="http://www.w3.org/2000/svg"><g fill="#9545ED" fill-rule="evenodd"><path d="M8 14c0-.56.44-1 1-1h6c.55 0 1 .44 1 1v6c0 1.65-1.35 3-3 3h-2c-1.66 0-3-1.35-3-3v-6Zm2 1v5c0 .55.44 1 1 1h2c.55 0 1-.45 1-1v-5h-4Z"/><path fill="#3747D6" d="M8.12 2.46c.93-.94 2.2-1.47 3.53-1.47h.68c1.32 0 2.59.52 3.53 1.46l6 6c.718.71 1.12 1.69 1.12 2.7 0 2.11-1.72 3.82-3.83 3.82H4.8c-2.12 0-3.83-1.72-3.83-3.83 0-1.02.4-1.99 1.12-2.71l6-6.01Zm3.53.53c-.8 0-1.56.31-2.13.87l-6 6c-.35.34-.54.8-.54 1.29 0 1 .81 1.82 1.82 1.82h14.34c1 0 1.82-.82 1.82-1.83 0-.49-.2-.95-.54-1.3l-6-6c-.57-.57-1.33-.88-2.13-.88h-.69Z"/></g></svg>