<svg viewBox="0 0 24 24" xmlns="http://www.w3.org/2000/svg"><g fill="#9545ED" fill-rule="evenodd"><path d="M12.2 8.79c-.4-.4-1.03-.4-1.42 0l-2.01 2c-.4.39-.4 1.02 0 1.41l10.5 10.5c.39.39 1.02.39 1.41 0l2-2c.39-.4.39-1.03 0-1.42l-10.5-10.5Zm8.37 11.2l-.59.58 -9.09-9.09 .58-.59 9.08 9.08Z"/><path fill="#3747D6" d="M6.29 2.7l4.58 4.58c.39.39.39 1.02 0 1.41l-.38.37 -5.3-5.3 -1.42 1.41 5.29 5.29 -.38.37c-.4.39-1.03.39-1.42 0L2.67 6.24 1.25 7.65l4.58 4.58c1.17 1.17 3.07 1.17 4.24 0l2.17-2.18c1.17-1.18 1.17-3.08 0-4.25L7.65 1.21 6.23 2.62Z"/></g></svg>