<svg viewBox="0 0 24 24" xmlns="http://www.w3.org/2000/svg"><g fill="#9545ED" fill-rule="evenodd"><path d="M11 16V8h2v8h-2Z"/><path d="M16 13H8v-2h8v2Z"/><path d="M6 2v3H4V2h2Z"/><path d="M10.5 2v3h-2V2h2Z"/><path d="M15.5 2v3h-2V2h2Z"/><path d="M20 2v3h-2V2h2Z"/><path d="M6 19v3H4v-3h2Z"/><path d="M10.5 19v3h-2v-3h2Z"/><path d="M15.5 19v3h-2v-3h2Z"/><path d="M20 19v3h-2v-3h2Z"/><path d="M16.5 10h-2V8h2v2Z"/><path d="M9.5 10h-2V8h2v2Z"/><path d="M16.5 16h-2v-2h2v2Z"/><path d="M7.5 16v-2h2v2h-2Z"/><path fill="#3747D6" d="M4 5c0-.56.44-1 1-1h14c.55 0 1 .44 1 1v14c0 .55-.45 1-1 1H5c-.56 0-1-.45-1-1V5Zm2 1v12h12V6H6Z"/></g></svg>