<svg viewBox="0 0 24 24" xmlns="http://www.w3.org/2000/svg"><g fill="#9545ED" fill-rule="evenodd"><path d="M2 19h20v2H2v-2Z"/><g fill="#3747D6"><path d="M13.09 8h-5.1V6h5.09c.71 0 1.43.12 2.1.38l4.46 1.67c2 .75 3.33 2.66 3.33 4.8 0 2.83-2.3 5.13-5.14 5.13H9.96c-3.32 0-6-2.69-6-6v-2h2v2c0 2.2 1.79 4 4 4h7.86c1.73 0 3.13-1.41 3.13-3.14 0-1.31-.82-2.48-2.04-2.94l-4.47-1.68c-.45-.17-.93-.26-1.41-.26Z"/><path d="M2.7 3.29l3 3L4.28 7.7l-3-3 1.41-1.42Z"/></g><path d="M7.2 7.62c-.4-.4-1.03-.4-1.42 0l-.18.17c-.4.39-.4 1.02 0 1.41l1.67 1.67c.39.39 1.02.39 1.41 0l.17-.18c.39-.4.39-1.03 0-1.42L7.17 7.59ZM4.37 6.2c1.17-1.18 3.07-1.18 4.24 0l1.67 1.67c1.17 1.17 1.17 3.07 0 4.24l-.18.17c-1.18 1.17-3.08 1.17-4.25 0L4.17 10.6c-1.18-1.18-1.18-3.08 0-4.25l.17-.18Z"/></g></svg>