<svg viewBox="0 0 24 24" xmlns="http://www.w3.org/2000/svg"><g fill="#9545ED" fill-rule="evenodd"><path d="M3.5 5c-.28 0-.5.22-.5.5v4c0 .27.22.5.5.5H5v2H3.5C2.11 12 1 10.88 1 9.5v-4C1 4.11 2.11 3 3.5 3H5v2H3.5Zm17 0H12V3h8.5C21.88 3 23 4.11 23 5.5v4c0 1.38-1.12 2.5-2.5 2.5H12v-2h8.5c.27 0 .5-.23.5-.5v-4c0-.28-.23-.5-.5-.5Z"/><g fill="#3747D6"><path d="M4 3c0-.56.44-1 1-1h7c.55 0 1 .44 1 1v16c0 .55-.45 1-1 1H5c-.56 0-1-.45-1-1V3Zm2 1v14h5V4H6Z"/><path d="M4 22v-3h2v3H4Z"/><path d="M7.5 22v-3h2v3h-2Z"/><path d="M11 22v-3h2v3h-2Z"/></g></g></svg>