<svg viewBox="0 0 24 24" xmlns="http://www.w3.org/2000/svg"><g fill="#9545ED" fill-rule="evenodd"><path d="M6 19c0-.56.44-1 1-1h10c.55 0 1 .44 1 1v3c0 .55-.45 1-1 1H7c-.56 0-1-.45-1-1v-3Zm2 1v1h8v-1H8Z"/><path d="M10.9 3.01l1.31-1.65 1.56 1.24 -1.32 1.64c-.14.17-.15.4-.03.58l.78 1.17c.6.9.55 2.09-.13 2.94l-1.32 1.64 -1.57-1.25 1.31-1.65c.13-.18.14-.41.02-.59l-.79-1.18c-.61-.91-.56-2.1.12-2.95Z"/><path d="M16.293 4.29l1-1 1.41 1.41 -1 1c-.17.16-.17.42 0 .58 .94.94.94 2.47 0 3.41l-1 .99 -1.42-1.42 1-1c.16-.17.16-.43 0-.59 -.95-.95-.95-2.48 0-3.42Z"/><path d="M6.29 4.29l1-1L8.7 4.7l-1 1c-.17.16-.17.42 0 .58 .94.94.94 2.47 0 3.41l-1 .99 -1.42-1.42 1-1c.16-.17.16-.43 0-.59 -.95-.95-.95-2.48 0-3.42Z"/><path fill="#3747D6" d="M1 10c0-.56.44-1 1-1h20c.55 0 1 .44 1 1v3c0 3.86-3.14 7-7 7H8c-3.87 0-7-3.14-7-7v-3Zm2 1v2c0 2.76 2.23 5 5 5h8c2.76 0 5-2.24 5-5v-2H3Z"/></g></svg>