<svg viewBox="0 0 24 24" xmlns="http://www.w3.org/2000/svg"><g fill="#3747D6" fill-rule="evenodd"><path d="M12 8.5c.46 0 .86.31.97.76l3 12.5c.07.29 0 .61-.19.85s-.48.38-.79.38h-6c-.31 0-.6-.15-.79-.39 -.19-.25-.26-.56-.19-.86L11 9.24c.1-.45.51-.77.97-.77ZM10.26 21h3.46l-1.74-7.215L10.24 21Z"/><g fill="#9545ED"><path d="M12 7.5c-.28 0-.5.22-.5.5 0 .27.22.5.5.5 .27 0 .5-.23.5-.5 0-.28-.23-.5-.5-.5ZM9.5 8c0-1.39 1.11-2.5 2.5-2.5 1.38 0 2.5 1.11 2.5 2.5 0 1.38-1.12 2.5-2.5 2.5 -1.39 0-2.5-1.12-2.5-2.5Z"/><path d="M18.7 2.7l-5 5 -1.42-1.42 5-5 1.41 1.41Z"/><path d="M5.29 2.7l4.99 5 1.41-1.42 -5-5L5.27 2.69Z"/><path d="M18.7 13.29l-5-5.01 -1.42 1.41 5 4.99 1.41-1.42Z"/><path d="M5.29 13.29l4.99-5.01 1.41 1.41 -5 4.99 -1.42-1.42Z"/><path d="M19 23H5v-2h14v2Z"/></g></g></svg>