<svg viewBox="0 0 24 24" xmlns="http://www.w3.org/2000/svg"><g fill="#3747D6" fill-rule="evenodd"><path d="M12 3c-4.98 0-9 4.02-9 9 0 4.97 4.02 9 9 9 4.97 0 9-4.03 9-9 0-4.98-4.03-9-9-9ZM1 12C1 5.92 5.92 1 12 1c6.07 0 11 4.92 11 11 0 6.07-4.93 11-11 11C5.92 23 1 18.07 1 12Z"/><g fill="#9545ED"><path d="M13.34 16.28c-.85-.43-1.84-.43-2.69 0l-1.22.6 -.9-1.79 1.21-.61c1.4-.71 3.06-.71 4.47 0l1.21.6 -.9 1.78 -1.22-.61Z"/><path d="M17.37 9.92l-2.5 1 -.75-1.86 2.5-1 .74 1.85Z"/><path d="M6.62 9.92l2.5 1 .74-1.86 -2.5-1 -.75 1.85Z"/></g></g></svg>