<svg viewBox="0 0 24 24" xmlns="http://www.w3.org/2000/svg"><g fill="#3747D6" fill-rule="evenodd"><path d="M12 3c4.97 0 9 4.02 9 9 0 4.97-4.03 9-9 9 -4.98 0-9-4.03-9-9 0-.62.06-1.22.18-1.81l-1.97-.4c-.15.71-.23 1.44-.23 2.19 0 6.07 4.92 11 11 11 6.07 0 11-4.93 11-11 0-6.08-4.93-11-11-11 -1.57 0-3.06.32-4.41.91l.8 1.83c1.1-.49 2.31-.75 3.59-.75Z"/><g fill="#9545ED"><path d="M2.63 1.49l.86.5 .86-.51c-.18-.31-.51-.5-.87-.5s-.69.18-.87.49Zm.86 2.64c.12.26.24.52.33.75 .06.16.1.29.13.4 .02.09.02.14.03.14 0-.01 0-.01 0-.01 0 .34-.27.56-.5.56 -.24 0-.5-.22-.5-.56 -.01-.01-.01-.01-.01-.01m.5-1.3c-.13.26-.25.52-.34.75 -.07.16-.11.29-.14.4 -.03.09-.03.14-.04.14 0 0-.01 0 0 0m.49-3.45c.86-.51.86-.51.86-.51l0 0 .01.02c.01.02.02.05.05.08 .04.07.1.18.17.31 .14.26.33.62.53 1.01 .19.38.39.82.55 1.22 .13.36.3.84.3 1.26 0 1.37-1.09 2.56-2.5 2.56 -1.42 0-2.5-1.19-2.5-2.57 0-.43.16-.91.3-1.27 .15-.41.35-.84.55-1.23 .19-.4.38-.76.53-1.02 .07-.14.13-.24.17-.32 .02-.04.03-.07.05-.09l.01-.03 0-.01c0-.01 0-.01.86.5Z"/><path d="M13.34 18.28c-.85-.43-1.84-.43-2.69 0l-1.22.6 -.9-1.79 1.21-.61c1.4-.71 3.06-.71 4.47 0l1.21.6 -.9 1.78 -1.22-.61Z"/><path d="M16.55 10.92c-.34.22-.78.22-1.11 0l-.4-.27 -1.11 1.66 .39.26c1 .67 2.32.67 3.32 0l.39-.27 -1.11-1.67 -.4.26Z"/><path d="M8.55 10.92c-.34.22-.78.22-1.11 0l-.4-.27 -1.11 1.66 .39.26c1 .67 2.32.67 3.32 0l.39-.27 -1.11-1.67 -.4.26Z"/></g></g></svg>