<svg viewBox="0 0 24 24" xmlns="http://www.w3.org/2000/svg"><g fill="#9545ED" fill-rule="evenodd"><path d="M16.55 7.92c-.34.22-.78.22-1.11 0l-.4-.27 -1.11 1.66 .39.26c1 .67 2.32.67 3.32 0l.39-.27 -1.11-1.67 -.4.26Z"/><path d="M8.55 7.92c-.34.22-.78.22-1.11 0l-.4-.27 -1.11 1.66 .39.26c1 .67 2.32.67 3.32 0l.39-.27 -1.11-1.67 -.4.26Z"/><path d="M5 16c0-1.66 1.34-3 3-3h8c1.65 0 3 1.34 3 3v4h-2v-4c0-.56-.45-1-1-1H8c-.56 0-1 .44-1 1v4H5v-4Z"/><path d="M2.59 11.2l4 3 -1.2 1.6 -4-3 1.2-1.6Z"/><path d="M22.59 12.8l-4 3 -1.2-1.6 4-3 1.2 1.6Z"/><path fill="#3747D6" d="M12 3c-4.98 0-9 4.02-9 9 0 4.97 4.02 9 9 9 4.97 0 9-4.03 9-9 0-4.98-4.03-9-9-9ZM1 12C1 5.92 5.92 1 12 1c6.07 0 11 4.92 11 11 0 6.07-4.93 11-11 11C5.92 23 1 18.07 1 12Z"/></g></svg>