<svg viewBox="0 0 24 24" xmlns="http://www.w3.org/2000/svg"><g fill="#9545ED" fill-rule="evenodd"><path d="M13.34 18.28c-.85-.43-1.84-.43-2.69 0l-1.22.6 -.9-1.79 1.21-.61c1.4-.71 3.06-.71 4.47 0l1.21.6 -.9 1.78 -1.22-.61Z"/><path fill="#3747D6" d="M12 3C9.26 3 6.81 4.22 5.16 6.15c-1.35 1.57-2.17 3.61-2.17 5.84 0 4.97 4.02 9 9 9 4.97 0 9-4.03 9-9 0-2.24-.82-4.28-2.17-5.85 -1.66-1.93-4.103-3.16-6.84-3.16ZM3.64 4.84C5.65 2.48 8.65.99 11.99.99c3.34 0 6.34 1.49 8.35 3.84 1.64 1.92 2.64 4.42 2.64 7.15 0 6.07-4.93 11-11 11 -6.08 0-11-4.93-11-11 0-2.73.99-5.23 2.64-7.16Z"/><path d="M13.9 11.2l2-1.5 1.2 1.6 -.94.7 .93.7 -1.2 1.6 -2-1.5c-.26-.19-.4-.49-.4-.8 0-.32.14-.62.4-.8Z"/><path d="M10.1 11.2l-2-1.5 -1.2 1.6 .93.7 -.94.7 1.2 1.6 2-1.5c.25-.19.4-.49.4-.8 0-.32-.15-.62-.4-.8Z"/></g></svg>