<svg viewBox="0 0 24 24" xmlns="http://www.w3.org/2000/svg"><g fill="#9545ED" fill-rule="evenodd"><path d="M16.55 10.92c-.34.22-.78.22-1.11 0l-.4-.27 -1.11 1.66 .39.26c1 .67 2.32.67 3.32 0l.39-.27 -1.11-1.67 -.4.26Z"/><path d="M8.55 10.92c-.34.22-.78.22-1.11 0l-.4-.27 -1.11 1.66 .39.26c1 .67 2.32.67 3.32 0l.39-.27 -1.11-1.67 -.4.26Z"/><path d="M13.34 18.28c-.85-.43-1.84-.43-2.69 0l-1.22.6 -.9-1.79 1.21-.61c1.4-.71 3.06-.71 4.47 0l1.21.6 -.9 1.78 -1.22-.61Z"/><path fill="#3747D6" d="M12 3c-4.98 0-9 4.02-9 9 0 4.97 4.02 9 9 9 4.97 0 9-4.03 9-9 0-.62-.07-1.22-.18-1.81l1.96-.4c.14.71.22 1.44.22 2.19 0 6.07-4.93 11-11 11 -6.08 0-11-4.93-11-11 0-6.08 4.92-11 11-11 1.56 0 3.05.32 4.4.91l-.81 1.83c-1.11-.49-2.32-.75-3.6-.75Z"/><path d="M19.58 3h-.59V1h3c.4 0 .76.24.92.61 .15.37.06.8-.22 1.08l-1.3 1.29h.58v2h-3c-.41 0-.77-.25-.93-.62 -.16-.38-.07-.81.21-1.09l1.29-1.3Z"/><path d="M13.58 6.5h-.59v-2h3c.4 0 .76.24.92.61 .15.37.06.8-.22 1.08l-1.3 1.29h.58v2h-3c-.41 0-.77-.25-.93-.62 -.16-.38-.07-.81.21-1.09l1.29-1.3Z"/></g></svg>