<svg viewBox="0 0 24 24" xmlns="http://www.w3.org/2000/svg"><g fill="#9545ED" fill-rule="evenodd"><path d="M13.34 14.71c-.85.42-1.84.42-2.69 0l-1.22-.61 -.9 1.78 1.21.6c1.4.7 3.06.7 4.47 0l1.21-.61 -.9-1.79 -1.22.6Z"/><path d="M11 8c0-.56.44-1 1-1h6c.55 0 1 .44 1 1v2c0 1.65-1.35 3-3 3h-2c-1.66 0-3-1.35-3-3V8Zm2 1v1c0 .55.44 1 1 1h2c.55 0 1-.45 1-1V9h-4Z"/><path d="M5 8c0-.56.44-1 1-1h6c.55 0 1 .44 1 1v2c0 1.65-1.35 3-3 3H8c-1.66 0-3-1.35-3-3V8Zm2 1v1c0 .55.44 1 1 1h2c.55 0 1-.45 1-1V9H7Z"/><path d="M2.6 8h3.39v2h-3.4V8Z"/><path d="M18 8h3.33v2h-3.34V8Z"/><path fill="#3747D6" d="M12 3c-4.98 0-9 4.02-9 9 0 4.97 4.02 9 9 9 4.97 0 9-4.03 9-9 0-4.98-4.03-9-9-9ZM1 12C1 5.92 5.92 1 12 1c6.07 0 11 4.92 11 11 0 6.07-4.93 11-11 11C5.92 23 1 18.07 1 12Z"/></g></svg>