<svg viewBox="0 0 24 24" xmlns="http://www.w3.org/2000/svg"><g fill-rule="evenodd"><path d="M4.5 16c0-.28.22-.5.5-.5h14c.27 0 .5.22.5.5 0 3.65-3.433 6.5-7.5 6.5 -4.07 0-7.5-2.85-7.5-6.5Zm1.02.5c.29 2.74 3.01 5 6.47 5 3.45 0 6.17-2.26 6.47-5H5.51Z"/><path d="M1.63 7.65c.16-.18.42-.21.62-.09l4.47 2.68c.38.23.74.5 1.05.82l4.56 4.56c.14.14.18.35.1.54 -.08.18-.26.3-.47.3h-6c-.25 0-.46-.18-.5-.42l-.32-1.89c-.12-.67-.37-1.3-.76-1.85L1.52 8.22c-.14-.2-.12-.46.04-.63Zm2.12 1.97l1.504 2.14c.47.67.78 1.44.91 2.24l.24 1.46h4.36l-3.72-3.72c-.27-.27-.56-.49-.87-.68L3.71 9.58Z"/><path d="M22.36 7.65c-.17-.18-.43-.21-.63-.09l-4.48 2.68c-.39.23-.75.5-1.06.82l-4.57 4.56c-.15.14-.19.35-.11.54 .07.18.25.3.46.3h6c.24 0 .45-.18.49-.42l.31-1.89c.11-.67.36-1.3.75-1.85l2.85-4.08c.13-.2.11-.46-.05-.63Zm-2.13 1.97l-1.51 2.14c-.48.67-.79 1.44-.92 2.24l-.25 1.46h-4.37l3.71-3.72c.26-.27.55-.49.86-.68l2.45-1.48Z"/><path d="M16.04 3.5c.23.02.41.19.45.42l1 7c.02.15-.04.31-.15.42l-5 5c-.17.16-.42.19-.62.07 -.2-.13-.29-.37-.22-.59l4-12c.07-.22.28-.37.51-.34Zm-2.91 10.64l3.32-3.33 -.67-4.66 -2.67 7.98Z"/><path d="M7.95 3.5c-.24.02-.42.19-.46.42l-1 7c-.03.15.03.31.14.42l5 5c.16.16.41.19.61.07 .19-.13.28-.37.21-.59l-4.01-12c-.08-.22-.29-.37-.52-.34Zm2.9 10.64l-3.33-3.33 .66-4.66 2.66 7.98Z"/><path d="M11.99 1.5c.22 0 .42.15.48.37l2 7.5 -.97.25 -1.52-5.69 -1.52 5.68 -.97-.26 2-7.5c.05-.22.25-.38.48-.38Z"/></g></svg>