<svg viewBox="0 0 24 24" xmlns="http://www.w3.org/2000/svg"><g fill-rule="evenodd"><path d="M8.6 17.69c.09-.13.24-.2.39-.2h6c.15 0 .29.07.39.19 .09.12.12.27.09.42l-1 4c-.06.22-.26.37-.49.37h-4c-.23 0-.43-.16-.49-.38l-1-4c-.04-.15-.01-.31.09-.43Zm1.03.8l.75 3h3.21l.75-3H9.62Z"/><path d="M12.37 1.66l-.38.33 -.38-.34c.09-.11.23-.17.37-.17 .14 0 .27.06.37.16Zm-.38 5.33c-.38.33-.38.33-.38.33l-.01-.01 -.01-.01 -.02-.02c-.02-.02-.03-.04-.06-.06 -.05-.05-.11-.13-.18-.21 -.15-.18-.35-.42-.54-.7 -.2-.28-.4-.58-.56-.89 -.15-.29-.29-.64-.29-.97 0-.34.14-.69.28-.97 .15-.31.35-.62.55-.89 .19-.28.39-.52.53-.7 .07-.09.13-.16.17-.21 .02-.03.03-.05.05-.06l.01-.02 0-.01 0-.01c0-.01 0 0 .37.33 .37-.34.37-.34.37-.34l0 0 0 0 .01.01c.01.01.02.03.05.05 .04.04.1.12.17.2 .14.17.34.41.53.69 .19.27.39.57.55.88 .14.28.28.63.28.96 0 .33-.15.68-.29.96 -.16.3-.36.61-.56.88 -.2.27-.4.51-.54.69 -.08.08-.14.15-.18.2 -.03.02-.04.04-.06.05l-.02.01 -.01 0 -.01 0s-.01 0-.38-.34Zm0 0l-.38.33c.09.1.23.16.37.16 .14 0 .27-.07.37-.17l-.38-.34Zm0-.78c.1-.14.22-.29.34-.46 .18-.26.35-.52.47-.76 .13-.26.17-.43.17-.52 0-.09-.05-.26-.18-.52 -.13-.25-.3-.51-.48-.76 -.12-.17-.24-.32-.35-.46 -.11.13-.23.28-.35.45 -.19.25-.36.51-.48.75 -.14.25-.18.42-.18.51 0 .08.04.25.17.51 .12.24.29.5.47.75 .11.16.23.31.34.45Z"/><path d="M12.37 6.66l-.38.33 -.38-.34c.09-.11.23-.17.37-.17 .14 0 .27.06.37.16Zm-.38 5.33c-.38.33-.38.33-.38.33l-.01-.01 -.01-.01 -.02-.02c-.02-.02-.03-.04-.06-.06 -.05-.05-.11-.13-.18-.21 -.15-.18-.35-.42-.54-.7 -.2-.28-.4-.58-.56-.89 -.15-.29-.29-.64-.29-.97 0-.34.14-.69.28-.97 .15-.31.35-.62.55-.89 .19-.28.39-.52.53-.7 .07-.09.13-.16.17-.21 .02-.03.03-.05.05-.06l.01-.02 0-.01 0-.01c0-.01 0 0 .37.33 .37-.34.37-.34.37-.34l0 0 0 0 .01.01c.01.01.02.03.05.05 .04.04.1.12.17.2 .14.17.34.41.53.69 .19.27.39.57.55.88 .14.28.28.63.28.96 0 .33-.15.68-.29.96 -.16.3-.36.61-.56.88 -.2.27-.4.51-.54.69 -.08.08-.14.15-.18.2 -.03.02-.04.04-.06.05l-.02.01 -.01 0 -.01 0s-.01 0-.38-.34Zm0 0l-.38.33c.09.1.23.16.37.16 .14 0 .27-.07.37-.17l-.38-.34Zm0-.78c.1-.14.22-.29.34-.46 .18-.26.35-.52.47-.76 .13-.26.17-.43.17-.52 0-.09-.05-.26-.18-.52 -.13-.25-.3-.51-.48-.76 -.12-.17-.24-.32-.35-.46 -.11.13-.23.28-.35.45 -.19.25-.36.51-.48.75 -.14.25-.18.42-.18.51 0 .08.04.25.17.51 .12.24.29.5.47.75 .11.16.23.31.34.45Z"/><path d="M12 7l-.34.37c-.11-.1-.17-.24-.17-.38 0-.15.06-.28.16-.38l.33.37Zm5 0l.33.37c.1-.1.16-.24.16-.38 0-.15-.07-.28-.17-.38l-.34.37Zm-4.23 0c.13.1.28.22.45.34 .25.18.51.35.75.47 .25.13.42.17.51.17 .08 0 .25-.05.51-.18 .24-.13.5-.3.75-.48 .16-.12.31-.24.45-.35 -.14-.11-.29-.23-.46-.35 -.26-.19-.52-.36-.76-.48 -.26-.14-.43-.18-.52-.18 -.09 0-.26.04-.52.17 -.25.12-.51.29-.76.47 -.17.11-.32.23-.46.34Zm.75-1.72c.28-.15.63-.29.96-.29 .33 0 .68.14.96.28 .3.15.61.35.88.55 .27.19.51.39.69.53 .08.07.15.13.2.17 .02.02.04.03.05.05l.01.01 0 0 0 0s0 0-.34.37c.33.37.33.37.33.37l-.01 0 -.01 0 -.02.01c-.02.01-.04.02-.06.05 -.05.04-.13.1-.21.17 -.18.14-.42.34-.7.53 -.28.19-.58.39-.89.55 -.29.14-.64.28-.97.28 -.34 0-.69-.15-.97-.29 -.31-.16-.62-.36-.89-.56 -.28-.2-.52-.4-.7-.54 -.09-.08-.16-.14-.21-.18 -.03-.03-.05-.04-.06-.06l-.02-.02 -.01-.01 -.01-.01c-.01-.01 0 0 .33-.38 -.34-.38-.34-.38-.34-.38l0-.01 0-.01 .01-.02c.01-.02.03-.03.05-.06 .04-.05.12-.11.2-.18 .17-.15.41-.35.69-.54 .27-.2.57-.4.88-.56Z"/><path d="M7 7l-.34.37c-.11-.1-.17-.24-.17-.38 0-.15.06-.28.16-.38l.33.37Zm5 0l.33.37c.1-.1.16-.24.16-.38 0-.15-.07-.28-.17-.38l-.34.37ZM7.77 7c.13.1.28.22.45.34 .25.18.51.35.75.47 .25.13.42.17.51.17 .08 0 .25-.05.51-.18 .24-.13.5-.3.75-.48 .16-.12.31-.24.45-.35 -.14-.11-.29-.23-.46-.35 -.26-.19-.52-.36-.76-.48 -.26-.14-.43-.18-.52-.18 -.09 0-.26.04-.52.17 -.25.12-.51.29-.76.47 -.17.11-.32.23-.46.34Zm.75-1.72c.28-.15.63-.29.96-.29 .33 0 .68.14.96.28 .3.15.61.35.88.55 .27.19.51.39.69.53 .08.07.15.13.2.17 .02.02.04.03.05.05l.01.01 0 0 0 0s0 0-.34.37c.33.37.33.37.33.37l-.01 0 -.01 0 -.02.01c-.02.01-.04.02-.06.05 -.05.04-.13.1-.21.17 -.18.14-.42.34-.7.53 -.28.19-.58.39-.89.55 -.29.14-.64.28-.97.28 -.34 0-.69-.15-.97-.29 -.31-.16-.62-.36-.89-.56 -.28-.2-.52-.4-.7-.54 -.09-.08-.16-.14-.21-.18 -.03-.03-.05-.04-.06-.06l-.02-.02 -.01-.01 -.01-.01c-.01-.01 0 0 .33-.38 -.34-.38-.34-.38-.34-.38l0-.01 0-.01 .01-.02c.01-.02.03-.03.05-.06 .04-.05.12-.11.2-.18 .17-.15.41-.35.69-.54 .27-.2.57-.4.88-.56Z"/><path d="M16.32 11.61c.16.14.22.37.13.57l-2.5 5.99c-.08.18-.26.3-.47.3h-1.51c-.28 0-.5-.23-.5-.5v-3.5c0-.18.08-.34.23-.43l4-2.5c.18-.12.42-.1.58.04Zm-3.83 3.15v2.72h.66l1.76-4.25 -2.44 1.52Z"/><path d="M7.67 11.61c-.17.14-.23.37-.14.57l2.5 5.99c.07.18.25.3.46.3h1.5c.27 0 .5-.23.5-.5v-3.5c0-.18-.09-.34-.24-.43l-4.01-2.5c-.19-.12-.43-.1-.59.04Zm3.82 3.15v2.72h-.67l-1.77-4.25 2.43 1.52Z"/><path d="M11.5 18v-6.5h1V18h-1Z"/></g></svg>