<svg viewBox="0 0 24 24" xmlns="http://www.w3.org/2000/svg"><g fill-rule="evenodd"><path d="M4.5 14c0-.28.22-.5.5-.5h14c.27 0 .5.22.5.5v3c0 .27-.23.5-.5.5H5c-.28 0-.5-.23-.5-.5v-3Zm1 .5v2h13v-2h-13Z"/><path d="M5.57 16.73c.09-.15.25-.24.42-.24h12c.17 0 .33.08.42.23 .09.14.1.32.02.48l-2.4 5c-.09.17-.26.28-.46.28h-7.2c-.2 0-.37-.12-.46-.29l-2.4-5c-.08-.16-.07-.34.02-.49Zm1.21.76l1.92 4h6.57l1.92-4H6.77Z"/><path d="M12 4.5c-3.06 0-5.5 2.401-5.5 5.33 0 1.41.57 2.7 1.5 3.66h7.98c.93-.96 1.5-2.25 1.5-3.67 0-2.94-2.45-5.34-5.5-5.34ZM5.5 9.83c0-3.52 2.92-6.34 6.5-6.34 3.57 0 6.5 2.82 6.5 6.33 0 1.77-.76 3.38-1.96 4.52 -.1.08-.22.13-.35.13h-8.4c-.13 0-.26-.05-.35-.14 -1.21-1.15-1.96-2.76-1.96-4.53Z"/><path d="M5.5 2.5c-1.11 0-2 .89-2 2 0 1.1.89 2 2 2 1.1 0 2-.9 2-2 0-1.11-.9-2-2-2Zm-3 2c0-1.66 1.34-3 3-3 1.65 0 3 1.34 3 3 0 1.65-1.35 3-3 3 -1.66 0-3-1.35-3-3Z"/><path d="M19 4.5c-.83 0-1.5.67-1.5 1.5 0 .82.67 1.5 1.5 1.5 .82 0 1.5-.68 1.5-1.5 0-.83-.68-1.5-1.5-1.5ZM16.5 6c0-1.39 1.11-2.5 2.5-2.5 1.38 0 2.5 1.11 2.5 2.5 0 1.38-1.12 2.5-2.5 2.5 -1.39 0-2.5-1.12-2.5-2.5Z"/><path d="M11.5 8.5v-2h1v2h-1Z"/><path d="M10.5 10.5h-2v-1h2v1Z"/><path d="M15.5 10.5h-2v-1h2v1Z"/></g></svg>