<svg viewBox="0 0 24 24" xmlns="http://www.w3.org/2000/svg"><g fill-rule="evenodd"><path d="M14.66 6.52c.2.07.33.25.33.47v5c0 1.38-1.12 2.5-2.5 2.5 -1.39 0-2.5-1.12-2.5-2.5h.5l-.4-.32 4-5.01c.13-.17.35-.23.55-.16ZM11 12.15c.08.75.71 1.33 1.49 1.33 .82 0 1.5-.68 1.5-1.5V8.4l-3 3.73Z"/><path d="M6 7c0-1.94 1.56-3.5 3.5-3.5h8c.2 0 .38.12.46.3 .07.18.03.4-.11.54l-2.99 2.98 -3.99 4.97c-.13.15-.33.22-.52.17l-1.73-.44c-1.56-.39-2.66-1.79-2.66-3.4V6.96Zm3.5-2.5C8.11 4.5 7 5.61 7 7v1.65c0 1.14.78 2.14 1.89 2.42l1.41.35 3.79-4.75c.01-.02.02-.03.03-.05l2.14-2.15h-6.8Z"/><path d="M9.97 1.85l2.49 8 -.96.29 -2.51-8 .95-.3Z"/><path d="M12 22v-8h1v8h-1Z"/></g></svg>