<svg viewBox="0 0 24 24" xmlns="http://www.w3.org/2000/svg"><g fill-rule="evenodd"><path d="M12.46 1.81l-.47.18 -.47-.19c.07-.19.25-.32.46-.32 .2 0 .38.12.46.31Zm-.47 12.18l-.47.18 -.01-.02 -.02-.05c-.02-.04-.04-.1-.07-.16 -.06-.14-.14-.34-.23-.58 -.19-.48-.44-1.13-.7-1.82 -.26-.69-.51-1.41-.7-2.04 -.1-.32-.18-.61-.24-.87 -.06-.25-.1-.49-.1-.69 0-.2.04-.44.09-.69 .05-.26.14-.55.23-.87 .19-.63.44-1.36.69-2.04 .25-.69.5-1.34.69-1.82 .09-.24.17-.44.22-.573 .02-.07.04-.13.06-.16l.01-.05 0-.02 .46.18 .46-.19 0 .01 .01.04c.01.03.03.09.06.15 .05.13.13.33.22.573 .18.47.43 1.12.69 1.81 .25.68.5 1.4.69 2.03 .09.31.17.6.23.86 .05.24.09.48.09.68 0 .19-.05.43-.1.68 -.06.25-.15.54-.24.86 -.2.62-.45 1.35-.7 2.03 -.26.68-.51 1.33-.7 1.81 -.1.23-.18.43-.23.57 -.03.06-.05.12-.07.15l-.02.04 -.01.01 -.47-.19Zm0 0l-.47.18c.07.18.25.31.46.31 .2 0 .38-.13.46-.32l-.47-.19Zm0-1.36c.15-.42.34-.9.53-1.41 .24-.68.49-1.39.67-1.99 .09-.31.16-.58.21-.8 .05-.24.07-.39.07-.47 0-.08-.03-.24-.08-.47 -.06-.23-.13-.5-.22-.8 -.19-.61-.43-1.31-.68-1.99 -.19-.51-.38-1-.54-1.41 -.16.41-.35.89-.54 1.4 -.25.67-.5 1.38-.68 1.98 -.1.3-.17.57-.22.79 -.06.23-.08.38-.08.46 0 .07.02.23.07.46 .05.22.12.49.21.79 .18.6.43 1.3.67 1.98 .18.5.37.99.53 1.4Z"/><path d="M6.46 1.81l-.47.18 -.47-.19c.07-.19.25-.32.46-.32 .2 0 .38.12.46.31Zm-.47 12.18l-.47.18 -.01-.02 -.02-.05c-.02-.04-.04-.1-.07-.16 -.06-.14-.14-.34-.23-.58 -.19-.48-.44-1.13-.7-1.82 -.26-.69-.51-1.41-.7-2.04 -.1-.32-.18-.61-.24-.87 -.06-.25-.1-.49-.1-.69 0-.2.04-.44.09-.69 .05-.26.14-.55.23-.87 .19-.63.44-1.36.69-2.04 .25-.69.5-1.34.69-1.82 .09-.24.17-.44.22-.573 .02-.07.04-.13.06-.16l.01-.05 0-.02 .46.18 .46-.19 0 .01 .01.04c.01.03.03.09.06.15 .05.13.13.33.22.573 .18.47.43 1.12.69 1.81 .25.68.5 1.4.69 2.03 .09.31.17.6.23.86 .05.24.09.48.09.68 0 .19-.05.43-.1.68 -.06.25-.15.54-.24.86 -.2.62-.45 1.35-.7 2.03 -.26.68-.51 1.33-.7 1.81 -.1.23-.18.43-.23.57 -.03.06-.05.12-.07.15l-.02.04 -.01.01 -.47-.19Zm0 0l-.47.18c.07.18.25.31.46.31 .2 0 .38-.13.46-.32l-.47-.19Zm0-1.36c.15-.42.34-.9.53-1.41 .24-.68.49-1.39.67-1.99 .09-.31.16-.58.21-.8 .05-.24.07-.39.07-.47 0-.08-.03-.24-.08-.47 -.06-.23-.13-.5-.22-.8 -.19-.61-.43-1.31-.68-1.99 -.19-.51-.38-1-.54-1.41 -.16.41-.35.89-.54 1.4 -.25.67-.5 1.38-.68 1.98 -.1.3-.17.57-.22.79 -.06.23-.08.38-.08.46 0 .07.02.23.07.46 .05.22.12.49.21.79 .18.6.42 1.3.67 1.98 .18.5.37.99.53 1.4Z"/><path d="M18.46 1.81l-.47.18 -.47-.19c.07-.19.25-.32.46-.32 .2 0 .38.12.46.31Zm-.47 12.18l-.47.18 -.01-.02 -.02-.05c-.02-.04-.04-.1-.07-.16 -.06-.14-.14-.34-.23-.58 -.19-.48-.44-1.13-.7-1.82 -.26-.69-.51-1.41-.7-2.04 -.1-.32-.18-.61-.24-.87 -.06-.25-.1-.49-.1-.69 0-.2.04-.44.09-.69 .05-.26.14-.55.23-.87 .19-.63.44-1.36.69-2.04 .25-.69.5-1.34.69-1.82 .09-.24.17-.44.22-.573 .02-.07.04-.13.06-.16l.01-.05 0-.02 .46.18 .46-.19 0 .01 .01.04c.01.03.03.09.06.15 .05.13.13.33.22.573 .18.47.43 1.12.69 1.81 .25.68.5 1.4.69 2.03 .09.31.17.6.23.86 .05.24.09.48.09.68 0 .19-.05.43-.1.68 -.06.25-.15.54-.24.86 -.2.62-.45 1.35-.7 2.03 -.26.68-.51 1.33-.7 1.81 -.1.23-.18.43-.23.57 -.03.06-.05.12-.07.15l-.02.04 -.01.01 -.47-.19Zm0 0l-.47.18c.07.18.25.31.46.31 .2 0 .38-.13.46-.32l-.47-.19Zm0-1.36c.15-.42.34-.9.53-1.41 .24-.68.49-1.39.67-1.99 .09-.31.16-.58.21-.8 .05-.24.07-.39.07-.47 0-.08-.03-.24-.08-.47 -.06-.23-.13-.5-.22-.8 -.19-.61-.43-1.31-.68-1.99 -.19-.51-.38-1-.54-1.41 -.16.41-.35.89-.54 1.4 -.25.67-.5 1.38-.68 1.98 -.1.3-.17.57-.22.79 -.06.23-.08.38-.08.46 0 .07.02.23.07.46 .05.22.12.49.21.79 .18.6.43 1.3.67 1.98 .18.5.37.99.53 1.4Z"/><path d="M11.5 18v-5.01h1v5h-1Z"/><path d="M16.51 17.89l1-4.5 .97.21 -1 4.49 -.98-.22Z"/><path d="M6.51 18.1l-1-4.5 .97-.22 1 4.5 -.98.21Z"/><path d="M5.58 17.71c.09-.14.24-.22.41-.22h12c.16 0 .31.08.41.21 .09.13.11.3.05.46l-1.5 4c-.08.19-.26.32-.47.32h-9c-.21 0-.4-.13-.47-.33l-1.5-4c-.06-.16-.04-.33.05-.47Zm1.13.78l1.125 3h8.307l1.125-3H6.71Z"/></g></svg>