<svg viewBox="0 0 24 24" xmlns="http://www.w3.org/2000/svg"><g fill-rule="evenodd"><path d="M12 8.5c-1.94 0-3.5 1.56-3.5 3.5 0 1.93 1.56 3.5 3.5 3.5 1.93 0 3.5-1.57 3.5-3.5 0-1.94-1.57-3.5-3.5-3.5ZM7.5 12c0-2.49 2.01-4.5 4.5-4.5 2.48 0 4.5 2.01 4.5 4.5 0 2.48-2.02 4.5-4.5 4.5 -2.49 0-4.5-2.02-4.5-4.5Z"/><path d="M11.4 3.34c-.25.65-.41 1.59-.41 2.65 0 .78.08 1.5.23 2.09l-.98.24c-.17-.68-.27-1.49-.27-2.34 0-1.15.17-2.22.47-3.01 .14-.4.33-.75.57-1.02 .23-.27.55-.49.95-.49 .4 0 .72.21.95.48 .23.26.42.61.57 1.01 .29.79.47 1.85.47 3 0 .85-.1 1.65-.27 2.33l-.98-.25c.14-.59.23-1.31.23-2.1 0-1.07-.17-2-.41-2.66 -.13-.33-.26-.57-.39-.71 -.13-.15-.2-.15-.21-.15 -.02 0-.09 0-.21.14 -.13.14-.26.37-.39.7Z"/><path d="M11.4 20.65c-.25-.66-.41-1.6-.41-2.66 0-.79.08-1.51.23-2.1l-.98-.25c-.17.67-.27 1.48-.27 2.33 0 1.14.17 2.21.47 3 .14.39.33.74.57 1.01 .23.26.55.48.95.48 .4 0 .72-.22.95-.49 .23-.27.42-.62.57-1.02 .29-.8.47-1.86.47-3.01 0-.86-.1-1.66-.27-2.34l-.98.24c.14.58.23 1.3.23 2.09 0 1.06-.17 1.99-.41 2.65 -.13.32-.26.56-.39.7 -.13.14-.2.14-.21.14 -.02 0-.09-.01-.21-.15 -.13-.15-.26-.38-.39-.71Z"/><path d="M5.46 6.3c.28.63.83 1.41 1.58 2.16 .55.55 1.12 1 1.64 1.31l-.52.85c-.6-.36-1.24-.86-1.84-1.47 -.82-.82-1.45-1.69-1.8-2.46 -.18-.39-.3-.77-.32-1.13 -.03-.36.05-.74.33-1.02 .28-.29.66-.36 1.01-.34 .35.02.73.13 1.12.31 .77.35 1.64.97 2.45 1.79 .6.6 1.1 1.23 1.46 1.83l-.86.51c-.32-.53-.76-1.1-1.32-1.65 -.75-.75-1.53-1.3-2.17-1.59 -.33-.15-.58-.22-.77-.23 -.19-.02-.25.03-.26.04 -.01 0-.06.06-.05.25 .01.18.07.44.22.76Z"/><path d="M18.53 6.3c-.29.63-.84 1.41-1.59 2.16 -.56.55-1.13 1-1.65 1.31l.51.85c.59-.36 1.23-.86 1.83-1.47 .81-.82 1.44-1.69 1.79-2.46 .17-.39.29-.77.31-1.13 .02-.36-.06-.74-.34-1.02 -.29-.29-.67-.36-1.02-.34 -.36.02-.74.13-1.13.31 -.78.35-1.65.97-2.46 1.79 -.61.6-1.11 1.23-1.47 1.83l.85.51c.31-.53.75-1.1 1.31-1.65 .74-.75 1.52-1.3 2.16-1.59 .32-.15.57-.22.76-.23 .18-.02.24.03.25.04 0 0 .05.06.04.25 -.02.18-.08.44-.23.76Z"/><path d="M17.69 18.53c-.64-.29-1.42-.84-2.17-1.59 -.56-.56-1.01-1.13-1.32-1.65l-.86.51c.35.59.85 1.23 1.46 1.83 .81.81 1.68 1.44 2.45 1.79 .38.17.76.29 1.12.31 .35.02.73-.06 1.01-.34 .28-.29.35-.67.33-1.02 -.03-.36-.14-.74-.32-1.13 -.36-.78-.98-1.65-1.8-2.46 -.61-.61-1.24-1.11-1.84-1.47l-.52.85c.52.31 1.09.75 1.64 1.31 .74.74 1.29 1.52 1.58 2.16 .14.32.21.57.22.76 .01.18-.04.24-.05.25 -.01 0-.07.05-.26.04 -.19-.02-.45-.08-.77-.23Z"/><path d="M6.3 18.53c.63-.29 1.41-.84 2.16-1.59 .55-.56 1-1.13 1.31-1.65l.85.51c-.36.59-.86 1.23-1.47 1.83 -.82.81-1.69 1.44-2.46 1.79 -.39.17-.77.29-1.13.31 -.36.02-.74-.06-1.02-.34 -.29-.29-.36-.67-.34-1.02 .02-.36.13-.74.31-1.13 .35-.78.97-1.65 1.79-2.46 .6-.61 1.23-1.11 1.83-1.47l.51.85c-.53.31-1.1.75-1.65 1.31 -.75.74-1.3 1.52-1.59 2.16 -.15.32-.22.57-.23.76 -.02.18.03.24.04.25 0 0 .06.05.25.04 .18-.02.44-.08.76-.23Z"/><path d="M3.34 12.59c.65.24 1.59.4 2.65.4 .78 0 1.5-.09 2.09-.24l.24.97c-.68.16-1.49.26-2.34.26 -1.15 0-2.22-.18-3.01-.48 -.4-.15-.75-.34-1.02-.58 -.27-.24-.49-.56-.49-.96 0-.41.21-.73.48-.96 .26-.24.61-.43 1.01-.58 .79-.3 1.85-.48 3-.48 .85 0 1.65.09 2.33.26l-.25.97c-.59-.15-1.31-.24-2.1-.24 -1.07 0-2 .16-2.66.4 -.33.12-.57.25-.71.38 -.15.12-.15.19-.15.2 0 .01 0 .08.14.2 .14.12.37.25.7.38Z"/><path d="M20.65 12.59c-.66.24-1.6.4-2.66.4 -.79 0-1.51-.09-2.1-.24l-.25.97c.67.16 1.48.26 2.33.26 1.14 0 2.21-.18 3-.48 .39-.15.74-.34 1.01-.58 .26-.24.48-.56.48-.96 0-.41-.22-.73-.49-.96 -.27-.24-.62-.43-1.02-.58 -.8-.3-1.86-.48-3.01-.48 -.86 0-1.66.09-2.34.26l.24.97c.58-.15 1.3-.24 2.09-.24 1.06 0 1.99.16 2.65.4 .32.12.56.25.7.38 .14.12.14.19.14.2 0 .01-.01.08-.15.2 -.15.12-.38.25-.71.38Z"/></g></svg>