<svg viewBox="0 0 24 24" xmlns="http://www.w3.org/2000/svg"><g fill-rule="evenodd"><path d="M7.6 17.69c.09-.13.24-.2.39-.2h8c.15 0 .29.07.39.19 .09.12.12.27.09.42l-1 4c-.06.22-.26.37-.49.37h-6c-.23 0-.43-.16-.49-.38l-1-4c-.04-.15-.01-.31.09-.43Zm1.03.8l.75 3h5.21l.75-3H8.62Z"/><path d="M11.5 18V8h1v10h-1Z"/><path d="M12 5.5c-.56 0-1 .44-1 1 0 .55.44 1 1 1 .55 0 1-.45 1-1 0-.56-.45-1-1-1Zm-2 1c0-1.11.89-2 2-2 1.1 0 2 .89 2 2 0 1.1-.9 2-2 2 -1.11 0-2-.9-2-2Z"/><path d="M12.5 2v3h-1V2h1Z"/><path d="M11.5 11V8h1v3h-1Z"/><path d="M16.5 7h-3V6h3v1Z"/><path d="M10.5 7h-3V6h3v1Z"/><path d="M15.53 3.67L13.4 5.79l-.71-.71 2.12-2.13 .7.7Z"/><path d="M11.29 7.91l-2.13 2.12 -.71-.71 2.12-2.13 .7.7Z"/><path d="M8.46 3.67l2.12 2.12 .7-.71 -2.13-2.13 -.71.7Z"/><path d="M12.7 7.91l2.12 2.12 .7-.71 -2.13-2.13 -.71.7Z"/><path d="M10 14.5c0-1.39-1.12-2.5-2.5-2.5h-3c-.28 0-.5.22-.5.5v1C4 14.88 5.11 16 6.5 16h3c.27 0 .5-.23.5-.5v-1ZM7.5 13c.82 0 1.5.67 1.5 1.5v.5H6.5c-.83 0-1.5-.68-1.5-1.5V13h2.5Z"/><path d="M14 14.5c0-1.39 1.11-2.5 2.5-2.5h3c.27 0 .5.22.5.5v1c0 1.38-1.12 2.5-2.5 2.5h-3c-.28 0-.5-.23-.5-.5v-1Zm2.5-1.5c-.83 0-1.5.67-1.5 1.5v.5h2.5c.82 0 1.5-.68 1.5-1.5V13h-2.5Z"/></g></svg>