<svg viewBox="0 0 24 24" xmlns="http://www.w3.org/2000/svg"><g fill-rule="evenodd"><path d="M2.04 1.5l-.05.49 -.5.04c-.02-.15.03-.3.14-.41 .1-.11.25-.16.4-.15Zm18.1 18.65c.49.02.49.02.49.02l0-.01 0-.03 0-.1c0-.09 0-.2.01-.36 .01-.31.02-.74.02-1.27 0-1.07-.01-2.51-.13-4.06 -.12-1.55-.34-3.21-.73-4.7 -.39-1.47-.97-2.83-1.84-3.71 -.87-.87-2.33-1.56-3.96-2.12 -1.65-.57-3.53-1.02-5.31-1.37 -1.78-.36-3.45-.61-4.69-.77 -.62-.09-1.13-.15-1.48-.19 -.18-.02-.32-.04-.41-.05L2 1.41l-.03-.01 -.01-.01c-.01-.01 0 0-.05.49 -.5.04-.5.04-.5.04l0 0 0 .02 .01.1c0 .09.02.23.04.4 .03.35.09.85.18 1.47 .16 1.23.41 2.9.76 4.68 .34 1.77.79 3.65 1.36 5.3 .55 1.62 1.24 3.08 2.11 3.95 .87.87 2.23 1.45 3.7 1.83 1.48.39 3.14.6 4.69.72 1.54.11 2.99.13 4.05.12 .53-.01.96-.02 1.26-.03 .15-.01.26-.02.35-.02l.09-.01 .02-.01 0-.01s0 0-.03-.5Zm0 0l.49.02c-.02.25-.22.45-.48.47l-.03-.5Zm-.48-.48c0-.01 0-.01 0-.01 .01-.3.02-.72.02-1.24 0-1.05-.01-2.47-.13-3.98 -.12-1.52-.33-3.12-.7-4.52 -.38-1.42-.9-2.57-1.58-3.26 -.7-.7-1.98-1.33-3.58-1.88 -1.59-.55-3.42-.99-5.17-1.33 -1.75-.35-3.41-.6-4.62-.76 -.57-.08-1.04-.14-1.38-.18 .03.34.09.81.17 1.37 .16 1.21.41 2.87.75 4.61 .34 1.75.78 3.58 1.32 5.17 .54 1.6 1.18 2.87 1.87 3.57 .68.68 1.83 1.2 3.25 1.57 1.4.37 2.99.58 4.51.69 1.51.11 2.93.13 3.97.12 .52-.01.94-.02 1.23-.03 0 0 0-.01 0-.01Z"/><path d="M2.35 1.64l20 20 -.71.7 -20-20 .7-.71Z"/><path d="M8.64 8.64c.11-.12.26-.17.42-.15l6.96.99h3.46v.99h-3.5c-.03 0-.05-.01-.08-.01l-6.35-.91 .9 6.34c0 .02 0 .04 0 .07v3.5h-1v-3.47l-1-6.97c-.03-.16.03-.32.14-.43Z"/></g></svg>