<svg viewBox="0 0 24 24" xmlns="http://www.w3.org/2000/svg"><g fill-rule="evenodd"><path d="M12.63 5.73c.22.18.36.47.36.76v15.5c0 .55-.45 1-1 1h-8c-.56 0-1-.45-1-1v-14c0-.49.34-.9.81-.99l7.99-1.5c.29-.06.59.02.82.21ZM4.99 8.82v12.17h6V7.69l-6 1.125Z"/><path d="M6.5 15c-.56 0-1 .44-1 1v6c0 .55.44 1 1 1h3c.55 0 1-.45 1-1v-6c0-.56-.45-1-1-1h-3Z"/><path d="M9.5 12.5h-3v-2h3v2Z"/><path d="M11 1.99c0-.3.13-.58.36-.77 .22-.19.53-.27.82-.22l8 1.5c.47.08.81.5.81.98v18.5c0 .55-.45 1-1 1h-8c-.56 0-1-.45-1-1v-20Zm6.5 5.99h-3v-2h3v2Zm-3 4.5h3v-2h-3v2Z"/><path d="M2 21h20v2H2v-2Z"/></g></svg>