<svg viewBox="0 0 24 24" xmlns="http://www.w3.org/2000/svg"><g fill-rule="evenodd"><path d="M6.67 1.18c.34-.25.8-.25 1.14 0l3.87 2.71 -.43.6h.71v17.5c0 .55-.45 1-1 1H8.45c.55 0 1-.45 1-1v-5c0-.56-.45-1-1-1h-2.5c-.56 0-1 .44-1 1v5c0 .55.44 1 1 1h-2.5c-.56 0-1-.45-1-1V5.84l-.83-1.18 5-3.5Zm1.82 8.31h-2.5v-2h2.5v2Zm-2.5 3h2.5v-2h-2.5v2Z"/><path d="M2 21h20v2H2v-2Z"/><path d="M10 11.5c0-.56.44-1 1-1h9.5c.55 0 1 .44 1 1V22c0 .55-.45 1-1 1H11c-.56 0-1-.45-1-1V11.5Zm2 1V21h7.5v-8.5H12Z"/><path d="M11 8c-.56 0-1 .44-1 1v2.5c0 .55.44 1 1 1h11c.38 0 .73-.23.9-.57 .16-.35.11-.76-.13-1.06l-2-2.5c-.19-.24-.48-.38-.79-.38h-9Z"/><path d="M18 17h-4.5v-2H18v2Z"/><path d="M18 20h-4.5v-2H18v2Z"/><path d="M15.3 1.1c.28-.15.61-.15.89 0l5 2.5c.33.16.55.51.55.89v5.5h-2V5.1l-4-2 -4.56 2.27 -.9-1.79 5-2.5Z"/></g></svg>