<svg viewBox="0 0 24 24" xmlns="http://www.w3.org/2000/svg"><g fill-rule="evenodd"><path d="M4 10c0-.56.44-1 1-1h7c.55 0 1 .44 1 1v12c0 .55-.45 1-1 1H5c-.56 0-1-.45-1-1V10Zm2 1v10h5V11H6Z"/><path d="M11 10c0-.56.44-1 1-1h7c.55 0 1 .44 1 1v12c0 .55-.45 1-1 1h-7c-.56 0-1-.45-1-1V10Zm3.5 3v3h2v-3h-2Z"/><path d="M14.5 7V2.5h2V7h-2Z"/><path d="M7.5 2v4.5h2V2h-2Z"/><path d="M14.89 1.2c.35-.27.84-.27 1.2 0l2 1.5 -1.2 1.6 -1.4-1.05 -1.4 1.05 -1.2-1.6 2-1.5Z"/><path d="M7.89 7.8c.35.26.84.26 1.2 0l2-1.5 -1.2-1.6 -1.4 1.05 -1.4-1.05 -1.2 1.6 2 1.5Z"/><path d="M4 10c0-.56.44-1 1-1h7c.55 0 1 .44 1 1v12c0 .55-.45 1-1 1H5c-.56 0-1-.45-1-1V10Zm3.5 3v3h2v-3h-2Z"/><path d="M22 23H2v-2h20v2Z"/></g></svg>