<svg viewBox="0 0 24 24" xmlns="http://www.w3.org/2000/svg"><g fill-rule="evenodd"><path d="M3 11c0-.56.44-1 1-1h4v2H5v7h14v-7h-3v-2h4c.55 0 1 .44 1 1v9c0 .55-.45 1-1 1H4c-.56 0-1-.45-1-1v-9Z"/><path d="M3.05 4.68c.13-.41.51-.69.94-.69h5v2H4.71l-1.34 4h3.61v2h-5c-.33 0-.63-.16-.82-.42 -.19-.27-.24-.6-.14-.91l2-6.01Zm16.22 1.31h-4.28v-2h5c.43 0 .81.27.94.68l2 6c.1.3.05.64-.14.9s-.49.41-.82.41h-5v-2h3.61l-1.34-4Z"/><path d="M12.55 2.16c-.34-.23-.78-.23-1.11 0l-6 4 1.1 1.66 .44-.3v12.46c0 .55.44 1 1 1h2.49c-.56 0-1-.45-1-1v-5.5c0-.56.44-1 1-1h3c.55 0 1 .44 1 1v5.5c0 .55-.45 1-1 1h2.5c.55 0 1-.45 1-1V7.51l.44.29 1.1-1.67 -6-4Zm-2.06 7.83h3v-2h-3v2Z"/><path d="M22 21H2v-2h20v2Z"/></g></svg>