<svg viewBox="0 0 24 24" xmlns="http://www.w3.org/2000/svg"><g fill-rule="evenodd"><path d="M3.75 3c0-.97.78-1.75 1.75-1.75h13c.96 0 1.75.78 1.75 1.75v18c0 .96-.79 1.75-1.75 1.75h-13c-.97 0-1.75-.79-1.75-1.75v-1c0-.42.33-.75.75-.75 .41 0 .75.33.75.75v1c0 .13.11.25.25.25h13c.13 0 .25-.12.25-.25V3c0-.14-.12-.25-.25-.25h-13c-.14 0-.25.11-.25.25v13c0 .41-.34.75-.75.75 -.42 0-.75-.34-.75-.75V3Z"/><path d="M11.75 2c0-.42.33-.75.75-.75h4c.41 0 .75.33.75.75v6c0 .25-.14.5-.36.63 -.23.13-.5.14-.73.03l-1.67-.84 -1.67.83c-.24.11-.51.1-.73-.04 -.23-.14-.36-.38-.36-.64v-6Zm1.5.75v4.03l.91-.46c.21-.11.45-.11.67 0l.91.45V2.73h-2.5Z"/></g></svg>