<svg viewBox="0 0 24 24" xmlns="http://www.w3.org/2000/svg"><g fill-rule="evenodd"><path d="M12 9.25c.41 0 .75.33.75.75v2.25h6.75c.41 0 .75.33.75.75v3c0 .41-.34.75-.75.75 -.42 0-.75-.34-.75-.75v-2.25H5.25V16c0 .41-.34.75-.75.75 -.42 0-.75-.34-.75-.75v-3c0-.42.33-.75.75-.75h6.75V10c0-.42.33-.75.75-.75Z"/><path d="M16.25 16c0-.42.33-.75.75-.75h5c.41 0 .75.33.75.75v3c0 .41-.34.75-.75.75 -.42 0-.75-.34-.75-.75v-2.25h-3.5V19c0 .41-.34.75-.75.75 -.42 0-.75-.34-.75-.75v-3Z"/><path d="M1.25 16c0-.42.33-.75.75-.75h5c.41 0 .75.33.75.75v3c0 .41-.34.75-.75.75 -.42 0-.75-.34-.75-.75v-2.25h-3.5V19c0 .41-.34.75-.75.75 -.42 0-.75-.34-.75-.75v-3Z"/><path d="M7.25 5c0-.42.33-.75.75-.75h3c.41 0 .75.33.75.75 0 .41-.34.75-.75.75H8.75v3.5h6.5v-3.5H15c-.42 0-.75-.34-.75-.75 0-.42.33-.75.75-.75h1c.41 0 .75.33.75.75v5c0 .41-.34.75-.75.75H8c-.42 0-.75-.34-.75-.75V5Z"/></g></svg>