<svg viewBox="0 0 24 24" xmlns="http://www.w3.org/2000/svg"><g fill-rule="evenodd"><path d="M9.25 12c0-.42.33-.75.75-.75h2.25V4.5c0-.42.33-.75.75-.75h3c.41 0 .75.33.75.75 0 .41-.34.75-.75.75h-2.25v13.5H16c.41 0 .75.33.75.75 0 .41-.34.75-.75.75h-3c-.42 0-.75-.34-.75-.75v-6.75H10c-.42 0-.75-.34-.75-.75Z"/><path d="M16 7.75c-.42 0-.75-.34-.75-.75V2c0-.42.33-.75.75-.75h3c.41 0 .75.33.75.75 0 .41-.34.75-.75.75h-2.25v3.5H19c.41 0 .75.33.75.75 0 .41-.34.75-.75.75h-3Z"/><path d="M16 22.75c-.42 0-.75-.34-.75-.75v-5c0-.42.33-.75.75-.75h3c.41 0 .75.33.75.75 0 .41-.34.75-.75.75h-2.25v3.5H19c.41 0 .75.33.75.75 0 .41-.34.75-.75.75h-3Z"/><path d="M1.25 9.5c0-.42.33-.75.75-.75h1c.41 0 .75.33.75.75 0 .41-.34.75-.75.75h-.25v3.5h6.5v-3.5H7c-.42 0-.75-.34-.75-.75 0-.42.33-.75.75-.75h3c.41 0 .75.33.75.75v5c0 .41-.34.75-.75.75H2c-.42 0-.75-.34-.75-.75v-5Z"/></g></svg>