<svg viewBox="0 0 24 24" xmlns="http://www.w3.org/2000/svg"><g fill-rule="evenodd"><path d="M9 8.25c.27 0 .52.15.66.39l7 13c.12.23.11.51-.02.74 -.14.22-.38.36-.65.36h-14c-.27 0-.51-.14-.65-.37 -.14-.23-.15-.51-.02-.75l7-13c.13-.25.38-.4.66-.4Zm-5.75 13h11.48L8.98 10.58 3.23 21.24Z"/><path d="M14.99 10.25c.25 0 .49.13.63.34l4 6.28c.22.34.11.81-.23 1.03 -.35.22-.82.11-1.04-.24l-3.37-5.3 -2.02 3.16c-.23.34-.69.45-1.04.23 -.35-.23-.46-.69-.24-1.04l2.64-4.17c.13-.22.37-.35.63-.35Zm5.96 10.11c.34-.23.81-.12 1.03.23l.63 1c.14.23.15.52.02.76 -.14.24-.39.38-.66.38h-6c-.42 0-.75-.34-.75-.75 0-.42.33-.75.75-.75h4.65c-.12-.33 0-.7.3-.89Z"/><path d="M9 5.25c.41 0 .75.33.75.75v3c0 .41-.34.75-.75.75 -.42 0-.75-.34-.75-.75V6c0-.42.33-.75.75-.75Z"/><path d="M8.25 2c0-.42.33-.75.75-.75h5c.41 0 .75.33.75.75v4c0 .41-.34.75-.75.75H9c-.42 0-.75-.34-.75-.75V2Zm1.5.75v2.5h3.5v-2.5h-3.5Z"/><path d="M5.25 15c0-.42.33-.75.75-.75h6c.41 0 .75.33.75.75 0 .41-.34.75-.75.75H6c-.42 0-.75-.34-.75-.75Z"/></g></svg>