<svg viewBox="0 0 24 24" xmlns="http://www.w3.org/2000/svg"><g fill-rule="evenodd"><path d="M14.25 10.5c0-.42.33-.75.75-.75h4c.41 0 .75.33.75.75 0 .41-.34.75-.75.75h-4c-.42 0-.75-.34-.75-.75Z"/><path d="M19 4.75c-.42 0-.75-.34-.75-.75V2c0-.42.33-.75.75-.75 .41 0 .75.33.75.75v2c0 .41-.34.75-.75.75Z"/><path d="M8 4.75c-.42 0-.75-.34-.75-.75V2c0-.42.33-.75.75-.75 .41 0 .75.33.75.75v2c0 .41-.34.75-.75.75Z"/><path d="M15 4.75c-.42 0-.75-.34-.75-.75V2c0-.42.33-.75.75-.75 .41 0 .75.33.75.75v2c0 .41-.34.75-.75.75Z"/><path d="M4 4.75c-.42 0-.75-.34-.75-.75V2c0-.42.33-.75.75-.75 .41 0 .75.33.75.75v2c0 .41-.34.75-.75.75Z"/><path d="M3.25 10.5c0-.42.33-.75.75-.75h4c.41 0 .75.33.75.75 0 .41-.34.75-.75.75H4c-.42 0-.75-.34-.75-.75Z"/><path d="M3.25 7c0-.42.33-.75.75-.75h4c.41 0 .75.33.75.75v7.5c0 1.51 1.23 2.75 2.75 2.75 1.51 0 2.75-1.24 2.75-2.75V7c0-.42.33-.75.75-.75h4c.41 0 .75.33.75.75v7.5c0 .41-.34.75-.75.75 -.42 0-.75-.34-.75-.75V7.75h-2.5v6.75c0 2.34-1.91 4.25-4.25 4.25 -2.35 0-4.25-1.91-4.25-4.25V7.75h-2.5v6.75c0 3.72 3.02 6.75 6.75 6.75 2.29 0 4.32-1.15 5.54-2.9 .23-.34.7-.43 1.04-.19 .33.23.42.7.18 1.04 -1.49 2.13-3.97 3.53-6.78 3.53 -4.56 0-8.25-3.7-8.25-8.25v-7.5Z"/></g></svg>