<svg viewBox="0 0 24 24" xmlns="http://www.w3.org/2000/svg"><g fill-rule="evenodd"><path d="M1.25 15c0-.42.33-.75.75-.75h4c.41 0 .75.33.75.75 0 .41-.34.75-.75.75H2c-.42 0-.75-.34-.75-.75Z"/><path d="M5.25 6c0-.42.33-.75.75-.75h4c.41 0 .75.33.75.75 0 .41-.34.75-.75.75H6.75V18c0 .41-.34.75-.75.75 -.42 0-.75-.34-.75-.75V6Z"/><path d="M13 1.25c.41 0 .75.33.75.75v8c0 .41-.34.75-.75.75H9c-.42 0-.75-.34-.75-.75 0-.42.33-.75.75-.75h3.25V2c0-.42.33-.75.75-.75Z"/><path d="M5.25 14c0-.42.33-.75.75-.75h8c.41 0 .75.33.75.75 0 .41-.34.75-.75.75H6c-.42 0-.75-.34-.75-.75Z"/><path d="M11 13.25c.41 0 .75.33.75.75v2c0 .41-.34.75-.75.75 -.42 0-.75-.34-.75-.75v-2c0-.42.33-.75.75-.75Z"/><path d="M8.25 19c0-.42.33-.75.75-.75h13c.41 0 .75.33.75.75 0 .41-.34.75-.75.75H9c-.42 0-.75-.34-.75-.75Z"/><path d="M18 1.25c.41 0 .75.33.75.75v5c0 .41-.34.75-.75.75 -.42 0-.75-.34-.75-.75V2c0-.42.33-.75.75-.75Z"/><path d="M16.25 10c0-.42.33-.75.75-.75h5c.41 0 .75.33.75.75 0 .41-.34.75-.75.75h-4.25v5.11c0 .41-.34.75-.75.75 -.42 0-.75-.34-.75-.75V9.99Z"/><path d="M1.25 3c0-.97.78-1.75 1.75-1.75h18c.96 0 1.75.78 1.75 1.75v18c0 .96-.79 1.75-1.75 1.75H3c-.97 0-1.75-.79-1.75-1.75V9c0-.42.33-.75.75-.75 .41 0 .75.33.75.75v12c0 .13.11.25.25.25h18c.13 0 .25-.12.25-.25V3c0-.14-.12-.25-.25-.25H3c-.14 0-.25.11-.25.25v2c0 .41-.34.75-.75.75 -.42 0-.75-.34-.75-.75V3Z"/></g></svg>