<svg viewBox="0 0 24 24" xmlns="http://www.w3.org/2000/svg"><g fill-rule="evenodd"><path d="M3 2.75c-.14 0-.25.11-.25.25v1c0 .13.11.25.25.25h18c.13 0 .25-.12.25-.25V3c0-.14-.12-.25-.25-.25h-2c-.42 0-.75-.34-.75-.75 0-.42.33-.75.75-.75h2c.96 0 1.75.78 1.75 1.75v1c0 .96-.79 1.75-1.75 1.75H3c-.97 0-1.75-.79-1.75-1.75V3c0-.97.78-1.75 1.75-1.75h12c.41 0 .75.33.75.75 0 .41-.34.75-.75.75H3Z"/><path d="M2.25 5c0-.42.33-.75.75-.75h18c.41 0 .75.33.75.75v10c0 .41-.34.75-.75.75H3c-.42 0-.75-.34-.75-.75V5Zm1.5.75v8.5h16.5v-8.5H3.75Z"/><path d="M1.25 16c0-.97.78-1.75 1.75-1.75h18c.96 0 1.75.78 1.75 1.75v1c0 .96-.79 1.75-1.75 1.75H3c-.97 0-1.75-.79-1.75-1.75v-1ZM3 15.75c-.14 0-.25.11-.25.25v1c0 .13.11.25.25.25h18c.13 0 .25-.12.25-.25v-1c0-.14-.12-.25-.25-.25H3Z"/><path d="M12 17.25c.41 0 .75.33.75.75v4c0 .41-.34.75-.75.75 -.42 0-.75-.34-.75-.75v-4c0-.42.33-.75.75-.75Z"/><path d="M9.25 22c0-.42.33-.75.75-.75h4c.41 0 .75.33.75.75 0 .41-.34.75-.75.75h-4c-.42 0-.75-.34-.75-.75Z"/><path d="M9.46 7.46c.29-.3.76-.3 1.06 0l3.46 3.46 3.46-3.47c.29-.3.76-.3 1.06 0 .29.29.29.76 0 1.06l-4 3.99c-.3.29-.77.29-1.07 0L9.96 9.03l-3.47 3.46c-.3.29-.77.29-1.07 0 -.3-.3-.3-.77 0-1.07l4-4.01Z"/></g></svg>