<svg viewBox="0 0 24 24" xmlns="http://www.w3.org/2000/svg"><g fill-rule="evenodd"><path d="M19.25 2c0-.42-.34-.75-.75-.75H5C2.92 1.25 1.25 2.92 1.25 5v6c0 .41.33.75.75.75 .41 0 .75-.34.75-.75V5c0-1.25 1-2.25 2.25-2.25h13.5c.41 0 .75-.34.75-.75ZM16 6.25c-.42 0-.75.33-.75.75v14c0 .13-.12.25-.25.25H3c-.14 0-.25-.12-.25-.25v-6c0-.42-.34-.75-.75-.75 -.42 0-.75.33-.75.75v6c0 .96.78 1.75 1.75 1.75h12c.96 0 1.75-.79 1.75-1.75V7c0-.42-.34-.75-.75-.75Z"/><path d="M21.75 4.5c0-1.8-1.46-3.25-3.25-3.25 -1.8 0-3.25 1.45-3.25 3.25V9c0 .41.33.75.75.75h4c.96 0 1.75-.79 1.75-1.75V4.5ZM18.5 2.75c.96 0 1.75.78 1.75 1.75V8c0 .13-.12.25-.25.25h-3.25V4.5c0-.97.78-1.75 1.75-1.75Z"/><path d="M5.25 9c0-.42.33-.75.75-.75h6c.41 0 .75.33.75.75 0 .41-.34.75-.75.75H6c-.42 0-.75-.34-.75-.75Z"/><path d="M5.25 13c0-.42.33-.75.75-.75h6c.41 0 .75.33.75.75 0 .41-.34.75-.75.75H6c-.42 0-.75-.34-.75-.75Z"/><path d="M5.25 17c0-.42.33-.75.75-.75h6c.41 0 .75.33.75.75 0 .41-.34.75-.75.75H6c-.42 0-.75-.34-.75-.75Z"/></g></svg>