<svg viewBox="0 0 24 24" xmlns="http://www.w3.org/2000/svg"><g fill-rule="evenodd"><path d="M7.25 5.75c0-.42.33-.75.75-.75h8c.41 0 .75.33.75.75 0 .41-.34.75-.75.75H8c-.42 0-.75-.34-.75-.75Z"/><path d="M11.53 1.66c.27-.22.66-.22.93 0l3.34 2.67c1.22.98 1.88 2.5 1.76 4.07 -.04.41-.4.72-.81.69 -.42-.04-.73-.4-.7-.81 .08-1.08-.38-2.12-1.22-2.79l-2.88-2.31 -2.88 2.3c-.84.67-1.3 1.71-1.22 2.78l.76 9.96c.01.13.11.23.24.23h6.14c.13 0 .23-.11.24-.24l.44-5.83c.03-.42.39-.73.8-.7 .41.03.72.39.69.8l-.45 5.82c-.08.91-.84 1.61-1.75 1.61H8.81c-.92 0-1.68-.71-1.75-1.62l-.77-9.97c-.13-1.57.54-3.1 1.76-4.08l3.34-2.68Z"/><path d="M8.25 19.25c0-.42.33-.75.75-.75h6c.41 0 .75.33.75.75v1.5c0 .96-.79 1.75-1.75 1.75h-4c-.97 0-1.75-.79-1.75-1.75v-1.5Zm1.5.75v.75c0 .13.11.25.25.25h4c.13 0 .25-.12.25-.25V20h-4.5Z"/><path d="M15.87 12.834c.22-.35.69-.44 1.04-.21l3 2c.2.13.33.37.33.62v3c0 .41-.34.75-.75.75h-3.5c-.42 0-.75-.34-.75-.75 0-.42.33-.75.75-.75h2.75v-1.85l-2.67-1.78c-.35-.23-.44-.7-.21-1.04Z"/><path d="M8.12 12.834c-.23-.35-.7-.44-1.05-.21l-3 2c-.21.13-.34.37-.34.62v3c0 .41.33.75.75.75h3.5c.41 0 .75-.34.75-.75 0-.42-.34-.75-.75-.75H5.23v-1.85l2.66-1.78c.34-.23.43-.7.2-1.04Z"/><path d="M12 12c-.42 0-.75.33-.75.75 0 .41.33.75.75.75 .41 0 .75-.34.75-.75 0-.42-.34-.75-.75-.75Zm-2.25.75c0-1.25 1-2.25 2.25-2.25 1.24 0 2.25 1 2.25 2.25 0 1.24-1.01 2.25-2.25 2.25 -1.25 0-2.25-1.01-2.25-2.25Z"/></g></svg>