<svg viewBox="0 0 24 24" xmlns="http://www.w3.org/2000/svg"><g fill-rule="evenodd"><path d="M12 2.75C8.54 2.75 5.75 5.54 5.75 9c0 2.75 1.62 5.83 3.36 8.31 .85 1.22 1.71 2.26 2.35 2.99 .19.22.37.42.52.59 .15-.17.32-.37.52-.6 .64-.74 1.5-1.78 2.35-3 1.73-2.49 3.36-5.57 3.36-8.32 0-2.28-1.22-4.27-3.03-5.36 -.36-.22-.47-.68-.26-1.03 .21-.36.67-.47 1.02-.26 2.24 1.35 3.75 3.82 3.75 6.64 0 3.24-1.88 6.66-3.64 9.18 -.9 1.27-1.79 2.36-2.46 3.12 -.34.38-.62.68-.82.89 -.1.1-.18.18-.24.24 -.03.02-.05.04-.07.06l-.02.01 -.01 0 -.01 0c-.01 0-.01 0-.54-.53 -.54.53-.54.53-.54.53l-.01-.01 -.01-.01 -.02-.02c-.02-.02-.04-.04-.07-.07 -.06-.06-.14-.14-.24-.25 -.2-.21-.48-.52-.82-.9 -.67-.77-1.57-1.85-2.46-3.13 -1.77-2.52-3.64-5.94-3.64-9.19 0-4.29 3.46-7.75 7.75-7.75 .41 0 .75.33.75.75 0 .41-.34.75-.75.75ZM12 22l-.54.53c.29.29.76.29 1.06 0l-.54-.54Z"/><path d="M11.25 11c0-1.52 1.23-2.75 2.75-2.75h1c.41 0 .75.33.75.75v1c0 1.51-1.24 2.75-2.75 2.75h-1c-.42 0-.75-.34-.75-.75v-1ZM14 9.75c-.7 0-1.25.55-1.25 1.25v.25H13c.69 0 1.25-.56 1.25-1.25v-.25H14Z"/><path d="M11.25 15c0-1.52 1.23-2.75 2.75-2.75h1c.41 0 .75.33.75.75v1c0 1.51-1.24 2.75-2.75 2.75h-1c-.42 0-.75-.34-.75-.75v-1ZM14 13.75c-.7 0-1.25.55-1.25 1.25v.25H13c.69 0 1.25-.56 1.25-1.25v-.25H14Z"/><path d="M12.75 11c0-1.52-1.24-2.75-2.75-2.75H9c-.42 0-.75.33-.75.75v1c0 1.51 1.23 2.75 2.75 2.75h1c.41 0 .75-.34.75-.75v-1ZM10 9.75c.69 0 1.25.55 1.25 1.25v.25H11c-.7 0-1.25-.56-1.25-1.25v-.25H10Z"/><path d="M12.75 15c0-1.52-1.24-2.75-2.75-2.75H9c-.42 0-.75.33-.75.75v1c0 1.51 1.23 2.75 2.75 2.75h1c.41 0 .75-.34.75-.75v-1ZM10 13.75c.69 0 1.25.55 1.25 1.25v.25H11c-.7 0-1.25-.56-1.25-1.25v-.25H10Z"/><path d="M12 7.25c.41 0 .75.33.75.75v11c0 .41-.34.75-.75.75 -.42 0-.75-.34-.75-.75V8c0-.42.33-.75.75-.75Z"/><path d="M12.55 3.49l-.56.5 -.56-.51c.14-.16.34-.25.55-.25 .21 0 .41.09.55.24Zm-.56 1.68c-.05.06-.1.12-.15.19 -.18.24-.35.49-.46.72 -.06.11-.1.2-.13.28 -.03.07-.03.1-.03.11 0 0 0 0 0 0 0 .41.33.75.75.75 .41 0 .75-.34.75-.75 0 0 0 0 0 0 -.01-.01-.01-.04-.03-.12 -.03-.08-.07-.18-.13-.29 -.12-.23-.29-.49-.46-.73 -.05-.07-.1-.13-.15-.2Zm0-1.19c-.56-.51-.56-.51-.56-.51l-.01 0 -.01 0 -.02.01c-.02.01-.03.03-.06.05 -.05.05-.11.12-.19.21 -.15.17-.35.42-.55.7 -.2.27-.41.59-.58.91 -.16.29-.32.68-.32 1.08 0 1.24 1 2.25 2.25 2.25 1.24 0 2.25-1.01 2.25-2.25 0-.4-.17-.79-.32-1.09 -.17-.32-.38-.64-.58-.92 -.21-.28-.4-.53-.55-.71 -.08-.09-.14-.17-.19-.22 -.03-.03-.04-.05-.06-.06l-.02-.02 -.01-.01 -.01-.01c-.01-.01-.01-.01-.56.5Z"/></g></svg>