<svg viewBox="0 0 24 24" xmlns="http://www.w3.org/2000/svg"><g fill-rule="evenodd"><path d="M12 2.75c-5.11 0-9.25 4.14-9.25 9.25 0 5.1 4.14 9.25 9.25 9.25 .41 0 .75.33.75.75 0 .41-.34.75-.75.75 -5.94 0-10.75-4.82-10.75-10.75C1.25 6.06 6.06 1.25 12 1.25c5.93 0 10.75 4.81 10.75 10.75 0 4.4-2.66 8.197-6.45 9.85 -.38.16-.83-.01-.99-.39 -.17-.38 0-.83.38-.99 3.26-1.43 5.55-4.69 5.55-8.49 0-5.11-4.15-9.25-9.25-9.25Z"/><path d="M15.44 7.25l.05.74 .74.05c.01-.22-.07-.44-.22-.59 -.16-.16-.37-.24-.59-.22Zm-.79 1.59c-.05.37-.12.84-.21 1.33 -.12.59-.26 1.2-.44 1.72 -.19.54-.39.89-.55 1.06 -.46.45-.98.65-1.47.65 -.5 0-1.02-.21-1.47-.66 -.46-.46-.66-.98-.66-1.47 0-.5.2-1.02.65-1.47 .16-.17.52-.37 1.06-.55 .52-.18 1.13-.33 1.72-.44 .48-.1.95-.16 1.33-.21Zm.843-.85c.74.05.74.05.74.05l-.01 0 -.01.01 -.01.03c-.01.03-.01.08-.02.14 -.02.12-.03.3-.06.52 -.06.43-.14 1.03-.25 1.66 -.12.63-.28 1.32-.49 1.94 -.21.59-.49 1.22-.91 1.64 -.72.71-1.61 1.09-2.54 1.09 -.93 0-1.82-.39-2.54-1.1 -.72-.72-1.1-1.61-1.1-2.54 0-.93.38-1.82 1.09-2.54 .41-.42 1.04-.71 1.64-.91 .61-.22 1.3-.38 1.94-.49 .63-.12 1.23-.2 1.66-.25 .21-.03.39-.05.52-.06 .06-.01.11-.02.14-.02l.03-.01 .01-.01 0-.01c0-.01 0 0 .05.74Z"/><path d="M10.53 12.96c-.3-.3-.77-.3-1.07 0l-2 2c-.3.29-.3.76 0 1.06 .29.29.76.29 1.06 0l1.99-2c.29-.3.29-.77 0-1.07Z"/></g></svg>