<svg viewBox="0 0 24 24" xmlns="http://www.w3.org/2000/svg"><g fill-rule="evenodd"><path d="M11.57 12.38c.25-.18.59-.18.85 0l3 2.07c.34.23.42.7.18 1.04 -.24.34-.71.42-1.05.18l-2.58-1.79 -2.58 1.78c-.13.08-.28.13-.43.13H5.25c.4 3.01 3.2 5.42 6.7 5.42 3.52 0 6.33-2.45 6.7-5.49 -.27-.12-.46-.39-.46-.7 0-.42.33-.75.75-.75h.5c.41 0 .75.33.75.75 0 4.29-3.76 7.67-8.25 7.67 -4.5 0-8.25-3.38-8.25-7.68 0-.42.33-.75.75-.75H8.7l2.8-1.95Z"/><path d="M13.75 9.5c0-1.52 1.23-2.75 2.75-2.75h3c.41 0 .75.33.75.75v1c0 1.51-1.24 2.75-2.75 2.75h-3c-.42 0-.75-.34-.75-.75v-1Zm2.75-1.25c-.7 0-1.25.55-1.25 1.25v.25h2.25c.69 0 1.25-.56 1.25-1.25v-.25H16.5Z"/><path d="M12 6.25c.41 0 .75.33.75.75v6.5c0 .41-.34.75-.75.75 -.42 0-.75-.34-.75-.75V7c0-.42.33-.75.75-.75Z"/><path d="M10.25 9.5c0-1.52-1.24-2.75-2.75-2.75h-3c-.42 0-.75.33-.75.75v1c0 1.51 1.23 2.75 2.75 2.75h3c.41 0 .75-.34.75-.75v-1ZM7.5 8.25c.69 0 1.25.55 1.25 1.25v.25H6.5c-.7 0-1.25-.56-1.25-1.25v-.25H7.5Z"/><path d="M8.85 10.11c.21-.36.67-.48 1.029-.26l2.11 1.26 2.11-1.27c.35-.22.81-.1 1.029.25 .21.35.09.81-.26 1.029l-2.14 1.28v6.57c0 .41-.34.75-.75.75 -.42 0-.75-.34-.75-.75v-6.58l-2.14-1.29c-.36-.22-.48-.68-.26-1.029Z"/><path d="M12 15.45l3.36 1.89c.36.2.48.65.28 1.02 -.21.36-.66.48-1.03.28l-2.64-1.48 -2.64 1.47c-.37.2-.82.07-1.03-.29 -.21-.37-.08-.82.28-1.03l3.36-1.9Z"/><path d="M12.54 1.48l-.55.51 -.55-.52c.14-.15.33-.24.54-.24 .2 0 .4.08.54.23Zm-.55 1.64c-.13.15-.27.32-.41.5 -.24.31-.47.63-.63.93 -.18.32-.22.5-.22.56 0 .57.51 1.125 1.25 1.125 .73 0 1.25-.55 1.25-1.125 0-.06-.05-.25-.22-.57 -.17-.3-.39-.62-.63-.94 -.14-.19-.28-.36-.41-.51Zm0-1.13c-.55-.52-.55-.52-.55-.52l-.01 0 -.01 0 -.02.01c-.02.01-.04.04-.07.07 -.06.06-.14.15-.24.26 -.2.22-.46.52-.73.87 -.27.34-.54.73-.75 1.12 -.2.36-.41.82-.41 1.28 0 1.49 1.27 2.625 2.75 2.625 1.47 0 2.75-1.14 2.75-2.625 0-.46-.21-.93-.41-1.29 -.22-.39-.49-.79-.75-1.13 -.27-.35-.53-.66-.73-.88 -.1-.12-.18-.21-.24-.27 -.03-.04-.06-.06-.07-.08l-.02-.02 -.01-.01 -.01-.01c-.01-.01 0 0-.55.51Z"/></g></svg>