<svg viewBox="0 0 24 24" xmlns="http://www.w3.org/2000/svg"><g fill-rule="evenodd"><path d="M17 13.75c.41 0 .75.33.75.75 0 2.89-2.36 5.25-5.25 5.25 -.42 0-.75-.34-.75-.75 0-.42.33-.75.75-.75 2.07 0 3.75-1.68 3.75-3.75 0-.42.33-.75.75-.75Z"/><path d="M8.17 5.18c-1.2 1.52-2.18 3.56-2.78 5.53 -.13.39-.54.61-.94.49 -.4-.13-.62-.54-.5-.94 .64-2.12 1.69-4.33 3.02-6.03 1.31-1.68 3.02-3.01 5-3.01 1.34 0 2.56.61 3.6 1.51s1.95 2.12 2.7 3.46c1.49 2.65 2.43 5.9 2.43 8.27 0 4.89-3.99 8.25-8.75 8.25 -4.77 0-8.75-3.36-8.75-8.25 0-.42.33-.75.75-.75 .41 0 .75.33.75.75 0 3.94 3.18 6.75 7.25 6.75 4.06 0 7.25-2.81 7.25-6.75 0-2.06-.85-5.06-2.25-7.54 -.7-1.24-1.51-2.31-2.38-3.07 -.88-.76-1.76-1.15-2.63-1.15 -1.29 0-2.62.88-3.83 2.43Z"/></g></svg>