<svg viewBox="0 0 24 24" xmlns="http://www.w3.org/2000/svg"><g fill-rule="evenodd"><path d="M11.55 8.4c.26-.2.63-.2.9 0l3.8 2.85H22c.41 0 .75.33.75.75 0 5.93-4.82 10.75-10.75 10.75 -5.94 0-10.75-4.82-10.75-10.75 0-.42.33-.75.75-.75h1c.41 0 .75.33.75.75 0 .41-.34.75-.75.75h-.23c.38 4.75 4.36 8.5 9.22 8.5 4.85 0 8.83-3.75 9.22-8.5h-5.22c-.17 0-.33-.06-.45-.15l-3.55-2.67 -3.55 2.66c-.13.09-.29.15-.45.15h-1c-.42 0-.75-.34-.75-.75 0-.42.33-.75.75-.75h.75l3.8-2.85Z"/><path d="M9.75 15.5c0-1.25 1-2.25 2.25-2.25 1.24 0 2.25 1 2.25 2.25V17c0 1.24-1.01 2.25-2.25 2.25 -1.25 0-2.25-1.01-2.25-2.25v-1.5Zm2.25-.75c-.42 0-.75.33-.75.75V17c0 .41.33.75.75.75 .41 0 .75-.34.75-.75v-1.5c0-.42-.34-.75-.75-.75Z"/><path d="M9.5 4.75c-.42 0-.75.33-.75.75 0 .41.33.75.75.75 .41 0 .75-.34.75-.75 0-.42-.34-.75-.75-.75Zm-2.25.75c0-1.25 1-2.25 2.25-2.25 1.24 0 2.25 1 2.25 2.25 0 1.24-1.01 2.25-2.25 2.25 -1.25 0-2.25-1.01-2.25-2.25Z"/><path d="M14.5 2.75c-.42 0-.75.33-.75.75 0 .41.33.75.75.75 .41 0 .75-.34.75-.75 0-.42-.34-.75-.75-.75Zm-2.25.75c0-1.25 1-2.25 2.25-2.25 1.24 0 2.25 1 2.25 2.25 0 1.24-1.01 2.25-2.25 2.25 -1.25 0-2.25-1.01-2.25-2.25Z"/></g></svg>