<svg viewBox="0 0 24 24" xmlns="http://www.w3.org/2000/svg"><g fill-rule="evenodd"><path d="M16 16.75c.69 0 1.25.55 1.25 1.25v.25H16c-.7 0-1.25-.56-1.25-1.25v-.25H16ZM18.75 18c0-1.52-1.24-2.75-2.75-2.75h-2c-.42 0-.75.33-.75.75v1c0 1.51 1.23 2.75 2.75 2.75h2c.41 0 .75-.34.75-.75v-1Z"/><path d="M6.75 18c0-1.52-1.24-2.75-2.75-2.75H2c-.42 0-.75.33-.75.75v1c0 1.51 1.23 2.75 2.75 2.75h2c.41 0 .75-.34.75-.75v-1ZM4 16.75c.69 0 1.25.55 1.25 1.25v.25H4c-.7 0-1.25-.56-1.25-1.25v-.25H4Z"/><path d="M18 17.25c.41 0 .75.33.75.75v4c0 .41-.34.75-.75.75 -.42 0-.75-.34-.75-.75v-4c0-.42.33-.75.75-.75Z"/><path d="M6 17.25c.41 0 .75.33.75.75v4c0 .41-.34.75-.75.75 -.42 0-.75-.34-.75-.75v-4c0-.42.33-.75.75-.75Z"/><path d="M17.25 18c0-1.52 1.23-2.75 2.75-2.75h2c.41 0 .75.33.75.75v1c0 1.51-1.24 2.75-2.75 2.75h-2c-.42 0-.75-.34-.75-.75v-1ZM20 16.75c-.7 0-1.25.55-1.25 1.25v.25H20c.69 0 1.25-.56 1.25-1.25v-.25H20Z"/><path d="M5.25 18c0-1.52 1.23-2.75 2.75-2.75h2c.41 0 .75.33.75.75v1c0 1.51-1.24 2.75-2.75 2.75H6c-.42 0-.75-.34-.75-.75v-1ZM8 16.75c-.7 0-1.25.55-1.25 1.25v.25H8c.69 0 1.25-.56 1.25-1.25v-.25H8Z"/><path d="M6.75 7.5c0-.42.33-.75.75-.75 1.24 0 2.25 1 2.25 2.25 0 1.24-1.01 2.25-2.25 2.25 -1.25 0-2.25-1.01-2.25-2.25 0-.42.33-.75.75-.75 .41 0 .75.33.75.75 0 .41.33.75.75.75 .41 0 .75-.34.75-.75 0-.42-.34-.75-.75-.75 -.42 0-.75-.34-.75-.75Z"/><path d="M16.5 10.75c-.42 0-.75.33-.75.75 0 .41.33.75.75.75 .41 0 .75.33.75.75 0 .41-.34.75-.75.75 -1.25 0-2.25-1.01-2.25-2.25 0-1.25 1-2.25 2.25-2.25 1.24 0 2.25 1 2.25 2.25 0 .41-.34.75-.75.75 -.42 0-.75-.34-.75-.75 0-.42-.34-.75-.75-.75Z"/><path d="M12.5 2.75c-.42 0-.75.33-.75.75 0 .41.33.75.75.75 .41 0 .75-.34.75-.75 0-.42-.34-.75-.75-.75Zm-2.25.75c0-1.25 1-2.25 2.25-2.25 1.24 0 2.25 1 2.25 2.25 0 1.24-1.01 2.25-2.25 2.25 -1.25 0-2.25-1.01-2.25-2.25Z"/></g></svg>