<svg viewBox="0 0 24 24" xmlns="http://www.w3.org/2000/svg"><g fill-rule="evenodd"><path d="M5.25 22c0-.42.33-.75.75-.75h1c.41 0 .75.33.75.75 0 .41-.34.75-.75.75H6c-.42 0-.75-.34-.75-.75Zm5 0c0-.42.33-.75.75-.75h7c.41 0 .75.33.75.75 0 .41-.34.75-.75.75h-7c-.42 0-.75-.34-.75-.75Z"/><path d="M12 6.75c-.7 0-1.25.55-1.25 1.25 0 .69.55 1.25 1.25 1.25 .69 0 1.25-.56 1.25-1.25 0-.7-.56-1.25-1.25-1.25ZM9.25 8c0-1.52 1.23-2.75 2.75-2.75 1.51 0 2.75 1.23 2.75 2.75 0 1.51-1.24 2.75-2.75 2.75 -1.52 0-2.75-1.24-2.75-2.75Z"/><path d="M8 6.25c-.55 0-1.25.61-1.25 1.75 0 1.13.7 1.75 1.25 1.75 .54 0 1.25-.62 1.25-1.75 0-1.14-.71-1.75-1.25-1.75ZM5.25 8c0-1.64 1.08-3.25 2.75-3.25 1.66 0 2.75 1.61 2.75 3.25 0 1.63-1.09 3.25-2.75 3.25 -1.67 0-2.75-1.62-2.75-3.25Z"/><path d="M16 6.25c-.55 0-1.25.61-1.25 1.75 0 1.13.7 1.75 1.25 1.75 .54 0 1.25-.62 1.25-1.75 0-1.14-.71-1.75-1.25-1.75ZM13.25 8c0-1.64 1.08-3.25 2.75-3.25 1.66 0 2.75 1.61 2.75 3.25 0 1.63-1.09 3.25-2.75 3.25 -1.67 0-2.75-1.62-2.75-3.25Z"/><path d="M12 10.75c-1.14 0-1.75.7-1.75 1.25 0 .54.61 1.25 1.75 1.25 1.13 0 1.75-.71 1.75-1.25 0-.55-.62-1.25-1.75-1.25ZM8.75 12c0-1.67 1.61-2.75 3.25-2.75 1.63 0 3.25 1.08 3.25 2.75 0 1.66-1.62 2.75-3.25 2.75 -1.64 0-3.25-1.09-3.25-2.75Z"/><path d="M12 2.75c-1.14 0-1.75.7-1.75 1.25 0 .54.61 1.25 1.75 1.25 1.13 0 1.75-.71 1.75-1.25 0-.55-.62-1.25-1.75-1.25ZM8.75 4c0-1.67 1.61-2.75 3.25-2.75 1.63 0 3.25 1.08 3.25 2.75 0 1.66-1.62 2.75-3.25 2.75 -1.64 0-3.25-1.09-3.25-2.75Z"/><path d="M12 13.25c.41 0 .75.33.75.75v8c0 .41-.34.75-.75.75 -.42 0-.75-.34-.75-.75v-8c0-.42.33-.75.75-.75Z"/><path d="M11.25 17.5c0-2.08 1.67-3.75 3.75-3.75h3c.41 0 .75.33.75.75v1c0 2.07-1.68 3.75-3.75 3.75h-3c-.42 0-.75-.34-.75-.75v-1ZM15 15.25c-1.25 0-2.25 1-2.25 2.25v.25H15c1.24 0 2.25-1.01 2.25-2.25v-.25H15Z"/></g></svg>