<svg viewBox="0 0 24 24" xmlns="http://www.w3.org/2000/svg"><g fill-rule="evenodd"><path d="M11.55 4.9c.26-.2.63-.2.9 0l3.8 2.85H17c.41 0 .75.33.75.75 0 .41-.34.75-.75.75h-1c-.17 0-.33-.06-.45-.15L12 6.43 8.45 9.09c-.13.09-.29.15-.45.15H2.77c.38 4.75 4.36 8.5 9.22 8.5 4.85 0 8.83-3.75 9.22-8.5h-.22c-.42 0-.75-.34-.75-.75 0-.42.33-.75.75-.75h1c.41 0 .75.33.75.75 0 5.93-4.82 10.75-10.75 10.75 -5.94 0-10.75-4.82-10.75-10.75 0-.42.33-.75.75-.75h5.75l3.8-2.85Z"/><path d="M8.25 11c0-1.25 1-2.25 2.25-2.25 1.24 0 2.25 1 2.25 2.25v1.5c0 1.24-1.01 2.25-2.25 2.25 -1.25 0-2.25-1.01-2.25-2.25V11Zm2.25-.75c-.42 0-.75.33-.75.75v1.5c0 .41.33.75.75.75 .41 0 .75-.34.75-.75V11c0-.42-.34-.75-.75-.75Z"/><path d="M11.25 12c0-.42.33-.75.75-.75h2c.96 0 1.75.78 1.75 1.75v2.5c0 .41-.34.75-.75.75 -.42 0-.75-.34-.75-.75V13c0-.14-.12-.25-.25-.25h-2c-.42 0-.75-.34-.75-.75Z"/></g></svg>