<svg viewBox="0 0 24 24" xmlns="http://www.w3.org/2000/svg"><g fill-rule="evenodd"><path d="M11.57 11.88c.25-.18.59-.18.85 0l3 2.07c.34.23.42.7.18 1.04 -.24.34-.71.42-1.05.18l-2.58-1.79 -2.58 1.78c-.13.08-.28.13-.43.13H5.25c.4 3.01 3.2 5.42 6.7 5.42 3.52 0 6.33-2.45 6.7-5.49 -.27-.12-.46-.39-.46-.7 0-.42.33-.75.75-.75h.5c.41 0 .75.33.75.75 0 4.29-3.76 7.67-8.25 7.67 -4.5 0-8.25-3.38-8.25-7.68 0-.42.33-.75.75-.75H8.7l2.8-1.95Z"/><path d="M5.75 9c0-1.25 1-2.25 2.25-2.25 1.24 0 2.25 1 2.25 2.25v1.5c0 1.24-1.01 2.25-2.25 2.25 -1.25 0-2.25-1.01-2.25-2.25V9ZM8 8.25c-.42 0-.75.33-.75.75v1.5c0 .41.33.75.75.75 .41 0 .75-.34.75-.75V9c0-.42-.34-.75-.75-.75Z"/><path d="M8.75 10c0-.42.33-.75.75-.75h2c.96 0 1.75.78 1.75 1.75v7c0 .41-.34.75-.75.75 -.42 0-.75-.34-.75-.75v-7c0-.14-.12-.25-.25-.25h-2c-.42 0-.75-.34-.75-.75Z"/><path d="M7.25 7.5c0 .41.33.75.75.75h3.5c.96 0 1.75-.79 1.75-1.75v-2c0-.42-.34-.75-.75-.75 -.42 0-.75.33-.75.75v2c0 .13-.12.25-.25.25H8c-.42 0-.75.33-.75.75Z"/><path d="M11.75 4.5c0-1.52 1.23-2.75 2.75-2.75h3c.41 0 .75.33.75.75v1c0 1.51-1.24 2.75-2.75 2.75h-3c-.42 0-.75-.34-.75-.75v-1Zm2.75-1.25c-.7 0-1.25.55-1.25 1.25v.25h2.25c.69 0 1.25-.56 1.25-1.25v-.25H14.5Z"/></g></svg>