<svg viewBox="0 0 24 24" xmlns="http://www.w3.org/2000/svg"><g fill-rule="evenodd"><path d="M1.25 2c0-.42.33-.75.75-.75h9c.41 0 .75.33.75.75v8.03l4.42 2.21h3.82c1.51 0 2.75 1.23 2.75 2.75v4c0 .41-.34.75-.75.75h-20c-.42 0-.75-.34-.75-.75V7.49c0-.42.33-.75.75-.75 .41 0 .75.33.75.75v10.75h18.5v-3.25c0-.7-.56-1.25-1.25-1.25h-4c-.12 0-.24-.03-.34-.08l-5-2.5c-.26-.13-.42-.39-.42-.68V2.73h-7.5v.75c0 .41-.34.75-.75.75 -.42 0-.75-.34-.75-.75v-1.5Z"/><path d="M1.25 19c0-.42.33-.75.75-.75h4c.41 0 .75.33.75.75v3c0 .41-.34.75-.75.75H2c-.42 0-.75-.34-.75-.75v-3Zm1.5.75v1.5h2.5v-1.5h-2.5Z"/><path d="M6.3 18.713c.11-.29.38-.47.69-.47h15c.41 0 .75.33.75.75v3c0 .41-.34.75-.75.75h-12c-.2 0-.39-.08-.54-.22l-3-3c-.22-.22-.28-.54-.17-.82Zm2.5 1.03l1.5 1.5h10.93v-1.5H8.79Z"/></g></svg>