<svg viewBox="0 0 24 24" xmlns="http://www.w3.org/2000/svg"><g fill-rule="evenodd"><path d="M12.46 8.46c.29-.3.76-.3 1.06 0l2 2c.14.14.21.33.21.53 0 .19-.08.38-.22.53l-4 4c-.3.29-.77.29-1.07 0 -.3-.3-.3-.77 0-1.07l3.46-3.47 -.94-.94 -7.94 7.93 .93.93 .46-.47c.29-.3.76-.3 1.06 0 .29.29.29.76 0 1.06l-1 1c-.3.29-.77.29-1.07 0l-2-2c-.15-.15-.22-.34-.22-.54s.07-.39.21-.54l9-9.01Z"/><path d="M14.43 2.38c.7-.73 1.67-1.14 2.68-1.14h4.87c.41 0 .75.33.75.75v4.75c0 .99-.4 1.94-1.1 2.65l-4.13 4.12c-.3.29-.77.29-1.07 0l-6-6c-.29-.29-.3-.76-.01-1.06l3.97-4.1Zm2.68.36c-.61 0-1.2.24-1.62.68l-3.46 3.56 4.94 4.94 3.59-3.6c.42-.43.65-1 .65-1.6V2.71h-4.13Z"/><path d="M1.46 15.46c.29-.3.76-.3 1.06 0l6 6c.29.29.29.76 0 1.06 -.3.29-.77.29-1.07 0l-6-6c-.3-.3-.3-.77 0-1.07Z"/></g></svg>