<svg viewBox="0 0 24 24" xmlns="http://www.w3.org/2000/svg"><g fill-rule="evenodd"><path d="M3.75 12c0-.42.33-.75.75-.75h7c.41 0 .75.33.75.75 0 .41-.34.75-.75.75h-7c-.42 0-.75-.34-.75-.75Zm11 0c0-.42.33-.75.75-.75h4c.41 0 .75.33.75.75 0 .41-.34.75-.75.75h-4c-.42 0-.75-.34-.75-.75Zm-11 10c0-.42.33-.75.75-.75h15c.41 0 .75.33.75.75 0 .41-.34.75-.75.75h-15c-.42 0-.75-.34-.75-.75Z"/><path d="M11.61 1.35c.23-.15.53-.15.77 0l5 3c.22.13.36.37.36.64v11c0 .26-.14.5-.37.64l-5 3c-.24.14-.54.14-.78 0l-5-3c-.23-.14-.37-.38-.37-.65v-11c0-.27.13-.51.36-.65l4.99-3ZM7.74 5.41v10.15l4.25 2.55 4.25-2.55V5.4l-4.25-2.55L7.74 5.4Z"/><path d="M17 11.25c.41 0 .75.33.75.75v10c0 .41-.34.75-.75.75 -.42 0-.75-.34-.75-.75V12c0-.42.33-.75.75-.75Z"/><path d="M7 11.25c.41 0 .75.33.75.75v10c0 .41-.34.75-.75.75 -.42 0-.75-.34-.75-.75V12c0-.42.33-.75.75-.75Z"/><path d="M6.25 7c0-.42.33-.75.75-.75h10c.41 0 .75.33.75.75 0 .41-.34.75-.75.75H7c-.42 0-.75-.34-.75-.75Z"/></g></svg>