<svg viewBox="0 0 24 24" xmlns="http://www.w3.org/2000/svg"><g fill-rule="evenodd"><path d="M11.78 6.28c.14-.05.29-.05.43 0l8 2.4c.31.09.53.38.53.71v7.6c0 .41-.34.75-.75.75h-4c-.42 0-.75-.34-.75-.75v-4.25h-6.5v4.25c0 .41-.34.75-.75.75h-4c-.42 0-.75-.34-.75-.75v-2c0-.42.33-.75.75-.75 .41 0 .75.33.75.75v1.25h2.5v-4.25c0-.42.33-.75.75-.75h8c.41 0 .75.33.75.75v4.25h2.5v-6.3L11.99 7.76 4.74 9.94v1.04c0 .41-.34.75-.75.75 -.42 0-.75-.34-.75-.75v-1.6c0-.34.21-.63.53-.72l8-2.4Z"/><path d="M11.78 6.28c.14-.05.29-.05.43 0l10 3c.39.11.62.53.5.93 -.12.39-.54.62-.94.5l-9.79-2.94 -9.79 2.93c-.4.11-.82-.11-.94-.51s.1-.82.5-.94l10-3Z"/></g></svg>