<svg viewBox="0 0 24 24" xmlns="http://www.w3.org/2000/svg"><g fill-rule="evenodd"><path d="M11.55 8.4c.26-.2.63-.2.9 0l3.8 2.85H22c.41 0 .75.33.75.75 0 5.93-4.82 10.75-10.75 10.75 -.42 0-.75-.34-.75-.75 0-.42.33-.75.75-.75 4.85 0 8.83-3.75 9.22-8.5H16c-.17 0-.33-.06-.45-.15L12 9.93l-3.55 2.66c-.13.09-.29.15-.45.15H2.77c.27 3.468 2.46 6.39 5.52 7.73 .37.16.55.6.38.98 -.17.37-.61.55-.99.38 -3.8-1.66-6.45-5.45-6.45-9.86 0-.42.33-.75.75-.75h5.75l3.8-2.85Z"/><path d="M9.75 15.5c0-1.25 1-2.25 2.25-2.25 1.24 0 2.25 1 2.25 2.25V17c0 1.24-1.01 2.25-2.25 2.25 -1.25 0-2.25-1.01-2.25-2.25v-1.5Zm2.25-.75c-.42 0-.75.33-.75.75V17c0 .41.33.75.75.75 .41 0 .75-.34.75-.75v-1.5c0-.42-.34-.75-.75-.75Z"/><path d="M10.05 2.99l-.56.5 -.56-.51c.14-.16.34-.25.55-.25 .21 0 .41.09.55.24Zm-.56 1.68c-.05.06-.1.12-.15.19 -.18.24-.35.49-.46.72 -.06.11-.1.2-.13.28 -.03.07-.03.1-.03.11 -.01 0 0 0 0 0 0 .41.33.75.74.75s.75-.34.75-.75c0 0 0 0 0 0 -.01-.01-.01-.04-.03-.12 -.03-.08-.07-.18-.13-.29 -.12-.23-.29-.49-.46-.73 -.05-.07-.1-.13-.15-.2Zm0-1.19c-.56-.51-.56-.51-.56-.51l-.01 0 -.01 0 -.02.01c-.02.01-.04.03-.06.05 -.05.05-.11.12-.19.21 -.15.17-.35.42-.55.7 -.2.27-.41.59-.58.91 -.16.29-.32.68-.32 1.08 0 1.24 1 2.25 2.25 2.25 1.24 0 2.25-1.01 2.25-2.25 0-.4-.17-.79-.32-1.09 -.17-.32-.38-.64-.58-.92 -.21-.28-.4-.53-.55-.71 -.08-.09-.14-.17-.19-.22 -.03-.03-.04-.05-.06-.06l-.02-.02 -.01-.01 -.01-.01c-.01-.01-.01-.01-.56.5Z"/><path d="M15.05 1.49l-.56.5 -.56-.51c.14-.16.34-.25.55-.25 .21 0 .41.09.55.24Zm-.56 1.68c-.05.06-.1.12-.15.19 -.18.24-.35.49-.46.72 -.06.11-.1.2-.13.28 -.03.07-.03.1-.03.11 0 0 0 0 0 0 0 .41.33.75.75.75 .41 0 .75-.34.75-.75 0 0 0 0 0 0 -.01-.01-.01-.04-.03-.12 -.03-.08-.07-.18-.13-.29 -.12-.23-.29-.49-.46-.73 -.05-.07-.1-.13-.15-.2Zm0-1.19c-.56-.51-.56-.51-.56-.51l-.01 0 -.01 0 -.02.01c-.02.01-.03.03-.06.05 -.05.05-.11.12-.19.21 -.15.17-.35.42-.55.7 -.2.27-.41.59-.58.91 -.16.29-.32.68-.32 1.08 0 1.24 1 2.25 2.25 2.25 1.24 0 2.25-1.01 2.25-2.25 0-.4-.17-.79-.32-1.09 -.17-.32-.38-.64-.58-.92 -.21-.28-.4-.53-.55-.71 -.08-.09-.14-.17-.19-.22 -.03-.03-.04-.05-.06-.06l-.02-.02 -.01-.01 -.01-.01c-.01-.01-.01-.01-.56.5Z"/></g></svg>