<svg viewBox="0 0 24 24" xmlns="http://www.w3.org/2000/svg"><g fill-rule="evenodd"><path d="M4 14.25c-.7 0-1.25.55-1.25 1.25 0 .69.55 1.25 1.25 1.25 .69 0 1.25-.56 1.25-1.25 0-.7-.56-1.25-1.25-1.25ZM1.25 15.5c0-1.52 1.23-2.75 2.75-2.75 1.51 0 2.75 1.23 2.75 2.75 0 1.51-1.24 2.75-2.75 2.75 -1.52 0-2.75-1.24-2.75-2.75Z"/><path d="M19.35 6.12c.13-.24.38-.38.64-.38h2c.41 0 .75.33.75.75 0 .41-.34.75-.75.75h-1.57l-3.29 5.62c-.14.23-.39.37-.65.37H7.29L6 14.51c-.3.29-.77.29-1.07 0 -.3-.3-.3-.77 0-1.07l1.5-1.5c.14-.15.33-.22.53-.22h9.06l3.28-5.63Z"/><path d="M3.86 6.59c.13-.22.37-.35.63-.35h5.5c.41 0 .75.33.75.75 0 .41-.34.75-.75.75H5.65l1.81 4h6.94l1.09-4h-1.52c-.42 0-.75-.34-.75-.75 0-.42.33-.75.75-.75h2.5c.23 0 .45.1.59.29 .14.18.18.42.12.65l-1.5 5.49c-.09.32-.39.55-.73.55h-8c-.3 0-.57-.18-.69-.44l-2.5-5.51c-.11-.24-.09-.51.05-.72Z"/><path d="M12.72 11.8c.38-.16.82.03.97.41l1.55 3.88v-3.61c0-.42.33-.75.75-.75 .41 0 .75.33.75.75v5c0 .41-.34.75-.75.75h-1c-.31 0-.59-.19-.7-.48l-2-5c-.16-.39.03-.83.41-.98Z"/></g></svg>