<svg viewBox="0 0 24 24" xmlns="http://www.w3.org/2000/svg"><g fill-rule="evenodd"><path d="M4.25 2c0-.56.44-1 1-1h13c1.65 0 3 1.34 3 3v16c0 1.65-1.35 3-3 3h-13c-.56 0-1-.45-1-1V2Zm2 1v18h12c.55 0 1-.45 1-1V4c0-.56-.45-1-1-1h-12Z"/><path d="M5.25 7h-1.5V5h1.5v2Z"/><path d="M5.25 13h-1.5v-2h1.5v2Z"/><path d="M5.25 19h-1.5v-2h1.5v2Z"/><path d="M13 8c-2.21 0-4 1.79-4 4 0 2.2 1.79 4 4 4 2.2 0 4-1.8 4-4 0-2.21-1.8-4-4-4Zm-6 4c0-3.32 2.68-6 6-6 3.31 0 6 2.68 6 6 0 3.31-2.69 6-6 6 -3.32 0-6-2.69-6-6Z"/><path d="M12.99 10.22c-.37 0-.67.29-.67.66 0 .36.29.66.66.66 .36 0 .66-.3.66-.67 0-.37-.3-.67-.67-.67Zm-2.67.66c0-1.48 1.19-2.67 2.66-2.67 1.47 0 2.66 1.19 2.66 2.66 0 1.47-1.2 2.66-2.67 2.66 -1.48 0-2.67-1.2-2.67-2.67Z"/><path d="M13 14.94c-1.07 0-2.01.57-2.503 1.44l-1.74-1.01c.84-1.46 2.42-2.45 4.23-2.45 1.81 0 3.39.98 4.23 2.44l-1.74 1c-.51-.87-1.44-1.45-2.51-1.45Z"/></g></svg>