<svg viewBox="0 0 24 24" xmlns="http://www.w3.org/2000/svg"><g fill-rule="evenodd"><path d="M12 3c-4.98 0-9 4.02-9 9 0 4.97 4.02 9 9 9 4.97 0 9-4.03 9-9 0-4.98-4.03-9-9-9ZM1 12C1 5.92 5.92 1 12 1c6.07 0 11 4.92 11 11 0 6.07-4.93 11-11 11C5.92 23 1 18.07 1 12Z"/><path d="M10.1 5.3C9.43 6.96 9 9.33 9 11.99c0 2.66.43 5.035 1.1 6.69 .33.83.7 1.44 1.06 1.82 .36.38.64.47.83.47 .18 0 .46-.1.83-.48 .36-.39.73-1 1.06-1.83 .66-1.67 1.1-4.04 1.1-6.7 0-2.67-.44-5.04-1.1-6.7 -.34-.84-.71-1.45-1.07-1.83 -.37-.39-.65-.48-.84-.48 -.19 0-.47.09-.84.47s-.74.99-1.07 1.82Zm-.39-3.21c.59-.64 1.36-1.1 2.28-1.1 .91 0 1.68.46 2.28 1.09 .59.62 1.08 1.48 1.47 2.45 .78 1.95 1.24 4.58 1.24 7.44 0 2.85-.47 5.48-1.25 7.44 -.39.97-.88 1.83-1.48 2.45 -.6.63-1.37 1.09-2.29 1.09 -.92 0-1.69-.47-2.29-1.1 -.6-.63-1.09-1.49-1.48-2.46 -.79-1.96-1.25-4.59-1.25-7.45 0-2.86.46-5.49 1.24-7.45 .38-.98.87-1.84 1.47-2.46Z"/><path d="M2 8c0-.56.44-1 1-1h18c.55 0 1 .44 1 1 0 .55-.45 1-1 1H3c-.56 0-1-.45-1-1Z"/><path d="M2 16c0-.56.44-1 1-1h18c.55 0 1 .44 1 1 0 .55-.45 1-1 1H3c-.56 0-1-.45-1-1Z"/></g></svg>