<svg viewBox="0 0 24 24" xmlns="http://www.w3.org/2000/svg"><g fill-rule="evenodd"><path d="M2.87 2.67C3.03 1.7 3.86.99 4.84.99h2.15v2H4.83l-1.84 11c-.01.05-.02.1-.02.16v5.83c0 .55.44 1 1 1h16c.55 0 1-.45 1-1v-5.84c0-.06-.01-.11-.02-.17L19.11 2.96h-2.16v-2h2.15c.97 0 1.81.7 1.97 1.67l1.83 11c.02.16.04.32.04.49v5.83c0 1.65-1.35 3-3 3h-16c-1.66 0-3-1.35-3-3v-5.84c0-.17.01-.34.04-.5L2.81 2.6Z"/><path d="M2.5 13H9c.55 0 1 .44 1 1 0 1.1.89 2 2 2 1.1 0 2-.9 2-2 0-.56.44-1 1-1h6.5v2h-5.63c-.45 1.72-2.02 3-3.88 3 -1.87 0-3.43-1.28-3.88-3H2.48v-2Z"/><path d="M11.35.73c.37-.31.9-.31 1.28 0l3 2.5 -1.29 1.53 -1.36-1.14v5.36h-2V3.61L9.62 4.74 8.33 3.2l3-2.5Z"/></g></svg>