<svg viewBox="0 0 24 24" xmlns="http://www.w3.org/2000/svg"><g fill-rule="evenodd"><path d="M11 22v-4h2v4h-2Z"/><path d="M19 8.5V4h2v4.5h-2Z"/><path d="M14 2c0-.56.44-1 1-1h5c.55 0 1 .44 1 1v2.5c0 .55-.45 1-1 1h-5c-.56 0-1-.45-1-1V2Zm2 1v.5h3V3h-3Z"/><path d="M14 11.5C14 9.01 16.01 7 18.5 7c2.48 0 4.5 2.01 4.5 4.5V18c0 .55-.45 1-1 1h-7c-.56 0-1-.45-1-1v-6.5ZM18.5 9c-1.39 0-2.5 1.11-2.5 2.5V17h5v-5.5c0-1.39-1.12-2.5-2.5-2.5Z"/><path d="M6 9c-1.66 0-3 1.34-3 3v5h11v-3.5h2V18c0 .55-.45 1-1 1H2c-.56 0-1-.45-1-1v-6c0-2.77 2.23-5 5-5h12.5v2H6Z"/></g></svg>