<svg viewBox="0 0 24 24" xmlns="http://www.w3.org/2000/svg"><g fill-rule="evenodd"><path d="M16.74 2.2c1.17-1.18 3.07-1.18 4.24 0l.8.8c1.17 1.17 1.17 3.07 0 4.24L8.64 20.37c-.11.1-.25.19-.4.24l-5.46 1.81c-.36.11-.76.02-1.03-.25s-.37-.67-.25-1.03l1.81-5.46c.04-.15.13-.29.24-.4L16.68 2.14Zm2.82 1.41c-.4-.4-1.03-.4-1.42 0L5.17 16.57 4.05 19.9l3.33-1.12L20.34 5.81c.39-.4.39-1.03 0-1.42l-.81-.81Z"/><path d="M18.793 9.2l-4-4 1.41-1.42 4 4 -1.42 1.41Z"/><path d="M8.29 19.7l-4-4 1.41-1.42 4 4 -1.42 1.41Z"/></g></svg>