<svg viewBox="0 0 24 24" xmlns="http://www.w3.org/2000/svg"><path fill="#ECEFF1" d="M4 3.25C2.48 3.25 1.25 4.48 1.25 6v14c0 1.51 1.23 2.75 2.75 2.75h16c1.51 0 2.75-1.24 2.75-2.75V6c0-1.52-1.24-2.75-2.75-2.75H4Z"/><path fill="#EE4D4D" d="M4 3.25C2.48 3.25 1.25 4.48 1.25 6v3c0 .41.33.75.75.75h20c.41 0 .75-.34.75-.75V6c0-1.52-1.24-2.75-2.75-2.75H4Z"/><g fill="#ECEFF1" fill-rule="evenodd"><path d="M5 1.25c.41 0 .75.33.75.75v3.5c0 .41-.34.75-.75.75 -.42 0-.75-.34-.75-.75V2c0-.42.33-.75.75-.75Z"/><path d="M12 1.25c.41 0 .75.33.75.75v3.5c0 .41-.34.75-.75.75 -.42 0-.75-.34-.75-.75V2c0-.42.33-.75.75-.75Z"/><path d="M19 1.25c.41 0 .75.33.75.75v3.5c0 .41-.34.75-.75.75 -.42 0-.75-.34-.75-.75V2c0-.42.33-.75.75-.75Z"/></g><path fill="#EE4D4D" d="M16.06 11.95c-1.11-1.11-2.81-1.25-4.07-.43 -1.26-.82-2.97-.68-4.07.42 -1.27 1.26-1.27 3.327 0 4.59l3.53 3.53c.29.29.76.29 1.06 0l3.53-3.54c1.26-1.27 1.26-3.327 0-4.6Z"/></svg>