<svg viewBox="0 0 24 24" xmlns="http://www.w3.org/2000/svg"><path fill="#ECEFF1" d="M2 4.25c-.42 0-.75.33-.75.75v16c0 .41.33.75.75.75h14c.19 0 .38-.08.53-.22l6-6c.14-.15.21-.34.21-.54v-10c0-.42-.34-.75-.75-.75h-20Z"/><g fill="#8B98A6"><path d="M16 14.25c-.42 0-.75.33-.75.75v6c0 .3.18.57.46.69 .28.11.6.05.81-.17l6-6c.21-.22.27-.54.16-.82 -.12-.29-.39-.47-.7-.47h-6Z"/><g fill="#8B98A6" fill-rule="evenodd"><path d="M5 2.25c.41 0 .75.33.75.75v3.5c0 .41-.34.75-.75.75 -.42 0-.75-.34-.75-.75V3c0-.42.33-.75.75-.75Z"/><path d="M4.5 10.75c0-.42.33-.75.75-.75h2.5c.41 0 .75.33.75.75 0 .41-.34.75-.75.75h-2.5c-.42 0-.75-.34-.75-.75Z"/><path d="M4.5 14.75c0-.42.33-.75.75-.75h2.5c.41 0 .75.33.75.75 0 .41-.34.75-.75.75h-2.5c-.42 0-.75-.34-.75-.75Z"/><path d="M11 10.75c0-.42.33-.75.75-.75h2.5c.41 0 .75.33.75.75 0 .41-.34.75-.75.75h-2.5c-.42 0-.75-.34-.75-.75Z"/><path d="M12 2.25c.41 0 .75.33.75.75v3.5c0 .41-.34.75-.75.75 -.42 0-.75-.34-.75-.75V3c0-.42.33-.75.75-.75Z"/><path d="M19 2.25c.41 0 .75.33.75.75v3.5c0 .41-.34.75-.75.75 -.42 0-.75-.34-.75-.75V3c0-.42.33-.75.75-.75Z"/></g></g></svg>