<svg viewBox="0 0 24 24" xmlns="http://www.w3.org/2000/svg"><g fill="#ECEFF1"><path d="M12.6 11.56c-.15-.2-.37-.32-.61-.32 -.25 0-.47.11-.61.31l-6.51 9c-.17.22-.19.52-.06.78 .12.25.38.4.66.4h13c.28 0 .53-.16.66-.41 .12-.26.1-.56-.06-.79l-6.5-9Z"/><path d="M12.6 12.43c-.15.19-.37.31-.61.31 -.25 0-.47-.12-.61-.32l-6.51-9c-.17-.23-.19-.53-.06-.79 .12-.26.38-.41.66-.41h13c.28 0 .53.15.66.4 .12.25.1.55-.06.78l-6.5 8.99Z"/></g><g fill="#8B98A6" fill-rule="evenodd"><path d="M3.25 3c0-.42.33-.75.75-.75h16c.41 0 .75.33.75.75 0 .41-.34.75-.75.75H4c-.42 0-.75-.34-.75-.75Z"/><path d="M3.25 21c0-.42.33-.75.75-.75h16c.41 0 .75.33.75.75 0 .41-.34.75-.75.75H4c-.42 0-.75-.34-.75-.75Z"/></g></svg>