<svg viewBox="0 0 24 24" xmlns="http://www.w3.org/2000/svg"><g fill="#CFD8DC"><path d="M9 1.25c-.42 0-.75.33-.75.75v6c0 .41.33.75.75.75h6c.41 0 .75-.34.75-.75V2c0-.42-.34-.75-.75-.75H9Z"/><path d="M9 22.75c-.42 0-.75-.34-.75-.75v-6c0-.42.33-.75.75-.75h6c.41 0 .75.33.75.75v6c0 .41-.34.75-.75.75H9Z"/></g><path fill="#ECEFF1" d="M12 6.25c-3.18 0-5.75 2.57-5.75 5.75 0 3.17 2.57 5.75 5.75 5.75 3.17 0 5.75-2.58 5.75-5.75 0-3.18-2.58-5.75-5.75-5.75Z"/><path fill="#5E94FF" fill-rule="evenodd" d="M12 7.75c-2.35 0-4.25 1.9-4.25 4.25 0 2.34 1.9 4.25 4.25 4.25 2.34 0 4.25-1.91 4.25-4.25 0-2.35-1.91-4.25-4.25-4.25ZM6.25 12c0-3.18 2.57-5.75 5.75-5.75 3.17 0 5.75 2.57 5.75 5.75 0 3.17-2.58 5.75-5.75 5.75 -3.18 0-5.75-2.58-5.75-5.75Z"/></svg>