<svg viewBox="0 0 24 24" xmlns="http://www.w3.org/2000/svg"><g fill-rule="evenodd"><path d="M11.77 6.55c.14-.08.3-.08.44 0l6 3c.16.08.27.25.27.44 0 .18-.11.36-.28.44l-6 3c-.15.07-.31.07-.45 0l-6.01-3c-.17-.09-.28-.26-.28-.45s.1-.37.27-.45l6-3ZM7.11 9.99l4.88 2.44 4.88-2.45 -4.882-2.45 -4.89 2.44Z"/><path d="M9.77 15.55l.44.89 -3.11 1.55 4.88 2.44 4.88-2.45 -3.11-1.56 .44-.9 8 4 -.45.89 -3.78-1.89 -5.78 2.88c-.15.07-.31.07-.45 0l-5.78-2.89 -3.78 1.88 -.45-.9 8-4Z"/><path d="M6.5 17.69v-7.7h-1v8c0 .18.1.36.27.44l6 3c.14.07.3.07.44 0l6-3c.16-.09.27-.26.27-.45v-8h-1v7.69l-5.5 2.75 -5.5-2.75Z"/><path d="M11.5 10V3h1v7h-1Z"/><path d="M11.5 21v-8h1v8h-1Z"/></g></svg>