<svg viewBox="0 0 24 24" xmlns="http://www.w3.org/2000/svg"><g fill-rule="evenodd"><path d="M10.5 19c0-.28.22-.5.5-.5h10c.27 0 .5.22.5.5v3c0 .27-.23.5-.5.5H11c-.28 0-.5-.23-.5-.5v-3Zm1 .5v2h9v-2h-9Z"/><path d="M16 1.5c.17 0 .33.09.42.24l6 10c.07.11.09.26.05.39l-2 7c-.07.21-.26.36-.49.36h-8c-.23 0-.42-.15-.49-.37l-2-7c-.04-.14-.02-.28.05-.4l6-10.01c.09-.16.25-.25.42-.25Zm-5.46 10.57l1.83 6.42h7.24l1.83-6.43 -5.46-9.1 -5.46 9.09Z"/><path d="M16 11.5c-.56 0-1 .44-1 1 0 .55.44 1 1 1 .55 0 1-.45 1-1 0-.56-.45-1-1-1Zm-2 1c0-1.11.89-2 2-2 1.1 0 2 .89 2 2 0 1.1-.9 2-2 2 -1.11 0-2-.9-2-2Z"/><path d="M16.5 2v9h-1V2h1Z"/><path d="M11 2.5C9.06 2.5 7.5 4.06 7.5 6v6c0 2.48-2.02 4.5-4.5 4.5H2v-1h1c1.93 0 3.5-1.57 3.5-3.5V6c0-2.49 2.01-4.5 4.5-4.5h5v1h-5Z"/></g></svg>