<svg viewBox="0 0 24 24" xmlns="http://www.w3.org/2000/svg"><g fill-rule="evenodd"><path d="M11.77 1.55c.14-.08.3-.08.44 0l10 5c.16.08.27.25.27.44 0 .18-.11.36-.28.44l-10 4.99c-.15.07-.31.07-.45 0l-10-5c-.17-.09-.28-.26-.28-.45s.1-.37.27-.45l10-5ZM3.11 6.99l8.88 4.44 8.88-4.45 -8.89-4.45 -8.89 4.44Z"/><path d="M1.77 11.55l5-2.5 .44.89 -4.11 2.05 8.88 4.44 8.88-4.45 -4.11-2.06 .44-.9 5 2.5c.16.08.27.25.27.44 0 .18-.11.36-.28.44l-10 5c-.15.07-.31.07-.45 0l-10-5c-.17-.09-.28-.26-.28-.45s.1-.37.27-.45Z"/><path d="M1.77 16.55l5-2.5 .44.89 -4.11 2.05 8.88 4.44 8.88-4.45 -4.11-2.06 .44-.9 5 2.5c.16.08.27.25.27.44 0 .18-.11.36-.28.44l-10 5c-.15.07-.31.07-.45 0l-10-5c-.17-.09-.28-.26-.28-.45s.1-.37.27-.45Z"/></g></svg>