<svg viewBox="0 0 24 24" xmlns="http://www.w3.org/2000/svg"><g fill-rule="evenodd"><path d="M9.5 12c0-.28.22-.5.5-.5h4c.27 0 .5.22.5.5v10c0 .27-.23.5-.5.5h-4c-.28 0-.5-.23-.5-.5V12Zm1 .5v9h3v-9h-3Z"/><path d="M9.5 8c0-.28.22-.5.5-.5h4c.27 0 .5.22.5.5v4c0 .27-.23.5-.5.5h-4c-.28 0-.5-.23-.5-.5V8Zm1 .5v3h3v-3h-3Z"/><path d="M11.5 5V2h1v3h-1Z"/><path d="M17 10h3v1h-3v-1Z"/><path d="M4 10h3v1H4v-1Z"/><path d="M16.64 5.64l2-2 .7.7 -2 2 -.71-.71Z"/><path d="M6.64 6.35l-2-2 .7-.71 2 2 -.71.7Z"/></g></svg>