<svg viewBox="0 0 24 24" xmlns="http://www.w3.org/2000/svg"><g fill-rule="evenodd"><path d="M11.64 1.64c.19-.2.51-.2.7 0l3 3 -.71.7 -2.65-2.65 -2.65 2.64 -.71-.71 3-3Z"/><path d="M11.64 22.35c.19.19.51.19.7 0l3-3 -.71-.71 -2.65 2.64 -2.65-2.65 -.71.7 3 3Z"/><path d="M2.7 12l2.64-2.65 -.71-.71 -3 2.99c-.2.19-.2.51 0 .7l3 3 .7-.71 -2.65-2.65Z"/><path d="M21.29 12l-2.65-2.65 .7-.71 3 2.99c.19.19.19.51 0 .7l-3 3 -.71-.71 2.64-2.65Z"/><path d="M11.5 9V2h1v7h-1Zm0 13v-7h1v7h-1Z"/><path d="M2 11.5h7v1H2v-1Zm13 0h7v1h-7v-1Z"/><path d="M8.5 9c0-.28.22-.5.5-.5h6c.27 0 .5.22.5.5v6c0 .27-.23.5-.5.5H9c-.28 0-.5-.23-.5-.5V9Zm1 .5v5h5v-5h-5Z"/></g></svg>