<svg viewBox="0 0 24 24" xmlns="http://www.w3.org/2000/svg"><g fill-rule="evenodd"><path d="M12 2.5c-2.45 0-4.44 1.94-4.5 4.37 -.01 0-.01.01-.01.02v14.59h9V6.88c-.01-.01-.01-.02-.01-.03 -.07-2.43-2.06-4.38-4.5-4.38ZM6.5 6.8c.1-2.95 2.52-5.31 5.49-5.31s5.39 2.35 5.49 5.3c0 .01 0 .03 0 .05v15.13c0 .27-.23.5-.5.5h-10c-.28 0-.5-.23-.5-.5V6.83c0-.02 0-.04 0-.06Z"/><path d="M12 5.5c-.83 0-1.5.67-1.5 1.5 0 .82.67 1.5 1.5 1.5 .82 0 1.5-.68 1.5-1.5 0-.83-.68-1.5-1.5-1.5ZM9.5 7c0-1.39 1.11-2.5 2.5-2.5 1.38 0 2.5 1.11 2.5 2.5 0 1.38-1.12 2.5-2.5 2.5 -1.39 0-2.5-1.12-2.5-2.5Z"/><path d="M11.5 22V9h1v13h-1Z"/></g></svg>