<svg viewBox="0 0 24 24" xmlns="http://www.w3.org/2000/svg"><g fill-rule="evenodd"><path d="M9.5 6.5c-3.87 0-7 3.13-7 7 0 3.86 3.13 7 7 7 3.86 0 7-3.14 7-7 0-3.87-3.14-7-7-7Zm-8 7c0-4.42 3.58-8 8-8 4.41 0 8 3.58 8 8 0 4.41-3.59 8-8 8 -4.42 0-8-3.59-8-8Z"/><path d="M7.31 9.75c0-.28.22-.5.5-.5h2.25c1.31 0 2.375 1.06 2.375 2.375 0 1.31-1.07 2.375-2.375 2.375H7.81c-.28 0-.5-.23-.5-.5V9.75Zm1 .5V13h1.75c.75 0 1.375-.62 1.375-1.375 0-.76-.62-1.375-1.375-1.375H8.31Z"/><path d="M7.31 13.5c0-.28.22-.5.5-.5h2.25c1.31 0 2.375 1.06 2.375 2.375 0 1.31-1.07 2.375-2.375 2.375H7.81c-.28 0-.5-.23-.5-.5V13.5Zm1 .5v2.75h1.75c.75 0 1.375-.62 1.375-1.375 0-.76-.62-1.375-1.375-1.375H8.31Z"/><path d="M14.5 3.5c-1.13 0-2.18.26-3.12.72 -.67.32-1.27.75-1.79 1.27 4.37.05 7.89 3.61 7.89 7.99 0 1.32-.33 2.57-.9 3.67 .94-.3 1.8-.79 2.526-1.43 1.45-1.29 2.36-3.16 2.36-5.25 0-3.87-3.14-7-7-7Zm-3.57-.17c1.07-.54 2.28-.84 3.56-.84 4.41 0 8 3.58 8 8 0 2.38-1.05 4.53-2.71 5.99 -1.15 1.01-2.59 1.7-4.17 1.92 -.2.02-.4-.07-.5-.24 -.11-.18-.1-.39.02-.56 .84-1.16 1.34-2.59 1.34-4.131 0-3.87-3.14-7-7.01-7 -.34 0-.67.02-.99.06 -.2.02-.4-.07-.5-.24 -.11-.18-.1-.39.02-.56 .75-1.03 1.74-1.88 2.89-2.45Z"/></g></svg>