<svg viewBox="0 0 24 24" xmlns="http://www.w3.org/2000/svg"><g fill-rule="evenodd"><path d="M1.5 10.625c0-.83.67-1.51 1.5-1.51h13c.82 0 1.5.67 1.5 1.5v7.75c0 .82-.68 1.5-1.5 1.5H3c-.83 0-1.5-.68-1.5-1.5v-7.75Zm1.5-.5c-.28 0-.5.22-.5.5v7.75c0 .27.22.5.5.5h13c.27 0 .5-.23.5-.5v-7.75c0-.28-.23-.5-.5-.5H3Z"/><path d="M6.5 5.62c0-.83.67-1.5 1.5-1.5h13c.82 0 1.5.67 1.5 1.5v7.74c0 .82-.68 1.5-1.5 1.5h-1v-1h1c.27 0 .5-.23.5-.5V5.61c0-.28-.23-.5-.5-.5H8c-.28 0-.5.22-.5.5v1.24h-1V5.6Z"/><path d="M17 12.75H2v-1h15v1Z"/><path d="M8.75 16.75h-4.5v-1h4.5v1Z"/></g></svg>