<svg viewBox="0 0 24 24" xmlns="http://www.w3.org/2000/svg"><g fill-rule="evenodd"><path d="M3 5c0-1.94 1.56-3.5 3.5-3.5h12v1h-12C5.11 2.5 4 3.61 4 5v16.37L5.64 21c.07-.02.14-.02.22 0l2.01.47 2.01-.48c.07-.02.15-.02.22 0l2.01.47 2.01-.48c.07-.02.14-.02.22-.01l1.64.36V5.95h1v16c0 .15-.07.29-.19.39 -.12.09-.28.13-.43.09l-2.14-.48 -2.02.47c-.08.01-.16.01-.23 0l-2.02-.48 -2.02.47c-.08.01-.16.01-.23 0l-2.02-.48 -2.14.47c-.15.03-.31-.01-.43-.1 -.12-.1-.19-.24-.19-.39v-17Z"/><path d="M7 16.5h6v1H7v-1Z"/><path d="M16 4c0-1.39 1.11-2.5 2.5-2.5C19.88 1.5 21 2.61 21 4v5c0 .27-.23.5-.5.5h-4c-.28 0-.5-.23-.5-.5V4Zm2.5-1.5c-.83 0-1.5.67-1.5 1.5v4.5h3V4c0-.83-.68-1.5-1.5-1.5Z"/><path d="M7.5 7.75C7.5 6.78 8.28 6 9.25 6H12v1H9.25c-.42 0-.75.33-.75.75 0 .41.33.75.75.75h1.5c.96 0 1.75.78 1.75 1.75 0 .96-.79 1.75-1.75 1.75H8v-1h2.75c.41 0 .75-.34.75-.75 0-.42-.34-.75-.75-.75h-1.5c-.97 0-1.75-.79-1.75-1.75Z"/><path d="M10.5 5v1.5h-1V5h1Z"/><path d="M10.5 11.5V13h-1v-1.5h1Z"/></g></svg>