<svg viewBox="0 0 24 24" xmlns="http://www.w3.org/2000/svg"><g fill-rule="evenodd"><path d="M15.5 13.5h-8v-1h8v1Z"/><path d="M12 2.5c-5.25 0-9.5 4.25-9.5 9.5 0 5.24 4.25 9.5 9.5 9.5 5.24 0 9.5-4.26 9.5-9.5 0-5.25-4.26-9.5-9.5-9.5ZM1.5 12C1.5 6.2 6.2 1.5 12 1.5c5.79 0 10.5 4.7 10.5 10.5 0 5.79-4.71 10.5-10.5 10.5 -5.8 0-10.5-4.71-10.5-10.5Z"/><path d="M12.5 6.5C11.11 6.5 10 7.61 10 9v3.78c0 .88-.27 1.75-.76 2.49l-.81 1.21h8.06v1h-9c-.19 0-.36-.11-.45-.27 -.09-.17-.08-.36.02-.52l1.32-2c.38-.58.58-1.26.58-1.95V8.95c0-1.94 1.56-3.5 3.5-3.5 1.93 0 3.5 1.56 3.5 3.5h-1c0-1.39-1.12-2.5-2.5-2.5Z"/></g></svg>