<svg viewBox="0 0 24 24" xmlns="http://www.w3.org/2000/svg"><g fill-rule="evenodd"><path d="M3.25 9.5c-.28 0-.5.22-.5.5v10c0 .27.22.5.5.5h16c.27 0 .5-.23.5-.5v-2.99h1v2.98c0 .82-.68 1.5-1.5 1.5h-16c-.83 0-1.5-.68-1.5-1.5v-10c0-.83.67-1.5 1.5-1.5h16c.82 0 1.5.67 1.5 1.5v2.98h-1V9.98c0-.28-.23-.5-.5-.5h-16Z"/><path d="M22.25 13c0-.28-.23-.5-.5-.5h-3.5c-1.39 0-2.5 1.11-2.5 2.5 0 1.38 1.11 2.5 2.5 2.5h3.5c.27 0 .5-.23.5-.5v-4Zm-1 .5v3h-3c-.83 0-1.5-.68-1.5-1.5 0-.83.67-1.5 1.5-1.5h3Z"/><path d="M12 9.5c.27 0 .5-.23.5-.5V3c0-.28-.23-.5-.5-.5H6c-.28 0-.5.22-.5.5v6c0 .27.22.5.5.5h6Zm-.5-1h-5v-5h5v5Z"/><path d="M18 9.5c.27 0 .5-.23.5-.5V4c0-.28-.23-.5-.5-.5h-6c-.28 0-.5.22-.5.5v5c0 .27.22.5.5.5h6Zm-.5-1h-5v-4h5v4Z"/></g></svg>