<svg viewBox="0 0 24 24" xmlns="http://www.w3.org/2000/svg"><path fill="#ECEFF1" d="M2 2.25c-.42 0-.75.33-.75.75v13c0 .41.33.75.75.75h20c.41 0 .75-.34.75-.75V3c0-.42-.34-.75-.75-.75H2Z"/><g fill="#EE4D4D" fill-rule="evenodd"><path d="M1.25 3c0-.42.33-.75.75-.75h20c.41 0 .75.33.75.75v13c0 .41-.34.75-.75.75H2c-.42 0-.75-.34-.75-.75V3Zm1.5.75v11.5h18.5V3.75H2.75Z"/><g fill="#8B98A6"><path d="M7.43 12.5c.14-.17.34-.26.56-.26h8c.21 0 .41.09.56.25 .14.16.2.37.18.58l-1 8c-.05.37-.37.657-.75.657h-6c-.38 0-.7-.29-.75-.657l-1-8c-.03-.22.03-.43.18-.59Zm1.41 1.24l.81 6.5h4.67l.81-6.5H8.82Z"/><path d="M12 12.25c.41 0 .75.33.75.75v8c0 .41-.34.75-.75.75 -.42 0-.75-.34-.75-.75v-8c0-.42.33-.75.75-.75Z"/><path d="M7.75 17c0-.42.33-.75.75-.75h7c.41 0 .75.33.75.75 0 .41-.34.75-.75.75h-7c-.42 0-.75-.34-.75-.75Z"/></g></g></svg>