<svg viewBox="0 0 24 24" xmlns="http://www.w3.org/2000/svg"><path fill="#ECEFF1" d="M2 2.75c-.42 0-.75.33-.75.75v12c0 .41.33.75.75.75h20c.41 0 .75-.34.75-.75v-12c0-.42-.34-.75-.75-.75H2Z"/><path fill="#EE4D4D" fill-rule="evenodd" d="M4.25 6.5c0-.42.33-.75.75-.75h14c.41 0 .75.33.75.75 0 .41-.34.75-.75.75H5c-.42 0-.75-.34-.75-.75Z"/><path fill="#EE4D4D" d="M14.46 17.11c-.42 0-.75.33-.75.75v4.13c0 .25.12.49.34.62 .21.13.48.15.71.05l2.55-1.14 2.55 1.13c.23.1.5.08.71-.06 .21-.14.34-.375.34-.63v-4.14c0-.42-.34-.75-.75-.75h-5.73Z"/><path fill="#FFC44D" d="M18.43 9.49c-.56-.74-1.66-.74-2.21 0l-.6.77 -.97-.14c-.91-.13-1.69.65-1.57 1.56l.13.96 -.78.59c-.74.55-.74 1.65 0 2.2l.77.59 -.14.96c-.125.9.65 1.68 1.56 1.56l.96-.14 .59.77c.55.73 1.65.73 2.2 0l.59-.78 .96.13c.9.12 1.68-.66 1.56-1.57l-.14-.97 .77-.6c.73-.56.73-1.66 0-2.21l-.78-.6 .13-.97c.12-.91-.66-1.69-1.57-1.57l-.97.13 -.6-.78Z"/></svg>