<svg viewBox="0 0 24 24" xmlns="http://www.w3.org/2000/svg"><g fill="#CFD8DC"><path d="M5.5 3.25c-2.35 0-4.25 1.9-4.25 4.25v9c0 2.34 1.9 4.25 4.25 4.25 2.34 0 4.25-1.91 4.25-4.25v-9c0-2.35-1.91-4.25-4.25-4.25Z"/><path d="M17 6.25c-3.18 0-5.75 2.57-5.75 5.75 0 3.17 2.57 5.75 5.75 5.75 3.17 0 5.75-2.58 5.75-5.75 0-3.18-2.58-5.75-5.75-5.75Z"/></g><g fill="#8B98A6" fill-rule="evenodd"><path d="M17 6.25c.41 0 .75.33.75.75v10c0 .41-.34.75-.75.75 -.42 0-.75-.34-.75-.75V7c0-.42.33-.75.75-.75Z"/><path fill="#EE4D4D" d="M9.75 12.75V7.5c0-2.35-1.91-4.25-4.25-4.25 -2.35 0-4.25 1.9-4.25 4.25v5.25h8.5Z"/></g></svg>