<svg viewBox="0 0 24 24" xmlns="http://www.w3.org/2000/svg"><path fill="#8B98A6" fill-rule="evenodd" d="M9.5 4.25c-.42 0-.75.33-.75.75v1.5c0 .41-.34.75-.75.75 -.42 0-.75-.34-.75-.75V5c0-1.25 1-2.25 2.25-2.25h5c1.24 0 2.25 1 2.25 2.25v1.5c0 .41-.34.75-.75.75 -.42 0-.75-.34-.75-.75V5c0-.42-.34-.75-.75-.75h-5Z"/><path fill="#EE4D4D" d="M4 5.75c-1.52 0-2.75 1.23-2.75 2.75v10c0 1.51 1.23 2.75 2.75 2.75h16c1.51 0 2.75-1.24 2.75-2.75v-10c0-1.52-1.24-2.75-2.75-2.75H4Z"/><g fill="#ECEFF1" fill-rule="evenodd"><path d="M12 9.75c.41 0 .75.33.75.75v6c0 .41-.34.75-.75.75 -.42 0-.75-.34-.75-.75v-6c0-.42.33-.75.75-.75Z"/><path d="M8.25 13.5c0-.42.33-.75.75-.75h6c.41 0 .75.33.75.75 0 .41-.34.75-.75.75H9c-.42 0-.75-.34-.75-.75Z"/></g></svg>