<svg viewBox="0 0 24 24" xmlns="http://www.w3.org/2000/svg"><g fill="#CFD8DC" fill-rule="evenodd"><path d="M12 9.25c.41 0 .75.33.75.75v2.25H20c.41 0 .75.33.75.75v3c0 .41-.34.75-.75.75 -.42 0-.75-.34-.75-.75v-2.25H4.75V16c0 .41-.34.75-.75.75 -.42 0-.75-.34-.75-.75v-3c0-.42.33-.75.75-.75h7.25V10c0-.42.33-.75.75-.75Z"/><path d="M16.75 16c0-.42.33-.75.75-.75H22c.41 0 .75.33.75.75v3c0 .41-.34.75-.75.75 -.42 0-.75-.34-.75-.75v-2.25h-3V19c0 .41-.34.75-.75.75 -.42 0-.75-.34-.75-.75v-3Z"/><path d="M1.25 16c0-.42.33-.75.75-.75h4.5c.41 0 .75.33.75.75v3c0 .41-.34.75-.75.75 -.42 0-.75-.34-.75-.75v-2.25h-3V19c0 .41-.34.75-.75.75 -.42 0-.75-.34-.75-.75v-3Z"/></g><path fill="#FFC44D" d="M8 4.25c-.42 0-.75.33-.75.75v5c0 .41.33.75.75.75h8c.41 0 .75-.34.75-.75V5c0-.42-.34-.75-.75-.75H8Z"/></svg>