<svg viewBox="0 0 24 24" xmlns="http://www.w3.org/2000/svg"><path fill="#5E94FF" d="M11.64 1.25c-1.04 0-1.92.7-2.18 1.65 -.26-.11-.54-.16-.83-.16 -1.21 0-2.19.94-2.25 2.12 -.24-.09-.49-.13-.76-.13 -1.25 0-2.25 1-2.25 2.25v12.5c0 .41.33.75.75.75h10.99c.37 0 .69-.29.74-.657l.04-.34 5.02-4.42c.01-.02.03-.04.05-.06 .93-1.01.75-2.61-.38-3.39 -.81-.56-1.87-.53-2.64.06l-1.11.69V4.96c0-1.25-1.01-2.25-2.25-2.25 -.3 0-.58.05-.83.15 -.26-.96-1.14-1.66-2.18-1.66Z"/><path fill="#CFD8DC" fill-rule="evenodd" d="M9.46 2.9c.26-.96 1.13-1.66 2.17-1.66 1.03 0 1.91.7 2.17 1.65 .25-.11.53-.16.82-.16 1.24 0 2.25 1 2.25 2.25v8.5c0 .41-.34.75-.75.75 -.42 0-.75-.34-.75-.75v-8.5c0-.42-.34-.75-.75-.75 -.42 0-.75.33-.75.75v5.5c0 .41-.34.75-.75.75 -.42 0-.75-.34-.75-.75v-7c0-.42-.34-.75-.75-.75 -.42 0-.75.33-.75.75v7c0 .41-.34.75-.75.75 -.42 0-.75-.34-.75-.75v-5.5c0-.42-.34-.75-.75-.75 -.42 0-.75.33-.75.75v6.5c0 .41-.34.75-.75.75 -.42 0-.75-.34-.75-.75v-4.5c0-.42-.34-.75-.75-.75 -.42 0-.75.33-.75.75v12.5c0 .41-.34.75-.75.75 -.42 0-.75-.34-.75-.75V6.98c0-1.25 1-2.25 2.25-2.25 .26 0 .51.04.75.12 .06-1.19 1.04-2.13 2.24-2.13 .29 0 .57.05.82.15Z"/><path fill="#CFD8DC" d="M4.14 18.75c-.42 0-.75.33-.75.75V22c0 .41.33.75.75.75h10.99c.41 0 .75-.34.75-.75v-2.5c0-.42-.34-.75-.75-.75h-11Z"/></svg>