<svg viewBox="0 0 24 24" xmlns="http://www.w3.org/2000/svg"><g fill="#FFC44D"><path d="M20.14 16.11c-.17-.29-.51-.43-.83-.35L8.3 18.49c-.24.05-.43.22-.52.45 -.09.22-.07.48.07.68l.54.82c.74 1.12 2.11 1.67 3.43 1.37l9.31-2.12c.23-.06.42-.22.52-.44 .09-.23.07-.48-.05-.69l-1.5-2.5Z"/><path d="M13 1.75c-.33 0-.62.21-.72.52 -.1.31.01.64.27.83l7 5c.19.14.44.17.67.09 .22-.08.4-.27.47-.5l1.5-5c.06-.23.02-.48-.12-.67 -.15-.2-.37-.31-.61-.31h-8.5Z"/></g><path fill="#EE4D4D" d="M12.27 1.75c-4.28 0-7.93 3.09-8.64 7.31l-1.28 7.65c-.38 2.27 1.66 4.2 3.91 3.7l12.81-2.85c1.25-.28 2.15-1.4 2.15-2.69v-4.4c0-4.84-3.92-8.75-8.75-8.75h-.23Z"/><path fill="#CFD8DC" d="M14.25 8.5c0-.22-.09-.42-.25-.56 -.16-.15-.37-.22-.58-.2l-10.01 1c-.34.03-.61.28-.67.62l-1 6c-.04.22.03.46.19.63 .15.17.38.25.61.23l6.9-.63c2.7-.25 4.77-2.52 4.77-5.23v-1.9Z"/></svg>