<svg viewBox="0 0 24 24" xmlns="http://www.w3.org/2000/svg"><path fill="#CFD8DC" d="M18.23 2.36c.21-.32.63-.43.97-.25l2.65 1.403c.18.09.32.27.37.47 .05.2.01.41-.1.59L11.1 21.603c-.14.21-.38.34-.63.34H2.46c-.2 0-.39-.08-.54-.22 -.15-.15-.22-.34-.22-.54v-5c0-.42.33-.75.75-.75H9.3l8.88-13.11Z"/><path fill="#5E94FF" d="M5.76 2.36c-.22-.32-.64-.43-.98-.25L2.12 3.513c-.19.09-.33.27-.38.47 -.06.2-.02.41.09.59l11.01 17.03c.13.21.37.34.62.34h8c.19 0 .38-.08.53-.22 .14-.15.21-.34.21-.54v-5c0-.42-.34-.75-.75-.75h-6.86L5.7 2.32Z"/></svg>