<svg viewBox="0 0 24 24" xmlns="http://www.w3.org/2000/svg"><g fill="#CFD8DC" fill-rule="evenodd"><path d="M12.5 15.75c0-.42.33-.75.75-.75h3.5c1.24 0 2.25 1 2.25 2.25 0 1.24-1.01 2.25-2.25 2.25H4.25c-.42 0-.75-.34-.75-.75 0-.42.33-.75.75-.75h12.5c.41 0 .75-.34.75-.75 0-.42-.34-.75-.75-.75h-3.5c-.42 0-.75-.34-.75-.75Z"/><path d="M14.25 15c.41 0 .75.33.75.75v3c0 .41-.34.75-.75.75 -.42 0-.75-.34-.75-.75v-3c0-.42.33-.75.75-.75Z"/><path d="M8.25 15c.41 0 .75.33.75.75v3c0 .41-.34.75-.75.75 -.42 0-.75-.34-.75-.75v-3c0-.42.33-.75.75-.75Z"/></g><path fill="#5E94FF" d="M4.75 4.5c-.42 0-.75.33-.75.75v7.46c0 .58.29 1.13.77 1.45l3.3 2.2c.12.08.26.12.41.12h9.25c1.51 0 2.75-1.24 2.75-2.75v-.92c0-1.28-.88-2.39-2.13-2.68L15.7 9.5l-4.24-1.79V5.2c0-.42-.34-.75-.75-.75h-6Z"/><g fill="#ECEFF1" fill-rule="evenodd"><path d="M11.5 7.5h-.75 -6H4V9h.75 6 3.71l-2.97-1.25v-.26Z"/><path d="M12.33 8.1l-.12.11 -2 2c-.3.29-.3.76 0 1.06 .29.29.76.29 1.06 0l2-2 .548-.55 -1.5-.63Zm2.81 1.18l-.44.43 -2 2c-.3.29-.3.76 0 1.06 .29.29.76.29 1.06 0l2-2 .99-1 -1.05-.25 -.59-.25Z"/></g></svg>