<svg viewBox="0 0 24 24" xmlns="http://www.w3.org/2000/svg"><path fill="#CFD8DC" fill-rule="evenodd" d="M12 1.25c.41 0 .75.33.75.75v5c0 .41-.34.75-.75.75 -.42 0-.75-.34-.75-.75V2c0-.42.33-.75.75-.75Z"/><path fill="#8B98A6" d="M10 6.25C8.48 6.25 7.25 7.48 7.25 9v11c0 1.51 1.23 2.75 2.75 2.75h4c1.51 0 2.75-1.24 2.75-2.75V9c0-1.52-1.24-2.75-2.75-2.75h-4Z"/><g fill="#ECEFF1" fill-rule="evenodd"><path d="M7.25 9.25h9.5v1.5h-9.5v-1.5Z"/><path d="M7.25 18.25h9.5v1.5h-9.5v-1.5Z"/><path fill="#CFD8DC" d="M7.25 2c0-.42.33-.75.75-.75h8c.41 0 .75.33.75.75 0 .41-.34.75-.75.75H8c-.42 0-.75-.34-.75-.75Z"/></g></svg>