<svg viewBox="0 0 24 24" xmlns="http://www.w3.org/2000/svg"><path fill="#CFD8DC" d="M5 13.75c-.42 0-.75.33-.75.75V17c0 .96.78 1.75 1.75 1.75h12.5c.96 0 1.75-.79 1.75-1.75v-2.5c0-.42-.34-.75-.75-.75H5Z"/><path fill="#5E94FF" d="M5 4.25c-.42 0-.75.33-.75.75v9.5c0 .96.78 1.75 1.75 1.75h12c1.51 0 2.75-1.24 2.75-2.75v-.92c0-1.28-.88-2.39-2.13-2.68l-2.65-.63 -4.24-1.79V4.97c0-.42-.34-.75-.75-.75h-6Z"/><g fill="#CFD8DC" fill-rule="evenodd"><path d="M11.75 7.25h-7.5v1.5H13c.3 0 .56-.18.68-.44l-1.94-.82v-.26Z"/><path d="M12.58 7.85l-.12.11 -2 2c-.3.29-.3.76 0 1.06 .29.29.76.29 1.06 0l2-2 .548-.55 -1.5-.63Zm3.16 1.33l-.29.28 -2 2c-.3.29-.3.76 0 1.06 .29.29.76.29 1.06 0l2-2 .9-.91 -1.46-.35 -.24-.1Z"/></g></svg>