<svg viewBox="0 0 24 24" xmlns="http://www.w3.org/2000/svg"><path fill="#5E94FF" d="M3.99 6.25c-.38 0-.69.27-.75.63l-2 13c-.06.37.17.73.53.83l7 2c.36.1.75-.09.9-.45l2.3-5.76 2.3 5.75c.14.35.53.54.9.44l7-2c.36-.11.59-.47.53-.84l-2-13.01c-.06-.37-.38-.64-.75-.64h-16Z"/><g fill="#ECEFF1" fill-rule="evenodd"><path d="M11.19 18.52l-1.01-.26 -7.48-2 -.86-.29 -.24 1.5 .63.21c.01 0 .02 0 .04.01l7.5 2 -.01 0 .01 0 .81.2 .56-1.41Z"/><path d="M22.15 16.06l-.84.2v-.01l-.02 0 -7.5 1.99 -1.01.25 .56 1.4 .81-.21v0l.01-.01 7.49-2 .69-.18 -.23-1.49Z"/><path d="M10.5 6.25c.41 0 .75.33.75.75v6c0 .41-.34.75-.75.75 -.42 0-.75-.34-.75-.75V7c0-.42.33-.75.75-.75Z"/><path d="M13.5 6.25c.41 0 .75.33.75.75v4.5c0 .41-.34.75-.75.75 -.42 0-.75-.34-.75-.75V7c0-.42.33-.75.75-.75Z"/></g><path fill="#CFD8DC" d="M3.99 3.75c-.42 0-.75.33-.75.75V7c0 .41.33.75.75.75h15.99c.41 0 .75-.34.75-.75V4.5c0-.42-.34-.75-.75-.75h-16Z"/></svg>