<svg viewBox="0 0 24 24" xmlns="http://www.w3.org/2000/svg"><path fill="#5E94FF" d="M2 7.25c-.42 0-.75.33-.75.75v8c0 .82.42 1.53 1.02 2.1 .59.56 1.42 1.04 2.37 1.42 1.91.76 4.51 1.22 7.34 1.22s5.43-.46 7.34-1.23c.95-.39 1.78-.86 2.37-1.43 .59-.57 1.02-1.28 1.02-2.11v-8c0-.42-.34-.75-.75-.75h-20Z"/><path fill="#4DC4FF" d="M12 3.25c-2.84 0-5.44.45-7.35 1.22 -.96.38-1.79.85-2.38 1.42 -.6.56-1.03 1.27-1.03 2.1 0 .82.42 1.53 1.02 2.1 .59.56 1.42 1.04 2.37 1.42 1.91.76 4.51 1.22 7.34 1.22s5.43-.46 7.34-1.23c.95-.39 1.78-.86 2.37-1.43 .59-.57 1.02-1.28 1.02-2.11 0-.83-.43-1.54-1.03-2.11 -.6-.57-1.43-1.05-2.38-1.43 -1.92-.77-4.52-1.23-7.35-1.23Z"/><g fill="#CFD8DC" fill-rule="evenodd"><path d="M19.75 11.35v-.56c0-.66-.34-1.22-.79-1.64 -.45-.43-1.06-.77-1.74-1.05 -1.38-.56-3.23-.88-5.23-.88 -2.01 0-3.86.32-5.23.87 -.69.27-1.3.61-1.74 1.04 -.45.42-.79.97-.79 1.63v.55c.13.05.26.11.4.16 1.91.76 4.51 1.22 7.34 1.22s5.43-.46 7.34-1.23c.13-.06.26-.12.4-.17Z"/><path d="M16.25 20.38v-4.89c0-.42-.34-.75-.75-.75h-7c-.42 0-.75.33-.75.75v4.88c1.3.23 2.74.36 4.25.36 1.5 0 2.94-.13 4.25-.37Z"/><path d="M12.75 3.26v4.73c0 .41-.34.75-.75.75 -.42 0-.75-.34-.75-.75V3.25c.24-.01.49-.02.75-.02 .25 0 .5 0 .75.01Z"/><path d="M20.12 4.81l-.66.65 -3 3c-.3.29-.3.76 0 1.06 .29.29.76.29 1.06 0l3-3 .89-.9c-.38-.31-.82-.58-1.31-.82Z"/><path d="M2.57 5.63l.89.89 3 3c.29.29.76.29 1.06 0 .29-.3.29-.77 0-1.07l-3-3 -.66-.66c-.5.24-.94.51-1.31.81Z"/></g></svg>