<svg viewBox="0 0 24 24" xmlns="http://www.w3.org/2000/svg"><g fill="#5E94FF"><path d="M12 2l.57-.49 0 0 0 0 0 .01 .03.04c.03.03.07.09.13.16 .11.13.27.34.46.59 .38.5.89 1.21 1.41 2.02 .51.81 1.03 1.75 1.43 2.7 .39.94.68 1.96.68 2.93 0 1.15-.26 4.24-.51 6.99 -.13 1.38-.26 2.7-.35 3.67 -.05.48-.09.88-.12 1.16l-.05.43c-.04.38-.37.67-.75.67h-6c-.39 0-.71-.3-.75-.68l-.05-.44c-.03-.28-.07-.68-.12-1.17 -.1-.98-.22-2.29-.35-3.68 -.25-2.76-.51-5.85-.51-7 0-.97.28-1.99.68-2.94 .39-.96.91-1.9 1.43-2.71 .51-.82 1.02-1.53 1.41-2.03 .19-.26.35-.46.46-.6 .05-.07.1-.13.13-.17l.03-.05 0-.02 0-.01 0-.01 .57.48Z"/><path d="M12 2c.57-.49.57-.49.57-.49 -.15-.17-.36-.27-.58-.27 -.22 0-.43.09-.58.26 0 0 0 0 .57.48Z"/></g><path fill="#ECEFF1" fill-rule="evenodd" d="M12.75 22.94v-.45 -9.27c0-.42-.34-.75-.75-.75 -.42 0-.75.33-.75.75v9.26 .44h1.5Z"/></svg>