<svg viewBox="0 0 24 24" xmlns="http://www.w3.org/2000/svg"><path fill="#5E94FF" d="M9.51 3c0-.24-.11-.46-.3-.6 -.19-.15-.43-.2-.65-.14l-3.78 1c-.26.06-.46.26-.53.51l-2 7c-.07.22-.02.46.12.65 .14.18.36.29.59.3l2.75.02v9.22c0 .41.33.75.75.75h10.99c.41 0 .75-.34.75-.75v-9.23l2.75-.03c.23-.01.45-.12.59-.31 .14-.19.18-.44.12-.66l-2-7.01c-.08-.26-.29-.46-.55-.53l-4.15-1c-.23-.06-.46-.01-.64.13 -.19.14-.29.35-.29.58 0 1.15-.94 2.09-2.11 2.09 -.6 0-1.24-.25-1.73-.66 -.49-.41-.76-.93-.76-1.44Z"/><path fill="#FFC44D" fill-rule="evenodd" d="M6.49 6.75c.41 0 .75.33.75.75v3.52c0 .19-.08.39-.23.53 -.15.14-.34.21-.54.21l-3.5-.03c-.42-.01-.75-.35-.75-.76 0-.42.34-.75.75-.75l2.74.02V7.46c0-.42.33-.75.75-.75Zm10.99 0c.41 0 .75.33.75.75v2.77l2.74-.03c.41-.01.75.33.75.74s-.34.75-.75.75l-3.5.02c-.2 0-.4-.08-.54-.22 -.15-.15-.23-.34-.23-.54V7.46c0-.42.33-.75.75-.75Z"/></svg>