<svg viewBox="0 0 24 24" xmlns="http://www.w3.org/2000/svg"><path fill="#FFC44D" d="M3.5 12.25c-.42 0-.75.33-.75.75v.05c0 1.18.75 2.23 1.88 2.6l1.76.58c.51.17.85.64.85 1.18v2.55c0 .96.78 1.75 1.75 1.75h1c.96 0 1.75-.79 1.75-1.75V17.4c0-.54.34-1.02.85-1.19l1.76-.59c1.12-.38 1.88-1.43 1.88-2.61v-.06c0-.42-.34-.75-.75-.75h-12Z"/><path fill="#CFD8DC" d="M18.5 16.25c-1.52 0-2.75 1.23-2.75 2.75 0 1.51 1.23 2.75 2.75 2.75 1.51 0 2.75-1.24 2.75-2.75 0-1.52-1.24-2.75-2.75-2.75Z"/><path fill="#EE4D4D" d="M9.5 2.25C5.77 2.25 2.75 5.27 2.75 9v4c0 .41.33.75.75.75h12c.41 0 .75-.34.75-.75V9c0-3.73-3.03-6.75-6.75-6.75Z"/></svg>