<svg viewBox="0 0 24 24" xmlns="http://www.w3.org/2000/svg"><path fill="#8BC94D" d="M12 1.25C6.06 1.25 1.25 6.06 1.25 12c0 5.93 4.81 10.75 10.75 10.75 5.93 0 10.75-4.82 10.75-10.75 0-5.94-4.82-10.75-10.75-10.75Z"/><path fill="#ECEFF1" fill-rule="evenodd" d="M22.67 10.75h-.68 -2.46c-1.84 0-3.43 1.29-3.79 3.1 -.23 1.1-1.19 1.89-2.32 1.89h-2.91c-1.13 0-2.1-.8-2.32-1.9 -.37-1.81-1.95-3.11-3.79-3.11H1.94h-.68c-.05.41-.08.82-.08 1.25 0 .08 0 .16 0 .25h.74 2.45c1.12 0 2.09.79 2.31 1.89 .36 1.8 1.94 3.1 3.78 3.1h2.9c1.83 0 3.42-1.3 3.78-3.11 .22-1.11 1.18-1.9 2.31-1.9h2.45 .74c0-.09 0-.17 0-.25 0-.43-.03-.84-.08-1.25Z"/></svg>