<svg viewBox="0 0 24 24" xmlns="http://www.w3.org/2000/svg"><path fill="#5E94FF" d="M12 1.25C6.06 1.25 1.25 6.06 1.25 12c0 5.93 4.81 10.75 10.75 10.75 5.93 0 10.75-4.82 10.75-10.75 0-5.94-4.82-10.75-10.75-10.75Z"/><g fill="#FFC44D" fill-rule="evenodd"><path d="M8.27 22.08l.37-.08c.02-.01.04-.02.06-.02 3.2-.99 5.96-3.24 7.54-6.21l.97-1.84c.17-.34.07-.76-.24-.97 -.99-.69-2.11-1.17-3.31-1.407l-1.56-.31c-.34-.07-.68.1-.83.41l-.69 1.43c-.56 1.15-1.4 2.12-2.43 2.83 -.81.55-1.72.94-2.71 1.13l-1.55.3 -1.18.17c1.25 2.07 3.18 3.68 5.48 4.53Z"/><path d="M22.72 12.68l-.24-.36c-.01-.02-.03-.04-.04-.05l-.67-.88c-2.24-2.94-5.73-4.78-9.41-4.99l-1.7-.1c-.02-.01-.03-.01-.05-.01h-.22c-.21 0-.4.08-.54.22 -.15.14-.22.33-.22.53 .01 1.31.32 2.61.92 3.82l.71 1.42c.1.2.29.35.52.4l1.55.3c.99.19 1.92.59 2.74 1.16 1.01.7 1.83 1.66 2.38 2.8l.67 1.41 .45 1.1c1.75-1.79 2.88-4.19 3.05-6.85Z"/><path d="M13.18 1.31c-.39-.05-.79-.07-1.19-.07 -2.02 0-3.9.55-5.51 1.51l-.19.43c-.01.02-.02.04-.03.06l-.5 1.51c-1.15 3.5-.69 7.42 1.23 10.57l.96 1.59c.1.17.28.3.48.34 .2.04.41 0 .58-.12 1.24-.86 2.25-2.03 2.92-3.42l.68-1.44c.1-.21.09-.46-.01-.67l-.72-1.43c-1.03-2.05-1.03-4.45 0-6.49l1.22-2.45Z"/><path fill="#ECEFF1" d="M2.79 17.55l1.17-.18 1.54-.31c.74-.15 1.45-.41 2.09-.77L7 15.33C5.08 12.17 4.62 8.26 5.76 4.75l.49-1.52c0-.03.01-.05.02-.07l.18-.44c.63-.39 1.32-.7 2.03-.95L7.64 3.7l-.49 1.48c-1.01 3.09-.61 6.55 1.08 9.32l.53.87c.74-.65 1.35-1.44 1.79-2.35v0l.52-1.11 -.55-1.1c-1.24-2.47-1.24-5.37 0-7.83l.71-1.43 0-.01 .2-.41c.15-.01.31-.02.46-.02 .39 0 .79.02 1.18.06l-.52 1.02 -.01 0 -.72 1.42c-.42.82-.66 1.7-.74 2.6l1.17.06c3.68.21 7.16 2.05 9.4 4.98l.66.87c.01.01.02.02.03.04l.23.35c-.05.75-.18 1.48-.37 2.18l-1.11-1.7 -.65-.85c-1.98-2.59-5.06-4.22-8.3-4.41l-1.07-.07c.09.81.33 1.62.71 2.37l.54 1.09 1.19.23v0c1.2.23 2.32.72 3.3 1.407 1.21.85 2.21 2 2.87 3.38l.68 1.43c0 .01.01.02.01.03l.16.39c-.33.46-.7.89-1.09 1.29l-.46-1.11 -.68-1.42c-.43-.88-1.01-1.65-1.72-2.28l-.56 1.04c-1.59 2.97-4.34 5.227-7.55 6.2 -.03 0-.05.01-.07.01l-.38.07c-.77-.29-1.49-.65-2.16-1.09l2.19-.46c2.81-.88 5.23-2.86 6.62-5.47l.65-1.23c-.68-.39-1.41-.66-2.19-.82v0l-.99-.2 -.44.9c-.68 1.39-1.69 2.56-2.93 3.41 -.97.66-2.08 1.13-3.26 1.37l-1.56.3c-.02 0-.03 0-.04 0l-.43.06c-.37-.43-.7-.89-.99-1.38Z"/></g></svg>