<svg viewBox="0 0 24 24" xmlns="http://www.w3.org/2000/svg"><g fill-rule="evenodd"><path d="M3.25 6c0-.97.78-1.75 1.75-1.75h14c.96 0 1.75.78 1.75 1.75v3c0 .34-.24.64-.57.72l-8 1.99c-.12.02-.25.02-.37 0l-8-2c-.34-.09-.57-.39-.57-.73v-3ZM5 5.75c-.14 0-.25.11-.25.25v2.41L12 10.22l7.25-1.82V5.98c0-.14-.12-.25-.25-.25H5Z"/><path d="M4.25 21c0 .96.78 1.75 1.75 1.75h12c.96 0 1.75-.79 1.75-1.75V9.5c0-.42-.34-.75-.75-.75 -.42 0-.75.33-.75.75V21c0 .13-.12.25-.25.25H6c-.14 0-.25-.12-.25-.25v-3c0-.42-.34-.75-.75-.75 -.42 0-.75.33-.75.75v3ZM5 14.75c.41 0 .75-.34.75-.75V9.5c0-.42-.34-.75-.75-.75 -.42 0-.75.33-.75.75V14c0 .41.33.75.75.75Z"/><path d="M9.5 2.75c-.14 0-.25.11-.25.25v2c0 .41-.34.75-.75.75 -.42 0-.75-.34-.75-.75V3c0-.97.78-1.75 1.75-1.75h5c.96 0 1.75.78 1.75 1.75v2c0 .41-.34.75-.75.75 -.42 0-.75-.34-.75-.75V3c0-.14-.12-.25-.25-.25h-5Z"/><path d="M12 4.25c.41 0 .75.33.75.75v10c0 .41-.34.75-.75.75 -.42 0-.75-.34-.75-.75V5c0-.42.33-.75.75-.75Z"/><path d="M4.25 19c0-.42.33-.75.75-.75h14c.41 0 .75.33.75.75 0 .41-.34.75-.75.75H5c-.42 0-.75-.34-.75-.75Z"/></g></svg>