<svg viewBox="0 0 24 24" xmlns="http://www.w3.org/2000/svg"><g fill-rule="evenodd"><path d="M1.25 3.5c0-.42.33-.75.75-.75h2c.41 0 .75.33.75.75 0 .41-.34.75-.75.75H2.75v10.5h7.75c.41 0 .75.33.75.75 0 .41-.34.75-.75.75H2c-.42 0-.75-.34-.75-.75v-12Zm6 0c0-.42.33-.75.75-.75h14c.41 0 .75.33.75.75v5c0 .41-.34.75-.75.75 -.42 0-.75-.34-.75-.75V4.25H8c-.42 0-.75-.34-.75-.75Z"/><path d="M4.25 6.5c0-.42.33-.75.75-.75h14c.41 0 .75.33.75.75 0 .41-.34.75-.75.75H5c-.42 0-.75-.34-.75-.75Z"/><path d="M16.22 9.49c.55-.74 1.65-.74 2.2-.01l.59.77 .96-.14c.9-.13 1.68.65 1.56 1.56l-.14.96 .77.59c.73.55.73 1.65 0 2.2l-.78.59 .13.96c.12.9-.66 1.68-1.57 1.56l-.97-.14 -.6.77c-.56.73-1.66.73-2.21 0l-.6-.78 -.97.13c-.91.125-1.69-.66-1.57-1.57l.13-.97 -.78-.6c-.74-.56-.74-1.66 0-2.21l.77-.6 -.14-.97c-.125-.91.65-1.69 1.56-1.57l.96.13 .59-.78Zm1.01.9l-.01-.01 .09-.07 -.1.06s0 0 0 0Zm.09.11l.54.71c.3.39.79.6 1.29.53l.88-.13 -.13.88c-.07.49.13.99.53 1.29l.71.54 -.72.54c-.4.3-.61.79-.54 1.29l.12.88 -.89-.13c-.5-.07-1 .13-1.3.53l-.55.71 -.55-.72c-.31-.4-.8-.61-1.3-.54l-.89.12 .12-.89c.06-.5-.14-1-.54-1.3l-.72-.55 .71-.55c.39-.31.6-.8.53-1.3l-.13-.89 .88.12c.49.06.99-.14 1.29-.54l.54-.72Zm3.96 3.75l-.01 0 0-.01Z"/><path d="M14.46 17.11c.41 0 .75.33.75.75v2.98l1.8-.81c.19-.09.41-.09.6 0l1.8.8v-2.99c0-.42.33-.75.75-.75 .41 0 .75.33.75.75v4.13c0 .25-.13.49-.35.62 -.22.13-.49.15-.72.05l-2.56-1.14 -2.56 1.13c-.24.1-.51.08-.72-.06 -.22-.14-.35-.375-.35-.63V17.8c0-.42.33-.75.75-.75Z"/></g></svg>