<svg viewBox="0 0 24 24" xmlns="http://www.w3.org/2000/svg"><g fill-rule="evenodd"><path d="M12 7.75c-2.35 0-4.25 1.9-4.25 4.25 0 .95.31 1.83.84 2.55 .04.06.08.13.11.21l1.1 3.31c.03.1.12.17.23.17h3.89c.1 0 .2-.07.23-.18 .13-.4.55-.61.94-.48 .39.13.6.55.47.94 -.24.71-.91 1.19-1.67 1.19h-3.9c-.76 0-1.43-.49-1.67-1.2L7.25 15.3c-.68-.95-1.08-2.11-1.08-3.35 0-3.18 2.57-5.75 5.75-5.75 3.17 0 5.75 2.57 5.75 5.75 0 1.29-.43 2.49-1.16 3.45 -.25.33-.72.39-1.06.14 -.34-.25-.4-.72-.15-1.06 .53-.72.84-1.6.84-2.56 0-2.35-1.91-4.25-4.25-4.25Z"/><path d="M20.53 3.46c.29.29.29.76 0 1.06l-2 2c-.3.29-.77.29-1.07 0 -.3-.3-.3-.77 0-1.07l2-2c.29-.3.76-.3 1.06 0Z"/><path d="M22.75 12c0 .41-.34.75-.75.75h-2c-.42 0-.75-.34-.75-.75 0-.42.33-.75.75-.75h2c.41 0 .75.33.75.75Z"/><path d="M4.75 12c0 .41-.34.75-.75.75H2c-.42 0-.75-.34-.75-.75 0-.42.33-.75.75-.75h2c.41 0 .75.33.75.75Z"/><path d="M6.53 6.53c-.3.29-.77.29-1.07 0l-2-2c-.3-.3-.3-.77 0-1.07 .29-.3.76-.3 1.06 0l2 2c.29.29.29.76 0 1.06Z"/><path d="M12 1.25c.41 0 .75.33.75.75v2c0 .41-.34.75-.75.75 -.42 0-.75-.34-.75-.75V2c0-.42.33-.75.75-.75Z"/><path d="M8.75 21c0 .96.78 1.75 1.75 1.75h3c.96 0 1.75-.79 1.75-1.75v-2c0-.42-.34-.75-.75-.75h-5c-.42 0-.75.33-.75.75v2Zm1.75.25c-.14 0-.25-.12-.25-.25v-1.25h3.5V21c0 .13-.12.25-.25.25h-3Z"/></g></svg>