<svg viewBox="0 0 24 24" xmlns="http://www.w3.org/2000/svg"><g fill-rule="evenodd"><path d="M9.97 5.08c.73-2.23 3.14-3.44 5.37-2.7l3.79 1.25c.39.13.6.55.47.94l-2.21 6.64c-.14.39-.56.6-.95.47l-3.8-1.26c-2.23-.74-3.44-3.15-2.7-5.38Zm4.89-1.28c-1.45-.48-3 .3-3.48 1.74s.3 2.99 1.74 3.47l3.08 1.02 1.73-5.23 -3.09-1.03Z"/><path d="M7.44 3.19c.3-.92 1.29-1.42 2.21-1.11l2.37.78c.39.13.6.55.47.94 -.14.39-.56.6-.95.47l-2.38-.79c-.14-.05-.28.02-.32.15l-.63 1.89c-.05.13.02.27.15.31l2.37.78c.39.13.6.55.47.94 -.14.39-.56.6-.95.47l-2.38-.79c-.92-.31-1.42-1.3-1.11-2.22l.62-1.9Z"/><path d="M21.36 8.86c.39-1.18-.25-2.46-1.43-2.85l-1.43-.48c-.4-.14-.82.08-.95.47l-.95 2.84c-.14.39.08.81.47.94l1.42.47c1.17.39 2.45-.25 2.84-1.43Zm-1.9-1.43c.39.13.6.55.47.94 -.14.39-.56.6-.95.47l-.72-.24 .47-1.43 .71.23Z"/><path d="M3.75 21.5c0-1.52 1.23-2.75 2.75-2.75h4c1.51 0 2.75 1.23 2.75 2.75v.5c0 .41-.34.75-.75.75h-8c-.42 0-.75-.34-.75-.75v-.5Zm1.52-.25h6.45c-.12-.58-.63-1-1.23-1h-4c-.61 0-1.11.42-1.23 1Z"/><path d="M9.86 7.05c.36.2.48.66.28 1.02l-.5.88c-.21.36-.67.48-1.03.28 -.37-.21-.49-.67-.29-1.03l.5-.89c.2-.37.66-.49 1.02-.29Zm-2.25 3.96c.36.2.48.66.28 1.02l-.6 1.04 1.9 6.19c.12.39-.11.81-.5.93 -.4.12-.82-.11-.94-.5l-2-6.5c-.07-.2-.04-.42.06-.6l.75-1.33c.2-.37.66-.49 1.02-.29Z"/></g></svg>