<svg viewBox="0 0 24 24" xmlns="http://www.w3.org/2000/svg"><g fill-rule="evenodd"><path d="M3.38 8.52c-.81-.66-.87-1.86-.13-2.6l2.67-2.68c.73-.74 1.93-.68 2.59.12l5.6 6.84c.01.01.02.02.03.03l6.84 5.6c.8.65.86 1.85.12 2.59l-2.68 2.68c-.74.73-1.94.67-2.6-.13l-1.26-1.53c-.27-.33-.22-.8.1-1.06 .32-.27.79-.22 1.05.1L16.96 20c.09.11.26.12.37.01L20 17.33c.1-.11.09-.28-.02-.38l-6.85-5.61c-.1-.08-.18-.16-.25-.25L7.27 4.24c-.1-.12-.27-.13-.38-.02L4.21 6.89c-.11.1-.1.27.01.37l6.84 5.6c.09.07.17.15.24.24l1.89 2.31c.26.32.21.79-.11 1.05 -.33.26-.8.21-1.06-.11l-1.9-2.32c-.02-.02-.03-.03-.04-.04L3.23 8.38Z"/><path d="M10.24 14.13c-.3-.3-.3-.77 0-1.07l2.82-2.83c.29-.3.76-.3 1.06 0 .29.29.29.76 0 1.06l-2.83 2.82c-.3.29-.77.29-1.07 0Z"/><path d="M14.46 6.5c.4.08.66.47.58.88l-.71 3.53c-.09.4-.48.66-.89.58 -.41-.09-.67-.48-.59-.89l.7-3.54c.08-.41.47-.67.88-.59Z"/><path d="M12.871 10.92c-.09-.41.18-.81.58-.89l3.53-.71c.4-.09.8.18.88.58 .08.4-.19.8-.59.88l-3.54.7c-.41.08-.81-.19-.89-.59Z"/></g></svg>