<svg viewBox="0 0 24 24" xmlns="http://www.w3.org/2000/svg"><g fill-rule="evenodd"><path d="M3.25 4c0-1.52 1.23-2.75 2.75-2.75h4c1.51 0 2.75 1.23 2.75 2.75v16c0 1.51-1.24 2.75-2.75 2.75H6c-1.52 0-2.75-1.24-2.75-2.75V4ZM6 2.75c-.7 0-1.25.55-1.25 1.25v16c0 .69.55 1.25 1.25 1.25h4c.69 0 1.25-.56 1.25-1.25V4c0-.7-.56-1.25-1.25-1.25H6Z"/><path d="M11.25 4c0-1.52 1.23-2.75 2.75-2.75h4c1.51 0 2.75 1.23 2.75 2.75v6c0 .41-.34.75-.75.75 -.42 0-.75-.34-.75-.75V4c0-.7-.56-1.25-1.25-1.25h-4c-.7 0-1.25.55-1.25 1.25v16c0 .69.55 1.25 1.25 1.25h4c.69 0 1.25-.56 1.25-1.25v-6c0-.42.33-.75.75-.75 .41 0 .75.33.75.75v6c0 1.51-1.24 2.75-2.75 2.75h-4c-1.52 0-2.75-1.24-2.75-2.75V4Z"/><path d="M13.75 6c0-.42.33-.75.75-.75h3c.41 0 .75.33.75.75 0 .41-.34.75-.75.75h-3c-.42 0-.75-.34-.75-.75Z"/><path d="M5.75 6c0-.42.33-.75.75-.75h3c.41 0 .75.33.75.75 0 .41-.34.75-.75.75h-3c-.42 0-.75-.34-.75-.75Z"/><path d="M13.75 9.5c0-.42.33-.75.75-.75h3c.41 0 .75.33.75.75 0 .41-.34.75-.75.75h-3c-.42 0-.75-.34-.75-.75Z"/><path d="M5.75 9.5c0-.42.33-.75.75-.75h3c.41 0 .75.33.75.75 0 .41-.34.75-.75.75h-3c-.42 0-.75-.34-.75-.75Z"/><path d="M16 16.75c-.42 0-.75.33-.75.75 0 .41.33.75.75.75 .41 0 .75-.34.75-.75 0-.42-.34-.75-.75-.75Zm-2.25.75c0-1.25 1-2.25 2.25-2.25 1.24 0 2.25 1 2.25 2.25 0 1.24-1.01 2.25-2.25 2.25 -1.25 0-2.25-1.01-2.25-2.25Z"/><path d="M8 16.75c-.42 0-.75.33-.75.75 0 .41.33.75.75.75 .41 0 .75-.34.75-.75 0-.42-.34-.75-.75-.75Zm-2.25.75c0-1.25 1-2.25 2.25-2.25 1.24 0 2.25 1 2.25 2.25 0 1.24-1.01 2.25-2.25 2.25 -1.25 0-2.25-1.01-2.25-2.25Z"/></g></svg>