<svg viewBox="0 0 24 24" xmlns="http://www.w3.org/2000/svg"><g fill-rule="evenodd"><path d="M4.25 3c0-.97.78-1.75 1.75-1.75h12c.96 0 1.75.78 1.75 1.75v18c0 .96-.79 1.75-1.75 1.75H6c-.97 0-1.75-.79-1.75-1.75v-3c0-.42.33-.75.75-.75 .41 0 .75.33.75.75v3c0 .13.11.25.25.25h12c.13 0 .25-.12.25-.25V3c0-.14-.12-.25-.25-.25H6c-.14 0-.25.11-.25.25v11c0 .41-.34.75-.75.75 -.42 0-.75-.34-.75-.75V3Z"/><path d="M12.25 8c0-.42.33-.75.75-.75h3c.41 0 .75.33.75.75 0 .41-.34.75-.75.75h-3c-.42 0-.75-.34-.75-.75Z"/><path d="M7.25 6c0-.42.33-.75.75-.75h2c.41 0 .75.33.75.75 0 .41-.34.75-.75.75H8c-.42 0-.75-.34-.75-.75Z"/><path d="M7.25 13c0-.42.33-.75.75-.75h8c.41 0 .75.33.75.75 0 .41-.34.75-.75.75H8c-.42 0-.75-.34-.75-.75Z"/><path d="M7.25 17c0-.42.33-.75.75-.75h8c.41 0 .75.33.75.75 0 .41-.34.75-.75.75H8c-.42 0-.75-.34-.75-.75Z"/><path d="M14 6.25c-.14 0-.25.11-.25.25v3.41c0 .41-.34.75-.75.75 -.42 0-.75-.34-.75-.76V6.48c0-.97.78-1.75 1.75-1.75h1c.96 0 1.75.78 1.75 1.75v3.41c0 .41-.34.75-.75.75 -.42 0-.75-.34-.75-.76V6.46c0-.14-.12-.25-.25-.25h-1Z"/></g></svg>