<svg viewBox="0 0 24 24" xmlns="http://www.w3.org/2000/svg"><g fill-rule="evenodd"><path d="M12 10.75c-2.9 0-5.25 2.35-5.25 5.25 0 2.89 2.35 5.25 5.25 5.25 .41 0 .75.33.75.75 0 .41-.34.75-.75.75 -3.73 0-6.75-3.03-6.75-6.75 0-3.73 3.02-6.75 6.75-6.75 3.72 0 6.75 3.02 6.75 6.75 0 1.99-.88 3.79-2.25 5.03 -.31.27-.79.24-1.06-.06 -.28-.31-.25-.79.05-1.06 1.07-.97 1.75-2.36 1.75-3.92 0-2.9-2.36-5.25-5.25-5.25Z"/><path d="M2.97 3.73c-.54-1.16.31-2.49 1.58-2.49h4.29c.68 0 1.3.39 1.58 1.01l3.51 7.6c.17.37 0 .82-.37.99 -.38.17-.83 0-1-.37L9.04 2.86c-.05-.09-.13-.15-.23-.15h-4.3c-.19 0-.31.18-.23.35l3.84 8.33c.17.37 0 .82-.37.99 -.38.17-.83 0-1-.37L2.9 3.67Z"/><path d="M21.026 3.73c.53-1.16-.32-2.49-1.59-2.49h-4.3c-.69 0-1.31.39-1.59 1.01l-2.24 4.83c-.18.37-.01.82.36.99 .37.17.82 0 .99-.37l2.23-4.84c.04-.09.12-.15.22-.15h4.29c.18 0 .3.18.22.35l-3.97 8.58c-.18.37-.01.82.36.99 .37.17.82 0 .99-.37l3.96-8.59Z"/></g></svg>