<svg viewBox="0 0 24 24" xmlns="http://www.w3.org/2000/svg"><g fill-rule="evenodd"><path d="M12 2.75c-3.18 0-5.75 2.57-5.75 5.75 0 2.82 1.52 6.04 3.13 8.63 .79 1.28 1.59 2.37 2.19 3.15 .15.2.29.38.42.53 .26-.33.59-.76.97-1.27 .24-.34.71-.41 1.04-.17 .33.24.4.71.16 1.04 -.47.63-.87 1.13-1.16 1.49 -.15.17-.26.31-.34.4 -.04.04-.08.08-.1.1l-.03.02 -.01 0 -.01 0 -.01 0c-.01 0-.01 0-.57-.5 -.57.49-.57.49-.57.49l-.01-.01 -.01-.01 -.02-.02c-.02-.02-.04-.04-.06-.07 -.05-.06-.13-.15-.22-.26 -.19-.23-.45-.55-.76-.95 -.63-.81-1.45-1.95-2.28-3.28 -1.64-2.64-3.37-6.17-3.37-9.43 0-4.01 3.24-7.25 7.25-7.25 4 0 7.25 3.24 7.25 7.25 0 2.66-1.15 5.49-2.45 7.86 -.2.36-.66.49-1.02.29 -.37-.2-.5-.66-.3-1.02 1.25-2.292 2.25-4.86 2.25-7.14 0-3.18-2.58-5.75-5.75-5.75ZM12 22l-.57.49c.14.16.34.25.56.25 .21 0 .42-.1.56-.26l-.57-.5Z"/><path d="M10.25 7.5c0-.97.78-1.75 1.75-1.75h1.5c.41 0 .75.33.75.75 0 .41-.34.75-.75.75H12c-.14 0-.25.11-.25.25v3c0 .13.11.25.25.25h1.5c.41 0 .75.33.75.75 0 .41-.34.75-.75.75H12c-.97 0-1.75-.79-1.75-1.75v-3Z"/></g></svg>