<svg viewBox="0 0 24 24" xmlns="http://www.w3.org/2000/svg"><g fill-rule="evenodd"><path d="M14.75 9c0-.42.33-.75.75-.75h4c.24 0 .46.11.61.31l2.5 3.5c.09.12.13.27.13.43v3.5c0 .41-.34.75-.75.75h-2c-.42 0-.75-.34-.75-.75 0-.42.33-.75.75-.75h1.25v-2.51l-2.14-3h-2.87v5.5h.75c.41 0 .75.33.75.75 0 .41-.34.75-.75.75h-1.5c-.42 0-.75-.34-.75-.75v-7Z"/><path d="M1.25 6c0-.42.33-.75.75-.75h2.02c.41 0 .75.33.75.75 0 .41-.34.75-.75.75H2.74v8.5h1.75c.41 0 .75.33.75.75 0 .41-.34.75-.75.75h-2.5c-.42 0-.75-.34-.75-.75V6Zm6.18 0c0-.42.33-.75.75-.75h7.31c.41 0 .75.33.75.75v10c0 .41-.34.75-.75.75h-8c-.42 0-.75-.34-.75-.75 0-.42.33-.75.75-.75h7.25v-8.5H8.17c-.42 0-.75-.34-.75-.75Z"/><path d="M6 15.25c-.42 0-.75.33-.75.75 0 .41.33.75.75.75 .41 0 .75-.34.75-.75 0-.42-.34-.75-.75-.75ZM3.75 16c0-1.25 1-2.25 2.25-2.25 1.24 0 2.25 1 2.25 2.25 0 1.24-1.01 2.25-2.25 2.25 -1.25 0-2.25-1.01-2.25-2.25Z"/><path d="M18.5 15.25c-.42 0-.75.33-.75.75 0 .41.33.75.75.75 .41 0 .75-.34.75-.75 0-.42-.34-.75-.75-.75Zm-2.25.75c0-1.25 1-2.25 2.25-2.25 1.24 0 2.25 1 2.25 2.25 0 1.24-1.01 2.25-2.25 2.25 -1.25 0-2.25-1.01-2.25-2.25Z"/><path d="M9 7.75c.41 0 .75.33.75.75v5c0 .41-.34.75-.75.75 -.42 0-.75-.34-.75-.75v-5c0-.42.33-.75.75-.75Z"/><path d="M5.75 11c0-.42.33-.75.75-.75h5c.41 0 .75.33.75.75 0 .41-.34.75-.75.75h-5c-.42 0-.75-.34-.75-.75Z"/></g></svg>