<svg viewBox="0 0 24 24" xmlns="http://www.w3.org/2000/svg"><g fill-rule="evenodd"><path d="M8.46 6.96c.14-.15.33-.22.53-.22h6c.19 0 .38.07.53.21l2 2c.14.14.21.33.21.53v6.47c0 .41-.34.75-.75.75 -.42 0-.75-.34-.75-.75V9.78l-1.57-1.57H9.28L7.71 9.77V21.2h8.5v-1.28c0-.42.33-.75.75-.75 .41 0 .75.33.75.75v2.02c0 .41-.34.75-.75.75h-10c-.42 0-.75-.34-.75-.75V9.44c0-.2.07-.39.21-.54l2-2Z"/><path d="M9.25 4.5c0-.42.33-.75.75-.75h4c.41 0 .75.33.75.75v3c0 .41-.34.75-.75.75h-4c-.42 0-.75-.34-.75-.75v-3Zm1.5.75v1.5h2.5v-1.5h-2.5Z"/><path d="M6.25 2c0-.42.33-.75.75-.75h5c.41 0 .75.33.75.75v2.5c0 .41-.34.75-.75.75 -.42 0-.75-.34-.75-.75V2.75h-3.5V4c0 .41-.34.75-.75.75 -.42 0-.75-.34-.75-.75V2Z"/><path d="M12 11.25c.41 0 .75.33.75.75v4c0 .41-.34.75-.75.75 -.42 0-.75-.34-.75-.75v-4c0-.42.33-.75.75-.75Z"/><path d="M9.25 14c0-.42.33-.75.75-.75h4c.41 0 .75.33.75.75 0 .41-.34.75-.75.75h-4c-.42 0-.75-.34-.75-.75Z"/></g></svg>