<svg viewBox="0 0 24 24" xmlns="http://www.w3.org/2000/svg"><g fill-rule="evenodd"><path d="M1.25 10c0-1.8 1.45-3.25 3.25-3.25H6c.41 0 .75.33.75.75 0 .41-.34.75-.75.75H4.49c-.97 0-1.75.78-1.75 1.75v4c0 .96.78 1.75 1.75 1.75h15c.96 0 1.75-.79 1.75-1.75v-4c0-.97-.79-1.75-1.75-1.75h-9.02c-.42 0-.75-.34-.75-.75 0-.42.33-.75.74-.75h9.01c1.79 0 3.25 1.45 3.25 3.25v4c0 1.79-1.46 3.25-3.25 3.25h-15c-1.8 0-3.25-1.46-3.25-3.25v-4Z"/><path d="M7.75 10c0-.42.33-.75.75-.75h7c.41 0 .75.33.75.75v4c0 .41-.34.75-.75.75h-7c-.42 0-.75-.34-.75-.75v-4Zm1.5.75v2.5h5.5v-2.5h-5.5Z"/></g></svg>