<svg viewBox="0 0 24 24" xmlns="http://www.w3.org/2000/svg"><path fill-rule="evenodd" d="M5.75 5c0-2.08 1.67-3.75 3.75-3.75 .96 0 1.83.36 2.5.95 .66-.6 1.53-.96 2.5-.96 2.07 0 3.75 1.67 3.75 3.75 0 1.81-1.29 3.32-3 3.67v.32c0 .41-.34.75-.75.75 -.42 0-.75-.34-.75-.75V7.97c0-.42.33-.75.75-.75 1.24 0 2.25-1.01 2.25-2.25 0-1.25-1.01-2.25-2.25-2.25 -.79 0-1.48.39-1.88 1 -.14.2-.38.33-.63.33 -.26 0-.49-.13-.63-.34 -.41-.61-1.1-1.01-1.88-1.01 -1.25 0-2.25 1-2.25 2.25 0 1.24 1 2.25 2.25 2.25 .41 0 .75.33.75.75v8c0 .41-.34.75-.75.75 -1.25 0-2.25 1-2.25 2.25 0 1.24 1 2.25 2.25 2.25 .78 0 1.47-.4 1.87-1.01 .13-.21.37-.34.62-.34s.48.12.62.33c.4.6 1.09 1 1.87 1 1.24 0 2.25-1.01 2.25-2.25 0-1.25-1.01-2.25-2.25-2.25 -.42 0-.75-.34-.75-.75v-2.98c0-.42.33-.75.75-.75 .41 0 .75.33.75.75v2.3c1.71.34 3 1.86 3 3.67 0 2.07-1.68 3.75-3.75 3.75 -.97 0-1.84-.37-2.5-.96 -.67.59-1.54.95-2.5.95 -2.08 0-3.75-1.68-3.75-3.75 0-1.82 1.28-3.33 3-3.68V8.57c-1.72-.35-3-1.87-3-3.68Z"/></svg>