<svg viewBox="0 0 24 24" xmlns="http://www.w3.org/2000/svg"><g fill-rule="evenodd"><path d="M9.53 14.46c.29.29.29.76 0 1.06l-7 7c-.3.29-.77.29-1.07 0 -.3-.3-.3-.77 0-1.07l7-7c.29-.3.76-.3 1.06 0Z"/><path d="M16.46 3.46c.29-.3.76-.3 1.06 0l3 3c.29.29.29.76 0 1.06l-8 7.99c-.15.14-.34.21-.54.21h-3c-.42 0-.75-.34-.75-.75v-3c0-.2.07-.39.21-.54l8-8.01Zm.53 1.59L9.74 12.3v1.93h1.93l7.25-7.25 -1.94-1.94Z"/><path d="M14.46 1.46c.29-.3.76-.3 1.06 0l7 7c.29.29.29.76 0 1.06 -.3.29-.77.29-1.07 0l-7-7c-.3-.3-.3-.77 0-1.07Z"/><path d="M12.46 4.46c.29-.3.76-.3 1.06 0l6 6c.29.29.29.76 0 1.06 -.3.29-.77.29-1.07 0l-6-6c-.3-.3-.3-.77 0-1.07Z"/><path d="M7.96 4.96c.29-.3.76-.3 1.06 0l3.49 3.5c.29.29.29.76 0 1.06 -.3.29-.77.29-1.07 0L8.47 6.55l-.94.93 2.96 2.96c.29.29.29.76 0 1.06 -.3.29-.77.29-1.07 0L5.92 8c-.3-.3-.3-.77 0-1.07l2-2Zm6.5 6.5c.29-.3.76-.3 1.06 0l3.5 3.5c.29.29.29.76 0 1.06l-2 2c-.3.29-.77.29-1.07 0l-.49-.49c-.3-.3-.3-.77 0-1.07 .27-.28.72-.3 1.01-.04l.94-.95 -2.97-2.97c-.3-.3-.3-.77 0-1.07Zm-2 2c.29-.3.76-.3 1.06 0l.98.98c.29.29.29.76 0 1.06 -.3.29-.77.29-1.07 0l-.99-.99c-.3-.3-.3-.77 0-1.07Z"/></g></svg>