<svg viewBox="0 0 24 24" xmlns="http://www.w3.org/2000/svg"><g fill-rule="evenodd"><path d="M4.25 3.5c0-1.25 1-2.25 2.25-2.25 1.24 0 2.25 1 2.25 2.25V14c0 .41-.34.75-.75.75H5c-.42 0-.75-.34-.75-.75V3.5Zm2.25-.75c-.42 0-.75.33-.75.75v9.75h1.5V3.5c0-.42-.34-.75-.75-.75Z"/><path d="M14.25 20.5c0 1.24 1 2.25 2.25 2.25 1.24 0 2.25-1.01 2.25-2.25v-1.54c0-.42-.34-.75-.75-.75 -.42 0-.75.33-.75.75v1.53c0 .41-.34.75-.75.75 -.42 0-.75-.34-.75-.75v-9.75h1.5v4.31c0 .41.33.75.75.75 .41 0 .75-.34.75-.75V9.98c0-.42-.34-.75-.75-.75h-3c-.42 0-.75.33-.75.75v10.5Z"/><path d="M15.32 1.66c.18-.38.63-.53 1-.34l1.93.96c.9.45 1.48 1.38 1.48 2.39 0 1.09-.67 2.08-1.69 2.48l-.82.32v2.49c0 .41-.34.75-.75.75 -.42 0-.75-.34-.75-.75V6.95c0-.31.18-.59.47-.7l1.28-.52c.44-.18.74-.62.74-1.1 0-.45-.26-.86-.66-1.06l-1.94-.97c-.38-.19-.53-.64-.34-1.01Z"/><path d="M9 17.75c-.97 0-1.75.78-1.75 1.75 0 .96.78 1.75 1.75 1.75 .96 0 1.75-.79 1.75-1.75 0-.97-.79-1.75-1.75-1.75ZM5.75 19.5c0-1.8 1.45-3.25 3.25-3.25 1.79 0 3.25 1.45 3.25 3.25 0 1.79-1.46 3.25-3.25 3.25 -1.8 0-3.25-1.46-3.25-3.25Z"/><path d="M6.5 13.25c.41 0 .75.33.75.75v5.5c0 .41-.34.75-.75.75 -.42 0-.75-.34-.75-.75V14c0-.42.33-.75.75-.75Z"/></g></svg>