<svg viewBox="0 0 24 24" xmlns="http://www.w3.org/2000/svg"><g fill-rule="evenodd"><path d="M17.05 2.88c1.07-1.08 2.81-1.08 3.88 0l.17.17c1.07 1.07 1.07 2.81 0 3.88l-3.57 3.56c-.3.29-.77.29-1.07 0 -.3-.3-.3-.77 0-1.07l3.56-3.57c.48-.49.48-1.28 0-1.77l-.18-.18c-.49-.49-1.28-.49-1.77 0l-9.06 9.05 1.93 1.93 1.5-1.51c.29-.3.76-.3 1.06 0 .29.29.29.76 0 1.06l-2.04 2.03c-.15.14-.34.21-.54.21s-.39-.08-.54-.22l-3.01-3c-.3-.3-.3-.77 0-1.07l9.58-9.59Z"/><path d="M10.03 13.96c.29.29.29.76 0 1.06l-3.01 3c-.25.24-.63.28-.92.11l-.65-.39c-.63-.38-1.44-.14-1.77.51l-.39.77c-.25.48-.15 1.06.23 1.44l.98.98c.29.29.29.76 0 1.06 -.3.29-.77.29-1.07 0l-.99-.99c-.84-.84-1.05-2.12-.52-3.18l.38-.78c.71-1.44 2.5-1.96 3.87-1.13l.14.08 2.58-2.59c.29-.3.76-.3 1.06 0Z"/></g></svg>