<svg viewBox="0 0 24 24" xmlns="http://www.w3.org/2000/svg"><g fill-rule="evenodd"><path d="M15.964 19.71c.93 1.45 3.09 1.33 3.86-.21 .31-.64.31-1.4-.02-2.03L14.14 6.63c-.16-.31-.51-.47-.85-.39 -.34.08-.58.38-.58.72v7.5c0 .14.04.28.11.4l3.09 4.81Zm2.52-.88c-.26.5-.96.54-1.27.06l-2.98-4.63v-4.23l4.23 8.11c.1.2.11.45 0 .66Z"/><path d="M9.25 20.25c0 1.38 1.11 2.5 2.5 2.5 1.38 0 2.5-1.12 2.5-2.5V2c0-.42-.34-.75-.75-.75h-6C5.98 1.25 4.75 2.48 4.75 4v1c0 .41.33.75.75.75h3.75v8.21c0 .41.33.75.75.75 .41 0 .75-.34.75-.75V4.99c0-.42-.34-.75-.75-.75H6.25v-.25c0-.7.55-1.25 1.25-1.25h5.25v17.5c0 .55-.45 1-1 1 -.56 0-1-.45-1-1v-2.26c0-.42-.34-.75-.75-.75 -.42 0-.75.33-.75.75v2.25Z"/><path d="M4.75 7.5c0-.42.33-.75.75-.75H10c.41 0 .75.33.75.75v3c0 .41-.34.75-.75.75H8.5c-2.08 0-3.75-1.68-3.75-3.75Zm1.62.75c.3.87 1.14 1.5 2.12 1.5h.75v-1.5H6.36Z"/></g></svg>