<svg viewBox="0 0 24 24" xmlns="http://www.w3.org/2000/svg"><g fill-rule="evenodd"><path d="M1.25 2c0-.42.33-.75.75-.75h20c.41 0 .75.33.75.75v20c0 .41-.34.75-.75.75h-2.01c-.42 0-.75-.34-.75-.75 0-.42.33-.75.75-.75h1.25V2.75H2.74v18.5h13.17c.41 0 .75.33.75.75 0 .41-.34.75-.75.75H1.98c-.42 0-.75-.34-.75-.75V2Z"/><path d="M8.25 4.5c0-.42.33-.75.75-.75h6c.41 0 .75.33.75.75v3c0 .41-.34.75-.75.75H9c-.42 0-.75-.34-.75-.75v-3Zm1.5.75v1.5h4.5v-1.5h-4.5Z"/><path d="M4.12 7.84c.23-.14.51-.14.75 0l4.51 2.63c1.15.67 1.86 1.9 1.86 3.23v2.77c0 2.07-1.68 3.75-3.75 3.75 -2.08 0-3.75-1.68-3.75-3.75v-8c0-.27.14-.52.37-.66Zm1.12 1.95v6.69c0 1.24 1 2.25 2.25 2.25 1.24 0 2.25-1.01 2.25-2.25V13.7c0-.81-.43-1.55-1.12-1.95L5.23 9.77Z"/><path d="M19.87 7.84c-.24-.14-.52-.14-.76 0l-4.52 2.63c-1.16.67-1.87 1.9-1.87 3.23v2.77c0 2.07 1.67 3.75 3.75 3.75 2.07 0 3.75-1.68 3.75-3.75v-8c0-.27-.15-.52-.38-.66Zm-1.13 1.95v6.69c0 1.24-1.01 2.25-2.25 2.25 -1.25 0-2.25-1.01-2.25-2.25V13.7c0-.81.42-1.55 1.11-1.95l3.38-1.98Z"/></g></svg>