<svg viewBox="0 0 24 24" xmlns="http://www.w3.org/2000/svg"><g fill-rule="evenodd"><path d="M17.46 1.46c.29-.3.76-.3 1.06 0l4 4c.29.29.29.76 0 1.06l-2 2c-.3.29-.77.29-1.07 0l-4-4c-.3-.3-.3-.77 0-1.07l2-2Zm-.41 2.53l2.93 2.93 .93-.94 -2.94-2.94 -.94.93Z"/><path d="M20.03 6.96c.29.29.29.76 0 1.06l-2.5 2.49c-.15.14-.34.21-.54.21H14.3l-3.78 3.77c-.3.29-.77.29-1.07 0 -.3-.3-.3-.77 0-1.07l3.99-4c.14-.15.33-.22.53-.22h2.68l2.28-2.29c.29-.3.76-.3 1.06 0ZM7.55 16.43c.29.29.29.76 0 1.06l-2.03 2.02c-.3.29-.77.29-1.07 0 -.3-.3-.3-.77 0-1.07l2.02-2.03c.29-.3.76-.3 1.06 0Z"/><path d="M3.46 17.46c.29-.3.76-.3 1.06 0l2 2c.29.29.29.76 0 1.06l-2 2c-.3.29-.77.29-1.07 0l-2-2c-.3-.3-.3-.77 0-1.07l2-2Zm-.41 2.53l.93.93 .93-.94 -.94-.94 -.94.93Z"/><path d="M10.46 6.46c.29-.3.76-.3 1.06 0l3 3c.29.29.29.76 0 1.06 -.3.29-.77.29-1.07 0l-3-3c-.3-.3-.3-.77 0-1.07Z"/></g></svg>