<svg viewBox="0 0 24 24" xmlns="http://www.w3.org/2000/svg"><g fill-rule="evenodd"><path d="M1.25 3c0-.42.33-.75.75-.75h13.01c.41 0 .75.33.75.75 0 .41-.34.75-.75.75H2.74v11.5h18.5V3.75h-2.3c-.42 0-.75-.34-.75-.75 0-.42.33-.75.75-.75h3.04c.41 0 .75.33.75.75v13c0 .41-.34.75-.75.75h-20c-.42 0-.75-.34-.75-.75V3Z"/><path d="M1.25 16c0-.42.33-.75.75-.75h20c.41 0 .75.33.75.75v5c0 .41-.34.75-.75.75H2c-.42 0-.75-.34-.75-.75v-5Zm1.5.75v3.5h18.5v-3.5H2.75Z"/><path d="M10.07 4.75c.29.03.55.23.63.52l1.85 5.94 1.72-4.49c.1-.28.36-.47.66-.48 .29-.02.57.14.7.41l1.29 2.58h2.03c.41 0 .75.33.75.74s-.34.75-.75.75h-2.5c-.29 0-.55-.17-.68-.42l-.74-1.48 -1.89 4.91c-.12.29-.41.49-.73.48 -.32-.02-.6-.23-.7-.53L9.73 7.34l-1.66 2.97c-.14.23-.39.38-.66.38h-2.5c-.42 0-.75-.34-.75-.75 0-.42.33-.75.75-.75h2.05l2.28-4.12c.14-.27.43-.42.73-.39Z"/><path d="M3.75 18.5c0-.42.33-.75.75-.75h2c.41 0 .75.33.75.75 0 .41-.34.75-.75.75h-2c-.42 0-.75-.34-.75-.75Z"/><path d="M8.25 18.5c0-.42.33-.75.75-.75h2c.41 0 .75.33.75.75 0 .41-.34.75-.75.75H9c-.42 0-.75-.34-.75-.75Z"/></g></svg>