<svg viewBox="0 0 24 24" xmlns="http://www.w3.org/2000/svg"><g fill-rule="evenodd"><path d="M6 2.75c-1.52 0-2.75 1.23-2.75 2.75v7.42c0 .41-.34.75-.75.75 -.42 0-.75-.34-.75-.75V5.49c0-2.35 1.9-4.25 4.25-4.25h4c.41 0 .75.33.75.75v5c0 .41-.34.75-.75.75H8c-.7 0-1.25.55-1.25 1.25v6c0 .69.55 1.25 1.25 1.25h2c.41 0 .75.33.75.75v5c0 .41-.34.75-.75.75H6c-2.35 0-4.25-1.91-4.25-4.25v-1.5c0-.42.33-.75.75-.75 .41 0 .75.33.75.75v1.5c0 1.51 1.23 2.75 2.75 2.75h3.25v-3.5H8c-1.52 0-2.75-1.24-2.75-2.75v-6c0-1.52 1.23-2.75 2.75-2.75h1.25v-3.5H6Z"/><path d="M16.5 6.75c-2.35 0-4.25 1.9-4.25 4.25 0 1.189.48 2.26 1.27 3.03 .14.14.22.33.22.53v1.63l1.6-.92c.14-.09.31-.12.48-.09 .21.03.43.05.65.05 2.34 0 4.25-1.91 4.25-4.25 0-2.35-1.91-4.25-4.25-4.25ZM10.75 11c0-3.18 2.57-5.75 5.75-5.75 3.17 0 5.75 2.57 5.75 5.75 0 3.17-2.58 5.75-5.75 5.75 -.21 0-.42-.02-.62-.04l-2.51 1.43c-.24.13-.52.13-.75-.01 -.24-.14-.38-.39-.38-.65v-2.63c-.94-1.03-1.5-2.39-1.5-3.88Z"/><path d="M16.5 7.75c.41 0 .75.33.75.75v5c0 .41-.34.75-.75.75 -.42 0-.75-.34-.75-.75v-5c0-.42.33-.75.75-.75Z"/><path d="M13.25 11c0-.42.33-.75.75-.75h5c.41 0 .75.33.75.75 0 .41-.34.75-.75.75h-5c-.42 0-.75-.34-.75-.75Z"/></g></svg>