<svg viewBox="0 0 24 24" xmlns="http://www.w3.org/2000/svg"><g fill-rule="evenodd"><path d="M1.25 2c0-.42.33-.75.75-.75h2.03c.41 0 .75.33.75.75 0 .41-.34.75-.75.75H2.74v8h10.5v-8H7.97c-.42 0-.75-.34-.75-.75 0-.42.33-.75.75-.75h6.01c.41 0 .75.33.75.75v9.5c0 .41-.34.75-.75.75h-12c-.42 0-.75-.34-.75-.75V2Z"/><path d="M13.25 2c0-.42.33-.75.75-.75h8c.41 0 .75.33.75.75v9.5c0 .41-.34.75-.75.75h-8c-.42 0-.75-.34-.75-.75V2Zm1.5.75v8h6.5v-8h-6.5Z"/><path d="M4.5 22.75c-.42 0-.75-.34-.75-.75v-4c0-.42.33-.75.75-.75H11c.23 0 .45.11.6.3l1.5 2c.2.26.2.63 0 .9l-1.5 2c-.15.18-.37.3-.6.3H4.5Zm.75-1.5h5.375l.93-1.25 -.94-1.25H5.24v2.5Z"/><path d="M4.5 10.75c-.42 0-.75.33-.75.75v.5c0 2.07 1.67 3.75 3.75 3.75h10c.96 0 1.75.78 1.75 1.75 0 .96-.79 1.75-1.75 1.75h-5c-.42 0-.75.33-.75.75 0 .41.33.75.75.75h5c1.79 0 3.25-1.46 3.25-3.25 0-1.8-1.46-3.25-3.25-3.25h-10c-1.25 0-2.25-1.01-2.25-2.25v-.5c0-.42-.34-.75-.75-.75Z"/><path d="M18 5.75c-.7 0-1.25.55-1.25 1.25 0 .69.55 1.25 1.25 1.25 .69 0 1.25-.56 1.25-1.25 0-.7-.56-1.25-1.25-1.25ZM15.25 7c0-1.52 1.23-2.75 2.75-2.75 1.51 0 2.75 1.23 2.75 2.75 0 1.51-1.24 2.75-2.75 2.75 -1.52 0-2.75-1.24-2.75-2.75Z"/></g></svg>