<svg viewBox="0 0 24 24" xmlns="http://www.w3.org/2000/svg"><g fill-rule="evenodd"><path d="M16 2.75c-2.9 0-5.25 2.35-5.25 5.25 0 .53.07 1.04.22 1.52 .08.26 0 .55-.19.74l-1.23 1.22 2.93 2.93 1.22-1.23c.19-.2.48-.27.74-.19 .48.14.99.22 1.52.22 2.89 0 5.25-2.36 5.25-5.25 0-2.9-2.36-5.25-5.25-5.25ZM9.25 8c0-3.73 3.02-6.75 6.75-6.75 3.72 0 6.75 3.02 6.75 6.75 0 3.72-3.03 6.75-6.75 6.75 -.53 0-1.03-.06-1.52-.18l-1.46 1.45c-.3.29-.77.29-1.07 0l-4.01-4c-.15-.15-.22-.34-.22-.54s.07-.39.21-.54l1.45-1.46c-.12-.49-.18-1-.18-1.52Z"/><path d="M9.5 11.75c.19 0 .38.07.53.21l2 2c.29.29.29.76 0 1.06l-6.51 6.5 -.54-.54 .53.53c-.85.84-2.22.84-3.07 0 -.85-.85-.85-2.22 0-3.07l.96-.97c.29-.3.76-.3 1.06 0 .29.29.29.76 0 1.06l-.97.97c-.26.25-.26.68 0 .93l-.54.53 .53-.54c.25.25.67.25.93 0l5.96-5.97 -.94-.94 -2.01 2c-.3.29-.77.29-1.07 0 -.3-.3-.3-.77 0-1.07l2.53-2.54c.14-.15.33-.22.53-.22Z"/></g></svg>