<svg viewBox="0 0 24 24" xmlns="http://www.w3.org/2000/svg"><path fill-rule="evenodd" d="M9.84 2.91c1.23-1.1 3.08-1.1 4.31 0l1.32 1.18c1.12.99 1.76 2.42 1.76 3.92v7.95c0 .41-.34.75-.75.75 -.42 0-.75-.34-.75-.75V8c0-1.08-.46-2.1-1.26-2.81L13.14 4c-.67-.59-1.67-.59-2.33 0L9.48 5.18c-.81.71-1.26 1.73-1.26 2.8v7.95c0 1.07.45 2.09 1.25 2.8l1.32 1.18c.66.58 1.66.58 2.32 0l1.32-1.19c.3-.28.78-.25 1.05.06 .27.3.24.78-.07 1.05l-1.33 1.18c-1.24 1.09-3.09 1.09-4.32 0l-1.33-1.19c-1.13-1-1.77-2.43-1.77-3.93V7.93C6.66 6.43 7.3 5 8.42 4l1.32-1.19Zm2.12 2.05c.29-.3.76-.3 1.06 0l.18.18c.98.98 1.53 2.31 1.53 3.71v6.13c0 .41-.34.75-.75.75 -.42 0-.75-.34-.75-.75V8.84c0-1-.4-1.95-1.1-2.66l-.19-.19c-.3-.3-.3-.77 0-1.07Z"/></svg>