<svg viewBox="0 0 24 24" xmlns="http://www.w3.org/2000/svg"><g fill-rule="evenodd"><path d="M19.7 5.25c-1.98-1.92-5.13-2.01-7.22-.27 -.15.11-.32.17-.5.17s-.35-.06-.5-.18c-2.09-1.74-5.24-1.65-7.22.26 -1.97 1.9-2.06 4.92-.28 6.93 .02.02.04.05.06.08l3.44 3.34c.29.28.3.76.01 1.06 -.29.29-.77.3-1.07.01l-3.57-3.46c-.06-.06-.11-.12-.14-.19 -2.2-2.61-2.04-6.46.46-8.88 2.38-2.32 6.09-2.55 8.75-.71 2.65-1.85 6.36-1.62 8.75.7 2.49 2.42 2.65 6.27.46 8.87 -.04.06-.09.12-.14.18l-8.56 8.3c-.3.28-.76.28-1.05 0l-1.82-1.77c-.3-.29-.31-.77-.02-1.07 .28-.3.76-.31 1.06-.02l1.29 1.25 7.91-7.69c.01-.03.04-.06.06-.09 1.77-2.01 1.686-5.03-.28-6.94Z"/><path d="M9.75 7c0-.42.33-.75.75-.75h3c.41 0 .75.33.75.75v2.25h2.25c.41 0 .75.33.75.75v3c0 .41-.34.75-.75.75h-2.25V16c0 .41-.34.75-.75.75h-3c-.42 0-.75-.34-.75-.75v-2.25H7.5c-.42 0-.75-.34-.75-.75v-3c0-.42.33-.75.75-.75h2.25V7Zm1.5.75V10c0 .41-.34.75-.75.75H8.25v1.5h2.25c.41 0 .75.33.75.75v2.25h1.5V13c0-.42.33-.75.75-.75h2.25v-1.5H13.5c-.42 0-.75-.34-.75-.75V7.75h-1.5Z"/></g></svg>