<svg viewBox="0 0 24 24" xmlns="http://www.w3.org/2000/svg"><g fill-rule="evenodd"><path d="M4.09 12.01c.99-1.13 2.42-1.77 3.92-1.77h7.95c1.49 0 2.92.64 3.92 1.76l1.18 1.32c1.09 1.23 1.09 3.08 0 4.31 -.28.3-.75.33-1.06.06 -.31-.28-.34-.75-.07-1.06 .58-.67.58-1.67 0-2.33l-1.19-1.33c-.72-.81-1.74-1.26-2.81-1.26H7.97c-1.08 0-2.1.45-2.81 1.25l-1.19 1.32c-.59.66-.59 1.66 0 2.32l1.18 1.32c.71.8 1.73 1.25 2.8 1.25h7.95c.29 0 .58-.04.86-.11 .4-.1.8.15.9.55 .09.4-.16.8-.56.9 -.4.09-.81.14-1.22.14H7.92c-1.5 0-2.93-.65-3.93-1.77L2.8 17.55c-1.1-1.24-1.1-3.09 0-4.32l1.18-1.33Z"/><path d="M15.75 13.5c0-.42-.34-.75-.75-.75H8.86c-1.4 0-2.73.55-3.72 1.53l-.19.18c-.3.29-.3.76 0 1.06 .29.29.76.29 1.06 0l.18-.19c.7-.71 1.65-1.1 2.65-1.1h6.13c.41 0 .75-.34.75-.75Z"/><path d="M6.75 4c0-.42.33-.75.75-.75h3c2.07 0 3.75 1.67 3.75 3.75v1c0 .41-.34.75-.75.75h-3C8.42 8.75 6.75 7.07 6.75 5V4Zm1.5.75V5c0 1.24 1 2.25 2.25 2.25h2.25V7c0-1.25-1.01-2.25-2.25-2.25H8.25Z"/><path d="M15.5 6.25c-.7 0-1.25.55-1.25 1.25V8c0 .41-.34.75-.75.75 -.42 0-.75-.34-.75-.75v-.5c0-1.52 1.23-2.75 2.75-2.75h1c.41 0 .75.33.75.75 0 .41-.34.75-.75.75h-1Z"/></g></svg>