<svg viewBox="0 0 24 24" xmlns="http://www.w3.org/2000/svg"><g fill-rule="evenodd"><path d="M1.25 15.5c0-2.9 2.35-5.25 5.25-5.25h11c1.1 0 2.13.34 2.97.92 .34.23.42.7.19 1.04 -.24.34-.71.42-1.05.19 -.61-.42-1.34-.67-2.13-.67h-11c-2.08 0-3.75 1.67-3.75 3.75 0 2.07 1.67 3.75 3.75 3.75h11c2.07 0 3.75-1.68 3.75-3.75 0-.42.33-.75.75-.75 .41 0 .75.33.75.75 0 2.89-2.36 5.25-5.25 5.25h-11c-2.9 0-5.25-2.36-5.25-5.25Z"/><path d="M12 18.75c-.42 0-.75-.34-.75-.75v-5c0-.42.33-.75.75-.75 .41 0 .75.33.75.75v5c0 .41-.34.75-.75.75Z"/><path d="M6.75 4c0-.42.33-.75.75-.75h3c2.07 0 3.75 1.67 3.75 3.75v1c0 .41-.34.75-.75.75h-3C8.42 8.75 6.75 7.07 6.75 5V4Zm1.5.75V5c0 1.24 1 2.25 2.25 2.25h2.25V7c0-1.25-1.01-2.25-2.25-2.25H8.25Z"/><path d="M15.5 6.25c-.7 0-1.25.55-1.25 1.25V8c0 .41-.34.75-.75.75 -.42 0-.75-.34-.75-.75v-.5c0-1.52 1.23-2.75 2.75-2.75h1c.41 0 .75.33.75.75 0 .41-.34.75-.75.75h-1Z"/></g></svg>