<svg viewBox="0 0 24 24" xmlns="http://www.w3.org/2000/svg"><g fill-rule="evenodd"><path d="M1.25 2c0-.42.33-.75.75-.75h20c.41 0 .75.33.75.75v11.99c0 .41-.34.75-.75.75 -.42 0-.75-.34-.75-.75V2.74H2.75v18.5h18.5v-3.3c0-.42.33-.75.75-.75 .41 0 .75.33.75.75v4.04c0 .41-.34.75-.75.75H2c-.42 0-.75-.34-.75-.75v-20Z"/><path d="M5.25 5c0-.42.33-.75.75-.75h4c.41 0 .75.33.75.75v4.25h2.5V5c0-.42.33-.75.75-.75h4c.41 0 .75.33.75.75v14c0 .41-.34.75-.75.75h-4c-.42 0-.75-.34-.75-.75v-4.25h-2.5V19c0 .41-.34.75-.75.75H6c-.42 0-.75-.34-.75-.75V5Zm1.5.75v12.5h2.5V14c0-.42.33-.75.75-.75h4c.41 0 .75.33.75.75v4.25h2.5V5.75h-2.5V10c0 .41-.34.75-.75.75h-4c-.42 0-.75-.34-.75-.75V5.75h-2.5Z"/></g></svg>