<svg viewBox="0 0 24 24" xmlns="http://www.w3.org/2000/svg"><g fill-rule="evenodd"><path d="M4.25 7c0-1.52 1.23-2.75 2.75-2.75h10c1.51 0 2.75 1.23 2.75 2.75v10c0 1.51-1.24 2.75-2.75 2.75H7c-1.52 0-2.75-1.24-2.75-2.75v-.99c0-.42.33-.75.75-.75 .41 0 .75.33.75.75v.98c0 .69.55 1.25 1.25 1.25h10c.69 0 1.25-.56 1.25-1.25v-10c0-.7-.56-1.25-1.25-1.25H7c-.7 0-1.25.55-1.25 1.25v5.08c0 .41-.34.75-.75.75 -.42 0-.75-.34-.75-.75V6.98Z"/><path d="M8.75 19c0-.42.33-.75.75-.75h5c.41 0 .75.33.75.75v3c0 .41-.34.75-.75.75h-5c-.42 0-.75-.34-.75-.75v-3Zm1.5.75v1.5h3.5v-1.5h-3.5Z"/><path d="M9.75 3.5c0-1.25 1-2.25 2.25-2.25 1.24 0 2.25 1 2.25 2.25V5c0 .41-.34.75-.75.75h-3c-.42 0-.75-.34-.75-.75V3.5ZM12 2.75c-.42 0-.75.33-.75.75v.75h1.5V3.5c0-.42-.34-.75-.75-.75Z"/><path d="M11.46 11.53c-.67-.67-1.69-.84-2.54-.42l-.69.34v4.28h7.5v-3.54l-.02 0c-1.43.71-3.14.43-4.27-.7ZM8.25 9.77c1.42-.72 3.13-.44 4.26.69 .66.66 1.68.83 2.53.41l1.1-.56c.23-.12.5-.11.72.03 .22.13.35.37.35.63v5.5c0 .41-.34.75-.75.75h-9c-.42 0-.75-.34-.75-.75v-5.5c0-.29.16-.55.41-.68l1.1-.56Z"/></g></svg>