<svg viewBox="0 0 24 24" xmlns="http://www.w3.org/2000/svg"><g fill-rule="evenodd"><path d="M15.571 8.81c-1.05-2.09.45-4.57 2.8-4.57 1.28 0 2.44.78 2.92 1.97 .15.38-.04.82-.42.97 -.39.15-.83-.04-.98-.42 -.25-.63-.86-1.04-1.53-1.04 -1.22 0-2.02 1.29-1.47 2.39 .58 1.16.58 2.54 0 3.7 -.56 1.1.24 2.39 1.46 2.39 .67 0 1.27-.41 1.52-1.04l.31-.79c.31-.8.47-1.63.46-2.47 -.01-.42.33-.76.74-.76 .41-.01.75.33.75.74 0 1.02-.19 2.05-.58 3.02l-.32.78c-.48 1.19-1.64 1.97-2.93 1.97 -2.35 0-3.85-2.49-2.81-4.57 .36-.74.36-1.63 0-2.37Z"/><path d="M2.7 6.22c.47-1.2 1.63-1.98 2.92-1.98 2.34 0 3.84 2.48 2.8 4.56 -.37.73-.37 1.62 0 2.36 1.04 2.08-.46 4.56-2.81 4.56 -1.29 0-2.45-.79-2.93-1.98l-.32-.79c-.77-1.92-.77-4.06 0-5.98l.31-.79Zm2.92-.48c-.68 0-1.28.4-1.53 1.03l-.32.78c-.63 1.55-.63 3.29 0 4.85l.31.78c.25.62.85 1.03 1.52 1.03 1.21 0 2.01-1.3 1.46-2.4 -.59-1.17-.59-2.55 0-3.71 .55-1.11-.25-2.4-1.47-2.4Z"/><path d="M17.21 9.76c.13.39-.09.81-.48.94l-1.64.54c-.52.17-.86.64-.86 1.18v6.55c0 .41-.34.75-.75.75 -.42 0-.75-.34-.75-.75v-6.56c0-1.19.75-2.24 1.88-2.61l1.63-.55c.39-.14.81.08.94.47Z"/><path d="M6.78 9.76c-.14.39.08.81.47.94l1.63.54c.51.17.85.64.85 1.18v6.55c0 .41.33.75.75.75 .41 0 .75-.34.75-.75v-6.56c0-1.19-.76-2.24-1.89-2.61L7.7 9.25c-.4-.14-.82.08-.95.47Z"/></g></svg>