<svg viewBox="0 0 24 24" xmlns="http://www.w3.org/2000/svg"><g fill-rule="evenodd"><path d="M1.25 11.5c0-2.9 2.35-5.25 5.25-5.25H15c.41 0 .75.33.75.75v5.52c0 1.2-.79 2.27-1.95 2.62l-4.61 1.41c-.4.12-.82-.11-.94-.5 -.13-.4.1-.82.49-.94l4.6-1.42c.52-.17.88-.65.88-1.2V7.71H6.47c-2.08 0-3.75 1.67-3.75 3.75v5.48l2.04-.63c.39-.13.81.1.93.49s-.11.81-.5.93l-3.02.92c-.23.07-.48.02-.67-.12 -.2-.15-.31-.37-.31-.61v-6.5Z"/><path d="M14.25 7c0-.42.33-.75.75-.75h5.24c1.38 0 2.5 1.12 2.5 2.5 0 1.06-.67 2-1.67 2.36l-5.84 2.08c-.23.08-.49.04-.69-.1 -.2-.15-.32-.37-.32-.62v-5.5Zm1.5.75v3.68l4.82-1.73c.4-.15.67-.53.67-.96 0-.56-.46-1.01-1.01-1.01h-4.5Z"/></g></svg>