<svg viewBox="0 0 24 24" xmlns="http://www.w3.org/2000/svg"><g fill-rule="evenodd"><path d="M10 2.75c-1.25 0-2.25 1-2.25 2.25v1c0 .41-.34.75-.75.75 -.42 0-.75-.34-.75-.75V4.99c0-2.08 1.67-3.75 3.75-3.75 2.07 0 3.75 1.67 3.75 3.75v8.82c.92.94 1.5 2.24 1.5 3.67 0 2.89-2.36 5.25-5.25 5.25 -2.9 0-5.25-2.36-5.25-5.25 0-1.44.57-2.73 1.5-3.68V9.98c0-.42.33-.75.75-.75 .41 0 .75.33.75.74v3.99c0 .03 0 .07 0 .1 .01.22-.09.44-.25.59 -.78.68-1.26 1.68-1.26 2.79 0 2.07 1.67 3.75 3.75 3.75 2.07 0 3.75-1.68 3.75-3.75 0-1.12-.49-2.11-1.26-2.8 -.17-.16-.27-.37-.25-.6 0-.04 0-.08 0-.11v-9c0-1.25-1.01-2.25-2.25-2.25Z"/><path d="M10 16.25c-.7 0-1.25.55-1.25 1.25 0 .69.55 1.25 1.25 1.25 .69 0 1.25-.56 1.25-1.25 0-.7-.56-1.25-1.25-1.25ZM7.25 17.5c0-1.52 1.23-2.75 2.75-2.75 1.51 0 2.75 1.23 2.75 2.75 0 1.51-1.24 2.75-2.75 2.75 -1.52 0-2.75-1.24-2.75-2.75Z"/><path d="M14.75 13c0-.42.33-.75.75-.75h3c.41 0 .75.33.75.75 0 .41-.34.75-.75.75h-3c-.42 0-.75-.34-.75-.75Z"/><path d="M14.75 8c0-.42.33-.75.75-.75h3c.41 0 .75.33.75.75 0 .41-.34.75-.75.75h-3c-.42 0-.75-.34-.75-.75Z"/><path d="M14.75 10.5c0-.42.33-.75.75-.75H17c.41 0 .75.33.75.75 0 .41-.34.75-.75.75h-1.5c-.42 0-.75-.34-.75-.75Z"/><path d="M14.75 5.5c0-.42.33-.75.75-.75H17c.41 0 .75.33.75.75 0 .41-.34.75-.75.75h-1.5c-.42 0-.75-.34-.75-.75Z"/><path d="M10 11.25c.41 0 .75.33.75.75v3.5c0 .41-.34.75-.75.75 -.42 0-.75-.34-.75-.75V12c0-.42.33-.75.75-.75Z"/></g></svg>