<svg viewBox="0 0 24 24" xmlns="http://www.w3.org/2000/svg"><g fill-rule="evenodd"><path d="M6.35 3.11c.13-.23.38-.37.64-.37h10c.26 0 .51.14.64.36l5 8.49c.13.23.13.52 0 .76l-5 8.5c-.14.22-.39.36-.65.36h-10c-.27 0-.52-.15-.65-.37l-.92-1.55c-.22-.36-.1-.82.26-1.03 .35-.21.81-.1 1.02.26l.69 1.17h9.14l4.55-7.75 -4.56-7.75H7.36L2.8 11.94 4.6 15c.21.35.09.81-.27 1.02 -.36.21-.82.09-1.03-.27L1.27 12.3c-.14-.24-.14-.53-.001-.77l5-8.5Z"/><path d="M9.74 6c0-.42.33-.75.75-.75h3c.41 0 .75.33.75.75v2.1l1.82-1.06c.35-.21.81-.09 1.02.27l1.5 2.59c.2.35.08.81-.28 1.02l-1.83 1.05 1.82 1.05c.17.09.29.26.34.45 .05.19.02.39-.08.56l-1.5 2.59c-.1.17-.27.29-.46.34 -.2.05-.4.02-.57-.08l-1.83-1.06v2.1c0 .41-.34.75-.75.75h-3c-.42 0-.76-.34-.76-.75v-2.11l-1.83 1.05c-.18.09-.38.12-.57.07 -.2-.06-.36-.18-.46-.35l-1.5-2.6c-.21-.36-.09-.82.27-1.03l1.82-1.06 -1.83-1.06c-.36-.21-.49-.67-.28-1.03l1.5-2.6c.2-.36.66-.49 1.02-.28l1.82 1.05V5.86Zm1.5.75V9.4c0 .26-.15.51-.375.64 -.24.13-.52.13-.75 0l-2.3-1.33 -.75 1.29 2.29 1.32c.23.13.375.38.375.64s-.15.51-.375.64l-2.3 1.32 .75 1.29 2.29-1.33c.23-.14.51-.14.75 0 .23.13.375.38.375.64v2.65h1.5v-2.66c0-.27.14-.52.375-.65 .23-.14.51-.14.75 0l2.29 1.32 .75-1.3 -2.3-1.33c-.24-.14-.375-.39-.375-.65 0-.27.14-.52.375-.65l2.29-1.33 -.75-1.3 -2.3 1.32c-.24.13-.52.13-.75 0 -.24-.14-.375-.39-.375-.65V6.63h-1.5Z"/></g></svg>