<svg viewBox="0 0 24 24" xmlns="http://www.w3.org/2000/svg"><g fill-rule="evenodd"><path d="M4.75 9.5c0-4.56 3.69-8.25 8.25-8.25 4.55 0 8.25 3.69 8.25 8.25 0 2.32-.97 4.42-2.51 5.92l.45 4.05c.06.62-.35 1.21-.96 1.35l-1.09.25c-.41.09-.81-.16-.91-.56 -.1-.41.15-.81.55-.91l.87-.21 -.44-3.96c-.05-.41.11-.8.39-1.07 1.3-1.24 2.11-2.98 2.11-4.91 0-3.73-3.03-6.75-6.75-6.75 -3.73 0-6.76 3.02-6.76 6.75 0 .14 0 .29.01.44 .01.17-.04.33-.13.47l-1.59 3.57 1.25.31c.55.13.94.63.94 1.21v2.48c0 .13.11.25.25.25H9.2c.64 0 1.18.49 1.24 1.13l.15 1.68 2.16-.52c.4-.1.8.15.9.55 .09.4-.16.8-.56.9l-2.45.57c-.74.17-1.47-.35-1.54-1.11l-.16-1.75H6.89c-.97 0-1.75-.79-1.75-1.75v-2.29l-1.36-.34c-.76-.19-1.16-1.02-.84-1.73l1.7-3.83c-.01-.11-.01-.22-.01-.33Z"/><path d="M12 5.75c-1.25 0-2.25 1-2.25 2.25v2c0 1.24 1 2.25 2.25 2.25h4.34c.41 0 .75.33.75.75 0 .41-.34.75-.75.75h-4.35c-2.08 0-3.75-1.68-3.75-3.75V8c0-2.08 1.67-3.75 3.75-3.75h1.59c1.93 0 3.5 1.56 3.5 3.5v.32c0 1.75-1.43 3.17-3.18 3.17 -1.76 0-3.18-1.43-3.18-3.18v-.08c0-.42.33-.75.75-.75 .41 0 .75.33.75.75v.07c0 .92.74 1.67 1.67 1.67 .92 0 1.67-.75 1.67-1.68v-.33c0-1.11-.9-2-2-2h-1.6Z"/></g></svg>