<svg viewBox="0 0 24 24" xmlns="http://www.w3.org/2000/svg"><g fill-rule="evenodd"><path d="M9.25 7c0-.42.33-.75.75-.75h4c.41 0 .75.33.75.75v2.25H17c.41 0 .75.33.75.75v4c0 .41-.34.75-.75.75h-2.25V17c0 .41-.34.75-.75.75h-4c-.42 0-.75-.34-.75-.75v-2.25H7c-.42 0-.75-.34-.75-.75v-4c0-.42.33-.75.75-.75h2.25V7Zm1.5.75V10c0 .41-.34.75-.75.75H7.75v2.5H10c.41 0 .75.33.75.75v2.25h2.5V14c0-.42.33-.75.75-.75h2.25v-2.5H14c-.42 0-.75-.34-.75-.75V7.75h-2.5Z"/><path d="M11.6 1.364c.23-.15.52-.16.76-.02l4.33 2.4h3.8c.41 0 .75.33.75.75v9.64c0 2.03-1.08 3.923-2.84 4.95 -.36.21-.82.09-1.03-.27 -.21-.36-.1-.82.26-1.03 1.29-.77 2.09-2.16 2.09-3.67v-8.9h-3.25c-.13 0-.26-.04-.37-.1l-4.12-2.29 -3.63 2.26c-.12.07-.26.11-.4.11H4.2v8.89c0 1.5.79 2.89 2.09 3.66l5.65 3.32 1.61-.95c.35-.21.81-.1 1.02.26 .21.35.09.81-.27 1.02l-2 1.17c-.24.13-.53.13-.77 0l-6.04-3.56c-1.76-1.04-2.84-2.92-2.84-4.96v-9.65c0-.42.33-.75.75-.75h4.28l3.81-2.39Z"/></g></svg>