<svg viewBox="0 0 24 24" xmlns="http://www.w3.org/2000/svg"><g fill-rule="evenodd"><path d="M9.25 7c0-.42.33-.75.75-.75h4c.41 0 .75.33.75.75v2.25H17c.41 0 .75.33.75.75v4c0 .41-.34.75-.75.75h-2.25V17c0 .41-.34.75-.75.75h-4c-.42 0-.75-.34-.75-.75v-2.25H7c-.42 0-.75-.34-.75-.75v-4c0-.42.33-.75.75-.75h2.25V7Zm1.5.75V10c0 .41-.34.75-.75.75H7.75v2.5H10c.41 0 .75.33.75.75v2.25h2.5V14c0-.42.33-.75.75-.75h2.25v-2.5H14c-.42 0-.75-.34-.75-.75V7.75h-2.5Z"/><path d="M11.78 1.28c.13-.05.28-.05.42 0l8.5 2.5c.31.09.53.38.53.71v9.64c0 2.03-1.08 3.923-2.84 4.95 -.36.21-.82.09-1.03-.27 -.21-.36-.1-.82.26-1.03 1.29-.77 2.09-2.16 2.09-3.67V5.03l-7.75-2.28 -7.75 2.27v9.07c0 1.5.79 2.89 2.09 3.66l5.65 3.32 1.66-.98c.35-.21.81-.1 1.02.26 .21.35.09.81-.27 1.02l-2.05 1.2c-.24.13-.53.13-.77 0L5.5 19.01c-1.76-1.04-2.84-2.92-2.84-4.96V4.4c0-.34.21-.63.53-.72l8.5-2.5Z"/></g></svg>