<svg viewBox="0 0 24 24" xmlns="http://www.w3.org/2000/svg"><g fill-rule="evenodd"><path d="M12 2.75c-5.11 0-9.25 4.14-9.25 9.25 0 5.1 4.14 9.25 9.25 9.25 .62 0 1.22-.07 1.81-.18 .4-.09.8.18.88.58 .08.4-.19.8-.59.88 -.69.13-1.39.2-2.11.2 -5.94 0-10.75-4.82-10.75-10.75 0-5.94 4.81-10.75 10.75-10.75 5.93 0 10.75 4.81 10.75 10.75 0 3.49-1.68 6.6-4.27 8.57 -.34.25-.81.18-1.06-.15 -.26-.33-.19-.81.14-1.06 2.22-1.7 3.66-4.37 3.66-7.38 0-5.11-4.15-9.25-9.25-9.25Z"/><path d="M9.25 7c0-.42.33-.75.75-.75h4c.41 0 .75.33.75.75v2.25H17c.41 0 .75.33.75.75v4c0 .41-.34.75-.75.75h-2.25V17c0 .41-.34.75-.75.75h-4c-.42 0-.75-.34-.75-.75v-2.25H7c-.42 0-.75-.34-.75-.75v-4c0-.42.33-.75.75-.75h2.25V7Zm1.5.75V10c0 .41-.34.75-.75.75H7.75v2.5H10c.41 0 .75.33.75.75v2.25h2.5V14c0-.42.33-.75.75-.75h2.25v-2.5H14c-.42 0-.75-.34-.75-.75V7.75h-2.5Z"/></g></svg>