<svg viewBox="0 0 24 24" xmlns="http://www.w3.org/2000/svg"><g fill-rule="evenodd"><path d="M11.6 6.36c.24-.16.55-.16.79 0l3.87 2.42 2.85.47c.36.06.62.37.62.73v4.88c0 1.29-.91 2.41-2.18 2.68l-5.42 1.16c-.11.02-.22.02-.32 0l-2.01-.43c-.41-.09-.67-.49-.58-.9 .08-.41.48-.67.89-.58l1.84.39 5.26-1.13c.57-.13.98-.64.98-1.23v-4.25l-2.38-.4c-.1-.02-.2-.06-.28-.11L11.92 7.8l-3.61 2.25c-.09.05-.18.08-.28.1l-2.38.39v4.24c0 .58.41 1.09.98 1.22 .4.08.66.48.57.89 -.09.4-.49.66-.9.57 -1.27-.28-2.18-1.4-2.18-2.69V9.88c0-.37.26-.68.62-.74l2.85-.48 3.87-2.43Z"/><path d="M1.25 12c0-1.52 1.23-2.75 2.75-2.75h1c.41 0 .75.33.75.75v5.5c0 .41-.34.75-.75.75H4c-1.52 0-2.75-1.24-2.75-2.75V12ZM4 10.75c-.7 0-1.25.55-1.25 1.25v1.5c0 .69.55 1.25 1.25 1.25h.25v-4H4Z"/><path d="M22.75 12c0-1.52-1.24-2.75-2.75-2.75h-1c-.42 0-.75.33-.75.75v5.5c0 .41.33.75.75.75h1c1.51 0 2.75-1.24 2.75-2.75V12ZM20 10.75c.69 0 1.25.55 1.25 1.25v1.5c0 .69-.56 1.25-1.25 1.25h-.25v-4H20Z"/><path d="M14.5 12.75c-.42 0-.75.33-.75.75 0 .41.33.75.75.75 .41 0 .75-.34.75-.75 0-.42-.34-.75-.75-.75Zm-2.25.75c0-1.25 1-2.25 2.25-2.25 1.24 0 2.25 1 2.25 2.25 0 1.24-1.01 2.25-2.25 2.25 -1.25 0-2.25-1.01-2.25-2.25Z"/></g></svg>