<svg viewBox="0 0 24 24" xmlns="http://www.w3.org/2000/svg"><g fill-rule="evenodd"><path d="M9.75 9c0-2.08 1.67-3.75 3.75-3.75h3c2.07 0 3.75 1.67 3.75 3.75v5c0 .8-.15 1.57-.41 2.29 -.15.38-.58.59-.97.45 -.39-.15-.6-.58-.46-.97 .2-.56.31-1.16.31-1.79v-5c0-1.25-1.01-2.25-2.25-2.25h-3c-1.25 0-2.25 1-2.25 2.25v3.01c0 1.19-.66 2.28-1.71 2.85l-3.39 1.83c-.57.3-.92.89-.92 1.53v3.01h.98c.5-1.21 1.68-2 3-2h4.26c.77 0 1.51-.17 2.17-.48 .37-.18.82-.01.99.37 .17.37 0 .82-.38.99 -.86.39-1.81.6-2.81.6H9.14c-.73 0-1.39.45-1.64 1.13l-.15.37c-.11.29-.39.48-.71.48H4.39c-.42 0-.75-.34-.75-.75v-3.77c0-1.2.65-2.29 1.7-2.86l3.38-1.84c.56-.31.91-.9.91-1.54V8.89Z"/><path d="M4.75 2c0-.42.33-.75.75-.75h3c.41 0 .75.33.75.75v2c0 .69.55 1.25 1.25 1.25h2.83c.41 0 .75.33.75.75 0 .41-.34.75-.75.75h-2.84C8.97 6.75 7.74 5.51 7.74 4V2.75h-1.5V5c0 2.07 1.67 3.75 3.75 3.75h.33c.41 0 .75.33.75.75 0 .41-.34.75-.75.75h-.34c-2.9 0-5.25-2.36-5.25-5.25V2Z"/></g></svg>