<svg viewBox="0 0 24 24" xmlns="http://www.w3.org/2000/svg"><g fill-rule="evenodd"><path d="M7.25 2c0-.42.33-.75.75-.75h2.02c.41 0 .75.33.75.75 0 .41-.34.75-.75.75H8.74v1.5h6.5v-1.5h-1.33c-.42 0-.75-.34-.75-.75 0-.42.33-.75.75-.75h2.07c.41 0 .75.33.75.75v3c0 .41-.34.75-.75.75h-8c-.42 0-.75-.34-.75-.75V2Z"/><path d="M8.25 5c0-.42.33-.75.75-.75h6c.41 0 .75.33.75.75v3c0 .41-.34.75-.75.75H9c-.42 0-.75-.34-.75-.75V5Zm1.5.75v1.5h4.5v-1.5h-4.5Z"/><path d="M12 7.25c.41 0 .75.33.75.75v9c0 .41-.34.75-.75.75 -.42 0-.75-.34-.75-.75V8c0-.42.33-.75.75-.75Z"/><path d="M12.51 16.45l-.52.54 -.52-.55c.28-.28.74-.28 1.03 0Zm-.52 1.62c-.14.14-.28.3-.42.48 -.24.28-.46.59-.62.87 -.17.3-.22.48-.22.56 0 .69.55 1.25 1.25 1.25 .69 0 1.25-.56 1.25-1.25 0-.08-.05-.27-.22-.57 -.16-.29-.38-.59-.62-.88 -.15-.18-.29-.35-.42-.49Zm-.52-1.63c0-.01 0 0 .51.54 .51-.55.51-.55.51-.55l0 0 0 0 .01.01c.01.01.03.03.06.06 .05.05.14.14.24.24 .19.2.46.49.72.81 .26.32.54.7.76 1.08 .2.36.4.82.4 1.3 0 1.51-1.24 2.75-2.75 2.75 -1.52 0-2.75-1.24-2.75-2.75 0-.48.2-.94.4-1.31 .21-.39.49-.77.76-1.09 .26-.33.53-.62.72-.82 .09-.11.18-.19.24-.25 .02-.03.05-.06.06-.07l.01-.02 0-.01 0-.01Z"/></g></svg>