<svg viewBox="0 0 24 24" xmlns="http://www.w3.org/2000/svg"><g fill-rule="evenodd"><path d="M9.75 13.5c0-2.9 2.35-5.25 5.25-5.25 2.89 0 5.25 2.35 5.25 5.25v1.48c0 .41-.34.75-.75.75 -.42 0-.75-.34-.75-.75v-1.49c0-2.08-1.68-3.75-3.75-3.75 -2.08 0-3.75 1.67-3.75 3.75v6.5c0 .69.55 1.25 1.25 1.25h5c.69 0 1.25-.56 1.25-1.25v-1.03c0-.42.33-.75.75-.75 .41 0 .75.33.75.75v1.02c0 1.51-1.24 2.75-2.75 2.75h-5c-1.52 0-2.75-1.24-2.75-2.75v-6.5Z"/><path d="M10.75 6c0-.42.33-.75.75-.75h7c.41 0 .75.33.75.75v3c0 .41-.34.75-.75.75h-7c-.42 0-.75-.34-.75-.75V6Zm1.5.75v1.5h5.5v-1.5h-5.5Z"/><path d="M12.25 2c0-.42.33-.75.75-.75h4c.41 0 .75.33.75.75v4c0 .41-.34.75-.75.75h-4c-.42 0-.75-.34-.75-.75V2Zm1.5.75v2.5h2.5v-2.5h-2.5Z"/><path d="M3.75 3.5c0-.42.33-.75.75-.75H13c.41 0 .75.33.75.75 0 .41-.34.75-.75.75H4.5c-.42 0-.75-.34-.75-.75Z"/><path d="M9.75 15c0-.42.33-.75.75-.75H15c.41 0 .75.33.75.75 0 .41-.34.75-.75.75h-4.5c-.42 0-.75-.34-.75-.75Z"/><path d="M9.75 18c0-.42.33-.75.75-.75H15c.41 0 .75.33.75.75 0 .41-.34.75-.75.75h-4.5c-.42 0-.75-.34-.75-.75Z"/></g></svg>