<svg viewBox="0 0 24 24" xmlns="http://www.w3.org/2000/svg"><g fill-rule="evenodd"><path d="M1.25 3c0-.42.33-.75.75-.75h3.03c.41 0 .75.33.75.75 0 .41-.34.75-.75.75H2.74v11.5h18.5V3.75H9.04c-.42 0-.75-.34-.75-.75 0-.42.33-.75.75-.75h12.94c.41 0 .75.33.75.75v13c0 .41-.34.75-.75.75h-20c-.42 0-.75-.34-.75-.75V3Z"/><path d="M1.25 16c0-.42.33-.75.75-.75h20c.41 0 .75.33.75.75v5c0 .41-.34.75-.75.75H2c-.42 0-.75-.34-.75-.75v-5Zm1.5.75v3.5h18.5v-3.5H2.75Z"/><path d="M3.75 18.5c0-.42.33-.75.75-.75h2c.41 0 .75.33.75.75 0 .41-.34.75-.75.75h-2c-.42 0-.75-.34-.75-.75Z"/><path d="M8.25 18.5c0-.42.33-.75.75-.75h2c.41 0 .75.33.75.75 0 .41-.34.75-.75.75H9c-.42 0-.75-.34-.75-.75Z"/><path d="M8.32 5.16c.16-.34.55-.5.9-.38l1.73.57c.66.22 1.38.22 2.05 0l1.73-.58c.35-.12.74.04.9.37l3 5.99c.09.19.1.42.02.62 -.09.2-.25.35-.46.42l-4.74 1.57c-.98.32-2.03.32-3.01 0L5.7 12.16c-.21-.07-.38-.23-.46-.43 -.09-.21-.08-.43.02-.63l3-6Zm1.05 1.25l-2.33 4.64 3.91 1.3c.66.22 1.38.22 2.05 0l3.91-1.31 -2.33-4.65 -1.12.37c-.98.32-2.03.32-3.01 0l-1.12-.38Z"/></g></svg>