<svg viewBox="0 0 24 24" xmlns="http://www.w3.org/2000/svg"><g fill-rule="evenodd"><path d="M1.25 4c0-.42.33-.75.75-.75h2.06c.41 0 .75.33.75.75 0 .41-.34.75-.75.75H2.74v11.5h18.5V4.75H7.9c-.42 0-.75-.34-.75-.75 0-.42.33-.75.75-.75h14.08c.41 0 .75.33.75.75v13c0 .41-.34.75-.75.75h-20c-.42 0-.75-.34-.75-.75V4Z"/><path d="M8.92 16.51c.14-.18.35-.27.57-.27h4.99c.22 0 .43.09.57.26l2.5 3c.18.22.22.53.1.79 -.13.26-.39.43-.68.43h-10c-.3 0-.56-.17-.68-.44 -.13-.27-.09-.58.1-.8l2.5-3Zm.92 1.23l-1.25 1.5h6.79l-1.25-1.5h-4.3Z"/><path d="M8.32 6.16c.16-.34.55-.5.9-.38l1.73.57c.66.22 1.38.22 2.05 0l1.73-.58c.35-.12.74.04.9.37l3 5.99c.09.19.1.42.02.62 -.09.2-.25.35-.46.42l-4.74 1.57c-.98.32-2.03.32-3.01 0L5.7 13.16c-.21-.07-.38-.23-.46-.43 -.09-.21-.08-.43.02-.63l3-6Zm1.05 1.25l-2.33 4.64 3.91 1.3c.66.22 1.38.22 2.05 0l3.91-1.31 -2.33-4.65 -1.12.37c-.98.32-2.03.32-3.01 0l-1.12-.38Z"/></g></svg>