<svg viewBox="0 0 24 24" xmlns="http://www.w3.org/2000/svg"><g fill-rule="evenodd"><path d="M1.32 5.66c.18-.38.63-.53 1-.34l4 2c.37.18.52.63.33 1s-.64.52-1.01.33l-1.43-.72 -1.63 2.31c-.24.33-.71.42-1.05.18 -.34-.24-.43-.71-.19-1.05l1.49-2.14 -1.23-.62c-.38-.19-.53-.64-.34-1.01Zm8 4c.18-.38.63-.53 1-.34l4 1.99c.37.18.52.63.33 1s-.64.52-1.01.33l-4.01-2c-.38-.19-.53-.64-.34-1.01Z"/><path d="M5.25 2c0-.42.33-.75.75-.75h4c.41 0 .75.33.75.75v20c0 .41-.34.75-.75.75H6c-.42 0-.75-.34-.75-.75V2Zm1.5.75v18.5h2.5V2.75h-2.5Z"/><path d="M13.25 2c0-.42.33-.75.75-.75h4c.41 0 .75.33.75.75v7.04c0 .41-.34.75-.75.75 -.42 0-.75-.34-.75-.75v-6.3h-2.5v18.5h2.5V12.95c0-.42.33-.75.75-.75 .41 0 .75.33.75.75v9.039c0 .41-.34.75-.75.75h-4c-.42 0-.75-.34-.75-.75v-20Z"/><path d="M9.25 5c0-.42.33-.75.75-.75h12c.41 0 .75.33.75.75 0 .41-.34.75-.75.75h-2.19l2.71 2.71c.29.29.29.76 0 1.06 -.3.29-.77.29-1.07 0l-3.79-3.79H9.97c-.42 0-.75-.34-.75-.75Z"/><path d="M6.46 14.41c.32.25.37.73.11 1.05l-4 5c-.26.32-.74.37-1.06.11 -.33-.26-.38-.74-.12-1.06l1.51-1.9 -1.39-1.04c-.34-.25-.4-.72-.15-1.05 .24-.34.71-.4 1.05-.15l1.41 1.06 1.54-1.94c.25-.33.73-.38 1.05-.12Z"/><path d="M22.72 17.81c.1.4-.15.8-.55.9l-4 1c-.41.1-.81-.15-.91-.55 -.11-.41.14-.81.54-.91l4-1c.4-.11.8.14.9.54Z"/></g></svg>