<svg viewBox="0 0 24 24" xmlns="http://www.w3.org/2000/svg"><g fill="#9545ED" fill-rule="evenodd"><path d="M21 5H10V3h11v2Z"/><path d="M21 13H10v-2h11v2Z"/><path d="M21 21H10v-2h11v2Z"/><g fill="#3747D6"><path d="M2 2c0-.56.44-1 1-1h4c.55 0 1 .44 1 1v4c0 .55-.45 1-1 1H3c-.56 0-1-.45-1-1V2Zm2 1v2h2V3H4Z"/><path d="M2 10c0-.56.44-1 1-1h4c.55 0 1 .44 1 1v4c0 .55-.45 1-1 1H3c-.56 0-1-.45-1-1v-4Zm2 1v2h2v-2H4Z"/><path d="M2 18c0-.56.44-1 1-1h4c.55 0 1 .44 1 1v4c0 .55-.45 1-1 1H3c-.56 0-1-.45-1-1v-4Zm2 1v2h2v-2H4Z"/></g></g></svg>