<svg viewBox="0 0 24 24" xmlns="http://www.w3.org/2000/svg"><g fill="#9545ED" fill-rule="evenodd"><path d="M1 2c0-.56.44-1 1-1h2.5v2H3v1.5H1V2Zm8.5-1h5v2h-5V1Zm10 0H22c.55 0 1 .44 1 1v2.5h-2V3h-1.5V1ZM1 14.5v-5h2v5H1Zm22-5v5h-2v-5h2ZM1 22v-2.5h2V21h1.5v2H2c-.56 0-1-.45-1-1Zm22-2.5V22c0 .55-.45 1-1 1h-2.5v-2H21v-1.5h2ZM14.5 23h-5v-2h5v2Z"/><g fill="#3747D6"><path d="M13 9v7h-2V9h2Z"/><path d="M7.5 9c0-.56.44-1 1-1h7c.55 0 1 .44 1 1v1.5h-2V10h-5v.5h-2V9Z"/><path d="M10 15h4v2h-4v-2Z"/></g></g></svg>