<svg xmlns="http://www.w3.org/2000/svg" id="chartSvg" width="2507" height="419" viewBox="0 0 2507 419" preserveAspectRatio="xMidYMid meet"><defs><marker id="arrowhead" markerWidth="8" markerHeight="8" refX="8" refY="4" orient="auto"><path d="M 0 0 L 8 4 L 0 8 Z" fill="rgba(5,36,12,0.28)"/></marker><style>.node-shape{fill:#FFFFFF;stroke:rgba(5,36,12,0.30);stroke-width:1.25;}
.edge-path{stroke:rgba(5,36,12,0.28);stroke-width:1.1;fill:none;stroke-linecap:round;stroke-linejoin:round;}
.node-label{fill:rgba(0,0,0,0.86);font-family:Figtree, ui-sans-serif, system-ui, -apple-system, Segoe UI, Arial, sans-serif;font-weight:600;letter-spacing:-0.01em;}
.edge-label{fill:rgba(0,0,0,0.66);font-family:Figtree, ui-sans-serif, system-ui, -apple-system, Segoe UI, Arial, sans-serif;font-weight:700;}</style></defs><g class="edges"><path d="M 303 141 L 336 141 L 365 141" class="edge-path" marker-end="url(#arrowhead)"/><path d="M 562.8177323123724 111.79200951356056 L 660 68 L 727.0289530113097 72.03788873562107" class="edge-path" marker-end="url(#arrowhead)"/><text class="edge-label" x="646.9497596468851" y="87.04273265422863" text-anchor="middle" dominant-baseline="middle" font-size="13px">No</text><path d="M 741.003024898862 110.25788814079331 L 660 141 L 631 141" class="edge-path" marker-end="url(#arrowhead)"/><path d="M 558.8492696859761 172.17586039466678 L 660 224 L 689 224" class="edge-path" marker-end="url(#arrowhead)"/><text class="edge-label" x="616.8576910414803" y="215.37953728140906" text-anchor="middle" dominant-baseline="middle" font-size="13px">Yes</text><path d="M 959 224 L 992 224 L 1021 224" class="edge-path" marker-end="url(#arrowhead)"/><path d="M 1248.1464686112213 202.9701267802018 L 1332 182.5 L 1361 182.5" class="edge-path" marker-end="url(#arrowhead)"/><text class="edge-label" x="1307.005423114828" y="200.95400384060957" text-anchor="middle" dominant-baseline="middle" font-size="13px">Yes</text><path d="M 1593 182.5 L 1626 182.5 L 1656.0826986277154 194.1675887200952" class="edge-path" marker-end="url(#arrowhead)"/><path d="M 1248.1464686112213 245.0298732197982 L 1332 265.5 L 1479 265.5 L 1626 265.5 L 1656.0826986277154 253.8324112799048" class="edge-path" marker-end="url(#arrowhead)"/><text class="edge-label" x="1451.9750833219314" y="277.5" text-anchor="middle" dominant-baseline="middle" font-size="13px">No</text><path d="M 1807 224 L 1840 224 L 1869 224" class="edge-path" marker-end="url(#arrowhead)"/><path d="M 2053 224 L 2086 224 L 2115 224" class="edge-path" marker-end="url(#arrowhead)"/></g><g class="nodes"><g class="node" transform="translate(170.5, 141)"><rect x="-120.5" y="-28" width="241" height="56" rx="14" ry="14" class="node-shape"/><text class="node-label" x="0" y="0" text-anchor="middle" dominant-baseline="middle" font-size="16px">Trigger: upcoming occasion</text></g><g class="node" transform="translate(498, 141)"><polygon points="0,-45 117,0 0,45 -117,0" class="node-shape"/><text class="node-label" x="0" y="0" text-anchor="middle" dominant-baseline="middle" font-size="16px">Enough context?</text></g><g class="node" transform="translate(826, 78)"><rect x="-83" y="-28" width="166" height="56" rx="14" ry="14" class="node-shape"/><text class="node-label" x="0" y="0" text-anchor="middle" dominant-baseline="middle" font-size="16px">Ask 1-3 questions</text></g><g class="node" transform="translate(826, 224)"><rect x="-121" y="-28" width="242" height="56" rx="14" ry="14" class="node-shape"/><text class="node-label" x="0" y="0" text-anchor="middle" dominant-baseline="middle" font-size="16px">Select gift (rules + defaults)</text></g><g class="node" transform="translate(1162, 224)"><polygon points="0,-45 125,0 0,45 -125,0" class="node-shape"/><text class="node-label" x="0" y="0" text-anchor="middle" dominant-baseline="middle" font-size="16px">Approval needed?</text></g><g class="node" transform="translate(1479, 182.5)"><rect x="-102" y="-28" width="204" height="56" rx="14" ry="14" class="node-shape"/><text class="node-label" x="0" y="0" text-anchor="middle" dominant-baseline="middle" font-size="16px">Send 2-3 options + rec</text></g><g class="node" transform="translate(1733, 224)"><rect x="-62" y="-28" width="124" height="56" rx="14" ry="14" class="node-shape"/><text class="node-label" x="0" y="0" text-anchor="middle" dominant-baseline="middle" font-size="16px">Order + ship</text></g><g class="node" transform="translate(1963, 224)"><rect x="-78" y="-28" width="156" height="56" rx="14" ry="14" class="node-shape"/><text class="node-label" x="0" y="0" text-anchor="middle" dominant-baseline="middle" font-size="16px">Confirm delivery</text></g><g class="node" transform="translate(2244, 224)"><rect x="-113" y="-28" width="226" height="56" rx="14" ry="14" class="node-shape"/><text class="node-label" x="0" y="0" text-anchor="middle" dominant-baseline="middle" font-size="16px">Note outcome + learnings</text></g></g></svg>