<svg viewBox="0 0 24 24" xmlns="http://www.w3.org/2000/svg"><path fill="#CFD8DC" fill-rule="evenodd" d="M9 9.25c.41 0 .75.33.75.75v7c0 .41-.34.75-.75.75 -.42 0-.75-.34-.75-.75v-7c0-.42.33-.75.75-.75Z"/><path fill="#FFC44D" d="M19.5 1.25c-1.8 0-3.25 1.45-3.25 3.25 0 1.79 1.45 3.25 3.25 3.25 1.79 0 3.25-1.46 3.25-3.25 0-1.8-1.46-3.25-3.25-3.25Z"/><path fill="#FFD071" d="M6 16.25c-2.63 0-4.75 2.12-4.75 4.75v1c0 .41.33.75.75.75h20c.41 0 .75-.34.75-.75v-1c0-2.63-2.13-4.75-4.75-4.75H6Z"/><path fill="#EE4D4D" fill-rule="evenodd" d="M9 3.25c-3.73 0-6.75 3.02-6.75 6.75 0 .24.11.46.31.6 .19.14.44.17.67.1l2.76-.93 2.76.92c.15.05.32.05.47 0l2.76-.93 2.76.92c.22.07.48.03.67-.11 .19-.15.31-.37.31-.61 0-3.73-3.03-6.75-6.75-6.75Z"/></svg>