<svg viewBox="0 0 24 24" xmlns="http://www.w3.org/2000/svg"><g fill="#ECEFF1" fill-rule="evenodd"><path d="M12 1.25c.41 0 .75.33.75.75v1c0 .41-.34.75-.75.75 -.42 0-.75-.34-.75-.75V2c0-.42.33-.75.75-.75Z"/><path d="M12 10.25c.41 0 .75.33.75.75v11c0 .41-.34.75-.75.75 -.42 0-.75-.34-.75-.75V11c0-.42.33-.75.75-.75Z"/></g><path fill="#EE4D4D" d="M12 2.75C6.16 2.75 1.25 7.07 1.25 12c0 .41.33.75.75.75 .41 0 .75-.34.75-.75 0-.55.61-1.25 1.75-1.25 1.13 0 1.75.7 1.75 1.25 0 .41.33.75.75.75 .41 0 .75-.34.75-.75 0-.55.61-1.25 1.75-1.25 1.13 0 1.75.7 1.75 1.25 0 .41.33.75.75.75 .41 0 .75-.34.75-.75 0-.55.61-1.25 1.75-1.25 1.13 0 1.75.7 1.75 1.25 0 .41.33.75.75.75 .41 0 .75-.34.75-.75 0-.55.61-1.25 1.75-1.25 1.13 0 1.75.7 1.75 1.25 0 .41.33.75.75.75 .41 0 .75-.34.75-.75 0-4.93-4.92-9.25-10.75-9.25Z"/></svg>