<svg viewBox="0 0 24 24" xmlns="http://www.w3.org/2000/svg"><path fill="#ECEFF1" d="M12 1.25C6.06 1.25 1.25 6.06 1.25 12c0 5.93 4.81 10.75 10.75 10.75 5.93 0 10.75-4.82 10.75-10.75 0-5.94-4.82-10.75-10.75-10.75Z"/><g fill="#FFC44D" fill-rule="evenodd"><path d="M16.81 2.38c-1.45-.73-3.09-1.14-4.82-1.14 -1.74 0-3.37.4-4.82 1.13l.23.56 2.5 6.63c.11.29.38.48.7.48h2.73c.31 0 .59-.2.7-.49l2.5-6.64 .23-.57Z"/><path fill="#EE4D4D" d="M22.73 12.47l-.71-.15c-.01-.01-.02-.01-.03-.01l-7.02-1.15c-.32-.06-.64.1-.79.38l-1.37 2.57c-.15.26-.11.59.08.82l4.49 5.49 .43.54c2.82-1.84 4.72-4.96 4.88-8.54Z"/><path fill="#5E94FF" d="M6.13 21.01l.44-.53 4.5-5.51c.19-.24.22-.56.08-.83l-1.37-2.58c-.16-.29-.47-.44-.79-.39l-7.02 1.14c-.01 0-.02 0-.03 0l-.71.14c.15 3.57 2.05 6.69 4.87 8.53Z"/></g><path fill="#ECEFF1" d="M12 8.25c-2.08 0-3.75 1.67-3.75 3.75 0 2.07 1.67 3.75 3.75 3.75 2.07 0 3.75-1.68 3.75-3.75 0-2.08-1.68-3.75-3.75-3.75Z"/></svg>