<svg viewBox="0 0 24 24" xmlns="http://www.w3.org/2000/svg"><path fill="#4DC4FF" d="M6.41 1.37c-.26-.17-.58-.17-.83-.01 -.26.16-.38.46-.33.76l2 11c.06.35.37.61.73.61h7.99c.36 0 .67-.26.73-.62l2-11c.05-.3-.08-.6-.33-.77 -.26-.17-.58-.17-.83 0l-1.62 1.07c-.59.39-1.36.39-1.95 0l-1.62-1.08c-.26-.17-.59-.17-.84 0L9.89 2.4c-.59.39-1.36.39-1.95 0L6.32 1.32Z"/><path fill="#5E94FF" d="M12 8.25c-1.52 0-2.75 1.23-2.75 2.75v.4c0 .46-.39.85-.85.85 -.64 0-1.15.51-1.15 1.15v5.1c0 2.34 1.9 4.25 4.25 4.25h1c2.34 0 4.25-1.91 4.25-4.25v-5.1c0-.64-.52-1.15-1.15-1.15 -.47 0-.85-.39-.85-.85V11c0-1.52-1.24-2.75-2.75-2.75Z"/><path fill="#ECEFF1" d="M12 14.25c-1.67 0-2.75 1.61-2.75 3.25 0 1.63 1.08 3.25 2.75 3.25 1.66 0 2.75-1.62 2.75-3.25 0-1.64-1.09-3.25-2.75-3.25Z"/></svg>