<svg viewBox="0 0 24 24" xmlns="http://www.w3.org/2000/svg"><path fill="#4DC4FF" d="M6 1.25c-.21 0-.41.08-.55.23 -.15.14-.22.34-.21.55l1 20c.01.39.34.71.74.71h10c.39 0 .72-.32.74-.72l1-20.01c.01-.21-.07-.41-.21-.56 -.15-.15-.34-.24-.55-.24h-12Z"/><g fill="#ECEFF1"><path d="M11.53 8.96c-.3-.3-.77-.3-1.07 0l-2.01 2c-.3.29-.3.76 0 1.06l2 2c.29.29.76.29 1.06 0l2-2c.29-.3.29-.77 0-1.07l-2-2.01Z"/><path d="M11 15.25c-.42 0-.75.33-.75.75v3c0 .41.33.75.75.75h3c.41 0 .75-.34.75-.75v-3c0-.42-.34-.75-.75-.75h-3Z"/><path d="M12.5 4.25c-.42 0-.75.33-.75.75v3c0 .41.33.75.75.75h3c.41 0 .75-.34.75-.75V5c0-.42-.34-.75-.75-.75h-3Z"/></g><path fill="#CFD8DC" fill-rule="evenodd" d="M5.96 1.25c.41-.03.76.29.78.71l.96 19.28h8.57l.96-19.29c.02-.42.37-.74.78-.72 .41.02.73.37.71.78l-1 20c-.02.39-.35.71-.75.71h-10c-.4 0-.73-.32-.75-.72l-1-20c-.03-.42.29-.77.71-.79Z"/></svg>