<svg viewBox="0 0 24 24" xmlns="http://www.w3.org/2000/svg"><path fill="#5E94FF" d="M12 3.25c-2.86 0-5.48.57-7.41 1.54 -1.89.94-3.35 2.38-3.35 4.2 0 .52.12 1.03.35 1.5 -.23.46-.36.97-.36 1.5 0 .52.12 1.03.35 1.5 -.23.46-.36.97-.36 1.5 0 1.81 1.45 3.26 3.34 4.2 1.93.96 4.55 1.54 7.4 1.54 2.85 0 5.47-.58 7.4-1.55 1.88-.95 3.34-2.39 3.34-4.21 0-.53-.13-1.04-.36-1.5 .22-.47.35-.98.35-1.5 0-.53-.13-1.04-.36-1.5 .22-.47.35-.98.35-1.5 0-1.82-1.46-3.27-3.35-4.21 -1.94-.97-4.56-1.55-7.41-1.55Z"/><path fill="#7EA9FF" d="M12 5.75c-2.01 0-3.87.34-5.25.93 -.69.29-1.3.66-1.74 1.11 -.45.45-.77 1.02-.77 1.69 0 .66.31 1.24.76 1.69 .44.45 1.04.82 1.73 1.11 1.38.59 3.23.93 5.24.93 2 0 3.86-.35 5.24-.94 .68-.3 1.29-.67 1.73-1.12 .44-.46.76-1.03.76-1.7 0-.67-.32-1.25-.77-1.7 -.45-.45-1.05-.83-1.74-1.12 -1.39-.6-3.24-.94-5.25-.94Z"/></svg>