<svg viewBox="0 0 24 24" xmlns="http://www.w3.org/2000/svg"><path fill="#CFD8DC" fill-rule="evenodd" d="M9.31 5.32c.21-.11.46-.1.67.01l1.86 1c.36.19.5.65.3 1.01s-.66.5-1.02.3l-1.54-.83 -1.78.83 -5.09 2.77v1.55c0 .41-.34.75-.75.75 -.42 0-.75-.34-.75-.75v-2c0-.28.14-.53.39-.66l5.5-3c.01-.01.02-.02.04-.03l2.13-1Z"/><path fill="#5E94FF" d="M10.53 8.46c-.17-.17-.4-.25-.63-.22l-8 1c-.38.04-.66.36-.66.74v2c0 .41.33.75.75.75h4.68l2.78 2.78c.14.14.33.21.53.21h11c.24 0 .46-.12.6-.32 .14-.2.17-.45.1-.68l-1-3c-.1-.28-.34-.48-.62-.51l-7.75-.97 -1.82-1.82Z"/><path fill="#ECEFF1" d="M2 11.25c-.42 0-.75.33-.75.75v1c0 3.17 2.57 5.75 5.75 5.75h15c.41 0 .75-.34.75-.75v-3c0-.42-.34-.75-.75-.75H10.31l-2.79-2.79c-.15-.15-.34-.22-.54-.22h-5Z"/></svg>