<svg viewBox="0 0 24 24" xmlns="http://www.w3.org/2000/svg"><g fill="#ECEFF1" fill-rule="evenodd"><path d="M19.96 4.03c-.49-.49-1.29-.44-1.71.09l-.68.84c-.26.32-.74.37-1.06.11 -.33-.26-.38-.74-.12-1.06l.67-.85c.98-1.24 2.82-1.34 3.94-.22 1.11 1.11 1.01 2.95-.22 3.94l-.85.67c-.33.25-.8.2-1.06-.12 -.26-.33-.21-.8.11-1.06l.84-.68c.53-.43.57-1.23.09-1.71Z"/><path d="M4.03 19.96c.48.48 1.28.43 1.7-.1l.67-.85c.25-.33.73-.38 1.05-.12 .32.25.37.73.11 1.05l-.68.84c-.99 1.23-2.83 1.33-3.95.21s-1.02-2.96.21-3.95l.84-.68c.32-.26.79-.21 1.05.11 .25.32.2.79-.12 1.05l-.85.67c-.54.42-.58 1.22-.1 1.7Z"/></g><path fill="#FF884D" d="M12 2.25c-5.39 0-9.75 4.36-9.75 9.75 0 5.38 4.36 9.75 9.75 9.75 5.38 0 9.75-4.37 9.75-9.75 0-5.39-4.37-9.75-9.75-9.75Z"/><g fill="#CFD8DC" fill-rule="evenodd"><path d="M14.75 2.64c-.88-.26-1.795-.4-2.75-.4 -.96 0-1.88.13-2.75.39v18.71c.87.25 1.795.39 2.75.39 .95 0 1.87-.14 2.75-.4V2.61Z"/><path d="M21.35 9.25H2.63c-.26.87-.4 1.795-.4 2.75 0 .95.13 1.87.39 2.75h18.71c.25-.88.39-1.795.39-2.75 0-.96-.14-1.88-.4-2.75Z"/></g><path fill="#ECEFF1" d="M12 7.25c-2.63 0-4.75 2.12-4.75 4.75 0 2.62 2.12 4.75 4.75 4.75 2.62 0 4.75-2.13 4.75-4.75 0-2.63-2.13-4.75-4.75-4.75Z"/></svg>