<svg viewBox="0 0 24 24" xmlns="http://www.w3.org/2000/svg"><path fill="#EE4D4D" d="M12.46 9.46c.14-.15.33-.22.53-.22 .19 0 .38.07.53.21l8.29 8.29c.68.68.68 1.79 0 2.47l-1.59 1.58c-.69.68-1.8.68-2.48 0l-8.3-8.3c-.3-.3-.3-.77 0-1.07l3-3.01Z"/><path fill="#F17171" fill-rule="evenodd" d="M8.46 1.46c-.3.29-.3.76 0 1.06l4.58 4.58c.48.48.48 1.27 0 1.76l-1.56 1.55 -5.47-5.47c-.3-.3-.77-.3-1.07 0 -.3.29-.3.76 0 1.06l5.46 5.46 -1.56 1.55c-.49.48-1.28.48-1.77 0L2.48 8.42c-.3-.3-.77-.3-1.07 0 -.3.29-.3.76 0 1.06l4.58 4.58c1.07 1.07 2.81 1.07 3.88 0l4.17-4.18c1.07-1.08 1.07-2.82 0-3.89L9.45 1.4c-.3-.3-.77-.3-1.07 0Z"/></svg>