<svg viewBox="0 0 24 24" xmlns="http://www.w3.org/2000/svg"><path fill="#7EA9FF" d="M11.96 9.96c.29-.3.76-.3 1.06 0l6 6c.14.14.21.33.21.53 0 .19-.08.38-.22.53l-2 2c-.3.29-.77.29-1.07 0l-6.01-6c-.15-.15-.22-.34-.22-.54s.07-.39.21-.54l2-2.01Z"/><g fill="#5E94FF" fill-rule="evenodd"><path d="M18.61 17.44c.48-.49 1.27-.49 1.76 0l.55.55 -2.94 2.93 -.56-.56c-.49-.49-.49-1.28-.01-1.77l1.17-1.18Zm2.82-1.07c-1.08-1.08-2.82-1.08-3.89 0l-1.18 1.17c-1.08 1.07-1.08 2.81 0 3.88l1.08 1.08c.29.29.76.29 1.06 0l4-4c.14-.15.21-.34.21-.54s-.08-.39-.22-.54l-1.09-1.09Z"/><path d="M8.46 1.46c-.3.29-.3.76 0 1.06l4.58 4.58c.48.48.48 1.27 0 1.76l-1.56 1.55 -5.47-5.47c-.3-.3-.77-.3-1.07 0 -.3.29-.3.76 0 1.06l5.46 5.46 -1.56 1.55c-.49.48-1.28.48-1.77 0L2.48 8.42c-.3-.3-.77-.3-1.07 0 -.3.29-.3.76 0 1.06l4.58 4.58c1.07 1.07 2.81 1.07 3.88 0l4.17-4.18c1.07-1.08 1.07-2.82 0-3.89L9.45 1.4c-.3-.3-.77-.3-1.07 0Z"/></g></svg>