<svg viewBox="0 0 24 24" xmlns="http://www.w3.org/2000/svg"><path fill="#F17171" d="M4 1.25C2.48 1.25 1.25 2.48 1.25 4v15c0 .41.33.75.75.75h5c.41 0 .75-.34.75-.75V2c0-.42-.34-.75-.75-.75H4Z"/><path fill="#EE4D4D" d="M7 1.25c-.42 0-.75.33-.75.75v20c0 .41.33.75.75.75h15c.41 0 .75-.34.75-.75V5c0-2.08-1.68-3.75-3.75-3.75H7Z"/><g fill="#ECEFF1"><path d="M7 10.25c-.42 0-.75.33-.75.75v3c0 .41.33.75.75.75h15c.41 0 .75-.34.75-.75v-3c0-.42-.34-.75-.75-.75H7Z"/><path fill="#ECEFF1" fill-rule="evenodd" d="M6.25 16.25h16.5v1.5H6.25v-1.5Z"/></g></svg>