<svg viewBox="0 0 24 24" xmlns="http://www.w3.org/2000/svg"><g fill-rule="evenodd"><path d="M14.71 4.71c.29-.3.76-.3 1.06 0l3.5 3.5c.29.29.29.76 0 1.06l-3.5 3.49c-.3.29-.77.29-1.07 0 -.3-.3-.3-.77 0-1.07l2.96-2.97 -2.97-2.97c-.3-.3-.3-.77 0-1.07Z"/><path d="M8 8.75c0-.42.33-.75.75-.75h9.5c.41 0 .75.33.75.75 0 .41-.34.75-.75.75H9.5v1.625c0 .41-.34.75-.75.75 -.42 0-.75-.34-.75-.75V8.75Zm.75 5.18c.41 0 .75.33.75.75v3.56c0 .41-.34.75-.75.75 -.42 0-.75-.34-.75-.75v-3.57c0-.42.33-.75.75-.75Z"/><path d="M4.71 14.71c-.3.29-.3.76 0 1.06l3.5 3.5c.29.29.76.29 1.06 0l3.49-3.5c.29-.3.29-.77 0-1.07 -.3-.3-.77-.3-1.07 0l-2.97 2.96 -2.97-2.97c-.3-.3-.77-.3-1.07 0Z"/></g></svg>