<svg viewBox="0 0 24 24" xmlns="http://www.w3.org/2000/svg"><path fill-rule="evenodd" d="M6.87 1.92c.29-.3.76-.3 1.06 0l8.66 8.66 1.94-1.95c.21-.22.53-.28.81-.17 .28.11.46.38.46.69v9.89c0 .41-.34.75-.75.75h-9.9c-.31 0-.58-.19-.7-.47 -.12-.29-.06-.61.16-.82l1.94-1.95 -1.77-1.77c-.3-.3-.3-.77 0-1.07 .29-.3.76-.3 1.06 0L12.13 16c.29.29.29.76 0 1.06l-1.2 1.19h7.33v-7.34l-1.2 1.19c-.15.14-.34.21-.54.21s-.39-.08-.54-.22L7.31 3.42 3.42 7.3l1.76 1.76c.29.29.29.76 0 1.06 -.3.29-.77.29-1.07 0l-2.3-2.3c-.3-.3-.3-.77 0-1.07L6.75 1.8Z"/></svg>