<svg viewBox="0 0 24 24" xmlns="http://www.w3.org/2000/svg"><g fill-rule="evenodd"><path d="M6.25 12c0-.42.33-.75.75-.75h9.5c.41 0 .75.33.75.75 0 .41-.34.75-.75.75H7c-.42 0-.75-.34-.75-.75Z"/><path d="M19.75 17.5c-.42 0-.75-.34-.75-.75v-9.5c0-.42.33-.75.75-.75 .41 0 .75.33.75.75v9.5c0 .41-.34.75-.75.75Z"/><path d="M4.25 17.5c-.42 0-.75-.34-.75-.75v-9.5c0-.42.33-.75.75-.75 .41 0 .75.33.75.75v9.5c0 .41-.34.75-.75.75Z"/><path d="M12.93 8.51c.26-.32.74-.36 1.05-.09l3.5 3c.16.14.26.35.26.56 0 .21-.1.42-.27.56l-1.75 1.5c-.32.26-.79.23-1.06-.09s-.24-.79.08-1.06l1.08-.94 -2.84-2.44c-.32-.27-.36-.75-.09-1.06Zm1.57 5.62c.26.31.23.78-.09 1.05l-.44.375c-.32.26-.79.23-1.06-.09s-.24-.79.08-1.06l.43-.375c.31-.27.78-.24 1.05.08Z"/><path d="M11.06 8.51c-.27-.32-.75-.36-1.06-.09l-3.51 3c-.17.14-.27.35-.27.56 0 .21.09.42.26.56l3.5 3c.31.26.78.23 1.05-.09 .26-.32.23-.79-.09-1.06L8.1 11.95l2.83-2.44c.31-.27.35-.75.08-1.06Z"/></g></svg>