<svg viewBox="0 0 24 24" xmlns="http://www.w3.org/2000/svg"><g fill-rule="evenodd"><path d="M1.45 22.56c.29.29.76.29 1.06 0l1.03-1.04c.29-.3.29-.77 0-1.07 -.3-.3-.77-.3-1.07 0l-1.04 1.03c-.3.29-.3.76 0 1.06Zm4.03-4.04c.29.29.76.29 1.06 0l2.68-2.69c.29-.3.29-.77 0-1.07 -.3-.3-.77-.3-1.07 0l-2.69 2.68c-.3.29-.3.76 0 1.06Z"/><path d="M9.06 20.66c.41 0 .75-.34.75-.75v-4.95c0-.42-.34-.75-.75-.75H4.11c-.42 0-.75.33-.75.75 0 .41.33.75.75.75H8.3v4.19c0 .41.33.75.75.75Z"/><path d="M22.56 1.45c-.3-.3-.77-.3-1.07 0l-6.72 6.71c-.3.29-.3.76 0 1.06 .29.29.76.29 1.06 0l6.71-6.72c.29-.3.29-.77 0-1.07Z"/><path d="M14.96 3.36c-.42 0-.75.33-.75.75v4.94c0 .41.33.75.75.75h4.94c.41 0 .75-.34.75-.75 0-.42-.34-.75-.75-.75h-4.2V4.1c0-.42-.34-.75-.75-.75Z"/></g></svg>