<svg viewBox="0 0 24 24" xmlns="http://www.w3.org/2000/svg"><g fill-rule="evenodd"><path d="M19.03 11.03c.29-.3.29-.77 0-1.07l-3.5-3.5c-.3-.3-.77-.3-1.07 0l-3.5 3.5c-.3.29-.3.76 0 1.06 .29.29.76.29 1.06 0l2.96-2.97 2.96 2.96c.29.29.76.29 1.06 0Z"/><path d="M15 6.75c.41 0 .75.33.75.75V13c0 1.41-.63 2.69-1.61 3.56 -.32.27-.79.24-1.06-.07 -.28-.32-.25-.79.06-1.06 .67-.6 1.1-1.47 1.1-2.44v-5.5c0-.42.33-.75.75-.75ZM4.75 17c0-.42.33-.75.75-.75H11c.41 0 .75.33.75.75 0 .41-.34.75-.75.75H5.5c-.42 0-.75-.34-.75-.75Z"/></g></svg>