<svg viewBox="0 0 24 24" xmlns="http://www.w3.org/2000/svg"><g fill-rule="evenodd"><path d="M4.96 11.03c-.3-.3-.3-.77 0-1.07l3.5-3.5c.29-.3.76-.3 1.06 0l3.49 3.5c.29.29.29.76 0 1.06 -.3.29-.77.29-1.07 0L8.97 8.05 6 11.01c-.3.29-.77.29-1.07 0Z"/><path d="M9 6.75c.41 0 .75.33.75.75V13c0 .97.42 1.84 1.1 2.43 .31.27.34.74.06 1.05 -.28.31-.75.34-1.06.06 -.99-.87-1.61-2.15-1.61-3.57v-5.5c0-.42.33-.75.75-.75ZM12.25 17c0-.42.33-.75.75-.75h5.5c.41 0 .75.33.75.75 0 .41-.34.75-.75.75H13c-.42 0-.75-.34-.75-.75Z"/></g></svg>