<svg viewBox="0 0 24 24" xmlns="http://www.w3.org/2000/svg"><g fill-rule="evenodd"><path d="M2.75 12c0-5.11 4.14-9.25 9.25-9.25 5.1 0 9.25 4.14 9.25 9.25 0 5.1-4.15 9.25-9.25 9.25 -2.09 0-4.01-.69-5.55-1.85 -.34-.25-.81-.19-1.06.14s-.19.8.14 1.05c1.79 1.34 4.03 2.14 6.45 2.14 5.93 0 10.75-4.82 10.75-10.75 0-5.94-4.82-10.75-10.75-10.75 -5.94 0-10.75 4.81-10.75 10.75 0 2.41.8 4.65 2.14 6.45 .24.33.71.39 1.05.14 .33-.25.39-.72.14-1.06 -1.17-1.55-1.85-3.47-1.85-5.55Z"/><path d="M7.8 10.713c-.12.28-.06.6.16.81l3.5 3.5c.29.29.76.29 1.06 0l3.5-3.5c.21-.22.27-.54.16-.82 -.12-.29-.39-.47-.7-.47h-7c-.31 0-.58.18-.7.46Zm2.5 1.03h3.37l-1.69 1.68 -1.69-1.69Z"/></g></svg>