<svg viewBox="0 0 24 24" xmlns="http://www.w3.org/2000/svg"><g fill-rule="evenodd"><path d="M1.67 3.32c.25-.13.56-.09.79.09l9.99 8c.17.14.28.35.28.58 0 .22-.11.44-.29.58l-10 8c-.23.18-.54.21-.8.09 -.26-.13-.43-.39-.43-.68v-16c0-.29.16-.56.42-.68Zm1.07 2.23v12.87l8.04-6.44 -8.05-6.44Z"/><path d="M11.67 3.32c.25-.13.56-.09.79.09l10 8c.17.14.28.35.28.58 0 .22-.11.44-.29.58l-2.5 2c-.33.25-.8.2-1.06-.12 -.26-.33-.21-.8.11-1.06l1.76-1.42 -8.05-6.44V18.4l2.53-2.03c.32-.26.79-.21 1.05.11 .25.32.2.79-.12 1.05l-3.75 3c-.23.18-.54.21-.8.09 -.26-.13-.43-.39-.43-.68v-16c0-.29.16-.56.42-.68Z"/></g></svg>