<svg viewBox="0 0 24 24" xmlns="http://www.w3.org/2000/svg"><g fill-rule="evenodd"><path d="M11.74 4.46c.05.41-.23.78-.64.84 -1.78.24-3.34 1.22-4.37 2.64 -.21.28-.4.58-.56.9 -.19.36-.65.51-1.01.32 -.37-.19-.52-.65-.33-1.01 .19-.39.42-.76.67-1.11 1.26-1.73 3.17-2.94 5.37-3.25 .41-.06.78.22.84.63Zm1.53.1c.11-.4.53-.63.92-.52 3.39.98 5.86 4.17 5.86 7.93 0 .41-.34.75-.75.75 -.42 0-.75-.34-.75-.75 0-3.1-2.04-5.7-4.79-6.5 -.4-.12-.63-.54-.52-.93Zm-8.61 6.67c.41 0 .75.33.75.75 0 3.74 2.96 6.75 6.57 6.75 .95 0 1.86-.21 2.68-.59 1.33-.62 2.44-1.68 3.12-3.01 .19-.37.64-.52 1.01-.33 .36.19.51.64.32 1.01 -.84 1.61-2.19 2.92-3.84 3.68 -1.02.46-2.14.72-3.32.72 -4.48 0-8.08-3.72-8.08-8.25 -.001-.42.33-.75.75-.75Z"/><path d="M21.73 8.73c.35.2.48.66.27 1.02l-1.73 3.06c-.1.17-.27.3-.46.35 -.2.05-.41.02-.58-.08l-3-1.77c-.36-.21-.47-.68-.26-1.029 .21-.36.67-.48 1.02-.28l2.33 1.38 1.34-2.4c.2-.37.66-.5 1.02-.3Z"/><path d="M2.26 15.26c-.36-.21-.49-.67-.28-1.03l1.72-3.07c.09-.18.26-.31.45-.36 .19-.06.4-.03.57.07l2.99 1.76c.35.2.47.67.25 1.029 -.22.35-.68.47-1.03.27l-2.34-1.39 -1.35 2.39c-.21.36-.67.49-1.03.29Z"/></g></svg>