<svg viewBox="0 0 24 24" xmlns="http://www.w3.org/2000/svg"><g fill-rule="evenodd"><path d="M10.6 6.75C7.7 6.75 5.35 9.1 5.35 12c0 .95.25 1.85.7 2.62 .2.35.08.81-.28 1.02 -.36.2-.82.08-1.03-.28 -.58-1-.91-2.15-.91-3.38 0-3.73 3.02-6.75 6.74-6.75s6.75 3.02 6.75 6.75c0 .41-.34.75-.75.75 -.42 0-.75-.34-.75-.75 0-2.9-2.36-5.25-5.25-5.25Zm5.57 7.6c.35.2.48.66.27 1.02 -1.17 2.01-3.35 3.37-5.85 3.37 -.63 0-1.24-.09-1.81-.25 -.4-.12-.64-.53-.53-.93 .11-.4.52-.64.92-.53 .44.12.91.19 1.4.19 1.94 0 3.63-1.06 4.54-2.63 .2-.36.66-.49 1.02-.28Z"/><path d="M19.16 8.209c.34.22.44.68.22 1.03l-2.3 3.56c-.23.34-.69.44-1.04.22l-3.57-2.3c-.35-.23-.45-.69-.23-1.04 .22-.35.68-.45 1.03-.23l2.93 1.89 1.89-2.94c.22-.35.68-.45 1.03-.23Z"/></g></svg>