<svg viewBox="0 0 24 24" xmlns="http://www.w3.org/2000/svg"><g fill-rule="evenodd"><path d="M4.25 5c0-.42.33-.75.75-.75h6.07c.41 0 .75.33.75.75 0 .41-.34.75-.75.75H5.74V7.5c0 .41-.34.75-.75.75 -.42 0-.75-.34-.75-.75V5ZM5 10.75c.41 0 .75.33.75.75v6.75h12.5V13c0-.42.33-.75.75-.75 .41 0 .75.33.75.75v6c0 .41-.34.75-.75.75H5c-.42 0-.75-.34-.75-.75v-7.5c0-.42.33-.75.75-.75Z"/><path d="M11.44 12.57c-.3-.3-.3-.77 0-1.07l6.71-6.72c.29-.3.76-.3 1.06 0 .29.29.29.76 0 1.06l-6.72 6.71c-.3.29-.77.29-1.07 0Z"/><path d="M13.34 4.97c0-.42.33-.75.75-.75h4.94c.41 0 .75.33.75.75v4.94c0 .41-.34.75-.75.75 -.42 0-.75-.34-.75-.75v-4.2h-4.2c-.42 0-.75-.34-.75-.75Z"/></g></svg>