<svg viewBox="0 0 24 24" xmlns="http://www.w3.org/2000/svg"><g fill-rule="evenodd"><path d="M2.25 3c0-.42.33-.75.75-.75h8.57c.41 0 .75.33.75.75 0 .41-.34.75-.75.75H3.74v16.5h10.75c.41 0 .75.33.75.75 0 .41-.34.75-.75.75H2.99c-.42 0-.75-.34-.75-.75V3ZM21 11.75c.41 0 .75.33.75.75V21c0 .41-.34.75-.75.75h-2.5c-.42 0-.75-.34-.75-.75 0-.42.33-.75.75-.75h1.75V12.5c0-.42.33-.75.75-.75Z"/><path d="M13.53 11.5L9.5 15.52c-.3.29-.77.29-1.07 0 -.3-.3-.3-.77 0-1.07l4.02-4.03c.29-.3.76-.3 1.06 0 .29.29.29.76 0 1.06Z"/><path d="M7.3 10.97c0-.42.33-.75.75-.75h4.94c.41 0 .75.33.75.75v4.94c0 .41-.34.75-.75.75 -.42 0-.75-.34-.75-.75v-4.2h-4.2c-.42 0-.75-.34-.75-.75Z"/><path d="M14.25 3c0-.42.33-.75.75-.75h6c.41 0 .75.33.75.75v6c0 .41-.34.75-.75.75h-6c-.42 0-.75-.34-.75-.75V3Zm1.5.75v4.5h4.5v-4.5h-4.5Z"/></g></svg>