<svg viewBox="0 0 24 24" xmlns="http://www.w3.org/2000/svg"><g fill-rule="evenodd"><path d="M5 13.25c.41 0 .75-.34.75-.75V11C5.75 9.2 7.2 7.75 9 7.75h9.5c.41 0 .75-.34.75-.75 0-.42-.34-.75-.75-.75H9c-2.63 0-4.75 2.12-4.75 4.75v1.5c0 .41.33.75.75.75Z"/><path d="M15.46 2.96c.29-.3.76-.3 1.06 0l2.08 2.08c1.07 1.07 1.07 2.81 0 3.88L16.51 11c-.3.29-.77.29-1.07 0 -.3-.3-.3-.77 0-1.07l2.08-2.09c.48-.49.48-1.28 0-1.77l-2.09-2.09c-.3-.3-.3-.77 0-1.07Z"/><path d="M19 10.75c.41 0 .75.33.75.75V13c0 1.2-.45 2.3-1.19 3.14 -.28.31-.75.34-1.06.06 -.32-.28-.35-.75-.07-1.06 .5-.58.81-1.33.81-2.15v-1.5c0-.42.33-.75.75-.75ZM4.75 17c0-.42.33-.75.75-.75H14c.41 0 .75.33.75.75 0 .41-.34.75-.75.75H5.5c-.42 0-.75-.34-.75-.75Z"/><path d="M8.53 21.03c-.3.29-.77.29-1.07 0l-2.09-2.09c-1.08-1.08-1.08-2.82 0-3.89l2.08-2.09c.29-.3.76-.3 1.06 0 .29.29.29.76 0 1.06L6.42 16.1c-.49.48-.49 1.27 0 1.76l2.08 2.08c.29.29.29.76 0 1.06Z"/></g></svg>