<svg viewBox="0 0 24 24" xmlns="http://www.w3.org/2000/svg"><g fill-rule="evenodd"><path d="M10.18 12.56c-.3-.3-.3-.77 0-1.07l6.71-6.72c.29-.3.76-.3 1.06 0 .29.29.29.76 0 1.06l-6.72 6.71c-.3.29-.77.29-1.07 0Z"/><path d="M12.08 4.96c0-.42.33-.75.75-.75h4.94c.41 0 .75.33.75.75V9.9c0 .41-.34.75-.75.75 -.42 0-.75-.34-.75-.76v-4.2h-4.2c-.42 0-.75-.34-.75-.75Z"/><path d="M10.18 11.43c-.3.29-.3.76 0 1.06l2.28 2.28c.29.29.76.29 1.06 0 .29-.3.29-.77 0-1.07l-2.29-2.29c-.3-.3-.77-.3-1.07 0Zm5.03 5.03c-.3.29-.3.76 0 1.06l1.67 1.67c.29.29.76.29 1.06 0 .29-.3.29-.77 0-1.07l-1.68-1.68c-.3-.3-.77-.3-1.07 0Z"/><path d="M12.08 19.03c0 .41.33.75.75.75h4.94c.41 0 .75-.34.75-.75v-4.95c0-.42-.34-.75-.75-.75 -.42 0-.75.33-.75.75v4.19h-4.2c-.42 0-.75.33-.75.75Z"/><path d="M2.98 11.98c0-.42.33-.75.75-.75h6.99c.41 0 .75.33.75.75 0 .41-.34.75-.75.75h-7c-.42 0-.75-.34-.75-.75Z"/></g></svg>