<svg viewBox="0 0 24 24" xmlns="http://www.w3.org/2000/svg"><g fill-rule="evenodd"><path d="M2.75 12c0 5.1 4.14 9.25 9.25 9.25 2.08 0 4-.69 5.55-1.85 .33-.25.8-.19 1.05.14 .24.33.18.8-.15 1.05 -1.8 1.35-4.04 2.15-6.46 2.15 -5.94 0-10.75-4.82-10.75-10.75 0-5.94 4.81-10.75 10.75-10.75 5.93 0 10.75 4.81 10.75 10.75 0 2.41-.81 4.65-2.16 6.45 -.25.33-.72.39-1.06.14 -.34-.25-.4-.72-.15-1.06 1.16-1.55 1.84-3.47 1.84-5.56 0-5.11-4.15-9.25-9.25-9.25 -5.11 0-9.25 4.14-9.25 9.25Z"/><path d="M7.8 12.28c-.12-.29-.06-.61.16-.82l3.5-3.51c.29-.3.76-.3 1.06 0l3.5 3.5c.21.21.27.53.16.81 -.12.28-.39.46-.7.46H8.47c-.31 0-.58-.19-.7-.47Zm2.5-1.04h3.37l-1.69-1.69 -1.69 1.68Z"/><path d="M7.75 14.5c0-.42.33-.75.75-.75h7c.41 0 .75.33.75.75 0 .41-.34.75-.75.75h-7c-.42 0-.75-.34-.75-.75Z"/></g></svg>