<svg viewBox="0 0 24 24" xmlns="http://www.w3.org/2000/svg"><g fill-rule="evenodd"><path d="M1.25 4c0-.42.33-.75.75-.75h20c.41 0 .75.33.75.75v11c0 .41-.34.75-.75.75H2c-.42 0-.75-.34-.75-.75v-1c0-.42.33-.75.75-.75 .41 0 .75.33.75.75v.25h18.5v-9.5H2.75V10c0 .41-.34.75-.75.75 -.42 0-.75-.34-.75-.75V4Z"/><path d="M9.25 18c0-.42.33-.75.75-.75h4c.41 0 .75.33.75.75v4c0 .41-.34.75-.75.75h-4c-.42 0-.75-.34-.75-.75v-4Zm1.5.75v2.5h2.5v-2.5h-2.5Z"/><path d="M7.75 15c0-.42.33-.75.75-.75h7c.41 0 .75.33.75.75v3c0 .41-.34.75-.75.75h-7c-.42 0-.75-.34-.75-.75v-3Zm1.5.75v1.5h5.5v-1.5h-5.5Z"/><path d="M3.5 1.25c.41 0 .75.33.75.75v2c0 .41-.34.75-.75.75 -.42 0-.75-.34-.75-.75V2c0-.42.33-.75.75-.75Z"/><path d="M12 1.25c.41 0 .75.33.75.75v2c0 .41-.34.75-.75.75 -.42 0-.75-.34-.75-.75V2c0-.42.33-.75.75-.75Z"/><path d="M20.5 1.25c.41 0 .75.33.75.75v2c0 .41-.34.75-.75.75 -.42 0-.75-.34-.75-.75V2c0-.42.33-.75.75-.75Z"/><path d="M12.37 7.58c-.1-.08-.23-.08-.32 0l-1.73 1.37c-.06.04-.1.11-.1.19v2.35c0 .13.11.25.25.25h3.44c.13 0 .25-.12.25-.25V9.13c0-.08-.04-.15-.1-.2l-1.73-1.38ZM11.12 6.4c.63-.51 1.54-.51 2.17 0l1.72 1.37c.41.33.66.83.66 1.36v2.35c0 .96-.79 1.75-1.75 1.75h-3.45c-.97 0-1.75-.79-1.75-1.75V9.12c0-.54.24-1.04.66-1.37l1.72-1.38Z"/></g></svg>