<svg viewBox="0 0 24 24" xmlns="http://www.w3.org/2000/svg"><g fill-rule="evenodd"><path d="M14.5 1.25c-.42 0-.75.33-.75.75v4c0 .41.33.75.75.75 .41 0 .75-.34.75-.75V2c0-.42-.34-.75-.75-.75Zm0 10c-.42 0-.75.33-.75.75v10c0 .41.33.75.75.75 .41 0 .75-.34.75-.75V12c0-.42-.34-.75-.75-.75Z"/><path d="M19.25 22c0-.42-.34-.75-.75-.75h-8c-.42 0-.75.33-.75.75 0 .41.33.75.75.75h8c.41 0 .75-.34.75-.75Z"/><path d="M19.25 6c0-.42-.34-.75-.75-.75H8.75c-.24 0-.46.11-.6.3l-2.25 3c-.2.26-.2.63 0 .9l2.25 3c.14.18.36.3.6.3h.75c.41 0 .75-.34.75-.75 0-.42-.34-.75-.75-.75h-.375L7.43 9l1.68-2.25h8.625v4.5h-4.25c-.42 0-.75.33-.75.75 0 .41.33.75.75.75h5c.41 0 .75-.34.75-.75V6Z"/></g></svg>