<svg viewBox="0 0 24 24" xmlns="http://www.w3.org/2000/svg"><g fill-rule="evenodd"><path d="M7.25 6c0-.42.33-.75.75-.75h8c.41 0 .75.33.75.75v4c0 2.07-1.68 3.75-3.75 3.75h-2c-2.08 0-3.75-1.68-3.75-3.75V6Zm1.5.75V10c0 1.24 1 2.25 2.25 2.25h2c1.24 0 2.25-1.01 2.25-2.25V6.75h-6.5Z"/><path d="M7.25 4c0-1.52 1.23-2.75 2.75-2.75h4c1.51 0 2.75 1.23 2.75 2.75v2c0 .41-.34.75-.75.75H8c-.42 0-.75-.34-.75-.75V4ZM10 2.75c-.7 0-1.25.55-1.25 1.25v1.25h6.5V4c0-.7-.56-1.25-1.25-1.25h-4Z"/><path d="M3.19 17.14c.84-1.48 2.41-2.4 4.12-2.4h9.35c1.7 0 3.27.91 4.12 2.39l.58 1.02c.23.41.36.88.36 1.36v2.46c0 .41-.34.75-.75.75h-2c-.42 0-.75-.34-.75-.75 0-.42.33-.75.75-.75h1.25V19.5c0-.22-.06-.44-.17-.63l-.59-1.03c-.58-1.02-1.66-1.64-2.83-1.64H7.27c-1.17 0-2.25.62-2.83 1.63l-.59 1.02c-.11.18-.17.4-.17.62v1.71h11.25c.41 0 .75.33.75.75 0 .41-.34.75-.75.75h-12c-.42 0-.75-.34-.75-.75v-2.47c0-.48.12-.95.36-1.37l.58-1.03Z"/><path d="M5.75 6c0-.42.33-.75.75-.75h11c.41 0 .75.33.75.75 0 .41-.34.75-.75.75h-11c-.42 0-.75-.34-.75-.75Z"/><path d="M9 14.75c.41 0 .75.33.75.75V18c0 .13.11.25.25.25h4c.13 0 .25-.12.25-.25v-2.5c0-.42.33-.75.75-.75 .41 0 .75.33.75.75V18c0 .96-.79 1.75-1.75 1.75h-4c-.97 0-1.75-.79-1.75-1.75v-2.5c0-.42.33-.75.75-.75Z"/><path d="M12 18.25c.41 0 .75.33.75.75v3c0 .41-.34.75-.75.75 -.42 0-.75-.34-.75-.75v-3c0-.42.33-.75.75-.75Z"/><path d="M12 1.25c.41 0 .75.33.75.75v1.5c0 .41-.34.75-.75.75 -.42 0-.75-.34-.75-.75V2c0-.42.33-.75.75-.75Z"/></g></svg>