<svg viewBox="0 0 24 24" xmlns="http://www.w3.org/2000/svg"><g fill-rule="evenodd"><path d="M1.25 7c0-.42.33-.75.75-.75h2.5c.41 0 .75.33.75.75v11c0 .41-.34.75-.75.75H2c-.42 0-.75-.34-.75-.75v-3.5c0-.42.33-.75.75-.75 .41 0 .75.33.75.75v2.75h1v-9.5h-1v2.75c0 .41-.34.75-.75.75 -.42 0-.75-.34-.75-.75V7Z"/><path d="M18.75 7c0-.42.33-.75.75-.75H22c.41 0 .75.33.75.75v11c0 .41-.34.75-.75.75h-2.5c-.42 0-.75-.34-.75-.75V7Zm1.5.75v9.5h1v-9.5h-1Z"/><path d="M12 5.25c.41 0 .75.33.75.75v11.5c0 .41-.34.75-.75.75 -.42 0-.75-.34-.75-.75V6c0-.42.33-.75.75-.75Z"/><path d="M8 6.75c.41 0 .75.33.75.75v10c0 .41-.34.75-.75.75 -.42 0-.75-.34-.75-.75v-10c0-.42.33-.75.75-.75Z"/><path d="M16 6.75c.41 0 .75.33.75.75v10c0 .41-.34.75-.75.75 -.42 0-.75-.34-.75-.75v-10c0-.42.33-.75.75-.75Z"/><path d="M12 6.75c-1.67 0-3.05.72-3.75 1.71 -.08.1-.18.19-.3.24L5.23 9.96v6.77h13.5V9.95l-2.72-1.27c-.12-.06-.22-.14-.3-.25 -.7-.99-2.08-1.72-3.75-1.72Zm-4.85.68C8.19 6.08 10 5.24 11.99 5.24c1.99 0 3.79.83 4.84 2.18L19.8 8.8c.26.12.43.38.43.67v8c0 .41-.34.75-.75.75h-15c-.42 0-.75-.34-.75-.75v-8c0-.3.16-.56.43-.68L7.13 7.4Z"/></g></svg>