<svg viewBox="0 0 24 24" xmlns="http://www.w3.org/2000/svg"><g fill-rule="evenodd"><path d="M5.25 13c0-.42.33-.75.75-.75h7c.41 0 .75.33.75.75 0 .41-.34.75-.75.75H6c-.42 0-.75-.34-.75-.75Z"/><path d="M7 12.25c.41 0 .75.33.75.75v2.79c0 .41-.34.75-.75.75 -.42 0-.75-.34-.75-.75v-2.8c0-.42.33-.75.75-.75Z"/><path d="M10 12.25c.41 0 .75.33.75.75v2.79c0 .41-.34.75-.75.75 -.42 0-.75-.34-.75-.75v-2.8c0-.42.33-.75.75-.75Z"/><path d="M15 11.75c-.7 0-1.25.55-1.25 1.25 0 .69.55 1.25 1.25 1.25 .69 0 1.25-.56 1.25-1.25 0-.7-.56-1.25-1.25-1.25ZM12.25 13c0-1.52 1.23-2.75 2.75-2.75 1.51 0 2.75 1.23 2.75 2.75 0 1.51-1.24 2.75-2.75 2.75 -1.52 0-2.75-1.24-2.75-2.75Z"/><path d="M12.76 3.54c-.46-.36-1.09-.36-1.54 0L4.21 8.98c-.31.23-.49.6-.49.98v10.02c0 .69.55 1.25 1.24 1.25h5c.41 0 .75.33.75.75 0 .41-.34.75-.75.75H4.95c-1.52 0-2.75-1.24-2.75-2.75V9.95c0-.85.39-1.65 1.06-2.18l7-5.45c.99-.78 2.38-.78 3.37-.001l7 5.44c.66.52 1.06 1.32 1.06 2.17v10.02c0 1.51-1.24 2.75-2.75 2.75h-5c-.42 0-.75-.34-.75-.75 0-.42.33-.75.75-.75h5c.69 0 1.25-.56 1.25-1.25V9.91c0-.39-.18-.75-.49-.99l-7-5.45Z"/></g></svg>