<svg viewBox="0 0 24 24" xmlns="http://www.w3.org/2000/svg"><g fill-rule="evenodd"><path d="M4.25 2c0-.42.33-.75.75-.75h14c.41 0 .75.33.75.75v20c0 .41-.34.75-.75.75H5c-.42 0-.75-.34-.75-.75v-8c0-.42.33-.75.75-.75 .41 0 .75.33.75.75v7.25h12.5V2.75H5.75V10c0 .41-.34.75-.75.75 -.42 0-.75-.34-.75-.75V2Z"/><path d="M12.39 5.71c-.1-.1-.26-.1-.35 0L10.81 6.9c-.05.04-.08.11-.08.17v1.91c0 .13.11.25.25.25h2.44c.13 0 .25-.12.25-.25V7.06c0-.07-.03-.14-.08-.18l-1.23-1.2Zm-1.4-1.08c.67-.67 1.76-.67 2.44 0l1.22 1.19c.33.32.52.78.52 1.25v1.91c0 .96-.79 1.75-1.75 1.75h-2.45c-.97 0-1.75-.79-1.75-1.75V7.06c0-.48.19-.93.52-1.26l1.22-1.2Z"/><path d="M7.25 13c0-.42.33-.75.75-.75h8c.41 0 .75.33.75.75 0 .41-.34.75-.75.75H8c-.42 0-.75-.34-.75-.75Z"/><path d="M7.25 16c0-.42.33-.75.75-.75h8c.41 0 .75.33.75.75 0 .41-.34.75-.75.75H8c-.42 0-.75-.34-.75-.75Z"/><path d="M7.25 19c0-.42.33-.75.75-.75h8c.41 0 .75.33.75.75 0 .41-.34.75-.75.75H8c-.42 0-.75-.34-.75-.75Z"/></g></svg>