<svg viewBox="0 0 24 24" xmlns="http://www.w3.org/2000/svg"><g fill="#3747D6" fill-rule="evenodd"><path d="M12 4c4.41 0 8 3.58 8 8v8h-8c-4.42 0-8-3.59-8-8 0-4.42 3.58-8 8-8Zm10 8c0-5.53-4.48-10-10-10C6.47 2 2 6.47 2 12c0 5.52 4.47 10 10 10h9c.55 0 1-.45 1-1v-9Z"/><g fill="#9545ED"><path d="M12.28 10.03c-.56 0-1 .44-1 1 0 .55.44 1 1 1 .55 0 1-.45 1-1 0-.56-.45-1-1-1Zm-3 1c0-1.66 1.34-3 2.99-3 1.65 0 3 1.34 3 3 0 1.65-1.35 3-3 3 -1.66 0-3-1.35-3-3Z"/><path d="M12.28 14.03c-1.11 0-2 .89-2 2h-2c0-2.21 1.79-4 3.99-4s4 1.79 4 4h-2c0-1.11-.9-2-2-2Z"/></g></g></svg>