<svg viewBox="0 0 24 24" xmlns="http://www.w3.org/2000/svg"><g fill="#3747D6" fill-rule="evenodd"><path d="M12 4c4.41 0 8 3.58 8 8 0 1.26-.3 2.46-.82 3.52 -.15.29-.2.63-.13.97l.66 3.24 -3.38-.64c-.33-.07-.65-.02-.93.12 -1.04.49-2.2.76-3.43.76 -4.42 0-8-3.59-8-8 0-4.42 3.58-8 8-8Zm10 8c0-5.53-4.48-10-10-10C6.47 2 2 6.47 2 12c0 5.52 4.47 10 10 10 1.47 0 2.87-.32 4.13-.9l3.94.73c1.04.19 1.95-.74 1.74-1.78l-.79-3.81c.61-1.3.95-2.74.95-4.27Z"/><g fill="#9545ED"><path d="M12 9c-1.66 0-3 1.34-3 3 0 1.65 1.34 3 3 3 1.65 0 3-1.35 3-3 0-1.66-1.35-3-3-3Zm-5 3c0-2.77 2.23-5 5-5 2.76 0 5 2.23 5 5 0 2.76-2.24 5-5 5 -2.77 0-5-2.24-5-5Z"/><path d="M8.46 8.46c.39-.4 1.02-.4 1.41 0l5.65 5.65c.39.39.39 1.02 0 1.41 -.4.39-1.03.39-1.42 0L8.44 9.86c-.4-.4-.4-1.03 0-1.42Z"/></g></g></svg>