<svg viewBox="0 0 24 24" xmlns="http://www.w3.org/2000/svg"><g fill="#3747D6" fill-rule="evenodd"><path d="M2 6c0-1.66 1.34-3 3-3h14c1.65 0 3 1.34 3 3v14c0 .36-.21.7-.53.88 -.33.17-.72.15-1.03-.05l-4.25-2.84H4.99c-1.66 0-3-1.35-3-3v-9Zm3-1c-.56 0-1 .44-1 1v9c0 .55.44 1 1 1h11.5c.19 0 .39.05.55.16l2.94 1.96V5.98c0-.56-.45-1-1-1h-14Z"/><path fill="#9545ED" d="M12 5.5c.43 0 .81.27.95.69l.78 2.41h2.54c.43 0 .81.27.95.69 .13.41-.02.86-.37 1.11l-2.06 1.49 .78 2.41c.13.41-.02.86-.37 1.11 -.36.25-.83.25-1.18 0l-2.06-1.5L9.9 15.4c-.36.25-.83.25-1.18 0 -.36-.26-.5-.71-.37-1.12l.78-2.42 -2.06-1.5c-.36-.26-.5-.71-.37-1.12 .13-.42.51-.7.95-.7h2.54l.78-2.42c.13-.42.51-.7.95-.7Zm0 4.23l-.06.18c-.14.41-.52.69-.96.69h-.2l.15.11c.35.25.49.7.36 1.11l-.06.18 .15-.12c.35-.26.82-.26 1.17 0l.15.11 -.06-.19c-.14-.42.01-.87.36-1.12l.15-.12h-.2c-.44 0-.82-.28-.96-.7l-.06-.19Z"/></g></svg>