<svg viewBox="0 0 24 24" xmlns="http://www.w3.org/2000/svg"><g fill="#3747D6" fill-rule="evenodd"><path d="M12 4c4.41 0 8 3.58 8 8v8h-8c-4.42 0-8-3.59-8-8 0-4.42 3.58-8 8-8Zm10 8c0-5.53-4.48-10-10-10C6.47 2 2 6.47 2 12c0 5.52 4.47 10 10 10h9c.55 0 1-.45 1-1v-9Z"/><path fill="#9545ED" d="M8.06 13.77c-1.37-1.37-1.37-3.59 0-4.95 1.15-1.16 2.9-1.34 4.24-.55 1.34-.79 3.09-.61 4.24.54 1.36 1.36 1.36 3.58 0 4.94L13 17.28c-.4.39-1.03.39-1.42 0l-3.54-3.54Zm1.41-3.54c-.59.58-.59 1.53 0 2.12l2.82 2.82 2.82-2.83c.58-.59.58-1.54 0-2.13 -.59-.59-1.54-.59-2.13 0 -.4.39-1.03.39-1.42 0 -.59-.59-1.54-.59-2.13 0Z"/></g></svg>