<svg viewBox="0 0 24 24" xmlns="http://www.w3.org/2000/svg"><g fill-rule="evenodd"><path d="M4 9.85c0-1.33 1.07-2.4 2.4-2.4 1.32 0 2.4 1.07 2.4 2.4v4.44h-2V9.84c0-.23-.18-.4-.4-.4 -.23 0-.4.17-.4.4v4.94H4V9.83Z"/><path d="M6 14.8v2.72c0 1.65 1.34 3 3 3h6c1.65 0 3-1.35 3-3V14.8h2v2.72c0 2.76-2.24 5-5 5H9c-2.77 0-5-2.24-5-5V14.8h2Z"/><path d="M9.59 10.72c0-1.33 1.07-2.41 2.39-2.41s2.4 1.07 2.4 2.4v2.58h-2v-2.58c0-.23-.18-.4-.4-.4 -.23 0-.4.17-.4.4v2.58h-2v-2.58Z"/><path d="M12.4 11.22c0-1.33 1.07-2.41 2.4-2.41 1.32 0 2.4 1.07 2.4 2.4v2.08h-2v-2.08c0-.23-.18-.4-.4-.4 -.23 0-.4.17-.4.4v2.08h-2v-2.08Z"/><path d="M15.2 12.22c0-1.33 1.07-2.41 2.4-2.41 1.32 0 2.4 1.07 2.4 2.4v2.58h-2v-2.58c0-.23-.18-.4-.4-.4 -.23 0-.4.17-.4.4v1.08h-2v-1.08Z"/><path d="M6.79 3.87c0-1.33 1.07-2.4 2.4-2.4 1.32 0 2.4 1.07 2.4 2.4v9.42h-2V3.86c0-.23-.18-.4-.4-.4 -.23 0-.4.17-.4.4v11.42h-2V3.86Z"/></g></svg>