<svg viewBox="0 0 24 24" xmlns="http://www.w3.org/2000/svg"><g fill-rule="evenodd"><path d="M1 9.5c0-1.11.89-2 2-2h18c1.1 0 2 .89 2 2v11c0 1.1-.9 2-2 2H3c-1.11 0-2-.9-2-2v-11Zm20 0H3v11h18v-11Z"/><path d="M22 13H2v-2h20v2Z"/><path d="M11 19H5v-2h6v2Z"/><path d="M18 17c-.28 0-.5.22-.5.5 0 .27.22.5.5.5 .27 0 .5-.23.5-.5 0-.28-.23-.5-.5-.5Zm-2.5.5c0-1.39 1.11-2.5 2.5-2.5 1.38 0 2.5 1.11 2.5 2.5 0 1.38-1.12 2.5-2.5 2.5 -1.39 0-2.5-1.12-2.5-2.5Z"/><path d="M21.7 4.7c.39-.4.39-1.03 0-1.42l-2-2 -1.42 1.41 .29.29h-2.59v2h2.58l-.3.29 1.41 1.41 2-2Z"/></g></svg>