<svg viewBox="0 0 24 24" xmlns="http://www.w3.org/2000/svg"><g fill-rule="evenodd"><path d="M15 10.5C15 9.11 16.11 8 17.5 8c1.38 0 2.5 1.11 2.5 2.5v3c0 1.38-1.12 2.5-2.5 2.5 -1.39 0-2.5-1.12-2.5-2.5v-3Zm2.5-.5c-.28 0-.5.22-.5.5v3c0 .27.22.5.5.5 .27 0 .5-.23.5-.5v-3c0-.28-.23-.5-.5-.5Z"/><path d="M4 17.5C4 16.11 5.11 15 6.5 15 7.88 15 9 16.11 9 17.5v3C9 21.88 7.88 23 6.5 23 5.11 23 4 21.88 4 20.5v-3Zm2.5-.5c-.28 0-.5.22-.5.5v3c0 .27.22.5.5.5 .27 0 .5-.23.5-.5v-3c0-.28-.23-.5-.5-.5Z"/><path d="M10 3.5C10 2.11 11.11 1 12.5 1 13.88 1 15 2.11 15 3.5v3C15 7.88 13.88 9 12.5 9 11.11 9 10 7.88 10 6.5v-3Zm2.5-.5c-.28 0-.5.22-.5.5v3c0 .27.22.5.5.5 .27 0 .5-.23.5-.5v-3c0-.28-.23-.5-.5-.5Z"/><path d="M11 6H2V4h9v2Zm11 0h-8V4h8v2Z"/><path d="M16 13H2v-2h14v2Zm6 0h-3v-2h3v2Z"/><path d="M5 20H2v-2h3v2Zm17 0H8v-2h14v2Z"/></g></svg>