<svg viewBox="0 0 24 24" xmlns="http://www.w3.org/2000/svg"><g fill-rule="evenodd"><path d="M9 19c0-.56.44-1 1-1h10c.55 0 1 .44 1 1v3c0 .55-.45 1-1 1H10c-.56 0-1-.45-1-1v-3Zm2 1v1h8v-1h-8Z"/><path d="M15 1c.35 0 .67.18.85.48l6 10c.14.23.18.52.1.78l-2 7c-.13.42-.52.72-.97.72h-8c-.45 0-.84-.3-.97-.73l-2.01-7c-.08-.27-.04-.56.1-.79l5.99-10c.18-.31.5-.49.85-.49Zm-4.92 11.14l1.67 5.85h6.49l1.67-5.86 -4.92-8.2 -4.92 8.19Z"/><path d="M15 12c-.28 0-.5.22-.5.5 0 .27.22.5.5.5 .27 0 .5-.23.5-.5 0-.28-.23-.5-.5-.5Zm-2.5.5c0-1.39 1.11-2.5 2.5-2.5 1.38 0 2.5 1.11 2.5 2.5 0 1.38-1.12 2.5-2.5 2.5 -1.39 0-2.5-1.12-2.5-2.5Z"/><path d="M16 2v9h-2V2h2Z"/><path d="M8 7H3V5h5v2Z"/></g></svg>