<svg viewBox="0 0 24 24" xmlns="http://www.w3.org/2000/svg"><g fill-rule="evenodd"><path d="M1 2c0-.56.44-1 1-1h20c.55 0 1 .44 1 1v20c0 .55-.45 1-1 1H2c-.56 0-1-.45-1-1V2Zm2 1v18h18V3H3Z"/><path d="M9.05 7.4c-1.27-.77-2.85-.77-4.12 0L2.5 8.85 1.47 7.13l2.42-1.46c1.9-1.15 4.27-1.15 6.17 0l4.855 2.91c1.26.76 2.84.76 4.116 0l2.42-1.46 1.029 1.71 -2.43 1.45c-1.91 1.14-4.28 1.14-6.18 0L9.01 7.36Z"/><path d="M7.4 14.942c-.77 1.26-.77 2.84 0 4.116l1.45 2.42 -1.72 1.029 -1.46-2.43c-1.15-1.91-1.15-4.28 0-6.18l2.91-4.86c.76-1.27.76-2.85 0-4.12L7.12 2.48 8.83 1.45l1.45 2.42c1.14 1.9 1.14 4.27 0 6.17l-2.92 4.85Z"/><path d="M15.4 14.942c-.77 1.26-.77 2.84 0 4.116l1.45 2.42 -1.72 1.029 -1.46-2.43c-1.15-1.91-1.15-4.28 0-6.18l2.91-4.86c.76-1.27.76-2.85 0-4.12l-1.46-2.43 1.71-1.029 1.45 2.42c1.14 1.9 1.14 4.27 0 6.17l-2.92 4.85Z"/><path d="M9.05 15.401c-1.27-.76-2.85-.76-4.12 0l-2.43 1.45 -1.03-1.72 2.42-1.46c1.9-1.15 4.27-1.15 6.17 0l4.855 2.91c1.26.76 2.84.76 4.116 0l2.42-1.46 1.029 1.71 -2.43 1.45c-1.91 1.14-4.28 1.14-6.18 0l-4.86-2.92Z"/></g></svg>