<svg viewBox="0 0 24 24" xmlns="http://www.w3.org/2000/svg"><g fill-rule="evenodd"><path d="M11.26 14.31c.18-.21.45-.32.73-.32h6c.27 0 .54.11.73.31 .18.2.28.47.26.75l-.5 7c-.04.52-.48.92-1 .92h-5c-.53 0-.97-.41-1-.93l-.5-7c-.02-.28.07-.55.26-.76Zm1.8 1.68l.35 5h3.13l.35-5h-3.86Z"/><path d="M15.76 1.36l-.77.63c.76-.64.76-.64.76-.64l0 0 0 0 .01.02c.01.01.03.04.06.08 .05.06.13.16.23.29 .19.25.46.61.77 1.04 .6.86 1.36 2.06 1.93 3.32 .99 2.2 1.2 4.52 1.2 5.61 0 1.39-.6 2.49-1.58 3.23 -.95.7-2.18 1.01-3.43 1.01 -1.26 0-2.49-.31-3.43-1.02 -.98-.74-1.58-1.85-1.58-3.24 0-.46.16-.94.33-1.34 .17-.43.41-.89.66-1.36 .13-.25.26-.5.4-.74 .39-.73.8-1.47 1.13-2.19 .51-1.13.88-2.23 1.13-3.04 .12-.41.21-.74.27-.97 .02-.12.05-.21.06-.27 0-.03.01-.06.01-.07l0-.02 0-.01c.08-.38.37-.67.74-.76 .37-.09.76.03 1 .33Zm-.37 2.86c-.26.78-.61 1.74-1.06 2.732 -.37.8-.83 1.64-1.24 2.38 -.13.23-.26.45-.37.66 -.25.45-.45.84-.59 1.17 -.07.16-.12.29-.15.39 -.02.05-.03.09-.03.11 -.01.02-.01.04-.01.04 0 .76.3 1.27.77 1.63 .5.37 1.27.61 2.22.61 .95 0 1.72-.24 2.22-.62 .47-.36.77-.87.77-1.64 0-.92-.19-2.93-1.03-4.79 -.45-.99-1.04-1.96-1.57-2.732Z"/><path d="M7.78 3.37l-.79.62 -.79-.63c.18-.24.47-.38.78-.38 .3 0 .59.13.78.37ZM6.99 5.7c-.06.07-.11.15-.16.24 -.24.37-.47.75-.63 1.1 -.18.37-.23.6-.23.69 0 .8.55 1.25 1 1.25 .44 0 1-.45 1-1.25 0-.09-.05-.32-.23-.7 -.17-.36-.39-.74-.63-1.11 -.06-.09-.11-.17-.16-.25Zm0-1.71c-.79-.63-.79-.63-.79-.63l-.01 0 -.01 0 -.02.02c-.02.02-.04.05-.07.08 -.06.07-.15.18-.24.31 -.2.26-.46.63-.73 1.05 -.27.41-.54.88-.76 1.35 -.21.44-.41.99-.41 1.52 0 1.68 1.23 3.25 3 3.25 1.76 0 3-1.57 3-3.25 0-.54-.21-1.09-.41-1.53 -.22-.47-.5-.95-.76-1.36 -.27-.42-.53-.79-.73-1.06 -.1-.14-.19-.25-.24-.32 -.03-.04-.06-.07-.07-.09l-.02-.03 -.01-.01 -.01-.01c-.01-.01 0 0-.79.62Z"/></g></svg>