<svg viewBox="0 0 24 24" xmlns="http://www.w3.org/2000/svg"><g fill="#9545ED" fill-rule="evenodd"><path d="M12 14.5c-1.11 0-2 .89-2 2 0 1.1.89 2 2 2 1.1 0 2-.9 2-2 0-1.11-.9-2-2-2Zm-4 2c0-2.21 1.79-4 4-4 2.2 0 4 1.79 4 4 0 2.2-1.8 4-4 4 -2.21 0-4-1.8-4-4Z"/><g fill="#3747D6"><path d="M1 2c0-.56.44-1 1-1h20c.55 0 1 .44 1 1v20c0 .55-.45 1-1 1H2c-.56 0-1-.45-1-1V2Zm2 1v18h18V3H3Z"/><path d="M7 8.5c0-.56.44-1 1-1h1.5c1.1 0 2 .89 2 2v1c0 1.1-.9 2-2 2H8c-.56 0-1-.45-1-1v-3Zm2 1v1h.5v-1H9Z"/><path d="M12.5 9.5c0-1.11.89-2 2-2H16c.55 0 1 .44 1 1v3c0 .55-.45 1-1 1h-1.5c-1.11 0-2-.9-2-2v-1Zm2.5 0h-.5v1h.5v-1Z"/><path d="M11 5.5c-1.11 0-2 .89-2 2V10H7V7.5c0-2.21 1.79-4 4-4h2c2.2 0 4 1.79 4 4V10h-2V7.5c0-1.11-.9-2-2-2h-2Z"/></g></g></svg>