<svg viewBox="0 0 24 24" xmlns="http://www.w3.org/2000/svg"><g fill="#3747D6" fill-rule="evenodd"><path d="M7 22c0 .55.44 1 1 1h5c.55 0 1-.45 1-1v-3c0-.56-.45-1-1-1H8c-.56 0-1 .44-1 1v3Zm2-1v-1h3v1H9Z"/><path d="M18 2v9c0 .55-.45 1-1 1h-3v-2h2V2h2Z"/><path d="M22.848 9.53l-5 8c-.19.29-.51.47-.85.47h-3v-2h2.44l4.7-7.53 1.69 1.06Z"/><path fill="#9545ED" d="M3 9c0-.56.44-1 1-1h10c.55 0 1 .44 1 1v10c0 .55-.45 1-1 1H4c-.56 0-1-.45-1-1V9Zm2 1v8h8v-8H5Z"/><path d="M3 8H2V6h2c.55 0 1 .44 1 1v14H3V8Z"/></g></svg>