<svg viewBox="0 0 24 24" xmlns="http://www.w3.org/2000/svg"><g fill="#9545ED" fill-rule="evenodd"><path d="M10 19c0-.56.44-1 1-1h5c.55 0 1 .44 1 1v3c0 .55-.45 1-1 1h-5c-.56 0-1-.45-1-1v-3Zm2 1v1h3v-1h-3Z"/><path fill="#3747D6" d="M3 2c0-.56.44-1 1-1h16c.55 0 1 .44 1 1v16c0 .55-.45 1-1 1h-.5v3c0 .55-.45 1-1 1H11c-.56 0-1-.45-1-1v-2H9v2c0 .55-.45 1-1 1H5.5c-.56 0-1-.45-1-1v-3H4c-.56 0-1-.45-1-1V2Zm2 15h.5c.55 0 1 .44 1 1v3H7v-2c0-.56.44-1 1-1h3c.55 0 1 .44 1 1v2h5.5v-3c0-.56.44-1 1-1h.5V3H5v14Z"/><path d="M12.61 3.57c.37-.16.8-.07 1.08.21l3 3c.39.39.39 1.02 0 1.41l-2.3 2.29 2.29 2.29c.39.39.39 1.02 0 1.41l-3 3c-.29.28-.72.37-1.09.21 -.38-.16-.62-.52-.62-.93v-3.59l-3.3 3.29 -1.42-1.42 4.33-4.34 -4.34-4.25 1.39-1.43 3.3 3.23V4.43c0-.41.24-.77.61-.93Zm1.38 9.33l.58.58 -.59.58v-1.18Zm0-4.83V6.89l.58.58 -.59.58Z"/></g></svg>