<svg viewBox="0 0 24 24" xmlns="http://www.w3.org/2000/svg"><g fill="#9545ED" fill-rule="evenodd"><path d="M11.44 14.16c.33-.23.77-.23 1.1 0l3 2c.27.18.44.49.44.83v3.5h-2v-2.97l-2-1.34 -2 1.33v2.96h-2v-3.5c0-.34.16-.65.44-.84l3-2Z"/><path fill="#3747D6" d="M7.16 1.44c.18-.28.49-.45.83-.45h2.5c.55 0 1 .44 1 1v6.5h-2v-5.5h-.97l-1.54 2.3v7.19c0 .09-.02.18-.04.27l-.97 3.36v2.2l6 2.57 6-2.58v-2.21L17 12.72c-.03-.09-.04-.19-.04-.28v-7.2l-1.54-2.31h-.97v5.5h-2v-6.5c0-.56.44-1 1-1h2.5c.33 0 .64.16.83.44l2 3c.1.16.16.35.16.55v7.35l.96 3.36c.02.08.03.18.03.27v3c0 .4-.24.76-.61.91l-7 3c-.26.1-.54.1-.79 0l-7.01-3c-.37-.16-.61-.52-.61-.92v-3c0-.1.01-.19.03-.28l.96-3.37V4.88c0-.2.05-.4.16-.56l2-3Z"/><path d="M9.5 7.5C9.5 6.11 10.61 5 12 5c1.38 0 2.5 1.11 2.5 2.5v2c0 1.38-1.12 2.5-2.5 2.5 -1.39 0-2.5-1.12-2.5-2.5v-2ZM12 7c-.28 0-.5.22-.5.5v2c0 .27.22.5.5.5 .27 0 .5-.23.5-.5v-2c0-.28-.23-.5-.5-.5Z"/></g></svg>