<svg viewBox="0 0 24 24" xmlns="http://www.w3.org/2000/svg"><g fill="#9545ED" fill-rule="evenodd"><path d="M2 16c0-.56.44-1 1-1h11c.55 0 1 .44 1 1v3c0 .55-.45 1-1 1H3c-.56 0-1-.45-1-1v-3Zm2 1v1h9v-1H4Z"/><path d="M16 16c0-.56.44-1 1-1h4c.55 0 1 .44 1 1v3c0 .55-.45 1-1 1h-4c-.56 0-1-.45-1-1v-3Zm2 1v1h2v-1h-2Z"/><path d="M1 6c0-.56.44-1 1-1h15c.4 0 .76.24.92.61 .15.37.06.8-.22 1.08l-3 3c-.19.18-.45.29-.71.29h-12c-.56 0-1-.45-1-1v-3Zm2 1v1h10.58l1-1H2.99Z"/><path fill="#3747D6" d="M16.29 5.29c.18-.19.44-.3.7-.3h5c.55 0 1 .44 1 1v10c0 .55-.45 1-1 1h-20c-.56 0-1-.45-1-1v-7c0-.56.44-1 1-1h11.58l2.7-2.71Zm1.12 1.7l-2.71 2.7c-.19.18-.45.29-.71.29h-11v5h18v-8H17.4Z"/></g></svg>