<svg viewBox="0 0 24 24" xmlns="http://www.w3.org/2000/svg"><g fill="#3747D6" fill-rule="evenodd"><path d="M6 16.5c0-.56.44-1 1-1h10c.55 0 1 .44 1 1v3c0 .55-.45 1-1 1H7c-.56 0-1-.45-1-1v-3Zm2 1v1h8v-1H8Z"/><g fill="#9545ED"><path d="M3 6.5c0-.56.44-1 1-1h18c.55 0 1 .44 1 1v10c0 .55-.45 1-1 1H4c-.56 0-1-.45-1-1v-10Zm2 1v8h16v-8H5Z"/><path d="M4 10.5h2.5v2H4v-2Zm5.5 0h2v2h-2v-2Zm5 0h2v2h-2v-2Zm5 0H22v2h-2.5v-2Z"/></g><path d="M3 6H2V4h2c.55 0 1 .44 1 1v14H3V6Z"/><path d="M18 11c-.28 0-.5.22-.5.5 0 .27.22.5.5.5 .27 0 .5-.23.5-.5 0-.28-.23-.5-.5-.5Zm-2.5.5c0-1.39 1.11-2.5 2.5-2.5 1.38 0 2.5 1.11 2.5 2.5 0 1.38-1.12 2.5-2.5 2.5 -1.39 0-2.5-1.12-2.5-2.5Z"/><path d="M13 11c-.28 0-.5.22-.5.5 0 .27.22.5.5.5 .27 0 .5-.23.5-.5 0-.28-.23-.5-.5-.5Zm-2.5.5c0-1.39 1.11-2.5 2.5-2.5 1.38 0 2.5 1.11 2.5 2.5 0 1.38-1.12 2.5-2.5 2.5 -1.39 0-2.5-1.12-2.5-2.5Z"/><path d="M8 11c-.28 0-.5.22-.5.5 0 .27.22.5.5.5 .27 0 .5-.23.5-.5 0-.28-.23-.5-.5-.5Zm-2.5.5C5.5 10.11 6.61 9 8 9c1.38 0 2.5 1.11 2.5 2.5 0 1.38-1.12 2.5-2.5 2.5 -1.39 0-2.5-1.12-2.5-2.5Z"/></g></svg>