<svg viewBox="0 0 24 24" xmlns="http://www.w3.org/2000/svg"><g fill="#9545ED" fill-rule="evenodd"><path d="M9 15c0-.56.44-1 1-1h4c.55 0 1 .44 1 1v4c0 .55-.45 1-1 1h-4c-.56 0-1-.45-1-1v-4Zm2 1v2h2v-2h-2Z"/><g fill="#3747D6"><path d="M1 2c0-.56.44-1 1-1h20c.55 0 1 .44 1 1v13c0 .55-.45 1-1 1H2c-.56 0-1-.45-1-1V2Zm2 1v11h18V3H3Z"/><path d="M7.16 18.44c.18-.28.49-.45.83-.45h8c.33 0 .64.16.83.44l2 3c.2.3.22.7.04 1.02 -.18.32-.52.52-.89.52h-12c-.37 0-.71-.21-.89-.53 -.18-.33-.16-.72.04-1.03l2-3Zm1.36 1.55l-.67 1h8.26l-.67-1H8.51Z"/></g></g></svg>