<svg viewBox="0 0 24 24" xmlns="http://www.w3.org/2000/svg"><g fill="#9545ED" fill-rule="evenodd"><path d="M11 6V2h2v4h-2Zm0 8v-3h2v3h-2Z"/><g fill="#3747D6"><path d="M4 5.5C4 3.01 6.01 1 8.5 1h7C17.98 1 20 3.01 20 5.5v8c0 .11-.02.22-.06.33l-1.83 5.16c-.85 2.39-3.12 4-5.66 4h-.93c-2.55 0-4.82-1.61-5.66-4.01l-1.83-5.17c-.04-.11-.06-.22-.06-.34v-8ZM8.5 3C7.11 3 6 4.11 6 5.5v7.82l1.76 5c.56 1.59 2.07 2.66 3.77 2.66h.92c1.69 0 3.2-1.07 3.77-2.67l1.76-5.01V5.47c0-1.39-1.12-2.5-2.5-2.5h-7Z"/><path d="M9.5 7.5C9.5 6.11 10.61 5 12 5c1.38 0 2.5 1.11 2.5 2.5v2c0 1.38-1.12 2.5-2.5 2.5 -1.39 0-2.5-1.12-2.5-2.5v-2ZM12 7c-.28 0-.5.22-.5.5v2c0 .27.22.5.5.5 .27 0 .5-.23.5-.5v-2c0-.28-.23-.5-.5-.5Z"/></g></g></svg>