<svg viewBox="0 0 24 24" xmlns="http://www.w3.org/2000/svg"><g fill="#9545ED" fill-rule="evenodd"><path d="M8 2v3H6V2h2Zm5 0v3h-2V2h2Zm5 0v3h-2V2h2Z"/><path d="M8 19v3H6v-3h2Zm5 0v3h-2v-3h2Zm5 0v3h-2v-3h2Z"/><path d="M2 6h3v2H2V6Zm0 5h3v2H2v-2Zm0 5h3v2H2v-2Z"/><path d="M19 6h3v2h-3V6Zm0 5h3v2h-3v-2Zm0 5h3v2h-3v-2Z"/><path d="M13.02 7c.4.01.76.26.9.64l1.52 4.07c.95 2.55-.94 5.27-3.66 5.27 -2.58 0-4.45-2.45-3.77-4.94l.49-1.83c.1-.37.4-.65.77-.72 .37-.08.75.07.98.38l.47.63 1.3-2.95c.16-.38.53-.61.94-.6Zm-3.1 5.74c-.23 1.15.66 2.25 1.87 2.25 1.33 0 2.25-1.33 1.78-2.58l-.67-1.79 -1.01 2.26c-.15.32-.45.54-.81.58 -.36.03-.7-.11-.92-.4l-.27-.36Z"/><path fill="#3747D6" d="M4 5c0-.56.44-1 1-1h14c.55 0 1 .44 1 1v14c0 .55-.45 1-1 1H5c-.56 0-1-.45-1-1V5Zm2 1v12h12V6H6Z"/></g></svg>