<svg viewBox="0 0 24 24" xmlns="http://www.w3.org/2000/svg"><g fill="#9545ED" fill-rule="evenodd"><path d="M7 13.5c0-.56.44-1 1-1h8c.55 0 1 .44 1 1v5c0 .55-.45 1-1 1H8c-.56 0-1-.45-1-1v-5Zm2 1v3h6v-3H9Z"/><path d="M18 11V8h2v3h-2Z"/><path fill="#3747D6" d="M1 5.5c0-.56.44-1 1-1h20c.55 0 1 .44 1 1v8c0 .55-.45 1-1 1H2c-.56 0-1-.45-1-1v-8Zm2 1v6h18v-6H3Z"/><path d="M8.5 6.5c-1.66 0-3 1.34-3 3 0 1.65 1.34 3 3 3 1.65 0 3-1.35 3-3 0-1.66-1.35-3-3-3Zm-5 3c0-2.77 2.23-5 5-5 2.76 0 5 2.23 5 5 0 2.76-2.24 5-5 5 -2.77 0-5-2.24-5-5Z"/></g></svg>