<svg viewBox="0 0 24 25" xmlns="http://www.w3.org/2000/svg"><g fill-rule="evenodd"><path d="M4 3.5c-.56 0-1 .44-1 1v16c0 .55.44 1 1 1h7v2H4c-1.66 0-3-1.35-3-3v-16c0-1.66 1.34-3 3-3h4.72c.75 0 1.47.28 2.02.78l4.77 4.37c.61.56.97 1.37.97 2.21v1.12h-2V8.85c0-.29-.12-.55-.33-.74L9.37 3.73c-.19-.17-.43-.27-.68-.27H3.96Z"/><path d="M8.5 6V2.5h2V6c0 .55.44 1 1 1H15v2h-3.5c-1.66 0-3-1.35-3-3Z"/><path d="M16 11.5c-1.66 0-3 1.34-3 3v8c0 .34.17.66.47.85 .29.18.66.19.97.04l3.55-1.78 3.55 1.77c.31.15.67.13.97-.05 .29-.19.47-.51.47-.86v-8c0-1.66-1.35-3-3-3h-4Z"/></g></svg>