<svg viewBox="0 0 24 25" xmlns="http://www.w3.org/2000/svg"><g fill-rule="evenodd"><path d="M4 3.49c-.56 0-1 .44-1 1v16c0 .55.44 1 1 1h4.5v2H4c-1.66 0-3-1.35-3-3v-16c0-1.66 1.34-3.01 3-3.01h4.72c.75 0 1.47.28 2.02.78l4.77 4.37c.61.56.97 1.37.97 2.21v.12h-2v-.13c0-.29-.12-.55-.33-.74L9.37 3.71c-.19-.17-.43-.27-.68-.27H3.96Z"/><path d="M8.5 6V2.5h2V6c0 .55.44 1 1 1H15v2h-3.5c-1.66 0-3-1.35-3-3Z"/><path d="M10 17c0-3.59 2.91-6.5 6.5-6.5 3.58 0 6.5 2.91 6.5 6.5 0 3.58-2.92 6.5-6.5 6.5 -3.59 0-6.5-2.92-6.5-6.5Zm8.34 3.03l2.5-4 -1.7-1.06 -1.73 2.76 -.625-.84c-.17-.22-.41-.36-.68-.4 -.27-.04-.54.04-.76.21l-.88.7v-1.92h-2v4c0 .38.22.73.56.9 .34.16.75.11 1.05-.13l1.69-1.36 .88 1.17c.19.26.51.41.84.39 .32-.02.63-.19.8-.47Z"/></g></svg>