<svg viewBox="0 0 24 25" xmlns="http://www.w3.org/2000/svg"><g fill-rule="evenodd"><path d="M9 16.5c0-3.87 3.13-7 7-7 3.86 0 7 3.13 7 7 0 3.86-3.14 7-7 7 -3.87 0-7-3.14-7-7Zm8.67-2.74c-.4-.37-1.01-.36-1.39.02l-2.42 2.41c-.57.56-.88 1.32-.88 2.12v.17c0 .55.44 1 1 1h.15c.8 0 1.58-.33 2.14-.91l2.41-2.48c.18-.2.29-.46.28-.73 -.01-.27-.13-.53-.33-.71l-1-.93Z"/><path d="M4 3.5c-.56 0-1 .44-1 1v16c0 .55.44 1 1 1h5.5v2H4c-1.66 0-3-1.35-3-3v-16c0-1.66 1.34-3 3-3h4.72c.75 0 1.47.28 2.02.78l4.77 4.37c.61.56.97 1.37.97 2.21v.12h-2v-.13c0-.29-.12-.55-.33-.74L9.37 3.73c-.19-.17-.43-.27-.68-.27H3.96Z"/><path d="M8.5 6V2.5h2V6c0 .55.44 1 1 1H15v2h-3.5c-1.66 0-3-1.35-3-3Z"/></g></svg>