<svg viewBox="0 0 24 25" xmlns="http://www.w3.org/2000/svg"><g fill-rule="evenodd"><path d="M4 3.5c-.56 0-1 .44-1 1v16c0 .55.44 1 1 1h4v2H4c-1.66 0-3-1.35-3-3v-16c0-1.66 1.34-3 3-3h4.72c.75 0 1.47.28 2.02.78l4.77 4.37c.61.56.97 1.37.97 2.21v1.62h-2V8.85c0-.29-.12-.55-.33-.74L9.37 3.73c-.19-.17-.43-.27-.68-.27H3.96Z"/><path d="M8.5 6V2.5h2V6c0 .55.44 1 1 1H15v2h-3.5c-1.66 0-3-1.35-3-3Z"/><path d="M8.72 13.776c1.35-1.19 3.28-2.276 5.77-2.276 2.49 0 4.42 1.09 5.77 2.276 1.34 1.17 2.16 2.47 2.46 3 .25.44.25.98 0 1.43 -.31.53-1.13 1.83-2.47 3 -1.36 1.18-3.29 2.276-5.78 2.276 -2.5 0-4.43-1.1-5.78-2.276 -1.35-1.18-2.17-2.48-2.47-3.01 -.26-.45-.26-.99 0-1.44 .3-.54 1.12-1.84 2.46-3.01Zm2.77 3.724c0-1.66 1.34-3 3-3 1.65 0 3 1.34 3 3 0 1.65-1.35 3-3 3 -1.66 0-3-1.35-3-3Z"/></g></svg>