<svg viewBox="0 0 24 25" xmlns="http://www.w3.org/2000/svg"><g fill-rule="evenodd"><path d="M4 3.5c-.56 0-1 .44-1 1v16c0 .55.44 1 1 1h4v2H4c-1.66 0-3-1.35-3-3v-16c0-1.66 1.34-3 3-3h4.72c.75 0 1.47.28 2.02.78l4.77 4.37c.61.56.97 1.37.97 2.21v1.62h-2V8.85c0-.29-.12-.55-.33-.74L9.37 3.73c-.19-.17-.43-.27-.68-.27H3.96Z"/><path d="M8.5 6V2.5h2V6c0 .55.44 1 1 1H15v2h-3.5c-1.66 0-3-1.35-3-3Z"/><path d="M9.5 13c0-.56.44-1 1-1H22c.55 0 1 .44 1 1v9.5c0 .55-.45 1-1 1H10.5c-.56 0-1-.45-1-1V13Zm2 1v7.5H21V14h-9.5Z"/><path d="M19.28 15.38c-.19-.24-.47-.39-.78-.39 -.31-.01-.6.12-.79.35l-1.9 2.27 -1.24-.93c-.375-.29-.9-.27-1.26.04l-3.5 3c-.23.19-.35.46-.35.75v2c0 .55.44 1 1 1h11.5c.55 0 1-.45 1-1v-2c0-.23-.08-.44-.22-.62l-3.5-4.5Z"/></g></svg>