<svg viewBox="0 0 24 25" xmlns="http://www.w3.org/2000/svg"><path fill-rule="evenodd" d="M12 6.5v-5H6c-1.66 0-3 1.34-3 3v16c0 1.65 1.34 3 3 3h12c1.65 0 3-1.35 3-3v-11h-6c-1.66 0-3-1.35-3-3Zm2 0V2.05c.07.05.14.1.21.16l5.73 4.91c.12.11.24.22.35.35h-5.31c-.56 0-1-.45-1-1Zm-2.5 4C9.01 10.5 7 12.51 7 15v3.5h2V15c0-1.39 1.11-2.5 2.5-2.5h.5c1.38 0 2.5 1.11 2.5 2.5v3.5c0 .82-.68 1.5-1.5 1.5 -.83 0-1.5-.68-1.5-1.5v-2.66c0-.19.15-.35.34-.35 .18 0 .34.15.34.34v2.15h2v-2.16c0-1.3-1.05-2.35-2.35-2.35s-2.35 1.04-2.35 2.34v2.65c0 1.93 1.56 3.5 3.5 3.5 1.93 0 3.5-1.57 3.5-3.5v-3.5c0-2.49-2.02-4.5-4.5-4.5h-.5Z"/></svg>