<svg viewBox="0 0 24 25" xmlns="http://www.w3.org/2000/svg"><path fill-rule="evenodd" d="M12 1.5v5c0 1.65 1.34 3 3 3h6v11c0 1.65-1.35 3-3 3H6c-1.66 0-3-1.35-3-3v-16c0-1.66 1.34-3 3-3h6Zm2 .55v4.44c0 .55.44 1 1 1h5.3c-.11-.13-.23-.25-.36-.36L14.2 2.21c-.07-.06-.14-.12-.22-.17ZM6.5 14.49c0-.56.44-1 1-1h1c0-1.66 1.34-3 3-3h1c1.65 0 3 1.34 3 3h1c.55 0 1 .44 1 1v1.06l-5.5.91 -5.5-.92v-1.07Zm7-1c0-.56-.45-1-1-1h-1c-.56 0-1 .44-1 1h3Zm-7 4.09v2.9c0 .55.44 1 1 1h9c.55 0 1-.45 1-1v-2.91l-5.34.88c-.11.01-.22.01-.33 0l-5.34-.89Z"/></svg>