<svg viewBox="0 0 24 25" xmlns="http://www.w3.org/2000/svg"><g fill-rule="evenodd"><path d="M6 3.5c-.56 0-1 .44-1 1v16c0 .55.44 1 1 1h12c.55 0 1-.45 1-1V9.41c0-.3-.13-.57-.35-.76l-5.74-4.92c-.19-.16-.42-.25-.66-.25H5.98Zm-3 1c0-1.66 1.34-3 3-3h6.26c.71 0 1.4.25 1.95.72l5.73 4.91c.66.56 1.04 1.4 1.04 2.27v11.08c0 1.65-1.35 3-3 3h-12c-1.66 0-3-1.35-3-3v-16Z"/><path d="M13.65 1.94c-.3-.26-.72-.32-1.07-.15 -.36.16-.59.51-.59.9v3.79c0 1.65 1.34 3 3 3h4.74c.41 0 .79-.27.93-.66 .14-.4.03-.84-.29-1.11l-6.75-5.8Z"/><path d="M11 10.22c0-.56.44-1 1-1 3.31 0 6 2.68 6 5.99s-2.69 6-6 6c-3.32 0-6-2.69-6-6 0-.56.44-1 1-1h4v-4Zm2 1.12v3.87c0 .55-.45 1-1 1H8.12c.44 1.72 2.01 3 3.87 3 2.2 0 4-1.8 4-4 0-1.87-1.28-3.43-3-3.88Z"/><path d="M12 16.22c.55 0 1-.45 1-1v-5c0-.56-.45-1-1-1 -3.32 0-6 2.68-6 5.99 0 .55.44 1 1 1h5Z"/></g></svg>