<svg viewBox="0 0 24 25" xmlns="http://www.w3.org/2000/svg"><g fill-rule="evenodd"><path d="M4 3.49c-.56 0-1 .44-1 1v16c0 .55.44 1 1 1h6.5v2H4c-1.66 0-3-1.35-3-3v-16c0-1.66 1.34-3 3-3h4.72c.75 0 1.47.28 2.02.78l4.77 4.37c.61.56.97 1.37.97 2.21v.12h-2v-.13c0-.29-.12-.55-.33-.74L9.37 3.72c-.19-.17-.43-.27-.68-.27H3.96Z"/><path d="M8.5 6V2.5h2V6c0 .55.44 1 1 1H15v2h-3.5c-1.66 0-3-1.35-3-3Z"/><path d="M16 9.49c-3.87 0-7 3.13-7 7 0 .55.44 1 1 1h6c.55 0 1-.45 1-1v-6c0-.56-.45-1.01-1-1.01Z"/><path d="M15 10.5c0-.56.44-1.01 1-1.01 3.86 0 7 3.13 7 7 0 3.86-3.14 7-7 7 -3.87 0-7-3.14-7-7 0-.56.44-1 1-1h5v-5Zm2 1.1v4.9c0 .55-.45 1-1 1h-4.9c.46 2.28 2.481 4 4.9 4 2.76 0 5-2.24 5-5 0-2.42-1.72-4.44-4-4.9Z"/></g></svg>