<svg viewBox="0 0 24 25" xmlns="http://www.w3.org/2000/svg"><path fill-rule="evenodd" d="M12 1.5v5c0 1.65 1.34 3 3 3h6v11c0 1.65-1.35 3-3 3H6c-1.66 0-3-1.35-3-3v-16c0-1.66 1.34-3 3-3h6Zm2 .55v4.44c0 .55.44 1 1 1h5.3c-.11-.13-.23-.25-.36-.36L14.2 2.21c-.07-.06-.14-.12-.22-.17Zm-3.25 9.94c-1.66 0-3 1.34-3 3 0 1.65 1.34 3 3 3 1.65 0 3-1.35 3-3 0-1.66-1.35-3-3-3Zm-5 3c0-2.77 2.23-5 5-5 2.76 0 5 2.23 5 5 0 1.01-.31 1.96-.83 2.75l3.03 3.03 -1.42 1.41 -3.04-3.04c-.8.52-1.74.82-2.76.82 -2.77 0-5-2.24-5-5Z"/></svg>