<svg viewBox="0 0 24 25" xmlns="http://www.w3.org/2000/svg"><g fill-rule="evenodd"><path d="M4 3.5c-.56 0-1 .44-1 1v16c0 .55.44 1 1 1h6.5v2H4c-1.66 0-3-1.35-3-3v-16c0-1.66 1.34-3 3-3h4.72c.75 0 1.47.28 2.02.78l4.77 4.37c.61.56.97 1.37.97 2.21v.12h-2v-.13c0-.29-.12-.55-.33-.74L9.37 3.73c-.19-.17-.43-.27-.68-.27H3.96Z"/><path d="M8.5 6V2.5h2V6c0 .55.44 1 1 1H15v2h-3.5c-1.66 0-3-1.35-3-3Z"/><path d="M10 17c0-3.59 2.91-6.5 6.5-6.5 3.58 0 6.5 2.91 6.5 6.5 0 3.58-2.92 6.5-6.5 6.5 -3.59 0-6.5-2.92-6.5-6.5Zm5.85-2.74l.87.73h-.24c-1.94 0-3.5 1.56-3.5 3.5v.5h2v-.5c0-.83.67-1.5 1.5-1.5h.23l-.88.73 1.28 1.53 3-2.5c.22-.19.35-.48.35-.77 0-.3-.14-.58-.36-.77l-3-2.5 -1.29 1.53Z"/></g></svg>