<svg viewBox="0 0 24 25" xmlns="http://www.w3.org/2000/svg"><g fill-rule="evenodd"><path d="M4 3.5c-.56 0-1 .44-1 1v16c0 .55.44 1 1 1h7v2H4c-1.66 0-3-1.35-3-3v-16c0-1.66 1.34-3 3-3h4.72c.75 0 1.47.28 2.02.78l4.77 4.37c.61.56.97 1.37.97 2.21v1.12h-2V8.85c0-.29-.12-.55-.33-.74L9.37 3.73c-.19-.17-.43-.27-.68-.27H3.96Z"/><path d="M8.5 6V2.5h2V6c0 .55.44 1 1 1H15v2h-3.5c-1.66 0-3-1.35-3-3Z"/><path d="M17.34 10.95c-.19-.29-.51-.46-.85-.46 -.35 0-.66.17-.85.45l-1.67 2.59 -2.98.78c-.33.08-.6.33-.7.65 -.11.32-.04.67.17.94l1.95 2.38 -.18 3.07c-.02.33.13.66.41.86 .27.2.63.24.95.12l2.86-1.12 2.86 1.11c.31.12.67.07.95-.13 .27-.21.43-.53.41-.87l-.18-3.08 1.95-2.39c.21-.27.28-.62.17-.95 -.11-.33-.37-.58-.7-.66l-2.98-.79 -1.67-2.6Z"/></g></svg>