<svg viewBox="0 0 24 25" xmlns="http://www.w3.org/2000/svg"><path fill-rule="evenodd" d="M12 6.5v-5H6c-1.66 0-3 1.34-3 3v16c0 1.65 1.34 3 3 3h12c1.65 0 3-1.35 3-3v-11h-6c-1.66 0-3-1.35-3-3Zm2 0V2.05c.07.05.14.1.21.16l5.73 4.91c.12.11.24.22.35.35h-5.31c-.56 0-1-.45-1-1ZM11.99 10c.34 0 .65.17.84.45l1.49 2.32 2.67.7c.32.08.59.33.69.65 .1.32.03.67-.18.94l-1.76 2.13 .15 2.75c.01.33-.14.66-.42.86 -.28.2-.64.24-.96.12l-2.58-1.01 -2.58 1c-.32.12-.68.07-.96-.13 -.28-.21-.44-.53-.42-.87l.15-2.76 -1.76-2.14c-.22-.27-.29-.62-.18-.95 .1-.33.36-.58.69-.66l2.67-.71 1.49-2.33c.18-.29.5-.46.84-.46Z"/></svg>