<svg viewBox="0 0 24 25" xmlns="http://www.w3.org/2000/svg"><path fill-rule="evenodd" d="M13 5.5v-4H7c-2.21 0-4 1.79-4 4v14c0 2.2 1.79 4 4 4h10c2.2 0 4-1.8 4-4v-10h-4c-2.21 0-4-1.8-4-4Zm2 0V2.08l5.41 5.41h-3.42c-1.11 0-2-.9-2-2Zm-.71 5.29l-6.01 6 1.41 1.41 5.99-6 -1.42-1.42Zm-4.8-.3c-.28 0-.5.22-.5.5 0 .27.22.5.5.5 .27 0 .5-.23.5-.5 0-.28-.23-.5-.5-.5Zm-2.5.5c0-1.39 1.11-2.5 2.5-2.5 1.38 0 2.5 1.11 2.5 2.5 0 1.38-1.12 2.5-2.5 2.5 -1.39 0-2.5-1.12-2.5-2.5Zm7 7c0-.28.22-.5.5-.5 .27 0 .5.22.5.5 0 .27-.23.5-.5.5 -.28 0-.5-.23-.5-.5Zm.5-2.5c-1.39 0-2.5 1.11-2.5 2.5 0 1.38 1.11 2.5 2.5 2.5 1.38 0 2.5-1.12 2.5-2.5 0-1.39-1.12-2.5-2.5-2.5Z"/></svg>