<svg viewBox="0 0 24 24" xmlns="http://www.w3.org/2000/svg"><g fill="#9545ED" fill-rule="evenodd"><path d="M9.55 16.18c.13-.41.51-.69.94-.69h3c.43 0 .81.27.94.68l1 3c.1.3.05.64-.14.9s-.49.41-.82.41h-5c-.33 0-.63-.16-.82-.42 -.19-.27-.24-.6-.14-.91l1-3Zm1.66 1.31l-.34 1h2.22l-.34-1h-1.56Z"/><path d="M14.5 9.05l.57-1.43 1.85.74 -.86 2.12 .85 2.12 -1.86.74 -.58-1.43v1.05h-2v-5h2v1.05Z"/><path d="M9 9.5V8H7v2.5c0 .55.44 1 1 1h2V13h2V8h-2v1.5H9Z"/><g fill="#3747D6"><path d="M1 4.5c0-.56.44-1 1-1h20c.55 0 1 .44 1 1v12c0 .55-.45 1-1 1H2c-.56 0-1-.45-1-1v-12Zm2 1v10h18v-10H3Z"/><path d="M3 18.5h18v2H3v-2Z"/></g></g></svg>