<svg viewBox="0 0 24 24" xmlns="http://www.w3.org/2000/svg"><g fill="#9545ED" fill-rule="evenodd"><path d="M3.03 18.27l-1-3.5 1.92-.55 1 3.5 -1.93.54Z"/><path d="M18 11.5c0-.83-.68-1.5-1.5-1.5V8c1.93 0 3.5 1.56 3.5 3.5 0 1.93-1.57 3.5-3.5 3.5v-2c.82 0 1.5-.68 1.5-1.5Z"/><path d="M21 11.5c0-2.21-1.8-4-4-4v-2c3.31 0 6 2.68 6 6 0 3.31-2.69 6-6 6v-2c2.2 0 4-1.8 4-4Z"/><g fill="#3747D6"><path d="M15.09 4.69c.25.18.4.48.4.8v12c0 .31-.16.61-.41.8 -.26.18-.59.24-.9.14l-9.51-3c-.42-.14-.7-.52-.7-.96v-6c0-.44.28-.83.69-.96l9.5-3c.3-.1.63-.05.89.14Zm-9.1 4.53v4.53l7.5 2.36V6.83l-7.5 2.36Z"/><path d="M6 8.5c0-.56-.45-1-1-1H2c-.56 0-1 .44-1 1v6c0 .55.44 1 1 1h3c.55 0 1-.45 1-1v-6Zm-2 1v4H3v-4h1Z"/></g></g></svg>