<svg viewBox="0 0 24 24" xmlns="http://www.w3.org/2000/svg"><g fill="#3747D6" fill-rule="evenodd"><path d="M17 1c.34 0 .66.17.84.47l2.5 4c.11.18.16.39.14.6l-1 13c-.05.52-.48.92-1 .92h-3c-.53 0-.96-.41-1-.93l-1-13c-.02-.22.03-.43.14-.61l2.5-4c.18-.3.5-.47.84-.47Zm-1.48 5.25l.9 11.74h1.14l.9-11.75 -1.48-2.37 -1.48 2.36Z"/><path d="M7 23c.34 0 .66-.18.84-.47l2.5-4c.11-.19.16-.4.14-.61l-1.01-13c-.05-.53-.48-.93-1-.93h-3c-.53 0-.96.4-1 .92l-1 13c-.02.21.03.42.14.6l2.5 4c.18.29.5.47.84.47Zm-1.48-5.26l.9-11.75h1.14l.9 11.74 -1.48 2.36 -1.48-2.37Z"/><path d="M16 22v-3h2v3h-2Z"/><path d="M6 2v3h2V2H6Z"/><g fill="#9545ED"><path d="M20.5 20h-7v-2h7v2Z"/><path d="M10.5 4h-7v2h7V4Z"/></g></g></svg>