<svg viewBox="0 0 24 24" xmlns="http://www.w3.org/2000/svg"><g fill="#9545ED" fill-rule="evenodd"><path d="M11.91 2c.39-.04.77.16.96.51l1.89 3.47c.29.53.99.68 1.47.32l.15-.12c.3-.23.7-.27 1.04-.1 .33.16.55.51.55.89v3.5c0 2.48-2.02 4.5-4.5 4.5h-3c-2.49 0-4.5-2.02-4.5-4.5v-1.5c0-.37.19-.7.5-.88 .31-.18.69-.18 1 .01l.36.21c.54.32 1.26.06 1.46-.55L11 2.62c.12-.38.46-.65.86-.68Zm.31 3.49l-.99 2.95c-.48 1.41-1.87 2.2-3.24 2.02v.02c0 1.38 1.11 2.5 2.5 2.5h3c1.38 0 2.5-1.12 2.5-2.5V8.47c-1.17.13-2.38-.43-2.99-1.55l-.8-1.46Z"/><g fill="#3747D6"><path d="M5.55 20.1l12-6 .89 1.78 -12 6 -.9-1.79Z"/><path d="M18.44 20.1l-12-6 -.9 1.78 12 6 .89-1.79Z"/></g></g></svg>