<svg viewBox="0 0 24 24" xmlns="http://www.w3.org/2000/svg"><g fill-rule="evenodd"><path d="M6.5 5c0-.28.22-.5.5-.5h10c.27 0 .5.22.5.5v7c0 .27-.23.5-.5.5h-5v-1h4.5v-6h-9v6H9v1H7c-.28 0-.5-.23-.5-.5V5Z"/><path d="M4.5 18c0-.28.22-.5.5-.5h14c.27 0 .5.22.5.5v4c0 .27-.23.5-.5.5H5c-.28 0-.5-.23-.5-.5v-4Zm1 .5v3h13v-3h-13Z"/><path d="M5.5 2c0-.28.22-.5.5-.5h12c.27 0 .5.22.5.5v3c0 .27-.23.5-.5.5H6c-.28 0-.5-.23-.5-.5V2Zm1 .5v2h11v-2h-11Z"/><path d="M5.5 11.91c.04-.25.24-.42.49-.42h3v1H6.41l-.84 5h12.81l-.84-5h-5.58v-1h6c.24 0 .45.17.49.41l1 6c.02.14-.02.29-.12.4 -.1.11-.24.17-.39.17h-14c-.15 0-.29-.07-.39-.18 -.1-.12-.14-.27-.12-.41l1-6Z"/><path d="M10.5 11c-.56 0-1 .44-1 1 0 .55.44 1 1 1 .55 0 1-.45 1-1 0-.56-.45-1-1-1Zm-2 1c0-1.11.89-2 2-2 1.1 0 2 .89 2 2 0 1.1-.9 2-2 2 -1.11 0-2-.9-2-2Z"/><path d="M10 15.5v-2h1v2h-1Z"/></g></svg>