<svg viewBox="0 0 24 24" xmlns="http://www.w3.org/2000/svg"><g fill-rule="evenodd"><path d="M8.5 16c0-.28.22-.5.5-.5h6c.27 0 .5.22.5.5v6c0 .27-.23.5-.5.5H9c-.28 0-.5-.23-.5-.5v-6Zm1 .5v5h5v-5h-5Z"/><path d="M4.5 11h-1c0-4.7 3.8-8.5 8.5-8.5 4.69 0 8.5 3.8 8.5 8.5h-1c0-.83-.68-1.5-1.5-1.5h-1c-.83 0-1.5.67-1.5 1.5h-1c0-.83-.68-1.5-1.5-1.5h-2c-.83 0-1.5.67-1.5 1.5h-1c0-.83-.68-1.5-1.5-1.5H6c-.83 0-1.5.67-1.5 1.5ZM9 9.49c.45-.61 1.18-1 2-1h2c.81 0 1.54.39 2 .99 .45-.61 1.18-1 2-1h1c.42 0 .82.1 1.16.28 -.95-3.07-3.8-5.29-7.17-5.29 -3.38 0-6.23 2.22-7.17 5.28 .34-.19.74-.29 1.16-.29h1c.81 0 1.54.39 2 .99Z"/><path d="M20.5 10.5v.5c0 .13-.06.25-.15.35l-5 4.99 -.71-.71 4.85-4.86v-.3h1Z"/><path d="M3.49 10.5v.5c0 .13.05.25.14.35l5 4.99 .7-.71 -4.86-4.86v-.3h-1Z"/><path d="M8.5 11v-1h1v.9l1.96 4.91 -.93.37 -2.01-5c-.03-.06-.04-.13-.04-.19Z"/><path d="M15.5 11v-1h-1v.9l-1.97 4.91 .92.37 2-5c.02-.06.03-.13.03-.19Z"/></g></svg>