<svg viewBox="0 0 24 24" xmlns="http://www.w3.org/2000/svg"><g fill-rule="evenodd"><path d="M1.5 2c0-.28.22-.5.5-.5h20c.27 0 .5.22.5.5v20c0 .27-.23.5-.5.5H2c-.28 0-.5-.23-.5-.5V2Zm1 .5v19h19v-19h-19Z"/><path d="M6.5 7c0-.28.22-.5.5-.5h10c.27 0 .5.22.5.5v10c0 .27-.23.5-.5.5H7c-.28 0-.5-.23-.5-.5V7Zm1 .5v9h9v-9h-9Z"/><path d="M1.5 2c0-.28.22-.5.5-.5h4c.27 0 .5.22.5.5v2c0 1.38-1.12 2.5-2.5 2.5H2c-.28 0-.5-.23-.5-.5V2Zm1 .5v3H4c.82 0 1.5-.68 1.5-1.5V2.5h-3Z"/><path d="M22.5 2c0-.28-.23-.5-.5-.5h-4c-.28 0-.5.22-.5.5v2c0 1.38 1.11 2.5 2.5 2.5h2c.27 0 .5-.23.5-.5V2Zm-1 .5v3H20c-.83 0-1.5-.68-1.5-1.5V2.5h3Z"/><path d="M1.5 22c0 .27.22.5.5.5h4c.27 0 .5-.23.5-.5v-2c0-1.39-1.12-2.5-2.5-2.5H2c-.28 0-.5.22-.5.5v4Zm1-.5v-3H4c.82 0 1.5.67 1.5 1.5v1.5h-3Z"/><path d="M22.5 22c0 .27-.23.5-.5.5h-4c-.28 0-.5-.23-.5-.5v-2c0-1.39 1.11-2.5 2.5-2.5h2c.27 0 .5.22.5.5v4Zm-1-.5v-3H20c-.83 0-1.5.67-1.5 1.5v1.5h3Z"/><path d="M12 10.5c-.83 0-1.5.67-1.5 1.5 0 .82.67 1.5 1.5 1.5 .82 0 1.5-.68 1.5-1.5 0-.83-.68-1.5-1.5-1.5ZM9.5 12c0-1.39 1.11-2.5 2.5-2.5 1.38 0 2.5 1.11 2.5 2.5 0 1.38-1.12 2.5-2.5 2.5 -1.39 0-2.5-1.12-2.5-2.5Z"/></g></svg>