<svg viewBox="0 0 24 24" xmlns="http://www.w3.org/2000/svg"><g fill-rule="evenodd"><path d="M1.5 2c0-.28.22-.5.5-.5h20c.27 0 .5.22.5.5v20c0 .27-.23.5-.5.5H2c-.28 0-.5-.23-.5-.5V2Zm1 .5v19h19v-19h-19Z"/><path d="M1.5 2c0-.28.22-.5.5-.5h6.5c.27 0 .5.22.5.5v6.5c0 .27-.23.5-.5.5H2c-.28 0-.5-.23-.5-.5V2Zm1 .5V8H8V2.5H2.5Z"/><path d="M1.5 15.5c0-.28.22-.5.5-.5h6.5c.27 0 .5.22.5.5V22c0 .27-.23.5-.5.5H2c-.28 0-.5-.23-.5-.5v-6.5Zm1 .5v5.5H8V16H2.5Z"/><path d="M8 8.5c0-.28.22-.5.5-.5h7c.27 0 .5.22.5.5V15c0 .27-.23.5-.5.5h-7c-.28 0-.5-.23-.5-.5V8.5ZM9 9v5.5h6V9H9Z"/><path d="M15 2c0-.28.22-.5.5-.5H22c.27 0 .5.22.5.5v6.5c0 .27-.23.5-.5.5h-6.5c-.28 0-.5-.23-.5-.5V2Zm1 .5V8h5.5V2.5H16Z"/><path d="M15 15.5c0-.28.22-.5.5-.5H22c.27 0 .5.22.5.5V22c0 .27-.23.5-.5.5h-6.5c-.28 0-.5-.23-.5-.5v-6.5Zm1 .5v5.5h5.5V16H16Z"/></g></svg>