<svg viewBox="0 0 24 24" xmlns="http://www.w3.org/2000/svg"><g fill-rule="evenodd"><path d="M21.5 4.5H10v-1h12c.27 0 .5.22.5.5v16c0 .27-.23.5-.5.5H10v-1h11.5v-15Z"/><path d="M17.5 4.5H6v-1h12c.27 0 .5.22.5.5v16c0 .27-.23.5-.5.5H6v-1h11.5v-15Z"/><path d="M1.5 4c0-.28.22-.5.5-.5h12c.27 0 .5.22.5.5v16c0 .27-.23.5-.5.5H2c-.28 0-.5-.23-.5-.5V4Zm1 .5v15h11v-15h-11Z"/><path d="M4 9c0-.28.22-.5.5-.5h7c.27 0 .5.22.5.5v4c0 .27-.23.5-.5.5h-7c-.28 0-.5-.23-.5-.5V9Zm1 .5v3h6v-3H5Z"/><path d="M11.5 7h-7V6h7v1Z"/><path d="M11.5 17h-7v-1h7v1Z"/></g></svg>