<svg viewBox="0 0 24 24" xmlns="http://www.w3.org/2000/svg"><g fill-rule="evenodd"><path d="M1.5 2c0-.28.22-.5.5-.5h13c.27 0 .5.22.5.5v20c0 .27-.23.5-.5.5H2c-.28 0-.5-.23-.5-.5V2Zm1 .5v19h12v-19h-12Z"/><path d="M18.5 2.5H7v-1h12c.27 0 .5.22.5.5v20c0 .27-.23.5-.5.5H7v-1h11.5v-19Z"/><path d="M21.5 6.5H19v-1h3c.27 0 .5.22.5.5v16c0 .27-.23.5-.5.5h-3v-1h2.5v-15Z"/><path d="M10.5 9.5H6v-1h5c.27 0 .5.22.5.5v3.106c0 .27-.23.5-.5.5H6.5v1.89H11v1H6c-.28 0-.5-.23-.5-.5v-2.894c0-.28.22-.5.5-.5h4.5V9.496Z"/></g></svg>