<svg viewBox="0 0 24 24" xmlns="http://www.w3.org/2000/svg"><g fill-rule="evenodd"><path d="M1.5 2c0-.28.22-.5.5-.5h15c.27 0 .5.22.5.5v20c0 .27-.23.5-.5.5H2c-.28 0-.5-.23-.5-.5V2Zm1 .5v19h14v-19h-14Z"/><path d="M20 12v10h-1V12h1Z"/><path d="M21.5 2.5H16v-1h6c.27 0 .5.22.5.5v20c0 .27-.23.5-.5.5h-6v-1h5.5v-19Z"/><path d="M2 11.5h20v1H2v-1Z"/><path d="M12.5 5.5c-.56 0-1 .44-1 1 0 .55.44 1 1 1 .55 0 1-.45 1-1 0-.56-.45-1-1-1Zm-2 1c0-1.11.89-2 2-2 1.1 0 2 .89 2 2 0 1.1-.9 2-2 2 -1.11 0-2-.9-2-2Z"/></g></svg>