<svg viewBox="0 0 24 24" xmlns="http://www.w3.org/2000/svg"><g fill-rule="evenodd"><path d="M1.66 3.21c-.13-.91.57-1.72 1.48-1.72h12.84v1H3.13c-.31 0-.54.26-.5.57l.83 5.85c0 .03 0 .07 0 .1l-.92 11.92c-.03.29.2.53.49.53h12.92v1H3.02c-.88 0-1.57-.75-1.5-1.62l.91-11.87 -.83-5.81Z"/><path d="M13.61 3.14c-.09-.89.6-1.65 1.49-1.65h5.79c.88 0 1.58.76 1.49 1.64l-.89 8.85 .88 8.85c.08.88-.61 1.64-1.5 1.64h-5.8c-.89 0-1.59-.77-1.5-1.65l.88-8.86 -.89-8.86Zm1.49-.65c-.3 0-.53.25-.5.54l.89 8.9c0 .03 0 .06 0 .09l-.9 8.9c-.03.29.2.54.49.54h5.79c.29 0 .52-.26.49-.55l-.9-8.91c-.01-.04-.01-.07 0-.1l.89-8.91c.02-.3-.21-.55-.5-.55h-5.8Z"/><path d="M17.5 13V5h1v8h-1Z"/><path d="M18 16.5c-.56 0-1 .44-1 1 0 .55.44 1 1 1 .55 0 1-.45 1-1 0-.56-.45-1-1-1Zm-2 1c0-1.11.89-2 2-2 1.1 0 2 .89 2 2 0 1.1-.9 2-2 2 -1.11 0-2-.9-2-2Z"/></g></svg>