<svg viewBox="0 0 24 24" xmlns="http://www.w3.org/2000/svg"><g fill-rule="evenodd"><path d="M1.5 2c0-.28.22-.5.5-.5h14c.27 0 .5.22.5.5v20c0 .27-.23.5-.5.5H2c-.28 0-.5-.23-.5-.5V2Zm1 .5v19h13v-19h-13Z"/><path d="M15.5 2c0-.28.22-.5.5-.5h6c.27 0 .5.22.5.5v20c0 .27-.23.5-.5.5h-6c-.28 0-.5-.23-.5-.5V2Zm1 .5v19h5v-19h-5Z"/><path d="M19.5 12v10h-1V12h1Z"/><path d="M9 5.5c-2.49 0-4.5 2.01-4.5 4.5 0 2.48 2.01 4.5 4.5 4.5 2.48 0 4.5-2.02 4.5-4.5 0-2.49-2.02-4.5-4.5-4.5ZM3.5 10c0-3.04 2.46-5.5 5.5-5.5 3.03 0 5.5 2.46 5.5 5.5 0 3.03-2.47 5.5-5.5 5.5 -3.04 0-5.5-2.47-5.5-5.5Z"/></g></svg>