<svg viewBox="0 0 24 24" xmlns="http://www.w3.org/2000/svg"><g fill-rule="evenodd"><path d="M1.5 4c0-.28.22-.5.5-.5h20c.27 0 .5.22.5.5v16c0 .27-.23.5-.5.5H2c-.28 0-.5-.23-.5-.5V4Zm1 .5v15h19v-15h-19Z"/><path d="M4.5 16c0-.28.22-.5.5-.5h9c.27 0 .5.22.5.5v4c0 .27-.23.5-.5.5H5c-.28 0-.5-.23-.5-.5v-4Zm1 .5v3h8v-3h-8Z"/><path d="M13.5 16c0-.28.22-.5.5-.5h5c.27 0 .5.22.5.5v4c0 .27-.23.5-.5.5h-5c-.28 0-.5-.23-.5-.5v-4Zm1 .5v3h4v-3h-4Z"/><path d="M13.5 4c0-.28.22-.5.5-.5h5c.27 0 .5.22.5.5v6c0 .27-.23.5-.5.5h-5c-.28 0-.5-.23-.5-.5V4Zm1 .5v5h4v-5h-4Z"/><path d="M14.5 12.5h4v1h-4v-1Z"/></g></svg>