<svg viewBox="0 0 24 24" xmlns="http://www.w3.org/2000/svg"><g fill-rule="evenodd"><path d="M12 4.5c-4.15 0-7.5 3.35-7.5 7.5 0 4.14 3.35 7.5 7.5 7.5 4.14 0 7.5-3.36 7.5-7.5 0-4.15-3.36-7.5-7.5-7.5ZM3.5 12c0-4.7 3.8-8.5 8.5-8.5 4.69 0 8.5 3.8 8.5 8.5 0 4.69-3.81 8.5-8.5 8.5 -4.7 0-8.5-3.81-8.5-8.5Z"/><path d="M12 7.5c-2.49 0-4.5 2.01-4.5 4.5 0 2.48 2.01 4.5 4.5 4.5 2.48 0 4.5-2.02 4.5-4.5 0-2.49-2.02-4.5-4.5-4.5ZM6.5 12c0-3.04 2.46-5.5 5.5-5.5 3.03 0 5.5 2.46 5.5 5.5 0 3.03-2.47 5.5-5.5 5.5 -3.04 0-5.5-2.47-5.5-5.5Z"/><path d="M2 11.5h7v1H2v-1Zm20 1h-7v-1h7v1Z"/><path d="M11.5 9V2h1v7h-1Zm0 13v-7h1v7h-1Z"/></g></svg>