<svg viewBox="0 0 24 24" xmlns="http://www.w3.org/2000/svg"><g fill-rule="evenodd"><path d="M11.82 1.53c.11-.05.23-.05.35 0l8 3c.19.07.32.25.32.46v8.5c0 1.73-.82 3.36-2.2 4.4l-6 4.5c-.18.13-.43.13-.6 0l-6-4.5c-1.39-1.04-2.2-2.67-2.2-4.4v-8.5c0-.21.12-.4.32-.47l7.99-3ZM4.49 5.34v8.15c0 1.41.66 2.75 1.8 3.6l5.7 4.27 5.7-4.28c1.13-.85 1.8-2.19 1.8-3.6V5.32l-7.5-2.82 -7.5 2.81Z"/><path d="M11.64 8.64c.19-.2.51-.2.7 0l3 2.99 -.71.7 -2.65-2.65 -2.65 2.64 -.71-.71 3-3Z"/><path d="M11.5 15V9h1v6h-1Z"/></g></svg>