<svg viewBox="0 0 24 24" xmlns="http://www.w3.org/2000/svg"><g fill-rule="evenodd"><path d="M3.53 1.81c.07-.19.25-.32.46-.32h16c.2 0 .38.12.46.31l2 5c.06.15.04.32-.05.46l-10 15c-.1.13-.25.22-.42.22 -.17 0-.33-.09-.42-.23l-10-15c-.1-.14-.11-.32-.05-.47l2-5Zm.8.68L2.55 6.93l9.43 14.15 9.43-14.16 -1.78-4.45H4.3Z"/><path d="M7.5 1.9c.04-.24.25-.41.49-.41h8c.23 0 .44.16.49.4l1 5c.01.08.01.17-.02.25l-5 15c-.07.2-.26.34-.48.34 -.22 0-.41-.14-.48-.35l-5.01-15c-.03-.09-.04-.18-.02-.26l1-5Zm.9.59l-.9 4.46 4.48 13.45L16.46 6.94l-.9-4.47H8.37Z"/><path d="M2 6.5h20v1H2v-1Z"/></g></svg>