<svg viewBox="0 0 24 24" xmlns="http://www.w3.org/2000/svg"><g fill-rule="evenodd"><path d="M11.77 2.55c.14-.08.3-.08.44 0l10 5c.16.08.27.25.27.44 0 .18-.11.36-.28.44l-10 4.99c-.15.07-.31.07-.45 0l-10-5c-.17-.09-.28-.26-.28-.45s.1-.37.27-.45l10-5ZM3.11 7.99l8.88 4.44 8.88-4.45 -8.89-4.45 -8.89 4.44Z"/><path d="M5 9c.27 0 .5.22.5.5v6.14c0 .94.53 1.81 1.38 2.23l5.11 2.55 5.11-2.56c.84-.43 1.38-1.29 1.38-2.24V9.47c0-.28.22-.5.5-.5 .27 0 .5.22.5.5v6.14c0 1.32-.75 2.53-1.94 3.13l-5.35 2.67c-.15.07-.31.07-.45 0l-5.35-2.68c-1.19-.6-1.94-1.81-1.94-3.14V9.44c0-.28.22-.5.5-.5Z"/><path d="M21.5 20V8h1v12h-1Z"/></g></svg>