<svg viewBox="0 0 24 24" xmlns="http://www.w3.org/2000/svg"><g fill-rule="evenodd"><path d="M12 1.5c.17 0 .33.08.42.23l7 11c.05.08.07.17.07.26v4c0 .16-.08.31-.21.4l-7 5c-.18.12-.41.12-.59 0l-7.01-5c-.14-.1-.21-.25-.21-.41v-4c0-.1.02-.19.07-.27l7-11c.09-.15.25-.24.42-.24ZM5.5 13.14v3.59l6.5 4.64 6.5-4.65v-3.6L12 2.9 5.5 13.11Z"/><path d="M12 7.5c.17 0 .33.09.42.24l3 5c.04.07.07.16.07.25v3c0 .16-.09.32-.23.41l-3 2c-.17.11-.39.11-.56 0l-3-2c-.14-.1-.23-.25-.23-.42v-3c0-.1.02-.18.07-.26l3-5.01c.09-.16.25-.25.42-.25Zm-2.5 5.63v2.59l2.5 1.66 2.5-1.67v-2.6L12 8.94 9.5 13.1Z"/><path d="M19 13.5h-4v-1h4v1Z"/><path d="M5 13.5h4v-1H5v1Z"/><path d="M18.87 17.48l-4-1 .24-.98 4 1 -.25.97Z"/><path d="M5.12 17.48l4-1 -.25-.98 -4 1 .24.97Z"/><path d="M11.5 22v-4h1v4h-1Z"/><path d="M12.5 3v5h-1V3h1Z"/></g></svg>