<svg viewBox="0 0 24 24" xmlns="http://www.w3.org/2000/svg"><g fill-rule="evenodd"><path d="M3.53 16.81c.07-.19.25-.32.46-.32h5c.2 0 .38.12.46.31l1.99 5c.06.15.04.32-.06.46 -.1.13-.25.21-.42.21h-9c-.17 0-.33-.09-.42-.22 -.1-.14-.12-.32-.06-.47l2-5Zm.8.68l-1.6 4h7.52l-1.61-4H4.31Z"/><path d="M14.53 16.81c.07-.19.25-.32.46-.32h5c.2 0 .38.12.46.31l2 5c.06.15.04.32-.06.46 -.1.13-.25.21-.42.21h-9c-.17 0-.33-.09-.42-.22 -.1-.14-.12-.32-.06-.47l2-5Zm.8.68l-1.6 4h7.52l-1.6-4H15.32Z"/><path d="M9.03 9.81c.07-.19.25-.32.46-.32h5c.2 0 .38.12.46.31l2 5c.06.15.04.32-.06.46 -.1.13-.25.21-.42.21h-9c-.17 0-.33-.09-.42-.22 -.1-.14-.12-.32-.06-.47l2-5Zm.8.68l-1.6 4h7.52l-1.6-4H9.82Z"/><path d="M4.5 9V5h1v4h-1Z"/><path d="M7 7.5H3v-1h4v1Z"/><path d="M14 6V2h1v4h-1Z"/><path d="M16.5 4.5h-4v-1h4v1Z"/><path d="M19.5 12V8h1v4h-1Z"/><path d="M22 10.5h-4v-1h4v1Z"/></g></svg>