<svg viewBox="0 0 24 24" xmlns="http://www.w3.org/2000/svg"><g fill-rule="evenodd"><path d="M5.5 8.92c-.99-.66-2.36-.57-3.25.26 -1.02.94-1.02 2.49 0 3.44l2.89 2.71c.19.18.49.18.68 0l2.89-2.72c1.01-.95 1.01-2.5 0-3.45 -.89-.84-2.26-.93-3.25-.27Zm-.35.99c-.61-.58-1.61-.58-2.22 0 -.59.55-.59 1.43 0 1.98l2.55 2.39 2.55-2.4c.58-.56.58-1.44 0-1.99 -.61-.58-1.61-.58-2.22 0 -.2.18-.5.18-.69 0Z"/><path d="M21.5 10.5H9v-1h13c.27 0 .5.22.5.5v4c0 .27-.23.5-.5.5H6.5v-1h15v-3Z"/><path d="M16.5 10.5H9v-1h8c.27 0 .5.22.5.5v4c0 .27-.23.5-.5.5H6.5v-1h10v-3Z"/></g></svg>