<svg viewBox="0 0 24 24" xmlns="http://www.w3.org/2000/svg"><g fill-rule="evenodd"><path d="M2.45 9.61c.2-1.79 1.74-3.12 3.56-3.12h11.95c1.81 0 3.35 1.32 3.56 3.11l.72 6.33c0 .05 0 .11-.01.16l.22 2.1c.19 1.76-1.24 3.28-3.03 3.28 -1.57 0-2.89-1.16-3.03-2.71l-.22-2.3H7.73l-.22 2.29c-.15 1.54-1.47 2.7-3.03 2.7 -1.79 0-3.22-1.52-3.03-3.29l.22-2.11c-.02-.06-.02-.12-.01-.17l.72-6.34Zm.28 6.28c.01.05.01.1 0 .16l-.25 2.27c-.13 1.14.8 2.17 2.02 2.17 1.06 0 1.93-.79 2.03-1.8l.25-2.76c.02-.26.23-.46.49-.46h9.34c.25 0 .47.19.49.45l.25 2.75c.09 1 .96 1.79 2.03 1.79 1.22 0 2.15-1.03 2.02-2.18L21.15 16c-.01-.06-.01-.11 0-.17l-.71-6.17c-.15-1.26-1.25-2.23-2.57-2.23H5.91c-1.33 0-2.43.96-2.57 2.22l-.71 6.16Z"/><path d="M10 12H6v-1h4v1Z"/><path d="M18 10.5h-2v-1h2v1Z"/><path d="M15 13.5h-2v-1h2v1Z"/><path d="M7.5 13.5v-4h1v4h-1Z"/><path d="M12.5 3v4h-1V3h1Z"/></g></svg>