<svg viewBox="0 0 24 24" xmlns="http://www.w3.org/2000/svg"><g fill-rule="evenodd"><path d="M1.5 13c0-1.39 1.11-2.5 2.5-2.5h16c1.38 0 2.5 1.11 2.5 2.5v6c0 1.38-1.12 2.5-2.5 2.5H4c-1.39 0-2.5-1.12-2.5-2.5v-6ZM4 11.5c-.83 0-1.5.67-1.5 1.5v6c0 .82.67 1.5 1.5 1.5h16c.82 0 1.5-.68 1.5-1.5v-6c0-.83-.68-1.5-1.5-1.5H4Z"/><path d="M9 16.5H5v-1h4v1Z"/><path d="M19 15h-2v-1h2v1Z"/><path d="M16 18h-2v-1h2v1Z"/><path d="M6.5 18v-4h1v4h-1Z"/><path d="M6 4.5c-.83 0-1.5.67-1.5 1.5 0 .82.67 1.5 1.5 1.5h4c1.38 0 2.5 1.11 2.5 2.5v1h-1v-1c0-.83-.68-1.5-1.5-1.5H6C4.61 8.5 3.5 7.38 3.5 6c0-1.39 1.11-2.5 2.5-2.5h16v1H6Z"/></g></svg>