<svg viewBox="0 0 24 24" xmlns="http://www.w3.org/2000/svg"><g fill-rule="evenodd"><path d="M1.5 8c0-1.94 1.56-3.5 3.5-3.5h14c1.93 0 3.5 1.56 3.5 3.5v8c0 1.93-1.57 3.5-3.5 3.5 -1.94 0-3.5-1.57-3.5-3.5v-1.5h-7V16c0 1.93-1.57 3.5-3.5 3.5 -1.94 0-3.5-1.57-3.5-3.5V8ZM5 5.5C3.61 5.5 2.5 6.61 2.5 8v8c0 1.38 1.11 2.5 2.5 2.5 1.38 0 2.5-1.12 2.5-2.5v-2c0-.28.22-.5.5-.5h8c.27 0 .5.22.5.5v2c0 1.38 1.11 2.5 2.5 2.5 1.38 0 2.5-1.12 2.5-2.5V8c0-1.39-1.12-2.5-2.5-2.5H5Z"/><path d="M9 10H5V9h4v1Z"/><path d="M19 8.5h-2v-1h2v1Z"/><path d="M16 11.5h-2v-1h2v1Z"/><path d="M6.5 11.5v-4h1v4h-1Z"/></g></svg>