<svg viewBox="0 0 24 24" xmlns="http://www.w3.org/2000/svg"><g fill-rule="evenodd"><path d="M4.5 4c0-1.39 1.11-2.5 2.5-2.5h10c1.38 0 2.5 1.11 2.5 2.5v16c0 1.38-1.12 2.5-2.5 2.5H7c-1.39 0-2.5-1.12-2.5-2.5V4ZM7 2.5c-.83 0-1.5.67-1.5 1.5v16c0 .82.67 1.5 1.5 1.5h10c.82 0 1.5-.68 1.5-1.5V4c0-.83-.68-1.5-1.5-1.5H7Z"/><path d="M11.5 18.5v-13h1v13h-1Z"/><path d="M7.6 7.69c.09-.13.24-.2.39-.2h8c.15 0 .29.07.39.19 .09.12.12.27.09.42l-1 4c-.06.22-.26.37-.49.37h-6c-.23 0-.43-.16-.49-.38l-1-4.01c-.04-.15-.01-.31.09-.43Zm1.03.8l.75 3h5.21l.75-3H8.62Z"/></g></svg>