<svg viewBox="0 0 24 24" xmlns="http://www.w3.org/2000/svg"><g fill-rule="evenodd"><path d="M1.5 2c0-.28.22-.5.5-.5h20c.27 0 .5.22.5.5v20c0 .27-.23.5-.5.5H2c-.28 0-.5-.23-.5-.5V2Zm1 .5v19h19v-19h-19Z"/><path d="M6.5 6.5v6.29l6.29-6.3h-6.3Zm-1-.5c0-.28.22-.5.5-.5h8c.2 0 .38.12.46.3 .07.18.03.4-.11.54l-8.01 8c-.15.14-.36.18-.55.1 -.19-.08-.31-.26-.31-.47v-8Zm12.69 3.53c.18.07.3.25.3.46v8c0 .27-.23.5-.5.5h-8c-.21 0-.39-.13-.47-.31 -.08-.19-.04-.41.1-.55l7.99-8c.14-.15.35-.19.54-.11Zm-6.99 7.96h6.29v-6.3l-6.3 6.29Z"/><path d="M18.5 4.5c-.56 0-1 .44-1 1 0 .55.44 1 1 1 .55 0 1-.45 1-1 0-.56-.45-1-1-1Zm-2 1c0-1.11.89-2 2-2 1.1 0 2 .89 2 2 0 1.1-.9 2-2 2 -1.11 0-2-.9-2-2Z"/><path d="M5.5 17.5c-.56 0-1 .44-1 1 0 .55.44 1 1 1 .55 0 1-.45 1-1 0-.56-.45-1-1-1Zm-2 1c0-1.11.89-2 2-2 1.1 0 2 .89 2 2 0 1.1-.9 2-2 2 -1.11 0-2-.9-2-2Z"/></g></svg>