<svg viewBox="0 0 24 24" xmlns="http://www.w3.org/2000/svg"><g fill-rule="evenodd"><path d="M8.56 14.5c-.69 0-1.29.46-1.46 1.13l-1.01 4c-.24.94.47 1.86 1.45 1.86 .64 0 1.21-.42 1.42-1.03l.54-1.64c.06-.21.25-.35.47-.35h3.99c.21 0 .4.13.47.34l.54 1.63c.2.61.77 1.02 1.42 1.02 .97 0 1.69-.92 1.45-1.87l-1.01-4.01c-.17-.67-.77-1.14-1.46-1.14H8.49Zm-2.43.89c.27-1.12 1.27-1.9 2.42-1.9h6.87c1.14 0 2.14.78 2.42 1.89l1 4c.39 1.57-.8 3.1-2.43 3.1 -1.08 0-2.04-.69-2.38-1.71l-.44-1.3h-3.28l-.44 1.29c-.35 1.02-1.3 1.7-2.38 1.7 -1.63 0-2.82-1.53-2.43-3.11l1-4.01Z"/><path d="M15.5 2.5c-.83 0-1.5.67-1.5 1.5 0 .82.67 1.5 1.5 1.5 .82 0 1.5-.68 1.5-1.5 0-.83-.68-1.5-1.5-1.5ZM13 4c0-1.39 1.11-2.5 2.5-2.5C16.88 1.5 18 2.61 18 4c0 1.38-1.12 2.5-2.5 2.5C14.11 6.5 13 5.38 13 4Z"/><path d="M15.5 6.5c-1.32 0-2.465.72-3.07 1.8l-.88-.49c.76-1.39 2.24-2.32 3.93-2.32 2.48 0 4.5 2.01 4.5 4.5v1.5c0 .27-.23.5-.5.5h-8v-1h7.5v-1c0-1.94-1.57-3.5-3.5-3.5Z"/><path d="M8.5 2.5C7.67 2.5 7 3.17 7 4c0 .82.67 1.5 1.5 1.5 .82 0 1.5-.68 1.5-1.5 0-.83-.68-1.5-1.5-1.5ZM6 4c0-1.39 1.11-2.5 2.5-2.5C9.88 1.5 11 2.61 11 4c0 1.38-1.12 2.5-2.5 2.5C7.11 6.5 6 5.38 6 4Z"/><path d="M8.5 6.5C6.56 6.5 5 8.06 5 10v1h7v-1c0-1.94-1.57-3.5-3.5-3.5ZM4 10c0-2.49 2.01-4.5 4.5-4.5 2.48 0 4.5 2.01 4.5 4.5v1.5c0 .27-.23.5-.5.5h-8c-.28 0-.5-.23-.5-.5V10Z"/></g></svg>