<svg viewBox="0 0 24 24" xmlns="http://www.w3.org/2000/svg"><g fill-rule="evenodd"><path d="M9.5 5c0-.28.22-.5.5-.5h4c.27 0 .5.22.5.5v2.5H16c1.38 0 2.5 1.11 2.5 2.5v10c0 1.38-1.12 2.5-2.5 2.5H8c-1.39 0-2.5-1.12-2.5-2.5V10c0-1.39 1.11-2.5 2.5-2.5h1.5V5Zm1 .5V8c0 .27-.23.5-.5.5H8c-.83 0-1.5.67-1.5 1.5v10c0 .82.67 1.5 1.5 1.5h8c.82 0 1.5-.68 1.5-1.5V10c0-.83-.68-1.5-1.5-1.5h-2c-.28 0-.5-.23-.5-.5V5.5h-3Z"/><path d="M7.5 3.5c0-1.11.89-2 2-2h5c1.1 0 2 .89 2 2 0 1.1-.9 2-2 2h-5c-1.11 0-2-.9-2-2Zm2-1c-.56 0-1 .44-1 1 0 .55.44 1 1 1h5c.55 0 1-.45 1-1 0-.56-.45-1-1-1h-5Z"/></g></svg>