<svg viewBox="0 0 24 24" xmlns="http://www.w3.org/2000/svg"><g fill-rule="evenodd"><path d="M12 2.5c-5.25 0-9.5 4.25-9.5 9.5 0 5.24 4.25 9.5 9.5 9.5 5.24 0 9.5-4.26 9.5-9.5 0-5.25-4.26-9.5-9.5-9.5ZM1.5 12C1.5 6.2 6.2 1.5 12 1.5c5.79 0 10.5 4.7 10.5 10.5 0 5.79-4.71 10.5-10.5 10.5 -5.8 0-10.5-4.71-10.5-10.5Z"/><path d="M12 10c-1.11 0-2 .89-2 2 0 1.1.89 2 2 2 1.1 0 2-.9 2-2 0-1.11-.9-2-2-2Zm-3 2c0-1.66 1.34-3 3-3 1.65 0 3 1.34 3 3 0 1.65-1.35 3-3 3 -1.66 0-3-1.35-3-3Z"/><path d="M2.5 10H10v1H2.49v-1Zm-.48 3l8.49.5 -.06.99 -8.5-.5 .05-1Z"/><path d="M21.49 10h-7.5v1h7.5v-1Zm.47 3l-8.5.5 .05.99 8.5-.5 -.06-1Z"/><path d="M10.49 13.44l1 8.5 -1 .11 -1-8.5 .99-.12Zm4 .11l-1 8.5 -1-.12 1-8.5 .99.11Z"/></g></svg>