<svg viewBox="0 0 24 24" xmlns="http://www.w3.org/2000/svg"><g fill-rule="evenodd"><path d="M4.5 2c0-.28.22-.5.5-.5h14c.27 0 .5.22.5.5v20c0 .27-.23.5-.5.5H5c-.28 0-.5-.23-.5-.5V2Zm1 .5v19h13v-19h-13Z"/><path d="M13.42 5.24c-1.66.47-3.47 1.62-5.01 3.36 -1.55 1.73-2.5 3.7-2.81 5.44 -.32 1.75.03 3.21.95 4.08 .91.86 2.34 1.08 4 .6 1.65-.48 3.46-1.63 5-3.37 1.54-1.74 2.49-3.71 2.8-5.45 .31-1.76-.04-3.22-.96-4.09 -.92-.87-2.35-1.09-4.01-.61Zm-.28-.97c1.86-.54 3.7-.36 4.96.83 1.26 1.18 1.6 3.04 1.25 4.98 -.35 1.95-1.4 4.08-3.05 5.93 -1.65 1.85-3.62 3.12-5.48 3.66 -1.87.53-3.71.35-4.97-.84 -1.27-1.19-1.61-3.05-1.26-4.99 .34-1.96 1.39-4.09 3.04-5.94 1.64-1.86 3.61-3.13 5.47-3.67Z"/><path d="M11 8h3c.2 0 .38.12.46.3 .07.18.03.4-.11.54l-4 4 -.71-.71 3.14-3.15h-1.8v-1Z"/><path d="M13 16H9.99c-.21 0-.39-.13-.47-.31 -.08-.19-.04-.41.1-.55l3.99-4 .7.7 -3.15 3.14h1.79v1Z"/></g></svg>