<svg viewBox="0 0 24 24" xmlns="http://www.w3.org/2000/svg"><g fill-rule="evenodd"><path d="M10.3 12.81c.37-.21.78-.32 1.21-.32h10.48c.27 0 .5.22.5.5v6.5c0 .27-.23.5-.5.5h-4.8l-2.36 2.35c-.1.09-.23.14-.36.14H3.97c-1.39 0-2.5-1.12-2.5-2.5v-.83c0-.91.49-1.75 1.28-2.19l7.51-4.18Zm1.21.68c-.26 0-.51.06-.73.18l-7.52 4.17c-.48.26-.78.76-.78 1.31v.82c0 .82.67 1.5 1.5 1.5h10.29l2.35-2.36c.09-.1.22-.15.35-.15h4.5v-5.5h-9.99Z"/><path d="M22 22.5h-4.5v-1H22v1Z"/><path d="M16.28 13.4l-5 3.5c-.09.05-.19.09-.29.09h-6v-1h5.84l4.87-3.41 .57.81Z"/><path d="M17.08 16l3.7-2.6 -.58-.82 -5 3.5c-.18.12-.26.35-.2.55 .06.2.25.34.47.34h6.5v-1h-4.92Z"/><path d="M6.5 2.5c-2.21 0-4 1.79-4 4 0 2.2 1.79 4 4 4 2.2 0 4-1.8 4-4 0-2.21-1.8-4-4-4Zm-5 4c0-2.77 2.23-5 5-5 2.76 0 5 2.23 5 5 0 2.76-2.24 5-5 5 -2.77 0-5-2.24-5-5Z"/><path d="M6.27 6.94l-4-2 .44-.9 3.77 1.88 3.77-1.89 .44.89 -4.01 2c-.15.07-.31.07-.45 0Z"/><path d="M6 11V6h1v5H6Z"/></g></svg>