<svg viewBox="0 0 24 24" xmlns="http://www.w3.org/2000/svg"><g fill-rule="evenodd"><path d="M5.56 14c-.69 0-1.29.46-1.46 1.13l-1.01 4c-.24.94.47 1.86 1.45 1.86 .64 0 1.21-.42 1.42-1.03l.54-1.64c.06-.21.25-.35.47-.35h3.99c.21 0 .4.13.47.34l.54 1.63c.2.61.77 1.02 1.42 1.02 .97 0 1.69-.92 1.45-1.87l-1.01-4.01c-.17-.67-.77-1.14-1.46-1.14H5.49Zm-2.43.89c.27-1.12 1.27-1.9 2.42-1.9h6.87c1.14 0 2.14.78 2.42 1.89l1 4c.39 1.57-.8 3.1-2.43 3.1 -1.08 0-2.04-.69-2.38-1.71l-.44-1.3H7.31l-.44 1.29c-.35 1.02-1.3 1.7-2.38 1.7 -1.63 0-2.82-1.53-2.43-3.11l1-4.01Z"/><path d="M11.56 3c-.69 0-1.29.46-1.46 1.13l-1.01 4c-.24.94.47 1.86 1.45 1.86 .64 0 1.21-.42 1.42-1.03l.54-1.64c.06-.21.25-.35.47-.35h4c.21 0 .4.13.47.34l.54 1.63c.2.61.77 1.02 1.42 1.02 .97 0 1.69-.92 1.45-1.87l-1.01-4.01c-.17-.67-.77-1.14-1.46-1.14H11.5Zm-2.43.89c.27-1.12 1.27-1.9 2.42-1.9h6.87c1.14 0 2.14.78 2.42 1.89l1 4c.39 1.57-.8 3.1-2.43 3.1 -1.08 0-2.04-.69-2.38-1.71l-.44-1.3h-3.28l-.44 1.29c-.35 1.02-1.3 1.7-2.38 1.7 -1.63 0-2.82-1.53-2.43-3.11l1-4.01Z"/></g></svg>