<svg viewBox="0 0 24 24" xmlns="http://www.w3.org/2000/svg"><g fill-rule="evenodd"><path d="M10 11.9c.04-.24.25-.41.49-.41h3c.23 0 .44.16.49.4l2 10c.02.14-.01.29-.11.41 -.1.11-.24.18-.39.18h-7c-.15 0-.3-.07-.39-.19 -.1-.12-.14-.27-.11-.42l1.99-10Zm.9.59l-1.8 9h5.78l-1.8-9h-2.19Z"/><path d="M6.5 21.5h11v1h-11v-1Z"/><path d="M12 8.5c-.83 0-1.5.67-1.5 1.5 0 .82.67 1.5 1.5 1.5 .82 0 1.5-.68 1.5-1.5 0-.83-.68-1.5-1.5-1.5ZM9.5 10c0-1.39 1.11-2.5 2.5-2.5 1.38 0 2.5 1.11 2.5 2.5 0 1.38-1.12 2.5-2.5 2.5 -1.39 0-2.5-1.12-2.5-2.5Z"/><path d="M20.5 7.5c-.56 0-1 .44-1 1 0 .55.44 1 1 1 .55 0 1-.45 1-1 0-.56-.45-1-1-1Zm-2 1c0-1.11.89-2 2-2 1.1 0 2 .89 2 2 0 1.1-.9 2-2 2 -1.11 0-2-.9-2-2Z"/><path d="M19 14.5c-.56 0-1 .44-1 1 0 .55.44 1 1 1 .55 0 1-.45 1-1 0-.56-.45-1-1-1Zm-2 1c0-1.11.89-2 2-2 1.1 0 2 .89 2 2 0 1.1-.9 2-2 2 -1.11 0-2-.9-2-2Z"/><path d="M12 2.5c-.56 0-1 .44-1 1 0 .55.44 1 1 1 .55 0 1-.45 1-1 0-.56-.45-1-1-1Zm-2 1c0-1.11.89-2 2-2 1.1 0 2 .89 2 2 0 1.1-.9 2-2 2 -1.11 0-2-.9-2-2Z"/><path d="M3.5 7.5c-.56 0-1 .44-1 1 0 .55.44 1 1 1 .55 0 1-.45 1-1 0-.56-.45-1-1-1Zm-2 1c0-1.11.89-2 2-2 1.1 0 2 .89 2 2 0 1.1-.9 2-2 2 -1.11 0-2-.9-2-2Z"/><path d="M5 14.5c-.56 0-1 .44-1 1 0 .55.44 1 1 1 .55 0 1-.45 1-1 0-.56-.45-1-1-1Zm-2 1c0-1.11.89-2 2-2 1.1 0 2 .89 2 2 0 1.1-.9 2-2 2 -1.11 0-2-.9-2-2Z"/><path d="M18.7 8.4l-5.5-4 .58-.81 5.5 4 -.59.8Z"/><path d="M5.29 8.4l5.49-4 -.59-.81 -5.51 4 .58.8Z"/><path d="M19 13.9l.8-4 .98.19 -.81 4 -.99-.2Z"/><path d="M5.29 13.9l-.81-4 -.99.19 .8 4 .98-.2Z"/><path d="M14.5 15.5h3v1h-3v-1Z"/><path d="M6.5 15.5h3v1h-3v-1Z"/><path d="M12.5 5.16v2.83h-1V5.15h1Z"/><path d="M19.07 9.74l-5 .74 -.15-.99 5-.75 .14.98Z"/><path d="M4.92 9.74l5 .74 .14-.99 -5-.75 -.15.98Z"/></g></svg>