<svg viewBox="0 0 24 24" xmlns="http://www.w3.org/2000/svg"><g fill-rule="evenodd"><path d="M6.5 9.5c0-.28.22-.5.5-.5h10c.27 0 .5.22.5.5V22c0 .27-.23.5-.5.5H7c-.28 0-.5-.23-.5-.5V9.5Zm1 .5v11.5h9V10h-9Z"/><path d="M1.5 13c0-.28.22-.5.5-.5h5c.27 0 .5.22.5.5v9c0 .27-.23.5-.5.5H2c-.28 0-.5-.23-.5-.5v-9Zm1 .5v8h4v-8h-4Z"/><path d="M16.5 13c0-.28.22-.5.5-.5h5c.27 0 .5.22.5.5v9c0 .27-.23.5-.5.5h-5c-.28 0-.5-.23-.5-.5v-9Zm1 .5v8h4v-8h-4Z"/><path d="M9.5 16c0-.28.22-.5.5-.5h4c.27 0 .5.22.5.5v6c0 .27-.23.5-.5.5h-4c-.28 0-.5-.23-.5-.5v-6Zm1 .5v5h3v-5h-3Z"/><path d="M12.22 1.55l-.23.44 -.23-.45c.14-.08.31-.08.45 0Zm-.23 1.01c-.12.06-.27.14-.45.25 -.42.24-.96.58-1.5.99 -.55.41-1.08.87-1.46 1.35 -.4.48-.593.93-.593 1.32 0 .95.5 1.84 1.3 2.5h5.38c.8-.66 1.3-1.55 1.3-2.5 0-.39-.21-.84-.593-1.33 -.39-.49-.92-.95-1.46-1.36 -.55-.41-1.09-.76-1.5-1 -.19-.11-.34-.2-.45-.26Zm-.23-1.02c0-.01 0 0 .22.44 .22-.45.22-.45.22-.45l0 0 0 0 .01 0 .04.02c.03.01.08.04.14.07 .12.06.3.17.52.29 .43.25 1.01.62 1.59 1.06 .57.43 1.17.95 1.63 1.52 .45.56.81 1.22.81 1.94 0 1.38-.78 2.59-1.84 3.39 -.09.06-.2.1-.31.1H9.05c-.11 0-.22-.04-.31-.11C7.68 9 6.9 7.8 6.9 6.41c0-.72.36-1.39.81-1.95 .45-.58 1.05-1.1 1.63-1.53 .58-.44 1.16-.81 1.59-1.07 .21-.13.39-.23.52-.3 .06-.04.11-.07.14-.08l.04-.03 .01-.01 0-.01 0-.01Z"/><path d="M4.76 7.57l-.27.42 -.27-.43c.16-.11.36-.11.52 0Zm-.27 1.02c-.03.02-.06.04-.1.06 -.22.15-.52.38-.8.64 -.3.26-.57.56-.77.86 -.21.3-.31.58-.31.81 0 .18-.02.36-.03.52 -.01.02-.01.05-.01.08 -.02.18-.02.33-.01.46 .01.18.05.31.16.42h3.66c.1-.12.14-.25.16-.43 .01-.14 0-.29-.01-.47 -.01-.03-.01-.06-.01-.09 -.01-.16-.03-.34-.03-.53 0-.24-.1-.51-.31-.82 -.21-.31-.48-.61-.77-.87 -.29-.27-.58-.49-.8-.65 -.04-.03-.07-.05-.1-.07Zm-.27-1.03c0-.01 0 0 .26.42 .26-.43.26-.43.26-.43l0 0 0 0 0 0 .02.01c.02.01.04.03.08.05 .07.04.17.11.29.2 .24.17.56.42.89.72 .32.29.66.65.92 1.05 .25.39.46.86.46 1.36 0 .14 0 .29.01.45 0 .03 0 .06 0 .09 .01.18.02.39 0 .6 -.04.44-.2.89-.69 1.25 -.09.06-.19.09-.3.09H2.38c-.11 0-.21-.04-.3-.1 -.49-.36-.65-.81-.69-1.26 -.02-.21-.01-.42 0-.61 0-.04 0-.07 0-.1 0-.16.01-.31.01-.46 0-.51.2-.98.46-1.37 .26-.4.6-.76.92-1.06 .32-.31.65-.55.89-.73 .12-.09.22-.16.29-.21 .03-.03.06-.05.08-.06l.02-.02 0-.01 0-.01 0-.01Z"/><path d="M19.76 7.57l-.27.42 -.27-.43c.16-.11.36-.11.52 0Zm-.27 1.02c-.03.02-.06.04-.1.06 -.22.15-.52.38-.8.64 -.3.26-.57.56-.77.86 -.21.3-.31.58-.31.81 0 .18-.02.36-.03.52 -.01.02-.01.05-.01.08 -.02.18-.02.33-.01.46 .01.18.05.31.16.42h3.66c.1-.12.14-.25.16-.43 .01-.14 0-.29-.01-.47 -.01-.03-.01-.06-.01-.09 -.01-.16-.03-.34-.03-.53 0-.24-.1-.51-.31-.82 -.21-.31-.48-.61-.77-.87 -.29-.27-.58-.49-.8-.65 -.04-.03-.07-.05-.1-.07Zm-.27-1.03c0-.01 0 0 .26.42 .26-.43.26-.43.26-.43l0 0 0 0 0 0 .02.01c.02.01.04.03.08.05 .07.04.17.11.29.2 .24.17.56.42.89.72 .32.29.66.65.92 1.05 .25.39.46.86.46 1.36 0 .14 0 .29.01.45 0 .03 0 .06 0 .09 .01.18.02.39 0 .6 -.04.44-.2.89-.69 1.25 -.09.06-.19.09-.3.09h-4.04c-.11 0-.21-.04-.3-.1 -.49-.36-.65-.81-.69-1.26 -.02-.21-.01-.42 0-.61 0-.04 0-.07 0-.1 0-.16.01-.31.01-.46 0-.51.2-.98.46-1.37 .26-.4.6-.76.92-1.06 .32-.31.65-.55.89-.73 .12-.09.22-.16.29-.21 .03-.03.06-.05.08-.06l.02-.02 0-.01 0-.01 0-.01Z"/></g></svg>