<svg viewBox="0 0 24 24" xmlns="http://www.w3.org/2000/svg"><g fill-rule="evenodd"><path d="M11.75 1.56c.15-.09.33-.09.48 0l10 5.6c.15.08.25.25.25.43v1.4c0 .27-.23.5-.5.5h-20c-.14 0-.26-.06-.36-.15 -.1-.1-.15-.23-.15-.36v-1.4c0-.19.09-.35.25-.44l10-5.6ZM2.49 7.88v.6h19v-.61l-9.5-5.32 -9.5 5.32Z"/><path d="M3 11.5c0-.28.22-.5.5-.5h3c.27 0 .5.22.5.5V22c0 .27-.23.5-.5.5h-3c-.28 0-.5-.23-.5-.5V11.5Zm1 .5v9.5h2V12H4Z"/><path d="M10 11.5c0-.28.22-.5.5-.5h3c.27 0 .5.22.5.5V22c0 .27-.23.5-.5.5h-3c-.28 0-.5-.23-.5-.5V11.5Zm1 .5v9.5h2V12h-2Z"/><path d="M17 11.5c0-.28.22-.5.5-.5h3c.27 0 .5.22.5.5V22c0 .27-.23.5-.5.5h-3c-.28 0-.5-.23-.5-.5V11.5Zm1 .5v9.5h2V12h-2Z"/><path d="M16.5 9c0-.28.22-.5.5-.5h4c.27 0 .5.22.5.5v2.5c0 .27-.23.5-.5.5h-4c-.28 0-.5-.23-.5-.5V9Zm1 .5V11h3V9.5h-3Z"/><path d="M9.5 9c0-.28.22-.5.5-.5h4c.27 0 .5.22.5.5v2.5c0 .27-.23.5-.5.5h-4c-.28 0-.5-.23-.5-.5V9Zm1 .5V11h3V9.5h-3Z"/><path d="M2.5 9c0-.28.22-.5.5-.5h4c.27 0 .5.22.5.5v2.5c0 .27-.23.5-.5.5H3c-.28 0-.5-.23-.5-.5V9Zm1 .5V11h3V9.5h-3Z"/><path d="M2 21.5h20v1H2v-1Z"/></g></svg>