<svg viewBox="0 0 24 24" xmlns="http://www.w3.org/2000/svg"><g fill-rule="evenodd"><path d="M8.5 5V2h1v3h-1Z"/><path d="M21 22.5H3v-1h18v1Z"/><path d="M8.5 4c0-.28.22-.5.5-.5 2.66 0 5.03 1.34 6.74 3.3 1.7 1.96 2.75 4.57 2.75 7.19v8c0 .27-.23.5-.5.5h-9c-.28 0-.5-.23-.5-.5v-18Zm1 .51v16.98h8v-7.5c0-2.36-.96-4.75-2.52-6.54 -1.45-1.67-3.38-2.8-5.49-2.95Z"/><path d="M13.5 19.5H9v-1h4.5v1Z"/><path d="M13.5 16.5H9v-1h4.5v1Z"/><path d="M13.5 13.5H9v-1h4.5v1Z"/><path d="M13.5 10.5H9v-1h4.5v1Z"/><path d="M5.5 5.5c0-.28.22-.5.5-.5h3v1H6.5v16h-1V5.5Z"/></g></svg>