<svg viewBox="0 0 24 24" xmlns="http://www.w3.org/2000/svg"><g fill-rule="evenodd"><path d="M20.5 7v2.37h-1V6.99h1Z"/><path d="M16.5 2v2.37h-1V1.99h1Z"/><path d="M12.5 2v2.37h-1V1.99h1Z"/><path d="M4.5 7v2.37h-1V6.99h1Z"/><path d="M8.5 2v2.37h-1V1.99h1Z"/><path d="M3.5 9.5c0-.28.22-.5.5-.5h16c.27 0 .5.22.5.5v12c0 .27-.23.5-.5.5H4c-.28 0-.5-.23-.5-.5v-12Zm1 .5v11h15V10h-15Z"/><path d="M7.5 4c0-.28.22-.5.5-.5h8c.27 0 .5.22.5.5v5.5c0 .27-.23.5-.5.5H8c-.28 0-.5-.23-.5-.5V4Zm1 .5V9h7V4.5h-7Z"/><path d="M6.5 17.5c0-2.49 2.01-4.5 4.5-4.5h2c2.48 0 4.5 2.01 4.5 4.5v4c0 .27-.23.5-.5.5H7c-.28 0-.5-.23-.5-.5v-4ZM11 14c-1.94 0-3.5 1.56-3.5 3.5V21h9v-3.5c0-1.94-1.57-3.5-3.5-3.5h-2Z"/><path d="M11.5 21.5v-8h1v8h-1Z"/><path d="M22 22H2v-1h20v1Z"/></g></svg>