<svg viewBox="0 0 24 24" xmlns="http://www.w3.org/2000/svg"><g fill-rule="evenodd"><path d="M3.5 15c0-.28.22-.5.5-.5h16c.27 0 .5.22.5.5v7c0 .27-.23.5-.5.5H4c-.28 0-.5-.23-.5-.5v-7Zm1 .5v6h15v-6h-15Z"/><path d="M3.5 8c0-.28.22-.5.5-.5h16c.27 0 .5.22.5.5v7c0 .27-.23.5-.5.5H4c-.28 0-.5-.23-.5-.5V8Zm1 .5v6h15v-6h-15Z"/><path d="M3.5 2c0-.28.22-.5.5-.5h8c.15 0 .29.06.39.18l1.74 2.18 1.63-.82c.06-.04.14-.06.22-.06h2.5c.21 0 .4.13.47.34l1.5 4.5c.05.15.02.32-.07.45 -.1.13-.25.2-.41.2h-16c-.28 0-.5-.23-.5-.5v-6Zm1 .5v5h14.8L18.13 4H16.1l-1.9.94c-.22.1-.47.04-.62-.14l-1.85-2.32H4.47Z"/><path d="M7 19c0-1.11.89-2 2-2 1.1 0 2 .89 2 2v3c0 .27-.23.5-.5.5h-3c-.28 0-.5-.23-.5-.5v-3Zm2-1c-.56 0-1 .44-1 1v2.5h2V19c0-.56-.45-1-1-1Z"/><path d="M7 12c0-1.11.89-2 2-2 1.1 0 2 .89 2 2v3c0 .27-.23.5-.5.5h-3c-.28 0-.5-.23-.5-.5v-3Zm2-1c-.56 0-1 .44-1 1v2.5h2V12c0-.56-.45-1-1-1Z"/><path d="M13 19c0-1.11.89-2 2-2 1.1 0 2 .89 2 2v3c0 .27-.23.5-.5.5h-3c-.28 0-.5-.23-.5-.5v-3Zm2-1c-.56 0-1 .44-1 1v2.5h2V19c0-.56-.45-1-1-1Z"/><path d="M13 12c0-1.11.89-2 2-2 1.1 0 2 .89 2 2v3c0 .27-.23.5-.5.5h-3c-.28 0-.5-.23-.5-.5v-3Zm2-1c-.56 0-1 .44-1 1v2.5h2V12c0-.56-.45-1-1-1Z"/><path d="M2 21.5h20v1H2v-1Z"/><path d="M2 14.5h20v1H2v-1Z"/><path d="M2 7.5h20v1H2v-1Z"/></g></svg>