<svg viewBox="0 0 24 24" xmlns="http://www.w3.org/2000/svg"><g fill-rule="evenodd"><path d="M3.5 6c0-.28.22-.5.5-.5h16c.27 0 .5.22.5.5v13.5c0 .27-.23.5-.5.5H4c-.28 0-.5-.23-.5-.5V6Zm1 .5V19h15V6.5h-15Z"/><path d="M9 12.5c0-.28.22-.5.5-.5h5c.27 0 .5.22.5.5v7c0 .27-.23.5-.5.5h-5c-.28 0-.5-.23-.5-.5v-7Zm1 .5v6h4v-6h-4Z"/><path d="M10 10H6.5V9H10v1Z"/><path d="M17.5 10H14V9h3.5v1Z"/><path d="M1.5 19.5c0-.28.22-.5.5-.5h20c.27 0 .5.22.5.5V22c0 .27-.23.5-.5.5H2c-.28 0-.5-.23-.5-.5v-2.5Zm1 .5v1.5h19V20h-19Z"/><path d="M3.55 1.77c.08-.17.25-.28.44-.28h16c.18 0 .36.1.44.27l2 4c.07.15.06.33-.03.48 -.1.14-.26.23-.43.23h-20c-.18 0-.34-.09-.43-.24 -.1-.15-.1-.34-.03-.49l2-4Zm.75.72l-1.5 3h18.38l-1.5-3H4.29Z"/></g></svg>