<svg viewBox="0 0 24 24" xmlns="http://www.w3.org/2000/svg"><g fill-rule="evenodd"><path d="M11.79 7.59c.13.09.2.24.2.4v14c0 .27-.23.5-.5.5h-7.5c-.28 0-.5-.23-.5-.5v-11.5c0-.22.13-.41.34-.48l7.5-2.51c.15-.06.32-.03.45.06Zm-7.3 3.26v10.63h6.5V8.67l-6.5 2.16Z"/><path d="M11.2 2.59c-.13.09-.21.24-.21.4v19c0 .27.22.5.5.5h8.5c.27 0 .5-.23.5-.5V5.49c0-.23-.15-.42-.36-.48l-8.5-2.5c-.16-.05-.32-.02-.45.07Zm8.29 3.27v15.62h-7.5V3.64l7.5 2.2Z"/><path d="M8.85 2.47l13 4 .29-.96 -13-4 -.3.95Z"/><path d="M13.5 16c0-.28.22-.5.5-.5h3.5c.27 0 .5.22.5.5v6c0 .27-.23.5-.5.5H14c-.28 0-.5-.23-.5-.5v-6Zm1 .5v5H17v-5h-2.5Z"/><path d="M17 8.5h-2.5v-1H17v1Z"/><path d="M17 11.5h-2.5v-1H17v1Z"/><path d="M9 13.5H6.5v-1H9v1Z"/><path d="M2 21.5h20v1H2v-1Z"/></g></svg>