<svg viewBox="0 0 24 24" xmlns="http://www.w3.org/2000/svg"><g fill-rule="evenodd"><path d="M5 19V8H4v11.5c0 .27.22.5.5.5h15c.27 0 .5-.23.5-.5V8h-1v11H5Z"/><path d="M9 19.5V12c0-.83.67-1.5 1.5-1.5H14c.82 0 1.5.67 1.5 1.5v7.5h1V12c0-1.39-1.12-2.5-2.5-2.5h-3.5C9.11 9.5 8 10.61 8 12v7.5h1Z"/><path d="M11.877 1.6c.18-.15.44-.15.62 0l9.81 8 -.64.77 -9.51-7.75 -9.88 7.75 -.62-.79 10.18-8Z"/><path d="M1.5 19.5c0-.28.22-.5.5-.5h20c.27 0 .5.22.5.5V22c0 .27-.23.5-.5.5H2c-.28 0-.5-.23-.5-.5v-2.5Zm1 .5v1.5h19V20h-19Z"/></g></svg>