<svg viewBox="0 0 24 24" xmlns="http://www.w3.org/2000/svg"><g fill-rule="evenodd"><path d="M12.27 7.58c.14.09.22.24.22.41v7.5c0 .27-.23.5-.5.5h-7c-.28 0-.5-.23-.5-.5v-4.5c0-.2.11-.39.3-.46l6.99-3c.15-.07.33-.06.47.04Zm-6.78 3.74v3.67h6V8.74l-6 2.57Z"/><path d="M19.27 7.58c.14.09.22.24.22.41v7.5c0 .27-.23.5-.5.5h-7c-.28 0-.5-.23-.5-.5v-4.5c0-.2.11-.39.3-.46l7-3c.15-.07.33-.06.47.04Zm-6.78 3.74v3.67h6V8.74l-6 2.57Z"/><path d="M3.5 15.5c0-.28.22-.5.5-.5h16c.27 0 .5.22.5.5V22c0 .27-.23.5-.5.5H4c-.28 0-.5-.23-.5-.5v-6.5Zm1 .5v5.5h15V16h-15Z"/><path d="M6 3c0-.28.22-.5.5-.5h3c.27 0 .5.22.5.5v5.75H9V3.5H7v6.75H6V3Z"/><path d="M14 3c0-.28.22-.5.5-.5h3c.27 0 .5.22.5.5v5.25h-1V3.5h-2v6.25h-1V3Z"/><path d="M11 3.5H5v-1h6v1Z"/><path d="M19 3.5h-6v-1h6v1Z"/><path d="M17.5 19h-3v-1h3v1Z"/><path d="M9.5 19h-3v-1h3v1Z"/><path d="M22 22.5H2v-1h20v1Z"/></g></svg>