<svg viewBox="0 0 24 24" xmlns="http://www.w3.org/2000/svg"><g fill-rule="evenodd"><path d="M7.5 8.5c0-.28.22-.5.5-.5h8c.27 0 .5.22.5.5V22c0 .27-.23.5-.5.5H8c-.28 0-.5-.23-.5-.5V8.5Zm1 .5v12.5h7V9h-7Z"/><path d="M9 6c0-.28.22-.5.5-.5h5c.27 0 .5.22.5.5v2.5c0 .27-.23.5-.5.5h-5c-.28 0-.5-.23-.5-.5V6Zm1 .5V8h4V6.5h-4Z"/><path d="M6 21.5h12v1H6v-1Z"/><path d="M8.53 5.5h6.92c-.25-1.7-1.71-3-3.47-3 -1.77 0-3.23 1.3-3.47 3ZM7.49 6c0-2.49 2.01-4.5 4.5-4.5 2.48 0 4.5 2.01 4.5 4.5 0 .27-.23.5-.5.5h-8c-.28 0-.5-.23-.5-.5Z"/><path d="M12 11.5c-.56 0-1 .44-1 1 0 .55.44 1 1 1 .55 0 1-.45 1-1 0-.56-.45-1-1-1Zm-2 1c0-1.11.89-2 2-2 1.1 0 2 .89 2 2 0 1.1-.9 2-2 2 -1.11 0-2-.9-2-2Z"/><path d="M12.5 17.5V22h-1v-4.5h1Z"/></g></svg>