<svg viewBox="0 0 24 24" xmlns="http://www.w3.org/2000/svg"><g fill-rule="evenodd"><path d="M21.28 4.97c.13.09.21.24.21.41v13.11c0 .2-.13.39-.33.46l-9 3.44c-.16.05-.33.03-.47-.06 -.14-.1-.22-.25-.22-.42V8.79c0-.21.12-.4.32-.47l9-3.45c.15-.06.32-.04.46.05Zm-8.79 4.2v12.04l8-3.07V6.09l-8 3.06Z"/><path d="M18.31 13.56c.13.09.22.24.22.41v5.61c0 .2-.13.39-.32.46l-3.04 1.19c-.16.06-.33.04-.47-.06 -.14-.1-.22-.25-.22-.42v-5.54c0-.21.12-.39.3-.47l3.03-1.28c.15-.07.33-.05.47.04Zm-2.82 2.02v4.46l2.03-.81v-4.52l-2.04.85Z"/><path d="M11.82 1.53c.11-.05.23-.05.35 0l9 3.38c.19.07.32.25.32.46 0 .2-.13.39-.33.46l-9 3.44c-.12.04-.25.04-.36 0L2.79 5.82c-.2-.08-.33-.27-.33-.47 0-.21.12-.4.32-.47l8.99-3.39ZM4.4 5.39l7.59 2.9 7.59-2.91 -7.6-2.86 -7.6 2.85Z"/><path d="M2.71 4.97c-.14.09-.22.24-.22.41v13.11c0 .2.12.39.32.46l9 3.44c.15.05.32.03.46-.06 .13-.1.21-.25.21-.42V8.79c0-.21-.13-.4-.33-.47l-9-3.45c-.16-.06-.33-.04-.47.05Zm8.78 4.2v12.04l-8-3.07V6.09l8 3.06Z"/><path d="M2.82 9.35l9 3.44 .35-.94 -9-3.45 -.36.93Z"/><path d="M21.17 9.35l-9 3.44 -.36-.94 9-3.45 .35.93Z"/></g></svg>