<svg viewBox="0 0 24 24" xmlns="http://www.w3.org/2000/svg"><g fill-rule="evenodd"><path d="M3.5 9c0-.28.22-.5.5-.5h16c.27 0 .5.22.5.5v12c0 .27-.23.5-.5.5H4c-.28 0-.5-.23-.5-.5V9Zm1 .5v11h15v-11h-15Z"/><path d="M11.74 1.56c.15-.1.35-.1.5 0l10 5.9c.15.08.24.25.24.43v1.1c0 .27-.23.5-.5.5h-20c-.28 0-.5-.23-.5-.5v-1.1c0-.18.09-.35.24-.44l9.99-5.9ZM2.49 8.17v.31h19v-.32l-9.5-5.61 -9.5 5.6Z"/><path d="M11.752 4.56c.15-.09.34-.09.49 0l7 4c.19.11.29.34.23.56 -.06.21-.26.37-.49.37h-14c-.23 0-.43-.16-.49-.38s.03-.45.23-.57l7-4ZM6.88 8.49h10.23l-5.12-2.93 -5.12 2.92Z"/><path d="M6 13.5C6 12.11 7.11 11 8.5 11c1.38 0 2.5 1.11 2.5 2.5V21c0 .27-.23.5-.5.5h-4c-.28 0-.5-.23-.5-.5v-7.5ZM8.5 12c-.83 0-1.5.67-1.5 1.5v7h3v-7c0-.83-.68-1.5-1.5-1.5Z"/><path d="M13 13.5c0-1.39 1.11-2.5 2.5-2.5 1.38 0 2.5 1.11 2.5 2.5V21c0 .27-.23.5-.5.5h-4c-.28 0-.5-.23-.5-.5v-7.5Zm2.5-1.5c-.83 0-1.5.67-1.5 1.5v7h3v-7c0-.83-.68-1.5-1.5-1.5Z"/><path d="M2 20.5h20v1H2v-1Z"/></g></svg>