<svg viewBox="0 0 24 24" xmlns="http://www.w3.org/2000/svg"><g fill-rule="evenodd"><path d="M3.5 12c0-.28.22-.5.5-.5h16c.27 0 .5.22.5.5v8c0 .27-.23.5-.5.5H4c-.28 0-.5-.23-.5-.5v-8Zm1 .5v7h15v-7h-15Z"/><path d="M3.5 4c0-.28.22-.5.5-.5h16c.27 0 .5.22.5.5v8c0 .27-.23.5-.5.5H4c-.28 0-.5-.23-.5-.5V4Zm1 .5v7h15v-7h-15Z"/><path d="M8.5 4v8h-1V4h1Z"/><path d="M12.5 4v8h-1V4h1Z"/><path d="M16.5 4v8h-1V4h1Z"/><path d="M9.5 15c0-.28.22-.5.5-.5h4c.27 0 .5.22.5.5v5c0 .27-.23.5-.5.5h-4c-.28 0-.5-.23-.5-.5v-5Zm1 .5v4h3v-4h-3Z"/><path d="M2 19.5h20v1H2v-1Z"/><path d="M4 7.5h16v1H4v-1Z"/></g></svg>