<svg viewBox="0 0 24 24" xmlns="http://www.w3.org/2000/svg"><g fill-rule="evenodd"><path d="M5.5 2v3h-1V2h1Z"/><path d="M19.5 2v3h-1V2h1Z"/><path d="M1.5 11c0-.28.22-.5.5-.5h6c.27 0 .5.22.5.5v11c0 .27-.23.5-.5.5H2c-.28 0-.5-.23-.5-.5V11Zm1 .5v10h5v-10h-5Z"/><path d="M15.5 11c0-.28.22-.5.5-.5h6c.27 0 .5.22.5.5v11c0 .27-.23.5-.5.5h-6c-.28 0-.5-.23-.5-.5V11Zm1 .5v10h5v-10h-5Z"/><path d="M2.5 8c0-.28.22-.5.5-.5h4c.27 0 .5.22.5.5v3c0 .27-.23.5-.5.5H3c-.28 0-.5-.23-.5-.5V8Zm1 .5v2h3v-2h-3Z"/><path d="M16.5 8c0-.28.22-.5.5-.5h4c.27 0 .5.22.5.5v3c0 .27-.23.5-.5.5h-4c-.28 0-.5-.23-.5-.5V8Zm1 .5v2h3v-2h-3Z"/><path d="M7.5 11c0-.28.22-.5.5-.5h8c.27 0 .5.22.5.5v3c0 .27-.23.5-.5.5H8c-.28 0-.5-.23-.5-.5v-3Zm1 .5v2h7v-2h-7Z"/><path d="M3 5c0-.28.22-.5.5-.5h3c.27 0 .5.22.5.5v3c0 .27-.23.5-.5.5h-3c-.28 0-.5-.23-.5-.5V5Zm1 .5v2h2v-2H4Z"/><path d="M17 5c0-.28.22-.5.5-.5h3c.27 0 .5.22.5.5v3c0 .27-.23.5-.5.5h-3c-.28 0-.5-.23-.5-.5V5Zm1 .5v2h2v-2h-2Z"/><path d="M15.64 18.35l-4-4 .7-.71 4 4 -.71.7Z"/><path d="M8.35 18.35l3.99-4 -.71-.71 -4 4 .7.7Z"/></g></svg>