<svg viewBox="0 0 24 24" xmlns="http://www.w3.org/2000/svg"><g fill-rule="evenodd"><path d="M20.5 22.5h-17v-1h17v1Z"/><path d="M8.5 15c0-.28.22-.5.5-.5h6c.27 0 .5.22.5.5v7c0 .27-.23.5-.5.5H9c-.28 0-.5-.23-.5-.5v-7Zm1 .5v6h5v-6h-5Z"/><path d="M9.5 7.5c0-.28.22-.5.5-.5h4c.27 0 .5.22.5.5V15c0 .27-.23.5-.5.5h-4c-.28 0-.5-.23-.5-.5V7.5Zm1 .5v6.5h3V8h-3Z"/><path d="M10 4.5c0-.28.22-.5.5-.5h3c.27 0 .5.22.5.5v3c0 .27-.23.5-.5.5h-3c-.28 0-.5-.23-.5-.5v-3Zm1 .5v2h2V5h-2Z"/><path d="M14.5 17c0-.28.22-.5.5-.5h2.5c.27 0 .5.22.5.5v5c0 .27-.23.5-.5.5H15c-.28 0-.5-.23-.5-.5v-5Zm1 .5v4H17v-4h-1.5Z"/><path d="M6 17c0-.28.22-.5.5-.5H9c.27 0 .5.22.5.5v5c0 .27-.23.5-.5.5H6.5c-.28 0-.5-.23-.5-.5v-5Zm1 .5v4h1.5v-4H7Z"/><path d="M12.5 1.81v2.68h-1V1.8h1Z"/></g></svg>