<svg viewBox="0 0 24 24" xmlns="http://www.w3.org/2000/svg"><g fill-rule="evenodd"><path d="M1.5 19.5c0-.28.22-.5.5-.5h20c.27 0 .5.22.5.5V22c0 .27-.23.5-.5.5H2c-.28 0-.5-.23-.5-.5v-2.5Zm1 .5v1.5h19V20h-19Z"/><path d="M3 5c0-.28.22-.5.5-.5h17c.27 0 .5.22.5.5v14.5c0 .27-.23.5-.5.5h-17c-.28 0-.5-.23-.5-.5V5Zm1 .5V19h16V5.5H4Z"/><path d="M3.58 1.72c.09-.14.24-.23.41-.23h16c.16 0 .32.08.41.22l2 3c.1.15.11.35.02.51 -.09.16-.26.26-.45.26h-20c-.19 0-.36-.11-.45-.27 -.09-.17-.08-.36.02-.52l2-3Zm.68.77l-1.34 2h18.13l-1.34-2H4.24Z"/><path d="M11.86 7.01c.08-.03.18-.03.27 0l3.5 1c.21.06.36.25.36.48v3.44c0 1.45-.71 2.81-1.89 3.66l-1.83 1.3c-.18.12-.41.12-.59 0l-1.83-1.31c-1.19-.85-1.89-2.21-1.89-3.67V8.46c0-.23.14-.42.36-.49l3.49-1ZM8.99 8.86v3.06c0 1.13.54 2.19 1.46 2.84l1.53 1.09 1.53-1.1c.91-.657 1.46-1.72 1.46-2.85V8.83l-3-.86 -3 .85Z"/></g></svg>