<svg viewBox="0 0 24 24" xmlns="http://www.w3.org/2000/svg"><g fill-rule="evenodd"><path d="M22 20.5H2v-1h20v1Z"/><path d="M4 8c0-.28.22-.5.5-.5h15c.27 0 .5.22.5.5v12c0 .27-.23.5-.5.5h-15c-.28 0-.5-.23-.5-.5V8Zm1 .5v11h14v-11H5Z"/><path d="M4.55 3.77c.08-.17.25-.28.44-.28h14c.18 0 .36.1.44.27l2 4c.07.15.06.33-.03.48 -.1.14-.26.23-.43.23h-18c-.18 0-.34-.09-.43-.24 -.1-.15-.1-.34-.03-.49l2-4Zm.75.72l-1.5 3h16.38l-1.5-3H5.29Z"/><path d="M9.5 15c0-.28.22-.5.5-.5h4c.27 0 .5.22.5.5v5c0 .27-.23.5-.5.5h-4c-.28 0-.5-.23-.5-.5v-5Zm1 .5v4h3v-4h-3Z"/><path d="M5 8c0 1.1.89 2 2 2 1.1 0 2-.9 2-2h1c0 1.65-1.35 3-3 3 -1.66 0-3-1.35-3-3h1Z"/><path d="M10 8c0 1.1.89 2 2 2 1.1 0 2-.9 2-2h1c0 1.65-1.35 3-3 3 -1.66 0-3-1.35-3-3h1Z"/><path d="M15 8c0 1.1.89 2 2 2 1.1 0 2-.9 2-2h1c0 1.65-1.35 3-3 3 -1.66 0-3-1.35-3-3h1Z"/></g></svg>