<svg viewBox="0 0 24 24" xmlns="http://www.w3.org/2000/svg"><g fill-rule="evenodd"><path d="M8.09 21.5l1.9-11.42L9 9.91l-2 12c-.03.14.01.29.11.4 .09.11.23.17.38.17h9c.14 0 .28-.07.38-.18 .09-.12.13-.27.11-.41l-2-12 -.99.16 1.9 11.41H8.07Z"/><path d="M5.5 21.5h13v1h-13v-1Z"/><path d="M12 6.5c-.56 0-1 .44-1 1 0 .55.44 1 1 1 .55 0 1-.45 1-1 0-.56-.45-1-1-1Zm-2 1c0-1.11.89-2 2-2 1.1 0 2 .89 2 2 0 1.1-.9 2-2 2 -1.11 0-2-.9-2-2Z"/><path d="M17.85 2.35l-4.5 4.5 -.71-.71 4.5-4.5 .7.7Z"/><path d="M17.85 12.64l-4.5-4.51 -.71.7 4.5 4.5 .7-.71Z"/><path d="M6.14 2.35l4.49 4.5 .7-.71 -4.5-4.5 -.71.7Z"/><path d="M6.14 12.64l4.49-4.51 .7.7 -4.5 4.5 -.71-.71Z"/><path d="M10 17.5c0-1.11.89-2 2-2 1.1 0 2 .89 2 2V22c0 .27-.23.5-.5.5h-3c-.28 0-.5-.23-.5-.5v-4.5Zm2-1c-.56 0-1 .44-1 1v4h2v-4c0-.56-.45-1-1-1Z"/></g></svg>