<svg viewBox="0 0 24 24" xmlns="http://www.w3.org/2000/svg"><path fill="#FFC44D" d="M7 1.25c-.34 0-.64.22-.73.55l-3 11c-.07.22-.02.46.12.65 .14.18.36.29.59.29h4.11l-1.36 8.12c-.06.35.13.69.46.82 .33.12.7 0 .9-.29l8.49-13c.15-.24.16-.53.03-.77 -.14-.25-.39-.4-.66-.4h-2.87l2.55-5.96c.09-.24.07-.5-.07-.71 -.14-.22-.38-.34-.63-.34h-8Z"/><g fill="#8B98A6" fill-rule="evenodd"><path d="M18.5 12.75c.3 0 .57.18.69.46l3.5 8.5c.15.38-.03.82-.41.97 -.39.15-.83-.03-.98-.41l-2.81-6.82 -2.81 6.81c-.16.38-.6.56-.98.4 -.39-.16-.57-.6-.41-.98l3.5-8.5c.11-.29.38-.47.69-.47Z"/><path d="M15.75 18.5c0-.42.33-.75.75-.75h4c.41 0 .75.33.75.75 0 .41-.34.75-.75.75h-4c-.42 0-.75-.34-.75-.75Z"/></g></svg>