<svg viewBox="0 0 24 24" xmlns="http://www.w3.org/2000/svg"><path fill="#5E94FF" d="M10.23 4.25c-1.05 0-2 .58-2.46 1.52l-.4.78c-.22.42-.65.69-1.12.69H4.98c-1.52 0-2.75 1.23-2.75 2.75v9c0 1.51 1.23 2.75 2.75 2.75h14c1.51 0 2.75-1.24 2.75-2.75v-9c0-1.52-1.24-2.75-2.75-2.75h-1.27c-.48 0-.91-.27-1.12-.7l-.4-.79c-.47-.94-1.42-1.53-2.46-1.53H10.2Z"/><path fill="#ECEFF1" d="M12 9.25c-2.63 0-4.75 2.12-4.75 4.75 0 2.62 2.12 4.75 4.75 4.75 2.62 0 4.75-2.13 4.75-4.75 0-2.63-2.13-4.75-4.75-4.75Z"/><g fill="#4DC4FF" fill-rule="evenodd"><path d="M18.33 10.38c.29-.3.29-.77-.01-1.07l-1.17-1.17h4.83c.41 0 .75-.34.75-.75 0-.42-.34-.75-.75-.75h-6.65c-.31 0-.58.18-.7.46s-.06.6.16.81l2.45 2.45c.29.29.76.29 1.06 0Z"/><path d="M18.66 1.96c.29-.3.76-.3 1.06 0l2.45 2.44c.21.21.27.53.16.81 -.12.28-.39.46-.7.46h-6.65c-.42 0-.75-.34-.75-.75 0-.42.33-.75.75-.75h4.83L18.64 3c-.3-.3-.3-.77 0-1.07Z"/></g></svg>