<svg viewBox="0 0 24 24" xmlns="http://www.w3.org/2000/svg"><g fill="#ECEFF1"><path d="M22.25 13c0-.34-.22-.63-.54-.72 -.32-.1-.66.02-.85.3l-1.5 2.23L17 12.45c-.3-.3-.77-.3-1.07 0l-2.47 2.46 -2.47-2.47c-.3-.3-.77-.3-1.07 0l-2.59 2.58 -4.5-2.7c-.24-.14-.53-.15-.76-.01 -.24.13-.39.38-.39.65v6.5c0 1.51 1.23 2.75 2.75 2.75h15c1.51 0 2.75-1.24 2.75-2.75v-6.5Z"/><path d="M3.03 11.03c-.22.21-.54.27-.82.16 -.29-.12-.47-.39-.47-.7v-6.5c0-1.52 1.23-2.75 2.75-2.75h15c1.51 0 2.75 1.23 2.75 2.75v6.5c0 .28-.17.54-.42.67 -.26.12-.56.09-.79-.08l-3.48-2.61L15 11.01c-.15.14-.34.21-.54.21s-.39-.08-.54-.22l-2.47-2.47 -2.47 2.46c-.3.29-.77.29-1.07 0L5.44 8.52l-2.47 2.46Z"/></g></svg>