<svg viewBox="0 0 24 24" xmlns="http://www.w3.org/2000/svg"><path fill="#ECEFF1" d="M4 3.25C2.48 3.25 1.25 4.48 1.25 6v9.6c0 1.51 1.23 2.75 2.75 2.75h13c1.51 0 2.75-1.24 2.75-2.75V6c0-1.52-1.24-2.75-2.75-2.75H4Z"/><g fill="#5E94FF" fill-rule="evenodd"><path d="M19.75 15.56l-.24-.21 -2.82-2.82c-1.08-1.08-2.82-1.08-3.89 0l-1.14 1.13c-.15.14-.22.33-.22.53v4.15h5.54c1.51 0 2.75-1.24 2.75-2.75v-.04Z"/><path d="M17.38 18.32L8.61 9.55c-1.08-1.08-2.82-1.08-3.89 0l-3.27 3.26c-.01 0-.02.01-.02.01l-.21.21v2.54c0 1.51 1.23 2.75 2.75 2.75h13c.13 0 .25-.01.38-.03Z"/><path fill="#CFD8DC" d="M22 6.25c.41 0 .75.33.75.75v11.5c0 1.51-1.24 2.75-2.75 2.75H5c-.42 0-.75-.34-.75-.75 0-.42.33-.75.75-.75h15c.69 0 1.25-.56 1.25-1.25V7c0-.42.33-.75.75-.75Z"/></g></svg>