<svg viewBox="0 0 24 24" xmlns="http://www.w3.org/2000/svg"><g fill="#5E94FF"><path d="M6 13.25c-2.08 0-3.75 1.67-3.75 3.75 0 2.07 1.67 3.75 3.75 3.75 2.07 0 3.75-1.68 3.75-3.75 0-2.08-1.68-3.75-3.75-3.75Z"/><path fill="#5E94FF" fill-rule="evenodd" d="M9 2.75c.41 0 .75.33.75.75v13.75c0 .41-.34.75-.75.75 -.42 0-.75-.34-.75-.75V3.5c0-.42.33-.75.75-.75Z"/><path d="M17.5 13.25c-2.08 0-3.75 1.67-3.75 3.75 0 2.07 1.67 3.75 3.75 3.75 2.07 0 3.75-1.68 3.75-3.75 0-2.08-1.68-3.75-3.75-3.75Z"/><path fill="#5E94FF" fill-rule="evenodd" d="M20.5 4.75c.41 0 .75.33.75.75v11.75c0 .41-.34.75-.75.75 -.42 0-.75-.34-.75-.75V5.5c0-.42.33-.75.75-.75Z"/><path d="M9.71 2.36c-.77-.14-1.47.45-1.47 1.23v2.98c0 .6.43 1.12 1.03 1.23l10.5 1.82c.76.13 1.46-.46 1.46-1.24V5.39c0-.61-.44-1.13-1.04-1.24L9.69 2.32Z"/></g></svg>