<svg viewBox="0 0 24 24" xmlns="http://www.w3.org/2000/svg"><path fill="#ECEFF1" d="M6 1.25C4.48 1.25 3.25 2.48 3.25 4v16c0 1.51 1.23 2.75 2.75 2.75h12c1.51 0 2.75-1.24 2.75-2.75V4c0-1.52-1.24-2.75-2.75-2.75H6Z"/><path fill="#5E94FF" fill-rule="evenodd" d="M3.25 4c0-1.52 1.23-2.75 2.75-2.75h12c1.51 0 2.75 1.23 2.75 2.75v16c0 1.51-1.24 2.75-2.75 2.75H6c-1.52 0-2.75-1.24-2.75-2.75V4ZM6 2.75c-.7 0-1.25.55-1.25 1.25v16c0 .69.55 1.25 1.25 1.25h12c.69 0 1.25-.56 1.25-1.25V4c0-.7-.56-1.25-1.25-1.25H6Z"/><path fill="#5E94FF" d="M12 8.25c-1.8 0-3.25 1.45-3.25 3.25 0 1.79 1.45 3.25 3.25 3.25 1.79 0 3.25-1.46 3.25-3.25 0-1.8-1.46-3.25-3.25-3.25Z"/><path fill="#8B98A6" d="M12 3.25c-.97 0-1.75.78-1.75 1.75 0 .96.78 1.75 1.75 1.75 .96 0 1.75-.79 1.75-1.75 0-.97-.79-1.75-1.75-1.75Z"/><path fill="#5E94FF" d="M12 14.75c-2.63 0-4.75 2.12-4.75 4.75 0 .41.33.75.75.75h8c.41 0 .75-.34.75-.75 0-2.63-2.13-4.75-4.75-4.75Z"/></svg>