<svg viewBox="0 0 24 24" xmlns="http://www.w3.org/2000/svg"><path fill="#ECEFF1" d="M12 1.25C6.06 1.25 1.25 6.06 1.25 12c0 5.93 4.81 10.75 10.75 10.75 5.93 0 10.75-4.82 10.75-10.75 0-5.94-4.82-10.75-10.75-10.75Z"/><g fill="#5E94FF"><path d="M11.96 7.96c.21-.22.53-.28.81-.17 .28.11.46.38.46.69v7c0 .3-.19.57-.47.69 -.29.11-.61.05-.82-.17l-3.51-3.5c-.3-.3-.3-.77 0-1.07l3.5-3.51Z"/><path fill="#5E94FF" fill-rule="evenodd" d="M15 7.75c-.42 0-.75.33-.75.75v7c0 .41.33.75.75.75 .41 0 .75-.34.75-.75v-7c0-.42-.34-.75-.75-.75Z"/></g></svg>