<svg viewBox="0 0 24 24" xmlns="http://www.w3.org/2000/svg"><path fill="#EE4D4D" d="M7 13.25c-.42 0-.75.33-.75.75v6.523c0 1.23 1.25 2.08 2.39 1.62l3.25-1.31c.05-.03.12-.03.18 0l3.25 1.3c1.14.45 2.39-.39 2.39-1.63V13.98c0-.42-.34-.75-.75-.75h-10Z"/><path fill="#FFC44D" d="M12 1.25C7.71 1.25 4.25 4.71 4.25 9c0 4.28 3.46 7.75 7.75 7.75 4.28 0 7.75-3.47 7.75-7.75 0-4.29-3.47-7.75-7.75-7.75Z"/><path fill="#FF884D" d="M12.71 4.76c-.11-.31-.39-.52-.72-.52 -.33 0-.62.2-.72.51l-.73 2.24H8.17c-.33 0-.62.2-.72.51 -.11.3 0 .64.27.83l1.91 1.38 -.73 2.24c-.11.3 0 .64.27.83 .26.19.61.19.88 0l1.91-1.39 1.91 1.38c.26.19.61.19.88 0 .26-.2.37-.53.27-.84l-.73-2.25 1.91-1.39c.26-.2.37-.53.27-.84 -.11-.31-.39-.52-.72-.52h-2.37l-.73-2.25Z"/></svg>