<svg viewBox="0 0 24 24" xmlns="http://www.w3.org/2000/svg"><g fill="#8BC94D"><path d="M14 14.25c-1.52 0-2.75 1.23-2.75 2.75v1c0 .41.33.75.75.75h3c1.51 0 2.75-1.24 2.75-2.75v-1c0-.42-.34-.75-.75-.75h-3Z"/><path fill="#8BC94D" fill-rule="evenodd" d="M12 12.25c.41 0 .75.33.75.75v9c0 .41-.34.75-.75.75 -.42 0-.75-.34-.75-.75v-9c0-.42.33-.75.75-.75Z"/></g><path fill="#FFC44D" d="M12 6.25c-2.08 0-3.75 1.67-3.75 3.75 0 2.07 1.67 3.75 3.75 3.75 2.07 0 3.75-1.68 3.75-3.75 0-2.08-1.68-3.75-3.75-3.75Z"/><g fill="#CFD8DC" fill-rule="evenodd"><path d="M4.5 1.25c.41 0 .75.33.75.75v6c0 .41-.34.75-.75.75 -.42 0-.75-.34-.75-.75V2c0-.42.33-.75.75-.75Z"/><path d="M19.5 1.25c.41 0 .75.33.75.75v6c0 .41-.34.75-.75.75 -.42 0-.75-.34-.75-.75V2c0-.42.33-.75.75-.75Z"/><path d="M4.03 1.41c.27-.22.66-.22.93 0l2.5 2c.32.25.37.73.11 1.05 -.26.32-.74.37-1.06.11L4.47 2.94 2.43 4.56c-.33.25-.8.2-1.06-.12 -.26-.33-.21-.8.11-1.06l2.5-2Z"/><path d="M19.03 1.41c.27-.22.66-.22.93 0l2.5 2c.32.25.37.73.11 1.05 -.26.32-.74.37-1.06.11l-2.04-1.63 -2.04 1.62c-.33.25-.8.2-1.06-.12 -.26-.33-.21-.8.11-1.06l2.5-2Z"/><path d="M8.25 22c0-.42.33-.75.75-.75h6c.41 0 .75.33.75.75 0 .41-.34.75-.75.75H9c-.42 0-.75-.34-.75-.75Z"/></g></svg>