<svg viewBox="0 0 24 24" xmlns="http://www.w3.org/2000/svg"><g fill="#A2ADB8"><path d="M9 18.5c-.42 0-.75.33-.75.75v1.5c0 .96.78 1.75 1.75 1.75h4c.96 0 1.75-.79 1.75-1.75v-1.5c0-.42-.34-.75-.75-.75H9Z"/><path d="M7.08 12.626c.21-.15.49-.17.73-.06 .23.11.39.34.42.6l.5 5c.02.21-.05.42-.2.57 -.15.15-.35.24-.56.24h-3.5c-.42 0-.75-.34-.75-.75v-3c0-.26.12-.49.33-.63l3-2Z"/><path d="M16.916 12.626c-.22-.15-.5-.17-.74-.06 -.24.11-.4.34-.43.6l-.5 5c-.03.21.04.42.19.57 .14.15.34.24.55.24h3.5c.41 0 .75-.34.75-.75v-3c0-.26-.13-.49-.34-.63l-3-2Z"/></g><path fill="#ECEFF1" d="M12.46 1.66c-.28-.22-.67-.22-.94 0L8.17 4.33c-1.23.98-1.89 2.5-1.77 4.07l.76 9.96c.07.91.83 1.61 1.74 1.61h6.14c.91 0 1.67-.71 1.74-1.62l.76-9.97c.12-1.57-.55-3.1-1.77-4.08l-3.35-2.68Z"/><path fill="#EE4D4D" fill-rule="evenodd" d="M17.33 6.5c-.29-.84-.82-1.59-1.53-2.16l-3.35-2.68c-.28-.22-.67-.22-.94 0L8.16 4.33c-.72.569-1.24 1.32-1.53 2.15H17.3Z"/><path fill="#A2ADB8" d="M12 10.5c-1.25 0-2.25 1-2.25 2.25 0 1.24 1 2.25 2.25 2.25 1.24 0 2.25-1.01 2.25-2.25 0-1.25-1.01-2.25-2.25-2.25Z"/></svg>