<svg viewBox="0 0 24 24" xmlns="http://www.w3.org/2000/svg"><path fill="#CFD8DC" fill-rule="evenodd" d="M1.25 7c0-.42.33-.75.75-.75h7c.41 0 .75.33.75.75 0 .41-.34.75-.75.75H2.75v8.5H6c.41 0 .75.33.75.75 0 .41-.34.75-.75.75H2c-.42 0-.75-.34-.75-.75V7Z"/><g fill="#5E94FF"><path d="M9 3.25c-.42 0-.75.33-.75.75v6c0 .41.33.75.75.75h13c.41 0 .75-.34.75-.75V4c0-.42-.34-.75-.75-.75H9Z"/><path d="M9 13.25c-.42 0-.75.33-.75.75v6c0 .41.33.75.75.75h13c.41 0 .75-.34.75-.75v-6c0-.42-.34-.75-.75-.75H9Z"/></g><g fill="#ECEFF1" fill-rule="evenodd"><path d="M11.25 7c0-.42.33-.75.75-.75h7c.41 0 .75.33.75.75 0 .41-.34.75-.75.75h-7c-.42 0-.75-.34-.75-.75Z"/><path d="M11.25 17c0-.42.33-.75.75-.75h7c.41 0 .75.33.75.75 0 .41-.34.75-.75.75h-7c-.42 0-.75-.34-.75-.75Z"/><path fill="#CFD8DC" d="M4.03 13.91c.32-.26.79-.21 1.05.11l2 2.5c.21.27.21.66 0 .93l-2 2.5c-.26.32-.74.37-1.06.11 -.33-.26-.38-.74-.12-1.06l1.62-2.04 -1.63-2.04c-.26-.33-.21-.8.11-1.06Z"/></g></svg>