<svg viewBox="0 0 24 24" xmlns="http://www.w3.org/2000/svg"><g fill-rule="evenodd"><path d="M1.5 7c0-1.39 1.11-2.5 2.5-2.5h16c1.38 0 2.5 1.11 2.5 2.5v12c0 1.38-1.12 2.5-2.5 2.5H4c-1.39 0-2.5-1.12-2.5-2.5V7ZM4 5.5c-.83 0-1.5.67-1.5 1.5v12c0 .82.67 1.5 1.5 1.5h16c.82 0 1.5-.68 1.5-1.5V7c0-.83-.68-1.5-1.5-1.5H4Z"/><path d="M5.5 3v3.5h-1V3h1Z"/><path d="M12.5 3v3.5h-1V3h1Z"/><path d="M19.5 3v3.5h-1V3h1Z"/><path d="M12 9c-.83 0-1.5.67-1.5 1.5 0 .82.67 1.5 1.5 1.5 .82 0 1.5-.68 1.5-1.5 0-.83-.68-1.5-1.5-1.5Zm-2.5 1.5C9.5 9.11 10.61 8 12 8c1.38 0 2.5 1.11 2.5 2.5 0 1.38-1.12 2.5-2.5 2.5 -1.39 0-2.5-1.12-2.5-2.5Z"/><path d="M7.5 16.5c0-1.11.89-2 2-2h5c1.1 0 2 .89 2 2 0 1.1-.9 2-2 2h-5c-1.11 0-2-.9-2-2Zm2-1c-.56 0-1 .44-1 1 0 .55.44 1 1 1h5c.55 0 1-.45 1-1 0-.56-.45-1-1-1h-5Z"/></g></svg>