<svg viewBox="0 0 24 24" xmlns="http://www.w3.org/2000/svg"><g fill-rule="evenodd"><path d="M12.5 14c0 .82.67 1.5 1.5 1.5h3c.82 0 1.5-.68 1.5-1.5V9c0-.83-.68-1.5-1.5-1.5h-3c-.83 0-1.5.67-1.5 1.5v5Zm1.5 2.5c-1.39 0-2.5-1.12-2.5-2.5V9c0-1.39 1.11-2.5 2.5-2.5h3c1.38 0 2.5 1.11 2.5 2.5v5c0 1.38-1.12 2.5-2.5 2.5h-3Z"/><path d="M11.5 14c0 .82-.68 1.5-1.5 1.5H7c-.83 0-1.5-.68-1.5-1.5V9c0-.83.67-1.5 1.5-1.5h3c.82 0 1.5.67 1.5 1.5v5ZM10 16.5c1.38 0 2.5-1.12 2.5-2.5V9c0-1.39-1.12-2.5-2.5-2.5H7C5.61 6.5 4.5 7.61 4.5 9v5c0 1.38 1.11 2.5 2.5 2.5h3Z"/><path d="M19 15.5c-.28 0-.5-.23-.5-.5V8c0-.28.22-.5.5-.5h3c.27 0 .5.22.5.5v7c0 .27-.23.5-.5.5h-3Zm.5-1h2v-6h-2v6Z"/><path d="M5 15.5c.27 0 .5-.23.5-.5V8c0-.28-.23-.5-.5-.5H2c-.28 0-.5.22-.5.5v7c0 .27.22.5.5.5h3Zm-.5-1h-2v-6h2v6Z"/><path d="M15.5 10.25V7h-1v3.25c0 1.38 1.11 2.5 2.5 2.5h2v-1h-2c-.83 0-1.5-.68-1.5-1.5Z"/><path d="M8.5 10.25V7h1v3.25c0 1.38-1.12 2.5-2.5 2.5H5v-1h2c.82 0 1.5-.68 1.5-1.5Z"/></g></svg>