<svg viewBox="0 0 24 24" xmlns="http://www.w3.org/2000/svg"><g fill-rule="evenodd"><path d="M12 2.5c-5.25 0-9.5 4.25-9.5 9.5 0 5.24 4.25 9.5 9.5 9.5 5.24 0 9.5-4.26 9.5-9.5 0-5.25-4.26-9.5-9.5-9.5ZM1.5 12C1.5 6.2 6.2 1.5 12 1.5c5.79 0 10.5 4.7 10.5 10.5 0 5.79-4.71 10.5-10.5 10.5 -5.8 0-10.5-4.71-10.5-10.5Z"/><path d="M8.91 5.15c-.87 1.72-1.42 4.14-1.42 6.84s.54 5.12 1.41 6.84c.87 1.75 1.99 2.65 3.08 2.65 1.08 0 2.21-.9 3.08-2.66 .86-1.73 1.41-4.15 1.41-6.85 0-2.71-.55-5.13-1.42-6.85 -.88-1.76-2-2.66-3.09-2.66 -1.09 0-2.22.89-3.09 2.65Zm-.9-.45c.93-1.87 2.31-3.21 3.98-3.21s3.05 1.34 3.98 3.2c.94 1.89 1.51 4.47 1.51 7.29 0 2.82-.58 5.4-1.52 7.29 -.94 1.86-2.32 3.2-3.99 3.2 -1.68 0-3.06-1.35-3.99-3.21 -.95-1.9-1.52-4.48-1.52-7.3 0-2.83.57-5.41 1.51-7.3Z"/><path d="M3.5 6.5h17v1h-17v-1Z"/><path d="M3.5 16.5h17v1h-17v-1Z"/></g></svg>