<svg viewBox="0 0 24 24" xmlns="http://www.w3.org/2000/svg"><g fill-rule="evenodd"><path d="M9.5 5.5c-.56 0-1 .44-1 1 0 .55.44 1 1 1 .55 0 1-.45 1-1 0-.56-.45-1-1-1Zm-2 1c0-1.11.89-2 2-2 1.1 0 2 .89 2 2 0 1.1-.9 2-2 2 -1.11 0-2-.9-2-2Z"/><path d="M5.5 11.5c0-1.11.89-2 2-2h4c1.1 0 2 .89 2 2 0 1.1-.9 2-2 2h-4c-1.11 0-2-.9-2-2Zm2-1c-.56 0-1 .44-1 1 0 .55.44 1 1 1h4c.55 0 1-.45 1-1 0-.56-.45-1-1-1h-4Z"/><path d="M9.5 2.5c-3.87 0-7 3.13-7 7 0 3.86 3.13 7 7 7 3.86 0 7-3.14 7-7 0-3.87-3.14-7-7-7Zm-8 7c0-4.42 3.58-8 8-8 4.41 0 8 3.58 8 8 0 4.41-3.59 8-8 8 -4.42 0-8-3.59-8-8Z"/><path d="M15.35 14.64l7 7 -.71.7 -7-7 .7-.71Z"/></g></svg>