<svg viewBox="0 0 24 24" xmlns="http://www.w3.org/2000/svg"><g fill-rule="evenodd"><path d="M1.5 12c0-.28.22-.5.5-.5h3c.27 0 .5.22.5.5v8c0 .27-.23.5-.5.5H2c-.28 0-.5-.23-.5-.5v-8Zm1 .5v7h2v-7h-2Z"/><path d="M9.3 15.35l3.46 2.6c.25.19.57.3.9.3h6.7c1.17 0 2.125.95 2.125 2.125 0 1.17-.96 2.125-2.125 2.125h-8.22c-.24 0-.48-.04-.7-.1l-6.61-1.93 .27-.97 6.6 1.92c.13.03.27.05.41.05h8.21c.62 0 1.125-.51 1.125-1.125 0-.63-.51-1.125-1.125-1.125h-6.71c-.55 0-1.07-.18-1.5-.5l-3.47-2.6 .6-.8Z"/><path d="M9.27 12.5H4.99v-1h4.27c.58 0 1.15.2 1.6.57l3.22 2.68c.56.47.89 1.17.89 1.92v.93c0 .89-.73 1.625-1.625 1.625 -.36 0-.7-.12-.98-.33l-3.7-2.78 .6-.8 3.7 2.77c.1.08.23.125.375.125 .34 0 .625-.28.625-.625v-.94c0-.45-.2-.87-.54-1.16l-3.23-2.69c-.27-.23-.61-.35-.97-.35Z"/><path d="M19.22 4.44l-4 2 -.45-.9 4-2 .44.89Z"/><path d="M19.22 9.55l-4-2 -.45.89 4 2 .44-.9Z"/><path d="M20.5 2.5c-.56 0-1 .44-1 1 0 .55.44 1 1 1 .55 0 1-.45 1-1 0-.56-.45-1-1-1Zm-2 1c0-1.11.89-2 2-2 1.1 0 2 .89 2 2 0 1.1-.9 2-2 2 -1.11 0-2-.9-2-2Z"/><path d="M13.5 6c-.56 0-1 .44-1 1 0 .55.44 1 1 1 .55 0 1-.45 1-1 0-.56-.45-1-1-1Zm-2 1c0-1.11.89-2 2-2 1.1 0 2 .89 2 2 0 1.1-.9 2-2 2 -1.11 0-2-.9-2-2Z"/><path d="M20.5 9.5c-.56 0-1 .44-1 1 0 .55.44 1 1 1 .55 0 1-.45 1-1 0-.56-.45-1-1-1Zm-2 1c0-1.11.89-2 2-2 1.1 0 2 .89 2 2 0 1.1-.9 2-2 2 -1.11 0-2-.9-2-2Z"/></g></svg>