<svg viewBox="0 0 24 24" xmlns="http://www.w3.org/2000/svg"><g fill-rule="evenodd"><path d="M1.25 4c0-1.52 1.23-2.75 2.75-2.75h4.72c.68 0 1.35.25 1.85.72l4.77 4.37c.56.52.89 1.25.89 2.02v1.12c0 .41-.34.75-.75.75 -.42 0-.75-.34-.75-.75V8.35c0-.36-.15-.69-.41-.93L9.54 3.04c-.24-.22-.54-.33-.85-.33H3.96c-.7 0-1.25.55-1.25 1.25v11c0 .41-.34.75-.75.75 -.42 0-.75-.34-.75-.75v-11ZM2 18.25c.41 0 .75.33.75.75v1c0 .69.55 1.25 1.25 1.25h7c.41 0 .75.33.75.75 0 .41-.34.75-.75.75H4c-1.52 0-2.75-1.24-2.75-2.75v-1c0-.42.33-.75.75-.75Z"/><path d="M9.5 1.75c.41 0 .75.33.75.75v3c0 .69.55 1.25 1.25 1.25H15c.41 0 .75.33.75.75 0 .41-.34.75-.75.75h-3.5c-1.52 0-2.75-1.24-2.75-2.75v-3c0-.42.33-.75.75-.75Z"/><path d="M16.63 10.34c.22-.13.49-.13.72 0l5 2.75c.23.13.38.38.38.65v5.5c0 .27-.15.52-.39.65l-5 2.75c-.23.12-.5.12-.73 0l-5-2.75c-.24-.14-.39-.39-.39-.66v-5.5c0-.28.14-.53.38-.66l5-2.75Zm-3.89 3.85v4.61l4.25 2.33 4.25-2.34v-4.62l-4.25-2.34 -4.25 2.33Z"/><path d="M11.32 13.66c.18-.38.63-.53 1-.34l4.66 2.33 4.66-2.34c.37-.19.82-.04 1 .33 .18.37.03.82-.34 1l-4.59 2.29v5.03c0 .41-.34.75-.75.75 -.42 0-.75-.34-.75-.75v-5.04l-4.59-2.3c-.38-.19-.53-.64-.34-1.01Z"/></g></svg>