<svg viewBox="0 0 24 24" xmlns="http://www.w3.org/2000/svg"><g fill-rule="evenodd"><path d="M6 2.75c-.7 0-1.25.55-1.25 1.25v2c0 .41-.34.75-.75.75 -.42 0-.75-.34-.75-.75V4c0-1.52 1.23-2.75 2.75-2.75h6.26c.65 0 1.29.23 1.78.66l5.73 4.91c.6.52.96 1.28.96 2.08v11.08c0 1.51-1.24 2.75-2.75 2.75h-12c-1.52 0-2.75-1.24-2.75-2.75V9.89c0-.42.33-.75.75-.75 .41 0 .75.33.75.75v10.08c0 .69.55 1.25 1.25 1.25h12c.69 0 1.25-.56 1.25-1.25V8.88c0-.37-.16-.72-.44-.95l-5.74-4.92c-.23-.2-.52-.31-.82-.31H5.96Z"/><path d="M13 1.75c.41 0 .75.33.75.75V6c0 .69.55 1.25 1.25 1.25h4.5c.41 0 .75.33.75.75 0 .41-.34.75-.75.75H15c-1.52 0-2.75-1.24-2.75-2.75V2.5c0-.42.33-.75.75-.75Z"/><path d="M16.53 11.46c.29.29.29.76 0 1.06l-5.5 5.5c-.3.29-.77.29-1.07 0l-2.5-2.5c-.3-.3-.3-.77 0-1.07 .29-.3.76-.3 1.06 0l1.96 1.96 4.96-4.97c.29-.3.76-.3 1.06 0Z"/></g></svg>