<svg viewBox="0 0 24 24" xmlns="http://www.w3.org/2000/svg"><g fill-rule="evenodd"><path d="M8.75 2.75c-.7 0-1.25.55-1.25 1.25v1c0 .41-.34.75-.75.75C6.33 5.75 6 5.41 6 5V4c0-1.52 1.23-2.75 2.75-2.75h4.81c.65 0 1.29.23 1.78.66l4.68 4.01c.6.52.96 1.28.96 2.08v8.98c0 1.51-1.24 2.75-2.75 2.75h-9.5c-1.52 0-2.75-1.24-2.75-2.75v-8c0-.42.33-.75.75-.75 .41 0 .75.33.75.75v8c0 .69.55 1.25 1.25 1.25h9.49c.69 0 1.25-.56 1.25-1.25V7.99c0-.37-.16-.72-.44-.95l-4.69-4.02c-.23-.2-.52-.31-.82-.31H8.7Z"/><path d="M3.75 4.25c.41 0 .75.33.75.75v15c0 .69.55 1.25 1.25 1.25h11.49c.41 0 .75.33.75.75 0 .41-.34.75-.75.75H5.74c-1.52 0-2.75-1.24-2.75-2.75V5c0-.42.33-.75.75-.75Z"/><path d="M14.29 1.67c.41 0 .75.33.75.75v2.67c0 .69.55 1.24 1.25 1.24h3.52c.41 0 .75.33.75.75 0 .41-.34.75-.75.75h-3.53c-1.52 0-2.75-1.24-2.75-2.75V2.4c0-.42.33-.75.75-.75Z"/></g></svg>