<svg viewBox="0 0 24 24" xmlns="http://www.w3.org/2000/svg"><g fill-rule="evenodd"><path d="M6 2.75c-.7 0-1.25.55-1.25 1.25v2c0 .41-.34.75-.75.75 -.42 0-.75-.34-.75-.75V4c0-1.52 1.23-2.75 2.75-2.75h6.26c.65 0 1.29.23 1.78.66l5.73 4.91c.6.52.96 1.28.96 2.08v11.08c0 1.51-1.24 2.75-2.75 2.75h-12c-1.52 0-2.75-1.24-2.75-2.75V9.89c0-.42.33-.75.75-.75 .41 0 .75.33.75.75v10.08c0 .69.55 1.25 1.25 1.25h12c.69 0 1.25-.56 1.25-1.25V8.88c0-.37-.16-.72-.44-.95l-5.74-4.92c-.23-.2-.52-.31-.82-.31H5.96Z"/><path d="M13 1.75c.41 0 .75.33.75.75V6c0 .69.55 1.25 1.25 1.25h4.5c.41 0 .75.33.75.75 0 .41-.34.75-.75.75H15c-1.52 0-2.75-1.24-2.75-2.75V2.5c0-.42.33-.75.75-.75Z"/><path d="M9.58 12.53c.25.32.2.79-.12 1.05l-1.77 1.41 1.76 1.41c.32.25.37.73.11 1.05 -.26.32-.74.37-1.06.11l-2.5-2c-.18-.15-.29-.36-.29-.59 0-.23.1-.45.28-.59l2.5-2c.32-.26.79-.21 1.05.11Z"/><path d="M14.41 17.46c-.26-.33-.21-.8.11-1.06l1.76-1.42 -1.77-1.42c-.33-.26-.38-.74-.12-1.06 .25-.33.73-.38 1.05-.12l2.5 2c.17.14.28.35.28.58 0 .22-.11.44-.29.58l-2.5 2c-.33.25-.8.2-1.06-.12Z"/><path d="M13.18 10.27c.4.1.64.5.54.9l-2 8c-.11.4-.51.64-.91.54 -.41-.11-.65-.51-.55-.91l2-8c.1-.41.5-.65.9-.55Z"/></g></svg>