<svg viewBox="0 0 24 24" xmlns="http://www.w3.org/2000/svg"><g fill-rule="evenodd"><path d="M6 2.75c-.7 0-1.25.55-1.25 1.25v11c0 .41-.34.75-.75.75 -.42 0-.75-.34-.75-.75V4c0-1.52 1.23-2.75 2.75-2.75h6.26c.65 0 1.29.23 1.78.66l5.73 4.91c.6.52.96 1.28.96 2.08v11.08c0 1.51-1.24 2.75-2.75 2.75h-12c-1.52 0-2.75-1.24-2.75-2.75v-1c0-.42.33-.75.75-.75 .41 0 .75.33.75.75v1c0 .69.55 1.25 1.25 1.25h12c.69 0 1.25-.56 1.25-1.25V8.89c0-.37-.16-.72-.44-.95l-5.74-4.92c-.23-.2-.52-.31-.82-.31H5.96Z"/><path d="M13 1.75c.41 0 .75.33.75.75V6c0 .69.55 1.25 1.25 1.25h4.5c.41 0 .75.33.75.75 0 .41-.34.75-.75.75H15c-1.52 0-2.75-1.24-2.75-2.75V2.5c0-.42.33-.75.75-.75Z"/><path d="M7.25 13.5c0-2.35 1.9-4.25 4.25-4.25h.5c2.34 0 4.25 1.9 4.25 4.25V17c0 1.79-1.46 3.25-3.25 3.25 -1.8 0-3.25-1.46-3.25-3.25v-2.66c0-1.16.93-2.1 2.09-2.1 1.15 0 2.09.93 2.09 2.09v2.15c0 .41-.34.75-.75.75 -.42 0-.75-.34-.75-.75v-2.16c0-.33-.27-.6-.6-.6 -.33 0-.6.26-.6.59v2.65c0 .96.78 1.75 1.75 1.75 .96 0 1.75-.79 1.75-1.75v-3.5c0-1.52-1.24-2.75-2.75-2.75h-.5c-1.52 0-2.75 1.23-2.75 2.75v3.5c0 .41-.34.75-.75.75 -.42 0-.75-.34-.75-.75v-3.5Z"/></g></svg>