<svg viewBox="0 0 24 24" xmlns="http://www.w3.org/2000/svg"><g fill-rule="evenodd"><path d="M6.75 13c0-.42.33-.75.75-.75h9c.41 0 .75.33.75.75v6c0 .41-.34.75-.75.75h-9c-.42 0-.75-.34-.75-.75v-6Zm1.5.75v4.5h7.5v-4.5h-7.5Z"/><path d="M6.75 13c0-.42.33-.75.75-.75h9c.41 0 .75.33.75.75v2c0 .35-.25.65-.59.73l-4.5 1c-.11.02-.22.02-.33 0l-4.5-1c-.35-.08-.59-.39-.59-.74v-2Zm1.5.75v.64l3.75.83 3.75-.84v-.65h-7.5Z"/><path d="M11.5 10.75c-.7 0-1.25.55-1.25 1.25v.25h3.5V12c0-.7-.56-1.25-1.25-1.25h-1ZM8.75 12c0-1.52 1.23-2.75 2.75-2.75h1c1.51 0 2.75 1.23 2.75 2.75v1c0 .41-.34.75-.75.75h-5c-.42 0-.75-.34-.75-.75v-1Z"/><path d="M6 2.75c-.7 0-1.25.55-1.25 1.25v11c0 .41-.34.75-.75.75 -.42 0-.75-.34-.75-.75V4c0-1.52 1.23-2.75 2.75-2.75h6.26c.65 0 1.29.23 1.78.66l5.73 4.91c.6.52.96 1.28.96 2.08v11.08c0 1.51-1.24 2.75-2.75 2.75h-12c-1.52 0-2.75-1.24-2.75-2.75v-1c0-.42.33-.75.75-.75 .41 0 .75.33.75.75v1c0 .69.55 1.25 1.25 1.25h12c.69 0 1.25-.56 1.25-1.25V8.89c0-.37-.16-.72-.44-.95l-5.74-4.92c-.23-.2-.52-.31-.82-.31H5.96Z"/><path d="M13 1.75c.41 0 .75.33.75.75V6c0 .69.55 1.25 1.25 1.25h4.5c.41 0 .75.33.75.75 0 .41-.34.75-.75.75H15c-1.52 0-2.75-1.24-2.75-2.75V2.5c0-.42.33-.75.75-.75Z"/></g></svg>