<svg viewBox="0 0 24 24" xmlns="http://www.w3.org/2000/svg"><g fill-rule="evenodd"><path d="M1.25 5c0-2.08 1.67-3.75 3.75-3.75h7c.19 0 .38.07.53.21l6 6c.14.14.21.33.21.53v2c0 .41-.34.75-.75.75 -.42 0-.75-.34-.75-.75V8.3l-5.57-5.57H4.98c-1.25 0-2.25 1-2.25 2.25 0 .41-.34.75-.75.75 -.42 0-.75-.34-.75-.75ZM2 8.25c.41 0 .75.33.75.75v10c0 1.24 1 2.25 2.25 2.25h8c.41 0 .75.33.75.75 0 .41-.34.75-.75.75H5c-2.08 0-3.75-1.68-3.75-3.75V9c0-.42.33-.75.75-.75Z"/><path d="M11.713 1.3c.28-.12.6-.06.81.16l6 6c.21.21.27.53.16.81 -.12.28-.39.46-.7.46h-3c-2.08 0-3.75-1.68-3.75-3.75v-3c0-.31.18-.58.46-.7Zm1.03 2.5v1.18c0 1.24 1 2.25 2.25 2.25h1.18l-3.44-3.44Z"/><path d="M15.5 12.75c-1.52 0-2.75 1.23-2.75 2.75 0 1.51 1.23 2.75 2.75 2.75 1.51 0 2.75-1.24 2.75-2.75 0-1.52-1.24-2.75-2.75-2.75Zm-4.25 2.75c0-2.35 1.9-4.25 4.25-4.25 2.34 0 4.25 1.9 4.25 4.25 0 2.34-1.91 4.25-4.25 4.25 -2.35 0-4.25-1.91-4.25-4.25Z"/><path d="M17.46 17.46c.29-.3.76-.3 1.06 0l4 4c.29.29.29.76 0 1.06 -.3.29-.77.29-1.07 0l-4-4c-.3-.3-.3-.77 0-1.07Z"/><path d="M4.25 7c0-.42.33-.75.75-.75h5c.41 0 .75.33.75.75 0 .41-.34.75-.75.75H5c-.42 0-.75-.34-.75-.75Z"/><path d="M4.25 12c0-.42.33-.75.75-.75h5c.41 0 .75.33.75.75 0 .41-.34.75-.75.75H5c-.42 0-.75-.34-.75-.75Z"/><path d="M4.25 17c0-.42.33-.75.75-.75h5c.41 0 .75.33.75.75 0 .41-.34.75-.75.75H5c-.42 0-.75-.34-.75-.75Z"/></g></svg>