<svg viewBox="0 0 24 24" xmlns="http://www.w3.org/2000/svg"><g fill-rule="evenodd"><path d="M4 2.75c-.7 0-1.25.55-1.25 1.25v16c0 .69.55 1.25 1.25 1.25h6.5c.41 0 .75.33.75.75 0 .41-.34.75-.75.75H4c-1.52 0-2.75-1.24-2.75-2.75V4c0-1.52 1.23-2.75 2.75-2.75h4.72c.68 0 1.35.25 1.85.72l4.77 4.37c.56.52.89 1.25.89 2.02v.12c0 .41-.34.75-.75.75 -.42 0-.75-.34-.75-.75v-.13c0-.36-.15-.69-.41-.93L9.54 3.04c-.24-.22-.54-.33-.85-.33H3.96Z"/><path d="M9.5 1.25c.41 0 .75.33.75.75v3.5c0 .69.55 1.25 1.25 1.25H15c.41 0 .75.33.75.75 0 .41-.34.75-.75.75h-3.5c-1.52 0-2.75-1.24-2.75-2.75V2c0-.42.33-.75.75-.75Z"/><path d="M16.5 11.75c-2.63 0-4.75 2.12-4.75 4.75 0 2.62 2.12 4.75 4.75 4.75 2.62 0 4.75-2.13 4.75-4.75 0-2.63-2.13-4.75-4.75-4.75Zm-6.25 4.75c0-3.46 2.79-6.25 6.25-6.25 3.45 0 6.25 2.79 6.25 6.25 0 3.45-2.8 6.25-6.25 6.25 -3.46 0-6.25-2.8-6.25-6.25Z"/><path d="M16.5 16.25c-.97 0-1.75.78-1.75 1.75v.5c0 .41-.34.75-.75.75 -.42 0-.75-.34-.75-.75V18c0-1.8 1.45-3.25 3.25-3.25H19c.41 0 .75.33.75.75 0 .41-.34.75-.75.75h-2.5Z"/><path d="M15.92 12.51c.26-.32.73-.37 1.05-.1l3 2.5c.17.14.26.35.26.57 0 .22-.1.43-.27.57l-3 2.5c-.32.26-.8.22-1.06-.1 -.27-.32-.23-.8.09-1.06l2.3-1.93 -2.31-1.93c-.32-.27-.37-.74-.1-1.06Z"/></g></svg>