<svg viewBox="0 0 24 24" xmlns="http://www.w3.org/2000/svg"><g fill-rule="evenodd"><path d="M6 2.75c-.7 0-1.25.55-1.25 1.25v11c0 .41-.34.75-.75.75 -.42 0-.75-.34-.75-.75V4c0-1.52 1.23-2.75 2.75-2.75h6.26c.65 0 1.29.23 1.78.66l5.73 4.91c.6.52.96 1.28.96 2.08v11.08c0 1.51-1.24 2.75-2.75 2.75h-12c-1.52 0-2.75-1.24-2.75-2.75v-1c0-.42.33-.75.75-.75 .41 0 .75.33.75.75v1c0 .69.55 1.25 1.25 1.25h12c.69 0 1.25-.56 1.25-1.25V8.89c0-.37-.16-.72-.44-.95l-5.74-4.92c-.23-.2-.52-.31-.82-.31H5.96Z"/><path d="M13 1.75c.41 0 .75.33.75.75V6c0 .69.55 1.25 1.25 1.25h4.5c.41 0 .75.33.75.75 0 .41-.34.75-.75.75H15c-1.52 0-2.75-1.24-2.75-2.75V2.5c0-.42.33-.75.75-.75Z"/><path d="M12.53 9.31c.27-.12.59-.07.81.14l4.16 3.93c.14.14.23.33.23.54 0 .2-.09.4-.24.54l-4.17 3.93c-.22.2-.54.26-.82.14 -.28-.12-.46-.39-.46-.69v-2.051c-1.58.1-3 1-3.78 2.38l-.66 1.15c-.17.29-.52.44-.85.35 -.33-.09-.56-.39-.56-.73v-1.34c0-3.3 2.58-5.99 5.83-6.16v-1.51c0-.3.17-.58.45-.69Zm1.04 2.42v.09c0 .64-.53 1.16-1.17 1.16 -2.05 0-3.79 1.31-4.42 3.14 1.15-1.16 2.73-1.84 4.41-1.84 .64 0 1.17.52 1.17 1.17v.65l2.32-2.2 -2.33-2.2Z"/></g></svg>