<svg viewBox="0 0 24 24" xmlns="http://www.w3.org/2000/svg"><g fill-rule="evenodd"><path d="M1.25 3.99c0-1.52 1.23-2.75 2.75-2.75h4.72c.68 0 1.35.25 1.85.72l4.77 4.37c.56.52.89 1.25.89 2.02v1.12c0 .41-.34.75-.75.75 -.42 0-.75-.34-.75-.76V8.33c0-.36-.15-.69-.41-.93L9.54 3.02c-.24-.22-.54-.33-.85-.33H3.96c-.7 0-1.25.55-1.25 1.25v3c0 .41-.34.75-.75.75 -.42 0-.75-.34-.75-.75v-3ZM2 10.24c.41 0 .75.33.75.75v9c0 .69.55 1.25 1.25 1.25h3.5c.41 0 .75.33.75.75 0 .41-.34.75-.75.75H4c-1.52 0-2.75-1.24-2.75-2.75v-9c0-.42.33-.75.75-.75Z"/><path d="M9.5 1.74c.41 0 .75.33.75.75v3c0 .69.55 1.25 1.25 1.25H15c.41 0 .75.33.75.75 0 .41-.34.75-.75.75h-3.5C9.98 8.24 8.75 7 8.75 5.49v-3c0-.42.33-.75.75-.75Z"/><path d="M9.75 12.5c0-.42.33-.75.75-.75h12c.41 0 .75.33.75.75V22c0 .41-.34.75-.75.75h-12c-.42 0-.75-.34-.75-.75v-9.5Zm1.5.75v8h10.5v-8h-10.5Z"/><path d="M14.5 11.75c.41 0 .75.33.75.75V22c0 .41-.34.75-.75.75 -.42 0-.75-.34-.75-.75v-9.5c0-.42.33-.75.75-.75Z"/><path d="M18.5 11.75c.41 0 .75.33.75.75V22c0 .41-.34.75-.75.75 -.42 0-.75-.34-.75-.75v-9.5c0-.42.33-.75.75-.75Z"/><path d="M9.75 16c0-.42.33-.75.75-.75h12c.41 0 .75.33.75.75 0 .41-.34.75-.75.75h-12c-.42 0-.75-.34-.75-.75Z"/></g></svg>