<svg viewBox="0 0 24 24" xmlns="http://www.w3.org/2000/svg"><g fill-rule="evenodd"><path d="M1.25 4c0-1.52 1.23-2.75 2.75-2.75h4.72c.68 0 1.35.25 1.85.72l4.77 4.37c.56.52.89 1.25.89 2.02v1.12c0 .41-.34.75-.75.75 -.42 0-.75-.34-.75-.75V8.35c0-.36-.15-.69-.41-.93L9.54 3.04c-.24-.22-.54-.33-.85-.33H3.96c-.7 0-1.25.55-1.25 1.25v11c0 .41-.34.75-.75.75 -.42 0-.75-.34-.75-.75v-11ZM2 18.25c.41 0 .75.33.75.75v1c0 .69.55 1.25 1.25 1.25h7c.41 0 .75.33.75.75 0 .41-.34.75-.75.75H4c-1.52 0-2.75-1.24-2.75-2.75v-1c0-.42.33-.75.75-.75Z"/><path d="M9.5 1.75c.41 0 .75.33.75.75v3c0 .69.55 1.25 1.25 1.25H15c.41 0 .75.33.75.75 0 .41-.34.75-.75.75h-3.5c-1.52 0-2.75-1.24-2.75-2.75v-3c0-.42.33-.75.75-.75Z"/><path d="M16.5 10.25c.25 0 .49.12.63.34l1.71 2.67 3.07.8c.24.06.44.25.52.49 .07.24.02.5-.14.7l-2.02 2.45 .18 3.17c.01.25-.11.49-.31.64 -.21.15-.48.18-.72.09l-2.97-1.16 -2.97 1.15c-.24.09-.51.05-.72-.1 -.21-.16-.33-.4-.31-.65l.18-3.18 -2.02-2.46c-.17-.2-.22-.47-.14-.71 .07-.25.27-.43.52-.5l3.07-.81 1.71-2.68c.13-.22.37-.35.63-.35Zm0 2.13l-1.25 1.93c-.11.15-.26.27-.45.32l-2.23.58 1.45 1.78c.11.14.17.33.16.51l-.14 2.29 2.14-.84c.17-.07.36-.07.54 0l2.14.83 -.14-2.3c-.02-.19.04-.38.16-.52l1.45-1.79 -2.23-.59c-.19-.05-.34-.17-.45-.32l-1.25-1.94Z"/></g></svg>