<svg viewBox="0 0 24 24" xmlns="http://www.w3.org/2000/svg"><g fill-rule="evenodd"><path d="M1.25 4c0-1.52 1.23-2.75 2.75-2.75h4.72c.68 0 1.35.25 1.85.72l4.77 4.37c.56.52.89 1.25.89 2.02v.62c0 .41-.34.75-.75.75 -.42 0-.75-.34-.75-.75v-.63c0-.36-.15-.69-.41-.93L9.54 3.04c-.24-.22-.54-.33-.85-.33H3.96c-.7 0-1.25.55-1.25 1.25v11c0 .41-.34.75-.75.75 -.42 0-.75-.34-.75-.75v-11ZM2 18.25c.41 0 .75.33.75.75v1c0 .69.55 1.25 1.25 1.25h7c.41 0 .75.33.75.75 0 .41-.34.75-.75.75H4c-1.52 0-2.75-1.24-2.75-2.75v-1c0-.42.33-.75.75-.75Z"/><path d="M9.5 1.75c.41 0 .75.33.75.75v3c0 .69.55 1.25 1.25 1.25H15c.41 0 .75.33.75.75 0 .41-.34.75-.75.75h-3.5c-1.52 0-2.75-1.24-2.75-2.75v-3c0-.42.33-.75.75-.75Z"/><path d="M16.5 11.75c-2.63 0-4.75 2.12-4.75 4.75 0 2.62 2.12 4.75 4.75 4.75 2.62 0 4.75-2.13 4.75-4.75 0-2.63-2.13-4.75-4.75-4.75Zm-6.25 4.75c0-3.46 2.79-6.25 6.25-6.25 3.45 0 6.25 2.79 6.25 6.25 0 3.45-2.8 6.25-6.25 6.25 -3.46 0-6.25-2.8-6.25-6.25Z"/><path d="M14.63 13.344c.23-.14.52-.13.76.02l4 2.5c.21.13.35.37.35.63 0 .25-.14.49-.36.63l-4 2.5c-.24.14-.53.15-.77.02 -.24-.14-.39-.39-.39-.66v-5c0-.28.14-.53.38-.66Zm1.11 2v2.29l1.83-1.15 -1.84-1.15Z"/></g></svg>