<svg viewBox="0 0 24 24" xmlns="http://www.w3.org/2000/svg"><g fill-rule="evenodd"><path d="M6 2.75c-.7 0-1.25.55-1.25 1.25v2c0 .41-.34.75-.75.75 -.42 0-.75-.34-.75-.75V4c0-1.52 1.23-2.75 2.75-2.75h6.26c.65 0 1.29.23 1.78.66l5.73 4.91c.6.52.96 1.28.96 2.08v11.08c0 1.51-1.24 2.75-2.75 2.75h-12c-1.52 0-2.75-1.24-2.75-2.75V9.89c0-.42.33-.75.75-.75 .41 0 .75.33.75.75v10.08c0 .69.55 1.25 1.25 1.25h12c.69 0 1.25-.56 1.25-1.25V8.88c0-.37-.16-.72-.44-.95l-5.74-4.92c-.23-.2-.52-.31-.82-.31H5.96Z"/><path d="M13 1.75c.41 0 .75.33.75.75V6c0 .69.55 1.25 1.25 1.25h4.5c.41 0 .75.33.75.75 0 .41-.34.75-.75.75H15c-1.52 0-2.75-1.24-2.75-2.75V2.5c0-.42.33-.75.75-.75Z"/><path d="M9.97 11.25c.31-.01.6.17.71.47l1.37 3.44 1.25-2.51c.12-.26.38-.42.67-.42 .28 0 .54.16.67.41l.79 1.58h1.03c.41 0 .75.33.75.75 0 .41-.34.75-.75.75h-1.5c-.29 0-.55-.17-.68-.42l-.33-.66 -1.33 2.65c-.14.26-.41.42-.702.41 -.3-.02-.56-.2-.67-.48L10 14.12l-.36 1.05c-.11.3-.39.51-.72.51h-1.5c-.42 0-.75-.34-.75-.75 0-.42.33-.75.75-.75h.95l.82-2.49c.09-.3.37-.51.68-.52Z"/></g></svg>