<svg viewBox="0 0 24 24" xmlns="http://www.w3.org/2000/svg"><g fill-rule="evenodd"><path d="M6 2.75c-.7 0-1.25.55-1.25 1.25v11c0 .41-.34.75-.75.75 -.42 0-.75-.34-.75-.75V4c0-1.52 1.23-2.75 2.75-2.75h6.26c.65 0 1.29.23 1.78.66l5.73 4.91c.6.52.96 1.28.96 2.08v11.08c0 1.51-1.24 2.75-2.75 2.75h-12c-1.52 0-2.75-1.24-2.75-2.75v-1c0-.42.33-.75.75-.75 .41 0 .75.33.75.75v1c0 .69.55 1.25 1.25 1.25h12c.69 0 1.25-.56 1.25-1.25V8.89c0-.37-.16-.72-.44-.95l-5.74-4.92c-.23-.2-.52-.31-.82-.31H5.96Z"/><path d="M13 1.75c.41 0 .75.33.75.75V6c0 .69.55 1.25 1.25 1.25h4.5c.41 0 .75.33.75.75 0 .41-.34.75-.75.75H15c-1.52 0-2.75-1.24-2.75-2.75V2.5c0-.42.33-.75.75-.75Z"/><path d="M12 10.25c-2.35 0-4.25 1.9-4.25 4.25 0 2.34 1.9 4.25 4.25 4.25 2.34 0 4.25-1.91 4.25-4.25 0-2.35-1.91-4.25-4.25-4.25ZM6.25 14.5c0-3.18 2.57-5.75 5.75-5.75 3.17 0 5.75 2.57 5.75 5.75 0 3.17-2.58 5.75-5.75 5.75 -3.18 0-5.75-2.58-5.75-5.75Z"/><path d="M11.28 11.24c-.32.79-.54 1.94-.54 3.25 0 1.3.21 2.46.53 3.25 .16.4.33.67.48.83 .14.15.22.15.23.15 0 0 .08 0 .23-.16 .15-.17.32-.44.48-.84 .31-.8.53-1.95.53-3.26 0-1.31-.22-2.47-.54-3.26 -.17-.41-.34-.68-.49-.84 -.15-.16-.23-.16-.24-.16 -.01 0-.09-.01-.24.15 -.16.16-.33.43-.49.83Zm-.61-1.87c.32-.35.77-.63 1.32-.63 .54 0 .99.28 1.32.62 .32.34.58.8.78 1.3 .4 1.01.63 2.36.63 3.81 0 1.45-.24 2.8-.64 3.81 -.21.5-.47.96-.79 1.3 -.33.34-.78.62-1.33.62s-1-.29-1.33-.63c-.33-.35-.59-.81-.79-1.31 -.41-1.02-.64-2.37-.64-3.82 0-1.46.23-2.81.63-3.82 .2-.51.46-.97.78-1.31Z"/><path d="M6.75 14.5c0-.42.33-.75.75-.75h9c.41 0 .75.33.75.75 0 .41-.34.75-.75.75h-9c-.42 0-.75-.34-.75-.75Z"/></g></svg>