<svg viewBox="0 0 24 24" xmlns="http://www.w3.org/2000/svg"><g fill-rule="evenodd"><path d="M16.69 9.86c-.42-.28-.97-.28-1.39 0l-.4.26c-.35.22-.82.13-1.05-.21 -.23-.35-.14-.82.2-1.05l.39-.27c.92-.62 2.12-.62 3.05 0l.39.26c.34.22.43.69.2 1.04 -.23.34-.7.43-1.04.2l-.4-.27Z"/><path d="M8.69 9.86c-.42-.28-.97-.28-1.39 0l-.4.26c-.35.22-.82.13-1.05-.21 -.23-.35-.14-.82.2-1.05l.39-.27c.92-.62 2.12-.62 3.05 0l.39.26c.34.22.43.69.2 1.04 -.23.34-.7.43-1.05.2l-.4-.27Z"/><path d="M13.45 14.93c-.92.45-2 .45-2.91 0l-1.22-.61c-.38-.19-.83-.04-1.01.33 -.19.37-.04.82.33 1l1.21.6c1.33.66 2.91.66 4.24 0l1.21-.61c.37-.19.52-.64.33-1.01 -.19-.38-.64-.53-1.01-.34l-1.22.6Z"/><path d="M12 21.25c1.68 0 3.26-.46 4.62-1.24 .35-.21.81-.09 1.02.27 .2.35.08.81-.28 1.02 -1.59.91-3.42 1.43-5.38 1.43 -5.94 0-10.75-4.82-10.75-10.75 0-5.94 4.81-10.75 10.75-10.75 5.93 0 10.75 4.81 10.75 10.75 0 1.95-.53 3.79-1.44 5.37 -.21.35-.67.48-1.03.27 -.36-.21-.49-.67-.28-1.03 .78-1.36 1.23-2.94 1.23-4.63 0-5.11-4.15-9.25-9.25-9.25 -5.11 0-9.25 4.14-9.25 9.25 0 5.1 4.14 9.25 9.25 9.25Z"/><path d="M2.91 4c.05.03.11.06.19.1 .42.2 1.08.4 1.96.57 1.74.34 4.19.57 6.92.57 2.72 0 5.17-.23 6.92-.58 .88-.18 1.54-.38 1.96-.58 .07-.04.13-.07.19-.11 -.06-.04-.12-.07-.2-.11 -.43-.21-1.09-.41-1.97-.58 -1.75-.35-4.2-.58-6.93-.58 -2.73 0-5.18.22-6.93.57 -.89.17-1.55.37-1.97.57 -.08.03-.14.06-.2.1Zm1.86-2.15c1.87-.38 4.42-.61 7.21-.61s5.34.22 7.21.6c.92.18 1.73.41 2.31.69 .29.13.57.3.78.51 .21.21.42.52.42.93 0 .41-.22.72-.43.93 -.22.21-.5.37-.79.51 -.59.27-1.39.5-2.32.69 -1.88.37-4.43.6-7.22.6 -2.8 0-5.35-.23-7.22-.61 -.93-.19-1.74-.42-2.32-.7 -.3-.14-.58-.31-.79-.52 -.22-.22-.43-.53-.43-.94 0-.42.21-.73.42-.94 .21-.22.49-.38.78-.52 .58-.28 1.38-.51 2.31-.7Z"/></g></svg>