<svg viewBox="0 0 24 24" xmlns="http://www.w3.org/2000/svg"><g fill-rule="evenodd"><path d="M12 21.25c1.68 0 3.26-.46 4.62-1.24 .35-.21.81-.09 1.02.27 .2.35.08.81-.28 1.02 -1.59.91-3.42 1.43-5.38 1.43 -5.94 0-10.75-4.82-10.75-10.75 0-5.94 4.81-10.75 10.75-10.75 5.93 0 10.75 4.81 10.75 10.75 0 1.95-.53 3.79-1.44 5.37 -.21.35-.67.48-1.03.27 -.36-.21-.49-.67-.28-1.03 .78-1.36 1.23-2.94 1.23-4.63 0-5.11-4.15-9.25-9.25-9.25 -5.11 0-9.25 4.14-9.25 9.25 0 5.1 4.14 9.25 9.25 9.25Z"/><path d="M6.25 13c0-.42.33-.75.75-.75h10c.41 0 .75.33.75.75 0 2.24-1.82 3.97-4.07 4.54 -.41.1-.81-.15-.92-.55 -.11-.41.14-.81.54-.92 1.46-.37 2.48-1.29 2.81-2.34H7.84c.33 1.05 1.34 1.97 2.81 2.33 .4.1.64.5.54.91 -.11.4-.51.64-.92.54 -2.25-.57-4.07-2.31-4.07-4.55Z"/><path d="M9.75 13c0-.42.33-.75.75-.75h3c.41 0 .75.33.75.75v4.5c0 1.24-1.01 2.25-2.25 2.25 -1.25 0-2.25-1.01-2.25-2.25V13Zm1.5.75v3.75c0 .41.33.75.75.75 .41 0 .75-.34.75-.75v-3.75h-1.5Z"/><path d="M17.6 7.05c.24.33.18.8-.15 1.05l-1.2.9 1.2.9c.33.24.39.71.15 1.04 -.25.33-.72.39-1.05.15l-2-1.5c-.19-.15-.3-.37-.3-.6 0-.24.11-.46.3-.6l2-1.5c.33-.25.8-.19 1.05.15Z"/><path d="M6.4 7.05c-.25.33-.19.8.15 1.05l1.2.9 -1.2.9c-.34.24-.4.71-.15 1.04 .24.33.71.39 1.05.15l2-1.5c.18-.15.3-.37.3-.6 0-.24-.12-.46-.3-.6l-2-1.5c-.34-.25-.81-.19-1.05.15Z"/></g></svg>