<svg viewBox="0 0 24 24" xmlns="http://www.w3.org/2000/svg"><g fill-rule="evenodd"><path d="M12 21.25c1.68 0 3.26-.46 4.62-1.24 .35-.21.81-.09 1.02.27 .2.35.08.81-.28 1.02 -1.59.91-3.42 1.43-5.38 1.43 -5.94 0-10.75-4.82-10.75-10.75 0-5.94 4.81-10.75 10.75-10.75 5.93 0 10.75 4.81 10.75 10.75 0 1.95-.53 3.79-1.44 5.37 -.21.35-.67.48-1.03.27 -.36-.21-.49-.67-.28-1.03 .78-1.36 1.23-2.94 1.23-4.63 0-5.11-4.15-9.25-9.25-9.25 -5.11 0-9.25 4.14-9.25 9.25 0 5.1 4.14 9.25 9.25 9.25Z"/><path d="M7.5 8.25c-.42 0-.75.33-.75.75 0 .41.33.75.75.75 .41 0 .75-.34.75-.75 0-.42-.34-.75-.75-.75ZM5.25 9c0-1.25 1-2.25 2.25-2.25 1.24 0 2.25 1 2.25 2.25 0 1.24-1.01 2.25-2.25 2.25 -1.25 0-2.25-1.01-2.25-2.25Z"/><path d="M14.5 8.25c-.42 0-.75.33-.75.75 0 .41.33.75.75.75 .41 0 .75-.34.75-.75 0-.42-.34-.75-.75-.75ZM12.25 9c0-1.25 1-2.25 2.25-2.25 1.24 0 2.25 1 2.25 2.25 0 1.24-1.01 2.25-2.25 2.25 -1.25 0-2.25-1.01-2.25-2.25Z"/><path d="M13.9 16.25c-.74 0-1.46.25-2.04.71l-1.41 1.12c-.33.25-.8.2-1.06-.12 -.26-.33-.21-.8.11-1.06l1.4-1.13c.84-.68 1.88-1.05 2.96-1.05h.65c.41 0 .75.33.75.75 0 .41-.34.75-.75.75h-.66Z"/><path d="M4.25 5c0-.42.33-.75.75-.75h14c.41 0 .75.33.75.75 0 .41-.34.75-.75.75H5c-.42 0-.75-.34-.75-.75Z"/><path d="M1.75 13c0-.42.33-.75.75-.75h19c.41 0 .75.33.75.75 0 .41-.34.75-.75.75h-19c-.42 0-.75-.34-.75-.75Z"/></g></svg>