<svg viewBox="0 0 24 24" xmlns="http://www.w3.org/2000/svg"><g fill-rule="evenodd"><path d="M12 21.25c1.68 0 3.26-.46 4.62-1.24 .35-.21.81-.09 1.02.27 .2.35.08.81-.28 1.02 -1.59.91-3.42 1.43-5.38 1.43 -5.94 0-10.75-4.82-10.75-10.75 0-5.94 4.81-10.75 10.75-10.75 5.93 0 10.75 4.81 10.75 10.75 0 1.95-.53 3.79-1.44 5.37 -.21.35-.67.48-1.03.27 -.36-.21-.49-.67-.28-1.03 .78-1.36 1.23-2.94 1.23-4.63 0-5.11-4.15-9.25-9.25-9.25 -5.11 0-9.25 4.14-9.25 9.25 0 5.1 4.14 9.25 9.25 9.25Z"/><path d="M17.1 7.05c.24.33.18.8-.15 1.05l-1.2.9 1.2.9c.33.24.39.71.15 1.04 -.25.33-.72.39-1.05.15l-2-1.5c-.19-.15-.3-.37-.3-.6 0-.24.11-.46.3-.6l2-1.5c.33-.25.8-.19 1.05.15Z"/><path d="M6.9 7.05c-.25.33-.19.8.15 1.05l1.2.9 -1.2.9c-.34.24-.4.71-.15 1.04 .24.33.71.39 1.05.15l2-1.5c.18-.15.3-.37.3-.6 0-.24-.12-.46-.3-.6l-2-1.5c-.34-.25-.81-.19-1.05.15Z"/><path d="M13.45 16.06c-.92-.46-2-.46-2.91 0l-1.22.6c-.38.18-.83.03-1.01-.34 -.19-.38-.04-.83.33-1.01l1.21-.61c1.33-.67 2.91-.67 4.24 0l1.21.6c.37.18.52.63.33 1s-.64.52-1.01.33l-1.22-.61Z"/></g></svg>