<svg viewBox="0 0 24 24" xmlns="http://www.w3.org/2000/svg"><g fill-rule="evenodd"><path d="M16.69 9.86c-.42-.28-.97-.28-1.39 0l-.4.26c-.35.22-.82.13-1.05-.21 -.23-.35-.14-.82.2-1.05l.39-.27c.92-.62 2.12-.62 3.05 0l.39.26c.34.22.43.69.2 1.04 -.23.34-.7.43-1.04.2l-.4-.27Z"/><path d="M8.69 9.86c-.42-.28-.97-.28-1.39 0l-.4.26c-.35.22-.82.13-1.05-.21 -.23-.35-.14-.82.2-1.05l.39-.27c.92-.62 2.12-.62 3.05 0l.39.26c.34.22.43.69.2 1.04 -.23.34-.7.43-1.05.2l-.4-.27Z"/><path d="M12 21.25c1.68 0 3.26-.46 4.62-1.24 .35-.21.81-.09 1.02.27 .2.35.08.81-.28 1.02 -1.59.91-3.42 1.43-5.38 1.43 -5.94 0-10.75-4.82-10.75-10.75 0-5.94 4.81-10.75 10.75-10.75 5.93 0 10.75 4.81 10.75 10.75 0 1.95-.53 3.79-1.44 5.37 -.21.35-.67.48-1.03.27 -.36-.21-.49-.67-.28-1.03 .78-1.36 1.23-2.94 1.23-4.63 0-5.11-4.15-9.25-9.25-9.25 -5.11 0-9.25 4.14-9.25 9.25 0 5.1 4.14 9.25 9.25 9.25Z"/><path d="M13.45 14.93c-.92.45-2 .45-2.91 0l-1.22-.61c-.38-.19-.83-.04-1.01.33 -.19.37-.04.82.33 1l1.21.6c1.33.66 2.91.66 4.24 0l1.21-.61c.37-.19.52-.64.33-1.01 -.19-.38-.64-.53-1.01-.34l-1.22.6Z"/><path d="M10.76 15.28c.39-.14.81.08.94.47l.53 1.6c.12.37.53.58.9.45 .41-.14.61-.62.41-1.01l-.25-.49c-.19-.38-.04-.83.33-1.01 .37-.19.82-.04 1 .33l.24.48c.6 1.2-.01 2.67-1.29 3.09 -1.17.38-2.42-.25-2.81-1.41l-.54-1.61c-.14-.4.08-.82.47-.95Z"/></g></svg>