<svg viewBox="0 0 24 24" xmlns="http://www.w3.org/2000/svg"><g fill-rule="evenodd"><path d="M12 21.25c1.68 0 3.26-.46 4.62-1.24 .35-.21.81-.09 1.02.27 .2.35.08.81-.28 1.02 -1.59.91-3.42 1.43-5.38 1.43 -5.94 0-10.75-4.82-10.75-10.75 0-5.94 4.81-10.75 10.75-10.75 5.93 0 10.75 4.81 10.75 10.75 0 1.95-.53 3.79-1.44 5.37 -.21.35-.67.48-1.03.27 -.36-.21-.49-.67-.28-1.03 .78-1.36 1.23-2.94 1.23-4.63 0-5.11-4.15-9.25-9.25-9.25 -5.11 0-9.25 4.14-9.25 9.25 0 5.1 4.14 9.25 9.25 9.25Z"/><path d="M17.52 6.46c.29.29.29.76 0 1.06l-3.03 3.06c-.3.29-.77.29-1.07 0 -.3-.3-.3-.77-.01-1.07l3.02-3.07c.29-.3.76-.3 1.06-.01Z"/><path d="M10.52 6.46c.29.29.29.76 0 1.06l-3.03 3.06c-.3.29-.77.29-1.07 0 -.3-.3-.3-.77-.01-1.07l3.02-3.07c.29-.3.76-.3 1.06-.01Z"/><path d="M13.45 6.46c-.3.29-.3.76-.01 1.06l3.02 3.06c.29.29.76.29 1.06 0 .29-.3.29-.77 0-1.07l-3.03-3.07c-.3-.3-.77-.3-1.07-.01Z"/><path d="M6.45 6.46c-.3.29-.3.76-.01 1.06l3.02 3.06c.29.29.76.29 1.06 0 .29-.3.29-.77 0-1.07L7.49 6.44c-.3-.3-.77-.3-1.07-.01Z"/><path d="M13.45 14.93c-.92.45-2 .45-2.91 0l-1.22-.61c-.38-.19-.83-.04-1.01.33 -.19.37-.04.82.33 1l1.21.6c1.33.66 2.91.66 4.24 0l1.21-.61c.37-.19.52-.64.33-1.01 -.19-.38-.64-.53-1.01-.34l-1.22.6Z"/></g></svg>