<svg viewBox="0 0 24 24" xmlns="http://www.w3.org/2000/svg"><g fill-rule="evenodd"><path d="M12 21.25c1.68 0 3.26-.46 4.62-1.24 .35-.21.81-.09 1.02.27 .2.35.08.81-.28 1.02 -1.59.91-3.42 1.43-5.38 1.43 -5.94 0-10.75-4.82-10.75-10.75 0-5.94 4.81-10.75 10.75-10.75 5.93 0 10.75 4.81 10.75 10.75 0 1.95-.53 3.79-1.44 5.37 -.21.35-.67.48-1.03.27 -.36-.21-.49-.67-.28-1.03 .78-1.36 1.23-2.94 1.23-4.63 0-5.11-4.15-9.25-9.25-9.25 -5.11 0-9.25 4.14-9.25 9.25 0 5.1 4.14 9.25 9.25 9.25Z"/><path d="M8.5 8.25c.41 0 .75.33.75.75 0 .41-.34.75-.75.75 -.42 0-.75-.34-.75-.75 0-.42.33-.75.75-.75Zm2.25.75c0-1.25-1.01-2.25-2.25-2.25 -1.25 0-2.25 1-2.25 2.25 0 1.24 1 2.25 2.25 2.25 1.24 0 2.25-1.01 2.25-2.25Z"/><path d="M17.6 7.05c.24.33.18.8-.15 1.05l-1.2.9 1.2.9c.33.24.39.71.15 1.04 -.25.33-.72.39-1.05.15l-2-1.5c-.19-.15-.3-.37-.3-.6 0-.24.11-.46.3-.6l2-1.5c.33-.25.8-.19 1.05.15Z"/><path d="M10.25 13c0-.42.33-.75.75-.75h1.76c1.09 0 1.98.88 1.98 1.98 0 .74-.42 1.42-1.08 1.76 .65.34 1.07 1.02 1.07 1.76 -.01 1.09-.89 1.98-1.99 1.98h-1.77c-.42 0-.75-.34-.75-.75 0-.42.33-.75.75-.75h1.76c.26 0 .48-.22.48-.49 0-.19-.11-.36-.27-.44l-1.32-.66c-.26-.13-.42-.39-.42-.68 0-.29.16-.55.41-.68l1.31-.66c.16-.09.26-.26.26-.44 -.01-.27-.22-.49-.49-.49h-1.77c-.42 0-.75-.34-.75-.75Z"/></g></svg>