<svg viewBox="0 0 24 24" xmlns="http://www.w3.org/2000/svg"><g fill="#9545ED" fill-rule="evenodd"><path d="M13.5 6c-.46 0-.85.3-.97.72 -.09.3-.31.54-.61.65 -.3.11-.63.08-.89-.09 -.31-.19-.67-.3-1.06-.3 -1.04 0-1.89.78-1.99 1.78 -.04.3-.21.57-.47.74 -.27.16-.59.19-.87.09 -.22-.08-.44-.12-.68-.12 -1.11 0-2 .89-2 2 0 .16.02.32.05.48 .11.44-.11.91-.52 1.12 -.33.16-.55.5-.55.89 0 .55.44 1 1 1h5c.55 0 1 .44 1 1 0 .27.22.5.5.5h4.5c.47 0 .88.33.98.8l.26 1.31c.04.22.23.37.46.37 .29 0 .52-.28.46-.57l-.15-.75c-.06-.3.01-.6.2-.84 .18-.24.47-.37.77-.37h.5c.27 0 .5-.23.5-.5 0-.56.44-1 1-1 .55 0 1-.45 1-1 0-.42-.26-.78-.62-.93 -.51-.22-.76-.798-.54-1.31 .09-.24.15-.5.15-.77 0-.74-.41-1.39-1.01-1.74 -.3-.18-.49-.49-.5-.84 -.04-1.08-.92-1.94-2-1.94 -.34 0-.65.08-.92.22 -.45.22-.99.09-1.28-.31 -.19-.26-.48-.42-.82-.42Zm-2.38-.84c.54-.71 1.4-1.17 2.37-1.17 .71 0 1.36.24 1.87.65 .35-.11.73-.16 1.12-.16 1.98 0 3.62 1.44 3.94 3.33 .94.73 1.55 1.87 1.55 3.16 0 .24-.03.47-.07.7 .64.54 1.06 1.37 1.06 2.29 0 1.36-.92 2.51-2.16 2.88 -.28.73-.9 1.31-1.67 1.52 .07 1.38-1.04 2.59-2.47 2.59 -1.18 0-2.2-.84-2.43-1.99l-.11-.52h-3.69c-1.03 0-1.91-.62-2.3-1.5H3.92c-1.66 0-3-1.35-3-3 0-.9.39-1.7 1-2.25 -.01-.09-.01-.18-.01-.26 0-2.21 1.79-4 4-4 .09 0 .19 0 .28.01 .59-1.48 2.03-2.52 3.71-2.52 .39 0 .77.05 1.12.16Z"/><g fill="#3747D6"><path d="M15.5 10c-.56 0-1 .44-1 1h-2c0-1.66 1.34-3 3-3 1.65 0 3 1.34 3 3h-2c0-.56-.45-1-1-1Z"/><path d="M9 12c-.56 0-1 .44-1 1H6c0-1.66 1.34-3 3-3 1.65 0 3 1.34 3 3h-2c0-.56-.45-1-1-1Z"/></g></g></svg>