<svg viewBox="0 0 24 24" xmlns="http://www.w3.org/2000/svg"><g fill="#3747D6" fill-rule="evenodd"><path d="M8 11c0-.56.44-1 1-1h3c.55 0 1 .44 1 1v4c0 .55-.45 1-1 1H9c-.56 0-1-.45-1-1v-4Zm2 1v2h1v-2h-1Z"/><path d="M11 9c0-.56.44-1 1-1h3c.55 0 1 .44 1 1v6c0 .55-.45 1-1 1h-3c-.56 0-1-.45-1-1V9Zm2 1v4h1v-4h-1Z"/><path fill="#9545ED" d="M12 3c-4.98 0-9 4.02-9 9 0 4.97 4.02 9 9 9 4.97 0 9-4.03 9-9 0-4.98-4.03-9-9-9ZM1 12C1 5.92 5.92 1 12 1c6.07 0 11 4.92 11 11 0 6.07-4.93 11-11 11C5.92 23 1 18.07 1 12Z"/><path d="M17 16H7v-2h10v2Z"/></g></svg>