<svg viewBox="0 0 24 24" xmlns="http://www.w3.org/2000/svg"><g fill="#3747D6" fill-rule="evenodd"><path d="M18.364 5.63c-3.52-3.52-9.22-3.52-12.73 0 -3.52 3.51-3.52 9.21-.001 12.72 3.51 3.51 9.21 3.51 12.72 0 3.51-3.52 3.51-9.22 0-12.73ZM4.214 4.21c4.29-4.3 11.26-4.3 15.55 0 4.29 4.29 4.29 11.26 0 15.55 -4.3 4.29-11.27 4.29-15.56 0C-.1 15.46-.1 8.49 4.2 4.2Z"/><path fill="#9545ED" d="M8.36 9.37c.15-.38.51-.62.92-.62h4.94c.55 0 1 .44 1 1v4.94c0 .4-.25.76-.62.92 -.38.15-.81.06-1.09-.22l-4.95-4.95c-.29-.29-.38-.72-.22-1.09Zm3.33 1.38l1.53 1.53v-1.54h-1.54Z"/></g></svg>