<svg viewBox="0 0 24 24" xmlns="http://www.w3.org/2000/svg"><g fill="#3747D6" fill-rule="evenodd"><path d="M1.56 3.09c.34-.17.75-.12 1.05.12l10 7.99c.23.18.37.47.37.78 0 .3-.14.59-.38.78l-10 8c-.31.24-.72.28-1.06.12 -.35-.17-.57-.52-.57-.91v-16c0-.39.22-.74.56-.91Zm1.43 2.98V17.9l7.39-5.92 -7.4-5.92Z"/><path fill="#9545ED" d="M11.56 3.09c.34-.17.75-.12 1.05.12l10 7.99c.23.18.37.47.37.78 0 .3-.14.59-.38.78l-10 8c-.31.24-.72.28-1.06.12 -.35-.17-.57-.52-.57-.91v-16c0-.39.22-.74.56-.91Zm1.43 2.98V17.9l7.39-5.92 -7.4-5.92Z"/></g></svg>