<svg viewBox="0 0 24 24" xmlns="http://www.w3.org/2000/svg"><path fill="#3747D6" fill-rule="evenodd" d="M10.89 3.08c-.37-.16-.79-.09-1.09.18l-7.5 7c-.21.18-.32.45-.32.73 0 .27.11.54.31.73l7.5 7c.29.27.71.34 1.08.18 .36-.16.6-.52.6-.92v-4h1.72c1.97 0 3.79 1.05 4.77 2.77l2.12 3.72c.22.39.68.58 1.12.47 .43-.12.74-.52.74-.97v-5.5c0-4.15-3.36-7.5-7.5-7.5h-3v-3c0-.4-.24-.76-.61-.92Zm-1.4 3.21v1.69c0 .55.44 1 1 1h4c3.03 0 5.5 2.46 5.5 5.49v1.73l-.27-.46c-1.34-2.34-3.83-3.779-6.52-3.779h-2.73c-.56 0-1 .44-1 1v2.69l-5.04-4.7 5.03-4.7Z"/></svg>