<svg viewBox="0 0 24 24" xmlns="http://www.w3.org/2000/svg"><g fill="#3747D6" fill-rule="evenodd"><path d="M5 3c-1.11 0-2 .89-2 2v.96c0 .81.49 1.55 1.25 1.85l.61.24c.37.15.62.51.62.92v12h13v-12c0-.41.24-.78.62-.93l.61-.25c.75-.31 1.25-1.04 1.25-1.86v-.97c0-1.11-.9-2-2-2h-14ZM1 5c0-2.21 1.79-4 4-4h14c2.2 0 4 1.79 4 4v.96c0 1.63-.99 3.09-2.5 3.7v12.323c0 .55-.45 1-1 1h-15c-.56 0-1-.45-1-1V9.66C1.98 9.04 1 7.58 1 5.95v-.97Z"/><path fill="#9545ED" d="M9 7c-.56 0-1 .44-1 1v2.46c0 .17.04.34.13.49l1.47 2.57c.25.45.39.96.39 1.48v1.96c0 .55.44 1 1 1h2c.55 0 1-.45 1-1v-1c0-.95.44-1.84 1.2-2.4l.4-.3c.25-.19.4-.49.4-.8v-1c0-.28-.23-.5-.5-.5 -1.39 0-2.5-1.12-2.5-2.5v-.5c0-.56-.45-1-1-1h-3ZM6 8c0-1.66 1.34-3 3-3h3c1.65 0 3 1.34 3 3v.5c0 .27.22.5.5.5 1.38 0 2.5 1.11 2.5 2.5v1c0 .94-.45 1.83-1.2 2.4l-.4.3c-.26.18-.4.48-.4.8v1c0 1.65-1.35 3-3 3h-2c-1.66 0-3-1.35-3-3v-1.97c0-.18-.05-.35-.14-.5l-1.48-2.58c-.26-.46-.4-.97-.4-1.49V7.99Z"/></g></svg>