<svg viewBox="0 0 24 24" xmlns="http://www.w3.org/2000/svg"><g fill="#9545ED" fill-rule="evenodd"><path d="M5 2c0-.56.44-1 1-1h12c.55 0 1 .44 1 1v20c0 .55-.45 1-1 1H6c-.56 0-1-.45-1-1V2Zm2 1v18h10V3H7Z"/><path fill="#3747D6" d="M5 11c0-.56.44-1 1-1h12c.55 0 1 .44 1 1v11c0 .55-.45 1-1 1H6c-.56 0-1-.45-1-1V11Zm2 1v9h10v-9H7Z"/><path d="M11 11V2h2v9h-2Z"/><path d="M6 5.5h12v2H6v-2Z"/><path fill="#3747D6" d="M5.03 10.74c.11-.45.51-.75.96-.75h12c.36 0 .69.19.87.5 .17.31.17.69-.02 1l-3 5c-.28.46-.88.62-1.35.35l-9-5c-.4-.23-.6-.69-.49-1.125Zm4.82 1.25l4.78 2.65 1.59-2.66H9.84Z"/></g></svg>