<svg viewBox="0 0 24 24" xmlns="http://www.w3.org/2000/svg"><g fill="#3747D6" fill-rule="evenodd"><path d="M7.16 8.74c-.15-1.48 1-2.75 2.48-2.75h4.68c1.47 0 2.63 1.27 2.48 2.74l-.7 7c-.13 1.27-1.21 2.25-2.49 2.25H10.32c-1.29 0-2.36-.98-2.49-2.26l-.7-7.01Zm2.48-.75c-.3 0-.53.25-.5.54l.7 7c.02.25.24.45.49.45h3.285c.25 0 .47-.2.49-.46l.7-7.01c.02-.3-.21-.55-.5-.55H9.61Z"/><path d="M3.09 9.08l4.5-2L8.4 8.9l-3.61 1.6 1.86 4.48h1.83v2h-2.5c-.41 0-.77-.25-.93-.62l-2.5-6c-.21-.51.02-1.08.51-1.3Z"/><path d="M20.9 9.08l-4.5-2 -.82 1.82 3.6 1.6 -1.87 4.48h-1.84v2h2.5c.4 0 .76-.25.92-.62l2.5-6c.2-.51-.03-1.08-.52-1.3Z"/><path d="M1.15 14.37l1.39-4.2 1.89.63 -1.4 4.19c-.04.1-.06.2-.06.31v1.84l1.84-2.3 1.55 1.25 -1.85 2.29c-1.19 1.46-3.56.63-3.56-1.26v-1.85c0-.33.05-.65.15-.95Z"/><path d="M22.84 14.37l-1.4-4.2 -1.9.63 1.39 4.19c.03.1.05.2.05.31v1.84l-1.85-2.3 -1.56 1.25 1.84 2.29c1.18 1.46 3.55.63 3.55-1.26v-1.85c0-.33-.06-.65-.16-.95Z"/></g></svg>