<svg viewBox="0 0 24 24" xmlns="http://www.w3.org/2000/svg"><g fill="#9545ED" fill-rule="evenodd"><path d="M12 3c-.83 0-1.5.67-1.5 1.5 0 .82.67 1.5 1.5 1.5 .82 0 1.5-.68 1.5-1.5 0-.83-.68-1.5-1.5-1.5ZM8.5 4.5C8.5 2.56 10.06 1 12 1c1.93 0 3.5 1.56 3.5 3.5C15.5 6.43 13.93 8 12 8c-1.94 0-3.5-1.57-3.5-3.5Z"/><g fill="#3747D6"><path d="M3.21 13.38c.18-.25.48-.39.78-.39h16c.3 0 .59.14.78.38 .18.24.25.55.18.85l-2 8c-.12.44-.52.75-.98.75h-12c-.46 0-.86-.32-.98-.76l-2-8c-.08-.3-.01-.62.18-.86Zm2.06 1.61l1.5 6H17.2l1.5-6H5.26Z"/><path d="M1 12c0-3.32 2.68-6 6-6h10c3.31 0 6 2.68 6 6v2c0 .55-.45 1-1 1H2c-.56 0-1-.45-1-1v-2Zm6-4c-2.21 0-4 1.79-4 4v1h18v-1c0-2.21-1.8-4-4-4H7Z"/></g></g></svg>