<svg viewBox="0 0 24 24" xmlns="http://www.w3.org/2000/svg"><g fill="#3747D6" fill-rule="evenodd"><path d="M3.21 13.38c.18-.25.48-.39.78-.39h16c.3 0 .59.14.78.38 .18.24.25.55.18.85l-2 8c-.12.44-.52.75-.98.75h-12c-.46 0-.86-.32-.98-.76l-2-8c-.08-.3-.01-.62.18-.86Zm2.06 1.61l1.5 6H17.2l1.5-6H5.26Z"/><path fill="#9545ED" d="M17.55 1.16c.28.18.44.49.44.83v3.05c1.14.23 2 1.24 2 2.44v.31l.08-.02c1.52-.26 2.91.92 2.91 2.46v3.22c0 .82-.68 1.5-1.5 1.5h-19c-.83 0-1.5-.68-1.5-1.5v-1.73c0-1.23.88-2.27 2.089-2.47l.911-.16V7.43c0-1.39 1.11-2.5 2.5-2.5h.14c.43-1.45 1.76-2.5 3.35-2.5h2.39c.59 0 1.18-.13 1.73-.36L16.57 1c.3-.14.66-.11.94.08Zm-1.56 2.35l-1.09.46c-.8.34-1.66.51-2.52.51h-2.4c-.83 0-1.5.67-1.5 1.5 0 .55-.45 1-1 1h-1c-.28 0-.5.22-.5.5v2.07c0 .73-.54 1.35-1.26 1.47l-1.33.22c-.25.04-.42.24-.42.49v1.22h18v-2.73c0-.31-.28-.55-.59-.5l-.68.11c-.92.15-1.75-.56-1.75-1.48v-.91c0-.28-.23-.5-.5-.5h-.5c-.56 0-1-.45-1-1V3.45Z"/></g></svg>