<svg viewBox="0 0 24 24" xmlns="http://www.w3.org/2000/svg"><g fill="#3747D6" fill-rule="evenodd"><path d="M12 3c-4.98 0-9 4.02-9 9 0 4.97 4.02 9 9 9 4.97 0 9-4.03 9-9 0-4.98-4.03-9-9-9ZM1 12C1 5.92 5.92 1 12 1c6.07 0 11 4.92 11 11 0 6.07-4.93 11-11 11C5.92 23 1 18.07 1 12Z"/><path d="M12 9.5c-1.39 0-2.5 1.11-2.5 2.5 0 1.38 1.11 2.5 2.5 2.5 1.38 0 2.5-1.12 2.5-2.5 0-1.39-1.12-2.5-2.5-2.5ZM7.5 12c0-2.49 2.01-4.5 4.5-4.5 2.48 0 4.5 2.01 4.5 4.5 0 2.48-2.02 4.5-4.5 4.5 -2.49 0-4.5-2.02-4.5-4.5Z"/><path fill="#9545ED" d="M9.64 4.36c1.2-1.53 3.5-1.53 4.7 0l.18.23c.21.27.55.41.9.37l.29-.04c1.92-.23 3.55 1.4 3.32 3.32l-.04.29c-.05.34.1.68.37.9l.23.18c1.52 1.2 1.52 3.5 0 4.7l-.24.18c-.28.21-.42.55-.38.9l.03.29c.22 1.92-1.41 3.55-3.33 3.32l-.3-.04c-.35-.05-.69.1-.91.37l-.19.23c-1.21 1.52-3.51 1.52-4.71 0l-.19-.24c-.22-.28-.56-.42-.91-.38l-.3.03c-1.93.22-3.56-1.41-3.33-3.33l.03-.3c.04-.35-.11-.69-.38-.91l-.24-.19c-1.53-1.21-1.53-3.51 0-4.71l.23-.19c.27-.22.41-.56.37-.91l-.04-.3C4.57 6.2 6.2 4.57 8.12 4.8l.29.03c.34.04.68-.11.9-.38l.18-.24Zm3.13 1.23c-.41-.51-1.17-.51-1.57 0l-.19.23c-.65.81-1.67 1.24-2.71 1.12L8 6.9c-.65-.08-1.19.46-1.11 1.1l.03.29c.12 1.03-.31 2.05-1.13 2.7l-.24.18c-.51.4-.51 1.16 0 1.56l.23.18c.81.64 1.24 1.66 1.12 2.7l-.04.29c-.08.64.46 1.18 1.1 1.1l.29-.04c1.03-.13 2.05.3 2.7 1.12l.18.23c.4.5 1.16.5 1.56 0l.18-.24c.64-.82 1.66-1.25 2.7-1.13l.29.03c.64.07 1.18-.47 1.1-1.11l-.04-.3c-.13-1.04.3-2.06 1.12-2.71l.23-.19c.5-.41.5-1.17 0-1.57l-.24-.19c-.82-.65-1.25-1.67-1.13-2.71l.03-.3c.07-.65-.47-1.19-1.11-1.11l-.3.03c-1.04.12-2.06-.31-2.71-1.13l-.19-.24Z"/></g></svg>