<svg viewBox="0 0 24 24" xmlns="http://www.w3.org/2000/svg"><g fill="#3747D6" fill-rule="evenodd"><path d="M4 6c0-2.77 2.23-5 5-5h6c2.76 0 5 2.23 5 5v3.73c0 1.75-.93 3.38-2.43 4.28l-1.12.66c-.91.54-1.46 1.51-1.46 2.57v.73c0 2.76-2.24 5-5 5H8.98c-2.77 0-5-2.24-5-5v-12Zm5-3C7.34 3 6 4.34 6 6v12c0 1.65 1.34 3 3 3h1c1.65 0 3-1.35 3-3v-.74c0-1.76.92-3.39 2.42-4.29l1.11-.67c.9-.55 1.45-1.52 1.45-2.58V5.98c0-1.66-1.35-3-3-3H8.97Z"/><g fill="#9545ED"><path d="M15.39 2.44l-3.68 7.34c-.68 1.35-2.07 2.21-3.58 2.21H4.98v-2h3.14c.75 0 1.45-.43 1.78-1.11l3.67-7.35 1.78.89Z"/><path d="M12.05 20.31l-3.01-9 1.89-.64 3 9 -1.9.63Z"/></g></g></svg>