<svg viewBox="0 0 24 24" xmlns="http://www.w3.org/2000/svg"><g fill="#9545ED" fill-rule="evenodd"><path d="M15.8 10.22l-5-4.82 1.388-1.44 5 4.81L15.8 10.2Z"/><path d="M11.3 15.54l-4.5-4.32 1.38-1.45 4.5 4.31 -1.39 1.44Z"/><path d="M10.8 19.36l-4.01-3.82 1.38-1.45 4 3.81 -1.39 1.44Z"/><path d="M13.293 12.7L6.78 6.2l1.41-1.42 6.5 6.49 -1.42 1.41Z"/><path fill="#3747D6" d="M4 6c0-2.77 2.23-5 5-5h6c2.76 0 5 2.23 5 5v3.73c0 1.75-.93 3.38-2.43 4.28l-1.12.66c-.91.54-1.46 1.51-1.46 2.57v.73c0 2.76-2.24 5-5 5H8.98c-2.77 0-5-2.24-5-5v-12Zm5-3C7.34 3 6 4.34 6 6v12c0 1.65 1.34 3 3 3h1c1.65 0 3-1.35 3-3v-.74c0-1.76.92-3.39 2.42-4.29l1.11-.67c.9-.55 1.45-1.52 1.45-2.58V5.98c0-1.66-1.35-3-3-3H8.97Z"/></g></svg>