<svg viewBox="0 0 24 24" xmlns="http://www.w3.org/2000/svg"><g fill="#9545ED" fill-rule="evenodd"><path d="M2 16.5c0-.56.44-1 1-1h3c.55 0 1 .44 1 1v3c0 .55-.45 1-1 1H3c-.56 0-1-.45-1-1v-3Zm2 1v1h1v-1H4Z"/><path d="M17 16.5c0-.56.44-1 1-1h3c.55 0 1 .44 1 1v3c0 .55-.45 1-1 1h-3c-.56 0-1-.45-1-1v-3Zm2 1v1h1v-1h-1Z"/><path d="M2 10.5c0-.56.44-1 1-1h3c.55 0 1 .44 1 1v3c0 .55-.45 1-1 1H3c-.56 0-1-.45-1-1v-3Zm2 1v1h1v-1H4Z"/><path d="M17 10.5c0-.56.44-1 1-1h3c.55 0 1 .44 1 1v3c0 .55-.45 1-1 1h-3c-.56 0-1-.45-1-1v-3Zm2 1v1h1v-1h-1Z"/><path d="M2 4.5c0-.56.44-1 1-1h3c.55 0 1 .44 1 1v3c0 .55-.45 1-1 1H3c-.56 0-1-.45-1-1v-3Zm2 1v1h1v-1H4Z"/><path d="M17 4.5c0-.56.44-1 1-1h3c.55 0 1 .44 1 1v3c0 .55-.45 1-1 1h-3c-.56 0-1-.45-1-1v-3Zm2 1v1h1v-1h-1Z"/><g fill="#3747D6"><path d="M5 16.5C5 15.11 6.11 14 7.5 14h9c1.38 0 2.5 1.11 2.5 2.5v3c0 1.38-1.12 2.5-2.5 2.5h-9C6.11 22 5 20.88 5 19.5v-3Zm2.5-.5c-.28 0-.5.22-.5.5v3c0 .27.22.5.5.5h9c.27 0 .5-.23.5-.5v-3c0-.28-.23-.5-.5-.5h-9Z"/><path d="M5 10.5C5 9.11 6.11 8 7.5 8h9c1.38 0 2.5 1.11 2.5 2.5v3c0 1.38-1.12 2.5-2.5 2.5h-9C6.11 16 5 14.88 5 13.5v-3Zm2.5-.5c-.28 0-.5.22-.5.5v3c0 .27.22.5.5.5h9c.27 0 .5-.23.5-.5v-3c0-.28-.23-.5-.5-.5h-9Z"/><path d="M5 4.5C5 3.11 6.11 2 7.5 2h9C17.88 2 19 3.11 19 4.5v3c0 1.38-1.12 2.5-2.5 2.5h-9C6.11 10 5 8.88 5 7.5v-3ZM7.5 4c-.28 0-.5.22-.5.5v3c0 .27.22.5.5.5h9c.27 0 .5-.23.5-.5v-3c0-.28-.23-.5-.5-.5h-9Z"/></g></g></svg>