<svg viewBox="0 0 24 24" xmlns="http://www.w3.org/2000/svg"><g fill="#9545ED" fill-rule="evenodd"><path d="M14.79 12.79c.39-.4 1.02-.4 1.41 0l2.49 2.49c.39-.19.83-.3 1.29-.3 1.65 0 3 1.34 3 3 0 1.35-.9 2.49-2.13 2.87 -.38 1.23-1.52 2.12-2.88 2.12 -1.66 0-3-1.35-3-3 0-.47.1-.91.29-1.3l-2.5-2.5c-.19-.19-.3-.45-.3-.71 0-.27.1-.52.29-.71l2-2Zm.12 2.7l2.37 2.37c.39.39.39 1.02 0 1.41 -.19.18-.3.43-.3.7 0 .55.44 1 1 1 .55 0 1-.45 1-1 0-.56.44-1 1-1 .55 0 1-.45 1-1 0-.56-.45-1-1-1 -.28 0-.53.11-.71.29 -.4.39-1.03.39-1.42 0l-2.38-2.38 -.59.58Z"/><path fill="#3747D6" d="M9.79 1.83c.29-.3.74-.38 1.12-.21 2.4 1.1 4.08 3.53 4.08 6.36 0 .32-.03.63-.07.94l1.22 1.53c.95 1.19.85 2.91-.23 3.99l-1.47 1.46c-1.09 1.08-2.81 1.17-4 .22L8.9 14.89c-.31.04-.63.06-.95.06 -2.83 0-5.26-1.68-6.37-4.09 -.18-.38-.1-.83.2-1.13l7.95-7.96Zm.88 1.94l-6.91 6.9c.88 1.39 2.44 2.31 4.22 2.31 .34 0 .68-.04 1.01-.11 .29-.07.59.01.82.19l1.88 1.5c.39.31.97.28 1.33-.08l1.46-1.47c.36-.37.39-.94.07-1.34l-1.51-1.89c-.19-.24-.26-.54-.2-.83 .06-.33.1-.67.1-1.02 0-1.78-.93-3.34-2.32-4.23Z"/></g></svg>