<svg viewBox="0 0 24 24" xmlns="http://www.w3.org/2000/svg"><g fill-rule="evenodd"><path d="M22.38 1.07c.37.15.61.51.61.92v4c0 .26-.11.51-.3.7l-16 16c-.19.18-.45.29-.71.29h-4c-.41 0-.77-.25-.93-.62 -.16-.38-.07-.81.21-1.09l20-20c.28-.29.71-.38 1.08-.22ZM4.41 20.99h1.17L20.99 5.57V4.39L4.4 20.97Z"/><path d="M13.29 13.29c.39-.4 1.02-.4 1.41 0l8 8c.28.28.37.71.21 1.08 -.16.37-.52.61-.93.61h-4c-.27 0-.52-.11-.71-.3l-6-6c-.4-.4-.4-1.03 0-1.42l2-2Zm.12 2.7l5 5h1.17l-5.59-5.59 -.59.58Z"/><path d="M17.35 14.29l3.724-8.69 1.83.78 -3.73 8.68c-.37.84-.88 1.58-1.49 2.19l-1.42-1.42c.43-.44.8-.97 1.06-1.58Zm-14-.23l4.5 1.73 -.72 1.86 -4.5-1.74 .71-1.87Zm7.22 2.77l.38.14c.93.36 1.91.41 2.82.22l.41 1.95c-1.29.27-2.66.18-3.96-.32l-.39-.15 .71-1.87Z"/></g></svg>