<svg viewBox="0 0 24 24" xmlns="http://www.w3.org/2000/svg"><g fill-rule="evenodd"><path d="M20.5 2v16c0 .55-.45 1-1 1h-7v2h7c1.65 0 3-1.35 3-3V2h-2Z"/><path d="M11.5 17.17c1.16.41 2 1.52 2 2.82 0 1.65-1.35 3-3 3 -1.31 0-2.42-.84-2.83-2H5.99v-2h1.67c.3-.86.97-1.53 1.82-1.83v-3.68h2v3.67Zm-1 1.82c.55 0 1 .44 1 1 0 .55-.45 1-1 1 -.56 0-1-.45-1-1 0-.56.44-1 1-1Z"/><path d="M1.5 11c0-2.77 2.23-5 5-5h8c2.76 0 5 2.23 5 5v1.54c0 1.9-1.35 3.54-3.22 3.92l-1.28.25c-1.15.22-2.34-.13-3.17-.96l-1.35-1.35 -1.35 1.34c-.83.82-2.02 1.18-3.17.95l-1.28-.26c-1.87-.38-3.22-2.02-3.22-3.93v-1.55Zm5-3c-1.66 0-3 1.34-3 3v1.54c0 .95.67 1.77 1.6 1.96l1.27.25c.49.09 1-.06 1.35-.42l1.34-1.35c.78-.79 2.04-.79 2.82 0l1.34 1.34c.35.35.86.5 1.35.41l1.27-.26c.93-.19 1.6-1.01 1.6-1.97v-1.55c0-1.66-1.35-3-3-3h-8Z"/></g></svg>