<svg viewBox="0 0 24 24" xmlns="http://www.w3.org/2000/svg"><g fill-rule="evenodd"><path d="M12 9.5c-.28 0-.5.22-.5.5 0 .27.22.5.5.5 .27 0 .5-.23.5-.5 0-.28-.23-.5-.5-.5Zm-2.5.5c0-1.39 1.11-2.5 2.5-2.5 1.38 0 2.5 1.11 2.5 2.5 0 1.38-1.12 2.5-2.5 2.5 -1.39 0-2.5-1.12-2.5-2.5Z"/><path d="M13 4.5v4h-2v-4h2Z"/><path d="M11 15.5v-4h2v4h-2Z"/><path d="M6.5 9h4v2h-4V9Z"/><path d="M17.5 11h-4V9h4v2Z"/><path d="M12 3c-3.87 0-7 3.13-7 7 0 3.86 3.13 7 7 7 3.86 0 7-3.14 7-7 0-3.87-3.14-7-7-7Zm-9 7c0-4.98 4.02-9 9-9 4.97 0 9 4.02 9 9 0 4.97-4.03 9-9 9 -4.98 0-9-4.03-9-9Z"/><path d="M6.76 21l2.09-3.49 -1.72-1.029 -3 5c-.19.3-.2.69-.02 1 .17.31.5.5.87.5h14c.36 0 .69-.2.87-.51 .17-.32.17-.7-.02-1.01l-3-5 -1.72 1.029 2.09 3.48H6.73Z"/></g></svg>