<svg viewBox="0 0 24 24" xmlns="http://www.w3.org/2000/svg"><g fill-rule="evenodd"><path d="M5.48 1.14c.33-.2.74-.19 1.06.02l1.61 1.07c.5.33 1.16.33 1.66 0l1.61-1.08c.33-.23.77-.23 1.1 0l1.61 1.07c.5.33 1.16.33 1.66 0l1.61-1.08c.32-.22.73-.23 1.06-.03 .33.19.51.57.47.95L17.15 19.8c-.18 1.78-1.69 3.15-3.49 3.15h-3.48c-1.8 0-3.31-1.37-3.49-3.16L4.91 2.04c-.04-.39.14-.76.47-.96ZM7.2 3.99l1.56 15.64c.07.76.72 1.35 1.49 1.35h3.47c.77 0 1.41-.59 1.49-1.36l1.56-15.65c-1.16.68-2.609.65-3.74-.1l-1.06-.71 -1.06.7c-1.13.75-2.59.78-3.74.09Z"/><path d="M12 13c-.67 0-1.5.71-1.5 2 0 1.28.83 2 1.5 2 .66 0 1.5-.72 1.5-2 0-1.29-.84-2-1.5-2Zm-3.5 2c0-2.04 1.4-4 3.5-4 2.096 0 3.5 1.96 3.5 4 0 2.03-1.404 4-3.5 4 -2.1 0-3.5-1.97-3.5-4Z"/></g></svg>