<svg viewBox="0 0 24 24" xmlns="http://www.w3.org/2000/svg"><g fill-rule="evenodd"><path d="M5.45 1.16c.33-.23.76-.22 1.1 0l1.61 1.07c.5.33 1.16.33 1.66 0l1.61-1.08c.33-.23.77-.23 1.1 0l1.61 1.07c.5.33 1.16.33 1.66 0l1.61-1.08c.33-.23.76-.23 1.1-.01 .33.22.5.61.43 1.01l-2 11 -1.97-.36 1.58-8.72c-1.12.57-2.48.5-3.55-.21l-1.06-.71 -1.06.7c-1.07.7-2.43.77-3.55.2l1.58 8.71 -1.97.35 -2-11c-.08-.4.09-.8.43-1.02Z"/><path d="M12 10c-.56 0-1 .44-1 1v.4c0 1.22-.86 2.25-2 2.53v4.56c0 1.38 1.11 2.5 2.5 2.5h1c1.38 0 2.5-1.12 2.5-2.5v-4.57c-1.15-.28-2-1.31-2-2.54v-.4c0-.56-.45-1-1-1Zm-3 1c0-1.66 1.34-3 3-3 1.65 0 3 1.34 3 3v.4c0 .33.26.6.6.6 .77 0 1.4.62 1.4 1.4v5.1c0 2.48-2.02 4.5-4.5 4.5h-1C9.01 23 7 20.98 7 18.5v-5.1c0-.78.62-1.4 1.4-1.4 .33 0 .6-.27.6-.6V11Z"/><path d="M12 16c-.36 0-1 .45-1 1.5 0 1.04.64 1.5 1 1.5 .35 0 1-.46 1-1.5 0-1.05-.65-1.5-1-1.5Zm-3 1.5c0-1.72 1.14-3.5 3-3.5 1.85 0 3 1.78 3 3.5 0 1.71-1.15 3.5-3 3.5 -1.86 0-3-1.79-3-3.5Z"/></g></svg>