<svg viewBox="0 0 24 24" xmlns="http://www.w3.org/2000/svg"><g fill-rule="evenodd"><path d="M6.5 10c0-1.66 1.34-3 3-3h5c1.65 0 3 1.34 3 3v10c0 1.65-1.35 3-3 3h-2.7c-1.83 0-3.23-1.62-2.97-3.43l.53-3.73c.04-.32-.07-.63-.29-.85l-1.71-1.71c-.57-.57-.88-1.33-.88-2.13V9.97Zm3-1c-.56 0-1 .44-1 1v1.17c0 .26.1.51.29.7l1.7 1.7c.66.66.98 1.61.84 2.54l-.54 3.72c-.09.6.38 1.14.98 1.14h2.69c.55 0 1-.45 1-1v-10c0-.56-.45-1-1-1h-5Z"/><path d="M7.23 3.18c-.13.17-.24.45-.24.81 0 .35.1.64.23.81 .12.17.23.18.26.18 .02 0 .13-.02.26-.19 .12-.18.23-.46.23-.82 0-.36-.11-.65-.24-.82 -.13-.18-.24-.19-.27-.19 -.03 0-.14.01-.27.18Zm-1.6-1.2c.41-.56 1.06-.99 1.86-.99 .79 0 1.44.43 1.86.98 .41.55.63 1.26.63 2.01 0 .74-.23 1.46-.64 2.01 -.42.55-1.07.98-1.87.98s-1.45-.44-1.87-.99c-.42-.56-.64-1.27-.64-2.02s.22-1.47.63-2.02Z"/><path d="M10.5 3.83c0-1.59 1.47-2.76 3.01-2.4l3.57.82c1.11.25 1.9 1.25 1.9 2.39 0 1.58-1.48 2.75-3.02 2.39l-3.58-.83c-1.12-.26-1.91-1.26-1.91-2.4Zm2.56-.45c-.29-.07-.57.15-.57.44 0 .21.14.4.35.44l3.57.82c.28.06.56-.16.56-.45 0-.22-.15-.41-.36-.45l-3.58-.83Z"/></g></svg>