<svg viewBox="0 0 24 24" xmlns="http://www.w3.org/2000/svg"><g fill-rule="evenodd"><path d="M9.87 8c.3-.04.61.06.83.28l1.75 1.75 7.65.95c.38.04.7.31.82.67l1 3c.1.3.05.64-.14.9s-.49.41-.82.41h-11c-.27 0-.52-.11-.71-.3l-2.71-2.71H1.95c-.56 0-1-.45-1-1v-2c0-.51.37-.93.87-1l8-1Zm-6.88 2.87v.11h4c.26 0 .51.1.7.29l2.7 2.7h9.19l-.37-1.09 -7.38-.93c-.23-.03-.43-.13-.59-.29L9.58 10l-6.64.82Z"/><path d="M9.21 5.09c.28-.14.61-.13.89.02l1.86 1 -.95 1.76 -1.43-.77 -1.66.77 -4.96 2.7v1.4h-2v-2c0-.37.19-.71.52-.88l5.5-3c.01-.01.03-.02.05-.03l2.13-1Z"/><path d="M1 12c0-.56.44-1 1-1h5c.26 0 .51.1.7.29l2.7 2.7h11.58c.55 0 1 .44 1 1v3c0 .55-.45 1-1 1h-15c-3.32 0-6-2.69-6-6v-1Zm2 1c0 2.2 1.79 4 4 4h14v-1H10c-.27 0-.52-.11-.71-.3l-2.71-2.71H2.99Z"/></g></svg>