<svg viewBox="0 0 24 24" xmlns="http://www.w3.org/2000/svg"><g fill-rule="evenodd"><path d="M1 5c0-2.21 1.79-4 4-4h3.28c2.05 0 3.77 1.55 3.98 3.6l.19 1.98c.02.27.02.56-.01.83l-.97 8.67 -.27 3.23c-.18 2.07-1.91 3.66-3.99 3.66H4.97c-2.21 0-4-1.8-4-4v-14Zm4-2c-1.11 0-2 .89-2 2v14c0 1.1.89 2 2 2h2.23c1.04 0 1.9-.8 1.99-1.84l.27-3.25c0-.01 0-.02 0-.03l.96-8.69c.01-.14.01-.29 0-.42l-.2-1.99c-.11-1.03-.97-1.81-2-1.81H4.96Z"/><path d="M23 19c0 2.2-1.8 4-4 4h-3.285c-2.06 0-3.78-1.56-3.99-3.61l-.2-1.99c-.03-.28-.03-.57 0-.84l.96-8.68 .26-3.24c.17-2.08 1.9-3.67 3.98-3.67h2.23c2.2 0 4 1.79 4 4v14Zm-4 2c1.1 0 2-.9 2-2V5c0-1.11-.9-2-2-2h-2.24c-1.05 0-1.91.79-2 1.83l-.28 3.24c-.01 0-.01.01-.01.02l-.97 8.68c-.02.13-.02.28-.01.41l.19 1.98c.1 1.02.96 1.8 1.99 1.8h3.28Z"/><path d="M6.5 6.08V4.49h2v1.76l1.39 2.78c.08.17.12.37.09.57l-.5 3.99 -1.99-.25 .46-3.7 -.75-1.49 -1.73 1.72v3.58h-2v-4c0-.27.1-.52.29-.71l2.7-2.71Z"/><path d="M17.5 17.91v1.58h-2v-1.77l-1.4-2.79c-.09-.18-.13-.38-.1-.58l.5-4 1.98.24 -.47 3.69 .74 1.48 1.72-1.73v-3.59h2v4c0 .26-.11.51-.3.7l-2.71 2.7Z"/></g></svg>