<svg viewBox="0 0 24 24" xmlns="http://www.w3.org/2000/svg"><g fill="#CFD8DC" fill-rule="evenodd"><path d="M14 1.25c.41 0 .75.33.75.75v8c0 .41-.34.75-.75.75 -.42 0-.75-.34-.75-.75V2c0-.42.33-.75.75-.75Z"/><path d="M6.5 4.25c.41 0 .75.33.75.75v11.5c0 .41-.34.75-.75.75 -.42 0-.75-.34-.75-.75V5c0-.42.33-.75.75-.75Z"/><path d="M18.5 3.75c.41 0 .75.33.75.75v6c0 .41-.34.75-.75.75 -.42 0-.75-.34-.75-.75v-6c0-.42.33-.75.75-.75Z"/><path fill="#FF884D" d="M18.38 11.44c-.49-.49-1.28-.49-1.77 0l-.59.58c-.3.29-.77.29-1.07 0 -.3-.3-.3-.77 0-1.07l.58-.59c1.07-1.08 2.81-1.08 3.88 0l.58.58c.29.29.29.76 0 1.06 -.3.29-.77.29-1.07 0l-.59-.59Z"/></g><path fill="#FF884D" d="M10.52 11.46c-.3-.3-.77-.3-1.07 0l-2.5 2.5c-1.68 1.67-1.68 4.38 0 6.06 1.67 1.67 4.38 1.67 6.06 0l2.5-2.5c.29-.3.29-.77 0-1.07l-5-5Z"/><path fill="#FFA071" d="M13.94 8.88c-1.08-1.08-2.82-1.08-3.89 0l-1.59 1.58c-.3.29-.3.76 0 1.06l7 7c.29.29.76.29 1.06 0l1.58-1.59c1.07-1.08 1.07-2.82 0-3.89l-4.18-4.18Z"/></svg>