<svg viewBox="0 0 24 24" xmlns="http://www.w3.org/2000/svg"><path fill="#ECEFF1" d="M2 8.25c-.42 0-.75.33-.75.75v13c0 .41.33.75.75.75h20c.41 0 .75-.34.75-.75V9c0-.42-.34-.75-.75-.75H2Z"/><path fill="#FF884D" d="M2 3.25c-.42 0-.75.33-.75.75v5c0 .41.33.75.75.75h20c.41 0 .75-.34.75-.75V4c0-.42-.34-.75-.75-.75H2Z"/><g fill="#ECEFF1" fill-rule="evenodd"><path d="M7 1.25c.41 0 .75.33.75.75v4c0 .41-.34.75-.75.75 -.42 0-.75-.34-.75-.75V2c0-.42.33-.75.75-.75Z"/><path d="M17 1.25c.41 0 .75.33.75.75v4c0 .41-.34.75-.75.75 -.42 0-.75-.34-.75-.75V2c0-.42.33-.75.75-.75Z"/></g><path fill="#FF884D" d="M12.53 10.46c-.3-.3-.77-.3-1.07 0l-.79.78h-.69c-.23 0-.44.1-.59.27 -.15.17-.2.4-.16.62l.35 1.78 -1.88-.65c-.23-.08-.49-.05-.68.09 -.2.14-.32.36-.32.61v.68l-.79.78c-.3.29-.3.76 0 1.06l.61.61 -.26.51c-.12.23-.11.5.03.72 .13.22.37.35.63.35h10c.25 0 .5-.14.63-.36 .13-.23.14-.5.03-.73l-.26-.52 .61-.62c.29-.3.29-.77 0-1.07l-.79-.79v-.69c0-.25-.12-.47-.32-.62 -.2-.15-.45-.18-.68-.1l-1.88.64 .35-1.79c.04-.23-.02-.45-.16-.63 -.15-.18-.36-.28-.58-.28h-.69l-.79-.79Z"/><path fill="#FFA071" fill-rule="evenodd" d="M12 15.75c.41 0 .75.33.75.75v3c0 .41-.34.75-.75.75 -.42 0-.75-.34-.75-.75v-3c0-.42.33-.75.75-.75Z"/></svg>