<svg viewBox="0 0 24 24" xmlns="http://www.w3.org/2000/svg"><path fill="#CFD8DC" fill-rule="evenodd" d="M9.25 3.5c0-1.25 1-2.25 2.25-2.25h1c1.24 0 2.25 1 2.25 2.25V5c0 .41-.34.75-.75.75h-4c-.42 0-.75-.34-.75-.75V3.5Zm2.25-.75c-.42 0-.75.33-.75.75v.75h2.5V3.5c0-.42-.34-.75-.75-.75h-1Z"/><g fill="#CFD8DC"><path d="M2 13.25c-.42 0-.75.33-.75.75v5c0 .41.33.75.75.75h3c.41 0 .75-.34.75-.75v-5c0-.42-.34-.75-.75-.75H2Z"/><path d="M19 13.25c-.42 0-.75.33-.75.75v5c0 .41.33.75.75.75h3c.41 0 .75-.34.75-.75v-5c0-.42-.34-.75-.75-.75h-3Z"/></g><path fill="#EE4D4D" d="M8.5 4.25c-2.35 0-4.25 1.9-4.25 4.25V22c0 .41.33.75.75.75h14c.41 0 .75-.34.75-.75V8.5c0-2.35-1.91-4.25-4.25-4.25h-7Z"/><path fill="#CFD8DC" d="M11.5 10.25c-2.35 0-4.25 1.9-4.25 4.25V19c0 .41.33.75.75.75h8c.41 0 .75-.34.75-.75v-4.5c0-2.35-1.91-4.25-4.25-4.25h-1Z"/><path fill="#ECEFF1" fill-rule="evenodd" d="M7.25 8c0-.42.33-.75.75-.75h8c.41 0 .75.33.75.75 0 .41-.34.75-.75.75H8c-.42 0-.75-.34-.75-.75Z"/></svg>