<svg viewBox="0 0 24 24" xmlns="http://www.w3.org/2000/svg"><path fill="#FF884D" fill-rule="evenodd" d="M4.25 7c0-3.18 2.57-5.75 5.75-5.75h4c3.17 0 5.75 2.57 5.75 5.75v3c0 .41-.34.75-.75.75H5c-.42 0-.75-.34-.75-.75V7ZM10 2.75c-2.35 0-4.25 1.9-4.25 4.25v2.25h12.5V7c0-2.35-1.91-4.25-4.25-4.25h-4Z"/><path fill="#FF884D" d="M3.5 12.25c-.42 0-.75.33-.75.75 0 5.34 4.1 9.75 9.25 9.75 5.14 0 9.25-4.41 9.25-9.75 0-.42-.34-.75-.75-.75h-17Z"/><path fill="#FFA071" d="M2 9.25c-.42 0-.75.33-.75.75v3c0 .41.33.75.75.75h20c.41 0 .75-.34.75-.75v-3c0-.42-.34-.75-.75-.75H2Z"/></svg>