<svg viewBox="0 0 24 24" xmlns="http://www.w3.org/2000/svg"><path fill="#8B98A6" d="M10.5 1.25c-4.01 0-7.25 3.24-7.25 7.25V15c0 .41.33.75.75.75h16c.41 0 .75-.34.75-.75V8.5c0-4.01-3.25-7.25-7.25-7.25h-3Z"/><path fill="#CFD8DC" d="M4 14.25c-1.52 0-2.75 1.23-2.75 2.75v3c0 1.51 1.23 2.75 2.75 2.75h16c1.51 0 2.75-1.24 2.75-2.75v-3c0-1.52-1.24-2.75-2.75-2.75H4Z"/><g fill="#8B98A6" fill-rule="evenodd"><path d="M6.75 14.25v8.5h-1.5v-8.5h1.5Z"/><path d="M10.75 14.25v8.5h-1.5v-8.5h1.5Z"/><path d="M14.75 14.25v8.5h-1.5v-8.5h1.5Z"/><path d="M18.75 14.25v8.5h-1.5v-8.5h1.5Z"/></g></svg>