<svg viewBox="0 0 24 24" xmlns="http://www.w3.org/2000/svg"><path fill="#FF884D" d="M3.23 1.25c-1.1 0-1.99.88-1.99 1.98v10.76c0 4.83 3.91 8.75 8.75 8.75h8c.41 0 .75-.34.75-.75v-12c0-.42-.34-.75-.75-.75h-5.06c-2.75 0-5.26-1.56-6.49-4.01l-1.45-2.9c-.34-.68-1.03-1.1-1.78-1.1Z"/><path fill="#FFA071" d="M18 9.25c-1.44 0-2.64.87-3.46 2.09 -.82 1.22-1.3 2.87-1.3 4.65 0 1.78.48 3.43 1.29 4.65 .81 1.21 2.01 2.09 3.45 2.09 1.43 0 2.63-.88 3.45-2.1 .81-1.23 1.29-2.88 1.29-4.66 0-1.79-.49-3.44-1.3-4.66 -.82-1.22-2.02-2.1-3.46-2.1Z"/><g fill="#ECEFF1" fill-rule="evenodd"><path d="M10 22.5l-.3-.74 -.67-2.68c-.18-.7-.15-1.42.08-2.1l.58-1.76c.13-.4-.09-.82-.48-.95 -.4-.14-.82.08-.95.47l-.59 1.75c-.32.94-.36 1.96-.12 2.93l.68 2.72c0 .03.01.06.03.09l.04.1c.45.07.92.11 1.4.11h.25Z"/><path d="M2.5 18.51l.69-1.73 .41-.98c.57-1.34 1.77-2.28 3.2-2.52l.3-.06c.4-.07.68-.46.61-.87 -.07-.41-.46-.69-.87-.62l-.31.05c-1.94.32-3.57 1.6-4.34 3.4l-.43.98 -.01.01 -.16.39c.2.67.49 1.3.85 1.9Z"/></g></svg>