<svg viewBox="0 0 24 24" xmlns="http://www.w3.org/2000/svg"><path fill="#FF884D" d="M3.23 1.25c-1.1 0-1.99.88-1.99 1.98v10.76c0 4.83 3.91 8.75 8.75 8.75h8c.41 0 .75-.34.75-.75v-12c0-.42-.34-.75-.75-.75h-5.06c-2.75 0-5.26-1.56-6.49-4.01l-1.45-2.9c-.34-.68-1.03-1.1-1.78-1.1Z"/><path fill="#FFA071" d="M18 9.25c-1.44 0-2.64.87-3.46 2.09 -.82 1.22-1.3 2.87-1.3 4.65 0 1.78.48 3.43 1.29 4.65 .81 1.21 2.01 2.09 3.45 2.09 1.43 0 2.63-.88 3.45-2.1 .81-1.23 1.29-2.88 1.29-4.66 0-1.79-.49-3.44-1.3-4.66 -.82-1.22-2.02-2.1-3.46-2.1Z"/><g fill="#ECEFF1" fill-rule="evenodd"><path d="M11.73 9.14l-.31.37 -.01.01 -2.79 3.47c-.91 1.13-1.31 2.58-1.1 4.02l.72 5.07c0 .04.01.08.03.13l.12.36c.51.09 1.04.14 1.58.14h.04l-.31-.93 -.72-5.01c-.15-1.03.13-2.07.78-2.88l2.77-3.48 1.02-1.23h-.657c-.42 0-.82-.04-1.22-.11Z"/><path d="M8.49 7.72l-.2.05c-.04 0-.07.01-.09.03l-1.57.66c-1.43.61-2.55 1.77-3.11 3.22l-1.75 4.53h-.01l-.01 0 -.15.39c.21.68.51 1.33.87 1.93l.67-1.8 1.74-4.53c.41-1.08 1.23-1.93 2.29-2.39l1.51-.66 1.57-.45c-.66-.26-1.28-.61-1.83-1.04Z"/></g></svg>