<svg viewBox="0 0 24 24" xmlns="http://www.w3.org/2000/svg"><path fill="#FFC44D" d="M12 3.25c-4.84 0-8.75 3.91-8.75 8.75 0 4.83 3.91 8.75 8.75 8.75 4.83 0 8.75-3.92 8.75-8.75 0-4.84-3.92-8.75-8.75-8.75Z"/><path fill="#FFD071" d="M12 7.25c-2.63 0-4.75 2.12-4.75 4.75 0 2.62 2.12 4.75 4.75 4.75 2.62 0 4.75-2.13 4.75-4.75 0-2.63-2.13-4.75-4.75-4.75Z"/><g fill="#FFC44D" fill-rule="evenodd"><path d="M5.46 2.46c.29-.3.76-.3 1.06 0l2 2c.29.29.29.76 0 1.06 -.3.29-.77.29-1.07 0l-2-2c-.3-.3-.3-.77 0-1.07Z"/><path d="M19.25 11.5c0-.42.33-.75.75-.75h2c.41 0 .75.33.75.75 0 .41-.34.75-.75.75h-2c-.42 0-.75-.34-.75-.75Z"/><path d="M17.96 15.96c.29-.3.76-.3 1.06 0l1.5 1.5c.29.29.29.76 0 1.06 -.3.29-.77.29-1.07 0l-1.5-1.5c-.3-.3-.3-.77 0-1.07Z"/><path d="M4.53 13.46c.29.29.29.76 0 1.06l-2 2c-.3.29-.77.29-1.07 0 -.3-.3-.3-.77 0-1.07l2-2c.29-.3.76-.3 1.06 0Z"/><path fill="#FFD071" d="M16.46 4.47l-.5.49 -1.5 1.5c-.3.29-.3.76 0 1.06 .29.29.76.29 1.06 0l1.5-1.5 .66-.67c-.39-.33-.8-.63-1.24-.89Z"/><path d="M12 12.75c.41 0 .75.33.75.75V17c0 .41-.34.75-.75.75 -.42 0-.75-.34-.75-.75v-3.5c0-.42.33-.75.75-.75Z"/><path fill="#FFD071" d="M5.87 9.58c.22-.35.69-.44 1.04-.21l1.5 1c.34.22.43.69.2 1.04 -.23.34-.7.43-1.05.2l-1.5-1c-.35-.23-.44-.7-.21-1.05Z"/><path fill="#CFD8DC" d="M1.25 20c0-.42.33-.75.75-.75h20c.41 0 .75.33.75.75 0 .41-.34.75-.75.75H2c-.42 0-.75-.34-.75-.75Z"/></g></svg>