<svg viewBox="0 0 24 24" xmlns="http://www.w3.org/2000/svg"><path fill="#FFC44D" d="M2 11.25c-.25 0-.49.12-.63.32s-.17.46-.08.69l.88 2.22 -.89 2.22c-.08.17-.08.37 0 .55l.88 2.22 -.89 2.22c-.1.23-.07.49.07.69 .13.2.37.32.62.32h16c.24 0 .48-.13.62-.33 .13-.21.16-.47.07-.7l-.89-2.23 .88-2.23c.07-.18.07-.38 0-.56l-.89-2.23 .88-2.23c.09-.24.06-.5-.08-.7 -.14-.21-.38-.33-.63-.33h-16Z"/><g fill="#CFD8DC" fill-rule="evenodd"><path d="M7.75 11.25v11.5h-1.5v-11.5h1.5Z"/><path d="M13.75 11.25v11.5h-1.5v-11.5h1.5Z"/></g><path fill="#FFC44D" d="M6 1.25c-.25 0-.49.12-.63.32s-.17.46-.08.69l.88 2.22 -.89 2.22c-.08.17-.08.37 0 .55l.88 2.22 -.89 2.22c-.1.23-.07.49.07.69 .13.2.37.32.62.32h16c.24 0 .48-.13.62-.33 .13-.21.16-.47.07-.7l-.89-2.23 .88-2.23c.07-.18.07-.38 0-.56l-.89-2.23 .88-2.23c.09-.24.06-.5-.08-.7 -.14-.21-.38-.33-.63-.33h-16Z"/><g fill="#CFD8DC" fill-rule="evenodd"><path d="M11.75 1.25v11.5h-1.5V1.25h1.5Z"/><path d="M17.75 1.25v11.5h-1.5V1.25h1.5Z"/></g></svg>