<svg viewBox="0 0 24 24" xmlns="http://www.w3.org/2000/svg"><path fill="#FF884D" d="M9 1.25C4.71 1.25 1.25 4.71 1.25 9v2.83c0 1.59.72 3.1 1.97 4.09l8.31 6.64c.27.21.66.21.93 0l8.31-6.65c1.24-1 1.97-2.51 1.97-4.1V8.97c0-4.29-3.47-7.75-7.75-7.75h-6Z"/><g fill="#FFA071" fill-rule="evenodd"><path d="M22.75 10.21V8.99c0-4.29-3.47-7.75-7.75-7.75H9c-4.29 0-7.75 3.46-7.75 7.75v1.21l6.6-3.31 3.61 3.61c.29.29.76.29 1.06 0l3.61-3.62 6.6 3.3Z"/><path d="M12.62 22.46l.07-.18 2.75-6.43c.2-.47.3-.97.3-1.48v-2.39c0-.42-.34-.75-.75-.75 -.42 0-.75.33-.75.75v2.38c0 .3-.07.6-.19.88l-2.76 6.43 -.01.01 -.21.51 .43.34c.27.21.66.21.93 0l.15-.13Z"/></g></svg>