<svg viewBox="0 0 24 24" xmlns="http://www.w3.org/2000/svg"><path fill="#A2ADB8" d="M12.64 1.61c-.14-.23-.38-.37-.65-.37s-.51.13-.65.36l-1.12 1.85 -1.86-1.12c-.2-.12-.44-.14-.65-.07 -.22.07-.38.25-.46.46L5.53 7.85 2.82 6.3c-.27-.16-.6-.13-.84.06 -.25.19-.34.5-.26.8l1.37 4.57 -1.69 1.68c-.16.15-.24.38-.22.6 .02.22.14.42.33.55l6 4c.12.08.26.12.41.12h8c.14 0 .29-.05.41-.13l6-4c.18-.13.3-.33.33-.56 .02-.23-.06-.45-.22-.61l-1.69-1.69 1.37-4.58c.08-.3-.02-.62-.26-.81 -.25-.2-.58-.22-.84-.07l-2.71 1.54 -1.72-5.14c-.08-.22-.24-.39-.46-.47 -.22-.08-.46-.06-.65.06l-1.86 1.11 -1.12-1.86Z"/><g fill="#CFD8DC"><path d="M7.53 5.25c-1.27 0-2.29 1.02-2.29 2.28v6.46c0 .31.19.59.49.7 .29.1.62.01.83-.23l5-6c.13-.17.19-.38.16-.59 -.04-.22-.15-.4-.33-.52L8.77 5.6c-.38-.26-.82-.39-1.27-.39Z"/><path d="M16.46 5.25c1.26 0 2.28 1.02 2.28 2.28v6.46c0 .31-.2.59-.5.7 -.3.1-.63.01-.84-.23l-5-6c-.14-.17-.2-.38-.17-.59 .03-.22.14-.4.32-.52l2.61-1.75c.37-.26.81-.39 1.26-.39Z"/></g><g fill="#ECEFF1"><path d="M11.52 22.57s0 0 .47-.58c.47.57.47.57.47.57 -.28.22-.68.22-.96 0Z"/><path d="M11.52 22.57l.47-.58 .47.57 0-.01 .01-.02 .05-.05c.04-.04.11-.1.19-.17 .16-.15.4-.36.69-.62 .57-.53 1.34-1.26 2.1-2.1 .76-.84 1.55-1.8 2.14-2.78 .58-.96 1.04-2.013 1.04-3.03 0-3.66-3.05-6.59-6.75-6.59 -3.71 0-6.75 2.92-6.75 6.58 0 1.01.46 2.07 1.04 3.02 .59.97 1.38 1.93 2.14 2.77 .76.84 1.53 1.57 2.1 2.09 .28.26.52.47.69.61 .08.07.15.12.19.16l.05.04 .01.01 0 0Z"/></g><g fill="#A2ADB8"><path d="M11.44 22.5s0 0 .55-.51l.55.5c-.15.15-.35.24-.56.24 -.22 0-.42-.1-.56-.25Z"/><path d="M11.44 22.5l.55-.51c.55.5.55.5.55.5l0-.01 0-.01 .01-.02c.01-.02.03-.04.05-.06 .04-.06.1-.13.18-.22 .14-.18.34-.43.54-.71 .19-.28.4-.6.57-.92 .15-.3.31-.69.31-1.09 0-1.25-1.01-2.25-2.25-2.25 -1.25 0-2.25 1-2.25 2.25 0 .39.16.78.31 1.08 .16.31.37.63.57.91 .2.27.39.52.54.7 .07.08.13.16.18.21 .02.02.03.04.05.05l.01.01 0 0 0 0Z"/></g></svg>