<svg viewBox="0 0 24 24" xmlns="http://www.w3.org/2000/svg"><path fill="#ECEFF1" d="M5 7.25c-.34 0-.63.22-.73.54l-1.34 4.68c-.49 1.68-.17 3.49.84 4.92l3 4.2c.51.72 1.34 1.15 2.23 1.15h5.94c.88 0 1.72-.43 2.23-1.16l3-4.21c1.01-1.43 1.33-3.24.84-4.93l-1.34-4.69c-.1-.33-.39-.55-.73-.55h-14Z"/><path fill="#F17171" d="M4.5 4.25c-.34 0-.63.22-.73.54l-.74 2.58c-.28.96.64 1.84 1.59 1.52l1.91-.64 5.21.94c.16.02.33.02.49-.01l4.22-.94 2.98.74c.93.23 1.76-.64 1.5-1.56l-.77-2.67c-.1-.33-.39-.55-.73-.55h-15Z"/><g fill="#EE4D4D"><path d="M9 11.25c-.42 0-.75.33-.75.75v4c0 .41.33.75.75.75h6c.41 0 .75-.34.75-.75v-4c0-.42-.34-.75-.75-.75H8.99Z"/><path d="M5.5 1.25c-1.25 0-2.25 1-2.25 2.25 0 1.24 1 2.25 2.25 2.25h13c1.24 0 2.25-1.01 2.25-2.25 0-1.25-1.01-2.25-2.25-2.25h-13Z"/></g></svg>