<svg viewBox="0 0 24 24" xmlns="http://www.w3.org/2000/svg"><path fill="#FFC44D" fill-rule="evenodd" d="M13.25 12c0-1.52 1.23-2.75 2.75-2.75h2c1.51 0 2.75 1.23 2.75 2.75v10c0 .41-.34.75-.75.75 -.42 0-.75-.34-.75-.75V12c0-.7-.56-1.25-1.25-1.25h-2c-.7 0-1.25.55-1.25 1.25v6c0 1.51-1.24 2.75-2.75 2.75H9c-1.52 0-2.75-1.24-2.75-2.75v-3c0-.42.33-.75.75-.75 .41 0 .75.33.75.75v3c0 .69.55 1.25 1.25 1.25h3c.69 0 1.25-.56 1.25-1.25v-6Z"/><path fill="#EE4D4D" d="M7.53 1.46c-.3-.3-.77-.3-1.07 0l-5 5c-.24.23-.29.6-.13.89l5 8.99c.13.23.38.38.65.38s.52-.15.65-.39l4.99-9c.16-.3.11-.66-.13-.9l-5-5Z"/><g fill="#ECEFF1" fill-rule="evenodd"><path d="M1.25 7c0-.42.33-.75.75-.75h10c.41 0 .75.33.75.75 0 .41-.34.75-.75.75H2c-.42 0-.75-.34-.75-.75Z"/><path d="M7 1.25c.41 0 .75.33.75.75v14c0 .41-.34.75-.75.75 -.42 0-.75-.34-.75-.75V2c0-.42.33-.75.75-.75Z"/><g fill="#EE4D4D"><path d="M17.25 17c0-.42.33-.75.75-.75h4c.41 0 .75.33.75.75 0 .41-.34.75-.75.75h-4c-.42 0-.75-.34-.75-.75Z"/><path d="M17.25 20c0-.42.33-.75.75-.75h4c.41 0 .75.33.75.75 0 .41-.34.75-.75.75h-4c-.42 0-.75-.34-.75-.75Z"/></g></g></svg>