<svg viewBox="0 0 24 24" xmlns="http://www.w3.org/2000/svg"><path fill="#FF884D" d="M12.6 1.55c-.15-.19-.37-.3-.6-.3 -.24 0-.46.11-.6.3l-1.13 1.49 -1.45-.73c-.25-.13-.55-.11-.78.06 -.23.16-.35.43-.31.71l.62 4.38 -1.91-1.58c-.23-.19-.54-.23-.8-.1 -.27.12-.43.38-.43.67V8.2H2.96c-.25 0-.47.11-.61.31 -.15.19-.18.44-.11.67l.82 2.48 -1.57 1.17c-.23.16-.34.44-.3.72 .04.27.23.5.5.59l6.16 2.05 -.62 1.43c-.12.26-.07.56.11.78 .18.21.47.31.75.24l1.56-.4v3.66c0 .41.33.75.74.75h3c.41 0 .75-.34.75-.75v-3.67l1.56.39c.27.06.56-.03.75-.25 .18-.22.23-.52.11-.79l-.62-1.44 6.16-2.06c.26-.09.45-.32.5-.6 .04-.28-.07-.56-.3-.73l-1.57-1.18 .82-2.49c.07-.23.03-.49-.11-.68 -.15-.2-.37-.32-.61-.32h-2.25V6.33c0-.3-.17-.56-.43-.68 -.27-.13-.58-.09-.8.09l-1.91 1.57 .62-4.39c.03-.28-.08-.56-.31-.72 -.23-.17-.53-.19-.78-.07l-1.45.72 -1.13-1.5Z"/></svg>