<svg viewBox="0 0 24 24" xmlns="http://www.w3.org/2000/svg"><path fill="#FF884D" d="M7.03 2.96c-1.13-1.13-2.94-1.13-4.07 0 -1.13 1.12-1.13 2.93 0 4.06l.46.46c-1.37 1.39-1.36 3.64.03 5.03 .45.45 1.01.76 1.59.92 -.98 1.39-.84 3.33.4 4.57 1.17 1.17 2.95 1.36 4.32.56 .16.33.39.65.67.93 1.39 1.39 3.66 1.39 5.06 0l4-4c1.39-1.4 1.39-3.67 0-5.07 -.26-.26-.54-.46-.84-.62 1.22-1.41 1.17-3.55-.17-4.89 -1.4-1.4-3.67-1.4-5.07 0l-.04.03c-.17-.57-.47-1.1-.91-1.54 -1.39-1.39-3.64-1.4-5.04-.04l-.47-.47Z"/><path fill="#FFA071" fill-rule="evenodd" d="M9.46 9.46c.29-.3.76-.3 1.06 0l12 12c.29.29.29.76 0 1.06 -.3.29-.77.29-1.07 0l-12-12c-.3-.3-.3-.77 0-1.07Z"/></svg>