<svg viewBox="0 0 24 24" xmlns="http://www.w3.org/2000/svg"><g fill="#CFD8DC" fill-rule="evenodd"><path d="M5 1.25c.41 0 .75.33.75.75v3c0 .41-.34.75-.75.75 -.42 0-.75-.34-.75-.75V2c0-.42.33-.75.75-.75Z"/><path d="M9.5 1.25c.41 0 .75.33.75.75v3c0 .41-.34.75-.75.75 -.42 0-.75-.34-.75-.75V2c0-.42.33-.75.75-.75Z"/><path d="M14.5 1.25c.41 0 .75.33.75.75v3c0 .41-.34.75-.75.75 -.42 0-.75-.34-.75-.75V2c0-.42.33-.75.75-.75Z"/><path d="M19 1.25c.41 0 .75.33.75.75v3c0 .41-.34.75-.75.75 -.42 0-.75-.34-.75-.75V2c0-.42.33-.75.75-.75Z"/><path d="M5 18.25c.41 0 .75.33.75.75v3c0 .41-.34.75-.75.75 -.42 0-.75-.34-.75-.75v-3c0-.42.33-.75.75-.75Z"/><path d="M9.5 18.25c.41 0 .75.33.75.75v3c0 .41-.34.75-.75.75 -.42 0-.75-.34-.75-.75v-3c0-.42.33-.75.75-.75Z"/><path d="M14.5 18.25c.41 0 .75.33.75.75v3c0 .41-.34.75-.75.75 -.42 0-.75-.34-.75-.75v-3c0-.42.33-.75.75-.75Z"/><path d="M19 18.25c.41 0 .75.33.75.75v3c0 .41-.34.75-.75.75 -.42 0-.75-.34-.75-.75v-3c0-.42.33-.75.75-.75Z"/></g><path fill="#FF884D" d="M5 4.25c-.42 0-.75.33-.75.75v14c0 .41.33.75.75.75h14c.41 0 .75-.34.75-.75V5c0-.42-.34-.75-.75-.75H5Z"/><path fill="#ECEFF1" d="M8 7.25c-.42 0-.75.33-.75.75v8c0 .41.33.75.75.75h8c.41 0 .75-.34.75-.75V8c0-.42-.34-.75-.75-.75H8Z"/><g fill="#FF884D" fill-rule="evenodd"><path d="M17.03 6.96c.29.29.29.76 0 1.06l-9 8.99c-.3.29-.77.29-1.07 0 -.3-.3-.3-.77 0-1.07l9-9.01c.29-.3.76-.3 1.06-.001Z"/><path d="M6.96 6.96c-.3.29-.3.76 0 1.06l9 8.99c.29.29.76.29 1.06 0 .29-.3.29-.77 0-1.07l-9-9.01c-.3-.3-.77-.3-1.07-.001Z"/></g></svg>