<svg viewBox="0 0 24 24" xmlns="http://www.w3.org/2000/svg"><path fill="#5E94FF" d="M11.06 1.25c-3.54 0-6.48 2.65-6.68 6.06 -1.77.33-3.14 1.83-3.14 3.68 0 2.09 1.76 3.75 3.875 3.75h12.5c.57 0 1.11-.12 1.6-.34 2.04-.75 3.52-2.65 3.52-4.92 0-2.93-2.47-5.25-5.44-5.25 -.2 0-.39 0-.58.02 -1.19-1.83-3.29-3.03-5.68-3.03Z"/><g fill="#4DC4FF"><path d="M6.5 16.5l.55-.51c-.15-.16-.35-.25-.56-.25 -.22 0-.42.09-.56.24 0 0 0 0 .55.5Z"/><path d="M6.5 16.5l-.56-.51 -.01 0 -.01 0L5.9 16c-.02.01-.04.03-.06.05 -.05.05-.11.12-.19.21 -.15.17-.35.42-.55.7 -.2.27-.41.59-.58.91 -.16.29-.32.68-.32 1.08 0 1.24 1 2.25 2.25 2.25 1.24 0 2.25-1.01 2.25-2.25 0-.4-.17-.79-.32-1.09 -.17-.32-.38-.64-.58-.92 -.21-.28-.4-.53-.55-.71 -.08-.09-.14-.17-.19-.22 -.03-.03-.04-.05-.06-.06l-.02-.02 -.01-.01 -.01-.01s-.01-.01-.56.5Z"/><path d="M12 18l.55-.51c-.15-.16-.35-.25-.56-.25 -.22 0-.42.09-.56.24 0 0 0 0 .55.5Z"/><path d="M12 18l-.56-.51 -.01 0 -.01 0 -.02.01c-.02.01-.03.03-.06.05 -.05.05-.11.12-.19.21 -.15.17-.35.42-.55.7 -.2.27-.41.59-.58.91 -.16.29-.32.68-.32 1.08 0 1.24 1 2.25 2.25 2.25 1.24 0 2.25-1.01 2.25-2.25 0-.4-.17-.79-.32-1.09 -.17-.32-.38-.64-.58-.92 -.21-.28-.4-.53-.55-.71 -.08-.09-.14-.17-.19-.22 -.03-.03-.04-.05-.06-.06l-.02-.02 -.01-.01 -.01-.01s-.01-.01-.56.5Z"/><path d="M17.5 16.5l.55-.51c-.15-.16-.35-.25-.56-.25 -.22 0-.42.09-.56.24 0 0 0 0 .55.5Z"/><path d="M17.5 16.5l-.56-.51 -.01 0 -.01 0 -.02.01c-.02.01-.03.03-.06.05 -.05.05-.11.12-.19.21 -.15.17-.35.42-.55.7 -.2.27-.41.59-.58.91 -.16.29-.32.68-.32 1.08 0 1.24 1 2.25 2.25 2.25 1.24 0 2.25-1.01 2.25-2.25 0-.4-.17-.79-.32-1.09 -.17-.32-.38-.64-.58-.92 -.21-.28-.4-.53-.55-.71 -.08-.09-.14-.17-.19-.22 -.03-.03-.04-.05-.06-.06l-.02-.02 -.01-.01 -.01-.01s-.01-.01-.56.5Z"/></g></svg>