<svg viewBox="0 0 24 24" xmlns="http://www.w3.org/2000/svg"><path fill="#A2ADB8" fill-rule="evenodd" d="M9.46 1.46c-.3.29-.3.76 0 1.06l1.96 1.96 -.94.93 -1.97-1.97c-.3-.3-.77-.3-1.07 0 -.3.29-.3.76 0 1.06L9.4 6.46l-.94.93 -1.97-1.97c-.3-.3-.77-.3-1.07 0 -.3.29-.3.76 0 1.06l1.96 1.96 -.94.93L4.47 7.4c-.3-.3-.77-.3-1.07 0 -.3.29-.3.76 0 1.06l1.96 1.96 -.94.93 -1.97-1.97c-.3-.3-.77-.3-1.07 0 -.3.29-.3.76 0 1.06l2.5 2.5c.29.29.76.29 1.06 0l7.99-8c.29-.3.29-.77 0-1.07l-2.5-2.5c-.3-.3-.77-.3-1.07 0Z"/><path fill="#FF884D" d="M10.96 8.96c.29-.3.76-.3 1.06 0l9 9c.29.29.29.76 0 1.06l-2 2c-.3.29-.77.29-1.07 0l-9.01-9c-.3-.3-.3-.77 0-1.07l2-2.01Z"/><path fill="#CFD8DC" fill-rule="evenodd" d="M22.53 16.46c.29.29.29.76 0 1.06l-5 5c-.3.29-.77.29-1.07 0 -.3-.3-.3-.77 0-1.07l5-5c.29-.3.76-.3 1.06 0Z"/><path fill="#CFD8DC" d="M13.03 3.96c-.3-.3-.77-.3-1.07 0l-8.01 8c-.3.29-.3.76-.001 1.06l.58.58c1.07 1.07 2.81 1.07 3.88 0l5.17-5.18c1.07-1.08 1.07-2.82 0-3.89l-.59-.59Z"/></svg>