<svg viewBox="0 0 24 24" xmlns="http://www.w3.org/2000/svg"><g fill="#CFD8DC"><path d="M7 18.25c-.42 0-.75.33-.75.75v3c0 .41.33.75.75.75h10c.41 0 .75-.34.75-.75v-3c0-.42-.34-.75-.75-.75H7Z"/><g fill="#CFD8DC" fill-rule="evenodd"><path d="M13.46 1.41c.32.25.37.73.11 1.05L12.25 4.1c-.21.25-.22.61-.04.88l.78 1.17c.54.81.49 1.88-.12 2.65l-1.32 1.64c-.26.32-.74.37-1.06.11 -.33-.26-.38-.74-.12-1.06l1.31-1.65c.2-.26.21-.62.03-.89l-.79-1.18c-.55-.82-.5-1.89.11-2.66l1.31-1.65c.25-.33.73-.38 1.05-.12Z"/><path d="M18.53 3.46c.29.29.29.76 0 1.06l-1 1c-.26.25-.26.67 0 .93 .84.84.84 2.21 0 3.06l-1 .99c-.3.29-.77.29-1.07 0 -.3-.3-.3-.77 0-1.07l1-1c.25-.26.25-.68 0-.94 -.85-.85-.85-2.22 0-3.07l1-1c.29-.3.76-.3 1.06 0Z"/><path d="M8.53 3.46c.29.29.29.76 0 1.06l-1 1c-.26.25-.26.67 0 .93 .84.84.84 2.21 0 3.06l-1 .99c-.3.29-.77.29-1.07 0 -.3-.3-.3-.77 0-1.07l1-1c.25-.26.25-.68 0-.94 -.85-.85-.85-2.22 0-3.07l1-1c.29-.3.76-.3 1.06 0Z"/></g></g><path fill="#FF884D" d="M2 9.25c-.42 0-.75.33-.75.75v3c0 3.72 3.02 6.75 6.75 6.75h8c3.72 0 6.75-3.03 6.75-6.75v-3c0-.42-.34-.75-.75-.75H2Z"/></svg>