<svg viewBox="0 0 24 24" xmlns="http://www.w3.org/2000/svg"><path fill="#FFC44D" d="M12.35 4.29c-1.86-1.86-4.87-1.86-6.72 0L4.28 5.63c-1.86 1.85-1.86 4.86 0 6.71l3.67 3.67c.14.14.33.21.53.21 .19 0 .38-.08.53-.22L16 9c.14-.15.21-.34.21-.54s-.08-.39-.22-.54l-3.68-3.68Z"/><path fill="#FF884D" d="M17.53 6.46c-.3-.3-.77-.3-1.07 0l-10 10c-.3.29-.3.76-.001 1.06l3.53 3.53c1.07 1.07 2.54 1.68 4.06 1.68h5.42c1.79 0 3.25-1.46 3.25-3.25v-5.43c0-1.53-.61-2.99-1.69-4.07l-3.54-3.54Z"/><g fill="#FFA071" fill-rule="evenodd"><path d="M12.53 15.46c.29.29.29.76 0 1.06l-3.54 3.53 -1.07-1.07 3.53-3.54c.29-.3.76-.3 1.06 0Z"/><path d="M19.53 13.46c.29.29.29.76 0 1.06l-4 4c-.3.29-.77.29-1.07 0 -.3-.3-.3-.77 0-1.07l4-4c.29-.3.76-.3 1.06 0Z"/></g></svg>