<svg viewBox="0 0 24 24" xmlns="http://www.w3.org/2000/svg"><g fill="#A2ADB8"><path d="M5.03 10.96c-.3-.3-.77-.3-1.07 0l-2 2c-.3.29-.3.76 0 1.06l5 5c.21.21.53.27.81.16 .28-.12.46-.39.46-.7v-4c0-.2-.08-.39-.22-.54l-3-3Z"/><g fill="#A2ADB8" fill-rule="evenodd"><path d="M6.75 7c0-2.63 2.12-4.75 4.75-4.75h5c2.62 0 4.75 2.12 4.75 4.75v5c0 .41-.34.75-.75.75 -.42 0-.75-.34-.75-.75V7c0-1.8-1.46-3.25-3.25-3.25h-5C9.7 3.75 8.25 5.2 8.25 7v5c0 .41-.34.75-.75.75 -.42 0-.75-.34-.75-.75V7Z"/><path d="M13.99 6.25c.41-.01.75.33.75.74l0 2c0 .41-.34.75-.75.75 -.42 0-.75-.34-.76-.75l-.01-2c-.01-.42.33-.76.74-.76Z"/></g></g><path fill="#CFD8DC" d="M11 8.25c-2.35 0-4.25 1.9-4.25 4.25v5c0 2.34 1.9 4.25 4.25 4.25h6c2.34 0 4.25-1.91 4.25-4.25v-5c0-2.35-1.91-4.25-4.25-4.25h-6Z"/></svg>