<svg viewBox="0 0 24 24" xmlns="http://www.w3.org/2000/svg"><g fill="#8BC94D" fill-rule="evenodd"><path d="M7.25 5c0-2.08 1.67-3.75 3.75-3.75 2.07 0 3.75 1.67 3.75 3.75v17c0 .41-.34.75-.75.75 -.42 0-.75-.34-.75-.75V5c0-1.25-1.01-2.25-2.25-2.25 -1.25 0-2.25 1-2.25 2.25v1c0 .41-.34.75-.75.75 -.42 0-.75-.34-.75-.75V5Z"/><path d="M18 16.75c-1.8 0-3.25 1.45-3.25 3.25h-1.5c0-2.63 2.12-4.75 4.75-4.75v1.5Z"/><path d="M10 16.75c1.79 0 3.25 1.45 3.25 3.25h1.5c0-2.63-2.13-4.75-4.75-4.75v1.5Z"/></g><path fill="#F17171" d="M8 5.25C5.92 5.25 4.25 6.92 4.25 9v3c0 .25.13.5.35.63 .22.13.49.14.72.03l2.66-1.34 2.66 1.33c.23.11.5.1.72-.04 .22-.14.35-.38.35-.64v-3c0-2.08-1.68-3.75-3.75-3.75Z"/><path fill="#A2D471" d="M13.83 12.92c.06.25.27.46.53.53 1.24.33 2.63.01 3.622-.98 .98-.99 1.3-2.38.97-3.63 -.07-.26-.28-.47-.54-.54 -1.25-.34-2.64-.02-3.63.97 -.99.98-1.31 2.37-.98 3.62Z"/></svg>