<svg viewBox="0 0 24 24" xmlns="http://www.w3.org/2000/svg"><g fill-rule="evenodd"><path d="M12 1.25c.41 0 .75.33.75.75v5c0 .41-.34.75-.75.75 -.42 0-.75-.34-.75-.75V2c0-.42.33-.75.75-.75Z"/><path d="M12 16.25c.41 0 .75.33.75.75v5c0 .41-.34.75-.75.75 -.42 0-.75-.34-.75-.75v-5c0-.42.33-.75.75-.75Z"/><path d="M1.25 12c0-.42.33-.75.75-.75h5c.41 0 .75.33.75.75 0 .41-.34.75-.75.75H2c-.42 0-.75-.34-.75-.75Z"/><path d="M16.25 12c0-.42.33-.75.75-.75h5c.41 0 .75.33.75.75 0 .41-.34.75-.75.75h-5c-.42 0-.75-.34-.75-.75Z"/><path d="M12 5.75c-3.46 0-6.25 2.79-6.25 6.25 0 .95.21 1.85.59 2.65 .17.37.01.82-.36.99 -.38.17-.83.01-1-.36 -.48-1.01-.74-2.12-.74-3.3 0-4.29 3.46-7.75 7.75-7.75 4.28 0 7.75 3.46 7.75 7.75 0 4.28-3.47 7.75-7.75 7.75 -1.19 0-2.31-.27-3.31-.74 -.38-.18-.54-.63-.36-1 .17-.38.62-.54.99-.36 .8.38 1.7.59 2.66.59 3.45 0 6.25-2.8 6.25-6.25 0-3.46-2.8-6.25-6.25-6.25Z"/></g></svg>