<svg viewBox="0 0 24 24" xmlns="http://www.w3.org/2000/svg"><g fill-rule="evenodd"><path d="M11.59 1.36c.24-.16.55-.16.8 0l1.84 1.16c.38.24.79.43 1.22.56l4.25 1.34c.34.1.56.44.51.8l-1.29 10.85c-.05.41-.43.7-.84.65 -.42-.05-.71-.43-.66-.84l1.21-10.24 -3.67-1.16c-.56-.18-1.09-.42-1.58-.73l-1.45-.92 -1.45.91c-.5.3-1.02.55-1.58.72L5.23 5.61l1.21 10.23c.1.91.6 1.74 1.36 2.27l4.1 2.88 2.53-1.78c.33-.24.8-.16 1.04.18 .23.33.15.8-.19 1.04l-2.97 2.08c-.26.18-.61.18-.87 0L6.9 19.32c-1.11-.78-1.83-1.99-1.99-3.33L3.62 5.13c-.05-.36.17-.7.51-.81l4.25-1.35c.43-.14.84-.33 1.22-.57l1.84-1.17Z"/><path d="M8.5 11.91c0-.42.33-.75.75-.75h5.5c.41 0 .75.33.75.75v3.82c0 .41-.34.75-.75.75h-5.5c-.42 0-.75-.34-.75-.75V11.9Zm1.5.75v2.32h4v-2.33h-4Z"/><path d="M9.1 10.41c0-1.61 1.29-2.9 2.89-2.9s2.89 1.29 2.89 2.89v1.5c0 .41-.34.75-.75.75h-4.3c-.42 0-.75-.34-.75-.75v-1.51Zm2.89-1.4c-.78 0-1.4.62-1.4 1.39v.75h2.79v-.76c0-.78-.63-1.4-1.4-1.4Z"/></g></svg>