<svg viewBox="0 0 24 24" xmlns="http://www.w3.org/2000/svg"><g fill-rule="evenodd"><path d="M12 2.75c-.62 0-1.23.06-1.81.17 -.41.08-.81-.19-.89-.59 -.09-.41.18-.81.58-.89 .67-.14 1.38-.21 2.09-.21 5.93 0 10.75 4.81 10.75 10.75 0 5.93-4.82 10.75-10.75 10.75 -5.94 0-10.75-4.82-10.75-10.75 0-3.5 1.67-6.61 4.25-8.57 .32-.26.8-.19 1.05.14 .25.32.18.8-.15 1.05C4.14 6.29 2.7 8.96 2.7 11.97c0 5.1 4.14 9.25 9.25 9.25 5.1 0 9.25-4.15 9.25-9.25 0-5.11-4.15-9.25-9.25-9.25Z"/><path d="M12 7.75c-.97 0-1.75.78-1.75 1.75 0 .69.4 1.3 1 1.58 .32.15.49.52.4.87l-1.18 4.29h3.03l-1.18-4.3c-.1-.36.07-.72.4-.88 .59-.29 1-.89 1-1.59 0-.97-.79-1.75-1.75-1.75ZM8.75 9.5c0-1.8 1.45-3.25 3.24-3.25 1.79 0 3.25 1.45 3.25 3.25 0 1.06-.52 2.01-1.31 2.6l1.28 4.69c.06.22.01.46-.13.65 -.15.18-.37.29-.6.29h-5c-.24 0-.46-.11-.6-.3 -.15-.19-.19-.43-.13-.66l1.28-4.7c-.8-.6-1.31-1.54-1.31-2.61Z"/></g></svg>