<svg viewBox="0 0 24 24" xmlns="http://www.w3.org/2000/svg"><g fill-rule="evenodd"><path d="M1.25 4.5c0-.97.78-1.75 1.75-1.75h18c.96 0 1.75.78 1.75 1.75v5c0 .41-.34.75-.75.75 -.42 0-.75-.34-.75-.75v-5c0-.14-.12-.25-.25-.25H3c-.14 0-.25.11-.25.25v11c0 .13.11.25.25.25h5.5c.41 0 .75.33.75.75 0 .41-.34.75-.75.75H3c-.97 0-1.75-.79-1.75-1.75v-11Z"/><path d="M1.25 7.5c0-.42.33-.75.75-.75h14.05c.41 0 .75.33.75.75 0 .41-.34.75-.75.75H1.99c-.42 0-.75-.34-.75-.75Zm17.96 0c0-.42.33-.75.75-.75h2.03c.41 0 .75.33.75.75 0 .41-.34.75-.75.75h-2.04c-.42 0-.75-.34-.75-.75Z"/><path d="M3.75 13.5c0-.42.33-.75.75-.75H9c.41 0 .75.33.75.75 0 .41-.34.75-.75.75H4.5c-.42 0-.75-.34-.75-.75Z"/><path d="M16.5 10.75c-2.63 0-4.75 2.12-4.75 4.75 0 2.62 2.12 4.75 4.75 4.75 2.62 0 4.75-2.13 4.75-4.75 0-2.63-2.13-4.75-4.75-4.75Zm-6.25 4.75c0-3.46 2.79-6.25 6.25-6.25 3.45 0 6.25 2.79 6.25 6.25 0 3.45-2.8 6.25-6.25 6.25 -3.46 0-6.25-2.8-6.25-6.25Z"/><path d="M13.75 15.43c0-.42.33-.75.75-.75h4c.41 0 .75.33.75.75v2.78c0 .41-.34.75-.75.75h-4c-.42 0-.75-.34-.75-.75v-2.79Zm1.5.75v1.28h2.5v-1.29h-2.5Z"/><path d="M14.18 14.34c0-1.28 1.03-2.32 2.31-2.32 1.27 0 2.31 1.03 2.31 2.31v1.09c0 .41-.34.75-.75.75H14.92c-.42 0-.75-.34-.75-.75v-1.1Zm2.31-.82c-.45 0-.82.36-.82.81v.34h1.625v-.35c0-.45-.37-.82-.82-.82Z"/></g></svg>