<svg viewBox="0 0 24 24" xmlns="http://www.w3.org/2000/svg"><g fill-rule="evenodd"><path d="M1.25 4c0-1.52 1.23-2.75 2.75-2.75h3c.41 0 .75.33.75.75 0 .41-.34.75-.75.75H4c-.7 0-1.25.55-1.25 1.25v3c0 .41-.34.75-.75.75 -.42 0-.75-.34-.75-.75V4Zm15-2c0-.42.33-.75.75-.75h3c1.51 0 2.75 1.23 2.75 2.75v3c0 .41-.34.75-.75.75 -.42 0-.75-.34-.75-.75V4c0-.7-.56-1.25-1.25-1.25h-3c-.42 0-.75-.34-.75-.75ZM2 16.25c.41 0 .75.33.75.75v3c0 .69.55 1.25 1.25 1.25h3c.41 0 .75.33.75.75 0 .41-.34.75-.75.75H4c-1.52 0-2.75-1.24-2.75-2.75v-3c0-.42.33-.75.75-.75Zm20 0c.41 0 .75.33.75.75v3c0 1.51-1.24 2.75-2.75 2.75h-3c-.42 0-.75-.34-.75-.75 0-.42.33-.75.75-.75h3c.69 0 1.25-.56 1.25-1.25v-3c0-.42.33-.75.75-.75Z"/><path d="M12 5.75c-3.46 0-6.25 2.79-6.25 6.25 0 3.45 2.79 6.25 6.25 6.25 3.45 0 6.25-2.8 6.25-6.25 0-.98-.23-1.89-.62-2.71 -.18-.38-.03-.83.35-1.01 .37-.18.82-.03 1 .35 .48 1.01.76 2.15.76 3.35 0 4.28-3.47 7.75-7.75 7.75 -4.29 0-7.75-3.47-7.75-7.75 0-4.29 3.46-7.75 7.75-7.75 1.19 0 2.33.27 3.35.76 .37.17.53.62.35 1 -.18.37-.63.53-1.01.35 -.82-.4-1.74-.62-2.71-.62Z"/><path d="M12 8.25c-.7 0-1.25.55-1.25 1.25 0 .69.55 1.25 1.25 1.25 .69 0 1.25-.56 1.25-1.25 0-.7-.56-1.25-1.25-1.25ZM9.25 9.5c0-1.52 1.23-2.75 2.75-2.75 1.51 0 2.75 1.23 2.75 2.75 0 1.51-1.24 2.75-2.75 2.75 -1.52 0-2.75-1.24-2.75-2.75Z"/><path d="M12 15.25c-1.52 0-2.75 1.23-2.75 2.75 0 .41-.34.75-.75.75 -.42 0-.75-.34-.75-.75 0-2.35 1.9-4.25 4.25-4.25 2.34 0 4.25 1.9 4.25 4.25 0 .41-.34.75-.75.75 -.42 0-.75-.34-.75-.75 0-1.52-1.24-2.75-2.75-2.75Z"/></g></svg>