<svg viewBox="0 0 24 24" xmlns="http://www.w3.org/2000/svg"><path fill-rule="evenodd" d="M11.61 1.35c.23-.15.53-.15.77 0l1.85 1.11c.37.22.77.4 1.19.52l4.28 1.28c.35.1.57.44.52.81l-1.28 10.18c-.18 1.36-.93 2.59-2.08 3.36l-4.48 2.98c-.26.16-.59.16-.84 0l-2.5-1.67c-.35-.23-.44-.7-.21-1.04 .22-.35.69-.44 1.04-.21l2.08 1.38 4.06-2.71c.78-.53 1.3-1.37 1.42-2.31l1.19-9.56 -3.68-1.11c-.54-.17-1.06-.39-1.54-.68l-1.48-.89 -1.48.88c-.49.28-1 .51-1.54.67l-3.68 1.1 1.19 9.55c.05.46.21.9.45 1.29 .21.35.1.81-.25 1.03 -.36.21-.82.1-1.04-.25 -.35-.57-.58-1.22-.67-1.89L3.62 4.98c-.05-.37.17-.71.52-.82l4.28-1.29c.41-.13.81-.31 1.19-.53l1.85-1.12Z"/></svg>