<svg viewBox="0 0 24 24" xmlns="http://www.w3.org/2000/svg"><g fill-rule="evenodd"><path d="M1.25 2c0-.42.33-.75.75-.75h4.9c.24 0 .47.12.61.32l1.57 2.29h10.4c.41 0 .75.33.75.75v2.375c0 .41-.34.75-.75.75 -.42 0-.75-.34-.75-.75V5.36H8.68c-.25 0-.48-.13-.62-.33l-1.58-2.3H2.72v1.35c0 .41-.34.75-.75.75 -.42 0-.75-.34-.75-.75V1.97ZM2 7.25c.41 0 .75.33.75.75v11.25H7.5c.41 0 .75.33.75.75 0 .41-.34.75-.75.75H2c-.42 0-.75-.34-.75-.75V8c0-.42.33-.75.75-.75Z"/><path d="M15.35 11.26c.09-.02.19-.02.29 0l2.5.5c.35.07.6.37.6.73v4.03c0 .83-.38 1.62-1.04 2.14l-1.75 1.39c-.28.21-.67.21-.94 0l-1.75-1.4c-.66-.53-1.04-1.32-1.04-2.15v-4.04c0-.36.25-.67.6-.74l2.5-.5Zm-1.61 1.85v3.42c0 .37.17.73.46.97l1.28 1.02 1.28-1.03c.29-.24.46-.6.46-.98v-3.43l-1.75-.35 -1.75.35Z"/><path d="M15.5 9.75c-3.18 0-5.75 2.57-5.75 5.75 0 3.17 2.57 5.75 5.75 5.75 3.17 0 5.75-2.58 5.75-5.75 0-3.18-2.58-5.75-5.75-5.75ZM8.25 15.5c0-4.01 3.24-7.25 7.25-7.25 4 0 7.25 3.24 7.25 7.25 0 4-3.25 7.25-7.25 7.25 -4.01 0-7.25-3.25-7.25-7.25Z"/></g></svg>