<svg viewBox="0 0 24 24" xmlns="http://www.w3.org/2000/svg"><g fill-rule="evenodd"><path d="M3.25 10.5c0-.42.33-.75.75-.75h16c.41 0 .75.33.75.75v1.47c0 .41-.34.75-.75.75 -.42 0-.75-.34-.75-.75v-.73H4.75v9h14.5v-4.39c0-.42.33-.75.75-.75 .41 0 .75.33.75.75v5.13c0 .41-.34.75-.75.75H4c-.42 0-.75-.34-.75-.75v-10.5Z"/><path d="M6.25 6c0-2.63 2.12-4.75 4.75-4.75h2c2.62 0 4.75 2.12 4.75 4.75v.5c0 .41-.34.75-.75.75 -.42 0-.75-.34-.75-.75V6c0-1.8-1.46-3.25-3.25-3.25h-2C9.2 2.75 7.75 4.2 7.75 6v4.5c0 .41-.34.75-.75.75 -.42 0-.75-.34-.75-.75V6Z"/><path d="M6.25 14c0-.42.33-.75.75-.75h10c.41 0 .75.33.75.75 0 .41-.34.75-.75.75H7c-.42 0-.75-.34-.75-.75Z"/><path d="M6.25 17.5c0-.42.33-.75.75-.75h10c.41 0 .75.33.75.75 0 .41-.34.75-.75.75H7c-.42 0-.75-.34-.75-.75Z"/></g></svg>