<svg viewBox="0 0 24 24" xmlns="http://www.w3.org/2000/svg"><g fill-rule="evenodd"><path d="M3.25 2c0-.42.33-.75.75-.75h16c.41 0 .75.33.75.75v16c0 .41-.34.75-.75.75h-.75V22c0 .41-.34.75-.75.75H11c-.42 0-.75-.34-.75-.75v-2.25h-1.5V22c0 .41-.34.75-.75.75H5.5c-.42 0-.75-.34-.75-.75v-3.25H4c-.42 0-.75-.34-.75-.75V8c0-.42.33-.75.75-.75 .41 0 .75.33.75.75v9.25h.75c.41 0 .75.33.75.75v3.25h1V19c0-.42.33-.75.75-.75h3c.41 0 .75.33.75.75v2.25h6V18c0-.42.33-.75.75-.75h.75V2.75H4.75V4c0 .41-.34.75-.75.75 -.42 0-.75-.34-.75-.75V2Z"/><path d="M12.713 3.8c.28-.12.6-.06.81.16l3 3c.29.29.29.76 0 1.06l-2.47 2.46 2.46 2.46c.29.29.29.76 0 1.06l-3 3c-.22.21-.54.27-.82.16 -.29-.12-.47-.39-.47-.7v-4.19L8.5 15.98c-.3.29-.77.29-1.07 0 -.3-.3-.3-.77 0-1.07l4.51-4.52 -4.52-4.42c-.3-.29-.31-.77-.02-1.07 .28-.3.76-.31 1.06-.02l3.72 3.64V4.4c0-.31.18-.58.46-.7Zm1.03 8.5l1.18 1.18 -1.19 1.18v-2.38Zm0-3.63V6.29l1.18 1.18 -1.19 1.18Z"/><path d="M10.25 19c0-.42.33-.75.75-.75h5c.41 0 .75.33.75.75v3c0 .41-.34.75-.75.75h-5c-.42 0-.75-.34-.75-.75v-3Zm1.5.75v1.5h3.5v-1.5h-3.5Z"/></g></svg>