<svg viewBox="0 0 24 24" xmlns="http://www.w3.org/2000/svg"><g fill-rule="evenodd"><path d="M1.25 2c0-.42.33-.75.75-.75h15c.41 0 .75.33.75.75v2.63l4.71 3.77c.17.14.28.35.28.58v9c0 .41-.34.75-.75.75h-20c-.42 0-.75-.34-.75-.75v-9c0-.42.33-.75.75-.75 .41 0 .75.33.75.75v8.25h18.5V9.34l-4.72-3.78c-.18-.15-.29-.36-.29-.59V2.72H2.73v2.25c0 .41-.34.75-.75.75 -.42 0-.75-.34-.75-.75v-3Z"/><path d="M3.25 18c0-.42.33-.75.75-.75h16c.41 0 .75.33.75.75v4c0 .41-.34.75-.75.75H4c-.42 0-.75-.34-.75-.75v-4Zm1.5.75v2.5h14.5v-2.5H4.75Z"/><path d="M1.25 22c0-.42.33-.75.75-.75h20c.41 0 .75.33.75.75 0 .41-.34.75-.75.75H2c-.42 0-.75-.34-.75-.75Z"/><path d="M5.25 8c0-.42.33-.75.75-.75h10c.41 0 .75.33.75.75v6c0 .41-.34.75-.75.75H6c-.42 0-.75-.34-.75-.75V8Zm1.5.75v4.5h8.5v-4.5h-8.5Z"/></g></svg>