<svg viewBox="0 0 24 24" xmlns="http://www.w3.org/2000/svg"><g fill-rule="evenodd"><path d="M1.25 2c0-.42.33-.75.75-.75h7c.41 0 .75.33.75.75 0 .41-.34.75-.75.75H2.75v18.5h18.5V2.75H13c-.42 0-.75-.34-.75-.75 0-.42.33-.75.75-.75h9c.41 0 .75.33.75.75v20c0 .41-.34.75-.75.75H2c-.42 0-.75-.34-.75-.75V2Z"/><path d="M5.5 11.25c-.42 0-.75.33-.75.75 0 .41.33.75.75.75 .41 0 .75-.34.75-.75 0-.42-.34-.75-.75-.75ZM3.25 12c0-1.25 1-2.25 2.25-2.25 1.24 0 2.25 1 2.25 2.25 0 1.24-1.01 2.25-2.25 2.25 -1.25 0-2.25-1.01-2.25-2.25Z"/><path d="M18.5 11.25c-.42 0-.75.33-.75.75 0 .41.33.75.75.75 .41 0 .75-.34.75-.75 0-.42-.34-.75-.75-.75Zm-2.25.75c0-1.25 1-2.25 2.25-2.25 1.24 0 2.25 1 2.25 2.25 0 1.24-1.01 2.25-2.25 2.25 -1.25 0-2.25-1.01-2.25-2.25Z"/><path d="M8.25 11c0-.7.55-1.25 1.25-1.25h5c.69 0 1.25.55 1.25 1.25v2c0 .69-.56 1.25-1.25 1.25h-5c-.7 0-1.25-.56-1.25-1.25v-2Zm1.5.25v1.5h4.5v-1.5h-4.5Z"/></g></svg>