<svg viewBox="0 0 24 24" xmlns="http://www.w3.org/2000/svg"><g fill-rule="evenodd"><path d="M7.37 1.58c.13-.21.37-.34.62-.34h2.5c.41 0 .75.33.75.75v6.5c0 .41-.34.75-.75.75 -.42 0-.75-.34-.75-.75V2.74H8.39L6.73 5.21v1.27c0 .41-.34.75-.75.75 -.42 0-.75-.34-.75-.75v-1.5c0-.15.04-.3.12-.42l2-3Zm5.37.41c0-.42.33-.75.75-.75h2.5c.25 0 .48.12.62.33l2 3c.08.12.12.26.12.41v7.395l.97 3.39c.01.06.02.13.02.2v3c0 .3-.18.57-.46.68l-7 3c-.19.08-.41.08-.6 0l-7.01-3c-.28-.12-.46-.39-.46-.69v-3c0-.07 0-.14.02-.21l.97-3.4v-1.9c0-.42.33-.75.75-.75 .41 0 .75.33.75.75v2c0 .06-.01.13-.03.2l-.98 3.39v2.4l6.25 2.67 6.25-2.68v-2.41l-.98-3.4c-.02-.07-.03-.14-.03-.21V5.12L15.5 2.64h-1.35v5.75c0 .41-.34.75-.75.75 -.42 0-.75-.34-.75-.75v-6.5Z"/><path d="M9.75 7.5c0-1.25 1-2.25 2.25-2.25 1.24 0 2.25 1 2.25 2.25v2c0 1.24-1.01 2.25-2.25 2.25 -1.25 0-2.25-1.01-2.25-2.25v-2ZM12 6.75c-.42 0-.75.33-.75.75v2c0 .41.33.75.75.75 .41 0 .75-.34.75-.75v-2c0-.42-.34-.75-.75-.75Z"/><path d="M11.584 14.37c.25-.17.58-.17.83 0l3 2c.2.13.33.37.33.62v3.5c0 .41-.34.75-.75.75 -.42 0-.75-.34-.75-.75v-3.1l-2.25-1.5 -2.25 1.5v3.09c0 .41-.34.75-.75.75 -.42 0-.75-.34-.75-.75v-3.5c0-.26.12-.49.33-.63l3-2Z"/></g></svg>