<svg viewBox="0 0 24 24" xmlns="http://www.w3.org/2000/svg"><g fill-rule="evenodd"><path d="M1.25 2.5c0-.42.33-.75.75-.75h14.5c1.24 0 2.25 1 2.25 2.25 0 1.24-1.01 2.25-2.25 2.25H12c-.7 0-1.25.55-1.25 1.25v1c0 .41-.34.75-.75.75 -.42 0-.75-.34-.75-.75v-1c0-1.52 1.23-2.75 2.75-2.75h4.5c.41 0 .75-.34.75-.75 0-.42-.34-.75-.75-.75H2c-.42 0-.75-.34-.75-.75Z"/><path d="M3.46 7.96c.14-.15.33-.22.53-.22h8c.41 0 .75.33.75.75 0 .41-.34.75-.75.75H4.3L2.73 10.8v6.37l1.56 1.56h2.68c.19 0 .38.07.53.21l1.78 1.78h5.37l1.78-1.79c.14-.15.33-.22.53-.22h2.68l1.56-1.57v-6.38l-1.57-1.57h-3.69c-.42 0-.75-.34-.75-.75 0-.42.33-.75.75-.75h4c.19 0 .38.07.53.21l2 2c.14.14.21.33.21.53v7c0 .19-.08.38-.22.53l-2 2c-.15.14-.34.21-.54.21h-2.69l-1.79 1.78c-.15.14-.34.21-.54.21h-6c-.2 0-.39-.08-.54-.22l-1.79-1.79H3.88c-.2 0-.39-.08-.54-.22l-2-2c-.15-.15-.22-.34-.22-.54v-7c0-.2.07-.39.21-.54l2-2Z"/><path d="M7.25 17.5c0-.42.33-.75.75-.75h8c.41 0 .75.33.75.75 0 .41-.34.75-.75.75H8c-.42 0-.75-.34-.75-.75Z"/><path d="M3.25 11.5c0-.42.33-.75.75-.75h2c.41 0 .75.33.75.75 0 .41-.34.75-.75.75H4c-.42 0-.75-.34-.75-.75Z"/><path d="M7.75 11.5c0-.42.33-.75.75-.75h2c.41 0 .75.33.75.75 0 .41-.34.75-.75.75h-2c-.42 0-.75-.34-.75-.75Z"/><path d="M12.75 11.5c0-.42.33-.75.75-.75h2c.41 0 .75.33.75.75 0 .41-.34.75-.75.75h-2c-.42 0-.75-.34-.75-.75Z"/><path d="M17.25 11.5c0-.42.33-.75.75-.75h2c.41 0 .75.33.75.75 0 .41-.34.75-.75.75h-2c-.42 0-.75-.34-.75-.75Z"/><path d="M3.25 14.5c0-.42.33-.75.75-.75h2c.41 0 .75.33.75.75 0 .41-.34.75-.75.75H4c-.42 0-.75-.34-.75-.75Z"/><path d="M7.75 14.5c0-.42.33-.75.75-.75h2c.41 0 .75.33.75.75 0 .41-.34.75-.75.75h-2c-.42 0-.75-.34-.75-.75Z"/><path d="M12.75 14.5c0-.42.33-.75.75-.75h2c.41 0 .75.33.75.75 0 .41-.34.75-.75.75h-2c-.42 0-.75-.34-.75-.75Z"/><path d="M17.25 14.5c0-.42.33-.75.75-.75h2c.41 0 .75.33.75.75 0 .41-.34.75-.75.75h-2c-.42 0-.75-.34-.75-.75Z"/></g></svg>