<svg viewBox="0 0 24 24" xmlns="http://www.w3.org/2000/svg"><g fill-rule="evenodd"><path d="M1.25 11c0-.42.33-.75.75-.75h2c.41 0 .75.33.75.75v11.5c0 .41-.34.75-.75.75 -.42 0-.75-.34-.75-.75V11.75H2c-.42 0-.75-.34-.75-.75Z"/><path d="M3.25 13.5c0-.42.33-.75.75-.75h8c.41 0 .75.33.75.75 0 .41-.34.75-.75.75H4.75v5.5h16.5v-5.5H16c-.42 0-.75-.34-.75-.75 0-.42.33-.75.75-.75h6c.41 0 .75.33.75.75v7c0 .41-.34.75-.75.75H4c-.42 0-.75-.34-.75-.75v-7Z"/><path d="M18.5 16.25c-.42 0-.75.33-.75.75 0 .41.33.75.75.75 .41 0 .75-.34.75-.75 0-.42-.34-.75-.75-.75Zm-2.25.75c0-1.25 1-2.25 2.25-2.25 1.24 0 2.25 1 2.25 2.25 0 1.24-1.01 2.25-2.25 2.25 -1.25 0-2.25-1.01-2.25-2.25Z"/><path d="M13 16.25c-.42 0-.75.33-.75.75 0 .41.33.75.75.75 .41 0 .75-.34.75-.75 0-.42-.34-.75-.75-.75Zm-2.25.75c0-1.25 1-2.25 2.25-2.25 1.24 0 2.25 1 2.25 2.25 0 1.24-1.01 2.25-2.25 2.25 -1.25 0-2.25-1.01-2.25-2.25Z"/><path d="M7.5 16.25c-.42 0-.75.33-.75.75 0 .41.33.75.75.75 .41 0 .75-.34.75-.75 0-.42-.34-.75-.75-.75ZM5.25 17c0-1.25 1-2.25 2.25-2.25 1.24 0 2.25 1 2.25 2.25 0 1.24-1.01 2.25-2.25 2.25 -1.25 0-2.25-1.01-2.25-2.25Z"/><path d="M12 8.75c-.42 0-.75.33-.75.75 0 .41.33.75.75.75 .41 0 .75-.34.75-.75 0-.42-.34-.75-.75-.75Zm-2.25.75c0-1.25 1-2.25 2.25-2.25 1.24 0 2.25 1 2.25 2.25 0 1.24-1.01 2.25-2.25 2.25 -1.25 0-2.25-1.01-2.25-2.25Z"/><path d="M12 3.75c-2.35 0-4.25 1.9-4.25 4.25 0 .41-.34.75-.75.75 -.42 0-.75-.34-.75-.75 0-3.18 2.57-5.75 5.75-5.75 3.17 0 5.75 2.57 5.75 5.75 0 .41-.34.75-.75.75 -.42 0-.75-.34-.75-.75 0-2.35-1.91-4.25-4.25-4.25Z"/><path d="M9.26 1.28c.39-.14.81.08.94.47l2 6c.13.39-.09.81-.48.94 -.4.13-.82-.09-.95-.48l-2.01-6c-.14-.4.08-.82.47-.95Z"/></g></svg>