<svg viewBox="0 0 24 24" xmlns="http://www.w3.org/2000/svg"><g fill-rule="evenodd"><path d="M1.25 10.5c0-.42.33-.75.75-.75h2c.41 0 .75.33.75.75V22c0 .41-.34.75-.75.75 -.42 0-.75-.34-.75-.75V11.25H2c-.42 0-.75-.34-.75-.75Z"/><path d="M3.25 13c0-.42.33-.75.75-.75h18c.41 0 .75.33.75.75v2c0 .41-.34.75-.75.75 -.42 0-.75-.34-.75-.75v-1.25H4.75v5.5h16.5V19c0-.42.33-.75.75-.75 .41 0 .75.33.75.75v1c0 .41-.34.75-.75.75H4c-.42 0-.75-.34-.75-.75v-7Z"/><path d="M18.5 15.75c-.42 0-.75.33-.75.75 0 .41.33.75.75.75 .41 0 .75-.34.75-.75 0-.42-.34-.75-.75-.75Zm-2.25.75c0-1.25 1-2.25 2.25-2.25 1.24 0 2.25 1 2.25 2.25 0 1.24-1.01 2.25-2.25 2.25 -1.25 0-2.25-1.01-2.25-2.25Z"/><path d="M13 15.75c-.42 0-.75.33-.75.75 0 .41.33.75.75.75 .41 0 .75-.34.75-.75 0-.42-.34-.75-.75-.75Zm-2.25.75c0-1.25 1-2.25 2.25-2.25 1.24 0 2.25 1 2.25 2.25 0 1.24-1.01 2.25-2.25 2.25 -1.25 0-2.25-1.01-2.25-2.25Z"/><path d="M7.5 15.75c-.42 0-.75.33-.75.75 0 .41.33.75.75.75 .41 0 .75-.34.75-.75 0-.42-.34-.75-.75-.75Zm-2.25.75c0-1.25 1-2.25 2.25-2.25 1.24 0 2.25 1 2.25 2.25 0 1.24-1.01 2.25-2.25 2.25 -1.25 0-2.25-1.01-2.25-2.25Z"/><path d="M13.02 1.25c.3 0 .57.2.68.48l1.52 4.07c.89 2.39-.88 4.94-3.43 4.94 -2.42 0-4.17-2.3-3.53-4.62l.49-1.83c.07-.28.3-.49.58-.54 .28-.06.56.05.74.28l.73.97 1.48-3.34c.12-.28.4-.46.7-.45Zm-.09 2.72l-1.26 2.82c-.11.24-.34.41-.61.44 -.27.02-.53-.09-.69-.3l-.58-.78 -.1.34c-.38 1.37.65 2.72 2.08 2.72 1.5 0 2.54-1.51 2.01-2.92l-.89-2.36Z"/></g></svg>