<svg viewBox="0 0 24 24" xmlns="http://www.w3.org/2000/svg"><g fill-rule="evenodd"><path d="M3.25 5.5c0-.42.33-.75.75-.75h10.5c.41 0 .75.33.75.75 0 .41-.34.75-.75.75H4.75v8.5h14.5v-8.5h-.75c-.42 0-.75-.34-.75-.75 0-.42.33-.75.75-.75H20c.41 0 .75.33.75.75v10c0 .41-.34.75-.75.75H4c-.42 0-.75-.34-.75-.75v-10Z"/><path d="M1.25 15.5c0-.42.33-.75.75-.75h20c.41 0 .75.33.75.75V17c0 1.24-1.01 2.25-2.25 2.25h-17c-1.25 0-2.25-1.01-2.25-2.25v-1.5Zm1.5.75V17c0 .41.33.75.75.75h17c.41 0 .75-.34.75-.75v-.75H2.75Z"/></g></svg>