<svg viewBox="0 0 24 24" xmlns="http://www.w3.org/2000/svg"><g fill-rule="evenodd"><path d="M1.52 2.41c.17-.15.4-.2.62-.16l6.07 1.21c2.49.49 5.05.49 7.55 0l6.07-1.22c.22-.05.44.01.62.15 .17.14.27.35.27.58v12c0 .22-.11.43-.28.58 -.18.14-.41.19-.63.15l-6.08-1.22c-2.5-.5-5.06-.5-7.56 0l-6.08 1.21c-.23.04-.45-.02-.63-.16 -.18-.15-.28-.36-.28-.58v-3c0-.42.33-.75.75-.75 .41 0 .75.33.75.75v2.08l5.18-1.04c2.68-.54 5.45-.54 8.13 0l5.18 1.03V3.84l-5.19 1.03c-2.69.53-5.46.53-8.14 0L2.65 3.83v4.08c0 .41-.34.75-.75.75 -.42 0-.75-.34-.75-.75v-5c0-.23.1-.44.27-.59Z"/><path d="M10 12.75c.41 0 .75.33.75.75v6c0 .41-.34.75-.75.75 -.42 0-.75-.34-.75-.75v-6c0-.42.33-.75.75-.75Zm4 0c.41 0 .75.33.75.75v6c0 .41-.34.75-.75.75 -.42 0-.75-.34-.75-.75v-6c0-.42.33-.75.75-.75Z"/><path d="M11.79 18.27c.13-.04.27-.04.41 0l7 2c.39.11.62.52.51.92 -.12.39-.53.62-.93.51l-6.8-1.95 -6.8 1.94c-.4.11-.82-.12-.93-.52 -.12-.4.11-.82.51-.93l7-2Z"/></g></svg>