<svg viewBox="0 0 24 24" xmlns="http://www.w3.org/2000/svg"><g fill-rule="evenodd"><path d="M4.25 5.5c0-2.35 1.9-4.25 4.25-4.25h7c2.34 0 4.25 1.9 4.25 4.25V6c0 .41-.34.75-.75.75 -.42 0-.75-.34-.75-.75v-.5c0-1.52-1.24-2.75-2.75-2.75h-7c-1.52 0-2.75 1.23-2.75 2.75v7.87l1.77 5.04c.59 1.69 2.2 2.83 4 2.83h.92c1.8 0 3.4-1.14 4-2.84l1.77-5.05V9.72c0-.42.33-.75.75-.75 .41 0 .75.33.75.75v3.75c0 .08-.02.16-.05.24l-1.83 5.16c-.82 2.29-2.99 3.83-5.43 3.83h-.93c-2.44 0-4.62-1.54-5.43-3.84l-1.83-5.17c-.03-.09-.05-.17-.05-.25v-8Z"/><path d="M9.75 7.5c0-1.25 1-2.25 2.25-2.25 1.24 0 2.25 1 2.25 2.25v2c0 1.24-1.01 2.25-2.25 2.25 -1.25 0-2.25-1.01-2.25-2.25v-2ZM12 6.75c-.42 0-.75.33-.75.75v2c0 .41.33.75.75.75 .41 0 .75-.34.75-.75v-2c0-.42-.34-.75-.75-.75Z"/><path d="M12 1.25c.41 0 .75.33.75.75v4c0 .41-.34.75-.75.75 -.42 0-.75-.34-.75-.75V2c0-.42.33-.75.75-.75Zm0 9c.41 0 .75.33.75.75v3c0 .41-.34.75-.75.75 -.42 0-.75-.34-.75-.75v-3c0-.42.33-.75.75-.75Z"/></g></svg>