<svg viewBox="0 0 24 24" xmlns="http://www.w3.org/2000/svg"><g fill-rule="evenodd"><path d="M7.25 8c0-.42.33-.75.75-.75h14c.41 0 .75.33.75.75v14c0 .41-.34.75-.75.75h-6c-.42 0-.75-.34-.75-.75 0-.42.33-.75.75-.75h5.25V8.75H8.75v12.5H12c.41 0 .75.33.75.75 0 .41-.34.75-.75.75H8c-.42 0-.75-.34-.75-.75V8Z"/><path d="M19.03 10.96c.29.29.29.76 0 1.06l-2.05 2.04c-.3.29-.77.29-1.07 0 -.3-.3-.3-.77 0-1.07l2.04-2.05c.29-.3.76-.3 1.06 0Zm-4.96 4.95c.29.29.29.76 0 1.06l-2.05 2.04c-.3.29-.77.29-1.07 0 -.3-.3-.3-.77 0-1.07l2.04-2.05c.29-.3.76-.3 1.06 0Z"/><path d="M10.96 10.96c-.3.29-.3.76 0 1.06L13 14.06c.29.29.76.29 1.06 0 .29-.3.29-.77 0-1.07l-2.05-2.05c-.3-.3-.77-.3-1.07 0Zm4.95 4.95c-.3.29-.3.76 0 1.06l2.04 2.04c.29.29.76.29 1.06 0 .29-.3.29-.77 0-1.07l-2.05-2.05c-.3-.3-.77-.3-1.07 0Z"/><path d="M15 10.75c-2.35 0-4.25 1.9-4.25 4.25 0 2.34 1.9 4.25 4.25 4.25 2.34 0 4.25-1.91 4.25-4.25 0-2.35-1.91-4.25-4.25-4.25ZM9.25 15c0-3.18 2.57-5.75 5.75-5.75 3.17 0 5.75 2.57 5.75 5.75 0 3.17-2.58 5.75-5.75 5.75 -3.18 0-5.75-2.58-5.75-5.75Z"/><path d="M15 13.75c-.7 0-1.25.55-1.25 1.25 0 .69.55 1.25 1.25 1.25 .69 0 1.25-.56 1.25-1.25 0-.7-.56-1.25-1.25-1.25ZM12.25 15c0-1.52 1.23-2.75 2.75-2.75 1.51 0 2.75 1.23 2.75 2.75 0 1.51-1.24 2.75-2.75 2.75 -1.52 0-2.75-1.24-2.75-2.75Z"/><path d="M1.25 10c0-.42.33-.75.75-.75h3c.41 0 .75.33.75.75v3c0 .41-.34.75-.75.75H2c-.42 0-.75-.34-.75-.75v-3Zm1.5.75v1.5h1.5v-1.5h-1.5Z"/><path d="M6.75 2.75c-1.39 0-2.5 1.11-2.5 2.5V10c0 .41-.34.75-.75.75 -.42 0-.75-.34-.75-.75V5.25c0-2.21 1.79-4 4-4 2.2 0 4 1.79 4 4V8c0 .41-.34.75-.75.75 -.42 0-.75-.34-.75-.75V5.25c0-1.39-1.12-2.5-2.5-2.5Z"/></g></svg>