<svg viewBox="0 0 24 24" xmlns="http://www.w3.org/2000/svg"><g fill-rule="evenodd"><path d="M1.25 2c0-.42.33-.75.75-.75h20c.41 0 .75.33.75.75v20c0 .41-.34.75-.75.75h-9c-.42 0-.75-.34-.75-.75 0-.42.33-.75.75-.75h8.25V2.75H2.75v18.5H9c.41 0 .75.33.75.75 0 .41-.34.75-.75.75H2c-.42 0-.75-.34-.75-.75V2Z"/><path d="M12 4.75c-4.01 0-7.25 3.24-7.25 7.25 0 4 3.24 7.25 7.25 7.25 4 0 7.25-3.25 7.25-7.25 0-4.01-3.25-7.25-7.25-7.25ZM3.25 12c0-4.84 3.91-8.75 8.75-8.75 4.83 0 8.75 3.91 8.75 8.75 0 4.83-3.92 8.75-8.75 8.75 -4.84 0-8.75-3.92-8.75-8.75Z"/><path d="M10.75 7.93v2.06c0 .41-.34.75-.75.75H7.93c-.13.39-.19.81-.19 1.25 0 1.29.58 2.46 1.5 3.24v-.75c0-.42.33-.75.75-.75h4c.41 0 .75.33.75.75v.74c.91-.79 1.5-1.95 1.5-3.25 0-.44-.07-.86-.19-1.25h-2.07c-.42 0-.75-.34-.75-.75V7.9c-.4-.13-.82-.19-1.25-.19 -.44 0-.86.06-1.25.18ZM9.69 6.72c.7-.31 1.48-.48 2.3-.48 .81 0 1.59.17 2.3.47 .27.11.44.38.44.68v1.83h1.83c.29 0 .56.17.68.44 .3.7.47 1.48.47 2.3 0 2.359-1.43 4.38-3.45 5.27 -.24.1-.5.07-.72-.06 -.22-.14-.34-.38-.34-.63V15.2h-2.5v1.33c0 .25-.13.48-.34.62 -.22.13-.48.16-.72.05 -2.03-.89-3.45-2.92-3.45-5.28 0-.82.17-1.6.47-2.31 .11-.28.38-.45.68-.45h1.83V7.32c0-.3.17-.57.44-.69Z"/><path d="M9.75 12c0-.42.33-.75.75-.75h3c.41 0 .75.33.75.75 0 .41-.34.75-.75.75h-3c-.42 0-.75-.34-.75-.75Z"/></g></svg>