<svg viewBox="0 0 24 24" xmlns="http://www.w3.org/2000/svg"><g fill-rule="evenodd"><path d="M1.25 7c0-.42.33-.75.75-.75h20c.41 0 .75.33.75.75v1c0 .41-.34.75-.75.75 -.42 0-.75-.34-.75-.75v-.25H2.75v11.5h2.5V17c0-.42.33-.75.75-.75h4c.41 0 .75.33.75.75v2.25h10.5V12c0-.42.33-.75.75-.75 .41 0 .75.33.75.75v8c0 .41-.34.75-.75.75H10c-.42 0-.75-.34-.75-.75v-2.25h-2.5V20c0 .41-.34.75-.75.75H2c-.42 0-.75-.34-.75-.75V7Z"/><path d="M9.25 17c0-.42.33-.75.75-.75h9c.41 0 .75.33.75.75v3c0 .41-.34.75-.75.75h-9c-.42 0-.75-.34-.75-.75v-3Zm1.5.75v1.5h7.5v-1.5h-7.5Z"/><path d="M15.25 10c0-.42.33-.75.75-.75h3c.41 0 .75.33.75.75v4c0 .41-.34.75-.75.75h-3c-.42 0-.75-.34-.75-.75v-4Zm1.5.75v2.5h1.5v-2.5h-1.5Z"/><path d="M4.25 10c0-.42.33-.75.75-.75h8.5c.41 0 .75.33.75.75v4c0 .41-.34.75-.75.75H5c-.42 0-.75-.34-.75-.75v-4Zm1.5.75v2.5h7v-2.5h-7Z"/></g></svg>