<svg viewBox="0 0 24 24" xmlns="http://www.w3.org/2000/svg"><g fill-rule="evenodd"><path d="M1.25 2c0-.42.33-.75.75-.75h20c.41 0 .75.33.75.75v4c0 .41-.34.75-.75.75 -.42 0-.75-.34-.75-.75V2.75H2.75v18.5h18.5V10c0-.42.33-.75.75-.75 .41 0 .75.33.75.75v12c0 .41-.34.75-.75.75H2c-.42 0-.75-.34-.75-.75V2Z"/><path d="M4.25 15.5c0-.42.33-.75.75-.75h14c.41 0 .75.33.75.75v3c0 .41-.34.75-.75.75H5c-.42 0-.75-.34-.75-.75v-3Zm1.5.75v1.5h12.5v-1.5H5.75Z"/><path d="M8.25 5.5c0-.42.33-.75.75-.75h4c.19 0 .38.07.53.21l2 2c.14.14.21.33.21.53v5c0 .41-.34.75-.75.75h-6c-.42 0-.75-.34-.75-.75v-7Zm1.5.75v5.5h4.5V7.81l-1.57-1.57H9.74Z"/></g></svg>