<svg viewBox="0 0 24 24" xmlns="http://www.w3.org/2000/svg"><g fill-rule="evenodd"><path d="M2.25 10c0-.42.33-.75.75-.75h3c.41 0 .75.33.75.75v3c0 .41-.34.75-.75.75H3c-.42 0-.75-.34-.75-.75v-3Zm1.5.75v1.5h1.5v-1.5h-1.5Z"/><path d="M9.25 9c0-1.52 1.23-2.75 2.75-2.75h7c1.51 0 2.75 1.23 2.75 2.75v11c0 1.51-1.24 2.75-2.75 2.75h-2c-.42 0-.75-.34-.75-.75 0-.42.33-.75.75-.75h2c.69 0 1.25-.56 1.25-1.25V9c0-.7-.56-1.25-1.25-1.25h-7c-.7 0-1.25.55-1.25 1.25v11c0 .69.55 1.25 1.25 1.25h1c.41 0 .75.33.75.75 0 .41-.34.75-.75.75h-1c-1.52 0-2.75-1.24-2.75-2.75V9Z"/><path d="M16.25 7c0-.42.33-.75.75-.75h2c1.51 0 2.75 1.23 2.75 2.75v3c0 .25-.14.5-.36.63 -.23.13-.5.14-.73.03l-4-2c-.26-.13-.42-.39-.42-.68v-3Zm1.5.75v1.78l2.5 1.25V8.99c0-.7-.56-1.25-1.25-1.25h-1.25Z"/><path d="M7.75 2.75c-1.39 0-2.5 1.11-2.5 2.5V10c0 .41-.34.75-.75.75 -.42 0-.75-.34-.75-.75V5.25c0-2.21 1.79-4 4-4 2.2 0 4 1.79 4 4V7c0 .41-.34.75-.75.75 -.42 0-.75-.34-.75-.75V5.25c0-1.39-1.12-2.5-2.5-2.5Z"/></g></svg>