<svg viewBox="0 0 24 24" xmlns="http://www.w3.org/2000/svg"><g fill-rule="evenodd"><path d="M4.25 4c0-1.52 1.23-2.75 2.75-2.75h10c1.51 0 2.75 1.23 2.75 2.75v4c0 .41-.34.75-.75.75 -.42 0-.75-.34-.75-.75V4c0-.7-.56-1.25-1.25-1.25H7c-.7 0-1.25.55-1.25 1.25v16c0 .69.55 1.25 1.25 1.25h10c.69 0 1.25-.56 1.25-1.25v-8c0-.42.33-.75.75-.75 .41 0 .75.33.75.75v8c0 1.51-1.24 2.75-2.75 2.75H7c-1.52 0-2.75-1.24-2.75-2.75V4Z"/><path d="M7.25 2c0-.42.33-.75.75-.75h8c.41 0 .75.33.75.75v2c0 .96-.79 1.75-1.75 1.75H9c-.97 0-1.75-.79-1.75-1.75V2Zm1.5.75V4c0 .13.11.25.25.25h6c.13 0 .25-.12.25-.25V2.75h-6.5Z"/><path d="M7.25 8c0-.42.33-.75.75-.75h6c1.51 0 2.75 1.23 2.75 2.75v9c0 .41-.34.75-.75.75h-6c-1.52 0-2.75-1.24-2.75-2.75V8Zm1.5.75V17c0 .69.55 1.25 1.25 1.25h5.25V10c0-.7-.56-1.25-1.25-1.25H8.75Z"/></g></svg>