<svg viewBox="0 0 24 24" xmlns="http://www.w3.org/2000/svg"><g fill-rule="evenodd"><path d="M1.25 2c0-.42.33-.75.75-.75h20c.41 0 .75.33.75.75v20c0 .41-.34.75-.75.75h-9c-.42 0-.75-.34-.75-.75 0-.42.33-.75.75-.75h8.25V2.75H2.75v18.5H9c.41 0 .75.33.75.75 0 .41-.34.75-.75.75H2c-.42 0-.75-.34-.75-.75V2Z"/><path d="M4.25 8c0-.42.33-.75.75-.75h14c.41 0 .75.33.75.75v8c0 .41-.34.75-.75.75H5c-.42 0-.75-.34-.75-.75V8Zm1.5.75v6.5h12.5v-6.5H5.75Z"/><path d="M6.75 11c0-.42.33-.75.75-.75h9c.41 0 .75.33.75.75 0 .41-.34.75-.75.75h-9c-.42 0-.75-.34-.75-.75Z"/></g></svg>