<svg viewBox="0 0 24 24" xmlns="http://www.w3.org/2000/svg"><g fill-rule="evenodd"><path d="M1.25 5.5c0-.42.33-.75.75-.75h14.5c.41 0 .75.33.75.75 0 .41-.34.75-.75.75H2.75v6.5h18.5v-6.5h-.75c-.42 0-.75-.34-.75-.75 0-.42.33-.75.75-.75H22c.41 0 .75.33.75.75v8c0 .41-.34.75-.75.75H2c-.42 0-.75-.34-.75-.75v-8Z"/><path d="M7.25 13.5c0-.42.33-.75.75-.75h8c.41 0 .75.33.75.75v5c0 .41-.34.75-.75.75H8c-.42 0-.75-.34-.75-.75v-5Zm1.5.75v3.5h6.5v-3.5h-6.5Z"/><path d="M8.5 6.25c-1.8 0-3.25 1.45-3.25 3.25 0 1.79 1.45 3.25 3.25 3.25 1.79 0 3.25-1.46 3.25-3.25 0-1.8-1.46-3.25-3.25-3.25ZM3.75 9.5c0-2.63 2.12-4.75 4.75-4.75 2.62 0 4.75 2.12 4.75 4.75 0 2.62-2.13 4.75-4.75 4.75 -2.63 0-4.75-2.13-4.75-4.75Z"/><path d="M19 7.25c.41 0 .75.33.75.75v3c0 .41-.34.75-.75.75 -.42 0-.75-.34-.75-.75V8c0-.42.33-.75.75-.75Z"/></g></svg>