<svg viewBox="0 0 24 24" xmlns="http://www.w3.org/2000/svg"><g fill-rule="evenodd"><path d="M3 6.5c-.28 0-.5.22-.5.5v9c0 .82.67 1.5 1.5 1.5h16c.82 0 1.5-.68 1.5-1.5V7c0-.28-.23-.5-.5-.5h-1.66c-.25 0-.46.17-.5.41l-.73 4.32c-.13.72-.75 1.25-1.48 1.25H7.32c-.74 0-1.36-.54-1.48-1.26l-.73-4.33c-.05-.25-.25-.42-.5-.42H2.95ZM1.5 7c0-.83.67-1.5 1.5-1.5h1.65c.73 0 1.35.53 1.47 1.25l.72 4.32c.04.24.24.41.49.41h9.3c.24 0 .45-.18.49-.42l.72-4.33c.12-.73.74-1.26 1.47-1.26h1.65c.82 0 1.5.67 1.5 1.5v9c0 1.38-1.12 2.5-2.5 2.5h-16c-1.39 0-2.5-1.12-2.5-2.5v-9Z"/><path d="M14.5 15.5h-5v-1h5v1Z"/></g></svg>