<svg viewBox="0 0 24 24" xmlns="http://www.w3.org/2000/svg"><g fill-rule="evenodd"><path d="M5.5 9c0-.83.67-1.5 1.5-1.5h10c.82 0 1.5.67 1.5 1.5v5.8c0 .82-.68 1.5-1.5 1.5H7c-.83 0-1.5-.68-1.5-1.5V9ZM7 8.5c-.28 0-.5.22-.5.5v5.8c0 .27.22.5.5.5h10c.27 0 .5-.23.5-.5V9c0-.28-.23-.5-.5-.5H7Z"/><path d="M11.71 12.61L6 8.71l.56-.83 5.41 3.7 5.41-3.71 .56.82 -5.7 3.89c-.18.11-.4.11-.57 0Z"/><path d="M12 2.5c-5.25 0-9.5 4.25-9.5 9.5 0 5.24 4.25 9.5 9.5 9.5 1.25 0 2.44-.25 3.53-.68l.37.92c-1.21.48-2.53.75-3.91.75 -5.8 0-10.5-4.71-10.5-10.5 0-5.8 4.7-10.5 10.5-10.5 5.79 0 10.5 4.7 10.5 10.5 0 1.49-.32 2.91-.88 4.2l-.92-.41c.5-1.17.79-2.45.79-3.8 0-5.25-4.26-9.5-9.5-9.5Z"/><path d="M17.5 19.5c-.56 0-1 .44-1 1 0 .55.44 1 1 1 .55 0 1-.45 1-1 0-.56-.45-1-1-1Zm-2 1c0-1.11.89-2 2-2 1.1 0 2 .89 2 2 0 1.1-.9 2-2 2 -1.11 0-2-.9-2-2Z"/></g></svg>