<svg viewBox="0 0 24 24" xmlns="http://www.w3.org/2000/svg"><g fill-rule="evenodd"><path d="M4.75 2c0-.28.22-.5.5-.5h13c1.38 0 2.5 1.11 2.5 2.5v16c0 1.38-1.12 2.5-2.5 2.5h-13c-.28 0-.5-.23-.5-.5V2Zm1 .5v19h12.5c.82 0 1.5-.68 1.5-1.5V4c0-.83-.68-1.5-1.5-1.5H5.75Z"/><path d="M5.25 6.5h-1.5v-1h1.5v1Z"/><path d="M5.25 12.5h-1.5v-1h1.5v1Z"/><path d="M5.25 18.5h-1.5v-1h1.5v1Z"/><path d="M13 7.5c-2.49 0-4.5 2.01-4.5 4.5 0 2.48 2.01 4.5 4.5 4.5 2.48 0 4.5-2.02 4.5-4.5 0-2.49-2.02-4.5-4.5-4.5ZM7.5 12c0-3.04 2.46-5.5 5.5-5.5 3.03 0 5.5 2.46 5.5 5.5 0 3.03-2.47 5.5-5.5 5.5 -3.04 0-5.5-2.47-5.5-5.5Z"/><path d="M12.99 9.72c-.65 0-1.17.52-1.17 1.16 0 .64.52 1.16 1.16 1.16 .64 0 1.16-.53 1.16-1.17 0-.65-.53-1.17-1.17-1.17Zm-2.17 1.16c0-1.2.97-2.17 2.16-2.17 1.19 0 2.16.97 2.16 2.16 0 1.19-.97 2.16-2.17 2.16s-2.17-.98-2.17-2.17Z"/><path d="M13 14.44c-1.26 0-2.35.68-2.94 1.69l-.87-.51c.75-1.32 2.17-2.2 3.8-2.2 1.62 0 3.04.88 3.8 2.19l-.87.5c-.59-1.02-1.69-1.7-2.94-1.7Z"/></g></svg>