<svg viewBox="0 0 24 24" xmlns="http://www.w3.org/2000/svg"><g fill-rule="evenodd"><path d="M3 8.5c-.28 0-.5.22-.5.5v11c0 .27.22.5.5.5h18c.27 0 .5-.23.5-.5V9c0-.28-.23-.5-.5-.5h-4v-1h4c.82 0 1.5.67 1.5 1.5v11c0 .82-.68 1.5-1.5 1.5H3c-.83 0-1.5-.68-1.5-1.5V9c0-.83.67-1.5 1.5-1.5h4v1H3Z"/><path d="M6.71 11.99l-4.5-3.08 .56-.83 4.5 3.07 -.57.82Zm15.06-3.08l-4.5 3.07 -.57-.83 4.5-3.08 .56.82Z"/><path d="M6.5 2c0-.28.22-.5.5-.5h10c.27 0 .5.22.5.5v15c0 .27-.23.5-.5.5H7c-.28 0-.5-.23-.5-.5V2Zm1 .5v14h9v-14h-9Z"/><path d="M14 7.5h-4v-1h4v1Z"/><path d="M14 12.5h-4v-1h4v1Z"/></g></svg>