<svg viewBox="0 0 24 24" xmlns="http://www.w3.org/2000/svg"><g fill-rule="evenodd"><path d="M1.5 5c0-.83.67-1.5 1.5-1.5h16c.82 0 1.5.67 1.5 1.5v5h-1V5c0-.28-.23-.5-.5-.5H3c-.28 0-.5.22-.5.5v9.7c0 .27.22.5.5.5h10v1H3c-.83 0-1.5-.68-1.5-1.5V5Z"/><path d="M10.71 10.71L2.15 4.85l.56-.83 8.26 5.65 8.26-5.66 .56.82 -8.55 5.85c-.18.11-.4.11-.57 0Z"/><path d="M19.64 12.64c.19-.2.51-.2.7 0l2 2c.19.19.19.51 0 .7l-5 5c-.06.05-.13.09-.2.12l-3 1c-.18.05-.38.01-.52-.13s-.19-.34-.13-.52l1-3c.02-.08.06-.15.12-.2l5-5Zm-4.21 5.62l-.65 1.93 1.93-.65 4.56-4.57 -1.3-1.3 -4.57 4.56Z"/></g></svg>