<svg viewBox="0 0 24 24" xmlns="http://www.w3.org/2000/svg"><g fill-rule="evenodd"><path d="M3.5 3c0-.83.67-1.5 1.5-1.5h14c.82 0 1.5.67 1.5 1.5v18c0 .82-.68 1.5-1.5 1.5H5c-.83 0-1.5-.68-1.5-1.5V3ZM5 2.5c-.28 0-.5.22-.5.5v18c0 .27.22.5.5.5h14c.27 0 .5-.23.5-.5V3c0-.28-.23-.5-.5-.5H5Z"/><path d="M12 11c-.83 0-1.5.67-1.5 1.5 0 .82.67 1.5 1.5 1.5 .82 0 1.5-.68 1.5-1.5 0-.83-.68-1.5-1.5-1.5Zm-2.5 1.5c0-1.39 1.11-2.5 2.5-2.5 1.38 0 2.5 1.11 2.5 2.5 0 1.38-1.12 2.5-2.5 2.5 -1.39 0-2.5-1.12-2.5-2.5Z"/><path d="M6.5 12c0-3.04 2.46-5.5 5.5-5.5h1.25c2.34 0 4.25 1.9 4.25 4.25V13c0 1.1-.9 2-2 2 -1.11 0-2-.9-2-2v-3h1v3c0 .55.44 1 1 1 .55 0 1-.45 1-1v-2.25c0-1.8-1.46-3.25-3.25-3.25H12c-2.49 0-4.5 2.01-4.5 4.5v.375c0 2.69 2.18 4.875 4.875 4.875h.125v1h-.125c-3.25 0-5.875-2.64-5.875-5.875V12Z"/></g></svg>