<svg viewBox="0 0 24 24" xmlns="http://www.w3.org/2000/svg"><g fill-rule="evenodd"><path d="M1.5 4c0-.83.67-1.5 1.5-1.5h16c.82 0 1.5.67 1.5 1.5v5h-1V4c0-.28-.23-.5-.5-.5H3c-.28 0-.5.22-.5.5v9.7c0 .27.22.5.5.5h6.5v1H3c-.83 0-1.5-.68-1.5-1.5V4Z"/><path d="M10.71 9.71L2.15 3.86l.56-.83 8.26 5.65 8.26-5.66 .56.82 -8.55 5.85c-.18.11-.4.11-.57 0Z"/><path d="M17 11.5c-2.49 0-4.5 2.01-4.5 4.5 0 2.48 2.01 4.5 4.5 4.5 2.48 0 4.5-2.02 4.5-4.5 0-2.49-2.02-4.5-4.5-4.5ZM11.5 16c0-3.04 2.46-5.5 5.5-5.5 3.03 0 5.5 2.46 5.5 5.5 0 3.03-2.47 5.5-5.5 5.5 -3.04 0-5.5-2.47-5.5-5.5Z"/><path d="M16.05 12.65c-.34.83-.55 2.01-.55 3.34s.21 2.51.55 3.34c.16.41.35.72.53.91 .18.19.32.23.41.23 .09 0 .23-.05.41-.24 .18-.2.36-.5.53-.92 .33-.84.55-2.02.55-3.35 0-1.34-.22-2.52-.55-3.35 -.17-.42-.36-.73-.54-.92 -.19-.2-.33-.24-.42-.24 -.1 0-.24.04-.42.23 -.19.19-.37.49-.54.91Zm-.2-1.61c.29-.32.68-.55 1.14-.55 .45 0 .84.23 1.14.54 .29.31.54.74.73 1.22 .39.97.62 2.29.62 3.72 0 1.42-.24 2.74-.63 3.72 -.2.48-.44.91-.74 1.22 -.3.31-.69.54-1.15.54 -.46 0-.85-.24-1.15-.55 -.3-.32-.55-.75-.74-1.23 -.4-.98-.63-2.3-.63-3.73 0-1.43.23-2.75.62-3.73 .19-.49.43-.92.73-1.23Z"/><path d="M11.5 16c0-.28.22-.5.5-.5h10c.27 0 .5.22.5.5 0 .27-.23.5-.5.5H12c-.28 0-.5-.23-.5-.5Z"/></g></svg>