<svg viewBox="0 0 24 24" xmlns="http://www.w3.org/2000/svg"><g fill-rule="evenodd"><path d="M20 9.5H4v-1h16v1Z"/><path d="M14 6.5h-4v-1h4v1Z"/><path d="M5 6c0-2.49 2.01-4.5 4.5-4.5h5C16.98 1.5 19 3.51 19 6v14.5c0 .27-.23.5-.5.5h-13c-.28 0-.5-.23-.5-.5V6Zm4.5-3.5C7.56 2.5 6 4.06 6 6v14h12V6c0-1.94-1.57-3.5-3.5-3.5h-5Z"/><path d="M6 20.5c0-.28.22-.5.5-.5h2c.27 0 .5.22.5.5V22c0 .27-.23.5-.5.5h-2c-.28 0-.5-.23-.5-.5v-1.5Zm1 .5v.5h1V21H7Z"/><path d="M15 20.5c0-.28.22-.5.5-.5h2c.27 0 .5.22.5.5V22c0 .27-.23.5-.5.5h-2c-.28 0-.5-.23-.5-.5v-1.5Zm1 .5v.5h1V21h-1Z"/><path d="M8.5 13c0-.28.22-.5.5-.5h6c.27 0 .5.22.5.5v3c0 .27-.23.5-.5.5H9c-.28 0-.5-.23-.5-.5v-3Zm1 .5v2h5v-2h-5Z"/></g></svg>