<svg viewBox="0 0 24 24" xmlns="http://www.w3.org/2000/svg"><g fill-rule="evenodd"><path d="M1.5 4c0-.83.67-1.5 1.5-1.5h16c.82 0 1.5.67 1.5 1.5v5h-1V4c0-.28-.23-.5-.5-.5H3c-.28 0-.5.22-.5.5v9.7c0 .27.22.5.5.5h6.5v1H3c-.83 0-1.5-.68-1.5-1.5V4Z"/><path d="M10.71 9.71L2.15 3.86l.56-.83 8.26 5.65 8.26-5.66 .56.82 -8.55 5.85c-.18.11-.4.11-.57 0Z"/><path d="M17 11.5c-2.49 0-4.5 2.01-4.5 4.5 0 2.48 2.01 4.5 4.5 4.5 2.48 0 4.5-2.02 4.5-4.5 0-2.49-2.02-4.5-4.5-4.5ZM11.5 16c0-3.04 2.46-5.5 5.5-5.5 3.03 0 5.5 2.46 5.5 5.5 0 3.03-2.47 5.5-5.5 5.5 -3.04 0-5.5-2.47-5.5-5.5Z"/><path d="M16.99 13.72c-.65 0-1.17.52-1.17 1.16 0 .64.52 1.16 1.16 1.16 .64 0 1.16-.53 1.16-1.17 0-.65-.53-1.17-1.17-1.17Zm-2.17 1.16c0-1.2.97-2.17 2.16-2.17 1.19 0 2.16.97 2.16 2.16 0 1.19-.97 2.16-2.17 2.16s-2.17-.98-2.17-2.17Z"/><path d="M16.99 18.44c-1.26 0-2.35.68-2.94 1.69l-.87-.51c.75-1.32 2.17-2.2 3.8-2.2 1.62 0 3.04.88 3.8 2.19l-.87.5c-.59-1.02-1.69-1.7-2.94-1.7Z"/></g></svg>