<svg viewBox="0 0 24 24" xmlns="http://www.w3.org/2000/svg"><g fill-rule="evenodd"><path d="M19.5 4v17c0 .27-.23.5-.5.5H4.5v-15H12v-1H4c-.28 0-.5.22-.5.5v16c0 .27.22.5.5.5h15c.82 0 1.5-.68 1.5-1.5V4h-1Z"/><path d="M20.5 4c0-1.39-1.12-2.5-2.5-2.5H5c-.28 0-.5.22-.5.5v3.5H4v1h14c1.38 0 2.5-1.12 2.5-2.5Zm-15 1.5v-3H18c.82 0 1.5.67 1.5 1.5 0 .82-.68 1.5-1.5 1.5H5.5Z"/><path d="M12 12.5c-.83 0-1.5.67-1.5 1.5 0 .82.67 1.5 1.5 1.5 .82 0 1.5-.68 1.5-1.5 0-.83-.68-1.5-1.5-1.5ZM9.5 14c0-1.39 1.11-2.5 2.5-2.5 1.38 0 2.5 1.11 2.5 2.5 0 1.38-1.12 2.5-2.5 2.5 -1.39 0-2.5-1.12-2.5-2.5Z"/><path d="M6.5 13.5C6.5 10.46 8.96 8 12 8h1.25c2.34 0 4.25 1.9 4.25 4.25v2.25c0 1.1-.9 2-2 2 -1.11 0-2-.9-2-2v-3h1v3c0 .55.44 1 1 1 .55 0 1-.45 1-1v-2.25c0-1.8-1.46-3.25-3.25-3.25H12c-2.49 0-4.5 2.01-4.5 4.5v.375c0 2.69 2.18 4.875 4.875 4.875h.125v1h-.125c-3.25 0-5.875-2.64-5.875-5.875V13.5Z"/></g></svg>