<svg viewBox="0 0 24 24" xmlns="http://www.w3.org/2000/svg"><g fill-rule="evenodd"><path d="M1.5 4c0-.83.67-1.5 1.5-1.5h16c.82 0 1.5.67 1.5 1.5v3.5h-1V4c0-.28-.23-.5-.5-.5H3c-.28 0-.5.22-.5.5v9.7c0 .27.22.5.5.5h6v1H3c-.83 0-1.5-.68-1.5-1.5V4Z"/><path d="M10.71 9.71L2.15 3.86l.56-.83 8.26 5.65 8.26-5.66 .56.82 -8.55 5.85c-.18.11-.4.11-.57 0Z"/><path d="M13.66 14.33c-.65 0-1.17.52-1.17 1.16 0 .64.52 1.16 1.16 1.16 .64 0 1.16-.53 1.16-1.17 0-.65-.53-1.17-1.17-1.17Zm-2.17 1.16c0-1.2.97-2.17 2.16-2.17 1.19 0 2.16.97 2.16 2.16 0 1.19-.97 2.16-2.17 2.16s-2.17-.98-2.17-2.17Z"/><path d="M20.33 11c-.65 0-1.17.52-1.17 1.16 0 .64.52 1.16 1.16 1.16 .64 0 1.16-.53 1.16-1.17 0-.65-.53-1.17-1.17-1.17Zm-2.17 1.16c0-1.2.97-2.17 2.16-2.17 1.19 0 2.16.97 2.16 2.16 0 1.19-.97 2.16-2.17 2.16s-2.17-.97-2.17-2.17Z"/><path d="M20.33 17.66c-.65 0-1.17.52-1.17 1.16 0 .64.52 1.16 1.16 1.16 .64 0 1.16-.53 1.16-1.17 0-.65-.53-1.17-1.17-1.17Zm-2.17 1.16c0-1.2.97-2.17 2.16-2.17 1.19 0 2.16.97 2.16 2.16 0 1.19-.97 2.16-2.17 2.16s-2.17-.98-2.17-2.17Z"/><path d="M18.9 13.16l-3.62 1.94 -.48-.89 3.61-1.95 .47.88Z"/><path d="M18.42 18.718l-3.62-1.95 .47-.89 3.61 1.94 -.48.88Z"/></g></svg>