<svg viewBox="0 0 24 24" xmlns="http://www.w3.org/2000/svg"><g fill-rule="evenodd"><path d="M11.5 13V5.5h1V13h-1Z"/><path d="M11.5 18.5v-2h1v2h-1Z"/><path d="M16.06 1.5c.13-.01.26.05.35.14l5.88 5.8c.09.09.14.21.14.35l.05 8.26c0 .13-.06.26-.15.35l-5.81 5.88c-.1.09-.22.14-.36.14l-8.27.05c-.14 0-.27-.06-.36-.15l-5.89-5.81c-.1-.1-.15-.22-.15-.36l-.06-8.27c-.01-.14.05-.27.14-.36l5.8-5.89c.09-.1.21-.15.35-.15l8.26-.06ZM8.01 2.55L2.49 8.13l.05 7.84 5.58 5.51 7.84-.06 5.51-5.59 -.06-7.85 -5.59-5.52 -7.85.05Z"/></g></svg>