<svg viewBox="0 0 24 24" xmlns="http://www.w3.org/2000/svg"><g fill-rule="evenodd"><path d="M1.5 6c0-.83.67-1.5 1.5-1.5h16c.82 0 1.5.67 1.5 1.5v5h-1V6c0-.28-.23-.5-.5-.5H3c-.28 0-.5.22-.5.5v9.7c0 .27.22.5.5.5h7.5v1H3c-.83 0-1.5-.68-1.5-1.5V6Z"/><path d="M10.71 11.71L2.15 5.85l.56-.83 8.26 5.65 8.26-5.66 .56.82 -8.55 5.85c-.18.11-.4.11-.57 0Z"/><path d="M13.14 16.85c-.2-.2-.2-.52 0-.71l2.5-2.5c.09-.1.22-.15.35-.15h6c.27 0 .5.22.5.5v5c0 .27-.23.5-.5.5h-6c-.14 0-.26-.06-.36-.15l-2.5-2.5Zm3.06 1.64h5.29v-4h-5.3l-2 2 2 2Z"/></g></svg>