<svg viewBox="0 0 24 24" xmlns="http://www.w3.org/2000/svg"><g fill-rule="evenodd"><path d="M1.5 4.5C1.5 3.67 2.17 3 3 3h16c.82 0 1.5.67 1.5 1.5V10h-1V4.5c0-.28-.23-.5-.5-.5H3c-.28 0-.5.22-.5.5v9.7c0 .27.22.5.5.5h8v1H3c-.83 0-1.5-.68-1.5-1.5V4.5Z"/><path d="M10.71 10.21L2.15 4.35l.56-.83 8.26 5.65 8.26-5.66 .56.82 -8.55 5.85c-.18.11-.4.11-.57 0Z"/><path d="M13.62 12.67c.09-.11.23-.18.37-.18h6c.14 0 .28.06.37.17 .09.1.13.25.11.39l-1 7c-.04.24-.25.42-.5.42h-4c-.25 0-.46-.19-.5-.43l-1-7c-.03-.15.02-.29.11-.4Zm.95.82l.85 6h3.13l.85-6h-4.85Z"/><path d="M21.5 13.5h-9v-1h9v1Z"/><path d="M17.5 11v2h-1v-2h1Z"/></g></svg>