<svg viewBox="0 0 24 24" xmlns="http://www.w3.org/2000/svg"><g fill-rule="evenodd"><path d="M1.5 7.5C1.5 6.67 2.17 6 3 6h11c.82 0 1.5.67 1.5 1.5v9c0 .82-.68 1.5-1.5 1.5H3c-.83 0-1.5-.68-1.5-1.5v-9ZM3 7c-.28 0-.5.22-.5.5v9c0 .27.22.5.5.5h11c.27 0 .5-.23.5-.5v-9c0-.28-.23-.5-.5-.5H3Z"/><path d="M21.5 8.82c0-.34-.32-.58-.64-.49l-5.37 1.53v4.24l5.36 1.53c.31.09.63-.15.63-.49V8.79Zm-.92-1.45c.95-.28 1.91.44 1.91 1.44v6.34c0 .99-.96 1.71-1.92 1.44l-5.73-1.64c-.22-.07-.37-.26-.37-.49v-5c0-.23.14-.42.36-.49l5.72-1.64Z"/></g></svg>