<svg viewBox="0 0 24 24" xmlns="http://www.w3.org/2000/svg"><g fill-rule="evenodd"><path d="M1.5 7.5C1.5 6.11 2.61 5 4 5h16c1.38 0 2.5 1.11 2.5 2.5v9c0 1.38-1.12 2.5-2.5 2.5H4c-1.39 0-2.5-1.12-2.5-2.5v-9ZM4 6c-.83 0-1.5.67-1.5 1.5v9c0 .82.67 1.5 1.5 1.5h16c.82 0 1.5-.68 1.5-1.5v-9c0-.83-.68-1.5-1.5-1.5H4Z"/><path d="M7.5 9.5c-1.11 0-2 .89-2 2 0 1.1.89 2 2 2 1.1 0 2-.9 2-2 0-1.11-.9-2-2-2Zm-3 2c0-1.66 1.34-3 3-3 1.65 0 3 1.34 3 3 0 1.65-1.35 3-3 3 -1.66 0-3-1.35-3-3Z"/><path d="M16.5 9.5c-1.11 0-2 .89-2 2 0 1.1.89 2 2 2 1.1 0 2-.9 2-2 0-1.11-.9-2-2-2Zm-3 2c0-1.66 1.34-3 3-3 1.65 0 3 1.34 3 3 0 1.65-1.35 3-3 3 -1.66 0-3-1.35-3-3Z"/><path d="M7 14c0-.28.22-.5.5-.5h9c.27 0 .5.22.5.5 0 .27-.23.5-.5.5h-9c-.28 0-.5-.23-.5-.5Z"/></g></svg>