<svg viewBox="0 0 24 24" xmlns="http://www.w3.org/2000/svg"><g fill-rule="evenodd"><path d="M8.5 11c0-.28.22-.5.5-.5h3c.27 0 .5.22.5.5v4c0 .27-.23.5-.5.5H9c-.28 0-.5-.23-.5-.5v-4Zm1 .5v3h2v-3h-2Z"/><path d="M11.5 9c0-.28.22-.5.5-.5h3c.27 0 .5.22.5.5v6c0 .27-.23.5-.5.5h-3c-.28 0-.5-.23-.5-.5V9Zm1 .5v5h2v-5h-2Z"/><path d="M12 2.5c-5.25 0-9.5 4.25-9.5 9.5 0 5.24 4.25 9.5 9.5 9.5 5.24 0 9.5-4.26 9.5-9.5 0-5.25-4.26-9.5-9.5-9.5ZM1.5 12C1.5 6.2 6.2 1.5 12 1.5c5.79 0 10.5 4.7 10.5 10.5 0 5.79-4.71 10.5-10.5 10.5 -5.8 0-10.5-4.71-10.5-10.5Z"/><path d="M17 15.5H7v-1h10v1Z"/></g></svg>