<svg viewBox="0 0 24 24" xmlns="http://www.w3.org/2000/svg"><g fill-rule="evenodd"><path d="M12 2.5c-5.25 0-9.5 4.25-9.5 9.5 0 5.24 4.25 9.5 9.5 9.5 5.24 0 9.5-4.26 9.5-9.5 0-5.25-4.26-9.5-9.5-9.5ZM1.5 12C1.5 6.2 6.2 1.5 12 1.5c5.79 0 10.5 4.7 10.5 10.5 0 5.79-4.71 10.5-10.5 10.5 -5.8 0-10.5-4.71-10.5-10.5Z"/><path d="M17.06 6.93c-.15-.15-.37-.19-.56-.11L9.9 9.64c-.12.05-.22.14-.27.26L6.8 16.49c-.09.18-.04.4.1.55 .14.14.36.18.55.1l6.59-2.83c.11-.06.21-.15.26-.27l2.82-6.6c.08-.19.03-.41-.11-.56Zm-3.57 6.57l-5.27 2.25 2.25-5.27 5.26-2.26 -2.26 5.26Z"/><path d="M11.5 4V2h1v2h-1Z"/><path d="M11.5 22v-2h1v2h-1Z"/><path d="M4 12.5H2v-1h2v1Z"/><path d="M22 12.5h-2v-1h2v1Z"/></g></svg>