<svg viewBox="0 0 24 24" xmlns="http://www.w3.org/2000/svg"><g fill-rule="evenodd"><path d="M1.5 3c0-.83.67-1.5 1.5-1.5h5v1H3c-.28 0-.5.22-.5.5v5h-1V3ZM21 2.5h-5v-1h5c.82 0 1.5.67 1.5 1.5v5h-1V3c0-.28-.23-.5-.5-.5ZM2.5 16v5c0 .27.22.5.5.5h5v1H3c-.83 0-1.5-.68-1.5-1.5v-5h1Zm19 5v-5h1v5c0 .82-.68 1.5-1.5 1.5h-5v-1h5c.27 0 .5-.23.5-.5Z"/><path d="M18.97 10.86c-3.98-3.54-9.98-3.54-13.96 0l-1.28 1.13L5 13.12c3.97 3.53 9.97 3.53 13.95 0l1.27-1.14 -1.28-1.14ZM4.35 10.11c4.35-3.88 10.92-3.88 15.28 0l1.69 1.5c.1.09.16.23.16.37 0 .14-.07.27-.17.37l-1.7 1.5c-4.36 3.87-10.93 3.87-15.29 0l-1.7-1.51c-.11-.1-.17-.24-.17-.38 0-.15.06-.28.16-.38l1.69-1.51Z"/><path d="M12 8.5c-1.94 0-3.5 1.56-3.5 3.5 0 1.93 1.56 3.5 3.5 3.5 1.93 0 3.5-1.57 3.5-3.5 0-1.94-1.57-3.5-3.5-3.5ZM7.5 12c0-2.49 2.01-4.5 4.5-4.5 2.48 0 4.5 2.01 4.5 4.5 0 2.48-2.02 4.5-4.5 4.5 -2.49 0-4.5-2.02-4.5-4.5Z"/></g></svg>