<svg viewBox="0 0 24 24" xmlns="http://www.w3.org/2000/svg"><g fill-rule="evenodd"><path d="M11.5 17c0-1.39 1.11-2.5 2.5-2.5h3c.27 0 .5.22.5.5v1c0 1.38-1.12 2.5-2.5 2.5h-3c-.28 0-.5-.23-.5-.5v-1Zm2.5-1.5c-.83 0-1.5.67-1.5 1.5v.5H15c.82 0 1.5-.68 1.5-1.5v-.5H14Z"/><path d="M12.5 13v9h-1v-9h1Z"/><path d="M12 7.5c-1.39 0-2.5 1.11-2.5 2.5 0 1.38 1.11 2.5 2.5 2.5 1.38 0 2.5-1.12 2.5-2.5 0-1.39-1.12-2.5-2.5-2.5ZM8.5 10c0-1.94 1.56-3.5 3.5-3.5 1.93 0 3.5 1.56 3.5 3.5 0 1.93-1.57 3.5-3.5 3.5 -1.94 0-3.5-1.57-3.5-3.5Z"/><path d="M4 8V2h1v6H4Z"/><path d="M19 8V2h1v6h-1Z"/><path d="M4.18 1.6c.18-.15.44-.15.62 0l2.5 2 -.63.78 -2.19-1.76 -2.19 1.75 -.63-.79 2.5-2Z"/><path d="M19.18 1.6c.18-.15.44-.15.62 0l2.5 2 -.63.78 -2.19-1.76 -2.19 1.75 -.63-.79 2.5-2Z"/><path d="M15 22.5H9v-1h6v1Z"/></g></svg>