<svg viewBox="0 0 24 24" xmlns="http://www.w3.org/2000/svg"><g fill-rule="evenodd"><path d="M12 7.5c-2.49 0-4.5 2.01-4.5 4.5 0 1.01.33 1.94.9 2.7 .03.04.05.09.07.14l.87 2.63c.2.61.77 1.02 1.42 1.02h2.45c.64 0 1.21-.42 1.423-1.03l.87-2.64c.01-.06.04-.1.07-.15 .56-.76.9-1.69.9-2.71 0-2.49-2.02-4.5-4.5-4.5ZM6.5 12c0-3.04 2.46-5.5 5.5-5.5 3.03 0 5.5 2.46 5.5 5.5 0 1.2-.4 2.32-1.06 3.23l-.86 2.55c-.35 1.02-1.3 1.7-2.38 1.7h-2.46c-1.08 0-2.04-.69-2.38-1.71l-.86-2.56c-.67-.91-1.06-2.03-1.06-3.24Z"/><path d="M17.64 5.64l2-2 .7.7 -2 2 -.71-.71Z"/><path d="M20 11.5h2v1h-2v-1Z"/><path d="M2 11.5h2v1H2v-1Z"/><path d="M4.35 3.64l2 2 -.71.7 -2-2 .7-.71Z"/><path d="M12.5 2v2h-1V2h1Z"/><path d="M9.5 21c0 .82.67 1.5 1.5 1.5h2c.82 0 1.5-.68 1.5-1.5v-2c0-.28-.23-.5-.5-.5h-4c-.28 0-.5.22-.5.5v2Zm1.5.5c-.28 0-.5-.23-.5-.5v-1.5h3V21c0 .27-.23.5-.5.5h-2Z"/></g></svg>