<svg viewBox="0 0 24 24" xmlns="http://www.w3.org/2000/svg"><g fill-rule="evenodd"><path d="M12 6.5c-1.11 0-2 .89-2 2 0 1.1.89 2 2 2 1.1 0 2-.9 2-2 0-1.11-.9-2-2-2Zm-3 2c0-1.66 1.34-3 3-3 1.65 0 3 1.34 3 3 0 1.65-1.35 3-3 3 -1.66 0-3-1.35-3-3Z"/><path d="M19 9.5c-.83 0-1.5.67-1.5 1.5 0 .82.67 1.5 1.5 1.5 .82 0 1.5-.68 1.5-1.5 0-.83-.68-1.5-1.5-1.5ZM16.5 11c0-1.39 1.11-2.5 2.5-2.5 1.38 0 2.5 1.11 2.5 2.5 0 1.38-1.12 2.5-2.5 2.5 -1.39 0-2.5-1.12-2.5-2.5Z"/><path d="M5 9.5c-.83 0-1.5.67-1.5 1.5 0 .82.67 1.5 1.5 1.5 .82 0 1.5-.68 1.5-1.5 0-.83-.68-1.5-1.5-1.5ZM2.5 11c0-1.39 1.11-2.5 2.5-2.5 1.38 0 2.5 1.11 2.5 2.5 0 1.38-1.12 2.5-2.5 2.5 -1.39 0-2.5-1.12-2.5-2.5Z"/><path d="M7.5 14c0-1.94 1.56-3.5 3.5-3.5h2c1.93 0 3.5 1.56 3.5 3.5v3c0 .82-.68 1.5-1.5 1.5H9c-.83 0-1.5-.68-1.5-1.5v-3Zm3.5-2.5c-1.39 0-2.5 1.11-2.5 2.5v3c0 .27.22.5.5.5h6c.27 0 .5-.23.5-.5v-3c0-1.39-1.12-2.5-2.5-2.5h-2Z"/><path d="M15.5 16c0-1.94 1.56-3.5 3.5-3.5 1.93 0 3.5 1.56 3.5 3.5v1c0 .82-.68 1.5-1.5 1.5h-4c-.83 0-1.5-.68-1.5-1.5v-1Zm3.5-2.5c-1.39 0-2.5 1.11-2.5 2.5v1c0 .27.22.5.5.5h4c.27 0 .5-.23.5-.5v-1c0-1.39-1.12-2.5-2.5-2.5Z"/><path d="M1.5 16c0-1.94 1.56-3.5 3.5-3.5 1.93 0 3.5 1.56 3.5 3.5v1c0 .82-.68 1.5-1.5 1.5H3c-.83 0-1.5-.68-1.5-1.5v-1ZM5 13.5c-1.39 0-2.5 1.11-2.5 2.5v1c0 .27.22.5.5.5h4c.27 0 .5-.23.5-.5v-1c0-1.39-1.12-2.5-2.5-2.5Z"/></g></svg>