<svg viewBox="0 0 24 24" xmlns="http://www.w3.org/2000/svg"><g fill-rule="evenodd"><path d="M7.62 11.67c.09-.12.23-.18.37-.18h8c.14 0 .28.06.37.17 .09.11.13.25.11.4l-1.5 10c-.04.24-.25.42-.5.42h-5c-.25 0-.46-.19-.5-.43l-1.5-10c-.03-.15.02-.3.11-.41Zm.95.82l1.35 9h4.13l1.35-9H8.56Z"/><path d="M5.5 8c0-.83.67-1.5 1.5-1.5h10c.82 0 1.5.67 1.5 1.5v3c0 .82-.68 1.5-1.5 1.5H7c-.83 0-1.5-.68-1.5-1.5V8ZM7 7.5c-.28 0-.5.22-.5.5v3c0 .27.22.5.5.5h10c.27 0 .5-.23.5-.5V8c0-.28-.23-.5-.5-.5H7Z"/><path d="M11.27 2.41l-2.56 1.7c-.14.09-.23.24-.23.41v2.46h-1V4.51c0-.51.25-.97.66-1.25l2.55-1.71 .55.83Z"/><path d="M6.74 21.5h10.25v1H6.73v-1Z"/></g></svg>