<svg viewBox="0 0 24 24" xmlns="http://www.w3.org/2000/svg"><g fill-rule="evenodd"><path d="M1.5 3c0-.83.67-1.5 1.5-1.5h18c.82 0 1.5.67 1.5 1.5v1c0 .82-.68 1.5-1.5 1.5H3c-.83 0-1.5-.68-1.5-1.5V3ZM3 2.5c-.28 0-.5.22-.5.5v1c0 .27.22.5.5.5h18c.27 0 .5-.23.5-.5V3c0-.28-.23-.5-.5-.5H3Z"/><path d="M2.5 5c0-.28.22-.5.5-.5h18c.27 0 .5.22.5.5v10c0 .27-.23.5-.5.5H3c-.28 0-.5-.23-.5-.5V5Zm1 .5v9h17v-9h-17Z"/><path d="M1.5 16c0-.83.67-1.5 1.5-1.5h18c.82 0 1.5.67 1.5 1.5v1c0 .82-.68 1.5-1.5 1.5H3c-.83 0-1.5-.68-1.5-1.5v-1Zm1.5-.5c-.28 0-.5.22-.5.5v1c0 .27.22.5.5.5h18c.27 0 .5-.23.5-.5v-1c0-.28-.23-.5-.5-.5H3Z"/><path d="M11.5 22v-4h1v4h-1Z"/><path d="M14 22.5h-4v-1h4v1Z"/><path d="M9.64 7.64c.19-.2.51-.2.7 0l3.64 3.64 3.64-3.65 .7.7 -4 4c-.2.19-.52.19-.71 0L9.96 8.68l-3.65 3.64 -.71-.71 4-4Z"/></g></svg>