<svg viewBox="0 0 24 24" xmlns="http://www.w3.org/2000/svg"><g fill-rule="evenodd"><path d="M1.5 3c0-.83.67-1.5 1.5-1.5h18c.82 0 1.5.67 1.5 1.5v14c0 .82-.68 1.5-1.5 1.5H3c-.83 0-1.5-.68-1.5-1.5V3ZM3 2.5c-.28 0-.5.22-.5.5v14c0 .27.22.5.5.5h18c.27 0 .5-.23.5-.5V3c0-.28-.23-.5-.5-.5H3Z"/><path d="M11.5 22v-4h1v4h-1Z"/><path d="M4.75 21.56l7-4 .49.86 -7.01 4 -.5-.87Z"/><path d="M19.24 21.56l-7-4 -.5.86 7 4 .49-.87Z"/><path d="M9 5.5H5v-1h4v1Z"/><path d="M10 8.5H5v-1h5v1Z"/><path d="M12.5 5c0-.28.22-.5.5-.5h6c.27 0 .5.22.5.5v3c0 .27-.23.5-.5.5h-6c-.28 0-.5-.23-.5-.5V5Zm1 .5v2h5v-2h-5Z"/><path d="M4.5 11c0-.28.22-.5.5-.5h5c.27 0 .5.22.5.5v4c0 .27-.23.5-.5.5H5c-.28 0-.5-.23-.5-.5v-4Zm1 .5v3h4v-3h-4Z"/><path d="M13.5 12v3h-1v-3h1Z"/><path d="M16.5 13v2h-1v-2h1Z"/><path d="M19.5 11v4h-1v-4h1Z"/></g></svg>