<svg viewBox="0 0 24 24" xmlns="http://www.w3.org/2000/svg"><g fill-rule="evenodd"><path d="M12.17 2.59c-.12-.05-.24-.05-.36 0l-7 2.625c-.2.07-.33.25-.33.46v8.43c0 1.31.64 2.54 1.73 3.29l5.76 3.96 5.76-3.97c1.08-.75 1.73-1.98 1.73-3.3V5.64c0-.21-.13-.4-.33-.47l-7-2.625Zm-.71-.94c.33-.13.71-.13 1.05 0l7 2.625c.58.21.97.77.97 1.4v8.43c0 1.64-.82 3.18-2.17 4.12l-6.05 4.15c-.18.11-.4.11-.57 0l-6.05-4.16c-1.36-.94-2.17-2.48-2.17-4.13V5.64c0-.63.38-1.19.97-1.41l6.99-2.625Z"/><path d="M15.85 8.85l-4.5 4.49c-.19.18-.47.19-.67.03l-2.51-2 .62-.79 2.15 1.72 4.18-4.19 .7.7Z"/></g></svg>