<svg viewBox="0 0 24 24" xmlns="http://www.w3.org/2000/svg"><g fill-rule="evenodd"><path d="M4.14 5.35l-3-3 .7-.71 3 3 -.71.7Z"/><path d="M4.14 22.35l-3-3 .7-.71 3 3 -.71.7Z"/><path d="M22.14 5.35l-3-3 .7-.71 3 3 -.71.7Z"/><path d="M22.14 22.35l-3-3 .7-.71 3 3 -.71.7Z"/><path d="M13.14 13.85l-3-3 .7-.71 3 3 -.71.7Z"/><path d="M1.85 5.35l3-3 -.71-.71 -3 3 .7.7Z"/><path d="M1.85 22.35l3-3 -.71-.71 -3 3 .7.7Z"/><path d="M19.85 5.35l3-3 -.71-.71 -3 3 .7.7Z"/><path d="M19.85 22.35l3-3 -.71-.71 -3 3 .7.7Z"/><path d="M10.85 13.85l3-3 -.71-.71 -3 3 .7.7Z"/><path d="M12 2.5c-.56 0-1 .44-1 1 0 .55.44 1 1 1 .55 0 1-.45 1-1 0-.56-.45-1-1-1Zm-2 1c0-1.11.89-2 2-2 1.1 0 2 .89 2 2 0 1.1-.9 2-2 2 -1.11 0-2-.9-2-2Z"/><path d="M12 19.5c-.56 0-1 .44-1 1 0 .55.44 1 1 1 .55 0 1-.45 1-1 0-.56-.45-1-1-1Zm-2 1c0-1.11.89-2 2-2 1.1 0 2 .89 2 2 0 1.1-.9 2-2 2 -1.11 0-2-.9-2-2Z"/><path d="M2.5 12c0 .55.44 1 1 1 .55 0 1-.45 1-1 0-.56-.45-1-1-1 -.56 0-1 .44-1 1Zm1 2c-1.11 0-2-.9-2-2 0-1.11.89-2 2-2 1.1 0 2 .89 2 2 0 1.1-.9 2-2 2Z"/><path d="M19.5 12c0 .55.44 1 1 1 .55 0 1-.45 1-1 0-.56-.45-1-1-1 -.56 0-1 .44-1 1Zm1 2c-1.11 0-2-.9-2-2 0-1.11.89-2 2-2 1.1 0 2 .89 2 2 0 1.1-.9 2-2 2Z"/><path d="M7 22V2h1v20H7Z"/><path d="M16 22V2h1v20h-1Z"/><path d="M22 8.5H2v-1h20v1Z"/><path d="M22 16.5H2v-1h20v1Z"/></g></svg>