<svg viewBox="0 0 24 24" xmlns="http://www.w3.org/2000/svg"><g fill-rule="evenodd"><path d="M1 12c0-1.66 1.34-3 3-3h16c1.65 0 3 1.34 3 3v3c0 .55-.45 1-1 1H2c-.56 0-1-.45-1-1v-3Zm3-1c-.56 0-1 .44-1 1v2h18v-2c0-.56-.45-1-1-1H4Z"/><path d="M1 15c0-.56.44-1 1-1h20c.55 0 1 .44 1 1v4.5c0 .55-.45 1-1 1h-2.5c-.32 0-.62-.15-.8-.4l-1.2-1.6h-11l-1.2 1.6c-.19.25-.49.4-.8.4H2c-.56 0-1-.45-1-1V15Zm2 1v2.5h1l1.2-1.6c.18-.26.48-.4.8-.4h12c.31 0 .61.14.8.4l1.2 1.6h1V16H3Z"/><path d="M2 6c0-1.66 1.34-3 3-3h14c1.65 0 3 1.34 3 3v4c0 .55-.45 1-1 1H3c-.56 0-1-.45-1-1V6Zm3-1c-.56 0-1 .44-1 1v3h16V6c0-.56-.45-1-1-1H5Z"/><path d="M5.5 8c0-1.11.89-2 2-2h2c1.1 0 2 .89 2 2v2c0 .55-.45 1-1 1h-4c-.56 0-1-.45-1-1V8Zm4 0h-2v1h2V8Z"/><path d="M12.5 8c0-1.11.89-2 2-2h2c1.1 0 2 .89 2 2v2c0 .55-.45 1-1 1h-4c-.56 0-1-.45-1-1V8Zm4 0h-2v1h2V8Z"/></g></svg>