<svg viewBox="0 0 24 24" xmlns="http://www.w3.org/2000/svg"><g fill-rule="evenodd"><path d="M12 7.56c2.22-1.6 5.33-1.4 7.33.6 2.22 2.22 2.22 5.82 0 8.04l-6.63 6.62c-.4.39-1.03.39-1.42 0l-6.63-6.63c-2.23-2.23-2.23-5.821 0-8.05 1.99-2 5.11-2.2 7.33-.61Zm5.92 2.01c-1.44-1.44-3.78-1.44-5.22 0 -.4.39-1.03.39-1.42 0 -1.44-1.44-3.78-1.44-5.22 0 -1.44 1.43-1.44 3.77 0 5.21l5.92 5.92 5.92-5.93c1.43-1.44 1.43-3.78 0-5.22Z"/><path d="M10.5 3c-1.66 0-3 1.34-3 3v2h-2V6c0-2.77 2.23-5 5-5h3c2.76 0 5 2.23 5 5v2h-2V6c0-1.66-1.35-3-3-3h-3Z"/></g></svg>