<svg viewBox="0 0 24 24" xmlns="http://www.w3.org/2000/svg"><g fill-rule="evenodd"><path d="M16.53 8.13c-3.21-.86-6.5 1.04-7.35 4.24 -.49 1.8-.1 3.62.91 5.04l-1.63 1.16c-1.34-1.88-1.87-4.32-1.22-6.72 1.14-4.27 5.53-6.81 9.79-5.66 4.26 1.14 6.8 5.53 5.65 9.79 -.91 3.37-3.84 5.66-7.14 5.9l-.15-2c2.47-.19 4.67-1.91 5.35-4.44 .85-3.21-1.05-6.5-4.25-7.35Z"/><path d="M15.881 2.05c.22-.14.5-.17.75-.1l2.89.77c.25.06.47.23.6.46l.7 1.22c.25.44.13 1.01-.29 1.31l-3.2 2.25c-.25.17-.55.22-.84.14 -.29-.08-.53-.28-.65-.55L14.2 4c-.22-.47-.05-1.03.4-1.29L15.82 2Zm.64 1.93l-.08.04 .75 1.62 1.46-1.04 -.05-.08 -2.1-.57Z"/><path d="M6.91 6.2C7.6 6.01 8.3 5.92 9 5.92l-.01 2c-.52-.01-1.05.06-1.57.2 -3.21.85-5.11 4.14-4.25 7.34 .71 2.68 3.15 4.45 5.81 4.44 .5-.01 1.02-.07 1.53-.21 3.2-.86 5.1-4.15 4.24-7.35 -.22-.81-.59-1.53-1.07-2.15l1.57-1.24c.64.82 1.13 1.78 1.42 2.85 1.14 4.26-1.39 8.65-5.66 9.79 -.69.18-1.38.27-2.05.27 -3.55.01-6.79-2.35-7.75-5.94 -1.15-4.27 1.38-8.66 5.65-9.8Z"/><path d="M8.08 2.05c-.23-.14-.51-.17-.76-.1l-2.9.77c-.26.06-.48.23-.61.46L3.1 4.4c-.26.44-.14 1.01.28 1.31l3.19 2.25c.24.17.54.22.83.14 .28-.08.52-.28.64-.55L9.67 4c.21-.47.04-1.03-.41-1.29L8.03 2Zm-.65 1.93l.07.04 -.76 1.62L5.27 4.6l.04-.08 2.09-.57Z"/></g></svg>