<svg viewBox="0 0 24 24" xmlns="http://www.w3.org/2000/svg"><g fill-rule="evenodd"><path d="M2 18c0-.56.44-1 1-1h18c.55 0 1 .44 1 1v2c0 1.65-1.35 3-3 3H5c-1.66 0-3-1.35-3-3v-2Zm2 1v1c0 .55.44 1 1 1h14c.55 0 1-.45 1-1v-1H4Z"/><path d="M2 14c0-1.66 1.34-3 3-3h14c1.65 0 3 1.34 3 3v4c0 .55-.45 1-1 1H3c-.56 0-1-.45-1-1v-4Zm3-1c-.56 0-1 .44-1 1v3h16v-3c0-.56-.45-1-1-1H5Z"/><path d="M2 10c0 1.65 1.34 3 3 3h14c1.65 0 3-1.35 3-3V4c0-1.66-1.35-3-3-3H5C3.34 1 2 2.34 2 4v6Zm3 1c-.56 0-1-.45-1-1V4c0-.56.44-1 1-1h14c.55 0 1 .44 1 1v6c0 .55-.45 1-1 1H5Z"/><path d="M12 10c-2.77 0-5 2.23-5 5H5c0-3.87 3.13-7 7-7 3.86 0 7 3.13 7 7h-2c0-2.77-2.24-5-5-5Z"/><path d="M9.79 4.29c.18-.19.44-.3.7-.3h3c.26 0 .51.1.7.29l1 1c.36.36.39.94.06 1.34l-2.5 3c-.19.22-.48.35-.77.35 -.3 0-.58-.14-.77-.36l-2.51-3c-.34-.4-.31-.99.06-1.35l1-1Zm1.12 1.7l-.07.06 1.14 1.37 1.14-1.38 -.07-.07h-2.18Z"/></g></svg>