<svg viewBox="0 0 24 24" xmlns="http://www.w3.org/2000/svg"><g fill-rule="evenodd"><path d="M10.67 2.03c.65-.14 1.33.07 1.8.54l10.22 10.22c.78.78.78 2.04 0 2.82l-7.08 7.07c-.79.78-2.05.78-2.83 0L2.55 12.45c-.48-.48-.68-1.16-.55-1.81l1.17-5.9c.15-.8.77-1.42 1.56-1.57l5.89-1.18Zm.39 1.96l-5.9 1.17 -1.18 5.89L14.2 21.27l7.07-7.08L11.04 3.96Z"/><path d="M7.86 7.86c-.2.19-.2.51 0 .7 .19.19.51.19.7 0 .19-.2.19-.52 0-.71 -.2-.2-.52-.2-.71 0ZM6.44 9.98c-.98-.98-.98-2.56 0-3.54 .97-.98 2.55-.98 3.53 0 .97.97.97 2.55 0 3.53 -.98.97-2.56.97-3.54 0Z"/><path d="M11.6 11.6c.36-1.11 1.39-1.9 2.61-1.9 1.52 0 2.75 1.23 2.75 2.75v3.51c0 .26-.11.51-.3.7 -.19.18-.45.29-.71.29h-3.52c-1.53 0-2.76-1.24-2.76-2.76 0-1.23.79-2.26 1.89-2.62Zm2.61.1c-.42 0-.76.33-.76.75 0 .55-.45 1-1 1 -.42 0-.76.33-.76.75 0 .41.33.75.75.75h2.51v-2.52c0-.42-.34-.76-.76-.76Z"/></g></svg>