<svg viewBox="0 0 24 24" xmlns="http://www.w3.org/2000/svg"><g fill-rule="evenodd"><path d="M17 11c-3.32 0-6 2.68-6 6 0 3.31 2.68 6 6 6 3.31 0 6-2.69 6-6 0-3.32-2.69-6-6-6Zm2.47 4.61c-.19-1.2-1.23-2.12-2.48-2.12 -1.26 0-2.29.91-2.48 2.11 -.32.16-.53.5-.53.88v2.5c0 .55.44 1 1 1h4c.55 0 1-.45 1-1v-2.5c0-.39-.22-.72-.53-.89Zm-1.48 1.88h-2v.5h2v-.5Z"/><path d="M10 1C6.96 1 4.5 3.46 4.5 6.5 4.5 9.53 6.96 12 10 12c3.03 0 5.5-2.47 5.5-5.5C15.5 3.46 13.03 1 10 1Z"/><path d="M10 12c-3.87 0-7 3.13-7 7H1c0-4.98 4.02-9 9-9v2Z"/></g></svg>