<svg viewBox="0 0 24 24" xmlns="http://www.w3.org/2000/svg"><g fill-rule="evenodd"><path d="M10 1C6.96 1 4.5 3.46 4.5 6.5 4.5 9.53 6.96 12 10 12c3.03 0 5.5-2.47 5.5-5.5C15.5 3.46 13.03 1 10 1Z"/><path d="M10 12c-3.87 0-7 3.13-7 7H1c0-4.98 4.02-9 9-9v2Z"/><path d="M11 17c0-3.32 2.68-6 6-6 3.31 0 6 2.68 6 6 0 3.31-2.69 6-6 6 -3.32 0-6-2.69-6-6Zm5.71-2.75c.78-.79 2.04-.79 2.82 0l.16.16c.78.78.78 2.04 0 2.82l-1.51 1.5c-.42.41-.95.69-1.52.81l-1.4.28c-.33.06-.68-.04-.91-.28 -.24-.24-.35-.58-.28-.91l.28-1.4c.11-.58.4-1.11.81-1.52l1.5-1.51Z"/></g></svg>