<svg viewBox="0 0 24 24" xmlns="http://www.w3.org/2000/svg"><path fill-rule="evenodd" d="M12 1C5.92 1 1 5.92 1 12c0 2.58.89 4.96 2.38 6.83l.08-.35c0-.03 0-.05.01-.09l0-.01c0-.03 0-.06.01-.1 .01-.1.04-.25.1-.41 .2-.54.64-1 1.11-1.38 .49-.4 1.12-.78 1.84-1.12 1.44-.67 3.34-1.18 5.43-1.18 2.08 0 3.98.5 5.43 1.17 .72.33 1.35.71 1.84 1.11 .46.37.91.83 1.11 1.37 .06.16.09.31.1.4 0 .04.01.07.01.09 0 .04.01.05.01.08l.08.34c1.49-1.88 2.38-4.26 2.38-6.84 0-6.08-4.93-11-11-11Zm0 3.5c-2.63 0-4.75 2.12-4.75 4.75C7.25 11.87 9.37 14 12 14c2.62 0 4.75-2.13 4.75-4.75 0-2.63-2.13-4.75-4.75-4.75Z"/></svg>