<svg viewBox="0 0 24 24" xmlns="http://www.w3.org/2000/svg"><g fill-rule="evenodd"><path d="M9.55 16.18c.13-.41.51-.69.94-.69h3c.43 0 .81.27.94.68l1 3c.1.3.05.64-.14.9s-.49.41-.82.41h-5c-.33 0-.63-.16-.82-.42 -.19-.27-.24-.6-.14-.91l1-3Zm1.66 1.31l-.34 1h2.22l-.34-1h-1.56Z"/><path d="M3 18.5h18v2H3v-2Z"/><path d="M1 4.5c0-.56.44-1 1-1h20c.55 0 1 .44 1 1v12c0 .55-.45 1-1 1H2c-.56 0-1-.45-1-1v-12ZM8 7c.55 0 1 .44 1 1v2.5V13H7v-2.5V9H5V7h3Zm6.5 1c0-.56-.45-1-1-1h-3v2h2v.5h-2c-.56 0-1 .44-1 1V13c0 .55.44 1 1 1h3v-2h-2v-.5h2c.55 0 1-.45 1-1V8ZM19 7c.55 0 1 .44 1 1v2.5V13c0 .55-.45 1-1 1h-3c-.56 0-1-.45-1-1v-2.5V8c0-.56.44-1 1-1h3Zm-1 3.5V9h-1v1.5V12h1v-1.5Z"/></g></svg>