<svg viewBox="0 0 24 24" xmlns="http://www.w3.org/2000/svg"><g fill-rule="evenodd"><path d="M1 17.58c0-.56.44-1 1-1h20c.55 0 1 .44 1 1v2.91c0 .55-.45 1-1 1H2c-.56 0-1-.45-1-1v-2.92Zm2 1v.91h18v-.92H3Z"/><path d="M1 3c0-.56.44-1 1-1h20c.55 0 1 .44 1 1v14.58c0 .55-.45 1-1 1H2c-.56 0-1-.45-1-1V2.99Zm4.5 11v1.15h2v-1.16h1v-2h-1V5.42h-2v6.56h-1v2h1Zm5.5 1.15V8.99h-1v-2h1V5.42h2v1.56h1v2h-1v6.15h-2Zm4.5-7.66c0-1.39 1.11-2.5 2.5-2.5 1.38 0 2.5 1.11 2.5 2.5 0 1.38-1.12 2.5-2.5 2.5 -1.39 0-2.5-1.12-2.5-2.5Zm0 6c0-1.39 1.11-2.5 2.5-2.5 1.38 0 2.5 1.11 2.5 2.5 0 1.38-1.12 2.5-2.5 2.5 -1.39 0-2.5-1.12-2.5-2.5Z"/></g></svg>