<svg viewBox="0 0 24 24" xmlns="http://www.w3.org/2000/svg"><path fill-rule="evenodd" d="M6 1C4.34 1 3 2.34 3 4v16c0 1.65 1.34 3 3 3h12c1.65 0 3-1.35 3-3V9h-6c-1.66 0-3-1.35-3-3V1H6Zm8 .55v4.44c0 .55.44 1 1 1h5.3c-.11-.13-.23-.25-.36-.36L14.2 1.71c-.07-.06-.14-.12-.22-.17ZM7 9.49c-.56 0-1 .44-1 1v9c0 .55.44 1 1 1h10c.55 0 1-.45 1-1v-9c0-.56-.45-1-1-1H7Z"/><path d="M11.03 11.65c-.31-.2-.7-.21-1.02-.03 -.32.17-.52.51-.52.87v5c0 .36.19.69.51.87 .31.17.7.16 1.01-.03l4-2.5c.29-.19.47-.51.47-.85 0-.35-.18-.67-.47-.85l-4-2.5Z"/></svg>