<svg viewBox="0 0 24 24" xmlns="http://www.w3.org/2000/svg"><g fill-rule="evenodd"><path d="M15 8c-3.32 0-6 2.68-6 6 0 3.31 2.68 6 6 6 3.31 0 6-2.69 6-6 0-3.32-2.69-6-6-6Zm-8 6c0-4.42 3.58-8 8-8 4.41 0 8 3.58 8 8 0 4.41-3.59 8-8 8 -4.42 0-8-3.59-8-8Z"/><path d="M15 13c-.56 0-1 .44-1 1 0 .55.44 1 1 1 .55 0 1-.45 1-1 0-.56-.45-1-1-1Zm-3 1c0-1.66 1.34-3 3-3 1.65 0 3 1.34 3 3 0 1.65-1.35 3-3 3 -1.66 0-3-1.35-3-3Z"/><path d="M2 2c-.56 0-1 .44-1 1v14c0 .55.44 1 1 1h4.93c-.6-1.21-.94-2.57-.94-4 0-2.83 1.3-5.36 3.34-7H3.98V5h6v1.51c1.43-.96 3.14-1.52 5-1.52 .51 0 1.01.04 1.5.12V2.98c0-.56-.45-1-1-1H1.98Z"/><path d="M17 10.5h-4v-2h4v2Z"/><path d="M17 19.5h-4v-2h4v2Z"/></g></svg>