<svg viewBox="0 0 24 24" xmlns="http://www.w3.org/2000/svg"><g><path d="M23 5c0-.32-.15-.62-.41-.81 -.26-.19-.59-.25-.89-.16l-16.5 5c-.43.12-.71.51-.71.95v5c0 .46.31.86.76.97l16.5 4c.29.07.61 0 .85-.19s.38-.48.38-.79v-14Z"/><g fill-rule="evenodd"><path d="M1.39 8.2c-.26.18-.4.48-.4.79v6.99c0 .31.14.6.39.79 .25.18.57.24.87.16l3.5-1c.42-.13.72-.52.72-.97v-5c0-.45-.3-.84-.73-.97l-3.5-1c-.31-.09-.63-.03-.88.16Zm3.1 2.55v3.49l-1.5.42v-4.35l1.5.42Z"/><path d="M6.5 19v-3.5h2V18H12v-1h2v2c0 .55-.45 1-1 1H7.5c-.56 0-1-.45-1-1Z"/></g></g></svg>