<svg viewBox="0 0 24 24" xmlns="http://www.w3.org/2000/svg"><path fill-rule="evenodd" d="M12 3c-4.98 0-9 4.02-9 9 0 4.97 4.02 9 9 9 4.97 0 9-4.03 9-9 0-4.98-4.03-9-9-9ZM1 12C1 5.92 5.92 1 12 1c6.07 0 11 4.92 11 11 0 6.07-4.93 11-11 11C5.92 23 1 18.07 1 12Zm11-2.81c-1.56 0-2.81 1.25-2.81 2.8 0 1.55 1.25 2.8 2.8 2.8 1.55 0 2.8-1.26 2.8-2.81 0-1.56-1.26-2.81-2.81-2.81Zm-4.81 2.8c0-2.66 2.15-4.81 4.8-4.81s4.8 2.15 4.8 4.8 -2.16 4.8-4.81 4.8c-2.66 0-4.81-2.16-4.81-4.81Z"/><g><path d="M17.33 2.61c-.24-.17-.53-.23-.81-.16 -.28.06-.52.24-.66.49L13 8.17c-.15.26-.17.57-.05.85 .11.27.34.49.63.57l.58.17 .17.58c.08.28.29.52.57.63 .27.11.59.09.85-.05l5.23-2.86c.25-.14.43-.38.49-.66s0-.57-.16-.81l-1.58-2.24c-.07-.1-.15-.18-.25-.25l-2.24-1.58Z"/><path d="M6.66 21.38c.23.16.52.22.8.15 .27-.07.51-.25.65-.5l2.85-5.24c.14-.27.16-.58.04-.86s-.35-.5-.64-.58l-.59-.18 -.18-.59c-.09-.29-.3-.53-.58-.64 -.28-.12-.6-.1-.86.04l-5.24 2.85c-.26.13-.44.37-.5.65 -.07.27-.01.56.15.8l1.57 2.23c.06.09.14.17.24.24l2.23 1.57Z"/></g></svg>