<svg viewBox="0 0 24 24" xmlns="http://www.w3.org/2000/svg"><g fill-rule="evenodd"><path d="M10.67 8.6c.35-.36.91-.41 1.31-.11 1.57 1.17 2.747 3 3.18 5.17 .83 4.17-1.37 8.4-5.3 9.19 -3.93.78-7.6-2.27-8.44-6.44 -.44-2.17-.06-4.32.93-6 .25-.44.79-.61 1.25-.42 1.12.47 2.42.63 3.73.37 1.31-.27 2.44-.91 3.3-1.79Zm-1.69 9.84c-.55.1-1.07-.25-1.18-.79l-1.97.39c.32 1.62 1.9 2.67 3.53 2.35 1.62-.33 2.67-1.91 2.34-3.54l-1.97.39c.1.54-.25 1.06-.79 1.17Zm2.97-4.2l-1.87.88 -.86-1.81 1.86-.89 .85 1.8Zm-7.34 1.47l2.05.09 .09-2 -2.06-.1 -.1 1.99Z"/><path d="M19.58 1.175c.41-.29.97-.22 1.3.15 1.3 1.45 2.1 3.48 2.1 5.69 0 3.83-2.42 7.19-5.81 7.85l-.39-1.97c2.27-.45 4.19-2.82 4.19-5.9 0-1.42-.42-2.71-1.09-3.72 -1.17.61-2.5.96-3.92.96s-2.75-.35-3.91-.97c-.68 1.01-1.09 2.29-1.09 3.71h-2c0-2.22.79-4.24 2.1-5.7 .33-.38.89-.45 1.3-.16 1.01.69 2.24 1.1 3.58 1.1 1.34 0 2.57-.41 3.58-1.11Z"/><path d="M15.99 10c.55 0 1 .44 1 1h2c0-1.66-1.35-3-3-3 -.65 0-1.25.2-1.74.54l1.15 1.63c.16-.12.36-.19.57-.19Z"/><path d="M19.74 5.52l-2-.5 -.49 1.94 2 .5 .48-1.95Z"/><path d="M14.25 5.02l-2 .5 .48 1.94 2-.5 -.49-1.95Z"/></g></svg>