<svg viewBox="0 0 24 24" xmlns="http://www.w3.org/2000/svg"><g fill-rule="evenodd"><path d="M1 3c0-.56.44-1 1-1h3.5c.55 0 1 .44 1 1v18c0 .55-.45 1-1 1H2c-.56 0-1-.45-1-1V3Zm2 1v16h1.5V4H3Z"/><path d="M17.5 3c0-.56.44-1 1-1H22c.55 0 1 .44 1 1v18c0 .55-.45 1-1 1h-3.5c-.56 0-1-.45-1-1V3Zm2 1v16H21V4h-1.5Z"/><path d="M2 5h3.5v2H2V5Z"/><path d="M2 8h3.5v2H2V8Z"/><path d="M2 11h3.5v2H2v-2Z"/><path d="M2 14h3.5v2H2v-2Z"/><path d="M2 17h3.5v2H2v-2Z"/><path d="M18.5 5H22v2h-3.5V5Z"/><path d="M18.5 8H22v2h-3.5V8Z"/><path d="M18.5 11H22v2h-3.5v-2Z"/><path d="M18.5 14H22v2h-3.5v-2Z"/><path d="M18.5 17H22v2h-3.5v-2Z"/><path d="M4.5 3c0-.56.44-1 1-1h13c.55 0 1 .44 1 1v15c0-.21-.07-.41-.19-.58l-3.5-5c-.26-.37-.72-.52-1.14-.38l-2.32.77 -2.57-3.43c-.19-.25-.47-.39-.77-.4 -.31-.02-.6.11-.8.34l-3.5 4c-.16.18-.25.41-.25.65v-11ZM11 7.5C11 6.11 12.11 5 13.5 5 14.88 5 16 6.11 16 7.5c0 1.38-1.12 2.5-2.5 2.5 -1.39 0-2.5-1.12-2.5-2.5Z"/></g></svg>