<svg viewBox="0 0 24 24" xmlns="http://www.w3.org/2000/svg"><g><path d="M17.848 1.47c-.19-.3-.51-.47-.85-.47 -.35 0-.67.17-.85.47l-2.5 4c-.12.18-.17.39-.15.6l1 13c.04.52.47.92.99.92h3c.52 0 .95-.41.99-.93l1-13c.01-.22-.04-.43-.15-.61l-2.5-4Z"/><g fill-rule="evenodd"><path d="M7 23c.34 0 .66-.18.84-.47l2.5-4c.11-.19.16-.4.14-.61l-1.01-13c-.05-.53-.48-.93-1-.93h-3c-.53 0-.96.4-1 .92l-1 13c-.02.21.03.42.14.6l2.5 4c.18.29.5.47.84.47Zm-1.48-5.26l.9-11.75h1.14l.9 11.74 -1.48 2.36 -1.48-2.37Z"/><path d="M20.5 20h-7v-2h7v2Z"/><path d="M10.5 4h-7v2h7V4Z"/><path d="M16 22v-3h2v3h-2Z"/><path d="M6 2v3h2V2H6Z"/></g></g></svg>