<svg viewBox="0 0 24 24" xmlns="http://www.w3.org/2000/svg"><g><path d="M23 4c0-.33-.17-.64-.43-.83 -.27-.19-.62-.24-.92-.12l-13.5 5c-.4.14-.66.51-.66.93v4.99c0 .44.29.83.71.95l13.5 4c.3.08.62.03.88-.16 .25-.19.4-.49.4-.81v-14Z"/><path fill-rule="evenodd" d="M9.5 9c0-.56-.45-1-1-1h-4c-.56 0-1 .44-1 1v5c0 .55.44 1 1 1h4c.55 0 1-.45 1-1V9Zm-2 1v3h-2v-3h2Z"/><path d="M8 13c.45 0 .85.31.97.75l1.04 4.19c.38 1.54-.79 3.05-2.39 3.05 -1.13 0-2.11-.77-2.39-1.86L4 14.23c-.08-.3-.01-.62.18-.86 .18-.25.48-.39.78-.39h3Z"/><path d="M4.5 9c.55 0 1 .44 1 1v3c0 .55-.45 1-1 1H2c-.56 0-1-.45-1-1v-3c0-.56.44-1 1-1h2.5Z"/></g></svg>