<svg viewBox="0 0 24 24" xmlns="http://www.w3.org/2000/svg"><g><path d="M20 4c0-.35-.18-.67-.47-.85 -.3-.19-.66-.21-.97-.06l-10.5 5c-.35.16-.58.51-.58.9v5c0 .41.25.78.64.93l10.5 4c.3.11.65.07.92-.12s.43-.5.43-.83v-14Z"/><path fill-rule="evenodd" d="M9.5 9c0-.56-.45-1-1-1h-4c-.56 0-1 .44-1 1v5c0 .55.44 1 1 1h4c.55 0 1-.45 1-1V9Zm-2 1v3h-2v-3h2Z"/><path d="M8 13c.45 0 .85.31.97.75l1.04 4.19c.38 1.54-.79 3.05-2.39 3.05 -1.13 0-2.11-.77-2.39-1.86L4 14.23c-.08-.3-.01-.62.18-.86 .18-.25.48-.39.78-.39h3Z"/><path d="M4.5 9c.55 0 1 .44 1 1v3c0 .55-.45 1-1 1H2c-.56 0-1-.45-1-1v-3c0-.56.44-1 1-1h2.5Z"/><g fill-rule="evenodd"><path d="M23 11.5c0-1.39-1.12-2.5-2.5-2.5H19c-.56 0-1 .44-1 1v3c0 .55.44 1 1 1h1.5c1.38 0 2.5-1.12 2.5-2.5Zm-2.5-.5c.27 0 .5.22.5.5 0 .27-.23.5-.5.5H20v-1h.5Z"/><path d="M18 19.5v-17h2v17h-2Z"/></g></g></svg>