<svg viewBox="0 0 24 24" xmlns="http://www.w3.org/2000/svg"><g><path d="M5 7c-2.21 0-4 1.79-4 4 0 2.2 1.79 4 4 4 2.2 0 4-1.8 4-4 0-2.21-1.8-4-4-4Z"/><path fill-rule="evenodd" d="M7.45 1.16c.28-.19.64-.22.95-.08l4.49 2 -.82 1.82 -3.1-1.38v7.46h-2v-9c0-.34.17-.66.45-.84Z"/><path d="M10 15c-2.21 0-4 1.79-4 4 0 2.2 1.79 4 4 4 2.2 0 4-1.8 4-4 0-2.21-1.8-4-4-4Z"/><path d="M19 15c-2.21 0-4 1.79-4 4 0 2.2 1.79 4 4 4 2.2 0 4-1.8 4-4 0-2.21-1.8-4-4-4Z"/><path fill-rule="evenodd" d="M12.35 8.73c.22-.2.52-.28.81-.23l9 1.53c.48.08.83.49.83.98v8.46h-2v-7.62l-7-1.2v8.81h-2v-10c0-.3.13-.58.35-.77Z"/></g></svg>