<svg viewBox="0 0 24 24" xmlns="http://www.w3.org/2000/svg"><g><path d="M8 13.5c-2.21 0-4 1.79-4 4 0 .81.24 1.57.66 2.21 .71 1.07 1.94 1.78 3.33 1.78 2.2 0 4-1.8 4-4 0-1.4-.72-2.62-1.79-3.34 -.64-.43-1.4-.67-2.22-.67Z"/><path fill-rule="evenodd" d="M12 4v13.75h-2V4h2Z"/><path d="M11.86 2.68c-.95-.24-1.87.47-1.87 1.45v2.96c0 .68.46 1.28 1.13 1.45l7 1.74c.94.23 1.86-.48 1.86-1.46V5.85c0-.69-.47-1.29-1.14-1.46l-7-1.75Z"/><g fill-rule="evenodd"><path d="M18.26 21.182l-4.95-4.95 1.41-1.42 4.94 4.94 -1.42 1.41Z"/><path d="M19.68 16.23l-4.95 4.94 -1.42-1.42 4.94-4.95 1.41 1.41Z"/></g></g></svg>