<svg viewBox="0 0 24 24" xmlns="http://www.w3.org/2000/svg"><g><path d="M9.46 14.99l-.78.45 .25.25 -4.24 4.23 -.26-.26 -.46.77c-.24-.14-.47-.31-.67-.49 -.82-.74-1.34-1.8-1.34-2.99 0-2.21 1.79-4 4-4 1.18 0 2.25.51 2.98 1.33 .18.2.34.42.48.66Z"/><path fill-rule="evenodd" d="M10 3.5v11.25H8V3.5h2Z"/><path d="M17.5 13c-2.21 0-4 1.79-4 4 0 2.2 1.79 4 4 4 2.2 0 4-1.8 4-4 0-2.21-1.8-4-4-4Z"/><g fill-rule="evenodd"><path d="M21.5 6.5v10.75h-2V6.5h2Z"/><path d="M10 4.18l9.05 1.57 .34-1.98 -9.64-1.68c-.92-.16-1.76.54-1.76 1.47v2.98c0 .72.52 1.35 1.24 1.47l6.58 1.14 .34-1.98 -6.18-1.08V4.12Zm8.13 3.47l2.5.34 -.28 1.98 -2.5-.35 .27-1.99Z"/><path d="M2.29 20.29l18-18L21.7 3.7l-18 18 -1.42-1.42Z"/></g></g></svg>