<svg viewBox="0 0 24 24" xmlns="http://www.w3.org/2000/svg"><path fill-rule="evenodd" d="M2 5.5c-.56 0-1 .44-1 1v3c0 .55.44 1 1 1 .82 0 1.5.67 1.5 1.5 0 .82-.68 1.5-1.5 1.5 -.56 0-1 .44-1 1v3c0 .55.44 1 1 1h14v-3h2v3h4c.55 0 1-.45 1-1v-3c0-.56-.45-1-1-1 -.83 0-1.5-.68-1.5-1.5 0-.83.67-1.5 1.5-1.5 .55 0 1-.45 1-1v-3c0-.56-.45-1-1-1h-4V9h-2V5.5H2Zm14 8V11h2v2.5h-2ZM10.5 8c.32 0 .62.15.81.42l.88 1.24 1.45.45c.3.09.55.33.65.64 .1.3.04.64-.15.9l-.92 1.22 .01 1.52c0 .32-.15.63-.42.82 -.27.19-.61.24-.91.13l-1.45-.49 -1.45.48c-.31.1-.65.05-.91-.14 -.27-.2-.42-.5-.42-.83l.01-1.53 -.92-1.23c-.2-.27-.25-.6-.15-.91 .1-.31.34-.55.65-.65l1.45-.46 .88-1.25c.18-.27.49-.43.81-.43Z"/></svg>