<svg viewBox="0 0 24 24" xmlns="http://www.w3.org/2000/svg"><g><path d="M5.26 13.03l.28.97 .42-.12 .29 1.09h11.47l.29-1.1 .42.11 .28-.98c.19.05.39.11.57.17 .98.32 1.85.74 2.49 1.25 .63.5 1.18 1.21 1.18 2.12 0 .89-.54 1.6-1.16 2.1 -.64.5-1.49.92-2.45 1.24 -1.94.65-4.56 1.05-7.4 1.05 -2.85 0-5.46-.4-7.4-1.05 -.97-.33-1.82-.75-2.45-1.25C1.46 18.12.93 17.42.93 16.52c0-.92.55-1.63 1.18-2.13 .64-.52 1.51-.93 2.49-1.26 .18-.07.37-.13.57-.18Z"/><path fill-rule="evenodd" d="M8.34 5.44c-.29-.09-.59.09-.64.39l-1.53 9.15H17.8l-1.53-9.16c-.05-.3-.35-.49-.64-.4l-3.37 1.01c-.19.05-.39.05-.58 0L8.31 5.41Zm-2.61.06c.24-1.49 1.74-2.42 3.18-1.99l3.08.92 3.08-.93c1.44-.44 2.93.49 3.18 1.98l1.62 9.73c.15.91-.56 1.74-1.48 1.74H5.57c-.93 0-1.64-.84-1.48-1.75l1.62-9.74Z"/><path d="M12.83 6.95c-.19-.29-.51-.46-.84-.46 -.34 0-.66.17-.84.45l-.64.98 -1.18.05c-.34.01-.65.2-.82.49 -.17.29-.18.65-.03.95l.53 1.04 -.54 1.04c-.16.3-.15.66.02.95 .16.29.47.48.81.49l1.17.05 .63.98c.18.28.5.45.83.45 .33 0 .65-.18.83-.46l.63-.99 1.17-.06c.33-.02.64-.21.81-.5 .16-.3.17-.66.02-.96l-.54-1.05 .53-1.05c.15-.31.14-.67-.03-.96 -.17-.3-.48-.49-.82-.5l-1.18-.06 -.64-.99Z"/></g></svg>