<svg viewBox="0 0 24 24" xmlns="http://www.w3.org/2000/svg"><g fill-rule="evenodd"><path d="M6.36 9.6c.13-.23.37-.36.63-.36h10c.41 0 .75.33.75.75 0 .41-.34.75-.75.75H8.2l2.24 4.49c.54 1.08.64 2.33.3 3.48l-.76 2.51h3.984l-.76-2.52c-.35-1.16-.24-2.41.3-3.49l.79-1.59c.18-.38.63-.53 1-.34 .37.18.52.63.33 1l-.8 1.58c-.38.74-.45 1.59-.21 2.38l1.04 3.48c.06.22.02.47-.12.66 -.15.19-.37.3-.61.3h-6c-.24 0-.47-.12-.61-.31 -.15-.2-.19-.44-.12-.67l1.04-3.49c.23-.8.16-1.65-.21-2.39l-2.8-5.59c-.12-.24-.11-.51.03-.73Z"/><path d="M9.56 17c0-.42.33-.75.74-.75h3.18c.41 0 .75.33.75.75 0 .41-.34.75-.75.75h-3.19c-.42 0-.75-.34-.75-.75Z"/><path d="M17.65 14.62c.2.35.08.81-.28 1.02l-3.5 2c-.36.2-.82.08-1.03-.28 -.21-.36-.09-.82.27-1.03l3.5-2c.35-.21.81-.09 1.02.27Z"/><path d="M6.34 14.62c-.21.35-.09.81.27 1.02l3.5 2c.35.2.81.08 1.02-.28 .2-.36.08-.82-.28-1.03l-3.5-2c-.36-.21-.82-.09-1.03.27Z"/><path d="M17.65 19.37c.2-.36.08-.82-.28-1.03l-3.5-2c-.36-.21-.82-.09-1.03.27 -.21.35-.09.81.27 1.02l3.5 2c.35.2.81.08 1.02-.28Z"/><path d="M6.34 19.37c-.21-.36-.09-.82.27-1.03l3.5-2c.35-.21.81-.09 1.02.27 .2.35.08.81-.28 1.02l-3.5 2c-.36.2-.82.08-1.03-.28Z"/><path d="M12 5.75c.41 0 .75.33.75.75V10c0 .41-.34.75-.75.75 -.42 0-.75-.34-.75-.75V6.5c0-.42.33-.75.75-.75Z"/><path d="M9.25 2c0-.42.33-.75.75-.75h4c.41 0 .75.33.75.75v2.5c0 1.51-1.24 2.75-2.75 2.75 -1.52 0-2.75-1.24-2.75-2.75V2Zm1.5.75V4.5c0 .69.55 1.25 1.25 1.25 .69 0 1.25-.56 1.25-1.25V2.75h-2.5Z"/><path d="M6.59 6.53c.33-.24.8-.16 1.04.18l2 2.86c.23.33.15.8-.19 1.04 -.34.23-.81.15-1.05-.19L6.38 7.553c-.24-.34-.16-.81.18-1.05Z"/><path d="M17.43 6.53c-.34-.24-.81-.16-1.05.18l-2.01 2.86c-.24.33-.16.8.18 1.04 .33.23.8.15 1.04-.19l2-2.867c.23-.34.15-.81-.19-1.05Z"/><path d="M2.19 5.04c-.24-.34-.16-.81.18-1.05l3.27-2.3c.33-.24.8-.16 1.04.18l1.43 2.04c.87 1.24.56 2.95-.68 3.83 -1.25.87-2.96.56-3.83-.68L2.16 5.01Zm1.65-.25l1 1.43c.39.56 1.17.7 1.74.3 .56-.4.7-1.18.3-1.75L5.87 3.33 3.82 4.76Z"/><path d="M21.84 5.04c.23-.34.15-.81-.19-1.05l-3.28-2.3c-.34-.24-.81-.16-1.05.18l-1.44 2.04c-.88 1.24-.57 2.95.67 3.83 1.24.87 2.95.56 3.83-.68l1.43-2.05Zm-1.66-.25l-1.01 1.43c-.4.56-1.18.7-1.75.3 -.57-.4-.71-1.18-.31-1.75l1-1.44 2.04 1.43Z"/></g></svg>