<svg viewBox="0 0 24 24" xmlns="http://www.w3.org/2000/svg"><path fill-rule="evenodd" d="M12.74 2.96c2.63-1.29 5.91-.84 8.11 1.35 1.57 1.57 2.25 3.7 2.03 5.75 -.05.41-.42.71-.83.66 -.42-.05-.72-.42-.67-.83 .17-1.62-.37-3.3-1.61-4.54 -1.64-1.64-4.04-2.05-6.05-1.23l-.4 2.39 1.65 4.95c.14.43.14.9 0 1.33l-1.66 4.95 .27 1.63 6.17-6.18c.29-.3.76-.3 1.06 0 .29.29.29.76 0 1.06l-7.21 7.2c-.2.19-.5.26-.76.18 -.27-.09-.47-.32-.52-.6l-.55-3.26c-.03-.13-.02-.25.02-.37l1.71-5.14c.04-.13.04-.27 0-.39l-1.72-5.14c-.04-.12-.05-.24-.03-.37l.49-2.98c.03-.24.19-.45.41-.56ZM3.31 4.31c1.97-1.98 4.81-2.54 7.28-1.7 .34.11.55.47.49.83l-.53 3.16c-.02.09-.01.19.02.29l1.67 5.02c.05.15.05.32 0 .47l-1.68 5.02c-.04.09-.04.19-.03.29l.38 2.3c.05.32-.11.64-.4.79 -.29.14-.65.09-.88-.14l-6.37-6.37C.49 11.5.49 7.02 3.26 4.26Zm6.19-.45c-1.8-.39-3.74.11-5.14 1.5 -2.18 2.17-2.18 5.7 0 7.88l4.71 4.71c-.06-.34-.03-.69.08-1.02l1.59-4.79 -1.6-4.79c-.11-.33-.14-.68-.08-1.02l.41-2.51Z"/></svg>