<svg viewBox="0 0 24 24" xmlns="http://www.w3.org/2000/svg"><g fill-rule="evenodd"><path d="M9 5.75c-.14 0-.25.11-.25.25v2c0 .41-.34.75-.75.75 -.42 0-.75-.34-.75-.75V6c0-.97.78-1.75 1.75-1.75h5c.41 0 .75.33.75.75 0 .41-.34.75-.75.75H9Z"/><path d="M3.25 10c0-1.52 1.23-2.75 2.75-2.75h9.5c1.51 0 2.75 1.23 2.75 2.75v6c0 1.51-1.24 2.75-2.75 2.75H13c-.42 0-.75-.34-.75-.75 0-.42.33-.75.75-.75h2.5c.69 0 1.25-.56 1.25-1.25v-6c0-.7-.56-1.25-1.25-1.25H6c-.7 0-1.25.55-1.25 1.25v1c0 .41-.34.75-.75.75 -.42 0-.75-.34-.75-.75v-1ZM4 14.25c.41 0 .75.33.75.75v1c0 .69.55 1.25 1.25 1.25h3c.41 0 .75.33.75.75 0 .41-.34.75-.75.75H6c-1.52 0-2.75-1.24-2.75-2.75v-1c0-.42.33-.75.75-.75Z"/><path d="M1.25 12c0-.97.78-1.75 1.75-1.75h4c.96 0 1.75.78 1.75 1.75v2c0 .96-.79 1.75-1.75 1.75H3c-.97 0-1.75-.79-1.75-1.75v-2ZM3 11.75c-.14 0-.25.11-.25.25v2c0 .13.11.25.25.25h4c.13 0 .25-.12.25-.25v-2c0-.14-.12-.25-.25-.25H3Z"/><path d="M22.46 8.41c.17.14.28.35.28.58v8c0 .22-.11.44-.29.58 -.18.14-.41.19-.64.14l-4.5-1c-.35-.08-.59-.39-.59-.74v-6c0-.36.24-.66.58-.74l4.5-1c.22-.05.45 0 .63.14Zm-4.22 2.18v4.79l3 .66V9.9l-3 .66Z"/></g></svg>