<svg viewBox="0 0 24 24" xmlns="http://www.w3.org/2000/svg"><g fill-rule="evenodd"><path d="M3.06 22.93c.14.14.33.21.53.21h.4c.41 0 .75-.34.75-.75 0-.42-.34-.75-.75-.75H3.9l-.9-.9 2.98-3.59 2.98 3.58 -.9.89h-.09c-.42 0-.75.33-.75.75 0 .41.33.75.75.75h.4c.19 0 .38-.08.53-.22l1.59-1.6c.27-.28.29-.72.04-1.02l-4.01-4.8c-.15-.18-.36-.27-.58-.27 -.23 0-.44.09-.58.26l-4 4.8c-.25.29-.23.73.04 1.01l1.6 1.6Z"/><path d="M14.06 22.93c.14.14.33.21.53.21h4.8c.19 0 .38-.08.53-.22l1.6-1.6c.27-.28.29-.72.04-1.02l-4-4.8c-.15-.18-.36-.27-.58-.27 -.23 0-.44.09-.58.26l-4 4.8c-.25.29-.23.73.04 1.01l1.6 1.6Zm.84-1.29l-.9-.9 2.98-3.59 2.98 3.58 -.9.89h-4.18Z"/><path d="M6 1.25c.41 0 .75.33.75.75v5.5c0 .41-.34.75-.75.75 -.42 0-.75-.34-.75-.75V2c0-.42.33-.75.75-.75Zm0 10.37c.41 0 .75.33.75.75v4.12c0 .41-.34.75-.75.75 -.42 0-.75-.34-.75-.75V12.36c0-.42.33-.75.75-.75Z"/><path d="M17 1.25c.41 0 .75.33.75.75v5.5c0 .41-.34.75-.75.75 -.42 0-.75-.34-.75-.75V2c0-.42.33-.75.75-.75Zm0 10.37c.41 0 .75.33.75.75v4.12c0 .41-.34.75-.75.75 -.42 0-.75-.34-.75-.75V12.36c0-.42.33-.75.75-.75Z"/><path d="M5.46 6.64c.29-.3.76-.3 1.06 0l2.82 2.82c.29.29.29.76 0 1.06l-2.83 2.82c-.3.29-.77.29-1.07 0l-2.83-2.83c-.3-.3-.3-.77 0-1.07l2.82-2.83ZM4.22 9.99l1.76 1.76 1.76-1.77 -1.77-1.77L4.2 9.97Z"/><path d="M16.46 6.64c.29-.3.76-.3 1.06 0l2.82 2.82c.29.29.29.76 0 1.06l-2.83 2.82c-.3.29-.77.29-1.07 0l-2.83-2.83c-.3-.3-.3-.77 0-1.07l2.82-2.83Zm-1.24 3.35l1.76 1.76 1.76-1.77 -1.77-1.77 -1.77 1.76Z"/></g></svg>