<svg viewBox="0 0 24 24" xmlns="http://www.w3.org/2000/svg"><g fill-rule="evenodd"><path d="M7.75 5c0-2.08 1.67-3.75 3.75-3.75h1c2.07 0 3.75 1.67 3.75 3.75v3.5c0 2.07-1.68 3.75-3.75 3.75h-1c-2.08 0-3.75-1.68-3.75-3.75V5Zm3.75-2.25c-1.25 0-2.25 1-2.25 2.25v3.5c0 1.24 1 2.25 2.25 2.25h1c1.24 0 2.25-1.01 2.25-2.25V5c0-1.25-1.01-2.25-2.25-2.25h-1Z"/><path d="M10.5 1.5c.41 0 .75.33.75.75V3.5c0 1.24 1 2.25 2.25 2.25h2c.41 0 .75.33.75.75 0 .41-.34.75-.75.75h-2c-2.08 0-3.75-1.68-3.75-3.75V2.25c0-.42.33-.75.75-.75Z"/><path d="M3.25 18c0-2.63 2.12-4.75 4.75-4.75h8c2.62 0 4.75 2.12 4.75 4.75v3c0 .96-.79 1.75-1.75 1.75h-1c-.42 0-.75-.34-.75-.75 0-.42.33-.75.75-.75h1c.13 0 .25-.12.25-.25v-3c0-1.8-1.46-3.25-3.25-3.25H8c-1.8 0-3.25 1.45-3.25 3.25v3c0 .13.11.25.25.25h9c.41 0 .75.33.75.75 0 .41-.34.75-.75.75H5c-.97 0-1.75-.79-1.75-1.75v-3Z"/><path d="M6.41 14.03c.25-.33.73-.88 1.05-.62l4.53 3.62 4.53-3.63c.32-.26.79.29 1.05.61 .25.32.2.29-.12.55l-5 4c-.28.21-.67.21-.94 0l-5-4c-.33-.26-.38-.24-.12-.56Z"/><path d="M12 17.25c.41 0 .75.33.75.75v4c0 .41-.34.75-.75.75 -.42 0-.75-.34-.75-.75v-4c0-.42.33-.75.75-.75Z"/></g></svg>