<svg viewBox="0 0 24 24" xmlns="http://www.w3.org/2000/svg"><defs><mask id="a"><path fill="#FFF" d="M0 0h24v24H0Z"/></mask></defs><g mask="url(#a)"><g fill-rule="evenodd"><path d="M12.61 1.92c1.54-.79 3.48-.38 4.57 1.04 1.23 1.61.93 3.92-.68 5.15l-4.65 3.56c-.33.25-.8.19-1.06-.14l-.41-.53c-.26-.33-.2-.8.13-1.06 .3-.24.73-.2.99.07l4.05-3.12c.95-.74 1.13-2.11.4-3.06 -.74-.96-2.11-1.14-3.06-.41 -.33.25-.8.19-1.06-.14 -.74-.96-2.11-1.14-3.06-.41 -.96.73-1.14 2.1-.41 3.05l1.18 1.54c.25.32.19.79-.14 1.05 -.33.25-.8.19-1.06-.14L7.15 6.82c-1.24-1.62-.94-3.93.67-5.16 1.42-1.1 3.39-.99 4.68.17Z"/><path d="M4.46 11.65c.8-.97 2.19-1.3 3.37-.73 1.38.67 1.96 2.35 1.28 3.74l-1.8 3.68c-.19.37-.64.52-1.01.34l-3.69-1.8c-1.39-.68-1.97-2.36-1.29-3.75 .57-1.19 1.87-1.78 3.1-1.51Zm2.72.62c-.65-.32-1.43-.05-1.74.59 -.19.37-.64.52-1.01.34 -.65-.32-1.43-.05-1.74.59 -.32.64-.05 1.42.59 1.73l3.01 1.46 1.46-3.02c.31-.65.04-1.43-.6-1.74Z"/><path d="M19.75 10.57c1.08-.21 2.21.32 2.71 1.36 .6 1.24.09 2.74-1.16 3.35l-3.16 1.54c-.18.08-.39.09-.58.03 -.19-.07-.35-.21-.43-.39l-1.55-3.16c-.61-1.25-.1-2.75 1.15-3.36 1.03-.51 2.25-.24 2.98.59Zm.02 1.55c.5-.25 1.1-.04 1.34.46s.03 1.1-.47 1.34l-2.49 1.21 -1.22-2.49c-.25-.5-.04-1.11.46-1.35 .5-.25 1.1-.04 1.34.46 .18.37.63.52 1 .34Z"/><path d="M14.25 16.57c1.08-.21 2.21.32 2.71 1.36 .6 1.24.09 2.74-1.16 3.35l-3.16 1.54c-.18.08-.39.09-.58.03 -.19-.07-.35-.21-.43-.39l-1.55-3.16c-.61-1.25-.1-2.75 1.15-3.36 1.03-.51 2.25-.24 2.98.59Zm.02 1.55c.5-.25 1.1-.04 1.34.46s.03 1.1-.47 1.34l-2.49 1.21 -1.22-2.49c-.25-.5-.04-1.11.46-1.35 .5-.25 1.1-.04 1.34.46 .18.37.63.52 1 .34Z"/></g></g></svg>