<svg viewBox="0 0 24 24" xmlns="http://www.w3.org/2000/svg"><g fill-rule="evenodd"><path d="M3.16 6.05c-.17-.15-.42-.04-.42.18v3.32l3.12 1.79c.07.04.13.09.19.15l4.85 5.6c.61.71 1.51 1.12 2.45 1.12h.61c.41 0 .75.33.75.75 0 .41-.34.75-.75.75h-.62c-1.38 0-2.69-.6-3.59-1.64l-4.78-5.51 -3.4-1.96c-.24-.14-.38-.39-.38-.65V6.19c0-1.52 1.79-2.32 2.92-1.31l8.17 7.36 5.02 1c1.67.33 3.03 1.53 3.57 3.15l.76 2.29c.07.22.03.48-.11.67 -.15.19-.37.31-.61.31h-3c-.42 0-.75-.34-.75-.75 0-.42.33-.75.75-.75h1.95l-.44-1.32c-.37-1.11-1.31-1.94-2.45-2.16l-5.23-1.05c-.14-.03-.26-.09-.36-.18l-8.34-7.5Z"/><path d="M1.58 9.37c.23-.16.53-.17.78-.03l3.5 1.99c.26.15.41.45.37.75l-1 7c-.06.36-.37.64-.75.64h-1.5c-.39 0-.71-.29-.75-.67l-1-9c-.04-.29.09-.56.33-.71Zm1.32 2l.76 6.86h.17l.83-5.86 -1.78-1.02Z"/></g></svg>