<svg viewBox="0 0 24 24" xmlns="http://www.w3.org/2000/svg"><g fill-rule="evenodd"><path d="M3.75 4c0-.42.33-.76.75-.75l15 .04c.41 0 .74.33.74.75v1.94c0 .41.33.75.75.75 .41 0 .75-.34.75-.75V4.03c0-1.24-1.01-2.25-2.25-2.25l-15-.05c-1.25-.01-2.26 1-2.26 2.24v11.55c0 1.24 1 2.25 2.25 2.25h3.68l3.28 3.28c.29.29.76.29 1.06 0l3.28-3.29h3.68c1.24 0 2.25-1.01 2.25-2.25V9.95c0-.42-.34-.75-.75-.75 -.42 0-.75.33-.75.75v5.55c0 .41-.34.75-.75.75h-4c-.2 0-.39.07-.54.21l-2.97 2.96 -2.97-2.97c-.15-.15-.34-.22-.54-.22h-4c-.42 0-.75-.34-.75-.75V3.92Z"/><path d="M12.12 5.4c-1.47-1.01-3.48-.86-4.78.44 -1.47 1.46-1.47 3.83 0 5.3l4.24 4.24c.14.14.33.21.53.21 .19 0 .38-.08.53-.22l4.24-4.25c1.46-1.47 1.46-3.84 0-5.31 -1.3-1.3-3.32-1.45-4.773-.45Zm-.54 1.5c-.88-.88-2.31-.88-3.19 0 -.88.87-.88 2.3 0 3.18l3.71 3.71 3.71-3.72c.87-.88.87-2.31 0-3.19 -.88-.88-2.31-.88-3.19 0 -.3.29-.77.29-1.07 0Z"/></g></svg>