<svg viewBox="0 0 24 24" xmlns="http://www.w3.org/2000/svg"><g fill-rule="evenodd"><path d="M1.25 7c0-.97.78-1.75 1.75-1.75h18c.96 0 1.75.78 1.75 1.75v11c0 .96-.79 1.75-1.75 1.75H8c-.42 0-.75-.34-.75-.75 0-.42.33-.75.75-.75h13c.13 0 .25-.12.25-.25V7c0-.14-.12-.25-.25-.25H3c-.14 0-.25.11-.25.25v11c0 .13.11.25.25.25h1c.41 0 .75.33.75.75 0 .41-.34.75-.75.75H3c-.97 0-1.75-.79-1.75-1.75V7Z"/><path d="M1.88 5.91c.23-.34.7-.43 1.04-.19l6.5 4.55c.33.23.42.7.18 1.04 -.24.33-.71.42-1.05.18l-6.5-4.55c-.34-.24-.43-.71-.19-1.05Zm20.22 0c.23.33.15.8-.19 1.04l-6.5 4.54c-.34.23-.81.15-1.05-.19 -.24-.34-.16-.81.18-1.05l6.5-4.56c.33-.24.8-.16 1.04.18Z"/><path d="M12 9.57c-.96-.55-2.2-.42-3.02.4 -.98.97-.98 2.56 0 3.54l2.48 2.48c.14.14.33.21.53.21 .19 0 .38-.08.53-.22L15 13.49c.97-.98.97-2.57 0-3.55 -.82-.82-2.06-.96-3.02-.41Zm-.54 1.46c-.4-.4-1.04-.4-1.43 0 -.4.39-.4 1.03 0 1.42l1.955 1.95 1.955-1.96c.39-.4.39-1.04 0-1.43 -.4-.4-1.04-.4-1.43 0 -.3.29-.77.29-1.07 0Z"/></g></svg>