<svg viewBox="0 0 24 24" xmlns="http://www.w3.org/2000/svg"><g fill-rule="evenodd"><path d="M10.72 2.28c.57-.12 1.16.06 1.58.47l1.74 1.74c.29.29.29.76 0 1.06 -.3.29-.77.29-1.07 0L11.22 3.8c-.06-.06-.15-.09-.23-.07L5.09 4.9c-.1.01-.18.09-.2.19l-1.18 5.89c-.02.08 0 .16.06.22l10.22 10.22c.09.09.25.09.35 0l7.07-7.08c.09-.1.09-.26 0-.36l-5.03-5.03c-.3-.3-.3-.77 0-1.07 .29-.3.76-.3 1.06 0l5.02 5.02c.68.68.68 1.79 0 2.47l-7.08 7.07c-.69.68-1.8.68-2.48 0L2.67 12.21c-.42-.42-.6-1.01-.48-1.59l1.17-5.9c.13-.7.68-1.24 1.37-1.38l5.89-1.18Z"/><path d="M7.68 7.68c-.3.29-.3.76 0 1.06 .29.29.76.29 1.06 0 .29-.3.29-.77 0-1.07 -.3-.3-.77-.3-1.07 0ZM6.61 9.8c-.88-.88-.88-2.31 0-3.19 .87-.88 2.3-.88 3.18 0 .87.87.87 2.3 0 3.18 -.88.87-2.31.87-3.19 0Z"/><path d="M11.8 11.8c-1.07.29-1.85 1.26-1.85 2.41 0 1.38 1.12 2.5 2.5 2.5h3.51c.19 0 .38-.08.53-.22 .14-.15.21-.34.21-.54v-3.52c0-1.39-1.13-2.51-2.51-2.51 -1.16 0-2.13.78-2.42 1.84Zm.66 1.41c-.56 0-1.01.45-1.01 1s.45 1 1 1h2.76v-2.77c0-.56-.46-1.01-1.01-1.01 -.56 0-1.01.45-1.01 1 0 .41-.34.75-.75.75Z"/></g></svg>