<svg viewBox="0 0 24 24" xmlns="http://www.w3.org/2000/svg"><g fill-rule="evenodd"><path d="M9.61 5.25c-.1 0-.19.05-.23.13l-.99 1.96c-.04.07-.04.16 0 .23l1.51 2.65h4.12l1.51-2.66c.04-.08.04-.17 0-.24l-.99-1.97c-.05-.09-.13-.14-.23-.14h-.39c-.08 0-.16.03-.2.1l-.4.53c-.7.93-2.1.93-2.8 0l-.4-.54c-.05-.07-.13-.1-.2-.1h-.39Zm-1.57-.54c.29-.6.9-.97 1.56-.97h.38c.55 0 1.06.25 1.4.7l.4.53c.1.13.3.13.4 0l.4-.54c.33-.45.84-.7 1.4-.7h.38c.66 0 1.26.37 1.56.96l.98 1.96c.26.52.24 1.14-.05 1.65l-1.74 3.03c-.14.23-.39.37-.66.37h-5c-.27 0-.52-.15-.66-.38L7.05 8.28c-.3-.51-.31-1.13-.05-1.66l.98-1.97Z"/><path d="M9.06 10.53c.14-.19.35-.29.58-.29h4.91c.23 0 .45.11.59.29l3.62 4.83c.61.82.95 1.82.95 2.85v1.76c0 1.51-1.24 2.75-2.75 2.75h-10c-1.52 0-2.75-1.24-2.75-2.75v-1.72c0-1.07.35-2.11 1.02-2.95l.14-.18c.25-.33.72-.39 1.05-.13 .32.25.38.72.12 1.05l-.15.17c-.46.57-.7 1.28-.7 2.01v1.71c0 .69.55 1.25 1.25 1.25h10c.69 0 1.25-.56 1.25-1.25v-1.77c0-.71-.23-1.39-.66-1.96l-3.41-4.54H9.94l-.96 1.21c-.26.32-.73.38-1.06.12 -.33-.26-.39-.73-.13-1.06l1.18-1.5Z"/><path d="M14.24 15.23c.33-.25.8-.19 1.05.14 .61.82.95 1.82.95 2.85v1.76c0 1.51-1.24 2.75-2.75 2.75 -.42 0-.75-.34-.75-.75 0-.42.33-.75.75-.75 .69 0 1.25-.56 1.25-1.25v-1.77c0-.71-.23-1.39-.66-1.96 -.25-.34-.19-.81.14-1.06Z"/><path d="M9.75 15.23c-.34-.25-.81-.19-1.06.14 -.62.82-.96 1.82-.96 2.85v1.76c0 1.51 1.23 2.75 2.75 2.75 .41 0 .75-.34.75-.75 0-.42-.34-.75-.75-.75 -.7 0-1.25-.56-1.25-1.25v-1.77c0-.71.22-1.39.65-1.96 .24-.34.18-.81-.15-1.06Z"/><path d="M14 1.25c.41 0 .75.33.75.75v2.5c0 .41-.34.75-.75.75 -.42 0-.75-.34-.75-.75V2c0-.42.33-.75.75-.75Z"/><path d="M10 1.25c.41 0 .75.33.75.75v2.5c0 .41-.34.75-.75.75 -.42 0-.75-.34-.75-.75V2c0-.42.33-.75.75-.75Z"/></g></svg>