<svg viewBox="0 0 24 24" xmlns="http://www.w3.org/2000/svg"><g fill-rule="evenodd"><path d="M1.5 2c0-.28.22-.5.5-.5h20c.27 0 .5.22.5.5v20c0 .27-.23.5-.5.5H2c-.28 0-.5-.23-.5-.5V2Zm1 .5v19h19v-19h-19Z"/><path d="M1.5 2c0-.28.22-.5.5-.5h20c.27 0 .5.22.5.5v5c0 .27-.23.5-.5.5H2c-.28 0-.5-.23-.5-.5V2Zm1 .5v4h19v-4h-19Z"/><path d="M6.5 5h-2V4h2v1Z"/><path d="M10.5 5h-2V4h2v1Z"/><path d="M14.5 5h-2V4h2v1Z"/><path d="M11.735 9.076c.16-.11.36-.11.53 0l4 2.5c.14.09.23.25.23.42v5c0 .17-.09.33-.24.42l-4 2.5c-.17.1-.37.1-.53 0l-4-2.5c-.15-.1-.24-.26-.24-.43v-5c0-.18.08-.34.23-.43l4-2.5Zm-3.24 3.2v4.44l3.5 2.18 3.5-2.19v-4.45l-3.5-2.19 -3.5 2.18Z"/><path d="M11.73 9.076c.16-.11.36-.11.53 0l4 2.5 -.27.42 .26.42 -4 2.5c-.17.1-.37.1-.53 0l-4.01-2.5 .26-.43 -.27-.43 4-2.5Zm-2.8 2.92l3.05 1.91 3.05-1.92 -3.06-1.92 -3.06 1.91Z"/></g></svg>