<svg viewBox="0 0 24 24" xmlns="http://www.w3.org/2000/svg"><g fill-rule="evenodd"><path d="M1.5 2c0-.28.22-.5.5-.5h20c.27 0 .5.22.5.5v20c0 .27-.23.5-.5.5H2c-.28 0-.5-.23-.5-.5V2Zm1 .5v19h19v-19h-19Z"/><path d="M1.5 2c0-.28.22-.5.5-.5h20c.27 0 .5.22.5.5v5c0 .27-.23.5-.5.5H2c-.28 0-.5-.23-.5-.5V2Zm1 .5v4h19v-4h-19Z"/><path d="M6.5 5h-2V4h2v1Z"/><path d="M10.5 5h-2V4h2v1Z"/><path d="M14.5 5h-2V4h2v1Z"/><path d="M4.64 14.14l3.5-3.5 .7.7 -3.15 3.14 3.14 3.14 -.71.7 -3.5-3.5c-.2-.2-.2-.52 0-.71Z"/><path d="M19.35 14.14l-3.5-3.5 -.71.7 3.14 3.14 -3.15 3.14 .7.7 3.5-3.5c.19-.2.19-.52 0-.71Z"/><path d="M10.02 19.35l3-10 .95.28 -3 10 -.96-.29Z"/></g></svg>