<svg viewBox="0 0 24 24" xmlns="http://www.w3.org/2000/svg"><g fill-rule="evenodd"><path d="M1.5 2c0-.28.22-.5.5-.5h20c.27 0 .5.22.5.5v20c0 .27-.23.5-.5.5H2c-.28 0-.5-.23-.5-.5V2Zm1 .5v19h19v-19h-19Z"/><path d="M1.5 2c0-.28.22-.5.5-.5h20c.27 0 .5.22.5.5v5c0 .27-.23.5-.5.5H2c-.28 0-.5-.23-.5-.5V2Zm1 .5v4h19v-4h-19Z"/><path d="M6.5 5h-2V4h2v1Z"/><path d="M10.5 5h-2V4h2v1Z"/><path d="M14.5 5h-2V4h2v1Z"/><path d="M11 10c-1.94 0-3.5 1.56-3.5 3.5 0 1.93 1.56 3.5 3.5 3.5 1.93 0 3.5-1.57 3.5-3.5 0-1.94-1.57-3.5-3.5-3.5Zm-4.5 3.5C6.5 11.01 8.51 9 11 9c2.48 0 4.5 2.01 4.5 4.5 0 2.48-2.02 4.5-4.5 4.5 -2.49 0-4.5-2.02-4.5-4.5Z"/><path d="M14.35 16.14l3 3 -.71.7 -3-3 .7-.71Z"/></g></svg>