<svg viewBox="0 0 24 24" xmlns="http://www.w3.org/2000/svg"><g fill-rule="evenodd"><path d="M11 6c-.83 0-1.5.67-1.5 1.5 0 .82.67 1.5 1.5 1.5 .82 0 1.5-.68 1.5-1.5 0-.83-.68-1.5-1.5-1.5ZM8.5 7.5C8.5 6.11 9.61 5 11 5c1.38 0 2.5 1.11 2.5 2.5 0 1.38-1.12 2.5-2.5 2.5 -1.39 0-2.5-1.12-2.5-2.5Z"/><path d="M13.64 10.85l-1.5-1.51 .7-.71 1.5 1.49 -.71.7Z"/><path d="M1.5 15.5C1.5 14.11 2.61 13 4 13h16c1.38 0 2.5 1.11 2.5 2.5v1c0 1.38-1.12 2.5-2.5 2.5H4c-1.39 0-2.5-1.12-2.5-2.5v-1ZM4 14c-.83 0-1.5.67-1.5 1.5v1c0 .82.67 1.5 1.5 1.5h16c.82 0 1.5-.68 1.5-1.5v-1c0-.83-.68-1.5-1.5-1.5H4Z"/></g></svg>