<svg viewBox="0 0 24 24" xmlns="http://www.w3.org/2000/svg"><g fill-rule="evenodd"><path d="M3.14 14.14l4-4 .7.7 -4 4 -.71-.71Z"/><path d="M7.85 14.14l-4-4 -.71.7 4 4 .7-.71Z"/><path d="M14.64 20.64l4-4 .7.7 -4 4 -.71-.71Z"/><path d="M19.35 20.64l-4-4 -.71.7 4 4 .7-.71Z"/><path d="M16 8.5c-1.94 0-3.5 1.56-3.5 3.5v2c0 2.48-2.02 4.5-4.5 4.5H2v-1h6c1.93 0 3.5-1.57 3.5-3.5v-2c0-2.49 2.01-4.5 4.5-4.5h6v1h-6Z"/><path d="M19.35 4.64l3 3c.19.19.19.51 0 .7l-3 3 -.71-.71 2.64-2.65 -2.65-2.65 .7-.71Z"/><path d="M11 3.5c-.83 0-1.5.67-1.5 1.5 0 .82.67 1.5 1.5 1.5 .82 0 1.5-.68 1.5-1.5 0-.83-.68-1.5-1.5-1.5ZM8.5 5c0-1.39 1.11-2.5 2.5-2.5 1.38 0 2.5 1.11 2.5 2.5 0 1.38-1.12 2.5-2.5 2.5 -1.39 0-2.5-1.12-2.5-2.5Z"/></g></svg>