<svg viewBox="0 0 24 24" xmlns="http://www.w3.org/2000/svg"><g fill-rule="evenodd"><path d="M1.5 2c0-.28.22-.5.5-.5h20c.27 0 .5.22.5.5v20c0 .27-.23.5-.5.5H2c-.28 0-.5-.23-.5-.5V2Zm1 .5v19h19v-19h-19Z"/><path d="M1.5 2c0-.28.22-.5.5-.5h20c.27 0 .5.22.5.5v5c0 .27-.23.5-.5.5H2c-.28 0-.5-.23-.5-.5V2Zm1 .5v4h19v-4h-19Z"/><path d="M6.5 5h-2V4h2v1Z"/><path d="M10.5 5h-2V4h2v1Z"/><path d="M14.5 5h-2V4h2v1Z"/><path d="M12.64 10.5c-.2 0-.38.11-.46.29l-1.7 3.8v3.89h6.49c.27 0 .5-.23.5-.5v-3.5c0-.28-.23-.5-.5-.5h-3c-.28 0-.5-.23-.5-.5v-2.5c0-.28-.23-.5-.5-.5h-.36Zm-1.38-.11c.24-.55.77-.9 1.37-.9h.35c.82 0 1.5.67 1.5 1.5v2h2.5c.82 0 1.5.67 1.5 1.5v3.5c0 .82-.68 1.5-1.5 1.5h-7c-.28 0-.5-.23-.5-.5v-4.5c0-.07.01-.14.04-.21l1.73-3.91Z"/><path d="M5.5 13.5c0-.28.22-.5.5-.5h4c.27 0 .5.22.5.5v6c0 .27-.23.5-.5.5H6c-.28 0-.5-.23-.5-.5v-6Zm1 .5v5h3v-5h-3Z"/></g></svg>