<svg viewBox="0 0 24 24" xmlns="http://www.w3.org/2000/svg"><g fill-rule="evenodd"><path d="M1.5 2c0-.28.22-.5.5-.5h20c.27 0 .5.22.5.5v20c0 .27-.23.5-.5.5H2c-.28 0-.5-.23-.5-.5V2Zm1 .5v19h19v-19h-19Z"/><path d="M1.5 2c0-.28.22-.5.5-.5h20c.27 0 .5.22.5.5v5c0 .27-.23.5-.5.5H2c-.28 0-.5-.23-.5-.5V2Zm1 .5v4h19v-4h-19Z"/><path d="M6.5 5h-2V4h2v1Z"/><path d="M10.5 5h-2V4h2v1Z"/><path d="M14.5 5h-2V4h2v1Z"/><path d="M11.79 9.54c.13-.06.28-.06.41 0l5.5 2.49c.17.08.29.25.29.45 0 .19-.12.37-.3.45l-5.5 2.5c-.14.05-.29.05-.42 0l-5.5-2.5c-.18-.09-.3-.26-.3-.46s.11-.38.29-.46l5.5-2.5ZM7.7 12.49l4.29 1.95 4.29-1.96 -4.3-1.96 -4.3 1.95Z"/><path d="M8.5 17.56l-.5-4 .99-.13 .44 3.56h5.11l.44-3.57 .99.12 -.5 4c-.04.25-.25.43-.5.43h-6c-.26 0-.47-.19-.5-.44Z"/><path d="M17 16v-3.5h1V16h-1Z"/></g></svg>