<svg viewBox="0 0 24 24" xmlns="http://www.w3.org/2000/svg"><g fill-rule="evenodd"><path d="M1.5 2c0-.28.22-.5.5-.5h20c.27 0 .5.22.5.5v20c0 .27-.23.5-.5.5H2c-.28 0-.5-.23-.5-.5V2Zm1 .5v19h19v-19h-19Z"/><path d="M1.5 2c0-.28.22-.5.5-.5h20c.27 0 .5.22.5.5v5c0 .27-.23.5-.5.5H2c-.28 0-.5-.23-.5-.5V2Zm1 .5v4h19v-4h-19Z"/><path d="M6.5 5h-2V4h2v1Z"/><path d="M10.5 5h-2V4h2v1Z"/><path d="M14.5 5h-2V4h2v1Z"/><path d="M12 9.5c.17 0 .33.09.42.23l5.5 9c.09.15.09.34 0 .5 -.09.15-.26.25-.44.25h-11c-.19 0-.35-.1-.44-.26 -.09-.16-.09-.36 0-.51l5.5-9.01c.09-.15.25-.24.42-.24Zm-4.61 9h9.21l-4.61-7.55 -4.61 7.54Z"/></g></svg>