<svg viewBox="0 0 24 24" xmlns="http://www.w3.org/2000/svg"><g fill-rule="evenodd"><path d="M1.5 2c0-.28.22-.5.5-.5h20c.27 0 .5.22.5.5v20c0 .27-.23.5-.5.5H2c-.28 0-.5-.23-.5-.5V2Zm1 .5v19h19v-19h-19Z"/><path d="M1.5 2c0-.28.22-.5.5-.5h20c.27 0 .5.22.5.5v5c0 .27-.23.5-.5.5H2c-.28 0-.5-.23-.5-.5V2Zm1 .5v4h19v-4h-19Z"/><path d="M6.5 5h-2V4h2v1Z"/><path d="M10.5 5h-2V4h2v1Z"/><path d="M14.5 5h-2V4h2v1Z"/><path d="M11.35 9.85l-4.01 4c-.2.19-.52.19-.71 0l-2-2 .7-.71 1.64 1.64 3.64-3.65 .7.7Z"/><path d="M11.35 15.35l-4.01 4c-.2.19-.52.19-.71 0l-2-2 .7-.71 1.64 1.64 3.64-3.65 .7.7Z"/><path d="M19 12h-6v-1h6v1Z"/><path d="M19 18h-6v-1h6v1Z"/></g></svg>