<svg viewBox="0 0 24 24" xmlns="http://www.w3.org/2000/svg"><g fill-rule="evenodd"><path d="M12 2.75c-5.11 0-9.25 4.14-9.25 9.25 0 5.1 4.14 9.25 9.25 9.25 2.08 0 4-.69 5.55-1.85 .33-.25.8-.19 1.05.14 .24.33.18.8-.15 1.05 -1.8 1.35-4.04 2.15-6.46 2.15 -5.94 0-10.75-4.82-10.75-10.75 0-5.94 4.81-10.75 10.75-10.75 5.93 0 10.75 4.81 10.75 10.75 0 1.52-.32 2.98-.9 4.3 -.17.37-.61.55-.99.38 -.38-.17-.56-.61-.39-.99 .49-1.14.76-2.39.76-3.7 0-5.11-4.15-9.25-9.25-9.25Z"/><path d="M14.46 6.46c.29-.3.76-.3 1.06 0l2 2c.29.29.29.76 0 1.06l-8 7.99c-.15.14-.34.21-.54.21h-2c-.42 0-.75-.34-.75-.75v-2c0-.2.07-.39.21-.54l8-8.01ZM7.74 15.3v.93h.93l7.24-7.25 -.94-.94 -7.25 7.25Z"/><path d="M12.46 8.46c.29-.3.76-.3 1.06 0l2 2c.29.29.29.76 0 1.06 -.3.29-.77.29-1.07 0l-2-2c-.3-.3-.3-.77 0-1.07Z"/></g></svg>