<svg viewBox="0 0 24 24" xmlns="http://www.w3.org/2000/svg"><g fill-rule="evenodd"><path d="M6.6 13.31c.51-1.54 1.94-2.57 3.55-2.57h3.67c1.61 0 3.04 1.03 3.55 2.56l1.93 5.81c.59 1.78-.74 3.61-2.61 3.61h-4.73c-.42 0-.75-.34-.75-.75 0-.42.33-.75.75-.75h4.72c.85 0 1.45-.84 1.18-1.65l-1.94-5.82c-.31-.92-1.17-1.54-2.14-1.54H10.1c-.97 0-1.83.61-2.14 1.53l-1.94 5.81c-.27.8.33 1.64 1.18 1.64h.72c.41 0 .75.33.75.75 0 .41-.34.75-.75.75h-.73c-1.88 0-3.21-1.84-2.61-3.62l1.93-5.82Z"/><path d="M13 15.75c.41 0 .75.33.75.75V18c0 .41.33.75.75.75h.25V16.5c0-.42.33-.75.75-.75 .41 0 .75.33.75.75v3c0 .41-.34.75-.75.75h-1c-1.25 0-2.25-1.01-2.25-2.25v-1.5c0-.42.33-.75.75-.75Z"/><path d="M10.5 13.25c.41 0 .75.33.75.75v5.5c0 .41-.34.75-.75.75H9.25c-1.11 0-2-.9-2-2 0-1.11.89-2 2-2h.5V14c0-.42.33-.75.75-.75Zm-.75 4.5h-.5c-.28 0-.5.22-.5.5 0 .27.22.5.5.5h.5v-1Z"/><path d="M4 9.25c-.55 0-1.25.61-1.25 1.75 0 1.13.7 1.75 1.25 1.75 .54 0 1.25-.62 1.25-1.75 0-1.14-.71-1.75-1.25-1.75ZM1.25 11c0-1.64 1.08-3.25 2.75-3.25 1.66 0 2.75 1.61 2.75 3.25 0 1.63-1.09 3.25-2.75 3.25 -1.67 0-2.75-1.62-2.75-3.25Z"/><path d="M20 9.25c-.55 0-1.25.61-1.25 1.75 0 1.13.7 1.75 1.25 1.75 .54 0 1.25-.62 1.25-1.75 0-1.14-.71-1.75-1.25-1.75ZM17.25 11c0-1.64 1.08-3.25 2.75-3.25 1.66 0 2.75 1.61 2.75 3.25 0 1.63-1.09 3.25-2.75 3.25 -1.67 0-2.75-1.62-2.75-3.25Z"/><path d="M15.5 3.25c-.85 0-1.75.87-1.75 2.25 0 1.37.9 2.25 1.75 2.25 .84 0 1.75-.88 1.75-2.25 0-1.38-.91-2.25-1.75-2.25ZM12.25 5.5c0-1.94 1.33-3.75 3.25-3.75 1.91 0 3.25 1.81 3.25 3.75 0 1.93-1.34 3.75-3.25 3.75 -1.92 0-3.25-1.82-3.25-3.75Z"/><path d="M8.5 3.25c-.85 0-1.75.87-1.75 2.25 0 1.37.9 2.25 1.75 2.25 .84 0 1.75-.88 1.75-2.25 0-1.38-.91-2.25-1.75-2.25ZM5.25 5.5c0-1.94 1.33-3.75 3.25-3.75 1.91 0 3.25 1.81 3.25 3.75 0 1.93-1.34 3.75-3.25 3.75 -1.92 0-3.25-1.82-3.25-3.75Z"/></g></svg>