<svg viewBox="0 0 24 24" xmlns="http://www.w3.org/2000/svg"><g fill-rule="evenodd"><path d="M2.25 12c0-5.39 4.36-9.75 9.75-9.75 1.13 0 2.23.19 3.24.55 .39.13.59.56.45.95 -.14.39-.57.59-.96.45 -.86-.31-1.79-.47-2.76-.47 -4.56 0-8.25 3.69-8.25 8.25 0 4.55 3.69 8.25 8.25 8.25 1.62 0 3.13-.47 4.41-1.28 .19-.13.42-.15.63-.08l2.76.92 -.93-2.77c-.08-.22-.05-.45.07-.64 .8-1.28 1.27-2.79 1.27-4.42 0-1.97-.69-3.77-1.84-5.19 -.27-.33-.22-.8.11-1.06 .32-.27.79-.22 1.05.11 1.35 1.67 2.16 3.8 2.16 6.12 0 1.78-.49 3.46-1.33 4.9l1.28 3.85c.08.26.01.56-.19.76 -.21.2-.5.27-.77.18l-3.86-1.29c-1.45.84-3.12 1.32-4.91 1.32 -5.39 0-9.75-4.37-9.75-9.75Z"/><path d="M9.75 7.46l-1.07.26c-.41.1-.81-.15-.91-.55 -.11-.41.14-.81.54-.91l1.37-.35c.78-.2 1.55.39 1.55 1.21v5.22l.07-.1c.51-.65 1.29-1.02 2.11-1.02 1.78 0 3.07 1.69 2.61 3.41l-.43 1.55c-.33 1.19-1.42 2.02-2.66 2.02h-.48c-1.52 0-2.76-1.24-2.76-2.75V7.41Zm1.5 7.3v.73c0 .69.55 1.25 1.25 1.25h.47c.56 0 1.05-.38 1.2-.93l.42-1.56c.2-.77-.37-1.53-1.17-1.53 -.37 0-.72.16-.95.45l-1.25 1.56Z"/></g></svg>