<svg viewBox="0 0 24 24" xmlns="http://www.w3.org/2000/svg"><g fill-rule="evenodd"><path d="M8.13 11.71c-.9-.53-2.01.2-1.88 1.23l.41 3.25c.02.18.11.35.25.47l-.49.56 .48-.57 5.07 4.33 .68-.59c.31-.27.78-.24 1.05.08 .26.31.23.78-.09 1.05l-1.18 1c-.29.23-.7.23-.98 0l-5.56-4.75 .48-.58 -.49.57c-.43-.37-.71-.88-.78-1.43l-.42-3.26c-.29-2.27 2.15-3.88 4.12-2.72l3.1 1.83 3.1-1.84c1.96-1.17 4.41.44 4.12 2.71l-.42 3.25c-.08.55-.35 1.064-.78 1.42l-.56.47c-.32.26-.79.23-1.06-.09s-.24-.79.08-1.06l.55-.48c.14-.13.23-.3.25-.48l.41-3.26c.13-1.04-.98-1.77-1.88-1.24l-3.49 2.05c-.24.13-.53.13-.77 0l-3.49-2.06Z"/><path d="M12 7.75c-1.14 0-1.75.7-1.75 1.25 0 .41-.34.75-.75.75 -.42 0-.75-.34-.75-.75 0-1.67 1.61-2.75 3.25-2.75 1.63 0 3.25 1.08 3.25 2.75 0 .41-.34.75-.75.75 -.42 0-.75-.34-.75-.75 0-.55-.62-1.25-1.75-1.25Z"/><path d="M12 5.25c-2.52 0-4.25 1.6-4.25 3.25 0 .41-.34.75-.75.75 -.42 0-.75-.34-.75-.75 0-2.78 2.73-4.75 5.75-4.75 3.01 0 5.75 1.97 5.75 4.75 0 .41-.34.75-.75.75 -.42 0-.75-.34-.75-.75 0-1.65-1.74-3.25-4.25-3.25Z"/><path d="M12 2.75C8.1 2.75 5.25 5.24 5.25 8c0 .41-.34.75-.75.75 -.42 0-.75-.34-.75-.75 0-3.88 3.85-6.75 8.25-6.75 4.39 0 8.25 2.87 8.25 6.75 0 .41-.34.75-.75.75 -.42 0-.75-.34-.75-.75 0-2.76-2.86-5.25-6.75-5.25Z"/></g></svg>