<svg viewBox="0 0 24 24" xmlns="http://www.w3.org/2000/svg"><g fill-rule="evenodd"><path d="M6.5 3.25c-.14 0-.25.11-.25.25v14c0 .13.11.25.25.25h14c.13 0 .25-.12.25-.25v-14c0-.14-.12-.25-.25-.25h-1c-.42 0-.75-.34-.75-.75 0-.42.33-.75.75-.75h1c.96 0 1.75.78 1.75 1.75v14c0 .96-.79 1.75-1.75 1.75h-14c-.97 0-1.75-.79-1.75-1.75v-14c0-.97.78-1.75 1.75-1.75h9c.41 0 .75.33.75.75 0 .41-.34.75-.75.75h-9Z"/><path d="M3 4.25c.41 0 .75.33.75.75v15c0 .13.11.25.25.25h15c.41 0 .75.33.75.75 0 .41-.34.75-.75.75H4c-.97 0-1.75-.79-1.75-1.75V5c0-.42.33-.75.75-.75Z"/><path d="M10.65 6.33c.24-.13.54-.11.77.05l5 3.5c.2.14.31.36.31.61 0 .24-.12.47-.32.61l-5 3.5c-.23.16-.53.18-.78.05s-.41-.39-.41-.67v-7c0-.28.15-.54.4-.67Zm1.09 2.1v4.11l2.94-2.06 -2.95-2.06Z"/></g></svg>