<svg viewBox="0 0 24 24" xmlns="http://www.w3.org/2000/svg"><g fill-rule="evenodd"><path d="M12.81 1.69c.12-.27.38-.45.68-.45h4.5c.41 0 .75.33.75.75v3.33c0 .1-.03.21-.07.3l-.75 1.66c-.17.37-.62.54-1 .37 -.38-.17-.55-.62-.38-1l.68-1.52V2.7h-3.27l-1.16 2.55c-.17.37-.62.54-1 .37 -.38-.17-.55-.62-.38-1l1.35-3ZM10.17 9.3c.38.16.56.6.39.98l-.15.33 -.01.01 -3.69 8.18v2.42h3.26L11 18.91c0-.02.01-.04.02-.05l.12-.23c.19-.37.65-.51 1.01-.31 .36.19.5.65.3 1.01l-.12.2 -1.23 2.72c-.13.26-.39.44-.69.44h-4.5c-.42 0-.75-.34-.75-.75V18.6c0-.11.02-.22.06-.31l3.74-8.33 .13-.33c.16-.39.6-.57.98-.4Zm5.57 1c.37.16.54.61.37.99l-1.31 2.9c-.18.37-.62.54-1 .37 -.38-.18-.55-.62-.38-1l1.3-2.91c.16-.38.61-.55.99-.38Z"/><path d="M5.25 5c0-.42.33-.75.75-.75h6c.41 0 .75.33.75.75 0 .41-.34.75-.75.75H6.75v3.5h3c.41 0 .75.33.75.75 0 .41-.34.75-.75.75H6c-.42 0-.75-.34-.75-.75V5Z"/><path d="M13.5 14c0-.42.33-.75.75-.75H18c.41 0 .75.33.75.75v5c0 .41-.34.75-.75.75h-6c-.42 0-.75-.34-.75-.75 0-.42.33-.75.75-.75h5.25v-3.5h-3c-.42 0-.75-.34-.75-.75Z"/></g></svg>