<svg viewBox="0 0 24 24" xmlns="http://www.w3.org/2000/svg"><g fill-rule="evenodd"><path d="M12 2.75c-5.11 0-9.25 4.14-9.25 9.25 0 5.1 4.14 9.25 9.25 9.25 2.08 0 4-.69 5.54-1.85 .33-.25.8-.19 1.05.14 .24.33.18.8-.15 1.05 -1.8 1.34-4.04 2.15-6.46 2.15 -5.94 0-10.75-4.82-10.75-10.75 0-5.94 4.81-10.75 10.75-10.75 5.93 0 10.75 4.81 10.75 10.75 0 1.52-.32 2.98-.9 4.3 -.17.37-.61.55-.99.38 -.38-.17-.56-.61-.39-.99 .49-1.14.76-2.39.76-3.7 0-5.11-4.15-9.25-9.25-9.25Z"/><path d="M7 13.25c.41 0 .75.33.75.75 0 1.64 1.73 3.25 4.25 3.25 2.51 0 4.25-1.61 4.25-3.25 0-.42.33-.75.75-.75 .41 0 .75.33.75.75 0 2.77-2.74 4.75-5.75 4.75 -3.02 0-5.75-1.98-5.75-4.75 0-.42.33-.75.75-.75Z"/></g></svg>