<svg viewBox="0 0 24 24" xmlns="http://www.w3.org/2000/svg"><g fill-rule="evenodd"><path d="M4 3.75c-.7 0-1.25.55-1.25 1.25 0 .69.55 1.25 1.25 1.25h16c.69 0 1.25-.56 1.25-1.25 0-.7-.56-1.25-1.25-1.25H9c-.42 0-.75-.34-.75-.75 0-.42.33-.75.75-.75h11c1.51 0 2.75 1.23 2.75 2.75 0 1.51-1.24 2.75-2.75 2.75H4C2.48 7.75 1.25 6.51 1.25 5c0-1.52 1.23-2.75 2.75-2.75h1c.41 0 .75.33.75.75 0 .41-.34.75-.75.75H4Z"/><path d="M11.25 12c0-1.52 1.23-2.75 2.75-2.75h6c1.51 0 2.75 1.23 2.75 2.75 0 1.51-1.24 2.75-2.75 2.75h-6c-1.52 0-2.75-1.24-2.75-2.75ZM14 10.75c-.7 0-1.25.55-1.25 1.25 0 .69.55 1.25 1.25 1.25h6c.69 0 1.25-.56 1.25-1.25 0-.7-.56-1.25-1.25-1.25h-6Z"/><path d="M4.25 19c0-1.52 1.23-2.75 2.75-2.75h13c1.51 0 2.75 1.23 2.75 2.75 0 1.51-1.24 2.75-2.75 2.75H7c-1.52 0-2.75-1.24-2.75-2.75ZM7 17.75c-.7 0-1.25.55-1.25 1.25 0 .69.55 1.25 1.25 1.25h13c.69 0 1.25-.56 1.25-1.25 0-.7-.56-1.25-1.25-1.25H7Z"/></g></svg>