<svg viewBox="0 0 24 24" xmlns="http://www.w3.org/2000/svg"><g fill-rule="evenodd"><path d="M5.35 5.66C3.67 6.82 2.74 8.37 2.74 9.99c0 .9.29 1.77.83 2.57 .23.34.14.8-.2 1.04 -.35.23-.81.14-1.05-.2 -.7-1.02-1.1-2.19-1.1-3.43 0-2.25 1.3-4.21 3.24-5.57 1.95-1.37 4.6-2.19 7.5-2.19 2.89 0 5.55.82 7.5 2.18C21.4 5.75 22.7 7.7 22.7 9.95c0 2.03-1.07 3.83-2.72 5.16 -1.57 1.26-3.69 2.14-6.07 2.45 -.5.74-1.14 1.38-1.89 1.88l-1.68 1.11c-.29.18-.66.16-.92-.07s-.33-.6-.18-.9c.32-.66.45-1.39.36-2.1 -1.06-.17-2.06-.45-2.98-.82 -.39-.16-.57-.6-.42-.98 .15-.39.59-.57.97-.42 .94.38 2 .65 3.14.79 .3.03.56.25.63.56 .13.51.18 1.04.15 1.56l.04-.03c.66-.45 1.21-1.04 1.62-1.72 .12-.21.33-.35.56-.37 2.27-.25 4.25-1.06 5.64-2.18 1.38-1.13 2.15-2.53 2.15-4 0-1.63-.94-3.17-2.61-4.34s-4.02-1.92-6.641-1.92c-2.63 0-4.98.74-6.65 1.91Z"/><path d="M16.25 7c0-.42.33-.75.75-.75 .88 0 1.58.53 2.03 1.21 .45.68.71 1.58.71 2.53 0 .95-.26 1.85-.72 2.53 -.46.67-1.16 1.21-2.04 1.21 -.42 0-.75-.34-.75-.75 0-.42.33-.75.75-.75 .22 0 .51-.14.79-.55 .26-.41.45-1.01.45-1.71 0-.71-.2-1.31-.46-1.71 -.28-.41-.57-.55-.8-.55 -.42 0-.75-.34-.75-.75Z"/></g></svg>