<svg viewBox="0 0 24 24" xmlns="http://www.w3.org/2000/svg"><g fill-rule="evenodd"><path d="M1.25 7.73c0-2.05 2.15-3.38 3.97-2.46l2.1 1.05c.25.12.41.38.41.67v12.5c0 .41-.34.75-.75.75h-3c-1.52 0-2.75-1.24-2.75-2.75V7.72Zm3.3-1.12c-.84-.42-1.81.18-1.81 1.11v9.76c0 .69.55 1.25 1.25 1.25h2.25V7.44l-1.7-.85Z"/><path d="M22.75 7.73c0-2.05-2.16-3.38-3.98-2.46l-2.11 1.05c-.26.12-.42.38-.42.67v12.5c0 .41.33.75.75.75h3c1.51 0 2.75-1.24 2.75-2.75v-1c0-.42-.34-.75-.75-.75 -.42 0-.75.33-.75.75v1c0 .69-.56 1.25-1.25 1.25h-2.25V7.45l1.69-.85c.83-.42 1.8.18 1.8 1.11v4.76c0 .41.33.75.75.75 .41 0 .75-.34.75-.75V7.7Z"/><path d="M4.55 6.61c-.84-.42-1.81.18-1.81 1.11v1.3l9.25 4.62 9.25-4.63V7.7c0-.93-.98-1.54-1.81-1.12l-7.11 3.55c-.22.1-.46.1-.68 0L4.53 6.57ZM1.24 7.72c0-2.05 2.15-3.38 3.97-2.46l6.77 3.38 6.77-3.39c1.82-.92 3.97.41 3.97 2.45v1.76c0 .28-.17.54-.42.67l-10 5c-.22.1-.46.1-.68 0l-10-5c-.26-.13-.42-.39-.42-.68V7.68Z"/></g></svg>