<svg viewBox="0 0 24 24" xmlns="http://www.w3.org/2000/svg"><path fill-rule="evenodd" d="M5.29 3.59c1.83-1.47 4.16-2.35 6.7-2.35 2.36 0 4.55.76 6.33 2.06 .84.61.85 1.77.22 2.47l-1.1 1.21c-.67.73-1.72.72-2.43.26 -.88-.57-1.92-.9-3.05-.9 -1.2 0-2.3.37-3.21 1 -1.46 1.01-2.41 2.7-2.41 4.6 0 1.907.95 3.59 2.4 4.6 .9.63 2.01 1 3.2 1 1.19 0 2.29-.38 3.2-1.01 .74-.53 1.36-1.23 1.78-2.04h-4c-.97 0-1.75-.79-1.75-1.75V11.1c0-.97.78-1.75 1.75-1.75h8c.96 0 1.75.78 1.75 1.74v.81c0 3.4-1.59 6.43-4.05 8.4 -1.84 1.46-4.17 2.34-6.71 2.34s-4.87-.88-6.71-2.35c-2.47-1.97-4.05-5.01-4.05-8.41 0-.42.33-.75.75-.75 .41 0 .75.33.75.75 0 2.68 1.14 5.1 2.97 6.79l1.51-1.52c-1.45-1.31-2.36-3.19-2.36-5.29s.9-3.99 2.35-5.29L5.6 5.05c-.94.86-1.7 1.91-2.21 3.09 -.17.37-.61.55-.99.38 -.38-.17-.56-.61-.39-.99 .7-1.62 1.79-3.03 3.15-4.11Zm1.61.67l1.55 1.55c1.04-.6 2.24-.94 3.52-.94 1.42 0 2.74.41 3.85 1.13 .09.06.2.08.29.07 .08-.01.15-.05.19-.09l1.09-1.22c.04-.06.06-.12.06-.17 -.01-.05-.03-.08-.06-.11 -1.53-1.12-3.42-1.78-5.45-1.78 -1.88 0-3.63.55-5.09 1.52Zm1.55 13.9l-1.56 1.55c1.45.96 3.2 1.52 5.08 1.52 1.87 0 3.62-.56 5.08-1.53l-1.56-1.56c-1.05.59-2.25.93-3.53.93 -1.29 0-2.49-.35-3.53-.94Zm8.29-.9l1.51 1.51c1.83-1.7 2.97-4.12 2.97-6.8v-.82c0-.14-.12-.25-.25-.25h-8c-.14 0-.25.11-.25.25v1.63c0 .13.11.25.25.25h5.1c.23 0 .45.11.6.3 .14.18.18.43.11.66 -.38 1.27-1.11 2.39-2.06 3.25Z"/></svg>