<svg viewBox="0 0 24 24" xmlns="http://www.w3.org/2000/svg"><path fill-rule="evenodd" d="M6.75 1.92c.03-.39.36-.68.74-.68h3c.21 0 .41.08.55.24 .14.15.21.36.19.57l-.37 3.67h3.49l.38-3.83c.03-.39.36-.68.74-.68h3c.21 0 .41.08.55.24 .14.15.21.36.19.57l-.37 3.67h3.12c.41 0 .75.33.75.75v3c0 .41-.34.75-.75.75h-3.58l-.35 3.5h3.92c.41 0 .75.33.75.75v3c0 .41-.34.75-.75.75h-2.53c-.42 0-.75-.34-.75-.75 0-.42.33-.75.75-.75h1.77v-1.5h-4c-.22 0-.42-.09-.56-.25 -.15-.16-.22-.37-.2-.58l.5-5.01c.03-.39.36-.68.74-.68h3.5v-1.5h-3.2c-.22 0-.42-.09-.56-.25 -.15-.16-.22-.37-.2-.58l.36-3.68h-1.5l-.39 3.82c-.04.38-.37.67-.75.67h-5c-.22 0-.42-.09-.56-.25 -.15-.16-.22-.37-.2-.58l.36-3.68h-1.5l-.39 3.82c-.04.38-.37.67-.75.67h-4.3v1.5h4c.21 0 .41.08.55.24 .14.15.21.36.19.57l-.5 4.99c-.04.38-.37.67-.75.67h-3.5v1.5h3.2c.21 0 .41.08.55.24 .14.15.21.36.19.57l-.37 3.67h1.49l.38-3.83c.03-.39.36-.68.74-.68h5c.21 0 .41.08.55.24 .14.15.21.36.19.57l-.37 3.67h1.49l.15-1.58c.04-.42.4-.72.82-.68 .41.04.71.4.67.82l-.23 2.25c-.04.38-.37.67-.75.67h-3c-.22 0-.42-.09-.56-.25 -.15-.16-.22-.37-.2-.58l.36-3.68h-3.5l-.39 3.82c-.04.38-.37.67-.75.67h-3c-.22 0-.42-.09-.56-.25 -.15-.16-.22-.37-.2-.58L4.84 18H1.71c-.42 0-.75-.34-.75-.75v-3c0-.42.33-.75.75-.75h3.57l.35-3.5H1.7c-.42 0-.75-.34-.75-.75v-3c0-.42.33-.75.75-.75h4.37l.38-3.83ZM9 9.42c.03-.39.36-.68.74-.68h5c.21 0 .41.08.55.24 .14.15.21.36.19.57l-.5 4.99c-.04.38-.37.67-.75.67h-5c-.22 0-.42-.09-.56-.25 -.15-.16-.22-.37-.2-.58l.5-5.01Zm1.42.82l-.35 3.5h3.49l.35-3.5h-3.5Z"/></svg>