<svg viewBox="0 0 24 24" xmlns="http://www.w3.org/2000/svg"><g fill-rule="evenodd"><path d="M1.25 6.5c0-2.9 2.35-5.25 5.25-5.25h11c2.89 0 5.25 2.35 5.25 5.25V7c0 .41-.34.75-.75.75 -.42 0-.75-.34-.75-.75v-.5c0-2.08-1.68-3.75-3.75-3.75h-11c-2.08 0-3.75 1.67-3.75 3.75v11c0 2.07 1.67 3.75 3.75 3.75h11c2.07 0 3.75-1.68 3.75-3.75V11c0-.42.33-.75.75-.75 .41 0 .75.33.75.75v6.5c0 2.89-2.36 5.25-5.25 5.25h-11c-2.9 0-5.25-2.36-5.25-5.25v-11Z"/><path d="M9.75 12c0-1.25 1-2.25 2.25-2.25 1.24 0 2.25 1 2.25 2.25v5.5c0 1.24-1.01 2.25-2.25 2.25 -1.25 0-2.25-1.01-2.25-2.25V12Zm2.25-.75c-.42 0-.75.33-.75.75v5.5c0 .41.33.75.75.75 .41 0 .75-.34.75-.75V12c0-.42-.34-.75-.75-.75Z"/><path d="M9.75 6.5c0-1.25 1-2.25 2.25-2.25 1.24 0 2.25 1 2.25 2.25 0 1.24-1.01 2.25-2.25 2.25 -1.25 0-2.25-1.01-2.25-2.25ZM12 5.75c-.42 0-.75.33-.75.75 0 .41.33.75.75.75 .41 0 .75-.34.75-.75 0-.42-.34-.75-.75-.75Z"/></g></svg>