<svg viewBox="0 0 24 24" xmlns="http://www.w3.org/2000/svg"><g fill-rule="evenodd"><path d="M3.01 9.7c.15-2.51 2.23-4.46 4.74-4.46h8.48c2.5 0 4.58 1.95 4.74 4.45l.5 8c.17 2.73-2.01 5.04-4.75 5.04h-5.25c-.42 0-.75-.34-.75-.75 0-.42.33-.75.75-.75h5.24c1.87 0 3.36-1.59 3.24-3.46l-.5-8.01c-.11-1.72-1.53-3.05-3.25-3.05H7.71c-1.72 0-3.14 1.33-3.25 3.04l-.5 8c-.12 1.87 1.36 3.45 3.24 3.45h.24c.41 0 .75.33.75.75 0 .41-.34.75-.75.75h-.25c-2.74 0-4.92-2.32-4.75-5.05l.5-8Z"/><path d="M7.25 5c0-2.08 1.67-3.75 3.75-3.75h2c2.07 0 3.75 1.67 3.75 3.75v1c0 .41-.34.75-.75.75 -.42 0-.75-.34-.75-.75V5c0-1.25-1.01-2.25-2.25-2.25h-2c-1.25 0-2.25 1-2.25 2.25v1c0 .41-.34.75-.75.75 -.42 0-.75-.34-.75-.75V5Z"/><path d="M7.25 10c0 2.07 1.67 3.75 3.75 3.75h2c2.07 0 3.75-1.68 3.75-3.75V9c0-.42-.34-.75-.75-.75 -.42 0-.75.33-.75.75v1c0 1.24-1.01 2.25-2.25 2.25h-2c-1.25 0-2.25-1.01-2.25-2.25V9c0-.42-.34-.75-.75-.75 -.42 0-.75.33-.75.75v1Z"/></g></svg>