<svg viewBox="0 0 24 24" xmlns="http://www.w3.org/2000/svg"><g fill-rule="evenodd"><path d="M3.25 10c0-2.9 2.35-5.25 5.25-5.25h7c2.89 0 5.25 2.35 5.25 5.25v7c0 2.89-2.36 5.25-5.25 5.25H13c-.42 0-.75-.34-.75-.75 0-.42.33-.75.75-.75h2.5c2.07 0 3.75-1.68 3.75-3.75v-7c0-2.08-1.68-3.75-3.75-3.75h-7c-2.08 0-3.75 1.67-3.75 3.75v7.5c0 1.79 1.45 3.25 3.25 3.25h1c.41 0 .75.33.75.75 0 .41-.34.75-.75.75H8c-2.63 0-4.75-2.13-4.75-4.75V10Z"/><path d="M8.46 1.96c.29-.3.76-.3 1.06 0l2.46 2.46 2.46-2.47c.29-.3.76-.3 1.06 0 .29.29.29.76 0 1.06l-3 3c-.3.29-.77.29-1.07 0l-3.01-3c-.3-.3-.3-.77 0-1.07Z"/><path d="M12.44 10.89c.19.14.3.36.3.6v1.99l4.03-1.22c.39-.12.81.1.93.5 .11.39-.11.81-.51.93l-5 1.5c-.23.06-.48.02-.67-.12 -.2-.15-.31-.37-.31-.61v-2l-4.04 1.21c-.4.11-.82-.11-.94-.51s.1-.82.5-.94l5-1.5c.22-.07.47-.03.66.11Z"/></g></svg>