<svg viewBox="0 0 24 24" xmlns="http://www.w3.org/2000/svg"><g fill-rule="evenodd"><path d="M1.25 6.5c0-2.9 2.35-5.25 5.25-5.25h11c2.89 0 5.25 2.35 5.25 5.25v11c0 2.89-2.36 5.25-5.25 5.25h-11c-2.9 0-5.25-2.36-5.25-5.25V17c0-.42.33-.75.75-.75 .41 0 .75.33.75.75v.5c0 2.07 1.67 3.75 3.75 3.75h11c2.07 0 3.75-1.68 3.75-3.75v-11c0-2.08-1.68-3.75-3.75-3.75h-11c-2.08 0-3.75 1.67-3.75 3.75V13c0 .41-.34.75-.75.75 -.42 0-.75-.34-.75-.75V6.5Z"/><path d="M12 7.75c-2.35 0-4.25 1.9-4.25 4.25 0 2.34 1.9 4.25 4.25 4.25 2.34 0 4.25-1.91 4.25-4.25 0-2.35-1.91-4.25-4.25-4.25ZM6.25 12c0-3.18 2.57-5.75 5.75-5.75 3.17 0 5.75 2.57 5.75 5.75 0 3.17-2.58 5.75-5.75 5.75 -3.18 0-5.75-2.58-5.75-5.75Z"/><path d="M18 5.75c-.14 0-.25.11-.25.25 0 .13.11.25.25.25 .13 0 .25-.12.25-.25 0-.14-.12-.25-.25-.25ZM16.25 6c0-.97.78-1.75 1.75-1.75 .96 0 1.75.78 1.75 1.75 0 .96-.79 1.75-1.75 1.75 -.97 0-1.75-.79-1.75-1.75Z"/></g></svg>