<svg viewBox="0 0 24 24" xmlns="http://www.w3.org/2000/svg"><g fill-rule="evenodd"><path d="M1.25 6.5c0-2.9 2.35-5.25 5.25-5.25h11c2.89 0 5.25 2.35 5.25 5.25v11c0 2.89-2.36 5.25-5.25 5.25H11c-.42 0-.75-.34-.75-.75 0-.42.33-.75.75-.75h6.5c2.07 0 3.75-1.68 3.75-3.75v-11c0-2.08-1.68-3.75-3.75-3.75h-11c-2.08 0-3.75 1.67-3.75 3.75v11c0 2.07 1.67 3.75 3.75 3.75H7c.41 0 .75.33.75.75 0 .41-.34.75-.75.75h-.5c-2.9 0-5.25-2.36-5.25-5.25v-11Z"/><path d="M9.15 10.33c.24-.13.54-.11.77.05l5 3.5c.2.14.31.36.31.61 0 .24-.12.47-.32.61l-5 3.5c-.23.16-.53.18-.78.05s-.41-.39-.41-.67v-7c0-.28.15-.54.4-.67Zm1.09 2.1v4.119l2.94-2.06 -2.95-2.06Z"/><path d="M1.25 8c0-.42.33-.75.75-.75h20c.41 0 .75.33.75.75 0 .41-.34.75-.75.75H2c-.42 0-.75-.34-.75-.75Z"/><path d="M7.76 1.28c.39-.14.81.08.94.47l1.99 6c.13.39-.09.81-.48.94 -.4.13-.82-.09-.95-.48l-2-6c-.14-.4.08-.82.47-.95Z"/><path d="M13.763 1.28c.39-.14.81.08.94.47l2 6c.13.39-.09.81-.48.94 -.4.13-.82-.09-.95-.48l-2-6c-.14-.4.08-.82.47-.95Z"/></g></svg>