<svg viewBox="0 0 24 24" xmlns="http://www.w3.org/2000/svg"><path fill-rule="evenodd" d="M2.25 5c0-2.08 1.67-3.75 3.75-3.75 2.01 0 3.65 1.58 3.74 3.56l2.94-2.65c.65-.6 1.51-.93 2.4-.93 3.01 0 4.68 3.48 2.8 5.83l-3.94 4.91 3.97 4.97c1.86 2.32.2 5.77-2.78 5.77 -.95 0-1.85-.38-2.52-1.05l-2.9-2.9v.18c0 2.07-1.68 3.75-3.75 3.75 -2.08 0-3.75-1.68-3.75-3.75v-1c0-.42.33-.75.75-.75 .41 0 .75.33.75.75v1c0 1.24 1 2.25 2.25 2.25 1.24 0 2.25-1.01 2.25-2.25v-2c0-.31.18-.58.46-.7s.6-.06.81.16l4.17 4.17c.38.38.9.6 1.45.6 1.72 0 2.68-2 1.6-3.34l-4.36-5.45c-.22-.28-.22-.67 0-.94l4.3-5.39c1.09-1.37.12-3.4-1.64-3.4 -.52 0-1.02.19-1.4.53L9.41 6.95c-.23.19-.54.24-.81.12 -.28-.13-.45-.39-.45-.69v-1.5c0-1.25-1.01-2.25-2.25-2.25 -1.25 0-2.25 1-2.25 2.25v9c0 .41-.34.75-.75.75 -.42 0-.75-.34-.75-.75v-9Z"/></svg>