<svg viewBox="0 0 24 24" xmlns="http://www.w3.org/2000/svg"><path fill-rule="evenodd" d="M1.25 6.5c0-2.9 2.35-5.25 5.25-5.25h10c2.89 0 5.25 2.35 5.25 5.25v9c0 .41-.34.75-.75.75 -.42 0-.75-.34-.75-.75v-9c0-2.08-1.68-3.75-3.75-3.75h-10c-2.08 0-3.75 1.67-3.75 3.75v11c0 2.07 1.67 3.75 3.75 3.75h6.75v-2.5H9c-2.08 0-3.75-1.68-3.75-3.75V9c0-2.08 1.67-3.75 3.75-3.75h5c2.07 0 3.75 1.67 3.75 3.75v12.25h2.5V19.5c0-.42.33-.75.75-.75 .41 0 .75.33.75.75V22c0 .41-.34.75-.75.75h-4c-.42 0-.75-.34-.75-.75V9c0-1.25-1.01-2.25-2.25-2.25H9c-1.25 0-2.25 1-2.25 2.25v6c0 1.24 1 2.25 2.25 2.25h5c.41 0 .75.33.75.75v4c0 .41-.34.75-.75.75H6.5c-2.9 0-5.25-2.36-5.25-5.25v-11Z"/></svg>