<svg viewBox="0 0 24 24" xmlns="http://www.w3.org/2000/svg"><g fill-rule="evenodd"><path d="M3.78 3.28c.09-.32.38-.54.71-.54h15c.33 0 .62.21.71.53l1.5 5c.02.06.03.14.03.21 0 2.07-1.68 3.75-3.75 3.75 -1.23 0-2.32-.59-3-1.5 -.69.91-1.78 1.49-3 1.49 -1.23 0-2.32-.59-3-1.5 -.69.91-1.78 1.49-3 1.49 -2.08 0-3.75-1.68-3.75-3.75 0-.08.01-.15.03-.22l1.5-5Zm5.96 5.21c0 1.24 1 2.25 2.25 2.25 1.24 0 2.25-1.01 2.25-2.25 0-.42.33-.75.75-.75 .41 0 .75.33.75.75 0 1.24 1 2.25 2.25 2.25 1.2 0 2.19-.96 2.24-2.15l-1.31-4.36H5.03L3.72 8.58c.05 1.19 1.03 2.14 2.24 2.14 1.24 0 2.25-1.01 2.25-2.25 0-.42.33-.75.75-.75 .41 0 .75.33.75.75Z"/><path d="M4 10.25c.41 0 .75.33.75.75v8.75H6.5c.41 0 .75.33.75.75 0 .41-.34.75-.75.75H4c-.42 0-.75-.34-.75-.75V11c0-.42.33-.75.75-.75Zm16 0c.41 0 .75.33.75.75v9.5c0 .41-.34.75-.75.75h-9.5c-.42 0-.75-.34-.75-.75 0-.42.33-.75.75-.75h8.75V11c0-.42.33-.75.75-.75Z"/></g></svg>