<svg viewBox="0 0 24 24" xmlns="http://www.w3.org/2000/svg"><g fill-rule="evenodd"><path d="M1.56 4.39c.19-.15.44-.18.67-.11l6 2c.3.1.51.38.51.71v12c0 .24-.12.46-.32.6 -.2.14-.45.17-.68.1l-6-2c-.31-.11-.52-.39-.52-.72v-2c0-.42.33-.75.75-.75 .41 0 .75.33.75.75v1.45l4.5 1.5V7.5L2.72 6v4.95c0 .41-.34.75-.75.75 -.42 0-.75-.34-.75-.75V4.94c0-.25.11-.47.31-.61Z"/><path d="M15.28 4.76c.13-.4.55-.61.94-.48l6 2c.3.1.51.38.51.71v12c0 .24-.12.46-.32.6 -.2.14-.45.17-.68.1l-6-2c-.31-.11-.52-.39-.52-.72v-5.5c0-.42.33-.75.75-.75 .41 0 .75.33.75.75v4.95l4.5 1.5V7.5l-5.49-1.83c-.4-.14-.61-.56-.48-.95Z"/><path d="M7.71 6.3c.28-.12.6-.06.81.16l5.99 6c.23.23.28.58.13.87 -.15.28-.47.45-.8.39l-6-1c-.37-.07-.63-.38-.63-.74V6.97c0-.31.18-.58.46-.7Zm1.03 2.5v2.55l3.06.51 -3.07-3.07Z"/><path d="M15.584 4.37c.19-.13.43-.17.65-.09l6 2c.26.08.45.31.5.59 .04.27-.07.55-.3.72l-8 6c-.3.22-.72.19-.99-.07l-4.01-4c-.16-.16-.24-.39-.22-.61 .02-.23.14-.43.33-.56l6-4Zm.52 1.45L11.16 9.1l2.89 2.89 6.33-4.76 -4.3-1.44Z"/></g></svg>