<svg viewBox="0 0 24 24" xmlns="http://www.w3.org/2000/svg"><g fill-rule="evenodd"><path d="M12 3.75c-4.65 0-8.25 3.32-8.25 7.25 0 2.34 1.27 4.45 3.29 5.79 .34.22.44.69.21 1.03 -.23.34-.7.44-1.04.21 -2.39-1.58-3.97-4.14-3.97-7.05 0-4.92 4.45-8.75 9.75-8.75 5.29 0 9.75 3.83 9.75 8.75 0 .76-.11 1.5-.32 2.2 -.12.39-.54.62-.93.51 -.4-.12-.63-.54-.52-.93 .16-.58.25-1.18.25-1.8 0-3.93-3.61-7.25-8.25-7.25Zm6.54 12.78c.25.32.19.79-.13 1.05 -1.73 1.34-3.97 2.15-6.42 2.15 -.23 0-.45-.01-.67-.03 -.42-.03-.73-.39-.71-.8 .02-.42.38-.73.79-.71 .19.01.38.01.57.01 2.11 0 4.03-.7 5.48-1.84 .32-.26.79-.2 1.05.12Z"/><path d="M6.56 16.75c.41-.04.77.27.8.68l.26 3.19 3.21-2.26c.33-.24.8-.16 1.04.18 .23.33.15.8-.19 1.04l-4.29 3c-.22.15-.51.17-.75.06 -.25-.12-.41-.35-.43-.62l-.375-4.5c-.04-.42.27-.78.68-.81Z"/><path d="M9.91 7.53c.24-.31.67-.38 1-.16l2.63 1.75 3.61-1.81c.3-.16.68-.08.9.18 .22.26.23.64.03.92l-4 5.49c-.24.32-.69.4-1.03.18l-2.69-1.79 -3.65 1.36c-.32.11-.68.01-.88-.27 -.2-.28-.19-.65.02-.91l4-5.01Zm5.17 2.51l-1.25.62c-.25.12-.53.1-.76-.05l-2.43-1.62 -1.87 2.33 1.44-.55c.22-.09.47-.06.67.07l2.4 1.6L15.04 10Z"/></g></svg>