<svg viewBox="0 0 24 24" xmlns="http://www.w3.org/2000/svg"><path fill-rule="evenodd" d="M7.7 6.75c-1.34 0-2.54.8-3.06 2.03 -.45 1.06-1.04 3.66-1.3 4.88 -.08.35-.12.67-.09.97 .08.92.37 1.41.69 1.68 .32.27.8.42 1.42.42 .73 0 1.42-.39 1.81-1.01l1.64-2.64 2.26-3.78 -.59-.98c-.6-1-1.68-1.61-2.84-1.61Zm4.29 1.12l-.18-.3c-.87-1.45-2.44-2.34-4.13-2.34 -1.95 0-3.69 1.16-4.44 2.95 -.51 1.22-1.13 3.98-1.38 5.15 -.1.43-.16.91-.12 1.41 .1 1.19.51 2.1 1.21 2.69 .69.58 1.56.77 2.39.77 1.25 0 2.42-.65 3.09-1.72l1.64-2.64 1.86-3.11 1.85 3.09 1.65 2.65c.66 1.06 1.83 1.71 3.09 1.71 .93 0 1.88-.27 2.59-1.01 .7-.74 1.05-1.83 1.05-3.25 0-.35-.06-.74-.13-1.14 -.08-.41-.47-.68-.88-.61 -.41.07-.68.46-.61.87 .06.35.09.64.09.86 0 1.18-.3 1.84-.65 2.2 -.35.35-.85.54-1.51.54 -.74 0-1.43-.39-1.82-1.01L15 12.99l-2.27-3.78 .58-.98c.59-1 1.67-1.61 2.83-1.61 1.3 0 2.49.77 3.02 1.96 .01.03.03.08.05.13 .03.08.08.22.14.4 .13.39.56.59.95.45 .39-.14.59-.57.45-.96 -.07-.19-.13-.34-.16-.43 -.03-.07-.06-.15-.09-.23 -.77-1.74-2.49-2.86-4.4-2.86 -1.69 0-3.26.88-4.13 2.33l-.18.29Z"/></svg>