<svg viewBox="0 0 24 24" xmlns="http://www.w3.org/2000/svg"><g fill-rule="evenodd"><path d="M11.43 2.39c.19.14.31.36.31.6v15c0 .24-.12.46-.32.6 -.2.14-.45.17-.68.1l-9-3c-.31-.11-.52-.39-.52-.72v-9c0-.33.2-.61.51-.72l2-.67c.39-.14.81.08.94.47 .13.39-.09.81-.48.94l-1.49.49v7.91l7.5 2.5V3.97l-2.02.67c-.4.13-.82-.09-.95-.48 -.14-.4.08-.82.47-.95l2.99-1c.22-.08.48-.04.67.1Z"/><path d="M3.75 8.5c0-.42.33-.75.75-.75h4c.41 0 .75.33.75.75 0 .41-.34.75-.75.75H7.25V13c0 .41-.34.75-.75.75 -.42 0-.75-.34-.75-.75V9.25H4.5c-.42 0-.75-.34-.75-.75Z"/><path d="M14.5 6.25c-.42 0-.75.33-.75.75 0 .41.33.75.75.75 .41 0 .75-.34.75-.75 0-.42-.34-.75-.75-.75ZM12.25 7c0-1.25 1-2.25 2.25-2.25 1.24 0 2.25 1 2.25 2.25 0 1.24-1.01 2.25-2.25 2.25 -1.25 0-2.25-1.01-2.25-2.25Z"/><path d="M20 7.75c-.42 0-.75.33-.75.75 0 .41.33.75.75.75 .41 0 .75-.34.75-.75 0-.42-.34-.75-.75-.75Zm-2.25.75c0-1.25 1-2.25 2.25-2.25 1.24 0 2.25 1 2.25 2.25 0 1.24-1.01 2.25-2.25 2.25 -1.25 0-2.25-1.01-2.25-2.25Z"/><path d="M12.25 11c0-.42.33-.75.75-.75h3.5c.41 0 .75.33.75.75v3.5c0 1.79-1.46 3.25-3.25 3.25h-1c-.42 0-.75-.34-.75-.75 0-.42.33-.75.75-.75h1c.96 0 1.75-.79 1.75-1.75v-2.75H13c-.42 0-.75-.34-.75-.75Z"/><path d="M17.75 12.5c0-.42.33-.75.75-.75H22c.41 0 .75.33.75.75v2c0 1.79-1.46 3.25-3.25 3.25h-1c-.42 0-.75-.34-.75-.75 0-.42.33-.75.75-.75h1c.96 0 1.75-.79 1.75-1.75v-1.25H18.5c-.42 0-.75-.34-.75-.75Z"/></g></svg>