<svg viewBox="0 0 24 24" xmlns="http://www.w3.org/2000/svg"><path fill-rule="evenodd" d="M1.25 3c0-.42.33-.75.75-.75h20c.41 0 .75.33.75.75v9c0 1.51-1.24 2.75-2.75 2.75 -1.52 0-2.75-1.24-2.75-2.75v-1c0-.7-.56-1.25-1.25-1.25 -.7 0-1.25.55-1.25 1.25v4c0 1.51-1.24 2.75-2.75 2.75 -1.52 0-2.75-1.24-2.75-2.75V9c0-.7-.56-1.25-1.25-1.25 -.7 0-1.25.55-1.25 1.25v10c0 1.51-1.24 2.75-2.75 2.75 -1.52 0-2.75-1.24-2.75-2.75V9c0-.42.33-.75.75-.75 .41 0 .75.33.75.75v10c0 .69.55 1.25 1.25 1.25 .69 0 1.25-.56 1.25-1.25V9c0-1.52 1.23-2.75 2.75-2.75 1.51 0 2.75 1.23 2.75 2.75v6c0 .69.55 1.25 1.25 1.25 .69 0 1.25-.56 1.25-1.25v-4c0-1.52 1.23-2.75 2.75-2.75 1.51 0 2.75 1.23 2.75 2.75v1c0 .69.55 1.25 1.25 1.25 .69 0 1.25-.56 1.25-1.25V3.75H2.75V5c0 .41-.34.75-.75.75 -.42 0-.75-.34-.75-.75V3Z"/></svg>