<svg viewBox="0 0 24 24" xmlns="http://www.w3.org/2000/svg"><g fill-rule="evenodd"><path d="M1.25 5.5c0-2.35 1.9-4.25 4.25-4.25H8c.41 0 .75.33.75.75 0 .41-.34.75-.75.75H5.5c-1.52 0-2.75 1.23-2.75 2.75V8c0 .41-.34.75-.75.75 -.42 0-.75-.34-.75-.75V5.5Zm14-3.5c0-.42.33-.75.75-.75h2.5c2.34 0 4.25 1.9 4.25 4.25V8c0 .41-.34.75-.75.75 -.42 0-.75-.34-.75-.75V5.5c0-1.52-1.24-2.75-2.75-2.75H16c-.42 0-.75-.34-.75-.75ZM2 15.25c.41 0 .75.33.75.75v2.5c0 1.51 1.23 2.75 2.75 2.75H8c.41 0 .75.33.75.75 0 .41-.34.75-.75.75H5.5c-2.35 0-4.25-1.91-4.25-4.25V16c0-.42.33-.75.75-.75Zm20 0c.41 0 .75.33.75.75v2c0 .41-.34.75-.75.75 -.42 0-.75-.34-.75-.75v-2c0-.42.33-.75.75-.75ZM15.25 22c0-.42.33-.75.75-.75h2.5c.41 0 .75.33.75.75 0 .41-.34.75-.75.75H16c-.42 0-.75-.34-.75-.75Z"/><path d="M3.75 6.5c0-1.52 1.23-2.75 2.75-2.75h2c1.51 0 2.75 1.23 2.75 2.75v2c0 1.51-1.24 2.75-2.75 2.75h-2c-1.52 0-2.75-1.24-2.75-2.75v-2ZM6.5 5.25c-.7 0-1.25.55-1.25 1.25v2c0 .69.55 1.25 1.25 1.25h2c.69 0 1.25-.56 1.25-1.25v-2c0-.7-.56-1.25-1.25-1.25h-2Z"/><path d="M3.75 15.5c0-1.52 1.23-2.75 2.75-2.75h2c1.51 0 2.75 1.23 2.75 2.75v2c0 1.51-1.24 2.75-2.75 2.75h-2c-1.52 0-2.75-1.24-2.75-2.75v-2Zm2.75-1.25c-.7 0-1.25.55-1.25 1.25v2c0 .69.55 1.25 1.25 1.25h2c.69 0 1.25-.56 1.25-1.25v-2c0-.7-.56-1.25-1.25-1.25h-2Z"/><path d="M12.75 6.5c0-1.52 1.23-2.75 2.75-2.75h2c1.51 0 2.75 1.23 2.75 2.75v2c0 1.51-1.24 2.75-2.75 2.75h-2c-1.52 0-2.75-1.24-2.75-2.75v-2Zm2.75-1.25c-.7 0-1.25.55-1.25 1.25v2c0 .69.55 1.25 1.25 1.25h2c.69 0 1.25-.56 1.25-1.25v-2c0-.7-.56-1.25-1.25-1.25h-2Z"/><path d="M12.75 15.5c0-1.52 1.23-2.75 2.75-2.75h2c1.51 0 2.75 1.23 2.75 2.75v2c0 1.51-1.24 2.75-2.75 2.75h-2c-1.52 0-2.75-1.24-2.75-2.75v-2Zm2.75-1.25c-.7 0-1.25.55-1.25 1.25v2c0 .69.55 1.25 1.25 1.25h2c.69 0 1.25-.56 1.25-1.25v-2c0-.7-.56-1.25-1.25-1.25h-2Z"/></g></svg>