<svg viewBox="0 0 24 24" xmlns="http://www.w3.org/2000/svg"><g fill-rule="evenodd"><path d="M11.99 1.25c.25 0 .49.12.63.34l3.25 5.06 5.81 1.52c.24.06.44.25.52.49 .07.24.02.5-.14.7l-3.81 4.65 .34 6c.01.25-.11.49-.31.64 -.21.15-.48.18-.72.09l-5.88-2.3c-.39-.16-.58-.59-.43-.98 .15-.39.58-.58.97-.43L17 18.89l-.3-5.14c-.02-.19.04-.38.16-.52l3.25-3.98 -4.98-1.31c-.19-.05-.34-.17-.45-.33L11.9 3.28 9.12 7.6c-.11.15-.26.27-.45.32l-4.98 1.3 3.25 3.97c.11.14.17.33.16.51l-.3 5.13 .74-.3c.38-.16.82.04.97.42 .15.38-.05.82-.43.97l-1.84.71c-.24.09-.51.05-.72-.1 -.21-.15-.33-.4-.31-.65l.34-6.01 -3.81-4.66c-.17-.2-.22-.47-.14-.71 .07-.25.27-.43.52-.5l5.81-1.53 3.25-5.07c.13-.22.37-.35.63-.35Z"/><path d="M7.25 10c0-.42.33-.75.75-.75h7c.31 0 .59.19.7.49 .1.29.01.62-.23.83l-4.41 3.67h6.42c.41 0 .75.33.75.75 0 .41-.34.75-.75.75h-8.5c-.32 0-.6-.2-.71-.5 -.11-.3-.02-.63.22-.84l4.4-3.68H7.96c-.42 0-.75-.34-.75-.75Z"/></g></svg>