<svg viewBox="0 0 24 24" xmlns="http://www.w3.org/2000/svg"><g fill-rule="evenodd"><path d="M1.25 5c0-2.08 1.67-3.75 3.75-3.75h14c2.07 0 3.75 1.67 3.75 3.75v14c0 2.07-1.68 3.75-3.75 3.75h-8c-.42 0-.75-.34-.75-.75 0-.42.33-.75.75-.75h8c1.24 0 2.25-1.01 2.25-2.25V5c0-1.25-1.01-2.25-2.25-2.25H5c-1.25 0-2.25 1-2.25 2.25v14c0 1.24 1 2.25 2.25 2.25h2c.41 0 .75.33.75.75 0 .41-.34.75-.75.75H5c-2.08 0-3.75-1.68-3.75-3.75V5Z"/><path d="M4.25 7c0-.42.33-.75.75-.75h8c.41 0 .75.33.75.75v3c0 .41-.34.75-.75.75h-1.75V18c0 .41-.34.75-.75.75h-3c-.42 0-.75-.34-.75-.75v-7.25H5c-.42 0-.75-.34-.75-.75V7Zm1.5.75v1.5H7.5c.41 0 .75.33.75.75v7.25h1.5V10c0-.42.33-.75.75-.75h1.75v-1.5h-6.5Z"/><path d="M15.25 7c0-.42.33-.75.75-.75h3c.41 0 .75.33.75.75v6c0 .41-.34.75-.75.75h-3c-.42 0-.75-.34-.75-.75V7Zm1.5.75v4.5h1.5v-4.5h-1.5Z"/><path d="M15.25 15.5c0-.42.33-.75.75-.75h3c.41 0 .75.33.75.75V18c0 .41-.34.75-.75.75h-3c-.42 0-.75-.34-.75-.75v-2.5Zm1.5.75v1h1.5v-1h-1.5Z"/></g></svg>