<svg viewBox="0 0 24 24" xmlns="http://www.w3.org/2000/svg"><g fill-rule="evenodd"><path d="M8.25 10.8c-2.55.36-4.5 2.55-4.5 5.19 0 .61.1 1.2.29 1.75 .13.39-.07.81-.46.95 -.4.13-.82-.07-.96-.46 -.25-.71-.39-1.47-.39-2.25 0-3.73 3.02-6.75 6.75-6.75 .41 0 .75.33.75.75v3c0 .41-.34.75-.75.75 -1.25 0-2.25 1-2.25 2.25 0 1.24 1 2.25 2.25 2.25 1.24 0 2.25-1.01 2.25-2.25 0-.42.33-.75.75-.75 .41 0 .75.33.75.75 0 2.07-1.68 3.75-3.75 3.75 -2.08 0-3.75-1.68-3.75-3.75 0-1.82 1.28-3.33 3-3.68v-1.53ZM15 15.24c.41 0 .75.33.75.75 0 3.72-3.03 6.75-6.75 6.75 -.39 0-.76-.04-1.13-.1 -.39-.07-.77-.17-1.13-.3 -.4-.14-.6-.57-.46-.96 .13-.4.56-.6.95-.46 .28.09.57.17.87.22 .28.04.57.07.87.07 2.89 0 5.25-2.36 5.25-5.25 0-.42.33-.75.75-.75Z"/><path d="M11.25 2c0-.42.33-.75.75-.75h3c.41 0 .75.33.75.75 0 .41-.34.75-.75.75h-2.25V16c0 .41-.34.75-.75.75 -.42 0-.75-.34-.75-.75V2ZM15 8.25c.41 0 .75.33.75.75v7c0 .41-.34.75-.75.75 -.42 0-.75-.34-.75-.75V9c0-.42.33-.75.75-.75Z"/><path d="M11.25 2c0-.42.33-.75.75-.75h3c.41 0 .75.33.75.75 0 2.89 2.35 5.25 5.25 5.25 .41 0 .75.33.75.75v3c0 .41-.34.75-.75.75 -2.5 0-4.78-.94-6.51-2.49 -.31-.28-.34-.76-.06-1.06 .27-.31.75-.34 1.05-.06 1.28 1.15 2.93 1.9 4.74 2.06V8.69c-3.13-.35-5.62-2.84-5.96-5.96h-2.3c-.42 0-.75-.34-.75-.75Z"/></g></svg>