<svg viewBox="0 0 24 24" xmlns="http://www.w3.org/2000/svg"><g fill-rule="evenodd"><path d="M22.69 5.72c.15.38-.04.82-.42.97l-7.5 2.99c-1.75.69-3.61 1.05-5.48 1.05H1.98c-.42 0-.75-.34-.75-.75 0-.42.33-.75.75-.75h7.3c1.68 0 3.35-.33 4.92-.95l7.49-3c.38-.16.82.03.97.41Z"/><path d="M22.69 9.72c.15.38-.04.82-.42.97l-7.5 2.99c-1.75.69-3.61 1.05-5.48 1.05H1.98c-.42 0-.75-.34-.75-.75 0-.42.33-.75.75-.75h7.3c1.68 0 3.35-.33 4.92-.95l7.49-3c.38-.16.82.03.97.41Z"/><path d="M22.69 13.72c.15.38-.04.82-.42.97l-7.5 2.99c-1.75.69-3.61 1.05-5.48 1.05h-.31c-.42 0-.75-.34-.75-.75 0-.42.33-.75.75-.75h.3c1.68 0 3.35-.33 4.92-.95l7.49-3c.38-.16.82.03.97.41ZM1.24 17.99c0-.42.33-.75.75-.75h3c.41 0 .75.33.75.75 0 .41-.34.75-.75.75h-3c-.42 0-.75-.34-.75-.75Z"/></g></svg>