<svg viewBox="0 0 24 24" xmlns="http://www.w3.org/2000/svg"><g fill-rule="evenodd"><path d="M4.51 1.75c-1.25-.01-2.27 1-2.27 2.24v11.55c0 1.24 1 2.25 2.25 2.25h3.68l3.28 3.28c.29.29.76.29 1.06 0l3.28-3.29h3.68c1.24 0 2.25-1.01 2.25-2.25V4.02c0-1.25-1.01-2.25-2.25-2.25l-9.51-.03c-.42-.01-.76.33-.76.74 -.01.41.33.75.74.75l9.5.02c.41 0 .74.33.74.75V15.51c0 .41-.34.75-.75.75h-4c-.2 0-.39.07-.54.21l-2.97 2.96 -2.97-2.97c-.15-.15-.34-.22-.54-.22h-4c-.42 0-.75-.34-.75-.75V3.93c0-.42.33-.76.75-.75l1.49 0c.41 0 .75-.34.75-.75 0-.42-.34-.76-.75-.76l-1.5-.01Z"/><path d="M9.25 9.5c0-1.25 1-2.25 2.25-2.25h1c1.24 0 2.25 1 2.25 2.25v1c0 1.24-1.01 2.25-2.25 2.25h-1c-1.25 0-2.25-1.01-2.25-2.25v-1Zm2.25-.75c-.42 0-.75.33-.75.75v1c0 .41.33.75.75.75h1c.41 0 .75-.34.75-.75v-1c0-.42-.34-.75-.75-.75h-1Z"/><path d="M5.75 10c0-3.18 2.57-5.75 5.75-5.75H14c2.34 0 4.25 1.9 4.25 4.25v1.75c0 1.38-1.12 2.5-2.5 2.5 -1.39 0-2.5-1.12-2.5-2.5V10c0-.42.33-.75.75-.75 .41 0 .75.33.75.75v.25c0 .55.44 1 1 1 .55 0 1-.45 1-1V8.5c0-1.52-1.24-2.75-2.75-2.75h-2.5c-2.35 0-4.25 1.9-4.25 4.25 0 2.34 1.9 4.25 4.25 4.25h2.31c.65 0 1.31-.16 1.9-.45l.94-.48c.37-.19.82-.04 1 .33 .18.37.03.82-.34 1l-.95.47c-.8.39-1.68.6-2.58.6h-2.32c-3.18 0-5.75-2.58-5.75-5.75Z"/></g></svg>