<svg viewBox="0 0 24 24" xmlns="http://www.w3.org/2000/svg"><g fill-rule="evenodd"><path d="M17 15.25c-.42 0-.75.33-.75.75 0 .41.33.75.75.75 .41 0 .75-.34.75-.75 0-.42-.34-.75-.75-.75Zm-2.25.75c0-1.25 1-2.25 2.25-2.25 1.24 0 2.25 1 2.25 2.25 0 1.24-1.01 2.25-2.25 2.25 -1.25 0-2.25-1.01-2.25-2.25Z"/><path d="M7 5.25c-.42 0-.75.33-.75.75 0 .41.33.75.75.75 .41 0 .75-.34.75-.75 0-.42-.34-.75-.75-.75ZM4.75 6c0-1.25 1-2.25 2.25-2.25 1.24 0 2.25 1 2.25 2.25 0 1.24-1.01 2.25-2.25 2.25 -1.25 0-2.25-1.01-2.25-2.25Z"/><path d="M17 18.25c-1.41 0-2.6.88-3.06 2.13 -.15.38-.58.58-.97.44 -.39-.15-.59-.58-.45-.97 .66-1.83 2.41-3.122 4.46-3.122s3.79 1.3 4.46 3.122c.14.38-.06.81-.45.96 -.39.14-.82-.06-.97-.45 -.46-1.25-1.66-2.14-3.06-2.14Z"/><path d="M7 8.25c-1.39 0-2.57.86-3.04 2.08 -.15.38-.59.57-.97.43 -.39-.15-.58-.59-.44-.97C3.23 8 4.96 6.74 6.98 6.74c2.13 0 3.93 1.4 4.53 3.34 .12.39-.1.81-.5.93s-.82-.1-.94-.5c-.42-1.33-1.65-2.29-3.11-2.29Z"/><path d="M17 12.75c-2.35 0-4.25 1.9-4.25 4.25 0 2.34 1.9 4.25 4.25 4.25 2.34 0 4.25-1.91 4.25-4.25 0-.42.33-.75.75-.75 .41 0 .75.33.75.75 0 3.17-2.58 5.75-5.75 5.75 -3.18 0-5.75-2.58-5.75-5.75 0-3.18 2.57-5.75 5.75-5.75 1.29 0 2.48.42 3.45 1.15 .33.24.39.71.14 1.05 -.25.33-.72.39-1.06.14 -.72-.54-1.6-.85-2.55-.85Z"/><path d="M7 2.75c-2.35 0-4.25 1.9-4.25 4.25 0 2.34 1.9 4.25 4.25 4.25 2.34 0 4.25-1.91 4.25-4.25 0-2.35-1.91-4.25-4.25-4.25ZM1.25 7c0-3.18 2.57-5.75 5.75-5.75 3.17 0 5.75 2.57 5.75 5.75 0 3.17-2.58 5.75-5.75 5.75 -3.18 0-5.75-2.58-5.75-5.75Z"/><path d="M6 15.75c-.7 0-1.25.55-1.25 1.25 0 .69.55 1.25 1.25 1.25 .69 0 1.25-.56 1.25-1.25 0-.7-.56-1.25-1.25-1.25ZM3.25 17c0-1.52 1.23-2.75 2.75-2.75 1.51 0 2.75 1.23 2.75 2.75 0 1.51-1.24 2.75-2.75 2.75 -1.52 0-2.75-1.24-2.75-2.75Z"/><path d="M18 5.75c.69 0 1.25.55 1.25 1.25 0 .69-.56 1.25-1.25 1.25 -.7 0-1.25-.56-1.25-1.25 0-.7.55-1.25 1.25-1.25ZM20.75 7c0-1.52-1.24-2.75-2.75-2.75 -1.52 0-2.75 1.23-2.75 2.75 0 1.51 1.23 2.75 2.75 2.75 1.51 0 2.75-1.24 2.75-2.75Z"/><path d="M7.25 17c0-.42.33-.75.75-.75h4c.41 0 .75.33.75.75 0 .41-.34.75-.75.75H8c-.42 0-.75-.34-.75-.75Z"/><path d="M16.75 7c0-.42-.34-.75-.75-.75h-4c-.42 0-.75.33-.75.75 0 .41.33.75.75.75h4c.41 0 .75-.34.75-.75Z"/><path d="M9.96 9.96c.29-.3.76-.3 1.06 0l2.83 2.83c.29.29.29.76 0 1.06 -.3.29-.77.29-1.07 0l-2.84-2.84c-.3-.3-.3-.77 0-1.07Z"/></g></svg>