<svg viewBox="0 0 24 24" xmlns="http://www.w3.org/2000/svg"><path fill-rule="evenodd" d="M1.25 4c0-.42.33-.75.75-.75h4c.41 0 .75.33.75.75v9c0 .69.55 1.25 1.25 1.25h1.25V4c0-.42.33-.75.75-.75h4c.41 0 .75.33.75.75v10.25h2.5V4c0-.42.33-.75.75-.75h4c.41 0 .75.33.75.75v2c0 .41-.34.75-.75.75 -.42 0-.75-.34-.75-.75V4.75h-2.5V15c0 .41-.34.75-.75.75h-4c-.42 0-.75-.34-.75-.75V4.75h-2.5V15c0 .41-.34.75-.75.75H8c-1.52 0-2.75-1.24-2.75-2.75V4.75h-2.5V16c0 1.79 1.45 3.25 3.25 3.25h15.25V10c0-.42.33-.75.75-.75 .41 0 .75.33.75.75v10c0 .41-.34.75-.75.75H6c-2.63 0-4.75-2.13-4.75-4.75V4Z"/></svg>