<svg viewBox="0 0 24 24" xmlns="http://www.w3.org/2000/svg"><g fill-rule="evenodd"><path d="M3 6.25c-.14 0-.25.11-.25.25v11c0 .13.11.25.25.25h14c.13 0 .25-.12.25-.25V11c0-.16.05-.32.14-.45l3.13-4.31H7.99c-.42 0-.75-.34-.75-.75 0-.42.33-.75.75-.75h14c.28 0 .54.15.66.4s.1.55-.07.78l-3.86 5.3v6.25c0 .96-.79 1.75-1.75 1.75h-14c-.97 0-1.75-.79-1.75-1.75v-11c0-.97.78-1.75 1.75-1.75h1c.41 0 .75.33.75.75 0 .41-.34.75-.75.75h-1Z"/><path d="M4.25 10c0-.42.33-.75.75-.75h10c.41 0 .75.33.75.75 0 .41-.34.75-.75.75H5c-.42 0-.75-.34-.75-.75Z"/><path d="M4.25 14c0-.42.33-.75.75-.75h7c.41 0 .75.33.75.75 0 .41-.34.75-.75.75H5c-.42 0-.75-.34-.75-.75Z"/></g></svg>