<svg viewBox="0 0 24 24" xmlns="http://www.w3.org/2000/svg"><g fill-rule="evenodd"><path d="M5.12 4.34c.22-.13.49-.14.72-.01l6.14 3.3 6.14-3.31c.22-.13.5-.12.72 0l3.5 2c.23.13.37.38.37.65v7.5c0 .29-.18.56-.45.68l-3.34 1.5c-.38.17-.83 0-1-.38 -.17-.38-.01-.83.37-1l2.89-1.31V7.38L18.41 5.8l-6.14 3.3c-.23.11-.49.11-.72 0L5.41 5.79 2.64 7.36v6.57l9.25 4.16 2.19-.99c.37-.17.82-.01.99.37 .17.37 0 .82-.38.99l-2.5 1.125c-.2.08-.42.08-.62 0l-10-4.5c-.27-.13-.45-.39-.45-.69v-7.5c0-.27.14-.52.37-.66l3.5-2Z"/><path d="M3.75 11.5c0-.42.33-.75.75-.75h5c.41 0 .75.33.75.75 0 .41-.34.75-.75.75h-5c-.42 0-.75-.34-.75-.75Z"/><path d="M7 14.75c-.42 0-.75-.34-.75-.75V9c0-.42.33-.75.75-.75 .41 0 .75.33.75.75v5c0 .41-.34.75-.75.75Z"/><path d="M14.75 13c0-.42.33-.75.75-.75h2c.41 0 .75.33.75.75 0 .41-.34.75-.75.75h-2c-.42 0-.75-.34-.75-.75Z"/><path d="M16.75 10c0-.42.33-.75.75-.75h2c.41 0 .75.33.75.75 0 .41-.34.75-.75.75h-2c-.42 0-.75-.34-.75-.75Z"/></g></svg>