<svg viewBox="0 0 24 24" xmlns="http://www.w3.org/2000/svg"><g fill-rule="evenodd"><path d="M9.65 7.83c.24-.13.54-.11.77.05l5 3.5c.2.14.31.36.31.61 0 .24-.12.47-.32.61l-5 3.5c-.23.16-.53.18-.78.05s-.41-.39-.41-.67v-7c0-.28.15-.54.4-.67Zm1.09 2.1v4.11l2.94-2.06 -2.95-2.06Z"/><path d="M12 2.75c-5.11 0-9.25 4.14-9.25 9.25 0 5.1 4.14 9.25 9.25 9.25 2.08 0 4-.69 5.54-1.85 .33-.25.8-.19 1.05.14 .24.33.18.8-.15 1.05 -1.8 1.34-4.04 2.14-6.46 2.14 -5.94 0-10.75-4.82-10.75-10.75 0-5.94 4.81-10.75 10.75-10.75 5.93 0 10.75 4.81 10.75 10.75 0 1.52-.32 2.98-.9 4.3 -.17.37-.61.55-.99.38 -.38-.17-.56-.61-.39-.99 .49-1.14.76-2.39.76-3.7 0-5.11-4.15-9.25-9.25-9.25Z"/><path d="M12 6.25c-3.18 0-5.75 2.57-5.75 5.75 0 3.17 2.57 5.75 5.75 5.75 3.17 0 5.75-2.58 5.75-5.75 0-3.18-2.58-5.75-5.75-5.75ZM4.75 12c0-4.01 3.24-7.25 7.25-7.25 4 0 7.25 3.24 7.25 7.25 0 4-3.25 7.25-7.25 7.25 -4.01 0-7.25-3.25-7.25-7.25Z"/></g></svg>