<svg viewBox="0 0 24 24" xmlns="http://www.w3.org/2000/svg"><g fill-rule="evenodd"><path d="M5 2.75c-1.25 0-2.25 1-2.25 2.25v14c0 1.24 1 2.25 2.25 2.25h14c1.24 0 2.25-1.01 2.25-2.25V5c0-1.25-1.01-2.25-2.25-2.25h-8.5c-.42 0-.75-.34-.75-.75 0-.42.33-.75.75-.75H19c2.07 0 3.75 1.67 3.75 3.75v14c0 2.07-1.68 3.75-3.75 3.75H5c-2.08 0-3.75-1.68-3.75-3.75V5c0-2.08 1.67-3.75 3.75-3.75h1.5c.41 0 .75.33.75.75 0 .41-.34.75-.75.75H5Z"/><path d="M16.94 11.58c.38-.15.81.05.96.44 .25.7.37 1.46.34 2.21 -.04.75-.22 1.49-.54 2.17 -.32.68-.77 1.29-1.33 1.8s-1.21.9-1.92 1.16c-.71.25-1.47.37-2.22.34 -.76-.04-1.5-.22-2.18-.54 -.69-.32-1.3-.77-1.81-1.33 -.52-.56-.91-1.21-1.17-1.92 -.15-.39.05-.82.44-.97l9.39-3.43Zm-8.12 4.55c.15.26.33.51.54.73 .37.41.83.74 1.33.98 .5.23 1.05.36 1.61.39 .55.02 1.11-.07 1.63-.26 .52-.2 1-.49 1.41-.87 .41-.38.74-.84.98-1.34 .23-.51.36-1.06.39-1.62 .01-.31-.01-.62-.06-.92l-7.87 2.86Z"/></g></svg>