<svg viewBox="0 0 24 24" xmlns="http://www.w3.org/2000/svg"><g fill="#3747D6" fill-rule="evenodd"><path d="M4 18h6.5v2H4v-2Z"/><path fill="#9545ED" d="M9.5 16c0-.56.44-1 1-1h3c.55 0 1 .44 1 1v6c0 .55-.45 1-1 1h-3c-.56 0-1-.45-1-1v-6Zm2 1v4h1v-4h-1Z"/><path d="M2 3c0-.56.44-1 1-1h9v2H4v11h15v-5h2v6c0 .55-.45 1-1 1H3c-.56 0-1-.45-1-1V3Z"/><path d="M16.5 5c-.56 0-1 .44-1 1 0 .55.44 1 1 1 .55 0 1-.45 1-1 0-.56-.45-1-1-1Zm-3 1c0-1.66 1.34-3 3-3 1.65 0 3 1.34 3 3 0 1.65-1.35 3-3 3 -1.66 0-3-1.35-3-3Z"/><g fill="#9545ED"><path d="M11 2c0-.56.44-1 1-1h9c.55 0 1 .44 1 1v8c0 .55-.45 1-1 1h-9c-.56 0-1-.45-1-1V2Zm2 1v6h7V3h-7Z"/><path d="M4.5 6c0-.56.44-1 1-1h4c.55 0 1 .44 1 1v4c0 .55-.45 1-1 1h-4c-.56 0-1-.45-1-1V6Zm2 1v2h2V7h-2Z"/><path d="M9.5 14h-4v-2h4v2Z"/></g></g></svg>