<svg viewBox="0 0 24 24" xmlns="http://www.w3.org/2000/svg"><g fill="#9545ED" fill-rule="evenodd"><path d="M10.44 4.89l-4 2 -.9-1.79 4-2 .89 1.78Zm7.1 2l-4-2 .89-1.79 4 2 -.9 1.78Zm-4.56-.9v4h-2v-4h2ZM7.06 7.67l3.5 2.5 -1.17 1.62 -3.5-2.5 1.16-1.63Zm11 1.62l-3.5 2.49 -1.17-1.63 3.5-2.51 1.16 1.62ZM2.98 12.83l.5-3.51 1.97.28 -.5 3.49 -1.98-.29Zm16 .28l-.5-3.5 1.97-.29 .5 3.5 -1.98.28ZM6.42 15.85l3.98-2 -.9-1.79 -4 2 .88 1.77 -.46-.26 -.98 1.74 4.5 2.5 .97-1.75 -4.03-2.24Zm11.08 0l-3.99-2 .89-1.79 4 2 -.89 1.77 .45-.26 .97 1.74 -4.5 2.5 -.98-1.75 4.02-2.24Z"/><g fill="#3747D6"><path d="M2.01 16.8c.09-.47.5-.81.98-.81h2c.55 0 1 .44 1 1v5c0 .55-.45 1-1 1h-3c-.3 0-.59-.14-.78-.37 -.19-.24-.27-.54-.21-.84l1-5Zm1.8 1.19l-.6 3h.78v-3H3.8Z"/><path d="M21.98 16.8c-.1-.47-.51-.81-.99-.81h-2c-.56 0-1 .44-1 1v5c0 .55.44 1 1 1h3c.29 0 .58-.14.77-.37 .19-.24.26-.54.2-.84l-1-5Zm-1.81 1.19l.6 3h-.79v-3h.18Z"/><path d="M12 11c-.56 0-1 .44-1 1 0 .55.44 1 1 1 .55 0 1-.45 1-1 0-.56-.45-1-1-1Zm-3 1c0-1.66 1.34-3 3-3 1.65 0 3 1.34 3 3 0 1.65-1.35 3-3 3 -1.66 0-3-1.35-3-3Z"/><path d="M12 3c-.56 0-1 .44-1 1 0 .55.44 1 1 1 .55 0 1-.45 1-1 0-.56-.45-1-1-1ZM9 4c0-1.66 1.34-3 3-3 1.65 0 3 1.34 3 3 0 1.65-1.35 3-3 3 -1.66 0-3-1.35-3-3Z"/><path d="M4.5 6.5c-.56 0-1 .44-1 1 0 .55.44 1 1 1 .55 0 1-.45 1-1 0-.56-.45-1-1-1Zm-3 1c0-1.66 1.34-3 3-3 1.65 0 3 1.34 3 3 0 1.65-1.35 3-3 3 -1.66 0-3-1.35-3-3Z"/><path d="M4 14c-.56 0-1 .44-1 1 0 .55.44 1 1 1 .55 0 1-.45 1-1 0-.56-.45-1-1-1Zm-3 1c0-1.66 1.34-3 3-3 1.65 0 3 1.34 3 3 0 1.65-1.35 3-3 3 -1.66 0-3-1.35-3-3Z"/><path d="M19.5 6.5c-.56 0-1 .44-1 1 0 .55.44 1 1 1 .55 0 1-.45 1-1 0-.56-.45-1-1-1Zm-3 1c0-1.66 1.34-3 3-3 1.65 0 3 1.34 3 3 0 1.65-1.35 3-3 3 -1.66 0-3-1.35-3-3Z"/><path d="M20 14c-.56 0-1 .44-1 1 0 .55.44 1 1 1 .55 0 1-.45 1-1 0-.56-.45-1-1-1Zm-3 1c0-1.66 1.34-3 3-3 1.65 0 3 1.34 3 3 0 1.65-1.35 3-3 3 -1.66 0-3-1.35-3-3Z"/><path d="M10 13.87c.06-.51.48-.88.99-.88h2c.5 0 .92.37.99.87l1 8c.03.28-.06.57-.25.78 -.19.21-.47.33-.75.33h-4c-.29 0-.56-.13-.75-.34 -.19-.22-.28-.51-.25-.79l.99-8Zm1.87 1.12l-.75 6h1.73l-.75-6h-.24Z"/></g></g></svg>