<svg viewBox="0 0 24 24" xmlns="http://www.w3.org/2000/svg"><g fill="#9545ED" fill-rule="evenodd"><path d="M2 18c0 1.1.89 2 2 2h2c.55 0 1-.45 1-1v-6c0-.56-.45-1-1-1H3c-.56 0-1 .44-1 1v5Zm3 0H4v-4h1v4Z"/><path d="M22 18c0 1.1-.9 2-2 2h-2c-.56 0-1-.45-1-1v-6c0-.56.44-1 1-1h3c.55 0 1 .44 1 1v5Zm-3 0h1v-4h-1v4Z"/><g fill="#3747D6"><path d="M5 6c0-.56.44-1 1-1h12c.55 0 1 .44 1 1v14c0 1.1-.9 2-2 2H7c-1.11 0-2-.9-2-2V6Zm2 1v13h10V7H7Z"/><path d="M8 17v-5h2v5H8Z"/><path d="M14 17v-5h2v5h-2Z"/><path d="M12 4c-.56 0-1 .44-1 1v1H9V5c0-1.66 1.34-3 3-3 1.65 0 3 1.34 3 3v1h-2V5c0-.56-.45-1-1-1Z"/></g><path d="M5 6c0-.56.44-1 1-1h12c.55 0 1 .44 1 1v3c0 2.2-1.8 4-4 4H9c-2.21 0-4-1.8-4-4V6Zm2 1v2c0 1.1.89 2 2 2h6c1.1 0 2-.9 2-2V7H7Z"/></g></svg>