<svg viewBox="0 0 24 24" xmlns="http://www.w3.org/2000/svg"><g fill="#3747D6" fill-rule="evenodd"><path d="M2 10c0-.56.44-1 1-1h18c.55 0 1 .44 1 1v11c0 .55-.45 1-1 1H3c-.56 0-1-.45-1-1V10Zm2 1v9h16v-9H4Z"/><path fill="#9545ED" d="M2 5.5c0-.56.44-1 1-1h18c.55 0 1 .44 1 1V10c0 .55-.45 1-1 1H3c-.56 0-1-.45-1-1V5.5Zm2 1V9h16V6.5H4Z"/><path d="M8 3.5v4H6v-4h2Z"/><path d="M18 3.5v4h-2v-4h2Z"/><g fill="#9545ED"><path d="M8.79 17.29l5-5 1.41 1.41 -5 5 -1.42-1.42Z"/><path d="M15.2 17.29l-5-5L8.78 13.7l4.99 5 1.41-1.42Z"/></g></g></svg>