<svg viewBox="0 0 24 24" xmlns="http://www.w3.org/2000/svg"><g fill="#9545ED" fill-rule="evenodd"><path d="M22 14.5H2v2h20v-2Z"/><path d="M8 10.5V12H6V9.5c0-.56.44-1 1-1h7v2H8Z"/><path d="M9 12V9.5h2V12H9Z"/><path d="M15.5 10c-.28 0-.5-.23-.5-.5 0-.28.22-.5.5-.5 .27 0 .5.22.5.5 0 .27-.23.5-.5.5ZM13 9.5c0 1.38 1.11 2.5 2.5 2.5 1.38 0 2.5-1.12 2.5-2.5C18 8.11 16.88 7 15.5 7 14.11 7 13 8.11 13 9.5Z"/><path fill="#3747D6" d="M1 18c0 1.1.89 2 2 2h18c1.1 0 2-.9 2-2V6c0-1.11-.9-2-2-2H3c-1.11 0-2 .89-2 2v12Zm20 0H3V6h18v12Z"/></g></svg>