<svg viewBox="0 0 24 24" xmlns="http://www.w3.org/2000/svg"><g fill="#9545ED" fill-rule="evenodd"><path d="M8 21V5h2v16H8Z"/><path d="M14.5 19V3h2v16h-2Z"/><path fill="#3747D6" d="M1.42 1.68c.26-.19.6-.24.91-.13l6.68 2.38 6.18-1.91c.21-.07.44-.06.65.02l6.5 2.5c.38.14.64.51.64.93v16c0 .32-.17.63-.44.82 -.28.18-.62.22-.93.1l-6.18-2.38 -6.17 1.89c-.21.06-.43.05-.64-.02l-7-2.5c-.4-.15-.67-.52-.67-.95v-16c0-.33.15-.64.42-.82Zm1.57 2.23v13.87l6.02 2.15 6.18-1.91c.21-.07.44-.06.65.02l5.141 1.97V6.15l-5.54-2.13 -6.17 1.89c-.21.06-.43.05-.64-.02L2.96 3.86Z"/></g></svg>