<svg viewBox="0 0 24 24" xmlns="http://www.w3.org/2000/svg"><g fill="#9545ED" fill-rule="evenodd"><path d="M11.12 6.64l-.13-4.62 1.99-.06 .13 5c0 .24-.08.48-.24.67l-2.14 2.5c-.15.17-.35.28-.57.33l-1.39.27 .84 2.54c.57 1.71-1.25 3.24-2.84 2.39l-5.29-2.83 .94-1.77 5.28 2.82 -1.21-3.63c-.1-.28-.07-.58.08-.82 .14-.25.38-.43.66-.48l2.16-.44 1.65-1.95Z"/><path d="M9.29 18.29c.18-.19.44-.3.7-.3h4c.26 0 .51.1.7.29l2 2 -1.42 1.41 -1.71-1.71h-3.18l-1.71 1.7 -1.42-1.42 2-2Z"/><path d="M16.4 10.2l4-3 1.2 1.6 -3.76 2.81 -.71 2.11 3.56 3.56 -1.42 1.41 -4-4c-.27-.27-.37-.67-.25-1.03l1-3c.06-.2.18-.37.34-.49Z"/><path fill="#3747D6" d="M12 3c-4.98 0-9 4.02-9 9 0 4.97 4.02 9 9 9 4.97 0 9-4.03 9-9 0-2.74-1.23-5.19-3.16-6.84l1.3-1.52c2.35 2.01 3.84 5.01 3.84 8.35 0 6.07-4.93 11-11 11 -6.08 0-11-4.93-11-11 0-6.08 4.92-11 11-11 1.14 0 2.25.17 3.29.5l-.6 1.9c-.86-.27-1.76-.42-2.71-.42Z"/><path d="M16.5 3c-.56 0-1 .44-1 1 0-.01 0 0 0 0s0 .01 0 .05c0 .03.01.08.03.15 .03.13.1.29.18.48 .16.37.39.8.63 1.22 .04.07.09.15.13.22 .04-.08.08-.16.13-.23 .24-.42.47-.85.63-1.23 .08-.19.14-.36.18-.49 .01-.07.03-.12.03-.16 0-.04 0-.06 0-.06s0-.01 0 0c0-.56-.45-1-1-1Zm0 5c-.83.56-.83.56-.83.56l-.01-.01 -.01-.01 -.02-.03c-.02-.03-.04-.06-.07-.1 -.06-.09-.14-.21-.24-.36 -.2-.3-.46-.71-.72-1.16 -.26-.45-.53-.95-.74-1.43 -.2-.44-.4-.99-.4-1.5 0-1.66 1.34-3 3-3 1.65 0 3 1.34 3 3 0 .5-.21 1.05-.4 1.49 -.21.47-.48.97-.74 1.42 -.27.44-.53.86-.72 1.15 -.1.14-.18.27-.24.35 -.03.04-.06.07-.07.09l-.02.02 -.01 0 -.01 0s-.01 0-.83-.57Zm0 0l.82.56c-.19.27-.5.43-.83.43 -.33 0-.64-.17-.83-.44l.82-.57Z"/></g></svg>