<svg viewBox="0 0 24 24" xmlns="http://www.w3.org/2000/svg"><g fill="#9545ED" fill-rule="evenodd"><path d="M1.55 9.6l7-3.5 .89 1.78 -6.45 3.22v1.38h6.5v2h-7.5c-.56 0-1-.45-1-1v-3c0-.38.21-.73.55-.9Z"/><path d="M22.44 9.6l-7-3.5 -.9 1.78 6.44 3.22v1.38h-6.5v2h7.5c.55 0 1-.45 1-1v-3c0-.38-.22-.73-.56-.9Z"/><path d="M5.78 19.02l4.5-1 .43 1.95 -3.72.82v.19h5v2h-6c-.56 0-1-.45-1-1v-2c0-.47.32-.88.78-.98Z"/><path d="M18.21 19.02l-4.5-1 -.44 1.95 3.71.82v.19h-5v2h6c.55 0 1-.45 1-1v-2c0-.47-.33-.88-.79-.98Z"/><path fill="#3747D6" d="M12 3c-.24 0-.45.13-.56.34l-1.42 2.83 1.83 14.7c0 .06.06.11.13.11 .06 0 .12-.05.13-.12l1.83-14.71 -1.42-2.84c-.11-.21-.32-.35-.56-.35Zm-2.35-.56C10.09 1.55 11 .99 11.99.99c.99 0 1.89.56 2.34 1.44l1.55 3.1c.08.17.12.37.09.57l-1.88 15c-.14 1.06-1.05 1.86-2.12 1.86 -1.08 0-1.99-.81-2.12-1.87L7.97 6.08c-.03-.2 0-.4.09-.58l1.55-3.11Z"/></g></svg>