<svg viewBox="0 0 24 24" xmlns="http://www.w3.org/2000/svg"><g fill="#3747D6" fill-rule="evenodd"><path d="M2 2c0-.56.44-1 1-1h18c.55 0 1 .44 1 1v20c0 .55-.45 1-1 1H3c-.56 0-1-.45-1-1V2Zm2 1v18h16V3H4Z"/><path d="M12 7.5c-.56 0-1 .44-1 1 0 .55.44 1 1 1 .55 0 1-.45 1-1 0-.56-.45-1-1-1Zm-3 1c0-1.66 1.34-3 3-3 1.65 0 3 1.34 3 3 0 1.65-1.35 3-3 3 -1.66 0-3-1.35-3-3Z"/><path d="M9.17 15.5h5.65c-.42-1.17-1.53-2-2.83-2 -1.31 0-2.42.83-2.83 2Zm-2.18 1c0-2.77 2.23-5 5-5 2.76 0 5 2.23 5 5 0 .55-.45 1-1 1h-8c-.56 0-1-.45-1-1Z"/><path fill="#9545ED" d="M4.5 4.5c0-.56.44-1 1-1h13c.55 0 1 .44 1 1v12c0 .55-.45 1-1 1h-13c-.56 0-1-.45-1-1v-12Zm2 1v10h11v-10h-11Z"/></g></svg>