<svg viewBox="0 0 24 24" xmlns="http://www.w3.org/2000/svg"><g fill="#9545ED" fill-rule="evenodd"><path d="M18 23H6v-2h12v2Z"/><path d="M6.5 4c0-1.66 1.34-3 3-3h5c1.65 0 3 1.34 3 3v10.5c0 .55-.45 1-1 1h-9c-.56 0-1-.45-1-1V4Zm3-1c-.56 0-1 .44-1 1v9.5h7V4c0-.56-.45-1-1-1h-5Z"/><g fill="#3747D6"><path d="M3.5 10.5C3.5 9.11 4.61 8 6 8c1.38 0 2.5 1.11 2.5 2.5V12c0 .55-.45 1-1 1h-3c-.56 0-1-.45-1-1v-1.5ZM6 10c-.28 0-.5.22-.5.5v.5h1v-.5c0-.28-.23-.5-.5-.5Z"/><path d="M15.5 10.5C15.5 9.11 16.61 8 18 8c1.38 0 2.5 1.11 2.5 2.5V12c0 .55-.45 1-1 1h-3c-.56 0-1-.45-1-1v-1.5ZM18 10c-.28 0-.5.22-.5.5v.5h1v-.5c0-.28-.23-.5-.5-.5Z"/><path d="M4 16.5c0-1.66 1.34-3 3-3h10c1.65 0 3 1.34 3 3v3c0 .55-.45 1-1 1H5c-.56 0-1-.45-1-1v-3Zm3-1c-.56 0-1 .44-1 1v2h12v-2c0-.56-.45-1-1-1H7Z"/></g></g></svg>