<svg viewBox="0 0 24 24" xmlns="http://www.w3.org/2000/svg"><g fill="#3747D6" fill-rule="evenodd"><path d="M4 5c0-1.66 1.34-3 3-3h10.16c1.65 0 3 1.34 3 3v6c0 .55-.45 1-1 1H4.99c-.56 0-1-.45-1-1V5Zm3-1c-.56 0-1 .44-1 1v5h12.16V5c0-.56-.45-1-1-1H6.99Z"/><g fill="#9545ED"><path d="M8 8c0-1.11.89-2 2-2h4c1.1 0 2 .89 2 2v3c0 .55-.45 1-1 1H9c-.56 0-1-.45-1-1V8Zm6 0h-4v2h4V8Z"/><path d="M1 21v-4h2v4H1Z"/><path d="M21 21v-4h2v4h-2Z"/></g><path d="M1 13c0-1.66 1.34-3 3-3h16c1.65 0 3 1.34 3 3v4c0 .55-.45 1-1 1H2c-.56 0-1-.45-1-1v-4Zm3-1c-.56 0-1 .44-1 1v3h18v-3c0-.56-.45-1-1-1H4Z"/></g></svg>