<svg viewBox="0 0 24 24" xmlns="http://www.w3.org/2000/svg"><g fill="#9545ED" fill-rule="evenodd"><path d="M2.5 8.5c0-1.11.89-2 2-2h3c1.1 0 2 .89 2 2V11c0 .55-.45 1-1 1h-5c-.56 0-1-.45-1-1V8.5Zm5 0h-3V10h3V8.5Z"/><path d="M14 8.5c0-1.11.89-2 2-2h3.5c1.1 0 2 .89 2 2V11c0 .55-.45 1-1 1H15c-.56 0-1-.45-1-1V8.5Zm5.5 0H16V10h3.5V8.5Z"/><path d="M1 16.5V14h2v2.5H1Z"/><path d="M12.5 16.5V14h2v2.5h-2Z"/><path d="M9 16.5V14h2v2.5H9Z"/><path d="M21 16.5V14h2v2.5h-2Z"/><g fill="#3747D6"><path d="M1 12c0-1.11.89-2 2-2h6c1.1 0 2 .89 2 2v2c0 .55-.45 1-1 1H2c-.56 0-1-.45-1-1v-2Zm8 0H3v1h6v-1Z"/><path d="M12.5 12c0-1.11.89-2 2-2H21c1.1 0 2 .89 2 2v2c0 .55-.45 1-1 1h-8.5c-.56 0-1-.45-1-1v-2Zm8.5 0h-6.5v1H21v-1Z"/></g></g></svg>