<svg viewBox="0 0 24 24" xmlns="http://www.w3.org/2000/svg"><g fill="#9545ED" fill-rule="evenodd"><path d="M11.12 6.64l-.13-4.62 1.99-.06 .13 5c0 .24-.08.48-.24.67l-2.14 2.5c-.15.17-.35.28-.57.33l-1.39.27 .84 2.54c.57 1.71-1.25 3.24-2.84 2.39l-5.29-2.83 .94-1.77 5.28 2.82 -1.21-3.63c-.1-.28-.07-.58.08-.82 .14-.25.38-.43.66-.48l2.16-.44 1.65-1.95Z"/><path d="M9.29 18.29c.18-.19.44-.3.7-.3h4c.26 0 .51.1.7.29l2 2 -1.42 1.41 -1.71-1.71h-3.18l-1.71 1.7 -1.42-1.42 2-2Z"/><path d="M16.4 10.2l4-3 1.2 1.6 -3.76 2.81 -.71 2.11 3.56 3.56 -1.42 1.41 -4-4c-.27-.27-.37-.67-.25-1.03l1-3c.06-.2.18-.37.34-.49Z"/><path fill="#3747D6" d="M12 3c-4.98 0-9 4.02-9 9 0 4.97 4.02 9 9 9 4.97 0 9-4.03 9-9 0-4.98-4.03-9-9-9ZM1 12C1 5.92 5.92 1 12 1c6.07 0 11 4.92 11 11 0 6.07-4.93 11-11 11C5.92 23 1 18.07 1 12Z"/></g></svg>