<svg viewBox="0 0 24 24" xmlns="http://www.w3.org/2000/svg"><path fill="#EE4D4D" d="M4.72 11.81c-.09-.34-.39-.57-.73-.57 -.35 0-.65.23-.73.56l-2 8c-.06.22-.01.46.13.64s.36.28.59.28h4c.23 0 .44-.11.59-.29 .14-.19.19-.42.13-.65l-2-8Z"/><path fill="#FF884D" d="M12.74 6.88c-.06-.37-.38-.64-.75-.64 -.38 0-.69.27-.75.63l-2 13c-.04.21.02.43.17.6 .14.16.35.26.56.26h4c.21 0 .42-.1.56-.27 .14-.17.2-.39.17-.61l-2-13Z"/><path fill="#FFC44D" d="M20.74 3.9c-.05-.38-.37-.66-.75-.66s-.7.28-.75.65l-2 16c-.03.21.03.42.18.58 .14.16.34.25.56.25h4c.21 0 .41-.1.56-.26 .14-.17.2-.38.18-.59l-2-16Z"/></svg>