<svg viewBox="0 0 24 24" xmlns="http://www.w3.org/2000/svg"><g fill="#5E94FF"><path d="M3 1.25c-.97 0-1.75.78-1.75 1.75v6c0 .96.78 1.75 1.75 1.75h6c.96 0 1.75-.79 1.75-1.75v-.83l.92-1.85c.1-.22.1-.46 0-.68l-.93-1.85v-.83c0-.97-.79-1.75-1.75-1.75h-6Z"/><path d="M21 13.25c.96 0 1.75.78 1.75 1.75v6c0 .96-.79 1.75-1.75 1.75h-6c-.97 0-1.75-.79-1.75-1.75v-.83l-.93-1.85c-.11-.22-.11-.46 0-.68l.92-1.85v-.83c0-.97.78-1.75 1.75-1.75h6Z"/></g><g fill="#4DC4FF"><path d="M13.25 3c0-.97.78-1.75 1.75-1.75h6c.96 0 1.75.78 1.75 1.75v6c0 .96-.79 1.75-1.75 1.75h-.83l-1.85.92c-.22.1-.46.1-.68 0l-1.85-.93h-.83c-.97 0-1.75-.79-1.75-1.75v-6Z"/><path d="M1.25 21c0 .96.78 1.75 1.75 1.75h6c.96 0 1.75-.79 1.75-1.75v-6c0-.97-.79-1.75-1.75-1.75h-.83l-1.85-.93c-.22-.11-.46-.11-.68 0l-1.85.92h-.83c-.97 0-1.75.78-1.75 1.75v6Z"/></g></svg>