<svg viewBox="0 0 24 24" xmlns="http://www.w3.org/2000/svg"><g fill="#4DC4FF" fill-rule="evenodd"><path d="M5.25 12c0-.42.33-.75.75-.75h12c.41 0 .75.33.75.75 0 .41-.34.75-.75.75H6c-.42 0-.75-.34-.75-.75Z"/><path d="M11.25 4c0-.42.33-.75.75-.75h6c.41 0 .75.33.75.75 0 .41-.34.75-.75.75h-5.25v14.5H18c.41 0 .75.33.75.75 0 .41-.34.75-.75.75h-6c-.42 0-.75-.34-.75-.75V4Z"/></g><g fill="#5E94FF"><path d="M2 9.25c-.42 0-.75.33-.75.75v4c0 .41.33.75.75.75h4c.41 0 .75-.34.75-.75v-4c0-.42-.34-.75-.75-.75H2Z"/><path d="M18 9.25c-.42 0-.75.33-.75.75v4c0 .41.33.75.75.75h4c.41 0 .75-.34.75-.75v-4c0-.42-.34-.75-.75-.75h-4Z"/><path d="M18 1.25c-.42 0-.75.33-.75.75v4c0 .41.33.75.75.75h4c.41 0 .75-.34.75-.75V2c0-.42-.34-.75-.75-.75h-4Z"/><path d="M18 17.25c-.42 0-.75.33-.75.75v4c0 .41.33.75.75.75h4c.41 0 .75-.34.75-.75v-4c0-.42-.34-.75-.75-.75h-4Z"/></g></svg>