<svg viewBox="0 0 24 24" xmlns="http://www.w3.org/2000/svg"><g fill="#4DC4FF" fill-rule="evenodd"><path d="M12 8.25c.41 0 .75.33.75.75v7c0 .41-.34.75-.75.75 -.42 0-.75-.34-.75-.75V9c0-.42.33-.75.75-.75Z"/><path d="M3.25 13c0-.42.33-.75.75-.75h16c.41 0 .75.33.75.75v3c0 .41-.34.75-.75.75 -.42 0-.75-.34-.75-.75v-2.25H4.75V16c0 .41-.34.75-.75.75 -.42 0-.75-.34-.75-.75v-3Z"/></g><g fill="#5E94FF"><path d="M8 3.25c-.97 0-1.75.78-1.75 1.75v3c0 .96.78 1.75 1.75 1.75h8c.96 0 1.75-.79 1.75-1.75V5c0-.97-.79-1.75-1.75-1.75H8Z"/><path d="M3 15.25c-.97 0-1.75.78-1.75 1.75v1c0 .96.78 1.75 1.75 1.75h2c.96 0 1.75-.79 1.75-1.75v-1c0-.97-.79-1.75-1.75-1.75H3Z"/><path d="M11 15.25c-.97 0-1.75.78-1.75 1.75v1c0 .96.78 1.75 1.75 1.75h2c.96 0 1.75-.79 1.75-1.75v-1c0-.97-.79-1.75-1.75-1.75h-2Z"/><path d="M19 15.25c-.97 0-1.75.78-1.75 1.75v1c0 .96.78 1.75 1.75 1.75h2c.96 0 1.75-.79 1.75-1.75v-1c0-.97-.79-1.75-1.75-1.75h-2Z"/></g></svg>