<svg viewBox="0 0 24 24" xmlns="http://www.w3.org/2000/svg"><path fill="#EE4D4D" d="M3.75 11.25c-.42 0-.75.33-.75.75v8c0 .41.33.75.75.75h3.5c.41 0 .75-.34.75-.75v-8c0-.42-.34-.75-.75-.75h-3.5Z"/><path fill="#FF884D" d="M10.25 7.25c-.42 0-.75.33-.75.75v12c0 .41.33.75.75.75h3.5c.41 0 .75-.34.75-.75V8c0-.42-.34-.75-.75-.75h-3.5Z"/><path fill="#FFC44D" d="M16.75 3.25c-.42 0-.75.33-.75.75v16c0 .41.33.75.75.75h3.5c.41 0 .75-.34.75-.75V4c0-.42-.34-.75-.75-.75h-3.5Z"/><path fill="#CFD8DC" fill-rule="evenodd" d="M1.25 20c0-.42.33-.75.75-.75h20c.41 0 .75.33.75.75 0 .41-.34.75-.75.75H2c-.42 0-.75-.34-.75-.75Z"/></svg>