<svg viewBox="0 0 24 24" xmlns="http://www.w3.org/2000/svg"><path fill="#5E94FF" d="M2 10.75c-.42 0-.75.33-.75.75v7c0 .41.33.75.75.75h20c.41 0 .75-.34.75-.75v-7c0-.42-.34-.75-.75-.75H2Z"/><g fill="#4DC4FF"><path d="M15.5 4.25c-.42 0-.75.33-.75.75v3c0 .41.33.75.75.75h1.05l1.57.9c.23.13.51.13.74 0l1.57-.91h1.05c.41 0 .75-.34.75-.75v-3c0-.42-.34-.75-.75-.75h-6Z"/><path d="M2.5 4.25c-.42 0-.75.33-.75.75v3c0 .41.33.75.75.75h1.05l1.57.9c.23.13.51.13.74 0l1.57-.91h1.05c.41 0 .75-.34.75-.75v-3c0-.42-.34-.75-.75-.75h-6Z"/><g fill="#4DC4FF" fill-rule="evenodd"><path d="M9.25 10.75v8.5h-1.5v-8.5h1.5Z"/><path d="M15.75 10.75v8.5h-1.5v-8.5h1.5Z"/></g></g></svg>