<svg viewBox="0 0 24 24" xmlns="http://www.w3.org/2000/svg"><path fill="#7EA9FF" fill-rule="evenodd" d="M8.61 5.82c.23.33.15.8-.19 1.04 -1.63 1.13-2.68 3-2.68 5.13 0 .7.11 1.38.33 2.01 .13.39-.08.81-.47.952 -.4.13-.82-.08-.96-.47 -.27-.79-.42-1.63-.42-2.51 0-2.64 1.31-4.97 3.32-6.37 .33-.24.8-.16 1.04.18Zm6.76 0c.23-.34.7-.43 1.04-.19 2 1.39 3.32 3.72 3.32 6.36 0 .87-.15 1.71-.42 2.5 -.14.39-.56.6-.96.46 -.4-.14-.61-.56-.47-.952 .21-.64.33-1.32.33-2.02 0-2.13-1.06-4-2.68-5.14 -.34-.24-.43-.71-.19-1.05ZM9.26 18.49c.11-.4.53-.63.93-.51 .56.16 1.16.25 1.78.25 .62 0 1.221-.1 1.78-.26 .39-.12.81.1.93.5 .11.39-.11.81-.51.93 -.71.2-1.45.32-2.22.32 -.77 0-1.52-.12-2.22-.33 -.4-.12-.63-.54-.51-.94Z"/><path fill="#4DC4FF" d="M2.33 15.32c-.24-.12-.51-.11-.73.03 -.23.13-.36.37-.36.63v4c0 .28.16.54.41.67l4 2c.21.1.45.1.67 0l3.99-2c.25-.13.41-.39.41-.68v-4c0-.26-.14-.51-.36-.64 -.23-.14-.5-.15-.73-.04l-3.67 1.83 -3.67-1.84Z"/><path fill="#5E94FF" fill-rule="evenodd" d="M6.75 22.46v-4.47c0-.42-.34-.75-.75-.75 -.42 0-.75.33-.75.75v4.46l.41.2c.21.1.45.1.67 0l.41-.21Z"/><path fill="#5E94FF" d="M5.66 13.32c.21-.11.45-.11.67 0l3.99 2c.25.12.41.38.41.67 0 .28-.17.54-.42.67l-4 2c-.22.1-.46.1-.68 0l-4-2c-.26-.13-.42-.39-.42-.68 0-.29.16-.55.41-.68l4-2Z"/><path fill="#4DC4FF" d="M14.33 15.32c-.24-.12-.51-.11-.73.03 -.23.13-.36.37-.36.63v4c0 .28.16.54.41.67l4 2c.21.1.45.1.67 0l4-2c.25-.13.41-.39.41-.68v-4c0-.26-.14-.51-.36-.64 -.23-.14-.5-.15-.73-.04l-3.67 1.83 -3.67-1.84Z"/><path fill="#5E94FF" fill-rule="evenodd" d="M18.75 22.46v-4.47c0-.42-.34-.75-.75-.75 -.42 0-.75.33-.75.75v4.46l.41.2c.21.1.45.1.67 0l.41-.21Z"/><path fill="#5E94FF" d="M17.66 13.32c.21-.11.45-.11.67 0l4 2c.25.12.41.38.41.67 0 .28-.17.54-.42.67l-4 2c-.22.1-.46.1-.68 0l-4-2c-.26-.13-.42-.39-.42-.68 0-.29.16-.55.41-.68l4-2Z"/><path fill="#4DC4FF" d="M8.33 3.32c-.24-.12-.51-.11-.73.03 -.23.13-.36.37-.36.63v4c0 .28.16.54.41.67l4 1.99c.21.1.45.1.67 0l4-2c.25-.13.41-.39.41-.68v-4c0-.26-.14-.51-.36-.64 -.23-.14-.5-.15-.73-.04l-3.67 1.83L8.3 3.27Z"/><path fill="#5E94FF" fill-rule="evenodd" d="M12.75 10.46V5.99c0-.42-.34-.75-.75-.75 -.42 0-.75.33-.75.75v4.46l.41.2c.21.1.45.1.67 0l.41-.21Z"/><path fill="#5E94FF" d="M11.66 1.32c.21-.11.45-.11.67 0l4 2c.25.12.41.38.41.67 0 .28-.17.54-.42.67l-4 2c-.22.1-.46.1-.68 0l-4.01-2c-.26-.13-.42-.39-.42-.68 0-.29.16-.55.41-.68l4-2Z"/></svg>