<svg viewBox="0 0 24 24" xmlns="http://www.w3.org/2000/svg"><path fill="#FFC44D" d="M10.119 1.25c-.27 0-.52.14-.66.37l-1.69 2.95 -3.38 0c-.27 0-.52.14-.66.37L1.81 8.27c-.14.23-.14.51 0 .74l1.69 2.96 -1.7 2.96c-.14.23-.14.51 0 .74L3.7 19c.13.23.38.37.65.37h3.37l1.68 2.95c.13.23.38.37.65.37h3.8c.26 0 .51-.15.65-.38l1.68-2.96h3.37c.26 0 .51-.15.65-.38l1.9-3.34c.13-.24.13-.52 0-.75l-1.7-2.97 1.69-2.97c.13-.24.13-.52 0-.75l-1.91-3.34c-.14-.24-.39-.38-.66-.38l-3.38-.01 -1.69-2.96c-.14-.24-.39-.38-.66-.38H9.98Z"/><g fill="#FF884D" fill-rule="evenodd"><path d="M7.56 5.7c-.14-.24-.14-.52 0-.75l1.9-3.34c.13-.24.38-.38.65-.38h3.8c.26 0 .51.14.65.37l1.9 3.33c.13.23.13.51 0 .74L14.55 9c-.14.23-.39.37-.66.37h-3.81c-.27 0-.52-.15-.66-.38L7.51 5.65Zm2.99 2.21h2.93l1.47-2.59 -1.48-2.59h-2.94L9.05 5.31l1.47 2.58Z"/><path d="M13.27 9.03c-.14-.24-.14-.52 0-.75l1.9-3.34c.13-.24.38-.38.65-.38h3.8c.26 0 .51.14.65.37l1.9 3.33c.13.23.13.51 0 .74l-1.91 3.33c-.14.23-.39.37-.66.37h-3.81c-.27 0-.52-.15-.66-.38l-1.91-3.34Zm2.99 2.21h2.939l1.47-2.59 -1.48-2.59H16.25l-1.48 2.58 1.47 2.58Z"/><path d="M1.84 9.03c-.14-.24-.14-.52 0-.75l1.9-3.34c.13-.24.38-.38.65-.38h3.8c.26 0 .51.14.65.37l1.9 3.33c.13.23.13.51 0 .74l-1.91 3.33c-.14.23-.39.37-.66.37H4.36c-.27 0-.52-.15-.66-.38L1.79 8.98Zm2.99 2.21h2.93l1.47-2.59 -1.48-2.59H4.81L3.33 8.64l1.47 2.58Z"/><path d="M7.56 18.29c-.14.23-.14.51 0 .74l1.9 3.33c.13.23.38.37.65.37h3.8c.26 0 .51-.15.65-.38l1.9-3.34c.13-.24.13-.52 0-.75l-1.91-3.34c-.14-.24-.39-.38-.66-.38h-3.81c-.27 0-.52.14-.66.37l-1.91 3.33Zm2.99-2.22h2.93l1.47 2.58 -1.48 2.58h-2.94l-1.48-2.59 1.47-2.59Z"/><path d="M13.27 14.96c-.14.23-.14.51 0 .74l1.9 3.33c.13.23.38.37.65.37h3.8c.26 0 .51-.15.65-.38l1.9-3.34c.13-.24.13-.52 0-.75l-1.91-3.34c-.14-.24-.39-.38-.66-.38h-3.81c-.27 0-.52.14-.66.37l-1.91 3.33Zm2.99-2.22h2.939l1.47 2.58 -1.48 2.58H16.25l-1.48-2.59 1.47-2.59Z"/><path d="M1.84 14.96c-.14.23-.14.51 0 .74l1.9 3.33c.13.23.38.37.65.37h3.8c.26 0 .51-.15.65-.38l1.9-3.34c.13-.24.13-.52 0-.75l-1.91-3.34c-.14-.24-.39-.38-.66-.38H4.36c-.27 0-.52.14-.66.37l-1.91 3.33Zm2.99-2.22h2.93l1.47 2.58 -1.48 2.58H4.81l-1.48-2.59 1.47-2.59Z"/></g></svg>