<svg viewBox="0 0 24 24" xmlns="http://www.w3.org/2000/svg"><path fill="#4DC4FF" fill-rule="evenodd" d="M11.29 4.51c.24.33.16.8-.17 1.04L6.26 9.07c-.34.24-.81.16-1.05-.17 -.25-.34-.17-.81.16-1.05l4.85-3.53c.33-.25.8-.17 1.04.16Zm1.41 0c.24-.34.71-.41 1.04-.17l4.85 3.52c.33.24.4.71.16 1.04 -.25.33-.72.4-1.05.16L12.84 5.53c-.34-.25-.41-.72-.17-1.05Zm-8.56 5.77c.39-.13.81.08.94.48l2.27 7c.12.39-.09.81-.49.94 -.4.12-.82-.09-.95-.49l-2.28-7c-.13-.4.08-.82.48-.95Zm15.68 0c.39.12.6.55.48.94l-2.28 7c-.13.39-.56.6-.95.48 -.4-.13-.61-.56-.49-.95l2.27-7c.12-.4.55-.61.94-.49Zm-11.6 8.91c0-.42.33-.75.75-.75h6c.41 0 .75.33.75.75 0 .41-.34.75-.75.75H8.96c-.42 0-.75-.34-.75-.75Z"/><g fill="#5E94FF"><path d="M12 1.75c-1.25 0-2.25 1-2.25 2.25 0 1.24 1 2.25 2.25 2.25 1.24 0 2.25-1.01 2.25-2.25 0-1.25-1.01-2.25-2.25-2.25Z"/><path d="M7.5 17.25c-1.25 0-2.25 1-2.25 2.25 0 1.24 1 2.25 2.25 2.25 1.24 0 2.25-1.01 2.25-2.25 0-1.25-1.01-2.25-2.25-2.25Z"/><path d="M16.5 17.25c-1.25 0-2.25 1-2.25 2.25 0 1.24 1 2.25 2.25 2.25 1.24 0 2.25-1.01 2.25-2.25 0-1.25-1.01-2.25-2.25-2.25Z"/><path d="M19.5 7.25c-1.25 0-2.25 1-2.25 2.25 0 1.24 1 2.25 2.25 2.25 1.24 0 2.25-1.01 2.25-2.25 0-1.25-1.01-2.25-2.25-2.25Z"/><path d="M4.5 7.25c-1.25 0-2.25 1-2.25 2.25 0 1.24 1 2.25 2.25 2.25 1.24 0 2.25-1.01 2.25-2.25 0-1.25-1.01-2.25-2.25-2.25Z"/></g></svg>