<svg viewBox="0 0 24 24" xmlns="http://www.w3.org/2000/svg"><g fill="#FFC44D"><path d="M12 7.25c-2.63 0-4.75 2.12-4.75 4.75 0 2.62 2.12 4.75 4.75 4.75 2.62 0 4.75-2.13 4.75-4.75 0-2.63-2.13-4.75-4.75-4.75Z"/><g fill="#FFC44D" fill-rule="evenodd"><path d="M18.25 12c0-.42.33-.75.75-.75h3c.41 0 .75.33.75.75 0 .41-.34.75-.75.75h-3c-.42 0-.75-.34-.75-.75Z"/><path d="M1.25 12c0-.42.33-.75.75-.75h3c.41 0 .75.33.75.75 0 .41-.34.75-.75.75H2c-.42 0-.75-.34-.75-.75Z"/><path d="M12 5.75c-.42 0-.75-.34-.75-.75V2c0-.42.33-.75.75-.75 .41 0 .75.33.75.75v3c0 .41-.34.75-.75.75Z"/><path d="M12 22.75c-.42 0-.75-.34-.75-.75v-3c0-.42.33-.75.75-.75 .41 0 .75.33.75.75v3c0 .41-.34.75-.75.75Z"/><path d="M16.41 7.58c-.3-.3-.3-.77 0-1.07l2.12-2.13c.29-.3.76-.3 1.06 0 .29.29.29.76 0 1.06l-2.13 2.12c-.3.29-.77.29-1.07 0Z"/><path d="M4.39 19.6c-.3-.3-.3-.77 0-1.07l2.12-2.13c.29-.3.76-.3 1.06 0 .29.29.29.76 0 1.06l-2.13 2.12c-.3.29-.77.29-1.07 0Z"/><path d="M7.58 7.58c.29-.3.29-.77 0-1.07L5.45 4.38c-.3-.3-.77-.3-1.07 0 -.3.29-.3.76 0 1.06L6.5 7.56c.29.29.76.29 1.06 0Z"/><path d="M19.6 19.6c.29-.3.29-.77 0-1.07l-2.13-2.13c-.3-.3-.77-.3-1.07 0 -.3.29-.3.76 0 1.06l2.12 2.12c.29.29.76.29 1.06 0Z"/></g></g></svg>