<svg viewBox="0 0 24 24" xmlns="http://www.w3.org/2000/svg"><path fill="#FFC44D" d="M10.99 2c0-.23-.1-.44-.27-.58 -.18-.15-.4-.21-.62-.17 -5.05.92-8.87 5.34-8.87 10.65 0 2.4.78 4.62 2.1 6.41 .12.17.32.28.54.3 .21.01.43-.07.58-.22l2.64-2.65c.24-.25.29-.63.11-.93 -.53-.86-.83-1.87-.83-2.95 0-2.57 1.7-4.74 4.04-5.432 .31-.1.53-.39.53-.72V1.93Z"/><path fill="#FF884D" d="M14.05 1.26c-.22-.05-.45.01-.62.16 -.18.14-.27.35-.27.57v3.76c0 .33.21.62.53.71 1.82.54 3.26 1.98 3.81 3.81 .09.31.38.53.71.53h3.76c.22 0 .43-.1.57-.27 .14-.18.2-.4.16-.62 -.81-4.41-4.29-7.88-8.69-8.69Z"/><path fill="#EE4D4D" d="M18.23 13c-.34 0-.63.21-.72.53 -.7 2.34-2.87 4.04-5.432 4.04 -.88 0-1.7-.2-2.44-.55 -.29-.14-.63-.08-.86.14l-2.7 2.69c-.17.16-.24.38-.22.61 .02.22.14.42.33.55 1.68 1.08 3.69 1.71 5.85 1.71 5.31 0 9.72-3.83 10.65-8.87 .04-.22-.02-.45-.17-.62 -.15-.18-.36-.27-.58-.27h-3.77Z"/></svg>