<svg viewBox="0 0 24 24" xmlns="http://www.w3.org/2000/svg"><g fill="#4DC4FF" fill-rule="evenodd"><path d="M7.5 6.75C5.7 6.75 4.25 8.2 4.25 10v.5c0 .41-.34.75-.75.75 -.42 0-.75-.34-.75-.75V10c0-2.63 2.12-4.75 4.75-4.75H11c2.62 0 4.75 2.12 4.75 4.75v.5c0 .41-.34.75-.75.75 -.42 0-.75-.34-.75-.75V10c0-1.8-1.46-3.25-3.25-3.25H7.5Z"/><path d="M13 17.25c-1.8 0-3.25-1.46-3.25-3.25v-.5c0-.42-.34-.75-.75-.75 -.42 0-.75.33-.75.75v.5c0 2.62 2.12 4.75 4.75 4.75h3.5c2.62 0 4.75-2.13 4.75-4.75v-.5c0-.42-.34-.75-.75-.75 -.42 0-.75.33-.75.75v.5c0 1.79-1.46 3.25-3.25 3.25H13Z"/></g><g fill="#5E94FF"><path d="M3.5 9.75c-1.25 0-2.25 1-2.25 2.25 0 1.24 1 2.25 2.25 2.25 1.24 0 2.25-1.01 2.25-2.25 0-1.25-1.01-2.25-2.25-2.25Z"/><path d="M9 9.75c-1.25 0-2.25 1-2.25 2.25 0 1.24 1 2.25 2.25 2.25 1.24 0 2.25-1.01 2.25-2.25 0-1.25-1.01-2.25-2.25-2.25Z"/><path d="M15 9.75c-1.25 0-2.25 1-2.25 2.25 0 1.24 1 2.25 2.25 2.25 1.24 0 2.25-1.01 2.25-2.25 0-1.25-1.01-2.25-2.25-2.25Z"/><path d="M20.5 9.75c-1.25 0-2.25 1-2.25 2.25 0 1.24 1 2.25 2.25 2.25 1.24 0 2.25-1.01 2.25-2.25 0-1.25-1.01-2.25-2.25-2.25Z"/></g></svg>