<svg viewBox="0 0 24 24" xmlns="http://www.w3.org/2000/svg"><g fill="#4DC4FF"><path d="M3.88 12.42s0 0 .61-.43c.61.42.61.42.61.42 -.15.2-.38.32-.62.32 -.25 0-.48-.13-.62-.33Z"/><path d="M3.88 12.42l.61-.43 .61.42 0-.01 0-.01 .02-.04c.01-.03.04-.07.08-.13 .07-.11.17-.26.28-.44 .23-.37.55-.88.87-1.43 .31-.56.64-1.16.89-1.73 .23-.54.45-1.15.45-1.67 0-1.8-1.46-3.25-3.25-3.25 -1.8 0-3.25 1.45-3.25 3.25 0 .51.21 1.12.45 1.66 .25.56.57 1.17.89 1.72 .32.55.64 1.05.87 1.42 .11.18.21.33.28.43 .03.05.06.09.08.12l.02.03 0 0 0 0Z"/><path d="M11.38 12.42s0 0 .61-.43c.61.42.61.42.61.42 -.14.2-.38.32-.62.32 -.25 0-.48-.13-.62-.33Z"/><path d="M11.38 12.42l.61-.43 .61.42 0-.01 0-.01 .02-.04c.01-.03.04-.07.08-.13 .07-.11.17-.26.28-.44 .23-.37.55-.88.87-1.43 .31-.56.64-1.16.89-1.73 .23-.54.45-1.15.45-1.67 0-1.8-1.46-3.25-3.25-3.25 -1.8 0-3.25 1.45-3.25 3.25 0 .51.21 1.12.45 1.66 .25.56.57 1.17.89 1.72 .32.55.64 1.05.87 1.42 .11.18.21.33.28.43 .03.05.06.09.08.12l.02.03 0 0 0 0Z"/><path d="M18.88 12.42s0 0 .61-.43c.61.42.61.42.61.42 -.14.2-.38.32-.62.32 -.25 0-.48-.13-.62-.33Z"/><path d="M18.88 12.42l.61-.43 .61.42 0-.01 0-.01 .02-.04c.01-.03.04-.07.08-.13 .07-.11.17-.26.28-.44 .23-.37.55-.88.87-1.43 .31-.56.64-1.16.89-1.73 .23-.54.45-1.15.45-1.67 0-1.8-1.46-3.25-3.25-3.25 -1.8 0-3.25 1.45-3.25 3.25 0 .51.21 1.12.45 1.66 .25.56.57 1.17.89 1.72 .32.55.64 1.05.87 1.42 .11.18.21.33.28.43 .03.05.06.09.08.12l.02.03 0 0 0 0Z"/><g fill="#4DC4FF" fill-rule="evenodd"><path d="M12.75 16c0-.42.33-.75.75-.75H18c.41 0 .75.33.75.75 0 .41-.34.75-.75.75h-4.5c-.42 0-.75-.34-.75-.75Z"/><path d="M5.25 16c0-.42.33-.75.75-.75h5c.41 0 .75.33.75.75 0 .41-.34.75-.75.75H6c-.42 0-.75-.34-.75-.75Z"/><path d="M.75 16c0-.42.33-.75.75-.75H3c.41 0 .75.33.75.75 0 .41-.34.75-.75.75H1.5c-.42 0-.75-.34-.75-.75Z"/><path d="M20.25 16c0-.42.33-.75.75-.75h1.5c.41 0 .75.33.75.75 0 .41-.34.75-.75.75H21c-.42 0-.75-.34-.75-.75Z"/></g></g><g fill="#5E94FF"><path d="M12 13.75c-1.25 0-2.25 1-2.25 2.25 0 1.24 1 2.25 2.25 2.25 1.24 0 2.25-1.01 2.25-2.25 0-1.25-1.01-2.25-2.25-2.25Z"/><path d="M19.5 13.75c-1.25 0-2.25 1-2.25 2.25 0 1.24 1 2.25 2.25 2.25 1.24 0 2.25-1.01 2.25-2.25 0-1.25-1.01-2.25-2.25-2.25Z"/><path d="M4.5 13.75c-1.25 0-2.25 1-2.25 2.25 0 1.24 1 2.25 2.25 2.25 1.24 0 2.25-1.01 2.25-2.25 0-1.25-1.01-2.25-2.25-2.25Z"/></g></svg>