<svg viewBox="0 0 24 24" xmlns="http://www.w3.org/2000/svg"><g fill-rule="evenodd"><path d="M1 2c0-.56.44-1 1-1h20c.55 0 1 .44 1 1v20c0 .55-.45 1-1 1H2c-.56 0-1-.45-1-1V2Zm2 1v18h18V3H3Z"/><path d="M1 2c0-.56.44-1 1-1h20c.55 0 1 .44 1 1v5c0 .55-.45 1-1 1H2c-.56 0-1-.45-1-1V2Zm2 1v3h18V3H3Z"/><path d="M6.5 5.5h-2v-2h2v2Z"/><path d="M10.5 5.5h-2v-2h2v2Z"/><path d="M14.5 5.5h-2v-2h2v2Z"/><path d="M12 7c0-.56.44-1 1-1h6c.55 0 1 .44 1 1v8c0 .36-.21.7-.53.88 -.33.17-.72.15-1.03-.05l-2.45-1.64 -2.45 1.63c-.31.2-.71.22-1.03.04 -.33-.18-.53-.52-.53-.89v-8Zm2 1v5.13l1.44-.97c.33-.23.77-.23 1.1 0l1.44.96V7.98h-4Z"/></g></svg>