<svg viewBox="0 0 24 24" xmlns="http://www.w3.org/2000/svg"><g fill-rule="evenodd"><path d="M13.79 13.79c.28-.29.7-.37 1.07-.23l7.07 2.82c.36.14.61.49.62.88 .01.39-.2.75-.56.93l-1.59.79 1.14 1.14 -1.42 1.41 -1.15-1.15 -.8 1.58c-.18.35-.55.56-.94.55 -.4-.02-.75-.27-.89-.63l-2.83-7.08c-.15-.38-.07-.8.22-1.08Zm2.5 2.5l1.13 2.83 .41-.84c.09-.2.25-.36.44-.45l.83-.42 -2.84-1.14Z"/><path d="M7 9c0-1.39 1.11-2.5 2.5-2.5H13v2H9.5c-.28 0-.5.22-.5.5 0 .27.22.5.5.5h2c1.38 0 2.5 1.11 2.5 2.5 0 1.38-1.12 2.5-2.5 2.5H8v-2h3.5c.27 0 .5-.23.5-.5 0-.28-.23-.5-.5-.5h-2C8.11 11.5 7 10.38 7 9Z"/><path d="M9.5 16v-2.5h2V16h-2Z"/><path d="M9.5 7.5V5h2v2.5h-2Z"/><path d="M10.5 3.5c-3.87 0-7 3.13-7 7 0 3.86 3.13 7 7 7 1.65 0 3.17-.58 4.37-1.54l1.25 1.56c-1.55 1.23-3.5 1.97-5.63 1.97 -4.98 0-9-4.03-9-9 0-4.98 4.02-9 9-9 4.97 0 9 4.02 9 9 0 2.12-.74 4.08-1.98 5.62l-1.57-1.26c.96-1.2 1.53-2.72 1.53-4.38 0-3.87-3.14-7-7-7Z"/></g></svg>