<svg viewBox="0 0 24 24" xmlns="http://www.w3.org/2000/svg"><g fill-rule="evenodd"><path d="M1 2c0-.56.44-1 1-1h20c.55 0 1 .44 1 1v20c0 .55-.45 1-1 1H2c-.56 0-1-.45-1-1V2Zm2 1v18h18V3H3Z"/><path d="M1 2c0-.56.44-1 1-1h20c.55 0 1 .44 1 1v5c0 .55-.45 1-1 1H2c-.56 0-1-.45-1-1V2Zm2 1v3h18V3H3Z"/><path d="M6.5 5.5h-2v-2h2v2Z"/><path d="M10.5 5.5h-2v-2h2v2Z"/><path d="M14.5 5.5h-2v-2h2v2Z"/><path d="M11.64 8.56c.22-.09.47-.09.7 0l4 1.5c.39.14.64.51.64.93v3.86c0 1-.44 1.96-1.2 2.63l-3.15 2.753c-.38.32-.94.32-1.32 0L8.16 17.48c-.76-.67-1.2-1.63-1.2-2.64v-3.87c0-.42.25-.79.64-.94l4-1.51Zm-2.65 3.12v3.17c0 .43.18.84.51 1.12l2.48 2.17 2.48-2.18c.32-.29.51-.7.51-1.13v-3.18l-3-1.125 -3 1.125Z"/></g></svg>