<svg viewBox="0 0 24 24" xmlns="http://www.w3.org/2000/svg"><g fill-rule="evenodd"><path d="M11 9.5c-1.94 0-3.5 1.56-3.5 3.5 0 1.93 1.56 3.5 3.5 3.5 1.93 0 3.5-1.57 3.5-3.5 0-1.94-1.57-3.5-3.5-3.5ZM5.5 13c0-3.04 2.46-5.5 5.5-5.5 3.03 0 5.5 2.46 5.5 5.5 0 3.03-2.47 5.5-5.5 5.5 -3.04 0-5.5-2.47-5.5-5.5Z"/><path d="M8.2 3.99c0-.56.44-1 1-1h3.6c.55 0 1 .44 1 1v1.29c2.27.82 4.08 2.63 4.9 4.9h1.29c.55 0 1 .44 1 1v3.6c0 .55-.45 1-1 1h-1.3c-.09.22-.18.45-.28.67l.91.91c.39.39.39 1.02 0 1.41l-2.55 2.54c-.4.39-1.03.39-1.42 0l-.92-.92c-.22.1-.45.19-.68.27v1.29c0 .55-.45 1-1 1h-3.6c-.56 0-1-.45-1-1v-1.3c-.23-.09-.46-.18-.68-.28l-.92.91c-.4.39-1.03.39-1.42 0l-2.55-2.55c-.4-.4-.4-1.03 0-1.42l.91-.92c-.11-.22-.2-.45-.28-.68h-1.3c-.56 0-1-.45-1-1v-3.6c0-.56.44-1 1-1H3.2c.08-.23.17-.46.27-.68l-.92-.92c-.4-.4-.4-1.03 0-1.42l2.54-2.55c.39-.4 1.02-.4 1.41 0l.91.91c.21-.11.44-.2.67-.28v-1.3Zm2 1v1.02c0 .45-.31.85-.76.96 -.57.14-1.11.37-1.6.66 -.4.23-.9.16-1.22-.16l-.73-.73 -1.14 1.13 .72.72c.32.32.38.82.15 1.21 -.3.49-.52 1.03-.67 1.59 -.12.44-.52.75-.97.75H2.95v1.6h1.02c.45 0 .85.3.96.75 .14.56.37 1.1.66 1.59 .23.39.16.89-.16 1.21l-.73.72 1.13 1.13 .72-.73c.32-.33.82-.39 1.21-.16 .49.29 1.03.51 1.59.66 .44.11.75.51.75.96v1.02h1.6v-1.03c0-.46.3-.86.75-.97 .56-.15 1.1-.38 1.59-.67 .39-.24.89-.17 1.21.15l.72.72 1.13-1.14 -.73-.73c-.33-.33-.39-.83-.16-1.22 .29-.5.51-1.04.66-1.6 .11-.45.51-.76.96-.76h1.02v-1.6h-1.03c-.46 0-.86-.31-.97-.76 -.57-2.18-2.28-3.9-4.46-4.46 -.45-.12-.76-.52-.76-.97V4.82h-1.6Z"/><path d="M19.7 5.7l-8 7.99 -1.42-1.42 8-8.01 1.41 1.41Z"/><path d="M18 5V2h2v2h2v2h-3c-.56 0-1-.45-1-1Z"/></g></svg>