<svg viewBox="0 0 24 24" xmlns="http://www.w3.org/2000/svg"><g fill-rule="evenodd"><path d="M12 5c-3.87 0-7 3.13-7 7 0 3.86 3.13 7 7 7 3.86 0 7-3.14 7-7 0-3.87-3.14-7-7-7Zm-9 7c0-4.98 4.02-9 9-9 4.97 0 9 4.02 9 9 0 4.97-4.03 9-9 9 -4.98 0-9-4.03-9-9Z"/><path d="M12 10c-1.11 0-2 .89-2 2 0 1.1.89 2 2 2 1.1 0 2-.9 2-2 0-1.11-.9-2-2-2Zm-4 2c0-2.21 1.79-4 4-4 2.2 0 4 1.79 4 4 0 2.2-1.8 4-4 4 -2.21 0-4-1.8-4-4Z"/><path d="M11 22v-4h2v4h-2Z"/><path d="M11 6V2h2v4h-2Z"/><path d="M18 11h4v2h-4v-2Z"/><path d="M6 13H2v-2h4v2Z"/></g></svg>