<svg viewBox="0 0 24 24" xmlns="http://www.w3.org/2000/svg"><g fill-rule="evenodd"><path d="M1 2c0-.56.44-1 1-1h20c.55 0 1 .44 1 1v20c0 .55-.45 1-1 1h-4c-.37 0-.7-.2-.88-.51 -.18-.32-.18-.7.01-1.01l1.16-1.94 -2.12-2.97c-.14-.2-.21-.43-.19-.67l.16-1.96 -1.1 1.71 .89 3.58c.05.2.03.41-.05.61l-1 2.5c-.16.37-.52.62-.93.62h-12c-.56 0-1-.45-1-1v-20Zm2 1v18h10.323l.62-1.58 -.93-3.69c-.07-.27-.03-.55.12-.78l3.5-5.5c.24-.39.72-.56 1.16-.42 .43.14.71.57.67 1.03l-.47 5.63 2.28 3.2c.23.32.24.75.04 1.09l-.6.98h1.23v-18h-18Z"/><path d="M1 2c0-.56.44-1 1-1h20c.55 0 1 .44 1 1v5c0 .55-.45 1-1 1H2c-.56 0-1-.45-1-1V2Zm2 1v3h18V3H3Z"/><path d="M6.5 5.5h-2v-2h2v2Z"/><path d="M10.5 5.5h-2v-2h2v2Z"/><path d="M14.5 5.5h-2v-2h2v2Z"/></g></svg>