<svg viewBox="0 0 24 24" xmlns="http://www.w3.org/2000/svg"><g fill-rule="evenodd"><path d="M1.25 1.33c.18-.22.46-.34.74-.34h20c.28 0 .55.12.74.33 .18.21.27.5.24.78l-2 16c-.05.33-.25.62-.55.77l-8 4c-.29.14-.62.14-.9 0l-8.01-4c-.3-.15-.51-.44-.55-.78l-2-16c-.04-.29.05-.58.24-.79Zm1.88 1.66l1.79 14.34 7.07 3.53 7.07-3.54 1.79-14.35H3.11Z"/><path d="M6 4h13c.46 0 .86.31.97.77 .1.45-.12.91-.53 1.12l-7.22 3.6h5.76c.29 0 .57.13.76.35 .19.22.26.52.21.81l-1 5.5c-.06.28-.23.53-.47.67l-5 3c-.32.19-.72.19-1.029 0l-5.01-3c-.26-.16-.43-.41-.48-.7l-.5-3 1.97-.33 .42 2.54 4.08 2.45 4.09-2.46 .7-3.88h-8.81c-.47 0-.87-.32-.98-.78 -.11-.46.11-.92.52-1.13l7.21-3.61H5.89v-2Z"/></g></svg>