<svg viewBox="0 0 24 24" xmlns="http://www.w3.org/2000/svg"><g fill-rule="evenodd"><path d="M1 2c0-.56.44-1 1-1h14c.26 0 .51.1.7.29l6 6c.18.18.29.44.29.7v14c0 .55-.45 1-1 1h-20c-.56 0-1-.45-1-1v-20Zm2 1v18h18V8.41l-5.42-5.42H2.99Z"/><path d="M15.61 1.07c.37-.16.8-.07 1.08.21l6 6c.28.28.37.71.21 1.08 -.16.37-.52.61-.93.61h-6c-.56 0-1-.45-1-1v-6c0-.41.24-.77.61-.93Zm1.38 3.33v2.58h2.58l-2.59-2.59Z"/><path d="M7 10c0-1.11.89-2 2-2h1v2H9v2.5c0 .31-.15.61-.4.8l-.94.7 .93.7c.25.18.4.48.4.8V18h1v2h-1c-1.11 0-2-.9-2-2v-2l-1.6-1.2c-.26-.19-.4-.49-.4-.8 0-.32.14-.62.4-.8l1.6-1.2v-2Z"/><path d="M16 18c0 1.1-.9 2-2 2h-1v-2h1v-2.5c0-.32.14-.62.4-.8l.93-.7 -.94-.7c-.26-.19-.4-.49-.4-.8V10h-1V8h1c1.1 0 2 .89 2 2v2l1.6 1.2c.25.18.4.48.4.8 0 .31-.15.61-.4.8l-1.6 1.2v2Z"/></g></svg>