<svg viewBox="0 0 24 24" xmlns="http://www.w3.org/2000/svg"><g fill-rule="evenodd"><path d="M1 2c0-.56.44-1 1-1h20c.55 0 1 .44 1 1v20c0 .55-.45 1-1 1H2c-.56 0-1-.45-1-1V2Zm2 1v18h18V3H3Z"/><path d="M22 6H2V4h20v2Z"/><path d="M7.5 8V2h2v6h-2Zm0 14V11h2v11h-2Z"/><path d="M14.5 16V2h2v14h-2Zm0 6v-3h2v3h-2Z"/><path d="M2 12.5h20v2H2v-2Z"/><path d="M3.5 8c0-.56.44-1 1-1H13c.55 0 1 .44 1 1v3c0 .55-.45 1-1 1H4.5c-.56 0-1-.45-1-1V8Zm2 1v1H12V9H5.5Z"/><path d="M10 16c0-.56.44-1 1-1h8.5c.55 0 1 .44 1 1v3c0 .55-.45 1-1 1H11c-.56 0-1-.45-1-1v-3Zm2 1v1h6.5v-1H12Z"/></g></svg>