<svg viewBox="0 0 24 24" xmlns="http://www.w3.org/2000/svg"><g fill-rule="evenodd"><path d="M1 4c0-1.66 1.34-3 3-3h16c1.65 0 3 1.34 3 3v16c0 1.65-1.35 3-3 3H4c-1.66 0-3-1.35-3-3V4Zm3-1c-.56 0-1 .44-1 1v16c0 .55.44 1 1 1h16c.55 0 1-.45 1-1V4c0-.56-.45-1-1-1H4Z"/><path d="M1 4c0-1.66 1.34-3 3-3h16c1.65 0 3 1.34 3 3v2c0 .55-.45 1-1 1H2c-.56 0-1-.45-1-1V4Zm3-1c-.56 0-1 .44-1 1v1h18V4c0-.56-.45-1-1-1H4Z"/><path d="M4.79 13.29l4-4 1.41 1.41 -3.3 3.29 3.29 3.29 -1.42 1.41 -4-4c-.4-.4-.4-1.03 0-1.42Z"/><path d="M19.2 13.29l-4-4 -1.42 1.41 3.29 3.29 -3.3 3.29 1.41 1.41 4-4c.39-.4.39-1.03 0-1.42Z"/></g></svg>