<svg viewBox="0 0 24 24" xmlns="http://www.w3.org/2000/svg"><g fill-rule="evenodd"><path d="M1.25 1.33c.18-.22.46-.34.74-.34h20c.28 0 .55.12.74.33 .18.21.27.5.24.78l-2 16c-.05.33-.25.62-.55.77l-8 4c-.29.14-.62.14-.9 0l-8.01-4c-.3-.15-.51-.44-.55-.78l-2-16c-.04-.29.05-.58.24-.79Zm1.88 1.66l1.79 14.34 7.07 3.53 7.07-3.54 1.79-14.35H3.11Z"/><path d="M5.26 4.32c.18-.21.45-.33.73-.33h12v2H7.08l.31 3.5h10.58c.29 0 .57.13.76.35 .19.22.26.52.21.81l-1 5.5c-.06.28-.23.53-.47.67l-5 3c-.32.19-.72.19-1.029 0l-5-3c-.28-.17-.46-.45-.49-.77l-1-11c-.03-.28.06-.56.25-.77Zm2.33 7.17l.35 3.9 4.05 2.43 4.09-2.46 .7-3.88H7.57Z"/></g></svg>