<svg viewBox="0 0 24 24" xmlns="http://www.w3.org/2000/svg"><g fill-rule="evenodd"><path d="M1 2c0-.56.44-1 1-1h14c.26 0 .51.1.7.29l6 6c.18.18.29.44.29.7v14c0 .55-.45 1-1 1h-20c-.56 0-1-.45-1-1v-20Zm2 1v18h18V8.41l-5.42-5.42H2.99Z"/><path d="M15.61 1.07c.37-.16.8-.07 1.08.21l6 6c.28.28.37.71.21 1.08 -.16.37-.52.61-.93.61h-6c-.56 0-1-.45-1-1v-6c0-.41.24-.77.61-.93Zm1.38 3.33v2.58h2.58l-2.59-2.59Z"/><path d="M11 13.5c0-.56.44-1 1-1h2c1.38 0 2.5 1.11 2.5 2.5 0 1.24-.92 2.28-2.12 2.47l1.82 1.82 -1.42 1.41 -1.8-1.8v1.08h-2v-6.5Zm2 2v-1h1c.27 0 .5.22.5.5 0 .27-.23.5-.5.5h-1Z"/><path d="M6.99 11.41c-1.17.58-1.5 1.19-1.5 1.58 0 .38.33 1 1.49 1.58 1.1.55 2.69.91 4.5.91 .15 0 .31-.01.46-.01l.07 1.99c-.18 0-.36 0-.54 0 -2.06 0-3.97-.42-5.4-1.14 -1.38-.69-2.61-1.82-2.61-3.37s1.22-2.69 2.6-3.37c1.43-.72 3.34-1.14 5.39-1.14s3.96.41 5.397 1.13c1.37.68 2.6 1.82 2.6 3.36 0 1.72-1.51 2.92-3.12 3.6 -.08.02-.16.06-.25.08 -.1.02-.22.04-.36.03 -.16-.01-.29-.05-.41-.11 -.06-.03-.1-.06-.13-.08 -.03-.02-.05-.03-.05-.04 .01 0 .05.03.09.05 .07.03.16.06.25.07 .15.02.25-.02.23-.01l-.56-1.93c.14-.05.36-.09.59-.06 0 0 0 0 0 0 1.27-.59 1.67-1.26 1.67-1.67 0-.39-.34-1.01-1.5-1.59 -1.11-.56-2.7-.92-4.51-.92 -1.82 0-3.41.36-4.51.91Zm9.33 3.44s0 0 0 0 0 0 0 0 0 0-.01-.01Zm-1.14 1.64c-.01-.01-.01-.01-.01-.01l-.01-.01c-.01-.01-.01-.01 0 0Z"/></g></svg>