<svg viewBox="0 0 24 24" xmlns="http://www.w3.org/2000/svg"><g fill-rule="evenodd"><path d="M5 8.5v11c0 .27.22.5.5.5h13c.27 0 .5-.23.5-.5v-11h1v11c0 .82-.68 1.5-1.5 1.5h-13c-.83 0-1.5-.68-1.5-1.5v-11h1Z"/><path d="M11.74 3.57c.15-.1.35-.1.51 0l10 6 -.52.85 -9.75-5.85 -9.75 5.84 -.52-.86 10-6Z"/><path d="M8 13.5c0-.28.22-.5.5-.5h7c.82 0 1.5.67 1.5 1.5V16c0 .27-.23.5-.5.5h-8c-.28 0-.5-.23-.5-.5v-2.5Zm1 .5v1.5h7v-1c0-.28-.23-.5-.5-.5H9Z"/><path d="M8 18v-6.5h1V18H8Z"/><path d="M16 18v-2h1v2h-1Z"/></g></svg>