<svg viewBox="0 0 24 24" xmlns="http://www.w3.org/2000/svg"><g fill-rule="evenodd"><path d="M5.5 3v2h-1V3h1Z"/><path d="M6 12v8H5v-8h1Z"/><path d="M1.5 6c0-.83.67-1.5 1.5-1.5h5c.82 0 1.5.67 1.5 1.5v5c0 .82-.68 1.5-1.5 1.5H3c-.83 0-1.5-.68-1.5-1.5V6ZM3 5.5c-.28 0-.5.22-.5.5v5c0 .27.22.5.5.5h5c.27 0 .5-.23.5-.5V6c0-.28-.23-.5-.5-.5H3Z"/><path d="M8.5 6.5c0-.28.22-.5.5-.5h11c1.38 0 2.5 1.11 2.5 2.5 0 1.38-1.12 2.5-2.5 2.5H9c-.28 0-.5-.23-.5-.5v-4Zm1 .5v3H20c.82 0 1.5-.68 1.5-1.5 0-.83-.68-1.5-1.5-1.5H9.5Z"/><path d="M3 19.5h5v1H3v-1Z"/><path d="M11.51 10.37l1-3.9 .96.24 -1 3.89 -.97-.25Z"/><path d="M14.51 10.37l1-3.9 .96.24 -1 3.89 -.97-.25Z"/><path d="M17.51 10.37l1-3.9 .96.24 -1 3.89 -.97-.25Z"/></g></svg>