<svg viewBox="0 0 24 24" xmlns="http://www.w3.org/2000/svg"><g fill-rule="evenodd"><path d="M1.5 7c0-.83.67-1.5 1.5-1.5h18c.82 0 1.5.67 1.5 1.5v13c0 .82-.68 1.5-1.5 1.5H3c-.83 0-1.5-.68-1.5-1.5V7ZM3 6.5c-.28 0-.5.22-.5.5v13c0 .27.22.5.5.5h18c.27 0 .5-.23.5-.5V7c0-.28-.23-.5-.5-.5H3Z"/><path d="M1.5 7c0-.83.67-1.5 1.5-1.5h18c.82 0 1.5.67 1.5 1.5v4c0 .22-.16.42-.38.48l-8.06 2.01c-1.36.33-2.77.33-4.13 0l-8.06-2.02c-.23-.06-.38-.26-.38-.49v-4ZM3 6.5c-.28 0-.5.22-.5.5v3.6l7.68 1.92c1.19.29 2.44.29 3.638 0l7.68-1.93V6.98c0-.28-.23-.5-.5-.5h-18Z"/><path d="M6.5 4c0-.83.67-1.5 1.5-1.5h8c.82 0 1.5.67 1.5 1.5v2c0 .27-.23.5-.5.5H7c-.28 0-.5-.23-.5-.5V4ZM8 3.5c-.28 0-.5.22-.5.5v1.5h9V4c0-.28-.23-.5-.5-.5H8Z"/><path d="M12 11c-.56 0-1 .44-1 1v3c0 .55.44 1 1 1 .55 0 1-.45 1-1v-3c0-.56-.45-1-1-1Zm-2 1c0-1.11.89-2 2-2 1.1 0 2 .89 2 2v3c0 1.1-.9 2-2 2 -1.11 0-2-.9-2-2v-3Z"/></g></svg>