<svg viewBox="0 0 24 24" xmlns="http://www.w3.org/2000/svg"><g fill-rule="evenodd"><path d="M5.5 5c0-.28.22-.5.5-.5h6c.27 0 .5.22.5.5v17c0 .27-.23.5-.5.5H6c-.28 0-.5-.23-.5-.5V5Zm1 .5v16h5v-16h-5Z"/><path d="M11.77 7.05c.16-.09.36-.08.51.03l3.5 2.5c.13.09.2.24.2.4v12c0 .27-.23.5-.5.5h-3.5c-.28 0-.5-.23-.5-.5V7.48c0-.19.1-.36.27-.45Zm.72 1.41v13.02h2.5V10.23l-2.5-1.79Z"/><path d="M15.27 12.05c.16-.09.36-.08.51.03l3.5 2.5c.13.09.2.24.2.4v7c0 .27-.23.5-.5.5h-3.5c-.28 0-.5-.23-.5-.5v-9.5c0-.19.1-.36.27-.45Zm.72 1.41v8.02h2.5v-6.25l-2.5-1.79Z"/><path d="M3 21.5h18v1H3v-1Z"/><path d="M7.5 2v3.5h-1V2h1Z"/><path d="M10.5 3v2.5h-1V3h1Z"/><path d="M9.5 5v17h-1V5h1Z"/></g></svg>