<svg viewBox="0 0 24 24" xmlns="http://www.w3.org/2000/svg"><g fill-rule="evenodd"><path d="M5.5 19c0-2.49 2.01-4.5 4.5-4.5h4c2.48 0 4.5 2.01 4.5 4.5v3c0 .27-.23.5-.5.5H6c-.28 0-.5-.23-.5-.5v-3Zm4.5-3.5c-1.94 0-3.5 1.56-3.5 3.5v2.5h11V19c0-1.94-1.57-3.5-3.5-3.5h-4Z"/><path d="M8 8c0-1.94 1.56-3.5 3.5-3.5h1C14.43 4.5 16 6.06 16 8v2c0 1.93-1.57 3.5-3.5 3.5h-1C9.56 13.5 8 11.93 8 10V8Zm3.5-2.5C10.11 5.5 9 6.61 9 8v2c0 1.38 1.11 2.5 2.5 2.5h1c1.38 0 2.5-1.12 2.5-2.5V8c0-1.39-1.12-2.5-2.5-2.5h-1Z"/><path d="M15 8c0-.28.22-.5.5-.5H18c.27 0 .5.22.5.5v3c0 .27-.23.5-.5.5h-2.5c-.28 0-.5-.23-.5-.5V8Zm1 .5v2h1.5v-2H16Z"/><path d="M5.5 8c0-.28.22-.5.5-.5h2.5c.27 0 .5.22.5.5v3c0 .27-.23.5-.5.5H6c-.28 0-.5-.23-.5-.5V8Zm1 .5v2H8v-2H6.5Z"/><path d="M5.5 7c0-3.04 2.46-5.5 5.5-5.5h2c3.03 0 5.5 2.46 5.5 5.5v3h-1V7c0-2.49-2.02-4.5-4.5-4.5h-2C8.51 2.5 6.5 4.51 6.5 7v3h-1V7Z"/><path d="M11.5 22v-7h1v7h-1Z"/></g></svg>