<svg viewBox="0 0 24 24" xmlns="http://www.w3.org/2000/svg"><g fill-rule="evenodd"><path d="M12 4.5c-3.04 0-5.5 2.46-5.5 5.5h-1c0-3.59 2.91-6.5 6.5-6.5 3.58 0 6.5 2.91 6.5 6.5h-1c0-3.04-2.47-5.5-5.5-5.5Z"/><path d="M12.5 2v2h-1V2h1Z"/><path d="M18.5 17v1h-1v-1h1Z"/><path d="M6.5 17v1h-1v-1h1Z"/><path d="M1.5 15c0-.83.67-1.5 1.5-1.5h18c.82 0 1.5.67 1.5 1.5v7c0 .27-.23.5-.5.5H2c-.28 0-.5-.23-.5-.5v-7Zm1.5-.5c-.28 0-.5.22-.5.5v6.5h19V15c0-.28-.23-.5-.5-.5H3Z"/><path d="M3.5 11c0-.83.67-1.5 1.5-1.5h14c.82 0 1.5.67 1.5 1.5v3c0 .27-.23.5-.5.5H4c-.28 0-.5-.23-.5-.5v-3Zm1.5-.5c-.28 0-.5.22-.5.5v2.5h15V11c0-.28-.23-.5-.5-.5H5Z"/><path d="M9.5 17c0-.28.22-.5.5-.5h4c.27 0 .5.22.5.5v5c0 .27-.23.5-.5.5h-4c-.28 0-.5-.23-.5-.5v-5Zm1 .5v4h3v-4h-3Z"/></g></svg>