<svg viewBox="0 0 24 24" xmlns="http://www.w3.org/2000/svg"><g fill-rule="evenodd"><path d="M6.5 10c0-1.39 1.11-2.5 2.5-2.5h6c1.38 0 2.5 1.11 2.5 2.5v8c0 1.38-1.12 2.5-2.5 2.5H9c-1.39 0-2.5-1.12-2.5-2.5v-8ZM9 8.5c-.83 0-1.5.67-1.5 1.5v8c0 .82.67 1.5 1.5 1.5h6c.82 0 1.5-.68 1.5-1.5v-8c0-.83-.68-1.5-1.5-1.5H9Z"/><path d="M8.5 22v-2h1v2h-1Z"/><path d="M14.5 22v-2h1v2h-1Z"/><path d="M14.5 3v5h-1V3h1Z"/><path d="M10.5 3v5h-1V3h1Z"/><path d="M15.5 3.5h-7v-1h7v1Z"/><path d="M9.5 17v-6h1v6h-1Z"/><path d="M13.5 17v-6h1v6h-1Z"/></g></svg>