<svg viewBox="0 0 24 24" xmlns="http://www.w3.org/2000/svg"><g fill-rule="evenodd"><path d="M1 6c0-1.66 1.34-3 3-3h16c1.65 0 3 1.34 3 3v2c0 .55-.45 1-1 1H2c-.56 0-1-.45-1-1V6Zm3-1c-.56 0-1 .44-1 1v1h18V6c0-.56-.45-1-1-1H4Z"/><path d="M1 8c0-.56.44-1 1-1h20c.55 0 1 .44 1 1v2h-2V9H3v11c0 .55.44 1 1 1h6v2H4c-1.66 0-3-1.35-3-3V8Z"/><path d="M11 5V2h2v3h-2Z"/><path d="M16 5V2h2v3h-2Z"/><path d="M6 5V2h2v3H6Z"/><path d="M16.5 12c-2.49 0-4.5 2.01-4.5 4.5 0 2.48 2.01 4.5 4.5 4.5 2.48 0 4.5-2.02 4.5-4.5 0-2.49-2.02-4.5-4.5-4.5ZM10 16.5c0-3.59 2.91-6.5 6.5-6.5 3.58 0 6.5 2.91 6.5 6.5 0 3.58-2.92 6.5-6.5 6.5 -3.59 0-6.5-2.92-6.5-6.5Z"/><path d="M17.5 16v-2h-2v3c0 .55.44 1 1 1H19v-2h-1.5Z"/></g></svg>