<svg viewBox="0 0 24 24" xmlns="http://www.w3.org/2000/svg"><g fill-rule="evenodd"><path d="M7 3c-1.11 0-2 .89-2 2v14c0 1.1.89 2 2 2h10c1.1 0 2-.9 2-2V8.41l-5.42-5.42H6.99ZM3 5c0-2.21 1.79-4 4-4h7c.26 0 .51.1.7.29l6 6c.18.18.29.44.29.7v11c0 2.2-1.8 4-4 4h-10c-2.21 0-4-1.8-4-4v-14Z"/><path d="M13.61 1.07c.37-.16.8-.07 1.08.21l6 6c.28.28.37.71.21 1.08 -.16.37-.52.61-.93.61h-3c-2.21 0-4-1.8-4-4v-3c0-.41.24-.77.61-.93Zm1.38 3.33v.58c0 1.1.89 2 2 2h.58l-2.59-2.59Z"/><path d="M10 11.95c0-1.08.87-1.96 1.95-1.96h1.54v2h-1.31l.57.23c.74.29 1.22 1.01 1.22 1.81 0 1.07-.88 1.95-1.96 1.95h-1.55v-2h1.3l-.58-.24c-.75-.3-1.23-1.02-1.23-1.82Z"/><path d="M11 17v-2h2v2h-2Z"/><path d="M11 11V9h2v2h-2Z"/></g></svg>