<svg viewBox="0 0 24 24" xmlns="http://www.w3.org/2000/svg"><g fill-rule="evenodd"><path d="M10.89 1.53c.67-.45 1.54-.45 2.21 0l1.96 1.3 2.03-1.02c1.32-.67 2.89.3 2.89 1.78v16.764c0 1.48-1.57 2.45-2.9 1.78l-2.04-1.02 -1.97 1.3c-.68.44-1.55.44-2.22 0L8.88 21.1l-2.04 1.01c-1.33.66-2.9-.31-2.9-1.79V3.56c0-1.49 1.56-2.46 2.89-1.79l2.03 1.01 1.96-1.31Zm1.1 1.66l-1.97 1.3c-.6.39-1.37.44-2.01.12L5.97 3.59v16.764L8 19.334c.64-.33 1.4-.28 2 .12l1.96 1.3 1.96-1.31c.59-.4 1.36-.45 2-.13l2.03 1.01V3.56l-2.04 1.01c-.65.32-1.41.27-2.01-.13l-1.97-1.31Z"/><path d="M15 9H9V7h6v2Z"/><path d="M15 13H9v-2h6v2Z"/><path d="M15 17H9v-2h6v2Z"/></g></svg>