<svg viewBox="0 0 24 24" xmlns="http://www.w3.org/2000/svg"><g fill-rule="evenodd"><path d="M1 5c0-1.66 1.34-3 3-3h16c1.65 0 3 1.34 3 3v10c0 1.65-1.35 3-3 3H4c-1.66 0-3-1.35-3-3V5Zm3-1c-.56 0-1 .44-1 1v10c0 .55.44 1 1 1h16c.55 0 1-.45 1-1V5c0-.56-.45-1-1-1H4Z"/><path d="M9.02 16.75c.11-.45.51-.76.97-.76h4c.45 0 .85.31.97.75l1 4c.07.29 0 .61-.19.85s-.49.38-.79.38h-6c-.31 0-.6-.15-.79-.39 -.19-.25-.26-.56-.19-.86l1-4Zm1.75 1.24l-.5 2h3.43l-.5-2h-2.44Z"/><path d="M17 22H7v-2h10v2Z"/><path d="M11 17V3h2v14h-2Z"/><path d="M7 7c-.56 0-1 .44-1 1 0 .55.44 1 1 1 .55 0 1-.45 1-1 0-.56-.45-1-1-1ZM4 8c0-1.66 1.34-3 3-3 1.65 0 3 1.34 3 3 0 1.65-1.35 3-3 3 -1.66 0-3-1.35-3-3Z"/><path d="M17 7c-.56 0-1 .44-1 1 0 .55.44 1 1 1 .55 0 1-.45 1-1 0-.56-.45-1-1-1Zm-3 1c0-1.66 1.34-3 3-3 1.65 0 3 1.34 3 3 0 1.65-1.35 3-3 3 -1.66 0-3-1.35-3-3Z"/><path d="M4 12c0-1.66 1.34-3 3-3 1.65 0 3 1.34 3 3v2H8v-2c0-.56-.45-1-1-1 -.56 0-1 .44-1 1v2H4v-2Z"/><path d="M14 12c0-1.66 1.34-3 3-3 1.65 0 3 1.34 3 3v2h-2v-2c0-.56-.45-1-1-1 -.56 0-1 .44-1 1v2h-2v-2Z"/></g></svg>