<svg viewBox="0 0 24 24" xmlns="http://www.w3.org/2000/svg"><g fill-rule="evenodd"><path d="M7 3c-1.11 0-2 .89-2 2v14c0 1.1.89 2 2 2h10c1.1 0 2-.9 2-2V8.41l-5.42-5.42H6.99ZM3 5c0-2.21 1.79-4 4-4h7c.26 0 .51.1.7.29l6 6c.18.18.29.44.29.7v11c0 2.2-1.8 4-4 4h-10c-2.21 0-4-1.8-4-4v-14Z"/><path d="M13.61 1.07c.37-.16.8-.07 1.08.21l6 6c.28.28.37.71.21 1.08 -.16.37-.52.61-.93.61h-3c-2.21 0-4-1.8-4-4v-3c0-.41.24-.77.61-.93Zm1.38 3.33v.58c0 1.1.89 2 2 2h.58l-2.59-2.59Z"/><path d="M12 10c-.28 0-.5.22-.5.5 0 .27.22.5.5.5 .27 0 .5-.23.5-.5 0-.28-.23-.5-.5-.5Zm-2.5.5C9.5 9.11 10.61 8 12 8c1.38 0 2.5 1.11 2.5 2.5 0 1.38-1.12 2.5-2.5 2.5 -1.39 0-2.5-1.12-2.5-2.5Z"/><path d="M10.26 14.5h3.46c-.35-.6-1-1-1.74-1 -.75 0-1.39.4-1.74 1Zm-2.27 1c0-2.21 1.79-4 4-4 2.2 0 4 1.79 4 4 0 .55-.45 1-1 1h-6c-.56 0-1-.45-1-1Z"/><path d="M15 19H9v-2h6v2Z"/></g></svg>