<svg viewBox="0 0 24 24" xmlns="http://www.w3.org/2000/svg"><g fill-rule="evenodd"><path d="M2 23h20v-2H2v2Z"/><path d="M8 7c0-.56-.45-1-1-1H3c-.56 0-1 .44-1 1v15c0 .55.44 1 1 1h4c.55 0 1-.45 1-1V7ZM6 8v13H4V8h2Z"/><path d="M15 12c0-.56-.45-1-1-1h-4c-.56 0-1 .44-1 1v10c0 .55.44 1 1 1h4c.55 0 1-.45 1-1V12Zm-2 1v8h-2v-8h2Z"/><path d="M22 17c0-.56-.45-1-1-1h-4c-.56 0-1 .44-1 1v5c0 .55.44 1 1 1h4c.55 0 1-.45 1-1v-5Zm-2 1v3h-2v-3h2Z"/><path d="M18 14.5h3c.55 0 1-.45 1-1v-3h-2v.58l-9.8-9.8 -1.42 1.41 9.79 9.79h-.59v2Z"/></g></svg>