<svg viewBox="0 0 24 24" xmlns="http://www.w3.org/2000/svg"><g fill-rule="evenodd"><path d="M12 3C9.79 3 8 4.79 8 7c0 2.2 1.79 4 4 4 2.2 0 4-1.8 4-4 0-2.21-1.8-4-4-4ZM6 7c0-3.32 2.68-6 6-6 3.31 0 6 2.68 6 6 0 3.31-2.69 6-6 6 -3.32 0-6-2.69-6-6Z"/><path d="M2 19c0-2.77 2.23-5 5-5h10c2.76 0 5 2.23 5 5v1c0 1.65-1.35 3-3 3H5c-1.66 0-3-1.35-3-3v-1Zm5-3c-1.66 0-3 1.34-3 3v1c0 .55.44 1 1 1h14c.55 0 1-.45 1-1v-1c0-1.66-1.35-3-3-3H7Z"/><path d="M9.17 14.43c.18-.28.49-.44.82-.44h4c.33 0 .64.16.82.43 .18.27.22.62.1.93l-1.08 2.67c-.68 1.67-3.05 1.67-3.72 0l1.85-.75 .52-1.31h-1.05l.52 1.3 -1.86.74 -1.08-2.68c-.13-.31-.09-.66.1-.94Z"/></g></svg>