<svg viewBox="0 0 24 24" xmlns="http://www.w3.org/2000/svg"><g fill="#9545ED" fill-rule="evenodd"><path d="M10.63 11.09c0-2.97-2.41-5.37-5.37-5.37v-2c4.06 0 7.36 3.29 7.36 7.36h-2Z"/><path d="M4.27 2c0-.56.44-1 1-1 5.57 0 10.09 4.51 10.09 10.09v.9h-2v-.91c0-4.13-3.1-7.54-7.1-8.03v3.5c2.07.45 3.63 2.31 3.63 4.52v.45h-2v-.46c0-1.46-1.19-2.64-2.64-2.64 -.56 0-1-.45-1-1V1.96Z"/><path fill="#3747D6" d="M11.23 12.09c-2.47 0-4.4 1.91-4.4 4.18 0 .07 0 .14 0 .21 .01.27-.09.54-.28.74 -.19.19-.46.31-.73.31h-.01c-1.06 0-1.85.81-1.85 1.72 0 .91.78 1.72 1.84 1.72h11.36c.28 0 .55-.07.79-.17 .02-.02.04-.03.07-.03 1.25-.45 2.1-1.6 2.1-2.9 0-1.67-1.43-3.1-3.27-3.1 -.24 0-.47.02-.69.06 -.44.08-.88-.12-1.08-.51 -.73-1.35-2.2-2.29-3.93-2.29Zm-6.37 3.57c.31-3.17 3.08-5.58 6.36-5.58 2.2 0 4.16 1.07 5.31 2.73 .12-.01.24-.02.36-.02 2.86 0 5.26 2.24 5.26 5.09 0 2.19-1.44 4.04-3.4 4.76 -.49.21-1.02.32-1.58.32H5.8c-2.09 0-3.85-1.64-3.85-3.73 0-1.77 1.24-3.2 2.87-3.61Z"/></g></svg>