<svg viewBox="0 0 24 24" xmlns="http://www.w3.org/2000/svg"><g fill="#9545ED" fill-rule="evenodd"><path d="M20.57 17.28H3.42v-2h17.14v2Z"/><path d="M20.57 20.14H7.71v-2h12.85v2Z"/><path d="M14.38 23H3.42v-2h10.95v2Z"/><path fill="#3747D6" d="M11.107 3c-2.61 0-4.66 2.02-4.66 4.42 0 .07 0 .15 0 .23 .01.27-.09.54-.28.74 -.19.19-.46.31-.73.31h-.01c-1.14 0-1.98.86-1.98 1.85 0 .98.84 1.85 1.97 1.85h11.9c.3 0 .59-.07.85-.19 .02-.02.04-.03.07-.03 1.33-.48 2.24-1.7 2.24-3.08 0-1.78-1.52-3.29-3.47-3.29 -.25 0-.5.02-.73.07 -.44.08-.88-.12-1.08-.51 -.77-1.43-2.33-2.43-4.16-2.43ZM4.47 6.83c.31-3.31 3.19-5.84 6.62-5.84 2.3 0 4.34 1.13 5.54 2.87 .13-.01.27-.02.4-.02 2.97 0 5.46 2.32 5.46 5.28 0 2.28-1.49 4.19-3.54 4.94 -.51.21-1.06.34-1.64.34H5.407c-2.16 0-3.98-1.69-3.98-3.86 0-1.84 1.29-3.33 3-3.75Z"/></g></svg>