<svg viewBox="0 0 24 24" xmlns="http://www.w3.org/2000/svg"><g fill="#9545ED" fill-rule="evenodd"><path d="M14.5 1.28l.24.06c4.74 1.22 8.25 5.52 8.25 10.65 0 5.12-3.51 9.43-8.26 10.65l-.25.06 -.25-.07C9.48 21.4 5.97 17.1 5.97 11.97c0-5.13 3.5-9.44 8.25-10.66l.24-.07Zm0 2.06C10.74 4.42 8 7.88 8 11.98c0 4.102 2.74 7.56 6.5 8.64 3.75-1.09 6.5-4.55 6.5-8.65 0-4.11-2.75-7.57-6.5-8.65Z"/><path fill="#3747D6" d="M12 3c-4.98 0-9 4.02-9 9 0 4.97 4.02 9 9 9 4.97 0 9-4.03 9-9 0-4.98-4.03-9-9-9ZM1 12C1 5.92 5.92 1 12 1c6.07 0 11 4.92 11 11 0 6.07-4.93 11-11 11C5.92 23 1 18.07 1 12Z"/></g></svg>