<svg viewBox="0 0 24 24" xmlns="http://www.w3.org/2000/svg"><g fill="#9545ED" fill-rule="evenodd"><path d="M12.84 4.26c-3.3.42-5.96 2.88-6.68 6.07L4.2 9.88c1-4.41 4.94-7.71 9.65-7.71 1.74 0 3.39.45 4.81 1.25 .42.23.62.75.45 1.21 -.18.46-.66.73-1.14.63 -.38-.08-.77-.12-1.17-.12 -3.128 0-5.7 2.42-5.907 5.49l-2-.15c.18-2.69 1.71-5 3.91-6.29Zm9.7 10.61c.41.26.57.79.37 1.24 -1.55 3.46-5.02 5.87-9.05 5.87 -3.6 0-6.75-1.92-8.48-4.78l1.71-1.04c1.38 2.28 3.89 3.81 6.76 3.81 1.41 0 2.73-.38 3.88-1.02 -.31.03-.61.05-.92.05 -1.94 0-3.72-.7-5.1-1.86l1.28-1.54c1.02.86 2.35 1.38 3.8 1.38 1.75 0 3.33-.77 4.42-1.99 .32-.37.875-.45 1.28-.18Z"/><path fill="#3747D6" d="M7.37 10.62c-1.46 0-2.53 1.08-2.53 2.28 0 .03 0 .07 0 .11 .01.27-.09.54-.28.74 -.19.19-.46.31-.73.31h-.01c-.54 0-.86.39-.86.73 0 .33.31.73.85.73h7.41c.14 0 .27-.03.38-.08 .02-.02.04-.02.07-.03 .7-.25 1.13-.85 1.13-1.49 0-.82-.74-1.6-1.79-1.6 -.14 0-.26.01-.39.03 -.43.08-.86-.12-1.07-.5 -.41-.74-1.25-1.27-2.26-1.27ZM2.9 12.23c.34-2.1 2.266-3.62 4.46-3.62 1.47 0 2.79.66 3.63 1.73 .02-.01.05-.01.07-.01 2.02 0 3.78 1.54 3.78 3.59 0 1.57-1.06 2.86-2.45 3.36 -.36.14-.75.23-1.15.23H3.82c-1.52 0-2.86-1.16-2.86-2.74 0-1.24.82-2.21 1.9-2.58Z"/></g></svg>