<svg viewBox="0 0 24 24" xmlns="http://www.w3.org/2000/svg"><g fill="#9545ED" fill-rule="evenodd"><path d="M10.66 2v2.85h-2V1.99h2Z"/><path d="M5.61 2.72l2.02 2.02 -1.42 1.41 -2.03-2.03L5.59 2.7Z"/><path d="M11.84 4.71l1.99-2 1.41 1.41 -2.03 2.02c-.02.01-.04.03-.06.05l-.26.22 -1.31-1.52 .23-.2Z"/><path d="M6.33 10.81L4.3 12.83l1.41 1.41 2.02-2.03 -1.42-1.42Z"/><path d="M3 7.66h2.85v2H2.99v-2Z"/><path d="M8.73 18.77l.95-2.39 1.85.74 -.96 2.38 -1.86-.75Z"/><path d="M13.02 18.77l.95-2.39 1.85.74 -.96 2.38 -1.86-.75Z"/><path d="M17.3 18.77l.95-2.39 1.85.74 -.96 2.38 -1.86-.75Z"/><path d="M10.167 21.62l.95-2.39 1.85.74 -.96 2.38 -1.86-.75Z"/><path d="M14.45 21.62l.95-2.39 1.85.74 -.96 2.38 -1.86-.75Z"/><path d="M18.73 21.62l.95-2.39 1.85.74 -.96 2.38 -1.86-.75Z"/><g fill="#3747D6"><path d="M14.36 8.71c-1.39 0-2.4 1.03-2.4 2.16 0 .03 0 .07 0 .11 .01.27-.09.54-.28.74 -.19.19-.46.31-.73.31h-.01c-.5 0-.79.36-.79.66 0 .3.28.66.78.66h7.14c.13 0 .25-.03.35-.08 .02-.02.04-.02.07-.03 .66-.24 1.07-.8 1.07-1.4 0-.77-.69-1.5-1.68-1.5 -.13 0-.25.01-.37.03 -.43.08-.86-.12-1.07-.5 -.39-.7-1.19-1.21-2.15-1.21Zm-4.34 1.49c.34-2.03 2.2-3.5 4.33-3.5 1.42 0 2.7.64 3.51 1.66 .01-.01.03-.01.05-.01 1.96 0 3.67 1.5 3.67 3.5 0 1.53-1.03 2.78-2.38 3.27 -.35.14-.73.22-1.13.22h-7.15c-1.48 0-2.79-1.14-2.79-2.67 0-1.2.79-2.15 1.84-2.51Z"/><path d="M9.66 5.85c-1.56 0-2.81 1.25-2.81 2.8 0 1.43 1.07 2.61 2.45 2.78l-.25 1.98c-2.38-.3-4.21-2.32-4.21-4.78 0-2.66 2.15-4.81 4.8-4.81 2.24 0 4.12 1.53 4.65 3.6l-1.94.49c-.32-1.22-1.42-2.11-2.73-2.11Z"/></g></g></svg>