<svg viewBox="0 0 24 24" xmlns="http://www.w3.org/2000/svg"><g fill="#9545ED" fill-rule="evenodd"><path d="M10.5 4v3h-2V4h2Z"/><path d="M5.2 4.79l2.12 2.12L5.9 8.32 3.77 6.19l1.41-1.42Z"/><path d="M11.8 6.9l2.1-2.11 1.41 1.41 -2.13 2.12c-.01 0-.02.01-.03.02l-.24.21 -1.37-1.47 .22-.21Z"/><path d="M6.03 13.29L3.9 15.41l1.41 1.41 2.12-2.13 -1.42-1.42Z"/><path d="M2.5 10h3v2h-3v-2Z"/><path d="M10.05 19.68l1-3 1.89.63 -1 3 -1.9-.64Z"/><path d="M13.05 19.68l1-3 1.89.63 -1 3 -1.9-.64Z"/><path d="M16.05 19.68l1-3 1.89.63 -1 3 -1.9-.64Z"/><g fill="#3747D6"><path d="M14.43 11c-1.49 0-2.57 1.1-2.57 2.32 0 .04 0 .08 0 .11 .01.27-.09.54-.28.74 -.19.19-.46.31-.73.31h-.01c-.55 0-.875.39-.875.75 0 .35.32.75.875.75h7.5c.14 0 .27-.03.39-.09 .02-.02.04-.02.07-.03 .71-.25 1.15-.87 1.15-1.516 0-.84-.75-1.625-1.82-1.625 -.14 0-.27.01-.39.03 -.43.08-.86-.12-1.07-.5 -.42-.75-1.27-1.29-2.3-1.29Zm-4.51 1.65c.34-2.12 2.28-3.66 4.5-3.66 1.48 0 2.82.67 3.66 1.75 .02-.01.05-.01.08-.01 2.03 0 3.81 1.55 3.81 3.625 0 1.58-1.07 2.88-2.47 3.39 -.36.15-.75.23-1.16.23h-7.5c-1.53 0-2.875-1.17-2.875-2.75 0-1.25.83-2.23 1.92-2.6Z"/><path d="M9.5 8c-1.66 0-3 1.34-3 3 0 1.52 1.14 2.79 2.62 2.97l-.25 1.98c-2.47-.31-4.38-2.42-4.38-4.97 0-2.77 2.23-5 5-5 2.33 0 4.28 1.59 4.84 3.75l-1.94.49c-.34-1.3-1.51-2.25-2.91-2.25Z"/></g></g></svg>