<svg viewBox="0 0 24 24" xmlns="http://www.w3.org/2000/svg"><g fill="#9545ED" fill-rule="evenodd"><path d="M5 2v20H3V2h2Z"/><path d="M3.37 7.4l4.76-3.81 1.24 1.56 -3.79 3.02 3.78 3.02 -1.25 1.56 -4.77-3.81c-.24-.19-.38-.48-.38-.79 0-.31.13-.6.37-.79Z"/><g fill="#3747D6"><path d="M8.11 3.622c.22-.19.51-.28.8-.23l12.38 1.9c.48.07.84.49.84.98v3.8c0 .49-.37.91-.85.98l-12.39 1.9c-.29.04-.59-.04-.81-.23 -.23-.19-.35-.47-.35-.76v-7.62c0-.3.12-.57.34-.76Zm1.65 1.92v5.28l10.381-1.6v-2.1L9.76 5.522Z"/><path d="M12.04 11.04V5.32h2v5.71h-2Z"/><path d="M15.85 10.57V5.8h2v4.76h-2Z"/></g></g></svg>