<svg viewBox="0 0 24 24" xmlns="http://www.w3.org/2000/svg"><g fill="#9545ED" fill-rule="evenodd"><path d="M5.18 18.22c1.07-.82 2.56-.82 3.63 0l.07.05c.35.27.85.27 1.21 0l.07-.06c1.07-.82 2.56-.82 3.63 0l.07.05c.35.27.85.27 1.21 0l.07-.06c1.07-.82 2.56-.82 3.63 0l.23.17c.31.24.75.27 1.1.07l1.34-.78 .99 1.73 -1.35.77c-1.05.59-2.35.51-3.31-.22l-.24-.18c-.36-.28-.86-.28-1.22 0l-.08.05c-1.08.81-2.57.81-3.64 0l-.08-.06c-.36-.28-.86-.28-1.22 0l-.08.05c-1.08.81-2.57.81-3.64 0l-.08-.06c-.36-.28-.86-.28-1.22 0l-.24.17c-.96.73-2.27.81-3.31.21l-1.35-.78 .99-1.74 1.34.77c.34.19.78.17 1.1-.08l.23-.18Z"/><path d="M5.18 13.93c1.07-.82 2.56-.82 3.63 0l.07.05c.35.27.85.27 1.21 0l.07-.06c1.07-.82 2.56-.82 3.63 0l.07.05c.35.27.85.27 1.21 0l.07-.06c1.07-.82 2.56-.82 3.63 0l.23.17c.31.24.75.27 1.1.07l1.34-.78 .99 1.73 -1.35.77c-1.05.59-2.35.51-3.31-.22l-.24-.18c-.36-.28-.86-.28-1.22 0l-.08.05c-1.08.81-2.57.81-3.64 0l-.08-.06c-.36-.28-.86-.28-1.22 0l-.08.05c-1.08.81-2.57.81-3.64 0l-.08-.06c-.36-.28-.86-.28-1.22 0l-.24.17c-.96.73-2.27.81-3.31.21l-1.35-.78 .99-1.74 1.34.77c.34.19.78.17 1.1-.08l.23-.18Z"/><g fill="#3747D6"><path d="M7.47 6.71c-.37 0-.67.29-.67.66 0 .36.29.66.66.66h10.71v1.99H7.45c-1.48 0-2.67-1.2-2.67-2.67 0-1.48 1.19-2.67 2.66-2.67h.23v2h-.24Z"/><path d="M11.76 5.28c-.11 0-.2.08-.2.19 0 .1.08.19.19.19h6.42v2h-6.43c-1.21 0-2.2-.99-2.2-2.2 0-1.21.98-2.2 2.19-2.2h.71v2h-.72Z"/><path d="M11.28 10.42c-.11 0-.2-.09-.2-.2 0-.11.08-.2.19-.2h6.42v-2h-6.43c-1.21 0-2.2.98-2.2 2.19 0 1.2.98 2.19 2.19 2.19h.71v-2h-.72Z"/></g></g></svg>