<svg viewBox="0 0 24 24" xmlns="http://www.w3.org/2000/svg"><path fill="#EE4D4D" d="M19.6 4.39C15.4.19 8.59.19 4.39 4.39c-4.2 4.19-4.2 11 0 15.2 4.19 4.19 11 4.19 15.2 0 4.19-4.2 4.19-11.01 0-15.21Z"/><g fill="#ECEFF1" fill-rule="evenodd"><path d="M4.94 20.11l.51-.52v0l8.13-8.14c.29-.3.29-.77 0-1.07 -.3-.3-.77-.3-1.07 0l-8.14 8.13h-.01l-.52.51c.16.18.33.37.51.54 .17.17.36.34.54.51Z"/><path d="M7.36 10.93c0-.42.33-.75.75-.75h4.94c.41 0 .75.33.75.75v4.94c0 .41-.34.75-.75.75 -.42 0-.75-.34-.75-.75v-4.2H8.1c-.42 0-.75-.34-.75-.75Z"/></g></svg>