<svg viewBox="0 0 24 24" xmlns="http://www.w3.org/2000/svg"><path fill="#8BC94D" d="M1.25 12C1.25 6.06 6.06 1.25 12 1.25c5.93 0 10.75 4.81 10.75 10.75 0 5.93-4.82 10.75-10.75 10.75 -5.94 0-10.75-4.82-10.75-10.75Z"/><g fill="#ECEFF1"><path d="M7.96 12.53c-.22-.22-.28-.54-.17-.82 .11-.29.38-.47.69-.47h6.99c.3 0 .57.18.69.46 .11.28.05.6-.17.81l-3.5 3.5c-.3.29-.77.29-1.07 0l-3.51-3.5Z"/><path fill="#ECEFF1" fill-rule="evenodd" d="M7.75 9.5c0 .41.33.75.75.75h7c.41 0 .75-.34.75-.75 0-.42-.34-.75-.75-.75h-7c-.42 0-.75.33-.75.75Z"/></g></svg>