<svg viewBox="0 0 24 24" xmlns="http://www.w3.org/2000/svg"><g fill="#8BC94D" fill-rule="evenodd"><path d="M17.75 15.5c0 .41-.34.75-.75.75H7.5c-.42 0-.75-.34-.75-.75 0-.42.33-.75.75-.75H17c.41 0 .75.33.75.75Z"/><path d="M11.03 19.53c-.3.29-.77.29-1.07 0l-3.5-3.5c-.3-.3-.3-.77 0-1.07l3.5-3.5c.29-.3.76-.3 1.06 0 .29.29.29.76 0 1.06l-2.97 2.96 2.96 2.96c.29.29.29.76 0 1.06Z"/><path d="M6.25 8.5c0 .41.33.75.75.75h9.5c.41 0 .75-.34.75-.75 0-.42-.34-.75-.75-.75H7c-.42 0-.75.33-.75.75Z"/><path d="M12.96 12.53c.29.29.76.29 1.06 0l3.5-3.5c.29-.3.29-.77 0-1.07l-3.5-3.5c-.3-.3-.77-.3-1.07 0 -.3.29-.3.76 0 1.06l2.96 2.96 -2.97 2.96c-.3.29-.3.76 0 1.06Z"/></g></svg>