<svg viewBox="0 0 24 24" xmlns="http://www.w3.org/2000/svg"><g fill="#8BC94D" fill-rule="evenodd"><path d="M11.44 12.57c-.3-.3-.3-.77 0-1.07l6.71-6.72c.29-.3.76-.3 1.06 0 .29.29.29.76 0 1.06l-6.72 6.71c-.3.29-.77.29-1.07 0Z"/><path d="M13.34 4.97c0-.42.33-.75.75-.75h4.94c.41 0 .75.33.75.75v4.94c0 .41-.34.75-.75.75 -.42 0-.75-.34-.75-.76V5.7h-4.2c-.42 0-.75-.34-.75-.75Z"/><path d="M12.57 11.44c.29.29.29.76 0 1.06l-6.72 6.71c-.3.29-.77.29-1.07 0 -.3-.3-.3-.77 0-1.07l6.71-6.72c.29-.3.76-.3 1.06 0Z"/><path d="M10.67 19.046c0 .41-.34.75-.76.75H4.96c-.42 0-.75-.34-.75-.75v-4.95c0-.42.33-.75.75-.75 .41 0 .75.33.75.75v4.19H9.9c.41 0 .75.33.75.75Z"/></g></svg>