<svg viewBox="0 0 24 24" xmlns="http://www.w3.org/2000/svg"><g fill="#8BC94D" fill-rule="evenodd"><path d="M6.46 7.96c.29-.3.76-.3 1.06 0l3.49 3.5c.29.29.29.76 0 1.06l-3.5 3.5c-.3.29-.77.29-1.07 0 -.3-.3-.3-.77 0-1.07l2.96-2.97 -2.97-2.97c-.3-.3-.3-.77 0-1.07Z"/><path d="M4.5 7.75c.41 0 .75.33.75.75v7c0 .41-.34.75-.75.75 -.42 0-.75-.34-.75-.75v-7c0-.42.33-.75.75-.75Z"/><path d="M17.53 7.96c-.3-.3-.77-.3-1.07 0l-3.5 3.5c-.3.29-.3.76 0 1.06l3.5 3.5c.29.29.76.29 1.06 0 .29-.3.29-.77 0-1.07l-2.97-2.97 2.96-2.97c.29-.3.29-.77 0-1.07Z"/><path d="M19.5 7.75c-.42 0-.75.33-.75.75v7c0 .41.33.75.75.75 .41 0 .75-.34.75-.75v-7c0-.42-.34-.75-.75-.75Z"/></g></svg>