<svg viewBox="0 0 24 24" xmlns="http://www.w3.org/2000/svg"><g fill="#EE4D4D" fill-rule="evenodd"><path d="M9.71 7.96c.29-.3.76-.3 1.06 0l3.5 3.5c.29.29.29.76 0 1.06l-3.5 3.5c-.3.29-.77.29-1.07 0 -.3-.3-.3-.77 0-1.07l2.96-2.97 -2.97-2.97c-.3-.3-.3-.77 0-1.07Z"/><path d="M14.71 7.96c.29-.3.76-.3 1.06 0l3.5 3.5c.29.29.29.76 0 1.06l-3.5 3.5c-.3.29-.77.29-1.07 0 -.3-.3-.3-.77 0-1.07l2.96-2.97 -2.97-2.97c-.3-.3-.3-.77 0-1.07Z"/><path d="M4.71 7.96c.29-.3.76-.3 1.06 0l3.5 3.5c.29.29.29.76 0 1.06l-3.5 3.5c-.3.29-.77.29-1.07 0 -.3-.3-.3-.77 0-1.07l2.96-2.97 -2.97-2.97c-.3-.3-.3-.77 0-1.07Z"/></g></svg>