<svg viewBox="0 0 24 24" xmlns="http://www.w3.org/2000/svg"><g fill="#EE4D4D" fill-rule="evenodd"><path d="M1.68 16.07c.29.29.76.29 1.06 0l3.5-3.5c.29-.3.29-.77 0-1.07L2.74 8c-.3-.3-.77-.3-1.07 0 -.3.29-.3.76 0 1.06l2.96 2.96 -2.97 2.96c-.3.29-.3.76 0 1.06Z"/><path d="M16.07 1.68c.29.29.29.76 0 1.06l-3.5 3.5c-.3.29-.77.29-1.07 0l-3.51-3.5c-.3-.3-.3-.77 0-1.07 .29-.3.76-.3 1.06 0l2.96 2.96 2.96-2.97c.29-.3.76-.3 1.06 0Z"/><path d="M16.07 22.39c.29-.3.29-.77 0-1.07l-3.5-3.5c-.3-.3-.77-.3-1.07 0l-3.51 3.5c-.3.29-.3.76 0 1.06 .29.29.76.29 1.06 0l2.96-2.97 2.96 2.96c.29.29.76.29 1.06 0Z"/><path d="M22.39 8.01c-.3-.3-.77-.3-1.07 0l-3.5 3.49c-.3.29-.3.76 0 1.06l3.5 3.5c.29.29.76.29 1.06 0 .29-.3.29-.77 0-1.07l-2.97-2.97 2.96-2.97c.29-.3.29-.77 0-1.07Z"/></g><path fill="#EE4D4D" d="M12 7.25c-2.63 0-4.75 2.12-4.75 4.75 0 2.62 2.12 4.75 4.75 4.75 2.62 0 4.75-2.13 4.75-4.75 0-2.63-2.13-4.75-4.75-4.75Z"/></svg>