<svg viewBox="0 0 24 24" xmlns="http://www.w3.org/2000/svg"><defs><mask id="a"><path fill="#FFF" d="M0 0h24v24H0Z"/></mask></defs><g mask="url(#a)"><g fill-rule="evenodd"><path d="M14.86 18.73c.84-1.69 1.38-4.07 1.38-6.74 0-2.68-.55-5.06-1.39-6.74 -.87-1.73-1.93-2.52-2.87-2.52 -.95 0-2 .78-2.87 2.51 -.85 1.68-1.39 4.06-1.39 6.73 0 2.67.54 5.05 1.38 6.73 .86 1.72 1.92 2.51 2.86 2.51s1.99-.79 2.86-2.52Zm1.34.67c-.95 1.88-2.39 3.34-4.21 3.34 -1.82 0-3.27-1.46-4.21-3.35 -.97-1.94-1.55-4.56-1.55-7.41 0-2.86.57-5.48 1.54-7.41 .94-1.89 2.38-3.35 4.2-3.35 1.81-.001 3.26 1.45 4.2 3.34 .96 1.93 1.54 4.55 1.54 7.4 0 2.85-.58 5.47-1.55 7.4Z"/><path d="M4.31 18.38c.16-.38.6-.56.98-.39 .88.38 2.23.42 3.88-.01 1.63-.42 3.46-1.27 5.25-2.52 2.18-1.54 3.82-3.35 4.72-5 .92-1.71.95-3.02.41-3.79 -.55-.78-1.79-1.19-3.71-.91 -1.87.27-4.13 1.19-6.32 2.72 -1.72 1.19-3.1 2.56-4.05 3.9 -.96 1.35-1.44 2.6-1.46 3.58 -.01.41-.35.74-.77.73 -.42-.01-.75-.35-.74-.77 .02-1.4.67-2.95 1.72-4.43 1.06-1.5 2.56-2.99 4.4-4.27 2.33-1.64 4.81-2.67 6.95-2.99 2.08-.31 4.1.03 5.15 1.52 1.04 1.48.67 3.5-.33 5.36 -1.03 1.9-2.85 3.87-5.19 5.51 -1.92 1.33-3.91 2.26-5.74 2.73 -1.81.46-3.55.5-4.87-.08 -.38-.17-.56-.61-.39-.99Z"/><path d="M8.12 5.78c1.86.27 4.12 1.19 6.31 2.72 2.18 1.53 3.82 3.34 4.72 4.99 .92 1.7.95 3.01.41 3.78 -.55.77-1.79 1.18-3.71.9 -1.87-.28-4.13-1.2-6.32-2.73 -2.19-1.54-3.83-3.35-4.73-5 -.93-1.71-.96-3.02-.42-3.79 .54-.78 1.78-1.19 3.7-.91Zm.22-1.49c-2.09-.31-4.11.03-5.16 1.52 -1.05 1.48-.68 3.5.32 5.36 1.02 1.9 2.84 3.87 5.18 5.51 2.33 1.63 4.81 2.66 6.95 2.98 2.08.3 4.1-.04 5.15-1.53 1.04-1.49.67-3.51-.33-5.37 -1.03-1.91-2.85-3.88-5.19-5.52 -2.34-1.64-4.82-2.67-6.96-2.99Z"/><path d="M10.25 12c0 .96.78 1.75 1.75 1.75 .96 0 1.75-.79 1.75-1.75 0-.97-.79-1.75-1.75-1.75 -.97 0-1.75.78-1.75 1.75ZM12 15.25c-1.8 0-3.25-1.46-3.25-3.25 0-1.8 1.45-3.25 3.25-3.25 1.79 0 3.25 1.45 3.25 3.24 0 1.79-1.46 3.25-3.25 3.25Z"/></g></g></svg>