<svg viewBox="0 0 24 24" xmlns="http://www.w3.org/2000/svg"><defs><mask id="a"><path fill="#FFF" d="M0 0h24v24H0Z"/></mask></defs><g mask="url(#a)"><g fill-rule="evenodd"><path d="M5.26 14.86c1.68.84 4.06 1.38 6.73 1.38 2.67 0 5.05-.55 6.73-1.39 1.72-.87 2.51-1.93 2.51-2.87 0-.95-.79-2-2.52-2.87 -1.69-.85-4.07-1.39-6.74-1.39 -2.68 0-5.06.54-6.74 1.38 -1.73.86-2.52 1.92-2.52 2.86s.78 1.99 2.51 2.86Zm-.68 1.34c-1.89-.95-3.35-2.39-3.35-4.21 0-1.82 1.45-3.27 3.34-4.21 1.93-.97 4.55-1.55 7.4-1.55 2.85 0 5.47.57 7.4 1.54 1.88.94 3.34 2.38 3.34 4.2 0 1.81-1.46 3.26-3.35 4.2 -1.94.96-4.56 1.54-7.41 1.54 -2.86 0-5.48-.58-7.41-1.55Z"/><path d="M5.79 8.12c.27 1.86 1.19 4.12 2.72 6.31 1.53 2.18 3.34 3.82 4.99 4.72 1.7.92 3.01.95 3.78.41 .77-.55 1.18-1.79.9-3.71 -.28-1.87-1.2-4.13-2.73-6.32 -1.54-2.19-3.35-3.83-5-4.73 -1.71-.93-3.02-.96-3.79-.42 -.78.54-1.19 1.78-.91 3.7Zm-1.49.22c-.31-2.09.03-4.11 1.52-5.16 1.48-1.05 3.5-.68 5.36.32 1.9 1.02 3.87 2.84 5.51 5.18 1.63 2.33 2.66 4.81 2.98 6.95 .3 2.08-.04 4.1-1.53 5.15 -1.49 1.04-3.51.67-5.37-.33 -1.91-1.03-3.88-2.85-5.52-5.19 -1.64-2.34-2.67-4.82-2.99-6.96Z"/><path d="M18.21 8.12c-.28 1.86-1.2 4.12-2.73 6.31 -1.38 1.96-2.99 3.49-4.51 4.43 -1.55.95-2.88 1.23-3.77.95 -.4-.13-.82.1-.94.49 -.13.39.1.81.49.93 1.5.45 3.3-.08 4.98-1.12 1.71-1.07 3.46-2.75 4.94-4.85 1.63-2.34 2.66-4.82 2.98-6.96 .3-2.09-.04-4.11-1.53-5.16 -1.49-1.05-3.51-.68-5.37.32 -1.91 1.02-3.88 2.84-5.52 5.18 -2.29 3.26-3.43 6.86-3.01 9.42 .06.4.45.68.86.61 .4-.07.68-.46.61-.87 -.34-2.02.57-5.21 2.74-8.32 1.53-2.19 3.34-3.83 4.99-4.73 1.7-.93 3.01-.96 3.78-.42s1.18 1.78.9 3.7Z"/><path d="M12 10.25c-.97 0-1.75.78-1.75 1.75 0 .96.78 1.75 1.75 1.75 .96 0 1.75-.79 1.75-1.75 0-.97-.79-1.75-1.75-1.75ZM8.75 12c0-1.8 1.45-3.25 3.25-3.25 1.79 0 3.25 1.45 3.25 3.25 0 1.79-1.46 3.25-3.25 3.25 -1.8 0-3.25-1.46-3.25-3.25Z"/></g></g></svg>