<svg viewBox="0 0 24 24" xmlns="http://www.w3.org/2000/svg"><g fill-rule="evenodd"><path d="M12 2.75C8.54 2.75 5.75 5.54 5.75 9c0 .41-.34.75-.75.75 -.42 0-.75-.34-.75-.75 0-4.29 3.46-7.75 7.75-7.75 4.28 0 7.75 3.46 7.75 7.75 0 4.28-3.47 7.75-7.75 7.75 -2.64 0-4.97-1.32-6.37-3.33 -.24-.34-.16-.81.18-1.05 .33-.24.8-.16 1.04.18 1.13 1.62 3 2.67 5.13 2.67 3.45 0 6.25-2.8 6.25-6.25 0-3.46-2.8-6.25-6.25-6.25Z"/><path d="M7.5 13.75c.41 0 .75.33.75.75v6.34l3.44-1.54c.19-.09.41-.09.6 0l3.44 1.53v-6.35c0-.42.33-.75.75-.75 .41 0 .75.33.75.75v7.5c0 .25-.13.49-.35.62 -.22.13-.49.15-.72.05l-4.2-1.87 -4.2 1.86c-.24.1-.51.08-.72-.06 -.22-.14-.35-.375-.35-.63v-7.5c0-.42.33-.75.75-.75Z"/></g></svg>