<svg viewBox="0 0 24 24" xmlns="http://www.w3.org/2000/svg"><g fill-rule="evenodd"><path d="M1.25 7c0-1.52 1.23-2.75 2.75-2.75h16c1.51 0 2.75 1.23 2.75 2.75v11c0 1.51-1.24 2.75-2.75 2.75 -.42 0-.75-.34-.75-.75 0-.42.33-.75.75-.75 .69 0 1.25-.56 1.25-1.25V7c0-.7-.56-1.25-1.25-1.25H4c-.7 0-1.25.55-1.25 1.25v11c0 .69.55 1.25 1.25 1.25h12c.41 0 .75.33.75.75 0 .41-.34.75-.75.75H4c-1.52 0-2.75-1.24-2.75-2.75V7Z"/><path d="M1.89 7.66c-.44-1.74.87-3.42 2.66-3.42h14.87c1.78 0 3.1 1.68 2.66 3.41l-.5 2c-.31 1.22-1.41 2.08-2.67 2.08H5.03c-1.27 0-2.37-.86-2.67-2.09l-.5-2Zm2.66-1.92c-.82 0-1.41.76-1.22 1.55l.5 2c.13.55.63.94 1.21.94h13.87c.57 0 1.07-.4 1.21-.95l.5-2c.19-.79-.4-1.56-1.22-1.56H4.52Z"/><path d="M6.25 4c0-1.52 1.23-2.75 2.75-2.75h6c1.51 0 2.75 1.23 2.75 2.75v1c0 .41-.34.75-.75.75H7c-.42 0-.75-.34-.75-.75V4ZM9 2.75c-.7 0-1.25.55-1.25 1.25v.25h8.5V4c0-.7-.56-1.25-1.25-1.25H9Z"/><path d="M17 7.75c.41 0 .75.33.75.75v5c0 .41-.34.75-.75.75 -.42 0-.75-.34-.75-.75v-5c0-.42.33-.75.75-.75Z"/><path d="M7 7.75c.41 0 .75.33.75.75v5c0 .41-.34.75-.75.75 -.42 0-.75-.34-.75-.75v-5c0-.42.33-.75.75-.75Z"/></g></svg>