<svg viewBox="0 0 24 24" xmlns="http://www.w3.org/2000/svg"><g fill-rule="evenodd"><path d="M3.25 10c0-.42.33-.75.75-.75h6c.41 0 .75.33.75.75v10c0 .41-.34.75-.75.75H4c-.42 0-.75-.34-.75-.75v-1.5c0-.42.33-.75.75-.75 .41 0 .75.33.75.75v.75h4.5v-8.5h-4.5v3.75c0 .41-.34.75-.75.75 -.42 0-.75-.34-.75-.75V10Z"/><path d="M11.25 6c0-.42.33-.75.75-.75h5c.41 0 .75.33.75.75v4c0 .41-.34.75-.75.75h-5c-.42 0-.75-.34-.75-.75V6Zm1.5.75v2.5h3.5v-2.5h-3.5Z"/><path d="M9.25 10c0-.42.33-.75.75-.75h10c.41 0 .75.33.75.75v5c0 .41-.34.75-.75.75H10c-.42 0-.75-.34-.75-.75v-5Zm1.5.75v3.5h8.5v-3.5h-8.5Z"/><path d="M1.25 10c0-.42.33-.75.75-.75h20c.41 0 .75.33.75.75 0 .41-.34.75-.75.75H2c-.42 0-.75-.34-.75-.75Z"/><path d="M20 9.25c.41 0 .75.33.75.75v10.2c0 .41-.34.75-.75.75 -.42 0-.75-.34-.75-.75V9.99c0-.42.33-.75.75-.75Z"/></g></svg>