<svg viewBox="0 0 24 24" xmlns="http://www.w3.org/2000/svg"><g fill-rule="evenodd"><path d="M4.25 4c0-.42.33-.75.75-.75h14c.41 0 .75.33.75.75v5c0 .41-.34.75-.75.75 -.42 0-.75-.34-.75-.75V4.75H5.75v9.5h12.5V13c0-.42.33-.75.75-.75 .41 0 .75.33.75.75v2c0 .41-.34.75-.75.75H5c-.42 0-.75-.34-.75-.75V4Z"/><path d="M3.25 15c0-.42.33-.75.75-.75h16c.41 0 .75.33.75.75v2.5c0 .41-.34.75-.75.75H4c-.42 0-.75-.34-.75-.75V15Zm1.5.75v1h14.5v-1H4.75Z"/><path d="M12 1.25c.41 0 .75.33.75.75v2c0 .41-.34.75-.75.75 -.42 0-.75-.34-.75-.75V2c0-.42.33-.75.75-.75Z"/><path d="M12 16.75c.41 0 .75.33.75.75V21c0 .41-.34.75-.75.75 -.42 0-.75-.34-.75-.75v-3.5c0-.42.33-.75.75-.75Z"/><path d="M17.26 16.78c.39-.14.81.08.94.47l1.5 4.5c.13.39-.09.81-.48.94 -.4.13-.82-.09-.95-.48l-1.5-4.5c-.14-.4.08-.82.47-.95Z"/><path d="M6.73 16.78c-.4-.14-.82.08-.95.47l-1.5 4.5c-.14.39.08.81.47.94 .39.13.81-.09.94-.48l1.5-4.5c.13-.4-.09-.82-.48-.95Z"/></g></svg>