<svg viewBox="0 0 24 24" xmlns="http://www.w3.org/2000/svg"><g fill-rule="evenodd"><path d="M1.25 6c0-.42.33-.75.75-.75h20c.41 0 .75.33.75.75v12c0 .41-.34.75-.75.75h-1.5c-.42 0-.75-.34-.75-.75 0-.42.33-.75.75-.75h.75V6.75H2.75v10.5H16.5c.41 0 .75.33.75.75 0 .41-.34.75-.75.75H2c-.42 0-.75-.34-.75-.75V6Z"/><path d="M17.25 9c0-.42.33-.75.75-.75h4c.41 0 .75.33.75.75v6c0 .41-.34.75-.75.75h-4c-.42 0-.75-.34-.75-.75V9Zm1.5.75v4.5h2.5v-4.5h-2.5Z"/><path d="M1.25 9c0-.42.33-.75.75-.75h4c.41 0 .75.33.75.75v6c0 .41-.34.75-.75.75H2c-.42 0-.75-.34-.75-.75V9Zm1.5.75v4.5h2.5v-4.5h-2.5Z"/><path d="M12 5.25c.41 0 .75.33.75.75v4c0 .41-.34.75-.75.75 -.42 0-.75-.34-.75-.75V6c0-.42.33-.75.75-.75Zm0 8c.41 0 .75.33.75.75v4c0 .41-.34.75-.75.75 -.42 0-.75-.34-.75-.75v-4c0-.42.33-.75.75-.75Z"/><path d="M12 10.75c-.7 0-1.25.55-1.25 1.25 0 .69.55 1.25 1.25 1.25 .69 0 1.25-.56 1.25-1.25 0-.7-.56-1.25-1.25-1.25ZM9.25 12c0-1.52 1.23-2.75 2.75-2.75 1.51 0 2.75 1.23 2.75 2.75 0 1.51-1.24 2.75-2.75 2.75 -1.52 0-2.75-1.24-2.75-2.75Z"/></g></svg>