<svg viewBox="0 0 24 24" xmlns="http://www.w3.org/2000/svg"><g fill-rule="evenodd"><path d="M15.84 5.07c-.3-.3-.77-.3-1.07 0l-9.2 9.19c-.3.29-.3.76-.001 1.06l2.82 2.82c.29.29.76.29 1.06 0l4.04-4.05c.29-.3.29-.77 0-1.07 -.3-.3-.77-.3-1.07 0l-3.52 3.51 -1.77-1.77 8.13-8.14 1.76 1.76 -.62.61c-.3.29-.3.76 0 1.06 .29.29.76.29 1.06 0l1.14-1.15c.29-.3.29-.77 0-1.07L15.769 5Z"/><path d="M16.61 2.03c-.24.03-.45.18-.56.4l-1.42 2.82c-.15.28-.09.63.14.86l2.82 2.82c.22.22.57.28.86.14l2.82-1.42c.21-.11.36-.32.4-.56 .03-.24-.04-.48-.21-.66l-4.25-4.25c-.18-.18-.42-.25-.66-.21Zm.32 2L19.7 6.8l-1.42.7 -2.064-2.07 .7-1.42Z"/><path d="M15.13 1.18c-.3.29-.3.76 0 1.06l6.36 6.36c.29.29.76.29 1.06 0 .29-.3.29-.77 0-1.07l-6.37-6.37c-.3-.3-.77-.3-1.07 0Z"/><path d="M5.24 16.74c.48-.49 1.27-.49 1.76 0 .48.48.48 1.27 0 1.76 -.23.22-.52.34-.81.36 -.19.01-.36.08-.49.21l-1.01 1L3.62 19l1-1.01c.12-.13.2-.31.21-.49 .01-.3.13-.59.36-.81Zm2.82-1.07c-1.08-1.08-2.82-1.08-3.89 0 -.42.41-.68.93-.77 1.47l-1.36 1.35c-.3.29-.3.76 0 1.06l2.12 2.12c.29.29.76.29 1.06 0l1.35-1.36c.53-.1 1.05-.35 1.47-.77 1.07-1.08 1.07-2.82 0-3.89Z"/><path d="M4.53 13.2c-.3.29-.3.76 0 1.06l4.94 4.94c.29.29.76.29 1.06 0 .29-.3.29-.77 0-1.07l-4.95-4.95c-.3-.3-.77-.3-1.07 0Z"/></g></svg>