<svg viewBox="0 0 24 24" xmlns="http://www.w3.org/2000/svg"><g fill-rule="evenodd"><path d="M2.25 9.57c0-.28.14-.53.38-.66l4-2.24c.36-.21.81-.08 1.02.28 .2.36.07.81-.29 1.02L4.53 9.55l7.53 4.21 7.53-4.22 -7.54-4.22 -.77.42c-.37.2-.82.07-1.03-.29 -.21-.37-.08-.82.28-1.03l1.13-.64c.22-.13.5-.13.73 0l9.07 5.07c.23.13.38.38.38.65s-.15.52-.39.65l-9.08 5.07c-.23.12-.51.12-.74 0l-9.08-5.08c-.24-.14-.39-.39-.39-.66Z"/><path d="M6 10.75c.41 0 .75.33.75.75V17c0 .13.11.25.25.25h10c.13 0 .25-.12.25-.25v-5.5c0-.42.33-.75.75-.75 .41 0 .75.33.75.75V17c0 .96-.79 1.75-1.75 1.75H7c-.97 0-1.75-.79-1.75-1.75v-5.5c0-.42.33-.75.75-.75Z"/><path d="M21 8.75c.41 0 .75.33.75.75V15c0 .41-.34.75-.75.75 -.42 0-.75-.34-.75-.75V9.5c0-.42.33-.75.75-.75Z"/></g></svg>