<svg viewBox="0 0 24 24" xmlns="http://www.w3.org/2000/svg"><g fill-rule="evenodd"><path d="M21.57 9.34c1.07-1.08 1.07-2.82 0-3.89l-1.42-1.42c-1.08-1.08-2.82-1.08-3.89 0l-4.25 4.24c-.3.29-.3.76 0 1.06l4.24 4.24c.14.14.33.21.53.21 .19 0 .38-.08.53-.22l4.24-4.25ZM20.5 6.51c.48.48.48 1.27 0 1.76l-3.72 3.71 -3.19-3.19 3.71-3.72c.48-.49 1.27-.49 1.76 0l1.41 1.41Z"/><path d="M16.98 13.23c.29-.3.29-.77 0-1.07l-3.54-3.54c-.15-.15-.34-.22-.54-.22s-.39.07-.54.21l-7.08 7.07c-.69.68-.69 1.79 0 2.47l2.12 2.12c.68.68 1.79.68 2.47 0l.62-.63c.29-.3.29-.77 0-1.07 -.3-.3-.77-.3-1.07 0l-.63.62c-.1.09-.26.09-.36 0L6.3 17.06c-.1-.1-.1-.26 0-.36l6.54-6.55 2.47 2.47 -2.77 2.76c-.3.29-.3.76 0 1.06 .29.29.76.29 1.06 0l3.29-3.3Z"/><path d="M7.43 18.18c-.3-.3-.77-.3-1.07 0L4.23 20.3c-.3.29-.3.76 0 1.06 .29.29.76.29 1.06 0l2.12-2.13c.29-.3.29-.77 0-1.07Z"/><path d="M17.33 5.1c.29-.3.29-.77 0-1.07l-.71-.71c-1.08-1.08-2.82-1.08-3.89 0L9.19 6.85c-.3.29-.3.76 0 1.06 .29.29.76.29 1.06 0l3.53-3.54c.48-.49 1.27-.49 1.76 0l.7.7c.29.29.76.29 1.06 0Z"/></g></svg>