<svg viewBox="0 0 24 24" xmlns="http://www.w3.org/2000/svg"><g fill-rule="evenodd"><path d="M7.43 9.5c.14-.17.34-.26.56-.26h8c.21 0 .41.09.56.25 .14.16.2.37.18.58l-.82 6.5c-.06.41-.43.7-.84.65 -.42-.06-.71-.43-.66-.84l.7-5.657H8.8l1.31 10.5h3.67l.1-.843c.05-.42.42-.71.83-.66 .41.05.7.42.65.83l-.19 1.5c-.05.37-.37.657-.75.657h-5c-.38 0-.7-.29-.75-.657l-1.5-12c-.03-.22.03-.43.18-.59Z"/><path d="M3.91 6.52c.14-.18.35-.28.58-.28h15c.22 0 .44.1.58.27 .14.17.19.4.15.62l-1.5 6.99c-.08.34-.38.59-.74.59h-2c-.42 0-.75-.34-.75-.75 0-.42.33-.75.75-.75h1.39l1.17-5.5H5.39l1.17 5.5h1.39c.41 0 .75.33.75.75 0 .41-.34.75-.75.75h-2c-.36 0-.66-.25-.74-.6l-1.5-7c-.05-.23 0-.46.15-.63Z"/><path d="M11.62 1.58c.22.34.13.81-.21 1.04L8.74 4.39v2.59c0 .41-.34.75-.75.75 -.42 0-.75-.34-.75-.75v-3c0-.26.12-.49.33-.63l3-2c.34-.23.81-.14 1.04.2Z"/><path d="M5.99 22c0-.42.33-.75.75-.75h10.25c.41 0 .75.33.75.75 0 .41-.34.75-.75.75H6.73c-.42 0-.75-.34-.75-.75Z"/></g></svg>