<svg viewBox="0 0 24 24" xmlns="http://www.w3.org/2000/svg"><g fill-rule="evenodd"><path d="M3.25 2c0-.42.33-.75.75-.75h16c.41 0 .75.33.75.75v8c0 .41-.34.75-.75.75 -.42 0-.75-.34-.75-.75V2.75H4.75v13h14.5V14c0-.42.33-.75.75-.75 .41 0 .75.33.75.75v2.5c0 .41-.34.75-.75.75H4c-.42 0-.75-.34-.75-.75V2Z"/><path d="M1.25 2c0-.42.33-.75.75-.75h20c.41 0 .75.33.75.75 0 .41-.34.75-.75.75H2c-.42 0-.75-.34-.75-.75Z"/><path d="M1.25 16.5c0-.42.33-.75.75-.75h20c.41 0 .75.33.75.75 0 .41-.34.75-.75.75H2c-.42 0-.75-.34-.75-.75Z"/><path d="M12 15.75c.41 0 .75.33.75.75v5c0 .41-.34.75-.75.75 -.42 0-.75-.34-.75-.75v-5c0-.42.33-.75.75-.75Z"/><path d="M11.52 15.91c.32-.27.79-.22 1.05.1l4.5 5.5c.26.32.21.79-.11 1.05 -.33.26-.8.21-1.06-.11l-4.5-5.5c-.27-.33-.22-.8.1-1.06Z"/><path d="M12.47 15.91c-.33-.27-.8-.22-1.06.1l-4.5 5.5c-.27.32-.22.79.1 1.05s.79.21 1.05-.11l4.49-5.5c.26-.33.21-.8-.11-1.06Z"/><path d="M10.75 7.44v4.1l3.02-2.06 -3.03-2.06ZM10 5.84c.36-.16.84-.15 1.24.12l3.77 2.56c.31.21.52.56.52.95 0 .39-.21.74-.53.95l-3.78 2.56c-.4.27-.88.27-1.25.12 -.37-.15-.76-.52-.76-1.09V6.87c0-.57.38-.94.75-1.09Z"/></g></svg>