<svg viewBox="0 0 24 24" xmlns="http://www.w3.org/2000/svg"><g fill-rule="evenodd"><path d="M3.25 2c0-.42.33-.75.75-.75h16c.41 0 .75.33.75.75v8c0 .41-.34.75-.75.75 -.42 0-.75-.34-.75-.75V2.75H4.75v13h14.5V14c0-.42.33-.75.75-.75 .41 0 .75.33.75.75v2.5c0 .41-.34.75-.75.75H4c-.42 0-.75-.34-.75-.75V2Z"/><path d="M1.25 2c0-.42.33-.75.75-.75h20c.41 0 .75.33.75.75 0 .41-.34.75-.75.75H2c-.42 0-.75-.34-.75-.75Z"/><path d="M1.25 16.5c0-.42.33-.75.75-.75h20c.41 0 .75.33.75.75 0 .41-.34.75-.75.75H2c-.42 0-.75-.34-.75-.75Z"/><path d="M12 15.75c.41 0 .75.33.75.75v5c0 .41-.34.75-.75.75 -.42 0-.75-.34-.75-.75v-5c0-.42.33-.75.75-.75Z"/><path d="M11.52 15.91c.32-.27.79-.22 1.05.1l4.5 5.5c.26.32.21.79-.11 1.05 -.33.26-.8.21-1.06-.11l-4.5-5.5c-.27-.33-.22-.8.1-1.06Z"/><path d="M12.47 15.91c-.33-.27-.8-.22-1.06.1l-4.5 5.5c-.27.32-.22.79.1 1.05s.79.21 1.05-.11l4.49-5.5c.26-.33.21-.8-.11-1.06Z"/><path d="M16.98 6.43c.31.26.35.74.08 1.05l-3 3.5c-.25.28-.67.34-.99.13L10.66 9.5l-2.58 3.43c-.25.33-.72.39-1.05.15 -.34-.25-.4-.72-.15-1.05l3-4c.23-.32.68-.4 1.01-.18l2.44 1.63 2.56-3c.26-.32.74-.36 1.05-.09Z"/></g></svg>