<svg viewBox="0 0 24 24" xmlns="http://www.w3.org/2000/svg"><g fill-rule="evenodd"><path d="M6.75 3c0-.42.33-.75.75-.75h9c.41 0 .75.33.75.75v16.5c0 .41-.34.75-.75.75h-9c-.42 0-.75-.34-.75-.75V3Zm1.5.75v15h7.5v-15h-7.5Z"/><path d="M9.25 13.5c0-.42.33-.75.75-.75h4c.41 0 .75.33.75.75v6c0 .41-.34.75-.75.75h-4c-.42 0-.75-.34-.75-.75v-6Zm1.5.75v4.5h2.5v-4.5h-2.5Z"/><path d="M15.75 7.5c0-.42.33-.75.75-.75H21c.41 0 .75.33.75.75V14c0 .41-.34.75-.75.75 -.42 0-.75-.34-.75-.75V8.25h-3v10.5h3V18c0-.42.33-.75.75-.75 .41 0 .75.33.75.75v1.5c0 .41-.34.75-.75.75h-4.5c-.42 0-.75-.34-.75-.75v-12Z"/><path d="M1.25 19.5c0-.42.33-.75.75-.75h20c.41 0 .75.33.75.75V22c0 .41-.34.75-.75.75H2c-.42 0-.75-.34-.75-.75v-2.5Zm1.5.75v1h18.5v-1H2.75Z"/><path d="M2.25 7.5c0-.42.33-.75.75-.75h4.5c.41 0 .75.33.75.75v12c0 .41-.34.75-.75.75H3c-.42 0-.75-.34-.75-.75v-12Zm1.5.75v10.5h3V8.25h-3Z"/><path d="M12 6.75c-.7 0-1.25.55-1.25 1.25 0 .69.55 1.25 1.25 1.25 .69 0 1.25-.56 1.25-1.25 0-.7-.56-1.25-1.25-1.25ZM9.25 8c0-1.52 1.23-2.75 2.75-2.75 1.51 0 2.75 1.23 2.75 2.75 0 1.51-1.24 2.75-2.75 2.75 -1.52 0-2.75-1.24-2.75-2.75Z"/></g></svg>