<svg viewBox="0 0 24 24" xmlns="http://www.w3.org/2000/svg"><g fill-rule="evenodd"><path d="M14.96 4.61c.21-.36.67-.47 1.02-.26 .56.34 1.08.75 1.54 1.21 .28.29.28.77-.02 1.06 -.3.28-.78.28-1.07-.02 -.38-.38-.79-.71-1.25-.99 -.36-.22-.47-.68-.26-1.03Zm3.85 4.64c.41-.06.79.22.84.63 .05.36.07.73.07 1.1 0 4.28-3.47 7.75-7.75 7.75 -2.32 0-4.399-1.02-5.82-2.64 -.28-.32-.25-.79.06-1.06 .31-.28.78-.25 1.05.06 1.14 1.3 2.82 2.12 4.69 2.12 3.45 0 6.25-2.8 6.25-6.25 0-.31-.03-.61-.07-.9 -.06-.42.22-.79.63-.85Z"/><path d="M17.01 4.05c.26-.33.21-.8-.11-1.06l-1.94-1.58c-.33-.27-.8-.22-1.06.1L9.44 6.97c-.27.32-.22.79.1 1.05l1.93 1.57c.32.26.79.21 1.05-.11l4.45-5.47Zm-1.64-.37l-3.51 4.3 -.78-.64 3.5-4.31 .77.63Z"/><path d="M2.75 15.5c0-.42.33-.75.75-.75h7c.41 0 .75.33.75.75 0 .41-.34.75-.75.75h-7c-.42 0-.75-.34-.75-.75Z"/><path d="M10.33 17.32c.37.18.52.63.33 1L9.2 21.23h6.07l-1.46-2.92c-.19-.38-.04-.83.33-1.01 .37-.19.82-.04 1 .33l2 4c.11.23.1.5-.04.72 -.14.22-.38.35-.64.35h-8.5c-.26 0-.51-.14-.64-.36 -.14-.23-.15-.5-.04-.73l2-4c.18-.38.63-.53 1-.34Z"/></g></svg>