<svg viewBox="0 0 24 24" xmlns="http://www.w3.org/2000/svg"><g fill-rule="evenodd"><path d="M7.44 1.49c.14-.16.34-.25.55-.25h8c.2 0 .4.08.55.24 .14.15.21.35.19.56l-.54 7c-.04.41-.4.72-.81.69 -.42-.04-.73-.4-.7-.81l.47-6.2H8.76l.88 11.5h4.61l.1-1.31c.03-.42.39-.73.8-.7 .41.03.72.39.69.8l-.16 2c-.04.39-.36.69-.75.69h-6c-.4 0-.72-.31-.75-.7l-1-13c-.02-.21.05-.42.19-.57Z"/><path d="M6.43 22.49c.14.16.34.25.56.25h10c.21 0 .42-.1.56-.26 .14-.17.2-.39.17-.6l-1-7c-.06-.37-.37-.65-.75-.65h-8c-.38 0-.69.27-.75.64l-1 7c-.04.21.03.43.17.59Zm1.43-1.25l.78-5.5h6.69l.78 5.5H7.83Z"/><path d="M4.35 1.61c.13-.23.37-.37.64-.37h3c.41 0 .75.33.75.75 0 .41-.34.75-.75.75H6.24l2.9 5.39c.19.36.05.81-.31 1.01 -.37.19-.82.05-1.02-.31l-3.5-6.51c-.13-.24-.12-.52.01-.75Z"/><path d="M14.75 2c0-.42.33-.75.75-.75H19c.41 0 .75.33.75.75v5c0 .41-.34.75-.75.75 -.42 0-.75-.34-.75-.75V2.75H15.5c-.42 0-.75-.34-.75-.75Z"/><path d="M12 16.75c.41 0 .75.33.75.75v2c0 .41-.34.75-.75.75 -.42 0-.75-.34-.75-.75v-2c0-.42.33-.75.75-.75Z"/></g></svg>