<svg viewBox="0 0 24 24" xmlns="http://www.w3.org/2000/svg"><g fill-rule="evenodd"><path d="M6.25 15c0-.42.33-.75.75-.75h10c.41 0 .75.33.75.75v3c0 .41-.34.75-.75.75H7c-.42 0-.75-.34-.75-.75v-3Zm1.5.75v1.5h8.5v-1.5h-8.5Z"/><path d="M1.25 6c0-.42.33-.75.75-.75h6.5c.41 0 .75.33.75.75 0 .41-.34.75-.75.75H2.75V9c0 2.89 2.35 5.25 5.25 5.25h8c2.89 0 5.25-2.36 5.25-5.25V6.75H12.5c-.42 0-.75-.34-.75-.75 0-.42.33-.75.75-.75H22c.41 0 .75.33.75.75v3c0 3.72-3.03 6.75-6.75 6.75H8c-3.73 0-6.75-3.03-6.75-6.75V6Z"/></g></svg>