<svg viewBox="0 0 24 24" xmlns="http://www.w3.org/2000/svg"><g fill-rule="evenodd"><path d="M1.25 3.5c0-.42.33-.75.75-.75h7.5c1.79 0 3.25 1.45 3.25 3.25v11.5c0 .41-.34.75-.75.75H2c-.42 0-.75-.34-.75-.75v-14Zm1.5.75v12.5h8.5V6c0-.97-.79-1.75-1.75-1.75H2.75Z"/><path d="M11.25 6c0-1.8 1.45-3.25 3.25-3.25H22c.41 0 .75.33.75.75v14c0 .41-.34.75-.75.75h-4c-.42 0-.75-.34-.75-.75 0-.42.33-.75.75-.75h3.25V4.25H14.5c-.97 0-1.75.78-1.75 1.75v10.75H14c.41 0 .75.33.75.75 0 .41-.34.75-.75.75h-2c-.42 0-.75-.34-.75-.75V6Z"/><path d="M14.75 7.5c0-1.25 1-2.25 2.25-2.25 1.24 0 2.25 1 2.25 2.25v1c0 1.24-1.01 2.25-2.25 2.25 -1.25 0-2.25-1.01-2.25-2.25v-1ZM17 6.75c-.42 0-.75.33-.75.75v1c0 .41.33.75.75.75 .41 0 .75-.34.75-.75v-1c0-.42-.34-.75-.75-.75Z"/><path d="M17 9.25c.41 0 .75.33.75.75v5c0 .41-.34.75-.75.75 -.42 0-.75-.34-.75-.75v-5c0-.42.33-.75.75-.75Z"/><path d="M8 2.75c.41 0 .75.33.75.75v17c0 .41-.34.75-.75.75 -.42 0-.75-.34-.75-.75v-17c0-.42.33-.75.75-.75Z"/></g></svg>