<svg viewBox="0 0 24 24" xmlns="http://www.w3.org/2000/svg"><g fill-rule="evenodd"><path d="M6.25 15c0-1.52 1.23-2.75 2.75-2.75h6c1.51 0 2.75 1.23 2.75 2.75v1c0 .41-.34.75-.75.75H7c-.42 0-.75-.34-.75-.75v-1ZM9 13.75c-.7 0-1.25.55-1.25 1.25v.25h8.5V15c0-.7-.56-1.25-1.25-1.25H9Z"/><path d="M1.25 8c0-.42.33-.75.75-.75h2.5c.41 0 .75.33.75.75 0 .41-.34.75-.75.75H2.75v.75c0 1.51 1.23 2.75 2.75 2.75h13c1.51 0 2.75-1.24 2.75-2.75v-.75H8.5c-.42 0-.75-.34-.75-.75 0-.42.33-.75.75-.75H22c.41 0 .75.33.75.75v1.5c0 2.34-1.91 4.25-4.25 4.25h-13c-2.35 0-4.25-1.91-4.25-4.25V8Z"/></g></svg>