<svg viewBox="0 0 24 24" xmlns="http://www.w3.org/2000/svg"><g fill-rule="evenodd"><path d="M12.53 9.46c.29.29.29.76 0 1.06l-9.01 9c-.26.25-.26.68-.001.93 .25.25.67.25.93 0l3.5-3.5c.29-.3.76-.3 1.06 0 .29.29.29.76 0 1.06l-3.5 3.5c-.85.84-2.22.84-3.07 0 -.85-.85-.85-2.22 0-3.07l8.99-9.01c.29-.3.76-.3 1.06 0Zm2 2c.29.29.29.76 0 1.06l-1.5 1.5c-.3.29-.77.29-1.07 0 -.3-.3-.3-.77 0-1.07l1.5-1.5c.29-.3.76-.3 1.06 0Z"/><path d="M17.53 1.46c.29.29.29.76 0 1.06L12.44 7.6c-.49.48-.49 1.27 0 1.76l2.17 2.17c.48.48 1.27.48 1.76 0l5.08-5.09c.29-.3.76-.3 1.06 0 .29.29.29.76 0 1.06l-5.09 5.08c-1.08 1.07-2.82 1.07-3.89 0l-2.18-2.18c-1.08-1.08-1.08-2.82 0-3.89l5.08-5.09c.29-.3.76-.3 1.06 0Z"/><path d="M20.03 3.96c.29.29.29.76 0 1.06l-6.5 6.49c-.3.29-.77.29-1.07 0 -.3-.3-.3-.77 0-1.07l6.5-6.51c.29-.3.76-.3 1.06 0Z"/></g></svg>