<svg viewBox="0 0 24 24" xmlns="http://www.w3.org/2000/svg"><g fill-rule="evenodd"><path d="M3.25 8c0-1.52 1.23-2.75 2.75-2.75h12c1.51 0 2.75 1.23 2.75 2.75v9c0 1.51-1.24 2.75-2.75 2.75H6c-1.52 0-2.75-1.24-2.75-2.75v-4c0-.42.33-.75.75-.75 .41 0 .75.33.75.75v4c0 .69.55 1.25 1.25 1.25h12c.69 0 1.25-.56 1.25-1.25V8c0-.7-.56-1.25-1.25-1.25H6c-.7 0-1.25.55-1.25 1.25v1c0 .41-.34.75-.75.75 -.42 0-.75-.34-.75-.75V8Z"/><path d="M5.75 19.5c0-.7.55-1.25 1.25-1.25h10c.69 0 1.25.55 1.25 1.25V21c0 .96-.79 1.75-1.75 1.75h-9c-.97 0-1.75-.79-1.75-1.75v-1.5Zm1.5.25V21c0 .13.11.25.25.25h9c.13 0 .25-.12.25-.25v-1.25h-9.5Z"/><path d="M6.25 2c0-.42.33-.75.75-.75h10c.41 0 .75.33.75.75 0 .41-.34.75-.75.75H7c-.42 0-.75-.34-.75-.75Z"/><path d="M12 3.25c.41 0 .75.33.75.75v2c0 .41-.34.75-.75.75 -.42 0-.75-.34-.75-.75V4c0-.42.33-.75.75-.75Z"/><path d="M15.5 1.25c.41 0 .75.33.75.75v4c0 .41-.34.75-.75.75 -.42 0-.75-.34-.75-.75V2c0-.42.33-.75.75-.75Z"/><path d="M8.5 1.25c.41 0 .75.33.75.75v4c0 .41-.34.75-.75.75 -.42 0-.75-.34-.75-.75V2c0-.42.33-.75.75-.75Z"/><path d="M5.75 12.5c0-.42.33-.75.75-.75h11c.41 0 .75.33.75.75 0 .41-.34.75-.75.75h-11c-.42 0-.75-.34-.75-.75Z"/></g></svg>