<svg viewBox="0 0 24 24" xmlns="http://www.w3.org/2000/svg"><g fill-rule="evenodd"><path d="M12 5.75C9.1 5.75 6.75 8.1 6.75 11c0 2.89 2.35 5.25 5.25 5.25 2.89 0 5.25-2.36 5.25-5.25 0-2.9-2.36-5.25-5.25-5.25ZM5.25 11c0-3.73 3.02-6.75 6.75-6.75 3.72 0 6.75 3.02 6.75 6.75 0 3.72-3.03 6.75-6.75 6.75 -3.73 0-6.75-3.03-6.75-6.75Z"/><path d="M1.25 10c0-4.84 3.91-8.75 8.75-8.75h4c4.83 0 8.75 3.91 8.75 8.75v12c0 .41-.34.75-.75.75H12c-.42 0-.75-.34-.75-.75 0-.42.33-.75.75-.75h9.25V10c0-4.01-3.25-7.25-7.25-7.25h-4c-4.01 0-7.25 3.24-7.25 7.25v11.25H8c.41 0 .75.33.75.75 0 .41-.34.75-.75.75H2c-.42 0-.75-.34-.75-.75V10Z"/><path d="M12 7.25c.41 0 .75.33.75.75v6c0 .41-.34.75-.75.75 -.42 0-.75-.34-.75-.75V8c0-.42.33-.75.75-.75Z"/></g></svg>