<svg viewBox="0 0 24 24" xmlns="http://www.w3.org/2000/svg"><g fill-rule="evenodd"><path d="M1.25 17c0-.42.33-.75.75-.75h2c.41 0 .75.33.75.75 0 .41-.34.75-.75.75H2.81c.35 1.98 2.09 3.5 4.18 3.5s3.82-1.52 4.18-3.5H7.986c-.42 0-.75-.34-.75-.75 0-.42.33-.75.75-.75h4c.41 0 .75.33.75.75 0 3.17-2.58 5.75-5.75 5.75 -3.18 0-5.75-2.58-5.75-5.75Z"/><path d="M19.35 2.75c-.52 0-.98.31-1.17.78l-5.5 13.74c-.16.38-.6.57-.98.41 -.39-.16-.58-.6-.42-.98l5.49-13.75c.41-1.05 1.42-1.73 2.55-1.73h.64c1.51 0 2.75 1.23 2.75 2.75v1c0 .41-.34.75-.75.75 -.42 0-.75-.34-.75-.75v-1c0-.7-.56-1.25-1.25-1.25h-.65Z"/></g></svg>