<svg viewBox="0 0 24 24" xmlns="http://www.w3.org/2000/svg"><g fill-rule="evenodd"><path d="M1.34 3.13c.13-.24.38-.39.65-.39h16c.41 0 .75.33.75.75v2.5c0 .41-.34.75-.75.75 -.42 0-.75-.34-.75-.75V4.24H3.34l1.78 2.85c.07.11.11.25.11.39v12c0 .13.11.25.25.25h11.5c.13 0 .25-.12.25-.25v-9.5c0-.42.33-.75.75-.75 .41 0 .75.33.75.75v9.5c0 .96-.79 1.75-1.75 1.75H5.48c-.97 0-1.75-.79-1.75-1.75V7.69L1.34 3.87c-.15-.24-.16-.53-.02-.77Z"/><path d="M17.25 3.5c0-.42.33-.75.75-.75h2c1.51 0 2.75 1.23 2.75 2.75V16c0 .41-.34.75-.75.75 -.42 0-.75-.34-.75-.75V5.5c0-.7-.56-1.25-1.25-1.25h-2c-.42 0-.75-.34-.75-.75Z"/><path d="M6.75 7.5c0-.42.33-.75.75-.75h4c.41 0 .75.33.75.75 0 .41-.34.75-.75.75h-4c-.42 0-.75-.34-.75-.75Z"/><path d="M6.75 10.5c0-.42.33-.75.75-.75h2c.41 0 .75.33.75.75 0 .41-.34.75-.75.75h-2c-.42 0-.75-.34-.75-.75Z"/><path d="M6.75 13.5c0-.42.33-.75.75-.75h4c.41 0 .75.33.75.75 0 .41-.34.75-.75.75h-4c-.42 0-.75-.34-.75-.75Z"/><path d="M6.75 16.5c0-.42.33-.75.75-.75h2c.41 0 .75.33.75.75 0 .41-.34.75-.75.75h-2c-.42 0-.75-.34-.75-.75Z"/></g></svg>