<svg viewBox="0 0 24 24" xmlns="http://www.w3.org/2000/svg"><g fill-rule="evenodd"><path d="M1.25 4.5c0-.42.33-.75.75-.75h14.5c.41 0 .75.33.75.75 0 .41-.34.75-.75.75H2.75v10.5h18.5V5.25h-.75c-.42 0-.75-.34-.75-.75 0-.42.33-.75.75-.75H22c.41 0 .75.33.75.75v12c0 .41-.34.75-.75.75H2c-.42 0-.75-.34-.75-.75v-12Z"/><path d="M2.25 16.5c0-.42.33-.75.75-.75h18c.41 0 .75.33.75.75v3c0 .41-.34.75-.75.75H3c-.42 0-.75-.34-.75-.75v-3Zm1.5.75v1.5h16.5v-1.5H3.75Z"/><path d="M3.75 7c0-.42.33-.75.75-.75h10c.41 0 .75.33.75.75v7c0 .41-.34.75-.75.75h-10c-.42 0-.75-.34-.75-.75V7Zm1.5.75v5.5h8.5v-5.5h-8.5Z"/><path d="M16.25 8c0-.42.33-.75.75-.75h2.5c.41 0 .75.33.75.75 0 .41-.34.75-.75.75H17c-.42 0-.75-.34-.75-.75Z"/><path d="M16.25 10.5c0-.42.33-.75.75-.75h2.5c.41 0 .75.33.75.75 0 .41-.34.75-.75.75H17c-.42 0-.75-.34-.75-.75Z"/></g></svg>