<svg viewBox="0 0 24 24" xmlns="http://www.w3.org/2000/svg"><g fill-rule="evenodd"><path d="M1.25 2c0-.42.33-.75.75-.75h11c.41 0 .75.33.75.75v4.25H22c.41 0 .75.33.75.75v5c0 .41-.34.75-.75.75h-2c-.42 0-.75-.34-.75-.75 0-.42.33-.75.75-.75h1.25v-3.5H13c-.42 0-.75-.34-.75-.75V2.75h-9.5V8.5c0 1.51 1.23 2.75 2.75 2.75H16c.41 0 .75.33.75.75 0 .41-.34.75-.75.75H5.5c-2.35 0-4.25-1.91-4.25-4.25V2Z"/><path d="M6 15.75c-1.14 0-2.25 1.11-2.25 2.75 0 1.63 1.11 2.75 2.25 2.75 1.13 0 2.25-1.12 2.25-2.75 0-1.64-1.12-2.75-2.25-2.75ZM2.25 18.5c0-2.24 1.57-4.25 3.75-4.25 2.17 0 3.75 2.01 3.75 4.25 0 2.23-1.58 4.25-3.75 4.25 -2.18 0-3.75-2.02-3.75-4.25Z"/><path d="M6 11.25c.41 0 .75.33.75.75v10c0 .41-.34.75-.75.75 -.42 0-.75-.34-.75-.75V12c0-.42.33-.75.75-.75Z"/><path d="M12.25 2c0-.42.33-.75.75-.75h5c2.62 0 4.75 2.12 4.75 4.75v1c0 .41-.34.75-.75.75 -.42 0-.75-.34-.75-.75V6c0-1.8-1.46-3.25-3.25-3.25h-5c-.42 0-.75-.34-.75-.75Z"/><path d="M4.25 5c0-.42.33-.75.75-.75h3c.41 0 .75.33.75.75 0 .41-.34.75-.75.75H5c-.42 0-.75-.34-.75-.75Z"/></g></svg>