<svg viewBox="0 0 24 24" xmlns="http://www.w3.org/2000/svg"><g fill-rule="evenodd"><path d="M7.25 6.39c.05-.37.37-.65.74-.65h7.99c.37 0 .68.27.74.64l2 13.5c.03.23-.05.47-.22.64l-2 2c-.15.14-.34.21-.54.21h-8c-.2 0-.39-.08-.54-.22l-2-2c-.17-.17-.25-.41-.22-.65l.29-2c.06-.41.44-.7.85-.64 .4.06.69.44.63.85l-.25 1.62 1.51 1.51h7.37l1.51-1.52 -1.85-12.49H8.55l-1.02 6.85c-.07.4-.45.69-.86.63 -.41-.07-.7-.45-.64-.86L7.14 6.3Z"/><path d="M6.25 4c0-1.52 1.23-2.75 2.75-2.75h6c1.51 0 2.75 1.23 2.75 2.75v2.5c0 .41-.34.75-.75.75H7c-.42 0-.75-.34-.75-.75V4ZM9 2.75c-.7 0-1.25.55-1.25 1.25v1.75h8.5V4c0-.7-.56-1.25-1.25-1.25H9Z"/><path d="M9.75 11c0-.42.33-.75.75-.75H12c1.24 0 2.25 1 2.25 2.25 0 1.24-1.01 2.25-2.25 2.25h-1.5c-.42 0-.75-.34-.75-.75v-3Zm1.5.75v1.5H12c.41 0 .75-.34.75-.75 0-.42-.34-.75-.75-.75h-.75Z"/><path d="M10.5 11.25c.41 0 .75.33.75.75v5c0 .41-.34.75-.75.75 -.42 0-.75-.34-.75-.75v-5c0-.42.33-.75.75-.75Z"/></g></svg>