<svg viewBox="0 0 24 24" xmlns="http://www.w3.org/2000/svg"><g fill-rule="evenodd"><path d="M17.864 4.75c-1 0-1.95.39-2.66 1.09l-6.16 6.15 2.93 2.93 .75-.76c.29-.3.76-.3 1.06 0 .29.29.29.76 0 1.06l-1.29 1.28c-.15.14-.34.21-.54.21s-.39-.08-.54-.22l-4.01-4c-.3-.3-.3-.77 0-1.07l6.68-6.69c.98-.99 2.31-1.54 3.71-1.54h.27c1.39 0 2.72.55 3.71 1.53l.68.68c.14.14.21.33.21.53 0 .19-.08.38-.22.53l-5.5 5.49c-.3.29-.77.29-1.07 0 -.3-.3-.3-.77 0-1.07l4.96-4.97 -.16-.16c-.71-.71-1.66-1.1-2.66-1.1h-.28Z"/><path d="M7.46 11.46c.29-.3.76-.3 1.06 0l1.99 2c.29.29.29.76 0 1.06l-6 6c-.3.29-.77.29-1.07 0l-2-2c-.3-.3-.3-.77 0-1.07l6-6Zm-4.41 6.53l.93.93 4.93-4.94 -.94-.94 -4.94 4.93Z"/></g></svg>