<svg viewBox="0 0 24 24" xmlns="http://www.w3.org/2000/svg"><g fill-rule="evenodd"><path d="M4.75 8c0-.42.33-.75.75-.75h13c.41 0 .75.33.75.75v3c0 1.51-1.24 2.75-2.75 2.75h-9c-1.52 0-2.75-1.24-2.75-2.75V8Zm1.5.75V11c0 .69.55 1.25 1.25 1.25h9c.69 0 1.25-.56 1.25-1.25V8.75H6.25Z"/><path d="M7.25 5c0-1.52 1.23-2.75 2.75-2.75 1.51 0 2.75 1.23 2.75 2.75v3c0 .41-.34.75-.75.75 -.42 0-.75-.34-.75-.75V5c0-.7-.56-1.25-1.25-1.25 -.7 0-1.25.55-1.25 1.25v.5c0 .41-.34.75-.75.75 -.42 0-.75-.34-.75-.75V5Z"/><path d="M1.25 8c0-.42.33-.75.75-.75h20c.41 0 .75.33.75.75v13c0 .41-.34.75-.75.75 -.42 0-.75-.34-.75-.75V8.75H2.75V21c0 .41-.34.75-.75.75 -.42 0-.75-.34-.75-.75V8Z"/><path d="M1.25 18c0-.42.33-.75.75-.75h13c.41 0 .75.33.75.75 0 .41-.34.75-.75.75H2c-.42 0-.75-.34-.75-.75Zm16.5 0c0-.42.33-.75.75-.75H22c.41 0 .75.33.75.75 0 .41-.34.75-.75.75h-3.5c-.42 0-.75-.34-.75-.75Z"/></g></svg>