<svg viewBox="0 0 24 24" xmlns="http://www.w3.org/2000/svg"><g fill-rule="evenodd"><path d="M5.45 1.48c.14-.15.33-.24.54-.24h12c.2 0 .4.08.54.23 .14.14.21.34.2.55l-1 20c-.02.39-.35.71-.75.71h-10c-.42 0-.75-.34-.75-.75 0-.42.33-.75.75-.75h9.28l.92-18.5H6.75l.76 15.21c.02.41-.3.76-.72.78 -.42.02-.77-.3-.79-.72L5.2 1.99c-.02-.21.06-.41.2-.56Z"/><path d="M15.16 10.75c.41.01.73.37.71.78l-.375 8c-.02.4-.35.71-.75.71h-3.75c-.42 0-.75-.34-.75-.75 0-.42.33-.75.75-.75h3.03l.34-7.29c.01-.42.37-.74.78-.72Z"/></g></svg>