<svg viewBox="0 0 24 24" xmlns="http://www.w3.org/2000/svg"><g fill-rule="evenodd"><path d="M18.25 12.5c-1.66 0-3 1.34-3 3 0 1.65 1.34 3 3 3 1.65 0 3-1.35 3-3 0-1.66-1.35-3-3-3Z"/><path d="M11.75 12.5c-1.66 0-3 1.34-3 3 0 1.65 1.34 3 3 3 1.65 0 3-1.35 3-3 0-1.66-1.35-3-3-3Z"/><path d="M11.75 1c-1.66 0-3 1.34-3 3 0 1.65 1.34 3 3 3 1.65 0 3-1.35 3-3 0-1.66-1.35-3-3-3Z"/><path d="M5.25 12.5c-1.66 0-3 1.34-3 3 0 1.65 1.34 3 3 3 1.65 0 3-1.35 3-3 0-1.66-1.35-3-3-3Z"/><path d="M18 16.5c-2.21 0-4 1.79-4 4v.5c0 1.1.89 2 2 2h4.5c1.1 0 2-.9 2-2v-.5c0-2.21-1.8-4-4-4H18Z"/><path d="M11.5 16.5c-2.21 0-4 1.79-4 4v.5c0 1.1.89 2 2 2H14c1.1 0 2-.9 2-2v-.5c0-2.21-1.8-4-4-4h-.5Z"/><path d="M11.5 5c-2.21 0-4 1.79-4 4v1c0 1.1.89 2 2 2H14c1.1 0 2-.9 2-2V9c0-2.21-1.8-4-4-4h-.5Z"/><path d="M5 16.5c-2.21 0-4 1.79-4 4v.5c0 1.1.89 2 2 2h4.5c1.1 0 2-.9 2-2v-.5c0-2.21-1.8-4-4-4H5Z"/></g></svg>