<svg viewBox="0 0 24 24" xmlns="http://www.w3.org/2000/svg"><g fill-rule="evenodd"><path d="M11 4c0-1.66 1.34-3 3-3h4c1.65 0 3 1.34 3 3v16c0 1.65-1.35 3-3 3h-4c-1.66 0-3-1.35-3-3V4Zm3.5 3h3V5h-3v2Zm3 3.5h-3v-2h3v2Zm-4 7c0-1.39 1.11-2.5 2.5-2.5 1.38 0 2.5 1.11 2.5 2.5 0 1.38-1.12 2.5-2.5 2.5 -1.39 0-2.5-1.12-2.5-2.5Z"/><path d="M3 4c0-1.66 1.34-3 3-3h4c1.65 0 3 1.34 3 3v16c0 1.65-1.35 3-3 3H6c-1.66 0-3-1.35-3-3V4Zm3.5 3h3V5h-3v2Zm3 3.5h-3v-2h3v2Zm-4 7C5.5 16.11 6.61 15 8 15c1.38 0 2.5 1.11 2.5 2.5 0 1.38-1.12 2.5-2.5 2.5 -1.39 0-2.5-1.12-2.5-2.5Z"/></g></svg>