<svg viewBox="0 0 24 24" xmlns="http://www.w3.org/2000/svg"><g fill-rule="evenodd"><path d="M10 3v3h4V3h-4ZM8 3v4c0 .55.44 1 1 1h6c.55 0 1-.45 1-1V3h3c.55 0 1 .44 1 1v10.5c0 .55-.45 1-1 1H5c-.56 0-1-.45-1-1V4c0-.56.44-1 1-1h3Z"/><path d="M4 13.5c-.56 0-1 .44-1 1V17c0 .55.44 1 1 1h16c.55 0 1-.45 1-1v-2.5c0-.56-.45-1-1-1H4Z"/><path d="M5.5 19h13v2h-13v-2Z"/><path d="M13 2v2h-2V2h2Z"/><path d="M11 20.5V17h2v3.5h-2Z"/><path d="M18.04 22.28l-1.5-5 1.91-.58 1.5 5 -1.92.57Z"/><path d="M5.95 22.28l1.5-5 -1.92-.58 -1.5 5 1.91.57Z"/></g></svg>