<svg viewBox="0 0 24 24" xmlns="http://www.w3.org/2000/svg"><g fill-rule="evenodd"><path d="M6.75 1c.26 0 .51.1.7.29l1.74 1.74 -1.42 1.41 -1-1c-2.38 3.07-2.16 7.5.66 10.31 2.81 2.81 7.24 3.03 10.31.66l-1-1 1.41-1.42 1.74 1.74c.18.18.29.44.29.7 0 .26-.11.51-.3.7 -3.84 3.83-10.07 3.83-13.9 0C2.14 11.29 2.14 5.06 5.97 1.23c.18-.19.44-.3.7-.3Z"/><path d="M11.31 16.05c-.31-.11-.65-.06-.91.13 -.27.18-.42.48-.42.81v5c0 .55.44 1 1 1h3c.55 0 1-.45 1-1v-5c0-.33-.16-.63-.42-.82 -.27-.19-.6-.24-.91-.14l-1.19.39 -1.19-.4Z"/><path d="M8 21h9v2H8v-2Z"/><path d="M13 1.24c-3.87 0-7 3.13-7 7 0 2.01.84 3.82 2.2 5.1l.39-.8c0-.02.01-.04.02-.06l.62-1.09c.89-1.54 2.91-1.97 4.35-.93l.22.16c.23.17.53.23.82.16l3.24-.78 1.99-.6c.06-.39.1-.79.1-1.2 0-.45-.05-.89-.13-1.32l-.93.46c-.03.01-.06.02-.08.03l-1.19.47c-1.19.47-2.55.14-3.38-.82l-.38-.44c-.14-.16-.36-.21-.55-.14 -1.02.4-2.18.09-2.87-.76L9.12 4.03l1.56-1.25 1.31 1.64c.13.16.35.22.55.14 .98-.4 2.1-.13 2.79.67l.37.43c.27.32.73.43 1.12.27l1.14-.46 1.12-.57c-1.17-2.25-3.52-3.79-6.22-3.79Zm6.04 10.539l-.59.17c-.02 0-.04.01-.06.01l-3.28.78c-.86.2-1.76.02-2.47-.49l-.23-.17c-.48-.35-1.16-.21-1.46.3l-.62 1.05 -.52 1.02c.94.47 2 .73 3.13.73 2.57 0 4.82-1.4 6.04-3.47Z"/></g></svg>