<svg viewBox="0 0 24 24" xmlns="http://www.w3.org/2000/svg"><g fill-rule="evenodd"><path d="M1 4c0-1.66 1.34-3 3-3h16c1.65 0 3 1.34 3 3v16c0 1.65-1.35 3-3 3H4c-1.66 0-3-1.35-3-3V4Zm3-1c-.56 0-1 .44-1 1v16c0 .55.44 1 1 1h16c.55 0 1-.45 1-1V4c0-.56-.45-1-1-1H4Z"/><path d="M4 6C2.34 6 1 7.34 1 9v11c0 1.65 1.34 3 3 3h16c1.65 0 3-1.35 3-3V9c0-1.66-1.35-3-3-3H4Z"/><path d="M1 4c0-1.66 1.34-3 3-3h16c1.65 0 3 1.34 3 3v3c0 .55-.45 1-1 1H2c-.56 0-1-.45-1-1V4Zm3-1c-.56 0-1 .44-1 1v2h18V4c0-.56-.45-1-1-1H4Z"/><path d="M6.5 5.5h-2v-2h2v2Z"/><path d="M10.5 5.5h-2v-2h2v2Z"/><path d="M14.5 5.5h-2v-2h2v2Z"/></g></svg>