<svg viewBox="0 0 24 24" xmlns="http://www.w3.org/2000/svg"><g fill-rule="evenodd"><path d="M17 12c-1.11 0-2 .89-2 2 0 1.1.89 2 2 2 1.1 0 2-.9 2-2 0-1.11-.9-2-2-2Zm-4 2c0-2.21 1.79-4 4-4 2.2 0 4 1.79 4 4 0 2.2-1.8 4-4 4 -2.21 0-4-1.8-4-4Z"/><path d="M17 18c-2.21 0-4 1.79-4 4h-2c0-3.32 2.68-6 6-6 3.31 0 6 2.68 6 6h-2c0-2.21-1.8-4-4-4Z"/><path d="M7 1c3.31 0 6 2.68 6 6 0 .85-.19 1.67-.51 2.42l.33 1.64c.21 1.04-.7 1.97-1.75 1.77l-1.74-.33c-.73.3-1.52.47-2.36.47 -3.32 0-6-2.69-6-6 0-3.32 2.68-6 6-6Z"/></g></svg>