<svg viewBox="0 0 24 24" xmlns="http://www.w3.org/2000/svg"><path fill-rule="evenodd" d="M22 3.75c0-.56-.45-1-1-1H3c-.56 0-1 .44-1 1v13c0 .55.44 1 1 1h5.08l3.2 3.2c.39.39 1.02.39 1.41 0l3.2-3.21h5.08c.55 0 1-.45 1-1v-13ZM12 5c.43 0 .81.27.95.69l.78 2.41h2.54c.43 0 .81.27.95.69 .13.41-.02.86-.37 1.11l-2.06 1.49 .78 2.41c.13.41-.02.86-.37 1.11 -.36.25-.83.25-1.18 0l-2.06-1.5L9.9 14.9c-.36.25-.83.25-1.18 0 -.36-.26-.5-.71-.37-1.12l.78-2.42 -2.06-1.5c-.36-.26-.5-.71-.37-1.12 .13-.42.51-.7.95-.7h2.54l.78-2.42c.13-.42.51-.7.95-.7Z"/></svg>