<svg viewBox="0 0 24 24" xmlns="http://www.w3.org/2000/svg"><g fill-rule="evenodd"><path d="M1.5 4c0-1.39 1.11-2.5 2.5-2.5h16c1.38 0 2.5 1.11 2.5 2.5v10c0 1.38-1.12 2.5-2.5 2.5H4c-1.39 0-2.5-1.12-2.5-2.5V4ZM4 2.5c-.83 0-1.5.67-1.5 1.5v10c0 .82.67 1.5 1.5 1.5h16c.82 0 1.5-.68 1.5-1.5V4c0-.83-.68-1.5-1.5-1.5H4Z"/><path d="M9.51 15.87c.05-.23.25-.38.48-.38h4c.22 0 .42.15.48.37l1.5 6c.03.14 0 .3-.1.42s-.25.19-.4.19h-7c-.16 0-.3-.08-.4-.2 -.1-.13-.13-.28-.1-.43l1.5-6Zm.87.62l-1.26 5h5.71l-1.25-5h-3.22Z"/><path d="M18 22.5H6v-1h12v1Z"/><path d="M11.9 4.75c.06-.02.13-.02.19 0l2.5.5c.23.04.4.25.4.49v4.03c0 .75-.35 1.47-.94 1.95l-1.75 1.39c-.19.14-.45.14-.63 0l-1.75-1.4c-.6-.48-.94-1.2-.94-1.96V5.71c0-.24.16-.45.4-.5l2.49-.5Zm-1.91 1.4v3.62c0 .45.2.88.56 1.17l1.43 1.14 1.43-1.15c.35-.29.56-.72.56-1.18V6.12l-2-.4 -2 .4Z"/></g></svg>