<svg viewBox="0 0 24 24" xmlns="http://www.w3.org/2000/svg"><g fill-rule="evenodd"><path d="M11.73 1.57c.16-.11.37-.11.53 0l1.84 1.16c.39.25.83.45 1.28.59l4.25 1.34c.22.07.37.29.34.53l-1.29 10.85c-.16 1.27-.84 2.41-1.89 3.15l-4.54 3.18c-.18.12-.41.12-.58 0l-4.54-3.19c-1.05-.74-1.74-1.89-1.89-3.16L3.95 5.16c-.03-.24.11-.47.34-.54l4.25-1.35c.45-.15.88-.35 1.28-.6l1.84-1.17Zm.26 1.01l-1.58.99c-.48.29-.99.53-1.52.7L5.02 5.49l1.24 10.445c.11.98.65 1.88 1.46 2.45l4.24 2.98 4.24-2.99c.81-.58 1.34-1.47 1.46-2.46L18.9 5.47l-3.87-1.23c-.54-.17-1.05-.41-1.52-.71l-1.58-1Z"/><path d="M8.75 11.91c0-.28.22-.5.5-.5h5.5c.27 0 .5.22.5.5v3.82c0 .27-.23.5-.5.5h-5.5c-.28 0-.5-.23-.5-.5V11.9Zm1 .5v2.82h4.5V12.4h-4.5Z"/><path d="M9.35 10.41c0-1.47 1.18-2.65 2.64-2.65 1.46 0 2.64 1.18 2.64 2.64v1.5c0 .27-.23.5-.5.5h-4.3c-.28 0-.5-.23-.5-.5v-1.51Zm2.64-1.65c-.92 0-1.65.73-1.65 1.64v1h3.29v-1.01c0-.92-.74-1.65-1.65-1.65Z"/></g></svg>