<svg viewBox="0 0 24 24" xmlns="http://www.w3.org/2000/svg"><g fill-rule="evenodd"><path d="M15.4 11.5c.06-.02.13-.02.19 0l2.5.5c.23.04.4.25.4.49v4.03c0 .75-.35 1.47-.94 1.95l-1.75 1.39c-.19.14-.45.14-.63 0l-1.75-1.4c-.6-.48-.94-1.2-.94-1.96v-4.04c0-.24.16-.45.4-.5l2.5-.5Zm-1.91 1.4v3.62c0 .45.2.88.56 1.17l1.43 1.14 1.43-1.15c.35-.29.56-.72.56-1.18v-3.63l-2-.4 -2 .4Z"/><path d="M15.5 9.5c-3.32 0-6 2.68-6 6 0 3.31 2.68 6 6 6 3.31 0 6-2.69 6-6 0-3.32-2.69-6-6-6Zm-7 6c0-3.87 3.13-7 7-7 3.86 0 7 3.13 7 7 0 3.86-3.14 7-7 7 -3.87 0-7-3.14-7-7Z"/><path d="M1.5 2c0-.28.22-.5.5-.5h13c.27 0 .5.22.5.5v4.5h-1v-4h-12v19h6v1H2c-.28 0-.5-.23-.5-.5V2Z"/><path d="M11.5 6.5H5v-1h6.5v1Z"/></g></svg>