<svg viewBox="0 0 24 24" xmlns="http://www.w3.org/2000/svg"><g fill-rule="evenodd"><path d="M2.5 3c0-.28.22-.5.5-.5h4.5v1h-4v4h-1V3Zm18 .5h-4v-1H21c.27 0 .5.22.5.5v4.5h-1v-4Zm-17 17v-4h-1V21c0 .27.22.5.5.5h4.5v-1h-4Zm17 0v-4h1V21c0 .27-.23.5-.5.5h-4.5v-1h4Z"/><path d="M12 7.5c-1.11 0-2 .89-2 2 0 .79.46 1.48 1.14 1.8 .21.1.33.34.26.58l-1.26 4.6h3.69l-1.26-4.61c-.07-.24.04-.48.26-.59 .67-.33 1.14-1.02 1.14-1.81 0-1.11-.9-2-2-2Zm-3 2c0-1.66 1.34-3 3-3 1.65 0 3 1.34 3 3 0 1.04-.54 1.96-1.35 2.5l1.32 4.86c.04.15 0 .31-.09.43 -.1.12-.25.19-.4.19h-5c-.16 0-.31-.08-.4-.2 -.1-.13-.13-.29-.09-.44l1.32-4.87c-.81-.54-1.35-1.46-1.35-2.51Z"/></g></svg>