<svg viewBox="0 0 24 24" xmlns="http://www.w3.org/2000/svg"><g fill-rule="evenodd"><path d="M1.5 19c0-1.94 1.56-3.5 3.5-3.5h14c1.93 0 3.5 1.56 3.5 3.5 0 1.93-1.57 3.5-3.5 3.5H5c-1.94 0-3.5-1.57-3.5-3.5ZM5 16.5c-1.39 0-2.5 1.11-2.5 2.5 0 1.38 1.11 2.5 2.5 2.5h14c1.38 0 2.5-1.12 2.5-2.5 0-1.39-1.12-2.5-2.5-2.5H5Z"/><path d="M7.5 7c0-.28.22-.5.5-.5h8c.27 0 .5.22.5.5v6c0 .27-.23.5-.5.5H8c-.28 0-.5-.23-.5-.5V7Zm1 .5v5h7v-5h-7Z"/><path d="M8.5 5c0-1.39 1.11-2.5 2.5-2.5h2c1.38 0 2.5 1.11 2.5 2.5v2c0 .27-.23.5-.5.5H9c-.28 0-.5-.23-.5-.5V5ZM11 3.5c-.83 0-1.5.67-1.5 1.5v1.5h5V5c0-.83-.68-1.5-1.5-1.5h-2Z"/><path d="M7.62 18.5H5.37v1h2.24v-1Z"/><path d="M13.12 18.5h-2.25v1h2.24v-1Z"/><path d="M18.62 18.5h-2.25v1h2.24v-1Z"/></g></svg>