<svg viewBox="0 0 24 24" xmlns="http://www.w3.org/2000/svg"><path fill-rule="evenodd" d="M11.74 1.57c.15-.1.35-.1.51 0l1.85 1.11c.39.23.81.42 1.24.55l4.28 1.28c.23.07.38.29.35.54l-1.28 10.18c-.17 1.29-.89 2.46-1.97 3.18l-4.48 2.98c-.17.11-.39.11-.56 0L7.2 18.4c-1.09-.73-1.81-1.89-1.97-3.19L3.95 5.02c-.04-.25.11-.48.35-.55l4.28-1.29c.43-.14.85-.32 1.24-.56l1.85-1.12Zm.25 1.01l-1.6.95c-.47.27-.96.49-1.48.65L5.03 5.34l1.22 9.76c.12 1 .68 1.91 1.53 2.47l4.19 2.79 4.19-2.8c.84-.57 1.4-1.47 1.53-2.48l1.22-9.77 -3.88-1.17c-.52-.16-1.02-.38-1.48-.66l-1.6-.96Z"/></svg>