<svg viewBox="0 0 24 24" xmlns="http://www.w3.org/2000/svg"><g fill-rule="evenodd"><path d="M13.5 17.5h-3v-1h3v1Z"/><path d="M7.81 4.61c.17-.66.76-1.12 1.44-1.12h5.46c.67 0 1.27.45 1.44 1.11l1.8 6.75 -.97.25 -1.81-6.76c-.06-.22-.26-.38-.49-.38H9.21c-.23 0-.43.15-.49.37l-1.81 6.75 -.97-.26 1.8-6.76Z"/><path d="M10.6 10.22c.92-.16 1.86-.16 2.79 0l7.68 1.28 -.17.98 -7.69-1.29c-.82-.14-1.65-.14-2.47 0l-7.69 1.28 -.17-.99 7.68-1.29Z"/><path d="M8 15c-1.11 0-2 .89-2 2 0 1.1.89 2 2 2 1.1 0 2-.9 2-2 0-1.11-.9-2-2-2Zm-3 2c0-1.66 1.34-3 3-3 1.65 0 3 1.34 3 3 0 1.65-1.35 3-3 3 -1.66 0-3-1.35-3-3Z"/><path d="M16 15c-1.11 0-2 .89-2 2 0 1.1.89 2 2 2 1.1 0 2-.9 2-2 0-1.11-.9-2-2-2Zm-3 2c0-1.66 1.34-3 3-3 1.65 0 3 1.34 3 3 0 1.65-1.35 3-3 3 -1.66 0-3-1.35-3-3Z"/></g></svg>