<svg viewBox="0 0 24 24" xmlns="http://www.w3.org/2000/svg"><g fill-rule="evenodd"><path d="M4.75 2c0-.42.33-.75.75-.75h16c.41 0 .75.33.75.75v14c0 .41-.34.75-.75.75 -.42 0-.75-.34-.75-.75V2.75H6.25v18.5h14.5V20c0-.42.33-.75.75-.75 .41 0 .75.33.75.75v2c0 .41-.34.75-.75.75h-16c-.42 0-.75-.34-.75-.75V2Z"/><path d="M1.75 6c0-.42.33-.75.75-.75h3c.41 0 .75.33.75.75 0 .41-.34.75-.75.75h-3c-.42 0-.75-.34-.75-.75Z"/><path d="M1.75 12c0-.42.33-.75.75-.75h3c.41 0 .75.33.75.75 0 .41-.34.75-.75.75h-3c-.42 0-.75-.34-.75-.75Z"/><path d="M1.75 18c0-.42.33-.75.75-.75h3c.41 0 .75.33.75.75 0 .41-.34.75-.75.75h-3c-.42 0-.75-.34-.75-.75Z"/><path d="M8.25 6c0-.42.33-.75.75-.75h9c.41 0 .75.33.75.75v4c0 .41-.34.75-.75.75H9c-.42 0-.75-.34-.75-.75V6Zm1.5.75v2.5h7.5v-2.5h-7.5Z"/></g></svg>