<svg viewBox="0 0 24 24" xmlns="http://www.w3.org/2000/svg"><g fill-rule="evenodd"><path d="M11.68 1.32c.26-.13.57-.09.79.1l6 5c.17.14.26.35.26.57 0 .22-.1.43-.27.57l-6 5c-.23.18-.54.22-.8.1 -.27-.13-.44-.39-.44-.68v-10c0-.3.16-.56.43-.68Zm1.06 2.28v6.79l4.07-3.4 -4.08-3.4Z"/><path d="M11.68 22.67c.26.12.57.08.79-.11l2-1.67c.31-.27.36-.74.09-1.06 -.27-.32-.74-.37-1.06-.1l-.77.64v-6.8l4.07 3.39 -.31.25c-.32.26-.37.73-.1 1.05 .26.31.73.36 1.05.09l1-.84c.17-.15.26-.36.26-.58 0-.23-.1-.44-.27-.58l-6-5c-.23-.19-.54-.23-.8-.11 -.27.12-.44.38-.44.67v10c0 .29.16.55.43.67Z"/><path d="M12.57 11.51c.26.31.22.79-.1 1.05l-6 5c-.32.26-.8.22-1.06-.1 -.27-.32-.23-.8.09-1.06l6-5c.31-.27.79-.23 1.05.09Z"/><path d="M12.57 12.48c.26-.32.22-.8-.1-1.06l-6-5c-.32-.27-.8-.23-1.06.09 -.27.31-.23.79.09 1.05l6 4.99c.31.26.79.22 1.05-.1Z"/></g></svg>