<svg viewBox="0 0 24 24" xmlns="http://www.w3.org/2000/svg"><g fill-rule="evenodd"><path d="M17.25 7c0-.14-.12-.25-.25-.25 -.14 0-.25.11-.25.25 0 .13.11.25.25.25 .13 0 .25-.12.25-.25ZM17 5.25c.96 0 1.75.78 1.75 1.75 0 .96-.79 1.75-1.75 1.75 -.97 0-1.75-.79-1.75-1.75 0-.97.78-1.75 1.75-1.75Z"/><path d="M17.25 12c0-.14-.12-.25-.25-.25 -.14 0-.25.11-.25.25 0 .13.11.25.25.25 .13 0 .25-.12.25-.25ZM17 10.25c.96 0 1.75.78 1.75 1.75 0 .96-.79 1.75-1.75 1.75 -.97 0-1.75-.79-1.75-1.75 0-.97.78-1.75 1.75-1.75Z"/><path d="M17.223 18.2c.3.28.77.26 1.05-.04 .28-.32.46-.74.46-1.2 0-.97-.79-1.75-1.75-1.75 -.97 0-1.75.78-1.75 1.75 0 .41.33.75.75.75 .41 0 .75-.34.75-.75 0-.14.11-.25.25-.25 .13 0 .25.11.25.25 0 .06-.03.12-.07.16 -.29.3-.27.77.03 1.05Z"/><path d="M12.25 7c0-.14-.12-.25-.25-.25 -.14 0-.25.11-.25.25 0 .13.11.25.25.25 .13 0 .25-.12.25-.25ZM12 5.25c.96 0 1.75.78 1.75 1.75 0 .96-.79 1.75-1.75 1.75 -.97 0-1.75-.79-1.75-1.75 0-.97.78-1.75 1.75-1.75Z"/><path d="M12.25 12c0-.14-.12-.25-.25-.25 -.14 0-.25.11-.25.25 0 .13.11.25.25.25 .13 0 .25-.12.25-.25ZM12 10.25c.96 0 1.75.78 1.75 1.75 0 .96-.79 1.75-1.75 1.75 -.97 0-1.75-.79-1.75-1.75 0-.97.78-1.75 1.75-1.75Z"/><path d="M12.25 17c0-.14-.12-.25-.25-.25 -.14 0-.25.11-.25.25 0 .13.11.25.25.25 .13 0 .25-.12.25-.25ZM12 15.25c.96 0 1.75.78 1.75 1.75 0 .96-.79 1.75-1.75 1.75 -.97 0-1.75-.79-1.75-1.75 0-.97.78-1.75 1.75-1.75Z"/><path d="M7.25 7c0-.14-.12-.25-.25-.25 -.14 0-.25.11-.25.25 0 .13.11.25.25.25 .13 0 .25-.12.25-.25ZM7 5.25c.96 0 1.75.78 1.75 1.75 0 .96-.79 1.75-1.75 1.75 -.97 0-1.75-.79-1.75-1.75 0-.97.78-1.75 1.75-1.75Z"/><path d="M7.25 12c0-.14-.12-.25-.25-.25 -.14 0-.25.11-.25.25 0 .13.11.25.25.25 .13 0 .25-.12.25-.25ZM7 10.25c.96 0 1.75.78 1.75 1.75 0 .96-.79 1.75-1.75 1.75 -.97 0-1.75-.79-1.75-1.75 0-.97.78-1.75 1.75-1.75Z"/><path d="M7.25 17c0-.14-.12-.25-.25-.25 -.14 0-.25.11-.25.25 0 .13.11.25.25.25 .13 0 .25-.12.25-.25ZM7 15.25c.96 0 1.75.78 1.75 1.75 0 .96-.79 1.75-1.75 1.75 -.97 0-1.75-.79-1.75-1.75 0-.97.78-1.75 1.75-1.75Z"/></g></svg>