<svg viewBox="0 0 24 24" xmlns="http://www.w3.org/2000/svg"><path fill-rule="evenodd" d="M12.99 2.75c-5.11 0-9.25 4.14-9.25 9.25 0 3.22 1.65 6.07 4.16 7.727 .34.22.44.69.21 1.03 -.23.34-.7.44-1.04.21 -2.92-1.93-4.84-5.23-4.84-8.98 0-5.94 4.81-10.75 10.75-10.75 1.18 0 2.32.19 3.39.54 .26.08.46.32.5.6 .04.28-.09.56-.32.72 -2.02 1.4-3.34 3.73-3.34 6.37 0 4.28 3.47 7.75 7.75 7.75 .28 0 .54.16.67.41 .12.25.09.55-.08.78 -1.96 2.6-5.09 4.29-8.61 4.29 -.55 0-1.09-.05-1.62-.13 -.41-.07-.7-.45-.64-.86 .06-.41.44-.7.85-.64 .45.06.91.1 1.38.1 2.51 0 4.79-1.01 6.45-2.628 -4.38-.74-7.71-4.54-7.71-9.122 0-2.6 1.07-4.95 2.79-6.63 -.51-.09-1.02-.13-1.55-.13Z"/></svg>