<svg viewBox="0 0 24 24" xmlns="http://www.w3.org/2000/svg"><g fill-rule="evenodd"><path d="M1.25 4c0-.42.33-.75.75-.75h20c.41 0 .75.33.75.75v18c0 .41-.34.75-.75.75H2c-.42 0-.75-.34-.75-.75V4Zm1.5.75v16.5h18.5V4.75H2.75Z"/><path d="M6 1.25c.41 0 .75.33.75.75v3.5c0 .41-.34.75-.75.75 -.42 0-.75-.34-.75-.75V2c0-.42.33-.75.75-.75Z"/><path d="M18 1.25c.41 0 .75.33.75.75v3.5c0 .41-.34.75-.75.75 -.42 0-.75-.34-.75-.75V2c0-.42.33-.75.75-.75Z"/><path d="M8.45 11.48c.14-.16.34-.24.54-.24h6c.2 0 .4.08.54.23 .14.15.21.35.19.56l-.5 7c-.03.39-.36.69-.75.69h-5c-.4 0-.73-.31-.75-.7l-.5-7c-.02-.21.05-.42.19-.57Zm1.35 1.26l.39 5.5h3.6l.39-5.5H9.79Z"/><path d="M6.75 12c0-.42.33-.75.75-.75h9c.41 0 .75.33.75.75 0 .41-.34.75-.75.75h-9c-.42 0-.75-.34-.75-.75Z"/><path d="M12 9.75c.41 0 .75.33.75.75V12c0 .41-.34.75-.75.75 -.42 0-.75-.34-.75-.75v-1.5c0-.42.33-.75.75-.75Z"/><path d="M1.25 8c0-.42.33-.75.75-.75h4c.41 0 .75.33.75.75 0 .41-.34.75-.75.75H2c-.42 0-.75-.34-.75-.75Zm8 0c0-.42.33-.75.75-.75h12c.41 0 .75.33.75.75 0 .41-.34.75-.75.75H10c-.42 0-.75-.34-.75-.75Z"/></g></svg>