<svg viewBox="0 0 24 24" xmlns="http://www.w3.org/2000/svg"><g fill-rule="evenodd"><path d="M.75 4.5c0-1.52 1.23-2.75 2.75-2.75h17c1.51 0 2.75 1.23 2.75 2.75v11c0 1.51-1.24 2.75-2.75 2.75h-17c-1.52 0-2.75-1.24-2.75-2.75v-11ZM3.5 3.25c-.7 0-1.25.55-1.25 1.25v11c0 .69.55 1.25 1.25 1.25h17c.69 0 1.25-.56 1.25-1.25v-11c0-.7-.56-1.25-1.25-1.25h-17Z"/><path d="M5.25 21.5c0-.42.33-.75.75-.75h12c.41 0 .75.33.75.75 0 .41-.34.75-.75.75H6c-.42 0-.75-.34-.75-.75Z"/><path d="M.75 14c0-.42.33-.75.75-.75H16c.41 0 .75.33.75.75 0 .41-.34.75-.75.75H1.5c-.42 0-.75-.34-.75-.75Zm18.5 0c0-.42.33-.75.75-.75h2.5c.41 0 .75.33.75.75 0 .41-.34.75-.75.75H20c-.42 0-.75-.34-.75-.75Z"/><path d="M8.25 17.5c0-.42.33-.75.75-.75h6c.41 0 .75.33.75.75v4c0 .41-.34.75-.75.75H9c-.42 0-.75-.34-.75-.75v-4Zm1.5.75v2.5h4.5v-2.5h-4.5Z"/></g></svg>