<svg viewBox="0 0 24 24" xmlns="http://www.w3.org/2000/svg"><g fill-rule="evenodd"><path d="M16.96 11.96c.28-.29.74-.3 1.03-.03l1.5 1.38c.14.13.23.32.24.53 0 .2-.08.39-.22.54l-3.92 4.01c-.52.53-1.23.83-1.97.83h-.66c-.42 0-.75-.34-.75-.75v-.68c0-.73.28-1.43.8-1.95l3.91-3.92Zm.55 1.56l-3.41 3.4c-.22.21-.35.5-.37.8 .3-.03.58-.16.79-.38l3.37-3.47 -.41-.38Z"/><path d="M15.5 9.75c-.96 0-1.87.23-2.66.64 -.37.19-.83.04-1.02-.32 -.2-.37-.05-.83.31-1.02 1-.53 2.14-.82 3.34-.82 4 0 7.25 3.24 7.25 7.25 0 4-3.25 7.25-7.25 7.25 -4.01 0-7.25-3.25-7.25-7.25 0-.99.19-1.93.55-2.79 .15-.39.59-.57.98-.41 .38.15.56.59.4.98 -.29.67-.45 1.42-.45 2.21 0 3.17 2.57 5.75 5.75 5.75 3.17 0 5.75-2.58 5.75-5.75 0-3.18-2.58-5.75-5.75-5.75Z"/><path d="M1.25 2c0-.42.33-.75.75-.75h4.9c.24 0 .47.12.61.32l1.57 2.29h10.4c.41 0 .75.33.75.75v2.375c0 .41-.34.75-.75.75 -.42 0-.75-.34-.75-.75V5.36H8.68c-.25 0-.48-.13-.62-.33l-1.58-2.3H2.72v16.5h4.25c.41 0 .75.33.75.75 0 .41-.34.75-.75.75h-5c-.42 0-.75-.34-.75-.75v-18Z"/></g></svg>