<svg viewBox="0 0 24 24" xmlns="http://www.w3.org/2000/svg"><g fill-rule="evenodd"><path d="M13.46 10.71c.28-.29.74-.3 1.03-.03l2 1.84c.14.13.23.32.24.53 0 .2-.08.39-.22.54l-5.42 5.55c-.52.53-1.23.83-1.97.83H7.96c-.42 0-.75-.34-.75-.75v-1.18c0-.73.28-1.43.8-1.95l5.41-5.42Zm.55 1.56l-4.91 4.9c-.24.23-.37.55-.37.88v.42h.4c.33 0 .65-.14.89-.38l4.87-5 -.91-.84Z"/><path d="M1.25 4c0-.42.33-.75.75-.75h20c.41 0 .75.33.75.75v18c0 .41-.34.75-.75.75H2c-.42 0-.75-.34-.75-.75V4Zm1.5.75v16.5h18.5V4.75H2.75Z"/><path d="M6 1.25c.41 0 .75.33.75.75v3.5c0 .41-.34.75-.75.75 -.42 0-.75-.34-.75-.75V2c0-.42.33-.75.75-.75Z"/><path d="M18 1.25c.41 0 .75.33.75.75v3.5c0 .41-.34.75-.75.75 -.42 0-.75-.34-.75-.75V2c0-.42.33-.75.75-.75Z"/><path d="M1.25 8c0-.42.33-.75.75-.75h4c.41 0 .75.33.75.75 0 .41-.34.75-.75.75H2c-.42 0-.75-.34-.75-.75Zm8 0c0-.42.33-.75.75-.75h12c.41 0 .75.33.75.75 0 .41-.34.75-.75.75H10c-.42 0-.75-.34-.75-.75Z"/></g></svg>