<svg viewBox="0 0 24 24" xmlns="http://www.w3.org/2000/svg"><g fill-rule="evenodd"><path d="M3.25 13.5c0-1.52 1.23-2.75 2.75-2.75h.5c1.51 0 2.75 1.23 2.75 2.75V18c0 1.51-1.24 2.75-2.75 2.75H6c-1.52 0-2.75-1.24-2.75-2.75v-4.5ZM6 12.25c-.7 0-1.25.55-1.25 1.25V18c0 .69.55 1.25 1.25 1.25h.5c.69 0 1.25-.56 1.25-1.25v-4.5c0-.7-.56-1.25-1.25-1.25H6Z"/><path d="M14.75 13.5c0-1.52 1.23-2.75 2.75-2.75h.5c1.51 0 2.75 1.23 2.75 2.75V18c0 1.51-1.24 2.75-2.75 2.75h-.5c-1.52 0-2.75-1.24-2.75-2.75v-4.5Zm2.75-1.25c-.7 0-1.25.55-1.25 1.25V18c0 .69.55 1.25 1.25 1.25h.5c.69 0 1.25-.56 1.25-1.25v-4.5c0-.7-.56-1.25-1.25-1.25h-.5Z"/><path d="M11 4.75c-1.75 0-3.33.71-4.47 1.87 -.29.29-.77.3-1.07.01 -.3-.29-.31-.77-.02-1.07 1.4-1.44 3.36-2.33 5.53-2.33h2c4.28 0 7.75 3.46 7.75 7.75v4.5c0 .41-.34.75-.75.75 -.42 0-.75-.34-.75-.75v-4.5c0-3.46-2.8-6.25-6.25-6.25h-2Zm-6.83 4.5c.41.05.69.43.63.84 -.05.29-.07.58-.07.89v4.5c0 .41-.34.75-.75.75 -.42 0-.75-.34-.75-.75v-4.5c0-.38.02-.75.07-1.11 .05-.42.43-.7.84-.64Z"/></g></svg>