<svg viewBox="0 0 24 24" xmlns="http://www.w3.org/2000/svg"><g fill-rule="evenodd"><path d="M3.55 6.99c-.29-.31-.76-.33-1.06-.05 -.31.28-.33.75-.05 1.05l0 0 0 0 0 0 .02.03c.02.02.05.06.1.1 .09.09.22.22.39.38 .3.28.77.27 1.06-.04 .28-.31.27-.78-.04-1.07 -.16-.15-.28-.27-.36-.35 -.04-.05-.07-.08-.09-.1l-.03-.03 -.01-.01Zm16.89-.01c.28-.31.75-.33 1.05-.05 .3.28.32.75.04 1.05l-.56-.51c.55.5.55.5.55.5l-.01 0 -.01 0 -.02.01c-.01.01-.03.02-.05.04 -.04.03-.09.08-.16.15 -.14.13-.32.31-.57.53 -.49.43-1.18 1.02-2.04 1.61 -1.7 1.16-4.1 2.38-6.75 2.38 -2.01 0-3.86-.7-5.37-1.53 -.37-.21-.72-.42-1.05-.63 -.35-.23-.45-.7-.22-1.04 .22-.35.69-.45 1.03-.22 .3.19.61.38.95.57 1.37.75 2.97 1.33 4.63 1.33 2.21 0 4.31-1.03 5.9-2.12 .78-.54 1.42-1.08 1.87-1.49 .22-.21.39-.37.5-.49 .05-.06.1-.11.12-.14l.03-.04 0-.01 0-.01c0-.01 0 0 0 0Z"/><path d="M12 17.25c.41 0 .75-.34.75-.75V12c0-.42-.34-.75-.75-.75 -.42 0-.75.33-.75.75v4.5c0 .41.33.75.75.75Z"/><path d="M3.96 14.53c.29.29.76.29 1.06 0l3-3c.29-.3.29-.77 0-1.07 -.3-.3-.77-.3-1.07 0l-3 3c-.3.29-.3.76 0 1.06Z"/><path d="M20.03 14.53c-.3.29-.77.29-1.07 0l-3-3c-.3-.3-.3-.77 0-1.07 .29-.3.76-.3 1.06 0l3 3c.29.29.29.76 0 1.06Z"/></g></svg>