<svg viewBox="0 0 24 24" xmlns="http://www.w3.org/2000/svg"><g fill-rule="evenodd"><path d="M13.34 9.76c.3-.28.78-.26 1.05.04 .52.57.84 1.34.84 2.19 0 1.79-1.46 3.25-3.25 3.25 -.88 0-1.673-.35-2.26-.92 -.3-.29-.31-.77-.02-1.07 .28-.3.76-.31 1.06-.02 .31.3.74.49 1.21.49 .96 0 1.75-.79 1.75-1.75 0-.46-.18-.87-.46-1.18 -.28-.31-.26-.79.04-1.06Z"/><path d="M19.53 4.46c.29.29.29.76 0 1.06l-14 14c-.3.29-.77.29-1.07 0 -.3-.3-.3-.77 0-1.07l14-14c.29-.3.76-.3 1.06-.001Z"/><path d="M13.33 6.8c-.38-.06-.82-.06-1.34-.06 -.79 0-1.71.3-2.68.84 -.97.52-1.93 1.24-2.79 1.97 -.859.72-1.61 1.46-2.14 2.01 -.13.12-.24.24-.34.35L6.45 14c.31.27.34.74.07 1.05 -.28.31-.75.34-1.06.07l-2.99-2.59 -.01-.01 -.01-.01 -.01-.01 -.01-.01 -.01-.01 -.01-.01 -.01-.01 -.01-.01 -.01-.01c-.32-.27-.35-.75-.08-1.06l.56.48c-.57-.49-.57-.49-.57-.49l0-.01 0-.01 .01-.02 .04-.06c.04-.05.09-.12.17-.2 .15-.17.37-.41.65-.7 .55-.58 1.33-1.35 2.24-2.12 .9-.77 1.95-1.56 3.03-2.15 1.07-.59 2.25-1.04 3.39-1.04h.02c.47-.01 1.02-.01 1.51.07 .49.07 1.06.22 1.48.64 .29.29.29.76 0 1.06 -.3.29-.77.29-1.07 0 -.08-.08-.26-.18-.64-.23Zm2.43.46c.23-.34.7-.43 1.04-.19 1.31.91 2.5 2.02 3.36 2.89 .42.43.77.81 1.02 1.09 .12.13.21.24.28.32 .03.03.05.06.07.08l.02.02 0 0 0 0 0 0s0 0-.58.47c.56.48.56.48.56.48l-.01 0 -.01 0 -.02.01c-.02.01-.04.04-.07.07 -.06.06-.14.15-.24.26 -.21.22-.51.54-.88.91 -.74.74-1.77 1.71-2.92 2.59 -.33.25-.8.18-1.06-.15 -.26-.33-.19-.8.14-1.06 1.08-.83 2.05-1.75 2.76-2.46 .27-.28.51-.53.69-.73 -.23-.26-.53-.59-.9-.96 -.83-.84-1.95-1.88-3.15-2.72 -.34-.24-.43-.71-.19-1.05Zm5.23 4.72l.56.48c.23-.28.24-.69 0-.97l-.58.47ZM7.38 15.74c.24-.34.7-.42 1.04-.18 .64.46 1.29.88 1.91 1.18 .625.3 1.17.46 1.65.46 .51 0 1.09-.14 1.71-.39 .38-.16.82.03.97.41 .15.38-.04.82-.42.97 -.75.29-1.52.49-2.29.49 -.8 0-1.59-.27-2.32-.63 -.74-.36-1.46-.84-2.13-1.32 -.34-.25-.42-.71-.18-1.05Z"/></g></svg>