<svg viewBox="0 0 24 24" xmlns="http://www.w3.org/2000/svg"><g fill-rule="evenodd"><path d="M11.777 18.38c-.31.28-.78.26-1.06-.04 -.29-.32-.47-.74-.47-1.2 0-.97.78-1.75 1.75-1.75 .96 0 1.75.78 1.75 1.75 0 .41-.34.75-.75.75 -.42 0-.75-.34-.75-.75 0-.14-.12-.25-.25-.25 -.14 0-.25.11-.25.25 0 .06.02.12.06.16 .28.3.26.77-.04 1.05Z"/><path d="M12 12.41c.13 0 .25-.12.25-.25 0-.14-.12-.25-.25-.25 -.14 0-.25.11-.25.25 0 .13.11.25.25.25Zm1.75-.25c0 .96-.79 1.75-1.75 1.75 -.97 0-1.75-.79-1.75-1.75 0-.97.78-1.75 1.75-1.75 .96 0 1.75.78 1.75 1.75Z"/><path d="M12 7.41c.13 0 .25-.12.25-.25 0-.14-.12-.25-.25-.25 -.14 0-.25.11-.25.25 0 .13.11.25.25.25Zm1.75-.25c0 .96-.79 1.75-1.75 1.75 -.97 0-1.75-.79-1.75-1.75 0-.97.78-1.75 1.75-1.75 .96 0 1.75.78 1.75 1.75Z"/></g></svg>