<svg viewBox="0 0 24 24" xmlns="http://www.w3.org/2000/svg"><g fill-rule="evenodd"><path d="M8.27 5.13c-.93.88-1.53 2.22-1.53 4.02 0 .41-.34.75-.75.75 -.42 0-.75-.34-.75-.75 0-2.16.73-3.9 1.98-5.11 1.24-1.2 2.94-1.81 4.76-1.81 1.82 0 3.51.6 4.76 1.8 1.25 1.2 1.98 2.94 1.98 5.1 0 1.59-.83 3.35-1.78 4.88 -.98 1.56-2.17 3.01-3.07 4.02 -1.03 1.15-2.79 1.15-3.81 0 -.83-.94-1.91-2.24-2.84-3.66 -.23-.34-.44-.69-.64-1.04 -.05-.09-.1-.17-.15-.26 -.2-.37-.07-.82.29-1.02 .36-.2.81-.07 1.01.29 .04.07.08.15.12.23 .18.32.38.64.58.96 .87 1.33 1.89 2.57 2.69 3.48 .42.47 1.13.47 1.561 0 .87-.99 2-2.37 2.91-3.83 .92-1.49 1.55-2.95 1.55-4.1 0-1.8-.61-3.14-1.53-4.03 -.93-.9-2.24-1.39-3.73-1.39 -1.5 0-2.8.49-3.73 1.38Z"/><path d="M12 6.74c-.7 0-1.25.55-1.25 1.25 0 .69.55 1.25 1.25 1.25 .69 0 1.25-.56 1.25-1.25 0-.7-.56-1.25-1.25-1.25ZM9.25 7.99c0-1.52 1.23-2.75 2.75-2.75 1.51 0 2.75 1.23 2.75 2.75 0 1.51-1.24 2.75-2.75 2.75 -1.52 0-2.75-1.24-2.75-2.76Z"/><path d="M4.76 18.44c-.02.03-.02.04-.02.05v0c-.01 0-.01.03.03.09s.13.16.28.27c.31.23.8.46 1.49.68 1.35.42 3.27.69 5.43.69 2.15 0 4.07-.28 5.43-.7 .68-.22 1.18-.46 1.49-.69 .15-.12.23-.21.28-.28 .04-.07.04-.09.04-.1v-.01c0-.01-.01-.02-.02-.06 -.02-.04-.06-.1-.14-.17 -.16-.16-.42-.34-.82-.52 -.8-.36-1.96-.67-3.39-.85l.18-1.49c1.5.19 2.83.52 3.81.96 .48.22.92.48 1.24.81 .32.32.59.75.59 1.28 0 .69-.45 1.21-.94 1.57 -.5.36-1.18.66-1.94.9 -1.54.48-3.62.76-5.89.76 -2.27 0-4.35-.29-5.89-.77 -.77-.24-1.44-.54-1.94-.91 -.49-.36-.94-.89-.94-1.58 0-.53.26-.97.59-1.29 .32-.33.76-.59 1.24-.82 .97-.45 2.3-.78 3.81-.97l.18 1.48c-1.43.18-2.6.48-3.39.84 -.4.18-.67.35-.82.51 -.08.07-.12.13-.14.16Z"/></g></svg>