<svg viewBox="0 0 24 24" xmlns="http://www.w3.org/2000/svg"><g fill-rule="evenodd"><path d="M3.25 10c0-1.52 1.23-2.75 2.75-2.75h12c1.51 0 2.75 1.23 2.75 2.75v10c0 1.51-1.24 2.75-2.75 2.75H6c-1.52 0-2.75-1.24-2.75-2.75v-5c0-.42.33-.75.75-.75 .41 0 .75.33.75.75v5c0 .69.55 1.25 1.25 1.25h12c.69 0 1.25-.56 1.25-1.25V10c0-.7-.56-1.25-1.25-1.25H6c-.7 0-1.25.55-1.25 1.25v1c0 .41-.34.75-.75.75 -.42 0-.75-.34-.75-.75v-1Z"/><path d="M8.66 2.75c-.7 0-1.25.55-1.25 1.25v3.89c0 .41-.34.75-.75.75 -.42 0-.75-.34-.75-.75v-3.9c0-1.52 1.23-2.75 2.75-2.75h6.43c1.51 0 2.75 1.23 2.75 2.75v3.89c0 .41-.34.75-.75.75 -.42 0-.75-.34-.75-.75v-3.9c0-.7-.56-1.25-1.25-1.25H8.65Z"/><path d="M12 13.25c-.42 0-.75.33-.75.75 0 .41.33.75.75.75 .41 0 .75-.34.75-.75 0-.42-.34-.75-.75-.75ZM9.75 14c0-1.25 1-2.25 2.25-2.25 1.24 0 2.25 1 2.25 2.25 0 1.24-1.01 2.25-2.25 2.25 -1.25 0-2.25-1.01-2.25-2.25Z"/><path d="M12 14.75c.41 0 .75.33.75.75V19c0 .41-.34.75-.75.75 -.42 0-.75-.34-.75-.75v-3.5c0-.42.33-.75.75-.75Z"/></g></svg>