<svg viewBox="0 0 24 24" xmlns="http://www.w3.org/2000/svg"><g fill-rule="evenodd"><path d="M14.25 12c0-.42-.34-.75-.75-.75H2c-.42 0-.75.33-.75.75 0 .41.33.75.75.75h11.5c.41 0 .75-.34.75-.75Z"/><path d="M6.03 7.96c-.3-.3-.77-.3-1.07 0l-3.5 3.5c-.3.29-.3.76 0 1.06l3.5 3.5c.29.29.76.29 1.06 0 .29-.3.29-.77 0-1.07l-2.97-2.97 2.96-2.97c.29-.3.29-.77 0-1.07Z"/><path d="M14.13 4.75c-2.25 0-4.25 1.05-5.55 2.71 -.26.32-.73.38-1.06.125 -.33-.26-.39-.73-.125-1.06 1.57-2 4-3.29 6.72-3.29 1.52 0 2.95.4 4.19 1.1 .36.2.48.66.28 1.02 -.21.36-.67.48-1.03.28 -1.03-.59-2.2-.92-3.46-.92Zm7.04 3.61c.38-.15.82.04.97.42 .38.99.59 2.07.59 3.2 0 4.82-3.85 8.75-8.62 8.75 -2.73 0-5.16-1.29-6.73-3.29 -.26-.33-.21-.8.125-1.06 .32-.26.79-.21 1.05.125 1.3 1.65 3.3 2.71 5.54 2.71 3.91 0 7.11-3.24 7.11-7.25 0-.95-.18-1.84-.5-2.67 -.15-.39.04-.83.42-.98Z"/></g></svg>