<svg viewBox="0 0 24 24" xmlns="http://www.w3.org/2000/svg"><g fill-rule="evenodd"><path d="M12.9 2.31c.26.12.44.38.44.68v12c0 .41-.34.75-.75.75 -.42 0-.75-.34-.75-.75V4.66L7.46 8.55c-.14.12-.32.18-.5.18H3.335v6.5H6.96c.18 0 .36.06.49.18l4.37 3.89v-.33c0-.42.33-.75.75-.75 .41 0 .75.33.75.75v2c0 .29-.18.56-.45.68s-.59.07-.81-.13L6.64 16.7H2.55c-.42 0-.75-.34-.75-.75v-8c0-.42.33-.75.75-.75h4.08l5.41-4.82c.22-.2.53-.25.8-.13Z"/><path d="M15.443 8.46c.29-.3.76-.3 1.06 0l5.12 5.12c.29.29.29.76 0 1.06 -.3.29-.77.29-1.07 0l-5.13-5.13c-.3-.3-.3-.77 0-1.07Z"/><path d="M15.443 14.65c-.3-.3-.3-.77 0-1.07l5.12-5.13c.29-.3.76-.3 1.06 0 .29.29.29.76 0 1.06l-5.13 5.12c-.3.29-.77.29-1.07 0Z"/></g></svg>