<svg viewBox="0 0 24 24" xmlns="http://www.w3.org/2000/svg"><g fill-rule="evenodd"><path d="M19.25 2c0-.42-.34-.75-.75-.75H9C7.48 1.25 6.25 2.48 6.25 4v2.83c0 .44-.25.86-.63 1.08l-1.49.84c-.86.48-1.39 1.4-1.39 2.38v5.83c0 .41.33.75.75.75 .41 0 .75-.34.75-.75v-5.84c0-.45.24-.87.62-1.09l1.48-.85c.85-.49 1.38-1.41 1.38-2.39V3.95c0-.7.55-1.25 1.25-1.25h9.5c.41 0 .75-.34.75-.75ZM20 3.25c-.42 0-.75.33-.75.75v16c0 .69-.56 1.25-1.25 1.25h-1c-.42 0-.75.33-.75.75 0 .41.33.75.75.75h1c1.51 0 2.75-1.24 2.75-2.75V4c0-.42-.34-.75-.75-.75Zm-15 18c-.42 0-.75-.34-.75-.75h-1.5c0 1.24 1 2.25 2.25 2.25h8c.41 0 .75-.34.75-.75 0-.42-.34-.75-.75-.75H5Z"/><path d="M10.5 3.75c.41 0 .75.33.75.75v4c0 .41-.34.75-.75.75 -.42 0-.75-.34-.75-.75v-4c0-.42.33-.75.75-.75Z"/><path d="M13.5 3.75c.41 0 .75.33.75.75V7c0 .41-.34.75-.75.75 -.42 0-.75-.34-.75-.75V4.5c0-.42.33-.75.75-.75Z"/><path d="M7.25 19c0-.42.33-.75.75-.75h9c.41 0 .75.33.75.75 0 .41-.34.75-.75.75H8c-.42 0-.75-.34-.75-.75Z"/><path d="M22.53 1.46c.29.29.29.76 0 1.06l-20 20c-.3.29-.77.29-1.07 0 -.3-.3-.3-.77 0-1.07l20-20c.29-.3.76-.3 1.06-.001Z"/></g></svg>