<svg viewBox="0 0 24 24" xmlns="http://www.w3.org/2000/svg"><g fill-rule="evenodd"><path d="M3.25 4c0-1.52 1.23-2.75 2.75-2.75h6.26c.65 0 1.29.23 1.78.66l2.43 2.08c.31.26.35.74.08 1.05 -.27.31-.75.35-1.06.08l-2.44-2.09c-.23-.2-.52-.31-.82-.31H5.96c-.7 0-1.25.55-1.25 1.25v12c0 .41-.34.75-.75.75 -.42 0-.75-.34-.75-.75v-12Zm14.04 1.68c.26-.32.74-.36 1.05-.09l1.43 1.23c.6.52.96 1.28.96 2.08v1.08c0 .41-.34.75-.75.75 -.42 0-.75-.34-.75-.75V8.89c0-.37-.16-.72-.44-.95L17.35 6.7c-.32-.27-.36-.75-.09-1.06Zm2.7 7.56c.41 0 .75.33.75.75v6c0 1.51-1.24 2.75-2.75 2.75h-12c-1.52 0-2.75-1.24-2.75-2.75h1.5c0 .69.55 1.25 1.25 1.25h12c.69 0 1.25-.56 1.25-1.25v-6c0-.42.33-.75.75-.75Z"/><path d="M11.25 12c0-.42.33-.75.75-.75h2.5c1.51 0 2.75 1.23 2.75 2.75v3c0 1.51-1.24 2.75-2.75 2.75h-5c-1.52 0-2.75-1.24-2.75-2.75v-.5c0-.42.33-.75.75-.75 .41 0 .75.33.75.75v.5c0 .69.55 1.25 1.25 1.25h5c.69 0 1.25-.56 1.25-1.25v-3c0-.7-.56-1.25-1.25-1.25H12c-.42 0-.75-.34-.75-.75Z"/><path d="M12 11.25c.41 0 .75.33.75.75v2.75h3.75c.41 0 .75.33.75.75 0 .41-.34.75-.75.75h-3.75V19c0 .41-.34.75-.75.75 -.42 0-.75-.34-.75-.75v-7c0-.42.33-.75.75-.75Z"/><path d="M22.53 1.46c.29.29.29.76 0 1.06l-20 20c-.3.29-.77.29-1.07 0 -.3-.3-.3-.77 0-1.07l20-20c.29-.3.76-.3 1.06-.001Z"/></g></svg>