<svg viewBox="0 0 24 24" xmlns="http://www.w3.org/2000/svg"><g fill-rule="evenodd"><path d="M1.69 19.683c.26.12.58.07.8-.12l2-1.75c.31-.28.34-.75.07-1.06 -.28-.32-.75-.35-1.06-.08l-.76.66V6.63l6.11 5.34 -2.36 2.06c-.32.27-.35.74-.08 1.05 .27.31.74.34 1.05.07l3-2.625c.16-.15.25-.35.25-.57 0-.22-.1-.43-.26-.57L2.44 4.37c-.23-.2-.54-.25-.81-.12 -.27.12-.45.38-.45.68v14c0 .29.17.56.44.68Z"/><path d="M12.25 5c0-.42.33-.75.75-.75h3c.41 0 .75.33.75.75v14c0 .41-.34.75-.75.75h-3c-.42 0-.75-.34-.75-.75V5Zm1.5.75v12.5h1.5V5.75h-1.5Z"/><path d="M18.25 5c0-.42.33-.75.75-.75h3c.41 0 .75.33.75.75v14c0 .41-.34.75-.75.75h-3c-.42 0-.75-.34-.75-.75V5Zm1.5.75v12.5h1.5V5.75h-1.5Z"/></g></svg>