<svg viewBox="0 0 24 24" xmlns="http://www.w3.org/2000/svg"><g fill-rule="evenodd"><path d="M20.3 3.31c-.27-.13-.59-.08-.81.12l-9 8c-.17.14-.26.34-.26.56 0 .21.09.41.25.56l4.5 4c.3.27.78.24 1.05-.07s.24-.79-.07-1.06l-3.87-3.44 7.12-6.33V18.3l-.76-.67c-.31-.28-.79-.25-1.06.06 -.28.3-.25.78.06 1.05l2 1.77c.22.19.53.24.8.12 .26-.13.44-.39.44-.69v-16c0-.3-.18-.57-.45-.69Z"/><path d="M8.75 4c0-.42-.34-.75-.75-.75H4c-.42 0-.75.33-.75.75v16c0 .41.33.75.75.75h4c.41 0 .75-.34.75-.75V4Zm-1.5.75v14.5h-2.5V4.75h2.5Z"/></g></svg>