<svg viewBox="0 0 24 24" xmlns="http://www.w3.org/2000/svg"><g fill-rule="evenodd"><path d="M12.61 4.2c-.39-.22-.85-.22-1.23 0L5.37 7.575c-.4.22-.64.63-.64 1.08v6.66c0 .45.24.86.63 1.08l6 3.375c.38.21.84.21 1.22 0l1.01-.58c.36-.21.81-.08 1.02.28 .2.36.07.81-.29 1.02l-1.02.57c-.84.47-1.86.47-2.7 0L4.59 17.68c-.87-.49-1.41-1.41-1.41-2.4V8.61c0-1 .53-1.91 1.4-2.4l6-3.38c.83-.48 1.85-.48 2.69 0l6 3.37c.86.48 1.4 1.4 1.4 2.39v6.66c0 .99-.54 1.9-1.41 2.39l-1.99 1.11c-.37.2-.82.07-1.03-.29 -.21-.37-.08-.82.28-1.03l1.98-1.12c.39-.23.63-.64.63-1.09V8.55c0-.46-.25-.87-.64-1.09l-6-3.375Z"/><path d="M12 9.75c-1.25 0-2.25 1-2.25 2.24 0 1.24 1 2.25 2.25 2.25 1.24 0 2.25-1.01 2.25-2.25 0-1.25-1.01-2.25-2.25-2.25Zm-3.75 2.24c0-2.08 1.67-3.75 3.75-3.75 2.07 0 3.75 1.67 3.75 3.74 0 2.07-1.68 3.75-3.75 3.75 -2.08 0-3.75-1.68-3.75-3.75Z"/></g></svg>