<svg viewBox="0 0 24 24" xmlns="http://www.w3.org/2000/svg"><path fill-rule="evenodd" d="M13.2 3.31c.27-.12.59-.07.81.13l7.5 7c.15.14.23.34.23.54s-.09.4-.24.54l-7.5 7c-.22.2-.54.25-.82.13 -.28-.12-.46-.39-.46-.69v-4.25h-1.98c-2.07 0-3.97 1.1-5 2.89l-2.13 3.72c-.17.29-.52.44-.85.35 -.33-.09-.56-.39-.56-.73v-5.5c0-3.43 2.38-6.31 5.57-7.06 .4-.1.8.15.9.55 .09.4-.16.8-.56.9 -2.54.59-4.43 2.87-4.43 5.59v2.67l.72-1.28c1.29-2.26 3.69-3.66 6.29-3.66h2.72c.41 0 .75.33.75.75v3.27l5.65-5.28 -5.66-5.28v2.27c0 .41-.34.75-.75.75h-1.5c-.42 0-.75-.34-.75-.75 0-.42.33-.75.75-.75h.75V3.88c0-.3.17-.57.45-.69Z"/></svg>