<svg viewBox="0 0 24 24" xmlns="http://www.w3.org/2000/svg"><g fill-rule="evenodd"><path d="M5.25 7.44c.02-.4.35-.7.74-.7h12c.39 0 .72.3.74.69l1 14c.01.2-.06.41-.2.56 -.15.15-.35.23-.55.23h-14c-.21 0-.41-.09-.55-.24 -.15-.16-.22-.36-.2-.57l.17-2.5c.02-.42.38-.73.8-.7 .41.02.72.38.69.8l-.13 1.69h12.389l-.9-12.5H6.63L6.14 15c-.03.41-.39.72-.81.69 -.42-.03-.73-.39-.7-.81l.53-7.51Z"/><path d="M7.25 6.5c0-2.63 2.12-4.75 4.75-4.75 2.62 0 4.75 2.12 4.75 4.75v1c0 .41-.34.75-.75.75H8c-.42 0-.75-.34-.75-.75v-1ZM12 3.25c-1.8 0-3.25 1.45-3.25 3.25v.25h6.5V6.5c0-1.8-1.46-3.25-3.25-3.25Z"/><path d="M7.75 11.5c0 2.34 1.9 4.25 4.25 4.25 2.34 0 4.25-1.91 4.25-4.25V11c0-.42-.34-.75-.75-.75 -.42 0-.75.33-.75.75v.5c0 1.51-1.24 2.75-2.75 2.75 -1.52 0-2.75-1.24-2.75-2.75V11c0-.42-.34-.75-.75-.75 -.42 0-.75.33-.75.75v.5Z"/></g></svg>