<svg viewBox="0 0 24 24" xmlns="http://www.w3.org/2000/svg"><g fill-rule="evenodd"><path d="M3.43 7c.14-.17.34-.26.56-.26h16c.21 0 .42.09.56.25 .14.16.2.38.17.59l-1.76 12.28c-.2 1.35-1.36 2.36-2.73 2.36H7.69c-1.37 0-2.53-1.01-2.73-2.37l-.26-1.79c-.06-.42.22-.79.63-.85 .41-.06.78.22.84.63l.25 1.78c.08.61.61 1.07 1.23 1.07h8.53c.62 0 1.14-.46 1.23-1.08l1.63-11.43H4.76l.8 5.64c.05.41-.23.79-.64.84 -.42.05-.79-.23-.85-.64l-.93-6.51c-.04-.22.03-.44.17-.6Z"/><path d="M7.25 6.5c0-2.63 2.12-4.75 4.75-4.75 2.62 0 4.75 2.12 4.75 4.75v1c0 .41-.34.75-.75.75H8c-.42 0-.75-.34-.75-.75v-1ZM12 3.25c-1.8 0-3.25 1.45-3.25 3.25v.25h6.5V6.5c0-1.8-1.46-3.25-3.25-3.25Z"/><path d="M7.75 11.5c0 2.34 1.9 4.25 4.25 4.25 2.34 0 4.25-1.91 4.25-4.25V11c0-.42-.34-.75-.75-.75 -.42 0-.75.33-.75.75v.5c0 1.51-1.24 2.75-2.75 2.75 -1.52 0-2.75-1.24-2.75-2.75V11c0-.42-.34-.75-.75-.75 -.42 0-.75.33-.75.75v.5Z"/></g></svg>