<svg viewBox="0 0 24 24" xmlns="http://www.w3.org/2000/svg"><g fill-rule="evenodd"><path d="M1.25 13.5c0-.42.33-.75.75-.75h3c.41 0 .75.33.75.75v6c0 .41-.34.75-.75.75H2c-.42 0-.75-.34-.75-.75v-6Zm1.5.75v4.5h1.5v-4.5h-1.5Z"/><path d="M6.75 10.5c0-.42.33-.75.75-.75h3c.41 0 .75.33.75.75v9c0 .41-.34.75-.75.75h-3c-.42 0-.75-.34-.75-.75v-9Zm1.5.75v7.5h1.5v-7.5h-1.5Z"/><path d="M12.75 7.5c0-.42.33-.75.75-.75h3c.41 0 .75.33.75.75v12c0 .41-.34.75-.75.75h-3c-.42 0-.75-.34-.75-.75v-12Zm1.5.75v10.5h1.5V8.25h-1.5Z"/><path d="M18.25 4.5c0-.42.33-.75.75-.75h3c.41 0 .75.33.75.75v3.52c0 .41-.34.75-.75.75 -.42 0-.75-.34-.75-.75V5.24h-1.5v13.5h1.5v-6.8c0-.42.33-.75.75-.75 .41 0 .75.33.75.75v7.54c0 .41-.34.75-.75.75h-3c-.42 0-.75-.34-.75-.75v-15Z"/></g></svg>