<svg viewBox="0 0 24 24" xmlns="http://www.w3.org/2000/svg"><g fill-rule="evenodd"><path d="M7 3.37c.41 0 .75.33.75.75v1.5c0 .41-.34.75-.75.75 -.42 0-.75-.34-.75-.75v-1.5c0-.42.33-.75.75-.75Zm0 5.5c.41 0 .75.33.75.75v9.5c0 .41-.34.75-.75.75 -.42 0-.75-.34-.75-.75v-9.5c0-.42.33-.75.75-.75Z"/><path d="M3.46 16.34c.29-.3.76-.3 1.06 0l2.46 2.46 2.46-2.47c.29-.3.76-.3 1.06 0 .29.29.29.76 0 1.06l-3 3c-.3.29-.77.29-1.07 0l-3-3c-.3-.3-.3-.77 0-1.07Z"/><path d="M9.25 13.87c0 .41.33.75.75.75h4c.41 0 .75-.34.75-.75 0-.42-.34-.75-.75-.75h-4c-.42 0-.75.33-.75.75Z"/><path d="M9.25 9.87c0 .41.33.75.75.75h7c.41 0 .75-.34.75-.75 0-.42-.34-.75-.75-.75h-7c-.42 0-.75.33-.75.75Z"/><path d="M9.25 5.875c0 .41.33.75.75.75h10c.41 0 .75-.34.75-.75 0-.42-.34-.75-.75-.75H10c-.42 0-.75.33-.75.75Z"/></g></svg>