<svg viewBox="0 0 24 24" xmlns="http://www.w3.org/2000/svg"><g fill-rule="evenodd"><path d="M13.28 7.8c-.72-.72-1.87-.72-2.58 0 -.72.71-.72 1.87 0 2.59 .71.71 1.86.71 2.57 0 .71-.72.71-1.88 0-2.6ZM9.64 6.74c1.29-1.31 3.4-1.31 4.69 0 1.29 1.3 1.29 3.4 0 4.7 -1.3 1.3-3.41 1.3-4.7 0 -1.3-1.31-1.3-3.41 0-4.71Z"/><path d="M8.02 4.04c.29.29.29.76 0 1.06 -2.2 2.2-2.2 5.77 0 7.97 .29.29.29.76-.01 1.06 -.3.29-.77.29-1.07-.01 -2.78-2.79-2.78-7.31 0-10.091 .29-.3.76-.3 1.06-.01Zm7.94 0c.29-.3.76-.3 1.06 0 2.77 2.78 2.77 7.3 0 10.09 -.3.29-.77.29-1.07 0 -.3-.3-.3-.77-.01-1.07 2.19-2.21 2.19-5.78 0-7.98 -.3-.3-.3-.77 0-1.07Z"/><path d="M5.45 1.46c.29.29.29.76 0 1.06 -3.62 3.62-3.62 9.5 0 13.13 .29.29.29.76-.01 1.06 -.3.29-.77.29-1.07-.01 -4.2-4.22-4.2-11.05 0-15.26 .29-.3.76-.3 1.06-.01Zm13.08 0c.29-.3.76-.3 1.06 0 2.08 2.08 3.12 4.82 3.14 7.55 0 .3-.01.6-.04.9 -.04.41-.4.72-.81.68 -.42-.04-.73-.4-.69-.81 .02-.27.02-.53.02-.79 -.02-2.36-.92-4.71-2.71-6.51 -.3-.3-.3-.77 0-1.07Zm2.52 11.92c.36.2.48.66.28 1.02 -.47.82-1.06 1.6-1.75 2.3 -.3.29-.77.29-1.07 0 -.3-.3-.3-.77-.01-1.07 .6-.61 1.1-1.28 1.5-1.99 .2-.37.66-.49 1.02-.29Z"/><path d="M12 10.92c.41 0 .75.33.75.75v10.32c0 .41-.34.75-.75.75 -.42 0-.75-.34-.75-.75V11.66c0-.42.33-.75.75-.75Z"/></g></svg>