<svg viewBox="0 0 24 24" xmlns="http://www.w3.org/2000/svg"><g fill-rule="evenodd"><path d="M12 2.75c-.97 0-1.91.14-2.78.42 -.4.12-.82-.1-.95-.5s.09-.82.49-.95c1.01-.33 2.1-.5 3.22-.5 5.93 0 10.75 4.81 10.75 10.75 0 5.93-4.82 10.75-10.75 10.75 -5.94 0-10.75-4.82-10.75-10.75 0-3.01 1.23-5.73 3.22-7.68 .29-.29.77-.29 1.06.01 .28.29.28.77-.02 1.06 -1.72 1.67-2.78 4.01-2.78 6.6 0 5.1 4.14 9.25 9.25 9.25 5.1 0 9.25-4.15 9.25-9.25 0-5.11-4.15-9.25-9.25-9.25Z"/><path d="M11.46 12.53c-.15-.15-.22-.34-.22-.54v-7c0-.42.33-.75.75-.75 .41 0 .75.33.75.75v6.25h6.25c.41 0 .75.33.75.75 0 .41-.34.75-.75.75h-7c-.2 0-.39-.08-.54-.22Z"/></g></svg>