<svg viewBox="0 0 24 24" xmlns="http://www.w3.org/2000/svg"><g fill-rule="evenodd"><path d="M1.25 4c0-.42.33-.75.75-.75h6c.25 0 .48.12.62.33l1.77 2.66h11.59c.41 0 .75.33.75.75v13c0 .41-.34.75-.75.75h-20c-.42 0-.75-.34-.75-.75v-2c0-.42.33-.75.75-.75 .41 0 .75.33.75.75v1.25h18.5V7.74H9.98c-.26 0-.49-.13-.63-.34L7.57 4.73H2.72v9.25c0 .41-.34.75-.75.75 -.42 0-.75-.34-.75-.75v-10Z"/><path d="M7.25 17.75c0-.42.33-.75.75-.75h8c.41 0 .75.33.75.75 0 .41-.34.75-.75.75H8c-.42 0-.75-.34-.75-.75Z"/><path d="M12 9c.41 0 .75.33.75.75v5.5c0 .41-.34.75-.75.75 -.42 0-.75-.34-.75-.75v-5.5c0-.42.33-.75.75-.75Z"/><path d="M11.46 9.21c.29-.3.76-.3 1.06 0l3 3c.29.29.29.76 0 1.06 -.3.29-.77.29-1.07 0l-2.47-2.47 -2.47 2.46c-.3.29-.77.29-1.07 0 -.3-.3-.3-.77 0-1.07l3-3.01Z"/></g></svg>