<svg viewBox="0 0 24 24" xmlns="http://www.w3.org/2000/svg"><g fill-rule="evenodd"><path d="M14.97 2.31c.26.12.44.38.44.68v12c0 .41-.34.75-.75.75 -.42 0-.75-.34-.75-.75V4.66L9.53 8.55c-.14.12-.32.18-.5.18H5.4v6.5H9.03c.18 0 .36.06.49.18l4.37 3.89v-.33c0-.42.33-.75.75-.75 .41 0 .75.33.75.75v2c0 .29-.18.56-.45.68s-.59.07-.81-.13L8.71 16.7H4.62c-.42 0-.75-.34-.75-.75v-8c0-.42.33-.75.75-.75H8.7l5.41-4.82c.22-.2.53-.25.8-.13Z"/><path d="M18.08 8.32c.37-.19.82-.04 1 .33l.38.76c.8 1.61.8 3.52 0 5.14l-.39.76c-.19.37-.64.52-1.01.33 -.38-.19-.53-.64-.34-1.01l.38-.77c.59-1.2.59-2.61 0-3.81l-.39-.77c-.19-.38-.04-.83.33-1.01Z"/></g></svg>