<svg viewBox="0 0 24 24" xmlns="http://www.w3.org/2000/svg"><g fill-rule="evenodd"><path d="M9.25 3C5.79 3 3 5.79 3 9.25c0 1.32.41 2.55 1.11 3.57 .19.28.42.55.66.8 .28.29.28.77-.02 1.06 -.3.28-.78.28-1.07-.02 -.31-.31-.58-.65-.83-1 -.88-1.26-1.39-2.79-1.39-4.43 0-4.29 3.46-7.75 7.75-7.75 4.28 0 7.75 3.46 7.75 7.75 0 4.28-3.47 7.75-7.75 7.75 -.77 0-1.52-.12-2.22-.33 -.4-.12-.63-.54-.51-.94 .11-.4.53-.63.93-.51 .56.16 1.16.25 1.78.25 3.45 0 6.25-2.8 6.25-6.25 0-3.46-2.8-6.25-6.25-6.25Z"/><path d="M9.25 4.5c.41 0 .75.33.75.75v8c0 .41-.34.75-.75.75 -.42 0-.75-.34-.75-.75v-8c0-.42.33-.75.75-.75Z"/><path d="M4.5 9.25c0-.42.33-.75.75-.75h8c.41 0 .75.33.75.75 0 .41-.34.75-.75.75h-8c-.42 0-.75-.34-.75-.75Z"/><path d="M13.71 13.71c.29-.3.76-.3 1.06 0l7.5 7.5c.29.29.29.76 0 1.06 -.3.29-.77.29-1.07 0l-7.5-7.5c-.3-.3-.3-.77 0-1.07Z"/></g></svg>