<svg viewBox="0 0 24 24" xmlns="http://www.w3.org/2000/svg"><g fill-rule="evenodd"><path d="M5.25 7h-1.5V5h1.5v2Z"/><path d="M5.25 13h-1.5v-2h1.5v2Z"/><path d="M5.25 19h-1.5v-2h1.5v2Z"/><path d="M4.25 2c0-.56.44-1 1-1h13c1.65 0 3 1.34 3 3v16c0 1.65-1.35 3-3 3h-13c-.56 0-1-.45-1-1V2ZM9 12c0-2.21 1.79-4 4-4 2.2 0 4 1.79 4 4 0 .82-.26 1.6-.69 2.23 -.54-.5-1.19-.88-1.91-1.09 .75-.48 1.25-1.31 1.25-2.27 0-1.48-1.2-2.67-2.67-2.67 -1.48 0-2.67 1.19-2.67 2.66 0 .95.5 1.79 1.25 2.26 -.72.21-1.37.59-1.91 1.08 -.44-.64-.69-1.42-.69-2.25Zm2.2 3.57c.54.27 1.15.42 1.79.42 .64 0 1.25-.16 1.8-.43 -.5-.4-1.12-.63-1.8-.63 -.69 0-1.31.23-1.8.62Zm1.79-9.58c-3.32 0-6 2.68-6 6 0 3.31 2.68 6 6 6 3.31 0 6-2.69 6-6 0-3.32-2.69-6-6-6Z"/></g></svg>