<svg viewBox="0 0 24 24" xmlns="http://www.w3.org/2000/svg"><g fill-rule="evenodd"><path d="M15 10.5c-.56 0-1 .44-1 1v10c0 .39.22.74.58.9 .35.16.77.1 1.06-.15l2.84-2.45 2.84 2.44c.29.25.71.31 1.06.14 .35-.17.58-.52.58-.91v-10c0-.56-.45-1-1-1h-7Z"/><path d="M1 3.5c0-1.11.89-2 2-2h16c1.1 0 2 .89 2 2v5h-2v-5H3v9.7h8.5v2H3c-1.11 0-2-.9-2-2V3.5Z"/><path d="M2.45 1.94c-.44 0-.83.28-.96.7 -.13.41.02.87.39 1.12l8.55 5.85c.34.23.78.23 1.12 0l8.55-5.85c.36-.25.52-.702.39-1.13 -.13-.42-.52-.71-.96-.71H2.43Z"/></g></svg>