<svg viewBox="0 0 24 24" xmlns="http://www.w3.org/2000/svg"><g fill-rule="evenodd"><path d="M21 4c0-1.66-1.35-3-3-3H5c-.56 0-1 .44-1 1v5h14c1.65 0 3-1.35 3-3ZM6 5V3h12c.55 0 1 .44 1 1 0 .55-.45 1-1 1H6Z"/><path d="M19 4v1h-7H4c-.56 0-1 .44-1 1v16c0 .55.44 1 1 1h15c1.1 0 2-.9 2-2V6 4h-2Zm-7 9c-.56 0-1 .44-1 1 0 .55.44 1 1 1 .55 0 1-.45 1-1 0-.56-.45-1-1-1Zm1.65-1.5c-.48-.32-1.05-.5-1.66-.5 -1.66 0-3 1.34-3 3 0 1.65 1.34 3 3 3 .69 0 1.33-.24 1.84-.64 .44.39 1.02.63 1.65.63 1.38 0 2.5-1.12 2.5-2.5v-2.25c0-2.63-2.13-4.75-4.75-4.75h-1.25c-3.32 0-6 2.68-6 6v.375c0 3.52 2.85 6.375 6.375 6.375h.125v-2h-.125c-2.42 0-4.375-1.96-4.375-4.375v-.375c0-2.21 1.79-4 4-4h1.25c1.51 0 2.75 1.23 2.75 2.75v2.25c0 .27-.23.5-.5.5 -.28 0-.5-.23-.5-.5v-.5 -2.5h-1.35Z"/></g></svg>