<svg viewBox="0 0 24 24" xmlns="http://www.w3.org/2000/svg"><g fill-rule="evenodd"><path d="M1 16c0-.56.44-1 1-1h20c.55 0 1 .44 1 1v2c0 1.65-1.35 3-3 3H4c-1.66 0-3-1.35-3-3v-2Zm2 1v1c0 .55.44 1 1 1h16c.55 0 1-.45 1-1v-1H3Z"/><path d="M3 3c-.56 0-1 .44-1 1v12c0 .55.44 1 1 1h18c.55 0 1-.45 1-1V4c0-.56-.45-1-1-1H3Zm3 3.5c0-.56.44-1 1-1h10.76c.55 0 1 .44 1 1v7c0 .55-.45 1-1 1H6.99c-.56 0-1-.45-1-1v-7Zm2 4.58l1.54-1.55 -1.55-1.06v2.6Zm3.22-.4L9.4 12.49h5.94l-1.82-1.82 -.6.4c-.35.23-.79.23-1.13 0l-.6-.41Zm5.54-2.21v2.6l-1.55-1.55 1.54-1.06Zm-6.67-.99l2.27 1.55 2.27-1.56h-4.56Z"/></g></svg>