<svg viewBox="0 0 24 24" xmlns="http://www.w3.org/2000/svg"><g fill-rule="evenodd"><path d="M1 4c0-1.11.89-2 2-2h16c1.1 0 2 .89 2 2v4h-2V4H3v9.7h8v2H3c-1.11 0-2-.9-2-2V4Z"/><path d="M2.45 2.44c-.44 0-.83.28-.96.7 -.13.41.02.87.39 1.12l8.55 5.85c.34.23.78.23 1.12 0l8.55-5.86c.36-.25.52-.702.39-1.13 -.13-.42-.52-.71-.96-.71H2.43Z"/><path d="M18.16 9.53c-.18-.06-.37-.06-.55 0l-3.89 1.11c-.43.12-.73.51-.73.96v4.05c0 1.61.77 3.13 2.09 4.06l2.21 1.58c.34.24.81.24 1.16 0l2.21-1.59c1.31-.94 2.09-2.46 2.09-4.07v-4.06c0-.45-.3-.84-.73-.97l-3.89-1.12Z"/></g></svg>