<svg viewBox="0 0 24 24" xmlns="http://www.w3.org/2000/svg"><g fill-rule="evenodd"><path d="M1 4c0-1.11.89-2 2-2h16c1.1 0 2 .89 2 2v3.5h-2V4H3v9.7h6v2H3c-1.11 0-2-.9-2-2V4Z"/><path d="M2.45 2.44c-.44 0-.83.28-.96.7 -.13.41.02.87.39 1.12l8.55 5.85c.34.23.78.23 1.12 0l8.55-5.86c.36-.25.52-.702.39-1.13 -.13-.42-.52-.71-.96-.71H2.43Z"/><path d="M13.66 12.83c-1.48 0-2.67 1.19-2.67 2.66 0 1.47 1.19 2.66 2.66 2.66 1.47 0 2.66-1.2 2.66-2.67 0-1.48-1.2-2.67-2.67-2.67Z"/><path d="M20.33 9.5c-1.48 0-2.67 1.19-2.67 2.66 0 1.47 1.19 2.66 2.66 2.66 1.47 0 2.66-1.2 2.66-2.67 0-1.48-1.2-2.67-2.67-2.67Z"/><path d="M20.33 16.16c-1.48 0-2.67 1.19-2.67 2.66 0 1.47 1.19 2.66 2.66 2.66 1.47 0 2.66-1.2 2.66-2.67 0-1.48-1.2-2.67-2.67-2.67Z"/><path d="M19.14 13.6l-3.62 1.94 -.95-1.77 3.61-1.95 .94 1.76Z"/><path d="M18.19 19.15l-3.62-1.95 .94-1.77 3.61 1.94 -.95 1.76Z"/></g></svg>