<svg viewBox="0 0 24 24" xmlns="http://www.w3.org/2000/svg"><path fill-rule="evenodd" d="M1 7.5c0-1.66 1.34-3 3-3h16c1.65 0 3 1.34 3 3v9c0 1.65-1.35 3-3 3H4c-1.66 0-3-1.35-3-3v-9Zm5 4c0-.83.67-1.5 1.5-1.5 .82 0 1.5.67 1.5 1.5 0 .82-.68 1.5-1.5 1.5 -.83 0-1.5-.68-1.5-1.5Zm4.66 1.5c.21-.46.33-.97.33-1.5 0-1.94-1.57-3.5-3.5-3.5 -1.94 0-3.5 1.56-3.5 3.5 0 1.93 1.56 3.5 3.5 3.5h9c1.93 0 3.5-1.57 3.5-3.5 0-1.94-1.57-3.5-3.5-3.5 -1.94 0-3.5 1.56-3.5 3.5 0 .53.12 1.04.33 1.5h-2.68Zm5.83 0c.82 0 1.5-.68 1.5-1.5 0-.83-.68-1.5-1.5-1.5 -.83 0-1.5.67-1.5 1.5 0 .82.67 1.5 1.5 1.5Z"/></svg>