<svg viewBox="0 0 24 24" xmlns="http://www.w3.org/2000/svg"><g fill-rule="evenodd"><path d="M7 5c0-1.66 1.34-3 3-3h4c1.65 0 3 1.34 3 3v1c0 .55-.45 1-1 1H8c-.56 0-1-.45-1-1V5Zm3-1c-.56 0-1 .44-1 1h6c0-.56-.45-1-1-1h-4Z"/><path d="M1 8c0-1.66 1.34-3 3-3h16c1.65 0 3 1.34 3 3v11c0 1.65-1.35 3-3 3H4c-1.66 0-3-1.35-3-3V8Zm3-1c-.56 0-1 .44-1 1v11c0 .55.44 1 1 1h16c.55 0 1-.45 1-1V8c0-.56-.45-1-1-1H4Z"/><path d="M1 8c0-1.66 1.34-3 3-3h16c1.65 0 3 1.34 3 3v4c0 .55-.45 1-1 1H2c-.56 0-1-.45-1-1V8Zm3-1c-.56 0-1 .44-1 1v3h18V8c0-.56-.45-1-1-1H4Z"/><path d="M15 14v-2h2v2h-2Z"/><path d="M7 14v-2h2v2H7Z"/></g></svg>