<svg viewBox="0 0 24 24" xmlns="http://www.w3.org/2000/svg"><g fill-rule="evenodd"><path d="M1 4c0-1.66 1.34-3 3-3h3v2H4c-.56 0-1 .44-1 1v3H1V4Zm19-1h-3V1h3c1.65 0 3 1.34 3 3v3h-2V4c0-.56-.45-1-1-1ZM3 17v3c0 .55.44 1 1 1h3v2H4c-1.66 0-3-1.35-3-3v-3h2Zm18 3v-3h2v3c0 1.65-1.35 3-3 3h-3v-2h3c.55 0 1-.45 1-1Z"/><path d="M12 6c-3.32 0-6 2.68-6 6 0 3.31 2.68 6 6 6 3.31 0 6-2.69 6-6 0-3.32-2.69-6-6-6Zm-8 6c0-4.42 3.58-8 8-8 4.41 0 8 3.58 8 8 0 4.41-3.59 8-8 8 -4.42 0-8-3.59-8-8Z"/><path d="M12 8.5c-.56 0-1 .44-1 1 0 .55.44 1 1 1 .55 0 1-.45 1-1 0-.56-.45-1-1-1Zm-3 1c0-1.66 1.34-3 3-3 1.65 0 3 1.34 3 3 0 1.65-1.35 3-3 3 -1.66 0-3-1.35-3-3Z"/><path d="M12 15.5c-1.39 0-2.5 1.11-2.5 2.5 0 .55-.45 1-1 1 -.56 0-1-.45-1-1 0-2.49 2.01-4.5 4.5-4.5 2.48 0 4.5 2.01 4.5 4.5 0 .55-.45 1-1 1 -.56 0-1-.45-1-1 0-1.39-1.12-2.5-2.5-2.5Z"/></g></svg>