<svg viewBox="0 0 24 24" xmlns="http://www.w3.org/2000/svg"><g fill-rule="evenodd"><path d="M9.5 6c-.28 0-.5.22-.5.5 0 .27.22.5.5.5 .27 0 .5-.23.5-.5 0-.28-.23-.5-.5-.5ZM7 6.5C7 5.11 8.11 4 9.5 4 10.88 4 12 5.11 12 6.5 12 7.88 10.88 9 9.5 9 8.11 9 7 7.88 7 6.5Z"/><path d="M5 11.5C5 10.11 6.11 9 7.5 9h4c1.38 0 2.5 1.11 2.5 2.5 0 1.38-1.12 2.5-2.5 2.5h-4C6.11 14 5 12.88 5 11.5Zm2.5-.5c-.28 0-.5.22-.5.5 0 .27.22.5.5.5h4c.27 0 .5-.23.5-.5 0-.28-.23-.5-.5-.5h-4Z"/><path d="M9.5 3C5.91 3 3 5.91 3 9.5 3 13.08 5.91 16 9.5 16c3.58 0 6.5-2.92 6.5-6.5C16 5.91 13.08 3 9.5 3ZM1 9.5C1 4.8 4.8 1 9.5 1 14.19 1 18 4.8 18 9.5c0 4.69-3.81 8.5-8.5 8.5C4.8 18 1 14.19 1 9.5Z"/><path d="M15.7 14.29l7 7 -1.42 1.41 -7-7 1.41-1.42Z"/></g></svg>