<svg viewBox="0 0 24 24" xmlns="http://www.w3.org/2000/svg"><g fill="#9545ED" fill-rule="evenodd"><path d="M6.5 7c0-1.39 1.11-2.5 2.5-2.5 1.38 0 2.5 1.11 2.5 2.5v4.5h-2v-2h-1v2h-2V7Zm2 .5h1V7c0-.28-.23-.5-.5-.5 -.28 0-.5.22-.5.5v.5Z"/><path d="M12.5 5.5c0-.56.44-1 1-1h1c1.65 0 3 1.34 3 3v2c0 1.65-1.35 3-3 3h-1c-.56 0-1-.45-1-1v-6Zm2 1v4c.55 0 1-.45 1-1v-2c0-.56-.45-1-1-1Z"/><path d="M7.13 21.5l3.99-7 .86.49 .86-.5 4 7 -1.74.99 -3.14-5.49 -3.14 5.48 -1.74-1Z"/><path fill="#3747D6" d="M4 2c0-.56.44-1 1-1h14c.55 0 1 .44 1 1v13c0 .55-.45 1-1 1H5c-.56 0-1-.45-1-1V2Zm2 1v11h12V3H6Z"/></g></svg>