<svg viewBox="0 0 24 24" xmlns="http://www.w3.org/2000/svg"><g fill="#9545ED" fill-rule="evenodd"><path d="M19.34 9.24c.39-.35.98-.32 1.35.05l2 2 -1.42 1.41 -1.35-1.35 -6.3 5.39c-.4.34-.99.31-1.36-.06l-2.44-2.44 -7.33 4.57 -1.06-1.7 8-5c.39-.25.9-.19 1.23.14L13 14.59l6.29-5.4Z"/><g fill="#3747D6"><path d="M1 22V2h2v19h19v2H2c-.56 0-1-.45-1-1Z"/><path d="M5 5.5l-.7.71c-.2-.19-.31-.45-.31-.72 0-.28.1-.53.3-.72l.69.71Zm12 0l.69.71c.19-.19.3-.45.3-.72 0-.28-.11-.53-.31-.72l-.7.71Zm-10.503 0c.32.28.73.61 1.19.94 .57.41 1.19.81 1.79 1.11 .61.3 1.13.44 1.51.44 .37 0 .89-.15 1.51-.45 .6-.3 1.22-.7 1.798-1.12 .45-.34.86-.67 1.19-.95 -.33-.29-.74-.62-1.2-.95 -.58-.42-1.2-.82-1.798-1.12 -.62-.31-1.14-.45-1.52-.45 -.38 0-.9.14-1.52.44 -.61.29-1.23.69-1.8 1.11 -.46.33-.87.66-1.2.94Zm2.11-3.86c.73-.36 1.56-.65 2.38-.65 .82 0 1.65.29 2.38.64 .74.36 1.47.83 2.1 1.29 .63.45 1.17.91 1.56 1.25 .19.17.35.31.46.41 .05.05.09.09.12.11l.03.03 0 0 0 0s0 0-.7.71c.69.71.69.71.69.71l-.01 0 -.01 0 -.01 0 -.04.03c-.03.02-.08.06-.13.11 -.11.1-.27.24-.47.41 -.4.34-.94.79-1.57 1.25 -.63.45-1.36.93-2.11 1.29 -.74.35-1.57.64-2.39.64 -.83 0-1.66-.3-2.39-.65 -.75-.37-1.48-.84-2.11-1.3 -.64-.46-1.18-.92-1.57-1.26 -.2-.18-.36-.32-.47-.42 -.06-.06-.1-.1-.13-.12l-.04-.04 -.01-.01 -.01-.01 -.01-.01c-.01-.01 0 0 .69-.72 -.7-.72-.7-.72-.7-.72l0-.01 0-.01 .03-.04c.02-.03.07-.07.12-.12 .1-.11.26-.25.46-.42 .39-.35.93-.8 1.56-1.26 .62-.46 1.35-.94 2.1-1.3Z"/><path d="M11 4c-.83 0-1.5.67-1.5 1.5 0 .82.67 1.5 1.5 1.5 .82 0 1.5-.68 1.5-1.5 0-.83-.68-1.5-1.5-1.5ZM7.5 5.5C7.5 3.56 9.06 2 11 2c1.93 0 3.5 1.56 3.5 3.5C14.5 7.43 12.93 9 11 9 9.06 9 7.5 7.43 7.5 5.5Z"/></g></g></svg>