<svg viewBox="0 0 24 24" xmlns="http://www.w3.org/2000/svg"><g fill="#9545ED" fill-rule="evenodd"><path d="M12.47 15.11c.32.17.52.51.52.88v3c0 1.1.89 2 2 2h2v2h-2c-2.21 0-4-1.8-4-4v-1.14l-1.45.96 -1.11-1.67 2.99-2c.3-.21.7-.23 1.02-.05Z"/><path d="M6.5 8c0-1.39 1.11-2.5 2.5-2.5 1.38 0 2.5 1.11 2.5 2.5v3h-2v-1h-1v1h-2V8Zm2 0h1c0-.28-.23-.5-.5-.5 -.28 0-.5.22-.5.5Z"/><path d="M12.5 6.5c0-.56.44-1 1-1h1c1.65 0 3 1.34 3 3V9c0 1.65-1.35 3-3 3h-1c-.56 0-1-.45-1-1V6.5Zm2 1V10c.55 0 1-.45 1-1v-.5c0-.56-.45-1-1-1Z"/><path fill="#3747D6" d="M12 3C8.68 3 6 5.68 6 9c0 3.31 2.68 6 6 6 3.31 0 6-2.69 6-6 0-3.32-2.69-6-6-6ZM4 9c0-4.42 3.58-8 8-8 4.41 0 8 3.58 8 8 0 4.41-3.59 8-8 8 -4.42 0-8-3.59-8-8Z"/></g></svg>