<svg viewBox="0 0 24 24" xmlns="http://www.w3.org/2000/svg"><g fill="#9545ED" fill-rule="evenodd"><path d="M3 17c0-.56.44-1 1-1h3c.55 0 1 .44 1 1v5c0 .55-.45 1-1 1H4c-.56 0-1-.45-1-1v-5Zm2 1v3h1v-3H5Z"/><path d="M16 17c0-.56.44-1 1-1h3c.55 0 1 .44 1 1v5c0 .55-.45 1-1 1h-3c-.56 0-1-.45-1-1v-5Zm2 1v3h1v-3h-1Z"/><path d="M4 2v3H2V2h2Z"/><path d="M13 2v3h-2V2h2Z"/><path d="M22 2v3h-2V2h2Z"/><path d="M6.5 9.5C6.5 8.11 7.61 7 9 7c1.38 0 2.5 1.11 2.5 2.5V14h-2v-2h-1v2h-2V9.5Zm2 .5h1v-.5c0-.28-.23-.5-.5-.5 -.28 0-.5.22-.5.5v.5Z"/><path d="M12.5 8c0-.56.44-1 1-1h1c1.65 0 3 1.34 3 3v2c0 1.65-1.35 3-3 3h-1c-.56 0-1-.45-1-1V8Zm2 1v4c.55 0 1-.45 1-1v-2c0-.56-.45-1-1-1Z"/><path fill="#3747D6" d="M1 5c0-.56.44-1 1-1h20c.55 0 1 .44 1 1v12c0 .55-.45 1-1 1H2c-.56 0-1-.45-1-1V5Zm2 1v10h18V6H3Z"/></g></svg>