<svg viewBox="0 0 24 24" xmlns="http://www.w3.org/2000/svg"><g fill="#9545ED" fill-rule="evenodd"><path d="M1 20v-4h2v4H1Z"/><path d="M7 20v-4h2v4H7Z"/><path d="M15 20v-4h2v4h-2Z"/><path d="M21 20v-4h2v4h-2Z"/><g fill="#3747D6"><path d="M7 6c0-.56.44-1 1-1h8c.55 0 1 .44 1 1v11c0 .55-.45 1-1 1H8c-.56 0-1-.45-1-1V6Zm2 1v9h6V7H9Z"/><path d="M1.41 3.18c.26-.19.59-.24.9-.14l6 2c.4.13.68.51.68.94v11c0 .55-.45 1-1 1h-6c-.56 0-1-.45-1-1v-13c0-.33.15-.63.41-.82Zm1.58 2.19v10.61h4V6.7l-4-1.34Z"/><path d="M22.58 3.18c-.27-.19-.6-.24-.91-.14l-6 2c-.41.13-.69.51-.69.94v11c0 .55.44 1 1 1h6c.55 0 1-.45 1-1v-13c0-.33-.16-.63-.42-.82Zm-1.59 2.19v10.61h-4V6.7l4-1.34Z"/></g></g></svg>