<svg viewBox="0 0 24 24" xmlns="http://www.w3.org/2000/svg"><g fill="#9545ED" fill-rule="evenodd"><path d="M6.5 12.5C6.5 11.11 7.61 10 9 10c1.38 0 2.5 1.11 2.5 2.5V17h-2v-2h-1v2h-2v-4.5Zm2 .5h1v-.5c0-.28-.23-.5-.5-.5 -.28 0-.5.22-.5.5v.5Z"/><path d="M12.5 11c0-.56.44-1 1-1h1c1.65 0 3 1.34 3 3v2c0 1.65-1.35 3-3 3h-1c-.56 0-1-.45-1-1v-6Zm2 1v4c.55 0 1-.45 1-1v-2c0-.56-.45-1-1-1Z"/><path d="M10 4v4H8V4h2Z"/><path d="M16 4v4h-2V4h2Z"/><g fill="#3747D6"><path d="M4 10c0-1.66 1.34-3 3-3h10c1.65 0 3 1.34 3 3v8c0 1.65-1.35 3-3 3H7c-1.66 0-3-1.35-3-3v-8Zm3-1c-.56 0-1 .44-1 1v8c0 .55.44 1 1 1h10c.55 0 1-.45 1-1v-8c0-.56-.45-1-1-1H7Z"/><path d="M22 5H2V3h20v2Z"/></g></g></svg>