<svg viewBox="0 0 24 24" xmlns="http://www.w3.org/2000/svg"><g fill="#9545ED" fill-rule="evenodd"><path d="M6.5 8.5C6.5 7.11 7.61 6 9 6c1.38 0 2.5 1.11 2.5 2.5v3h-2v-1h-1v1h-2v-3Zm2 0h1c0-.28-.23-.5-.5-.5 -.28 0-.5.22-.5.5Z"/><path d="M12.5 7c0-.56.44-1 1-1h1c1.65 0 3 1.34 3 3v.5c0 1.65-1.35 3-3 3h-1c-.56 0-1-.45-1-1V7Zm2 1v2.5c.55 0 1-.45 1-1V9c0-.56-.45-1-1-1Z"/><path d="M1 22V2h2v20H1Z"/><path d="M21 22V2h2v20h-2Z"/><path fill="#3747D6" d="M1 4c0-.56.44-1 1-1h20c.55 0 1 .44 1 1v10c0 .55-.45 1-1 1H2c-.56 0-1-.45-1-1V4Zm2 1v8h18V5H3Z"/></g></svg>