<svg viewBox="0 0 24 24" xmlns="http://www.w3.org/2000/svg"><g fill-rule="evenodd"><path d="M1 5c0-.56.44-1 1-1h20c.55 0 1 .44 1 1v10c0 .26-.11.51-.3.7l-6 6c-.19.18-.45.29-.71.29h-14c-.56 0-1-.45-1-1v-16Zm2 1v14h12.58l5.41-5.42V5.99h-18Z"/><path d="M16 14c-.56 0-1 .44-1 1v6c0 .4.24.76.61.92 .37.15.8.06 1.08-.22l6-6c.28-.29.37-.72.21-1.09 -.16-.38-.52-.62-.93-.62h-6Z"/><path d="M6 3v3.5H4V3h2Z"/><path d="M5.25 9.75h2.5v2h-2.5v-2Z"/><path d="M5.25 13.75h2.5v2h-2.5v-2Z"/><path d="M11.75 9.75h2.5v2h-2.5v-2Z"/><path d="M13 3v3.5h-2V3h2Z"/><path d="M20 3v3.5h-2V3h2Z"/></g></svg>