<svg viewBox="0 0 24 24" xmlns="http://www.w3.org/2000/svg"><g fill-rule="evenodd"><path d="M4 3C2.34 3 1 4.34 1 6v3 11c0 1.65 1.34 3 3 3h16c1.65 0 3-1.35 3-3V9 6c0-1.66-1.35-3-3-3H4Zm-1 7h18v10c0 .55-.45 1-1 1H4c-.56 0-1-.45-1-1V10Zm3-8v3.5H4V2h2Zm7 0v3.5h-2V2h2Zm7 3.5V2h-2v3.5h2Z"/><path d="M13 13.5c1.1 0 2 .89 2 2 0 1.1-.9 2-2 2v2c2.2 0 4-1.8 4-4 0-2.21-1.8-4-4-4 -2.21 0-4 1.79-4 4V17h2v-1.5c0-1.11.89-2 2-2Z"/><path d="M10.62 18.28l2.5-2 -1.25-1.57 -1.88 1.5 -1.88-1.51 -1.25 1.56 2.5 2c.36.29.88.29 1.24 0Z"/></g></svg>