<svg viewBox="0 0 24 24" xmlns="http://www.w3.org/2000/svg"><g fill-rule="evenodd"><path d="M12.81 11.41c-.19-.27-.49-.42-.82-.42 -.33 0-.63.15-.82.41l-6.5 9c-.22.3-.26.7-.08 1.04 .17.33.51.54.89.54h13c.37 0 .71-.22.89-.55 .17-.34.14-.74-.08-1.05l-6.5-9Z"/><path d="M12 13c.32 0 .62-.16.81-.42l6.5-9.01c.21-.31.25-.71.07-1.05 -.18-.34-.52-.55-.9-.55h-13c-.38 0-.72.21-.9.54 -.18.33-.15.73.07 1.04l6.49 9c.18.26.48.41.81.41ZM7.45 4h9.08l-4.55 6.292L7.43 4Z"/><path d="M20 4H4V2h16v2Z"/><path d="M20 22H4v-2h16v2Z"/></g></svg>