<svg viewBox="0 0 24 24" xmlns="http://www.w3.org/2000/svg"><g fill-rule="evenodd"><path d="M6.25 5c0-.42.33-.75.75-.75h10c.41 0 .75.33.75.75v7c0 .41-.34.75-.75.75h-5c-.42 0-.75-.34-.75-.75 0-.42.33-.75.75-.75h4.25v-5.5h-8.5v5.5H9c.41 0 .75.33.75.75 0 .41-.34.75-.75.75H7c-.42 0-.75-.34-.75-.75V5Z"/><path d="M4.25 18c0-.42.33-.75.75-.75h14c.41 0 .75.33.75.75v4c0 .41-.34.75-.75.75h-7c-.42 0-.75-.34-.75-.75 0-.42.33-.75.75-.75h6.25v-2.5H5.75v2.5H8c.41 0 .75.33.75.75 0 .41-.34.75-.75.75H5c-.42 0-.75-.34-.75-.75v-4Z"/><path d="M5.25 2c0-.42.33-.75.75-.75h12c.41 0 .75.33.75.75v3c0 .41-.34.75-.75.75H6c-.42 0-.75-.34-.75-.75V2Zm1.5.75v1.5h10.5v-1.5H6.75Z"/><path d="M5.26 11.87c.06-.37.37-.63.73-.63h3c.41 0 .75.33.75.75 0 .41-.34.75-.75.75H6.62l-.75 4.5h12.22l-.75-4.5h-5.37c-.42 0-.75-.34-.75-.75 0-.42.33-.75.75-.75h6c.36 0 .67.26.73.62l1 6c.03.21-.03.43-.17.6 -.15.16-.36.26-.58.26h-14c-.23 0-.43-.1-.58-.27 -.15-.17-.21-.4-.17-.61l1-6Z"/><path d="M10.5 11.25c-.42 0-.75.33-.75.75 0 .41.33.75.75.75 .41 0 .75-.34.75-.75 0-.42-.34-.75-.75-.75ZM8.25 12c0-1.25 1-2.25 2.25-2.25 1.24 0 2.25 1 2.25 2.25 0 1.24-1.01 2.25-2.25 2.25 -1.25 0-2.25-1.01-2.25-2.25Z"/><path d="M10.5 12.75c.41 0 .75.33.75.75v2c0 .41-.34.75-.75.75 -.42 0-.75-.34-.75-.75v-2c0-.42.33-.75.75-.75Z"/></g></svg>