<svg viewBox="0 0 24 24" xmlns="http://www.w3.org/2000/svg"><g fill-rule="evenodd"><path d="M4 4.25c-.7 0-1.25.55-1.25 1.25v10c0 .69.55 1.25 1.25 1.25h2.8c.08 0 .16-.01.24-.03l4.41-.89c.35-.08.72-.08 1.07 0l4.41.88c.08.01.16.02.24.02h2.8c.69 0 1.25-.56 1.25-1.25v-10c0-.7-.56-1.25-1.25-1.25h-4c-.42 0-.75-.34-.75-.75 0-.42.33-.75.75-.75h4c1.51 0 2.75 1.23 2.75 2.75v10c0 1.51-1.24 2.75-2.75 2.75h-2.81c-.19 0-.37-.02-.54-.06l-4.42-.89c-.17-.04-.33-.04-.5 0l-4.42.88c-.18.03-.36.05-.54.05H3.93c-1.52 0-2.75-1.24-2.75-2.75v-10c0-1.52 1.23-2.75 2.75-2.75h8c.41 0 .75.33.75.75 0 .41-.34.75-.75.75h-8Z"/><path d="M2 12.75c.41 0 .75.33.75.75v5c0 .69.55 1.25 1.25 1.25h1c.69 0 1.25-.56 1.25-1.25v-1c0-.42.33-.75.75-.75 .41 0 .75.33.75.75v1c0 1.51-1.24 2.75-2.75 2.75H4c-1.52 0-2.75-1.24-2.75-2.75v-5c0-.42.33-.75.75-.75Z"/><path d="M22 12.75c-.42 0-.75.33-.75.75v5c0 .69-.56 1.25-1.25 1.25h-1c-.7 0-1.25-.56-1.25-1.25v-1c0-.42-.34-.75-.75-.75 -.42 0-.75.33-.75.75v1c0 1.51 1.23 2.75 2.75 2.75h1c1.51 0 2.75-1.24 2.75-2.75v-5c0-.42-.34-.75-.75-.75Z"/><path d="M7.25 7.5c0-.42.33-.75.75-.75h8c.41 0 .75.33.75.75v3c0 .41-.34.75-.75.75H8c-.42 0-.75-.34-.75-.75v-3Zm1.5.75v1.5h6.5v-1.5h-6.5Z"/><path d="M5.25 14.5c0-.42.33-.75.75-.75h2c.41 0 .75.33.75.75 0 .41-.34.75-.75.75H6c-.42 0-.75-.34-.75-.75Z"/></g></svg>