<svg viewBox="0 0 24 24" xmlns="http://www.w3.org/2000/svg"><g fill-rule="evenodd"><path d="M1.25 2c0-.42.33-.75.75-.75h8c.41 0 .75.33.75.75 0 .41-.34.75-.75.75H2.75v18.5h13.5V2.75H14c-.42 0-.75-.34-.75-.75 0-.42.33-.75.75-.75h3c.41 0 .75.33.75.75v20c0 .41-.34.75-.75.75H2c-.42 0-.75-.34-.75-.75V2Z"/><path d="M19.5 11.25c.41 0 .75.33.75.75v10c0 .41-.34.75-.75.75 -.42 0-.75-.34-.75-.75V12c0-.42.33-.75.75-.75Z"/><path d="M15.25 2c0-.42.33-.75.75-.75h6c.41 0 .75.33.75.75v20c0 .41-.34.75-.75.75h-6c-.42 0-.75-.34-.75-.75 0-.42.33-.75.75-.75h5.25V2.75H16c-.42 0-.75-.34-.75-.75Z"/><path d="M1.25 12c0-.42.33-.75.75-.75h20c.41 0 .75.33.75.75 0 .41-.34.75-.75.75H2c-.42 0-.75-.34-.75-.75Z"/><path d="M12.5 5.75c-.42 0-.75.33-.75.75 0 .41.33.75.75.75 .41 0 .75-.34.75-.75 0-.42-.34-.75-.75-.75Zm-2.25.75c0-1.25 1-2.25 2.25-2.25 1.24 0 2.25 1 2.25 2.25 0 1.24-1.01 2.25-2.25 2.25 -1.25 0-2.25-1.01-2.25-2.25Z"/></g></svg>