<svg viewBox="0 0 24 24" xmlns="http://www.w3.org/2000/svg"><g fill-rule="evenodd"><path d="M16.25 10c0-.42.33-.75.75-.75h5c.41 0 .75.33.75.75v4c0 .41-.34.75-.75.75H6.5c-.42 0-.75-.34-.75-.75 0-.42.33-.75.75-.75h14.75v-2.5H17c-.42 0-.75-.34-.75-.75Z"/><path d="M7.25 10c0-.42.33-.75.75-.75h3c.41 0 .75.33.75.75 0 .41-.34.75-.75.75H8c-.42 0-.75-.34-.75-.75Zm7 0c0-.42.33-.75.75-.75h2c.41 0 .75.33.75.75v4c0 .41-.34.75-.75.75H5.5c-.42 0-.75-.34-.75-.75 0-.42.33-.75.75-.75h10.75v-2.5H15c-.42 0-.75-.34-.75-.75Z"/><path d="M6.29 5.28c.31.09.53.38.53.71v3.25h1.17c.27 0 .53.15.66.39 .13.24.11.53-.04.76l-4 6c-.19.27-.53.39-.85.3 -.32-.1-.54-.39-.54-.72v-3.25H2.04c-.28 0-.54-.16-.67-.4 -.14-.25-.12-.54.03-.77l4-6.01c.18-.28.52-.4.84-.31Zm-2.82 5.96h.52c.41 0 .75.33.75.75v1.52l1.84-2.78h-.53c-.42 0-.75-.34-.75-.75V8.45l-1.85 2.77Z"/></g></svg>