<svg viewBox="0 0 24 24" xmlns="http://www.w3.org/2000/svg"><g fill-rule="evenodd"><path d="M7.46 1.46c.14-.15.33-.22.53-.22h2.5c.41 0 .75.33.75.75v6.5c0 .41-.34.75-.75.75 -.42 0-.75-.34-.75-.75V2.74H8.3L5.73 5.3v10.68c0 2.89 2.35 5.25 5.25 5.25h2c2.89 0 5.25-2.36 5.25-5.25v-6c0-.42.33-.75.75-.75 .41 0 .75.33.75.75v6c0 3.72-3.03 6.75-6.75 6.75h-2c-3.73 0-6.75-3.03-6.75-6.75v-11c0-.2.07-.39.21-.54l3-3Zm5.28.53c0-.42.33-.75.75-.75h2.5c.19 0 .38.07.53.21l3 3c.14.14.21.33.21.53v1c0 .41-.34.75-.75.75 -.42 0-.75-.34-.75-.75v-.69l-2.57-2.57h-1.44v5.75c0 .41-.34.75-.75.75 -.42 0-.75-.34-.75-.75v-6.5Z"/><path d="M9.75 7.5c0-1.25 1-2.25 2.25-2.25 1.24 0 2.25 1 2.25 2.25v2c0 1.24-1.01 2.25-2.25 2.25 -1.25 0-2.25-1.01-2.25-2.25v-2ZM12 6.75c-.42 0-.75.33-.75.75v2c0 .41.33.75.75.75 .41 0 .75-.34.75-.75v-2c0-.42-.34-.75-.75-.75Z"/><path d="M19.58 10.53c.25.32.2.79-.12 1.05l-4.72 3.77v6.63c0 .41-.34.75-.75.75 -.42 0-.75-.34-.75-.75v-7c0-.23.1-.45.28-.59l5-4c.32-.26.79-.21 1.05.11Z"/><path d="M4.41 10.53c-.26.32-.21.79.11 1.05l4.71 3.77v6.63c0 .41.33.75.75.75 .41 0 .75-.34.75-.75v-7c0-.23-.11-.45-.29-.59l-5-4c-.33-.26-.8-.21-1.06.11Z"/></g></svg>