<svg viewBox="0 0 24 24" xmlns="http://www.w3.org/2000/svg"><g fill-rule="evenodd"><path d="M3.3 16.72c.11-.29.38-.48.69-.48h5c.3 0 .58.18.69.47l2 5c.09.23.06.49-.08.69 -.14.2-.38.32-.63.32h-9c-.25 0-.49-.13-.63-.33 -.14-.21-.17-.47-.08-.7l2-5Zm1.2 1.02l-1.4 3.5h6.78l-1.4-3.5H4.49Z"/><path d="M14.3 16.72c.11-.29.38-.48.69-.48h5c.3 0 .58.18.69.47l2 5c.09.23.06.49-.08.69 -.14.2-.38.32-.63.32h-9c-.25 0-.49-.13-.63-.33 -.14-.21-.17-.47-.08-.7l2-5Zm1.2 1.02l-1.4 3.5h6.78l-1.4-3.5h-3.99Z"/><path d="M8.8 9.72c.11-.29.38-.48.69-.48h5c.3 0 .58.18.69.47l2 5c.09.23.06.49-.08.69 -.14.2-.38.32-.63.32h-3.75c-.42 0-.75-.34-.75-.75 0-.42.33-.75.75-.75h2.64l-1.4-3.5H9.97l-1.41 3.5h.39c.41 0 .75.33.75.75 0 .41-.34.75-.75.75h-1.5c-.25 0-.49-.13-.63-.33 -.14-.21-.17-.47-.08-.7l2-5.01Z"/><path d="M5 4.25c.41 0 .75.33.75.75v4c0 .41-.34.75-.75.75 -.42 0-.75-.34-.75-.75V5c0-.42.33-.75.75-.75Z"/><path d="M2.25 7c0-.42.33-.75.75-.75h4c.41 0 .75.33.75.75 0 .41-.34.75-.75.75H3c-.42 0-.75-.34-.75-.75Z"/><path d="M14.5 1.25c.41 0 .75.33.75.75v4c0 .41-.34.75-.75.75 -.42 0-.75-.34-.75-.75V2c0-.42.33-.75.75-.75Z"/><path d="M11.75 4c0-.42.33-.75.75-.75h4c.41 0 .75.33.75.75 0 .41-.34.75-.75.75h-4c-.42 0-.75-.34-.75-.75Z"/><path d="M20 7.25c.41 0 .75.33.75.75v4c0 .41-.34.75-.75.75 -.42 0-.75-.34-.75-.75V8c0-.42.33-.75.75-.75Z"/><path d="M17.25 10c0-.42.33-.75.75-.75h4c.41 0 .75.33.75.75 0 .41-.34.75-.75.75h-4c-.42 0-.75-.34-.75-.75Z"/></g></svg>