<svg viewBox="0 0 24 24" xmlns="http://www.w3.org/2000/svg"><g fill-rule="evenodd"><path d="M1.25 13c0-1.52 1.23-2.75 2.75-2.75h16c1.51 0 2.75 1.23 2.75 2.75v6c0 1.51-1.24 2.75-2.75 2.75h-1c-.42 0-.75-.34-.75-.75 0-.42.33-.75.75-.75h1c.69 0 1.25-.56 1.25-1.25v-6c0-.7-.56-1.25-1.25-1.25H4c-.7 0-1.25.55-1.25 1.25v6c0 .69.55 1.25 1.25 1.25h11c.41 0 .75.33.75.75 0 .41-.34.75-.75.75H4c-1.52 0-2.75-1.24-2.75-2.75v-6Z"/><path d="M4.25 16c0-.42.33-.75.75-.75h4c.41 0 .75.33.75.75 0 .41-.34.75-.75.75H5c-.42 0-.75-.34-.75-.75Z"/><path d="M16.25 14.5c0-.42.33-.75.75-.75h2c.41 0 .75.33.75.75 0 .41-.34.75-.75.75h-2c-.42 0-.75-.34-.75-.75Z"/><path d="M13.25 17.5c0-.42.33-.75.75-.75h2c.41 0 .75.33.75.75 0 .41-.34.75-.75.75h-2c-.42 0-.75-.34-.75-.75Z"/><path d="M7 13.25c.41 0 .75.33.75.75v4c0 .41-.34.75-.75.75 -.42 0-.75-.34-.75-.75v-4c0-.42.33-.75.75-.75Z"/><path d="M6 4.75c-.7 0-1.25.55-1.25 1.25 0 .69.55 1.25 1.25 1.25h4c1.51 0 2.75 1.23 2.75 2.75v1c0 .41-.34.75-.75.75 -.42 0-.75-.34-.75-.75v-1c0-.7-.56-1.25-1.25-1.25H6C4.48 8.75 3.25 7.51 3.25 6c0-1.52 1.23-2.75 2.75-2.75h16c.41 0 .75.33.75.75 0 .41-.34.75-.75.75H6Z"/></g></svg>