<svg viewBox="0 0 24 24" xmlns="http://www.w3.org/2000/svg"><g fill-rule="evenodd"><path d="M8.9 9.53c.14-.19.36-.29.59-.29h2.99c.34 0 .64.23.72.56l1.02 4.08 1.02-4.09c.08-.34.38-.57.72-.57h3c.23 0 .44.1.59.28 .14.18.19.41.13.64l-3 12c-.09.33-.39.56-.73.56h-3.5c-.35 0-.65-.24-.73-.57l-3-12c-.06-.23-.01-.47.13-.65Zm1.55 1.21l2.625 10.5h2.32l2.62-10.5h-1.46l-1.61 6.43c-.09.33-.39.56-.73.56 -.35 0-.65-.24-.73-.57l-1.61-6.44h-1.46Z"/><path d="M1.25 10c0-.42.33-.75.75-.75h3c.41 0 .75.33.75.75v7.25H9c.41 0 .75.33.75.75v4c0 .41-.34.75-.75.75H2c-.42 0-.75-.34-.75-.75v-6c0-.42.33-.75.75-.75 .41 0 .75.33.75.75v5.25h5.5v-2.5H5c-.42 0-.75-.34-.75-.75v-7.25h-1.5V12c0 .41-.34.75-.75.75 -.42 0-.75-.34-.75-.75v-2Z"/><path d="M11.46 1.46c.29-.3.76-.3 1.06 0l3 3c.29.29.29.76 0 1.06 -.3.29-.77.29-1.07 0l-2.47-2.47 -2.47 2.46c-.3.29-.77.29-1.07 0 -.3-.3-.3-.77 0-1.07l3-3Z"/><path d="M12 1.25c.41 0 .75.33.75.75v6c0 .41-.34.75-.75.75 -.42 0-.75-.34-.75-.75V2c0-.42.33-.75.75-.75Z"/><path d="M20.5 19.75c-.42 0-.75.33-.75.75 0 .41.33.75.75.75 .41 0 .75-.34.75-.75 0-.42-.34-.75-.75-.75Zm-2.25.75c0-1.25 1-2.25 2.25-2.25 1.24 0 2.25 1 2.25 2.25 0 1.24-1.01 2.25-2.25 2.25 -1.25 0-2.25-1.01-2.25-2.25Z"/></g></svg>