<svg viewBox="0 0 24 24" xmlns="http://www.w3.org/2000/svg"><g fill-rule="evenodd"><path d="M20.26 8C15.02 5.51 8.95 5.51 3.72 8l-.99.46v8.77h10.25c.41 0 .75.33.75.75 0 .41-.34.75-.75.75h-11c-.42 0-.75-.34-.75-.75v-10c0-.29.16-.56.42-.68l1.4-.67c5.63-2.69 12.18-2.69 17.82 0l1.4.66c.26.12.42.38.42.67v10c0 .41-.34.75-.75.75h-5c-.42 0-.75-.34-.75-.75 0-.42.33-.75.75-.75h4.25V8.43l-.99-.47Z"/><path d="M8.25 8c0-.42.33-.75.75-.75h6c.41 0 .75.33.75.75v7c0 .41-.34.75-.75.75H9c-.42 0-.75-.34-.75-.75V8Zm1.5.75v5.5h4.5v-5.5h-4.5Z"/><path d="M18.25 15c0-1.52 1.23-2.75 2.75-2.75h1c.41 0 .75.33.75.75v5c0 .41-.34.75-.75.75h-3c-.42 0-.75-.34-.75-.75v-3ZM21 13.75c-.7 0-1.25.55-1.25 1.25v2.25h1.5v-3.5H21Z"/><path d="M5.75 15c0-1.52-1.24-2.75-2.75-2.75H2c-.42 0-.75.33-.75.75v5c0 .41.33.75.75.75h3c.41 0 .75-.34.75-.75v-3ZM3 13.75c.69 0 1.25.55 1.25 1.25v2.25h-1.5v-3.5H3Z"/></g></svg>