<svg viewBox="0 0 24 24" xmlns="http://www.w3.org/2000/svg"><g fill-rule="evenodd"><path d="M11.73 1.29c.16-.07.35-.07.52 0l8 3c.29.1.48.38.48.7v8.5c0 1.8-.86 3.51-2.3 4.6l-6 4.5c-.27.2-.64.2-.9 0l-6-4.5c-1.45-1.09-2.3-2.8-2.3-4.6v-8.5c0-.32.19-.6.48-.71l1-.375c.38-.15.82.05.96.43s-.06.82-.44.96l-.52.19v7.98c0 1.33.62 2.59 1.7 3.4l5.55 4.16 5.55-4.17c1.07-.81 1.7-2.07 1.7-3.4V5.46l-7.25-2.72 -2.74 1.02c-.39.14-.83-.06-.97-.44 -.15-.39.05-.83.43-.97l3-1.125Z"/><path d="M16.53 6.46c.29.29.29.76 0 1.06l-8 7.99c-.3.29-.77.29-1.07 0 -.3-.3-.3-.77 0-1.07l8-8.01c.29-.3.76-.3 1.06-.001Z"/><path d="M7.46 6.46c-.3.29-.3.76 0 1.06l8 7.99c.29.29.76.29 1.06 0 .29-.3.29-.77 0-1.07l-8-8.01c-.3-.3-.77-.3-1.07-.001Z"/></g></svg>