<svg viewBox="0 0 24 24" xmlns="http://www.w3.org/2000/svg"><g fill-rule="evenodd"><path d="M8.56 8.75c-.58 0-1.08.39-1.22.94l-1.01 4c-.2.78.39 1.55 1.21 1.55 .53 0 1.01-.35 1.18-.86l.54-1.64c.1-.31.38-.52.71-.52h4c.32 0 .6.2.71.51l.54 1.63c.17.5.64.85 1.18.85 .81 0 1.4-.77 1.21-1.56L16.6 9.64c-.14-.56-.64-.95-1.22-.95H8.5Zm-2.67.58c.3-1.23 1.4-2.09 2.66-2.09h6.87c1.26 0 2.36.85 2.66 2.08l1 4c.43 1.73-.88 3.41-2.67 3.41 -1.19 0-2.24-.76-2.61-1.88l-.38-1.13H10.5l-.38 1.12c-.38 1.12-1.43 1.87-2.61 1.87 -1.79 0-3.11-1.69-2.67-3.42l1-4.01Z"/><path d="M12 2.75c-5.11 0-9.25 4.14-9.25 9.25 0 5.1 4.14 9.25 9.25 9.25 5.1 0 9.25-4.15 9.25-9.25 0-.64-.07-1.26-.19-1.86 -.09-.41.17-.81.58-.89 .4-.09.8.17.88.58 .14.69.21 1.41.21 2.14 0 5.93-4.82 10.75-10.75 10.75 -5.94 0-10.75-4.82-10.75-10.75 0-5.94 4.81-10.75 10.75-10.75 3.51 0 6.63 1.68 8.59 4.29 .24.33.18.8-.15 1.05 -.34.24-.81.18-1.06-.15 -1.69-2.25-4.375-3.7-7.41-3.7Z"/><path d="M9.73 4.25C8.99 5.28 8.39 6.8 8.05 8.62c-.08.4-.47.67-.88.59 -.41-.08-.68-.47-.6-.88 .36-1.98 1.03-3.71 1.92-4.97 .88-1.26 2.07-2.15 3.49-2.15 1.41 0 2.6.89 3.49 2.14 .89 1.26 1.56 2.99 1.92 4.96 .07.4-.2.79-.6.87 -.41.07-.8-.2-.875-.6 -.35-1.83-.95-3.35-1.68-4.38 -.75-1.05-1.54-1.51-2.27-1.51 -.74 0-1.53.46-2.27 1.5Zm-2.48 11c.4-.09.8.16.89.57 .37 1.69.96 3.08 1.67 4.03 .71.95 1.47 1.37 2.17 1.37 .69 0 1.45-.43 2.17-1.38 .71-.95 1.3-2.34 1.67-4.04 .08-.41.48-.67.89-.58 .4.08.66.48.57.89 -.41 1.83-1.07 3.44-1.95 4.61 -.88 1.16-2.03 1.97-3.38 1.97 -1.36 0-2.51-.82-3.38-1.98 -.88-1.17-1.55-2.78-1.95-4.62 -.09-.41.16-.81.57-.9Z"/><path d="M1.25 12c0-.42.33-.75.75-.75h4c.41 0 .75.33.75.75 0 .41-.34.75-.75.75H2c-.42 0-.75-.34-.75-.75Zm16 0c0-.42.33-.75.75-.75h4c.41 0 .75.33.75.75 0 .41-.34.75-.75.75h-4c-.42 0-.75-.34-.75-.75Z"/></g></svg>