<svg viewBox="0 0 24 24" xmlns="http://www.w3.org/2000/svg"><g fill-rule="evenodd"><path d="M3.25 2c0-.42.33-.75.75-.75h6c.41 0 .75.33.75.75v2.25h2.5V2c0-.42.33-.75.75-.75h6c.41 0 .75.33.75.75v2.25H22c.41 0 .75.33.75.75v1c0 .41-.34.75-.75.75 -.42 0-.75-.34-.75-.75v-.25H20c-.42 0-.75-.34-.75-.75V2.75h-4.5V5c0 .41-.34.75-.75.75h-4c-.42 0-.75-.34-.75-.75V2.75h-4.5V5c0 .41-.34.75-.75.75H2.75v5.5H4c.41 0 .75.33.75.75v3.25H7c.41 0 .75.33.75.75v2.25H10c.41 0 .75.33.75.75v2.25h2.5V19c0-.42.33-.75.75-.75h2.25V16c0-.42.33-.75.75-.75h2.25V12c0-.42.33-.75.75-.75h1.25V10c0-.42.33-.75.75-.75 .41 0 .75.33.75.75v2c0 .41-.34.75-.75.75h-1.25V16c0 .41-.34.75-.75.75h-2.25V19c0 .41-.34.75-.75.75h-2.25V22c0 .41-.34.75-.75.75h-4c-.42 0-.75-.34-.75-.75v-2.25H7c-.42 0-.75-.34-.75-.75v-2.25H4c-.42 0-.75-.34-.75-.75v-3.25H2c-.42 0-.75-.34-.75-.75V5c0-.42.33-.75.75-.75h1.25V2Z"/><path d="M14.75 7c0-.42.33-.75.75-.75h3c.41 0 .75.33.75.75v3c0 .41-.34.75-.75.75 -.42 0-.75-.34-.75-.75V7.75H15.5c-.42 0-.75-.34-.75-.75Z"/></g></svg>