<svg viewBox="0 0 24 24" xmlns="http://www.w3.org/2000/svg"><g fill-rule="evenodd"><path d="M1.25 18c0-.42.33-.75.75-.75h20c.41 0 .75.33.75.75v4c0 .41-.34.75-.75.75H2c-.42 0-.75-.34-.75-.75v-4Zm1.5.75v2.5h18.5v-2.5H2.75Z"/><path d="M2.25 12c0-.42.33-.75.75-.75h6c.41 0 .75.33.75.75v6c0 .41-.34.75-.75.75H3c-.42 0-.75-.34-.75-.75v-6Zm1.5.75v4.5h4.5v-4.5h-4.5Z"/><path d="M14.25 6c0-.42.33-.75.75-.75h6c.41 0 .75.33.75.75v12c0 .41-.34.75-.75.75h-6c-.42 0-.75-.34-.75-.75v-6c0-.42.33-.75.75-.75 .41 0 .75.33.75.75v5.25h4.5V6.75h-4.5V8c0 .41-.34.75-.75.75 -.42 0-.75-.34-.75-.75V6Z"/><path d="M1.25 8c0-.42.33-.75.75-.75h8c.41 0 .75.33.75.75v4c0 .41-.34.75-.75.75H2c-.42 0-.75-.34-.75-.75V8Zm1.5.75v2.5h6.5v-2.5h-6.5Z"/><path d="M13.25 2c0-.42.33-.75.75-.75h8c.41 0 .75.33.75.75v4c0 .41-.34.75-.75.75h-8c-.42 0-.75-.34-.75-.75V2Zm1.5.75v2.5h6.5v-2.5h-6.5Z"/></g></svg>