<svg viewBox="0 0 24 24" xmlns="http://www.w3.org/2000/svg"><g fill-rule="evenodd"><path d="M9.42 7.01c.14-.18.35-.27.57-.27h5c.17 0 .35.06.48.18l3.28 2.81h3.22c.41 0 .75.33.75.75v6.5c0 .41-.34.75-.75.75h-3c-.42 0-.75-.34-.75-.75 0-.42.33-.75.75-.75h2.25v-5h-2.75c-.18 0-.36-.07-.49-.19l-3.29-2.82h-4.38l-2.28 2.73c-.12.13-.27.22-.45.25l-4.27.77c-.36.06-.62.37-.62.73v3.49h2.25c.41 0 .75.33.75.75 0 .41-.34.75-.75.75h-3c-.42 0-.75-.34-.75-.75v-4.25c0-1.09.77-2.02 1.84-2.22l4-.73 2.32-2.8Zm-2.18 9.98c0-.42.33-.75.75-.75h1.5c.41 0 .75.33.75.75 0 .41-.34.75-.75.75h-1.5c-.42 0-.75-.34-.75-.75Zm5.5 0c0-.42.33-.75.75-.75h2.5c.41 0 .75.33.75.75 0 .41-.34.75-.75.75h-2.5c-.42 0-.75-.34-.75-.75Z"/><path d="M6.5 14.25c-.7 0-1.25.55-1.25 1.25 0 .69.55 1.25 1.25 1.25 .69 0 1.25-.56 1.25-1.25 0-.7-.56-1.25-1.25-1.25ZM3.75 15.5c0-1.52 1.23-2.75 2.75-2.75 1.51 0 2.75 1.23 2.75 2.75 0 1.51-1.24 2.75-2.75 2.75 -1.52 0-2.75-1.24-2.75-2.75Z"/><path d="M17.5 14.25c-.7 0-1.25.55-1.25 1.25 0 .69.55 1.25 1.25 1.25 .69 0 1.25-.56 1.25-1.25 0-.7-.56-1.25-1.25-1.25Zm-2.75 1.25c0-1.52 1.23-2.75 2.75-2.75 1.51 0 2.75 1.23 2.75 2.75 0 1.51-1.24 2.75-2.75 2.75 -1.52 0-2.75-1.24-2.75-2.75Z"/><path d="M17.25 6.5c0-.42.33-.75.75-.75h4c.41 0 .75.33.75.75 0 .41-.34.75-.75.75h-4c-.42 0-.75-.34-.75-.75Z"/><path d="M20.68 5.77c.4.1.64.5.54.9l-1 4c-.11.4-.51.64-.91.54 -.41-.11-.65-.51-.55-.91l1-4.01c.1-.41.5-.65.9-.55Z"/></g></svg>