<svg viewBox="0 0 24 24" xmlns="http://www.w3.org/2000/svg"><g fill-rule="evenodd"><path d="M3.46 6.46c.14-.15.33-.22.53-.22h3c.41 0 .75.33.75.75v.66l2.15-.24c1.22-.14 2.39.56 2.85 1.71l.24.61h.37l1.38-.47c.39-.14.81.08.94.47 .13.39-.09.81-.48.94l-1.5.5c-.08.02-.16.03-.24.03h-1c-.31 0-.59-.19-.7-.48l-.44-1.09c-.21-.53-.75-.85-1.3-.78l-2.99.33c-.22.02-.43-.05-.59-.19 -.16-.15-.25-.35-.25-.56v-.75H4.24l-1.4 1.39 .57 1.14 4.58.45c.2.02.39.12.51.28l1.74 2.25c.15.19.19.45.11.69l-.43 1.26h3.91l.82-2.49c.05-.18.18-.33.34-.42l4.26-2.38 .3-.76 -.47.15c-.4.13-.82-.09-.95-.48 -.14-.4.08-.82.47-.95l2-.67c.27-.1.58-.02.78.19 .2.21.25.52.15.79l-1 2.49c-.07.16-.19.29-.34.37l-4.25 2.35 -.91 2.72c-.11.3-.39.51-.72.51h-5.5c-.25 0-.47-.12-.61-.32 -.15-.2-.18-.45-.11-.68l.62-1.87 -1.31-1.68 -4.69-.47c-.26-.03-.49-.19-.6-.42l-1-2c-.15-.29-.09-.64.14-.87l2-2Z"/><path d="M4.5 14.25c-.97 0-1.75.78-1.75 1.75 0 .96.78 1.75 1.75 1.75 .96 0 1.75-.79 1.75-1.75 0-.97-.79-1.75-1.75-1.75ZM1.25 16c0-1.8 1.45-3.25 3.25-3.25 1.79 0 3.25 1.45 3.25 3.25 0 1.79-1.46 3.25-3.25 3.25 -1.8 0-3.25-1.46-3.25-3.25Z"/><path d="M19.5 14.25c-.97 0-1.75.78-1.75 1.75 0 .96.78 1.75 1.75 1.75 .96 0 1.75-.79 1.75-1.75 0-.97-.79-1.75-1.75-1.75ZM16.25 16c0-1.8 1.45-3.25 3.25-3.25 1.79 0 3.25 1.45 3.25 3.25 0 1.79-1.46 3.25-3.25 3.25 -1.8 0-3.25-1.46-3.25-3.25Z"/><path d="M7.53 3.46c.29.29.29.76 0 1.06l-3 3c-.3.29-.77.29-1.07 0 -.3-.3-.3-.77 0-1.07l3-3c.29-.3.76-.3 1.06 0Z"/></g></svg>