<svg viewBox="0 0 24 24" xmlns="http://www.w3.org/2000/svg"><g fill-rule="evenodd"><path d="M4 2.75c-.7 0-1.25.55-1.25 1.25v16c0 .69.55 1.25 1.25 1.25h16c.69 0 1.25-.56 1.25-1.25V4c0-.7-.56-1.25-1.25-1.25h-3.5c-.42 0-.75-.34-.75-.75 0-.42.33-.75.75-.75H20c1.51 0 2.75 1.23 2.75 2.75v16c0 1.51-1.24 2.75-2.75 2.75H4c-1.52 0-2.75-1.24-2.75-2.75V4c0-1.52 1.23-2.75 2.75-2.75h8c.41 0 .75.33.75.75 0 .41-.34.75-.75.75H4Z"/><path d="M10.5 4.25c.29 0 .55.17.68.43l5.5 12c.17.37 0 .82-.37.99 -.38.17-.83 0-1-.37L10.49 6.78 5.67 17.29c-.18.37-.62.54-1 .36 -.38-.18-.55-.62-.37-1l5.5-12c.12-.27.38-.44.68-.44Z"/><path d="M6.25 13c0-.42.33-.75.75-.75h7c.41 0 .75.33.75.75 0 .41-.34.75-.75.75H7c-.42 0-.75-.34-.75-.75Z"/><path d="M19 15.75c.41 0 .75.33.75.75v3c0 .41-.34.75-.75.75 -.42 0-.75-.34-.75-.75v-3c0-.42.33-.75.75-.75Z"/></g></svg>