<svg viewBox="0 0 24 24" xmlns="http://www.w3.org/2000/svg"><g fill-rule="evenodd"><path d="M11.73 1.29c.16-.07.35-.07.52 0l3 1.12c.38.14.58.57.43.96 -.15.38-.58.58-.97.43l-2.74-1.03 -7.25 2.71v7.98c0 1.33.62 2.59 1.7 3.4l5.55 4.16 5.55-4.17c1.07-.81 1.7-2.07 1.7-3.4V5.46l-1.02-.38c-.39-.15-.59-.58-.44-.97 .14-.39.57-.59.96-.44l1.5.56c.29.1.48.38.48.7v8.5c0 1.8-.86 3.51-2.3 4.6l-6 4.5c-.27.2-.64.2-.9 0l-6-4.5c-1.45-1.09-2.3-2.8-2.3-4.6v-8.5c0-.32.19-.6.48-.71l8-3Z"/><path d="M11.3 4.72c.15-.39.58-.58.97-.43l5 1.95c.28.11.47.38.47.69v3.15c0 .41-.34.75-.75.75 -.42 0-.75-.34-.75-.75V7.44l-4.53-1.77c-.39-.16-.58-.59-.43-.98Z"/></g></svg>