<svg viewBox="0 0 24 24" xmlns="http://www.w3.org/2000/svg"><g fill-rule="evenodd"><path d="M6.53 17.46c.29.29.29.76 0 1.06l-4 4c-.3.29-.77.29-1.07 0 -.3-.3-.3-.77 0-1.07l4-4c.29-.3.76-.3 1.06 0Z"/><path d="M2.46 14.46c.29-.3.76-.3 1.06 0l6 6c.29.29.29.76 0 1.06 -.3.29-.77.29-1.07 0l-6-6c-.3-.3-.3-.77 0-1.07Z"/><path d="M18.46 1.46c.14-.15.33-.22.53-.22h3c.41 0 .75.33.75.75v3c0 .19-.08.38-.22.53l-6.5 6.49c-.3.29-.77.29-1.07 0 -.3-.3-.3-.77 0-1.07l6.28-6.29V2.71h-1.94L5.54 16.46l1.93 1.93 3.46-3.47c.29-.3.76-.3 1.06 0 .29.29.29.76 0 1.06l-4 4c-.3.29-.77.29-1.07 0l-3-3c-.3-.3-.3-.77 0-1.07l14.5-14.5Z"/><path d="M17.46 14.46c.29-.3.76-.3 1.06 0l3 3c.29.29.29.76 0 1.06 -.3.29-.77.29-1.07 0l-2.47-2.47 -2.47 2.46c-.3.29-.77.29-1.07 0 -.3-.3-.3-.77 0-1.07l3-3Z"/><path d="M18 14.25c.41 0 .75.33.75.75v6c0 .41-.34.75-.75.75 -.42 0-.75-.34-.75-.75v-6c0-.42.33-.75.75-.75Z"/><path d="M1.25 3c0-.42.33-.75.75-.75h16c.41 0 .75.33.75.75 0 .41-.34.75-.75.75H2c-.42 0-.75-.34-.75-.75Z"/><path d="M4.25 7c0-.42.33-.75.75-.75h9c.41 0 .75.33.75.75 0 .41-.34.75-.75.75H5c-.42 0-.75-.34-.75-.75Z"/><path d="M2.25 11c0-.42.33-.75.75-.75h7c.41 0 .75.33.75.75 0 .41-.34.75-.75.75H3c-.42 0-.75-.34-.75-.75Z"/></g></svg>