<svg viewBox="0 0 24 24" xmlns="http://www.w3.org/2000/svg"><g fill-rule="evenodd"><path d="M7.57 5.38c.2-.15.46-.18.69-.09l3.73 1.4 3.73-1.41c.23-.09.48-.06.69.08 .2.14.32.37.32.61v3.28c0 1.73-.77 3.37-2.1 4.48 -1.54 1.27-3.77 1.27-5.31 0 -1.34-1.11-2.1-2.76-2.1-4.49V5.95c0-.25.12-.48.32-.62Zm1.17 1.69v2.2c0 1.28.57 2.5 1.55 3.33 .97.81 2.4.81 3.38 0 .98-.83 1.55-2.05 1.55-3.34V7.05l-2.99 1.12c-.17.06-.36.06-.53 0L8.71 7.05Z"/><path d="M7.57 5.38c.2-.15.46-.18.69-.09l3.73 1.4 3.73-1.41c.23-.09.48-.06.69.08 .2.14.32.37.32.61v9.66c0 .22-.1.43-.27.57l-4 3.33c-.28.23-.69.23-.97 0l-4.01-3.34c-.18-.15-.27-.36-.27-.58V5.94c0-.25.12-.48.32-.62Zm1.17 1.69v8.23l3.25 2.7 3.25-2.71V7.05l-2.99 1.12c-.17.06-.36.06-.53 0L8.73 7.05Z"/><path d="M4.44 7.21c-.13-3.26 2.48-5.97 5.74-5.97h3.62c3.25 0 5.86 2.7 5.746 5.96l-.31 8.14 1.43 3.34c.08.18.08.4 0 .58 -.09.18-.24.33-.43.4l-8 3c-.17.06-.36.06-.53 0l-8.01-3c-.2-.08-.35-.22-.43-.41 -.09-.19-.09-.41 0-.59l1.5-3.5c.16-.39.6-.56.98-.4 .38.16.55.6.39.98l-1.2 2.77 7 2.62 7-2.63 -1.2-2.78c-.05-.11-.07-.22-.07-.33l.3-8.32c.08-2.41-1.84-4.41-4.25-4.41h-3.63c-2.41 0-4.34 2-4.25 4.4l.14 3.81c.01.41-.31.76-.73.77 -.42.01-.77-.31-.78-.73l-.15-3.82Z"/></g></svg>