<svg viewBox="0 0 24 24" xmlns="http://www.w3.org/2000/svg"><g fill-rule="evenodd"><path d="M1.25 2c0-.42.33-.75.75-.75h20c.41 0 .75.33.75.75v20c0 .41-.34.75-.75.75H9c-.42 0-.75-.34-.75-.75 0-.42.33-.75.75-.75h12.25V2.75H2.75v18.5H5c.41 0 .75.33.75.75 0 .41-.34.75-.75.75H2c-.42 0-.75-.34-.75-.75V2Z"/><path d="M4.46 4.46c.29-.3.76-.3 1.06 0l4 4c.29.29.29.76 0 1.06 -.3.29-.77.29-1.07 0l-4-4c-.3-.3-.3-.77 0-1.07Z"/><path d="M9.53 4.46c-.3-.3-.77-.3-1.07 0l-4 4c-.3.29-.3.76 0 1.06 .29.29.76.29 1.06 0l4-4c.29-.3.29-.77 0-1.07Z"/><path d="M14.46 14.46c.29-.3.76-.3 1.06 0l4 4c.29.29.29.76 0 1.06 -.3.29-.77.29-1.07 0l-4-4c-.3-.3-.3-.77 0-1.07Z"/><path d="M19.53 14.46c-.3-.3-.77-.3-1.07 0l-4 4c-.3.29-.3.76 0 1.06 .29.29.76.29 1.06 0l4-4c.29-.3.29-.77 0-1.07Z"/><path d="M17.5 5.75c-.42 0-.75.33-.75.75 0 .41.33.75.75.75 .41 0 .75-.34.75-.75 0-.42-.34-.75-.75-.75Zm-2.25.75c0-1.25 1-2.25 2.25-2.25 1.24 0 2.25 1 2.25 2.25 0 1.24-1.01 2.25-2.25 2.25 -1.25 0-2.25-1.01-2.25-2.25Z"/><path d="M10.75 9c0-.42.33-.75.75-.75h3c.41 0 .75.33.75.75v3c0 .41-.34.75-.75.75 -.42 0-.75-.34-.75-.75V9.75H11.5c-.42 0-.75-.34-.75-.75Z"/><path d="M15.03 8.46c.29.29.29.76 0 1.06l-4.42 4.41c-.24.23-.37.55-.37.88v2.17c0 1.51-1.24 2.75-2.75 2.75h-2.5c-.42 0-.75-.34-.75-.75 0-.42.33-.75.75-.75h2.5c.69 0 1.25-.56 1.25-1.25V14.8c0-.73.28-1.43.8-1.95l4.41-4.42c.29-.3.76-.3 1.06 0Z"/></g></svg>