<svg viewBox="0 0 24 24" xmlns="http://www.w3.org/2000/svg"><g fill-rule="evenodd"><path d="M13.26 1.29c.38.14.58.57.43.96l-3 7.99c-.1.26-.34.44-.62.48 -.28.03-.56-.1-.71-.33L8.3 8.8l-.23.9c-.58 2.29 1.16 4.51 3.52 4.51 2.55 0 4.3-2.56 3.39-4.94l-.79-2.05c-.15-.39.04-.83.43-.97 .38-.15.82.04.96.43l.78 2.04c1.29 3.36-1.189 6.97-4.8 6.97 -3.35 0-5.8-3.14-4.99-6.39l.63-2.56c.07-.29.3-.51.59-.56 .29-.06.58.07.75.32l1.18 1.78 2.48-6.63c.14-.39.57-.59.96-.44Z"/><path d="M19.7 16.74c.13.39-.07.81-.46.95l-14 5c-.4.13-.82-.07-.96-.46s.06-.82.45-.96l14-5c.39-.14.81.06.95.45Z"/><path d="M4.29 16.74c-.14.39.06.81.45.95l14 5c.39.13.81-.07.95-.46 .13-.39-.07-.82-.46-.96l-14-5c-.4-.14-.82.06-.96.45Z"/></g></svg>