<svg viewBox="0 0 24 24" xmlns="http://www.w3.org/2000/svg"><g fill-rule="evenodd"><path d="M11.61 6.57c-1.17-.58-2.5-.73-3.76-.41 -2.86.7-4.87 3.26-4.87 6.21v.6c0 3.48 1.64 6.76 4.44 8.83l.67.5c.9.67 2.1.77 3.11.27l.82-.41c.29-.15.63-.14.91.01l.8.43c1.03.56 2.31.46 3.25-.26l.74-.58c1.3-1.01 2.35-2.27 3.09-3.7 .15-.3.14-.64-.01-.93 -.16-.29-.44-.49-.77-.53 -1.62-.2-2.89-1.6-2.89-3.33 0-1.72 1.25-3.11 2.85-3.32 .35-.05.66-.29.79-.62 .13-.34.08-.72-.15-1 -.86-1.09-2.07-1.91-3.5-2.26 -1.27-.32-2.6-.17-3.76.4l-.94.46 -.94-.47Z"/><path d="M14 1c-1.66 0-3 1.34-3 3v1c0 .55.44 1 1 1h1c1.65 0 3-1.35 3-3V2c0-.56-.45-1-1-1h-1Z"/></g></svg>