<svg viewBox="0 0 24 24" xmlns="http://www.w3.org/2000/svg"><path fill-rule="evenodd" d="M6.34 3.18C6.49 1.92 7.55.99 8.82.99h2.9c1.54 0 2.72 1.38 2.46 2.91l-1.02 6.089h3.56c2.56 0 4.46 2.38 3.9 4.88l-1.14 5c-.42 1.82-2.04 3.11-3.91 3.11H8.36c-2.41 0-4.27-2.11-3.97-4.5L6.3 3.16Zm3.15 10.31c-.38 0-.73.21-.9.55 -.17.33-.14.74.09 1.04l1.3 1.73v2.16c0 .4.24.76.61.92 .37.15.8.06 1.08-.22l4.5-4.5c.28-.29.37-.72.21-1.09 -.16-.38-.52-.62-.93-.62h-6Zm2.3 2.4l-.3-.4h1.58l-1.09 1.08v-.09c0-.22-.08-.43-.2-.6Z"/></svg>