<svg viewBox="0 0 24 24" xmlns="http://www.w3.org/2000/svg"><g fill-rule="evenodd"><path d="M9.02 10.2c-2.15-1.27-4.82.48-4.5 2.96l.41 3.25c.07.61.38 1.18.85 1.58l5.55 4.74c.37.31.92.31 1.29 0l5.55-4.75c.47-.41.77-.97.85-1.59l.41-3.26c.31-2.48-2.36-4.23-4.5-2.97l-2.98 1.75 -2.98-1.76Z"/><path d="M12 8c-1.05 0-1.5.64-1.5 1h-2c0-1.86 1.78-3 3.5-3 1.71 0 3.5 1.14 3.5 3h-2c0-.36-.46-1-1.5-1Z"/><path d="M12 5.5c-2.43 0-4 1.53-4 3H6c0-2.96 2.9-5 6-5 3.09 0 6 2.04 6 5h-2c0-1.47-1.58-3-4-3Z"/><path d="M12 3C8.19 3 5.5 5.43 5.5 8h-2c0-4.07 4.02-7 8.5-7 4.47 0 8.5 2.93 8.5 7h-2c0-2.57-2.7-5-6.5-5Z"/></g></svg>