<svg viewBox="0 0 24 24" xmlns="http://www.w3.org/2000/svg"><g fill-rule="evenodd"><path d="M12.76 4c.82 0 1.54.48 1.88 1.17 .3-.18.66-.28 1.03-.28 1.26 0 2.24 1.12 2.06 2.37l-.61 4.34c.73-.57 1.78-.6 2.54-.01 .95.73 1.08 2.13.28 3.04l-4.06 4.54c-.16.17-.36.28-.58.31 -.47.29-1.02.46-1.61.46H11.27c-3.04 0-5.5-2.47-5.5-5.5v-2.23l-.33-3.7c-.12-1.26.87-2.33 2.12-2.33 .2 0 .39.02.57.07 .27-.83 1.05-1.44 1.98-1.44 .26 0 .51.04.74.13 .36-.63 1.03-1.05 1.81-1.05Z"/><path d="M19.5 8c0 .4-.19.85-.64 1.22l1.27 1.54c.87-.73 1.36-1.73 1.36-2.78 0-1.05-.49-2.05-1.37-2.78l-1.28 1.54c.45.37.63.82.63 1.22Z"/><path d="M4.5 8.5c0 .4.18.85.63 1.22l-1.28 1.54c-.88-.73-1.37-1.73-1.37-2.78 0-1.05.48-2.05 1.36-2.78l1.27 1.54c-.46.37-.64.82-.64 1.22Z"/></g></svg>