<svg viewBox="0 0 24 24" xmlns="http://www.w3.org/2000/svg"><path fill-rule="evenodd" d="M15.65 1.62c-.43 1.99-1.53 3.77-3.08 5.05 -1.11-1.81-2.24-3.4-3.32-4.65 -.17-.19-.33-.38-.49-.55 .42-.14.86-.24 1.31-.32C12 .8 13.9.99 15.63 1.6Zm1.85.85c-.61 2.36-2 4.46-3.92 5.95 .52.94 1.03 1.93 1.51 2.95 .32-.09.64-.17.98-.22 2.44-.44 4.85-.02 6.9 1.03 .01-.7-.05-1.41-.17-2.12 -.59-3.33-2.62-6.05-5.33-7.62Zm5.24 11.87c-1.82-1.13-4.04-1.62-6.31-1.22 -.17.02-.34.06-.5.1 1.05 2.46 1.94 5.06 2.54 7.644 2.15-1.58 3.68-3.91 4.25-6.53Zm-6.07 7.6c-.58-2.71-1.51-5.46-2.63-8.05 -3.24 1.57-5.29 4.99-5.04 8.68 1.54.43 3.2.53 4.89.24 .98-.18 1.91-.48 2.77-.88Zm-9.69-.16c.07-4.17 2.51-7.93 6.22-9.72 -.43-.89-.87-1.76-1.33-2.58 -.97.49-2.02.86-3.15 1.05 -2.66.46-5.26-.06-7.42-1.31 -.39 1.47-.46 3.05-.18 4.64 .623 3.53 2.86 6.37 5.83 7.88ZM2.01 7.32c1.82 1.15 4.07 1.66 6.37 1.25 .88-.16 1.72-.44 2.48-.83C9.8 6 8.72 4.48 7.7 3.3c-.33-.39-.65-.73-.96-1.03C4.63 3.4 2.97 5.18 1.98 7.3Z"/></svg>