<svg viewBox="0 0 24 24" xmlns="http://www.w3.org/2000/svg"><g fill-rule="evenodd"><path d="M1 8.5c0-.56.44-1 1-1h20c.55 0 1 .44 1 1v13c0 .55-.45 1-1 1H2c-.56 0-1-.45-1-1v-13Zm2 1v11h18v-11H3Z"/><path d="M2 7.5c-.45 0-.84.29-.96.71 -.13.42.04.88.41 1.12l10 6.49c.33.21.75.21 1.09 0l10-6.5c.37-.25.53-.7.41-1.13 -.13-.43-.52-.72-.96-.72h-20Z"/><path d="M1.04 8.78c.12.42.51.71.95.71h20c.44 0 .83-.3.95-.72 .12-.43-.05-.89-.42-1.13l-10-6.5c-.34-.22-.76-.22-1.09 0l-10 6.5c-.38.24-.54.69-.42 1.12Zm4.33-1.29l6.62-4.31 6.62 4.3H5.35Z"/></g></svg>