<svg viewBox="0 0 24 24" xmlns="http://www.w3.org/2000/svg"><path fill-rule="evenodd" d="M12 1C5.92 1 1 5.92 1 12c0 6.07 4.92 11 11 11 6.07 0 11-4.93 11-11 0-6.08-4.93-11-11-11Zm2.03 4.52c-1.3.47-1.97 1.9-1.5 3.2 .47 1.29 1.9 1.96 3.2 1.49 1.29-.48 1.96-1.91 1.49-3.21 -.48-1.3-1.91-1.97-3.21-1.5Zm-9.02 5.94c-.48-1.3.19-2.74 1.49-3.21 1.29-.48 2.73.19 3.2 1.49 .47 1.29-.2 2.73-1.5 3.2 -1.3.47-2.74-.2-3.21-1.5Zm9.01 5.76c-1.93.7-3.79-.17-4.32-1.63l-1.88.68c.98 2.69 4.13 3.81 6.87 2.81s4.43-3.89 3.45-6.58l-1.88.68c.52 1.45-.34 3.31-2.27 4.01Z"/></svg>