<svg viewBox="0 0 24 24" xmlns="http://www.w3.org/2000/svg"><path fill-rule="evenodd" d="M6 2.5c-2.77 0-5 2.23-5 5 0 1.51.67 2.87 1.73 3.78 -.48.98-.74 2.07-.74 3.21 0 4.85 4.65 8.5 10 8.5 5.34 0 10-3.65 10-8.5 0-1.15-.27-2.23-.74-3.22 1.06-.92 1.73-2.28 1.73-3.79 0-2.77-2.24-5-5-5 -2.27 0-4.18 1.5-4.79 3.56 -.4-.05-.81-.07-1.22-.07 -.41 0-.82.02-1.22.06 -.62-2.07-2.53-3.57-4.79-3.57Zm-2.5 5C3.5 6.11 4.61 5 6 5c1.38 0 2.5 1.11 2.5 2.5C8.5 8.88 7.38 10 6 10c-1.39 0-2.5-1.12-2.5-2.5ZM18 5c-1.39 0-2.5 1.11-2.5 2.5 0 1.38 1.11 2.5 2.5 2.5 1.38 0 2.5-1.12 2.5-2.5C20.5 6.11 19.38 5 18 5Zm-6 11c-.83 0-1.53-.2-1.98-.46 -.49-.28-.53-.51-.53-.55h-2c0 1.06.74 1.83 1.52 2.28 .81.46 1.86.71 2.97.71 1.1 0 2.16-.26 2.971-.72 .78-.45 1.529-1.22 1.529-2.29h-2c0 .03-.04.26-.53.54 -.46.26-1.154.45-1.98.45Z"/></svg>