<svg viewBox="0 0 24 24" xmlns="http://www.w3.org/2000/svg"><path fill-rule="evenodd" d="M1 12C1 5.92 5.92 1 12 1c6.07 0 11 4.92 11 11 0 6.07-4.93 11-11 11 -.53 0-1.04-.04-1.54-.11 -.29-.05-.55-.21-.7-.45 -.16-.25-.21-.55-.13-.82l1.49-5.24c.27-.95-.45-1.89-1.43-1.89 -.62 0-1.17.37-1.39.95l-1.76 4.61c-.12.3-.37.52-.68.61 -.32.08-.65 0-.9-.2 -2.44-2.02-4-5.07-4-8.49Zm8.26-3.76c-.28-1.62.63-3.23 2.22-3.92 1.89-.82 4.19-.09 5.12 1.76 .95 1.89.03 4.09-1.9 4.92l-1.5.64c-.93.39-1.98.44-2.93.11 -.96-.33-1.76-.99-2.21-1.89 -.13-.25-.15-.54-.05-.8 .09-.26.29-.47.54-.58l.66-.29Z"/></svg>