<svg viewBox="0 0 24 24" xmlns="http://www.w3.org/2000/svg"><g fill-rule="evenodd"><path d="M19 11.5c1.65 0 3 1.34 3 3v5c0 1.65-1.35 3-3 3h-8c-1.66 0-3-1.35-3-3v-5c0-1.66 1.34-3 3-3h8Z"/><path d="M2 13.8c0-1.12 1.17-1.85 2.17-1.35l5.27 2.63c.33.16.55.51.55.89v2c0 .37-.22.72-.56.89l-5.28 2.63c-1 .49-2.18-.23-2.18-1.35V13.75Z"/><path d="M10.5 1c-2.77 0-5 2.23-5 5 0 2.76 2.23 5 5 5 1.48 0 2.82-.65 3.74-1.69 .72 1.01 1.91 1.68 3.25 1.68 2.2 0 4-1.8 4-4 0-2.21-1.8-4-4-4 -.94 0-1.8.32-2.48.86 -.81-1.7-2.53-2.87-4.53-2.87Z"/></g></svg>