<svg viewBox="0 0 24 24" xmlns="http://www.w3.org/2000/svg"><g fill-rule="evenodd"><path d="M4 1C2.34 1 1 2.34 1 4c0 1.65 1.34 3 3 3 1.65 0 3-1.35 3-3 0-1.66-1.35-3-3-3Z"/><path d="M2 8c-.56 0-1 .44-1 1v13c0 .55.44 1 1 1h4c.55 0 1-.45 1-1V9c0-.56-.45-1-1-1H2Z"/><path d="M9 8c-.56 0-1 .44-1 1v13c0 .55.44 1 1 1h4c.55 0 1-.45 1-1v-6c0-.83.67-1.5 1.5-1.5 .82 0 1.5.67 1.5 1.5v6c0 .55.44 1 1 1h4c.55 0 1-.45 1-1v-8.5c0-3.04-2.47-5.5-5.5-5.5h-.24c-1.06 0-2.08.37-2.89 1.04l-.39.31 -.01-.38c-.01-.55-.46-1-1-1h-4Z"/></g></svg>