<svg viewBox="0 0 24 24" xmlns="http://www.w3.org/2000/svg"><g fill-rule="evenodd"><path d="M22 7.2c0-1.34-1.62-2.01-2.57-1.07l-3.15 3.14c-.19.18-.3.44-.3.7v4c0 .26.1.51.29.7l3.14 3.14c.94.94 2.56.27 2.56-1.07V7.15Z"/><path d="M2 8c0-1.66 1.34-3 3-3h10c1.65 0 3 1.34 3 3v8c0 1.65-1.35 3-3 3H5c-1.66 0-3-1.35-3-3V8Zm2.79 4.7l.7-.71c-.71.7-.71.7-.71.7l0 0 0 0 0 0 0 0 .02.02c.02.02.05.05.09.08 .07.07.19.18.33.3 .28.25.68.58 1.15.92 .88.63 2.23 1.43 3.58 1.43 1.34 0 2.69-.81 3.58-1.44 .47-.34.87-.68 1.15-.93 .14-.13.25-.24.33-.31 .03-.04.07-.07.09-.09l.02-.03 0-.01 0-.01 0-.01 0-.01c0-.01 0-.01-.71-.71l.7.7c.39-.4.39-1.03 0-1.42l-.71.7c.7-.71.7-.71.7-.71l-.01-.01 -.01-.01 -.01-.01 -.01-.01 -.03-.03c-.03-.03-.06-.06-.1-.09 -.08-.08-.2-.19-.34-.31 -.29-.26-.69-.59-1.16-.93 -.89-.64-2.24-1.44-3.59-1.44 -1.35 0-2.7.8-3.59 1.43 -.48.33-.88.67-1.16.92 -.15.12-.26.23-.34.3 -.04.03-.08.06-.1.08l-.03.02 -.01 0 -.01 0 -.01 0 -.01 0c-.01 0-.01 0 .7.7l-.71-.71c-.4.39-.4 1.02 0 1.41Zm2.78-.28c-.21-.15-.41-.3-.58-.44 .17-.14.36-.29.57-.44 .86-.62 1.76-1.07 2.41-1.07 .65 0 1.55.44 2.41 1.06 .2.14.4.29.57.43 -.18.13-.37.28-.58.43 -.87.61-1.77 1.06-2.42 1.06 -.66 0-1.56-.45-2.42-1.07Z"/></g></svg>