<svg viewBox="0 0 24 24" xmlns="http://www.w3.org/2000/svg"><g fill-rule="evenodd"><path d="M8.5 5.5c0-1.66 1.34-3 3-3 1.65 0 3 1.34 3 3 0 1.65-1.35 3-3 3 -1.66 0-3-1.35-3-3Zm0 0C8.5 6.88 7.38 8 6 8 4.61 8 3.5 6.88 3.5 5.5 3.5 4.11 4.61 3 6 3c1.38 0 2.5 1.11 2.5 2.5Zm6 .5c0-1.94 1.56-3.5 3.5-3.5 1.93 0 3.5 1.56 3.5 3.5 0 1.93-1.57 3.5-3.5 3.5 -1.94 0-3.5-1.57-3.5-3.5Z"/><path d="M2 12.5c0-2.21 1.79-4 4-4 1.31 0 2.49.63 3.21 1.625C9.92 9.425 10.91 9 11.99 9c1.31 0 2.49.63 3.21 1.625 .71-.7 1.7-1.125 2.78-1.125 2.2 0 4 1.79 4 4v7c0 .55-.45 1-1 1h-6c-.56 0-1-.45-1-1V19h-5c-.56 0-1-.45-1-1v-1.5h-5c-.56 0-1-.45-1-1v-3Z"/></g></svg>