<svg viewBox="0 0 24 24" xmlns="http://www.w3.org/2000/svg"><g fill-rule="evenodd"><path d="M6 2c-.48 0-.89.33-.99.8l-3 15c-.06.29.01.59.2.83 .18.23.47.36.77.36h5c.45 0 .85-.32.97-.76l1.31-5.25h3.31c1.87 0 3.49-1.31 3.9-3.14l.66-3c.55-2.5-1.35-4.87-3.91-4.87H5.95Z"/><path d="M17.26 7h-.27V5h.26c2.55 0 4.45 2.36 3.9 4.86l-.67 2.99c-.41 1.83-2.03 3.13-3.91 3.13h-3.32l-1.32 5.24c-.12.44-.52.75-.98.75h-5c-.3 0-.59-.14-.78-.37 -.19-.24-.266-.54-.21-.84l.6-3 1.96.39 -.37 1.8h2.99l1.31-5.25c.11-.45.51-.76.97-.76h4.09c.93 0 1.74-.66 1.95-1.57l.66-3.01c.27-1.25-.68-2.44-1.96-2.44Z"/></g></svg>