<svg viewBox="0 0 24 24" xmlns="http://www.w3.org/2000/svg"><g fill-rule="evenodd"><path d="M8.21 10.12c1.18-1.28 3.48-3.13 6.78-3.13 3.3 0 5.59 1.85 6.78 3.12 .99 1.06.99 2.68 0 3.74 -1.19 1.27-3.49 3.12-6.79 3.12 -3.31 0-5.6-1.86-6.79-3.13 -1-1.07-1-2.69 0-3.75Zm6.28 1.87c0-1.39 1.11-2.5 2.5-2.5 1.38 0 2.5 1.11 2.5 2.5 0 1.38-1.12 2.5-2.5 2.5 -1.39 0-2.5-1.12-2.5-2.5Z"/><path d="M2.58 7.19c-.36-.26-.85-.26-1.2.01 -.36.26-.49.73-.34 1.14l1.3 3.47c.04.11.04.23 0 .35l-1.31 3.47c-.16.41-.03.87.33 1.14 .35.26.83.27 1.19.01l3.27-2.39c1.64-1.2 1.64-3.66 0-4.86L2.54 7.14Z"/><path d="M13.83 4.44l2 3 -1.67 1.1 -2-3 1.66-1.11Z"/></g></svg>