<svg viewBox="0 0 24 24" xmlns="http://www.w3.org/2000/svg"><path fill-rule="evenodd" d="M12.46 1.11c-.3-.16-.64-.16-.93 0l-9 4.7c-.33.17-.54.51-.54.88v10.58c0 .37.2.71.53.88l3.8 1.99c.24.13.54.14.8.05 .26-.1.47-.31.58-.57l2.96-7.29c.12-.31.08-.66-.1-.94 -.19-.28-.5-.45-.83-.45H7.95c-.56 0-1-.45-1-1 0-.56.44-1 1-1h13c.55 0 1-.45 1-1v-1.3c0-.38-.21-.72-.54-.89l-9-4.71Zm1.31 9.88c-.41 0-.78.24-.93.62l-3.68 9.01c-.2.47 0 1.02.46 1.26l1.89.98c.29.15.63.15.92 0l9-4.71c.32-.18.53-.52.53-.89v-5.3c0-.56-.45-1-1-1h-7.23Z"/></svg>