<svg viewBox="0 0 24 24" xmlns="http://www.w3.org/2000/svg"><g fill="#9545ED" fill-rule="evenodd"><path d="M19.59 5.93c-.59-.59-1.54-.59-2.13 0l-1.42-1.42c1.36-1.37 3.58-1.37 4.94 0l-1.42 1.41Z"/><path d="M21.364 4.17c-1.57-1.57-4.1-1.57-5.66 0l-1.42-1.42c2.34-2.35 6.14-2.35 8.48 0l-1.42 1.41Z"/><path d="M17.53 8V7h2v1h-2Z"/><g fill="#3747D6"><path d="M1 9c0-.56.44-1 1-1h13c.55 0 1 .44 1 1v13c0 .55-.45 1-1 1H2c-.56 0-1-.45-1-1V9Zm2 1v11h11V10H3Z"/><path d="M8.5 12.5c-1.66 0-3 1.34-3 3 0 1.65 1.34 3 3 3 1.65 0 3-1.35 3-3 0-1.66-1.35-3-3-3Zm-5 3c0-2.77 2.23-5 5-5 2.76 0 5 2.23 5 5 0 2.76-2.24 5-5 5 -2.77 0-5-2.24-5-5Z"/></g></g></svg>