<svg viewBox="0 0 24 24" xmlns="http://www.w3.org/2000/svg"><g fill="#9545ED" fill-rule="evenodd"><path d="M4.16 19.44l2-3 1.66 1.1 -2 3 -1.67-1.11Z"/><path d="M18.168 20.55l-2-3 1.66-1.11 2 3 -1.67 1.1Z"/><path d="M13.09 11.93c-.59-.59-1.54-.59-2.13 0l-1.42-1.42c1.36-1.37 3.58-1.37 4.94 0l-1.42 1.41Z"/><path d="M14.864 10.17c-1.57-1.57-4.1-1.57-5.66 0L7.78 8.75c2.34-2.35 6.14-2.35 8.48 0l-1.42 1.41Z"/><path d="M11.03 14v-1h2v1h-2Z"/><path fill="#3747D6" d="M1 4c0-.56.44-1 1-1h20c.55 0 1 .44 1 1v13c0 .55-.45 1-1 1H2c-.56 0-1-.45-1-1V4Zm2 1v11h18V5H3Z"/></g></svg>