<svg viewBox="0 0 24 24" xmlns="http://www.w3.org/2000/svg"><g fill="#3747D6" fill-rule="evenodd"><path d="M5.5 8c0-.56.44-1 1-1h6c.55 0 1 .44 1 1v3.37c1.52 1.18 2.5 3.04 2.5 5.12 0 3.58-2.92 6.5-6.5 6.5 -3.59 0-6.5-2.92-6.5-6.5 0-2.09.97-3.94 2.5-5.13V7.98Zm2 1v2.88c0 .33-.18.65-.46.83 -1.234.8-2.05 2.19-2.05 3.77 0 2.48 2.01 4.5 4.5 4.5 2.48 0 4.5-2.02 4.5-4.5 0-1.58-.82-2.97-2.05-3.78 -.29-.19-.46-.5-.46-.84V8.97h-4Z"/><path d="M11.5 6h-4V4h4v2Z"/><g fill="#9545ED"><path d="M19.59 5.93c-.59-.59-1.54-.59-2.13 0l-1.42-1.42c1.36-1.37 3.58-1.37 4.94 0l-1.42 1.41Z"/><path d="M21.364 4.17c-1.57-1.57-4.1-1.57-5.66 0l-1.42-1.42c2.34-2.35 6.14-2.35 8.48 0l-1.42 1.41Z"/><path d="M17.53 8V7h2v1h-2Z"/></g></g></svg>