<svg viewBox="0 0 24 24" xmlns="http://www.w3.org/2000/svg"><g fill="#3747D6" fill-rule="evenodd"><path d="M2.99 4.53c-.01-.01 0-.01 0-.01 -.01 0-.01 0-.01 0Zm.02-.04c.02-.04.08-.11.19-.19 .25-.21.68-.43 1.3-.64 1.23-.42 2.99-.69 4.98-.69 1.99 0 3.75.27 4.98.68 .62.2 1.05.43 1.3.63 .11.08.16.15.19.18 -.03.03-.09.1-.2.18 -.26.2-.69.42-1.31.63 -1.24.41-3 .68-4.99.68 -2 0-3.76-.28-4.99-.69 -.63-.21-1.06-.44-1.31-.64 -.12-.09-.17-.16-.2-.19Zm12.98.03c-.01 0-.01-.01-.01-.01s0 0 0 0Zm-.01-.08c0-.01 0-.01 0-.01s-.01 0-.01 0Zm-13.01 0c-.01-.01-.01-.01-.01-.01 0-.01 0 0 0 0Zm.88-2.69c1.48-.5 3.47-.79 5.61-.79s4.13.28 5.61.78c.73.24 1.4.56 1.91.95 .49.38.97.97.97 1.75s-.48 1.36-.98 1.75c-.51.39-1.18.71-1.92.95 -1.49.49-3.48.78-5.62.78 -2.15 0-4.14-.29-5.62-.79 -.74-.25-1.41-.57-1.92-.96 -.5-.39-.98-.98-.98-1.76 0-.79.47-1.37.97-1.76 .5-.4 1.17-.72 1.91-.96Z"/><path fill="#9545ED" d="M3.5 19.82v-4.83h-2v5c0 .85.67 1.37 1.11 1.63 .51.3 1.17.55 1.88.74 1.43.38 3.27.62 5 .62s3.57-.24 5-.63c.7-.2 1.37-.44 1.88-.75 .43-.27 1.11-.79 1.11-1.64v-5h-2v4.82c-.04.02-.08.05-.15.09 -.29.17-.75.35-1.38.52 -1.25.33-2.91.55-4.49.55s-3.25-.22-4.49-.56c-.63-.17-1.1-.36-1.38-.53 -.07-.04-.12-.08-.15-.1Zm12.06-.06s-.01 0-.01.01c0-.01 0-.02 0-.02Zm-12.12.01c-.01-.01-.01-.02-.01-.02 0-.01 0 0 0 .01Z"/><path d="M3 13.97V4.49H1v9.5c0 .78.47 1.36.97 1.75 .5.39 1.17.71 1.91.95 1.48.49 3.47.78 5.61.78s4.13-.29 5.61-.79c.73-.25 1.4-.57 1.91-.96 .49-.39.97-.98.97-1.76v-9.5h-2v9.47c-.02.02-.07.1-.21.21 -.26.2-.69.42-1.31.63 -1.24.41-3 .68-4.99.68 -2 0-3.76-.28-4.99-.69 -.63-.21-1.06-.44-1.31-.64 -.15-.12-.2-.19-.21-.22Zm13-.02s-.01 0-.01 0c0-.01 0-.01 0-.01Zm-13.01 0c-.01-.01-.01-.01-.01-.01s0 0 0 0Z"/><g fill="#9545ED"><path d="M10.5 20h-2v-2h2v2Z"/><path d="M19 16c0-1.11.89-2 2-2h1v2h-1v2c0 1.1-.9 2-2 2h-2.5v-2H19v-2Z"/></g></g></svg>