<svg viewBox="0 0 24 24" xmlns="http://www.w3.org/2000/svg"><g fill="#9545ED" fill-rule="evenodd"><path d="M13.09 13.43c-.59-.59-1.54-.59-2.13 0l-1.42-1.42c1.36-1.37 3.58-1.37 4.94 0l-1.42 1.41Z"/><path d="M14.864 11.17c-1.57-1.57-4.1-1.57-5.66 0L7.78 9.75c2.34-2.35 6.14-2.35 8.48 0l-1.42 1.41Z"/><path d="M11.03 16v-1h2v1h-2Z"/><path fill="#3747D6" d="M1 8c0-3.87 3.13-7 7-7h8c3.86 0 7 3.13 7 7v8c0 3.86-3.14 7-7 7H8c-3.87 0-7-3.14-7-7V8Zm7-5C5.23 3 3 5.23 3 8v8c0 2.76 2.23 5 5 5h8c2.76 0 5-2.24 5-5V8c0-2.77-2.24-5-5-5H8Z"/></g></svg>