<svg viewBox="0 0 24 24" xmlns="http://www.w3.org/2000/svg"><g fill-rule="evenodd"><path d="M9.02 15.75c.11-.45.51-.76.97-.76h4c.45 0 .85.31.97.75l1.5 6c.07.29 0 .61-.19.85s-.49.38-.79.38h-7c-.31 0-.6-.15-.79-.39 -.19-.25-.26-.56-.19-.86l1.5-6Zm1.75 1.24l-1.01 4h4.43l-1-4h-2.44Z"/><path d="M18 23H6v-2h12v2Z"/><path d="M1 4c0-1.66 1.34-3 3-3h16c1.65 0 3 1.34 3 3v10c0 1.65-1.35 3-3 3H4c-1.66 0-3-1.35-3-3V4Zm10.8.26c.12-.03.26-.03.39 0l2.5.5c.46.09.8.5.8.98v4.03c0 .91-.42 1.77-1.13 2.34l-1.75 1.39c-.37.29-.89.29-1.25 0l-1.75-1.4c-.72-.57-1.13-1.44-1.13-2.35V5.71c0-.48.33-.89.8-.99l2.5-.5Z"/></g></svg>