<svg viewBox="0 0 24 24" xmlns="http://www.w3.org/2000/svg"><g fill="#9545ED" fill-rule="evenodd"><path d="M5.5 7c0-2.21 1.79-4 4-4h8c.4 0 .76.24.92.61 .15.37.06.8-.22 1.08l-2.97 2.96 -3.97 4.95c-.25.3-.65.44-1.03.34L8.5 12.5c-1.79-.45-3.03-2.05-3.03-3.89V6.95Zm4-2c-1.11 0-2 .89-2 2v1.65c0 .91.62 1.71 1.51 1.94l1.1.27 3.59-4.5c.02-.03.04-.06.07-.09l1.29-1.3H9.47Z"/><path d="M11.5 22v-8h2v8h-2Z"/><g fill="#3747D6"><path d="M14.831 6.05c.4.14.66.51.66.94v5c0 1.65-1.35 3-3 3 -1.66 0-3-1.35-3-3l.21-.63 3.99-5c.26-.34.71-.46 1.11-.32Zm-3.29 6.23c.12.4.5.7.95.7 .55 0 1-.45 1-1V9.83l-1.96 2.44Z"/><path d="M10.45 1.7l2.5 8 -1.91.59 -2.5-8.01 1.9-.6Z"/></g></g></svg>