<svg viewBox="0 0 24 24" xmlns="http://www.w3.org/2000/svg"><g fill="#9545ED" fill-rule="evenodd"><path d="M11.34 7.24c.37-.33.94-.33 1.31 0l4 3.49c.2.17.32.42.33.69 .01.266-.08.52-.26.72l-4 4.5 -1.5-1.33 3.33-3.75 -2.583-2.27 -2.15 1.87 2.03.87 -.79 1.83 -3.5-1.5c-.32-.14-.55-.43-.6-.77 -.06-.34.07-.69.32-.91l3.99-3.5Z"/><g fill="#3747D6"><path d="M7.73 15.35c.19-.23.46-.36.76-.36h6.99c.29 0 .57.12.76.35 .19.22.27.52.22.81l-1 6c-.09.48-.5.83-.99.83h-5c-.49 0-.91-.36-.99-.84l-1-6c-.05-.29.03-.59.22-.82Zm1.94 1.64l.66 4h3.3l.66-4H9.65Z"/><path d="M12 1c.33 0 .64.16.83.44l1.7 2.55h1.46c.36 0 .7.2.88.52 .17.32.15.71-.05 1.02l-1.41 2.1c-.56.83-1.5 1.33-2.5 1.33h-1.86c-1.01 0-1.94-.51-2.5-1.34L7.14 5.51c-.21-.31-.23-.71-.05-1.03 .17-.33.51-.53.88-.53h1.46l1.7-2.56c.18-.28.49-.45.83-.45Zm0 2.8l-1.17 1.75c-.19.27-.5.44-.84.44h-.14l.36.55c.18.27.49.44.83.44h1.85c.33 0 .64-.17.83-.45l.36-.56h-.14c-.34 0-.65-.17-.84-.45l-1.17-1.76Z"/><path d="M1 11.5c0-.34.16-.65.44-.84l2.55-1.71V7.48c0-.37.2-.71.52-.89 .32-.18.71-.16 1.02.04l2.1 1.4c.83.55 1.33 1.49 1.33 2.49v1.85c0 1-.51 1.93-1.34 2.49l-2.11 1.4c-.31.2-.71.22-1.03.04 -.33-.18-.53-.52-.53-.89v-1.47l-2.56-1.71c-.28-.19-.45-.5-.45-.84Zm2.8 0l1.75 1.16c.27.18.44.49.44.83v.13l.55-.37c.27-.19.44-.5.44-.84v-1.86c0-.34-.17-.65-.45-.84l-.56-.37v.13c0 .33-.17.64-.45.83l-1.76 1.16Z"/><path d="M23 11.5c0-.34-.17-.65-.45-.84l-2.56-1.71V7.48c0-.37-.21-.71-.53-.89 -.33-.18-.72-.16-1.03.04l-2.11 1.4c-.84.55-1.34 1.49-1.34 2.49v1.85c0 1 .5 1.93 1.33 2.49l2.1 1.4c.3.2.7.22 1.02.04 .32-.18.52-.52.52-.89v-1.47l2.55-1.71c.27-.19.44-.5.44-.84Zm-2.81 0l-1.76 1.16c-.28.18-.45.49-.45.83v.13l-.56-.37c-.28-.19-.45-.5-.45-.84v-1.86c0-.34.16-.65.44-.84l.55-.37v.13c0 .33.16.64.44.83l1.75 1.16Z"/></g></g></svg>