<svg viewBox="0 0 24 24" xmlns="http://www.w3.org/2000/svg"><g fill="#9545ED" fill-rule="evenodd"><path d="M11.03 15.24l-1.51-6 1.94-.49 1.5 6 -1.95.48Z"/><path d="M11.23 14.35l2.5-3 1.53 1.28 -2.5 3 -1.54-1.29Z"/><g fill="#3747D6"><path d="M15.763 14.35c-.19-.23-.47-.36-.77-.36h-6.01c-.3 0-.58.12-.77.35 -.19.22-.28.52-.23.81l1 6c.08.48.49.83.98.83h4c.48 0 .9-.36.98-.84l1-6c.04-.29-.04-.59-.23-.82Zm-1.95 1.64l-.67 4h-2.31l-.67-4h3.63Z"/><path d="M14.64 4.47c-.19.29-.2.66-.05.97l2 4c.16.33.51.55.89.55 .37 0 .72-.22.89-.56l2-4c.15-.31.13-.68-.05-.98 -.19-.3-.51-.48-.86-.48h-4c-.35 0-.67.17-.86.47Zm2.46 1.52h.76l-.39.76 -.39-.77Z"/><path d="M4.64 1.47c-.19.29-.2.66-.05.97l2 4c.16.33.51.55.89.55 .37 0 .72-.22.89-.56l1.99-4c.15-.31.13-.68-.05-.98 -.19-.3-.51-.48-.86-.48h-4c-.35 0-.67.17-.86.47ZM7.1 2.99h.76l-.39.76 -.39-.77Z"/><path d="M18.28 8.38c.23.3.27.71.1 1.06l-2 3.99c-.16.3-.45.5-.78.54 -.34.03-.67-.1-.89-.36l-2.5-3c-.23-.27-.3-.64-.18-.97 .11-.34.38-.58.72-.66l4.5-1c.37-.09.76.05 1 .36Zm-3.47 2.23l.47.56 .37-.76 -.85.18Z"/><path d="M8.28 5.38c.23.3.27.71.1 1.06l-2 3.99c-.16.3-.45.5-.78.54 -.34.03-.67-.1-.89-.36L2.21 7.6c-.23-.27-.3-.64-.18-.97 .11-.34.38-.58.72-.66l4.5-1c.37-.09.76.05 1 .36ZM4.81 7.61l.47.56 .37-.76 -.85.18Z"/><path d="M16.71 8.38c-.24.3-.28.71-.11 1.06l2 3.99c.15.3.44.5.77.54 .33.03.66-.1.88-.36l2.5-3c.22-.27.29-.64.17-.97 -.12-.34-.39-.58-.73-.66l-4.5-1c-.38-.09-.77.05-1.01.36Zm3.46 2.23l-.48.56 -.38-.76 .84.18Z"/><path d="M6.71 5.38c-.24.3-.28.71-.11 1.06l2 3.99c.15.3.44.5.77.54 .33.03.66-.1.88-.36l2.5-3.01c.22-.27.29-.64.17-.97 -.12-.34-.39-.58-.73-.66l-4.5-1c-.38-.09-.77.05-1.01.36Zm3.46 2.23l-.48.56 -.38-.76 .84.18Z"/></g></g></svg>