<svg viewBox="0 0 24 24" xmlns="http://www.w3.org/2000/svg"><g fill-rule="evenodd"><path d="M12.39 1.25c.3 0 .57.2.67.48l3.09 8.24c1.4 3.75-1.37 7.76-5.39 7.76H9.52c-3.8 0-6.55-3.61-5.55-7.27l1.09-4c.07-.28.3-.49.58-.54 .28-.06.56.05.74.28l2.04 2.72 3.23-7.28c.12-.28.4-.46.7-.45Zm-.09 2.72l-3.01 6.76c-.11.24-.34.41-.61.44 -.27.02-.53-.09-.69-.3l-1.9-2.53 -.69 2.51c-.74 2.7 1.29 5.36 4.1 5.36h1.23c2.96 0 5.02-2.97 3.97-5.75l-2.45-6.53Z"/><path d="M18.97 12.25c.2-.01.4.07.55.21l1.5 1.5c.24.24.28.62.11.91l-.83 1.38c1.37.15 2.436 1.31 2.436 2.73v1c0 1.51-1.24 2.75-2.75 2.75h-2c-.42 0-.75-.34-.75-.75 0-.42.33-.75.75-.75h2c.69 0 1.25-.56 1.25-1.25v-1c0-.7-.56-1.25-1.25-1.25h-1c-.28 0-.52-.15-.66-.39 -.14-.24-.13-.53 0-.76l1.19-2 -.52-.52 -2.98 3.39c-.15.16-.35.25-.57.25h-4.5c-.7 0-1.25.55-1.25 1.25v1c0 .69.55 1.25 1.25 1.25h3c.41 0 .75.33.75.75 0 .41-.34.75-.75.75h-3c-1.52 0-2.75-1.24-2.75-2.75v-1c0-1.52 1.23-2.75 2.75-2.75h4.15l3.27-3.75c.13-.16.33-.25.53-.26Z"/><path d="M1.25 19c0-1.52 1.23-2.75 2.75-2.75h9c.41 0 .75.33.75.75 0 .41-.34.75-.75.75H4c-.7 0-1.25.55-1.25 1.25v1c0 .69.55 1.25 1.25 1.25h9c.41 0 .75.33.75.75 0 .41-.34.75-.75.75H4c-1.52 0-2.75-1.24-2.75-2.75v-1Z"/></g></svg>