<svg viewBox="0 0 24 24" xmlns="http://www.w3.org/2000/svg"><g fill-rule="evenodd"><path d="M9.86 2.53c.41-.79 1.23-1.29 2.13-1.29 .89 0 1.71.49 2.13 1.28l2.17 4.11c.19.36.05.81-.32 1.01 -.37.19-.82.05-1.02-.32L12.77 3.2c-.16-.3-.47-.49-.81-.49 -.34 0-.65.18-.81.48L2.89 18.77c-.13.23-.2.5-.2.77 0 .91.74 1.65 1.65 1.65h15.19c.91 0 1.65-.75 1.65-1.66 0-.27-.07-.54-.2-.78l-3.43-6.48c-.2-.37-.06-.82.31-1.02 .36-.2.82-.06 1.01.31l3.42 6.47c.24.45.36.96.36 1.47 0 1.74-1.42 3.15-3.16 3.15H4.29c-1.75 0-3.16-1.42-3.16-3.16 0-.52.12-1.03.36-1.48L9.74 2.42Z"/><path d="M12 9.25c.41 0 .75.33.75.75v8c0 .41-.34.75-.75.75 -.42 0-.75-.34-.75-.75v-8c0-.42.33-.75.75-.75Z"/><path d="M7.88 11.625c.2-.36.66-.49 1.02-.28l6.92 4c.35.2.48.66.27 1.02 -.21.35-.67.48-1.03.27l-6.93-4c-.36-.21-.49-.67-.28-1.03Z"/><path d="M16.11 11.625c-.21-.36-.67-.49-1.03-.28l-6.93 4c-.36.2-.49.66-.28 1.02 .2.35.66.48 1.02.27l6.92-4c.35-.21.48-.67.27-1.03Z"/></g></svg>