<svg viewBox="0 0 24 24" xmlns="http://www.w3.org/2000/svg"><g fill-rule="evenodd"><path d="M1.25 19c0-.42.33-.75.75-.75h20c.41 0 .75.33.75.75v3c0 .41-.34.75-.75.75h-2c-.42 0-.75-.34-.75-.75 0-.42.33-.75.75-.75h1.25v-1.5H2.75v1.5H16c.41 0 .75.33.75.75 0 .41-.34.75-.75.75H2c-.42 0-.75-.34-.75-.75v-3Z"/><path d="M7.25 12c0-.42.33-.75.75-.75h8c.41 0 .75.33.75.75v7c0 .41-.34.75-.75.75H8c-.42 0-.75-.34-.75-.75v-7Zm1.5.75v5.5h6.5v-5.5h-6.5Z"/><path d="M6.25 8c0-.42.33-.75.75-.75h10c.41 0 .75.33.75.75v4c0 .41-.34.75-.75.75H7c-.42 0-.75-.34-.75-.75V8Zm1.5.75v2.5h8.5v-2.5h-8.5Z"/><path d="M13.96 1.46c.29-.3.76-.3 1.06 0l1 1c.84.84.84 2.21 0 3.06 -.26.25-.26.67 0 .93l1 1c.29.29.29.76 0 1.06 -.3.29-.77.29-1.07 0l-1-1c-.85-.85-.85-2.22 0-3.07 .25-.26.25-.68 0-.94l-1-1c-.3-.3-.3-.77 0-1.07Z"/><path d="M10.46 1.46c.29-.3.76-.3 1.06 0l1 1c.84.84.84 2.21 0 3.06 -.26.25-.26.67 0 .93l1 1c.29.29.29.76 0 1.06 -.3.29-.77.29-1.07 0l-1-1c-.85-.85-.85-2.22 0-3.07 .25-.26.25-.68 0-.94l-1-1c-.3-.3-.3-.77 0-1.07Z"/><path d="M6.96 1.46c.29-.3.76-.3 1.06 0l1 1c.84.84.84 2.21 0 3.06 -.26.25-.26.67 0 .93l.99 1c.29.29.29.76 0 1.06 -.3.29-.77.29-1.07 0l-1-1c-.85-.85-.85-2.22 0-3.07 .25-.26.25-.68 0-.94l-1-1c-.3-.3-.3-.77 0-1.07Z"/></g></svg>