<svg viewBox="0 0 24 24" xmlns="http://www.w3.org/2000/svg"><g fill-rule="evenodd"><path d="M18.36 15.56c-.37.58-.62 1.44-.62 2.43 0 .98.25 1.84.61 2.43 .37.59.79.81 1.13.81 .33 0 .75-.23 1.13-.82 .36-.59.61-1.45.61-2.44s-.26-1.85-.62-2.44c-.38-.6-.8-.82-1.14-.82 -.34 0-.76.22-1.14.81Zm-1.28-.8c.53-.86 1.36-1.53 2.4-1.53 1.04 0 1.87.67 2.4 1.52 .53.86.84 2 .84 3.22 0 1.22-.31 2.36-.85 3.22 -.54.85-1.37 1.52-2.41 1.52 -1.05 0-1.88-.68-2.41-1.53 -.54-.87-.85-2.01-.85-3.23 0-1.23.3-2.37.84-3.23Z"/><path d="M18.36 5.56c-.37.58-.62 1.44-.62 2.43 0 .98.25 1.84.61 2.43 .37.59.79.81 1.13.81 .33 0 .75-.23 1.13-.82 .36-.59.61-1.45.61-2.44s-.26-1.85-.62-2.44c-.38-.6-.8-.82-1.14-.82 -.34 0-.76.22-1.14.81Zm-1.28-.8c.53-.86 1.36-1.53 2.4-1.53 1.04 0 1.87.67 2.4 1.52 .53.86.84 2 .84 3.22 0 1.22-.31 2.36-.85 3.22 -.54.85-1.37 1.52-2.41 1.52 -1.05 0-1.88-.68-2.41-1.53 -.54-.87-.85-2.01-.85-3.23 0-1.23.3-2.37.84-3.23Z"/><path d="M3.36 15.56c-.37.58-.62 1.44-.62 2.43 0 .98.25 1.84.61 2.43 .37.59.79.81 1.13.81h5.5c.41 0 .75.33.75.75 0 .41-.34.75-.75.75h-5.5c-1.05 0-1.88-.68-2.41-1.53 -.54-.87-.85-2.01-.85-3.23 0-1.23.3-2.37.84-3.23 .53-.86 1.36-1.53 2.4-1.53h15c.41 0 .75.33.75.75 0 .41-.34.75-.75.75h-15c-.34 0-.76.22-1.14.81Zm9.88 6.43c0-.42.33-.75.75-.75h5.5c.41 0 .75.33.75.75 0 .41-.34.75-.75.75h-5.5c-.42 0-.75-.34-.75-.75Z"/><path d="M10.32 1.66c.12-.26.38-.42.67-.42h3c.25 0 .5.13.63.35 .13.22.14.49.03.72l-.46.91h5.28c.41 0 .75.33.75.75 0 .41-.34.75-.75.75h-6.5c-.26 0-.51-.14-.64-.36 -.14-.23-.15-.5-.04-.73l.45-.92h-1.33l-.8 1.58c-.13.25-.39.41-.68.41h-5.5c-.34 0-.76.22-1.14.81 -.37.58-.62 1.44-.62 2.43 0 .98.25 1.84.61 2.43 .37.59.79.81 1.13.81h15c.41 0 .75.33.75.75 0 .41-.34.75-.75.75h-15c-1.05 0-1.88-.68-2.41-1.53 -.54-.87-.85-2.01-.85-3.23 0-1.23.3-2.37.84-3.23 .53-.86 1.36-1.53 2.4-1.53h5.03l.79-1.59Z"/><path d="M1.75 17c0-.42.33-.75.75-.75h8.49c.41 0 .75.33.75.75 0 .41-.34.75-.75.75h-8.5c-.42 0-.75-.34-.75-.75Z"/><path d="M12.75 19.5c0-.42.33-.75.75-.75H17c.41 0 .75.33.75.75 0 .41-.34.75-.75.75h-3.5c-.42 0-.75-.34-.75-.75Z"/><path d="M1.75 9c0-.42.33-.75.75-.75H7c.41 0 .75.33.75.75 0 .41-.34.75-.75.75H2.5c-.42 0-.75-.34-.75-.75Z"/><path d="M8.75 6.5c0-.42.33-.75.75-.75H17c.41 0 .75.33.75.75 0 .41-.34.75-.75.75H9.5c-.42 0-.75-.34-.75-.75Z"/></g></svg>