<svg viewBox="0 0 24 24" xmlns="http://www.w3.org/2000/svg"><g fill-rule="evenodd"><path d="M13.39 12.25c.3 0 .57.2.67.48l1.33 3.56c.8 2.15-.79 4.44-3.09 4.44 -2.18 0-3.75-2.07-3.18-4.16l.43-1.6c.07-.28.3-.49.58-.54 .28-.06.56.05.74.28l.54.72 1.23-2.78c.12-.28.4-.46.7-.45Zm-.09 2.72l-1.01 2.26c-.11.24-.34.41-.61.44 -.27.02-.53-.09-.69-.3l-.4-.53 -.04.12c-.32 1.14.54 2.26 1.73 2.26 1.25 0 2.11-1.26 1.67-2.43l-.7-1.85Z"/><path d="M1.25 2c0-.42.33-.75.75-.75h20c.41 0 .75.33.75.75v3c0 .41-.34.75-.75.75H2c-.42 0-.75-.34-.75-.75V2Zm1.5.75v1.5h18.5v-1.5H2.75Z"/><path d="M2.25 5c0-.42.33-.75.75-.75h18c.41 0 .75.33.75.75v6.5c0 .41-.34.75-.75.75 -.42 0-.75-.34-.75-.75V5.75H3.75v15.5h16.5V15.5c0-.42.33-.75.75-.75 .41 0 .75.33.75.75V22c0 .41-.34.75-.75.75H3c-.42 0-.75-.34-.75-.75V5Z"/><path d="M5.25 13c0-2.63 2.12-4.75 4.75-4.75h4c2.62 0 4.75 2.12 4.75 4.75v9c0 .41-.34.75-.75.75H6c-.42 0-.75-.34-.75-.75v-9ZM10 9.75c-1.8 0-3.25 1.45-3.25 3.25v8.25h10.5V13c0-1.8-1.46-3.25-3.25-3.25h-4Z"/></g></svg>