<svg viewBox="0 0 24 24" xmlns="http://www.w3.org/2000/svg"><g fill-rule="evenodd"><path d="M12 2.75c-5.11 0-9.25 4.14-9.25 9.25 0 .41-.34.75-.75.75 -.42 0-.75-.34-.75-.75C1.25 6.06 6.06 1.25 12 1.25c5.93 0 10.75 4.81 10.75 10.75 0 5.93-4.82 10.75-10.75 10.75 -4.2 0-7.84-2.41-9.61-5.92 -.19-.37-.04-.83.33-1.01 .36-.19.82-.04 1 .33 1.52 3.01 4.65 5.08 8.26 5.08 5.1 0 9.25-4.15 9.25-9.25 0-5.11-4.15-9.25-9.25-9.25Z"/><path d="M11.25 5c0-.42.33-.75.75-.75 4.28 0 7.75 3.46 7.75 7.75 0 .41-.34.75-.75.75 -.42 0-.75-.34-.75-.75 0-3.46-2.8-6.25-6.25-6.25 -.42 0-.75-.34-.75-.75Z"/></g></svg>