<svg viewBox="0 0 24 24" xmlns="http://www.w3.org/2000/svg"><g fill-rule="evenodd"><path d="M1.25 6c0-1.52 1.23-2.75 2.75-2.75 1.51 0 2.75 1.23 2.75 2.75v9c0 1.51-1.24 2.75-2.75 2.75 -1.52 0-2.75-1.24-2.75-2.75V6ZM4 4.75c-.7 0-1.25.55-1.25 1.25v9c0 .69.55 1.25 1.25 1.25 .69 0 1.25-.56 1.25-1.25V6c0-.7-.56-1.25-1.25-1.25Z"/><path d="M17.25 6c0-1.52 1.23-2.75 2.75-2.75 1.51 0 2.75 1.23 2.75 2.75v3c0 .41-.34.75-.75.75 -.42 0-.75-.34-.75-.75V6c0-.7-.56-1.25-1.25-1.25 -.7 0-1.25.55-1.25 1.25v9c0 .69.55 1.25 1.25 1.25 .69 0 1.25-.56 1.25-1.25v-2c0-.42.33-.75.75-.75 .41 0 .75.33.75.75v2c0 1.51-1.24 2.75-2.75 2.75 -1.52 0-2.75-1.24-2.75-2.75V6Z"/><path d="M5.25 5c0-.42.33-.75.75-.75h12c.41 0 .75.33.75.75v11c0 .41-.34.75-.75.75H6c-.42 0-.75-.34-.75-.75V5Zm1.5.75v9.5h10.5v-9.5H6.75Z"/><path d="M9 6.75c.41 0 .75.33.75.75v6c0 .41-.34.75-.75.75 -.42 0-.75-.34-.75-.75v-6c0-.42.33-.75.75-.75Z"/><path d="M12 6.75c.41 0 .75.33.75.75v6c0 .41-.34.75-.75.75 -.42 0-.75-.34-.75-.75v-6c0-.42.33-.75.75-.75Z"/><path d="M15 6.75c.41 0 .75.33.75.75v6c0 .41-.34.75-.75.75 -.42 0-.75-.34-.75-.75v-6c0-.42.33-.75.75-.75Z"/><path d="M4 16.25c.41 0 .75.33.75.75v3c0 .41-.34.75-.75.75 -.42 0-.75-.34-.75-.75v-3c0-.42.33-.75.75-.75Z"/><path d="M20 16.25c.41 0 .75.33.75.75v3c0 .41-.34.75-.75.75 -.42 0-.75-.34-.75-.75v-3c0-.42.33-.75.75-.75Z"/></g></svg>