<svg viewBox="0 0 24 24" xmlns="http://www.w3.org/2000/svg"><g fill-rule="evenodd"><path d="M4.6 1.25c-.21-.03-.42.02-.58.15l-2.5 2c-.33.25-.38.73-.12 1.05 .25.32.73.37 1.05.11l1.87-1.51 10.04 14.34c.14.2.36.31.61.31h6.25v3.5h-6.85L5.25 7.53c-.23-.35-.7-.44-1.05-.21 -.35.22-.44.69-.21 1.04l9.33 14c.13.2.37.33.62.33h8c.41 0 .75-.34.75-.75v-5c0-.42-.34-.75-.75-.75h-6.61L5.05 1.5c-.12-.17-.31-.29-.51-.32Z"/><path d="M19.39 1.25c.2-.03.41.02.57.15l2.5 2c.3.24.37.67.15 1l-7.84 11.75c-.23.34-.7.43-1.05.2 -.35-.23-.44-.7-.21-1.04l7.45-11.18 -1.34-1.08 -7.05 10.05c-.24.33-.71.42-1.05.18 -.34-.24-.43-.71-.19-1.05l7.5-10.72c.11-.17.3-.29.5-.32ZM10.3 15.13c.33.23.42.7.18 1.04l-.88 1.24c-.15.2-.37.31-.62.31H2.73v3.5h6.84l1.77-2.67c.22-.35.69-.44 1.04-.21 .34.22.43.69.2 1.04l-2 3c-.14.2-.38.33-.63.33h-8c-.42 0-.75-.34-.75-.75v-5c0-.42.33-.75.75-.75h6.6l.64-.93c.23-.34.7-.43 1.04-.19Z"/></g></svg>