<svg viewBox="0 0 24 24" xmlns="http://www.w3.org/2000/svg"><g fill-rule="evenodd"><path d="M1.75 6c0-.42.33-.75.75-.75h9c.41 0 .75.33.75.75v3.03l4.42 2.21h3.32c1.51 0 2.75 1.23 2.75 2.75v4c0 .41-.34.75-.75.75H2.49c-.42 0-.75-.34-.75-.75v-6c0-.42.33-.75.75-.75 .41 0 .75.33.75.75v5.25h18v-3.25c0-.7-.56-1.25-1.25-1.25h-3.5c-.12 0-.24-.03-.34-.08l-5-2.5c-.26-.13-.42-.39-.42-.68V6.73h-7.5v1.25c0 .41-.34.75-.75.75 -.42 0-.75-.34-.75-.75v-2Z"/><path d="M1.25 2c0-.42.33-.75.75-.75h10c.41 0 .75.33.75.75v4c0 .41-.34.75-.75.75H2c-.42 0-.75-.34-.75-.75V2Zm1.5.75v2.5h8.5v-2.5h-8.5Z"/><path d="M16.93 17.5c.27-.31.74-.34 1.05-.07l4.5 4c.23.2.31.53.2.82 -.12.29-.39.48-.71.48h-20c-.42 0-.75-.34-.75-.75 0-.42.33-.75.75-.75h18.02l-3.03-2.69c-.31-.28-.34-.75-.07-1.06Z"/><path d="M6 17.25c.41 0 .75.33.75.75v4c0 .41-.34.75-.75.75 -.42 0-.75-.34-.75-.75v-4c0-.42.33-.75.75-.75Z"/><path d="M13 17.25c.41 0 .75.33.75.75v4c0 .41-.34.75-.75.75 -.42 0-.75-.34-.75-.75v-4c0-.42.33-.75.75-.75Z"/></g></svg>