<svg viewBox="0 0 24 24" xmlns="http://www.w3.org/2000/svg"><g fill-rule="evenodd"><path d="M4.17 11.23c-.1-.1-.26-.1-.36 0l-1.3 1.29c-.3.29-.77.29-1.07 0 -.3-.3-.3-.77 0-1.07l1.29-1.3c.68-.69 1.79-.69 2.47 0l.58.58c.09.09.25.09.35 0l.58-.59c.68-.69 1.79-.69 2.47 0l.58.58c.09.09.25.09.35 0l.58-.59c.68-.69 1.79-.69 2.47 0l.58.58c.09.09.25.09.35 0l.58-.59c.68-.69 1.79-.69 2.47 0l.58.58c.09.09.25.09.35 0l.58-.59c.68-.69 1.79-.69 2.47 0l1.29 1.29c.29.29.29.76 0 1.06 -.3.29-.77.29-1.07 0l-1.3-1.3c-.1-.1-.26-.1-.36 0l-.59.58c-.69.68-1.8.68-2.48 0l-.59-.59c-.1-.1-.26-.1-.36 0l-.59.58c-.69.68-1.8.68-2.48 0l-.59-.59c-.1-.1-.26-.1-.36 0l-.59.58c-.69.68-1.8.68-2.48 0l-.59-.59c-.1-.1-.26-.1-.36 0l-.59.58c-.69.68-1.8.68-2.48 0l-.59-.59Z"/><path d="M8.4 1.25c.28-.04.56.08.72.32l2.66 4 3.44-1.3c.35-.14.76.02.93.36l3 6c.05.1.07.21.07.33v3c0 .1-.03.21-.08.31l-.47 1c-.18.37-.63.53-1 .36 -.38-.18-.54-.63-.37-1l.39-.85v-2.66l-2.62-5.24 -3.37 1.26c-.33.12-.7 0-.89-.29L8.66 3.62l-2.48 7.42v2.53l3.74 3.27c.06.05.11.12.16.2l2.13 3.85 2.82-1.529 .36-.78c.17-.38.62-.54.99-.37 .37.17.53.62.36.99l-.47 1c-.07.14-.19.26-.33.34l-3.7 2c-.37.19-.82.06-1.02-.3l-2.44-4.39 -3.91-3.42c-.17-.15-.26-.35-.26-.57v-3c0-.09.01-.17.03-.24l3-9c.09-.28.32-.47.61-.51Z"/></g></svg>