<svg viewBox="0 0 24 24" xmlns="http://www.w3.org/2000/svg"><g fill-rule="evenodd"><path d="M12 5.75c-5.11 0-9.25 4.14-9.25 9.25v3.25h18.5V15c0-5.11-4.15-9.25-9.25-9.25ZM1.25 15C1.25 9.06 6.06 4.25 12 4.25c5.93 0 10.75 4.81 10.75 10.75v4c0 .41-.34.75-.75.75H2c-.42 0-.75-.34-.75-.75v-4Z"/><path d="M8.4 8.31c-1.01 1.67-1.66 4.03-1.66 6.68v3.25h10.5v-3.25c0-2.65-.65-5.02-1.66-6.69 -1.02-1.69-2.31-2.57-3.6-2.57s-2.59.87-3.6 2.56Zm-1.29-.78c1.15-1.93 2.86-3.3 4.88-3.3s3.72 1.36 4.88 3.29c1.16 1.94 1.86 4.58 1.86 7.45v4c0 .41-.34.75-.75.75h-12c-.42 0-.75-.34-.75-.75v-4c0-2.88.69-5.52 1.86-7.46Z"/><path d="M8.25 15c0-2.08 1.67-3.75 3.75-3.75 2.07 0 3.75 1.67 3.75 3.75v4c0 .41-.34.75-.75.75H9c-.42 0-.75-.34-.75-.75v-4ZM12 12.75c-1.25 0-2.25 1-2.25 2.25v3.25h4.5V15c0-1.25-1.01-2.25-2.25-2.25Z"/><path d="M1.25 16c0-.42.33-.75.75-.75h7c.41 0 .75.33.75.75 0 .41-.34.75-.75.75H2c-.42 0-.75-.34-.75-.75Zm13 0c0-.42.33-.75.75-.75h7c.41 0 .75.33.75.75 0 .41-.34.75-.75.75h-7c-.42 0-.75-.34-.75-.75Z"/><path d="M1.75 12c0-.42.33-.75.75-.75h19c.41 0 .75.33.75.75 0 .41-.34.75-.75.75h-19c-.42 0-.75-.34-.75-.75Z"/><path d="M3.75 8.5c0-.42.33-.75.75-.75H10c.41 0 .75.33.75.75 0 .41-.34.75-.75.75H4.5c-.42 0-.75-.34-.75-.75Zm9.5 0c0-.42.33-.75.75-.75h5.5c.41 0 .75.33.75.75 0 .41-.34.75-.75.75H14c-.42 0-.75-.34-.75-.75Z"/></g></svg>