<svg viewBox="0 0 24 24" xmlns="http://www.w3.org/2000/svg"><g fill-rule="evenodd"><path d="M5.75 17c0-.42.33-.75.75-.75h14c.41 0 .75.33.75.75v5c0 .41-.34.75-.75.75H18c-.42 0-.75-.34-.75-.75 0-.42.33-.75.75-.75h1.75v-3.5H7.25v3.5H14c.41 0 .75.33.75.75 0 .41-.34.75-.75.75H6.5c-.42 0-.75-.34-.75-.75v-5Z"/><path d="M12.5 2.75c-2.35 0-4.25 1.9-4.25 4.25v2.16c0 .27-.16.53-.4.66 -.25.13-.54.11-.77-.04l-.12-.08 .32-.49 -.33.48c-1.17-.78-2.72.05-2.72 1.45 0 .58.29 1.12.77 1.45l2.88 1.92c.2.13.33.37.33.62v1.08h10.5V6.96c0-2.35-1.91-4.25-4.25-4.25h-2ZM6.75 7c0-3.18 2.57-5.75 5.75-5.75h2c3.17 0 5.75 2.57 5.75 5.75v10c0 .41-.34.75-.75.75h-12c-.42 0-.75-.34-.75-.75v-1.44l-2.56-1.71c-.91-.61-1.45-1.62-1.45-2.71 0-2.19 2.06-3.64 4-3.17V6.96Z"/><path d="M13.53 6.25c.41 0 .75.33.75.75v7c0 .41-.34.75-.75.75 -.42 0-.75-.34-.75-.75V7c0-.42.33-.75.75-.75Z"/><path d="M9.85 8.37c.2-.36.66-.49 1.02-.28l6.06 3.5c.35.2.48.66.27 1.02 -.21.35-.67.48-1.03.27l-6.07-3.5c-.36-.21-.49-.67-.28-1.03Z"/><path d="M17.21 8.37c-.21-.36-.67-.49-1.03-.28l-6.07 3.5c-.36.2-.49.66-.28 1.02 .2.35.66.48 1.02.27l6.06-3.5c.35-.21.48-.67.27-1.03Z"/></g></svg>