<svg viewBox="0 0 24 24" xmlns="http://www.w3.org/2000/svg"><g fill-rule="evenodd"><path d="M5.53 6.46c-.85-.85-2.22-.85-3.07 0 -.85.84-.85 2.21 0 3.06l13 13c.29.29.76.29 1.06 0l2-2c.29-.3.29-.77 0-1.07l-13-13Zm-2 1.06c.25-.26.67-.26.93 0l12.46 12.46 -.94.93L3.51 8.44c-.26-.26-.26-.68 0-.94Z"/><path d="M22.53 7.46c.29.29.29.76 0 1.06l-4 3.99c-.3.29-.77.29-1.07 0 -.3-.3-.3-.77 0-1.07l4-4.01c.29-.3.76-.3 1.06 0Zm-6 6c.29.29.29.76 0 1.06l-2 2c-.3.29-.77.29-1.07 0 -.3-.3-.3-.77 0-1.07l2-2c.29-.3.76-.3 1.06 0Zm-4 4c.29.29.29.76 0 1.06l-4 4c-.3.29-.77.29-1.07 0 -.3-.3-.3-.77 0-1.07l4-4c.29-.3.76-.3 1.06 0Z"/><path d="M16.53 1.46c.29.29.29.76 0 1.06l-4 4c-.3.29-.77.29-1.07 0 -.3-.3-.3-.77 0-1.07l4-4c.29-.3.76-.3 1.06 0Zm-6 6c.29.29.29.76 0 1.06l-2 1.99c-.3.29-.77.29-1.07 0 -.3-.3-.3-.77 0-1.07l2-2c.29-.3.76-.3 1.06 0Zm-4 4c.29.29.29.76 0 1.06l-4 4c-.3.29-.77.29-1.07 0 -.3-.3-.3-.77 0-1.07l4-4c.29-.3.76-.3 1.06 0Z"/><path d="M9.53 2.46c-.85-.85-2.22-.85-3.07 0 -.85.84-.85 2.21 0 3.06l13 13c.29.29.76.29 1.06 0l2-2c.29-.3.29-.77 0-1.07l-5-5c-.3-.3-.77-.3-1.07 0 -.3.29-.3.76 0 1.06l4.46 4.46 -.94.93L7.5 4.43c-.26-.26-.26-.68 0-.94 .25-.26.67-.26.93 0l4 4c.29.29.76.29 1.06 0 .29-.3.29-.77 0-1.07l-4-4Z"/><path d="M7.46 18.46c-.3.29-.3.76 0 1.06l3 3c.29.29.76.29 1.06 0 .29-.3.29-.77 0-1.07l-3-3c-.3-.3-.77-.3-1.07 0Z"/><path d="M1.46 12.46c-.3.29-.3.76 0 1.06l3 3c.29.29.76.29 1.06 0 .29-.3.29-.77 0-1.07l-3-3c-.3-.3-.77-.3-1.07 0Z"/></g></svg>