<svg viewBox="0 0 24 24" xmlns="http://www.w3.org/2000/svg"><g fill-rule="evenodd"><path d="M18.25 12c0-.42.33-.75.75-.75h1c1.51 0 2.75 1.23 2.75 2.75 0 1.51-1.24 2.75-2.75 2.75h-1c-.42 0-.75-.34-.75-.75 0-.42.33-.75.75-.75h1c.69 0 1.25-.56 1.25-1.25 0-.7-.56-1.25-1.25-1.25h-1c-.42 0-.75-.34-.75-.75Zm-17 4c0-.42.33-.75.75-.75h13c.41 0 .75.33.75.75 0 .41-.34.75-.75.75H2c-.42 0-.75-.34-.75-.75Z"/><path d="M2.25 11.5c0-1.25 1-2.25 2.25-2.25h10c1.24 0 2.25 1 2.25 2.25 0 1.24-1.01 2.25-2.25 2.25h-10c-1.25 0-2.25-1.01-2.25-2.25Zm2.25-.75c-.42 0-.75.33-.75.75 0 .41.33.75.75.75h10c.41 0 .75-.34.75-.75 0-.42-.34-.75-.75-.75h-10Z"/><path d="M5 12.25c.41 0 .75.33.75.75v3c0 .41-.34.75-.75.75 -.42 0-.75-.34-.75-.75v-3c0-.42.33-.75.75-.75Z"/><path d="M14 12.25c.41 0 .75.33.75.75v3c0 .41-.34.75-.75.75 -.42 0-.75-.34-.75-.75v-3c0-.42.33-.75.75-.75Z"/></g></svg>