<svg viewBox="0 0 24 24" xmlns="http://www.w3.org/2000/svg"><g fill-rule="evenodd"><path d="M7.25 2c0-.42.33-.75.75-.75 3.72 0 6.75 3.02 6.75 6.75 0 3.72-3.03 6.75-6.75 6.75 -3.73 0-6.75-3.03-6.75-6.75 0-2 .87-3.8 2.24-5.04 .3-.28.78-.25 1.05.05s.24.78-.06 1.05c-1.08.96-1.76 2.35-1.76 3.91 0 2.89 2.35 5.25 5.25 5.25 2.89 0 5.25-2.36 5.25-5.25 0-2.9-2.36-5.25-5.25-5.25 -.42 0-.75-.34-.75-.75Z"/><path d="M9.33 6.32c.37.18.52.63.33 1L8.9 8.83l1.61 1.61c.25.25.29.64.09.94l-2 3c-.23.34-.7.43-1.05.2 -.35-.23-.44-.7-.21-1.04l1.65-2.49 -1.57-1.57c-.23-.23-.29-.577-.15-.87l1-2c.18-.38.63-.53 1-.34Z"/><path d="M11.96 11.96c.29-.3.76-.3 1.06 0l9.5 9.5c.29.29.29.76 0 1.06 -.3.29-.77.29-1.07 0l-9.5-9.5c-.3-.3-.3-.77 0-1.07Z"/><path d="M6.46 13.47c.28-.3.76-.31 1.06-.02l5.15 5c.29.28.3.76.01 1.06 -.29.29-.77.3-1.07.01l-5.16-5c-.3-.29-.31-.77-.02-1.07Z"/><path d="M13.46 6.46c.29-.3.76-.3 1.06 0l7 7c.29.29.29.76 0 1.06 -.3.29-.77.29-1.07 0l-7-7c-.3-.3-.3-.77 0-1.07Z"/></g></svg>