<svg viewBox="0 0 24 24" xmlns="http://www.w3.org/2000/svg"><g fill-rule="evenodd"><path d="M3.75 18c0-.42.33-.75.75-.75h4c.41 0 .75.33.75.75v2c0 1.51-1.24 2.75-2.75 2.75 -1.52 0-2.75-1.24-2.75-2.75v-2Zm1.5.75V20c0 .69.55 1.25 1.25 1.25 .69 0 1.25-.56 1.25-1.25v-1.25h-2.5Z"/><path d="M3.75 15.54c.02.39.35.7.74.7h4c.41 0 .75-.34.75-.75v-2.18c0-.14.02-.27.06-.4L11 7.8c.2-.63.04-1.33-.43-1.8l-.5-.5c-.87-.87-2.21-1.06-3.29-.46L4.15 6.5c-.59.32-.94.96-.9 1.63l.46 7.37Zm1.45-.8l-.42-6.67c-.01-.1.04-.19.12-.24l2.62-1.47c.48-.28 1.09-.19 1.49.2l.49.49c.06.06.09.16.06.25l-1.71 5.1c-.1.28-.15.57-.15.86v1.42H5.15Z"/><path d="M20.25 15c0-.42-.34-.75-.75-.75h-4c-.42 0-.75.33-.75.75v2c0 1.51 1.23 2.75 2.75 2.75 1.51 0 2.75-1.24 2.75-2.75v-2Zm-1.5.75V17c0 .69-.56 1.25-1.25 1.25 -.7 0-1.25-.56-1.25-1.25v-1.25h2.5Z"/><path d="M20.24 12.54c-.03.39-.36.7-.75.7h-4c-.42 0-.75-.34-.75-.75v-2.18c0-.14-.03-.27-.07-.4L12.96 4.8c-.21-.63-.05-1.33.42-1.8l.49-.5c.86-.87 2.2-1.06 3.28-.46l2.62 1.46c.58.32.93.96.89 1.63L20.6 6c-.03.41-.39.72-.8.7 -.42-.03-.73-.39-.71-.8l.05-.88c0-.1-.05-.19-.13-.24l-2.63-1.47c-.49-.28-1.1-.19-1.5.2l-.5.49c-.07.06-.1.16-.07.25l1.7 5.1c.09.28.14.57.14.86v1.42h2.54l.04-.8c.02-.42.38-.73.79-.71 .41.02.72.38.7.79l-.1 1.5Z"/></g></svg>