<svg viewBox="0 0 24 24" xmlns="http://www.w3.org/2000/svg"><g fill-rule="evenodd"><path d="M11.25 2c0-.42.33-.75.75-.75 5.93 0 10.75 4.81 10.75 10.75 0 5.93-4.82 10.75-10.75 10.75 -5.94 0-10.75-4.82-10.75-10.75 0-4.41 2.65-8.2 6.44-9.86 .37-.17.82 0 .98.38 .16.37-.01.82-.39.98 -3.27 1.42-5.56 4.68-5.56 8.48 0 5.1 4.14 9.25 9.25 9.25 5.1 0 9.25-4.15 9.25-9.25 0-5.11-4.15-9.25-9.25-9.25 -.42 0-.75-.34-.75-.75Z"/><path d="M16.66 7.32c.37-.19.82-.04 1 .33l1 2c.1.21.1.45 0 .67l-.8 1.58 1.22 1.62c.24.32.18.78-.14 1.03l-2.5 2c-.33.25-.8.2-1.06-.12 -.26-.33-.21-.8.11-1.06l1.93-1.55 -1.07-1.42c-.18-.23-.2-.54-.08-.79l.83-1.67 -.84-1.67c-.19-.38-.04-.83.33-1.01Z"/><path d="M6.33 11.32c.37.18.52.63.33 1l-.71 1.4 2.44 1.63c.31.2.42.62.25.95l-.83 1.64 1.8 3.15c.2.35.08.81-.28 1.02 -.36.2-.82.08-1.03-.28l-2-3.5c-.13-.22-.14-.49-.02-.71l.7-1.41 -2.45-1.64c-.32-.21-.43-.63-.26-.96l1-2c.18-.38.63-.53 1-.34Z"/></g></svg>