<svg viewBox="0 0 24 24" xmlns="http://www.w3.org/2000/svg"><g fill-rule="evenodd"><path d="M19 13.25c.41 0 .75.33.75.75v2c0 .41-.34.75-.75.75 -.42 0-.75-.34-.75-.75v-2c0-.42.33-.75.75-.75Zm-14 5c.41 0 .75.33.75.75v2.25h12.5V20c0-.42.33-.75.75-.75 .41 0 .75.33.75.75v2c0 .41-.34.75-.75.75H5c-.42 0-.75-.34-.75-.75v-3c0-.42.33-.75.75-.75Z"/><path d="M11.46 1.46c.29-.3.76-.3 1.06 0l10 10c.14.14.21.33.21.53v5c0 .3-.19.57-.47.69 -.29.11-.61.05-.82-.17l-8.72-8.72v3.68c0 1.24-1.01 2.25-2.25 2.25 -1.25 0-2.25-1.01-2.25-2.25v-.69l-.5.5v5.18c0 1.24-1.01 2.25-2.25 2.25 -1.25 0-2.25-1.01-2.25-2.25v-.69l-.72.71c-.22.21-.54.27-.82.16 -.29-.12-.47-.39-.47-.7v-5c0-.2.07-.39.21-.54l10-10ZM2.74 12.3v2.87l.71-.72c.21-.22.53-.28.81-.17 .28.11.46.38.46.69v2.5c0 .41.33.75.75.75 .41 0 .75-.34.75-.75v-5.5c0-.2.07-.39.21-.54l2-2.01c.21-.22.53-.28.81-.17 .28.11.46.38.46.69v2.5c0 .41.33.75.75.75 .41 0 .75-.34.75-.75v-5.5c0-.31.18-.58.46-.7s.6-.06.81.16l8.71 8.71v-2.88l-9.25-9.26 -9.25 9.25Z"/><path d="M9.25 17c0-.42.33-.75.75-.75h4c.41 0 .75.33.75.75v5c0 .41-.34.75-.75.75h-4c-.42 0-.75-.34-.75-.75v-5Zm1.5.75v3.5h2.5v-3.5h-2.5Z"/><path d="M15.25 2c0-.42.33-.75.75-.75h4c.41 0 .75.33.75.75v8c0 .3-.19.57-.47.69 -.29.11-.61.05-.82-.17l-4-4c-.15-.15-.22-.34-.22-.54v-4Zm1.5.75v2.93l2.5 2.5V2.74h-2.5Z"/></g></svg>