<svg viewBox="0 0 24 24" xmlns="http://www.w3.org/2000/svg"><g fill-rule="evenodd"><path d="M5 13.25c.41 0 .75.33.75.75v7.25h12.5V14c0-.42.33-.75.75-.75 .41 0 .75.33.75.75v8c0 .41-.34.75-.75.75H5c-.42 0-.75-.34-.75-.75v-8c0-.42.33-.75.75-.75Z"/><path d="M11.46 1.46c.29-.3.76-.3 1.06 0l5 5c.29.29.29.76 0 1.06 -.3.29-.77.29-1.07 0l-4.47-4.47 -9.25 9.25v2.87l4.71-4.72c.21-.22.53-.28.81-.17 .28.11.46.38.46.69v2.5c0 .41.33.75.75.75 .41 0 .75-.34.75-.75v-5.5c0-.2.07-.39.21-.54l1-1c.29-.3.76-.3 1.06 0l8.71 8.71v-2.88l-1.79-1.79c-.3-.3-.3-.77 0-1.07 .29-.3.76-.3 1.06 0l2 2c.14.14.21.33.21.53v5c0 .3-.19.57-.47.69 -.29.11-.61.05-.82-.17l-9.47-9.47 -.25.25v5.18c0 1.24-1.01 2.25-2.25 2.25 -1.25 0-2.25-1.01-2.25-2.25v-.69l-4.72 4.71c-.22.21-.54.27-.82.16 -.29-.12-.47-.39-.47-.7v-5c0-.2.07-.39.21-.54l10-10Z"/><path d="M9.25 17c0-.42.33-.75.75-.75h4c.41 0 .75.33.75.75v5c0 .41-.34.75-.75.75h-4c-.42 0-.75-.34-.75-.75v-5Zm1.5.75v3.5h2.5v-3.5h-2.5Z"/></g></svg>