<svg viewBox="0 0 24 24" xmlns="http://www.w3.org/2000/svg"><g fill-rule="evenodd"><path d="M1.25 18c0-.42.33-.75.75-.75h20c.41 0 .75.33.75.75v4c0 .41-.34.75-.75.75H2c-.42 0-.75-.34-.75-.75v-4Zm1.5.75v2.5h18.5v-2.5H2.75Z"/><path d="M11.25 2c0-.42.33-.75.75-.75 5.93 0 10.75 4.81 10.75 10.75 0 2.41-.8 4.65-2.15 6.45 -.15.18-.37.29-.6.29H3.99c-.24 0-.46-.12-.6-.3 -1.35-1.8-2.15-4.04-2.15-6.46 0-4.41 2.65-8.2 6.44-9.86 .37-.17.82 0 .98.38 .16.37-.01.82-.39.98C5 4.9 2.71 8.16 2.71 11.96c0 1.95.6 3.75 1.63 5.25h15.23c1.03-1.5 1.63-3.3 1.63-5.25 0-5.11-4.15-9.25-9.25-9.25 -.42 0-.75-.34-.75-.75Z"/><path d="M13.41 11.15c.94-.63 2.13-.73 3.16-.25l5.22 2.41c.37.17.54.61.36.99 -.18.37-.62.54-1 .36l-5.23-2.42c-.56-.26-1.2-.21-1.71.13l-3.45 2.29c-1.1.72-2.52.72-3.61 0l-.33-.22c-.56-.37-1.27-.4-1.84-.07L2.82 15.6c-.36.2-.82.08-1.03-.28 -.21-.36-.09-.82.27-1.03l2.15-1.24c1.06-.62 2.39-.57 3.41.11l.32.21c.58.39 1.35.39 1.94 0l3.44-2.3Z"/><path d="M11.584 5.37c.25-.17.58-.17.83 0l3 2c.2.13.33.37.33.62v3c0 .41-.34.75-.75.75 -.42 0-.75-.34-.75-.75v-2.6l-2.25-1.5 -2.25 1.5v6.09c0 .41-.34.75-.75.75 -.42 0-.75-.34-.75-.75v-6.5c0-.26.12-.49.33-.63l3-2Z"/></g></svg>