<svg viewBox="0 0 24 24" xmlns="http://www.w3.org/2000/svg"><g fill-rule="evenodd"><path d="M7.16 6.32c.28-.15.63-.09.86.14l2.28 2.28h4.68c.41 0 .75.33.75.75 0 .41-.34.74-.75.74h-5c-.2 0-.39-.08-.54-.22L7.32 7.89 3.21 9.94v1.25l2.59 3.02h3.54l11.35-3.32v-.69h-1.75c-.42 0-.75-.34-.75-.75 0-.42.33-.75.75-.75h2.5c.41 0 .75.33.75.75v1.99c0 .33-.22.62-.54.72l-12 3.5c-.07.01-.14.03-.21.03h-4c-.22 0-.43-.1-.57-.27l-3-3.5c-.12-.14-.19-.31-.19-.49v-2c0-.29.16-.55.41-.68l5-2.5Z"/><path d="M9.31 5.32c.21-.11.46-.1.67.01l1.86 1c.36.19.5.65.3 1.01s-.66.5-1.02.3l-1.54-.83 -1.8.84c-.38.17-.83.01-1-.37 -.18-.38-.02-.83.36-1l2.13-1Z"/><path d="M2.14 15.47c.36-.2.81-.06 1.01.3l.78 1.47h5.55c.41 0 .75.33.75.75 0 .41-.34.75-.75.75h-6c-.28 0-.54-.16-.67-.4l-1-1.87c-.2-.37-.06-.82.3-1.02Z"/><path d="M14.3 13.23c.14-.39.58-.58.96-.44l5.73 2.2c.74.28 1.24 1 1.24 1.8 0 1.06-.87 1.93-1.94 1.93h-6.82c-.23 0-.44-.1-.58-.27l-2.5-3c-.27-.32-.23-.8.09-1.06 .31-.27.79-.23 1.05.09l2.27 2.73h6.46c.24 0 .43-.2.43-.44 0-.19-.12-.35-.28-.41l-5.74-2.21c-.39-.15-.58-.59-.44-.97Z"/></g></svg>