<svg viewBox="0 0 24 24" xmlns="http://www.w3.org/2000/svg"><g fill-rule="evenodd"><path d="M13.25 6c0-.42.33-.75.75-.75h6c.41 0 .75.33.75.75v1c0 .41-.34.75-.75.75 -.42 0-.75-.34-.75-.75v-.25h-4.5v3.75c0 .22-.1.43-.27.57l-6 5c-.05.03-.1.06-.15.09l-2.85 1.42c-.46.22-.74.68-.74 1.19 0 .63.44 1.18 1.07 1.31l1.89.37c.77.15 1.57.06 2.28-.27l8.5-3.87c.44-.21.73-.65.73-1.14v-4.22c0-.42.33-.75.75-.75 .41 0 .75.33.75.75v4.21c0 1.07-.64 2.05-1.62 2.5l-8.51 3.86c-1.01.45-2.13.58-3.21.36l-1.9-.38c-1.33-.27-2.29-1.43-2.29-2.79 0-1.08.6-2.06 1.56-2.54l2.76-1.39 5.66-4.72V5.91Z"/><path d="M15.25 15c0-1.8 1.45-3.25 3.25-3.25H20c.41 0 .75.33.75.75 0 .41-.34.75-.75.75h-1.5c-.97 0-1.75.78-1.75 1.75v3c0 .41-.34.75-.75.75 -.42 0-.75-.34-.75-.75v-3Z"/><path d="M6.61 15.35c.35-.22.81-.1 1.02.25l2.99 5c.21.35.09.81-.26 1.029 -.36.21-.82.09-1.03-.26l-3-5c-.22-.36-.1-.82.25-1.029Z"/><path d="M12.25 2c0-.42.33-.75.75-.75h8c.41 0 .75.33.75.75v4c0 .41-.34.75-.75.75h-8c-.42 0-.75-.34-.75-.75V2Zm1.5.75v2.5h6.5v-2.5h-6.5Z"/></g></svg>