<svg viewBox="0 0 24 24" xmlns="http://www.w3.org/2000/svg"><g fill-rule="evenodd"><path d="M8.85 1.37c.12-.09.26-.13.41-.13h5.45c.14 0 .29.04.41.12l3.78 2.55c.13.09.23.22.28.37l3.48 9.91c.06.18.05.39-.04.57 -.09.17-.25.31-.43.38l-2.37.82c-.33.11-.69-.01-.88-.3l-1.76-2.7v3.98c0 .41-.34.75-.75.75h-9c-.42 0-.75-.34-.75-.75v-3.99l-1.76 2.69c-.19.28-.55.41-.88.29l-2.37-.83c-.19-.07-.35-.21-.43-.39 -.09-.18-.1-.39-.04-.58l1.22-3.48c.13-.4.56-.6.95-.46 .39.13.59.56.45.95l-.98 2.76 1.1.38 2.81-4.31c.18-.28.52-.41.84-.31 .31.09.53.38.53.71v5.75h7.5v-5.75c0-.34.21-.63.53-.72 .31-.1.66.03.84.3l2.81 4.3 1.1-.39 -3.16-8.98 -3.4-2.29h-5l-3.4 2.28 -.67 1.87c-.14.39-.57.59-.96.45 -.4-.14-.6-.57-.46-.96l.74-2.12c.05-.16.15-.29.28-.38l3.78-2.56Z"/><path d="M6.75 17c0-.42.33-.75.75-.75h9c.41 0 .75.33.75.75v3.5c0 .41-.34.75-.75.75h-9c-.42 0-.75-.34-.75-.75V17Zm1.5.75v2h7.5v-2h-7.5Z"/><path d="M9.25 2c0-.42.33-.75.75-.75h4c.41 0 .75.33.75.75v1c0 1.51-1.24 2.75-2.75 2.75 -1.52 0-2.75-1.24-2.75-2.75V2Zm1.5.75V3c0 .69.55 1.25 1.25 1.25 .69 0 1.25-.56 1.25-1.25v-.25h-2.5Z"/></g></svg>