<svg viewBox="0 0 24 24" xmlns="http://www.w3.org/2000/svg"><g fill-rule="evenodd"><path d="M1.25 7c0-.97.78-1.75 1.75-1.75h18c.96 0 1.75.78 1.75 1.75v2c0 .96-.79 1.75-1.75 1.75H3c-.97 0-1.75-.79-1.75-1.75V7ZM3 6.75c-.14 0-.25.11-.25.25v2c0 .13.11.25.25.25h18c.13 0 .25-.12.25-.25V7c0-.14-.12-.25-.25-.25H3Z"/><path d="M3.25 4.19c0-1.63 1.39-2.89 3-2.74l12 1.125c1.41.13 2.49 1.31 2.49 2.73v.67c0 .41-.34.75-.75.75h-16c-.42 0-.75-.34-.75-.75V4.16Zm2.86-1.25c-.74-.07-1.37.5-1.37 1.24v1.05h14.49c-.04-.62-.52-1.12-1.14-1.18l-12-1.125Z"/><path d="M2.25 10c0-.42.33-.75.75-.75h6c.41 0 .75.33.75.75v9c0 .41-.34.75-.75.75H3c-.42 0-.75-.34-.75-.75v-3c0-.42.33-.75.75-.75 .41 0 .75.33.75.75v2.25h4.5v-7.5h-4.5V12c0 .41-.34.75-.75.75 -.42 0-.75-.34-.75-.75v-2Z"/><path d="M14.25 10c0-.42.33-.75.75-.75h6c.41 0 .75.33.75.75v4c0 .41-.34.75-.75.75h-6c-.42 0-.75-.34-.75-.75v-4Zm1.5.75v2.5h4.5v-2.5h-4.5Z"/><path d="M3 18.25c.41 0 .75.33.75.75v3c0 .41-.34.75-.75.75 -.42 0-.75-.34-.75-.75v-3c0-.42.33-.75.75-.75Z"/><path d="M15 13.25c.41 0 .75.33.75.75v3c0 .41-.34.75-.75.75 -.42 0-.75-.34-.75-.75v-3c0-.42.33-.75.75-.75Z"/><path d="M6 18.25c.41 0 .75.33.75.75v3c0 .41-.34.75-.75.75 -.42 0-.75-.34-.75-.75v-3c0-.42.33-.75.75-.75Z"/><path d="M18 13.25c.41 0 .75.33.75.75v3c0 .41-.34.75-.75.75 -.42 0-.75-.34-.75-.75v-3c0-.42.33-.75.75-.75Z"/><path d="M9 18.25c.41 0 .75.33.75.75v3c0 .41-.34.75-.75.75 -.42 0-.75-.34-.75-.75v-3c0-.42.33-.75.75-.75Z"/><path d="M21 13.25c.41 0 .75.33.75.75v3c0 .41-.34.75-.75.75 -.42 0-.75-.34-.75-.75v-3c0-.42.33-.75.75-.75Z"/></g></svg>