<svg viewBox="0 0 24 24" xmlns="http://www.w3.org/2000/svg"><path fill="#8B98A6" fill-rule="evenodd" d="M6.25 2c0-.42.33-.75.75-.75h10c.41 0 .75.33.75.75v3c0 .41-.34.75-.75.75H7c-.42 0-.75-.34-.75-.75V2Zm1.5.75v1.5h8.5v-1.5h-8.5Z"/><path fill="#5E94FF" d="M2 4.25c-.42 0-.75.33-.75.75v15c0 .41.33.75.75.75h20c.41 0 .75-.34.75-.75V5c0-.42-.34-.75-.75-.75H2Z"/><path fill="#4DC4FF" d="M2 4.25c-.42 0-.75.33-.75.75v5c0 .34.23.64.56.72l8.05 2.01c1.39.34 2.85.34 4.24 0l8.05-2.02c.33-.09.56-.39.56-.73v-5c0-.42-.34-.75-.75-.75h-20Z"/><path fill="#ECEFF1" d="M12 8.75c-1.25 0-2.25 1-2.25 2.25v3c0 1.24 1 2.25 2.25 2.25 1.24 0 2.25-1.01 2.25-2.25v-3c0-1.25-1.01-2.25-2.25-2.25Z"/></svg>