<svg viewBox="0 0 24 24" xmlns="http://www.w3.org/2000/svg"><path fill="#CFD8DC" d="M5 1.25c-.42 0-.75.33-.75.75v20c0 .41.33.75.75.75h14c.41 0 .75-.34.75-.75V2c0-.42-.34-.75-.75-.75H5Z"/><g fill="#8B98A6"><path d="M7.5 3.75c-.42 0-.75.33-.75.75v4c0 .41.33.75.75.75h9c.41 0 .75-.34.75-.75v-4c0-.42-.34-.75-.75-.75h-9Z"/><g fill="#8B98A6" fill-rule="evenodd"><path d="M12.75 12c0-.42.33-.75.75-.75h2c.41 0 .75.33.75.75 0 .41-.34.75-.75.75h-2c-.42 0-.75-.34-.75-.75Z"/><path d="M12.75 15c0-.42.33-.75.75-.75h2c.41 0 .75.33.75.75 0 .41-.34.75-.75.75h-2c-.42 0-.75-.34-.75-.75Z"/><path d="M12.75 18c0-.42.33-.75.75-.75h2c.41 0 .75.33.75.75 0 .41-.34.75-.75.75h-2c-.42 0-.75-.34-.75-.75Z"/><path d="M7.75 12c0-.42.33-.75.75-.75h2c.41 0 .75.33.75.75 0 .41-.34.75-.75.75h-2c-.42 0-.75-.34-.75-.75Z"/><path d="M7.75 15c0-.42.33-.75.75-.75h2c.41 0 .75.33.75.75 0 .41-.34.75-.75.75h-2c-.42 0-.75-.34-.75-.75Z"/><path d="M7.75 18c0-.42.33-.75.75-.75h2c.41 0 .75.33.75.75 0 .41-.34.75-.75.75h-2c-.42 0-.75-.34-.75-.75Z"/></g></g></svg>