<svg viewBox="0 0 24 24" xmlns="http://www.w3.org/2000/svg"><g fill="#5E94FF"><path d="M10 9.25c-.42 0-.75.33-.75.75v5c0 .41.33.75.75.75h10c.41 0 .75-.34.75-.75v-5c0-.42-.34-.75-.75-.75H10Z"/><path d="M4 9.25c-.42 0-.75.33-.75.75v10c0 .41.33.75.75.75h6c.41 0 .75-.34.75-.75V10c0-.42-.34-.75-.75-.75H4Z"/></g><path fill="#4DC4FF" fill-rule="evenodd" d="M3.25 10c0-.42.33-.75.75-.75h6c.41 0 .75.33.75.75v10c0 .41-.34.75-.75.75H4c-.42 0-.75-.34-.75-.75V10Zm1.5.75v8.5h4.5v-8.5h-4.5Z"/><path fill="#CFD8DC" d="M12 5.25c-.42 0-.75.33-.75.75v4c0 .41.33.75.75.75h5c.41 0 .75-.34.75-.75V6c0-.42-.34-.75-.75-.75h-5Z"/><g fill="#4DC4FF" fill-rule="evenodd"><path d="M1.25 10c0-.42.33-.75.75-.75h20c.41 0 .75.33.75.75 0 .41-.34.75-.75.75H2c-.42 0-.75-.34-.75-.75Z"/><path d="M20 9.25c.41 0 .75.33.75.75v10.2c0 .41-.34.75-.75.75 -.42 0-.75-.34-.75-.75V9.99c0-.42.33-.75.75-.75Z"/></g></svg>