<svg viewBox="0 0 24 24" xmlns="http://www.w3.org/2000/svg"><path fill="#CFD8DC" fill-rule="evenodd" d="M9.86 7.05c.36.2.48.66.28 1.02l-2.85 5 1.9 6.19c.12.39-.11.81-.5.93 -.4.12-.82-.11-.94-.5l-2-6.5c-.07-.2-.04-.42.06-.6l3-5.3c.2-.37.66-.49 1.02-.29Z"/><path fill="#5E94FF" d="M9.65 2.08c-.92-.31-1.91.19-2.22 1.1L6.8 5.07c-.31.91.19 1.9 1.1 2.21l2.37.78c.39.13.81-.09.94-.48l1.25-3.8c.13-.4-.09-.82-.48-.95L9.6 2.04Z"/><path fill="#FFC44D" d="M19.94 6.02c1.17.39 1.81 1.66 1.42 2.84 -.4 1.17-1.67 1.81-2.85 1.42l-1.43-.48c-.4-.14-.61-.56-.48-.95L17.54 6c.13-.4.55-.61.94-.48l1.42.47Z"/><g fill="#5E94FF"><path d="M6.5 18.75c-1.52 0-2.75 1.23-2.75 2.75v.5c0 .41.33.75.75.75h8c.41 0 .75-.34.75-.75v-.5c0-1.52-1.24-2.75-2.75-2.75h-4Z"/><path d="M15.35 2.39c-2.23-.74-4.64.46-5.38 2.69 -.74 2.22.46 4.63 2.69 5.37l3.79 1.25c.39.13.81-.09.94-.48l2.2-6.65c.13-.4-.09-.82-.48-.95l-3.8-1.26Z"/></g></svg>