<svg viewBox="0 0 24 24" xmlns="http://www.w3.org/2000/svg"><g fill="#FFC44D" fill-rule="evenodd"><path d="M12 1.25c.41 0 .75.33.75.75v3c0 .41-.34.75-.75.75 -.42 0-.75-.34-.75-.75V2c0-.42.33-.75.75-.75Z"/><path d="M12.26 8.29c.38.14.57.58.43.96l-5 13c-.15.38-.59.57-.97.43 -.39-.15-.58-.59-.44-.97l5-13c.14-.39.58-.58.96-.44Z"/><path d="M11.73 8.29c-.39.14-.58.58-.44.96l5 13c.14.38.58.57.96.43 .38-.15.57-.59.43-.97l-5-13c-.15-.39-.59-.58-.97-.44Z"/></g><g fill="#FF884D"><path d="M12 4.25c-1.52 0-2.75 1.23-2.75 2.75 0 1.51 1.23 2.75 2.75 2.75 1.51 0 2.75-1.24 2.75-2.75 0-1.52-1.24-2.75-2.75-2.75Z"/><path fill="#FF884D" fill-rule="evenodd" d="M3.25 17c0-.42.33-.75.75-.75h16.18c.41 0 .75.33.75.75 0 .41-.34.75-.75.75H3.99c-.42 0-.75-.34-.75-.75Z"/></g></svg>