<svg viewBox="0 0 24 24" xmlns="http://www.w3.org/2000/svg"><path fill="#FFC44D" d="M12.71 1.76c-.11-.31-.39-.52-.72-.52 -.33 0-.62.2-.72.51l-.73 2.24H8.17c-.33 0-.62.2-.72.51 -.11.3 0 .64.27.83l1.91 1.38 -.73 2.24c-.11.3 0 .64.27.83 .26.19.61.19.88 0l1.91-1.39 1.91 1.38c.26.19.61.19.88 0 .26-.2.37-.53.27-.84l-.73-2.25 1.91-1.39c.26-.2.37-.53.27-.84 -.11-.31-.39-.52-.72-.52h-2.37l-.73-2.25Z"/><g fill="#CFD8DC" fill-rule="evenodd"><path d="M12 10.25c.41 0 .75.33.75.75v1.25H20c.41 0 .75.33.75.75v3c0 .41-.34.75-.75.75 -.42 0-.75-.34-.75-.75v-2.25H4.75V16c0 .41-.34.75-.75.75 -.42 0-.75-.34-.75-.75v-3c0-.42.33-.75.75-.75h7.25V11c0-.42.33-.75.75-.75Z"/><path d="M16.75 16c0-.42.33-.75.75-.75H22c.41 0 .75.33.75.75v3c0 .41-.34.75-.75.75 -.42 0-.75-.34-.75-.75v-2.25h-3V19c0 .41-.34.75-.75.75 -.42 0-.75-.34-.75-.75v-3Z"/><path d="M1.25 16c0-.42.33-.75.75-.75h4.5c.41 0 .75.33.75.75v3c0 .41-.34.75-.75.75 -.42 0-.75-.34-.75-.75v-2.25h-3V19c0 .41-.34.75-.75.75 -.42 0-.75-.34-.75-.75v-3Z"/></g></svg>