<svg viewBox="0 0 24 24" xmlns="http://www.w3.org/2000/svg"><g fill="#CFD8DC"><path d="M11.23 16.28c-.23-.08-.49-.04-.68.1 -.2.14-.32.36-.32.6v5c0 .41.33.75.75.75h3c.41 0 .75-.34.75-.75v-5c0-.25-.12-.47-.32-.61 -.2-.15-.45-.18-.68-.11l-1.27.42 -1.27-.43Z"/><path fill="#CFD8DC" fill-rule="evenodd" d="M6.75 1.25c.19 0 .38.07.53.21L9.02 3.2c.29.29.29.76-.01 1.06 -.3.29-.77.29-1.07-.01L6.75 3.06c-2.64 3.17-2.47 7.89.5 10.87 2.97 2.97 7.69 3.14 10.87.5l-1.19-1.19c-.3-.3-.3-.77 0-1.07 .29-.3.76-.3 1.06 0l1.74 1.74c.14.14.21.33.21.53 0 .19-.08.38-.22.53 -3.75 3.74-9.81 3.74-13.55 0 -3.75-3.75-3.75-9.81 0-13.55 .14-.15.33-.22.53-.22Z"/></g><path fill="#5E94FF" d="M13 1.49c-3.73 0-6.75 3.02-6.75 6.75 0 3.72 3.02 6.74 6.75 6.74 3.72 0 6.75-3.03 6.75-6.75 0-3.73-3.03-6.75-6.75-6.75Z"/><g fill="#CFD8DC" fill-rule="evenodd"><path d="M8.25 22c0-.42.33-.75.75-.75h7c.41 0 .75.33.75.75 0 .41-.34.75-.75.75H9c-.42 0-.75-.34-.75-.75Z"/><g fill="#8BC94D"><path d="M19.6 6.86c-.64-3.07-3.36-5.38-6.61-5.38 -1.63-.001-3.13.57-4.29 1.53l.68.91s0 .01.01.01l1.31 1.64c.61.76 1.65 1.04 2.57.67 .28-.12.62-.04.82.19l.37.43c.76.88 2.01 1.18 3.09.74l2.01-.81Z"/><path d="M19.55 9.86l-1.58.4 -3.27.78c-.36.08-.73.01-1.03-.21l-.23-.17c-1.32-.96-3.18-.57-4 .84l-.63 1.08 -.37.63c1.19 1.07 2.77 1.73 4.51 1.73 3.16 0 5.82-2.19 6.55-5.13Z"/></g></g></svg>