<svg viewBox="0 0 24 24" xmlns="http://www.w3.org/2000/svg"><path fill="#4DC4FF" d="M6 10.75c-.42 0-.75.33-.75.75V17c0 .96.78 1.75 1.75 1.75h10c.96 0 1.75-.79 1.75-1.75v-5.5c0-.42-.34-.75-.75-.75H6Z"/><path fill="#FFC44D" fill-rule="evenodd" d="M21 8.75c.41 0 .75.33.75.75V15c0 .41-.34.75-.75.75 -.42 0-.75-.34-.75-.75V9.5c0-.42.33-.75.75-.75Z"/><path fill="#5E94FF" d="M2.63 8.91c-.24.13-.39.38-.39.65s.14.52.38.65l9.07 5.07c.22.12.5.12.73 0l9.07-5.08c.23-.14.38-.39.38-.66 0-.28-.15-.53-.39-.66L12.4 3.8c-.23-.13-.51-.13-.74 0L2.58 8.87Z"/></svg>