<svg viewBox="0 0 24 24" xmlns="http://www.w3.org/2000/svg"><path fill="#5E94FF" fill-rule="evenodd" d="M8.14 18.63c.03-.24-.04-.48-.21-.66l-1.48-1.48c-.18-.18-.42-.26-.67-.21 -.25.04-.45.19-.55.42l-1.35 2.89c-.14.28-.08.63.15.85 .22.22.57.27.85.13l2.82-1.42c.21-.11.36-.32.4-.56Z"/><path fill="#CFD8DC" d="M12.88 15.85c.29.29.29.76 0 1.06l-2.13 2.12c-.3.29-.77.29-1.07 0l-.18-.18 -.89.88c-.3.29-.77.29-1.07 0L4.71 16.9c-.3-.3-.3-.77 0-1.07l.88-.89 -.18-.18c-.3-.3-.3-.77 0-1.07l2.12-2.13c.29-.3.76-.3 1.06 0l4.24 4.24Z"/><path fill="#5E94FF" d="M21.36 5.95c1.07 1.07 1.07 2.81 0 3.88l-7.78 7.77c-.3.29-.77.29-1.07 0l-5.66-5.66c-.3-.3-.3-.77 0-1.07l7.77-7.78c1.07-1.08 2.81-1.08 3.88 0l2.82 2.82Z"/></svg>