<svg viewBox="0 0 24 24" xmlns="http://www.w3.org/2000/svg"><path fill="#ECEFF1" d="M4 5.5c-1.52 0-2.75 1.23-2.75 2.75v11C1.25 20.76 2.48 22 4 22h16c1.51 0 2.75-1.24 2.75-2.75v-11c0-1.52-1.24-2.75-2.75-2.75H4Z"/><g fill="#5E94FF"><path d="M10 2c-.42 0-.75.33-.75.75v4c0 1.51 1.23 2.75 2.75 2.75 1.51 0 2.75-1.24 2.75-2.75v-4c0-.42-.34-.75-.75-.75h-4Z"/><g fill="#5E94FF" fill-rule="evenodd"><path d="M12.75 11.75c0-.42.33-.75.75-.75h3c.41 0 .75.33.75.75 0 .41-.34.75-.75.75h-3c-.42 0-.75-.34-.75-.75Z"/><path d="M12.75 15.25c0-.42.33-.75.75-.75h6c.41 0 .75.33.75.75 0 .41-.34.75-.75.75h-6c-.42 0-.75-.34-.75-.75Z"/></g><path d="M8 10c-1.52 0-2.75 1.23-2.75 2.75 0 1.51 1.23 2.75 2.75 2.75 1.51 0 2.75-1.24 2.75-2.75C10.75 11.23 9.51 10 8 10Z"/><path fill="#5E94FF" fill-rule="evenodd" d="M8 16.5c-1.25 0-2.25 1-2.25 2.25 0 .41-.34.75-.75.75 -.42 0-.75-.34-.75-.75C4.25 16.67 5.92 15 8 15c2.07 0 3.75 1.67 3.75 3.75 0 .41-.34.75-.75.75 -.42 0-.75-.34-.75-.75 0-1.25-1.01-2.25-2.25-2.25Z"/></g></svg>