<svg viewBox="0 0 24 24" xmlns="http://www.w3.org/2000/svg"><g fill="#CFD8DC" fill-rule="evenodd"><path d="M12 1.25c.41 0 .75.33.75.75v2.5c0 .41-.34.75-.75.75 -.42 0-.75-.34-.75-.75V2c0-.42.33-.75.75-.75Z"/><path d="M12 15.75c.41 0 .75.33.75.75v5c0 .41-.34.75-.75.75 -.42 0-.75-.34-.75-.75v-5c0-.42.33-.75.75-.75Z"/><path d="M11.52 15.91c.32-.27.79-.22 1.05.1l4.5 5.5c.26.32.21.79-.11 1.05 -.33.26-.8.21-1.06-.11l-4.5-5.5c-.27-.33-.22-.8.1-1.06Z"/><path d="M12.47 15.91c-.33-.27-.8-.22-1.06.1l-4.5 5.5c-.27.32-.22.79.1 1.05s.79.21 1.05-.11l4.5-5.5c.26-.33.21-.8-.11-1.06Z"/></g><path fill="#ECEFF1" d="M2 3.75c-.42 0-.75.33-.75.75v12c0 .41.33.75.75.75h20c.41 0 .75-.34.75-.75v-12c0-.42-.34-.75-.75-.75H2Z"/><g fill="#EE4D4D" fill-rule="evenodd"><path d="M4.25 9c0-.42.33-.75.75-.75h11c.41 0 .75.33.75.75 0 .41-.34.75-.75.75H5c-.42 0-.75-.34-.75-.75Z"/><path d="M4.25 13c0-.42.33-.75.75-.75h13.5c.41 0 .75.33.75.75 0 .41-.34.75-.75.75H5c-.42 0-.75-.34-.75-.75Z"/></g></svg>