<svg viewBox="0 0 24 24" xmlns="http://www.w3.org/2000/svg"><path fill="#5E94FF" d="M5 2.25C3.48 2.25 2.25 3.48 2.25 5v11c0 1.51 1.23 2.75 2.75 2.75h11c1.51 0 2.75-1.24 2.75-2.75V5c0-1.52-1.24-2.75-2.75-2.75H5Z"/><path fill="#4DC4FF" fill-rule="evenodd" d="M20.5 4.75c.41 0 .75.33.75.75v13c0 1.51-1.24 2.75-2.75 2.75h-13c-.42 0-.75-.34-.75-.75 0-.42.33-.75.75-.75h13c.69 0 1.25-.56 1.25-1.25v-13c0-.42.33-.75.75-.75Z"/><path fill="#ECEFF1" d="M15.75 2.25h-5.5V9c0 .25.13.5.35.63 .22.13.49.14.72.03l1.66-.84 1.66.83c.23.11.5.1.72-.04 .22-.14.35-.38.35-.64V2.22Z"/></svg>