<svg viewBox="0 0 24 24" xmlns="http://www.w3.org/2000/svg"><path fill="#FFD57F" d="M6 5.25c-.42 0-.75.33-.75.75v16c0 .41.33.75.75.75h16c.41 0 .75-.34.75-.75V6c0-.42-.34-.75-.75-.75H6Z"/><path fill="#FFC44D" d="M2 1.25c-.42 0-.75.33-.75.75v16c0 .41.33.75.75.75h10.28c.19 0 .38-.08.53-.22l5.71-5.72c.14-.15.21-.34.21-.54V1.98c0-.42-.34-.75-.75-.75h-16Z"/><path fill="#FF884D" d="M12.28 11.53c-.42 0-.75.33-.75.75v5.71c0 .3.18.57.46.69 .28.11.6.05.81-.17l5.71-5.72c.21-.22.27-.54.16-.82 -.12-.29-.39-.47-.7-.47h-5.72Z"/><g fill="#ECEFF1" fill-rule="evenodd"><path d="M4.96 5.14c0-.42.33-.75.75-.75h8.57c.41 0 .75.33.75.75 0 .41-.34.75-.75.75H5.7c-.42 0-.75-.34-.75-.75Z"/><path d="M4.96 9.28c0-.42.33-.75.75-.75h8.57c.41 0 .75.33.75.75 0 .41-.34.74-.75.74H5.7c-.42 0-.75-.34-.75-.75Z"/></g></svg>