<svg viewBox="0 0 24 24" xmlns="http://www.w3.org/2000/svg"><path fill="#4DC4FF" d="M8 11.25c-.22 0-.43.09-.57.26 -.15.16-.21.38-.18.6l1.5 10c.05.36.37.63.74.63h4.99c.37 0 .68-.28.74-.64l1.5-10c.03-.22-.04-.44-.18-.61 -.15-.17-.35-.27-.57-.27h-8Z"/><path fill="#CFD8DC" fill-rule="evenodd" d="M11.62 1.58c.22.34.13.81-.21 1.04L8.74 4.39v2.59c0 .41-.34.75-.75.75 -.42 0-.75-.34-.75-.75v-3c0-.26.12-.49.33-.63l3-2c.34-.23.81-.14 1.04.2Z"/><g fill="#5E94FF"><path d="M6 6.25c-.42 0-.75.33-.75.75v5c0 .41.33.75.75.75h12c.41 0 .75-.34.75-.75V7c0-.42-.34-.75-.75-.75H6Z"/><path fill="#5E94FF" fill-rule="evenodd" d="M5.99 22c0-.42.33-.75.75-.75h10.25c.41 0 .75.33.75.75 0 .41-.34.75-.75.75H6.73c-.42 0-.75-.34-.75-.75Z"/></g></svg>