<svg viewBox="0 0 24 24" xmlns="http://www.w3.org/2000/svg"><g fill="#CFD8DC" fill-rule="evenodd"><path d="M12 15.75c.41 0 .75.33.75.75v5c0 .41-.34.75-.75.75 -.42 0-.75-.34-.75-.75v-5c0-.42.33-.75.75-.75Z"/><path d="M11.52 15.91c.32-.27.79-.22 1.05.1l4.5 5.5c.26.32.21.79-.11 1.05 -.33.26-.8.21-1.06-.11l-4.5-5.5c-.27-.33-.22-.8.1-1.06Z"/><path d="M12.47 15.91c-.33-.27-.8-.22-1.06.1l-4.5 5.5c-.27.32-.22.79.1 1.05s.79.21 1.05-.11l4.5-5.5c.26-.33.21-.8-.11-1.06Z"/></g><path fill="#ECEFF1" d="M4 1.25c-.42 0-.75.33-.75.75v14.5c0 .41.33.75.75.75h16c.41 0 .75-.34.75-.75V2c0-.42-.34-.75-.75-.75H4Z"/><g fill="#5E94FF" fill-rule="evenodd"><path d="M1.25 2c0-.42.33-.75.75-.75h20c.41 0 .75.33.75.75 0 .41-.34.75-.75.75H2c-.42 0-.75-.34-.75-.75Z"/><path d="M1.25 16.5c0-.42.33-.75.75-.75h20c.41 0 .75.33.75.75 0 .41-.34.75-.75.75H2c-.42 0-.75-.34-.75-.75Z"/></g><path fill="#EE4D4D" d="M11.251 5.97c-.4-.28-.88-.28-1.25-.13 -.37.14-.76.52-.76 1.08v5.13c0 .56.38.93.75 1.08 .36.15.84.14 1.24-.13l3.77-2.57c.31-.22.52-.57.52-.96 0-.4-.21-.75-.53-.96l-3.78-2.57Z"/></svg>