<svg viewBox="0 0 24 24" xmlns="http://www.w3.org/2000/svg"><g fill="#5E94FF" fill-rule="evenodd"><path d="M12.5 13.75c.41 0 .75.33.75.75V20c0 .41-.34.75-.75.75 -.42 0-.75-.34-.75-.75v-5.5c0-.42.33-.75.75-.75Z"/><path d="M12.01 13.92c.31-.27.78-.23 1.05.08l5.5 6.5c.26.31.22.78-.09 1.05 -.32.26-.79.22-1.06-.09l-5.5-6.5c-.27-.32-.23-.79.08-1.06Z"/><path d="M12.98 13.92c-.32-.27-.79-.23-1.06.08l-5.51 6.5c-.27.31-.23.78.08 1.05 .31.26.78.22 1.05-.09l5.49-6.5c.26-.32.22-.79-.09-1.06Z"/><path fill="#CFD8DC" d="M1.89 12.67c-.15-.39.05-.82.44-.97l3.75-1.37c.38-.15.81.05.96.44 .14.38-.06.81-.45.96l-3.76 1.36c-.39.14-.82-.06-.97-.45Z"/></g><path fill="#CFD8DC" d="M15.75 9.5c0-.25-.13-.49-.33-.63 -.21-.14-.47-.17-.7-.08l-5.01 1.99c-.29.11-.48.38-.48.69v2c0 .96.78 1.75 1.75 1.75h3c.96 0 1.75-.79 1.75-1.75v-4Z"/><path fill="#5E94FF" d="M5.59 8.93c-.39.14-.59.57-.45.96l1.02 2.81c.14.38.57.58.96.44l12.216-4.45c.38-.15.58-.58.44-.97l-1.03-2.82c-.15-.39-.58-.59-.97-.45L5.56 8.89Z"/><path fill="#CFD8DC" d="M17.46 3.55c-.39.14-.59.57-.45.96l1.71 4.69c.14.38.57.58.96.44l1.87-.69c.9-.34 1.37-1.34 1.04-2.25l-1.03-2.82c-.34-.91-1.34-1.38-2.25-1.05l-1.88.68Z"/></svg>