<svg viewBox="0 0 24 24" xmlns="http://www.w3.org/2000/svg"><g fill-rule="evenodd"><path d="M6 3c-.56 0-1 .44-1 1v16c0 .55.44 1 1 1h12c.55 0 1-.45 1-1V8.91c0-.3-.13-.57-.35-.76l-5.74-4.92c-.19-.16-.42-.25-.66-.25H5.98ZM3 4c0-1.66 1.34-3 3-3h6.26c.71 0 1.4.25 1.95.72l5.73 4.91c.66.56 1.04 1.4 1.04 2.27v11.08c0 1.65-1.35 3-3 3h-12c-1.66 0-3-1.35-3-3v-16Z"/><path d="M12 6V2.5h2V6c0 .55.44 1 1 1h4.5v2H15c-1.66 0-3-1.35-3-3Z"/><path d="M11.5 10.13c.3-.18.68-.18.99 0l3.5 2c.31.17.5.5.5.86v4c0 .35-.2.69-.51.86l-3.5 2c-.31.17-.69.17-1 0l-3.51-2c-.32-.18-.51-.51-.51-.87v-4c0-.36.19-.7.5-.87l3.5-2Zm-2.01 3.44v2.83l2.5 1.42 2.5-1.43v-2.84l-2.5-1.43 -2.5 1.42Z"/><path d="M12 13.84l3-1.72 .99 1.73 -3 1.71v2.91h-2v-2.92l-3-1.72 .99-1.74 3 1.71Z"/></g></svg>