<svg viewBox="0 0 24 24" xmlns="http://www.w3.org/2000/svg"><g fill-rule="evenodd"><path d="M6 3c-.56 0-1 .44-1 1v16c0 .55.44 1 1 1h12c.55 0 1-.45 1-1V8.91c0-.3-.13-.57-.35-.76l-5.74-4.92c-.19-.16-.42-.25-.66-.25H5.98ZM3 4c0-1.66 1.34-3 3-3h6.26c.71 0 1.4.25 1.95.72l5.73 4.91c.66.56 1.04 1.4 1.04 2.27v11.08c0 1.65-1.35 3-3 3h-12c-1.66 0-3-1.35-3-3v-16Z"/><path d="M12 5.5V2h2v3.5c0 .55.44 1 1 1h4.5v2H15c-1.66 0-3-1.35-3-3Z"/><path d="M14.76 15.47c.43.72.73 1.79.73 3.02h2c0-1.54-.38-2.97-1.03-4.05 -.64-1.07-1.67-1.95-2.98-1.95v2c.33 0 .81.23 1.26.97Z"/><path d="M9.23 15.47c-.44.72-.74 1.79-.74 3.02h-2c0-1.54.37-2.97 1.02-4.05 .63-1.07 1.66-1.95 2.97-1.95v2c-.34 0-.82.23-1.27.97Z"/><path d="M9.5 12c0-.56.44-1 1-1h3c.55 0 1 .44 1 1v3c0 .55-.45 1-1 1h-3c-.56 0-1-.45-1-1v-3Zm2 1v1h1v-1h-1Z"/><path d="M17.5 14.5h-4v-2h4v2Z"/><path d="M6.5 14.5h4v-2h-4v2Z"/></g></svg>