<svg viewBox="0 0 24 24" xmlns="http://www.w3.org/2000/svg"><g fill-rule="evenodd"><path d="M4 3c-.56 0-1 .44-1 1v16c0 .55.44 1 1 1h4v2H4c-1.66 0-3-1.35-3-3V4c0-1.66 1.34-3 3-3h4.72c.75 0 1.47.28 2.02.78l4.77 4.37c.61.56.97 1.37.97 2.21v1.62h-2V8.35c0-.29-.12-.55-.33-.74L9.37 3.23c-.19-.17-.43-.27-.68-.27H3.96Z"/><path d="M8.5 5.5V2h2v3.5c0 .55.44 1 1 1H15v2h-3.5c-1.66 0-3-1.35-3-3Z"/><path d="M8.15 17c.32.52.95 1.41 1.88 2.21 1.1.96 2.59 1.78 4.46 1.78s3.35-.82 4.46-1.79c.92-.81 1.55-1.7 1.88-2.22 -.33-.53-.96-1.42-1.89-2.22 -1.11-.97-2.6-1.79-4.47-1.79 -1.88 0-3.36.81-4.47 1.78 -.93.8-1.56 1.69-1.89 2.21Zm.56-3.724C10.06 12.086 11.99 11 14.48 11c2.49 0 4.42 1.09 5.77 2.276 1.34 1.17 2.16 2.47 2.46 3 .25.44.25.98 0 1.43 -.31.53-1.13 1.83-2.47 3 -1.36 1.18-3.29 2.276-5.78 2.276 -2.5 0-4.43-1.1-5.78-2.276 -1.35-1.18-2.17-2.48-2.47-3.01 -.26-.45-.26-.99 0-1.44 .3-.54 1.12-1.84 2.46-3.01Z"/><path d="M14.5 16c-.56 0-1 .44-1 1 0 .55.44 1 1 1 .55 0 1-.45 1-1 0-.56-.45-1-1-1Zm-3 1c0-1.66 1.34-3 3-3 1.65 0 3 1.34 3 3 0 1.65-1.35 3-3 3 -1.66 0-3-1.35-3-3Z"/></g></svg>