<svg viewBox="0 0 24 24" xmlns="http://www.w3.org/2000/svg"><g fill-rule="evenodd"><path d="M4 3c-.56 0-1 .44-1 1v16c0 .55.44 1 1 1h6.5v2H4c-1.66 0-3-1.35-3-3V4c0-1.66 1.34-3 3-3h4.72c.75 0 1.47.28 2.02.78l4.77 4.37c.61.56.97 1.37.97 2.21v.12h-2v-.13c0-.29-.12-.55-.33-.74L9.37 3.23c-.19-.17-.43-.27-.68-.27H3.96Z"/><path d="M8.5 5.5V2h2v3.5c0 .55.44 1 1 1H15v2h-3.5c-1.66 0-3-1.35-3-3Z"/><path d="M16.5 12c-2.49 0-4.5 2.01-4.5 4.5 0 2.48 2.01 4.5 4.5 4.5 2.48 0 4.5-2.02 4.5-4.5 0-2.49-2.02-4.5-4.5-4.5ZM10 16.5c0-3.59 2.91-6.5 6.5-6.5 3.58 0 6.5 2.91 6.5 6.5 0 3.58-2.92 6.5-6.5 6.5 -3.59 0-6.5-2.92-6.5-6.5Z"/><path d="M16.5 15.5c-.56 0-1 .44-1 1 0 .55.44 1 1 1 .55 0 1-.45 1-1 0-.56-.45-1-1-1Zm-3 1c0-1.66 1.34-3 3-3 1.65 0 3 1.34 3 3 0 1.65-1.35 3-3 3 -1.66 0-3-1.35-3-3Z"/><path d="M19.5 11.5v5h-2v-5h2Z"/><path d="M16.5 13.5h-5v2h5v-2Z"/><path d="M15.5 16.5v5h-2v-5h2Z"/><path d="M21.5 17.5h-5v2h5v-2Z"/></g></svg>