<svg viewBox="0 0 24 24" xmlns="http://www.w3.org/2000/svg"><g fill-rule="evenodd"><path d="M6 3c-.56 0-1 .44-1 1v16c0 .55.44 1 1 1h12c.55 0 1-.45 1-1V8.91c0-.3-.13-.57-.35-.76l-5.74-4.92c-.19-.16-.42-.25-.66-.25H5.98ZM3 4c0-1.66 1.34-3 3-3h6.26c.71 0 1.4.25 1.95.72l5.73 4.91c.66.56 1.04 1.4 1.04 2.27v11.08c0 1.65-1.35 3-3 3h-12c-1.66 0-3-1.35-3-3v-16Z"/><path d="M12 6V2.5h2V6c0 .55.44 1 1 1h4.5v2H15c-1.66 0-3-1.35-3-3Z"/><path d="M6 10.5c0-.56.44-1 1-1h10c.55 0 1 .44 1 1v9c0 .55-.45 1-1 1H7c-.56 0-1-.45-1-1v-9Zm2 1v7h8v-7H8Z"/><path d="M9 19.5v-9h2v9H9Z"/><path d="M13 19.5v-9h2v9h-2Z"/><path d="M17 14.5H7v-2h10v2Z"/></g></svg>